<?xml version="1.0" encoding="UTF-8" standalone="no"?>
<!DOCTYPE svg PUBLIC "-//W3C//DTD SVG 1.1//EN"
 "http://www.w3.org/Graphics/SVG/1.1/DTD/svg11.dtd">
<!-- Generated by graphviz version 2.40.1 (20161225.0304)
 -->
<!-- Title: acq.cancel_reason Pages: 1 -->
<svg width="1755pt" height="1799pt"
 viewBox="0.00 0.00 1754.50 1799.00" xmlns="http://www.w3.org/2000/svg" xmlns:xlink="http://www.w3.org/1999/xlink">
<g id="graph0" class="graph" transform="scale(1 1) rotate(0) translate(4 1795)">
<title>acq.cancel_reason</title>
<polygon fill="#ffffff" stroke="transparent" points="-4,4 -4,-1795 1750.5,-1795 1750.5,4 -4,4"/>
<!-- acq.cancel_reason -->
<g id="node1" class="node">
<title>acq.cancel_reason</title>
<polygon fill="#efefef" stroke="transparent" points="813,-742.5 813,-777.5 1105,-777.5 1105,-742.5 813,-742.5"/>
<polygon fill="none" stroke="#000000" points="813,-742.5 813,-777.5 1105,-777.5 1105,-742.5 813,-742.5"/>
<text text-anchor="start" x="819.6907" y="-755.3" font-family="Arial Bold" font-size="18.00" fill="#000000">acq.cancel_reason</text>
<text text-anchor="start" x="970.7413" y="-755.3" font-family="Arial" font-size="14.00" fill="#000000">    </text>
<text text-anchor="start" x="1004.9461" y="-755.3" font-family="Arial" font-size="14.00" fill="#666666">[BASE TABLE]</text>
<polygon fill="none" stroke="#000000" points="813,-712.5 813,-742.5 1105,-742.5 1105,-712.5 813,-712.5"/>
<text text-anchor="start" x="820" y="-723.9" font-family="Arial" font-size="14.00" fill="#000000">id </text>
<text text-anchor="start" x="834.7798" y="-723.9" font-family="Arial" font-size="14.00" fill="#666666">[integer]</text>
<polygon fill="none" stroke="#000000" points="813,-682.5 813,-712.5 1105,-712.5 1105,-682.5 813,-682.5"/>
<text text-anchor="start" x="820" y="-693.9" font-family="Arial" font-size="14.00" fill="#000000">org_unit </text>
<text text-anchor="start" x="874.4614" y="-693.9" font-family="Arial" font-size="14.00" fill="#666666">[integer]</text>
<polygon fill="none" stroke="#000000" points="813,-652.5 813,-682.5 1105,-682.5 1105,-652.5 813,-652.5"/>
<text text-anchor="start" x="820" y="-663.9" font-family="Arial" font-size="14.00" fill="#000000">label </text>
<text text-anchor="start" x="853.4516" y="-663.9" font-family="Arial" font-size="14.00" fill="#666666">[text]</text>
<polygon fill="none" stroke="#000000" points="813,-622.5 813,-652.5 1105,-652.5 1105,-622.5 813,-622.5"/>
<text text-anchor="start" x="820" y="-633.9" font-family="Arial" font-size="14.00" fill="#000000">description </text>
<text text-anchor="start" x="891.568" y="-633.9" font-family="Arial" font-size="14.00" fill="#666666">[text]</text>
<polygon fill="none" stroke="#000000" points="813,-592.5 813,-622.5 1105,-622.5 1105,-592.5 813,-592.5"/>
<text text-anchor="start" x="820" y="-603.9" font-family="Arial" font-size="14.00" fill="#000000">keep_debits </text>
<text text-anchor="start" x="899.366" y="-603.9" font-family="Arial" font-size="14.00" fill="#666666">[boolean]</text>
<polygon fill="none" stroke="#000000" stroke-width="3" points="811.5,-591.5 811.5,-779.5 1106.5,-779.5 1106.5,-591.5 811.5,-591.5"/>
</g>
<!-- actor.org_unit -->
<g id="node6" class="node">
<title>actor.org_unit</title>
<polygon fill="#efefef" stroke="transparent" points="833,-432.5 833,-467.5 1084,-467.5 1084,-432.5 833,-432.5"/>
<polygon fill="none" stroke="#000000" points="833,-432.5 833,-467.5 1084,-467.5 1084,-432.5 833,-432.5"/>
<text text-anchor="start" x="839.7017" y="-445.3" font-family="Arial Bold" font-size="18.00" fill="#000000">actor.org_unit</text>
<text text-anchor="start" x="949.7303" y="-445.3" font-family="Arial" font-size="14.00" fill="#000000">    </text>
<text text-anchor="start" x="983.9351" y="-445.3" font-family="Arial" font-size="14.00" fill="#666666">[BASE TABLE]</text>
<polygon fill="none" stroke="#000000" points="833,-402.5 833,-432.5 1084,-432.5 1084,-402.5 833,-402.5"/>
<text text-anchor="start" x="840" y="-413.9" font-family="Arial" font-size="14.00" fill="#000000">id    </text>
<text text-anchor="start" x="885.094" y="-413.9" font-family="Arial" font-size="14.00" fill="#666666">[integer]</text>
<polygon fill="none" stroke="#000000" points="833,-372.5 833,-402.5 1084,-402.5 1084,-372.5 833,-372.5"/>
<text text-anchor="start" x="840" y="-383.9" font-family="Arial" font-size="14.00" fill="#000000">parent_ou    </text>
<text text-anchor="start" x="937.2342" y="-383.9" font-family="Arial" font-size="14.00" fill="#666666">[integer]</text>
<polygon fill="none" stroke="#000000" points="833,-342.5 833,-372.5 1084,-372.5 1084,-342.5 833,-342.5"/>
<text text-anchor="start" x="840" y="-353.9" font-family="Arial" font-size="14.00" fill="#000000">ou_type    </text>
<text text-anchor="start" x="924.0084" y="-353.9" font-family="Arial" font-size="14.00" fill="#666666">[integer]</text>
<polygon fill="none" stroke="#000000" points="833,-312.5 833,-342.5 1084,-342.5 1084,-312.5 833,-312.5"/>
<text text-anchor="start" x="840" y="-323.9" font-family="Arial" font-size="14.00" fill="#000000">ill_address    </text>
<text text-anchor="start" x="941.0982" y="-323.9" font-family="Arial" font-size="14.00" fill="#666666">[integer]</text>
<polygon fill="none" stroke="#000000" points="833,-282.5 833,-312.5 1084,-312.5 1084,-282.5 833,-282.5"/>
<text text-anchor="start" x="840" y="-293.9" font-family="Arial" font-size="14.00" fill="#000000">holds_address    </text>
<text text-anchor="start" x="965.2328" y="-293.9" font-family="Arial" font-size="14.00" fill="#666666">[integer]</text>
<polygon fill="none" stroke="#000000" points="833,-252.5 833,-282.5 1084,-282.5 1084,-252.5 833,-252.5"/>
<text text-anchor="start" x="840" y="-263.9" font-family="Arial" font-size="14.00" fill="#000000">mailing_address    </text>
<text text-anchor="start" x="976.1066" y="-263.9" font-family="Arial" font-size="14.00" fill="#666666">[integer]</text>
<polygon fill="none" stroke="#000000" points="833,-222.5 833,-252.5 1084,-252.5 1084,-222.5 833,-222.5"/>
<text text-anchor="start" x="840" y="-233.9" font-family="Arial" font-size="14.00" fill="#000000">billing_address    </text>
<text text-anchor="start" x="967.5526" y="-233.9" font-family="Arial" font-size="14.00" fill="#666666">[integer]</text>
<polygon fill="none" stroke="#000000" points="833,-192.5 833,-222.5 1084,-222.5 1084,-192.5 833,-192.5"/>
<text text-anchor="start" x="840" y="-203.9" font-family="Arial" font-size="14.00" fill="#000000">shortname    </text>
<text text-anchor="start" x="940.3296" y="-203.9" font-family="Arial" font-size="14.00" fill="#666666">[text]</text>
<polygon fill="none" stroke="#000000" points="833,-162.5 833,-192.5 1084,-192.5 1084,-162.5 833,-162.5"/>
<text text-anchor="start" x="840" y="-173.9" font-family="Arial" font-size="14.00" fill="#000000">name    </text>
<text text-anchor="start" x="909.2132" y="-173.9" font-family="Arial" font-size="14.00" fill="#666666">[text]</text>
<polygon fill="none" stroke="#000000" points="833,-132.5 833,-162.5 1084,-162.5 1084,-132.5 833,-132.5"/>
<text text-anchor="start" x="840" y="-143.9" font-family="Arial" font-size="14.00" fill="#000000">email    </text>
<text text-anchor="start" x="907.6438" y="-143.9" font-family="Arial" font-size="14.00" fill="#666666">[text]</text>
<polygon fill="none" stroke="#000000" points="833,-102.5 833,-132.5 1084,-132.5 1084,-102.5 833,-102.5"/>
<text text-anchor="start" x="840" y="-113.9" font-family="Arial" font-size="14.00" fill="#000000">phone    </text>
<text text-anchor="start" x="913.1178" y="-113.9" font-family="Arial" font-size="14.00" fill="#666666">[text]</text>
<polygon fill="none" stroke="#000000" points="833,-72.5 833,-102.5 1084,-102.5 1084,-72.5 833,-72.5"/>
<text text-anchor="start" x="840" y="-83.9" font-family="Arial" font-size="14.00" fill="#000000">opac_visible    </text>
<text text-anchor="start" x="951.2202" y="-83.9" font-family="Arial" font-size="14.00" fill="#666666">[boolean]</text>
<polygon fill="none" stroke="#000000" points="833,-42.5 833,-72.5 1084,-72.5 1084,-42.5 833,-42.5"/>
<text text-anchor="start" x="840" y="-53.9" font-family="Arial" font-size="14.00" fill="#000000">fiscal_calendar    </text>
<text text-anchor="start" x="967.554" y="-53.9" font-family="Arial" font-size="14.00" fill="#666666">[integer]</text>
</g>
<!-- acq.cancel_reason&#45;&gt;actor.org_unit -->
<g id="edge5" class="edge">
<title>acq.cancel_reason:org_unit&#45;&gt;actor.org_unit:id</title>
<path fill="none" stroke="#000000" d="M802.8197,-696.6257C748.6701,-686.6915 771.3367,-594.5639 813,-547 893.0588,-455.6028 1003.9412,-602.3972 1084,-511 1111.3812,-479.7409 1125.5556,-417.5 1084,-417.5"/>
<polygon fill="#000000" stroke="#000000" points="803.0367,-696.6442 812.6149,-701.9835 808.0183,-697.0721 813,-697.5 813,-697.5 813,-697.5 808.0183,-697.0721 813.3851,-693.0165 803.0367,-696.6442 803.0367,-696.6442"/>
<text text-anchor="start" x="367.2655" y="-707.5" font-family="Arial" font-size="10.00" fill="#000000">FOREIGN KEY (org_unit) REFERENCES actor.org_unit(id) DEFERRABLE INITIALLY DEFERRED</text>
</g>
<!-- acq.lineitem -->
<g id="node2" class="node">
<title>acq.lineitem</title>
<polygon fill="#efefef" stroke="transparent" points="166,-1577.5 166,-1612.5 505,-1612.5 505,-1577.5 166,-1577.5"/>
<polygon fill="none" stroke="#000000" points="166,-1577.5 166,-1612.5 505,-1612.5 505,-1577.5 166,-1577.5"/>
<text text-anchor="start" x="223.7109" y="-1590.3" font-family="Arial Bold" font-size="18.00" fill="#000000">acq.lineitem</text>
<text text-anchor="start" x="319.7211" y="-1590.3" font-family="Arial" font-size="14.00" fill="#000000">    </text>
<text text-anchor="start" x="353.9259" y="-1590.3" font-family="Arial" font-size="14.00" fill="#666666">[BASE TABLE]</text>
<polygon fill="none" stroke="#000000" points="166,-1547.5 166,-1577.5 505,-1577.5 505,-1547.5 166,-1547.5"/>
<text text-anchor="start" x="173" y="-1558.9" font-family="Arial" font-size="14.00" fill="#000000">id    </text>
<text text-anchor="start" x="218.094" y="-1558.9" font-family="Arial" font-size="14.00" fill="#666666">[bigint]</text>
<polygon fill="none" stroke="#000000" points="166,-1517.5 166,-1547.5 505,-1547.5 505,-1517.5 166,-1517.5"/>
<text text-anchor="start" x="173" y="-1528.9" font-family="Arial" font-size="14.00" fill="#000000">creator    </text>
<text text-anchor="start" x="250.7644" y="-1528.9" font-family="Arial" font-size="14.00" fill="#666666">[integer]</text>
<polygon fill="none" stroke="#000000" points="166,-1487.5 166,-1517.5 505,-1517.5 505,-1487.5 166,-1487.5"/>
<text text-anchor="start" x="173" y="-1498.9" font-family="Arial" font-size="14.00" fill="#000000">editor    </text>
<text text-anchor="start" x="242.2104" y="-1498.9" font-family="Arial" font-size="14.00" fill="#666666">[integer]</text>
<polygon fill="none" stroke="#000000" points="166,-1457.5 166,-1487.5 505,-1487.5 505,-1457.5 166,-1457.5"/>
<text text-anchor="start" x="173" y="-1468.9" font-family="Arial" font-size="14.00" fill="#000000">selector    </text>
<text text-anchor="start" x="256.2104" y="-1468.9" font-family="Arial" font-size="14.00" fill="#666666">[integer]</text>
<polygon fill="none" stroke="#000000" points="166,-1427.5 166,-1457.5 505,-1457.5 505,-1427.5 166,-1427.5"/>
<text text-anchor="start" x="173" y="-1438.9" font-family="Arial" font-size="14.00" fill="#000000">provider    </text>
<text text-anchor="start" x="257.763" y="-1438.9" font-family="Arial" font-size="14.00" fill="#666666">[integer]</text>
<polygon fill="none" stroke="#000000" points="166,-1397.5 166,-1427.5 505,-1427.5 505,-1397.5 166,-1397.5"/>
<text text-anchor="start" x="173" y="-1408.9" font-family="Arial" font-size="14.00" fill="#000000">purchase_order    </text>
<text text-anchor="start" x="305.23" y="-1408.9" font-family="Arial" font-size="14.00" fill="#666666">[integer]</text>
<polygon fill="none" stroke="#000000" points="166,-1367.5 166,-1397.5 505,-1397.5 505,-1367.5 166,-1367.5"/>
<text text-anchor="start" x="173" y="-1378.9" font-family="Arial" font-size="14.00" fill="#000000">picklist    </text>
<text text-anchor="start" x="249.1978" y="-1378.9" font-family="Arial" font-size="14.00" fill="#666666">[integer]</text>
<polygon fill="none" stroke="#000000" points="166,-1337.5 166,-1367.5 505,-1367.5 505,-1337.5 166,-1337.5"/>
<text text-anchor="start" x="172.9292" y="-1348.9" font-family="Arial" font-size="14.00" fill="#000000">expected_recv_time    </text>
<text text-anchor="start" x="332.3864" y="-1348.9" font-family="Arial" font-size="14.00" fill="#666666">[timestamp with time zone]</text>
<polygon fill="none" stroke="#000000" points="166,-1307.5 166,-1337.5 505,-1337.5 505,-1307.5 166,-1307.5"/>
<text text-anchor="start" x="173" y="-1318.9" font-family="Arial" font-size="14.00" fill="#000000">create_time    </text>
<text text-anchor="start" x="280.3268" y="-1318.9" font-family="Arial" font-size="14.00" fill="#666666">[timestamp with time zone]</text>
<polygon fill="none" stroke="#000000" points="166,-1277.5 166,-1307.5 505,-1307.5 505,-1277.5 166,-1277.5"/>
<text text-anchor="start" x="173" y="-1288.9" font-family="Arial" font-size="14.00" fill="#000000">edit_time    </text>
<text text-anchor="start" x="263.9902" y="-1288.9" font-family="Arial" font-size="14.00" fill="#666666">[timestamp with time zone]</text>
<polygon fill="none" stroke="#000000" points="166,-1247.5 166,-1277.5 505,-1277.5 505,-1247.5 166,-1247.5"/>
<text text-anchor="start" x="173" y="-1258.9" font-family="Arial" font-size="14.00" fill="#000000">marc    </text>
<text text-anchor="start" x="238.3086" y="-1258.9" font-family="Arial" font-size="14.00" fill="#666666">[text]</text>
<polygon fill="none" stroke="#000000" points="166,-1217.5 166,-1247.5 505,-1247.5 505,-1217.5 166,-1217.5"/>
<text text-anchor="start" x="173" y="-1228.9" font-family="Arial" font-size="14.00" fill="#000000">eg_bib_id    </text>
<text text-anchor="start" x="267.8962" y="-1228.9" font-family="Arial" font-size="14.00" fill="#666666">[bigint]</text>
<polygon fill="none" stroke="#000000" points="166,-1187.5 166,-1217.5 505,-1217.5 505,-1187.5 166,-1187.5"/>
<text text-anchor="start" x="173" y="-1198.9" font-family="Arial" font-size="14.00" fill="#000000">source_label    </text>
<text text-anchor="start" x="286.5568" y="-1198.9" font-family="Arial" font-size="14.00" fill="#666666">[text]</text>
<polygon fill="none" stroke="#000000" points="166,-1157.5 166,-1187.5 505,-1187.5 505,-1157.5 166,-1157.5"/>
<text text-anchor="start" x="173" y="-1168.9" font-family="Arial" font-size="14.00" fill="#000000">state    </text>
<text text-anchor="start" x="237.5512" y="-1168.9" font-family="Arial" font-size="14.00" fill="#666666">[text]</text>
<polygon fill="none" stroke="#000000" points="166,-1127.5 166,-1157.5 505,-1157.5 505,-1127.5 166,-1127.5"/>
<text text-anchor="start" x="173" y="-1138.9" font-family="Arial" font-size="14.00" fill="#000000">cancel_reason    </text>
<text text-anchor="start" x="298.2328" y="-1138.9" font-family="Arial" font-size="14.00" fill="#666666">[integer]</text>
<polygon fill="none" stroke="#000000" points="166,-1097.5 166,-1127.5 505,-1127.5 505,-1097.5 166,-1097.5"/>
<text text-anchor="start" x="173" y="-1108.9" font-family="Arial" font-size="14.00" fill="#000000">estimated_unit_price    </text>
<text text-anchor="start" x="336.3436" y="-1108.9" font-family="Arial" font-size="14.00" fill="#666666">[numeric]</text>
<polygon fill="none" stroke="#000000" points="166,-1067.5 166,-1097.5 505,-1097.5 505,-1067.5 166,-1067.5"/>
<text text-anchor="start" x="173" y="-1078.9" font-family="Arial" font-size="14.00" fill="#000000">claim_policy    </text>
<text text-anchor="start" x="283.4222" y="-1078.9" font-family="Arial" font-size="14.00" fill="#666666">[integer]</text>
<polygon fill="none" stroke="#000000" points="166,-1037.5 166,-1067.5 505,-1067.5 505,-1037.5 166,-1037.5"/>
<text text-anchor="start" x="173" y="-1048.9" font-family="Arial" font-size="14.00" fill="#000000">queued_record    </text>
<text text-anchor="start" x="301.352" y="-1048.9" font-family="Arial" font-size="14.00" fill="#666666">[bigint]</text>
</g>
<!-- acq.lineitem&#45;&gt;acq.cancel_reason -->
<g id="edge1" class="edge">
<title>acq.lineitem:cancel_reason&#45;&gt;acq.cancel_reason:id</title>
<path fill="none" stroke="#000000" d="M514.7746,-1140.3495C563.3314,-1116.8858 520.2211,-908.3882 556,-860 632.4036,-756.6699 684.4908,-727.5 813,-727.5"/>
<polygon fill="#000000" stroke="#000000" points="514.7664,-1140.3512 504.033,-1138.1051 509.8832,-1141.4256 505,-1142.5 505,-1142.5 505,-1142.5 509.8832,-1141.4256 505.967,-1146.8949 514.7664,-1140.3512 514.7664,-1140.3512"/>
<text text-anchor="start" x="7.4215" y="-1152.5" font-family="Arial" font-size="10.00" fill="#000000">FOREIGN KEY (cancel_reason) REFERENCES acq.cancel_reason(id) DEFERRABLE INITIALLY DEFERRED</text>
</g>
<!-- acq.purchase_order -->
<g id="node3" class="node">
<title>acq.purchase_order</title>
<polygon fill="#efefef" stroke="transparent" points="609,-1502.5 609,-1537.5 910,-1537.5 910,-1502.5 609,-1502.5"/>
<polygon fill="none" stroke="#000000" points="609,-1502.5 609,-1537.5 910,-1537.5 910,-1502.5 609,-1502.5"/>
<text text-anchor="start" x="615.6925" y="-1515.3" font-family="Arial Bold" font-size="18.00" fill="#000000">acq.purchase_order</text>
<text text-anchor="start" x="775.7395" y="-1515.3" font-family="Arial" font-size="14.00" fill="#000000">    </text>
<text text-anchor="start" x="809.9443" y="-1515.3" font-family="Arial" font-size="14.00" fill="#666666">[BASE TABLE]</text>
<polygon fill="none" stroke="#000000" points="609,-1472.5 609,-1502.5 910,-1502.5 910,-1472.5 609,-1472.5"/>
<text text-anchor="start" x="616" y="-1483.9" font-family="Arial" font-size="14.00" fill="#000000">id    </text>
<text text-anchor="start" x="661.094" y="-1483.9" font-family="Arial" font-size="14.00" fill="#666666">[integer]</text>
<polygon fill="none" stroke="#000000" points="609,-1442.5 609,-1472.5 910,-1472.5 910,-1442.5 609,-1442.5"/>
<text text-anchor="start" x="616" y="-1453.9" font-family="Arial" font-size="14.00" fill="#000000">owner    </text>
<text text-anchor="start" x="688.3198" y="-1453.9" font-family="Arial" font-size="14.00" fill="#666666">[integer]</text>
<polygon fill="none" stroke="#000000" points="609,-1412.5 609,-1442.5 910,-1442.5 910,-1412.5 609,-1412.5"/>
<text text-anchor="start" x="616" y="-1423.9" font-family="Arial" font-size="14.00" fill="#000000">creator    </text>
<text text-anchor="start" x="693.7644" y="-1423.9" font-family="Arial" font-size="14.00" fill="#666666">[integer]</text>
<polygon fill="none" stroke="#000000" points="609,-1382.5 609,-1412.5 910,-1412.5 910,-1382.5 609,-1382.5"/>
<text text-anchor="start" x="616" y="-1393.9" font-family="Arial" font-size="14.00" fill="#000000">editor    </text>
<text text-anchor="start" x="685.2104" y="-1393.9" font-family="Arial" font-size="14.00" fill="#666666">[integer]</text>
<polygon fill="none" stroke="#000000" points="609,-1352.5 609,-1382.5 910,-1382.5 910,-1352.5 609,-1352.5"/>
<text text-anchor="start" x="616" y="-1363.9" font-family="Arial" font-size="14.00" fill="#000000">ordering_agency    </text>
<text text-anchor="start" x="754.4586" y="-1363.9" font-family="Arial" font-size="14.00" fill="#666666">[integer]</text>
<polygon fill="none" stroke="#000000" points="609,-1322.5 609,-1352.5 910,-1352.5 910,-1322.5 609,-1322.5"/>
<text text-anchor="start" x="616" y="-1333.9" font-family="Arial" font-size="14.00" fill="#000000">create_time    </text>
<text text-anchor="start" x="723.3268" y="-1333.9" font-family="Arial" font-size="14.00" fill="#666666">[timestamp with time zone]</text>
<polygon fill="none" stroke="#000000" points="609,-1292.5 609,-1322.5 910,-1322.5 910,-1292.5 609,-1292.5"/>
<text text-anchor="start" x="616" y="-1303.9" font-family="Arial" font-size="14.00" fill="#000000">edit_time    </text>
<text text-anchor="start" x="706.9902" y="-1303.9" font-family="Arial" font-size="14.00" fill="#666666">[timestamp with time zone]</text>
<polygon fill="none" stroke="#000000" points="609,-1262.5 609,-1292.5 910,-1292.5 910,-1262.5 609,-1262.5"/>
<text text-anchor="start" x="616" y="-1273.9" font-family="Arial" font-size="14.00" fill="#000000">provider    </text>
<text text-anchor="start" x="700.763" y="-1273.9" font-family="Arial" font-size="14.00" fill="#666666">[integer]</text>
<polygon fill="none" stroke="#000000" points="609,-1232.5 609,-1262.5 910,-1262.5 910,-1232.5 609,-1232.5"/>
<text text-anchor="start" x="616" y="-1243.9" font-family="Arial" font-size="14.00" fill="#000000">state    </text>
<text text-anchor="start" x="680.5512" y="-1243.9" font-family="Arial" font-size="14.00" fill="#666666">[text]</text>
<polygon fill="none" stroke="#000000" points="609,-1202.5 609,-1232.5 910,-1232.5 910,-1202.5 609,-1202.5"/>
<text text-anchor="start" x="616" y="-1213.9" font-family="Arial" font-size="14.00" fill="#000000">order_date    </text>
<text text-anchor="start" x="717.8948" y="-1213.9" font-family="Arial" font-size="14.00" fill="#666666">[timestamp with time zone]</text>
<polygon fill="none" stroke="#000000" points="609,-1172.5 609,-1202.5 910,-1202.5 910,-1172.5 609,-1172.5"/>
<text text-anchor="start" x="616" y="-1183.9" font-family="Arial" font-size="14.00" fill="#000000">name    </text>
<text text-anchor="start" x="685.2132" y="-1183.9" font-family="Arial" font-size="14.00" fill="#666666">[text]</text>
<polygon fill="none" stroke="#000000" points="609,-1142.5 609,-1172.5 910,-1172.5 910,-1142.5 609,-1142.5"/>
<text text-anchor="start" x="616" y="-1153.9" font-family="Arial" font-size="14.00" fill="#000000">cancel_reason    </text>
<text text-anchor="start" x="741.2328" y="-1153.9" font-family="Arial" font-size="14.00" fill="#666666">[integer]</text>
<polygon fill="none" stroke="#000000" points="609,-1112.5 609,-1142.5 910,-1142.5 910,-1112.5 609,-1112.5"/>
<text text-anchor="start" x="616" y="-1123.9" font-family="Arial" font-size="14.00" fill="#000000">prepayment_required    </text>
<text text-anchor="start" x="783.2356" y="-1123.9" font-family="Arial" font-size="14.00" fill="#666666">[boolean]</text>
</g>
<!-- acq.purchase_order&#45;&gt;acq.cancel_reason -->
<g id="edge2" class="edge">
<title>acq.purchase_order:cancel_reason&#45;&gt;acq.cancel_reason:id</title>
<path fill="none" stroke="#000000" d="M920.2069,-1157.0614C1088.009,-1141.691 620.7218,-727.5 813,-727.5"/>
<polygon fill="#000000" stroke="#000000" points="919.9908,-1157.0706 909.8068,-1153.0041 914.9954,-1157.2853 910,-1157.5 910,-1157.5 910,-1157.5 914.9954,-1157.2853 910.1932,-1161.9959 919.9908,-1157.0706 919.9908,-1157.0706"/>
<text text-anchor="start" x="917.4215" y="-1167.5" font-family="Arial" font-size="10.00" fill="#000000">FOREIGN KEY (cancel_reason) REFERENCES acq.cancel_reason(id) DEFERRABLE INITIALLY DEFERRED</text>
</g>
<!-- acq.lineitem_detail -->
<g id="node4" class="node">
<title>acq.lineitem_detail</title>
<polygon fill="#efefef" stroke="transparent" points="1014,-1532.5 1014,-1567.5 1304,-1567.5 1304,-1532.5 1014,-1532.5"/>
<polygon fill="none" stroke="#000000" points="1014,-1532.5 1014,-1567.5 1304,-1567.5 1304,-1532.5 1014,-1532.5"/>
<text text-anchor="start" x="1020.7032" y="-1545.3" font-family="Arial Bold" font-size="18.00" fill="#000000">acq.lineitem_detail</text>
<text text-anchor="start" x="1169.7288" y="-1545.3" font-family="Arial" font-size="14.00" fill="#000000">    </text>
<text text-anchor="start" x="1203.9336" y="-1545.3" font-family="Arial" font-size="14.00" fill="#666666">[BASE TABLE]</text>
<polygon fill="none" stroke="#000000" points="1014,-1502.5 1014,-1532.5 1304,-1532.5 1304,-1502.5 1014,-1502.5"/>
<text text-anchor="start" x="1021" y="-1513.9" font-family="Arial" font-size="14.00" fill="#000000">id    </text>
<text text-anchor="start" x="1066.094" y="-1513.9" font-family="Arial" font-size="14.00" fill="#666666">[bigint]</text>
<polygon fill="none" stroke="#000000" points="1014,-1472.5 1014,-1502.5 1304,-1502.5 1304,-1472.5 1014,-1472.5"/>
<text text-anchor="start" x="1021" y="-1483.9" font-family="Arial" font-size="14.00" fill="#000000">lineitem    </text>
<text text-anchor="start" x="1103.4236" y="-1483.9" font-family="Arial" font-size="14.00" fill="#666666">[integer]</text>
<polygon fill="none" stroke="#000000" points="1014,-1442.5 1014,-1472.5 1304,-1472.5 1304,-1442.5 1014,-1442.5"/>
<text text-anchor="start" x="1021" y="-1453.9" font-family="Arial" font-size="14.00" fill="#000000">fund    </text>
<text text-anchor="start" x="1082.4432" y="-1453.9" font-family="Arial" font-size="14.00" fill="#666666">[integer]</text>
<polygon fill="none" stroke="#000000" points="1014,-1412.5 1014,-1442.5 1304,-1442.5 1304,-1412.5 1014,-1412.5"/>
<text text-anchor="start" x="1021" y="-1423.9" font-family="Arial" font-size="14.00" fill="#000000">fund_debit    </text>
<text text-anchor="start" x="1120.5708" y="-1423.9" font-family="Arial" font-size="14.00" fill="#666666">[integer]</text>
<polygon fill="none" stroke="#000000" points="1014,-1382.5 1014,-1412.5 1304,-1412.5 1304,-1382.5 1014,-1382.5"/>
<text text-anchor="start" x="1021" y="-1393.9" font-family="Arial" font-size="14.00" fill="#000000">eg_copy_id    </text>
<text text-anchor="start" x="1126.7896" y="-1393.9" font-family="Arial" font-size="14.00" fill="#666666">[bigint]</text>
<polygon fill="none" stroke="#000000" points="1014,-1352.5 1014,-1382.5 1304,-1382.5 1304,-1352.5 1014,-1352.5"/>
<text text-anchor="start" x="1021" y="-1363.9" font-family="Arial" font-size="14.00" fill="#000000">barcode    </text>
<text text-anchor="start" x="1105.7784" y="-1363.9" font-family="Arial" font-size="14.00" fill="#666666">[text]</text>
<polygon fill="none" stroke="#000000" points="1014,-1322.5 1014,-1352.5 1304,-1352.5 1304,-1322.5 1014,-1322.5"/>
<text text-anchor="start" x="1021" y="-1333.9" font-family="Arial" font-size="14.00" fill="#000000">cn_label    </text>
<text text-anchor="start" x="1107.331" y="-1333.9" font-family="Arial" font-size="14.00" fill="#666666">[text]</text>
<polygon fill="none" stroke="#000000" points="1014,-1292.5 1014,-1322.5 1304,-1322.5 1304,-1292.5 1014,-1292.5"/>
<text text-anchor="start" x="1021" y="-1303.9" font-family="Arial" font-size="14.00" fill="#000000">note    </text>
<text text-anchor="start" x="1082.4432" y="-1303.9" font-family="Arial" font-size="14.00" fill="#666666">[text]</text>
<polygon fill="none" stroke="#000000" points="1014,-1262.5 1014,-1292.5 1304,-1292.5 1304,-1262.5 1014,-1262.5"/>
<text text-anchor="start" x="1021" y="-1273.9" font-family="Arial" font-size="14.00" fill="#000000">collection_code    </text>
<text text-anchor="start" x="1151.676" y="-1273.9" font-family="Arial" font-size="14.00" fill="#666666">[text]</text>
<polygon fill="none" stroke="#000000" points="1014,-1232.5 1014,-1262.5 1304,-1262.5 1304,-1232.5 1014,-1232.5"/>
<text text-anchor="start" x="1021" y="-1243.9" font-family="Arial" font-size="14.00" fill="#000000">circ_modifier    </text>
<text text-anchor="start" x="1134.5274" y="-1243.9" font-family="Arial" font-size="14.00" fill="#666666">[text]</text>
<polygon fill="none" stroke="#000000" points="1014,-1202.5 1014,-1232.5 1304,-1232.5 1304,-1202.5 1014,-1202.5"/>
<text text-anchor="start" x="1021" y="-1213.9" font-family="Arial" font-size="14.00" fill="#000000">owning_lib    </text>
<text text-anchor="start" x="1121.3268" y="-1213.9" font-family="Arial" font-size="14.00" fill="#666666">[integer]</text>
<polygon fill="none" stroke="#000000" points="1014,-1172.5 1014,-1202.5 1304,-1202.5 1304,-1172.5 1014,-1172.5"/>
<text text-anchor="start" x="1021" y="-1183.9" font-family="Arial" font-size="14.00" fill="#000000">location    </text>
<text text-anchor="start" x="1103.439" y="-1183.9" font-family="Arial" font-size="14.00" fill="#666666">[integer]</text>
<polygon fill="none" stroke="#000000" points="1014,-1142.5 1014,-1172.5 1304,-1172.5 1304,-1142.5 1014,-1142.5"/>
<text text-anchor="start" x="1021" y="-1153.9" font-family="Arial" font-size="14.00" fill="#000000">recv_time    </text>
<text text-anchor="start" x="1115.871" y="-1153.9" font-family="Arial" font-size="14.00" fill="#666666">[timestamp with time zone]</text>
<polygon fill="none" stroke="#000000" points="1014,-1112.5 1014,-1142.5 1304,-1142.5 1304,-1112.5 1014,-1112.5"/>
<text text-anchor="start" x="1021" y="-1123.9" font-family="Arial" font-size="14.00" fill="#000000">receiver    </text>
<text text-anchor="start" x="1104.9804" y="-1123.9" font-family="Arial" font-size="14.00" fill="#666666">[integer]</text>
<polygon fill="none" stroke="#000000" points="1014,-1082.5 1014,-1112.5 1304,-1112.5 1304,-1082.5 1014,-1082.5"/>
<text text-anchor="start" x="1021" y="-1093.9" font-family="Arial" font-size="14.00" fill="#000000">cancel_reason    </text>
<text text-anchor="start" x="1146.2328" y="-1093.9" font-family="Arial" font-size="14.00" fill="#666666">[integer]</text>
</g>
<!-- acq.lineitem_detail&#45;&gt;acq.cancel_reason -->
<g id="edge3" class="edge">
<title>acq.lineitem_detail:cancel_reason&#45;&gt;acq.cancel_reason:id</title>
<path fill="none" stroke="#000000" d="M1003.9028,-1096.995C862.8417,-1081.7723 1270.7067,-727.5 1105,-727.5"/>
<polygon fill="#000000" stroke="#000000" points="1004.0125,-1097.0004 1013.7752,-1101.9944 1009.0062,-1097.2502 1014,-1097.5 1014,-1097.5 1014,-1097.5 1009.0062,-1097.2502 1014.2248,-1093.0056 1004.0125,-1097.0004 1004.0125,-1097.0004"/>
<text text-anchor="start" x="1021.4215" y="-1107.5" font-family="Arial" font-size="10.00" fill="#000000">FOREIGN KEY (cancel_reason) REFERENCES acq.cancel_reason(id) DEFERRABLE INITIALLY DEFERRED</text>
</g>
<!-- acq.user_request -->
<g id="node5" class="node">
<title>acq.user_request</title>
<polygon fill="#efefef" stroke="transparent" points="1409,-1712.5 1409,-1747.5 1704,-1747.5 1704,-1712.5 1409,-1712.5"/>
<polygon fill="none" stroke="#000000" points="1409,-1712.5 1409,-1747.5 1704,-1747.5 1704,-1712.5 1409,-1712.5"/>
<text text-anchor="start" x="1423.1937" y="-1725.3" font-family="Arial Bold" font-size="18.00" fill="#000000">acq.user_request</text>
<text text-anchor="start" x="1562.2383" y="-1725.3" font-family="Arial" font-size="14.00" fill="#000000">    </text>
<text text-anchor="start" x="1596.4431" y="-1725.3" font-family="Arial" font-size="14.00" fill="#666666">[BASE TABLE]</text>
<polygon fill="none" stroke="#000000" points="1409,-1682.5 1409,-1712.5 1704,-1712.5 1704,-1682.5 1409,-1682.5"/>
<text text-anchor="start" x="1416" y="-1693.9" font-family="Arial" font-size="14.00" fill="#000000">id    </text>
<text text-anchor="start" x="1461.094" y="-1693.9" font-family="Arial" font-size="14.00" fill="#666666">[integer]</text>
<polygon fill="none" stroke="#000000" points="1409,-1652.5 1409,-1682.5 1704,-1682.5 1704,-1652.5 1409,-1652.5"/>
<text text-anchor="start" x="1416" y="-1663.9" font-family="Arial" font-size="14.00" fill="#000000">usr    </text>
<text text-anchor="start" x="1469.648" y="-1663.9" font-family="Arial" font-size="14.00" fill="#666666">[integer]</text>
<polygon fill="none" stroke="#000000" points="1409,-1622.5 1409,-1652.5 1704,-1652.5 1704,-1622.5 1409,-1622.5"/>
<text text-anchor="start" x="1416" y="-1633.9" font-family="Arial" font-size="14.00" fill="#000000">hold    </text>
<text text-anchor="start" x="1476.6592" y="-1633.9" font-family="Arial" font-size="14.00" fill="#666666">[boolean]</text>
<polygon fill="none" stroke="#000000" points="1409,-1592.5 1409,-1622.5 1704,-1622.5 1704,-1592.5 1409,-1592.5"/>
<text text-anchor="start" x="1416" y="-1603.9" font-family="Arial" font-size="14.00" fill="#000000">pickup_lib    </text>
<text text-anchor="start" x="1512.4376" y="-1603.9" font-family="Arial" font-size="14.00" fill="#666666">[integer]</text>
<polygon fill="none" stroke="#000000" points="1409,-1562.5 1409,-1592.5 1704,-1592.5 1704,-1562.5 1409,-1562.5"/>
<text text-anchor="start" x="1416" y="-1573.9" font-family="Arial" font-size="14.00" fill="#000000">holdable_formats    </text>
<text text-anchor="start" x="1557.5638" y="-1573.9" font-family="Arial" font-size="14.00" fill="#666666">[text]</text>
<polygon fill="none" stroke="#000000" points="1409,-1532.5 1409,-1562.5 1704,-1562.5 1704,-1532.5 1409,-1532.5"/>
<text text-anchor="start" x="1416" y="-1543.9" font-family="Arial" font-size="14.00" fill="#000000">phone_notify    </text>
<text text-anchor="start" x="1530.3534" y="-1543.9" font-family="Arial" font-size="14.00" fill="#666666">[text]</text>
<polygon fill="none" stroke="#000000" points="1409,-1502.5 1409,-1532.5 1704,-1532.5 1704,-1502.5 1409,-1502.5"/>
<text text-anchor="start" x="1416" y="-1513.9" font-family="Arial" font-size="14.00" fill="#000000">email_notify    </text>
<text text-anchor="start" x="1524.8794" y="-1513.9" font-family="Arial" font-size="14.00" fill="#666666">[boolean]</text>
<polygon fill="none" stroke="#000000" points="1409,-1472.5 1409,-1502.5 1704,-1502.5 1704,-1472.5 1409,-1472.5"/>
<text text-anchor="start" x="1416" y="-1483.9" font-family="Arial" font-size="14.00" fill="#000000">lineitem    </text>
<text text-anchor="start" x="1498.4236" y="-1483.9" font-family="Arial" font-size="14.00" fill="#666666">[integer]</text>
<polygon fill="none" stroke="#000000" points="1409,-1442.5 1409,-1472.5 1704,-1472.5 1704,-1442.5 1409,-1442.5"/>
<text text-anchor="start" x="1416" y="-1453.9" font-family="Arial" font-size="14.00" fill="#000000">eg_bib    </text>
<text text-anchor="start" x="1492.2244" y="-1453.9" font-family="Arial" font-size="14.00" fill="#666666">[bigint]</text>
<polygon fill="none" stroke="#000000" points="1409,-1412.5 1409,-1442.5 1704,-1442.5 1704,-1412.5 1409,-1412.5"/>
<text text-anchor="start" x="1415.7041" y="-1423.9" font-family="Arial" font-size="14.00" fill="#000000">request_date    </text>
<text text-anchor="start" x="1531.6115" y="-1423.9" font-family="Arial" font-size="14.00" fill="#666666">[timestamp with time zone]</text>
<polygon fill="none" stroke="#000000" points="1409,-1382.5 1409,-1412.5 1704,-1412.5 1704,-1382.5 1409,-1382.5"/>
<text text-anchor="start" x="1416" y="-1393.9" font-family="Arial" font-size="14.00" fill="#000000">need_before    </text>
<text text-anchor="start" x="1528.7994" y="-1393.9" font-family="Arial" font-size="14.00" fill="#666666">[timestamp with time zone]</text>
<polygon fill="none" stroke="#000000" points="1409,-1352.5 1409,-1382.5 1704,-1382.5 1704,-1352.5 1409,-1352.5"/>
<text text-anchor="start" x="1416" y="-1363.9" font-family="Arial" font-size="14.00" fill="#000000">max_fee    </text>
<text text-anchor="start" x="1503.8864" y="-1363.9" font-family="Arial" font-size="14.00" fill="#666666">[text]</text>
<polygon fill="none" stroke="#000000" points="1409,-1322.5 1409,-1352.5 1704,-1352.5 1704,-1322.5 1409,-1322.5"/>
<text text-anchor="start" x="1416" y="-1333.9" font-family="Arial" font-size="14.00" fill="#000000">request_type    </text>
<text text-anchor="start" x="1531.1248" y="-1333.9" font-family="Arial" font-size="14.00" fill="#666666">[integer]</text>
<polygon fill="none" stroke="#000000" points="1409,-1292.5 1409,-1322.5 1704,-1322.5 1704,-1292.5 1409,-1292.5"/>
<text text-anchor="start" x="1416" y="-1303.9" font-family="Arial" font-size="14.00" fill="#000000">isxn    </text>
<text text-anchor="start" x="1475.094" y="-1303.9" font-family="Arial" font-size="14.00" fill="#666666">[text]</text>
<polygon fill="none" stroke="#000000" points="1409,-1262.5 1409,-1292.5 1704,-1292.5 1704,-1262.5 1409,-1262.5"/>
<text text-anchor="start" x="1416" y="-1273.9" font-family="Arial" font-size="14.00" fill="#000000">title    </text>
<text text-anchor="start" x="1471.9818" y="-1273.9" font-family="Arial" font-size="14.00" fill="#666666">[text]</text>
<polygon fill="none" stroke="#000000" points="1409,-1232.5 1409,-1262.5 1704,-1262.5 1704,-1232.5 1409,-1232.5"/>
<text text-anchor="start" x="1416" y="-1243.9" font-family="Arial" font-size="14.00" fill="#000000">volume    </text>
<text text-anchor="start" x="1495.3198" y="-1243.9" font-family="Arial" font-size="14.00" fill="#666666">[text]</text>
<polygon fill="none" stroke="#000000" points="1409,-1202.5 1409,-1232.5 1704,-1232.5 1704,-1202.5 1409,-1202.5"/>
<text text-anchor="start" x="1416" y="-1213.9" font-family="Arial" font-size="14.00" fill="#000000">author    </text>
<text text-anchor="start" x="1489.8864" y="-1213.9" font-family="Arial" font-size="14.00" fill="#666666">[text]</text>
<polygon fill="none" stroke="#000000" points="1409,-1172.5 1409,-1202.5 1704,-1202.5 1704,-1172.5 1409,-1172.5"/>
<text text-anchor="start" x="1416" y="-1183.9" font-family="Arial" font-size="14.00" fill="#000000">article_title    </text>
<text text-anchor="start" x="1517.094" y="-1183.9" font-family="Arial" font-size="14.00" fill="#666666">[text]</text>
<polygon fill="none" stroke="#000000" points="1409,-1142.5 1409,-1172.5 1704,-1172.5 1704,-1142.5 1409,-1142.5"/>
<text text-anchor="start" x="1416" y="-1153.9" font-family="Arial" font-size="14.00" fill="#000000">article_pages    </text>
<text text-anchor="start" x="1533.4474" y="-1153.9" font-family="Arial" font-size="14.00" fill="#666666">[text]</text>
<polygon fill="none" stroke="#000000" points="1409,-1112.5 1409,-1142.5 1704,-1142.5 1704,-1112.5 1409,-1112.5"/>
<text text-anchor="start" x="1416" y="-1123.9" font-family="Arial" font-size="14.00" fill="#000000">publisher    </text>
<text text-anchor="start" x="1506.9916" y="-1123.9" font-family="Arial" font-size="14.00" fill="#666666">[text]</text>
<polygon fill="none" stroke="#000000" points="1409,-1082.5 1409,-1112.5 1704,-1112.5 1704,-1082.5 1409,-1082.5"/>
<text text-anchor="start" x="1416" y="-1093.9" font-family="Arial" font-size="14.00" fill="#000000">location    </text>
<text text-anchor="start" x="1498.439" y="-1093.9" font-family="Arial" font-size="14.00" fill="#666666">[text]</text>
<polygon fill="none" stroke="#000000" points="1409,-1052.5 1409,-1082.5 1704,-1082.5 1704,-1052.5 1409,-1052.5"/>
<text text-anchor="start" x="1416" y="-1063.9" font-family="Arial" font-size="14.00" fill="#000000">pubdate    </text>
<text text-anchor="start" x="1500.791" y="-1063.9" font-family="Arial" font-size="14.00" fill="#666666">[text]</text>
<polygon fill="none" stroke="#000000" points="1409,-1022.5 1409,-1052.5 1704,-1052.5 1704,-1022.5 1409,-1022.5"/>
<text text-anchor="start" x="1416" y="-1033.9" font-family="Arial" font-size="14.00" fill="#000000">mentioned    </text>
<text text-anchor="start" x="1515.5582" y="-1033.9" font-family="Arial" font-size="14.00" fill="#666666">[text]</text>
<polygon fill="none" stroke="#000000" points="1409,-992.5 1409,-1022.5 1704,-1022.5 1704,-992.5 1409,-992.5"/>
<text text-anchor="start" x="1416" y="-1003.9" font-family="Arial" font-size="14.00" fill="#000000">other_info    </text>
<text text-anchor="start" x="1512.4488" y="-1003.9" font-family="Arial" font-size="14.00" fill="#666666">[text]</text>
<polygon fill="none" stroke="#000000" points="1409,-962.5 1409,-992.5 1704,-992.5 1704,-962.5 1409,-962.5"/>
<text text-anchor="start" x="1416" y="-973.9" font-family="Arial" font-size="14.00" fill="#000000">cancel_reason    </text>
<text text-anchor="start" x="1541.2328" y="-973.9" font-family="Arial" font-size="14.00" fill="#666666">[integer]</text>
<polygon fill="none" stroke="#000000" points="1409,-932.5 1409,-962.5 1704,-962.5 1704,-932.5 1409,-932.5"/>
<text text-anchor="start" x="1416" y="-943.9" font-family="Arial" font-size="14.00" fill="#000000">cancel_time    </text>
<text text-anchor="start" x="1524.8822" y="-943.9" font-family="Arial" font-size="14.00" fill="#666666">[timestamp with time zone]</text>
<polygon fill="none" stroke="#000000" points="1409,-902.5 1409,-932.5 1704,-932.5 1704,-902.5 1409,-902.5"/>
<text text-anchor="start" x="1416" y="-913.9" font-family="Arial" font-size="14.00" fill="#000000">upc    </text>
<text text-anchor="start" x="1472.77" y="-913.9" font-family="Arial" font-size="14.00" fill="#666666">[text]</text>
</g>
<!-- acq.user_request&#45;&gt;acq.cancel_reason -->
<g id="edge4" class="edge">
<title>acq.user_request:cancel_reason&#45;&gt;acq.cancel_reason:id</title>
<path fill="none" stroke="#000000" d="M1398.8669,-976.53C1357.1266,-967.5888 1392.6295,-898.9728 1356,-860 1269.6083,-768.0815 1231.1449,-727.5 1105,-727.5"/>
<polygon fill="#000000" stroke="#000000" points="1399.0455,-976.547 1408.5711,-981.9795 1404.0228,-977.0235 1409,-977.5 1409,-977.5 1409,-977.5 1404.0228,-977.0235 1409.4289,-973.0205 1399.0455,-976.547 1399.0455,-976.547"/>
<text text-anchor="start" x="911.4215" y="-987.5" font-family="Arial" font-size="10.00" fill="#000000">FOREIGN KEY (cancel_reason) REFERENCES acq.cancel_reason(id) DEFERRABLE INITIALLY DEFERRED</text>
</g>
</g>
</svg>
