<?xml version="1.0" encoding="UTF-8" standalone="no"?>
<!DOCTYPE svg PUBLIC "-//W3C//DTD SVG 1.1//EN"
 "http://www.w3.org/Graphics/SVG/1.1/DTD/svg11.dtd">
<!-- Generated by graphviz version 2.40.1 (20161225.0304)
 -->
<!-- Title: acq.edi_attr_set Pages: 1 -->
<svg width="1012pt" height="802pt"
 viewBox="0.00 0.00 1012.00 802.00" xmlns="http://www.w3.org/2000/svg" xmlns:xlink="http://www.w3.org/1999/xlink">
<g id="graph0" class="graph" transform="scale(1 1) rotate(0) translate(4 798)">
<title>acq.edi_attr_set</title>
<polygon fill="#ffffff" stroke="transparent" points="-4,4 -4,-798 1008,-798 1008,4 -4,4"/>
<!-- acq.edi_attr_set -->
<g id="node1" class="node">
<title>acq.edi_attr_set</title>
<polygon fill="#efefef" stroke="transparent" points="253,-105.5 253,-140.5 522,-140.5 522,-105.5 253,-105.5"/>
<polygon fill="none" stroke="#000000" points="253,-105.5 253,-140.5 522,-140.5 522,-105.5 253,-105.5"/>
<text text-anchor="start" x="259.6936" y="-118.3" font-family="Arial Bold" font-size="18.00" fill="#000000">acq.edi_attr_set</text>
<text text-anchor="start" x="387.7384" y="-118.3" font-family="Arial" font-size="14.00" fill="#000000">    </text>
<text text-anchor="start" x="421.9432" y="-118.3" font-family="Arial" font-size="14.00" fill="#666666">[BASE TABLE]</text>
<polygon fill="none" stroke="#000000" points="253,-75.5 253,-105.5 522,-105.5 522,-75.5 253,-75.5"/>
<text text-anchor="start" x="260" y="-86.9" font-family="Arial" font-size="14.00" fill="#000000">id </text>
<text text-anchor="start" x="274.7798" y="-86.9" font-family="Arial" font-size="14.00" fill="#666666">[integer]</text>
<polygon fill="none" stroke="#000000" points="253,-45.5 253,-75.5 522,-75.5 522,-45.5 253,-45.5"/>
<text text-anchor="start" x="260" y="-56.9" font-family="Arial" font-size="14.00" fill="#000000">label </text>
<text text-anchor="start" x="293.4516" y="-56.9" font-family="Arial" font-size="14.00" fill="#666666">[text]</text>
<polygon fill="none" stroke="#000000" stroke-width="3" points="251,-44.5 251,-142.5 523,-142.5 523,-44.5 251,-44.5"/>
</g>
<!-- acq.edi_account -->
<g id="node2" class="node">
<title>acq.edi_account</title>
<polygon fill="#efefef" stroke="transparent" points="43,-715.5 43,-750.5 329,-750.5 329,-715.5 43,-715.5"/>
<polygon fill="none" stroke="#000000" points="43,-715.5 43,-750.5 329,-750.5 329,-715.5 43,-715.5"/>
<text text-anchor="start" x="56.6888" y="-728.3" font-family="Arial Bold" font-size="18.00" fill="#000000">acq.edi_account</text>
<text text-anchor="start" x="187.7432" y="-728.3" font-family="Arial" font-size="14.00" fill="#000000">    </text>
<text text-anchor="start" x="221.948" y="-728.3" font-family="Arial" font-size="14.00" fill="#666666">[BASE TABLE]</text>
<polygon fill="none" stroke="#000000" points="43,-685.5 43,-715.5 329,-715.5 329,-685.5 43,-685.5"/>
<text text-anchor="start" x="50" y="-696.9" font-family="Arial" font-size="14.00" fill="#000000">id    </text>
<text text-anchor="start" x="95.094" y="-696.9" font-family="Arial" font-size="14.00" fill="#666666">[integer]</text>
<polygon fill="none" stroke="#000000" points="43,-655.5 43,-685.5 329,-685.5 329,-655.5 43,-655.5"/>
<text text-anchor="start" x="50" y="-666.9" font-family="Arial" font-size="14.00" fill="#000000">label    </text>
<text text-anchor="start" x="113.7658" y="-666.9" font-family="Arial" font-size="14.00" fill="#666666">[text]</text>
<polygon fill="none" stroke="#000000" points="43,-625.5 43,-655.5 329,-655.5 329,-625.5 43,-625.5"/>
<text text-anchor="start" x="50" y="-636.9" font-family="Arial" font-size="14.00" fill="#000000">host    </text>
<text text-anchor="start" x="110.6606" y="-636.9" font-family="Arial" font-size="14.00" fill="#666666">[text]</text>
<polygon fill="none" stroke="#000000" points="43,-595.5 43,-625.5 329,-625.5 329,-595.5 43,-595.5"/>
<text text-anchor="start" x="50" y="-606.9" font-family="Arial" font-size="14.00" fill="#000000">username    </text>
<text text-anchor="start" x="146.439" y="-606.9" font-family="Arial" font-size="14.00" fill="#666666">[text]</text>
<polygon fill="none" stroke="#000000" points="43,-565.5 43,-595.5 329,-595.5 329,-565.5 43,-565.5"/>
<text text-anchor="start" x="50" y="-576.9" font-family="Arial" font-size="14.00" fill="#000000">password    </text>
<text text-anchor="start" x="144.1024" y="-576.9" font-family="Arial" font-size="14.00" fill="#666666">[text]</text>
<polygon fill="none" stroke="#000000" points="43,-535.5 43,-565.5 329,-565.5 329,-535.5 43,-535.5"/>
<text text-anchor="start" x="50" y="-546.9" font-family="Arial" font-size="14.00" fill="#000000">account    </text>
<text text-anchor="start" x="133.2258" y="-546.9" font-family="Arial" font-size="14.00" fill="#666666">[text]</text>
<polygon fill="none" stroke="#000000" points="43,-505.5 43,-535.5 329,-535.5 329,-505.5 43,-505.5"/>
<text text-anchor="start" x="50" y="-516.9" font-family="Arial" font-size="14.00" fill="#000000">path    </text>
<text text-anchor="start" x="111.4432" y="-516.9" font-family="Arial" font-size="14.00" fill="#666666">[text]</text>
<polygon fill="none" stroke="#000000" points="43,-475.5 43,-505.5 329,-505.5 329,-475.5 43,-475.5"/>
<text text-anchor="start" x="50" y="-486.9" font-family="Arial" font-size="14.00" fill="#000000">owner    </text>
<text text-anchor="start" x="122.3198" y="-486.9" font-family="Arial" font-size="14.00" fill="#666666">[integer]</text>
<polygon fill="none" stroke="#000000" points="43,-445.5 43,-475.5 329,-475.5 329,-445.5 43,-445.5"/>
<text text-anchor="start" x="49.8857" y="-456.9" font-family="Arial" font-size="14.00" fill="#000000">last_activity    </text>
<text text-anchor="start" x="156.4299" y="-456.9" font-family="Arial" font-size="14.00" fill="#666666">[timestamp with time zone]</text>
<polygon fill="none" stroke="#000000" points="43,-415.5 43,-445.5 329,-445.5 329,-415.5 43,-415.5"/>
<text text-anchor="start" x="50" y="-426.9" font-family="Arial" font-size="14.00" fill="#000000">provider    </text>
<text text-anchor="start" x="134.763" y="-426.9" font-family="Arial" font-size="14.00" fill="#666666">[integer]</text>
<polygon fill="none" stroke="#000000" points="43,-385.5 43,-415.5 329,-415.5 329,-385.5 43,-385.5"/>
<text text-anchor="start" x="50" y="-396.9" font-family="Arial" font-size="14.00" fill="#000000">in_dir    </text>
<text text-anchor="start" x="118.4264" y="-396.9" font-family="Arial" font-size="14.00" fill="#666666">[text]</text>
<polygon fill="none" stroke="#000000" points="43,-355.5 43,-385.5 329,-385.5 329,-355.5 43,-355.5"/>
<text text-anchor="start" x="50" y="-366.9" font-family="Arial" font-size="14.00" fill="#000000">vendcode    </text>
<text text-anchor="start" x="144.9004" y="-366.9" font-family="Arial" font-size="14.00" fill="#666666">[text]</text>
<polygon fill="none" stroke="#000000" points="43,-325.5 43,-355.5 329,-355.5 329,-325.5 43,-325.5"/>
<text text-anchor="start" x="50" y="-336.9" font-family="Arial" font-size="14.00" fill="#000000">vendacct    </text>
<text text-anchor="start" x="140.2258" y="-336.9" font-family="Arial" font-size="14.00" fill="#666666">[text]</text>
<polygon fill="none" stroke="#000000" points="43,-295.5 43,-325.5 329,-325.5 329,-295.5 43,-295.5"/>
<text text-anchor="start" x="50" y="-306.9" font-family="Arial" font-size="14.00" fill="#000000">attr_set    </text>
<text text-anchor="start" x="130.885" y="-306.9" font-family="Arial" font-size="14.00" fill="#666666">[integer]</text>
<polygon fill="none" stroke="#000000" points="43,-265.5 43,-295.5 329,-295.5 329,-265.5 43,-265.5"/>
<text text-anchor="start" x="50" y="-276.9" font-family="Arial" font-size="14.00" fill="#000000">use_attrs    </text>
<text text-anchor="start" x="141.777" y="-276.9" font-family="Arial" font-size="14.00" fill="#666666">[boolean]</text>
</g>
<!-- acq.edi_account&#45;&gt;acq.edi_attr_set -->
<g id="edge1" class="edge">
<title>acq.edi_account:attr_set&#45;&gt;acq.edi_attr_set:id</title>
<path fill="none" stroke="#000000" d="M339.1425,-308.8893C364.1859,-299.6262 347.6837,-252.524 329,-223 309.0134,-191.4172 272.9866,-218.5828 253,-187 230.0652,-150.7584 210.1111,-90.5 253,-90.5"/>
<polygon fill="#000000" stroke="#000000" points="338.8762,-308.9315 328.2942,-306.0557 333.9381,-309.7157 329,-310.5 329,-310.5 329,-310.5 333.9381,-309.7157 329.7058,-314.9443 338.8762,-308.9315 338.8762,-308.9315"/>
<text text-anchor="start" x="335.7105" y="-320.5" font-family="Arial" font-size="10.00" fill="#000000">FOREIGN KEY (attr_set) REFERENCES acq.edi_attr_set(id)</text>
</g>
<!-- acq.edi_attr_set_map -->
<g id="node3" class="node">
<title>acq.edi_attr_set_map</title>
<polygon fill="#efefef" stroke="transparent" points="433,-535.5 433,-570.5 747,-570.5 747,-535.5 433,-535.5"/>
<polygon fill="none" stroke="#000000" points="433,-535.5 433,-570.5 747,-570.5 747,-535.5 433,-535.5"/>
<text text-anchor="start" x="439.6882" y="-548.3" font-family="Arial Bold" font-size="18.00" fill="#000000">acq.edi_attr_set_map</text>
<text text-anchor="start" x="612.7438" y="-548.3" font-family="Arial" font-size="14.00" fill="#000000">    </text>
<text text-anchor="start" x="646.9486" y="-548.3" font-family="Arial" font-size="14.00" fill="#666666">[BASE TABLE]</text>
<polygon fill="none" stroke="#000000" points="433,-505.5 433,-535.5 747,-535.5 747,-505.5 433,-505.5"/>
<text text-anchor="start" x="440" y="-516.9" font-family="Arial" font-size="14.00" fill="#000000">id    </text>
<text text-anchor="start" x="485.094" y="-516.9" font-family="Arial" font-size="14.00" fill="#666666">[integer]</text>
<polygon fill="none" stroke="#000000" points="433,-475.5 433,-505.5 747,-505.5 747,-475.5 433,-475.5"/>
<text text-anchor="start" x="440" y="-486.9" font-family="Arial" font-size="14.00" fill="#000000">attr_set    </text>
<text text-anchor="start" x="520.885" y="-486.9" font-family="Arial" font-size="14.00" fill="#666666">[integer]</text>
<polygon fill="none" stroke="#000000" points="433,-445.5 433,-475.5 747,-475.5 747,-445.5 433,-445.5"/>
<text text-anchor="start" x="440" y="-456.9" font-family="Arial" font-size="14.00" fill="#000000">attr    </text>
<text text-anchor="start" x="494.4292" y="-456.9" font-family="Arial" font-size="14.00" fill="#666666">[text]</text>
</g>
<!-- acq.edi_attr_set_map&#45;&gt;acq.edi_attr_set -->
<g id="edge2" class="edge">
<title>acq.edi_attr_set_map:attr_set&#45;&gt;acq.edi_attr_set:id</title>
<path fill="none" stroke="#000000" d="M422.5857,-490.0022C269.1979,-474.262 700.3902,-90.5 522,-90.5"/>
<polygon fill="#000000" stroke="#000000" points="423.0114,-490.0225 432.7851,-494.9949 428.0057,-490.2612 433,-490.5 433,-490.5 433,-490.5 428.0057,-490.2612 433.2149,-486.0051 423.0114,-490.0225 423.0114,-490.0225"/>
<text text-anchor="start" x="440.3695" y="-500.5" font-family="Arial" font-size="10.00" fill="#000000">FOREIGN KEY (attr_set) REFERENCES acq.edi_attr_set(id) ON DELETE CASCADE DEFERRABLE INITIALLY DEFERRED</text>
</g>
</g>
</svg>
