<?xml version="1.0" encoding="UTF-8" standalone="no"?>
<!DOCTYPE svg PUBLIC "-//W3C//DTD SVG 1.1//EN"
 "http://www.w3.org/Graphics/SVG/1.1/DTD/svg11.dtd">
<!-- Generated by graphviz version 2.40.1 (20161225.0304)
 -->
<!-- Title: acq.lineitem_note Pages: 1 -->
<svg width="1341pt" height="2032pt"
 viewBox="0.00 0.00 1341.00 2032.00" xmlns="http://www.w3.org/2000/svg" xmlns:xlink="http://www.w3.org/1999/xlink">
<g id="graph0" class="graph" transform="scale(1 1) rotate(0) translate(4 2028)">
<title>acq.lineitem_note</title>
<polygon fill="#ffffff" stroke="transparent" points="-4,4 -4,-2028 1337,-2028 1337,4 -4,4"/>
<!-- acq.lineitem_note -->
<g id="node1" class="node">
<title>acq.lineitem_note</title>
<polygon fill="#efefef" stroke="transparent" points="554,-1942.5 554,-1977.5 836,-1977.5 836,-1942.5 554,-1942.5"/>
<polygon fill="none" stroke="#000000" points="554,-1942.5 554,-1977.5 836,-1977.5 836,-1942.5 554,-1942.5"/>
<text text-anchor="start" x="560.6974" y="-1955.3" font-family="Arial Bold" font-size="18.00" fill="#000000">acq.lineitem_note</text>
<text text-anchor="start" x="701.7346" y="-1955.3" font-family="Arial" font-size="14.00" fill="#000000">    </text>
<text text-anchor="start" x="735.9394" y="-1955.3" font-family="Arial" font-size="14.00" fill="#666666">[BASE TABLE]</text>
<polygon fill="none" stroke="#000000" points="554,-1912.5 554,-1942.5 836,-1942.5 836,-1912.5 554,-1912.5"/>
<text text-anchor="start" x="561" y="-1923.9" font-family="Arial" font-size="14.00" fill="#000000">id </text>
<text text-anchor="start" x="575.7798" y="-1923.9" font-family="Arial" font-size="14.00" fill="#666666">[integer]</text>
<polygon fill="none" stroke="#000000" points="554,-1882.5 554,-1912.5 836,-1912.5 836,-1882.5 554,-1882.5"/>
<text text-anchor="start" x="561" y="-1893.9" font-family="Arial" font-size="14.00" fill="#000000">lineitem </text>
<text text-anchor="start" x="613.1094" y="-1893.9" font-family="Arial" font-size="14.00" fill="#666666">[integer]</text>
<polygon fill="none" stroke="#000000" points="554,-1852.5 554,-1882.5 836,-1882.5 836,-1852.5 554,-1852.5"/>
<text text-anchor="start" x="561" y="-1863.9" font-family="Arial" font-size="14.00" fill="#000000">creator </text>
<text text-anchor="start" x="608.4502" y="-1863.9" font-family="Arial" font-size="14.00" fill="#666666">[integer]</text>
<polygon fill="none" stroke="#000000" points="554,-1822.5 554,-1852.5 836,-1852.5 836,-1822.5 554,-1822.5"/>
<text text-anchor="start" x="561" y="-1833.9" font-family="Arial" font-size="14.00" fill="#000000">editor </text>
<text text-anchor="start" x="599.8962" y="-1833.9" font-family="Arial" font-size="14.00" fill="#666666">[integer]</text>
<polygon fill="none" stroke="#000000" points="554,-1792.5 554,-1822.5 836,-1822.5 836,-1792.5 554,-1792.5"/>
<text text-anchor="start" x="561" y="-1803.9" font-family="Arial" font-size="14.00" fill="#000000">create_time </text>
<text text-anchor="start" x="638.0126" y="-1803.9" font-family="Arial" font-size="14.00" fill="#666666">[timestamp with time zone]</text>
<polygon fill="none" stroke="#000000" points="554,-1762.5 554,-1792.5 836,-1792.5 836,-1762.5 554,-1762.5"/>
<text text-anchor="start" x="561" y="-1773.9" font-family="Arial" font-size="14.00" fill="#000000">edit_time </text>
<text text-anchor="start" x="621.676" y="-1773.9" font-family="Arial" font-size="14.00" fill="#666666">[timestamp with time zone]</text>
<polygon fill="none" stroke="#000000" points="554,-1732.5 554,-1762.5 836,-1762.5 836,-1732.5 554,-1732.5"/>
<text text-anchor="start" x="561" y="-1743.9" font-family="Arial" font-size="14.00" fill="#000000">value </text>
<text text-anchor="start" x="598.345" y="-1743.9" font-family="Arial" font-size="14.00" fill="#666666">[text]</text>
<polygon fill="none" stroke="#000000" points="554,-1702.5 554,-1732.5 836,-1732.5 836,-1702.5 554,-1702.5"/>
<text text-anchor="start" x="561" y="-1713.9" font-family="Arial" font-size="14.00" fill="#000000">alert_text </text>
<text text-anchor="start" x="622.46" y="-1713.9" font-family="Arial" font-size="14.00" fill="#666666">[integer]</text>
<polygon fill="none" stroke="#000000" points="554,-1672.5 554,-1702.5 836,-1702.5 836,-1672.5 554,-1672.5"/>
<text text-anchor="start" x="561" y="-1683.9" font-family="Arial" font-size="14.00" fill="#000000">vendor_public </text>
<text text-anchor="start" x="652.0252" y="-1683.9" font-family="Arial" font-size="14.00" fill="#666666">[boolean]</text>
<polygon fill="none" stroke="#000000" stroke-width="3" points="552.5,-1671.5 552.5,-1979.5 837.5,-1979.5 837.5,-1671.5 552.5,-1671.5"/>
</g>
<!-- acq.lineitem -->
<g id="node2" class="node">
<title>acq.lineitem</title>
<polygon fill="#efefef" stroke="transparent" points="92,-1047.5 92,-1082.5 431,-1082.5 431,-1047.5 92,-1047.5"/>
<polygon fill="none" stroke="#000000" points="92,-1047.5 92,-1082.5 431,-1082.5 431,-1047.5 92,-1047.5"/>
<text text-anchor="start" x="149.7109" y="-1060.3" font-family="Arial Bold" font-size="18.00" fill="#000000">acq.lineitem</text>
<text text-anchor="start" x="245.7211" y="-1060.3" font-family="Arial" font-size="14.00" fill="#000000">    </text>
<text text-anchor="start" x="279.9259" y="-1060.3" font-family="Arial" font-size="14.00" fill="#666666">[BASE TABLE]</text>
<polygon fill="none" stroke="#000000" points="92,-1017.5 92,-1047.5 431,-1047.5 431,-1017.5 92,-1017.5"/>
<text text-anchor="start" x="99" y="-1028.9" font-family="Arial" font-size="14.00" fill="#000000">id    </text>
<text text-anchor="start" x="144.094" y="-1028.9" font-family="Arial" font-size="14.00" fill="#666666">[bigint]</text>
<polygon fill="none" stroke="#000000" points="92,-987.5 92,-1017.5 431,-1017.5 431,-987.5 92,-987.5"/>
<text text-anchor="start" x="99" y="-998.9" font-family="Arial" font-size="14.00" fill="#000000">creator    </text>
<text text-anchor="start" x="176.7644" y="-998.9" font-family="Arial" font-size="14.00" fill="#666666">[integer]</text>
<polygon fill="none" stroke="#000000" points="92,-957.5 92,-987.5 431,-987.5 431,-957.5 92,-957.5"/>
<text text-anchor="start" x="99" y="-968.9" font-family="Arial" font-size="14.00" fill="#000000">editor    </text>
<text text-anchor="start" x="168.2104" y="-968.9" font-family="Arial" font-size="14.00" fill="#666666">[integer]</text>
<polygon fill="none" stroke="#000000" points="92,-927.5 92,-957.5 431,-957.5 431,-927.5 92,-927.5"/>
<text text-anchor="start" x="99" y="-938.9" font-family="Arial" font-size="14.00" fill="#000000">selector    </text>
<text text-anchor="start" x="182.2104" y="-938.9" font-family="Arial" font-size="14.00" fill="#666666">[integer]</text>
<polygon fill="none" stroke="#000000" points="92,-897.5 92,-927.5 431,-927.5 431,-897.5 92,-897.5"/>
<text text-anchor="start" x="99" y="-908.9" font-family="Arial" font-size="14.00" fill="#000000">provider    </text>
<text text-anchor="start" x="183.763" y="-908.9" font-family="Arial" font-size="14.00" fill="#666666">[integer]</text>
<polygon fill="none" stroke="#000000" points="92,-867.5 92,-897.5 431,-897.5 431,-867.5 92,-867.5"/>
<text text-anchor="start" x="99" y="-878.9" font-family="Arial" font-size="14.00" fill="#000000">purchase_order    </text>
<text text-anchor="start" x="231.23" y="-878.9" font-family="Arial" font-size="14.00" fill="#666666">[integer]</text>
<polygon fill="none" stroke="#000000" points="92,-837.5 92,-867.5 431,-867.5 431,-837.5 92,-837.5"/>
<text text-anchor="start" x="99" y="-848.9" font-family="Arial" font-size="14.00" fill="#000000">picklist    </text>
<text text-anchor="start" x="175.1978" y="-848.9" font-family="Arial" font-size="14.00" fill="#666666">[integer]</text>
<polygon fill="none" stroke="#000000" points="92,-807.5 92,-837.5 431,-837.5 431,-807.5 92,-807.5"/>
<text text-anchor="start" x="98.9292" y="-818.9" font-family="Arial" font-size="14.00" fill="#000000">expected_recv_time    </text>
<text text-anchor="start" x="258.3864" y="-818.9" font-family="Arial" font-size="14.00" fill="#666666">[timestamp with time zone]</text>
<polygon fill="none" stroke="#000000" points="92,-777.5 92,-807.5 431,-807.5 431,-777.5 92,-777.5"/>
<text text-anchor="start" x="99" y="-788.9" font-family="Arial" font-size="14.00" fill="#000000">create_time    </text>
<text text-anchor="start" x="206.3268" y="-788.9" font-family="Arial" font-size="14.00" fill="#666666">[timestamp with time zone]</text>
<polygon fill="none" stroke="#000000" points="92,-747.5 92,-777.5 431,-777.5 431,-747.5 92,-747.5"/>
<text text-anchor="start" x="99" y="-758.9" font-family="Arial" font-size="14.00" fill="#000000">edit_time    </text>
<text text-anchor="start" x="189.9902" y="-758.9" font-family="Arial" font-size="14.00" fill="#666666">[timestamp with time zone]</text>
<polygon fill="none" stroke="#000000" points="92,-717.5 92,-747.5 431,-747.5 431,-717.5 92,-717.5"/>
<text text-anchor="start" x="99" y="-728.9" font-family="Arial" font-size="14.00" fill="#000000">marc    </text>
<text text-anchor="start" x="164.3086" y="-728.9" font-family="Arial" font-size="14.00" fill="#666666">[text]</text>
<polygon fill="none" stroke="#000000" points="92,-687.5 92,-717.5 431,-717.5 431,-687.5 92,-687.5"/>
<text text-anchor="start" x="99" y="-698.9" font-family="Arial" font-size="14.00" fill="#000000">eg_bib_id    </text>
<text text-anchor="start" x="193.8962" y="-698.9" font-family="Arial" font-size="14.00" fill="#666666">[bigint]</text>
<polygon fill="none" stroke="#000000" points="92,-657.5 92,-687.5 431,-687.5 431,-657.5 92,-657.5"/>
<text text-anchor="start" x="99" y="-668.9" font-family="Arial" font-size="14.00" fill="#000000">source_label    </text>
<text text-anchor="start" x="212.5568" y="-668.9" font-family="Arial" font-size="14.00" fill="#666666">[text]</text>
<polygon fill="none" stroke="#000000" points="92,-627.5 92,-657.5 431,-657.5 431,-627.5 92,-627.5"/>
<text text-anchor="start" x="99" y="-638.9" font-family="Arial" font-size="14.00" fill="#000000">state    </text>
<text text-anchor="start" x="163.5512" y="-638.9" font-family="Arial" font-size="14.00" fill="#666666">[text]</text>
<polygon fill="none" stroke="#000000" points="92,-597.5 92,-627.5 431,-627.5 431,-597.5 92,-597.5"/>
<text text-anchor="start" x="99" y="-608.9" font-family="Arial" font-size="14.00" fill="#000000">cancel_reason    </text>
<text text-anchor="start" x="224.2328" y="-608.9" font-family="Arial" font-size="14.00" fill="#666666">[integer]</text>
<polygon fill="none" stroke="#000000" points="92,-567.5 92,-597.5 431,-597.5 431,-567.5 92,-567.5"/>
<text text-anchor="start" x="99" y="-578.9" font-family="Arial" font-size="14.00" fill="#000000">estimated_unit_price    </text>
<text text-anchor="start" x="262.3436" y="-578.9" font-family="Arial" font-size="14.00" fill="#666666">[numeric]</text>
<polygon fill="none" stroke="#000000" points="92,-537.5 92,-567.5 431,-567.5 431,-537.5 92,-537.5"/>
<text text-anchor="start" x="99" y="-548.9" font-family="Arial" font-size="14.00" fill="#000000">claim_policy    </text>
<text text-anchor="start" x="209.4222" y="-548.9" font-family="Arial" font-size="14.00" fill="#666666">[integer]</text>
<polygon fill="none" stroke="#000000" points="92,-507.5 92,-537.5 431,-537.5 431,-507.5 92,-507.5"/>
<text text-anchor="start" x="99" y="-518.9" font-family="Arial" font-size="14.00" fill="#000000">queued_record    </text>
<text text-anchor="start" x="227.352" y="-518.9" font-family="Arial" font-size="14.00" fill="#666666">[bigint]</text>
</g>
<!-- acq.lineitem_note&#45;&gt;acq.lineitem -->
<g id="edge1" class="edge">
<title>acq.lineitem_note:lineitem&#45;&gt;acq.lineitem:id</title>
<path fill="none" stroke="#000000" d="M543.79,-1897.1774C418.7257,-1888.9649 504.7434,-1725.5332 483,-1591 473.0562,-1529.4744 493.3239,-1032.5 431,-1032.5"/>
<polygon fill="#000000" stroke="#000000" points="544.005,-1897.1841 553.8579,-1901.9978 549.0025,-1897.3421 554,-1897.5 554,-1897.5 554,-1897.5 549.0025,-1897.3421 554.1421,-1893.0022 544.005,-1897.1841 544.005,-1897.1841"/>
<text text-anchor="start" x="6.7185" y="-1907.5" font-family="Arial" font-size="10.00" fill="#000000">FOREIGN KEY (lineitem) REFERENCES acq.lineitem(id) ON DELETE CASCADE DEFERRABLE INITIALLY DEFERRED</text>
</g>
<!-- actor.usr -->
<g id="node3" class="node">
<title>actor.usr</title>
<polygon fill="#efefef" stroke="transparent" points="535,-1512.5 535,-1547.5 855,-1547.5 855,-1512.5 535,-1512.5"/>
<polygon fill="none" stroke="#000000" points="535,-1512.5 535,-1547.5 855,-1547.5 855,-1512.5 535,-1512.5"/>
<text text-anchor="start" x="596.2123" y="-1525.3" font-family="Arial Bold" font-size="18.00" fill="#000000">actor.usr</text>
<text text-anchor="start" x="666.2197" y="-1525.3" font-family="Arial" font-size="14.00" fill="#000000">    </text>
<text text-anchor="start" x="700.4245" y="-1525.3" font-family="Arial" font-size="14.00" fill="#666666">[BASE TABLE]</text>
<polygon fill="none" stroke="#000000" points="535,-1482.5 535,-1512.5 855,-1512.5 855,-1482.5 535,-1482.5"/>
<text text-anchor="start" x="542" y="-1493.9" font-family="Arial" font-size="14.00" fill="#000000">id    </text>
<text text-anchor="start" x="587.094" y="-1493.9" font-family="Arial" font-size="14.00" fill="#666666">[integer]</text>
<polygon fill="none" stroke="#000000" points="535,-1452.5 535,-1482.5 855,-1482.5 855,-1452.5 535,-1452.5"/>
<text text-anchor="start" x="542" y="-1463.9" font-family="Arial" font-size="14.00" fill="#000000">card    </text>
<text text-anchor="start" x="603.4306" y="-1463.9" font-family="Arial" font-size="14.00" fill="#666666">[integer]</text>
<polygon fill="none" stroke="#000000" points="535,-1422.5 535,-1452.5 855,-1452.5 855,-1422.5 535,-1422.5"/>
<text text-anchor="start" x="542" y="-1433.9" font-family="Arial" font-size="14.00" fill="#000000">profile    </text>
<text text-anchor="start" x="614.317" y="-1433.9" font-family="Arial" font-size="14.00" fill="#666666">[integer]</text>
<polygon fill="none" stroke="#000000" points="535,-1392.5 535,-1422.5 855,-1422.5 855,-1392.5 535,-1392.5"/>
<text text-anchor="start" x="542" y="-1403.9" font-family="Arial" font-size="14.00" fill="#000000">usrname    </text>
<text text-anchor="start" x="630.6564" y="-1403.9" font-family="Arial" font-size="14.00" fill="#666666">[text]</text>
<polygon fill="none" stroke="#000000" points="535,-1362.5 535,-1392.5 855,-1392.5 855,-1362.5 535,-1362.5"/>
<text text-anchor="start" x="542" y="-1373.9" font-family="Arial" font-size="14.00" fill="#000000">email    </text>
<text text-anchor="start" x="609.6438" y="-1373.9" font-family="Arial" font-size="14.00" fill="#666666">[text]</text>
<polygon fill="none" stroke="#000000" points="535,-1332.5 535,-1362.5 855,-1362.5 855,-1332.5 535,-1332.5"/>
<text text-anchor="start" x="542" y="-1343.9" font-family="Arial" font-size="14.00" fill="#000000">passwd    </text>
<text text-anchor="start" x="623.6592" y="-1343.9" font-family="Arial" font-size="14.00" fill="#666666">[text]</text>
<polygon fill="none" stroke="#000000" points="535,-1302.5 535,-1332.5 855,-1332.5 855,-1302.5 535,-1302.5"/>
<text text-anchor="start" x="542" y="-1313.9" font-family="Arial" font-size="14.00" fill="#000000">standing    </text>
<text text-anchor="start" x="629.115" y="-1313.9" font-family="Arial" font-size="14.00" fill="#666666">[integer]</text>
<polygon fill="none" stroke="#000000" points="535,-1272.5 535,-1302.5 855,-1302.5 855,-1272.5 535,-1272.5"/>
<text text-anchor="start" x="542" y="-1283.9" font-family="Arial" font-size="14.00" fill="#000000">ident_type    </text>
<text text-anchor="start" x="640.7882" y="-1283.9" font-family="Arial" font-size="14.00" fill="#666666">[integer]</text>
<polygon fill="none" stroke="#000000" points="535,-1242.5 535,-1272.5 855,-1272.5 855,-1242.5 535,-1242.5"/>
<text text-anchor="start" x="542" y="-1253.9" font-family="Arial" font-size="14.00" fill="#000000">ident_value    </text>
<text text-anchor="start" x="647.7868" y="-1253.9" font-family="Arial" font-size="14.00" fill="#666666">[text]</text>
<polygon fill="none" stroke="#000000" points="535,-1212.5 535,-1242.5 855,-1242.5 855,-1212.5 535,-1212.5"/>
<text text-anchor="start" x="542" y="-1223.9" font-family="Arial" font-size="14.00" fill="#000000">ident_type2    </text>
<text text-anchor="start" x="648.5708" y="-1223.9" font-family="Arial" font-size="14.00" fill="#666666">[integer]</text>
<polygon fill="none" stroke="#000000" points="535,-1182.5 535,-1212.5 855,-1212.5 855,-1182.5 535,-1182.5"/>
<text text-anchor="start" x="542" y="-1193.9" font-family="Arial" font-size="14.00" fill="#000000">ident_value2    </text>
<text text-anchor="start" x="655.5694" y="-1193.9" font-family="Arial" font-size="14.00" fill="#666666">[text]</text>
<polygon fill="none" stroke="#000000" points="535,-1152.5 535,-1182.5 855,-1182.5 855,-1152.5 535,-1152.5"/>
<text text-anchor="start" x="542" y="-1163.9" font-family="Arial" font-size="14.00" fill="#000000">net_access_level    </text>
<text text-anchor="start" x="683.5694" y="-1163.9" font-family="Arial" font-size="14.00" fill="#666666">[integer]</text>
<polygon fill="none" stroke="#000000" points="535,-1122.5 535,-1152.5 855,-1152.5 855,-1122.5 535,-1122.5"/>
<text text-anchor="start" x="542" y="-1133.9" font-family="Arial" font-size="14.00" fill="#000000">photo_url    </text>
<text text-anchor="start" x="634.5582" y="-1133.9" font-family="Arial" font-size="14.00" fill="#666666">[text]</text>
<polygon fill="none" stroke="#000000" points="535,-1092.5 535,-1122.5 855,-1122.5 855,-1092.5 535,-1092.5"/>
<text text-anchor="start" x="542" y="-1103.9" font-family="Arial" font-size="14.00" fill="#000000">prefix    </text>
<text text-anchor="start" x="610.4278" y="-1103.9" font-family="Arial" font-size="14.00" fill="#666666">[text]</text>
<polygon fill="none" stroke="#000000" points="535,-1062.5 535,-1092.5 855,-1092.5 855,-1062.5 535,-1062.5"/>
<text text-anchor="start" x="542" y="-1073.9" font-family="Arial" font-size="14.00" fill="#000000">first_given_name    </text>
<text text-anchor="start" x="682.7812" y="-1073.9" font-family="Arial" font-size="14.00" fill="#666666">[text]</text>
<polygon fill="none" stroke="#000000" points="535,-1032.5 535,-1062.5 855,-1062.5 855,-1032.5 535,-1032.5"/>
<text text-anchor="start" x="542" y="-1043.9" font-family="Arial" font-size="14.00" fill="#000000">second_given_name    </text>
<text text-anchor="start" x="705.3632" y="-1043.9" font-family="Arial" font-size="14.00" fill="#666666">[text]</text>
<polygon fill="none" stroke="#000000" points="535,-1002.5 535,-1032.5 855,-1032.5 855,-1002.5 535,-1002.5"/>
<text text-anchor="start" x="542" y="-1013.9" font-family="Arial" font-size="14.00" fill="#000000">family_name    </text>
<text text-anchor="start" x="655.5428" y="-1013.9" font-family="Arial" font-size="14.00" fill="#666666">[text]</text>
<polygon fill="none" stroke="#000000" points="535,-972.5 535,-1002.5 855,-1002.5 855,-972.5 535,-972.5"/>
<text text-anchor="start" x="542" y="-983.9" font-family="Arial" font-size="14.00" fill="#000000">suffix    </text>
<text text-anchor="start" x="608.8752" y="-983.9" font-family="Arial" font-size="14.00" fill="#666666">[text]</text>
<polygon fill="none" stroke="#000000" points="535,-942.5 535,-972.5 855,-972.5 855,-942.5 535,-942.5"/>
<text text-anchor="start" x="542" y="-953.9" font-family="Arial" font-size="14.00" fill="#000000">alias    </text>
<text text-anchor="start" x="604.9832" y="-953.9" font-family="Arial" font-size="14.00" fill="#666666">[text]</text>
<polygon fill="none" stroke="#000000" points="535,-912.5 535,-942.5 855,-942.5 855,-912.5 535,-912.5"/>
<text text-anchor="start" x="542" y="-923.9" font-family="Arial" font-size="14.00" fill="#000000">day_phone    </text>
<text text-anchor="start" x="645.4656" y="-923.9" font-family="Arial" font-size="14.00" fill="#666666">[text]</text>
<polygon fill="none" stroke="#000000" points="535,-882.5 535,-912.5 855,-912.5 855,-882.5 535,-882.5"/>
<text text-anchor="start" x="542" y="-893.9" font-family="Arial" font-size="14.00" fill="#000000">evening_phone    </text>
<text text-anchor="start" x="671.92" y="-893.9" font-family="Arial" font-size="14.00" fill="#666666">[text]</text>
<polygon fill="none" stroke="#000000" points="535,-852.5 535,-882.5 855,-882.5 855,-852.5 535,-852.5"/>
<text text-anchor="start" x="542" y="-863.9" font-family="Arial" font-size="14.00" fill="#000000">other_phone    </text>
<text text-anchor="start" x="654.7994" y="-863.9" font-family="Arial" font-size="14.00" fill="#666666">[text]</text>
<polygon fill="none" stroke="#000000" points="535,-822.5 535,-852.5 855,-852.5 855,-822.5 535,-822.5"/>
<text text-anchor="start" x="542" y="-833.9" font-family="Arial" font-size="14.00" fill="#000000">mailing_address    </text>
<text text-anchor="start" x="678.1066" y="-833.9" font-family="Arial" font-size="14.00" fill="#666666">[integer]</text>
<polygon fill="none" stroke="#000000" points="535,-792.5 535,-822.5 855,-822.5 855,-792.5 535,-792.5"/>
<text text-anchor="start" x="542" y="-803.9" font-family="Arial" font-size="14.00" fill="#000000">billing_address    </text>
<text text-anchor="start" x="669.5526" y="-803.9" font-family="Arial" font-size="14.00" fill="#666666">[integer]</text>
<polygon fill="none" stroke="#000000" points="535,-762.5 535,-792.5 855,-792.5 855,-762.5 535,-762.5"/>
<text text-anchor="start" x="542" y="-773.9" font-family="Arial" font-size="14.00" fill="#000000">home_ou    </text>
<text text-anchor="start" x="634.561" y="-773.9" font-family="Arial" font-size="14.00" fill="#666666">[integer]</text>
<polygon fill="none" stroke="#000000" points="535,-732.5 535,-762.5 855,-762.5 855,-732.5 535,-732.5"/>
<text text-anchor="start" x="542" y="-743.9" font-family="Arial" font-size="14.00" fill="#000000">dob    </text>
<text text-anchor="start" x="599.5526" y="-743.9" font-family="Arial" font-size="14.00" fill="#666666">[date]</text>
<polygon fill="none" stroke="#000000" points="535,-702.5 535,-732.5 855,-732.5 855,-702.5 535,-702.5"/>
<text text-anchor="start" x="542" y="-713.9" font-family="Arial" font-size="14.00" fill="#000000">active    </text>
<text text-anchor="start" x="612.7672" y="-713.9" font-family="Arial" font-size="14.00" fill="#666666">[boolean]</text>
<polygon fill="none" stroke="#000000" points="535,-672.5 535,-702.5 855,-702.5 855,-672.5 535,-672.5"/>
<text text-anchor="start" x="542" y="-683.9" font-family="Arial" font-size="14.00" fill="#000000">master_account    </text>
<text text-anchor="start" x="675.7854" y="-683.9" font-family="Arial" font-size="14.00" fill="#666666">[boolean]</text>
<polygon fill="none" stroke="#000000" points="535,-642.5 535,-672.5 855,-672.5 855,-642.5 535,-642.5"/>
<text text-anchor="start" x="542" y="-653.9" font-family="Arial" font-size="14.00" fill="#000000">super_user    </text>
<text text-anchor="start" x="646.2216" y="-653.9" font-family="Arial" font-size="14.00" fill="#666666">[boolean]</text>
<polygon fill="none" stroke="#000000" points="535,-612.5 535,-642.5 855,-642.5 855,-612.5 535,-612.5"/>
<text text-anchor="start" x="542" y="-623.9" font-family="Arial" font-size="14.00" fill="#000000">barred    </text>
<text text-anchor="start" x="616.6564" y="-623.9" font-family="Arial" font-size="14.00" fill="#666666">[boolean]</text>
<polygon fill="none" stroke="#000000" points="535,-582.5 535,-612.5 855,-612.5 855,-582.5 535,-582.5"/>
<text text-anchor="start" x="542" y="-593.9" font-family="Arial" font-size="14.00" fill="#000000">deleted    </text>
<text text-anchor="start" x="622.115" y="-593.9" font-family="Arial" font-size="14.00" fill="#666666">[boolean]</text>
<polygon fill="none" stroke="#000000" points="535,-552.5 535,-582.5 855,-582.5 855,-552.5 535,-552.5"/>
<text text-anchor="start" x="542" y="-563.9" font-family="Arial" font-size="14.00" fill="#000000">juvenile    </text>
<text text-anchor="start" x="623.655" y="-563.9" font-family="Arial" font-size="14.00" fill="#666666">[boolean]</text>
<polygon fill="none" stroke="#000000" points="535,-522.5 535,-552.5 855,-552.5 855,-522.5 535,-522.5"/>
<text text-anchor="start" x="542" y="-533.9" font-family="Arial" font-size="14.00" fill="#000000">usrgroup    </text>
<text text-anchor="start" x="631.439" y="-533.9" font-family="Arial" font-size="14.00" fill="#666666">[integer]</text>
<polygon fill="none" stroke="#000000" points="535,-492.5 535,-522.5 855,-522.5 855,-492.5 535,-492.5"/>
<text text-anchor="start" x="542" y="-503.9" font-family="Arial" font-size="14.00" fill="#000000">claims_returned_count    </text>
<text text-anchor="start" x="717.7896" y="-503.9" font-family="Arial" font-size="14.00" fill="#666666">[integer]</text>
<polygon fill="none" stroke="#000000" points="535,-462.5 535,-492.5 855,-492.5 855,-462.5 535,-462.5"/>
<text text-anchor="start" x="542" y="-473.9" font-family="Arial" font-size="14.00" fill="#000000">credit_forward_balance    </text>
<text text-anchor="start" x="721.6788" y="-473.9" font-family="Arial" font-size="14.00" fill="#666666">[numeric(6,2)]</text>
<polygon fill="none" stroke="#000000" points="535,-432.5 535,-462.5 855,-462.5 855,-432.5 535,-432.5"/>
<text text-anchor="start" x="542" y="-443.9" font-family="Arial" font-size="14.00" fill="#000000">last_xact_id    </text>
<text text-anchor="start" x="650.1122" y="-443.9" font-family="Arial" font-size="14.00" fill="#666666">[text]</text>
<polygon fill="none" stroke="#000000" points="535,-402.5 535,-432.5 855,-432.5 855,-402.5 535,-402.5"/>
<text text-anchor="start" x="542" y="-413.9" font-family="Arial" font-size="14.00" fill="#000000">alert_message    </text>
<text text-anchor="start" x="668.0014" y="-413.9" font-family="Arial" font-size="14.00" fill="#666666">[text]</text>
<polygon fill="none" stroke="#000000" points="535,-372.5 535,-402.5 855,-402.5 855,-372.5 535,-372.5"/>
<text text-anchor="start" x="542" y="-383.9" font-family="Arial" font-size="14.00" fill="#000000">create_date    </text>
<text text-anchor="start" x="650.1248" y="-383.9" font-family="Arial" font-size="14.00" fill="#666666">[timestamp with time zone]</text>
<polygon fill="none" stroke="#000000" points="535,-342.5 535,-372.5 855,-372.5 855,-342.5 535,-342.5"/>
<text text-anchor="start" x="542" y="-353.9" font-family="Arial" font-size="14.00" fill="#000000">expire_date    </text>
<text text-anchor="start" x="649.3408" y="-353.9" font-family="Arial" font-size="14.00" fill="#666666">[timestamp with time zone]</text>
<polygon fill="none" stroke="#000000" points="535,-312.5 535,-342.5 855,-342.5 855,-312.5 535,-312.5"/>
<text text-anchor="start" x="542" y="-323.9" font-family="Arial" font-size="14.00" fill="#000000">claims_never_checked_out_count    </text>
<text text-anchor="start" x="787.8246" y="-323.9" font-family="Arial" font-size="14.00" fill="#666666">[integer]</text>
<polygon fill="none" stroke="#000000" points="535,-282.5 535,-312.5 855,-312.5 855,-282.5 535,-282.5"/>
<text text-anchor="start" x="541.7609" y="-293.9" font-family="Arial" font-size="14.00" fill="#000000">last_update_time    </text>
<text text-anchor="start" x="682.5547" y="-293.9" font-family="Arial" font-size="14.00" fill="#666666">[timestamp with time zone]</text>
<polygon fill="none" stroke="#000000" points="535,-252.5 535,-282.5 855,-282.5 855,-252.5 535,-252.5"/>
<text text-anchor="start" x="542" y="-263.9" font-family="Arial" font-size="14.00" fill="#000000">pref_prefix    </text>
<text text-anchor="start" x="642.3268" y="-263.9" font-family="Arial" font-size="14.00" fill="#666666">[text]</text>
<polygon fill="none" stroke="#000000" points="535,-222.5 535,-252.5 855,-252.5 855,-222.5 535,-222.5"/>
<text text-anchor="start" x="542" y="-233.9" font-family="Arial" font-size="14.00" fill="#000000">pref_first_given_name    </text>
<text text-anchor="start" x="714.6802" y="-233.9" font-family="Arial" font-size="14.00" fill="#666666">[text]</text>
<polygon fill="none" stroke="#000000" points="535,-192.5 535,-222.5 855,-222.5 855,-192.5 535,-192.5"/>
<text text-anchor="start" x="542" y="-203.9" font-family="Arial" font-size="14.00" fill="#000000">pref_second_given_name    </text>
<text text-anchor="start" x="737.2622" y="-203.9" font-family="Arial" font-size="14.00" fill="#666666">[text]</text>
<polygon fill="none" stroke="#000000" points="535,-162.5 535,-192.5 855,-192.5 855,-162.5 535,-162.5"/>
<text text-anchor="start" x="542" y="-173.9" font-family="Arial" font-size="14.00" fill="#000000">pref_family_name    </text>
<text text-anchor="start" x="687.4418" y="-173.9" font-family="Arial" font-size="14.00" fill="#666666">[text]</text>
<polygon fill="none" stroke="#000000" points="535,-132.5 535,-162.5 855,-162.5 855,-132.5 535,-132.5"/>
<text text-anchor="start" x="542" y="-143.9" font-family="Arial" font-size="14.00" fill="#000000">pref_suffix    </text>
<text text-anchor="start" x="640.7742" y="-143.9" font-family="Arial" font-size="14.00" fill="#666666">[text]</text>
<polygon fill="none" stroke="#000000" points="535,-102.5 535,-132.5 855,-132.5 855,-102.5 535,-102.5"/>
<text text-anchor="start" x="542" y="-113.9" font-family="Arial" font-size="14.00" fill="#000000">name_keywords    </text>
<text text-anchor="start" x="678.1108" y="-113.9" font-family="Arial" font-size="14.00" fill="#666666">[text]</text>
<polygon fill="none" stroke="#000000" points="535,-72.5 535,-102.5 855,-102.5 855,-72.5 535,-72.5"/>
<text text-anchor="start" x="542" y="-83.9" font-family="Arial" font-size="14.00" fill="#000000">name_kw_tsvector    </text>
<text text-anchor="start" x="692.892" y="-83.9" font-family="Arial" font-size="14.00" fill="#666666">[tsvector]</text>
<polygon fill="none" stroke="#000000" points="535,-42.5 535,-72.5 855,-72.5 855,-42.5 535,-42.5"/>
<text text-anchor="start" x="542" y="-53.9" font-family="Arial" font-size="14.00" fill="#000000">guardian    </text>
<text text-anchor="start" x="630.6676" y="-53.9" font-family="Arial" font-size="14.00" fill="#666666">[text]</text>
</g>
<!-- acq.lineitem_note&#45;&gt;actor.usr -->
<g id="edge2" class="edge">
<title>acq.lineitem_note:creator&#45;&gt;actor.usr:id</title>
<path fill="none" stroke="#000000" d="M846.2591,-1865.5093C919.7763,-1836.3863 933.7929,-1497.5 855,-1497.5"/>
<polygon fill="#000000" stroke="#000000" points="845.8169,-1865.595 835.1428,-1863.0824 840.9084,-1866.5475 836,-1867.5 836,-1867.5 836,-1867.5 840.9084,-1866.5475 836.8572,-1871.9176 845.8169,-1865.595 845.8169,-1865.595"/>
<text text-anchor="start" x="842.8865" y="-1877.5" font-family="Arial" font-size="10.00" fill="#000000">FOREIGN KEY (creator) REFERENCES actor.usr(id) DEFERRABLE INITIALLY DEFERRED</text>
</g>
<!-- acq.lineitem_note&#45;&gt;actor.usr -->
<g id="edge3" class="edge">
<title>acq.lineitem_note:editor&#45;&gt;actor.usr:id</title>
<path fill="none" stroke="#000000" d="M845.8516,-1835.5033C913.1894,-1807.6392 927.274,-1497.5 855,-1497.5"/>
<polygon fill="#000000" stroke="#000000" points="845.8007,-1835.5135 835.1061,-1833.0897 840.9004,-1836.5068 836,-1837.5 836,-1837.5 836,-1837.5 840.9004,-1836.5068 836.8939,-1841.9103 845.8007,-1835.5135 845.8007,-1835.5135"/>
<text text-anchor="start" x="842.9415" y="-1847.5" font-family="Arial" font-size="10.00" fill="#000000">FOREIGN KEY (editor) REFERENCES actor.usr(id) DEFERRABLE INITIALLY DEFERRED</text>
</g>
<!-- acq.lineitem_alert_text -->
<g id="node4" class="node">
<title>acq.lineitem_alert_text</title>
<polygon fill="#efefef" stroke="transparent" points="960,-837.5 960,-872.5 1281,-872.5 1281,-837.5 960,-837.5"/>
<polygon fill="none" stroke="#000000" points="960,-837.5 960,-872.5 1281,-872.5 1281,-837.5 960,-837.5"/>
<text text-anchor="start" x="966.6989" y="-850.3" font-family="Arial Bold" font-size="18.00" fill="#000000">acq.lineitem_alert_text</text>
<text text-anchor="start" x="1146.7331" y="-850.3" font-family="Arial" font-size="14.00" fill="#000000">    </text>
<text text-anchor="start" x="1180.9379" y="-850.3" font-family="Arial" font-size="14.00" fill="#666666">[BASE TABLE]</text>
<polygon fill="none" stroke="#000000" points="960,-807.5 960,-837.5 1281,-837.5 1281,-807.5 960,-807.5"/>
<text text-anchor="start" x="967" y="-818.9" font-family="Arial" font-size="14.00" fill="#000000">id    </text>
<text text-anchor="start" x="1012.094" y="-818.9" font-family="Arial" font-size="14.00" fill="#666666">[integer]</text>
<polygon fill="none" stroke="#000000" points="960,-777.5 960,-807.5 1281,-807.5 1281,-777.5 960,-777.5"/>
<text text-anchor="start" x="967" y="-788.9" font-family="Arial" font-size="14.00" fill="#000000">code    </text>
<text text-anchor="start" x="1031.5526" y="-788.9" font-family="Arial" font-size="14.00" fill="#666666">[text]</text>
<polygon fill="none" stroke="#000000" points="960,-747.5 960,-777.5 1281,-777.5 1281,-747.5 960,-747.5"/>
<text text-anchor="start" x="967" y="-758.9" font-family="Arial" font-size="14.00" fill="#000000">description    </text>
<text text-anchor="start" x="1068.8822" y="-758.9" font-family="Arial" font-size="14.00" fill="#666666">[text]</text>
<polygon fill="none" stroke="#000000" points="960,-717.5 960,-747.5 1281,-747.5 1281,-717.5 960,-717.5"/>
<text text-anchor="start" x="967" y="-728.9" font-family="Arial" font-size="14.00" fill="#000000">owning_lib    </text>
<text text-anchor="start" x="1067.3268" y="-728.9" font-family="Arial" font-size="14.00" fill="#666666">[integer]</text>
</g>
<!-- acq.lineitem_note&#45;&gt;acq.lineitem_alert_text -->
<g id="edge4" class="edge">
<title>acq.lineitem_note:alert_text&#45;&gt;acq.lineitem_alert_text:id</title>
<path fill="none" stroke="#000000" d="M846.2395,-1716.8894C899.2197,-1710.1776 889.5992,-1649.2783 907,-1591 931.4877,-1508.986 874.4083,-822.5 960,-822.5"/>
<polygon fill="#000000" stroke="#000000" points="845.9823,-1716.9046 835.7321,-1713.008 840.9911,-1717.2023 836,-1717.5 836,-1717.5 836,-1717.5 840.9911,-1717.2023 836.2679,-1721.992 845.9823,-1716.9046 845.9823,-1716.9046"/>
<text text-anchor="start" x="843.32" y="-1727.5" font-family="Arial" font-size="10.00" fill="#000000">FOREIGN KEY (alert_text) REFERENCES acq.lineitem_alert_text(id) DEFERRABLE INITIALLY DEFERRED</text>
</g>
</g>
</svg>
