<?xml version="1.0" encoding="UTF-8" standalone="no"?>
<!DOCTYPE svg PUBLIC "-//W3C//DTD SVG 1.1//EN"
 "http://www.w3.org/Graphics/SVG/1.1/DTD/svg11.dtd">
<!-- Generated by graphviz version 2.40.1 (20161225.0304)
 -->
<!-- Title: acq.invoice_method Pages: 1 -->
<svg width="685pt" height="742pt"
 viewBox="0.00 0.00 684.50 742.00" xmlns="http://www.w3.org/2000/svg" xmlns:xlink="http://www.w3.org/1999/xlink">
<g id="graph0" class="graph" transform="scale(1 1) rotate(0) translate(4 738)">
<title>acq.invoice_method</title>
<polygon fill="#ffffff" stroke="transparent" points="-4,4 -4,-738 680.5,-738 680.5,4 -4,4"/>
<!-- acq.invoice_method -->
<g id="node1" class="node">
<title>acq.invoice_method</title>
<polygon fill="#efefef" stroke="transparent" points="330,-105.5 330,-140.5 631,-140.5 631,-105.5 330,-105.5"/>
<polygon fill="none" stroke="#000000" points="330,-105.5 330,-140.5 631,-140.5 631,-105.5 330,-105.5"/>
<text text-anchor="start" x="336.6925" y="-118.3" font-family="Arial Bold" font-size="18.00" fill="#000000">acq.invoice_method</text>
<text text-anchor="start" x="496.7395" y="-118.3" font-family="Arial" font-size="14.00" fill="#000000">    </text>
<text text-anchor="start" x="530.9443" y="-118.3" font-family="Arial" font-size="14.00" fill="#666666">[BASE TABLE]</text>
<polygon fill="none" stroke="#000000" points="330,-75.5 330,-105.5 631,-105.5 631,-75.5 330,-75.5"/>
<text text-anchor="start" x="337" y="-86.9" font-family="Arial" font-size="14.00" fill="#000000">code </text>
<text text-anchor="start" x="371.2384" y="-86.9" font-family="Arial" font-size="14.00" fill="#666666">[text]</text>
<polygon fill="none" stroke="#000000" points="330,-45.5 330,-75.5 631,-75.5 631,-45.5 330,-45.5"/>
<text text-anchor="start" x="337" y="-56.9" font-family="Arial" font-size="14.00" fill="#000000">name </text>
<text text-anchor="start" x="375.899" y="-56.9" font-family="Arial" font-size="14.00" fill="#666666">[text]</text>
<polygon fill="none" stroke="#000000" stroke-width="3" points="328,-44.5 328,-142.5 632,-142.5 632,-44.5 328,-44.5"/>
</g>
<!-- acq.invoice -->
<g id="node2" class="node">
<title>acq.invoice</title>
<polygon fill="#efefef" stroke="transparent" points="340,-655.5 340,-690.5 621,-690.5 621,-655.5 340,-655.5"/>
<polygon fill="none" stroke="#000000" points="340,-655.5 340,-690.5 621,-690.5 621,-655.5 340,-655.5"/>
<text text-anchor="start" x="371.7052" y="-668.3" font-family="Arial Bold" font-size="18.00" fill="#000000">acq.invoice</text>
<text text-anchor="start" x="461.7268" y="-668.3" font-family="Arial" font-size="14.00" fill="#000000">    </text>
<text text-anchor="start" x="495.9316" y="-668.3" font-family="Arial" font-size="14.00" fill="#666666">[BASE TABLE]</text>
<polygon fill="none" stroke="#000000" points="340,-625.5 340,-655.5 621,-655.5 621,-625.5 340,-625.5"/>
<text text-anchor="start" x="347" y="-636.9" font-family="Arial" font-size="14.00" fill="#000000">id    </text>
<text text-anchor="start" x="392.094" y="-636.9" font-family="Arial" font-size="14.00" fill="#666666">[integer]</text>
<polygon fill="none" stroke="#000000" points="340,-595.5 340,-625.5 621,-625.5 621,-595.5 340,-595.5"/>
<text text-anchor="start" x="347" y="-606.9" font-family="Arial" font-size="14.00" fill="#000000">receiver    </text>
<text text-anchor="start" x="430.9804" y="-606.9" font-family="Arial" font-size="14.00" fill="#666666">[integer]</text>
<polygon fill="none" stroke="#000000" points="340,-565.5 340,-595.5 621,-595.5 621,-565.5 340,-565.5"/>
<text text-anchor="start" x="347" y="-576.9" font-family="Arial" font-size="14.00" fill="#000000">provider    </text>
<text text-anchor="start" x="431.763" y="-576.9" font-family="Arial" font-size="14.00" fill="#666666">[integer]</text>
<polygon fill="none" stroke="#000000" points="340,-535.5 340,-565.5 621,-565.5 621,-535.5 340,-535.5"/>
<text text-anchor="start" x="347" y="-546.9" font-family="Arial" font-size="14.00" fill="#000000">shipper    </text>
<text text-anchor="start" x="427.1024" y="-546.9" font-family="Arial" font-size="14.00" fill="#666666">[integer]</text>
<polygon fill="none" stroke="#000000" points="340,-505.5 340,-535.5 621,-535.5 621,-505.5 340,-505.5"/>
<text text-anchor="start" x="347" y="-516.9" font-family="Arial" font-size="14.00" fill="#000000">recv_date    </text>
<text text-anchor="start" x="442.669" y="-516.9" font-family="Arial" font-size="14.00" fill="#666666">[timestamp with time zone]</text>
<polygon fill="none" stroke="#000000" points="340,-475.5 340,-505.5 621,-505.5 621,-475.5 340,-475.5"/>
<text text-anchor="start" x="347" y="-486.9" font-family="Arial" font-size="14.00" fill="#000000">recv_method    </text>
<text text-anchor="start" x="462.1122" y="-486.9" font-family="Arial" font-size="14.00" fill="#666666">[text]</text>
<polygon fill="none" stroke="#000000" points="340,-445.5 340,-475.5 621,-475.5 621,-445.5 340,-445.5"/>
<text text-anchor="start" x="347" y="-456.9" font-family="Arial" font-size="14.00" fill="#000000">inv_type    </text>
<text text-anchor="start" x="433.3324" y="-456.9" font-family="Arial" font-size="14.00" fill="#666666">[text]</text>
<polygon fill="none" stroke="#000000" points="340,-415.5 340,-445.5 621,-445.5 621,-415.5 340,-415.5"/>
<text text-anchor="start" x="347" y="-426.9" font-family="Arial" font-size="14.00" fill="#000000">inv_ident    </text>
<text text-anchor="start" x="437.2216" y="-426.9" font-family="Arial" font-size="14.00" fill="#666666">[text]</text>
<polygon fill="none" stroke="#000000" points="340,-385.5 340,-415.5 621,-415.5 621,-385.5 340,-385.5"/>
<text text-anchor="start" x="347" y="-396.9" font-family="Arial" font-size="14.00" fill="#000000">payment_auth    </text>
<text text-anchor="start" x="469.9074" y="-396.9" font-family="Arial" font-size="14.00" fill="#666666">[text]</text>
<polygon fill="none" stroke="#000000" points="340,-355.5 340,-385.5 621,-385.5 621,-355.5 340,-355.5"/>
<text text-anchor="start" x="347" y="-366.9" font-family="Arial" font-size="14.00" fill="#000000">payment_method    </text>
<text text-anchor="start" x="489.3506" y="-366.9" font-family="Arial" font-size="14.00" fill="#666666">[text]</text>
<polygon fill="none" stroke="#000000" points="340,-325.5 340,-355.5 621,-355.5 621,-325.5 340,-325.5"/>
<text text-anchor="start" x="347" y="-336.9" font-family="Arial" font-size="14.00" fill="#000000">note    </text>
<text text-anchor="start" x="408.4432" y="-336.9" font-family="Arial" font-size="14.00" fill="#666666">[text]</text>
<polygon fill="none" stroke="#000000" points="340,-295.5 340,-325.5 621,-325.5 621,-295.5 340,-295.5"/>
<text text-anchor="start" x="346.709" y="-306.9" font-family="Arial" font-size="14.00" fill="#000000">close_date    </text>
<text text-anchor="start" x="448.6066" y="-306.9" font-family="Arial" font-size="14.00" fill="#666666">[timestamp with time zone]</text>
<polygon fill="none" stroke="#000000" points="340,-265.5 340,-295.5 621,-295.5 621,-265.5 340,-265.5"/>
<text text-anchor="start" x="347" y="-276.9" font-family="Arial" font-size="14.00" fill="#000000">closed_by    </text>
<text text-anchor="start" x="444.2244" y="-276.9" font-family="Arial" font-size="14.00" fill="#666666">[integer]</text>
</g>
<!-- acq.invoice&#45;&gt;acq.invoice_method -->
<g id="edge1" class="edge">
<title>acq.invoice:recv_method&#45;&gt;acq.invoice_method:code</title>
<path fill="none" stroke="#000000" d="M329.9425,-488.7166C250.453,-459.8604 244.5566,-90.5 330,-90.5"/>
<polygon fill="#000000" stroke="#000000" points="330.1536,-488.754 339.2143,-494.9309 335.0768,-489.627 340,-490.5 340,-490.5 340,-490.5 335.0768,-489.627 340.7857,-486.0691 330.1536,-488.754 330.1536,-488.754"/>
<text text-anchor="start" x="6.6475" y="-500.5" font-family="Arial" font-size="10.00" fill="#000000">FOREIGN KEY (recv_method) REFERENCES acq.invoice_method(code)</text>
</g>
</g>
</svg>
