<?xml version="1.0" encoding="UTF-8" standalone="no"?>
<!DOCTYPE svg PUBLIC "-//W3C//DTD SVG 1.1//EN"
 "http://www.w3.org/Graphics/SVG/1.1/DTD/svg11.dtd">
<!-- Generated by graphviz version 2.40.1 (20161225.0304)
 -->
<!-- Title: acq.serial_claim_event Pages: 1 -->
<svg width="1254pt" height="1942pt"
 viewBox="0.00 0.00 1254.00 1942.00" xmlns="http://www.w3.org/2000/svg" xmlns:xlink="http://www.w3.org/1999/xlink">
<g id="graph0" class="graph" transform="scale(1 1) rotate(0) translate(4 1938)">
<title>acq.serial_claim_event</title>
<polygon fill="#ffffff" stroke="transparent" points="-4,4 -4,-1938 1250,-1938 1250,4 -4,4"/>
<!-- acq.serial_claim_event -->
<g id="node1" class="node">
<title>acq.serial_claim_event</title>
<polygon fill="#efefef" stroke="transparent" points="471,-1852.5 471,-1887.5 795,-1887.5 795,-1852.5 471,-1852.5"/>
<polygon fill="none" stroke="#000000" points="471,-1852.5 471,-1887.5 795,-1887.5 795,-1852.5 471,-1852.5"/>
<text text-anchor="start" x="477.7022" y="-1865.3" font-family="Arial Bold" font-size="18.00" fill="#000000">acq.serial_claim_event</text>
<text text-anchor="start" x="660.7298" y="-1865.3" font-family="Arial" font-size="14.00" fill="#000000">    </text>
<text text-anchor="start" x="694.9346" y="-1865.3" font-family="Arial" font-size="14.00" fill="#666666">[BASE TABLE]</text>
<polygon fill="none" stroke="#000000" points="471,-1822.5 471,-1852.5 795,-1852.5 795,-1822.5 471,-1822.5"/>
<text text-anchor="start" x="478" y="-1833.9" font-family="Arial" font-size="14.00" fill="#000000">id </text>
<text text-anchor="start" x="492.7798" y="-1833.9" font-family="Arial" font-size="14.00" fill="#666666">[bigint]</text>
<polygon fill="none" stroke="#000000" points="471,-1792.5 471,-1822.5 795,-1822.5 795,-1792.5 471,-1792.5"/>
<text text-anchor="start" x="478" y="-1803.9" font-family="Arial" font-size="14.00" fill="#000000">type </text>
<text text-anchor="start" x="508.3464" y="-1803.9" font-family="Arial" font-size="14.00" fill="#666666">[integer]</text>
<polygon fill="none" stroke="#000000" points="471,-1762.5 471,-1792.5 795,-1792.5 795,-1762.5 471,-1762.5"/>
<text text-anchor="start" x="478" y="-1773.9" font-family="Arial" font-size="14.00" fill="#000000">claim </text>
<text text-anchor="start" x="514.547" y="-1773.9" font-family="Arial" font-size="14.00" fill="#666666">[integer]</text>
<polygon fill="none" stroke="#000000" points="471,-1732.5 471,-1762.5 795,-1762.5 795,-1732.5 471,-1732.5"/>
<text text-anchor="start" x="478" y="-1743.9" font-family="Arial" font-size="14.00" fill="#000000">event_date </text>
<text text-anchor="start" x="551.15" y="-1743.9" font-family="Arial" font-size="14.00" fill="#666666">[timestamp with time zone]</text>
<polygon fill="none" stroke="#000000" points="471,-1702.5 471,-1732.5 795,-1732.5 795,-1702.5 471,-1702.5"/>
<text text-anchor="start" x="478" y="-1713.9" font-family="Arial" font-size="14.00" fill="#000000">creator </text>
<text text-anchor="start" x="525.4502" y="-1713.9" font-family="Arial" font-size="14.00" fill="#666666">[integer]</text>
<polygon fill="none" stroke="#000000" points="471,-1672.5 471,-1702.5 795,-1702.5 795,-1672.5 471,-1672.5"/>
<text text-anchor="start" x="478" y="-1683.9" font-family="Arial" font-size="14.00" fill="#000000">note </text>
<text text-anchor="start" x="509.129" y="-1683.9" font-family="Arial" font-size="14.00" fill="#666666">[text]</text>
<polygon fill="none" stroke="#000000" stroke-width="3" points="469.5,-1671.5 469.5,-1889.5 796.5,-1889.5 796.5,-1671.5 469.5,-1671.5"/>
</g>
<!-- acq.claim_event_type -->
<g id="node2" class="node">
<title>acq.claim_event_type</title>
<polygon fill="#efefef" stroke="transparent" points="79,-852.5 79,-887.5 394,-887.5 394,-852.5 79,-852.5"/>
<polygon fill="none" stroke="#000000" points="79,-852.5 79,-887.5 394,-887.5 394,-852.5 79,-852.5"/>
<text text-anchor="start" x="85.6914" y="-865.3" font-family="Arial Bold" font-size="18.00" fill="#000000">acq.claim_event_type</text>
<text text-anchor="start" x="259.7406" y="-865.3" font-family="Arial" font-size="14.00" fill="#000000">    </text>
<text text-anchor="start" x="293.9454" y="-865.3" font-family="Arial" font-size="14.00" fill="#666666">[BASE TABLE]</text>
<polygon fill="none" stroke="#000000" points="79,-822.5 79,-852.5 394,-852.5 394,-822.5 79,-822.5"/>
<text text-anchor="start" x="86" y="-833.9" font-family="Arial" font-size="14.00" fill="#000000">id    </text>
<text text-anchor="start" x="131.094" y="-833.9" font-family="Arial" font-size="14.00" fill="#666666">[integer]</text>
<polygon fill="none" stroke="#000000" points="79,-792.5 79,-822.5 394,-822.5 394,-792.5 79,-792.5"/>
<text text-anchor="start" x="86" y="-803.9" font-family="Arial" font-size="14.00" fill="#000000">org_unit    </text>
<text text-anchor="start" x="170.7756" y="-803.9" font-family="Arial" font-size="14.00" fill="#666666">[integer]</text>
<polygon fill="none" stroke="#000000" points="79,-762.5 79,-792.5 394,-792.5 394,-762.5 79,-762.5"/>
<text text-anchor="start" x="86" y="-773.9" font-family="Arial" font-size="14.00" fill="#000000">code    </text>
<text text-anchor="start" x="150.5526" y="-773.9" font-family="Arial" font-size="14.00" fill="#666666">[text]</text>
<polygon fill="none" stroke="#000000" points="79,-732.5 79,-762.5 394,-762.5 394,-732.5 79,-732.5"/>
<text text-anchor="start" x="86" y="-743.9" font-family="Arial" font-size="14.00" fill="#000000">description    </text>
<text text-anchor="start" x="187.8822" y="-743.9" font-family="Arial" font-size="14.00" fill="#666666">[text]</text>
<polygon fill="none" stroke="#000000" points="79,-702.5 79,-732.5 394,-732.5 394,-702.5 79,-702.5"/>
<text text-anchor="start" x="86" y="-713.9" font-family="Arial" font-size="14.00" fill="#000000">library_initiated    </text>
<text text-anchor="start" x="214.3184" y="-713.9" font-family="Arial" font-size="14.00" fill="#666666">[boolean]</text>
</g>
<!-- acq.serial_claim_event&#45;&gt;acq.claim_event_type -->
<g id="edge1" class="edge">
<title>acq.serial_claim_event:type&#45;&gt;acq.claim_event_type:id</title>
<path fill="none" stroke="#000000" d="M461.3014,-1804.5427C371.6003,-1745.9879 498.6326,-837.5 394,-837.5"/>
<polygon fill="#000000" stroke="#000000" points="461.4348,-1804.5833 469.6875,-1811.8044 466.2174,-1806.0417 471,-1807.5 471,-1807.5 471,-1807.5 466.2174,-1806.0417 472.3125,-1803.1956 461.4348,-1804.5833 461.4348,-1804.5833"/>
<text text-anchor="start" x="7.0945" y="-1817.5" font-family="Arial" font-size="10.00" fill="#000000">FOREIGN KEY (type) REFERENCES acq.claim_event_type(id) DEFERRABLE INITIALLY DEFERRED</text>
</g>
<!-- acq.serial_claim -->
<g id="node3" class="node">
<title>acq.serial_claim</title>
<polygon fill="#efefef" stroke="transparent" points="498,-822.5 498,-857.5 768,-857.5 768,-822.5 498,-822.5"/>
<polygon fill="none" stroke="#000000" points="498,-822.5 498,-857.5 768,-857.5 768,-822.5 498,-822.5"/>
<text text-anchor="start" x="504.7157" y="-835.3" font-family="Arial Bold" font-size="18.00" fill="#000000">acq.serial_claim</text>
<text text-anchor="start" x="633.7163" y="-835.3" font-family="Arial" font-size="14.00" fill="#000000">    </text>
<text text-anchor="start" x="667.9211" y="-835.3" font-family="Arial" font-size="14.00" fill="#666666">[BASE TABLE]</text>
<polygon fill="none" stroke="#000000" points="498,-792.5 498,-822.5 768,-822.5 768,-792.5 498,-792.5"/>
<text text-anchor="start" x="505" y="-803.9" font-family="Arial" font-size="14.00" fill="#000000">id    </text>
<text text-anchor="start" x="550.094" y="-803.9" font-family="Arial" font-size="14.00" fill="#666666">[integer]</text>
<polygon fill="none" stroke="#000000" points="498,-762.5 498,-792.5 768,-792.5 768,-762.5 498,-762.5"/>
<text text-anchor="start" x="505" y="-773.9" font-family="Arial" font-size="14.00" fill="#000000">type    </text>
<text text-anchor="start" x="565.6606" y="-773.9" font-family="Arial" font-size="14.00" fill="#666666">[integer]</text>
<polygon fill="none" stroke="#000000" points="498,-732.5 498,-762.5 768,-762.5 768,-732.5 498,-732.5"/>
<text text-anchor="start" x="505" y="-743.9" font-family="Arial" font-size="14.00" fill="#000000">item    </text>
<text text-anchor="start" x="565.6452" y="-743.9" font-family="Arial" font-size="14.00" fill="#666666">[bigint]</text>
</g>
<!-- acq.serial_claim_event&#45;&gt;acq.serial_claim -->
<g id="edge2" class="edge">
<title>acq.serial_claim_event:claim&#45;&gt;acq.serial_claim:id</title>
<path fill="none" stroke="#000000" d="M799.1322,-1768.2106C818.8437,-1668.9428 793.4018,-807.5 768,-807.5"/>
<polygon fill="#000000" stroke="#000000" points="799.0644,-1768.3632 790.8884,-1775.671 797.0322,-1772.9316 795,-1777.5 795,-1777.5 795,-1777.5 797.0322,-1772.9316 799.1116,-1779.329 799.0644,-1768.3632 799.0644,-1768.3632"/>
<text text-anchor="start" x="802.3935" y="-1787.5" font-family="Arial" font-size="10.00" fill="#000000">FOREIGN KEY (claim) REFERENCES acq.serial_claim(id) DEFERRABLE INITIALLY DEFERRED</text>
</g>
<!-- actor.usr -->
<g id="node4" class="node">
<title>actor.usr</title>
<polygon fill="#efefef" stroke="transparent" points="872,-1512.5 872,-1547.5 1192,-1547.5 1192,-1512.5 872,-1512.5"/>
<polygon fill="none" stroke="#000000" points="872,-1512.5 872,-1547.5 1192,-1547.5 1192,-1512.5 872,-1512.5"/>
<text text-anchor="start" x="933.2123" y="-1525.3" font-family="Arial Bold" font-size="18.00" fill="#000000">actor.usr</text>
<text text-anchor="start" x="1003.2197" y="-1525.3" font-family="Arial" font-size="14.00" fill="#000000">    </text>
<text text-anchor="start" x="1037.4245" y="-1525.3" font-family="Arial" font-size="14.00" fill="#666666">[BASE TABLE]</text>
<polygon fill="none" stroke="#000000" points="872,-1482.5 872,-1512.5 1192,-1512.5 1192,-1482.5 872,-1482.5"/>
<text text-anchor="start" x="879" y="-1493.9" font-family="Arial" font-size="14.00" fill="#000000">id    </text>
<text text-anchor="start" x="924.094" y="-1493.9" font-family="Arial" font-size="14.00" fill="#666666">[integer]</text>
<polygon fill="none" stroke="#000000" points="872,-1452.5 872,-1482.5 1192,-1482.5 1192,-1452.5 872,-1452.5"/>
<text text-anchor="start" x="879" y="-1463.9" font-family="Arial" font-size="14.00" fill="#000000">card    </text>
<text text-anchor="start" x="940.4306" y="-1463.9" font-family="Arial" font-size="14.00" fill="#666666">[integer]</text>
<polygon fill="none" stroke="#000000" points="872,-1422.5 872,-1452.5 1192,-1452.5 1192,-1422.5 872,-1422.5"/>
<text text-anchor="start" x="879" y="-1433.9" font-family="Arial" font-size="14.00" fill="#000000">profile    </text>
<text text-anchor="start" x="951.317" y="-1433.9" font-family="Arial" font-size="14.00" fill="#666666">[integer]</text>
<polygon fill="none" stroke="#000000" points="872,-1392.5 872,-1422.5 1192,-1422.5 1192,-1392.5 872,-1392.5"/>
<text text-anchor="start" x="879" y="-1403.9" font-family="Arial" font-size="14.00" fill="#000000">usrname    </text>
<text text-anchor="start" x="967.6564" y="-1403.9" font-family="Arial" font-size="14.00" fill="#666666">[text]</text>
<polygon fill="none" stroke="#000000" points="872,-1362.5 872,-1392.5 1192,-1392.5 1192,-1362.5 872,-1362.5"/>
<text text-anchor="start" x="879" y="-1373.9" font-family="Arial" font-size="14.00" fill="#000000">email    </text>
<text text-anchor="start" x="946.6438" y="-1373.9" font-family="Arial" font-size="14.00" fill="#666666">[text]</text>
<polygon fill="none" stroke="#000000" points="872,-1332.5 872,-1362.5 1192,-1362.5 1192,-1332.5 872,-1332.5"/>
<text text-anchor="start" x="879" y="-1343.9" font-family="Arial" font-size="14.00" fill="#000000">passwd    </text>
<text text-anchor="start" x="960.6592" y="-1343.9" font-family="Arial" font-size="14.00" fill="#666666">[text]</text>
<polygon fill="none" stroke="#000000" points="872,-1302.5 872,-1332.5 1192,-1332.5 1192,-1302.5 872,-1302.5"/>
<text text-anchor="start" x="879" y="-1313.9" font-family="Arial" font-size="14.00" fill="#000000">standing    </text>
<text text-anchor="start" x="966.115" y="-1313.9" font-family="Arial" font-size="14.00" fill="#666666">[integer]</text>
<polygon fill="none" stroke="#000000" points="872,-1272.5 872,-1302.5 1192,-1302.5 1192,-1272.5 872,-1272.5"/>
<text text-anchor="start" x="879" y="-1283.9" font-family="Arial" font-size="14.00" fill="#000000">ident_type    </text>
<text text-anchor="start" x="977.7882" y="-1283.9" font-family="Arial" font-size="14.00" fill="#666666">[integer]</text>
<polygon fill="none" stroke="#000000" points="872,-1242.5 872,-1272.5 1192,-1272.5 1192,-1242.5 872,-1242.5"/>
<text text-anchor="start" x="879" y="-1253.9" font-family="Arial" font-size="14.00" fill="#000000">ident_value    </text>
<text text-anchor="start" x="984.7868" y="-1253.9" font-family="Arial" font-size="14.00" fill="#666666">[text]</text>
<polygon fill="none" stroke="#000000" points="872,-1212.5 872,-1242.5 1192,-1242.5 1192,-1212.5 872,-1212.5"/>
<text text-anchor="start" x="879" y="-1223.9" font-family="Arial" font-size="14.00" fill="#000000">ident_type2    </text>
<text text-anchor="start" x="985.5708" y="-1223.9" font-family="Arial" font-size="14.00" fill="#666666">[integer]</text>
<polygon fill="none" stroke="#000000" points="872,-1182.5 872,-1212.5 1192,-1212.5 1192,-1182.5 872,-1182.5"/>
<text text-anchor="start" x="879" y="-1193.9" font-family="Arial" font-size="14.00" fill="#000000">ident_value2    </text>
<text text-anchor="start" x="992.5694" y="-1193.9" font-family="Arial" font-size="14.00" fill="#666666">[text]</text>
<polygon fill="none" stroke="#000000" points="872,-1152.5 872,-1182.5 1192,-1182.5 1192,-1152.5 872,-1152.5"/>
<text text-anchor="start" x="879" y="-1163.9" font-family="Arial" font-size="14.00" fill="#000000">net_access_level    </text>
<text text-anchor="start" x="1020.5694" y="-1163.9" font-family="Arial" font-size="14.00" fill="#666666">[integer]</text>
<polygon fill="none" stroke="#000000" points="872,-1122.5 872,-1152.5 1192,-1152.5 1192,-1122.5 872,-1122.5"/>
<text text-anchor="start" x="879" y="-1133.9" font-family="Arial" font-size="14.00" fill="#000000">photo_url    </text>
<text text-anchor="start" x="971.5582" y="-1133.9" font-family="Arial" font-size="14.00" fill="#666666">[text]</text>
<polygon fill="none" stroke="#000000" points="872,-1092.5 872,-1122.5 1192,-1122.5 1192,-1092.5 872,-1092.5"/>
<text text-anchor="start" x="879" y="-1103.9" font-family="Arial" font-size="14.00" fill="#000000">prefix    </text>
<text text-anchor="start" x="947.4278" y="-1103.9" font-family="Arial" font-size="14.00" fill="#666666">[text]</text>
<polygon fill="none" stroke="#000000" points="872,-1062.5 872,-1092.5 1192,-1092.5 1192,-1062.5 872,-1062.5"/>
<text text-anchor="start" x="879" y="-1073.9" font-family="Arial" font-size="14.00" fill="#000000">first_given_name    </text>
<text text-anchor="start" x="1019.7812" y="-1073.9" font-family="Arial" font-size="14.00" fill="#666666">[text]</text>
<polygon fill="none" stroke="#000000" points="872,-1032.5 872,-1062.5 1192,-1062.5 1192,-1032.5 872,-1032.5"/>
<text text-anchor="start" x="879" y="-1043.9" font-family="Arial" font-size="14.00" fill="#000000">second_given_name    </text>
<text text-anchor="start" x="1042.3632" y="-1043.9" font-family="Arial" font-size="14.00" fill="#666666">[text]</text>
<polygon fill="none" stroke="#000000" points="872,-1002.5 872,-1032.5 1192,-1032.5 1192,-1002.5 872,-1002.5"/>
<text text-anchor="start" x="879" y="-1013.9" font-family="Arial" font-size="14.00" fill="#000000">family_name    </text>
<text text-anchor="start" x="992.5428" y="-1013.9" font-family="Arial" font-size="14.00" fill="#666666">[text]</text>
<polygon fill="none" stroke="#000000" points="872,-972.5 872,-1002.5 1192,-1002.5 1192,-972.5 872,-972.5"/>
<text text-anchor="start" x="879" y="-983.9" font-family="Arial" font-size="14.00" fill="#000000">suffix    </text>
<text text-anchor="start" x="945.8752" y="-983.9" font-family="Arial" font-size="14.00" fill="#666666">[text]</text>
<polygon fill="none" stroke="#000000" points="872,-942.5 872,-972.5 1192,-972.5 1192,-942.5 872,-942.5"/>
<text text-anchor="start" x="879" y="-953.9" font-family="Arial" font-size="14.00" fill="#000000">alias    </text>
<text text-anchor="start" x="941.9832" y="-953.9" font-family="Arial" font-size="14.00" fill="#666666">[text]</text>
<polygon fill="none" stroke="#000000" points="872,-912.5 872,-942.5 1192,-942.5 1192,-912.5 872,-912.5"/>
<text text-anchor="start" x="879" y="-923.9" font-family="Arial" font-size="14.00" fill="#000000">day_phone    </text>
<text text-anchor="start" x="982.4656" y="-923.9" font-family="Arial" font-size="14.00" fill="#666666">[text]</text>
<polygon fill="none" stroke="#000000" points="872,-882.5 872,-912.5 1192,-912.5 1192,-882.5 872,-882.5"/>
<text text-anchor="start" x="879" y="-893.9" font-family="Arial" font-size="14.00" fill="#000000">evening_phone    </text>
<text text-anchor="start" x="1008.92" y="-893.9" font-family="Arial" font-size="14.00" fill="#666666">[text]</text>
<polygon fill="none" stroke="#000000" points="872,-852.5 872,-882.5 1192,-882.5 1192,-852.5 872,-852.5"/>
<text text-anchor="start" x="879" y="-863.9" font-family="Arial" font-size="14.00" fill="#000000">other_phone    </text>
<text text-anchor="start" x="991.7994" y="-863.9" font-family="Arial" font-size="14.00" fill="#666666">[text]</text>
<polygon fill="none" stroke="#000000" points="872,-822.5 872,-852.5 1192,-852.5 1192,-822.5 872,-822.5"/>
<text text-anchor="start" x="879" y="-833.9" font-family="Arial" font-size="14.00" fill="#000000">mailing_address    </text>
<text text-anchor="start" x="1015.1066" y="-833.9" font-family="Arial" font-size="14.00" fill="#666666">[integer]</text>
<polygon fill="none" stroke="#000000" points="872,-792.5 872,-822.5 1192,-822.5 1192,-792.5 872,-792.5"/>
<text text-anchor="start" x="879" y="-803.9" font-family="Arial" font-size="14.00" fill="#000000">billing_address    </text>
<text text-anchor="start" x="1006.5526" y="-803.9" font-family="Arial" font-size="14.00" fill="#666666">[integer]</text>
<polygon fill="none" stroke="#000000" points="872,-762.5 872,-792.5 1192,-792.5 1192,-762.5 872,-762.5"/>
<text text-anchor="start" x="879" y="-773.9" font-family="Arial" font-size="14.00" fill="#000000">home_ou    </text>
<text text-anchor="start" x="971.561" y="-773.9" font-family="Arial" font-size="14.00" fill="#666666">[integer]</text>
<polygon fill="none" stroke="#000000" points="872,-732.5 872,-762.5 1192,-762.5 1192,-732.5 872,-732.5"/>
<text text-anchor="start" x="879" y="-743.9" font-family="Arial" font-size="14.00" fill="#000000">dob    </text>
<text text-anchor="start" x="936.5526" y="-743.9" font-family="Arial" font-size="14.00" fill="#666666">[date]</text>
<polygon fill="none" stroke="#000000" points="872,-702.5 872,-732.5 1192,-732.5 1192,-702.5 872,-702.5"/>
<text text-anchor="start" x="879" y="-713.9" font-family="Arial" font-size="14.00" fill="#000000">active    </text>
<text text-anchor="start" x="949.7672" y="-713.9" font-family="Arial" font-size="14.00" fill="#666666">[boolean]</text>
<polygon fill="none" stroke="#000000" points="872,-672.5 872,-702.5 1192,-702.5 1192,-672.5 872,-672.5"/>
<text text-anchor="start" x="879" y="-683.9" font-family="Arial" font-size="14.00" fill="#000000">master_account    </text>
<text text-anchor="start" x="1012.7854" y="-683.9" font-family="Arial" font-size="14.00" fill="#666666">[boolean]</text>
<polygon fill="none" stroke="#000000" points="872,-642.5 872,-672.5 1192,-672.5 1192,-642.5 872,-642.5"/>
<text text-anchor="start" x="879" y="-653.9" font-family="Arial" font-size="14.00" fill="#000000">super_user    </text>
<text text-anchor="start" x="983.2216" y="-653.9" font-family="Arial" font-size="14.00" fill="#666666">[boolean]</text>
<polygon fill="none" stroke="#000000" points="872,-612.5 872,-642.5 1192,-642.5 1192,-612.5 872,-612.5"/>
<text text-anchor="start" x="879" y="-623.9" font-family="Arial" font-size="14.00" fill="#000000">barred    </text>
<text text-anchor="start" x="953.6564" y="-623.9" font-family="Arial" font-size="14.00" fill="#666666">[boolean]</text>
<polygon fill="none" stroke="#000000" points="872,-582.5 872,-612.5 1192,-612.5 1192,-582.5 872,-582.5"/>
<text text-anchor="start" x="879" y="-593.9" font-family="Arial" font-size="14.00" fill="#000000">deleted    </text>
<text text-anchor="start" x="959.115" y="-593.9" font-family="Arial" font-size="14.00" fill="#666666">[boolean]</text>
<polygon fill="none" stroke="#000000" points="872,-552.5 872,-582.5 1192,-582.5 1192,-552.5 872,-552.5"/>
<text text-anchor="start" x="879" y="-563.9" font-family="Arial" font-size="14.00" fill="#000000">juvenile    </text>
<text text-anchor="start" x="960.655" y="-563.9" font-family="Arial" font-size="14.00" fill="#666666">[boolean]</text>
<polygon fill="none" stroke="#000000" points="872,-522.5 872,-552.5 1192,-552.5 1192,-522.5 872,-522.5"/>
<text text-anchor="start" x="879" y="-533.9" font-family="Arial" font-size="14.00" fill="#000000">usrgroup    </text>
<text text-anchor="start" x="968.439" y="-533.9" font-family="Arial" font-size="14.00" fill="#666666">[integer]</text>
<polygon fill="none" stroke="#000000" points="872,-492.5 872,-522.5 1192,-522.5 1192,-492.5 872,-492.5"/>
<text text-anchor="start" x="879" y="-503.9" font-family="Arial" font-size="14.00" fill="#000000">claims_returned_count    </text>
<text text-anchor="start" x="1054.7896" y="-503.9" font-family="Arial" font-size="14.00" fill="#666666">[integer]</text>
<polygon fill="none" stroke="#000000" points="872,-462.5 872,-492.5 1192,-492.5 1192,-462.5 872,-462.5"/>
<text text-anchor="start" x="879" y="-473.9" font-family="Arial" font-size="14.00" fill="#000000">credit_forward_balance    </text>
<text text-anchor="start" x="1058.6788" y="-473.9" font-family="Arial" font-size="14.00" fill="#666666">[numeric(6,2)]</text>
<polygon fill="none" stroke="#000000" points="872,-432.5 872,-462.5 1192,-462.5 1192,-432.5 872,-432.5"/>
<text text-anchor="start" x="879" y="-443.9" font-family="Arial" font-size="14.00" fill="#000000">last_xact_id    </text>
<text text-anchor="start" x="987.1122" y="-443.9" font-family="Arial" font-size="14.00" fill="#666666">[text]</text>
<polygon fill="none" stroke="#000000" points="872,-402.5 872,-432.5 1192,-432.5 1192,-402.5 872,-402.5"/>
<text text-anchor="start" x="879" y="-413.9" font-family="Arial" font-size="14.00" fill="#000000">alert_message    </text>
<text text-anchor="start" x="1005.0014" y="-413.9" font-family="Arial" font-size="14.00" fill="#666666">[text]</text>
<polygon fill="none" stroke="#000000" points="872,-372.5 872,-402.5 1192,-402.5 1192,-372.5 872,-372.5"/>
<text text-anchor="start" x="879" y="-383.9" font-family="Arial" font-size="14.00" fill="#000000">create_date    </text>
<text text-anchor="start" x="987.1248" y="-383.9" font-family="Arial" font-size="14.00" fill="#666666">[timestamp with time zone]</text>
<polygon fill="none" stroke="#000000" points="872,-342.5 872,-372.5 1192,-372.5 1192,-342.5 872,-342.5"/>
<text text-anchor="start" x="879" y="-353.9" font-family="Arial" font-size="14.00" fill="#000000">expire_date    </text>
<text text-anchor="start" x="986.3408" y="-353.9" font-family="Arial" font-size="14.00" fill="#666666">[timestamp with time zone]</text>
<polygon fill="none" stroke="#000000" points="872,-312.5 872,-342.5 1192,-342.5 1192,-312.5 872,-312.5"/>
<text text-anchor="start" x="879" y="-323.9" font-family="Arial" font-size="14.00" fill="#000000">claims_never_checked_out_count    </text>
<text text-anchor="start" x="1124.8246" y="-323.9" font-family="Arial" font-size="14.00" fill="#666666">[integer]</text>
<polygon fill="none" stroke="#000000" points="872,-282.5 872,-312.5 1192,-312.5 1192,-282.5 872,-282.5"/>
<text text-anchor="start" x="878.7609" y="-293.9" font-family="Arial" font-size="14.00" fill="#000000">last_update_time    </text>
<text text-anchor="start" x="1019.5547" y="-293.9" font-family="Arial" font-size="14.00" fill="#666666">[timestamp with time zone]</text>
<polygon fill="none" stroke="#000000" points="872,-252.5 872,-282.5 1192,-282.5 1192,-252.5 872,-252.5"/>
<text text-anchor="start" x="879" y="-263.9" font-family="Arial" font-size="14.00" fill="#000000">pref_prefix    </text>
<text text-anchor="start" x="979.3268" y="-263.9" font-family="Arial" font-size="14.00" fill="#666666">[text]</text>
<polygon fill="none" stroke="#000000" points="872,-222.5 872,-252.5 1192,-252.5 1192,-222.5 872,-222.5"/>
<text text-anchor="start" x="879" y="-233.9" font-family="Arial" font-size="14.00" fill="#000000">pref_first_given_name    </text>
<text text-anchor="start" x="1051.6802" y="-233.9" font-family="Arial" font-size="14.00" fill="#666666">[text]</text>
<polygon fill="none" stroke="#000000" points="872,-192.5 872,-222.5 1192,-222.5 1192,-192.5 872,-192.5"/>
<text text-anchor="start" x="879" y="-203.9" font-family="Arial" font-size="14.00" fill="#000000">pref_second_given_name    </text>
<text text-anchor="start" x="1074.2622" y="-203.9" font-family="Arial" font-size="14.00" fill="#666666">[text]</text>
<polygon fill="none" stroke="#000000" points="872,-162.5 872,-192.5 1192,-192.5 1192,-162.5 872,-162.5"/>
<text text-anchor="start" x="879" y="-173.9" font-family="Arial" font-size="14.00" fill="#000000">pref_family_name    </text>
<text text-anchor="start" x="1024.4418" y="-173.9" font-family="Arial" font-size="14.00" fill="#666666">[text]</text>
<polygon fill="none" stroke="#000000" points="872,-132.5 872,-162.5 1192,-162.5 1192,-132.5 872,-132.5"/>
<text text-anchor="start" x="879" y="-143.9" font-family="Arial" font-size="14.00" fill="#000000">pref_suffix    </text>
<text text-anchor="start" x="977.7742" y="-143.9" font-family="Arial" font-size="14.00" fill="#666666">[text]</text>
<polygon fill="none" stroke="#000000" points="872,-102.5 872,-132.5 1192,-132.5 1192,-102.5 872,-102.5"/>
<text text-anchor="start" x="879" y="-113.9" font-family="Arial" font-size="14.00" fill="#000000">name_keywords    </text>
<text text-anchor="start" x="1015.1108" y="-113.9" font-family="Arial" font-size="14.00" fill="#666666">[text]</text>
<polygon fill="none" stroke="#000000" points="872,-72.5 872,-102.5 1192,-102.5 1192,-72.5 872,-72.5"/>
<text text-anchor="start" x="879" y="-83.9" font-family="Arial" font-size="14.00" fill="#000000">name_kw_tsvector    </text>
<text text-anchor="start" x="1029.892" y="-83.9" font-family="Arial" font-size="14.00" fill="#666666">[tsvector]</text>
<polygon fill="none" stroke="#000000" points="872,-42.5 872,-72.5 1192,-72.5 1192,-42.5 872,-42.5"/>
<text text-anchor="start" x="879" y="-53.9" font-family="Arial" font-size="14.00" fill="#000000">guardian    </text>
<text text-anchor="start" x="967.6676" y="-53.9" font-family="Arial" font-size="14.00" fill="#666666">[text]</text>
</g>
<!-- acq.serial_claim_event&#45;&gt;actor.usr -->
<g id="edge3" class="edge">
<title>acq.serial_claim_event:creator&#45;&gt;actor.usr:id</title>
<path fill="none" stroke="#000000" d="M805.0794,-1716.7034C889.7288,-1702.3032 772.0483,-1497.5 872,-1497.5"/>
<polygon fill="#000000" stroke="#000000" points="804.9689,-1716.712 794.6454,-1713.014 799.9845,-1717.106 795,-1717.5 795,-1717.5 795,-1717.5 799.9845,-1717.106 795.3546,-1721.986 804.9689,-1716.712 804.9689,-1716.712"/>
<text text-anchor="start" x="801.8865" y="-1727.5" font-family="Arial" font-size="10.00" fill="#000000">FOREIGN KEY (creator) REFERENCES actor.usr(id) DEFERRABLE INITIALLY DEFERRED</text>
</g>
</g>
</svg>
