<?xml version="1.0" encoding="UTF-8" standalone="no"?>
<!DOCTYPE svg PUBLIC "-//W3C//DTD SVG 1.1//EN"
 "http://www.w3.org/Graphics/SVG/1.1/DTD/svg11.dtd">
<!-- Generated by graphviz version 2.40.1 (20161225.0304)
 -->
<!-- Title: acq.debit_attribution Pages: 1 -->
<svg width="1350pt" height="742pt"
 viewBox="0.00 0.00 1350.00 742.00" xmlns="http://www.w3.org/2000/svg" xmlns:xlink="http://www.w3.org/1999/xlink">
<g id="graph0" class="graph" transform="scale(1 1) rotate(0) translate(4 738)">
<title>acq.debit_attribution</title>
<polygon fill="#ffffff" stroke="transparent" points="-4,4 -4,-738 1346,-738 1346,4 -4,4"/>
<!-- acq.debit_attribution -->
<g id="node1" class="node">
<title>acq.debit_attribution</title>
<polygon fill="#efefef" stroke="transparent" points="468,-652.5 468,-687.5 771,-687.5 771,-652.5 468,-652.5"/>
<polygon fill="none" stroke="#000000" points="468,-652.5 468,-687.5 771,-687.5 771,-652.5 468,-652.5"/>
<text text-anchor="start" x="474.689" y="-665.3" font-family="Arial Bold" font-size="18.00" fill="#000000">acq.debit_attribution</text>
<text text-anchor="start" x="636.743" y="-665.3" font-family="Arial" font-size="14.00" fill="#000000">    </text>
<text text-anchor="start" x="670.9478" y="-665.3" font-family="Arial" font-size="14.00" fill="#666666">[BASE TABLE]</text>
<polygon fill="none" stroke="#000000" points="468,-622.5 468,-652.5 771,-652.5 771,-622.5 468,-622.5"/>
<text text-anchor="start" x="475" y="-633.9" font-family="Arial" font-size="14.00" fill="#000000">id </text>
<text text-anchor="start" x="489.7798" y="-633.9" font-family="Arial" font-size="14.00" fill="#666666">[integer]</text>
<polygon fill="none" stroke="#000000" points="468,-592.5 468,-622.5 771,-622.5 771,-592.5 468,-592.5"/>
<text text-anchor="start" x="475" y="-603.9" font-family="Arial" font-size="14.00" fill="#000000">fund_debit </text>
<text text-anchor="start" x="544.2566" y="-603.9" font-family="Arial" font-size="14.00" fill="#666666">[integer]</text>
<polygon fill="none" stroke="#000000" points="468,-562.5 468,-592.5 771,-592.5 771,-562.5 468,-562.5"/>
<text text-anchor="start" x="475" y="-573.9" font-family="Arial" font-size="14.00" fill="#000000">debit_amount </text>
<text text-anchor="start" x="563.6998" y="-573.9" font-family="Arial" font-size="14.00" fill="#666666">[numeric]</text>
<polygon fill="none" stroke="#000000" points="468,-532.5 468,-562.5 771,-562.5 771,-532.5 468,-532.5"/>
<text text-anchor="start" x="475" y="-543.9" font-family="Arial" font-size="14.00" fill="#000000">funding_source_credit </text>
<text text-anchor="start" x="616.5974" y="-543.9" font-family="Arial" font-size="14.00" fill="#666666">[integer]</text>
<polygon fill="none" stroke="#000000" points="468,-502.5 468,-532.5 771,-532.5 771,-502.5 468,-502.5"/>
<text text-anchor="start" x="475" y="-513.9" font-family="Arial" font-size="14.00" fill="#000000">credit_amount </text>
<text text-anchor="start" x="567.5778" y="-513.9" font-family="Arial" font-size="14.00" fill="#666666">[numeric]</text>
<polygon fill="none" stroke="#000000" stroke-width="3" points="466,-501.5 466,-689.5 772,-689.5 772,-501.5 466,-501.5"/>
</g>
<!-- acq.fund_debit -->
<g id="node2" class="node">
<title>acq.fund_debit</title>
<polygon fill="#efefef" stroke="transparent" points="265,-342.5 265,-377.5 552,-377.5 552,-342.5 265,-342.5"/>
<polygon fill="none" stroke="#000000" points="265,-342.5 265,-377.5 552,-377.5 552,-342.5 265,-342.5"/>
<text text-anchor="start" x="285.6877" y="-355.3" font-family="Arial Bold" font-size="18.00" fill="#000000">acq.fund_debit</text>
<text text-anchor="start" x="403.7443" y="-355.3" font-family="Arial" font-size="14.00" fill="#000000">    </text>
<text text-anchor="start" x="437.9491" y="-355.3" font-family="Arial" font-size="14.00" fill="#666666">[BASE TABLE]</text>
<polygon fill="none" stroke="#000000" points="265,-312.5 265,-342.5 552,-342.5 552,-312.5 265,-312.5"/>
<text text-anchor="start" x="272" y="-323.9" font-family="Arial" font-size="14.00" fill="#000000">id    </text>
<text text-anchor="start" x="317.094" y="-323.9" font-family="Arial" font-size="14.00" fill="#666666">[integer]</text>
<polygon fill="none" stroke="#000000" points="265,-282.5 265,-312.5 552,-312.5 552,-282.5 265,-282.5"/>
<text text-anchor="start" x="272" y="-293.9" font-family="Arial" font-size="14.00" fill="#000000">fund    </text>
<text text-anchor="start" x="333.4432" y="-293.9" font-family="Arial" font-size="14.00" fill="#666666">[integer]</text>
<polygon fill="none" stroke="#000000" points="265,-252.5 265,-282.5 552,-282.5 552,-252.5 265,-252.5"/>
<text text-anchor="start" x="272" y="-263.9" font-family="Arial" font-size="14.00" fill="#000000">origin_amount    </text>
<text text-anchor="start" x="394.8906" y="-263.9" font-family="Arial" font-size="14.00" fill="#666666">[numeric]</text>
<polygon fill="none" stroke="#000000" points="265,-222.5 265,-252.5 552,-252.5 552,-222.5 265,-222.5"/>
<text text-anchor="start" x="272" y="-233.9" font-family="Arial" font-size="14.00" fill="#000000">origin_currency_type    </text>
<text text-anchor="start" x="436.1164" y="-233.9" font-family="Arial" font-size="14.00" fill="#666666">[text]</text>
<polygon fill="none" stroke="#000000" points="265,-192.5 265,-222.5 552,-222.5 552,-192.5 265,-192.5"/>
<text text-anchor="start" x="272" y="-203.9" font-family="Arial" font-size="14.00" fill="#000000">amount    </text>
<text text-anchor="start" x="352.8864" y="-203.9" font-family="Arial" font-size="14.00" fill="#666666">[numeric]</text>
<polygon fill="none" stroke="#000000" points="265,-162.5 265,-192.5 552,-192.5 552,-162.5 265,-162.5"/>
<text text-anchor="start" x="272" y="-173.9" font-family="Arial" font-size="14.00" fill="#000000">encumbrance    </text>
<text text-anchor="start" x="391.0042" y="-173.9" font-family="Arial" font-size="14.00" fill="#666666">[boolean]</text>
<polygon fill="none" stroke="#000000" points="265,-132.5 265,-162.5 552,-162.5 552,-132.5 265,-132.5"/>
<text text-anchor="start" x="272" y="-143.9" font-family="Arial" font-size="14.00" fill="#000000">debit_type    </text>
<text text-anchor="start" x="370.7882" y="-143.9" font-family="Arial" font-size="14.00" fill="#666666">[text]</text>
<polygon fill="none" stroke="#000000" points="265,-102.5 265,-132.5 552,-132.5 552,-102.5 265,-102.5"/>
<text text-anchor="start" x="272" y="-113.9" font-family="Arial" font-size="14.00" fill="#000000">xfer_destination    </text>
<text text-anchor="start" x="405.0112" y="-113.9" font-family="Arial" font-size="14.00" fill="#666666">[integer]</text>
<polygon fill="none" stroke="#000000" points="265,-72.5 265,-102.5 552,-102.5 552,-72.5 265,-72.5"/>
<text text-anchor="start" x="271.9944" y="-83.9" font-family="Arial" font-size="14.00" fill="#000000">create_time    </text>
<text text-anchor="start" x="379.3212" y="-83.9" font-family="Arial" font-size="14.00" fill="#666666">[timestamp with time zone]</text>
<polygon fill="none" stroke="#000000" points="265,-42.5 265,-72.5 552,-72.5 552,-42.5 265,-42.5"/>
<text text-anchor="start" x="272" y="-53.9" font-family="Arial" font-size="14.00" fill="#000000">invoice_entry    </text>
<text text-anchor="start" x="388.6648" y="-53.9" font-family="Arial" font-size="14.00" fill="#666666">[integer]</text>
</g>
<!-- acq.debit_attribution&#45;&gt;acq.fund_debit -->
<g id="edge1" class="edge">
<title>acq.debit_attribution:fund_debit&#45;&gt;acq.fund_debit:id</title>
<path fill="none" stroke="#000000" d="M457.8812,-606.6725C404.4199,-597.2628 433.192,-509.7878 468,-457 490.3595,-423.0909 529.6405,-454.9091 552,-421 574.876,-386.3077 593.5556,-327.5 552,-327.5"/>
<polygon fill="#000000" stroke="#000000" points="458.0333,-606.6849 467.6332,-611.985 463.0166,-607.0924 468,-607.5 468,-607.5 468,-607.5 463.0166,-607.0924 468.3668,-603.015 458.0333,-606.6849 458.0333,-606.6849"/>
<text text-anchor="start" x="6.7515" y="-617.5" font-family="Arial" font-size="10.00" fill="#000000">FOREIGN KEY (fund_debit) REFERENCES acq.fund_debit(id) DEFERRABLE INITIALLY DEFERRED</text>
</g>
<!-- acq.funding_source_credit -->
<g id="node3" class="node">
<title>acq.funding_source_credit</title>
<polygon fill="#efefef" stroke="transparent" points="656,-282.5 656,-317.5 1008,-317.5 1008,-282.5 656,-282.5"/>
<polygon fill="none" stroke="#000000" points="656,-282.5 656,-317.5 1008,-317.5 1008,-282.5 656,-282.5"/>
<text text-anchor="start" x="662.6829" y="-295.3" font-family="Arial Bold" font-size="18.00" fill="#000000">acq.funding_source_credit</text>
<text text-anchor="start" x="873.7491" y="-295.3" font-family="Arial" font-size="14.00" fill="#000000">    </text>
<text text-anchor="start" x="907.9539" y="-295.3" font-family="Arial" font-size="14.00" fill="#666666">[BASE TABLE]</text>
<polygon fill="none" stroke="#000000" points="656,-252.5 656,-282.5 1008,-282.5 1008,-252.5 656,-252.5"/>
<text text-anchor="start" x="663" y="-263.9" font-family="Arial" font-size="14.00" fill="#000000">id    </text>
<text text-anchor="start" x="708.094" y="-263.9" font-family="Arial" font-size="14.00" fill="#666666">[integer]</text>
<polygon fill="none" stroke="#000000" points="656,-222.5 656,-252.5 1008,-252.5 1008,-222.5 656,-222.5"/>
<text text-anchor="start" x="663" y="-233.9" font-family="Arial" font-size="14.00" fill="#000000">funding_source    </text>
<text text-anchor="start" x="792.906" y="-233.9" font-family="Arial" font-size="14.00" fill="#666666">[integer]</text>
<polygon fill="none" stroke="#000000" points="656,-192.5 656,-222.5 1008,-222.5 1008,-192.5 656,-192.5"/>
<text text-anchor="start" x="663" y="-203.9" font-family="Arial" font-size="14.00" fill="#000000">amount    </text>
<text text-anchor="start" x="743.8864" y="-203.9" font-family="Arial" font-size="14.00" fill="#666666">[numeric]</text>
<polygon fill="none" stroke="#000000" points="656,-162.5 656,-192.5 1008,-192.5 1008,-162.5 656,-162.5"/>
<text text-anchor="start" x="663" y="-173.9" font-family="Arial" font-size="14.00" fill="#000000">note    </text>
<text text-anchor="start" x="724.4432" y="-173.9" font-family="Arial" font-size="14.00" fill="#666666">[text]</text>
<polygon fill="none" stroke="#000000" points="656,-132.5 656,-162.5 1008,-162.5 1008,-132.5 656,-132.5"/>
<text text-anchor="start" x="663" y="-143.9" font-family="Arial" font-size="14.00" fill="#000000">deadline_date    </text>
<text text-anchor="start" x="785.1346" y="-143.9" font-family="Arial" font-size="14.00" fill="#666666">[timestamp with time zone]</text>
<polygon fill="none" stroke="#000000" points="656,-102.5 656,-132.5 1008,-132.5 1008,-102.5 656,-102.5"/>
<text text-anchor="start" x="663" y="-113.9" font-family="Arial" font-size="14.00" fill="#000000">effective_date    </text>
<text text-anchor="start" x="784.352" y="-113.9" font-family="Arial" font-size="14.00" fill="#666666">[timestamp with time zone]</text>
</g>
<!-- acq.debit_attribution&#45;&gt;acq.funding_source_credit -->
<g id="edge2" class="edge">
<title>acq.debit_attribution:funding_source_credit&#45;&gt;acq.funding_source_credit:id</title>
<path fill="none" stroke="#000000" d="M781.0347,-546.0199C806.7539,-537.1081 786.3804,-489.8743 771,-457 742.7858,-396.6945 684.2142,-421.3055 656,-361 638.3901,-323.3602 614.4444,-267.5 656,-267.5"/>
<polygon fill="#000000" stroke="#000000" points="780.893,-546.0407 770.3433,-543.0482 775.9465,-546.7704 771,-547.5 771,-547.5 771,-547.5 775.9465,-546.7704 771.6567,-551.9518 780.893,-546.0407 780.893,-546.0407"/>
<text text-anchor="start" x="778.0795" y="-557.5" font-family="Arial" font-size="10.00" fill="#000000">FOREIGN KEY (funding_source_credit) REFERENCES acq.funding_source_credit(id) DEFERRABLE INITIALLY DEFERRED</text>
</g>
</g>
</svg>
