<?xml version="1.0" encoding="UTF-8" standalone="no"?>
<!DOCTYPE svg PUBLIC "-//W3C//DTD SVG 1.1//EN"
 "http://www.w3.org/Graphics/SVG/1.1/DTD/svg11.dtd">
<!-- Generated by graphviz version 2.40.1 (20161225.0304)
 -->
<!-- Title: acq.lineitem_attr Pages: 1 -->
<svg width="911pt" height="1042pt"
 viewBox="0.00 0.00 910.50 1042.00" xmlns="http://www.w3.org/2000/svg" xmlns:xlink="http://www.w3.org/1999/xlink">
<g id="graph0" class="graph" transform="scale(1 1) rotate(0) translate(4 1038)">
<title>acq.lineitem_attr</title>
<polygon fill="#ffffff" stroke="transparent" points="-4,4 -4,-1038 906.5,-1038 906.5,4 -4,4"/>
<!-- acq.lineitem_attr -->
<g id="node1" class="node">
<title>acq.lineitem_attr</title>
<polygon fill="#efefef" stroke="transparent" points="554,-952.5 554,-987.5 827,-987.5 827,-952.5 554,-952.5"/>
<polygon fill="none" stroke="#000000" points="554,-952.5 554,-987.5 827,-987.5 827,-952.5 554,-952.5"/>
<text text-anchor="start" x="560.7064" y="-965.3" font-family="Arial Bold" font-size="18.00" fill="#000000">acq.lineitem_attr</text>
<text text-anchor="start" x="692.7256" y="-965.3" font-family="Arial" font-size="14.00" fill="#000000">    </text>
<text text-anchor="start" x="726.9304" y="-965.3" font-family="Arial" font-size="14.00" fill="#666666">[BASE TABLE]</text>
<polygon fill="none" stroke="#000000" points="554,-922.5 554,-952.5 827,-952.5 827,-922.5 554,-922.5"/>
<text text-anchor="start" x="561" y="-933.9" font-family="Arial" font-size="14.00" fill="#000000">id </text>
<text text-anchor="start" x="575.7798" y="-933.9" font-family="Arial" font-size="14.00" fill="#666666">[bigint]</text>
<polygon fill="none" stroke="#000000" points="554,-892.5 554,-922.5 827,-922.5 827,-892.5 554,-892.5"/>
<text text-anchor="start" x="561" y="-903.9" font-family="Arial" font-size="14.00" fill="#000000">definition </text>
<text text-anchor="start" x="620.9046" y="-903.9" font-family="Arial" font-size="14.00" fill="#666666">[bigint]</text>
<polygon fill="none" stroke="#000000" points="554,-862.5 554,-892.5 827,-892.5 827,-862.5 554,-862.5"/>
<text text-anchor="start" x="561" y="-873.9" font-family="Arial" font-size="14.00" fill="#000000">lineitem </text>
<text text-anchor="start" x="613.1094" y="-873.9" font-family="Arial" font-size="14.00" fill="#666666">[bigint]</text>
<polygon fill="none" stroke="#000000" points="554,-832.5 554,-862.5 827,-862.5 827,-832.5 554,-832.5"/>
<text text-anchor="start" x="561" y="-843.9" font-family="Arial" font-size="14.00" fill="#000000">attr_type </text>
<text text-anchor="start" x="619.3534" y="-843.9" font-family="Arial" font-size="14.00" fill="#666666">[text]</text>
<polygon fill="none" stroke="#000000" points="554,-802.5 554,-832.5 827,-832.5 827,-802.5 554,-802.5"/>
<text text-anchor="start" x="561" y="-813.9" font-family="Arial" font-size="14.00" fill="#000000">attr_name </text>
<text text-anchor="start" x="627.906" y="-813.9" font-family="Arial" font-size="14.00" fill="#666666">[text]</text>
<polygon fill="none" stroke="#000000" points="554,-772.5 554,-802.5 827,-802.5 827,-772.5 554,-772.5"/>
<text text-anchor="start" x="561" y="-783.9" font-family="Arial" font-size="14.00" fill="#000000">attr_value </text>
<text text-anchor="start" x="626.352" y="-783.9" font-family="Arial" font-size="14.00" fill="#666666">[text]</text>
<polygon fill="none" stroke="#000000" points="554,-742.5 554,-772.5 827,-772.5 827,-742.5 554,-742.5"/>
<text text-anchor="start" x="561" y="-753.9" font-family="Arial" font-size="14.00" fill="#000000">order_ident </text>
<text text-anchor="start" x="635.6872" y="-753.9" font-family="Arial" font-size="14.00" fill="#666666">[boolean]</text>
<polygon fill="none" stroke="#000000" stroke-width="3" points="552,-741.5 552,-989.5 828,-989.5 828,-741.5 552,-741.5"/>
</g>
<!-- acq.lineitem -->
<g id="node2" class="node">
<title>acq.lineitem</title>
<polygon fill="#efefef" stroke="transparent" points="521,-582.5 521,-617.5 860,-617.5 860,-582.5 521,-582.5"/>
<polygon fill="none" stroke="#000000" points="521,-582.5 521,-617.5 860,-617.5 860,-582.5 521,-582.5"/>
<text text-anchor="start" x="578.7109" y="-595.3" font-family="Arial Bold" font-size="18.00" fill="#000000">acq.lineitem</text>
<text text-anchor="start" x="674.7211" y="-595.3" font-family="Arial" font-size="14.00" fill="#000000">    </text>
<text text-anchor="start" x="708.9259" y="-595.3" font-family="Arial" font-size="14.00" fill="#666666">[BASE TABLE]</text>
<polygon fill="none" stroke="#000000" points="521,-552.5 521,-582.5 860,-582.5 860,-552.5 521,-552.5"/>
<text text-anchor="start" x="528" y="-563.9" font-family="Arial" font-size="14.00" fill="#000000">id    </text>
<text text-anchor="start" x="573.094" y="-563.9" font-family="Arial" font-size="14.00" fill="#666666">[bigint]</text>
<polygon fill="none" stroke="#000000" points="521,-522.5 521,-552.5 860,-552.5 860,-522.5 521,-522.5"/>
<text text-anchor="start" x="528" y="-533.9" font-family="Arial" font-size="14.00" fill="#000000">creator    </text>
<text text-anchor="start" x="605.7644" y="-533.9" font-family="Arial" font-size="14.00" fill="#666666">[integer]</text>
<polygon fill="none" stroke="#000000" points="521,-492.5 521,-522.5 860,-522.5 860,-492.5 521,-492.5"/>
<text text-anchor="start" x="528" y="-503.9" font-family="Arial" font-size="14.00" fill="#000000">editor    </text>
<text text-anchor="start" x="597.2104" y="-503.9" font-family="Arial" font-size="14.00" fill="#666666">[integer]</text>
<polygon fill="none" stroke="#000000" points="521,-462.5 521,-492.5 860,-492.5 860,-462.5 521,-462.5"/>
<text text-anchor="start" x="528" y="-473.9" font-family="Arial" font-size="14.00" fill="#000000">selector    </text>
<text text-anchor="start" x="611.2104" y="-473.9" font-family="Arial" font-size="14.00" fill="#666666">[integer]</text>
<polygon fill="none" stroke="#000000" points="521,-432.5 521,-462.5 860,-462.5 860,-432.5 521,-432.5"/>
<text text-anchor="start" x="528" y="-443.9" font-family="Arial" font-size="14.00" fill="#000000">provider    </text>
<text text-anchor="start" x="612.763" y="-443.9" font-family="Arial" font-size="14.00" fill="#666666">[integer]</text>
<polygon fill="none" stroke="#000000" points="521,-402.5 521,-432.5 860,-432.5 860,-402.5 521,-402.5"/>
<text text-anchor="start" x="528" y="-413.9" font-family="Arial" font-size="14.00" fill="#000000">purchase_order    </text>
<text text-anchor="start" x="660.23" y="-413.9" font-family="Arial" font-size="14.00" fill="#666666">[integer]</text>
<polygon fill="none" stroke="#000000" points="521,-372.5 521,-402.5 860,-402.5 860,-372.5 521,-372.5"/>
<text text-anchor="start" x="528" y="-383.9" font-family="Arial" font-size="14.00" fill="#000000">picklist    </text>
<text text-anchor="start" x="604.1978" y="-383.9" font-family="Arial" font-size="14.00" fill="#666666">[integer]</text>
<polygon fill="none" stroke="#000000" points="521,-342.5 521,-372.5 860,-372.5 860,-342.5 521,-342.5"/>
<text text-anchor="start" x="527.9292" y="-353.9" font-family="Arial" font-size="14.00" fill="#000000">expected_recv_time    </text>
<text text-anchor="start" x="687.3864" y="-353.9" font-family="Arial" font-size="14.00" fill="#666666">[timestamp with time zone]</text>
<polygon fill="none" stroke="#000000" points="521,-312.5 521,-342.5 860,-342.5 860,-312.5 521,-312.5"/>
<text text-anchor="start" x="528" y="-323.9" font-family="Arial" font-size="14.00" fill="#000000">create_time    </text>
<text text-anchor="start" x="635.3268" y="-323.9" font-family="Arial" font-size="14.00" fill="#666666">[timestamp with time zone]</text>
<polygon fill="none" stroke="#000000" points="521,-282.5 521,-312.5 860,-312.5 860,-282.5 521,-282.5"/>
<text text-anchor="start" x="528" y="-293.9" font-family="Arial" font-size="14.00" fill="#000000">edit_time    </text>
<text text-anchor="start" x="618.9902" y="-293.9" font-family="Arial" font-size="14.00" fill="#666666">[timestamp with time zone]</text>
<polygon fill="none" stroke="#000000" points="521,-252.5 521,-282.5 860,-282.5 860,-252.5 521,-252.5"/>
<text text-anchor="start" x="528" y="-263.9" font-family="Arial" font-size="14.00" fill="#000000">marc    </text>
<text text-anchor="start" x="593.3086" y="-263.9" font-family="Arial" font-size="14.00" fill="#666666">[text]</text>
<polygon fill="none" stroke="#000000" points="521,-222.5 521,-252.5 860,-252.5 860,-222.5 521,-222.5"/>
<text text-anchor="start" x="528" y="-233.9" font-family="Arial" font-size="14.00" fill="#000000">eg_bib_id    </text>
<text text-anchor="start" x="622.8962" y="-233.9" font-family="Arial" font-size="14.00" fill="#666666">[bigint]</text>
<polygon fill="none" stroke="#000000" points="521,-192.5 521,-222.5 860,-222.5 860,-192.5 521,-192.5"/>
<text text-anchor="start" x="528" y="-203.9" font-family="Arial" font-size="14.00" fill="#000000">source_label    </text>
<text text-anchor="start" x="641.5568" y="-203.9" font-family="Arial" font-size="14.00" fill="#666666">[text]</text>
<polygon fill="none" stroke="#000000" points="521,-162.5 521,-192.5 860,-192.5 860,-162.5 521,-162.5"/>
<text text-anchor="start" x="528" y="-173.9" font-family="Arial" font-size="14.00" fill="#000000">state    </text>
<text text-anchor="start" x="592.5512" y="-173.9" font-family="Arial" font-size="14.00" fill="#666666">[text]</text>
<polygon fill="none" stroke="#000000" points="521,-132.5 521,-162.5 860,-162.5 860,-132.5 521,-132.5"/>
<text text-anchor="start" x="528" y="-143.9" font-family="Arial" font-size="14.00" fill="#000000">cancel_reason    </text>
<text text-anchor="start" x="653.2328" y="-143.9" font-family="Arial" font-size="14.00" fill="#666666">[integer]</text>
<polygon fill="none" stroke="#000000" points="521,-102.5 521,-132.5 860,-132.5 860,-102.5 521,-102.5"/>
<text text-anchor="start" x="528" y="-113.9" font-family="Arial" font-size="14.00" fill="#000000">estimated_unit_price    </text>
<text text-anchor="start" x="691.3436" y="-113.9" font-family="Arial" font-size="14.00" fill="#666666">[numeric]</text>
<polygon fill="none" stroke="#000000" points="521,-72.5 521,-102.5 860,-102.5 860,-72.5 521,-72.5"/>
<text text-anchor="start" x="528" y="-83.9" font-family="Arial" font-size="14.00" fill="#000000">claim_policy    </text>
<text text-anchor="start" x="638.4222" y="-83.9" font-family="Arial" font-size="14.00" fill="#666666">[integer]</text>
<polygon fill="none" stroke="#000000" points="521,-42.5 521,-72.5 860,-72.5 860,-42.5 521,-42.5"/>
<text text-anchor="start" x="528" y="-53.9" font-family="Arial" font-size="14.00" fill="#000000">queued_record    </text>
<text text-anchor="start" x="656.352" y="-53.9" font-family="Arial" font-size="14.00" fill="#666666">[bigint]</text>
</g>
<!-- acq.lineitem_attr&#45;&gt;acq.lineitem -->
<g id="edge1" class="edge">
<title>acq.lineitem_attr:lineitem&#45;&gt;acq.lineitem:id</title>
<path fill="none" stroke="#000000" d="M544.119,-875.3549C481.7431,-847.9657 455.1046,-567.5 521,-567.5"/>
<polygon fill="#000000" stroke="#000000" points="544.2276,-875.3784 553.0453,-881.8976 549.1138,-876.4392 554,-877.5 554,-877.5 554,-877.5 549.1138,-876.4392 554.9547,-873.1024 544.2276,-875.3784 544.2276,-875.3784"/>
<text text-anchor="start" x="6.7185" y="-887.5" font-family="Arial" font-size="10.00" fill="#000000">FOREIGN KEY (lineitem) REFERENCES acq.lineitem(id) ON DELETE CASCADE DEFERRABLE INITIALLY DEFERRED</text>
</g>
</g>
</svg>
