<?xml version="1.0" encoding="UTF-8" standalone="no"?>
<!DOCTYPE svg PUBLIC "-//W3C//DTD SVG 1.1//EN"
 "http://www.w3.org/Graphics/SVG/1.1/DTD/svg11.dtd">
<!-- Generated by graphviz version 2.40.1 (20161225.0304)
 -->
<!-- Title: acq.edi_attr Pages: 1 -->
<svg width="749pt" height="442pt"
 viewBox="0.00 0.00 749.00 442.00" xmlns="http://www.w3.org/2000/svg" xmlns:xlink="http://www.w3.org/1999/xlink">
<g id="graph0" class="graph" transform="scale(1 1) rotate(0) translate(4 438)">
<title>acq.edi_attr</title>
<polygon fill="#ffffff" stroke="transparent" points="-4,4 -4,-438 745,-438 745,4 -4,4"/>
<!-- acq.edi_attr -->
<g id="node1" class="node">
<title>acq.edi_attr</title>
<polygon fill="#efefef" stroke="transparent" points="423,-105.5 423,-140.5 658,-140.5 658,-105.5 423,-105.5"/>
<polygon fill="none" stroke="#000000" points="423,-105.5 423,-140.5 658,-140.5 658,-105.5 423,-105.5"/>
<text text-anchor="start" x="429.7009" y="-118.3" font-family="Arial Bold" font-size="18.00" fill="#000000">acq.edi_attr</text>
<text text-anchor="start" x="523.7311" y="-118.3" font-family="Arial" font-size="14.00" fill="#000000">    </text>
<text text-anchor="start" x="557.9359" y="-118.3" font-family="Arial" font-size="14.00" fill="#666666">[BASE TABLE]</text>
<polygon fill="none" stroke="#000000" points="423,-75.5 423,-105.5 658,-105.5 658,-75.5 423,-75.5"/>
<text text-anchor="start" x="430" y="-86.9" font-family="Arial" font-size="14.00" fill="#000000">key </text>
<text text-anchor="start" x="455.6732" y="-86.9" font-family="Arial" font-size="14.00" fill="#666666">[text]</text>
<polygon fill="none" stroke="#000000" points="423,-45.5 423,-75.5 658,-75.5 658,-45.5 423,-45.5"/>
<text text-anchor="start" x="430" y="-56.9" font-family="Arial" font-size="14.00" fill="#000000">label </text>
<text text-anchor="start" x="463.4516" y="-56.9" font-family="Arial" font-size="14.00" fill="#666666">[text]</text>
<polygon fill="none" stroke="#000000" stroke-width="3" points="421,-44.5 421,-142.5 659,-142.5 659,-44.5 421,-44.5"/>
</g>
<!-- acq.edi_attr_set_map -->
<g id="node2" class="node">
<title>acq.edi_attr_set_map</title>
<polygon fill="#efefef" stroke="transparent" points="384,-355.5 384,-390.5 698,-390.5 698,-355.5 384,-355.5"/>
<polygon fill="none" stroke="#000000" points="384,-355.5 384,-390.5 698,-390.5 698,-355.5 384,-355.5"/>
<text text-anchor="start" x="390.6882" y="-368.3" font-family="Arial Bold" font-size="18.00" fill="#000000">acq.edi_attr_set_map</text>
<text text-anchor="start" x="563.7438" y="-368.3" font-family="Arial" font-size="14.00" fill="#000000">    </text>
<text text-anchor="start" x="597.9486" y="-368.3" font-family="Arial" font-size="14.00" fill="#666666">[BASE TABLE]</text>
<polygon fill="none" stroke="#000000" points="384,-325.5 384,-355.5 698,-355.5 698,-325.5 384,-325.5"/>
<text text-anchor="start" x="391" y="-336.9" font-family="Arial" font-size="14.00" fill="#000000">id    </text>
<text text-anchor="start" x="436.094" y="-336.9" font-family="Arial" font-size="14.00" fill="#666666">[integer]</text>
<polygon fill="none" stroke="#000000" points="384,-295.5 384,-325.5 698,-325.5 698,-295.5 384,-295.5"/>
<text text-anchor="start" x="391" y="-306.9" font-family="Arial" font-size="14.00" fill="#000000">attr_set    </text>
<text text-anchor="start" x="471.885" y="-306.9" font-family="Arial" font-size="14.00" fill="#666666">[integer]</text>
<polygon fill="none" stroke="#000000" points="384,-265.5 384,-295.5 698,-295.5 698,-265.5 384,-265.5"/>
<text text-anchor="start" x="391" y="-276.9" font-family="Arial" font-size="14.00" fill="#000000">attr    </text>
<text text-anchor="start" x="445.4292" y="-276.9" font-family="Arial" font-size="14.00" fill="#666666">[text]</text>
</g>
<!-- acq.edi_attr_set_map&#45;&gt;acq.edi_attr -->
<g id="edge1" class="edge">
<title>acq.edi_attr_set_map:attr&#45;&gt;acq.edi_attr:key</title>
<path fill="none" stroke="#000000" d="M541.8723,-255.5036C551.0585,-207.1695 630.2604,-239.0163 658,-187 678.1816,-149.1561 700.8889,-90.5 658,-90.5"/>
<polygon fill="#000000" stroke="#000000" points="541.8694,-255.5379 536.517,-265.1088 541.4347,-260.5189 541,-265.5 541,-265.5 541,-265.5 541.4347,-260.5189 545.483,-265.8912 541.8694,-255.5379 541.8694,-255.5379"/>
<text text-anchor="start" x="7.376" y="-275.5" font-family="Arial" font-size="10.00" fill="#000000">FOREIGN KEY (attr) REFERENCES acq.edi_attr(key) ON DELETE CASCADE DEFERRABLE INITIALLY DEFERRED</text>
</g>
</g>
</svg>
