<?xml version="1.0" encoding="UTF-8" standalone="no"?>
<!DOCTYPE svg PUBLIC "-//W3C//DTD SVG 1.1//EN"
 "http://www.w3.org/Graphics/SVG/1.1/DTD/svg11.dtd">
<!-- Generated by graphviz version 2.40.1 (20161225.0304)
 -->
<!-- Title: acq.fund_tag_map Pages: 1 -->
<svg width="1250pt" height="712pt"
 viewBox="0.00 0.00 1250.00 712.00" xmlns="http://www.w3.org/2000/svg" xmlns:xlink="http://www.w3.org/1999/xlink">
<g id="graph0" class="graph" transform="scale(1 1) rotate(0) translate(4 708)">
<title>acq.fund_tag_map</title>
<polygon fill="#ffffff" stroke="transparent" points="-4,4 -4,-708 1246,-708 1246,4 -4,4"/>
<!-- acq.fund_tag_map -->
<g id="node1" class="node">
<title>acq.fund_tag_map</title>
<polygon fill="#efefef" stroke="transparent" points="414,-622.5 414,-657.5 704,-657.5 704,-622.5 414,-622.5"/>
<polygon fill="none" stroke="#000000" points="414,-622.5 414,-657.5 704,-657.5 704,-622.5 414,-622.5"/>
<text text-anchor="start" x="420.6825" y="-635.3" font-family="Arial Bold" font-size="18.00" fill="#000000">acq.fund_tag_map</text>
<text text-anchor="start" x="569.7495" y="-635.3" font-family="Arial" font-size="14.00" fill="#000000">    </text>
<text text-anchor="start" x="603.9543" y="-635.3" font-family="Arial" font-size="14.00" fill="#666666">[BASE TABLE]</text>
<polygon fill="none" stroke="#000000" points="414,-592.5 414,-622.5 704,-622.5 704,-592.5 414,-592.5"/>
<text text-anchor="start" x="421" y="-603.9" font-family="Arial" font-size="14.00" fill="#000000">id </text>
<text text-anchor="start" x="435.7798" y="-603.9" font-family="Arial" font-size="14.00" fill="#666666">[integer]</text>
<polygon fill="none" stroke="#000000" points="414,-562.5 414,-592.5 704,-592.5 704,-562.5 414,-562.5"/>
<text text-anchor="start" x="421" y="-573.9" font-family="Arial" font-size="14.00" fill="#000000">fund </text>
<text text-anchor="start" x="452.129" y="-573.9" font-family="Arial" font-size="14.00" fill="#666666">[integer]</text>
<polygon fill="none" stroke="#000000" points="414,-532.5 414,-562.5 704,-562.5 704,-532.5 414,-532.5"/>
<text text-anchor="start" x="421" y="-543.9" font-family="Arial" font-size="14.00" fill="#000000">tag </text>
<text text-anchor="start" x="444.3464" y="-543.9" font-family="Arial" font-size="14.00" fill="#666666">[integer]</text>
<polygon fill="none" stroke="#000000" stroke-width="3" points="412.5,-531.5 412.5,-659.5 705.5,-659.5 705.5,-531.5 412.5,-531.5"/>
</g>
<!-- acq.fund -->
<g id="node2" class="node">
<title>acq.fund</title>
<polygon fill="#efefef" stroke="transparent" points="251,-372.5 251,-407.5 510,-407.5 510,-372.5 251,-372.5"/>
<polygon fill="none" stroke="#000000" points="251,-372.5 251,-407.5 510,-407.5 510,-372.5 251,-372.5"/>
<text text-anchor="start" x="282.1983" y="-385.3" font-family="Arial Bold" font-size="18.00" fill="#000000">acq.fund</text>
<text text-anchor="start" x="351.2337" y="-385.3" font-family="Arial" font-size="14.00" fill="#000000">    </text>
<text text-anchor="start" x="385.4385" y="-385.3" font-family="Arial" font-size="14.00" fill="#666666">[BASE TABLE]</text>
<polygon fill="none" stroke="#000000" points="251,-342.5 251,-372.5 510,-372.5 510,-342.5 251,-342.5"/>
<text text-anchor="start" x="258" y="-353.9" font-family="Arial" font-size="14.00" fill="#000000">id    </text>
<text text-anchor="start" x="303.094" y="-353.9" font-family="Arial" font-size="14.00" fill="#666666">[integer]</text>
<polygon fill="none" stroke="#000000" points="251,-312.5 251,-342.5 510,-342.5 510,-312.5 251,-312.5"/>
<text text-anchor="start" x="258" y="-323.9" font-family="Arial" font-size="14.00" fill="#000000">org    </text>
<text text-anchor="start" x="312.4306" y="-323.9" font-family="Arial" font-size="14.00" fill="#666666">[integer]</text>
<polygon fill="none" stroke="#000000" points="251,-282.5 251,-312.5 510,-312.5 510,-282.5 251,-282.5"/>
<text text-anchor="start" x="258" y="-293.9" font-family="Arial" font-size="14.00" fill="#000000">name    </text>
<text text-anchor="start" x="327.2132" y="-293.9" font-family="Arial" font-size="14.00" fill="#666666">[text]</text>
<polygon fill="none" stroke="#000000" points="251,-252.5 251,-282.5 510,-282.5 510,-252.5 251,-252.5"/>
<text text-anchor="start" x="258" y="-263.9" font-family="Arial" font-size="14.00" fill="#000000">year    </text>
<text text-anchor="start" x="319.4306" y="-263.9" font-family="Arial" font-size="14.00" fill="#666666">[integer]</text>
<polygon fill="none" stroke="#000000" points="251,-222.5 251,-252.5 510,-252.5 510,-222.5 251,-222.5"/>
<text text-anchor="start" x="258" y="-233.9" font-family="Arial" font-size="14.00" fill="#000000">currency_type    </text>
<text text-anchor="start" x="380.1122" y="-233.9" font-family="Arial" font-size="14.00" fill="#666666">[text]</text>
<polygon fill="none" stroke="#000000" points="251,-192.5 251,-222.5 510,-222.5 510,-192.5 251,-192.5"/>
<text text-anchor="start" x="258" y="-203.9" font-family="Arial" font-size="14.00" fill="#000000">code    </text>
<text text-anchor="start" x="322.5526" y="-203.9" font-family="Arial" font-size="14.00" fill="#666666">[text]</text>
<polygon fill="none" stroke="#000000" points="251,-162.5 251,-192.5 510,-192.5 510,-162.5 251,-162.5"/>
<text text-anchor="start" x="258" y="-173.9" font-family="Arial" font-size="14.00" fill="#000000">rollover    </text>
<text text-anchor="start" x="338.087" y="-173.9" font-family="Arial" font-size="14.00" fill="#666666">[boolean]</text>
<polygon fill="none" stroke="#000000" points="251,-132.5 251,-162.5 510,-162.5 510,-132.5 251,-132.5"/>
<text text-anchor="start" x="258" y="-143.9" font-family="Arial" font-size="14.00" fill="#000000">propagate    </text>
<text text-anchor="start" x="355.2342" y="-143.9" font-family="Arial" font-size="14.00" fill="#666666">[boolean]</text>
<polygon fill="none" stroke="#000000" points="251,-102.5 251,-132.5 510,-132.5 510,-102.5 251,-102.5"/>
<text text-anchor="start" x="258" y="-113.9" font-family="Arial" font-size="14.00" fill="#000000">active    </text>
<text text-anchor="start" x="328.7672" y="-113.9" font-family="Arial" font-size="14.00" fill="#666666">[boolean]</text>
<polygon fill="none" stroke="#000000" points="251,-72.5 251,-102.5 510,-102.5 510,-72.5 251,-72.5"/>
<text text-anchor="start" x="257.9776" y="-83.9" font-family="Arial" font-size="14.00" fill="#000000">balance_warning_percent    </text>
<text text-anchor="start" x="452.453" y="-83.9" font-family="Arial" font-size="14.00" fill="#666666">[integer]</text>
<polygon fill="none" stroke="#000000" points="251,-42.5 251,-72.5 510,-72.5 510,-42.5 251,-42.5"/>
<text text-anchor="start" x="258" y="-53.9" font-family="Arial" font-size="14.00" fill="#000000">balance_stop_percent    </text>
<text text-anchor="start" x="429.927" y="-53.9" font-family="Arial" font-size="14.00" fill="#666666">[integer]</text>
</g>
<!-- acq.fund_tag_map&#45;&gt;acq.fund -->
<g id="edge1" class="edge">
<title>acq.fund_tag_map:fund&#45;&gt;acq.fund:id</title>
<path fill="none" stroke="#000000" d="M403.8138,-575.9328C377.2124,-566.5137 393.327,-516.8312 414,-487 439.9553,-449.5465 484.0447,-488.4535 510,-451 533.6698,-416.8444 551.5556,-357.5 510,-357.5"/>
<polygon fill="#000000" stroke="#000000" points="404.1163,-575.9793 413.3157,-581.9477 409.0581,-576.7396 414,-577.5 414,-577.5 414,-577.5 409.0581,-576.7396 414.6843,-573.0523 404.1163,-575.9793 404.1163,-575.9793"/>
<text text-anchor="start" x="6.9855" y="-587.5" font-family="Arial" font-size="10.00" fill="#000000">FOREIGN KEY (fund) REFERENCES acq.fund(id) DEFERRABLE INITIALLY DEFERRED</text>
</g>
<!-- acq.fund_tag -->
<g id="node3" class="node">
<title>acq.fund_tag</title>
<polygon fill="#efefef" stroke="transparent" points="614,-252.5 614,-287.5 859,-287.5 859,-252.5 614,-252.5"/>
<polygon fill="none" stroke="#000000" points="614,-252.5 614,-287.5 859,-287.5 859,-252.5 614,-252.5"/>
<text text-anchor="start" x="620.6879" y="-265.3" font-family="Arial Bold" font-size="18.00" fill="#000000">acq.fund_tag</text>
<text text-anchor="start" x="724.7441" y="-265.3" font-family="Arial" font-size="14.00" fill="#000000">    </text>
<text text-anchor="start" x="758.9489" y="-265.3" font-family="Arial" font-size="14.00" fill="#666666">[BASE TABLE]</text>
<polygon fill="none" stroke="#000000" points="614,-222.5 614,-252.5 859,-252.5 859,-222.5 614,-222.5"/>
<text text-anchor="start" x="621" y="-233.9" font-family="Arial" font-size="14.00" fill="#000000">id    </text>
<text text-anchor="start" x="666.094" y="-233.9" font-family="Arial" font-size="14.00" fill="#666666">[integer]</text>
<polygon fill="none" stroke="#000000" points="614,-192.5 614,-222.5 859,-222.5 859,-192.5 614,-192.5"/>
<text text-anchor="start" x="621" y="-203.9" font-family="Arial" font-size="14.00" fill="#000000">owner    </text>
<text text-anchor="start" x="693.3198" y="-203.9" font-family="Arial" font-size="14.00" fill="#666666">[integer]</text>
<polygon fill="none" stroke="#000000" points="614,-162.5 614,-192.5 859,-192.5 859,-162.5 614,-162.5"/>
<text text-anchor="start" x="621" y="-173.9" font-family="Arial" font-size="14.00" fill="#000000">name    </text>
<text text-anchor="start" x="690.2132" y="-173.9" font-family="Arial" font-size="14.00" fill="#666666">[text]</text>
</g>
<!-- acq.fund_tag_map&#45;&gt;acq.fund_tag -->
<g id="edge2" class="edge">
<title>acq.fund_tag_map:tag&#45;&gt;acq.fund_tag:id</title>
<path fill="none" stroke="#000000" d="M713.7176,-544.9023C724.6975,-536.4013 709.8141,-508.7125 704,-487 683.2954,-409.6797 634.7046,-408.3203 614,-331 603.2511,-290.8587 572.4444,-237.5 614,-237.5"/>
<polygon fill="#000000" stroke="#000000" points="713.6608,-544.9174 702.8378,-543.1527 708.8304,-546.2087 704,-547.5 704,-547.5 704,-547.5 708.8304,-546.2087 705.1622,-551.8473 713.6608,-544.9174 713.6608,-544.9174"/>
<text text-anchor="start" x="710.756" y="-557.5" font-family="Arial" font-size="10.00" fill="#000000">FOREIGN KEY (tag) REFERENCES acq.fund_tag(id) ON DELETE CASCADE DEFERRABLE INITIALLY DEFERRED</text>
</g>
</g>
</svg>
