<?xml version="1.0" encoding="UTF-8" standalone="no"?>
<!DOCTYPE svg PUBLIC "-//W3C//DTD SVG 1.1//EN"
 "http://www.w3.org/Graphics/SVG/1.1/DTD/svg11.dtd">
<!-- Generated by graphviz version 2.40.1 (20161225.0304)
 -->
<!-- Title: acq.provider_address Pages: 1 -->
<svg width="815pt" height="1162pt"
 viewBox="0.00 0.00 815.00 1162.00" xmlns="http://www.w3.org/2000/svg" xmlns:xlink="http://www.w3.org/1999/xlink">
<g id="graph0" class="graph" transform="scale(1 1) rotate(0) translate(4 1158)">
<title>acq.provider_address</title>
<polygon fill="#ffffff" stroke="transparent" points="-4,4 -4,-1158 811,-1158 811,4 -4,4"/>
<!-- acq.provider_address -->
<g id="node1" class="node">
<title>acq.provider_address</title>
<polygon fill="#efefef" stroke="transparent" points="46,-1072.5 46,-1107.5 360,-1107.5 360,-1072.5 46,-1072.5"/>
<polygon fill="none" stroke="#000000" points="46,-1072.5 46,-1107.5 360,-1107.5 360,-1072.5 46,-1072.5"/>
<text text-anchor="start" x="52.6954" y="-1085.3" font-family="Arial Bold" font-size="18.00" fill="#000000">acq.provider_address</text>
<text text-anchor="start" x="225.7366" y="-1085.3" font-family="Arial" font-size="14.00" fill="#000000">    </text>
<text text-anchor="start" x="259.9414" y="-1085.3" font-family="Arial" font-size="14.00" fill="#666666">[BASE TABLE]</text>
<polygon fill="none" stroke="#000000" points="46,-1042.5 46,-1072.5 360,-1072.5 360,-1042.5 46,-1042.5"/>
<text text-anchor="start" x="53" y="-1053.9" font-family="Arial" font-size="14.00" fill="#000000">id </text>
<text text-anchor="start" x="67.7798" y="-1053.9" font-family="Arial" font-size="14.00" fill="#666666">[integer]</text>
<polygon fill="none" stroke="#000000" points="46,-1012.5 46,-1042.5 360,-1042.5 360,-1012.5 46,-1012.5"/>
<text text-anchor="start" x="53" y="-1023.9" font-family="Arial" font-size="14.00" fill="#000000">valid </text>
<text text-anchor="start" x="85.669" y="-1023.9" font-family="Arial" font-size="14.00" fill="#666666">[boolean]</text>
<polygon fill="none" stroke="#000000" points="46,-982.5 46,-1012.5 360,-1012.5 360,-982.5 46,-982.5"/>
<text text-anchor="start" x="53" y="-993.9" font-family="Arial" font-size="14.00" fill="#000000">address_type </text>
<text text-anchor="start" x="140.92" y="-993.9" font-family="Arial" font-size="14.00" fill="#666666">[text]</text>
<polygon fill="none" stroke="#000000" points="46,-952.5 46,-982.5 360,-982.5 360,-952.5 46,-952.5"/>
<text text-anchor="start" x="53" y="-963.9" font-family="Arial" font-size="14.00" fill="#000000">provider </text>
<text text-anchor="start" x="107.4488" y="-963.9" font-family="Arial" font-size="14.00" fill="#666666">[integer]</text>
<polygon fill="none" stroke="#000000" points="46,-922.5 46,-952.5 360,-952.5 360,-922.5 46,-922.5"/>
<text text-anchor="start" x="53" y="-933.9" font-family="Arial" font-size="14.00" fill="#000000">street1 </text>
<text text-anchor="start" x="99.6802" y="-933.9" font-family="Arial" font-size="14.00" fill="#666666">[text]</text>
<polygon fill="none" stroke="#000000" points="46,-892.5 46,-922.5 360,-922.5 360,-892.5 46,-892.5"/>
<text text-anchor="start" x="53" y="-903.9" font-family="Arial" font-size="14.00" fill="#000000">street2 </text>
<text text-anchor="start" x="99.6802" y="-903.9" font-family="Arial" font-size="14.00" fill="#666666">[text]</text>
<polygon fill="none" stroke="#000000" points="46,-862.5 46,-892.5 360,-892.5 360,-862.5 46,-862.5"/>
<text text-anchor="start" x="53" y="-873.9" font-family="Arial" font-size="14.00" fill="#000000">city </text>
<text text-anchor="start" x="77.8878" y="-873.9" font-family="Arial" font-size="14.00" fill="#666666">[text]</text>
<polygon fill="none" stroke="#000000" points="46,-832.5 46,-862.5 360,-862.5 360,-832.5 46,-832.5"/>
<text text-anchor="start" x="53" y="-843.9" font-family="Arial" font-size="14.00" fill="#000000">county </text>
<text text-anchor="start" x="98.129" y="-843.9" font-family="Arial" font-size="14.00" fill="#666666">[text]</text>
<polygon fill="none" stroke="#000000" points="46,-802.5 46,-832.5 360,-832.5 360,-802.5 46,-802.5"/>
<text text-anchor="start" x="53" y="-813.9" font-family="Arial" font-size="14.00" fill="#000000">state </text>
<text text-anchor="start" x="87.237" y="-813.9" font-family="Arial" font-size="14.00" fill="#666666">[text]</text>
<polygon fill="none" stroke="#000000" points="46,-772.5 46,-802.5 360,-802.5 360,-772.5 46,-772.5"/>
<text text-anchor="start" x="53" y="-783.9" font-family="Arial" font-size="14.00" fill="#000000">country </text>
<text text-anchor="start" x="102.7896" y="-783.9" font-family="Arial" font-size="14.00" fill="#666666">[text]</text>
<polygon fill="none" stroke="#000000" points="46,-742.5 46,-772.5 360,-772.5 360,-742.5 46,-742.5"/>
<text text-anchor="start" x="53" y="-753.9" font-family="Arial" font-size="14.00" fill="#000000">post_code </text>
<text text-anchor="start" x="121.4768" y="-753.9" font-family="Arial" font-size="14.00" fill="#666666">[text]</text>
<polygon fill="none" stroke="#000000" points="46,-712.5 46,-742.5 360,-742.5 360,-712.5 46,-712.5"/>
<text text-anchor="start" x="53" y="-723.9" font-family="Arial" font-size="14.00" fill="#000000">fax_phone </text>
<text text-anchor="start" x="122.2594" y="-723.9" font-family="Arial" font-size="14.00" fill="#666666">[text]</text>
<polygon fill="none" stroke="#000000" stroke-width="3" points="44.5,-711.5 44.5,-1109.5 361.5,-1109.5 361.5,-711.5 44.5,-711.5"/>
</g>
<!-- acq.provider -->
<g id="node2" class="node">
<title>acq.provider</title>
<polygon fill="#efefef" stroke="transparent" points="83,-552.5 83,-587.5 323,-587.5 323,-552.5 83,-552.5"/>
<polygon fill="none" stroke="#000000" points="83,-552.5 83,-587.5 323,-587.5 323,-552.5 83,-552.5"/>
<text text-anchor="start" x="89.707" y="-565.3" font-family="Arial Bold" font-size="18.00" fill="#000000">acq.provider</text>
<text text-anchor="start" x="188.725" y="-565.3" font-family="Arial" font-size="14.00" fill="#000000">    </text>
<text text-anchor="start" x="222.9298" y="-565.3" font-family="Arial" font-size="14.00" fill="#666666">[BASE TABLE]</text>
<polygon fill="none" stroke="#000000" points="83,-522.5 83,-552.5 323,-552.5 323,-522.5 83,-522.5"/>
<text text-anchor="start" x="90" y="-533.9" font-family="Arial" font-size="14.00" fill="#000000">id    </text>
<text text-anchor="start" x="135.094" y="-533.9" font-family="Arial" font-size="14.00" fill="#666666">[integer]</text>
<polygon fill="none" stroke="#000000" points="83,-492.5 83,-522.5 323,-522.5 323,-492.5 83,-492.5"/>
<text text-anchor="start" x="90" y="-503.9" font-family="Arial" font-size="14.00" fill="#000000">name    </text>
<text text-anchor="start" x="159.2132" y="-503.9" font-family="Arial" font-size="14.00" fill="#666666">[text]</text>
<polygon fill="none" stroke="#000000" points="83,-462.5 83,-492.5 323,-492.5 323,-462.5 83,-462.5"/>
<text text-anchor="start" x="90" y="-473.9" font-family="Arial" font-size="14.00" fill="#000000">owner    </text>
<text text-anchor="start" x="162.3198" y="-473.9" font-family="Arial" font-size="14.00" fill="#666666">[integer]</text>
<polygon fill="none" stroke="#000000" points="83,-432.5 83,-462.5 323,-462.5 323,-432.5 83,-432.5"/>
<text text-anchor="start" x="90" y="-443.9" font-family="Arial" font-size="14.00" fill="#000000">currency_type    </text>
<text text-anchor="start" x="212.1122" y="-443.9" font-family="Arial" font-size="14.00" fill="#666666">[text]</text>
<polygon fill="none" stroke="#000000" points="83,-402.5 83,-432.5 323,-432.5 323,-402.5 83,-402.5"/>
<text text-anchor="start" x="90" y="-413.9" font-family="Arial" font-size="14.00" fill="#000000">code    </text>
<text text-anchor="start" x="154.5526" y="-413.9" font-family="Arial" font-size="14.00" fill="#666666">[text]</text>
<polygon fill="none" stroke="#000000" points="83,-372.5 83,-402.5 323,-402.5 323,-372.5 83,-372.5"/>
<text text-anchor="start" x="90" y="-383.9" font-family="Arial" font-size="14.00" fill="#000000">holding_tag    </text>
<text text-anchor="start" x="196.5694" y="-383.9" font-family="Arial" font-size="14.00" fill="#666666">[text]</text>
<polygon fill="none" stroke="#000000" points="83,-342.5 83,-372.5 323,-372.5 323,-342.5 83,-342.5"/>
<text text-anchor="start" x="90" y="-353.9" font-family="Arial" font-size="14.00" fill="#000000">san    </text>
<text text-anchor="start" x="146.77" y="-353.9" font-family="Arial" font-size="14.00" fill="#666666">[text]</text>
<polygon fill="none" stroke="#000000" points="83,-312.5 83,-342.5 323,-342.5 323,-312.5 83,-312.5"/>
<text text-anchor="start" x="90" y="-323.9" font-family="Arial" font-size="14.00" fill="#000000">edi_default    </text>
<text text-anchor="start" x="192.6774" y="-323.9" font-family="Arial" font-size="14.00" fill="#666666">[integer]</text>
<polygon fill="none" stroke="#000000" points="83,-282.5 83,-312.5 323,-312.5 323,-282.5 83,-282.5"/>
<text text-anchor="start" x="90" y="-293.9" font-family="Arial" font-size="14.00" fill="#000000">active    </text>
<text text-anchor="start" x="160.7672" y="-293.9" font-family="Arial" font-size="14.00" fill="#666666">[boolean]</text>
<polygon fill="none" stroke="#000000" points="83,-252.5 83,-282.5 323,-282.5 323,-252.5 83,-252.5"/>
<text text-anchor="start" x="90" y="-263.9" font-family="Arial" font-size="14.00" fill="#000000">prepayment_required    </text>
<text text-anchor="start" x="257.2356" y="-263.9" font-family="Arial" font-size="14.00" fill="#666666">[boolean]</text>
<polygon fill="none" stroke="#000000" points="83,-222.5 83,-252.5 323,-252.5 323,-222.5 83,-222.5"/>
<text text-anchor="start" x="90" y="-233.9" font-family="Arial" font-size="14.00" fill="#000000">url    </text>
<text text-anchor="start" x="139.7546" y="-233.9" font-family="Arial" font-size="14.00" fill="#666666">[text]</text>
<polygon fill="none" stroke="#000000" points="83,-192.5 83,-222.5 323,-222.5 323,-192.5 83,-192.5"/>
<text text-anchor="start" x="90" y="-203.9" font-family="Arial" font-size="14.00" fill="#000000">email    </text>
<text text-anchor="start" x="157.6438" y="-203.9" font-family="Arial" font-size="14.00" fill="#666666">[text]</text>
<polygon fill="none" stroke="#000000" points="83,-162.5 83,-192.5 323,-192.5 323,-162.5 83,-162.5"/>
<text text-anchor="start" x="90" y="-173.9" font-family="Arial" font-size="14.00" fill="#000000">phone    </text>
<text text-anchor="start" x="163.1178" y="-173.9" font-family="Arial" font-size="14.00" fill="#666666">[text]</text>
<polygon fill="none" stroke="#000000" points="83,-132.5 83,-162.5 323,-162.5 323,-132.5 83,-132.5"/>
<text text-anchor="start" x="90" y="-143.9" font-family="Arial" font-size="14.00" fill="#000000">fax_phone    </text>
<text text-anchor="start" x="189.5736" y="-143.9" font-family="Arial" font-size="14.00" fill="#666666">[text]</text>
<polygon fill="none" stroke="#000000" points="83,-102.5 83,-132.5 323,-132.5 323,-102.5 83,-102.5"/>
<text text-anchor="start" x="90" y="-113.9" font-family="Arial" font-size="14.00" fill="#000000">default_copy_count    </text>
<text text-anchor="start" x="245.5918" y="-113.9" font-family="Arial" font-size="14.00" fill="#666666">[integer]</text>
<polygon fill="none" stroke="#000000" points="83,-72.5 83,-102.5 323,-102.5 323,-72.5 83,-72.5"/>
<text text-anchor="start" x="90" y="-83.9" font-family="Arial" font-size="14.00" fill="#000000">default_claim_policy    </text>
<text text-anchor="start" x="250.223" y="-83.9" font-family="Arial" font-size="14.00" fill="#666666">[integer]</text>
<polygon fill="none" stroke="#000000" points="83,-42.5 83,-72.5 323,-72.5 323,-42.5 83,-42.5"/>
<text text-anchor="start" x="90" y="-53.9" font-family="Arial" font-size="14.00" fill="#000000">primary_contact    </text>
<text text-anchor="start" x="223.77" y="-53.9" font-family="Arial" font-size="14.00" fill="#666666">[integer]</text>
</g>
<!-- acq.provider_address&#45;&gt;acq.provider -->
<g id="edge1" class="edge">
<title>acq.provider_address:provider&#45;&gt;acq.provider:id</title>
<path fill="none" stroke="#000000" d="M369.8793,-965.8564C453.1579,-936.9872 415.4432,-537.5 323,-537.5"/>
<polygon fill="#000000" stroke="#000000" points="369.8644,-965.8588 359.2614,-963.061 364.9322,-966.6794 360,-967.5 360,-967.5 360,-967.5 364.9322,-966.6794 360.7386,-971.939 369.8644,-965.8588 369.8644,-965.8588"/>
<text text-anchor="start" x="367.3285" y="-977.5" font-family="Arial" font-size="10.00" fill="#000000">FOREIGN KEY (provider) REFERENCES acq.provider(id) DEFERRABLE INITIALLY DEFERRED</text>
</g>
</g>
</svg>
