<?xml version="1.0" encoding="UTF-8" standalone="no"?>
<!DOCTYPE svg PUBLIC "-//W3C//DTD SVG 1.1//EN"
 "http://www.w3.org/Graphics/SVG/1.1/DTD/svg11.dtd">
<!-- Generated by graphviz version 2.40.1 (20161225.0304)
 -->
<!-- Title: acq.claim_policy Pages: 1 -->
<svg width="1449pt" height="1499pt"
 viewBox="0.00 0.00 1448.50 1499.00" xmlns="http://www.w3.org/2000/svg" xmlns:xlink="http://www.w3.org/1999/xlink">
<g id="graph0" class="graph" transform="scale(1 1) rotate(0) translate(4 1495)">
<title>acq.claim_policy</title>
<polygon fill="#ffffff" stroke="transparent" points="-4,4 -4,-1495 1444.5,-1495 1444.5,4 -4,4"/>
<!-- acq.claim_policy -->
<g id="node1" class="node">
<title>acq.claim_policy</title>
<polygon fill="#efefef" stroke="transparent" points="515.5,-712.5 515.5,-747.5 788.5,-747.5 788.5,-712.5 515.5,-712.5"/>
<polygon fill="none" stroke="#000000" points="515.5,-712.5 515.5,-747.5 788.5,-747.5 788.5,-712.5 515.5,-712.5"/>
<text text-anchor="start" x="522.2118" y="-725.3" font-family="Arial Bold" font-size="18.00" fill="#000000">acq.claim_policy</text>
<text text-anchor="start" x="654.2202" y="-725.3" font-family="Arial" font-size="14.00" fill="#000000">    </text>
<text text-anchor="start" x="688.425" y="-725.3" font-family="Arial" font-size="14.00" fill="#666666">[BASE TABLE]</text>
<polygon fill="none" stroke="#000000" points="515.5,-682.5 515.5,-712.5 788.5,-712.5 788.5,-682.5 515.5,-682.5"/>
<text text-anchor="start" x="522.5" y="-693.9" font-family="Arial" font-size="14.00" fill="#000000">id </text>
<text text-anchor="start" x="537.2798" y="-693.9" font-family="Arial" font-size="14.00" fill="#666666">[integer]</text>
<polygon fill="none" stroke="#000000" points="515.5,-652.5 515.5,-682.5 788.5,-682.5 788.5,-652.5 515.5,-652.5"/>
<text text-anchor="start" x="522.5" y="-663.9" font-family="Arial" font-size="14.00" fill="#000000">org_unit </text>
<text text-anchor="start" x="576.9614" y="-663.9" font-family="Arial" font-size="14.00" fill="#666666">[integer]</text>
<polygon fill="none" stroke="#000000" points="515.5,-622.5 515.5,-652.5 788.5,-652.5 788.5,-622.5 515.5,-622.5"/>
<text text-anchor="start" x="522.5" y="-633.9" font-family="Arial" font-size="14.00" fill="#000000">name </text>
<text text-anchor="start" x="561.399" y="-633.9" font-family="Arial" font-size="14.00" fill="#666666">[text]</text>
<polygon fill="none" stroke="#000000" points="515.5,-592.5 515.5,-622.5 788.5,-622.5 788.5,-592.5 515.5,-592.5"/>
<text text-anchor="start" x="522.5" y="-603.9" font-family="Arial" font-size="14.00" fill="#000000">description </text>
<text text-anchor="start" x="594.068" y="-603.9" font-family="Arial" font-size="14.00" fill="#666666">[text]</text>
<polygon fill="none" stroke="#000000" stroke-width="3" points="513.5,-591.5 513.5,-749.5 789.5,-749.5 789.5,-591.5 513.5,-591.5"/>
</g>
<!-- actor.org_unit -->
<g id="node5" class="node">
<title>actor.org_unit</title>
<polygon fill="#efefef" stroke="transparent" points="526.5,-432.5 526.5,-467.5 777.5,-467.5 777.5,-432.5 526.5,-432.5"/>
<polygon fill="none" stroke="#000000" points="526.5,-432.5 526.5,-467.5 777.5,-467.5 777.5,-432.5 526.5,-432.5"/>
<text text-anchor="start" x="533.2017" y="-445.3" font-family="Arial Bold" font-size="18.00" fill="#000000">actor.org_unit</text>
<text text-anchor="start" x="643.2303" y="-445.3" font-family="Arial" font-size="14.00" fill="#000000">    </text>
<text text-anchor="start" x="677.4351" y="-445.3" font-family="Arial" font-size="14.00" fill="#666666">[BASE TABLE]</text>
<polygon fill="none" stroke="#000000" points="526.5,-402.5 526.5,-432.5 777.5,-432.5 777.5,-402.5 526.5,-402.5"/>
<text text-anchor="start" x="533.5" y="-413.9" font-family="Arial" font-size="14.00" fill="#000000">id    </text>
<text text-anchor="start" x="578.594" y="-413.9" font-family="Arial" font-size="14.00" fill="#666666">[integer]</text>
<polygon fill="none" stroke="#000000" points="526.5,-372.5 526.5,-402.5 777.5,-402.5 777.5,-372.5 526.5,-372.5"/>
<text text-anchor="start" x="533.5" y="-383.9" font-family="Arial" font-size="14.00" fill="#000000">parent_ou    </text>
<text text-anchor="start" x="630.7342" y="-383.9" font-family="Arial" font-size="14.00" fill="#666666">[integer]</text>
<polygon fill="none" stroke="#000000" points="526.5,-342.5 526.5,-372.5 777.5,-372.5 777.5,-342.5 526.5,-342.5"/>
<text text-anchor="start" x="533.5" y="-353.9" font-family="Arial" font-size="14.00" fill="#000000">ou_type    </text>
<text text-anchor="start" x="617.5084" y="-353.9" font-family="Arial" font-size="14.00" fill="#666666">[integer]</text>
<polygon fill="none" stroke="#000000" points="526.5,-312.5 526.5,-342.5 777.5,-342.5 777.5,-312.5 526.5,-312.5"/>
<text text-anchor="start" x="533.5" y="-323.9" font-family="Arial" font-size="14.00" fill="#000000">ill_address    </text>
<text text-anchor="start" x="634.5982" y="-323.9" font-family="Arial" font-size="14.00" fill="#666666">[integer]</text>
<polygon fill="none" stroke="#000000" points="526.5,-282.5 526.5,-312.5 777.5,-312.5 777.5,-282.5 526.5,-282.5"/>
<text text-anchor="start" x="533.5" y="-293.9" font-family="Arial" font-size="14.00" fill="#000000">holds_address    </text>
<text text-anchor="start" x="658.7328" y="-293.9" font-family="Arial" font-size="14.00" fill="#666666">[integer]</text>
<polygon fill="none" stroke="#000000" points="526.5,-252.5 526.5,-282.5 777.5,-282.5 777.5,-252.5 526.5,-252.5"/>
<text text-anchor="start" x="533.5" y="-263.9" font-family="Arial" font-size="14.00" fill="#000000">mailing_address    </text>
<text text-anchor="start" x="669.6066" y="-263.9" font-family="Arial" font-size="14.00" fill="#666666">[integer]</text>
<polygon fill="none" stroke="#000000" points="526.5,-222.5 526.5,-252.5 777.5,-252.5 777.5,-222.5 526.5,-222.5"/>
<text text-anchor="start" x="533.5" y="-233.9" font-family="Arial" font-size="14.00" fill="#000000">billing_address    </text>
<text text-anchor="start" x="661.0526" y="-233.9" font-family="Arial" font-size="14.00" fill="#666666">[integer]</text>
<polygon fill="none" stroke="#000000" points="526.5,-192.5 526.5,-222.5 777.5,-222.5 777.5,-192.5 526.5,-192.5"/>
<text text-anchor="start" x="533.5" y="-203.9" font-family="Arial" font-size="14.00" fill="#000000">shortname    </text>
<text text-anchor="start" x="633.8296" y="-203.9" font-family="Arial" font-size="14.00" fill="#666666">[text]</text>
<polygon fill="none" stroke="#000000" points="526.5,-162.5 526.5,-192.5 777.5,-192.5 777.5,-162.5 526.5,-162.5"/>
<text text-anchor="start" x="533.5" y="-173.9" font-family="Arial" font-size="14.00" fill="#000000">name    </text>
<text text-anchor="start" x="602.7132" y="-173.9" font-family="Arial" font-size="14.00" fill="#666666">[text]</text>
<polygon fill="none" stroke="#000000" points="526.5,-132.5 526.5,-162.5 777.5,-162.5 777.5,-132.5 526.5,-132.5"/>
<text text-anchor="start" x="533.5" y="-143.9" font-family="Arial" font-size="14.00" fill="#000000">email    </text>
<text text-anchor="start" x="601.1438" y="-143.9" font-family="Arial" font-size="14.00" fill="#666666">[text]</text>
<polygon fill="none" stroke="#000000" points="526.5,-102.5 526.5,-132.5 777.5,-132.5 777.5,-102.5 526.5,-102.5"/>
<text text-anchor="start" x="533.5" y="-113.9" font-family="Arial" font-size="14.00" fill="#000000">phone    </text>
<text text-anchor="start" x="606.6178" y="-113.9" font-family="Arial" font-size="14.00" fill="#666666">[text]</text>
<polygon fill="none" stroke="#000000" points="526.5,-72.5 526.5,-102.5 777.5,-102.5 777.5,-72.5 526.5,-72.5"/>
<text text-anchor="start" x="533.5" y="-83.9" font-family="Arial" font-size="14.00" fill="#000000">opac_visible    </text>
<text text-anchor="start" x="644.7202" y="-83.9" font-family="Arial" font-size="14.00" fill="#666666">[boolean]</text>
<polygon fill="none" stroke="#000000" points="526.5,-42.5 526.5,-72.5 777.5,-72.5 777.5,-42.5 526.5,-42.5"/>
<text text-anchor="start" x="533.5" y="-53.9" font-family="Arial" font-size="14.00" fill="#000000">fiscal_calendar    </text>
<text text-anchor="start" x="661.054" y="-53.9" font-family="Arial" font-size="14.00" fill="#666666">[integer]</text>
</g>
<!-- acq.claim_policy&#45;&gt;actor.org_unit -->
<g id="edge4" class="edge">
<title>acq.claim_policy:org_unit&#45;&gt;actor.org_unit:id</title>
<path fill="none" stroke="#000000" d="M505.4306,-666.7828C405.0668,-652.1191 418.757,-417.5 526.5,-417.5"/>
<polygon fill="#000000" stroke="#000000" points="505.5253,-666.7895 515.1803,-671.9886 510.5126,-667.1447 515.5,-667.5 515.5,-667.5 515.5,-667.5 510.5126,-667.1447 515.8197,-663.0114 505.5253,-666.7895 505.5253,-666.7895"/>
<text text-anchor="start" x="69.7655" y="-677.5" font-family="Arial" font-size="10.00" fill="#000000">FOREIGN KEY (org_unit) REFERENCES actor.org_unit(id) DEFERRABLE INITIALLY DEFERRED</text>
</g>
<!-- acq.lineitem -->
<g id="node2" class="node">
<title>acq.lineitem</title>
<polygon fill="#efefef" stroke="transparent" points="43.5,-1412.5 43.5,-1447.5 382.5,-1447.5 382.5,-1412.5 43.5,-1412.5"/>
<polygon fill="none" stroke="#000000" points="43.5,-1412.5 43.5,-1447.5 382.5,-1447.5 382.5,-1412.5 43.5,-1412.5"/>
<text text-anchor="start" x="101.2109" y="-1425.3" font-family="Arial Bold" font-size="18.00" fill="#000000">acq.lineitem</text>
<text text-anchor="start" x="197.2211" y="-1425.3" font-family="Arial" font-size="14.00" fill="#000000">    </text>
<text text-anchor="start" x="231.4259" y="-1425.3" font-family="Arial" font-size="14.00" fill="#666666">[BASE TABLE]</text>
<polygon fill="none" stroke="#000000" points="43.5,-1382.5 43.5,-1412.5 382.5,-1412.5 382.5,-1382.5 43.5,-1382.5"/>
<text text-anchor="start" x="50.5" y="-1393.9" font-family="Arial" font-size="14.00" fill="#000000">id    </text>
<text text-anchor="start" x="95.594" y="-1393.9" font-family="Arial" font-size="14.00" fill="#666666">[bigint]</text>
<polygon fill="none" stroke="#000000" points="43.5,-1352.5 43.5,-1382.5 382.5,-1382.5 382.5,-1352.5 43.5,-1352.5"/>
<text text-anchor="start" x="50.5" y="-1363.9" font-family="Arial" font-size="14.00" fill="#000000">creator    </text>
<text text-anchor="start" x="128.2644" y="-1363.9" font-family="Arial" font-size="14.00" fill="#666666">[integer]</text>
<polygon fill="none" stroke="#000000" points="43.5,-1322.5 43.5,-1352.5 382.5,-1352.5 382.5,-1322.5 43.5,-1322.5"/>
<text text-anchor="start" x="50.5" y="-1333.9" font-family="Arial" font-size="14.00" fill="#000000">editor    </text>
<text text-anchor="start" x="119.7104" y="-1333.9" font-family="Arial" font-size="14.00" fill="#666666">[integer]</text>
<polygon fill="none" stroke="#000000" points="43.5,-1292.5 43.5,-1322.5 382.5,-1322.5 382.5,-1292.5 43.5,-1292.5"/>
<text text-anchor="start" x="50.5" y="-1303.9" font-family="Arial" font-size="14.00" fill="#000000">selector    </text>
<text text-anchor="start" x="133.7104" y="-1303.9" font-family="Arial" font-size="14.00" fill="#666666">[integer]</text>
<polygon fill="none" stroke="#000000" points="43.5,-1262.5 43.5,-1292.5 382.5,-1292.5 382.5,-1262.5 43.5,-1262.5"/>
<text text-anchor="start" x="50.5" y="-1273.9" font-family="Arial" font-size="14.00" fill="#000000">provider    </text>
<text text-anchor="start" x="135.263" y="-1273.9" font-family="Arial" font-size="14.00" fill="#666666">[integer]</text>
<polygon fill="none" stroke="#000000" points="43.5,-1232.5 43.5,-1262.5 382.5,-1262.5 382.5,-1232.5 43.5,-1232.5"/>
<text text-anchor="start" x="50.5" y="-1243.9" font-family="Arial" font-size="14.00" fill="#000000">purchase_order    </text>
<text text-anchor="start" x="182.73" y="-1243.9" font-family="Arial" font-size="14.00" fill="#666666">[integer]</text>
<polygon fill="none" stroke="#000000" points="43.5,-1202.5 43.5,-1232.5 382.5,-1232.5 382.5,-1202.5 43.5,-1202.5"/>
<text text-anchor="start" x="50.5" y="-1213.9" font-family="Arial" font-size="14.00" fill="#000000">picklist    </text>
<text text-anchor="start" x="126.6978" y="-1213.9" font-family="Arial" font-size="14.00" fill="#666666">[integer]</text>
<polygon fill="none" stroke="#000000" points="43.5,-1172.5 43.5,-1202.5 382.5,-1202.5 382.5,-1172.5 43.5,-1172.5"/>
<text text-anchor="start" x="50.4292" y="-1183.9" font-family="Arial" font-size="14.00" fill="#000000">expected_recv_time    </text>
<text text-anchor="start" x="209.8864" y="-1183.9" font-family="Arial" font-size="14.00" fill="#666666">[timestamp with time zone]</text>
<polygon fill="none" stroke="#000000" points="43.5,-1142.5 43.5,-1172.5 382.5,-1172.5 382.5,-1142.5 43.5,-1142.5"/>
<text text-anchor="start" x="50.5" y="-1153.9" font-family="Arial" font-size="14.00" fill="#000000">create_time    </text>
<text text-anchor="start" x="157.8268" y="-1153.9" font-family="Arial" font-size="14.00" fill="#666666">[timestamp with time zone]</text>
<polygon fill="none" stroke="#000000" points="43.5,-1112.5 43.5,-1142.5 382.5,-1142.5 382.5,-1112.5 43.5,-1112.5"/>
<text text-anchor="start" x="50.5" y="-1123.9" font-family="Arial" font-size="14.00" fill="#000000">edit_time    </text>
<text text-anchor="start" x="141.4902" y="-1123.9" font-family="Arial" font-size="14.00" fill="#666666">[timestamp with time zone]</text>
<polygon fill="none" stroke="#000000" points="43.5,-1082.5 43.5,-1112.5 382.5,-1112.5 382.5,-1082.5 43.5,-1082.5"/>
<text text-anchor="start" x="50.5" y="-1093.9" font-family="Arial" font-size="14.00" fill="#000000">marc    </text>
<text text-anchor="start" x="115.8086" y="-1093.9" font-family="Arial" font-size="14.00" fill="#666666">[text]</text>
<polygon fill="none" stroke="#000000" points="43.5,-1052.5 43.5,-1082.5 382.5,-1082.5 382.5,-1052.5 43.5,-1052.5"/>
<text text-anchor="start" x="50.5" y="-1063.9" font-family="Arial" font-size="14.00" fill="#000000">eg_bib_id    </text>
<text text-anchor="start" x="145.3962" y="-1063.9" font-family="Arial" font-size="14.00" fill="#666666">[bigint]</text>
<polygon fill="none" stroke="#000000" points="43.5,-1022.5 43.5,-1052.5 382.5,-1052.5 382.5,-1022.5 43.5,-1022.5"/>
<text text-anchor="start" x="50.5" y="-1033.9" font-family="Arial" font-size="14.00" fill="#000000">source_label    </text>
<text text-anchor="start" x="164.0568" y="-1033.9" font-family="Arial" font-size="14.00" fill="#666666">[text]</text>
<polygon fill="none" stroke="#000000" points="43.5,-992.5 43.5,-1022.5 382.5,-1022.5 382.5,-992.5 43.5,-992.5"/>
<text text-anchor="start" x="50.5" y="-1003.9" font-family="Arial" font-size="14.00" fill="#000000">state    </text>
<text text-anchor="start" x="115.0512" y="-1003.9" font-family="Arial" font-size="14.00" fill="#666666">[text]</text>
<polygon fill="none" stroke="#000000" points="43.5,-962.5 43.5,-992.5 382.5,-992.5 382.5,-962.5 43.5,-962.5"/>
<text text-anchor="start" x="50.5" y="-973.9" font-family="Arial" font-size="14.00" fill="#000000">cancel_reason    </text>
<text text-anchor="start" x="175.7328" y="-973.9" font-family="Arial" font-size="14.00" fill="#666666">[integer]</text>
<polygon fill="none" stroke="#000000" points="43.5,-932.5 43.5,-962.5 382.5,-962.5 382.5,-932.5 43.5,-932.5"/>
<text text-anchor="start" x="50.5" y="-943.9" font-family="Arial" font-size="14.00" fill="#000000">estimated_unit_price    </text>
<text text-anchor="start" x="213.8436" y="-943.9" font-family="Arial" font-size="14.00" fill="#666666">[numeric]</text>
<polygon fill="none" stroke="#000000" points="43.5,-902.5 43.5,-932.5 382.5,-932.5 382.5,-902.5 43.5,-902.5"/>
<text text-anchor="start" x="50.5" y="-913.9" font-family="Arial" font-size="14.00" fill="#000000">claim_policy    </text>
<text text-anchor="start" x="160.9222" y="-913.9" font-family="Arial" font-size="14.00" fill="#666666">[integer]</text>
<polygon fill="none" stroke="#000000" points="43.5,-872.5 43.5,-902.5 382.5,-902.5 382.5,-872.5 43.5,-872.5"/>
<text text-anchor="start" x="50.5" y="-883.9" font-family="Arial" font-size="14.00" fill="#000000">queued_record    </text>
<text text-anchor="start" x="178.852" y="-883.9" font-family="Arial" font-size="14.00" fill="#666666">[bigint]</text>
</g>
<!-- acq.lineitem&#45;&gt;acq.claim_policy -->
<g id="edge1" class="edge">
<title>acq.lineitem:claim_policy&#45;&gt;acq.claim_policy:id</title>
<path fill="none" stroke="#000000" d="M392.7917,-916.4539C424.8558,-909.1691 412.3128,-865.2697 433.5,-830 469.1622,-770.6341 446.2461,-697.5 515.5,-697.5"/>
<polygon fill="#000000" stroke="#000000" points="392.4487,-916.4886 382.0449,-913.0231 387.4744,-916.9943 382.5,-917.5 382.5,-917.5 382.5,-917.5 387.4744,-916.9943 382.9551,-921.9769 392.4487,-916.4886 392.4487,-916.4886"/>
<text text-anchor="start" x="389.5005" y="-927.5" font-family="Arial" font-size="10.00" fill="#000000">FOREIGN KEY (claim_policy) REFERENCES acq.claim_policy(id) DEFERRABLE INITIALLY DEFERRED</text>
</g>
<!-- acq.claim_policy_action -->
<g id="node3" class="node">
<title>acq.claim_policy_action</title>
<polygon fill="#efefef" stroke="transparent" points="486.5,-1202.5 486.5,-1237.5 817.5,-1237.5 817.5,-1202.5 486.5,-1202.5"/>
<polygon fill="none" stroke="#000000" points="486.5,-1202.5 486.5,-1237.5 817.5,-1237.5 817.5,-1202.5 486.5,-1202.5"/>
<text text-anchor="start" x="493.2012" y="-1215.3" font-family="Arial Bold" font-size="18.00" fill="#000000">acq.claim_policy_action</text>
<text text-anchor="start" x="683.2308" y="-1215.3" font-family="Arial" font-size="14.00" fill="#000000">    </text>
<text text-anchor="start" x="717.4356" y="-1215.3" font-family="Arial" font-size="14.00" fill="#666666">[BASE TABLE]</text>
<polygon fill="none" stroke="#000000" points="486.5,-1172.5 486.5,-1202.5 817.5,-1202.5 817.5,-1172.5 486.5,-1172.5"/>
<text text-anchor="start" x="493.5" y="-1183.9" font-family="Arial" font-size="14.00" fill="#000000">id    </text>
<text text-anchor="start" x="538.594" y="-1183.9" font-family="Arial" font-size="14.00" fill="#666666">[integer]</text>
<polygon fill="none" stroke="#000000" points="486.5,-1142.5 486.5,-1172.5 817.5,-1172.5 817.5,-1142.5 486.5,-1142.5"/>
<text text-anchor="start" x="493.5" y="-1153.9" font-family="Arial" font-size="14.00" fill="#000000">claim_policy    </text>
<text text-anchor="start" x="603.9222" y="-1153.9" font-family="Arial" font-size="14.00" fill="#666666">[integer]</text>
<polygon fill="none" stroke="#000000" points="486.5,-1112.5 486.5,-1142.5 817.5,-1142.5 817.5,-1112.5 486.5,-1112.5"/>
<text text-anchor="start" x="493.5" y="-1123.9" font-family="Arial" font-size="14.00" fill="#000000">action_interval    </text>
<text text-anchor="start" x="617.9446" y="-1123.9" font-family="Arial" font-size="14.00" fill="#666666">[interval]</text>
<polygon fill="none" stroke="#000000" points="486.5,-1082.5 486.5,-1112.5 817.5,-1112.5 817.5,-1082.5 486.5,-1082.5"/>
<text text-anchor="start" x="493.5" y="-1093.9" font-family="Arial" font-size="14.00" fill="#000000">action    </text>
<text text-anchor="start" x="565.0498" y="-1093.9" font-family="Arial" font-size="14.00" fill="#666666">[integer]</text>
</g>
<!-- acq.claim_policy_action&#45;&gt;acq.claim_policy -->
<g id="edge2" class="edge">
<title>acq.claim_policy_action:claim_policy&#45;&gt;acq.claim_policy:id</title>
<path fill="none" stroke="#000000" d="M477.8235,-1152.334C438.9992,-1101.7969 467.4882,-697.5 515.5,-697.5"/>
<polygon fill="#000000" stroke="#000000" points="477.9077,-1152.3841 484.1978,-1161.3665 482.2038,-1154.942 486.5,-1157.5 486.5,-1157.5 486.5,-1157.5 482.2038,-1154.942 488.8022,-1153.6335 477.9077,-1152.3841 477.9077,-1152.3841"/>
<text text-anchor="start" x="493.2195" y="-1167.5" font-family="Arial" font-size="10.00" fill="#000000">FOREIGN KEY (claim_policy) REFERENCES acq.claim_policy(id) ON DELETE CASCADE DEFERRABLE INITIALLY DEFERRED</text>
</g>
<!-- acq.provider -->
<g id="node4" class="node">
<title>acq.provider</title>
<polygon fill="#efefef" stroke="transparent" points="921.5,-1397.5 921.5,-1432.5 1161.5,-1432.5 1161.5,-1397.5 921.5,-1397.5"/>
<polygon fill="none" stroke="#000000" points="921.5,-1397.5 921.5,-1432.5 1161.5,-1432.5 1161.5,-1397.5 921.5,-1397.5"/>
<text text-anchor="start" x="928.207" y="-1410.3" font-family="Arial Bold" font-size="18.00" fill="#000000">acq.provider</text>
<text text-anchor="start" x="1027.225" y="-1410.3" font-family="Arial" font-size="14.00" fill="#000000">    </text>
<text text-anchor="start" x="1061.4298" y="-1410.3" font-family="Arial" font-size="14.00" fill="#666666">[BASE TABLE]</text>
<polygon fill="none" stroke="#000000" points="921.5,-1367.5 921.5,-1397.5 1161.5,-1397.5 1161.5,-1367.5 921.5,-1367.5"/>
<text text-anchor="start" x="928.5" y="-1378.9" font-family="Arial" font-size="14.00" fill="#000000">id    </text>
<text text-anchor="start" x="973.594" y="-1378.9" font-family="Arial" font-size="14.00" fill="#666666">[integer]</text>
<polygon fill="none" stroke="#000000" points="921.5,-1337.5 921.5,-1367.5 1161.5,-1367.5 1161.5,-1337.5 921.5,-1337.5"/>
<text text-anchor="start" x="928.5" y="-1348.9" font-family="Arial" font-size="14.00" fill="#000000">name    </text>
<text text-anchor="start" x="997.7132" y="-1348.9" font-family="Arial" font-size="14.00" fill="#666666">[text]</text>
<polygon fill="none" stroke="#000000" points="921.5,-1307.5 921.5,-1337.5 1161.5,-1337.5 1161.5,-1307.5 921.5,-1307.5"/>
<text text-anchor="start" x="928.5" y="-1318.9" font-family="Arial" font-size="14.00" fill="#000000">owner    </text>
<text text-anchor="start" x="1000.8198" y="-1318.9" font-family="Arial" font-size="14.00" fill="#666666">[integer]</text>
<polygon fill="none" stroke="#000000" points="921.5,-1277.5 921.5,-1307.5 1161.5,-1307.5 1161.5,-1277.5 921.5,-1277.5"/>
<text text-anchor="start" x="928.5" y="-1288.9" font-family="Arial" font-size="14.00" fill="#000000">currency_type    </text>
<text text-anchor="start" x="1050.6122" y="-1288.9" font-family="Arial" font-size="14.00" fill="#666666">[text]</text>
<polygon fill="none" stroke="#000000" points="921.5,-1247.5 921.5,-1277.5 1161.5,-1277.5 1161.5,-1247.5 921.5,-1247.5"/>
<text text-anchor="start" x="928.5" y="-1258.9" font-family="Arial" font-size="14.00" fill="#000000">code    </text>
<text text-anchor="start" x="993.0526" y="-1258.9" font-family="Arial" font-size="14.00" fill="#666666">[text]</text>
<polygon fill="none" stroke="#000000" points="921.5,-1217.5 921.5,-1247.5 1161.5,-1247.5 1161.5,-1217.5 921.5,-1217.5"/>
<text text-anchor="start" x="928.5" y="-1228.9" font-family="Arial" font-size="14.00" fill="#000000">holding_tag    </text>
<text text-anchor="start" x="1035.0694" y="-1228.9" font-family="Arial" font-size="14.00" fill="#666666">[text]</text>
<polygon fill="none" stroke="#000000" points="921.5,-1187.5 921.5,-1217.5 1161.5,-1217.5 1161.5,-1187.5 921.5,-1187.5"/>
<text text-anchor="start" x="928.5" y="-1198.9" font-family="Arial" font-size="14.00" fill="#000000">san    </text>
<text text-anchor="start" x="985.27" y="-1198.9" font-family="Arial" font-size="14.00" fill="#666666">[text]</text>
<polygon fill="none" stroke="#000000" points="921.5,-1157.5 921.5,-1187.5 1161.5,-1187.5 1161.5,-1157.5 921.5,-1157.5"/>
<text text-anchor="start" x="928.5" y="-1168.9" font-family="Arial" font-size="14.00" fill="#000000">edi_default    </text>
<text text-anchor="start" x="1031.1774" y="-1168.9" font-family="Arial" font-size="14.00" fill="#666666">[integer]</text>
<polygon fill="none" stroke="#000000" points="921.5,-1127.5 921.5,-1157.5 1161.5,-1157.5 1161.5,-1127.5 921.5,-1127.5"/>
<text text-anchor="start" x="928.5" y="-1138.9" font-family="Arial" font-size="14.00" fill="#000000">active    </text>
<text text-anchor="start" x="999.2672" y="-1138.9" font-family="Arial" font-size="14.00" fill="#666666">[boolean]</text>
<polygon fill="none" stroke="#000000" points="921.5,-1097.5 921.5,-1127.5 1161.5,-1127.5 1161.5,-1097.5 921.5,-1097.5"/>
<text text-anchor="start" x="928.5" y="-1108.9" font-family="Arial" font-size="14.00" fill="#000000">prepayment_required    </text>
<text text-anchor="start" x="1095.7356" y="-1108.9" font-family="Arial" font-size="14.00" fill="#666666">[boolean]</text>
<polygon fill="none" stroke="#000000" points="921.5,-1067.5 921.5,-1097.5 1161.5,-1097.5 1161.5,-1067.5 921.5,-1067.5"/>
<text text-anchor="start" x="928.5" y="-1078.9" font-family="Arial" font-size="14.00" fill="#000000">url    </text>
<text text-anchor="start" x="978.2546" y="-1078.9" font-family="Arial" font-size="14.00" fill="#666666">[text]</text>
<polygon fill="none" stroke="#000000" points="921.5,-1037.5 921.5,-1067.5 1161.5,-1067.5 1161.5,-1037.5 921.5,-1037.5"/>
<text text-anchor="start" x="928.5" y="-1048.9" font-family="Arial" font-size="14.00" fill="#000000">email    </text>
<text text-anchor="start" x="996.1438" y="-1048.9" font-family="Arial" font-size="14.00" fill="#666666">[text]</text>
<polygon fill="none" stroke="#000000" points="921.5,-1007.5 921.5,-1037.5 1161.5,-1037.5 1161.5,-1007.5 921.5,-1007.5"/>
<text text-anchor="start" x="928.5" y="-1018.9" font-family="Arial" font-size="14.00" fill="#000000">phone    </text>
<text text-anchor="start" x="1001.6178" y="-1018.9" font-family="Arial" font-size="14.00" fill="#666666">[text]</text>
<polygon fill="none" stroke="#000000" points="921.5,-977.5 921.5,-1007.5 1161.5,-1007.5 1161.5,-977.5 921.5,-977.5"/>
<text text-anchor="start" x="928.5" y="-988.9" font-family="Arial" font-size="14.00" fill="#000000">fax_phone    </text>
<text text-anchor="start" x="1028.0736" y="-988.9" font-family="Arial" font-size="14.00" fill="#666666">[text]</text>
<polygon fill="none" stroke="#000000" points="921.5,-947.5 921.5,-977.5 1161.5,-977.5 1161.5,-947.5 921.5,-947.5"/>
<text text-anchor="start" x="928.5" y="-958.9" font-family="Arial" font-size="14.00" fill="#000000">default_copy_count    </text>
<text text-anchor="start" x="1084.0918" y="-958.9" font-family="Arial" font-size="14.00" fill="#666666">[integer]</text>
<polygon fill="none" stroke="#000000" points="921.5,-917.5 921.5,-947.5 1161.5,-947.5 1161.5,-917.5 921.5,-917.5"/>
<text text-anchor="start" x="928.5" y="-928.9" font-family="Arial" font-size="14.00" fill="#000000">default_claim_policy    </text>
<text text-anchor="start" x="1088.723" y="-928.9" font-family="Arial" font-size="14.00" fill="#666666">[integer]</text>
<polygon fill="none" stroke="#000000" points="921.5,-887.5 921.5,-917.5 1161.5,-917.5 1161.5,-887.5 921.5,-887.5"/>
<text text-anchor="start" x="928.5" y="-898.9" font-family="Arial" font-size="14.00" fill="#000000">primary_contact    </text>
<text text-anchor="start" x="1062.27" y="-898.9" font-family="Arial" font-size="14.00" fill="#666666">[integer]</text>
</g>
<!-- acq.provider&#45;&gt;acq.claim_policy -->
<g id="edge3" class="edge">
<title>acq.provider:default_claim_policy&#45;&gt;acq.claim_policy:id</title>
<path fill="none" stroke="#000000" d="M911.3159,-931.5724C873.7076,-923.9794 892.5491,-871.2942 869.5,-830 835.8602,-769.7318 857.521,-697.5 788.5,-697.5"/>
<polygon fill="#000000" stroke="#000000" points="911.5412,-931.5928 921.0918,-936.9814 916.5206,-932.0464 921.5,-932.5 921.5,-932.5 921.5,-932.5 916.5206,-932.0464 921.9082,-928.0186 911.5412,-931.5928 911.5412,-931.5928"/>
<text text-anchor="start" x="928.7145" y="-942.5" font-family="Arial" font-size="10.00" fill="#000000">FOREIGN KEY (default_claim_policy) REFERENCES acq.claim_policy(id) DEFERRABLE INITIALLY DEFERRED</text>
</g>
</g>
</svg>
