<?xml version="1.0" encoding="UTF-8" standalone="no"?>
<!DOCTYPE svg PUBLIC "-//W3C//DTD SVG 1.1//EN"
 "http://www.w3.org/Graphics/SVG/1.1/DTD/svg11.dtd">
<!-- Generated by graphviz version 2.40.1 (20161225.0304)
 -->
<!-- Title: acq.fiscal_calendar Pages: 1 -->
<svg width="997pt" height="742pt"
 viewBox="0.00 0.00 996.50 742.00" xmlns="http://www.w3.org/2000/svg" xmlns:xlink="http://www.w3.org/1999/xlink">
<g id="graph0" class="graph" transform="scale(1 1) rotate(0) translate(4 738)">
<title>acq.fiscal_calendar</title>
<polygon fill="#ffffff" stroke="transparent" points="-4,4 -4,-738 992.5,-738 992.5,4 -4,4"/>
<!-- acq.fiscal_calendar -->
<g id="node1" class="node">
<title>acq.fiscal_calendar</title>
<polygon fill="#efefef" stroke="transparent" points="206.5,-105.5 206.5,-140.5 501.5,-140.5 501.5,-105.5 206.5,-105.5"/>
<polygon fill="none" stroke="#000000" points="206.5,-105.5 206.5,-140.5 501.5,-140.5 501.5,-105.5 206.5,-105.5"/>
<text text-anchor="start" x="213.1985" y="-118.3" font-family="Arial Bold" font-size="18.00" fill="#000000">acq.fiscal_calendar</text>
<text text-anchor="start" x="367.2335" y="-118.3" font-family="Arial" font-size="14.00" fill="#000000">    </text>
<text text-anchor="start" x="401.4383" y="-118.3" font-family="Arial" font-size="14.00" fill="#666666">[BASE TABLE]</text>
<polygon fill="none" stroke="#000000" points="206.5,-75.5 206.5,-105.5 501.5,-105.5 501.5,-75.5 206.5,-75.5"/>
<text text-anchor="start" x="213.5" y="-86.9" font-family="Arial" font-size="14.00" fill="#000000">id </text>
<text text-anchor="start" x="228.2798" y="-86.9" font-family="Arial" font-size="14.00" fill="#666666">[integer]</text>
<polygon fill="none" stroke="#000000" points="206.5,-45.5 206.5,-75.5 501.5,-75.5 501.5,-45.5 206.5,-45.5"/>
<text text-anchor="start" x="213.5" y="-56.9" font-family="Arial" font-size="14.00" fill="#000000">name </text>
<text text-anchor="start" x="252.399" y="-56.9" font-family="Arial" font-size="14.00" fill="#666666">[text]</text>
<polygon fill="none" stroke="#000000" stroke-width="3" points="204.5,-44.5 204.5,-142.5 502.5,-142.5 502.5,-44.5 204.5,-44.5"/>
</g>
<!-- actor.org_unit -->
<g id="node2" class="node">
<title>actor.org_unit</title>
<polygon fill="#efefef" stroke="transparent" points="43.5,-655.5 43.5,-690.5 294.5,-690.5 294.5,-655.5 43.5,-655.5"/>
<polygon fill="none" stroke="#000000" points="43.5,-655.5 43.5,-690.5 294.5,-690.5 294.5,-655.5 43.5,-655.5"/>
<text text-anchor="start" x="50.2017" y="-668.3" font-family="Arial Bold" font-size="18.00" fill="#000000">actor.org_unit</text>
<text text-anchor="start" x="160.2303" y="-668.3" font-family="Arial" font-size="14.00" fill="#000000">    </text>
<text text-anchor="start" x="194.4351" y="-668.3" font-family="Arial" font-size="14.00" fill="#666666">[BASE TABLE]</text>
<polygon fill="none" stroke="#000000" points="43.5,-625.5 43.5,-655.5 294.5,-655.5 294.5,-625.5 43.5,-625.5"/>
<text text-anchor="start" x="50.5" y="-636.9" font-family="Arial" font-size="14.00" fill="#000000">id    </text>
<text text-anchor="start" x="95.594" y="-636.9" font-family="Arial" font-size="14.00" fill="#666666">[integer]</text>
<polygon fill="none" stroke="#000000" points="43.5,-595.5 43.5,-625.5 294.5,-625.5 294.5,-595.5 43.5,-595.5"/>
<text text-anchor="start" x="50.5" y="-606.9" font-family="Arial" font-size="14.00" fill="#000000">parent_ou    </text>
<text text-anchor="start" x="147.7342" y="-606.9" font-family="Arial" font-size="14.00" fill="#666666">[integer]</text>
<polygon fill="none" stroke="#000000" points="43.5,-565.5 43.5,-595.5 294.5,-595.5 294.5,-565.5 43.5,-565.5"/>
<text text-anchor="start" x="50.5" y="-576.9" font-family="Arial" font-size="14.00" fill="#000000">ou_type    </text>
<text text-anchor="start" x="134.5084" y="-576.9" font-family="Arial" font-size="14.00" fill="#666666">[integer]</text>
<polygon fill="none" stroke="#000000" points="43.5,-535.5 43.5,-565.5 294.5,-565.5 294.5,-535.5 43.5,-535.5"/>
<text text-anchor="start" x="50.5" y="-546.9" font-family="Arial" font-size="14.00" fill="#000000">ill_address    </text>
<text text-anchor="start" x="151.5982" y="-546.9" font-family="Arial" font-size="14.00" fill="#666666">[integer]</text>
<polygon fill="none" stroke="#000000" points="43.5,-505.5 43.5,-535.5 294.5,-535.5 294.5,-505.5 43.5,-505.5"/>
<text text-anchor="start" x="50.5" y="-516.9" font-family="Arial" font-size="14.00" fill="#000000">holds_address    </text>
<text text-anchor="start" x="175.7328" y="-516.9" font-family="Arial" font-size="14.00" fill="#666666">[integer]</text>
<polygon fill="none" stroke="#000000" points="43.5,-475.5 43.5,-505.5 294.5,-505.5 294.5,-475.5 43.5,-475.5"/>
<text text-anchor="start" x="50.5" y="-486.9" font-family="Arial" font-size="14.00" fill="#000000">mailing_address    </text>
<text text-anchor="start" x="186.6066" y="-486.9" font-family="Arial" font-size="14.00" fill="#666666">[integer]</text>
<polygon fill="none" stroke="#000000" points="43.5,-445.5 43.5,-475.5 294.5,-475.5 294.5,-445.5 43.5,-445.5"/>
<text text-anchor="start" x="50.5" y="-456.9" font-family="Arial" font-size="14.00" fill="#000000">billing_address    </text>
<text text-anchor="start" x="178.0526" y="-456.9" font-family="Arial" font-size="14.00" fill="#666666">[integer]</text>
<polygon fill="none" stroke="#000000" points="43.5,-415.5 43.5,-445.5 294.5,-445.5 294.5,-415.5 43.5,-415.5"/>
<text text-anchor="start" x="50.5" y="-426.9" font-family="Arial" font-size="14.00" fill="#000000">shortname    </text>
<text text-anchor="start" x="150.8296" y="-426.9" font-family="Arial" font-size="14.00" fill="#666666">[text]</text>
<polygon fill="none" stroke="#000000" points="43.5,-385.5 43.5,-415.5 294.5,-415.5 294.5,-385.5 43.5,-385.5"/>
<text text-anchor="start" x="50.5" y="-396.9" font-family="Arial" font-size="14.00" fill="#000000">name    </text>
<text text-anchor="start" x="119.7132" y="-396.9" font-family="Arial" font-size="14.00" fill="#666666">[text]</text>
<polygon fill="none" stroke="#000000" points="43.5,-355.5 43.5,-385.5 294.5,-385.5 294.5,-355.5 43.5,-355.5"/>
<text text-anchor="start" x="50.5" y="-366.9" font-family="Arial" font-size="14.00" fill="#000000">email    </text>
<text text-anchor="start" x="118.1438" y="-366.9" font-family="Arial" font-size="14.00" fill="#666666">[text]</text>
<polygon fill="none" stroke="#000000" points="43.5,-325.5 43.5,-355.5 294.5,-355.5 294.5,-325.5 43.5,-325.5"/>
<text text-anchor="start" x="50.5" y="-336.9" font-family="Arial" font-size="14.00" fill="#000000">phone    </text>
<text text-anchor="start" x="123.6178" y="-336.9" font-family="Arial" font-size="14.00" fill="#666666">[text]</text>
<polygon fill="none" stroke="#000000" points="43.5,-295.5 43.5,-325.5 294.5,-325.5 294.5,-295.5 43.5,-295.5"/>
<text text-anchor="start" x="50.5" y="-306.9" font-family="Arial" font-size="14.00" fill="#000000">opac_visible    </text>
<text text-anchor="start" x="161.7202" y="-306.9" font-family="Arial" font-size="14.00" fill="#666666">[boolean]</text>
<polygon fill="none" stroke="#000000" points="43.5,-265.5 43.5,-295.5 294.5,-295.5 294.5,-265.5 43.5,-265.5"/>
<text text-anchor="start" x="50.5" y="-276.9" font-family="Arial" font-size="14.00" fill="#000000">fiscal_calendar    </text>
<text text-anchor="start" x="178.054" y="-276.9" font-family="Arial" font-size="14.00" fill="#666666">[integer]</text>
</g>
<!-- actor.org_unit&#45;&gt;acq.fiscal_calendar -->
<g id="edge1" class="edge">
<title>actor.org_unit:fiscal_calendar&#45;&gt;acq.fiscal_calendar:id</title>
<path fill="none" stroke="#000000" d="M304.251,-277.797C316.2651,-269.0003 306.4074,-240.7365 294.5,-223 270.9462,-187.9158 230.0538,-222.0842 206.5,-187 182.5942,-151.3915 163.6111,-90.5 206.5,-90.5"/>
<polygon fill="#000000" stroke="#000000" points="304.1366,-277.8286 293.2979,-276.1635 299.3183,-279.1643 294.5,-280.5 294.5,-280.5 294.5,-280.5 299.3183,-279.1643 295.7021,-284.8365 304.1366,-277.8286 304.1366,-277.8286"/>
<text text-anchor="start" x="301.2635" y="-290.5" font-family="Arial" font-size="10.00" fill="#000000">FOREIGN KEY (fiscal_calendar) REFERENCES acq.fiscal_calendar(id) DEFERRABLE INITIALLY DEFERRED</text>
</g>
<!-- acq.fiscal_year -->
<g id="node3" class="node">
<title>acq.fiscal_year</title>
<polygon fill="#efefef" stroke="transparent" points="398.5,-535.5 398.5,-570.5 681.5,-570.5 681.5,-535.5 398.5,-535.5"/>
<polygon fill="none" stroke="#000000" points="398.5,-535.5 398.5,-570.5 681.5,-570.5 681.5,-535.5 398.5,-535.5"/>
<text text-anchor="start" x="416.2049" y="-548.3" font-family="Arial Bold" font-size="18.00" fill="#000000">acq.fiscal_year</text>
<text text-anchor="start" x="536.2271" y="-548.3" font-family="Arial" font-size="14.00" fill="#000000">    </text>
<text text-anchor="start" x="570.4319" y="-548.3" font-family="Arial" font-size="14.00" fill="#666666">[BASE TABLE]</text>
<polygon fill="none" stroke="#000000" points="398.5,-505.5 398.5,-535.5 681.5,-535.5 681.5,-505.5 398.5,-505.5"/>
<text text-anchor="start" x="405.5" y="-516.9" font-family="Arial" font-size="14.00" fill="#000000">id    </text>
<text text-anchor="start" x="450.594" y="-516.9" font-family="Arial" font-size="14.00" fill="#666666">[integer]</text>
<polygon fill="none" stroke="#000000" points="398.5,-475.5 398.5,-505.5 681.5,-505.5 681.5,-475.5 398.5,-475.5"/>
<text text-anchor="start" x="405.5" y="-486.9" font-family="Arial" font-size="14.00" fill="#000000">calendar    </text>
<text text-anchor="start" x="493.385" y="-486.9" font-family="Arial" font-size="14.00" fill="#666666">[integer]</text>
<polygon fill="none" stroke="#000000" points="398.5,-445.5 398.5,-475.5 681.5,-475.5 681.5,-445.5 398.5,-445.5"/>
<text text-anchor="start" x="405.5" y="-456.9" font-family="Arial" font-size="14.00" fill="#000000">year    </text>
<text text-anchor="start" x="466.9306" y="-456.9" font-family="Arial" font-size="14.00" fill="#666666">[integer]</text>
<polygon fill="none" stroke="#000000" points="398.5,-415.5 398.5,-445.5 681.5,-445.5 681.5,-415.5 398.5,-415.5"/>
<text text-anchor="start" x="405.4327" y="-426.9" font-family="Arial" font-size="14.00" fill="#000000">year_begin    </text>
<text text-anchor="start" x="508.8829" y="-426.9" font-family="Arial" font-size="14.00" fill="#666666">[timestamp with time zone]</text>
<polygon fill="none" stroke="#000000" points="398.5,-385.5 398.5,-415.5 681.5,-415.5 681.5,-385.5 398.5,-385.5"/>
<text text-anchor="start" x="405.5" y="-396.9" font-family="Arial" font-size="14.00" fill="#000000">year_end    </text>
<text text-anchor="start" x="498.061" y="-396.9" font-family="Arial" font-size="14.00" fill="#666666">[timestamp with time zone]</text>
</g>
<!-- acq.fiscal_year&#45;&gt;acq.fiscal_calendar -->
<g id="edge2" class="edge">
<title>acq.fiscal_year:calendar&#45;&gt;acq.fiscal_calendar:id</title>
<path fill="none" stroke="#000000" d="M388.4156,-489.704C338.1452,-480.9737 380.7108,-402.2287 398.5,-343 422.399,-263.4289 477.601,-266.5711 501.5,-187 513.8371,-145.9238 544.3889,-90.5 501.5,-90.5"/>
<polygon fill="#000000" stroke="#000000" points="388.531,-489.7131 398.1459,-494.986 393.5155,-490.1065 398.5,-490.5 398.5,-490.5 398.5,-490.5 393.5155,-490.1065 398.8541,-486.014 388.531,-489.7131 388.531,-489.7131"/>
<text text-anchor="start" x="405.15" y="-500.5" font-family="Arial" font-size="10.00" fill="#000000">FOREIGN KEY (calendar) REFERENCES acq.fiscal_calendar(id) ON DELETE CASCADE DEFERRABLE INITIALLY DEFERRED</text>
</g>
</g>
</svg>
