<?xml version="1.0" encoding="UTF-8" standalone="no"?>
<!DOCTYPE svg PUBLIC "-//W3C//DTD SVG 1.1//EN"
 "http://www.w3.org/Graphics/SVG/1.1/DTD/svg11.dtd">
<!-- Generated by graphviz version 2.40.1 (20161225.0304)
 -->
<!-- Title: acq.provider_contact_address Pages: 1 -->
<svg width="917pt" height="832pt"
 viewBox="0.00 0.00 917.00 832.00" xmlns="http://www.w3.org/2000/svg" xmlns:xlink="http://www.w3.org/1999/xlink">
<g id="graph0" class="graph" transform="scale(1 1) rotate(0) translate(4 828)">
<title>acq.provider_contact_address</title>
<polygon fill="#ffffff" stroke="transparent" points="-4,4 -4,-828 913,-828 913,4 -4,4"/>
<!-- acq.provider_contact_address -->
<g id="node1" class="node">
<title>acq.provider_contact_address</title>
<polygon fill="#efefef" stroke="transparent" points="46,-742.5 46,-777.5 428,-777.5 428,-742.5 46,-742.5"/>
<polygon fill="none" stroke="#000000" points="46,-742.5 46,-777.5 428,-777.5 428,-742.5 46,-742.5"/>
<text text-anchor="start" x="52.6808" y="-755.3" font-family="Arial Bold" font-size="18.00" fill="#000000">acq.provider_contact_address</text>
<text text-anchor="start" x="293.7512" y="-755.3" font-family="Arial" font-size="14.00" fill="#000000">    </text>
<text text-anchor="start" x="327.956" y="-755.3" font-family="Arial" font-size="14.00" fill="#666666">[BASE TABLE]</text>
<polygon fill="none" stroke="#000000" points="46,-712.5 46,-742.5 428,-742.5 428,-712.5 46,-712.5"/>
<text text-anchor="start" x="53" y="-723.9" font-family="Arial" font-size="14.00" fill="#000000">id </text>
<text text-anchor="start" x="67.7798" y="-723.9" font-family="Arial" font-size="14.00" fill="#666666">[integer]</text>
<polygon fill="none" stroke="#000000" points="46,-682.5 46,-712.5 428,-712.5 428,-682.5 46,-682.5"/>
<text text-anchor="start" x="53" y="-693.9" font-family="Arial" font-size="14.00" fill="#000000">valid </text>
<text text-anchor="start" x="85.669" y="-693.9" font-family="Arial" font-size="14.00" fill="#666666">[boolean]</text>
<polygon fill="none" stroke="#000000" points="46,-652.5 46,-682.5 428,-682.5 428,-652.5 46,-652.5"/>
<text text-anchor="start" x="53" y="-663.9" font-family="Arial" font-size="14.00" fill="#000000">address_type </text>
<text text-anchor="start" x="140.92" y="-663.9" font-family="Arial" font-size="14.00" fill="#666666">[text]</text>
<polygon fill="none" stroke="#000000" points="46,-622.5 46,-652.5 428,-652.5 428,-622.5 46,-622.5"/>
<text text-anchor="start" x="53" y="-633.9" font-family="Arial" font-size="14.00" fill="#000000">contact </text>
<text text-anchor="start" x="102.0196" y="-633.9" font-family="Arial" font-size="14.00" fill="#666666">[integer]</text>
<polygon fill="none" stroke="#000000" points="46,-592.5 46,-622.5 428,-622.5 428,-592.5 46,-592.5"/>
<text text-anchor="start" x="53" y="-603.9" font-family="Arial" font-size="14.00" fill="#000000">street1 </text>
<text text-anchor="start" x="99.6802" y="-603.9" font-family="Arial" font-size="14.00" fill="#666666">[text]</text>
<polygon fill="none" stroke="#000000" points="46,-562.5 46,-592.5 428,-592.5 428,-562.5 46,-562.5"/>
<text text-anchor="start" x="53" y="-573.9" font-family="Arial" font-size="14.00" fill="#000000">street2 </text>
<text text-anchor="start" x="99.6802" y="-573.9" font-family="Arial" font-size="14.00" fill="#666666">[text]</text>
<polygon fill="none" stroke="#000000" points="46,-532.5 46,-562.5 428,-562.5 428,-532.5 46,-532.5"/>
<text text-anchor="start" x="53" y="-543.9" font-family="Arial" font-size="14.00" fill="#000000">city </text>
<text text-anchor="start" x="77.8878" y="-543.9" font-family="Arial" font-size="14.00" fill="#666666">[text]</text>
<polygon fill="none" stroke="#000000" points="46,-502.5 46,-532.5 428,-532.5 428,-502.5 46,-502.5"/>
<text text-anchor="start" x="53" y="-513.9" font-family="Arial" font-size="14.00" fill="#000000">county </text>
<text text-anchor="start" x="98.129" y="-513.9" font-family="Arial" font-size="14.00" fill="#666666">[text]</text>
<polygon fill="none" stroke="#000000" points="46,-472.5 46,-502.5 428,-502.5 428,-472.5 46,-472.5"/>
<text text-anchor="start" x="53" y="-483.9" font-family="Arial" font-size="14.00" fill="#000000">state </text>
<text text-anchor="start" x="87.237" y="-483.9" font-family="Arial" font-size="14.00" fill="#666666">[text]</text>
<polygon fill="none" stroke="#000000" points="46,-442.5 46,-472.5 428,-472.5 428,-442.5 46,-442.5"/>
<text text-anchor="start" x="53" y="-453.9" font-family="Arial" font-size="14.00" fill="#000000">country </text>
<text text-anchor="start" x="102.7896" y="-453.9" font-family="Arial" font-size="14.00" fill="#666666">[text]</text>
<polygon fill="none" stroke="#000000" points="46,-412.5 46,-442.5 428,-442.5 428,-412.5 46,-412.5"/>
<text text-anchor="start" x="53" y="-423.9" font-family="Arial" font-size="14.00" fill="#000000">post_code </text>
<text text-anchor="start" x="121.4768" y="-423.9" font-family="Arial" font-size="14.00" fill="#666666">[text]</text>
<polygon fill="none" stroke="#000000" points="46,-382.5 46,-412.5 428,-412.5 428,-382.5 46,-382.5"/>
<text text-anchor="start" x="53" y="-393.9" font-family="Arial" font-size="14.00" fill="#000000">fax_phone </text>
<text text-anchor="start" x="122.2594" y="-393.9" font-family="Arial" font-size="14.00" fill="#666666">[text]</text>
<polygon fill="none" stroke="#000000" stroke-width="3" points="44.5,-381.5 44.5,-779.5 429.5,-779.5 429.5,-381.5 44.5,-381.5"/>
</g>
<!-- acq.provider_contact -->
<g id="node2" class="node">
<title>acq.provider_contact</title>
<polygon fill="#efefef" stroke="transparent" points="83,-222.5 83,-257.5 391,-257.5 391,-222.5 83,-222.5"/>
<polygon fill="none" stroke="#000000" points="83,-222.5 83,-257.5 391,-257.5 391,-222.5 83,-222.5"/>
<text text-anchor="start" x="89.6924" y="-235.3" font-family="Arial Bold" font-size="18.00" fill="#000000">acq.provider_contact</text>
<text text-anchor="start" x="256.7396" y="-235.3" font-family="Arial" font-size="14.00" fill="#000000">    </text>
<text text-anchor="start" x="290.9444" y="-235.3" font-family="Arial" font-size="14.00" fill="#666666">[BASE TABLE]</text>
<polygon fill="none" stroke="#000000" points="83,-192.5 83,-222.5 391,-222.5 391,-192.5 83,-192.5"/>
<text text-anchor="start" x="90" y="-203.9" font-family="Arial" font-size="14.00" fill="#000000">id    </text>
<text text-anchor="start" x="135.094" y="-203.9" font-family="Arial" font-size="14.00" fill="#666666">[integer]</text>
<polygon fill="none" stroke="#000000" points="83,-162.5 83,-192.5 391,-192.5 391,-162.5 83,-162.5"/>
<text text-anchor="start" x="90" y="-173.9" font-family="Arial" font-size="14.00" fill="#000000">provider    </text>
<text text-anchor="start" x="174.763" y="-173.9" font-family="Arial" font-size="14.00" fill="#666666">[integer]</text>
<polygon fill="none" stroke="#000000" points="83,-132.5 83,-162.5 391,-162.5 391,-132.5 83,-132.5"/>
<text text-anchor="start" x="90" y="-143.9" font-family="Arial" font-size="14.00" fill="#000000">name    </text>
<text text-anchor="start" x="159.2132" y="-143.9" font-family="Arial" font-size="14.00" fill="#666666">[text]</text>
<polygon fill="none" stroke="#000000" points="83,-102.5 83,-132.5 391,-132.5 391,-102.5 83,-102.5"/>
<text text-anchor="start" x="90" y="-113.9" font-family="Arial" font-size="14.00" fill="#000000">role    </text>
<text text-anchor="start" x="147.5372" y="-113.9" font-family="Arial" font-size="14.00" fill="#666666">[text]</text>
<polygon fill="none" stroke="#000000" points="83,-72.5 83,-102.5 391,-102.5 391,-72.5 83,-72.5"/>
<text text-anchor="start" x="90" y="-83.9" font-family="Arial" font-size="14.00" fill="#000000">email    </text>
<text text-anchor="start" x="157.6438" y="-83.9" font-family="Arial" font-size="14.00" fill="#666666">[text]</text>
<polygon fill="none" stroke="#000000" points="83,-42.5 83,-72.5 391,-72.5 391,-42.5 83,-42.5"/>
<text text-anchor="start" x="90" y="-53.9" font-family="Arial" font-size="14.00" fill="#000000">phone    </text>
<text text-anchor="start" x="163.1178" y="-53.9" font-family="Arial" font-size="14.00" fill="#666666">[text]</text>
</g>
<!-- acq.provider_contact_address&#45;&gt;acq.provider_contact -->
<g id="edge1" class="edge">
<title>acq.provider_contact_address:contact&#45;&gt;acq.provider_contact:id</title>
<path fill="none" stroke="#000000" d="M437.8793,-635.8564C521.1579,-606.9872 483.4432,-207.5 391,-207.5"/>
<polygon fill="#000000" stroke="#000000" points="437.8644,-635.8588 427.2614,-633.061 432.9322,-636.6794 428,-637.5 428,-637.5 428,-637.5 432.9322,-636.6794 428.7386,-641.939 437.8644,-635.8588 437.8644,-635.8588"/>
<text text-anchor="start" x="435.3705" y="-647.5" font-family="Arial" font-size="10.00" fill="#000000">FOREIGN KEY (contact) REFERENCES acq.provider_contact(id) DEFERRABLE INITIALLY DEFERRED</text>
</g>
</g>
</svg>
