<?xml version="1.0" encoding="UTF-8" standalone="no"?>
<!DOCTYPE svg PUBLIC "-//W3C//DTD SVG 1.1//EN"
 "http://www.w3.org/Graphics/SVG/1.1/DTD/svg11.dtd">
<!-- Generated by graphviz version 2.40.1 (20161225.0304)
 -->
<!-- Title: acq.invoice_item_type Pages: 1 -->
<svg width="996pt" height="832pt"
 viewBox="0.00 0.00 996.00 832.00" xmlns="http://www.w3.org/2000/svg" xmlns:xlink="http://www.w3.org/1999/xlink">
<g id="graph0" class="graph" transform="scale(1 1) rotate(0) translate(4 828)">
<title>acq.invoice_item_type</title>
<polygon fill="#ffffff" stroke="transparent" points="-4,4 -4,-828 992,-828 992,4 -4,4"/>
<!-- acq.invoice_item_type -->
<g id="node1" class="node">
<title>acq.invoice_item_type</title>
<polygon fill="#efefef" stroke="transparent" points="237,-165.5 237,-200.5 556,-200.5 556,-165.5 237,-165.5"/>
<polygon fill="none" stroke="#000000" points="237,-165.5 237,-200.5 556,-200.5 556,-165.5 237,-165.5"/>
<text text-anchor="start" x="243.6943" y="-178.3" font-family="Arial Bold" font-size="18.00" fill="#000000">acq.invoice_item_type</text>
<text text-anchor="start" x="421.7377" y="-178.3" font-family="Arial" font-size="14.00" fill="#000000">    </text>
<text text-anchor="start" x="455.9425" y="-178.3" font-family="Arial" font-size="14.00" fill="#666666">[BASE TABLE]</text>
<polygon fill="none" stroke="#000000" points="237,-135.5 237,-165.5 556,-165.5 556,-135.5 237,-135.5"/>
<text text-anchor="start" x="244" y="-146.9" font-family="Arial" font-size="14.00" fill="#000000">code </text>
<text text-anchor="start" x="278.2384" y="-146.9" font-family="Arial" font-size="14.00" fill="#666666">[text]</text>
<polygon fill="none" stroke="#000000" points="237,-105.5 237,-135.5 556,-135.5 556,-105.5 237,-105.5"/>
<text text-anchor="start" x="244" y="-116.9" font-family="Arial" font-size="14.00" fill="#000000">name </text>
<text text-anchor="start" x="282.899" y="-116.9" font-family="Arial" font-size="14.00" fill="#666666">[text]</text>
<polygon fill="none" stroke="#000000" points="237,-75.5 237,-105.5 556,-105.5 556,-75.5 237,-75.5"/>
<text text-anchor="start" x="244" y="-86.9" font-family="Arial" font-size="14.00" fill="#000000">prorate </text>
<text text-anchor="start" x="292.2328" y="-86.9" font-family="Arial" font-size="14.00" fill="#666666">[boolean]</text>
<polygon fill="none" stroke="#000000" points="237,-45.5 237,-75.5 556,-75.5 556,-45.5 237,-45.5"/>
<text text-anchor="start" x="244" y="-56.9" font-family="Arial" font-size="14.00" fill="#000000">blanket </text>
<text text-anchor="start" x="293.0182" y="-56.9" font-family="Arial" font-size="14.00" fill="#666666">[boolean]</text>
<polygon fill="none" stroke="#000000" stroke-width="3" points="235,-44.5 235,-202.5 557,-202.5 557,-44.5 235,-44.5"/>
</g>
<!-- acq.invoice_item -->
<g id="node2" class="node">
<title>acq.invoice_item</title>
<polygon fill="#efefef" stroke="transparent" points="79,-745.5 79,-780.5 354,-780.5 354,-745.5 79,-745.5"/>
<polygon fill="none" stroke="#000000" points="79,-745.5 79,-780.5 354,-780.5 354,-745.5 79,-745.5"/>
<text text-anchor="start" x="85.7047" y="-758.3" font-family="Arial Bold" font-size="18.00" fill="#000000">acq.invoice_item</text>
<text text-anchor="start" x="219.7273" y="-758.3" font-family="Arial" font-size="14.00" fill="#000000">    </text>
<text text-anchor="start" x="253.9321" y="-758.3" font-family="Arial" font-size="14.00" fill="#666666">[BASE TABLE]</text>
<polygon fill="none" stroke="#000000" points="79,-715.5 79,-745.5 354,-745.5 354,-715.5 79,-715.5"/>
<text text-anchor="start" x="86" y="-726.9" font-family="Arial" font-size="14.00" fill="#000000">id    </text>
<text text-anchor="start" x="131.094" y="-726.9" font-family="Arial" font-size="14.00" fill="#666666">[integer]</text>
<polygon fill="none" stroke="#000000" points="79,-685.5 79,-715.5 354,-715.5 354,-685.5 79,-685.5"/>
<text text-anchor="start" x="86" y="-696.9" font-family="Arial" font-size="14.00" fill="#000000">invoice    </text>
<text text-anchor="start" x="163.7658" y="-696.9" font-family="Arial" font-size="14.00" fill="#666666">[integer]</text>
<polygon fill="none" stroke="#000000" points="79,-655.5 79,-685.5 354,-685.5 354,-655.5 79,-655.5"/>
<text text-anchor="start" x="86" y="-666.9" font-family="Arial" font-size="14.00" fill="#000000">purchase_order    </text>
<text text-anchor="start" x="218.23" y="-666.9" font-family="Arial" font-size="14.00" fill="#666666">[integer]</text>
<polygon fill="none" stroke="#000000" points="79,-625.5 79,-655.5 354,-655.5 354,-625.5 79,-625.5"/>
<text text-anchor="start" x="86" y="-636.9" font-family="Arial" font-size="14.00" fill="#000000">fund_debit    </text>
<text text-anchor="start" x="185.5708" y="-636.9" font-family="Arial" font-size="14.00" fill="#666666">[integer]</text>
<polygon fill="none" stroke="#000000" points="79,-595.5 79,-625.5 354,-625.5 354,-595.5 79,-595.5"/>
<text text-anchor="start" x="86" y="-606.9" font-family="Arial" font-size="14.00" fill="#000000">inv_item_type    </text>
<text text-anchor="start" x="206.5554" y="-606.9" font-family="Arial" font-size="14.00" fill="#666666">[text]</text>
<polygon fill="none" stroke="#000000" points="79,-565.5 79,-595.5 354,-595.5 354,-565.5 79,-565.5"/>
<text text-anchor="start" x="86" y="-576.9" font-family="Arial" font-size="14.00" fill="#000000">title    </text>
<text text-anchor="start" x="141.9818" y="-576.9" font-family="Arial" font-size="14.00" fill="#666666">[text]</text>
<polygon fill="none" stroke="#000000" points="79,-535.5 79,-565.5 354,-565.5 354,-535.5 79,-535.5"/>
<text text-anchor="start" x="86" y="-546.9" font-family="Arial" font-size="14.00" fill="#000000">author    </text>
<text text-anchor="start" x="159.8864" y="-546.9" font-family="Arial" font-size="14.00" fill="#666666">[text]</text>
<polygon fill="none" stroke="#000000" points="79,-505.5 79,-535.5 354,-535.5 354,-505.5 79,-505.5"/>
<text text-anchor="start" x="86" y="-516.9" font-family="Arial" font-size="14.00" fill="#000000">note    </text>
<text text-anchor="start" x="147.4432" y="-516.9" font-family="Arial" font-size="14.00" fill="#666666">[text]</text>
<polygon fill="none" stroke="#000000" points="79,-475.5 79,-505.5 354,-505.5 354,-475.5 79,-475.5"/>
<text text-anchor="start" x="86" y="-486.9" font-family="Arial" font-size="14.00" fill="#000000">cost_billed    </text>
<text text-anchor="start" x="186.3282" y="-486.9" font-family="Arial" font-size="14.00" fill="#666666">[numeric(8,2)]</text>
<polygon fill="none" stroke="#000000" points="79,-445.5 79,-475.5 354,-475.5 354,-445.5 79,-445.5"/>
<text text-anchor="start" x="86" y="-456.9" font-family="Arial" font-size="14.00" fill="#000000">actual_cost    </text>
<text text-anchor="start" x="191.0056" y="-456.9" font-family="Arial" font-size="14.00" fill="#666666">[numeric(8,2)]</text>
<polygon fill="none" stroke="#000000" points="79,-415.5 79,-445.5 354,-445.5 354,-415.5 79,-415.5"/>
<text text-anchor="start" x="86" y="-426.9" font-family="Arial" font-size="14.00" fill="#000000">fund    </text>
<text text-anchor="start" x="147.4432" y="-426.9" font-family="Arial" font-size="14.00" fill="#666666">[integer]</text>
<polygon fill="none" stroke="#000000" points="79,-385.5 79,-415.5 354,-415.5 354,-385.5 79,-385.5"/>
<text text-anchor="start" x="86" y="-396.9" font-family="Arial" font-size="14.00" fill="#000000">amount_paid    </text>
<text text-anchor="start" x="201.1234" y="-396.9" font-family="Arial" font-size="14.00" fill="#666666">[numeric(8,2)]</text>
<polygon fill="none" stroke="#000000" points="79,-355.5 79,-385.5 354,-385.5 354,-355.5 79,-355.5"/>
<text text-anchor="start" x="86" y="-366.9" font-family="Arial" font-size="14.00" fill="#000000">po_item    </text>
<text text-anchor="start" x="169.993" y="-366.9" font-family="Arial" font-size="14.00" fill="#666666">[integer]</text>
<polygon fill="none" stroke="#000000" points="79,-325.5 79,-355.5 354,-355.5 354,-325.5 79,-325.5"/>
<text text-anchor="start" x="86" y="-336.9" font-family="Arial" font-size="14.00" fill="#000000">target    </text>
<text text-anchor="start" x="155.9944" y="-336.9" font-family="Arial" font-size="14.00" fill="#666666">[bigint]</text>
</g>
<!-- acq.invoice_item&#45;&gt;acq.invoice_item_type -->
<g id="edge1" class="edge">
<title>acq.invoice_item:inv_item_type&#45;&gt;acq.invoice_item_type:code</title>
<path fill="none" stroke="#000000" d="M363.9393,-608.6321C423.8603,-584.7362 395.1262,-338.6832 354,-283 321.6774,-239.2365 269.3226,-290.7635 237,-247 211.5196,-212.5006 194.1111,-150.5 237,-150.5"/>
<polygon fill="#000000" stroke="#000000" points="363.8279,-608.6529 353.1688,-606.0774 358.914,-609.5765 354,-610.5 354,-610.5 354,-610.5 358.914,-609.5765 354.8312,-614.9226 363.8279,-608.6529 363.8279,-608.6529"/>
<text text-anchor="start" x="6.7045" y="-620.5" font-family="Arial" font-size="10.00" fill="#000000">FOREIGN KEY (inv_item_type) REFERENCES acq.invoice_item_type(code)</text>
</g>
<!-- acq.po_item -->
<g id="node3" class="node">
<title>acq.po_item</title>
<polygon fill="#efefef" stroke="transparent" points="458,-685.5 458,-720.5 697,-720.5 697,-685.5 458,-685.5"/>
<polygon fill="none" stroke="#000000" points="458,-685.5 458,-720.5 697,-720.5 697,-685.5 458,-685.5"/>
<text text-anchor="start" x="464.702" y="-698.3" font-family="Arial Bold" font-size="18.00" fill="#000000">acq.po_item</text>
<text text-anchor="start" x="562.73" y="-698.3" font-family="Arial" font-size="14.00" fill="#000000">    </text>
<text text-anchor="start" x="596.9348" y="-698.3" font-family="Arial" font-size="14.00" fill="#666666">[BASE TABLE]</text>
<polygon fill="none" stroke="#000000" points="458,-655.5 458,-685.5 697,-685.5 697,-655.5 458,-655.5"/>
<text text-anchor="start" x="465" y="-666.9" font-family="Arial" font-size="14.00" fill="#000000">id    </text>
<text text-anchor="start" x="510.094" y="-666.9" font-family="Arial" font-size="14.00" fill="#666666">[integer]</text>
<polygon fill="none" stroke="#000000" points="458,-625.5 458,-655.5 697,-655.5 697,-625.5 458,-625.5"/>
<text text-anchor="start" x="465" y="-636.9" font-family="Arial" font-size="14.00" fill="#000000">purchase_order    </text>
<text text-anchor="start" x="597.23" y="-636.9" font-family="Arial" font-size="14.00" fill="#666666">[integer]</text>
<polygon fill="none" stroke="#000000" points="458,-595.5 458,-625.5 697,-625.5 697,-595.5 458,-595.5"/>
<text text-anchor="start" x="465" y="-606.9" font-family="Arial" font-size="14.00" fill="#000000">fund_debit    </text>
<text text-anchor="start" x="564.5708" y="-606.9" font-family="Arial" font-size="14.00" fill="#666666">[integer]</text>
<polygon fill="none" stroke="#000000" points="458,-565.5 458,-595.5 697,-595.5 697,-565.5 458,-565.5"/>
<text text-anchor="start" x="465" y="-576.9" font-family="Arial" font-size="14.00" fill="#000000">inv_item_type    </text>
<text text-anchor="start" x="585.5554" y="-576.9" font-family="Arial" font-size="14.00" fill="#666666">[text]</text>
<polygon fill="none" stroke="#000000" points="458,-535.5 458,-565.5 697,-565.5 697,-535.5 458,-535.5"/>
<text text-anchor="start" x="465" y="-546.9" font-family="Arial" font-size="14.00" fill="#000000">title    </text>
<text text-anchor="start" x="520.9818" y="-546.9" font-family="Arial" font-size="14.00" fill="#666666">[text]</text>
<polygon fill="none" stroke="#000000" points="458,-505.5 458,-535.5 697,-535.5 697,-505.5 458,-505.5"/>
<text text-anchor="start" x="465" y="-516.9" font-family="Arial" font-size="14.00" fill="#000000">author    </text>
<text text-anchor="start" x="538.8864" y="-516.9" font-family="Arial" font-size="14.00" fill="#666666">[text]</text>
<polygon fill="none" stroke="#000000" points="458,-475.5 458,-505.5 697,-505.5 697,-475.5 458,-475.5"/>
<text text-anchor="start" x="465" y="-486.9" font-family="Arial" font-size="14.00" fill="#000000">note    </text>
<text text-anchor="start" x="526.4432" y="-486.9" font-family="Arial" font-size="14.00" fill="#666666">[text]</text>
<polygon fill="none" stroke="#000000" points="458,-445.5 458,-475.5 697,-475.5 697,-445.5 458,-445.5"/>
<text text-anchor="start" x="465" y="-456.9" font-family="Arial" font-size="14.00" fill="#000000">estimated_cost    </text>
<text text-anchor="start" x="593.3394" y="-456.9" font-family="Arial" font-size="14.00" fill="#666666">[numeric(8,2)]</text>
<polygon fill="none" stroke="#000000" points="458,-415.5 458,-445.5 697,-445.5 697,-415.5 458,-415.5"/>
<text text-anchor="start" x="465" y="-426.9" font-family="Arial" font-size="14.00" fill="#000000">fund    </text>
<text text-anchor="start" x="526.4432" y="-426.9" font-family="Arial" font-size="14.00" fill="#666666">[integer]</text>
<polygon fill="none" stroke="#000000" points="458,-385.5 458,-415.5 697,-415.5 697,-385.5 458,-385.5"/>
<text text-anchor="start" x="465" y="-396.9" font-family="Arial" font-size="14.00" fill="#000000">target    </text>
<text text-anchor="start" x="534.9944" y="-396.9" font-family="Arial" font-size="14.00" fill="#666666">[bigint]</text>
</g>
<!-- acq.po_item&#45;&gt;acq.invoice_item_type -->
<g id="edge2" class="edge">
<title>acq.po_item:inv_item_type&#45;&gt;acq.invoice_item_type:code</title>
<path fill="none" stroke="#000000" d="M448.0957,-577.8135C409.7098,-554.6368 438.9895,-388.2345 458,-343 481.6228,-286.7906 532.3772,-303.2094 556,-247 572.6169,-207.461 598.8889,-150.5 556,-150.5"/>
<polygon fill="#000000" stroke="#000000" points="448.3487,-577.8821 456.8219,-584.8431 453.1744,-579.191 458,-580.5 458,-580.5 458,-580.5 453.1744,-579.191 459.1781,-576.1569 448.3487,-577.8821 448.3487,-577.8821"/>
<text text-anchor="start" x="464.6445" y="-590.5" font-family="Arial" font-size="10.00" fill="#000000">FOREIGN KEY (inv_item_type) REFERENCES acq.invoice_item_type(code) DEFERRABLE INITIALLY DEFERRED</text>
</g>
</g>
</svg>
