<?xml version="1.0" encoding="UTF-8" standalone="no"?>
<!DOCTYPE svg PUBLIC "-//W3C//DTD SVG 1.1//EN"
 "http://www.w3.org/Graphics/SVG/1.1/DTD/svg11.dtd">
<!-- Generated by graphviz version 2.40.1 (20161225.0304)
 -->
<!-- Title: acq.claim_event_type Pages: 1 -->
<svg width="1489pt" height="1169pt"
 viewBox="0.00 0.00 1489.00 1169.00" xmlns="http://www.w3.org/2000/svg" xmlns:xlink="http://www.w3.org/1999/xlink">
<g id="graph0" class="graph" transform="scale(1 1) rotate(0) translate(4 1165)">
<title>acq.claim_event_type</title>
<polygon fill="#ffffff" stroke="transparent" points="-4,4 -4,-1165 1485,-1165 1485,4 -4,4"/>
<!-- acq.claim_event_type -->
<g id="node1" class="node">
<title>acq.claim_event_type</title>
<polygon fill="#efefef" stroke="transparent" points="583,-742.5 583,-777.5 898,-777.5 898,-742.5 583,-742.5"/>
<polygon fill="none" stroke="#000000" points="583,-742.5 583,-777.5 898,-777.5 898,-742.5 583,-742.5"/>
<text text-anchor="start" x="589.6914" y="-755.3" font-family="Arial Bold" font-size="18.00" fill="#000000">acq.claim_event_type</text>
<text text-anchor="start" x="763.7406" y="-755.3" font-family="Arial" font-size="14.00" fill="#000000">    </text>
<text text-anchor="start" x="797.9454" y="-755.3" font-family="Arial" font-size="14.00" fill="#666666">[BASE TABLE]</text>
<polygon fill="none" stroke="#000000" points="583,-712.5 583,-742.5 898,-742.5 898,-712.5 583,-712.5"/>
<text text-anchor="start" x="590" y="-723.9" font-family="Arial" font-size="14.00" fill="#000000">id </text>
<text text-anchor="start" x="604.7798" y="-723.9" font-family="Arial" font-size="14.00" fill="#666666">[integer]</text>
<polygon fill="none" stroke="#000000" points="583,-682.5 583,-712.5 898,-712.5 898,-682.5 583,-682.5"/>
<text text-anchor="start" x="590" y="-693.9" font-family="Arial" font-size="14.00" fill="#000000">org_unit </text>
<text text-anchor="start" x="644.4614" y="-693.9" font-family="Arial" font-size="14.00" fill="#666666">[integer]</text>
<polygon fill="none" stroke="#000000" points="583,-652.5 583,-682.5 898,-682.5 898,-652.5 583,-652.5"/>
<text text-anchor="start" x="590" y="-663.9" font-family="Arial" font-size="14.00" fill="#000000">code </text>
<text text-anchor="start" x="624.2384" y="-663.9" font-family="Arial" font-size="14.00" fill="#666666">[text]</text>
<polygon fill="none" stroke="#000000" points="583,-622.5 583,-652.5 898,-652.5 898,-622.5 583,-622.5"/>
<text text-anchor="start" x="590" y="-633.9" font-family="Arial" font-size="14.00" fill="#000000">description </text>
<text text-anchor="start" x="661.568" y="-633.9" font-family="Arial" font-size="14.00" fill="#666666">[text]</text>
<polygon fill="none" stroke="#000000" points="583,-592.5 583,-622.5 898,-622.5 898,-592.5 583,-592.5"/>
<text text-anchor="start" x="590" y="-603.9" font-family="Arial" font-size="14.00" fill="#000000">library_initiated </text>
<text text-anchor="start" x="688.0042" y="-603.9" font-family="Arial" font-size="14.00" fill="#666666">[boolean]</text>
<polygon fill="none" stroke="#000000" stroke-width="3" points="581,-591.5 581,-779.5 899,-779.5 899,-591.5 581,-591.5"/>
</g>
<!-- actor.org_unit -->
<g id="node5" class="node">
<title>actor.org_unit</title>
<polygon fill="#efefef" stroke="transparent" points="615,-432.5 615,-467.5 866,-467.5 866,-432.5 615,-432.5"/>
<polygon fill="none" stroke="#000000" points="615,-432.5 615,-467.5 866,-467.5 866,-432.5 615,-432.5"/>
<text text-anchor="start" x="621.7017" y="-445.3" font-family="Arial Bold" font-size="18.00" fill="#000000">actor.org_unit</text>
<text text-anchor="start" x="731.7303" y="-445.3" font-family="Arial" font-size="14.00" fill="#000000">    </text>
<text text-anchor="start" x="765.9351" y="-445.3" font-family="Arial" font-size="14.00" fill="#666666">[BASE TABLE]</text>
<polygon fill="none" stroke="#000000" points="615,-402.5 615,-432.5 866,-432.5 866,-402.5 615,-402.5"/>
<text text-anchor="start" x="622" y="-413.9" font-family="Arial" font-size="14.00" fill="#000000">id    </text>
<text text-anchor="start" x="667.094" y="-413.9" font-family="Arial" font-size="14.00" fill="#666666">[integer]</text>
<polygon fill="none" stroke="#000000" points="615,-372.5 615,-402.5 866,-402.5 866,-372.5 615,-372.5"/>
<text text-anchor="start" x="622" y="-383.9" font-family="Arial" font-size="14.00" fill="#000000">parent_ou    </text>
<text text-anchor="start" x="719.2342" y="-383.9" font-family="Arial" font-size="14.00" fill="#666666">[integer]</text>
<polygon fill="none" stroke="#000000" points="615,-342.5 615,-372.5 866,-372.5 866,-342.5 615,-342.5"/>
<text text-anchor="start" x="622" y="-353.9" font-family="Arial" font-size="14.00" fill="#000000">ou_type    </text>
<text text-anchor="start" x="706.0084" y="-353.9" font-family="Arial" font-size="14.00" fill="#666666">[integer]</text>
<polygon fill="none" stroke="#000000" points="615,-312.5 615,-342.5 866,-342.5 866,-312.5 615,-312.5"/>
<text text-anchor="start" x="622" y="-323.9" font-family="Arial" font-size="14.00" fill="#000000">ill_address    </text>
<text text-anchor="start" x="723.0982" y="-323.9" font-family="Arial" font-size="14.00" fill="#666666">[integer]</text>
<polygon fill="none" stroke="#000000" points="615,-282.5 615,-312.5 866,-312.5 866,-282.5 615,-282.5"/>
<text text-anchor="start" x="622" y="-293.9" font-family="Arial" font-size="14.00" fill="#000000">holds_address    </text>
<text text-anchor="start" x="747.2328" y="-293.9" font-family="Arial" font-size="14.00" fill="#666666">[integer]</text>
<polygon fill="none" stroke="#000000" points="615,-252.5 615,-282.5 866,-282.5 866,-252.5 615,-252.5"/>
<text text-anchor="start" x="622" y="-263.9" font-family="Arial" font-size="14.00" fill="#000000">mailing_address    </text>
<text text-anchor="start" x="758.1066" y="-263.9" font-family="Arial" font-size="14.00" fill="#666666">[integer]</text>
<polygon fill="none" stroke="#000000" points="615,-222.5 615,-252.5 866,-252.5 866,-222.5 615,-222.5"/>
<text text-anchor="start" x="622" y="-233.9" font-family="Arial" font-size="14.00" fill="#000000">billing_address    </text>
<text text-anchor="start" x="749.5526" y="-233.9" font-family="Arial" font-size="14.00" fill="#666666">[integer]</text>
<polygon fill="none" stroke="#000000" points="615,-192.5 615,-222.5 866,-222.5 866,-192.5 615,-192.5"/>
<text text-anchor="start" x="622" y="-203.9" font-family="Arial" font-size="14.00" fill="#000000">shortname    </text>
<text text-anchor="start" x="722.3296" y="-203.9" font-family="Arial" font-size="14.00" fill="#666666">[text]</text>
<polygon fill="none" stroke="#000000" points="615,-162.5 615,-192.5 866,-192.5 866,-162.5 615,-162.5"/>
<text text-anchor="start" x="622" y="-173.9" font-family="Arial" font-size="14.00" fill="#000000">name    </text>
<text text-anchor="start" x="691.2132" y="-173.9" font-family="Arial" font-size="14.00" fill="#666666">[text]</text>
<polygon fill="none" stroke="#000000" points="615,-132.5 615,-162.5 866,-162.5 866,-132.5 615,-132.5"/>
<text text-anchor="start" x="622" y="-143.9" font-family="Arial" font-size="14.00" fill="#000000">email    </text>
<text text-anchor="start" x="689.6438" y="-143.9" font-family="Arial" font-size="14.00" fill="#666666">[text]</text>
<polygon fill="none" stroke="#000000" points="615,-102.5 615,-132.5 866,-132.5 866,-102.5 615,-102.5"/>
<text text-anchor="start" x="622" y="-113.9" font-family="Arial" font-size="14.00" fill="#000000">phone    </text>
<text text-anchor="start" x="695.1178" y="-113.9" font-family="Arial" font-size="14.00" fill="#666666">[text]</text>
<polygon fill="none" stroke="#000000" points="615,-72.5 615,-102.5 866,-102.5 866,-72.5 615,-72.5"/>
<text text-anchor="start" x="622" y="-83.9" font-family="Arial" font-size="14.00" fill="#000000">opac_visible    </text>
<text text-anchor="start" x="733.2202" y="-83.9" font-family="Arial" font-size="14.00" fill="#666666">[boolean]</text>
<polygon fill="none" stroke="#000000" points="615,-42.5 615,-72.5 866,-72.5 866,-42.5 615,-42.5"/>
<text text-anchor="start" x="622" y="-53.9" font-family="Arial" font-size="14.00" fill="#000000">fiscal_calendar    </text>
<text text-anchor="start" x="749.554" y="-53.9" font-family="Arial" font-size="14.00" fill="#666666">[integer]</text>
</g>
<!-- acq.claim_event_type&#45;&gt;actor.org_unit -->
<g id="edge4" class="edge">
<title>acq.claim_event_type:org_unit&#45;&gt;actor.org_unit:id</title>
<path fill="none" stroke="#000000" d="M572.7352,-696.839C459.6328,-681.8652 493.2927,-417.5 615,-417.5"/>
<polygon fill="#000000" stroke="#000000" points="573.0207,-696.8573 582.7108,-701.9907 578.0103,-697.1786 583,-697.5 583,-697.5 583,-697.5 578.0103,-697.1786 583.2892,-693.0093 573.0207,-696.8573 573.0207,-696.8573"/>
<text text-anchor="start" x="137.2655" y="-707.5" font-family="Arial" font-size="10.00" fill="#000000">FOREIGN KEY (org_unit) REFERENCES actor.org_unit(id) DEFERRABLE INITIALLY DEFERRED</text>
</g>
<!-- acq.claim_event -->
<g id="node2" class="node">
<title>acq.claim_event</title>
<polygon fill="#efefef" stroke="transparent" points="188,-1082.5 188,-1117.5 471,-1117.5 471,-1082.5 188,-1082.5"/>
<polygon fill="none" stroke="#000000" points="188,-1082.5 188,-1117.5 471,-1117.5 471,-1082.5 188,-1082.5"/>
<text text-anchor="start" x="200.7018" y="-1095.3" font-family="Arial Bold" font-size="18.00" fill="#000000">acq.claim_event</text>
<text text-anchor="start" x="330.7302" y="-1095.3" font-family="Arial" font-size="14.00" fill="#000000">    </text>
<text text-anchor="start" x="364.935" y="-1095.3" font-family="Arial" font-size="14.00" fill="#666666">[BASE TABLE]</text>
<polygon fill="none" stroke="#000000" points="188,-1052.5 188,-1082.5 471,-1082.5 471,-1052.5 188,-1052.5"/>
<text text-anchor="start" x="195" y="-1063.9" font-family="Arial" font-size="14.00" fill="#000000">id    </text>
<text text-anchor="start" x="240.094" y="-1063.9" font-family="Arial" font-size="14.00" fill="#666666">[bigint]</text>
<polygon fill="none" stroke="#000000" points="188,-1022.5 188,-1052.5 471,-1052.5 471,-1022.5 188,-1022.5"/>
<text text-anchor="start" x="195" y="-1033.9" font-family="Arial" font-size="14.00" fill="#000000">type    </text>
<text text-anchor="start" x="255.6606" y="-1033.9" font-family="Arial" font-size="14.00" fill="#666666">[integer]</text>
<polygon fill="none" stroke="#000000" points="188,-992.5 188,-1022.5 471,-1022.5 471,-992.5 188,-992.5"/>
<text text-anchor="start" x="195" y="-1003.9" font-family="Arial" font-size="14.00" fill="#000000">claim    </text>
<text text-anchor="start" x="261.8612" y="-1003.9" font-family="Arial" font-size="14.00" fill="#666666">[integer]</text>
<polygon fill="none" stroke="#000000" points="188,-962.5 188,-992.5 471,-992.5 471,-962.5 188,-962.5"/>
<text text-anchor="start" x="194.9257" y="-973.9" font-family="Arial" font-size="14.00" fill="#000000">event_date    </text>
<text text-anchor="start" x="298.3899" y="-973.9" font-family="Arial" font-size="14.00" fill="#666666">[timestamp with time zone]</text>
<polygon fill="none" stroke="#000000" points="188,-932.5 188,-962.5 471,-962.5 471,-932.5 188,-932.5"/>
<text text-anchor="start" x="195" y="-943.9" font-family="Arial" font-size="14.00" fill="#000000">creator    </text>
<text text-anchor="start" x="272.7644" y="-943.9" font-family="Arial" font-size="14.00" fill="#666666">[integer]</text>
<polygon fill="none" stroke="#000000" points="188,-902.5 188,-932.5 471,-932.5 471,-902.5 188,-902.5"/>
<text text-anchor="start" x="195" y="-913.9" font-family="Arial" font-size="14.00" fill="#000000">note    </text>
<text text-anchor="start" x="256.4432" y="-913.9" font-family="Arial" font-size="14.00" fill="#666666">[text]</text>
</g>
<!-- acq.claim_event&#45;&gt;acq.claim_event_type -->
<g id="edge1" class="edge">
<title>acq.claim_event:type&#45;&gt;acq.claim_event_type:id</title>
<path fill="none" stroke="#000000" d="M481.2244,-1036.9025C547.8988,-1028.5134 494.7057,-933.4885 522,-860 544.5718,-799.2264 518.1701,-727.5 583,-727.5"/>
<polygon fill="#000000" stroke="#000000" points="480.983,-1036.9165 470.7374,-1033.0077 475.9915,-1037.2083 471,-1037.5 471,-1037.5 471,-1037.5 475.9915,-1037.2083 471.2626,-1041.9923 480.983,-1036.9165 480.983,-1036.9165"/>
<text text-anchor="start" x="7.0945" y="-1047.5" font-family="Arial" font-size="10.00" fill="#000000">FOREIGN KEY (type) REFERENCES acq.claim_event_type(id) DEFERRABLE INITIALLY DEFERRED</text>
</g>
<!-- acq.claim_policy_action -->
<g id="node3" class="node">
<title>acq.claim_policy_action</title>
<polygon fill="#efefef" stroke="transparent" points="575,-1052.5 575,-1087.5 906,-1087.5 906,-1052.5 575,-1052.5"/>
<polygon fill="none" stroke="#000000" points="575,-1052.5 575,-1087.5 906,-1087.5 906,-1052.5 575,-1052.5"/>
<text text-anchor="start" x="581.7012" y="-1065.3" font-family="Arial Bold" font-size="18.00" fill="#000000">acq.claim_policy_action</text>
<text text-anchor="start" x="771.7308" y="-1065.3" font-family="Arial" font-size="14.00" fill="#000000">    </text>
<text text-anchor="start" x="805.9356" y="-1065.3" font-family="Arial" font-size="14.00" fill="#666666">[BASE TABLE]</text>
<polygon fill="none" stroke="#000000" points="575,-1022.5 575,-1052.5 906,-1052.5 906,-1022.5 575,-1022.5"/>
<text text-anchor="start" x="582" y="-1033.9" font-family="Arial" font-size="14.00" fill="#000000">id    </text>
<text text-anchor="start" x="627.094" y="-1033.9" font-family="Arial" font-size="14.00" fill="#666666">[integer]</text>
<polygon fill="none" stroke="#000000" points="575,-992.5 575,-1022.5 906,-1022.5 906,-992.5 575,-992.5"/>
<text text-anchor="start" x="582" y="-1003.9" font-family="Arial" font-size="14.00" fill="#000000">claim_policy    </text>
<text text-anchor="start" x="692.4222" y="-1003.9" font-family="Arial" font-size="14.00" fill="#666666">[integer]</text>
<polygon fill="none" stroke="#000000" points="575,-962.5 575,-992.5 906,-992.5 906,-962.5 575,-962.5"/>
<text text-anchor="start" x="582" y="-973.9" font-family="Arial" font-size="14.00" fill="#000000">action_interval    </text>
<text text-anchor="start" x="706.4446" y="-973.9" font-family="Arial" font-size="14.00" fill="#666666">[interval]</text>
<polygon fill="none" stroke="#000000" points="575,-932.5 575,-962.5 906,-962.5 906,-932.5 575,-932.5"/>
<text text-anchor="start" x="582" y="-943.9" font-family="Arial" font-size="14.00" fill="#000000">action    </text>
<text text-anchor="start" x="653.5498" y="-943.9" font-family="Arial" font-size="14.00" fill="#666666">[integer]</text>
</g>
<!-- acq.claim_policy_action&#45;&gt;acq.claim_event_type -->
<g id="edge2" class="edge">
<title>acq.claim_policy_action:action&#45;&gt;acq.claim_event_type:id</title>
<path fill="none" stroke="#000000" d="M740.3602,-922.2583C730.9769,-851.5537 620.9733,-896.1413 583,-824 563.0229,-786.0477 540.1111,-727.5 583,-727.5"/>
<polygon fill="#000000" stroke="#000000" points="740.3765,-922.5195 736.5088,-932.7806 740.6882,-927.5097 741,-932.5 741,-932.5 741,-932.5 740.6882,-927.5097 745.4912,-932.2194 740.3765,-922.5195 740.3765,-922.5195"/>
<text text-anchor="start" x="748.2055" y="-942.5" font-family="Arial" font-size="10.00" fill="#000000">FOREIGN KEY (action) REFERENCES acq.claim_event_type(id) DEFERRABLE INITIALLY DEFERRED</text>
</g>
<!-- acq.serial_claim_event -->
<g id="node4" class="node">
<title>acq.serial_claim_event</title>
<polygon fill="#efefef" stroke="transparent" points="1010,-1082.5 1010,-1117.5 1334,-1117.5 1334,-1082.5 1010,-1082.5"/>
<polygon fill="none" stroke="#000000" points="1010,-1082.5 1010,-1117.5 1334,-1117.5 1334,-1082.5 1010,-1082.5"/>
<text text-anchor="start" x="1016.7022" y="-1095.3" font-family="Arial Bold" font-size="18.00" fill="#000000">acq.serial_claim_event</text>
<text text-anchor="start" x="1199.7298" y="-1095.3" font-family="Arial" font-size="14.00" fill="#000000">    </text>
<text text-anchor="start" x="1233.9346" y="-1095.3" font-family="Arial" font-size="14.00" fill="#666666">[BASE TABLE]</text>
<polygon fill="none" stroke="#000000" points="1010,-1052.5 1010,-1082.5 1334,-1082.5 1334,-1052.5 1010,-1052.5"/>
<text text-anchor="start" x="1017" y="-1063.9" font-family="Arial" font-size="14.00" fill="#000000">id    </text>
<text text-anchor="start" x="1062.094" y="-1063.9" font-family="Arial" font-size="14.00" fill="#666666">[bigint]</text>
<polygon fill="none" stroke="#000000" points="1010,-1022.5 1010,-1052.5 1334,-1052.5 1334,-1022.5 1010,-1022.5"/>
<text text-anchor="start" x="1017" y="-1033.9" font-family="Arial" font-size="14.00" fill="#000000">type    </text>
<text text-anchor="start" x="1077.6606" y="-1033.9" font-family="Arial" font-size="14.00" fill="#666666">[integer]</text>
<polygon fill="none" stroke="#000000" points="1010,-992.5 1010,-1022.5 1334,-1022.5 1334,-992.5 1010,-992.5"/>
<text text-anchor="start" x="1017" y="-1003.9" font-family="Arial" font-size="14.00" fill="#000000">claim    </text>
<text text-anchor="start" x="1083.8612" y="-1003.9" font-family="Arial" font-size="14.00" fill="#666666">[integer]</text>
<polygon fill="none" stroke="#000000" points="1010,-962.5 1010,-992.5 1334,-992.5 1334,-962.5 1010,-962.5"/>
<text text-anchor="start" x="1017" y="-973.9" font-family="Arial" font-size="14.00" fill="#000000">event_date    </text>
<text text-anchor="start" x="1120.4642" y="-973.9" font-family="Arial" font-size="14.00" fill="#666666">[timestamp with time zone]</text>
<polygon fill="none" stroke="#000000" points="1010,-932.5 1010,-962.5 1334,-962.5 1334,-932.5 1010,-932.5"/>
<text text-anchor="start" x="1017" y="-943.9" font-family="Arial" font-size="14.00" fill="#000000">creator    </text>
<text text-anchor="start" x="1094.7644" y="-943.9" font-family="Arial" font-size="14.00" fill="#666666">[integer]</text>
<polygon fill="none" stroke="#000000" points="1010,-902.5 1010,-932.5 1334,-932.5 1334,-902.5 1010,-902.5"/>
<text text-anchor="start" x="1017" y="-913.9" font-family="Arial" font-size="14.00" fill="#000000">note    </text>
<text text-anchor="start" x="1078.4432" y="-913.9" font-family="Arial" font-size="14.00" fill="#666666">[text]</text>
</g>
<!-- acq.serial_claim_event&#45;&gt;acq.claim_event_type -->
<g id="edge3" class="edge">
<title>acq.serial_claim_event:type&#45;&gt;acq.claim_event_type:id</title>
<path fill="none" stroke="#000000" d="M999.7545,-1036.9033C932.9007,-1028.5247 985.2969,-933.6137 958,-860 935.5242,-799.3877 962.6453,-727.5 898,-727.5"/>
<polygon fill="#000000" stroke="#000000" points="1000.0169,-1036.9185 1009.7383,-1041.9924 1005.0085,-1037.2092 1010,-1037.5 1010,-1037.5 1010,-1037.5 1005.0085,-1037.2092 1010.2617,-1033.0076 1000.0169,-1036.9185 1000.0169,-1036.9185"/>
<text text-anchor="start" x="1017.0945" y="-1047.5" font-family="Arial" font-size="10.00" fill="#000000">FOREIGN KEY (type) REFERENCES acq.claim_event_type(id) DEFERRABLE INITIALLY DEFERRED</text>
</g>
</g>
</svg>
