<?xml version="1.0" encoding="UTF-8" standalone="no"?>
<!DOCTYPE svg PUBLIC "-//W3C//DTD SVG 1.1//EN"
 "http://www.w3.org/Graphics/SVG/1.1/DTD/svg11.dtd">
<!-- Generated by graphviz version 2.40.1 (20161225.0304)
 -->
<!-- Title: acq.lineitem_provider_attr_definition Pages: 1 -->
<svg width="716pt" height="1012pt"
 viewBox="0.00 0.00 716.00 1012.00" xmlns="http://www.w3.org/2000/svg" xmlns:xlink="http://www.w3.org/1999/xlink">
<g id="graph0" class="graph" transform="scale(1 1) rotate(0) translate(4 1008)">
<title>acq.lineitem_provider_attr_definition</title>
<polygon fill="#ffffff" stroke="transparent" points="-4,4 -4,-1008 712,-1008 712,4 -4,4"/>
<!-- acq.lineitem_provider_attr_definition -->
<g id="node1" class="node">
<title>acq.lineitem_provider_attr_definition</title>
<polygon fill="#efefef" stroke="transparent" points="232,-922.5 232,-957.5 662,-957.5 662,-922.5 232,-922.5"/>
<polygon fill="none" stroke="#000000" points="232,-922.5 232,-957.5 662,-957.5 662,-922.5 232,-922.5"/>
<text text-anchor="start" x="238.6895" y="-935.3" font-family="Arial Bold" font-size="18.00" fill="#000000">acq.lineitem_provider_attr_definition</text>
<text text-anchor="start" x="527.7425" y="-935.3" font-family="Arial" font-size="14.00" fill="#000000">    </text>
<text text-anchor="start" x="561.9473" y="-935.3" font-family="Arial" font-size="14.00" fill="#666666">[BASE TABLE]</text>
<polygon fill="none" stroke="#000000" points="232,-892.5 232,-922.5 662,-922.5 662,-892.5 232,-892.5"/>
<text text-anchor="start" x="239" y="-903.9" font-family="Arial" font-size="14.00" fill="#000000">id </text>
<text text-anchor="start" x="253.7798" y="-903.9" font-family="Arial" font-size="14.00" fill="#666666">[bigint]</text>
<polygon fill="none" stroke="#000000" points="232,-862.5 232,-892.5 662,-892.5 662,-862.5 232,-862.5"/>
<text text-anchor="start" x="239" y="-873.9" font-family="Arial" font-size="14.00" fill="#000000">code </text>
<text text-anchor="start" x="273.2384" y="-873.9" font-family="Arial" font-size="14.00" fill="#666666">[text]</text>
<polygon fill="none" stroke="#000000" points="232,-832.5 232,-862.5 662,-862.5 662,-832.5 232,-832.5"/>
<text text-anchor="start" x="239" y="-843.9" font-family="Arial" font-size="14.00" fill="#000000">description </text>
<text text-anchor="start" x="310.568" y="-843.9" font-family="Arial" font-size="14.00" fill="#666666">[text]</text>
<polygon fill="none" stroke="#000000" points="232,-802.5 232,-832.5 662,-832.5 662,-802.5 232,-802.5"/>
<text text-anchor="start" x="239" y="-813.9" font-family="Arial" font-size="14.00" fill="#000000">remove </text>
<text text-anchor="start" x="289.5596" y="-813.9" font-family="Arial" font-size="14.00" fill="#666666">[text]</text>
<polygon fill="none" stroke="#000000" points="232,-772.5 232,-802.5 662,-802.5 662,-772.5 232,-772.5"/>
<text text-anchor="start" x="239" y="-783.9" font-family="Arial" font-size="14.00" fill="#000000">ident </text>
<text text-anchor="start" x="273.2356" y="-783.9" font-family="Arial" font-size="14.00" fill="#666666">[boolean]</text>
<polygon fill="none" stroke="#000000" points="232,-742.5 232,-772.5 662,-772.5 662,-742.5 232,-742.5"/>
<text text-anchor="start" x="239" y="-753.9" font-family="Arial" font-size="14.00" fill="#000000">xpath </text>
<text text-anchor="start" x="277.129" y="-753.9" font-family="Arial" font-size="14.00" fill="#666666">[text]</text>
<polygon fill="none" stroke="#000000" points="232,-712.5 232,-742.5 662,-742.5 662,-712.5 232,-712.5"/>
<text text-anchor="start" x="239" y="-723.9" font-family="Arial" font-size="14.00" fill="#000000">provider </text>
<text text-anchor="start" x="293.4488" y="-723.9" font-family="Arial" font-size="14.00" fill="#666666">[integer]</text>
<polygon fill="none" stroke="#000000" stroke-width="3" points="230.5,-711.5 230.5,-959.5 663.5,-959.5 663.5,-711.5 230.5,-711.5"/>
</g>
<!-- acq.provider -->
<g id="node2" class="node">
<title>acq.provider</title>
<polygon fill="#efefef" stroke="transparent" points="327,-552.5 327,-587.5 567,-587.5 567,-552.5 327,-552.5"/>
<polygon fill="none" stroke="#000000" points="327,-552.5 327,-587.5 567,-587.5 567,-552.5 327,-552.5"/>
<text text-anchor="start" x="333.707" y="-565.3" font-family="Arial Bold" font-size="18.00" fill="#000000">acq.provider</text>
<text text-anchor="start" x="432.725" y="-565.3" font-family="Arial" font-size="14.00" fill="#000000">    </text>
<text text-anchor="start" x="466.9298" y="-565.3" font-family="Arial" font-size="14.00" fill="#666666">[BASE TABLE]</text>
<polygon fill="none" stroke="#000000" points="327,-522.5 327,-552.5 567,-552.5 567,-522.5 327,-522.5"/>
<text text-anchor="start" x="334" y="-533.9" font-family="Arial" font-size="14.00" fill="#000000">id    </text>
<text text-anchor="start" x="379.094" y="-533.9" font-family="Arial" font-size="14.00" fill="#666666">[integer]</text>
<polygon fill="none" stroke="#000000" points="327,-492.5 327,-522.5 567,-522.5 567,-492.5 327,-492.5"/>
<text text-anchor="start" x="334" y="-503.9" font-family="Arial" font-size="14.00" fill="#000000">name    </text>
<text text-anchor="start" x="403.2132" y="-503.9" font-family="Arial" font-size="14.00" fill="#666666">[text]</text>
<polygon fill="none" stroke="#000000" points="327,-462.5 327,-492.5 567,-492.5 567,-462.5 327,-462.5"/>
<text text-anchor="start" x="334" y="-473.9" font-family="Arial" font-size="14.00" fill="#000000">owner    </text>
<text text-anchor="start" x="406.3198" y="-473.9" font-family="Arial" font-size="14.00" fill="#666666">[integer]</text>
<polygon fill="none" stroke="#000000" points="327,-432.5 327,-462.5 567,-462.5 567,-432.5 327,-432.5"/>
<text text-anchor="start" x="334" y="-443.9" font-family="Arial" font-size="14.00" fill="#000000">currency_type    </text>
<text text-anchor="start" x="456.1122" y="-443.9" font-family="Arial" font-size="14.00" fill="#666666">[text]</text>
<polygon fill="none" stroke="#000000" points="327,-402.5 327,-432.5 567,-432.5 567,-402.5 327,-402.5"/>
<text text-anchor="start" x="334" y="-413.9" font-family="Arial" font-size="14.00" fill="#000000">code    </text>
<text text-anchor="start" x="398.5526" y="-413.9" font-family="Arial" font-size="14.00" fill="#666666">[text]</text>
<polygon fill="none" stroke="#000000" points="327,-372.5 327,-402.5 567,-402.5 567,-372.5 327,-372.5"/>
<text text-anchor="start" x="334" y="-383.9" font-family="Arial" font-size="14.00" fill="#000000">holding_tag    </text>
<text text-anchor="start" x="440.5694" y="-383.9" font-family="Arial" font-size="14.00" fill="#666666">[text]</text>
<polygon fill="none" stroke="#000000" points="327,-342.5 327,-372.5 567,-372.5 567,-342.5 327,-342.5"/>
<text text-anchor="start" x="334" y="-353.9" font-family="Arial" font-size="14.00" fill="#000000">san    </text>
<text text-anchor="start" x="390.77" y="-353.9" font-family="Arial" font-size="14.00" fill="#666666">[text]</text>
<polygon fill="none" stroke="#000000" points="327,-312.5 327,-342.5 567,-342.5 567,-312.5 327,-312.5"/>
<text text-anchor="start" x="334" y="-323.9" font-family="Arial" font-size="14.00" fill="#000000">edi_default    </text>
<text text-anchor="start" x="436.6774" y="-323.9" font-family="Arial" font-size="14.00" fill="#666666">[integer]</text>
<polygon fill="none" stroke="#000000" points="327,-282.5 327,-312.5 567,-312.5 567,-282.5 327,-282.5"/>
<text text-anchor="start" x="334" y="-293.9" font-family="Arial" font-size="14.00" fill="#000000">active    </text>
<text text-anchor="start" x="404.7672" y="-293.9" font-family="Arial" font-size="14.00" fill="#666666">[boolean]</text>
<polygon fill="none" stroke="#000000" points="327,-252.5 327,-282.5 567,-282.5 567,-252.5 327,-252.5"/>
<text text-anchor="start" x="334" y="-263.9" font-family="Arial" font-size="14.00" fill="#000000">prepayment_required    </text>
<text text-anchor="start" x="501.2356" y="-263.9" font-family="Arial" font-size="14.00" fill="#666666">[boolean]</text>
<polygon fill="none" stroke="#000000" points="327,-222.5 327,-252.5 567,-252.5 567,-222.5 327,-222.5"/>
<text text-anchor="start" x="334" y="-233.9" font-family="Arial" font-size="14.00" fill="#000000">url    </text>
<text text-anchor="start" x="383.7546" y="-233.9" font-family="Arial" font-size="14.00" fill="#666666">[text]</text>
<polygon fill="none" stroke="#000000" points="327,-192.5 327,-222.5 567,-222.5 567,-192.5 327,-192.5"/>
<text text-anchor="start" x="334" y="-203.9" font-family="Arial" font-size="14.00" fill="#000000">email    </text>
<text text-anchor="start" x="401.6438" y="-203.9" font-family="Arial" font-size="14.00" fill="#666666">[text]</text>
<polygon fill="none" stroke="#000000" points="327,-162.5 327,-192.5 567,-192.5 567,-162.5 327,-162.5"/>
<text text-anchor="start" x="334" y="-173.9" font-family="Arial" font-size="14.00" fill="#000000">phone    </text>
<text text-anchor="start" x="407.1178" y="-173.9" font-family="Arial" font-size="14.00" fill="#666666">[text]</text>
<polygon fill="none" stroke="#000000" points="327,-132.5 327,-162.5 567,-162.5 567,-132.5 327,-132.5"/>
<text text-anchor="start" x="334" y="-143.9" font-family="Arial" font-size="14.00" fill="#000000">fax_phone    </text>
<text text-anchor="start" x="433.5736" y="-143.9" font-family="Arial" font-size="14.00" fill="#666666">[text]</text>
<polygon fill="none" stroke="#000000" points="327,-102.5 327,-132.5 567,-132.5 567,-102.5 327,-102.5"/>
<text text-anchor="start" x="334" y="-113.9" font-family="Arial" font-size="14.00" fill="#000000">default_copy_count    </text>
<text text-anchor="start" x="489.5918" y="-113.9" font-family="Arial" font-size="14.00" fill="#666666">[integer]</text>
<polygon fill="none" stroke="#000000" points="327,-72.5 327,-102.5 567,-102.5 567,-72.5 327,-72.5"/>
<text text-anchor="start" x="334" y="-83.9" font-family="Arial" font-size="14.00" fill="#000000">default_claim_policy    </text>
<text text-anchor="start" x="494.223" y="-83.9" font-family="Arial" font-size="14.00" fill="#666666">[integer]</text>
<polygon fill="none" stroke="#000000" points="327,-42.5 327,-72.5 567,-72.5 567,-42.5 327,-42.5"/>
<text text-anchor="start" x="334" y="-53.9" font-family="Arial" font-size="14.00" fill="#000000">primary_contact    </text>
<text text-anchor="start" x="467.77" y="-53.9" font-family="Arial" font-size="14.00" fill="#666666">[integer]</text>
</g>
<!-- acq.lineitem_provider_attr_definition&#45;&gt;acq.provider -->
<g id="edge1" class="edge">
<title>acq.lineitem_provider_attr_definition:provider&#45;&gt;acq.provider:id</title>
<path fill="none" stroke="#000000" d="M447.8373,-702.5133C456.984,-652.2431 538.5329,-684.7457 567,-631 586.4505,-594.2775 608.5556,-537.5 567,-537.5"/>
<polygon fill="#000000" stroke="#000000" points="447.8356,-702.535 442.5157,-712.124 447.4178,-707.5175 447,-712.5 447,-712.5 447,-712.5 447.4178,-707.5175 451.4843,-712.876 447.8356,-702.535 447.8356,-702.535"/>
<text text-anchor="start" x="7.3285" y="-722.5" font-family="Arial" font-size="10.00" fill="#000000">FOREIGN KEY (provider) REFERENCES acq.provider(id) DEFERRABLE INITIALLY DEFERRED</text>
</g>
</g>
</svg>
