<?xml version="1.0" encoding="UTF-8" standalone="no"?>
<!DOCTYPE svg PUBLIC "-//W3C//DTD SVG 1.1//EN"
 "http://www.w3.org/Graphics/SVG/1.1/DTD/svg11.dtd">
<!-- Generated by graphviz version 2.40.1 (20161225.0304)
 -->
<!-- Title: acq.fund_allocation_percent Pages: 1 -->
<svg width="1317pt" height="2002pt"
 viewBox="0.00 0.00 1317.00 2002.00" xmlns="http://www.w3.org/2000/svg" xmlns:xlink="http://www.w3.org/1999/xlink">
<g id="graph0" class="graph" transform="scale(1 1) rotate(0) translate(4 1998)">
<title>acq.fund_allocation_percent</title>
<polygon fill="#ffffff" stroke="transparent" points="-4,4 -4,-1998 1313,-1998 1313,4 -4,4"/>
<!-- acq.fund_allocation_percent -->
<g id="node1" class="node">
<title>acq.fund_allocation_percent</title>
<polygon fill="#efefef" stroke="transparent" points="511,-1912.5 511,-1947.5 877,-1947.5 877,-1912.5 511,-1912.5"/>
<polygon fill="none" stroke="#000000" points="511,-1912.5 511,-1947.5 877,-1947.5 877,-1912.5 511,-1912.5"/>
<text text-anchor="start" x="517.6746" y="-1925.3" font-family="Arial Bold" font-size="18.00" fill="#000000">acq.fund_allocation_percent</text>
<text text-anchor="start" x="742.7574" y="-1925.3" font-family="Arial" font-size="14.00" fill="#000000">    </text>
<text text-anchor="start" x="776.9622" y="-1925.3" font-family="Arial" font-size="14.00" fill="#666666">[BASE TABLE]</text>
<polygon fill="none" stroke="#000000" points="511,-1882.5 511,-1912.5 877,-1912.5 877,-1882.5 511,-1882.5"/>
<text text-anchor="start" x="518" y="-1893.9" font-family="Arial" font-size="14.00" fill="#000000">id </text>
<text text-anchor="start" x="532.7798" y="-1893.9" font-family="Arial" font-size="14.00" fill="#666666">[integer]</text>
<polygon fill="none" stroke="#000000" points="511,-1852.5 511,-1882.5 877,-1882.5 877,-1852.5 511,-1852.5"/>
<text text-anchor="start" x="518" y="-1863.9" font-family="Arial" font-size="14.00" fill="#000000">funding_source </text>
<text text-anchor="start" x="617.5918" y="-1863.9" font-family="Arial" font-size="14.00" fill="#666666">[integer]</text>
<polygon fill="none" stroke="#000000" points="511,-1822.5 511,-1852.5 877,-1852.5 877,-1822.5 511,-1822.5"/>
<text text-anchor="start" x="518" y="-1833.9" font-family="Arial" font-size="14.00" fill="#000000">org </text>
<text text-anchor="start" x="542.1164" y="-1833.9" font-family="Arial" font-size="14.00" fill="#666666">[integer]</text>
<polygon fill="none" stroke="#000000" points="511,-1792.5 511,-1822.5 877,-1822.5 877,-1792.5 511,-1792.5"/>
<text text-anchor="start" x="518" y="-1803.9" font-family="Arial" font-size="14.00" fill="#000000">fund_code </text>
<text text-anchor="start" x="587.2594" y="-1803.9" font-family="Arial" font-size="14.00" fill="#666666">[text]</text>
<polygon fill="none" stroke="#000000" points="511,-1762.5 511,-1792.5 877,-1792.5 877,-1762.5 511,-1762.5"/>
<text text-anchor="start" x="518" y="-1773.9" font-family="Arial" font-size="14.00" fill="#000000">percent </text>
<text text-anchor="start" x="568.5722" y="-1773.9" font-family="Arial" font-size="14.00" fill="#666666">[numeric]</text>
<polygon fill="none" stroke="#000000" points="511,-1732.5 511,-1762.5 877,-1762.5 877,-1732.5 511,-1732.5"/>
<text text-anchor="start" x="518" y="-1743.9" font-family="Arial" font-size="14.00" fill="#000000">allocator </text>
<text text-anchor="start" x="574.7854" y="-1743.9" font-family="Arial" font-size="14.00" fill="#666666">[integer]</text>
<polygon fill="none" stroke="#000000" points="511,-1702.5 511,-1732.5 877,-1732.5 877,-1702.5 511,-1702.5"/>
<text text-anchor="start" x="518" y="-1713.9" font-family="Arial" font-size="14.00" fill="#000000">note </text>
<text text-anchor="start" x="549.129" y="-1713.9" font-family="Arial" font-size="14.00" fill="#666666">[text]</text>
<polygon fill="none" stroke="#000000" points="511,-1672.5 511,-1702.5 877,-1702.5 877,-1672.5 511,-1672.5"/>
<text text-anchor="start" x="518" y="-1683.9" font-family="Arial" font-size="14.00" fill="#000000">create_time </text>
<text text-anchor="start" x="595.0126" y="-1683.9" font-family="Arial" font-size="14.00" fill="#666666">[timestamp with time zone]</text>
<polygon fill="none" stroke="#000000" stroke-width="3" points="509.5,-1671.5 509.5,-1949.5 878.5,-1949.5 878.5,-1671.5 509.5,-1671.5"/>
</g>
<!-- acq.funding_source -->
<g id="node2" class="node">
<title>acq.funding_source</title>
<polygon fill="#efefef" stroke="transparent" points="165,-852.5 165,-887.5 463,-887.5 463,-852.5 165,-852.5"/>
<polygon fill="none" stroke="#000000" points="165,-852.5 165,-887.5 463,-887.5 463,-852.5 165,-852.5"/>
<text text-anchor="start" x="171.6865" y="-865.3" font-family="Arial Bold" font-size="18.00" fill="#000000">acq.funding_source</text>
<text text-anchor="start" x="328.7455" y="-865.3" font-family="Arial" font-size="14.00" fill="#000000">    </text>
<text text-anchor="start" x="362.9503" y="-865.3" font-family="Arial" font-size="14.00" fill="#666666">[BASE TABLE]</text>
<polygon fill="none" stroke="#000000" points="165,-822.5 165,-852.5 463,-852.5 463,-822.5 165,-822.5"/>
<text text-anchor="start" x="172" y="-833.9" font-family="Arial" font-size="14.00" fill="#000000">id    </text>
<text text-anchor="start" x="217.094" y="-833.9" font-family="Arial" font-size="14.00" fill="#666666">[integer]</text>
<polygon fill="none" stroke="#000000" points="165,-792.5 165,-822.5 463,-822.5 463,-792.5 165,-792.5"/>
<text text-anchor="start" x="172" y="-803.9" font-family="Arial" font-size="14.00" fill="#000000">name    </text>
<text text-anchor="start" x="241.2132" y="-803.9" font-family="Arial" font-size="14.00" fill="#666666">[text]</text>
<polygon fill="none" stroke="#000000" points="165,-762.5 165,-792.5 463,-792.5 463,-762.5 165,-762.5"/>
<text text-anchor="start" x="172" y="-773.9" font-family="Arial" font-size="14.00" fill="#000000">owner    </text>
<text text-anchor="start" x="244.3198" y="-773.9" font-family="Arial" font-size="14.00" fill="#666666">[integer]</text>
<polygon fill="none" stroke="#000000" points="165,-732.5 165,-762.5 463,-762.5 463,-732.5 165,-732.5"/>
<text text-anchor="start" x="172" y="-743.9" font-family="Arial" font-size="14.00" fill="#000000">currency_type    </text>
<text text-anchor="start" x="294.1122" y="-743.9" font-family="Arial" font-size="14.00" fill="#666666">[text]</text>
<polygon fill="none" stroke="#000000" points="165,-702.5 165,-732.5 463,-732.5 463,-702.5 165,-702.5"/>
<text text-anchor="start" x="172" y="-713.9" font-family="Arial" font-size="14.00" fill="#000000">code    </text>
<text text-anchor="start" x="236.5526" y="-713.9" font-family="Arial" font-size="14.00" fill="#666666">[text]</text>
</g>
<!-- acq.fund_allocation_percent&#45;&gt;acq.funding_source -->
<g id="edge1" class="edge">
<title>acq.fund_allocation_percent:funding_source&#45;&gt;acq.funding_source:id</title>
<path fill="none" stroke="#000000" d="M501.3915,-1864.7252C407.1276,-1806.0807 574.1003,-837.5 463,-837.5"/>
<polygon fill="#000000" stroke="#000000" points="501.3926,-1864.7255 509.7515,-1871.8233 506.1963,-1866.1127 511,-1867.5 511,-1867.5 511,-1867.5 506.1963,-1866.1127 512.2485,-1863.1767 501.3926,-1864.7255 501.3926,-1864.7255"/>
<text text-anchor="start" x="7.0835" y="-1877.5" font-family="Arial" font-size="10.00" fill="#000000">FOREIGN KEY (funding_source) REFERENCES acq.funding_source(id) DEFERRABLE INITIALLY DEFERRED</text>
</g>
<!-- actor.org_unit -->
<g id="node3" class="node">
<title>actor.org_unit</title>
<polygon fill="#efefef" stroke="transparent" points="568,-972.5 568,-1007.5 819,-1007.5 819,-972.5 568,-972.5"/>
<polygon fill="none" stroke="#000000" points="568,-972.5 568,-1007.5 819,-1007.5 819,-972.5 568,-972.5"/>
<text text-anchor="start" x="574.7017" y="-985.3" font-family="Arial Bold" font-size="18.00" fill="#000000">actor.org_unit</text>
<text text-anchor="start" x="684.7303" y="-985.3" font-family="Arial" font-size="14.00" fill="#000000">    </text>
<text text-anchor="start" x="718.9351" y="-985.3" font-family="Arial" font-size="14.00" fill="#666666">[BASE TABLE]</text>
<polygon fill="none" stroke="#000000" points="568,-942.5 568,-972.5 819,-972.5 819,-942.5 568,-942.5"/>
<text text-anchor="start" x="575" y="-953.9" font-family="Arial" font-size="14.00" fill="#000000">id    </text>
<text text-anchor="start" x="620.094" y="-953.9" font-family="Arial" font-size="14.00" fill="#666666">[integer]</text>
<polygon fill="none" stroke="#000000" points="568,-912.5 568,-942.5 819,-942.5 819,-912.5 568,-912.5"/>
<text text-anchor="start" x="575" y="-923.9" font-family="Arial" font-size="14.00" fill="#000000">parent_ou    </text>
<text text-anchor="start" x="672.2342" y="-923.9" font-family="Arial" font-size="14.00" fill="#666666">[integer]</text>
<polygon fill="none" stroke="#000000" points="568,-882.5 568,-912.5 819,-912.5 819,-882.5 568,-882.5"/>
<text text-anchor="start" x="575" y="-893.9" font-family="Arial" font-size="14.00" fill="#000000">ou_type    </text>
<text text-anchor="start" x="659.0084" y="-893.9" font-family="Arial" font-size="14.00" fill="#666666">[integer]</text>
<polygon fill="none" stroke="#000000" points="568,-852.5 568,-882.5 819,-882.5 819,-852.5 568,-852.5"/>
<text text-anchor="start" x="575" y="-863.9" font-family="Arial" font-size="14.00" fill="#000000">ill_address    </text>
<text text-anchor="start" x="676.0982" y="-863.9" font-family="Arial" font-size="14.00" fill="#666666">[integer]</text>
<polygon fill="none" stroke="#000000" points="568,-822.5 568,-852.5 819,-852.5 819,-822.5 568,-822.5"/>
<text text-anchor="start" x="575" y="-833.9" font-family="Arial" font-size="14.00" fill="#000000">holds_address    </text>
<text text-anchor="start" x="700.2328" y="-833.9" font-family="Arial" font-size="14.00" fill="#666666">[integer]</text>
<polygon fill="none" stroke="#000000" points="568,-792.5 568,-822.5 819,-822.5 819,-792.5 568,-792.5"/>
<text text-anchor="start" x="575" y="-803.9" font-family="Arial" font-size="14.00" fill="#000000">mailing_address    </text>
<text text-anchor="start" x="711.1066" y="-803.9" font-family="Arial" font-size="14.00" fill="#666666">[integer]</text>
<polygon fill="none" stroke="#000000" points="568,-762.5 568,-792.5 819,-792.5 819,-762.5 568,-762.5"/>
<text text-anchor="start" x="575" y="-773.9" font-family="Arial" font-size="14.00" fill="#000000">billing_address    </text>
<text text-anchor="start" x="702.5526" y="-773.9" font-family="Arial" font-size="14.00" fill="#666666">[integer]</text>
<polygon fill="none" stroke="#000000" points="568,-732.5 568,-762.5 819,-762.5 819,-732.5 568,-732.5"/>
<text text-anchor="start" x="575" y="-743.9" font-family="Arial" font-size="14.00" fill="#000000">shortname    </text>
<text text-anchor="start" x="675.3296" y="-743.9" font-family="Arial" font-size="14.00" fill="#666666">[text]</text>
<polygon fill="none" stroke="#000000" points="568,-702.5 568,-732.5 819,-732.5 819,-702.5 568,-702.5"/>
<text text-anchor="start" x="575" y="-713.9" font-family="Arial" font-size="14.00" fill="#000000">name    </text>
<text text-anchor="start" x="644.2132" y="-713.9" font-family="Arial" font-size="14.00" fill="#666666">[text]</text>
<polygon fill="none" stroke="#000000" points="568,-672.5 568,-702.5 819,-702.5 819,-672.5 568,-672.5"/>
<text text-anchor="start" x="575" y="-683.9" font-family="Arial" font-size="14.00" fill="#000000">email    </text>
<text text-anchor="start" x="642.6438" y="-683.9" font-family="Arial" font-size="14.00" fill="#666666">[text]</text>
<polygon fill="none" stroke="#000000" points="568,-642.5 568,-672.5 819,-672.5 819,-642.5 568,-642.5"/>
<text text-anchor="start" x="575" y="-653.9" font-family="Arial" font-size="14.00" fill="#000000">phone    </text>
<text text-anchor="start" x="648.1178" y="-653.9" font-family="Arial" font-size="14.00" fill="#666666">[text]</text>
<polygon fill="none" stroke="#000000" points="568,-612.5 568,-642.5 819,-642.5 819,-612.5 568,-612.5"/>
<text text-anchor="start" x="575" y="-623.9" font-family="Arial" font-size="14.00" fill="#000000">opac_visible    </text>
<text text-anchor="start" x="686.2202" y="-623.9" font-family="Arial" font-size="14.00" fill="#666666">[boolean]</text>
<polygon fill="none" stroke="#000000" points="568,-582.5 568,-612.5 819,-612.5 819,-582.5 568,-582.5"/>
<text text-anchor="start" x="575" y="-593.9" font-family="Arial" font-size="14.00" fill="#000000">fiscal_calendar    </text>
<text text-anchor="start" x="702.554" y="-593.9" font-family="Arial" font-size="14.00" fill="#666666">[integer]</text>
</g>
<!-- acq.fund_allocation_percent&#45;&gt;actor.org_unit -->
<g id="edge2" class="edge">
<title>acq.fund_allocation_percent:org&#45;&gt;actor.org_unit:id</title>
<path fill="none" stroke="#000000" d="M500.7762,-1836.9607C422.9036,-1828.1888 489.1487,-1714.205 511,-1627 550.8051,-1468.1446 982.7665,-957.5 819,-957.5"/>
<polygon fill="#000000" stroke="#000000" points="501.0139,-1836.9731 510.7629,-1841.9938 506.0069,-1837.2366 511,-1837.5 511,-1837.5 511,-1837.5 506.0069,-1837.2366 511.2371,-1833.0062 501.0139,-1836.9731 501.0139,-1836.9731"/>
<text text-anchor="start" x="87.103" y="-1847.5" font-family="Arial" font-size="10.00" fill="#000000">FOREIGN KEY (org) REFERENCES actor.org_unit(id) DEFERRABLE INITIALLY DEFERRED</text>
</g>
<!-- actor.usr -->
<g id="node4" class="node">
<title>actor.usr</title>
<polygon fill="#efefef" stroke="transparent" points="923,-1512.5 923,-1547.5 1243,-1547.5 1243,-1512.5 923,-1512.5"/>
<polygon fill="none" stroke="#000000" points="923,-1512.5 923,-1547.5 1243,-1547.5 1243,-1512.5 923,-1512.5"/>
<text text-anchor="start" x="984.2123" y="-1525.3" font-family="Arial Bold" font-size="18.00" fill="#000000">actor.usr</text>
<text text-anchor="start" x="1054.2197" y="-1525.3" font-family="Arial" font-size="14.00" fill="#000000">    </text>
<text text-anchor="start" x="1088.4245" y="-1525.3" font-family="Arial" font-size="14.00" fill="#666666">[BASE TABLE]</text>
<polygon fill="none" stroke="#000000" points="923,-1482.5 923,-1512.5 1243,-1512.5 1243,-1482.5 923,-1482.5"/>
<text text-anchor="start" x="930" y="-1493.9" font-family="Arial" font-size="14.00" fill="#000000">id    </text>
<text text-anchor="start" x="975.094" y="-1493.9" font-family="Arial" font-size="14.00" fill="#666666">[integer]</text>
<polygon fill="none" stroke="#000000" points="923,-1452.5 923,-1482.5 1243,-1482.5 1243,-1452.5 923,-1452.5"/>
<text text-anchor="start" x="930" y="-1463.9" font-family="Arial" font-size="14.00" fill="#000000">card    </text>
<text text-anchor="start" x="991.4306" y="-1463.9" font-family="Arial" font-size="14.00" fill="#666666">[integer]</text>
<polygon fill="none" stroke="#000000" points="923,-1422.5 923,-1452.5 1243,-1452.5 1243,-1422.5 923,-1422.5"/>
<text text-anchor="start" x="930" y="-1433.9" font-family="Arial" font-size="14.00" fill="#000000">profile    </text>
<text text-anchor="start" x="1002.317" y="-1433.9" font-family="Arial" font-size="14.00" fill="#666666">[integer]</text>
<polygon fill="none" stroke="#000000" points="923,-1392.5 923,-1422.5 1243,-1422.5 1243,-1392.5 923,-1392.5"/>
<text text-anchor="start" x="930" y="-1403.9" font-family="Arial" font-size="14.00" fill="#000000">usrname    </text>
<text text-anchor="start" x="1018.6564" y="-1403.9" font-family="Arial" font-size="14.00" fill="#666666">[text]</text>
<polygon fill="none" stroke="#000000" points="923,-1362.5 923,-1392.5 1243,-1392.5 1243,-1362.5 923,-1362.5"/>
<text text-anchor="start" x="930" y="-1373.9" font-family="Arial" font-size="14.00" fill="#000000">email    </text>
<text text-anchor="start" x="997.6438" y="-1373.9" font-family="Arial" font-size="14.00" fill="#666666">[text]</text>
<polygon fill="none" stroke="#000000" points="923,-1332.5 923,-1362.5 1243,-1362.5 1243,-1332.5 923,-1332.5"/>
<text text-anchor="start" x="930" y="-1343.9" font-family="Arial" font-size="14.00" fill="#000000">passwd    </text>
<text text-anchor="start" x="1011.6592" y="-1343.9" font-family="Arial" font-size="14.00" fill="#666666">[text]</text>
<polygon fill="none" stroke="#000000" points="923,-1302.5 923,-1332.5 1243,-1332.5 1243,-1302.5 923,-1302.5"/>
<text text-anchor="start" x="930" y="-1313.9" font-family="Arial" font-size="14.00" fill="#000000">standing    </text>
<text text-anchor="start" x="1017.115" y="-1313.9" font-family="Arial" font-size="14.00" fill="#666666">[integer]</text>
<polygon fill="none" stroke="#000000" points="923,-1272.5 923,-1302.5 1243,-1302.5 1243,-1272.5 923,-1272.5"/>
<text text-anchor="start" x="930" y="-1283.9" font-family="Arial" font-size="14.00" fill="#000000">ident_type    </text>
<text text-anchor="start" x="1028.7882" y="-1283.9" font-family="Arial" font-size="14.00" fill="#666666">[integer]</text>
<polygon fill="none" stroke="#000000" points="923,-1242.5 923,-1272.5 1243,-1272.5 1243,-1242.5 923,-1242.5"/>
<text text-anchor="start" x="930" y="-1253.9" font-family="Arial" font-size="14.00" fill="#000000">ident_value    </text>
<text text-anchor="start" x="1035.7868" y="-1253.9" font-family="Arial" font-size="14.00" fill="#666666">[text]</text>
<polygon fill="none" stroke="#000000" points="923,-1212.5 923,-1242.5 1243,-1242.5 1243,-1212.5 923,-1212.5"/>
<text text-anchor="start" x="930" y="-1223.9" font-family="Arial" font-size="14.00" fill="#000000">ident_type2    </text>
<text text-anchor="start" x="1036.5708" y="-1223.9" font-family="Arial" font-size="14.00" fill="#666666">[integer]</text>
<polygon fill="none" stroke="#000000" points="923,-1182.5 923,-1212.5 1243,-1212.5 1243,-1182.5 923,-1182.5"/>
<text text-anchor="start" x="930" y="-1193.9" font-family="Arial" font-size="14.00" fill="#000000">ident_value2    </text>
<text text-anchor="start" x="1043.5694" y="-1193.9" font-family="Arial" font-size="14.00" fill="#666666">[text]</text>
<polygon fill="none" stroke="#000000" points="923,-1152.5 923,-1182.5 1243,-1182.5 1243,-1152.5 923,-1152.5"/>
<text text-anchor="start" x="930" y="-1163.9" font-family="Arial" font-size="14.00" fill="#000000">net_access_level    </text>
<text text-anchor="start" x="1071.5694" y="-1163.9" font-family="Arial" font-size="14.00" fill="#666666">[integer]</text>
<polygon fill="none" stroke="#000000" points="923,-1122.5 923,-1152.5 1243,-1152.5 1243,-1122.5 923,-1122.5"/>
<text text-anchor="start" x="930" y="-1133.9" font-family="Arial" font-size="14.00" fill="#000000">photo_url    </text>
<text text-anchor="start" x="1022.5582" y="-1133.9" font-family="Arial" font-size="14.00" fill="#666666">[text]</text>
<polygon fill="none" stroke="#000000" points="923,-1092.5 923,-1122.5 1243,-1122.5 1243,-1092.5 923,-1092.5"/>
<text text-anchor="start" x="930" y="-1103.9" font-family="Arial" font-size="14.00" fill="#000000">prefix    </text>
<text text-anchor="start" x="998.4278" y="-1103.9" font-family="Arial" font-size="14.00" fill="#666666">[text]</text>
<polygon fill="none" stroke="#000000" points="923,-1062.5 923,-1092.5 1243,-1092.5 1243,-1062.5 923,-1062.5"/>
<text text-anchor="start" x="930" y="-1073.9" font-family="Arial" font-size="14.00" fill="#000000">first_given_name    </text>
<text text-anchor="start" x="1070.7812" y="-1073.9" font-family="Arial" font-size="14.00" fill="#666666">[text]</text>
<polygon fill="none" stroke="#000000" points="923,-1032.5 923,-1062.5 1243,-1062.5 1243,-1032.5 923,-1032.5"/>
<text text-anchor="start" x="930" y="-1043.9" font-family="Arial" font-size="14.00" fill="#000000">second_given_name    </text>
<text text-anchor="start" x="1093.3632" y="-1043.9" font-family="Arial" font-size="14.00" fill="#666666">[text]</text>
<polygon fill="none" stroke="#000000" points="923,-1002.5 923,-1032.5 1243,-1032.5 1243,-1002.5 923,-1002.5"/>
<text text-anchor="start" x="930" y="-1013.9" font-family="Arial" font-size="14.00" fill="#000000">family_name    </text>
<text text-anchor="start" x="1043.5428" y="-1013.9" font-family="Arial" font-size="14.00" fill="#666666">[text]</text>
<polygon fill="none" stroke="#000000" points="923,-972.5 923,-1002.5 1243,-1002.5 1243,-972.5 923,-972.5"/>
<text text-anchor="start" x="930" y="-983.9" font-family="Arial" font-size="14.00" fill="#000000">suffix    </text>
<text text-anchor="start" x="996.8752" y="-983.9" font-family="Arial" font-size="14.00" fill="#666666">[text]</text>
<polygon fill="none" stroke="#000000" points="923,-942.5 923,-972.5 1243,-972.5 1243,-942.5 923,-942.5"/>
<text text-anchor="start" x="930" y="-953.9" font-family="Arial" font-size="14.00" fill="#000000">alias    </text>
<text text-anchor="start" x="992.9832" y="-953.9" font-family="Arial" font-size="14.00" fill="#666666">[text]</text>
<polygon fill="none" stroke="#000000" points="923,-912.5 923,-942.5 1243,-942.5 1243,-912.5 923,-912.5"/>
<text text-anchor="start" x="930" y="-923.9" font-family="Arial" font-size="14.00" fill="#000000">day_phone    </text>
<text text-anchor="start" x="1033.4656" y="-923.9" font-family="Arial" font-size="14.00" fill="#666666">[text]</text>
<polygon fill="none" stroke="#000000" points="923,-882.5 923,-912.5 1243,-912.5 1243,-882.5 923,-882.5"/>
<text text-anchor="start" x="930" y="-893.9" font-family="Arial" font-size="14.00" fill="#000000">evening_phone    </text>
<text text-anchor="start" x="1059.92" y="-893.9" font-family="Arial" font-size="14.00" fill="#666666">[text]</text>
<polygon fill="none" stroke="#000000" points="923,-852.5 923,-882.5 1243,-882.5 1243,-852.5 923,-852.5"/>
<text text-anchor="start" x="930" y="-863.9" font-family="Arial" font-size="14.00" fill="#000000">other_phone    </text>
<text text-anchor="start" x="1042.7994" y="-863.9" font-family="Arial" font-size="14.00" fill="#666666">[text]</text>
<polygon fill="none" stroke="#000000" points="923,-822.5 923,-852.5 1243,-852.5 1243,-822.5 923,-822.5"/>
<text text-anchor="start" x="930" y="-833.9" font-family="Arial" font-size="14.00" fill="#000000">mailing_address    </text>
<text text-anchor="start" x="1066.1066" y="-833.9" font-family="Arial" font-size="14.00" fill="#666666">[integer]</text>
<polygon fill="none" stroke="#000000" points="923,-792.5 923,-822.5 1243,-822.5 1243,-792.5 923,-792.5"/>
<text text-anchor="start" x="930" y="-803.9" font-family="Arial" font-size="14.00" fill="#000000">billing_address    </text>
<text text-anchor="start" x="1057.5526" y="-803.9" font-family="Arial" font-size="14.00" fill="#666666">[integer]</text>
<polygon fill="none" stroke="#000000" points="923,-762.5 923,-792.5 1243,-792.5 1243,-762.5 923,-762.5"/>
<text text-anchor="start" x="930" y="-773.9" font-family="Arial" font-size="14.00" fill="#000000">home_ou    </text>
<text text-anchor="start" x="1022.561" y="-773.9" font-family="Arial" font-size="14.00" fill="#666666">[integer]</text>
<polygon fill="none" stroke="#000000" points="923,-732.5 923,-762.5 1243,-762.5 1243,-732.5 923,-732.5"/>
<text text-anchor="start" x="930" y="-743.9" font-family="Arial" font-size="14.00" fill="#000000">dob    </text>
<text text-anchor="start" x="987.5526" y="-743.9" font-family="Arial" font-size="14.00" fill="#666666">[date]</text>
<polygon fill="none" stroke="#000000" points="923,-702.5 923,-732.5 1243,-732.5 1243,-702.5 923,-702.5"/>
<text text-anchor="start" x="930" y="-713.9" font-family="Arial" font-size="14.00" fill="#000000">active    </text>
<text text-anchor="start" x="1000.7672" y="-713.9" font-family="Arial" font-size="14.00" fill="#666666">[boolean]</text>
<polygon fill="none" stroke="#000000" points="923,-672.5 923,-702.5 1243,-702.5 1243,-672.5 923,-672.5"/>
<text text-anchor="start" x="930" y="-683.9" font-family="Arial" font-size="14.00" fill="#000000">master_account    </text>
<text text-anchor="start" x="1063.7854" y="-683.9" font-family="Arial" font-size="14.00" fill="#666666">[boolean]</text>
<polygon fill="none" stroke="#000000" points="923,-642.5 923,-672.5 1243,-672.5 1243,-642.5 923,-642.5"/>
<text text-anchor="start" x="930" y="-653.9" font-family="Arial" font-size="14.00" fill="#000000">super_user    </text>
<text text-anchor="start" x="1034.2216" y="-653.9" font-family="Arial" font-size="14.00" fill="#666666">[boolean]</text>
<polygon fill="none" stroke="#000000" points="923,-612.5 923,-642.5 1243,-642.5 1243,-612.5 923,-612.5"/>
<text text-anchor="start" x="930" y="-623.9" font-family="Arial" font-size="14.00" fill="#000000">barred    </text>
<text text-anchor="start" x="1004.6564" y="-623.9" font-family="Arial" font-size="14.00" fill="#666666">[boolean]</text>
<polygon fill="none" stroke="#000000" points="923,-582.5 923,-612.5 1243,-612.5 1243,-582.5 923,-582.5"/>
<text text-anchor="start" x="930" y="-593.9" font-family="Arial" font-size="14.00" fill="#000000">deleted    </text>
<text text-anchor="start" x="1010.115" y="-593.9" font-family="Arial" font-size="14.00" fill="#666666">[boolean]</text>
<polygon fill="none" stroke="#000000" points="923,-552.5 923,-582.5 1243,-582.5 1243,-552.5 923,-552.5"/>
<text text-anchor="start" x="930" y="-563.9" font-family="Arial" font-size="14.00" fill="#000000">juvenile    </text>
<text text-anchor="start" x="1011.655" y="-563.9" font-family="Arial" font-size="14.00" fill="#666666">[boolean]</text>
<polygon fill="none" stroke="#000000" points="923,-522.5 923,-552.5 1243,-552.5 1243,-522.5 923,-522.5"/>
<text text-anchor="start" x="930" y="-533.9" font-family="Arial" font-size="14.00" fill="#000000">usrgroup    </text>
<text text-anchor="start" x="1019.439" y="-533.9" font-family="Arial" font-size="14.00" fill="#666666">[integer]</text>
<polygon fill="none" stroke="#000000" points="923,-492.5 923,-522.5 1243,-522.5 1243,-492.5 923,-492.5"/>
<text text-anchor="start" x="930" y="-503.9" font-family="Arial" font-size="14.00" fill="#000000">claims_returned_count    </text>
<text text-anchor="start" x="1105.7896" y="-503.9" font-family="Arial" font-size="14.00" fill="#666666">[integer]</text>
<polygon fill="none" stroke="#000000" points="923,-462.5 923,-492.5 1243,-492.5 1243,-462.5 923,-462.5"/>
<text text-anchor="start" x="930" y="-473.9" font-family="Arial" font-size="14.00" fill="#000000">credit_forward_balance    </text>
<text text-anchor="start" x="1109.6788" y="-473.9" font-family="Arial" font-size="14.00" fill="#666666">[numeric(6,2)]</text>
<polygon fill="none" stroke="#000000" points="923,-432.5 923,-462.5 1243,-462.5 1243,-432.5 923,-432.5"/>
<text text-anchor="start" x="930" y="-443.9" font-family="Arial" font-size="14.00" fill="#000000">last_xact_id    </text>
<text text-anchor="start" x="1038.1122" y="-443.9" font-family="Arial" font-size="14.00" fill="#666666">[text]</text>
<polygon fill="none" stroke="#000000" points="923,-402.5 923,-432.5 1243,-432.5 1243,-402.5 923,-402.5"/>
<text text-anchor="start" x="930" y="-413.9" font-family="Arial" font-size="14.00" fill="#000000">alert_message    </text>
<text text-anchor="start" x="1056.0014" y="-413.9" font-family="Arial" font-size="14.00" fill="#666666">[text]</text>
<polygon fill="none" stroke="#000000" points="923,-372.5 923,-402.5 1243,-402.5 1243,-372.5 923,-372.5"/>
<text text-anchor="start" x="930" y="-383.9" font-family="Arial" font-size="14.00" fill="#000000">create_date    </text>
<text text-anchor="start" x="1038.1248" y="-383.9" font-family="Arial" font-size="14.00" fill="#666666">[timestamp with time zone]</text>
<polygon fill="none" stroke="#000000" points="923,-342.5 923,-372.5 1243,-372.5 1243,-342.5 923,-342.5"/>
<text text-anchor="start" x="930" y="-353.9" font-family="Arial" font-size="14.00" fill="#000000">expire_date    </text>
<text text-anchor="start" x="1037.3408" y="-353.9" font-family="Arial" font-size="14.00" fill="#666666">[timestamp with time zone]</text>
<polygon fill="none" stroke="#000000" points="923,-312.5 923,-342.5 1243,-342.5 1243,-312.5 923,-312.5"/>
<text text-anchor="start" x="930" y="-323.9" font-family="Arial" font-size="14.00" fill="#000000">claims_never_checked_out_count    </text>
<text text-anchor="start" x="1175.8246" y="-323.9" font-family="Arial" font-size="14.00" fill="#666666">[integer]</text>
<polygon fill="none" stroke="#000000" points="923,-282.5 923,-312.5 1243,-312.5 1243,-282.5 923,-282.5"/>
<text text-anchor="start" x="929.7609" y="-293.9" font-family="Arial" font-size="14.00" fill="#000000">last_update_time    </text>
<text text-anchor="start" x="1070.5547" y="-293.9" font-family="Arial" font-size="14.00" fill="#666666">[timestamp with time zone]</text>
<polygon fill="none" stroke="#000000" points="923,-252.5 923,-282.5 1243,-282.5 1243,-252.5 923,-252.5"/>
<text text-anchor="start" x="930" y="-263.9" font-family="Arial" font-size="14.00" fill="#000000">pref_prefix    </text>
<text text-anchor="start" x="1030.3268" y="-263.9" font-family="Arial" font-size="14.00" fill="#666666">[text]</text>
<polygon fill="none" stroke="#000000" points="923,-222.5 923,-252.5 1243,-252.5 1243,-222.5 923,-222.5"/>
<text text-anchor="start" x="930" y="-233.9" font-family="Arial" font-size="14.00" fill="#000000">pref_first_given_name    </text>
<text text-anchor="start" x="1102.6802" y="-233.9" font-family="Arial" font-size="14.00" fill="#666666">[text]</text>
<polygon fill="none" stroke="#000000" points="923,-192.5 923,-222.5 1243,-222.5 1243,-192.5 923,-192.5"/>
<text text-anchor="start" x="930" y="-203.9" font-family="Arial" font-size="14.00" fill="#000000">pref_second_given_name    </text>
<text text-anchor="start" x="1125.2622" y="-203.9" font-family="Arial" font-size="14.00" fill="#666666">[text]</text>
<polygon fill="none" stroke="#000000" points="923,-162.5 923,-192.5 1243,-192.5 1243,-162.5 923,-162.5"/>
<text text-anchor="start" x="930" y="-173.9" font-family="Arial" font-size="14.00" fill="#000000">pref_family_name    </text>
<text text-anchor="start" x="1075.4418" y="-173.9" font-family="Arial" font-size="14.00" fill="#666666">[text]</text>
<polygon fill="none" stroke="#000000" points="923,-132.5 923,-162.5 1243,-162.5 1243,-132.5 923,-132.5"/>
<text text-anchor="start" x="930" y="-143.9" font-family="Arial" font-size="14.00" fill="#000000">pref_suffix    </text>
<text text-anchor="start" x="1028.7742" y="-143.9" font-family="Arial" font-size="14.00" fill="#666666">[text]</text>
<polygon fill="none" stroke="#000000" points="923,-102.5 923,-132.5 1243,-132.5 1243,-102.5 923,-102.5"/>
<text text-anchor="start" x="930" y="-113.9" font-family="Arial" font-size="14.00" fill="#000000">name_keywords    </text>
<text text-anchor="start" x="1066.1108" y="-113.9" font-family="Arial" font-size="14.00" fill="#666666">[text]</text>
<polygon fill="none" stroke="#000000" points="923,-72.5 923,-102.5 1243,-102.5 1243,-72.5 923,-72.5"/>
<text text-anchor="start" x="930" y="-83.9" font-family="Arial" font-size="14.00" fill="#000000">name_kw_tsvector    </text>
<text text-anchor="start" x="1080.892" y="-83.9" font-family="Arial" font-size="14.00" fill="#666666">[tsvector]</text>
<polygon fill="none" stroke="#000000" points="923,-42.5 923,-72.5 1243,-72.5 1243,-42.5 923,-42.5"/>
<text text-anchor="start" x="930" y="-53.9" font-family="Arial" font-size="14.00" fill="#000000">guardian    </text>
<text text-anchor="start" x="1018.6676" y="-53.9" font-family="Arial" font-size="14.00" fill="#666666">[text]</text>
</g>
<!-- acq.fund_allocation_percent&#45;&gt;actor.usr -->
<g id="edge3" class="edge">
<title>acq.fund_allocation_percent:allocator&#45;&gt;actor.usr:id</title>
<path fill="none" stroke="#000000" d="M887.0295,-1746.7378C978.6821,-1731.6464 813.6645,-1497.5 923,-1497.5"/>
<polygon fill="#000000" stroke="#000000" points="886.9712,-1746.7422 876.659,-1743.0129 881.9856,-1747.1211 877,-1747.5 877,-1747.5 877,-1747.5 881.9856,-1747.1211 877.341,-1751.9871 886.9712,-1746.7422 886.9712,-1746.7422"/>
<text text-anchor="start" x="883.5525" y="-1757.5" font-family="Arial" font-size="10.00" fill="#000000">FOREIGN KEY (allocator) REFERENCES actor.usr(id) DEFERRABLE INITIALLY DEFERRED</text>
</g>
</g>
</svg>
