<?xml version="1.0" encoding="UTF-8" standalone="no"?>
<!DOCTYPE svg PUBLIC "-//W3C//DTD SVG 1.1//EN"
 "http://www.w3.org/Graphics/SVG/1.1/DTD/svg11.dtd">
<!-- Generated by graphviz version 2.40.1 (20161225.0304)
 -->
<!-- Title: acq.fund_debit Pages: 1 -->
<svg width="1822pt" height="1529pt"
 viewBox="0.00 0.00 1822.00 1529.00" xmlns="http://www.w3.org/2000/svg" xmlns:xlink="http://www.w3.org/1999/xlink">
<g id="graph0" class="graph" transform="scale(1 1) rotate(0) translate(4 1525)">
<title>acq.fund_debit</title>
<polygon fill="#ffffff" stroke="transparent" points="-4,4 -4,-1525 1818,-1525 1818,4 -4,4"/>
<!-- acq.fund_debit -->
<g id="node1" class="node">
<title>acq.fund_debit</title>
<polygon fill="#efefef" stroke="transparent" points="773,-832.5 773,-867.5 1032,-867.5 1032,-832.5 773,-832.5"/>
<polygon fill="none" stroke="#000000" points="773,-832.5 773,-867.5 1032,-867.5 1032,-832.5 773,-832.5"/>
<text text-anchor="start" x="779.6877" y="-845.3" font-family="Arial Bold" font-size="18.00" fill="#000000">acq.fund_debit</text>
<text text-anchor="start" x="897.7443" y="-845.3" font-family="Arial" font-size="14.00" fill="#000000">    </text>
<text text-anchor="start" x="931.9491" y="-845.3" font-family="Arial" font-size="14.00" fill="#666666">[BASE TABLE]</text>
<polygon fill="none" stroke="#000000" points="773,-802.5 773,-832.5 1032,-832.5 1032,-802.5 773,-802.5"/>
<text text-anchor="start" x="780" y="-813.9" font-family="Arial" font-size="14.00" fill="#000000">id </text>
<text text-anchor="start" x="794.7798" y="-813.9" font-family="Arial" font-size="14.00" fill="#666666">[integer]</text>
<polygon fill="none" stroke="#000000" points="773,-772.5 773,-802.5 1032,-802.5 1032,-772.5 773,-772.5"/>
<text text-anchor="start" x="780" y="-783.9" font-family="Arial" font-size="14.00" fill="#000000">fund </text>
<text text-anchor="start" x="811.129" y="-783.9" font-family="Arial" font-size="14.00" fill="#666666">[integer]</text>
<polygon fill="none" stroke="#000000" points="773,-742.5 773,-772.5 1032,-772.5 1032,-742.5 773,-742.5"/>
<text text-anchor="start" x="780" y="-753.9" font-family="Arial" font-size="14.00" fill="#000000">origin_amount </text>
<text text-anchor="start" x="872.5764" y="-753.9" font-family="Arial" font-size="14.00" fill="#666666">[numeric]</text>
<polygon fill="none" stroke="#000000" points="773,-712.5 773,-742.5 1032,-742.5 1032,-712.5 773,-712.5"/>
<text text-anchor="start" x="780" y="-723.9" font-family="Arial" font-size="14.00" fill="#000000">origin_currency_type </text>
<text text-anchor="start" x="913.8022" y="-723.9" font-family="Arial" font-size="14.00" fill="#666666">[text]</text>
<polygon fill="none" stroke="#000000" points="773,-682.5 773,-712.5 1032,-712.5 1032,-682.5 773,-682.5"/>
<text text-anchor="start" x="780" y="-693.9" font-family="Arial" font-size="14.00" fill="#000000">amount </text>
<text text-anchor="start" x="830.5722" y="-693.9" font-family="Arial" font-size="14.00" fill="#666666">[numeric]</text>
<polygon fill="none" stroke="#000000" points="773,-652.5 773,-682.5 1032,-682.5 1032,-652.5 773,-652.5"/>
<text text-anchor="start" x="780" y="-663.9" font-family="Arial" font-size="14.00" fill="#000000">encumbrance </text>
<text text-anchor="start" x="868.69" y="-663.9" font-family="Arial" font-size="14.00" fill="#666666">[boolean]</text>
<polygon fill="none" stroke="#000000" points="773,-622.5 773,-652.5 1032,-652.5 1032,-622.5 773,-622.5"/>
<text text-anchor="start" x="780" y="-633.9" font-family="Arial" font-size="14.00" fill="#000000">debit_type </text>
<text text-anchor="start" x="848.474" y="-633.9" font-family="Arial" font-size="14.00" fill="#666666">[text]</text>
<polygon fill="none" stroke="#000000" points="773,-592.5 773,-622.5 1032,-622.5 1032,-592.5 773,-592.5"/>
<text text-anchor="start" x="780" y="-603.9" font-family="Arial" font-size="14.00" fill="#000000">xfer_destination </text>
<text text-anchor="start" x="882.697" y="-603.9" font-family="Arial" font-size="14.00" fill="#666666">[integer]</text>
<polygon fill="none" stroke="#000000" points="773,-562.5 773,-592.5 1032,-592.5 1032,-562.5 773,-562.5"/>
<text text-anchor="start" x="780" y="-573.9" font-family="Arial" font-size="14.00" fill="#000000">create_time </text>
<text text-anchor="start" x="857.0126" y="-573.9" font-family="Arial" font-size="14.00" fill="#666666">[timestamp with time zone]</text>
<polygon fill="none" stroke="#000000" points="773,-532.5 773,-562.5 1032,-562.5 1032,-532.5 773,-532.5"/>
<text text-anchor="start" x="780" y="-543.9" font-family="Arial" font-size="14.00" fill="#000000">invoice_entry </text>
<text text-anchor="start" x="866.3506" y="-543.9" font-family="Arial" font-size="14.00" fill="#666666">[integer]</text>
<polygon fill="none" stroke="#000000" stroke-width="3" points="771,-531.5 771,-869.5 1033,-869.5 1033,-531.5 771,-531.5"/>
</g>
<!-- acq.fund -->
<g id="node6" class="node">
<title>acq.fund</title>
<polygon fill="#efefef" stroke="transparent" points="585,-372.5 585,-407.5 844,-407.5 844,-372.5 585,-372.5"/>
<polygon fill="none" stroke="#000000" points="585,-372.5 585,-407.5 844,-407.5 844,-372.5 585,-372.5"/>
<text text-anchor="start" x="616.1983" y="-385.3" font-family="Arial Bold" font-size="18.00" fill="#000000">acq.fund</text>
<text text-anchor="start" x="685.2337" y="-385.3" font-family="Arial" font-size="14.00" fill="#000000">    </text>
<text text-anchor="start" x="719.4385" y="-385.3" font-family="Arial" font-size="14.00" fill="#666666">[BASE TABLE]</text>
<polygon fill="none" stroke="#000000" points="585,-342.5 585,-372.5 844,-372.5 844,-342.5 585,-342.5"/>
<text text-anchor="start" x="592" y="-353.9" font-family="Arial" font-size="14.00" fill="#000000">id    </text>
<text text-anchor="start" x="637.094" y="-353.9" font-family="Arial" font-size="14.00" fill="#666666">[integer]</text>
<polygon fill="none" stroke="#000000" points="585,-312.5 585,-342.5 844,-342.5 844,-312.5 585,-312.5"/>
<text text-anchor="start" x="592" y="-323.9" font-family="Arial" font-size="14.00" fill="#000000">org    </text>
<text text-anchor="start" x="646.4306" y="-323.9" font-family="Arial" font-size="14.00" fill="#666666">[integer]</text>
<polygon fill="none" stroke="#000000" points="585,-282.5 585,-312.5 844,-312.5 844,-282.5 585,-282.5"/>
<text text-anchor="start" x="592" y="-293.9" font-family="Arial" font-size="14.00" fill="#000000">name    </text>
<text text-anchor="start" x="661.2132" y="-293.9" font-family="Arial" font-size="14.00" fill="#666666">[text]</text>
<polygon fill="none" stroke="#000000" points="585,-252.5 585,-282.5 844,-282.5 844,-252.5 585,-252.5"/>
<text text-anchor="start" x="592" y="-263.9" font-family="Arial" font-size="14.00" fill="#000000">year    </text>
<text text-anchor="start" x="653.4306" y="-263.9" font-family="Arial" font-size="14.00" fill="#666666">[integer]</text>
<polygon fill="none" stroke="#000000" points="585,-222.5 585,-252.5 844,-252.5 844,-222.5 585,-222.5"/>
<text text-anchor="start" x="592" y="-233.9" font-family="Arial" font-size="14.00" fill="#000000">currency_type    </text>
<text text-anchor="start" x="714.1122" y="-233.9" font-family="Arial" font-size="14.00" fill="#666666">[text]</text>
<polygon fill="none" stroke="#000000" points="585,-192.5 585,-222.5 844,-222.5 844,-192.5 585,-192.5"/>
<text text-anchor="start" x="592" y="-203.9" font-family="Arial" font-size="14.00" fill="#000000">code    </text>
<text text-anchor="start" x="656.5526" y="-203.9" font-family="Arial" font-size="14.00" fill="#666666">[text]</text>
<polygon fill="none" stroke="#000000" points="585,-162.5 585,-192.5 844,-192.5 844,-162.5 585,-162.5"/>
<text text-anchor="start" x="592" y="-173.9" font-family="Arial" font-size="14.00" fill="#000000">rollover    </text>
<text text-anchor="start" x="672.087" y="-173.9" font-family="Arial" font-size="14.00" fill="#666666">[boolean]</text>
<polygon fill="none" stroke="#000000" points="585,-132.5 585,-162.5 844,-162.5 844,-132.5 585,-132.5"/>
<text text-anchor="start" x="592" y="-143.9" font-family="Arial" font-size="14.00" fill="#000000">propagate    </text>
<text text-anchor="start" x="689.2342" y="-143.9" font-family="Arial" font-size="14.00" fill="#666666">[boolean]</text>
<polygon fill="none" stroke="#000000" points="585,-102.5 585,-132.5 844,-132.5 844,-102.5 585,-102.5"/>
<text text-anchor="start" x="592" y="-113.9" font-family="Arial" font-size="14.00" fill="#000000">active    </text>
<text text-anchor="start" x="662.7672" y="-113.9" font-family="Arial" font-size="14.00" fill="#666666">[boolean]</text>
<polygon fill="none" stroke="#000000" points="585,-72.5 585,-102.5 844,-102.5 844,-72.5 585,-72.5"/>
<text text-anchor="start" x="591.9776" y="-83.9" font-family="Arial" font-size="14.00" fill="#000000">balance_warning_percent    </text>
<text text-anchor="start" x="786.453" y="-83.9" font-family="Arial" font-size="14.00" fill="#666666">[integer]</text>
<polygon fill="none" stroke="#000000" points="585,-42.5 585,-72.5 844,-72.5 844,-42.5 585,-42.5"/>
<text text-anchor="start" x="592" y="-53.9" font-family="Arial" font-size="14.00" fill="#000000">balance_stop_percent    </text>
<text text-anchor="start" x="763.927" y="-53.9" font-family="Arial" font-size="14.00" fill="#666666">[integer]</text>
</g>
<!-- acq.fund_debit&#45;&gt;acq.fund -->
<g id="edge5" class="edge">
<title>acq.fund_debit:fund&#45;&gt;acq.fund:id</title>
<path fill="none" stroke="#000000" d="M762.8434,-787.1154C642.8059,-777.7055 704.948,-597.8052 773,-487 791.5158,-456.8517 825.4842,-481.1483 844,-451 865.7477,-415.5895 885.5556,-357.5 844,-357.5"/>
<polygon fill="#000000" stroke="#000000" points="763.0072,-787.1215 772.8297,-791.9968 768.0036,-787.3107 773,-787.5 773,-787.5 773,-787.5 768.0036,-787.3107 773.1703,-783.0032 763.0072,-787.1215 763.0072,-787.1215"/>
<text text-anchor="start" x="365.9855" y="-797.5" font-family="Arial" font-size="10.00" fill="#000000">FOREIGN KEY (fund) REFERENCES acq.fund(id) DEFERRABLE INITIALLY DEFERRED</text>
</g>
<!-- acq.fund_debit&#45;&gt;acq.fund -->
<g id="edge7" class="edge">
<title>acq.fund_debit:xfer_destination&#45;&gt;acq.fund:id</title>
<path fill="none" stroke="#000000" d="M762.8494,-606.4258C723.0467,-597.1167 746.943,-529.4272 773,-487 791.5158,-456.8517 825.4842,-481.1483 844,-451 865.7477,-415.5895 885.5556,-357.5 844,-357.5"/>
<polygon fill="#000000" stroke="#000000" points="763.0555,-606.4476 772.5264,-611.975 768.0278,-606.9738 773,-607.5 773,-607.5 773,-607.5 768.0278,-606.9738 773.4736,-603.025 763.0555,-606.4476 763.0555,-606.4476"/>
<text text-anchor="start" x="315.4255" y="-617.5" font-family="Arial" font-size="10.00" fill="#000000">FOREIGN KEY (xfer_destination) REFERENCES acq.fund(id) DEFERRABLE INITIALLY DEFERRED</text>
</g>
<!-- acq.currency_type -->
<g id="node7" class="node">
<title>acq.currency_type</title>
<polygon fill="#efefef" stroke="transparent" points="948,-237.5 948,-272.5 1236,-272.5 1236,-237.5 948,-237.5"/>
<polygon fill="none" stroke="#000000" points="948,-237.5 948,-272.5 1236,-272.5 1236,-237.5 948,-237.5"/>
<text text-anchor="start" x="954.6968" y="-250.3" font-family="Arial Bold" font-size="18.00" fill="#000000">acq.currency_type</text>
<text text-anchor="start" x="1101.7352" y="-250.3" font-family="Arial" font-size="14.00" fill="#000000">    </text>
<text text-anchor="start" x="1135.94" y="-250.3" font-family="Arial" font-size="14.00" fill="#666666">[BASE TABLE]</text>
<polygon fill="none" stroke="#000000" points="948,-207.5 948,-237.5 1236,-237.5 1236,-207.5 948,-207.5"/>
<text text-anchor="start" x="955" y="-218.9" font-family="Arial" font-size="14.00" fill="#000000">code    </text>
<text text-anchor="start" x="1019.5526" y="-218.9" font-family="Arial" font-size="14.00" fill="#666666">[text]</text>
<polygon fill="none" stroke="#000000" points="948,-177.5 948,-207.5 1236,-207.5 1236,-177.5 948,-177.5"/>
<text text-anchor="start" x="955" y="-188.9" font-family="Arial" font-size="14.00" fill="#000000">label    </text>
<text text-anchor="start" x="1018.7658" y="-188.9" font-family="Arial" font-size="14.00" fill="#666666">[text]</text>
</g>
<!-- acq.fund_debit&#45;&gt;acq.currency_type -->
<g id="edge6" class="edge">
<title>acq.fund_debit:origin_currency_type&#45;&gt;acq.currency_type:code</title>
<path fill="none" stroke="#000000" d="M1042.0292,-727.0551C1133.4618,-718.4788 1055.3884,-587.6584 1032,-487 1012.8361,-404.5226 967.1639,-398.4774 948,-316 938.595,-275.5227 906.4444,-222.5 948,-222.5"/>
<polygon fill="#000000" stroke="#000000" points="1041.9902,-727.0567 1031.8005,-723.0044 1036.9951,-727.2784 1032,-727.5 1032,-727.5 1032,-727.5 1036.9951,-727.2784 1032.1995,-731.9956 1041.9902,-727.0567 1041.9902,-727.0567"/>
<text text-anchor="start" x="1038.6995" y="-737.5" font-family="Arial" font-size="10.00" fill="#000000">FOREIGN KEY (origin_currency_type) REFERENCES acq.currency_type(code) DEFERRABLE INITIALLY DEFERRED</text>
</g>
<!-- acq.invoice_entry -->
<g id="node8" class="node">
<title>acq.invoice_entry</title>
<polygon fill="#efefef" stroke="transparent" points="1341,-372.5 1341,-407.5 1622,-407.5 1622,-372.5 1341,-372.5"/>
<polygon fill="none" stroke="#000000" points="1341,-372.5 1341,-407.5 1622,-407.5 1622,-372.5 1341,-372.5"/>
<text text-anchor="start" x="1347.6987" y="-385.3" font-family="Arial Bold" font-size="18.00" fill="#000000">acq.invoice_entry</text>
<text text-anchor="start" x="1487.7333" y="-385.3" font-family="Arial" font-size="14.00" fill="#000000">    </text>
<text text-anchor="start" x="1521.9381" y="-385.3" font-family="Arial" font-size="14.00" fill="#666666">[BASE TABLE]</text>
<polygon fill="none" stroke="#000000" points="1341,-342.5 1341,-372.5 1622,-372.5 1622,-342.5 1341,-342.5"/>
<text text-anchor="start" x="1348" y="-353.9" font-family="Arial" font-size="14.00" fill="#000000">id    </text>
<text text-anchor="start" x="1393.094" y="-353.9" font-family="Arial" font-size="14.00" fill="#666666">[integer]</text>
<polygon fill="none" stroke="#000000" points="1341,-312.5 1341,-342.5 1622,-342.5 1622,-312.5 1341,-312.5"/>
<text text-anchor="start" x="1348" y="-323.9" font-family="Arial" font-size="14.00" fill="#000000">invoice    </text>
<text text-anchor="start" x="1425.7658" y="-323.9" font-family="Arial" font-size="14.00" fill="#666666">[integer]</text>
<polygon fill="none" stroke="#000000" points="1341,-282.5 1341,-312.5 1622,-312.5 1622,-282.5 1341,-282.5"/>
<text text-anchor="start" x="1348" y="-293.9" font-family="Arial" font-size="14.00" fill="#000000">purchase_order    </text>
<text text-anchor="start" x="1480.23" y="-293.9" font-family="Arial" font-size="14.00" fill="#666666">[integer]</text>
<polygon fill="none" stroke="#000000" points="1341,-252.5 1341,-282.5 1622,-282.5 1622,-252.5 1341,-252.5"/>
<text text-anchor="start" x="1348" y="-263.9" font-family="Arial" font-size="14.00" fill="#000000">lineitem    </text>
<text text-anchor="start" x="1430.4236" y="-263.9" font-family="Arial" font-size="14.00" fill="#666666">[integer]</text>
<polygon fill="none" stroke="#000000" points="1341,-222.5 1341,-252.5 1622,-252.5 1622,-222.5 1341,-222.5"/>
<text text-anchor="start" x="1348" y="-233.9" font-family="Arial" font-size="14.00" fill="#000000">inv_item_count    </text>
<text text-anchor="start" x="1476.338" y="-233.9" font-family="Arial" font-size="14.00" fill="#666666">[integer]</text>
<polygon fill="none" stroke="#000000" points="1341,-192.5 1341,-222.5 1622,-222.5 1622,-192.5 1341,-192.5"/>
<text text-anchor="start" x="1348" y="-203.9" font-family="Arial" font-size="14.00" fill="#000000">phys_item_count    </text>
<text text-anchor="start" x="1488.014" y="-203.9" font-family="Arial" font-size="14.00" fill="#666666">[integer]</text>
<polygon fill="none" stroke="#000000" points="1341,-162.5 1341,-192.5 1622,-192.5 1622,-162.5 1341,-162.5"/>
<text text-anchor="start" x="1348" y="-173.9" font-family="Arial" font-size="14.00" fill="#000000">note    </text>
<text text-anchor="start" x="1409.4432" y="-173.9" font-family="Arial" font-size="14.00" fill="#666666">[text]</text>
<polygon fill="none" stroke="#000000" points="1341,-132.5 1341,-162.5 1622,-162.5 1622,-132.5 1341,-132.5"/>
<text text-anchor="start" x="1348" y="-143.9" font-family="Arial" font-size="14.00" fill="#000000">billed_per_item    </text>
<text text-anchor="start" x="1477.1038" y="-143.9" font-family="Arial" font-size="14.00" fill="#666666">[boolean]</text>
<polygon fill="none" stroke="#000000" points="1341,-102.5 1341,-132.5 1622,-132.5 1622,-102.5 1341,-102.5"/>
<text text-anchor="start" x="1348" y="-113.9" font-family="Arial" font-size="14.00" fill="#000000">cost_billed    </text>
<text text-anchor="start" x="1448.3282" y="-113.9" font-family="Arial" font-size="14.00" fill="#666666">[numeric(8,2)]</text>
<polygon fill="none" stroke="#000000" points="1341,-72.5 1341,-102.5 1622,-102.5 1622,-72.5 1341,-72.5"/>
<text text-anchor="start" x="1348" y="-83.9" font-family="Arial" font-size="14.00" fill="#000000">actual_cost    </text>
<text text-anchor="start" x="1453.0056" y="-83.9" font-family="Arial" font-size="14.00" fill="#666666">[numeric(8,2)]</text>
<polygon fill="none" stroke="#000000" points="1341,-42.5 1341,-72.5 1622,-72.5 1622,-42.5 1341,-42.5"/>
<text text-anchor="start" x="1348" y="-53.9" font-family="Arial" font-size="14.00" fill="#000000">amount_paid    </text>
<text text-anchor="start" x="1463.1234" y="-53.9" font-family="Arial" font-size="14.00" fill="#666666">[numeric(8,2)]</text>
</g>
<!-- acq.fund_debit&#45;&gt;acq.invoice_entry -->
<g id="edge8" class="edge">
<title>acq.fund_debit:invoice_entry&#45;&gt;acq.invoice_entry:id</title>
<path fill="none" stroke="#000000" d="M1042.1421,-547.457C1156.0134,-546.4625 1198.2306,-527.8162 1288,-451 1324.2935,-419.9434 1293.2326,-357.5 1341,-357.5"/>
<polygon fill="#000000" stroke="#000000" points="1041.9999,-547.4575 1031.9809,-543 1037,-547.4788 1032,-547.5 1032,-547.5 1032,-547.5 1037,-547.4788 1032.0191,-552 1041.9999,-547.4575 1041.9999,-547.4575"/>
<text text-anchor="start" x="1038.596" y="-557.5" font-family="Arial" font-size="10.00" fill="#000000">FOREIGN KEY (invoice_entry) REFERENCES acq.invoice_entry(id) ON DELETE SET NULL</text>
</g>
<!-- acq.debit_attribution -->
<g id="node2" class="node">
<title>acq.debit_attribution</title>
<polygon fill="#efefef" stroke="transparent" points="165,-1292.5 165,-1327.5 468,-1327.5 468,-1292.5 165,-1292.5"/>
<polygon fill="none" stroke="#000000" points="165,-1292.5 165,-1327.5 468,-1327.5 468,-1292.5 165,-1292.5"/>
<text text-anchor="start" x="171.689" y="-1305.3" font-family="Arial Bold" font-size="18.00" fill="#000000">acq.debit_attribution</text>
<text text-anchor="start" x="333.743" y="-1305.3" font-family="Arial" font-size="14.00" fill="#000000">    </text>
<text text-anchor="start" x="367.9478" y="-1305.3" font-family="Arial" font-size="14.00" fill="#666666">[BASE TABLE]</text>
<polygon fill="none" stroke="#000000" points="165,-1262.5 165,-1292.5 468,-1292.5 468,-1262.5 165,-1262.5"/>
<text text-anchor="start" x="172" y="-1273.9" font-family="Arial" font-size="14.00" fill="#000000">id    </text>
<text text-anchor="start" x="217.094" y="-1273.9" font-family="Arial" font-size="14.00" fill="#666666">[integer]</text>
<polygon fill="none" stroke="#000000" points="165,-1232.5 165,-1262.5 468,-1262.5 468,-1232.5 165,-1232.5"/>
<text text-anchor="start" x="172" y="-1243.9" font-family="Arial" font-size="14.00" fill="#000000">fund_debit    </text>
<text text-anchor="start" x="271.5708" y="-1243.9" font-family="Arial" font-size="14.00" fill="#666666">[integer]</text>
<polygon fill="none" stroke="#000000" points="165,-1202.5 165,-1232.5 468,-1232.5 468,-1202.5 165,-1202.5"/>
<text text-anchor="start" x="172" y="-1213.9" font-family="Arial" font-size="14.00" fill="#000000">debit_amount    </text>
<text text-anchor="start" x="291.014" y="-1213.9" font-family="Arial" font-size="14.00" fill="#666666">[numeric]</text>
<polygon fill="none" stroke="#000000" points="165,-1172.5 165,-1202.5 468,-1202.5 468,-1172.5 165,-1172.5"/>
<text text-anchor="start" x="172" y="-1183.9" font-family="Arial" font-size="14.00" fill="#000000">funding_source_credit    </text>
<text text-anchor="start" x="343.9116" y="-1183.9" font-family="Arial" font-size="14.00" fill="#666666">[integer]</text>
<polygon fill="none" stroke="#000000" points="165,-1142.5 165,-1172.5 468,-1172.5 468,-1142.5 165,-1142.5"/>
<text text-anchor="start" x="172" y="-1153.9" font-family="Arial" font-size="14.00" fill="#000000">credit_amount    </text>
<text text-anchor="start" x="294.892" y="-1153.9" font-family="Arial" font-size="14.00" fill="#666666">[numeric]</text>
</g>
<!-- acq.debit_attribution&#45;&gt;acq.fund_debit -->
<g id="edge1" class="edge">
<title>acq.debit_attribution:fund_debit&#45;&gt;acq.fund_debit:id</title>
<path fill="none" stroke="#000000" d="M477.9397,-1245.3878C529.2802,-1221.455 481.6502,-1001.2394 519,-950 594.0006,-847.1082 645.6744,-817.5 773,-817.5"/>
<polygon fill="#000000" stroke="#000000" points="477.7816,-1245.4213 467.0646,-1243.0983 472.8908,-1246.4607 468,-1247.5 468,-1247.5 468,-1247.5 472.8908,-1246.4607 468.9354,-1251.9017 477.7816,-1245.4213 477.7816,-1245.4213"/>
<text text-anchor="start" x="6.7515" y="-1257.5" font-family="Arial" font-size="10.00" fill="#000000">FOREIGN KEY (fund_debit) REFERENCES acq.fund_debit(id) DEFERRABLE INITIALLY DEFERRED</text>
</g>
<!-- acq.invoice_item -->
<g id="node3" class="node">
<title>acq.invoice_item</title>
<polygon fill="#efefef" stroke="transparent" points="572,-1427.5 572,-1462.5 847,-1462.5 847,-1427.5 572,-1427.5"/>
<polygon fill="none" stroke="#000000" points="572,-1427.5 572,-1462.5 847,-1462.5 847,-1427.5 572,-1427.5"/>
<text text-anchor="start" x="578.7047" y="-1440.3" font-family="Arial Bold" font-size="18.00" fill="#000000">acq.invoice_item</text>
<text text-anchor="start" x="712.7273" y="-1440.3" font-family="Arial" font-size="14.00" fill="#000000">    </text>
<text text-anchor="start" x="746.9321" y="-1440.3" font-family="Arial" font-size="14.00" fill="#666666">[BASE TABLE]</text>
<polygon fill="none" stroke="#000000" points="572,-1397.5 572,-1427.5 847,-1427.5 847,-1397.5 572,-1397.5"/>
<text text-anchor="start" x="579" y="-1408.9" font-family="Arial" font-size="14.00" fill="#000000">id    </text>
<text text-anchor="start" x="624.094" y="-1408.9" font-family="Arial" font-size="14.00" fill="#666666">[integer]</text>
<polygon fill="none" stroke="#000000" points="572,-1367.5 572,-1397.5 847,-1397.5 847,-1367.5 572,-1367.5"/>
<text text-anchor="start" x="579" y="-1378.9" font-family="Arial" font-size="14.00" fill="#000000">invoice    </text>
<text text-anchor="start" x="656.7658" y="-1378.9" font-family="Arial" font-size="14.00" fill="#666666">[integer]</text>
<polygon fill="none" stroke="#000000" points="572,-1337.5 572,-1367.5 847,-1367.5 847,-1337.5 572,-1337.5"/>
<text text-anchor="start" x="579" y="-1348.9" font-family="Arial" font-size="14.00" fill="#000000">purchase_order    </text>
<text text-anchor="start" x="711.23" y="-1348.9" font-family="Arial" font-size="14.00" fill="#666666">[integer]</text>
<polygon fill="none" stroke="#000000" points="572,-1307.5 572,-1337.5 847,-1337.5 847,-1307.5 572,-1307.5"/>
<text text-anchor="start" x="579" y="-1318.9" font-family="Arial" font-size="14.00" fill="#000000">fund_debit    </text>
<text text-anchor="start" x="678.5708" y="-1318.9" font-family="Arial" font-size="14.00" fill="#666666">[integer]</text>
<polygon fill="none" stroke="#000000" points="572,-1277.5 572,-1307.5 847,-1307.5 847,-1277.5 572,-1277.5"/>
<text text-anchor="start" x="579" y="-1288.9" font-family="Arial" font-size="14.00" fill="#000000">inv_item_type    </text>
<text text-anchor="start" x="699.5554" y="-1288.9" font-family="Arial" font-size="14.00" fill="#666666">[text]</text>
<polygon fill="none" stroke="#000000" points="572,-1247.5 572,-1277.5 847,-1277.5 847,-1247.5 572,-1247.5"/>
<text text-anchor="start" x="579" y="-1258.9" font-family="Arial" font-size="14.00" fill="#000000">title    </text>
<text text-anchor="start" x="634.9818" y="-1258.9" font-family="Arial" font-size="14.00" fill="#666666">[text]</text>
<polygon fill="none" stroke="#000000" points="572,-1217.5 572,-1247.5 847,-1247.5 847,-1217.5 572,-1217.5"/>
<text text-anchor="start" x="579" y="-1228.9" font-family="Arial" font-size="14.00" fill="#000000">author    </text>
<text text-anchor="start" x="652.8864" y="-1228.9" font-family="Arial" font-size="14.00" fill="#666666">[text]</text>
<polygon fill="none" stroke="#000000" points="572,-1187.5 572,-1217.5 847,-1217.5 847,-1187.5 572,-1187.5"/>
<text text-anchor="start" x="579" y="-1198.9" font-family="Arial" font-size="14.00" fill="#000000">note    </text>
<text text-anchor="start" x="640.4432" y="-1198.9" font-family="Arial" font-size="14.00" fill="#666666">[text]</text>
<polygon fill="none" stroke="#000000" points="572,-1157.5 572,-1187.5 847,-1187.5 847,-1157.5 572,-1157.5"/>
<text text-anchor="start" x="579" y="-1168.9" font-family="Arial" font-size="14.00" fill="#000000">cost_billed    </text>
<text text-anchor="start" x="679.3282" y="-1168.9" font-family="Arial" font-size="14.00" fill="#666666">[numeric(8,2)]</text>
<polygon fill="none" stroke="#000000" points="572,-1127.5 572,-1157.5 847,-1157.5 847,-1127.5 572,-1127.5"/>
<text text-anchor="start" x="579" y="-1138.9" font-family="Arial" font-size="14.00" fill="#000000">actual_cost    </text>
<text text-anchor="start" x="684.0056" y="-1138.9" font-family="Arial" font-size="14.00" fill="#666666">[numeric(8,2)]</text>
<polygon fill="none" stroke="#000000" points="572,-1097.5 572,-1127.5 847,-1127.5 847,-1097.5 572,-1097.5"/>
<text text-anchor="start" x="579" y="-1108.9" font-family="Arial" font-size="14.00" fill="#000000">fund    </text>
<text text-anchor="start" x="640.4432" y="-1108.9" font-family="Arial" font-size="14.00" fill="#666666">[integer]</text>
<polygon fill="none" stroke="#000000" points="572,-1067.5 572,-1097.5 847,-1097.5 847,-1067.5 572,-1067.5"/>
<text text-anchor="start" x="579" y="-1078.9" font-family="Arial" font-size="14.00" fill="#000000">amount_paid    </text>
<text text-anchor="start" x="694.1234" y="-1078.9" font-family="Arial" font-size="14.00" fill="#666666">[numeric(8,2)]</text>
<polygon fill="none" stroke="#000000" points="572,-1037.5 572,-1067.5 847,-1067.5 847,-1037.5 572,-1037.5"/>
<text text-anchor="start" x="579" y="-1048.9" font-family="Arial" font-size="14.00" fill="#000000">po_item    </text>
<text text-anchor="start" x="662.993" y="-1048.9" font-family="Arial" font-size="14.00" fill="#666666">[integer]</text>
<polygon fill="none" stroke="#000000" points="572,-1007.5 572,-1037.5 847,-1037.5 847,-1007.5 572,-1007.5"/>
<text text-anchor="start" x="579" y="-1018.9" font-family="Arial" font-size="14.00" fill="#000000">target    </text>
<text text-anchor="start" x="648.9944" y="-1018.9" font-family="Arial" font-size="14.00" fill="#666666">[bigint]</text>
</g>
<!-- acq.invoice_item&#45;&gt;acq.fund_debit -->
<g id="edge2" class="edge">
<title>acq.invoice_item:fund_debit&#45;&gt;acq.fund_debit:id</title>
<path fill="none" stroke="#000000" d="M856.9797,-1320.8072C922.6373,-1297.1373 882.2853,-1032.1719 847,-965 828.4248,-929.6388 791.5752,-949.3612 773,-914 753.0549,-876.0309 730.1111,-817.5 773,-817.5"/>
<polygon fill="#000000" stroke="#000000" points="856.8592,-1320.8276 846.2474,-1318.0634 851.9296,-1321.6638 847,-1322.5 847,-1322.5 847,-1322.5 851.9296,-1321.6638 847.7526,-1326.9366 856.8592,-1320.8276 856.8592,-1320.8276"/>
<text text-anchor="start" x="853.8115" y="-1332.5" font-family="Arial" font-size="10.00" fill="#000000">FOREIGN KEY (fund_debit) REFERENCES acq.fund_debit(id)</text>
</g>
<!-- acq.lineitem_detail -->
<g id="node4" class="node">
<title>acq.lineitem_detail</title>
<polygon fill="#efefef" stroke="transparent" points="951,-1442.5 951,-1477.5 1241,-1477.5 1241,-1442.5 951,-1442.5"/>
<polygon fill="none" stroke="#000000" points="951,-1442.5 951,-1477.5 1241,-1477.5 1241,-1442.5 951,-1442.5"/>
<text text-anchor="start" x="957.7032" y="-1455.3" font-family="Arial Bold" font-size="18.00" fill="#000000">acq.lineitem_detail</text>
<text text-anchor="start" x="1106.7288" y="-1455.3" font-family="Arial" font-size="14.00" fill="#000000">    </text>
<text text-anchor="start" x="1140.9336" y="-1455.3" font-family="Arial" font-size="14.00" fill="#666666">[BASE TABLE]</text>
<polygon fill="none" stroke="#000000" points="951,-1412.5 951,-1442.5 1241,-1442.5 1241,-1412.5 951,-1412.5"/>
<text text-anchor="start" x="958" y="-1423.9" font-family="Arial" font-size="14.00" fill="#000000">id    </text>
<text text-anchor="start" x="1003.094" y="-1423.9" font-family="Arial" font-size="14.00" fill="#666666">[bigint]</text>
<polygon fill="none" stroke="#000000" points="951,-1382.5 951,-1412.5 1241,-1412.5 1241,-1382.5 951,-1382.5"/>
<text text-anchor="start" x="958" y="-1393.9" font-family="Arial" font-size="14.00" fill="#000000">lineitem    </text>
<text text-anchor="start" x="1040.4236" y="-1393.9" font-family="Arial" font-size="14.00" fill="#666666">[integer]</text>
<polygon fill="none" stroke="#000000" points="951,-1352.5 951,-1382.5 1241,-1382.5 1241,-1352.5 951,-1352.5"/>
<text text-anchor="start" x="958" y="-1363.9" font-family="Arial" font-size="14.00" fill="#000000">fund    </text>
<text text-anchor="start" x="1019.4432" y="-1363.9" font-family="Arial" font-size="14.00" fill="#666666">[integer]</text>
<polygon fill="none" stroke="#000000" points="951,-1322.5 951,-1352.5 1241,-1352.5 1241,-1322.5 951,-1322.5"/>
<text text-anchor="start" x="958" y="-1333.9" font-family="Arial" font-size="14.00" fill="#000000">fund_debit    </text>
<text text-anchor="start" x="1057.5708" y="-1333.9" font-family="Arial" font-size="14.00" fill="#666666">[integer]</text>
<polygon fill="none" stroke="#000000" points="951,-1292.5 951,-1322.5 1241,-1322.5 1241,-1292.5 951,-1292.5"/>
<text text-anchor="start" x="958" y="-1303.9" font-family="Arial" font-size="14.00" fill="#000000">eg_copy_id    </text>
<text text-anchor="start" x="1063.7896" y="-1303.9" font-family="Arial" font-size="14.00" fill="#666666">[bigint]</text>
<polygon fill="none" stroke="#000000" points="951,-1262.5 951,-1292.5 1241,-1292.5 1241,-1262.5 951,-1262.5"/>
<text text-anchor="start" x="958" y="-1273.9" font-family="Arial" font-size="14.00" fill="#000000">barcode    </text>
<text text-anchor="start" x="1042.7784" y="-1273.9" font-family="Arial" font-size="14.00" fill="#666666">[text]</text>
<polygon fill="none" stroke="#000000" points="951,-1232.5 951,-1262.5 1241,-1262.5 1241,-1232.5 951,-1232.5"/>
<text text-anchor="start" x="958" y="-1243.9" font-family="Arial" font-size="14.00" fill="#000000">cn_label    </text>
<text text-anchor="start" x="1044.331" y="-1243.9" font-family="Arial" font-size="14.00" fill="#666666">[text]</text>
<polygon fill="none" stroke="#000000" points="951,-1202.5 951,-1232.5 1241,-1232.5 1241,-1202.5 951,-1202.5"/>
<text text-anchor="start" x="958" y="-1213.9" font-family="Arial" font-size="14.00" fill="#000000">note    </text>
<text text-anchor="start" x="1019.4432" y="-1213.9" font-family="Arial" font-size="14.00" fill="#666666">[text]</text>
<polygon fill="none" stroke="#000000" points="951,-1172.5 951,-1202.5 1241,-1202.5 1241,-1172.5 951,-1172.5"/>
<text text-anchor="start" x="958" y="-1183.9" font-family="Arial" font-size="14.00" fill="#000000">collection_code    </text>
<text text-anchor="start" x="1088.676" y="-1183.9" font-family="Arial" font-size="14.00" fill="#666666">[text]</text>
<polygon fill="none" stroke="#000000" points="951,-1142.5 951,-1172.5 1241,-1172.5 1241,-1142.5 951,-1142.5"/>
<text text-anchor="start" x="958" y="-1153.9" font-family="Arial" font-size="14.00" fill="#000000">circ_modifier    </text>
<text text-anchor="start" x="1071.5274" y="-1153.9" font-family="Arial" font-size="14.00" fill="#666666">[text]</text>
<polygon fill="none" stroke="#000000" points="951,-1112.5 951,-1142.5 1241,-1142.5 1241,-1112.5 951,-1112.5"/>
<text text-anchor="start" x="958" y="-1123.9" font-family="Arial" font-size="14.00" fill="#000000">owning_lib    </text>
<text text-anchor="start" x="1058.3268" y="-1123.9" font-family="Arial" font-size="14.00" fill="#666666">[integer]</text>
<polygon fill="none" stroke="#000000" points="951,-1082.5 951,-1112.5 1241,-1112.5 1241,-1082.5 951,-1082.5"/>
<text text-anchor="start" x="958" y="-1093.9" font-family="Arial" font-size="14.00" fill="#000000">location    </text>
<text text-anchor="start" x="1040.439" y="-1093.9" font-family="Arial" font-size="14.00" fill="#666666">[integer]</text>
<polygon fill="none" stroke="#000000" points="951,-1052.5 951,-1082.5 1241,-1082.5 1241,-1052.5 951,-1052.5"/>
<text text-anchor="start" x="958" y="-1063.9" font-family="Arial" font-size="14.00" fill="#000000">recv_time    </text>
<text text-anchor="start" x="1052.871" y="-1063.9" font-family="Arial" font-size="14.00" fill="#666666">[timestamp with time zone]</text>
<polygon fill="none" stroke="#000000" points="951,-1022.5 951,-1052.5 1241,-1052.5 1241,-1022.5 951,-1022.5"/>
<text text-anchor="start" x="958" y="-1033.9" font-family="Arial" font-size="14.00" fill="#000000">receiver    </text>
<text text-anchor="start" x="1041.9804" y="-1033.9" font-family="Arial" font-size="14.00" fill="#666666">[integer]</text>
<polygon fill="none" stroke="#000000" points="951,-992.5 951,-1022.5 1241,-1022.5 1241,-992.5 951,-992.5"/>
<text text-anchor="start" x="958" y="-1003.9" font-family="Arial" font-size="14.00" fill="#000000">cancel_reason    </text>
<text text-anchor="start" x="1083.2328" y="-1003.9" font-family="Arial" font-size="14.00" fill="#666666">[integer]</text>
</g>
<!-- acq.lineitem_detail&#45;&gt;acq.fund_debit -->
<g id="edge3" class="edge">
<title>acq.lineitem_detail:fund_debit&#45;&gt;acq.fund_debit:id</title>
<path fill="none" stroke="#000000" d="M941.0286,-1335.9473C868.1165,-1312.0448 906.0015,-1019.242 951,-950 972.4671,-916.9672 1010.5329,-947.0328 1032,-914 1055.3707,-878.038 1074.8889,-817.5 1032,-817.5"/>
<polygon fill="#000000" stroke="#000000" points="941.1191,-1335.9613 950.3076,-1341.9464 946.0595,-1336.7306 951,-1337.5 951,-1337.5 951,-1337.5 946.0595,-1336.7306 951.6924,-1333.0536 941.1191,-1335.9613 941.1191,-1335.9613"/>
<text text-anchor="start" x="957.7515" y="-1347.5" font-family="Arial" font-size="10.00" fill="#000000">FOREIGN KEY (fund_debit) REFERENCES acq.fund_debit(id) DEFERRABLE INITIALLY DEFERRED</text>
</g>
<!-- acq.po_item -->
<g id="node5" class="node">
<title>acq.po_item</title>
<polygon fill="#efefef" stroke="transparent" points="1346,-1367.5 1346,-1402.5 1585,-1402.5 1585,-1367.5 1346,-1367.5"/>
<polygon fill="none" stroke="#000000" points="1346,-1367.5 1346,-1402.5 1585,-1402.5 1585,-1367.5 1346,-1367.5"/>
<text text-anchor="start" x="1352.702" y="-1380.3" font-family="Arial Bold" font-size="18.00" fill="#000000">acq.po_item</text>
<text text-anchor="start" x="1450.73" y="-1380.3" font-family="Arial" font-size="14.00" fill="#000000">    </text>
<text text-anchor="start" x="1484.9348" y="-1380.3" font-family="Arial" font-size="14.00" fill="#666666">[BASE TABLE]</text>
<polygon fill="none" stroke="#000000" points="1346,-1337.5 1346,-1367.5 1585,-1367.5 1585,-1337.5 1346,-1337.5"/>
<text text-anchor="start" x="1353" y="-1348.9" font-family="Arial" font-size="14.00" fill="#000000">id    </text>
<text text-anchor="start" x="1398.094" y="-1348.9" font-family="Arial" font-size="14.00" fill="#666666">[integer]</text>
<polygon fill="none" stroke="#000000" points="1346,-1307.5 1346,-1337.5 1585,-1337.5 1585,-1307.5 1346,-1307.5"/>
<text text-anchor="start" x="1353" y="-1318.9" font-family="Arial" font-size="14.00" fill="#000000">purchase_order    </text>
<text text-anchor="start" x="1485.23" y="-1318.9" font-family="Arial" font-size="14.00" fill="#666666">[integer]</text>
<polygon fill="none" stroke="#000000" points="1346,-1277.5 1346,-1307.5 1585,-1307.5 1585,-1277.5 1346,-1277.5"/>
<text text-anchor="start" x="1353" y="-1288.9" font-family="Arial" font-size="14.00" fill="#000000">fund_debit    </text>
<text text-anchor="start" x="1452.5708" y="-1288.9" font-family="Arial" font-size="14.00" fill="#666666">[integer]</text>
<polygon fill="none" stroke="#000000" points="1346,-1247.5 1346,-1277.5 1585,-1277.5 1585,-1247.5 1346,-1247.5"/>
<text text-anchor="start" x="1353" y="-1258.9" font-family="Arial" font-size="14.00" fill="#000000">inv_item_type    </text>
<text text-anchor="start" x="1473.5554" y="-1258.9" font-family="Arial" font-size="14.00" fill="#666666">[text]</text>
<polygon fill="none" stroke="#000000" points="1346,-1217.5 1346,-1247.5 1585,-1247.5 1585,-1217.5 1346,-1217.5"/>
<text text-anchor="start" x="1353" y="-1228.9" font-family="Arial" font-size="14.00" fill="#000000">title    </text>
<text text-anchor="start" x="1408.9818" y="-1228.9" font-family="Arial" font-size="14.00" fill="#666666">[text]</text>
<polygon fill="none" stroke="#000000" points="1346,-1187.5 1346,-1217.5 1585,-1217.5 1585,-1187.5 1346,-1187.5"/>
<text text-anchor="start" x="1353" y="-1198.9" font-family="Arial" font-size="14.00" fill="#000000">author    </text>
<text text-anchor="start" x="1426.8864" y="-1198.9" font-family="Arial" font-size="14.00" fill="#666666">[text]</text>
<polygon fill="none" stroke="#000000" points="1346,-1157.5 1346,-1187.5 1585,-1187.5 1585,-1157.5 1346,-1157.5"/>
<text text-anchor="start" x="1353" y="-1168.9" font-family="Arial" font-size="14.00" fill="#000000">note    </text>
<text text-anchor="start" x="1414.4432" y="-1168.9" font-family="Arial" font-size="14.00" fill="#666666">[text]</text>
<polygon fill="none" stroke="#000000" points="1346,-1127.5 1346,-1157.5 1585,-1157.5 1585,-1127.5 1346,-1127.5"/>
<text text-anchor="start" x="1353" y="-1138.9" font-family="Arial" font-size="14.00" fill="#000000">estimated_cost    </text>
<text text-anchor="start" x="1481.3394" y="-1138.9" font-family="Arial" font-size="14.00" fill="#666666">[numeric(8,2)]</text>
<polygon fill="none" stroke="#000000" points="1346,-1097.5 1346,-1127.5 1585,-1127.5 1585,-1097.5 1346,-1097.5"/>
<text text-anchor="start" x="1353" y="-1108.9" font-family="Arial" font-size="14.00" fill="#000000">fund    </text>
<text text-anchor="start" x="1414.4432" y="-1108.9" font-family="Arial" font-size="14.00" fill="#666666">[integer]</text>
<polygon fill="none" stroke="#000000" points="1346,-1067.5 1346,-1097.5 1585,-1097.5 1585,-1067.5 1346,-1067.5"/>
<text text-anchor="start" x="1353" y="-1078.9" font-family="Arial" font-size="14.00" fill="#000000">target    </text>
<text text-anchor="start" x="1422.9944" y="-1078.9" font-family="Arial" font-size="14.00" fill="#666666">[bigint]</text>
</g>
<!-- acq.po_item&#45;&gt;acq.fund_debit -->
<g id="edge4" class="edge">
<title>acq.po_item:fund_debit&#45;&gt;acq.fund_debit:id</title>
<path fill="none" stroke="#000000" d="M1336.1066,-1290.7046C1275.2211,-1266.7149 1336.0859,-1009.4321 1293,-950 1216.643,-844.6742 1162.0919,-817.5 1032,-817.5"/>
<polygon fill="#000000" stroke="#000000" points="1336.1607,-1290.7144 1345.1965,-1296.9277 1341.0804,-1291.6072 1346,-1292.5 1346,-1292.5 1346,-1292.5 1341.0804,-1291.6072 1346.8035,-1288.0723 1336.1607,-1290.7144 1336.1607,-1290.7144"/>
<text text-anchor="start" x="1352.7515" y="-1302.5" font-family="Arial" font-size="10.00" fill="#000000">FOREIGN KEY (fund_debit) REFERENCES acq.fund_debit(id) DEFERRABLE INITIALLY DEFERRED</text>
</g>
</g>
</svg>
