<?xml version="1.0" encoding="UTF-8" standalone="no"?>
<!DOCTYPE svg PUBLIC "-//W3C//DTD SVG 1.1//EN"
 "http://www.w3.org/Graphics/SVG/1.1/DTD/svg11.dtd">
<!-- Generated by graphviz version 2.40.1 (20161225.0304)
 -->
<!-- Title: acq.invoice_item Pages: 1 -->
<svg width="2300pt" height="1102pt"
 viewBox="0.00 0.00 2300.00 1102.00" xmlns="http://www.w3.org/2000/svg" xmlns:xlink="http://www.w3.org/1999/xlink">
<g id="graph0" class="graph" transform="scale(1 1) rotate(0) translate(4 1098)">
<title>acq.invoice_item</title>
<polygon fill="#ffffff" stroke="transparent" points="-4,4 -4,-1098 2296,-1098 2296,4 -4,4"/>
<!-- acq.invoice_item -->
<g id="node1" class="node">
<title>acq.invoice_item</title>
<polygon fill="#efefef" stroke="transparent" points="1042.5,-1012.5 1042.5,-1047.5 1317.5,-1047.5 1317.5,-1012.5 1042.5,-1012.5"/>
<polygon fill="none" stroke="#000000" points="1042.5,-1012.5 1042.5,-1047.5 1317.5,-1047.5 1317.5,-1012.5 1042.5,-1012.5"/>
<text text-anchor="start" x="1049.2047" y="-1025.3" font-family="Arial Bold" font-size="18.00" fill="#000000">acq.invoice_item</text>
<text text-anchor="start" x="1183.2273" y="-1025.3" font-family="Arial" font-size="14.00" fill="#000000">    </text>
<text text-anchor="start" x="1217.4321" y="-1025.3" font-family="Arial" font-size="14.00" fill="#666666">[BASE TABLE]</text>
<polygon fill="none" stroke="#000000" points="1042.5,-982.5 1042.5,-1012.5 1317.5,-1012.5 1317.5,-982.5 1042.5,-982.5"/>
<text text-anchor="start" x="1049.5" y="-993.9" font-family="Arial" font-size="14.00" fill="#000000">id </text>
<text text-anchor="start" x="1064.2798" y="-993.9" font-family="Arial" font-size="14.00" fill="#666666">[integer]</text>
<polygon fill="none" stroke="#000000" points="1042.5,-952.5 1042.5,-982.5 1317.5,-982.5 1317.5,-952.5 1042.5,-952.5"/>
<text text-anchor="start" x="1049.5" y="-963.9" font-family="Arial" font-size="14.00" fill="#000000">invoice </text>
<text text-anchor="start" x="1096.9516" y="-963.9" font-family="Arial" font-size="14.00" fill="#666666">[integer]</text>
<polygon fill="none" stroke="#000000" points="1042.5,-922.5 1042.5,-952.5 1317.5,-952.5 1317.5,-922.5 1042.5,-922.5"/>
<text text-anchor="start" x="1049.5" y="-933.9" font-family="Arial" font-size="14.00" fill="#000000">purchase_order </text>
<text text-anchor="start" x="1151.4158" y="-933.9" font-family="Arial" font-size="14.00" fill="#666666">[integer]</text>
<polygon fill="none" stroke="#000000" points="1042.5,-892.5 1042.5,-922.5 1317.5,-922.5 1317.5,-892.5 1042.5,-892.5"/>
<text text-anchor="start" x="1049.5" y="-903.9" font-family="Arial" font-size="14.00" fill="#000000">fund_debit </text>
<text text-anchor="start" x="1118.7566" y="-903.9" font-family="Arial" font-size="14.00" fill="#666666">[integer]</text>
<polygon fill="none" stroke="#000000" points="1042.5,-862.5 1042.5,-892.5 1317.5,-892.5 1317.5,-862.5 1042.5,-862.5"/>
<text text-anchor="start" x="1049.5" y="-873.9" font-family="Arial" font-size="14.00" fill="#000000">inv_item_type </text>
<text text-anchor="start" x="1139.7412" y="-873.9" font-family="Arial" font-size="14.00" fill="#666666">[text]</text>
<polygon fill="none" stroke="#000000" points="1042.5,-832.5 1042.5,-862.5 1317.5,-862.5 1317.5,-832.5 1042.5,-832.5"/>
<text text-anchor="start" x="1049.5" y="-843.9" font-family="Arial" font-size="14.00" fill="#000000">title </text>
<text text-anchor="start" x="1075.1676" y="-843.9" font-family="Arial" font-size="14.00" fill="#666666">[text]</text>
<polygon fill="none" stroke="#000000" points="1042.5,-802.5 1042.5,-832.5 1317.5,-832.5 1317.5,-802.5 1042.5,-802.5"/>
<text text-anchor="start" x="1049.5" y="-813.9" font-family="Arial" font-size="14.00" fill="#000000">author </text>
<text text-anchor="start" x="1093.0722" y="-813.9" font-family="Arial" font-size="14.00" fill="#666666">[text]</text>
<polygon fill="none" stroke="#000000" points="1042.5,-772.5 1042.5,-802.5 1317.5,-802.5 1317.5,-772.5 1042.5,-772.5"/>
<text text-anchor="start" x="1049.5" y="-783.9" font-family="Arial" font-size="14.00" fill="#000000">note </text>
<text text-anchor="start" x="1080.629" y="-783.9" font-family="Arial" font-size="14.00" fill="#666666">[text]</text>
<polygon fill="none" stroke="#000000" points="1042.5,-742.5 1042.5,-772.5 1317.5,-772.5 1317.5,-742.5 1042.5,-742.5"/>
<text text-anchor="start" x="1049.5" y="-753.9" font-family="Arial" font-size="14.00" fill="#000000">cost_billed </text>
<text text-anchor="start" x="1119.514" y="-753.9" font-family="Arial" font-size="14.00" fill="#666666">[numeric(8,2)]</text>
<polygon fill="none" stroke="#000000" points="1042.5,-712.5 1042.5,-742.5 1317.5,-742.5 1317.5,-712.5 1042.5,-712.5"/>
<text text-anchor="start" x="1049.5" y="-723.9" font-family="Arial" font-size="14.00" fill="#000000">actual_cost </text>
<text text-anchor="start" x="1124.1914" y="-723.9" font-family="Arial" font-size="14.00" fill="#666666">[numeric(8,2)]</text>
<polygon fill="none" stroke="#000000" points="1042.5,-682.5 1042.5,-712.5 1317.5,-712.5 1317.5,-682.5 1042.5,-682.5"/>
<text text-anchor="start" x="1049.5" y="-693.9" font-family="Arial" font-size="14.00" fill="#000000">fund </text>
<text text-anchor="start" x="1080.629" y="-693.9" font-family="Arial" font-size="14.00" fill="#666666">[integer]</text>
<polygon fill="none" stroke="#000000" points="1042.5,-652.5 1042.5,-682.5 1317.5,-682.5 1317.5,-652.5 1042.5,-652.5"/>
<text text-anchor="start" x="1049.5" y="-663.9" font-family="Arial" font-size="14.00" fill="#000000">amount_paid </text>
<text text-anchor="start" x="1134.3092" y="-663.9" font-family="Arial" font-size="14.00" fill="#666666">[numeric(8,2)]</text>
<polygon fill="none" stroke="#000000" points="1042.5,-622.5 1042.5,-652.5 1317.5,-652.5 1317.5,-622.5 1042.5,-622.5"/>
<text text-anchor="start" x="1049.5" y="-633.9" font-family="Arial" font-size="14.00" fill="#000000">po_item </text>
<text text-anchor="start" x="1103.1788" y="-633.9" font-family="Arial" font-size="14.00" fill="#666666">[integer]</text>
<polygon fill="none" stroke="#000000" points="1042.5,-592.5 1042.5,-622.5 1317.5,-622.5 1317.5,-592.5 1042.5,-592.5"/>
<text text-anchor="start" x="1049.5" y="-603.9" font-family="Arial" font-size="14.00" fill="#000000">target </text>
<text text-anchor="start" x="1089.1802" y="-603.9" font-family="Arial" font-size="14.00" fill="#666666">[bigint]</text>
<polygon fill="none" stroke="#000000" stroke-width="3" points="1040.5,-591.5 1040.5,-1049.5 1318.5,-1049.5 1318.5,-591.5 1040.5,-591.5"/>
</g>
<!-- acq.invoice -->
<g id="node2" class="node">
<title>acq.invoice</title>
<polygon fill="#efefef" stroke="transparent" points="43.5,-432.5 43.5,-467.5 324.5,-467.5 324.5,-432.5 43.5,-432.5"/>
<polygon fill="none" stroke="#000000" points="43.5,-432.5 43.5,-467.5 324.5,-467.5 324.5,-432.5 43.5,-432.5"/>
<text text-anchor="start" x="75.2052" y="-445.3" font-family="Arial Bold" font-size="18.00" fill="#000000">acq.invoice</text>
<text text-anchor="start" x="165.2268" y="-445.3" font-family="Arial" font-size="14.00" fill="#000000">    </text>
<text text-anchor="start" x="199.4316" y="-445.3" font-family="Arial" font-size="14.00" fill="#666666">[BASE TABLE]</text>
<polygon fill="none" stroke="#000000" points="43.5,-402.5 43.5,-432.5 324.5,-432.5 324.5,-402.5 43.5,-402.5"/>
<text text-anchor="start" x="50.5" y="-413.9" font-family="Arial" font-size="14.00" fill="#000000">id    </text>
<text text-anchor="start" x="95.594" y="-413.9" font-family="Arial" font-size="14.00" fill="#666666">[integer]</text>
<polygon fill="none" stroke="#000000" points="43.5,-372.5 43.5,-402.5 324.5,-402.5 324.5,-372.5 43.5,-372.5"/>
<text text-anchor="start" x="50.5" y="-383.9" font-family="Arial" font-size="14.00" fill="#000000">receiver    </text>
<text text-anchor="start" x="134.4804" y="-383.9" font-family="Arial" font-size="14.00" fill="#666666">[integer]</text>
<polygon fill="none" stroke="#000000" points="43.5,-342.5 43.5,-372.5 324.5,-372.5 324.5,-342.5 43.5,-342.5"/>
<text text-anchor="start" x="50.5" y="-353.9" font-family="Arial" font-size="14.00" fill="#000000">provider    </text>
<text text-anchor="start" x="135.263" y="-353.9" font-family="Arial" font-size="14.00" fill="#666666">[integer]</text>
<polygon fill="none" stroke="#000000" points="43.5,-312.5 43.5,-342.5 324.5,-342.5 324.5,-312.5 43.5,-312.5"/>
<text text-anchor="start" x="50.5" y="-323.9" font-family="Arial" font-size="14.00" fill="#000000">shipper    </text>
<text text-anchor="start" x="130.6024" y="-323.9" font-family="Arial" font-size="14.00" fill="#666666">[integer]</text>
<polygon fill="none" stroke="#000000" points="43.5,-282.5 43.5,-312.5 324.5,-312.5 324.5,-282.5 43.5,-282.5"/>
<text text-anchor="start" x="50.5" y="-293.9" font-family="Arial" font-size="14.00" fill="#000000">recv_date    </text>
<text text-anchor="start" x="146.169" y="-293.9" font-family="Arial" font-size="14.00" fill="#666666">[timestamp with time zone]</text>
<polygon fill="none" stroke="#000000" points="43.5,-252.5 43.5,-282.5 324.5,-282.5 324.5,-252.5 43.5,-252.5"/>
<text text-anchor="start" x="50.5" y="-263.9" font-family="Arial" font-size="14.00" fill="#000000">recv_method    </text>
<text text-anchor="start" x="165.6122" y="-263.9" font-family="Arial" font-size="14.00" fill="#666666">[text]</text>
<polygon fill="none" stroke="#000000" points="43.5,-222.5 43.5,-252.5 324.5,-252.5 324.5,-222.5 43.5,-222.5"/>
<text text-anchor="start" x="50.5" y="-233.9" font-family="Arial" font-size="14.00" fill="#000000">inv_type    </text>
<text text-anchor="start" x="136.8324" y="-233.9" font-family="Arial" font-size="14.00" fill="#666666">[text]</text>
<polygon fill="none" stroke="#000000" points="43.5,-192.5 43.5,-222.5 324.5,-222.5 324.5,-192.5 43.5,-192.5"/>
<text text-anchor="start" x="50.5" y="-203.9" font-family="Arial" font-size="14.00" fill="#000000">inv_ident    </text>
<text text-anchor="start" x="140.7216" y="-203.9" font-family="Arial" font-size="14.00" fill="#666666">[text]</text>
<polygon fill="none" stroke="#000000" points="43.5,-162.5 43.5,-192.5 324.5,-192.5 324.5,-162.5 43.5,-162.5"/>
<text text-anchor="start" x="50.5" y="-173.9" font-family="Arial" font-size="14.00" fill="#000000">payment_auth    </text>
<text text-anchor="start" x="173.4074" y="-173.9" font-family="Arial" font-size="14.00" fill="#666666">[text]</text>
<polygon fill="none" stroke="#000000" points="43.5,-132.5 43.5,-162.5 324.5,-162.5 324.5,-132.5 43.5,-132.5"/>
<text text-anchor="start" x="50.5" y="-143.9" font-family="Arial" font-size="14.00" fill="#000000">payment_method    </text>
<text text-anchor="start" x="192.8506" y="-143.9" font-family="Arial" font-size="14.00" fill="#666666">[text]</text>
<polygon fill="none" stroke="#000000" points="43.5,-102.5 43.5,-132.5 324.5,-132.5 324.5,-102.5 43.5,-102.5"/>
<text text-anchor="start" x="50.5" y="-113.9" font-family="Arial" font-size="14.00" fill="#000000">note    </text>
<text text-anchor="start" x="111.9432" y="-113.9" font-family="Arial" font-size="14.00" fill="#666666">[text]</text>
<polygon fill="none" stroke="#000000" points="43.5,-72.5 43.5,-102.5 324.5,-102.5 324.5,-72.5 43.5,-72.5"/>
<text text-anchor="start" x="50.209" y="-83.9" font-family="Arial" font-size="14.00" fill="#000000">close_date    </text>
<text text-anchor="start" x="152.1066" y="-83.9" font-family="Arial" font-size="14.00" fill="#666666">[timestamp with time zone]</text>
<polygon fill="none" stroke="#000000" points="43.5,-42.5 43.5,-72.5 324.5,-72.5 324.5,-42.5 43.5,-42.5"/>
<text text-anchor="start" x="50.5" y="-53.9" font-family="Arial" font-size="14.00" fill="#000000">closed_by    </text>
<text text-anchor="start" x="147.7244" y="-53.9" font-family="Arial" font-size="14.00" fill="#666666">[integer]</text>
</g>
<!-- acq.invoice_item&#45;&gt;acq.invoice -->
<g id="edge1" class="edge">
<title>acq.invoice_item:invoice&#45;&gt;acq.invoice:id</title>
<path fill="none" stroke="#000000" d="M1032.318,-967.4484C681.9846,-963.8747 614.0931,-774.9524 375.5,-511 343.7582,-475.8845 371.8354,-417.5 324.5,-417.5"/>
<polygon fill="#000000" stroke="#000000" points="1032.5001,-967.4492 1042.4772,-971.9999 1037.5001,-967.4746 1042.5,-967.5 1042.5,-967.5 1042.5,-967.5 1037.5001,-967.4746 1042.5228,-963.0001 1032.5001,-967.4492 1032.5001,-967.4492"/>
<text text-anchor="start" x="565.4945" y="-977.5" font-family="Arial" font-size="10.00" fill="#000000">FOREIGN KEY (invoice) REFERENCES acq.invoice(id) ON UPDATE CASCADE ON DELETE CASCADE</text>
</g>
<!-- acq.purchase_order -->
<g id="node3" class="node">
<title>acq.purchase_order</title>
<polygon fill="#efefef" stroke="transparent" points="428.5,-432.5 428.5,-467.5 729.5,-467.5 729.5,-432.5 428.5,-432.5"/>
<polygon fill="none" stroke="#000000" points="428.5,-432.5 428.5,-467.5 729.5,-467.5 729.5,-432.5 428.5,-432.5"/>
<text text-anchor="start" x="435.1925" y="-445.3" font-family="Arial Bold" font-size="18.00" fill="#000000">acq.purchase_order</text>
<text text-anchor="start" x="595.2395" y="-445.3" font-family="Arial" font-size="14.00" fill="#000000">    </text>
<text text-anchor="start" x="629.4443" y="-445.3" font-family="Arial" font-size="14.00" fill="#666666">[BASE TABLE]</text>
<polygon fill="none" stroke="#000000" points="428.5,-402.5 428.5,-432.5 729.5,-432.5 729.5,-402.5 428.5,-402.5"/>
<text text-anchor="start" x="435.5" y="-413.9" font-family="Arial" font-size="14.00" fill="#000000">id    </text>
<text text-anchor="start" x="480.594" y="-413.9" font-family="Arial" font-size="14.00" fill="#666666">[integer]</text>
<polygon fill="none" stroke="#000000" points="428.5,-372.5 428.5,-402.5 729.5,-402.5 729.5,-372.5 428.5,-372.5"/>
<text text-anchor="start" x="435.5" y="-383.9" font-family="Arial" font-size="14.00" fill="#000000">owner    </text>
<text text-anchor="start" x="507.8198" y="-383.9" font-family="Arial" font-size="14.00" fill="#666666">[integer]</text>
<polygon fill="none" stroke="#000000" points="428.5,-342.5 428.5,-372.5 729.5,-372.5 729.5,-342.5 428.5,-342.5"/>
<text text-anchor="start" x="435.5" y="-353.9" font-family="Arial" font-size="14.00" fill="#000000">creator    </text>
<text text-anchor="start" x="513.2644" y="-353.9" font-family="Arial" font-size="14.00" fill="#666666">[integer]</text>
<polygon fill="none" stroke="#000000" points="428.5,-312.5 428.5,-342.5 729.5,-342.5 729.5,-312.5 428.5,-312.5"/>
<text text-anchor="start" x="435.5" y="-323.9" font-family="Arial" font-size="14.00" fill="#000000">editor    </text>
<text text-anchor="start" x="504.7104" y="-323.9" font-family="Arial" font-size="14.00" fill="#666666">[integer]</text>
<polygon fill="none" stroke="#000000" points="428.5,-282.5 428.5,-312.5 729.5,-312.5 729.5,-282.5 428.5,-282.5"/>
<text text-anchor="start" x="435.5" y="-293.9" font-family="Arial" font-size="14.00" fill="#000000">ordering_agency    </text>
<text text-anchor="start" x="573.9586" y="-293.9" font-family="Arial" font-size="14.00" fill="#666666">[integer]</text>
<polygon fill="none" stroke="#000000" points="428.5,-252.5 428.5,-282.5 729.5,-282.5 729.5,-252.5 428.5,-252.5"/>
<text text-anchor="start" x="435.5" y="-263.9" font-family="Arial" font-size="14.00" fill="#000000">create_time    </text>
<text text-anchor="start" x="542.8268" y="-263.9" font-family="Arial" font-size="14.00" fill="#666666">[timestamp with time zone]</text>
<polygon fill="none" stroke="#000000" points="428.5,-222.5 428.5,-252.5 729.5,-252.5 729.5,-222.5 428.5,-222.5"/>
<text text-anchor="start" x="435.5" y="-233.9" font-family="Arial" font-size="14.00" fill="#000000">edit_time    </text>
<text text-anchor="start" x="526.4902" y="-233.9" font-family="Arial" font-size="14.00" fill="#666666">[timestamp with time zone]</text>
<polygon fill="none" stroke="#000000" points="428.5,-192.5 428.5,-222.5 729.5,-222.5 729.5,-192.5 428.5,-192.5"/>
<text text-anchor="start" x="435.5" y="-203.9" font-family="Arial" font-size="14.00" fill="#000000">provider    </text>
<text text-anchor="start" x="520.263" y="-203.9" font-family="Arial" font-size="14.00" fill="#666666">[integer]</text>
<polygon fill="none" stroke="#000000" points="428.5,-162.5 428.5,-192.5 729.5,-192.5 729.5,-162.5 428.5,-162.5"/>
<text text-anchor="start" x="435.5" y="-173.9" font-family="Arial" font-size="14.00" fill="#000000">state    </text>
<text text-anchor="start" x="500.0512" y="-173.9" font-family="Arial" font-size="14.00" fill="#666666">[text]</text>
<polygon fill="none" stroke="#000000" points="428.5,-132.5 428.5,-162.5 729.5,-162.5 729.5,-132.5 428.5,-132.5"/>
<text text-anchor="start" x="435.5" y="-143.9" font-family="Arial" font-size="14.00" fill="#000000">order_date    </text>
<text text-anchor="start" x="537.3948" y="-143.9" font-family="Arial" font-size="14.00" fill="#666666">[timestamp with time zone]</text>
<polygon fill="none" stroke="#000000" points="428.5,-102.5 428.5,-132.5 729.5,-132.5 729.5,-102.5 428.5,-102.5"/>
<text text-anchor="start" x="435.5" y="-113.9" font-family="Arial" font-size="14.00" fill="#000000">name    </text>
<text text-anchor="start" x="504.7132" y="-113.9" font-family="Arial" font-size="14.00" fill="#666666">[text]</text>
<polygon fill="none" stroke="#000000" points="428.5,-72.5 428.5,-102.5 729.5,-102.5 729.5,-72.5 428.5,-72.5"/>
<text text-anchor="start" x="435.5" y="-83.9" font-family="Arial" font-size="14.00" fill="#000000">cancel_reason    </text>
<text text-anchor="start" x="560.7328" y="-83.9" font-family="Arial" font-size="14.00" fill="#666666">[integer]</text>
<polygon fill="none" stroke="#000000" points="428.5,-42.5 428.5,-72.5 729.5,-72.5 729.5,-42.5 428.5,-42.5"/>
<text text-anchor="start" x="435.5" y="-53.9" font-family="Arial" font-size="14.00" fill="#000000">prepayment_required    </text>
<text text-anchor="start" x="602.7356" y="-53.9" font-family="Arial" font-size="14.00" fill="#666666">[boolean]</text>
</g>
<!-- acq.invoice_item&#45;&gt;acq.purchase_order -->
<g id="edge2" class="edge">
<title>acq.invoice_item:purchase_order&#45;&gt;acq.purchase_order:id</title>
<path fill="none" stroke="#000000" d="M1032.2858,-937.3297C822.24,-930.1974 890.2806,-700.4844 780.5,-511 756.7704,-470.0421 776.8354,-417.5 729.5,-417.5"/>
<polygon fill="#000000" stroke="#000000" points="1032.5014,-937.3332 1042.4249,-941.9994 1037.5007,-937.4166 1042.5,-937.5 1042.5,-937.5 1042.5,-937.5 1037.5007,-937.4166 1042.5751,-933.0006 1032.5014,-937.3332 1032.5014,-937.3332"/>
<text text-anchor="start" x="488.867" y="-947.5" font-family="Arial" font-size="10.00" fill="#000000">FOREIGN KEY (purchase_order) REFERENCES acq.purchase_order(id) ON UPDATE CASCADE ON DELETE SET NULL</text>
</g>
<!-- acq.fund_debit -->
<g id="node4" class="node">
<title>acq.fund_debit</title>
<polygon fill="#efefef" stroke="transparent" points="833.5,-387.5 833.5,-422.5 1120.5,-422.5 1120.5,-387.5 833.5,-387.5"/>
<polygon fill="none" stroke="#000000" points="833.5,-387.5 833.5,-422.5 1120.5,-422.5 1120.5,-387.5 833.5,-387.5"/>
<text text-anchor="start" x="854.1877" y="-400.3" font-family="Arial Bold" font-size="18.00" fill="#000000">acq.fund_debit</text>
<text text-anchor="start" x="972.2443" y="-400.3" font-family="Arial" font-size="14.00" fill="#000000">    </text>
<text text-anchor="start" x="1006.4491" y="-400.3" font-family="Arial" font-size="14.00" fill="#666666">[BASE TABLE]</text>
<polygon fill="none" stroke="#000000" points="833.5,-357.5 833.5,-387.5 1120.5,-387.5 1120.5,-357.5 833.5,-357.5"/>
<text text-anchor="start" x="840.5" y="-368.9" font-family="Arial" font-size="14.00" fill="#000000">id    </text>
<text text-anchor="start" x="885.594" y="-368.9" font-family="Arial" font-size="14.00" fill="#666666">[integer]</text>
<polygon fill="none" stroke="#000000" points="833.5,-327.5 833.5,-357.5 1120.5,-357.5 1120.5,-327.5 833.5,-327.5"/>
<text text-anchor="start" x="840.5" y="-338.9" font-family="Arial" font-size="14.00" fill="#000000">fund    </text>
<text text-anchor="start" x="901.9432" y="-338.9" font-family="Arial" font-size="14.00" fill="#666666">[integer]</text>
<polygon fill="none" stroke="#000000" points="833.5,-297.5 833.5,-327.5 1120.5,-327.5 1120.5,-297.5 833.5,-297.5"/>
<text text-anchor="start" x="840.5" y="-308.9" font-family="Arial" font-size="14.00" fill="#000000">origin_amount    </text>
<text text-anchor="start" x="963.3906" y="-308.9" font-family="Arial" font-size="14.00" fill="#666666">[numeric]</text>
<polygon fill="none" stroke="#000000" points="833.5,-267.5 833.5,-297.5 1120.5,-297.5 1120.5,-267.5 833.5,-267.5"/>
<text text-anchor="start" x="840.5" y="-278.9" font-family="Arial" font-size="14.00" fill="#000000">origin_currency_type    </text>
<text text-anchor="start" x="1004.6164" y="-278.9" font-family="Arial" font-size="14.00" fill="#666666">[text]</text>
<polygon fill="none" stroke="#000000" points="833.5,-237.5 833.5,-267.5 1120.5,-267.5 1120.5,-237.5 833.5,-237.5"/>
<text text-anchor="start" x="840.5" y="-248.9" font-family="Arial" font-size="14.00" fill="#000000">amount    </text>
<text text-anchor="start" x="921.3864" y="-248.9" font-family="Arial" font-size="14.00" fill="#666666">[numeric]</text>
<polygon fill="none" stroke="#000000" points="833.5,-207.5 833.5,-237.5 1120.5,-237.5 1120.5,-207.5 833.5,-207.5"/>
<text text-anchor="start" x="840.5" y="-218.9" font-family="Arial" font-size="14.00" fill="#000000">encumbrance    </text>
<text text-anchor="start" x="959.5042" y="-218.9" font-family="Arial" font-size="14.00" fill="#666666">[boolean]</text>
<polygon fill="none" stroke="#000000" points="833.5,-177.5 833.5,-207.5 1120.5,-207.5 1120.5,-177.5 833.5,-177.5"/>
<text text-anchor="start" x="840.5" y="-188.9" font-family="Arial" font-size="14.00" fill="#000000">debit_type    </text>
<text text-anchor="start" x="939.2882" y="-188.9" font-family="Arial" font-size="14.00" fill="#666666">[text]</text>
<polygon fill="none" stroke="#000000" points="833.5,-147.5 833.5,-177.5 1120.5,-177.5 1120.5,-147.5 833.5,-147.5"/>
<text text-anchor="start" x="840.5" y="-158.9" font-family="Arial" font-size="14.00" fill="#000000">xfer_destination    </text>
<text text-anchor="start" x="973.5112" y="-158.9" font-family="Arial" font-size="14.00" fill="#666666">[integer]</text>
<polygon fill="none" stroke="#000000" points="833.5,-117.5 833.5,-147.5 1120.5,-147.5 1120.5,-117.5 833.5,-117.5"/>
<text text-anchor="start" x="840.4944" y="-128.9" font-family="Arial" font-size="14.00" fill="#000000">create_time    </text>
<text text-anchor="start" x="947.8212" y="-128.9" font-family="Arial" font-size="14.00" fill="#666666">[timestamp with time zone]</text>
<polygon fill="none" stroke="#000000" points="833.5,-87.5 833.5,-117.5 1120.5,-117.5 1120.5,-87.5 833.5,-87.5"/>
<text text-anchor="start" x="840.5" y="-98.9" font-family="Arial" font-size="14.00" fill="#000000">invoice_entry    </text>
<text text-anchor="start" x="957.1648" y="-98.9" font-family="Arial" font-size="14.00" fill="#666666">[integer]</text>
</g>
<!-- acq.invoice_item&#45;&gt;acq.fund_debit -->
<g id="edge3" class="edge">
<title>acq.invoice_item:fund_debit&#45;&gt;acq.fund_debit:id</title>
<path fill="none" stroke="#000000" d="M1032.0947,-907.1824C886.7634,-898.0129 983.9304,-692.2602 1042.5,-547 1061.1893,-500.6482 1101.8107,-512.3518 1120.5,-466 1136.0398,-427.4594 1162.0556,-372.5 1120.5,-372.5"/>
<polygon fill="#000000" stroke="#000000" points="1032.5047,-907.1948 1042.3627,-911.9979 1037.5023,-907.3474 1042.5,-907.5 1042.5,-907.5 1042.5,-907.5 1037.5023,-907.3474 1042.6373,-903.0021 1032.5047,-907.1948 1032.5047,-907.1948"/>
<text text-anchor="start" x="757.3115" y="-917.5" font-family="Arial" font-size="10.00" fill="#000000">FOREIGN KEY (fund_debit) REFERENCES acq.fund_debit(id)</text>
</g>
<!-- acq.invoice_item_type -->
<g id="node5" class="node">
<title>acq.invoice_item_type</title>
<polygon fill="#efefef" stroke="transparent" points="1224.5,-297.5 1224.5,-332.5 1543.5,-332.5 1543.5,-297.5 1224.5,-297.5"/>
<polygon fill="none" stroke="#000000" points="1224.5,-297.5 1224.5,-332.5 1543.5,-332.5 1543.5,-297.5 1224.5,-297.5"/>
<text text-anchor="start" x="1231.1943" y="-310.3" font-family="Arial Bold" font-size="18.00" fill="#000000">acq.invoice_item_type</text>
<text text-anchor="start" x="1409.2377" y="-310.3" font-family="Arial" font-size="14.00" fill="#000000">    </text>
<text text-anchor="start" x="1443.4425" y="-310.3" font-family="Arial" font-size="14.00" fill="#666666">[BASE TABLE]</text>
<polygon fill="none" stroke="#000000" points="1224.5,-267.5 1224.5,-297.5 1543.5,-297.5 1543.5,-267.5 1224.5,-267.5"/>
<text text-anchor="start" x="1231.5" y="-278.9" font-family="Arial" font-size="14.00" fill="#000000">code    </text>
<text text-anchor="start" x="1296.0526" y="-278.9" font-family="Arial" font-size="14.00" fill="#666666">[text]</text>
<polygon fill="none" stroke="#000000" points="1224.5,-237.5 1224.5,-267.5 1543.5,-267.5 1543.5,-237.5 1224.5,-237.5"/>
<text text-anchor="start" x="1231.5" y="-248.9" font-family="Arial" font-size="14.00" fill="#000000">name    </text>
<text text-anchor="start" x="1300.7132" y="-248.9" font-family="Arial" font-size="14.00" fill="#666666">[text]</text>
<polygon fill="none" stroke="#000000" points="1224.5,-207.5 1224.5,-237.5 1543.5,-237.5 1543.5,-207.5 1224.5,-207.5"/>
<text text-anchor="start" x="1231.5" y="-218.9" font-family="Arial" font-size="14.00" fill="#000000">prorate    </text>
<text text-anchor="start" x="1310.047" y="-218.9" font-family="Arial" font-size="14.00" fill="#666666">[boolean]</text>
<polygon fill="none" stroke="#000000" points="1224.5,-177.5 1224.5,-207.5 1543.5,-207.5 1543.5,-177.5 1224.5,-177.5"/>
<text text-anchor="start" x="1231.5" y="-188.9" font-family="Arial" font-size="14.00" fill="#000000">blanket    </text>
<text text-anchor="start" x="1310.8324" y="-188.9" font-family="Arial" font-size="14.00" fill="#666666">[boolean]</text>
</g>
<!-- acq.invoice_item&#45;&gt;acq.invoice_item_type -->
<g id="edge4" class="edge">
<title>acq.invoice_item:inv_item_type&#45;&gt;acq.invoice_item_type:code</title>
<path fill="none" stroke="#000000" d="M1327.8027,-877.167C1459.0289,-868.3406 1352.8229,-685.8811 1317.5,-547 1296.1754,-463.1567 1245.8246,-459.8433 1224.5,-376 1214.2569,-335.7266 1182.9444,-282.5 1224.5,-282.5"/>
<polygon fill="#000000" stroke="#000000" points="1327.4948,-877.1768 1317.3546,-873.0023 1322.4974,-877.3384 1317.5,-877.5 1317.5,-877.5 1317.5,-877.5 1322.4974,-877.3384 1317.6454,-881.9977 1327.4948,-877.1768 1327.4948,-877.1768"/>
<text text-anchor="start" x="1324.2045" y="-887.5" font-family="Arial" font-size="10.00" fill="#000000">FOREIGN KEY (inv_item_type) REFERENCES acq.invoice_item_type(code)</text>
</g>
<!-- acq.fund -->
<g id="node6" class="node">
<title>acq.fund</title>
<polygon fill="#efefef" stroke="transparent" points="1647.5,-402.5 1647.5,-437.5 1906.5,-437.5 1906.5,-402.5 1647.5,-402.5"/>
<polygon fill="none" stroke="#000000" points="1647.5,-402.5 1647.5,-437.5 1906.5,-437.5 1906.5,-402.5 1647.5,-402.5"/>
<text text-anchor="start" x="1678.6983" y="-415.3" font-family="Arial Bold" font-size="18.00" fill="#000000">acq.fund</text>
<text text-anchor="start" x="1747.7337" y="-415.3" font-family="Arial" font-size="14.00" fill="#000000">    </text>
<text text-anchor="start" x="1781.9385" y="-415.3" font-family="Arial" font-size="14.00" fill="#666666">[BASE TABLE]</text>
<polygon fill="none" stroke="#000000" points="1647.5,-372.5 1647.5,-402.5 1906.5,-402.5 1906.5,-372.5 1647.5,-372.5"/>
<text text-anchor="start" x="1654.5" y="-383.9" font-family="Arial" font-size="14.00" fill="#000000">id    </text>
<text text-anchor="start" x="1699.594" y="-383.9" font-family="Arial" font-size="14.00" fill="#666666">[integer]</text>
<polygon fill="none" stroke="#000000" points="1647.5,-342.5 1647.5,-372.5 1906.5,-372.5 1906.5,-342.5 1647.5,-342.5"/>
<text text-anchor="start" x="1654.5" y="-353.9" font-family="Arial" font-size="14.00" fill="#000000">org    </text>
<text text-anchor="start" x="1708.9306" y="-353.9" font-family="Arial" font-size="14.00" fill="#666666">[integer]</text>
<polygon fill="none" stroke="#000000" points="1647.5,-312.5 1647.5,-342.5 1906.5,-342.5 1906.5,-312.5 1647.5,-312.5"/>
<text text-anchor="start" x="1654.5" y="-323.9" font-family="Arial" font-size="14.00" fill="#000000">name    </text>
<text text-anchor="start" x="1723.7132" y="-323.9" font-family="Arial" font-size="14.00" fill="#666666">[text]</text>
<polygon fill="none" stroke="#000000" points="1647.5,-282.5 1647.5,-312.5 1906.5,-312.5 1906.5,-282.5 1647.5,-282.5"/>
<text text-anchor="start" x="1654.5" y="-293.9" font-family="Arial" font-size="14.00" fill="#000000">year    </text>
<text text-anchor="start" x="1715.9306" y="-293.9" font-family="Arial" font-size="14.00" fill="#666666">[integer]</text>
<polygon fill="none" stroke="#000000" points="1647.5,-252.5 1647.5,-282.5 1906.5,-282.5 1906.5,-252.5 1647.5,-252.5"/>
<text text-anchor="start" x="1654.5" y="-263.9" font-family="Arial" font-size="14.00" fill="#000000">currency_type    </text>
<text text-anchor="start" x="1776.6122" y="-263.9" font-family="Arial" font-size="14.00" fill="#666666">[text]</text>
<polygon fill="none" stroke="#000000" points="1647.5,-222.5 1647.5,-252.5 1906.5,-252.5 1906.5,-222.5 1647.5,-222.5"/>
<text text-anchor="start" x="1654.5" y="-233.9" font-family="Arial" font-size="14.00" fill="#000000">code    </text>
<text text-anchor="start" x="1719.0526" y="-233.9" font-family="Arial" font-size="14.00" fill="#666666">[text]</text>
<polygon fill="none" stroke="#000000" points="1647.5,-192.5 1647.5,-222.5 1906.5,-222.5 1906.5,-192.5 1647.5,-192.5"/>
<text text-anchor="start" x="1654.5" y="-203.9" font-family="Arial" font-size="14.00" fill="#000000">rollover    </text>
<text text-anchor="start" x="1734.587" y="-203.9" font-family="Arial" font-size="14.00" fill="#666666">[boolean]</text>
<polygon fill="none" stroke="#000000" points="1647.5,-162.5 1647.5,-192.5 1906.5,-192.5 1906.5,-162.5 1647.5,-162.5"/>
<text text-anchor="start" x="1654.5" y="-173.9" font-family="Arial" font-size="14.00" fill="#000000">propagate    </text>
<text text-anchor="start" x="1751.7342" y="-173.9" font-family="Arial" font-size="14.00" fill="#666666">[boolean]</text>
<polygon fill="none" stroke="#000000" points="1647.5,-132.5 1647.5,-162.5 1906.5,-162.5 1906.5,-132.5 1647.5,-132.5"/>
<text text-anchor="start" x="1654.5" y="-143.9" font-family="Arial" font-size="14.00" fill="#000000">active    </text>
<text text-anchor="start" x="1725.2672" y="-143.9" font-family="Arial" font-size="14.00" fill="#666666">[boolean]</text>
<polygon fill="none" stroke="#000000" points="1647.5,-102.5 1647.5,-132.5 1906.5,-132.5 1906.5,-102.5 1647.5,-102.5"/>
<text text-anchor="start" x="1654.4776" y="-113.9" font-family="Arial" font-size="14.00" fill="#000000">balance_warning_percent    </text>
<text text-anchor="start" x="1848.953" y="-113.9" font-family="Arial" font-size="14.00" fill="#666666">[integer]</text>
<polygon fill="none" stroke="#000000" points="1647.5,-72.5 1647.5,-102.5 1906.5,-102.5 1906.5,-72.5 1647.5,-72.5"/>
<text text-anchor="start" x="1654.5" y="-83.9" font-family="Arial" font-size="14.00" fill="#000000">balance_stop_percent    </text>
<text text-anchor="start" x="1826.427" y="-83.9" font-family="Arial" font-size="14.00" fill="#666666">[integer]</text>
</g>
<!-- acq.invoice_item&#45;&gt;acq.fund -->
<g id="edge5" class="edge">
<title>acq.invoice_item:fund&#45;&gt;acq.fund:id</title>
<path fill="none" stroke="#000000" d="M1327.7754,-697.3822C1467.9384,-694.1165 1503.1022,-623.1325 1595.5,-511 1633.3732,-465.0377 1587.944,-387.5 1647.5,-387.5"/>
<polygon fill="#000000" stroke="#000000" points="1327.4993,-697.3853 1317.4484,-693.0003 1322.4997,-697.4427 1317.5,-697.5 1317.5,-697.5 1317.5,-697.5 1322.4997,-697.4427 1317.5516,-701.9997 1327.4993,-697.3853 1327.4993,-697.3853"/>
<text text-anchor="start" x="1324.4855" y="-707.5" font-family="Arial" font-size="10.00" fill="#000000">FOREIGN KEY (fund) REFERENCES acq.fund(id) DEFERRABLE INITIALLY DEFERRED</text>
</g>
<!-- acq.po_item -->
<g id="node7" class="node">
<title>acq.po_item</title>
<polygon fill="#efefef" stroke="transparent" points="2010.5,-387.5 2010.5,-422.5 2249.5,-422.5 2249.5,-387.5 2010.5,-387.5"/>
<polygon fill="none" stroke="#000000" points="2010.5,-387.5 2010.5,-422.5 2249.5,-422.5 2249.5,-387.5 2010.5,-387.5"/>
<text text-anchor="start" x="2017.202" y="-400.3" font-family="Arial Bold" font-size="18.00" fill="#000000">acq.po_item</text>
<text text-anchor="start" x="2115.23" y="-400.3" font-family="Arial" font-size="14.00" fill="#000000">    </text>
<text text-anchor="start" x="2149.4348" y="-400.3" font-family="Arial" font-size="14.00" fill="#666666">[BASE TABLE]</text>
<polygon fill="none" stroke="#000000" points="2010.5,-357.5 2010.5,-387.5 2249.5,-387.5 2249.5,-357.5 2010.5,-357.5"/>
<text text-anchor="start" x="2017.5" y="-368.9" font-family="Arial" font-size="14.00" fill="#000000">id    </text>
<text text-anchor="start" x="2062.594" y="-368.9" font-family="Arial" font-size="14.00" fill="#666666">[integer]</text>
<polygon fill="none" stroke="#000000" points="2010.5,-327.5 2010.5,-357.5 2249.5,-357.5 2249.5,-327.5 2010.5,-327.5"/>
<text text-anchor="start" x="2017.5" y="-338.9" font-family="Arial" font-size="14.00" fill="#000000">purchase_order    </text>
<text text-anchor="start" x="2149.73" y="-338.9" font-family="Arial" font-size="14.00" fill="#666666">[integer]</text>
<polygon fill="none" stroke="#000000" points="2010.5,-297.5 2010.5,-327.5 2249.5,-327.5 2249.5,-297.5 2010.5,-297.5"/>
<text text-anchor="start" x="2017.5" y="-308.9" font-family="Arial" font-size="14.00" fill="#000000">fund_debit    </text>
<text text-anchor="start" x="2117.0708" y="-308.9" font-family="Arial" font-size="14.00" fill="#666666">[integer]</text>
<polygon fill="none" stroke="#000000" points="2010.5,-267.5 2010.5,-297.5 2249.5,-297.5 2249.5,-267.5 2010.5,-267.5"/>
<text text-anchor="start" x="2017.5" y="-278.9" font-family="Arial" font-size="14.00" fill="#000000">inv_item_type    </text>
<text text-anchor="start" x="2138.0554" y="-278.9" font-family="Arial" font-size="14.00" fill="#666666">[text]</text>
<polygon fill="none" stroke="#000000" points="2010.5,-237.5 2010.5,-267.5 2249.5,-267.5 2249.5,-237.5 2010.5,-237.5"/>
<text text-anchor="start" x="2017.5" y="-248.9" font-family="Arial" font-size="14.00" fill="#000000">title    </text>
<text text-anchor="start" x="2073.4818" y="-248.9" font-family="Arial" font-size="14.00" fill="#666666">[text]</text>
<polygon fill="none" stroke="#000000" points="2010.5,-207.5 2010.5,-237.5 2249.5,-237.5 2249.5,-207.5 2010.5,-207.5"/>
<text text-anchor="start" x="2017.5" y="-218.9" font-family="Arial" font-size="14.00" fill="#000000">author    </text>
<text text-anchor="start" x="2091.3864" y="-218.9" font-family="Arial" font-size="14.00" fill="#666666">[text]</text>
<polygon fill="none" stroke="#000000" points="2010.5,-177.5 2010.5,-207.5 2249.5,-207.5 2249.5,-177.5 2010.5,-177.5"/>
<text text-anchor="start" x="2017.5" y="-188.9" font-family="Arial" font-size="14.00" fill="#000000">note    </text>
<text text-anchor="start" x="2078.9432" y="-188.9" font-family="Arial" font-size="14.00" fill="#666666">[text]</text>
<polygon fill="none" stroke="#000000" points="2010.5,-147.5 2010.5,-177.5 2249.5,-177.5 2249.5,-147.5 2010.5,-147.5"/>
<text text-anchor="start" x="2017.5" y="-158.9" font-family="Arial" font-size="14.00" fill="#000000">estimated_cost    </text>
<text text-anchor="start" x="2145.8394" y="-158.9" font-family="Arial" font-size="14.00" fill="#666666">[numeric(8,2)]</text>
<polygon fill="none" stroke="#000000" points="2010.5,-117.5 2010.5,-147.5 2249.5,-147.5 2249.5,-117.5 2010.5,-117.5"/>
<text text-anchor="start" x="2017.5" y="-128.9" font-family="Arial" font-size="14.00" fill="#000000">fund    </text>
<text text-anchor="start" x="2078.9432" y="-128.9" font-family="Arial" font-size="14.00" fill="#666666">[integer]</text>
<polygon fill="none" stroke="#000000" points="2010.5,-87.5 2010.5,-117.5 2249.5,-117.5 2249.5,-87.5 2010.5,-87.5"/>
<text text-anchor="start" x="2017.5" y="-98.9" font-family="Arial" font-size="14.00" fill="#000000">target    </text>
<text text-anchor="start" x="2087.4944" y="-98.9" font-family="Arial" font-size="14.00" fill="#666666">[bigint]</text>
</g>
<!-- acq.invoice_item&#45;&gt;acq.po_item -->
<g id="edge6" class="edge">
<title>acq.invoice_item:po_item&#45;&gt;acq.po_item:id</title>
<path fill="none" stroke="#000000" d="M1327.6406,-637.4503C1479.8511,-636.0044 1850.242,-602.7852 1958.5,-511 2008.6518,-468.4794 1944.7489,-372.5 2010.5,-372.5"/>
<polygon fill="#000000" stroke="#000000" points="1327.4999,-637.4509 1317.4779,-633.0001 1322.4999,-637.4755 1317.5,-637.5 1317.5,-637.5 1317.5,-637.5 1322.4999,-637.4755 1317.5221,-641.9999 1327.4999,-637.4509 1327.4999,-637.4509"/>
<text text-anchor="start" x="1324.3785" y="-647.5" font-family="Arial" font-size="10.00" fill="#000000">FOREIGN KEY (po_item) REFERENCES acq.po_item(id) DEFERRABLE INITIALLY DEFERRED</text>
</g>
</g>
</svg>
