<?xml version="1.0" encoding="UTF-8" standalone="no"?>
<!DOCTYPE svg PUBLIC "-//W3C//DTD SVG 1.1//EN"
 "http://www.w3.org/Graphics/SVG/1.1/DTD/svg11.dtd">
<!-- Generated by graphviz version 2.40.1 (20161225.0304)
 -->
<!-- Title: acq.lineitem_usr_attr_definition Pages: 1 -->
<svg width="658pt" height="1942pt"
 viewBox="0.00 0.00 658.00 1942.00" xmlns="http://www.w3.org/2000/svg" xmlns:xlink="http://www.w3.org/1999/xlink">
<g id="graph0" class="graph" transform="scale(1 1) rotate(0) translate(4 1938)">
<title>acq.lineitem_usr_attr_definition</title>
<polygon fill="#ffffff" stroke="transparent" points="-4,4 -4,-1938 654,-1938 654,4 -4,4"/>
<!-- acq.lineitem_usr_attr_definition -->
<g id="node1" class="node">
<title>acq.lineitem_usr_attr_definition</title>
<polygon fill="#efefef" stroke="transparent" points="214,-1852.5 214,-1887.5 604,-1887.5 604,-1852.5 214,-1852.5"/>
<polygon fill="none" stroke="#000000" points="214,-1852.5 214,-1887.5 604,-1887.5 604,-1852.5 214,-1852.5"/>
<text text-anchor="start" x="220.692" y="-1865.3" font-family="Arial Bold" font-size="18.00" fill="#000000">acq.lineitem_usr_attr_definition</text>
<text text-anchor="start" x="469.74" y="-1865.3" font-family="Arial" font-size="14.00" fill="#000000">    </text>
<text text-anchor="start" x="503.9448" y="-1865.3" font-family="Arial" font-size="14.00" fill="#666666">[BASE TABLE]</text>
<polygon fill="none" stroke="#000000" points="214,-1822.5 214,-1852.5 604,-1852.5 604,-1822.5 214,-1822.5"/>
<text text-anchor="start" x="221" y="-1833.9" font-family="Arial" font-size="14.00" fill="#000000">id </text>
<text text-anchor="start" x="235.7798" y="-1833.9" font-family="Arial" font-size="14.00" fill="#666666">[bigint]</text>
<polygon fill="none" stroke="#000000" points="214,-1792.5 214,-1822.5 604,-1822.5 604,-1792.5 214,-1792.5"/>
<text text-anchor="start" x="221" y="-1803.9" font-family="Arial" font-size="14.00" fill="#000000">code </text>
<text text-anchor="start" x="255.2384" y="-1803.9" font-family="Arial" font-size="14.00" fill="#666666">[text]</text>
<polygon fill="none" stroke="#000000" points="214,-1762.5 214,-1792.5 604,-1792.5 604,-1762.5 214,-1762.5"/>
<text text-anchor="start" x="221" y="-1773.9" font-family="Arial" font-size="14.00" fill="#000000">description </text>
<text text-anchor="start" x="292.568" y="-1773.9" font-family="Arial" font-size="14.00" fill="#666666">[text]</text>
<polygon fill="none" stroke="#000000" points="214,-1732.5 214,-1762.5 604,-1762.5 604,-1732.5 214,-1732.5"/>
<text text-anchor="start" x="221" y="-1743.9" font-family="Arial" font-size="14.00" fill="#000000">remove </text>
<text text-anchor="start" x="271.5596" y="-1743.9" font-family="Arial" font-size="14.00" fill="#666666">[text]</text>
<polygon fill="none" stroke="#000000" points="214,-1702.5 214,-1732.5 604,-1732.5 604,-1702.5 214,-1702.5"/>
<text text-anchor="start" x="221" y="-1713.9" font-family="Arial" font-size="14.00" fill="#000000">ident </text>
<text text-anchor="start" x="255.2356" y="-1713.9" font-family="Arial" font-size="14.00" fill="#666666">[boolean]</text>
<polygon fill="none" stroke="#000000" points="214,-1672.5 214,-1702.5 604,-1702.5 604,-1672.5 214,-1672.5"/>
<text text-anchor="start" x="221" y="-1683.9" font-family="Arial" font-size="14.00" fill="#000000">usr </text>
<text text-anchor="start" x="244.3338" y="-1683.9" font-family="Arial" font-size="14.00" fill="#666666">[integer]</text>
<polygon fill="none" stroke="#000000" stroke-width="3" points="212.5,-1671.5 212.5,-1889.5 605.5,-1889.5 605.5,-1671.5 212.5,-1671.5"/>
</g>
<!-- actor.usr -->
<g id="node2" class="node">
<title>actor.usr</title>
<polygon fill="#efefef" stroke="transparent" points="249,-1512.5 249,-1547.5 569,-1547.5 569,-1512.5 249,-1512.5"/>
<polygon fill="none" stroke="#000000" points="249,-1512.5 249,-1547.5 569,-1547.5 569,-1512.5 249,-1512.5"/>
<text text-anchor="start" x="310.2123" y="-1525.3" font-family="Arial Bold" font-size="18.00" fill="#000000">actor.usr</text>
<text text-anchor="start" x="380.2197" y="-1525.3" font-family="Arial" font-size="14.00" fill="#000000">    </text>
<text text-anchor="start" x="414.4245" y="-1525.3" font-family="Arial" font-size="14.00" fill="#666666">[BASE TABLE]</text>
<polygon fill="none" stroke="#000000" points="249,-1482.5 249,-1512.5 569,-1512.5 569,-1482.5 249,-1482.5"/>
<text text-anchor="start" x="256" y="-1493.9" font-family="Arial" font-size="14.00" fill="#000000">id    </text>
<text text-anchor="start" x="301.094" y="-1493.9" font-family="Arial" font-size="14.00" fill="#666666">[integer]</text>
<polygon fill="none" stroke="#000000" points="249,-1452.5 249,-1482.5 569,-1482.5 569,-1452.5 249,-1452.5"/>
<text text-anchor="start" x="256" y="-1463.9" font-family="Arial" font-size="14.00" fill="#000000">card    </text>
<text text-anchor="start" x="317.4306" y="-1463.9" font-family="Arial" font-size="14.00" fill="#666666">[integer]</text>
<polygon fill="none" stroke="#000000" points="249,-1422.5 249,-1452.5 569,-1452.5 569,-1422.5 249,-1422.5"/>
<text text-anchor="start" x="256" y="-1433.9" font-family="Arial" font-size="14.00" fill="#000000">profile    </text>
<text text-anchor="start" x="328.317" y="-1433.9" font-family="Arial" font-size="14.00" fill="#666666">[integer]</text>
<polygon fill="none" stroke="#000000" points="249,-1392.5 249,-1422.5 569,-1422.5 569,-1392.5 249,-1392.5"/>
<text text-anchor="start" x="256" y="-1403.9" font-family="Arial" font-size="14.00" fill="#000000">usrname    </text>
<text text-anchor="start" x="344.6564" y="-1403.9" font-family="Arial" font-size="14.00" fill="#666666">[text]</text>
<polygon fill="none" stroke="#000000" points="249,-1362.5 249,-1392.5 569,-1392.5 569,-1362.5 249,-1362.5"/>
<text text-anchor="start" x="256" y="-1373.9" font-family="Arial" font-size="14.00" fill="#000000">email    </text>
<text text-anchor="start" x="323.6438" y="-1373.9" font-family="Arial" font-size="14.00" fill="#666666">[text]</text>
<polygon fill="none" stroke="#000000" points="249,-1332.5 249,-1362.5 569,-1362.5 569,-1332.5 249,-1332.5"/>
<text text-anchor="start" x="256" y="-1343.9" font-family="Arial" font-size="14.00" fill="#000000">passwd    </text>
<text text-anchor="start" x="337.6592" y="-1343.9" font-family="Arial" font-size="14.00" fill="#666666">[text]</text>
<polygon fill="none" stroke="#000000" points="249,-1302.5 249,-1332.5 569,-1332.5 569,-1302.5 249,-1302.5"/>
<text text-anchor="start" x="256" y="-1313.9" font-family="Arial" font-size="14.00" fill="#000000">standing    </text>
<text text-anchor="start" x="343.115" y="-1313.9" font-family="Arial" font-size="14.00" fill="#666666">[integer]</text>
<polygon fill="none" stroke="#000000" points="249,-1272.5 249,-1302.5 569,-1302.5 569,-1272.5 249,-1272.5"/>
<text text-anchor="start" x="256" y="-1283.9" font-family="Arial" font-size="14.00" fill="#000000">ident_type    </text>
<text text-anchor="start" x="354.7882" y="-1283.9" font-family="Arial" font-size="14.00" fill="#666666">[integer]</text>
<polygon fill="none" stroke="#000000" points="249,-1242.5 249,-1272.5 569,-1272.5 569,-1242.5 249,-1242.5"/>
<text text-anchor="start" x="256" y="-1253.9" font-family="Arial" font-size="14.00" fill="#000000">ident_value    </text>
<text text-anchor="start" x="361.7868" y="-1253.9" font-family="Arial" font-size="14.00" fill="#666666">[text]</text>
<polygon fill="none" stroke="#000000" points="249,-1212.5 249,-1242.5 569,-1242.5 569,-1212.5 249,-1212.5"/>
<text text-anchor="start" x="256" y="-1223.9" font-family="Arial" font-size="14.00" fill="#000000">ident_type2    </text>
<text text-anchor="start" x="362.5708" y="-1223.9" font-family="Arial" font-size="14.00" fill="#666666">[integer]</text>
<polygon fill="none" stroke="#000000" points="249,-1182.5 249,-1212.5 569,-1212.5 569,-1182.5 249,-1182.5"/>
<text text-anchor="start" x="256" y="-1193.9" font-family="Arial" font-size="14.00" fill="#000000">ident_value2    </text>
<text text-anchor="start" x="369.5694" y="-1193.9" font-family="Arial" font-size="14.00" fill="#666666">[text]</text>
<polygon fill="none" stroke="#000000" points="249,-1152.5 249,-1182.5 569,-1182.5 569,-1152.5 249,-1152.5"/>
<text text-anchor="start" x="256" y="-1163.9" font-family="Arial" font-size="14.00" fill="#000000">net_access_level    </text>
<text text-anchor="start" x="397.5694" y="-1163.9" font-family="Arial" font-size="14.00" fill="#666666">[integer]</text>
<polygon fill="none" stroke="#000000" points="249,-1122.5 249,-1152.5 569,-1152.5 569,-1122.5 249,-1122.5"/>
<text text-anchor="start" x="256" y="-1133.9" font-family="Arial" font-size="14.00" fill="#000000">photo_url    </text>
<text text-anchor="start" x="348.5582" y="-1133.9" font-family="Arial" font-size="14.00" fill="#666666">[text]</text>
<polygon fill="none" stroke="#000000" points="249,-1092.5 249,-1122.5 569,-1122.5 569,-1092.5 249,-1092.5"/>
<text text-anchor="start" x="256" y="-1103.9" font-family="Arial" font-size="14.00" fill="#000000">prefix    </text>
<text text-anchor="start" x="324.4278" y="-1103.9" font-family="Arial" font-size="14.00" fill="#666666">[text]</text>
<polygon fill="none" stroke="#000000" points="249,-1062.5 249,-1092.5 569,-1092.5 569,-1062.5 249,-1062.5"/>
<text text-anchor="start" x="256" y="-1073.9" font-family="Arial" font-size="14.00" fill="#000000">first_given_name    </text>
<text text-anchor="start" x="396.7812" y="-1073.9" font-family="Arial" font-size="14.00" fill="#666666">[text]</text>
<polygon fill="none" stroke="#000000" points="249,-1032.5 249,-1062.5 569,-1062.5 569,-1032.5 249,-1032.5"/>
<text text-anchor="start" x="256" y="-1043.9" font-family="Arial" font-size="14.00" fill="#000000">second_given_name    </text>
<text text-anchor="start" x="419.3632" y="-1043.9" font-family="Arial" font-size="14.00" fill="#666666">[text]</text>
<polygon fill="none" stroke="#000000" points="249,-1002.5 249,-1032.5 569,-1032.5 569,-1002.5 249,-1002.5"/>
<text text-anchor="start" x="256" y="-1013.9" font-family="Arial" font-size="14.00" fill="#000000">family_name    </text>
<text text-anchor="start" x="369.5428" y="-1013.9" font-family="Arial" font-size="14.00" fill="#666666">[text]</text>
<polygon fill="none" stroke="#000000" points="249,-972.5 249,-1002.5 569,-1002.5 569,-972.5 249,-972.5"/>
<text text-anchor="start" x="256" y="-983.9" font-family="Arial" font-size="14.00" fill="#000000">suffix    </text>
<text text-anchor="start" x="322.8752" y="-983.9" font-family="Arial" font-size="14.00" fill="#666666">[text]</text>
<polygon fill="none" stroke="#000000" points="249,-942.5 249,-972.5 569,-972.5 569,-942.5 249,-942.5"/>
<text text-anchor="start" x="256" y="-953.9" font-family="Arial" font-size="14.00" fill="#000000">alias    </text>
<text text-anchor="start" x="318.9832" y="-953.9" font-family="Arial" font-size="14.00" fill="#666666">[text]</text>
<polygon fill="none" stroke="#000000" points="249,-912.5 249,-942.5 569,-942.5 569,-912.5 249,-912.5"/>
<text text-anchor="start" x="256" y="-923.9" font-family="Arial" font-size="14.00" fill="#000000">day_phone    </text>
<text text-anchor="start" x="359.4656" y="-923.9" font-family="Arial" font-size="14.00" fill="#666666">[text]</text>
<polygon fill="none" stroke="#000000" points="249,-882.5 249,-912.5 569,-912.5 569,-882.5 249,-882.5"/>
<text text-anchor="start" x="256" y="-893.9" font-family="Arial" font-size="14.00" fill="#000000">evening_phone    </text>
<text text-anchor="start" x="385.92" y="-893.9" font-family="Arial" font-size="14.00" fill="#666666">[text]</text>
<polygon fill="none" stroke="#000000" points="249,-852.5 249,-882.5 569,-882.5 569,-852.5 249,-852.5"/>
<text text-anchor="start" x="256" y="-863.9" font-family="Arial" font-size="14.00" fill="#000000">other_phone    </text>
<text text-anchor="start" x="368.7994" y="-863.9" font-family="Arial" font-size="14.00" fill="#666666">[text]</text>
<polygon fill="none" stroke="#000000" points="249,-822.5 249,-852.5 569,-852.5 569,-822.5 249,-822.5"/>
<text text-anchor="start" x="256" y="-833.9" font-family="Arial" font-size="14.00" fill="#000000">mailing_address    </text>
<text text-anchor="start" x="392.1066" y="-833.9" font-family="Arial" font-size="14.00" fill="#666666">[integer]</text>
<polygon fill="none" stroke="#000000" points="249,-792.5 249,-822.5 569,-822.5 569,-792.5 249,-792.5"/>
<text text-anchor="start" x="256" y="-803.9" font-family="Arial" font-size="14.00" fill="#000000">billing_address    </text>
<text text-anchor="start" x="383.5526" y="-803.9" font-family="Arial" font-size="14.00" fill="#666666">[integer]</text>
<polygon fill="none" stroke="#000000" points="249,-762.5 249,-792.5 569,-792.5 569,-762.5 249,-762.5"/>
<text text-anchor="start" x="256" y="-773.9" font-family="Arial" font-size="14.00" fill="#000000">home_ou    </text>
<text text-anchor="start" x="348.561" y="-773.9" font-family="Arial" font-size="14.00" fill="#666666">[integer]</text>
<polygon fill="none" stroke="#000000" points="249,-732.5 249,-762.5 569,-762.5 569,-732.5 249,-732.5"/>
<text text-anchor="start" x="256" y="-743.9" font-family="Arial" font-size="14.00" fill="#000000">dob    </text>
<text text-anchor="start" x="313.5526" y="-743.9" font-family="Arial" font-size="14.00" fill="#666666">[date]</text>
<polygon fill="none" stroke="#000000" points="249,-702.5 249,-732.5 569,-732.5 569,-702.5 249,-702.5"/>
<text text-anchor="start" x="256" y="-713.9" font-family="Arial" font-size="14.00" fill="#000000">active    </text>
<text text-anchor="start" x="326.7672" y="-713.9" font-family="Arial" font-size="14.00" fill="#666666">[boolean]</text>
<polygon fill="none" stroke="#000000" points="249,-672.5 249,-702.5 569,-702.5 569,-672.5 249,-672.5"/>
<text text-anchor="start" x="256" y="-683.9" font-family="Arial" font-size="14.00" fill="#000000">master_account    </text>
<text text-anchor="start" x="389.7854" y="-683.9" font-family="Arial" font-size="14.00" fill="#666666">[boolean]</text>
<polygon fill="none" stroke="#000000" points="249,-642.5 249,-672.5 569,-672.5 569,-642.5 249,-642.5"/>
<text text-anchor="start" x="256" y="-653.9" font-family="Arial" font-size="14.00" fill="#000000">super_user    </text>
<text text-anchor="start" x="360.2216" y="-653.9" font-family="Arial" font-size="14.00" fill="#666666">[boolean]</text>
<polygon fill="none" stroke="#000000" points="249,-612.5 249,-642.5 569,-642.5 569,-612.5 249,-612.5"/>
<text text-anchor="start" x="256" y="-623.9" font-family="Arial" font-size="14.00" fill="#000000">barred    </text>
<text text-anchor="start" x="330.6564" y="-623.9" font-family="Arial" font-size="14.00" fill="#666666">[boolean]</text>
<polygon fill="none" stroke="#000000" points="249,-582.5 249,-612.5 569,-612.5 569,-582.5 249,-582.5"/>
<text text-anchor="start" x="256" y="-593.9" font-family="Arial" font-size="14.00" fill="#000000">deleted    </text>
<text text-anchor="start" x="336.115" y="-593.9" font-family="Arial" font-size="14.00" fill="#666666">[boolean]</text>
<polygon fill="none" stroke="#000000" points="249,-552.5 249,-582.5 569,-582.5 569,-552.5 249,-552.5"/>
<text text-anchor="start" x="256" y="-563.9" font-family="Arial" font-size="14.00" fill="#000000">juvenile    </text>
<text text-anchor="start" x="337.655" y="-563.9" font-family="Arial" font-size="14.00" fill="#666666">[boolean]</text>
<polygon fill="none" stroke="#000000" points="249,-522.5 249,-552.5 569,-552.5 569,-522.5 249,-522.5"/>
<text text-anchor="start" x="256" y="-533.9" font-family="Arial" font-size="14.00" fill="#000000">usrgroup    </text>
<text text-anchor="start" x="345.439" y="-533.9" font-family="Arial" font-size="14.00" fill="#666666">[integer]</text>
<polygon fill="none" stroke="#000000" points="249,-492.5 249,-522.5 569,-522.5 569,-492.5 249,-492.5"/>
<text text-anchor="start" x="256" y="-503.9" font-family="Arial" font-size="14.00" fill="#000000">claims_returned_count    </text>
<text text-anchor="start" x="431.7896" y="-503.9" font-family="Arial" font-size="14.00" fill="#666666">[integer]</text>
<polygon fill="none" stroke="#000000" points="249,-462.5 249,-492.5 569,-492.5 569,-462.5 249,-462.5"/>
<text text-anchor="start" x="256" y="-473.9" font-family="Arial" font-size="14.00" fill="#000000">credit_forward_balance    </text>
<text text-anchor="start" x="435.6788" y="-473.9" font-family="Arial" font-size="14.00" fill="#666666">[numeric(6,2)]</text>
<polygon fill="none" stroke="#000000" points="249,-432.5 249,-462.5 569,-462.5 569,-432.5 249,-432.5"/>
<text text-anchor="start" x="256" y="-443.9" font-family="Arial" font-size="14.00" fill="#000000">last_xact_id    </text>
<text text-anchor="start" x="364.1122" y="-443.9" font-family="Arial" font-size="14.00" fill="#666666">[text]</text>
<polygon fill="none" stroke="#000000" points="249,-402.5 249,-432.5 569,-432.5 569,-402.5 249,-402.5"/>
<text text-anchor="start" x="256" y="-413.9" font-family="Arial" font-size="14.00" fill="#000000">alert_message    </text>
<text text-anchor="start" x="382.0014" y="-413.9" font-family="Arial" font-size="14.00" fill="#666666">[text]</text>
<polygon fill="none" stroke="#000000" points="249,-372.5 249,-402.5 569,-402.5 569,-372.5 249,-372.5"/>
<text text-anchor="start" x="256" y="-383.9" font-family="Arial" font-size="14.00" fill="#000000">create_date    </text>
<text text-anchor="start" x="364.1248" y="-383.9" font-family="Arial" font-size="14.00" fill="#666666">[timestamp with time zone]</text>
<polygon fill="none" stroke="#000000" points="249,-342.5 249,-372.5 569,-372.5 569,-342.5 249,-342.5"/>
<text text-anchor="start" x="256" y="-353.9" font-family="Arial" font-size="14.00" fill="#000000">expire_date    </text>
<text text-anchor="start" x="363.3408" y="-353.9" font-family="Arial" font-size="14.00" fill="#666666">[timestamp with time zone]</text>
<polygon fill="none" stroke="#000000" points="249,-312.5 249,-342.5 569,-342.5 569,-312.5 249,-312.5"/>
<text text-anchor="start" x="256" y="-323.9" font-family="Arial" font-size="14.00" fill="#000000">claims_never_checked_out_count    </text>
<text text-anchor="start" x="501.8246" y="-323.9" font-family="Arial" font-size="14.00" fill="#666666">[integer]</text>
<polygon fill="none" stroke="#000000" points="249,-282.5 249,-312.5 569,-312.5 569,-282.5 249,-282.5"/>
<text text-anchor="start" x="255.7609" y="-293.9" font-family="Arial" font-size="14.00" fill="#000000">last_update_time    </text>
<text text-anchor="start" x="396.5547" y="-293.9" font-family="Arial" font-size="14.00" fill="#666666">[timestamp with time zone]</text>
<polygon fill="none" stroke="#000000" points="249,-252.5 249,-282.5 569,-282.5 569,-252.5 249,-252.5"/>
<text text-anchor="start" x="256" y="-263.9" font-family="Arial" font-size="14.00" fill="#000000">pref_prefix    </text>
<text text-anchor="start" x="356.3268" y="-263.9" font-family="Arial" font-size="14.00" fill="#666666">[text]</text>
<polygon fill="none" stroke="#000000" points="249,-222.5 249,-252.5 569,-252.5 569,-222.5 249,-222.5"/>
<text text-anchor="start" x="256" y="-233.9" font-family="Arial" font-size="14.00" fill="#000000">pref_first_given_name    </text>
<text text-anchor="start" x="428.6802" y="-233.9" font-family="Arial" font-size="14.00" fill="#666666">[text]</text>
<polygon fill="none" stroke="#000000" points="249,-192.5 249,-222.5 569,-222.5 569,-192.5 249,-192.5"/>
<text text-anchor="start" x="256" y="-203.9" font-family="Arial" font-size="14.00" fill="#000000">pref_second_given_name    </text>
<text text-anchor="start" x="451.2622" y="-203.9" font-family="Arial" font-size="14.00" fill="#666666">[text]</text>
<polygon fill="none" stroke="#000000" points="249,-162.5 249,-192.5 569,-192.5 569,-162.5 249,-162.5"/>
<text text-anchor="start" x="256" y="-173.9" font-family="Arial" font-size="14.00" fill="#000000">pref_family_name    </text>
<text text-anchor="start" x="401.4418" y="-173.9" font-family="Arial" font-size="14.00" fill="#666666">[text]</text>
<polygon fill="none" stroke="#000000" points="249,-132.5 249,-162.5 569,-162.5 569,-132.5 249,-132.5"/>
<text text-anchor="start" x="256" y="-143.9" font-family="Arial" font-size="14.00" fill="#000000">pref_suffix    </text>
<text text-anchor="start" x="354.7742" y="-143.9" font-family="Arial" font-size="14.00" fill="#666666">[text]</text>
<polygon fill="none" stroke="#000000" points="249,-102.5 249,-132.5 569,-132.5 569,-102.5 249,-102.5"/>
<text text-anchor="start" x="256" y="-113.9" font-family="Arial" font-size="14.00" fill="#000000">name_keywords    </text>
<text text-anchor="start" x="392.1108" y="-113.9" font-family="Arial" font-size="14.00" fill="#666666">[text]</text>
<polygon fill="none" stroke="#000000" points="249,-72.5 249,-102.5 569,-102.5 569,-72.5 249,-72.5"/>
<text text-anchor="start" x="256" y="-83.9" font-family="Arial" font-size="14.00" fill="#000000">name_kw_tsvector    </text>
<text text-anchor="start" x="406.892" y="-83.9" font-family="Arial" font-size="14.00" fill="#666666">[tsvector]</text>
<polygon fill="none" stroke="#000000" points="249,-42.5 249,-72.5 569,-72.5 569,-42.5 249,-42.5"/>
<text text-anchor="start" x="256" y="-53.9" font-family="Arial" font-size="14.00" fill="#000000">guardian    </text>
<text text-anchor="start" x="344.6676" y="-53.9" font-family="Arial" font-size="14.00" fill="#666666">[text]</text>
</g>
<!-- acq.lineitem_usr_attr_definition&#45;&gt;actor.usr -->
<g id="edge1" class="edge">
<title>acq.lineitem_usr_attr_definition:usr&#45;&gt;actor.usr:id</title>
<path fill="none" stroke="#000000" d="M409.7597,-1662.2119C419.9221,-1598.6198 529.2527,-1655.853 569,-1591 590.7148,-1555.5694 610.5556,-1497.5 569,-1497.5"/>
<polygon fill="#000000" stroke="#000000" points="409.7365,-1662.5272 404.5122,-1672.1686 409.3683,-1667.5136 409,-1672.5 409,-1672.5 409,-1672.5 409.3683,-1667.5136 413.4878,-1672.8314 409.7365,-1662.5272 409.7365,-1662.5272"/>
<text text-anchor="start" x="7.4995" y="-1682.5" font-family="Arial" font-size="10.00" fill="#000000">FOREIGN KEY (usr) REFERENCES actor.usr(id) DEFERRABLE INITIALLY DEFERRED</text>
</g>
</g>
</svg>
