<?xml version="1.0" encoding="UTF-8" standalone="no"?>
<!DOCTYPE svg PUBLIC "-//W3C//DTD SVG 1.1//EN"
 "http://www.w3.org/Graphics/SVG/1.1/DTD/svg11.dtd">
<!-- Generated by graphviz version 2.40.1 (20161225.0304)
 -->
<!-- Title: acq.provider_holding_subfield_map Pages: 1 -->
<svg width="927pt" height="922pt"
 viewBox="0.00 0.00 926.50 922.00" xmlns="http://www.w3.org/2000/svg" xmlns:xlink="http://www.w3.org/1999/xlink">
<g id="graph0" class="graph" transform="scale(1 1) rotate(0) translate(4 918)">
<title>acq.provider_holding_subfield_map</title>
<polygon fill="#ffffff" stroke="transparent" points="-4,4 -4,-918 922.5,-918 922.5,4 -4,4"/>
<!-- acq.provider_holding_subfield_map -->
<g id="node1" class="node">
<title>acq.provider_holding_subfield_map</title>
<polygon fill="#efefef" stroke="transparent" points="46.5,-832.5 46.5,-867.5 471.5,-867.5 471.5,-832.5 46.5,-832.5"/>
<polygon fill="none" stroke="#000000" points="46.5,-832.5 46.5,-867.5 471.5,-867.5 471.5,-832.5 46.5,-832.5"/>
<text text-anchor="start" x="53.178" y="-845.3" font-family="Arial Bold" font-size="18.00" fill="#000000">acq.provider_holding_subfield_map</text>
<text text-anchor="start" x="337.254" y="-845.3" font-family="Arial" font-size="14.00" fill="#000000">    </text>
<text text-anchor="start" x="371.4588" y="-845.3" font-family="Arial" font-size="14.00" fill="#666666">[BASE TABLE]</text>
<polygon fill="none" stroke="#000000" points="46.5,-802.5 46.5,-832.5 471.5,-832.5 471.5,-802.5 46.5,-802.5"/>
<text text-anchor="start" x="53.5" y="-813.9" font-family="Arial" font-size="14.00" fill="#000000">id </text>
<text text-anchor="start" x="68.2798" y="-813.9" font-family="Arial" font-size="14.00" fill="#666666">[integer]</text>
<polygon fill="none" stroke="#000000" points="46.5,-772.5 46.5,-802.5 471.5,-802.5 471.5,-772.5 46.5,-772.5"/>
<text text-anchor="start" x="53.5" y="-783.9" font-family="Arial" font-size="14.00" fill="#000000">provider </text>
<text text-anchor="start" x="107.9488" y="-783.9" font-family="Arial" font-size="14.00" fill="#666666">[integer]</text>
<polygon fill="none" stroke="#000000" points="46.5,-742.5 46.5,-772.5 471.5,-772.5 471.5,-742.5 46.5,-742.5"/>
<text text-anchor="start" x="53.5" y="-753.9" font-family="Arial" font-size="14.00" fill="#000000">name </text>
<text text-anchor="start" x="92.399" y="-753.9" font-family="Arial" font-size="14.00" fill="#666666">[text]</text>
<polygon fill="none" stroke="#000000" points="46.5,-712.5 46.5,-742.5 471.5,-742.5 471.5,-712.5 46.5,-712.5"/>
<text text-anchor="start" x="53.5" y="-723.9" font-family="Arial" font-size="14.00" fill="#000000">subfield </text>
<text text-anchor="start" x="105.6248" y="-723.9" font-family="Arial" font-size="14.00" fill="#666666">[text]</text>
<polygon fill="none" stroke="#000000" stroke-width="3" points="44.5,-711.5 44.5,-869.5 472.5,-869.5 472.5,-711.5 44.5,-711.5"/>
</g>
<!-- acq.provider -->
<g id="node2" class="node">
<title>acq.provider</title>
<polygon fill="#efefef" stroke="transparent" points="139.5,-552.5 139.5,-587.5 379.5,-587.5 379.5,-552.5 139.5,-552.5"/>
<polygon fill="none" stroke="#000000" points="139.5,-552.5 139.5,-587.5 379.5,-587.5 379.5,-552.5 139.5,-552.5"/>
<text text-anchor="start" x="146.207" y="-565.3" font-family="Arial Bold" font-size="18.00" fill="#000000">acq.provider</text>
<text text-anchor="start" x="245.225" y="-565.3" font-family="Arial" font-size="14.00" fill="#000000">    </text>
<text text-anchor="start" x="279.4298" y="-565.3" font-family="Arial" font-size="14.00" fill="#666666">[BASE TABLE]</text>
<polygon fill="none" stroke="#000000" points="139.5,-522.5 139.5,-552.5 379.5,-552.5 379.5,-522.5 139.5,-522.5"/>
<text text-anchor="start" x="146.5" y="-533.9" font-family="Arial" font-size="14.00" fill="#000000">id    </text>
<text text-anchor="start" x="191.594" y="-533.9" font-family="Arial" font-size="14.00" fill="#666666">[integer]</text>
<polygon fill="none" stroke="#000000" points="139.5,-492.5 139.5,-522.5 379.5,-522.5 379.5,-492.5 139.5,-492.5"/>
<text text-anchor="start" x="146.5" y="-503.9" font-family="Arial" font-size="14.00" fill="#000000">name    </text>
<text text-anchor="start" x="215.7132" y="-503.9" font-family="Arial" font-size="14.00" fill="#666666">[text]</text>
<polygon fill="none" stroke="#000000" points="139.5,-462.5 139.5,-492.5 379.5,-492.5 379.5,-462.5 139.5,-462.5"/>
<text text-anchor="start" x="146.5" y="-473.9" font-family="Arial" font-size="14.00" fill="#000000">owner    </text>
<text text-anchor="start" x="218.8198" y="-473.9" font-family="Arial" font-size="14.00" fill="#666666">[integer]</text>
<polygon fill="none" stroke="#000000" points="139.5,-432.5 139.5,-462.5 379.5,-462.5 379.5,-432.5 139.5,-432.5"/>
<text text-anchor="start" x="146.5" y="-443.9" font-family="Arial" font-size="14.00" fill="#000000">currency_type    </text>
<text text-anchor="start" x="268.6122" y="-443.9" font-family="Arial" font-size="14.00" fill="#666666">[text]</text>
<polygon fill="none" stroke="#000000" points="139.5,-402.5 139.5,-432.5 379.5,-432.5 379.5,-402.5 139.5,-402.5"/>
<text text-anchor="start" x="146.5" y="-413.9" font-family="Arial" font-size="14.00" fill="#000000">code    </text>
<text text-anchor="start" x="211.0526" y="-413.9" font-family="Arial" font-size="14.00" fill="#666666">[text]</text>
<polygon fill="none" stroke="#000000" points="139.5,-372.5 139.5,-402.5 379.5,-402.5 379.5,-372.5 139.5,-372.5"/>
<text text-anchor="start" x="146.5" y="-383.9" font-family="Arial" font-size="14.00" fill="#000000">holding_tag    </text>
<text text-anchor="start" x="253.0694" y="-383.9" font-family="Arial" font-size="14.00" fill="#666666">[text]</text>
<polygon fill="none" stroke="#000000" points="139.5,-342.5 139.5,-372.5 379.5,-372.5 379.5,-342.5 139.5,-342.5"/>
<text text-anchor="start" x="146.5" y="-353.9" font-family="Arial" font-size="14.00" fill="#000000">san    </text>
<text text-anchor="start" x="203.27" y="-353.9" font-family="Arial" font-size="14.00" fill="#666666">[text]</text>
<polygon fill="none" stroke="#000000" points="139.5,-312.5 139.5,-342.5 379.5,-342.5 379.5,-312.5 139.5,-312.5"/>
<text text-anchor="start" x="146.5" y="-323.9" font-family="Arial" font-size="14.00" fill="#000000">edi_default    </text>
<text text-anchor="start" x="249.1774" y="-323.9" font-family="Arial" font-size="14.00" fill="#666666">[integer]</text>
<polygon fill="none" stroke="#000000" points="139.5,-282.5 139.5,-312.5 379.5,-312.5 379.5,-282.5 139.5,-282.5"/>
<text text-anchor="start" x="146.5" y="-293.9" font-family="Arial" font-size="14.00" fill="#000000">active    </text>
<text text-anchor="start" x="217.2672" y="-293.9" font-family="Arial" font-size="14.00" fill="#666666">[boolean]</text>
<polygon fill="none" stroke="#000000" points="139.5,-252.5 139.5,-282.5 379.5,-282.5 379.5,-252.5 139.5,-252.5"/>
<text text-anchor="start" x="146.5" y="-263.9" font-family="Arial" font-size="14.00" fill="#000000">prepayment_required    </text>
<text text-anchor="start" x="313.7356" y="-263.9" font-family="Arial" font-size="14.00" fill="#666666">[boolean]</text>
<polygon fill="none" stroke="#000000" points="139.5,-222.5 139.5,-252.5 379.5,-252.5 379.5,-222.5 139.5,-222.5"/>
<text text-anchor="start" x="146.5" y="-233.9" font-family="Arial" font-size="14.00" fill="#000000">url    </text>
<text text-anchor="start" x="196.2546" y="-233.9" font-family="Arial" font-size="14.00" fill="#666666">[text]</text>
<polygon fill="none" stroke="#000000" points="139.5,-192.5 139.5,-222.5 379.5,-222.5 379.5,-192.5 139.5,-192.5"/>
<text text-anchor="start" x="146.5" y="-203.9" font-family="Arial" font-size="14.00" fill="#000000">email    </text>
<text text-anchor="start" x="214.1438" y="-203.9" font-family="Arial" font-size="14.00" fill="#666666">[text]</text>
<polygon fill="none" stroke="#000000" points="139.5,-162.5 139.5,-192.5 379.5,-192.5 379.5,-162.5 139.5,-162.5"/>
<text text-anchor="start" x="146.5" y="-173.9" font-family="Arial" font-size="14.00" fill="#000000">phone    </text>
<text text-anchor="start" x="219.6178" y="-173.9" font-family="Arial" font-size="14.00" fill="#666666">[text]</text>
<polygon fill="none" stroke="#000000" points="139.5,-132.5 139.5,-162.5 379.5,-162.5 379.5,-132.5 139.5,-132.5"/>
<text text-anchor="start" x="146.5" y="-143.9" font-family="Arial" font-size="14.00" fill="#000000">fax_phone    </text>
<text text-anchor="start" x="246.0736" y="-143.9" font-family="Arial" font-size="14.00" fill="#666666">[text]</text>
<polygon fill="none" stroke="#000000" points="139.5,-102.5 139.5,-132.5 379.5,-132.5 379.5,-102.5 139.5,-102.5"/>
<text text-anchor="start" x="146.5" y="-113.9" font-family="Arial" font-size="14.00" fill="#000000">default_copy_count    </text>
<text text-anchor="start" x="302.0918" y="-113.9" font-family="Arial" font-size="14.00" fill="#666666">[integer]</text>
<polygon fill="none" stroke="#000000" points="139.5,-72.5 139.5,-102.5 379.5,-102.5 379.5,-72.5 139.5,-72.5"/>
<text text-anchor="start" x="146.5" y="-83.9" font-family="Arial" font-size="14.00" fill="#000000">default_claim_policy    </text>
<text text-anchor="start" x="306.723" y="-83.9" font-family="Arial" font-size="14.00" fill="#666666">[integer]</text>
<polygon fill="none" stroke="#000000" points="139.5,-42.5 139.5,-72.5 379.5,-72.5 379.5,-42.5 139.5,-42.5"/>
<text text-anchor="start" x="146.5" y="-53.9" font-family="Arial" font-size="14.00" fill="#000000">primary_contact    </text>
<text text-anchor="start" x="280.27" y="-53.9" font-family="Arial" font-size="14.00" fill="#666666">[integer]</text>
</g>
<!-- acq.provider_holding_subfield_map&#45;&gt;acq.provider -->
<g id="edge1" class="edge">
<title>acq.provider_holding_subfield_map:provider&#45;&gt;acq.provider:id</title>
<path fill="none" stroke="#000000" d="M481.5,-786.4083C522.5399,-776.6654 504.8249,-704.1338 471.5,-667 421.9345,-611.7694 189.0655,-686.2306 139.5,-631 111.7448,-600.0725 97.9444,-537.5 139.5,-537.5"/>
<polygon fill="#000000" stroke="#000000" points="481.4409,-786.4146 471.0116,-783.0266 476.4705,-786.9573 471.5,-787.5 471.5,-787.5 471.5,-787.5 476.4705,-786.9573 471.9884,-791.9734 481.4409,-786.4146 481.4409,-786.4146"/>
<text text-anchor="start" x="478.8285" y="-797.5" font-family="Arial" font-size="10.00" fill="#000000">FOREIGN KEY (provider) REFERENCES acq.provider(id) DEFERRABLE INITIALLY DEFERRED</text>
</g>
</g>
</svg>
