<?xml version="1.0" encoding="UTF-8" standalone="no"?>
<!DOCTYPE svg PUBLIC "-//W3C//DTD SVG 1.1//EN"
 "http://www.w3.org/Graphics/SVG/1.1/DTD/svg11.dtd">
<!-- Generated by graphviz version 2.40.1 (20161225.0304)
 -->
<!-- Title: acq.exchange_rate Pages: 1 -->
<svg width="863pt" height="472pt"
 viewBox="0.00 0.00 863.00 472.00" xmlns="http://www.w3.org/2000/svg" xmlns:xlink="http://www.w3.org/1999/xlink">
<g id="graph0" class="graph" transform="scale(1 1) rotate(0) translate(4 468)">
<title>acq.exchange_rate</title>
<polygon fill="#ffffff" stroke="transparent" points="-4,4 -4,-468 859,-468 859,4 -4,4"/>
<!-- acq.exchange_rate -->
<g id="node1" class="node">
<title>acq.exchange_rate</title>
<polygon fill="#efefef" stroke="transparent" points="46,-382.5 46,-417.5 340,-417.5 340,-382.5 46,-382.5"/>
<polygon fill="none" stroke="#000000" points="46,-382.5 46,-417.5 340,-417.5 340,-382.5 46,-382.5"/>
<text text-anchor="start" x="52.6836" y="-395.3" font-family="Arial Bold" font-size="18.00" fill="#000000">acq.exchange_rate</text>
<text text-anchor="start" x="205.7484" y="-395.3" font-family="Arial" font-size="14.00" fill="#000000">    </text>
<text text-anchor="start" x="239.9532" y="-395.3" font-family="Arial" font-size="14.00" fill="#666666">[BASE TABLE]</text>
<polygon fill="none" stroke="#000000" points="46,-352.5 46,-382.5 340,-382.5 340,-352.5 46,-352.5"/>
<text text-anchor="start" x="53" y="-363.9" font-family="Arial" font-size="14.00" fill="#000000">id </text>
<text text-anchor="start" x="67.7798" y="-363.9" font-family="Arial" font-size="14.00" fill="#666666">[integer]</text>
<polygon fill="none" stroke="#000000" points="46,-322.5 46,-352.5 340,-352.5 340,-322.5 46,-322.5"/>
<text text-anchor="start" x="53" y="-333.9" font-family="Arial" font-size="14.00" fill="#000000">from_currency </text>
<text text-anchor="start" x="146.3366" y="-333.9" font-family="Arial" font-size="14.00" fill="#666666">[text]</text>
<polygon fill="none" stroke="#000000" points="46,-292.5 46,-322.5 340,-322.5 340,-292.5 46,-292.5"/>
<text text-anchor="start" x="53" y="-303.9" font-family="Arial" font-size="14.00" fill="#000000">to_currency </text>
<text text-anchor="start" x="130.0154" y="-303.9" font-family="Arial" font-size="14.00" fill="#666666">[text]</text>
<polygon fill="none" stroke="#000000" points="46,-262.5 46,-292.5 340,-292.5 340,-262.5 46,-262.5"/>
<text text-anchor="start" x="53" y="-273.9" font-family="Arial" font-size="14.00" fill="#000000">ratio </text>
<text text-anchor="start" x="84.1136" y="-273.9" font-family="Arial" font-size="14.00" fill="#666666">[numeric]</text>
<polygon fill="none" stroke="#000000" stroke-width="3" points="44.5,-261.5 44.5,-419.5 341.5,-419.5 341.5,-261.5 44.5,-261.5"/>
</g>
<!-- acq.currency_type -->
<g id="node2" class="node">
<title>acq.currency_type</title>
<polygon fill="#efefef" stroke="transparent" points="49,-102.5 49,-137.5 337,-137.5 337,-102.5 49,-102.5"/>
<polygon fill="none" stroke="#000000" points="49,-102.5 49,-137.5 337,-137.5 337,-102.5 49,-102.5"/>
<text text-anchor="start" x="55.6968" y="-115.3" font-family="Arial Bold" font-size="18.00" fill="#000000">acq.currency_type</text>
<text text-anchor="start" x="202.7352" y="-115.3" font-family="Arial" font-size="14.00" fill="#000000">    </text>
<text text-anchor="start" x="236.94" y="-115.3" font-family="Arial" font-size="14.00" fill="#666666">[BASE TABLE]</text>
<polygon fill="none" stroke="#000000" points="49,-72.5 49,-102.5 337,-102.5 337,-72.5 49,-72.5"/>
<text text-anchor="start" x="56" y="-83.9" font-family="Arial" font-size="14.00" fill="#000000">code    </text>
<text text-anchor="start" x="120.5526" y="-83.9" font-family="Arial" font-size="14.00" fill="#666666">[text]</text>
<polygon fill="none" stroke="#000000" points="49,-42.5 49,-72.5 337,-72.5 337,-42.5 49,-42.5"/>
<text text-anchor="start" x="56" y="-53.9" font-family="Arial" font-size="14.00" fill="#000000">label    </text>
<text text-anchor="start" x="119.7658" y="-53.9" font-family="Arial" font-size="14.00" fill="#666666">[text]</text>
</g>
<!-- acq.exchange_rate&#45;&gt;acq.currency_type -->
<g id="edge1" class="edge">
<title>acq.exchange_rate:from_currency&#45;&gt;acq.currency_type:code</title>
<path fill="none" stroke="#000000" d="M349.7326,-334.6924C394.9792,-307.2266 389.0871,-87.5 337,-87.5"/>
<polygon fill="#000000" stroke="#000000" points="349.6082,-334.7282 338.7527,-333.1763 344.8041,-336.1141 340,-337.5 340,-337.5 340,-337.5 344.8041,-336.1141 341.2473,-341.8237 349.6082,-334.7282 349.6082,-334.7282"/>
<text text-anchor="start" x="347.1515" y="-347.5" font-family="Arial" font-size="10.00" fill="#000000">FOREIGN KEY (from_currency) REFERENCES acq.currency_type(code) DEFERRABLE INITIALLY DEFERRED</text>
</g>
<!-- acq.exchange_rate&#45;&gt;acq.currency_type -->
<g id="edge2" class="edge">
<title>acq.exchange_rate:to_currency&#45;&gt;acq.currency_type:code</title>
<path fill="none" stroke="#000000" d="M350.2055,-306.6591C437.4463,-291.8888 431.2536,-87.5 337,-87.5"/>
<polygon fill="#000000" stroke="#000000" points="349.9662,-306.6787 339.6304,-303.0152 344.9831,-307.0893 340,-307.5 340,-307.5 340,-307.5 344.9831,-307.0893 340.3696,-311.9848 349.9662,-306.6787 349.9662,-306.6787"/>
<text text-anchor="start" x="346.9805" y="-317.5" font-family="Arial" font-size="10.00" fill="#000000">FOREIGN KEY (to_currency) REFERENCES acq.currency_type(code) DEFERRABLE INITIALLY DEFERRED</text>
</g>
</g>
</svg>
