<?xml version="1.0" encoding="UTF-8" standalone="no"?>
<!DOCTYPE svg PUBLIC "-//W3C//DTD SVG 1.1//EN"
 "http://www.w3.org/Graphics/SVG/1.1/DTD/svg11.dtd">
<!-- Generated by graphviz version 2.40.1 (20161225.0304)
 -->
<!-- Title: acq.distribution_formula_application Pages: 1 -->
<svg width="1416pt" height="1912pt"
 viewBox="0.00 0.00 1416.00 1912.00" xmlns="http://www.w3.org/2000/svg" xmlns:xlink="http://www.w3.org/1999/xlink">
<g id="graph0" class="graph" transform="scale(1 1) rotate(0) translate(4 1908)">
<title>acq.distribution_formula_application</title>
<polygon fill="#ffffff" stroke="transparent" points="-4,4 -4,-1908 1412,-1908 1412,4 -4,4"/>
<!-- acq.distribution_formula_application -->
<g id="node1" class="node">
<title>acq.distribution_formula_application</title>
<polygon fill="#efefef" stroke="transparent" points="426,-1822.5 426,-1857.5 854,-1857.5 854,-1822.5 426,-1822.5"/>
<polygon fill="none" stroke="#000000" points="426,-1822.5 426,-1857.5 854,-1857.5 854,-1822.5 426,-1822.5"/>
<text text-anchor="start" x="432.6867" y="-1835.3" font-family="Arial Bold" font-size="18.00" fill="#000000">acq.distribution_formula_application</text>
<text text-anchor="start" x="719.7453" y="-1835.3" font-family="Arial" font-size="14.00" fill="#000000">    </text>
<text text-anchor="start" x="753.9501" y="-1835.3" font-family="Arial" font-size="14.00" fill="#666666">[BASE TABLE]</text>
<polygon fill="none" stroke="#000000" points="426,-1792.5 426,-1822.5 854,-1822.5 854,-1792.5 426,-1792.5"/>
<text text-anchor="start" x="433" y="-1803.9" font-family="Arial" font-size="14.00" fill="#000000">id </text>
<text text-anchor="start" x="447.7798" y="-1803.9" font-family="Arial" font-size="14.00" fill="#666666">[bigint]</text>
<polygon fill="none" stroke="#000000" points="426,-1762.5 426,-1792.5 854,-1792.5 854,-1762.5 426,-1762.5"/>
<text text-anchor="start" x="433" y="-1773.9" font-family="Arial" font-size="14.00" fill="#000000">creator </text>
<text text-anchor="start" x="480.4502" y="-1773.9" font-family="Arial" font-size="14.00" fill="#666666">[integer]</text>
<polygon fill="none" stroke="#000000" points="426,-1732.5 426,-1762.5 854,-1762.5 854,-1732.5 426,-1732.5"/>
<text text-anchor="start" x="433" y="-1743.9" font-family="Arial" font-size="14.00" fill="#000000">create_time </text>
<text text-anchor="start" x="510.0126" y="-1743.9" font-family="Arial" font-size="14.00" fill="#666666">[timestamp with time zone]</text>
<polygon fill="none" stroke="#000000" points="426,-1702.5 426,-1732.5 854,-1732.5 854,-1702.5 426,-1702.5"/>
<text text-anchor="start" x="433" y="-1713.9" font-family="Arial" font-size="14.00" fill="#000000">formula </text>
<text text-anchor="start" x="483.5568" y="-1713.9" font-family="Arial" font-size="14.00" fill="#666666">[integer]</text>
<polygon fill="none" stroke="#000000" points="426,-1672.5 426,-1702.5 854,-1702.5 854,-1672.5 426,-1672.5"/>
<text text-anchor="start" x="433" y="-1683.9" font-family="Arial" font-size="14.00" fill="#000000">lineitem </text>
<text text-anchor="start" x="485.1094" y="-1683.9" font-family="Arial" font-size="14.00" fill="#666666">[integer]</text>
<polygon fill="none" stroke="#000000" stroke-width="3" points="424.5,-1671.5 424.5,-1859.5 855.5,-1859.5 855.5,-1671.5 424.5,-1671.5"/>
</g>
<!-- actor.usr -->
<g id="node2" class="node">
<title>actor.usr</title>
<polygon fill="#efefef" stroke="transparent" points="50,-1512.5 50,-1547.5 370,-1547.5 370,-1512.5 50,-1512.5"/>
<polygon fill="none" stroke="#000000" points="50,-1512.5 50,-1547.5 370,-1547.5 370,-1512.5 50,-1512.5"/>
<text text-anchor="start" x="111.2123" y="-1525.3" font-family="Arial Bold" font-size="18.00" fill="#000000">actor.usr</text>
<text text-anchor="start" x="181.2197" y="-1525.3" font-family="Arial" font-size="14.00" fill="#000000">    </text>
<text text-anchor="start" x="215.4245" y="-1525.3" font-family="Arial" font-size="14.00" fill="#666666">[BASE TABLE]</text>
<polygon fill="none" stroke="#000000" points="50,-1482.5 50,-1512.5 370,-1512.5 370,-1482.5 50,-1482.5"/>
<text text-anchor="start" x="57" y="-1493.9" font-family="Arial" font-size="14.00" fill="#000000">id    </text>
<text text-anchor="start" x="102.094" y="-1493.9" font-family="Arial" font-size="14.00" fill="#666666">[integer]</text>
<polygon fill="none" stroke="#000000" points="50,-1452.5 50,-1482.5 370,-1482.5 370,-1452.5 50,-1452.5"/>
<text text-anchor="start" x="57" y="-1463.9" font-family="Arial" font-size="14.00" fill="#000000">card    </text>
<text text-anchor="start" x="118.4306" y="-1463.9" font-family="Arial" font-size="14.00" fill="#666666">[integer]</text>
<polygon fill="none" stroke="#000000" points="50,-1422.5 50,-1452.5 370,-1452.5 370,-1422.5 50,-1422.5"/>
<text text-anchor="start" x="57" y="-1433.9" font-family="Arial" font-size="14.00" fill="#000000">profile    </text>
<text text-anchor="start" x="129.317" y="-1433.9" font-family="Arial" font-size="14.00" fill="#666666">[integer]</text>
<polygon fill="none" stroke="#000000" points="50,-1392.5 50,-1422.5 370,-1422.5 370,-1392.5 50,-1392.5"/>
<text text-anchor="start" x="57" y="-1403.9" font-family="Arial" font-size="14.00" fill="#000000">usrname    </text>
<text text-anchor="start" x="145.6564" y="-1403.9" font-family="Arial" font-size="14.00" fill="#666666">[text]</text>
<polygon fill="none" stroke="#000000" points="50,-1362.5 50,-1392.5 370,-1392.5 370,-1362.5 50,-1362.5"/>
<text text-anchor="start" x="57" y="-1373.9" font-family="Arial" font-size="14.00" fill="#000000">email    </text>
<text text-anchor="start" x="124.6438" y="-1373.9" font-family="Arial" font-size="14.00" fill="#666666">[text]</text>
<polygon fill="none" stroke="#000000" points="50,-1332.5 50,-1362.5 370,-1362.5 370,-1332.5 50,-1332.5"/>
<text text-anchor="start" x="57" y="-1343.9" font-family="Arial" font-size="14.00" fill="#000000">passwd    </text>
<text text-anchor="start" x="138.6592" y="-1343.9" font-family="Arial" font-size="14.00" fill="#666666">[text]</text>
<polygon fill="none" stroke="#000000" points="50,-1302.5 50,-1332.5 370,-1332.5 370,-1302.5 50,-1302.5"/>
<text text-anchor="start" x="57" y="-1313.9" font-family="Arial" font-size="14.00" fill="#000000">standing    </text>
<text text-anchor="start" x="144.115" y="-1313.9" font-family="Arial" font-size="14.00" fill="#666666">[integer]</text>
<polygon fill="none" stroke="#000000" points="50,-1272.5 50,-1302.5 370,-1302.5 370,-1272.5 50,-1272.5"/>
<text text-anchor="start" x="57" y="-1283.9" font-family="Arial" font-size="14.00" fill="#000000">ident_type    </text>
<text text-anchor="start" x="155.7882" y="-1283.9" font-family="Arial" font-size="14.00" fill="#666666">[integer]</text>
<polygon fill="none" stroke="#000000" points="50,-1242.5 50,-1272.5 370,-1272.5 370,-1242.5 50,-1242.5"/>
<text text-anchor="start" x="57" y="-1253.9" font-family="Arial" font-size="14.00" fill="#000000">ident_value    </text>
<text text-anchor="start" x="162.7868" y="-1253.9" font-family="Arial" font-size="14.00" fill="#666666">[text]</text>
<polygon fill="none" stroke="#000000" points="50,-1212.5 50,-1242.5 370,-1242.5 370,-1212.5 50,-1212.5"/>
<text text-anchor="start" x="57" y="-1223.9" font-family="Arial" font-size="14.00" fill="#000000">ident_type2    </text>
<text text-anchor="start" x="163.5708" y="-1223.9" font-family="Arial" font-size="14.00" fill="#666666">[integer]</text>
<polygon fill="none" stroke="#000000" points="50,-1182.5 50,-1212.5 370,-1212.5 370,-1182.5 50,-1182.5"/>
<text text-anchor="start" x="57" y="-1193.9" font-family="Arial" font-size="14.00" fill="#000000">ident_value2    </text>
<text text-anchor="start" x="170.5694" y="-1193.9" font-family="Arial" font-size="14.00" fill="#666666">[text]</text>
<polygon fill="none" stroke="#000000" points="50,-1152.5 50,-1182.5 370,-1182.5 370,-1152.5 50,-1152.5"/>
<text text-anchor="start" x="57" y="-1163.9" font-family="Arial" font-size="14.00" fill="#000000">net_access_level    </text>
<text text-anchor="start" x="198.5694" y="-1163.9" font-family="Arial" font-size="14.00" fill="#666666">[integer]</text>
<polygon fill="none" stroke="#000000" points="50,-1122.5 50,-1152.5 370,-1152.5 370,-1122.5 50,-1122.5"/>
<text text-anchor="start" x="57" y="-1133.9" font-family="Arial" font-size="14.00" fill="#000000">photo_url    </text>
<text text-anchor="start" x="149.5582" y="-1133.9" font-family="Arial" font-size="14.00" fill="#666666">[text]</text>
<polygon fill="none" stroke="#000000" points="50,-1092.5 50,-1122.5 370,-1122.5 370,-1092.5 50,-1092.5"/>
<text text-anchor="start" x="57" y="-1103.9" font-family="Arial" font-size="14.00" fill="#000000">prefix    </text>
<text text-anchor="start" x="125.4278" y="-1103.9" font-family="Arial" font-size="14.00" fill="#666666">[text]</text>
<polygon fill="none" stroke="#000000" points="50,-1062.5 50,-1092.5 370,-1092.5 370,-1062.5 50,-1062.5"/>
<text text-anchor="start" x="57" y="-1073.9" font-family="Arial" font-size="14.00" fill="#000000">first_given_name    </text>
<text text-anchor="start" x="197.7812" y="-1073.9" font-family="Arial" font-size="14.00" fill="#666666">[text]</text>
<polygon fill="none" stroke="#000000" points="50,-1032.5 50,-1062.5 370,-1062.5 370,-1032.5 50,-1032.5"/>
<text text-anchor="start" x="57" y="-1043.9" font-family="Arial" font-size="14.00" fill="#000000">second_given_name    </text>
<text text-anchor="start" x="220.3632" y="-1043.9" font-family="Arial" font-size="14.00" fill="#666666">[text]</text>
<polygon fill="none" stroke="#000000" points="50,-1002.5 50,-1032.5 370,-1032.5 370,-1002.5 50,-1002.5"/>
<text text-anchor="start" x="57" y="-1013.9" font-family="Arial" font-size="14.00" fill="#000000">family_name    </text>
<text text-anchor="start" x="170.5428" y="-1013.9" font-family="Arial" font-size="14.00" fill="#666666">[text]</text>
<polygon fill="none" stroke="#000000" points="50,-972.5 50,-1002.5 370,-1002.5 370,-972.5 50,-972.5"/>
<text text-anchor="start" x="57" y="-983.9" font-family="Arial" font-size="14.00" fill="#000000">suffix    </text>
<text text-anchor="start" x="123.8752" y="-983.9" font-family="Arial" font-size="14.00" fill="#666666">[text]</text>
<polygon fill="none" stroke="#000000" points="50,-942.5 50,-972.5 370,-972.5 370,-942.5 50,-942.5"/>
<text text-anchor="start" x="57" y="-953.9" font-family="Arial" font-size="14.00" fill="#000000">alias    </text>
<text text-anchor="start" x="119.9832" y="-953.9" font-family="Arial" font-size="14.00" fill="#666666">[text]</text>
<polygon fill="none" stroke="#000000" points="50,-912.5 50,-942.5 370,-942.5 370,-912.5 50,-912.5"/>
<text text-anchor="start" x="57" y="-923.9" font-family="Arial" font-size="14.00" fill="#000000">day_phone    </text>
<text text-anchor="start" x="160.4656" y="-923.9" font-family="Arial" font-size="14.00" fill="#666666">[text]</text>
<polygon fill="none" stroke="#000000" points="50,-882.5 50,-912.5 370,-912.5 370,-882.5 50,-882.5"/>
<text text-anchor="start" x="57" y="-893.9" font-family="Arial" font-size="14.00" fill="#000000">evening_phone    </text>
<text text-anchor="start" x="186.92" y="-893.9" font-family="Arial" font-size="14.00" fill="#666666">[text]</text>
<polygon fill="none" stroke="#000000" points="50,-852.5 50,-882.5 370,-882.5 370,-852.5 50,-852.5"/>
<text text-anchor="start" x="57" y="-863.9" font-family="Arial" font-size="14.00" fill="#000000">other_phone    </text>
<text text-anchor="start" x="169.7994" y="-863.9" font-family="Arial" font-size="14.00" fill="#666666">[text]</text>
<polygon fill="none" stroke="#000000" points="50,-822.5 50,-852.5 370,-852.5 370,-822.5 50,-822.5"/>
<text text-anchor="start" x="57" y="-833.9" font-family="Arial" font-size="14.00" fill="#000000">mailing_address    </text>
<text text-anchor="start" x="193.1066" y="-833.9" font-family="Arial" font-size="14.00" fill="#666666">[integer]</text>
<polygon fill="none" stroke="#000000" points="50,-792.5 50,-822.5 370,-822.5 370,-792.5 50,-792.5"/>
<text text-anchor="start" x="57" y="-803.9" font-family="Arial" font-size="14.00" fill="#000000">billing_address    </text>
<text text-anchor="start" x="184.5526" y="-803.9" font-family="Arial" font-size="14.00" fill="#666666">[integer]</text>
<polygon fill="none" stroke="#000000" points="50,-762.5 50,-792.5 370,-792.5 370,-762.5 50,-762.5"/>
<text text-anchor="start" x="57" y="-773.9" font-family="Arial" font-size="14.00" fill="#000000">home_ou    </text>
<text text-anchor="start" x="149.561" y="-773.9" font-family="Arial" font-size="14.00" fill="#666666">[integer]</text>
<polygon fill="none" stroke="#000000" points="50,-732.5 50,-762.5 370,-762.5 370,-732.5 50,-732.5"/>
<text text-anchor="start" x="57" y="-743.9" font-family="Arial" font-size="14.00" fill="#000000">dob    </text>
<text text-anchor="start" x="114.5526" y="-743.9" font-family="Arial" font-size="14.00" fill="#666666">[date]</text>
<polygon fill="none" stroke="#000000" points="50,-702.5 50,-732.5 370,-732.5 370,-702.5 50,-702.5"/>
<text text-anchor="start" x="57" y="-713.9" font-family="Arial" font-size="14.00" fill="#000000">active    </text>
<text text-anchor="start" x="127.7672" y="-713.9" font-family="Arial" font-size="14.00" fill="#666666">[boolean]</text>
<polygon fill="none" stroke="#000000" points="50,-672.5 50,-702.5 370,-702.5 370,-672.5 50,-672.5"/>
<text text-anchor="start" x="57" y="-683.9" font-family="Arial" font-size="14.00" fill="#000000">master_account    </text>
<text text-anchor="start" x="190.7854" y="-683.9" font-family="Arial" font-size="14.00" fill="#666666">[boolean]</text>
<polygon fill="none" stroke="#000000" points="50,-642.5 50,-672.5 370,-672.5 370,-642.5 50,-642.5"/>
<text text-anchor="start" x="57" y="-653.9" font-family="Arial" font-size="14.00" fill="#000000">super_user    </text>
<text text-anchor="start" x="161.2216" y="-653.9" font-family="Arial" font-size="14.00" fill="#666666">[boolean]</text>
<polygon fill="none" stroke="#000000" points="50,-612.5 50,-642.5 370,-642.5 370,-612.5 50,-612.5"/>
<text text-anchor="start" x="57" y="-623.9" font-family="Arial" font-size="14.00" fill="#000000">barred    </text>
<text text-anchor="start" x="131.6564" y="-623.9" font-family="Arial" font-size="14.00" fill="#666666">[boolean]</text>
<polygon fill="none" stroke="#000000" points="50,-582.5 50,-612.5 370,-612.5 370,-582.5 50,-582.5"/>
<text text-anchor="start" x="57" y="-593.9" font-family="Arial" font-size="14.00" fill="#000000">deleted    </text>
<text text-anchor="start" x="137.115" y="-593.9" font-family="Arial" font-size="14.00" fill="#666666">[boolean]</text>
<polygon fill="none" stroke="#000000" points="50,-552.5 50,-582.5 370,-582.5 370,-552.5 50,-552.5"/>
<text text-anchor="start" x="57" y="-563.9" font-family="Arial" font-size="14.00" fill="#000000">juvenile    </text>
<text text-anchor="start" x="138.655" y="-563.9" font-family="Arial" font-size="14.00" fill="#666666">[boolean]</text>
<polygon fill="none" stroke="#000000" points="50,-522.5 50,-552.5 370,-552.5 370,-522.5 50,-522.5"/>
<text text-anchor="start" x="57" y="-533.9" font-family="Arial" font-size="14.00" fill="#000000">usrgroup    </text>
<text text-anchor="start" x="146.439" y="-533.9" font-family="Arial" font-size="14.00" fill="#666666">[integer]</text>
<polygon fill="none" stroke="#000000" points="50,-492.5 50,-522.5 370,-522.5 370,-492.5 50,-492.5"/>
<text text-anchor="start" x="57" y="-503.9" font-family="Arial" font-size="14.00" fill="#000000">claims_returned_count    </text>
<text text-anchor="start" x="232.7896" y="-503.9" font-family="Arial" font-size="14.00" fill="#666666">[integer]</text>
<polygon fill="none" stroke="#000000" points="50,-462.5 50,-492.5 370,-492.5 370,-462.5 50,-462.5"/>
<text text-anchor="start" x="57" y="-473.9" font-family="Arial" font-size="14.00" fill="#000000">credit_forward_balance    </text>
<text text-anchor="start" x="236.6788" y="-473.9" font-family="Arial" font-size="14.00" fill="#666666">[numeric(6,2)]</text>
<polygon fill="none" stroke="#000000" points="50,-432.5 50,-462.5 370,-462.5 370,-432.5 50,-432.5"/>
<text text-anchor="start" x="57" y="-443.9" font-family="Arial" font-size="14.00" fill="#000000">last_xact_id    </text>
<text text-anchor="start" x="165.1122" y="-443.9" font-family="Arial" font-size="14.00" fill="#666666">[text]</text>
<polygon fill="none" stroke="#000000" points="50,-402.5 50,-432.5 370,-432.5 370,-402.5 50,-402.5"/>
<text text-anchor="start" x="57" y="-413.9" font-family="Arial" font-size="14.00" fill="#000000">alert_message    </text>
<text text-anchor="start" x="183.0014" y="-413.9" font-family="Arial" font-size="14.00" fill="#666666">[text]</text>
<polygon fill="none" stroke="#000000" points="50,-372.5 50,-402.5 370,-402.5 370,-372.5 50,-372.5"/>
<text text-anchor="start" x="57" y="-383.9" font-family="Arial" font-size="14.00" fill="#000000">create_date    </text>
<text text-anchor="start" x="165.1248" y="-383.9" font-family="Arial" font-size="14.00" fill="#666666">[timestamp with time zone]</text>
<polygon fill="none" stroke="#000000" points="50,-342.5 50,-372.5 370,-372.5 370,-342.5 50,-342.5"/>
<text text-anchor="start" x="57" y="-353.9" font-family="Arial" font-size="14.00" fill="#000000">expire_date    </text>
<text text-anchor="start" x="164.3408" y="-353.9" font-family="Arial" font-size="14.00" fill="#666666">[timestamp with time zone]</text>
<polygon fill="none" stroke="#000000" points="50,-312.5 50,-342.5 370,-342.5 370,-312.5 50,-312.5"/>
<text text-anchor="start" x="57" y="-323.9" font-family="Arial" font-size="14.00" fill="#000000">claims_never_checked_out_count    </text>
<text text-anchor="start" x="302.8246" y="-323.9" font-family="Arial" font-size="14.00" fill="#666666">[integer]</text>
<polygon fill="none" stroke="#000000" points="50,-282.5 50,-312.5 370,-312.5 370,-282.5 50,-282.5"/>
<text text-anchor="start" x="56.7609" y="-293.9" font-family="Arial" font-size="14.00" fill="#000000">last_update_time    </text>
<text text-anchor="start" x="197.5547" y="-293.9" font-family="Arial" font-size="14.00" fill="#666666">[timestamp with time zone]</text>
<polygon fill="none" stroke="#000000" points="50,-252.5 50,-282.5 370,-282.5 370,-252.5 50,-252.5"/>
<text text-anchor="start" x="57" y="-263.9" font-family="Arial" font-size="14.00" fill="#000000">pref_prefix    </text>
<text text-anchor="start" x="157.3268" y="-263.9" font-family="Arial" font-size="14.00" fill="#666666">[text]</text>
<polygon fill="none" stroke="#000000" points="50,-222.5 50,-252.5 370,-252.5 370,-222.5 50,-222.5"/>
<text text-anchor="start" x="57" y="-233.9" font-family="Arial" font-size="14.00" fill="#000000">pref_first_given_name    </text>
<text text-anchor="start" x="229.6802" y="-233.9" font-family="Arial" font-size="14.00" fill="#666666">[text]</text>
<polygon fill="none" stroke="#000000" points="50,-192.5 50,-222.5 370,-222.5 370,-192.5 50,-192.5"/>
<text text-anchor="start" x="57" y="-203.9" font-family="Arial" font-size="14.00" fill="#000000">pref_second_given_name    </text>
<text text-anchor="start" x="252.2622" y="-203.9" font-family="Arial" font-size="14.00" fill="#666666">[text]</text>
<polygon fill="none" stroke="#000000" points="50,-162.5 50,-192.5 370,-192.5 370,-162.5 50,-162.5"/>
<text text-anchor="start" x="57" y="-173.9" font-family="Arial" font-size="14.00" fill="#000000">pref_family_name    </text>
<text text-anchor="start" x="202.4418" y="-173.9" font-family="Arial" font-size="14.00" fill="#666666">[text]</text>
<polygon fill="none" stroke="#000000" points="50,-132.5 50,-162.5 370,-162.5 370,-132.5 50,-132.5"/>
<text text-anchor="start" x="57" y="-143.9" font-family="Arial" font-size="14.00" fill="#000000">pref_suffix    </text>
<text text-anchor="start" x="155.7742" y="-143.9" font-family="Arial" font-size="14.00" fill="#666666">[text]</text>
<polygon fill="none" stroke="#000000" points="50,-102.5 50,-132.5 370,-132.5 370,-102.5 50,-102.5"/>
<text text-anchor="start" x="57" y="-113.9" font-family="Arial" font-size="14.00" fill="#000000">name_keywords    </text>
<text text-anchor="start" x="193.1108" y="-113.9" font-family="Arial" font-size="14.00" fill="#666666">[text]</text>
<polygon fill="none" stroke="#000000" points="50,-72.5 50,-102.5 370,-102.5 370,-72.5 50,-72.5"/>
<text text-anchor="start" x="57" y="-83.9" font-family="Arial" font-size="14.00" fill="#000000">name_kw_tsvector    </text>
<text text-anchor="start" x="207.892" y="-83.9" font-family="Arial" font-size="14.00" fill="#666666">[tsvector]</text>
<polygon fill="none" stroke="#000000" points="50,-42.5 50,-72.5 370,-72.5 370,-42.5 50,-42.5"/>
<text text-anchor="start" x="57" y="-53.9" font-family="Arial" font-size="14.00" fill="#000000">guardian    </text>
<text text-anchor="start" x="145.6676" y="-53.9" font-family="Arial" font-size="14.00" fill="#666666">[text]</text>
</g>
<!-- acq.distribution_formula_application&#45;&gt;actor.usr -->
<g id="edge1" class="edge">
<title>acq.distribution_formula_application:creator&#45;&gt;actor.usr:id</title>
<path fill="none" stroke="#000000" d="M415.9843,-1776.839C310.0352,-1761.8652 493.3148,-1497.5 370,-1497.5"/>
<polygon fill="#000000" stroke="#000000" points="416.0217,-1776.8414 425.7036,-1781.9902 421.0109,-1777.1707 426,-1777.5 426,-1777.5 426,-1777.5 421.0109,-1777.1707 426.2964,-1773.0098 416.0217,-1776.8414 416.0217,-1776.8414"/>
<text text-anchor="start" x="6.8865" y="-1787.5" font-family="Arial" font-size="10.00" fill="#000000">FOREIGN KEY (creator) REFERENCES actor.usr(id) DEFERRABLE INITIALLY DEFERRED</text>
</g>
<!-- acq.distribution_formula -->
<g id="node3" class="node">
<title>acq.distribution_formula</title>
<polygon fill="#efefef" stroke="transparent" points="474,-837.5 474,-872.5 806,-872.5 806,-837.5 474,-837.5"/>
<polygon fill="none" stroke="#000000" points="474,-837.5 474,-872.5 806,-872.5 806,-837.5 474,-837.5"/>
<text text-anchor="start" x="480.7008" y="-850.3" font-family="Arial Bold" font-size="18.00" fill="#000000">acq.distribution_formula</text>
<text text-anchor="start" x="671.7312" y="-850.3" font-family="Arial" font-size="14.00" fill="#000000">    </text>
<text text-anchor="start" x="705.936" y="-850.3" font-family="Arial" font-size="14.00" fill="#666666">[BASE TABLE]</text>
<polygon fill="none" stroke="#000000" points="474,-807.5 474,-837.5 806,-837.5 806,-807.5 474,-807.5"/>
<text text-anchor="start" x="481" y="-818.9" font-family="Arial" font-size="14.00" fill="#000000">id    </text>
<text text-anchor="start" x="526.094" y="-818.9" font-family="Arial" font-size="14.00" fill="#666666">[integer]</text>
<polygon fill="none" stroke="#000000" points="474,-777.5 474,-807.5 806,-807.5 806,-777.5 474,-777.5"/>
<text text-anchor="start" x="481" y="-788.9" font-family="Arial" font-size="14.00" fill="#000000">owner    </text>
<text text-anchor="start" x="553.3198" y="-788.9" font-family="Arial" font-size="14.00" fill="#666666">[integer]</text>
<polygon fill="none" stroke="#000000" points="474,-747.5 474,-777.5 806,-777.5 806,-747.5 474,-747.5"/>
<text text-anchor="start" x="481" y="-758.9" font-family="Arial" font-size="14.00" fill="#000000">name    </text>
<text text-anchor="start" x="550.2132" y="-758.9" font-family="Arial" font-size="14.00" fill="#666666">[text]</text>
<polygon fill="none" stroke="#000000" points="474,-717.5 474,-747.5 806,-747.5 806,-717.5 474,-717.5"/>
<text text-anchor="start" x="481" y="-728.9" font-family="Arial" font-size="14.00" fill="#000000">skip_count    </text>
<text text-anchor="start" x="582.115" y="-728.9" font-family="Arial" font-size="14.00" fill="#666666">[integer]</text>
</g>
<!-- acq.distribution_formula_application&#45;&gt;acq.distribution_formula -->
<g id="edge2" class="edge">
<title>acq.distribution_formula_application:formula&#45;&gt;acq.distribution_formula:id</title>
<path fill="none" stroke="#000000" d="M855.6491,-1707.4487C860.5873,-1609.1211 817.6704,-822.5 806,-822.5"/>
<polygon fill="#000000" stroke="#000000" points="855.6192,-1707.6319 849.5594,-1716.7714 854.8096,-1712.566 854,-1717.5 854,-1717.5 854,-1717.5 854.8096,-1712.566 858.4406,-1718.2286 855.6192,-1707.6319 855.6192,-1707.6319"/>
<text text-anchor="start" x="861.1595" y="-1727.5" font-family="Arial" font-size="10.00" fill="#000000">FOREIGN KEY (formula) REFERENCES acq.distribution_formula(id) DEFERRABLE INITIALLY DEFERRED</text>
</g>
<!-- acq.lineitem -->
<g id="node4" class="node">
<title>acq.lineitem</title>
<polygon fill="#efefef" stroke="transparent" points="911,-1047.5 911,-1082.5 1250,-1082.5 1250,-1047.5 911,-1047.5"/>
<polygon fill="none" stroke="#000000" points="911,-1047.5 911,-1082.5 1250,-1082.5 1250,-1047.5 911,-1047.5"/>
<text text-anchor="start" x="968.7109" y="-1060.3" font-family="Arial Bold" font-size="18.00" fill="#000000">acq.lineitem</text>
<text text-anchor="start" x="1064.7211" y="-1060.3" font-family="Arial" font-size="14.00" fill="#000000">    </text>
<text text-anchor="start" x="1098.9259" y="-1060.3" font-family="Arial" font-size="14.00" fill="#666666">[BASE TABLE]</text>
<polygon fill="none" stroke="#000000" points="911,-1017.5 911,-1047.5 1250,-1047.5 1250,-1017.5 911,-1017.5"/>
<text text-anchor="start" x="918" y="-1028.9" font-family="Arial" font-size="14.00" fill="#000000">id    </text>
<text text-anchor="start" x="963.094" y="-1028.9" font-family="Arial" font-size="14.00" fill="#666666">[bigint]</text>
<polygon fill="none" stroke="#000000" points="911,-987.5 911,-1017.5 1250,-1017.5 1250,-987.5 911,-987.5"/>
<text text-anchor="start" x="918" y="-998.9" font-family="Arial" font-size="14.00" fill="#000000">creator    </text>
<text text-anchor="start" x="995.7644" y="-998.9" font-family="Arial" font-size="14.00" fill="#666666">[integer]</text>
<polygon fill="none" stroke="#000000" points="911,-957.5 911,-987.5 1250,-987.5 1250,-957.5 911,-957.5"/>
<text text-anchor="start" x="918" y="-968.9" font-family="Arial" font-size="14.00" fill="#000000">editor    </text>
<text text-anchor="start" x="987.2104" y="-968.9" font-family="Arial" font-size="14.00" fill="#666666">[integer]</text>
<polygon fill="none" stroke="#000000" points="911,-927.5 911,-957.5 1250,-957.5 1250,-927.5 911,-927.5"/>
<text text-anchor="start" x="918" y="-938.9" font-family="Arial" font-size="14.00" fill="#000000">selector    </text>
<text text-anchor="start" x="1001.2104" y="-938.9" font-family="Arial" font-size="14.00" fill="#666666">[integer]</text>
<polygon fill="none" stroke="#000000" points="911,-897.5 911,-927.5 1250,-927.5 1250,-897.5 911,-897.5"/>
<text text-anchor="start" x="918" y="-908.9" font-family="Arial" font-size="14.00" fill="#000000">provider    </text>
<text text-anchor="start" x="1002.763" y="-908.9" font-family="Arial" font-size="14.00" fill="#666666">[integer]</text>
<polygon fill="none" stroke="#000000" points="911,-867.5 911,-897.5 1250,-897.5 1250,-867.5 911,-867.5"/>
<text text-anchor="start" x="918" y="-878.9" font-family="Arial" font-size="14.00" fill="#000000">purchase_order    </text>
<text text-anchor="start" x="1050.23" y="-878.9" font-family="Arial" font-size="14.00" fill="#666666">[integer]</text>
<polygon fill="none" stroke="#000000" points="911,-837.5 911,-867.5 1250,-867.5 1250,-837.5 911,-837.5"/>
<text text-anchor="start" x="918" y="-848.9" font-family="Arial" font-size="14.00" fill="#000000">picklist    </text>
<text text-anchor="start" x="994.1978" y="-848.9" font-family="Arial" font-size="14.00" fill="#666666">[integer]</text>
<polygon fill="none" stroke="#000000" points="911,-807.5 911,-837.5 1250,-837.5 1250,-807.5 911,-807.5"/>
<text text-anchor="start" x="917.9292" y="-818.9" font-family="Arial" font-size="14.00" fill="#000000">expected_recv_time    </text>
<text text-anchor="start" x="1077.3864" y="-818.9" font-family="Arial" font-size="14.00" fill="#666666">[timestamp with time zone]</text>
<polygon fill="none" stroke="#000000" points="911,-777.5 911,-807.5 1250,-807.5 1250,-777.5 911,-777.5"/>
<text text-anchor="start" x="918" y="-788.9" font-family="Arial" font-size="14.00" fill="#000000">create_time    </text>
<text text-anchor="start" x="1025.3268" y="-788.9" font-family="Arial" font-size="14.00" fill="#666666">[timestamp with time zone]</text>
<polygon fill="none" stroke="#000000" points="911,-747.5 911,-777.5 1250,-777.5 1250,-747.5 911,-747.5"/>
<text text-anchor="start" x="918" y="-758.9" font-family="Arial" font-size="14.00" fill="#000000">edit_time    </text>
<text text-anchor="start" x="1008.9902" y="-758.9" font-family="Arial" font-size="14.00" fill="#666666">[timestamp with time zone]</text>
<polygon fill="none" stroke="#000000" points="911,-717.5 911,-747.5 1250,-747.5 1250,-717.5 911,-717.5"/>
<text text-anchor="start" x="918" y="-728.9" font-family="Arial" font-size="14.00" fill="#000000">marc    </text>
<text text-anchor="start" x="983.3086" y="-728.9" font-family="Arial" font-size="14.00" fill="#666666">[text]</text>
<polygon fill="none" stroke="#000000" points="911,-687.5 911,-717.5 1250,-717.5 1250,-687.5 911,-687.5"/>
<text text-anchor="start" x="918" y="-698.9" font-family="Arial" font-size="14.00" fill="#000000">eg_bib_id    </text>
<text text-anchor="start" x="1012.8962" y="-698.9" font-family="Arial" font-size="14.00" fill="#666666">[bigint]</text>
<polygon fill="none" stroke="#000000" points="911,-657.5 911,-687.5 1250,-687.5 1250,-657.5 911,-657.5"/>
<text text-anchor="start" x="918" y="-668.9" font-family="Arial" font-size="14.00" fill="#000000">source_label    </text>
<text text-anchor="start" x="1031.5568" y="-668.9" font-family="Arial" font-size="14.00" fill="#666666">[text]</text>
<polygon fill="none" stroke="#000000" points="911,-627.5 911,-657.5 1250,-657.5 1250,-627.5 911,-627.5"/>
<text text-anchor="start" x="918" y="-638.9" font-family="Arial" font-size="14.00" fill="#000000">state    </text>
<text text-anchor="start" x="982.5512" y="-638.9" font-family="Arial" font-size="14.00" fill="#666666">[text]</text>
<polygon fill="none" stroke="#000000" points="911,-597.5 911,-627.5 1250,-627.5 1250,-597.5 911,-597.5"/>
<text text-anchor="start" x="918" y="-608.9" font-family="Arial" font-size="14.00" fill="#000000">cancel_reason    </text>
<text text-anchor="start" x="1043.2328" y="-608.9" font-family="Arial" font-size="14.00" fill="#666666">[integer]</text>
<polygon fill="none" stroke="#000000" points="911,-567.5 911,-597.5 1250,-597.5 1250,-567.5 911,-567.5"/>
<text text-anchor="start" x="918" y="-578.9" font-family="Arial" font-size="14.00" fill="#000000">estimated_unit_price    </text>
<text text-anchor="start" x="1081.3436" y="-578.9" font-family="Arial" font-size="14.00" fill="#666666">[numeric]</text>
<polygon fill="none" stroke="#000000" points="911,-537.5 911,-567.5 1250,-567.5 1250,-537.5 911,-537.5"/>
<text text-anchor="start" x="918" y="-548.9" font-family="Arial" font-size="14.00" fill="#000000">claim_policy    </text>
<text text-anchor="start" x="1028.4222" y="-548.9" font-family="Arial" font-size="14.00" fill="#666666">[integer]</text>
<polygon fill="none" stroke="#000000" points="911,-507.5 911,-537.5 1250,-537.5 1250,-507.5 911,-507.5"/>
<text text-anchor="start" x="918" y="-518.9" font-family="Arial" font-size="14.00" fill="#000000">queued_record    </text>
<text text-anchor="start" x="1046.352" y="-518.9" font-family="Arial" font-size="14.00" fill="#666666">[bigint]</text>
</g>
<!-- acq.distribution_formula_application&#45;&gt;acq.lineitem -->
<g id="edge3" class="edge">
<title>acq.distribution_formula_application:lineitem&#45;&gt;acq.lineitem:id</title>
<path fill="none" stroke="#000000" d="M864.0303,-1686.3478C988.848,-1655.908 768.4614,-1032.5 911,-1032.5"/>
<polygon fill="#000000" stroke="#000000" points="863.9347,-1686.3587 853.4864,-1683.0294 858.9673,-1686.9294 854,-1687.5 854,-1687.5 854,-1687.5 858.9673,-1686.9294 854.5136,-1691.9706 863.9347,-1686.3587 863.9347,-1686.3587"/>
<text text-anchor="start" x="860.7185" y="-1697.5" font-family="Arial" font-size="10.00" fill="#000000">FOREIGN KEY (lineitem) REFERENCES acq.lineitem(id) ON DELETE CASCADE DEFERRABLE INITIALLY DEFERRED</text>
</g>
</g>
</svg>
