<?xml version="1.0" encoding="UTF-8" standalone="no"?>
<!DOCTYPE svg PUBLIC "-//W3C//DTD SVG 1.1//EN"
 "http://www.w3.org/Graphics/SVG/1.1/DTD/svg11.dtd">
<!-- Generated by graphviz version 2.40.1 (20161225.0304)
 -->
<!-- Title: acq.all_fund_encumbrance_total Pages: 1 -->
<svg width="451pt" height="195pt"
 viewBox="0.00 0.00 451.00 195.00" xmlns="http://www.w3.org/2000/svg" xmlns:xlink="http://www.w3.org/1999/xlink">
<g id="graph0" class="graph" transform="scale(1 1) rotate(0) translate(4 191)">
<title>acq.all_fund_encumbrance_total</title>
<polygon fill="#ffffff" stroke="transparent" points="-4,4 -4,-191 447,-191 447,4 -4,4"/>
<!-- acq.all_fund_encumbrance_total -->
<g id="node1" class="node">
<title>acq.all_fund_encumbrance_total</title>
<polygon fill="#efefef" stroke="transparent" points="46.5,-105.5 46.5,-140.5 397.5,-140.5 397.5,-105.5 46.5,-105.5"/>
<polygon fill="none" stroke="#000000" points="46.5,-105.5 46.5,-140.5 397.5,-140.5 397.5,-105.5 46.5,-105.5"/>
<text text-anchor="start" x="53.0741" y="-118.3" font-family="Arial Bold" font-size="18.00" fill="#000000">acq.all_fund_encumbrance_total</text>
<text text-anchor="start" x="313.1615" y="-118.3" font-family="Arial" font-size="14.00" fill="#000000">    </text>
<text text-anchor="start" x="347.3663" y="-118.3" font-family="Arial" font-size="14.00" fill="#666666">[VIEW]</text>
<polygon fill="none" stroke="#000000" points="46.5,-75.5 46.5,-105.5 397.5,-105.5 397.5,-75.5 46.5,-75.5"/>
<text text-anchor="start" x="53.5" y="-86.9" font-family="Arial" font-size="14.00" fill="#000000">fund </text>
<text text-anchor="start" x="84.629" y="-86.9" font-family="Arial" font-size="14.00" fill="#666666">[integer]</text>
<polygon fill="none" stroke="#000000" points="46.5,-45.5 46.5,-75.5 397.5,-75.5 397.5,-45.5 46.5,-45.5"/>
<text text-anchor="start" x="53.5" y="-56.9" font-family="Arial" font-size="14.00" fill="#000000">amount </text>
<text text-anchor="start" x="104.0722" y="-56.9" font-family="Arial" font-size="14.00" fill="#666666">[numeric]</text>
<polygon fill="none" stroke="#000000" stroke-width="3" points="44.5,-44.5 44.5,-142.5 398.5,-142.5 398.5,-44.5 44.5,-44.5"/>
</g>
</g>
</svg>
