<?xml version="1.0" encoding="UTF-8" standalone="no"?>
<!DOCTYPE svg PUBLIC "-//W3C//DTD SVG 1.1//EN"
 "http://www.w3.org/Graphics/SVG/1.1/DTD/svg11.dtd">
<!-- Generated by graphviz version 2.40.1 (20161225.0304)
 -->
<!-- Title: acq.serial_claim Pages: 1 -->
<svg width="1197pt" height="1109pt"
 viewBox="0.00 0.00 1197.00 1109.00" xmlns="http://www.w3.org/2000/svg" xmlns:xlink="http://www.w3.org/1999/xlink">
<g id="graph0" class="graph" transform="scale(1 1) rotate(0) translate(4 1105)">
<title>acq.serial_claim</title>
<polygon fill="#ffffff" stroke="transparent" points="-4,4 -4,-1105 1193,-1105 1193,4 -4,4"/>
<!-- acq.serial_claim -->
<g id="node1" class="node">
<title>acq.serial_claim</title>
<polygon fill="#efefef" stroke="transparent" points="441,-682.5 441,-717.5 711,-717.5 711,-682.5 441,-682.5"/>
<polygon fill="none" stroke="#000000" points="441,-682.5 441,-717.5 711,-717.5 711,-682.5 441,-682.5"/>
<text text-anchor="start" x="447.7157" y="-695.3" font-family="Arial Bold" font-size="18.00" fill="#000000">acq.serial_claim</text>
<text text-anchor="start" x="576.7163" y="-695.3" font-family="Arial" font-size="14.00" fill="#000000">    </text>
<text text-anchor="start" x="610.9211" y="-695.3" font-family="Arial" font-size="14.00" fill="#666666">[BASE TABLE]</text>
<polygon fill="none" stroke="#000000" points="441,-652.5 441,-682.5 711,-682.5 711,-652.5 441,-652.5"/>
<text text-anchor="start" x="448" y="-663.9" font-family="Arial" font-size="14.00" fill="#000000">id </text>
<text text-anchor="start" x="462.7798" y="-663.9" font-family="Arial" font-size="14.00" fill="#666666">[integer]</text>
<polygon fill="none" stroke="#000000" points="441,-622.5 441,-652.5 711,-652.5 711,-622.5 441,-622.5"/>
<text text-anchor="start" x="448" y="-633.9" font-family="Arial" font-size="14.00" fill="#000000">type </text>
<text text-anchor="start" x="478.3464" y="-633.9" font-family="Arial" font-size="14.00" fill="#666666">[integer]</text>
<polygon fill="none" stroke="#000000" points="441,-592.5 441,-622.5 711,-622.5 711,-592.5 441,-592.5"/>
<text text-anchor="start" x="448" y="-603.9" font-family="Arial" font-size="14.00" fill="#000000">item </text>
<text text-anchor="start" x="478.331" y="-603.9" font-family="Arial" font-size="14.00" fill="#666666">[bigint]</text>
<polygon fill="none" stroke="#000000" stroke-width="3" points="439.5,-591.5 439.5,-719.5 712.5,-719.5 712.5,-591.5 439.5,-591.5"/>
</g>
<!-- acq.claim_type -->
<g id="node3" class="node">
<title>acq.claim_type</title>
<polygon fill="#efefef" stroke="transparent" points="252,-297.5 252,-332.5 513,-332.5 513,-297.5 252,-297.5"/>
<polygon fill="none" stroke="#000000" points="252,-297.5 252,-332.5 513,-332.5 513,-297.5 252,-297.5"/>
<text text-anchor="start" x="258.7049" y="-310.3" font-family="Arial Bold" font-size="18.00" fill="#000000">acq.claim_type</text>
<text text-anchor="start" x="378.7271" y="-310.3" font-family="Arial" font-size="14.00" fill="#000000">    </text>
<text text-anchor="start" x="412.9319" y="-310.3" font-family="Arial" font-size="14.00" fill="#666666">[BASE TABLE]</text>
<polygon fill="none" stroke="#000000" points="252,-267.5 252,-297.5 513,-297.5 513,-267.5 252,-267.5"/>
<text text-anchor="start" x="259" y="-278.9" font-family="Arial" font-size="14.00" fill="#000000">id    </text>
<text text-anchor="start" x="304.094" y="-278.9" font-family="Arial" font-size="14.00" fill="#666666">[integer]</text>
<polygon fill="none" stroke="#000000" points="252,-237.5 252,-267.5 513,-267.5 513,-237.5 252,-237.5"/>
<text text-anchor="start" x="259" y="-248.9" font-family="Arial" font-size="14.00" fill="#000000">org_unit    </text>
<text text-anchor="start" x="343.7756" y="-248.9" font-family="Arial" font-size="14.00" fill="#666666">[integer]</text>
<polygon fill="none" stroke="#000000" points="252,-207.5 252,-237.5 513,-237.5 513,-207.5 252,-207.5"/>
<text text-anchor="start" x="259" y="-218.9" font-family="Arial" font-size="14.00" fill="#000000">code    </text>
<text text-anchor="start" x="323.5526" y="-218.9" font-family="Arial" font-size="14.00" fill="#666666">[text]</text>
<polygon fill="none" stroke="#000000" points="252,-177.5 252,-207.5 513,-207.5 513,-177.5 252,-177.5"/>
<text text-anchor="start" x="259" y="-188.9" font-family="Arial" font-size="14.00" fill="#000000">description    </text>
<text text-anchor="start" x="360.8822" y="-188.9" font-family="Arial" font-size="14.00" fill="#666666">[text]</text>
</g>
<!-- acq.serial_claim&#45;&gt;acq.claim_type -->
<g id="edge2" class="edge">
<title>acq.serial_claim:type&#45;&gt;acq.claim_type:id</title>
<path fill="none" stroke="#000000" d="M430.9794,-636.9708C297.4282,-621.7318 670.3742,-282.5 513,-282.5"/>
<polygon fill="#000000" stroke="#000000" points="431.0139,-636.9725 440.7626,-641.9937 436.007,-637.2362 441,-637.5 441,-637.5 441,-637.5 436.007,-637.2362 441.2374,-633.0063 431.0139,-636.9725 431.0139,-636.9725"/>
<text text-anchor="start" x="7.102" y="-647.5" font-family="Arial" font-size="10.00" fill="#000000">FOREIGN KEY (type) REFERENCES acq.claim_type(id) DEFERRABLE INITIALLY DEFERRED</text>
</g>
<!-- serial.item -->
<g id="node4" class="node">
<title>serial.item</title>
<polygon fill="#efefef" stroke="transparent" points="617,-432.5 617,-467.5 922,-467.5 922,-432.5 617,-432.5"/>
<polygon fill="none" stroke="#000000" points="617,-432.5 617,-467.5 922,-467.5 922,-432.5 617,-432.5"/>
<text text-anchor="start" x="664.721" y="-445.3" font-family="Arial Bold" font-size="18.00" fill="#000000">serial.item</text>
<text text-anchor="start" x="746.711" y="-445.3" font-family="Arial" font-size="14.00" fill="#000000">    </text>
<text text-anchor="start" x="780.9158" y="-445.3" font-family="Arial" font-size="14.00" fill="#666666">[BASE TABLE]</text>
<polygon fill="none" stroke="#000000" points="617,-402.5 617,-432.5 922,-432.5 922,-402.5 617,-402.5"/>
<text text-anchor="start" x="624" y="-413.9" font-family="Arial" font-size="14.00" fill="#000000">id    </text>
<text text-anchor="start" x="669.094" y="-413.9" font-family="Arial" font-size="14.00" fill="#666666">[integer]</text>
<polygon fill="none" stroke="#000000" points="617,-372.5 617,-402.5 922,-402.5 922,-372.5 617,-372.5"/>
<text text-anchor="start" x="624" y="-383.9" font-family="Arial" font-size="14.00" fill="#000000">creator    </text>
<text text-anchor="start" x="701.7644" y="-383.9" font-family="Arial" font-size="14.00" fill="#666666">[integer]</text>
<polygon fill="none" stroke="#000000" points="617,-342.5 617,-372.5 922,-372.5 922,-342.5 617,-342.5"/>
<text text-anchor="start" x="624" y="-353.9" font-family="Arial" font-size="14.00" fill="#000000">editor    </text>
<text text-anchor="start" x="693.2104" y="-353.9" font-family="Arial" font-size="14.00" fill="#666666">[integer]</text>
<polygon fill="none" stroke="#000000" points="617,-312.5 617,-342.5 922,-342.5 922,-312.5 617,-312.5"/>
<text text-anchor="start" x="624" y="-323.9" font-family="Arial" font-size="14.00" fill="#000000">create_date    </text>
<text text-anchor="start" x="732.1248" y="-323.9" font-family="Arial" font-size="14.00" fill="#666666">[timestamp with time zone]</text>
<polygon fill="none" stroke="#000000" points="617,-282.5 617,-312.5 922,-312.5 922,-282.5 617,-282.5"/>
<text text-anchor="start" x="624" y="-293.9" font-family="Arial" font-size="14.00" fill="#000000">edit_date    </text>
<text text-anchor="start" x="715.7882" y="-293.9" font-family="Arial" font-size="14.00" fill="#666666">[timestamp with time zone]</text>
<polygon fill="none" stroke="#000000" points="617,-252.5 617,-282.5 922,-282.5 922,-252.5 617,-252.5"/>
<text text-anchor="start" x="624" y="-263.9" font-family="Arial" font-size="14.00" fill="#000000">issuance    </text>
<text text-anchor="start" x="713.4418" y="-263.9" font-family="Arial" font-size="14.00" fill="#666666">[integer]</text>
<polygon fill="none" stroke="#000000" points="617,-222.5 617,-252.5 922,-252.5 922,-222.5 617,-222.5"/>
<text text-anchor="start" x="624" y="-233.9" font-family="Arial" font-size="14.00" fill="#000000">stream    </text>
<text text-anchor="start" x="700.9818" y="-233.9" font-family="Arial" font-size="14.00" fill="#666666">[integer]</text>
<polygon fill="none" stroke="#000000" points="617,-192.5 617,-222.5 922,-222.5 922,-192.5 617,-192.5"/>
<text text-anchor="start" x="624" y="-203.9" font-family="Arial" font-size="14.00" fill="#000000">unit    </text>
<text text-anchor="start" x="680.7672" y="-203.9" font-family="Arial" font-size="14.00" fill="#666666">[integer]</text>
<polygon fill="none" stroke="#000000" points="617,-162.5 617,-192.5 922,-192.5 922,-162.5 617,-162.5"/>
<text text-anchor="start" x="624" y="-173.9" font-family="Arial" font-size="14.00" fill="#000000">uri    </text>
<text text-anchor="start" x="673.7546" y="-173.9" font-family="Arial" font-size="14.00" fill="#666666">[integer]</text>
<polygon fill="none" stroke="#000000" points="617,-132.5 617,-162.5 922,-162.5 922,-132.5 617,-132.5"/>
<text text-anchor="start" x="623.6431" y="-143.9" font-family="Arial" font-size="14.00" fill="#000000">date_expected    </text>
<text text-anchor="start" x="749.6725" y="-143.9" font-family="Arial" font-size="14.00" fill="#666666">[timestamp with time zone]</text>
<polygon fill="none" stroke="#000000" points="617,-102.5 617,-132.5 922,-132.5 922,-102.5 617,-102.5"/>
<text text-anchor="start" x="624" y="-113.9" font-family="Arial" font-size="14.00" fill="#000000">date_received    </text>
<text text-anchor="start" x="746.1234" y="-113.9" font-family="Arial" font-size="14.00" fill="#666666">[timestamp with time zone]</text>
<polygon fill="none" stroke="#000000" points="617,-72.5 617,-102.5 922,-102.5 922,-72.5 617,-72.5"/>
<text text-anchor="start" x="624" y="-83.9" font-family="Arial" font-size="14.00" fill="#000000">status    </text>
<text text-anchor="start" x="695.5512" y="-83.9" font-family="Arial" font-size="14.00" fill="#666666">[text]</text>
<polygon fill="none" stroke="#000000" points="617,-42.5 617,-72.5 922,-72.5 922,-42.5 617,-42.5"/>
<text text-anchor="start" x="624" y="-53.9" font-family="Arial" font-size="14.00" fill="#000000">shadowed    </text>
<text text-anchor="start" x="722.007" y="-53.9" font-family="Arial" font-size="14.00" fill="#666666">[boolean]</text>
</g>
<!-- acq.serial_claim&#45;&gt;serial.item -->
<g id="edge3" class="edge">
<title>acq.serial_claim:item&#45;&gt;serial.item:id</title>
<path fill="none" stroke="#000000" d="M720.9148,-604.8995C734.1606,-595.9122 723.8576,-565.6924 711,-547 685.6466,-510.141 642.3534,-547.859 617,-511 593.4495,-476.7621 575.4444,-417.5 617,-417.5"/>
<polygon fill="#000000" stroke="#000000" points="720.6728,-604.9629 709.8583,-603.1472 715.8364,-606.2314 711,-607.5 711,-607.5 711,-607.5 715.8364,-606.2314 712.1417,-611.8528 720.6728,-604.9629 720.6728,-604.9629"/>
<text text-anchor="start" x="717.672" y="-617.5" font-family="Arial" font-size="10.00" fill="#000000">FOREIGN KEY (item) REFERENCES serial.item(id) DEFERRABLE INITIALLY DEFERRED</text>
</g>
<!-- acq.serial_claim_event -->
<g id="node2" class="node">
<title>acq.serial_claim_event</title>
<polygon fill="#efefef" stroke="transparent" points="414,-1022.5 414,-1057.5 738,-1057.5 738,-1022.5 414,-1022.5"/>
<polygon fill="none" stroke="#000000" points="414,-1022.5 414,-1057.5 738,-1057.5 738,-1022.5 414,-1022.5"/>
<text text-anchor="start" x="420.7022" y="-1035.3" font-family="Arial Bold" font-size="18.00" fill="#000000">acq.serial_claim_event</text>
<text text-anchor="start" x="603.7298" y="-1035.3" font-family="Arial" font-size="14.00" fill="#000000">    </text>
<text text-anchor="start" x="637.9346" y="-1035.3" font-family="Arial" font-size="14.00" fill="#666666">[BASE TABLE]</text>
<polygon fill="none" stroke="#000000" points="414,-992.5 414,-1022.5 738,-1022.5 738,-992.5 414,-992.5"/>
<text text-anchor="start" x="421" y="-1003.9" font-family="Arial" font-size="14.00" fill="#000000">id    </text>
<text text-anchor="start" x="466.094" y="-1003.9" font-family="Arial" font-size="14.00" fill="#666666">[bigint]</text>
<polygon fill="none" stroke="#000000" points="414,-962.5 414,-992.5 738,-992.5 738,-962.5 414,-962.5"/>
<text text-anchor="start" x="421" y="-973.9" font-family="Arial" font-size="14.00" fill="#000000">type    </text>
<text text-anchor="start" x="481.6606" y="-973.9" font-family="Arial" font-size="14.00" fill="#666666">[integer]</text>
<polygon fill="none" stroke="#000000" points="414,-932.5 414,-962.5 738,-962.5 738,-932.5 414,-932.5"/>
<text text-anchor="start" x="421" y="-943.9" font-family="Arial" font-size="14.00" fill="#000000">claim    </text>
<text text-anchor="start" x="487.8612" y="-943.9" font-family="Arial" font-size="14.00" fill="#666666">[integer]</text>
<polygon fill="none" stroke="#000000" points="414,-902.5 414,-932.5 738,-932.5 738,-902.5 414,-902.5"/>
<text text-anchor="start" x="421" y="-913.9" font-family="Arial" font-size="14.00" fill="#000000">event_date    </text>
<text text-anchor="start" x="524.4642" y="-913.9" font-family="Arial" font-size="14.00" fill="#666666">[timestamp with time zone]</text>
<polygon fill="none" stroke="#000000" points="414,-872.5 414,-902.5 738,-902.5 738,-872.5 414,-872.5"/>
<text text-anchor="start" x="421" y="-883.9" font-family="Arial" font-size="14.00" fill="#000000">creator    </text>
<text text-anchor="start" x="498.7644" y="-883.9" font-family="Arial" font-size="14.00" fill="#666666">[integer]</text>
<polygon fill="none" stroke="#000000" points="414,-842.5 414,-872.5 738,-872.5 738,-842.5 414,-842.5"/>
<text text-anchor="start" x="421" y="-853.9" font-family="Arial" font-size="14.00" fill="#000000">note    </text>
<text text-anchor="start" x="482.4432" y="-853.9" font-family="Arial" font-size="14.00" fill="#666666">[text]</text>
</g>
<!-- acq.serial_claim_event&#45;&gt;acq.serial_claim -->
<g id="edge1" class="edge">
<title>acq.serial_claim_event:claim&#45;&gt;acq.serial_claim:id</title>
<path fill="none" stroke="#000000" d="M748.2574,-946.839C861.4138,-931.8652 832.481,-667.5 711,-667.5"/>
<polygon fill="#000000" stroke="#000000" points="747.9793,-946.8568 737.7106,-943.0093 742.9897,-947.1784 738,-947.5 738,-947.5 738,-947.5 742.9897,-947.1784 738.2894,-951.9907 747.9793,-946.8568 747.9793,-946.8568"/>
<text text-anchor="start" x="745.3935" y="-957.5" font-family="Arial" font-size="10.00" fill="#000000">FOREIGN KEY (claim) REFERENCES acq.serial_claim(id) DEFERRABLE INITIALLY DEFERRED</text>
</g>
</g>
</svg>
