<?xml version="1.0" encoding="UTF-8" standalone="no"?>
<!DOCTYPE svg PUBLIC "-//W3C//DTD SVG 1.1//EN"
 "http://www.w3.org/Graphics/SVG/1.1/DTD/svg11.dtd">
<!-- Generated by graphviz version 2.40.1 (20161225.0304)
 -->
<!-- Title: acq.funding_source Pages: 1 -->
<svg width="1827pt" height="1229pt"
 viewBox="0.00 0.00 1827.00 1229.00" xmlns="http://www.w3.org/2000/svg" xmlns:xlink="http://www.w3.org/1999/xlink">
<g id="graph0" class="graph" transform="scale(1 1) rotate(0) translate(4 1225)">
<title>acq.funding_source</title>
<polygon fill="#ffffff" stroke="transparent" points="-4,4 -4,-1225 1823,-1225 1823,4 -4,4"/>
<!-- acq.funding_source -->
<g id="node1" class="node">
<title>acq.funding_source</title>
<polygon fill="#efefef" stroke="transparent" points="872,-742.5 872,-777.5 1170,-777.5 1170,-742.5 872,-742.5"/>
<polygon fill="none" stroke="#000000" points="872,-742.5 872,-777.5 1170,-777.5 1170,-742.5 872,-742.5"/>
<text text-anchor="start" x="878.6865" y="-755.3" font-family="Arial Bold" font-size="18.00" fill="#000000">acq.funding_source</text>
<text text-anchor="start" x="1035.7455" y="-755.3" font-family="Arial" font-size="14.00" fill="#000000">    </text>
<text text-anchor="start" x="1069.9503" y="-755.3" font-family="Arial" font-size="14.00" fill="#666666">[BASE TABLE]</text>
<polygon fill="none" stroke="#000000" points="872,-712.5 872,-742.5 1170,-742.5 1170,-712.5 872,-712.5"/>
<text text-anchor="start" x="879" y="-723.9" font-family="Arial" font-size="14.00" fill="#000000">id </text>
<text text-anchor="start" x="893.7798" y="-723.9" font-family="Arial" font-size="14.00" fill="#666666">[integer]</text>
<polygon fill="none" stroke="#000000" points="872,-682.5 872,-712.5 1170,-712.5 1170,-682.5 872,-682.5"/>
<text text-anchor="start" x="879" y="-693.9" font-family="Arial" font-size="14.00" fill="#000000">name </text>
<text text-anchor="start" x="917.899" y="-693.9" font-family="Arial" font-size="14.00" fill="#666666">[text]</text>
<polygon fill="none" stroke="#000000" points="872,-652.5 872,-682.5 1170,-682.5 1170,-652.5 872,-652.5"/>
<text text-anchor="start" x="879" y="-663.9" font-family="Arial" font-size="14.00" fill="#000000">owner </text>
<text text-anchor="start" x="921.0056" y="-663.9" font-family="Arial" font-size="14.00" fill="#666666">[integer]</text>
<polygon fill="none" stroke="#000000" points="872,-622.5 872,-652.5 1170,-652.5 1170,-622.5 872,-622.5"/>
<text text-anchor="start" x="879" y="-633.9" font-family="Arial" font-size="14.00" fill="#000000">currency_type </text>
<text text-anchor="start" x="970.798" y="-633.9" font-family="Arial" font-size="14.00" fill="#666666">[text]</text>
<polygon fill="none" stroke="#000000" points="872,-592.5 872,-622.5 1170,-622.5 1170,-592.5 872,-592.5"/>
<text text-anchor="start" x="879" y="-603.9" font-family="Arial" font-size="14.00" fill="#000000">code </text>
<text text-anchor="start" x="913.2384" y="-603.9" font-family="Arial" font-size="14.00" fill="#666666">[text]</text>
<polygon fill="none" stroke="#000000" stroke-width="3" points="870.5,-591.5 870.5,-779.5 1171.5,-779.5 1171.5,-591.5 870.5,-591.5"/>
</g>
<!-- actor.org_unit -->
<g id="node5" class="node">
<title>actor.org_unit</title>
<polygon fill="#efefef" stroke="transparent" points="709,-432.5 709,-467.5 960,-467.5 960,-432.5 709,-432.5"/>
<polygon fill="none" stroke="#000000" points="709,-432.5 709,-467.5 960,-467.5 960,-432.5 709,-432.5"/>
<text text-anchor="start" x="715.7017" y="-445.3" font-family="Arial Bold" font-size="18.00" fill="#000000">actor.org_unit</text>
<text text-anchor="start" x="825.7303" y="-445.3" font-family="Arial" font-size="14.00" fill="#000000">    </text>
<text text-anchor="start" x="859.9351" y="-445.3" font-family="Arial" font-size="14.00" fill="#666666">[BASE TABLE]</text>
<polygon fill="none" stroke="#000000" points="709,-402.5 709,-432.5 960,-432.5 960,-402.5 709,-402.5"/>
<text text-anchor="start" x="716" y="-413.9" font-family="Arial" font-size="14.00" fill="#000000">id    </text>
<text text-anchor="start" x="761.094" y="-413.9" font-family="Arial" font-size="14.00" fill="#666666">[integer]</text>
<polygon fill="none" stroke="#000000" points="709,-372.5 709,-402.5 960,-402.5 960,-372.5 709,-372.5"/>
<text text-anchor="start" x="716" y="-383.9" font-family="Arial" font-size="14.00" fill="#000000">parent_ou    </text>
<text text-anchor="start" x="813.2342" y="-383.9" font-family="Arial" font-size="14.00" fill="#666666">[integer]</text>
<polygon fill="none" stroke="#000000" points="709,-342.5 709,-372.5 960,-372.5 960,-342.5 709,-342.5"/>
<text text-anchor="start" x="716" y="-353.9" font-family="Arial" font-size="14.00" fill="#000000">ou_type    </text>
<text text-anchor="start" x="800.0084" y="-353.9" font-family="Arial" font-size="14.00" fill="#666666">[integer]</text>
<polygon fill="none" stroke="#000000" points="709,-312.5 709,-342.5 960,-342.5 960,-312.5 709,-312.5"/>
<text text-anchor="start" x="716" y="-323.9" font-family="Arial" font-size="14.00" fill="#000000">ill_address    </text>
<text text-anchor="start" x="817.0982" y="-323.9" font-family="Arial" font-size="14.00" fill="#666666">[integer]</text>
<polygon fill="none" stroke="#000000" points="709,-282.5 709,-312.5 960,-312.5 960,-282.5 709,-282.5"/>
<text text-anchor="start" x="716" y="-293.9" font-family="Arial" font-size="14.00" fill="#000000">holds_address    </text>
<text text-anchor="start" x="841.2328" y="-293.9" font-family="Arial" font-size="14.00" fill="#666666">[integer]</text>
<polygon fill="none" stroke="#000000" points="709,-252.5 709,-282.5 960,-282.5 960,-252.5 709,-252.5"/>
<text text-anchor="start" x="716" y="-263.9" font-family="Arial" font-size="14.00" fill="#000000">mailing_address    </text>
<text text-anchor="start" x="852.1066" y="-263.9" font-family="Arial" font-size="14.00" fill="#666666">[integer]</text>
<polygon fill="none" stroke="#000000" points="709,-222.5 709,-252.5 960,-252.5 960,-222.5 709,-222.5"/>
<text text-anchor="start" x="716" y="-233.9" font-family="Arial" font-size="14.00" fill="#000000">billing_address    </text>
<text text-anchor="start" x="843.5526" y="-233.9" font-family="Arial" font-size="14.00" fill="#666666">[integer]</text>
<polygon fill="none" stroke="#000000" points="709,-192.5 709,-222.5 960,-222.5 960,-192.5 709,-192.5"/>
<text text-anchor="start" x="716" y="-203.9" font-family="Arial" font-size="14.00" fill="#000000">shortname    </text>
<text text-anchor="start" x="816.3296" y="-203.9" font-family="Arial" font-size="14.00" fill="#666666">[text]</text>
<polygon fill="none" stroke="#000000" points="709,-162.5 709,-192.5 960,-192.5 960,-162.5 709,-162.5"/>
<text text-anchor="start" x="716" y="-173.9" font-family="Arial" font-size="14.00" fill="#000000">name    </text>
<text text-anchor="start" x="785.2132" y="-173.9" font-family="Arial" font-size="14.00" fill="#666666">[text]</text>
<polygon fill="none" stroke="#000000" points="709,-132.5 709,-162.5 960,-162.5 960,-132.5 709,-132.5"/>
<text text-anchor="start" x="716" y="-143.9" font-family="Arial" font-size="14.00" fill="#000000">email    </text>
<text text-anchor="start" x="783.6438" y="-143.9" font-family="Arial" font-size="14.00" fill="#666666">[text]</text>
<polygon fill="none" stroke="#000000" points="709,-102.5 709,-132.5 960,-132.5 960,-102.5 709,-102.5"/>
<text text-anchor="start" x="716" y="-113.9" font-family="Arial" font-size="14.00" fill="#000000">phone    </text>
<text text-anchor="start" x="789.1178" y="-113.9" font-family="Arial" font-size="14.00" fill="#666666">[text]</text>
<polygon fill="none" stroke="#000000" points="709,-72.5 709,-102.5 960,-102.5 960,-72.5 709,-72.5"/>
<text text-anchor="start" x="716" y="-83.9" font-family="Arial" font-size="14.00" fill="#000000">opac_visible    </text>
<text text-anchor="start" x="827.2202" y="-83.9" font-family="Arial" font-size="14.00" fill="#666666">[boolean]</text>
<polygon fill="none" stroke="#000000" points="709,-42.5 709,-72.5 960,-72.5 960,-42.5 709,-42.5"/>
<text text-anchor="start" x="716" y="-53.9" font-family="Arial" font-size="14.00" fill="#000000">fiscal_calendar    </text>
<text text-anchor="start" x="843.554" y="-53.9" font-family="Arial" font-size="14.00" fill="#666666">[integer]</text>
</g>
<!-- acq.funding_source&#45;&gt;actor.org_unit -->
<g id="edge4" class="edge">
<title>acq.funding_source:owner&#45;&gt;actor.org_unit:id</title>
<path fill="none" stroke="#000000" d="M861.8243,-666.4097C821.8082,-656.9636 844.2476,-588.3381 872,-547 895.5538,-511.9158 936.4462,-546.0842 960,-511 983.1626,-476.4985 1001.5556,-417.5 960,-417.5"/>
<polygon fill="#000000" stroke="#000000" points="862.0569,-666.4345 871.5205,-671.9744 867.0285,-666.9673 872,-667.5 872,-667.5 872,-667.5 867.0285,-666.9673 872.4795,-663.0256 862.0569,-666.4345 862.0569,-666.4345"/>
<text text-anchor="start" x="434.714" y="-677.5" font-family="Arial" font-size="10.00" fill="#000000">FOREIGN KEY (owner) REFERENCES actor.org_unit(id) DEFERRABLE INITIALLY DEFERRED</text>
</g>
<!-- acq.currency_type -->
<g id="node6" class="node">
<title>acq.currency_type</title>
<polygon fill="#efefef" stroke="transparent" points="1064,-267.5 1064,-302.5 1352,-302.5 1352,-267.5 1064,-267.5"/>
<polygon fill="none" stroke="#000000" points="1064,-267.5 1064,-302.5 1352,-302.5 1352,-267.5 1064,-267.5"/>
<text text-anchor="start" x="1070.6968" y="-280.3" font-family="Arial Bold" font-size="18.00" fill="#000000">acq.currency_type</text>
<text text-anchor="start" x="1217.7352" y="-280.3" font-family="Arial" font-size="14.00" fill="#000000">    </text>
<text text-anchor="start" x="1251.94" y="-280.3" font-family="Arial" font-size="14.00" fill="#666666">[BASE TABLE]</text>
<polygon fill="none" stroke="#000000" points="1064,-237.5 1064,-267.5 1352,-267.5 1352,-237.5 1064,-237.5"/>
<text text-anchor="start" x="1071" y="-248.9" font-family="Arial" font-size="14.00" fill="#000000">code    </text>
<text text-anchor="start" x="1135.5526" y="-248.9" font-family="Arial" font-size="14.00" fill="#666666">[text]</text>
<polygon fill="none" stroke="#000000" points="1064,-207.5 1064,-237.5 1352,-237.5 1352,-207.5 1064,-207.5"/>
<text text-anchor="start" x="1071" y="-218.9" font-family="Arial" font-size="14.00" fill="#000000">label    </text>
<text text-anchor="start" x="1134.7658" y="-218.9" font-family="Arial" font-size="14.00" fill="#666666">[text]</text>
</g>
<!-- acq.funding_source&#45;&gt;acq.currency_type -->
<g id="edge5" class="edge">
<title>acq.funding_source:currency_type&#45;&gt;acq.currency_type:code</title>
<path fill="none" stroke="#000000" d="M1180.1246,-637.0209C1328.8402,-621.8709 890.1616,-252.5 1064,-252.5"/>
<polygon fill="#000000" stroke="#000000" points="1179.9888,-637.0272 1169.7872,-633.005 1174.9944,-637.2636 1170,-637.5 1170,-637.5 1170,-637.5 1174.9944,-637.2636 1170.2128,-641.995 1179.9888,-637.0272 1179.9888,-637.0272"/>
<text text-anchor="start" x="1176.701" y="-647.5" font-family="Arial" font-size="10.00" fill="#000000">FOREIGN KEY (currency_type) REFERENCES acq.currency_type(code) DEFERRABLE INITIALLY DEFERRED</text>
</g>
<!-- acq.fund_allocation -->
<g id="node2" class="node">
<title>acq.fund_allocation</title>
<polygon fill="#efefef" stroke="transparent" points="438,-1127.5 438,-1162.5 734,-1162.5 734,-1127.5 438,-1127.5"/>
<polygon fill="none" stroke="#000000" points="438,-1127.5 438,-1162.5 734,-1162.5 734,-1127.5 438,-1127.5"/>
<text text-anchor="start" x="444.6873" y="-1140.3" font-family="Arial Bold" font-size="18.00" fill="#000000">acq.fund_allocation</text>
<text text-anchor="start" x="599.7447" y="-1140.3" font-family="Arial" font-size="14.00" fill="#000000">    </text>
<text text-anchor="start" x="633.9495" y="-1140.3" font-family="Arial" font-size="14.00" fill="#666666">[BASE TABLE]</text>
<polygon fill="none" stroke="#000000" points="438,-1097.5 438,-1127.5 734,-1127.5 734,-1097.5 438,-1097.5"/>
<text text-anchor="start" x="445" y="-1108.9" font-family="Arial" font-size="14.00" fill="#000000">id    </text>
<text text-anchor="start" x="490.094" y="-1108.9" font-family="Arial" font-size="14.00" fill="#666666">[integer]</text>
<polygon fill="none" stroke="#000000" points="438,-1067.5 438,-1097.5 734,-1097.5 734,-1067.5 438,-1067.5"/>
<text text-anchor="start" x="445" y="-1078.9" font-family="Arial" font-size="14.00" fill="#000000">funding_source    </text>
<text text-anchor="start" x="574.906" y="-1078.9" font-family="Arial" font-size="14.00" fill="#666666">[integer]</text>
<polygon fill="none" stroke="#000000" points="438,-1037.5 438,-1067.5 734,-1067.5 734,-1037.5 438,-1037.5"/>
<text text-anchor="start" x="445" y="-1048.9" font-family="Arial" font-size="14.00" fill="#000000">fund    </text>
<text text-anchor="start" x="506.4432" y="-1048.9" font-family="Arial" font-size="14.00" fill="#666666">[integer]</text>
<polygon fill="none" stroke="#000000" points="438,-1007.5 438,-1037.5 734,-1037.5 734,-1007.5 438,-1007.5"/>
<text text-anchor="start" x="445" y="-1018.9" font-family="Arial" font-size="14.00" fill="#000000">amount    </text>
<text text-anchor="start" x="525.8864" y="-1018.9" font-family="Arial" font-size="14.00" fill="#666666">[numeric]</text>
<polygon fill="none" stroke="#000000" points="438,-977.5 438,-1007.5 734,-1007.5 734,-977.5 438,-977.5"/>
<text text-anchor="start" x="445" y="-988.9" font-family="Arial" font-size="14.00" fill="#000000">allocator    </text>
<text text-anchor="start" x="532.0996" y="-988.9" font-family="Arial" font-size="14.00" fill="#666666">[integer]</text>
<polygon fill="none" stroke="#000000" points="438,-947.5 438,-977.5 734,-977.5 734,-947.5 438,-947.5"/>
<text text-anchor="start" x="445" y="-958.9" font-family="Arial" font-size="14.00" fill="#000000">note    </text>
<text text-anchor="start" x="506.4432" y="-958.9" font-family="Arial" font-size="14.00" fill="#666666">[text]</text>
<polygon fill="none" stroke="#000000" points="438,-917.5 438,-947.5 734,-947.5 734,-917.5 438,-917.5"/>
<text text-anchor="start" x="445" y="-928.9" font-family="Arial" font-size="14.00" fill="#000000">create_time    </text>
<text text-anchor="start" x="552.3268" y="-928.9" font-family="Arial" font-size="14.00" fill="#666666">[timestamp with time zone]</text>
</g>
<!-- acq.fund_allocation&#45;&gt;acq.funding_source -->
<g id="edge1" class="edge">
<title>acq.fund_allocation:funding_source&#45;&gt;acq.funding_source:id</title>
<path fill="none" stroke="#000000" d="M744.0168,-1082.0286C829.4309,-1073.4689 747.6045,-950.1472 786,-860 813.5106,-795.4089 801.7943,-727.5 872,-727.5"/>
<polygon fill="#000000" stroke="#000000" points="743.9889,-1082.0298 733.7884,-1078.005 738.9945,-1082.2649 734,-1082.5 734,-1082.5 734,-1082.5 738.9945,-1082.2649 734.2116,-1086.995 743.9889,-1082.0298 743.9889,-1082.0298"/>
<text text-anchor="start" x="6.6915" y="-1092.5" font-family="Arial" font-size="10.00" fill="#000000">FOREIGN KEY (funding_source) REFERENCES acq.funding_source(id) ON UPDATE CASCADE ON DELETE CASCADE DEFERRABLE INITIALLY DEFERRED</text>
</g>
<!-- acq.fund_allocation_percent -->
<g id="node3" class="node">
<title>acq.fund_allocation_percent</title>
<polygon fill="#efefef" stroke="transparent" points="838,-1142.5 838,-1177.5 1204,-1177.5 1204,-1142.5 838,-1142.5"/>
<polygon fill="none" stroke="#000000" points="838,-1142.5 838,-1177.5 1204,-1177.5 1204,-1142.5 838,-1142.5"/>
<text text-anchor="start" x="844.6746" y="-1155.3" font-family="Arial Bold" font-size="18.00" fill="#000000">acq.fund_allocation_percent</text>
<text text-anchor="start" x="1069.7574" y="-1155.3" font-family="Arial" font-size="14.00" fill="#000000">    </text>
<text text-anchor="start" x="1103.9622" y="-1155.3" font-family="Arial" font-size="14.00" fill="#666666">[BASE TABLE]</text>
<polygon fill="none" stroke="#000000" points="838,-1112.5 838,-1142.5 1204,-1142.5 1204,-1112.5 838,-1112.5"/>
<text text-anchor="start" x="845" y="-1123.9" font-family="Arial" font-size="14.00" fill="#000000">id    </text>
<text text-anchor="start" x="890.094" y="-1123.9" font-family="Arial" font-size="14.00" fill="#666666">[integer]</text>
<polygon fill="none" stroke="#000000" points="838,-1082.5 838,-1112.5 1204,-1112.5 1204,-1082.5 838,-1082.5"/>
<text text-anchor="start" x="845" y="-1093.9" font-family="Arial" font-size="14.00" fill="#000000">funding_source    </text>
<text text-anchor="start" x="974.906" y="-1093.9" font-family="Arial" font-size="14.00" fill="#666666">[integer]</text>
<polygon fill="none" stroke="#000000" points="838,-1052.5 838,-1082.5 1204,-1082.5 1204,-1052.5 838,-1052.5"/>
<text text-anchor="start" x="845" y="-1063.9" font-family="Arial" font-size="14.00" fill="#000000">org    </text>
<text text-anchor="start" x="899.4306" y="-1063.9" font-family="Arial" font-size="14.00" fill="#666666">[integer]</text>
<polygon fill="none" stroke="#000000" points="838,-1022.5 838,-1052.5 1204,-1052.5 1204,-1022.5 838,-1022.5"/>
<text text-anchor="start" x="845" y="-1033.9" font-family="Arial" font-size="14.00" fill="#000000">fund_code    </text>
<text text-anchor="start" x="944.5736" y="-1033.9" font-family="Arial" font-size="14.00" fill="#666666">[text]</text>
<polygon fill="none" stroke="#000000" points="838,-992.5 838,-1022.5 1204,-1022.5 1204,-992.5 838,-992.5"/>
<text text-anchor="start" x="845" y="-1003.9" font-family="Arial" font-size="14.00" fill="#000000">percent    </text>
<text text-anchor="start" x="925.8864" y="-1003.9" font-family="Arial" font-size="14.00" fill="#666666">[numeric]</text>
<polygon fill="none" stroke="#000000" points="838,-962.5 838,-992.5 1204,-992.5 1204,-962.5 838,-962.5"/>
<text text-anchor="start" x="845" y="-973.9" font-family="Arial" font-size="14.00" fill="#000000">allocator    </text>
<text text-anchor="start" x="932.0996" y="-973.9" font-family="Arial" font-size="14.00" fill="#666666">[integer]</text>
<polygon fill="none" stroke="#000000" points="838,-932.5 838,-962.5 1204,-962.5 1204,-932.5 838,-932.5"/>
<text text-anchor="start" x="845" y="-943.9" font-family="Arial" font-size="14.00" fill="#000000">note    </text>
<text text-anchor="start" x="906.4432" y="-943.9" font-family="Arial" font-size="14.00" fill="#666666">[text]</text>
<polygon fill="none" stroke="#000000" points="838,-902.5 838,-932.5 1204,-932.5 1204,-902.5 838,-902.5"/>
<text text-anchor="start" x="845" y="-913.9" font-family="Arial" font-size="14.00" fill="#000000">create_time    </text>
<text text-anchor="start" x="952.3268" y="-913.9" font-family="Arial" font-size="14.00" fill="#666666">[timestamp with time zone]</text>
</g>
<!-- acq.fund_allocation_percent&#45;&gt;acq.funding_source -->
<g id="edge2" class="edge">
<title>acq.fund_allocation_percent:funding_source&#45;&gt;acq.funding_source:id</title>
<path fill="none" stroke="#000000" d="M1214.0033,-1095.5093C1283.5571,-1066.3863 1249.0208,-727.5 1170,-727.5"/>
<polygon fill="#000000" stroke="#000000" points="1213.8077,-1095.5482 1203.1217,-1093.0865 1208.9038,-1096.5241 1204,-1097.5 1204,-1097.5 1204,-1097.5 1208.9038,-1096.5241 1204.8783,-1101.9135 1213.8077,-1095.5482 1213.8077,-1095.5482"/>
<text text-anchor="start" x="955.5835" y="-1081.5" font-family="Arial" font-size="10.00" fill="#000000">FOREIGN KEY (funding_source) REFERENCES acq.funding_source(id) DEFERRABLE INITIALLY DEFERRED</text>
</g>
<!-- acq.funding_source_credit -->
<g id="node4" class="node">
<title>acq.funding_source_credit</title>
<polygon fill="#efefef" stroke="transparent" points="1308,-1112.5 1308,-1147.5 1660,-1147.5 1660,-1112.5 1308,-1112.5"/>
<polygon fill="none" stroke="#000000" points="1308,-1112.5 1308,-1147.5 1660,-1147.5 1660,-1112.5 1308,-1112.5"/>
<text text-anchor="start" x="1314.6829" y="-1125.3" font-family="Arial Bold" font-size="18.00" fill="#000000">acq.funding_source_credit</text>
<text text-anchor="start" x="1525.7491" y="-1125.3" font-family="Arial" font-size="14.00" fill="#000000">    </text>
<text text-anchor="start" x="1559.9539" y="-1125.3" font-family="Arial" font-size="14.00" fill="#666666">[BASE TABLE]</text>
<polygon fill="none" stroke="#000000" points="1308,-1082.5 1308,-1112.5 1660,-1112.5 1660,-1082.5 1308,-1082.5"/>
<text text-anchor="start" x="1315" y="-1093.9" font-family="Arial" font-size="14.00" fill="#000000">id    </text>
<text text-anchor="start" x="1360.094" y="-1093.9" font-family="Arial" font-size="14.00" fill="#666666">[integer]</text>
<polygon fill="none" stroke="#000000" points="1308,-1052.5 1308,-1082.5 1660,-1082.5 1660,-1052.5 1308,-1052.5"/>
<text text-anchor="start" x="1315" y="-1063.9" font-family="Arial" font-size="14.00" fill="#000000">funding_source    </text>
<text text-anchor="start" x="1444.906" y="-1063.9" font-family="Arial" font-size="14.00" fill="#666666">[integer]</text>
<polygon fill="none" stroke="#000000" points="1308,-1022.5 1308,-1052.5 1660,-1052.5 1660,-1022.5 1308,-1022.5"/>
<text text-anchor="start" x="1315" y="-1033.9" font-family="Arial" font-size="14.00" fill="#000000">amount    </text>
<text text-anchor="start" x="1395.8864" y="-1033.9" font-family="Arial" font-size="14.00" fill="#666666">[numeric]</text>
<polygon fill="none" stroke="#000000" points="1308,-992.5 1308,-1022.5 1660,-1022.5 1660,-992.5 1308,-992.5"/>
<text text-anchor="start" x="1315" y="-1003.9" font-family="Arial" font-size="14.00" fill="#000000">note    </text>
<text text-anchor="start" x="1376.4432" y="-1003.9" font-family="Arial" font-size="14.00" fill="#666666">[text]</text>
<polygon fill="none" stroke="#000000" points="1308,-962.5 1308,-992.5 1660,-992.5 1660,-962.5 1308,-962.5"/>
<text text-anchor="start" x="1315" y="-973.9" font-family="Arial" font-size="14.00" fill="#000000">deadline_date    </text>
<text text-anchor="start" x="1437.1346" y="-973.9" font-family="Arial" font-size="14.00" fill="#666666">[timestamp with time zone]</text>
<polygon fill="none" stroke="#000000" points="1308,-932.5 1308,-962.5 1660,-962.5 1660,-932.5 1308,-932.5"/>
<text text-anchor="start" x="1315" y="-943.9" font-family="Arial" font-size="14.00" fill="#000000">effective_date    </text>
<text text-anchor="start" x="1436.352" y="-943.9" font-family="Arial" font-size="14.00" fill="#666666">[timestamp with time zone]</text>
</g>
<!-- acq.funding_source_credit&#45;&gt;acq.funding_source -->
<g id="edge3" class="edge">
<title>acq.funding_source_credit:funding_source&#45;&gt;acq.funding_source:id</title>
<path fill="none" stroke="#000000" d="M1297.6471,-1066.9583C1219.0746,-1058.1499 1292.4697,-943.7654 1256,-860 1227.9749,-795.6305 1240.2057,-727.5 1170,-727.5"/>
<polygon fill="#000000" stroke="#000000" points="1298.0137,-1066.9774 1307.7648,-1071.9939 1303.0068,-1067.2387 1308,-1067.5 1308,-1067.5 1308,-1067.5 1303.0068,-1067.2387 1308.2352,-1063.0061 1298.0137,-1066.9774 1298.0137,-1066.9774"/>
<text text-anchor="start" x="1315.0835" y="-1051.5" font-family="Arial" font-size="10.00" fill="#000000">FOREIGN KEY (funding_source) REFERENCES acq.funding_source(id) DEFERRABLE INITIALLY DEFERRED</text>
</g>
</g>
</svg>
