<?xml version="1.0" encoding="UTF-8" standalone="no"?>
<!DOCTYPE svg PUBLIC "-//W3C//DTD SVG 1.1//EN"
 "http://www.w3.org/Graphics/SVG/1.1/DTD/svg11.dtd">
<!-- Generated by graphviz version 2.40.1 (20161225.0304)
 -->
<!-- Title: acq.claim_policy_action Pages: 1 -->
<svg width="1412pt" height="562pt"
 viewBox="0.00 0.00 1412.00 562.00" xmlns="http://www.w3.org/2000/svg" xmlns:xlink="http://www.w3.org/1999/xlink">
<g id="graph0" class="graph" transform="scale(1 1) rotate(0) translate(4 558)">
<title>acq.claim_policy_action</title>
<polygon fill="#ffffff" stroke="transparent" points="-4,4 -4,-558 1408,-558 1408,4 -4,4"/>
<!-- acq.claim_policy_action -->
<g id="node1" class="node">
<title>acq.claim_policy_action</title>
<polygon fill="#efefef" stroke="transparent" points="594,-472.5 594,-507.5 925,-507.5 925,-472.5 594,-472.5"/>
<polygon fill="none" stroke="#000000" points="594,-472.5 594,-507.5 925,-507.5 925,-472.5 594,-472.5"/>
<text text-anchor="start" x="600.7012" y="-485.3" font-family="Arial Bold" font-size="18.00" fill="#000000">acq.claim_policy_action</text>
<text text-anchor="start" x="790.7308" y="-485.3" font-family="Arial" font-size="14.00" fill="#000000">    </text>
<text text-anchor="start" x="824.9356" y="-485.3" font-family="Arial" font-size="14.00" fill="#666666">[BASE TABLE]</text>
<polygon fill="none" stroke="#000000" points="594,-442.5 594,-472.5 925,-472.5 925,-442.5 594,-442.5"/>
<text text-anchor="start" x="601" y="-453.9" font-family="Arial" font-size="14.00" fill="#000000">id </text>
<text text-anchor="start" x="615.7798" y="-453.9" font-family="Arial" font-size="14.00" fill="#666666">[integer]</text>
<polygon fill="none" stroke="#000000" points="594,-412.5 594,-442.5 925,-442.5 925,-412.5 594,-412.5"/>
<text text-anchor="start" x="601" y="-423.9" font-family="Arial" font-size="14.00" fill="#000000">claim_policy </text>
<text text-anchor="start" x="681.108" y="-423.9" font-family="Arial" font-size="14.00" fill="#666666">[integer]</text>
<polygon fill="none" stroke="#000000" points="594,-382.5 594,-412.5 925,-412.5 925,-382.5 594,-382.5"/>
<text text-anchor="start" x="601" y="-393.9" font-family="Arial" font-size="14.00" fill="#000000">action_interval </text>
<text text-anchor="start" x="695.1304" y="-393.9" font-family="Arial" font-size="14.00" fill="#666666">[interval]</text>
<polygon fill="none" stroke="#000000" points="594,-352.5 594,-382.5 925,-382.5 925,-352.5 594,-352.5"/>
<text text-anchor="start" x="601" y="-363.9" font-family="Arial" font-size="14.00" fill="#000000">action </text>
<text text-anchor="start" x="642.2356" y="-363.9" font-family="Arial" font-size="14.00" fill="#666666">[integer]</text>
<polygon fill="none" stroke="#000000" stroke-width="3" points="592,-351.5 592,-509.5 926,-509.5 926,-351.5 592,-351.5"/>
</g>
<!-- acq.claim_policy -->
<g id="node2" class="node">
<title>acq.claim_policy</title>
<polygon fill="#efefef" stroke="transparent" points="424,-177.5 424,-212.5 697,-212.5 697,-177.5 424,-177.5"/>
<polygon fill="none" stroke="#000000" points="424,-177.5 424,-212.5 697,-212.5 697,-177.5 424,-177.5"/>
<text text-anchor="start" x="430.7118" y="-190.3" font-family="Arial Bold" font-size="18.00" fill="#000000">acq.claim_policy</text>
<text text-anchor="start" x="562.7202" y="-190.3" font-family="Arial" font-size="14.00" fill="#000000">    </text>
<text text-anchor="start" x="596.925" y="-190.3" font-family="Arial" font-size="14.00" fill="#666666">[BASE TABLE]</text>
<polygon fill="none" stroke="#000000" points="424,-147.5 424,-177.5 697,-177.5 697,-147.5 424,-147.5"/>
<text text-anchor="start" x="431" y="-158.9" font-family="Arial" font-size="14.00" fill="#000000">id    </text>
<text text-anchor="start" x="476.094" y="-158.9" font-family="Arial" font-size="14.00" fill="#666666">[integer]</text>
<polygon fill="none" stroke="#000000" points="424,-117.5 424,-147.5 697,-147.5 697,-117.5 424,-117.5"/>
<text text-anchor="start" x="431" y="-128.9" font-family="Arial" font-size="14.00" fill="#000000">org_unit    </text>
<text text-anchor="start" x="515.7756" y="-128.9" font-family="Arial" font-size="14.00" fill="#666666">[integer]</text>
<polygon fill="none" stroke="#000000" points="424,-87.5 424,-117.5 697,-117.5 697,-87.5 424,-87.5"/>
<text text-anchor="start" x="431" y="-98.9" font-family="Arial" font-size="14.00" fill="#000000">name    </text>
<text text-anchor="start" x="500.2132" y="-98.9" font-family="Arial" font-size="14.00" fill="#666666">[text]</text>
<polygon fill="none" stroke="#000000" points="424,-57.5 424,-87.5 697,-87.5 697,-57.5 424,-57.5"/>
<text text-anchor="start" x="431" y="-68.9" font-family="Arial" font-size="14.00" fill="#000000">description    </text>
<text text-anchor="start" x="532.8822" y="-68.9" font-family="Arial" font-size="14.00" fill="#666666">[text]</text>
</g>
<!-- acq.claim_policy_action&#45;&gt;acq.claim_policy -->
<g id="edge1" class="edge">
<title>acq.claim_policy_action:claim_policy&#45;&gt;acq.claim_policy:id</title>
<path fill="none" stroke="#000000" d="M583.8464,-426.424C544.0183,-417.0993 567.7415,-349.3028 594,-307 620.9399,-263.5993 670.0601,-299.4007 697,-256 718.9158,-220.6933 738.5556,-162.5 697,-162.5"/>
<polygon fill="#000000" stroke="#000000" points="584.0557,-426.4461 593.5257,-431.9749 589.0278,-426.973 594,-427.5 594,-427.5 594,-427.5 589.0278,-426.973 594.4743,-423.0251 584.0557,-426.4461 584.0557,-426.4461"/>
<text text-anchor="start" x="6.7195" y="-437.5" font-family="Arial" font-size="10.00" fill="#000000">FOREIGN KEY (claim_policy) REFERENCES acq.claim_policy(id) ON DELETE CASCADE DEFERRABLE INITIALLY DEFERRED</text>
</g>
<!-- acq.claim_event_type -->
<g id="node3" class="node">
<title>acq.claim_event_type</title>
<polygon fill="#efefef" stroke="transparent" points="801,-192.5 801,-227.5 1116,-227.5 1116,-192.5 801,-192.5"/>
<polygon fill="none" stroke="#000000" points="801,-192.5 801,-227.5 1116,-227.5 1116,-192.5 801,-192.5"/>
<text text-anchor="start" x="807.6914" y="-205.3" font-family="Arial Bold" font-size="18.00" fill="#000000">acq.claim_event_type</text>
<text text-anchor="start" x="981.7406" y="-205.3" font-family="Arial" font-size="14.00" fill="#000000">    </text>
<text text-anchor="start" x="1015.9454" y="-205.3" font-family="Arial" font-size="14.00" fill="#666666">[BASE TABLE]</text>
<polygon fill="none" stroke="#000000" points="801,-162.5 801,-192.5 1116,-192.5 1116,-162.5 801,-162.5"/>
<text text-anchor="start" x="808" y="-173.9" font-family="Arial" font-size="14.00" fill="#000000">id    </text>
<text text-anchor="start" x="853.094" y="-173.9" font-family="Arial" font-size="14.00" fill="#666666">[integer]</text>
<polygon fill="none" stroke="#000000" points="801,-132.5 801,-162.5 1116,-162.5 1116,-132.5 801,-132.5"/>
<text text-anchor="start" x="808" y="-143.9" font-family="Arial" font-size="14.00" fill="#000000">org_unit    </text>
<text text-anchor="start" x="892.7756" y="-143.9" font-family="Arial" font-size="14.00" fill="#666666">[integer]</text>
<polygon fill="none" stroke="#000000" points="801,-102.5 801,-132.5 1116,-132.5 1116,-102.5 801,-102.5"/>
<text text-anchor="start" x="808" y="-113.9" font-family="Arial" font-size="14.00" fill="#000000">code    </text>
<text text-anchor="start" x="872.5526" y="-113.9" font-family="Arial" font-size="14.00" fill="#666666">[text]</text>
<polygon fill="none" stroke="#000000" points="801,-72.5 801,-102.5 1116,-102.5 1116,-72.5 801,-72.5"/>
<text text-anchor="start" x="808" y="-83.9" font-family="Arial" font-size="14.00" fill="#000000">description    </text>
<text text-anchor="start" x="909.8822" y="-83.9" font-family="Arial" font-size="14.00" fill="#666666">[text]</text>
<polygon fill="none" stroke="#000000" points="801,-42.5 801,-72.5 1116,-72.5 1116,-42.5 801,-42.5"/>
<text text-anchor="start" x="808" y="-53.9" font-family="Arial" font-size="14.00" fill="#000000">library_initiated    </text>
<text text-anchor="start" x="936.3184" y="-53.9" font-family="Arial" font-size="14.00" fill="#666666">[boolean]</text>
</g>
<!-- acq.claim_policy_action&#45;&gt;acq.claim_event_type -->
<g id="edge2" class="edge">
<title>acq.claim_policy_action:action&#45;&gt;acq.claim_event_type:id</title>
<path fill="none" stroke="#000000" d="M934.9709,-364.8592C948.4,-355.74 938.6237,-325.1416 925,-307 890.5395,-261.112 835.4605,-316.888 801,-271 776.0461,-237.771 759.4444,-177.5 801,-177.5"/>
<polygon fill="#000000" stroke="#000000" points="934.6667,-364.9397 923.8478,-363.15 929.8333,-366.2198 925,-367.5 925,-367.5 925,-367.5 929.8333,-366.2198 926.1522,-371.85 934.6667,-364.9397 934.6667,-364.9397"/>
<text text-anchor="start" x="932.2055" y="-377.5" font-family="Arial" font-size="10.00" fill="#000000">FOREIGN KEY (action) REFERENCES acq.claim_event_type(id) DEFERRABLE INITIALLY DEFERRED</text>
</g>
</g>
</svg>
