<?xml version="1.0" encoding="UTF-8" standalone="no"?>
<!DOCTYPE svg PUBLIC "-//W3C//DTD SVG 1.1//EN"
 "http://www.w3.org/Graphics/SVG/1.1/DTD/svg11.dtd">
<!-- Generated by graphviz version 2.40.1 (20161225.0304)
 -->
<!-- Title: acq.lineitem_alert_text Pages: 1 -->
<svg width="1113pt" height="1229pt"
 viewBox="0.00 0.00 1113.00 1229.00" xmlns="http://www.w3.org/2000/svg" xmlns:xlink="http://www.w3.org/1999/xlink">
<g id="graph0" class="graph" transform="scale(1 1) rotate(0) translate(4 1225)">
<title>acq.lineitem_alert_text</title>
<polygon fill="#ffffff" stroke="transparent" points="-4,4 -4,-1225 1109,-1225 1109,4 -4,4"/>
<!-- acq.lineitem_alert_text -->
<g id="node1" class="node">
<title>acq.lineitem_alert_text</title>
<polygon fill="#efefef" stroke="transparent" points="480,-712.5 480,-747.5 801,-747.5 801,-712.5 480,-712.5"/>
<polygon fill="none" stroke="#000000" points="480,-712.5 480,-747.5 801,-747.5 801,-712.5 480,-712.5"/>
<text text-anchor="start" x="486.6989" y="-725.3" font-family="Arial Bold" font-size="18.00" fill="#000000">acq.lineitem_alert_text</text>
<text text-anchor="start" x="666.7331" y="-725.3" font-family="Arial" font-size="14.00" fill="#000000">    </text>
<text text-anchor="start" x="700.9379" y="-725.3" font-family="Arial" font-size="14.00" fill="#666666">[BASE TABLE]</text>
<polygon fill="none" stroke="#000000" points="480,-682.5 480,-712.5 801,-712.5 801,-682.5 480,-682.5"/>
<text text-anchor="start" x="487" y="-693.9" font-family="Arial" font-size="14.00" fill="#000000">id </text>
<text text-anchor="start" x="501.7798" y="-693.9" font-family="Arial" font-size="14.00" fill="#666666">[integer]</text>
<polygon fill="none" stroke="#000000" points="480,-652.5 480,-682.5 801,-682.5 801,-652.5 480,-652.5"/>
<text text-anchor="start" x="487" y="-663.9" font-family="Arial" font-size="14.00" fill="#000000">code </text>
<text text-anchor="start" x="521.2384" y="-663.9" font-family="Arial" font-size="14.00" fill="#666666">[text]</text>
<polygon fill="none" stroke="#000000" points="480,-622.5 480,-652.5 801,-652.5 801,-622.5 480,-622.5"/>
<text text-anchor="start" x="487" y="-633.9" font-family="Arial" font-size="14.00" fill="#000000">description </text>
<text text-anchor="start" x="558.568" y="-633.9" font-family="Arial" font-size="14.00" fill="#666666">[text]</text>
<polygon fill="none" stroke="#000000" points="480,-592.5 480,-622.5 801,-622.5 801,-592.5 480,-592.5"/>
<text text-anchor="start" x="487" y="-603.9" font-family="Arial" font-size="14.00" fill="#000000">owning_lib </text>
<text text-anchor="start" x="557.0126" y="-603.9" font-family="Arial" font-size="14.00" fill="#666666">[integer]</text>
<polygon fill="none" stroke="#000000" stroke-width="3" points="478,-591.5 478,-749.5 802,-749.5 802,-591.5 478,-591.5"/>
</g>
<!-- actor.org_unit -->
<g id="node3" class="node">
<title>actor.org_unit</title>
<polygon fill="#efefef" stroke="transparent" points="515,-432.5 515,-467.5 766,-467.5 766,-432.5 515,-432.5"/>
<polygon fill="none" stroke="#000000" points="515,-432.5 515,-467.5 766,-467.5 766,-432.5 515,-432.5"/>
<text text-anchor="start" x="521.7017" y="-445.3" font-family="Arial Bold" font-size="18.00" fill="#000000">actor.org_unit</text>
<text text-anchor="start" x="631.7303" y="-445.3" font-family="Arial" font-size="14.00" fill="#000000">    </text>
<text text-anchor="start" x="665.9351" y="-445.3" font-family="Arial" font-size="14.00" fill="#666666">[BASE TABLE]</text>
<polygon fill="none" stroke="#000000" points="515,-402.5 515,-432.5 766,-432.5 766,-402.5 515,-402.5"/>
<text text-anchor="start" x="522" y="-413.9" font-family="Arial" font-size="14.00" fill="#000000">id    </text>
<text text-anchor="start" x="567.094" y="-413.9" font-family="Arial" font-size="14.00" fill="#666666">[integer]</text>
<polygon fill="none" stroke="#000000" points="515,-372.5 515,-402.5 766,-402.5 766,-372.5 515,-372.5"/>
<text text-anchor="start" x="522" y="-383.9" font-family="Arial" font-size="14.00" fill="#000000">parent_ou    </text>
<text text-anchor="start" x="619.2342" y="-383.9" font-family="Arial" font-size="14.00" fill="#666666">[integer]</text>
<polygon fill="none" stroke="#000000" points="515,-342.5 515,-372.5 766,-372.5 766,-342.5 515,-342.5"/>
<text text-anchor="start" x="522" y="-353.9" font-family="Arial" font-size="14.00" fill="#000000">ou_type    </text>
<text text-anchor="start" x="606.0084" y="-353.9" font-family="Arial" font-size="14.00" fill="#666666">[integer]</text>
<polygon fill="none" stroke="#000000" points="515,-312.5 515,-342.5 766,-342.5 766,-312.5 515,-312.5"/>
<text text-anchor="start" x="522" y="-323.9" font-family="Arial" font-size="14.00" fill="#000000">ill_address    </text>
<text text-anchor="start" x="623.0982" y="-323.9" font-family="Arial" font-size="14.00" fill="#666666">[integer]</text>
<polygon fill="none" stroke="#000000" points="515,-282.5 515,-312.5 766,-312.5 766,-282.5 515,-282.5"/>
<text text-anchor="start" x="522" y="-293.9" font-family="Arial" font-size="14.00" fill="#000000">holds_address    </text>
<text text-anchor="start" x="647.2328" y="-293.9" font-family="Arial" font-size="14.00" fill="#666666">[integer]</text>
<polygon fill="none" stroke="#000000" points="515,-252.5 515,-282.5 766,-282.5 766,-252.5 515,-252.5"/>
<text text-anchor="start" x="522" y="-263.9" font-family="Arial" font-size="14.00" fill="#000000">mailing_address    </text>
<text text-anchor="start" x="658.1066" y="-263.9" font-family="Arial" font-size="14.00" fill="#666666">[integer]</text>
<polygon fill="none" stroke="#000000" points="515,-222.5 515,-252.5 766,-252.5 766,-222.5 515,-222.5"/>
<text text-anchor="start" x="522" y="-233.9" font-family="Arial" font-size="14.00" fill="#000000">billing_address    </text>
<text text-anchor="start" x="649.5526" y="-233.9" font-family="Arial" font-size="14.00" fill="#666666">[integer]</text>
<polygon fill="none" stroke="#000000" points="515,-192.5 515,-222.5 766,-222.5 766,-192.5 515,-192.5"/>
<text text-anchor="start" x="522" y="-203.9" font-family="Arial" font-size="14.00" fill="#000000">shortname    </text>
<text text-anchor="start" x="622.3296" y="-203.9" font-family="Arial" font-size="14.00" fill="#666666">[text]</text>
<polygon fill="none" stroke="#000000" points="515,-162.5 515,-192.5 766,-192.5 766,-162.5 515,-162.5"/>
<text text-anchor="start" x="522" y="-173.9" font-family="Arial" font-size="14.00" fill="#000000">name    </text>
<text text-anchor="start" x="591.2132" y="-173.9" font-family="Arial" font-size="14.00" fill="#666666">[text]</text>
<polygon fill="none" stroke="#000000" points="515,-132.5 515,-162.5 766,-162.5 766,-132.5 515,-132.5"/>
<text text-anchor="start" x="522" y="-143.9" font-family="Arial" font-size="14.00" fill="#000000">email    </text>
<text text-anchor="start" x="589.6438" y="-143.9" font-family="Arial" font-size="14.00" fill="#666666">[text]</text>
<polygon fill="none" stroke="#000000" points="515,-102.5 515,-132.5 766,-132.5 766,-102.5 515,-102.5"/>
<text text-anchor="start" x="522" y="-113.9" font-family="Arial" font-size="14.00" fill="#000000">phone    </text>
<text text-anchor="start" x="595.1178" y="-113.9" font-family="Arial" font-size="14.00" fill="#666666">[text]</text>
<polygon fill="none" stroke="#000000" points="515,-72.5 515,-102.5 766,-102.5 766,-72.5 515,-72.5"/>
<text text-anchor="start" x="522" y="-83.9" font-family="Arial" font-size="14.00" fill="#000000">opac_visible    </text>
<text text-anchor="start" x="633.2202" y="-83.9" font-family="Arial" font-size="14.00" fill="#666666">[boolean]</text>
<polygon fill="none" stroke="#000000" points="515,-42.5 515,-72.5 766,-72.5 766,-42.5 515,-42.5"/>
<text text-anchor="start" x="522" y="-53.9" font-family="Arial" font-size="14.00" fill="#000000">fiscal_calendar    </text>
<text text-anchor="start" x="649.554" y="-53.9" font-family="Arial" font-size="14.00" fill="#666666">[integer]</text>
</g>
<!-- acq.lineitem_alert_text&#45;&gt;actor.org_unit -->
<g id="edge2" class="edge">
<title>acq.lineitem_alert_text:owning_lib&#45;&gt;actor.org_unit:id</title>
<path fill="none" stroke="#000000" d="M640.1811,-582.5144C630.8914,-530.2882 545.1335,-566.3789 515,-511 495.1382,-474.4983 473.4444,-417.5 515,-417.5"/>
<polygon fill="#000000" stroke="#000000" points="640.1826,-582.5335 636.5151,-592.8678 640.5913,-587.5167 641,-592.5 641,-592.5 641,-592.5 640.5913,-587.5167 645.4849,-592.1322 640.1826,-582.5335 640.1826,-582.5335"/>
<text text-anchor="start" x="647.7115" y="-602.5" font-family="Arial" font-size="10.00" fill="#000000">FOREIGN KEY (owning_lib) REFERENCES actor.org_unit(id) DEFERRABLE INITIALLY DEFERRED</text>
</g>
<!-- acq.lineitem_note -->
<g id="node2" class="node">
<title>acq.lineitem_note</title>
<polygon fill="#efefef" stroke="transparent" points="497,-1142.5 497,-1177.5 784,-1177.5 784,-1142.5 497,-1142.5"/>
<polygon fill="none" stroke="#000000" points="497,-1142.5 497,-1177.5 784,-1177.5 784,-1142.5 497,-1142.5"/>
<text text-anchor="start" x="506.1974" y="-1155.3" font-family="Arial Bold" font-size="18.00" fill="#000000">acq.lineitem_note</text>
<text text-anchor="start" x="647.2346" y="-1155.3" font-family="Arial" font-size="14.00" fill="#000000">    </text>
<text text-anchor="start" x="681.4394" y="-1155.3" font-family="Arial" font-size="14.00" fill="#666666">[BASE TABLE]</text>
<polygon fill="none" stroke="#000000" points="497,-1112.5 497,-1142.5 784,-1142.5 784,-1112.5 497,-1112.5"/>
<text text-anchor="start" x="504" y="-1123.9" font-family="Arial" font-size="14.00" fill="#000000">id    </text>
<text text-anchor="start" x="549.094" y="-1123.9" font-family="Arial" font-size="14.00" fill="#666666">[integer]</text>
<polygon fill="none" stroke="#000000" points="497,-1082.5 497,-1112.5 784,-1112.5 784,-1082.5 497,-1082.5"/>
<text text-anchor="start" x="504" y="-1093.9" font-family="Arial" font-size="14.00" fill="#000000">lineitem    </text>
<text text-anchor="start" x="586.4236" y="-1093.9" font-family="Arial" font-size="14.00" fill="#666666">[integer]</text>
<polygon fill="none" stroke="#000000" points="497,-1052.5 497,-1082.5 784,-1082.5 784,-1052.5 497,-1052.5"/>
<text text-anchor="start" x="504" y="-1063.9" font-family="Arial" font-size="14.00" fill="#000000">creator    </text>
<text text-anchor="start" x="581.7644" y="-1063.9" font-family="Arial" font-size="14.00" fill="#666666">[integer]</text>
<polygon fill="none" stroke="#000000" points="497,-1022.5 497,-1052.5 784,-1052.5 784,-1022.5 497,-1022.5"/>
<text text-anchor="start" x="504" y="-1033.9" font-family="Arial" font-size="14.00" fill="#000000">editor    </text>
<text text-anchor="start" x="573.2104" y="-1033.9" font-family="Arial" font-size="14.00" fill="#666666">[integer]</text>
<polygon fill="none" stroke="#000000" points="497,-992.5 497,-1022.5 784,-1022.5 784,-992.5 497,-992.5"/>
<text text-anchor="start" x="503.9944" y="-1003.9" font-family="Arial" font-size="14.00" fill="#000000">create_time    </text>
<text text-anchor="start" x="611.3212" y="-1003.9" font-family="Arial" font-size="14.00" fill="#666666">[timestamp with time zone]</text>
<polygon fill="none" stroke="#000000" points="497,-962.5 497,-992.5 784,-992.5 784,-962.5 497,-962.5"/>
<text text-anchor="start" x="504" y="-973.9" font-family="Arial" font-size="14.00" fill="#000000">edit_time    </text>
<text text-anchor="start" x="594.9902" y="-973.9" font-family="Arial" font-size="14.00" fill="#666666">[timestamp with time zone]</text>
<polygon fill="none" stroke="#000000" points="497,-932.5 497,-962.5 784,-962.5 784,-932.5 497,-932.5"/>
<text text-anchor="start" x="504" y="-943.9" font-family="Arial" font-size="14.00" fill="#000000">value    </text>
<text text-anchor="start" x="571.6592" y="-943.9" font-family="Arial" font-size="14.00" fill="#666666">[text]</text>
<polygon fill="none" stroke="#000000" points="497,-902.5 497,-932.5 784,-932.5 784,-902.5 497,-902.5"/>
<text text-anchor="start" x="504" y="-913.9" font-family="Arial" font-size="14.00" fill="#000000">alert_text    </text>
<text text-anchor="start" x="595.7742" y="-913.9" font-family="Arial" font-size="14.00" fill="#666666">[integer]</text>
<polygon fill="none" stroke="#000000" points="497,-872.5 497,-902.5 784,-902.5 784,-872.5 497,-872.5"/>
<text text-anchor="start" x="504" y="-883.9" font-family="Arial" font-size="14.00" fill="#000000">vendor_public    </text>
<text text-anchor="start" x="625.3394" y="-883.9" font-family="Arial" font-size="14.00" fill="#666666">[boolean]</text>
</g>
<!-- acq.lineitem_note&#45;&gt;acq.lineitem_alert_text -->
<g id="edge1" class="edge">
<title>acq.lineitem_note:alert_text&#45;&gt;acq.lineitem_alert_text:id</title>
<path fill="none" stroke="#000000" d="M486.9588,-916.7034C397.8776,-902.3032 385.3785,-697.5 480,-697.5"/>
<polygon fill="#000000" stroke="#000000" points="487.0313,-916.709 496.6441,-921.9859 492.0157,-917.1045 497,-917.5 497,-917.5 497,-917.5 492.0157,-917.1045 497.3559,-913.0141 487.0313,-916.709 487.0313,-916.709"/>
<text text-anchor="start" x="7.32" y="-927.5" font-family="Arial" font-size="10.00" fill="#000000">FOREIGN KEY (alert_text) REFERENCES acq.lineitem_alert_text(id) DEFERRABLE INITIALLY DEFERRED</text>
</g>
</g>
</svg>
