<?xml version="1.0" encoding="UTF-8" standalone="no"?>
<!DOCTYPE svg PUBLIC "-//W3C//DTD SVG 1.1//EN"
 "http://www.w3.org/Graphics/SVG/1.1/DTD/svg11.dtd">
<!-- Generated by graphviz version 2.40.1 (20161225.0304)
 -->
<!-- Title: acq.claim Pages: 1 -->
<svg width="1181pt" height="1169pt"
 viewBox="0.00 0.00 1181.00 1169.00" xmlns="http://www.w3.org/2000/svg" xmlns:xlink="http://www.w3.org/1999/xlink">
<g id="graph0" class="graph" transform="scale(1 1) rotate(0) translate(4 1165)">
<title>acq.claim</title>
<polygon fill="#ffffff" stroke="transparent" points="-4,4 -4,-1165 1177,-1165 1177,4 -4,4"/>
<!-- acq.claim -->
<g id="node1" class="node">
<title>acq.claim</title>
<polygon fill="#efefef" stroke="transparent" points="454,-742.5 454,-777.5 671,-777.5 671,-742.5 454,-742.5"/>
<polygon fill="none" stroke="#000000" points="454,-742.5 454,-777.5 671,-777.5 671,-742.5 454,-742.5"/>
<text text-anchor="start" x="460.7153" y="-755.3" font-family="Arial Bold" font-size="18.00" fill="#000000">acq.claim</text>
<text text-anchor="start" x="536.7167" y="-755.3" font-family="Arial" font-size="14.00" fill="#000000">    </text>
<text text-anchor="start" x="570.9215" y="-755.3" font-family="Arial" font-size="14.00" fill="#666666">[BASE TABLE]</text>
<polygon fill="none" stroke="#000000" points="454,-712.5 454,-742.5 671,-742.5 671,-712.5 454,-712.5"/>
<text text-anchor="start" x="461" y="-723.9" font-family="Arial" font-size="14.00" fill="#000000">id </text>
<text text-anchor="start" x="475.7798" y="-723.9" font-family="Arial" font-size="14.00" fill="#666666">[integer]</text>
<polygon fill="none" stroke="#000000" points="454,-682.5 454,-712.5 671,-712.5 671,-682.5 454,-682.5"/>
<text text-anchor="start" x="461" y="-693.9" font-family="Arial" font-size="14.00" fill="#000000">type </text>
<text text-anchor="start" x="491.3464" y="-693.9" font-family="Arial" font-size="14.00" fill="#666666">[integer]</text>
<polygon fill="none" stroke="#000000" points="454,-652.5 454,-682.5 671,-682.5 671,-652.5 454,-652.5"/>
<text text-anchor="start" x="461" y="-663.9" font-family="Arial" font-size="14.00" fill="#000000">lineitem_detail </text>
<text text-anchor="start" x="554.3436" y="-663.9" font-family="Arial" font-size="14.00" fill="#666666">[bigint]</text>
<polygon fill="none" stroke="#000000" stroke-width="3" points="452,-651.5 452,-779.5 672,-779.5 672,-651.5 452,-651.5"/>
</g>
<!-- acq.claim_type -->
<g id="node3" class="node">
<title>acq.claim_type</title>
<polygon fill="#efefef" stroke="transparent" points="243,-327.5 243,-362.5 504,-362.5 504,-327.5 243,-327.5"/>
<polygon fill="none" stroke="#000000" points="243,-327.5 243,-362.5 504,-362.5 504,-327.5 243,-327.5"/>
<text text-anchor="start" x="249.7049" y="-340.3" font-family="Arial Bold" font-size="18.00" fill="#000000">acq.claim_type</text>
<text text-anchor="start" x="369.7271" y="-340.3" font-family="Arial" font-size="14.00" fill="#000000">    </text>
<text text-anchor="start" x="403.9319" y="-340.3" font-family="Arial" font-size="14.00" fill="#666666">[BASE TABLE]</text>
<polygon fill="none" stroke="#000000" points="243,-297.5 243,-327.5 504,-327.5 504,-297.5 243,-297.5"/>
<text text-anchor="start" x="250" y="-308.9" font-family="Arial" font-size="14.00" fill="#000000">id    </text>
<text text-anchor="start" x="295.094" y="-308.9" font-family="Arial" font-size="14.00" fill="#666666">[integer]</text>
<polygon fill="none" stroke="#000000" points="243,-267.5 243,-297.5 504,-297.5 504,-267.5 243,-267.5"/>
<text text-anchor="start" x="250" y="-278.9" font-family="Arial" font-size="14.00" fill="#000000">org_unit    </text>
<text text-anchor="start" x="334.7756" y="-278.9" font-family="Arial" font-size="14.00" fill="#666666">[integer]</text>
<polygon fill="none" stroke="#000000" points="243,-237.5 243,-267.5 504,-267.5 504,-237.5 243,-237.5"/>
<text text-anchor="start" x="250" y="-248.9" font-family="Arial" font-size="14.00" fill="#000000">code    </text>
<text text-anchor="start" x="314.5526" y="-248.9" font-family="Arial" font-size="14.00" fill="#666666">[text]</text>
<polygon fill="none" stroke="#000000" points="243,-207.5 243,-237.5 504,-237.5 504,-207.5 243,-207.5"/>
<text text-anchor="start" x="250" y="-218.9" font-family="Arial" font-size="14.00" fill="#000000">description    </text>
<text text-anchor="start" x="351.8822" y="-218.9" font-family="Arial" font-size="14.00" fill="#666666">[text]</text>
</g>
<!-- acq.claim&#45;&gt;acq.claim_type -->
<g id="edge2" class="edge">
<title>acq.claim:type&#45;&gt;acq.claim_type:id</title>
<path fill="none" stroke="#000000" d="M443.6535,-696.9745C298.1667,-681.1347 672.841,-312.5 504,-312.5"/>
<polygon fill="#000000" stroke="#000000" points="444.0129,-696.9927 453.7717,-701.9942 449.0064,-697.2463 454,-697.5 454,-697.5 454,-697.5 449.0064,-697.2463 454.2283,-693.0058 444.0129,-696.9927 444.0129,-696.9927"/>
<text text-anchor="start" x="20.102" y="-707.5" font-family="Arial" font-size="10.00" fill="#000000">FOREIGN KEY (type) REFERENCES acq.claim_type(id) DEFERRABLE INITIALLY DEFERRED</text>
</g>
<!-- acq.lineitem_detail -->
<g id="node4" class="node">
<title>acq.lineitem_detail</title>
<polygon fill="#efefef" stroke="transparent" points="608,-492.5 608,-527.5 898,-527.5 898,-492.5 608,-492.5"/>
<polygon fill="none" stroke="#000000" points="608,-492.5 608,-527.5 898,-527.5 898,-492.5 608,-492.5"/>
<text text-anchor="start" x="614.7032" y="-505.3" font-family="Arial Bold" font-size="18.00" fill="#000000">acq.lineitem_detail</text>
<text text-anchor="start" x="763.7288" y="-505.3" font-family="Arial" font-size="14.00" fill="#000000">    </text>
<text text-anchor="start" x="797.9336" y="-505.3" font-family="Arial" font-size="14.00" fill="#666666">[BASE TABLE]</text>
<polygon fill="none" stroke="#000000" points="608,-462.5 608,-492.5 898,-492.5 898,-462.5 608,-462.5"/>
<text text-anchor="start" x="615" y="-473.9" font-family="Arial" font-size="14.00" fill="#000000">id    </text>
<text text-anchor="start" x="660.094" y="-473.9" font-family="Arial" font-size="14.00" fill="#666666">[bigint]</text>
<polygon fill="none" stroke="#000000" points="608,-432.5 608,-462.5 898,-462.5 898,-432.5 608,-432.5"/>
<text text-anchor="start" x="615" y="-443.9" font-family="Arial" font-size="14.00" fill="#000000">lineitem    </text>
<text text-anchor="start" x="697.4236" y="-443.9" font-family="Arial" font-size="14.00" fill="#666666">[integer]</text>
<polygon fill="none" stroke="#000000" points="608,-402.5 608,-432.5 898,-432.5 898,-402.5 608,-402.5"/>
<text text-anchor="start" x="615" y="-413.9" font-family="Arial" font-size="14.00" fill="#000000">fund    </text>
<text text-anchor="start" x="676.4432" y="-413.9" font-family="Arial" font-size="14.00" fill="#666666">[integer]</text>
<polygon fill="none" stroke="#000000" points="608,-372.5 608,-402.5 898,-402.5 898,-372.5 608,-372.5"/>
<text text-anchor="start" x="615" y="-383.9" font-family="Arial" font-size="14.00" fill="#000000">fund_debit    </text>
<text text-anchor="start" x="714.5708" y="-383.9" font-family="Arial" font-size="14.00" fill="#666666">[integer]</text>
<polygon fill="none" stroke="#000000" points="608,-342.5 608,-372.5 898,-372.5 898,-342.5 608,-342.5"/>
<text text-anchor="start" x="615" y="-353.9" font-family="Arial" font-size="14.00" fill="#000000">eg_copy_id    </text>
<text text-anchor="start" x="720.7896" y="-353.9" font-family="Arial" font-size="14.00" fill="#666666">[bigint]</text>
<polygon fill="none" stroke="#000000" points="608,-312.5 608,-342.5 898,-342.5 898,-312.5 608,-312.5"/>
<text text-anchor="start" x="615" y="-323.9" font-family="Arial" font-size="14.00" fill="#000000">barcode    </text>
<text text-anchor="start" x="699.7784" y="-323.9" font-family="Arial" font-size="14.00" fill="#666666">[text]</text>
<polygon fill="none" stroke="#000000" points="608,-282.5 608,-312.5 898,-312.5 898,-282.5 608,-282.5"/>
<text text-anchor="start" x="615" y="-293.9" font-family="Arial" font-size="14.00" fill="#000000">cn_label    </text>
<text text-anchor="start" x="701.331" y="-293.9" font-family="Arial" font-size="14.00" fill="#666666">[text]</text>
<polygon fill="none" stroke="#000000" points="608,-252.5 608,-282.5 898,-282.5 898,-252.5 608,-252.5"/>
<text text-anchor="start" x="615" y="-263.9" font-family="Arial" font-size="14.00" fill="#000000">note    </text>
<text text-anchor="start" x="676.4432" y="-263.9" font-family="Arial" font-size="14.00" fill="#666666">[text]</text>
<polygon fill="none" stroke="#000000" points="608,-222.5 608,-252.5 898,-252.5 898,-222.5 608,-222.5"/>
<text text-anchor="start" x="615" y="-233.9" font-family="Arial" font-size="14.00" fill="#000000">collection_code    </text>
<text text-anchor="start" x="745.676" y="-233.9" font-family="Arial" font-size="14.00" fill="#666666">[text]</text>
<polygon fill="none" stroke="#000000" points="608,-192.5 608,-222.5 898,-222.5 898,-192.5 608,-192.5"/>
<text text-anchor="start" x="615" y="-203.9" font-family="Arial" font-size="14.00" fill="#000000">circ_modifier    </text>
<text text-anchor="start" x="728.5274" y="-203.9" font-family="Arial" font-size="14.00" fill="#666666">[text]</text>
<polygon fill="none" stroke="#000000" points="608,-162.5 608,-192.5 898,-192.5 898,-162.5 608,-162.5"/>
<text text-anchor="start" x="615" y="-173.9" font-family="Arial" font-size="14.00" fill="#000000">owning_lib    </text>
<text text-anchor="start" x="715.3268" y="-173.9" font-family="Arial" font-size="14.00" fill="#666666">[integer]</text>
<polygon fill="none" stroke="#000000" points="608,-132.5 608,-162.5 898,-162.5 898,-132.5 608,-132.5"/>
<text text-anchor="start" x="615" y="-143.9" font-family="Arial" font-size="14.00" fill="#000000">location    </text>
<text text-anchor="start" x="697.439" y="-143.9" font-family="Arial" font-size="14.00" fill="#666666">[integer]</text>
<polygon fill="none" stroke="#000000" points="608,-102.5 608,-132.5 898,-132.5 898,-102.5 608,-102.5"/>
<text text-anchor="start" x="615" y="-113.9" font-family="Arial" font-size="14.00" fill="#000000">recv_time    </text>
<text text-anchor="start" x="709.871" y="-113.9" font-family="Arial" font-size="14.00" fill="#666666">[timestamp with time zone]</text>
<polygon fill="none" stroke="#000000" points="608,-72.5 608,-102.5 898,-102.5 898,-72.5 608,-72.5"/>
<text text-anchor="start" x="615" y="-83.9" font-family="Arial" font-size="14.00" fill="#000000">receiver    </text>
<text text-anchor="start" x="698.9804" y="-83.9" font-family="Arial" font-size="14.00" fill="#666666">[integer]</text>
<polygon fill="none" stroke="#000000" points="608,-42.5 608,-72.5 898,-72.5 898,-42.5 608,-42.5"/>
<text text-anchor="start" x="615" y="-53.9" font-family="Arial" font-size="14.00" fill="#000000">cancel_reason    </text>
<text text-anchor="start" x="740.2328" y="-53.9" font-family="Arial" font-size="14.00" fill="#666666">[integer]</text>
</g>
<!-- acq.claim&#45;&gt;acq.lineitem_detail -->
<g id="edge3" class="edge">
<title>acq.claim:lineitem_detail&#45;&gt;acq.lineitem_detail:id</title>
<path fill="none" stroke="#000000" d="M680.8071,-664.9676C693.7012,-656.2029 682.3875,-626.6226 671,-607 654.8133,-579.1075 624.1867,-598.8925 608,-571 587.1422,-535.0582 566.4444,-477.5 608,-477.5"/>
<polygon fill="#000000" stroke="#000000" points="680.6824,-664.9998 669.8749,-663.1429 675.8412,-666.2499 671,-667.5 671,-667.5 671,-667.5 675.8412,-666.2499 672.1251,-671.8571 680.6824,-664.9998 680.6824,-664.9998"/>
<text text-anchor="start" x="677.5465" y="-677.5" font-family="Arial" font-size="10.00" fill="#000000">FOREIGN KEY (lineitem_detail) REFERENCES acq.lineitem_detail(id) DEFERRABLE INITIALLY DEFERRED</text>
</g>
<!-- acq.claim_event -->
<g id="node2" class="node">
<title>acq.claim_event</title>
<polygon fill="#efefef" stroke="transparent" points="421,-1082.5 421,-1117.5 704,-1117.5 704,-1082.5 421,-1082.5"/>
<polygon fill="none" stroke="#000000" points="421,-1082.5 421,-1117.5 704,-1117.5 704,-1082.5 421,-1082.5"/>
<text text-anchor="start" x="433.7018" y="-1095.3" font-family="Arial Bold" font-size="18.00" fill="#000000">acq.claim_event</text>
<text text-anchor="start" x="563.7302" y="-1095.3" font-family="Arial" font-size="14.00" fill="#000000">    </text>
<text text-anchor="start" x="597.935" y="-1095.3" font-family="Arial" font-size="14.00" fill="#666666">[BASE TABLE]</text>
<polygon fill="none" stroke="#000000" points="421,-1052.5 421,-1082.5 704,-1082.5 704,-1052.5 421,-1052.5"/>
<text text-anchor="start" x="428" y="-1063.9" font-family="Arial" font-size="14.00" fill="#000000">id    </text>
<text text-anchor="start" x="473.094" y="-1063.9" font-family="Arial" font-size="14.00" fill="#666666">[bigint]</text>
<polygon fill="none" stroke="#000000" points="421,-1022.5 421,-1052.5 704,-1052.5 704,-1022.5 421,-1022.5"/>
<text text-anchor="start" x="428" y="-1033.9" font-family="Arial" font-size="14.00" fill="#000000">type    </text>
<text text-anchor="start" x="488.6606" y="-1033.9" font-family="Arial" font-size="14.00" fill="#666666">[integer]</text>
<polygon fill="none" stroke="#000000" points="421,-992.5 421,-1022.5 704,-1022.5 704,-992.5 421,-992.5"/>
<text text-anchor="start" x="428" y="-1003.9" font-family="Arial" font-size="14.00" fill="#000000">claim    </text>
<text text-anchor="start" x="494.8612" y="-1003.9" font-family="Arial" font-size="14.00" fill="#666666">[integer]</text>
<polygon fill="none" stroke="#000000" points="421,-962.5 421,-992.5 704,-992.5 704,-962.5 421,-962.5"/>
<text text-anchor="start" x="427.9257" y="-973.9" font-family="Arial" font-size="14.00" fill="#000000">event_date    </text>
<text text-anchor="start" x="531.3899" y="-973.9" font-family="Arial" font-size="14.00" fill="#666666">[timestamp with time zone]</text>
<polygon fill="none" stroke="#000000" points="421,-932.5 421,-962.5 704,-962.5 704,-932.5 421,-932.5"/>
<text text-anchor="start" x="428" y="-943.9" font-family="Arial" font-size="14.00" fill="#000000">creator    </text>
<text text-anchor="start" x="505.7644" y="-943.9" font-family="Arial" font-size="14.00" fill="#666666">[integer]</text>
<polygon fill="none" stroke="#000000" points="421,-902.5 421,-932.5 704,-932.5 704,-902.5 421,-902.5"/>
<text text-anchor="start" x="428" y="-913.9" font-family="Arial" font-size="14.00" fill="#000000">note    </text>
<text text-anchor="start" x="489.4432" y="-913.9" font-family="Arial" font-size="14.00" fill="#666666">[text]</text>
</g>
<!-- acq.claim_event&#45;&gt;acq.claim -->
<g id="edge1" class="edge">
<title>acq.claim_event:claim&#45;&gt;acq.claim:id</title>
<path fill="none" stroke="#000000" d="M410.7333,-1006.839C297.6374,-991.8652 332.2429,-727.5 454,-727.5"/>
<polygon fill="#000000" stroke="#000000" points="411.0207,-1006.8574 420.7108,-1011.9907 416.0103,-1007.1787 421,-1007.5 421,-1007.5 421,-1007.5 416.0103,-1007.1787 421.2892,-1003.0093 411.0207,-1006.8574 411.0207,-1006.8574"/>
<text text-anchor="start" x="7.1155" y="-1017.5" font-family="Arial" font-size="10.00" fill="#000000">FOREIGN KEY (claim) REFERENCES acq.claim(id) DEFERRABLE INITIALLY DEFERRED</text>
</g>
</g>
</svg>
