<?xml version="1.0" encoding="UTF-8" standalone="no"?>
<!DOCTYPE svg PUBLIC "-//W3C//DTD SVG 1.1//EN"
 "http://www.w3.org/Graphics/SVG/1.1/DTD/svg11.dtd">
<!-- Generated by graphviz version 2.40.1 (20161225.0304)
 -->
<!-- Title: acq.picklist Pages: 1 -->
<svg width="826pt" height="2699pt"
 viewBox="0.00 0.00 825.50 2699.00" xmlns="http://www.w3.org/2000/svg" xmlns:xlink="http://www.w3.org/1999/xlink">
<g id="graph0" class="graph" transform="scale(1 1) rotate(0) translate(4 2695)">
<title>acq.picklist</title>
<polygon fill="#ffffff" stroke="transparent" points="-4,4 -4,-2695 821.5,-2695 821.5,4 -4,4"/>
<!-- acq.picklist -->
<g id="node1" class="node">
<title>acq.picklist</title>
<polygon fill="#efefef" stroke="transparent" points="85.5,-1912.5 85.5,-1947.5 341.5,-1947.5 341.5,-1912.5 85.5,-1912.5"/>
<polygon fill="none" stroke="#000000" points="85.5,-1912.5 85.5,-1947.5 341.5,-1947.5 341.5,-1912.5 85.5,-1912.5"/>
<text text-anchor="start" x="105.7132" y="-1925.3" font-family="Arial Bold" font-size="18.00" fill="#000000">acq.picklist</text>
<text text-anchor="start" x="193.7188" y="-1925.3" font-family="Arial" font-size="14.00" fill="#000000">    </text>
<text text-anchor="start" x="227.9236" y="-1925.3" font-family="Arial" font-size="14.00" fill="#666666">[BASE TABLE]</text>
<polygon fill="none" stroke="#000000" points="85.5,-1882.5 85.5,-1912.5 341.5,-1912.5 341.5,-1882.5 85.5,-1882.5"/>
<text text-anchor="start" x="92.5" y="-1893.9" font-family="Arial" font-size="14.00" fill="#000000">id </text>
<text text-anchor="start" x="107.2798" y="-1893.9" font-family="Arial" font-size="14.00" fill="#666666">[integer]</text>
<polygon fill="none" stroke="#000000" points="85.5,-1852.5 85.5,-1882.5 341.5,-1882.5 341.5,-1852.5 85.5,-1852.5"/>
<text text-anchor="start" x="92.5" y="-1863.9" font-family="Arial" font-size="14.00" fill="#000000">owner </text>
<text text-anchor="start" x="134.5056" y="-1863.9" font-family="Arial" font-size="14.00" fill="#666666">[integer]</text>
<polygon fill="none" stroke="#000000" points="85.5,-1822.5 85.5,-1852.5 341.5,-1852.5 341.5,-1822.5 85.5,-1822.5"/>
<text text-anchor="start" x="92.5" y="-1833.9" font-family="Arial" font-size="14.00" fill="#000000">creator </text>
<text text-anchor="start" x="139.9502" y="-1833.9" font-family="Arial" font-size="14.00" fill="#666666">[integer]</text>
<polygon fill="none" stroke="#000000" points="85.5,-1792.5 85.5,-1822.5 341.5,-1822.5 341.5,-1792.5 85.5,-1792.5"/>
<text text-anchor="start" x="92.5" y="-1803.9" font-family="Arial" font-size="14.00" fill="#000000">editor </text>
<text text-anchor="start" x="131.3962" y="-1803.9" font-family="Arial" font-size="14.00" fill="#666666">[integer]</text>
<polygon fill="none" stroke="#000000" points="85.5,-1762.5 85.5,-1792.5 341.5,-1792.5 341.5,-1762.5 85.5,-1762.5"/>
<text text-anchor="start" x="92.5" y="-1773.9" font-family="Arial" font-size="14.00" fill="#000000">org_unit </text>
<text text-anchor="start" x="146.9614" y="-1773.9" font-family="Arial" font-size="14.00" fill="#666666">[integer]</text>
<polygon fill="none" stroke="#000000" points="85.5,-1732.5 85.5,-1762.5 341.5,-1762.5 341.5,-1732.5 85.5,-1732.5"/>
<text text-anchor="start" x="92.5" y="-1743.9" font-family="Arial" font-size="14.00" fill="#000000">name </text>
<text text-anchor="start" x="131.399" y="-1743.9" font-family="Arial" font-size="14.00" fill="#666666">[text]</text>
<polygon fill="none" stroke="#000000" points="85.5,-1702.5 85.5,-1732.5 341.5,-1732.5 341.5,-1702.5 85.5,-1702.5"/>
<text text-anchor="start" x="92.1515" y="-1713.9" font-family="Arial" font-size="14.00" fill="#000000">create_time </text>
<text text-anchor="start" x="169.1641" y="-1713.9" font-family="Arial" font-size="14.00" fill="#666666">[timestamp with time zone]</text>
<polygon fill="none" stroke="#000000" points="85.5,-1672.5 85.5,-1702.5 341.5,-1702.5 341.5,-1672.5 85.5,-1672.5"/>
<text text-anchor="start" x="92.5" y="-1683.9" font-family="Arial" font-size="14.00" fill="#000000">edit_time </text>
<text text-anchor="start" x="153.176" y="-1683.9" font-family="Arial" font-size="14.00" fill="#666666">[timestamp with time zone]</text>
<polygon fill="none" stroke="#000000" stroke-width="3" points="84,-1671.5 84,-1949.5 343,-1949.5 343,-1671.5 84,-1671.5"/>
</g>
<!-- actor.usr -->
<g id="node3" class="node">
<title>actor.usr</title>
<polygon fill="#efefef" stroke="transparent" points="53.5,-1512.5 53.5,-1547.5 373.5,-1547.5 373.5,-1512.5 53.5,-1512.5"/>
<polygon fill="none" stroke="#000000" points="53.5,-1512.5 53.5,-1547.5 373.5,-1547.5 373.5,-1512.5 53.5,-1512.5"/>
<text text-anchor="start" x="114.7123" y="-1525.3" font-family="Arial Bold" font-size="18.00" fill="#000000">actor.usr</text>
<text text-anchor="start" x="184.7197" y="-1525.3" font-family="Arial" font-size="14.00" fill="#000000">    </text>
<text text-anchor="start" x="218.9245" y="-1525.3" font-family="Arial" font-size="14.00" fill="#666666">[BASE TABLE]</text>
<polygon fill="none" stroke="#000000" points="53.5,-1482.5 53.5,-1512.5 373.5,-1512.5 373.5,-1482.5 53.5,-1482.5"/>
<text text-anchor="start" x="60.5" y="-1493.9" font-family="Arial" font-size="14.00" fill="#000000">id    </text>
<text text-anchor="start" x="105.594" y="-1493.9" font-family="Arial" font-size="14.00" fill="#666666">[integer]</text>
<polygon fill="none" stroke="#000000" points="53.5,-1452.5 53.5,-1482.5 373.5,-1482.5 373.5,-1452.5 53.5,-1452.5"/>
<text text-anchor="start" x="60.5" y="-1463.9" font-family="Arial" font-size="14.00" fill="#000000">card    </text>
<text text-anchor="start" x="121.9306" y="-1463.9" font-family="Arial" font-size="14.00" fill="#666666">[integer]</text>
<polygon fill="none" stroke="#000000" points="53.5,-1422.5 53.5,-1452.5 373.5,-1452.5 373.5,-1422.5 53.5,-1422.5"/>
<text text-anchor="start" x="60.5" y="-1433.9" font-family="Arial" font-size="14.00" fill="#000000">profile    </text>
<text text-anchor="start" x="132.817" y="-1433.9" font-family="Arial" font-size="14.00" fill="#666666">[integer]</text>
<polygon fill="none" stroke="#000000" points="53.5,-1392.5 53.5,-1422.5 373.5,-1422.5 373.5,-1392.5 53.5,-1392.5"/>
<text text-anchor="start" x="60.5" y="-1403.9" font-family="Arial" font-size="14.00" fill="#000000">usrname    </text>
<text text-anchor="start" x="149.1564" y="-1403.9" font-family="Arial" font-size="14.00" fill="#666666">[text]</text>
<polygon fill="none" stroke="#000000" points="53.5,-1362.5 53.5,-1392.5 373.5,-1392.5 373.5,-1362.5 53.5,-1362.5"/>
<text text-anchor="start" x="60.5" y="-1373.9" font-family="Arial" font-size="14.00" fill="#000000">email    </text>
<text text-anchor="start" x="128.1438" y="-1373.9" font-family="Arial" font-size="14.00" fill="#666666">[text]</text>
<polygon fill="none" stroke="#000000" points="53.5,-1332.5 53.5,-1362.5 373.5,-1362.5 373.5,-1332.5 53.5,-1332.5"/>
<text text-anchor="start" x="60.5" y="-1343.9" font-family="Arial" font-size="14.00" fill="#000000">passwd    </text>
<text text-anchor="start" x="142.1592" y="-1343.9" font-family="Arial" font-size="14.00" fill="#666666">[text]</text>
<polygon fill="none" stroke="#000000" points="53.5,-1302.5 53.5,-1332.5 373.5,-1332.5 373.5,-1302.5 53.5,-1302.5"/>
<text text-anchor="start" x="60.5" y="-1313.9" font-family="Arial" font-size="14.00" fill="#000000">standing    </text>
<text text-anchor="start" x="147.615" y="-1313.9" font-family="Arial" font-size="14.00" fill="#666666">[integer]</text>
<polygon fill="none" stroke="#000000" points="53.5,-1272.5 53.5,-1302.5 373.5,-1302.5 373.5,-1272.5 53.5,-1272.5"/>
<text text-anchor="start" x="60.5" y="-1283.9" font-family="Arial" font-size="14.00" fill="#000000">ident_type    </text>
<text text-anchor="start" x="159.2882" y="-1283.9" font-family="Arial" font-size="14.00" fill="#666666">[integer]</text>
<polygon fill="none" stroke="#000000" points="53.5,-1242.5 53.5,-1272.5 373.5,-1272.5 373.5,-1242.5 53.5,-1242.5"/>
<text text-anchor="start" x="60.5" y="-1253.9" font-family="Arial" font-size="14.00" fill="#000000">ident_value    </text>
<text text-anchor="start" x="166.2868" y="-1253.9" font-family="Arial" font-size="14.00" fill="#666666">[text]</text>
<polygon fill="none" stroke="#000000" points="53.5,-1212.5 53.5,-1242.5 373.5,-1242.5 373.5,-1212.5 53.5,-1212.5"/>
<text text-anchor="start" x="60.5" y="-1223.9" font-family="Arial" font-size="14.00" fill="#000000">ident_type2    </text>
<text text-anchor="start" x="167.0708" y="-1223.9" font-family="Arial" font-size="14.00" fill="#666666">[integer]</text>
<polygon fill="none" stroke="#000000" points="53.5,-1182.5 53.5,-1212.5 373.5,-1212.5 373.5,-1182.5 53.5,-1182.5"/>
<text text-anchor="start" x="60.5" y="-1193.9" font-family="Arial" font-size="14.00" fill="#000000">ident_value2    </text>
<text text-anchor="start" x="174.0694" y="-1193.9" font-family="Arial" font-size="14.00" fill="#666666">[text]</text>
<polygon fill="none" stroke="#000000" points="53.5,-1152.5 53.5,-1182.5 373.5,-1182.5 373.5,-1152.5 53.5,-1152.5"/>
<text text-anchor="start" x="60.5" y="-1163.9" font-family="Arial" font-size="14.00" fill="#000000">net_access_level    </text>
<text text-anchor="start" x="202.0694" y="-1163.9" font-family="Arial" font-size="14.00" fill="#666666">[integer]</text>
<polygon fill="none" stroke="#000000" points="53.5,-1122.5 53.5,-1152.5 373.5,-1152.5 373.5,-1122.5 53.5,-1122.5"/>
<text text-anchor="start" x="60.5" y="-1133.9" font-family="Arial" font-size="14.00" fill="#000000">photo_url    </text>
<text text-anchor="start" x="153.0582" y="-1133.9" font-family="Arial" font-size="14.00" fill="#666666">[text]</text>
<polygon fill="none" stroke="#000000" points="53.5,-1092.5 53.5,-1122.5 373.5,-1122.5 373.5,-1092.5 53.5,-1092.5"/>
<text text-anchor="start" x="60.5" y="-1103.9" font-family="Arial" font-size="14.00" fill="#000000">prefix    </text>
<text text-anchor="start" x="128.9278" y="-1103.9" font-family="Arial" font-size="14.00" fill="#666666">[text]</text>
<polygon fill="none" stroke="#000000" points="53.5,-1062.5 53.5,-1092.5 373.5,-1092.5 373.5,-1062.5 53.5,-1062.5"/>
<text text-anchor="start" x="60.5" y="-1073.9" font-family="Arial" font-size="14.00" fill="#000000">first_given_name    </text>
<text text-anchor="start" x="201.2812" y="-1073.9" font-family="Arial" font-size="14.00" fill="#666666">[text]</text>
<polygon fill="none" stroke="#000000" points="53.5,-1032.5 53.5,-1062.5 373.5,-1062.5 373.5,-1032.5 53.5,-1032.5"/>
<text text-anchor="start" x="60.5" y="-1043.9" font-family="Arial" font-size="14.00" fill="#000000">second_given_name    </text>
<text text-anchor="start" x="223.8632" y="-1043.9" font-family="Arial" font-size="14.00" fill="#666666">[text]</text>
<polygon fill="none" stroke="#000000" points="53.5,-1002.5 53.5,-1032.5 373.5,-1032.5 373.5,-1002.5 53.5,-1002.5"/>
<text text-anchor="start" x="60.5" y="-1013.9" font-family="Arial" font-size="14.00" fill="#000000">family_name    </text>
<text text-anchor="start" x="174.0428" y="-1013.9" font-family="Arial" font-size="14.00" fill="#666666">[text]</text>
<polygon fill="none" stroke="#000000" points="53.5,-972.5 53.5,-1002.5 373.5,-1002.5 373.5,-972.5 53.5,-972.5"/>
<text text-anchor="start" x="60.5" y="-983.9" font-family="Arial" font-size="14.00" fill="#000000">suffix    </text>
<text text-anchor="start" x="127.3752" y="-983.9" font-family="Arial" font-size="14.00" fill="#666666">[text]</text>
<polygon fill="none" stroke="#000000" points="53.5,-942.5 53.5,-972.5 373.5,-972.5 373.5,-942.5 53.5,-942.5"/>
<text text-anchor="start" x="60.5" y="-953.9" font-family="Arial" font-size="14.00" fill="#000000">alias    </text>
<text text-anchor="start" x="123.4832" y="-953.9" font-family="Arial" font-size="14.00" fill="#666666">[text]</text>
<polygon fill="none" stroke="#000000" points="53.5,-912.5 53.5,-942.5 373.5,-942.5 373.5,-912.5 53.5,-912.5"/>
<text text-anchor="start" x="60.5" y="-923.9" font-family="Arial" font-size="14.00" fill="#000000">day_phone    </text>
<text text-anchor="start" x="163.9656" y="-923.9" font-family="Arial" font-size="14.00" fill="#666666">[text]</text>
<polygon fill="none" stroke="#000000" points="53.5,-882.5 53.5,-912.5 373.5,-912.5 373.5,-882.5 53.5,-882.5"/>
<text text-anchor="start" x="60.5" y="-893.9" font-family="Arial" font-size="14.00" fill="#000000">evening_phone    </text>
<text text-anchor="start" x="190.42" y="-893.9" font-family="Arial" font-size="14.00" fill="#666666">[text]</text>
<polygon fill="none" stroke="#000000" points="53.5,-852.5 53.5,-882.5 373.5,-882.5 373.5,-852.5 53.5,-852.5"/>
<text text-anchor="start" x="60.5" y="-863.9" font-family="Arial" font-size="14.00" fill="#000000">other_phone    </text>
<text text-anchor="start" x="173.2994" y="-863.9" font-family="Arial" font-size="14.00" fill="#666666">[text]</text>
<polygon fill="none" stroke="#000000" points="53.5,-822.5 53.5,-852.5 373.5,-852.5 373.5,-822.5 53.5,-822.5"/>
<text text-anchor="start" x="60.5" y="-833.9" font-family="Arial" font-size="14.00" fill="#000000">mailing_address    </text>
<text text-anchor="start" x="196.6066" y="-833.9" font-family="Arial" font-size="14.00" fill="#666666">[integer]</text>
<polygon fill="none" stroke="#000000" points="53.5,-792.5 53.5,-822.5 373.5,-822.5 373.5,-792.5 53.5,-792.5"/>
<text text-anchor="start" x="60.5" y="-803.9" font-family="Arial" font-size="14.00" fill="#000000">billing_address    </text>
<text text-anchor="start" x="188.0526" y="-803.9" font-family="Arial" font-size="14.00" fill="#666666">[integer]</text>
<polygon fill="none" stroke="#000000" points="53.5,-762.5 53.5,-792.5 373.5,-792.5 373.5,-762.5 53.5,-762.5"/>
<text text-anchor="start" x="60.5" y="-773.9" font-family="Arial" font-size="14.00" fill="#000000">home_ou    </text>
<text text-anchor="start" x="153.061" y="-773.9" font-family="Arial" font-size="14.00" fill="#666666">[integer]</text>
<polygon fill="none" stroke="#000000" points="53.5,-732.5 53.5,-762.5 373.5,-762.5 373.5,-732.5 53.5,-732.5"/>
<text text-anchor="start" x="60.5" y="-743.9" font-family="Arial" font-size="14.00" fill="#000000">dob    </text>
<text text-anchor="start" x="118.0526" y="-743.9" font-family="Arial" font-size="14.00" fill="#666666">[date]</text>
<polygon fill="none" stroke="#000000" points="53.5,-702.5 53.5,-732.5 373.5,-732.5 373.5,-702.5 53.5,-702.5"/>
<text text-anchor="start" x="60.5" y="-713.9" font-family="Arial" font-size="14.00" fill="#000000">active    </text>
<text text-anchor="start" x="131.2672" y="-713.9" font-family="Arial" font-size="14.00" fill="#666666">[boolean]</text>
<polygon fill="none" stroke="#000000" points="53.5,-672.5 53.5,-702.5 373.5,-702.5 373.5,-672.5 53.5,-672.5"/>
<text text-anchor="start" x="60.5" y="-683.9" font-family="Arial" font-size="14.00" fill="#000000">master_account    </text>
<text text-anchor="start" x="194.2854" y="-683.9" font-family="Arial" font-size="14.00" fill="#666666">[boolean]</text>
<polygon fill="none" stroke="#000000" points="53.5,-642.5 53.5,-672.5 373.5,-672.5 373.5,-642.5 53.5,-642.5"/>
<text text-anchor="start" x="60.5" y="-653.9" font-family="Arial" font-size="14.00" fill="#000000">super_user    </text>
<text text-anchor="start" x="164.7216" y="-653.9" font-family="Arial" font-size="14.00" fill="#666666">[boolean]</text>
<polygon fill="none" stroke="#000000" points="53.5,-612.5 53.5,-642.5 373.5,-642.5 373.5,-612.5 53.5,-612.5"/>
<text text-anchor="start" x="60.5" y="-623.9" font-family="Arial" font-size="14.00" fill="#000000">barred    </text>
<text text-anchor="start" x="135.1564" y="-623.9" font-family="Arial" font-size="14.00" fill="#666666">[boolean]</text>
<polygon fill="none" stroke="#000000" points="53.5,-582.5 53.5,-612.5 373.5,-612.5 373.5,-582.5 53.5,-582.5"/>
<text text-anchor="start" x="60.5" y="-593.9" font-family="Arial" font-size="14.00" fill="#000000">deleted    </text>
<text text-anchor="start" x="140.615" y="-593.9" font-family="Arial" font-size="14.00" fill="#666666">[boolean]</text>
<polygon fill="none" stroke="#000000" points="53.5,-552.5 53.5,-582.5 373.5,-582.5 373.5,-552.5 53.5,-552.5"/>
<text text-anchor="start" x="60.5" y="-563.9" font-family="Arial" font-size="14.00" fill="#000000">juvenile    </text>
<text text-anchor="start" x="142.155" y="-563.9" font-family="Arial" font-size="14.00" fill="#666666">[boolean]</text>
<polygon fill="none" stroke="#000000" points="53.5,-522.5 53.5,-552.5 373.5,-552.5 373.5,-522.5 53.5,-522.5"/>
<text text-anchor="start" x="60.5" y="-533.9" font-family="Arial" font-size="14.00" fill="#000000">usrgroup    </text>
<text text-anchor="start" x="149.939" y="-533.9" font-family="Arial" font-size="14.00" fill="#666666">[integer]</text>
<polygon fill="none" stroke="#000000" points="53.5,-492.5 53.5,-522.5 373.5,-522.5 373.5,-492.5 53.5,-492.5"/>
<text text-anchor="start" x="60.5" y="-503.9" font-family="Arial" font-size="14.00" fill="#000000">claims_returned_count    </text>
<text text-anchor="start" x="236.2896" y="-503.9" font-family="Arial" font-size="14.00" fill="#666666">[integer]</text>
<polygon fill="none" stroke="#000000" points="53.5,-462.5 53.5,-492.5 373.5,-492.5 373.5,-462.5 53.5,-462.5"/>
<text text-anchor="start" x="60.5" y="-473.9" font-family="Arial" font-size="14.00" fill="#000000">credit_forward_balance    </text>
<text text-anchor="start" x="240.1788" y="-473.9" font-family="Arial" font-size="14.00" fill="#666666">[numeric(6,2)]</text>
<polygon fill="none" stroke="#000000" points="53.5,-432.5 53.5,-462.5 373.5,-462.5 373.5,-432.5 53.5,-432.5"/>
<text text-anchor="start" x="60.5" y="-443.9" font-family="Arial" font-size="14.00" fill="#000000">last_xact_id    </text>
<text text-anchor="start" x="168.6122" y="-443.9" font-family="Arial" font-size="14.00" fill="#666666">[text]</text>
<polygon fill="none" stroke="#000000" points="53.5,-402.5 53.5,-432.5 373.5,-432.5 373.5,-402.5 53.5,-402.5"/>
<text text-anchor="start" x="60.5" y="-413.9" font-family="Arial" font-size="14.00" fill="#000000">alert_message    </text>
<text text-anchor="start" x="186.5014" y="-413.9" font-family="Arial" font-size="14.00" fill="#666666">[text]</text>
<polygon fill="none" stroke="#000000" points="53.5,-372.5 53.5,-402.5 373.5,-402.5 373.5,-372.5 53.5,-372.5"/>
<text text-anchor="start" x="60.5" y="-383.9" font-family="Arial" font-size="14.00" fill="#000000">create_date    </text>
<text text-anchor="start" x="168.6248" y="-383.9" font-family="Arial" font-size="14.00" fill="#666666">[timestamp with time zone]</text>
<polygon fill="none" stroke="#000000" points="53.5,-342.5 53.5,-372.5 373.5,-372.5 373.5,-342.5 53.5,-342.5"/>
<text text-anchor="start" x="60.5" y="-353.9" font-family="Arial" font-size="14.00" fill="#000000">expire_date    </text>
<text text-anchor="start" x="167.8408" y="-353.9" font-family="Arial" font-size="14.00" fill="#666666">[timestamp with time zone]</text>
<polygon fill="none" stroke="#000000" points="53.5,-312.5 53.5,-342.5 373.5,-342.5 373.5,-312.5 53.5,-312.5"/>
<text text-anchor="start" x="60.5" y="-323.9" font-family="Arial" font-size="14.00" fill="#000000">claims_never_checked_out_count    </text>
<text text-anchor="start" x="306.3246" y="-323.9" font-family="Arial" font-size="14.00" fill="#666666">[integer]</text>
<polygon fill="none" stroke="#000000" points="53.5,-282.5 53.5,-312.5 373.5,-312.5 373.5,-282.5 53.5,-282.5"/>
<text text-anchor="start" x="60.2609" y="-293.9" font-family="Arial" font-size="14.00" fill="#000000">last_update_time    </text>
<text text-anchor="start" x="201.0547" y="-293.9" font-family="Arial" font-size="14.00" fill="#666666">[timestamp with time zone]</text>
<polygon fill="none" stroke="#000000" points="53.5,-252.5 53.5,-282.5 373.5,-282.5 373.5,-252.5 53.5,-252.5"/>
<text text-anchor="start" x="60.5" y="-263.9" font-family="Arial" font-size="14.00" fill="#000000">pref_prefix    </text>
<text text-anchor="start" x="160.8268" y="-263.9" font-family="Arial" font-size="14.00" fill="#666666">[text]</text>
<polygon fill="none" stroke="#000000" points="53.5,-222.5 53.5,-252.5 373.5,-252.5 373.5,-222.5 53.5,-222.5"/>
<text text-anchor="start" x="60.5" y="-233.9" font-family="Arial" font-size="14.00" fill="#000000">pref_first_given_name    </text>
<text text-anchor="start" x="233.1802" y="-233.9" font-family="Arial" font-size="14.00" fill="#666666">[text]</text>
<polygon fill="none" stroke="#000000" points="53.5,-192.5 53.5,-222.5 373.5,-222.5 373.5,-192.5 53.5,-192.5"/>
<text text-anchor="start" x="60.5" y="-203.9" font-family="Arial" font-size="14.00" fill="#000000">pref_second_given_name    </text>
<text text-anchor="start" x="255.7622" y="-203.9" font-family="Arial" font-size="14.00" fill="#666666">[text]</text>
<polygon fill="none" stroke="#000000" points="53.5,-162.5 53.5,-192.5 373.5,-192.5 373.5,-162.5 53.5,-162.5"/>
<text text-anchor="start" x="60.5" y="-173.9" font-family="Arial" font-size="14.00" fill="#000000">pref_family_name    </text>
<text text-anchor="start" x="205.9418" y="-173.9" font-family="Arial" font-size="14.00" fill="#666666">[text]</text>
<polygon fill="none" stroke="#000000" points="53.5,-132.5 53.5,-162.5 373.5,-162.5 373.5,-132.5 53.5,-132.5"/>
<text text-anchor="start" x="60.5" y="-143.9" font-family="Arial" font-size="14.00" fill="#000000">pref_suffix    </text>
<text text-anchor="start" x="159.2742" y="-143.9" font-family="Arial" font-size="14.00" fill="#666666">[text]</text>
<polygon fill="none" stroke="#000000" points="53.5,-102.5 53.5,-132.5 373.5,-132.5 373.5,-102.5 53.5,-102.5"/>
<text text-anchor="start" x="60.5" y="-113.9" font-family="Arial" font-size="14.00" fill="#000000">name_keywords    </text>
<text text-anchor="start" x="196.6108" y="-113.9" font-family="Arial" font-size="14.00" fill="#666666">[text]</text>
<polygon fill="none" stroke="#000000" points="53.5,-72.5 53.5,-102.5 373.5,-102.5 373.5,-72.5 53.5,-72.5"/>
<text text-anchor="start" x="60.5" y="-83.9" font-family="Arial" font-size="14.00" fill="#000000">name_kw_tsvector    </text>
<text text-anchor="start" x="211.392" y="-83.9" font-family="Arial" font-size="14.00" fill="#666666">[tsvector]</text>
<polygon fill="none" stroke="#000000" points="53.5,-42.5 53.5,-72.5 373.5,-72.5 373.5,-42.5 53.5,-42.5"/>
<text text-anchor="start" x="60.5" y="-53.9" font-family="Arial" font-size="14.00" fill="#000000">guardian    </text>
<text text-anchor="start" x="149.1676" y="-53.9" font-family="Arial" font-size="14.00" fill="#666666">[text]</text>
</g>
<!-- acq.picklist&#45;&gt;actor.usr -->
<g id="edge2" class="edge">
<title>acq.picklist:owner&#45;&gt;actor.usr:id</title>
<path fill="none" stroke="#000000" d="M351.3955,-1865.6837C426.4615,-1837.7709 452.6442,-1497.5 373.5,-1497.5"/>
<polygon fill="#000000" stroke="#000000" points="351.3357,-1865.6946 340.6876,-1863.0739 346.4178,-1866.5973 341.5,-1867.5 341.5,-1867.5 341.5,-1867.5 346.4178,-1866.5973 342.3124,-1871.9261 351.3357,-1865.6946 351.3357,-1865.6946"/>
<text text-anchor="start" x="348.331" y="-1877.5" font-family="Arial" font-size="10.00" fill="#000000">FOREIGN KEY (owner) REFERENCES actor.usr(id) DEFERRABLE INITIALLY DEFERRED</text>
</g>
<!-- acq.picklist&#45;&gt;actor.usr -->
<g id="edge3" class="edge">
<title>acq.picklist:creator&#45;&gt;actor.usr:id</title>
<path fill="none" stroke="#000000" d="M351.4558,-1835.5033C420.0467,-1807.6392 445.9804,-1497.5 373.5,-1497.5"/>
<polygon fill="#000000" stroke="#000000" points="351.3048,-1835.5335 340.6151,-1833.0879 346.4024,-1836.5168 341.5,-1837.5 341.5,-1837.5 341.5,-1837.5 346.4024,-1836.5168 342.3849,-1841.9121 351.3048,-1835.5335 351.3048,-1835.5335"/>
<text text-anchor="start" x="348.3865" y="-1847.5" font-family="Arial" font-size="10.00" fill="#000000">FOREIGN KEY (creator) REFERENCES actor.usr(id) DEFERRABLE INITIALLY DEFERRED</text>
</g>
<!-- acq.picklist&#45;&gt;actor.usr -->
<g id="edge4" class="edge">
<title>acq.picklist:editor&#45;&gt;actor.usr:id</title>
<path fill="none" stroke="#000000" d="M351.3708,-1805.3549C413.6385,-1777.9657 439.3734,-1497.5 373.5,-1497.5"/>
<polygon fill="#000000" stroke="#000000" points="351.2719,-1805.3763 340.5443,-1803.1026 346.386,-1806.4382 341.5,-1807.5 341.5,-1807.5 341.5,-1807.5 346.386,-1806.4382 342.4557,-1811.8974 351.2719,-1805.3763 351.2719,-1805.3763"/>
<text text-anchor="start" x="348.4415" y="-1817.5" font-family="Arial" font-size="10.00" fill="#000000">FOREIGN KEY (editor) REFERENCES actor.usr(id) DEFERRABLE INITIALLY DEFERRED</text>
</g>
<!-- actor.org_unit -->
<g id="node4" class="node">
<title>actor.org_unit</title>
<polygon fill="#efefef" stroke="transparent" points="478.5,-972.5 478.5,-1007.5 729.5,-1007.5 729.5,-972.5 478.5,-972.5"/>
<polygon fill="none" stroke="#000000" points="478.5,-972.5 478.5,-1007.5 729.5,-1007.5 729.5,-972.5 478.5,-972.5"/>
<text text-anchor="start" x="485.2017" y="-985.3" font-family="Arial Bold" font-size="18.00" fill="#000000">actor.org_unit</text>
<text text-anchor="start" x="595.2303" y="-985.3" font-family="Arial" font-size="14.00" fill="#000000">    </text>
<text text-anchor="start" x="629.4351" y="-985.3" font-family="Arial" font-size="14.00" fill="#666666">[BASE TABLE]</text>
<polygon fill="none" stroke="#000000" points="478.5,-942.5 478.5,-972.5 729.5,-972.5 729.5,-942.5 478.5,-942.5"/>
<text text-anchor="start" x="485.5" y="-953.9" font-family="Arial" font-size="14.00" fill="#000000">id    </text>
<text text-anchor="start" x="530.594" y="-953.9" font-family="Arial" font-size="14.00" fill="#666666">[integer]</text>
<polygon fill="none" stroke="#000000" points="478.5,-912.5 478.5,-942.5 729.5,-942.5 729.5,-912.5 478.5,-912.5"/>
<text text-anchor="start" x="485.5" y="-923.9" font-family="Arial" font-size="14.00" fill="#000000">parent_ou    </text>
<text text-anchor="start" x="582.7342" y="-923.9" font-family="Arial" font-size="14.00" fill="#666666">[integer]</text>
<polygon fill="none" stroke="#000000" points="478.5,-882.5 478.5,-912.5 729.5,-912.5 729.5,-882.5 478.5,-882.5"/>
<text text-anchor="start" x="485.5" y="-893.9" font-family="Arial" font-size="14.00" fill="#000000">ou_type    </text>
<text text-anchor="start" x="569.5084" y="-893.9" font-family="Arial" font-size="14.00" fill="#666666">[integer]</text>
<polygon fill="none" stroke="#000000" points="478.5,-852.5 478.5,-882.5 729.5,-882.5 729.5,-852.5 478.5,-852.5"/>
<text text-anchor="start" x="485.5" y="-863.9" font-family="Arial" font-size="14.00" fill="#000000">ill_address    </text>
<text text-anchor="start" x="586.5982" y="-863.9" font-family="Arial" font-size="14.00" fill="#666666">[integer]</text>
<polygon fill="none" stroke="#000000" points="478.5,-822.5 478.5,-852.5 729.5,-852.5 729.5,-822.5 478.5,-822.5"/>
<text text-anchor="start" x="485.5" y="-833.9" font-family="Arial" font-size="14.00" fill="#000000">holds_address    </text>
<text text-anchor="start" x="610.7328" y="-833.9" font-family="Arial" font-size="14.00" fill="#666666">[integer]</text>
<polygon fill="none" stroke="#000000" points="478.5,-792.5 478.5,-822.5 729.5,-822.5 729.5,-792.5 478.5,-792.5"/>
<text text-anchor="start" x="485.5" y="-803.9" font-family="Arial" font-size="14.00" fill="#000000">mailing_address    </text>
<text text-anchor="start" x="621.6066" y="-803.9" font-family="Arial" font-size="14.00" fill="#666666">[integer]</text>
<polygon fill="none" stroke="#000000" points="478.5,-762.5 478.5,-792.5 729.5,-792.5 729.5,-762.5 478.5,-762.5"/>
<text text-anchor="start" x="485.5" y="-773.9" font-family="Arial" font-size="14.00" fill="#000000">billing_address    </text>
<text text-anchor="start" x="613.0526" y="-773.9" font-family="Arial" font-size="14.00" fill="#666666">[integer]</text>
<polygon fill="none" stroke="#000000" points="478.5,-732.5 478.5,-762.5 729.5,-762.5 729.5,-732.5 478.5,-732.5"/>
<text text-anchor="start" x="485.5" y="-743.9" font-family="Arial" font-size="14.00" fill="#000000">shortname    </text>
<text text-anchor="start" x="585.8296" y="-743.9" font-family="Arial" font-size="14.00" fill="#666666">[text]</text>
<polygon fill="none" stroke="#000000" points="478.5,-702.5 478.5,-732.5 729.5,-732.5 729.5,-702.5 478.5,-702.5"/>
<text text-anchor="start" x="485.5" y="-713.9" font-family="Arial" font-size="14.00" fill="#000000">name    </text>
<text text-anchor="start" x="554.7132" y="-713.9" font-family="Arial" font-size="14.00" fill="#666666">[text]</text>
<polygon fill="none" stroke="#000000" points="478.5,-672.5 478.5,-702.5 729.5,-702.5 729.5,-672.5 478.5,-672.5"/>
<text text-anchor="start" x="485.5" y="-683.9" font-family="Arial" font-size="14.00" fill="#000000">email    </text>
<text text-anchor="start" x="553.1438" y="-683.9" font-family="Arial" font-size="14.00" fill="#666666">[text]</text>
<polygon fill="none" stroke="#000000" points="478.5,-642.5 478.5,-672.5 729.5,-672.5 729.5,-642.5 478.5,-642.5"/>
<text text-anchor="start" x="485.5" y="-653.9" font-family="Arial" font-size="14.00" fill="#000000">phone    </text>
<text text-anchor="start" x="558.6178" y="-653.9" font-family="Arial" font-size="14.00" fill="#666666">[text]</text>
<polygon fill="none" stroke="#000000" points="478.5,-612.5 478.5,-642.5 729.5,-642.5 729.5,-612.5 478.5,-612.5"/>
<text text-anchor="start" x="485.5" y="-623.9" font-family="Arial" font-size="14.00" fill="#000000">opac_visible    </text>
<text text-anchor="start" x="596.7202" y="-623.9" font-family="Arial" font-size="14.00" fill="#666666">[boolean]</text>
<polygon fill="none" stroke="#000000" points="478.5,-582.5 478.5,-612.5 729.5,-612.5 729.5,-582.5 478.5,-582.5"/>
<text text-anchor="start" x="485.5" y="-593.9" font-family="Arial" font-size="14.00" fill="#000000">fiscal_calendar    </text>
<text text-anchor="start" x="613.054" y="-593.9" font-family="Arial" font-size="14.00" fill="#666666">[integer]</text>
</g>
<!-- acq.picklist&#45;&gt;actor.org_unit -->
<g id="edge5" class="edge">
<title>acq.picklist:org_unit&#45;&gt;actor.org_unit:id</title>
<path fill="none" stroke="#000000" d="M351.6116,-1777.0556C430.1688,-1769.8212 403.6059,-1675.5692 425.5,-1591 443.203,-1522.6196 407.8652,-957.5 478.5,-957.5"/>
<polygon fill="#000000" stroke="#000000" points="351.4904,-1777.0609 341.3024,-1773.0043 346.4952,-1777.2804 341.5,-1777.5 341.5,-1777.5 341.5,-1777.5 346.4952,-1777.2804 341.6976,-1781.9957 351.4904,-1777.0609 351.4904,-1777.0609"/>
<text text-anchor="start" x="348.7655" y="-1787.5" font-family="Arial" font-size="10.00" fill="#000000">FOREIGN KEY (org_unit) REFERENCES actor.org_unit(id) DEFERRABLE INITIALLY DEFERRED</text>
</g>
<!-- acq.lineitem -->
<g id="node2" class="node">
<title>acq.lineitem</title>
<polygon fill="#efefef" stroke="transparent" points="43.5,-2612.5 43.5,-2647.5 382.5,-2647.5 382.5,-2612.5 43.5,-2612.5"/>
<polygon fill="none" stroke="#000000" points="43.5,-2612.5 43.5,-2647.5 382.5,-2647.5 382.5,-2612.5 43.5,-2612.5"/>
<text text-anchor="start" x="101.2109" y="-2625.3" font-family="Arial Bold" font-size="18.00" fill="#000000">acq.lineitem</text>
<text text-anchor="start" x="197.2211" y="-2625.3" font-family="Arial" font-size="14.00" fill="#000000">    </text>
<text text-anchor="start" x="231.4259" y="-2625.3" font-family="Arial" font-size="14.00" fill="#666666">[BASE TABLE]</text>
<polygon fill="none" stroke="#000000" points="43.5,-2582.5 43.5,-2612.5 382.5,-2612.5 382.5,-2582.5 43.5,-2582.5"/>
<text text-anchor="start" x="50.5" y="-2593.9" font-family="Arial" font-size="14.00" fill="#000000">id    </text>
<text text-anchor="start" x="95.594" y="-2593.9" font-family="Arial" font-size="14.00" fill="#666666">[bigint]</text>
<polygon fill="none" stroke="#000000" points="43.5,-2552.5 43.5,-2582.5 382.5,-2582.5 382.5,-2552.5 43.5,-2552.5"/>
<text text-anchor="start" x="50.5" y="-2563.9" font-family="Arial" font-size="14.00" fill="#000000">creator    </text>
<text text-anchor="start" x="128.2644" y="-2563.9" font-family="Arial" font-size="14.00" fill="#666666">[integer]</text>
<polygon fill="none" stroke="#000000" points="43.5,-2522.5 43.5,-2552.5 382.5,-2552.5 382.5,-2522.5 43.5,-2522.5"/>
<text text-anchor="start" x="50.5" y="-2533.9" font-family="Arial" font-size="14.00" fill="#000000">editor    </text>
<text text-anchor="start" x="119.7104" y="-2533.9" font-family="Arial" font-size="14.00" fill="#666666">[integer]</text>
<polygon fill="none" stroke="#000000" points="43.5,-2492.5 43.5,-2522.5 382.5,-2522.5 382.5,-2492.5 43.5,-2492.5"/>
<text text-anchor="start" x="50.5" y="-2503.9" font-family="Arial" font-size="14.00" fill="#000000">selector    </text>
<text text-anchor="start" x="133.7104" y="-2503.9" font-family="Arial" font-size="14.00" fill="#666666">[integer]</text>
<polygon fill="none" stroke="#000000" points="43.5,-2462.5 43.5,-2492.5 382.5,-2492.5 382.5,-2462.5 43.5,-2462.5"/>
<text text-anchor="start" x="50.5" y="-2473.9" font-family="Arial" font-size="14.00" fill="#000000">provider    </text>
<text text-anchor="start" x="135.263" y="-2473.9" font-family="Arial" font-size="14.00" fill="#666666">[integer]</text>
<polygon fill="none" stroke="#000000" points="43.5,-2432.5 43.5,-2462.5 382.5,-2462.5 382.5,-2432.5 43.5,-2432.5"/>
<text text-anchor="start" x="50.5" y="-2443.9" font-family="Arial" font-size="14.00" fill="#000000">purchase_order    </text>
<text text-anchor="start" x="182.73" y="-2443.9" font-family="Arial" font-size="14.00" fill="#666666">[integer]</text>
<polygon fill="none" stroke="#000000" points="43.5,-2402.5 43.5,-2432.5 382.5,-2432.5 382.5,-2402.5 43.5,-2402.5"/>
<text text-anchor="start" x="50.5" y="-2413.9" font-family="Arial" font-size="14.00" fill="#000000">picklist    </text>
<text text-anchor="start" x="126.6978" y="-2413.9" font-family="Arial" font-size="14.00" fill="#666666">[integer]</text>
<polygon fill="none" stroke="#000000" points="43.5,-2372.5 43.5,-2402.5 382.5,-2402.5 382.5,-2372.5 43.5,-2372.5"/>
<text text-anchor="start" x="50.4292" y="-2383.9" font-family="Arial" font-size="14.00" fill="#000000">expected_recv_time    </text>
<text text-anchor="start" x="209.8864" y="-2383.9" font-family="Arial" font-size="14.00" fill="#666666">[timestamp with time zone]</text>
<polygon fill="none" stroke="#000000" points="43.5,-2342.5 43.5,-2372.5 382.5,-2372.5 382.5,-2342.5 43.5,-2342.5"/>
<text text-anchor="start" x="50.5" y="-2353.9" font-family="Arial" font-size="14.00" fill="#000000">create_time    </text>
<text text-anchor="start" x="157.8268" y="-2353.9" font-family="Arial" font-size="14.00" fill="#666666">[timestamp with time zone]</text>
<polygon fill="none" stroke="#000000" points="43.5,-2312.5 43.5,-2342.5 382.5,-2342.5 382.5,-2312.5 43.5,-2312.5"/>
<text text-anchor="start" x="50.5" y="-2323.9" font-family="Arial" font-size="14.00" fill="#000000">edit_time    </text>
<text text-anchor="start" x="141.4902" y="-2323.9" font-family="Arial" font-size="14.00" fill="#666666">[timestamp with time zone]</text>
<polygon fill="none" stroke="#000000" points="43.5,-2282.5 43.5,-2312.5 382.5,-2312.5 382.5,-2282.5 43.5,-2282.5"/>
<text text-anchor="start" x="50.5" y="-2293.9" font-family="Arial" font-size="14.00" fill="#000000">marc    </text>
<text text-anchor="start" x="115.8086" y="-2293.9" font-family="Arial" font-size="14.00" fill="#666666">[text]</text>
<polygon fill="none" stroke="#000000" points="43.5,-2252.5 43.5,-2282.5 382.5,-2282.5 382.5,-2252.5 43.5,-2252.5"/>
<text text-anchor="start" x="50.5" y="-2263.9" font-family="Arial" font-size="14.00" fill="#000000">eg_bib_id    </text>
<text text-anchor="start" x="145.3962" y="-2263.9" font-family="Arial" font-size="14.00" fill="#666666">[bigint]</text>
<polygon fill="none" stroke="#000000" points="43.5,-2222.5 43.5,-2252.5 382.5,-2252.5 382.5,-2222.5 43.5,-2222.5"/>
<text text-anchor="start" x="50.5" y="-2233.9" font-family="Arial" font-size="14.00" fill="#000000">source_label    </text>
<text text-anchor="start" x="164.0568" y="-2233.9" font-family="Arial" font-size="14.00" fill="#666666">[text]</text>
<polygon fill="none" stroke="#000000" points="43.5,-2192.5 43.5,-2222.5 382.5,-2222.5 382.5,-2192.5 43.5,-2192.5"/>
<text text-anchor="start" x="50.5" y="-2203.9" font-family="Arial" font-size="14.00" fill="#000000">state    </text>
<text text-anchor="start" x="115.0512" y="-2203.9" font-family="Arial" font-size="14.00" fill="#666666">[text]</text>
<polygon fill="none" stroke="#000000" points="43.5,-2162.5 43.5,-2192.5 382.5,-2192.5 382.5,-2162.5 43.5,-2162.5"/>
<text text-anchor="start" x="50.5" y="-2173.9" font-family="Arial" font-size="14.00" fill="#000000">cancel_reason    </text>
<text text-anchor="start" x="175.7328" y="-2173.9" font-family="Arial" font-size="14.00" fill="#666666">[integer]</text>
<polygon fill="none" stroke="#000000" points="43.5,-2132.5 43.5,-2162.5 382.5,-2162.5 382.5,-2132.5 43.5,-2132.5"/>
<text text-anchor="start" x="50.5" y="-2143.9" font-family="Arial" font-size="14.00" fill="#000000">estimated_unit_price    </text>
<text text-anchor="start" x="213.8436" y="-2143.9" font-family="Arial" font-size="14.00" fill="#666666">[numeric]</text>
<polygon fill="none" stroke="#000000" points="43.5,-2102.5 43.5,-2132.5 382.5,-2132.5 382.5,-2102.5 43.5,-2102.5"/>
<text text-anchor="start" x="50.5" y="-2113.9" font-family="Arial" font-size="14.00" fill="#000000">claim_policy    </text>
<text text-anchor="start" x="160.9222" y="-2113.9" font-family="Arial" font-size="14.00" fill="#666666">[integer]</text>
<polygon fill="none" stroke="#000000" points="43.5,-2072.5 43.5,-2102.5 382.5,-2102.5 382.5,-2072.5 43.5,-2072.5"/>
<text text-anchor="start" x="50.5" y="-2083.9" font-family="Arial" font-size="14.00" fill="#000000">queued_record    </text>
<text text-anchor="start" x="178.852" y="-2083.9" font-family="Arial" font-size="14.00" fill="#666666">[bigint]</text>
</g>
<!-- acq.lineitem&#45;&gt;acq.picklist -->
<g id="edge1" class="edge">
<title>acq.lineitem:picklist&#45;&gt;acq.picklist:id</title>
<path fill="none" stroke="#000000" d="M392.8067,-2417.1771C552.3195,-2406.9478 494.3754,-2156.255 382.5,-2030 294.3168,-1930.4825 173.6832,-2093.5175 85.5,-1994 57.0561,-1961.9001 42.6111,-1897.5 85.5,-1897.5"/>
<polygon fill="#000000" stroke="#000000" points="392.4951,-2417.1867 382.359,-2413.0022 387.4975,-2417.3434 382.5,-2417.5 382.5,-2417.5 382.5,-2417.5 387.4975,-2417.3434 382.641,-2421.9978 392.4951,-2417.1867 392.4951,-2417.1867"/>
<text text-anchor="start" x="389.9465" y="-2427.5" font-family="Arial" font-size="10.00" fill="#000000">FOREIGN KEY (picklist) REFERENCES acq.picklist(id) DEFERRABLE INITIALLY DEFERRED</text>
</g>
</g>
</svg>
