<?xml version="1.0" encoding="UTF-8" standalone="no"?>
<!DOCTYPE svg PUBLIC "-//W3C//DTD SVG 1.1//EN"
 "http://www.w3.org/Graphics/SVG/1.1/DTD/svg11.dtd">
<!-- Generated by graphviz version 2.40.1 (20161225.0304)
 -->
<!-- Title: acq.fund_allocation Pages: 1 -->
<svg width="1486pt" height="1972pt"
 viewBox="0.00 0.00 1486.00 1972.00" xmlns="http://www.w3.org/2000/svg" xmlns:xlink="http://www.w3.org/1999/xlink">
<g id="graph0" class="graph" transform="scale(1 1) rotate(0) translate(4 1968)">
<title>acq.fund_allocation</title>
<polygon fill="#ffffff" stroke="transparent" points="-4,4 -4,-1968 1482,-1968 1482,4 -4,4"/>
<!-- acq.fund_allocation -->
<g id="node1" class="node">
<title>acq.fund_allocation</title>
<polygon fill="#efefef" stroke="transparent" points="734,-1882.5 734,-1917.5 1030,-1917.5 1030,-1882.5 734,-1882.5"/>
<polygon fill="none" stroke="#000000" points="734,-1882.5 734,-1917.5 1030,-1917.5 1030,-1882.5 734,-1882.5"/>
<text text-anchor="start" x="740.6873" y="-1895.3" font-family="Arial Bold" font-size="18.00" fill="#000000">acq.fund_allocation</text>
<text text-anchor="start" x="895.7447" y="-1895.3" font-family="Arial" font-size="14.00" fill="#000000">    </text>
<text text-anchor="start" x="929.9495" y="-1895.3" font-family="Arial" font-size="14.00" fill="#666666">[BASE TABLE]</text>
<polygon fill="none" stroke="#000000" points="734,-1852.5 734,-1882.5 1030,-1882.5 1030,-1852.5 734,-1852.5"/>
<text text-anchor="start" x="741" y="-1863.9" font-family="Arial" font-size="14.00" fill="#000000">id </text>
<text text-anchor="start" x="755.7798" y="-1863.9" font-family="Arial" font-size="14.00" fill="#666666">[integer]</text>
<polygon fill="none" stroke="#000000" points="734,-1822.5 734,-1852.5 1030,-1852.5 1030,-1822.5 734,-1822.5"/>
<text text-anchor="start" x="741" y="-1833.9" font-family="Arial" font-size="14.00" fill="#000000">funding_source </text>
<text text-anchor="start" x="840.5918" y="-1833.9" font-family="Arial" font-size="14.00" fill="#666666">[integer]</text>
<polygon fill="none" stroke="#000000" points="734,-1792.5 734,-1822.5 1030,-1822.5 1030,-1792.5 734,-1792.5"/>
<text text-anchor="start" x="741" y="-1803.9" font-family="Arial" font-size="14.00" fill="#000000">fund </text>
<text text-anchor="start" x="772.129" y="-1803.9" font-family="Arial" font-size="14.00" fill="#666666">[integer]</text>
<polygon fill="none" stroke="#000000" points="734,-1762.5 734,-1792.5 1030,-1792.5 1030,-1762.5 734,-1762.5"/>
<text text-anchor="start" x="741" y="-1773.9" font-family="Arial" font-size="14.00" fill="#000000">amount </text>
<text text-anchor="start" x="791.5722" y="-1773.9" font-family="Arial" font-size="14.00" fill="#666666">[numeric]</text>
<polygon fill="none" stroke="#000000" points="734,-1732.5 734,-1762.5 1030,-1762.5 1030,-1732.5 734,-1732.5"/>
<text text-anchor="start" x="741" y="-1743.9" font-family="Arial" font-size="14.00" fill="#000000">allocator </text>
<text text-anchor="start" x="797.7854" y="-1743.9" font-family="Arial" font-size="14.00" fill="#666666">[integer]</text>
<polygon fill="none" stroke="#000000" points="734,-1702.5 734,-1732.5 1030,-1732.5 1030,-1702.5 734,-1702.5"/>
<text text-anchor="start" x="741" y="-1713.9" font-family="Arial" font-size="14.00" fill="#000000">note </text>
<text text-anchor="start" x="772.129" y="-1713.9" font-family="Arial" font-size="14.00" fill="#666666">[text]</text>
<polygon fill="none" stroke="#000000" points="734,-1672.5 734,-1702.5 1030,-1702.5 1030,-1672.5 734,-1672.5"/>
<text text-anchor="start" x="741" y="-1683.9" font-family="Arial" font-size="14.00" fill="#000000">create_time </text>
<text text-anchor="start" x="818.0126" y="-1683.9" font-family="Arial" font-size="14.00" fill="#666666">[timestamp with time zone]</text>
<polygon fill="none" stroke="#000000" stroke-width="3" points="732.5,-1671.5 732.5,-1919.5 1031.5,-1919.5 1031.5,-1671.5 732.5,-1671.5"/>
</g>
<!-- acq.funding_source -->
<g id="node2" class="node">
<title>acq.funding_source</title>
<polygon fill="#efefef" stroke="transparent" points="349,-852.5 349,-887.5 647,-887.5 647,-852.5 349,-852.5"/>
<polygon fill="none" stroke="#000000" points="349,-852.5 349,-887.5 647,-887.5 647,-852.5 349,-852.5"/>
<text text-anchor="start" x="355.6865" y="-865.3" font-family="Arial Bold" font-size="18.00" fill="#000000">acq.funding_source</text>
<text text-anchor="start" x="512.7455" y="-865.3" font-family="Arial" font-size="14.00" fill="#000000">    </text>
<text text-anchor="start" x="546.9503" y="-865.3" font-family="Arial" font-size="14.00" fill="#666666">[BASE TABLE]</text>
<polygon fill="none" stroke="#000000" points="349,-822.5 349,-852.5 647,-852.5 647,-822.5 349,-822.5"/>
<text text-anchor="start" x="356" y="-833.9" font-family="Arial" font-size="14.00" fill="#000000">id    </text>
<text text-anchor="start" x="401.094" y="-833.9" font-family="Arial" font-size="14.00" fill="#666666">[integer]</text>
<polygon fill="none" stroke="#000000" points="349,-792.5 349,-822.5 647,-822.5 647,-792.5 349,-792.5"/>
<text text-anchor="start" x="356" y="-803.9" font-family="Arial" font-size="14.00" fill="#000000">name    </text>
<text text-anchor="start" x="425.2132" y="-803.9" font-family="Arial" font-size="14.00" fill="#666666">[text]</text>
<polygon fill="none" stroke="#000000" points="349,-762.5 349,-792.5 647,-792.5 647,-762.5 349,-762.5"/>
<text text-anchor="start" x="356" y="-773.9" font-family="Arial" font-size="14.00" fill="#000000">owner    </text>
<text text-anchor="start" x="428.3198" y="-773.9" font-family="Arial" font-size="14.00" fill="#666666">[integer]</text>
<polygon fill="none" stroke="#000000" points="349,-732.5 349,-762.5 647,-762.5 647,-732.5 349,-732.5"/>
<text text-anchor="start" x="356" y="-743.9" font-family="Arial" font-size="14.00" fill="#000000">currency_type    </text>
<text text-anchor="start" x="478.1122" y="-743.9" font-family="Arial" font-size="14.00" fill="#666666">[text]</text>
<polygon fill="none" stroke="#000000" points="349,-702.5 349,-732.5 647,-732.5 647,-702.5 349,-702.5"/>
<text text-anchor="start" x="356" y="-713.9" font-family="Arial" font-size="14.00" fill="#000000">code    </text>
<text text-anchor="start" x="420.5526" y="-713.9" font-family="Arial" font-size="14.00" fill="#666666">[text]</text>
</g>
<!-- acq.fund_allocation&#45;&gt;acq.funding_source -->
<g id="edge1" class="edge">
<title>acq.fund_allocation:funding_source&#45;&gt;acq.funding_source:id</title>
<path fill="none" stroke="#000000" d="M724.2542,-1834.6313C630.7312,-1775.9766 755.0455,-837.5 647,-837.5"/>
<polygon fill="#000000" stroke="#000000" points="724.4069,-1834.6762 732.7293,-1841.8169 729.2035,-1836.0881 734,-1837.5 734,-1837.5 734,-1837.5 729.2035,-1836.0881 735.2707,-1833.1831 724.4069,-1834.6762 724.4069,-1834.6762"/>
<text text-anchor="start" x="6.6915" y="-1847.5" font-family="Arial" font-size="10.00" fill="#000000">FOREIGN KEY (funding_source) REFERENCES acq.funding_source(id) ON UPDATE CASCADE ON DELETE CASCADE DEFERRABLE INITIALLY DEFERRED</text>
</g>
<!-- acq.fund -->
<g id="node3" class="node">
<title>acq.fund</title>
<polygon fill="#efefef" stroke="transparent" points="752,-942.5 752,-977.5 1011,-977.5 1011,-942.5 752,-942.5"/>
<polygon fill="none" stroke="#000000" points="752,-942.5 752,-977.5 1011,-977.5 1011,-942.5 752,-942.5"/>
<text text-anchor="start" x="783.1983" y="-955.3" font-family="Arial Bold" font-size="18.00" fill="#000000">acq.fund</text>
<text text-anchor="start" x="852.2337" y="-955.3" font-family="Arial" font-size="14.00" fill="#000000">    </text>
<text text-anchor="start" x="886.4385" y="-955.3" font-family="Arial" font-size="14.00" fill="#666666">[BASE TABLE]</text>
<polygon fill="none" stroke="#000000" points="752,-912.5 752,-942.5 1011,-942.5 1011,-912.5 752,-912.5"/>
<text text-anchor="start" x="759" y="-923.9" font-family="Arial" font-size="14.00" fill="#000000">id    </text>
<text text-anchor="start" x="804.094" y="-923.9" font-family="Arial" font-size="14.00" fill="#666666">[integer]</text>
<polygon fill="none" stroke="#000000" points="752,-882.5 752,-912.5 1011,-912.5 1011,-882.5 752,-882.5"/>
<text text-anchor="start" x="759" y="-893.9" font-family="Arial" font-size="14.00" fill="#000000">org    </text>
<text text-anchor="start" x="813.4306" y="-893.9" font-family="Arial" font-size="14.00" fill="#666666">[integer]</text>
<polygon fill="none" stroke="#000000" points="752,-852.5 752,-882.5 1011,-882.5 1011,-852.5 752,-852.5"/>
<text text-anchor="start" x="759" y="-863.9" font-family="Arial" font-size="14.00" fill="#000000">name    </text>
<text text-anchor="start" x="828.2132" y="-863.9" font-family="Arial" font-size="14.00" fill="#666666">[text]</text>
<polygon fill="none" stroke="#000000" points="752,-822.5 752,-852.5 1011,-852.5 1011,-822.5 752,-822.5"/>
<text text-anchor="start" x="759" y="-833.9" font-family="Arial" font-size="14.00" fill="#000000">year    </text>
<text text-anchor="start" x="820.4306" y="-833.9" font-family="Arial" font-size="14.00" fill="#666666">[integer]</text>
<polygon fill="none" stroke="#000000" points="752,-792.5 752,-822.5 1011,-822.5 1011,-792.5 752,-792.5"/>
<text text-anchor="start" x="759" y="-803.9" font-family="Arial" font-size="14.00" fill="#000000">currency_type    </text>
<text text-anchor="start" x="881.1122" y="-803.9" font-family="Arial" font-size="14.00" fill="#666666">[text]</text>
<polygon fill="none" stroke="#000000" points="752,-762.5 752,-792.5 1011,-792.5 1011,-762.5 752,-762.5"/>
<text text-anchor="start" x="759" y="-773.9" font-family="Arial" font-size="14.00" fill="#000000">code    </text>
<text text-anchor="start" x="823.5526" y="-773.9" font-family="Arial" font-size="14.00" fill="#666666">[text]</text>
<polygon fill="none" stroke="#000000" points="752,-732.5 752,-762.5 1011,-762.5 1011,-732.5 752,-732.5"/>
<text text-anchor="start" x="759" y="-743.9" font-family="Arial" font-size="14.00" fill="#000000">rollover    </text>
<text text-anchor="start" x="839.087" y="-743.9" font-family="Arial" font-size="14.00" fill="#666666">[boolean]</text>
<polygon fill="none" stroke="#000000" points="752,-702.5 752,-732.5 1011,-732.5 1011,-702.5 752,-702.5"/>
<text text-anchor="start" x="759" y="-713.9" font-family="Arial" font-size="14.00" fill="#000000">propagate    </text>
<text text-anchor="start" x="856.2342" y="-713.9" font-family="Arial" font-size="14.00" fill="#666666">[boolean]</text>
<polygon fill="none" stroke="#000000" points="752,-672.5 752,-702.5 1011,-702.5 1011,-672.5 752,-672.5"/>
<text text-anchor="start" x="759" y="-683.9" font-family="Arial" font-size="14.00" fill="#000000">active    </text>
<text text-anchor="start" x="829.7672" y="-683.9" font-family="Arial" font-size="14.00" fill="#666666">[boolean]</text>
<polygon fill="none" stroke="#000000" points="752,-642.5 752,-672.5 1011,-672.5 1011,-642.5 752,-642.5"/>
<text text-anchor="start" x="758.9776" y="-653.9" font-family="Arial" font-size="14.00" fill="#000000">balance_warning_percent    </text>
<text text-anchor="start" x="953.453" y="-653.9" font-family="Arial" font-size="14.00" fill="#666666">[integer]</text>
<polygon fill="none" stroke="#000000" points="752,-612.5 752,-642.5 1011,-642.5 1011,-612.5 752,-612.5"/>
<text text-anchor="start" x="759" y="-623.9" font-family="Arial" font-size="14.00" fill="#000000">balance_stop_percent    </text>
<text text-anchor="start" x="930.927" y="-623.9" font-family="Arial" font-size="14.00" fill="#666666">[integer]</text>
</g>
<!-- acq.fund_allocation&#45;&gt;acq.fund -->
<g id="edge2" class="edge">
<title>acq.fund_allocation:fund&#45;&gt;acq.fund:id</title>
<path fill="none" stroke="#000000" d="M723.6444,-1806.8398C659.5974,-1797.9789 717.7342,-1701.7116 734,-1627 769.5663,-1463.6381 1178.1887,-927.5 1011,-927.5"/>
<polygon fill="#000000" stroke="#000000" points="724.0203,-1806.8637 733.7137,-1811.9909 729.0101,-1807.1819 734,-1807.5 734,-1807.5 734,-1807.5 729.0101,-1807.1819 734.2863,-1803.0091 724.0203,-1806.8637 724.0203,-1806.8637"/>
<text text-anchor="start" x="104.5935" y="-1817.5" font-family="Arial" font-size="10.00" fill="#000000">FOREIGN KEY (fund) REFERENCES acq.fund(id) ON UPDATE CASCADE ON DELETE CASCADE DEFERRABLE INITIALLY DEFERRED</text>
</g>
<!-- actor.usr -->
<g id="node4" class="node">
<title>actor.usr</title>
<polygon fill="#efefef" stroke="transparent" points="1115,-1512.5 1115,-1547.5 1435,-1547.5 1435,-1512.5 1115,-1512.5"/>
<polygon fill="none" stroke="#000000" points="1115,-1512.5 1115,-1547.5 1435,-1547.5 1435,-1512.5 1115,-1512.5"/>
<text text-anchor="start" x="1176.2123" y="-1525.3" font-family="Arial Bold" font-size="18.00" fill="#000000">actor.usr</text>
<text text-anchor="start" x="1246.2197" y="-1525.3" font-family="Arial" font-size="14.00" fill="#000000">    </text>
<text text-anchor="start" x="1280.4245" y="-1525.3" font-family="Arial" font-size="14.00" fill="#666666">[BASE TABLE]</text>
<polygon fill="none" stroke="#000000" points="1115,-1482.5 1115,-1512.5 1435,-1512.5 1435,-1482.5 1115,-1482.5"/>
<text text-anchor="start" x="1122" y="-1493.9" font-family="Arial" font-size="14.00" fill="#000000">id    </text>
<text text-anchor="start" x="1167.094" y="-1493.9" font-family="Arial" font-size="14.00" fill="#666666">[integer]</text>
<polygon fill="none" stroke="#000000" points="1115,-1452.5 1115,-1482.5 1435,-1482.5 1435,-1452.5 1115,-1452.5"/>
<text text-anchor="start" x="1122" y="-1463.9" font-family="Arial" font-size="14.00" fill="#000000">card    </text>
<text text-anchor="start" x="1183.4306" y="-1463.9" font-family="Arial" font-size="14.00" fill="#666666">[integer]</text>
<polygon fill="none" stroke="#000000" points="1115,-1422.5 1115,-1452.5 1435,-1452.5 1435,-1422.5 1115,-1422.5"/>
<text text-anchor="start" x="1122" y="-1433.9" font-family="Arial" font-size="14.00" fill="#000000">profile    </text>
<text text-anchor="start" x="1194.317" y="-1433.9" font-family="Arial" font-size="14.00" fill="#666666">[integer]</text>
<polygon fill="none" stroke="#000000" points="1115,-1392.5 1115,-1422.5 1435,-1422.5 1435,-1392.5 1115,-1392.5"/>
<text text-anchor="start" x="1122" y="-1403.9" font-family="Arial" font-size="14.00" fill="#000000">usrname    </text>
<text text-anchor="start" x="1210.6564" y="-1403.9" font-family="Arial" font-size="14.00" fill="#666666">[text]</text>
<polygon fill="none" stroke="#000000" points="1115,-1362.5 1115,-1392.5 1435,-1392.5 1435,-1362.5 1115,-1362.5"/>
<text text-anchor="start" x="1122" y="-1373.9" font-family="Arial" font-size="14.00" fill="#000000">email    </text>
<text text-anchor="start" x="1189.6438" y="-1373.9" font-family="Arial" font-size="14.00" fill="#666666">[text]</text>
<polygon fill="none" stroke="#000000" points="1115,-1332.5 1115,-1362.5 1435,-1362.5 1435,-1332.5 1115,-1332.5"/>
<text text-anchor="start" x="1122" y="-1343.9" font-family="Arial" font-size="14.00" fill="#000000">passwd    </text>
<text text-anchor="start" x="1203.6592" y="-1343.9" font-family="Arial" font-size="14.00" fill="#666666">[text]</text>
<polygon fill="none" stroke="#000000" points="1115,-1302.5 1115,-1332.5 1435,-1332.5 1435,-1302.5 1115,-1302.5"/>
<text text-anchor="start" x="1122" y="-1313.9" font-family="Arial" font-size="14.00" fill="#000000">standing    </text>
<text text-anchor="start" x="1209.115" y="-1313.9" font-family="Arial" font-size="14.00" fill="#666666">[integer]</text>
<polygon fill="none" stroke="#000000" points="1115,-1272.5 1115,-1302.5 1435,-1302.5 1435,-1272.5 1115,-1272.5"/>
<text text-anchor="start" x="1122" y="-1283.9" font-family="Arial" font-size="14.00" fill="#000000">ident_type    </text>
<text text-anchor="start" x="1220.7882" y="-1283.9" font-family="Arial" font-size="14.00" fill="#666666">[integer]</text>
<polygon fill="none" stroke="#000000" points="1115,-1242.5 1115,-1272.5 1435,-1272.5 1435,-1242.5 1115,-1242.5"/>
<text text-anchor="start" x="1122" y="-1253.9" font-family="Arial" font-size="14.00" fill="#000000">ident_value    </text>
<text text-anchor="start" x="1227.7868" y="-1253.9" font-family="Arial" font-size="14.00" fill="#666666">[text]</text>
<polygon fill="none" stroke="#000000" points="1115,-1212.5 1115,-1242.5 1435,-1242.5 1435,-1212.5 1115,-1212.5"/>
<text text-anchor="start" x="1122" y="-1223.9" font-family="Arial" font-size="14.00" fill="#000000">ident_type2    </text>
<text text-anchor="start" x="1228.5708" y="-1223.9" font-family="Arial" font-size="14.00" fill="#666666">[integer]</text>
<polygon fill="none" stroke="#000000" points="1115,-1182.5 1115,-1212.5 1435,-1212.5 1435,-1182.5 1115,-1182.5"/>
<text text-anchor="start" x="1122" y="-1193.9" font-family="Arial" font-size="14.00" fill="#000000">ident_value2    </text>
<text text-anchor="start" x="1235.5694" y="-1193.9" font-family="Arial" font-size="14.00" fill="#666666">[text]</text>
<polygon fill="none" stroke="#000000" points="1115,-1152.5 1115,-1182.5 1435,-1182.5 1435,-1152.5 1115,-1152.5"/>
<text text-anchor="start" x="1122" y="-1163.9" font-family="Arial" font-size="14.00" fill="#000000">net_access_level    </text>
<text text-anchor="start" x="1263.5694" y="-1163.9" font-family="Arial" font-size="14.00" fill="#666666">[integer]</text>
<polygon fill="none" stroke="#000000" points="1115,-1122.5 1115,-1152.5 1435,-1152.5 1435,-1122.5 1115,-1122.5"/>
<text text-anchor="start" x="1122" y="-1133.9" font-family="Arial" font-size="14.00" fill="#000000">photo_url    </text>
<text text-anchor="start" x="1214.5582" y="-1133.9" font-family="Arial" font-size="14.00" fill="#666666">[text]</text>
<polygon fill="none" stroke="#000000" points="1115,-1092.5 1115,-1122.5 1435,-1122.5 1435,-1092.5 1115,-1092.5"/>
<text text-anchor="start" x="1122" y="-1103.9" font-family="Arial" font-size="14.00" fill="#000000">prefix    </text>
<text text-anchor="start" x="1190.4278" y="-1103.9" font-family="Arial" font-size="14.00" fill="#666666">[text]</text>
<polygon fill="none" stroke="#000000" points="1115,-1062.5 1115,-1092.5 1435,-1092.5 1435,-1062.5 1115,-1062.5"/>
<text text-anchor="start" x="1122" y="-1073.9" font-family="Arial" font-size="14.00" fill="#000000">first_given_name    </text>
<text text-anchor="start" x="1262.7812" y="-1073.9" font-family="Arial" font-size="14.00" fill="#666666">[text]</text>
<polygon fill="none" stroke="#000000" points="1115,-1032.5 1115,-1062.5 1435,-1062.5 1435,-1032.5 1115,-1032.5"/>
<text text-anchor="start" x="1122" y="-1043.9" font-family="Arial" font-size="14.00" fill="#000000">second_given_name    </text>
<text text-anchor="start" x="1285.3632" y="-1043.9" font-family="Arial" font-size="14.00" fill="#666666">[text]</text>
<polygon fill="none" stroke="#000000" points="1115,-1002.5 1115,-1032.5 1435,-1032.5 1435,-1002.5 1115,-1002.5"/>
<text text-anchor="start" x="1122" y="-1013.9" font-family="Arial" font-size="14.00" fill="#000000">family_name    </text>
<text text-anchor="start" x="1235.5428" y="-1013.9" font-family="Arial" font-size="14.00" fill="#666666">[text]</text>
<polygon fill="none" stroke="#000000" points="1115,-972.5 1115,-1002.5 1435,-1002.5 1435,-972.5 1115,-972.5"/>
<text text-anchor="start" x="1122" y="-983.9" font-family="Arial" font-size="14.00" fill="#000000">suffix    </text>
<text text-anchor="start" x="1188.8752" y="-983.9" font-family="Arial" font-size="14.00" fill="#666666">[text]</text>
<polygon fill="none" stroke="#000000" points="1115,-942.5 1115,-972.5 1435,-972.5 1435,-942.5 1115,-942.5"/>
<text text-anchor="start" x="1122" y="-953.9" font-family="Arial" font-size="14.00" fill="#000000">alias    </text>
<text text-anchor="start" x="1184.9832" y="-953.9" font-family="Arial" font-size="14.00" fill="#666666">[text]</text>
<polygon fill="none" stroke="#000000" points="1115,-912.5 1115,-942.5 1435,-942.5 1435,-912.5 1115,-912.5"/>
<text text-anchor="start" x="1122" y="-923.9" font-family="Arial" font-size="14.00" fill="#000000">day_phone    </text>
<text text-anchor="start" x="1225.4656" y="-923.9" font-family="Arial" font-size="14.00" fill="#666666">[text]</text>
<polygon fill="none" stroke="#000000" points="1115,-882.5 1115,-912.5 1435,-912.5 1435,-882.5 1115,-882.5"/>
<text text-anchor="start" x="1122" y="-893.9" font-family="Arial" font-size="14.00" fill="#000000">evening_phone    </text>
<text text-anchor="start" x="1251.92" y="-893.9" font-family="Arial" font-size="14.00" fill="#666666">[text]</text>
<polygon fill="none" stroke="#000000" points="1115,-852.5 1115,-882.5 1435,-882.5 1435,-852.5 1115,-852.5"/>
<text text-anchor="start" x="1122" y="-863.9" font-family="Arial" font-size="14.00" fill="#000000">other_phone    </text>
<text text-anchor="start" x="1234.7994" y="-863.9" font-family="Arial" font-size="14.00" fill="#666666">[text]</text>
<polygon fill="none" stroke="#000000" points="1115,-822.5 1115,-852.5 1435,-852.5 1435,-822.5 1115,-822.5"/>
<text text-anchor="start" x="1122" y="-833.9" font-family="Arial" font-size="14.00" fill="#000000">mailing_address    </text>
<text text-anchor="start" x="1258.1066" y="-833.9" font-family="Arial" font-size="14.00" fill="#666666">[integer]</text>
<polygon fill="none" stroke="#000000" points="1115,-792.5 1115,-822.5 1435,-822.5 1435,-792.5 1115,-792.5"/>
<text text-anchor="start" x="1122" y="-803.9" font-family="Arial" font-size="14.00" fill="#000000">billing_address    </text>
<text text-anchor="start" x="1249.5526" y="-803.9" font-family="Arial" font-size="14.00" fill="#666666">[integer]</text>
<polygon fill="none" stroke="#000000" points="1115,-762.5 1115,-792.5 1435,-792.5 1435,-762.5 1115,-762.5"/>
<text text-anchor="start" x="1122" y="-773.9" font-family="Arial" font-size="14.00" fill="#000000">home_ou    </text>
<text text-anchor="start" x="1214.561" y="-773.9" font-family="Arial" font-size="14.00" fill="#666666">[integer]</text>
<polygon fill="none" stroke="#000000" points="1115,-732.5 1115,-762.5 1435,-762.5 1435,-732.5 1115,-732.5"/>
<text text-anchor="start" x="1122" y="-743.9" font-family="Arial" font-size="14.00" fill="#000000">dob    </text>
<text text-anchor="start" x="1179.5526" y="-743.9" font-family="Arial" font-size="14.00" fill="#666666">[date]</text>
<polygon fill="none" stroke="#000000" points="1115,-702.5 1115,-732.5 1435,-732.5 1435,-702.5 1115,-702.5"/>
<text text-anchor="start" x="1122" y="-713.9" font-family="Arial" font-size="14.00" fill="#000000">active    </text>
<text text-anchor="start" x="1192.7672" y="-713.9" font-family="Arial" font-size="14.00" fill="#666666">[boolean]</text>
<polygon fill="none" stroke="#000000" points="1115,-672.5 1115,-702.5 1435,-702.5 1435,-672.5 1115,-672.5"/>
<text text-anchor="start" x="1122" y="-683.9" font-family="Arial" font-size="14.00" fill="#000000">master_account    </text>
<text text-anchor="start" x="1255.7854" y="-683.9" font-family="Arial" font-size="14.00" fill="#666666">[boolean]</text>
<polygon fill="none" stroke="#000000" points="1115,-642.5 1115,-672.5 1435,-672.5 1435,-642.5 1115,-642.5"/>
<text text-anchor="start" x="1122" y="-653.9" font-family="Arial" font-size="14.00" fill="#000000">super_user    </text>
<text text-anchor="start" x="1226.2216" y="-653.9" font-family="Arial" font-size="14.00" fill="#666666">[boolean]</text>
<polygon fill="none" stroke="#000000" points="1115,-612.5 1115,-642.5 1435,-642.5 1435,-612.5 1115,-612.5"/>
<text text-anchor="start" x="1122" y="-623.9" font-family="Arial" font-size="14.00" fill="#000000">barred    </text>
<text text-anchor="start" x="1196.6564" y="-623.9" font-family="Arial" font-size="14.00" fill="#666666">[boolean]</text>
<polygon fill="none" stroke="#000000" points="1115,-582.5 1115,-612.5 1435,-612.5 1435,-582.5 1115,-582.5"/>
<text text-anchor="start" x="1122" y="-593.9" font-family="Arial" font-size="14.00" fill="#000000">deleted    </text>
<text text-anchor="start" x="1202.115" y="-593.9" font-family="Arial" font-size="14.00" fill="#666666">[boolean]</text>
<polygon fill="none" stroke="#000000" points="1115,-552.5 1115,-582.5 1435,-582.5 1435,-552.5 1115,-552.5"/>
<text text-anchor="start" x="1122" y="-563.9" font-family="Arial" font-size="14.00" fill="#000000">juvenile    </text>
<text text-anchor="start" x="1203.655" y="-563.9" font-family="Arial" font-size="14.00" fill="#666666">[boolean]</text>
<polygon fill="none" stroke="#000000" points="1115,-522.5 1115,-552.5 1435,-552.5 1435,-522.5 1115,-522.5"/>
<text text-anchor="start" x="1122" y="-533.9" font-family="Arial" font-size="14.00" fill="#000000">usrgroup    </text>
<text text-anchor="start" x="1211.439" y="-533.9" font-family="Arial" font-size="14.00" fill="#666666">[integer]</text>
<polygon fill="none" stroke="#000000" points="1115,-492.5 1115,-522.5 1435,-522.5 1435,-492.5 1115,-492.5"/>
<text text-anchor="start" x="1122" y="-503.9" font-family="Arial" font-size="14.00" fill="#000000">claims_returned_count    </text>
<text text-anchor="start" x="1297.7896" y="-503.9" font-family="Arial" font-size="14.00" fill="#666666">[integer]</text>
<polygon fill="none" stroke="#000000" points="1115,-462.5 1115,-492.5 1435,-492.5 1435,-462.5 1115,-462.5"/>
<text text-anchor="start" x="1122" y="-473.9" font-family="Arial" font-size="14.00" fill="#000000">credit_forward_balance    </text>
<text text-anchor="start" x="1301.6788" y="-473.9" font-family="Arial" font-size="14.00" fill="#666666">[numeric(6,2)]</text>
<polygon fill="none" stroke="#000000" points="1115,-432.5 1115,-462.5 1435,-462.5 1435,-432.5 1115,-432.5"/>
<text text-anchor="start" x="1122" y="-443.9" font-family="Arial" font-size="14.00" fill="#000000">last_xact_id    </text>
<text text-anchor="start" x="1230.1122" y="-443.9" font-family="Arial" font-size="14.00" fill="#666666">[text]</text>
<polygon fill="none" stroke="#000000" points="1115,-402.5 1115,-432.5 1435,-432.5 1435,-402.5 1115,-402.5"/>
<text text-anchor="start" x="1122" y="-413.9" font-family="Arial" font-size="14.00" fill="#000000">alert_message    </text>
<text text-anchor="start" x="1248.0014" y="-413.9" font-family="Arial" font-size="14.00" fill="#666666">[text]</text>
<polygon fill="none" stroke="#000000" points="1115,-372.5 1115,-402.5 1435,-402.5 1435,-372.5 1115,-372.5"/>
<text text-anchor="start" x="1122" y="-383.9" font-family="Arial" font-size="14.00" fill="#000000">create_date    </text>
<text text-anchor="start" x="1230.1248" y="-383.9" font-family="Arial" font-size="14.00" fill="#666666">[timestamp with time zone]</text>
<polygon fill="none" stroke="#000000" points="1115,-342.5 1115,-372.5 1435,-372.5 1435,-342.5 1115,-342.5"/>
<text text-anchor="start" x="1122" y="-353.9" font-family="Arial" font-size="14.00" fill="#000000">expire_date    </text>
<text text-anchor="start" x="1229.3408" y="-353.9" font-family="Arial" font-size="14.00" fill="#666666">[timestamp with time zone]</text>
<polygon fill="none" stroke="#000000" points="1115,-312.5 1115,-342.5 1435,-342.5 1435,-312.5 1115,-312.5"/>
<text text-anchor="start" x="1122" y="-323.9" font-family="Arial" font-size="14.00" fill="#000000">claims_never_checked_out_count    </text>
<text text-anchor="start" x="1367.8246" y="-323.9" font-family="Arial" font-size="14.00" fill="#666666">[integer]</text>
<polygon fill="none" stroke="#000000" points="1115,-282.5 1115,-312.5 1435,-312.5 1435,-282.5 1115,-282.5"/>
<text text-anchor="start" x="1121.7609" y="-293.9" font-family="Arial" font-size="14.00" fill="#000000">last_update_time    </text>
<text text-anchor="start" x="1262.5547" y="-293.9" font-family="Arial" font-size="14.00" fill="#666666">[timestamp with time zone]</text>
<polygon fill="none" stroke="#000000" points="1115,-252.5 1115,-282.5 1435,-282.5 1435,-252.5 1115,-252.5"/>
<text text-anchor="start" x="1122" y="-263.9" font-family="Arial" font-size="14.00" fill="#000000">pref_prefix    </text>
<text text-anchor="start" x="1222.3268" y="-263.9" font-family="Arial" font-size="14.00" fill="#666666">[text]</text>
<polygon fill="none" stroke="#000000" points="1115,-222.5 1115,-252.5 1435,-252.5 1435,-222.5 1115,-222.5"/>
<text text-anchor="start" x="1122" y="-233.9" font-family="Arial" font-size="14.00" fill="#000000">pref_first_given_name    </text>
<text text-anchor="start" x="1294.6802" y="-233.9" font-family="Arial" font-size="14.00" fill="#666666">[text]</text>
<polygon fill="none" stroke="#000000" points="1115,-192.5 1115,-222.5 1435,-222.5 1435,-192.5 1115,-192.5"/>
<text text-anchor="start" x="1122" y="-203.9" font-family="Arial" font-size="14.00" fill="#000000">pref_second_given_name    </text>
<text text-anchor="start" x="1317.2622" y="-203.9" font-family="Arial" font-size="14.00" fill="#666666">[text]</text>
<polygon fill="none" stroke="#000000" points="1115,-162.5 1115,-192.5 1435,-192.5 1435,-162.5 1115,-162.5"/>
<text text-anchor="start" x="1122" y="-173.9" font-family="Arial" font-size="14.00" fill="#000000">pref_family_name    </text>
<text text-anchor="start" x="1267.4418" y="-173.9" font-family="Arial" font-size="14.00" fill="#666666">[text]</text>
<polygon fill="none" stroke="#000000" points="1115,-132.5 1115,-162.5 1435,-162.5 1435,-132.5 1115,-132.5"/>
<text text-anchor="start" x="1122" y="-143.9" font-family="Arial" font-size="14.00" fill="#000000">pref_suffix    </text>
<text text-anchor="start" x="1220.7742" y="-143.9" font-family="Arial" font-size="14.00" fill="#666666">[text]</text>
<polygon fill="none" stroke="#000000" points="1115,-102.5 1115,-132.5 1435,-132.5 1435,-102.5 1115,-102.5"/>
<text text-anchor="start" x="1122" y="-113.9" font-family="Arial" font-size="14.00" fill="#000000">name_keywords    </text>
<text text-anchor="start" x="1258.1108" y="-113.9" font-family="Arial" font-size="14.00" fill="#666666">[text]</text>
<polygon fill="none" stroke="#000000" points="1115,-72.5 1115,-102.5 1435,-102.5 1435,-72.5 1115,-72.5"/>
<text text-anchor="start" x="1122" y="-83.9" font-family="Arial" font-size="14.00" fill="#000000">name_kw_tsvector    </text>
<text text-anchor="start" x="1272.892" y="-83.9" font-family="Arial" font-size="14.00" fill="#666666">[tsvector]</text>
<polygon fill="none" stroke="#000000" points="1115,-42.5 1115,-72.5 1435,-72.5 1435,-42.5 1115,-42.5"/>
<text text-anchor="start" x="1122" y="-53.9" font-family="Arial" font-size="14.00" fill="#000000">guardian    </text>
<text text-anchor="start" x="1210.6676" y="-53.9" font-family="Arial" font-size="14.00" fill="#666666">[text]</text>
</g>
<!-- acq.fund_allocation&#45;&gt;actor.usr -->
<g id="edge3" class="edge">
<title>acq.fund_allocation:allocator&#45;&gt;actor.usr:id</title>
<path fill="none" stroke="#000000" d="M1040.2361,-1746.7828C1138.2613,-1732.1191 1001.3097,-1497.5 1115,-1497.5"/>
<polygon fill="#000000" stroke="#000000" points="1039.9755,-1746.801 1029.6855,-1743.011 1034.9878,-1747.1505 1030,-1747.5 1030,-1747.5 1030,-1747.5 1034.9878,-1747.1505 1030.3145,-1751.989 1039.9755,-1746.801 1039.9755,-1746.801"/>
<text text-anchor="start" x="1036.5525" y="-1757.5" font-family="Arial" font-size="10.00" fill="#000000">FOREIGN KEY (allocator) REFERENCES actor.usr(id) DEFERRABLE INITIALLY DEFERRED</text>
</g>
</g>
</svg>
