<?xml version="1.0" encoding="UTF-8" standalone="no"?>
<!DOCTYPE svg PUBLIC "-//W3C//DTD SVG 1.1//EN"
 "http://www.w3.org/Graphics/SVG/1.1/DTD/svg11.dtd">
<!-- Generated by graphviz version 2.40.1 (20161225.0304)
 -->
<!-- Title: acq.distribution_formula_entry Pages: 1 -->
<svg width="1948pt" height="952pt"
 viewBox="0.00 0.00 1948.00 952.00" xmlns="http://www.w3.org/2000/svg" xmlns:xlink="http://www.w3.org/1999/xlink">
<g id="graph0" class="graph" transform="scale(1 1) rotate(0) translate(4 948)">
<title>acq.distribution_formula_entry</title>
<polygon fill="#ffffff" stroke="transparent" points="-4,4 -4,-948 1944,-948 1944,4 -4,4"/>
<!-- acq.distribution_formula_entry -->
<g id="node1" class="node">
<title>acq.distribution_formula_entry</title>
<polygon fill="#efefef" stroke="transparent" points="794,-862.5 794,-897.5 1176,-897.5 1176,-862.5 794,-862.5"/>
<polygon fill="none" stroke="#000000" points="794,-862.5 794,-897.5 1176,-897.5 1176,-862.5 794,-862.5"/>
<text text-anchor="start" x="800.6943" y="-875.3" font-family="Arial Bold" font-size="18.00" fill="#000000">acq.distribution_formula_entry</text>
<text text-anchor="start" x="1041.7377" y="-875.3" font-family="Arial" font-size="14.00" fill="#000000">    </text>
<text text-anchor="start" x="1075.9425" y="-875.3" font-family="Arial" font-size="14.00" fill="#666666">[BASE TABLE]</text>
<polygon fill="none" stroke="#000000" points="794,-832.5 794,-862.5 1176,-862.5 1176,-832.5 794,-832.5"/>
<text text-anchor="start" x="801" y="-843.9" font-family="Arial" font-size="14.00" fill="#000000">id </text>
<text text-anchor="start" x="815.7798" y="-843.9" font-family="Arial" font-size="14.00" fill="#666666">[integer]</text>
<polygon fill="none" stroke="#000000" points="794,-802.5 794,-832.5 1176,-832.5 1176,-802.5 794,-802.5"/>
<text text-anchor="start" x="801" y="-813.9" font-family="Arial" font-size="14.00" fill="#000000">formula </text>
<text text-anchor="start" x="851.5568" y="-813.9" font-family="Arial" font-size="14.00" fill="#666666">[integer]</text>
<polygon fill="none" stroke="#000000" points="794,-772.5 794,-802.5 1176,-802.5 1176,-772.5 794,-772.5"/>
<text text-anchor="start" x="801" y="-783.9" font-family="Arial" font-size="14.00" fill="#000000">position </text>
<text text-anchor="start" x="853.1248" y="-783.9" font-family="Arial" font-size="14.00" fill="#666666">[integer]</text>
<polygon fill="none" stroke="#000000" points="794,-742.5 794,-772.5 1176,-772.5 1176,-742.5 794,-742.5"/>
<text text-anchor="start" x="801" y="-753.9" font-family="Arial" font-size="14.00" fill="#000000">item_count </text>
<text text-anchor="start" x="873.352" y="-753.9" font-family="Arial" font-size="14.00" fill="#666666">[integer]</text>
<polygon fill="none" stroke="#000000" points="794,-712.5 794,-742.5 1176,-742.5 1176,-712.5 794,-712.5"/>
<text text-anchor="start" x="801" y="-723.9" font-family="Arial" font-size="14.00" fill="#000000">owning_lib </text>
<text text-anchor="start" x="871.0126" y="-723.9" font-family="Arial" font-size="14.00" fill="#666666">[integer]</text>
<polygon fill="none" stroke="#000000" points="794,-682.5 794,-712.5 1176,-712.5 1176,-682.5 794,-682.5"/>
<text text-anchor="start" x="801" y="-693.9" font-family="Arial" font-size="14.00" fill="#000000">location </text>
<text text-anchor="start" x="853.1248" y="-693.9" font-family="Arial" font-size="14.00" fill="#666666">[integer]</text>
<polygon fill="none" stroke="#000000" points="794,-652.5 794,-682.5 1176,-682.5 1176,-652.5 794,-652.5"/>
<text text-anchor="start" x="801" y="-663.9" font-family="Arial" font-size="14.00" fill="#000000">fund </text>
<text text-anchor="start" x="832.129" y="-663.9" font-family="Arial" font-size="14.00" fill="#666666">[integer]</text>
<polygon fill="none" stroke="#000000" points="794,-622.5 794,-652.5 1176,-652.5 1176,-622.5 794,-622.5"/>
<text text-anchor="start" x="801" y="-633.9" font-family="Arial" font-size="14.00" fill="#000000">circ_modifier </text>
<text text-anchor="start" x="884.2132" y="-633.9" font-family="Arial" font-size="14.00" fill="#666666">[text]</text>
<polygon fill="none" stroke="#000000" points="794,-592.5 794,-622.5 1176,-622.5 1176,-592.5 794,-592.5"/>
<text text-anchor="start" x="801" y="-603.9" font-family="Arial" font-size="14.00" fill="#000000">collection_code </text>
<text text-anchor="start" x="901.3618" y="-603.9" font-family="Arial" font-size="14.00" fill="#666666">[text]</text>
<polygon fill="none" stroke="#000000" stroke-width="3" points="792.5,-591.5 792.5,-899.5 1177.5,-899.5 1177.5,-591.5 792.5,-591.5"/>
</g>
<!-- acq.distribution_formula -->
<g id="node2" class="node">
<title>acq.distribution_formula</title>
<polygon fill="#efefef" stroke="transparent" points="43,-297.5 43,-332.5 375,-332.5 375,-297.5 43,-297.5"/>
<polygon fill="none" stroke="#000000" points="43,-297.5 43,-332.5 375,-332.5 375,-297.5 43,-297.5"/>
<text text-anchor="start" x="49.7008" y="-310.3" font-family="Arial Bold" font-size="18.00" fill="#000000">acq.distribution_formula</text>
<text text-anchor="start" x="240.7312" y="-310.3" font-family="Arial" font-size="14.00" fill="#000000">    </text>
<text text-anchor="start" x="274.936" y="-310.3" font-family="Arial" font-size="14.00" fill="#666666">[BASE TABLE]</text>
<polygon fill="none" stroke="#000000" points="43,-267.5 43,-297.5 375,-297.5 375,-267.5 43,-267.5"/>
<text text-anchor="start" x="50" y="-278.9" font-family="Arial" font-size="14.00" fill="#000000">id    </text>
<text text-anchor="start" x="95.094" y="-278.9" font-family="Arial" font-size="14.00" fill="#666666">[integer]</text>
<polygon fill="none" stroke="#000000" points="43,-237.5 43,-267.5 375,-267.5 375,-237.5 43,-237.5"/>
<text text-anchor="start" x="50" y="-248.9" font-family="Arial" font-size="14.00" fill="#000000">owner    </text>
<text text-anchor="start" x="122.3198" y="-248.9" font-family="Arial" font-size="14.00" fill="#666666">[integer]</text>
<polygon fill="none" stroke="#000000" points="43,-207.5 43,-237.5 375,-237.5 375,-207.5 43,-207.5"/>
<text text-anchor="start" x="50" y="-218.9" font-family="Arial" font-size="14.00" fill="#000000">name    </text>
<text text-anchor="start" x="119.2132" y="-218.9" font-family="Arial" font-size="14.00" fill="#666666">[text]</text>
<polygon fill="none" stroke="#000000" points="43,-177.5 43,-207.5 375,-207.5 375,-177.5 43,-177.5"/>
<text text-anchor="start" x="50" y="-188.9" font-family="Arial" font-size="14.00" fill="#000000">skip_count    </text>
<text text-anchor="start" x="151.115" y="-188.9" font-family="Arial" font-size="14.00" fill="#666666">[integer]</text>
</g>
<!-- acq.distribution_formula_entry&#45;&gt;acq.distribution_formula -->
<g id="edge1" class="edge">
<title>acq.distribution_formula_entry:formula&#45;&gt;acq.distribution_formula:id</title>
<path fill="none" stroke="#000000" d="M783.8578,-817.4027C580.067,-813.4488 536.1763,-689.3216 427,-511 372.6167,-422.1737 479.1521,-282.5 375,-282.5"/>
<polygon fill="#000000" stroke="#000000" points="784.0005,-817.404 793.9568,-821.9998 789.0002,-817.452 794,-817.5 794,-817.5 794,-817.5 789.0002,-817.452 794.0432,-813.0002 784.0005,-817.404 784.0005,-817.404"/>
<text text-anchor="start" x="194.8785" y="-827.5" font-family="Arial" font-size="10.00" fill="#000000">FOREIGN KEY (formula) REFERENCES acq.distribution_formula(id) ON DELETE CASCADE DEFERRABLE INITIALLY DEFERRED</text>
</g>
<!-- actor.org_unit -->
<g id="node3" class="node">
<title>actor.org_unit</title>
<polygon fill="#efefef" stroke="transparent" points="480,-432.5 480,-467.5 731,-467.5 731,-432.5 480,-432.5"/>
<polygon fill="none" stroke="#000000" points="480,-432.5 480,-467.5 731,-467.5 731,-432.5 480,-432.5"/>
<text text-anchor="start" x="486.7017" y="-445.3" font-family="Arial Bold" font-size="18.00" fill="#000000">actor.org_unit</text>
<text text-anchor="start" x="596.7303" y="-445.3" font-family="Arial" font-size="14.00" fill="#000000">    </text>
<text text-anchor="start" x="630.9351" y="-445.3" font-family="Arial" font-size="14.00" fill="#666666">[BASE TABLE]</text>
<polygon fill="none" stroke="#000000" points="480,-402.5 480,-432.5 731,-432.5 731,-402.5 480,-402.5"/>
<text text-anchor="start" x="487" y="-413.9" font-family="Arial" font-size="14.00" fill="#000000">id    </text>
<text text-anchor="start" x="532.094" y="-413.9" font-family="Arial" font-size="14.00" fill="#666666">[integer]</text>
<polygon fill="none" stroke="#000000" points="480,-372.5 480,-402.5 731,-402.5 731,-372.5 480,-372.5"/>
<text text-anchor="start" x="487" y="-383.9" font-family="Arial" font-size="14.00" fill="#000000">parent_ou    </text>
<text text-anchor="start" x="584.2342" y="-383.9" font-family="Arial" font-size="14.00" fill="#666666">[integer]</text>
<polygon fill="none" stroke="#000000" points="480,-342.5 480,-372.5 731,-372.5 731,-342.5 480,-342.5"/>
<text text-anchor="start" x="487" y="-353.9" font-family="Arial" font-size="14.00" fill="#000000">ou_type    </text>
<text text-anchor="start" x="571.0084" y="-353.9" font-family="Arial" font-size="14.00" fill="#666666">[integer]</text>
<polygon fill="none" stroke="#000000" points="480,-312.5 480,-342.5 731,-342.5 731,-312.5 480,-312.5"/>
<text text-anchor="start" x="487" y="-323.9" font-family="Arial" font-size="14.00" fill="#000000">ill_address    </text>
<text text-anchor="start" x="588.0982" y="-323.9" font-family="Arial" font-size="14.00" fill="#666666">[integer]</text>
<polygon fill="none" stroke="#000000" points="480,-282.5 480,-312.5 731,-312.5 731,-282.5 480,-282.5"/>
<text text-anchor="start" x="487" y="-293.9" font-family="Arial" font-size="14.00" fill="#000000">holds_address    </text>
<text text-anchor="start" x="612.2328" y="-293.9" font-family="Arial" font-size="14.00" fill="#666666">[integer]</text>
<polygon fill="none" stroke="#000000" points="480,-252.5 480,-282.5 731,-282.5 731,-252.5 480,-252.5"/>
<text text-anchor="start" x="487" y="-263.9" font-family="Arial" font-size="14.00" fill="#000000">mailing_address    </text>
<text text-anchor="start" x="623.1066" y="-263.9" font-family="Arial" font-size="14.00" fill="#666666">[integer]</text>
<polygon fill="none" stroke="#000000" points="480,-222.5 480,-252.5 731,-252.5 731,-222.5 480,-222.5"/>
<text text-anchor="start" x="487" y="-233.9" font-family="Arial" font-size="14.00" fill="#000000">billing_address    </text>
<text text-anchor="start" x="614.5526" y="-233.9" font-family="Arial" font-size="14.00" fill="#666666">[integer]</text>
<polygon fill="none" stroke="#000000" points="480,-192.5 480,-222.5 731,-222.5 731,-192.5 480,-192.5"/>
<text text-anchor="start" x="487" y="-203.9" font-family="Arial" font-size="14.00" fill="#000000">shortname    </text>
<text text-anchor="start" x="587.3296" y="-203.9" font-family="Arial" font-size="14.00" fill="#666666">[text]</text>
<polygon fill="none" stroke="#000000" points="480,-162.5 480,-192.5 731,-192.5 731,-162.5 480,-162.5"/>
<text text-anchor="start" x="487" y="-173.9" font-family="Arial" font-size="14.00" fill="#000000">name    </text>
<text text-anchor="start" x="556.2132" y="-173.9" font-family="Arial" font-size="14.00" fill="#666666">[text]</text>
<polygon fill="none" stroke="#000000" points="480,-132.5 480,-162.5 731,-162.5 731,-132.5 480,-132.5"/>
<text text-anchor="start" x="487" y="-143.9" font-family="Arial" font-size="14.00" fill="#000000">email    </text>
<text text-anchor="start" x="554.6438" y="-143.9" font-family="Arial" font-size="14.00" fill="#666666">[text]</text>
<polygon fill="none" stroke="#000000" points="480,-102.5 480,-132.5 731,-132.5 731,-102.5 480,-102.5"/>
<text text-anchor="start" x="487" y="-113.9" font-family="Arial" font-size="14.00" fill="#000000">phone    </text>
<text text-anchor="start" x="560.1178" y="-113.9" font-family="Arial" font-size="14.00" fill="#666666">[text]</text>
<polygon fill="none" stroke="#000000" points="480,-72.5 480,-102.5 731,-102.5 731,-72.5 480,-72.5"/>
<text text-anchor="start" x="487" y="-83.9" font-family="Arial" font-size="14.00" fill="#000000">opac_visible    </text>
<text text-anchor="start" x="598.2202" y="-83.9" font-family="Arial" font-size="14.00" fill="#666666">[boolean]</text>
<polygon fill="none" stroke="#000000" points="480,-42.5 480,-72.5 731,-72.5 731,-42.5 480,-42.5"/>
<text text-anchor="start" x="487" y="-53.9" font-family="Arial" font-size="14.00" fill="#000000">fiscal_calendar    </text>
<text text-anchor="start" x="614.554" y="-53.9" font-family="Arial" font-size="14.00" fill="#666666">[integer]</text>
</g>
<!-- acq.distribution_formula_entry&#45;&gt;actor.org_unit -->
<g id="edge2" class="edge">
<title>acq.distribution_formula_entry:owning_lib&#45;&gt;actor.org_unit:id</title>
<path fill="none" stroke="#000000" d="M783.9728,-726.9106C664.2544,-711.9577 868.0244,-417.5 731,-417.5"/>
<polygon fill="#000000" stroke="#000000" points="784.0172,-726.9131 793.7359,-731.9922 789.0086,-727.2066 794,-727.5 794,-727.5 794,-727.5 789.0086,-727.2066 794.2641,-723.0078 784.0172,-726.9131 784.0172,-726.9131"/>
<text text-anchor="start" x="336.7115" y="-737.5" font-family="Arial" font-size="10.00" fill="#000000">FOREIGN KEY (owning_lib) REFERENCES actor.org_unit(id) DEFERRABLE INITIALLY DEFERRED</text>
</g>
<!-- asset.copy_location -->
<g id="node4" class="node">
<title>asset.copy_location</title>
<polygon fill="#efefef" stroke="transparent" points="835,-417.5 835,-452.5 1134,-452.5 1134,-417.5 835,-417.5"/>
<polygon fill="none" stroke="#000000" points="835,-417.5 835,-452.5 1134,-452.5 1134,-417.5 835,-417.5"/>
<text text-anchor="start" x="841.6906" y="-430.3" font-family="Arial Bold" font-size="18.00" fill="#000000">asset.copy_location</text>
<text text-anchor="start" x="999.7414" y="-430.3" font-family="Arial" font-size="14.00" fill="#000000">    </text>
<text text-anchor="start" x="1033.9462" y="-430.3" font-family="Arial" font-size="14.00" fill="#666666">[BASE TABLE]</text>
<polygon fill="none" stroke="#000000" points="835,-387.5 835,-417.5 1134,-417.5 1134,-387.5 835,-387.5"/>
<text text-anchor="start" x="842" y="-398.9" font-family="Arial" font-size="14.00" fill="#000000">id    </text>
<text text-anchor="start" x="887.094" y="-398.9" font-family="Arial" font-size="14.00" fill="#666666">[integer]</text>
<polygon fill="none" stroke="#000000" points="835,-357.5 835,-387.5 1134,-387.5 1134,-357.5 835,-357.5"/>
<text text-anchor="start" x="842" y="-368.9" font-family="Arial" font-size="14.00" fill="#000000">name    </text>
<text text-anchor="start" x="911.2132" y="-368.9" font-family="Arial" font-size="14.00" fill="#666666">[text]</text>
<polygon fill="none" stroke="#000000" points="835,-327.5 835,-357.5 1134,-357.5 1134,-327.5 835,-327.5"/>
<text text-anchor="start" x="842" y="-338.9" font-family="Arial" font-size="14.00" fill="#000000">owning_lib    </text>
<text text-anchor="start" x="942.3268" y="-338.9" font-family="Arial" font-size="14.00" fill="#666666">[integer]</text>
<polygon fill="none" stroke="#000000" points="835,-297.5 835,-327.5 1134,-327.5 1134,-297.5 835,-297.5"/>
<text text-anchor="start" x="842" y="-308.9" font-family="Arial" font-size="14.00" fill="#000000">holdable    </text>
<text text-anchor="start" x="929.1136" y="-308.9" font-family="Arial" font-size="14.00" fill="#666666">[boolean]</text>
<polygon fill="none" stroke="#000000" points="835,-267.5 835,-297.5 1134,-297.5 1134,-267.5 835,-267.5"/>
<text text-anchor="start" x="842" y="-278.9" font-family="Arial" font-size="14.00" fill="#000000">hold_verify    </text>
<text text-anchor="start" x="943.8822" y="-278.9" font-family="Arial" font-size="14.00" fill="#666666">[boolean]</text>
<polygon fill="none" stroke="#000000" points="835,-237.5 835,-267.5 1134,-267.5 1134,-237.5 835,-237.5"/>
<text text-anchor="start" x="842" y="-248.9" font-family="Arial" font-size="14.00" fill="#000000">opac_visible    </text>
<text text-anchor="start" x="953.2202" y="-248.9" font-family="Arial" font-size="14.00" fill="#666666">[boolean]</text>
<polygon fill="none" stroke="#000000" points="835,-207.5 835,-237.5 1134,-237.5 1134,-207.5 835,-207.5"/>
<text text-anchor="start" x="842" y="-218.9" font-family="Arial" font-size="14.00" fill="#000000">circulate    </text>
<text text-anchor="start" x="928.317" y="-218.9" font-family="Arial" font-size="14.00" fill="#666666">[boolean]</text>
<polygon fill="none" stroke="#000000" points="835,-177.5 835,-207.5 1134,-207.5 1134,-177.5 835,-177.5"/>
<text text-anchor="start" x="842" y="-188.9" font-family="Arial" font-size="14.00" fill="#000000">label_prefix    </text>
<text text-anchor="start" x="947.7714" y="-188.9" font-family="Arial" font-size="14.00" fill="#666666">[text]</text>
<polygon fill="none" stroke="#000000" points="835,-147.5 835,-177.5 1134,-177.5 1134,-147.5 835,-147.5"/>
<text text-anchor="start" x="842" y="-158.9" font-family="Arial" font-size="14.00" fill="#000000">label_suffix    </text>
<text text-anchor="start" x="946.2188" y="-158.9" font-family="Arial" font-size="14.00" fill="#666666">[text]</text>
<polygon fill="none" stroke="#000000" points="835,-117.5 835,-147.5 1134,-147.5 1134,-117.5 835,-117.5"/>
<text text-anchor="start" x="842" y="-128.9" font-family="Arial" font-size="14.00" fill="#000000">checkin_alert    </text>
<text text-anchor="start" x="958.6648" y="-128.9" font-family="Arial" font-size="14.00" fill="#666666">[boolean]</text>
<polygon fill="none" stroke="#000000" points="835,-87.5 835,-117.5 1134,-117.5 1134,-87.5 835,-87.5"/>
<text text-anchor="start" x="842" y="-98.9" font-family="Arial" font-size="14.00" fill="#000000">deleted    </text>
<text text-anchor="start" x="922.115" y="-98.9" font-family="Arial" font-size="14.00" fill="#666666">[boolean]</text>
<polygon fill="none" stroke="#000000" points="835,-57.5 835,-87.5 1134,-87.5 1134,-57.5 835,-57.5"/>
<text text-anchor="start" x="842" y="-68.9" font-family="Arial" font-size="14.00" fill="#000000">url    </text>
<text text-anchor="start" x="891.7546" y="-68.9" font-family="Arial" font-size="14.00" fill="#666666">[text]</text>
</g>
<!-- acq.distribution_formula_entry&#45;&gt;asset.copy_location -->
<g id="edge3" class="edge">
<title>acq.distribution_formula_entry:location&#45;&gt;asset.copy_location:id</title>
<path fill="none" stroke="#000000" d="M783.8233,-696.6288C729.714,-686.7296 752.7383,-594.9126 794,-547 893.7117,-431.216 1034.2883,-611.784 1134,-496 1161.1173,-464.5117 1175.5556,-402.5 1134,-402.5"/>
<polygon fill="#000000" stroke="#000000" points="784.0364,-696.647 793.6161,-701.9836 789.0182,-697.0735 794,-697.5 794,-697.5 794,-697.5 789.0182,-697.0735 794.3839,-693.0164 784.0364,-696.647 784.0364,-696.647"/>
<text text-anchor="start" x="498.8205" y="-707.5" font-family="Arial" font-size="10.00" fill="#000000">FOREIGN KEY (location) REFERENCES asset.copy_location(id)</text>
</g>
<!-- acq.fund -->
<g id="node5" class="node">
<title>acq.fund</title>
<polygon fill="#efefef" stroke="transparent" points="1238,-402.5 1238,-437.5 1497,-437.5 1497,-402.5 1238,-402.5"/>
<polygon fill="none" stroke="#000000" points="1238,-402.5 1238,-437.5 1497,-437.5 1497,-402.5 1238,-402.5"/>
<text text-anchor="start" x="1269.1983" y="-415.3" font-family="Arial Bold" font-size="18.00" fill="#000000">acq.fund</text>
<text text-anchor="start" x="1338.2337" y="-415.3" font-family="Arial" font-size="14.00" fill="#000000">    </text>
<text text-anchor="start" x="1372.4385" y="-415.3" font-family="Arial" font-size="14.00" fill="#666666">[BASE TABLE]</text>
<polygon fill="none" stroke="#000000" points="1238,-372.5 1238,-402.5 1497,-402.5 1497,-372.5 1238,-372.5"/>
<text text-anchor="start" x="1245" y="-383.9" font-family="Arial" font-size="14.00" fill="#000000">id    </text>
<text text-anchor="start" x="1290.094" y="-383.9" font-family="Arial" font-size="14.00" fill="#666666">[integer]</text>
<polygon fill="none" stroke="#000000" points="1238,-342.5 1238,-372.5 1497,-372.5 1497,-342.5 1238,-342.5"/>
<text text-anchor="start" x="1245" y="-353.9" font-family="Arial" font-size="14.00" fill="#000000">org    </text>
<text text-anchor="start" x="1299.4306" y="-353.9" font-family="Arial" font-size="14.00" fill="#666666">[integer]</text>
<polygon fill="none" stroke="#000000" points="1238,-312.5 1238,-342.5 1497,-342.5 1497,-312.5 1238,-312.5"/>
<text text-anchor="start" x="1245" y="-323.9" font-family="Arial" font-size="14.00" fill="#000000">name    </text>
<text text-anchor="start" x="1314.2132" y="-323.9" font-family="Arial" font-size="14.00" fill="#666666">[text]</text>
<polygon fill="none" stroke="#000000" points="1238,-282.5 1238,-312.5 1497,-312.5 1497,-282.5 1238,-282.5"/>
<text text-anchor="start" x="1245" y="-293.9" font-family="Arial" font-size="14.00" fill="#000000">year    </text>
<text text-anchor="start" x="1306.4306" y="-293.9" font-family="Arial" font-size="14.00" fill="#666666">[integer]</text>
<polygon fill="none" stroke="#000000" points="1238,-252.5 1238,-282.5 1497,-282.5 1497,-252.5 1238,-252.5"/>
<text text-anchor="start" x="1245" y="-263.9" font-family="Arial" font-size="14.00" fill="#000000">currency_type    </text>
<text text-anchor="start" x="1367.1122" y="-263.9" font-family="Arial" font-size="14.00" fill="#666666">[text]</text>
<polygon fill="none" stroke="#000000" points="1238,-222.5 1238,-252.5 1497,-252.5 1497,-222.5 1238,-222.5"/>
<text text-anchor="start" x="1245" y="-233.9" font-family="Arial" font-size="14.00" fill="#000000">code    </text>
<text text-anchor="start" x="1309.5526" y="-233.9" font-family="Arial" font-size="14.00" fill="#666666">[text]</text>
<polygon fill="none" stroke="#000000" points="1238,-192.5 1238,-222.5 1497,-222.5 1497,-192.5 1238,-192.5"/>
<text text-anchor="start" x="1245" y="-203.9" font-family="Arial" font-size="14.00" fill="#000000">rollover    </text>
<text text-anchor="start" x="1325.087" y="-203.9" font-family="Arial" font-size="14.00" fill="#666666">[boolean]</text>
<polygon fill="none" stroke="#000000" points="1238,-162.5 1238,-192.5 1497,-192.5 1497,-162.5 1238,-162.5"/>
<text text-anchor="start" x="1245" y="-173.9" font-family="Arial" font-size="14.00" fill="#000000">propagate    </text>
<text text-anchor="start" x="1342.2342" y="-173.9" font-family="Arial" font-size="14.00" fill="#666666">[boolean]</text>
<polygon fill="none" stroke="#000000" points="1238,-132.5 1238,-162.5 1497,-162.5 1497,-132.5 1238,-132.5"/>
<text text-anchor="start" x="1245" y="-143.9" font-family="Arial" font-size="14.00" fill="#000000">active    </text>
<text text-anchor="start" x="1315.7672" y="-143.9" font-family="Arial" font-size="14.00" fill="#666666">[boolean]</text>
<polygon fill="none" stroke="#000000" points="1238,-102.5 1238,-132.5 1497,-132.5 1497,-102.5 1238,-102.5"/>
<text text-anchor="start" x="1244.9776" y="-113.9" font-family="Arial" font-size="14.00" fill="#000000">balance_warning_percent    </text>
<text text-anchor="start" x="1439.453" y="-113.9" font-family="Arial" font-size="14.00" fill="#666666">[integer]</text>
<polygon fill="none" stroke="#000000" points="1238,-72.5 1238,-102.5 1497,-102.5 1497,-72.5 1238,-72.5"/>
<text text-anchor="start" x="1245" y="-83.9" font-family="Arial" font-size="14.00" fill="#000000">balance_stop_percent    </text>
<text text-anchor="start" x="1416.927" y="-83.9" font-family="Arial" font-size="14.00" fill="#666666">[integer]</text>
</g>
<!-- acq.distribution_formula_entry&#45;&gt;acq.fund -->
<g id="edge4" class="edge">
<title>acq.distribution_formula_entry:fund&#45;&gt;acq.fund:id</title>
<path fill="none" stroke="#000000" d="M1186.0727,-666.839C1292.7887,-651.8652 1114.1509,-387.5 1238,-387.5"/>
<polygon fill="#000000" stroke="#000000" points="1185.9785,-666.8451 1175.7053,-663.0097 1180.9893,-667.1725 1176,-667.5 1176,-667.5 1176,-667.5 1180.9893,-667.1725 1176.2947,-671.9903 1185.9785,-666.8451 1185.9785,-666.8451"/>
<text text-anchor="start" x="1183.0455" y="-677.5" font-family="Arial" font-size="10.00" fill="#000000">FOREIGN KEY (fund) REFERENCES acq.fund(id)</text>
</g>
<!-- config.circ_modifier -->
<g id="node6" class="node">
<title>config.circ_modifier</title>
<polygon fill="#efefef" stroke="transparent" points="1601,-327.5 1601,-362.5 1897,-362.5 1897,-327.5 1601,-327.5"/>
<polygon fill="none" stroke="#000000" points="1601,-327.5 1601,-362.5 1897,-362.5 1897,-327.5 1601,-327.5"/>
<text text-anchor="start" x="1607.7143" y="-340.3" font-family="Arial Bold" font-size="18.00" fill="#000000">config.circ_modifier</text>
<text text-anchor="start" x="1762.7177" y="-340.3" font-family="Arial" font-size="14.00" fill="#000000">    </text>
<text text-anchor="start" x="1796.9225" y="-340.3" font-family="Arial" font-size="14.00" fill="#666666">[BASE TABLE]</text>
<polygon fill="none" stroke="#000000" points="1601,-297.5 1601,-327.5 1897,-327.5 1897,-297.5 1601,-297.5"/>
<text text-anchor="start" x="1608" y="-308.9" font-family="Arial" font-size="14.00" fill="#000000">code    </text>
<text text-anchor="start" x="1672.5526" y="-308.9" font-family="Arial" font-size="14.00" fill="#666666">[text]</text>
<polygon fill="none" stroke="#000000" points="1601,-267.5 1601,-297.5 1897,-297.5 1897,-267.5 1601,-267.5"/>
<text text-anchor="start" x="1608" y="-278.9" font-family="Arial" font-size="14.00" fill="#000000">name    </text>
<text text-anchor="start" x="1677.2132" y="-278.9" font-family="Arial" font-size="14.00" fill="#666666">[text]</text>
<polygon fill="none" stroke="#000000" points="1601,-237.5 1601,-267.5 1897,-267.5 1897,-237.5 1601,-237.5"/>
<text text-anchor="start" x="1608" y="-248.9" font-family="Arial" font-size="14.00" fill="#000000">description    </text>
<text text-anchor="start" x="1709.8822" y="-248.9" font-family="Arial" font-size="14.00" fill="#666666">[text]</text>
<polygon fill="none" stroke="#000000" points="1601,-207.5 1601,-237.5 1897,-237.5 1897,-207.5 1601,-207.5"/>
<text text-anchor="start" x="1608" y="-218.9" font-family="Arial" font-size="14.00" fill="#000000">sip2_media_type    </text>
<text text-anchor="start" x="1748.0126" y="-218.9" font-family="Arial" font-size="14.00" fill="#666666">[text]</text>
<polygon fill="none" stroke="#000000" points="1601,-177.5 1601,-207.5 1897,-207.5 1897,-177.5 1601,-177.5"/>
<text text-anchor="start" x="1608" y="-188.9" font-family="Arial" font-size="14.00" fill="#000000">magnetic_media    </text>
<text text-anchor="start" x="1744.8906" y="-188.9" font-family="Arial" font-size="14.00" fill="#666666">[boolean]</text>
<polygon fill="none" stroke="#000000" points="1601,-147.5 1601,-177.5 1897,-177.5 1897,-147.5 1601,-147.5"/>
<text text-anchor="start" x="1608" y="-158.9" font-family="Arial" font-size="14.00" fill="#000000">avg_wait_time    </text>
<text text-anchor="start" x="1731.662" y="-158.9" font-family="Arial" font-size="14.00" fill="#666666">[interval]</text>
</g>
<!-- acq.distribution_formula_entry&#45;&gt;config.circ_modifier -->
<g id="edge5" class="edge">
<title>acq.distribution_formula_entry:circ_modifier&#45;&gt;config.circ_modifier:code</title>
<path fill="none" stroke="#000000" d="M1186.015,-637.2582C1279.6275,-632.9843 1491.4935,-572.7268 1549,-511 1611.166,-444.2717 1509.8009,-312.5 1601,-312.5"/>
<polygon fill="#000000" stroke="#000000" points="1185.9971,-637.2586 1175.8914,-633.0013 1180.9985,-637.3793 1176,-637.5 1176,-637.5 1176,-637.5 1180.9985,-637.3793 1176.1086,-641.9987 1185.9971,-637.2586 1185.9971,-637.2586"/>
<text text-anchor="start" x="1182.6145" y="-647.5" font-family="Arial" font-size="10.00" fill="#000000">FOREIGN KEY (circ_modifier) REFERENCES config.circ_modifier(code)</text>
</g>
</g>
</svg>
