<?xml version="1.0" encoding="UTF-8" standalone="no"?>
<!DOCTYPE svg PUBLIC "-//W3C//DTD SVG 1.1//EN"
 "http://www.w3.org/Graphics/SVG/1.1/DTD/svg11.dtd">
<!-- Generated by graphviz version 2.40.1 (20161225.0304)
 -->
<!-- Title: acq.edi_account Pages: 1 -->
<svg width="1058pt" height="1799pt"
 viewBox="0.00 0.00 1058.00 1799.00" xmlns="http://www.w3.org/2000/svg" xmlns:xlink="http://www.w3.org/1999/xlink">
<g id="graph0" class="graph" transform="scale(1 1) rotate(0) translate(4 1795)">
<title>acq.edi_account</title>
<polygon fill="#ffffff" stroke="transparent" points="-4,4 -4,-1795 1054,-1795 1054,4 -4,4"/>
<!-- acq.edi_account -->
<g id="node1" class="node">
<title>acq.edi_account</title>
<polygon fill="#efefef" stroke="transparent" points="221,-1162.5 221,-1197.5 493,-1197.5 493,-1162.5 221,-1162.5"/>
<polygon fill="none" stroke="#000000" points="221,-1162.5 221,-1197.5 493,-1197.5 493,-1162.5 221,-1162.5"/>
<text text-anchor="start" x="227.6888" y="-1175.3" font-family="Arial Bold" font-size="18.00" fill="#000000">acq.edi_account</text>
<text text-anchor="start" x="358.7432" y="-1175.3" font-family="Arial" font-size="14.00" fill="#000000">    </text>
<text text-anchor="start" x="392.948" y="-1175.3" font-family="Arial" font-size="14.00" fill="#666666">[BASE TABLE]</text>
<polygon fill="none" stroke="#000000" points="221,-1132.5 221,-1162.5 493,-1162.5 493,-1132.5 221,-1132.5"/>
<text text-anchor="start" x="228" y="-1143.9" font-family="Arial" font-size="14.00" fill="#000000">id </text>
<text text-anchor="start" x="242.7798" y="-1143.9" font-family="Arial" font-size="14.00" fill="#666666">[integer]</text>
<polygon fill="none" stroke="#000000" points="221,-1102.5 221,-1132.5 493,-1132.5 493,-1102.5 221,-1102.5"/>
<text text-anchor="start" x="228" y="-1113.9" font-family="Arial" font-size="14.00" fill="#000000">label </text>
<text text-anchor="start" x="261.4516" y="-1113.9" font-family="Arial" font-size="14.00" fill="#666666">[text]</text>
<polygon fill="none" stroke="#000000" points="221,-1072.5 221,-1102.5 493,-1102.5 493,-1072.5 221,-1072.5"/>
<text text-anchor="start" x="228" y="-1083.9" font-family="Arial" font-size="14.00" fill="#000000">host </text>
<text text-anchor="start" x="258.3464" y="-1083.9" font-family="Arial" font-size="14.00" fill="#666666">[text]</text>
<polygon fill="none" stroke="#000000" points="221,-1042.5 221,-1072.5 493,-1072.5 493,-1042.5 221,-1042.5"/>
<text text-anchor="start" x="228" y="-1053.9" font-family="Arial" font-size="14.00" fill="#000000">username </text>
<text text-anchor="start" x="294.1248" y="-1053.9" font-family="Arial" font-size="14.00" fill="#666666">[text]</text>
<polygon fill="none" stroke="#000000" points="221,-1012.5 221,-1042.5 493,-1042.5 493,-1012.5 221,-1012.5"/>
<text text-anchor="start" x="228" y="-1023.9" font-family="Arial" font-size="14.00" fill="#000000">password </text>
<text text-anchor="start" x="291.7882" y="-1023.9" font-family="Arial" font-size="14.00" fill="#666666">[text]</text>
<polygon fill="none" stroke="#000000" points="221,-982.5 221,-1012.5 493,-1012.5 493,-982.5 221,-982.5"/>
<text text-anchor="start" x="228" y="-993.9" font-family="Arial" font-size="14.00" fill="#000000">account </text>
<text text-anchor="start" x="280.9116" y="-993.9" font-family="Arial" font-size="14.00" fill="#666666">[text]</text>
<polygon fill="none" stroke="#000000" points="221,-952.5 221,-982.5 493,-982.5 493,-952.5 221,-952.5"/>
<text text-anchor="start" x="228" y="-963.9" font-family="Arial" font-size="14.00" fill="#000000">path </text>
<text text-anchor="start" x="259.129" y="-963.9" font-family="Arial" font-size="14.00" fill="#666666">[text]</text>
<polygon fill="none" stroke="#000000" points="221,-922.5 221,-952.5 493,-952.5 493,-922.5 221,-922.5"/>
<text text-anchor="start" x="228" y="-933.9" font-family="Arial" font-size="14.00" fill="#000000">owner </text>
<text text-anchor="start" x="270.0056" y="-933.9" font-family="Arial" font-size="14.00" fill="#666666">[integer]</text>
<polygon fill="none" stroke="#000000" points="221,-892.5 221,-922.5 493,-922.5 493,-892.5 221,-892.5"/>
<text text-anchor="start" x="228" y="-903.9" font-family="Arial" font-size="14.00" fill="#000000">last_activity </text>
<text text-anchor="start" x="304.23" y="-903.9" font-family="Arial" font-size="14.00" fill="#666666">[timestamp with time zone]</text>
<polygon fill="none" stroke="#000000" points="221,-862.5 221,-892.5 493,-892.5 493,-862.5 221,-862.5"/>
<text text-anchor="start" x="228" y="-873.9" font-family="Arial" font-size="14.00" fill="#000000">provider </text>
<text text-anchor="start" x="282.4488" y="-873.9" font-family="Arial" font-size="14.00" fill="#666666">[integer]</text>
<polygon fill="none" stroke="#000000" points="221,-832.5 221,-862.5 493,-862.5 493,-832.5 221,-832.5"/>
<text text-anchor="start" x="228" y="-843.9" font-family="Arial" font-size="14.00" fill="#000000">in_dir </text>
<text text-anchor="start" x="266.1122" y="-843.9" font-family="Arial" font-size="14.00" fill="#666666">[text]</text>
<polygon fill="none" stroke="#000000" points="221,-802.5 221,-832.5 493,-832.5 493,-802.5 221,-802.5"/>
<text text-anchor="start" x="228" y="-813.9" font-family="Arial" font-size="14.00" fill="#000000">vendcode </text>
<text text-anchor="start" x="292.5862" y="-813.9" font-family="Arial" font-size="14.00" fill="#666666">[text]</text>
<polygon fill="none" stroke="#000000" points="221,-772.5 221,-802.5 493,-802.5 493,-772.5 221,-772.5"/>
<text text-anchor="start" x="228" y="-783.9" font-family="Arial" font-size="14.00" fill="#000000">vendacct </text>
<text text-anchor="start" x="287.9116" y="-783.9" font-family="Arial" font-size="14.00" fill="#666666">[text]</text>
<polygon fill="none" stroke="#000000" points="221,-742.5 221,-772.5 493,-772.5 493,-742.5 221,-742.5"/>
<text text-anchor="start" x="228" y="-753.9" font-family="Arial" font-size="14.00" fill="#000000">attr_set </text>
<text text-anchor="start" x="278.5708" y="-753.9" font-family="Arial" font-size="14.00" fill="#666666">[integer]</text>
<polygon fill="none" stroke="#000000" points="221,-712.5 221,-742.5 493,-742.5 493,-712.5 221,-712.5"/>
<text text-anchor="start" x="228" y="-723.9" font-family="Arial" font-size="14.00" fill="#000000">use_attrs </text>
<text text-anchor="start" x="289.4628" y="-723.9" font-family="Arial" font-size="14.00" fill="#666666">[boolean]</text>
<polygon fill="none" stroke="#000000" stroke-width="3" points="219.5,-711.5 219.5,-1199.5 494.5,-1199.5 494.5,-711.5 219.5,-711.5"/>
</g>
<!-- acq.provider -->
<g id="node3" class="node">
<title>acq.provider</title>
<polygon fill="#efefef" stroke="transparent" points="237,-552.5 237,-587.5 477,-587.5 477,-552.5 237,-552.5"/>
<polygon fill="none" stroke="#000000" points="237,-552.5 237,-587.5 477,-587.5 477,-552.5 237,-552.5"/>
<text text-anchor="start" x="243.707" y="-565.3" font-family="Arial Bold" font-size="18.00" fill="#000000">acq.provider</text>
<text text-anchor="start" x="342.725" y="-565.3" font-family="Arial" font-size="14.00" fill="#000000">    </text>
<text text-anchor="start" x="376.9298" y="-565.3" font-family="Arial" font-size="14.00" fill="#666666">[BASE TABLE]</text>
<polygon fill="none" stroke="#000000" points="237,-522.5 237,-552.5 477,-552.5 477,-522.5 237,-522.5"/>
<text text-anchor="start" x="244" y="-533.9" font-family="Arial" font-size="14.00" fill="#000000">id    </text>
<text text-anchor="start" x="289.094" y="-533.9" font-family="Arial" font-size="14.00" fill="#666666">[integer]</text>
<polygon fill="none" stroke="#000000" points="237,-492.5 237,-522.5 477,-522.5 477,-492.5 237,-492.5"/>
<text text-anchor="start" x="244" y="-503.9" font-family="Arial" font-size="14.00" fill="#000000">name    </text>
<text text-anchor="start" x="313.2132" y="-503.9" font-family="Arial" font-size="14.00" fill="#666666">[text]</text>
<polygon fill="none" stroke="#000000" points="237,-462.5 237,-492.5 477,-492.5 477,-462.5 237,-462.5"/>
<text text-anchor="start" x="244" y="-473.9" font-family="Arial" font-size="14.00" fill="#000000">owner    </text>
<text text-anchor="start" x="316.3198" y="-473.9" font-family="Arial" font-size="14.00" fill="#666666">[integer]</text>
<polygon fill="none" stroke="#000000" points="237,-432.5 237,-462.5 477,-462.5 477,-432.5 237,-432.5"/>
<text text-anchor="start" x="244" y="-443.9" font-family="Arial" font-size="14.00" fill="#000000">currency_type    </text>
<text text-anchor="start" x="366.1122" y="-443.9" font-family="Arial" font-size="14.00" fill="#666666">[text]</text>
<polygon fill="none" stroke="#000000" points="237,-402.5 237,-432.5 477,-432.5 477,-402.5 237,-402.5"/>
<text text-anchor="start" x="244" y="-413.9" font-family="Arial" font-size="14.00" fill="#000000">code    </text>
<text text-anchor="start" x="308.5526" y="-413.9" font-family="Arial" font-size="14.00" fill="#666666">[text]</text>
<polygon fill="none" stroke="#000000" points="237,-372.5 237,-402.5 477,-402.5 477,-372.5 237,-372.5"/>
<text text-anchor="start" x="244" y="-383.9" font-family="Arial" font-size="14.00" fill="#000000">holding_tag    </text>
<text text-anchor="start" x="350.5694" y="-383.9" font-family="Arial" font-size="14.00" fill="#666666">[text]</text>
<polygon fill="none" stroke="#000000" points="237,-342.5 237,-372.5 477,-372.5 477,-342.5 237,-342.5"/>
<text text-anchor="start" x="244" y="-353.9" font-family="Arial" font-size="14.00" fill="#000000">san    </text>
<text text-anchor="start" x="300.77" y="-353.9" font-family="Arial" font-size="14.00" fill="#666666">[text]</text>
<polygon fill="none" stroke="#000000" points="237,-312.5 237,-342.5 477,-342.5 477,-312.5 237,-312.5"/>
<text text-anchor="start" x="244" y="-323.9" font-family="Arial" font-size="14.00" fill="#000000">edi_default    </text>
<text text-anchor="start" x="346.6774" y="-323.9" font-family="Arial" font-size="14.00" fill="#666666">[integer]</text>
<polygon fill="none" stroke="#000000" points="237,-282.5 237,-312.5 477,-312.5 477,-282.5 237,-282.5"/>
<text text-anchor="start" x="244" y="-293.9" font-family="Arial" font-size="14.00" fill="#000000">active    </text>
<text text-anchor="start" x="314.7672" y="-293.9" font-family="Arial" font-size="14.00" fill="#666666">[boolean]</text>
<polygon fill="none" stroke="#000000" points="237,-252.5 237,-282.5 477,-282.5 477,-252.5 237,-252.5"/>
<text text-anchor="start" x="244" y="-263.9" font-family="Arial" font-size="14.00" fill="#000000">prepayment_required    </text>
<text text-anchor="start" x="411.2356" y="-263.9" font-family="Arial" font-size="14.00" fill="#666666">[boolean]</text>
<polygon fill="none" stroke="#000000" points="237,-222.5 237,-252.5 477,-252.5 477,-222.5 237,-222.5"/>
<text text-anchor="start" x="244" y="-233.9" font-family="Arial" font-size="14.00" fill="#000000">url    </text>
<text text-anchor="start" x="293.7546" y="-233.9" font-family="Arial" font-size="14.00" fill="#666666">[text]</text>
<polygon fill="none" stroke="#000000" points="237,-192.5 237,-222.5 477,-222.5 477,-192.5 237,-192.5"/>
<text text-anchor="start" x="244" y="-203.9" font-family="Arial" font-size="14.00" fill="#000000">email    </text>
<text text-anchor="start" x="311.6438" y="-203.9" font-family="Arial" font-size="14.00" fill="#666666">[text]</text>
<polygon fill="none" stroke="#000000" points="237,-162.5 237,-192.5 477,-192.5 477,-162.5 237,-162.5"/>
<text text-anchor="start" x="244" y="-173.9" font-family="Arial" font-size="14.00" fill="#000000">phone    </text>
<text text-anchor="start" x="317.1178" y="-173.9" font-family="Arial" font-size="14.00" fill="#666666">[text]</text>
<polygon fill="none" stroke="#000000" points="237,-132.5 237,-162.5 477,-162.5 477,-132.5 237,-132.5"/>
<text text-anchor="start" x="244" y="-143.9" font-family="Arial" font-size="14.00" fill="#000000">fax_phone    </text>
<text text-anchor="start" x="343.5736" y="-143.9" font-family="Arial" font-size="14.00" fill="#666666">[text]</text>
<polygon fill="none" stroke="#000000" points="237,-102.5 237,-132.5 477,-132.5 477,-102.5 237,-102.5"/>
<text text-anchor="start" x="244" y="-113.9" font-family="Arial" font-size="14.00" fill="#000000">default_copy_count    </text>
<text text-anchor="start" x="399.5918" y="-113.9" font-family="Arial" font-size="14.00" fill="#666666">[integer]</text>
<polygon fill="none" stroke="#000000" points="237,-72.5 237,-102.5 477,-102.5 477,-72.5 237,-72.5"/>
<text text-anchor="start" x="244" y="-83.9" font-family="Arial" font-size="14.00" fill="#000000">default_claim_policy    </text>
<text text-anchor="start" x="404.223" y="-83.9" font-family="Arial" font-size="14.00" fill="#666666">[integer]</text>
<polygon fill="none" stroke="#000000" points="237,-42.5 237,-72.5 477,-72.5 477,-42.5 237,-42.5"/>
<text text-anchor="start" x="244" y="-53.9" font-family="Arial" font-size="14.00" fill="#000000">primary_contact    </text>
<text text-anchor="start" x="377.77" y="-53.9" font-family="Arial" font-size="14.00" fill="#666666">[integer]</text>
</g>
<!-- acq.edi_account&#45;&gt;acq.provider -->
<g id="edge3" class="edge">
<title>acq.edi_account:provider&#45;&gt;acq.provider:id</title>
<path fill="none" stroke="#000000" d="M501.0666,-871.3084C528.1172,-825.2271 511.7911,-537.5 477,-537.5"/>
<polygon fill="#000000" stroke="#000000" points="500.9327,-871.4112 490.26,-873.9303 496.9663,-874.4556 493,-877.5 493,-877.5 493,-877.5 496.9663,-874.4556 495.74,-881.0697 500.9327,-871.4112 500.9327,-871.4112"/>
<text text-anchor="start" x="500.0475" y="-887.5" font-family="Arial" font-size="10.00" fill="#000000">FOREIGN KEY (provider) REFERENCES acq.provider(id) ON DELETE CASCADE DEFERRABLE INITIALLY DEFERRED</text>
</g>
<!-- acq.edi_attr_set -->
<g id="node4" class="node">
<title>acq.edi_attr_set</title>
<polygon fill="#efefef" stroke="transparent" points="582,-327.5 582,-362.5 851,-362.5 851,-327.5 582,-327.5"/>
<polygon fill="none" stroke="#000000" points="582,-327.5 582,-362.5 851,-362.5 851,-327.5 582,-327.5"/>
<text text-anchor="start" x="588.6936" y="-340.3" font-family="Arial Bold" font-size="18.00" fill="#000000">acq.edi_attr_set</text>
<text text-anchor="start" x="716.7384" y="-340.3" font-family="Arial" font-size="14.00" fill="#000000">    </text>
<text text-anchor="start" x="750.9432" y="-340.3" font-family="Arial" font-size="14.00" fill="#666666">[BASE TABLE]</text>
<polygon fill="none" stroke="#000000" points="582,-297.5 582,-327.5 851,-327.5 851,-297.5 582,-297.5"/>
<text text-anchor="start" x="589" y="-308.9" font-family="Arial" font-size="14.00" fill="#000000">id    </text>
<text text-anchor="start" x="634.094" y="-308.9" font-family="Arial" font-size="14.00" fill="#666666">[integer]</text>
<polygon fill="none" stroke="#000000" points="582,-267.5 582,-297.5 851,-297.5 851,-267.5 582,-267.5"/>
<text text-anchor="start" x="589" y="-278.9" font-family="Arial" font-size="14.00" fill="#000000">label    </text>
<text text-anchor="start" x="652.7658" y="-278.9" font-family="Arial" font-size="14.00" fill="#666666">[text]</text>
</g>
<!-- acq.edi_account&#45;&gt;acq.edi_attr_set -->
<g id="edge4" class="edge">
<title>acq.edi_account:attr_set&#45;&gt;acq.edi_attr_set:id</title>
<path fill="none" stroke="#000000" d="M503.1154,-755.799C585.9821,-725.9228 484.7966,-312.5 582,-312.5"/>
<polygon fill="#000000" stroke="#000000" points="502.8615,-755.8416 492.2537,-753.0623 497.9308,-756.6708 493,-757.5 493,-757.5 493,-757.5 497.9308,-756.6708 493.7463,-761.9377 502.8615,-755.8416 502.8615,-755.8416"/>
<text text-anchor="start" x="499.7105" y="-767.5" font-family="Arial" font-size="10.00" fill="#000000">FOREIGN KEY (attr_set) REFERENCES acq.edi_attr_set(id)</text>
</g>
<!-- acq.edi_message -->
<g id="node2" class="node">
<title>acq.edi_message</title>
<polygon fill="#efefef" stroke="transparent" points="206,-1712.5 206,-1747.5 507,-1747.5 507,-1712.5 206,-1712.5"/>
<polygon fill="none" stroke="#000000" points="206,-1712.5 206,-1747.5 507,-1747.5 507,-1712.5 206,-1712.5"/>
<text text-anchor="start" x="222.1938" y="-1725.3" font-family="Arial Bold" font-size="18.00" fill="#000000">acq.edi_message</text>
<text text-anchor="start" x="363.2382" y="-1725.3" font-family="Arial" font-size="14.00" fill="#000000">    </text>
<text text-anchor="start" x="397.443" y="-1725.3" font-family="Arial" font-size="14.00" fill="#666666">[BASE TABLE]</text>
<polygon fill="none" stroke="#000000" points="206,-1682.5 206,-1712.5 507,-1712.5 507,-1682.5 206,-1682.5"/>
<text text-anchor="start" x="213" y="-1693.9" font-family="Arial" font-size="14.00" fill="#000000">id    </text>
<text text-anchor="start" x="258.094" y="-1693.9" font-family="Arial" font-size="14.00" fill="#666666">[integer]</text>
<polygon fill="none" stroke="#000000" points="206,-1652.5 206,-1682.5 507,-1682.5 507,-1652.5 206,-1652.5"/>
<text text-anchor="start" x="213" y="-1663.9" font-family="Arial" font-size="14.00" fill="#000000">account    </text>
<text text-anchor="start" x="296.2258" y="-1663.9" font-family="Arial" font-size="14.00" fill="#666666">[integer]</text>
<polygon fill="none" stroke="#000000" points="206,-1622.5 206,-1652.5 507,-1652.5 507,-1622.5 206,-1622.5"/>
<text text-anchor="start" x="213" y="-1633.9" font-family="Arial" font-size="14.00" fill="#000000">remote_file    </text>
<text text-anchor="start" x="316.4334" y="-1633.9" font-family="Arial" font-size="14.00" fill="#666666">[text]</text>
<polygon fill="none" stroke="#000000" points="206,-1592.5 206,-1622.5 507,-1622.5 507,-1592.5 206,-1592.5"/>
<text text-anchor="start" x="213" y="-1603.9" font-family="Arial" font-size="14.00" fill="#000000">create_time    </text>
<text text-anchor="start" x="320.3268" y="-1603.9" font-family="Arial" font-size="14.00" fill="#666666">[timestamp with time zone]</text>
<polygon fill="none" stroke="#000000" points="206,-1562.5 206,-1592.5 507,-1592.5 507,-1562.5 206,-1562.5"/>
<text text-anchor="start" x="212.6045" y="-1573.9" font-family="Arial" font-size="14.00" fill="#000000">translate_time    </text>
<text text-anchor="start" x="334.7111" y="-1573.9" font-family="Arial" font-size="14.00" fill="#666666">[timestamp with time zone]</text>
<polygon fill="none" stroke="#000000" points="206,-1532.5 206,-1562.5 507,-1562.5 507,-1532.5 206,-1532.5"/>
<text text-anchor="start" x="213" y="-1543.9" font-family="Arial" font-size="14.00" fill="#000000">process_time    </text>
<text text-anchor="start" x="330.4362" y="-1543.9" font-family="Arial" font-size="14.00" fill="#666666">[timestamp with time zone]</text>
<polygon fill="none" stroke="#000000" points="206,-1502.5 206,-1532.5 507,-1532.5 507,-1502.5 206,-1502.5"/>
<text text-anchor="start" x="213" y="-1513.9" font-family="Arial" font-size="14.00" fill="#000000">error_time    </text>
<text text-anchor="start" x="310.9748" y="-1513.9" font-family="Arial" font-size="14.00" fill="#666666">[timestamp with time zone]</text>
<polygon fill="none" stroke="#000000" points="206,-1472.5 206,-1502.5 507,-1502.5 507,-1472.5 206,-1472.5"/>
<text text-anchor="start" x="213" y="-1483.9" font-family="Arial" font-size="14.00" fill="#000000">status    </text>
<text text-anchor="start" x="284.5512" y="-1483.9" font-family="Arial" font-size="14.00" fill="#666666">[text]</text>
<polygon fill="none" stroke="#000000" points="206,-1442.5 206,-1472.5 507,-1472.5 507,-1442.5 206,-1442.5"/>
<text text-anchor="start" x="213" y="-1453.9" font-family="Arial" font-size="14.00" fill="#000000">edi    </text>
<text text-anchor="start" x="265.8766" y="-1453.9" font-family="Arial" font-size="14.00" fill="#666666">[text]</text>
<polygon fill="none" stroke="#000000" points="206,-1412.5 206,-1442.5 507,-1442.5 507,-1412.5 206,-1412.5"/>
<text text-anchor="start" x="213" y="-1423.9" font-family="Arial" font-size="14.00" fill="#000000">jedi    </text>
<text text-anchor="start" x="268.9832" y="-1423.9" font-family="Arial" font-size="14.00" fill="#666666">[text]</text>
<polygon fill="none" stroke="#000000" points="206,-1382.5 206,-1412.5 507,-1412.5 507,-1382.5 206,-1382.5"/>
<text text-anchor="start" x="213" y="-1393.9" font-family="Arial" font-size="14.00" fill="#000000">error    </text>
<text text-anchor="start" x="276.7518" y="-1393.9" font-family="Arial" font-size="14.00" fill="#666666">[text]</text>
<polygon fill="none" stroke="#000000" points="206,-1352.5 206,-1382.5 507,-1382.5 507,-1352.5 206,-1352.5"/>
<text text-anchor="start" x="213" y="-1363.9" font-family="Arial" font-size="14.00" fill="#000000">purchase_order    </text>
<text text-anchor="start" x="345.23" y="-1363.9" font-family="Arial" font-size="14.00" fill="#666666">[integer]</text>
<polygon fill="none" stroke="#000000" points="206,-1322.5 206,-1352.5 507,-1352.5 507,-1322.5 206,-1322.5"/>
<text text-anchor="start" x="213" y="-1333.9" font-family="Arial" font-size="14.00" fill="#000000">message_type    </text>
<text text-anchor="start" x="338.2342" y="-1333.9" font-family="Arial" font-size="14.00" fill="#666666">[text]</text>
</g>
<!-- acq.edi_message&#45;&gt;acq.edi_account -->
<g id="edge1" class="edge">
<title>acq.edi_message:account&#45;&gt;acq.edi_account:id</title>
<path fill="none" stroke="#000000" d="M517.3064,-1667.1774C676.8076,-1656.9584 618.5853,-1406.5115 507,-1280 422.2551,-1183.9191 305.7449,-1340.0809 221,-1244 192.6299,-1211.8349 178.1111,-1147.5 221,-1147.5"/>
<polygon fill="#000000" stroke="#000000" points="516.9951,-1667.187 506.8592,-1663.0022 511.9976,-1667.3435 507,-1667.5 507,-1667.5 507,-1667.5 511.9976,-1667.3435 507.1408,-1671.9978 516.9951,-1667.187 516.9951,-1667.187"/>
<text text-anchor="start" x="513.9785" y="-1677.5" font-family="Arial" font-size="10.00" fill="#000000">FOREIGN KEY (account) REFERENCES acq.edi_account(id) DEFERRABLE INITIALLY DEFERRED</text>
</g>
<!-- acq.provider&#45;&gt;acq.edi_account -->
<g id="edge2" class="edge">
<title>acq.provider:edi_default&#45;&gt;acq.edi_account:id</title>
<path fill="none" stroke="#000000" d="M484.2049,-334.5889C524.1301,-414.7351 536.0724,-1147.5 493,-1147.5"/>
<polygon fill="#000000" stroke="#000000" points="484.1282,-334.5135 480.1561,-324.2923 480.5641,-331.0068 477,-327.5 477,-327.5 477,-327.5 480.5641,-331.0068 473.8439,-330.7077 484.1282,-334.5135 484.1282,-334.5135"/>
<text text-anchor="start" x="7.0315" y="-337.5" font-family="Arial" font-size="10.00" fill="#000000">FOREIGN KEY (edi_default) REFERENCES acq.edi_account(id) DEFERRABLE INITIALLY DEFERRED</text>
</g>
</g>
</svg>
