<?xml version="1.0" encoding="UTF-8" standalone="no"?>
<!DOCTYPE svg PUBLIC "-//W3C//DTD SVG 1.1//EN"
 "http://www.w3.org/Graphics/SVG/1.1/DTD/svg11.dtd">
<!-- Generated by graphviz version 2.40.1 (20161225.0304)
 -->
<!-- Title: action.non_cataloged_circulation Pages: 1 -->
<svg width="1457pt" height="1942pt"
 viewBox="0.00 0.00 1457.00 1942.00" xmlns="http://www.w3.org/2000/svg" xmlns:xlink="http://www.w3.org/1999/xlink">
<g id="graph0" class="graph" transform="scale(1 1) rotate(0) translate(4 1938)">
<title>action.non_cataloged_circulation</title>
<polygon fill="#ffffff" stroke="transparent" points="-4,4 -4,-1938 1453,-1938 1453,4 -4,4"/>
<!-- action.non_cataloged_circulation -->
<g id="node1" class="node">
<title>action.non_cataloged_circulation</title>
<polygon fill="#efefef" stroke="transparent" points="423,-1852.5 423,-1887.5 826,-1887.5 826,-1852.5 423,-1852.5"/>
<polygon fill="none" stroke="#000000" points="423,-1852.5 423,-1887.5 826,-1887.5 826,-1852.5 423,-1852.5"/>
<text text-anchor="start" x="429.6742" y="-1865.3" font-family="Arial Bold" font-size="18.00" fill="#000000">action.non_cataloged_circulation</text>
<text text-anchor="start" x="691.7578" y="-1865.3" font-family="Arial" font-size="14.00" fill="#000000">    </text>
<text text-anchor="start" x="725.9626" y="-1865.3" font-family="Arial" font-size="14.00" fill="#666666">[BASE TABLE]</text>
<polygon fill="none" stroke="#000000" points="423,-1822.5 423,-1852.5 826,-1852.5 826,-1822.5 423,-1822.5"/>
<text text-anchor="start" x="430" y="-1833.9" font-family="Arial" font-size="14.00" fill="#000000">id </text>
<text text-anchor="start" x="444.7798" y="-1833.9" font-family="Arial" font-size="14.00" fill="#666666">[integer]</text>
<polygon fill="none" stroke="#000000" points="423,-1792.5 423,-1822.5 826,-1822.5 826,-1792.5 423,-1792.5"/>
<text text-anchor="start" x="430" y="-1803.9" font-family="Arial" font-size="14.00" fill="#000000">patron </text>
<text text-anchor="start" x="473.5722" y="-1803.9" font-family="Arial" font-size="14.00" fill="#666666">[integer]</text>
<polygon fill="none" stroke="#000000" points="423,-1762.5 423,-1792.5 826,-1792.5 826,-1762.5 423,-1762.5"/>
<text text-anchor="start" x="430" y="-1773.9" font-family="Arial" font-size="14.00" fill="#000000">staff </text>
<text text-anchor="start" x="460.345" y="-1773.9" font-family="Arial" font-size="14.00" fill="#666666">[integer]</text>
<polygon fill="none" stroke="#000000" points="423,-1732.5 423,-1762.5 826,-1762.5 826,-1732.5 423,-1732.5"/>
<text text-anchor="start" x="430" y="-1743.9" font-family="Arial" font-size="14.00" fill="#000000">circ_lib </text>
<text text-anchor="start" x="477.4362" y="-1743.9" font-family="Arial" font-size="14.00" fill="#666666">[integer]</text>
<polygon fill="none" stroke="#000000" points="423,-1702.5 423,-1732.5 826,-1732.5 826,-1702.5 423,-1702.5"/>
<text text-anchor="start" x="430" y="-1713.9" font-family="Arial" font-size="14.00" fill="#000000">item_type </text>
<text text-anchor="start" x="494.5694" y="-1713.9" font-family="Arial" font-size="14.00" fill="#666666">[integer]</text>
<polygon fill="none" stroke="#000000" points="423,-1672.5 423,-1702.5 826,-1702.5 826,-1672.5 423,-1672.5"/>
<text text-anchor="start" x="430" y="-1683.9" font-family="Arial" font-size="14.00" fill="#000000">circ_time </text>
<text text-anchor="start" x="489.8808" y="-1683.9" font-family="Arial" font-size="14.00" fill="#666666">[timestamp with time zone]</text>
<polygon fill="none" stroke="#000000" stroke-width="3" points="421,-1671.5 421,-1889.5 827,-1889.5 827,-1671.5 421,-1671.5"/>
</g>
<!-- actor.usr -->
<g id="node2" class="node">
<title>actor.usr</title>
<polygon fill="#efefef" stroke="transparent" points="270,-1512.5 270,-1547.5 590,-1547.5 590,-1512.5 270,-1512.5"/>
<polygon fill="none" stroke="#000000" points="270,-1512.5 270,-1547.5 590,-1547.5 590,-1512.5 270,-1512.5"/>
<text text-anchor="start" x="331.2123" y="-1525.3" font-family="Arial Bold" font-size="18.00" fill="#000000">actor.usr</text>
<text text-anchor="start" x="401.2197" y="-1525.3" font-family="Arial" font-size="14.00" fill="#000000">    </text>
<text text-anchor="start" x="435.4245" y="-1525.3" font-family="Arial" font-size="14.00" fill="#666666">[BASE TABLE]</text>
<polygon fill="none" stroke="#000000" points="270,-1482.5 270,-1512.5 590,-1512.5 590,-1482.5 270,-1482.5"/>
<text text-anchor="start" x="277" y="-1493.9" font-family="Arial" font-size="14.00" fill="#000000">id    </text>
<text text-anchor="start" x="322.094" y="-1493.9" font-family="Arial" font-size="14.00" fill="#666666">[integer]</text>
<polygon fill="none" stroke="#000000" points="270,-1452.5 270,-1482.5 590,-1482.5 590,-1452.5 270,-1452.5"/>
<text text-anchor="start" x="277" y="-1463.9" font-family="Arial" font-size="14.00" fill="#000000">card    </text>
<text text-anchor="start" x="338.4306" y="-1463.9" font-family="Arial" font-size="14.00" fill="#666666">[integer]</text>
<polygon fill="none" stroke="#000000" points="270,-1422.5 270,-1452.5 590,-1452.5 590,-1422.5 270,-1422.5"/>
<text text-anchor="start" x="277" y="-1433.9" font-family="Arial" font-size="14.00" fill="#000000">profile    </text>
<text text-anchor="start" x="349.317" y="-1433.9" font-family="Arial" font-size="14.00" fill="#666666">[integer]</text>
<polygon fill="none" stroke="#000000" points="270,-1392.5 270,-1422.5 590,-1422.5 590,-1392.5 270,-1392.5"/>
<text text-anchor="start" x="277" y="-1403.9" font-family="Arial" font-size="14.00" fill="#000000">usrname    </text>
<text text-anchor="start" x="365.6564" y="-1403.9" font-family="Arial" font-size="14.00" fill="#666666">[text]</text>
<polygon fill="none" stroke="#000000" points="270,-1362.5 270,-1392.5 590,-1392.5 590,-1362.5 270,-1362.5"/>
<text text-anchor="start" x="277" y="-1373.9" font-family="Arial" font-size="14.00" fill="#000000">email    </text>
<text text-anchor="start" x="344.6438" y="-1373.9" font-family="Arial" font-size="14.00" fill="#666666">[text]</text>
<polygon fill="none" stroke="#000000" points="270,-1332.5 270,-1362.5 590,-1362.5 590,-1332.5 270,-1332.5"/>
<text text-anchor="start" x="277" y="-1343.9" font-family="Arial" font-size="14.00" fill="#000000">passwd    </text>
<text text-anchor="start" x="358.6592" y="-1343.9" font-family="Arial" font-size="14.00" fill="#666666">[text]</text>
<polygon fill="none" stroke="#000000" points="270,-1302.5 270,-1332.5 590,-1332.5 590,-1302.5 270,-1302.5"/>
<text text-anchor="start" x="277" y="-1313.9" font-family="Arial" font-size="14.00" fill="#000000">standing    </text>
<text text-anchor="start" x="364.115" y="-1313.9" font-family="Arial" font-size="14.00" fill="#666666">[integer]</text>
<polygon fill="none" stroke="#000000" points="270,-1272.5 270,-1302.5 590,-1302.5 590,-1272.5 270,-1272.5"/>
<text text-anchor="start" x="277" y="-1283.9" font-family="Arial" font-size="14.00" fill="#000000">ident_type    </text>
<text text-anchor="start" x="375.7882" y="-1283.9" font-family="Arial" font-size="14.00" fill="#666666">[integer]</text>
<polygon fill="none" stroke="#000000" points="270,-1242.5 270,-1272.5 590,-1272.5 590,-1242.5 270,-1242.5"/>
<text text-anchor="start" x="277" y="-1253.9" font-family="Arial" font-size="14.00" fill="#000000">ident_value    </text>
<text text-anchor="start" x="382.7868" y="-1253.9" font-family="Arial" font-size="14.00" fill="#666666">[text]</text>
<polygon fill="none" stroke="#000000" points="270,-1212.5 270,-1242.5 590,-1242.5 590,-1212.5 270,-1212.5"/>
<text text-anchor="start" x="277" y="-1223.9" font-family="Arial" font-size="14.00" fill="#000000">ident_type2    </text>
<text text-anchor="start" x="383.5708" y="-1223.9" font-family="Arial" font-size="14.00" fill="#666666">[integer]</text>
<polygon fill="none" stroke="#000000" points="270,-1182.5 270,-1212.5 590,-1212.5 590,-1182.5 270,-1182.5"/>
<text text-anchor="start" x="277" y="-1193.9" font-family="Arial" font-size="14.00" fill="#000000">ident_value2    </text>
<text text-anchor="start" x="390.5694" y="-1193.9" font-family="Arial" font-size="14.00" fill="#666666">[text]</text>
<polygon fill="none" stroke="#000000" points="270,-1152.5 270,-1182.5 590,-1182.5 590,-1152.5 270,-1152.5"/>
<text text-anchor="start" x="277" y="-1163.9" font-family="Arial" font-size="14.00" fill="#000000">net_access_level    </text>
<text text-anchor="start" x="418.5694" y="-1163.9" font-family="Arial" font-size="14.00" fill="#666666">[integer]</text>
<polygon fill="none" stroke="#000000" points="270,-1122.5 270,-1152.5 590,-1152.5 590,-1122.5 270,-1122.5"/>
<text text-anchor="start" x="277" y="-1133.9" font-family="Arial" font-size="14.00" fill="#000000">photo_url    </text>
<text text-anchor="start" x="369.5582" y="-1133.9" font-family="Arial" font-size="14.00" fill="#666666">[text]</text>
<polygon fill="none" stroke="#000000" points="270,-1092.5 270,-1122.5 590,-1122.5 590,-1092.5 270,-1092.5"/>
<text text-anchor="start" x="277" y="-1103.9" font-family="Arial" font-size="14.00" fill="#000000">prefix    </text>
<text text-anchor="start" x="345.4278" y="-1103.9" font-family="Arial" font-size="14.00" fill="#666666">[text]</text>
<polygon fill="none" stroke="#000000" points="270,-1062.5 270,-1092.5 590,-1092.5 590,-1062.5 270,-1062.5"/>
<text text-anchor="start" x="277" y="-1073.9" font-family="Arial" font-size="14.00" fill="#000000">first_given_name    </text>
<text text-anchor="start" x="417.7812" y="-1073.9" font-family="Arial" font-size="14.00" fill="#666666">[text]</text>
<polygon fill="none" stroke="#000000" points="270,-1032.5 270,-1062.5 590,-1062.5 590,-1032.5 270,-1032.5"/>
<text text-anchor="start" x="277" y="-1043.9" font-family="Arial" font-size="14.00" fill="#000000">second_given_name    </text>
<text text-anchor="start" x="440.3632" y="-1043.9" font-family="Arial" font-size="14.00" fill="#666666">[text]</text>
<polygon fill="none" stroke="#000000" points="270,-1002.5 270,-1032.5 590,-1032.5 590,-1002.5 270,-1002.5"/>
<text text-anchor="start" x="277" y="-1013.9" font-family="Arial" font-size="14.00" fill="#000000">family_name    </text>
<text text-anchor="start" x="390.5428" y="-1013.9" font-family="Arial" font-size="14.00" fill="#666666">[text]</text>
<polygon fill="none" stroke="#000000" points="270,-972.5 270,-1002.5 590,-1002.5 590,-972.5 270,-972.5"/>
<text text-anchor="start" x="277" y="-983.9" font-family="Arial" font-size="14.00" fill="#000000">suffix    </text>
<text text-anchor="start" x="343.8752" y="-983.9" font-family="Arial" font-size="14.00" fill="#666666">[text]</text>
<polygon fill="none" stroke="#000000" points="270,-942.5 270,-972.5 590,-972.5 590,-942.5 270,-942.5"/>
<text text-anchor="start" x="277" y="-953.9" font-family="Arial" font-size="14.00" fill="#000000">alias    </text>
<text text-anchor="start" x="339.9832" y="-953.9" font-family="Arial" font-size="14.00" fill="#666666">[text]</text>
<polygon fill="none" stroke="#000000" points="270,-912.5 270,-942.5 590,-942.5 590,-912.5 270,-912.5"/>
<text text-anchor="start" x="277" y="-923.9" font-family="Arial" font-size="14.00" fill="#000000">day_phone    </text>
<text text-anchor="start" x="380.4656" y="-923.9" font-family="Arial" font-size="14.00" fill="#666666">[text]</text>
<polygon fill="none" stroke="#000000" points="270,-882.5 270,-912.5 590,-912.5 590,-882.5 270,-882.5"/>
<text text-anchor="start" x="277" y="-893.9" font-family="Arial" font-size="14.00" fill="#000000">evening_phone    </text>
<text text-anchor="start" x="406.92" y="-893.9" font-family="Arial" font-size="14.00" fill="#666666">[text]</text>
<polygon fill="none" stroke="#000000" points="270,-852.5 270,-882.5 590,-882.5 590,-852.5 270,-852.5"/>
<text text-anchor="start" x="277" y="-863.9" font-family="Arial" font-size="14.00" fill="#000000">other_phone    </text>
<text text-anchor="start" x="389.7994" y="-863.9" font-family="Arial" font-size="14.00" fill="#666666">[text]</text>
<polygon fill="none" stroke="#000000" points="270,-822.5 270,-852.5 590,-852.5 590,-822.5 270,-822.5"/>
<text text-anchor="start" x="277" y="-833.9" font-family="Arial" font-size="14.00" fill="#000000">mailing_address    </text>
<text text-anchor="start" x="413.1066" y="-833.9" font-family="Arial" font-size="14.00" fill="#666666">[integer]</text>
<polygon fill="none" stroke="#000000" points="270,-792.5 270,-822.5 590,-822.5 590,-792.5 270,-792.5"/>
<text text-anchor="start" x="277" y="-803.9" font-family="Arial" font-size="14.00" fill="#000000">billing_address    </text>
<text text-anchor="start" x="404.5526" y="-803.9" font-family="Arial" font-size="14.00" fill="#666666">[integer]</text>
<polygon fill="none" stroke="#000000" points="270,-762.5 270,-792.5 590,-792.5 590,-762.5 270,-762.5"/>
<text text-anchor="start" x="277" y="-773.9" font-family="Arial" font-size="14.00" fill="#000000">home_ou    </text>
<text text-anchor="start" x="369.561" y="-773.9" font-family="Arial" font-size="14.00" fill="#666666">[integer]</text>
<polygon fill="none" stroke="#000000" points="270,-732.5 270,-762.5 590,-762.5 590,-732.5 270,-732.5"/>
<text text-anchor="start" x="277" y="-743.9" font-family="Arial" font-size="14.00" fill="#000000">dob    </text>
<text text-anchor="start" x="334.5526" y="-743.9" font-family="Arial" font-size="14.00" fill="#666666">[date]</text>
<polygon fill="none" stroke="#000000" points="270,-702.5 270,-732.5 590,-732.5 590,-702.5 270,-702.5"/>
<text text-anchor="start" x="277" y="-713.9" font-family="Arial" font-size="14.00" fill="#000000">active    </text>
<text text-anchor="start" x="347.7672" y="-713.9" font-family="Arial" font-size="14.00" fill="#666666">[boolean]</text>
<polygon fill="none" stroke="#000000" points="270,-672.5 270,-702.5 590,-702.5 590,-672.5 270,-672.5"/>
<text text-anchor="start" x="277" y="-683.9" font-family="Arial" font-size="14.00" fill="#000000">master_account    </text>
<text text-anchor="start" x="410.7854" y="-683.9" font-family="Arial" font-size="14.00" fill="#666666">[boolean]</text>
<polygon fill="none" stroke="#000000" points="270,-642.5 270,-672.5 590,-672.5 590,-642.5 270,-642.5"/>
<text text-anchor="start" x="277" y="-653.9" font-family="Arial" font-size="14.00" fill="#000000">super_user    </text>
<text text-anchor="start" x="381.2216" y="-653.9" font-family="Arial" font-size="14.00" fill="#666666">[boolean]</text>
<polygon fill="none" stroke="#000000" points="270,-612.5 270,-642.5 590,-642.5 590,-612.5 270,-612.5"/>
<text text-anchor="start" x="277" y="-623.9" font-family="Arial" font-size="14.00" fill="#000000">barred    </text>
<text text-anchor="start" x="351.6564" y="-623.9" font-family="Arial" font-size="14.00" fill="#666666">[boolean]</text>
<polygon fill="none" stroke="#000000" points="270,-582.5 270,-612.5 590,-612.5 590,-582.5 270,-582.5"/>
<text text-anchor="start" x="277" y="-593.9" font-family="Arial" font-size="14.00" fill="#000000">deleted    </text>
<text text-anchor="start" x="357.115" y="-593.9" font-family="Arial" font-size="14.00" fill="#666666">[boolean]</text>
<polygon fill="none" stroke="#000000" points="270,-552.5 270,-582.5 590,-582.5 590,-552.5 270,-552.5"/>
<text text-anchor="start" x="277" y="-563.9" font-family="Arial" font-size="14.00" fill="#000000">juvenile    </text>
<text text-anchor="start" x="358.655" y="-563.9" font-family="Arial" font-size="14.00" fill="#666666">[boolean]</text>
<polygon fill="none" stroke="#000000" points="270,-522.5 270,-552.5 590,-552.5 590,-522.5 270,-522.5"/>
<text text-anchor="start" x="277" y="-533.9" font-family="Arial" font-size="14.00" fill="#000000">usrgroup    </text>
<text text-anchor="start" x="366.439" y="-533.9" font-family="Arial" font-size="14.00" fill="#666666">[integer]</text>
<polygon fill="none" stroke="#000000" points="270,-492.5 270,-522.5 590,-522.5 590,-492.5 270,-492.5"/>
<text text-anchor="start" x="277" y="-503.9" font-family="Arial" font-size="14.00" fill="#000000">claims_returned_count    </text>
<text text-anchor="start" x="452.7896" y="-503.9" font-family="Arial" font-size="14.00" fill="#666666">[integer]</text>
<polygon fill="none" stroke="#000000" points="270,-462.5 270,-492.5 590,-492.5 590,-462.5 270,-462.5"/>
<text text-anchor="start" x="277" y="-473.9" font-family="Arial" font-size="14.00" fill="#000000">credit_forward_balance    </text>
<text text-anchor="start" x="456.6788" y="-473.9" font-family="Arial" font-size="14.00" fill="#666666">[numeric(6,2)]</text>
<polygon fill="none" stroke="#000000" points="270,-432.5 270,-462.5 590,-462.5 590,-432.5 270,-432.5"/>
<text text-anchor="start" x="277" y="-443.9" font-family="Arial" font-size="14.00" fill="#000000">last_xact_id    </text>
<text text-anchor="start" x="385.1122" y="-443.9" font-family="Arial" font-size="14.00" fill="#666666">[text]</text>
<polygon fill="none" stroke="#000000" points="270,-402.5 270,-432.5 590,-432.5 590,-402.5 270,-402.5"/>
<text text-anchor="start" x="277" y="-413.9" font-family="Arial" font-size="14.00" fill="#000000">alert_message    </text>
<text text-anchor="start" x="403.0014" y="-413.9" font-family="Arial" font-size="14.00" fill="#666666">[text]</text>
<polygon fill="none" stroke="#000000" points="270,-372.5 270,-402.5 590,-402.5 590,-372.5 270,-372.5"/>
<text text-anchor="start" x="277" y="-383.9" font-family="Arial" font-size="14.00" fill="#000000">create_date    </text>
<text text-anchor="start" x="385.1248" y="-383.9" font-family="Arial" font-size="14.00" fill="#666666">[timestamp with time zone]</text>
<polygon fill="none" stroke="#000000" points="270,-342.5 270,-372.5 590,-372.5 590,-342.5 270,-342.5"/>
<text text-anchor="start" x="277" y="-353.9" font-family="Arial" font-size="14.00" fill="#000000">expire_date    </text>
<text text-anchor="start" x="384.3408" y="-353.9" font-family="Arial" font-size="14.00" fill="#666666">[timestamp with time zone]</text>
<polygon fill="none" stroke="#000000" points="270,-312.5 270,-342.5 590,-342.5 590,-312.5 270,-312.5"/>
<text text-anchor="start" x="277" y="-323.9" font-family="Arial" font-size="14.00" fill="#000000">claims_never_checked_out_count    </text>
<text text-anchor="start" x="522.8246" y="-323.9" font-family="Arial" font-size="14.00" fill="#666666">[integer]</text>
<polygon fill="none" stroke="#000000" points="270,-282.5 270,-312.5 590,-312.5 590,-282.5 270,-282.5"/>
<text text-anchor="start" x="276.7609" y="-293.9" font-family="Arial" font-size="14.00" fill="#000000">last_update_time    </text>
<text text-anchor="start" x="417.5547" y="-293.9" font-family="Arial" font-size="14.00" fill="#666666">[timestamp with time zone]</text>
<polygon fill="none" stroke="#000000" points="270,-252.5 270,-282.5 590,-282.5 590,-252.5 270,-252.5"/>
<text text-anchor="start" x="277" y="-263.9" font-family="Arial" font-size="14.00" fill="#000000">pref_prefix    </text>
<text text-anchor="start" x="377.3268" y="-263.9" font-family="Arial" font-size="14.00" fill="#666666">[text]</text>
<polygon fill="none" stroke="#000000" points="270,-222.5 270,-252.5 590,-252.5 590,-222.5 270,-222.5"/>
<text text-anchor="start" x="277" y="-233.9" font-family="Arial" font-size="14.00" fill="#000000">pref_first_given_name    </text>
<text text-anchor="start" x="449.6802" y="-233.9" font-family="Arial" font-size="14.00" fill="#666666">[text]</text>
<polygon fill="none" stroke="#000000" points="270,-192.5 270,-222.5 590,-222.5 590,-192.5 270,-192.5"/>
<text text-anchor="start" x="277" y="-203.9" font-family="Arial" font-size="14.00" fill="#000000">pref_second_given_name    </text>
<text text-anchor="start" x="472.2622" y="-203.9" font-family="Arial" font-size="14.00" fill="#666666">[text]</text>
<polygon fill="none" stroke="#000000" points="270,-162.5 270,-192.5 590,-192.5 590,-162.5 270,-162.5"/>
<text text-anchor="start" x="277" y="-173.9" font-family="Arial" font-size="14.00" fill="#000000">pref_family_name    </text>
<text text-anchor="start" x="422.4418" y="-173.9" font-family="Arial" font-size="14.00" fill="#666666">[text]</text>
<polygon fill="none" stroke="#000000" points="270,-132.5 270,-162.5 590,-162.5 590,-132.5 270,-132.5"/>
<text text-anchor="start" x="277" y="-143.9" font-family="Arial" font-size="14.00" fill="#000000">pref_suffix    </text>
<text text-anchor="start" x="375.7742" y="-143.9" font-family="Arial" font-size="14.00" fill="#666666">[text]</text>
<polygon fill="none" stroke="#000000" points="270,-102.5 270,-132.5 590,-132.5 590,-102.5 270,-102.5"/>
<text text-anchor="start" x="277" y="-113.9" font-family="Arial" font-size="14.00" fill="#000000">name_keywords    </text>
<text text-anchor="start" x="413.1108" y="-113.9" font-family="Arial" font-size="14.00" fill="#666666">[text]</text>
<polygon fill="none" stroke="#000000" points="270,-72.5 270,-102.5 590,-102.5 590,-72.5 270,-72.5"/>
<text text-anchor="start" x="277" y="-83.9" font-family="Arial" font-size="14.00" fill="#000000">name_kw_tsvector    </text>
<text text-anchor="start" x="427.892" y="-83.9" font-family="Arial" font-size="14.00" fill="#666666">[tsvector]</text>
<polygon fill="none" stroke="#000000" points="270,-42.5 270,-72.5 590,-72.5 590,-42.5 270,-42.5"/>
<text text-anchor="start" x="277" y="-53.9" font-family="Arial" font-size="14.00" fill="#000000">guardian    </text>
<text text-anchor="start" x="365.6676" y="-53.9" font-family="Arial" font-size="14.00" fill="#666666">[text]</text>
</g>
<!-- action.non_cataloged_circulation&#45;&gt;actor.usr -->
<g id="edge1" class="edge">
<title>action.non_cataloged_circulation:patron&#45;&gt;actor.usr:id</title>
<path fill="none" stroke="#000000" d="M412.8469,-1806.8009C345.499,-1797.0033 374.8682,-1686.6131 423,-1627 470.6975,-1567.9247 542.3025,-1650.0753 590,-1591 616.1052,-1558.6676 631.5556,-1497.5 590,-1497.5"/>
<polygon fill="#000000" stroke="#000000" points="413.0236,-1806.813 422.6908,-1811.9894 418.0118,-1807.1565 423,-1807.5 423,-1807.5 423,-1807.5 418.0118,-1807.1565 423.3092,-1803.0106 413.0236,-1806.813 413.0236,-1806.813"/>
<text text-anchor="start" x="7.2715" y="-1817.5" font-family="Arial" font-size="10.00" fill="#000000">FOREIGN KEY (patron) REFERENCES actor.usr(id) DEFERRABLE INITIALLY DEFERRED</text>
</g>
<!-- action.non_cataloged_circulation&#45;&gt;actor.usr -->
<g id="edge2" class="edge">
<title>action.non_cataloged_circulation:staff&#45;&gt;actor.usr:id</title>
<path fill="none" stroke="#000000" d="M412.8371,-1776.6403C358.8825,-1766.8701 383.2783,-1676.1969 423,-1627 470.6975,-1567.9247 542.3025,-1650.0753 590,-1591 616.1052,-1558.6676 631.5556,-1497.5 590,-1497.5"/>
<polygon fill="#000000" stroke="#000000" points="413.0356,-1776.657 422.6207,-1781.984 418.0178,-1777.0785 423,-1777.5 423,-1777.5 423,-1777.5 418.0178,-1777.0785 423.3793,-1773.016 413.0356,-1776.657 413.0356,-1776.657"/>
<text text-anchor="start" x="15.9955" y="-1787.5" font-family="Arial" font-size="10.00" fill="#000000">FOREIGN KEY (staff) REFERENCES actor.usr(id) DEFERRABLE INITIALLY DEFERRED</text>
</g>
<!-- actor.org_unit -->
<g id="node3" class="node">
<title>actor.org_unit</title>
<polygon fill="#efefef" stroke="transparent" points="695,-972.5 695,-1007.5 946,-1007.5 946,-972.5 695,-972.5"/>
<polygon fill="none" stroke="#000000" points="695,-972.5 695,-1007.5 946,-1007.5 946,-972.5 695,-972.5"/>
<text text-anchor="start" x="701.7017" y="-985.3" font-family="Arial Bold" font-size="18.00" fill="#000000">actor.org_unit</text>
<text text-anchor="start" x="811.7303" y="-985.3" font-family="Arial" font-size="14.00" fill="#000000">    </text>
<text text-anchor="start" x="845.9351" y="-985.3" font-family="Arial" font-size="14.00" fill="#666666">[BASE TABLE]</text>
<polygon fill="none" stroke="#000000" points="695,-942.5 695,-972.5 946,-972.5 946,-942.5 695,-942.5"/>
<text text-anchor="start" x="702" y="-953.9" font-family="Arial" font-size="14.00" fill="#000000">id    </text>
<text text-anchor="start" x="747.094" y="-953.9" font-family="Arial" font-size="14.00" fill="#666666">[integer]</text>
<polygon fill="none" stroke="#000000" points="695,-912.5 695,-942.5 946,-942.5 946,-912.5 695,-912.5"/>
<text text-anchor="start" x="702" y="-923.9" font-family="Arial" font-size="14.00" fill="#000000">parent_ou    </text>
<text text-anchor="start" x="799.2342" y="-923.9" font-family="Arial" font-size="14.00" fill="#666666">[integer]</text>
<polygon fill="none" stroke="#000000" points="695,-882.5 695,-912.5 946,-912.5 946,-882.5 695,-882.5"/>
<text text-anchor="start" x="702" y="-893.9" font-family="Arial" font-size="14.00" fill="#000000">ou_type    </text>
<text text-anchor="start" x="786.0084" y="-893.9" font-family="Arial" font-size="14.00" fill="#666666">[integer]</text>
<polygon fill="none" stroke="#000000" points="695,-852.5 695,-882.5 946,-882.5 946,-852.5 695,-852.5"/>
<text text-anchor="start" x="702" y="-863.9" font-family="Arial" font-size="14.00" fill="#000000">ill_address    </text>
<text text-anchor="start" x="803.0982" y="-863.9" font-family="Arial" font-size="14.00" fill="#666666">[integer]</text>
<polygon fill="none" stroke="#000000" points="695,-822.5 695,-852.5 946,-852.5 946,-822.5 695,-822.5"/>
<text text-anchor="start" x="702" y="-833.9" font-family="Arial" font-size="14.00" fill="#000000">holds_address    </text>
<text text-anchor="start" x="827.2328" y="-833.9" font-family="Arial" font-size="14.00" fill="#666666">[integer]</text>
<polygon fill="none" stroke="#000000" points="695,-792.5 695,-822.5 946,-822.5 946,-792.5 695,-792.5"/>
<text text-anchor="start" x="702" y="-803.9" font-family="Arial" font-size="14.00" fill="#000000">mailing_address    </text>
<text text-anchor="start" x="838.1066" y="-803.9" font-family="Arial" font-size="14.00" fill="#666666">[integer]</text>
<polygon fill="none" stroke="#000000" points="695,-762.5 695,-792.5 946,-792.5 946,-762.5 695,-762.5"/>
<text text-anchor="start" x="702" y="-773.9" font-family="Arial" font-size="14.00" fill="#000000">billing_address    </text>
<text text-anchor="start" x="829.5526" y="-773.9" font-family="Arial" font-size="14.00" fill="#666666">[integer]</text>
<polygon fill="none" stroke="#000000" points="695,-732.5 695,-762.5 946,-762.5 946,-732.5 695,-732.5"/>
<text text-anchor="start" x="702" y="-743.9" font-family="Arial" font-size="14.00" fill="#000000">shortname    </text>
<text text-anchor="start" x="802.3296" y="-743.9" font-family="Arial" font-size="14.00" fill="#666666">[text]</text>
<polygon fill="none" stroke="#000000" points="695,-702.5 695,-732.5 946,-732.5 946,-702.5 695,-702.5"/>
<text text-anchor="start" x="702" y="-713.9" font-family="Arial" font-size="14.00" fill="#000000">name    </text>
<text text-anchor="start" x="771.2132" y="-713.9" font-family="Arial" font-size="14.00" fill="#666666">[text]</text>
<polygon fill="none" stroke="#000000" points="695,-672.5 695,-702.5 946,-702.5 946,-672.5 695,-672.5"/>
<text text-anchor="start" x="702" y="-683.9" font-family="Arial" font-size="14.00" fill="#000000">email    </text>
<text text-anchor="start" x="769.6438" y="-683.9" font-family="Arial" font-size="14.00" fill="#666666">[text]</text>
<polygon fill="none" stroke="#000000" points="695,-642.5 695,-672.5 946,-672.5 946,-642.5 695,-642.5"/>
<text text-anchor="start" x="702" y="-653.9" font-family="Arial" font-size="14.00" fill="#000000">phone    </text>
<text text-anchor="start" x="775.1178" y="-653.9" font-family="Arial" font-size="14.00" fill="#666666">[text]</text>
<polygon fill="none" stroke="#000000" points="695,-612.5 695,-642.5 946,-642.5 946,-612.5 695,-612.5"/>
<text text-anchor="start" x="702" y="-623.9" font-family="Arial" font-size="14.00" fill="#000000">opac_visible    </text>
<text text-anchor="start" x="813.2202" y="-623.9" font-family="Arial" font-size="14.00" fill="#666666">[boolean]</text>
<polygon fill="none" stroke="#000000" points="695,-582.5 695,-612.5 946,-612.5 946,-582.5 695,-582.5"/>
<text text-anchor="start" x="702" y="-593.9" font-family="Arial" font-size="14.00" fill="#000000">fiscal_calendar    </text>
<text text-anchor="start" x="829.554" y="-593.9" font-family="Arial" font-size="14.00" fill="#666666">[integer]</text>
</g>
<!-- action.non_cataloged_circulation&#45;&gt;actor.org_unit -->
<g id="edge3" class="edge">
<title>action.non_cataloged_circulation:circ_lib&#45;&gt;actor.org_unit:id</title>
<path fill="none" stroke="#000000" d="M836.1209,-1746.5169C984.2617,-1715.4299 520.6966,-957.5 695,-957.5"/>
<polygon fill="#000000" stroke="#000000" points="835.9532,-1746.5331 825.5649,-1743.0211 830.9766,-1747.0165 826,-1747.5 826,-1747.5 826,-1747.5 830.9766,-1747.0165 826.4351,-1751.9789 835.9532,-1746.5331 835.9532,-1746.5331"/>
<text text-anchor="start" x="832.7745" y="-1757.5" font-family="Arial" font-size="10.00" fill="#000000">FOREIGN KEY (circ_lib) REFERENCES actor.org_unit(id) DEFERRABLE INITIALLY DEFERRED</text>
</g>
<!-- config.non_cataloged_type -->
<g id="node4" class="node">
<title>config.non_cataloged_type</title>
<polygon fill="#efefef" stroke="transparent" points="1050,-852.5 1050,-887.5 1406,-887.5 1406,-852.5 1050,-852.5"/>
<polygon fill="none" stroke="#000000" points="1050,-852.5 1050,-887.5 1406,-887.5 1406,-852.5 1050,-852.5"/>
<text text-anchor="start" x="1056.6678" y="-865.3" font-family="Arial Bold" font-size="18.00" fill="#000000">config.non_cataloged_type</text>
<text text-anchor="start" x="1271.7642" y="-865.3" font-family="Arial" font-size="14.00" fill="#000000">    </text>
<text text-anchor="start" x="1305.969" y="-865.3" font-family="Arial" font-size="14.00" fill="#666666">[BASE TABLE]</text>
<polygon fill="none" stroke="#000000" points="1050,-822.5 1050,-852.5 1406,-852.5 1406,-822.5 1050,-822.5"/>
<text text-anchor="start" x="1057" y="-833.9" font-family="Arial" font-size="14.00" fill="#000000">id    </text>
<text text-anchor="start" x="1102.094" y="-833.9" font-family="Arial" font-size="14.00" fill="#666666">[integer]</text>
<polygon fill="none" stroke="#000000" points="1050,-792.5 1050,-822.5 1406,-822.5 1406,-792.5 1050,-792.5"/>
<text text-anchor="start" x="1057" y="-803.9" font-family="Arial" font-size="14.00" fill="#000000">owning_lib    </text>
<text text-anchor="start" x="1157.3268" y="-803.9" font-family="Arial" font-size="14.00" fill="#666666">[integer]</text>
<polygon fill="none" stroke="#000000" points="1050,-762.5 1050,-792.5 1406,-792.5 1406,-762.5 1050,-762.5"/>
<text text-anchor="start" x="1057" y="-773.9" font-family="Arial" font-size="14.00" fill="#000000">name    </text>
<text text-anchor="start" x="1126.2132" y="-773.9" font-family="Arial" font-size="14.00" fill="#666666">[text]</text>
<polygon fill="none" stroke="#000000" points="1050,-732.5 1050,-762.5 1406,-762.5 1406,-732.5 1050,-732.5"/>
<text text-anchor="start" x="1057" y="-743.9" font-family="Arial" font-size="14.00" fill="#000000">circ_duration    </text>
<text text-anchor="start" x="1171.3254" y="-743.9" font-family="Arial" font-size="14.00" fill="#666666">[interval]</text>
<polygon fill="none" stroke="#000000" points="1050,-702.5 1050,-732.5 1406,-732.5 1406,-702.5 1050,-702.5"/>
<text text-anchor="start" x="1057" y="-713.9" font-family="Arial" font-size="14.00" fill="#000000">in_house    </text>
<text text-anchor="start" x="1148.007" y="-713.9" font-family="Arial" font-size="14.00" fill="#666666">[boolean]</text>
</g>
<!-- action.non_cataloged_circulation&#45;&gt;config.non_cataloged_type -->
<g id="edge4" class="edge">
<title>action.non_cataloged_circulation:item_type&#45;&gt;config.non_cataloged_type:id</title>
<path fill="none" stroke="#000000" d="M836.0412,-1717.3304C923.1796,-1714.3153 953.9265,-1671.1452 998,-1591 1038.4388,-1517.4643 966.0786,-837.5 1050,-837.5"/>
<polygon fill="#000000" stroke="#000000" points="835.9986,-1717.331 825.9239,-1713.0006 830.9993,-1717.4155 826,-1717.5 826,-1717.5 826,-1717.5 830.9993,-1717.4155 826.0761,-1721.9994 835.9986,-1717.331 835.9986,-1717.331"/>
<text text-anchor="start" x="833.47" y="-1727.5" font-family="Arial" font-size="10.00" fill="#000000">FOREIGN KEY (item_type) REFERENCES config.non_cataloged_type(id) DEFERRABLE INITIALLY DEFERRED</text>
</g>
</g>
</svg>
