<?xml version="1.0" encoding="UTF-8" standalone="no"?>
<!DOCTYPE svg PUBLIC "-//W3C//DTD SVG 1.1//EN"
 "http://www.w3.org/Graphics/SVG/1.1/DTD/svg11.dtd">
<!-- Generated by graphviz version 2.40.1 (20161225.0304)
 -->
<!-- Title: action.non_cat_in_house_use Pages: 1 -->
<svg width="1611pt" height="1942pt"
 viewBox="0.00 0.00 1610.50 1942.00" xmlns="http://www.w3.org/2000/svg" xmlns:xlink="http://www.w3.org/1999/xlink">
<g id="graph0" class="graph" transform="scale(1 1) rotate(0) translate(4 1938)">
<title>action.non_cat_in_house_use</title>
<polygon fill="#ffffff" stroke="transparent" points="-4,4 -4,-1938 1606.5,-1938 1606.5,4 -4,4"/>
<!-- action.non_cat_in_house_use -->
<g id="node1" class="node">
<title>action.non_cat_in_house_use</title>
<polygon fill="#efefef" stroke="transparent" points="668,-1852.5 668,-1887.5 1048,-1887.5 1048,-1852.5 668,-1852.5"/>
<polygon fill="none" stroke="#000000" points="668,-1852.5 668,-1887.5 1048,-1887.5 1048,-1852.5 668,-1852.5"/>
<text text-anchor="start" x="674.6627" y="-1865.3" font-family="Arial Bold" font-size="18.00" fill="#000000">action.non_cat_in_house_use</text>
<text text-anchor="start" x="913.7693" y="-1865.3" font-family="Arial" font-size="14.00" fill="#000000">    </text>
<text text-anchor="start" x="947.9741" y="-1865.3" font-family="Arial" font-size="14.00" fill="#666666">[BASE TABLE]</text>
<polygon fill="none" stroke="#000000" points="668,-1822.5 668,-1852.5 1048,-1852.5 1048,-1822.5 668,-1822.5"/>
<text text-anchor="start" x="675" y="-1833.9" font-family="Arial" font-size="14.00" fill="#000000">id </text>
<text text-anchor="start" x="689.7798" y="-1833.9" font-family="Arial" font-size="14.00" fill="#666666">[integer]</text>
<polygon fill="none" stroke="#000000" points="668,-1792.5 668,-1822.5 1048,-1822.5 1048,-1792.5 668,-1792.5"/>
<text text-anchor="start" x="675" y="-1803.9" font-family="Arial" font-size="14.00" fill="#000000">item_type </text>
<text text-anchor="start" x="739.5694" y="-1803.9" font-family="Arial" font-size="14.00" fill="#666666">[bigint]</text>
<polygon fill="none" stroke="#000000" points="668,-1762.5 668,-1792.5 1048,-1792.5 1048,-1762.5 668,-1762.5"/>
<text text-anchor="start" x="675" y="-1773.9" font-family="Arial" font-size="14.00" fill="#000000">staff </text>
<text text-anchor="start" x="705.345" y="-1773.9" font-family="Arial" font-size="14.00" fill="#666666">[integer]</text>
<polygon fill="none" stroke="#000000" points="668,-1732.5 668,-1762.5 1048,-1762.5 1048,-1732.5 668,-1732.5"/>
<text text-anchor="start" x="675" y="-1743.9" font-family="Arial" font-size="14.00" fill="#000000">org_unit </text>
<text text-anchor="start" x="729.4614" y="-1743.9" font-family="Arial" font-size="14.00" fill="#666666">[integer]</text>
<polygon fill="none" stroke="#000000" points="668,-1702.5 668,-1732.5 1048,-1732.5 1048,-1702.5 668,-1702.5"/>
<text text-anchor="start" x="675" y="-1713.9" font-family="Arial" font-size="14.00" fill="#000000">use_time </text>
<text text-anchor="start" x="735.6788" y="-1713.9" font-family="Arial" font-size="14.00" fill="#666666">[timestamp with time zone]</text>
<polygon fill="none" stroke="#000000" points="668,-1672.5 668,-1702.5 1048,-1702.5 1048,-1672.5 668,-1672.5"/>
<text text-anchor="start" x="675" y="-1683.9" font-family="Arial" font-size="14.00" fill="#000000">workstation </text>
<text text-anchor="start" x="749.676" y="-1683.9" font-family="Arial" font-size="14.00" fill="#666666">[integer]</text>
<polygon fill="none" stroke="#000000" stroke-width="3" points="666.5,-1671.5 666.5,-1889.5 1049.5,-1889.5 1049.5,-1671.5 666.5,-1671.5"/>
</g>
<!-- config.non_cataloged_type -->
<g id="node2" class="node">
<title>config.non_cataloged_type</title>
<polygon fill="#efefef" stroke="transparent" points="43,-852.5 43,-887.5 399,-887.5 399,-852.5 43,-852.5"/>
<polygon fill="none" stroke="#000000" points="43,-852.5 43,-887.5 399,-887.5 399,-852.5 43,-852.5"/>
<text text-anchor="start" x="49.6678" y="-865.3" font-family="Arial Bold" font-size="18.00" fill="#000000">config.non_cataloged_type</text>
<text text-anchor="start" x="264.7642" y="-865.3" font-family="Arial" font-size="14.00" fill="#000000">    </text>
<text text-anchor="start" x="298.969" y="-865.3" font-family="Arial" font-size="14.00" fill="#666666">[BASE TABLE]</text>
<polygon fill="none" stroke="#000000" points="43,-822.5 43,-852.5 399,-852.5 399,-822.5 43,-822.5"/>
<text text-anchor="start" x="50" y="-833.9" font-family="Arial" font-size="14.00" fill="#000000">id    </text>
<text text-anchor="start" x="95.094" y="-833.9" font-family="Arial" font-size="14.00" fill="#666666">[integer]</text>
<polygon fill="none" stroke="#000000" points="43,-792.5 43,-822.5 399,-822.5 399,-792.5 43,-792.5"/>
<text text-anchor="start" x="50" y="-803.9" font-family="Arial" font-size="14.00" fill="#000000">owning_lib    </text>
<text text-anchor="start" x="150.3268" y="-803.9" font-family="Arial" font-size="14.00" fill="#666666">[integer]</text>
<polygon fill="none" stroke="#000000" points="43,-762.5 43,-792.5 399,-792.5 399,-762.5 43,-762.5"/>
<text text-anchor="start" x="50" y="-773.9" font-family="Arial" font-size="14.00" fill="#000000">name    </text>
<text text-anchor="start" x="119.2132" y="-773.9" font-family="Arial" font-size="14.00" fill="#666666">[text]</text>
<polygon fill="none" stroke="#000000" points="43,-732.5 43,-762.5 399,-762.5 399,-732.5 43,-732.5"/>
<text text-anchor="start" x="50" y="-743.9" font-family="Arial" font-size="14.00" fill="#000000">circ_duration    </text>
<text text-anchor="start" x="164.3254" y="-743.9" font-family="Arial" font-size="14.00" fill="#666666">[interval]</text>
<polygon fill="none" stroke="#000000" points="43,-702.5 43,-732.5 399,-732.5 399,-702.5 43,-702.5"/>
<text text-anchor="start" x="50" y="-713.9" font-family="Arial" font-size="14.00" fill="#000000">in_house    </text>
<text text-anchor="start" x="141.007" y="-713.9" font-family="Arial" font-size="14.00" fill="#666666">[boolean]</text>
</g>
<!-- action.non_cat_in_house_use&#45;&gt;config.non_cataloged_type -->
<g id="edge1" class="edge">
<title>action.non_cat_in_house_use:item_type&#45;&gt;config.non_cataloged_type:id</title>
<path fill="none" stroke="#000000" d="M657.8369,-1807.322C530.5116,-1802.7806 506.0763,-1711.8151 451,-1591 416.1891,-1514.639 482.9214,-837.5 399,-837.5"/>
<polygon fill="#000000" stroke="#000000" points="658.0015,-1807.3248 667.9212,-1811.9993 663.0008,-1807.4124 668,-1807.5 668,-1807.5 668,-1807.5 663.0008,-1807.4124 668.0788,-1803.0007 658.0015,-1807.3248 658.0015,-1807.3248"/>
<text text-anchor="start" x="156.47" y="-1817.5" font-family="Arial" font-size="10.00" fill="#000000">FOREIGN KEY (item_type) REFERENCES config.non_cataloged_type(id) DEFERRABLE INITIALLY DEFERRED</text>
</g>
<!-- actor.usr -->
<g id="node3" class="node">
<title>actor.usr</title>
<polygon fill="#efefef" stroke="transparent" points="503,-1512.5 503,-1547.5 823,-1547.5 823,-1512.5 503,-1512.5"/>
<polygon fill="none" stroke="#000000" points="503,-1512.5 503,-1547.5 823,-1547.5 823,-1512.5 503,-1512.5"/>
<text text-anchor="start" x="564.2123" y="-1525.3" font-family="Arial Bold" font-size="18.00" fill="#000000">actor.usr</text>
<text text-anchor="start" x="634.2197" y="-1525.3" font-family="Arial" font-size="14.00" fill="#000000">    </text>
<text text-anchor="start" x="668.4245" y="-1525.3" font-family="Arial" font-size="14.00" fill="#666666">[BASE TABLE]</text>
<polygon fill="none" stroke="#000000" points="503,-1482.5 503,-1512.5 823,-1512.5 823,-1482.5 503,-1482.5"/>
<text text-anchor="start" x="510" y="-1493.9" font-family="Arial" font-size="14.00" fill="#000000">id    </text>
<text text-anchor="start" x="555.094" y="-1493.9" font-family="Arial" font-size="14.00" fill="#666666">[integer]</text>
<polygon fill="none" stroke="#000000" points="503,-1452.5 503,-1482.5 823,-1482.5 823,-1452.5 503,-1452.5"/>
<text text-anchor="start" x="510" y="-1463.9" font-family="Arial" font-size="14.00" fill="#000000">card    </text>
<text text-anchor="start" x="571.4306" y="-1463.9" font-family="Arial" font-size="14.00" fill="#666666">[integer]</text>
<polygon fill="none" stroke="#000000" points="503,-1422.5 503,-1452.5 823,-1452.5 823,-1422.5 503,-1422.5"/>
<text text-anchor="start" x="510" y="-1433.9" font-family="Arial" font-size="14.00" fill="#000000">profile    </text>
<text text-anchor="start" x="582.317" y="-1433.9" font-family="Arial" font-size="14.00" fill="#666666">[integer]</text>
<polygon fill="none" stroke="#000000" points="503,-1392.5 503,-1422.5 823,-1422.5 823,-1392.5 503,-1392.5"/>
<text text-anchor="start" x="510" y="-1403.9" font-family="Arial" font-size="14.00" fill="#000000">usrname    </text>
<text text-anchor="start" x="598.6564" y="-1403.9" font-family="Arial" font-size="14.00" fill="#666666">[text]</text>
<polygon fill="none" stroke="#000000" points="503,-1362.5 503,-1392.5 823,-1392.5 823,-1362.5 503,-1362.5"/>
<text text-anchor="start" x="510" y="-1373.9" font-family="Arial" font-size="14.00" fill="#000000">email    </text>
<text text-anchor="start" x="577.6438" y="-1373.9" font-family="Arial" font-size="14.00" fill="#666666">[text]</text>
<polygon fill="none" stroke="#000000" points="503,-1332.5 503,-1362.5 823,-1362.5 823,-1332.5 503,-1332.5"/>
<text text-anchor="start" x="510" y="-1343.9" font-family="Arial" font-size="14.00" fill="#000000">passwd    </text>
<text text-anchor="start" x="591.6592" y="-1343.9" font-family="Arial" font-size="14.00" fill="#666666">[text]</text>
<polygon fill="none" stroke="#000000" points="503,-1302.5 503,-1332.5 823,-1332.5 823,-1302.5 503,-1302.5"/>
<text text-anchor="start" x="510" y="-1313.9" font-family="Arial" font-size="14.00" fill="#000000">standing    </text>
<text text-anchor="start" x="597.115" y="-1313.9" font-family="Arial" font-size="14.00" fill="#666666">[integer]</text>
<polygon fill="none" stroke="#000000" points="503,-1272.5 503,-1302.5 823,-1302.5 823,-1272.5 503,-1272.5"/>
<text text-anchor="start" x="510" y="-1283.9" font-family="Arial" font-size="14.00" fill="#000000">ident_type    </text>
<text text-anchor="start" x="608.7882" y="-1283.9" font-family="Arial" font-size="14.00" fill="#666666">[integer]</text>
<polygon fill="none" stroke="#000000" points="503,-1242.5 503,-1272.5 823,-1272.5 823,-1242.5 503,-1242.5"/>
<text text-anchor="start" x="510" y="-1253.9" font-family="Arial" font-size="14.00" fill="#000000">ident_value    </text>
<text text-anchor="start" x="615.7868" y="-1253.9" font-family="Arial" font-size="14.00" fill="#666666">[text]</text>
<polygon fill="none" stroke="#000000" points="503,-1212.5 503,-1242.5 823,-1242.5 823,-1212.5 503,-1212.5"/>
<text text-anchor="start" x="510" y="-1223.9" font-family="Arial" font-size="14.00" fill="#000000">ident_type2    </text>
<text text-anchor="start" x="616.5708" y="-1223.9" font-family="Arial" font-size="14.00" fill="#666666">[integer]</text>
<polygon fill="none" stroke="#000000" points="503,-1182.5 503,-1212.5 823,-1212.5 823,-1182.5 503,-1182.5"/>
<text text-anchor="start" x="510" y="-1193.9" font-family="Arial" font-size="14.00" fill="#000000">ident_value2    </text>
<text text-anchor="start" x="623.5694" y="-1193.9" font-family="Arial" font-size="14.00" fill="#666666">[text]</text>
<polygon fill="none" stroke="#000000" points="503,-1152.5 503,-1182.5 823,-1182.5 823,-1152.5 503,-1152.5"/>
<text text-anchor="start" x="510" y="-1163.9" font-family="Arial" font-size="14.00" fill="#000000">net_access_level    </text>
<text text-anchor="start" x="651.5694" y="-1163.9" font-family="Arial" font-size="14.00" fill="#666666">[integer]</text>
<polygon fill="none" stroke="#000000" points="503,-1122.5 503,-1152.5 823,-1152.5 823,-1122.5 503,-1122.5"/>
<text text-anchor="start" x="510" y="-1133.9" font-family="Arial" font-size="14.00" fill="#000000">photo_url    </text>
<text text-anchor="start" x="602.5582" y="-1133.9" font-family="Arial" font-size="14.00" fill="#666666">[text]</text>
<polygon fill="none" stroke="#000000" points="503,-1092.5 503,-1122.5 823,-1122.5 823,-1092.5 503,-1092.5"/>
<text text-anchor="start" x="510" y="-1103.9" font-family="Arial" font-size="14.00" fill="#000000">prefix    </text>
<text text-anchor="start" x="578.4278" y="-1103.9" font-family="Arial" font-size="14.00" fill="#666666">[text]</text>
<polygon fill="none" stroke="#000000" points="503,-1062.5 503,-1092.5 823,-1092.5 823,-1062.5 503,-1062.5"/>
<text text-anchor="start" x="510" y="-1073.9" font-family="Arial" font-size="14.00" fill="#000000">first_given_name    </text>
<text text-anchor="start" x="650.7812" y="-1073.9" font-family="Arial" font-size="14.00" fill="#666666">[text]</text>
<polygon fill="none" stroke="#000000" points="503,-1032.5 503,-1062.5 823,-1062.5 823,-1032.5 503,-1032.5"/>
<text text-anchor="start" x="510" y="-1043.9" font-family="Arial" font-size="14.00" fill="#000000">second_given_name    </text>
<text text-anchor="start" x="673.3632" y="-1043.9" font-family="Arial" font-size="14.00" fill="#666666">[text]</text>
<polygon fill="none" stroke="#000000" points="503,-1002.5 503,-1032.5 823,-1032.5 823,-1002.5 503,-1002.5"/>
<text text-anchor="start" x="510" y="-1013.9" font-family="Arial" font-size="14.00" fill="#000000">family_name    </text>
<text text-anchor="start" x="623.5428" y="-1013.9" font-family="Arial" font-size="14.00" fill="#666666">[text]</text>
<polygon fill="none" stroke="#000000" points="503,-972.5 503,-1002.5 823,-1002.5 823,-972.5 503,-972.5"/>
<text text-anchor="start" x="510" y="-983.9" font-family="Arial" font-size="14.00" fill="#000000">suffix    </text>
<text text-anchor="start" x="576.8752" y="-983.9" font-family="Arial" font-size="14.00" fill="#666666">[text]</text>
<polygon fill="none" stroke="#000000" points="503,-942.5 503,-972.5 823,-972.5 823,-942.5 503,-942.5"/>
<text text-anchor="start" x="510" y="-953.9" font-family="Arial" font-size="14.00" fill="#000000">alias    </text>
<text text-anchor="start" x="572.9832" y="-953.9" font-family="Arial" font-size="14.00" fill="#666666">[text]</text>
<polygon fill="none" stroke="#000000" points="503,-912.5 503,-942.5 823,-942.5 823,-912.5 503,-912.5"/>
<text text-anchor="start" x="510" y="-923.9" font-family="Arial" font-size="14.00" fill="#000000">day_phone    </text>
<text text-anchor="start" x="613.4656" y="-923.9" font-family="Arial" font-size="14.00" fill="#666666">[text]</text>
<polygon fill="none" stroke="#000000" points="503,-882.5 503,-912.5 823,-912.5 823,-882.5 503,-882.5"/>
<text text-anchor="start" x="510" y="-893.9" font-family="Arial" font-size="14.00" fill="#000000">evening_phone    </text>
<text text-anchor="start" x="639.92" y="-893.9" font-family="Arial" font-size="14.00" fill="#666666">[text]</text>
<polygon fill="none" stroke="#000000" points="503,-852.5 503,-882.5 823,-882.5 823,-852.5 503,-852.5"/>
<text text-anchor="start" x="510" y="-863.9" font-family="Arial" font-size="14.00" fill="#000000">other_phone    </text>
<text text-anchor="start" x="622.7994" y="-863.9" font-family="Arial" font-size="14.00" fill="#666666">[text]</text>
<polygon fill="none" stroke="#000000" points="503,-822.5 503,-852.5 823,-852.5 823,-822.5 503,-822.5"/>
<text text-anchor="start" x="510" y="-833.9" font-family="Arial" font-size="14.00" fill="#000000">mailing_address    </text>
<text text-anchor="start" x="646.1066" y="-833.9" font-family="Arial" font-size="14.00" fill="#666666">[integer]</text>
<polygon fill="none" stroke="#000000" points="503,-792.5 503,-822.5 823,-822.5 823,-792.5 503,-792.5"/>
<text text-anchor="start" x="510" y="-803.9" font-family="Arial" font-size="14.00" fill="#000000">billing_address    </text>
<text text-anchor="start" x="637.5526" y="-803.9" font-family="Arial" font-size="14.00" fill="#666666">[integer]</text>
<polygon fill="none" stroke="#000000" points="503,-762.5 503,-792.5 823,-792.5 823,-762.5 503,-762.5"/>
<text text-anchor="start" x="510" y="-773.9" font-family="Arial" font-size="14.00" fill="#000000">home_ou    </text>
<text text-anchor="start" x="602.561" y="-773.9" font-family="Arial" font-size="14.00" fill="#666666">[integer]</text>
<polygon fill="none" stroke="#000000" points="503,-732.5 503,-762.5 823,-762.5 823,-732.5 503,-732.5"/>
<text text-anchor="start" x="510" y="-743.9" font-family="Arial" font-size="14.00" fill="#000000">dob    </text>
<text text-anchor="start" x="567.5526" y="-743.9" font-family="Arial" font-size="14.00" fill="#666666">[date]</text>
<polygon fill="none" stroke="#000000" points="503,-702.5 503,-732.5 823,-732.5 823,-702.5 503,-702.5"/>
<text text-anchor="start" x="510" y="-713.9" font-family="Arial" font-size="14.00" fill="#000000">active    </text>
<text text-anchor="start" x="580.7672" y="-713.9" font-family="Arial" font-size="14.00" fill="#666666">[boolean]</text>
<polygon fill="none" stroke="#000000" points="503,-672.5 503,-702.5 823,-702.5 823,-672.5 503,-672.5"/>
<text text-anchor="start" x="510" y="-683.9" font-family="Arial" font-size="14.00" fill="#000000">master_account    </text>
<text text-anchor="start" x="643.7854" y="-683.9" font-family="Arial" font-size="14.00" fill="#666666">[boolean]</text>
<polygon fill="none" stroke="#000000" points="503,-642.5 503,-672.5 823,-672.5 823,-642.5 503,-642.5"/>
<text text-anchor="start" x="510" y="-653.9" font-family="Arial" font-size="14.00" fill="#000000">super_user    </text>
<text text-anchor="start" x="614.2216" y="-653.9" font-family="Arial" font-size="14.00" fill="#666666">[boolean]</text>
<polygon fill="none" stroke="#000000" points="503,-612.5 503,-642.5 823,-642.5 823,-612.5 503,-612.5"/>
<text text-anchor="start" x="510" y="-623.9" font-family="Arial" font-size="14.00" fill="#000000">barred    </text>
<text text-anchor="start" x="584.6564" y="-623.9" font-family="Arial" font-size="14.00" fill="#666666">[boolean]</text>
<polygon fill="none" stroke="#000000" points="503,-582.5 503,-612.5 823,-612.5 823,-582.5 503,-582.5"/>
<text text-anchor="start" x="510" y="-593.9" font-family="Arial" font-size="14.00" fill="#000000">deleted    </text>
<text text-anchor="start" x="590.115" y="-593.9" font-family="Arial" font-size="14.00" fill="#666666">[boolean]</text>
<polygon fill="none" stroke="#000000" points="503,-552.5 503,-582.5 823,-582.5 823,-552.5 503,-552.5"/>
<text text-anchor="start" x="510" y="-563.9" font-family="Arial" font-size="14.00" fill="#000000">juvenile    </text>
<text text-anchor="start" x="591.655" y="-563.9" font-family="Arial" font-size="14.00" fill="#666666">[boolean]</text>
<polygon fill="none" stroke="#000000" points="503,-522.5 503,-552.5 823,-552.5 823,-522.5 503,-522.5"/>
<text text-anchor="start" x="510" y="-533.9" font-family="Arial" font-size="14.00" fill="#000000">usrgroup    </text>
<text text-anchor="start" x="599.439" y="-533.9" font-family="Arial" font-size="14.00" fill="#666666">[integer]</text>
<polygon fill="none" stroke="#000000" points="503,-492.5 503,-522.5 823,-522.5 823,-492.5 503,-492.5"/>
<text text-anchor="start" x="510" y="-503.9" font-family="Arial" font-size="14.00" fill="#000000">claims_returned_count    </text>
<text text-anchor="start" x="685.7896" y="-503.9" font-family="Arial" font-size="14.00" fill="#666666">[integer]</text>
<polygon fill="none" stroke="#000000" points="503,-462.5 503,-492.5 823,-492.5 823,-462.5 503,-462.5"/>
<text text-anchor="start" x="510" y="-473.9" font-family="Arial" font-size="14.00" fill="#000000">credit_forward_balance    </text>
<text text-anchor="start" x="689.6788" y="-473.9" font-family="Arial" font-size="14.00" fill="#666666">[numeric(6,2)]</text>
<polygon fill="none" stroke="#000000" points="503,-432.5 503,-462.5 823,-462.5 823,-432.5 503,-432.5"/>
<text text-anchor="start" x="510" y="-443.9" font-family="Arial" font-size="14.00" fill="#000000">last_xact_id    </text>
<text text-anchor="start" x="618.1122" y="-443.9" font-family="Arial" font-size="14.00" fill="#666666">[text]</text>
<polygon fill="none" stroke="#000000" points="503,-402.5 503,-432.5 823,-432.5 823,-402.5 503,-402.5"/>
<text text-anchor="start" x="510" y="-413.9" font-family="Arial" font-size="14.00" fill="#000000">alert_message    </text>
<text text-anchor="start" x="636.0014" y="-413.9" font-family="Arial" font-size="14.00" fill="#666666">[text]</text>
<polygon fill="none" stroke="#000000" points="503,-372.5 503,-402.5 823,-402.5 823,-372.5 503,-372.5"/>
<text text-anchor="start" x="510" y="-383.9" font-family="Arial" font-size="14.00" fill="#000000">create_date    </text>
<text text-anchor="start" x="618.1248" y="-383.9" font-family="Arial" font-size="14.00" fill="#666666">[timestamp with time zone]</text>
<polygon fill="none" stroke="#000000" points="503,-342.5 503,-372.5 823,-372.5 823,-342.5 503,-342.5"/>
<text text-anchor="start" x="510" y="-353.9" font-family="Arial" font-size="14.00" fill="#000000">expire_date    </text>
<text text-anchor="start" x="617.3408" y="-353.9" font-family="Arial" font-size="14.00" fill="#666666">[timestamp with time zone]</text>
<polygon fill="none" stroke="#000000" points="503,-312.5 503,-342.5 823,-342.5 823,-312.5 503,-312.5"/>
<text text-anchor="start" x="510" y="-323.9" font-family="Arial" font-size="14.00" fill="#000000">claims_never_checked_out_count    </text>
<text text-anchor="start" x="755.8246" y="-323.9" font-family="Arial" font-size="14.00" fill="#666666">[integer]</text>
<polygon fill="none" stroke="#000000" points="503,-282.5 503,-312.5 823,-312.5 823,-282.5 503,-282.5"/>
<text text-anchor="start" x="509.7609" y="-293.9" font-family="Arial" font-size="14.00" fill="#000000">last_update_time    </text>
<text text-anchor="start" x="650.5547" y="-293.9" font-family="Arial" font-size="14.00" fill="#666666">[timestamp with time zone]</text>
<polygon fill="none" stroke="#000000" points="503,-252.5 503,-282.5 823,-282.5 823,-252.5 503,-252.5"/>
<text text-anchor="start" x="510" y="-263.9" font-family="Arial" font-size="14.00" fill="#000000">pref_prefix    </text>
<text text-anchor="start" x="610.3268" y="-263.9" font-family="Arial" font-size="14.00" fill="#666666">[text]</text>
<polygon fill="none" stroke="#000000" points="503,-222.5 503,-252.5 823,-252.5 823,-222.5 503,-222.5"/>
<text text-anchor="start" x="510" y="-233.9" font-family="Arial" font-size="14.00" fill="#000000">pref_first_given_name    </text>
<text text-anchor="start" x="682.6802" y="-233.9" font-family="Arial" font-size="14.00" fill="#666666">[text]</text>
<polygon fill="none" stroke="#000000" points="503,-192.5 503,-222.5 823,-222.5 823,-192.5 503,-192.5"/>
<text text-anchor="start" x="510" y="-203.9" font-family="Arial" font-size="14.00" fill="#000000">pref_second_given_name    </text>
<text text-anchor="start" x="705.2622" y="-203.9" font-family="Arial" font-size="14.00" fill="#666666">[text]</text>
<polygon fill="none" stroke="#000000" points="503,-162.5 503,-192.5 823,-192.5 823,-162.5 503,-162.5"/>
<text text-anchor="start" x="510" y="-173.9" font-family="Arial" font-size="14.00" fill="#000000">pref_family_name    </text>
<text text-anchor="start" x="655.4418" y="-173.9" font-family="Arial" font-size="14.00" fill="#666666">[text]</text>
<polygon fill="none" stroke="#000000" points="503,-132.5 503,-162.5 823,-162.5 823,-132.5 503,-132.5"/>
<text text-anchor="start" x="510" y="-143.9" font-family="Arial" font-size="14.00" fill="#000000">pref_suffix    </text>
<text text-anchor="start" x="608.7742" y="-143.9" font-family="Arial" font-size="14.00" fill="#666666">[text]</text>
<polygon fill="none" stroke="#000000" points="503,-102.5 503,-132.5 823,-132.5 823,-102.5 503,-102.5"/>
<text text-anchor="start" x="510" y="-113.9" font-family="Arial" font-size="14.00" fill="#000000">name_keywords    </text>
<text text-anchor="start" x="646.1108" y="-113.9" font-family="Arial" font-size="14.00" fill="#666666">[text]</text>
<polygon fill="none" stroke="#000000" points="503,-72.5 503,-102.5 823,-102.5 823,-72.5 503,-72.5"/>
<text text-anchor="start" x="510" y="-83.9" font-family="Arial" font-size="14.00" fill="#000000">name_kw_tsvector    </text>
<text text-anchor="start" x="660.892" y="-83.9" font-family="Arial" font-size="14.00" fill="#666666">[tsvector]</text>
<polygon fill="none" stroke="#000000" points="503,-42.5 503,-72.5 823,-72.5 823,-42.5 503,-42.5"/>
<text text-anchor="start" x="510" y="-53.9" font-family="Arial" font-size="14.00" fill="#000000">guardian    </text>
<text text-anchor="start" x="598.6676" y="-53.9" font-family="Arial" font-size="14.00" fill="#666666">[text]</text>
</g>
<!-- action.non_cat_in_house_use&#45;&gt;actor.usr -->
<g id="edge2" class="edge">
<title>action.non_cat_in_house_use:staff&#45;&gt;actor.usr:id</title>
<path fill="none" stroke="#000000" d="M657.8406,-1776.6431C603.9254,-1766.9044 628.6705,-1676.511 668,-1627 711.9893,-1571.6229 779.0107,-1646.3771 823,-1591 848.8475,-1558.4612 864.5556,-1497.5 823,-1497.5"/>
<polygon fill="#000000" stroke="#000000" points="658.0354,-1776.6595 667.6218,-1781.9841 663.0177,-1777.0797 668,-1777.5 668,-1777.5 668,-1777.5 663.0177,-1777.0797 668.3782,-1773.0159 658.0354,-1776.6595 658.0354,-1776.6595"/>
<text text-anchor="start" x="260.9955" y="-1787.5" font-family="Arial" font-size="10.00" fill="#000000">FOREIGN KEY (staff) REFERENCES actor.usr(id) DEFERRABLE INITIALLY DEFERRED</text>
</g>
<!-- actor.org_unit -->
<g id="node4" class="node">
<title>actor.org_unit</title>
<polygon fill="#efefef" stroke="transparent" points="928,-972.5 928,-1007.5 1179,-1007.5 1179,-972.5 928,-972.5"/>
<polygon fill="none" stroke="#000000" points="928,-972.5 928,-1007.5 1179,-1007.5 1179,-972.5 928,-972.5"/>
<text text-anchor="start" x="934.7017" y="-985.3" font-family="Arial Bold" font-size="18.00" fill="#000000">actor.org_unit</text>
<text text-anchor="start" x="1044.7303" y="-985.3" font-family="Arial" font-size="14.00" fill="#000000">    </text>
<text text-anchor="start" x="1078.9351" y="-985.3" font-family="Arial" font-size="14.00" fill="#666666">[BASE TABLE]</text>
<polygon fill="none" stroke="#000000" points="928,-942.5 928,-972.5 1179,-972.5 1179,-942.5 928,-942.5"/>
<text text-anchor="start" x="935" y="-953.9" font-family="Arial" font-size="14.00" fill="#000000">id    </text>
<text text-anchor="start" x="980.094" y="-953.9" font-family="Arial" font-size="14.00" fill="#666666">[integer]</text>
<polygon fill="none" stroke="#000000" points="928,-912.5 928,-942.5 1179,-942.5 1179,-912.5 928,-912.5"/>
<text text-anchor="start" x="935" y="-923.9" font-family="Arial" font-size="14.00" fill="#000000">parent_ou    </text>
<text text-anchor="start" x="1032.2342" y="-923.9" font-family="Arial" font-size="14.00" fill="#666666">[integer]</text>
<polygon fill="none" stroke="#000000" points="928,-882.5 928,-912.5 1179,-912.5 1179,-882.5 928,-882.5"/>
<text text-anchor="start" x="935" y="-893.9" font-family="Arial" font-size="14.00" fill="#000000">ou_type    </text>
<text text-anchor="start" x="1019.0084" y="-893.9" font-family="Arial" font-size="14.00" fill="#666666">[integer]</text>
<polygon fill="none" stroke="#000000" points="928,-852.5 928,-882.5 1179,-882.5 1179,-852.5 928,-852.5"/>
<text text-anchor="start" x="935" y="-863.9" font-family="Arial" font-size="14.00" fill="#000000">ill_address    </text>
<text text-anchor="start" x="1036.0982" y="-863.9" font-family="Arial" font-size="14.00" fill="#666666">[integer]</text>
<polygon fill="none" stroke="#000000" points="928,-822.5 928,-852.5 1179,-852.5 1179,-822.5 928,-822.5"/>
<text text-anchor="start" x="935" y="-833.9" font-family="Arial" font-size="14.00" fill="#000000">holds_address    </text>
<text text-anchor="start" x="1060.2328" y="-833.9" font-family="Arial" font-size="14.00" fill="#666666">[integer]</text>
<polygon fill="none" stroke="#000000" points="928,-792.5 928,-822.5 1179,-822.5 1179,-792.5 928,-792.5"/>
<text text-anchor="start" x="935" y="-803.9" font-family="Arial" font-size="14.00" fill="#000000">mailing_address    </text>
<text text-anchor="start" x="1071.1066" y="-803.9" font-family="Arial" font-size="14.00" fill="#666666">[integer]</text>
<polygon fill="none" stroke="#000000" points="928,-762.5 928,-792.5 1179,-792.5 1179,-762.5 928,-762.5"/>
<text text-anchor="start" x="935" y="-773.9" font-family="Arial" font-size="14.00" fill="#000000">billing_address    </text>
<text text-anchor="start" x="1062.5526" y="-773.9" font-family="Arial" font-size="14.00" fill="#666666">[integer]</text>
<polygon fill="none" stroke="#000000" points="928,-732.5 928,-762.5 1179,-762.5 1179,-732.5 928,-732.5"/>
<text text-anchor="start" x="935" y="-743.9" font-family="Arial" font-size="14.00" fill="#000000">shortname    </text>
<text text-anchor="start" x="1035.3296" y="-743.9" font-family="Arial" font-size="14.00" fill="#666666">[text]</text>
<polygon fill="none" stroke="#000000" points="928,-702.5 928,-732.5 1179,-732.5 1179,-702.5 928,-702.5"/>
<text text-anchor="start" x="935" y="-713.9" font-family="Arial" font-size="14.00" fill="#000000">name    </text>
<text text-anchor="start" x="1004.2132" y="-713.9" font-family="Arial" font-size="14.00" fill="#666666">[text]</text>
<polygon fill="none" stroke="#000000" points="928,-672.5 928,-702.5 1179,-702.5 1179,-672.5 928,-672.5"/>
<text text-anchor="start" x="935" y="-683.9" font-family="Arial" font-size="14.00" fill="#000000">email    </text>
<text text-anchor="start" x="1002.6438" y="-683.9" font-family="Arial" font-size="14.00" fill="#666666">[text]</text>
<polygon fill="none" stroke="#000000" points="928,-642.5 928,-672.5 1179,-672.5 1179,-642.5 928,-642.5"/>
<text text-anchor="start" x="935" y="-653.9" font-family="Arial" font-size="14.00" fill="#000000">phone    </text>
<text text-anchor="start" x="1008.1178" y="-653.9" font-family="Arial" font-size="14.00" fill="#666666">[text]</text>
<polygon fill="none" stroke="#000000" points="928,-612.5 928,-642.5 1179,-642.5 1179,-612.5 928,-612.5"/>
<text text-anchor="start" x="935" y="-623.9" font-family="Arial" font-size="14.00" fill="#000000">opac_visible    </text>
<text text-anchor="start" x="1046.2202" y="-623.9" font-family="Arial" font-size="14.00" fill="#666666">[boolean]</text>
<polygon fill="none" stroke="#000000" points="928,-582.5 928,-612.5 1179,-612.5 1179,-582.5 928,-582.5"/>
<text text-anchor="start" x="935" y="-593.9" font-family="Arial" font-size="14.00" fill="#000000">fiscal_calendar    </text>
<text text-anchor="start" x="1062.554" y="-593.9" font-family="Arial" font-size="14.00" fill="#666666">[integer]</text>
</g>
<!-- action.non_cat_in_house_use&#45;&gt;actor.org_unit -->
<g id="edge3" class="edge">
<title>action.non_cat_in_house_use:org_unit&#45;&gt;actor.org_unit:id</title>
<path fill="none" stroke="#000000" d="M1058.1124,-1746.5169C1206.3557,-1715.4299 754.0722,-957.5 928,-957.5"/>
<polygon fill="#000000" stroke="#000000" points="1057.9531,-1746.5323 1047.5645,-1743.0211 1052.9765,-1747.0161 1048,-1747.5 1048,-1747.5 1048,-1747.5 1052.9765,-1747.0161 1048.4355,-1751.9789 1057.9531,-1746.5323 1057.9531,-1746.5323"/>
<text text-anchor="start" x="1055.2655" y="-1757.5" font-family="Arial" font-size="10.00" fill="#000000">FOREIGN KEY (org_unit) REFERENCES actor.org_unit(id) DEFERRABLE INITIALLY DEFERRED</text>
</g>
<!-- actor.workstation -->
<g id="node5" class="node">
<title>actor.workstation</title>
<polygon fill="#efefef" stroke="transparent" points="1283,-822.5 1283,-857.5 1560,-857.5 1560,-822.5 1283,-822.5"/>
<polygon fill="none" stroke="#000000" points="1283,-822.5 1283,-857.5 1560,-857.5 1560,-822.5 1283,-822.5"/>
<text text-anchor="start" x="1289.7066" y="-835.3" font-family="Arial Bold" font-size="18.00" fill="#000000">actor.workstation</text>
<text text-anchor="start" x="1425.7254" y="-835.3" font-family="Arial" font-size="14.00" fill="#000000">    </text>
<text text-anchor="start" x="1459.9302" y="-835.3" font-family="Arial" font-size="14.00" fill="#666666">[BASE TABLE]</text>
<polygon fill="none" stroke="#000000" points="1283,-792.5 1283,-822.5 1560,-822.5 1560,-792.5 1283,-792.5"/>
<text text-anchor="start" x="1290" y="-803.9" font-family="Arial" font-size="14.00" fill="#000000">id    </text>
<text text-anchor="start" x="1335.094" y="-803.9" font-family="Arial" font-size="14.00" fill="#666666">[integer]</text>
<polygon fill="none" stroke="#000000" points="1283,-762.5 1283,-792.5 1560,-792.5 1560,-762.5 1283,-762.5"/>
<text text-anchor="start" x="1290" y="-773.9" font-family="Arial" font-size="14.00" fill="#000000">name    </text>
<text text-anchor="start" x="1359.2132" y="-773.9" font-family="Arial" font-size="14.00" fill="#666666">[text]</text>
<polygon fill="none" stroke="#000000" points="1283,-732.5 1283,-762.5 1560,-762.5 1560,-732.5 1283,-732.5"/>
<text text-anchor="start" x="1290" y="-743.9" font-family="Arial" font-size="14.00" fill="#000000">owning_lib    </text>
<text text-anchor="start" x="1390.3268" y="-743.9" font-family="Arial" font-size="14.00" fill="#666666">[integer]</text>
</g>
<!-- action.non_cat_in_house_use&#45;&gt;actor.workstation -->
<g id="edge4" class="edge">
<title>action.non_cat_in_house_use:workstation&#45;&gt;actor.workstation:id</title>
<path fill="none" stroke="#000000" d="M1058.029,-1687.418C1143.0025,-1685.982 1182.7838,-1665.2558 1231,-1591 1278.514,-1517.8257 1195.7529,-807.5 1283,-807.5"/>
<polygon fill="#000000" stroke="#000000" points="1057.9997,-1687.4181 1047.9631,-1683.0002 1052.9998,-1687.4591 1048,-1687.5 1048,-1687.5 1048,-1687.5 1052.9998,-1687.4591 1048.0369,-1691.9998 1057.9997,-1687.4181 1057.9997,-1687.4181"/>
<text text-anchor="start" x="1054.8265" y="-1697.5" font-family="Arial" font-size="10.00" fill="#000000">FOREIGN KEY (workstation) REFERENCES actor.workstation(id) DEFERRABLE INITIALLY DEFERRED</text>
</g>
</g>
</svg>
