<?xml version="1.0" encoding="UTF-8" standalone="no"?>
<!DOCTYPE svg PUBLIC "-//W3C//DTD SVG 1.1//EN"
 "http://www.w3.org/Graphics/SVG/1.1/DTD/svg11.dtd">
<!-- Generated by graphviz version 2.40.1 (20161225.0304)
 -->
<!-- Title: action_trigger.collector Pages: 1 -->
<svg width="924pt" height="502pt"
 viewBox="0.00 0.00 924.00 502.00" xmlns="http://www.w3.org/2000/svg" xmlns:xlink="http://www.w3.org/1999/xlink">
<g id="graph0" class="graph" transform="scale(1 1) rotate(0) translate(4 498)">
<title>action_trigger.collector</title>
<polygon fill="#ffffff" stroke="transparent" points="-4,4 -4,-498 920,-498 920,4 -4,4"/>
<!-- action_trigger.collector -->
<g id="node1" class="node">
<title>action_trigger.collector</title>
<polygon fill="#efefef" stroke="transparent" points="59,-105.5 59,-140.5 381,-140.5 381,-105.5 59,-105.5"/>
<polygon fill="none" stroke="#000000" points="59,-105.5 59,-140.5 381,-140.5 381,-105.5 59,-105.5"/>
<text text-anchor="start" x="65.7039" y="-118.3" font-family="Arial Bold" font-size="18.00" fill="#000000">action_trigger.collector</text>
<text text-anchor="start" x="246.7281" y="-118.3" font-family="Arial" font-size="14.00" fill="#000000">    </text>
<text text-anchor="start" x="280.9329" y="-118.3" font-family="Arial" font-size="14.00" fill="#666666">[BASE TABLE]</text>
<polygon fill="none" stroke="#000000" points="59,-75.5 59,-105.5 381,-105.5 381,-75.5 59,-75.5"/>
<text text-anchor="start" x="66" y="-86.9" font-family="Arial" font-size="14.00" fill="#000000">module </text>
<text text-anchor="start" x="115.7882" y="-86.9" font-family="Arial" font-size="14.00" fill="#666666">[text]</text>
<polygon fill="none" stroke="#000000" points="59,-45.5 59,-75.5 381,-75.5 381,-45.5 59,-45.5"/>
<text text-anchor="start" x="66" y="-56.9" font-family="Arial" font-size="14.00" fill="#000000">description </text>
<text text-anchor="start" x="137.568" y="-56.9" font-family="Arial" font-size="14.00" fill="#666666">[text]</text>
<polygon fill="none" stroke="#000000" stroke-width="3" points="57.5,-44.5 57.5,-142.5 382.5,-142.5 382.5,-44.5 57.5,-44.5"/>
</g>
<!-- action_trigger.environment -->
<g id="node2" class="node">
<title>action_trigger.environment</title>
<polygon fill="#efefef" stroke="transparent" points="43,-415.5 43,-450.5 397,-450.5 397,-415.5 43,-415.5"/>
<polygon fill="none" stroke="#000000" points="43,-415.5 43,-450.5 397,-450.5 397,-415.5 43,-415.5"/>
<text text-anchor="start" x="49.6956" y="-428.3" font-family="Arial Bold" font-size="18.00" fill="#000000">action_trigger.environment</text>
<text text-anchor="start" x="262.7364" y="-428.3" font-family="Arial" font-size="14.00" fill="#000000">    </text>
<text text-anchor="start" x="296.9412" y="-428.3" font-family="Arial" font-size="14.00" fill="#666666">[BASE TABLE]</text>
<polygon fill="none" stroke="#000000" points="43,-385.5 43,-415.5 397,-415.5 397,-385.5 43,-385.5"/>
<text text-anchor="start" x="50" y="-396.9" font-family="Arial" font-size="14.00" fill="#000000">id    </text>
<text text-anchor="start" x="95.094" y="-396.9" font-family="Arial" font-size="14.00" fill="#666666">[integer]</text>
<polygon fill="none" stroke="#000000" points="43,-355.5 43,-385.5 397,-385.5 397,-355.5 43,-355.5"/>
<text text-anchor="start" x="50" y="-366.9" font-family="Arial" font-size="14.00" fill="#000000">event_def    </text>
<text text-anchor="start" x="145.6816" y="-366.9" font-family="Arial" font-size="14.00" fill="#666666">[integer]</text>
<polygon fill="none" stroke="#000000" points="43,-325.5 43,-355.5 397,-355.5 397,-325.5 43,-325.5"/>
<text text-anchor="start" x="50" y="-336.9" font-family="Arial" font-size="14.00" fill="#000000">path    </text>
<text text-anchor="start" x="111.4432" y="-336.9" font-family="Arial" font-size="14.00" fill="#666666">[text]</text>
<polygon fill="none" stroke="#000000" points="43,-295.5 43,-325.5 397,-325.5 397,-295.5 43,-295.5"/>
<text text-anchor="start" x="50" y="-306.9" font-family="Arial" font-size="14.00" fill="#000000">collector    </text>
<text text-anchor="start" x="136.317" y="-306.9" font-family="Arial" font-size="14.00" fill="#666666">[text]</text>
<polygon fill="none" stroke="#000000" points="43,-265.5 43,-295.5 397,-295.5 397,-265.5 43,-265.5"/>
<text text-anchor="start" x="50" y="-276.9" font-family="Arial" font-size="14.00" fill="#000000">label    </text>
<text text-anchor="start" x="113.7658" y="-276.9" font-family="Arial" font-size="14.00" fill="#666666">[text]</text>
</g>
<!-- action_trigger.environment&#45;&gt;action_trigger.collector -->
<g id="edge1" class="edge">
<title>action_trigger.environment:collector&#45;&gt;action_trigger.collector:module</title>
<path fill="none" stroke="#000000" d="M407.1818,-309.6591C493.7727,-294.8888 475.4937,-90.5 381,-90.5"/>
<polygon fill="#000000" stroke="#000000" points="406.9661,-309.6768 396.6296,-306.0153 401.983,-310.0884 397,-310.5 397,-310.5 397,-310.5 401.983,-310.0884 397.3704,-314.9847 406.9661,-309.6768 406.9661,-309.6768"/>
<text text-anchor="start" x="404.491" y="-320.5" font-family="Arial" font-size="10.00" fill="#000000">FOREIGN KEY (collector) REFERENCES action_trigger.collector(module) DEFERRABLE INITIALLY DEFERRED</text>
</g>
</g>
</svg>
