<?xml version="1.0" encoding="UTF-8" standalone="no"?>
<!DOCTYPE svg PUBLIC "-//W3C//DTD SVG 1.1//EN"
 "http://www.w3.org/Graphics/SVG/1.1/DTD/svg11.dtd">
<!-- Generated by graphviz version 2.40.1 (20161225.0304)
 -->
<!-- Title: action.hold_request_note Pages: 1 -->
<svg width="969pt" height="1612pt"
 viewBox="0.00 0.00 968.50 1612.00" xmlns="http://www.w3.org/2000/svg" xmlns:xlink="http://www.w3.org/1999/xlink">
<g id="graph0" class="graph" transform="scale(1 1) rotate(0) translate(4 1608)">
<title>action.hold_request_note</title>
<polygon fill="#ffffff" stroke="transparent" points="-4,4 -4,-1608 964.5,-1608 964.5,4 -4,4"/>
<!-- action.hold_request_note -->
<g id="node1" class="node">
<title>action.hold_request_note</title>
<polygon fill="#efefef" stroke="transparent" points="572,-1522.5 572,-1557.5 915,-1557.5 915,-1522.5 572,-1522.5"/>
<polygon fill="none" stroke="#000000" points="572,-1522.5 572,-1557.5 915,-1557.5 915,-1522.5 572,-1522.5"/>
<text text-anchor="start" x="578.6748" y="-1535.3" font-family="Arial Bold" font-size="18.00" fill="#000000">action.hold_request_note</text>
<text text-anchor="start" x="780.7572" y="-1535.3" font-family="Arial" font-size="14.00" fill="#000000">    </text>
<text text-anchor="start" x="814.962" y="-1535.3" font-family="Arial" font-size="14.00" fill="#666666">[BASE TABLE]</text>
<polygon fill="none" stroke="#000000" points="572,-1492.5 572,-1522.5 915,-1522.5 915,-1492.5 572,-1492.5"/>
<text text-anchor="start" x="579" y="-1503.9" font-family="Arial" font-size="14.00" fill="#000000">id </text>
<text text-anchor="start" x="593.7798" y="-1503.9" font-family="Arial" font-size="14.00" fill="#666666">[bigint]</text>
<polygon fill="none" stroke="#000000" points="572,-1462.5 572,-1492.5 915,-1492.5 915,-1462.5 572,-1462.5"/>
<text text-anchor="start" x="579" y="-1473.9" font-family="Arial" font-size="14.00" fill="#000000">hold </text>
<text text-anchor="start" x="609.345" y="-1473.9" font-family="Arial" font-size="14.00" fill="#666666">[bigint]</text>
<polygon fill="none" stroke="#000000" points="572,-1432.5 572,-1462.5 915,-1462.5 915,-1432.5 572,-1432.5"/>
<text text-anchor="start" x="579" y="-1443.9" font-family="Arial" font-size="14.00" fill="#000000">title </text>
<text text-anchor="start" x="604.6676" y="-1443.9" font-family="Arial" font-size="14.00" fill="#666666">[text]</text>
<polygon fill="none" stroke="#000000" points="572,-1402.5 572,-1432.5 915,-1432.5 915,-1402.5 572,-1402.5"/>
<text text-anchor="start" x="579" y="-1413.9" font-family="Arial" font-size="14.00" fill="#000000">body </text>
<text text-anchor="start" x="613.2384" y="-1413.9" font-family="Arial" font-size="14.00" fill="#666666">[text]</text>
<polygon fill="none" stroke="#000000" points="572,-1372.5 572,-1402.5 915,-1402.5 915,-1372.5 572,-1372.5"/>
<text text-anchor="start" x="579" y="-1383.9" font-family="Arial" font-size="14.00" fill="#000000">slip </text>
<text text-anchor="start" x="603.8864" y="-1383.9" font-family="Arial" font-size="14.00" fill="#666666">[boolean]</text>
<polygon fill="none" stroke="#000000" points="572,-1342.5 572,-1372.5 915,-1372.5 915,-1342.5 572,-1342.5"/>
<text text-anchor="start" x="579" y="-1353.9" font-family="Arial" font-size="14.00" fill="#000000">pub </text>
<text text-anchor="start" x="606.2384" y="-1353.9" font-family="Arial" font-size="14.00" fill="#666666">[boolean]</text>
<polygon fill="none" stroke="#000000" points="572,-1312.5 572,-1342.5 915,-1342.5 915,-1312.5 572,-1312.5"/>
<text text-anchor="start" x="579" y="-1323.9" font-family="Arial" font-size="14.00" fill="#000000">staff </text>
<text text-anchor="start" x="609.345" y="-1323.9" font-family="Arial" font-size="14.00" fill="#666666">[boolean]</text>
<polygon fill="none" stroke="#000000" stroke-width="3" points="570,-1311.5 570,-1559.5 916,-1559.5 916,-1311.5 570,-1311.5"/>
</g>
<!-- action.hold_request -->
<g id="node2" class="node">
<title>action.hold_request</title>
<polygon fill="#efefef" stroke="transparent" points="582,-1152.5 582,-1187.5 905,-1187.5 905,-1152.5 582,-1152.5"/>
<polygon fill="none" stroke="#000000" points="582,-1152.5 582,-1187.5 905,-1187.5 905,-1152.5 582,-1152.5"/>
<text text-anchor="start" x="601.1883" y="-1165.3" font-family="Arial Bold" font-size="18.00" fill="#000000">action.hold_request</text>
<text text-anchor="start" x="758.2437" y="-1165.3" font-family="Arial" font-size="14.00" fill="#000000">    </text>
<text text-anchor="start" x="792.4485" y="-1165.3" font-family="Arial" font-size="14.00" fill="#666666">[BASE TABLE]</text>
<polygon fill="none" stroke="#000000" points="582,-1122.5 582,-1152.5 905,-1152.5 905,-1122.5 582,-1122.5"/>
<text text-anchor="start" x="589" y="-1133.9" font-family="Arial" font-size="14.00" fill="#000000">id    </text>
<text text-anchor="start" x="634.094" y="-1133.9" font-family="Arial" font-size="14.00" fill="#666666">[integer]</text>
<polygon fill="none" stroke="#000000" points="582,-1092.5 582,-1122.5 905,-1122.5 905,-1092.5 582,-1092.5"/>
<text text-anchor="start" x="589" y="-1103.9" font-family="Arial" font-size="14.00" fill="#000000">request_time    </text>
<text text-anchor="start" x="704.1094" y="-1103.9" font-family="Arial" font-size="14.00" fill="#666666">[timestamp with time zone]</text>
<polygon fill="none" stroke="#000000" points="582,-1062.5 582,-1092.5 905,-1092.5 905,-1062.5 582,-1062.5"/>
<text text-anchor="start" x="589" y="-1073.9" font-family="Arial" font-size="14.00" fill="#000000">capture_time    </text>
<text text-anchor="start" x="704.1094" y="-1073.9" font-family="Arial" font-size="14.00" fill="#666666">[timestamp with time zone]</text>
<polygon fill="none" stroke="#000000" points="582,-1032.5 582,-1062.5 905,-1062.5 905,-1032.5 582,-1032.5"/>
<text text-anchor="start" x="589" y="-1043.9" font-family="Arial" font-size="14.00" fill="#000000">fulfillment_time    </text>
<text text-anchor="start" x="716.5344" y="-1043.9" font-family="Arial" font-size="14.00" fill="#666666">[timestamp with time zone]</text>
<polygon fill="none" stroke="#000000" points="582,-1002.5 582,-1032.5 905,-1032.5 905,-1002.5 582,-1002.5"/>
<text text-anchor="start" x="589" y="-1013.9" font-family="Arial" font-size="14.00" fill="#000000">checkin_time    </text>
<text text-anchor="start" x="704.8822" y="-1013.9" font-family="Arial" font-size="14.00" fill="#666666">[timestamp with time zone]</text>
<polygon fill="none" stroke="#000000" points="582,-972.5 582,-1002.5 905,-1002.5 905,-972.5 582,-972.5"/>
<text text-anchor="start" x="589" y="-983.9" font-family="Arial" font-size="14.00" fill="#000000">return_time    </text>
<text text-anchor="start" x="693.9874" y="-983.9" font-family="Arial" font-size="14.00" fill="#666666">[timestamp with time zone]</text>
<polygon fill="none" stroke="#000000" points="582,-942.5 582,-972.5 905,-972.5 905,-942.5 582,-942.5"/>
<text text-anchor="start" x="589" y="-953.9" font-family="Arial" font-size="14.00" fill="#000000">prev_check_time    </text>
<text text-anchor="start" x="729.0014" y="-953.9" font-family="Arial" font-size="14.00" fill="#666666">[timestamp with time zone]</text>
<polygon fill="none" stroke="#000000" points="582,-912.5 582,-942.5 905,-942.5 905,-912.5 582,-912.5"/>
<text text-anchor="start" x="589" y="-923.9" font-family="Arial" font-size="14.00" fill="#000000">expire_time    </text>
<text text-anchor="start" x="695.5428" y="-923.9" font-family="Arial" font-size="14.00" fill="#666666">[timestamp with time zone]</text>
<polygon fill="none" stroke="#000000" points="582,-882.5 582,-912.5 905,-912.5 905,-882.5 582,-882.5"/>
<text text-anchor="start" x="589" y="-893.9" font-family="Arial" font-size="14.00" fill="#000000">cancel_time    </text>
<text text-anchor="start" x="697.8822" y="-893.9" font-family="Arial" font-size="14.00" fill="#666666">[timestamp with time zone]</text>
<polygon fill="none" stroke="#000000" points="582,-852.5 582,-882.5 905,-882.5 905,-852.5 582,-852.5"/>
<text text-anchor="start" x="589" y="-863.9" font-family="Arial" font-size="14.00" fill="#000000">cancel_cause    </text>
<text text-anchor="start" x="708.7896" y="-863.9" font-family="Arial" font-size="14.00" fill="#666666">[integer]</text>
<polygon fill="none" stroke="#000000" points="582,-822.5 582,-852.5 905,-852.5 905,-822.5 582,-822.5"/>
<text text-anchor="start" x="589" y="-833.9" font-family="Arial" font-size="14.00" fill="#000000">cancel_note    </text>
<text text-anchor="start" x="698.6802" y="-833.9" font-family="Arial" font-size="14.00" fill="#666666">[text]</text>
<polygon fill="none" stroke="#000000" points="582,-792.5 582,-822.5 905,-822.5 905,-792.5 582,-792.5"/>
<text text-anchor="start" x="589" y="-803.9" font-family="Arial" font-size="14.00" fill="#000000">target    </text>
<text text-anchor="start" x="658.9944" y="-803.9" font-family="Arial" font-size="14.00" fill="#666666">[bigint]</text>
<polygon fill="none" stroke="#000000" points="582,-762.5 582,-792.5 905,-792.5 905,-762.5 582,-762.5"/>
<text text-anchor="start" x="589" y="-773.9" font-family="Arial" font-size="14.00" fill="#000000">current_copy    </text>
<text text-anchor="start" x="704.1122" y="-773.9" font-family="Arial" font-size="14.00" fill="#666666">[bigint]</text>
<polygon fill="none" stroke="#000000" points="582,-732.5 582,-762.5 905,-762.5 905,-732.5 582,-732.5"/>
<text text-anchor="start" x="589" y="-743.9" font-family="Arial" font-size="14.00" fill="#000000">fulfillment_staff    </text>
<text text-anchor="start" x="716.5484" y="-743.9" font-family="Arial" font-size="14.00" fill="#666666">[integer]</text>
<polygon fill="none" stroke="#000000" points="582,-702.5 582,-732.5 905,-732.5 905,-702.5 582,-702.5"/>
<text text-anchor="start" x="589" y="-713.9" font-family="Arial" font-size="14.00" fill="#000000">fulfillment_lib    </text>
<text text-anchor="start" x="704.0898" y="-713.9" font-family="Arial" font-size="14.00" fill="#666666">[integer]</text>
<polygon fill="none" stroke="#000000" points="582,-672.5 582,-702.5 905,-702.5 905,-672.5 582,-672.5"/>
<text text-anchor="start" x="589" y="-683.9" font-family="Arial" font-size="14.00" fill="#000000">request_lib    </text>
<text text-anchor="start" x="691.6648" y="-683.9" font-family="Arial" font-size="14.00" fill="#666666">[integer]</text>
<polygon fill="none" stroke="#000000" points="582,-642.5 582,-672.5 905,-672.5 905,-642.5 582,-642.5"/>
<text text-anchor="start" x="589" y="-653.9" font-family="Arial" font-size="14.00" fill="#000000">requestor    </text>
<text text-anchor="start" x="682.3296" y="-653.9" font-family="Arial" font-size="14.00" fill="#666666">[integer]</text>
<polygon fill="none" stroke="#000000" points="582,-612.5 582,-642.5 905,-642.5 905,-612.5 582,-612.5"/>
<text text-anchor="start" x="589" y="-623.9" font-family="Arial" font-size="14.00" fill="#000000">usr    </text>
<text text-anchor="start" x="642.648" y="-623.9" font-family="Arial" font-size="14.00" fill="#666666">[integer]</text>
<polygon fill="none" stroke="#000000" points="582,-582.5 582,-612.5 905,-612.5 905,-582.5 582,-582.5"/>
<text text-anchor="start" x="589" y="-593.9" font-family="Arial" font-size="14.00" fill="#000000">selection_ou    </text>
<text text-anchor="start" x="701.7868" y="-593.9" font-family="Arial" font-size="14.00" fill="#666666">[integer]</text>
<polygon fill="none" stroke="#000000" points="582,-552.5 582,-582.5 905,-582.5 905,-552.5 582,-552.5"/>
<text text-anchor="start" x="589" y="-563.9" font-family="Arial" font-size="14.00" fill="#000000">selection_depth    </text>
<text text-anchor="start" x="721.2426" y="-563.9" font-family="Arial" font-size="14.00" fill="#666666">[integer]</text>
<polygon fill="none" stroke="#000000" points="582,-522.5 582,-552.5 905,-552.5 905,-522.5 582,-522.5"/>
<text text-anchor="start" x="589" y="-533.9" font-family="Arial" font-size="14.00" fill="#000000">pickup_lib    </text>
<text text-anchor="start" x="685.4376" y="-533.9" font-family="Arial" font-size="14.00" fill="#666666">[integer]</text>
<polygon fill="none" stroke="#000000" points="582,-492.5 582,-522.5 905,-522.5 905,-492.5 582,-492.5"/>
<text text-anchor="start" x="589" y="-503.9" font-family="Arial" font-size="14.00" fill="#000000">hold_type    </text>
<text text-anchor="start" x="683.8976" y="-503.9" font-family="Arial" font-size="14.00" fill="#666666">[text]</text>
<polygon fill="none" stroke="#000000" points="582,-462.5 582,-492.5 905,-492.5 905,-462.5 582,-462.5"/>
<text text-anchor="start" x="589" y="-473.9" font-family="Arial" font-size="14.00" fill="#000000">holdable_formats    </text>
<text text-anchor="start" x="730.5638" y="-473.9" font-family="Arial" font-size="14.00" fill="#666666">[text]</text>
<polygon fill="none" stroke="#000000" points="582,-432.5 582,-462.5 905,-462.5 905,-432.5 582,-432.5"/>
<text text-anchor="start" x="589" y="-443.9" font-family="Arial" font-size="14.00" fill="#000000">phone_notify    </text>
<text text-anchor="start" x="703.3534" y="-443.9" font-family="Arial" font-size="14.00" fill="#666666">[text]</text>
<polygon fill="none" stroke="#000000" points="582,-402.5 582,-432.5 905,-432.5 905,-402.5 582,-402.5"/>
<text text-anchor="start" x="589" y="-413.9" font-family="Arial" font-size="14.00" fill="#000000">email_notify    </text>
<text text-anchor="start" x="697.8794" y="-413.9" font-family="Arial" font-size="14.00" fill="#666666">[boolean]</text>
<polygon fill="none" stroke="#000000" points="582,-372.5 582,-402.5 905,-402.5 905,-372.5 582,-372.5"/>
<text text-anchor="start" x="589" y="-383.9" font-family="Arial" font-size="14.00" fill="#000000">sms_notify    </text>
<text text-anchor="start" x="690.101" y="-383.9" font-family="Arial" font-size="14.00" fill="#666666">[text]</text>
<polygon fill="none" stroke="#000000" points="582,-342.5 582,-372.5 905,-372.5 905,-342.5 582,-342.5"/>
<text text-anchor="start" x="589" y="-353.9" font-family="Arial" font-size="14.00" fill="#000000">sms_carrier    </text>
<text text-anchor="start" x="696.3016" y="-353.9" font-family="Arial" font-size="14.00" fill="#666666">[integer]</text>
<polygon fill="none" stroke="#000000" points="582,-312.5 582,-342.5 905,-342.5 905,-312.5 582,-312.5"/>
<text text-anchor="start" x="589" y="-323.9" font-family="Arial" font-size="14.00" fill="#000000">frozen    </text>
<text text-anchor="start" x="662.1038" y="-323.9" font-family="Arial" font-size="14.00" fill="#666666">[boolean]</text>
<polygon fill="none" stroke="#000000" points="582,-282.5 582,-312.5 905,-312.5 905,-282.5 582,-282.5"/>
<text text-anchor="start" x="589" y="-293.9" font-family="Arial" font-size="14.00" fill="#000000">thaw_date    </text>
<text text-anchor="start" x="687.7882" y="-293.9" font-family="Arial" font-size="14.00" fill="#666666">[timestamp with time zone]</text>
<polygon fill="none" stroke="#000000" points="582,-252.5 582,-282.5 905,-282.5 905,-252.5 582,-252.5"/>
<text text-anchor="start" x="589" y="-263.9" font-family="Arial" font-size="14.00" fill="#000000">shelf_time    </text>
<text text-anchor="start" x="686.9902" y="-263.9" font-family="Arial" font-size="14.00" fill="#666666">[timestamp with time zone]</text>
<polygon fill="none" stroke="#000000" points="582,-222.5 582,-252.5 905,-252.5 905,-222.5 582,-222.5"/>
<text text-anchor="start" x="589" y="-233.9" font-family="Arial" font-size="14.00" fill="#000000">cut_in_line    </text>
<text text-anchor="start" x="690.1108" y="-233.9" font-family="Arial" font-size="14.00" fill="#666666">[boolean]</text>
<polygon fill="none" stroke="#000000" points="582,-192.5 582,-222.5 905,-222.5 905,-192.5 582,-192.5"/>
<text text-anchor="start" x="589" y="-203.9" font-family="Arial" font-size="14.00" fill="#000000">mint_condition    </text>
<text text-anchor="start" x="713.4446" y="-203.9" font-family="Arial" font-size="14.00" fill="#666666">[boolean]</text>
<polygon fill="none" stroke="#000000" points="582,-162.5 582,-192.5 905,-192.5 905,-162.5 582,-162.5"/>
<text text-anchor="start" x="588.7139" y="-173.9" font-family="Arial" font-size="14.00" fill="#000000">shelf_expire_time    </text>
<text text-anchor="start" x="732.6017" y="-173.9" font-family="Arial" font-size="14.00" fill="#666666">[timestamp with time zone]</text>
<polygon fill="none" stroke="#000000" points="582,-132.5 582,-162.5 905,-162.5 905,-132.5 582,-132.5"/>
<text text-anchor="start" x="589" y="-143.9" font-family="Arial" font-size="14.00" fill="#000000">current_shelf_lib    </text>
<text text-anchor="start" x="725.8878" y="-143.9" font-family="Arial" font-size="14.00" fill="#666666">[integer]</text>
<polygon fill="none" stroke="#000000" points="582,-102.5 582,-132.5 905,-132.5 905,-102.5 582,-102.5"/>
<text text-anchor="start" x="589" y="-113.9" font-family="Arial" font-size="14.00" fill="#000000">behind_desk    </text>
<text text-anchor="start" x="702.5722" y="-113.9" font-family="Arial" font-size="14.00" fill="#666666">[boolean]</text>
<polygon fill="none" stroke="#000000" points="582,-72.5 582,-102.5 905,-102.5 905,-72.5 582,-72.5"/>
<text text-anchor="start" x="589" y="-83.9" font-family="Arial" font-size="14.00" fill="#000000">acq_request    </text>
<text text-anchor="start" x="700.2342" y="-83.9" font-family="Arial" font-size="14.00" fill="#666666">[integer]</text>
<polygon fill="none" stroke="#000000" points="582,-42.5 582,-72.5 905,-72.5 905,-42.5 582,-42.5"/>
<text text-anchor="start" x="589" y="-53.9" font-family="Arial" font-size="14.00" fill="#000000">hopeless_date    </text>
<text text-anchor="start" x="714.2454" y="-53.9" font-family="Arial" font-size="14.00" fill="#666666">[timestamp with time zone]</text>
</g>
<!-- action.hold_request_note&#45;&gt;action.hold_request -->
<g id="edge1" class="edge">
<title>action.hold_request_note:hold&#45;&gt;action.hold_request:id</title>
<path fill="none" stroke="#000000" d="M561.9325,-1475.3288C497.4934,-1446.3721 509.955,-1137.5 582,-1137.5"/>
<polygon fill="#000000" stroke="#000000" points="562.2247,-1475.3918 571.0513,-1481.8989 567.1124,-1476.4459 572,-1477.5 572,-1477.5 572,-1477.5 567.1124,-1476.4459 572.9487,-1473.1011 562.2247,-1475.3918 562.2247,-1475.3918"/>
<text text-anchor="start" x="6.5345" y="-1487.5" font-family="Arial" font-size="10.00" fill="#000000">FOREIGN KEY (hold) REFERENCES action.hold_request(id) ON DELETE CASCADE DEFERRABLE INITIALLY DEFERRED</text>
</g>
</g>
</svg>
