<?xml version="1.0" encoding="UTF-8" standalone="no"?>
<!DOCTYPE svg PUBLIC "-//W3C//DTD SVG 1.1//EN"
 "http://www.w3.org/Graphics/SVG/1.1/DTD/svg11.dtd">
<!-- Generated by graphviz version 2.40.1 (20161225.0304)
 -->
<!-- Title: action_trigger.event_def_group_member Pages: 1 -->
<svg width="1962pt" height="1192pt"
 viewBox="0.00 0.00 1962.00 1192.00" xmlns="http://www.w3.org/2000/svg" xmlns:xlink="http://www.w3.org/1999/xlink">
<g id="graph0" class="graph" transform="scale(1 1) rotate(0) translate(4 1188)">
<title>action_trigger.event_def_group_member</title>
<polygon fill="#ffffff" stroke="transparent" points="-4,4 -4,-1188 1958,-1188 1958,4 -4,4"/>
<!-- action_trigger.event_def_group_member -->
<g id="node1" class="node">
<title>action_trigger.event_def_group_member</title>
<polygon fill="#efefef" stroke="transparent" points="731,-1102.5 731,-1137.5 1197,-1137.5 1197,-1102.5 731,-1102.5"/>
<polygon fill="none" stroke="#000000" points="731,-1102.5 731,-1137.5 1197,-1137.5 1197,-1102.5 731,-1102.5"/>
<text text-anchor="start" x="737.6715" y="-1115.3" font-family="Arial Bold" font-size="18.00" fill="#000000">action_trigger.event_def_group_member</text>
<text text-anchor="start" x="1062.7605" y="-1115.3" font-family="Arial" font-size="14.00" fill="#000000">    </text>
<text text-anchor="start" x="1096.9653" y="-1115.3" font-family="Arial" font-size="14.00" fill="#666666">[BASE TABLE]</text>
<polygon fill="none" stroke="#000000" points="731,-1072.5 731,-1102.5 1197,-1102.5 1197,-1072.5 731,-1072.5"/>
<text text-anchor="start" x="738" y="-1083.9" font-family="Arial" font-size="14.00" fill="#000000">id </text>
<text text-anchor="start" x="752.7798" y="-1083.9" font-family="Arial" font-size="14.00" fill="#666666">[integer]</text>
<polygon fill="none" stroke="#000000" points="731,-1042.5 731,-1072.5 1197,-1072.5 1197,-1042.5 731,-1042.5"/>
<text text-anchor="start" x="738" y="-1053.9" font-family="Arial" font-size="14.00" fill="#000000">grp </text>
<text text-anchor="start" x="762.1164" y="-1053.9" font-family="Arial" font-size="14.00" fill="#666666">[integer]</text>
<polygon fill="none" stroke="#000000" points="731,-1012.5 731,-1042.5 1197,-1042.5 1197,-1012.5 731,-1012.5"/>
<text text-anchor="start" x="738" y="-1023.9" font-family="Arial" font-size="14.00" fill="#000000">event_def </text>
<text text-anchor="start" x="803.3674" y="-1023.9" font-family="Arial" font-size="14.00" fill="#666666">[integer]</text>
<polygon fill="none" stroke="#000000" points="731,-982.5 731,-1012.5 1197,-1012.5 1197,-982.5 731,-982.5"/>
<text text-anchor="start" x="738" y="-993.9" font-family="Arial" font-size="14.00" fill="#000000">sortable </text>
<text text-anchor="start" x="791.6788" y="-993.9" font-family="Arial" font-size="14.00" fill="#666666">[boolean]</text>
<polygon fill="none" stroke="#000000" points="731,-952.5 731,-982.5 1197,-982.5 1197,-952.5 731,-952.5"/>
<text text-anchor="start" x="738" y="-963.9" font-family="Arial" font-size="14.00" fill="#000000">holdings </text>
<text text-anchor="start" x="794.0168" y="-963.9" font-family="Arial" font-size="14.00" fill="#666666">[boolean]</text>
<polygon fill="none" stroke="#000000" points="731,-922.5 731,-952.5 1197,-952.5 1197,-922.5 731,-922.5"/>
<text text-anchor="start" x="738" y="-933.9" font-family="Arial" font-size="14.00" fill="#000000">external </text>
<text text-anchor="start" x="791.6788" y="-933.9" font-family="Arial" font-size="14.00" fill="#666666">[boolean]</text>
<polygon fill="none" stroke="#000000" points="731,-892.5 731,-922.5 1197,-922.5 1197,-892.5 731,-892.5"/>
<text text-anchor="start" x="738" y="-903.9" font-family="Arial" font-size="14.00" fill="#000000">name </text>
<text text-anchor="start" x="776.899" y="-903.9" font-family="Arial" font-size="14.00" fill="#666666">[text]</text>
<polygon fill="none" stroke="#000000" stroke-width="3" points="729.5,-891.5 729.5,-1139.5 1198.5,-1139.5 1198.5,-891.5 729.5,-891.5"/>
</g>
<!-- action_trigger.event_def_group -->
<g id="node2" class="node">
<title>action_trigger.event_def_group</title>
<polygon fill="#efefef" stroke="transparent" points="524,-462.5 524,-497.5 914,-497.5 914,-462.5 524,-462.5"/>
<polygon fill="none" stroke="#000000" points="524,-462.5 524,-497.5 914,-497.5 914,-462.5 524,-462.5"/>
<text text-anchor="start" x="530.6722" y="-475.3" font-family="Arial Bold" font-size="18.00" fill="#000000">action_trigger.event_def_group</text>
<text text-anchor="start" x="779.7598" y="-475.3" font-family="Arial" font-size="14.00" fill="#000000">    </text>
<text text-anchor="start" x="813.9646" y="-475.3" font-family="Arial" font-size="14.00" fill="#666666">[BASE TABLE]</text>
<polygon fill="none" stroke="#000000" points="524,-432.5 524,-462.5 914,-462.5 914,-432.5 524,-432.5"/>
<text text-anchor="start" x="531" y="-443.9" font-family="Arial" font-size="14.00" fill="#000000">id    </text>
<text text-anchor="start" x="576.094" y="-443.9" font-family="Arial" font-size="14.00" fill="#666666">[integer]</text>
<polygon fill="none" stroke="#000000" points="524,-402.5 524,-432.5 914,-432.5 914,-402.5 524,-402.5"/>
<text text-anchor="start" x="531" y="-413.9" font-family="Arial" font-size="14.00" fill="#000000">owner    </text>
<text text-anchor="start" x="603.3198" y="-413.9" font-family="Arial" font-size="14.00" fill="#666666">[integer]</text>
<polygon fill="none" stroke="#000000" points="524,-372.5 524,-402.5 914,-402.5 914,-372.5 524,-372.5"/>
<text text-anchor="start" x="531" y="-383.9" font-family="Arial" font-size="14.00" fill="#000000">hook    </text>
<text text-anchor="start" x="595.5526" y="-383.9" font-family="Arial" font-size="14.00" fill="#666666">[text]</text>
<polygon fill="none" stroke="#000000" points="524,-342.5 524,-372.5 914,-372.5 914,-342.5 524,-342.5"/>
<text text-anchor="start" x="531" y="-353.9" font-family="Arial" font-size="14.00" fill="#000000">active    </text>
<text text-anchor="start" x="601.7672" y="-353.9" font-family="Arial" font-size="14.00" fill="#666666">[boolean]</text>
<polygon fill="none" stroke="#000000" points="524,-312.5 524,-342.5 914,-342.5 914,-312.5 524,-312.5"/>
<text text-anchor="start" x="531" y="-323.9" font-family="Arial" font-size="14.00" fill="#000000">name    </text>
<text text-anchor="start" x="600.2132" y="-323.9" font-family="Arial" font-size="14.00" fill="#666666">[text]</text>
</g>
<!-- action_trigger.event_def_group_member&#45;&gt;action_trigger.event_def_group -->
<g id="edge1" class="edge">
<title>action_trigger.event_def_group_member:grp&#45;&gt;action_trigger.event_def_group:id</title>
<path fill="none" stroke="#000000" d="M720.7667,-1056.9582C642.7408,-1048.1459 707.0649,-933.6563 731,-847 773.1894,-694.2546 871.8106,-693.7454 914,-541 925.0637,-500.9443 955.5556,-447.5 914,-447.5"/>
<polygon fill="#000000" stroke="#000000" points="721.014,-1056.9712 730.762,-1061.9937 726.007,-1057.2356 731,-1057.5 731,-1057.5 731,-1057.5 726.007,-1057.2356 731.238,-1053.0063 721.014,-1056.9712 721.014,-1056.9712"/>
<text text-anchor="start" x="7.0835" y="-1067.5" font-family="Arial" font-size="10.00" fill="#000000">FOREIGN KEY (grp) REFERENCES action_trigger.event_def_group(id) ON UPDATE CASCADE ON DELETE CASCADE DEFERRABLE INITIALLY DEFERRED</text>
</g>
<!-- action_trigger.event_definition -->
<g id="node3" class="node">
<title>action_trigger.event_definition</title>
<polygon fill="#efefef" stroke="transparent" points="1019,-732.5 1019,-767.5 1400,-767.5 1400,-732.5 1019,-732.5"/>
<polygon fill="none" stroke="#000000" points="1019,-732.5 1019,-767.5 1400,-767.5 1400,-732.5 1019,-732.5"/>
<text text-anchor="start" x="1025.6821" y="-745.3" font-family="Arial Bold" font-size="18.00" fill="#000000">action_trigger.event_definition</text>
<text text-anchor="start" x="1265.7499" y="-745.3" font-family="Arial" font-size="14.00" fill="#000000">    </text>
<text text-anchor="start" x="1299.9547" y="-745.3" font-family="Arial" font-size="14.00" fill="#666666">[BASE TABLE]</text>
<polygon fill="none" stroke="#000000" points="1019,-702.5 1019,-732.5 1400,-732.5 1400,-702.5 1019,-702.5"/>
<text text-anchor="start" x="1026" y="-713.9" font-family="Arial" font-size="14.00" fill="#000000">id    </text>
<text text-anchor="start" x="1071.094" y="-713.9" font-family="Arial" font-size="14.00" fill="#666666">[integer]</text>
<polygon fill="none" stroke="#000000" points="1019,-672.5 1019,-702.5 1400,-702.5 1400,-672.5 1019,-672.5"/>
<text text-anchor="start" x="1026" y="-683.9" font-family="Arial" font-size="14.00" fill="#000000">active    </text>
<text text-anchor="start" x="1096.7672" y="-683.9" font-family="Arial" font-size="14.00" fill="#666666">[boolean]</text>
<polygon fill="none" stroke="#000000" points="1019,-642.5 1019,-672.5 1400,-672.5 1400,-642.5 1019,-642.5"/>
<text text-anchor="start" x="1026" y="-653.9" font-family="Arial" font-size="14.00" fill="#000000">owner    </text>
<text text-anchor="start" x="1098.3198" y="-653.9" font-family="Arial" font-size="14.00" fill="#666666">[integer]</text>
<polygon fill="none" stroke="#000000" points="1019,-612.5 1019,-642.5 1400,-642.5 1400,-612.5 1019,-612.5"/>
<text text-anchor="start" x="1026" y="-623.9" font-family="Arial" font-size="14.00" fill="#000000">name    </text>
<text text-anchor="start" x="1095.2132" y="-623.9" font-family="Arial" font-size="14.00" fill="#666666">[text]</text>
<polygon fill="none" stroke="#000000" points="1019,-582.5 1019,-612.5 1400,-612.5 1400,-582.5 1019,-582.5"/>
<text text-anchor="start" x="1026" y="-593.9" font-family="Arial" font-size="14.00" fill="#000000">hook    </text>
<text text-anchor="start" x="1090.5526" y="-593.9" font-family="Arial" font-size="14.00" fill="#666666">[text]</text>
<polygon fill="none" stroke="#000000" points="1019,-552.5 1019,-582.5 1400,-582.5 1400,-552.5 1019,-552.5"/>
<text text-anchor="start" x="1026" y="-563.9" font-family="Arial" font-size="14.00" fill="#000000">validator    </text>
<text text-anchor="start" x="1113.0996" y="-563.9" font-family="Arial" font-size="14.00" fill="#666666">[text]</text>
<polygon fill="none" stroke="#000000" points="1019,-522.5 1019,-552.5 1400,-552.5 1400,-522.5 1019,-522.5"/>
<text text-anchor="start" x="1026" y="-533.9" font-family="Arial" font-size="14.00" fill="#000000">reactor    </text>
<text text-anchor="start" x="1103.7644" y="-533.9" font-family="Arial" font-size="14.00" fill="#666666">[text]</text>
<polygon fill="none" stroke="#000000" points="1019,-492.5 1019,-522.5 1400,-522.5 1400,-492.5 1019,-492.5"/>
<text text-anchor="start" x="1026" y="-503.9" font-family="Arial" font-size="14.00" fill="#000000">cleanup_success    </text>
<text text-anchor="start" x="1167.5722" y="-503.9" font-family="Arial" font-size="14.00" fill="#666666">[text]</text>
<polygon fill="none" stroke="#000000" points="1019,-462.5 1019,-492.5 1400,-492.5 1400,-462.5 1019,-462.5"/>
<text text-anchor="start" x="1026" y="-473.9" font-family="Arial" font-size="14.00" fill="#000000">cleanup_failure    </text>
<text text-anchor="start" x="1155.1192" y="-473.9" font-family="Arial" font-size="14.00" fill="#666666">[text]</text>
<polygon fill="none" stroke="#000000" points="1019,-432.5 1019,-462.5 1400,-462.5 1400,-432.5 1019,-432.5"/>
<text text-anchor="start" x="1026" y="-443.9" font-family="Arial" font-size="14.00" fill="#000000">delay    </text>
<text text-anchor="start" x="1093.6592" y="-443.9" font-family="Arial" font-size="14.00" fill="#666666">[interval]</text>
<polygon fill="none" stroke="#000000" points="1019,-402.5 1019,-432.5 1400,-432.5 1400,-402.5 1019,-402.5"/>
<text text-anchor="start" x="1026" y="-413.9" font-family="Arial" font-size="14.00" fill="#000000">max_delay    </text>
<text text-anchor="start" x="1127.885" y="-413.9" font-family="Arial" font-size="14.00" fill="#666666">[interval]</text>
<polygon fill="none" stroke="#000000" points="1019,-372.5 1019,-402.5 1400,-402.5 1400,-372.5 1019,-372.5"/>
<text text-anchor="start" x="1026" y="-383.9" font-family="Arial" font-size="14.00" fill="#000000">repeat_delay    </text>
<text text-anchor="start" x="1141.1234" y="-383.9" font-family="Arial" font-size="14.00" fill="#666666">[interval]</text>
<polygon fill="none" stroke="#000000" points="1019,-342.5 1019,-372.5 1400,-372.5 1400,-342.5 1019,-342.5"/>
<text text-anchor="start" x="1026" y="-353.9" font-family="Arial" font-size="14.00" fill="#000000">usr_field    </text>
<text text-anchor="start" x="1113.0996" y="-353.9" font-family="Arial" font-size="14.00" fill="#666666">[text]</text>
<polygon fill="none" stroke="#000000" points="1019,-312.5 1019,-342.5 1400,-342.5 1400,-312.5 1019,-312.5"/>
<text text-anchor="start" x="1026" y="-323.9" font-family="Arial" font-size="14.00" fill="#000000">opt_in_setting    </text>
<text text-anchor="start" x="1147.3506" y="-323.9" font-family="Arial" font-size="14.00" fill="#666666">[text]</text>
<polygon fill="none" stroke="#000000" points="1019,-282.5 1019,-312.5 1400,-312.5 1400,-282.5 1019,-282.5"/>
<text text-anchor="start" x="1026" y="-293.9" font-family="Arial" font-size="14.00" fill="#000000">delay_field    </text>
<text text-anchor="start" x="1127.1108" y="-293.9" font-family="Arial" font-size="14.00" fill="#666666">[text]</text>
<polygon fill="none" stroke="#000000" points="1019,-252.5 1019,-282.5 1400,-282.5 1400,-252.5 1019,-252.5"/>
<text text-anchor="start" x="1026" y="-263.9" font-family="Arial" font-size="14.00" fill="#000000">group_field    </text>
<text text-anchor="start" x="1129.4474" y="-263.9" font-family="Arial" font-size="14.00" fill="#666666">[text]</text>
<polygon fill="none" stroke="#000000" points="1019,-222.5 1019,-252.5 1400,-252.5 1400,-222.5 1019,-222.5"/>
<text text-anchor="start" x="1026" y="-233.9" font-family="Arial" font-size="14.00" fill="#000000">template    </text>
<text text-anchor="start" x="1113.8836" y="-233.9" font-family="Arial" font-size="14.00" fill="#666666">[text]</text>
<polygon fill="none" stroke="#000000" points="1019,-192.5 1019,-222.5 1400,-222.5 1400,-192.5 1019,-192.5"/>
<text text-anchor="start" x="1026" y="-203.9" font-family="Arial" font-size="14.00" fill="#000000">granularity    </text>
<text text-anchor="start" x="1125.5428" y="-203.9" font-family="Arial" font-size="14.00" fill="#666666">[text]</text>
<polygon fill="none" stroke="#000000" points="1019,-162.5 1019,-192.5 1400,-192.5 1400,-162.5 1019,-162.5"/>
<text text-anchor="start" x="1026" y="-173.9" font-family="Arial" font-size="14.00" fill="#000000">message_template    </text>
<text text-anchor="start" x="1178.4572" y="-173.9" font-family="Arial" font-size="14.00" fill="#666666">[text]</text>
<polygon fill="none" stroke="#000000" points="1019,-132.5 1019,-162.5 1400,-162.5 1400,-132.5 1019,-132.5"/>
<text text-anchor="start" x="1026" y="-143.9" font-family="Arial" font-size="14.00" fill="#000000">message_usr_path    </text>
<text text-anchor="start" x="1179.2426" y="-143.9" font-family="Arial" font-size="14.00" fill="#666666">[text]</text>
<polygon fill="none" stroke="#000000" points="1019,-102.5 1019,-132.5 1400,-132.5 1400,-102.5 1019,-102.5"/>
<text text-anchor="start" x="1026" y="-113.9" font-family="Arial" font-size="14.00" fill="#000000">message_library_path    </text>
<text text-anchor="start" x="1197.899" y="-113.9" font-family="Arial" font-size="14.00" fill="#666666">[text]</text>
<polygon fill="none" stroke="#000000" points="1019,-72.5 1019,-102.5 1400,-102.5 1400,-72.5 1019,-72.5"/>
<text text-anchor="start" x="1026" y="-83.9" font-family="Arial" font-size="14.00" fill="#000000">message_title    </text>
<text text-anchor="start" x="1146.5554" y="-83.9" font-family="Arial" font-size="14.00" fill="#666666">[text]</text>
<polygon fill="none" stroke="#000000" points="1019,-42.5 1019,-72.5 1400,-72.5 1400,-42.5 1019,-42.5"/>
<text text-anchor="start" x="1026" y="-53.9" font-family="Arial" font-size="14.00" fill="#000000">retention_interval    </text>
<text text-anchor="start" x="1167.561" y="-53.9" font-family="Arial" font-size="14.00" fill="#666666">[interval]</text>
</g>
<!-- action_trigger.event_def_group_member&#45;&gt;action_trigger.event_definition -->
<g id="edge2" class="edge">
<title>action_trigger.event_def_group_member:event_def&#45;&gt;action_trigger.event_definition:id</title>
<path fill="none" stroke="#000000" d="M1207.1554,-1026.799C1274.5351,-1016.9756 1245.5113,-906.3047 1197,-847 1145.8964,-784.5261 1070.1036,-873.4739 1019,-811 992.689,-778.8349 977.4444,-717.5 1019,-717.5"/>
<polygon fill="#000000" stroke="#000000" points="1206.9763,-1026.8113 1196.6901,-1023.0107 1201.9881,-1027.1556 1197,-1027.5 1197,-1027.5 1197,-1027.5 1201.9881,-1027.1556 1197.3099,-1031.9893 1206.9763,-1026.8113 1206.9763,-1026.8113"/>
<text text-anchor="start" x="1204.027" y="-1037.5" font-family="Arial" font-size="10.00" fill="#000000">FOREIGN KEY (event_def) REFERENCES action_trigger.event_definition(id) ON UPDATE CASCADE ON DELETE RESTRICT DEFERRABLE INITIALLY DEFERRED</text>
</g>
</g>
</svg>
