<?xml version="1.0" encoding="UTF-8" standalone="no"?>
<!DOCTYPE svg PUBLIC "-//W3C//DTD SVG 1.1//EN"
 "http://www.w3.org/Graphics/SVG/1.1/DTD/svg11.dtd">
<!-- Generated by graphviz version 2.40.1 (20161225.0304)
 -->
<!-- Title: action_trigger.hook Pages: 1 -->
<svg width="1232pt" height="1102pt"
 viewBox="0.00 0.00 1231.50 1102.00" xmlns="http://www.w3.org/2000/svg" xmlns:xlink="http://www.w3.org/1999/xlink">
<g id="graph0" class="graph" transform="scale(1 1) rotate(0) translate(4 1098)">
<title>action_trigger.hook</title>
<polygon fill="#ffffff" stroke="transparent" points="-4,4 -4,-1098 1227.5,-1098 1227.5,4 -4,4"/>
<!-- action_trigger.hook -->
<g id="node1" class="node">
<title>action_trigger.hook</title>
<polygon fill="#efefef" stroke="transparent" points="598,-165.5 598,-200.5 892,-200.5 892,-165.5 598,-165.5"/>
<polygon fill="none" stroke="#000000" points="598,-165.5 598,-200.5 892,-200.5 892,-165.5 598,-165.5"/>
<text text-anchor="start" x="604.6953" y="-178.3" font-family="Arial Bold" font-size="18.00" fill="#000000">action_trigger.hook</text>
<text text-anchor="start" x="757.7367" y="-178.3" font-family="Arial" font-size="14.00" fill="#000000">    </text>
<text text-anchor="start" x="791.9415" y="-178.3" font-family="Arial" font-size="14.00" fill="#666666">[BASE TABLE]</text>
<polygon fill="none" stroke="#000000" points="598,-135.5 598,-165.5 892,-165.5 892,-135.5 598,-135.5"/>
<text text-anchor="start" x="605" y="-146.9" font-family="Arial" font-size="14.00" fill="#000000">key </text>
<text text-anchor="start" x="630.6732" y="-146.9" font-family="Arial" font-size="14.00" fill="#666666">[text]</text>
<polygon fill="none" stroke="#000000" points="598,-105.5 598,-135.5 892,-135.5 892,-105.5 598,-105.5"/>
<text text-anchor="start" x="605" y="-116.9" font-family="Arial" font-size="14.00" fill="#000000">core_type </text>
<text text-anchor="start" x="670.3548" y="-116.9" font-family="Arial" font-size="14.00" fill="#666666">[text]</text>
<polygon fill="none" stroke="#000000" points="598,-75.5 598,-105.5 892,-105.5 892,-75.5 598,-75.5"/>
<text text-anchor="start" x="605" y="-86.9" font-family="Arial" font-size="14.00" fill="#000000">description </text>
<text text-anchor="start" x="676.568" y="-86.9" font-family="Arial" font-size="14.00" fill="#666666">[text]</text>
<polygon fill="none" stroke="#000000" points="598,-45.5 598,-75.5 892,-75.5 892,-45.5 598,-45.5"/>
<text text-anchor="start" x="605" y="-56.9" font-family="Arial" font-size="14.00" fill="#000000">passive </text>
<text text-anchor="start" x="656.345" y="-56.9" font-family="Arial" font-size="14.00" fill="#666666">[boolean]</text>
<polygon fill="none" stroke="#000000" stroke-width="3" points="596.5,-44.5 596.5,-202.5 893.5,-202.5 893.5,-44.5 596.5,-44.5"/>
</g>
<!-- action_trigger.event_def_group -->
<g id="node2" class="node">
<title>action_trigger.event_def_group</title>
<polygon fill="#efefef" stroke="transparent" points="305,-745.5 305,-780.5 695,-780.5 695,-745.5 305,-745.5"/>
<polygon fill="none" stroke="#000000" points="305,-745.5 305,-780.5 695,-780.5 695,-745.5 305,-745.5"/>
<text text-anchor="start" x="311.6722" y="-758.3" font-family="Arial Bold" font-size="18.00" fill="#000000">action_trigger.event_def_group</text>
<text text-anchor="start" x="560.7598" y="-758.3" font-family="Arial" font-size="14.00" fill="#000000">    </text>
<text text-anchor="start" x="594.9646" y="-758.3" font-family="Arial" font-size="14.00" fill="#666666">[BASE TABLE]</text>
<polygon fill="none" stroke="#000000" points="305,-715.5 305,-745.5 695,-745.5 695,-715.5 305,-715.5"/>
<text text-anchor="start" x="312" y="-726.9" font-family="Arial" font-size="14.00" fill="#000000">id    </text>
<text text-anchor="start" x="357.094" y="-726.9" font-family="Arial" font-size="14.00" fill="#666666">[integer]</text>
<polygon fill="none" stroke="#000000" points="305,-685.5 305,-715.5 695,-715.5 695,-685.5 305,-685.5"/>
<text text-anchor="start" x="312" y="-696.9" font-family="Arial" font-size="14.00" fill="#000000">owner    </text>
<text text-anchor="start" x="384.3198" y="-696.9" font-family="Arial" font-size="14.00" fill="#666666">[integer]</text>
<polygon fill="none" stroke="#000000" points="305,-655.5 305,-685.5 695,-685.5 695,-655.5 305,-655.5"/>
<text text-anchor="start" x="312" y="-666.9" font-family="Arial" font-size="14.00" fill="#000000">hook    </text>
<text text-anchor="start" x="376.5526" y="-666.9" font-family="Arial" font-size="14.00" fill="#666666">[text]</text>
<polygon fill="none" stroke="#000000" points="305,-625.5 305,-655.5 695,-655.5 695,-625.5 305,-625.5"/>
<text text-anchor="start" x="312" y="-636.9" font-family="Arial" font-size="14.00" fill="#000000">active    </text>
<text text-anchor="start" x="382.7672" y="-636.9" font-family="Arial" font-size="14.00" fill="#666666">[boolean]</text>
<polygon fill="none" stroke="#000000" points="305,-595.5 305,-625.5 695,-625.5 695,-595.5 305,-595.5"/>
<text text-anchor="start" x="312" y="-606.9" font-family="Arial" font-size="14.00" fill="#000000">name    </text>
<text text-anchor="start" x="381.2132" y="-606.9" font-family="Arial" font-size="14.00" fill="#666666">[text]</text>
</g>
<!-- action_trigger.event_def_group&#45;&gt;action_trigger.hook -->
<g id="edge1" class="edge">
<title>action_trigger.event_def_group:hook&#45;&gt;action_trigger.hook:key</title>
<path fill="none" stroke="#000000" d="M704.9937,-668.9147C791.6111,-637.5244 484.2394,-150.5 598,-150.5"/>
<polygon fill="#000000" stroke="#000000" points="704.8765,-668.9332 694.2949,-666.0556 699.9383,-669.7166 695,-670.5 695,-670.5 695,-670.5 699.9383,-669.7166 695.7051,-674.9444 704.8765,-668.9332 704.8765,-668.9332"/>
<text text-anchor="start" x="7.428" y="-680.5" font-family="Arial" font-size="10.00" fill="#000000">FOREIGN KEY (hook) REFERENCES action_trigger.hook(key) ON UPDATE CASCADE ON DELETE RESTRICT DEFERRABLE INITIALLY DEFERRED</text>
</g>
<!-- action_trigger.event_definition -->
<g id="node3" class="node">
<title>action_trigger.event_definition</title>
<polygon fill="#efefef" stroke="transparent" points="800,-1015.5 800,-1050.5 1181,-1050.5 1181,-1015.5 800,-1015.5"/>
<polygon fill="none" stroke="#000000" points="800,-1015.5 800,-1050.5 1181,-1050.5 1181,-1015.5 800,-1015.5"/>
<text text-anchor="start" x="806.6821" y="-1028.3" font-family="Arial Bold" font-size="18.00" fill="#000000">action_trigger.event_definition</text>
<text text-anchor="start" x="1046.7499" y="-1028.3" font-family="Arial" font-size="14.00" fill="#000000">    </text>
<text text-anchor="start" x="1080.9547" y="-1028.3" font-family="Arial" font-size="14.00" fill="#666666">[BASE TABLE]</text>
<polygon fill="none" stroke="#000000" points="800,-985.5 800,-1015.5 1181,-1015.5 1181,-985.5 800,-985.5"/>
<text text-anchor="start" x="807" y="-996.9" font-family="Arial" font-size="14.00" fill="#000000">id    </text>
<text text-anchor="start" x="852.094" y="-996.9" font-family="Arial" font-size="14.00" fill="#666666">[integer]</text>
<polygon fill="none" stroke="#000000" points="800,-955.5 800,-985.5 1181,-985.5 1181,-955.5 800,-955.5"/>
<text text-anchor="start" x="807" y="-966.9" font-family="Arial" font-size="14.00" fill="#000000">active    </text>
<text text-anchor="start" x="877.7672" y="-966.9" font-family="Arial" font-size="14.00" fill="#666666">[boolean]</text>
<polygon fill="none" stroke="#000000" points="800,-925.5 800,-955.5 1181,-955.5 1181,-925.5 800,-925.5"/>
<text text-anchor="start" x="807" y="-936.9" font-family="Arial" font-size="14.00" fill="#000000">owner    </text>
<text text-anchor="start" x="879.3198" y="-936.9" font-family="Arial" font-size="14.00" fill="#666666">[integer]</text>
<polygon fill="none" stroke="#000000" points="800,-895.5 800,-925.5 1181,-925.5 1181,-895.5 800,-895.5"/>
<text text-anchor="start" x="807" y="-906.9" font-family="Arial" font-size="14.00" fill="#000000">name    </text>
<text text-anchor="start" x="876.2132" y="-906.9" font-family="Arial" font-size="14.00" fill="#666666">[text]</text>
<polygon fill="none" stroke="#000000" points="800,-865.5 800,-895.5 1181,-895.5 1181,-865.5 800,-865.5"/>
<text text-anchor="start" x="807" y="-876.9" font-family="Arial" font-size="14.00" fill="#000000">hook    </text>
<text text-anchor="start" x="871.5526" y="-876.9" font-family="Arial" font-size="14.00" fill="#666666">[text]</text>
<polygon fill="none" stroke="#000000" points="800,-835.5 800,-865.5 1181,-865.5 1181,-835.5 800,-835.5"/>
<text text-anchor="start" x="807" y="-846.9" font-family="Arial" font-size="14.00" fill="#000000">validator    </text>
<text text-anchor="start" x="894.0996" y="-846.9" font-family="Arial" font-size="14.00" fill="#666666">[text]</text>
<polygon fill="none" stroke="#000000" points="800,-805.5 800,-835.5 1181,-835.5 1181,-805.5 800,-805.5"/>
<text text-anchor="start" x="807" y="-816.9" font-family="Arial" font-size="14.00" fill="#000000">reactor    </text>
<text text-anchor="start" x="884.7644" y="-816.9" font-family="Arial" font-size="14.00" fill="#666666">[text]</text>
<polygon fill="none" stroke="#000000" points="800,-775.5 800,-805.5 1181,-805.5 1181,-775.5 800,-775.5"/>
<text text-anchor="start" x="807" y="-786.9" font-family="Arial" font-size="14.00" fill="#000000">cleanup_success    </text>
<text text-anchor="start" x="948.5722" y="-786.9" font-family="Arial" font-size="14.00" fill="#666666">[text]</text>
<polygon fill="none" stroke="#000000" points="800,-745.5 800,-775.5 1181,-775.5 1181,-745.5 800,-745.5"/>
<text text-anchor="start" x="807" y="-756.9" font-family="Arial" font-size="14.00" fill="#000000">cleanup_failure    </text>
<text text-anchor="start" x="936.1192" y="-756.9" font-family="Arial" font-size="14.00" fill="#666666">[text]</text>
<polygon fill="none" stroke="#000000" points="800,-715.5 800,-745.5 1181,-745.5 1181,-715.5 800,-715.5"/>
<text text-anchor="start" x="807" y="-726.9" font-family="Arial" font-size="14.00" fill="#000000">delay    </text>
<text text-anchor="start" x="874.6592" y="-726.9" font-family="Arial" font-size="14.00" fill="#666666">[interval]</text>
<polygon fill="none" stroke="#000000" points="800,-685.5 800,-715.5 1181,-715.5 1181,-685.5 800,-685.5"/>
<text text-anchor="start" x="807" y="-696.9" font-family="Arial" font-size="14.00" fill="#000000">max_delay    </text>
<text text-anchor="start" x="908.885" y="-696.9" font-family="Arial" font-size="14.00" fill="#666666">[interval]</text>
<polygon fill="none" stroke="#000000" points="800,-655.5 800,-685.5 1181,-685.5 1181,-655.5 800,-655.5"/>
<text text-anchor="start" x="807" y="-666.9" font-family="Arial" font-size="14.00" fill="#000000">repeat_delay    </text>
<text text-anchor="start" x="922.1234" y="-666.9" font-family="Arial" font-size="14.00" fill="#666666">[interval]</text>
<polygon fill="none" stroke="#000000" points="800,-625.5 800,-655.5 1181,-655.5 1181,-625.5 800,-625.5"/>
<text text-anchor="start" x="807" y="-636.9" font-family="Arial" font-size="14.00" fill="#000000">usr_field    </text>
<text text-anchor="start" x="894.0996" y="-636.9" font-family="Arial" font-size="14.00" fill="#666666">[text]</text>
<polygon fill="none" stroke="#000000" points="800,-595.5 800,-625.5 1181,-625.5 1181,-595.5 800,-595.5"/>
<text text-anchor="start" x="807" y="-606.9" font-family="Arial" font-size="14.00" fill="#000000">opt_in_setting    </text>
<text text-anchor="start" x="928.3506" y="-606.9" font-family="Arial" font-size="14.00" fill="#666666">[text]</text>
<polygon fill="none" stroke="#000000" points="800,-565.5 800,-595.5 1181,-595.5 1181,-565.5 800,-565.5"/>
<text text-anchor="start" x="807" y="-576.9" font-family="Arial" font-size="14.00" fill="#000000">delay_field    </text>
<text text-anchor="start" x="908.1108" y="-576.9" font-family="Arial" font-size="14.00" fill="#666666">[text]</text>
<polygon fill="none" stroke="#000000" points="800,-535.5 800,-565.5 1181,-565.5 1181,-535.5 800,-535.5"/>
<text text-anchor="start" x="807" y="-546.9" font-family="Arial" font-size="14.00" fill="#000000">group_field    </text>
<text text-anchor="start" x="910.4474" y="-546.9" font-family="Arial" font-size="14.00" fill="#666666">[text]</text>
<polygon fill="none" stroke="#000000" points="800,-505.5 800,-535.5 1181,-535.5 1181,-505.5 800,-505.5"/>
<text text-anchor="start" x="807" y="-516.9" font-family="Arial" font-size="14.00" fill="#000000">template    </text>
<text text-anchor="start" x="894.8836" y="-516.9" font-family="Arial" font-size="14.00" fill="#666666">[text]</text>
<polygon fill="none" stroke="#000000" points="800,-475.5 800,-505.5 1181,-505.5 1181,-475.5 800,-475.5"/>
<text text-anchor="start" x="807" y="-486.9" font-family="Arial" font-size="14.00" fill="#000000">granularity    </text>
<text text-anchor="start" x="906.5428" y="-486.9" font-family="Arial" font-size="14.00" fill="#666666">[text]</text>
<polygon fill="none" stroke="#000000" points="800,-445.5 800,-475.5 1181,-475.5 1181,-445.5 800,-445.5"/>
<text text-anchor="start" x="807" y="-456.9" font-family="Arial" font-size="14.00" fill="#000000">message_template    </text>
<text text-anchor="start" x="959.4572" y="-456.9" font-family="Arial" font-size="14.00" fill="#666666">[text]</text>
<polygon fill="none" stroke="#000000" points="800,-415.5 800,-445.5 1181,-445.5 1181,-415.5 800,-415.5"/>
<text text-anchor="start" x="807" y="-426.9" font-family="Arial" font-size="14.00" fill="#000000">message_usr_path    </text>
<text text-anchor="start" x="960.2426" y="-426.9" font-family="Arial" font-size="14.00" fill="#666666">[text]</text>
<polygon fill="none" stroke="#000000" points="800,-385.5 800,-415.5 1181,-415.5 1181,-385.5 800,-385.5"/>
<text text-anchor="start" x="807" y="-396.9" font-family="Arial" font-size="14.00" fill="#000000">message_library_path    </text>
<text text-anchor="start" x="978.899" y="-396.9" font-family="Arial" font-size="14.00" fill="#666666">[text]</text>
<polygon fill="none" stroke="#000000" points="800,-355.5 800,-385.5 1181,-385.5 1181,-355.5 800,-355.5"/>
<text text-anchor="start" x="807" y="-366.9" font-family="Arial" font-size="14.00" fill="#000000">message_title    </text>
<text text-anchor="start" x="927.5554" y="-366.9" font-family="Arial" font-size="14.00" fill="#666666">[text]</text>
<polygon fill="none" stroke="#000000" points="800,-325.5 800,-355.5 1181,-355.5 1181,-325.5 800,-325.5"/>
<text text-anchor="start" x="807" y="-336.9" font-family="Arial" font-size="14.00" fill="#000000">retention_interval    </text>
<text text-anchor="start" x="948.561" y="-336.9" font-family="Arial" font-size="14.00" fill="#666666">[interval]</text>
</g>
<!-- action_trigger.event_definition&#45;&gt;action_trigger.hook -->
<g id="edge2" class="edge">
<title>action_trigger.event_definition:hook&#45;&gt;action_trigger.hook:key</title>
<path fill="none" stroke="#000000" d="M790.6124,-876.4368C736.5745,-826.6435 764.4746,-335.0496 800,-283 824.7525,-246.7341 867.2475,-283.2659 892,-247 916.1781,-211.5758 934.8889,-150.5 892,-150.5"/>
<polygon fill="#000000" stroke="#000000" points="790.8227,-876.5278 798.2125,-884.6298 795.4114,-878.5139 800,-880.5 800,-880.5 800,-880.5 795.4114,-878.5139 801.7875,-876.3702 790.8227,-876.5278 790.8227,-876.5278"/>
<text text-anchor="start" x="336.6495" y="-890.5" font-family="Arial" font-size="10.00" fill="#000000">FOREIGN KEY (hook) REFERENCES action_trigger.hook(key) DEFERRABLE INITIALLY DEFERRED</text>
</g>
</g>
</svg>
