<?xml version="1.0" encoding="UTF-8" standalone="no"?>
<!DOCTYPE svg PUBLIC "-//W3C//DTD SVG 1.1//EN"
 "http://www.w3.org/Graphics/SVG/1.1/DTD/svg11.dtd">
<!-- Generated by graphviz version 2.40.1 (20161225.0304)
 -->
<!-- Title: action_trigger.event Pages: 1 -->
<svg width="1077pt" height="1402pt"
 viewBox="0.00 0.00 1076.50 1402.00" xmlns="http://www.w3.org/2000/svg" xmlns:xlink="http://www.w3.org/1999/xlink">
<g id="graph0" class="graph" transform="scale(1 1) rotate(0) translate(4 1398)">
<title>action_trigger.event</title>
<polygon fill="#ffffff" stroke="transparent" points="-4,4 -4,-1398 1072.5,-1398 1072.5,4 -4,4"/>
<!-- action_trigger.event -->
<g id="node1" class="node">
<title>action_trigger.event</title>
<polygon fill="#efefef" stroke="transparent" points="558.5,-1312.5 558.5,-1347.5 857.5,-1347.5 857.5,-1312.5 558.5,-1312.5"/>
<polygon fill="none" stroke="#000000" points="558.5,-1312.5 558.5,-1347.5 857.5,-1347.5 857.5,-1312.5 558.5,-1312.5"/>
<text text-anchor="start" x="565.1942" y="-1325.3" font-family="Arial Bold" font-size="18.00" fill="#000000">action_trigger.event</text>
<text text-anchor="start" x="723.2378" y="-1325.3" font-family="Arial" font-size="14.00" fill="#000000">    </text>
<text text-anchor="start" x="757.4426" y="-1325.3" font-family="Arial" font-size="14.00" fill="#666666">[BASE TABLE]</text>
<polygon fill="none" stroke="#000000" points="558.5,-1282.5 558.5,-1312.5 857.5,-1312.5 857.5,-1282.5 558.5,-1282.5"/>
<text text-anchor="start" x="565.5" y="-1293.9" font-family="Arial" font-size="14.00" fill="#000000">id </text>
<text text-anchor="start" x="580.2798" y="-1293.9" font-family="Arial" font-size="14.00" fill="#666666">[bigint]</text>
<polygon fill="none" stroke="#000000" points="558.5,-1252.5 558.5,-1282.5 857.5,-1282.5 857.5,-1252.5 558.5,-1252.5"/>
<text text-anchor="start" x="565.5" y="-1263.9" font-family="Arial" font-size="14.00" fill="#000000">target </text>
<text text-anchor="start" x="605.1802" y="-1263.9" font-family="Arial" font-size="14.00" fill="#666666">[bigint]</text>
<polygon fill="none" stroke="#000000" points="558.5,-1222.5 558.5,-1252.5 857.5,-1252.5 857.5,-1222.5 558.5,-1222.5"/>
<text text-anchor="start" x="565.5" y="-1233.9" font-family="Arial" font-size="14.00" fill="#000000">event_def </text>
<text text-anchor="start" x="630.8674" y="-1233.9" font-family="Arial" font-size="14.00" fill="#666666">[integer]</text>
<polygon fill="none" stroke="#000000" points="558.5,-1192.5 558.5,-1222.5 857.5,-1222.5 857.5,-1192.5 558.5,-1192.5"/>
<text text-anchor="start" x="565.5" y="-1203.9" font-family="Arial" font-size="14.00" fill="#000000">add_time </text>
<text text-anchor="start" x="626.9614" y="-1203.9" font-family="Arial" font-size="14.00" fill="#666666">[timestamp with time zone]</text>
<polygon fill="none" stroke="#000000" points="558.5,-1162.5 558.5,-1192.5 857.5,-1192.5 857.5,-1162.5 558.5,-1162.5"/>
<text text-anchor="start" x="565.5" y="-1173.9" font-family="Arial" font-size="14.00" fill="#000000">run_time </text>
<text text-anchor="start" x="623.8394" y="-1173.9" font-family="Arial" font-size="14.00" fill="#666666">[timestamp with time zone]</text>
<polygon fill="none" stroke="#000000" points="558.5,-1132.5 558.5,-1162.5 857.5,-1162.5 857.5,-1132.5 558.5,-1132.5"/>
<text text-anchor="start" x="565.5" y="-1143.9" font-family="Arial" font-size="14.00" fill="#000000">start_time </text>
<text text-anchor="start" x="630.838" y="-1143.9" font-family="Arial" font-size="14.00" fill="#666666">[timestamp with time zone]</text>
<polygon fill="none" stroke="#000000" points="558.5,-1102.5 558.5,-1132.5 857.5,-1132.5 857.5,-1102.5 558.5,-1102.5"/>
<text text-anchor="start" x="565.5" y="-1113.9" font-family="Arial" font-size="14.00" fill="#000000">update_time </text>
<text text-anchor="start" x="646.4172" y="-1113.9" font-family="Arial" font-size="14.00" fill="#666666">[timestamp with time zone]</text>
<polygon fill="none" stroke="#000000" points="558.5,-1072.5 558.5,-1102.5 857.5,-1102.5 857.5,-1072.5 558.5,-1072.5"/>
<text text-anchor="start" x="565.5" y="-1083.9" font-family="Arial" font-size="14.00" fill="#000000">complete_time </text>
<text text-anchor="start" x="660.4018" y="-1083.9" font-family="Arial" font-size="14.00" fill="#666666">[timestamp with time zone]</text>
<polygon fill="none" stroke="#000000" points="558.5,-1042.5 558.5,-1072.5 857.5,-1072.5 857.5,-1042.5 558.5,-1042.5"/>
<text text-anchor="start" x="565.5" y="-1053.9" font-family="Arial" font-size="14.00" fill="#000000">update_process </text>
<text text-anchor="start" x="668.9852" y="-1053.9" font-family="Arial" font-size="14.00" fill="#666666">[integer]</text>
<polygon fill="none" stroke="#000000" points="558.5,-1012.5 558.5,-1042.5 857.5,-1042.5 857.5,-1012.5 558.5,-1012.5"/>
<text text-anchor="start" x="565.5" y="-1023.9" font-family="Arial" font-size="14.00" fill="#000000">state </text>
<text text-anchor="start" x="599.737" y="-1023.9" font-family="Arial" font-size="14.00" fill="#666666">[text]</text>
<polygon fill="none" stroke="#000000" points="558.5,-982.5 558.5,-1012.5 857.5,-1012.5 857.5,-982.5 558.5,-982.5"/>
<text text-anchor="start" x="565.5" y="-993.9" font-family="Arial" font-size="14.00" fill="#000000">user_data </text>
<text text-anchor="start" x="631.6374" y="-993.9" font-family="Arial" font-size="14.00" fill="#666666">[text]</text>
<polygon fill="none" stroke="#000000" points="558.5,-952.5 558.5,-982.5 857.5,-982.5 857.5,-952.5 558.5,-952.5"/>
<text text-anchor="start" x="565.5" y="-963.9" font-family="Arial" font-size="14.00" fill="#000000">template_output </text>
<text text-anchor="start" x="669.7636" y="-963.9" font-family="Arial" font-size="14.00" fill="#666666">[bigint]</text>
<polygon fill="none" stroke="#000000" points="558.5,-922.5 558.5,-952.5 857.5,-952.5 857.5,-922.5 558.5,-922.5"/>
<text text-anchor="start" x="565.5" y="-933.9" font-family="Arial" font-size="14.00" fill="#000000">error_output </text>
<text text-anchor="start" x="645.6318" y="-933.9" font-family="Arial" font-size="14.00" fill="#666666">[bigint]</text>
<polygon fill="none" stroke="#000000" points="558.5,-892.5 558.5,-922.5 857.5,-922.5 857.5,-892.5 558.5,-892.5"/>
<text text-anchor="start" x="565.5" y="-903.9" font-family="Arial" font-size="14.00" fill="#000000">async_output </text>
<text text-anchor="start" x="652.65" y="-903.9" font-family="Arial" font-size="14.00" fill="#666666">[bigint]</text>
<polygon fill="none" stroke="#000000" stroke-width="3" points="556.5,-891.5 556.5,-1349.5 858.5,-1349.5 858.5,-891.5 556.5,-891.5"/>
</g>
<!-- action_trigger.event_definition -->
<g id="node2" class="node">
<title>action_trigger.event_definition</title>
<polygon fill="#efefef" stroke="transparent" points="43.5,-732.5 43.5,-767.5 424.5,-767.5 424.5,-732.5 43.5,-732.5"/>
<polygon fill="none" stroke="#000000" points="43.5,-732.5 43.5,-767.5 424.5,-767.5 424.5,-732.5 43.5,-732.5"/>
<text text-anchor="start" x="50.1821" y="-745.3" font-family="Arial Bold" font-size="18.00" fill="#000000">action_trigger.event_definition</text>
<text text-anchor="start" x="290.2499" y="-745.3" font-family="Arial" font-size="14.00" fill="#000000">    </text>
<text text-anchor="start" x="324.4547" y="-745.3" font-family="Arial" font-size="14.00" fill="#666666">[BASE TABLE]</text>
<polygon fill="none" stroke="#000000" points="43.5,-702.5 43.5,-732.5 424.5,-732.5 424.5,-702.5 43.5,-702.5"/>
<text text-anchor="start" x="50.5" y="-713.9" font-family="Arial" font-size="14.00" fill="#000000">id    </text>
<text text-anchor="start" x="95.594" y="-713.9" font-family="Arial" font-size="14.00" fill="#666666">[integer]</text>
<polygon fill="none" stroke="#000000" points="43.5,-672.5 43.5,-702.5 424.5,-702.5 424.5,-672.5 43.5,-672.5"/>
<text text-anchor="start" x="50.5" y="-683.9" font-family="Arial" font-size="14.00" fill="#000000">active    </text>
<text text-anchor="start" x="121.2672" y="-683.9" font-family="Arial" font-size="14.00" fill="#666666">[boolean]</text>
<polygon fill="none" stroke="#000000" points="43.5,-642.5 43.5,-672.5 424.5,-672.5 424.5,-642.5 43.5,-642.5"/>
<text text-anchor="start" x="50.5" y="-653.9" font-family="Arial" font-size="14.00" fill="#000000">owner    </text>
<text text-anchor="start" x="122.8198" y="-653.9" font-family="Arial" font-size="14.00" fill="#666666">[integer]</text>
<polygon fill="none" stroke="#000000" points="43.5,-612.5 43.5,-642.5 424.5,-642.5 424.5,-612.5 43.5,-612.5"/>
<text text-anchor="start" x="50.5" y="-623.9" font-family="Arial" font-size="14.00" fill="#000000">name    </text>
<text text-anchor="start" x="119.7132" y="-623.9" font-family="Arial" font-size="14.00" fill="#666666">[text]</text>
<polygon fill="none" stroke="#000000" points="43.5,-582.5 43.5,-612.5 424.5,-612.5 424.5,-582.5 43.5,-582.5"/>
<text text-anchor="start" x="50.5" y="-593.9" font-family="Arial" font-size="14.00" fill="#000000">hook    </text>
<text text-anchor="start" x="115.0526" y="-593.9" font-family="Arial" font-size="14.00" fill="#666666">[text]</text>
<polygon fill="none" stroke="#000000" points="43.5,-552.5 43.5,-582.5 424.5,-582.5 424.5,-552.5 43.5,-552.5"/>
<text text-anchor="start" x="50.5" y="-563.9" font-family="Arial" font-size="14.00" fill="#000000">validator    </text>
<text text-anchor="start" x="137.5996" y="-563.9" font-family="Arial" font-size="14.00" fill="#666666">[text]</text>
<polygon fill="none" stroke="#000000" points="43.5,-522.5 43.5,-552.5 424.5,-552.5 424.5,-522.5 43.5,-522.5"/>
<text text-anchor="start" x="50.5" y="-533.9" font-family="Arial" font-size="14.00" fill="#000000">reactor    </text>
<text text-anchor="start" x="128.2644" y="-533.9" font-family="Arial" font-size="14.00" fill="#666666">[text]</text>
<polygon fill="none" stroke="#000000" points="43.5,-492.5 43.5,-522.5 424.5,-522.5 424.5,-492.5 43.5,-492.5"/>
<text text-anchor="start" x="50.5" y="-503.9" font-family="Arial" font-size="14.00" fill="#000000">cleanup_success    </text>
<text text-anchor="start" x="192.0722" y="-503.9" font-family="Arial" font-size="14.00" fill="#666666">[text]</text>
<polygon fill="none" stroke="#000000" points="43.5,-462.5 43.5,-492.5 424.5,-492.5 424.5,-462.5 43.5,-462.5"/>
<text text-anchor="start" x="50.5" y="-473.9" font-family="Arial" font-size="14.00" fill="#000000">cleanup_failure    </text>
<text text-anchor="start" x="179.6192" y="-473.9" font-family="Arial" font-size="14.00" fill="#666666">[text]</text>
<polygon fill="none" stroke="#000000" points="43.5,-432.5 43.5,-462.5 424.5,-462.5 424.5,-432.5 43.5,-432.5"/>
<text text-anchor="start" x="50.5" y="-443.9" font-family="Arial" font-size="14.00" fill="#000000">delay    </text>
<text text-anchor="start" x="118.1592" y="-443.9" font-family="Arial" font-size="14.00" fill="#666666">[interval]</text>
<polygon fill="none" stroke="#000000" points="43.5,-402.5 43.5,-432.5 424.5,-432.5 424.5,-402.5 43.5,-402.5"/>
<text text-anchor="start" x="50.5" y="-413.9" font-family="Arial" font-size="14.00" fill="#000000">max_delay    </text>
<text text-anchor="start" x="152.385" y="-413.9" font-family="Arial" font-size="14.00" fill="#666666">[interval]</text>
<polygon fill="none" stroke="#000000" points="43.5,-372.5 43.5,-402.5 424.5,-402.5 424.5,-372.5 43.5,-372.5"/>
<text text-anchor="start" x="50.5" y="-383.9" font-family="Arial" font-size="14.00" fill="#000000">repeat_delay    </text>
<text text-anchor="start" x="165.6234" y="-383.9" font-family="Arial" font-size="14.00" fill="#666666">[interval]</text>
<polygon fill="none" stroke="#000000" points="43.5,-342.5 43.5,-372.5 424.5,-372.5 424.5,-342.5 43.5,-342.5"/>
<text text-anchor="start" x="50.5" y="-353.9" font-family="Arial" font-size="14.00" fill="#000000">usr_field    </text>
<text text-anchor="start" x="137.5996" y="-353.9" font-family="Arial" font-size="14.00" fill="#666666">[text]</text>
<polygon fill="none" stroke="#000000" points="43.5,-312.5 43.5,-342.5 424.5,-342.5 424.5,-312.5 43.5,-312.5"/>
<text text-anchor="start" x="50.5" y="-323.9" font-family="Arial" font-size="14.00" fill="#000000">opt_in_setting    </text>
<text text-anchor="start" x="171.8506" y="-323.9" font-family="Arial" font-size="14.00" fill="#666666">[text]</text>
<polygon fill="none" stroke="#000000" points="43.5,-282.5 43.5,-312.5 424.5,-312.5 424.5,-282.5 43.5,-282.5"/>
<text text-anchor="start" x="50.5" y="-293.9" font-family="Arial" font-size="14.00" fill="#000000">delay_field    </text>
<text text-anchor="start" x="151.6108" y="-293.9" font-family="Arial" font-size="14.00" fill="#666666">[text]</text>
<polygon fill="none" stroke="#000000" points="43.5,-252.5 43.5,-282.5 424.5,-282.5 424.5,-252.5 43.5,-252.5"/>
<text text-anchor="start" x="50.5" y="-263.9" font-family="Arial" font-size="14.00" fill="#000000">group_field    </text>
<text text-anchor="start" x="153.9474" y="-263.9" font-family="Arial" font-size="14.00" fill="#666666">[text]</text>
<polygon fill="none" stroke="#000000" points="43.5,-222.5 43.5,-252.5 424.5,-252.5 424.5,-222.5 43.5,-222.5"/>
<text text-anchor="start" x="50.5" y="-233.9" font-family="Arial" font-size="14.00" fill="#000000">template    </text>
<text text-anchor="start" x="138.3836" y="-233.9" font-family="Arial" font-size="14.00" fill="#666666">[text]</text>
<polygon fill="none" stroke="#000000" points="43.5,-192.5 43.5,-222.5 424.5,-222.5 424.5,-192.5 43.5,-192.5"/>
<text text-anchor="start" x="50.5" y="-203.9" font-family="Arial" font-size="14.00" fill="#000000">granularity    </text>
<text text-anchor="start" x="150.0428" y="-203.9" font-family="Arial" font-size="14.00" fill="#666666">[text]</text>
<polygon fill="none" stroke="#000000" points="43.5,-162.5 43.5,-192.5 424.5,-192.5 424.5,-162.5 43.5,-162.5"/>
<text text-anchor="start" x="50.5" y="-173.9" font-family="Arial" font-size="14.00" fill="#000000">message_template    </text>
<text text-anchor="start" x="202.9572" y="-173.9" font-family="Arial" font-size="14.00" fill="#666666">[text]</text>
<polygon fill="none" stroke="#000000" points="43.5,-132.5 43.5,-162.5 424.5,-162.5 424.5,-132.5 43.5,-132.5"/>
<text text-anchor="start" x="50.5" y="-143.9" font-family="Arial" font-size="14.00" fill="#000000">message_usr_path    </text>
<text text-anchor="start" x="203.7426" y="-143.9" font-family="Arial" font-size="14.00" fill="#666666">[text]</text>
<polygon fill="none" stroke="#000000" points="43.5,-102.5 43.5,-132.5 424.5,-132.5 424.5,-102.5 43.5,-102.5"/>
<text text-anchor="start" x="50.5" y="-113.9" font-family="Arial" font-size="14.00" fill="#000000">message_library_path    </text>
<text text-anchor="start" x="222.399" y="-113.9" font-family="Arial" font-size="14.00" fill="#666666">[text]</text>
<polygon fill="none" stroke="#000000" points="43.5,-72.5 43.5,-102.5 424.5,-102.5 424.5,-72.5 43.5,-72.5"/>
<text text-anchor="start" x="50.5" y="-83.9" font-family="Arial" font-size="14.00" fill="#000000">message_title    </text>
<text text-anchor="start" x="171.0554" y="-83.9" font-family="Arial" font-size="14.00" fill="#666666">[text]</text>
<polygon fill="none" stroke="#000000" points="43.5,-42.5 43.5,-72.5 424.5,-72.5 424.5,-42.5 43.5,-42.5"/>
<text text-anchor="start" x="50.5" y="-53.9" font-family="Arial" font-size="14.00" fill="#000000">retention_interval    </text>
<text text-anchor="start" x="192.061" y="-53.9" font-family="Arial" font-size="14.00" fill="#666666">[interval]</text>
</g>
<!-- action_trigger.event&#45;&gt;action_trigger.event_definition -->
<g id="edge1" class="edge">
<title>action_trigger.event:event_def&#45;&gt;action_trigger.event_definition:id</title>
<path fill="none" stroke="#000000" d="M549.1002,-1233.0046C497.0956,-1182.1802 480.9024,-717.5 424.5,-717.5"/>
<polygon fill="#000000" stroke="#000000" points="549.4786,-1233.1855 556.5585,-1241.5596 553.9893,-1235.3428 558.5,-1237.5 558.5,-1237.5 558.5,-1237.5 553.9893,-1235.3428 560.4415,-1233.4404 549.4786,-1233.1855 549.4786,-1233.1855"/>
<text text-anchor="start" x="32.7485" y="-1247.5" font-family="Arial" font-size="10.00" fill="#000000">FOREIGN KEY (event_def) REFERENCES action_trigger.event_definition(id) DEFERRABLE INITIALLY DEFERRED</text>
</g>
<!-- action_trigger.event_output -->
<g id="node3" class="node">
<title>action_trigger.event_output</title>
<polygon fill="#efefef" stroke="transparent" points="528.5,-447.5 528.5,-482.5 887.5,-482.5 887.5,-447.5 528.5,-447.5"/>
<polygon fill="none" stroke="#000000" points="528.5,-447.5 528.5,-482.5 887.5,-482.5 887.5,-447.5 528.5,-447.5"/>
<text text-anchor="start" x="535.1765" y="-460.3" font-family="Arial Bold" font-size="18.00" fill="#000000">action_trigger.event_output</text>
<text text-anchor="start" x="753.2555" y="-460.3" font-family="Arial" font-size="14.00" fill="#000000">    </text>
<text text-anchor="start" x="787.4603" y="-460.3" font-family="Arial" font-size="14.00" fill="#666666">[BASE TABLE]</text>
<polygon fill="none" stroke="#000000" points="528.5,-417.5 528.5,-447.5 887.5,-447.5 887.5,-417.5 528.5,-417.5"/>
<text text-anchor="start" x="535.5" y="-428.9" font-family="Arial" font-size="14.00" fill="#000000">id    </text>
<text text-anchor="start" x="580.594" y="-428.9" font-family="Arial" font-size="14.00" fill="#666666">[bigint]</text>
<polygon fill="none" stroke="#000000" points="528.5,-387.5 528.5,-417.5 887.5,-417.5 887.5,-387.5 528.5,-387.5"/>
<text text-anchor="start" x="535.5" y="-398.9" font-family="Arial" font-size="14.00" fill="#000000">create_time    </text>
<text text-anchor="start" x="642.8268" y="-398.9" font-family="Arial" font-size="14.00" fill="#666666">[timestamp with time zone]</text>
<polygon fill="none" stroke="#000000" points="528.5,-357.5 528.5,-387.5 887.5,-387.5 887.5,-357.5 528.5,-357.5"/>
<text text-anchor="start" x="535.5" y="-368.9" font-family="Arial" font-size="14.00" fill="#000000">is_error    </text>
<text text-anchor="start" x="617.141" y="-368.9" font-family="Arial" font-size="14.00" fill="#666666">[boolean]</text>
<polygon fill="none" stroke="#000000" points="528.5,-327.5 528.5,-357.5 887.5,-357.5 887.5,-327.5 528.5,-327.5"/>
<text text-anchor="start" x="535.5" y="-338.9" font-family="Arial" font-size="14.00" fill="#000000">data    </text>
<text text-anchor="start" x="596.9432" y="-338.9" font-family="Arial" font-size="14.00" fill="#666666">[text]</text>
</g>
<!-- action_trigger.event&#45;&gt;action_trigger.event_output -->
<g id="edge2" class="edge">
<title>action_trigger.event:template_output&#45;&gt;action_trigger.event_output:id</title>
<path fill="none" stroke="#000000" d="M549.3362,-963.1935C496.0471,-912.562 472.1019,-432.5 528.5,-432.5"/>
<polygon fill="#000000" stroke="#000000" points="549.4495,-963.2468 556.5861,-971.5727 553.9748,-965.3734 558.5,-967.5 558.5,-967.5 558.5,-967.5 553.9748,-965.3734 560.4139,-963.4273 549.4495,-963.2468 549.4495,-963.2468"/>
<text text-anchor="start" x="193.025" y="-977.5" font-family="Arial" font-size="10.00" fill="#000000">FOREIGN KEY (template_output) REFERENCES action_trigger.event_output(id)</text>
</g>
<!-- action_trigger.event&#45;&gt;action_trigger.event_output -->
<g id="edge3" class="edge">
<title>action_trigger.event:error_output&#45;&gt;action_trigger.event_output:id</title>
<path fill="none" stroke="#000000" d="M549.2118,-932.8232C499.1681,-881.9131 475.4737,-432.5 528.5,-432.5"/>
<polygon fill="#000000" stroke="#000000" points="549.5684,-933.0026 556.4762,-941.5192 554.0342,-935.2513 558.5,-937.5 558.5,-937.5 558.5,-937.5 554.0342,-935.2513 560.5238,-933.4808 549.5684,-933.0026 549.5684,-933.0026"/>
<text text-anchor="start" x="210.6435" y="-947.5" font-family="Arial" font-size="10.00" fill="#000000">FOREIGN KEY (error_output) REFERENCES action_trigger.event_output(id)</text>
</g>
<!-- action_trigger.event&#45;&gt;action_trigger.event_output -->
<g id="edge4" class="edge">
<title>action_trigger.event:async_output&#45;&gt;action_trigger.event_output:id</title>
<path fill="none" stroke="#000000" d="M707.7712,-882.248C691.8642,-762.5096 421.9462,-432.5 528.5,-432.5"/>
<polygon fill="#000000" stroke="#000000" points="707.7908,-882.5252 704.0113,-892.8191 708.1454,-887.5126 708.5,-892.5 708.5,-892.5 708.5,-892.5 708.1454,-887.5126 712.9887,-892.1809 707.7908,-882.5252 707.7908,-882.5252"/>
<text text-anchor="start" x="715.137" y="-902.5" font-family="Arial" font-size="10.00" fill="#000000">FOREIGN KEY (async_output) REFERENCES action_trigger.event_output(id)</text>
</g>
</g>
</svg>
