<?xml version="1.0" encoding="UTF-8" standalone="no"?>
<!DOCTYPE svg PUBLIC "-//W3C//DTD SVG 1.1//EN"
 "http://www.w3.org/Graphics/SVG/1.1/DTD/svg11.dtd">
<!-- Generated by graphviz version 2.40.1 (20161225.0304)
 -->
<!-- Title: action_trigger.event_params Pages: 1 -->
<svg width="959pt" height="1102pt"
 viewBox="0.00 0.00 958.50 1102.00" xmlns="http://www.w3.org/2000/svg" xmlns:xlink="http://www.w3.org/1999/xlink">
<g id="graph0" class="graph" transform="scale(1 1) rotate(0) translate(4 1098)">
<title>action_trigger.event_params</title>
<polygon fill="#ffffff" stroke="transparent" points="-4,4 -4,-1098 954.5,-1098 954.5,4 -4,4"/>
<!-- action_trigger.event_params -->
<g id="node1" class="node">
<title>action_trigger.event_params</title>
<polygon fill="#efefef" stroke="transparent" points="533,-1012.5 533,-1047.5 902,-1047.5 902,-1012.5 533,-1012.5"/>
<polygon fill="none" stroke="#000000" points="533,-1012.5 533,-1047.5 902,-1047.5 902,-1012.5 533,-1012.5"/>
<text text-anchor="start" x="539.6896" y="-1025.3" font-family="Arial Bold" font-size="18.00" fill="#000000">action_trigger.event_params</text>
<text text-anchor="start" x="767.7424" y="-1025.3" font-family="Arial" font-size="14.00" fill="#000000">    </text>
<text text-anchor="start" x="801.9472" y="-1025.3" font-family="Arial" font-size="14.00" fill="#666666">[BASE TABLE]</text>
<polygon fill="none" stroke="#000000" points="533,-982.5 533,-1012.5 902,-1012.5 902,-982.5 533,-982.5"/>
<text text-anchor="start" x="540" y="-993.9" font-family="Arial" font-size="14.00" fill="#000000">id </text>
<text text-anchor="start" x="554.7798" y="-993.9" font-family="Arial" font-size="14.00" fill="#666666">[bigint]</text>
<polygon fill="none" stroke="#000000" points="533,-952.5 533,-982.5 902,-982.5 902,-952.5 533,-952.5"/>
<text text-anchor="start" x="540" y="-963.9" font-family="Arial" font-size="14.00" fill="#000000">event_def </text>
<text text-anchor="start" x="605.3674" y="-963.9" font-family="Arial" font-size="14.00" fill="#666666">[integer]</text>
<polygon fill="none" stroke="#000000" points="533,-922.5 533,-952.5 902,-952.5 902,-922.5 533,-922.5"/>
<text text-anchor="start" x="540" y="-933.9" font-family="Arial" font-size="14.00" fill="#000000">param </text>
<text text-anchor="start" x="583.5596" y="-933.9" font-family="Arial" font-size="14.00" fill="#666666">[text]</text>
<polygon fill="none" stroke="#000000" points="533,-892.5 533,-922.5 902,-922.5 902,-892.5 533,-892.5"/>
<text text-anchor="start" x="540" y="-903.9" font-family="Arial" font-size="14.00" fill="#000000">value </text>
<text text-anchor="start" x="577.345" y="-903.9" font-family="Arial" font-size="14.00" fill="#666666">[text]</text>
<polygon fill="none" stroke="#000000" stroke-width="3" points="531,-891.5 531,-1049.5 903,-1049.5 903,-891.5 531,-891.5"/>
</g>
<!-- action_trigger.event_definition -->
<g id="node2" class="node">
<title>action_trigger.event_definition</title>
<polygon fill="#efefef" stroke="transparent" points="527,-732.5 527,-767.5 908,-767.5 908,-732.5 527,-732.5"/>
<polygon fill="none" stroke="#000000" points="527,-732.5 527,-767.5 908,-767.5 908,-732.5 527,-732.5"/>
<text text-anchor="start" x="533.6821" y="-745.3" font-family="Arial Bold" font-size="18.00" fill="#000000">action_trigger.event_definition</text>
<text text-anchor="start" x="773.7499" y="-745.3" font-family="Arial" font-size="14.00" fill="#000000">    </text>
<text text-anchor="start" x="807.9547" y="-745.3" font-family="Arial" font-size="14.00" fill="#666666">[BASE TABLE]</text>
<polygon fill="none" stroke="#000000" points="527,-702.5 527,-732.5 908,-732.5 908,-702.5 527,-702.5"/>
<text text-anchor="start" x="534" y="-713.9" font-family="Arial" font-size="14.00" fill="#000000">id    </text>
<text text-anchor="start" x="579.094" y="-713.9" font-family="Arial" font-size="14.00" fill="#666666">[integer]</text>
<polygon fill="none" stroke="#000000" points="527,-672.5 527,-702.5 908,-702.5 908,-672.5 527,-672.5"/>
<text text-anchor="start" x="534" y="-683.9" font-family="Arial" font-size="14.00" fill="#000000">active    </text>
<text text-anchor="start" x="604.7672" y="-683.9" font-family="Arial" font-size="14.00" fill="#666666">[boolean]</text>
<polygon fill="none" stroke="#000000" points="527,-642.5 527,-672.5 908,-672.5 908,-642.5 527,-642.5"/>
<text text-anchor="start" x="534" y="-653.9" font-family="Arial" font-size="14.00" fill="#000000">owner    </text>
<text text-anchor="start" x="606.3198" y="-653.9" font-family="Arial" font-size="14.00" fill="#666666">[integer]</text>
<polygon fill="none" stroke="#000000" points="527,-612.5 527,-642.5 908,-642.5 908,-612.5 527,-612.5"/>
<text text-anchor="start" x="534" y="-623.9" font-family="Arial" font-size="14.00" fill="#000000">name    </text>
<text text-anchor="start" x="603.2132" y="-623.9" font-family="Arial" font-size="14.00" fill="#666666">[text]</text>
<polygon fill="none" stroke="#000000" points="527,-582.5 527,-612.5 908,-612.5 908,-582.5 527,-582.5"/>
<text text-anchor="start" x="534" y="-593.9" font-family="Arial" font-size="14.00" fill="#000000">hook    </text>
<text text-anchor="start" x="598.5526" y="-593.9" font-family="Arial" font-size="14.00" fill="#666666">[text]</text>
<polygon fill="none" stroke="#000000" points="527,-552.5 527,-582.5 908,-582.5 908,-552.5 527,-552.5"/>
<text text-anchor="start" x="534" y="-563.9" font-family="Arial" font-size="14.00" fill="#000000">validator    </text>
<text text-anchor="start" x="621.0996" y="-563.9" font-family="Arial" font-size="14.00" fill="#666666">[text]</text>
<polygon fill="none" stroke="#000000" points="527,-522.5 527,-552.5 908,-552.5 908,-522.5 527,-522.5"/>
<text text-anchor="start" x="534" y="-533.9" font-family="Arial" font-size="14.00" fill="#000000">reactor    </text>
<text text-anchor="start" x="611.7644" y="-533.9" font-family="Arial" font-size="14.00" fill="#666666">[text]</text>
<polygon fill="none" stroke="#000000" points="527,-492.5 527,-522.5 908,-522.5 908,-492.5 527,-492.5"/>
<text text-anchor="start" x="534" y="-503.9" font-family="Arial" font-size="14.00" fill="#000000">cleanup_success    </text>
<text text-anchor="start" x="675.5722" y="-503.9" font-family="Arial" font-size="14.00" fill="#666666">[text]</text>
<polygon fill="none" stroke="#000000" points="527,-462.5 527,-492.5 908,-492.5 908,-462.5 527,-462.5"/>
<text text-anchor="start" x="534" y="-473.9" font-family="Arial" font-size="14.00" fill="#000000">cleanup_failure    </text>
<text text-anchor="start" x="663.1192" y="-473.9" font-family="Arial" font-size="14.00" fill="#666666">[text]</text>
<polygon fill="none" stroke="#000000" points="527,-432.5 527,-462.5 908,-462.5 908,-432.5 527,-432.5"/>
<text text-anchor="start" x="534" y="-443.9" font-family="Arial" font-size="14.00" fill="#000000">delay    </text>
<text text-anchor="start" x="601.6592" y="-443.9" font-family="Arial" font-size="14.00" fill="#666666">[interval]</text>
<polygon fill="none" stroke="#000000" points="527,-402.5 527,-432.5 908,-432.5 908,-402.5 527,-402.5"/>
<text text-anchor="start" x="534" y="-413.9" font-family="Arial" font-size="14.00" fill="#000000">max_delay    </text>
<text text-anchor="start" x="635.885" y="-413.9" font-family="Arial" font-size="14.00" fill="#666666">[interval]</text>
<polygon fill="none" stroke="#000000" points="527,-372.5 527,-402.5 908,-402.5 908,-372.5 527,-372.5"/>
<text text-anchor="start" x="534" y="-383.9" font-family="Arial" font-size="14.00" fill="#000000">repeat_delay    </text>
<text text-anchor="start" x="649.1234" y="-383.9" font-family="Arial" font-size="14.00" fill="#666666">[interval]</text>
<polygon fill="none" stroke="#000000" points="527,-342.5 527,-372.5 908,-372.5 908,-342.5 527,-342.5"/>
<text text-anchor="start" x="534" y="-353.9" font-family="Arial" font-size="14.00" fill="#000000">usr_field    </text>
<text text-anchor="start" x="621.0996" y="-353.9" font-family="Arial" font-size="14.00" fill="#666666">[text]</text>
<polygon fill="none" stroke="#000000" points="527,-312.5 527,-342.5 908,-342.5 908,-312.5 527,-312.5"/>
<text text-anchor="start" x="534" y="-323.9" font-family="Arial" font-size="14.00" fill="#000000">opt_in_setting    </text>
<text text-anchor="start" x="655.3506" y="-323.9" font-family="Arial" font-size="14.00" fill="#666666">[text]</text>
<polygon fill="none" stroke="#000000" points="527,-282.5 527,-312.5 908,-312.5 908,-282.5 527,-282.5"/>
<text text-anchor="start" x="534" y="-293.9" font-family="Arial" font-size="14.00" fill="#000000">delay_field    </text>
<text text-anchor="start" x="635.1108" y="-293.9" font-family="Arial" font-size="14.00" fill="#666666">[text]</text>
<polygon fill="none" stroke="#000000" points="527,-252.5 527,-282.5 908,-282.5 908,-252.5 527,-252.5"/>
<text text-anchor="start" x="534" y="-263.9" font-family="Arial" font-size="14.00" fill="#000000">group_field    </text>
<text text-anchor="start" x="637.4474" y="-263.9" font-family="Arial" font-size="14.00" fill="#666666">[text]</text>
<polygon fill="none" stroke="#000000" points="527,-222.5 527,-252.5 908,-252.5 908,-222.5 527,-222.5"/>
<text text-anchor="start" x="534" y="-233.9" font-family="Arial" font-size="14.00" fill="#000000">template    </text>
<text text-anchor="start" x="621.8836" y="-233.9" font-family="Arial" font-size="14.00" fill="#666666">[text]</text>
<polygon fill="none" stroke="#000000" points="527,-192.5 527,-222.5 908,-222.5 908,-192.5 527,-192.5"/>
<text text-anchor="start" x="534" y="-203.9" font-family="Arial" font-size="14.00" fill="#000000">granularity    </text>
<text text-anchor="start" x="633.5428" y="-203.9" font-family="Arial" font-size="14.00" fill="#666666">[text]</text>
<polygon fill="none" stroke="#000000" points="527,-162.5 527,-192.5 908,-192.5 908,-162.5 527,-162.5"/>
<text text-anchor="start" x="534" y="-173.9" font-family="Arial" font-size="14.00" fill="#000000">message_template    </text>
<text text-anchor="start" x="686.4572" y="-173.9" font-family="Arial" font-size="14.00" fill="#666666">[text]</text>
<polygon fill="none" stroke="#000000" points="527,-132.5 527,-162.5 908,-162.5 908,-132.5 527,-132.5"/>
<text text-anchor="start" x="534" y="-143.9" font-family="Arial" font-size="14.00" fill="#000000">message_usr_path    </text>
<text text-anchor="start" x="687.2426" y="-143.9" font-family="Arial" font-size="14.00" fill="#666666">[text]</text>
<polygon fill="none" stroke="#000000" points="527,-102.5 527,-132.5 908,-132.5 908,-102.5 527,-102.5"/>
<text text-anchor="start" x="534" y="-113.9" font-family="Arial" font-size="14.00" fill="#000000">message_library_path    </text>
<text text-anchor="start" x="705.899" y="-113.9" font-family="Arial" font-size="14.00" fill="#666666">[text]</text>
<polygon fill="none" stroke="#000000" points="527,-72.5 527,-102.5 908,-102.5 908,-72.5 527,-72.5"/>
<text text-anchor="start" x="534" y="-83.9" font-family="Arial" font-size="14.00" fill="#000000">message_title    </text>
<text text-anchor="start" x="654.5554" y="-83.9" font-family="Arial" font-size="14.00" fill="#666666">[text]</text>
<polygon fill="none" stroke="#000000" points="527,-42.5 527,-72.5 908,-72.5 908,-42.5 527,-42.5"/>
<text text-anchor="start" x="534" y="-53.9" font-family="Arial" font-size="14.00" fill="#000000">retention_interval    </text>
<text text-anchor="start" x="675.561" y="-53.9" font-family="Arial" font-size="14.00" fill="#666666">[interval]</text>
</g>
<!-- action_trigger.event_params&#45;&gt;action_trigger.event_definition -->
<g id="edge1" class="edge">
<title>action_trigger.event_params:event_def&#45;&gt;action_trigger.event_definition:id</title>
<path fill="none" stroke="#000000" d="M523.1642,-964.6924C476.919,-937.2266 474.9017,-717.5 527,-717.5"/>
<polygon fill="#000000" stroke="#000000" points="523.3841,-964.7551 531.7648,-971.8272 528.192,-966.1275 533,-967.5 533,-967.5 533,-967.5 528.192,-966.1275 534.2352,-963.1728 523.3841,-964.7551 523.3841,-964.7551"/>
<text text-anchor="start" x="7.2485" y="-977.5" font-family="Arial" font-size="10.00" fill="#000000">FOREIGN KEY (event_def) REFERENCES action_trigger.event_definition(id) DEFERRABLE INITIALLY DEFERRED</text>
</g>
</g>
</svg>
