<?xml version="1.0" encoding="UTF-8" standalone="no"?>
<!DOCTYPE svg PUBLIC "-//W3C//DTD SVG 1.1//EN"
 "http://www.w3.org/Graphics/SVG/1.1/DTD/svg11.dtd">
<!-- Generated by graphviz version 2.40.1 (20161225.0304)
 -->
<!-- Title: action.survey Pages: 1 -->
<svg width="1070pt" height="1379pt"
 viewBox="0.00 0.00 1070.00 1379.00" xmlns="http://www.w3.org/2000/svg" xmlns:xlink="http://www.w3.org/1999/xlink">
<g id="graph0" class="graph" transform="scale(1 1) rotate(0) translate(4 1375)">
<title>action.survey</title>
<polygon fill="#ffffff" stroke="transparent" points="-4,4 -4,-1375 1066,-1375 1066,4 -4,4"/>
<!-- action.survey -->
<g id="node1" class="node">
<title>action.survey</title>
<polygon fill="#efefef" stroke="transparent" points="444,-892.5 444,-927.5 691,-927.5 691,-892.5 444,-892.5"/>
<polygon fill="none" stroke="#000000" points="444,-892.5 444,-927.5 691,-927.5 691,-892.5 444,-892.5"/>
<text text-anchor="start" x="450.7051" y="-905.3" font-family="Arial Bold" font-size="18.00" fill="#000000">action.survey</text>
<text text-anchor="start" x="556.7269" y="-905.3" font-family="Arial" font-size="14.00" fill="#000000">    </text>
<text text-anchor="start" x="590.9317" y="-905.3" font-family="Arial" font-size="14.00" fill="#666666">[BASE TABLE]</text>
<polygon fill="none" stroke="#000000" points="444,-862.5 444,-892.5 691,-892.5 691,-862.5 444,-862.5"/>
<text text-anchor="start" x="451" y="-873.9" font-family="Arial" font-size="14.00" fill="#000000">id </text>
<text text-anchor="start" x="465.7798" y="-873.9" font-family="Arial" font-size="14.00" fill="#666666">[integer]</text>
<polygon fill="none" stroke="#000000" points="444,-832.5 444,-862.5 691,-862.5 691,-832.5 444,-832.5"/>
<text text-anchor="start" x="451" y="-843.9" font-family="Arial" font-size="14.00" fill="#000000">owner </text>
<text text-anchor="start" x="493.0056" y="-843.9" font-family="Arial" font-size="14.00" fill="#666666">[integer]</text>
<polygon fill="none" stroke="#000000" points="444,-802.5 444,-832.5 691,-832.5 691,-802.5 444,-802.5"/>
<text text-anchor="start" x="451" y="-813.9" font-family="Arial" font-size="14.00" fill="#000000">start_date </text>
<text text-anchor="start" x="517.136" y="-813.9" font-family="Arial" font-size="14.00" fill="#666666">[timestamp with time zone]</text>
<polygon fill="none" stroke="#000000" points="444,-772.5 444,-802.5 691,-802.5 691,-772.5 444,-772.5"/>
<text text-anchor="start" x="451" y="-783.9" font-family="Arial" font-size="14.00" fill="#000000">end_date </text>
<text text-anchor="start" x="513.2594" y="-783.9" font-family="Arial" font-size="14.00" fill="#666666">[timestamp with time zone]</text>
<polygon fill="none" stroke="#000000" points="444,-742.5 444,-772.5 691,-772.5 691,-742.5 444,-742.5"/>
<text text-anchor="start" x="451" y="-753.9" font-family="Arial" font-size="14.00" fill="#000000">usr_summary </text>
<text text-anchor="start" x="539.6634" y="-753.9" font-family="Arial" font-size="14.00" fill="#666666">[boolean]</text>
<polygon fill="none" stroke="#000000" points="444,-712.5 444,-742.5 691,-742.5 691,-712.5 444,-712.5"/>
<text text-anchor="start" x="451" y="-723.9" font-family="Arial" font-size="14.00" fill="#000000">opac </text>
<text text-anchor="start" x="485.2384" y="-723.9" font-family="Arial" font-size="14.00" fill="#666666">[boolean]</text>
<polygon fill="none" stroke="#000000" points="444,-682.5 444,-712.5 691,-712.5 691,-682.5 444,-682.5"/>
<text text-anchor="start" x="451" y="-693.9" font-family="Arial" font-size="14.00" fill="#000000">poll </text>
<text text-anchor="start" x="476.669" y="-693.9" font-family="Arial" font-size="14.00" fill="#666666">[boolean]</text>
<polygon fill="none" stroke="#000000" points="444,-652.5 444,-682.5 691,-682.5 691,-652.5 444,-652.5"/>
<text text-anchor="start" x="451" y="-663.9" font-family="Arial" font-size="14.00" fill="#000000">required </text>
<text text-anchor="start" x="506.2314" y="-663.9" font-family="Arial" font-size="14.00" fill="#666666">[boolean]</text>
<polygon fill="none" stroke="#000000" points="444,-622.5 444,-652.5 691,-652.5 691,-622.5 444,-622.5"/>
<text text-anchor="start" x="451" y="-633.9" font-family="Arial" font-size="14.00" fill="#000000">name </text>
<text text-anchor="start" x="489.899" y="-633.9" font-family="Arial" font-size="14.00" fill="#666666">[text]</text>
<polygon fill="none" stroke="#000000" points="444,-592.5 444,-622.5 691,-622.5 691,-592.5 444,-592.5"/>
<text text-anchor="start" x="451" y="-603.9" font-family="Arial" font-size="14.00" fill="#000000">description </text>
<text text-anchor="start" x="522.568" y="-603.9" font-family="Arial" font-size="14.00" fill="#666666">[text]</text>
<polygon fill="none" stroke="#000000" stroke-width="3" points="442,-591.5 442,-929.5 692,-929.5 692,-591.5 442,-591.5"/>
</g>
<!-- actor.org_unit -->
<g id="node4" class="node">
<title>actor.org_unit</title>
<polygon fill="#efefef" stroke="transparent" points="442,-432.5 442,-467.5 693,-467.5 693,-432.5 442,-432.5"/>
<polygon fill="none" stroke="#000000" points="442,-432.5 442,-467.5 693,-467.5 693,-432.5 442,-432.5"/>
<text text-anchor="start" x="448.7017" y="-445.3" font-family="Arial Bold" font-size="18.00" fill="#000000">actor.org_unit</text>
<text text-anchor="start" x="558.7303" y="-445.3" font-family="Arial" font-size="14.00" fill="#000000">    </text>
<text text-anchor="start" x="592.9351" y="-445.3" font-family="Arial" font-size="14.00" fill="#666666">[BASE TABLE]</text>
<polygon fill="none" stroke="#000000" points="442,-402.5 442,-432.5 693,-432.5 693,-402.5 442,-402.5"/>
<text text-anchor="start" x="449" y="-413.9" font-family="Arial" font-size="14.00" fill="#000000">id    </text>
<text text-anchor="start" x="494.094" y="-413.9" font-family="Arial" font-size="14.00" fill="#666666">[integer]</text>
<polygon fill="none" stroke="#000000" points="442,-372.5 442,-402.5 693,-402.5 693,-372.5 442,-372.5"/>
<text text-anchor="start" x="449" y="-383.9" font-family="Arial" font-size="14.00" fill="#000000">parent_ou    </text>
<text text-anchor="start" x="546.2342" y="-383.9" font-family="Arial" font-size="14.00" fill="#666666">[integer]</text>
<polygon fill="none" stroke="#000000" points="442,-342.5 442,-372.5 693,-372.5 693,-342.5 442,-342.5"/>
<text text-anchor="start" x="449" y="-353.9" font-family="Arial" font-size="14.00" fill="#000000">ou_type    </text>
<text text-anchor="start" x="533.0084" y="-353.9" font-family="Arial" font-size="14.00" fill="#666666">[integer]</text>
<polygon fill="none" stroke="#000000" points="442,-312.5 442,-342.5 693,-342.5 693,-312.5 442,-312.5"/>
<text text-anchor="start" x="449" y="-323.9" font-family="Arial" font-size="14.00" fill="#000000">ill_address    </text>
<text text-anchor="start" x="550.0982" y="-323.9" font-family="Arial" font-size="14.00" fill="#666666">[integer]</text>
<polygon fill="none" stroke="#000000" points="442,-282.5 442,-312.5 693,-312.5 693,-282.5 442,-282.5"/>
<text text-anchor="start" x="449" y="-293.9" font-family="Arial" font-size="14.00" fill="#000000">holds_address    </text>
<text text-anchor="start" x="574.2328" y="-293.9" font-family="Arial" font-size="14.00" fill="#666666">[integer]</text>
<polygon fill="none" stroke="#000000" points="442,-252.5 442,-282.5 693,-282.5 693,-252.5 442,-252.5"/>
<text text-anchor="start" x="449" y="-263.9" font-family="Arial" font-size="14.00" fill="#000000">mailing_address    </text>
<text text-anchor="start" x="585.1066" y="-263.9" font-family="Arial" font-size="14.00" fill="#666666">[integer]</text>
<polygon fill="none" stroke="#000000" points="442,-222.5 442,-252.5 693,-252.5 693,-222.5 442,-222.5"/>
<text text-anchor="start" x="449" y="-233.9" font-family="Arial" font-size="14.00" fill="#000000">billing_address    </text>
<text text-anchor="start" x="576.5526" y="-233.9" font-family="Arial" font-size="14.00" fill="#666666">[integer]</text>
<polygon fill="none" stroke="#000000" points="442,-192.5 442,-222.5 693,-222.5 693,-192.5 442,-192.5"/>
<text text-anchor="start" x="449" y="-203.9" font-family="Arial" font-size="14.00" fill="#000000">shortname    </text>
<text text-anchor="start" x="549.3296" y="-203.9" font-family="Arial" font-size="14.00" fill="#666666">[text]</text>
<polygon fill="none" stroke="#000000" points="442,-162.5 442,-192.5 693,-192.5 693,-162.5 442,-162.5"/>
<text text-anchor="start" x="449" y="-173.9" font-family="Arial" font-size="14.00" fill="#000000">name    </text>
<text text-anchor="start" x="518.2132" y="-173.9" font-family="Arial" font-size="14.00" fill="#666666">[text]</text>
<polygon fill="none" stroke="#000000" points="442,-132.5 442,-162.5 693,-162.5 693,-132.5 442,-132.5"/>
<text text-anchor="start" x="449" y="-143.9" font-family="Arial" font-size="14.00" fill="#000000">email    </text>
<text text-anchor="start" x="516.6438" y="-143.9" font-family="Arial" font-size="14.00" fill="#666666">[text]</text>
<polygon fill="none" stroke="#000000" points="442,-102.5 442,-132.5 693,-132.5 693,-102.5 442,-102.5"/>
<text text-anchor="start" x="449" y="-113.9" font-family="Arial" font-size="14.00" fill="#000000">phone    </text>
<text text-anchor="start" x="522.1178" y="-113.9" font-family="Arial" font-size="14.00" fill="#666666">[text]</text>
<polygon fill="none" stroke="#000000" points="442,-72.5 442,-102.5 693,-102.5 693,-72.5 442,-72.5"/>
<text text-anchor="start" x="449" y="-83.9" font-family="Arial" font-size="14.00" fill="#000000">opac_visible    </text>
<text text-anchor="start" x="560.2202" y="-83.9" font-family="Arial" font-size="14.00" fill="#666666">[boolean]</text>
<polygon fill="none" stroke="#000000" points="442,-42.5 442,-72.5 693,-72.5 693,-42.5 442,-42.5"/>
<text text-anchor="start" x="449" y="-53.9" font-family="Arial" font-size="14.00" fill="#000000">fiscal_calendar    </text>
<text text-anchor="start" x="576.554" y="-53.9" font-family="Arial" font-size="14.00" fill="#666666">[integer]</text>
</g>
<!-- action.survey&#45;&gt;actor.org_unit -->
<g id="edge3" class="edge">
<title>action.survey:owner&#45;&gt;actor.org_unit:id</title>
<path fill="none" stroke="#000000" d="M433.827,-847.084C252.8776,-832.1032 254.3396,-417.5 442,-417.5"/>
<polygon fill="#000000" stroke="#000000" points="434.0083,-847.0913 443.8161,-851.9962 439.0042,-847.2957 444,-847.5 444,-847.5 444,-847.5 439.0042,-847.2957 444.1839,-843.0038 434.0083,-847.0913 434.0083,-847.0913"/>
<text text-anchor="start" x="6.714" y="-857.5" font-family="Arial" font-size="10.00" fill="#000000">FOREIGN KEY (owner) REFERENCES actor.org_unit(id) DEFERRABLE INITIALLY DEFERRED</text>
</g>
<!-- action.survey_question -->
<g id="node2" class="node">
<title>action.survey_question</title>
<polygon fill="#efefef" stroke="transparent" points="189,-1217.5 189,-1252.5 514,-1252.5 514,-1217.5 189,-1217.5"/>
<polygon fill="none" stroke="#000000" points="189,-1217.5 189,-1252.5 514,-1252.5 514,-1217.5 189,-1217.5"/>
<text text-anchor="start" x="195.6883" y="-1230.3" font-family="Arial Bold" font-size="18.00" fill="#000000">action.survey_question</text>
<text text-anchor="start" x="379.7437" y="-1230.3" font-family="Arial" font-size="14.00" fill="#000000">    </text>
<text text-anchor="start" x="413.9485" y="-1230.3" font-family="Arial" font-size="14.00" fill="#666666">[BASE TABLE]</text>
<polygon fill="none" stroke="#000000" points="189,-1187.5 189,-1217.5 514,-1217.5 514,-1187.5 189,-1187.5"/>
<text text-anchor="start" x="196" y="-1198.9" font-family="Arial" font-size="14.00" fill="#000000">id    </text>
<text text-anchor="start" x="241.094" y="-1198.9" font-family="Arial" font-size="14.00" fill="#666666">[integer]</text>
<polygon fill="none" stroke="#000000" points="189,-1157.5 189,-1187.5 514,-1187.5 514,-1157.5 189,-1157.5"/>
<text text-anchor="start" x="196" y="-1168.9" font-family="Arial" font-size="14.00" fill="#000000">survey    </text>
<text text-anchor="start" x="271.4306" y="-1168.9" font-family="Arial" font-size="14.00" fill="#666666">[integer]</text>
<polygon fill="none" stroke="#000000" points="189,-1127.5 189,-1157.5 514,-1157.5 514,-1127.5 189,-1127.5"/>
<text text-anchor="start" x="196" y="-1138.9" font-family="Arial" font-size="14.00" fill="#000000">question    </text>
<text text-anchor="start" x="283.115" y="-1138.9" font-family="Arial" font-size="14.00" fill="#666666">[text]</text>
</g>
<!-- action.survey_question&#45;&gt;action.survey -->
<g id="edge1" class="edge">
<title>action.survey_question:survey&#45;&gt;action.survey:id</title>
<path fill="none" stroke="#000000" d="M524.1683,-1170.9006C547.1555,-1162.0658 523.6578,-1118.4198 514,-1085 497.8079,-1028.9688 460.1921,-1030.0312 444,-974 432.0931,-932.7971 401.1111,-877.5 444,-877.5"/>
<polygon fill="#000000" stroke="#000000" points="523.8785,-1170.9461 513.3007,-1168.0547 518.9393,-1171.7231 514,-1172.5 514,-1172.5 514,-1172.5 518.9393,-1171.7231 514.6993,-1176.9453 523.8785,-1170.9461 523.8785,-1170.9461"/>
<text text-anchor="start" x="76.716" y="-1182.5" font-family="Arial" font-size="10.00" fill="#000000">FOREIGN KEY (survey) REFERENCES action.survey(id) DEFERRABLE INITIALLY DEFERRED</text>
</g>
<!-- action.survey_response -->
<g id="node3" class="node">
<title>action.survey_response</title>
<polygon fill="#efefef" stroke="transparent" points="618,-1292.5 618,-1327.5 949,-1327.5 949,-1292.5 618,-1292.5"/>
<polygon fill="none" stroke="#000000" points="618,-1292.5 618,-1327.5 949,-1327.5 949,-1292.5 618,-1292.5"/>
<text text-anchor="start" x="624.6904" y="-1305.3" font-family="Arial Bold" font-size="18.00" fill="#000000">action.survey_response</text>
<text text-anchor="start" x="814.7416" y="-1305.3" font-family="Arial" font-size="14.00" fill="#000000">    </text>
<text text-anchor="start" x="848.9464" y="-1305.3" font-family="Arial" font-size="14.00" fill="#666666">[BASE TABLE]</text>
<polygon fill="none" stroke="#000000" points="618,-1262.5 618,-1292.5 949,-1292.5 949,-1262.5 618,-1262.5"/>
<text text-anchor="start" x="625" y="-1273.9" font-family="Arial" font-size="14.00" fill="#000000">id    </text>
<text text-anchor="start" x="670.094" y="-1273.9" font-family="Arial" font-size="14.00" fill="#666666">[bigint]</text>
<polygon fill="none" stroke="#000000" points="618,-1232.5 618,-1262.5 949,-1262.5 949,-1232.5 618,-1232.5"/>
<text text-anchor="start" x="625" y="-1243.9" font-family="Arial" font-size="14.00" fill="#000000">response_group_id    </text>
<text text-anchor="start" x="779.0238" y="-1243.9" font-family="Arial" font-size="14.00" fill="#666666">[integer]</text>
<polygon fill="none" stroke="#000000" points="618,-1202.5 618,-1232.5 949,-1232.5 949,-1202.5 618,-1202.5"/>
<text text-anchor="start" x="625" y="-1213.9" font-family="Arial" font-size="14.00" fill="#000000">usr    </text>
<text text-anchor="start" x="678.648" y="-1213.9" font-family="Arial" font-size="14.00" fill="#666666">[integer]</text>
<polygon fill="none" stroke="#000000" points="618,-1172.5 618,-1202.5 949,-1202.5 949,-1172.5 618,-1172.5"/>
<text text-anchor="start" x="625" y="-1183.9" font-family="Arial" font-size="14.00" fill="#000000">survey    </text>
<text text-anchor="start" x="700.4306" y="-1183.9" font-family="Arial" font-size="14.00" fill="#666666">[integer]</text>
<polygon fill="none" stroke="#000000" points="618,-1142.5 618,-1172.5 949,-1172.5 949,-1142.5 618,-1142.5"/>
<text text-anchor="start" x="625" y="-1153.9" font-family="Arial" font-size="14.00" fill="#000000">question    </text>
<text text-anchor="start" x="712.115" y="-1153.9" font-family="Arial" font-size="14.00" fill="#666666">[integer]</text>
<polygon fill="none" stroke="#000000" points="618,-1112.5 618,-1142.5 949,-1142.5 949,-1112.5 618,-1112.5"/>
<text text-anchor="start" x="625" y="-1123.9" font-family="Arial" font-size="14.00" fill="#000000">answer    </text>
<text text-anchor="start" x="704.3198" y="-1123.9" font-family="Arial" font-size="14.00" fill="#666666">[integer]</text>
<polygon fill="none" stroke="#000000" points="618,-1082.5 618,-1112.5 949,-1112.5 949,-1082.5 618,-1082.5"/>
<text text-anchor="start" x="625" y="-1093.9" font-family="Arial" font-size="14.00" fill="#000000">answer_date    </text>
<text text-anchor="start" x="739.3408" y="-1093.9" font-family="Arial" font-size="14.00" fill="#666666">[timestamp with time zone]</text>
<polygon fill="none" stroke="#000000" points="618,-1052.5 618,-1082.5 949,-1082.5 949,-1052.5 618,-1052.5"/>
<text text-anchor="start" x="625" y="-1063.9" font-family="Arial" font-size="14.00" fill="#000000">effective_date    </text>
<text text-anchor="start" x="746.352" y="-1063.9" font-family="Arial" font-size="14.00" fill="#666666">[timestamp with time zone]</text>
</g>
<!-- action.survey_response&#45;&gt;action.survey -->
<g id="edge2" class="edge">
<title>action.survey_response:survey&#45;&gt;action.survey:id</title>
<path fill="none" stroke="#000000" d="M607.6602,-1186.7874C542.6112,-1177.2356 578.2942,-1073.8524 618,-1010 637.1029,-979.2799 671.8971,-1004.7201 691,-974 713.6482,-937.5786 733.8889,-877.5 691,-877.5"/>
<polygon fill="#000000" stroke="#000000" points="608.0237,-1186.8124 617.6906,-1191.9894 613.0118,-1187.1562 618,-1187.5 618,-1187.5 618,-1187.5 613.0118,-1187.1562 618.3094,-1183.0106 608.0237,-1186.8124 608.0237,-1186.8124"/>
<text text-anchor="start" x="624.716" y="-1197.5" font-family="Arial" font-size="10.00" fill="#000000">FOREIGN KEY (survey) REFERENCES action.survey(id) DEFERRABLE INITIALLY DEFERRED</text>
</g>
</g>
</svg>
