<?xml version="1.0" encoding="UTF-8" standalone="no"?>
<!DOCTYPE svg PUBLIC "-//W3C//DTD SVG 1.1//EN"
 "http://www.w3.org/Graphics/SVG/1.1/DTD/svg11.dtd">
<!-- Generated by graphviz version 2.40.1 (20161225.0304)
 -->
<!-- Title: action.survey_answer Pages: 1 -->
<svg width="870pt" height="869pt"
 viewBox="0.00 0.00 869.50 869.00" xmlns="http://www.w3.org/2000/svg" xmlns:xlink="http://www.w3.org/1999/xlink">
<g id="graph0" class="graph" transform="scale(1 1) rotate(0) translate(4 865)">
<title>action.survey_answer</title>
<polygon fill="#ffffff" stroke="transparent" points="-4,4 -4,-865 865.5,-865 865.5,4 -4,4"/>
<!-- action.survey_answer -->
<g id="node1" class="node">
<title>action.survey_answer</title>
<polygon fill="#efefef" stroke="transparent" points="496,-382.5 496,-417.5 811,-417.5 811,-382.5 496,-382.5"/>
<polygon fill="none" stroke="#000000" points="496,-382.5 496,-417.5 811,-417.5 811,-382.5 496,-382.5"/>
<text text-anchor="start" x="502.6995" y="-395.3" font-family="Arial Bold" font-size="18.00" fill="#000000">action.survey_answer</text>
<text text-anchor="start" x="676.7325" y="-395.3" font-family="Arial" font-size="14.00" fill="#000000">    </text>
<text text-anchor="start" x="710.9373" y="-395.3" font-family="Arial" font-size="14.00" fill="#666666">[BASE TABLE]</text>
<polygon fill="none" stroke="#000000" points="496,-352.5 496,-382.5 811,-382.5 811,-352.5 496,-352.5"/>
<text text-anchor="start" x="503" y="-363.9" font-family="Arial" font-size="14.00" fill="#000000">id </text>
<text text-anchor="start" x="517.7798" y="-363.9" font-family="Arial" font-size="14.00" fill="#666666">[integer]</text>
<polygon fill="none" stroke="#000000" points="496,-322.5 496,-352.5 811,-352.5 811,-322.5 496,-322.5"/>
<text text-anchor="start" x="503" y="-333.9" font-family="Arial" font-size="14.00" fill="#000000">question </text>
<text text-anchor="start" x="559.8008" y="-333.9" font-family="Arial" font-size="14.00" fill="#666666">[integer]</text>
<polygon fill="none" stroke="#000000" points="496,-292.5 496,-322.5 811,-322.5 811,-292.5 496,-292.5"/>
<text text-anchor="start" x="503" y="-303.9" font-family="Arial" font-size="14.00" fill="#000000">answer </text>
<text text-anchor="start" x="552.0056" y="-303.9" font-family="Arial" font-size="14.00" fill="#666666">[text]</text>
<polygon fill="none" stroke="#000000" stroke-width="3" points="494,-291.5 494,-419.5 812,-419.5 812,-291.5 494,-291.5"/>
</g>
<!-- action.survey_question -->
<g id="node3" class="node">
<title>action.survey_question</title>
<polygon fill="#efefef" stroke="transparent" points="491,-132.5 491,-167.5 816,-167.5 816,-132.5 491,-132.5"/>
<polygon fill="none" stroke="#000000" points="491,-132.5 491,-167.5 816,-167.5 816,-132.5 491,-132.5"/>
<text text-anchor="start" x="497.6883" y="-145.3" font-family="Arial Bold" font-size="18.00" fill="#000000">action.survey_question</text>
<text text-anchor="start" x="681.7437" y="-145.3" font-family="Arial" font-size="14.00" fill="#000000">    </text>
<text text-anchor="start" x="715.9485" y="-145.3" font-family="Arial" font-size="14.00" fill="#666666">[BASE TABLE]</text>
<polygon fill="none" stroke="#000000" points="491,-102.5 491,-132.5 816,-132.5 816,-102.5 491,-102.5"/>
<text text-anchor="start" x="498" y="-113.9" font-family="Arial" font-size="14.00" fill="#000000">id    </text>
<text text-anchor="start" x="543.094" y="-113.9" font-family="Arial" font-size="14.00" fill="#666666">[integer]</text>
<polygon fill="none" stroke="#000000" points="491,-72.5 491,-102.5 816,-102.5 816,-72.5 491,-72.5"/>
<text text-anchor="start" x="498" y="-83.9" font-family="Arial" font-size="14.00" fill="#000000">survey    </text>
<text text-anchor="start" x="573.4306" y="-83.9" font-family="Arial" font-size="14.00" fill="#666666">[integer]</text>
<polygon fill="none" stroke="#000000" points="491,-42.5 491,-72.5 816,-72.5 816,-42.5 491,-42.5"/>
<text text-anchor="start" x="498" y="-53.9" font-family="Arial" font-size="14.00" fill="#000000">question    </text>
<text text-anchor="start" x="585.115" y="-53.9" font-family="Arial" font-size="14.00" fill="#666666">[text]</text>
</g>
<!-- action.survey_answer&#45;&gt;action.survey_question -->
<g id="edge2" class="edge">
<title>action.survey_answer:question&#45;&gt;action.survey_question:id</title>
<path fill="none" stroke="#000000" d="M486.0294,-336.7034C397.9725,-322.3032 396.6354,-117.5 491,-117.5"/>
<polygon fill="#000000" stroke="#000000" points="486.0318,-336.7035 495.6416,-341.9857 491.0159,-337.1017 496,-337.5 496,-337.5 496,-337.5 491.0159,-337.1017 496.3584,-333.0143 486.0318,-336.7035 486.0318,-336.7035"/>
<text text-anchor="start" x="6.867" y="-347.5" font-family="Arial" font-size="10.00" fill="#000000">FOREIGN KEY (question) REFERENCES action.survey_question(id) DEFERRABLE INITIALLY DEFERRED</text>
</g>
<!-- action.survey_response -->
<g id="node2" class="node">
<title>action.survey_response</title>
<polygon fill="#efefef" stroke="transparent" points="488,-782.5 488,-817.5 819,-817.5 819,-782.5 488,-782.5"/>
<polygon fill="none" stroke="#000000" points="488,-782.5 488,-817.5 819,-817.5 819,-782.5 488,-782.5"/>
<text text-anchor="start" x="494.6904" y="-795.3" font-family="Arial Bold" font-size="18.00" fill="#000000">action.survey_response</text>
<text text-anchor="start" x="684.7416" y="-795.3" font-family="Arial" font-size="14.00" fill="#000000">    </text>
<text text-anchor="start" x="718.9464" y="-795.3" font-family="Arial" font-size="14.00" fill="#666666">[BASE TABLE]</text>
<polygon fill="none" stroke="#000000" points="488,-752.5 488,-782.5 819,-782.5 819,-752.5 488,-752.5"/>
<text text-anchor="start" x="495" y="-763.9" font-family="Arial" font-size="14.00" fill="#000000">id    </text>
<text text-anchor="start" x="540.094" y="-763.9" font-family="Arial" font-size="14.00" fill="#666666">[bigint]</text>
<polygon fill="none" stroke="#000000" points="488,-722.5 488,-752.5 819,-752.5 819,-722.5 488,-722.5"/>
<text text-anchor="start" x="495" y="-733.9" font-family="Arial" font-size="14.00" fill="#000000">response_group_id    </text>
<text text-anchor="start" x="649.0238" y="-733.9" font-family="Arial" font-size="14.00" fill="#666666">[integer]</text>
<polygon fill="none" stroke="#000000" points="488,-692.5 488,-722.5 819,-722.5 819,-692.5 488,-692.5"/>
<text text-anchor="start" x="495" y="-703.9" font-family="Arial" font-size="14.00" fill="#000000">usr    </text>
<text text-anchor="start" x="548.648" y="-703.9" font-family="Arial" font-size="14.00" fill="#666666">[integer]</text>
<polygon fill="none" stroke="#000000" points="488,-662.5 488,-692.5 819,-692.5 819,-662.5 488,-662.5"/>
<text text-anchor="start" x="495" y="-673.9" font-family="Arial" font-size="14.00" fill="#000000">survey    </text>
<text text-anchor="start" x="570.4306" y="-673.9" font-family="Arial" font-size="14.00" fill="#666666">[integer]</text>
<polygon fill="none" stroke="#000000" points="488,-632.5 488,-662.5 819,-662.5 819,-632.5 488,-632.5"/>
<text text-anchor="start" x="495" y="-643.9" font-family="Arial" font-size="14.00" fill="#000000">question    </text>
<text text-anchor="start" x="582.115" y="-643.9" font-family="Arial" font-size="14.00" fill="#666666">[integer]</text>
<polygon fill="none" stroke="#000000" points="488,-602.5 488,-632.5 819,-632.5 819,-602.5 488,-602.5"/>
<text text-anchor="start" x="495" y="-613.9" font-family="Arial" font-size="14.00" fill="#000000">answer    </text>
<text text-anchor="start" x="574.3198" y="-613.9" font-family="Arial" font-size="14.00" fill="#666666">[integer]</text>
<polygon fill="none" stroke="#000000" points="488,-572.5 488,-602.5 819,-602.5 819,-572.5 488,-572.5"/>
<text text-anchor="start" x="495" y="-583.9" font-family="Arial" font-size="14.00" fill="#000000">answer_date    </text>
<text text-anchor="start" x="609.3408" y="-583.9" font-family="Arial" font-size="14.00" fill="#666666">[timestamp with time zone]</text>
<polygon fill="none" stroke="#000000" points="488,-542.5 488,-572.5 819,-572.5 819,-542.5 488,-542.5"/>
<text text-anchor="start" x="495" y="-553.9" font-family="Arial" font-size="14.00" fill="#000000">effective_date    </text>
<text text-anchor="start" x="616.352" y="-553.9" font-family="Arial" font-size="14.00" fill="#666666">[timestamp with time zone]</text>
</g>
<!-- action.survey_response&#45;&gt;action.survey_answer -->
<g id="edge1" class="edge">
<title>action.survey_response:answer&#45;&gt;action.survey_answer:id</title>
<path fill="none" stroke="#000000" d="M477.9266,-616.7828C377.4328,-602.1191 388.306,-367.5 496,-367.5"/>
<polygon fill="#000000" stroke="#000000" points="478.0252,-616.7898 487.6804,-621.9886 483.0126,-617.1449 488,-617.5 488,-617.5 488,-617.5 483.0126,-617.1449 488.3196,-613.0114 478.0252,-616.7898 478.0252,-616.7898"/>
<text text-anchor="start" x="10.435" y="-627.5" font-family="Arial" font-size="10.00" fill="#000000">FOREIGN KEY (answer) REFERENCES action.survey_answer(id) DEFERRABLE INITIALLY DEFERRED</text>
</g>
</g>
</svg>
