<?xml version="1.0" encoding="UTF-8" standalone="no"?>
<!DOCTYPE svg PUBLIC "-//W3C//DTD SVG 1.1//EN"
 "http://www.w3.org/Graphics/SVG/1.1/DTD/svg11.dtd">
<!-- Generated by graphviz version 2.40.1 (20161225.0304)
 -->
<!-- Title: action.emergency_closing_reservation Pages: 1 -->
<svg width="1727pt" height="1162pt"
 viewBox="0.00 0.00 1727.00 1162.00" xmlns="http://www.w3.org/2000/svg" xmlns:xlink="http://www.w3.org/1999/xlink">
<g id="graph0" class="graph" transform="scale(1 1) rotate(0) translate(4 1158)">
<title>action.emergency_closing_reservation</title>
<polygon fill="#ffffff" stroke="transparent" points="-4,4 -4,-1158 1723,-1158 1723,4 -4,4"/>
<!-- action.emergency_closing_reservation -->
<g id="node1" class="node">
<title>action.emergency_closing_reservation</title>
<polygon fill="#efefef" stroke="transparent" points="668,-1072.5 668,-1107.5 1116,-1107.5 1116,-1072.5 668,-1072.5"/>
<polygon fill="none" stroke="#000000" points="668,-1072.5 668,-1107.5 1116,-1107.5 1116,-1072.5 668,-1072.5"/>
<text text-anchor="start" x="674.6841" y="-1085.3" font-family="Arial Bold" font-size="18.00" fill="#000000">action.emergency_closing_reservation</text>
<text text-anchor="start" x="981.7479" y="-1085.3" font-family="Arial" font-size="14.00" fill="#000000">    </text>
<text text-anchor="start" x="1015.9527" y="-1085.3" font-family="Arial" font-size="14.00" fill="#666666">[BASE TABLE]</text>
<polygon fill="none" stroke="#000000" points="668,-1042.5 668,-1072.5 1116,-1072.5 1116,-1042.5 668,-1042.5"/>
<text text-anchor="start" x="675" y="-1053.9" font-family="Arial" font-size="14.00" fill="#000000">id </text>
<text text-anchor="start" x="689.7798" y="-1053.9" font-family="Arial" font-size="14.00" fill="#666666">[bigint]</text>
<polygon fill="none" stroke="#000000" points="668,-1012.5 668,-1042.5 1116,-1042.5 1116,-1012.5 668,-1012.5"/>
<text text-anchor="start" x="675" y="-1023.9" font-family="Arial" font-size="14.00" fill="#000000">emergency_closing </text>
<text text-anchor="start" x="799.4684" y="-1023.9" font-family="Arial" font-size="14.00" fill="#666666">[integer]</text>
<polygon fill="none" stroke="#000000" points="668,-982.5 668,-1012.5 1116,-1012.5 1116,-982.5 668,-982.5"/>
<text text-anchor="start" x="675" y="-993.9" font-family="Arial" font-size="14.00" fill="#000000">reservation </text>
<text text-anchor="start" x="748.122" y="-993.9" font-family="Arial" font-size="14.00" fill="#666666">[integer]</text>
<polygon fill="none" stroke="#000000" points="668,-952.5 668,-982.5 1116,-982.5 1116,-952.5 668,-952.5"/>
<text text-anchor="start" x="675" y="-963.9" font-family="Arial" font-size="14.00" fill="#000000">original_end_time </text>
<text text-anchor="start" x="789.3548" y="-963.9" font-family="Arial" font-size="14.00" fill="#666666">[timestamp with time zone]</text>
<polygon fill="none" stroke="#000000" points="668,-922.5 668,-952.5 1116,-952.5 1116,-922.5 668,-922.5"/>
<text text-anchor="start" x="675" y="-933.9" font-family="Arial" font-size="14.00" fill="#000000">process_time </text>
<text text-anchor="start" x="762.122" y="-933.9" font-family="Arial" font-size="14.00" fill="#666666">[timestamp with time zone]</text>
<polygon fill="none" stroke="#000000" stroke-width="3" points="666.5,-921.5 666.5,-1109.5 1117.5,-1109.5 1117.5,-921.5 666.5,-921.5"/>
</g>
<!-- action.emergency_closing -->
<g id="node2" class="node">
<title>action.emergency_closing</title>
<polygon fill="#efefef" stroke="transparent" points="504,-492.5 504,-527.5 853,-527.5 853,-492.5 504,-492.5"/>
<polygon fill="none" stroke="#000000" points="504,-492.5 504,-527.5 853,-527.5 853,-492.5 504,-492.5"/>
<text text-anchor="start" x="510.6931" y="-505.3" font-family="Arial Bold" font-size="18.00" fill="#000000">action.emergency_closing</text>
<text text-anchor="start" x="718.7389" y="-505.3" font-family="Arial" font-size="14.00" fill="#000000">    </text>
<text text-anchor="start" x="752.9437" y="-505.3" font-family="Arial" font-size="14.00" fill="#666666">[BASE TABLE]</text>
<polygon fill="none" stroke="#000000" points="504,-462.5 504,-492.5 853,-492.5 853,-462.5 504,-462.5"/>
<text text-anchor="start" x="511" y="-473.9" font-family="Arial" font-size="14.00" fill="#000000">id    </text>
<text text-anchor="start" x="556.094" y="-473.9" font-family="Arial" font-size="14.00" fill="#666666">[integer]</text>
<polygon fill="none" stroke="#000000" points="504,-432.5 504,-462.5 853,-462.5 853,-432.5 504,-432.5"/>
<text text-anchor="start" x="511" y="-443.9" font-family="Arial" font-size="14.00" fill="#000000">creator    </text>
<text text-anchor="start" x="588.7644" y="-443.9" font-family="Arial" font-size="14.00" fill="#666666">[integer]</text>
<polygon fill="none" stroke="#000000" points="504,-402.5 504,-432.5 853,-432.5 853,-402.5 504,-402.5"/>
<text text-anchor="start" x="511" y="-413.9" font-family="Arial" font-size="14.00" fill="#000000">create_time    </text>
<text text-anchor="start" x="618.3268" y="-413.9" font-family="Arial" font-size="14.00" fill="#666666">[timestamp with time zone]</text>
<polygon fill="none" stroke="#000000" points="504,-372.5 504,-402.5 853,-402.5 853,-372.5 504,-372.5"/>
<text text-anchor="start" x="511" y="-383.9" font-family="Arial" font-size="14.00" fill="#000000">process_start_time    </text>
<text text-anchor="start" x="663.4432" y="-383.9" font-family="Arial" font-size="14.00" fill="#666666">[timestamp with time zone]</text>
<polygon fill="none" stroke="#000000" points="504,-342.5 504,-372.5 853,-372.5 853,-342.5 504,-342.5"/>
<text text-anchor="start" x="511" y="-353.9" font-family="Arial" font-size="14.00" fill="#000000">process_end_time    </text>
<text text-anchor="start" x="659.5666" y="-353.9" font-family="Arial" font-size="14.00" fill="#666666">[timestamp with time zone]</text>
<polygon fill="none" stroke="#000000" points="504,-312.5 504,-342.5 853,-342.5 853,-312.5 504,-312.5"/>
<text text-anchor="start" x="511" y="-323.9" font-family="Arial" font-size="14.00" fill="#000000">last_update_time    </text>
<text text-anchor="start" x="651.7938" y="-323.9" font-family="Arial" font-size="14.00" fill="#666666">[timestamp with time zone]</text>
</g>
<!-- action.emergency_closing_reservation&#45;&gt;action.emergency_closing -->
<g id="edge1" class="edge">
<title>action.emergency_closing_reservation:emergency_closing&#45;&gt;action.emergency_closing:id</title>
<path fill="none" stroke="#000000" d="M657.7221,-1026.6912C606.5542,-1017.8195 651.0544,-937.7823 668,-877 710.6789,-723.915 810.3211,-724.085 853,-571 864.1598,-530.971 894.5556,-477.5 853,-477.5"/>
<polygon fill="#000000" stroke="#000000" points="658.0308,-1026.7154 667.6469,-1031.9861 663.0154,-1027.1077 668,-1027.5 668,-1027.5 668,-1027.5 663.0154,-1027.1077 668.3531,-1023.0139 658.0308,-1026.7154 658.0308,-1026.7154"/>
<text text-anchor="start" x="6.755" y="-1037.5" font-family="Arial" font-size="10.00" fill="#000000">FOREIGN KEY (emergency_closing) REFERENCES action.emergency_closing(id) ON DELETE CASCADE DEFERRABLE INITIALLY DEFERRED</text>
</g>
<!-- booking.reservation -->
<g id="node3" class="node">
<title>booking.reservation</title>
<polygon fill="#efefef" stroke="transparent" points="957,-762.5 957,-797.5 1255,-797.5 1255,-762.5 957,-762.5"/>
<polygon fill="none" stroke="#000000" points="957,-762.5 957,-797.5 1255,-797.5 1255,-762.5 957,-762.5"/>
<text text-anchor="start" x="963.6964" y="-775.3" font-family="Arial Bold" font-size="18.00" fill="#000000">booking.reservation</text>
<text text-anchor="start" x="1120.7356" y="-775.3" font-family="Arial" font-size="14.00" fill="#000000">    </text>
<text text-anchor="start" x="1154.9404" y="-775.3" font-family="Arial" font-size="14.00" fill="#666666">[BASE TABLE]</text>
<polygon fill="none" stroke="#000000" points="957,-732.5 957,-762.5 1255,-762.5 1255,-732.5 957,-732.5"/>
<text text-anchor="start" x="964" y="-743.9" font-family="Arial" font-size="14.00" fill="#000000">id    </text>
<text text-anchor="start" x="1009.094" y="-743.9" font-family="Arial" font-size="14.00" fill="#666666">[bigint]</text>
<polygon fill="none" stroke="#000000" points="957,-702.5 957,-732.5 1255,-732.5 1255,-702.5 957,-702.5"/>
<text text-anchor="start" x="964" y="-713.9" font-family="Arial" font-size="14.00" fill="#000000">usr    </text>
<text text-anchor="start" x="1017.648" y="-713.9" font-family="Arial" font-size="14.00" fill="#666666">[integer]</text>
<polygon fill="none" stroke="#000000" points="957,-672.5 957,-702.5 1255,-702.5 1255,-672.5 957,-672.5"/>
<text text-anchor="start" x="964" y="-683.9" font-family="Arial" font-size="14.00" fill="#000000">xact_start    </text>
<text text-anchor="start" x="1058.885" y="-683.9" font-family="Arial" font-size="14.00" fill="#666666">[timestamp with time zone]</text>
<polygon fill="none" stroke="#000000" points="957,-642.5 957,-672.5 1255,-672.5 1255,-642.5 957,-642.5"/>
<text text-anchor="start" x="964" y="-653.9" font-family="Arial" font-size="14.00" fill="#000000">xact_finish    </text>
<text text-anchor="start" x="1064.3296" y="-653.9" font-family="Arial" font-size="14.00" fill="#666666">[timestamp with time zone]</text>
<polygon fill="none" stroke="#000000" points="957,-612.5 957,-642.5 1255,-642.5 1255,-612.5 957,-612.5"/>
<text text-anchor="start" x="964" y="-623.9" font-family="Arial" font-size="14.00" fill="#000000">unrecovered    </text>
<text text-anchor="start" x="1076.0042" y="-623.9" font-family="Arial" font-size="14.00" fill="#666666">[boolean]</text>
<polygon fill="none" stroke="#000000" points="957,-582.5 957,-612.5 1255,-612.5 1255,-582.5 957,-582.5"/>
<text text-anchor="start" x="964" y="-593.9" font-family="Arial" font-size="14.00" fill="#000000">request_time    </text>
<text text-anchor="start" x="1079.1094" y="-593.9" font-family="Arial" font-size="14.00" fill="#666666">[timestamp with time zone]</text>
<polygon fill="none" stroke="#000000" points="957,-552.5 957,-582.5 1255,-582.5 1255,-552.5 957,-552.5"/>
<text text-anchor="start" x="964" y="-563.9" font-family="Arial" font-size="14.00" fill="#000000">start_time    </text>
<text text-anchor="start" x="1059.6522" y="-563.9" font-family="Arial" font-size="14.00" fill="#666666">[timestamp with time zone]</text>
<polygon fill="none" stroke="#000000" points="957,-522.5 957,-552.5 1255,-552.5 1255,-522.5 957,-522.5"/>
<text text-anchor="start" x="964" y="-533.9" font-family="Arial" font-size="14.00" fill="#000000">end_time    </text>
<text text-anchor="start" x="1055.7756" y="-533.9" font-family="Arial" font-size="14.00" fill="#666666">[timestamp with time zone]</text>
<polygon fill="none" stroke="#000000" points="957,-492.5 957,-522.5 1255,-522.5 1255,-492.5 957,-492.5"/>
<text text-anchor="start" x="964" y="-503.9" font-family="Arial" font-size="14.00" fill="#000000">capture_time    </text>
<text text-anchor="start" x="1079.1094" y="-503.9" font-family="Arial" font-size="14.00" fill="#666666">[timestamp with time zone]</text>
<polygon fill="none" stroke="#000000" points="957,-462.5 957,-492.5 1255,-492.5 1255,-462.5 957,-462.5"/>
<text text-anchor="start" x="964" y="-473.9" font-family="Arial" font-size="14.00" fill="#000000">cancel_time    </text>
<text text-anchor="start" x="1072.8822" y="-473.9" font-family="Arial" font-size="14.00" fill="#666666">[timestamp with time zone]</text>
<polygon fill="none" stroke="#000000" points="957,-432.5 957,-462.5 1255,-462.5 1255,-432.5 957,-432.5"/>
<text text-anchor="start" x="964" y="-443.9" font-family="Arial" font-size="14.00" fill="#000000">pickup_time    </text>
<text text-anchor="start" x="1072.8822" y="-443.9" font-family="Arial" font-size="14.00" fill="#666666">[timestamp with time zone]</text>
<polygon fill="none" stroke="#000000" points="957,-402.5 957,-432.5 1255,-432.5 1255,-402.5 957,-402.5"/>
<text text-anchor="start" x="964" y="-413.9" font-family="Arial" font-size="14.00" fill="#000000">return_time    </text>
<text text-anchor="start" x="1068.9874" y="-413.9" font-family="Arial" font-size="14.00" fill="#666666">[timestamp with time zone]</text>
<polygon fill="none" stroke="#000000" points="957,-372.5 957,-402.5 1255,-402.5 1255,-372.5 957,-372.5"/>
<text text-anchor="start" x="964" y="-383.9" font-family="Arial" font-size="14.00" fill="#000000">booking_interval    </text>
<text text-anchor="start" x="1100.1192" y="-383.9" font-family="Arial" font-size="14.00" fill="#666666">[interval]</text>
<polygon fill="none" stroke="#000000" points="957,-342.5 957,-372.5 1255,-372.5 1255,-342.5 957,-342.5"/>
<text text-anchor="start" x="964" y="-353.9" font-family="Arial" font-size="14.00" fill="#000000">fine_interval    </text>
<text text-anchor="start" x="1073.662" y="-353.9" font-family="Arial" font-size="14.00" fill="#666666">[interval]</text>
<polygon fill="none" stroke="#000000" points="957,-312.5 957,-342.5 1255,-342.5 1255,-312.5 957,-312.5"/>
<text text-anchor="start" x="964" y="-323.9" font-family="Arial" font-size="14.00" fill="#000000">fine_amount    </text>
<text text-anchor="start" x="1075.2314" y="-323.9" font-family="Arial" font-size="14.00" fill="#666666">[numeric(8,2)]</text>
<polygon fill="none" stroke="#000000" points="957,-282.5 957,-312.5 1255,-312.5 1255,-282.5 957,-282.5"/>
<text text-anchor="start" x="964" y="-293.9" font-family="Arial" font-size="14.00" fill="#000000">max_fine    </text>
<text text-anchor="start" x="1054.993" y="-293.9" font-family="Arial" font-size="14.00" fill="#666666">[numeric(8,2)]</text>
<polygon fill="none" stroke="#000000" points="957,-252.5 957,-282.5 1255,-282.5 1255,-252.5 957,-252.5"/>
<text text-anchor="start" x="964" y="-263.9" font-family="Arial" font-size="14.00" fill="#000000">target_resource_type    </text>
<text text-anchor="start" x="1130.467" y="-263.9" font-family="Arial" font-size="14.00" fill="#666666">[integer]</text>
<polygon fill="none" stroke="#000000" points="957,-222.5 957,-252.5 1255,-252.5 1255,-222.5 957,-222.5"/>
<text text-anchor="start" x="964" y="-233.9" font-family="Arial" font-size="14.00" fill="#000000">target_resource    </text>
<text text-anchor="start" x="1096.2286" y="-233.9" font-family="Arial" font-size="14.00" fill="#666666">[integer]</text>
<polygon fill="none" stroke="#000000" points="957,-192.5 957,-222.5 1255,-222.5 1255,-192.5 957,-192.5"/>
<text text-anchor="start" x="964" y="-203.9" font-family="Arial" font-size="14.00" fill="#000000">current_resource    </text>
<text text-anchor="start" x="1103.9986" y="-203.9" font-family="Arial" font-size="14.00" fill="#666666">[integer]</text>
<polygon fill="none" stroke="#000000" points="957,-162.5 957,-192.5 1255,-192.5 1255,-162.5 957,-162.5"/>
<text text-anchor="start" x="964" y="-173.9" font-family="Arial" font-size="14.00" fill="#000000">request_lib    </text>
<text text-anchor="start" x="1066.6648" y="-173.9" font-family="Arial" font-size="14.00" fill="#666666">[integer]</text>
<polygon fill="none" stroke="#000000" points="957,-132.5 957,-162.5 1255,-162.5 1255,-132.5 957,-132.5"/>
<text text-anchor="start" x="964" y="-143.9" font-family="Arial" font-size="14.00" fill="#000000">pickup_lib    </text>
<text text-anchor="start" x="1060.4376" y="-143.9" font-family="Arial" font-size="14.00" fill="#666666">[integer]</text>
<polygon fill="none" stroke="#000000" points="957,-102.5 957,-132.5 1255,-132.5 1255,-102.5 957,-102.5"/>
<text text-anchor="start" x="964" y="-113.9" font-family="Arial" font-size="14.00" fill="#000000">capture_staff    </text>
<text text-anchor="start" x="1079.1234" y="-113.9" font-family="Arial" font-size="14.00" fill="#666666">[integer]</text>
<polygon fill="none" stroke="#000000" points="957,-72.5 957,-102.5 1255,-102.5 1255,-72.5 957,-72.5"/>
<text text-anchor="start" x="964" y="-83.9" font-family="Arial" font-size="14.00" fill="#000000">email_notify    </text>
<text text-anchor="start" x="1072.8794" y="-83.9" font-family="Arial" font-size="14.00" fill="#666666">[boolean]</text>
<polygon fill="none" stroke="#000000" points="957,-42.5 957,-72.5 1255,-72.5 1255,-42.5 957,-42.5"/>
<text text-anchor="start" x="964" y="-53.9" font-family="Arial" font-size="14.00" fill="#000000">note    </text>
<text text-anchor="start" x="1025.4432" y="-53.9" font-family="Arial" font-size="14.00" fill="#666666">[text]</text>
</g>
<!-- action.emergency_closing_reservation&#45;&gt;booking.reservation -->
<g id="edge2" class="edge">
<title>action.emergency_closing_reservation:reservation&#45;&gt;booking.reservation:id</title>
<path fill="none" stroke="#000000" d="M1125.9694,-996.4342C1166.7416,-986.9181 1147.1426,-915.9821 1116,-877 1070.7756,-820.3914 1002.2244,-897.6086 957,-841 931.0623,-808.5331 915.4444,-747.5 957,-747.5"/>
<polygon fill="#000000" stroke="#000000" points="1125.9433,-996.4369 1115.5216,-993.0255 1120.9717,-996.9684 1116,-997.5 1116,-997.5 1116,-997.5 1120.9717,-996.9684 1116.4784,-1001.9745 1125.9433,-996.4369 1125.9433,-996.4369"/>
<text text-anchor="start" x="1123.2615" y="-1007.5" font-family="Arial" font-size="10.00" fill="#000000">FOREIGN KEY (reservation) REFERENCES booking.reservation(id) ON DELETE CASCADE DEFERRABLE INITIALLY DEFERRED</text>
</g>
</g>
</svg>
