<?xml version="1.0" encoding="UTF-8" standalone="no"?>
<!DOCTYPE svg PUBLIC "-//W3C//DTD SVG 1.1//EN"
 "http://www.w3.org/Graphics/SVG/1.1/DTD/svg11.dtd">
<!-- Generated by graphviz version 2.40.1 (20161225.0304)
 -->
<!-- Title: action.unfulfilled_hold_loops Pages: 1 -->
<svg width="417pt" height="225pt"
 viewBox="0.00 0.00 417.00 225.00" xmlns="http://www.w3.org/2000/svg" xmlns:xlink="http://www.w3.org/1999/xlink">
<g id="graph0" class="graph" transform="scale(1 1) rotate(0) translate(4 221)">
<title>action.unfulfilled_hold_loops</title>
<polygon fill="#ffffff" stroke="transparent" points="-4,4 -4,-221 413,-221 413,4 -4,4"/>
<!-- action.unfulfilled_hold_loops -->
<g id="node1" class="node">
<title>action.unfulfilled_hold_loops</title>
<polygon fill="#efefef" stroke="transparent" points="46.5,-135.5 46.5,-170.5 363.5,-170.5 363.5,-135.5 46.5,-135.5"/>
<polygon fill="none" stroke="#000000" points="46.5,-135.5 46.5,-170.5 363.5,-170.5 363.5,-135.5 46.5,-135.5"/>
<text text-anchor="start" x="53.0841" y="-148.3" font-family="Arial Bold" font-size="18.00" fill="#000000">action.unfulfilled_hold_loops</text>
<text text-anchor="start" x="279.1515" y="-148.3" font-family="Arial" font-size="14.00" fill="#000000">    </text>
<text text-anchor="start" x="313.3563" y="-148.3" font-family="Arial" font-size="14.00" fill="#666666">[VIEW]</text>
<polygon fill="none" stroke="#000000" points="46.5,-105.5 46.5,-135.5 363.5,-135.5 363.5,-105.5 46.5,-105.5"/>
<text text-anchor="start" x="53.5" y="-116.9" font-family="Arial" font-size="14.00" fill="#000000">hold </text>
<text text-anchor="start" x="83.845" y="-116.9" font-family="Arial" font-size="14.00" fill="#666666">[integer]</text>
<polygon fill="none" stroke="#000000" points="46.5,-75.5 46.5,-105.5 363.5,-105.5 363.5,-75.5 46.5,-75.5"/>
<text text-anchor="start" x="53.5" y="-86.9" font-family="Arial" font-size="14.00" fill="#000000">circ_lib </text>
<text text-anchor="start" x="100.9362" y="-86.9" font-family="Arial" font-size="14.00" fill="#666666">[integer]</text>
<polygon fill="none" stroke="#000000" points="46.5,-45.5 46.5,-75.5 363.5,-75.5 363.5,-45.5 46.5,-45.5"/>
<text text-anchor="start" x="53.5" y="-56.9" font-family="Arial" font-size="14.00" fill="#000000">count </text>
<text text-anchor="start" x="91.629" y="-56.9" font-family="Arial" font-size="14.00" fill="#666666">[bigint]</text>
<polygon fill="none" stroke="#000000" stroke-width="3" points="44.5,-44.5 44.5,-172.5 364.5,-172.5 364.5,-44.5 44.5,-44.5"/>
</g>
</g>
</svg>
