<?xml version="1.0" encoding="UTF-8" standalone="no"?>
<!DOCTYPE svg PUBLIC "-//W3C//DTD SVG 1.1//EN"
 "http://www.w3.org/Graphics/SVG/1.1/DTD/svg11.dtd">
<!-- Generated by graphviz version 2.40.1 (20161225.0304)
 -->
<!-- Title: action.fieldset_group Pages: 1 -->
<svg width="1513pt" height="2639pt"
 viewBox="0.00 0.00 1513.00 2639.00" xmlns="http://www.w3.org/2000/svg" xmlns:xlink="http://www.w3.org/1999/xlink">
<g id="graph0" class="graph" transform="scale(1 1) rotate(0) translate(4 2635)">
<title>action.fieldset_group</title>
<polygon fill="#ffffff" stroke="transparent" points="-4,4 -4,-2635 1509,-2635 1509,4 -4,4"/>
<!-- action.fieldset_group -->
<g id="node1" class="node">
<title>action.fieldset_group</title>
<polygon fill="#efefef" stroke="transparent" points="623,-2002.5 623,-2037.5 930,-2037.5 930,-2002.5 623,-2002.5"/>
<polygon fill="none" stroke="#000000" points="623,-2002.5 623,-2037.5 930,-2037.5 930,-2002.5 623,-2002.5"/>
<text text-anchor="start" x="629.6901" y="-2015.3" font-family="Arial Bold" font-size="18.00" fill="#000000">action.fieldset_group</text>
<text text-anchor="start" x="795.7419" y="-2015.3" font-family="Arial" font-size="14.00" fill="#000000">    </text>
<text text-anchor="start" x="829.9467" y="-2015.3" font-family="Arial" font-size="14.00" fill="#666666">[BASE TABLE]</text>
<polygon fill="none" stroke="#000000" points="623,-1972.5 623,-2002.5 930,-2002.5 930,-1972.5 623,-1972.5"/>
<text text-anchor="start" x="630" y="-1983.9" font-family="Arial" font-size="14.00" fill="#000000">id </text>
<text text-anchor="start" x="644.7798" y="-1983.9" font-family="Arial" font-size="14.00" fill="#666666">[integer]</text>
<polygon fill="none" stroke="#000000" points="623,-1942.5 623,-1972.5 930,-1972.5 930,-1942.5 623,-1942.5"/>
<text text-anchor="start" x="630" y="-1953.9" font-family="Arial" font-size="14.00" fill="#000000">name </text>
<text text-anchor="start" x="668.899" y="-1953.9" font-family="Arial" font-size="14.00" fill="#666666">[text]</text>
<polygon fill="none" stroke="#000000" points="623,-1912.5 623,-1942.5 930,-1942.5 930,-1912.5 623,-1912.5"/>
<text text-anchor="start" x="630" y="-1923.9" font-family="Arial" font-size="14.00" fill="#000000">create_time </text>
<text text-anchor="start" x="707.0126" y="-1923.9" font-family="Arial" font-size="14.00" fill="#666666">[timestamp with time zone]</text>
<polygon fill="none" stroke="#000000" points="623,-1882.5 623,-1912.5 930,-1912.5 930,-1882.5 623,-1882.5"/>
<text text-anchor="start" x="630" y="-1893.9" font-family="Arial" font-size="14.00" fill="#000000">complete_time </text>
<text text-anchor="start" x="724.9018" y="-1893.9" font-family="Arial" font-size="14.00" fill="#666666">[timestamp with time zone]</text>
<polygon fill="none" stroke="#000000" points="623,-1852.5 623,-1882.5 930,-1882.5 930,-1852.5 623,-1852.5"/>
<text text-anchor="start" x="630" y="-1863.9" font-family="Arial" font-size="14.00" fill="#000000">container </text>
<text text-anchor="start" x="691.4614" y="-1863.9" font-family="Arial" font-size="14.00" fill="#666666">[integer]</text>
<polygon fill="none" stroke="#000000" points="623,-1822.5 623,-1852.5 930,-1852.5 930,-1822.5 623,-1822.5"/>
<text text-anchor="start" x="630" y="-1833.9" font-family="Arial" font-size="14.00" fill="#000000">container_type </text>
<text text-anchor="start" x="725.6998" y="-1833.9" font-family="Arial" font-size="14.00" fill="#666666">[text]</text>
<polygon fill="none" stroke="#000000" points="623,-1792.5 623,-1822.5 930,-1822.5 930,-1792.5 623,-1792.5"/>
<text text-anchor="start" x="630" y="-1803.9" font-family="Arial" font-size="14.00" fill="#000000">can_rollback </text>
<text text-anchor="start" x="712.46" y="-1803.9" font-family="Arial" font-size="14.00" fill="#666666">[boolean]</text>
<polygon fill="none" stroke="#000000" points="623,-1762.5 623,-1792.5 930,-1792.5 930,-1762.5 623,-1762.5"/>
<text text-anchor="start" x="630" y="-1773.9" font-family="Arial" font-size="14.00" fill="#000000">rollback_group </text>
<text text-anchor="start" x="725.6858" y="-1773.9" font-family="Arial" font-size="14.00" fill="#666666">[integer]</text>
<polygon fill="none" stroke="#000000" points="623,-1732.5 623,-1762.5 930,-1762.5 930,-1732.5 623,-1732.5"/>
<text text-anchor="start" x="630" y="-1743.9" font-family="Arial" font-size="14.00" fill="#000000">rollback_time </text>
<text text-anchor="start" x="716.3352" y="-1743.9" font-family="Arial" font-size="14.00" fill="#666666">[timestamp with time zone]</text>
<polygon fill="none" stroke="#000000" points="623,-1702.5 623,-1732.5 930,-1732.5 930,-1702.5 623,-1702.5"/>
<text text-anchor="start" x="630" y="-1713.9" font-family="Arial" font-size="14.00" fill="#000000">creator </text>
<text text-anchor="start" x="677.4502" y="-1713.9" font-family="Arial" font-size="14.00" fill="#666666">[integer]</text>
<polygon fill="none" stroke="#000000" points="623,-1672.5 623,-1702.5 930,-1702.5 930,-1672.5 623,-1672.5"/>
<text text-anchor="start" x="630" y="-1683.9" font-family="Arial" font-size="14.00" fill="#000000">owning_lib </text>
<text text-anchor="start" x="700.0126" y="-1683.9" font-family="Arial" font-size="14.00" fill="#666666">[integer]</text>
<polygon fill="none" stroke="#000000" stroke-width="3" points="621,-1671.5 621,-2039.5 931,-2039.5 931,-1671.5 621,-1671.5"/>
</g>
<!-- action.fieldset_group&#45;&gt;action.fieldset_group -->
<g id="edge2" class="edge">
<title>action.fieldset_group:rollback_group&#45;&gt;action.fieldset_group:id</title>
<path fill="none" stroke="#000000" d="M778.2402,-1802.6858C785.979,-1978.3558 785.5657,-2344 777,-2344 768.2813,-2344 768.0088,-2162.2484 776.1826,-2002.8491"/>
<polygon fill="#000000" stroke="#000000" points="778.2392,-1802.6635 782.2755,-1792.4674 778.0097,-1797.6687 777.7802,-1792.674 777.7802,-1792.674 777.7802,-1792.674 778.0097,-1797.6687 773.285,-1792.8805 778.2392,-1802.6635 778.2392,-1802.6635"/>
<text text-anchor="start" x="784.4797" y="-1802.674" font-family="Arial" font-size="10.00" fill="#000000">FOREIGN KEY (rollback_group) REFERENCES action.fieldset_group(id) ON DELETE CASCADE DEFERRABLE INITIALLY DEFERRED</text>
</g>
<!-- actor.usr -->
<g id="node3" class="node">
<title>actor.usr</title>
<polygon fill="#efefef" stroke="transparent" points="422,-1512.5 422,-1547.5 742,-1547.5 742,-1512.5 422,-1512.5"/>
<polygon fill="none" stroke="#000000" points="422,-1512.5 422,-1547.5 742,-1547.5 742,-1512.5 422,-1512.5"/>
<text text-anchor="start" x="483.2123" y="-1525.3" font-family="Arial Bold" font-size="18.00" fill="#000000">actor.usr</text>
<text text-anchor="start" x="553.2197" y="-1525.3" font-family="Arial" font-size="14.00" fill="#000000">    </text>
<text text-anchor="start" x="587.4245" y="-1525.3" font-family="Arial" font-size="14.00" fill="#666666">[BASE TABLE]</text>
<polygon fill="none" stroke="#000000" points="422,-1482.5 422,-1512.5 742,-1512.5 742,-1482.5 422,-1482.5"/>
<text text-anchor="start" x="429" y="-1493.9" font-family="Arial" font-size="14.00" fill="#000000">id    </text>
<text text-anchor="start" x="474.094" y="-1493.9" font-family="Arial" font-size="14.00" fill="#666666">[integer]</text>
<polygon fill="none" stroke="#000000" points="422,-1452.5 422,-1482.5 742,-1482.5 742,-1452.5 422,-1452.5"/>
<text text-anchor="start" x="429" y="-1463.9" font-family="Arial" font-size="14.00" fill="#000000">card    </text>
<text text-anchor="start" x="490.4306" y="-1463.9" font-family="Arial" font-size="14.00" fill="#666666">[integer]</text>
<polygon fill="none" stroke="#000000" points="422,-1422.5 422,-1452.5 742,-1452.5 742,-1422.5 422,-1422.5"/>
<text text-anchor="start" x="429" y="-1433.9" font-family="Arial" font-size="14.00" fill="#000000">profile    </text>
<text text-anchor="start" x="501.317" y="-1433.9" font-family="Arial" font-size="14.00" fill="#666666">[integer]</text>
<polygon fill="none" stroke="#000000" points="422,-1392.5 422,-1422.5 742,-1422.5 742,-1392.5 422,-1392.5"/>
<text text-anchor="start" x="429" y="-1403.9" font-family="Arial" font-size="14.00" fill="#000000">usrname    </text>
<text text-anchor="start" x="517.6564" y="-1403.9" font-family="Arial" font-size="14.00" fill="#666666">[text]</text>
<polygon fill="none" stroke="#000000" points="422,-1362.5 422,-1392.5 742,-1392.5 742,-1362.5 422,-1362.5"/>
<text text-anchor="start" x="429" y="-1373.9" font-family="Arial" font-size="14.00" fill="#000000">email    </text>
<text text-anchor="start" x="496.6438" y="-1373.9" font-family="Arial" font-size="14.00" fill="#666666">[text]</text>
<polygon fill="none" stroke="#000000" points="422,-1332.5 422,-1362.5 742,-1362.5 742,-1332.5 422,-1332.5"/>
<text text-anchor="start" x="429" y="-1343.9" font-family="Arial" font-size="14.00" fill="#000000">passwd    </text>
<text text-anchor="start" x="510.6592" y="-1343.9" font-family="Arial" font-size="14.00" fill="#666666">[text]</text>
<polygon fill="none" stroke="#000000" points="422,-1302.5 422,-1332.5 742,-1332.5 742,-1302.5 422,-1302.5"/>
<text text-anchor="start" x="429" y="-1313.9" font-family="Arial" font-size="14.00" fill="#000000">standing    </text>
<text text-anchor="start" x="516.115" y="-1313.9" font-family="Arial" font-size="14.00" fill="#666666">[integer]</text>
<polygon fill="none" stroke="#000000" points="422,-1272.5 422,-1302.5 742,-1302.5 742,-1272.5 422,-1272.5"/>
<text text-anchor="start" x="429" y="-1283.9" font-family="Arial" font-size="14.00" fill="#000000">ident_type    </text>
<text text-anchor="start" x="527.7882" y="-1283.9" font-family="Arial" font-size="14.00" fill="#666666">[integer]</text>
<polygon fill="none" stroke="#000000" points="422,-1242.5 422,-1272.5 742,-1272.5 742,-1242.5 422,-1242.5"/>
<text text-anchor="start" x="429" y="-1253.9" font-family="Arial" font-size="14.00" fill="#000000">ident_value    </text>
<text text-anchor="start" x="534.7868" y="-1253.9" font-family="Arial" font-size="14.00" fill="#666666">[text]</text>
<polygon fill="none" stroke="#000000" points="422,-1212.5 422,-1242.5 742,-1242.5 742,-1212.5 422,-1212.5"/>
<text text-anchor="start" x="429" y="-1223.9" font-family="Arial" font-size="14.00" fill="#000000">ident_type2    </text>
<text text-anchor="start" x="535.5708" y="-1223.9" font-family="Arial" font-size="14.00" fill="#666666">[integer]</text>
<polygon fill="none" stroke="#000000" points="422,-1182.5 422,-1212.5 742,-1212.5 742,-1182.5 422,-1182.5"/>
<text text-anchor="start" x="429" y="-1193.9" font-family="Arial" font-size="14.00" fill="#000000">ident_value2    </text>
<text text-anchor="start" x="542.5694" y="-1193.9" font-family="Arial" font-size="14.00" fill="#666666">[text]</text>
<polygon fill="none" stroke="#000000" points="422,-1152.5 422,-1182.5 742,-1182.5 742,-1152.5 422,-1152.5"/>
<text text-anchor="start" x="429" y="-1163.9" font-family="Arial" font-size="14.00" fill="#000000">net_access_level    </text>
<text text-anchor="start" x="570.5694" y="-1163.9" font-family="Arial" font-size="14.00" fill="#666666">[integer]</text>
<polygon fill="none" stroke="#000000" points="422,-1122.5 422,-1152.5 742,-1152.5 742,-1122.5 422,-1122.5"/>
<text text-anchor="start" x="429" y="-1133.9" font-family="Arial" font-size="14.00" fill="#000000">photo_url    </text>
<text text-anchor="start" x="521.5582" y="-1133.9" font-family="Arial" font-size="14.00" fill="#666666">[text]</text>
<polygon fill="none" stroke="#000000" points="422,-1092.5 422,-1122.5 742,-1122.5 742,-1092.5 422,-1092.5"/>
<text text-anchor="start" x="429" y="-1103.9" font-family="Arial" font-size="14.00" fill="#000000">prefix    </text>
<text text-anchor="start" x="497.4278" y="-1103.9" font-family="Arial" font-size="14.00" fill="#666666">[text]</text>
<polygon fill="none" stroke="#000000" points="422,-1062.5 422,-1092.5 742,-1092.5 742,-1062.5 422,-1062.5"/>
<text text-anchor="start" x="429" y="-1073.9" font-family="Arial" font-size="14.00" fill="#000000">first_given_name    </text>
<text text-anchor="start" x="569.7812" y="-1073.9" font-family="Arial" font-size="14.00" fill="#666666">[text]</text>
<polygon fill="none" stroke="#000000" points="422,-1032.5 422,-1062.5 742,-1062.5 742,-1032.5 422,-1032.5"/>
<text text-anchor="start" x="429" y="-1043.9" font-family="Arial" font-size="14.00" fill="#000000">second_given_name    </text>
<text text-anchor="start" x="592.3632" y="-1043.9" font-family="Arial" font-size="14.00" fill="#666666">[text]</text>
<polygon fill="none" stroke="#000000" points="422,-1002.5 422,-1032.5 742,-1032.5 742,-1002.5 422,-1002.5"/>
<text text-anchor="start" x="429" y="-1013.9" font-family="Arial" font-size="14.00" fill="#000000">family_name    </text>
<text text-anchor="start" x="542.5428" y="-1013.9" font-family="Arial" font-size="14.00" fill="#666666">[text]</text>
<polygon fill="none" stroke="#000000" points="422,-972.5 422,-1002.5 742,-1002.5 742,-972.5 422,-972.5"/>
<text text-anchor="start" x="429" y="-983.9" font-family="Arial" font-size="14.00" fill="#000000">suffix    </text>
<text text-anchor="start" x="495.8752" y="-983.9" font-family="Arial" font-size="14.00" fill="#666666">[text]</text>
<polygon fill="none" stroke="#000000" points="422,-942.5 422,-972.5 742,-972.5 742,-942.5 422,-942.5"/>
<text text-anchor="start" x="429" y="-953.9" font-family="Arial" font-size="14.00" fill="#000000">alias    </text>
<text text-anchor="start" x="491.9832" y="-953.9" font-family="Arial" font-size="14.00" fill="#666666">[text]</text>
<polygon fill="none" stroke="#000000" points="422,-912.5 422,-942.5 742,-942.5 742,-912.5 422,-912.5"/>
<text text-anchor="start" x="429" y="-923.9" font-family="Arial" font-size="14.00" fill="#000000">day_phone    </text>
<text text-anchor="start" x="532.4656" y="-923.9" font-family="Arial" font-size="14.00" fill="#666666">[text]</text>
<polygon fill="none" stroke="#000000" points="422,-882.5 422,-912.5 742,-912.5 742,-882.5 422,-882.5"/>
<text text-anchor="start" x="429" y="-893.9" font-family="Arial" font-size="14.00" fill="#000000">evening_phone    </text>
<text text-anchor="start" x="558.92" y="-893.9" font-family="Arial" font-size="14.00" fill="#666666">[text]</text>
<polygon fill="none" stroke="#000000" points="422,-852.5 422,-882.5 742,-882.5 742,-852.5 422,-852.5"/>
<text text-anchor="start" x="429" y="-863.9" font-family="Arial" font-size="14.00" fill="#000000">other_phone    </text>
<text text-anchor="start" x="541.7994" y="-863.9" font-family="Arial" font-size="14.00" fill="#666666">[text]</text>
<polygon fill="none" stroke="#000000" points="422,-822.5 422,-852.5 742,-852.5 742,-822.5 422,-822.5"/>
<text text-anchor="start" x="429" y="-833.9" font-family="Arial" font-size="14.00" fill="#000000">mailing_address    </text>
<text text-anchor="start" x="565.1066" y="-833.9" font-family="Arial" font-size="14.00" fill="#666666">[integer]</text>
<polygon fill="none" stroke="#000000" points="422,-792.5 422,-822.5 742,-822.5 742,-792.5 422,-792.5"/>
<text text-anchor="start" x="429" y="-803.9" font-family="Arial" font-size="14.00" fill="#000000">billing_address    </text>
<text text-anchor="start" x="556.5526" y="-803.9" font-family="Arial" font-size="14.00" fill="#666666">[integer]</text>
<polygon fill="none" stroke="#000000" points="422,-762.5 422,-792.5 742,-792.5 742,-762.5 422,-762.5"/>
<text text-anchor="start" x="429" y="-773.9" font-family="Arial" font-size="14.00" fill="#000000">home_ou    </text>
<text text-anchor="start" x="521.561" y="-773.9" font-family="Arial" font-size="14.00" fill="#666666">[integer]</text>
<polygon fill="none" stroke="#000000" points="422,-732.5 422,-762.5 742,-762.5 742,-732.5 422,-732.5"/>
<text text-anchor="start" x="429" y="-743.9" font-family="Arial" font-size="14.00" fill="#000000">dob    </text>
<text text-anchor="start" x="486.5526" y="-743.9" font-family="Arial" font-size="14.00" fill="#666666">[date]</text>
<polygon fill="none" stroke="#000000" points="422,-702.5 422,-732.5 742,-732.5 742,-702.5 422,-702.5"/>
<text text-anchor="start" x="429" y="-713.9" font-family="Arial" font-size="14.00" fill="#000000">active    </text>
<text text-anchor="start" x="499.7672" y="-713.9" font-family="Arial" font-size="14.00" fill="#666666">[boolean]</text>
<polygon fill="none" stroke="#000000" points="422,-672.5 422,-702.5 742,-702.5 742,-672.5 422,-672.5"/>
<text text-anchor="start" x="429" y="-683.9" font-family="Arial" font-size="14.00" fill="#000000">master_account    </text>
<text text-anchor="start" x="562.7854" y="-683.9" font-family="Arial" font-size="14.00" fill="#666666">[boolean]</text>
<polygon fill="none" stroke="#000000" points="422,-642.5 422,-672.5 742,-672.5 742,-642.5 422,-642.5"/>
<text text-anchor="start" x="429" y="-653.9" font-family="Arial" font-size="14.00" fill="#000000">super_user    </text>
<text text-anchor="start" x="533.2216" y="-653.9" font-family="Arial" font-size="14.00" fill="#666666">[boolean]</text>
<polygon fill="none" stroke="#000000" points="422,-612.5 422,-642.5 742,-642.5 742,-612.5 422,-612.5"/>
<text text-anchor="start" x="429" y="-623.9" font-family="Arial" font-size="14.00" fill="#000000">barred    </text>
<text text-anchor="start" x="503.6564" y="-623.9" font-family="Arial" font-size="14.00" fill="#666666">[boolean]</text>
<polygon fill="none" stroke="#000000" points="422,-582.5 422,-612.5 742,-612.5 742,-582.5 422,-582.5"/>
<text text-anchor="start" x="429" y="-593.9" font-family="Arial" font-size="14.00" fill="#000000">deleted    </text>
<text text-anchor="start" x="509.115" y="-593.9" font-family="Arial" font-size="14.00" fill="#666666">[boolean]</text>
<polygon fill="none" stroke="#000000" points="422,-552.5 422,-582.5 742,-582.5 742,-552.5 422,-552.5"/>
<text text-anchor="start" x="429" y="-563.9" font-family="Arial" font-size="14.00" fill="#000000">juvenile    </text>
<text text-anchor="start" x="510.655" y="-563.9" font-family="Arial" font-size="14.00" fill="#666666">[boolean]</text>
<polygon fill="none" stroke="#000000" points="422,-522.5 422,-552.5 742,-552.5 742,-522.5 422,-522.5"/>
<text text-anchor="start" x="429" y="-533.9" font-family="Arial" font-size="14.00" fill="#000000">usrgroup    </text>
<text text-anchor="start" x="518.439" y="-533.9" font-family="Arial" font-size="14.00" fill="#666666">[integer]</text>
<polygon fill="none" stroke="#000000" points="422,-492.5 422,-522.5 742,-522.5 742,-492.5 422,-492.5"/>
<text text-anchor="start" x="429" y="-503.9" font-family="Arial" font-size="14.00" fill="#000000">claims_returned_count    </text>
<text text-anchor="start" x="604.7896" y="-503.9" font-family="Arial" font-size="14.00" fill="#666666">[integer]</text>
<polygon fill="none" stroke="#000000" points="422,-462.5 422,-492.5 742,-492.5 742,-462.5 422,-462.5"/>
<text text-anchor="start" x="429" y="-473.9" font-family="Arial" font-size="14.00" fill="#000000">credit_forward_balance    </text>
<text text-anchor="start" x="608.6788" y="-473.9" font-family="Arial" font-size="14.00" fill="#666666">[numeric(6,2)]</text>
<polygon fill="none" stroke="#000000" points="422,-432.5 422,-462.5 742,-462.5 742,-432.5 422,-432.5"/>
<text text-anchor="start" x="429" y="-443.9" font-family="Arial" font-size="14.00" fill="#000000">last_xact_id    </text>
<text text-anchor="start" x="537.1122" y="-443.9" font-family="Arial" font-size="14.00" fill="#666666">[text]</text>
<polygon fill="none" stroke="#000000" points="422,-402.5 422,-432.5 742,-432.5 742,-402.5 422,-402.5"/>
<text text-anchor="start" x="429" y="-413.9" font-family="Arial" font-size="14.00" fill="#000000">alert_message    </text>
<text text-anchor="start" x="555.0014" y="-413.9" font-family="Arial" font-size="14.00" fill="#666666">[text]</text>
<polygon fill="none" stroke="#000000" points="422,-372.5 422,-402.5 742,-402.5 742,-372.5 422,-372.5"/>
<text text-anchor="start" x="429" y="-383.9" font-family="Arial" font-size="14.00" fill="#000000">create_date    </text>
<text text-anchor="start" x="537.1248" y="-383.9" font-family="Arial" font-size="14.00" fill="#666666">[timestamp with time zone]</text>
<polygon fill="none" stroke="#000000" points="422,-342.5 422,-372.5 742,-372.5 742,-342.5 422,-342.5"/>
<text text-anchor="start" x="429" y="-353.9" font-family="Arial" font-size="14.00" fill="#000000">expire_date    </text>
<text text-anchor="start" x="536.3408" y="-353.9" font-family="Arial" font-size="14.00" fill="#666666">[timestamp with time zone]</text>
<polygon fill="none" stroke="#000000" points="422,-312.5 422,-342.5 742,-342.5 742,-312.5 422,-312.5"/>
<text text-anchor="start" x="429" y="-323.9" font-family="Arial" font-size="14.00" fill="#000000">claims_never_checked_out_count    </text>
<text text-anchor="start" x="674.8246" y="-323.9" font-family="Arial" font-size="14.00" fill="#666666">[integer]</text>
<polygon fill="none" stroke="#000000" points="422,-282.5 422,-312.5 742,-312.5 742,-282.5 422,-282.5"/>
<text text-anchor="start" x="428.7609" y="-293.9" font-family="Arial" font-size="14.00" fill="#000000">last_update_time    </text>
<text text-anchor="start" x="569.5547" y="-293.9" font-family="Arial" font-size="14.00" fill="#666666">[timestamp with time zone]</text>
<polygon fill="none" stroke="#000000" points="422,-252.5 422,-282.5 742,-282.5 742,-252.5 422,-252.5"/>
<text text-anchor="start" x="429" y="-263.9" font-family="Arial" font-size="14.00" fill="#000000">pref_prefix    </text>
<text text-anchor="start" x="529.3268" y="-263.9" font-family="Arial" font-size="14.00" fill="#666666">[text]</text>
<polygon fill="none" stroke="#000000" points="422,-222.5 422,-252.5 742,-252.5 742,-222.5 422,-222.5"/>
<text text-anchor="start" x="429" y="-233.9" font-family="Arial" font-size="14.00" fill="#000000">pref_first_given_name    </text>
<text text-anchor="start" x="601.6802" y="-233.9" font-family="Arial" font-size="14.00" fill="#666666">[text]</text>
<polygon fill="none" stroke="#000000" points="422,-192.5 422,-222.5 742,-222.5 742,-192.5 422,-192.5"/>
<text text-anchor="start" x="429" y="-203.9" font-family="Arial" font-size="14.00" fill="#000000">pref_second_given_name    </text>
<text text-anchor="start" x="624.2622" y="-203.9" font-family="Arial" font-size="14.00" fill="#666666">[text]</text>
<polygon fill="none" stroke="#000000" points="422,-162.5 422,-192.5 742,-192.5 742,-162.5 422,-162.5"/>
<text text-anchor="start" x="429" y="-173.9" font-family="Arial" font-size="14.00" fill="#000000">pref_family_name    </text>
<text text-anchor="start" x="574.4418" y="-173.9" font-family="Arial" font-size="14.00" fill="#666666">[text]</text>
<polygon fill="none" stroke="#000000" points="422,-132.5 422,-162.5 742,-162.5 742,-132.5 422,-132.5"/>
<text text-anchor="start" x="429" y="-143.9" font-family="Arial" font-size="14.00" fill="#000000">pref_suffix    </text>
<text text-anchor="start" x="527.7742" y="-143.9" font-family="Arial" font-size="14.00" fill="#666666">[text]</text>
<polygon fill="none" stroke="#000000" points="422,-102.5 422,-132.5 742,-132.5 742,-102.5 422,-102.5"/>
<text text-anchor="start" x="429" y="-113.9" font-family="Arial" font-size="14.00" fill="#000000">name_keywords    </text>
<text text-anchor="start" x="565.1108" y="-113.9" font-family="Arial" font-size="14.00" fill="#666666">[text]</text>
<polygon fill="none" stroke="#000000" points="422,-72.5 422,-102.5 742,-102.5 742,-72.5 422,-72.5"/>
<text text-anchor="start" x="429" y="-83.9" font-family="Arial" font-size="14.00" fill="#000000">name_kw_tsvector    </text>
<text text-anchor="start" x="579.892" y="-83.9" font-family="Arial" font-size="14.00" fill="#666666">[tsvector]</text>
<polygon fill="none" stroke="#000000" points="422,-42.5 422,-72.5 742,-72.5 742,-42.5 422,-42.5"/>
<text text-anchor="start" x="429" y="-53.9" font-family="Arial" font-size="14.00" fill="#000000">guardian    </text>
<text text-anchor="start" x="517.6676" y="-53.9" font-family="Arial" font-size="14.00" fill="#666666">[text]</text>
</g>
<!-- action.fieldset_group&#45;&gt;actor.usr -->
<g id="edge3" class="edge">
<title>action.fieldset_group:creator&#45;&gt;actor.usr:id</title>
<path fill="none" stroke="#000000" d="M612.7864,-1715.9132C586.0252,-1706.3794 601.3685,-1656.1437 623,-1627 655.9328,-1582.6303 709.0672,-1635.3697 742,-1591 766.7672,-1557.6316 783.5556,-1497.5 742,-1497.5"/>
<polygon fill="#000000" stroke="#000000" points="613.1186,-1715.9647 622.3091,-1721.9467 618.0593,-1716.7323 623,-1717.5 623,-1717.5 623,-1717.5 618.0593,-1716.7323 623.6909,-1713.0533 613.1186,-1715.9647 613.1186,-1715.9647"/>
<text text-anchor="start" x="93.6055" y="-1727.5" font-family="Arial" font-size="10.00" fill="#000000">FOREIGN KEY (creator) REFERENCES actor.usr(id) ON DELETE CASCADE DEFERRABLE INITIALLY DEFERRED</text>
</g>
<!-- actor.org_unit -->
<g id="node4" class="node">
<title>actor.org_unit</title>
<polygon fill="#efefef" stroke="transparent" points="847,-972.5 847,-1007.5 1098,-1007.5 1098,-972.5 847,-972.5"/>
<polygon fill="none" stroke="#000000" points="847,-972.5 847,-1007.5 1098,-1007.5 1098,-972.5 847,-972.5"/>
<text text-anchor="start" x="853.7017" y="-985.3" font-family="Arial Bold" font-size="18.00" fill="#000000">actor.org_unit</text>
<text text-anchor="start" x="963.7303" y="-985.3" font-family="Arial" font-size="14.00" fill="#000000">    </text>
<text text-anchor="start" x="997.9351" y="-985.3" font-family="Arial" font-size="14.00" fill="#666666">[BASE TABLE]</text>
<polygon fill="none" stroke="#000000" points="847,-942.5 847,-972.5 1098,-972.5 1098,-942.5 847,-942.5"/>
<text text-anchor="start" x="854" y="-953.9" font-family="Arial" font-size="14.00" fill="#000000">id    </text>
<text text-anchor="start" x="899.094" y="-953.9" font-family="Arial" font-size="14.00" fill="#666666">[integer]</text>
<polygon fill="none" stroke="#000000" points="847,-912.5 847,-942.5 1098,-942.5 1098,-912.5 847,-912.5"/>
<text text-anchor="start" x="854" y="-923.9" font-family="Arial" font-size="14.00" fill="#000000">parent_ou    </text>
<text text-anchor="start" x="951.2342" y="-923.9" font-family="Arial" font-size="14.00" fill="#666666">[integer]</text>
<polygon fill="none" stroke="#000000" points="847,-882.5 847,-912.5 1098,-912.5 1098,-882.5 847,-882.5"/>
<text text-anchor="start" x="854" y="-893.9" font-family="Arial" font-size="14.00" fill="#000000">ou_type    </text>
<text text-anchor="start" x="938.0084" y="-893.9" font-family="Arial" font-size="14.00" fill="#666666">[integer]</text>
<polygon fill="none" stroke="#000000" points="847,-852.5 847,-882.5 1098,-882.5 1098,-852.5 847,-852.5"/>
<text text-anchor="start" x="854" y="-863.9" font-family="Arial" font-size="14.00" fill="#000000">ill_address    </text>
<text text-anchor="start" x="955.0982" y="-863.9" font-family="Arial" font-size="14.00" fill="#666666">[integer]</text>
<polygon fill="none" stroke="#000000" points="847,-822.5 847,-852.5 1098,-852.5 1098,-822.5 847,-822.5"/>
<text text-anchor="start" x="854" y="-833.9" font-family="Arial" font-size="14.00" fill="#000000">holds_address    </text>
<text text-anchor="start" x="979.2328" y="-833.9" font-family="Arial" font-size="14.00" fill="#666666">[integer]</text>
<polygon fill="none" stroke="#000000" points="847,-792.5 847,-822.5 1098,-822.5 1098,-792.5 847,-792.5"/>
<text text-anchor="start" x="854" y="-803.9" font-family="Arial" font-size="14.00" fill="#000000">mailing_address    </text>
<text text-anchor="start" x="990.1066" y="-803.9" font-family="Arial" font-size="14.00" fill="#666666">[integer]</text>
<polygon fill="none" stroke="#000000" points="847,-762.5 847,-792.5 1098,-792.5 1098,-762.5 847,-762.5"/>
<text text-anchor="start" x="854" y="-773.9" font-family="Arial" font-size="14.00" fill="#000000">billing_address    </text>
<text text-anchor="start" x="981.5526" y="-773.9" font-family="Arial" font-size="14.00" fill="#666666">[integer]</text>
<polygon fill="none" stroke="#000000" points="847,-732.5 847,-762.5 1098,-762.5 1098,-732.5 847,-732.5"/>
<text text-anchor="start" x="854" y="-743.9" font-family="Arial" font-size="14.00" fill="#000000">shortname    </text>
<text text-anchor="start" x="954.3296" y="-743.9" font-family="Arial" font-size="14.00" fill="#666666">[text]</text>
<polygon fill="none" stroke="#000000" points="847,-702.5 847,-732.5 1098,-732.5 1098,-702.5 847,-702.5"/>
<text text-anchor="start" x="854" y="-713.9" font-family="Arial" font-size="14.00" fill="#000000">name    </text>
<text text-anchor="start" x="923.2132" y="-713.9" font-family="Arial" font-size="14.00" fill="#666666">[text]</text>
<polygon fill="none" stroke="#000000" points="847,-672.5 847,-702.5 1098,-702.5 1098,-672.5 847,-672.5"/>
<text text-anchor="start" x="854" y="-683.9" font-family="Arial" font-size="14.00" fill="#000000">email    </text>
<text text-anchor="start" x="921.6438" y="-683.9" font-family="Arial" font-size="14.00" fill="#666666">[text]</text>
<polygon fill="none" stroke="#000000" points="847,-642.5 847,-672.5 1098,-672.5 1098,-642.5 847,-642.5"/>
<text text-anchor="start" x="854" y="-653.9" font-family="Arial" font-size="14.00" fill="#000000">phone    </text>
<text text-anchor="start" x="927.1178" y="-653.9" font-family="Arial" font-size="14.00" fill="#666666">[text]</text>
<polygon fill="none" stroke="#000000" points="847,-612.5 847,-642.5 1098,-642.5 1098,-612.5 847,-612.5"/>
<text text-anchor="start" x="854" y="-623.9" font-family="Arial" font-size="14.00" fill="#000000">opac_visible    </text>
<text text-anchor="start" x="965.2202" y="-623.9" font-family="Arial" font-size="14.00" fill="#666666">[boolean]</text>
<polygon fill="none" stroke="#000000" points="847,-582.5 847,-612.5 1098,-612.5 1098,-582.5 847,-582.5"/>
<text text-anchor="start" x="854" y="-593.9" font-family="Arial" font-size="14.00" fill="#000000">fiscal_calendar    </text>
<text text-anchor="start" x="981.554" y="-593.9" font-family="Arial" font-size="14.00" fill="#666666">[integer]</text>
</g>
<!-- action.fieldset_group&#45;&gt;actor.org_unit -->
<g id="edge4" class="edge">
<title>action.fieldset_group:owning_lib&#45;&gt;actor.org_unit:id</title>
<path fill="none" stroke="#000000" d="M940.1475,-1686.4117C1075.1593,-1655.0753 687.3997,-957.5 847,-957.5"/>
<polygon fill="#000000" stroke="#000000" points="939.943,-1686.4335 929.5201,-1683.0257 934.9715,-1686.9668 930,-1687.5 930,-1687.5 930,-1687.5 934.9715,-1686.9668 930.4799,-1691.9743 939.943,-1686.4335 939.943,-1686.4335"/>
<text text-anchor="start" x="937.4305" y="-1697.5" font-family="Arial" font-size="10.00" fill="#000000">FOREIGN KEY (owning_lib) REFERENCES actor.org_unit(id) ON DELETE CASCADE DEFERRABLE INITIALLY DEFERRED</text>
</g>
<!-- action.fieldset -->
<g id="node2" class="node">
<title>action.fieldset</title>
<polygon fill="#efefef" stroke="transparent" points="621,-2552.5 621,-2587.5 932,-2587.5 932,-2552.5 621,-2552.5"/>
<polygon fill="none" stroke="#000000" points="621,-2552.5 621,-2587.5 932,-2587.5 932,-2552.5 621,-2552.5"/>
<text text-anchor="start" x="657.7017" y="-2565.3" font-family="Arial Bold" font-size="18.00" fill="#000000">action.fieldset</text>
<text text-anchor="start" x="767.7303" y="-2565.3" font-family="Arial" font-size="14.00" fill="#000000">    </text>
<text text-anchor="start" x="801.9351" y="-2565.3" font-family="Arial" font-size="14.00" fill="#666666">[BASE TABLE]</text>
<polygon fill="none" stroke="#000000" points="621,-2522.5 621,-2552.5 932,-2552.5 932,-2522.5 621,-2522.5"/>
<text text-anchor="start" x="628" y="-2533.9" font-family="Arial" font-size="14.00" fill="#000000">id    </text>
<text text-anchor="start" x="673.094" y="-2533.9" font-family="Arial" font-size="14.00" fill="#666666">[integer]</text>
<polygon fill="none" stroke="#000000" points="621,-2492.5 621,-2522.5 932,-2522.5 932,-2492.5 621,-2492.5"/>
<text text-anchor="start" x="628" y="-2503.9" font-family="Arial" font-size="14.00" fill="#000000">fieldset_group    </text>
<text text-anchor="start" x="750.1206" y="-2503.9" font-family="Arial" font-size="14.00" fill="#666666">[integer]</text>
<polygon fill="none" stroke="#000000" points="621,-2462.5 621,-2492.5 932,-2492.5 932,-2462.5 621,-2462.5"/>
<text text-anchor="start" x="628" y="-2473.9" font-family="Arial" font-size="14.00" fill="#000000">owner    </text>
<text text-anchor="start" x="700.3198" y="-2473.9" font-family="Arial" font-size="14.00" fill="#666666">[integer]</text>
<polygon fill="none" stroke="#000000" points="621,-2432.5 621,-2462.5 932,-2462.5 932,-2432.5 621,-2432.5"/>
<text text-anchor="start" x="628" y="-2443.9" font-family="Arial" font-size="14.00" fill="#000000">owning_lib    </text>
<text text-anchor="start" x="728.3268" y="-2443.9" font-family="Arial" font-size="14.00" fill="#666666">[integer]</text>
<polygon fill="none" stroke="#000000" points="621,-2402.5 621,-2432.5 932,-2432.5 932,-2402.5 621,-2402.5"/>
<text text-anchor="start" x="628" y="-2413.9" font-family="Arial" font-size="14.00" fill="#000000">status    </text>
<text text-anchor="start" x="699.5512" y="-2413.9" font-family="Arial" font-size="14.00" fill="#666666">[text]</text>
<polygon fill="none" stroke="#000000" points="621,-2372.5 621,-2402.5 932,-2402.5 932,-2372.5 621,-2372.5"/>
<text text-anchor="start" x="628" y="-2383.9" font-family="Arial" font-size="14.00" fill="#000000">creation_time    </text>
<text text-anchor="start" x="746.216" y="-2383.9" font-family="Arial" font-size="14.00" fill="#666666">[timestamp with time zone]</text>
<polygon fill="none" stroke="#000000" points="621,-2342.5 621,-2372.5 932,-2372.5 932,-2342.5 621,-2342.5"/>
<text text-anchor="start" x="627.5428" y="-2353.9" font-family="Arial" font-size="14.00" fill="#000000">scheduled_time    </text>
<text text-anchor="start" x="759.7728" y="-2353.9" font-family="Arial" font-size="14.00" fill="#666666">[timestamp with time zone]</text>
<polygon fill="none" stroke="#000000" points="621,-2312.5 621,-2342.5 932,-2342.5 932,-2312.5 621,-2312.5"/>
<text text-anchor="start" x="628" y="-2323.9" font-family="Arial" font-size="14.00" fill="#000000">applied_time    </text>
<text text-anchor="start" x="741.554" y="-2323.9" font-family="Arial" font-size="14.00" fill="#666666">[timestamp with time zone]</text>
<polygon fill="none" stroke="#000000" points="621,-2282.5 621,-2312.5 932,-2312.5 932,-2282.5 621,-2282.5"/>
<text text-anchor="start" x="628" y="-2293.9" font-family="Arial" font-size="14.00" fill="#000000">classname    </text>
<text text-anchor="start" x="729.1024" y="-2293.9" font-family="Arial" font-size="14.00" fill="#666666">[text]</text>
<polygon fill="none" stroke="#000000" points="621,-2252.5 621,-2282.5 932,-2282.5 932,-2252.5 621,-2252.5"/>
<text text-anchor="start" x="628" y="-2263.9" font-family="Arial" font-size="14.00" fill="#000000">name    </text>
<text text-anchor="start" x="697.2132" y="-2263.9" font-family="Arial" font-size="14.00" fill="#666666">[text]</text>
<polygon fill="none" stroke="#000000" points="621,-2222.5 621,-2252.5 932,-2252.5 932,-2222.5 621,-2222.5"/>
<text text-anchor="start" x="628" y="-2233.9" font-family="Arial" font-size="14.00" fill="#000000">error_msg    </text>
<text text-anchor="start" x="725.9776" y="-2233.9" font-family="Arial" font-size="14.00" fill="#666666">[text]</text>
<polygon fill="none" stroke="#000000" points="621,-2192.5 621,-2222.5 932,-2222.5 932,-2192.5 621,-2192.5"/>
<text text-anchor="start" x="628" y="-2203.9" font-family="Arial" font-size="14.00" fill="#000000">stored_query    </text>
<text text-anchor="start" x="743.8948" y="-2203.9" font-family="Arial" font-size="14.00" fill="#666666">[integer]</text>
<polygon fill="none" stroke="#000000" points="621,-2162.5 621,-2192.5 932,-2192.5 932,-2162.5 621,-2162.5"/>
<text text-anchor="start" x="628" y="-2173.9" font-family="Arial" font-size="14.00" fill="#000000">pkey_value    </text>
<text text-anchor="start" x="733.007" y="-2173.9" font-family="Arial" font-size="14.00" fill="#666666">[text]</text>
</g>
<!-- action.fieldset&#45;&gt;action.fieldset_group -->
<g id="edge1" class="edge">
<title>action.fieldset:fieldset_group&#45;&gt;action.fieldset_group:id</title>
<path fill="none" stroke="#000000" d="M610.9937,-2507.1685C389.9949,-2492.3772 395.2726,-1987.5 623,-1987.5"/>
<polygon fill="#000000" stroke="#000000" points="611.0055,-2507.1688 620.851,-2511.9975 616.0027,-2507.3344 621,-2507.5 621,-2507.5 621,-2507.5 616.0027,-2507.3344 621.149,-2503.0025 611.0055,-2507.1688 611.0055,-2507.1688"/>
<text text-anchor="start" x="7.085" y="-2517.5" font-family="Arial" font-size="10.00" fill="#000000">FOREIGN KEY (fieldset_group) REFERENCES action.fieldset_group(id) ON DELETE CASCADE DEFERRABLE INITIALLY DEFERRED</text>
</g>
</g>
</svg>
