<?xml version="1.0" encoding="UTF-8" standalone="no"?>
<!DOCTYPE svg PUBLIC "-//W3C//DTD SVG 1.1//EN"
 "http://www.w3.org/Graphics/SVG/1.1/DTD/svg11.dtd">
<!-- Generated by graphviz version 2.40.1 (20161225.0304)
 -->
<!-- Title: action.hold_copy_map Pages: 1 -->
<svg width="947pt" height="1522pt"
 viewBox="0.00 0.00 946.50 1522.00" xmlns="http://www.w3.org/2000/svg" xmlns:xlink="http://www.w3.org/1999/xlink">
<g id="graph0" class="graph" transform="scale(1 1) rotate(0) translate(4 1518)">
<title>action.hold_copy_map</title>
<polygon fill="#ffffff" stroke="transparent" points="-4,4 -4,-1518 942.5,-1518 942.5,4 -4,4"/>
<!-- action.hold_copy_map -->
<g id="node1" class="node">
<title>action.hold_copy_map</title>
<polygon fill="#efefef" stroke="transparent" points="572,-1432.5 572,-1467.5 893,-1467.5 893,-1432.5 572,-1432.5"/>
<polygon fill="none" stroke="#000000" points="572,-1432.5 572,-1467.5 893,-1467.5 893,-1432.5 572,-1432.5"/>
<text text-anchor="start" x="578.6863" y="-1445.3" font-family="Arial Bold" font-size="18.00" fill="#000000">action.hold_copy_map</text>
<text text-anchor="start" x="758.7457" y="-1445.3" font-family="Arial" font-size="14.00" fill="#000000">    </text>
<text text-anchor="start" x="792.9505" y="-1445.3" font-family="Arial" font-size="14.00" fill="#666666">[BASE TABLE]</text>
<polygon fill="none" stroke="#000000" points="572,-1402.5 572,-1432.5 893,-1432.5 893,-1402.5 572,-1402.5"/>
<text text-anchor="start" x="579" y="-1413.9" font-family="Arial" font-size="14.00" fill="#000000">id </text>
<text text-anchor="start" x="593.7798" y="-1413.9" font-family="Arial" font-size="14.00" fill="#666666">[bigint]</text>
<polygon fill="none" stroke="#000000" points="572,-1372.5 572,-1402.5 893,-1402.5 893,-1372.5 572,-1372.5"/>
<text text-anchor="start" x="579" y="-1383.9" font-family="Arial" font-size="14.00" fill="#000000">hold </text>
<text text-anchor="start" x="609.345" y="-1383.9" font-family="Arial" font-size="14.00" fill="#666666">[integer]</text>
<polygon fill="none" stroke="#000000" points="572,-1342.5 572,-1372.5 893,-1372.5 893,-1342.5 572,-1342.5"/>
<text text-anchor="start" x="579" y="-1353.9" font-family="Arial" font-size="14.00" fill="#000000">target_copy </text>
<text text-anchor="start" x="656.028" y="-1353.9" font-family="Arial" font-size="14.00" fill="#666666">[bigint]</text>
<polygon fill="none" stroke="#000000" points="572,-1312.5 572,-1342.5 893,-1342.5 893,-1312.5 572,-1312.5"/>
<text text-anchor="start" x="579" y="-1323.9" font-family="Arial" font-size="14.00" fill="#000000">proximity </text>
<text text-anchor="start" x="638.8808" y="-1323.9" font-family="Arial" font-size="14.00" fill="#666666">[numeric]</text>
<polygon fill="none" stroke="#000000" stroke-width="3" points="570,-1311.5 570,-1469.5 894,-1469.5 894,-1311.5 570,-1311.5"/>
</g>
<!-- action.hold_request -->
<g id="node2" class="node">
<title>action.hold_request</title>
<polygon fill="#efefef" stroke="transparent" points="571,-1152.5 571,-1187.5 894,-1187.5 894,-1152.5 571,-1152.5"/>
<polygon fill="none" stroke="#000000" points="571,-1152.5 571,-1187.5 894,-1187.5 894,-1152.5 571,-1152.5"/>
<text text-anchor="start" x="590.1883" y="-1165.3" font-family="Arial Bold" font-size="18.00" fill="#000000">action.hold_request</text>
<text text-anchor="start" x="747.2437" y="-1165.3" font-family="Arial" font-size="14.00" fill="#000000">    </text>
<text text-anchor="start" x="781.4485" y="-1165.3" font-family="Arial" font-size="14.00" fill="#666666">[BASE TABLE]</text>
<polygon fill="none" stroke="#000000" points="571,-1122.5 571,-1152.5 894,-1152.5 894,-1122.5 571,-1122.5"/>
<text text-anchor="start" x="578" y="-1133.9" font-family="Arial" font-size="14.00" fill="#000000">id    </text>
<text text-anchor="start" x="623.094" y="-1133.9" font-family="Arial" font-size="14.00" fill="#666666">[integer]</text>
<polygon fill="none" stroke="#000000" points="571,-1092.5 571,-1122.5 894,-1122.5 894,-1092.5 571,-1092.5"/>
<text text-anchor="start" x="578" y="-1103.9" font-family="Arial" font-size="14.00" fill="#000000">request_time    </text>
<text text-anchor="start" x="693.1094" y="-1103.9" font-family="Arial" font-size="14.00" fill="#666666">[timestamp with time zone]</text>
<polygon fill="none" stroke="#000000" points="571,-1062.5 571,-1092.5 894,-1092.5 894,-1062.5 571,-1062.5"/>
<text text-anchor="start" x="578" y="-1073.9" font-family="Arial" font-size="14.00" fill="#000000">capture_time    </text>
<text text-anchor="start" x="693.1094" y="-1073.9" font-family="Arial" font-size="14.00" fill="#666666">[timestamp with time zone]</text>
<polygon fill="none" stroke="#000000" points="571,-1032.5 571,-1062.5 894,-1062.5 894,-1032.5 571,-1032.5"/>
<text text-anchor="start" x="578" y="-1043.9" font-family="Arial" font-size="14.00" fill="#000000">fulfillment_time    </text>
<text text-anchor="start" x="705.5344" y="-1043.9" font-family="Arial" font-size="14.00" fill="#666666">[timestamp with time zone]</text>
<polygon fill="none" stroke="#000000" points="571,-1002.5 571,-1032.5 894,-1032.5 894,-1002.5 571,-1002.5"/>
<text text-anchor="start" x="578" y="-1013.9" font-family="Arial" font-size="14.00" fill="#000000">checkin_time    </text>
<text text-anchor="start" x="693.8822" y="-1013.9" font-family="Arial" font-size="14.00" fill="#666666">[timestamp with time zone]</text>
<polygon fill="none" stroke="#000000" points="571,-972.5 571,-1002.5 894,-1002.5 894,-972.5 571,-972.5"/>
<text text-anchor="start" x="578" y="-983.9" font-family="Arial" font-size="14.00" fill="#000000">return_time    </text>
<text text-anchor="start" x="682.9874" y="-983.9" font-family="Arial" font-size="14.00" fill="#666666">[timestamp with time zone]</text>
<polygon fill="none" stroke="#000000" points="571,-942.5 571,-972.5 894,-972.5 894,-942.5 571,-942.5"/>
<text text-anchor="start" x="578" y="-953.9" font-family="Arial" font-size="14.00" fill="#000000">prev_check_time    </text>
<text text-anchor="start" x="718.0014" y="-953.9" font-family="Arial" font-size="14.00" fill="#666666">[timestamp with time zone]</text>
<polygon fill="none" stroke="#000000" points="571,-912.5 571,-942.5 894,-942.5 894,-912.5 571,-912.5"/>
<text text-anchor="start" x="578" y="-923.9" font-family="Arial" font-size="14.00" fill="#000000">expire_time    </text>
<text text-anchor="start" x="684.5428" y="-923.9" font-family="Arial" font-size="14.00" fill="#666666">[timestamp with time zone]</text>
<polygon fill="none" stroke="#000000" points="571,-882.5 571,-912.5 894,-912.5 894,-882.5 571,-882.5"/>
<text text-anchor="start" x="578" y="-893.9" font-family="Arial" font-size="14.00" fill="#000000">cancel_time    </text>
<text text-anchor="start" x="686.8822" y="-893.9" font-family="Arial" font-size="14.00" fill="#666666">[timestamp with time zone]</text>
<polygon fill="none" stroke="#000000" points="571,-852.5 571,-882.5 894,-882.5 894,-852.5 571,-852.5"/>
<text text-anchor="start" x="578" y="-863.9" font-family="Arial" font-size="14.00" fill="#000000">cancel_cause    </text>
<text text-anchor="start" x="697.7896" y="-863.9" font-family="Arial" font-size="14.00" fill="#666666">[integer]</text>
<polygon fill="none" stroke="#000000" points="571,-822.5 571,-852.5 894,-852.5 894,-822.5 571,-822.5"/>
<text text-anchor="start" x="578" y="-833.9" font-family="Arial" font-size="14.00" fill="#000000">cancel_note    </text>
<text text-anchor="start" x="687.6802" y="-833.9" font-family="Arial" font-size="14.00" fill="#666666">[text]</text>
<polygon fill="none" stroke="#000000" points="571,-792.5 571,-822.5 894,-822.5 894,-792.5 571,-792.5"/>
<text text-anchor="start" x="578" y="-803.9" font-family="Arial" font-size="14.00" fill="#000000">target    </text>
<text text-anchor="start" x="647.9944" y="-803.9" font-family="Arial" font-size="14.00" fill="#666666">[bigint]</text>
<polygon fill="none" stroke="#000000" points="571,-762.5 571,-792.5 894,-792.5 894,-762.5 571,-762.5"/>
<text text-anchor="start" x="578" y="-773.9" font-family="Arial" font-size="14.00" fill="#000000">current_copy    </text>
<text text-anchor="start" x="693.1122" y="-773.9" font-family="Arial" font-size="14.00" fill="#666666">[bigint]</text>
<polygon fill="none" stroke="#000000" points="571,-732.5 571,-762.5 894,-762.5 894,-732.5 571,-732.5"/>
<text text-anchor="start" x="578" y="-743.9" font-family="Arial" font-size="14.00" fill="#000000">fulfillment_staff    </text>
<text text-anchor="start" x="705.5484" y="-743.9" font-family="Arial" font-size="14.00" fill="#666666">[integer]</text>
<polygon fill="none" stroke="#000000" points="571,-702.5 571,-732.5 894,-732.5 894,-702.5 571,-702.5"/>
<text text-anchor="start" x="578" y="-713.9" font-family="Arial" font-size="14.00" fill="#000000">fulfillment_lib    </text>
<text text-anchor="start" x="693.0898" y="-713.9" font-family="Arial" font-size="14.00" fill="#666666">[integer]</text>
<polygon fill="none" stroke="#000000" points="571,-672.5 571,-702.5 894,-702.5 894,-672.5 571,-672.5"/>
<text text-anchor="start" x="578" y="-683.9" font-family="Arial" font-size="14.00" fill="#000000">request_lib    </text>
<text text-anchor="start" x="680.6648" y="-683.9" font-family="Arial" font-size="14.00" fill="#666666">[integer]</text>
<polygon fill="none" stroke="#000000" points="571,-642.5 571,-672.5 894,-672.5 894,-642.5 571,-642.5"/>
<text text-anchor="start" x="578" y="-653.9" font-family="Arial" font-size="14.00" fill="#000000">requestor    </text>
<text text-anchor="start" x="671.3296" y="-653.9" font-family="Arial" font-size="14.00" fill="#666666">[integer]</text>
<polygon fill="none" stroke="#000000" points="571,-612.5 571,-642.5 894,-642.5 894,-612.5 571,-612.5"/>
<text text-anchor="start" x="578" y="-623.9" font-family="Arial" font-size="14.00" fill="#000000">usr    </text>
<text text-anchor="start" x="631.648" y="-623.9" font-family="Arial" font-size="14.00" fill="#666666">[integer]</text>
<polygon fill="none" stroke="#000000" points="571,-582.5 571,-612.5 894,-612.5 894,-582.5 571,-582.5"/>
<text text-anchor="start" x="578" y="-593.9" font-family="Arial" font-size="14.00" fill="#000000">selection_ou    </text>
<text text-anchor="start" x="690.7868" y="-593.9" font-family="Arial" font-size="14.00" fill="#666666">[integer]</text>
<polygon fill="none" stroke="#000000" points="571,-552.5 571,-582.5 894,-582.5 894,-552.5 571,-552.5"/>
<text text-anchor="start" x="578" y="-563.9" font-family="Arial" font-size="14.00" fill="#000000">selection_depth    </text>
<text text-anchor="start" x="710.2426" y="-563.9" font-family="Arial" font-size="14.00" fill="#666666">[integer]</text>
<polygon fill="none" stroke="#000000" points="571,-522.5 571,-552.5 894,-552.5 894,-522.5 571,-522.5"/>
<text text-anchor="start" x="578" y="-533.9" font-family="Arial" font-size="14.00" fill="#000000">pickup_lib    </text>
<text text-anchor="start" x="674.4376" y="-533.9" font-family="Arial" font-size="14.00" fill="#666666">[integer]</text>
<polygon fill="none" stroke="#000000" points="571,-492.5 571,-522.5 894,-522.5 894,-492.5 571,-492.5"/>
<text text-anchor="start" x="578" y="-503.9" font-family="Arial" font-size="14.00" fill="#000000">hold_type    </text>
<text text-anchor="start" x="672.8976" y="-503.9" font-family="Arial" font-size="14.00" fill="#666666">[text]</text>
<polygon fill="none" stroke="#000000" points="571,-462.5 571,-492.5 894,-492.5 894,-462.5 571,-462.5"/>
<text text-anchor="start" x="578" y="-473.9" font-family="Arial" font-size="14.00" fill="#000000">holdable_formats    </text>
<text text-anchor="start" x="719.5638" y="-473.9" font-family="Arial" font-size="14.00" fill="#666666">[text]</text>
<polygon fill="none" stroke="#000000" points="571,-432.5 571,-462.5 894,-462.5 894,-432.5 571,-432.5"/>
<text text-anchor="start" x="578" y="-443.9" font-family="Arial" font-size="14.00" fill="#000000">phone_notify    </text>
<text text-anchor="start" x="692.3534" y="-443.9" font-family="Arial" font-size="14.00" fill="#666666">[text]</text>
<polygon fill="none" stroke="#000000" points="571,-402.5 571,-432.5 894,-432.5 894,-402.5 571,-402.5"/>
<text text-anchor="start" x="578" y="-413.9" font-family="Arial" font-size="14.00" fill="#000000">email_notify    </text>
<text text-anchor="start" x="686.8794" y="-413.9" font-family="Arial" font-size="14.00" fill="#666666">[boolean]</text>
<polygon fill="none" stroke="#000000" points="571,-372.5 571,-402.5 894,-402.5 894,-372.5 571,-372.5"/>
<text text-anchor="start" x="578" y="-383.9" font-family="Arial" font-size="14.00" fill="#000000">sms_notify    </text>
<text text-anchor="start" x="679.101" y="-383.9" font-family="Arial" font-size="14.00" fill="#666666">[text]</text>
<polygon fill="none" stroke="#000000" points="571,-342.5 571,-372.5 894,-372.5 894,-342.5 571,-342.5"/>
<text text-anchor="start" x="578" y="-353.9" font-family="Arial" font-size="14.00" fill="#000000">sms_carrier    </text>
<text text-anchor="start" x="685.3016" y="-353.9" font-family="Arial" font-size="14.00" fill="#666666">[integer]</text>
<polygon fill="none" stroke="#000000" points="571,-312.5 571,-342.5 894,-342.5 894,-312.5 571,-312.5"/>
<text text-anchor="start" x="578" y="-323.9" font-family="Arial" font-size="14.00" fill="#000000">frozen    </text>
<text text-anchor="start" x="651.1038" y="-323.9" font-family="Arial" font-size="14.00" fill="#666666">[boolean]</text>
<polygon fill="none" stroke="#000000" points="571,-282.5 571,-312.5 894,-312.5 894,-282.5 571,-282.5"/>
<text text-anchor="start" x="578" y="-293.9" font-family="Arial" font-size="14.00" fill="#000000">thaw_date    </text>
<text text-anchor="start" x="676.7882" y="-293.9" font-family="Arial" font-size="14.00" fill="#666666">[timestamp with time zone]</text>
<polygon fill="none" stroke="#000000" points="571,-252.5 571,-282.5 894,-282.5 894,-252.5 571,-252.5"/>
<text text-anchor="start" x="578" y="-263.9" font-family="Arial" font-size="14.00" fill="#000000">shelf_time    </text>
<text text-anchor="start" x="675.9902" y="-263.9" font-family="Arial" font-size="14.00" fill="#666666">[timestamp with time zone]</text>
<polygon fill="none" stroke="#000000" points="571,-222.5 571,-252.5 894,-252.5 894,-222.5 571,-222.5"/>
<text text-anchor="start" x="578" y="-233.9" font-family="Arial" font-size="14.00" fill="#000000">cut_in_line    </text>
<text text-anchor="start" x="679.1108" y="-233.9" font-family="Arial" font-size="14.00" fill="#666666">[boolean]</text>
<polygon fill="none" stroke="#000000" points="571,-192.5 571,-222.5 894,-222.5 894,-192.5 571,-192.5"/>
<text text-anchor="start" x="578" y="-203.9" font-family="Arial" font-size="14.00" fill="#000000">mint_condition    </text>
<text text-anchor="start" x="702.4446" y="-203.9" font-family="Arial" font-size="14.00" fill="#666666">[boolean]</text>
<polygon fill="none" stroke="#000000" points="571,-162.5 571,-192.5 894,-192.5 894,-162.5 571,-162.5"/>
<text text-anchor="start" x="577.7139" y="-173.9" font-family="Arial" font-size="14.00" fill="#000000">shelf_expire_time    </text>
<text text-anchor="start" x="721.6017" y="-173.9" font-family="Arial" font-size="14.00" fill="#666666">[timestamp with time zone]</text>
<polygon fill="none" stroke="#000000" points="571,-132.5 571,-162.5 894,-162.5 894,-132.5 571,-132.5"/>
<text text-anchor="start" x="578" y="-143.9" font-family="Arial" font-size="14.00" fill="#000000">current_shelf_lib    </text>
<text text-anchor="start" x="714.8878" y="-143.9" font-family="Arial" font-size="14.00" fill="#666666">[integer]</text>
<polygon fill="none" stroke="#000000" points="571,-102.5 571,-132.5 894,-132.5 894,-102.5 571,-102.5"/>
<text text-anchor="start" x="578" y="-113.9" font-family="Arial" font-size="14.00" fill="#000000">behind_desk    </text>
<text text-anchor="start" x="691.5722" y="-113.9" font-family="Arial" font-size="14.00" fill="#666666">[boolean]</text>
<polygon fill="none" stroke="#000000" points="571,-72.5 571,-102.5 894,-102.5 894,-72.5 571,-72.5"/>
<text text-anchor="start" x="578" y="-83.9" font-family="Arial" font-size="14.00" fill="#000000">acq_request    </text>
<text text-anchor="start" x="689.2342" y="-83.9" font-family="Arial" font-size="14.00" fill="#666666">[integer]</text>
<polygon fill="none" stroke="#000000" points="571,-42.5 571,-72.5 894,-72.5 894,-42.5 571,-42.5"/>
<text text-anchor="start" x="578" y="-53.9" font-family="Arial" font-size="14.00" fill="#000000">hopeless_date    </text>
<text text-anchor="start" x="703.2454" y="-53.9" font-family="Arial" font-size="14.00" fill="#666666">[timestamp with time zone]</text>
</g>
<!-- action.hold_copy_map&#45;&gt;action.hold_request -->
<g id="edge1" class="edge">
<title>action.hold_copy_map:hold&#45;&gt;action.hold_request:id</title>
<path fill="none" stroke="#000000" d="M562.2231,-1384.6924C516.5399,-1357.2266 518.9163,-1137.5 571,-1137.5"/>
<polygon fill="#000000" stroke="#000000" points="562.3885,-1384.7398 570.7579,-1391.8252 567.1942,-1386.1199 572,-1387.5 572,-1387.5 572,-1387.5 567.1942,-1386.1199 573.2421,-1383.1748 562.3885,-1384.7398 562.3885,-1384.7398"/>
<text text-anchor="start" x="6.5345" y="-1397.5" font-family="Arial" font-size="10.00" fill="#000000">FOREIGN KEY (hold) REFERENCES action.hold_request(id) ON DELETE CASCADE DEFERRABLE INITIALLY DEFERRED</text>
</g>
</g>
</svg>
