<?xml version="1.0" encoding="UTF-8" standalone="no"?>
<!DOCTYPE svg PUBLIC "-//W3C//DTD SVG 1.1//EN"
 "http://www.w3.org/Graphics/SVG/1.1/DTD/svg11.dtd">
<!-- Generated by graphviz version 2.40.1 (20161225.0304)
 -->
<!-- Title: action.reservation_transit_copy Pages: 1 -->
<svg width="1595pt" height="1372pt"
 viewBox="0.00 0.00 1595.00 1372.00" xmlns="http://www.w3.org/2000/svg" xmlns:xlink="http://www.w3.org/1999/xlink">
<g id="graph0" class="graph" transform="scale(1 1) rotate(0) translate(4 1368)">
<title>action.reservation_transit_copy</title>
<polygon fill="#ffffff" stroke="transparent" points="-4,4 -4,-1368 1591,-1368 1591,4 -4,4"/>
<!-- action.reservation_transit_copy -->
<g id="node1" class="node">
<title>action.reservation_transit_copy</title>
<polygon fill="#efefef" stroke="transparent" points="595,-1282.5 595,-1317.5 985,-1317.5 985,-1282.5 595,-1282.5"/>
<polygon fill="none" stroke="#000000" points="595,-1282.5 595,-1317.5 985,-1317.5 985,-1282.5 595,-1282.5"/>
<text text-anchor="start" x="601.6875" y="-1295.3" font-family="Arial Bold" font-size="18.00" fill="#000000">action.reservation_transit_copy</text>
<text text-anchor="start" x="850.7445" y="-1295.3" font-family="Arial" font-size="14.00" fill="#000000">    </text>
<text text-anchor="start" x="884.9493" y="-1295.3" font-family="Arial" font-size="14.00" fill="#666666">[BASE TABLE]</text>
<polygon fill="none" stroke="#000000" points="595,-1252.5 595,-1282.5 985,-1282.5 985,-1252.5 595,-1252.5"/>
<text text-anchor="start" x="602" y="-1263.9" font-family="Arial" font-size="14.00" fill="#000000">id </text>
<text text-anchor="start" x="616.7798" y="-1263.9" font-family="Arial" font-size="14.00" fill="#666666">[integer]</text>
<polygon fill="none" stroke="#000000" points="595,-1222.5 595,-1252.5 985,-1252.5 985,-1222.5 595,-1222.5"/>
<text text-anchor="start" x="602" y="-1233.9" font-family="Arial" font-size="14.00" fill="#000000">source_send_time </text>
<text text-anchor="start" x="720.2524" y="-1233.9" font-family="Arial" font-size="14.00" fill="#666666">[timestamp with time zone]</text>
<polygon fill="none" stroke="#000000" points="595,-1192.5 595,-1222.5 985,-1222.5 985,-1192.5 595,-1192.5"/>
<text text-anchor="start" x="602" y="-1203.9" font-family="Arial" font-size="14.00" fill="#000000">dest_recv_time </text>
<text text-anchor="start" x="700.7952" y="-1203.9" font-family="Arial" font-size="14.00" fill="#666666">[timestamp with time zone]</text>
<polygon fill="none" stroke="#000000" points="595,-1162.5 595,-1192.5 985,-1192.5 985,-1162.5 595,-1162.5"/>
<text text-anchor="start" x="602" y="-1173.9" font-family="Arial" font-size="14.00" fill="#000000">target_copy </text>
<text text-anchor="start" x="679.028" y="-1173.9" font-family="Arial" font-size="14.00" fill="#666666">[bigint]</text>
<polygon fill="none" stroke="#000000" points="595,-1132.5 595,-1162.5 985,-1162.5 985,-1132.5 595,-1132.5"/>
<text text-anchor="start" x="602" y="-1143.9" font-family="Arial" font-size="14.00" fill="#000000">source </text>
<text text-anchor="start" x="647.899" y="-1143.9" font-family="Arial" font-size="14.00" fill="#666666">[integer]</text>
<polygon fill="none" stroke="#000000" points="595,-1102.5 595,-1132.5 985,-1132.5 985,-1102.5 595,-1102.5"/>
<text text-anchor="start" x="602" y="-1113.9" font-family="Arial" font-size="14.00" fill="#000000">dest </text>
<text text-anchor="start" x="632.3464" y="-1113.9" font-family="Arial" font-size="14.00" fill="#666666">[integer]</text>
<polygon fill="none" stroke="#000000" points="595,-1072.5 595,-1102.5 985,-1102.5 985,-1072.5 595,-1072.5"/>
<text text-anchor="start" x="602" y="-1083.9" font-family="Arial" font-size="14.00" fill="#000000">prev_hop </text>
<text text-anchor="start" x="664.2468" y="-1083.9" font-family="Arial" font-size="14.00" fill="#666666">[integer]</text>
<polygon fill="none" stroke="#000000" points="595,-1042.5 595,-1072.5 985,-1072.5 985,-1042.5 595,-1042.5"/>
<text text-anchor="start" x="602" y="-1053.9" font-family="Arial" font-size="14.00" fill="#000000">copy_status </text>
<text text-anchor="start" x="680.5848" y="-1053.9" font-family="Arial" font-size="14.00" fill="#666666">[integer]</text>
<polygon fill="none" stroke="#000000" points="595,-1012.5 595,-1042.5 985,-1042.5 985,-1012.5 595,-1012.5"/>
<text text-anchor="start" x="602" y="-1023.9" font-family="Arial" font-size="14.00" fill="#000000">persistant_transfer </text>
<text text-anchor="start" x="721.8022" y="-1023.9" font-family="Arial" font-size="14.00" fill="#666666">[boolean]</text>
<polygon fill="none" stroke="#000000" points="595,-982.5 595,-1012.5 985,-1012.5 985,-982.5 595,-982.5"/>
<text text-anchor="start" x="602" y="-993.9" font-family="Arial" font-size="14.00" fill="#000000">prev_dest </text>
<text text-anchor="start" x="667.3548" y="-993.9" font-family="Arial" font-size="14.00" fill="#666666">[integer]</text>
<polygon fill="none" stroke="#000000" points="595,-952.5 595,-982.5 985,-982.5 985,-952.5 595,-952.5"/>
<text text-anchor="start" x="602" y="-963.9" font-family="Arial" font-size="14.00" fill="#000000">cancel_time </text>
<text text-anchor="start" x="680.568" y="-963.9" font-family="Arial" font-size="14.00" fill="#666666">[timestamp with time zone]</text>
<polygon fill="none" stroke="#000000" points="595,-922.5 595,-952.5 985,-952.5 985,-922.5 595,-922.5"/>
<text text-anchor="start" x="602" y="-933.9" font-family="Arial" font-size="14.00" fill="#000000">reservation </text>
<text text-anchor="start" x="675.122" y="-933.9" font-family="Arial" font-size="14.00" fill="#666666">[integer]</text>
<polygon fill="none" stroke="#000000" stroke-width="3" points="593.5,-921.5 593.5,-1319.5 986.5,-1319.5 986.5,-921.5 593.5,-921.5"/>
</g>
<!-- booking.resource -->
<g id="node2" class="node">
<title>booking.resource</title>
<polygon fill="#efefef" stroke="transparent" points="454,-522.5 454,-557.5 733,-557.5 733,-522.5 454,-522.5"/>
<polygon fill="none" stroke="#000000" points="454,-522.5 454,-557.5 733,-557.5 733,-522.5 454,-522.5"/>
<text text-anchor="start" x="460.6977" y="-535.3" font-family="Arial Bold" font-size="18.00" fill="#000000">booking.resource</text>
<text text-anchor="start" x="598.7343" y="-535.3" font-family="Arial" font-size="14.00" fill="#000000">    </text>
<text text-anchor="start" x="632.9391" y="-535.3" font-family="Arial" font-size="14.00" fill="#666666">[BASE TABLE]</text>
<polygon fill="none" stroke="#000000" points="454,-492.5 454,-522.5 733,-522.5 733,-492.5 454,-492.5"/>
<text text-anchor="start" x="461" y="-503.9" font-family="Arial" font-size="14.00" fill="#000000">id    </text>
<text text-anchor="start" x="506.094" y="-503.9" font-family="Arial" font-size="14.00" fill="#666666">[integer]</text>
<polygon fill="none" stroke="#000000" points="454,-462.5 454,-492.5 733,-492.5 733,-462.5 454,-462.5"/>
<text text-anchor="start" x="461" y="-473.9" font-family="Arial" font-size="14.00" fill="#000000">owner    </text>
<text text-anchor="start" x="533.3198" y="-473.9" font-family="Arial" font-size="14.00" fill="#666666">[integer]</text>
<polygon fill="none" stroke="#000000" points="454,-432.5 454,-462.5 733,-462.5 733,-432.5 454,-432.5"/>
<text text-anchor="start" x="461" y="-443.9" font-family="Arial" font-size="14.00" fill="#000000">type    </text>
<text text-anchor="start" x="521.6606" y="-443.9" font-family="Arial" font-size="14.00" fill="#666666">[integer]</text>
<polygon fill="none" stroke="#000000" points="454,-402.5 454,-432.5 733,-432.5 733,-402.5 454,-402.5"/>
<text text-anchor="start" x="461" y="-413.9" font-family="Arial" font-size="14.00" fill="#000000">overbook    </text>
<text text-anchor="start" x="552.7784" y="-413.9" font-family="Arial" font-size="14.00" fill="#666666">[boolean]</text>
<polygon fill="none" stroke="#000000" points="454,-372.5 454,-402.5 733,-402.5 733,-372.5 454,-372.5"/>
<text text-anchor="start" x="461" y="-383.9" font-family="Arial" font-size="14.00" fill="#000000">barcode    </text>
<text text-anchor="start" x="545.7784" y="-383.9" font-family="Arial" font-size="14.00" fill="#666666">[text]</text>
<polygon fill="none" stroke="#000000" points="454,-342.5 454,-372.5 733,-372.5 733,-342.5 454,-342.5"/>
<text text-anchor="start" x="461" y="-353.9" font-family="Arial" font-size="14.00" fill="#000000">deposit    </text>
<text text-anchor="start" x="540.3324" y="-353.9" font-family="Arial" font-size="14.00" fill="#666666">[boolean]</text>
<polygon fill="none" stroke="#000000" points="454,-312.5 454,-342.5 733,-342.5 733,-312.5 454,-312.5"/>
<text text-anchor="start" x="461" y="-323.9" font-family="Arial" font-size="14.00" fill="#000000">deposit_amount    </text>
<text text-anchor="start" x="594.7966" y="-323.9" font-family="Arial" font-size="14.00" fill="#666666">[numeric(8,2)]</text>
<polygon fill="none" stroke="#000000" points="454,-282.5 454,-312.5 733,-312.5 733,-282.5 454,-282.5"/>
<text text-anchor="start" x="461" y="-293.9" font-family="Arial" font-size="14.00" fill="#000000">user_fee    </text>
<text text-anchor="start" x="549.669" y="-293.9" font-family="Arial" font-size="14.00" fill="#666666">[numeric(8,2)]</text>
</g>
<!-- action.reservation_transit_copy&#45;&gt;booking.resource -->
<g id="edge1" class="edge">
<title>action.reservation_transit_copy:target_copy&#45;&gt;booking.resource:id</title>
<path fill="none" stroke="#000000" d="M585.0031,-1177.2155C352.9375,-1163.5921 717.909,-664.9266 733,-601 742.5475,-560.5561 774.5556,-507.5 733,-507.5"/>
<polygon fill="#000000" stroke="#000000" points="585.004,-1177.2154 594.872,-1181.9982 590.002,-1177.3577 595,-1177.5 595,-1177.5 595,-1177.5 590.002,-1177.3577 595.128,-1173.0018 585.004,-1177.2154 585.004,-1177.2154"/>
<text text-anchor="start" x="7.145" y="-1187.5" font-family="Arial" font-size="10.00" fill="#000000">FOREIGN KEY (target_copy) REFERENCES booking.resource(id) ON DELETE CASCADE DEFERRABLE INITIALLY DEFERRED</text>
</g>
<!-- booking.reservation -->
<g id="node3" class="node">
<title>booking.reservation</title>
<polygon fill="#efefef" stroke="transparent" points="837,-762.5 837,-797.5 1135,-797.5 1135,-762.5 837,-762.5"/>
<polygon fill="none" stroke="#000000" points="837,-762.5 837,-797.5 1135,-797.5 1135,-762.5 837,-762.5"/>
<text text-anchor="start" x="843.6964" y="-775.3" font-family="Arial Bold" font-size="18.00" fill="#000000">booking.reservation</text>
<text text-anchor="start" x="1000.7356" y="-775.3" font-family="Arial" font-size="14.00" fill="#000000">    </text>
<text text-anchor="start" x="1034.9404" y="-775.3" font-family="Arial" font-size="14.00" fill="#666666">[BASE TABLE]</text>
<polygon fill="none" stroke="#000000" points="837,-732.5 837,-762.5 1135,-762.5 1135,-732.5 837,-732.5"/>
<text text-anchor="start" x="844" y="-743.9" font-family="Arial" font-size="14.00" fill="#000000">id    </text>
<text text-anchor="start" x="889.094" y="-743.9" font-family="Arial" font-size="14.00" fill="#666666">[bigint]</text>
<polygon fill="none" stroke="#000000" points="837,-702.5 837,-732.5 1135,-732.5 1135,-702.5 837,-702.5"/>
<text text-anchor="start" x="844" y="-713.9" font-family="Arial" font-size="14.00" fill="#000000">usr    </text>
<text text-anchor="start" x="897.648" y="-713.9" font-family="Arial" font-size="14.00" fill="#666666">[integer]</text>
<polygon fill="none" stroke="#000000" points="837,-672.5 837,-702.5 1135,-702.5 1135,-672.5 837,-672.5"/>
<text text-anchor="start" x="844" y="-683.9" font-family="Arial" font-size="14.00" fill="#000000">xact_start    </text>
<text text-anchor="start" x="938.885" y="-683.9" font-family="Arial" font-size="14.00" fill="#666666">[timestamp with time zone]</text>
<polygon fill="none" stroke="#000000" points="837,-642.5 837,-672.5 1135,-672.5 1135,-642.5 837,-642.5"/>
<text text-anchor="start" x="844" y="-653.9" font-family="Arial" font-size="14.00" fill="#000000">xact_finish    </text>
<text text-anchor="start" x="944.3296" y="-653.9" font-family="Arial" font-size="14.00" fill="#666666">[timestamp with time zone]</text>
<polygon fill="none" stroke="#000000" points="837,-612.5 837,-642.5 1135,-642.5 1135,-612.5 837,-612.5"/>
<text text-anchor="start" x="844" y="-623.9" font-family="Arial" font-size="14.00" fill="#000000">unrecovered    </text>
<text text-anchor="start" x="956.0042" y="-623.9" font-family="Arial" font-size="14.00" fill="#666666">[boolean]</text>
<polygon fill="none" stroke="#000000" points="837,-582.5 837,-612.5 1135,-612.5 1135,-582.5 837,-582.5"/>
<text text-anchor="start" x="844" y="-593.9" font-family="Arial" font-size="14.00" fill="#000000">request_time    </text>
<text text-anchor="start" x="959.1094" y="-593.9" font-family="Arial" font-size="14.00" fill="#666666">[timestamp with time zone]</text>
<polygon fill="none" stroke="#000000" points="837,-552.5 837,-582.5 1135,-582.5 1135,-552.5 837,-552.5"/>
<text text-anchor="start" x="844" y="-563.9" font-family="Arial" font-size="14.00" fill="#000000">start_time    </text>
<text text-anchor="start" x="939.6522" y="-563.9" font-family="Arial" font-size="14.00" fill="#666666">[timestamp with time zone]</text>
<polygon fill="none" stroke="#000000" points="837,-522.5 837,-552.5 1135,-552.5 1135,-522.5 837,-522.5"/>
<text text-anchor="start" x="844" y="-533.9" font-family="Arial" font-size="14.00" fill="#000000">end_time    </text>
<text text-anchor="start" x="935.7756" y="-533.9" font-family="Arial" font-size="14.00" fill="#666666">[timestamp with time zone]</text>
<polygon fill="none" stroke="#000000" points="837,-492.5 837,-522.5 1135,-522.5 1135,-492.5 837,-492.5"/>
<text text-anchor="start" x="844" y="-503.9" font-family="Arial" font-size="14.00" fill="#000000">capture_time    </text>
<text text-anchor="start" x="959.1094" y="-503.9" font-family="Arial" font-size="14.00" fill="#666666">[timestamp with time zone]</text>
<polygon fill="none" stroke="#000000" points="837,-462.5 837,-492.5 1135,-492.5 1135,-462.5 837,-462.5"/>
<text text-anchor="start" x="844" y="-473.9" font-family="Arial" font-size="14.00" fill="#000000">cancel_time    </text>
<text text-anchor="start" x="952.8822" y="-473.9" font-family="Arial" font-size="14.00" fill="#666666">[timestamp with time zone]</text>
<polygon fill="none" stroke="#000000" points="837,-432.5 837,-462.5 1135,-462.5 1135,-432.5 837,-432.5"/>
<text text-anchor="start" x="844" y="-443.9" font-family="Arial" font-size="14.00" fill="#000000">pickup_time    </text>
<text text-anchor="start" x="952.8822" y="-443.9" font-family="Arial" font-size="14.00" fill="#666666">[timestamp with time zone]</text>
<polygon fill="none" stroke="#000000" points="837,-402.5 837,-432.5 1135,-432.5 1135,-402.5 837,-402.5"/>
<text text-anchor="start" x="844" y="-413.9" font-family="Arial" font-size="14.00" fill="#000000">return_time    </text>
<text text-anchor="start" x="948.9874" y="-413.9" font-family="Arial" font-size="14.00" fill="#666666">[timestamp with time zone]</text>
<polygon fill="none" stroke="#000000" points="837,-372.5 837,-402.5 1135,-402.5 1135,-372.5 837,-372.5"/>
<text text-anchor="start" x="844" y="-383.9" font-family="Arial" font-size="14.00" fill="#000000">booking_interval    </text>
<text text-anchor="start" x="980.1192" y="-383.9" font-family="Arial" font-size="14.00" fill="#666666">[interval]</text>
<polygon fill="none" stroke="#000000" points="837,-342.5 837,-372.5 1135,-372.5 1135,-342.5 837,-342.5"/>
<text text-anchor="start" x="844" y="-353.9" font-family="Arial" font-size="14.00" fill="#000000">fine_interval    </text>
<text text-anchor="start" x="953.662" y="-353.9" font-family="Arial" font-size="14.00" fill="#666666">[interval]</text>
<polygon fill="none" stroke="#000000" points="837,-312.5 837,-342.5 1135,-342.5 1135,-312.5 837,-312.5"/>
<text text-anchor="start" x="844" y="-323.9" font-family="Arial" font-size="14.00" fill="#000000">fine_amount    </text>
<text text-anchor="start" x="955.2314" y="-323.9" font-family="Arial" font-size="14.00" fill="#666666">[numeric(8,2)]</text>
<polygon fill="none" stroke="#000000" points="837,-282.5 837,-312.5 1135,-312.5 1135,-282.5 837,-282.5"/>
<text text-anchor="start" x="844" y="-293.9" font-family="Arial" font-size="14.00" fill="#000000">max_fine    </text>
<text text-anchor="start" x="934.993" y="-293.9" font-family="Arial" font-size="14.00" fill="#666666">[numeric(8,2)]</text>
<polygon fill="none" stroke="#000000" points="837,-252.5 837,-282.5 1135,-282.5 1135,-252.5 837,-252.5"/>
<text text-anchor="start" x="844" y="-263.9" font-family="Arial" font-size="14.00" fill="#000000">target_resource_type    </text>
<text text-anchor="start" x="1010.467" y="-263.9" font-family="Arial" font-size="14.00" fill="#666666">[integer]</text>
<polygon fill="none" stroke="#000000" points="837,-222.5 837,-252.5 1135,-252.5 1135,-222.5 837,-222.5"/>
<text text-anchor="start" x="844" y="-233.9" font-family="Arial" font-size="14.00" fill="#000000">target_resource    </text>
<text text-anchor="start" x="976.2286" y="-233.9" font-family="Arial" font-size="14.00" fill="#666666">[integer]</text>
<polygon fill="none" stroke="#000000" points="837,-192.5 837,-222.5 1135,-222.5 1135,-192.5 837,-192.5"/>
<text text-anchor="start" x="844" y="-203.9" font-family="Arial" font-size="14.00" fill="#000000">current_resource    </text>
<text text-anchor="start" x="983.9986" y="-203.9" font-family="Arial" font-size="14.00" fill="#666666">[integer]</text>
<polygon fill="none" stroke="#000000" points="837,-162.5 837,-192.5 1135,-192.5 1135,-162.5 837,-162.5"/>
<text text-anchor="start" x="844" y="-173.9" font-family="Arial" font-size="14.00" fill="#000000">request_lib    </text>
<text text-anchor="start" x="946.6648" y="-173.9" font-family="Arial" font-size="14.00" fill="#666666">[integer]</text>
<polygon fill="none" stroke="#000000" points="837,-132.5 837,-162.5 1135,-162.5 1135,-132.5 837,-132.5"/>
<text text-anchor="start" x="844" y="-143.9" font-family="Arial" font-size="14.00" fill="#000000">pickup_lib    </text>
<text text-anchor="start" x="940.4376" y="-143.9" font-family="Arial" font-size="14.00" fill="#666666">[integer]</text>
<polygon fill="none" stroke="#000000" points="837,-102.5 837,-132.5 1135,-132.5 1135,-102.5 837,-102.5"/>
<text text-anchor="start" x="844" y="-113.9" font-family="Arial" font-size="14.00" fill="#000000">capture_staff    </text>
<text text-anchor="start" x="959.1234" y="-113.9" font-family="Arial" font-size="14.00" fill="#666666">[integer]</text>
<polygon fill="none" stroke="#000000" points="837,-72.5 837,-102.5 1135,-102.5 1135,-72.5 837,-72.5"/>
<text text-anchor="start" x="844" y="-83.9" font-family="Arial" font-size="14.00" fill="#000000">email_notify    </text>
<text text-anchor="start" x="952.8794" y="-83.9" font-family="Arial" font-size="14.00" fill="#666666">[boolean]</text>
<polygon fill="none" stroke="#000000" points="837,-42.5 837,-72.5 1135,-72.5 1135,-42.5 837,-42.5"/>
<text text-anchor="start" x="844" y="-53.9" font-family="Arial" font-size="14.00" fill="#000000">note    </text>
<text text-anchor="start" x="905.4432" y="-53.9" font-family="Arial" font-size="14.00" fill="#666666">[text]</text>
</g>
<!-- action.reservation_transit_copy&#45;&gt;booking.reservation -->
<g id="edge2" class="edge">
<title>action.reservation_transit_copy:reservation&#45;&gt;booking.reservation:id</title>
<path fill="none" stroke="#000000" d="M994.9999,-934.8369C1008.5235,-925.6451 999.019,-894.8379 985,-877 943.1695,-823.7748 878.8305,-894.2252 837,-841 811.322,-808.3273 795.4444,-747.5 837,-747.5"/>
<polygon fill="#000000" stroke="#000000" points="994.6632,-934.9265 983.8419,-933.1516 989.8316,-936.2132 985,-937.5 985,-937.5 985,-937.5 989.8316,-936.2132 986.1581,-941.8484 994.6632,-934.9265 994.6632,-934.9265"/>
<text text-anchor="start" x="991.537" y="-947.5" font-family="Arial" font-size="10.00" fill="#000000">FOREIGN KEY (reservation) REFERENCES booking.reservation(id) ON DELETE SET NULL DEFERRABLE INITIALLY DEFERRED</text>
</g>
</g>
</svg>
