<?xml version="1.0" encoding="UTF-8" standalone="no"?>
<!DOCTYPE svg PUBLIC "-//W3C//DTD SVG 1.1//EN"
 "http://www.w3.org/Graphics/SVG/1.1/DTD/svg11.dtd">
<!-- Generated by graphviz version 2.40.1 (20161225.0304)
 -->
<!-- Title: action.emergency_closing_hold Pages: 1 -->
<svg width="1641pt" height="1552pt"
 viewBox="0.00 0.00 1641.00 1552.00" xmlns="http://www.w3.org/2000/svg" xmlns:xlink="http://www.w3.org/1999/xlink">
<g id="graph0" class="graph" transform="scale(1 1) rotate(0) translate(4 1548)">
<title>action.emergency_closing_hold</title>
<polygon fill="#ffffff" stroke="transparent" points="-4,4 -4,-1548 1637,-1548 1637,4 -4,4"/>
<!-- action.emergency_closing_hold -->
<g id="node1" class="node">
<title>action.emergency_closing_hold</title>
<polygon fill="#efefef" stroke="transparent" points="668,-1462.5 668,-1497.5 1061,-1497.5 1061,-1462.5 668,-1462.5"/>
<polygon fill="none" stroke="#000000" points="668,-1462.5 668,-1497.5 1061,-1497.5 1061,-1462.5 668,-1462.5"/>
<text text-anchor="start" x="674.6836" y="-1475.3" font-family="Arial Bold" font-size="18.00" fill="#000000">action.emergency_closing_hold</text>
<text text-anchor="start" x="926.7484" y="-1475.3" font-family="Arial" font-size="14.00" fill="#000000">    </text>
<text text-anchor="start" x="960.9532" y="-1475.3" font-family="Arial" font-size="14.00" fill="#666666">[BASE TABLE]</text>
<polygon fill="none" stroke="#000000" points="668,-1432.5 668,-1462.5 1061,-1462.5 1061,-1432.5 668,-1432.5"/>
<text text-anchor="start" x="675" y="-1443.9" font-family="Arial" font-size="14.00" fill="#000000">id </text>
<text text-anchor="start" x="689.7798" y="-1443.9" font-family="Arial" font-size="14.00" fill="#666666">[bigint]</text>
<polygon fill="none" stroke="#000000" points="668,-1402.5 668,-1432.5 1061,-1432.5 1061,-1402.5 668,-1402.5"/>
<text text-anchor="start" x="675" y="-1413.9" font-family="Arial" font-size="14.00" fill="#000000">emergency_closing </text>
<text text-anchor="start" x="799.4684" y="-1413.9" font-family="Arial" font-size="14.00" fill="#666666">[integer]</text>
<polygon fill="none" stroke="#000000" points="668,-1372.5 668,-1402.5 1061,-1402.5 1061,-1372.5 668,-1372.5"/>
<text text-anchor="start" x="675" y="-1383.9" font-family="Arial" font-size="14.00" fill="#000000">hold </text>
<text text-anchor="start" x="705.345" y="-1383.9" font-family="Arial" font-size="14.00" fill="#666666">[integer]</text>
<polygon fill="none" stroke="#000000" points="668,-1342.5 668,-1372.5 1061,-1372.5 1061,-1342.5 668,-1342.5"/>
<text text-anchor="start" x="675" y="-1353.9" font-family="Arial" font-size="14.00" fill="#000000">original_shelf_expire_time </text>
<text text-anchor="start" x="841.467" y="-1353.9" font-family="Arial" font-size="14.00" fill="#666666">[timestamp with time zone]</text>
<polygon fill="none" stroke="#000000" points="668,-1312.5 668,-1342.5 1061,-1342.5 1061,-1312.5 668,-1312.5"/>
<text text-anchor="start" x="675" y="-1323.9" font-family="Arial" font-size="14.00" fill="#000000">process_time </text>
<text text-anchor="start" x="762.122" y="-1323.9" font-family="Arial" font-size="14.00" fill="#666666">[timestamp with time zone]</text>
<polygon fill="none" stroke="#000000" stroke-width="3" points="666,-1311.5 666,-1499.5 1062,-1499.5 1062,-1311.5 666,-1311.5"/>
</g>
<!-- action.emergency_closing -->
<g id="node2" class="node">
<title>action.emergency_closing</title>
<polygon fill="#efefef" stroke="transparent" points="470,-687.5 470,-722.5 819,-722.5 819,-687.5 470,-687.5"/>
<polygon fill="none" stroke="#000000" points="470,-687.5 470,-722.5 819,-722.5 819,-687.5 470,-687.5"/>
<text text-anchor="start" x="476.6931" y="-700.3" font-family="Arial Bold" font-size="18.00" fill="#000000">action.emergency_closing</text>
<text text-anchor="start" x="684.7389" y="-700.3" font-family="Arial" font-size="14.00" fill="#000000">    </text>
<text text-anchor="start" x="718.9437" y="-700.3" font-family="Arial" font-size="14.00" fill="#666666">[BASE TABLE]</text>
<polygon fill="none" stroke="#000000" points="470,-657.5 470,-687.5 819,-687.5 819,-657.5 470,-657.5"/>
<text text-anchor="start" x="477" y="-668.9" font-family="Arial" font-size="14.00" fill="#000000">id    </text>
<text text-anchor="start" x="522.094" y="-668.9" font-family="Arial" font-size="14.00" fill="#666666">[integer]</text>
<polygon fill="none" stroke="#000000" points="470,-627.5 470,-657.5 819,-657.5 819,-627.5 470,-627.5"/>
<text text-anchor="start" x="477" y="-638.9" font-family="Arial" font-size="14.00" fill="#000000">creator    </text>
<text text-anchor="start" x="554.7644" y="-638.9" font-family="Arial" font-size="14.00" fill="#666666">[integer]</text>
<polygon fill="none" stroke="#000000" points="470,-597.5 470,-627.5 819,-627.5 819,-597.5 470,-597.5"/>
<text text-anchor="start" x="477" y="-608.9" font-family="Arial" font-size="14.00" fill="#000000">create_time    </text>
<text text-anchor="start" x="584.3268" y="-608.9" font-family="Arial" font-size="14.00" fill="#666666">[timestamp with time zone]</text>
<polygon fill="none" stroke="#000000" points="470,-567.5 470,-597.5 819,-597.5 819,-567.5 470,-567.5"/>
<text text-anchor="start" x="477" y="-578.9" font-family="Arial" font-size="14.00" fill="#000000">process_start_time    </text>
<text text-anchor="start" x="629.4432" y="-578.9" font-family="Arial" font-size="14.00" fill="#666666">[timestamp with time zone]</text>
<polygon fill="none" stroke="#000000" points="470,-537.5 470,-567.5 819,-567.5 819,-537.5 470,-537.5"/>
<text text-anchor="start" x="477" y="-548.9" font-family="Arial" font-size="14.00" fill="#000000">process_end_time    </text>
<text text-anchor="start" x="625.5666" y="-548.9" font-family="Arial" font-size="14.00" fill="#666666">[timestamp with time zone]</text>
<polygon fill="none" stroke="#000000" points="470,-507.5 470,-537.5 819,-537.5 819,-507.5 470,-507.5"/>
<text text-anchor="start" x="477" y="-518.9" font-family="Arial" font-size="14.00" fill="#000000">last_update_time    </text>
<text text-anchor="start" x="617.7938" y="-518.9" font-family="Arial" font-size="14.00" fill="#666666">[timestamp with time zone]</text>
</g>
<!-- action.emergency_closing_hold&#45;&gt;action.emergency_closing -->
<g id="edge1" class="edge">
<title>action.emergency_closing_hold:emergency_closing&#45;&gt;action.emergency_closing:id</title>
<path fill="none" stroke="#000000" d="M658.0102,-1416.4831C519.7795,-1385.8322 984.2927,-672.5 819,-672.5"/>
<polygon fill="#000000" stroke="#000000" points="658.0514,-1416.4872 667.5443,-1421.9769 663.0257,-1416.9936 668,-1417.5 668,-1417.5 668,-1417.5 663.0257,-1416.9936 668.4557,-1413.0231 658.0514,-1416.4872 658.0514,-1416.4872"/>
<text text-anchor="start" x="6.755" y="-1427.5" font-family="Arial" font-size="10.00" fill="#000000">FOREIGN KEY (emergency_closing) REFERENCES action.emergency_closing(id) ON DELETE CASCADE DEFERRABLE INITIALLY DEFERRED</text>
</g>
<!-- action.hold_request -->
<g id="node3" class="node">
<title>action.hold_request</title>
<polygon fill="#efefef" stroke="transparent" points="923,-1152.5 923,-1187.5 1246,-1187.5 1246,-1152.5 923,-1152.5"/>
<polygon fill="none" stroke="#000000" points="923,-1152.5 923,-1187.5 1246,-1187.5 1246,-1152.5 923,-1152.5"/>
<text text-anchor="start" x="942.1883" y="-1165.3" font-family="Arial Bold" font-size="18.00" fill="#000000">action.hold_request</text>
<text text-anchor="start" x="1099.2437" y="-1165.3" font-family="Arial" font-size="14.00" fill="#000000">    </text>
<text text-anchor="start" x="1133.4485" y="-1165.3" font-family="Arial" font-size="14.00" fill="#666666">[BASE TABLE]</text>
<polygon fill="none" stroke="#000000" points="923,-1122.5 923,-1152.5 1246,-1152.5 1246,-1122.5 923,-1122.5"/>
<text text-anchor="start" x="930" y="-1133.9" font-family="Arial" font-size="14.00" fill="#000000">id    </text>
<text text-anchor="start" x="975.094" y="-1133.9" font-family="Arial" font-size="14.00" fill="#666666">[integer]</text>
<polygon fill="none" stroke="#000000" points="923,-1092.5 923,-1122.5 1246,-1122.5 1246,-1092.5 923,-1092.5"/>
<text text-anchor="start" x="930" y="-1103.9" font-family="Arial" font-size="14.00" fill="#000000">request_time    </text>
<text text-anchor="start" x="1045.1094" y="-1103.9" font-family="Arial" font-size="14.00" fill="#666666">[timestamp with time zone]</text>
<polygon fill="none" stroke="#000000" points="923,-1062.5 923,-1092.5 1246,-1092.5 1246,-1062.5 923,-1062.5"/>
<text text-anchor="start" x="930" y="-1073.9" font-family="Arial" font-size="14.00" fill="#000000">capture_time    </text>
<text text-anchor="start" x="1045.1094" y="-1073.9" font-family="Arial" font-size="14.00" fill="#666666">[timestamp with time zone]</text>
<polygon fill="none" stroke="#000000" points="923,-1032.5 923,-1062.5 1246,-1062.5 1246,-1032.5 923,-1032.5"/>
<text text-anchor="start" x="930" y="-1043.9" font-family="Arial" font-size="14.00" fill="#000000">fulfillment_time    </text>
<text text-anchor="start" x="1057.5344" y="-1043.9" font-family="Arial" font-size="14.00" fill="#666666">[timestamp with time zone]</text>
<polygon fill="none" stroke="#000000" points="923,-1002.5 923,-1032.5 1246,-1032.5 1246,-1002.5 923,-1002.5"/>
<text text-anchor="start" x="930" y="-1013.9" font-family="Arial" font-size="14.00" fill="#000000">checkin_time    </text>
<text text-anchor="start" x="1045.8822" y="-1013.9" font-family="Arial" font-size="14.00" fill="#666666">[timestamp with time zone]</text>
<polygon fill="none" stroke="#000000" points="923,-972.5 923,-1002.5 1246,-1002.5 1246,-972.5 923,-972.5"/>
<text text-anchor="start" x="930" y="-983.9" font-family="Arial" font-size="14.00" fill="#000000">return_time    </text>
<text text-anchor="start" x="1034.9874" y="-983.9" font-family="Arial" font-size="14.00" fill="#666666">[timestamp with time zone]</text>
<polygon fill="none" stroke="#000000" points="923,-942.5 923,-972.5 1246,-972.5 1246,-942.5 923,-942.5"/>
<text text-anchor="start" x="930" y="-953.9" font-family="Arial" font-size="14.00" fill="#000000">prev_check_time    </text>
<text text-anchor="start" x="1070.0014" y="-953.9" font-family="Arial" font-size="14.00" fill="#666666">[timestamp with time zone]</text>
<polygon fill="none" stroke="#000000" points="923,-912.5 923,-942.5 1246,-942.5 1246,-912.5 923,-912.5"/>
<text text-anchor="start" x="930" y="-923.9" font-family="Arial" font-size="14.00" fill="#000000">expire_time    </text>
<text text-anchor="start" x="1036.5428" y="-923.9" font-family="Arial" font-size="14.00" fill="#666666">[timestamp with time zone]</text>
<polygon fill="none" stroke="#000000" points="923,-882.5 923,-912.5 1246,-912.5 1246,-882.5 923,-882.5"/>
<text text-anchor="start" x="930" y="-893.9" font-family="Arial" font-size="14.00" fill="#000000">cancel_time    </text>
<text text-anchor="start" x="1038.8822" y="-893.9" font-family="Arial" font-size="14.00" fill="#666666">[timestamp with time zone]</text>
<polygon fill="none" stroke="#000000" points="923,-852.5 923,-882.5 1246,-882.5 1246,-852.5 923,-852.5"/>
<text text-anchor="start" x="930" y="-863.9" font-family="Arial" font-size="14.00" fill="#000000">cancel_cause    </text>
<text text-anchor="start" x="1049.7896" y="-863.9" font-family="Arial" font-size="14.00" fill="#666666">[integer]</text>
<polygon fill="none" stroke="#000000" points="923,-822.5 923,-852.5 1246,-852.5 1246,-822.5 923,-822.5"/>
<text text-anchor="start" x="930" y="-833.9" font-family="Arial" font-size="14.00" fill="#000000">cancel_note    </text>
<text text-anchor="start" x="1039.6802" y="-833.9" font-family="Arial" font-size="14.00" fill="#666666">[text]</text>
<polygon fill="none" stroke="#000000" points="923,-792.5 923,-822.5 1246,-822.5 1246,-792.5 923,-792.5"/>
<text text-anchor="start" x="930" y="-803.9" font-family="Arial" font-size="14.00" fill="#000000">target    </text>
<text text-anchor="start" x="999.9944" y="-803.9" font-family="Arial" font-size="14.00" fill="#666666">[bigint]</text>
<polygon fill="none" stroke="#000000" points="923,-762.5 923,-792.5 1246,-792.5 1246,-762.5 923,-762.5"/>
<text text-anchor="start" x="930" y="-773.9" font-family="Arial" font-size="14.00" fill="#000000">current_copy    </text>
<text text-anchor="start" x="1045.1122" y="-773.9" font-family="Arial" font-size="14.00" fill="#666666">[bigint]</text>
<polygon fill="none" stroke="#000000" points="923,-732.5 923,-762.5 1246,-762.5 1246,-732.5 923,-732.5"/>
<text text-anchor="start" x="930" y="-743.9" font-family="Arial" font-size="14.00" fill="#000000">fulfillment_staff    </text>
<text text-anchor="start" x="1057.5484" y="-743.9" font-family="Arial" font-size="14.00" fill="#666666">[integer]</text>
<polygon fill="none" stroke="#000000" points="923,-702.5 923,-732.5 1246,-732.5 1246,-702.5 923,-702.5"/>
<text text-anchor="start" x="930" y="-713.9" font-family="Arial" font-size="14.00" fill="#000000">fulfillment_lib    </text>
<text text-anchor="start" x="1045.0898" y="-713.9" font-family="Arial" font-size="14.00" fill="#666666">[integer]</text>
<polygon fill="none" stroke="#000000" points="923,-672.5 923,-702.5 1246,-702.5 1246,-672.5 923,-672.5"/>
<text text-anchor="start" x="930" y="-683.9" font-family="Arial" font-size="14.00" fill="#000000">request_lib    </text>
<text text-anchor="start" x="1032.6648" y="-683.9" font-family="Arial" font-size="14.00" fill="#666666">[integer]</text>
<polygon fill="none" stroke="#000000" points="923,-642.5 923,-672.5 1246,-672.5 1246,-642.5 923,-642.5"/>
<text text-anchor="start" x="930" y="-653.9" font-family="Arial" font-size="14.00" fill="#000000">requestor    </text>
<text text-anchor="start" x="1023.3296" y="-653.9" font-family="Arial" font-size="14.00" fill="#666666">[integer]</text>
<polygon fill="none" stroke="#000000" points="923,-612.5 923,-642.5 1246,-642.5 1246,-612.5 923,-612.5"/>
<text text-anchor="start" x="930" y="-623.9" font-family="Arial" font-size="14.00" fill="#000000">usr    </text>
<text text-anchor="start" x="983.648" y="-623.9" font-family="Arial" font-size="14.00" fill="#666666">[integer]</text>
<polygon fill="none" stroke="#000000" points="923,-582.5 923,-612.5 1246,-612.5 1246,-582.5 923,-582.5"/>
<text text-anchor="start" x="930" y="-593.9" font-family="Arial" font-size="14.00" fill="#000000">selection_ou    </text>
<text text-anchor="start" x="1042.7868" y="-593.9" font-family="Arial" font-size="14.00" fill="#666666">[integer]</text>
<polygon fill="none" stroke="#000000" points="923,-552.5 923,-582.5 1246,-582.5 1246,-552.5 923,-552.5"/>
<text text-anchor="start" x="930" y="-563.9" font-family="Arial" font-size="14.00" fill="#000000">selection_depth    </text>
<text text-anchor="start" x="1062.2426" y="-563.9" font-family="Arial" font-size="14.00" fill="#666666">[integer]</text>
<polygon fill="none" stroke="#000000" points="923,-522.5 923,-552.5 1246,-552.5 1246,-522.5 923,-522.5"/>
<text text-anchor="start" x="930" y="-533.9" font-family="Arial" font-size="14.00" fill="#000000">pickup_lib    </text>
<text text-anchor="start" x="1026.4376" y="-533.9" font-family="Arial" font-size="14.00" fill="#666666">[integer]</text>
<polygon fill="none" stroke="#000000" points="923,-492.5 923,-522.5 1246,-522.5 1246,-492.5 923,-492.5"/>
<text text-anchor="start" x="930" y="-503.9" font-family="Arial" font-size="14.00" fill="#000000">hold_type    </text>
<text text-anchor="start" x="1024.8976" y="-503.9" font-family="Arial" font-size="14.00" fill="#666666">[text]</text>
<polygon fill="none" stroke="#000000" points="923,-462.5 923,-492.5 1246,-492.5 1246,-462.5 923,-462.5"/>
<text text-anchor="start" x="930" y="-473.9" font-family="Arial" font-size="14.00" fill="#000000">holdable_formats    </text>
<text text-anchor="start" x="1071.5638" y="-473.9" font-family="Arial" font-size="14.00" fill="#666666">[text]</text>
<polygon fill="none" stroke="#000000" points="923,-432.5 923,-462.5 1246,-462.5 1246,-432.5 923,-432.5"/>
<text text-anchor="start" x="930" y="-443.9" font-family="Arial" font-size="14.00" fill="#000000">phone_notify    </text>
<text text-anchor="start" x="1044.3534" y="-443.9" font-family="Arial" font-size="14.00" fill="#666666">[text]</text>
<polygon fill="none" stroke="#000000" points="923,-402.5 923,-432.5 1246,-432.5 1246,-402.5 923,-402.5"/>
<text text-anchor="start" x="930" y="-413.9" font-family="Arial" font-size="14.00" fill="#000000">email_notify    </text>
<text text-anchor="start" x="1038.8794" y="-413.9" font-family="Arial" font-size="14.00" fill="#666666">[boolean]</text>
<polygon fill="none" stroke="#000000" points="923,-372.5 923,-402.5 1246,-402.5 1246,-372.5 923,-372.5"/>
<text text-anchor="start" x="930" y="-383.9" font-family="Arial" font-size="14.00" fill="#000000">sms_notify    </text>
<text text-anchor="start" x="1031.101" y="-383.9" font-family="Arial" font-size="14.00" fill="#666666">[text]</text>
<polygon fill="none" stroke="#000000" points="923,-342.5 923,-372.5 1246,-372.5 1246,-342.5 923,-342.5"/>
<text text-anchor="start" x="930" y="-353.9" font-family="Arial" font-size="14.00" fill="#000000">sms_carrier    </text>
<text text-anchor="start" x="1037.3016" y="-353.9" font-family="Arial" font-size="14.00" fill="#666666">[integer]</text>
<polygon fill="none" stroke="#000000" points="923,-312.5 923,-342.5 1246,-342.5 1246,-312.5 923,-312.5"/>
<text text-anchor="start" x="930" y="-323.9" font-family="Arial" font-size="14.00" fill="#000000">frozen    </text>
<text text-anchor="start" x="1003.1038" y="-323.9" font-family="Arial" font-size="14.00" fill="#666666">[boolean]</text>
<polygon fill="none" stroke="#000000" points="923,-282.5 923,-312.5 1246,-312.5 1246,-282.5 923,-282.5"/>
<text text-anchor="start" x="930" y="-293.9" font-family="Arial" font-size="14.00" fill="#000000">thaw_date    </text>
<text text-anchor="start" x="1028.7882" y="-293.9" font-family="Arial" font-size="14.00" fill="#666666">[timestamp with time zone]</text>
<polygon fill="none" stroke="#000000" points="923,-252.5 923,-282.5 1246,-282.5 1246,-252.5 923,-252.5"/>
<text text-anchor="start" x="930" y="-263.9" font-family="Arial" font-size="14.00" fill="#000000">shelf_time    </text>
<text text-anchor="start" x="1027.9902" y="-263.9" font-family="Arial" font-size="14.00" fill="#666666">[timestamp with time zone]</text>
<polygon fill="none" stroke="#000000" points="923,-222.5 923,-252.5 1246,-252.5 1246,-222.5 923,-222.5"/>
<text text-anchor="start" x="930" y="-233.9" font-family="Arial" font-size="14.00" fill="#000000">cut_in_line    </text>
<text text-anchor="start" x="1031.1108" y="-233.9" font-family="Arial" font-size="14.00" fill="#666666">[boolean]</text>
<polygon fill="none" stroke="#000000" points="923,-192.5 923,-222.5 1246,-222.5 1246,-192.5 923,-192.5"/>
<text text-anchor="start" x="930" y="-203.9" font-family="Arial" font-size="14.00" fill="#000000">mint_condition    </text>
<text text-anchor="start" x="1054.4446" y="-203.9" font-family="Arial" font-size="14.00" fill="#666666">[boolean]</text>
<polygon fill="none" stroke="#000000" points="923,-162.5 923,-192.5 1246,-192.5 1246,-162.5 923,-162.5"/>
<text text-anchor="start" x="929.7139" y="-173.9" font-family="Arial" font-size="14.00" fill="#000000">shelf_expire_time    </text>
<text text-anchor="start" x="1073.6017" y="-173.9" font-family="Arial" font-size="14.00" fill="#666666">[timestamp with time zone]</text>
<polygon fill="none" stroke="#000000" points="923,-132.5 923,-162.5 1246,-162.5 1246,-132.5 923,-132.5"/>
<text text-anchor="start" x="930" y="-143.9" font-family="Arial" font-size="14.00" fill="#000000">current_shelf_lib    </text>
<text text-anchor="start" x="1066.8878" y="-143.9" font-family="Arial" font-size="14.00" fill="#666666">[integer]</text>
<polygon fill="none" stroke="#000000" points="923,-102.5 923,-132.5 1246,-132.5 1246,-102.5 923,-102.5"/>
<text text-anchor="start" x="930" y="-113.9" font-family="Arial" font-size="14.00" fill="#000000">behind_desk    </text>
<text text-anchor="start" x="1043.5722" y="-113.9" font-family="Arial" font-size="14.00" fill="#666666">[boolean]</text>
<polygon fill="none" stroke="#000000" points="923,-72.5 923,-102.5 1246,-102.5 1246,-72.5 923,-72.5"/>
<text text-anchor="start" x="930" y="-83.9" font-family="Arial" font-size="14.00" fill="#000000">acq_request    </text>
<text text-anchor="start" x="1041.2342" y="-83.9" font-family="Arial" font-size="14.00" fill="#666666">[integer]</text>
<polygon fill="none" stroke="#000000" points="923,-42.5 923,-72.5 1246,-72.5 1246,-42.5 923,-42.5"/>
<text text-anchor="start" x="930" y="-53.9" font-family="Arial" font-size="14.00" fill="#000000">hopeless_date    </text>
<text text-anchor="start" x="1055.2454" y="-53.9" font-family="Arial" font-size="14.00" fill="#666666">[timestamp with time zone]</text>
</g>
<!-- action.emergency_closing_hold&#45;&gt;action.hold_request -->
<g id="edge2" class="edge">
<title>action.emergency_closing_hold:hold&#45;&gt;action.hold_request:id</title>
<path fill="none" stroke="#000000" d="M1070.9605,-1386.4412C1111.6543,-1376.9866 1091.5047,-1306.4833 1061,-1267 1022.2469,-1216.8405 961.7531,-1281.1595 923,-1231 897.5936,-1198.1156 881.4444,-1137.5 923,-1137.5"/>
<polygon fill="#000000" stroke="#000000" points="1070.944,-1386.4429 1060.5243,-1383.0252 1065.972,-1386.9714 1061,-1387.5 1061,-1387.5 1061,-1387.5 1065.972,-1386.9714 1061.4757,-1391.9748 1070.944,-1386.4429 1070.944,-1386.4429"/>
<text text-anchor="start" x="1067.5345" y="-1397.5" font-family="Arial" font-size="10.00" fill="#000000">FOREIGN KEY (hold) REFERENCES action.hold_request(id) ON DELETE CASCADE DEFERRABLE INITIALLY DEFERRED</text>
</g>
</g>
</svg>
