<?xml version="1.0" encoding="UTF-8" standalone="no"?>
<!DOCTYPE svg PUBLIC "-//W3C//DTD SVG 1.1//EN"
 "http://www.w3.org/Graphics/SVG/1.1/DTD/svg11.dtd">
<!-- Generated by graphviz version 2.40.1 (20161225.0304)
 -->
<!-- Title: action.hold_notification Pages: 1 -->
<svg width="1347pt" height="1942pt"
 viewBox="0.00 0.00 1347.00 1942.00" xmlns="http://www.w3.org/2000/svg" xmlns:xlink="http://www.w3.org/1999/xlink">
<g id="graph0" class="graph" transform="scale(1 1) rotate(0) translate(4 1938)">
<title>action.hold_notification</title>
<polygon fill="#ffffff" stroke="transparent" points="-4,4 -4,-1938 1343,-1938 1343,4 -4,4"/>
<!-- action.hold_notification -->
<g id="node1" class="node">
<title>action.hold_notification</title>
<polygon fill="#efefef" stroke="transparent" points="572,-1852.5 572,-1887.5 896,-1887.5 896,-1852.5 572,-1852.5"/>
<polygon fill="none" stroke="#000000" points="572,-1852.5 572,-1887.5 896,-1887.5 896,-1852.5 572,-1852.5"/>
<text text-anchor="start" x="578.6878" y="-1865.3" font-family="Arial Bold" font-size="18.00" fill="#000000">action.hold_notification</text>
<text text-anchor="start" x="761.7442" y="-1865.3" font-family="Arial" font-size="14.00" fill="#000000">    </text>
<text text-anchor="start" x="795.949" y="-1865.3" font-family="Arial" font-size="14.00" fill="#666666">[BASE TABLE]</text>
<polygon fill="none" stroke="#000000" points="572,-1822.5 572,-1852.5 896,-1852.5 896,-1822.5 572,-1822.5"/>
<text text-anchor="start" x="579" y="-1833.9" font-family="Arial" font-size="14.00" fill="#000000">id </text>
<text text-anchor="start" x="593.7798" y="-1833.9" font-family="Arial" font-size="14.00" fill="#666666">[integer]</text>
<polygon fill="none" stroke="#000000" points="572,-1792.5 572,-1822.5 896,-1822.5 896,-1792.5 572,-1792.5"/>
<text text-anchor="start" x="579" y="-1803.9" font-family="Arial" font-size="14.00" fill="#000000">hold </text>
<text text-anchor="start" x="609.345" y="-1803.9" font-family="Arial" font-size="14.00" fill="#666666">[integer]</text>
<polygon fill="none" stroke="#000000" points="572,-1762.5 572,-1792.5 896,-1792.5 896,-1762.5 572,-1762.5"/>
<text text-anchor="start" x="579" y="-1773.9" font-family="Arial" font-size="14.00" fill="#000000">notify_staff </text>
<text text-anchor="start" x="650.5806" y="-1773.9" font-family="Arial" font-size="14.00" fill="#666666">[integer]</text>
<polygon fill="none" stroke="#000000" points="572,-1732.5 572,-1762.5 896,-1762.5 896,-1732.5 572,-1732.5"/>
<text text-anchor="start" x="579" y="-1743.9" font-family="Arial" font-size="14.00" fill="#000000">notify_time </text>
<text text-anchor="start" x="650.5666" y="-1743.9" font-family="Arial" font-size="14.00" fill="#666666">[timestamp with time zone]</text>
<polygon fill="none" stroke="#000000" points="572,-1702.5 572,-1732.5 896,-1732.5 896,-1702.5 572,-1702.5"/>
<text text-anchor="start" x="579" y="-1713.9" font-family="Arial" font-size="14.00" fill="#000000">method </text>
<text text-anchor="start" x="629.5722" y="-1713.9" font-family="Arial" font-size="14.00" fill="#666666">[text]</text>
<polygon fill="none" stroke="#000000" points="572,-1672.5 572,-1702.5 896,-1702.5 896,-1672.5 572,-1672.5"/>
<text text-anchor="start" x="579" y="-1683.9" font-family="Arial" font-size="14.00" fill="#000000">note </text>
<text text-anchor="start" x="610.129" y="-1683.9" font-family="Arial" font-size="14.00" fill="#666666">[text]</text>
<polygon fill="none" stroke="#000000" stroke-width="3" points="570.5,-1671.5 570.5,-1889.5 897.5,-1889.5 897.5,-1671.5 570.5,-1671.5"/>
</g>
<!-- action.hold_request -->
<g id="node2" class="node">
<title>action.hold_request</title>
<polygon fill="#efefef" stroke="transparent" points="360,-1332.5 360,-1367.5 683,-1367.5 683,-1332.5 360,-1332.5"/>
<polygon fill="none" stroke="#000000" points="360,-1332.5 360,-1367.5 683,-1367.5 683,-1332.5 360,-1332.5"/>
<text text-anchor="start" x="379.1883" y="-1345.3" font-family="Arial Bold" font-size="18.00" fill="#000000">action.hold_request</text>
<text text-anchor="start" x="536.2437" y="-1345.3" font-family="Arial" font-size="14.00" fill="#000000">    </text>
<text text-anchor="start" x="570.4485" y="-1345.3" font-family="Arial" font-size="14.00" fill="#666666">[BASE TABLE]</text>
<polygon fill="none" stroke="#000000" points="360,-1302.5 360,-1332.5 683,-1332.5 683,-1302.5 360,-1302.5"/>
<text text-anchor="start" x="367" y="-1313.9" font-family="Arial" font-size="14.00" fill="#000000">id    </text>
<text text-anchor="start" x="412.094" y="-1313.9" font-family="Arial" font-size="14.00" fill="#666666">[integer]</text>
<polygon fill="none" stroke="#000000" points="360,-1272.5 360,-1302.5 683,-1302.5 683,-1272.5 360,-1272.5"/>
<text text-anchor="start" x="367" y="-1283.9" font-family="Arial" font-size="14.00" fill="#000000">request_time    </text>
<text text-anchor="start" x="482.1094" y="-1283.9" font-family="Arial" font-size="14.00" fill="#666666">[timestamp with time zone]</text>
<polygon fill="none" stroke="#000000" points="360,-1242.5 360,-1272.5 683,-1272.5 683,-1242.5 360,-1242.5"/>
<text text-anchor="start" x="367" y="-1253.9" font-family="Arial" font-size="14.00" fill="#000000">capture_time    </text>
<text text-anchor="start" x="482.1094" y="-1253.9" font-family="Arial" font-size="14.00" fill="#666666">[timestamp with time zone]</text>
<polygon fill="none" stroke="#000000" points="360,-1212.5 360,-1242.5 683,-1242.5 683,-1212.5 360,-1212.5"/>
<text text-anchor="start" x="367" y="-1223.9" font-family="Arial" font-size="14.00" fill="#000000">fulfillment_time    </text>
<text text-anchor="start" x="494.5344" y="-1223.9" font-family="Arial" font-size="14.00" fill="#666666">[timestamp with time zone]</text>
<polygon fill="none" stroke="#000000" points="360,-1182.5 360,-1212.5 683,-1212.5 683,-1182.5 360,-1182.5"/>
<text text-anchor="start" x="367" y="-1193.9" font-family="Arial" font-size="14.00" fill="#000000">checkin_time    </text>
<text text-anchor="start" x="482.8822" y="-1193.9" font-family="Arial" font-size="14.00" fill="#666666">[timestamp with time zone]</text>
<polygon fill="none" stroke="#000000" points="360,-1152.5 360,-1182.5 683,-1182.5 683,-1152.5 360,-1152.5"/>
<text text-anchor="start" x="367" y="-1163.9" font-family="Arial" font-size="14.00" fill="#000000">return_time    </text>
<text text-anchor="start" x="471.9874" y="-1163.9" font-family="Arial" font-size="14.00" fill="#666666">[timestamp with time zone]</text>
<polygon fill="none" stroke="#000000" points="360,-1122.5 360,-1152.5 683,-1152.5 683,-1122.5 360,-1122.5"/>
<text text-anchor="start" x="367" y="-1133.9" font-family="Arial" font-size="14.00" fill="#000000">prev_check_time    </text>
<text text-anchor="start" x="507.0014" y="-1133.9" font-family="Arial" font-size="14.00" fill="#666666">[timestamp with time zone]</text>
<polygon fill="none" stroke="#000000" points="360,-1092.5 360,-1122.5 683,-1122.5 683,-1092.5 360,-1092.5"/>
<text text-anchor="start" x="367" y="-1103.9" font-family="Arial" font-size="14.00" fill="#000000">expire_time    </text>
<text text-anchor="start" x="473.5428" y="-1103.9" font-family="Arial" font-size="14.00" fill="#666666">[timestamp with time zone]</text>
<polygon fill="none" stroke="#000000" points="360,-1062.5 360,-1092.5 683,-1092.5 683,-1062.5 360,-1062.5"/>
<text text-anchor="start" x="367" y="-1073.9" font-family="Arial" font-size="14.00" fill="#000000">cancel_time    </text>
<text text-anchor="start" x="475.8822" y="-1073.9" font-family="Arial" font-size="14.00" fill="#666666">[timestamp with time zone]</text>
<polygon fill="none" stroke="#000000" points="360,-1032.5 360,-1062.5 683,-1062.5 683,-1032.5 360,-1032.5"/>
<text text-anchor="start" x="367" y="-1043.9" font-family="Arial" font-size="14.00" fill="#000000">cancel_cause    </text>
<text text-anchor="start" x="486.7896" y="-1043.9" font-family="Arial" font-size="14.00" fill="#666666">[integer]</text>
<polygon fill="none" stroke="#000000" points="360,-1002.5 360,-1032.5 683,-1032.5 683,-1002.5 360,-1002.5"/>
<text text-anchor="start" x="367" y="-1013.9" font-family="Arial" font-size="14.00" fill="#000000">cancel_note    </text>
<text text-anchor="start" x="476.6802" y="-1013.9" font-family="Arial" font-size="14.00" fill="#666666">[text]</text>
<polygon fill="none" stroke="#000000" points="360,-972.5 360,-1002.5 683,-1002.5 683,-972.5 360,-972.5"/>
<text text-anchor="start" x="367" y="-983.9" font-family="Arial" font-size="14.00" fill="#000000">target    </text>
<text text-anchor="start" x="436.9944" y="-983.9" font-family="Arial" font-size="14.00" fill="#666666">[bigint]</text>
<polygon fill="none" stroke="#000000" points="360,-942.5 360,-972.5 683,-972.5 683,-942.5 360,-942.5"/>
<text text-anchor="start" x="367" y="-953.9" font-family="Arial" font-size="14.00" fill="#000000">current_copy    </text>
<text text-anchor="start" x="482.1122" y="-953.9" font-family="Arial" font-size="14.00" fill="#666666">[bigint]</text>
<polygon fill="none" stroke="#000000" points="360,-912.5 360,-942.5 683,-942.5 683,-912.5 360,-912.5"/>
<text text-anchor="start" x="367" y="-923.9" font-family="Arial" font-size="14.00" fill="#000000">fulfillment_staff    </text>
<text text-anchor="start" x="494.5484" y="-923.9" font-family="Arial" font-size="14.00" fill="#666666">[integer]</text>
<polygon fill="none" stroke="#000000" points="360,-882.5 360,-912.5 683,-912.5 683,-882.5 360,-882.5"/>
<text text-anchor="start" x="367" y="-893.9" font-family="Arial" font-size="14.00" fill="#000000">fulfillment_lib    </text>
<text text-anchor="start" x="482.0898" y="-893.9" font-family="Arial" font-size="14.00" fill="#666666">[integer]</text>
<polygon fill="none" stroke="#000000" points="360,-852.5 360,-882.5 683,-882.5 683,-852.5 360,-852.5"/>
<text text-anchor="start" x="367" y="-863.9" font-family="Arial" font-size="14.00" fill="#000000">request_lib    </text>
<text text-anchor="start" x="469.6648" y="-863.9" font-family="Arial" font-size="14.00" fill="#666666">[integer]</text>
<polygon fill="none" stroke="#000000" points="360,-822.5 360,-852.5 683,-852.5 683,-822.5 360,-822.5"/>
<text text-anchor="start" x="367" y="-833.9" font-family="Arial" font-size="14.00" fill="#000000">requestor    </text>
<text text-anchor="start" x="460.3296" y="-833.9" font-family="Arial" font-size="14.00" fill="#666666">[integer]</text>
<polygon fill="none" stroke="#000000" points="360,-792.5 360,-822.5 683,-822.5 683,-792.5 360,-792.5"/>
<text text-anchor="start" x="367" y="-803.9" font-family="Arial" font-size="14.00" fill="#000000">usr    </text>
<text text-anchor="start" x="420.648" y="-803.9" font-family="Arial" font-size="14.00" fill="#666666">[integer]</text>
<polygon fill="none" stroke="#000000" points="360,-762.5 360,-792.5 683,-792.5 683,-762.5 360,-762.5"/>
<text text-anchor="start" x="367" y="-773.9" font-family="Arial" font-size="14.00" fill="#000000">selection_ou    </text>
<text text-anchor="start" x="479.7868" y="-773.9" font-family="Arial" font-size="14.00" fill="#666666">[integer]</text>
<polygon fill="none" stroke="#000000" points="360,-732.5 360,-762.5 683,-762.5 683,-732.5 360,-732.5"/>
<text text-anchor="start" x="367" y="-743.9" font-family="Arial" font-size="14.00" fill="#000000">selection_depth    </text>
<text text-anchor="start" x="499.2426" y="-743.9" font-family="Arial" font-size="14.00" fill="#666666">[integer]</text>
<polygon fill="none" stroke="#000000" points="360,-702.5 360,-732.5 683,-732.5 683,-702.5 360,-702.5"/>
<text text-anchor="start" x="367" y="-713.9" font-family="Arial" font-size="14.00" fill="#000000">pickup_lib    </text>
<text text-anchor="start" x="463.4376" y="-713.9" font-family="Arial" font-size="14.00" fill="#666666">[integer]</text>
<polygon fill="none" stroke="#000000" points="360,-672.5 360,-702.5 683,-702.5 683,-672.5 360,-672.5"/>
<text text-anchor="start" x="367" y="-683.9" font-family="Arial" font-size="14.00" fill="#000000">hold_type    </text>
<text text-anchor="start" x="461.8976" y="-683.9" font-family="Arial" font-size="14.00" fill="#666666">[text]</text>
<polygon fill="none" stroke="#000000" points="360,-642.5 360,-672.5 683,-672.5 683,-642.5 360,-642.5"/>
<text text-anchor="start" x="367" y="-653.9" font-family="Arial" font-size="14.00" fill="#000000">holdable_formats    </text>
<text text-anchor="start" x="508.5638" y="-653.9" font-family="Arial" font-size="14.00" fill="#666666">[text]</text>
<polygon fill="none" stroke="#000000" points="360,-612.5 360,-642.5 683,-642.5 683,-612.5 360,-612.5"/>
<text text-anchor="start" x="367" y="-623.9" font-family="Arial" font-size="14.00" fill="#000000">phone_notify    </text>
<text text-anchor="start" x="481.3534" y="-623.9" font-family="Arial" font-size="14.00" fill="#666666">[text]</text>
<polygon fill="none" stroke="#000000" points="360,-582.5 360,-612.5 683,-612.5 683,-582.5 360,-582.5"/>
<text text-anchor="start" x="367" y="-593.9" font-family="Arial" font-size="14.00" fill="#000000">email_notify    </text>
<text text-anchor="start" x="475.8794" y="-593.9" font-family="Arial" font-size="14.00" fill="#666666">[boolean]</text>
<polygon fill="none" stroke="#000000" points="360,-552.5 360,-582.5 683,-582.5 683,-552.5 360,-552.5"/>
<text text-anchor="start" x="367" y="-563.9" font-family="Arial" font-size="14.00" fill="#000000">sms_notify    </text>
<text text-anchor="start" x="468.101" y="-563.9" font-family="Arial" font-size="14.00" fill="#666666">[text]</text>
<polygon fill="none" stroke="#000000" points="360,-522.5 360,-552.5 683,-552.5 683,-522.5 360,-522.5"/>
<text text-anchor="start" x="367" y="-533.9" font-family="Arial" font-size="14.00" fill="#000000">sms_carrier    </text>
<text text-anchor="start" x="474.3016" y="-533.9" font-family="Arial" font-size="14.00" fill="#666666">[integer]</text>
<polygon fill="none" stroke="#000000" points="360,-492.5 360,-522.5 683,-522.5 683,-492.5 360,-492.5"/>
<text text-anchor="start" x="367" y="-503.9" font-family="Arial" font-size="14.00" fill="#000000">frozen    </text>
<text text-anchor="start" x="440.1038" y="-503.9" font-family="Arial" font-size="14.00" fill="#666666">[boolean]</text>
<polygon fill="none" stroke="#000000" points="360,-462.5 360,-492.5 683,-492.5 683,-462.5 360,-462.5"/>
<text text-anchor="start" x="367" y="-473.9" font-family="Arial" font-size="14.00" fill="#000000">thaw_date    </text>
<text text-anchor="start" x="465.7882" y="-473.9" font-family="Arial" font-size="14.00" fill="#666666">[timestamp with time zone]</text>
<polygon fill="none" stroke="#000000" points="360,-432.5 360,-462.5 683,-462.5 683,-432.5 360,-432.5"/>
<text text-anchor="start" x="367" y="-443.9" font-family="Arial" font-size="14.00" fill="#000000">shelf_time    </text>
<text text-anchor="start" x="464.9902" y="-443.9" font-family="Arial" font-size="14.00" fill="#666666">[timestamp with time zone]</text>
<polygon fill="none" stroke="#000000" points="360,-402.5 360,-432.5 683,-432.5 683,-402.5 360,-402.5"/>
<text text-anchor="start" x="367" y="-413.9" font-family="Arial" font-size="14.00" fill="#000000">cut_in_line    </text>
<text text-anchor="start" x="468.1108" y="-413.9" font-family="Arial" font-size="14.00" fill="#666666">[boolean]</text>
<polygon fill="none" stroke="#000000" points="360,-372.5 360,-402.5 683,-402.5 683,-372.5 360,-372.5"/>
<text text-anchor="start" x="367" y="-383.9" font-family="Arial" font-size="14.00" fill="#000000">mint_condition    </text>
<text text-anchor="start" x="491.4446" y="-383.9" font-family="Arial" font-size="14.00" fill="#666666">[boolean]</text>
<polygon fill="none" stroke="#000000" points="360,-342.5 360,-372.5 683,-372.5 683,-342.5 360,-342.5"/>
<text text-anchor="start" x="366.7139" y="-353.9" font-family="Arial" font-size="14.00" fill="#000000">shelf_expire_time    </text>
<text text-anchor="start" x="510.6017" y="-353.9" font-family="Arial" font-size="14.00" fill="#666666">[timestamp with time zone]</text>
<polygon fill="none" stroke="#000000" points="360,-312.5 360,-342.5 683,-342.5 683,-312.5 360,-312.5"/>
<text text-anchor="start" x="367" y="-323.9" font-family="Arial" font-size="14.00" fill="#000000">current_shelf_lib    </text>
<text text-anchor="start" x="503.8878" y="-323.9" font-family="Arial" font-size="14.00" fill="#666666">[integer]</text>
<polygon fill="none" stroke="#000000" points="360,-282.5 360,-312.5 683,-312.5 683,-282.5 360,-282.5"/>
<text text-anchor="start" x="367" y="-293.9" font-family="Arial" font-size="14.00" fill="#000000">behind_desk    </text>
<text text-anchor="start" x="480.5722" y="-293.9" font-family="Arial" font-size="14.00" fill="#666666">[boolean]</text>
<polygon fill="none" stroke="#000000" points="360,-252.5 360,-282.5 683,-282.5 683,-252.5 360,-252.5"/>
<text text-anchor="start" x="367" y="-263.9" font-family="Arial" font-size="14.00" fill="#000000">acq_request    </text>
<text text-anchor="start" x="478.2342" y="-263.9" font-family="Arial" font-size="14.00" fill="#666666">[integer]</text>
<polygon fill="none" stroke="#000000" points="360,-222.5 360,-252.5 683,-252.5 683,-222.5 360,-222.5"/>
<text text-anchor="start" x="367" y="-233.9" font-family="Arial" font-size="14.00" fill="#000000">hopeless_date    </text>
<text text-anchor="start" x="492.2454" y="-233.9" font-family="Arial" font-size="14.00" fill="#666666">[timestamp with time zone]</text>
</g>
<!-- action.hold_notification&#45;&gt;action.hold_request -->
<g id="edge1" class="edge">
<title>action.hold_notification:hold&#45;&gt;action.hold_request:id</title>
<path fill="none" stroke="#000000" d="M561.6115,-1807.0333C426.2271,-1794.1521 657.0919,-1518.0987 683,-1411 692.7708,-1370.6095 724.5556,-1317.5 683,-1317.5"/>
<polygon fill="#000000" stroke="#000000" points="562.0101,-1807.0511 571.798,-1811.9955 567.005,-1807.2756 572,-1807.5 572,-1807.5 572,-1807.5 567.005,-1807.2756 572.202,-1803.0045 562.0101,-1807.0511 562.0101,-1807.0511"/>
<text text-anchor="start" x="6.5345" y="-1817.5" font-family="Arial" font-size="10.00" fill="#000000">FOREIGN KEY (hold) REFERENCES action.hold_request(id) ON DELETE CASCADE DEFERRABLE INITIALLY DEFERRED</text>
</g>
<!-- actor.usr -->
<g id="node3" class="node">
<title>actor.usr</title>
<polygon fill="#efefef" stroke="transparent" points="787,-1512.5 787,-1547.5 1107,-1547.5 1107,-1512.5 787,-1512.5"/>
<polygon fill="none" stroke="#000000" points="787,-1512.5 787,-1547.5 1107,-1547.5 1107,-1512.5 787,-1512.5"/>
<text text-anchor="start" x="848.2123" y="-1525.3" font-family="Arial Bold" font-size="18.00" fill="#000000">actor.usr</text>
<text text-anchor="start" x="918.2197" y="-1525.3" font-family="Arial" font-size="14.00" fill="#000000">    </text>
<text text-anchor="start" x="952.4245" y="-1525.3" font-family="Arial" font-size="14.00" fill="#666666">[BASE TABLE]</text>
<polygon fill="none" stroke="#000000" points="787,-1482.5 787,-1512.5 1107,-1512.5 1107,-1482.5 787,-1482.5"/>
<text text-anchor="start" x="794" y="-1493.9" font-family="Arial" font-size="14.00" fill="#000000">id    </text>
<text text-anchor="start" x="839.094" y="-1493.9" font-family="Arial" font-size="14.00" fill="#666666">[integer]</text>
<polygon fill="none" stroke="#000000" points="787,-1452.5 787,-1482.5 1107,-1482.5 1107,-1452.5 787,-1452.5"/>
<text text-anchor="start" x="794" y="-1463.9" font-family="Arial" font-size="14.00" fill="#000000">card    </text>
<text text-anchor="start" x="855.4306" y="-1463.9" font-family="Arial" font-size="14.00" fill="#666666">[integer]</text>
<polygon fill="none" stroke="#000000" points="787,-1422.5 787,-1452.5 1107,-1452.5 1107,-1422.5 787,-1422.5"/>
<text text-anchor="start" x="794" y="-1433.9" font-family="Arial" font-size="14.00" fill="#000000">profile    </text>
<text text-anchor="start" x="866.317" y="-1433.9" font-family="Arial" font-size="14.00" fill="#666666">[integer]</text>
<polygon fill="none" stroke="#000000" points="787,-1392.5 787,-1422.5 1107,-1422.5 1107,-1392.5 787,-1392.5"/>
<text text-anchor="start" x="794" y="-1403.9" font-family="Arial" font-size="14.00" fill="#000000">usrname    </text>
<text text-anchor="start" x="882.6564" y="-1403.9" font-family="Arial" font-size="14.00" fill="#666666">[text]</text>
<polygon fill="none" stroke="#000000" points="787,-1362.5 787,-1392.5 1107,-1392.5 1107,-1362.5 787,-1362.5"/>
<text text-anchor="start" x="794" y="-1373.9" font-family="Arial" font-size="14.00" fill="#000000">email    </text>
<text text-anchor="start" x="861.6438" y="-1373.9" font-family="Arial" font-size="14.00" fill="#666666">[text]</text>
<polygon fill="none" stroke="#000000" points="787,-1332.5 787,-1362.5 1107,-1362.5 1107,-1332.5 787,-1332.5"/>
<text text-anchor="start" x="794" y="-1343.9" font-family="Arial" font-size="14.00" fill="#000000">passwd    </text>
<text text-anchor="start" x="875.6592" y="-1343.9" font-family="Arial" font-size="14.00" fill="#666666">[text]</text>
<polygon fill="none" stroke="#000000" points="787,-1302.5 787,-1332.5 1107,-1332.5 1107,-1302.5 787,-1302.5"/>
<text text-anchor="start" x="794" y="-1313.9" font-family="Arial" font-size="14.00" fill="#000000">standing    </text>
<text text-anchor="start" x="881.115" y="-1313.9" font-family="Arial" font-size="14.00" fill="#666666">[integer]</text>
<polygon fill="none" stroke="#000000" points="787,-1272.5 787,-1302.5 1107,-1302.5 1107,-1272.5 787,-1272.5"/>
<text text-anchor="start" x="794" y="-1283.9" font-family="Arial" font-size="14.00" fill="#000000">ident_type    </text>
<text text-anchor="start" x="892.7882" y="-1283.9" font-family="Arial" font-size="14.00" fill="#666666">[integer]</text>
<polygon fill="none" stroke="#000000" points="787,-1242.5 787,-1272.5 1107,-1272.5 1107,-1242.5 787,-1242.5"/>
<text text-anchor="start" x="794" y="-1253.9" font-family="Arial" font-size="14.00" fill="#000000">ident_value    </text>
<text text-anchor="start" x="899.7868" y="-1253.9" font-family="Arial" font-size="14.00" fill="#666666">[text]</text>
<polygon fill="none" stroke="#000000" points="787,-1212.5 787,-1242.5 1107,-1242.5 1107,-1212.5 787,-1212.5"/>
<text text-anchor="start" x="794" y="-1223.9" font-family="Arial" font-size="14.00" fill="#000000">ident_type2    </text>
<text text-anchor="start" x="900.5708" y="-1223.9" font-family="Arial" font-size="14.00" fill="#666666">[integer]</text>
<polygon fill="none" stroke="#000000" points="787,-1182.5 787,-1212.5 1107,-1212.5 1107,-1182.5 787,-1182.5"/>
<text text-anchor="start" x="794" y="-1193.9" font-family="Arial" font-size="14.00" fill="#000000">ident_value2    </text>
<text text-anchor="start" x="907.5694" y="-1193.9" font-family="Arial" font-size="14.00" fill="#666666">[text]</text>
<polygon fill="none" stroke="#000000" points="787,-1152.5 787,-1182.5 1107,-1182.5 1107,-1152.5 787,-1152.5"/>
<text text-anchor="start" x="794" y="-1163.9" font-family="Arial" font-size="14.00" fill="#000000">net_access_level    </text>
<text text-anchor="start" x="935.5694" y="-1163.9" font-family="Arial" font-size="14.00" fill="#666666">[integer]</text>
<polygon fill="none" stroke="#000000" points="787,-1122.5 787,-1152.5 1107,-1152.5 1107,-1122.5 787,-1122.5"/>
<text text-anchor="start" x="794" y="-1133.9" font-family="Arial" font-size="14.00" fill="#000000">photo_url    </text>
<text text-anchor="start" x="886.5582" y="-1133.9" font-family="Arial" font-size="14.00" fill="#666666">[text]</text>
<polygon fill="none" stroke="#000000" points="787,-1092.5 787,-1122.5 1107,-1122.5 1107,-1092.5 787,-1092.5"/>
<text text-anchor="start" x="794" y="-1103.9" font-family="Arial" font-size="14.00" fill="#000000">prefix    </text>
<text text-anchor="start" x="862.4278" y="-1103.9" font-family="Arial" font-size="14.00" fill="#666666">[text]</text>
<polygon fill="none" stroke="#000000" points="787,-1062.5 787,-1092.5 1107,-1092.5 1107,-1062.5 787,-1062.5"/>
<text text-anchor="start" x="794" y="-1073.9" font-family="Arial" font-size="14.00" fill="#000000">first_given_name    </text>
<text text-anchor="start" x="934.7812" y="-1073.9" font-family="Arial" font-size="14.00" fill="#666666">[text]</text>
<polygon fill="none" stroke="#000000" points="787,-1032.5 787,-1062.5 1107,-1062.5 1107,-1032.5 787,-1032.5"/>
<text text-anchor="start" x="794" y="-1043.9" font-family="Arial" font-size="14.00" fill="#000000">second_given_name    </text>
<text text-anchor="start" x="957.3632" y="-1043.9" font-family="Arial" font-size="14.00" fill="#666666">[text]</text>
<polygon fill="none" stroke="#000000" points="787,-1002.5 787,-1032.5 1107,-1032.5 1107,-1002.5 787,-1002.5"/>
<text text-anchor="start" x="794" y="-1013.9" font-family="Arial" font-size="14.00" fill="#000000">family_name    </text>
<text text-anchor="start" x="907.5428" y="-1013.9" font-family="Arial" font-size="14.00" fill="#666666">[text]</text>
<polygon fill="none" stroke="#000000" points="787,-972.5 787,-1002.5 1107,-1002.5 1107,-972.5 787,-972.5"/>
<text text-anchor="start" x="794" y="-983.9" font-family="Arial" font-size="14.00" fill="#000000">suffix    </text>
<text text-anchor="start" x="860.8752" y="-983.9" font-family="Arial" font-size="14.00" fill="#666666">[text]</text>
<polygon fill="none" stroke="#000000" points="787,-942.5 787,-972.5 1107,-972.5 1107,-942.5 787,-942.5"/>
<text text-anchor="start" x="794" y="-953.9" font-family="Arial" font-size="14.00" fill="#000000">alias    </text>
<text text-anchor="start" x="856.9832" y="-953.9" font-family="Arial" font-size="14.00" fill="#666666">[text]</text>
<polygon fill="none" stroke="#000000" points="787,-912.5 787,-942.5 1107,-942.5 1107,-912.5 787,-912.5"/>
<text text-anchor="start" x="794" y="-923.9" font-family="Arial" font-size="14.00" fill="#000000">day_phone    </text>
<text text-anchor="start" x="897.4656" y="-923.9" font-family="Arial" font-size="14.00" fill="#666666">[text]</text>
<polygon fill="none" stroke="#000000" points="787,-882.5 787,-912.5 1107,-912.5 1107,-882.5 787,-882.5"/>
<text text-anchor="start" x="794" y="-893.9" font-family="Arial" font-size="14.00" fill="#000000">evening_phone    </text>
<text text-anchor="start" x="923.92" y="-893.9" font-family="Arial" font-size="14.00" fill="#666666">[text]</text>
<polygon fill="none" stroke="#000000" points="787,-852.5 787,-882.5 1107,-882.5 1107,-852.5 787,-852.5"/>
<text text-anchor="start" x="794" y="-863.9" font-family="Arial" font-size="14.00" fill="#000000">other_phone    </text>
<text text-anchor="start" x="906.7994" y="-863.9" font-family="Arial" font-size="14.00" fill="#666666">[text]</text>
<polygon fill="none" stroke="#000000" points="787,-822.5 787,-852.5 1107,-852.5 1107,-822.5 787,-822.5"/>
<text text-anchor="start" x="794" y="-833.9" font-family="Arial" font-size="14.00" fill="#000000">mailing_address    </text>
<text text-anchor="start" x="930.1066" y="-833.9" font-family="Arial" font-size="14.00" fill="#666666">[integer]</text>
<polygon fill="none" stroke="#000000" points="787,-792.5 787,-822.5 1107,-822.5 1107,-792.5 787,-792.5"/>
<text text-anchor="start" x="794" y="-803.9" font-family="Arial" font-size="14.00" fill="#000000">billing_address    </text>
<text text-anchor="start" x="921.5526" y="-803.9" font-family="Arial" font-size="14.00" fill="#666666">[integer]</text>
<polygon fill="none" stroke="#000000" points="787,-762.5 787,-792.5 1107,-792.5 1107,-762.5 787,-762.5"/>
<text text-anchor="start" x="794" y="-773.9" font-family="Arial" font-size="14.00" fill="#000000">home_ou    </text>
<text text-anchor="start" x="886.561" y="-773.9" font-family="Arial" font-size="14.00" fill="#666666">[integer]</text>
<polygon fill="none" stroke="#000000" points="787,-732.5 787,-762.5 1107,-762.5 1107,-732.5 787,-732.5"/>
<text text-anchor="start" x="794" y="-743.9" font-family="Arial" font-size="14.00" fill="#000000">dob    </text>
<text text-anchor="start" x="851.5526" y="-743.9" font-family="Arial" font-size="14.00" fill="#666666">[date]</text>
<polygon fill="none" stroke="#000000" points="787,-702.5 787,-732.5 1107,-732.5 1107,-702.5 787,-702.5"/>
<text text-anchor="start" x="794" y="-713.9" font-family="Arial" font-size="14.00" fill="#000000">active    </text>
<text text-anchor="start" x="864.7672" y="-713.9" font-family="Arial" font-size="14.00" fill="#666666">[boolean]</text>
<polygon fill="none" stroke="#000000" points="787,-672.5 787,-702.5 1107,-702.5 1107,-672.5 787,-672.5"/>
<text text-anchor="start" x="794" y="-683.9" font-family="Arial" font-size="14.00" fill="#000000">master_account    </text>
<text text-anchor="start" x="927.7854" y="-683.9" font-family="Arial" font-size="14.00" fill="#666666">[boolean]</text>
<polygon fill="none" stroke="#000000" points="787,-642.5 787,-672.5 1107,-672.5 1107,-642.5 787,-642.5"/>
<text text-anchor="start" x="794" y="-653.9" font-family="Arial" font-size="14.00" fill="#000000">super_user    </text>
<text text-anchor="start" x="898.2216" y="-653.9" font-family="Arial" font-size="14.00" fill="#666666">[boolean]</text>
<polygon fill="none" stroke="#000000" points="787,-612.5 787,-642.5 1107,-642.5 1107,-612.5 787,-612.5"/>
<text text-anchor="start" x="794" y="-623.9" font-family="Arial" font-size="14.00" fill="#000000">barred    </text>
<text text-anchor="start" x="868.6564" y="-623.9" font-family="Arial" font-size="14.00" fill="#666666">[boolean]</text>
<polygon fill="none" stroke="#000000" points="787,-582.5 787,-612.5 1107,-612.5 1107,-582.5 787,-582.5"/>
<text text-anchor="start" x="794" y="-593.9" font-family="Arial" font-size="14.00" fill="#000000">deleted    </text>
<text text-anchor="start" x="874.115" y="-593.9" font-family="Arial" font-size="14.00" fill="#666666">[boolean]</text>
<polygon fill="none" stroke="#000000" points="787,-552.5 787,-582.5 1107,-582.5 1107,-552.5 787,-552.5"/>
<text text-anchor="start" x="794" y="-563.9" font-family="Arial" font-size="14.00" fill="#000000">juvenile    </text>
<text text-anchor="start" x="875.655" y="-563.9" font-family="Arial" font-size="14.00" fill="#666666">[boolean]</text>
<polygon fill="none" stroke="#000000" points="787,-522.5 787,-552.5 1107,-552.5 1107,-522.5 787,-522.5"/>
<text text-anchor="start" x="794" y="-533.9" font-family="Arial" font-size="14.00" fill="#000000">usrgroup    </text>
<text text-anchor="start" x="883.439" y="-533.9" font-family="Arial" font-size="14.00" fill="#666666">[integer]</text>
<polygon fill="none" stroke="#000000" points="787,-492.5 787,-522.5 1107,-522.5 1107,-492.5 787,-492.5"/>
<text text-anchor="start" x="794" y="-503.9" font-family="Arial" font-size="14.00" fill="#000000">claims_returned_count    </text>
<text text-anchor="start" x="969.7896" y="-503.9" font-family="Arial" font-size="14.00" fill="#666666">[integer]</text>
<polygon fill="none" stroke="#000000" points="787,-462.5 787,-492.5 1107,-492.5 1107,-462.5 787,-462.5"/>
<text text-anchor="start" x="794" y="-473.9" font-family="Arial" font-size="14.00" fill="#000000">credit_forward_balance    </text>
<text text-anchor="start" x="973.6788" y="-473.9" font-family="Arial" font-size="14.00" fill="#666666">[numeric(6,2)]</text>
<polygon fill="none" stroke="#000000" points="787,-432.5 787,-462.5 1107,-462.5 1107,-432.5 787,-432.5"/>
<text text-anchor="start" x="794" y="-443.9" font-family="Arial" font-size="14.00" fill="#000000">last_xact_id    </text>
<text text-anchor="start" x="902.1122" y="-443.9" font-family="Arial" font-size="14.00" fill="#666666">[text]</text>
<polygon fill="none" stroke="#000000" points="787,-402.5 787,-432.5 1107,-432.5 1107,-402.5 787,-402.5"/>
<text text-anchor="start" x="794" y="-413.9" font-family="Arial" font-size="14.00" fill="#000000">alert_message    </text>
<text text-anchor="start" x="920.0014" y="-413.9" font-family="Arial" font-size="14.00" fill="#666666">[text]</text>
<polygon fill="none" stroke="#000000" points="787,-372.5 787,-402.5 1107,-402.5 1107,-372.5 787,-372.5"/>
<text text-anchor="start" x="794" y="-383.9" font-family="Arial" font-size="14.00" fill="#000000">create_date    </text>
<text text-anchor="start" x="902.1248" y="-383.9" font-family="Arial" font-size="14.00" fill="#666666">[timestamp with time zone]</text>
<polygon fill="none" stroke="#000000" points="787,-342.5 787,-372.5 1107,-372.5 1107,-342.5 787,-342.5"/>
<text text-anchor="start" x="794" y="-353.9" font-family="Arial" font-size="14.00" fill="#000000">expire_date    </text>
<text text-anchor="start" x="901.3408" y="-353.9" font-family="Arial" font-size="14.00" fill="#666666">[timestamp with time zone]</text>
<polygon fill="none" stroke="#000000" points="787,-312.5 787,-342.5 1107,-342.5 1107,-312.5 787,-312.5"/>
<text text-anchor="start" x="794" y="-323.9" font-family="Arial" font-size="14.00" fill="#000000">claims_never_checked_out_count    </text>
<text text-anchor="start" x="1039.8246" y="-323.9" font-family="Arial" font-size="14.00" fill="#666666">[integer]</text>
<polygon fill="none" stroke="#000000" points="787,-282.5 787,-312.5 1107,-312.5 1107,-282.5 787,-282.5"/>
<text text-anchor="start" x="793.7609" y="-293.9" font-family="Arial" font-size="14.00" fill="#000000">last_update_time    </text>
<text text-anchor="start" x="934.5547" y="-293.9" font-family="Arial" font-size="14.00" fill="#666666">[timestamp with time zone]</text>
<polygon fill="none" stroke="#000000" points="787,-252.5 787,-282.5 1107,-282.5 1107,-252.5 787,-252.5"/>
<text text-anchor="start" x="794" y="-263.9" font-family="Arial" font-size="14.00" fill="#000000">pref_prefix    </text>
<text text-anchor="start" x="894.3268" y="-263.9" font-family="Arial" font-size="14.00" fill="#666666">[text]</text>
<polygon fill="none" stroke="#000000" points="787,-222.5 787,-252.5 1107,-252.5 1107,-222.5 787,-222.5"/>
<text text-anchor="start" x="794" y="-233.9" font-family="Arial" font-size="14.00" fill="#000000">pref_first_given_name    </text>
<text text-anchor="start" x="966.6802" y="-233.9" font-family="Arial" font-size="14.00" fill="#666666">[text]</text>
<polygon fill="none" stroke="#000000" points="787,-192.5 787,-222.5 1107,-222.5 1107,-192.5 787,-192.5"/>
<text text-anchor="start" x="794" y="-203.9" font-family="Arial" font-size="14.00" fill="#000000">pref_second_given_name    </text>
<text text-anchor="start" x="989.2622" y="-203.9" font-family="Arial" font-size="14.00" fill="#666666">[text]</text>
<polygon fill="none" stroke="#000000" points="787,-162.5 787,-192.5 1107,-192.5 1107,-162.5 787,-162.5"/>
<text text-anchor="start" x="794" y="-173.9" font-family="Arial" font-size="14.00" fill="#000000">pref_family_name    </text>
<text text-anchor="start" x="939.4418" y="-173.9" font-family="Arial" font-size="14.00" fill="#666666">[text]</text>
<polygon fill="none" stroke="#000000" points="787,-132.5 787,-162.5 1107,-162.5 1107,-132.5 787,-132.5"/>
<text text-anchor="start" x="794" y="-143.9" font-family="Arial" font-size="14.00" fill="#000000">pref_suffix    </text>
<text text-anchor="start" x="892.7742" y="-143.9" font-family="Arial" font-size="14.00" fill="#666666">[text]</text>
<polygon fill="none" stroke="#000000" points="787,-102.5 787,-132.5 1107,-132.5 1107,-102.5 787,-102.5"/>
<text text-anchor="start" x="794" y="-113.9" font-family="Arial" font-size="14.00" fill="#000000">name_keywords    </text>
<text text-anchor="start" x="930.1108" y="-113.9" font-family="Arial" font-size="14.00" fill="#666666">[text]</text>
<polygon fill="none" stroke="#000000" points="787,-72.5 787,-102.5 1107,-102.5 1107,-72.5 787,-72.5"/>
<text text-anchor="start" x="794" y="-83.9" font-family="Arial" font-size="14.00" fill="#000000">name_kw_tsvector    </text>
<text text-anchor="start" x="944.892" y="-83.9" font-family="Arial" font-size="14.00" fill="#666666">[tsvector]</text>
<polygon fill="none" stroke="#000000" points="787,-42.5 787,-72.5 1107,-72.5 1107,-42.5 787,-42.5"/>
<text text-anchor="start" x="794" y="-53.9" font-family="Arial" font-size="14.00" fill="#000000">guardian    </text>
<text text-anchor="start" x="882.6676" y="-53.9" font-family="Arial" font-size="14.00" fill="#666666">[text]</text>
</g>
<!-- action.hold_notification&#45;&gt;actor.usr -->
<g id="edge2" class="edge">
<title>action.hold_notification:notify_staff&#45;&gt;actor.usr:id</title>
<path fill="none" stroke="#000000" d="M906.1389,-1776.6587C959.8245,-1767.094 933.0424,-1678.2446 896,-1627 866.1121,-1585.653 816.8879,-1632.347 787,-1591 762.6556,-1557.3219 745.4444,-1497.5 787,-1497.5"/>
<polygon fill="#000000" stroke="#000000" points="905.9658,-1776.673 895.6278,-1773.0154 900.9829,-1777.0865 896,-1777.5 896,-1777.5 896,-1777.5 900.9829,-1777.0865 896.3722,-1781.9846 905.9658,-1776.673 905.9658,-1776.673"/>
<text text-anchor="start" x="903.2685" y="-1787.5" font-family="Arial" font-size="10.00" fill="#000000">FOREIGN KEY (notify_staff) REFERENCES actor.usr(id) DEFERRABLE INITIALLY DEFERRED</text>
</g>
</g>
</svg>
