<?xml version="1.0" encoding="UTF-8" standalone="no"?>
<!DOCTYPE svg PUBLIC "-//W3C//DTD SVG 1.1//EN"
 "http://www.w3.org/Graphics/SVG/1.1/DTD/svg11.dtd">
<!-- Generated by graphviz version 2.40.1 (20161225.0304)
 -->
<!-- Title: action_trigger.event_output Pages: 1 -->
<svg width="757pt" height="832pt"
 viewBox="0.00 0.00 756.50 832.00" xmlns="http://www.w3.org/2000/svg" xmlns:xlink="http://www.w3.org/1999/xlink">
<g id="graph0" class="graph" transform="scale(1 1) rotate(0) translate(4 828)">
<title>action_trigger.event_output</title>
<polygon fill="#ffffff" stroke="transparent" points="-4,4 -4,-828 752.5,-828 752.5,4 -4,4"/>
<!-- action_trigger.event_output -->
<g id="node1" class="node">
<title>action_trigger.event_output</title>
<polygon fill="#efefef" stroke="transparent" points="344,-165.5 344,-200.5 703,-200.5 703,-165.5 344,-165.5"/>
<polygon fill="none" stroke="#000000" points="344,-165.5 344,-200.5 703,-200.5 703,-165.5 344,-165.5"/>
<text text-anchor="start" x="350.6765" y="-178.3" font-family="Arial Bold" font-size="18.00" fill="#000000">action_trigger.event_output</text>
<text text-anchor="start" x="568.7555" y="-178.3" font-family="Arial" font-size="14.00" fill="#000000">    </text>
<text text-anchor="start" x="602.9603" y="-178.3" font-family="Arial" font-size="14.00" fill="#666666">[BASE TABLE]</text>
<polygon fill="none" stroke="#000000" points="344,-135.5 344,-165.5 703,-165.5 703,-135.5 344,-135.5"/>
<text text-anchor="start" x="351" y="-146.9" font-family="Arial" font-size="14.00" fill="#000000">id </text>
<text text-anchor="start" x="365.7798" y="-146.9" font-family="Arial" font-size="14.00" fill="#666666">[bigint]</text>
<polygon fill="none" stroke="#000000" points="344,-105.5 344,-135.5 703,-135.5 703,-105.5 344,-105.5"/>
<text text-anchor="start" x="351" y="-116.9" font-family="Arial" font-size="14.00" fill="#000000">create_time </text>
<text text-anchor="start" x="428.0126" y="-116.9" font-family="Arial" font-size="14.00" fill="#666666">[timestamp with time zone]</text>
<polygon fill="none" stroke="#000000" points="344,-75.5 344,-105.5 703,-105.5 703,-75.5 344,-75.5"/>
<text text-anchor="start" x="351" y="-86.9" font-family="Arial" font-size="14.00" fill="#000000">is_error </text>
<text text-anchor="start" x="402.3268" y="-86.9" font-family="Arial" font-size="14.00" fill="#666666">[boolean]</text>
<polygon fill="none" stroke="#000000" points="344,-45.5 344,-75.5 703,-75.5 703,-45.5 344,-45.5"/>
<text text-anchor="start" x="351" y="-56.9" font-family="Arial" font-size="14.00" fill="#000000">data </text>
<text text-anchor="start" x="382.129" y="-56.9" font-family="Arial" font-size="14.00" fill="#666666">[text]</text>
<polygon fill="none" stroke="#000000" stroke-width="3" points="342,-44.5 342,-202.5 704,-202.5 704,-44.5 342,-44.5"/>
</g>
<!-- action_trigger.event -->
<g id="node2" class="node">
<title>action_trigger.event</title>
<polygon fill="#efefef" stroke="transparent" points="372,-745.5 372,-780.5 676,-780.5 676,-745.5 372,-745.5"/>
<polygon fill="none" stroke="#000000" points="372,-745.5 372,-780.5 676,-780.5 676,-745.5 372,-745.5"/>
<text text-anchor="start" x="381.1942" y="-758.3" font-family="Arial Bold" font-size="18.00" fill="#000000">action_trigger.event</text>
<text text-anchor="start" x="539.2378" y="-758.3" font-family="Arial" font-size="14.00" fill="#000000">    </text>
<text text-anchor="start" x="573.4426" y="-758.3" font-family="Arial" font-size="14.00" fill="#666666">[BASE TABLE]</text>
<polygon fill="none" stroke="#000000" points="372,-715.5 372,-745.5 676,-745.5 676,-715.5 372,-715.5"/>
<text text-anchor="start" x="379" y="-726.9" font-family="Arial" font-size="14.00" fill="#000000">id    </text>
<text text-anchor="start" x="424.094" y="-726.9" font-family="Arial" font-size="14.00" fill="#666666">[bigint]</text>
<polygon fill="none" stroke="#000000" points="372,-685.5 372,-715.5 676,-715.5 676,-685.5 372,-685.5"/>
<text text-anchor="start" x="379" y="-696.9" font-family="Arial" font-size="14.00" fill="#000000">target    </text>
<text text-anchor="start" x="448.9944" y="-696.9" font-family="Arial" font-size="14.00" fill="#666666">[bigint]</text>
<polygon fill="none" stroke="#000000" points="372,-655.5 372,-685.5 676,-685.5 676,-655.5 372,-655.5"/>
<text text-anchor="start" x="379" y="-666.9" font-family="Arial" font-size="14.00" fill="#000000">event_def    </text>
<text text-anchor="start" x="474.6816" y="-666.9" font-family="Arial" font-size="14.00" fill="#666666">[integer]</text>
<polygon fill="none" stroke="#000000" points="372,-625.5 372,-655.5 676,-655.5 676,-625.5 372,-625.5"/>
<text text-anchor="start" x="379" y="-636.9" font-family="Arial" font-size="14.00" fill="#000000">add_time    </text>
<text text-anchor="start" x="470.7756" y="-636.9" font-family="Arial" font-size="14.00" fill="#666666">[timestamp with time zone]</text>
<polygon fill="none" stroke="#000000" points="372,-595.5 372,-625.5 676,-625.5 676,-595.5 372,-595.5"/>
<text text-anchor="start" x="379" y="-606.9" font-family="Arial" font-size="14.00" fill="#000000">run_time    </text>
<text text-anchor="start" x="467.6536" y="-606.9" font-family="Arial" font-size="14.00" fill="#666666">[timestamp with time zone]</text>
<polygon fill="none" stroke="#000000" points="372,-565.5 372,-595.5 676,-595.5 676,-565.5 372,-565.5"/>
<text text-anchor="start" x="379" y="-576.9" font-family="Arial" font-size="14.00" fill="#000000">start_time    </text>
<text text-anchor="start" x="474.6522" y="-576.9" font-family="Arial" font-size="14.00" fill="#666666">[timestamp with time zone]</text>
<polygon fill="none" stroke="#000000" points="372,-535.5 372,-565.5 676,-565.5 676,-535.5 372,-535.5"/>
<text text-anchor="start" x="379" y="-546.9" font-family="Arial" font-size="14.00" fill="#000000">update_time    </text>
<text text-anchor="start" x="490.2314" y="-546.9" font-family="Arial" font-size="14.00" fill="#666666">[timestamp with time zone]</text>
<polygon fill="none" stroke="#000000" points="372,-505.5 372,-535.5 676,-535.5 676,-505.5 372,-505.5"/>
<text text-anchor="start" x="378.5498" y="-516.9" font-family="Arial" font-size="14.00" fill="#000000">complete_time    </text>
<text text-anchor="start" x="503.7658" y="-516.9" font-family="Arial" font-size="14.00" fill="#666666">[timestamp with time zone]</text>
<polygon fill="none" stroke="#000000" points="372,-475.5 372,-505.5 676,-505.5 676,-475.5 372,-475.5"/>
<text text-anchor="start" x="379" y="-486.9" font-family="Arial" font-size="14.00" fill="#000000">update_process    </text>
<text text-anchor="start" x="512.7994" y="-486.9" font-family="Arial" font-size="14.00" fill="#666666">[integer]</text>
<polygon fill="none" stroke="#000000" points="372,-445.5 372,-475.5 676,-475.5 676,-445.5 372,-445.5"/>
<text text-anchor="start" x="379" y="-456.9" font-family="Arial" font-size="14.00" fill="#000000">state    </text>
<text text-anchor="start" x="443.5512" y="-456.9" font-family="Arial" font-size="14.00" fill="#666666">[text]</text>
<polygon fill="none" stroke="#000000" points="372,-415.5 372,-445.5 676,-445.5 676,-415.5 372,-415.5"/>
<text text-anchor="start" x="379" y="-426.9" font-family="Arial" font-size="14.00" fill="#000000">user_data    </text>
<text text-anchor="start" x="475.4516" y="-426.9" font-family="Arial" font-size="14.00" fill="#666666">[text]</text>
<polygon fill="none" stroke="#000000" points="372,-385.5 372,-415.5 676,-415.5 676,-385.5 372,-385.5"/>
<text text-anchor="start" x="379" y="-396.9" font-family="Arial" font-size="14.00" fill="#000000">template_output    </text>
<text text-anchor="start" x="513.5778" y="-396.9" font-family="Arial" font-size="14.00" fill="#666666">[bigint]</text>
<polygon fill="none" stroke="#000000" points="372,-355.5 372,-385.5 676,-385.5 676,-355.5 372,-355.5"/>
<text text-anchor="start" x="379" y="-366.9" font-family="Arial" font-size="14.00" fill="#000000">error_output    </text>
<text text-anchor="start" x="489.446" y="-366.9" font-family="Arial" font-size="14.00" fill="#666666">[bigint]</text>
<polygon fill="none" stroke="#000000" points="372,-325.5 372,-355.5 676,-355.5 676,-325.5 372,-325.5"/>
<text text-anchor="start" x="379" y="-336.9" font-family="Arial" font-size="14.00" fill="#000000">async_output    </text>
<text text-anchor="start" x="496.4642" y="-336.9" font-family="Arial" font-size="14.00" fill="#666666">[bigint]</text>
</g>
<!-- action_trigger.event&#45;&gt;action_trigger.event_output -->
<g id="edge1" class="edge">
<title>action_trigger.event:async_output&#45;&gt;action_trigger.event_output:id</title>
<path fill="none" stroke="#000000" d="M524.7112,-315.2068C535.1444,-245.3153 657.5257,-316.5976 703,-247 726.4594,-211.0958 745.8889,-150.5 703,-150.5"/>
<polygon fill="#000000" stroke="#000000" points="524.6894,-315.5238 519.5107,-325.1898 524.3447,-320.5119 524,-325.5 524,-325.5 524,-325.5 524.3447,-320.5119 528.4893,-325.8102 524.6894,-315.5238 524.6894,-315.5238"/>
<text text-anchor="start" x="170.637" y="-335.5" font-family="Arial" font-size="10.00" fill="#000000">FOREIGN KEY (async_output) REFERENCES action_trigger.event_output(id)</text>
</g>
<!-- action_trigger.event&#45;&gt;action_trigger.event_output -->
<g id="edge2" class="edge">
<title>action_trigger.event:error_output&#45;&gt;action_trigger.event_output:id</title>
<path fill="none" stroke="#000000" d="M362.0529,-368.9069C335.7589,-359.3462 348.5666,-309.1202 372,-283 421.409,-227.9258 653.591,-302.0742 703,-247 731.6406,-215.0755 745.8889,-150.5 703,-150.5"/>
<polygon fill="#000000" stroke="#000000" points="362.1258,-368.9185 371.2883,-374.9434 367.0629,-369.7092 372,-370.5 372,-370.5 372,-370.5 367.0629,-369.7092 372.7117,-366.0566 362.1258,-368.9185 362.1258,-368.9185"/>
<text text-anchor="start" x="24.1435" y="-380.5" font-family="Arial" font-size="10.00" fill="#000000">FOREIGN KEY (error_output) REFERENCES action_trigger.event_output(id)</text>
</g>
<!-- action_trigger.event&#45;&gt;action_trigger.event_output -->
<g id="edge3" class="edge">
<title>action_trigger.event:template_output&#45;&gt;action_trigger.event_output:id</title>
<path fill="none" stroke="#000000" d="M361.9981,-399.375C322.3041,-389.6395 339.5788,-319.1386 372,-283 421.409,-227.9258 653.591,-302.0742 703,-247 731.6406,-215.0755 745.8889,-150.5 703,-150.5"/>
<polygon fill="#000000" stroke="#000000" points="362.0627,-399.3821 371.497,-404.9718 367.0313,-399.9411 372,-400.5 372,-400.5 372,-400.5 367.0313,-399.9411 372.503,-396.0282 362.0627,-399.3821 362.0627,-399.3821"/>
<text text-anchor="start" x="6.525" y="-410.5" font-family="Arial" font-size="10.00" fill="#000000">FOREIGN KEY (template_output) REFERENCES action_trigger.event_output(id)</text>
</g>
</g>
</svg>
