<?xml version="1.0" encoding="UTF-8" standalone="no"?>
<!DOCTYPE svg PUBLIC "-//W3C//DTD SVG 1.1//EN"
 "http://www.w3.org/Graphics/SVG/1.1/DTD/svg11.dtd">
<!-- Generated by graphviz version 2.40.1 (20161225.0304)
 -->
<!-- Title: action_trigger.validator Pages: 1 -->
<svg width="952pt" height="1042pt"
 viewBox="0.00 0.00 951.50 1042.00" xmlns="http://www.w3.org/2000/svg" xmlns:xlink="http://www.w3.org/1999/xlink">
<g id="graph0" class="graph" transform="scale(1 1) rotate(0) translate(4 1038)">
<title>action_trigger.validator</title>
<polygon fill="#ffffff" stroke="transparent" points="-4,4 -4,-1038 947.5,-1038 947.5,4 -4,4"/>
<!-- action_trigger.validator -->
<g id="node1" class="node">
<title>action_trigger.validator</title>
<polygon fill="#efefef" stroke="transparent" points="549,-105.5 549,-140.5 872,-140.5 872,-105.5 549,-105.5"/>
<polygon fill="none" stroke="#000000" points="549,-105.5 549,-140.5 872,-140.5 872,-105.5 549,-105.5"/>
<text text-anchor="start" x="555.7008" y="-118.3" font-family="Arial Bold" font-size="18.00" fill="#000000">action_trigger.validator</text>
<text text-anchor="start" x="737.7312" y="-118.3" font-family="Arial" font-size="14.00" fill="#000000">    </text>
<text text-anchor="start" x="771.936" y="-118.3" font-family="Arial" font-size="14.00" fill="#666666">[BASE TABLE]</text>
<polygon fill="none" stroke="#000000" points="549,-75.5 549,-105.5 872,-105.5 872,-75.5 549,-75.5"/>
<text text-anchor="start" x="556" y="-86.9" font-family="Arial" font-size="14.00" fill="#000000">module </text>
<text text-anchor="start" x="605.7882" y="-86.9" font-family="Arial" font-size="14.00" fill="#666666">[text]</text>
<polygon fill="none" stroke="#000000" points="549,-45.5 549,-75.5 872,-75.5 872,-45.5 549,-45.5"/>
<text text-anchor="start" x="556" y="-56.9" font-family="Arial" font-size="14.00" fill="#000000">description </text>
<text text-anchor="start" x="627.568" y="-56.9" font-family="Arial" font-size="14.00" fill="#666666">[text]</text>
<polygon fill="none" stroke="#000000" stroke-width="3" points="547,-44.5 547,-142.5 873,-142.5 873,-44.5 547,-44.5"/>
</g>
<!-- action_trigger.event_definition -->
<g id="node2" class="node">
<title>action_trigger.event_definition</title>
<polygon fill="#efefef" stroke="transparent" points="520,-955.5 520,-990.5 901,-990.5 901,-955.5 520,-955.5"/>
<polygon fill="none" stroke="#000000" points="520,-955.5 520,-990.5 901,-990.5 901,-955.5 520,-955.5"/>
<text text-anchor="start" x="526.6821" y="-968.3" font-family="Arial Bold" font-size="18.00" fill="#000000">action_trigger.event_definition</text>
<text text-anchor="start" x="766.7499" y="-968.3" font-family="Arial" font-size="14.00" fill="#000000">    </text>
<text text-anchor="start" x="800.9547" y="-968.3" font-family="Arial" font-size="14.00" fill="#666666">[BASE TABLE]</text>
<polygon fill="none" stroke="#000000" points="520,-925.5 520,-955.5 901,-955.5 901,-925.5 520,-925.5"/>
<text text-anchor="start" x="527" y="-936.9" font-family="Arial" font-size="14.00" fill="#000000">id    </text>
<text text-anchor="start" x="572.094" y="-936.9" font-family="Arial" font-size="14.00" fill="#666666">[integer]</text>
<polygon fill="none" stroke="#000000" points="520,-895.5 520,-925.5 901,-925.5 901,-895.5 520,-895.5"/>
<text text-anchor="start" x="527" y="-906.9" font-family="Arial" font-size="14.00" fill="#000000">active    </text>
<text text-anchor="start" x="597.7672" y="-906.9" font-family="Arial" font-size="14.00" fill="#666666">[boolean]</text>
<polygon fill="none" stroke="#000000" points="520,-865.5 520,-895.5 901,-895.5 901,-865.5 520,-865.5"/>
<text text-anchor="start" x="527" y="-876.9" font-family="Arial" font-size="14.00" fill="#000000">owner    </text>
<text text-anchor="start" x="599.3198" y="-876.9" font-family="Arial" font-size="14.00" fill="#666666">[integer]</text>
<polygon fill="none" stroke="#000000" points="520,-835.5 520,-865.5 901,-865.5 901,-835.5 520,-835.5"/>
<text text-anchor="start" x="527" y="-846.9" font-family="Arial" font-size="14.00" fill="#000000">name    </text>
<text text-anchor="start" x="596.2132" y="-846.9" font-family="Arial" font-size="14.00" fill="#666666">[text]</text>
<polygon fill="none" stroke="#000000" points="520,-805.5 520,-835.5 901,-835.5 901,-805.5 520,-805.5"/>
<text text-anchor="start" x="527" y="-816.9" font-family="Arial" font-size="14.00" fill="#000000">hook    </text>
<text text-anchor="start" x="591.5526" y="-816.9" font-family="Arial" font-size="14.00" fill="#666666">[text]</text>
<polygon fill="none" stroke="#000000" points="520,-775.5 520,-805.5 901,-805.5 901,-775.5 520,-775.5"/>
<text text-anchor="start" x="527" y="-786.9" font-family="Arial" font-size="14.00" fill="#000000">validator    </text>
<text text-anchor="start" x="614.0996" y="-786.9" font-family="Arial" font-size="14.00" fill="#666666">[text]</text>
<polygon fill="none" stroke="#000000" points="520,-745.5 520,-775.5 901,-775.5 901,-745.5 520,-745.5"/>
<text text-anchor="start" x="527" y="-756.9" font-family="Arial" font-size="14.00" fill="#000000">reactor    </text>
<text text-anchor="start" x="604.7644" y="-756.9" font-family="Arial" font-size="14.00" fill="#666666">[text]</text>
<polygon fill="none" stroke="#000000" points="520,-715.5 520,-745.5 901,-745.5 901,-715.5 520,-715.5"/>
<text text-anchor="start" x="527" y="-726.9" font-family="Arial" font-size="14.00" fill="#000000">cleanup_success    </text>
<text text-anchor="start" x="668.5722" y="-726.9" font-family="Arial" font-size="14.00" fill="#666666">[text]</text>
<polygon fill="none" stroke="#000000" points="520,-685.5 520,-715.5 901,-715.5 901,-685.5 520,-685.5"/>
<text text-anchor="start" x="527" y="-696.9" font-family="Arial" font-size="14.00" fill="#000000">cleanup_failure    </text>
<text text-anchor="start" x="656.1192" y="-696.9" font-family="Arial" font-size="14.00" fill="#666666">[text]</text>
<polygon fill="none" stroke="#000000" points="520,-655.5 520,-685.5 901,-685.5 901,-655.5 520,-655.5"/>
<text text-anchor="start" x="527" y="-666.9" font-family="Arial" font-size="14.00" fill="#000000">delay    </text>
<text text-anchor="start" x="594.6592" y="-666.9" font-family="Arial" font-size="14.00" fill="#666666">[interval]</text>
<polygon fill="none" stroke="#000000" points="520,-625.5 520,-655.5 901,-655.5 901,-625.5 520,-625.5"/>
<text text-anchor="start" x="527" y="-636.9" font-family="Arial" font-size="14.00" fill="#000000">max_delay    </text>
<text text-anchor="start" x="628.885" y="-636.9" font-family="Arial" font-size="14.00" fill="#666666">[interval]</text>
<polygon fill="none" stroke="#000000" points="520,-595.5 520,-625.5 901,-625.5 901,-595.5 520,-595.5"/>
<text text-anchor="start" x="527" y="-606.9" font-family="Arial" font-size="14.00" fill="#000000">repeat_delay    </text>
<text text-anchor="start" x="642.1234" y="-606.9" font-family="Arial" font-size="14.00" fill="#666666">[interval]</text>
<polygon fill="none" stroke="#000000" points="520,-565.5 520,-595.5 901,-595.5 901,-565.5 520,-565.5"/>
<text text-anchor="start" x="527" y="-576.9" font-family="Arial" font-size="14.00" fill="#000000">usr_field    </text>
<text text-anchor="start" x="614.0996" y="-576.9" font-family="Arial" font-size="14.00" fill="#666666">[text]</text>
<polygon fill="none" stroke="#000000" points="520,-535.5 520,-565.5 901,-565.5 901,-535.5 520,-535.5"/>
<text text-anchor="start" x="527" y="-546.9" font-family="Arial" font-size="14.00" fill="#000000">opt_in_setting    </text>
<text text-anchor="start" x="648.3506" y="-546.9" font-family="Arial" font-size="14.00" fill="#666666">[text]</text>
<polygon fill="none" stroke="#000000" points="520,-505.5 520,-535.5 901,-535.5 901,-505.5 520,-505.5"/>
<text text-anchor="start" x="527" y="-516.9" font-family="Arial" font-size="14.00" fill="#000000">delay_field    </text>
<text text-anchor="start" x="628.1108" y="-516.9" font-family="Arial" font-size="14.00" fill="#666666">[text]</text>
<polygon fill="none" stroke="#000000" points="520,-475.5 520,-505.5 901,-505.5 901,-475.5 520,-475.5"/>
<text text-anchor="start" x="527" y="-486.9" font-family="Arial" font-size="14.00" fill="#000000">group_field    </text>
<text text-anchor="start" x="630.4474" y="-486.9" font-family="Arial" font-size="14.00" fill="#666666">[text]</text>
<polygon fill="none" stroke="#000000" points="520,-445.5 520,-475.5 901,-475.5 901,-445.5 520,-445.5"/>
<text text-anchor="start" x="527" y="-456.9" font-family="Arial" font-size="14.00" fill="#000000">template    </text>
<text text-anchor="start" x="614.8836" y="-456.9" font-family="Arial" font-size="14.00" fill="#666666">[text]</text>
<polygon fill="none" stroke="#000000" points="520,-415.5 520,-445.5 901,-445.5 901,-415.5 520,-415.5"/>
<text text-anchor="start" x="527" y="-426.9" font-family="Arial" font-size="14.00" fill="#000000">granularity    </text>
<text text-anchor="start" x="626.5428" y="-426.9" font-family="Arial" font-size="14.00" fill="#666666">[text]</text>
<polygon fill="none" stroke="#000000" points="520,-385.5 520,-415.5 901,-415.5 901,-385.5 520,-385.5"/>
<text text-anchor="start" x="527" y="-396.9" font-family="Arial" font-size="14.00" fill="#000000">message_template    </text>
<text text-anchor="start" x="679.4572" y="-396.9" font-family="Arial" font-size="14.00" fill="#666666">[text]</text>
<polygon fill="none" stroke="#000000" points="520,-355.5 520,-385.5 901,-385.5 901,-355.5 520,-355.5"/>
<text text-anchor="start" x="527" y="-366.9" font-family="Arial" font-size="14.00" fill="#000000">message_usr_path    </text>
<text text-anchor="start" x="680.2426" y="-366.9" font-family="Arial" font-size="14.00" fill="#666666">[text]</text>
<polygon fill="none" stroke="#000000" points="520,-325.5 520,-355.5 901,-355.5 901,-325.5 520,-325.5"/>
<text text-anchor="start" x="527" y="-336.9" font-family="Arial" font-size="14.00" fill="#000000">message_library_path    </text>
<text text-anchor="start" x="698.899" y="-336.9" font-family="Arial" font-size="14.00" fill="#666666">[text]</text>
<polygon fill="none" stroke="#000000" points="520,-295.5 520,-325.5 901,-325.5 901,-295.5 520,-295.5"/>
<text text-anchor="start" x="527" y="-306.9" font-family="Arial" font-size="14.00" fill="#000000">message_title    </text>
<text text-anchor="start" x="647.5554" y="-306.9" font-family="Arial" font-size="14.00" fill="#666666">[text]</text>
<polygon fill="none" stroke="#000000" points="520,-265.5 520,-295.5 901,-295.5 901,-265.5 520,-265.5"/>
<text text-anchor="start" x="527" y="-276.9" font-family="Arial" font-size="14.00" fill="#000000">retention_interval    </text>
<text text-anchor="start" x="668.561" y="-276.9" font-family="Arial" font-size="14.00" fill="#666666">[interval]</text>
</g>
<!-- action_trigger.event_definition&#45;&gt;action_trigger.validator -->
<g id="edge1" class="edge">
<title>action_trigger.event_definition:validator&#45;&gt;action_trigger.validator:module</title>
<path fill="none" stroke="#000000" d="M510.5526,-786.7338C444.7379,-731.6362 474.5004,-90.5 549,-90.5"/>
<polygon fill="#000000" stroke="#000000" points="510.7109,-786.7969 518.3336,-794.6801 515.3554,-788.6484 520,-790.5 520,-790.5 520,-790.5 515.3554,-788.6484 521.6664,-786.3199 510.7109,-786.7969 510.7109,-786.7969"/>
<text text-anchor="start" x="6.932" y="-800.5" font-family="Arial" font-size="10.00" fill="#000000">FOREIGN KEY (validator) REFERENCES action_trigger.validator(module) DEFERRABLE INITIALLY DEFERRED</text>
</g>
</g>
</svg>
