<?xml version="1.0" encoding="UTF-8" standalone="no"?>
<!DOCTYPE svg PUBLIC "-//W3C//DTD SVG 1.1//EN"
 "http://www.w3.org/Graphics/SVG/1.1/DTD/svg11.dtd">
<!-- Generated by graphviz version 2.40.1 (20161225.0304)
 -->
<!-- Title: action.archive_asset_stat_cat Pages: 1 -->
<svg width="478pt" height="255pt"
 viewBox="0.00 0.00 478.00 255.00" xmlns="http://www.w3.org/2000/svg" xmlns:xlink="http://www.w3.org/1999/xlink">
<g id="graph0" class="graph" transform="scale(1 1) rotate(0) translate(4 251)">
<title>action.archive_asset_stat_cat</title>
<polygon fill="#ffffff" stroke="transparent" points="-4,4 -4,-251 474,-251 474,4 -4,4"/>
<!-- action.archive_asset_stat_cat -->
<g id="node1" class="node">
<title>action.archive_asset_stat_cat</title>
<polygon fill="#efefef" stroke="transparent" points="46,-165.5 46,-200.5 424,-200.5 424,-165.5 46,-165.5"/>
<polygon fill="none" stroke="#000000" points="46,-165.5 46,-200.5 424,-200.5 424,-165.5 46,-165.5"/>
<text text-anchor="start" x="52.6788" y="-178.3" font-family="Arial Bold" font-size="18.00" fill="#000000">action.archive_asset_stat_cat</text>
<text text-anchor="start" x="289.7532" y="-178.3" font-family="Arial" font-size="14.00" fill="#000000">    </text>
<text text-anchor="start" x="323.958" y="-178.3" font-family="Arial" font-size="14.00" fill="#666666">[BASE TABLE]</text>
<polygon fill="none" stroke="#000000" points="46,-135.5 46,-165.5 424,-165.5 424,-135.5 46,-135.5"/>
<text text-anchor="start" x="53" y="-146.9" font-family="Arial" font-size="14.00" fill="#000000">id </text>
<text text-anchor="start" x="67.7798" y="-146.9" font-family="Arial" font-size="14.00" fill="#666666">[bigint]</text>
<polygon fill="none" stroke="#000000" points="46,-105.5 46,-135.5 424,-135.5 424,-105.5 46,-105.5"/>
<text text-anchor="start" x="53" y="-116.9" font-family="Arial" font-size="14.00" fill="#000000">xact </text>
<text text-anchor="start" x="82.5638" y="-116.9" font-family="Arial" font-size="14.00" fill="#666666">[bigint]</text>
<polygon fill="none" stroke="#000000" points="46,-75.5 46,-105.5 424,-105.5 424,-75.5 46,-75.5"/>
<text text-anchor="start" x="53" y="-86.9" font-family="Arial" font-size="14.00" fill="#000000">stat_cat </text>
<text text-anchor="start" x="105.9102" y="-86.9" font-family="Arial" font-size="14.00" fill="#666666">[integer]</text>
<polygon fill="none" stroke="#000000" points="46,-45.5 46,-75.5 424,-75.5 424,-45.5 46,-45.5"/>
<text text-anchor="start" x="53" y="-56.9" font-family="Arial" font-size="14.00" fill="#000000">value </text>
<text text-anchor="start" x="90.345" y="-56.9" font-family="Arial" font-size="14.00" fill="#666666">[text]</text>
<polygon fill="none" stroke="#000000" stroke-width="3" points="44.5,-44.5 44.5,-202.5 425.5,-202.5 425.5,-44.5 44.5,-44.5"/>
</g>
</g>
</svg>
