<?xml version="1.0" encoding="UTF-8" standalone="no"?>
<!DOCTYPE svg PUBLIC "-//W3C//DTD SVG 1.1//EN"
 "http://www.w3.org/Graphics/SVG/1.1/DTD/svg11.dtd">
<!-- Generated by graphviz version 2.40.1 (20161225.0304)
 -->
<!-- Title: action.circulation_limit_group_map Pages: 1 -->
<svg width="1597pt" height="1372pt"
 viewBox="0.00 0.00 1597.00 1372.00" xmlns="http://www.w3.org/2000/svg" xmlns:xlink="http://www.w3.org/1999/xlink">
<g id="graph0" class="graph" transform="scale(1 1) rotate(0) translate(4 1368)">
<title>action.circulation_limit_group_map</title>
<polygon fill="#ffffff" stroke="transparent" points="-4,4 -4,-1368 1593,-1368 1593,4 -4,4"/>
<!-- action.circulation_limit_group_map -->
<g id="node1" class="node">
<title>action.circulation_limit_group_map</title>
<polygon fill="#efefef" stroke="transparent" points="556,-1282.5 556,-1317.5 974,-1317.5 974,-1282.5 556,-1282.5"/>
<polygon fill="none" stroke="#000000" points="556,-1282.5 556,-1317.5 974,-1317.5 974,-1282.5 556,-1282.5"/>
<text text-anchor="start" x="562.6979" y="-1295.3" font-family="Arial Bold" font-size="18.00" fill="#000000">action.circulation_limit_group_map</text>
<text text-anchor="start" x="839.7341" y="-1295.3" font-family="Arial" font-size="14.00" fill="#000000">    </text>
<text text-anchor="start" x="873.9389" y="-1295.3" font-family="Arial" font-size="14.00" fill="#666666">[BASE TABLE]</text>
<polygon fill="none" stroke="#000000" points="556,-1252.5 556,-1282.5 974,-1282.5 974,-1252.5 556,-1252.5"/>
<text text-anchor="start" x="563" y="-1263.9" font-family="Arial" font-size="14.00" fill="#000000">circ </text>
<text text-anchor="start" x="588.6578" y="-1263.9" font-family="Arial" font-size="14.00" fill="#666666">[bigint]</text>
<polygon fill="none" stroke="#000000" points="556,-1222.5 556,-1252.5 974,-1252.5 974,-1222.5 556,-1222.5"/>
<text text-anchor="start" x="563" y="-1233.9" font-family="Arial" font-size="14.00" fill="#000000">limit_group </text>
<text text-anchor="start" x="635.3352" y="-1233.9" font-family="Arial" font-size="14.00" fill="#666666">[integer]</text>
<polygon fill="none" stroke="#000000" stroke-width="3" points="554.5,-1221.5 554.5,-1319.5 975.5,-1319.5 975.5,-1221.5 554.5,-1221.5"/>
</g>
<!-- action.circulation -->
<g id="node2" class="node">
<title>action.circulation</title>
<polygon fill="#efefef" stroke="transparent" points="384,-1062.5 384,-1097.5 716,-1097.5 716,-1062.5 384,-1062.5"/>
<polygon fill="none" stroke="#000000" points="384,-1062.5 384,-1097.5 716,-1097.5 716,-1062.5 384,-1062.5"/>
<text text-anchor="start" x="419.2065" y="-1075.3" font-family="Arial Bold" font-size="18.00" fill="#000000">action.circulation</text>
<text text-anchor="start" x="553.2255" y="-1075.3" font-family="Arial" font-size="14.00" fill="#000000">    </text>
<text text-anchor="start" x="587.4303" y="-1075.3" font-family="Arial" font-size="14.00" fill="#666666">[BASE TABLE]</text>
<polygon fill="none" stroke="#000000" points="384,-1032.5 384,-1062.5 716,-1062.5 716,-1032.5 384,-1032.5"/>
<text text-anchor="start" x="391" y="-1043.9" font-family="Arial" font-size="14.00" fill="#000000">id    </text>
<text text-anchor="start" x="436.094" y="-1043.9" font-family="Arial" font-size="14.00" fill="#666666">[bigint]</text>
<polygon fill="none" stroke="#000000" points="384,-1002.5 384,-1032.5 716,-1032.5 716,-1002.5 384,-1002.5"/>
<text text-anchor="start" x="391" y="-1013.9" font-family="Arial" font-size="14.00" fill="#000000">usr    </text>
<text text-anchor="start" x="444.648" y="-1013.9" font-family="Arial" font-size="14.00" fill="#666666">[integer]</text>
<polygon fill="none" stroke="#000000" points="384,-972.5 384,-1002.5 716,-1002.5 716,-972.5 384,-972.5"/>
<text text-anchor="start" x="391" y="-983.9" font-family="Arial" font-size="14.00" fill="#000000">xact_start    </text>
<text text-anchor="start" x="485.885" y="-983.9" font-family="Arial" font-size="14.00" fill="#666666">[timestamp with time zone]</text>
<polygon fill="none" stroke="#000000" points="384,-942.5 384,-972.5 716,-972.5 716,-942.5 384,-942.5"/>
<text text-anchor="start" x="391" y="-953.9" font-family="Arial" font-size="14.00" fill="#000000">xact_finish    </text>
<text text-anchor="start" x="491.3296" y="-953.9" font-family="Arial" font-size="14.00" fill="#666666">[timestamp with time zone]</text>
<polygon fill="none" stroke="#000000" points="384,-912.5 384,-942.5 716,-942.5 716,-912.5 384,-912.5"/>
<text text-anchor="start" x="391" y="-923.9" font-family="Arial" font-size="14.00" fill="#000000">unrecovered    </text>
<text text-anchor="start" x="503.0042" y="-923.9" font-family="Arial" font-size="14.00" fill="#666666">[boolean]</text>
<polygon fill="none" stroke="#000000" points="384,-882.5 384,-912.5 716,-912.5 716,-882.5 384,-882.5"/>
<text text-anchor="start" x="391" y="-893.9" font-family="Arial" font-size="14.00" fill="#000000">target_copy    </text>
<text text-anchor="start" x="498.3422" y="-893.9" font-family="Arial" font-size="14.00" fill="#666666">[bigint]</text>
<polygon fill="none" stroke="#000000" points="384,-852.5 384,-882.5 716,-882.5 716,-852.5 384,-852.5"/>
<text text-anchor="start" x="391" y="-863.9" font-family="Arial" font-size="14.00" fill="#000000">circ_lib    </text>
<text text-anchor="start" x="468.7504" y="-863.9" font-family="Arial" font-size="14.00" fill="#666666">[integer]</text>
<polygon fill="none" stroke="#000000" points="384,-822.5 384,-852.5 716,-852.5 716,-822.5 384,-822.5"/>
<text text-anchor="start" x="391" y="-833.9" font-family="Arial" font-size="14.00" fill="#000000">circ_staff    </text>
<text text-anchor="start" x="481.209" y="-833.9" font-family="Arial" font-size="14.00" fill="#666666">[integer]</text>
<polygon fill="none" stroke="#000000" points="384,-792.5 384,-822.5 716,-822.5 716,-792.5 384,-792.5"/>
<text text-anchor="start" x="391" y="-803.9" font-family="Arial" font-size="14.00" fill="#000000">checkin_staff    </text>
<text text-anchor="start" x="506.8962" y="-803.9" font-family="Arial" font-size="14.00" fill="#666666">[integer]</text>
<polygon fill="none" stroke="#000000" points="384,-762.5 384,-792.5 716,-792.5 716,-762.5 384,-762.5"/>
<text text-anchor="start" x="391" y="-773.9" font-family="Arial" font-size="14.00" fill="#000000">checkin_lib    </text>
<text text-anchor="start" x="494.4376" y="-773.9" font-family="Arial" font-size="14.00" fill="#666666">[integer]</text>
<polygon fill="none" stroke="#000000" points="384,-732.5 384,-762.5 716,-762.5 716,-732.5 384,-732.5"/>
<text text-anchor="start" x="391" y="-743.9" font-family="Arial" font-size="14.00" fill="#000000">renewal_remaining    </text>
<text text-anchor="start" x="543.439" y="-743.9" font-family="Arial" font-size="14.00" fill="#666666">[integer]</text>
<polygon fill="none" stroke="#000000" points="384,-702.5 384,-732.5 716,-732.5 716,-702.5 384,-702.5"/>
<text text-anchor="start" x="391" y="-713.9" font-family="Arial" font-size="14.00" fill="#000000">grace_period    </text>
<text text-anchor="start" x="506.8934" y="-713.9" font-family="Arial" font-size="14.00" fill="#666666">[interval]</text>
<polygon fill="none" stroke="#000000" points="384,-672.5 384,-702.5 716,-702.5 716,-672.5 384,-672.5"/>
<text text-anchor="start" x="391" y="-683.9" font-family="Arial" font-size="14.00" fill="#000000">due_date    </text>
<text text-anchor="start" x="483.5736" y="-683.9" font-family="Arial" font-size="14.00" fill="#666666">[timestamp with time zone]</text>
<polygon fill="none" stroke="#000000" points="384,-642.5 384,-672.5 716,-672.5 716,-642.5 384,-642.5"/>
<text text-anchor="start" x="391" y="-653.9" font-family="Arial" font-size="14.00" fill="#000000">stop_fines_time    </text>
<text text-anchor="start" x="523.2286" y="-653.9" font-family="Arial" font-size="14.00" fill="#666666">[timestamp with time zone]</text>
<polygon fill="none" stroke="#000000" points="384,-612.5 384,-642.5 716,-642.5 716,-612.5 384,-612.5"/>
<text text-anchor="start" x="391" y="-623.9" font-family="Arial" font-size="14.00" fill="#000000">checkin_time    </text>
<text text-anchor="start" x="506.8822" y="-623.9" font-family="Arial" font-size="14.00" fill="#666666">[timestamp with time zone]</text>
<polygon fill="none" stroke="#000000" points="384,-582.5 384,-612.5 716,-612.5 716,-582.5 384,-582.5"/>
<text text-anchor="start" x="391" y="-593.9" font-family="Arial" font-size="14.00" fill="#000000">create_time    </text>
<text text-anchor="start" x="498.3268" y="-593.9" font-family="Arial" font-size="14.00" fill="#666666">[timestamp with time zone]</text>
<polygon fill="none" stroke="#000000" points="384,-552.5 384,-582.5 716,-582.5 716,-552.5 384,-552.5"/>
<text text-anchor="start" x="391" y="-563.9" font-family="Arial" font-size="14.00" fill="#000000">duration    </text>
<text text-anchor="start" x="475.7756" y="-563.9" font-family="Arial" font-size="14.00" fill="#666666">[interval]</text>
<polygon fill="none" stroke="#000000" points="384,-522.5 384,-552.5 716,-552.5 716,-522.5 384,-522.5"/>
<text text-anchor="start" x="391" y="-533.9" font-family="Arial" font-size="14.00" fill="#000000">fine_interval    </text>
<text text-anchor="start" x="500.662" y="-533.9" font-family="Arial" font-size="14.00" fill="#666666">[interval]</text>
<polygon fill="none" stroke="#000000" points="384,-492.5 384,-522.5 716,-522.5 716,-492.5 384,-492.5"/>
<text text-anchor="start" x="391" y="-503.9" font-family="Arial" font-size="14.00" fill="#000000">recurring_fine    </text>
<text text-anchor="start" x="510.7686" y="-503.9" font-family="Arial" font-size="14.00" fill="#666666">[numeric(6,2)]</text>
<polygon fill="none" stroke="#000000" points="384,-462.5 384,-492.5 716,-492.5 716,-462.5 384,-462.5"/>
<text text-anchor="start" x="391" y="-473.9" font-family="Arial" font-size="14.00" fill="#000000">max_fine    </text>
<text text-anchor="start" x="481.993" y="-473.9" font-family="Arial" font-size="14.00" fill="#666666">[numeric(6,2)]</text>
<polygon fill="none" stroke="#000000" points="384,-432.5 384,-462.5 716,-462.5 716,-432.5 384,-432.5"/>
<text text-anchor="start" x="391" y="-443.9" font-family="Arial" font-size="14.00" fill="#000000">phone_renewal    </text>
<text text-anchor="start" x="520.9046" y="-443.9" font-family="Arial" font-size="14.00" fill="#666666">[boolean]</text>
<polygon fill="none" stroke="#000000" points="384,-402.5 384,-432.5 716,-432.5 716,-402.5 384,-402.5"/>
<text text-anchor="start" x="391" y="-413.9" font-family="Arial" font-size="14.00" fill="#000000">desk_renewal    </text>
<text text-anchor="start" x="511.5568" y="-413.9" font-family="Arial" font-size="14.00" fill="#666666">[boolean]</text>
<polygon fill="none" stroke="#000000" points="384,-372.5 384,-402.5 716,-402.5 716,-372.5 384,-372.5"/>
<text text-anchor="start" x="391" y="-383.9" font-family="Arial" font-size="14.00" fill="#000000">opac_renewal    </text>
<text text-anchor="start" x="512.3394" y="-383.9" font-family="Arial" font-size="14.00" fill="#666666">[boolean]</text>
<polygon fill="none" stroke="#000000" points="384,-342.5 384,-372.5 716,-372.5 716,-342.5 384,-342.5"/>
<text text-anchor="start" x="391" y="-353.9" font-family="Arial" font-size="14.00" fill="#000000">duration_rule    </text>
<text text-anchor="start" x="506.8906" y="-353.9" font-family="Arial" font-size="14.00" fill="#666666">[text]</text>
<polygon fill="none" stroke="#000000" points="384,-312.5 384,-342.5 716,-342.5 716,-312.5 384,-312.5"/>
<text text-anchor="start" x="391" y="-323.9" font-family="Arial" font-size="14.00" fill="#000000">recurring_fine_rule    </text>
<text text-anchor="start" x="541.8836" y="-323.9" font-family="Arial" font-size="14.00" fill="#666666">[text]</text>
<polygon fill="none" stroke="#000000" points="384,-282.5 384,-312.5 716,-312.5 716,-282.5 384,-282.5"/>
<text text-anchor="start" x="391" y="-293.9" font-family="Arial" font-size="14.00" fill="#000000">max_fine_rule    </text>
<text text-anchor="start" x="513.108" y="-293.9" font-family="Arial" font-size="14.00" fill="#666666">[text]</text>
<polygon fill="none" stroke="#000000" points="384,-252.5 384,-282.5 716,-282.5 716,-252.5 384,-252.5"/>
<text text-anchor="start" x="391" y="-263.9" font-family="Arial" font-size="14.00" fill="#000000">stop_fines    </text>
<text text-anchor="start" x="489.0056" y="-263.9" font-family="Arial" font-size="14.00" fill="#666666">[text]</text>
<polygon fill="none" stroke="#000000" points="384,-222.5 384,-252.5 716,-252.5 716,-222.5 384,-222.5"/>
<text text-anchor="start" x="391" y="-233.9" font-family="Arial" font-size="14.00" fill="#000000">workstation    </text>
<text text-anchor="start" x="495.9902" y="-233.9" font-family="Arial" font-size="14.00" fill="#666666">[integer]</text>
<polygon fill="none" stroke="#000000" points="384,-192.5 384,-222.5 716,-222.5 716,-192.5 384,-192.5"/>
<text text-anchor="start" x="391" y="-203.9" font-family="Arial" font-size="14.00" fill="#000000">checkin_workstation    </text>
<text text-anchor="start" x="551.2272" y="-203.9" font-family="Arial" font-size="14.00" fill="#666666">[integer]</text>
<polygon fill="none" stroke="#000000" points="384,-162.5 384,-192.5 716,-192.5 716,-162.5 384,-162.5"/>
<text text-anchor="start" x="391" y="-173.9" font-family="Arial" font-size="14.00" fill="#000000">copy_location    </text>
<text text-anchor="start" x="510.7868" y="-173.9" font-family="Arial" font-size="14.00" fill="#666666">[integer]</text>
<polygon fill="none" stroke="#000000" points="384,-132.5 384,-162.5 716,-162.5 716,-132.5 384,-132.5"/>
<text text-anchor="start" x="390.5428" y="-143.9" font-family="Arial" font-size="14.00" fill="#000000">checkin_scan_time    </text>
<text text-anchor="start" x="543.7728" y="-143.9" font-family="Arial" font-size="14.00" fill="#666666">[timestamp with time zone]</text>
<polygon fill="none" stroke="#000000" points="384,-102.5 384,-132.5 716,-132.5 716,-102.5 384,-102.5"/>
<text text-anchor="start" x="391" y="-113.9" font-family="Arial" font-size="14.00" fill="#000000">parent_circ    </text>
<text text-anchor="start" x="494.4362" y="-113.9" font-family="Arial" font-size="14.00" fill="#666666">[bigint]</text>
<polygon fill="none" stroke="#000000" points="384,-72.5 384,-102.5 716,-102.5 716,-72.5 384,-72.5"/>
<text text-anchor="start" x="391" y="-83.9" font-family="Arial" font-size="14.00" fill="#000000">auto_renewal    </text>
<text text-anchor="start" x="509.23" y="-83.9" font-family="Arial" font-size="14.00" fill="#666666">[boolean]</text>
<polygon fill="none" stroke="#000000" points="384,-42.5 384,-72.5 716,-72.5 716,-42.5 384,-42.5"/>
<text text-anchor="start" x="391" y="-53.9" font-family="Arial" font-size="14.00" fill="#000000">auto_renewal_remaining    </text>
<text text-anchor="start" x="578.46" y="-53.9" font-family="Arial" font-size="14.00" fill="#666666">[integer]</text>
</g>
<!-- action.circulation_limit_group_map&#45;&gt;action.circulation -->
<g id="edge1" class="edge">
<title>action.circulation_limit_group_map:circ&#45;&gt;action.circulation:id</title>
<path fill="none" stroke="#000000" d="M546.1088,-1266.0134C518.6964,-1256.6636 533.229,-1205.4638 556,-1177 601.5333,-1120.0833 670.4667,-1197.9167 716,-1141 741.9595,-1108.5506 757.5556,-1047.5 716,-1047.5"/>
<polygon fill="#000000" stroke="#000000" points="546.1111,-1266.0137 555.3312,-1271.95 551.0555,-1266.7568 556,-1267.5 556,-1267.5 556,-1267.5 551.0555,-1266.7568 556.6688,-1263.05 546.1111,-1266.0137 546.1111,-1266.0137"/>
<text text-anchor="start" x="6.6075" y="-1277.5" font-family="Arial" font-size="10.00" fill="#000000">FOREIGN KEY (circ) REFERENCES action.circulation(id) ON DELETE CASCADE DEFERRABLE INITIALLY DEFERRED</text>
</g>
<!-- config.circ_limit_group -->
<g id="node3" class="node">
<title>config.circ_limit_group</title>
<polygon fill="#efefef" stroke="transparent" points="820,-597.5 820,-632.5 1140,-632.5 1140,-597.5 820,-597.5"/>
<polygon fill="none" stroke="#000000" points="820,-597.5 820,-632.5 1140,-632.5 1140,-597.5 820,-597.5"/>
<text text-anchor="start" x="826.711" y="-610.3" font-family="Arial Bold" font-size="18.00" fill="#000000">config.circ_limit_group</text>
<text text-anchor="start" x="1005.721" y="-610.3" font-family="Arial" font-size="14.00" fill="#000000">    </text>
<text text-anchor="start" x="1039.9258" y="-610.3" font-family="Arial" font-size="14.00" fill="#666666">[BASE TABLE]</text>
<polygon fill="none" stroke="#000000" points="820,-567.5 820,-597.5 1140,-597.5 1140,-567.5 820,-567.5"/>
<text text-anchor="start" x="827" y="-578.9" font-family="Arial" font-size="14.00" fill="#000000">id    </text>
<text text-anchor="start" x="872.094" y="-578.9" font-family="Arial" font-size="14.00" fill="#666666">[integer]</text>
<polygon fill="none" stroke="#000000" points="820,-537.5 820,-567.5 1140,-567.5 1140,-537.5 820,-537.5"/>
<text text-anchor="start" x="827" y="-548.9" font-family="Arial" font-size="14.00" fill="#000000">name    </text>
<text text-anchor="start" x="896.2132" y="-548.9" font-family="Arial" font-size="14.00" fill="#666666">[text]</text>
<polygon fill="none" stroke="#000000" points="820,-507.5 820,-537.5 1140,-537.5 1140,-507.5 820,-507.5"/>
<text text-anchor="start" x="827" y="-518.9" font-family="Arial" font-size="14.00" fill="#000000">description    </text>
<text text-anchor="start" x="928.8822" y="-518.9" font-family="Arial" font-size="14.00" fill="#666666">[text]</text>
</g>
<!-- action.circulation_limit_group_map&#45;&gt;config.circ_limit_group -->
<g id="edge2" class="edge">
<title>action.circulation_limit_group_map:limit_group&#45;&gt;config.circ_limit_group:id</title>
<path fill="none" stroke="#000000" d="M984.2439,-1236.2546C1100.9066,-1204.6605 674.272,-582.5 820,-582.5"/>
<polygon fill="#000000" stroke="#000000" points="983.9269,-1236.2931 973.4569,-1233.0329 978.9635,-1236.8965 974,-1237.5 974,-1237.5 974,-1237.5 978.9635,-1236.8965 974.5431,-1241.9671 983.9269,-1236.2931 983.9269,-1236.2931"/>
<text text-anchor="start" x="981.4395" y="-1247.5" font-family="Arial" font-size="10.00" fill="#000000">FOREIGN KEY (limit_group) REFERENCES config.circ_limit_group(id) ON DELETE CASCADE DEFERRABLE INITIALLY DEFERRED</text>
</g>
</g>
</svg>
