<?xml version="1.0" encoding="UTF-8" standalone="no"?>
<!DOCTYPE svg PUBLIC "-//W3C//DTD SVG 1.1//EN"
 "http://www.w3.org/Graphics/SVG/1.1/DTD/svg11.dtd">
<!-- Generated by graphviz version 2.40.1 (20161225.0304)
 -->
<!-- Title: action.hold_request_cancel_cause Pages: 1 -->
<svg width="1105pt" height="1462pt"
 viewBox="0.00 0.00 1105.00 1462.00" xmlns="http://www.w3.org/2000/svg" xmlns:xlink="http://www.w3.org/1999/xlink">
<g id="graph0" class="graph" transform="scale(1 1) rotate(0) translate(4 1458)">
<title>action.hold_request_cancel_cause</title>
<polygon fill="#ffffff" stroke="transparent" points="-4,4 -4,-1458 1101,-1458 1101,4 -4,4"/>
<!-- action.hold_request_cancel_cause -->
<g id="node1" class="node">
<title>action.hold_request_cancel_cause</title>
<polygon fill="#efefef" stroke="transparent" points="46,-105.5 46,-140.5 464,-140.5 464,-105.5 46,-105.5"/>
<polygon fill="none" stroke="#000000" points="46,-105.5 46,-140.5 464,-140.5 464,-105.5 46,-105.5"/>
<text text-anchor="start" x="52.6664" y="-118.3" font-family="Arial Bold" font-size="18.00" fill="#000000">action.hold_request_cancel_cause</text>
<text text-anchor="start" x="329.7656" y="-118.3" font-family="Arial" font-size="14.00" fill="#000000">    </text>
<text text-anchor="start" x="363.9704" y="-118.3" font-family="Arial" font-size="14.00" fill="#666666">[BASE TABLE]</text>
<polygon fill="none" stroke="#000000" points="46,-75.5 46,-105.5 464,-105.5 464,-75.5 46,-75.5"/>
<text text-anchor="start" x="53" y="-86.9" font-family="Arial" font-size="14.00" fill="#000000">id </text>
<text text-anchor="start" x="67.7798" y="-86.9" font-family="Arial" font-size="14.00" fill="#666666">[integer]</text>
<polygon fill="none" stroke="#000000" points="46,-45.5 46,-75.5 464,-75.5 464,-45.5 46,-45.5"/>
<text text-anchor="start" x="53" y="-56.9" font-family="Arial" font-size="14.00" fill="#000000">label </text>
<text text-anchor="start" x="86.4516" y="-56.9" font-family="Arial" font-size="14.00" fill="#666666">[text]</text>
<polygon fill="none" stroke="#000000" stroke-width="3" points="44.5,-44.5 44.5,-142.5 465.5,-142.5 465.5,-44.5 44.5,-44.5"/>
</g>
<!-- action.hold_request -->
<g id="node2" class="node">
<title>action.hold_request</title>
<polygon fill="#efefef" stroke="transparent" points="93,-1375.5 93,-1410.5 416,-1410.5 416,-1375.5 93,-1375.5"/>
<polygon fill="none" stroke="#000000" points="93,-1375.5 93,-1410.5 416,-1410.5 416,-1375.5 93,-1375.5"/>
<text text-anchor="start" x="112.1883" y="-1388.3" font-family="Arial Bold" font-size="18.00" fill="#000000">action.hold_request</text>
<text text-anchor="start" x="269.2437" y="-1388.3" font-family="Arial" font-size="14.00" fill="#000000">    </text>
<text text-anchor="start" x="303.4485" y="-1388.3" font-family="Arial" font-size="14.00" fill="#666666">[BASE TABLE]</text>
<polygon fill="none" stroke="#000000" points="93,-1345.5 93,-1375.5 416,-1375.5 416,-1345.5 93,-1345.5"/>
<text text-anchor="start" x="100" y="-1356.9" font-family="Arial" font-size="14.00" fill="#000000">id    </text>
<text text-anchor="start" x="145.094" y="-1356.9" font-family="Arial" font-size="14.00" fill="#666666">[integer]</text>
<polygon fill="none" stroke="#000000" points="93,-1315.5 93,-1345.5 416,-1345.5 416,-1315.5 93,-1315.5"/>
<text text-anchor="start" x="100" y="-1326.9" font-family="Arial" font-size="14.00" fill="#000000">request_time    </text>
<text text-anchor="start" x="215.1094" y="-1326.9" font-family="Arial" font-size="14.00" fill="#666666">[timestamp with time zone]</text>
<polygon fill="none" stroke="#000000" points="93,-1285.5 93,-1315.5 416,-1315.5 416,-1285.5 93,-1285.5"/>
<text text-anchor="start" x="100" y="-1296.9" font-family="Arial" font-size="14.00" fill="#000000">capture_time    </text>
<text text-anchor="start" x="215.1094" y="-1296.9" font-family="Arial" font-size="14.00" fill="#666666">[timestamp with time zone]</text>
<polygon fill="none" stroke="#000000" points="93,-1255.5 93,-1285.5 416,-1285.5 416,-1255.5 93,-1255.5"/>
<text text-anchor="start" x="100" y="-1266.9" font-family="Arial" font-size="14.00" fill="#000000">fulfillment_time    </text>
<text text-anchor="start" x="227.5344" y="-1266.9" font-family="Arial" font-size="14.00" fill="#666666">[timestamp with time zone]</text>
<polygon fill="none" stroke="#000000" points="93,-1225.5 93,-1255.5 416,-1255.5 416,-1225.5 93,-1225.5"/>
<text text-anchor="start" x="100" y="-1236.9" font-family="Arial" font-size="14.00" fill="#000000">checkin_time    </text>
<text text-anchor="start" x="215.8822" y="-1236.9" font-family="Arial" font-size="14.00" fill="#666666">[timestamp with time zone]</text>
<polygon fill="none" stroke="#000000" points="93,-1195.5 93,-1225.5 416,-1225.5 416,-1195.5 93,-1195.5"/>
<text text-anchor="start" x="100" y="-1206.9" font-family="Arial" font-size="14.00" fill="#000000">return_time    </text>
<text text-anchor="start" x="204.9874" y="-1206.9" font-family="Arial" font-size="14.00" fill="#666666">[timestamp with time zone]</text>
<polygon fill="none" stroke="#000000" points="93,-1165.5 93,-1195.5 416,-1195.5 416,-1165.5 93,-1165.5"/>
<text text-anchor="start" x="100" y="-1176.9" font-family="Arial" font-size="14.00" fill="#000000">prev_check_time    </text>
<text text-anchor="start" x="240.0014" y="-1176.9" font-family="Arial" font-size="14.00" fill="#666666">[timestamp with time zone]</text>
<polygon fill="none" stroke="#000000" points="93,-1135.5 93,-1165.5 416,-1165.5 416,-1135.5 93,-1135.5"/>
<text text-anchor="start" x="100" y="-1146.9" font-family="Arial" font-size="14.00" fill="#000000">expire_time    </text>
<text text-anchor="start" x="206.5428" y="-1146.9" font-family="Arial" font-size="14.00" fill="#666666">[timestamp with time zone]</text>
<polygon fill="none" stroke="#000000" points="93,-1105.5 93,-1135.5 416,-1135.5 416,-1105.5 93,-1105.5"/>
<text text-anchor="start" x="100" y="-1116.9" font-family="Arial" font-size="14.00" fill="#000000">cancel_time    </text>
<text text-anchor="start" x="208.8822" y="-1116.9" font-family="Arial" font-size="14.00" fill="#666666">[timestamp with time zone]</text>
<polygon fill="none" stroke="#000000" points="93,-1075.5 93,-1105.5 416,-1105.5 416,-1075.5 93,-1075.5"/>
<text text-anchor="start" x="100" y="-1086.9" font-family="Arial" font-size="14.00" fill="#000000">cancel_cause    </text>
<text text-anchor="start" x="219.7896" y="-1086.9" font-family="Arial" font-size="14.00" fill="#666666">[integer]</text>
<polygon fill="none" stroke="#000000" points="93,-1045.5 93,-1075.5 416,-1075.5 416,-1045.5 93,-1045.5"/>
<text text-anchor="start" x="100" y="-1056.9" font-family="Arial" font-size="14.00" fill="#000000">cancel_note    </text>
<text text-anchor="start" x="209.6802" y="-1056.9" font-family="Arial" font-size="14.00" fill="#666666">[text]</text>
<polygon fill="none" stroke="#000000" points="93,-1015.5 93,-1045.5 416,-1045.5 416,-1015.5 93,-1015.5"/>
<text text-anchor="start" x="100" y="-1026.9" font-family="Arial" font-size="14.00" fill="#000000">target    </text>
<text text-anchor="start" x="169.9944" y="-1026.9" font-family="Arial" font-size="14.00" fill="#666666">[bigint]</text>
<polygon fill="none" stroke="#000000" points="93,-985.5 93,-1015.5 416,-1015.5 416,-985.5 93,-985.5"/>
<text text-anchor="start" x="100" y="-996.9" font-family="Arial" font-size="14.00" fill="#000000">current_copy    </text>
<text text-anchor="start" x="215.1122" y="-996.9" font-family="Arial" font-size="14.00" fill="#666666">[bigint]</text>
<polygon fill="none" stroke="#000000" points="93,-955.5 93,-985.5 416,-985.5 416,-955.5 93,-955.5"/>
<text text-anchor="start" x="100" y="-966.9" font-family="Arial" font-size="14.00" fill="#000000">fulfillment_staff    </text>
<text text-anchor="start" x="227.5484" y="-966.9" font-family="Arial" font-size="14.00" fill="#666666">[integer]</text>
<polygon fill="none" stroke="#000000" points="93,-925.5 93,-955.5 416,-955.5 416,-925.5 93,-925.5"/>
<text text-anchor="start" x="100" y="-936.9" font-family="Arial" font-size="14.00" fill="#000000">fulfillment_lib    </text>
<text text-anchor="start" x="215.0898" y="-936.9" font-family="Arial" font-size="14.00" fill="#666666">[integer]</text>
<polygon fill="none" stroke="#000000" points="93,-895.5 93,-925.5 416,-925.5 416,-895.5 93,-895.5"/>
<text text-anchor="start" x="100" y="-906.9" font-family="Arial" font-size="14.00" fill="#000000">request_lib    </text>
<text text-anchor="start" x="202.6648" y="-906.9" font-family="Arial" font-size="14.00" fill="#666666">[integer]</text>
<polygon fill="none" stroke="#000000" points="93,-865.5 93,-895.5 416,-895.5 416,-865.5 93,-865.5"/>
<text text-anchor="start" x="100" y="-876.9" font-family="Arial" font-size="14.00" fill="#000000">requestor    </text>
<text text-anchor="start" x="193.3296" y="-876.9" font-family="Arial" font-size="14.00" fill="#666666">[integer]</text>
<polygon fill="none" stroke="#000000" points="93,-835.5 93,-865.5 416,-865.5 416,-835.5 93,-835.5"/>
<text text-anchor="start" x="100" y="-846.9" font-family="Arial" font-size="14.00" fill="#000000">usr    </text>
<text text-anchor="start" x="153.648" y="-846.9" font-family="Arial" font-size="14.00" fill="#666666">[integer]</text>
<polygon fill="none" stroke="#000000" points="93,-805.5 93,-835.5 416,-835.5 416,-805.5 93,-805.5"/>
<text text-anchor="start" x="100" y="-816.9" font-family="Arial" font-size="14.00" fill="#000000">selection_ou    </text>
<text text-anchor="start" x="212.7868" y="-816.9" font-family="Arial" font-size="14.00" fill="#666666">[integer]</text>
<polygon fill="none" stroke="#000000" points="93,-775.5 93,-805.5 416,-805.5 416,-775.5 93,-775.5"/>
<text text-anchor="start" x="100" y="-786.9" font-family="Arial" font-size="14.00" fill="#000000">selection_depth    </text>
<text text-anchor="start" x="232.2426" y="-786.9" font-family="Arial" font-size="14.00" fill="#666666">[integer]</text>
<polygon fill="none" stroke="#000000" points="93,-745.5 93,-775.5 416,-775.5 416,-745.5 93,-745.5"/>
<text text-anchor="start" x="100" y="-756.9" font-family="Arial" font-size="14.00" fill="#000000">pickup_lib    </text>
<text text-anchor="start" x="196.4376" y="-756.9" font-family="Arial" font-size="14.00" fill="#666666">[integer]</text>
<polygon fill="none" stroke="#000000" points="93,-715.5 93,-745.5 416,-745.5 416,-715.5 93,-715.5"/>
<text text-anchor="start" x="100" y="-726.9" font-family="Arial" font-size="14.00" fill="#000000">hold_type    </text>
<text text-anchor="start" x="194.8976" y="-726.9" font-family="Arial" font-size="14.00" fill="#666666">[text]</text>
<polygon fill="none" stroke="#000000" points="93,-685.5 93,-715.5 416,-715.5 416,-685.5 93,-685.5"/>
<text text-anchor="start" x="100" y="-696.9" font-family="Arial" font-size="14.00" fill="#000000">holdable_formats    </text>
<text text-anchor="start" x="241.5638" y="-696.9" font-family="Arial" font-size="14.00" fill="#666666">[text]</text>
<polygon fill="none" stroke="#000000" points="93,-655.5 93,-685.5 416,-685.5 416,-655.5 93,-655.5"/>
<text text-anchor="start" x="100" y="-666.9" font-family="Arial" font-size="14.00" fill="#000000">phone_notify    </text>
<text text-anchor="start" x="214.3534" y="-666.9" font-family="Arial" font-size="14.00" fill="#666666">[text]</text>
<polygon fill="none" stroke="#000000" points="93,-625.5 93,-655.5 416,-655.5 416,-625.5 93,-625.5"/>
<text text-anchor="start" x="100" y="-636.9" font-family="Arial" font-size="14.00" fill="#000000">email_notify    </text>
<text text-anchor="start" x="208.8794" y="-636.9" font-family="Arial" font-size="14.00" fill="#666666">[boolean]</text>
<polygon fill="none" stroke="#000000" points="93,-595.5 93,-625.5 416,-625.5 416,-595.5 93,-595.5"/>
<text text-anchor="start" x="100" y="-606.9" font-family="Arial" font-size="14.00" fill="#000000">sms_notify    </text>
<text text-anchor="start" x="201.101" y="-606.9" font-family="Arial" font-size="14.00" fill="#666666">[text]</text>
<polygon fill="none" stroke="#000000" points="93,-565.5 93,-595.5 416,-595.5 416,-565.5 93,-565.5"/>
<text text-anchor="start" x="100" y="-576.9" font-family="Arial" font-size="14.00" fill="#000000">sms_carrier    </text>
<text text-anchor="start" x="207.3016" y="-576.9" font-family="Arial" font-size="14.00" fill="#666666">[integer]</text>
<polygon fill="none" stroke="#000000" points="93,-535.5 93,-565.5 416,-565.5 416,-535.5 93,-535.5"/>
<text text-anchor="start" x="100" y="-546.9" font-family="Arial" font-size="14.00" fill="#000000">frozen    </text>
<text text-anchor="start" x="173.1038" y="-546.9" font-family="Arial" font-size="14.00" fill="#666666">[boolean]</text>
<polygon fill="none" stroke="#000000" points="93,-505.5 93,-535.5 416,-535.5 416,-505.5 93,-505.5"/>
<text text-anchor="start" x="100" y="-516.9" font-family="Arial" font-size="14.00" fill="#000000">thaw_date    </text>
<text text-anchor="start" x="198.7882" y="-516.9" font-family="Arial" font-size="14.00" fill="#666666">[timestamp with time zone]</text>
<polygon fill="none" stroke="#000000" points="93,-475.5 93,-505.5 416,-505.5 416,-475.5 93,-475.5"/>
<text text-anchor="start" x="100" y="-486.9" font-family="Arial" font-size="14.00" fill="#000000">shelf_time    </text>
<text text-anchor="start" x="197.9902" y="-486.9" font-family="Arial" font-size="14.00" fill="#666666">[timestamp with time zone]</text>
<polygon fill="none" stroke="#000000" points="93,-445.5 93,-475.5 416,-475.5 416,-445.5 93,-445.5"/>
<text text-anchor="start" x="100" y="-456.9" font-family="Arial" font-size="14.00" fill="#000000">cut_in_line    </text>
<text text-anchor="start" x="201.1108" y="-456.9" font-family="Arial" font-size="14.00" fill="#666666">[boolean]</text>
<polygon fill="none" stroke="#000000" points="93,-415.5 93,-445.5 416,-445.5 416,-415.5 93,-415.5"/>
<text text-anchor="start" x="100" y="-426.9" font-family="Arial" font-size="14.00" fill="#000000">mint_condition    </text>
<text text-anchor="start" x="224.4446" y="-426.9" font-family="Arial" font-size="14.00" fill="#666666">[boolean]</text>
<polygon fill="none" stroke="#000000" points="93,-385.5 93,-415.5 416,-415.5 416,-385.5 93,-385.5"/>
<text text-anchor="start" x="99.7139" y="-396.9" font-family="Arial" font-size="14.00" fill="#000000">shelf_expire_time    </text>
<text text-anchor="start" x="243.6017" y="-396.9" font-family="Arial" font-size="14.00" fill="#666666">[timestamp with time zone]</text>
<polygon fill="none" stroke="#000000" points="93,-355.5 93,-385.5 416,-385.5 416,-355.5 93,-355.5"/>
<text text-anchor="start" x="100" y="-366.9" font-family="Arial" font-size="14.00" fill="#000000">current_shelf_lib    </text>
<text text-anchor="start" x="236.8878" y="-366.9" font-family="Arial" font-size="14.00" fill="#666666">[integer]</text>
<polygon fill="none" stroke="#000000" points="93,-325.5 93,-355.5 416,-355.5 416,-325.5 93,-325.5"/>
<text text-anchor="start" x="100" y="-336.9" font-family="Arial" font-size="14.00" fill="#000000">behind_desk    </text>
<text text-anchor="start" x="213.5722" y="-336.9" font-family="Arial" font-size="14.00" fill="#666666">[boolean]</text>
<polygon fill="none" stroke="#000000" points="93,-295.5 93,-325.5 416,-325.5 416,-295.5 93,-295.5"/>
<text text-anchor="start" x="100" y="-306.9" font-family="Arial" font-size="14.00" fill="#000000">acq_request    </text>
<text text-anchor="start" x="211.2342" y="-306.9" font-family="Arial" font-size="14.00" fill="#666666">[integer]</text>
<polygon fill="none" stroke="#000000" points="93,-265.5 93,-295.5 416,-295.5 416,-265.5 93,-265.5"/>
<text text-anchor="start" x="100" y="-276.9" font-family="Arial" font-size="14.00" fill="#000000">hopeless_date    </text>
<text text-anchor="start" x="225.2454" y="-276.9" font-family="Arial" font-size="14.00" fill="#666666">[timestamp with time zone]</text>
</g>
<!-- action.hold_request&#45;&gt;action.hold_request_cancel_cause -->
<g id="edge1" class="edge">
<title>action.hold_request:cancel_cause&#45;&gt;action.hold_request_cancel_cause:id</title>
<path fill="none" stroke="#000000" d="M425.6955,-1087.6142C510.1249,-1035.4186 478.4959,-291.8717 416,-223 360.486,-161.8225 101.514,-248.1775 46,-187 17.1788,-155.2385 3.1111,-90.5 46,-90.5"/>
<polygon fill="#000000" stroke="#000000" points="425.5845,-1087.6472 414.7162,-1086.187 420.7922,-1089.0736 416,-1090.5 416,-1090.5 416,-1090.5 420.7922,-1089.0736 417.2838,-1094.813 425.5845,-1087.6472 425.5845,-1087.6472"/>
<text text-anchor="start" x="423.3465" y="-1100.5" font-family="Arial" font-size="10.00" fill="#000000">FOREIGN KEY (cancel_cause) REFERENCES action.hold_request_cancel_cause(id) ON DELETE SET NULL DEFERRABLE INITIALLY DEFERRED</text>
</g>
</g>
</svg>
