<?xml version="1.0" encoding="UTF-8" standalone="no"?>
<!DOCTYPE svg PUBLIC "-//W3C//DTD SVG 1.1//EN"
 "http://www.w3.org/Graphics/SVG/1.1/DTD/svg11.dtd">
<!-- Generated by graphviz version 2.40.1 (20161225.0304)
 -->
<!-- Title: action_trigger.cleanup Pages: 1 -->
<svg width="989pt" height="1042pt"
 viewBox="0.00 0.00 988.50 1042.00" xmlns="http://www.w3.org/2000/svg" xmlns:xlink="http://www.w3.org/1999/xlink">
<g id="graph0" class="graph" transform="scale(1 1) rotate(0) translate(4 1038)">
<title>action_trigger.cleanup</title>
<polygon fill="#ffffff" stroke="transparent" points="-4,4 -4,-1038 984.5,-1038 984.5,4 -4,4"/>
<!-- action_trigger.cleanup -->
<g id="node1" class="node">
<title>action_trigger.cleanup</title>
<polygon fill="#efefef" stroke="transparent" points="75.5,-105.5 75.5,-140.5 393.5,-140.5 393.5,-105.5 75.5,-105.5"/>
<polygon fill="none" stroke="#000000" points="75.5,-105.5 75.5,-140.5 393.5,-140.5 393.5,-105.5 75.5,-105.5"/>
<text text-anchor="start" x="82.192" y="-118.3" font-family="Arial Bold" font-size="18.00" fill="#000000">action_trigger.cleanup</text>
<text text-anchor="start" x="259.24" y="-118.3" font-family="Arial" font-size="14.00" fill="#000000">    </text>
<text text-anchor="start" x="293.4448" y="-118.3" font-family="Arial" font-size="14.00" fill="#666666">[BASE TABLE]</text>
<polygon fill="none" stroke="#000000" points="75.5,-75.5 75.5,-105.5 393.5,-105.5 393.5,-75.5 75.5,-75.5"/>
<text text-anchor="start" x="82.5" y="-86.9" font-family="Arial" font-size="14.00" fill="#000000">module </text>
<text text-anchor="start" x="132.2882" y="-86.9" font-family="Arial" font-size="14.00" fill="#666666">[text]</text>
<polygon fill="none" stroke="#000000" points="75.5,-45.5 75.5,-75.5 393.5,-75.5 393.5,-45.5 75.5,-45.5"/>
<text text-anchor="start" x="82.5" y="-56.9" font-family="Arial" font-size="14.00" fill="#000000">description </text>
<text text-anchor="start" x="154.068" y="-56.9" font-family="Arial" font-size="14.00" fill="#666666">[text]</text>
<polygon fill="none" stroke="#000000" stroke-width="3" points="74,-44.5 74,-142.5 395,-142.5 395,-44.5 74,-44.5"/>
</g>
<!-- action_trigger.event_definition -->
<g id="node2" class="node">
<title>action_trigger.event_definition</title>
<polygon fill="#efefef" stroke="transparent" points="43.5,-955.5 43.5,-990.5 424.5,-990.5 424.5,-955.5 43.5,-955.5"/>
<polygon fill="none" stroke="#000000" points="43.5,-955.5 43.5,-990.5 424.5,-990.5 424.5,-955.5 43.5,-955.5"/>
<text text-anchor="start" x="50.1821" y="-968.3" font-family="Arial Bold" font-size="18.00" fill="#000000">action_trigger.event_definition</text>
<text text-anchor="start" x="290.2499" y="-968.3" font-family="Arial" font-size="14.00" fill="#000000">    </text>
<text text-anchor="start" x="324.4547" y="-968.3" font-family="Arial" font-size="14.00" fill="#666666">[BASE TABLE]</text>
<polygon fill="none" stroke="#000000" points="43.5,-925.5 43.5,-955.5 424.5,-955.5 424.5,-925.5 43.5,-925.5"/>
<text text-anchor="start" x="50.5" y="-936.9" font-family="Arial" font-size="14.00" fill="#000000">id    </text>
<text text-anchor="start" x="95.594" y="-936.9" font-family="Arial" font-size="14.00" fill="#666666">[integer]</text>
<polygon fill="none" stroke="#000000" points="43.5,-895.5 43.5,-925.5 424.5,-925.5 424.5,-895.5 43.5,-895.5"/>
<text text-anchor="start" x="50.5" y="-906.9" font-family="Arial" font-size="14.00" fill="#000000">active    </text>
<text text-anchor="start" x="121.2672" y="-906.9" font-family="Arial" font-size="14.00" fill="#666666">[boolean]</text>
<polygon fill="none" stroke="#000000" points="43.5,-865.5 43.5,-895.5 424.5,-895.5 424.5,-865.5 43.5,-865.5"/>
<text text-anchor="start" x="50.5" y="-876.9" font-family="Arial" font-size="14.00" fill="#000000">owner    </text>
<text text-anchor="start" x="122.8198" y="-876.9" font-family="Arial" font-size="14.00" fill="#666666">[integer]</text>
<polygon fill="none" stroke="#000000" points="43.5,-835.5 43.5,-865.5 424.5,-865.5 424.5,-835.5 43.5,-835.5"/>
<text text-anchor="start" x="50.5" y="-846.9" font-family="Arial" font-size="14.00" fill="#000000">name    </text>
<text text-anchor="start" x="119.7132" y="-846.9" font-family="Arial" font-size="14.00" fill="#666666">[text]</text>
<polygon fill="none" stroke="#000000" points="43.5,-805.5 43.5,-835.5 424.5,-835.5 424.5,-805.5 43.5,-805.5"/>
<text text-anchor="start" x="50.5" y="-816.9" font-family="Arial" font-size="14.00" fill="#000000">hook    </text>
<text text-anchor="start" x="115.0526" y="-816.9" font-family="Arial" font-size="14.00" fill="#666666">[text]</text>
<polygon fill="none" stroke="#000000" points="43.5,-775.5 43.5,-805.5 424.5,-805.5 424.5,-775.5 43.5,-775.5"/>
<text text-anchor="start" x="50.5" y="-786.9" font-family="Arial" font-size="14.00" fill="#000000">validator    </text>
<text text-anchor="start" x="137.5996" y="-786.9" font-family="Arial" font-size="14.00" fill="#666666">[text]</text>
<polygon fill="none" stroke="#000000" points="43.5,-745.5 43.5,-775.5 424.5,-775.5 424.5,-745.5 43.5,-745.5"/>
<text text-anchor="start" x="50.5" y="-756.9" font-family="Arial" font-size="14.00" fill="#000000">reactor    </text>
<text text-anchor="start" x="128.2644" y="-756.9" font-family="Arial" font-size="14.00" fill="#666666">[text]</text>
<polygon fill="none" stroke="#000000" points="43.5,-715.5 43.5,-745.5 424.5,-745.5 424.5,-715.5 43.5,-715.5"/>
<text text-anchor="start" x="50.5" y="-726.9" font-family="Arial" font-size="14.00" fill="#000000">cleanup_success    </text>
<text text-anchor="start" x="192.0722" y="-726.9" font-family="Arial" font-size="14.00" fill="#666666">[text]</text>
<polygon fill="none" stroke="#000000" points="43.5,-685.5 43.5,-715.5 424.5,-715.5 424.5,-685.5 43.5,-685.5"/>
<text text-anchor="start" x="50.5" y="-696.9" font-family="Arial" font-size="14.00" fill="#000000">cleanup_failure    </text>
<text text-anchor="start" x="179.6192" y="-696.9" font-family="Arial" font-size="14.00" fill="#666666">[text]</text>
<polygon fill="none" stroke="#000000" points="43.5,-655.5 43.5,-685.5 424.5,-685.5 424.5,-655.5 43.5,-655.5"/>
<text text-anchor="start" x="50.5" y="-666.9" font-family="Arial" font-size="14.00" fill="#000000">delay    </text>
<text text-anchor="start" x="118.1592" y="-666.9" font-family="Arial" font-size="14.00" fill="#666666">[interval]</text>
<polygon fill="none" stroke="#000000" points="43.5,-625.5 43.5,-655.5 424.5,-655.5 424.5,-625.5 43.5,-625.5"/>
<text text-anchor="start" x="50.5" y="-636.9" font-family="Arial" font-size="14.00" fill="#000000">max_delay    </text>
<text text-anchor="start" x="152.385" y="-636.9" font-family="Arial" font-size="14.00" fill="#666666">[interval]</text>
<polygon fill="none" stroke="#000000" points="43.5,-595.5 43.5,-625.5 424.5,-625.5 424.5,-595.5 43.5,-595.5"/>
<text text-anchor="start" x="50.5" y="-606.9" font-family="Arial" font-size="14.00" fill="#000000">repeat_delay    </text>
<text text-anchor="start" x="165.6234" y="-606.9" font-family="Arial" font-size="14.00" fill="#666666">[interval]</text>
<polygon fill="none" stroke="#000000" points="43.5,-565.5 43.5,-595.5 424.5,-595.5 424.5,-565.5 43.5,-565.5"/>
<text text-anchor="start" x="50.5" y="-576.9" font-family="Arial" font-size="14.00" fill="#000000">usr_field    </text>
<text text-anchor="start" x="137.5996" y="-576.9" font-family="Arial" font-size="14.00" fill="#666666">[text]</text>
<polygon fill="none" stroke="#000000" points="43.5,-535.5 43.5,-565.5 424.5,-565.5 424.5,-535.5 43.5,-535.5"/>
<text text-anchor="start" x="50.5" y="-546.9" font-family="Arial" font-size="14.00" fill="#000000">opt_in_setting    </text>
<text text-anchor="start" x="171.8506" y="-546.9" font-family="Arial" font-size="14.00" fill="#666666">[text]</text>
<polygon fill="none" stroke="#000000" points="43.5,-505.5 43.5,-535.5 424.5,-535.5 424.5,-505.5 43.5,-505.5"/>
<text text-anchor="start" x="50.5" y="-516.9" font-family="Arial" font-size="14.00" fill="#000000">delay_field    </text>
<text text-anchor="start" x="151.6108" y="-516.9" font-family="Arial" font-size="14.00" fill="#666666">[text]</text>
<polygon fill="none" stroke="#000000" points="43.5,-475.5 43.5,-505.5 424.5,-505.5 424.5,-475.5 43.5,-475.5"/>
<text text-anchor="start" x="50.5" y="-486.9" font-family="Arial" font-size="14.00" fill="#000000">group_field    </text>
<text text-anchor="start" x="153.9474" y="-486.9" font-family="Arial" font-size="14.00" fill="#666666">[text]</text>
<polygon fill="none" stroke="#000000" points="43.5,-445.5 43.5,-475.5 424.5,-475.5 424.5,-445.5 43.5,-445.5"/>
<text text-anchor="start" x="50.5" y="-456.9" font-family="Arial" font-size="14.00" fill="#000000">template    </text>
<text text-anchor="start" x="138.3836" y="-456.9" font-family="Arial" font-size="14.00" fill="#666666">[text]</text>
<polygon fill="none" stroke="#000000" points="43.5,-415.5 43.5,-445.5 424.5,-445.5 424.5,-415.5 43.5,-415.5"/>
<text text-anchor="start" x="50.5" y="-426.9" font-family="Arial" font-size="14.00" fill="#000000">granularity    </text>
<text text-anchor="start" x="150.0428" y="-426.9" font-family="Arial" font-size="14.00" fill="#666666">[text]</text>
<polygon fill="none" stroke="#000000" points="43.5,-385.5 43.5,-415.5 424.5,-415.5 424.5,-385.5 43.5,-385.5"/>
<text text-anchor="start" x="50.5" y="-396.9" font-family="Arial" font-size="14.00" fill="#000000">message_template    </text>
<text text-anchor="start" x="202.9572" y="-396.9" font-family="Arial" font-size="14.00" fill="#666666">[text]</text>
<polygon fill="none" stroke="#000000" points="43.5,-355.5 43.5,-385.5 424.5,-385.5 424.5,-355.5 43.5,-355.5"/>
<text text-anchor="start" x="50.5" y="-366.9" font-family="Arial" font-size="14.00" fill="#000000">message_usr_path    </text>
<text text-anchor="start" x="203.7426" y="-366.9" font-family="Arial" font-size="14.00" fill="#666666">[text]</text>
<polygon fill="none" stroke="#000000" points="43.5,-325.5 43.5,-355.5 424.5,-355.5 424.5,-325.5 43.5,-325.5"/>
<text text-anchor="start" x="50.5" y="-336.9" font-family="Arial" font-size="14.00" fill="#000000">message_library_path    </text>
<text text-anchor="start" x="222.399" y="-336.9" font-family="Arial" font-size="14.00" fill="#666666">[text]</text>
<polygon fill="none" stroke="#000000" points="43.5,-295.5 43.5,-325.5 424.5,-325.5 424.5,-295.5 43.5,-295.5"/>
<text text-anchor="start" x="50.5" y="-306.9" font-family="Arial" font-size="14.00" fill="#000000">message_title    </text>
<text text-anchor="start" x="171.0554" y="-306.9" font-family="Arial" font-size="14.00" fill="#666666">[text]</text>
<polygon fill="none" stroke="#000000" points="43.5,-265.5 43.5,-295.5 424.5,-295.5 424.5,-265.5 43.5,-265.5"/>
<text text-anchor="start" x="50.5" y="-276.9" font-family="Arial" font-size="14.00" fill="#000000">retention_interval    </text>
<text text-anchor="start" x="192.061" y="-276.9" font-family="Arial" font-size="14.00" fill="#666666">[interval]</text>
</g>
<!-- action_trigger.event_definition&#45;&gt;action_trigger.cleanup -->
<g id="edge1" class="edge">
<title>action_trigger.event_definition:cleanup_failure&#45;&gt;action_trigger.cleanup:module</title>
<path fill="none" stroke="#000000" d="M434.6067,-699.2076C528.245,-674.3757 493.2183,-299.1713 424.5,-223 372.2739,-165.1096 127.7261,-244.8904 75.5,-187 46.771,-155.1551 32.6111,-90.5 75.5,-90.5"/>
<polygon fill="#000000" stroke="#000000" points="434.4192,-699.2315 423.9292,-696.0363 429.4596,-699.8658 424.5,-700.5 424.5,-700.5 424.5,-700.5 429.4596,-699.8658 425.0708,-704.9637 434.4192,-699.2315 434.4192,-699.2315"/>
<text text-anchor="start" x="431.809" y="-710.5" font-family="Arial" font-size="10.00" fill="#000000">FOREIGN KEY (cleanup_failure) REFERENCES action_trigger.cleanup(module) DEFERRABLE INITIALLY DEFERRED</text>
</g>
<!-- action_trigger.event_definition&#45;&gt;action_trigger.cleanup -->
<g id="edge2" class="edge">
<title>action_trigger.event_definition:cleanup_success&#45;&gt;action_trigger.cleanup:module</title>
<path fill="none" stroke="#000000" d="M434.6368,-729.2818C534.9133,-704.3469 497.6832,-304.1205 424.5,-223 372.2739,-165.1096 127.7261,-244.8904 75.5,-187 46.771,-155.1551 32.6111,-90.5 75.5,-90.5"/>
<polygon fill="#000000" stroke="#000000" points="434.4286,-729.3068 423.963,-726.0321 429.4643,-729.9034 424.5,-730.5 424.5,-730.5 424.5,-730.5 429.4643,-729.9034 425.037,-734.9679 434.4286,-729.3068 434.4286,-729.3068"/>
<text text-anchor="start" x="431.3615" y="-740.5" font-family="Arial" font-size="10.00" fill="#000000">FOREIGN KEY (cleanup_success) REFERENCES action_trigger.cleanup(module) DEFERRABLE INITIALLY DEFERRED</text>
</g>
</g>
</svg>
