<?xml version="1.0" encoding="UTF-8" standalone="no"?>
<!DOCTYPE svg PUBLIC "-//W3C//DTD SVG 1.1//EN"
 "http://www.w3.org/Graphics/SVG/1.1/DTD/svg11.dtd">
<!-- Generated by graphviz version 2.40.1 (20161225.0304)
 -->
<!-- Title: action.fieldset Pages: 1 -->
<svg width="1582pt" height="2429pt"
 viewBox="0.00 0.00 1581.50 2429.00" xmlns="http://www.w3.org/2000/svg" xmlns:xlink="http://www.w3.org/1999/xlink">
<g id="graph0" class="graph" transform="scale(1 1) rotate(0) translate(4 2425)">
<title>action.fieldset</title>
<polygon fill="#ffffff" stroke="transparent" points="-4,4 -4,-2425 1577.5,-2425 1577.5,4 -4,4"/>
<!-- action.fieldset -->
<g id="node1" class="node">
<title>action.fieldset</title>
<polygon fill="#efefef" stroke="transparent" points="668.5,-2062.5 668.5,-2097.5 949.5,-2097.5 949.5,-2062.5 668.5,-2062.5"/>
<polygon fill="none" stroke="#000000" points="668.5,-2062.5 668.5,-2097.5 949.5,-2097.5 949.5,-2062.5 668.5,-2062.5"/>
<text text-anchor="start" x="690.2017" y="-2075.3" font-family="Arial Bold" font-size="18.00" fill="#000000">action.fieldset</text>
<text text-anchor="start" x="800.2303" y="-2075.3" font-family="Arial" font-size="14.00" fill="#000000">    </text>
<text text-anchor="start" x="834.4351" y="-2075.3" font-family="Arial" font-size="14.00" fill="#666666">[BASE TABLE]</text>
<polygon fill="none" stroke="#000000" points="668.5,-2032.5 668.5,-2062.5 949.5,-2062.5 949.5,-2032.5 668.5,-2032.5"/>
<text text-anchor="start" x="675.5" y="-2043.9" font-family="Arial" font-size="14.00" fill="#000000">id </text>
<text text-anchor="start" x="690.2798" y="-2043.9" font-family="Arial" font-size="14.00" fill="#666666">[integer]</text>
<polygon fill="none" stroke="#000000" points="668.5,-2002.5 668.5,-2032.5 949.5,-2032.5 949.5,-2002.5 668.5,-2002.5"/>
<text text-anchor="start" x="675.5" y="-2013.9" font-family="Arial" font-size="14.00" fill="#000000">fieldset_group </text>
<text text-anchor="start" x="767.3064" y="-2013.9" font-family="Arial" font-size="14.00" fill="#666666">[integer]</text>
<polygon fill="none" stroke="#000000" points="668.5,-1972.5 668.5,-2002.5 949.5,-2002.5 949.5,-1972.5 668.5,-1972.5"/>
<text text-anchor="start" x="675.5" y="-1983.9" font-family="Arial" font-size="14.00" fill="#000000">owner </text>
<text text-anchor="start" x="717.5056" y="-1983.9" font-family="Arial" font-size="14.00" fill="#666666">[integer]</text>
<polygon fill="none" stroke="#000000" points="668.5,-1942.5 668.5,-1972.5 949.5,-1972.5 949.5,-1942.5 668.5,-1942.5"/>
<text text-anchor="start" x="675.5" y="-1953.9" font-family="Arial" font-size="14.00" fill="#000000">owning_lib </text>
<text text-anchor="start" x="745.5126" y="-1953.9" font-family="Arial" font-size="14.00" fill="#666666">[integer]</text>
<polygon fill="none" stroke="#000000" points="668.5,-1912.5 668.5,-1942.5 949.5,-1942.5 949.5,-1912.5 668.5,-1912.5"/>
<text text-anchor="start" x="675.5" y="-1923.9" font-family="Arial" font-size="14.00" fill="#000000">status </text>
<text text-anchor="start" x="716.737" y="-1923.9" font-family="Arial" font-size="14.00" fill="#666666">[text]</text>
<polygon fill="none" stroke="#000000" points="668.5,-1882.5 668.5,-1912.5 949.5,-1912.5 949.5,-1882.5 668.5,-1882.5"/>
<text text-anchor="start" x="675.5" y="-1893.9" font-family="Arial" font-size="14.00" fill="#000000">creation_time </text>
<text text-anchor="start" x="763.4018" y="-1893.9" font-family="Arial" font-size="14.00" fill="#666666">[timestamp with time zone]</text>
<polygon fill="none" stroke="#000000" points="668.5,-1852.5 668.5,-1882.5 949.5,-1882.5 949.5,-1852.5 668.5,-1852.5"/>
<text text-anchor="start" x="675.1999" y="-1863.9" font-family="Arial" font-size="14.00" fill="#000000">scheduled_time </text>
<text text-anchor="start" x="777.1157" y="-1863.9" font-family="Arial" font-size="14.00" fill="#666666">[timestamp with time zone]</text>
<polygon fill="none" stroke="#000000" points="668.5,-1822.5 668.5,-1852.5 949.5,-1852.5 949.5,-1822.5 668.5,-1822.5"/>
<text text-anchor="start" x="675.5" y="-1833.9" font-family="Arial" font-size="14.00" fill="#000000">applied_time </text>
<text text-anchor="start" x="758.7398" y="-1833.9" font-family="Arial" font-size="14.00" fill="#666666">[timestamp with time zone]</text>
<polygon fill="none" stroke="#000000" points="668.5,-1792.5 668.5,-1822.5 949.5,-1822.5 949.5,-1792.5 668.5,-1792.5"/>
<text text-anchor="start" x="675.5" y="-1803.9" font-family="Arial" font-size="14.00" fill="#000000">classname </text>
<text text-anchor="start" x="746.2882" y="-1803.9" font-family="Arial" font-size="14.00" fill="#666666">[text]</text>
<polygon fill="none" stroke="#000000" points="668.5,-1762.5 668.5,-1792.5 949.5,-1792.5 949.5,-1762.5 668.5,-1762.5"/>
<text text-anchor="start" x="675.5" y="-1773.9" font-family="Arial" font-size="14.00" fill="#000000">name </text>
<text text-anchor="start" x="714.399" y="-1773.9" font-family="Arial" font-size="14.00" fill="#666666">[text]</text>
<polygon fill="none" stroke="#000000" points="668.5,-1732.5 668.5,-1762.5 949.5,-1762.5 949.5,-1732.5 668.5,-1732.5"/>
<text text-anchor="start" x="675.5" y="-1743.9" font-family="Arial" font-size="14.00" fill="#000000">error_msg </text>
<text text-anchor="start" x="743.1634" y="-1743.9" font-family="Arial" font-size="14.00" fill="#666666">[text]</text>
<polygon fill="none" stroke="#000000" points="668.5,-1702.5 668.5,-1732.5 949.5,-1732.5 949.5,-1702.5 668.5,-1702.5"/>
<text text-anchor="start" x="675.5" y="-1713.9" font-family="Arial" font-size="14.00" fill="#000000">stored_query </text>
<text text-anchor="start" x="761.0806" y="-1713.9" font-family="Arial" font-size="14.00" fill="#666666">[integer]</text>
<polygon fill="none" stroke="#000000" points="668.5,-1672.5 668.5,-1702.5 949.5,-1702.5 949.5,-1672.5 668.5,-1672.5"/>
<text text-anchor="start" x="675.5" y="-1683.9" font-family="Arial" font-size="14.00" fill="#000000">pkey_value </text>
<text text-anchor="start" x="750.1928" y="-1683.9" font-family="Arial" font-size="14.00" fill="#666666">[text]</text>
<polygon fill="none" stroke="#000000" stroke-width="3" points="666.5,-1671.5 666.5,-2099.5 950.5,-2099.5 950.5,-1671.5 666.5,-1671.5"/>
</g>
<!-- action.fieldset_group -->
<g id="node3" class="node">
<title>action.fieldset_group</title>
<polygon fill="#efefef" stroke="transparent" points="43.5,-942.5 43.5,-977.5 350.5,-977.5 350.5,-942.5 43.5,-942.5"/>
<polygon fill="none" stroke="#000000" points="43.5,-942.5 43.5,-977.5 350.5,-977.5 350.5,-942.5 43.5,-942.5"/>
<text text-anchor="start" x="50.1901" y="-955.3" font-family="Arial Bold" font-size="18.00" fill="#000000">action.fieldset_group</text>
<text text-anchor="start" x="216.2419" y="-955.3" font-family="Arial" font-size="14.00" fill="#000000">    </text>
<text text-anchor="start" x="250.4467" y="-955.3" font-family="Arial" font-size="14.00" fill="#666666">[BASE TABLE]</text>
<polygon fill="none" stroke="#000000" points="43.5,-912.5 43.5,-942.5 350.5,-942.5 350.5,-912.5 43.5,-912.5"/>
<text text-anchor="start" x="50.5" y="-923.9" font-family="Arial" font-size="14.00" fill="#000000">id    </text>
<text text-anchor="start" x="95.594" y="-923.9" font-family="Arial" font-size="14.00" fill="#666666">[integer]</text>
<polygon fill="none" stroke="#000000" points="43.5,-882.5 43.5,-912.5 350.5,-912.5 350.5,-882.5 43.5,-882.5"/>
<text text-anchor="start" x="50.5" y="-893.9" font-family="Arial" font-size="14.00" fill="#000000">name    </text>
<text text-anchor="start" x="119.7132" y="-893.9" font-family="Arial" font-size="14.00" fill="#666666">[text]</text>
<polygon fill="none" stroke="#000000" points="43.5,-852.5 43.5,-882.5 350.5,-882.5 350.5,-852.5 43.5,-852.5"/>
<text text-anchor="start" x="50.5" y="-863.9" font-family="Arial" font-size="14.00" fill="#000000">create_time    </text>
<text text-anchor="start" x="157.8268" y="-863.9" font-family="Arial" font-size="14.00" fill="#666666">[timestamp with time zone]</text>
<polygon fill="none" stroke="#000000" points="43.5,-822.5 43.5,-852.5 350.5,-852.5 350.5,-822.5 43.5,-822.5"/>
<text text-anchor="start" x="50.5" y="-833.9" font-family="Arial" font-size="14.00" fill="#000000">complete_time    </text>
<text text-anchor="start" x="175.716" y="-833.9" font-family="Arial" font-size="14.00" fill="#666666">[timestamp with time zone]</text>
<polygon fill="none" stroke="#000000" points="43.5,-792.5 43.5,-822.5 350.5,-822.5 350.5,-792.5 43.5,-792.5"/>
<text text-anchor="start" x="50.5" y="-803.9" font-family="Arial" font-size="14.00" fill="#000000">container    </text>
<text text-anchor="start" x="142.2756" y="-803.9" font-family="Arial" font-size="14.00" fill="#666666">[integer]</text>
<polygon fill="none" stroke="#000000" points="43.5,-762.5 43.5,-792.5 350.5,-792.5 350.5,-762.5 43.5,-762.5"/>
<text text-anchor="start" x="50.5" y="-773.9" font-family="Arial" font-size="14.00" fill="#000000">container_type    </text>
<text text-anchor="start" x="176.514" y="-773.9" font-family="Arial" font-size="14.00" fill="#666666">[text]</text>
<polygon fill="none" stroke="#000000" points="43.5,-732.5 43.5,-762.5 350.5,-762.5 350.5,-732.5 43.5,-732.5"/>
<text text-anchor="start" x="50.5" y="-743.9" font-family="Arial" font-size="14.00" fill="#000000">can_rollback    </text>
<text text-anchor="start" x="163.2742" y="-743.9" font-family="Arial" font-size="14.00" fill="#666666">[boolean]</text>
<polygon fill="none" stroke="#000000" points="43.5,-702.5 43.5,-732.5 350.5,-732.5 350.5,-702.5 43.5,-702.5"/>
<text text-anchor="start" x="50.5" y="-713.9" font-family="Arial" font-size="14.00" fill="#000000">rollback_group    </text>
<text text-anchor="start" x="176.5" y="-713.9" font-family="Arial" font-size="14.00" fill="#666666">[integer]</text>
<polygon fill="none" stroke="#000000" points="43.5,-672.5 43.5,-702.5 350.5,-702.5 350.5,-672.5 43.5,-672.5"/>
<text text-anchor="start" x="50.5" y="-683.9" font-family="Arial" font-size="14.00" fill="#000000">rollback_time    </text>
<text text-anchor="start" x="167.1494" y="-683.9" font-family="Arial" font-size="14.00" fill="#666666">[timestamp with time zone]</text>
<polygon fill="none" stroke="#000000" points="43.5,-642.5 43.5,-672.5 350.5,-672.5 350.5,-642.5 43.5,-642.5"/>
<text text-anchor="start" x="50.5" y="-653.9" font-family="Arial" font-size="14.00" fill="#000000">creator    </text>
<text text-anchor="start" x="128.2644" y="-653.9" font-family="Arial" font-size="14.00" fill="#666666">[integer]</text>
<polygon fill="none" stroke="#000000" points="43.5,-612.5 43.5,-642.5 350.5,-642.5 350.5,-612.5 43.5,-612.5"/>
<text text-anchor="start" x="50.5" y="-623.9" font-family="Arial" font-size="14.00" fill="#000000">owning_lib    </text>
<text text-anchor="start" x="150.8268" y="-623.9" font-family="Arial" font-size="14.00" fill="#666666">[integer]</text>
</g>
<!-- action.fieldset&#45;&gt;action.fieldset_group -->
<g id="edge2" class="edge">
<title>action.fieldset:fieldset_group&#45;&gt;action.fieldset_group:id</title>
<path fill="none" stroke="#000000" d="M658.2103,-2017.3439C445.9269,-2010.8038 471.2443,-1799.8889 402.5,-1591 379.3836,-1520.7577 424.4483,-927.5 350.5,-927.5"/>
<polygon fill="#000000" stroke="#000000" points="658.5012,-2017.3482 668.4317,-2021.9995 663.5006,-2017.4241 668.5,-2017.5 668.5,-2017.5 668.5,-2017.5 663.5006,-2017.4241 668.5683,-2013.0005 658.5012,-2017.3482 658.5012,-2017.3482"/>
<text text-anchor="start" x="54.585" y="-2027.5" font-family="Arial" font-size="10.00" fill="#000000">FOREIGN KEY (fieldset_group) REFERENCES action.fieldset_group(id) ON DELETE CASCADE DEFERRABLE INITIALLY DEFERRED</text>
</g>
<!-- actor.usr -->
<g id="node4" class="node">
<title>actor.usr</title>
<polygon fill="#efefef" stroke="transparent" points="454.5,-1512.5 454.5,-1547.5 774.5,-1547.5 774.5,-1512.5 454.5,-1512.5"/>
<polygon fill="none" stroke="#000000" points="454.5,-1512.5 454.5,-1547.5 774.5,-1547.5 774.5,-1512.5 454.5,-1512.5"/>
<text text-anchor="start" x="515.7123" y="-1525.3" font-family="Arial Bold" font-size="18.00" fill="#000000">actor.usr</text>
<text text-anchor="start" x="585.7197" y="-1525.3" font-family="Arial" font-size="14.00" fill="#000000">    </text>
<text text-anchor="start" x="619.9245" y="-1525.3" font-family="Arial" font-size="14.00" fill="#666666">[BASE TABLE]</text>
<polygon fill="none" stroke="#000000" points="454.5,-1482.5 454.5,-1512.5 774.5,-1512.5 774.5,-1482.5 454.5,-1482.5"/>
<text text-anchor="start" x="461.5" y="-1493.9" font-family="Arial" font-size="14.00" fill="#000000">id    </text>
<text text-anchor="start" x="506.594" y="-1493.9" font-family="Arial" font-size="14.00" fill="#666666">[integer]</text>
<polygon fill="none" stroke="#000000" points="454.5,-1452.5 454.5,-1482.5 774.5,-1482.5 774.5,-1452.5 454.5,-1452.5"/>
<text text-anchor="start" x="461.5" y="-1463.9" font-family="Arial" font-size="14.00" fill="#000000">card    </text>
<text text-anchor="start" x="522.9306" y="-1463.9" font-family="Arial" font-size="14.00" fill="#666666">[integer]</text>
<polygon fill="none" stroke="#000000" points="454.5,-1422.5 454.5,-1452.5 774.5,-1452.5 774.5,-1422.5 454.5,-1422.5"/>
<text text-anchor="start" x="461.5" y="-1433.9" font-family="Arial" font-size="14.00" fill="#000000">profile    </text>
<text text-anchor="start" x="533.817" y="-1433.9" font-family="Arial" font-size="14.00" fill="#666666">[integer]</text>
<polygon fill="none" stroke="#000000" points="454.5,-1392.5 454.5,-1422.5 774.5,-1422.5 774.5,-1392.5 454.5,-1392.5"/>
<text text-anchor="start" x="461.5" y="-1403.9" font-family="Arial" font-size="14.00" fill="#000000">usrname    </text>
<text text-anchor="start" x="550.1564" y="-1403.9" font-family="Arial" font-size="14.00" fill="#666666">[text]</text>
<polygon fill="none" stroke="#000000" points="454.5,-1362.5 454.5,-1392.5 774.5,-1392.5 774.5,-1362.5 454.5,-1362.5"/>
<text text-anchor="start" x="461.5" y="-1373.9" font-family="Arial" font-size="14.00" fill="#000000">email    </text>
<text text-anchor="start" x="529.1438" y="-1373.9" font-family="Arial" font-size="14.00" fill="#666666">[text]</text>
<polygon fill="none" stroke="#000000" points="454.5,-1332.5 454.5,-1362.5 774.5,-1362.5 774.5,-1332.5 454.5,-1332.5"/>
<text text-anchor="start" x="461.5" y="-1343.9" font-family="Arial" font-size="14.00" fill="#000000">passwd    </text>
<text text-anchor="start" x="543.1592" y="-1343.9" font-family="Arial" font-size="14.00" fill="#666666">[text]</text>
<polygon fill="none" stroke="#000000" points="454.5,-1302.5 454.5,-1332.5 774.5,-1332.5 774.5,-1302.5 454.5,-1302.5"/>
<text text-anchor="start" x="461.5" y="-1313.9" font-family="Arial" font-size="14.00" fill="#000000">standing    </text>
<text text-anchor="start" x="548.615" y="-1313.9" font-family="Arial" font-size="14.00" fill="#666666">[integer]</text>
<polygon fill="none" stroke="#000000" points="454.5,-1272.5 454.5,-1302.5 774.5,-1302.5 774.5,-1272.5 454.5,-1272.5"/>
<text text-anchor="start" x="461.5" y="-1283.9" font-family="Arial" font-size="14.00" fill="#000000">ident_type    </text>
<text text-anchor="start" x="560.2882" y="-1283.9" font-family="Arial" font-size="14.00" fill="#666666">[integer]</text>
<polygon fill="none" stroke="#000000" points="454.5,-1242.5 454.5,-1272.5 774.5,-1272.5 774.5,-1242.5 454.5,-1242.5"/>
<text text-anchor="start" x="461.5" y="-1253.9" font-family="Arial" font-size="14.00" fill="#000000">ident_value    </text>
<text text-anchor="start" x="567.2868" y="-1253.9" font-family="Arial" font-size="14.00" fill="#666666">[text]</text>
<polygon fill="none" stroke="#000000" points="454.5,-1212.5 454.5,-1242.5 774.5,-1242.5 774.5,-1212.5 454.5,-1212.5"/>
<text text-anchor="start" x="461.5" y="-1223.9" font-family="Arial" font-size="14.00" fill="#000000">ident_type2    </text>
<text text-anchor="start" x="568.0708" y="-1223.9" font-family="Arial" font-size="14.00" fill="#666666">[integer]</text>
<polygon fill="none" stroke="#000000" points="454.5,-1182.5 454.5,-1212.5 774.5,-1212.5 774.5,-1182.5 454.5,-1182.5"/>
<text text-anchor="start" x="461.5" y="-1193.9" font-family="Arial" font-size="14.00" fill="#000000">ident_value2    </text>
<text text-anchor="start" x="575.0694" y="-1193.9" font-family="Arial" font-size="14.00" fill="#666666">[text]</text>
<polygon fill="none" stroke="#000000" points="454.5,-1152.5 454.5,-1182.5 774.5,-1182.5 774.5,-1152.5 454.5,-1152.5"/>
<text text-anchor="start" x="461.5" y="-1163.9" font-family="Arial" font-size="14.00" fill="#000000">net_access_level    </text>
<text text-anchor="start" x="603.0694" y="-1163.9" font-family="Arial" font-size="14.00" fill="#666666">[integer]</text>
<polygon fill="none" stroke="#000000" points="454.5,-1122.5 454.5,-1152.5 774.5,-1152.5 774.5,-1122.5 454.5,-1122.5"/>
<text text-anchor="start" x="461.5" y="-1133.9" font-family="Arial" font-size="14.00" fill="#000000">photo_url    </text>
<text text-anchor="start" x="554.0582" y="-1133.9" font-family="Arial" font-size="14.00" fill="#666666">[text]</text>
<polygon fill="none" stroke="#000000" points="454.5,-1092.5 454.5,-1122.5 774.5,-1122.5 774.5,-1092.5 454.5,-1092.5"/>
<text text-anchor="start" x="461.5" y="-1103.9" font-family="Arial" font-size="14.00" fill="#000000">prefix    </text>
<text text-anchor="start" x="529.9278" y="-1103.9" font-family="Arial" font-size="14.00" fill="#666666">[text]</text>
<polygon fill="none" stroke="#000000" points="454.5,-1062.5 454.5,-1092.5 774.5,-1092.5 774.5,-1062.5 454.5,-1062.5"/>
<text text-anchor="start" x="461.5" y="-1073.9" font-family="Arial" font-size="14.00" fill="#000000">first_given_name    </text>
<text text-anchor="start" x="602.2812" y="-1073.9" font-family="Arial" font-size="14.00" fill="#666666">[text]</text>
<polygon fill="none" stroke="#000000" points="454.5,-1032.5 454.5,-1062.5 774.5,-1062.5 774.5,-1032.5 454.5,-1032.5"/>
<text text-anchor="start" x="461.5" y="-1043.9" font-family="Arial" font-size="14.00" fill="#000000">second_given_name    </text>
<text text-anchor="start" x="624.8632" y="-1043.9" font-family="Arial" font-size="14.00" fill="#666666">[text]</text>
<polygon fill="none" stroke="#000000" points="454.5,-1002.5 454.5,-1032.5 774.5,-1032.5 774.5,-1002.5 454.5,-1002.5"/>
<text text-anchor="start" x="461.5" y="-1013.9" font-family="Arial" font-size="14.00" fill="#000000">family_name    </text>
<text text-anchor="start" x="575.0428" y="-1013.9" font-family="Arial" font-size="14.00" fill="#666666">[text]</text>
<polygon fill="none" stroke="#000000" points="454.5,-972.5 454.5,-1002.5 774.5,-1002.5 774.5,-972.5 454.5,-972.5"/>
<text text-anchor="start" x="461.5" y="-983.9" font-family="Arial" font-size="14.00" fill="#000000">suffix    </text>
<text text-anchor="start" x="528.3752" y="-983.9" font-family="Arial" font-size="14.00" fill="#666666">[text]</text>
<polygon fill="none" stroke="#000000" points="454.5,-942.5 454.5,-972.5 774.5,-972.5 774.5,-942.5 454.5,-942.5"/>
<text text-anchor="start" x="461.5" y="-953.9" font-family="Arial" font-size="14.00" fill="#000000">alias    </text>
<text text-anchor="start" x="524.4832" y="-953.9" font-family="Arial" font-size="14.00" fill="#666666">[text]</text>
<polygon fill="none" stroke="#000000" points="454.5,-912.5 454.5,-942.5 774.5,-942.5 774.5,-912.5 454.5,-912.5"/>
<text text-anchor="start" x="461.5" y="-923.9" font-family="Arial" font-size="14.00" fill="#000000">day_phone    </text>
<text text-anchor="start" x="564.9656" y="-923.9" font-family="Arial" font-size="14.00" fill="#666666">[text]</text>
<polygon fill="none" stroke="#000000" points="454.5,-882.5 454.5,-912.5 774.5,-912.5 774.5,-882.5 454.5,-882.5"/>
<text text-anchor="start" x="461.5" y="-893.9" font-family="Arial" font-size="14.00" fill="#000000">evening_phone    </text>
<text text-anchor="start" x="591.42" y="-893.9" font-family="Arial" font-size="14.00" fill="#666666">[text]</text>
<polygon fill="none" stroke="#000000" points="454.5,-852.5 454.5,-882.5 774.5,-882.5 774.5,-852.5 454.5,-852.5"/>
<text text-anchor="start" x="461.5" y="-863.9" font-family="Arial" font-size="14.00" fill="#000000">other_phone    </text>
<text text-anchor="start" x="574.2994" y="-863.9" font-family="Arial" font-size="14.00" fill="#666666">[text]</text>
<polygon fill="none" stroke="#000000" points="454.5,-822.5 454.5,-852.5 774.5,-852.5 774.5,-822.5 454.5,-822.5"/>
<text text-anchor="start" x="461.5" y="-833.9" font-family="Arial" font-size="14.00" fill="#000000">mailing_address    </text>
<text text-anchor="start" x="597.6066" y="-833.9" font-family="Arial" font-size="14.00" fill="#666666">[integer]</text>
<polygon fill="none" stroke="#000000" points="454.5,-792.5 454.5,-822.5 774.5,-822.5 774.5,-792.5 454.5,-792.5"/>
<text text-anchor="start" x="461.5" y="-803.9" font-family="Arial" font-size="14.00" fill="#000000">billing_address    </text>
<text text-anchor="start" x="589.0526" y="-803.9" font-family="Arial" font-size="14.00" fill="#666666">[integer]</text>
<polygon fill="none" stroke="#000000" points="454.5,-762.5 454.5,-792.5 774.5,-792.5 774.5,-762.5 454.5,-762.5"/>
<text text-anchor="start" x="461.5" y="-773.9" font-family="Arial" font-size="14.00" fill="#000000">home_ou    </text>
<text text-anchor="start" x="554.061" y="-773.9" font-family="Arial" font-size="14.00" fill="#666666">[integer]</text>
<polygon fill="none" stroke="#000000" points="454.5,-732.5 454.5,-762.5 774.5,-762.5 774.5,-732.5 454.5,-732.5"/>
<text text-anchor="start" x="461.5" y="-743.9" font-family="Arial" font-size="14.00" fill="#000000">dob    </text>
<text text-anchor="start" x="519.0526" y="-743.9" font-family="Arial" font-size="14.00" fill="#666666">[date]</text>
<polygon fill="none" stroke="#000000" points="454.5,-702.5 454.5,-732.5 774.5,-732.5 774.5,-702.5 454.5,-702.5"/>
<text text-anchor="start" x="461.5" y="-713.9" font-family="Arial" font-size="14.00" fill="#000000">active    </text>
<text text-anchor="start" x="532.2672" y="-713.9" font-family="Arial" font-size="14.00" fill="#666666">[boolean]</text>
<polygon fill="none" stroke="#000000" points="454.5,-672.5 454.5,-702.5 774.5,-702.5 774.5,-672.5 454.5,-672.5"/>
<text text-anchor="start" x="461.5" y="-683.9" font-family="Arial" font-size="14.00" fill="#000000">master_account    </text>
<text text-anchor="start" x="595.2854" y="-683.9" font-family="Arial" font-size="14.00" fill="#666666">[boolean]</text>
<polygon fill="none" stroke="#000000" points="454.5,-642.5 454.5,-672.5 774.5,-672.5 774.5,-642.5 454.5,-642.5"/>
<text text-anchor="start" x="461.5" y="-653.9" font-family="Arial" font-size="14.00" fill="#000000">super_user    </text>
<text text-anchor="start" x="565.7216" y="-653.9" font-family="Arial" font-size="14.00" fill="#666666">[boolean]</text>
<polygon fill="none" stroke="#000000" points="454.5,-612.5 454.5,-642.5 774.5,-642.5 774.5,-612.5 454.5,-612.5"/>
<text text-anchor="start" x="461.5" y="-623.9" font-family="Arial" font-size="14.00" fill="#000000">barred    </text>
<text text-anchor="start" x="536.1564" y="-623.9" font-family="Arial" font-size="14.00" fill="#666666">[boolean]</text>
<polygon fill="none" stroke="#000000" points="454.5,-582.5 454.5,-612.5 774.5,-612.5 774.5,-582.5 454.5,-582.5"/>
<text text-anchor="start" x="461.5" y="-593.9" font-family="Arial" font-size="14.00" fill="#000000">deleted    </text>
<text text-anchor="start" x="541.615" y="-593.9" font-family="Arial" font-size="14.00" fill="#666666">[boolean]</text>
<polygon fill="none" stroke="#000000" points="454.5,-552.5 454.5,-582.5 774.5,-582.5 774.5,-552.5 454.5,-552.5"/>
<text text-anchor="start" x="461.5" y="-563.9" font-family="Arial" font-size="14.00" fill="#000000">juvenile    </text>
<text text-anchor="start" x="543.155" y="-563.9" font-family="Arial" font-size="14.00" fill="#666666">[boolean]</text>
<polygon fill="none" stroke="#000000" points="454.5,-522.5 454.5,-552.5 774.5,-552.5 774.5,-522.5 454.5,-522.5"/>
<text text-anchor="start" x="461.5" y="-533.9" font-family="Arial" font-size="14.00" fill="#000000">usrgroup    </text>
<text text-anchor="start" x="550.939" y="-533.9" font-family="Arial" font-size="14.00" fill="#666666">[integer]</text>
<polygon fill="none" stroke="#000000" points="454.5,-492.5 454.5,-522.5 774.5,-522.5 774.5,-492.5 454.5,-492.5"/>
<text text-anchor="start" x="461.5" y="-503.9" font-family="Arial" font-size="14.00" fill="#000000">claims_returned_count    </text>
<text text-anchor="start" x="637.2896" y="-503.9" font-family="Arial" font-size="14.00" fill="#666666">[integer]</text>
<polygon fill="none" stroke="#000000" points="454.5,-462.5 454.5,-492.5 774.5,-492.5 774.5,-462.5 454.5,-462.5"/>
<text text-anchor="start" x="461.5" y="-473.9" font-family="Arial" font-size="14.00" fill="#000000">credit_forward_balance    </text>
<text text-anchor="start" x="641.1788" y="-473.9" font-family="Arial" font-size="14.00" fill="#666666">[numeric(6,2)]</text>
<polygon fill="none" stroke="#000000" points="454.5,-432.5 454.5,-462.5 774.5,-462.5 774.5,-432.5 454.5,-432.5"/>
<text text-anchor="start" x="461.5" y="-443.9" font-family="Arial" font-size="14.00" fill="#000000">last_xact_id    </text>
<text text-anchor="start" x="569.6122" y="-443.9" font-family="Arial" font-size="14.00" fill="#666666">[text]</text>
<polygon fill="none" stroke="#000000" points="454.5,-402.5 454.5,-432.5 774.5,-432.5 774.5,-402.5 454.5,-402.5"/>
<text text-anchor="start" x="461.5" y="-413.9" font-family="Arial" font-size="14.00" fill="#000000">alert_message    </text>
<text text-anchor="start" x="587.5014" y="-413.9" font-family="Arial" font-size="14.00" fill="#666666">[text]</text>
<polygon fill="none" stroke="#000000" points="454.5,-372.5 454.5,-402.5 774.5,-402.5 774.5,-372.5 454.5,-372.5"/>
<text text-anchor="start" x="461.5" y="-383.9" font-family="Arial" font-size="14.00" fill="#000000">create_date    </text>
<text text-anchor="start" x="569.6248" y="-383.9" font-family="Arial" font-size="14.00" fill="#666666">[timestamp with time zone]</text>
<polygon fill="none" stroke="#000000" points="454.5,-342.5 454.5,-372.5 774.5,-372.5 774.5,-342.5 454.5,-342.5"/>
<text text-anchor="start" x="461.5" y="-353.9" font-family="Arial" font-size="14.00" fill="#000000">expire_date    </text>
<text text-anchor="start" x="568.8408" y="-353.9" font-family="Arial" font-size="14.00" fill="#666666">[timestamp with time zone]</text>
<polygon fill="none" stroke="#000000" points="454.5,-312.5 454.5,-342.5 774.5,-342.5 774.5,-312.5 454.5,-312.5"/>
<text text-anchor="start" x="461.5" y="-323.9" font-family="Arial" font-size="14.00" fill="#000000">claims_never_checked_out_count    </text>
<text text-anchor="start" x="707.3246" y="-323.9" font-family="Arial" font-size="14.00" fill="#666666">[integer]</text>
<polygon fill="none" stroke="#000000" points="454.5,-282.5 454.5,-312.5 774.5,-312.5 774.5,-282.5 454.5,-282.5"/>
<text text-anchor="start" x="461.2609" y="-293.9" font-family="Arial" font-size="14.00" fill="#000000">last_update_time    </text>
<text text-anchor="start" x="602.0547" y="-293.9" font-family="Arial" font-size="14.00" fill="#666666">[timestamp with time zone]</text>
<polygon fill="none" stroke="#000000" points="454.5,-252.5 454.5,-282.5 774.5,-282.5 774.5,-252.5 454.5,-252.5"/>
<text text-anchor="start" x="461.5" y="-263.9" font-family="Arial" font-size="14.00" fill="#000000">pref_prefix    </text>
<text text-anchor="start" x="561.8268" y="-263.9" font-family="Arial" font-size="14.00" fill="#666666">[text]</text>
<polygon fill="none" stroke="#000000" points="454.5,-222.5 454.5,-252.5 774.5,-252.5 774.5,-222.5 454.5,-222.5"/>
<text text-anchor="start" x="461.5" y="-233.9" font-family="Arial" font-size="14.00" fill="#000000">pref_first_given_name    </text>
<text text-anchor="start" x="634.1802" y="-233.9" font-family="Arial" font-size="14.00" fill="#666666">[text]</text>
<polygon fill="none" stroke="#000000" points="454.5,-192.5 454.5,-222.5 774.5,-222.5 774.5,-192.5 454.5,-192.5"/>
<text text-anchor="start" x="461.5" y="-203.9" font-family="Arial" font-size="14.00" fill="#000000">pref_second_given_name    </text>
<text text-anchor="start" x="656.7622" y="-203.9" font-family="Arial" font-size="14.00" fill="#666666">[text]</text>
<polygon fill="none" stroke="#000000" points="454.5,-162.5 454.5,-192.5 774.5,-192.5 774.5,-162.5 454.5,-162.5"/>
<text text-anchor="start" x="461.5" y="-173.9" font-family="Arial" font-size="14.00" fill="#000000">pref_family_name    </text>
<text text-anchor="start" x="606.9418" y="-173.9" font-family="Arial" font-size="14.00" fill="#666666">[text]</text>
<polygon fill="none" stroke="#000000" points="454.5,-132.5 454.5,-162.5 774.5,-162.5 774.5,-132.5 454.5,-132.5"/>
<text text-anchor="start" x="461.5" y="-143.9" font-family="Arial" font-size="14.00" fill="#000000">pref_suffix    </text>
<text text-anchor="start" x="560.2742" y="-143.9" font-family="Arial" font-size="14.00" fill="#666666">[text]</text>
<polygon fill="none" stroke="#000000" points="454.5,-102.5 454.5,-132.5 774.5,-132.5 774.5,-102.5 454.5,-102.5"/>
<text text-anchor="start" x="461.5" y="-113.9" font-family="Arial" font-size="14.00" fill="#000000">name_keywords    </text>
<text text-anchor="start" x="597.6108" y="-113.9" font-family="Arial" font-size="14.00" fill="#666666">[text]</text>
<polygon fill="none" stroke="#000000" points="454.5,-72.5 454.5,-102.5 774.5,-102.5 774.5,-72.5 454.5,-72.5"/>
<text text-anchor="start" x="461.5" y="-83.9" font-family="Arial" font-size="14.00" fill="#000000">name_kw_tsvector    </text>
<text text-anchor="start" x="612.392" y="-83.9" font-family="Arial" font-size="14.00" fill="#666666">[tsvector]</text>
<polygon fill="none" stroke="#000000" points="454.5,-42.5 454.5,-72.5 774.5,-72.5 774.5,-42.5 454.5,-42.5"/>
<text text-anchor="start" x="461.5" y="-53.9" font-family="Arial" font-size="14.00" fill="#000000">guardian    </text>
<text text-anchor="start" x="550.1676" y="-53.9" font-family="Arial" font-size="14.00" fill="#666666">[text]</text>
</g>
<!-- action.fieldset&#45;&gt;actor.usr -->
<g id="edge3" class="edge">
<title>action.fieldset:owner&#45;&gt;actor.usr:id</title>
<path fill="none" stroke="#000000" d="M658.4857,-1987.1844C511.1648,-1977.6523 577.1888,-1754.445 668.5,-1627 697.4775,-1586.5555 745.5225,-1631.4445 774.5,-1591 798.7026,-1557.2199 816.0556,-1497.5 774.5,-1497.5"/>
<polygon fill="#000000" stroke="#000000" points="658.505,-1987.1849 668.3582,-1991.9978 663.5025,-1987.3425 668.5,-1987.5 668.5,-1987.5 668.5,-1987.5 663.5025,-1987.3425 668.6418,-1983.0022 658.505,-1987.1849 658.505,-1987.1849"/>
<text text-anchor="start" x="253.331" y="-1997.5" font-family="Arial" font-size="10.00" fill="#000000">FOREIGN KEY (owner) REFERENCES actor.usr(id) DEFERRABLE INITIALLY DEFERRED</text>
</g>
<!-- actor.org_unit -->
<g id="node5" class="node">
<title>actor.org_unit</title>
<polygon fill="#efefef" stroke="transparent" points="879.5,-972.5 879.5,-1007.5 1130.5,-1007.5 1130.5,-972.5 879.5,-972.5"/>
<polygon fill="none" stroke="#000000" points="879.5,-972.5 879.5,-1007.5 1130.5,-1007.5 1130.5,-972.5 879.5,-972.5"/>
<text text-anchor="start" x="886.2017" y="-985.3" font-family="Arial Bold" font-size="18.00" fill="#000000">actor.org_unit</text>
<text text-anchor="start" x="996.2303" y="-985.3" font-family="Arial" font-size="14.00" fill="#000000">    </text>
<text text-anchor="start" x="1030.4351" y="-985.3" font-family="Arial" font-size="14.00" fill="#666666">[BASE TABLE]</text>
<polygon fill="none" stroke="#000000" points="879.5,-942.5 879.5,-972.5 1130.5,-972.5 1130.5,-942.5 879.5,-942.5"/>
<text text-anchor="start" x="886.5" y="-953.9" font-family="Arial" font-size="14.00" fill="#000000">id    </text>
<text text-anchor="start" x="931.594" y="-953.9" font-family="Arial" font-size="14.00" fill="#666666">[integer]</text>
<polygon fill="none" stroke="#000000" points="879.5,-912.5 879.5,-942.5 1130.5,-942.5 1130.5,-912.5 879.5,-912.5"/>
<text text-anchor="start" x="886.5" y="-923.9" font-family="Arial" font-size="14.00" fill="#000000">parent_ou    </text>
<text text-anchor="start" x="983.7342" y="-923.9" font-family="Arial" font-size="14.00" fill="#666666">[integer]</text>
<polygon fill="none" stroke="#000000" points="879.5,-882.5 879.5,-912.5 1130.5,-912.5 1130.5,-882.5 879.5,-882.5"/>
<text text-anchor="start" x="886.5" y="-893.9" font-family="Arial" font-size="14.00" fill="#000000">ou_type    </text>
<text text-anchor="start" x="970.5084" y="-893.9" font-family="Arial" font-size="14.00" fill="#666666">[integer]</text>
<polygon fill="none" stroke="#000000" points="879.5,-852.5 879.5,-882.5 1130.5,-882.5 1130.5,-852.5 879.5,-852.5"/>
<text text-anchor="start" x="886.5" y="-863.9" font-family="Arial" font-size="14.00" fill="#000000">ill_address    </text>
<text text-anchor="start" x="987.5982" y="-863.9" font-family="Arial" font-size="14.00" fill="#666666">[integer]</text>
<polygon fill="none" stroke="#000000" points="879.5,-822.5 879.5,-852.5 1130.5,-852.5 1130.5,-822.5 879.5,-822.5"/>
<text text-anchor="start" x="886.5" y="-833.9" font-family="Arial" font-size="14.00" fill="#000000">holds_address    </text>
<text text-anchor="start" x="1011.7328" y="-833.9" font-family="Arial" font-size="14.00" fill="#666666">[integer]</text>
<polygon fill="none" stroke="#000000" points="879.5,-792.5 879.5,-822.5 1130.5,-822.5 1130.5,-792.5 879.5,-792.5"/>
<text text-anchor="start" x="886.5" y="-803.9" font-family="Arial" font-size="14.00" fill="#000000">mailing_address    </text>
<text text-anchor="start" x="1022.6066" y="-803.9" font-family="Arial" font-size="14.00" fill="#666666">[integer]</text>
<polygon fill="none" stroke="#000000" points="879.5,-762.5 879.5,-792.5 1130.5,-792.5 1130.5,-762.5 879.5,-762.5"/>
<text text-anchor="start" x="886.5" y="-773.9" font-family="Arial" font-size="14.00" fill="#000000">billing_address    </text>
<text text-anchor="start" x="1014.0526" y="-773.9" font-family="Arial" font-size="14.00" fill="#666666">[integer]</text>
<polygon fill="none" stroke="#000000" points="879.5,-732.5 879.5,-762.5 1130.5,-762.5 1130.5,-732.5 879.5,-732.5"/>
<text text-anchor="start" x="886.5" y="-743.9" font-family="Arial" font-size="14.00" fill="#000000">shortname    </text>
<text text-anchor="start" x="986.8296" y="-743.9" font-family="Arial" font-size="14.00" fill="#666666">[text]</text>
<polygon fill="none" stroke="#000000" points="879.5,-702.5 879.5,-732.5 1130.5,-732.5 1130.5,-702.5 879.5,-702.5"/>
<text text-anchor="start" x="886.5" y="-713.9" font-family="Arial" font-size="14.00" fill="#000000">name    </text>
<text text-anchor="start" x="955.7132" y="-713.9" font-family="Arial" font-size="14.00" fill="#666666">[text]</text>
<polygon fill="none" stroke="#000000" points="879.5,-672.5 879.5,-702.5 1130.5,-702.5 1130.5,-672.5 879.5,-672.5"/>
<text text-anchor="start" x="886.5" y="-683.9" font-family="Arial" font-size="14.00" fill="#000000">email    </text>
<text text-anchor="start" x="954.1438" y="-683.9" font-family="Arial" font-size="14.00" fill="#666666">[text]</text>
<polygon fill="none" stroke="#000000" points="879.5,-642.5 879.5,-672.5 1130.5,-672.5 1130.5,-642.5 879.5,-642.5"/>
<text text-anchor="start" x="886.5" y="-653.9" font-family="Arial" font-size="14.00" fill="#000000">phone    </text>
<text text-anchor="start" x="959.6178" y="-653.9" font-family="Arial" font-size="14.00" fill="#666666">[text]</text>
<polygon fill="none" stroke="#000000" points="879.5,-612.5 879.5,-642.5 1130.5,-642.5 1130.5,-612.5 879.5,-612.5"/>
<text text-anchor="start" x="886.5" y="-623.9" font-family="Arial" font-size="14.00" fill="#000000">opac_visible    </text>
<text text-anchor="start" x="997.7202" y="-623.9" font-family="Arial" font-size="14.00" fill="#666666">[boolean]</text>
<polygon fill="none" stroke="#000000" points="879.5,-582.5 879.5,-612.5 1130.5,-612.5 1130.5,-582.5 879.5,-582.5"/>
<text text-anchor="start" x="886.5" y="-593.9" font-family="Arial" font-size="14.00" fill="#000000">fiscal_calendar    </text>
<text text-anchor="start" x="1014.054" y="-593.9" font-family="Arial" font-size="14.00" fill="#666666">[integer]</text>
</g>
<!-- action.fieldset&#45;&gt;actor.org_unit -->
<g id="edge4" class="edge">
<title>action.fieldset:owning_lib&#45;&gt;actor.org_unit:id</title>
<path fill="none" stroke="#000000" d="M959.755,-1957.1744C1089.727,-1948.5437 958.1599,-1770.0408 949.5,-1627 944.9801,-1552.3423 804.7056,-957.5 879.5,-957.5"/>
<polygon fill="#000000" stroke="#000000" points="959.495,-1957.1826 949.3572,-1953.0023 954.4975,-1957.3413 949.5,-1957.5 949.5,-1957.5 949.5,-1957.5 954.4975,-1957.3413 949.6428,-1961.9977 959.495,-1957.1826 959.495,-1957.1826"/>
<text text-anchor="start" x="956.2115" y="-1967.5" font-family="Arial" font-size="10.00" fill="#000000">FOREIGN KEY (owning_lib) REFERENCES actor.org_unit(id) DEFERRABLE INITIALLY DEFERRED</text>
</g>
<!-- query.stored_query -->
<g id="node6" class="node">
<title>query.stored_query</title>
<polygon fill="#efefef" stroke="transparent" points="1234.5,-912.5 1234.5,-947.5 1530.5,-947.5 1530.5,-912.5 1234.5,-912.5"/>
<polygon fill="none" stroke="#000000" points="1234.5,-912.5 1234.5,-947.5 1530.5,-947.5 1530.5,-912.5 1234.5,-912.5"/>
<text text-anchor="start" x="1241.1945" y="-925.3" font-family="Arial Bold" font-size="18.00" fill="#000000">query.stored_query</text>
<text text-anchor="start" x="1396.2375" y="-925.3" font-family="Arial" font-size="14.00" fill="#000000">    </text>
<text text-anchor="start" x="1430.4423" y="-925.3" font-family="Arial" font-size="14.00" fill="#666666">[BASE TABLE]</text>
<polygon fill="none" stroke="#000000" points="1234.5,-882.5 1234.5,-912.5 1530.5,-912.5 1530.5,-882.5 1234.5,-882.5"/>
<text text-anchor="start" x="1241.5" y="-893.9" font-family="Arial" font-size="14.00" fill="#000000">id    </text>
<text text-anchor="start" x="1286.594" y="-893.9" font-family="Arial" font-size="14.00" fill="#666666">[integer]</text>
<polygon fill="none" stroke="#000000" points="1234.5,-852.5 1234.5,-882.5 1530.5,-882.5 1530.5,-852.5 1234.5,-852.5"/>
<text text-anchor="start" x="1241.5" y="-863.9" font-family="Arial" font-size="14.00" fill="#000000">type    </text>
<text text-anchor="start" x="1302.1606" y="-863.9" font-family="Arial" font-size="14.00" fill="#666666">[text]</text>
<polygon fill="none" stroke="#000000" points="1234.5,-822.5 1234.5,-852.5 1530.5,-852.5 1530.5,-822.5 1234.5,-822.5"/>
<text text-anchor="start" x="1241.5" y="-833.9" font-family="Arial" font-size="14.00" fill="#000000">use_all    </text>
<text text-anchor="start" x="1320.0484" y="-833.9" font-family="Arial" font-size="14.00" fill="#666666">[boolean]</text>
<polygon fill="none" stroke="#000000" points="1234.5,-792.5 1234.5,-822.5 1530.5,-822.5 1530.5,-792.5 1234.5,-792.5"/>
<text text-anchor="start" x="1241.5" y="-803.9" font-family="Arial" font-size="14.00" fill="#000000">use_distinct    </text>
<text text-anchor="start" x="1349.6122" y="-803.9" font-family="Arial" font-size="14.00" fill="#666666">[boolean]</text>
<polygon fill="none" stroke="#000000" points="1234.5,-762.5 1234.5,-792.5 1530.5,-792.5 1530.5,-762.5 1234.5,-762.5"/>
<text text-anchor="start" x="1241.5" y="-773.9" font-family="Arial" font-size="14.00" fill="#000000">from_clause    </text>
<text text-anchor="start" x="1351.9362" y="-773.9" font-family="Arial" font-size="14.00" fill="#666666">[integer]</text>
<polygon fill="none" stroke="#000000" points="1234.5,-732.5 1234.5,-762.5 1530.5,-762.5 1530.5,-732.5 1234.5,-732.5"/>
<text text-anchor="start" x="1241.5" y="-743.9" font-family="Arial" font-size="14.00" fill="#000000">where_clause    </text>
<text text-anchor="start" x="1362.0568" y="-743.9" font-family="Arial" font-size="14.00" fill="#666666">[integer]</text>
<polygon fill="none" stroke="#000000" points="1234.5,-702.5 1234.5,-732.5 1530.5,-732.5 1530.5,-702.5 1234.5,-702.5"/>
<text text-anchor="start" x="1241.5" y="-713.9" font-family="Arial" font-size="14.00" fill="#000000">having_clause    </text>
<text text-anchor="start" x="1365.1788" y="-713.9" font-family="Arial" font-size="14.00" fill="#666666">[integer]</text>
<polygon fill="none" stroke="#000000" points="1234.5,-672.5 1234.5,-702.5 1530.5,-702.5 1530.5,-672.5 1234.5,-672.5"/>
<text text-anchor="start" x="1241.5" y="-683.9" font-family="Arial" font-size="14.00" fill="#000000">limit_count    </text>
<text text-anchor="start" x="1342.5968" y="-683.9" font-family="Arial" font-size="14.00" fill="#666666">[integer]</text>
<polygon fill="none" stroke="#000000" points="1234.5,-642.5 1234.5,-672.5 1530.5,-672.5 1530.5,-642.5 1234.5,-642.5"/>
<text text-anchor="start" x="1241.5" y="-653.9" font-family="Arial" font-size="14.00" fill="#000000">offset_count    </text>
<text text-anchor="start" x="1351.9628" y="-653.9" font-family="Arial" font-size="14.00" fill="#666666">[integer]</text>
</g>
<!-- action.fieldset&#45;&gt;query.stored_query -->
<g id="edge5" class="edge">
<title>action.fieldset:stored_query&#45;&gt;query.stored_query:id</title>
<path fill="none" stroke="#000000" d="M959.6868,-1717.4279C1070.3427,-1715.8239 1120.3796,-1687.0422 1182.5,-1591 1224.4663,-1526.1173 1157.2281,-897.5 1234.5,-897.5"/>
<polygon fill="#000000" stroke="#000000" points="959.4997,-1717.4292 949.4681,-1713.0001 954.4999,-1717.4646 949.5,-1717.5 949.5,-1717.5 949.5,-1717.5 954.4999,-1717.4646 949.5319,-1721.9999 959.4997,-1717.4292 959.4997,-1717.4292"/>
<text text-anchor="start" x="956.1475" y="-1727.5" font-family="Arial" font-size="10.00" fill="#000000">FOREIGN KEY (stored_query) REFERENCES query.stored_query(id) DEFERRABLE INITIALLY DEFERRED</text>
</g>
<!-- action.fieldset_col_val -->
<g id="node2" class="node">
<title>action.fieldset_col_val</title>
<polygon fill="#efefef" stroke="transparent" points="650.5,-2342.5 650.5,-2377.5 967.5,-2377.5 967.5,-2342.5 650.5,-2342.5"/>
<polygon fill="none" stroke="#000000" points="650.5,-2342.5 650.5,-2377.5 967.5,-2377.5 967.5,-2342.5 650.5,-2342.5"/>
<text text-anchor="start" x="657.1951" y="-2355.3" font-family="Arial Bold" font-size="18.00" fill="#000000">action.fieldset_col_val</text>
<text text-anchor="start" x="833.2369" y="-2355.3" font-family="Arial" font-size="14.00" fill="#000000">    </text>
<text text-anchor="start" x="867.4417" y="-2355.3" font-family="Arial" font-size="14.00" fill="#666666">[BASE TABLE]</text>
<polygon fill="none" stroke="#000000" points="650.5,-2312.5 650.5,-2342.5 967.5,-2342.5 967.5,-2312.5 650.5,-2312.5"/>
<text text-anchor="start" x="657.5" y="-2323.9" font-family="Arial" font-size="14.00" fill="#000000">id    </text>
<text text-anchor="start" x="702.594" y="-2323.9" font-family="Arial" font-size="14.00" fill="#666666">[integer]</text>
<polygon fill="none" stroke="#000000" points="650.5,-2282.5 650.5,-2312.5 967.5,-2312.5 967.5,-2282.5 650.5,-2282.5"/>
<text text-anchor="start" x="657.5" y="-2293.9" font-family="Arial" font-size="14.00" fill="#000000">fieldset    </text>
<text text-anchor="start" x="736.047" y="-2293.9" font-family="Arial" font-size="14.00" fill="#666666">[integer]</text>
<polygon fill="none" stroke="#000000" points="650.5,-2252.5 650.5,-2282.5 967.5,-2282.5 967.5,-2252.5 650.5,-2252.5"/>
<text text-anchor="start" x="657.5" y="-2263.9" font-family="Arial" font-size="14.00" fill="#000000">col    </text>
<text text-anchor="start" x="709.594" y="-2263.9" font-family="Arial" font-size="14.00" fill="#666666">[text]</text>
<polygon fill="none" stroke="#000000" points="650.5,-2222.5 650.5,-2252.5 967.5,-2252.5 967.5,-2222.5 650.5,-2222.5"/>
<text text-anchor="start" x="657.5" y="-2233.9" font-family="Arial" font-size="14.00" fill="#000000">val    </text>
<text text-anchor="start" x="709.594" y="-2233.9" font-family="Arial" font-size="14.00" fill="#666666">[text]</text>
</g>
<!-- action.fieldset_col_val&#45;&gt;action.fieldset -->
<g id="edge1" class="edge">
<title>action.fieldset_col_val:fieldset&#45;&gt;action.fieldset:id</title>
<path fill="none" stroke="#000000" d="M640.4344,-2296.7828C540.3175,-2282.1191 560.5825,-2047.5 668.5,-2047.5"/>
<polygon fill="#000000" stroke="#000000" points="640.5253,-2296.7892 650.1802,-2301.9886 645.5126,-2297.1446 650.5,-2297.5 650.5,-2297.5 650.5,-2297.5 645.5126,-2297.1446 650.8198,-2293.0114 640.5253,-2296.7892 640.5253,-2296.7892"/>
<text text-anchor="start" x="98.709" y="-2307.5" font-family="Arial" font-size="10.00" fill="#000000">FOREIGN KEY (fieldset) REFERENCES action.fieldset(id) ON DELETE CASCADE DEFERRABLE INITIALLY DEFERRED</text>
</g>
</g>
</svg>
