<?xml version="1.0" encoding="UTF-8" standalone="no"?>
<!DOCTYPE svg PUBLIC "-//W3C//DTD SVG 1.1//EN"
 "http://www.w3.org/Graphics/SVG/1.1/DTD/svg11.dtd">
<!-- Generated by graphviz version 2.40.1 (20161225.0304)
 -->
<!-- Title: action.usr_circ_history Pages: 1 -->
<svg width="1328pt" height="1972pt"
 viewBox="0.00 0.00 1328.00 1972.00" xmlns="http://www.w3.org/2000/svg" xmlns:xlink="http://www.w3.org/1999/xlink">
<g id="graph0" class="graph" transform="scale(1 1) rotate(0) translate(4 1968)">
<title>action.usr_circ_history</title>
<polygon fill="#ffffff" stroke="transparent" points="-4,4 -4,-1968 1324,-1968 1324,4 -4,4"/>
<!-- action.usr_circ_history -->
<g id="node1" class="node">
<title>action.usr_circ_history</title>
<polygon fill="#efefef" stroke="transparent" points="409,-1882.5 409,-1917.5 729,-1917.5 729,-1882.5 409,-1882.5"/>
<polygon fill="none" stroke="#000000" points="409,-1882.5 409,-1917.5 729,-1917.5 729,-1882.5 409,-1882.5"/>
<text text-anchor="start" x="415.7083" y="-1895.3" font-family="Arial Bold" font-size="18.00" fill="#000000">action.usr_circ_history</text>
<text text-anchor="start" x="594.7237" y="-1895.3" font-family="Arial" font-size="14.00" fill="#000000">    </text>
<text text-anchor="start" x="628.9285" y="-1895.3" font-family="Arial" font-size="14.00" fill="#666666">[BASE TABLE]</text>
<polygon fill="none" stroke="#000000" points="409,-1852.5 409,-1882.5 729,-1882.5 729,-1852.5 409,-1852.5"/>
<text text-anchor="start" x="416" y="-1863.9" font-family="Arial" font-size="14.00" fill="#000000">id </text>
<text text-anchor="start" x="430.7798" y="-1863.9" font-family="Arial" font-size="14.00" fill="#666666">[bigint]</text>
<polygon fill="none" stroke="#000000" points="409,-1822.5 409,-1852.5 729,-1852.5 729,-1822.5 409,-1822.5"/>
<text text-anchor="start" x="416" y="-1833.9" font-family="Arial" font-size="14.00" fill="#000000">usr </text>
<text text-anchor="start" x="439.3338" y="-1833.9" font-family="Arial" font-size="14.00" fill="#666666">[integer]</text>
<polygon fill="none" stroke="#000000" points="409,-1792.5 409,-1822.5 729,-1822.5 729,-1792.5 409,-1792.5"/>
<text text-anchor="start" x="416" y="-1803.9" font-family="Arial" font-size="14.00" fill="#000000">xact_start </text>
<text text-anchor="start" x="480.5708" y="-1803.9" font-family="Arial" font-size="14.00" fill="#666666">[timestamp with time zone]</text>
<polygon fill="none" stroke="#000000" points="409,-1762.5 409,-1792.5 729,-1792.5 729,-1762.5 409,-1762.5"/>
<text text-anchor="start" x="416" y="-1773.9" font-family="Arial" font-size="14.00" fill="#000000">target_copy </text>
<text text-anchor="start" x="493.028" y="-1773.9" font-family="Arial" font-size="14.00" fill="#666666">[bigint]</text>
<polygon fill="none" stroke="#000000" points="409,-1732.5 409,-1762.5 729,-1762.5 729,-1732.5 409,-1732.5"/>
<text text-anchor="start" x="416" y="-1743.9" font-family="Arial" font-size="14.00" fill="#000000">due_date </text>
<text text-anchor="start" x="478.2594" y="-1743.9" font-family="Arial" font-size="14.00" fill="#666666">[timestamp with time zone]</text>
<polygon fill="none" stroke="#000000" points="409,-1702.5 409,-1732.5 729,-1732.5 729,-1702.5 409,-1702.5"/>
<text text-anchor="start" x="416" y="-1713.9" font-family="Arial" font-size="14.00" fill="#000000">checkin_time </text>
<text text-anchor="start" x="501.568" y="-1713.9" font-family="Arial" font-size="14.00" fill="#666666">[timestamp with time zone]</text>
<polygon fill="none" stroke="#000000" points="409,-1672.5 409,-1702.5 729,-1702.5 729,-1672.5 409,-1672.5"/>
<text text-anchor="start" x="416" y="-1683.9" font-family="Arial" font-size="14.00" fill="#000000">source_circ </text>
<text text-anchor="start" x="491.4488" y="-1683.9" font-family="Arial" font-size="14.00" fill="#666666">[bigint]</text>
<polygon fill="none" stroke="#000000" stroke-width="3" points="407.5,-1671.5 407.5,-1919.5 730.5,-1919.5 730.5,-1671.5 407.5,-1671.5"/>
</g>
<!-- actor.usr -->
<g id="node2" class="node">
<title>actor.usr</title>
<polygon fill="#efefef" stroke="transparent" points="194,-1512.5 194,-1547.5 514,-1547.5 514,-1512.5 194,-1512.5"/>
<polygon fill="none" stroke="#000000" points="194,-1512.5 194,-1547.5 514,-1547.5 514,-1512.5 194,-1512.5"/>
<text text-anchor="start" x="255.2123" y="-1525.3" font-family="Arial Bold" font-size="18.00" fill="#000000">actor.usr</text>
<text text-anchor="start" x="325.2197" y="-1525.3" font-family="Arial" font-size="14.00" fill="#000000">    </text>
<text text-anchor="start" x="359.4245" y="-1525.3" font-family="Arial" font-size="14.00" fill="#666666">[BASE TABLE]</text>
<polygon fill="none" stroke="#000000" points="194,-1482.5 194,-1512.5 514,-1512.5 514,-1482.5 194,-1482.5"/>
<text text-anchor="start" x="201" y="-1493.9" font-family="Arial" font-size="14.00" fill="#000000">id    </text>
<text text-anchor="start" x="246.094" y="-1493.9" font-family="Arial" font-size="14.00" fill="#666666">[integer]</text>
<polygon fill="none" stroke="#000000" points="194,-1452.5 194,-1482.5 514,-1482.5 514,-1452.5 194,-1452.5"/>
<text text-anchor="start" x="201" y="-1463.9" font-family="Arial" font-size="14.00" fill="#000000">card    </text>
<text text-anchor="start" x="262.4306" y="-1463.9" font-family="Arial" font-size="14.00" fill="#666666">[integer]</text>
<polygon fill="none" stroke="#000000" points="194,-1422.5 194,-1452.5 514,-1452.5 514,-1422.5 194,-1422.5"/>
<text text-anchor="start" x="201" y="-1433.9" font-family="Arial" font-size="14.00" fill="#000000">profile    </text>
<text text-anchor="start" x="273.317" y="-1433.9" font-family="Arial" font-size="14.00" fill="#666666">[integer]</text>
<polygon fill="none" stroke="#000000" points="194,-1392.5 194,-1422.5 514,-1422.5 514,-1392.5 194,-1392.5"/>
<text text-anchor="start" x="201" y="-1403.9" font-family="Arial" font-size="14.00" fill="#000000">usrname    </text>
<text text-anchor="start" x="289.6564" y="-1403.9" font-family="Arial" font-size="14.00" fill="#666666">[text]</text>
<polygon fill="none" stroke="#000000" points="194,-1362.5 194,-1392.5 514,-1392.5 514,-1362.5 194,-1362.5"/>
<text text-anchor="start" x="201" y="-1373.9" font-family="Arial" font-size="14.00" fill="#000000">email    </text>
<text text-anchor="start" x="268.6438" y="-1373.9" font-family="Arial" font-size="14.00" fill="#666666">[text]</text>
<polygon fill="none" stroke="#000000" points="194,-1332.5 194,-1362.5 514,-1362.5 514,-1332.5 194,-1332.5"/>
<text text-anchor="start" x="201" y="-1343.9" font-family="Arial" font-size="14.00" fill="#000000">passwd    </text>
<text text-anchor="start" x="282.6592" y="-1343.9" font-family="Arial" font-size="14.00" fill="#666666">[text]</text>
<polygon fill="none" stroke="#000000" points="194,-1302.5 194,-1332.5 514,-1332.5 514,-1302.5 194,-1302.5"/>
<text text-anchor="start" x="201" y="-1313.9" font-family="Arial" font-size="14.00" fill="#000000">standing    </text>
<text text-anchor="start" x="288.115" y="-1313.9" font-family="Arial" font-size="14.00" fill="#666666">[integer]</text>
<polygon fill="none" stroke="#000000" points="194,-1272.5 194,-1302.5 514,-1302.5 514,-1272.5 194,-1272.5"/>
<text text-anchor="start" x="201" y="-1283.9" font-family="Arial" font-size="14.00" fill="#000000">ident_type    </text>
<text text-anchor="start" x="299.7882" y="-1283.9" font-family="Arial" font-size="14.00" fill="#666666">[integer]</text>
<polygon fill="none" stroke="#000000" points="194,-1242.5 194,-1272.5 514,-1272.5 514,-1242.5 194,-1242.5"/>
<text text-anchor="start" x="201" y="-1253.9" font-family="Arial" font-size="14.00" fill="#000000">ident_value    </text>
<text text-anchor="start" x="306.7868" y="-1253.9" font-family="Arial" font-size="14.00" fill="#666666">[text]</text>
<polygon fill="none" stroke="#000000" points="194,-1212.5 194,-1242.5 514,-1242.5 514,-1212.5 194,-1212.5"/>
<text text-anchor="start" x="201" y="-1223.9" font-family="Arial" font-size="14.00" fill="#000000">ident_type2    </text>
<text text-anchor="start" x="307.5708" y="-1223.9" font-family="Arial" font-size="14.00" fill="#666666">[integer]</text>
<polygon fill="none" stroke="#000000" points="194,-1182.5 194,-1212.5 514,-1212.5 514,-1182.5 194,-1182.5"/>
<text text-anchor="start" x="201" y="-1193.9" font-family="Arial" font-size="14.00" fill="#000000">ident_value2    </text>
<text text-anchor="start" x="314.5694" y="-1193.9" font-family="Arial" font-size="14.00" fill="#666666">[text]</text>
<polygon fill="none" stroke="#000000" points="194,-1152.5 194,-1182.5 514,-1182.5 514,-1152.5 194,-1152.5"/>
<text text-anchor="start" x="201" y="-1163.9" font-family="Arial" font-size="14.00" fill="#000000">net_access_level    </text>
<text text-anchor="start" x="342.5694" y="-1163.9" font-family="Arial" font-size="14.00" fill="#666666">[integer]</text>
<polygon fill="none" stroke="#000000" points="194,-1122.5 194,-1152.5 514,-1152.5 514,-1122.5 194,-1122.5"/>
<text text-anchor="start" x="201" y="-1133.9" font-family="Arial" font-size="14.00" fill="#000000">photo_url    </text>
<text text-anchor="start" x="293.5582" y="-1133.9" font-family="Arial" font-size="14.00" fill="#666666">[text]</text>
<polygon fill="none" stroke="#000000" points="194,-1092.5 194,-1122.5 514,-1122.5 514,-1092.5 194,-1092.5"/>
<text text-anchor="start" x="201" y="-1103.9" font-family="Arial" font-size="14.00" fill="#000000">prefix    </text>
<text text-anchor="start" x="269.4278" y="-1103.9" font-family="Arial" font-size="14.00" fill="#666666">[text]</text>
<polygon fill="none" stroke="#000000" points="194,-1062.5 194,-1092.5 514,-1092.5 514,-1062.5 194,-1062.5"/>
<text text-anchor="start" x="201" y="-1073.9" font-family="Arial" font-size="14.00" fill="#000000">first_given_name    </text>
<text text-anchor="start" x="341.7812" y="-1073.9" font-family="Arial" font-size="14.00" fill="#666666">[text]</text>
<polygon fill="none" stroke="#000000" points="194,-1032.5 194,-1062.5 514,-1062.5 514,-1032.5 194,-1032.5"/>
<text text-anchor="start" x="201" y="-1043.9" font-family="Arial" font-size="14.00" fill="#000000">second_given_name    </text>
<text text-anchor="start" x="364.3632" y="-1043.9" font-family="Arial" font-size="14.00" fill="#666666">[text]</text>
<polygon fill="none" stroke="#000000" points="194,-1002.5 194,-1032.5 514,-1032.5 514,-1002.5 194,-1002.5"/>
<text text-anchor="start" x="201" y="-1013.9" font-family="Arial" font-size="14.00" fill="#000000">family_name    </text>
<text text-anchor="start" x="314.5428" y="-1013.9" font-family="Arial" font-size="14.00" fill="#666666">[text]</text>
<polygon fill="none" stroke="#000000" points="194,-972.5 194,-1002.5 514,-1002.5 514,-972.5 194,-972.5"/>
<text text-anchor="start" x="201" y="-983.9" font-family="Arial" font-size="14.00" fill="#000000">suffix    </text>
<text text-anchor="start" x="267.8752" y="-983.9" font-family="Arial" font-size="14.00" fill="#666666">[text]</text>
<polygon fill="none" stroke="#000000" points="194,-942.5 194,-972.5 514,-972.5 514,-942.5 194,-942.5"/>
<text text-anchor="start" x="201" y="-953.9" font-family="Arial" font-size="14.00" fill="#000000">alias    </text>
<text text-anchor="start" x="263.9832" y="-953.9" font-family="Arial" font-size="14.00" fill="#666666">[text]</text>
<polygon fill="none" stroke="#000000" points="194,-912.5 194,-942.5 514,-942.5 514,-912.5 194,-912.5"/>
<text text-anchor="start" x="201" y="-923.9" font-family="Arial" font-size="14.00" fill="#000000">day_phone    </text>
<text text-anchor="start" x="304.4656" y="-923.9" font-family="Arial" font-size="14.00" fill="#666666">[text]</text>
<polygon fill="none" stroke="#000000" points="194,-882.5 194,-912.5 514,-912.5 514,-882.5 194,-882.5"/>
<text text-anchor="start" x="201" y="-893.9" font-family="Arial" font-size="14.00" fill="#000000">evening_phone    </text>
<text text-anchor="start" x="330.92" y="-893.9" font-family="Arial" font-size="14.00" fill="#666666">[text]</text>
<polygon fill="none" stroke="#000000" points="194,-852.5 194,-882.5 514,-882.5 514,-852.5 194,-852.5"/>
<text text-anchor="start" x="201" y="-863.9" font-family="Arial" font-size="14.00" fill="#000000">other_phone    </text>
<text text-anchor="start" x="313.7994" y="-863.9" font-family="Arial" font-size="14.00" fill="#666666">[text]</text>
<polygon fill="none" stroke="#000000" points="194,-822.5 194,-852.5 514,-852.5 514,-822.5 194,-822.5"/>
<text text-anchor="start" x="201" y="-833.9" font-family="Arial" font-size="14.00" fill="#000000">mailing_address    </text>
<text text-anchor="start" x="337.1066" y="-833.9" font-family="Arial" font-size="14.00" fill="#666666">[integer]</text>
<polygon fill="none" stroke="#000000" points="194,-792.5 194,-822.5 514,-822.5 514,-792.5 194,-792.5"/>
<text text-anchor="start" x="201" y="-803.9" font-family="Arial" font-size="14.00" fill="#000000">billing_address    </text>
<text text-anchor="start" x="328.5526" y="-803.9" font-family="Arial" font-size="14.00" fill="#666666">[integer]</text>
<polygon fill="none" stroke="#000000" points="194,-762.5 194,-792.5 514,-792.5 514,-762.5 194,-762.5"/>
<text text-anchor="start" x="201" y="-773.9" font-family="Arial" font-size="14.00" fill="#000000">home_ou    </text>
<text text-anchor="start" x="293.561" y="-773.9" font-family="Arial" font-size="14.00" fill="#666666">[integer]</text>
<polygon fill="none" stroke="#000000" points="194,-732.5 194,-762.5 514,-762.5 514,-732.5 194,-732.5"/>
<text text-anchor="start" x="201" y="-743.9" font-family="Arial" font-size="14.00" fill="#000000">dob    </text>
<text text-anchor="start" x="258.5526" y="-743.9" font-family="Arial" font-size="14.00" fill="#666666">[date]</text>
<polygon fill="none" stroke="#000000" points="194,-702.5 194,-732.5 514,-732.5 514,-702.5 194,-702.5"/>
<text text-anchor="start" x="201" y="-713.9" font-family="Arial" font-size="14.00" fill="#000000">active    </text>
<text text-anchor="start" x="271.7672" y="-713.9" font-family="Arial" font-size="14.00" fill="#666666">[boolean]</text>
<polygon fill="none" stroke="#000000" points="194,-672.5 194,-702.5 514,-702.5 514,-672.5 194,-672.5"/>
<text text-anchor="start" x="201" y="-683.9" font-family="Arial" font-size="14.00" fill="#000000">master_account    </text>
<text text-anchor="start" x="334.7854" y="-683.9" font-family="Arial" font-size="14.00" fill="#666666">[boolean]</text>
<polygon fill="none" stroke="#000000" points="194,-642.5 194,-672.5 514,-672.5 514,-642.5 194,-642.5"/>
<text text-anchor="start" x="201" y="-653.9" font-family="Arial" font-size="14.00" fill="#000000">super_user    </text>
<text text-anchor="start" x="305.2216" y="-653.9" font-family="Arial" font-size="14.00" fill="#666666">[boolean]</text>
<polygon fill="none" stroke="#000000" points="194,-612.5 194,-642.5 514,-642.5 514,-612.5 194,-612.5"/>
<text text-anchor="start" x="201" y="-623.9" font-family="Arial" font-size="14.00" fill="#000000">barred    </text>
<text text-anchor="start" x="275.6564" y="-623.9" font-family="Arial" font-size="14.00" fill="#666666">[boolean]</text>
<polygon fill="none" stroke="#000000" points="194,-582.5 194,-612.5 514,-612.5 514,-582.5 194,-582.5"/>
<text text-anchor="start" x="201" y="-593.9" font-family="Arial" font-size="14.00" fill="#000000">deleted    </text>
<text text-anchor="start" x="281.115" y="-593.9" font-family="Arial" font-size="14.00" fill="#666666">[boolean]</text>
<polygon fill="none" stroke="#000000" points="194,-552.5 194,-582.5 514,-582.5 514,-552.5 194,-552.5"/>
<text text-anchor="start" x="201" y="-563.9" font-family="Arial" font-size="14.00" fill="#000000">juvenile    </text>
<text text-anchor="start" x="282.655" y="-563.9" font-family="Arial" font-size="14.00" fill="#666666">[boolean]</text>
<polygon fill="none" stroke="#000000" points="194,-522.5 194,-552.5 514,-552.5 514,-522.5 194,-522.5"/>
<text text-anchor="start" x="201" y="-533.9" font-family="Arial" font-size="14.00" fill="#000000">usrgroup    </text>
<text text-anchor="start" x="290.439" y="-533.9" font-family="Arial" font-size="14.00" fill="#666666">[integer]</text>
<polygon fill="none" stroke="#000000" points="194,-492.5 194,-522.5 514,-522.5 514,-492.5 194,-492.5"/>
<text text-anchor="start" x="201" y="-503.9" font-family="Arial" font-size="14.00" fill="#000000">claims_returned_count    </text>
<text text-anchor="start" x="376.7896" y="-503.9" font-family="Arial" font-size="14.00" fill="#666666">[integer]</text>
<polygon fill="none" stroke="#000000" points="194,-462.5 194,-492.5 514,-492.5 514,-462.5 194,-462.5"/>
<text text-anchor="start" x="201" y="-473.9" font-family="Arial" font-size="14.00" fill="#000000">credit_forward_balance    </text>
<text text-anchor="start" x="380.6788" y="-473.9" font-family="Arial" font-size="14.00" fill="#666666">[numeric(6,2)]</text>
<polygon fill="none" stroke="#000000" points="194,-432.5 194,-462.5 514,-462.5 514,-432.5 194,-432.5"/>
<text text-anchor="start" x="201" y="-443.9" font-family="Arial" font-size="14.00" fill="#000000">last_xact_id    </text>
<text text-anchor="start" x="309.1122" y="-443.9" font-family="Arial" font-size="14.00" fill="#666666">[text]</text>
<polygon fill="none" stroke="#000000" points="194,-402.5 194,-432.5 514,-432.5 514,-402.5 194,-402.5"/>
<text text-anchor="start" x="201" y="-413.9" font-family="Arial" font-size="14.00" fill="#000000">alert_message    </text>
<text text-anchor="start" x="327.0014" y="-413.9" font-family="Arial" font-size="14.00" fill="#666666">[text]</text>
<polygon fill="none" stroke="#000000" points="194,-372.5 194,-402.5 514,-402.5 514,-372.5 194,-372.5"/>
<text text-anchor="start" x="201" y="-383.9" font-family="Arial" font-size="14.00" fill="#000000">create_date    </text>
<text text-anchor="start" x="309.1248" y="-383.9" font-family="Arial" font-size="14.00" fill="#666666">[timestamp with time zone]</text>
<polygon fill="none" stroke="#000000" points="194,-342.5 194,-372.5 514,-372.5 514,-342.5 194,-342.5"/>
<text text-anchor="start" x="201" y="-353.9" font-family="Arial" font-size="14.00" fill="#000000">expire_date    </text>
<text text-anchor="start" x="308.3408" y="-353.9" font-family="Arial" font-size="14.00" fill="#666666">[timestamp with time zone]</text>
<polygon fill="none" stroke="#000000" points="194,-312.5 194,-342.5 514,-342.5 514,-312.5 194,-312.5"/>
<text text-anchor="start" x="201" y="-323.9" font-family="Arial" font-size="14.00" fill="#000000">claims_never_checked_out_count    </text>
<text text-anchor="start" x="446.8246" y="-323.9" font-family="Arial" font-size="14.00" fill="#666666">[integer]</text>
<polygon fill="none" stroke="#000000" points="194,-282.5 194,-312.5 514,-312.5 514,-282.5 194,-282.5"/>
<text text-anchor="start" x="200.7609" y="-293.9" font-family="Arial" font-size="14.00" fill="#000000">last_update_time    </text>
<text text-anchor="start" x="341.5547" y="-293.9" font-family="Arial" font-size="14.00" fill="#666666">[timestamp with time zone]</text>
<polygon fill="none" stroke="#000000" points="194,-252.5 194,-282.5 514,-282.5 514,-252.5 194,-252.5"/>
<text text-anchor="start" x="201" y="-263.9" font-family="Arial" font-size="14.00" fill="#000000">pref_prefix    </text>
<text text-anchor="start" x="301.3268" y="-263.9" font-family="Arial" font-size="14.00" fill="#666666">[text]</text>
<polygon fill="none" stroke="#000000" points="194,-222.5 194,-252.5 514,-252.5 514,-222.5 194,-222.5"/>
<text text-anchor="start" x="201" y="-233.9" font-family="Arial" font-size="14.00" fill="#000000">pref_first_given_name    </text>
<text text-anchor="start" x="373.6802" y="-233.9" font-family="Arial" font-size="14.00" fill="#666666">[text]</text>
<polygon fill="none" stroke="#000000" points="194,-192.5 194,-222.5 514,-222.5 514,-192.5 194,-192.5"/>
<text text-anchor="start" x="201" y="-203.9" font-family="Arial" font-size="14.00" fill="#000000">pref_second_given_name    </text>
<text text-anchor="start" x="396.2622" y="-203.9" font-family="Arial" font-size="14.00" fill="#666666">[text]</text>
<polygon fill="none" stroke="#000000" points="194,-162.5 194,-192.5 514,-192.5 514,-162.5 194,-162.5"/>
<text text-anchor="start" x="201" y="-173.9" font-family="Arial" font-size="14.00" fill="#000000">pref_family_name    </text>
<text text-anchor="start" x="346.4418" y="-173.9" font-family="Arial" font-size="14.00" fill="#666666">[text]</text>
<polygon fill="none" stroke="#000000" points="194,-132.5 194,-162.5 514,-162.5 514,-132.5 194,-132.5"/>
<text text-anchor="start" x="201" y="-143.9" font-family="Arial" font-size="14.00" fill="#000000">pref_suffix    </text>
<text text-anchor="start" x="299.7742" y="-143.9" font-family="Arial" font-size="14.00" fill="#666666">[text]</text>
<polygon fill="none" stroke="#000000" points="194,-102.5 194,-132.5 514,-132.5 514,-102.5 194,-102.5"/>
<text text-anchor="start" x="201" y="-113.9" font-family="Arial" font-size="14.00" fill="#000000">name_keywords    </text>
<text text-anchor="start" x="337.1108" y="-113.9" font-family="Arial" font-size="14.00" fill="#666666">[text]</text>
<polygon fill="none" stroke="#000000" points="194,-72.5 194,-102.5 514,-102.5 514,-72.5 194,-72.5"/>
<text text-anchor="start" x="201" y="-83.9" font-family="Arial" font-size="14.00" fill="#000000">name_kw_tsvector    </text>
<text text-anchor="start" x="351.892" y="-83.9" font-family="Arial" font-size="14.00" fill="#666666">[tsvector]</text>
<polygon fill="none" stroke="#000000" points="194,-42.5 194,-72.5 514,-72.5 514,-42.5 194,-42.5"/>
<text text-anchor="start" x="201" y="-53.9" font-family="Arial" font-size="14.00" fill="#000000">guardian    </text>
<text text-anchor="start" x="289.6676" y="-53.9" font-family="Arial" font-size="14.00" fill="#666666">[text]</text>
</g>
<!-- action.usr_circ_history&#45;&gt;actor.usr -->
<g id="edge1" class="edge">
<title>action.usr_circ_history:usr&#45;&gt;actor.usr:id</title>
<path fill="none" stroke="#000000" d="M398.6371,-1836.8964C318.5284,-1827.0912 356.7461,-1700.1555 409,-1627 437.6744,-1586.8558 485.3256,-1631.1442 514,-1591 538.1537,-1557.1849 555.5556,-1497.5 514,-1497.5"/>
<polygon fill="#000000" stroke="#000000" points="399.0169,-1836.9184 408.7383,-1841.9924 404.0085,-1837.2092 409,-1837.5 409,-1837.5 409,-1837.5 404.0085,-1837.2092 409.2617,-1833.0076 399.0169,-1836.9184 399.0169,-1836.9184"/>
<text text-anchor="start" x="7.4995" y="-1847.5" font-family="Arial" font-size="10.00" fill="#000000">FOREIGN KEY (usr) REFERENCES actor.usr(id) DEFERRABLE INITIALLY DEFERRED</text>
</g>
<!-- action.circulation -->
<g id="node3" class="node">
<title>action.circulation</title>
<polygon fill="#efefef" stroke="transparent" points="618,-1287.5 618,-1322.5 950,-1322.5 950,-1287.5 618,-1287.5"/>
<polygon fill="none" stroke="#000000" points="618,-1287.5 618,-1322.5 950,-1322.5 950,-1287.5 618,-1287.5"/>
<text text-anchor="start" x="653.2065" y="-1300.3" font-family="Arial Bold" font-size="18.00" fill="#000000">action.circulation</text>
<text text-anchor="start" x="787.2255" y="-1300.3" font-family="Arial" font-size="14.00" fill="#000000">    </text>
<text text-anchor="start" x="821.4303" y="-1300.3" font-family="Arial" font-size="14.00" fill="#666666">[BASE TABLE]</text>
<polygon fill="none" stroke="#000000" points="618,-1257.5 618,-1287.5 950,-1287.5 950,-1257.5 618,-1257.5"/>
<text text-anchor="start" x="625" y="-1268.9" font-family="Arial" font-size="14.00" fill="#000000">id    </text>
<text text-anchor="start" x="670.094" y="-1268.9" font-family="Arial" font-size="14.00" fill="#666666">[bigint]</text>
<polygon fill="none" stroke="#000000" points="618,-1227.5 618,-1257.5 950,-1257.5 950,-1227.5 618,-1227.5"/>
<text text-anchor="start" x="625" y="-1238.9" font-family="Arial" font-size="14.00" fill="#000000">usr    </text>
<text text-anchor="start" x="678.648" y="-1238.9" font-family="Arial" font-size="14.00" fill="#666666">[integer]</text>
<polygon fill="none" stroke="#000000" points="618,-1197.5 618,-1227.5 950,-1227.5 950,-1197.5 618,-1197.5"/>
<text text-anchor="start" x="625" y="-1208.9" font-family="Arial" font-size="14.00" fill="#000000">xact_start    </text>
<text text-anchor="start" x="719.885" y="-1208.9" font-family="Arial" font-size="14.00" fill="#666666">[timestamp with time zone]</text>
<polygon fill="none" stroke="#000000" points="618,-1167.5 618,-1197.5 950,-1197.5 950,-1167.5 618,-1167.5"/>
<text text-anchor="start" x="625" y="-1178.9" font-family="Arial" font-size="14.00" fill="#000000">xact_finish    </text>
<text text-anchor="start" x="725.3296" y="-1178.9" font-family="Arial" font-size="14.00" fill="#666666">[timestamp with time zone]</text>
<polygon fill="none" stroke="#000000" points="618,-1137.5 618,-1167.5 950,-1167.5 950,-1137.5 618,-1137.5"/>
<text text-anchor="start" x="625" y="-1148.9" font-family="Arial" font-size="14.00" fill="#000000">unrecovered    </text>
<text text-anchor="start" x="737.0042" y="-1148.9" font-family="Arial" font-size="14.00" fill="#666666">[boolean]</text>
<polygon fill="none" stroke="#000000" points="618,-1107.5 618,-1137.5 950,-1137.5 950,-1107.5 618,-1107.5"/>
<text text-anchor="start" x="625" y="-1118.9" font-family="Arial" font-size="14.00" fill="#000000">target_copy    </text>
<text text-anchor="start" x="732.3422" y="-1118.9" font-family="Arial" font-size="14.00" fill="#666666">[bigint]</text>
<polygon fill="none" stroke="#000000" points="618,-1077.5 618,-1107.5 950,-1107.5 950,-1077.5 618,-1077.5"/>
<text text-anchor="start" x="625" y="-1088.9" font-family="Arial" font-size="14.00" fill="#000000">circ_lib    </text>
<text text-anchor="start" x="702.7504" y="-1088.9" font-family="Arial" font-size="14.00" fill="#666666">[integer]</text>
<polygon fill="none" stroke="#000000" points="618,-1047.5 618,-1077.5 950,-1077.5 950,-1047.5 618,-1047.5"/>
<text text-anchor="start" x="625" y="-1058.9" font-family="Arial" font-size="14.00" fill="#000000">circ_staff    </text>
<text text-anchor="start" x="715.209" y="-1058.9" font-family="Arial" font-size="14.00" fill="#666666">[integer]</text>
<polygon fill="none" stroke="#000000" points="618,-1017.5 618,-1047.5 950,-1047.5 950,-1017.5 618,-1017.5"/>
<text text-anchor="start" x="625" y="-1028.9" font-family="Arial" font-size="14.00" fill="#000000">checkin_staff    </text>
<text text-anchor="start" x="740.8962" y="-1028.9" font-family="Arial" font-size="14.00" fill="#666666">[integer]</text>
<polygon fill="none" stroke="#000000" points="618,-987.5 618,-1017.5 950,-1017.5 950,-987.5 618,-987.5"/>
<text text-anchor="start" x="625" y="-998.9" font-family="Arial" font-size="14.00" fill="#000000">checkin_lib    </text>
<text text-anchor="start" x="728.4376" y="-998.9" font-family="Arial" font-size="14.00" fill="#666666">[integer]</text>
<polygon fill="none" stroke="#000000" points="618,-957.5 618,-987.5 950,-987.5 950,-957.5 618,-957.5"/>
<text text-anchor="start" x="625" y="-968.9" font-family="Arial" font-size="14.00" fill="#000000">renewal_remaining    </text>
<text text-anchor="start" x="777.439" y="-968.9" font-family="Arial" font-size="14.00" fill="#666666">[integer]</text>
<polygon fill="none" stroke="#000000" points="618,-927.5 618,-957.5 950,-957.5 950,-927.5 618,-927.5"/>
<text text-anchor="start" x="625" y="-938.9" font-family="Arial" font-size="14.00" fill="#000000">grace_period    </text>
<text text-anchor="start" x="740.8934" y="-938.9" font-family="Arial" font-size="14.00" fill="#666666">[interval]</text>
<polygon fill="none" stroke="#000000" points="618,-897.5 618,-927.5 950,-927.5 950,-897.5 618,-897.5"/>
<text text-anchor="start" x="625" y="-908.9" font-family="Arial" font-size="14.00" fill="#000000">due_date    </text>
<text text-anchor="start" x="717.5736" y="-908.9" font-family="Arial" font-size="14.00" fill="#666666">[timestamp with time zone]</text>
<polygon fill="none" stroke="#000000" points="618,-867.5 618,-897.5 950,-897.5 950,-867.5 618,-867.5"/>
<text text-anchor="start" x="625" y="-878.9" font-family="Arial" font-size="14.00" fill="#000000">stop_fines_time    </text>
<text text-anchor="start" x="757.2286" y="-878.9" font-family="Arial" font-size="14.00" fill="#666666">[timestamp with time zone]</text>
<polygon fill="none" stroke="#000000" points="618,-837.5 618,-867.5 950,-867.5 950,-837.5 618,-837.5"/>
<text text-anchor="start" x="625" y="-848.9" font-family="Arial" font-size="14.00" fill="#000000">checkin_time    </text>
<text text-anchor="start" x="740.8822" y="-848.9" font-family="Arial" font-size="14.00" fill="#666666">[timestamp with time zone]</text>
<polygon fill="none" stroke="#000000" points="618,-807.5 618,-837.5 950,-837.5 950,-807.5 618,-807.5"/>
<text text-anchor="start" x="625" y="-818.9" font-family="Arial" font-size="14.00" fill="#000000">create_time    </text>
<text text-anchor="start" x="732.3268" y="-818.9" font-family="Arial" font-size="14.00" fill="#666666">[timestamp with time zone]</text>
<polygon fill="none" stroke="#000000" points="618,-777.5 618,-807.5 950,-807.5 950,-777.5 618,-777.5"/>
<text text-anchor="start" x="625" y="-788.9" font-family="Arial" font-size="14.00" fill="#000000">duration    </text>
<text text-anchor="start" x="709.7756" y="-788.9" font-family="Arial" font-size="14.00" fill="#666666">[interval]</text>
<polygon fill="none" stroke="#000000" points="618,-747.5 618,-777.5 950,-777.5 950,-747.5 618,-747.5"/>
<text text-anchor="start" x="625" y="-758.9" font-family="Arial" font-size="14.00" fill="#000000">fine_interval    </text>
<text text-anchor="start" x="734.662" y="-758.9" font-family="Arial" font-size="14.00" fill="#666666">[interval]</text>
<polygon fill="none" stroke="#000000" points="618,-717.5 618,-747.5 950,-747.5 950,-717.5 618,-717.5"/>
<text text-anchor="start" x="625" y="-728.9" font-family="Arial" font-size="14.00" fill="#000000">recurring_fine    </text>
<text text-anchor="start" x="744.7686" y="-728.9" font-family="Arial" font-size="14.00" fill="#666666">[numeric(6,2)]</text>
<polygon fill="none" stroke="#000000" points="618,-687.5 618,-717.5 950,-717.5 950,-687.5 618,-687.5"/>
<text text-anchor="start" x="625" y="-698.9" font-family="Arial" font-size="14.00" fill="#000000">max_fine    </text>
<text text-anchor="start" x="715.993" y="-698.9" font-family="Arial" font-size="14.00" fill="#666666">[numeric(6,2)]</text>
<polygon fill="none" stroke="#000000" points="618,-657.5 618,-687.5 950,-687.5 950,-657.5 618,-657.5"/>
<text text-anchor="start" x="625" y="-668.9" font-family="Arial" font-size="14.00" fill="#000000">phone_renewal    </text>
<text text-anchor="start" x="754.9046" y="-668.9" font-family="Arial" font-size="14.00" fill="#666666">[boolean]</text>
<polygon fill="none" stroke="#000000" points="618,-627.5 618,-657.5 950,-657.5 950,-627.5 618,-627.5"/>
<text text-anchor="start" x="625" y="-638.9" font-family="Arial" font-size="14.00" fill="#000000">desk_renewal    </text>
<text text-anchor="start" x="745.5568" y="-638.9" font-family="Arial" font-size="14.00" fill="#666666">[boolean]</text>
<polygon fill="none" stroke="#000000" points="618,-597.5 618,-627.5 950,-627.5 950,-597.5 618,-597.5"/>
<text text-anchor="start" x="625" y="-608.9" font-family="Arial" font-size="14.00" fill="#000000">opac_renewal    </text>
<text text-anchor="start" x="746.3394" y="-608.9" font-family="Arial" font-size="14.00" fill="#666666">[boolean]</text>
<polygon fill="none" stroke="#000000" points="618,-567.5 618,-597.5 950,-597.5 950,-567.5 618,-567.5"/>
<text text-anchor="start" x="625" y="-578.9" font-family="Arial" font-size="14.00" fill="#000000">duration_rule    </text>
<text text-anchor="start" x="740.8906" y="-578.9" font-family="Arial" font-size="14.00" fill="#666666">[text]</text>
<polygon fill="none" stroke="#000000" points="618,-537.5 618,-567.5 950,-567.5 950,-537.5 618,-537.5"/>
<text text-anchor="start" x="625" y="-548.9" font-family="Arial" font-size="14.00" fill="#000000">recurring_fine_rule    </text>
<text text-anchor="start" x="775.8836" y="-548.9" font-family="Arial" font-size="14.00" fill="#666666">[text]</text>
<polygon fill="none" stroke="#000000" points="618,-507.5 618,-537.5 950,-537.5 950,-507.5 618,-507.5"/>
<text text-anchor="start" x="625" y="-518.9" font-family="Arial" font-size="14.00" fill="#000000">max_fine_rule    </text>
<text text-anchor="start" x="747.108" y="-518.9" font-family="Arial" font-size="14.00" fill="#666666">[text]</text>
<polygon fill="none" stroke="#000000" points="618,-477.5 618,-507.5 950,-507.5 950,-477.5 618,-477.5"/>
<text text-anchor="start" x="625" y="-488.9" font-family="Arial" font-size="14.00" fill="#000000">stop_fines    </text>
<text text-anchor="start" x="723.0056" y="-488.9" font-family="Arial" font-size="14.00" fill="#666666">[text]</text>
<polygon fill="none" stroke="#000000" points="618,-447.5 618,-477.5 950,-477.5 950,-447.5 618,-447.5"/>
<text text-anchor="start" x="625" y="-458.9" font-family="Arial" font-size="14.00" fill="#000000">workstation    </text>
<text text-anchor="start" x="729.9902" y="-458.9" font-family="Arial" font-size="14.00" fill="#666666">[integer]</text>
<polygon fill="none" stroke="#000000" points="618,-417.5 618,-447.5 950,-447.5 950,-417.5 618,-417.5"/>
<text text-anchor="start" x="625" y="-428.9" font-family="Arial" font-size="14.00" fill="#000000">checkin_workstation    </text>
<text text-anchor="start" x="785.2272" y="-428.9" font-family="Arial" font-size="14.00" fill="#666666">[integer]</text>
<polygon fill="none" stroke="#000000" points="618,-387.5 618,-417.5 950,-417.5 950,-387.5 618,-387.5"/>
<text text-anchor="start" x="625" y="-398.9" font-family="Arial" font-size="14.00" fill="#000000">copy_location    </text>
<text text-anchor="start" x="744.7868" y="-398.9" font-family="Arial" font-size="14.00" fill="#666666">[integer]</text>
<polygon fill="none" stroke="#000000" points="618,-357.5 618,-387.5 950,-387.5 950,-357.5 618,-357.5"/>
<text text-anchor="start" x="624.5428" y="-368.9" font-family="Arial" font-size="14.00" fill="#000000">checkin_scan_time    </text>
<text text-anchor="start" x="777.7728" y="-368.9" font-family="Arial" font-size="14.00" fill="#666666">[timestamp with time zone]</text>
<polygon fill="none" stroke="#000000" points="618,-327.5 618,-357.5 950,-357.5 950,-327.5 618,-327.5"/>
<text text-anchor="start" x="625" y="-338.9" font-family="Arial" font-size="14.00" fill="#000000">parent_circ    </text>
<text text-anchor="start" x="728.4362" y="-338.9" font-family="Arial" font-size="14.00" fill="#666666">[bigint]</text>
<polygon fill="none" stroke="#000000" points="618,-297.5 618,-327.5 950,-327.5 950,-297.5 618,-297.5"/>
<text text-anchor="start" x="625" y="-308.9" font-family="Arial" font-size="14.00" fill="#000000">auto_renewal    </text>
<text text-anchor="start" x="743.23" y="-308.9" font-family="Arial" font-size="14.00" fill="#666666">[boolean]</text>
<polygon fill="none" stroke="#000000" points="618,-267.5 618,-297.5 950,-297.5 950,-267.5 618,-267.5"/>
<text text-anchor="start" x="625" y="-278.9" font-family="Arial" font-size="14.00" fill="#000000">auto_renewal_remaining    </text>
<text text-anchor="start" x="812.46" y="-278.9" font-family="Arial" font-size="14.00" fill="#666666">[integer]</text>
</g>
<!-- action.usr_circ_history&#45;&gt;action.circulation -->
<g id="edge2" class="edge">
<title>action.usr_circ_history:source_circ&#45;&gt;action.circulation:id</title>
<path fill="none" stroke="#000000" d="M739.4149,-1687.0313C900.9367,-1671.4474 430.801,-1272.5 618,-1272.5"/>
<polygon fill="#000000" stroke="#000000" points="738.9899,-1687.0503 728.7976,-1683.0046 733.9949,-1687.2751 729,-1687.5 729,-1687.5 729,-1687.5 733.9949,-1687.2751 729.2024,-1691.9954 738.9899,-1687.0503 738.9899,-1687.0503"/>
<text text-anchor="start" x="736.1005" y="-1697.5" font-family="Arial" font-size="10.00" fill="#000000">FOREIGN KEY (source_circ) REFERENCES action.circulation(id) ON DELETE SET NULL DEFERRABLE INITIALLY DEFERRED</text>
</g>
</g>
</svg>
