<?xml version="1.0" encoding="UTF-8" standalone="no"?>
<!DOCTYPE svg PUBLIC "-//W3C//DTD SVG 1.1//EN"
 "http://www.w3.org/Graphics/SVG/1.1/DTD/svg11.dtd">
<!-- Generated by graphviz version 2.40.1 (20161225.0304)
 -->
<!-- Title: action.emergency_closing_circulation Pages: 1 -->
<svg width="1702pt" height="1462pt"
 viewBox="0.00 0.00 1702.00 1462.00" xmlns="http://www.w3.org/2000/svg" xmlns:xlink="http://www.w3.org/1999/xlink">
<g id="graph0" class="graph" transform="scale(1 1) rotate(0) translate(4 1458)">
<title>action.emergency_closing_circulation</title>
<polygon fill="#ffffff" stroke="transparent" points="-4,4 -4,-1458 1698,-1458 1698,4 -4,4"/>
<!-- action.emergency_closing_circulation -->
<g id="node1" class="node">
<title>action.emergency_closing_circulation</title>
<polygon fill="#efefef" stroke="transparent" points="668,-1372.5 668,-1407.5 1108,-1407.5 1108,-1372.5 668,-1372.5"/>
<polygon fill="none" stroke="#000000" points="668,-1372.5 668,-1407.5 1108,-1407.5 1108,-1372.5 668,-1372.5"/>
<text text-anchor="start" x="674.6891" y="-1385.3" font-family="Arial Bold" font-size="18.00" fill="#000000">action.emergency_closing_circulation</text>
<text text-anchor="start" x="973.7429" y="-1385.3" font-family="Arial" font-size="14.00" fill="#000000">    </text>
<text text-anchor="start" x="1007.9477" y="-1385.3" font-family="Arial" font-size="14.00" fill="#666666">[BASE TABLE]</text>
<polygon fill="none" stroke="#000000" points="668,-1342.5 668,-1372.5 1108,-1372.5 1108,-1342.5 668,-1342.5"/>
<text text-anchor="start" x="675" y="-1353.9" font-family="Arial" font-size="14.00" fill="#000000">id </text>
<text text-anchor="start" x="689.7798" y="-1353.9" font-family="Arial" font-size="14.00" fill="#666666">[bigint]</text>
<polygon fill="none" stroke="#000000" points="668,-1312.5 668,-1342.5 1108,-1342.5 1108,-1312.5 668,-1312.5"/>
<text text-anchor="start" x="675" y="-1323.9" font-family="Arial" font-size="14.00" fill="#000000">emergency_closing </text>
<text text-anchor="start" x="799.4684" y="-1323.9" font-family="Arial" font-size="14.00" fill="#666666">[integer]</text>
<polygon fill="none" stroke="#000000" points="668,-1282.5 668,-1312.5 1108,-1312.5 1108,-1282.5 668,-1282.5"/>
<text text-anchor="start" x="675" y="-1293.9" font-family="Arial" font-size="14.00" fill="#000000">circulation </text>
<text text-anchor="start" x="741.892" y="-1293.9" font-family="Arial" font-size="14.00" fill="#666666">[integer]</text>
<polygon fill="none" stroke="#000000" points="668,-1252.5 668,-1282.5 1108,-1282.5 1108,-1252.5 668,-1252.5"/>
<text text-anchor="start" x="675" y="-1263.9" font-family="Arial" font-size="14.00" fill="#000000">original_due_date </text>
<text text-anchor="start" x="790.1528" y="-1263.9" font-family="Arial" font-size="14.00" fill="#666666">[timestamp with time zone]</text>
<polygon fill="none" stroke="#000000" points="668,-1222.5 668,-1252.5 1108,-1252.5 1108,-1222.5 668,-1222.5"/>
<text text-anchor="start" x="675" y="-1233.9" font-family="Arial" font-size="14.00" fill="#000000">process_time </text>
<text text-anchor="start" x="762.122" y="-1233.9" font-family="Arial" font-size="14.00" fill="#666666">[timestamp with time zone]</text>
<polygon fill="none" stroke="#000000" stroke-width="3" points="666.5,-1221.5 666.5,-1409.5 1109.5,-1409.5 1109.5,-1221.5 666.5,-1221.5"/>
</g>
<!-- action.emergency_closing -->
<g id="node2" class="node">
<title>action.emergency_closing</title>
<polygon fill="#efefef" stroke="transparent" points="491,-642.5 491,-677.5 840,-677.5 840,-642.5 491,-642.5"/>
<polygon fill="none" stroke="#000000" points="491,-642.5 491,-677.5 840,-677.5 840,-642.5 491,-642.5"/>
<text text-anchor="start" x="497.6931" y="-655.3" font-family="Arial Bold" font-size="18.00" fill="#000000">action.emergency_closing</text>
<text text-anchor="start" x="705.7389" y="-655.3" font-family="Arial" font-size="14.00" fill="#000000">    </text>
<text text-anchor="start" x="739.9437" y="-655.3" font-family="Arial" font-size="14.00" fill="#666666">[BASE TABLE]</text>
<polygon fill="none" stroke="#000000" points="491,-612.5 491,-642.5 840,-642.5 840,-612.5 491,-612.5"/>
<text text-anchor="start" x="498" y="-623.9" font-family="Arial" font-size="14.00" fill="#000000">id    </text>
<text text-anchor="start" x="543.094" y="-623.9" font-family="Arial" font-size="14.00" fill="#666666">[integer]</text>
<polygon fill="none" stroke="#000000" points="491,-582.5 491,-612.5 840,-612.5 840,-582.5 491,-582.5"/>
<text text-anchor="start" x="498" y="-593.9" font-family="Arial" font-size="14.00" fill="#000000">creator    </text>
<text text-anchor="start" x="575.7644" y="-593.9" font-family="Arial" font-size="14.00" fill="#666666">[integer]</text>
<polygon fill="none" stroke="#000000" points="491,-552.5 491,-582.5 840,-582.5 840,-552.5 491,-552.5"/>
<text text-anchor="start" x="498" y="-563.9" font-family="Arial" font-size="14.00" fill="#000000">create_time    </text>
<text text-anchor="start" x="605.3268" y="-563.9" font-family="Arial" font-size="14.00" fill="#666666">[timestamp with time zone]</text>
<polygon fill="none" stroke="#000000" points="491,-522.5 491,-552.5 840,-552.5 840,-522.5 491,-522.5"/>
<text text-anchor="start" x="498" y="-533.9" font-family="Arial" font-size="14.00" fill="#000000">process_start_time    </text>
<text text-anchor="start" x="650.4432" y="-533.9" font-family="Arial" font-size="14.00" fill="#666666">[timestamp with time zone]</text>
<polygon fill="none" stroke="#000000" points="491,-492.5 491,-522.5 840,-522.5 840,-492.5 491,-492.5"/>
<text text-anchor="start" x="498" y="-503.9" font-family="Arial" font-size="14.00" fill="#000000">process_end_time    </text>
<text text-anchor="start" x="646.5666" y="-503.9" font-family="Arial" font-size="14.00" fill="#666666">[timestamp with time zone]</text>
<polygon fill="none" stroke="#000000" points="491,-462.5 491,-492.5 840,-492.5 840,-462.5 491,-462.5"/>
<text text-anchor="start" x="498" y="-473.9" font-family="Arial" font-size="14.00" fill="#000000">last_update_time    </text>
<text text-anchor="start" x="638.7938" y="-473.9" font-family="Arial" font-size="14.00" fill="#666666">[timestamp with time zone]</text>
</g>
<!-- action.emergency_closing_circulation&#45;&gt;action.emergency_closing -->
<g id="edge1" class="edge">
<title>action.emergency_closing_circulation:emergency_closing&#45;&gt;action.emergency_closing:id</title>
<path fill="none" stroke="#000000" d="M657.7957,-1326.3645C530.5386,-1295.072 996.4283,-627.5 840,-627.5"/>
<polygon fill="#000000" stroke="#000000" points="658.0613,-1326.3939 667.5023,-1331.9724 663.0307,-1326.947 668,-1327.5 668,-1327.5 668,-1327.5 663.0307,-1326.947 668.4977,-1323.0276 658.0613,-1326.3939 658.0613,-1326.3939"/>
<text text-anchor="start" x="6.755" y="-1337.5" font-family="Arial" font-size="10.00" fill="#000000">FOREIGN KEY (emergency_closing) REFERENCES action.emergency_closing(id) ON DELETE CASCADE DEFERRABLE INITIALLY DEFERRED</text>
</g>
<!-- action.circulation -->
<g id="node3" class="node">
<title>action.circulation</title>
<polygon fill="#efefef" stroke="transparent" points="944,-1062.5 944,-1097.5 1276,-1097.5 1276,-1062.5 944,-1062.5"/>
<polygon fill="none" stroke="#000000" points="944,-1062.5 944,-1097.5 1276,-1097.5 1276,-1062.5 944,-1062.5"/>
<text text-anchor="start" x="979.2065" y="-1075.3" font-family="Arial Bold" font-size="18.00" fill="#000000">action.circulation</text>
<text text-anchor="start" x="1113.2255" y="-1075.3" font-family="Arial" font-size="14.00" fill="#000000">    </text>
<text text-anchor="start" x="1147.4303" y="-1075.3" font-family="Arial" font-size="14.00" fill="#666666">[BASE TABLE]</text>
<polygon fill="none" stroke="#000000" points="944,-1032.5 944,-1062.5 1276,-1062.5 1276,-1032.5 944,-1032.5"/>
<text text-anchor="start" x="951" y="-1043.9" font-family="Arial" font-size="14.00" fill="#000000">id    </text>
<text text-anchor="start" x="996.094" y="-1043.9" font-family="Arial" font-size="14.00" fill="#666666">[bigint]</text>
<polygon fill="none" stroke="#000000" points="944,-1002.5 944,-1032.5 1276,-1032.5 1276,-1002.5 944,-1002.5"/>
<text text-anchor="start" x="951" y="-1013.9" font-family="Arial" font-size="14.00" fill="#000000">usr    </text>
<text text-anchor="start" x="1004.648" y="-1013.9" font-family="Arial" font-size="14.00" fill="#666666">[integer]</text>
<polygon fill="none" stroke="#000000" points="944,-972.5 944,-1002.5 1276,-1002.5 1276,-972.5 944,-972.5"/>
<text text-anchor="start" x="951" y="-983.9" font-family="Arial" font-size="14.00" fill="#000000">xact_start    </text>
<text text-anchor="start" x="1045.885" y="-983.9" font-family="Arial" font-size="14.00" fill="#666666">[timestamp with time zone]</text>
<polygon fill="none" stroke="#000000" points="944,-942.5 944,-972.5 1276,-972.5 1276,-942.5 944,-942.5"/>
<text text-anchor="start" x="951" y="-953.9" font-family="Arial" font-size="14.00" fill="#000000">xact_finish    </text>
<text text-anchor="start" x="1051.3296" y="-953.9" font-family="Arial" font-size="14.00" fill="#666666">[timestamp with time zone]</text>
<polygon fill="none" stroke="#000000" points="944,-912.5 944,-942.5 1276,-942.5 1276,-912.5 944,-912.5"/>
<text text-anchor="start" x="951" y="-923.9" font-family="Arial" font-size="14.00" fill="#000000">unrecovered    </text>
<text text-anchor="start" x="1063.0042" y="-923.9" font-family="Arial" font-size="14.00" fill="#666666">[boolean]</text>
<polygon fill="none" stroke="#000000" points="944,-882.5 944,-912.5 1276,-912.5 1276,-882.5 944,-882.5"/>
<text text-anchor="start" x="951" y="-893.9" font-family="Arial" font-size="14.00" fill="#000000">target_copy    </text>
<text text-anchor="start" x="1058.3422" y="-893.9" font-family="Arial" font-size="14.00" fill="#666666">[bigint]</text>
<polygon fill="none" stroke="#000000" points="944,-852.5 944,-882.5 1276,-882.5 1276,-852.5 944,-852.5"/>
<text text-anchor="start" x="951" y="-863.9" font-family="Arial" font-size="14.00" fill="#000000">circ_lib    </text>
<text text-anchor="start" x="1028.7504" y="-863.9" font-family="Arial" font-size="14.00" fill="#666666">[integer]</text>
<polygon fill="none" stroke="#000000" points="944,-822.5 944,-852.5 1276,-852.5 1276,-822.5 944,-822.5"/>
<text text-anchor="start" x="951" y="-833.9" font-family="Arial" font-size="14.00" fill="#000000">circ_staff    </text>
<text text-anchor="start" x="1041.209" y="-833.9" font-family="Arial" font-size="14.00" fill="#666666">[integer]</text>
<polygon fill="none" stroke="#000000" points="944,-792.5 944,-822.5 1276,-822.5 1276,-792.5 944,-792.5"/>
<text text-anchor="start" x="951" y="-803.9" font-family="Arial" font-size="14.00" fill="#000000">checkin_staff    </text>
<text text-anchor="start" x="1066.8962" y="-803.9" font-family="Arial" font-size="14.00" fill="#666666">[integer]</text>
<polygon fill="none" stroke="#000000" points="944,-762.5 944,-792.5 1276,-792.5 1276,-762.5 944,-762.5"/>
<text text-anchor="start" x="951" y="-773.9" font-family="Arial" font-size="14.00" fill="#000000">checkin_lib    </text>
<text text-anchor="start" x="1054.4376" y="-773.9" font-family="Arial" font-size="14.00" fill="#666666">[integer]</text>
<polygon fill="none" stroke="#000000" points="944,-732.5 944,-762.5 1276,-762.5 1276,-732.5 944,-732.5"/>
<text text-anchor="start" x="951" y="-743.9" font-family="Arial" font-size="14.00" fill="#000000">renewal_remaining    </text>
<text text-anchor="start" x="1103.439" y="-743.9" font-family="Arial" font-size="14.00" fill="#666666">[integer]</text>
<polygon fill="none" stroke="#000000" points="944,-702.5 944,-732.5 1276,-732.5 1276,-702.5 944,-702.5"/>
<text text-anchor="start" x="951" y="-713.9" font-family="Arial" font-size="14.00" fill="#000000">grace_period    </text>
<text text-anchor="start" x="1066.8934" y="-713.9" font-family="Arial" font-size="14.00" fill="#666666">[interval]</text>
<polygon fill="none" stroke="#000000" points="944,-672.5 944,-702.5 1276,-702.5 1276,-672.5 944,-672.5"/>
<text text-anchor="start" x="951" y="-683.9" font-family="Arial" font-size="14.00" fill="#000000">due_date    </text>
<text text-anchor="start" x="1043.5736" y="-683.9" font-family="Arial" font-size="14.00" fill="#666666">[timestamp with time zone]</text>
<polygon fill="none" stroke="#000000" points="944,-642.5 944,-672.5 1276,-672.5 1276,-642.5 944,-642.5"/>
<text text-anchor="start" x="951" y="-653.9" font-family="Arial" font-size="14.00" fill="#000000">stop_fines_time    </text>
<text text-anchor="start" x="1083.2286" y="-653.9" font-family="Arial" font-size="14.00" fill="#666666">[timestamp with time zone]</text>
<polygon fill="none" stroke="#000000" points="944,-612.5 944,-642.5 1276,-642.5 1276,-612.5 944,-612.5"/>
<text text-anchor="start" x="951" y="-623.9" font-family="Arial" font-size="14.00" fill="#000000">checkin_time    </text>
<text text-anchor="start" x="1066.8822" y="-623.9" font-family="Arial" font-size="14.00" fill="#666666">[timestamp with time zone]</text>
<polygon fill="none" stroke="#000000" points="944,-582.5 944,-612.5 1276,-612.5 1276,-582.5 944,-582.5"/>
<text text-anchor="start" x="951" y="-593.9" font-family="Arial" font-size="14.00" fill="#000000">create_time    </text>
<text text-anchor="start" x="1058.3268" y="-593.9" font-family="Arial" font-size="14.00" fill="#666666">[timestamp with time zone]</text>
<polygon fill="none" stroke="#000000" points="944,-552.5 944,-582.5 1276,-582.5 1276,-552.5 944,-552.5"/>
<text text-anchor="start" x="951" y="-563.9" font-family="Arial" font-size="14.00" fill="#000000">duration    </text>
<text text-anchor="start" x="1035.7756" y="-563.9" font-family="Arial" font-size="14.00" fill="#666666">[interval]</text>
<polygon fill="none" stroke="#000000" points="944,-522.5 944,-552.5 1276,-552.5 1276,-522.5 944,-522.5"/>
<text text-anchor="start" x="951" y="-533.9" font-family="Arial" font-size="14.00" fill="#000000">fine_interval    </text>
<text text-anchor="start" x="1060.662" y="-533.9" font-family="Arial" font-size="14.00" fill="#666666">[interval]</text>
<polygon fill="none" stroke="#000000" points="944,-492.5 944,-522.5 1276,-522.5 1276,-492.5 944,-492.5"/>
<text text-anchor="start" x="951" y="-503.9" font-family="Arial" font-size="14.00" fill="#000000">recurring_fine    </text>
<text text-anchor="start" x="1070.7686" y="-503.9" font-family="Arial" font-size="14.00" fill="#666666">[numeric(6,2)]</text>
<polygon fill="none" stroke="#000000" points="944,-462.5 944,-492.5 1276,-492.5 1276,-462.5 944,-462.5"/>
<text text-anchor="start" x="951" y="-473.9" font-family="Arial" font-size="14.00" fill="#000000">max_fine    </text>
<text text-anchor="start" x="1041.993" y="-473.9" font-family="Arial" font-size="14.00" fill="#666666">[numeric(6,2)]</text>
<polygon fill="none" stroke="#000000" points="944,-432.5 944,-462.5 1276,-462.5 1276,-432.5 944,-432.5"/>
<text text-anchor="start" x="951" y="-443.9" font-family="Arial" font-size="14.00" fill="#000000">phone_renewal    </text>
<text text-anchor="start" x="1080.9046" y="-443.9" font-family="Arial" font-size="14.00" fill="#666666">[boolean]</text>
<polygon fill="none" stroke="#000000" points="944,-402.5 944,-432.5 1276,-432.5 1276,-402.5 944,-402.5"/>
<text text-anchor="start" x="951" y="-413.9" font-family="Arial" font-size="14.00" fill="#000000">desk_renewal    </text>
<text text-anchor="start" x="1071.5568" y="-413.9" font-family="Arial" font-size="14.00" fill="#666666">[boolean]</text>
<polygon fill="none" stroke="#000000" points="944,-372.5 944,-402.5 1276,-402.5 1276,-372.5 944,-372.5"/>
<text text-anchor="start" x="951" y="-383.9" font-family="Arial" font-size="14.00" fill="#000000">opac_renewal    </text>
<text text-anchor="start" x="1072.3394" y="-383.9" font-family="Arial" font-size="14.00" fill="#666666">[boolean]</text>
<polygon fill="none" stroke="#000000" points="944,-342.5 944,-372.5 1276,-372.5 1276,-342.5 944,-342.5"/>
<text text-anchor="start" x="951" y="-353.9" font-family="Arial" font-size="14.00" fill="#000000">duration_rule    </text>
<text text-anchor="start" x="1066.8906" y="-353.9" font-family="Arial" font-size="14.00" fill="#666666">[text]</text>
<polygon fill="none" stroke="#000000" points="944,-312.5 944,-342.5 1276,-342.5 1276,-312.5 944,-312.5"/>
<text text-anchor="start" x="951" y="-323.9" font-family="Arial" font-size="14.00" fill="#000000">recurring_fine_rule    </text>
<text text-anchor="start" x="1101.8836" y="-323.9" font-family="Arial" font-size="14.00" fill="#666666">[text]</text>
<polygon fill="none" stroke="#000000" points="944,-282.5 944,-312.5 1276,-312.5 1276,-282.5 944,-282.5"/>
<text text-anchor="start" x="951" y="-293.9" font-family="Arial" font-size="14.00" fill="#000000">max_fine_rule    </text>
<text text-anchor="start" x="1073.108" y="-293.9" font-family="Arial" font-size="14.00" fill="#666666">[text]</text>
<polygon fill="none" stroke="#000000" points="944,-252.5 944,-282.5 1276,-282.5 1276,-252.5 944,-252.5"/>
<text text-anchor="start" x="951" y="-263.9" font-family="Arial" font-size="14.00" fill="#000000">stop_fines    </text>
<text text-anchor="start" x="1049.0056" y="-263.9" font-family="Arial" font-size="14.00" fill="#666666">[text]</text>
<polygon fill="none" stroke="#000000" points="944,-222.5 944,-252.5 1276,-252.5 1276,-222.5 944,-222.5"/>
<text text-anchor="start" x="951" y="-233.9" font-family="Arial" font-size="14.00" fill="#000000">workstation    </text>
<text text-anchor="start" x="1055.9902" y="-233.9" font-family="Arial" font-size="14.00" fill="#666666">[integer]</text>
<polygon fill="none" stroke="#000000" points="944,-192.5 944,-222.5 1276,-222.5 1276,-192.5 944,-192.5"/>
<text text-anchor="start" x="951" y="-203.9" font-family="Arial" font-size="14.00" fill="#000000">checkin_workstation    </text>
<text text-anchor="start" x="1111.2272" y="-203.9" font-family="Arial" font-size="14.00" fill="#666666">[integer]</text>
<polygon fill="none" stroke="#000000" points="944,-162.5 944,-192.5 1276,-192.5 1276,-162.5 944,-162.5"/>
<text text-anchor="start" x="951" y="-173.9" font-family="Arial" font-size="14.00" fill="#000000">copy_location    </text>
<text text-anchor="start" x="1070.7868" y="-173.9" font-family="Arial" font-size="14.00" fill="#666666">[integer]</text>
<polygon fill="none" stroke="#000000" points="944,-132.5 944,-162.5 1276,-162.5 1276,-132.5 944,-132.5"/>
<text text-anchor="start" x="950.5428" y="-143.9" font-family="Arial" font-size="14.00" fill="#000000">checkin_scan_time    </text>
<text text-anchor="start" x="1103.7728" y="-143.9" font-family="Arial" font-size="14.00" fill="#666666">[timestamp with time zone]</text>
<polygon fill="none" stroke="#000000" points="944,-102.5 944,-132.5 1276,-132.5 1276,-102.5 944,-102.5"/>
<text text-anchor="start" x="951" y="-113.9" font-family="Arial" font-size="14.00" fill="#000000">parent_circ    </text>
<text text-anchor="start" x="1054.4362" y="-113.9" font-family="Arial" font-size="14.00" fill="#666666">[bigint]</text>
<polygon fill="none" stroke="#000000" points="944,-72.5 944,-102.5 1276,-102.5 1276,-72.5 944,-72.5"/>
<text text-anchor="start" x="951" y="-83.9" font-family="Arial" font-size="14.00" fill="#000000">auto_renewal    </text>
<text text-anchor="start" x="1069.23" y="-83.9" font-family="Arial" font-size="14.00" fill="#666666">[boolean]</text>
<polygon fill="none" stroke="#000000" points="944,-42.5 944,-72.5 1276,-72.5 1276,-42.5 944,-42.5"/>
<text text-anchor="start" x="951" y="-53.9" font-family="Arial" font-size="14.00" fill="#000000">auto_renewal_remaining    </text>
<text text-anchor="start" x="1138.46" y="-53.9" font-family="Arial" font-size="14.00" fill="#666666">[integer]</text>
</g>
<!-- action.emergency_closing_circulation&#45;&gt;action.circulation -->
<g id="edge2" class="edge">
<title>action.emergency_closing_circulation:circulation&#45;&gt;action.circulation:id</title>
<path fill="none" stroke="#000000" d="M1117.9712,-1296.4327C1158.7591,-1286.904 1139.2706,-1215.8795 1108,-1177 1061.2303,-1118.8503 990.7697,-1199.1497 944,-1141 917.9557,-1108.6186 902.4444,-1047.5 944,-1047.5"/>
<polygon fill="#000000" stroke="#000000" points="1117.9432,-1296.4357 1107.521,-1293.0256 1112.9716,-1296.9678 1108,-1297.5 1108,-1297.5 1108,-1297.5 1112.9716,-1296.9678 1108.479,-1301.9744 1117.9432,-1296.4357 1117.9432,-1296.4357"/>
<text text-anchor="start" x="1114.881" y="-1307.5" font-family="Arial" font-size="10.00" fill="#000000">FOREIGN KEY (circulation) REFERENCES action.circulation(id) ON DELETE CASCADE DEFERRABLE INITIALLY DEFERRED</text>
</g>
</g>
</svg>
