<?xml version="1.0" encoding="UTF-8" standalone="no"?>
<!DOCTYPE svg PUBLIC "-//W3C//DTD SVG 1.1//EN"
 "http://www.w3.org/Graphics/SVG/1.1/DTD/svg11.dtd">
<!-- Generated by graphviz version 2.40.1 (20161225.0304)
 -->
<!-- Title: action_trigger.event_def_group Pages: 1 -->
<svg width="1836pt" height="1199pt"
 viewBox="0.00 0.00 1836.00 1199.00" xmlns="http://www.w3.org/2000/svg" xmlns:xlink="http://www.w3.org/1999/xlink">
<g id="graph0" class="graph" transform="scale(1 1) rotate(0) translate(4 1195)">
<title>action_trigger.event_def_group</title>
<polygon fill="#ffffff" stroke="transparent" points="-4,4 -4,-1195 1832,-1195 1832,4 -4,4"/>
<!-- action_trigger.event_def_group -->
<g id="node1" class="node">
<title>action_trigger.event_def_group</title>
<polygon fill="#efefef" stroke="transparent" points="669,-742.5 669,-777.5 1059,-777.5 1059,-742.5 669,-742.5"/>
<polygon fill="none" stroke="#000000" points="669,-742.5 669,-777.5 1059,-777.5 1059,-742.5 669,-742.5"/>
<text text-anchor="start" x="675.6722" y="-755.3" font-family="Arial Bold" font-size="18.00" fill="#000000">action_trigger.event_def_group</text>
<text text-anchor="start" x="924.7598" y="-755.3" font-family="Arial" font-size="14.00" fill="#000000">    </text>
<text text-anchor="start" x="958.9646" y="-755.3" font-family="Arial" font-size="14.00" fill="#666666">[BASE TABLE]</text>
<polygon fill="none" stroke="#000000" points="669,-712.5 669,-742.5 1059,-742.5 1059,-712.5 669,-712.5"/>
<text text-anchor="start" x="676" y="-723.9" font-family="Arial" font-size="14.00" fill="#000000">id </text>
<text text-anchor="start" x="690.7798" y="-723.9" font-family="Arial" font-size="14.00" fill="#666666">[integer]</text>
<polygon fill="none" stroke="#000000" points="669,-682.5 669,-712.5 1059,-712.5 1059,-682.5 669,-682.5"/>
<text text-anchor="start" x="676" y="-693.9" font-family="Arial" font-size="14.00" fill="#000000">owner </text>
<text text-anchor="start" x="718.0056" y="-693.9" font-family="Arial" font-size="14.00" fill="#666666">[integer]</text>
<polygon fill="none" stroke="#000000" points="669,-652.5 669,-682.5 1059,-682.5 1059,-652.5 669,-652.5"/>
<text text-anchor="start" x="676" y="-663.9" font-family="Arial" font-size="14.00" fill="#000000">hook </text>
<text text-anchor="start" x="710.2384" y="-663.9" font-family="Arial" font-size="14.00" fill="#666666">[text]</text>
<polygon fill="none" stroke="#000000" points="669,-622.5 669,-652.5 1059,-652.5 1059,-622.5 669,-622.5"/>
<text text-anchor="start" x="676" y="-633.9" font-family="Arial" font-size="14.00" fill="#000000">active </text>
<text text-anchor="start" x="716.453" y="-633.9" font-family="Arial" font-size="14.00" fill="#666666">[boolean]</text>
<polygon fill="none" stroke="#000000" points="669,-592.5 669,-622.5 1059,-622.5 1059,-592.5 669,-592.5"/>
<text text-anchor="start" x="676" y="-603.9" font-family="Arial" font-size="14.00" fill="#000000">name </text>
<text text-anchor="start" x="714.899" y="-603.9" font-family="Arial" font-size="14.00" fill="#666666">[text]</text>
<polygon fill="none" stroke="#000000" stroke-width="3" points="667.5,-591.5 667.5,-779.5 1060.5,-779.5 1060.5,-591.5 667.5,-591.5"/>
</g>
<!-- actor.org_unit -->
<g id="node3" class="node">
<title>actor.org_unit</title>
<polygon fill="#efefef" stroke="transparent" points="550,-432.5 550,-467.5 801,-467.5 801,-432.5 550,-432.5"/>
<polygon fill="none" stroke="#000000" points="550,-432.5 550,-467.5 801,-467.5 801,-432.5 550,-432.5"/>
<text text-anchor="start" x="556.7017" y="-445.3" font-family="Arial Bold" font-size="18.00" fill="#000000">actor.org_unit</text>
<text text-anchor="start" x="666.7303" y="-445.3" font-family="Arial" font-size="14.00" fill="#000000">    </text>
<text text-anchor="start" x="700.9351" y="-445.3" font-family="Arial" font-size="14.00" fill="#666666">[BASE TABLE]</text>
<polygon fill="none" stroke="#000000" points="550,-402.5 550,-432.5 801,-432.5 801,-402.5 550,-402.5"/>
<text text-anchor="start" x="557" y="-413.9" font-family="Arial" font-size="14.00" fill="#000000">id    </text>
<text text-anchor="start" x="602.094" y="-413.9" font-family="Arial" font-size="14.00" fill="#666666">[integer]</text>
<polygon fill="none" stroke="#000000" points="550,-372.5 550,-402.5 801,-402.5 801,-372.5 550,-372.5"/>
<text text-anchor="start" x="557" y="-383.9" font-family="Arial" font-size="14.00" fill="#000000">parent_ou    </text>
<text text-anchor="start" x="654.2342" y="-383.9" font-family="Arial" font-size="14.00" fill="#666666">[integer]</text>
<polygon fill="none" stroke="#000000" points="550,-342.5 550,-372.5 801,-372.5 801,-342.5 550,-342.5"/>
<text text-anchor="start" x="557" y="-353.9" font-family="Arial" font-size="14.00" fill="#000000">ou_type    </text>
<text text-anchor="start" x="641.0084" y="-353.9" font-family="Arial" font-size="14.00" fill="#666666">[integer]</text>
<polygon fill="none" stroke="#000000" points="550,-312.5 550,-342.5 801,-342.5 801,-312.5 550,-312.5"/>
<text text-anchor="start" x="557" y="-323.9" font-family="Arial" font-size="14.00" fill="#000000">ill_address    </text>
<text text-anchor="start" x="658.0982" y="-323.9" font-family="Arial" font-size="14.00" fill="#666666">[integer]</text>
<polygon fill="none" stroke="#000000" points="550,-282.5 550,-312.5 801,-312.5 801,-282.5 550,-282.5"/>
<text text-anchor="start" x="557" y="-293.9" font-family="Arial" font-size="14.00" fill="#000000">holds_address    </text>
<text text-anchor="start" x="682.2328" y="-293.9" font-family="Arial" font-size="14.00" fill="#666666">[integer]</text>
<polygon fill="none" stroke="#000000" points="550,-252.5 550,-282.5 801,-282.5 801,-252.5 550,-252.5"/>
<text text-anchor="start" x="557" y="-263.9" font-family="Arial" font-size="14.00" fill="#000000">mailing_address    </text>
<text text-anchor="start" x="693.1066" y="-263.9" font-family="Arial" font-size="14.00" fill="#666666">[integer]</text>
<polygon fill="none" stroke="#000000" points="550,-222.5 550,-252.5 801,-252.5 801,-222.5 550,-222.5"/>
<text text-anchor="start" x="557" y="-233.9" font-family="Arial" font-size="14.00" fill="#000000">billing_address    </text>
<text text-anchor="start" x="684.5526" y="-233.9" font-family="Arial" font-size="14.00" fill="#666666">[integer]</text>
<polygon fill="none" stroke="#000000" points="550,-192.5 550,-222.5 801,-222.5 801,-192.5 550,-192.5"/>
<text text-anchor="start" x="557" y="-203.9" font-family="Arial" font-size="14.00" fill="#000000">shortname    </text>
<text text-anchor="start" x="657.3296" y="-203.9" font-family="Arial" font-size="14.00" fill="#666666">[text]</text>
<polygon fill="none" stroke="#000000" points="550,-162.5 550,-192.5 801,-192.5 801,-162.5 550,-162.5"/>
<text text-anchor="start" x="557" y="-173.9" font-family="Arial" font-size="14.00" fill="#000000">name    </text>
<text text-anchor="start" x="626.2132" y="-173.9" font-family="Arial" font-size="14.00" fill="#666666">[text]</text>
<polygon fill="none" stroke="#000000" points="550,-132.5 550,-162.5 801,-162.5 801,-132.5 550,-132.5"/>
<text text-anchor="start" x="557" y="-143.9" font-family="Arial" font-size="14.00" fill="#000000">email    </text>
<text text-anchor="start" x="624.6438" y="-143.9" font-family="Arial" font-size="14.00" fill="#666666">[text]</text>
<polygon fill="none" stroke="#000000" points="550,-102.5 550,-132.5 801,-132.5 801,-102.5 550,-102.5"/>
<text text-anchor="start" x="557" y="-113.9" font-family="Arial" font-size="14.00" fill="#000000">phone    </text>
<text text-anchor="start" x="630.1178" y="-113.9" font-family="Arial" font-size="14.00" fill="#666666">[text]</text>
<polygon fill="none" stroke="#000000" points="550,-72.5 550,-102.5 801,-102.5 801,-72.5 550,-72.5"/>
<text text-anchor="start" x="557" y="-83.9" font-family="Arial" font-size="14.00" fill="#000000">opac_visible    </text>
<text text-anchor="start" x="668.2202" y="-83.9" font-family="Arial" font-size="14.00" fill="#666666">[boolean]</text>
<polygon fill="none" stroke="#000000" points="550,-42.5 550,-72.5 801,-72.5 801,-42.5 550,-42.5"/>
<text text-anchor="start" x="557" y="-53.9" font-family="Arial" font-size="14.00" fill="#000000">fiscal_calendar    </text>
<text text-anchor="start" x="684.554" y="-53.9" font-family="Arial" font-size="14.00" fill="#666666">[integer]</text>
</g>
<!-- action_trigger.event_def_group&#45;&gt;actor.org_unit -->
<g id="edge2" class="edge">
<title>action_trigger.event_def_group:owner&#45;&gt;actor.org_unit:id</title>
<path fill="none" stroke="#000000" d="M658.8491,-696.6498C605.0291,-686.9853 630.6192,-597.25 669,-547 705.9109,-498.6744 764.0891,-559.3256 801,-511 826.224,-477.9755 842.5556,-417.5 801,-417.5"/>
<polygon fill="#000000" stroke="#000000" points="659.0349,-696.6652 668.6244,-701.9843 664.0174,-697.0826 669,-697.5 669,-697.5 669,-697.5 664.0174,-697.0826 669.3756,-693.0157 659.0349,-696.6652 659.0349,-696.6652"/>
<text text-anchor="start" x="7.4925" y="-707.5" font-family="Arial" font-size="10.00" fill="#000000">FOREIGN KEY (owner) REFERENCES actor.org_unit(id) ON UPDATE CASCADE ON DELETE RESTRICT DEFERRABLE INITIALLY DEFERRED</text>
</g>
<!-- action_trigger.hook -->
<g id="node4" class="node">
<title>action_trigger.hook</title>
<polygon fill="#efefef" stroke="transparent" points="905,-297.5 905,-332.5 1199,-332.5 1199,-297.5 905,-297.5"/>
<polygon fill="none" stroke="#000000" points="905,-297.5 905,-332.5 1199,-332.5 1199,-297.5 905,-297.5"/>
<text text-anchor="start" x="911.6953" y="-310.3" font-family="Arial Bold" font-size="18.00" fill="#000000">action_trigger.hook</text>
<text text-anchor="start" x="1064.7367" y="-310.3" font-family="Arial" font-size="14.00" fill="#000000">    </text>
<text text-anchor="start" x="1098.9415" y="-310.3" font-family="Arial" font-size="14.00" fill="#666666">[BASE TABLE]</text>
<polygon fill="none" stroke="#000000" points="905,-267.5 905,-297.5 1199,-297.5 1199,-267.5 905,-267.5"/>
<text text-anchor="start" x="912" y="-278.9" font-family="Arial" font-size="14.00" fill="#000000">key    </text>
<text text-anchor="start" x="967.9874" y="-278.9" font-family="Arial" font-size="14.00" fill="#666666">[text]</text>
<polygon fill="none" stroke="#000000" points="905,-237.5 905,-267.5 1199,-267.5 1199,-237.5 905,-237.5"/>
<text text-anchor="start" x="912" y="-248.9" font-family="Arial" font-size="14.00" fill="#000000">core_type    </text>
<text text-anchor="start" x="1007.669" y="-248.9" font-family="Arial" font-size="14.00" fill="#666666">[text]</text>
<polygon fill="none" stroke="#000000" points="905,-207.5 905,-237.5 1199,-237.5 1199,-207.5 905,-207.5"/>
<text text-anchor="start" x="912" y="-218.9" font-family="Arial" font-size="14.00" fill="#000000">description    </text>
<text text-anchor="start" x="1013.8822" y="-218.9" font-family="Arial" font-size="14.00" fill="#666666">[text]</text>
<polygon fill="none" stroke="#000000" points="905,-177.5 905,-207.5 1199,-207.5 1199,-177.5 905,-177.5"/>
<text text-anchor="start" x="912" y="-188.9" font-family="Arial" font-size="14.00" fill="#000000">passive    </text>
<text text-anchor="start" x="993.6592" y="-188.9" font-family="Arial" font-size="14.00" fill="#666666">[boolean]</text>
</g>
<!-- action_trigger.event_def_group&#45;&gt;action_trigger.hook -->
<g id="edge3" class="edge">
<title>action_trigger.event_def_group:hook&#45;&gt;action_trigger.hook:key</title>
<path fill="none" stroke="#000000" d="M1069.0288,-666.486C1107.7986,-657.687 1076.8454,-593.482 1059,-547 1022.3423,-451.5178 941.6577,-471.4822 905,-376 890.1059,-337.2053 863.4444,-282.5 905,-282.5"/>
<polygon fill="#000000" stroke="#000000" points="1068.9493,-666.4939 1058.5473,-663.0228 1063.9746,-666.997 1059,-667.5 1059,-667.5 1059,-667.5 1063.9746,-666.997 1059.4527,-671.9772 1068.9493,-666.4939 1068.9493,-666.4939"/>
<text text-anchor="start" x="1066.428" y="-677.5" font-family="Arial" font-size="10.00" fill="#000000">FOREIGN KEY (hook) REFERENCES action_trigger.hook(key) ON UPDATE CASCADE ON DELETE RESTRICT DEFERRABLE INITIALLY DEFERRED</text>
</g>
<!-- action_trigger.event_def_group_member -->
<g id="node2" class="node">
<title>action_trigger.event_def_group_member</title>
<polygon fill="#efefef" stroke="transparent" points="631,-1112.5 631,-1147.5 1097,-1147.5 1097,-1112.5 631,-1112.5"/>
<polygon fill="none" stroke="#000000" points="631,-1112.5 631,-1147.5 1097,-1147.5 1097,-1112.5 631,-1112.5"/>
<text text-anchor="start" x="637.6715" y="-1125.3" font-family="Arial Bold" font-size="18.00" fill="#000000">action_trigger.event_def_group_member</text>
<text text-anchor="start" x="962.7605" y="-1125.3" font-family="Arial" font-size="14.00" fill="#000000">    </text>
<text text-anchor="start" x="996.9653" y="-1125.3" font-family="Arial" font-size="14.00" fill="#666666">[BASE TABLE]</text>
<polygon fill="none" stroke="#000000" points="631,-1082.5 631,-1112.5 1097,-1112.5 1097,-1082.5 631,-1082.5"/>
<text text-anchor="start" x="638" y="-1093.9" font-family="Arial" font-size="14.00" fill="#000000">id    </text>
<text text-anchor="start" x="683.094" y="-1093.9" font-family="Arial" font-size="14.00" fill="#666666">[integer]</text>
<polygon fill="none" stroke="#000000" points="631,-1052.5 631,-1082.5 1097,-1082.5 1097,-1052.5 631,-1052.5"/>
<text text-anchor="start" x="638" y="-1063.9" font-family="Arial" font-size="14.00" fill="#000000">grp    </text>
<text text-anchor="start" x="692.4306" y="-1063.9" font-family="Arial" font-size="14.00" fill="#666666">[integer]</text>
<polygon fill="none" stroke="#000000" points="631,-1022.5 631,-1052.5 1097,-1052.5 1097,-1022.5 631,-1022.5"/>
<text text-anchor="start" x="638" y="-1033.9" font-family="Arial" font-size="14.00" fill="#000000">event_def    </text>
<text text-anchor="start" x="733.6816" y="-1033.9" font-family="Arial" font-size="14.00" fill="#666666">[integer]</text>
<polygon fill="none" stroke="#000000" points="631,-992.5 631,-1022.5 1097,-1022.5 1097,-992.5 631,-992.5"/>
<text text-anchor="start" x="638" y="-1003.9" font-family="Arial" font-size="14.00" fill="#000000">sortable    </text>
<text text-anchor="start" x="721.993" y="-1003.9" font-family="Arial" font-size="14.00" fill="#666666">[boolean]</text>
<polygon fill="none" stroke="#000000" points="631,-962.5 631,-992.5 1097,-992.5 1097,-962.5 631,-962.5"/>
<text text-anchor="start" x="638" y="-973.9" font-family="Arial" font-size="14.00" fill="#000000">holdings    </text>
<text text-anchor="start" x="724.331" y="-973.9" font-family="Arial" font-size="14.00" fill="#666666">[boolean]</text>
<polygon fill="none" stroke="#000000" points="631,-932.5 631,-962.5 1097,-962.5 1097,-932.5 631,-932.5"/>
<text text-anchor="start" x="638" y="-943.9" font-family="Arial" font-size="14.00" fill="#000000">external    </text>
<text text-anchor="start" x="721.993" y="-943.9" font-family="Arial" font-size="14.00" fill="#666666">[boolean]</text>
<polygon fill="none" stroke="#000000" points="631,-902.5 631,-932.5 1097,-932.5 1097,-902.5 631,-902.5"/>
<text text-anchor="start" x="638" y="-913.9" font-family="Arial" font-size="14.00" fill="#000000">name    </text>
<text text-anchor="start" x="707.2132" y="-913.9" font-family="Arial" font-size="14.00" fill="#666666">[text]</text>
</g>
<!-- action_trigger.event_def_group_member&#45;&gt;action_trigger.event_def_group -->
<g id="edge1" class="edge">
<title>action_trigger.event_def_group_member:grp&#45;&gt;action_trigger.event_def_group:id</title>
<path fill="none" stroke="#000000" d="M1107.3789,-1066.9485C1247.2081,-1051.7493 1207.4883,-727.5 1059,-727.5"/>
<polygon fill="#000000" stroke="#000000" points="1106.9859,-1066.9692 1096.7612,-1063.0063 1101.993,-1067.2346 1097,-1067.5 1097,-1067.5 1097,-1067.5 1101.993,-1067.2346 1097.2388,-1071.9937 1106.9859,-1066.9692 1106.9859,-1066.9692"/>
<text text-anchor="start" x="1104.0835" y="-1077.5" font-family="Arial" font-size="10.00" fill="#000000">FOREIGN KEY (grp) REFERENCES action_trigger.event_def_group(id) ON UPDATE CASCADE ON DELETE CASCADE DEFERRABLE INITIALLY DEFERRED</text>
</g>
</g>
</svg>
