<?xml version="1.0" encoding="UTF-8" standalone="no"?>
<!DOCTYPE svg PUBLIC "-//W3C//DTD SVG 1.1//EN"
 "http://www.w3.org/Graphics/SVG/1.1/DTD/svg11.dtd">
<!-- Generated by graphviz version 2.40.1 (20161225.0304)
 -->
<!-- Title: action.hold_transit_copy Pages: 1 -->
<svg width="795pt" height="1762pt"
 viewBox="0.00 0.00 794.50 1762.00" xmlns="http://www.w3.org/2000/svg" xmlns:xlink="http://www.w3.org/1999/xlink">
<g id="graph0" class="graph" transform="scale(1 1) rotate(0) translate(4 1758)">
<title>action.hold_transit_copy</title>
<polygon fill="#ffffff" stroke="transparent" points="-4,4 -4,-1758 790.5,-1758 790.5,4 -4,4"/>
<!-- action.hold_transit_copy -->
<g id="node1" class="node">
<title>action.hold_transit_copy</title>
<polygon fill="#efefef" stroke="transparent" points="46.5,-1672.5 46.5,-1707.5 381.5,-1707.5 381.5,-1672.5 46.5,-1672.5"/>
<polygon fill="none" stroke="#000000" points="46.5,-1672.5 46.5,-1707.5 381.5,-1707.5 381.5,-1672.5 46.5,-1672.5"/>
<text text-anchor="start" x="53.187" y="-1685.3" font-family="Arial Bold" font-size="18.00" fill="#000000">action.hold_transit_copy</text>
<text text-anchor="start" x="247.245" y="-1685.3" font-family="Arial" font-size="14.00" fill="#000000">    </text>
<text text-anchor="start" x="281.4498" y="-1685.3" font-family="Arial" font-size="14.00" fill="#666666">[BASE TABLE]</text>
<polygon fill="none" stroke="#000000" points="46.5,-1642.5 46.5,-1672.5 381.5,-1672.5 381.5,-1642.5 46.5,-1642.5"/>
<text text-anchor="start" x="53.5" y="-1653.9" font-family="Arial" font-size="14.00" fill="#000000">id </text>
<text text-anchor="start" x="68.2798" y="-1653.9" font-family="Arial" font-size="14.00" fill="#666666">[integer]</text>
<polygon fill="none" stroke="#000000" points="46.5,-1612.5 46.5,-1642.5 381.5,-1642.5 381.5,-1612.5 46.5,-1612.5"/>
<text text-anchor="start" x="53.5" y="-1623.9" font-family="Arial" font-size="14.00" fill="#000000">source_send_time </text>
<text text-anchor="start" x="171.7524" y="-1623.9" font-family="Arial" font-size="14.00" fill="#666666">[timestamp with time zone]</text>
<polygon fill="none" stroke="#000000" points="46.5,-1582.5 46.5,-1612.5 381.5,-1612.5 381.5,-1582.5 46.5,-1582.5"/>
<text text-anchor="start" x="53.5" y="-1593.9" font-family="Arial" font-size="14.00" fill="#000000">dest_recv_time </text>
<text text-anchor="start" x="152.2952" y="-1593.9" font-family="Arial" font-size="14.00" fill="#666666">[timestamp with time zone]</text>
<polygon fill="none" stroke="#000000" points="46.5,-1552.5 46.5,-1582.5 381.5,-1582.5 381.5,-1552.5 46.5,-1552.5"/>
<text text-anchor="start" x="53.5" y="-1563.9" font-family="Arial" font-size="14.00" fill="#000000">target_copy </text>
<text text-anchor="start" x="130.528" y="-1563.9" font-family="Arial" font-size="14.00" fill="#666666">[bigint]</text>
<polygon fill="none" stroke="#000000" points="46.5,-1522.5 46.5,-1552.5 381.5,-1552.5 381.5,-1522.5 46.5,-1522.5"/>
<text text-anchor="start" x="53.5" y="-1533.9" font-family="Arial" font-size="14.00" fill="#000000">source </text>
<text text-anchor="start" x="99.399" y="-1533.9" font-family="Arial" font-size="14.00" fill="#666666">[integer]</text>
<polygon fill="none" stroke="#000000" points="46.5,-1492.5 46.5,-1522.5 381.5,-1522.5 381.5,-1492.5 46.5,-1492.5"/>
<text text-anchor="start" x="53.5" y="-1503.9" font-family="Arial" font-size="14.00" fill="#000000">dest </text>
<text text-anchor="start" x="83.8464" y="-1503.9" font-family="Arial" font-size="14.00" fill="#666666">[integer]</text>
<polygon fill="none" stroke="#000000" points="46.5,-1462.5 46.5,-1492.5 381.5,-1492.5 381.5,-1462.5 46.5,-1462.5"/>
<text text-anchor="start" x="53.5" y="-1473.9" font-family="Arial" font-size="14.00" fill="#000000">prev_hop </text>
<text text-anchor="start" x="115.7468" y="-1473.9" font-family="Arial" font-size="14.00" fill="#666666">[integer]</text>
<polygon fill="none" stroke="#000000" points="46.5,-1432.5 46.5,-1462.5 381.5,-1462.5 381.5,-1432.5 46.5,-1432.5"/>
<text text-anchor="start" x="53.5" y="-1443.9" font-family="Arial" font-size="14.00" fill="#000000">copy_status </text>
<text text-anchor="start" x="132.0848" y="-1443.9" font-family="Arial" font-size="14.00" fill="#666666">[integer]</text>
<polygon fill="none" stroke="#000000" points="46.5,-1402.5 46.5,-1432.5 381.5,-1432.5 381.5,-1402.5 46.5,-1402.5"/>
<text text-anchor="start" x="53.5" y="-1413.9" font-family="Arial" font-size="14.00" fill="#000000">persistant_transfer </text>
<text text-anchor="start" x="173.3022" y="-1413.9" font-family="Arial" font-size="14.00" fill="#666666">[boolean]</text>
<polygon fill="none" stroke="#000000" points="46.5,-1372.5 46.5,-1402.5 381.5,-1402.5 381.5,-1372.5 46.5,-1372.5"/>
<text text-anchor="start" x="53.5" y="-1383.9" font-family="Arial" font-size="14.00" fill="#000000">prev_dest </text>
<text text-anchor="start" x="118.8548" y="-1383.9" font-family="Arial" font-size="14.00" fill="#666666">[integer]</text>
<polygon fill="none" stroke="#000000" points="46.5,-1342.5 46.5,-1372.5 381.5,-1372.5 381.5,-1342.5 46.5,-1342.5"/>
<text text-anchor="start" x="53.5" y="-1353.9" font-family="Arial" font-size="14.00" fill="#000000">cancel_time </text>
<text text-anchor="start" x="132.068" y="-1353.9" font-family="Arial" font-size="14.00" fill="#666666">[timestamp with time zone]</text>
<polygon fill="none" stroke="#000000" points="46.5,-1312.5 46.5,-1342.5 381.5,-1342.5 381.5,-1312.5 46.5,-1312.5"/>
<text text-anchor="start" x="53.5" y="-1323.9" font-family="Arial" font-size="14.00" fill="#000000">hold </text>
<text text-anchor="start" x="83.845" y="-1323.9" font-family="Arial" font-size="14.00" fill="#666666">[integer]</text>
<polygon fill="none" stroke="#000000" stroke-width="3" points="44.5,-1311.5 44.5,-1709.5 382.5,-1709.5 382.5,-1311.5 44.5,-1311.5"/>
</g>
<!-- action.hold_request -->
<g id="node2" class="node">
<title>action.hold_request</title>
<polygon fill="#efefef" stroke="transparent" points="52.5,-1152.5 52.5,-1187.5 375.5,-1187.5 375.5,-1152.5 52.5,-1152.5"/>
<polygon fill="none" stroke="#000000" points="52.5,-1152.5 52.5,-1187.5 375.5,-1187.5 375.5,-1152.5 52.5,-1152.5"/>
<text text-anchor="start" x="71.6883" y="-1165.3" font-family="Arial Bold" font-size="18.00" fill="#000000">action.hold_request</text>
<text text-anchor="start" x="228.7437" y="-1165.3" font-family="Arial" font-size="14.00" fill="#000000">    </text>
<text text-anchor="start" x="262.9485" y="-1165.3" font-family="Arial" font-size="14.00" fill="#666666">[BASE TABLE]</text>
<polygon fill="none" stroke="#000000" points="52.5,-1122.5 52.5,-1152.5 375.5,-1152.5 375.5,-1122.5 52.5,-1122.5"/>
<text text-anchor="start" x="59.5" y="-1133.9" font-family="Arial" font-size="14.00" fill="#000000">id    </text>
<text text-anchor="start" x="104.594" y="-1133.9" font-family="Arial" font-size="14.00" fill="#666666">[integer]</text>
<polygon fill="none" stroke="#000000" points="52.5,-1092.5 52.5,-1122.5 375.5,-1122.5 375.5,-1092.5 52.5,-1092.5"/>
<text text-anchor="start" x="59.5" y="-1103.9" font-family="Arial" font-size="14.00" fill="#000000">request_time    </text>
<text text-anchor="start" x="174.6094" y="-1103.9" font-family="Arial" font-size="14.00" fill="#666666">[timestamp with time zone]</text>
<polygon fill="none" stroke="#000000" points="52.5,-1062.5 52.5,-1092.5 375.5,-1092.5 375.5,-1062.5 52.5,-1062.5"/>
<text text-anchor="start" x="59.5" y="-1073.9" font-family="Arial" font-size="14.00" fill="#000000">capture_time    </text>
<text text-anchor="start" x="174.6094" y="-1073.9" font-family="Arial" font-size="14.00" fill="#666666">[timestamp with time zone]</text>
<polygon fill="none" stroke="#000000" points="52.5,-1032.5 52.5,-1062.5 375.5,-1062.5 375.5,-1032.5 52.5,-1032.5"/>
<text text-anchor="start" x="59.5" y="-1043.9" font-family="Arial" font-size="14.00" fill="#000000">fulfillment_time    </text>
<text text-anchor="start" x="187.0344" y="-1043.9" font-family="Arial" font-size="14.00" fill="#666666">[timestamp with time zone]</text>
<polygon fill="none" stroke="#000000" points="52.5,-1002.5 52.5,-1032.5 375.5,-1032.5 375.5,-1002.5 52.5,-1002.5"/>
<text text-anchor="start" x="59.5" y="-1013.9" font-family="Arial" font-size="14.00" fill="#000000">checkin_time    </text>
<text text-anchor="start" x="175.3822" y="-1013.9" font-family="Arial" font-size="14.00" fill="#666666">[timestamp with time zone]</text>
<polygon fill="none" stroke="#000000" points="52.5,-972.5 52.5,-1002.5 375.5,-1002.5 375.5,-972.5 52.5,-972.5"/>
<text text-anchor="start" x="59.5" y="-983.9" font-family="Arial" font-size="14.00" fill="#000000">return_time    </text>
<text text-anchor="start" x="164.4874" y="-983.9" font-family="Arial" font-size="14.00" fill="#666666">[timestamp with time zone]</text>
<polygon fill="none" stroke="#000000" points="52.5,-942.5 52.5,-972.5 375.5,-972.5 375.5,-942.5 52.5,-942.5"/>
<text text-anchor="start" x="59.5" y="-953.9" font-family="Arial" font-size="14.00" fill="#000000">prev_check_time    </text>
<text text-anchor="start" x="199.5014" y="-953.9" font-family="Arial" font-size="14.00" fill="#666666">[timestamp with time zone]</text>
<polygon fill="none" stroke="#000000" points="52.5,-912.5 52.5,-942.5 375.5,-942.5 375.5,-912.5 52.5,-912.5"/>
<text text-anchor="start" x="59.5" y="-923.9" font-family="Arial" font-size="14.00" fill="#000000">expire_time    </text>
<text text-anchor="start" x="166.0428" y="-923.9" font-family="Arial" font-size="14.00" fill="#666666">[timestamp with time zone]</text>
<polygon fill="none" stroke="#000000" points="52.5,-882.5 52.5,-912.5 375.5,-912.5 375.5,-882.5 52.5,-882.5"/>
<text text-anchor="start" x="59.5" y="-893.9" font-family="Arial" font-size="14.00" fill="#000000">cancel_time    </text>
<text text-anchor="start" x="168.3822" y="-893.9" font-family="Arial" font-size="14.00" fill="#666666">[timestamp with time zone]</text>
<polygon fill="none" stroke="#000000" points="52.5,-852.5 52.5,-882.5 375.5,-882.5 375.5,-852.5 52.5,-852.5"/>
<text text-anchor="start" x="59.5" y="-863.9" font-family="Arial" font-size="14.00" fill="#000000">cancel_cause    </text>
<text text-anchor="start" x="179.2896" y="-863.9" font-family="Arial" font-size="14.00" fill="#666666">[integer]</text>
<polygon fill="none" stroke="#000000" points="52.5,-822.5 52.5,-852.5 375.5,-852.5 375.5,-822.5 52.5,-822.5"/>
<text text-anchor="start" x="59.5" y="-833.9" font-family="Arial" font-size="14.00" fill="#000000">cancel_note    </text>
<text text-anchor="start" x="169.1802" y="-833.9" font-family="Arial" font-size="14.00" fill="#666666">[text]</text>
<polygon fill="none" stroke="#000000" points="52.5,-792.5 52.5,-822.5 375.5,-822.5 375.5,-792.5 52.5,-792.5"/>
<text text-anchor="start" x="59.5" y="-803.9" font-family="Arial" font-size="14.00" fill="#000000">target    </text>
<text text-anchor="start" x="129.4944" y="-803.9" font-family="Arial" font-size="14.00" fill="#666666">[bigint]</text>
<polygon fill="none" stroke="#000000" points="52.5,-762.5 52.5,-792.5 375.5,-792.5 375.5,-762.5 52.5,-762.5"/>
<text text-anchor="start" x="59.5" y="-773.9" font-family="Arial" font-size="14.00" fill="#000000">current_copy    </text>
<text text-anchor="start" x="174.6122" y="-773.9" font-family="Arial" font-size="14.00" fill="#666666">[bigint]</text>
<polygon fill="none" stroke="#000000" points="52.5,-732.5 52.5,-762.5 375.5,-762.5 375.5,-732.5 52.5,-732.5"/>
<text text-anchor="start" x="59.5" y="-743.9" font-family="Arial" font-size="14.00" fill="#000000">fulfillment_staff    </text>
<text text-anchor="start" x="187.0484" y="-743.9" font-family="Arial" font-size="14.00" fill="#666666">[integer]</text>
<polygon fill="none" stroke="#000000" points="52.5,-702.5 52.5,-732.5 375.5,-732.5 375.5,-702.5 52.5,-702.5"/>
<text text-anchor="start" x="59.5" y="-713.9" font-family="Arial" font-size="14.00" fill="#000000">fulfillment_lib    </text>
<text text-anchor="start" x="174.5898" y="-713.9" font-family="Arial" font-size="14.00" fill="#666666">[integer]</text>
<polygon fill="none" stroke="#000000" points="52.5,-672.5 52.5,-702.5 375.5,-702.5 375.5,-672.5 52.5,-672.5"/>
<text text-anchor="start" x="59.5" y="-683.9" font-family="Arial" font-size="14.00" fill="#000000">request_lib    </text>
<text text-anchor="start" x="162.1648" y="-683.9" font-family="Arial" font-size="14.00" fill="#666666">[integer]</text>
<polygon fill="none" stroke="#000000" points="52.5,-642.5 52.5,-672.5 375.5,-672.5 375.5,-642.5 52.5,-642.5"/>
<text text-anchor="start" x="59.5" y="-653.9" font-family="Arial" font-size="14.00" fill="#000000">requestor    </text>
<text text-anchor="start" x="152.8296" y="-653.9" font-family="Arial" font-size="14.00" fill="#666666">[integer]</text>
<polygon fill="none" stroke="#000000" points="52.5,-612.5 52.5,-642.5 375.5,-642.5 375.5,-612.5 52.5,-612.5"/>
<text text-anchor="start" x="59.5" y="-623.9" font-family="Arial" font-size="14.00" fill="#000000">usr    </text>
<text text-anchor="start" x="113.148" y="-623.9" font-family="Arial" font-size="14.00" fill="#666666">[integer]</text>
<polygon fill="none" stroke="#000000" points="52.5,-582.5 52.5,-612.5 375.5,-612.5 375.5,-582.5 52.5,-582.5"/>
<text text-anchor="start" x="59.5" y="-593.9" font-family="Arial" font-size="14.00" fill="#000000">selection_ou    </text>
<text text-anchor="start" x="172.2868" y="-593.9" font-family="Arial" font-size="14.00" fill="#666666">[integer]</text>
<polygon fill="none" stroke="#000000" points="52.5,-552.5 52.5,-582.5 375.5,-582.5 375.5,-552.5 52.5,-552.5"/>
<text text-anchor="start" x="59.5" y="-563.9" font-family="Arial" font-size="14.00" fill="#000000">selection_depth    </text>
<text text-anchor="start" x="191.7426" y="-563.9" font-family="Arial" font-size="14.00" fill="#666666">[integer]</text>
<polygon fill="none" stroke="#000000" points="52.5,-522.5 52.5,-552.5 375.5,-552.5 375.5,-522.5 52.5,-522.5"/>
<text text-anchor="start" x="59.5" y="-533.9" font-family="Arial" font-size="14.00" fill="#000000">pickup_lib    </text>
<text text-anchor="start" x="155.9376" y="-533.9" font-family="Arial" font-size="14.00" fill="#666666">[integer]</text>
<polygon fill="none" stroke="#000000" points="52.5,-492.5 52.5,-522.5 375.5,-522.5 375.5,-492.5 52.5,-492.5"/>
<text text-anchor="start" x="59.5" y="-503.9" font-family="Arial" font-size="14.00" fill="#000000">hold_type    </text>
<text text-anchor="start" x="154.3976" y="-503.9" font-family="Arial" font-size="14.00" fill="#666666">[text]</text>
<polygon fill="none" stroke="#000000" points="52.5,-462.5 52.5,-492.5 375.5,-492.5 375.5,-462.5 52.5,-462.5"/>
<text text-anchor="start" x="59.5" y="-473.9" font-family="Arial" font-size="14.00" fill="#000000">holdable_formats    </text>
<text text-anchor="start" x="201.0638" y="-473.9" font-family="Arial" font-size="14.00" fill="#666666">[text]</text>
<polygon fill="none" stroke="#000000" points="52.5,-432.5 52.5,-462.5 375.5,-462.5 375.5,-432.5 52.5,-432.5"/>
<text text-anchor="start" x="59.5" y="-443.9" font-family="Arial" font-size="14.00" fill="#000000">phone_notify    </text>
<text text-anchor="start" x="173.8534" y="-443.9" font-family="Arial" font-size="14.00" fill="#666666">[text]</text>
<polygon fill="none" stroke="#000000" points="52.5,-402.5 52.5,-432.5 375.5,-432.5 375.5,-402.5 52.5,-402.5"/>
<text text-anchor="start" x="59.5" y="-413.9" font-family="Arial" font-size="14.00" fill="#000000">email_notify    </text>
<text text-anchor="start" x="168.3794" y="-413.9" font-family="Arial" font-size="14.00" fill="#666666">[boolean]</text>
<polygon fill="none" stroke="#000000" points="52.5,-372.5 52.5,-402.5 375.5,-402.5 375.5,-372.5 52.5,-372.5"/>
<text text-anchor="start" x="59.5" y="-383.9" font-family="Arial" font-size="14.00" fill="#000000">sms_notify    </text>
<text text-anchor="start" x="160.601" y="-383.9" font-family="Arial" font-size="14.00" fill="#666666">[text]</text>
<polygon fill="none" stroke="#000000" points="52.5,-342.5 52.5,-372.5 375.5,-372.5 375.5,-342.5 52.5,-342.5"/>
<text text-anchor="start" x="59.5" y="-353.9" font-family="Arial" font-size="14.00" fill="#000000">sms_carrier    </text>
<text text-anchor="start" x="166.8016" y="-353.9" font-family="Arial" font-size="14.00" fill="#666666">[integer]</text>
<polygon fill="none" stroke="#000000" points="52.5,-312.5 52.5,-342.5 375.5,-342.5 375.5,-312.5 52.5,-312.5"/>
<text text-anchor="start" x="59.5" y="-323.9" font-family="Arial" font-size="14.00" fill="#000000">frozen    </text>
<text text-anchor="start" x="132.6038" y="-323.9" font-family="Arial" font-size="14.00" fill="#666666">[boolean]</text>
<polygon fill="none" stroke="#000000" points="52.5,-282.5 52.5,-312.5 375.5,-312.5 375.5,-282.5 52.5,-282.5"/>
<text text-anchor="start" x="59.5" y="-293.9" font-family="Arial" font-size="14.00" fill="#000000">thaw_date    </text>
<text text-anchor="start" x="158.2882" y="-293.9" font-family="Arial" font-size="14.00" fill="#666666">[timestamp with time zone]</text>
<polygon fill="none" stroke="#000000" points="52.5,-252.5 52.5,-282.5 375.5,-282.5 375.5,-252.5 52.5,-252.5"/>
<text text-anchor="start" x="59.5" y="-263.9" font-family="Arial" font-size="14.00" fill="#000000">shelf_time    </text>
<text text-anchor="start" x="157.4902" y="-263.9" font-family="Arial" font-size="14.00" fill="#666666">[timestamp with time zone]</text>
<polygon fill="none" stroke="#000000" points="52.5,-222.5 52.5,-252.5 375.5,-252.5 375.5,-222.5 52.5,-222.5"/>
<text text-anchor="start" x="59.5" y="-233.9" font-family="Arial" font-size="14.00" fill="#000000">cut_in_line    </text>
<text text-anchor="start" x="160.6108" y="-233.9" font-family="Arial" font-size="14.00" fill="#666666">[boolean]</text>
<polygon fill="none" stroke="#000000" points="52.5,-192.5 52.5,-222.5 375.5,-222.5 375.5,-192.5 52.5,-192.5"/>
<text text-anchor="start" x="59.5" y="-203.9" font-family="Arial" font-size="14.00" fill="#000000">mint_condition    </text>
<text text-anchor="start" x="183.9446" y="-203.9" font-family="Arial" font-size="14.00" fill="#666666">[boolean]</text>
<polygon fill="none" stroke="#000000" points="52.5,-162.5 52.5,-192.5 375.5,-192.5 375.5,-162.5 52.5,-162.5"/>
<text text-anchor="start" x="59.2139" y="-173.9" font-family="Arial" font-size="14.00" fill="#000000">shelf_expire_time    </text>
<text text-anchor="start" x="203.1017" y="-173.9" font-family="Arial" font-size="14.00" fill="#666666">[timestamp with time zone]</text>
<polygon fill="none" stroke="#000000" points="52.5,-132.5 52.5,-162.5 375.5,-162.5 375.5,-132.5 52.5,-132.5"/>
<text text-anchor="start" x="59.5" y="-143.9" font-family="Arial" font-size="14.00" fill="#000000">current_shelf_lib    </text>
<text text-anchor="start" x="196.3878" y="-143.9" font-family="Arial" font-size="14.00" fill="#666666">[integer]</text>
<polygon fill="none" stroke="#000000" points="52.5,-102.5 52.5,-132.5 375.5,-132.5 375.5,-102.5 52.5,-102.5"/>
<text text-anchor="start" x="59.5" y="-113.9" font-family="Arial" font-size="14.00" fill="#000000">behind_desk    </text>
<text text-anchor="start" x="173.0722" y="-113.9" font-family="Arial" font-size="14.00" fill="#666666">[boolean]</text>
<polygon fill="none" stroke="#000000" points="52.5,-72.5 52.5,-102.5 375.5,-102.5 375.5,-72.5 52.5,-72.5"/>
<text text-anchor="start" x="59.5" y="-83.9" font-family="Arial" font-size="14.00" fill="#000000">acq_request    </text>
<text text-anchor="start" x="170.7342" y="-83.9" font-family="Arial" font-size="14.00" fill="#666666">[integer]</text>
<polygon fill="none" stroke="#000000" points="52.5,-42.5 52.5,-72.5 375.5,-72.5 375.5,-42.5 52.5,-42.5"/>
<text text-anchor="start" x="59.5" y="-53.9" font-family="Arial" font-size="14.00" fill="#000000">hopeless_date    </text>
<text text-anchor="start" x="184.7454" y="-53.9" font-family="Arial" font-size="14.00" fill="#666666">[timestamp with time zone]</text>
</g>
<!-- action.hold_transit_copy&#45;&gt;action.hold_request -->
<g id="edge1" class="edge">
<title>action.hold_transit_copy:hold&#45;&gt;action.hold_request:id</title>
<path fill="none" stroke="#000000" d="M213.7931,-1302.5102C203.9009,-1237.7102 92.8887,-1296.5308 52.5,-1231 30.6966,-1195.6238 10.9444,-1137.5 52.5,-1137.5"/>
<polygon fill="#000000" stroke="#000000" points="213.7941,-1302.5249 210.0112,-1312.8177 214.147,-1307.5125 214.5,-1312.5 214.5,-1312.5 214.5,-1312.5 214.147,-1307.5125 218.9888,-1312.1823 213.7941,-1302.5249 213.7941,-1302.5249"/>
<text text-anchor="start" x="221.31" y="-1322.5" font-family="Arial" font-size="10.00" fill="#000000">FOREIGN KEY (hold) REFERENCES action.hold_request(id) ON DELETE SET NULL DEFERRABLE INITIALLY DEFERRED</text>
</g>
</g>
</svg>
