<?xml version="1.0" encoding="UTF-8" standalone="no"?>
<!DOCTYPE svg PUBLIC "-//W3C//DTD SVG 1.1//EN"
 "http://www.w3.org/Graphics/SVG/1.1/DTD/svg11.dtd">
<!-- Generated by graphviz version 2.40.1 (20161225.0304)
 -->
<!-- Title: action.unfulfilled_hold_max_loop Pages: 1 -->
<svg width="452pt" height="195pt"
 viewBox="0.00 0.00 452.00 195.00" xmlns="http://www.w3.org/2000/svg" xmlns:xlink="http://www.w3.org/1999/xlink">
<g id="graph0" class="graph" transform="scale(1 1) rotate(0) translate(4 191)">
<title>action.unfulfilled_hold_max_loop</title>
<polygon fill="#ffffff" stroke="transparent" points="-4,4 -4,-191 448,-191 448,4 -4,4"/>
<!-- action.unfulfilled_hold_max_loop -->
<g id="node1" class="node">
<title>action.unfulfilled_hold_max_loop</title>
<polygon fill="#efefef" stroke="transparent" points="46,-105.5 46,-140.5 398,-140.5 398,-105.5 46,-105.5"/>
<polygon fill="none" stroke="#000000" points="46,-105.5 46,-140.5 398,-140.5 398,-105.5 46,-105.5"/>
<text text-anchor="start" x="52.5818" y="-118.3" font-family="Arial Bold" font-size="18.00" fill="#000000">action.unfulfilled_hold_max_loop</text>
<text text-anchor="start" x="313.6538" y="-118.3" font-family="Arial" font-size="14.00" fill="#000000">    </text>
<text text-anchor="start" x="347.8586" y="-118.3" font-family="Arial" font-size="14.00" fill="#666666">[VIEW]</text>
<polygon fill="none" stroke="#000000" points="46,-75.5 46,-105.5 398,-105.5 398,-75.5 46,-75.5"/>
<text text-anchor="start" x="53" y="-86.9" font-family="Arial" font-size="14.00" fill="#000000">hold </text>
<text text-anchor="start" x="83.345" y="-86.9" font-family="Arial" font-size="14.00" fill="#666666">[integer]</text>
<polygon fill="none" stroke="#000000" points="46,-45.5 46,-75.5 398,-75.5 398,-45.5 46,-45.5"/>
<text text-anchor="start" x="53" y="-56.9" font-family="Arial" font-size="14.00" fill="#000000">max </text>
<text text-anchor="start" x="83.3338" y="-56.9" font-family="Arial" font-size="14.00" fill="#666666">[bigint]</text>
<polygon fill="none" stroke="#000000" stroke-width="3" points="44.5,-44.5 44.5,-142.5 399.5,-142.5 399.5,-44.5 44.5,-44.5"/>
</g>
</g>
</svg>
