<?xml version="1.0" encoding="UTF-8" standalone="no"?>
<!DOCTYPE svg PUBLIC "-//W3C//DTD SVG 1.1//EN"
 "http://www.w3.org/Graphics/SVG/1.1/DTD/svg11.dtd">
<!-- Generated by graphviz version 2.40.1 (20161225.0304)
 -->
<!-- Title: action.transit_copy Pages: 1 -->
<svg width="1258pt" height="1272pt"
 viewBox="0.00 0.00 1258.00 1272.00" xmlns="http://www.w3.org/2000/svg" xmlns:xlink="http://www.w3.org/1999/xlink">
<g id="graph0" class="graph" transform="scale(1 1) rotate(0) translate(4 1268)">
<title>action.transit_copy</title>
<polygon fill="#ffffff" stroke="transparent" points="-4,4 -4,-1268 1254,-1268 1254,4 -4,4"/>
<!-- action.transit_copy -->
<g id="node1" class="node">
<title>action.transit_copy</title>
<polygon fill="#efefef" stroke="transparent" points="461,-922.5 461,-957.5 758,-957.5 758,-922.5 461,-922.5"/>
<polygon fill="none" stroke="#000000" points="461,-922.5 461,-957.5 758,-957.5 758,-922.5 461,-922.5"/>
<text text-anchor="start" x="470.6965" y="-935.3" font-family="Arial Bold" font-size="18.00" fill="#000000">action.transit_copy</text>
<text text-anchor="start" x="620.7355" y="-935.3" font-family="Arial" font-size="14.00" fill="#000000">    </text>
<text text-anchor="start" x="654.9403" y="-935.3" font-family="Arial" font-size="14.00" fill="#666666">[BASE TABLE]</text>
<polygon fill="none" stroke="#000000" points="461,-892.5 461,-922.5 758,-922.5 758,-892.5 461,-892.5"/>
<text text-anchor="start" x="468" y="-903.9" font-family="Arial" font-size="14.00" fill="#000000">id </text>
<text text-anchor="start" x="482.7798" y="-903.9" font-family="Arial" font-size="14.00" fill="#666666">[integer]</text>
<polygon fill="none" stroke="#000000" points="461,-862.5 461,-892.5 758,-892.5 758,-862.5 461,-862.5"/>
<text text-anchor="start" x="467.5316" y="-873.9" font-family="Arial" font-size="14.00" fill="#000000">source_send_time </text>
<text text-anchor="start" x="585.784" y="-873.9" font-family="Arial" font-size="14.00" fill="#666666">[timestamp with time zone]</text>
<polygon fill="none" stroke="#000000" points="461,-832.5 461,-862.5 758,-862.5 758,-832.5 461,-832.5"/>
<text text-anchor="start" x="468" y="-843.9" font-family="Arial" font-size="14.00" fill="#000000">dest_recv_time </text>
<text text-anchor="start" x="566.7952" y="-843.9" font-family="Arial" font-size="14.00" fill="#666666">[timestamp with time zone]</text>
<polygon fill="none" stroke="#000000" points="461,-802.5 461,-832.5 758,-832.5 758,-802.5 461,-802.5"/>
<text text-anchor="start" x="468" y="-813.9" font-family="Arial" font-size="14.00" fill="#000000">target_copy </text>
<text text-anchor="start" x="545.028" y="-813.9" font-family="Arial" font-size="14.00" fill="#666666">[bigint]</text>
<polygon fill="none" stroke="#000000" points="461,-772.5 461,-802.5 758,-802.5 758,-772.5 461,-772.5"/>
<text text-anchor="start" x="468" y="-783.9" font-family="Arial" font-size="14.00" fill="#000000">source </text>
<text text-anchor="start" x="513.899" y="-783.9" font-family="Arial" font-size="14.00" fill="#666666">[integer]</text>
<polygon fill="none" stroke="#000000" points="461,-742.5 461,-772.5 758,-772.5 758,-742.5 461,-742.5"/>
<text text-anchor="start" x="468" y="-753.9" font-family="Arial" font-size="14.00" fill="#000000">dest </text>
<text text-anchor="start" x="498.3464" y="-753.9" font-family="Arial" font-size="14.00" fill="#666666">[integer]</text>
<polygon fill="none" stroke="#000000" points="461,-712.5 461,-742.5 758,-742.5 758,-712.5 461,-712.5"/>
<text text-anchor="start" x="468" y="-723.9" font-family="Arial" font-size="14.00" fill="#000000">prev_hop </text>
<text text-anchor="start" x="530.2468" y="-723.9" font-family="Arial" font-size="14.00" fill="#666666">[integer]</text>
<polygon fill="none" stroke="#000000" points="461,-682.5 461,-712.5 758,-712.5 758,-682.5 461,-682.5"/>
<text text-anchor="start" x="468" y="-693.9" font-family="Arial" font-size="14.00" fill="#000000">copy_status </text>
<text text-anchor="start" x="546.5848" y="-693.9" font-family="Arial" font-size="14.00" fill="#666666">[integer]</text>
<polygon fill="none" stroke="#000000" points="461,-652.5 461,-682.5 758,-682.5 758,-652.5 461,-652.5"/>
<text text-anchor="start" x="468" y="-663.9" font-family="Arial" font-size="14.00" fill="#000000">persistant_transfer </text>
<text text-anchor="start" x="587.8022" y="-663.9" font-family="Arial" font-size="14.00" fill="#666666">[boolean]</text>
<polygon fill="none" stroke="#000000" points="461,-622.5 461,-652.5 758,-652.5 758,-622.5 461,-622.5"/>
<text text-anchor="start" x="468" y="-633.9" font-family="Arial" font-size="14.00" fill="#000000">prev_dest </text>
<text text-anchor="start" x="533.3548" y="-633.9" font-family="Arial" font-size="14.00" fill="#666666">[integer]</text>
<polygon fill="none" stroke="#000000" points="461,-592.5 461,-622.5 758,-622.5 758,-592.5 461,-592.5"/>
<text text-anchor="start" x="468" y="-603.9" font-family="Arial" font-size="14.00" fill="#000000">cancel_time </text>
<text text-anchor="start" x="546.568" y="-603.9" font-family="Arial" font-size="14.00" fill="#666666">[timestamp with time zone]</text>
<polygon fill="none" stroke="#000000" stroke-width="3" points="459,-591.5 459,-959.5 759,-959.5 759,-591.5 459,-591.5"/>
</g>
<!-- action.transit_copy&#45;&gt;action.transit_copy -->
<g id="edge1" class="edge">
<title>action.transit_copy:prev_hop&#45;&gt;action.transit_copy:id</title>
<path fill="none" stroke="#000000" d="M611.2517,-752.7415C618.9786,-925.8669 618.5614,-1264 610,-1264 601.2813,-1264 601.0088,-1082.2484 609.1826,-922.8491"/>
<polygon fill="#000000" stroke="#000000" points="611.2445,-752.585 615.2754,-742.3868 611.0124,-747.5903 610.7802,-742.5957 610.7802,-742.5957 610.7802,-742.5957 611.0124,-747.5903 606.2851,-742.8047 611.2445,-752.585 611.2445,-752.585"/>
<text text-anchor="start" x="618.1512" y="-752.5957" font-family="Arial" font-size="10.00" fill="#000000">FOREIGN KEY (prev_hop) REFERENCES action.transit_copy(id) DEFERRABLE INITIALLY DEFERRED</text>
</g>
<!-- actor.org_unit -->
<g id="node2" class="node">
<title>actor.org_unit</title>
<polygon fill="#efefef" stroke="transparent" points="484,-432.5 484,-467.5 735,-467.5 735,-432.5 484,-432.5"/>
<polygon fill="none" stroke="#000000" points="484,-432.5 484,-467.5 735,-467.5 735,-432.5 484,-432.5"/>
<text text-anchor="start" x="490.7017" y="-445.3" font-family="Arial Bold" font-size="18.00" fill="#000000">actor.org_unit</text>
<text text-anchor="start" x="600.7303" y="-445.3" font-family="Arial" font-size="14.00" fill="#000000">    </text>
<text text-anchor="start" x="634.9351" y="-445.3" font-family="Arial" font-size="14.00" fill="#666666">[BASE TABLE]</text>
<polygon fill="none" stroke="#000000" points="484,-402.5 484,-432.5 735,-432.5 735,-402.5 484,-402.5"/>
<text text-anchor="start" x="491" y="-413.9" font-family="Arial" font-size="14.00" fill="#000000">id    </text>
<text text-anchor="start" x="536.094" y="-413.9" font-family="Arial" font-size="14.00" fill="#666666">[integer]</text>
<polygon fill="none" stroke="#000000" points="484,-372.5 484,-402.5 735,-402.5 735,-372.5 484,-372.5"/>
<text text-anchor="start" x="491" y="-383.9" font-family="Arial" font-size="14.00" fill="#000000">parent_ou    </text>
<text text-anchor="start" x="588.2342" y="-383.9" font-family="Arial" font-size="14.00" fill="#666666">[integer]</text>
<polygon fill="none" stroke="#000000" points="484,-342.5 484,-372.5 735,-372.5 735,-342.5 484,-342.5"/>
<text text-anchor="start" x="491" y="-353.9" font-family="Arial" font-size="14.00" fill="#000000">ou_type    </text>
<text text-anchor="start" x="575.0084" y="-353.9" font-family="Arial" font-size="14.00" fill="#666666">[integer]</text>
<polygon fill="none" stroke="#000000" points="484,-312.5 484,-342.5 735,-342.5 735,-312.5 484,-312.5"/>
<text text-anchor="start" x="491" y="-323.9" font-family="Arial" font-size="14.00" fill="#000000">ill_address    </text>
<text text-anchor="start" x="592.0982" y="-323.9" font-family="Arial" font-size="14.00" fill="#666666">[integer]</text>
<polygon fill="none" stroke="#000000" points="484,-282.5 484,-312.5 735,-312.5 735,-282.5 484,-282.5"/>
<text text-anchor="start" x="491" y="-293.9" font-family="Arial" font-size="14.00" fill="#000000">holds_address    </text>
<text text-anchor="start" x="616.2328" y="-293.9" font-family="Arial" font-size="14.00" fill="#666666">[integer]</text>
<polygon fill="none" stroke="#000000" points="484,-252.5 484,-282.5 735,-282.5 735,-252.5 484,-252.5"/>
<text text-anchor="start" x="491" y="-263.9" font-family="Arial" font-size="14.00" fill="#000000">mailing_address    </text>
<text text-anchor="start" x="627.1066" y="-263.9" font-family="Arial" font-size="14.00" fill="#666666">[integer]</text>
<polygon fill="none" stroke="#000000" points="484,-222.5 484,-252.5 735,-252.5 735,-222.5 484,-222.5"/>
<text text-anchor="start" x="491" y="-233.9" font-family="Arial" font-size="14.00" fill="#000000">billing_address    </text>
<text text-anchor="start" x="618.5526" y="-233.9" font-family="Arial" font-size="14.00" fill="#666666">[integer]</text>
<polygon fill="none" stroke="#000000" points="484,-192.5 484,-222.5 735,-222.5 735,-192.5 484,-192.5"/>
<text text-anchor="start" x="491" y="-203.9" font-family="Arial" font-size="14.00" fill="#000000">shortname    </text>
<text text-anchor="start" x="591.3296" y="-203.9" font-family="Arial" font-size="14.00" fill="#666666">[text]</text>
<polygon fill="none" stroke="#000000" points="484,-162.5 484,-192.5 735,-192.5 735,-162.5 484,-162.5"/>
<text text-anchor="start" x="491" y="-173.9" font-family="Arial" font-size="14.00" fill="#000000">name    </text>
<text text-anchor="start" x="560.2132" y="-173.9" font-family="Arial" font-size="14.00" fill="#666666">[text]</text>
<polygon fill="none" stroke="#000000" points="484,-132.5 484,-162.5 735,-162.5 735,-132.5 484,-132.5"/>
<text text-anchor="start" x="491" y="-143.9" font-family="Arial" font-size="14.00" fill="#000000">email    </text>
<text text-anchor="start" x="558.6438" y="-143.9" font-family="Arial" font-size="14.00" fill="#666666">[text]</text>
<polygon fill="none" stroke="#000000" points="484,-102.5 484,-132.5 735,-132.5 735,-102.5 484,-102.5"/>
<text text-anchor="start" x="491" y="-113.9" font-family="Arial" font-size="14.00" fill="#000000">phone    </text>
<text text-anchor="start" x="564.1178" y="-113.9" font-family="Arial" font-size="14.00" fill="#666666">[text]</text>
<polygon fill="none" stroke="#000000" points="484,-72.5 484,-102.5 735,-102.5 735,-72.5 484,-72.5"/>
<text text-anchor="start" x="491" y="-83.9" font-family="Arial" font-size="14.00" fill="#000000">opac_visible    </text>
<text text-anchor="start" x="602.2202" y="-83.9" font-family="Arial" font-size="14.00" fill="#666666">[boolean]</text>
<polygon fill="none" stroke="#000000" points="484,-42.5 484,-72.5 735,-72.5 735,-42.5 484,-42.5"/>
<text text-anchor="start" x="491" y="-53.9" font-family="Arial" font-size="14.00" fill="#000000">fiscal_calendar    </text>
<text text-anchor="start" x="618.554" y="-53.9" font-family="Arial" font-size="14.00" fill="#666666">[integer]</text>
</g>
<!-- action.transit_copy&#45;&gt;actor.org_unit -->
<g id="edge2" class="edge">
<title>action.transit_copy:source&#45;&gt;actor.org_unit:id</title>
<path fill="none" stroke="#000000" d="M450.9606,-785.5093C380.7053,-756.3863 405.1589,-417.5 484,-417.5"/>
<polygon fill="#000000" stroke="#000000" points="451.191,-785.5549 460.1247,-791.9141 456.0955,-786.5274 461,-787.5 461,-787.5 461,-787.5 456.0955,-786.5274 461.8753,-783.0859 451.191,-785.5549 451.191,-785.5549"/>
<text text-anchor="start" x="21.3235" y="-797.5" font-family="Arial" font-size="10.00" fill="#000000">FOREIGN KEY (source) REFERENCES actor.org_unit(id) DEFERRABLE INITIALLY DEFERRED</text>
</g>
<!-- action.transit_copy&#45;&gt;actor.org_unit -->
<g id="edge3" class="edge">
<title>action.transit_copy:dest&#45;&gt;actor.org_unit:id</title>
<path fill="none" stroke="#000000" d="M450.9968,-755.3288C387.5439,-726.3721 411.8215,-417.5 484,-417.5"/>
<polygon fill="#000000" stroke="#000000" points="451.2275,-755.3788 460.0455,-761.8976 456.1138,-756.4394 461,-757.5 461,-757.5 461,-757.5 456.1138,-756.4394 461.9545,-753.1024 451.2275,-755.3788 451.2275,-755.3788"/>
<text text-anchor="start" x="31.878" y="-767.5" font-family="Arial" font-size="10.00" fill="#000000">FOREIGN KEY (dest) REFERENCES actor.org_unit(id) DEFERRABLE INITIALLY DEFERRED</text>
</g>
<!-- action.transit_copy&#45;&gt;actor.org_unit -->
<g id="edge5" class="edge">
<title>action.transit_copy:prev_dest&#45;&gt;actor.org_unit:id</title>
<path fill="none" stroke="#000000" d="M450.8162,-636.6591C364.4498,-621.8888 389.2416,-417.5 484,-417.5"/>
<polygon fill="#000000" stroke="#000000" points="451.0339,-636.677 460.6296,-641.9847 456.017,-637.0885 461,-637.5 461,-637.5 461,-637.5 456.017,-637.0885 461.3704,-633.0153 451.0339,-636.677 451.0339,-636.677"/>
<text text-anchor="start" x="7.375" y="-647.5" font-family="Arial" font-size="10.00" fill="#000000">FOREIGN KEY (prev_dest) REFERENCES actor.org_unit(id) DEFERRABLE INITIALLY DEFERRED</text>
</g>
<!-- config.copy_status -->
<g id="node3" class="node">
<title>config.copy_status</title>
<polygon fill="#efefef" stroke="transparent" points="839,-357.5 839,-392.5 1129,-392.5 1129,-357.5 839,-357.5"/>
<polygon fill="none" stroke="#000000" points="839,-357.5 839,-392.5 1129,-392.5 1129,-357.5 839,-357.5"/>
<text text-anchor="start" x="845.6897" y="-370.3" font-family="Arial Bold" font-size="18.00" fill="#000000">config.copy_status</text>
<text text-anchor="start" x="994.7423" y="-370.3" font-family="Arial" font-size="14.00" fill="#000000">    </text>
<text text-anchor="start" x="1028.9471" y="-370.3" font-family="Arial" font-size="14.00" fill="#666666">[BASE TABLE]</text>
<polygon fill="none" stroke="#000000" points="839,-327.5 839,-357.5 1129,-357.5 1129,-327.5 839,-327.5"/>
<text text-anchor="start" x="846" y="-338.9" font-family="Arial" font-size="14.00" fill="#000000">id    </text>
<text text-anchor="start" x="891.094" y="-338.9" font-family="Arial" font-size="14.00" fill="#666666">[integer]</text>
<polygon fill="none" stroke="#000000" points="839,-297.5 839,-327.5 1129,-327.5 1129,-297.5 839,-297.5"/>
<text text-anchor="start" x="846" y="-308.9" font-family="Arial" font-size="14.00" fill="#000000">name    </text>
<text text-anchor="start" x="915.2132" y="-308.9" font-family="Arial" font-size="14.00" fill="#666666">[text]</text>
<polygon fill="none" stroke="#000000" points="839,-267.5 839,-297.5 1129,-297.5 1129,-267.5 839,-267.5"/>
<text text-anchor="start" x="846" y="-278.9" font-family="Arial" font-size="14.00" fill="#000000">holdable    </text>
<text text-anchor="start" x="933.1136" y="-278.9" font-family="Arial" font-size="14.00" fill="#666666">[boolean]</text>
<polygon fill="none" stroke="#000000" points="839,-237.5 839,-267.5 1129,-267.5 1129,-237.5 839,-237.5"/>
<text text-anchor="start" x="846" y="-248.9" font-family="Arial" font-size="14.00" fill="#000000">opac_visible    </text>
<text text-anchor="start" x="957.2202" y="-248.9" font-family="Arial" font-size="14.00" fill="#666666">[boolean]</text>
<polygon fill="none" stroke="#000000" points="839,-207.5 839,-237.5 1129,-237.5 1129,-207.5 839,-207.5"/>
<text text-anchor="start" x="846" y="-218.9" font-family="Arial" font-size="14.00" fill="#000000">copy_active    </text>
<text text-anchor="start" x="954.115" y="-218.9" font-family="Arial" font-size="14.00" fill="#666666">[boolean]</text>
<polygon fill="none" stroke="#000000" points="839,-177.5 839,-207.5 1129,-207.5 1129,-177.5 839,-177.5"/>
<text text-anchor="start" x="846" y="-188.9" font-family="Arial" font-size="14.00" fill="#000000">restrict_copy_delete    </text>
<text text-anchor="start" x="1005.4544" y="-188.9" font-family="Arial" font-size="14.00" fill="#666666">[boolean]</text>
<polygon fill="none" stroke="#000000" points="839,-147.5 839,-177.5 1129,-177.5 1129,-147.5 839,-147.5"/>
<text text-anchor="start" x="846" y="-158.9" font-family="Arial" font-size="14.00" fill="#000000">is_available    </text>
<text text-anchor="start" x="953.3268" y="-158.9" font-family="Arial" font-size="14.00" fill="#666666">[boolean]</text>
<polygon fill="none" stroke="#000000" points="839,-117.5 839,-147.5 1129,-147.5 1129,-117.5 839,-117.5"/>
<text text-anchor="start" x="846" y="-128.9" font-family="Arial" font-size="14.00" fill="#000000">hopeless_prone    </text>
<text text-anchor="start" x="979.798" y="-128.9" font-family="Arial" font-size="14.00" fill="#666666">[boolean]</text>
</g>
<!-- action.transit_copy&#45;&gt;config.copy_status -->
<g id="edge4" class="edge">
<title>action.transit_copy:copy_status&#45;&gt;config.copy_status:id</title>
<path fill="none" stroke="#000000" d="M767.9549,-695.4152C831.9804,-666.3218 761.7186,-342.5 839,-342.5"/>
<polygon fill="#000000" stroke="#000000" points="767.7877,-695.4502 757.0776,-693.0955 762.8938,-696.4751 758,-697.5 758,-697.5 758,-697.5 762.8938,-696.4751 758.9224,-701.9045 767.7877,-695.4502 767.7877,-695.4502"/>
<text text-anchor="start" x="764.81" y="-707.5" font-family="Arial" font-size="10.00" fill="#000000">FOREIGN KEY (copy_status) REFERENCES config.copy_status(id) DEFERRABLE INITIALLY DEFERRED</text>
</g>
</g>
</svg>
