<?xml version="1.0" encoding="UTF-8" standalone="no"?>
<!DOCTYPE svg PUBLIC "-//W3C//DTD SVG 1.1//EN"
 "http://www.w3.org/Graphics/SVG/1.1/DTD/svg11.dtd">
<!-- Generated by graphviz version 2.40.1 (20161225.0304)
 -->
<!-- Title: actor.org_unit_type Pages: 1 -->
<svg width="1042pt" height="1282pt"
 viewBox="0.00 0.00 1041.77 1282.00" xmlns="http://www.w3.org/2000/svg" xmlns:xlink="http://www.w3.org/1999/xlink">
<g id="graph0" class="graph" transform="scale(1 1) rotate(0) translate(4 1278)">
<title>actor.org_unit_type</title>
<polygon fill="#ffffff" stroke="transparent" points="-4,4 -4,-1278 1037.7678,-1278 1037.7678,4 -4,4"/>
<!-- actor.org_unit_type -->
<g id="node1" class="node">
<title>actor.org_unit_type</title>
<polygon fill="#efefef" stroke="transparent" points="415,-255.5 415,-290.5 710,-290.5 710,-255.5 415,-255.5"/>
<polygon fill="none" stroke="#000000" points="415,-255.5 415,-290.5 710,-290.5 710,-255.5 415,-255.5"/>
<text text-anchor="start" x="421.6913" y="-268.3" font-family="Arial Bold" font-size="18.00" fill="#000000">actor.org_unit_type</text>
<text text-anchor="start" x="575.7407" y="-268.3" font-family="Arial" font-size="14.00" fill="#000000">    </text>
<text text-anchor="start" x="609.9455" y="-268.3" font-family="Arial" font-size="14.00" fill="#666666">[BASE TABLE]</text>
<polygon fill="none" stroke="#000000" points="415,-225.5 415,-255.5 710,-255.5 710,-225.5 415,-225.5"/>
<text text-anchor="start" x="422" y="-236.9" font-family="Arial" font-size="14.00" fill="#000000">id </text>
<text text-anchor="start" x="436.7798" y="-236.9" font-family="Arial" font-size="14.00" fill="#666666">[integer]</text>
<polygon fill="none" stroke="#000000" points="415,-195.5 415,-225.5 710,-225.5 710,-195.5 415,-195.5"/>
<text text-anchor="start" x="422" y="-206.9" font-family="Arial" font-size="14.00" fill="#000000">name </text>
<text text-anchor="start" x="460.899" y="-206.9" font-family="Arial" font-size="14.00" fill="#666666">[text]</text>
<polygon fill="none" stroke="#000000" points="415,-165.5 415,-195.5 710,-195.5 710,-165.5 415,-165.5"/>
<text text-anchor="start" x="422" y="-176.9" font-family="Arial" font-size="14.00" fill="#000000">opac_label </text>
<text text-anchor="start" x="493.582" y="-176.9" font-family="Arial" font-size="14.00" fill="#666666">[text]</text>
<polygon fill="none" stroke="#000000" points="415,-135.5 415,-165.5 710,-165.5 710,-135.5 415,-135.5"/>
<text text-anchor="start" x="422" y="-146.9" font-family="Arial" font-size="14.00" fill="#000000">depth </text>
<text text-anchor="start" x="460.9116" y="-146.9" font-family="Arial" font-size="14.00" fill="#666666">[integer]</text>
<polygon fill="none" stroke="#000000" points="415,-105.5 415,-135.5 710,-135.5 710,-105.5 415,-105.5"/>
<text text-anchor="start" x="422" y="-116.9" font-family="Arial" font-size="14.00" fill="#000000">parent </text>
<text text-anchor="start" x="465.5722" y="-116.9" font-family="Arial" font-size="14.00" fill="#666666">[integer]</text>
<polygon fill="none" stroke="#000000" points="415,-75.5 415,-105.5 710,-105.5 710,-75.5 415,-75.5"/>
<text text-anchor="start" x="422" y="-86.9" font-family="Arial" font-size="14.00" fill="#000000">can_have_vols </text>
<text text-anchor="start" x="519.258" y="-86.9" font-family="Arial" font-size="14.00" fill="#666666">[boolean]</text>
<polygon fill="none" stroke="#000000" points="415,-45.5 415,-75.5 710,-75.5 710,-45.5 415,-45.5"/>
<text text-anchor="start" x="422" y="-56.9" font-family="Arial" font-size="14.00" fill="#000000">can_have_users </text>
<text text-anchor="start" x="528.5946" y="-56.9" font-family="Arial" font-size="14.00" fill="#666666">[boolean]</text>
<polygon fill="none" stroke="#000000" stroke-width="3" points="413,-44.5 413,-292.5 711,-292.5 711,-44.5 413,-44.5"/>
</g>
<!-- actor.org_unit_type&#45;&gt;actor.org_unit_type -->
<g id="edge2" class="edge">
<title>actor.org_unit_type:parent&#45;&gt;actor.org_unit_type:id</title>
<path fill="none" stroke="#000000" d="M564.2285,-145.5715C571.9795,-320.9579 571.57,-664 563,-664 554.2725,-664 554.0082,-421.0712 562.2074,-255.7469"/>
<polygon fill="#000000" stroke="#000000" points="564.2271,-145.5401 568.2631,-135.3439 563.9975,-140.5453 563.7678,-135.5506 563.7678,-135.5506 563.7678,-135.5506 563.9975,-140.5453 559.2726,-135.7573 564.2271,-145.5401 564.2271,-145.5401"/>
<text text-anchor="start" x="570.6943" y="-145.5506" font-family="Arial" font-size="10.00" fill="#000000">FOREIGN KEY (parent) REFERENCES actor.org_unit_type(id) DEFERRABLE INITIALLY DEFERRED</text>
</g>
<!-- actor.org_unit -->
<g id="node2" class="node">
<title>actor.org_unit</title>
<polygon fill="#efefef" stroke="transparent" points="226,-1000.5 226,-1035.5 477,-1035.5 477,-1000.5 226,-1000.5"/>
<polygon fill="none" stroke="#000000" points="226,-1000.5 226,-1035.5 477,-1035.5 477,-1000.5 226,-1000.5"/>
<text text-anchor="start" x="232.7017" y="-1013.3" font-family="Arial Bold" font-size="18.00" fill="#000000">actor.org_unit</text>
<text text-anchor="start" x="342.7303" y="-1013.3" font-family="Arial" font-size="14.00" fill="#000000">    </text>
<text text-anchor="start" x="376.9351" y="-1013.3" font-family="Arial" font-size="14.00" fill="#666666">[BASE TABLE]</text>
<polygon fill="none" stroke="#000000" points="226,-970.5 226,-1000.5 477,-1000.5 477,-970.5 226,-970.5"/>
<text text-anchor="start" x="233" y="-981.9" font-family="Arial" font-size="14.00" fill="#000000">id    </text>
<text text-anchor="start" x="278.094" y="-981.9" font-family="Arial" font-size="14.00" fill="#666666">[integer]</text>
<polygon fill="none" stroke="#000000" points="226,-940.5 226,-970.5 477,-970.5 477,-940.5 226,-940.5"/>
<text text-anchor="start" x="233" y="-951.9" font-family="Arial" font-size="14.00" fill="#000000">parent_ou    </text>
<text text-anchor="start" x="330.2342" y="-951.9" font-family="Arial" font-size="14.00" fill="#666666">[integer]</text>
<polygon fill="none" stroke="#000000" points="226,-910.5 226,-940.5 477,-940.5 477,-910.5 226,-910.5"/>
<text text-anchor="start" x="233" y="-921.9" font-family="Arial" font-size="14.00" fill="#000000">ou_type    </text>
<text text-anchor="start" x="317.0084" y="-921.9" font-family="Arial" font-size="14.00" fill="#666666">[integer]</text>
<polygon fill="none" stroke="#000000" points="226,-880.5 226,-910.5 477,-910.5 477,-880.5 226,-880.5"/>
<text text-anchor="start" x="233" y="-891.9" font-family="Arial" font-size="14.00" fill="#000000">ill_address    </text>
<text text-anchor="start" x="334.0982" y="-891.9" font-family="Arial" font-size="14.00" fill="#666666">[integer]</text>
<polygon fill="none" stroke="#000000" points="226,-850.5 226,-880.5 477,-880.5 477,-850.5 226,-850.5"/>
<text text-anchor="start" x="233" y="-861.9" font-family="Arial" font-size="14.00" fill="#000000">holds_address    </text>
<text text-anchor="start" x="358.2328" y="-861.9" font-family="Arial" font-size="14.00" fill="#666666">[integer]</text>
<polygon fill="none" stroke="#000000" points="226,-820.5 226,-850.5 477,-850.5 477,-820.5 226,-820.5"/>
<text text-anchor="start" x="233" y="-831.9" font-family="Arial" font-size="14.00" fill="#000000">mailing_address    </text>
<text text-anchor="start" x="369.1066" y="-831.9" font-family="Arial" font-size="14.00" fill="#666666">[integer]</text>
<polygon fill="none" stroke="#000000" points="226,-790.5 226,-820.5 477,-820.5 477,-790.5 226,-790.5"/>
<text text-anchor="start" x="233" y="-801.9" font-family="Arial" font-size="14.00" fill="#000000">billing_address    </text>
<text text-anchor="start" x="360.5526" y="-801.9" font-family="Arial" font-size="14.00" fill="#666666">[integer]</text>
<polygon fill="none" stroke="#000000" points="226,-760.5 226,-790.5 477,-790.5 477,-760.5 226,-760.5"/>
<text text-anchor="start" x="233" y="-771.9" font-family="Arial" font-size="14.00" fill="#000000">shortname    </text>
<text text-anchor="start" x="333.3296" y="-771.9" font-family="Arial" font-size="14.00" fill="#666666">[text]</text>
<polygon fill="none" stroke="#000000" points="226,-730.5 226,-760.5 477,-760.5 477,-730.5 226,-730.5"/>
<text text-anchor="start" x="233" y="-741.9" font-family="Arial" font-size="14.00" fill="#000000">name    </text>
<text text-anchor="start" x="302.2132" y="-741.9" font-family="Arial" font-size="14.00" fill="#666666">[text]</text>
<polygon fill="none" stroke="#000000" points="226,-700.5 226,-730.5 477,-730.5 477,-700.5 226,-700.5"/>
<text text-anchor="start" x="233" y="-711.9" font-family="Arial" font-size="14.00" fill="#000000">email    </text>
<text text-anchor="start" x="300.6438" y="-711.9" font-family="Arial" font-size="14.00" fill="#666666">[text]</text>
<polygon fill="none" stroke="#000000" points="226,-670.5 226,-700.5 477,-700.5 477,-670.5 226,-670.5"/>
<text text-anchor="start" x="233" y="-681.9" font-family="Arial" font-size="14.00" fill="#000000">phone    </text>
<text text-anchor="start" x="306.1178" y="-681.9" font-family="Arial" font-size="14.00" fill="#666666">[text]</text>
<polygon fill="none" stroke="#000000" points="226,-640.5 226,-670.5 477,-670.5 477,-640.5 226,-640.5"/>
<text text-anchor="start" x="233" y="-651.9" font-family="Arial" font-size="14.00" fill="#000000">opac_visible    </text>
<text text-anchor="start" x="344.2202" y="-651.9" font-family="Arial" font-size="14.00" fill="#666666">[boolean]</text>
<polygon fill="none" stroke="#000000" points="226,-610.5 226,-640.5 477,-640.5 477,-610.5 226,-610.5"/>
<text text-anchor="start" x="233" y="-621.9" font-family="Arial" font-size="14.00" fill="#000000">fiscal_calendar    </text>
<text text-anchor="start" x="360.554" y="-621.9" font-family="Arial" font-size="14.00" fill="#666666">[integer]</text>
</g>
<!-- actor.org_unit&#45;&gt;actor.org_unit_type -->
<g id="edge1" class="edge">
<title>actor.org_unit:ou_type&#45;&gt;actor.org_unit_type:id</title>
<path fill="none" stroke="#000000" d="M487.2143,-923.7119C550.0991,-899.8078 486.8992,-643.0706 477,-568 463.103,-462.612 428.897,-442.388 415,-337 409.393,-294.4792 372.1111,-240.5 415,-240.5"/>
<polygon fill="#000000" stroke="#000000" points="486.8502,-923.7756 476.224,-921.0674 481.9251,-924.6378 477,-925.5 477,-925.5 477,-925.5 481.9251,-924.6378 477.776,-929.9326 486.8502,-923.7756 486.8502,-923.7756"/>
<text text-anchor="start" x="7.3115" y="-935.5" font-family="Arial" font-size="10.00" fill="#000000">FOREIGN KEY (ou_type) REFERENCES actor.org_unit_type(id) DEFERRABLE INITIALLY DEFERRED</text>
</g>
<!-- config.hold_matrix_matchpoint -->
<g id="node3" class="node">
<title>config.hold_matrix_matchpoint</title>
<polygon fill="#efefef" stroke="transparent" points="581,-1195.5 581,-1230.5 966,-1230.5 966,-1195.5 581,-1195.5"/>
<polygon fill="none" stroke="#000000" points="581,-1195.5 581,-1230.5 966,-1230.5 966,-1195.5 581,-1195.5"/>
<text text-anchor="start" x="587.6904" y="-1208.3" font-family="Arial Bold" font-size="18.00" fill="#000000">config.hold_matrix_matchpoint</text>
<text text-anchor="start" x="831.7416" y="-1208.3" font-family="Arial" font-size="14.00" fill="#000000">    </text>
<text text-anchor="start" x="865.9464" y="-1208.3" font-family="Arial" font-size="14.00" fill="#666666">[BASE TABLE]</text>
<polygon fill="none" stroke="#000000" points="581,-1165.5 581,-1195.5 966,-1195.5 966,-1165.5 581,-1165.5"/>
<text text-anchor="start" x="588" y="-1176.9" font-family="Arial" font-size="14.00" fill="#000000">id    </text>
<text text-anchor="start" x="633.094" y="-1176.9" font-family="Arial" font-size="14.00" fill="#666666">[integer]</text>
<polygon fill="none" stroke="#000000" points="581,-1135.5 581,-1165.5 966,-1165.5 966,-1135.5 581,-1135.5"/>
<text text-anchor="start" x="588" y="-1146.9" font-family="Arial" font-size="14.00" fill="#000000">active    </text>
<text text-anchor="start" x="658.7672" y="-1146.9" font-family="Arial" font-size="14.00" fill="#666666">[boolean]</text>
<polygon fill="none" stroke="#000000" points="581,-1105.5 581,-1135.5 966,-1135.5 966,-1105.5 581,-1105.5"/>
<text text-anchor="start" x="588" y="-1116.9" font-family="Arial" font-size="14.00" fill="#000000">strict_ou_match    </text>
<text text-anchor="start" x="721" y="-1116.9" font-family="Arial" font-size="14.00" fill="#666666">[boolean]</text>
<polygon fill="none" stroke="#000000" points="581,-1075.5 581,-1105.5 966,-1105.5 966,-1075.5 581,-1075.5"/>
<text text-anchor="start" x="588" y="-1086.9" font-family="Arial" font-size="14.00" fill="#000000">user_home_ou    </text>
<text text-anchor="start" x="715.5694" y="-1086.9" font-family="Arial" font-size="14.00" fill="#666666">[integer]</text>
<polygon fill="none" stroke="#000000" points="581,-1045.5 581,-1075.5 966,-1075.5 966,-1045.5 581,-1045.5"/>
<text text-anchor="start" x="588" y="-1056.9" font-family="Arial" font-size="14.00" fill="#000000">request_ou    </text>
<text text-anchor="start" x="692.2342" y="-1056.9" font-family="Arial" font-size="14.00" fill="#666666">[integer]</text>
<polygon fill="none" stroke="#000000" points="581,-1015.5 581,-1045.5 966,-1045.5 966,-1015.5 581,-1015.5"/>
<text text-anchor="start" x="588" y="-1026.9" font-family="Arial" font-size="14.00" fill="#000000">pickup_ou    </text>
<text text-anchor="start" x="686.007" y="-1026.9" font-family="Arial" font-size="14.00" fill="#666666">[integer]</text>
<polygon fill="none" stroke="#000000" points="581,-985.5 581,-1015.5 966,-1015.5 966,-985.5 581,-985.5"/>
<text text-anchor="start" x="588" y="-996.9" font-family="Arial" font-size="14.00" fill="#000000">item_owning_ou    </text>
<text text-anchor="start" x="724.1192" y="-996.9" font-family="Arial" font-size="14.00" fill="#666666">[integer]</text>
<polygon fill="none" stroke="#000000" points="581,-955.5 581,-985.5 966,-985.5 966,-955.5 581,-955.5"/>
<text text-anchor="start" x="588" y="-966.9" font-family="Arial" font-size="14.00" fill="#000000">item_circ_ou    </text>
<text text-anchor="start" x="701.5428" y="-966.9" font-family="Arial" font-size="14.00" fill="#666666">[integer]</text>
<polygon fill="none" stroke="#000000" points="581,-925.5 581,-955.5 966,-955.5 966,-925.5 581,-925.5"/>
<text text-anchor="start" x="588" y="-936.9" font-family="Arial" font-size="14.00" fill="#000000">usr_grp    </text>
<text text-anchor="start" x="669.6564" y="-936.9" font-family="Arial" font-size="14.00" fill="#666666">[integer]</text>
<polygon fill="none" stroke="#000000" points="581,-895.5 581,-925.5 966,-925.5 966,-895.5 581,-895.5"/>
<text text-anchor="start" x="588" y="-906.9" font-family="Arial" font-size="14.00" fill="#000000">requestor_grp    </text>
<text text-anchor="start" x="709.338" y="-906.9" font-family="Arial" font-size="14.00" fill="#666666">[integer]</text>
<polygon fill="none" stroke="#000000" points="581,-865.5 581,-895.5 966,-895.5 966,-865.5 581,-865.5"/>
<text text-anchor="start" x="588" y="-876.9" font-family="Arial" font-size="14.00" fill="#000000">circ_modifier    </text>
<text text-anchor="start" x="701.5274" y="-876.9" font-family="Arial" font-size="14.00" fill="#666666">[text]</text>
<polygon fill="none" stroke="#000000" points="581,-835.5 581,-865.5 966,-865.5 966,-835.5 581,-835.5"/>
<text text-anchor="start" x="588" y="-846.9" font-family="Arial" font-size="14.00" fill="#000000">marc_type    </text>
<text text-anchor="start" x="687.547" y="-846.9" font-family="Arial" font-size="14.00" fill="#666666">[text]</text>
<polygon fill="none" stroke="#000000" points="581,-805.5 581,-835.5 966,-835.5 966,-805.5 581,-805.5"/>
<text text-anchor="start" x="588" y="-816.9" font-family="Arial" font-size="14.00" fill="#000000">marc_form    </text>
<text text-anchor="start" x="689.0856" y="-816.9" font-family="Arial" font-size="14.00" fill="#666666">[text]</text>
<polygon fill="none" stroke="#000000" points="581,-775.5 581,-805.5 966,-805.5 966,-775.5 581,-775.5"/>
<text text-anchor="start" x="588" y="-786.9" font-family="Arial" font-size="14.00" fill="#000000">marc_bib_level    </text>
<text text-anchor="start" x="716.324" y="-786.9" font-family="Arial" font-size="14.00" fill="#666666">[text]</text>
<polygon fill="none" stroke="#000000" points="581,-745.5 581,-775.5 966,-775.5 966,-745.5 581,-745.5"/>
<text text-anchor="start" x="588" y="-756.9" font-family="Arial" font-size="14.00" fill="#000000">marc_vr_format    </text>
<text text-anchor="start" x="720.202" y="-756.9" font-family="Arial" font-size="14.00" fill="#666666">[text]</text>
<polygon fill="none" stroke="#000000" points="581,-715.5 581,-745.5 966,-745.5 966,-715.5 581,-715.5"/>
<text text-anchor="start" x="588" y="-726.9" font-family="Arial" font-size="14.00" fill="#000000">juvenile_flag    </text>
<text text-anchor="start" x="700" y="-726.9" font-family="Arial" font-size="14.00" fill="#666666">[boolean]</text>
<polygon fill="none" stroke="#000000" points="581,-685.5 581,-715.5 966,-715.5 966,-685.5 581,-685.5"/>
<text text-anchor="start" x="588" y="-696.9" font-family="Arial" font-size="14.00" fill="#000000">ref_flag    </text>
<text text-anchor="start" x="668.8836" y="-696.9" font-family="Arial" font-size="14.00" fill="#666666">[boolean]</text>
<polygon fill="none" stroke="#000000" points="581,-655.5 581,-685.5 966,-685.5 966,-655.5 581,-655.5"/>
<text text-anchor="start" x="588" y="-666.9" font-family="Arial" font-size="14.00" fill="#000000">item_age    </text>
<text text-anchor="start" x="679.7756" y="-666.9" font-family="Arial" font-size="14.00" fill="#666666">[interval]</text>
<polygon fill="none" stroke="#000000" points="581,-625.5 581,-655.5 966,-655.5 966,-625.5 581,-625.5"/>
<text text-anchor="start" x="588" y="-636.9" font-family="Arial" font-size="14.00" fill="#000000">holdable    </text>
<text text-anchor="start" x="675.1136" y="-636.9" font-family="Arial" font-size="14.00" fill="#666666">[boolean]</text>
<polygon fill="none" stroke="#000000" points="581,-595.5 581,-625.5 966,-625.5 966,-595.5 581,-595.5"/>
<text text-anchor="start" x="588" y="-606.9" font-family="Arial" font-size="14.00" fill="#000000">distance_is_from_owner    </text>
<text text-anchor="start" x="773.8962" y="-606.9" font-family="Arial" font-size="14.00" fill="#666666">[boolean]</text>
<polygon fill="none" stroke="#000000" points="581,-565.5 581,-595.5 966,-595.5 966,-565.5 581,-565.5"/>
<text text-anchor="start" x="588" y="-576.9" font-family="Arial" font-size="14.00" fill="#000000">transit_range    </text>
<text text-anchor="start" x="703.892" y="-576.9" font-family="Arial" font-size="14.00" fill="#666666">[integer]</text>
<polygon fill="none" stroke="#000000" points="581,-535.5 581,-565.5 966,-565.5 966,-535.5 581,-535.5"/>
<text text-anchor="start" x="588" y="-546.9" font-family="Arial" font-size="14.00" fill="#000000">max_holds    </text>
<text text-anchor="start" x="689.885" y="-546.9" font-family="Arial" font-size="14.00" fill="#666666">[integer]</text>
<polygon fill="none" stroke="#000000" points="581,-505.5 581,-535.5 966,-535.5 966,-505.5 581,-505.5"/>
<text text-anchor="start" x="588" y="-516.9" font-family="Arial" font-size="14.00" fill="#000000">include_frozen_holds    </text>
<text text-anchor="start" x="754.467" y="-516.9" font-family="Arial" font-size="14.00" fill="#666666">[boolean]</text>
<polygon fill="none" stroke="#000000" points="581,-475.5 581,-505.5 966,-505.5 966,-475.5 581,-475.5"/>
<text text-anchor="start" x="588" y="-486.9" font-family="Arial" font-size="14.00" fill="#000000">stop_blocked_user    </text>
<text text-anchor="start" x="739.6886" y="-486.9" font-family="Arial" font-size="14.00" fill="#666666">[boolean]</text>
<polygon fill="none" stroke="#000000" points="581,-445.5 581,-475.5 966,-475.5 966,-445.5 581,-445.5"/>
<text text-anchor="start" x="588" y="-456.9" font-family="Arial" font-size="14.00" fill="#000000">age_hold_protect_rule    </text>
<text text-anchor="start" x="761.4768" y="-456.9" font-family="Arial" font-size="14.00" fill="#666666">[integer]</text>
<polygon fill="none" stroke="#000000" points="581,-415.5 581,-445.5 966,-445.5 966,-415.5 581,-415.5"/>
<text text-anchor="start" x="588" y="-426.9" font-family="Arial" font-size="14.00" fill="#000000">description    </text>
<text text-anchor="start" x="689.8822" y="-426.9" font-family="Arial" font-size="14.00" fill="#666666">[text]</text>
</g>
<!-- config.hold_matrix_matchpoint&#45;&gt;actor.org_unit_type -->
<g id="edge3" class="edge">
<title>config.hold_matrix_matchpoint:transit_range&#45;&gt;actor.org_unit_type:id</title>
<path fill="none" stroke="#000000" d="M571.3448,-577.5184C537.7962,-554.6349 555.2972,-406.8578 581,-373 616.9912,-325.5896 674.0088,-384.4104 710,-337 735.9327,-302.8393 752.8889,-240.5 710,-240.5"/>
<polygon fill="#000000" stroke="#000000" points="571.4452,-577.5494 579.6722,-584.7997 576.2226,-579.0247 581,-580.5 581,-580.5 581,-580.5 576.2226,-579.0247 582.3278,-576.2003 571.4452,-577.5494 571.4452,-577.5494"/>
<text text-anchor="start" x="87.9245" y="-564.5" font-family="Arial" font-size="10.00" fill="#000000">FOREIGN KEY (transit_range) REFERENCES actor.org_unit_type(id) DEFERRABLE INITIALLY DEFERRED</text>
</g>
</g>
</svg>
