<?xml version="1.0" encoding="UTF-8" standalone="no"?>
<!DOCTYPE svg PUBLIC "-//W3C//DTD SVG 1.1//EN"
 "http://www.w3.org/Graphics/SVG/1.1/DTD/svg11.dtd">
<!-- Generated by graphviz version 2.40.1 (20161225.0304)
 -->
<!-- Title: actor.usr_saved_search Pages: 1 -->
<svg width="920pt" height="1972pt"
 viewBox="0.00 0.00 919.50 1972.00" xmlns="http://www.w3.org/2000/svg" xmlns:xlink="http://www.w3.org/1999/xlink">
<g id="graph0" class="graph" transform="scale(1 1) rotate(0) translate(4 1968)">
<title>actor.usr_saved_search</title>
<polygon fill="#ffffff" stroke="transparent" points="-4,4 -4,-1968 915.5,-1968 915.5,4 -4,4"/>
<!-- actor.usr_saved_search -->
<g id="node1" class="node">
<title>actor.usr_saved_search</title>
<polygon fill="#efefef" stroke="transparent" points="46.5,-1882.5 46.5,-1917.5 379.5,-1917.5 379.5,-1882.5 46.5,-1882.5"/>
<polygon fill="none" stroke="#000000" points="46.5,-1882.5 46.5,-1917.5 379.5,-1917.5 379.5,-1882.5 46.5,-1882.5"/>
<text text-anchor="start" x="53.1914" y="-1895.3" font-family="Arial Bold" font-size="18.00" fill="#000000">actor.usr_saved_search</text>
<text text-anchor="start" x="245.2406" y="-1895.3" font-family="Arial" font-size="14.00" fill="#000000">    </text>
<text text-anchor="start" x="279.4454" y="-1895.3" font-family="Arial" font-size="14.00" fill="#666666">[BASE TABLE]</text>
<polygon fill="none" stroke="#000000" points="46.5,-1852.5 46.5,-1882.5 379.5,-1882.5 379.5,-1852.5 46.5,-1852.5"/>
<text text-anchor="start" x="53.5" y="-1863.9" font-family="Arial" font-size="14.00" fill="#000000">id </text>
<text text-anchor="start" x="68.2798" y="-1863.9" font-family="Arial" font-size="14.00" fill="#666666">[integer]</text>
<polygon fill="none" stroke="#000000" points="46.5,-1822.5 46.5,-1852.5 379.5,-1852.5 379.5,-1822.5 46.5,-1822.5"/>
<text text-anchor="start" x="53.5" y="-1833.9" font-family="Arial" font-size="14.00" fill="#000000">owner </text>
<text text-anchor="start" x="95.5056" y="-1833.9" font-family="Arial" font-size="14.00" fill="#666666">[integer]</text>
<polygon fill="none" stroke="#000000" points="46.5,-1792.5 46.5,-1822.5 379.5,-1822.5 379.5,-1792.5 46.5,-1792.5"/>
<text text-anchor="start" x="53.5" y="-1803.9" font-family="Arial" font-size="14.00" fill="#000000">name </text>
<text text-anchor="start" x="92.399" y="-1803.9" font-family="Arial" font-size="14.00" fill="#666666">[text]</text>
<polygon fill="none" stroke="#000000" points="46.5,-1762.5 46.5,-1792.5 379.5,-1792.5 379.5,-1762.5 46.5,-1762.5"/>
<text text-anchor="start" x="53.5" y="-1773.9" font-family="Arial" font-size="14.00" fill="#000000">create_date </text>
<text text-anchor="start" x="131.3106" y="-1773.9" font-family="Arial" font-size="14.00" fill="#666666">[timestamp with time zone]</text>
<polygon fill="none" stroke="#000000" points="46.5,-1732.5 46.5,-1762.5 379.5,-1762.5 379.5,-1732.5 46.5,-1732.5"/>
<text text-anchor="start" x="53.5" y="-1743.9" font-family="Arial" font-size="14.00" fill="#000000">query_text </text>
<text text-anchor="start" x="122.7454" y="-1743.9" font-family="Arial" font-size="14.00" fill="#666666">[text]</text>
<polygon fill="none" stroke="#000000" points="46.5,-1702.5 46.5,-1732.5 379.5,-1732.5 379.5,-1702.5 46.5,-1702.5"/>
<text text-anchor="start" x="53.5" y="-1713.9" font-family="Arial" font-size="14.00" fill="#000000">query_type </text>
<text text-anchor="start" x="126.6374" y="-1713.9" font-family="Arial" font-size="14.00" fill="#666666">[text]</text>
<polygon fill="none" stroke="#000000" points="46.5,-1672.5 46.5,-1702.5 379.5,-1702.5 379.5,-1672.5 46.5,-1672.5"/>
<text text-anchor="start" x="53.5" y="-1683.9" font-family="Arial" font-size="14.00" fill="#000000">target </text>
<text text-anchor="start" x="93.1802" y="-1683.9" font-family="Arial" font-size="14.00" fill="#666666">[text]</text>
<polygon fill="none" stroke="#000000" stroke-width="3" points="44.5,-1671.5 44.5,-1919.5 380.5,-1919.5 380.5,-1671.5 44.5,-1671.5"/>
</g>
<!-- actor.usr -->
<g id="node2" class="node">
<title>actor.usr</title>
<polygon fill="#efefef" stroke="transparent" points="53.5,-1512.5 53.5,-1547.5 373.5,-1547.5 373.5,-1512.5 53.5,-1512.5"/>
<polygon fill="none" stroke="#000000" points="53.5,-1512.5 53.5,-1547.5 373.5,-1547.5 373.5,-1512.5 53.5,-1512.5"/>
<text text-anchor="start" x="114.7123" y="-1525.3" font-family="Arial Bold" font-size="18.00" fill="#000000">actor.usr</text>
<text text-anchor="start" x="184.7197" y="-1525.3" font-family="Arial" font-size="14.00" fill="#000000">    </text>
<text text-anchor="start" x="218.9245" y="-1525.3" font-family="Arial" font-size="14.00" fill="#666666">[BASE TABLE]</text>
<polygon fill="none" stroke="#000000" points="53.5,-1482.5 53.5,-1512.5 373.5,-1512.5 373.5,-1482.5 53.5,-1482.5"/>
<text text-anchor="start" x="60.5" y="-1493.9" font-family="Arial" font-size="14.00" fill="#000000">id    </text>
<text text-anchor="start" x="105.594" y="-1493.9" font-family="Arial" font-size="14.00" fill="#666666">[integer]</text>
<polygon fill="none" stroke="#000000" points="53.5,-1452.5 53.5,-1482.5 373.5,-1482.5 373.5,-1452.5 53.5,-1452.5"/>
<text text-anchor="start" x="60.5" y="-1463.9" font-family="Arial" font-size="14.00" fill="#000000">card    </text>
<text text-anchor="start" x="121.9306" y="-1463.9" font-family="Arial" font-size="14.00" fill="#666666">[integer]</text>
<polygon fill="none" stroke="#000000" points="53.5,-1422.5 53.5,-1452.5 373.5,-1452.5 373.5,-1422.5 53.5,-1422.5"/>
<text text-anchor="start" x="60.5" y="-1433.9" font-family="Arial" font-size="14.00" fill="#000000">profile    </text>
<text text-anchor="start" x="132.817" y="-1433.9" font-family="Arial" font-size="14.00" fill="#666666">[integer]</text>
<polygon fill="none" stroke="#000000" points="53.5,-1392.5 53.5,-1422.5 373.5,-1422.5 373.5,-1392.5 53.5,-1392.5"/>
<text text-anchor="start" x="60.5" y="-1403.9" font-family="Arial" font-size="14.00" fill="#000000">usrname    </text>
<text text-anchor="start" x="149.1564" y="-1403.9" font-family="Arial" font-size="14.00" fill="#666666">[text]</text>
<polygon fill="none" stroke="#000000" points="53.5,-1362.5 53.5,-1392.5 373.5,-1392.5 373.5,-1362.5 53.5,-1362.5"/>
<text text-anchor="start" x="60.5" y="-1373.9" font-family="Arial" font-size="14.00" fill="#000000">email    </text>
<text text-anchor="start" x="128.1438" y="-1373.9" font-family="Arial" font-size="14.00" fill="#666666">[text]</text>
<polygon fill="none" stroke="#000000" points="53.5,-1332.5 53.5,-1362.5 373.5,-1362.5 373.5,-1332.5 53.5,-1332.5"/>
<text text-anchor="start" x="60.5" y="-1343.9" font-family="Arial" font-size="14.00" fill="#000000">passwd    </text>
<text text-anchor="start" x="142.1592" y="-1343.9" font-family="Arial" font-size="14.00" fill="#666666">[text]</text>
<polygon fill="none" stroke="#000000" points="53.5,-1302.5 53.5,-1332.5 373.5,-1332.5 373.5,-1302.5 53.5,-1302.5"/>
<text text-anchor="start" x="60.5" y="-1313.9" font-family="Arial" font-size="14.00" fill="#000000">standing    </text>
<text text-anchor="start" x="147.615" y="-1313.9" font-family="Arial" font-size="14.00" fill="#666666">[integer]</text>
<polygon fill="none" stroke="#000000" points="53.5,-1272.5 53.5,-1302.5 373.5,-1302.5 373.5,-1272.5 53.5,-1272.5"/>
<text text-anchor="start" x="60.5" y="-1283.9" font-family="Arial" font-size="14.00" fill="#000000">ident_type    </text>
<text text-anchor="start" x="159.2882" y="-1283.9" font-family="Arial" font-size="14.00" fill="#666666">[integer]</text>
<polygon fill="none" stroke="#000000" points="53.5,-1242.5 53.5,-1272.5 373.5,-1272.5 373.5,-1242.5 53.5,-1242.5"/>
<text text-anchor="start" x="60.5" y="-1253.9" font-family="Arial" font-size="14.00" fill="#000000">ident_value    </text>
<text text-anchor="start" x="166.2868" y="-1253.9" font-family="Arial" font-size="14.00" fill="#666666">[text]</text>
<polygon fill="none" stroke="#000000" points="53.5,-1212.5 53.5,-1242.5 373.5,-1242.5 373.5,-1212.5 53.5,-1212.5"/>
<text text-anchor="start" x="60.5" y="-1223.9" font-family="Arial" font-size="14.00" fill="#000000">ident_type2    </text>
<text text-anchor="start" x="167.0708" y="-1223.9" font-family="Arial" font-size="14.00" fill="#666666">[integer]</text>
<polygon fill="none" stroke="#000000" points="53.5,-1182.5 53.5,-1212.5 373.5,-1212.5 373.5,-1182.5 53.5,-1182.5"/>
<text text-anchor="start" x="60.5" y="-1193.9" font-family="Arial" font-size="14.00" fill="#000000">ident_value2    </text>
<text text-anchor="start" x="174.0694" y="-1193.9" font-family="Arial" font-size="14.00" fill="#666666">[text]</text>
<polygon fill="none" stroke="#000000" points="53.5,-1152.5 53.5,-1182.5 373.5,-1182.5 373.5,-1152.5 53.5,-1152.5"/>
<text text-anchor="start" x="60.5" y="-1163.9" font-family="Arial" font-size="14.00" fill="#000000">net_access_level    </text>
<text text-anchor="start" x="202.0694" y="-1163.9" font-family="Arial" font-size="14.00" fill="#666666">[integer]</text>
<polygon fill="none" stroke="#000000" points="53.5,-1122.5 53.5,-1152.5 373.5,-1152.5 373.5,-1122.5 53.5,-1122.5"/>
<text text-anchor="start" x="60.5" y="-1133.9" font-family="Arial" font-size="14.00" fill="#000000">photo_url    </text>
<text text-anchor="start" x="153.0582" y="-1133.9" font-family="Arial" font-size="14.00" fill="#666666">[text]</text>
<polygon fill="none" stroke="#000000" points="53.5,-1092.5 53.5,-1122.5 373.5,-1122.5 373.5,-1092.5 53.5,-1092.5"/>
<text text-anchor="start" x="60.5" y="-1103.9" font-family="Arial" font-size="14.00" fill="#000000">prefix    </text>
<text text-anchor="start" x="128.9278" y="-1103.9" font-family="Arial" font-size="14.00" fill="#666666">[text]</text>
<polygon fill="none" stroke="#000000" points="53.5,-1062.5 53.5,-1092.5 373.5,-1092.5 373.5,-1062.5 53.5,-1062.5"/>
<text text-anchor="start" x="60.5" y="-1073.9" font-family="Arial" font-size="14.00" fill="#000000">first_given_name    </text>
<text text-anchor="start" x="201.2812" y="-1073.9" font-family="Arial" font-size="14.00" fill="#666666">[text]</text>
<polygon fill="none" stroke="#000000" points="53.5,-1032.5 53.5,-1062.5 373.5,-1062.5 373.5,-1032.5 53.5,-1032.5"/>
<text text-anchor="start" x="60.5" y="-1043.9" font-family="Arial" font-size="14.00" fill="#000000">second_given_name    </text>
<text text-anchor="start" x="223.8632" y="-1043.9" font-family="Arial" font-size="14.00" fill="#666666">[text]</text>
<polygon fill="none" stroke="#000000" points="53.5,-1002.5 53.5,-1032.5 373.5,-1032.5 373.5,-1002.5 53.5,-1002.5"/>
<text text-anchor="start" x="60.5" y="-1013.9" font-family="Arial" font-size="14.00" fill="#000000">family_name    </text>
<text text-anchor="start" x="174.0428" y="-1013.9" font-family="Arial" font-size="14.00" fill="#666666">[text]</text>
<polygon fill="none" stroke="#000000" points="53.5,-972.5 53.5,-1002.5 373.5,-1002.5 373.5,-972.5 53.5,-972.5"/>
<text text-anchor="start" x="60.5" y="-983.9" font-family="Arial" font-size="14.00" fill="#000000">suffix    </text>
<text text-anchor="start" x="127.3752" y="-983.9" font-family="Arial" font-size="14.00" fill="#666666">[text]</text>
<polygon fill="none" stroke="#000000" points="53.5,-942.5 53.5,-972.5 373.5,-972.5 373.5,-942.5 53.5,-942.5"/>
<text text-anchor="start" x="60.5" y="-953.9" font-family="Arial" font-size="14.00" fill="#000000">alias    </text>
<text text-anchor="start" x="123.4832" y="-953.9" font-family="Arial" font-size="14.00" fill="#666666">[text]</text>
<polygon fill="none" stroke="#000000" points="53.5,-912.5 53.5,-942.5 373.5,-942.5 373.5,-912.5 53.5,-912.5"/>
<text text-anchor="start" x="60.5" y="-923.9" font-family="Arial" font-size="14.00" fill="#000000">day_phone    </text>
<text text-anchor="start" x="163.9656" y="-923.9" font-family="Arial" font-size="14.00" fill="#666666">[text]</text>
<polygon fill="none" stroke="#000000" points="53.5,-882.5 53.5,-912.5 373.5,-912.5 373.5,-882.5 53.5,-882.5"/>
<text text-anchor="start" x="60.5" y="-893.9" font-family="Arial" font-size="14.00" fill="#000000">evening_phone    </text>
<text text-anchor="start" x="190.42" y="-893.9" font-family="Arial" font-size="14.00" fill="#666666">[text]</text>
<polygon fill="none" stroke="#000000" points="53.5,-852.5 53.5,-882.5 373.5,-882.5 373.5,-852.5 53.5,-852.5"/>
<text text-anchor="start" x="60.5" y="-863.9" font-family="Arial" font-size="14.00" fill="#000000">other_phone    </text>
<text text-anchor="start" x="173.2994" y="-863.9" font-family="Arial" font-size="14.00" fill="#666666">[text]</text>
<polygon fill="none" stroke="#000000" points="53.5,-822.5 53.5,-852.5 373.5,-852.5 373.5,-822.5 53.5,-822.5"/>
<text text-anchor="start" x="60.5" y="-833.9" font-family="Arial" font-size="14.00" fill="#000000">mailing_address    </text>
<text text-anchor="start" x="196.6066" y="-833.9" font-family="Arial" font-size="14.00" fill="#666666">[integer]</text>
<polygon fill="none" stroke="#000000" points="53.5,-792.5 53.5,-822.5 373.5,-822.5 373.5,-792.5 53.5,-792.5"/>
<text text-anchor="start" x="60.5" y="-803.9" font-family="Arial" font-size="14.00" fill="#000000">billing_address    </text>
<text text-anchor="start" x="188.0526" y="-803.9" font-family="Arial" font-size="14.00" fill="#666666">[integer]</text>
<polygon fill="none" stroke="#000000" points="53.5,-762.5 53.5,-792.5 373.5,-792.5 373.5,-762.5 53.5,-762.5"/>
<text text-anchor="start" x="60.5" y="-773.9" font-family="Arial" font-size="14.00" fill="#000000">home_ou    </text>
<text text-anchor="start" x="153.061" y="-773.9" font-family="Arial" font-size="14.00" fill="#666666">[integer]</text>
<polygon fill="none" stroke="#000000" points="53.5,-732.5 53.5,-762.5 373.5,-762.5 373.5,-732.5 53.5,-732.5"/>
<text text-anchor="start" x="60.5" y="-743.9" font-family="Arial" font-size="14.00" fill="#000000">dob    </text>
<text text-anchor="start" x="118.0526" y="-743.9" font-family="Arial" font-size="14.00" fill="#666666">[date]</text>
<polygon fill="none" stroke="#000000" points="53.5,-702.5 53.5,-732.5 373.5,-732.5 373.5,-702.5 53.5,-702.5"/>
<text text-anchor="start" x="60.5" y="-713.9" font-family="Arial" font-size="14.00" fill="#000000">active    </text>
<text text-anchor="start" x="131.2672" y="-713.9" font-family="Arial" font-size="14.00" fill="#666666">[boolean]</text>
<polygon fill="none" stroke="#000000" points="53.5,-672.5 53.5,-702.5 373.5,-702.5 373.5,-672.5 53.5,-672.5"/>
<text text-anchor="start" x="60.5" y="-683.9" font-family="Arial" font-size="14.00" fill="#000000">master_account    </text>
<text text-anchor="start" x="194.2854" y="-683.9" font-family="Arial" font-size="14.00" fill="#666666">[boolean]</text>
<polygon fill="none" stroke="#000000" points="53.5,-642.5 53.5,-672.5 373.5,-672.5 373.5,-642.5 53.5,-642.5"/>
<text text-anchor="start" x="60.5" y="-653.9" font-family="Arial" font-size="14.00" fill="#000000">super_user    </text>
<text text-anchor="start" x="164.7216" y="-653.9" font-family="Arial" font-size="14.00" fill="#666666">[boolean]</text>
<polygon fill="none" stroke="#000000" points="53.5,-612.5 53.5,-642.5 373.5,-642.5 373.5,-612.5 53.5,-612.5"/>
<text text-anchor="start" x="60.5" y="-623.9" font-family="Arial" font-size="14.00" fill="#000000">barred    </text>
<text text-anchor="start" x="135.1564" y="-623.9" font-family="Arial" font-size="14.00" fill="#666666">[boolean]</text>
<polygon fill="none" stroke="#000000" points="53.5,-582.5 53.5,-612.5 373.5,-612.5 373.5,-582.5 53.5,-582.5"/>
<text text-anchor="start" x="60.5" y="-593.9" font-family="Arial" font-size="14.00" fill="#000000">deleted    </text>
<text text-anchor="start" x="140.615" y="-593.9" font-family="Arial" font-size="14.00" fill="#666666">[boolean]</text>
<polygon fill="none" stroke="#000000" points="53.5,-552.5 53.5,-582.5 373.5,-582.5 373.5,-552.5 53.5,-552.5"/>
<text text-anchor="start" x="60.5" y="-563.9" font-family="Arial" font-size="14.00" fill="#000000">juvenile    </text>
<text text-anchor="start" x="142.155" y="-563.9" font-family="Arial" font-size="14.00" fill="#666666">[boolean]</text>
<polygon fill="none" stroke="#000000" points="53.5,-522.5 53.5,-552.5 373.5,-552.5 373.5,-522.5 53.5,-522.5"/>
<text text-anchor="start" x="60.5" y="-533.9" font-family="Arial" font-size="14.00" fill="#000000">usrgroup    </text>
<text text-anchor="start" x="149.939" y="-533.9" font-family="Arial" font-size="14.00" fill="#666666">[integer]</text>
<polygon fill="none" stroke="#000000" points="53.5,-492.5 53.5,-522.5 373.5,-522.5 373.5,-492.5 53.5,-492.5"/>
<text text-anchor="start" x="60.5" y="-503.9" font-family="Arial" font-size="14.00" fill="#000000">claims_returned_count    </text>
<text text-anchor="start" x="236.2896" y="-503.9" font-family="Arial" font-size="14.00" fill="#666666">[integer]</text>
<polygon fill="none" stroke="#000000" points="53.5,-462.5 53.5,-492.5 373.5,-492.5 373.5,-462.5 53.5,-462.5"/>
<text text-anchor="start" x="60.5" y="-473.9" font-family="Arial" font-size="14.00" fill="#000000">credit_forward_balance    </text>
<text text-anchor="start" x="240.1788" y="-473.9" font-family="Arial" font-size="14.00" fill="#666666">[numeric(6,2)]</text>
<polygon fill="none" stroke="#000000" points="53.5,-432.5 53.5,-462.5 373.5,-462.5 373.5,-432.5 53.5,-432.5"/>
<text text-anchor="start" x="60.5" y="-443.9" font-family="Arial" font-size="14.00" fill="#000000">last_xact_id    </text>
<text text-anchor="start" x="168.6122" y="-443.9" font-family="Arial" font-size="14.00" fill="#666666">[text]</text>
<polygon fill="none" stroke="#000000" points="53.5,-402.5 53.5,-432.5 373.5,-432.5 373.5,-402.5 53.5,-402.5"/>
<text text-anchor="start" x="60.5" y="-413.9" font-family="Arial" font-size="14.00" fill="#000000">alert_message    </text>
<text text-anchor="start" x="186.5014" y="-413.9" font-family="Arial" font-size="14.00" fill="#666666">[text]</text>
<polygon fill="none" stroke="#000000" points="53.5,-372.5 53.5,-402.5 373.5,-402.5 373.5,-372.5 53.5,-372.5"/>
<text text-anchor="start" x="60.5" y="-383.9" font-family="Arial" font-size="14.00" fill="#000000">create_date    </text>
<text text-anchor="start" x="168.6248" y="-383.9" font-family="Arial" font-size="14.00" fill="#666666">[timestamp with time zone]</text>
<polygon fill="none" stroke="#000000" points="53.5,-342.5 53.5,-372.5 373.5,-372.5 373.5,-342.5 53.5,-342.5"/>
<text text-anchor="start" x="60.5" y="-353.9" font-family="Arial" font-size="14.00" fill="#000000">expire_date    </text>
<text text-anchor="start" x="167.8408" y="-353.9" font-family="Arial" font-size="14.00" fill="#666666">[timestamp with time zone]</text>
<polygon fill="none" stroke="#000000" points="53.5,-312.5 53.5,-342.5 373.5,-342.5 373.5,-312.5 53.5,-312.5"/>
<text text-anchor="start" x="60.5" y="-323.9" font-family="Arial" font-size="14.00" fill="#000000">claims_never_checked_out_count    </text>
<text text-anchor="start" x="306.3246" y="-323.9" font-family="Arial" font-size="14.00" fill="#666666">[integer]</text>
<polygon fill="none" stroke="#000000" points="53.5,-282.5 53.5,-312.5 373.5,-312.5 373.5,-282.5 53.5,-282.5"/>
<text text-anchor="start" x="60.2609" y="-293.9" font-family="Arial" font-size="14.00" fill="#000000">last_update_time    </text>
<text text-anchor="start" x="201.0547" y="-293.9" font-family="Arial" font-size="14.00" fill="#666666">[timestamp with time zone]</text>
<polygon fill="none" stroke="#000000" points="53.5,-252.5 53.5,-282.5 373.5,-282.5 373.5,-252.5 53.5,-252.5"/>
<text text-anchor="start" x="60.5" y="-263.9" font-family="Arial" font-size="14.00" fill="#000000">pref_prefix    </text>
<text text-anchor="start" x="160.8268" y="-263.9" font-family="Arial" font-size="14.00" fill="#666666">[text]</text>
<polygon fill="none" stroke="#000000" points="53.5,-222.5 53.5,-252.5 373.5,-252.5 373.5,-222.5 53.5,-222.5"/>
<text text-anchor="start" x="60.5" y="-233.9" font-family="Arial" font-size="14.00" fill="#000000">pref_first_given_name    </text>
<text text-anchor="start" x="233.1802" y="-233.9" font-family="Arial" font-size="14.00" fill="#666666">[text]</text>
<polygon fill="none" stroke="#000000" points="53.5,-192.5 53.5,-222.5 373.5,-222.5 373.5,-192.5 53.5,-192.5"/>
<text text-anchor="start" x="60.5" y="-203.9" font-family="Arial" font-size="14.00" fill="#000000">pref_second_given_name    </text>
<text text-anchor="start" x="255.7622" y="-203.9" font-family="Arial" font-size="14.00" fill="#666666">[text]</text>
<polygon fill="none" stroke="#000000" points="53.5,-162.5 53.5,-192.5 373.5,-192.5 373.5,-162.5 53.5,-162.5"/>
<text text-anchor="start" x="60.5" y="-173.9" font-family="Arial" font-size="14.00" fill="#000000">pref_family_name    </text>
<text text-anchor="start" x="205.9418" y="-173.9" font-family="Arial" font-size="14.00" fill="#666666">[text]</text>
<polygon fill="none" stroke="#000000" points="53.5,-132.5 53.5,-162.5 373.5,-162.5 373.5,-132.5 53.5,-132.5"/>
<text text-anchor="start" x="60.5" y="-143.9" font-family="Arial" font-size="14.00" fill="#000000">pref_suffix    </text>
<text text-anchor="start" x="159.2742" y="-143.9" font-family="Arial" font-size="14.00" fill="#666666">[text]</text>
<polygon fill="none" stroke="#000000" points="53.5,-102.5 53.5,-132.5 373.5,-132.5 373.5,-102.5 53.5,-102.5"/>
<text text-anchor="start" x="60.5" y="-113.9" font-family="Arial" font-size="14.00" fill="#000000">name_keywords    </text>
<text text-anchor="start" x="196.6108" y="-113.9" font-family="Arial" font-size="14.00" fill="#666666">[text]</text>
<polygon fill="none" stroke="#000000" points="53.5,-72.5 53.5,-102.5 373.5,-102.5 373.5,-72.5 53.5,-72.5"/>
<text text-anchor="start" x="60.5" y="-83.9" font-family="Arial" font-size="14.00" fill="#000000">name_kw_tsvector    </text>
<text text-anchor="start" x="211.392" y="-83.9" font-family="Arial" font-size="14.00" fill="#666666">[tsvector]</text>
<polygon fill="none" stroke="#000000" points="53.5,-42.5 53.5,-72.5 373.5,-72.5 373.5,-42.5 53.5,-42.5"/>
<text text-anchor="start" x="60.5" y="-53.9" font-family="Arial" font-size="14.00" fill="#000000">guardian    </text>
<text text-anchor="start" x="149.1676" y="-53.9" font-family="Arial" font-size="14.00" fill="#666666">[text]</text>
</g>
<!-- actor.usr_saved_search&#45;&gt;actor.usr -->
<g id="edge1" class="edge">
<title>actor.usr_saved_search:owner&#45;&gt;actor.usr:id</title>
<path fill="none" stroke="#000000" d="M389.8983,-1836.8681C470.5752,-1826.6077 439.4795,-1693.9676 379.5,-1627 330.8733,-1572.7078 102.1267,-1645.2922 53.5,-1591 25.7753,-1560.0451 11.9444,-1497.5 53.5,-1497.5"/>
<polygon fill="#000000" stroke="#000000" points="389.4816,-1836.8933 379.227,-1833.0083 384.4908,-1837.1966 379.5,-1837.5 379.5,-1837.5 379.5,-1837.5 384.4908,-1837.1966 379.773,-1841.9917 389.4816,-1836.8933 389.4816,-1836.8933"/>
<text text-anchor="start" x="386.05" y="-1847.5" font-family="Arial" font-size="10.00" fill="#000000">FOREIGN KEY (owner) REFERENCES actor.usr(id) ON DELETE CASCADE DEFERRABLE INITIALLY DEFERRED</text>
</g>
</g>
</svg>
