<?xml version="1.0" encoding="UTF-8" standalone="no"?>
<!DOCTYPE svg PUBLIC "-//W3C//DTD SVG 1.1//EN"
 "http://www.w3.org/Graphics/SVG/1.1/DTD/svg11.dtd">
<!-- Generated by graphviz version 2.40.1 (20161225.0304)
 -->
<!-- Title: actor.org_unit_custom_tree_node Pages: 1 -->
<svg width="1366pt" height="1047pt"
 viewBox="0.00 0.00 1366.00 1047.00" xmlns="http://www.w3.org/2000/svg" xmlns:xlink="http://www.w3.org/1999/xlink">
<g id="graph0" class="graph" transform="scale(1 1) rotate(0) translate(4 1043)">
<title>actor.org_unit_custom_tree_node</title>
<polygon fill="#ffffff" stroke="transparent" points="-4,4 -4,-1043 1362,-1043 1362,4 -4,4"/>
<!-- actor.org_unit_custom_tree_node -->
<g id="node1" class="node">
<title>actor.org_unit_custom_tree_node</title>
<polygon fill="#efefef" stroke="transparent" points="495,-742.5 495,-777.5 905,-777.5 905,-742.5 495,-742.5"/>
<polygon fill="none" stroke="#000000" points="495,-742.5 495,-777.5 905,-777.5 905,-742.5 495,-742.5"/>
<text text-anchor="start" x="501.6732" y="-755.3" font-family="Arial Bold" font-size="18.00" fill="#000000">actor.org_unit_custom_tree_node</text>
<text text-anchor="start" x="770.7588" y="-755.3" font-family="Arial" font-size="14.00" fill="#000000">    </text>
<text text-anchor="start" x="804.9636" y="-755.3" font-family="Arial" font-size="14.00" fill="#666666">[BASE TABLE]</text>
<polygon fill="none" stroke="#000000" points="495,-712.5 495,-742.5 905,-742.5 905,-712.5 495,-712.5"/>
<text text-anchor="start" x="502" y="-723.9" font-family="Arial" font-size="14.00" fill="#000000">id </text>
<text text-anchor="start" x="516.7798" y="-723.9" font-family="Arial" font-size="14.00" fill="#666666">[integer]</text>
<polygon fill="none" stroke="#000000" points="495,-682.5 495,-712.5 905,-712.5 905,-682.5 495,-682.5"/>
<text text-anchor="start" x="502" y="-693.9" font-family="Arial" font-size="14.00" fill="#000000">tree </text>
<text text-anchor="start" x="530.007" y="-693.9" font-family="Arial" font-size="14.00" fill="#666666">[integer]</text>
<polygon fill="none" stroke="#000000" points="495,-652.5 495,-682.5 905,-682.5 905,-652.5 495,-652.5"/>
<text text-anchor="start" x="502" y="-663.9" font-family="Arial" font-size="14.00" fill="#000000">org_unit </text>
<text text-anchor="start" x="556.4614" y="-663.9" font-family="Arial" font-size="14.00" fill="#666666">[integer]</text>
<polygon fill="none" stroke="#000000" points="495,-622.5 495,-652.5 905,-652.5 905,-622.5 495,-622.5"/>
<text text-anchor="start" x="502" y="-633.9" font-family="Arial" font-size="14.00" fill="#000000">parent_node </text>
<text text-anchor="start" x="584.4852" y="-633.9" font-family="Arial" font-size="14.00" fill="#666666">[integer]</text>
<polygon fill="none" stroke="#000000" points="495,-592.5 495,-622.5 905,-622.5 905,-592.5 495,-592.5"/>
<text text-anchor="start" x="502" y="-603.9" font-family="Arial" font-size="14.00" fill="#000000">sibling_order </text>
<text text-anchor="start" x="586.0098" y="-603.9" font-family="Arial" font-size="14.00" fill="#666666">[integer]</text>
<polygon fill="none" stroke="#000000" stroke-width="3" points="493.5,-591.5 493.5,-779.5 906.5,-779.5 906.5,-591.5 493.5,-591.5"/>
</g>
<!-- actor.org_unit_custom_tree_node&#45;&gt;actor.org_unit_custom_tree_node -->
<g id="edge1" class="edge">
<title>actor.org_unit_custom_tree_node:parent_node&#45;&gt;actor.org_unit_custom_tree_node:id</title>
<path fill="none" stroke="#000000" d="M701.6714,-662.9935C708.9604,-791.7013 708.4033,-1039 700,-1039 691.3779,-1039 691.0159,-861.2568 698.9138,-742.7254"/>
<polygon fill="#000000" stroke="#000000" points="701.6592,-662.7871 705.554,-652.5362 701.3606,-657.796 701.062,-652.8049 701.062,-652.8049 701.062,-652.8049 701.3606,-657.796 696.57,-653.0737 701.6592,-662.7871 701.6592,-662.7871"/>
<text text-anchor="start" x="708.1365" y="-662.8049" font-family="Arial" font-size="10.00" fill="#000000">FOREIGN KEY (parent_node) REFERENCES actor.org_unit_custom_tree_node(id) DEFERRABLE INITIALLY DEFERRED</text>
</g>
<!-- actor.org_unit_custom_tree -->
<g id="node2" class="node">
<title>actor.org_unit_custom_tree</title>
<polygon fill="#efefef" stroke="transparent" points="315,-282.5 315,-317.5 675,-317.5 675,-282.5 315,-282.5"/>
<polygon fill="none" stroke="#000000" points="315,-282.5 315,-317.5 675,-317.5 675,-282.5 315,-282.5"/>
<text text-anchor="start" x="321.6887" y="-295.3" font-family="Arial Bold" font-size="18.00" fill="#000000">actor.org_unit_custom_tree</text>
<text text-anchor="start" x="540.7433" y="-295.3" font-family="Arial" font-size="14.00" fill="#000000">    </text>
<text text-anchor="start" x="574.9481" y="-295.3" font-family="Arial" font-size="14.00" fill="#666666">[BASE TABLE]</text>
<polygon fill="none" stroke="#000000" points="315,-252.5 315,-282.5 675,-282.5 675,-252.5 315,-252.5"/>
<text text-anchor="start" x="322" y="-263.9" font-family="Arial" font-size="14.00" fill="#000000">id    </text>
<text text-anchor="start" x="367.094" y="-263.9" font-family="Arial" font-size="14.00" fill="#666666">[integer]</text>
<polygon fill="none" stroke="#000000" points="315,-222.5 315,-252.5 675,-252.5 675,-222.5 315,-222.5"/>
<text text-anchor="start" x="322" y="-233.9" font-family="Arial" font-size="14.00" fill="#000000">active    </text>
<text text-anchor="start" x="392.7672" y="-233.9" font-family="Arial" font-size="14.00" fill="#666666">[boolean]</text>
<polygon fill="none" stroke="#000000" points="315,-192.5 315,-222.5 675,-222.5 675,-192.5 315,-192.5"/>
<text text-anchor="start" x="322" y="-203.9" font-family="Arial" font-size="14.00" fill="#000000">purpose    </text>
<text text-anchor="start" x="406.7784" y="-203.9" font-family="Arial" font-size="14.00" fill="#666666">[actor.org_unit_custom_tree_purpose]</text>
</g>
<!-- actor.org_unit_custom_tree_node&#45;&gt;actor.org_unit_custom_tree -->
<g id="edge2" class="edge">
<title>actor.org_unit_custom_tree_node:tree&#45;&gt;actor.org_unit_custom_tree:id</title>
<path fill="none" stroke="#000000" d="M484.9807,-696.7248C432.6329,-687.9001 471.2822,-605.6141 495,-547 538.1506,-440.3614 631.8494,-467.6386 675,-361 690.5874,-322.4786 716.5556,-267.5 675,-267.5"/>
<polygon fill="#000000" stroke="#000000" points="485.0298,-696.7285 494.6528,-701.9866 490.0149,-697.1143 495,-697.5 495,-697.5 495,-697.5 490.0149,-697.1143 495.3472,-693.0134 485.0298,-696.7285 485.0298,-696.7285"/>
<text text-anchor="start" x="7.4285" y="-707.5" font-family="Arial" font-size="10.00" fill="#000000">FOREIGN KEY (tree) REFERENCES actor.org_unit_custom_tree(id) DEFERRABLE INITIALLY DEFERRED</text>
</g>
<!-- actor.org_unit -->
<g id="node3" class="node">
<title>actor.org_unit</title>
<polygon fill="#efefef" stroke="transparent" points="780,-432.5 780,-467.5 1031,-467.5 1031,-432.5 780,-432.5"/>
<polygon fill="none" stroke="#000000" points="780,-432.5 780,-467.5 1031,-467.5 1031,-432.5 780,-432.5"/>
<text text-anchor="start" x="786.7017" y="-445.3" font-family="Arial Bold" font-size="18.00" fill="#000000">actor.org_unit</text>
<text text-anchor="start" x="896.7303" y="-445.3" font-family="Arial" font-size="14.00" fill="#000000">    </text>
<text text-anchor="start" x="930.9351" y="-445.3" font-family="Arial" font-size="14.00" fill="#666666">[BASE TABLE]</text>
<polygon fill="none" stroke="#000000" points="780,-402.5 780,-432.5 1031,-432.5 1031,-402.5 780,-402.5"/>
<text text-anchor="start" x="787" y="-413.9" font-family="Arial" font-size="14.00" fill="#000000">id    </text>
<text text-anchor="start" x="832.094" y="-413.9" font-family="Arial" font-size="14.00" fill="#666666">[integer]</text>
<polygon fill="none" stroke="#000000" points="780,-372.5 780,-402.5 1031,-402.5 1031,-372.5 780,-372.5"/>
<text text-anchor="start" x="787" y="-383.9" font-family="Arial" font-size="14.00" fill="#000000">parent_ou    </text>
<text text-anchor="start" x="884.2342" y="-383.9" font-family="Arial" font-size="14.00" fill="#666666">[integer]</text>
<polygon fill="none" stroke="#000000" points="780,-342.5 780,-372.5 1031,-372.5 1031,-342.5 780,-342.5"/>
<text text-anchor="start" x="787" y="-353.9" font-family="Arial" font-size="14.00" fill="#000000">ou_type    </text>
<text text-anchor="start" x="871.0084" y="-353.9" font-family="Arial" font-size="14.00" fill="#666666">[integer]</text>
<polygon fill="none" stroke="#000000" points="780,-312.5 780,-342.5 1031,-342.5 1031,-312.5 780,-312.5"/>
<text text-anchor="start" x="787" y="-323.9" font-family="Arial" font-size="14.00" fill="#000000">ill_address    </text>
<text text-anchor="start" x="888.0982" y="-323.9" font-family="Arial" font-size="14.00" fill="#666666">[integer]</text>
<polygon fill="none" stroke="#000000" points="780,-282.5 780,-312.5 1031,-312.5 1031,-282.5 780,-282.5"/>
<text text-anchor="start" x="787" y="-293.9" font-family="Arial" font-size="14.00" fill="#000000">holds_address    </text>
<text text-anchor="start" x="912.2328" y="-293.9" font-family="Arial" font-size="14.00" fill="#666666">[integer]</text>
<polygon fill="none" stroke="#000000" points="780,-252.5 780,-282.5 1031,-282.5 1031,-252.5 780,-252.5"/>
<text text-anchor="start" x="787" y="-263.9" font-family="Arial" font-size="14.00" fill="#000000">mailing_address    </text>
<text text-anchor="start" x="923.1066" y="-263.9" font-family="Arial" font-size="14.00" fill="#666666">[integer]</text>
<polygon fill="none" stroke="#000000" points="780,-222.5 780,-252.5 1031,-252.5 1031,-222.5 780,-222.5"/>
<text text-anchor="start" x="787" y="-233.9" font-family="Arial" font-size="14.00" fill="#000000">billing_address    </text>
<text text-anchor="start" x="914.5526" y="-233.9" font-family="Arial" font-size="14.00" fill="#666666">[integer]</text>
<polygon fill="none" stroke="#000000" points="780,-192.5 780,-222.5 1031,-222.5 1031,-192.5 780,-192.5"/>
<text text-anchor="start" x="787" y="-203.9" font-family="Arial" font-size="14.00" fill="#000000">shortname    </text>
<text text-anchor="start" x="887.3296" y="-203.9" font-family="Arial" font-size="14.00" fill="#666666">[text]</text>
<polygon fill="none" stroke="#000000" points="780,-162.5 780,-192.5 1031,-192.5 1031,-162.5 780,-162.5"/>
<text text-anchor="start" x="787" y="-173.9" font-family="Arial" font-size="14.00" fill="#000000">name    </text>
<text text-anchor="start" x="856.2132" y="-173.9" font-family="Arial" font-size="14.00" fill="#666666">[text]</text>
<polygon fill="none" stroke="#000000" points="780,-132.5 780,-162.5 1031,-162.5 1031,-132.5 780,-132.5"/>
<text text-anchor="start" x="787" y="-143.9" font-family="Arial" font-size="14.00" fill="#000000">email    </text>
<text text-anchor="start" x="854.6438" y="-143.9" font-family="Arial" font-size="14.00" fill="#666666">[text]</text>
<polygon fill="none" stroke="#000000" points="780,-102.5 780,-132.5 1031,-132.5 1031,-102.5 780,-102.5"/>
<text text-anchor="start" x="787" y="-113.9" font-family="Arial" font-size="14.00" fill="#000000">phone    </text>
<text text-anchor="start" x="860.1178" y="-113.9" font-family="Arial" font-size="14.00" fill="#666666">[text]</text>
<polygon fill="none" stroke="#000000" points="780,-72.5 780,-102.5 1031,-102.5 1031,-72.5 780,-72.5"/>
<text text-anchor="start" x="787" y="-83.9" font-family="Arial" font-size="14.00" fill="#000000">opac_visible    </text>
<text text-anchor="start" x="898.2202" y="-83.9" font-family="Arial" font-size="14.00" fill="#666666">[boolean]</text>
<polygon fill="none" stroke="#000000" points="780,-42.5 780,-72.5 1031,-72.5 1031,-42.5 780,-42.5"/>
<text text-anchor="start" x="787" y="-53.9" font-family="Arial" font-size="14.00" fill="#000000">fiscal_calendar    </text>
<text text-anchor="start" x="914.554" y="-53.9" font-family="Arial" font-size="14.00" fill="#666666">[integer]</text>
</g>
<!-- actor.org_unit_custom_tree_node&#45;&gt;actor.org_unit -->
<g id="edge3" class="edge">
<title>actor.org_unit_custom_tree_node:org_unit&#45;&gt;actor.org_unit:id</title>
<path fill="none" stroke="#000000" d="M914.9534,-666.4466C955.5859,-657.0388 935.0042,-586.8649 905,-547 870.2336,-500.8078 814.7664,-557.1922 780,-511 755.0105,-477.7978 738.4444,-417.5 780,-417.5"/>
<polygon fill="#000000" stroke="#000000" points="914.9445,-666.4474 904.5263,-663.025 909.9722,-666.9737 905,-667.5 905,-667.5 905,-667.5 909.9722,-666.9737 905.4737,-671.975 914.9445,-666.4474 914.9445,-666.4474"/>
<text text-anchor="start" x="912.2655" y="-677.5" font-family="Arial" font-size="10.00" fill="#000000">FOREIGN KEY (org_unit) REFERENCES actor.org_unit(id) DEFERRABLE INITIALLY DEFERRED</text>
</g>
</g>
</svg>
