<?xml version="1.0" encoding="UTF-8" standalone="no"?>
<!DOCTYPE svg PUBLIC "-//W3C//DTD SVG 1.1//EN"
 "http://www.w3.org/Graphics/SVG/1.1/DTD/svg11.dtd">
<!-- Generated by graphviz version 2.40.1 (20161225.0304)
 -->
<!-- Title: actor.usr_standing_penalty Pages: 1 -->
<svg width="1576pt" height="2002pt"
 viewBox="0.00 0.00 1576.00 2002.00" xmlns="http://www.w3.org/2000/svg" xmlns:xlink="http://www.w3.org/1999/xlink">
<g id="graph0" class="graph" transform="scale(1 1) rotate(0) translate(4 1998)">
<title>actor.usr_standing_penalty</title>
<polygon fill="#ffffff" stroke="transparent" points="-4,4 -4,-1998 1572,-1998 1572,4 -4,4"/>
<!-- actor.usr_standing_penalty -->
<g id="node1" class="node">
<title>actor.usr_standing_penalty</title>
<polygon fill="#efefef" stroke="transparent" points="564,-1912.5 564,-1947.5 921,-1947.5 921,-1912.5 564,-1912.5"/>
<polygon fill="none" stroke="#000000" points="564,-1912.5 564,-1947.5 921,-1947.5 921,-1912.5 564,-1912.5"/>
<text text-anchor="start" x="570.6818" y="-1925.3" font-family="Arial Bold" font-size="18.00" fill="#000000">actor.usr_standing_penalty</text>
<text text-anchor="start" x="786.7502" y="-1925.3" font-family="Arial" font-size="14.00" fill="#000000">    </text>
<text text-anchor="start" x="820.955" y="-1925.3" font-family="Arial" font-size="14.00" fill="#666666">[BASE TABLE]</text>
<polygon fill="none" stroke="#000000" points="564,-1882.5 564,-1912.5 921,-1912.5 921,-1882.5 564,-1882.5"/>
<text text-anchor="start" x="571" y="-1893.9" font-family="Arial" font-size="14.00" fill="#000000">id </text>
<text text-anchor="start" x="585.7798" y="-1893.9" font-family="Arial" font-size="14.00" fill="#666666">[integer]</text>
<polygon fill="none" stroke="#000000" points="564,-1852.5 564,-1882.5 921,-1882.5 921,-1852.5 564,-1852.5"/>
<text text-anchor="start" x="571" y="-1863.9" font-family="Arial" font-size="14.00" fill="#000000">org_unit </text>
<text text-anchor="start" x="625.4614" y="-1863.9" font-family="Arial" font-size="14.00" fill="#666666">[integer]</text>
<polygon fill="none" stroke="#000000" points="564,-1822.5 564,-1852.5 921,-1852.5 921,-1822.5 564,-1822.5"/>
<text text-anchor="start" x="571" y="-1833.9" font-family="Arial" font-size="14.00" fill="#000000">usr </text>
<text text-anchor="start" x="594.3338" y="-1833.9" font-family="Arial" font-size="14.00" fill="#666666">[integer]</text>
<polygon fill="none" stroke="#000000" points="564,-1792.5 564,-1822.5 921,-1822.5 921,-1792.5 564,-1792.5"/>
<text text-anchor="start" x="571" y="-1803.9" font-family="Arial" font-size="14.00" fill="#000000">standing_penalty </text>
<text text-anchor="start" x="680.711" y="-1803.9" font-family="Arial" font-size="14.00" fill="#666666">[integer]</text>
<polygon fill="none" stroke="#000000" points="564,-1762.5 564,-1792.5 921,-1792.5 921,-1762.5 564,-1762.5"/>
<text text-anchor="start" x="571" y="-1773.9" font-family="Arial" font-size="14.00" fill="#000000">staff </text>
<text text-anchor="start" x="601.345" y="-1773.9" font-family="Arial" font-size="14.00" fill="#666666">[integer]</text>
<polygon fill="none" stroke="#000000" points="564,-1732.5 564,-1762.5 921,-1762.5 921,-1732.5 564,-1732.5"/>
<text text-anchor="start" x="571" y="-1743.9" font-family="Arial" font-size="14.00" fill="#000000">set_date </text>
<text text-anchor="start" x="628.5848" y="-1743.9" font-family="Arial" font-size="14.00" fill="#666666">[timestamp with time zone]</text>
<polygon fill="none" stroke="#000000" points="564,-1702.5 564,-1732.5 921,-1732.5 921,-1702.5 564,-1702.5"/>
<text text-anchor="start" x="571" y="-1713.9" font-family="Arial" font-size="14.00" fill="#000000">stop_date </text>
<text text-anchor="start" x="636.3674" y="-1713.9" font-family="Arial" font-size="14.00" fill="#666666">[timestamp with time zone]</text>
<polygon fill="none" stroke="#000000" points="564,-1672.5 564,-1702.5 921,-1702.5 921,-1672.5 564,-1672.5"/>
<text text-anchor="start" x="571" y="-1683.9" font-family="Arial" font-size="14.00" fill="#000000">note </text>
<text text-anchor="start" x="602.129" y="-1683.9" font-family="Arial" font-size="14.00" fill="#666666">[text]</text>
<polygon fill="none" stroke="#000000" stroke-width="3" points="562,-1671.5 562,-1949.5 922,-1949.5 922,-1671.5 562,-1671.5"/>
</g>
<!-- actor.org_unit -->
<g id="node2" class="node">
<title>actor.org_unit</title>
<polygon fill="#efefef" stroke="transparent" points="228,-972.5 228,-1007.5 479,-1007.5 479,-972.5 228,-972.5"/>
<polygon fill="none" stroke="#000000" points="228,-972.5 228,-1007.5 479,-1007.5 479,-972.5 228,-972.5"/>
<text text-anchor="start" x="234.7017" y="-985.3" font-family="Arial Bold" font-size="18.00" fill="#000000">actor.org_unit</text>
<text text-anchor="start" x="344.7303" y="-985.3" font-family="Arial" font-size="14.00" fill="#000000">    </text>
<text text-anchor="start" x="378.9351" y="-985.3" font-family="Arial" font-size="14.00" fill="#666666">[BASE TABLE]</text>
<polygon fill="none" stroke="#000000" points="228,-942.5 228,-972.5 479,-972.5 479,-942.5 228,-942.5"/>
<text text-anchor="start" x="235" y="-953.9" font-family="Arial" font-size="14.00" fill="#000000">id    </text>
<text text-anchor="start" x="280.094" y="-953.9" font-family="Arial" font-size="14.00" fill="#666666">[integer]</text>
<polygon fill="none" stroke="#000000" points="228,-912.5 228,-942.5 479,-942.5 479,-912.5 228,-912.5"/>
<text text-anchor="start" x="235" y="-923.9" font-family="Arial" font-size="14.00" fill="#000000">parent_ou    </text>
<text text-anchor="start" x="332.2342" y="-923.9" font-family="Arial" font-size="14.00" fill="#666666">[integer]</text>
<polygon fill="none" stroke="#000000" points="228,-882.5 228,-912.5 479,-912.5 479,-882.5 228,-882.5"/>
<text text-anchor="start" x="235" y="-893.9" font-family="Arial" font-size="14.00" fill="#000000">ou_type    </text>
<text text-anchor="start" x="319.0084" y="-893.9" font-family="Arial" font-size="14.00" fill="#666666">[integer]</text>
<polygon fill="none" stroke="#000000" points="228,-852.5 228,-882.5 479,-882.5 479,-852.5 228,-852.5"/>
<text text-anchor="start" x="235" y="-863.9" font-family="Arial" font-size="14.00" fill="#000000">ill_address    </text>
<text text-anchor="start" x="336.0982" y="-863.9" font-family="Arial" font-size="14.00" fill="#666666">[integer]</text>
<polygon fill="none" stroke="#000000" points="228,-822.5 228,-852.5 479,-852.5 479,-822.5 228,-822.5"/>
<text text-anchor="start" x="235" y="-833.9" font-family="Arial" font-size="14.00" fill="#000000">holds_address    </text>
<text text-anchor="start" x="360.2328" y="-833.9" font-family="Arial" font-size="14.00" fill="#666666">[integer]</text>
<polygon fill="none" stroke="#000000" points="228,-792.5 228,-822.5 479,-822.5 479,-792.5 228,-792.5"/>
<text text-anchor="start" x="235" y="-803.9" font-family="Arial" font-size="14.00" fill="#000000">mailing_address    </text>
<text text-anchor="start" x="371.1066" y="-803.9" font-family="Arial" font-size="14.00" fill="#666666">[integer]</text>
<polygon fill="none" stroke="#000000" points="228,-762.5 228,-792.5 479,-792.5 479,-762.5 228,-762.5"/>
<text text-anchor="start" x="235" y="-773.9" font-family="Arial" font-size="14.00" fill="#000000">billing_address    </text>
<text text-anchor="start" x="362.5526" y="-773.9" font-family="Arial" font-size="14.00" fill="#666666">[integer]</text>
<polygon fill="none" stroke="#000000" points="228,-732.5 228,-762.5 479,-762.5 479,-732.5 228,-732.5"/>
<text text-anchor="start" x="235" y="-743.9" font-family="Arial" font-size="14.00" fill="#000000">shortname    </text>
<text text-anchor="start" x="335.3296" y="-743.9" font-family="Arial" font-size="14.00" fill="#666666">[text]</text>
<polygon fill="none" stroke="#000000" points="228,-702.5 228,-732.5 479,-732.5 479,-702.5 228,-702.5"/>
<text text-anchor="start" x="235" y="-713.9" font-family="Arial" font-size="14.00" fill="#000000">name    </text>
<text text-anchor="start" x="304.2132" y="-713.9" font-family="Arial" font-size="14.00" fill="#666666">[text]</text>
<polygon fill="none" stroke="#000000" points="228,-672.5 228,-702.5 479,-702.5 479,-672.5 228,-672.5"/>
<text text-anchor="start" x="235" y="-683.9" font-family="Arial" font-size="14.00" fill="#000000">email    </text>
<text text-anchor="start" x="302.6438" y="-683.9" font-family="Arial" font-size="14.00" fill="#666666">[text]</text>
<polygon fill="none" stroke="#000000" points="228,-642.5 228,-672.5 479,-672.5 479,-642.5 228,-642.5"/>
<text text-anchor="start" x="235" y="-653.9" font-family="Arial" font-size="14.00" fill="#000000">phone    </text>
<text text-anchor="start" x="308.1178" y="-653.9" font-family="Arial" font-size="14.00" fill="#666666">[text]</text>
<polygon fill="none" stroke="#000000" points="228,-612.5 228,-642.5 479,-642.5 479,-612.5 228,-612.5"/>
<text text-anchor="start" x="235" y="-623.9" font-family="Arial" font-size="14.00" fill="#000000">opac_visible    </text>
<text text-anchor="start" x="346.2202" y="-623.9" font-family="Arial" font-size="14.00" fill="#666666">[boolean]</text>
<polygon fill="none" stroke="#000000" points="228,-582.5 228,-612.5 479,-612.5 479,-582.5 228,-582.5"/>
<text text-anchor="start" x="235" y="-593.9" font-family="Arial" font-size="14.00" fill="#000000">fiscal_calendar    </text>
<text text-anchor="start" x="362.554" y="-593.9" font-family="Arial" font-size="14.00" fill="#666666">[integer]</text>
</g>
<!-- actor.usr_standing_penalty&#45;&gt;actor.org_unit -->
<g id="edge1" class="edge">
<title>actor.usr_standing_penalty:org_unit&#45;&gt;actor.org_unit:id</title>
<path fill="none" stroke="#000000" d="M554.3393,-1864.3833C470.2656,-1806.3561 577.0803,-957.5 479,-957.5"/>
<polygon fill="#000000" stroke="#000000" points="554.483,-1864.4296 562.6183,-1871.7827 559.2415,-1865.9648 564,-1867.5 564,-1867.5 564,-1867.5 559.2415,-1865.9648 565.3817,-1863.2173 554.483,-1864.4296 554.483,-1864.4296"/>
<text text-anchor="start" x="6.9845" y="-1877.5" font-family="Arial" font-size="10.00" fill="#000000">FOREIGN KEY (org_unit) REFERENCES actor.org_unit(id) ON DELETE CASCADE DEFERRABLE INITIALLY DEFERRED</text>
</g>
<!-- actor.usr -->
<g id="node3" class="node">
<title>actor.usr</title>
<polygon fill="#efefef" stroke="transparent" points="583,-1512.5 583,-1547.5 903,-1547.5 903,-1512.5 583,-1512.5"/>
<polygon fill="none" stroke="#000000" points="583,-1512.5 583,-1547.5 903,-1547.5 903,-1512.5 583,-1512.5"/>
<text text-anchor="start" x="644.2123" y="-1525.3" font-family="Arial Bold" font-size="18.00" fill="#000000">actor.usr</text>
<text text-anchor="start" x="714.2197" y="-1525.3" font-family="Arial" font-size="14.00" fill="#000000">    </text>
<text text-anchor="start" x="748.4245" y="-1525.3" font-family="Arial" font-size="14.00" fill="#666666">[BASE TABLE]</text>
<polygon fill="none" stroke="#000000" points="583,-1482.5 583,-1512.5 903,-1512.5 903,-1482.5 583,-1482.5"/>
<text text-anchor="start" x="590" y="-1493.9" font-family="Arial" font-size="14.00" fill="#000000">id    </text>
<text text-anchor="start" x="635.094" y="-1493.9" font-family="Arial" font-size="14.00" fill="#666666">[integer]</text>
<polygon fill="none" stroke="#000000" points="583,-1452.5 583,-1482.5 903,-1482.5 903,-1452.5 583,-1452.5"/>
<text text-anchor="start" x="590" y="-1463.9" font-family="Arial" font-size="14.00" fill="#000000">card    </text>
<text text-anchor="start" x="651.4306" y="-1463.9" font-family="Arial" font-size="14.00" fill="#666666">[integer]</text>
<polygon fill="none" stroke="#000000" points="583,-1422.5 583,-1452.5 903,-1452.5 903,-1422.5 583,-1422.5"/>
<text text-anchor="start" x="590" y="-1433.9" font-family="Arial" font-size="14.00" fill="#000000">profile    </text>
<text text-anchor="start" x="662.317" y="-1433.9" font-family="Arial" font-size="14.00" fill="#666666">[integer]</text>
<polygon fill="none" stroke="#000000" points="583,-1392.5 583,-1422.5 903,-1422.5 903,-1392.5 583,-1392.5"/>
<text text-anchor="start" x="590" y="-1403.9" font-family="Arial" font-size="14.00" fill="#000000">usrname    </text>
<text text-anchor="start" x="678.6564" y="-1403.9" font-family="Arial" font-size="14.00" fill="#666666">[text]</text>
<polygon fill="none" stroke="#000000" points="583,-1362.5 583,-1392.5 903,-1392.5 903,-1362.5 583,-1362.5"/>
<text text-anchor="start" x="590" y="-1373.9" font-family="Arial" font-size="14.00" fill="#000000">email    </text>
<text text-anchor="start" x="657.6438" y="-1373.9" font-family="Arial" font-size="14.00" fill="#666666">[text]</text>
<polygon fill="none" stroke="#000000" points="583,-1332.5 583,-1362.5 903,-1362.5 903,-1332.5 583,-1332.5"/>
<text text-anchor="start" x="590" y="-1343.9" font-family="Arial" font-size="14.00" fill="#000000">passwd    </text>
<text text-anchor="start" x="671.6592" y="-1343.9" font-family="Arial" font-size="14.00" fill="#666666">[text]</text>
<polygon fill="none" stroke="#000000" points="583,-1302.5 583,-1332.5 903,-1332.5 903,-1302.5 583,-1302.5"/>
<text text-anchor="start" x="590" y="-1313.9" font-family="Arial" font-size="14.00" fill="#000000">standing    </text>
<text text-anchor="start" x="677.115" y="-1313.9" font-family="Arial" font-size="14.00" fill="#666666">[integer]</text>
<polygon fill="none" stroke="#000000" points="583,-1272.5 583,-1302.5 903,-1302.5 903,-1272.5 583,-1272.5"/>
<text text-anchor="start" x="590" y="-1283.9" font-family="Arial" font-size="14.00" fill="#000000">ident_type    </text>
<text text-anchor="start" x="688.7882" y="-1283.9" font-family="Arial" font-size="14.00" fill="#666666">[integer]</text>
<polygon fill="none" stroke="#000000" points="583,-1242.5 583,-1272.5 903,-1272.5 903,-1242.5 583,-1242.5"/>
<text text-anchor="start" x="590" y="-1253.9" font-family="Arial" font-size="14.00" fill="#000000">ident_value    </text>
<text text-anchor="start" x="695.7868" y="-1253.9" font-family="Arial" font-size="14.00" fill="#666666">[text]</text>
<polygon fill="none" stroke="#000000" points="583,-1212.5 583,-1242.5 903,-1242.5 903,-1212.5 583,-1212.5"/>
<text text-anchor="start" x="590" y="-1223.9" font-family="Arial" font-size="14.00" fill="#000000">ident_type2    </text>
<text text-anchor="start" x="696.5708" y="-1223.9" font-family="Arial" font-size="14.00" fill="#666666">[integer]</text>
<polygon fill="none" stroke="#000000" points="583,-1182.5 583,-1212.5 903,-1212.5 903,-1182.5 583,-1182.5"/>
<text text-anchor="start" x="590" y="-1193.9" font-family="Arial" font-size="14.00" fill="#000000">ident_value2    </text>
<text text-anchor="start" x="703.5694" y="-1193.9" font-family="Arial" font-size="14.00" fill="#666666">[text]</text>
<polygon fill="none" stroke="#000000" points="583,-1152.5 583,-1182.5 903,-1182.5 903,-1152.5 583,-1152.5"/>
<text text-anchor="start" x="590" y="-1163.9" font-family="Arial" font-size="14.00" fill="#000000">net_access_level    </text>
<text text-anchor="start" x="731.5694" y="-1163.9" font-family="Arial" font-size="14.00" fill="#666666">[integer]</text>
<polygon fill="none" stroke="#000000" points="583,-1122.5 583,-1152.5 903,-1152.5 903,-1122.5 583,-1122.5"/>
<text text-anchor="start" x="590" y="-1133.9" font-family="Arial" font-size="14.00" fill="#000000">photo_url    </text>
<text text-anchor="start" x="682.5582" y="-1133.9" font-family="Arial" font-size="14.00" fill="#666666">[text]</text>
<polygon fill="none" stroke="#000000" points="583,-1092.5 583,-1122.5 903,-1122.5 903,-1092.5 583,-1092.5"/>
<text text-anchor="start" x="590" y="-1103.9" font-family="Arial" font-size="14.00" fill="#000000">prefix    </text>
<text text-anchor="start" x="658.4278" y="-1103.9" font-family="Arial" font-size="14.00" fill="#666666">[text]</text>
<polygon fill="none" stroke="#000000" points="583,-1062.5 583,-1092.5 903,-1092.5 903,-1062.5 583,-1062.5"/>
<text text-anchor="start" x="590" y="-1073.9" font-family="Arial" font-size="14.00" fill="#000000">first_given_name    </text>
<text text-anchor="start" x="730.7812" y="-1073.9" font-family="Arial" font-size="14.00" fill="#666666">[text]</text>
<polygon fill="none" stroke="#000000" points="583,-1032.5 583,-1062.5 903,-1062.5 903,-1032.5 583,-1032.5"/>
<text text-anchor="start" x="590" y="-1043.9" font-family="Arial" font-size="14.00" fill="#000000">second_given_name    </text>
<text text-anchor="start" x="753.3632" y="-1043.9" font-family="Arial" font-size="14.00" fill="#666666">[text]</text>
<polygon fill="none" stroke="#000000" points="583,-1002.5 583,-1032.5 903,-1032.5 903,-1002.5 583,-1002.5"/>
<text text-anchor="start" x="590" y="-1013.9" font-family="Arial" font-size="14.00" fill="#000000">family_name    </text>
<text text-anchor="start" x="703.5428" y="-1013.9" font-family="Arial" font-size="14.00" fill="#666666">[text]</text>
<polygon fill="none" stroke="#000000" points="583,-972.5 583,-1002.5 903,-1002.5 903,-972.5 583,-972.5"/>
<text text-anchor="start" x="590" y="-983.9" font-family="Arial" font-size="14.00" fill="#000000">suffix    </text>
<text text-anchor="start" x="656.8752" y="-983.9" font-family="Arial" font-size="14.00" fill="#666666">[text]</text>
<polygon fill="none" stroke="#000000" points="583,-942.5 583,-972.5 903,-972.5 903,-942.5 583,-942.5"/>
<text text-anchor="start" x="590" y="-953.9" font-family="Arial" font-size="14.00" fill="#000000">alias    </text>
<text text-anchor="start" x="652.9832" y="-953.9" font-family="Arial" font-size="14.00" fill="#666666">[text]</text>
<polygon fill="none" stroke="#000000" points="583,-912.5 583,-942.5 903,-942.5 903,-912.5 583,-912.5"/>
<text text-anchor="start" x="590" y="-923.9" font-family="Arial" font-size="14.00" fill="#000000">day_phone    </text>
<text text-anchor="start" x="693.4656" y="-923.9" font-family="Arial" font-size="14.00" fill="#666666">[text]</text>
<polygon fill="none" stroke="#000000" points="583,-882.5 583,-912.5 903,-912.5 903,-882.5 583,-882.5"/>
<text text-anchor="start" x="590" y="-893.9" font-family="Arial" font-size="14.00" fill="#000000">evening_phone    </text>
<text text-anchor="start" x="719.92" y="-893.9" font-family="Arial" font-size="14.00" fill="#666666">[text]</text>
<polygon fill="none" stroke="#000000" points="583,-852.5 583,-882.5 903,-882.5 903,-852.5 583,-852.5"/>
<text text-anchor="start" x="590" y="-863.9" font-family="Arial" font-size="14.00" fill="#000000">other_phone    </text>
<text text-anchor="start" x="702.7994" y="-863.9" font-family="Arial" font-size="14.00" fill="#666666">[text]</text>
<polygon fill="none" stroke="#000000" points="583,-822.5 583,-852.5 903,-852.5 903,-822.5 583,-822.5"/>
<text text-anchor="start" x="590" y="-833.9" font-family="Arial" font-size="14.00" fill="#000000">mailing_address    </text>
<text text-anchor="start" x="726.1066" y="-833.9" font-family="Arial" font-size="14.00" fill="#666666">[integer]</text>
<polygon fill="none" stroke="#000000" points="583,-792.5 583,-822.5 903,-822.5 903,-792.5 583,-792.5"/>
<text text-anchor="start" x="590" y="-803.9" font-family="Arial" font-size="14.00" fill="#000000">billing_address    </text>
<text text-anchor="start" x="717.5526" y="-803.9" font-family="Arial" font-size="14.00" fill="#666666">[integer]</text>
<polygon fill="none" stroke="#000000" points="583,-762.5 583,-792.5 903,-792.5 903,-762.5 583,-762.5"/>
<text text-anchor="start" x="590" y="-773.9" font-family="Arial" font-size="14.00" fill="#000000">home_ou    </text>
<text text-anchor="start" x="682.561" y="-773.9" font-family="Arial" font-size="14.00" fill="#666666">[integer]</text>
<polygon fill="none" stroke="#000000" points="583,-732.5 583,-762.5 903,-762.5 903,-732.5 583,-732.5"/>
<text text-anchor="start" x="590" y="-743.9" font-family="Arial" font-size="14.00" fill="#000000">dob    </text>
<text text-anchor="start" x="647.5526" y="-743.9" font-family="Arial" font-size="14.00" fill="#666666">[date]</text>
<polygon fill="none" stroke="#000000" points="583,-702.5 583,-732.5 903,-732.5 903,-702.5 583,-702.5"/>
<text text-anchor="start" x="590" y="-713.9" font-family="Arial" font-size="14.00" fill="#000000">active    </text>
<text text-anchor="start" x="660.7672" y="-713.9" font-family="Arial" font-size="14.00" fill="#666666">[boolean]</text>
<polygon fill="none" stroke="#000000" points="583,-672.5 583,-702.5 903,-702.5 903,-672.5 583,-672.5"/>
<text text-anchor="start" x="590" y="-683.9" font-family="Arial" font-size="14.00" fill="#000000">master_account    </text>
<text text-anchor="start" x="723.7854" y="-683.9" font-family="Arial" font-size="14.00" fill="#666666">[boolean]</text>
<polygon fill="none" stroke="#000000" points="583,-642.5 583,-672.5 903,-672.5 903,-642.5 583,-642.5"/>
<text text-anchor="start" x="590" y="-653.9" font-family="Arial" font-size="14.00" fill="#000000">super_user    </text>
<text text-anchor="start" x="694.2216" y="-653.9" font-family="Arial" font-size="14.00" fill="#666666">[boolean]</text>
<polygon fill="none" stroke="#000000" points="583,-612.5 583,-642.5 903,-642.5 903,-612.5 583,-612.5"/>
<text text-anchor="start" x="590" y="-623.9" font-family="Arial" font-size="14.00" fill="#000000">barred    </text>
<text text-anchor="start" x="664.6564" y="-623.9" font-family="Arial" font-size="14.00" fill="#666666">[boolean]</text>
<polygon fill="none" stroke="#000000" points="583,-582.5 583,-612.5 903,-612.5 903,-582.5 583,-582.5"/>
<text text-anchor="start" x="590" y="-593.9" font-family="Arial" font-size="14.00" fill="#000000">deleted    </text>
<text text-anchor="start" x="670.115" y="-593.9" font-family="Arial" font-size="14.00" fill="#666666">[boolean]</text>
<polygon fill="none" stroke="#000000" points="583,-552.5 583,-582.5 903,-582.5 903,-552.5 583,-552.5"/>
<text text-anchor="start" x="590" y="-563.9" font-family="Arial" font-size="14.00" fill="#000000">juvenile    </text>
<text text-anchor="start" x="671.655" y="-563.9" font-family="Arial" font-size="14.00" fill="#666666">[boolean]</text>
<polygon fill="none" stroke="#000000" points="583,-522.5 583,-552.5 903,-552.5 903,-522.5 583,-522.5"/>
<text text-anchor="start" x="590" y="-533.9" font-family="Arial" font-size="14.00" fill="#000000">usrgroup    </text>
<text text-anchor="start" x="679.439" y="-533.9" font-family="Arial" font-size="14.00" fill="#666666">[integer]</text>
<polygon fill="none" stroke="#000000" points="583,-492.5 583,-522.5 903,-522.5 903,-492.5 583,-492.5"/>
<text text-anchor="start" x="590" y="-503.9" font-family="Arial" font-size="14.00" fill="#000000">claims_returned_count    </text>
<text text-anchor="start" x="765.7896" y="-503.9" font-family="Arial" font-size="14.00" fill="#666666">[integer]</text>
<polygon fill="none" stroke="#000000" points="583,-462.5 583,-492.5 903,-492.5 903,-462.5 583,-462.5"/>
<text text-anchor="start" x="590" y="-473.9" font-family="Arial" font-size="14.00" fill="#000000">credit_forward_balance    </text>
<text text-anchor="start" x="769.6788" y="-473.9" font-family="Arial" font-size="14.00" fill="#666666">[numeric(6,2)]</text>
<polygon fill="none" stroke="#000000" points="583,-432.5 583,-462.5 903,-462.5 903,-432.5 583,-432.5"/>
<text text-anchor="start" x="590" y="-443.9" font-family="Arial" font-size="14.00" fill="#000000">last_xact_id    </text>
<text text-anchor="start" x="698.1122" y="-443.9" font-family="Arial" font-size="14.00" fill="#666666">[text]</text>
<polygon fill="none" stroke="#000000" points="583,-402.5 583,-432.5 903,-432.5 903,-402.5 583,-402.5"/>
<text text-anchor="start" x="590" y="-413.9" font-family="Arial" font-size="14.00" fill="#000000">alert_message    </text>
<text text-anchor="start" x="716.0014" y="-413.9" font-family="Arial" font-size="14.00" fill="#666666">[text]</text>
<polygon fill="none" stroke="#000000" points="583,-372.5 583,-402.5 903,-402.5 903,-372.5 583,-372.5"/>
<text text-anchor="start" x="590" y="-383.9" font-family="Arial" font-size="14.00" fill="#000000">create_date    </text>
<text text-anchor="start" x="698.1248" y="-383.9" font-family="Arial" font-size="14.00" fill="#666666">[timestamp with time zone]</text>
<polygon fill="none" stroke="#000000" points="583,-342.5 583,-372.5 903,-372.5 903,-342.5 583,-342.5"/>
<text text-anchor="start" x="590" y="-353.9" font-family="Arial" font-size="14.00" fill="#000000">expire_date    </text>
<text text-anchor="start" x="697.3408" y="-353.9" font-family="Arial" font-size="14.00" fill="#666666">[timestamp with time zone]</text>
<polygon fill="none" stroke="#000000" points="583,-312.5 583,-342.5 903,-342.5 903,-312.5 583,-312.5"/>
<text text-anchor="start" x="590" y="-323.9" font-family="Arial" font-size="14.00" fill="#000000">claims_never_checked_out_count    </text>
<text text-anchor="start" x="835.8246" y="-323.9" font-family="Arial" font-size="14.00" fill="#666666">[integer]</text>
<polygon fill="none" stroke="#000000" points="583,-282.5 583,-312.5 903,-312.5 903,-282.5 583,-282.5"/>
<text text-anchor="start" x="589.7609" y="-293.9" font-family="Arial" font-size="14.00" fill="#000000">last_update_time    </text>
<text text-anchor="start" x="730.5547" y="-293.9" font-family="Arial" font-size="14.00" fill="#666666">[timestamp with time zone]</text>
<polygon fill="none" stroke="#000000" points="583,-252.5 583,-282.5 903,-282.5 903,-252.5 583,-252.5"/>
<text text-anchor="start" x="590" y="-263.9" font-family="Arial" font-size="14.00" fill="#000000">pref_prefix    </text>
<text text-anchor="start" x="690.3268" y="-263.9" font-family="Arial" font-size="14.00" fill="#666666">[text]</text>
<polygon fill="none" stroke="#000000" points="583,-222.5 583,-252.5 903,-252.5 903,-222.5 583,-222.5"/>
<text text-anchor="start" x="590" y="-233.9" font-family="Arial" font-size="14.00" fill="#000000">pref_first_given_name    </text>
<text text-anchor="start" x="762.6802" y="-233.9" font-family="Arial" font-size="14.00" fill="#666666">[text]</text>
<polygon fill="none" stroke="#000000" points="583,-192.5 583,-222.5 903,-222.5 903,-192.5 583,-192.5"/>
<text text-anchor="start" x="590" y="-203.9" font-family="Arial" font-size="14.00" fill="#000000">pref_second_given_name    </text>
<text text-anchor="start" x="785.2622" y="-203.9" font-family="Arial" font-size="14.00" fill="#666666">[text]</text>
<polygon fill="none" stroke="#000000" points="583,-162.5 583,-192.5 903,-192.5 903,-162.5 583,-162.5"/>
<text text-anchor="start" x="590" y="-173.9" font-family="Arial" font-size="14.00" fill="#000000">pref_family_name    </text>
<text text-anchor="start" x="735.4418" y="-173.9" font-family="Arial" font-size="14.00" fill="#666666">[text]</text>
<polygon fill="none" stroke="#000000" points="583,-132.5 583,-162.5 903,-162.5 903,-132.5 583,-132.5"/>
<text text-anchor="start" x="590" y="-143.9" font-family="Arial" font-size="14.00" fill="#000000">pref_suffix    </text>
<text text-anchor="start" x="688.7742" y="-143.9" font-family="Arial" font-size="14.00" fill="#666666">[text]</text>
<polygon fill="none" stroke="#000000" points="583,-102.5 583,-132.5 903,-132.5 903,-102.5 583,-102.5"/>
<text text-anchor="start" x="590" y="-113.9" font-family="Arial" font-size="14.00" fill="#000000">name_keywords    </text>
<text text-anchor="start" x="726.1108" y="-113.9" font-family="Arial" font-size="14.00" fill="#666666">[text]</text>
<polygon fill="none" stroke="#000000" points="583,-72.5 583,-102.5 903,-102.5 903,-72.5 583,-72.5"/>
<text text-anchor="start" x="590" y="-83.9" font-family="Arial" font-size="14.00" fill="#000000">name_kw_tsvector    </text>
<text text-anchor="start" x="740.892" y="-83.9" font-family="Arial" font-size="14.00" fill="#666666">[tsvector]</text>
<polygon fill="none" stroke="#000000" points="583,-42.5 583,-72.5 903,-72.5 903,-42.5 583,-42.5"/>
<text text-anchor="start" x="590" y="-53.9" font-family="Arial" font-size="14.00" fill="#000000">guardian    </text>
<text text-anchor="start" x="678.6676" y="-53.9" font-family="Arial" font-size="14.00" fill="#666666">[text]</text>
</g>
<!-- actor.usr_standing_penalty&#45;&gt;actor.usr -->
<g id="edge2" class="edge">
<title>actor.usr_standing_penalty:usr&#45;&gt;actor.usr:id</title>
<path fill="none" stroke="#000000" d="M931.3989,-1836.8675C1012.0853,-1826.5986 981.1091,-1693.8513 921,-1627 870.4956,-1570.8308 633.5044,-1647.1692 583,-1591 555.2154,-1560.0989 541.4444,-1497.5 583,-1497.5"/>
<polygon fill="#000000" stroke="#000000" points="930.9816,-1836.8928 920.7268,-1833.0083 925.9908,-1837.1964 921,-1837.5 921,-1837.5 921,-1837.5 925.9908,-1837.1964 921.2732,-1841.9917 930.9816,-1836.8928 930.9816,-1836.8928"/>
<text text-anchor="start" x="928.2185" y="-1847.5" font-family="Arial" font-size="10.00" fill="#000000">FOREIGN KEY (usr) REFERENCES actor.usr(id) ON DELETE CASCADE DEFERRABLE INITIALLY DEFERRED</text>
</g>
<!-- actor.usr_standing_penalty&#45;&gt;actor.usr -->
<g id="edge4" class="edge">
<title>actor.usr_standing_penalty:staff&#45;&gt;actor.usr:id</title>
<path fill="none" stroke="#000000" d="M931.1858,-1776.6208C985.397,-1766.6319 963.2771,-1674.0191 921,-1627 870.4956,-1570.8308 633.5044,-1647.1692 583,-1591 555.2154,-1560.0989 541.4444,-1497.5 583,-1497.5"/>
<polygon fill="#000000" stroke="#000000" points="930.963,-1776.6399 920.613,-1773.0167 925.9815,-1777.07 921,-1777.5 921,-1777.5 921,-1777.5 925.9815,-1777.07 921.387,-1781.9833 930.963,-1776.6399 930.963,-1776.6399"/>
<text text-anchor="start" x="927.99" y="-1787.5" font-family="Arial" font-size="10.00" fill="#000000">FOREIGN KEY (staff) REFERENCES actor.usr(id) ON DELETE SET NULL DEFERRABLE INITIALLY DEFERRED</text>
</g>
<!-- config.standing_penalty -->
<g id="node4" class="node">
<title>config.standing_penalty</title>
<polygon fill="#efefef" stroke="transparent" points="1007,-882.5 1007,-917.5 1337,-917.5 1337,-882.5 1007,-882.5"/>
<polygon fill="none" stroke="#000000" points="1007,-882.5 1007,-917.5 1337,-917.5 1337,-882.5 1007,-882.5"/>
<text text-anchor="start" x="1013.68" y="-895.3" font-family="Arial Bold" font-size="18.00" fill="#000000">config.standing_penalty</text>
<text text-anchor="start" x="1202.752" y="-895.3" font-family="Arial" font-size="14.00" fill="#000000">    </text>
<text text-anchor="start" x="1236.9568" y="-895.3" font-family="Arial" font-size="14.00" fill="#666666">[BASE TABLE]</text>
<polygon fill="none" stroke="#000000" points="1007,-852.5 1007,-882.5 1337,-882.5 1337,-852.5 1007,-852.5"/>
<text text-anchor="start" x="1014" y="-863.9" font-family="Arial" font-size="14.00" fill="#000000">id    </text>
<text text-anchor="start" x="1059.094" y="-863.9" font-family="Arial" font-size="14.00" fill="#666666">[integer]</text>
<polygon fill="none" stroke="#000000" points="1007,-822.5 1007,-852.5 1337,-852.5 1337,-822.5 1007,-822.5"/>
<text text-anchor="start" x="1014" y="-833.9" font-family="Arial" font-size="14.00" fill="#000000">name    </text>
<text text-anchor="start" x="1083.2132" y="-833.9" font-family="Arial" font-size="14.00" fill="#666666">[text]</text>
<polygon fill="none" stroke="#000000" points="1007,-792.5 1007,-822.5 1337,-822.5 1337,-792.5 1007,-792.5"/>
<text text-anchor="start" x="1014" y="-803.9" font-family="Arial" font-size="14.00" fill="#000000">label    </text>
<text text-anchor="start" x="1077.7658" y="-803.9" font-family="Arial" font-size="14.00" fill="#666666">[text]</text>
<polygon fill="none" stroke="#000000" points="1007,-762.5 1007,-792.5 1337,-792.5 1337,-762.5 1007,-762.5"/>
<text text-anchor="start" x="1014" y="-773.9" font-family="Arial" font-size="14.00" fill="#000000">block_list    </text>
<text text-anchor="start" x="1105.763" y="-773.9" font-family="Arial" font-size="14.00" fill="#666666">[text]</text>
<polygon fill="none" stroke="#000000" points="1007,-732.5 1007,-762.5 1337,-762.5 1337,-732.5 1007,-732.5"/>
<text text-anchor="start" x="1014" y="-743.9" font-family="Arial" font-size="14.00" fill="#000000">staff_alert    </text>
<text text-anchor="start" x="1109.6648" y="-743.9" font-family="Arial" font-size="14.00" fill="#666666">[boolean]</text>
<polygon fill="none" stroke="#000000" points="1007,-702.5 1007,-732.5 1337,-732.5 1337,-702.5 1007,-702.5"/>
<text text-anchor="start" x="1014" y="-713.9" font-family="Arial" font-size="14.00" fill="#000000">org_depth    </text>
<text text-anchor="start" x="1111.2342" y="-713.9" font-family="Arial" font-size="14.00" fill="#666666">[integer]</text>
<polygon fill="none" stroke="#000000" points="1007,-672.5 1007,-702.5 1337,-702.5 1337,-672.5 1007,-672.5"/>
<text text-anchor="start" x="1014" y="-683.9" font-family="Arial" font-size="14.00" fill="#000000">ignore_proximity    </text>
<text text-anchor="start" x="1150.8752" y="-683.9" font-family="Arial" font-size="14.00" fill="#666666">[integer]</text>
</g>
<!-- actor.usr_standing_penalty&#45;&gt;config.standing_penalty -->
<g id="edge3" class="edge">
<title>actor.usr_standing_penalty:standing_penalty&#45;&gt;config.standing_penalty:id</title>
<path fill="none" stroke="#000000" d="M930.7076,-1804.4599C1017.9142,-1746.1144 905.6017,-867.5 1007,-867.5"/>
<polygon fill="#000000" stroke="#000000" points="930.543,-1804.5114 919.6551,-1803.2057 925.7715,-1806.0057 921,-1807.5 921,-1807.5 921,-1807.5 925.7715,-1806.0057 922.3449,-1811.7943 930.543,-1804.5114 930.543,-1804.5114"/>
<text text-anchor="start" x="928.296" y="-1817.5" font-family="Arial" font-size="10.00" fill="#000000">FOREIGN KEY (standing_penalty) REFERENCES config.standing_penalty(id) ON DELETE CASCADE DEFERRABLE INITIALLY DEFERRED</text>
</g>
</g>
</svg>
