<?xml version="1.0" encoding="UTF-8" standalone="no"?>
<!DOCTYPE svg PUBLIC "-//W3C//DTD SVG 1.1//EN"
 "http://www.w3.org/Graphics/SVG/1.1/DTD/svg11.dtd">
<!-- Generated by graphviz version 2.40.1 (20161225.0304)
 -->
<!-- Title: actor.usr_privacy_waiver Pages: 1 -->
<svg width="913pt" height="1972pt"
 viewBox="0.00 0.00 913.00 1972.00" xmlns="http://www.w3.org/2000/svg" xmlns:xlink="http://www.w3.org/1999/xlink">
<g id="graph0" class="graph" transform="scale(1 1) rotate(0) translate(4 1968)">
<title>actor.usr_privacy_waiver</title>
<polygon fill="#ffffff" stroke="transparent" points="-4,4 -4,-1968 909,-1968 909,4 -4,4"/>
<!-- actor.usr_privacy_waiver -->
<g id="node1" class="node">
<title>actor.usr_privacy_waiver</title>
<polygon fill="#efefef" stroke="transparent" points="46,-1882.5 46,-1917.5 386,-1917.5 386,-1882.5 46,-1882.5"/>
<polygon fill="none" stroke="#000000" points="46,-1882.5 46,-1917.5 386,-1917.5 386,-1882.5 46,-1882.5"/>
<text text-anchor="start" x="52.7102" y="-1895.3" font-family="Arial Bold" font-size="18.00" fill="#000000">actor.usr_privacy_waiver</text>
<text text-anchor="start" x="251.7218" y="-1895.3" font-family="Arial" font-size="14.00" fill="#000000">    </text>
<text text-anchor="start" x="285.9266" y="-1895.3" font-family="Arial" font-size="14.00" fill="#666666">[BASE TABLE]</text>
<polygon fill="none" stroke="#000000" points="46,-1852.5 46,-1882.5 386,-1882.5 386,-1852.5 46,-1852.5"/>
<text text-anchor="start" x="53" y="-1863.9" font-family="Arial" font-size="14.00" fill="#000000">id </text>
<text text-anchor="start" x="67.7798" y="-1863.9" font-family="Arial" font-size="14.00" fill="#666666">[bigint]</text>
<polygon fill="none" stroke="#000000" points="46,-1822.5 46,-1852.5 386,-1852.5 386,-1822.5 46,-1822.5"/>
<text text-anchor="start" x="53" y="-1833.9" font-family="Arial" font-size="14.00" fill="#000000">usr </text>
<text text-anchor="start" x="76.3338" y="-1833.9" font-family="Arial" font-size="14.00" fill="#666666">[bigint]</text>
<polygon fill="none" stroke="#000000" points="46,-1792.5 46,-1822.5 386,-1822.5 386,-1792.5 46,-1792.5"/>
<text text-anchor="start" x="53" y="-1803.9" font-family="Arial" font-size="14.00" fill="#000000">name </text>
<text text-anchor="start" x="91.899" y="-1803.9" font-family="Arial" font-size="14.00" fill="#666666">[text]</text>
<polygon fill="none" stroke="#000000" points="46,-1762.5 46,-1792.5 386,-1792.5 386,-1762.5 46,-1762.5"/>
<text text-anchor="start" x="53" y="-1773.9" font-family="Arial" font-size="14.00" fill="#000000">place_holds </text>
<text text-anchor="start" x="131.582" y="-1773.9" font-family="Arial" font-size="14.00" fill="#666666">[boolean]</text>
<polygon fill="none" stroke="#000000" points="46,-1732.5 46,-1762.5 386,-1762.5 386,-1732.5 46,-1732.5"/>
<text text-anchor="start" x="53" y="-1743.9" font-family="Arial" font-size="14.00" fill="#000000">pickup_holds </text>
<text text-anchor="start" x="138.582" y="-1743.9" font-family="Arial" font-size="14.00" fill="#666666">[boolean]</text>
<polygon fill="none" stroke="#000000" points="46,-1702.5 46,-1732.5 386,-1732.5 386,-1702.5 46,-1702.5"/>
<text text-anchor="start" x="53" y="-1713.9" font-family="Arial" font-size="14.00" fill="#000000">view_history </text>
<text text-anchor="start" x="133.892" y="-1713.9" font-family="Arial" font-size="14.00" fill="#666666">[boolean]</text>
<polygon fill="none" stroke="#000000" points="46,-1672.5 46,-1702.5 386,-1702.5 386,-1672.5 46,-1672.5"/>
<text text-anchor="start" x="53" y="-1683.9" font-family="Arial" font-size="14.00" fill="#000000">checkout_items </text>
<text text-anchor="start" x="154.1346" y="-1683.9" font-family="Arial" font-size="14.00" fill="#666666">[boolean]</text>
<polygon fill="none" stroke="#000000" stroke-width="3" points="44.5,-1671.5 44.5,-1919.5 387.5,-1919.5 387.5,-1671.5 44.5,-1671.5"/>
</g>
<!-- actor.usr -->
<g id="node2" class="node">
<title>actor.usr</title>
<polygon fill="#efefef" stroke="transparent" points="56,-1512.5 56,-1547.5 376,-1547.5 376,-1512.5 56,-1512.5"/>
<polygon fill="none" stroke="#000000" points="56,-1512.5 56,-1547.5 376,-1547.5 376,-1512.5 56,-1512.5"/>
<text text-anchor="start" x="117.2123" y="-1525.3" font-family="Arial Bold" font-size="18.00" fill="#000000">actor.usr</text>
<text text-anchor="start" x="187.2197" y="-1525.3" font-family="Arial" font-size="14.00" fill="#000000">    </text>
<text text-anchor="start" x="221.4245" y="-1525.3" font-family="Arial" font-size="14.00" fill="#666666">[BASE TABLE]</text>
<polygon fill="none" stroke="#000000" points="56,-1482.5 56,-1512.5 376,-1512.5 376,-1482.5 56,-1482.5"/>
<text text-anchor="start" x="63" y="-1493.9" font-family="Arial" font-size="14.00" fill="#000000">id    </text>
<text text-anchor="start" x="108.094" y="-1493.9" font-family="Arial" font-size="14.00" fill="#666666">[integer]</text>
<polygon fill="none" stroke="#000000" points="56,-1452.5 56,-1482.5 376,-1482.5 376,-1452.5 56,-1452.5"/>
<text text-anchor="start" x="63" y="-1463.9" font-family="Arial" font-size="14.00" fill="#000000">card    </text>
<text text-anchor="start" x="124.4306" y="-1463.9" font-family="Arial" font-size="14.00" fill="#666666">[integer]</text>
<polygon fill="none" stroke="#000000" points="56,-1422.5 56,-1452.5 376,-1452.5 376,-1422.5 56,-1422.5"/>
<text text-anchor="start" x="63" y="-1433.9" font-family="Arial" font-size="14.00" fill="#000000">profile    </text>
<text text-anchor="start" x="135.317" y="-1433.9" font-family="Arial" font-size="14.00" fill="#666666">[integer]</text>
<polygon fill="none" stroke="#000000" points="56,-1392.5 56,-1422.5 376,-1422.5 376,-1392.5 56,-1392.5"/>
<text text-anchor="start" x="63" y="-1403.9" font-family="Arial" font-size="14.00" fill="#000000">usrname    </text>
<text text-anchor="start" x="151.6564" y="-1403.9" font-family="Arial" font-size="14.00" fill="#666666">[text]</text>
<polygon fill="none" stroke="#000000" points="56,-1362.5 56,-1392.5 376,-1392.5 376,-1362.5 56,-1362.5"/>
<text text-anchor="start" x="63" y="-1373.9" font-family="Arial" font-size="14.00" fill="#000000">email    </text>
<text text-anchor="start" x="130.6438" y="-1373.9" font-family="Arial" font-size="14.00" fill="#666666">[text]</text>
<polygon fill="none" stroke="#000000" points="56,-1332.5 56,-1362.5 376,-1362.5 376,-1332.5 56,-1332.5"/>
<text text-anchor="start" x="63" y="-1343.9" font-family="Arial" font-size="14.00" fill="#000000">passwd    </text>
<text text-anchor="start" x="144.6592" y="-1343.9" font-family="Arial" font-size="14.00" fill="#666666">[text]</text>
<polygon fill="none" stroke="#000000" points="56,-1302.5 56,-1332.5 376,-1332.5 376,-1302.5 56,-1302.5"/>
<text text-anchor="start" x="63" y="-1313.9" font-family="Arial" font-size="14.00" fill="#000000">standing    </text>
<text text-anchor="start" x="150.115" y="-1313.9" font-family="Arial" font-size="14.00" fill="#666666">[integer]</text>
<polygon fill="none" stroke="#000000" points="56,-1272.5 56,-1302.5 376,-1302.5 376,-1272.5 56,-1272.5"/>
<text text-anchor="start" x="63" y="-1283.9" font-family="Arial" font-size="14.00" fill="#000000">ident_type    </text>
<text text-anchor="start" x="161.7882" y="-1283.9" font-family="Arial" font-size="14.00" fill="#666666">[integer]</text>
<polygon fill="none" stroke="#000000" points="56,-1242.5 56,-1272.5 376,-1272.5 376,-1242.5 56,-1242.5"/>
<text text-anchor="start" x="63" y="-1253.9" font-family="Arial" font-size="14.00" fill="#000000">ident_value    </text>
<text text-anchor="start" x="168.7868" y="-1253.9" font-family="Arial" font-size="14.00" fill="#666666">[text]</text>
<polygon fill="none" stroke="#000000" points="56,-1212.5 56,-1242.5 376,-1242.5 376,-1212.5 56,-1212.5"/>
<text text-anchor="start" x="63" y="-1223.9" font-family="Arial" font-size="14.00" fill="#000000">ident_type2    </text>
<text text-anchor="start" x="169.5708" y="-1223.9" font-family="Arial" font-size="14.00" fill="#666666">[integer]</text>
<polygon fill="none" stroke="#000000" points="56,-1182.5 56,-1212.5 376,-1212.5 376,-1182.5 56,-1182.5"/>
<text text-anchor="start" x="63" y="-1193.9" font-family="Arial" font-size="14.00" fill="#000000">ident_value2    </text>
<text text-anchor="start" x="176.5694" y="-1193.9" font-family="Arial" font-size="14.00" fill="#666666">[text]</text>
<polygon fill="none" stroke="#000000" points="56,-1152.5 56,-1182.5 376,-1182.5 376,-1152.5 56,-1152.5"/>
<text text-anchor="start" x="63" y="-1163.9" font-family="Arial" font-size="14.00" fill="#000000">net_access_level    </text>
<text text-anchor="start" x="204.5694" y="-1163.9" font-family="Arial" font-size="14.00" fill="#666666">[integer]</text>
<polygon fill="none" stroke="#000000" points="56,-1122.5 56,-1152.5 376,-1152.5 376,-1122.5 56,-1122.5"/>
<text text-anchor="start" x="63" y="-1133.9" font-family="Arial" font-size="14.00" fill="#000000">photo_url    </text>
<text text-anchor="start" x="155.5582" y="-1133.9" font-family="Arial" font-size="14.00" fill="#666666">[text]</text>
<polygon fill="none" stroke="#000000" points="56,-1092.5 56,-1122.5 376,-1122.5 376,-1092.5 56,-1092.5"/>
<text text-anchor="start" x="63" y="-1103.9" font-family="Arial" font-size="14.00" fill="#000000">prefix    </text>
<text text-anchor="start" x="131.4278" y="-1103.9" font-family="Arial" font-size="14.00" fill="#666666">[text]</text>
<polygon fill="none" stroke="#000000" points="56,-1062.5 56,-1092.5 376,-1092.5 376,-1062.5 56,-1062.5"/>
<text text-anchor="start" x="63" y="-1073.9" font-family="Arial" font-size="14.00" fill="#000000">first_given_name    </text>
<text text-anchor="start" x="203.7812" y="-1073.9" font-family="Arial" font-size="14.00" fill="#666666">[text]</text>
<polygon fill="none" stroke="#000000" points="56,-1032.5 56,-1062.5 376,-1062.5 376,-1032.5 56,-1032.5"/>
<text text-anchor="start" x="63" y="-1043.9" font-family="Arial" font-size="14.00" fill="#000000">second_given_name    </text>
<text text-anchor="start" x="226.3632" y="-1043.9" font-family="Arial" font-size="14.00" fill="#666666">[text]</text>
<polygon fill="none" stroke="#000000" points="56,-1002.5 56,-1032.5 376,-1032.5 376,-1002.5 56,-1002.5"/>
<text text-anchor="start" x="63" y="-1013.9" font-family="Arial" font-size="14.00" fill="#000000">family_name    </text>
<text text-anchor="start" x="176.5428" y="-1013.9" font-family="Arial" font-size="14.00" fill="#666666">[text]</text>
<polygon fill="none" stroke="#000000" points="56,-972.5 56,-1002.5 376,-1002.5 376,-972.5 56,-972.5"/>
<text text-anchor="start" x="63" y="-983.9" font-family="Arial" font-size="14.00" fill="#000000">suffix    </text>
<text text-anchor="start" x="129.8752" y="-983.9" font-family="Arial" font-size="14.00" fill="#666666">[text]</text>
<polygon fill="none" stroke="#000000" points="56,-942.5 56,-972.5 376,-972.5 376,-942.5 56,-942.5"/>
<text text-anchor="start" x="63" y="-953.9" font-family="Arial" font-size="14.00" fill="#000000">alias    </text>
<text text-anchor="start" x="125.9832" y="-953.9" font-family="Arial" font-size="14.00" fill="#666666">[text]</text>
<polygon fill="none" stroke="#000000" points="56,-912.5 56,-942.5 376,-942.5 376,-912.5 56,-912.5"/>
<text text-anchor="start" x="63" y="-923.9" font-family="Arial" font-size="14.00" fill="#000000">day_phone    </text>
<text text-anchor="start" x="166.4656" y="-923.9" font-family="Arial" font-size="14.00" fill="#666666">[text]</text>
<polygon fill="none" stroke="#000000" points="56,-882.5 56,-912.5 376,-912.5 376,-882.5 56,-882.5"/>
<text text-anchor="start" x="63" y="-893.9" font-family="Arial" font-size="14.00" fill="#000000">evening_phone    </text>
<text text-anchor="start" x="192.92" y="-893.9" font-family="Arial" font-size="14.00" fill="#666666">[text]</text>
<polygon fill="none" stroke="#000000" points="56,-852.5 56,-882.5 376,-882.5 376,-852.5 56,-852.5"/>
<text text-anchor="start" x="63" y="-863.9" font-family="Arial" font-size="14.00" fill="#000000">other_phone    </text>
<text text-anchor="start" x="175.7994" y="-863.9" font-family="Arial" font-size="14.00" fill="#666666">[text]</text>
<polygon fill="none" stroke="#000000" points="56,-822.5 56,-852.5 376,-852.5 376,-822.5 56,-822.5"/>
<text text-anchor="start" x="63" y="-833.9" font-family="Arial" font-size="14.00" fill="#000000">mailing_address    </text>
<text text-anchor="start" x="199.1066" y="-833.9" font-family="Arial" font-size="14.00" fill="#666666">[integer]</text>
<polygon fill="none" stroke="#000000" points="56,-792.5 56,-822.5 376,-822.5 376,-792.5 56,-792.5"/>
<text text-anchor="start" x="63" y="-803.9" font-family="Arial" font-size="14.00" fill="#000000">billing_address    </text>
<text text-anchor="start" x="190.5526" y="-803.9" font-family="Arial" font-size="14.00" fill="#666666">[integer]</text>
<polygon fill="none" stroke="#000000" points="56,-762.5 56,-792.5 376,-792.5 376,-762.5 56,-762.5"/>
<text text-anchor="start" x="63" y="-773.9" font-family="Arial" font-size="14.00" fill="#000000">home_ou    </text>
<text text-anchor="start" x="155.561" y="-773.9" font-family="Arial" font-size="14.00" fill="#666666">[integer]</text>
<polygon fill="none" stroke="#000000" points="56,-732.5 56,-762.5 376,-762.5 376,-732.5 56,-732.5"/>
<text text-anchor="start" x="63" y="-743.9" font-family="Arial" font-size="14.00" fill="#000000">dob    </text>
<text text-anchor="start" x="120.5526" y="-743.9" font-family="Arial" font-size="14.00" fill="#666666">[date]</text>
<polygon fill="none" stroke="#000000" points="56,-702.5 56,-732.5 376,-732.5 376,-702.5 56,-702.5"/>
<text text-anchor="start" x="63" y="-713.9" font-family="Arial" font-size="14.00" fill="#000000">active    </text>
<text text-anchor="start" x="133.7672" y="-713.9" font-family="Arial" font-size="14.00" fill="#666666">[boolean]</text>
<polygon fill="none" stroke="#000000" points="56,-672.5 56,-702.5 376,-702.5 376,-672.5 56,-672.5"/>
<text text-anchor="start" x="63" y="-683.9" font-family="Arial" font-size="14.00" fill="#000000">master_account    </text>
<text text-anchor="start" x="196.7854" y="-683.9" font-family="Arial" font-size="14.00" fill="#666666">[boolean]</text>
<polygon fill="none" stroke="#000000" points="56,-642.5 56,-672.5 376,-672.5 376,-642.5 56,-642.5"/>
<text text-anchor="start" x="63" y="-653.9" font-family="Arial" font-size="14.00" fill="#000000">super_user    </text>
<text text-anchor="start" x="167.2216" y="-653.9" font-family="Arial" font-size="14.00" fill="#666666">[boolean]</text>
<polygon fill="none" stroke="#000000" points="56,-612.5 56,-642.5 376,-642.5 376,-612.5 56,-612.5"/>
<text text-anchor="start" x="63" y="-623.9" font-family="Arial" font-size="14.00" fill="#000000">barred    </text>
<text text-anchor="start" x="137.6564" y="-623.9" font-family="Arial" font-size="14.00" fill="#666666">[boolean]</text>
<polygon fill="none" stroke="#000000" points="56,-582.5 56,-612.5 376,-612.5 376,-582.5 56,-582.5"/>
<text text-anchor="start" x="63" y="-593.9" font-family="Arial" font-size="14.00" fill="#000000">deleted    </text>
<text text-anchor="start" x="143.115" y="-593.9" font-family="Arial" font-size="14.00" fill="#666666">[boolean]</text>
<polygon fill="none" stroke="#000000" points="56,-552.5 56,-582.5 376,-582.5 376,-552.5 56,-552.5"/>
<text text-anchor="start" x="63" y="-563.9" font-family="Arial" font-size="14.00" fill="#000000">juvenile    </text>
<text text-anchor="start" x="144.655" y="-563.9" font-family="Arial" font-size="14.00" fill="#666666">[boolean]</text>
<polygon fill="none" stroke="#000000" points="56,-522.5 56,-552.5 376,-552.5 376,-522.5 56,-522.5"/>
<text text-anchor="start" x="63" y="-533.9" font-family="Arial" font-size="14.00" fill="#000000">usrgroup    </text>
<text text-anchor="start" x="152.439" y="-533.9" font-family="Arial" font-size="14.00" fill="#666666">[integer]</text>
<polygon fill="none" stroke="#000000" points="56,-492.5 56,-522.5 376,-522.5 376,-492.5 56,-492.5"/>
<text text-anchor="start" x="63" y="-503.9" font-family="Arial" font-size="14.00" fill="#000000">claims_returned_count    </text>
<text text-anchor="start" x="238.7896" y="-503.9" font-family="Arial" font-size="14.00" fill="#666666">[integer]</text>
<polygon fill="none" stroke="#000000" points="56,-462.5 56,-492.5 376,-492.5 376,-462.5 56,-462.5"/>
<text text-anchor="start" x="63" y="-473.9" font-family="Arial" font-size="14.00" fill="#000000">credit_forward_balance    </text>
<text text-anchor="start" x="242.6788" y="-473.9" font-family="Arial" font-size="14.00" fill="#666666">[numeric(6,2)]</text>
<polygon fill="none" stroke="#000000" points="56,-432.5 56,-462.5 376,-462.5 376,-432.5 56,-432.5"/>
<text text-anchor="start" x="63" y="-443.9" font-family="Arial" font-size="14.00" fill="#000000">last_xact_id    </text>
<text text-anchor="start" x="171.1122" y="-443.9" font-family="Arial" font-size="14.00" fill="#666666">[text]</text>
<polygon fill="none" stroke="#000000" points="56,-402.5 56,-432.5 376,-432.5 376,-402.5 56,-402.5"/>
<text text-anchor="start" x="63" y="-413.9" font-family="Arial" font-size="14.00" fill="#000000">alert_message    </text>
<text text-anchor="start" x="189.0014" y="-413.9" font-family="Arial" font-size="14.00" fill="#666666">[text]</text>
<polygon fill="none" stroke="#000000" points="56,-372.5 56,-402.5 376,-402.5 376,-372.5 56,-372.5"/>
<text text-anchor="start" x="63" y="-383.9" font-family="Arial" font-size="14.00" fill="#000000">create_date    </text>
<text text-anchor="start" x="171.1248" y="-383.9" font-family="Arial" font-size="14.00" fill="#666666">[timestamp with time zone]</text>
<polygon fill="none" stroke="#000000" points="56,-342.5 56,-372.5 376,-372.5 376,-342.5 56,-342.5"/>
<text text-anchor="start" x="63" y="-353.9" font-family="Arial" font-size="14.00" fill="#000000">expire_date    </text>
<text text-anchor="start" x="170.3408" y="-353.9" font-family="Arial" font-size="14.00" fill="#666666">[timestamp with time zone]</text>
<polygon fill="none" stroke="#000000" points="56,-312.5 56,-342.5 376,-342.5 376,-312.5 56,-312.5"/>
<text text-anchor="start" x="63" y="-323.9" font-family="Arial" font-size="14.00" fill="#000000">claims_never_checked_out_count    </text>
<text text-anchor="start" x="308.8246" y="-323.9" font-family="Arial" font-size="14.00" fill="#666666">[integer]</text>
<polygon fill="none" stroke="#000000" points="56,-282.5 56,-312.5 376,-312.5 376,-282.5 56,-282.5"/>
<text text-anchor="start" x="62.7609" y="-293.9" font-family="Arial" font-size="14.00" fill="#000000">last_update_time    </text>
<text text-anchor="start" x="203.5547" y="-293.9" font-family="Arial" font-size="14.00" fill="#666666">[timestamp with time zone]</text>
<polygon fill="none" stroke="#000000" points="56,-252.5 56,-282.5 376,-282.5 376,-252.5 56,-252.5"/>
<text text-anchor="start" x="63" y="-263.9" font-family="Arial" font-size="14.00" fill="#000000">pref_prefix    </text>
<text text-anchor="start" x="163.3268" y="-263.9" font-family="Arial" font-size="14.00" fill="#666666">[text]</text>
<polygon fill="none" stroke="#000000" points="56,-222.5 56,-252.5 376,-252.5 376,-222.5 56,-222.5"/>
<text text-anchor="start" x="63" y="-233.9" font-family="Arial" font-size="14.00" fill="#000000">pref_first_given_name    </text>
<text text-anchor="start" x="235.6802" y="-233.9" font-family="Arial" font-size="14.00" fill="#666666">[text]</text>
<polygon fill="none" stroke="#000000" points="56,-192.5 56,-222.5 376,-222.5 376,-192.5 56,-192.5"/>
<text text-anchor="start" x="63" y="-203.9" font-family="Arial" font-size="14.00" fill="#000000">pref_second_given_name    </text>
<text text-anchor="start" x="258.2622" y="-203.9" font-family="Arial" font-size="14.00" fill="#666666">[text]</text>
<polygon fill="none" stroke="#000000" points="56,-162.5 56,-192.5 376,-192.5 376,-162.5 56,-162.5"/>
<text text-anchor="start" x="63" y="-173.9" font-family="Arial" font-size="14.00" fill="#000000">pref_family_name    </text>
<text text-anchor="start" x="208.4418" y="-173.9" font-family="Arial" font-size="14.00" fill="#666666">[text]</text>
<polygon fill="none" stroke="#000000" points="56,-132.5 56,-162.5 376,-162.5 376,-132.5 56,-132.5"/>
<text text-anchor="start" x="63" y="-143.9" font-family="Arial" font-size="14.00" fill="#000000">pref_suffix    </text>
<text text-anchor="start" x="161.7742" y="-143.9" font-family="Arial" font-size="14.00" fill="#666666">[text]</text>
<polygon fill="none" stroke="#000000" points="56,-102.5 56,-132.5 376,-132.5 376,-102.5 56,-102.5"/>
<text text-anchor="start" x="63" y="-113.9" font-family="Arial" font-size="14.00" fill="#000000">name_keywords    </text>
<text text-anchor="start" x="199.1108" y="-113.9" font-family="Arial" font-size="14.00" fill="#666666">[text]</text>
<polygon fill="none" stroke="#000000" points="56,-72.5 56,-102.5 376,-102.5 376,-72.5 56,-72.5"/>
<text text-anchor="start" x="63" y="-83.9" font-family="Arial" font-size="14.00" fill="#000000">name_kw_tsvector    </text>
<text text-anchor="start" x="213.892" y="-83.9" font-family="Arial" font-size="14.00" fill="#666666">[tsvector]</text>
<polygon fill="none" stroke="#000000" points="56,-42.5 56,-72.5 376,-72.5 376,-42.5 56,-42.5"/>
<text text-anchor="start" x="63" y="-53.9" font-family="Arial" font-size="14.00" fill="#000000">guardian    </text>
<text text-anchor="start" x="151.6676" y="-53.9" font-family="Arial" font-size="14.00" fill="#666666">[text]</text>
</g>
<!-- actor.usr_privacy_waiver&#45;&gt;actor.usr -->
<g id="edge1" class="edge">
<title>actor.usr_privacy_waiver:usr&#45;&gt;actor.usr:id</title>
<path fill="none" stroke="#000000" d="M396.0675,-1835.3288C460.5066,-1806.3721 448.045,-1497.5 376,-1497.5"/>
<polygon fill="#000000" stroke="#000000" points="395.7753,-1835.3918 385.0513,-1833.1011 390.8876,-1836.4459 386,-1837.5 386,-1837.5 386,-1837.5 390.8876,-1836.4459 386.9487,-1841.8989 395.7753,-1835.3918 395.7753,-1835.3918"/>
<text text-anchor="start" x="393.2185" y="-1847.5" font-family="Arial" font-size="10.00" fill="#000000">FOREIGN KEY (usr) REFERENCES actor.usr(id) ON DELETE CASCADE DEFERRABLE INITIALLY DEFERRED</text>
</g>
</g>
</svg>
