<?xml version="1.0" encoding="UTF-8" standalone="no"?>
<!DOCTYPE svg PUBLIC "-//W3C//DTD SVG 1.1//EN"
 "http://www.w3.org/Graphics/SVG/1.1/DTD/svg11.dtd">
<!-- Generated by graphviz version 2.40.1 (20161225.0304)
 -->
<!-- Title: actor.stat_cat_entry_default Pages: 1 -->
<svg width="1543pt" height="802pt"
 viewBox="0.00 0.00 1543.00 802.00" xmlns="http://www.w3.org/2000/svg" xmlns:xlink="http://www.w3.org/1999/xlink">
<g id="graph0" class="graph" transform="scale(1 1) rotate(0) translate(4 798)">
<title>actor.stat_cat_entry_default</title>
<polygon fill="#ffffff" stroke="transparent" points="-4,4 -4,-798 1539,-798 1539,4 -4,4"/>
<!-- actor.stat_cat_entry_default -->
<g id="node1" class="node">
<title>actor.stat_cat_entry_default</title>
<polygon fill="#efefef" stroke="transparent" points="617,-712.5 617,-747.5 980,-747.5 980,-712.5 617,-712.5"/>
<polygon fill="none" stroke="#000000" points="617,-712.5 617,-747.5 980,-747.5 980,-712.5 617,-712.5"/>
<text text-anchor="start" x="623.6776" y="-725.3" font-family="Arial Bold" font-size="18.00" fill="#000000">actor.stat_cat_entry_default</text>
<text text-anchor="start" x="845.7544" y="-725.3" font-family="Arial" font-size="14.00" fill="#000000">    </text>
<text text-anchor="start" x="879.9592" y="-725.3" font-family="Arial" font-size="14.00" fill="#666666">[BASE TABLE]</text>
<polygon fill="none" stroke="#000000" points="617,-682.5 617,-712.5 980,-712.5 980,-682.5 617,-682.5"/>
<text text-anchor="start" x="624" y="-693.9" font-family="Arial" font-size="14.00" fill="#000000">id </text>
<text text-anchor="start" x="638.7798" y="-693.9" font-family="Arial" font-size="14.00" fill="#666666">[integer]</text>
<polygon fill="none" stroke="#000000" points="617,-652.5 617,-682.5 980,-682.5 980,-652.5 617,-652.5"/>
<text text-anchor="start" x="624" y="-663.9" font-family="Arial" font-size="14.00" fill="#000000">stat_cat_entry </text>
<text text-anchor="start" x="715.8092" y="-663.9" font-family="Arial" font-size="14.00" fill="#666666">[integer]</text>
<polygon fill="none" stroke="#000000" points="617,-622.5 617,-652.5 980,-652.5 980,-622.5 617,-622.5"/>
<text text-anchor="start" x="624" y="-633.9" font-family="Arial" font-size="14.00" fill="#000000">stat_cat </text>
<text text-anchor="start" x="676.9102" y="-633.9" font-family="Arial" font-size="14.00" fill="#666666">[integer]</text>
<polygon fill="none" stroke="#000000" points="617,-592.5 617,-622.5 980,-622.5 980,-592.5 617,-592.5"/>
<text text-anchor="start" x="624" y="-603.9" font-family="Arial" font-size="14.00" fill="#000000">owner </text>
<text text-anchor="start" x="666.0056" y="-603.9" font-family="Arial" font-size="14.00" fill="#666666">[integer]</text>
<polygon fill="none" stroke="#000000" stroke-width="3" points="615,-591.5 615,-749.5 981,-749.5 981,-591.5 615,-591.5"/>
</g>
<!-- actor.stat_cat_entry -->
<g id="node2" class="node">
<title>actor.stat_cat_entry</title>
<polygon fill="#efefef" stroke="transparent" points="271,-297.5 271,-332.5 570,-332.5 570,-297.5 271,-297.5"/>
<polygon fill="none" stroke="#000000" points="271,-297.5 271,-332.5 570,-332.5 570,-297.5 271,-297.5"/>
<text text-anchor="start" x="277.6924" y="-310.3" font-family="Arial Bold" font-size="18.00" fill="#000000">actor.stat_cat_entry</text>
<text text-anchor="start" x="435.7396" y="-310.3" font-family="Arial" font-size="14.00" fill="#000000">    </text>
<text text-anchor="start" x="469.9444" y="-310.3" font-family="Arial" font-size="14.00" fill="#666666">[BASE TABLE]</text>
<polygon fill="none" stroke="#000000" points="271,-267.5 271,-297.5 570,-297.5 570,-267.5 271,-267.5"/>
<text text-anchor="start" x="278" y="-278.9" font-family="Arial" font-size="14.00" fill="#000000">id    </text>
<text text-anchor="start" x="323.094" y="-278.9" font-family="Arial" font-size="14.00" fill="#666666">[integer]</text>
<polygon fill="none" stroke="#000000" points="271,-237.5 271,-267.5 570,-267.5 570,-237.5 271,-237.5"/>
<text text-anchor="start" x="278" y="-248.9" font-family="Arial" font-size="14.00" fill="#000000">stat_cat    </text>
<text text-anchor="start" x="361.2244" y="-248.9" font-family="Arial" font-size="14.00" fill="#666666">[integer]</text>
<polygon fill="none" stroke="#000000" points="271,-207.5 271,-237.5 570,-237.5 570,-207.5 271,-207.5"/>
<text text-anchor="start" x="278" y="-218.9" font-family="Arial" font-size="14.00" fill="#000000">owner    </text>
<text text-anchor="start" x="350.3198" y="-218.9" font-family="Arial" font-size="14.00" fill="#666666">[integer]</text>
<polygon fill="none" stroke="#000000" points="271,-177.5 271,-207.5 570,-207.5 570,-177.5 271,-177.5"/>
<text text-anchor="start" x="278" y="-188.9" font-family="Arial" font-size="14.00" fill="#000000">value    </text>
<text text-anchor="start" x="345.6592" y="-188.9" font-family="Arial" font-size="14.00" fill="#666666">[text]</text>
</g>
<!-- actor.stat_cat_entry_default&#45;&gt;actor.stat_cat_entry -->
<g id="edge1" class="edge">
<title>actor.stat_cat_entry_default:stat_cat_entry&#45;&gt;actor.stat_cat_entry:id</title>
<path fill="none" stroke="#000000" d="M607.0278,-665.4286C541.1936,-635.1249 652.4872,-282.5 570,-282.5"/>
<polygon fill="#000000" stroke="#000000" points="607.209,-665.4662 616.0848,-671.906 612.1045,-666.4831 617,-667.5 617,-667.5 617,-667.5 612.1045,-666.4831 617.9152,-663.094 607.209,-665.4662 607.209,-665.4662"/>
<text text-anchor="start" x="7.3075" y="-677.5" font-family="Arial" font-size="10.00" fill="#000000">FOREIGN KEY (stat_cat_entry) REFERENCES actor.stat_cat_entry(id) ON DELETE CASCADE DEFERRABLE INITIALLY DEFERRED</text>
</g>
<!-- actor.stat_cat -->
<g id="node3" class="node">
<title>actor.stat_cat</title>
<polygon fill="#efefef" stroke="transparent" points="674,-387.5 674,-422.5 923,-422.5 923,-387.5 674,-387.5"/>
<polygon fill="none" stroke="#000000" points="674,-387.5 674,-422.5 923,-422.5 923,-387.5 674,-387.5"/>
<text text-anchor="start" x="680.6989" y="-400.3" font-family="Arial Bold" font-size="18.00" fill="#000000">actor.stat_cat</text>
<text text-anchor="start" x="788.7331" y="-400.3" font-family="Arial" font-size="14.00" fill="#000000">    </text>
<text text-anchor="start" x="822.9379" y="-400.3" font-family="Arial" font-size="14.00" fill="#666666">[BASE TABLE]</text>
<polygon fill="none" stroke="#000000" points="674,-357.5 674,-387.5 923,-387.5 923,-357.5 674,-357.5"/>
<text text-anchor="start" x="681" y="-368.9" font-family="Arial" font-size="14.00" fill="#000000">id    </text>
<text text-anchor="start" x="726.094" y="-368.9" font-family="Arial" font-size="14.00" fill="#666666">[integer]</text>
<polygon fill="none" stroke="#000000" points="674,-327.5 674,-357.5 923,-357.5 923,-327.5 674,-327.5"/>
<text text-anchor="start" x="681" y="-338.9" font-family="Arial" font-size="14.00" fill="#000000">owner    </text>
<text text-anchor="start" x="753.3198" y="-338.9" font-family="Arial" font-size="14.00" fill="#666666">[integer]</text>
<polygon fill="none" stroke="#000000" points="674,-297.5 674,-327.5 923,-327.5 923,-297.5 674,-297.5"/>
<text text-anchor="start" x="681" y="-308.9" font-family="Arial" font-size="14.00" fill="#000000">name    </text>
<text text-anchor="start" x="750.2132" y="-308.9" font-family="Arial" font-size="14.00" fill="#666666">[text]</text>
<polygon fill="none" stroke="#000000" points="674,-267.5 674,-297.5 923,-297.5 923,-267.5 674,-267.5"/>
<text text-anchor="start" x="681" y="-278.9" font-family="Arial" font-size="14.00" fill="#000000">opac_visible    </text>
<text text-anchor="start" x="792.2202" y="-278.9" font-family="Arial" font-size="14.00" fill="#666666">[boolean]</text>
<polygon fill="none" stroke="#000000" points="674,-237.5 674,-267.5 923,-267.5 923,-237.5 674,-237.5"/>
<text text-anchor="start" x="681" y="-248.9" font-family="Arial" font-size="14.00" fill="#000000">usr_summary    </text>
<text text-anchor="start" x="799.9776" y="-248.9" font-family="Arial" font-size="14.00" fill="#666666">[boolean]</text>
<polygon fill="none" stroke="#000000" points="674,-207.5 674,-237.5 923,-237.5 923,-207.5 674,-207.5"/>
<text text-anchor="start" x="681" y="-218.9" font-family="Arial" font-size="14.00" fill="#000000">sip_field    </text>
<text text-anchor="start" x="766.5456" y="-218.9" font-family="Arial" font-size="14.00" fill="#666666">[character(2)]</text>
<polygon fill="none" stroke="#000000" points="674,-177.5 674,-207.5 923,-207.5 923,-177.5 674,-177.5"/>
<text text-anchor="start" x="681" y="-188.9" font-family="Arial" font-size="14.00" fill="#000000">sip_format    </text>
<text text-anchor="start" x="780.5442" y="-188.9" font-family="Arial" font-size="14.00" fill="#666666">[text]</text>
<polygon fill="none" stroke="#000000" points="674,-147.5 674,-177.5 923,-177.5 923,-147.5 674,-147.5"/>
<text text-anchor="start" x="681" y="-158.9" font-family="Arial" font-size="14.00" fill="#000000">checkout_archive    </text>
<text text-anchor="start" x="824.1234" y="-158.9" font-family="Arial" font-size="14.00" fill="#666666">[boolean]</text>
<polygon fill="none" stroke="#000000" points="674,-117.5 674,-147.5 923,-147.5 923,-117.5 674,-117.5"/>
<text text-anchor="start" x="681" y="-128.9" font-family="Arial" font-size="14.00" fill="#000000">required    </text>
<text text-anchor="start" x="766.5456" y="-128.9" font-family="Arial" font-size="14.00" fill="#666666">[boolean]</text>
<polygon fill="none" stroke="#000000" points="674,-87.5 674,-117.5 923,-117.5 923,-87.5 674,-87.5"/>
<text text-anchor="start" x="681" y="-98.9" font-family="Arial" font-size="14.00" fill="#000000">allow_freetext    </text>
<text text-anchor="start" x="801.5526" y="-98.9" font-family="Arial" font-size="14.00" fill="#666666">[boolean]</text>
</g>
<!-- actor.stat_cat_entry_default&#45;&gt;actor.stat_cat -->
<g id="edge2" class="edge">
<title>actor.stat_cat_entry_default:stat_cat&#45;&gt;actor.stat_cat:id</title>
<path fill="none" stroke="#000000" d="M610.3999,-629.8549C598.183,-586.4053 646.941,-372.5 674,-372.5"/>
<polygon fill="#000000" stroke="#000000" points="610.4652,-629.9305 613.5937,-640.4407 613.7326,-633.7153 617,-637.5 617,-637.5 617,-637.5 613.7326,-633.7153 620.4063,-634.5593 610.4652,-629.9305 610.4652,-629.9305"/>
<text text-anchor="start" x="63.0925" y="-647.5" font-family="Arial" font-size="10.00" fill="#000000">FOREIGN KEY (stat_cat) REFERENCES actor.stat_cat(id) ON DELETE CASCADE DEFERRABLE INITIALLY DEFERRED</text>
</g>
<!-- actor.org_unit -->
<g id="node4" class="node">
<title>actor.org_unit</title>
<polygon fill="#efefef" stroke="transparent" points="1027,-432.5 1027,-467.5 1278,-467.5 1278,-432.5 1027,-432.5"/>
<polygon fill="none" stroke="#000000" points="1027,-432.5 1027,-467.5 1278,-467.5 1278,-432.5 1027,-432.5"/>
<text text-anchor="start" x="1033.7017" y="-445.3" font-family="Arial Bold" font-size="18.00" fill="#000000">actor.org_unit</text>
<text text-anchor="start" x="1143.7303" y="-445.3" font-family="Arial" font-size="14.00" fill="#000000">    </text>
<text text-anchor="start" x="1177.9351" y="-445.3" font-family="Arial" font-size="14.00" fill="#666666">[BASE TABLE]</text>
<polygon fill="none" stroke="#000000" points="1027,-402.5 1027,-432.5 1278,-432.5 1278,-402.5 1027,-402.5"/>
<text text-anchor="start" x="1034" y="-413.9" font-family="Arial" font-size="14.00" fill="#000000">id    </text>
<text text-anchor="start" x="1079.094" y="-413.9" font-family="Arial" font-size="14.00" fill="#666666">[integer]</text>
<polygon fill="none" stroke="#000000" points="1027,-372.5 1027,-402.5 1278,-402.5 1278,-372.5 1027,-372.5"/>
<text text-anchor="start" x="1034" y="-383.9" font-family="Arial" font-size="14.00" fill="#000000">parent_ou    </text>
<text text-anchor="start" x="1131.2342" y="-383.9" font-family="Arial" font-size="14.00" fill="#666666">[integer]</text>
<polygon fill="none" stroke="#000000" points="1027,-342.5 1027,-372.5 1278,-372.5 1278,-342.5 1027,-342.5"/>
<text text-anchor="start" x="1034" y="-353.9" font-family="Arial" font-size="14.00" fill="#000000">ou_type    </text>
<text text-anchor="start" x="1118.0084" y="-353.9" font-family="Arial" font-size="14.00" fill="#666666">[integer]</text>
<polygon fill="none" stroke="#000000" points="1027,-312.5 1027,-342.5 1278,-342.5 1278,-312.5 1027,-312.5"/>
<text text-anchor="start" x="1034" y="-323.9" font-family="Arial" font-size="14.00" fill="#000000">ill_address    </text>
<text text-anchor="start" x="1135.0982" y="-323.9" font-family="Arial" font-size="14.00" fill="#666666">[integer]</text>
<polygon fill="none" stroke="#000000" points="1027,-282.5 1027,-312.5 1278,-312.5 1278,-282.5 1027,-282.5"/>
<text text-anchor="start" x="1034" y="-293.9" font-family="Arial" font-size="14.00" fill="#000000">holds_address    </text>
<text text-anchor="start" x="1159.2328" y="-293.9" font-family="Arial" font-size="14.00" fill="#666666">[integer]</text>
<polygon fill="none" stroke="#000000" points="1027,-252.5 1027,-282.5 1278,-282.5 1278,-252.5 1027,-252.5"/>
<text text-anchor="start" x="1034" y="-263.9" font-family="Arial" font-size="14.00" fill="#000000">mailing_address    </text>
<text text-anchor="start" x="1170.1066" y="-263.9" font-family="Arial" font-size="14.00" fill="#666666">[integer]</text>
<polygon fill="none" stroke="#000000" points="1027,-222.5 1027,-252.5 1278,-252.5 1278,-222.5 1027,-222.5"/>
<text text-anchor="start" x="1034" y="-233.9" font-family="Arial" font-size="14.00" fill="#000000">billing_address    </text>
<text text-anchor="start" x="1161.5526" y="-233.9" font-family="Arial" font-size="14.00" fill="#666666">[integer]</text>
<polygon fill="none" stroke="#000000" points="1027,-192.5 1027,-222.5 1278,-222.5 1278,-192.5 1027,-192.5"/>
<text text-anchor="start" x="1034" y="-203.9" font-family="Arial" font-size="14.00" fill="#000000">shortname    </text>
<text text-anchor="start" x="1134.3296" y="-203.9" font-family="Arial" font-size="14.00" fill="#666666">[text]</text>
<polygon fill="none" stroke="#000000" points="1027,-162.5 1027,-192.5 1278,-192.5 1278,-162.5 1027,-162.5"/>
<text text-anchor="start" x="1034" y="-173.9" font-family="Arial" font-size="14.00" fill="#000000">name    </text>
<text text-anchor="start" x="1103.2132" y="-173.9" font-family="Arial" font-size="14.00" fill="#666666">[text]</text>
<polygon fill="none" stroke="#000000" points="1027,-132.5 1027,-162.5 1278,-162.5 1278,-132.5 1027,-132.5"/>
<text text-anchor="start" x="1034" y="-143.9" font-family="Arial" font-size="14.00" fill="#000000">email    </text>
<text text-anchor="start" x="1101.6438" y="-143.9" font-family="Arial" font-size="14.00" fill="#666666">[text]</text>
<polygon fill="none" stroke="#000000" points="1027,-102.5 1027,-132.5 1278,-132.5 1278,-102.5 1027,-102.5"/>
<text text-anchor="start" x="1034" y="-113.9" font-family="Arial" font-size="14.00" fill="#000000">phone    </text>
<text text-anchor="start" x="1107.1178" y="-113.9" font-family="Arial" font-size="14.00" fill="#666666">[text]</text>
<polygon fill="none" stroke="#000000" points="1027,-72.5 1027,-102.5 1278,-102.5 1278,-72.5 1027,-72.5"/>
<text text-anchor="start" x="1034" y="-83.9" font-family="Arial" font-size="14.00" fill="#000000">opac_visible    </text>
<text text-anchor="start" x="1145.2202" y="-83.9" font-family="Arial" font-size="14.00" fill="#666666">[boolean]</text>
<polygon fill="none" stroke="#000000" points="1027,-42.5 1027,-72.5 1278,-72.5 1278,-42.5 1027,-42.5"/>
<text text-anchor="start" x="1034" y="-53.9" font-family="Arial" font-size="14.00" fill="#000000">fiscal_calendar    </text>
<text text-anchor="start" x="1161.554" y="-53.9" font-family="Arial" font-size="14.00" fill="#666666">[integer]</text>
</g>
<!-- actor.stat_cat_entry_default&#45;&gt;actor.org_unit -->
<g id="edge3" class="edge">
<title>actor.stat_cat_entry_default:owner&#45;&gt;actor.org_unit:id</title>
<path fill="none" stroke="#000000" d="M990.0623,-606.4777C1056.4725,-591.5227 943.7481,-417.5 1027,-417.5"/>
<polygon fill="#000000" stroke="#000000" points="989.9488,-606.4892 979.5451,-603.023 984.9744,-606.9946 980,-607.5 980,-607.5 980,-607.5 984.9744,-606.9946 980.4549,-611.977 989.9488,-606.4892 989.9488,-606.4892"/>
<text text-anchor="start" x="987.433" y="-617.5" font-family="Arial" font-size="10.00" fill="#000000">FOREIGN KEY (owner) REFERENCES actor.org_unit(id) ON DELETE CASCADE DEFERRABLE INITIALLY DEFERRED</text>
</g>
</g>
</svg>
