<?xml version="1.0" encoding="UTF-8" standalone="no"?>
<!DOCTYPE svg PUBLIC "-//W3C//DTD SVG 1.1//EN"
 "http://www.w3.org/Graphics/SVG/1.1/DTD/svg11.dtd">
<!-- Generated by graphviz version 2.40.1 (20161225.0304)
 -->
<!-- Title: actor.hours_of_operation Pages: 1 -->
<svg width="930pt" height="1132pt"
 viewBox="0.00 0.00 929.50 1132.00" xmlns="http://www.w3.org/2000/svg" xmlns:xlink="http://www.w3.org/1999/xlink">
<g id="graph0" class="graph" transform="scale(1 1) rotate(0) translate(4 1128)">
<title>actor.hours_of_operation</title>
<polygon fill="#ffffff" stroke="transparent" points="-4,4 -4,-1128 925.5,-1128 925.5,4 -4,4"/>
<!-- actor.hours_of_operation -->
<g id="node1" class="node">
<title>actor.hours_of_operation</title>
<polygon fill="#efefef" stroke="transparent" points="535,-1042.5 535,-1077.5 876,-1077.5 876,-1042.5 535,-1042.5"/>
<polygon fill="none" stroke="#000000" points="535,-1042.5 535,-1077.5 876,-1077.5 876,-1042.5 535,-1042.5"/>
<text text-anchor="start" x="541.6828" y="-1055.3" font-family="Arial Bold" font-size="18.00" fill="#000000">actor.hours_of_operation</text>
<text text-anchor="start" x="741.7492" y="-1055.3" font-family="Arial" font-size="14.00" fill="#000000">    </text>
<text text-anchor="start" x="775.954" y="-1055.3" font-family="Arial" font-size="14.00" fill="#666666">[BASE TABLE]</text>
<polygon fill="none" stroke="#000000" points="535,-1012.5 535,-1042.5 876,-1042.5 876,-1012.5 535,-1012.5"/>
<text text-anchor="start" x="542" y="-1023.9" font-family="Arial" font-size="14.00" fill="#000000">id </text>
<text text-anchor="start" x="556.7798" y="-1023.9" font-family="Arial" font-size="14.00" fill="#666666">[integer]</text>
<polygon fill="none" stroke="#000000" points="535,-982.5 535,-1012.5 876,-1012.5 876,-982.5 535,-982.5"/>
<text text-anchor="start" x="542" y="-993.9" font-family="Arial" font-size="14.00" fill="#000000">dow_0_open </text>
<text text-anchor="start" x="626.0406" y="-993.9" font-family="Arial" font-size="14.00" fill="#666666">[time without time zone]</text>
<polygon fill="none" stroke="#000000" points="535,-952.5 535,-982.5 876,-982.5 876,-952.5 535,-952.5"/>
<text text-anchor="start" x="542" y="-963.9" font-family="Arial" font-size="14.00" fill="#000000">dow_0_close </text>
<text text-anchor="start" x="627.582" y="-963.9" font-family="Arial" font-size="14.00" fill="#666666">[time without time zone]</text>
<polygon fill="none" stroke="#000000" points="535,-922.5 535,-952.5 876,-952.5 876,-922.5 535,-922.5"/>
<text text-anchor="start" x="542" y="-933.9" font-family="Arial" font-size="14.00" fill="#000000">dow_1_open </text>
<text text-anchor="start" x="626.0406" y="-933.9" font-family="Arial" font-size="14.00" fill="#666666">[time without time zone]</text>
<polygon fill="none" stroke="#000000" points="535,-892.5 535,-922.5 876,-922.5 876,-892.5 535,-892.5"/>
<text text-anchor="start" x="542" y="-903.9" font-family="Arial" font-size="14.00" fill="#000000">dow_1_close </text>
<text text-anchor="start" x="627.582" y="-903.9" font-family="Arial" font-size="14.00" fill="#666666">[time without time zone]</text>
<polygon fill="none" stroke="#000000" points="535,-862.5 535,-892.5 876,-892.5 876,-862.5 535,-862.5"/>
<text text-anchor="start" x="542" y="-873.9" font-family="Arial" font-size="14.00" fill="#000000">dow_2_open </text>
<text text-anchor="start" x="626.0406" y="-873.9" font-family="Arial" font-size="14.00" fill="#666666">[time without time zone]</text>
<polygon fill="none" stroke="#000000" points="535,-832.5 535,-862.5 876,-862.5 876,-832.5 535,-832.5"/>
<text text-anchor="start" x="542" y="-843.9" font-family="Arial" font-size="14.00" fill="#000000">dow_2_close </text>
<text text-anchor="start" x="627.582" y="-843.9" font-family="Arial" font-size="14.00" fill="#666666">[time without time zone]</text>
<polygon fill="none" stroke="#000000" points="535,-802.5 535,-832.5 876,-832.5 876,-802.5 535,-802.5"/>
<text text-anchor="start" x="542" y="-813.9" font-family="Arial" font-size="14.00" fill="#000000">dow_3_open </text>
<text text-anchor="start" x="626.0406" y="-813.9" font-family="Arial" font-size="14.00" fill="#666666">[time without time zone]</text>
<polygon fill="none" stroke="#000000" points="535,-772.5 535,-802.5 876,-802.5 876,-772.5 535,-772.5"/>
<text text-anchor="start" x="542" y="-783.9" font-family="Arial" font-size="14.00" fill="#000000">dow_3_close </text>
<text text-anchor="start" x="627.582" y="-783.9" font-family="Arial" font-size="14.00" fill="#666666">[time without time zone]</text>
<polygon fill="none" stroke="#000000" points="535,-742.5 535,-772.5 876,-772.5 876,-742.5 535,-742.5"/>
<text text-anchor="start" x="542" y="-753.9" font-family="Arial" font-size="14.00" fill="#000000">dow_4_open </text>
<text text-anchor="start" x="626.0406" y="-753.9" font-family="Arial" font-size="14.00" fill="#666666">[time without time zone]</text>
<polygon fill="none" stroke="#000000" points="535,-712.5 535,-742.5 876,-742.5 876,-712.5 535,-712.5"/>
<text text-anchor="start" x="542" y="-723.9" font-family="Arial" font-size="14.00" fill="#000000">dow_4_close </text>
<text text-anchor="start" x="627.582" y="-723.9" font-family="Arial" font-size="14.00" fill="#666666">[time without time zone]</text>
<polygon fill="none" stroke="#000000" points="535,-682.5 535,-712.5 876,-712.5 876,-682.5 535,-682.5"/>
<text text-anchor="start" x="542" y="-693.9" font-family="Arial" font-size="14.00" fill="#000000">dow_5_open </text>
<text text-anchor="start" x="626.0406" y="-693.9" font-family="Arial" font-size="14.00" fill="#666666">[time without time zone]</text>
<polygon fill="none" stroke="#000000" points="535,-652.5 535,-682.5 876,-682.5 876,-652.5 535,-652.5"/>
<text text-anchor="start" x="542" y="-663.9" font-family="Arial" font-size="14.00" fill="#000000">dow_5_close </text>
<text text-anchor="start" x="627.582" y="-663.9" font-family="Arial" font-size="14.00" fill="#666666">[time without time zone]</text>
<polygon fill="none" stroke="#000000" points="535,-622.5 535,-652.5 876,-652.5 876,-622.5 535,-622.5"/>
<text text-anchor="start" x="542" y="-633.9" font-family="Arial" font-size="14.00" fill="#000000">dow_6_open </text>
<text text-anchor="start" x="626.0406" y="-633.9" font-family="Arial" font-size="14.00" fill="#666666">[time without time zone]</text>
<polygon fill="none" stroke="#000000" points="535,-592.5 535,-622.5 876,-622.5 876,-592.5 535,-592.5"/>
<text text-anchor="start" x="542" y="-603.9" font-family="Arial" font-size="14.00" fill="#000000">dow_6_close </text>
<text text-anchor="start" x="627.582" y="-603.9" font-family="Arial" font-size="14.00" fill="#666666">[time without time zone]</text>
<polygon fill="none" stroke="#000000" stroke-width="3" points="533,-591.5 533,-1079.5 877,-1079.5 877,-591.5 533,-591.5"/>
</g>
<!-- actor.org_unit -->
<g id="node2" class="node">
<title>actor.org_unit</title>
<polygon fill="#efefef" stroke="transparent" points="580,-432.5 580,-467.5 831,-467.5 831,-432.5 580,-432.5"/>
<polygon fill="none" stroke="#000000" points="580,-432.5 580,-467.5 831,-467.5 831,-432.5 580,-432.5"/>
<text text-anchor="start" x="586.7017" y="-445.3" font-family="Arial Bold" font-size="18.00" fill="#000000">actor.org_unit</text>
<text text-anchor="start" x="696.7303" y="-445.3" font-family="Arial" font-size="14.00" fill="#000000">    </text>
<text text-anchor="start" x="730.9351" y="-445.3" font-family="Arial" font-size="14.00" fill="#666666">[BASE TABLE]</text>
<polygon fill="none" stroke="#000000" points="580,-402.5 580,-432.5 831,-432.5 831,-402.5 580,-402.5"/>
<text text-anchor="start" x="587" y="-413.9" font-family="Arial" font-size="14.00" fill="#000000">id    </text>
<text text-anchor="start" x="632.094" y="-413.9" font-family="Arial" font-size="14.00" fill="#666666">[integer]</text>
<polygon fill="none" stroke="#000000" points="580,-372.5 580,-402.5 831,-402.5 831,-372.5 580,-372.5"/>
<text text-anchor="start" x="587" y="-383.9" font-family="Arial" font-size="14.00" fill="#000000">parent_ou    </text>
<text text-anchor="start" x="684.2342" y="-383.9" font-family="Arial" font-size="14.00" fill="#666666">[integer]</text>
<polygon fill="none" stroke="#000000" points="580,-342.5 580,-372.5 831,-372.5 831,-342.5 580,-342.5"/>
<text text-anchor="start" x="587" y="-353.9" font-family="Arial" font-size="14.00" fill="#000000">ou_type    </text>
<text text-anchor="start" x="671.0084" y="-353.9" font-family="Arial" font-size="14.00" fill="#666666">[integer]</text>
<polygon fill="none" stroke="#000000" points="580,-312.5 580,-342.5 831,-342.5 831,-312.5 580,-312.5"/>
<text text-anchor="start" x="587" y="-323.9" font-family="Arial" font-size="14.00" fill="#000000">ill_address    </text>
<text text-anchor="start" x="688.0982" y="-323.9" font-family="Arial" font-size="14.00" fill="#666666">[integer]</text>
<polygon fill="none" stroke="#000000" points="580,-282.5 580,-312.5 831,-312.5 831,-282.5 580,-282.5"/>
<text text-anchor="start" x="587" y="-293.9" font-family="Arial" font-size="14.00" fill="#000000">holds_address    </text>
<text text-anchor="start" x="712.2328" y="-293.9" font-family="Arial" font-size="14.00" fill="#666666">[integer]</text>
<polygon fill="none" stroke="#000000" points="580,-252.5 580,-282.5 831,-282.5 831,-252.5 580,-252.5"/>
<text text-anchor="start" x="587" y="-263.9" font-family="Arial" font-size="14.00" fill="#000000">mailing_address    </text>
<text text-anchor="start" x="723.1066" y="-263.9" font-family="Arial" font-size="14.00" fill="#666666">[integer]</text>
<polygon fill="none" stroke="#000000" points="580,-222.5 580,-252.5 831,-252.5 831,-222.5 580,-222.5"/>
<text text-anchor="start" x="587" y="-233.9" font-family="Arial" font-size="14.00" fill="#000000">billing_address    </text>
<text text-anchor="start" x="714.5526" y="-233.9" font-family="Arial" font-size="14.00" fill="#666666">[integer]</text>
<polygon fill="none" stroke="#000000" points="580,-192.5 580,-222.5 831,-222.5 831,-192.5 580,-192.5"/>
<text text-anchor="start" x="587" y="-203.9" font-family="Arial" font-size="14.00" fill="#000000">shortname    </text>
<text text-anchor="start" x="687.3296" y="-203.9" font-family="Arial" font-size="14.00" fill="#666666">[text]</text>
<polygon fill="none" stroke="#000000" points="580,-162.5 580,-192.5 831,-192.5 831,-162.5 580,-162.5"/>
<text text-anchor="start" x="587" y="-173.9" font-family="Arial" font-size="14.00" fill="#000000">name    </text>
<text text-anchor="start" x="656.2132" y="-173.9" font-family="Arial" font-size="14.00" fill="#666666">[text]</text>
<polygon fill="none" stroke="#000000" points="580,-132.5 580,-162.5 831,-162.5 831,-132.5 580,-132.5"/>
<text text-anchor="start" x="587" y="-143.9" font-family="Arial" font-size="14.00" fill="#000000">email    </text>
<text text-anchor="start" x="654.6438" y="-143.9" font-family="Arial" font-size="14.00" fill="#666666">[text]</text>
<polygon fill="none" stroke="#000000" points="580,-102.5 580,-132.5 831,-132.5 831,-102.5 580,-102.5"/>
<text text-anchor="start" x="587" y="-113.9" font-family="Arial" font-size="14.00" fill="#000000">phone    </text>
<text text-anchor="start" x="660.1178" y="-113.9" font-family="Arial" font-size="14.00" fill="#666666">[text]</text>
<polygon fill="none" stroke="#000000" points="580,-72.5 580,-102.5 831,-102.5 831,-72.5 580,-72.5"/>
<text text-anchor="start" x="587" y="-83.9" font-family="Arial" font-size="14.00" fill="#000000">opac_visible    </text>
<text text-anchor="start" x="698.2202" y="-83.9" font-family="Arial" font-size="14.00" fill="#666666">[boolean]</text>
<polygon fill="none" stroke="#000000" points="580,-42.5 580,-72.5 831,-72.5 831,-42.5 580,-42.5"/>
<text text-anchor="start" x="587" y="-53.9" font-family="Arial" font-size="14.00" fill="#000000">fiscal_calendar    </text>
<text text-anchor="start" x="714.554" y="-53.9" font-family="Arial" font-size="14.00" fill="#666666">[integer]</text>
</g>
<!-- actor.hours_of_operation&#45;&gt;actor.org_unit -->
<g id="edge1" class="edge">
<title>actor.hours_of_operation:id&#45;&gt;actor.org_unit:id</title>
<path fill="none" stroke="#000000" d="M525.8421,-1023.279C471.4873,-969.384 515.3565,-417.5 580,-417.5"/>
<polygon fill="#000000" stroke="#000000" points="525.9183,-1023.314 533.1163,-1031.5868 530.4591,-1025.407 535,-1027.5 535,-1027.5 535,-1027.5 530.4591,-1025.407 536.8837,-1023.4132 525.9183,-1023.314 525.9183,-1023.314"/>
<text text-anchor="start" x="7.1565" y="-1037.5" font-family="Arial" font-size="10.00" fill="#000000">FOREIGN KEY (id) REFERENCES actor.org_unit(id) ON DELETE CASCADE DEFERRABLE INITIALLY DEFERRED</text>
</g>
</g>
</svg>
