<?xml version="1.0" encoding="UTF-8" standalone="no"?>
<!DOCTYPE svg PUBLIC "-//W3C//DTD SVG 1.1//EN"
 "http://www.w3.org/Graphics/SVG/1.1/DTD/svg11.dtd">
<!-- Generated by graphviz version 2.40.1 (20161225.0304)
 -->
<!-- Title: actor.passwd_type Pages: 1 -->
<svg width="854pt" height="682pt"
 viewBox="0.00 0.00 853.50 682.00" xmlns="http://www.w3.org/2000/svg" xmlns:xlink="http://www.w3.org/1999/xlink">
<g id="graph0" class="graph" transform="scale(1 1) rotate(0) translate(4 678)">
<title>actor.passwd_type</title>
<polygon fill="#ffffff" stroke="transparent" points="-4,4 -4,-678 849.5,-678 849.5,4 -4,4"/>
<!-- actor.passwd_type -->
<g id="node1" class="node">
<title>actor.passwd_type</title>
<polygon fill="#efefef" stroke="transparent" points="509,-225.5 509,-260.5 800,-260.5 800,-225.5 509,-225.5"/>
<polygon fill="none" stroke="#000000" points="509,-225.5 509,-260.5 800,-260.5 800,-225.5 509,-225.5"/>
<text text-anchor="start" x="515.6947" y="-238.3" font-family="Arial Bold" font-size="18.00" fill="#000000">actor.passwd_type</text>
<text text-anchor="start" x="665.7373" y="-238.3" font-family="Arial" font-size="14.00" fill="#000000">    </text>
<text text-anchor="start" x="699.9421" y="-238.3" font-family="Arial" font-size="14.00" fill="#666666">[BASE TABLE]</text>
<polygon fill="none" stroke="#000000" points="509,-195.5 509,-225.5 800,-225.5 800,-195.5 509,-195.5"/>
<text text-anchor="start" x="516" y="-206.9" font-family="Arial" font-size="14.00" fill="#000000">code </text>
<text text-anchor="start" x="550.2384" y="-206.9" font-family="Arial" font-size="14.00" fill="#666666">[text]</text>
<polygon fill="none" stroke="#000000" points="509,-165.5 509,-195.5 800,-195.5 800,-165.5 509,-165.5"/>
<text text-anchor="start" x="516" y="-176.9" font-family="Arial" font-size="14.00" fill="#000000">name </text>
<text text-anchor="start" x="554.899" y="-176.9" font-family="Arial" font-size="14.00" fill="#666666">[text]</text>
<polygon fill="none" stroke="#000000" points="509,-135.5 509,-165.5 800,-165.5 800,-135.5 509,-135.5"/>
<text text-anchor="start" x="516" y="-146.9" font-family="Arial" font-size="14.00" fill="#000000">login </text>
<text text-anchor="start" x="549.4516" y="-146.9" font-family="Arial" font-size="14.00" fill="#666666">[boolean]</text>
<polygon fill="none" stroke="#000000" points="509,-105.5 509,-135.5 800,-135.5 800,-105.5 509,-105.5"/>
<text text-anchor="start" x="516" y="-116.9" font-family="Arial" font-size="14.00" fill="#000000">regex </text>
<text text-anchor="start" x="554.899" y="-116.9" font-family="Arial" font-size="14.00" fill="#666666">[text]</text>
<polygon fill="none" stroke="#000000" points="509,-75.5 509,-105.5 800,-105.5 800,-75.5 509,-75.5"/>
<text text-anchor="start" x="516" y="-86.9" font-family="Arial" font-size="14.00" fill="#000000">crypt_algo </text>
<text text-anchor="start" x="584.4614" y="-86.9" font-family="Arial" font-size="14.00" fill="#666666">[text]</text>
<polygon fill="none" stroke="#000000" points="509,-45.5 509,-75.5 800,-75.5 800,-45.5 509,-45.5"/>
<text text-anchor="start" x="516" y="-56.9" font-family="Arial" font-size="14.00" fill="#000000">iter_count </text>
<text text-anchor="start" x="581.352" y="-56.9" font-family="Arial" font-size="14.00" fill="#666666">[integer]</text>
<polygon fill="none" stroke="#000000" stroke-width="3" points="507,-44.5 507,-262.5 801,-262.5 801,-44.5 507,-44.5"/>
</g>
<!-- actor.passwd -->
<g id="node2" class="node">
<title>actor.passwd</title>
<polygon fill="#efefef" stroke="transparent" points="511,-595.5 511,-630.5 798,-630.5 798,-595.5 511,-595.5"/>
<polygon fill="none" stroke="#000000" points="511,-595.5 511,-630.5 798,-630.5 798,-595.5 511,-595.5"/>
<text text-anchor="start" x="537.7051" y="-608.3" font-family="Arial Bold" font-size="18.00" fill="#000000">actor.passwd</text>
<text text-anchor="start" x="643.7269" y="-608.3" font-family="Arial" font-size="14.00" fill="#000000">    </text>
<text text-anchor="start" x="677.9317" y="-608.3" font-family="Arial" font-size="14.00" fill="#666666">[BASE TABLE]</text>
<polygon fill="none" stroke="#000000" points="511,-565.5 511,-595.5 798,-595.5 798,-565.5 511,-565.5"/>
<text text-anchor="start" x="518" y="-576.9" font-family="Arial" font-size="14.00" fill="#000000">id    </text>
<text text-anchor="start" x="563.094" y="-576.9" font-family="Arial" font-size="14.00" fill="#666666">[integer]</text>
<polygon fill="none" stroke="#000000" points="511,-535.5 511,-565.5 798,-565.5 798,-535.5 511,-535.5"/>
<text text-anchor="start" x="518" y="-546.9" font-family="Arial" font-size="14.00" fill="#000000">usr    </text>
<text text-anchor="start" x="571.648" y="-546.9" font-family="Arial" font-size="14.00" fill="#666666">[integer]</text>
<polygon fill="none" stroke="#000000" points="511,-505.5 511,-535.5 798,-535.5 798,-505.5 511,-505.5"/>
<text text-anchor="start" x="518" y="-516.9" font-family="Arial" font-size="14.00" fill="#000000">salt    </text>
<text text-anchor="start" x="573.9846" y="-516.9" font-family="Arial" font-size="14.00" fill="#666666">[text]</text>
<polygon fill="none" stroke="#000000" points="511,-475.5 511,-505.5 798,-505.5 798,-475.5 511,-475.5"/>
<text text-anchor="start" x="518" y="-486.9" font-family="Arial" font-size="14.00" fill="#000000">passwd    </text>
<text text-anchor="start" x="599.6592" y="-486.9" font-family="Arial" font-size="14.00" fill="#666666">[text]</text>
<polygon fill="none" stroke="#000000" points="511,-445.5 511,-475.5 798,-475.5 798,-445.5 511,-445.5"/>
<text text-anchor="start" x="518" y="-456.9" font-family="Arial" font-size="14.00" fill="#000000">passwd_type    </text>
<text text-anchor="start" x="633.8976" y="-456.9" font-family="Arial" font-size="14.00" fill="#666666">[text]</text>
<polygon fill="none" stroke="#000000" points="511,-415.5 511,-445.5 798,-445.5 798,-415.5 511,-415.5"/>
<text text-anchor="start" x="517.5954" y="-426.9" font-family="Arial" font-size="14.00" fill="#000000">create_date    </text>
<text text-anchor="start" x="625.7202" y="-426.9" font-family="Arial" font-size="14.00" fill="#666666">[timestamp with time zone]</text>
<polygon fill="none" stroke="#000000" points="511,-385.5 511,-415.5 798,-415.5 798,-385.5 511,-385.5"/>
<text text-anchor="start" x="518" y="-396.9" font-family="Arial" font-size="14.00" fill="#000000">edit_date    </text>
<text text-anchor="start" x="609.7882" y="-396.9" font-family="Arial" font-size="14.00" fill="#666666">[timestamp with time zone]</text>
</g>
<!-- actor.passwd&#45;&gt;actor.passwd_type -->
<g id="edge1" class="edge">
<title>actor.passwd:passwd_type&#45;&gt;actor.passwd_type:code</title>
<path fill="none" stroke="#000000" d="M501.2116,-457.6924C455.4175,-430.2266 456.915,-210.5 509,-210.5"/>
<polygon fill="#000000" stroke="#000000" points="501.3876,-457.7428 509.7593,-464.8256 506.1938,-459.1214 511,-460.5 511,-460.5 511,-460.5 506.1938,-459.1214 512.2407,-456.1744 501.3876,-457.7428 501.3876,-457.7428"/>
<text text-anchor="start" x="7.086" y="-470.5" font-family="Arial" font-size="10.00" fill="#000000">FOREIGN KEY (passwd_type) REFERENCES actor.passwd_type(code) DEFERRABLE INITIALLY DEFERRED</text>
</g>
</g>
</svg>
