<?xml version="1.0" encoding="UTF-8" standalone="no"?>
<!DOCTYPE svg PUBLIC "-//W3C//DTD SVG 1.1//EN"
 "http://www.w3.org/Graphics/SVG/1.1/DTD/svg11.dtd">
<!-- Generated by graphviz version 2.40.1 (20161225.0304)
 -->
<!-- Title: actor.search_filter_group Pages: 1 -->
<svg width="1519pt" height="1109pt"
 viewBox="0.00 0.00 1519.00 1109.00" xmlns="http://www.w3.org/2000/svg" xmlns:xlink="http://www.w3.org/1999/xlink">
<g id="graph0" class="graph" transform="scale(1 1) rotate(0) translate(4 1105)">
<title>actor.search_filter_group</title>
<polygon fill="#ffffff" stroke="transparent" points="-4,4 -4,-1105 1515,-1105 1515,4 -4,4"/>
<!-- actor.search_filter_group -->
<g id="node1" class="node">
<title>actor.search_filter_group</title>
<polygon fill="#efefef" stroke="transparent" points="555,-742.5 555,-777.5 895,-777.5 895,-742.5 555,-742.5"/>
<polygon fill="none" stroke="#000000" points="555,-742.5 555,-777.5 895,-777.5 895,-742.5 555,-742.5"/>
<text text-anchor="start" x="561.6958" y="-755.3" font-family="Arial Bold" font-size="18.00" fill="#000000">actor.search_filter_group</text>
<text text-anchor="start" x="760.7362" y="-755.3" font-family="Arial" font-size="14.00" fill="#000000">    </text>
<text text-anchor="start" x="794.941" y="-755.3" font-family="Arial" font-size="14.00" fill="#666666">[BASE TABLE]</text>
<polygon fill="none" stroke="#000000" points="555,-712.5 555,-742.5 895,-742.5 895,-712.5 555,-712.5"/>
<text text-anchor="start" x="562" y="-723.9" font-family="Arial" font-size="14.00" fill="#000000">id </text>
<text text-anchor="start" x="576.7798" y="-723.9" font-family="Arial" font-size="14.00" fill="#666666">[integer]</text>
<polygon fill="none" stroke="#000000" points="555,-682.5 555,-712.5 895,-712.5 895,-682.5 555,-682.5"/>
<text text-anchor="start" x="562" y="-693.9" font-family="Arial" font-size="14.00" fill="#000000">owner </text>
<text text-anchor="start" x="604.0056" y="-693.9" font-family="Arial" font-size="14.00" fill="#666666">[integer]</text>
<polygon fill="none" stroke="#000000" points="555,-652.5 555,-682.5 895,-682.5 895,-652.5 555,-652.5"/>
<text text-anchor="start" x="562" y="-663.9" font-family="Arial" font-size="14.00" fill="#000000">code </text>
<text text-anchor="start" x="596.2384" y="-663.9" font-family="Arial" font-size="14.00" fill="#666666">[text]</text>
<polygon fill="none" stroke="#000000" points="555,-622.5 555,-652.5 895,-652.5 895,-622.5 555,-622.5"/>
<text text-anchor="start" x="562" y="-633.9" font-family="Arial" font-size="14.00" fill="#000000">label </text>
<text text-anchor="start" x="595.4516" y="-633.9" font-family="Arial" font-size="14.00" fill="#666666">[text]</text>
<polygon fill="none" stroke="#000000" points="555,-592.5 555,-622.5 895,-622.5 895,-592.5 555,-592.5"/>
<text text-anchor="start" x="562" y="-603.9" font-family="Arial" font-size="14.00" fill="#000000">create_date </text>
<text text-anchor="start" x="639.8106" y="-603.9" font-family="Arial" font-size="14.00" fill="#666666">[timestamp with time zone]</text>
<polygon fill="none" stroke="#000000" stroke-width="3" points="553.5,-591.5 553.5,-779.5 896.5,-779.5 896.5,-591.5 553.5,-591.5"/>
</g>
<!-- actor.org_unit -->
<g id="node3" class="node">
<title>actor.org_unit</title>
<polygon fill="#efefef" stroke="transparent" points="599,-432.5 599,-467.5 850,-467.5 850,-432.5 599,-432.5"/>
<polygon fill="none" stroke="#000000" points="599,-432.5 599,-467.5 850,-467.5 850,-432.5 599,-432.5"/>
<text text-anchor="start" x="605.7017" y="-445.3" font-family="Arial Bold" font-size="18.00" fill="#000000">actor.org_unit</text>
<text text-anchor="start" x="715.7303" y="-445.3" font-family="Arial" font-size="14.00" fill="#000000">    </text>
<text text-anchor="start" x="749.9351" y="-445.3" font-family="Arial" font-size="14.00" fill="#666666">[BASE TABLE]</text>
<polygon fill="none" stroke="#000000" points="599,-402.5 599,-432.5 850,-432.5 850,-402.5 599,-402.5"/>
<text text-anchor="start" x="606" y="-413.9" font-family="Arial" font-size="14.00" fill="#000000">id    </text>
<text text-anchor="start" x="651.094" y="-413.9" font-family="Arial" font-size="14.00" fill="#666666">[integer]</text>
<polygon fill="none" stroke="#000000" points="599,-372.5 599,-402.5 850,-402.5 850,-372.5 599,-372.5"/>
<text text-anchor="start" x="606" y="-383.9" font-family="Arial" font-size="14.00" fill="#000000">parent_ou    </text>
<text text-anchor="start" x="703.2342" y="-383.9" font-family="Arial" font-size="14.00" fill="#666666">[integer]</text>
<polygon fill="none" stroke="#000000" points="599,-342.5 599,-372.5 850,-372.5 850,-342.5 599,-342.5"/>
<text text-anchor="start" x="606" y="-353.9" font-family="Arial" font-size="14.00" fill="#000000">ou_type    </text>
<text text-anchor="start" x="690.0084" y="-353.9" font-family="Arial" font-size="14.00" fill="#666666">[integer]</text>
<polygon fill="none" stroke="#000000" points="599,-312.5 599,-342.5 850,-342.5 850,-312.5 599,-312.5"/>
<text text-anchor="start" x="606" y="-323.9" font-family="Arial" font-size="14.00" fill="#000000">ill_address    </text>
<text text-anchor="start" x="707.0982" y="-323.9" font-family="Arial" font-size="14.00" fill="#666666">[integer]</text>
<polygon fill="none" stroke="#000000" points="599,-282.5 599,-312.5 850,-312.5 850,-282.5 599,-282.5"/>
<text text-anchor="start" x="606" y="-293.9" font-family="Arial" font-size="14.00" fill="#000000">holds_address    </text>
<text text-anchor="start" x="731.2328" y="-293.9" font-family="Arial" font-size="14.00" fill="#666666">[integer]</text>
<polygon fill="none" stroke="#000000" points="599,-252.5 599,-282.5 850,-282.5 850,-252.5 599,-252.5"/>
<text text-anchor="start" x="606" y="-263.9" font-family="Arial" font-size="14.00" fill="#000000">mailing_address    </text>
<text text-anchor="start" x="742.1066" y="-263.9" font-family="Arial" font-size="14.00" fill="#666666">[integer]</text>
<polygon fill="none" stroke="#000000" points="599,-222.5 599,-252.5 850,-252.5 850,-222.5 599,-222.5"/>
<text text-anchor="start" x="606" y="-233.9" font-family="Arial" font-size="14.00" fill="#000000">billing_address    </text>
<text text-anchor="start" x="733.5526" y="-233.9" font-family="Arial" font-size="14.00" fill="#666666">[integer]</text>
<polygon fill="none" stroke="#000000" points="599,-192.5 599,-222.5 850,-222.5 850,-192.5 599,-192.5"/>
<text text-anchor="start" x="606" y="-203.9" font-family="Arial" font-size="14.00" fill="#000000">shortname    </text>
<text text-anchor="start" x="706.3296" y="-203.9" font-family="Arial" font-size="14.00" fill="#666666">[text]</text>
<polygon fill="none" stroke="#000000" points="599,-162.5 599,-192.5 850,-192.5 850,-162.5 599,-162.5"/>
<text text-anchor="start" x="606" y="-173.9" font-family="Arial" font-size="14.00" fill="#000000">name    </text>
<text text-anchor="start" x="675.2132" y="-173.9" font-family="Arial" font-size="14.00" fill="#666666">[text]</text>
<polygon fill="none" stroke="#000000" points="599,-132.5 599,-162.5 850,-162.5 850,-132.5 599,-132.5"/>
<text text-anchor="start" x="606" y="-143.9" font-family="Arial" font-size="14.00" fill="#000000">email    </text>
<text text-anchor="start" x="673.6438" y="-143.9" font-family="Arial" font-size="14.00" fill="#666666">[text]</text>
<polygon fill="none" stroke="#000000" points="599,-102.5 599,-132.5 850,-132.5 850,-102.5 599,-102.5"/>
<text text-anchor="start" x="606" y="-113.9" font-family="Arial" font-size="14.00" fill="#000000">phone    </text>
<text text-anchor="start" x="679.1178" y="-113.9" font-family="Arial" font-size="14.00" fill="#666666">[text]</text>
<polygon fill="none" stroke="#000000" points="599,-72.5 599,-102.5 850,-102.5 850,-72.5 599,-72.5"/>
<text text-anchor="start" x="606" y="-83.9" font-family="Arial" font-size="14.00" fill="#000000">opac_visible    </text>
<text text-anchor="start" x="717.2202" y="-83.9" font-family="Arial" font-size="14.00" fill="#666666">[boolean]</text>
<polygon fill="none" stroke="#000000" points="599,-42.5 599,-72.5 850,-72.5 850,-42.5 599,-42.5"/>
<text text-anchor="start" x="606" y="-53.9" font-family="Arial" font-size="14.00" fill="#000000">fiscal_calendar    </text>
<text text-anchor="start" x="733.554" y="-53.9" font-family="Arial" font-size="14.00" fill="#666666">[integer]</text>
</g>
<!-- actor.search_filter_group&#45;&gt;actor.org_unit -->
<g id="edge2" class="edge">
<title>actor.search_filter_group:owner&#45;&gt;actor.org_unit:id</title>
<path fill="none" stroke="#000000" d="M544.8174,-696.6237C490.6425,-686.6672 513.0844,-594.3416 555,-547 642.5579,-448.1075 762.4421,-609.8925 850,-511 877.5471,-479.8869 891.5556,-417.5 850,-417.5"/>
<polygon fill="#000000" stroke="#000000" points="545.0368,-696.6425 554.6141,-701.9834 550.0184,-697.0712 555,-697.5 555,-697.5 555,-697.5 550.0184,-697.0712 555.3859,-693.0166 545.0368,-696.6425 545.0368,-696.6425"/>
<text text-anchor="start" x="7.433" y="-707.5" font-family="Arial" font-size="10.00" fill="#000000">FOREIGN KEY (owner) REFERENCES actor.org_unit(id) ON DELETE CASCADE DEFERRABLE INITIALLY DEFERRED</text>
</g>
<!-- actor.search_filter_group_entry -->
<g id="node2" class="node">
<title>actor.search_filter_group_entry</title>
<polygon fill="#efefef" stroke="transparent" points="530,-1022.5 530,-1057.5 920,-1057.5 920,-1022.5 530,-1022.5"/>
<polygon fill="none" stroke="#000000" points="530,-1022.5 530,-1057.5 920,-1057.5 920,-1022.5 530,-1022.5"/>
<text text-anchor="start" x="536.6893" y="-1035.3" font-family="Arial Bold" font-size="18.00" fill="#000000">actor.search_filter_group_entry</text>
<text text-anchor="start" x="785.7427" y="-1035.3" font-family="Arial" font-size="14.00" fill="#000000">    </text>
<text text-anchor="start" x="819.9475" y="-1035.3" font-family="Arial" font-size="14.00" fill="#666666">[BASE TABLE]</text>
<polygon fill="none" stroke="#000000" points="530,-992.5 530,-1022.5 920,-1022.5 920,-992.5 530,-992.5"/>
<text text-anchor="start" x="537" y="-1003.9" font-family="Arial" font-size="14.00" fill="#000000">id    </text>
<text text-anchor="start" x="582.094" y="-1003.9" font-family="Arial" font-size="14.00" fill="#666666">[integer]</text>
<polygon fill="none" stroke="#000000" points="530,-962.5 530,-992.5 920,-992.5 920,-962.5 530,-962.5"/>
<text text-anchor="start" x="537" y="-973.9" font-family="Arial" font-size="14.00" fill="#000000">grp    </text>
<text text-anchor="start" x="591.4306" y="-973.9" font-family="Arial" font-size="14.00" fill="#666666">[integer]</text>
<polygon fill="none" stroke="#000000" points="530,-932.5 530,-962.5 920,-962.5 920,-932.5 530,-932.5"/>
<text text-anchor="start" x="537" y="-943.9" font-family="Arial" font-size="14.00" fill="#000000">pos    </text>
<text text-anchor="start" x="593.77" y="-943.9" font-family="Arial" font-size="14.00" fill="#666666">[integer]</text>
<polygon fill="none" stroke="#000000" points="530,-902.5 530,-932.5 920,-932.5 920,-902.5 530,-902.5"/>
<text text-anchor="start" x="537" y="-913.9" font-family="Arial" font-size="14.00" fill="#000000">query    </text>
<text text-anchor="start" x="606.2132" y="-913.9" font-family="Arial" font-size="14.00" fill="#666666">[integer]</text>
</g>
<!-- actor.search_filter_group_entry&#45;&gt;actor.search_filter_group -->
<g id="edge1" class="edge">
<title>actor.search_filter_group_entry:grp&#45;&gt;actor.search_filter_group:id</title>
<path fill="none" stroke="#000000" d="M930.0698,-976.7828C1030.0182,-962.1191 1003.1757,-727.5 895,-727.5"/>
<polygon fill="#000000" stroke="#000000" points="929.9747,-976.7895 919.6803,-973.0114 924.9874,-977.1448 920,-977.5 920,-977.5 920,-977.5 924.9874,-977.1448 920.3197,-981.9886 929.9747,-976.7895 929.9747,-976.7895"/>
<text text-anchor="start" x="927.0965" y="-987.5" font-family="Arial" font-size="10.00" fill="#000000">FOREIGN KEY (grp) REFERENCES actor.search_filter_group(id) ON DELETE CASCADE DEFERRABLE INITIALLY DEFERRED</text>
</g>
</g>
</svg>
