<?xml version="1.0" encoding="UTF-8" standalone="no"?>
<!DOCTYPE svg PUBLIC "-//W3C//DTD SVG 1.1//EN"
 "http://www.w3.org/Graphics/SVG/1.1/DTD/svg11.dtd">
<!-- Generated by graphviz version 2.40.1 (20161225.0304)
 -->
<!-- Title: actor.usr_address Pages: 1 -->
<svg width="1228pt" height="2734pt"
 viewBox="0.00 0.00 1228.00 2734.00" xmlns="http://www.w3.org/2000/svg" xmlns:xlink="http://www.w3.org/1999/xlink">
<g id="graph0" class="graph" transform="scale(1 1) rotate(0) translate(4 2730)">
<title>actor.usr_address</title>
<polygon fill="#ffffff" stroke="transparent" points="-4,4 -4,-2730 1224,-2730 1224,4 -4,4"/>
<!-- actor.usr_address -->
<g id="node1" class="node">
<title>actor.usr_address</title>
<polygon fill="#efefef" stroke="transparent" points="526,-2092.5 526,-2127.5 811,-2127.5 811,-2092.5 526,-2092.5"/>
<polygon fill="none" stroke="#000000" points="526,-2092.5 526,-2127.5 811,-2127.5 811,-2092.5 526,-2092.5"/>
<text text-anchor="start" x="532.7007" y="-2105.3" font-family="Arial Bold" font-size="18.00" fill="#000000">actor.usr_address</text>
<text text-anchor="start" x="676.7313" y="-2105.3" font-family="Arial" font-size="14.00" fill="#000000">    </text>
<text text-anchor="start" x="710.9361" y="-2105.3" font-family="Arial" font-size="14.00" fill="#666666">[BASE TABLE]</text>
<polygon fill="none" stroke="#000000" points="526,-2062.5 526,-2092.5 811,-2092.5 811,-2062.5 526,-2062.5"/>
<text text-anchor="start" x="533" y="-2073.9" font-family="Arial" font-size="14.00" fill="#000000">id </text>
<text text-anchor="start" x="547.7798" y="-2073.9" font-family="Arial" font-size="14.00" fill="#666666">[integer]</text>
<polygon fill="none" stroke="#000000" points="526,-2032.5 526,-2062.5 811,-2062.5 811,-2032.5 526,-2032.5"/>
<text text-anchor="start" x="533" y="-2043.9" font-family="Arial" font-size="14.00" fill="#000000">valid </text>
<text text-anchor="start" x="565.669" y="-2043.9" font-family="Arial" font-size="14.00" fill="#666666">[boolean]</text>
<polygon fill="none" stroke="#000000" points="526,-2002.5 526,-2032.5 811,-2032.5 811,-2002.5 526,-2002.5"/>
<text text-anchor="start" x="533" y="-2013.9" font-family="Arial" font-size="14.00" fill="#000000">within_city_limits </text>
<text text-anchor="start" x="641.0996" y="-2013.9" font-family="Arial" font-size="14.00" fill="#666666">[boolean]</text>
<polygon fill="none" stroke="#000000" points="526,-1972.5 526,-2002.5 811,-2002.5 811,-1972.5 526,-1972.5"/>
<text text-anchor="start" x="533" y="-1983.9" font-family="Arial" font-size="14.00" fill="#000000">address_type </text>
<text text-anchor="start" x="620.92" y="-1983.9" font-family="Arial" font-size="14.00" fill="#666666">[text]</text>
<polygon fill="none" stroke="#000000" points="526,-1942.5 526,-1972.5 811,-1972.5 811,-1942.5 526,-1942.5"/>
<text text-anchor="start" x="533" y="-1953.9" font-family="Arial" font-size="14.00" fill="#000000">usr </text>
<text text-anchor="start" x="556.3338" y="-1953.9" font-family="Arial" font-size="14.00" fill="#666666">[integer]</text>
<polygon fill="none" stroke="#000000" points="526,-1912.5 526,-1942.5 811,-1942.5 811,-1912.5 526,-1912.5"/>
<text text-anchor="start" x="533" y="-1923.9" font-family="Arial" font-size="14.00" fill="#000000">street1 </text>
<text text-anchor="start" x="579.6802" y="-1923.9" font-family="Arial" font-size="14.00" fill="#666666">[text]</text>
<polygon fill="none" stroke="#000000" points="526,-1882.5 526,-1912.5 811,-1912.5 811,-1882.5 526,-1882.5"/>
<text text-anchor="start" x="533" y="-1893.9" font-family="Arial" font-size="14.00" fill="#000000">street2 </text>
<text text-anchor="start" x="579.6802" y="-1893.9" font-family="Arial" font-size="14.00" fill="#666666">[text]</text>
<polygon fill="none" stroke="#000000" points="526,-1852.5 526,-1882.5 811,-1882.5 811,-1852.5 526,-1852.5"/>
<text text-anchor="start" x="533" y="-1863.9" font-family="Arial" font-size="14.00" fill="#000000">city </text>
<text text-anchor="start" x="557.8878" y="-1863.9" font-family="Arial" font-size="14.00" fill="#666666">[text]</text>
<polygon fill="none" stroke="#000000" points="526,-1822.5 526,-1852.5 811,-1852.5 811,-1822.5 526,-1822.5"/>
<text text-anchor="start" x="533" y="-1833.9" font-family="Arial" font-size="14.00" fill="#000000">county </text>
<text text-anchor="start" x="578.129" y="-1833.9" font-family="Arial" font-size="14.00" fill="#666666">[text]</text>
<polygon fill="none" stroke="#000000" points="526,-1792.5 526,-1822.5 811,-1822.5 811,-1792.5 526,-1792.5"/>
<text text-anchor="start" x="533" y="-1803.9" font-family="Arial" font-size="14.00" fill="#000000">state </text>
<text text-anchor="start" x="567.237" y="-1803.9" font-family="Arial" font-size="14.00" fill="#666666">[text]</text>
<polygon fill="none" stroke="#000000" points="526,-1762.5 526,-1792.5 811,-1792.5 811,-1762.5 526,-1762.5"/>
<text text-anchor="start" x="533" y="-1773.9" font-family="Arial" font-size="14.00" fill="#000000">country </text>
<text text-anchor="start" x="582.7896" y="-1773.9" font-family="Arial" font-size="14.00" fill="#666666">[text]</text>
<polygon fill="none" stroke="#000000" points="526,-1732.5 526,-1762.5 811,-1762.5 811,-1732.5 526,-1732.5"/>
<text text-anchor="start" x="533" y="-1743.9" font-family="Arial" font-size="14.00" fill="#000000">post_code </text>
<text text-anchor="start" x="601.4768" y="-1743.9" font-family="Arial" font-size="14.00" fill="#666666">[text]</text>
<polygon fill="none" stroke="#000000" points="526,-1702.5 526,-1732.5 811,-1732.5 811,-1702.5 526,-1702.5"/>
<text text-anchor="start" x="533" y="-1713.9" font-family="Arial" font-size="14.00" fill="#000000">pending </text>
<text text-anchor="start" x="586.6928" y="-1713.9" font-family="Arial" font-size="14.00" fill="#666666">[boolean]</text>
<polygon fill="none" stroke="#000000" points="526,-1672.5 526,-1702.5 811,-1702.5 811,-1672.5 526,-1672.5"/>
<text text-anchor="start" x="533" y="-1683.9" font-family="Arial" font-size="14.00" fill="#000000">replaces </text>
<text text-anchor="start" x="589.7882" y="-1683.9" font-family="Arial" font-size="14.00" fill="#666666">[integer]</text>
<polygon fill="none" stroke="#000000" stroke-width="3" points="524,-1671.5 524,-2129.5 812,-2129.5 812,-1671.5 524,-1671.5"/>
</g>
<!-- actor.usr_address&#45;&gt;actor.usr_address -->
<g id="edge3" class="edge">
<title>actor.usr_address:replaces&#45;&gt;actor.usr_address:id</title>
<path fill="none" stroke="#000000" d="M669.7749,-1713.1613C677.9921,-2007.1479 677.7338,-2726 669,-2726 660.1626,-2726 660.0029,-2366.0344 668.521,-2092.5072"/>
<polygon fill="#000000" stroke="#000000" points="669.7669,-1712.8803 673.9771,-1702.7549 669.6229,-1707.8824 669.479,-1702.8844 669.479,-1702.8844 669.479,-1702.8844 669.6229,-1707.8824 664.9808,-1703.014 669.7669,-1712.8803 669.7669,-1712.8803"/>
<text text-anchor="start" x="676.4685" y="-1712.8844" font-family="Arial" font-size="10.00" fill="#000000">FOREIGN KEY (replaces) REFERENCES actor.usr_address(id) DEFERRABLE INITIALLY DEFERRED</text>
</g>
<!-- actor.usr -->
<g id="node2" class="node">
<title>actor.usr</title>
<polygon fill="#efefef" stroke="transparent" points="509,-1512.5 509,-1547.5 829,-1547.5 829,-1512.5 509,-1512.5"/>
<polygon fill="none" stroke="#000000" points="509,-1512.5 509,-1547.5 829,-1547.5 829,-1512.5 509,-1512.5"/>
<text text-anchor="start" x="570.2123" y="-1525.3" font-family="Arial Bold" font-size="18.00" fill="#000000">actor.usr</text>
<text text-anchor="start" x="640.2197" y="-1525.3" font-family="Arial" font-size="14.00" fill="#000000">    </text>
<text text-anchor="start" x="674.4245" y="-1525.3" font-family="Arial" font-size="14.00" fill="#666666">[BASE TABLE]</text>
<polygon fill="none" stroke="#000000" points="509,-1482.5 509,-1512.5 829,-1512.5 829,-1482.5 509,-1482.5"/>
<text text-anchor="start" x="516" y="-1493.9" font-family="Arial" font-size="14.00" fill="#000000">id    </text>
<text text-anchor="start" x="561.094" y="-1493.9" font-family="Arial" font-size="14.00" fill="#666666">[integer]</text>
<polygon fill="none" stroke="#000000" points="509,-1452.5 509,-1482.5 829,-1482.5 829,-1452.5 509,-1452.5"/>
<text text-anchor="start" x="516" y="-1463.9" font-family="Arial" font-size="14.00" fill="#000000">card    </text>
<text text-anchor="start" x="577.4306" y="-1463.9" font-family="Arial" font-size="14.00" fill="#666666">[integer]</text>
<polygon fill="none" stroke="#000000" points="509,-1422.5 509,-1452.5 829,-1452.5 829,-1422.5 509,-1422.5"/>
<text text-anchor="start" x="516" y="-1433.9" font-family="Arial" font-size="14.00" fill="#000000">profile    </text>
<text text-anchor="start" x="588.317" y="-1433.9" font-family="Arial" font-size="14.00" fill="#666666">[integer]</text>
<polygon fill="none" stroke="#000000" points="509,-1392.5 509,-1422.5 829,-1422.5 829,-1392.5 509,-1392.5"/>
<text text-anchor="start" x="516" y="-1403.9" font-family="Arial" font-size="14.00" fill="#000000">usrname    </text>
<text text-anchor="start" x="604.6564" y="-1403.9" font-family="Arial" font-size="14.00" fill="#666666">[text]</text>
<polygon fill="none" stroke="#000000" points="509,-1362.5 509,-1392.5 829,-1392.5 829,-1362.5 509,-1362.5"/>
<text text-anchor="start" x="516" y="-1373.9" font-family="Arial" font-size="14.00" fill="#000000">email    </text>
<text text-anchor="start" x="583.6438" y="-1373.9" font-family="Arial" font-size="14.00" fill="#666666">[text]</text>
<polygon fill="none" stroke="#000000" points="509,-1332.5 509,-1362.5 829,-1362.5 829,-1332.5 509,-1332.5"/>
<text text-anchor="start" x="516" y="-1343.9" font-family="Arial" font-size="14.00" fill="#000000">passwd    </text>
<text text-anchor="start" x="597.6592" y="-1343.9" font-family="Arial" font-size="14.00" fill="#666666">[text]</text>
<polygon fill="none" stroke="#000000" points="509,-1302.5 509,-1332.5 829,-1332.5 829,-1302.5 509,-1302.5"/>
<text text-anchor="start" x="516" y="-1313.9" font-family="Arial" font-size="14.00" fill="#000000">standing    </text>
<text text-anchor="start" x="603.115" y="-1313.9" font-family="Arial" font-size="14.00" fill="#666666">[integer]</text>
<polygon fill="none" stroke="#000000" points="509,-1272.5 509,-1302.5 829,-1302.5 829,-1272.5 509,-1272.5"/>
<text text-anchor="start" x="516" y="-1283.9" font-family="Arial" font-size="14.00" fill="#000000">ident_type    </text>
<text text-anchor="start" x="614.7882" y="-1283.9" font-family="Arial" font-size="14.00" fill="#666666">[integer]</text>
<polygon fill="none" stroke="#000000" points="509,-1242.5 509,-1272.5 829,-1272.5 829,-1242.5 509,-1242.5"/>
<text text-anchor="start" x="516" y="-1253.9" font-family="Arial" font-size="14.00" fill="#000000">ident_value    </text>
<text text-anchor="start" x="621.7868" y="-1253.9" font-family="Arial" font-size="14.00" fill="#666666">[text]</text>
<polygon fill="none" stroke="#000000" points="509,-1212.5 509,-1242.5 829,-1242.5 829,-1212.5 509,-1212.5"/>
<text text-anchor="start" x="516" y="-1223.9" font-family="Arial" font-size="14.00" fill="#000000">ident_type2    </text>
<text text-anchor="start" x="622.5708" y="-1223.9" font-family="Arial" font-size="14.00" fill="#666666">[integer]</text>
<polygon fill="none" stroke="#000000" points="509,-1182.5 509,-1212.5 829,-1212.5 829,-1182.5 509,-1182.5"/>
<text text-anchor="start" x="516" y="-1193.9" font-family="Arial" font-size="14.00" fill="#000000">ident_value2    </text>
<text text-anchor="start" x="629.5694" y="-1193.9" font-family="Arial" font-size="14.00" fill="#666666">[text]</text>
<polygon fill="none" stroke="#000000" points="509,-1152.5 509,-1182.5 829,-1182.5 829,-1152.5 509,-1152.5"/>
<text text-anchor="start" x="516" y="-1163.9" font-family="Arial" font-size="14.00" fill="#000000">net_access_level    </text>
<text text-anchor="start" x="657.5694" y="-1163.9" font-family="Arial" font-size="14.00" fill="#666666">[integer]</text>
<polygon fill="none" stroke="#000000" points="509,-1122.5 509,-1152.5 829,-1152.5 829,-1122.5 509,-1122.5"/>
<text text-anchor="start" x="516" y="-1133.9" font-family="Arial" font-size="14.00" fill="#000000">photo_url    </text>
<text text-anchor="start" x="608.5582" y="-1133.9" font-family="Arial" font-size="14.00" fill="#666666">[text]</text>
<polygon fill="none" stroke="#000000" points="509,-1092.5 509,-1122.5 829,-1122.5 829,-1092.5 509,-1092.5"/>
<text text-anchor="start" x="516" y="-1103.9" font-family="Arial" font-size="14.00" fill="#000000">prefix    </text>
<text text-anchor="start" x="584.4278" y="-1103.9" font-family="Arial" font-size="14.00" fill="#666666">[text]</text>
<polygon fill="none" stroke="#000000" points="509,-1062.5 509,-1092.5 829,-1092.5 829,-1062.5 509,-1062.5"/>
<text text-anchor="start" x="516" y="-1073.9" font-family="Arial" font-size="14.00" fill="#000000">first_given_name    </text>
<text text-anchor="start" x="656.7812" y="-1073.9" font-family="Arial" font-size="14.00" fill="#666666">[text]</text>
<polygon fill="none" stroke="#000000" points="509,-1032.5 509,-1062.5 829,-1062.5 829,-1032.5 509,-1032.5"/>
<text text-anchor="start" x="516" y="-1043.9" font-family="Arial" font-size="14.00" fill="#000000">second_given_name    </text>
<text text-anchor="start" x="679.3632" y="-1043.9" font-family="Arial" font-size="14.00" fill="#666666">[text]</text>
<polygon fill="none" stroke="#000000" points="509,-1002.5 509,-1032.5 829,-1032.5 829,-1002.5 509,-1002.5"/>
<text text-anchor="start" x="516" y="-1013.9" font-family="Arial" font-size="14.00" fill="#000000">family_name    </text>
<text text-anchor="start" x="629.5428" y="-1013.9" font-family="Arial" font-size="14.00" fill="#666666">[text]</text>
<polygon fill="none" stroke="#000000" points="509,-972.5 509,-1002.5 829,-1002.5 829,-972.5 509,-972.5"/>
<text text-anchor="start" x="516" y="-983.9" font-family="Arial" font-size="14.00" fill="#000000">suffix    </text>
<text text-anchor="start" x="582.8752" y="-983.9" font-family="Arial" font-size="14.00" fill="#666666">[text]</text>
<polygon fill="none" stroke="#000000" points="509,-942.5 509,-972.5 829,-972.5 829,-942.5 509,-942.5"/>
<text text-anchor="start" x="516" y="-953.9" font-family="Arial" font-size="14.00" fill="#000000">alias    </text>
<text text-anchor="start" x="578.9832" y="-953.9" font-family="Arial" font-size="14.00" fill="#666666">[text]</text>
<polygon fill="none" stroke="#000000" points="509,-912.5 509,-942.5 829,-942.5 829,-912.5 509,-912.5"/>
<text text-anchor="start" x="516" y="-923.9" font-family="Arial" font-size="14.00" fill="#000000">day_phone    </text>
<text text-anchor="start" x="619.4656" y="-923.9" font-family="Arial" font-size="14.00" fill="#666666">[text]</text>
<polygon fill="none" stroke="#000000" points="509,-882.5 509,-912.5 829,-912.5 829,-882.5 509,-882.5"/>
<text text-anchor="start" x="516" y="-893.9" font-family="Arial" font-size="14.00" fill="#000000">evening_phone    </text>
<text text-anchor="start" x="645.92" y="-893.9" font-family="Arial" font-size="14.00" fill="#666666">[text]</text>
<polygon fill="none" stroke="#000000" points="509,-852.5 509,-882.5 829,-882.5 829,-852.5 509,-852.5"/>
<text text-anchor="start" x="516" y="-863.9" font-family="Arial" font-size="14.00" fill="#000000">other_phone    </text>
<text text-anchor="start" x="628.7994" y="-863.9" font-family="Arial" font-size="14.00" fill="#666666">[text]</text>
<polygon fill="none" stroke="#000000" points="509,-822.5 509,-852.5 829,-852.5 829,-822.5 509,-822.5"/>
<text text-anchor="start" x="516" y="-833.9" font-family="Arial" font-size="14.00" fill="#000000">mailing_address    </text>
<text text-anchor="start" x="652.1066" y="-833.9" font-family="Arial" font-size="14.00" fill="#666666">[integer]</text>
<polygon fill="none" stroke="#000000" points="509,-792.5 509,-822.5 829,-822.5 829,-792.5 509,-792.5"/>
<text text-anchor="start" x="516" y="-803.9" font-family="Arial" font-size="14.00" fill="#000000">billing_address    </text>
<text text-anchor="start" x="643.5526" y="-803.9" font-family="Arial" font-size="14.00" fill="#666666">[integer]</text>
<polygon fill="none" stroke="#000000" points="509,-762.5 509,-792.5 829,-792.5 829,-762.5 509,-762.5"/>
<text text-anchor="start" x="516" y="-773.9" font-family="Arial" font-size="14.00" fill="#000000">home_ou    </text>
<text text-anchor="start" x="608.561" y="-773.9" font-family="Arial" font-size="14.00" fill="#666666">[integer]</text>
<polygon fill="none" stroke="#000000" points="509,-732.5 509,-762.5 829,-762.5 829,-732.5 509,-732.5"/>
<text text-anchor="start" x="516" y="-743.9" font-family="Arial" font-size="14.00" fill="#000000">dob    </text>
<text text-anchor="start" x="573.5526" y="-743.9" font-family="Arial" font-size="14.00" fill="#666666">[date]</text>
<polygon fill="none" stroke="#000000" points="509,-702.5 509,-732.5 829,-732.5 829,-702.5 509,-702.5"/>
<text text-anchor="start" x="516" y="-713.9" font-family="Arial" font-size="14.00" fill="#000000">active    </text>
<text text-anchor="start" x="586.7672" y="-713.9" font-family="Arial" font-size="14.00" fill="#666666">[boolean]</text>
<polygon fill="none" stroke="#000000" points="509,-672.5 509,-702.5 829,-702.5 829,-672.5 509,-672.5"/>
<text text-anchor="start" x="516" y="-683.9" font-family="Arial" font-size="14.00" fill="#000000">master_account    </text>
<text text-anchor="start" x="649.7854" y="-683.9" font-family="Arial" font-size="14.00" fill="#666666">[boolean]</text>
<polygon fill="none" stroke="#000000" points="509,-642.5 509,-672.5 829,-672.5 829,-642.5 509,-642.5"/>
<text text-anchor="start" x="516" y="-653.9" font-family="Arial" font-size="14.00" fill="#000000">super_user    </text>
<text text-anchor="start" x="620.2216" y="-653.9" font-family="Arial" font-size="14.00" fill="#666666">[boolean]</text>
<polygon fill="none" stroke="#000000" points="509,-612.5 509,-642.5 829,-642.5 829,-612.5 509,-612.5"/>
<text text-anchor="start" x="516" y="-623.9" font-family="Arial" font-size="14.00" fill="#000000">barred    </text>
<text text-anchor="start" x="590.6564" y="-623.9" font-family="Arial" font-size="14.00" fill="#666666">[boolean]</text>
<polygon fill="none" stroke="#000000" points="509,-582.5 509,-612.5 829,-612.5 829,-582.5 509,-582.5"/>
<text text-anchor="start" x="516" y="-593.9" font-family="Arial" font-size="14.00" fill="#000000">deleted    </text>
<text text-anchor="start" x="596.115" y="-593.9" font-family="Arial" font-size="14.00" fill="#666666">[boolean]</text>
<polygon fill="none" stroke="#000000" points="509,-552.5 509,-582.5 829,-582.5 829,-552.5 509,-552.5"/>
<text text-anchor="start" x="516" y="-563.9" font-family="Arial" font-size="14.00" fill="#000000">juvenile    </text>
<text text-anchor="start" x="597.655" y="-563.9" font-family="Arial" font-size="14.00" fill="#666666">[boolean]</text>
<polygon fill="none" stroke="#000000" points="509,-522.5 509,-552.5 829,-552.5 829,-522.5 509,-522.5"/>
<text text-anchor="start" x="516" y="-533.9" font-family="Arial" font-size="14.00" fill="#000000">usrgroup    </text>
<text text-anchor="start" x="605.439" y="-533.9" font-family="Arial" font-size="14.00" fill="#666666">[integer]</text>
<polygon fill="none" stroke="#000000" points="509,-492.5 509,-522.5 829,-522.5 829,-492.5 509,-492.5"/>
<text text-anchor="start" x="516" y="-503.9" font-family="Arial" font-size="14.00" fill="#000000">claims_returned_count    </text>
<text text-anchor="start" x="691.7896" y="-503.9" font-family="Arial" font-size="14.00" fill="#666666">[integer]</text>
<polygon fill="none" stroke="#000000" points="509,-462.5 509,-492.5 829,-492.5 829,-462.5 509,-462.5"/>
<text text-anchor="start" x="516" y="-473.9" font-family="Arial" font-size="14.00" fill="#000000">credit_forward_balance    </text>
<text text-anchor="start" x="695.6788" y="-473.9" font-family="Arial" font-size="14.00" fill="#666666">[numeric(6,2)]</text>
<polygon fill="none" stroke="#000000" points="509,-432.5 509,-462.5 829,-462.5 829,-432.5 509,-432.5"/>
<text text-anchor="start" x="516" y="-443.9" font-family="Arial" font-size="14.00" fill="#000000">last_xact_id    </text>
<text text-anchor="start" x="624.1122" y="-443.9" font-family="Arial" font-size="14.00" fill="#666666">[text]</text>
<polygon fill="none" stroke="#000000" points="509,-402.5 509,-432.5 829,-432.5 829,-402.5 509,-402.5"/>
<text text-anchor="start" x="516" y="-413.9" font-family="Arial" font-size="14.00" fill="#000000">alert_message    </text>
<text text-anchor="start" x="642.0014" y="-413.9" font-family="Arial" font-size="14.00" fill="#666666">[text]</text>
<polygon fill="none" stroke="#000000" points="509,-372.5 509,-402.5 829,-402.5 829,-372.5 509,-372.5"/>
<text text-anchor="start" x="516" y="-383.9" font-family="Arial" font-size="14.00" fill="#000000">create_date    </text>
<text text-anchor="start" x="624.1248" y="-383.9" font-family="Arial" font-size="14.00" fill="#666666">[timestamp with time zone]</text>
<polygon fill="none" stroke="#000000" points="509,-342.5 509,-372.5 829,-372.5 829,-342.5 509,-342.5"/>
<text text-anchor="start" x="516" y="-353.9" font-family="Arial" font-size="14.00" fill="#000000">expire_date    </text>
<text text-anchor="start" x="623.3408" y="-353.9" font-family="Arial" font-size="14.00" fill="#666666">[timestamp with time zone]</text>
<polygon fill="none" stroke="#000000" points="509,-312.5 509,-342.5 829,-342.5 829,-312.5 509,-312.5"/>
<text text-anchor="start" x="516" y="-323.9" font-family="Arial" font-size="14.00" fill="#000000">claims_never_checked_out_count    </text>
<text text-anchor="start" x="761.8246" y="-323.9" font-family="Arial" font-size="14.00" fill="#666666">[integer]</text>
<polygon fill="none" stroke="#000000" points="509,-282.5 509,-312.5 829,-312.5 829,-282.5 509,-282.5"/>
<text text-anchor="start" x="515.7609" y="-293.9" font-family="Arial" font-size="14.00" fill="#000000">last_update_time    </text>
<text text-anchor="start" x="656.5547" y="-293.9" font-family="Arial" font-size="14.00" fill="#666666">[timestamp with time zone]</text>
<polygon fill="none" stroke="#000000" points="509,-252.5 509,-282.5 829,-282.5 829,-252.5 509,-252.5"/>
<text text-anchor="start" x="516" y="-263.9" font-family="Arial" font-size="14.00" fill="#000000">pref_prefix    </text>
<text text-anchor="start" x="616.3268" y="-263.9" font-family="Arial" font-size="14.00" fill="#666666">[text]</text>
<polygon fill="none" stroke="#000000" points="509,-222.5 509,-252.5 829,-252.5 829,-222.5 509,-222.5"/>
<text text-anchor="start" x="516" y="-233.9" font-family="Arial" font-size="14.00" fill="#000000">pref_first_given_name    </text>
<text text-anchor="start" x="688.6802" y="-233.9" font-family="Arial" font-size="14.00" fill="#666666">[text]</text>
<polygon fill="none" stroke="#000000" points="509,-192.5 509,-222.5 829,-222.5 829,-192.5 509,-192.5"/>
<text text-anchor="start" x="516" y="-203.9" font-family="Arial" font-size="14.00" fill="#000000">pref_second_given_name    </text>
<text text-anchor="start" x="711.2622" y="-203.9" font-family="Arial" font-size="14.00" fill="#666666">[text]</text>
<polygon fill="none" stroke="#000000" points="509,-162.5 509,-192.5 829,-192.5 829,-162.5 509,-162.5"/>
<text text-anchor="start" x="516" y="-173.9" font-family="Arial" font-size="14.00" fill="#000000">pref_family_name    </text>
<text text-anchor="start" x="661.4418" y="-173.9" font-family="Arial" font-size="14.00" fill="#666666">[text]</text>
<polygon fill="none" stroke="#000000" points="509,-132.5 509,-162.5 829,-162.5 829,-132.5 509,-132.5"/>
<text text-anchor="start" x="516" y="-143.9" font-family="Arial" font-size="14.00" fill="#000000">pref_suffix    </text>
<text text-anchor="start" x="614.7742" y="-143.9" font-family="Arial" font-size="14.00" fill="#666666">[text]</text>
<polygon fill="none" stroke="#000000" points="509,-102.5 509,-132.5 829,-132.5 829,-102.5 509,-102.5"/>
<text text-anchor="start" x="516" y="-113.9" font-family="Arial" font-size="14.00" fill="#000000">name_keywords    </text>
<text text-anchor="start" x="652.1108" y="-113.9" font-family="Arial" font-size="14.00" fill="#666666">[text]</text>
<polygon fill="none" stroke="#000000" points="509,-72.5 509,-102.5 829,-102.5 829,-72.5 509,-72.5"/>
<text text-anchor="start" x="516" y="-83.9" font-family="Arial" font-size="14.00" fill="#000000">name_kw_tsvector    </text>
<text text-anchor="start" x="666.892" y="-83.9" font-family="Arial" font-size="14.00" fill="#666666">[tsvector]</text>
<polygon fill="none" stroke="#000000" points="509,-42.5 509,-72.5 829,-72.5 829,-42.5 509,-42.5"/>
<text text-anchor="start" x="516" y="-53.9" font-family="Arial" font-size="14.00" fill="#000000">guardian    </text>
<text text-anchor="start" x="604.6676" y="-53.9" font-family="Arial" font-size="14.00" fill="#666666">[text]</text>
</g>
<!-- actor.usr_address&#45;&gt;actor.usr -->
<g id="edge4" class="edge">
<title>actor.usr_address:usr&#45;&gt;actor.usr:id</title>
<path fill="none" stroke="#000000" d="M821.0652,-1955.5867C881.9767,-1931.1141 857.3817,-1679.239 811,-1627 721.2536,-1525.9199 598.7464,-1692.0801 509,-1591 481.4096,-1559.9253 467.4444,-1497.5 509,-1497.5"/>
<polygon fill="#000000" stroke="#000000" points="820.8241,-1955.6324 810.1596,-1953.0792 815.912,-1956.5662 811,-1957.5 811,-1957.5 811,-1957.5 815.912,-1956.5662 811.8404,-1961.9208 820.8241,-1955.6324 820.8241,-1955.6324"/>
<text text-anchor="start" x="818.4995" y="-1967.5" font-family="Arial" font-size="10.00" fill="#000000">FOREIGN KEY (usr) REFERENCES actor.usr(id) DEFERRABLE INITIALLY DEFERRED</text>
</g>
<!-- actor.usr&#45;&gt;actor.usr_address -->
<g id="edge1" class="edge">
<title>actor.usr:billing_address&#45;&gt;actor.usr_address:id</title>
<path fill="none" stroke="#000000" d="M499.3254,-810.7068C424.2736,-862.6282 453.4581,-1528.444 509,-1591 598.7464,-1692.0801 721.2536,-1525.9199 811,-1627 877.4678,-1701.8617 911.1111,-2077.5 811,-2077.5"/>
<polygon fill="#000000" stroke="#000000" points="499.5079,-810.6464 510.4159,-811.7715 504.2539,-809.0732 509,-807.5 509,-807.5 509,-807.5 504.2539,-809.0732 507.5841,-803.2285 499.5079,-810.6464 499.5079,-810.6464"/>
<text text-anchor="start" x="13.543" y="-817.5" font-family="Arial" font-size="10.00" fill="#000000">FOREIGN KEY (billing_address) REFERENCES actor.usr_address(id) DEFERRABLE INITIALLY DEFERRED</text>
</g>
<!-- actor.usr&#45;&gt;actor.usr_address -->
<g id="edge2" class="edge">
<title>actor.usr:mailing_address&#45;&gt;actor.usr_address:id</title>
<path fill="none" stroke="#000000" d="M499.2569,-840.8958C427.632,-893.1179 455.6934,-1530.9615 509,-1591 598.7464,-1692.0801 721.2536,-1525.9199 811,-1627 877.4678,-1701.8617 911.1111,-2077.5 811,-2077.5"/>
<polygon fill="#000000" stroke="#000000" points="499.5571,-840.7913 510.4811,-841.7493 504.2786,-839.1456 509,-837.5 509,-837.5 509,-837.5 504.2786,-839.1456 507.5189,-833.2507 499.5571,-840.7913 499.5571,-840.7913"/>
<text text-anchor="start" x="7.488" y="-847.5" font-family="Arial" font-size="10.00" fill="#000000">FOREIGN KEY (mailing_address) REFERENCES actor.usr_address(id) DEFERRABLE INITIALLY DEFERRED</text>
</g>
</g>
</svg>
