<?xml version="1.0" encoding="UTF-8" standalone="no"?>
<!DOCTYPE svg PUBLIC "-//W3C//DTD SVG 1.1//EN"
 "http://www.w3.org/Graphics/SVG/1.1/DTD/svg11.dtd">
<!-- Generated by graphviz version 2.40.1 (20161225.0304)
 -->
<!-- Title: actor.search_filter_group_entry Pages: 1 -->
<svg width="1566pt" height="562pt"
 viewBox="0.00 0.00 1566.00 562.00" xmlns="http://www.w3.org/2000/svg" xmlns:xlink="http://www.w3.org/1999/xlink">
<g id="graph0" class="graph" transform="scale(1 1) rotate(0) translate(4 558)">
<title>actor.search_filter_group_entry</title>
<polygon fill="#ffffff" stroke="transparent" points="-4,4 -4,-558 1562,-558 1562,4 -4,4"/>
<!-- actor.search_filter_group_entry -->
<g id="node1" class="node">
<title>actor.search_filter_group_entry</title>
<polygon fill="#efefef" stroke="transparent" points="591,-472.5 591,-507.5 981,-507.5 981,-472.5 591,-472.5"/>
<polygon fill="none" stroke="#000000" points="591,-472.5 591,-507.5 981,-507.5 981,-472.5 591,-472.5"/>
<text text-anchor="start" x="597.6893" y="-485.3" font-family="Arial Bold" font-size="18.00" fill="#000000">actor.search_filter_group_entry</text>
<text text-anchor="start" x="846.7427" y="-485.3" font-family="Arial" font-size="14.00" fill="#000000">    </text>
<text text-anchor="start" x="880.9475" y="-485.3" font-family="Arial" font-size="14.00" fill="#666666">[BASE TABLE]</text>
<polygon fill="none" stroke="#000000" points="591,-442.5 591,-472.5 981,-472.5 981,-442.5 591,-442.5"/>
<text text-anchor="start" x="598" y="-453.9" font-family="Arial" font-size="14.00" fill="#000000">id </text>
<text text-anchor="start" x="612.7798" y="-453.9" font-family="Arial" font-size="14.00" fill="#666666">[integer]</text>
<polygon fill="none" stroke="#000000" points="591,-412.5 591,-442.5 981,-442.5 981,-412.5 591,-412.5"/>
<text text-anchor="start" x="598" y="-423.9" font-family="Arial" font-size="14.00" fill="#000000">grp </text>
<text text-anchor="start" x="622.1164" y="-423.9" font-family="Arial" font-size="14.00" fill="#666666">[integer]</text>
<polygon fill="none" stroke="#000000" points="591,-382.5 591,-412.5 981,-412.5 981,-382.5 591,-382.5"/>
<text text-anchor="start" x="598" y="-393.9" font-family="Arial" font-size="14.00" fill="#000000">pos </text>
<text text-anchor="start" x="624.4558" y="-393.9" font-family="Arial" font-size="14.00" fill="#666666">[integer]</text>
<polygon fill="none" stroke="#000000" points="591,-352.5 591,-382.5 981,-382.5 981,-352.5 591,-352.5"/>
<text text-anchor="start" x="598" y="-363.9" font-family="Arial" font-size="14.00" fill="#000000">query </text>
<text text-anchor="start" x="636.899" y="-363.9" font-family="Arial" font-size="14.00" fill="#666666">[integer]</text>
<polygon fill="none" stroke="#000000" stroke-width="3" points="589.5,-351.5 589.5,-509.5 982.5,-509.5 982.5,-351.5 589.5,-351.5"/>
</g>
<!-- actor.search_filter_group -->
<g id="node2" class="node">
<title>actor.search_filter_group</title>
<polygon fill="#efefef" stroke="transparent" points="405,-192.5 405,-227.5 745,-227.5 745,-192.5 405,-192.5"/>
<polygon fill="none" stroke="#000000" points="405,-192.5 405,-227.5 745,-227.5 745,-192.5 405,-192.5"/>
<text text-anchor="start" x="411.6958" y="-205.3" font-family="Arial Bold" font-size="18.00" fill="#000000">actor.search_filter_group</text>
<text text-anchor="start" x="610.7362" y="-205.3" font-family="Arial" font-size="14.00" fill="#000000">    </text>
<text text-anchor="start" x="644.941" y="-205.3" font-family="Arial" font-size="14.00" fill="#666666">[BASE TABLE]</text>
<polygon fill="none" stroke="#000000" points="405,-162.5 405,-192.5 745,-192.5 745,-162.5 405,-162.5"/>
<text text-anchor="start" x="412" y="-173.9" font-family="Arial" font-size="14.00" fill="#000000">id    </text>
<text text-anchor="start" x="457.094" y="-173.9" font-family="Arial" font-size="14.00" fill="#666666">[integer]</text>
<polygon fill="none" stroke="#000000" points="405,-132.5 405,-162.5 745,-162.5 745,-132.5 405,-132.5"/>
<text text-anchor="start" x="412" y="-143.9" font-family="Arial" font-size="14.00" fill="#000000">owner    </text>
<text text-anchor="start" x="484.3198" y="-143.9" font-family="Arial" font-size="14.00" fill="#666666">[integer]</text>
<polygon fill="none" stroke="#000000" points="405,-102.5 405,-132.5 745,-132.5 745,-102.5 405,-102.5"/>
<text text-anchor="start" x="412" y="-113.9" font-family="Arial" font-size="14.00" fill="#000000">code    </text>
<text text-anchor="start" x="476.5526" y="-113.9" font-family="Arial" font-size="14.00" fill="#666666">[text]</text>
<polygon fill="none" stroke="#000000" points="405,-72.5 405,-102.5 745,-102.5 745,-72.5 405,-72.5"/>
<text text-anchor="start" x="412" y="-83.9" font-family="Arial" font-size="14.00" fill="#000000">label    </text>
<text text-anchor="start" x="475.7658" y="-83.9" font-family="Arial" font-size="14.00" fill="#666666">[text]</text>
<polygon fill="none" stroke="#000000" points="405,-42.5 405,-72.5 745,-72.5 745,-42.5 405,-42.5"/>
<text text-anchor="start" x="412" y="-53.9" font-family="Arial" font-size="14.00" fill="#000000">create_date    </text>
<text text-anchor="start" x="520.1248" y="-53.9" font-family="Arial" font-size="14.00" fill="#666666">[timestamp with time zone]</text>
</g>
<!-- actor.search_filter_group_entry&#45;&gt;actor.search_filter_group -->
<g id="edge1" class="edge">
<title>actor.search_filter_group_entry:grp&#45;&gt;actor.search_filter_group:id</title>
<path fill="none" stroke="#000000" d="M581.0325,-426.4357C540.2771,-416.9329 559.9936,-346.0905 591,-307 634.6807,-251.9306 701.3193,-326.0694 745,-271 770.8242,-238.4427 786.5556,-177.5 745,-177.5"/>
<polygon fill="#000000" stroke="#000000" points="581.0565,-426.4382 590.5222,-431.9746 586.0283,-426.9691 591,-427.5 591,-427.5 591,-427.5 586.0283,-426.9691 591.4778,-423.0254 581.0565,-426.4382 581.0565,-426.4382"/>
<text text-anchor="start" x="7.0965" y="-437.5" font-family="Arial" font-size="10.00" fill="#000000">FOREIGN KEY (grp) REFERENCES actor.search_filter_group(id) ON DELETE CASCADE DEFERRABLE INITIALLY DEFERRED</text>
</g>
<!-- actor.search_query -->
<g id="node3" class="node">
<title>actor.search_query</title>
<polygon fill="#efefef" stroke="transparent" points="850,-162.5 850,-197.5 1145,-197.5 1145,-162.5 850,-162.5"/>
<polygon fill="none" stroke="#000000" points="850,-162.5 850,-197.5 1145,-197.5 1145,-162.5 850,-162.5"/>
<text text-anchor="start" x="856.6976" y="-175.3" font-family="Arial Bold" font-size="18.00" fill="#000000">actor.search_query</text>
<text text-anchor="start" x="1010.7344" y="-175.3" font-family="Arial" font-size="14.00" fill="#000000">    </text>
<text text-anchor="start" x="1044.9392" y="-175.3" font-family="Arial" font-size="14.00" fill="#666666">[BASE TABLE]</text>
<polygon fill="none" stroke="#000000" points="850,-132.5 850,-162.5 1145,-162.5 1145,-132.5 850,-132.5"/>
<text text-anchor="start" x="857" y="-143.9" font-family="Arial" font-size="14.00" fill="#000000">id    </text>
<text text-anchor="start" x="902.094" y="-143.9" font-family="Arial" font-size="14.00" fill="#666666">[integer]</text>
<polygon fill="none" stroke="#000000" points="850,-102.5 850,-132.5 1145,-132.5 1145,-102.5 850,-102.5"/>
<text text-anchor="start" x="857" y="-113.9" font-family="Arial" font-size="14.00" fill="#000000">label    </text>
<text text-anchor="start" x="920.7658" y="-113.9" font-family="Arial" font-size="14.00" fill="#666666">[text]</text>
<polygon fill="none" stroke="#000000" points="850,-72.5 850,-102.5 1145,-102.5 1145,-72.5 850,-72.5"/>
<text text-anchor="start" x="857" y="-83.9" font-family="Arial" font-size="14.00" fill="#000000">query_text    </text>
<text text-anchor="start" x="956.5596" y="-83.9" font-family="Arial" font-size="14.00" fill="#666666">[text]</text>
</g>
<!-- actor.search_filter_group_entry&#45;&gt;actor.search_query -->
<g id="edge2" class="edge">
<title>actor.search_filter_group_entry:query&#45;&gt;actor.search_query:id</title>
<path fill="none" stroke="#000000" d="M990.8445,-364.9453C1003.8607,-356.1075 992.8981,-326.3173 981,-307 946.81,-251.4904 884.19,-296.5096 850,-241 828.2069,-205.6175 808.4444,-147.5 850,-147.5"/>
<polygon fill="#000000" stroke="#000000" points="990.6794,-364.988 979.8696,-363.1443 985.8397,-366.244 981,-367.5 981,-367.5 981,-367.5 985.8397,-366.244 982.1304,-371.8557 990.6794,-364.988 990.6794,-364.988"/>
<text text-anchor="start" x="988.318" y="-377.5" font-family="Arial" font-size="10.00" fill="#000000">FOREIGN KEY (query) REFERENCES actor.search_query(id) ON DELETE CASCADE DEFERRABLE INITIALLY DEFERRED</text>
</g>
</g>
</svg>
