<?xml version="1.0" encoding="UTF-8" standalone="no"?>
<!DOCTYPE svg PUBLIC "-//W3C//DTD SVG 1.1//EN"
 "http://www.w3.org/Graphics/SVG/1.1/DTD/svg11.dtd">
<!-- Generated by graphviz version 2.40.1 (20161225.0304)
 -->
<!-- Title: actor.org_unit_custom_tree Pages: 1 -->
<svg width="956pt" height="532pt"
 viewBox="0.00 0.00 956.00 532.00" xmlns="http://www.w3.org/2000/svg" xmlns:xlink="http://www.w3.org/1999/xlink">
<g id="graph0" class="graph" transform="scale(1 1) rotate(0) translate(4 528)">
<title>actor.org_unit_custom_tree</title>
<polygon fill="#ffffff" stroke="transparent" points="-4,4 -4,-528 952,-528 952,4 -4,4"/>
<!-- actor.org_unit_custom_tree -->
<g id="node1" class="node">
<title>actor.org_unit_custom_tree</title>
<polygon fill="#efefef" stroke="transparent" points="68,-135.5 68,-170.5 428,-170.5 428,-135.5 68,-135.5"/>
<polygon fill="none" stroke="#000000" points="68,-135.5 68,-170.5 428,-170.5 428,-135.5 68,-135.5"/>
<text text-anchor="start" x="74.6887" y="-148.3" font-family="Arial Bold" font-size="18.00" fill="#000000">actor.org_unit_custom_tree</text>
<text text-anchor="start" x="293.7433" y="-148.3" font-family="Arial" font-size="14.00" fill="#000000">    </text>
<text text-anchor="start" x="327.9481" y="-148.3" font-family="Arial" font-size="14.00" fill="#666666">[BASE TABLE]</text>
<polygon fill="none" stroke="#000000" points="68,-105.5 68,-135.5 428,-135.5 428,-105.5 68,-105.5"/>
<text text-anchor="start" x="75" y="-116.9" font-family="Arial" font-size="14.00" fill="#000000">id </text>
<text text-anchor="start" x="89.7798" y="-116.9" font-family="Arial" font-size="14.00" fill="#666666">[integer]</text>
<polygon fill="none" stroke="#000000" points="68,-75.5 68,-105.5 428,-105.5 428,-75.5 68,-75.5"/>
<text text-anchor="start" x="75" y="-86.9" font-family="Arial" font-size="14.00" fill="#000000">active </text>
<text text-anchor="start" x="115.453" y="-86.9" font-family="Arial" font-size="14.00" fill="#666666">[boolean]</text>
<polygon fill="none" stroke="#000000" points="68,-45.5 68,-75.5 428,-75.5 428,-45.5 68,-45.5"/>
<text text-anchor="start" x="75" y="-56.9" font-family="Arial" font-size="14.00" fill="#000000">purpose </text>
<text text-anchor="start" x="129.4642" y="-56.9" font-family="Arial" font-size="14.00" fill="#666666">[actor.org_unit_custom_tree_purpose]</text>
<polygon fill="none" stroke="#000000" stroke-width="3" points="66.5,-44.5 66.5,-172.5 429.5,-172.5 429.5,-44.5 66.5,-44.5"/>
</g>
<!-- actor.org_unit_custom_tree_node -->
<g id="node2" class="node">
<title>actor.org_unit_custom_tree_node</title>
<polygon fill="#efefef" stroke="transparent" points="43,-445.5 43,-480.5 453,-480.5 453,-445.5 43,-445.5"/>
<polygon fill="none" stroke="#000000" points="43,-445.5 43,-480.5 453,-480.5 453,-445.5 43,-445.5"/>
<text text-anchor="start" x="49.6732" y="-458.3" font-family="Arial Bold" font-size="18.00" fill="#000000">actor.org_unit_custom_tree_node</text>
<text text-anchor="start" x="318.7588" y="-458.3" font-family="Arial" font-size="14.00" fill="#000000">    </text>
<text text-anchor="start" x="352.9636" y="-458.3" font-family="Arial" font-size="14.00" fill="#666666">[BASE TABLE]</text>
<polygon fill="none" stroke="#000000" points="43,-415.5 43,-445.5 453,-445.5 453,-415.5 43,-415.5"/>
<text text-anchor="start" x="50" y="-426.9" font-family="Arial" font-size="14.00" fill="#000000">id    </text>
<text text-anchor="start" x="95.094" y="-426.9" font-family="Arial" font-size="14.00" fill="#666666">[integer]</text>
<polygon fill="none" stroke="#000000" points="43,-385.5 43,-415.5 453,-415.5 453,-385.5 43,-385.5"/>
<text text-anchor="start" x="50" y="-396.9" font-family="Arial" font-size="14.00" fill="#000000">tree    </text>
<text text-anchor="start" x="108.3212" y="-396.9" font-family="Arial" font-size="14.00" fill="#666666">[integer]</text>
<polygon fill="none" stroke="#000000" points="43,-355.5 43,-385.5 453,-385.5 453,-355.5 43,-355.5"/>
<text text-anchor="start" x="50" y="-366.9" font-family="Arial" font-size="14.00" fill="#000000">org_unit    </text>
<text text-anchor="start" x="134.7756" y="-366.9" font-family="Arial" font-size="14.00" fill="#666666">[integer]</text>
<polygon fill="none" stroke="#000000" points="43,-325.5 43,-355.5 453,-355.5 453,-325.5 43,-325.5"/>
<text text-anchor="start" x="50" y="-336.9" font-family="Arial" font-size="14.00" fill="#000000">parent_node    </text>
<text text-anchor="start" x="162.7994" y="-336.9" font-family="Arial" font-size="14.00" fill="#666666">[integer]</text>
<polygon fill="none" stroke="#000000" points="43,-295.5 43,-325.5 453,-325.5 453,-295.5 43,-295.5"/>
<text text-anchor="start" x="50" y="-306.9" font-family="Arial" font-size="14.00" fill="#000000">sibling_order    </text>
<text text-anchor="start" x="164.324" y="-306.9" font-family="Arial" font-size="14.00" fill="#666666">[integer]</text>
</g>
<!-- actor.org_unit_custom_tree_node&#45;&gt;actor.org_unit_custom_tree -->
<g id="edge1" class="edge">
<title>actor.org_unit_custom_tree_node:tree&#45;&gt;actor.org_unit_custom_tree:id</title>
<path fill="none" stroke="#000000" d="M462.7822,-397.9069C512.5175,-369.6795 486.9314,-120.5 428,-120.5"/>
<polygon fill="#000000" stroke="#000000" points="462.6662,-397.9376 451.8469,-396.1502 457.8331,-399.2188 453,-400.5 453,-400.5 453,-400.5 457.8331,-399.2188 454.1531,-404.8498 462.6662,-397.9376 462.6662,-397.9376"/>
<text text-anchor="start" x="460.4285" y="-410.5" font-family="Arial" font-size="10.00" fill="#000000">FOREIGN KEY (tree) REFERENCES actor.org_unit_custom_tree(id) DEFERRABLE INITIALLY DEFERRED</text>
</g>
</g>
</svg>
