<?xml version="1.0" encoding="UTF-8" standalone="no"?>
<!DOCTYPE svg PUBLIC "-//W3C//DTD SVG 1.1//EN"
 "http://www.w3.org/Graphics/SVG/1.1/DTD/svg11.dtd">
<!-- Generated by graphviz version 2.40.1 (20161225.0304)
 -->
<!-- Title: actor.passwd Pages: 1 -->
<svg width="1295pt" height="1972pt"
 viewBox="0.00 0.00 1295.00 1972.00" xmlns="http://www.w3.org/2000/svg" xmlns:xlink="http://www.w3.org/1999/xlink">
<g id="graph0" class="graph" transform="scale(1 1) rotate(0) translate(4 1968)">
<title>actor.passwd</title>
<polygon fill="#ffffff" stroke="transparent" points="-4,4 -4,-1968 1291,-1968 1291,4 -4,4"/>
<!-- actor.passwd -->
<g id="node1" class="node">
<title>actor.passwd</title>
<polygon fill="#efefef" stroke="transparent" points="519,-1882.5 519,-1917.5 776,-1917.5 776,-1882.5 519,-1882.5"/>
<polygon fill="none" stroke="#000000" points="519,-1882.5 519,-1917.5 776,-1917.5 776,-1882.5 519,-1882.5"/>
<text text-anchor="start" x="530.7051" y="-1895.3" font-family="Arial Bold" font-size="18.00" fill="#000000">actor.passwd</text>
<text text-anchor="start" x="636.7269" y="-1895.3" font-family="Arial" font-size="14.00" fill="#000000">    </text>
<text text-anchor="start" x="670.9317" y="-1895.3" font-family="Arial" font-size="14.00" fill="#666666">[BASE TABLE]</text>
<polygon fill="none" stroke="#000000" points="519,-1852.5 519,-1882.5 776,-1882.5 776,-1852.5 519,-1852.5"/>
<text text-anchor="start" x="526" y="-1863.9" font-family="Arial" font-size="14.00" fill="#000000">id </text>
<text text-anchor="start" x="540.7798" y="-1863.9" font-family="Arial" font-size="14.00" fill="#666666">[integer]</text>
<polygon fill="none" stroke="#000000" points="519,-1822.5 519,-1852.5 776,-1852.5 776,-1822.5 519,-1822.5"/>
<text text-anchor="start" x="526" y="-1833.9" font-family="Arial" font-size="14.00" fill="#000000">usr </text>
<text text-anchor="start" x="549.3338" y="-1833.9" font-family="Arial" font-size="14.00" fill="#666666">[integer]</text>
<polygon fill="none" stroke="#000000" points="519,-1792.5 519,-1822.5 776,-1822.5 776,-1792.5 519,-1792.5"/>
<text text-anchor="start" x="526" y="-1803.9" font-family="Arial" font-size="14.00" fill="#000000">salt </text>
<text text-anchor="start" x="551.6704" y="-1803.9" font-family="Arial" font-size="14.00" fill="#666666">[text]</text>
<polygon fill="none" stroke="#000000" points="519,-1762.5 519,-1792.5 776,-1792.5 776,-1762.5 519,-1762.5"/>
<text text-anchor="start" x="526" y="-1773.9" font-family="Arial" font-size="14.00" fill="#000000">passwd </text>
<text text-anchor="start" x="577.345" y="-1773.9" font-family="Arial" font-size="14.00" fill="#666666">[text]</text>
<polygon fill="none" stroke="#000000" points="519,-1732.5 519,-1762.5 776,-1762.5 776,-1732.5 519,-1732.5"/>
<text text-anchor="start" x="526" y="-1743.9" font-family="Arial" font-size="14.00" fill="#000000">passwd_type </text>
<text text-anchor="start" x="611.5834" y="-1743.9" font-family="Arial" font-size="14.00" fill="#666666">[text]</text>
<polygon fill="none" stroke="#000000" points="519,-1702.5 519,-1732.5 776,-1732.5 776,-1702.5 519,-1702.5"/>
<text text-anchor="start" x="525.7525" y="-1713.9" font-family="Arial" font-size="14.00" fill="#000000">create_date </text>
<text text-anchor="start" x="603.5631" y="-1713.9" font-family="Arial" font-size="14.00" fill="#666666">[timestamp with time zone]</text>
<polygon fill="none" stroke="#000000" points="519,-1672.5 519,-1702.5 776,-1702.5 776,-1672.5 519,-1672.5"/>
<text text-anchor="start" x="526" y="-1683.9" font-family="Arial" font-size="14.00" fill="#000000">edit_date </text>
<text text-anchor="start" x="587.474" y="-1683.9" font-family="Arial" font-size="14.00" fill="#666666">[timestamp with time zone]</text>
<polygon fill="none" stroke="#000000" stroke-width="3" points="517,-1671.5 517,-1919.5 777,-1919.5 777,-1671.5 517,-1671.5"/>
</g>
<!-- actor.usr -->
<g id="node2" class="node">
<title>actor.usr</title>
<polygon fill="#efefef" stroke="transparent" points="283,-1512.5 283,-1547.5 603,-1547.5 603,-1512.5 283,-1512.5"/>
<polygon fill="none" stroke="#000000" points="283,-1512.5 283,-1547.5 603,-1547.5 603,-1512.5 283,-1512.5"/>
<text text-anchor="start" x="344.2123" y="-1525.3" font-family="Arial Bold" font-size="18.00" fill="#000000">actor.usr</text>
<text text-anchor="start" x="414.2197" y="-1525.3" font-family="Arial" font-size="14.00" fill="#000000">    </text>
<text text-anchor="start" x="448.4245" y="-1525.3" font-family="Arial" font-size="14.00" fill="#666666">[BASE TABLE]</text>
<polygon fill="none" stroke="#000000" points="283,-1482.5 283,-1512.5 603,-1512.5 603,-1482.5 283,-1482.5"/>
<text text-anchor="start" x="290" y="-1493.9" font-family="Arial" font-size="14.00" fill="#000000">id    </text>
<text text-anchor="start" x="335.094" y="-1493.9" font-family="Arial" font-size="14.00" fill="#666666">[integer]</text>
<polygon fill="none" stroke="#000000" points="283,-1452.5 283,-1482.5 603,-1482.5 603,-1452.5 283,-1452.5"/>
<text text-anchor="start" x="290" y="-1463.9" font-family="Arial" font-size="14.00" fill="#000000">card    </text>
<text text-anchor="start" x="351.4306" y="-1463.9" font-family="Arial" font-size="14.00" fill="#666666">[integer]</text>
<polygon fill="none" stroke="#000000" points="283,-1422.5 283,-1452.5 603,-1452.5 603,-1422.5 283,-1422.5"/>
<text text-anchor="start" x="290" y="-1433.9" font-family="Arial" font-size="14.00" fill="#000000">profile    </text>
<text text-anchor="start" x="362.317" y="-1433.9" font-family="Arial" font-size="14.00" fill="#666666">[integer]</text>
<polygon fill="none" stroke="#000000" points="283,-1392.5 283,-1422.5 603,-1422.5 603,-1392.5 283,-1392.5"/>
<text text-anchor="start" x="290" y="-1403.9" font-family="Arial" font-size="14.00" fill="#000000">usrname    </text>
<text text-anchor="start" x="378.6564" y="-1403.9" font-family="Arial" font-size="14.00" fill="#666666">[text]</text>
<polygon fill="none" stroke="#000000" points="283,-1362.5 283,-1392.5 603,-1392.5 603,-1362.5 283,-1362.5"/>
<text text-anchor="start" x="290" y="-1373.9" font-family="Arial" font-size="14.00" fill="#000000">email    </text>
<text text-anchor="start" x="357.6438" y="-1373.9" font-family="Arial" font-size="14.00" fill="#666666">[text]</text>
<polygon fill="none" stroke="#000000" points="283,-1332.5 283,-1362.5 603,-1362.5 603,-1332.5 283,-1332.5"/>
<text text-anchor="start" x="290" y="-1343.9" font-family="Arial" font-size="14.00" fill="#000000">passwd    </text>
<text text-anchor="start" x="371.6592" y="-1343.9" font-family="Arial" font-size="14.00" fill="#666666">[text]</text>
<polygon fill="none" stroke="#000000" points="283,-1302.5 283,-1332.5 603,-1332.5 603,-1302.5 283,-1302.5"/>
<text text-anchor="start" x="290" y="-1313.9" font-family="Arial" font-size="14.00" fill="#000000">standing    </text>
<text text-anchor="start" x="377.115" y="-1313.9" font-family="Arial" font-size="14.00" fill="#666666">[integer]</text>
<polygon fill="none" stroke="#000000" points="283,-1272.5 283,-1302.5 603,-1302.5 603,-1272.5 283,-1272.5"/>
<text text-anchor="start" x="290" y="-1283.9" font-family="Arial" font-size="14.00" fill="#000000">ident_type    </text>
<text text-anchor="start" x="388.7882" y="-1283.9" font-family="Arial" font-size="14.00" fill="#666666">[integer]</text>
<polygon fill="none" stroke="#000000" points="283,-1242.5 283,-1272.5 603,-1272.5 603,-1242.5 283,-1242.5"/>
<text text-anchor="start" x="290" y="-1253.9" font-family="Arial" font-size="14.00" fill="#000000">ident_value    </text>
<text text-anchor="start" x="395.7868" y="-1253.9" font-family="Arial" font-size="14.00" fill="#666666">[text]</text>
<polygon fill="none" stroke="#000000" points="283,-1212.5 283,-1242.5 603,-1242.5 603,-1212.5 283,-1212.5"/>
<text text-anchor="start" x="290" y="-1223.9" font-family="Arial" font-size="14.00" fill="#000000">ident_type2    </text>
<text text-anchor="start" x="396.5708" y="-1223.9" font-family="Arial" font-size="14.00" fill="#666666">[integer]</text>
<polygon fill="none" stroke="#000000" points="283,-1182.5 283,-1212.5 603,-1212.5 603,-1182.5 283,-1182.5"/>
<text text-anchor="start" x="290" y="-1193.9" font-family="Arial" font-size="14.00" fill="#000000">ident_value2    </text>
<text text-anchor="start" x="403.5694" y="-1193.9" font-family="Arial" font-size="14.00" fill="#666666">[text]</text>
<polygon fill="none" stroke="#000000" points="283,-1152.5 283,-1182.5 603,-1182.5 603,-1152.5 283,-1152.5"/>
<text text-anchor="start" x="290" y="-1163.9" font-family="Arial" font-size="14.00" fill="#000000">net_access_level    </text>
<text text-anchor="start" x="431.5694" y="-1163.9" font-family="Arial" font-size="14.00" fill="#666666">[integer]</text>
<polygon fill="none" stroke="#000000" points="283,-1122.5 283,-1152.5 603,-1152.5 603,-1122.5 283,-1122.5"/>
<text text-anchor="start" x="290" y="-1133.9" font-family="Arial" font-size="14.00" fill="#000000">photo_url    </text>
<text text-anchor="start" x="382.5582" y="-1133.9" font-family="Arial" font-size="14.00" fill="#666666">[text]</text>
<polygon fill="none" stroke="#000000" points="283,-1092.5 283,-1122.5 603,-1122.5 603,-1092.5 283,-1092.5"/>
<text text-anchor="start" x="290" y="-1103.9" font-family="Arial" font-size="14.00" fill="#000000">prefix    </text>
<text text-anchor="start" x="358.4278" y="-1103.9" font-family="Arial" font-size="14.00" fill="#666666">[text]</text>
<polygon fill="none" stroke="#000000" points="283,-1062.5 283,-1092.5 603,-1092.5 603,-1062.5 283,-1062.5"/>
<text text-anchor="start" x="290" y="-1073.9" font-family="Arial" font-size="14.00" fill="#000000">first_given_name    </text>
<text text-anchor="start" x="430.7812" y="-1073.9" font-family="Arial" font-size="14.00" fill="#666666">[text]</text>
<polygon fill="none" stroke="#000000" points="283,-1032.5 283,-1062.5 603,-1062.5 603,-1032.5 283,-1032.5"/>
<text text-anchor="start" x="290" y="-1043.9" font-family="Arial" font-size="14.00" fill="#000000">second_given_name    </text>
<text text-anchor="start" x="453.3632" y="-1043.9" font-family="Arial" font-size="14.00" fill="#666666">[text]</text>
<polygon fill="none" stroke="#000000" points="283,-1002.5 283,-1032.5 603,-1032.5 603,-1002.5 283,-1002.5"/>
<text text-anchor="start" x="290" y="-1013.9" font-family="Arial" font-size="14.00" fill="#000000">family_name    </text>
<text text-anchor="start" x="403.5428" y="-1013.9" font-family="Arial" font-size="14.00" fill="#666666">[text]</text>
<polygon fill="none" stroke="#000000" points="283,-972.5 283,-1002.5 603,-1002.5 603,-972.5 283,-972.5"/>
<text text-anchor="start" x="290" y="-983.9" font-family="Arial" font-size="14.00" fill="#000000">suffix    </text>
<text text-anchor="start" x="356.8752" y="-983.9" font-family="Arial" font-size="14.00" fill="#666666">[text]</text>
<polygon fill="none" stroke="#000000" points="283,-942.5 283,-972.5 603,-972.5 603,-942.5 283,-942.5"/>
<text text-anchor="start" x="290" y="-953.9" font-family="Arial" font-size="14.00" fill="#000000">alias    </text>
<text text-anchor="start" x="352.9832" y="-953.9" font-family="Arial" font-size="14.00" fill="#666666">[text]</text>
<polygon fill="none" stroke="#000000" points="283,-912.5 283,-942.5 603,-942.5 603,-912.5 283,-912.5"/>
<text text-anchor="start" x="290" y="-923.9" font-family="Arial" font-size="14.00" fill="#000000">day_phone    </text>
<text text-anchor="start" x="393.4656" y="-923.9" font-family="Arial" font-size="14.00" fill="#666666">[text]</text>
<polygon fill="none" stroke="#000000" points="283,-882.5 283,-912.5 603,-912.5 603,-882.5 283,-882.5"/>
<text text-anchor="start" x="290" y="-893.9" font-family="Arial" font-size="14.00" fill="#000000">evening_phone    </text>
<text text-anchor="start" x="419.92" y="-893.9" font-family="Arial" font-size="14.00" fill="#666666">[text]</text>
<polygon fill="none" stroke="#000000" points="283,-852.5 283,-882.5 603,-882.5 603,-852.5 283,-852.5"/>
<text text-anchor="start" x="290" y="-863.9" font-family="Arial" font-size="14.00" fill="#000000">other_phone    </text>
<text text-anchor="start" x="402.7994" y="-863.9" font-family="Arial" font-size="14.00" fill="#666666">[text]</text>
<polygon fill="none" stroke="#000000" points="283,-822.5 283,-852.5 603,-852.5 603,-822.5 283,-822.5"/>
<text text-anchor="start" x="290" y="-833.9" font-family="Arial" font-size="14.00" fill="#000000">mailing_address    </text>
<text text-anchor="start" x="426.1066" y="-833.9" font-family="Arial" font-size="14.00" fill="#666666">[integer]</text>
<polygon fill="none" stroke="#000000" points="283,-792.5 283,-822.5 603,-822.5 603,-792.5 283,-792.5"/>
<text text-anchor="start" x="290" y="-803.9" font-family="Arial" font-size="14.00" fill="#000000">billing_address    </text>
<text text-anchor="start" x="417.5526" y="-803.9" font-family="Arial" font-size="14.00" fill="#666666">[integer]</text>
<polygon fill="none" stroke="#000000" points="283,-762.5 283,-792.5 603,-792.5 603,-762.5 283,-762.5"/>
<text text-anchor="start" x="290" y="-773.9" font-family="Arial" font-size="14.00" fill="#000000">home_ou    </text>
<text text-anchor="start" x="382.561" y="-773.9" font-family="Arial" font-size="14.00" fill="#666666">[integer]</text>
<polygon fill="none" stroke="#000000" points="283,-732.5 283,-762.5 603,-762.5 603,-732.5 283,-732.5"/>
<text text-anchor="start" x="290" y="-743.9" font-family="Arial" font-size="14.00" fill="#000000">dob    </text>
<text text-anchor="start" x="347.5526" y="-743.9" font-family="Arial" font-size="14.00" fill="#666666">[date]</text>
<polygon fill="none" stroke="#000000" points="283,-702.5 283,-732.5 603,-732.5 603,-702.5 283,-702.5"/>
<text text-anchor="start" x="290" y="-713.9" font-family="Arial" font-size="14.00" fill="#000000">active    </text>
<text text-anchor="start" x="360.7672" y="-713.9" font-family="Arial" font-size="14.00" fill="#666666">[boolean]</text>
<polygon fill="none" stroke="#000000" points="283,-672.5 283,-702.5 603,-702.5 603,-672.5 283,-672.5"/>
<text text-anchor="start" x="290" y="-683.9" font-family="Arial" font-size="14.00" fill="#000000">master_account    </text>
<text text-anchor="start" x="423.7854" y="-683.9" font-family="Arial" font-size="14.00" fill="#666666">[boolean]</text>
<polygon fill="none" stroke="#000000" points="283,-642.5 283,-672.5 603,-672.5 603,-642.5 283,-642.5"/>
<text text-anchor="start" x="290" y="-653.9" font-family="Arial" font-size="14.00" fill="#000000">super_user    </text>
<text text-anchor="start" x="394.2216" y="-653.9" font-family="Arial" font-size="14.00" fill="#666666">[boolean]</text>
<polygon fill="none" stroke="#000000" points="283,-612.5 283,-642.5 603,-642.5 603,-612.5 283,-612.5"/>
<text text-anchor="start" x="290" y="-623.9" font-family="Arial" font-size="14.00" fill="#000000">barred    </text>
<text text-anchor="start" x="364.6564" y="-623.9" font-family="Arial" font-size="14.00" fill="#666666">[boolean]</text>
<polygon fill="none" stroke="#000000" points="283,-582.5 283,-612.5 603,-612.5 603,-582.5 283,-582.5"/>
<text text-anchor="start" x="290" y="-593.9" font-family="Arial" font-size="14.00" fill="#000000">deleted    </text>
<text text-anchor="start" x="370.115" y="-593.9" font-family="Arial" font-size="14.00" fill="#666666">[boolean]</text>
<polygon fill="none" stroke="#000000" points="283,-552.5 283,-582.5 603,-582.5 603,-552.5 283,-552.5"/>
<text text-anchor="start" x="290" y="-563.9" font-family="Arial" font-size="14.00" fill="#000000">juvenile    </text>
<text text-anchor="start" x="371.655" y="-563.9" font-family="Arial" font-size="14.00" fill="#666666">[boolean]</text>
<polygon fill="none" stroke="#000000" points="283,-522.5 283,-552.5 603,-552.5 603,-522.5 283,-522.5"/>
<text text-anchor="start" x="290" y="-533.9" font-family="Arial" font-size="14.00" fill="#000000">usrgroup    </text>
<text text-anchor="start" x="379.439" y="-533.9" font-family="Arial" font-size="14.00" fill="#666666">[integer]</text>
<polygon fill="none" stroke="#000000" points="283,-492.5 283,-522.5 603,-522.5 603,-492.5 283,-492.5"/>
<text text-anchor="start" x="290" y="-503.9" font-family="Arial" font-size="14.00" fill="#000000">claims_returned_count    </text>
<text text-anchor="start" x="465.7896" y="-503.9" font-family="Arial" font-size="14.00" fill="#666666">[integer]</text>
<polygon fill="none" stroke="#000000" points="283,-462.5 283,-492.5 603,-492.5 603,-462.5 283,-462.5"/>
<text text-anchor="start" x="290" y="-473.9" font-family="Arial" font-size="14.00" fill="#000000">credit_forward_balance    </text>
<text text-anchor="start" x="469.6788" y="-473.9" font-family="Arial" font-size="14.00" fill="#666666">[numeric(6,2)]</text>
<polygon fill="none" stroke="#000000" points="283,-432.5 283,-462.5 603,-462.5 603,-432.5 283,-432.5"/>
<text text-anchor="start" x="290" y="-443.9" font-family="Arial" font-size="14.00" fill="#000000">last_xact_id    </text>
<text text-anchor="start" x="398.1122" y="-443.9" font-family="Arial" font-size="14.00" fill="#666666">[text]</text>
<polygon fill="none" stroke="#000000" points="283,-402.5 283,-432.5 603,-432.5 603,-402.5 283,-402.5"/>
<text text-anchor="start" x="290" y="-413.9" font-family="Arial" font-size="14.00" fill="#000000">alert_message    </text>
<text text-anchor="start" x="416.0014" y="-413.9" font-family="Arial" font-size="14.00" fill="#666666">[text]</text>
<polygon fill="none" stroke="#000000" points="283,-372.5 283,-402.5 603,-402.5 603,-372.5 283,-372.5"/>
<text text-anchor="start" x="290" y="-383.9" font-family="Arial" font-size="14.00" fill="#000000">create_date    </text>
<text text-anchor="start" x="398.1248" y="-383.9" font-family="Arial" font-size="14.00" fill="#666666">[timestamp with time zone]</text>
<polygon fill="none" stroke="#000000" points="283,-342.5 283,-372.5 603,-372.5 603,-342.5 283,-342.5"/>
<text text-anchor="start" x="290" y="-353.9" font-family="Arial" font-size="14.00" fill="#000000">expire_date    </text>
<text text-anchor="start" x="397.3408" y="-353.9" font-family="Arial" font-size="14.00" fill="#666666">[timestamp with time zone]</text>
<polygon fill="none" stroke="#000000" points="283,-312.5 283,-342.5 603,-342.5 603,-312.5 283,-312.5"/>
<text text-anchor="start" x="290" y="-323.9" font-family="Arial" font-size="14.00" fill="#000000">claims_never_checked_out_count    </text>
<text text-anchor="start" x="535.8246" y="-323.9" font-family="Arial" font-size="14.00" fill="#666666">[integer]</text>
<polygon fill="none" stroke="#000000" points="283,-282.5 283,-312.5 603,-312.5 603,-282.5 283,-282.5"/>
<text text-anchor="start" x="289.7609" y="-293.9" font-family="Arial" font-size="14.00" fill="#000000">last_update_time    </text>
<text text-anchor="start" x="430.5547" y="-293.9" font-family="Arial" font-size="14.00" fill="#666666">[timestamp with time zone]</text>
<polygon fill="none" stroke="#000000" points="283,-252.5 283,-282.5 603,-282.5 603,-252.5 283,-252.5"/>
<text text-anchor="start" x="290" y="-263.9" font-family="Arial" font-size="14.00" fill="#000000">pref_prefix    </text>
<text text-anchor="start" x="390.3268" y="-263.9" font-family="Arial" font-size="14.00" fill="#666666">[text]</text>
<polygon fill="none" stroke="#000000" points="283,-222.5 283,-252.5 603,-252.5 603,-222.5 283,-222.5"/>
<text text-anchor="start" x="290" y="-233.9" font-family="Arial" font-size="14.00" fill="#000000">pref_first_given_name    </text>
<text text-anchor="start" x="462.6802" y="-233.9" font-family="Arial" font-size="14.00" fill="#666666">[text]</text>
<polygon fill="none" stroke="#000000" points="283,-192.5 283,-222.5 603,-222.5 603,-192.5 283,-192.5"/>
<text text-anchor="start" x="290" y="-203.9" font-family="Arial" font-size="14.00" fill="#000000">pref_second_given_name    </text>
<text text-anchor="start" x="485.2622" y="-203.9" font-family="Arial" font-size="14.00" fill="#666666">[text]</text>
<polygon fill="none" stroke="#000000" points="283,-162.5 283,-192.5 603,-192.5 603,-162.5 283,-162.5"/>
<text text-anchor="start" x="290" y="-173.9" font-family="Arial" font-size="14.00" fill="#000000">pref_family_name    </text>
<text text-anchor="start" x="435.4418" y="-173.9" font-family="Arial" font-size="14.00" fill="#666666">[text]</text>
<polygon fill="none" stroke="#000000" points="283,-132.5 283,-162.5 603,-162.5 603,-132.5 283,-132.5"/>
<text text-anchor="start" x="290" y="-143.9" font-family="Arial" font-size="14.00" fill="#000000">pref_suffix    </text>
<text text-anchor="start" x="388.7742" y="-143.9" font-family="Arial" font-size="14.00" fill="#666666">[text]</text>
<polygon fill="none" stroke="#000000" points="283,-102.5 283,-132.5 603,-132.5 603,-102.5 283,-102.5"/>
<text text-anchor="start" x="290" y="-113.9" font-family="Arial" font-size="14.00" fill="#000000">name_keywords    </text>
<text text-anchor="start" x="426.1108" y="-113.9" font-family="Arial" font-size="14.00" fill="#666666">[text]</text>
<polygon fill="none" stroke="#000000" points="283,-72.5 283,-102.5 603,-102.5 603,-72.5 283,-72.5"/>
<text text-anchor="start" x="290" y="-83.9" font-family="Arial" font-size="14.00" fill="#000000">name_kw_tsvector    </text>
<text text-anchor="start" x="440.892" y="-83.9" font-family="Arial" font-size="14.00" fill="#666666">[tsvector]</text>
<polygon fill="none" stroke="#000000" points="283,-42.5 283,-72.5 603,-72.5 603,-42.5 283,-42.5"/>
<text text-anchor="start" x="290" y="-53.9" font-family="Arial" font-size="14.00" fill="#000000">guardian    </text>
<text text-anchor="start" x="378.6676" y="-53.9" font-family="Arial" font-size="14.00" fill="#666666">[text]</text>
</g>
<!-- actor.passwd&#45;&gt;actor.usr -->
<g id="edge1" class="edge">
<title>actor.passwd:usr&#45;&gt;actor.usr:id</title>
<path fill="none" stroke="#000000" d="M508.6497,-1836.9051C428.7443,-1827.2394 469.5103,-1702.0531 519,-1627 541.3595,-1593.0909 580.6405,-1624.9091 603,-1591 625.876,-1556.3077 644.5556,-1497.5 603,-1497.5"/>
<polygon fill="#000000" stroke="#000000" points="509.0165,-1836.9261 518.7417,-1841.9926 514.0082,-1837.213 519,-1837.5 519,-1837.5 519,-1837.5 514.0082,-1837.213 519.2583,-1833.0074 509.0165,-1836.9261 509.0165,-1836.9261"/>
<text text-anchor="start" x="7.2185" y="-1847.5" font-family="Arial" font-size="10.00" fill="#000000">FOREIGN KEY (usr) REFERENCES actor.usr(id) ON DELETE CASCADE DEFERRABLE INITIALLY DEFERRED</text>
</g>
<!-- actor.passwd_type -->
<g id="node3" class="node">
<title>actor.passwd_type</title>
<polygon fill="#efefef" stroke="transparent" points="708,-867.5 708,-902.5 999,-902.5 999,-867.5 708,-867.5"/>
<polygon fill="none" stroke="#000000" points="708,-867.5 708,-902.5 999,-902.5 999,-867.5 708,-867.5"/>
<text text-anchor="start" x="714.6947" y="-880.3" font-family="Arial Bold" font-size="18.00" fill="#000000">actor.passwd_type</text>
<text text-anchor="start" x="864.7373" y="-880.3" font-family="Arial" font-size="14.00" fill="#000000">    </text>
<text text-anchor="start" x="898.9421" y="-880.3" font-family="Arial" font-size="14.00" fill="#666666">[BASE TABLE]</text>
<polygon fill="none" stroke="#000000" points="708,-837.5 708,-867.5 999,-867.5 999,-837.5 708,-837.5"/>
<text text-anchor="start" x="715" y="-848.9" font-family="Arial" font-size="14.00" fill="#000000">code    </text>
<text text-anchor="start" x="779.5526" y="-848.9" font-family="Arial" font-size="14.00" fill="#666666">[text]</text>
<polygon fill="none" stroke="#000000" points="708,-807.5 708,-837.5 999,-837.5 999,-807.5 708,-807.5"/>
<text text-anchor="start" x="715" y="-818.9" font-family="Arial" font-size="14.00" fill="#000000">name    </text>
<text text-anchor="start" x="784.2132" y="-818.9" font-family="Arial" font-size="14.00" fill="#666666">[text]</text>
<polygon fill="none" stroke="#000000" points="708,-777.5 708,-807.5 999,-807.5 999,-777.5 708,-777.5"/>
<text text-anchor="start" x="715" y="-788.9" font-family="Arial" font-size="14.00" fill="#000000">login    </text>
<text text-anchor="start" x="778.7658" y="-788.9" font-family="Arial" font-size="14.00" fill="#666666">[boolean]</text>
<polygon fill="none" stroke="#000000" points="708,-747.5 708,-777.5 999,-777.5 999,-747.5 708,-747.5"/>
<text text-anchor="start" x="715" y="-758.9" font-family="Arial" font-size="14.00" fill="#000000">regex    </text>
<text text-anchor="start" x="784.2132" y="-758.9" font-family="Arial" font-size="14.00" fill="#666666">[text]</text>
<polygon fill="none" stroke="#000000" points="708,-717.5 708,-747.5 999,-747.5 999,-717.5 708,-717.5"/>
<text text-anchor="start" x="715" y="-728.9" font-family="Arial" font-size="14.00" fill="#000000">crypt_algo    </text>
<text text-anchor="start" x="813.7756" y="-728.9" font-family="Arial" font-size="14.00" fill="#666666">[text]</text>
<polygon fill="none" stroke="#000000" points="708,-687.5 708,-717.5 999,-717.5 999,-687.5 708,-687.5"/>
<text text-anchor="start" x="715" y="-698.9" font-family="Arial" font-size="14.00" fill="#000000">iter_count    </text>
<text text-anchor="start" x="810.6662" y="-698.9" font-family="Arial" font-size="14.00" fill="#666666">[integer]</text>
</g>
<!-- actor.passwd&#45;&gt;actor.passwd_type -->
<g id="edge2" class="edge">
<title>actor.passwd:passwd_type&#45;&gt;actor.passwd_type:code</title>
<path fill="none" stroke="#000000" d="M786.166,-1746.6342C958.8083,-1715.4533 512.1414,-852.5 708,-852.5"/>
<polygon fill="#000000" stroke="#000000" points="785.9639,-1746.6513 775.6181,-1743.0162 780.982,-1747.0757 776,-1747.5 776,-1747.5 776,-1747.5 780.982,-1747.0757 776.3819,-1751.9838 785.9639,-1746.6513 785.9639,-1746.6513"/>
<text text-anchor="start" x="783.086" y="-1757.5" font-family="Arial" font-size="10.00" fill="#000000">FOREIGN KEY (passwd_type) REFERENCES actor.passwd_type(code) DEFERRABLE INITIALLY DEFERRED</text>
</g>
</g>
</svg>
