<?xml version="1.0" encoding="UTF-8" standalone="no"?>
<!DOCTYPE svg PUBLIC "-//W3C//DTD SVG 1.1//EN"
 "http://www.w3.org/Graphics/SVG/1.1/DTD/svg11.dtd">
<!-- Generated by graphviz version 2.40.1 (20161225.0304)
 -->
<!-- Title: actor.usr_message Pages: 1 -->
<svg width="1178pt" height="2002pt"
 viewBox="0.00 0.00 1178.00 2002.00" xmlns="http://www.w3.org/2000/svg" xmlns:xlink="http://www.w3.org/1999/xlink">
<g id="graph0" class="graph" transform="scale(1 1) rotate(0) translate(4 1998)">
<title>actor.usr_message</title>
<polygon fill="#ffffff" stroke="transparent" points="-4,4 -4,-1998 1174,-1998 1174,4 -4,4"/>
<!-- actor.usr_message -->
<g id="node1" class="node">
<title>actor.usr_message</title>
<polygon fill="#efefef" stroke="transparent" points="409,-1912.5 409,-1947.5 703,-1947.5 703,-1912.5 409,-1912.5"/>
<polygon fill="none" stroke="#000000" points="409,-1912.5 409,-1947.5 703,-1947.5 703,-1912.5 409,-1912.5"/>
<text text-anchor="start" x="415.7007" y="-1925.3" font-family="Arial Bold" font-size="18.00" fill="#000000">actor.usr_message</text>
<text text-anchor="start" x="568.7313" y="-1925.3" font-family="Arial" font-size="14.00" fill="#000000">    </text>
<text text-anchor="start" x="602.9361" y="-1925.3" font-family="Arial" font-size="14.00" fill="#666666">[BASE TABLE]</text>
<polygon fill="none" stroke="#000000" points="409,-1882.5 409,-1912.5 703,-1912.5 703,-1882.5 409,-1882.5"/>
<text text-anchor="start" x="416" y="-1893.9" font-family="Arial" font-size="14.00" fill="#000000">id </text>
<text text-anchor="start" x="430.7798" y="-1893.9" font-family="Arial" font-size="14.00" fill="#666666">[integer]</text>
<polygon fill="none" stroke="#000000" points="409,-1852.5 409,-1882.5 703,-1882.5 703,-1852.5 409,-1852.5"/>
<text text-anchor="start" x="416" y="-1863.9" font-family="Arial" font-size="14.00" fill="#000000">usr </text>
<text text-anchor="start" x="439.3338" y="-1863.9" font-family="Arial" font-size="14.00" fill="#666666">[integer]</text>
<polygon fill="none" stroke="#000000" points="409,-1822.5 409,-1852.5 703,-1852.5 703,-1822.5 409,-1822.5"/>
<text text-anchor="start" x="416" y="-1833.9" font-family="Arial" font-size="14.00" fill="#000000">title </text>
<text text-anchor="start" x="441.6676" y="-1833.9" font-family="Arial" font-size="14.00" fill="#666666">[text]</text>
<polygon fill="none" stroke="#000000" points="409,-1792.5 409,-1822.5 703,-1822.5 703,-1792.5 409,-1792.5"/>
<text text-anchor="start" x="416" y="-1803.9" font-family="Arial" font-size="14.00" fill="#000000">message </text>
<text text-anchor="start" x="476.6816" y="-1803.9" font-family="Arial" font-size="14.00" fill="#666666">[text]</text>
<polygon fill="none" stroke="#000000" points="409,-1762.5 409,-1792.5 703,-1792.5 703,-1762.5 409,-1762.5"/>
<text text-anchor="start" x="416" y="-1773.9" font-family="Arial" font-size="14.00" fill="#000000">create_date </text>
<text text-anchor="start" x="493.8106" y="-1773.9" font-family="Arial" font-size="14.00" fill="#666666">[timestamp with time zone]</text>
<polygon fill="none" stroke="#000000" points="409,-1732.5 409,-1762.5 703,-1762.5 703,-1732.5 409,-1732.5"/>
<text text-anchor="start" x="416" y="-1743.9" font-family="Arial" font-size="14.00" fill="#000000">deleted </text>
<text text-anchor="start" x="465.8008" y="-1743.9" font-family="Arial" font-size="14.00" fill="#666666">[boolean]</text>
<polygon fill="none" stroke="#000000" points="409,-1702.5 409,-1732.5 703,-1732.5 703,-1702.5 409,-1702.5"/>
<text text-anchor="start" x="416" y="-1713.9" font-family="Arial" font-size="14.00" fill="#000000">read_date </text>
<text text-anchor="start" x="482.92" y="-1713.9" font-family="Arial" font-size="14.00" fill="#666666">[timestamp with time zone]</text>
<polygon fill="none" stroke="#000000" points="409,-1672.5 409,-1702.5 703,-1702.5 703,-1672.5 409,-1672.5"/>
<text text-anchor="start" x="416" y="-1683.9" font-family="Arial" font-size="14.00" fill="#000000">sending_lib </text>
<text text-anchor="start" x="490.6886" y="-1683.9" font-family="Arial" font-size="14.00" fill="#666666">[integer]</text>
<polygon fill="none" stroke="#000000" stroke-width="3" points="407.5,-1671.5 407.5,-1949.5 704.5,-1949.5 704.5,-1671.5 407.5,-1671.5"/>
</g>
<!-- actor.usr -->
<g id="node2" class="node">
<title>actor.usr</title>
<polygon fill="#efefef" stroke="transparent" points="201,-1512.5 201,-1547.5 521,-1547.5 521,-1512.5 201,-1512.5"/>
<polygon fill="none" stroke="#000000" points="201,-1512.5 201,-1547.5 521,-1547.5 521,-1512.5 201,-1512.5"/>
<text text-anchor="start" x="262.2123" y="-1525.3" font-family="Arial Bold" font-size="18.00" fill="#000000">actor.usr</text>
<text text-anchor="start" x="332.2197" y="-1525.3" font-family="Arial" font-size="14.00" fill="#000000">    </text>
<text text-anchor="start" x="366.4245" y="-1525.3" font-family="Arial" font-size="14.00" fill="#666666">[BASE TABLE]</text>
<polygon fill="none" stroke="#000000" points="201,-1482.5 201,-1512.5 521,-1512.5 521,-1482.5 201,-1482.5"/>
<text text-anchor="start" x="208" y="-1493.9" font-family="Arial" font-size="14.00" fill="#000000">id    </text>
<text text-anchor="start" x="253.094" y="-1493.9" font-family="Arial" font-size="14.00" fill="#666666">[integer]</text>
<polygon fill="none" stroke="#000000" points="201,-1452.5 201,-1482.5 521,-1482.5 521,-1452.5 201,-1452.5"/>
<text text-anchor="start" x="208" y="-1463.9" font-family="Arial" font-size="14.00" fill="#000000">card    </text>
<text text-anchor="start" x="269.4306" y="-1463.9" font-family="Arial" font-size="14.00" fill="#666666">[integer]</text>
<polygon fill="none" stroke="#000000" points="201,-1422.5 201,-1452.5 521,-1452.5 521,-1422.5 201,-1422.5"/>
<text text-anchor="start" x="208" y="-1433.9" font-family="Arial" font-size="14.00" fill="#000000">profile    </text>
<text text-anchor="start" x="280.317" y="-1433.9" font-family="Arial" font-size="14.00" fill="#666666">[integer]</text>
<polygon fill="none" stroke="#000000" points="201,-1392.5 201,-1422.5 521,-1422.5 521,-1392.5 201,-1392.5"/>
<text text-anchor="start" x="208" y="-1403.9" font-family="Arial" font-size="14.00" fill="#000000">usrname    </text>
<text text-anchor="start" x="296.6564" y="-1403.9" font-family="Arial" font-size="14.00" fill="#666666">[text]</text>
<polygon fill="none" stroke="#000000" points="201,-1362.5 201,-1392.5 521,-1392.5 521,-1362.5 201,-1362.5"/>
<text text-anchor="start" x="208" y="-1373.9" font-family="Arial" font-size="14.00" fill="#000000">email    </text>
<text text-anchor="start" x="275.6438" y="-1373.9" font-family="Arial" font-size="14.00" fill="#666666">[text]</text>
<polygon fill="none" stroke="#000000" points="201,-1332.5 201,-1362.5 521,-1362.5 521,-1332.5 201,-1332.5"/>
<text text-anchor="start" x="208" y="-1343.9" font-family="Arial" font-size="14.00" fill="#000000">passwd    </text>
<text text-anchor="start" x="289.6592" y="-1343.9" font-family="Arial" font-size="14.00" fill="#666666">[text]</text>
<polygon fill="none" stroke="#000000" points="201,-1302.5 201,-1332.5 521,-1332.5 521,-1302.5 201,-1302.5"/>
<text text-anchor="start" x="208" y="-1313.9" font-family="Arial" font-size="14.00" fill="#000000">standing    </text>
<text text-anchor="start" x="295.115" y="-1313.9" font-family="Arial" font-size="14.00" fill="#666666">[integer]</text>
<polygon fill="none" stroke="#000000" points="201,-1272.5 201,-1302.5 521,-1302.5 521,-1272.5 201,-1272.5"/>
<text text-anchor="start" x="208" y="-1283.9" font-family="Arial" font-size="14.00" fill="#000000">ident_type    </text>
<text text-anchor="start" x="306.7882" y="-1283.9" font-family="Arial" font-size="14.00" fill="#666666">[integer]</text>
<polygon fill="none" stroke="#000000" points="201,-1242.5 201,-1272.5 521,-1272.5 521,-1242.5 201,-1242.5"/>
<text text-anchor="start" x="208" y="-1253.9" font-family="Arial" font-size="14.00" fill="#000000">ident_value    </text>
<text text-anchor="start" x="313.7868" y="-1253.9" font-family="Arial" font-size="14.00" fill="#666666">[text]</text>
<polygon fill="none" stroke="#000000" points="201,-1212.5 201,-1242.5 521,-1242.5 521,-1212.5 201,-1212.5"/>
<text text-anchor="start" x="208" y="-1223.9" font-family="Arial" font-size="14.00" fill="#000000">ident_type2    </text>
<text text-anchor="start" x="314.5708" y="-1223.9" font-family="Arial" font-size="14.00" fill="#666666">[integer]</text>
<polygon fill="none" stroke="#000000" points="201,-1182.5 201,-1212.5 521,-1212.5 521,-1182.5 201,-1182.5"/>
<text text-anchor="start" x="208" y="-1193.9" font-family="Arial" font-size="14.00" fill="#000000">ident_value2    </text>
<text text-anchor="start" x="321.5694" y="-1193.9" font-family="Arial" font-size="14.00" fill="#666666">[text]</text>
<polygon fill="none" stroke="#000000" points="201,-1152.5 201,-1182.5 521,-1182.5 521,-1152.5 201,-1152.5"/>
<text text-anchor="start" x="208" y="-1163.9" font-family="Arial" font-size="14.00" fill="#000000">net_access_level    </text>
<text text-anchor="start" x="349.5694" y="-1163.9" font-family="Arial" font-size="14.00" fill="#666666">[integer]</text>
<polygon fill="none" stroke="#000000" points="201,-1122.5 201,-1152.5 521,-1152.5 521,-1122.5 201,-1122.5"/>
<text text-anchor="start" x="208" y="-1133.9" font-family="Arial" font-size="14.00" fill="#000000">photo_url    </text>
<text text-anchor="start" x="300.5582" y="-1133.9" font-family="Arial" font-size="14.00" fill="#666666">[text]</text>
<polygon fill="none" stroke="#000000" points="201,-1092.5 201,-1122.5 521,-1122.5 521,-1092.5 201,-1092.5"/>
<text text-anchor="start" x="208" y="-1103.9" font-family="Arial" font-size="14.00" fill="#000000">prefix    </text>
<text text-anchor="start" x="276.4278" y="-1103.9" font-family="Arial" font-size="14.00" fill="#666666">[text]</text>
<polygon fill="none" stroke="#000000" points="201,-1062.5 201,-1092.5 521,-1092.5 521,-1062.5 201,-1062.5"/>
<text text-anchor="start" x="208" y="-1073.9" font-family="Arial" font-size="14.00" fill="#000000">first_given_name    </text>
<text text-anchor="start" x="348.7812" y="-1073.9" font-family="Arial" font-size="14.00" fill="#666666">[text]</text>
<polygon fill="none" stroke="#000000" points="201,-1032.5 201,-1062.5 521,-1062.5 521,-1032.5 201,-1032.5"/>
<text text-anchor="start" x="208" y="-1043.9" font-family="Arial" font-size="14.00" fill="#000000">second_given_name    </text>
<text text-anchor="start" x="371.3632" y="-1043.9" font-family="Arial" font-size="14.00" fill="#666666">[text]</text>
<polygon fill="none" stroke="#000000" points="201,-1002.5 201,-1032.5 521,-1032.5 521,-1002.5 201,-1002.5"/>
<text text-anchor="start" x="208" y="-1013.9" font-family="Arial" font-size="14.00" fill="#000000">family_name    </text>
<text text-anchor="start" x="321.5428" y="-1013.9" font-family="Arial" font-size="14.00" fill="#666666">[text]</text>
<polygon fill="none" stroke="#000000" points="201,-972.5 201,-1002.5 521,-1002.5 521,-972.5 201,-972.5"/>
<text text-anchor="start" x="208" y="-983.9" font-family="Arial" font-size="14.00" fill="#000000">suffix    </text>
<text text-anchor="start" x="274.8752" y="-983.9" font-family="Arial" font-size="14.00" fill="#666666">[text]</text>
<polygon fill="none" stroke="#000000" points="201,-942.5 201,-972.5 521,-972.5 521,-942.5 201,-942.5"/>
<text text-anchor="start" x="208" y="-953.9" font-family="Arial" font-size="14.00" fill="#000000">alias    </text>
<text text-anchor="start" x="270.9832" y="-953.9" font-family="Arial" font-size="14.00" fill="#666666">[text]</text>
<polygon fill="none" stroke="#000000" points="201,-912.5 201,-942.5 521,-942.5 521,-912.5 201,-912.5"/>
<text text-anchor="start" x="208" y="-923.9" font-family="Arial" font-size="14.00" fill="#000000">day_phone    </text>
<text text-anchor="start" x="311.4656" y="-923.9" font-family="Arial" font-size="14.00" fill="#666666">[text]</text>
<polygon fill="none" stroke="#000000" points="201,-882.5 201,-912.5 521,-912.5 521,-882.5 201,-882.5"/>
<text text-anchor="start" x="208" y="-893.9" font-family="Arial" font-size="14.00" fill="#000000">evening_phone    </text>
<text text-anchor="start" x="337.92" y="-893.9" font-family="Arial" font-size="14.00" fill="#666666">[text]</text>
<polygon fill="none" stroke="#000000" points="201,-852.5 201,-882.5 521,-882.5 521,-852.5 201,-852.5"/>
<text text-anchor="start" x="208" y="-863.9" font-family="Arial" font-size="14.00" fill="#000000">other_phone    </text>
<text text-anchor="start" x="320.7994" y="-863.9" font-family="Arial" font-size="14.00" fill="#666666">[text]</text>
<polygon fill="none" stroke="#000000" points="201,-822.5 201,-852.5 521,-852.5 521,-822.5 201,-822.5"/>
<text text-anchor="start" x="208" y="-833.9" font-family="Arial" font-size="14.00" fill="#000000">mailing_address    </text>
<text text-anchor="start" x="344.1066" y="-833.9" font-family="Arial" font-size="14.00" fill="#666666">[integer]</text>
<polygon fill="none" stroke="#000000" points="201,-792.5 201,-822.5 521,-822.5 521,-792.5 201,-792.5"/>
<text text-anchor="start" x="208" y="-803.9" font-family="Arial" font-size="14.00" fill="#000000">billing_address    </text>
<text text-anchor="start" x="335.5526" y="-803.9" font-family="Arial" font-size="14.00" fill="#666666">[integer]</text>
<polygon fill="none" stroke="#000000" points="201,-762.5 201,-792.5 521,-792.5 521,-762.5 201,-762.5"/>
<text text-anchor="start" x="208" y="-773.9" font-family="Arial" font-size="14.00" fill="#000000">home_ou    </text>
<text text-anchor="start" x="300.561" y="-773.9" font-family="Arial" font-size="14.00" fill="#666666">[integer]</text>
<polygon fill="none" stroke="#000000" points="201,-732.5 201,-762.5 521,-762.5 521,-732.5 201,-732.5"/>
<text text-anchor="start" x="208" y="-743.9" font-family="Arial" font-size="14.00" fill="#000000">dob    </text>
<text text-anchor="start" x="265.5526" y="-743.9" font-family="Arial" font-size="14.00" fill="#666666">[date]</text>
<polygon fill="none" stroke="#000000" points="201,-702.5 201,-732.5 521,-732.5 521,-702.5 201,-702.5"/>
<text text-anchor="start" x="208" y="-713.9" font-family="Arial" font-size="14.00" fill="#000000">active    </text>
<text text-anchor="start" x="278.7672" y="-713.9" font-family="Arial" font-size="14.00" fill="#666666">[boolean]</text>
<polygon fill="none" stroke="#000000" points="201,-672.5 201,-702.5 521,-702.5 521,-672.5 201,-672.5"/>
<text text-anchor="start" x="208" y="-683.9" font-family="Arial" font-size="14.00" fill="#000000">master_account    </text>
<text text-anchor="start" x="341.7854" y="-683.9" font-family="Arial" font-size="14.00" fill="#666666">[boolean]</text>
<polygon fill="none" stroke="#000000" points="201,-642.5 201,-672.5 521,-672.5 521,-642.5 201,-642.5"/>
<text text-anchor="start" x="208" y="-653.9" font-family="Arial" font-size="14.00" fill="#000000">super_user    </text>
<text text-anchor="start" x="312.2216" y="-653.9" font-family="Arial" font-size="14.00" fill="#666666">[boolean]</text>
<polygon fill="none" stroke="#000000" points="201,-612.5 201,-642.5 521,-642.5 521,-612.5 201,-612.5"/>
<text text-anchor="start" x="208" y="-623.9" font-family="Arial" font-size="14.00" fill="#000000">barred    </text>
<text text-anchor="start" x="282.6564" y="-623.9" font-family="Arial" font-size="14.00" fill="#666666">[boolean]</text>
<polygon fill="none" stroke="#000000" points="201,-582.5 201,-612.5 521,-612.5 521,-582.5 201,-582.5"/>
<text text-anchor="start" x="208" y="-593.9" font-family="Arial" font-size="14.00" fill="#000000">deleted    </text>
<text text-anchor="start" x="288.115" y="-593.9" font-family="Arial" font-size="14.00" fill="#666666">[boolean]</text>
<polygon fill="none" stroke="#000000" points="201,-552.5 201,-582.5 521,-582.5 521,-552.5 201,-552.5"/>
<text text-anchor="start" x="208" y="-563.9" font-family="Arial" font-size="14.00" fill="#000000">juvenile    </text>
<text text-anchor="start" x="289.655" y="-563.9" font-family="Arial" font-size="14.00" fill="#666666">[boolean]</text>
<polygon fill="none" stroke="#000000" points="201,-522.5 201,-552.5 521,-552.5 521,-522.5 201,-522.5"/>
<text text-anchor="start" x="208" y="-533.9" font-family="Arial" font-size="14.00" fill="#000000">usrgroup    </text>
<text text-anchor="start" x="297.439" y="-533.9" font-family="Arial" font-size="14.00" fill="#666666">[integer]</text>
<polygon fill="none" stroke="#000000" points="201,-492.5 201,-522.5 521,-522.5 521,-492.5 201,-492.5"/>
<text text-anchor="start" x="208" y="-503.9" font-family="Arial" font-size="14.00" fill="#000000">claims_returned_count    </text>
<text text-anchor="start" x="383.7896" y="-503.9" font-family="Arial" font-size="14.00" fill="#666666">[integer]</text>
<polygon fill="none" stroke="#000000" points="201,-462.5 201,-492.5 521,-492.5 521,-462.5 201,-462.5"/>
<text text-anchor="start" x="208" y="-473.9" font-family="Arial" font-size="14.00" fill="#000000">credit_forward_balance    </text>
<text text-anchor="start" x="387.6788" y="-473.9" font-family="Arial" font-size="14.00" fill="#666666">[numeric(6,2)]</text>
<polygon fill="none" stroke="#000000" points="201,-432.5 201,-462.5 521,-462.5 521,-432.5 201,-432.5"/>
<text text-anchor="start" x="208" y="-443.9" font-family="Arial" font-size="14.00" fill="#000000">last_xact_id    </text>
<text text-anchor="start" x="316.1122" y="-443.9" font-family="Arial" font-size="14.00" fill="#666666">[text]</text>
<polygon fill="none" stroke="#000000" points="201,-402.5 201,-432.5 521,-432.5 521,-402.5 201,-402.5"/>
<text text-anchor="start" x="208" y="-413.9" font-family="Arial" font-size="14.00" fill="#000000">alert_message    </text>
<text text-anchor="start" x="334.0014" y="-413.9" font-family="Arial" font-size="14.00" fill="#666666">[text]</text>
<polygon fill="none" stroke="#000000" points="201,-372.5 201,-402.5 521,-402.5 521,-372.5 201,-372.5"/>
<text text-anchor="start" x="208" y="-383.9" font-family="Arial" font-size="14.00" fill="#000000">create_date    </text>
<text text-anchor="start" x="316.1248" y="-383.9" font-family="Arial" font-size="14.00" fill="#666666">[timestamp with time zone]</text>
<polygon fill="none" stroke="#000000" points="201,-342.5 201,-372.5 521,-372.5 521,-342.5 201,-342.5"/>
<text text-anchor="start" x="208" y="-353.9" font-family="Arial" font-size="14.00" fill="#000000">expire_date    </text>
<text text-anchor="start" x="315.3408" y="-353.9" font-family="Arial" font-size="14.00" fill="#666666">[timestamp with time zone]</text>
<polygon fill="none" stroke="#000000" points="201,-312.5 201,-342.5 521,-342.5 521,-312.5 201,-312.5"/>
<text text-anchor="start" x="208" y="-323.9" font-family="Arial" font-size="14.00" fill="#000000">claims_never_checked_out_count    </text>
<text text-anchor="start" x="453.8246" y="-323.9" font-family="Arial" font-size="14.00" fill="#666666">[integer]</text>
<polygon fill="none" stroke="#000000" points="201,-282.5 201,-312.5 521,-312.5 521,-282.5 201,-282.5"/>
<text text-anchor="start" x="207.7609" y="-293.9" font-family="Arial" font-size="14.00" fill="#000000">last_update_time    </text>
<text text-anchor="start" x="348.5547" y="-293.9" font-family="Arial" font-size="14.00" fill="#666666">[timestamp with time zone]</text>
<polygon fill="none" stroke="#000000" points="201,-252.5 201,-282.5 521,-282.5 521,-252.5 201,-252.5"/>
<text text-anchor="start" x="208" y="-263.9" font-family="Arial" font-size="14.00" fill="#000000">pref_prefix    </text>
<text text-anchor="start" x="308.3268" y="-263.9" font-family="Arial" font-size="14.00" fill="#666666">[text]</text>
<polygon fill="none" stroke="#000000" points="201,-222.5 201,-252.5 521,-252.5 521,-222.5 201,-222.5"/>
<text text-anchor="start" x="208" y="-233.9" font-family="Arial" font-size="14.00" fill="#000000">pref_first_given_name    </text>
<text text-anchor="start" x="380.6802" y="-233.9" font-family="Arial" font-size="14.00" fill="#666666">[text]</text>
<polygon fill="none" stroke="#000000" points="201,-192.5 201,-222.5 521,-222.5 521,-192.5 201,-192.5"/>
<text text-anchor="start" x="208" y="-203.9" font-family="Arial" font-size="14.00" fill="#000000">pref_second_given_name    </text>
<text text-anchor="start" x="403.2622" y="-203.9" font-family="Arial" font-size="14.00" fill="#666666">[text]</text>
<polygon fill="none" stroke="#000000" points="201,-162.5 201,-192.5 521,-192.5 521,-162.5 201,-162.5"/>
<text text-anchor="start" x="208" y="-173.9" font-family="Arial" font-size="14.00" fill="#000000">pref_family_name    </text>
<text text-anchor="start" x="353.4418" y="-173.9" font-family="Arial" font-size="14.00" fill="#666666">[text]</text>
<polygon fill="none" stroke="#000000" points="201,-132.5 201,-162.5 521,-162.5 521,-132.5 201,-132.5"/>
<text text-anchor="start" x="208" y="-143.9" font-family="Arial" font-size="14.00" fill="#000000">pref_suffix    </text>
<text text-anchor="start" x="306.7742" y="-143.9" font-family="Arial" font-size="14.00" fill="#666666">[text]</text>
<polygon fill="none" stroke="#000000" points="201,-102.5 201,-132.5 521,-132.5 521,-102.5 201,-102.5"/>
<text text-anchor="start" x="208" y="-113.9" font-family="Arial" font-size="14.00" fill="#000000">name_keywords    </text>
<text text-anchor="start" x="344.1108" y="-113.9" font-family="Arial" font-size="14.00" fill="#666666">[text]</text>
<polygon fill="none" stroke="#000000" points="201,-72.5 201,-102.5 521,-102.5 521,-72.5 201,-72.5"/>
<text text-anchor="start" x="208" y="-83.9" font-family="Arial" font-size="14.00" fill="#000000">name_kw_tsvector    </text>
<text text-anchor="start" x="358.892" y="-83.9" font-family="Arial" font-size="14.00" fill="#666666">[tsvector]</text>
<polygon fill="none" stroke="#000000" points="201,-42.5 201,-72.5 521,-72.5 521,-42.5 201,-42.5"/>
<text text-anchor="start" x="208" y="-53.9" font-family="Arial" font-size="14.00" fill="#000000">guardian    </text>
<text text-anchor="start" x="296.6676" y="-53.9" font-family="Arial" font-size="14.00" fill="#666666">[text]</text>
</g>
<!-- actor.usr_message&#45;&gt;actor.usr -->
<g id="edge1" class="edge">
<title>actor.usr_message:usr&#45;&gt;actor.usr:id</title>
<path fill="none" stroke="#000000" d="M398.8468,-1866.9984C305.049,-1857.3399 348.1263,-1710.5076 409,-1627 439.7998,-1584.7484 490.2002,-1633.2516 521,-1591 545.4788,-1557.4195 562.5556,-1497.5 521,-1497.5"/>
<polygon fill="#000000" stroke="#000000" points="399.0122,-1867.0065 408.7779,-1871.9945 404.0061,-1867.2532 409,-1867.5 409,-1867.5 409,-1867.5 404.0061,-1867.2532 409.2221,-1863.0055 399.0122,-1867.0065 399.0122,-1867.0065"/>
<text text-anchor="start" x="7.4995" y="-1877.5" font-family="Arial" font-size="10.00" fill="#000000">FOREIGN KEY (usr) REFERENCES actor.usr(id) DEFERRABLE INITIALLY DEFERRED</text>
</g>
<!-- actor.org_unit -->
<g id="node3" class="node">
<title>actor.org_unit</title>
<polygon fill="#efefef" stroke="transparent" points="626,-972.5 626,-1007.5 877,-1007.5 877,-972.5 626,-972.5"/>
<polygon fill="none" stroke="#000000" points="626,-972.5 626,-1007.5 877,-1007.5 877,-972.5 626,-972.5"/>
<text text-anchor="start" x="632.7017" y="-985.3" font-family="Arial Bold" font-size="18.00" fill="#000000">actor.org_unit</text>
<text text-anchor="start" x="742.7303" y="-985.3" font-family="Arial" font-size="14.00" fill="#000000">    </text>
<text text-anchor="start" x="776.9351" y="-985.3" font-family="Arial" font-size="14.00" fill="#666666">[BASE TABLE]</text>
<polygon fill="none" stroke="#000000" points="626,-942.5 626,-972.5 877,-972.5 877,-942.5 626,-942.5"/>
<text text-anchor="start" x="633" y="-953.9" font-family="Arial" font-size="14.00" fill="#000000">id    </text>
<text text-anchor="start" x="678.094" y="-953.9" font-family="Arial" font-size="14.00" fill="#666666">[integer]</text>
<polygon fill="none" stroke="#000000" points="626,-912.5 626,-942.5 877,-942.5 877,-912.5 626,-912.5"/>
<text text-anchor="start" x="633" y="-923.9" font-family="Arial" font-size="14.00" fill="#000000">parent_ou    </text>
<text text-anchor="start" x="730.2342" y="-923.9" font-family="Arial" font-size="14.00" fill="#666666">[integer]</text>
<polygon fill="none" stroke="#000000" points="626,-882.5 626,-912.5 877,-912.5 877,-882.5 626,-882.5"/>
<text text-anchor="start" x="633" y="-893.9" font-family="Arial" font-size="14.00" fill="#000000">ou_type    </text>
<text text-anchor="start" x="717.0084" y="-893.9" font-family="Arial" font-size="14.00" fill="#666666">[integer]</text>
<polygon fill="none" stroke="#000000" points="626,-852.5 626,-882.5 877,-882.5 877,-852.5 626,-852.5"/>
<text text-anchor="start" x="633" y="-863.9" font-family="Arial" font-size="14.00" fill="#000000">ill_address    </text>
<text text-anchor="start" x="734.0982" y="-863.9" font-family="Arial" font-size="14.00" fill="#666666">[integer]</text>
<polygon fill="none" stroke="#000000" points="626,-822.5 626,-852.5 877,-852.5 877,-822.5 626,-822.5"/>
<text text-anchor="start" x="633" y="-833.9" font-family="Arial" font-size="14.00" fill="#000000">holds_address    </text>
<text text-anchor="start" x="758.2328" y="-833.9" font-family="Arial" font-size="14.00" fill="#666666">[integer]</text>
<polygon fill="none" stroke="#000000" points="626,-792.5 626,-822.5 877,-822.5 877,-792.5 626,-792.5"/>
<text text-anchor="start" x="633" y="-803.9" font-family="Arial" font-size="14.00" fill="#000000">mailing_address    </text>
<text text-anchor="start" x="769.1066" y="-803.9" font-family="Arial" font-size="14.00" fill="#666666">[integer]</text>
<polygon fill="none" stroke="#000000" points="626,-762.5 626,-792.5 877,-792.5 877,-762.5 626,-762.5"/>
<text text-anchor="start" x="633" y="-773.9" font-family="Arial" font-size="14.00" fill="#000000">billing_address    </text>
<text text-anchor="start" x="760.5526" y="-773.9" font-family="Arial" font-size="14.00" fill="#666666">[integer]</text>
<polygon fill="none" stroke="#000000" points="626,-732.5 626,-762.5 877,-762.5 877,-732.5 626,-732.5"/>
<text text-anchor="start" x="633" y="-743.9" font-family="Arial" font-size="14.00" fill="#000000">shortname    </text>
<text text-anchor="start" x="733.3296" y="-743.9" font-family="Arial" font-size="14.00" fill="#666666">[text]</text>
<polygon fill="none" stroke="#000000" points="626,-702.5 626,-732.5 877,-732.5 877,-702.5 626,-702.5"/>
<text text-anchor="start" x="633" y="-713.9" font-family="Arial" font-size="14.00" fill="#000000">name    </text>
<text text-anchor="start" x="702.2132" y="-713.9" font-family="Arial" font-size="14.00" fill="#666666">[text]</text>
<polygon fill="none" stroke="#000000" points="626,-672.5 626,-702.5 877,-702.5 877,-672.5 626,-672.5"/>
<text text-anchor="start" x="633" y="-683.9" font-family="Arial" font-size="14.00" fill="#000000">email    </text>
<text text-anchor="start" x="700.6438" y="-683.9" font-family="Arial" font-size="14.00" fill="#666666">[text]</text>
<polygon fill="none" stroke="#000000" points="626,-642.5 626,-672.5 877,-672.5 877,-642.5 626,-642.5"/>
<text text-anchor="start" x="633" y="-653.9" font-family="Arial" font-size="14.00" fill="#000000">phone    </text>
<text text-anchor="start" x="706.1178" y="-653.9" font-family="Arial" font-size="14.00" fill="#666666">[text]</text>
<polygon fill="none" stroke="#000000" points="626,-612.5 626,-642.5 877,-642.5 877,-612.5 626,-612.5"/>
<text text-anchor="start" x="633" y="-623.9" font-family="Arial" font-size="14.00" fill="#000000">opac_visible    </text>
<text text-anchor="start" x="744.2202" y="-623.9" font-family="Arial" font-size="14.00" fill="#666666">[boolean]</text>
<polygon fill="none" stroke="#000000" points="626,-582.5 626,-612.5 877,-612.5 877,-582.5 626,-582.5"/>
<text text-anchor="start" x="633" y="-593.9" font-family="Arial" font-size="14.00" fill="#000000">fiscal_calendar    </text>
<text text-anchor="start" x="760.554" y="-593.9" font-family="Arial" font-size="14.00" fill="#666666">[integer]</text>
</g>
<!-- actor.usr_message&#45;&gt;actor.org_unit -->
<g id="edge2" class="edge">
<title>actor.usr_message:sending_lib&#45;&gt;actor.org_unit:id</title>
<path fill="none" stroke="#000000" d="M713.1473,-1686.4117C848.2934,-1655.0753 466.5417,-957.5 626,-957.5"/>
<polygon fill="#000000" stroke="#000000" points="712.943,-1686.4335 702.5201,-1683.0257 707.9715,-1686.9668 703,-1687.5 703,-1687.5 703,-1687.5 707.9715,-1686.9668 703.4799,-1691.9743 712.943,-1686.4335 712.943,-1686.4335"/>
<text text-anchor="start" x="710.0415" y="-1697.5" font-family="Arial" font-size="10.00" fill="#000000">FOREIGN KEY (sending_lib) REFERENCES actor.org_unit(id) DEFERRABLE INITIALLY DEFERRED</text>
</g>
</g>
</svg>
