<?xml version="1.0" encoding="UTF-8" standalone="no"?>
<!DOCTYPE svg PUBLIC "-//W3C//DTD SVG 1.1//EN"
 "http://www.w3.org/Graphics/SVG/1.1/DTD/svg11.dtd">
<!-- Generated by graphviz version 2.40.1 (20161225.0304)
 -->
<!-- Title: actor.toolbar Pages: 1 -->
<svg width="1151pt" height="1942pt"
 viewBox="0.00 0.00 1150.50 1942.00" xmlns="http://www.w3.org/2000/svg" xmlns:xlink="http://www.w3.org/1999/xlink">
<g id="graph0" class="graph" transform="scale(1 1) rotate(0) translate(4 1938)">
<title>actor.toolbar</title>
<polygon fill="#ffffff" stroke="transparent" points="-4,4 -4,-1938 1146.5,-1938 1146.5,4 -4,4"/>
<!-- actor.toolbar -->
<g id="node1" class="node">
<title>actor.toolbar</title>
<polygon fill="#efefef" stroke="transparent" points="429.5,-1852.5 429.5,-1887.5 670.5,-1887.5 670.5,-1852.5 429.5,-1852.5"/>
<polygon fill="none" stroke="#000000" points="429.5,-1852.5 429.5,-1887.5 670.5,-1887.5 670.5,-1852.5 429.5,-1852.5"/>
<text text-anchor="start" x="436.2048" y="-1865.3" font-family="Arial Bold" font-size="18.00" fill="#000000">actor.toolbar</text>
<text text-anchor="start" x="536.2272" y="-1865.3" font-family="Arial" font-size="14.00" fill="#000000">    </text>
<text text-anchor="start" x="570.432" y="-1865.3" font-family="Arial" font-size="14.00" fill="#666666">[BASE TABLE]</text>
<polygon fill="none" stroke="#000000" points="429.5,-1822.5 429.5,-1852.5 670.5,-1852.5 670.5,-1822.5 429.5,-1822.5"/>
<text text-anchor="start" x="436.5" y="-1833.9" font-family="Arial" font-size="14.00" fill="#000000">id </text>
<text text-anchor="start" x="451.2798" y="-1833.9" font-family="Arial" font-size="14.00" fill="#666666">[bigint]</text>
<polygon fill="none" stroke="#000000" points="429.5,-1792.5 429.5,-1822.5 670.5,-1822.5 670.5,-1792.5 429.5,-1792.5"/>
<text text-anchor="start" x="436.5" y="-1803.9" font-family="Arial" font-size="14.00" fill="#000000">ws </text>
<text text-anchor="start" x="457.4972" y="-1803.9" font-family="Arial" font-size="14.00" fill="#666666">[integer]</text>
<polygon fill="none" stroke="#000000" points="429.5,-1762.5 429.5,-1792.5 670.5,-1792.5 670.5,-1762.5 429.5,-1762.5"/>
<text text-anchor="start" x="436.5" y="-1773.9" font-family="Arial" font-size="14.00" fill="#000000">org </text>
<text text-anchor="start" x="460.6164" y="-1773.9" font-family="Arial" font-size="14.00" fill="#666666">[integer]</text>
<polygon fill="none" stroke="#000000" points="429.5,-1732.5 429.5,-1762.5 670.5,-1762.5 670.5,-1732.5 429.5,-1732.5"/>
<text text-anchor="start" x="436.5" y="-1743.9" font-family="Arial" font-size="14.00" fill="#000000">usr </text>
<text text-anchor="start" x="459.8338" y="-1743.9" font-family="Arial" font-size="14.00" fill="#666666">[integer]</text>
<polygon fill="none" stroke="#000000" points="429.5,-1702.5 429.5,-1732.5 670.5,-1732.5 670.5,-1702.5 429.5,-1702.5"/>
<text text-anchor="start" x="436.5" y="-1713.9" font-family="Arial" font-size="14.00" fill="#000000">label </text>
<text text-anchor="start" x="469.9516" y="-1713.9" font-family="Arial" font-size="14.00" fill="#666666">[text]</text>
<polygon fill="none" stroke="#000000" points="429.5,-1672.5 429.5,-1702.5 670.5,-1702.5 670.5,-1672.5 429.5,-1672.5"/>
<text text-anchor="start" x="436.5" y="-1683.9" font-family="Arial" font-size="14.00" fill="#000000">layout </text>
<text text-anchor="start" x="477.7356" y="-1683.9" font-family="Arial" font-size="14.00" fill="#666666">[text]</text>
<polygon fill="none" stroke="#000000" stroke-width="3" points="427.5,-1671.5 427.5,-1889.5 671.5,-1889.5 671.5,-1671.5 427.5,-1671.5"/>
</g>
<!-- actor.workstation -->
<g id="node2" class="node">
<title>actor.workstation</title>
<polygon fill="#efefef" stroke="transparent" points="43.5,-822.5 43.5,-857.5 320.5,-857.5 320.5,-822.5 43.5,-822.5"/>
<polygon fill="none" stroke="#000000" points="43.5,-822.5 43.5,-857.5 320.5,-857.5 320.5,-822.5 43.5,-822.5"/>
<text text-anchor="start" x="50.2066" y="-835.3" font-family="Arial Bold" font-size="18.00" fill="#000000">actor.workstation</text>
<text text-anchor="start" x="186.2254" y="-835.3" font-family="Arial" font-size="14.00" fill="#000000">    </text>
<text text-anchor="start" x="220.4302" y="-835.3" font-family="Arial" font-size="14.00" fill="#666666">[BASE TABLE]</text>
<polygon fill="none" stroke="#000000" points="43.5,-792.5 43.5,-822.5 320.5,-822.5 320.5,-792.5 43.5,-792.5"/>
<text text-anchor="start" x="50.5" y="-803.9" font-family="Arial" font-size="14.00" fill="#000000">id    </text>
<text text-anchor="start" x="95.594" y="-803.9" font-family="Arial" font-size="14.00" fill="#666666">[integer]</text>
<polygon fill="none" stroke="#000000" points="43.5,-762.5 43.5,-792.5 320.5,-792.5 320.5,-762.5 43.5,-762.5"/>
<text text-anchor="start" x="50.5" y="-773.9" font-family="Arial" font-size="14.00" fill="#000000">name    </text>
<text text-anchor="start" x="119.7132" y="-773.9" font-family="Arial" font-size="14.00" fill="#666666">[text]</text>
<polygon fill="none" stroke="#000000" points="43.5,-732.5 43.5,-762.5 320.5,-762.5 320.5,-732.5 43.5,-732.5"/>
<text text-anchor="start" x="50.5" y="-743.9" font-family="Arial" font-size="14.00" fill="#000000">owning_lib    </text>
<text text-anchor="start" x="150.8268" y="-743.9" font-family="Arial" font-size="14.00" fill="#666666">[integer]</text>
</g>
<!-- actor.toolbar&#45;&gt;actor.workstation -->
<g id="edge1" class="edge">
<title>actor.toolbar:ws&#45;&gt;actor.workstation:id</title>
<path fill="none" stroke="#000000" d="M419.3076,-1807.0435C333.9663,-1798.9834 387.117,-1685.7374 371.5,-1591 364.4052,-1547.961 364.1199,-807.5 320.5,-807.5"/>
<polygon fill="#000000" stroke="#000000" points="419.51,-1807.0525 429.2986,-1811.9955 424.505,-1807.2762 429.5,-1807.5 429.5,-1807.5 429.5,-1807.5 424.505,-1807.2762 429.7014,-1803.0045 419.51,-1807.0525 419.51,-1807.0525"/>
<text text-anchor="start" x="58.2765" y="-1817.5" font-family="Arial" font-size="10.00" fill="#000000">FOREIGN KEY (ws) REFERENCES actor.workstation(id) ON DELETE CASCADE</text>
</g>
<!-- actor.org_unit -->
<g id="node3" class="node">
<title>actor.org_unit</title>
<polygon fill="#efefef" stroke="transparent" points="424.5,-972.5 424.5,-1007.5 675.5,-1007.5 675.5,-972.5 424.5,-972.5"/>
<polygon fill="none" stroke="#000000" points="424.5,-972.5 424.5,-1007.5 675.5,-1007.5 675.5,-972.5 424.5,-972.5"/>
<text text-anchor="start" x="431.2017" y="-985.3" font-family="Arial Bold" font-size="18.00" fill="#000000">actor.org_unit</text>
<text text-anchor="start" x="541.2303" y="-985.3" font-family="Arial" font-size="14.00" fill="#000000">    </text>
<text text-anchor="start" x="575.4351" y="-985.3" font-family="Arial" font-size="14.00" fill="#666666">[BASE TABLE]</text>
<polygon fill="none" stroke="#000000" points="424.5,-942.5 424.5,-972.5 675.5,-972.5 675.5,-942.5 424.5,-942.5"/>
<text text-anchor="start" x="431.5" y="-953.9" font-family="Arial" font-size="14.00" fill="#000000">id    </text>
<text text-anchor="start" x="476.594" y="-953.9" font-family="Arial" font-size="14.00" fill="#666666">[integer]</text>
<polygon fill="none" stroke="#000000" points="424.5,-912.5 424.5,-942.5 675.5,-942.5 675.5,-912.5 424.5,-912.5"/>
<text text-anchor="start" x="431.5" y="-923.9" font-family="Arial" font-size="14.00" fill="#000000">parent_ou    </text>
<text text-anchor="start" x="528.7342" y="-923.9" font-family="Arial" font-size="14.00" fill="#666666">[integer]</text>
<polygon fill="none" stroke="#000000" points="424.5,-882.5 424.5,-912.5 675.5,-912.5 675.5,-882.5 424.5,-882.5"/>
<text text-anchor="start" x="431.5" y="-893.9" font-family="Arial" font-size="14.00" fill="#000000">ou_type    </text>
<text text-anchor="start" x="515.5084" y="-893.9" font-family="Arial" font-size="14.00" fill="#666666">[integer]</text>
<polygon fill="none" stroke="#000000" points="424.5,-852.5 424.5,-882.5 675.5,-882.5 675.5,-852.5 424.5,-852.5"/>
<text text-anchor="start" x="431.5" y="-863.9" font-family="Arial" font-size="14.00" fill="#000000">ill_address    </text>
<text text-anchor="start" x="532.5982" y="-863.9" font-family="Arial" font-size="14.00" fill="#666666">[integer]</text>
<polygon fill="none" stroke="#000000" points="424.5,-822.5 424.5,-852.5 675.5,-852.5 675.5,-822.5 424.5,-822.5"/>
<text text-anchor="start" x="431.5" y="-833.9" font-family="Arial" font-size="14.00" fill="#000000">holds_address    </text>
<text text-anchor="start" x="556.7328" y="-833.9" font-family="Arial" font-size="14.00" fill="#666666">[integer]</text>
<polygon fill="none" stroke="#000000" points="424.5,-792.5 424.5,-822.5 675.5,-822.5 675.5,-792.5 424.5,-792.5"/>
<text text-anchor="start" x="431.5" y="-803.9" font-family="Arial" font-size="14.00" fill="#000000">mailing_address    </text>
<text text-anchor="start" x="567.6066" y="-803.9" font-family="Arial" font-size="14.00" fill="#666666">[integer]</text>
<polygon fill="none" stroke="#000000" points="424.5,-762.5 424.5,-792.5 675.5,-792.5 675.5,-762.5 424.5,-762.5"/>
<text text-anchor="start" x="431.5" y="-773.9" font-family="Arial" font-size="14.00" fill="#000000">billing_address    </text>
<text text-anchor="start" x="559.0526" y="-773.9" font-family="Arial" font-size="14.00" fill="#666666">[integer]</text>
<polygon fill="none" stroke="#000000" points="424.5,-732.5 424.5,-762.5 675.5,-762.5 675.5,-732.5 424.5,-732.5"/>
<text text-anchor="start" x="431.5" y="-743.9" font-family="Arial" font-size="14.00" fill="#000000">shortname    </text>
<text text-anchor="start" x="531.8296" y="-743.9" font-family="Arial" font-size="14.00" fill="#666666">[text]</text>
<polygon fill="none" stroke="#000000" points="424.5,-702.5 424.5,-732.5 675.5,-732.5 675.5,-702.5 424.5,-702.5"/>
<text text-anchor="start" x="431.5" y="-713.9" font-family="Arial" font-size="14.00" fill="#000000">name    </text>
<text text-anchor="start" x="500.7132" y="-713.9" font-family="Arial" font-size="14.00" fill="#666666">[text]</text>
<polygon fill="none" stroke="#000000" points="424.5,-672.5 424.5,-702.5 675.5,-702.5 675.5,-672.5 424.5,-672.5"/>
<text text-anchor="start" x="431.5" y="-683.9" font-family="Arial" font-size="14.00" fill="#000000">email    </text>
<text text-anchor="start" x="499.1438" y="-683.9" font-family="Arial" font-size="14.00" fill="#666666">[text]</text>
<polygon fill="none" stroke="#000000" points="424.5,-642.5 424.5,-672.5 675.5,-672.5 675.5,-642.5 424.5,-642.5"/>
<text text-anchor="start" x="431.5" y="-653.9" font-family="Arial" font-size="14.00" fill="#000000">phone    </text>
<text text-anchor="start" x="504.6178" y="-653.9" font-family="Arial" font-size="14.00" fill="#666666">[text]</text>
<polygon fill="none" stroke="#000000" points="424.5,-612.5 424.5,-642.5 675.5,-642.5 675.5,-612.5 424.5,-612.5"/>
<text text-anchor="start" x="431.5" y="-623.9" font-family="Arial" font-size="14.00" fill="#000000">opac_visible    </text>
<text text-anchor="start" x="542.7202" y="-623.9" font-family="Arial" font-size="14.00" fill="#666666">[boolean]</text>
<polygon fill="none" stroke="#000000" points="424.5,-582.5 424.5,-612.5 675.5,-612.5 675.5,-582.5 424.5,-582.5"/>
<text text-anchor="start" x="431.5" y="-593.9" font-family="Arial" font-size="14.00" fill="#000000">fiscal_calendar    </text>
<text text-anchor="start" x="559.054" y="-593.9" font-family="Arial" font-size="14.00" fill="#666666">[integer]</text>
</g>
<!-- actor.toolbar&#45;&gt;actor.org_unit -->
<g id="edge2" class="edge">
<title>actor.toolbar:org&#45;&gt;actor.org_unit:id</title>
<path fill="none" stroke="#000000" d="M422.3914,-1770.4111C383.5479,-1690.2649 381.435,-957.5 424.5,-957.5"/>
<polygon fill="#000000" stroke="#000000" points="422.4191,-1770.4387 426.3224,-1780.6864 425.9596,-1773.9693 429.5,-1777.5 429.5,-1777.5 429.5,-1777.5 425.9596,-1773.9693 432.6776,-1774.3136 422.4191,-1770.4387 422.4191,-1770.4387"/>
<text text-anchor="start" x="70.382" y="-1787.5" font-family="Arial" font-size="10.00" fill="#000000">FOREIGN KEY (org) REFERENCES actor.org_unit(id) ON DELETE CASCADE</text>
</g>
<!-- actor.usr -->
<g id="node4" class="node">
<title>actor.usr</title>
<polygon fill="#efefef" stroke="transparent" points="779.5,-1512.5 779.5,-1547.5 1099.5,-1547.5 1099.5,-1512.5 779.5,-1512.5"/>
<polygon fill="none" stroke="#000000" points="779.5,-1512.5 779.5,-1547.5 1099.5,-1547.5 1099.5,-1512.5 779.5,-1512.5"/>
<text text-anchor="start" x="840.7123" y="-1525.3" font-family="Arial Bold" font-size="18.00" fill="#000000">actor.usr</text>
<text text-anchor="start" x="910.7197" y="-1525.3" font-family="Arial" font-size="14.00" fill="#000000">    </text>
<text text-anchor="start" x="944.9245" y="-1525.3" font-family="Arial" font-size="14.00" fill="#666666">[BASE TABLE]</text>
<polygon fill="none" stroke="#000000" points="779.5,-1482.5 779.5,-1512.5 1099.5,-1512.5 1099.5,-1482.5 779.5,-1482.5"/>
<text text-anchor="start" x="786.5" y="-1493.9" font-family="Arial" font-size="14.00" fill="#000000">id    </text>
<text text-anchor="start" x="831.594" y="-1493.9" font-family="Arial" font-size="14.00" fill="#666666">[integer]</text>
<polygon fill="none" stroke="#000000" points="779.5,-1452.5 779.5,-1482.5 1099.5,-1482.5 1099.5,-1452.5 779.5,-1452.5"/>
<text text-anchor="start" x="786.5" y="-1463.9" font-family="Arial" font-size="14.00" fill="#000000">card    </text>
<text text-anchor="start" x="847.9306" y="-1463.9" font-family="Arial" font-size="14.00" fill="#666666">[integer]</text>
<polygon fill="none" stroke="#000000" points="779.5,-1422.5 779.5,-1452.5 1099.5,-1452.5 1099.5,-1422.5 779.5,-1422.5"/>
<text text-anchor="start" x="786.5" y="-1433.9" font-family="Arial" font-size="14.00" fill="#000000">profile    </text>
<text text-anchor="start" x="858.817" y="-1433.9" font-family="Arial" font-size="14.00" fill="#666666">[integer]</text>
<polygon fill="none" stroke="#000000" points="779.5,-1392.5 779.5,-1422.5 1099.5,-1422.5 1099.5,-1392.5 779.5,-1392.5"/>
<text text-anchor="start" x="786.5" y="-1403.9" font-family="Arial" font-size="14.00" fill="#000000">usrname    </text>
<text text-anchor="start" x="875.1564" y="-1403.9" font-family="Arial" font-size="14.00" fill="#666666">[text]</text>
<polygon fill="none" stroke="#000000" points="779.5,-1362.5 779.5,-1392.5 1099.5,-1392.5 1099.5,-1362.5 779.5,-1362.5"/>
<text text-anchor="start" x="786.5" y="-1373.9" font-family="Arial" font-size="14.00" fill="#000000">email    </text>
<text text-anchor="start" x="854.1438" y="-1373.9" font-family="Arial" font-size="14.00" fill="#666666">[text]</text>
<polygon fill="none" stroke="#000000" points="779.5,-1332.5 779.5,-1362.5 1099.5,-1362.5 1099.5,-1332.5 779.5,-1332.5"/>
<text text-anchor="start" x="786.5" y="-1343.9" font-family="Arial" font-size="14.00" fill="#000000">passwd    </text>
<text text-anchor="start" x="868.1592" y="-1343.9" font-family="Arial" font-size="14.00" fill="#666666">[text]</text>
<polygon fill="none" stroke="#000000" points="779.5,-1302.5 779.5,-1332.5 1099.5,-1332.5 1099.5,-1302.5 779.5,-1302.5"/>
<text text-anchor="start" x="786.5" y="-1313.9" font-family="Arial" font-size="14.00" fill="#000000">standing    </text>
<text text-anchor="start" x="873.615" y="-1313.9" font-family="Arial" font-size="14.00" fill="#666666">[integer]</text>
<polygon fill="none" stroke="#000000" points="779.5,-1272.5 779.5,-1302.5 1099.5,-1302.5 1099.5,-1272.5 779.5,-1272.5"/>
<text text-anchor="start" x="786.5" y="-1283.9" font-family="Arial" font-size="14.00" fill="#000000">ident_type    </text>
<text text-anchor="start" x="885.2882" y="-1283.9" font-family="Arial" font-size="14.00" fill="#666666">[integer]</text>
<polygon fill="none" stroke="#000000" points="779.5,-1242.5 779.5,-1272.5 1099.5,-1272.5 1099.5,-1242.5 779.5,-1242.5"/>
<text text-anchor="start" x="786.5" y="-1253.9" font-family="Arial" font-size="14.00" fill="#000000">ident_value    </text>
<text text-anchor="start" x="892.2868" y="-1253.9" font-family="Arial" font-size="14.00" fill="#666666">[text]</text>
<polygon fill="none" stroke="#000000" points="779.5,-1212.5 779.5,-1242.5 1099.5,-1242.5 1099.5,-1212.5 779.5,-1212.5"/>
<text text-anchor="start" x="786.5" y="-1223.9" font-family="Arial" font-size="14.00" fill="#000000">ident_type2    </text>
<text text-anchor="start" x="893.0708" y="-1223.9" font-family="Arial" font-size="14.00" fill="#666666">[integer]</text>
<polygon fill="none" stroke="#000000" points="779.5,-1182.5 779.5,-1212.5 1099.5,-1212.5 1099.5,-1182.5 779.5,-1182.5"/>
<text text-anchor="start" x="786.5" y="-1193.9" font-family="Arial" font-size="14.00" fill="#000000">ident_value2    </text>
<text text-anchor="start" x="900.0694" y="-1193.9" font-family="Arial" font-size="14.00" fill="#666666">[text]</text>
<polygon fill="none" stroke="#000000" points="779.5,-1152.5 779.5,-1182.5 1099.5,-1182.5 1099.5,-1152.5 779.5,-1152.5"/>
<text text-anchor="start" x="786.5" y="-1163.9" font-family="Arial" font-size="14.00" fill="#000000">net_access_level    </text>
<text text-anchor="start" x="928.0694" y="-1163.9" font-family="Arial" font-size="14.00" fill="#666666">[integer]</text>
<polygon fill="none" stroke="#000000" points="779.5,-1122.5 779.5,-1152.5 1099.5,-1152.5 1099.5,-1122.5 779.5,-1122.5"/>
<text text-anchor="start" x="786.5" y="-1133.9" font-family="Arial" font-size="14.00" fill="#000000">photo_url    </text>
<text text-anchor="start" x="879.0582" y="-1133.9" font-family="Arial" font-size="14.00" fill="#666666">[text]</text>
<polygon fill="none" stroke="#000000" points="779.5,-1092.5 779.5,-1122.5 1099.5,-1122.5 1099.5,-1092.5 779.5,-1092.5"/>
<text text-anchor="start" x="786.5" y="-1103.9" font-family="Arial" font-size="14.00" fill="#000000">prefix    </text>
<text text-anchor="start" x="854.9278" y="-1103.9" font-family="Arial" font-size="14.00" fill="#666666">[text]</text>
<polygon fill="none" stroke="#000000" points="779.5,-1062.5 779.5,-1092.5 1099.5,-1092.5 1099.5,-1062.5 779.5,-1062.5"/>
<text text-anchor="start" x="786.5" y="-1073.9" font-family="Arial" font-size="14.00" fill="#000000">first_given_name    </text>
<text text-anchor="start" x="927.2812" y="-1073.9" font-family="Arial" font-size="14.00" fill="#666666">[text]</text>
<polygon fill="none" stroke="#000000" points="779.5,-1032.5 779.5,-1062.5 1099.5,-1062.5 1099.5,-1032.5 779.5,-1032.5"/>
<text text-anchor="start" x="786.5" y="-1043.9" font-family="Arial" font-size="14.00" fill="#000000">second_given_name    </text>
<text text-anchor="start" x="949.8632" y="-1043.9" font-family="Arial" font-size="14.00" fill="#666666">[text]</text>
<polygon fill="none" stroke="#000000" points="779.5,-1002.5 779.5,-1032.5 1099.5,-1032.5 1099.5,-1002.5 779.5,-1002.5"/>
<text text-anchor="start" x="786.5" y="-1013.9" font-family="Arial" font-size="14.00" fill="#000000">family_name    </text>
<text text-anchor="start" x="900.0428" y="-1013.9" font-family="Arial" font-size="14.00" fill="#666666">[text]</text>
<polygon fill="none" stroke="#000000" points="779.5,-972.5 779.5,-1002.5 1099.5,-1002.5 1099.5,-972.5 779.5,-972.5"/>
<text text-anchor="start" x="786.5" y="-983.9" font-family="Arial" font-size="14.00" fill="#000000">suffix    </text>
<text text-anchor="start" x="853.3752" y="-983.9" font-family="Arial" font-size="14.00" fill="#666666">[text]</text>
<polygon fill="none" stroke="#000000" points="779.5,-942.5 779.5,-972.5 1099.5,-972.5 1099.5,-942.5 779.5,-942.5"/>
<text text-anchor="start" x="786.5" y="-953.9" font-family="Arial" font-size="14.00" fill="#000000">alias    </text>
<text text-anchor="start" x="849.4832" y="-953.9" font-family="Arial" font-size="14.00" fill="#666666">[text]</text>
<polygon fill="none" stroke="#000000" points="779.5,-912.5 779.5,-942.5 1099.5,-942.5 1099.5,-912.5 779.5,-912.5"/>
<text text-anchor="start" x="786.5" y="-923.9" font-family="Arial" font-size="14.00" fill="#000000">day_phone    </text>
<text text-anchor="start" x="889.9656" y="-923.9" font-family="Arial" font-size="14.00" fill="#666666">[text]</text>
<polygon fill="none" stroke="#000000" points="779.5,-882.5 779.5,-912.5 1099.5,-912.5 1099.5,-882.5 779.5,-882.5"/>
<text text-anchor="start" x="786.5" y="-893.9" font-family="Arial" font-size="14.00" fill="#000000">evening_phone    </text>
<text text-anchor="start" x="916.42" y="-893.9" font-family="Arial" font-size="14.00" fill="#666666">[text]</text>
<polygon fill="none" stroke="#000000" points="779.5,-852.5 779.5,-882.5 1099.5,-882.5 1099.5,-852.5 779.5,-852.5"/>
<text text-anchor="start" x="786.5" y="-863.9" font-family="Arial" font-size="14.00" fill="#000000">other_phone    </text>
<text text-anchor="start" x="899.2994" y="-863.9" font-family="Arial" font-size="14.00" fill="#666666">[text]</text>
<polygon fill="none" stroke="#000000" points="779.5,-822.5 779.5,-852.5 1099.5,-852.5 1099.5,-822.5 779.5,-822.5"/>
<text text-anchor="start" x="786.5" y="-833.9" font-family="Arial" font-size="14.00" fill="#000000">mailing_address    </text>
<text text-anchor="start" x="922.6066" y="-833.9" font-family="Arial" font-size="14.00" fill="#666666">[integer]</text>
<polygon fill="none" stroke="#000000" points="779.5,-792.5 779.5,-822.5 1099.5,-822.5 1099.5,-792.5 779.5,-792.5"/>
<text text-anchor="start" x="786.5" y="-803.9" font-family="Arial" font-size="14.00" fill="#000000">billing_address    </text>
<text text-anchor="start" x="914.0526" y="-803.9" font-family="Arial" font-size="14.00" fill="#666666">[integer]</text>
<polygon fill="none" stroke="#000000" points="779.5,-762.5 779.5,-792.5 1099.5,-792.5 1099.5,-762.5 779.5,-762.5"/>
<text text-anchor="start" x="786.5" y="-773.9" font-family="Arial" font-size="14.00" fill="#000000">home_ou    </text>
<text text-anchor="start" x="879.061" y="-773.9" font-family="Arial" font-size="14.00" fill="#666666">[integer]</text>
<polygon fill="none" stroke="#000000" points="779.5,-732.5 779.5,-762.5 1099.5,-762.5 1099.5,-732.5 779.5,-732.5"/>
<text text-anchor="start" x="786.5" y="-743.9" font-family="Arial" font-size="14.00" fill="#000000">dob    </text>
<text text-anchor="start" x="844.0526" y="-743.9" font-family="Arial" font-size="14.00" fill="#666666">[date]</text>
<polygon fill="none" stroke="#000000" points="779.5,-702.5 779.5,-732.5 1099.5,-732.5 1099.5,-702.5 779.5,-702.5"/>
<text text-anchor="start" x="786.5" y="-713.9" font-family="Arial" font-size="14.00" fill="#000000">active    </text>
<text text-anchor="start" x="857.2672" y="-713.9" font-family="Arial" font-size="14.00" fill="#666666">[boolean]</text>
<polygon fill="none" stroke="#000000" points="779.5,-672.5 779.5,-702.5 1099.5,-702.5 1099.5,-672.5 779.5,-672.5"/>
<text text-anchor="start" x="786.5" y="-683.9" font-family="Arial" font-size="14.00" fill="#000000">master_account    </text>
<text text-anchor="start" x="920.2854" y="-683.9" font-family="Arial" font-size="14.00" fill="#666666">[boolean]</text>
<polygon fill="none" stroke="#000000" points="779.5,-642.5 779.5,-672.5 1099.5,-672.5 1099.5,-642.5 779.5,-642.5"/>
<text text-anchor="start" x="786.5" y="-653.9" font-family="Arial" font-size="14.00" fill="#000000">super_user    </text>
<text text-anchor="start" x="890.7216" y="-653.9" font-family="Arial" font-size="14.00" fill="#666666">[boolean]</text>
<polygon fill="none" stroke="#000000" points="779.5,-612.5 779.5,-642.5 1099.5,-642.5 1099.5,-612.5 779.5,-612.5"/>
<text text-anchor="start" x="786.5" y="-623.9" font-family="Arial" font-size="14.00" fill="#000000">barred    </text>
<text text-anchor="start" x="861.1564" y="-623.9" font-family="Arial" font-size="14.00" fill="#666666">[boolean]</text>
<polygon fill="none" stroke="#000000" points="779.5,-582.5 779.5,-612.5 1099.5,-612.5 1099.5,-582.5 779.5,-582.5"/>
<text text-anchor="start" x="786.5" y="-593.9" font-family="Arial" font-size="14.00" fill="#000000">deleted    </text>
<text text-anchor="start" x="866.615" y="-593.9" font-family="Arial" font-size="14.00" fill="#666666">[boolean]</text>
<polygon fill="none" stroke="#000000" points="779.5,-552.5 779.5,-582.5 1099.5,-582.5 1099.5,-552.5 779.5,-552.5"/>
<text text-anchor="start" x="786.5" y="-563.9" font-family="Arial" font-size="14.00" fill="#000000">juvenile    </text>
<text text-anchor="start" x="868.155" y="-563.9" font-family="Arial" font-size="14.00" fill="#666666">[boolean]</text>
<polygon fill="none" stroke="#000000" points="779.5,-522.5 779.5,-552.5 1099.5,-552.5 1099.5,-522.5 779.5,-522.5"/>
<text text-anchor="start" x="786.5" y="-533.9" font-family="Arial" font-size="14.00" fill="#000000">usrgroup    </text>
<text text-anchor="start" x="875.939" y="-533.9" font-family="Arial" font-size="14.00" fill="#666666">[integer]</text>
<polygon fill="none" stroke="#000000" points="779.5,-492.5 779.5,-522.5 1099.5,-522.5 1099.5,-492.5 779.5,-492.5"/>
<text text-anchor="start" x="786.5" y="-503.9" font-family="Arial" font-size="14.00" fill="#000000">claims_returned_count    </text>
<text text-anchor="start" x="962.2896" y="-503.9" font-family="Arial" font-size="14.00" fill="#666666">[integer]</text>
<polygon fill="none" stroke="#000000" points="779.5,-462.5 779.5,-492.5 1099.5,-492.5 1099.5,-462.5 779.5,-462.5"/>
<text text-anchor="start" x="786.5" y="-473.9" font-family="Arial" font-size="14.00" fill="#000000">credit_forward_balance    </text>
<text text-anchor="start" x="966.1788" y="-473.9" font-family="Arial" font-size="14.00" fill="#666666">[numeric(6,2)]</text>
<polygon fill="none" stroke="#000000" points="779.5,-432.5 779.5,-462.5 1099.5,-462.5 1099.5,-432.5 779.5,-432.5"/>
<text text-anchor="start" x="786.5" y="-443.9" font-family="Arial" font-size="14.00" fill="#000000">last_xact_id    </text>
<text text-anchor="start" x="894.6122" y="-443.9" font-family="Arial" font-size="14.00" fill="#666666">[text]</text>
<polygon fill="none" stroke="#000000" points="779.5,-402.5 779.5,-432.5 1099.5,-432.5 1099.5,-402.5 779.5,-402.5"/>
<text text-anchor="start" x="786.5" y="-413.9" font-family="Arial" font-size="14.00" fill="#000000">alert_message    </text>
<text text-anchor="start" x="912.5014" y="-413.9" font-family="Arial" font-size="14.00" fill="#666666">[text]</text>
<polygon fill="none" stroke="#000000" points="779.5,-372.5 779.5,-402.5 1099.5,-402.5 1099.5,-372.5 779.5,-372.5"/>
<text text-anchor="start" x="786.5" y="-383.9" font-family="Arial" font-size="14.00" fill="#000000">create_date    </text>
<text text-anchor="start" x="894.6248" y="-383.9" font-family="Arial" font-size="14.00" fill="#666666">[timestamp with time zone]</text>
<polygon fill="none" stroke="#000000" points="779.5,-342.5 779.5,-372.5 1099.5,-372.5 1099.5,-342.5 779.5,-342.5"/>
<text text-anchor="start" x="786.5" y="-353.9" font-family="Arial" font-size="14.00" fill="#000000">expire_date    </text>
<text text-anchor="start" x="893.8408" y="-353.9" font-family="Arial" font-size="14.00" fill="#666666">[timestamp with time zone]</text>
<polygon fill="none" stroke="#000000" points="779.5,-312.5 779.5,-342.5 1099.5,-342.5 1099.5,-312.5 779.5,-312.5"/>
<text text-anchor="start" x="786.5" y="-323.9" font-family="Arial" font-size="14.00" fill="#000000">claims_never_checked_out_count    </text>
<text text-anchor="start" x="1032.3246" y="-323.9" font-family="Arial" font-size="14.00" fill="#666666">[integer]</text>
<polygon fill="none" stroke="#000000" points="779.5,-282.5 779.5,-312.5 1099.5,-312.5 1099.5,-282.5 779.5,-282.5"/>
<text text-anchor="start" x="786.2609" y="-293.9" font-family="Arial" font-size="14.00" fill="#000000">last_update_time    </text>
<text text-anchor="start" x="927.0547" y="-293.9" font-family="Arial" font-size="14.00" fill="#666666">[timestamp with time zone]</text>
<polygon fill="none" stroke="#000000" points="779.5,-252.5 779.5,-282.5 1099.5,-282.5 1099.5,-252.5 779.5,-252.5"/>
<text text-anchor="start" x="786.5" y="-263.9" font-family="Arial" font-size="14.00" fill="#000000">pref_prefix    </text>
<text text-anchor="start" x="886.8268" y="-263.9" font-family="Arial" font-size="14.00" fill="#666666">[text]</text>
<polygon fill="none" stroke="#000000" points="779.5,-222.5 779.5,-252.5 1099.5,-252.5 1099.5,-222.5 779.5,-222.5"/>
<text text-anchor="start" x="786.5" y="-233.9" font-family="Arial" font-size="14.00" fill="#000000">pref_first_given_name    </text>
<text text-anchor="start" x="959.1802" y="-233.9" font-family="Arial" font-size="14.00" fill="#666666">[text]</text>
<polygon fill="none" stroke="#000000" points="779.5,-192.5 779.5,-222.5 1099.5,-222.5 1099.5,-192.5 779.5,-192.5"/>
<text text-anchor="start" x="786.5" y="-203.9" font-family="Arial" font-size="14.00" fill="#000000">pref_second_given_name    </text>
<text text-anchor="start" x="981.7622" y="-203.9" font-family="Arial" font-size="14.00" fill="#666666">[text]</text>
<polygon fill="none" stroke="#000000" points="779.5,-162.5 779.5,-192.5 1099.5,-192.5 1099.5,-162.5 779.5,-162.5"/>
<text text-anchor="start" x="786.5" y="-173.9" font-family="Arial" font-size="14.00" fill="#000000">pref_family_name    </text>
<text text-anchor="start" x="931.9418" y="-173.9" font-family="Arial" font-size="14.00" fill="#666666">[text]</text>
<polygon fill="none" stroke="#000000" points="779.5,-132.5 779.5,-162.5 1099.5,-162.5 1099.5,-132.5 779.5,-132.5"/>
<text text-anchor="start" x="786.5" y="-143.9" font-family="Arial" font-size="14.00" fill="#000000">pref_suffix    </text>
<text text-anchor="start" x="885.2742" y="-143.9" font-family="Arial" font-size="14.00" fill="#666666">[text]</text>
<polygon fill="none" stroke="#000000" points="779.5,-102.5 779.5,-132.5 1099.5,-132.5 1099.5,-102.5 779.5,-102.5"/>
<text text-anchor="start" x="786.5" y="-113.9" font-family="Arial" font-size="14.00" fill="#000000">name_keywords    </text>
<text text-anchor="start" x="922.6108" y="-113.9" font-family="Arial" font-size="14.00" fill="#666666">[text]</text>
<polygon fill="none" stroke="#000000" points="779.5,-72.5 779.5,-102.5 1099.5,-102.5 1099.5,-72.5 779.5,-72.5"/>
<text text-anchor="start" x="786.5" y="-83.9" font-family="Arial" font-size="14.00" fill="#000000">name_kw_tsvector    </text>
<text text-anchor="start" x="937.392" y="-83.9" font-family="Arial" font-size="14.00" fill="#666666">[tsvector]</text>
<polygon fill="none" stroke="#000000" points="779.5,-42.5 779.5,-72.5 1099.5,-72.5 1099.5,-42.5 779.5,-42.5"/>
<text text-anchor="start" x="786.5" y="-53.9" font-family="Arial" font-size="14.00" fill="#000000">guardian    </text>
<text text-anchor="start" x="875.1676" y="-53.9" font-family="Arial" font-size="14.00" fill="#666666">[text]</text>
</g>
<!-- actor.toolbar&#45;&gt;actor.usr -->
<g id="edge3" class="edge">
<title>actor.toolbar:usr&#45;&gt;actor.usr:id</title>
<path fill="none" stroke="#000000" d="M680.4328,-1745.0257C729.9252,-1719.0614 722.4448,-1497.5 779.5,-1497.5"/>
<polygon fill="#000000" stroke="#000000" points="680.2035,-1745.0827 669.4122,-1743.1334 675.3517,-1746.2914 670.5,-1747.5 670.5,-1747.5 670.5,-1747.5 675.3517,-1746.2914 671.5878,-1751.8666 680.2035,-1745.0827 680.2035,-1745.0827"/>
<text text-anchor="start" x="677.7785" y="-1757.5" font-family="Arial" font-size="10.00" fill="#000000">FOREIGN KEY (usr) REFERENCES actor.usr(id) ON DELETE CASCADE</text>
</g>
</g>
</svg>
