<?xml version="1.0" encoding="UTF-8" standalone="no"?>
<!DOCTYPE svg PUBLIC "-//W3C//DTD SVG 1.1//EN"
 "http://www.w3.org/Graphics/SVG/1.1/DTD/svg11.dtd">
<!-- Generated by graphviz version 2.40.1 (20161225.0304)
 -->
<!-- Title: actor.usr_org_unit_opt_in Pages: 1 -->
<svg width="1282pt" height="1942pt"
 viewBox="0.00 0.00 1282.00 1942.00" xmlns="http://www.w3.org/2000/svg" xmlns:xlink="http://www.w3.org/1999/xlink">
<g id="graph0" class="graph" transform="scale(1 1) rotate(0) translate(4 1938)">
<title>actor.usr_org_unit_opt_in</title>
<polygon fill="#ffffff" stroke="transparent" points="-4,4 -4,-1938 1278,-1938 1278,4 -4,4"/>
<!-- actor.usr_org_unit_opt_in -->
<g id="node1" class="node">
<title>actor.usr_org_unit_opt_in</title>
<polygon fill="#efefef" stroke="transparent" points="453,-1852.5 453,-1887.5 798,-1887.5 798,-1852.5 453,-1852.5"/>
<polygon fill="none" stroke="#000000" points="453,-1852.5 453,-1887.5 798,-1887.5 798,-1852.5 453,-1852.5"/>
<text text-anchor="start" x="459.6857" y="-1865.3" font-family="Arial Bold" font-size="18.00" fill="#000000">actor.usr_org_unit_opt_in</text>
<text text-anchor="start" x="663.7463" y="-1865.3" font-family="Arial" font-size="14.00" fill="#000000">    </text>
<text text-anchor="start" x="697.9511" y="-1865.3" font-family="Arial" font-size="14.00" fill="#666666">[BASE TABLE]</text>
<polygon fill="none" stroke="#000000" points="453,-1822.5 453,-1852.5 798,-1852.5 798,-1822.5 453,-1822.5"/>
<text text-anchor="start" x="460" y="-1833.9" font-family="Arial" font-size="14.00" fill="#000000">id </text>
<text text-anchor="start" x="474.7798" y="-1833.9" font-family="Arial" font-size="14.00" fill="#666666">[integer]</text>
<polygon fill="none" stroke="#000000" points="453,-1792.5 453,-1822.5 798,-1822.5 798,-1792.5 453,-1792.5"/>
<text text-anchor="start" x="460" y="-1803.9" font-family="Arial" font-size="14.00" fill="#000000">org_unit </text>
<text text-anchor="start" x="514.4614" y="-1803.9" font-family="Arial" font-size="14.00" fill="#666666">[integer]</text>
<polygon fill="none" stroke="#000000" points="453,-1762.5 453,-1792.5 798,-1792.5 798,-1762.5 453,-1762.5"/>
<text text-anchor="start" x="460" y="-1773.9" font-family="Arial" font-size="14.00" fill="#000000">usr </text>
<text text-anchor="start" x="483.3338" y="-1773.9" font-family="Arial" font-size="14.00" fill="#666666">[integer]</text>
<polygon fill="none" stroke="#000000" points="453,-1732.5 453,-1762.5 798,-1762.5 798,-1732.5 453,-1732.5"/>
<text text-anchor="start" x="460" y="-1743.9" font-family="Arial" font-size="14.00" fill="#000000">staff </text>
<text text-anchor="start" x="490.345" y="-1743.9" font-family="Arial" font-size="14.00" fill="#666666">[integer]</text>
<polygon fill="none" stroke="#000000" points="453,-1702.5 453,-1732.5 798,-1732.5 798,-1702.5 453,-1702.5"/>
<text text-anchor="start" x="460" y="-1713.9" font-family="Arial" font-size="14.00" fill="#000000">opt_in_ts </text>
<text text-anchor="start" x="520.6914" y="-1713.9" font-family="Arial" font-size="14.00" fill="#666666">[timestamp with time zone]</text>
<polygon fill="none" stroke="#000000" points="453,-1672.5 453,-1702.5 798,-1702.5 798,-1672.5 453,-1672.5"/>
<text text-anchor="start" x="460" y="-1683.9" font-family="Arial" font-size="14.00" fill="#000000">opt_in_ws </text>
<text text-anchor="start" x="526.9074" y="-1683.9" font-family="Arial" font-size="14.00" fill="#666666">[integer]</text>
<polygon fill="none" stroke="#000000" stroke-width="3" points="451,-1671.5 451,-1889.5 799,-1889.5 799,-1671.5 451,-1671.5"/>
</g>
<!-- actor.org_unit -->
<g id="node2" class="node">
<title>actor.org_unit</title>
<polygon fill="#efefef" stroke="transparent" points="111,-972.5 111,-1007.5 362,-1007.5 362,-972.5 111,-972.5"/>
<polygon fill="none" stroke="#000000" points="111,-972.5 111,-1007.5 362,-1007.5 362,-972.5 111,-972.5"/>
<text text-anchor="start" x="117.7017" y="-985.3" font-family="Arial Bold" font-size="18.00" fill="#000000">actor.org_unit</text>
<text text-anchor="start" x="227.7303" y="-985.3" font-family="Arial" font-size="14.00" fill="#000000">    </text>
<text text-anchor="start" x="261.9351" y="-985.3" font-family="Arial" font-size="14.00" fill="#666666">[BASE TABLE]</text>
<polygon fill="none" stroke="#000000" points="111,-942.5 111,-972.5 362,-972.5 362,-942.5 111,-942.5"/>
<text text-anchor="start" x="118" y="-953.9" font-family="Arial" font-size="14.00" fill="#000000">id    </text>
<text text-anchor="start" x="163.094" y="-953.9" font-family="Arial" font-size="14.00" fill="#666666">[integer]</text>
<polygon fill="none" stroke="#000000" points="111,-912.5 111,-942.5 362,-942.5 362,-912.5 111,-912.5"/>
<text text-anchor="start" x="118" y="-923.9" font-family="Arial" font-size="14.00" fill="#000000">parent_ou    </text>
<text text-anchor="start" x="215.2342" y="-923.9" font-family="Arial" font-size="14.00" fill="#666666">[integer]</text>
<polygon fill="none" stroke="#000000" points="111,-882.5 111,-912.5 362,-912.5 362,-882.5 111,-882.5"/>
<text text-anchor="start" x="118" y="-893.9" font-family="Arial" font-size="14.00" fill="#000000">ou_type    </text>
<text text-anchor="start" x="202.0084" y="-893.9" font-family="Arial" font-size="14.00" fill="#666666">[integer]</text>
<polygon fill="none" stroke="#000000" points="111,-852.5 111,-882.5 362,-882.5 362,-852.5 111,-852.5"/>
<text text-anchor="start" x="118" y="-863.9" font-family="Arial" font-size="14.00" fill="#000000">ill_address    </text>
<text text-anchor="start" x="219.0982" y="-863.9" font-family="Arial" font-size="14.00" fill="#666666">[integer]</text>
<polygon fill="none" stroke="#000000" points="111,-822.5 111,-852.5 362,-852.5 362,-822.5 111,-822.5"/>
<text text-anchor="start" x="118" y="-833.9" font-family="Arial" font-size="14.00" fill="#000000">holds_address    </text>
<text text-anchor="start" x="243.2328" y="-833.9" font-family="Arial" font-size="14.00" fill="#666666">[integer]</text>
<polygon fill="none" stroke="#000000" points="111,-792.5 111,-822.5 362,-822.5 362,-792.5 111,-792.5"/>
<text text-anchor="start" x="118" y="-803.9" font-family="Arial" font-size="14.00" fill="#000000">mailing_address    </text>
<text text-anchor="start" x="254.1066" y="-803.9" font-family="Arial" font-size="14.00" fill="#666666">[integer]</text>
<polygon fill="none" stroke="#000000" points="111,-762.5 111,-792.5 362,-792.5 362,-762.5 111,-762.5"/>
<text text-anchor="start" x="118" y="-773.9" font-family="Arial" font-size="14.00" fill="#000000">billing_address    </text>
<text text-anchor="start" x="245.5526" y="-773.9" font-family="Arial" font-size="14.00" fill="#666666">[integer]</text>
<polygon fill="none" stroke="#000000" points="111,-732.5 111,-762.5 362,-762.5 362,-732.5 111,-732.5"/>
<text text-anchor="start" x="118" y="-743.9" font-family="Arial" font-size="14.00" fill="#000000">shortname    </text>
<text text-anchor="start" x="218.3296" y="-743.9" font-family="Arial" font-size="14.00" fill="#666666">[text]</text>
<polygon fill="none" stroke="#000000" points="111,-702.5 111,-732.5 362,-732.5 362,-702.5 111,-702.5"/>
<text text-anchor="start" x="118" y="-713.9" font-family="Arial" font-size="14.00" fill="#000000">name    </text>
<text text-anchor="start" x="187.2132" y="-713.9" font-family="Arial" font-size="14.00" fill="#666666">[text]</text>
<polygon fill="none" stroke="#000000" points="111,-672.5 111,-702.5 362,-702.5 362,-672.5 111,-672.5"/>
<text text-anchor="start" x="118" y="-683.9" font-family="Arial" font-size="14.00" fill="#000000">email    </text>
<text text-anchor="start" x="185.6438" y="-683.9" font-family="Arial" font-size="14.00" fill="#666666">[text]</text>
<polygon fill="none" stroke="#000000" points="111,-642.5 111,-672.5 362,-672.5 362,-642.5 111,-642.5"/>
<text text-anchor="start" x="118" y="-653.9" font-family="Arial" font-size="14.00" fill="#000000">phone    </text>
<text text-anchor="start" x="191.1178" y="-653.9" font-family="Arial" font-size="14.00" fill="#666666">[text]</text>
<polygon fill="none" stroke="#000000" points="111,-612.5 111,-642.5 362,-642.5 362,-612.5 111,-612.5"/>
<text text-anchor="start" x="118" y="-623.9" font-family="Arial" font-size="14.00" fill="#000000">opac_visible    </text>
<text text-anchor="start" x="229.2202" y="-623.9" font-family="Arial" font-size="14.00" fill="#666666">[boolean]</text>
<polygon fill="none" stroke="#000000" points="111,-582.5 111,-612.5 362,-612.5 362,-582.5 111,-582.5"/>
<text text-anchor="start" x="118" y="-593.9" font-family="Arial" font-size="14.00" fill="#000000">fiscal_calendar    </text>
<text text-anchor="start" x="245.554" y="-593.9" font-family="Arial" font-size="14.00" fill="#666666">[integer]</text>
</g>
<!-- actor.usr_org_unit_opt_in&#45;&gt;actor.org_unit -->
<g id="edge1" class="edge">
<title>actor.usr_org_unit_opt_in:org_unit&#45;&gt;actor.org_unit:id</title>
<path fill="none" stroke="#000000" d="M443.207,-1804.0753C365.0941,-1745.5846 453.4593,-957.5 362,-957.5"/>
<polygon fill="#000000" stroke="#000000" points="443.5606,-1804.1988 451.5145,-1811.7477 448.2803,-1805.8494 453,-1807.5 453,-1807.5 453,-1807.5 448.2803,-1805.8494 454.4855,-1803.2523 443.5606,-1804.1988 443.5606,-1804.1988"/>
<text text-anchor="start" x="7.2655" y="-1817.5" font-family="Arial" font-size="10.00" fill="#000000">FOREIGN KEY (org_unit) REFERENCES actor.org_unit(id) DEFERRABLE INITIALLY DEFERRED</text>
</g>
<!-- actor.usr -->
<g id="node3" class="node">
<title>actor.usr</title>
<polygon fill="#efefef" stroke="transparent" points="466,-1512.5 466,-1547.5 786,-1547.5 786,-1512.5 466,-1512.5"/>
<polygon fill="none" stroke="#000000" points="466,-1512.5 466,-1547.5 786,-1547.5 786,-1512.5 466,-1512.5"/>
<text text-anchor="start" x="527.2123" y="-1525.3" font-family="Arial Bold" font-size="18.00" fill="#000000">actor.usr</text>
<text text-anchor="start" x="597.2197" y="-1525.3" font-family="Arial" font-size="14.00" fill="#000000">    </text>
<text text-anchor="start" x="631.4245" y="-1525.3" font-family="Arial" font-size="14.00" fill="#666666">[BASE TABLE]</text>
<polygon fill="none" stroke="#000000" points="466,-1482.5 466,-1512.5 786,-1512.5 786,-1482.5 466,-1482.5"/>
<text text-anchor="start" x="473" y="-1493.9" font-family="Arial" font-size="14.00" fill="#000000">id    </text>
<text text-anchor="start" x="518.094" y="-1493.9" font-family="Arial" font-size="14.00" fill="#666666">[integer]</text>
<polygon fill="none" stroke="#000000" points="466,-1452.5 466,-1482.5 786,-1482.5 786,-1452.5 466,-1452.5"/>
<text text-anchor="start" x="473" y="-1463.9" font-family="Arial" font-size="14.00" fill="#000000">card    </text>
<text text-anchor="start" x="534.4306" y="-1463.9" font-family="Arial" font-size="14.00" fill="#666666">[integer]</text>
<polygon fill="none" stroke="#000000" points="466,-1422.5 466,-1452.5 786,-1452.5 786,-1422.5 466,-1422.5"/>
<text text-anchor="start" x="473" y="-1433.9" font-family="Arial" font-size="14.00" fill="#000000">profile    </text>
<text text-anchor="start" x="545.317" y="-1433.9" font-family="Arial" font-size="14.00" fill="#666666">[integer]</text>
<polygon fill="none" stroke="#000000" points="466,-1392.5 466,-1422.5 786,-1422.5 786,-1392.5 466,-1392.5"/>
<text text-anchor="start" x="473" y="-1403.9" font-family="Arial" font-size="14.00" fill="#000000">usrname    </text>
<text text-anchor="start" x="561.6564" y="-1403.9" font-family="Arial" font-size="14.00" fill="#666666">[text]</text>
<polygon fill="none" stroke="#000000" points="466,-1362.5 466,-1392.5 786,-1392.5 786,-1362.5 466,-1362.5"/>
<text text-anchor="start" x="473" y="-1373.9" font-family="Arial" font-size="14.00" fill="#000000">email    </text>
<text text-anchor="start" x="540.6438" y="-1373.9" font-family="Arial" font-size="14.00" fill="#666666">[text]</text>
<polygon fill="none" stroke="#000000" points="466,-1332.5 466,-1362.5 786,-1362.5 786,-1332.5 466,-1332.5"/>
<text text-anchor="start" x="473" y="-1343.9" font-family="Arial" font-size="14.00" fill="#000000">passwd    </text>
<text text-anchor="start" x="554.6592" y="-1343.9" font-family="Arial" font-size="14.00" fill="#666666">[text]</text>
<polygon fill="none" stroke="#000000" points="466,-1302.5 466,-1332.5 786,-1332.5 786,-1302.5 466,-1302.5"/>
<text text-anchor="start" x="473" y="-1313.9" font-family="Arial" font-size="14.00" fill="#000000">standing    </text>
<text text-anchor="start" x="560.115" y="-1313.9" font-family="Arial" font-size="14.00" fill="#666666">[integer]</text>
<polygon fill="none" stroke="#000000" points="466,-1272.5 466,-1302.5 786,-1302.5 786,-1272.5 466,-1272.5"/>
<text text-anchor="start" x="473" y="-1283.9" font-family="Arial" font-size="14.00" fill="#000000">ident_type    </text>
<text text-anchor="start" x="571.7882" y="-1283.9" font-family="Arial" font-size="14.00" fill="#666666">[integer]</text>
<polygon fill="none" stroke="#000000" points="466,-1242.5 466,-1272.5 786,-1272.5 786,-1242.5 466,-1242.5"/>
<text text-anchor="start" x="473" y="-1253.9" font-family="Arial" font-size="14.00" fill="#000000">ident_value    </text>
<text text-anchor="start" x="578.7868" y="-1253.9" font-family="Arial" font-size="14.00" fill="#666666">[text]</text>
<polygon fill="none" stroke="#000000" points="466,-1212.5 466,-1242.5 786,-1242.5 786,-1212.5 466,-1212.5"/>
<text text-anchor="start" x="473" y="-1223.9" font-family="Arial" font-size="14.00" fill="#000000">ident_type2    </text>
<text text-anchor="start" x="579.5708" y="-1223.9" font-family="Arial" font-size="14.00" fill="#666666">[integer]</text>
<polygon fill="none" stroke="#000000" points="466,-1182.5 466,-1212.5 786,-1212.5 786,-1182.5 466,-1182.5"/>
<text text-anchor="start" x="473" y="-1193.9" font-family="Arial" font-size="14.00" fill="#000000">ident_value2    </text>
<text text-anchor="start" x="586.5694" y="-1193.9" font-family="Arial" font-size="14.00" fill="#666666">[text]</text>
<polygon fill="none" stroke="#000000" points="466,-1152.5 466,-1182.5 786,-1182.5 786,-1152.5 466,-1152.5"/>
<text text-anchor="start" x="473" y="-1163.9" font-family="Arial" font-size="14.00" fill="#000000">net_access_level    </text>
<text text-anchor="start" x="614.5694" y="-1163.9" font-family="Arial" font-size="14.00" fill="#666666">[integer]</text>
<polygon fill="none" stroke="#000000" points="466,-1122.5 466,-1152.5 786,-1152.5 786,-1122.5 466,-1122.5"/>
<text text-anchor="start" x="473" y="-1133.9" font-family="Arial" font-size="14.00" fill="#000000">photo_url    </text>
<text text-anchor="start" x="565.5582" y="-1133.9" font-family="Arial" font-size="14.00" fill="#666666">[text]</text>
<polygon fill="none" stroke="#000000" points="466,-1092.5 466,-1122.5 786,-1122.5 786,-1092.5 466,-1092.5"/>
<text text-anchor="start" x="473" y="-1103.9" font-family="Arial" font-size="14.00" fill="#000000">prefix    </text>
<text text-anchor="start" x="541.4278" y="-1103.9" font-family="Arial" font-size="14.00" fill="#666666">[text]</text>
<polygon fill="none" stroke="#000000" points="466,-1062.5 466,-1092.5 786,-1092.5 786,-1062.5 466,-1062.5"/>
<text text-anchor="start" x="473" y="-1073.9" font-family="Arial" font-size="14.00" fill="#000000">first_given_name    </text>
<text text-anchor="start" x="613.7812" y="-1073.9" font-family="Arial" font-size="14.00" fill="#666666">[text]</text>
<polygon fill="none" stroke="#000000" points="466,-1032.5 466,-1062.5 786,-1062.5 786,-1032.5 466,-1032.5"/>
<text text-anchor="start" x="473" y="-1043.9" font-family="Arial" font-size="14.00" fill="#000000">second_given_name    </text>
<text text-anchor="start" x="636.3632" y="-1043.9" font-family="Arial" font-size="14.00" fill="#666666">[text]</text>
<polygon fill="none" stroke="#000000" points="466,-1002.5 466,-1032.5 786,-1032.5 786,-1002.5 466,-1002.5"/>
<text text-anchor="start" x="473" y="-1013.9" font-family="Arial" font-size="14.00" fill="#000000">family_name    </text>
<text text-anchor="start" x="586.5428" y="-1013.9" font-family="Arial" font-size="14.00" fill="#666666">[text]</text>
<polygon fill="none" stroke="#000000" points="466,-972.5 466,-1002.5 786,-1002.5 786,-972.5 466,-972.5"/>
<text text-anchor="start" x="473" y="-983.9" font-family="Arial" font-size="14.00" fill="#000000">suffix    </text>
<text text-anchor="start" x="539.8752" y="-983.9" font-family="Arial" font-size="14.00" fill="#666666">[text]</text>
<polygon fill="none" stroke="#000000" points="466,-942.5 466,-972.5 786,-972.5 786,-942.5 466,-942.5"/>
<text text-anchor="start" x="473" y="-953.9" font-family="Arial" font-size="14.00" fill="#000000">alias    </text>
<text text-anchor="start" x="535.9832" y="-953.9" font-family="Arial" font-size="14.00" fill="#666666">[text]</text>
<polygon fill="none" stroke="#000000" points="466,-912.5 466,-942.5 786,-942.5 786,-912.5 466,-912.5"/>
<text text-anchor="start" x="473" y="-923.9" font-family="Arial" font-size="14.00" fill="#000000">day_phone    </text>
<text text-anchor="start" x="576.4656" y="-923.9" font-family="Arial" font-size="14.00" fill="#666666">[text]</text>
<polygon fill="none" stroke="#000000" points="466,-882.5 466,-912.5 786,-912.5 786,-882.5 466,-882.5"/>
<text text-anchor="start" x="473" y="-893.9" font-family="Arial" font-size="14.00" fill="#000000">evening_phone    </text>
<text text-anchor="start" x="602.92" y="-893.9" font-family="Arial" font-size="14.00" fill="#666666">[text]</text>
<polygon fill="none" stroke="#000000" points="466,-852.5 466,-882.5 786,-882.5 786,-852.5 466,-852.5"/>
<text text-anchor="start" x="473" y="-863.9" font-family="Arial" font-size="14.00" fill="#000000">other_phone    </text>
<text text-anchor="start" x="585.7994" y="-863.9" font-family="Arial" font-size="14.00" fill="#666666">[text]</text>
<polygon fill="none" stroke="#000000" points="466,-822.5 466,-852.5 786,-852.5 786,-822.5 466,-822.5"/>
<text text-anchor="start" x="473" y="-833.9" font-family="Arial" font-size="14.00" fill="#000000">mailing_address    </text>
<text text-anchor="start" x="609.1066" y="-833.9" font-family="Arial" font-size="14.00" fill="#666666">[integer]</text>
<polygon fill="none" stroke="#000000" points="466,-792.5 466,-822.5 786,-822.5 786,-792.5 466,-792.5"/>
<text text-anchor="start" x="473" y="-803.9" font-family="Arial" font-size="14.00" fill="#000000">billing_address    </text>
<text text-anchor="start" x="600.5526" y="-803.9" font-family="Arial" font-size="14.00" fill="#666666">[integer]</text>
<polygon fill="none" stroke="#000000" points="466,-762.5 466,-792.5 786,-792.5 786,-762.5 466,-762.5"/>
<text text-anchor="start" x="473" y="-773.9" font-family="Arial" font-size="14.00" fill="#000000">home_ou    </text>
<text text-anchor="start" x="565.561" y="-773.9" font-family="Arial" font-size="14.00" fill="#666666">[integer]</text>
<polygon fill="none" stroke="#000000" points="466,-732.5 466,-762.5 786,-762.5 786,-732.5 466,-732.5"/>
<text text-anchor="start" x="473" y="-743.9" font-family="Arial" font-size="14.00" fill="#000000">dob    </text>
<text text-anchor="start" x="530.5526" y="-743.9" font-family="Arial" font-size="14.00" fill="#666666">[date]</text>
<polygon fill="none" stroke="#000000" points="466,-702.5 466,-732.5 786,-732.5 786,-702.5 466,-702.5"/>
<text text-anchor="start" x="473" y="-713.9" font-family="Arial" font-size="14.00" fill="#000000">active    </text>
<text text-anchor="start" x="543.7672" y="-713.9" font-family="Arial" font-size="14.00" fill="#666666">[boolean]</text>
<polygon fill="none" stroke="#000000" points="466,-672.5 466,-702.5 786,-702.5 786,-672.5 466,-672.5"/>
<text text-anchor="start" x="473" y="-683.9" font-family="Arial" font-size="14.00" fill="#000000">master_account    </text>
<text text-anchor="start" x="606.7854" y="-683.9" font-family="Arial" font-size="14.00" fill="#666666">[boolean]</text>
<polygon fill="none" stroke="#000000" points="466,-642.5 466,-672.5 786,-672.5 786,-642.5 466,-642.5"/>
<text text-anchor="start" x="473" y="-653.9" font-family="Arial" font-size="14.00" fill="#000000">super_user    </text>
<text text-anchor="start" x="577.2216" y="-653.9" font-family="Arial" font-size="14.00" fill="#666666">[boolean]</text>
<polygon fill="none" stroke="#000000" points="466,-612.5 466,-642.5 786,-642.5 786,-612.5 466,-612.5"/>
<text text-anchor="start" x="473" y="-623.9" font-family="Arial" font-size="14.00" fill="#000000">barred    </text>
<text text-anchor="start" x="547.6564" y="-623.9" font-family="Arial" font-size="14.00" fill="#666666">[boolean]</text>
<polygon fill="none" stroke="#000000" points="466,-582.5 466,-612.5 786,-612.5 786,-582.5 466,-582.5"/>
<text text-anchor="start" x="473" y="-593.9" font-family="Arial" font-size="14.00" fill="#000000">deleted    </text>
<text text-anchor="start" x="553.115" y="-593.9" font-family="Arial" font-size="14.00" fill="#666666">[boolean]</text>
<polygon fill="none" stroke="#000000" points="466,-552.5 466,-582.5 786,-582.5 786,-552.5 466,-552.5"/>
<text text-anchor="start" x="473" y="-563.9" font-family="Arial" font-size="14.00" fill="#000000">juvenile    </text>
<text text-anchor="start" x="554.655" y="-563.9" font-family="Arial" font-size="14.00" fill="#666666">[boolean]</text>
<polygon fill="none" stroke="#000000" points="466,-522.5 466,-552.5 786,-552.5 786,-522.5 466,-522.5"/>
<text text-anchor="start" x="473" y="-533.9" font-family="Arial" font-size="14.00" fill="#000000">usrgroup    </text>
<text text-anchor="start" x="562.439" y="-533.9" font-family="Arial" font-size="14.00" fill="#666666">[integer]</text>
<polygon fill="none" stroke="#000000" points="466,-492.5 466,-522.5 786,-522.5 786,-492.5 466,-492.5"/>
<text text-anchor="start" x="473" y="-503.9" font-family="Arial" font-size="14.00" fill="#000000">claims_returned_count    </text>
<text text-anchor="start" x="648.7896" y="-503.9" font-family="Arial" font-size="14.00" fill="#666666">[integer]</text>
<polygon fill="none" stroke="#000000" points="466,-462.5 466,-492.5 786,-492.5 786,-462.5 466,-462.5"/>
<text text-anchor="start" x="473" y="-473.9" font-family="Arial" font-size="14.00" fill="#000000">credit_forward_balance    </text>
<text text-anchor="start" x="652.6788" y="-473.9" font-family="Arial" font-size="14.00" fill="#666666">[numeric(6,2)]</text>
<polygon fill="none" stroke="#000000" points="466,-432.5 466,-462.5 786,-462.5 786,-432.5 466,-432.5"/>
<text text-anchor="start" x="473" y="-443.9" font-family="Arial" font-size="14.00" fill="#000000">last_xact_id    </text>
<text text-anchor="start" x="581.1122" y="-443.9" font-family="Arial" font-size="14.00" fill="#666666">[text]</text>
<polygon fill="none" stroke="#000000" points="466,-402.5 466,-432.5 786,-432.5 786,-402.5 466,-402.5"/>
<text text-anchor="start" x="473" y="-413.9" font-family="Arial" font-size="14.00" fill="#000000">alert_message    </text>
<text text-anchor="start" x="599.0014" y="-413.9" font-family="Arial" font-size="14.00" fill="#666666">[text]</text>
<polygon fill="none" stroke="#000000" points="466,-372.5 466,-402.5 786,-402.5 786,-372.5 466,-372.5"/>
<text text-anchor="start" x="473" y="-383.9" font-family="Arial" font-size="14.00" fill="#000000">create_date    </text>
<text text-anchor="start" x="581.1248" y="-383.9" font-family="Arial" font-size="14.00" fill="#666666">[timestamp with time zone]</text>
<polygon fill="none" stroke="#000000" points="466,-342.5 466,-372.5 786,-372.5 786,-342.5 466,-342.5"/>
<text text-anchor="start" x="473" y="-353.9" font-family="Arial" font-size="14.00" fill="#000000">expire_date    </text>
<text text-anchor="start" x="580.3408" y="-353.9" font-family="Arial" font-size="14.00" fill="#666666">[timestamp with time zone]</text>
<polygon fill="none" stroke="#000000" points="466,-312.5 466,-342.5 786,-342.5 786,-312.5 466,-312.5"/>
<text text-anchor="start" x="473" y="-323.9" font-family="Arial" font-size="14.00" fill="#000000">claims_never_checked_out_count    </text>
<text text-anchor="start" x="718.8246" y="-323.9" font-family="Arial" font-size="14.00" fill="#666666">[integer]</text>
<polygon fill="none" stroke="#000000" points="466,-282.5 466,-312.5 786,-312.5 786,-282.5 466,-282.5"/>
<text text-anchor="start" x="472.7609" y="-293.9" font-family="Arial" font-size="14.00" fill="#000000">last_update_time    </text>
<text text-anchor="start" x="613.5547" y="-293.9" font-family="Arial" font-size="14.00" fill="#666666">[timestamp with time zone]</text>
<polygon fill="none" stroke="#000000" points="466,-252.5 466,-282.5 786,-282.5 786,-252.5 466,-252.5"/>
<text text-anchor="start" x="473" y="-263.9" font-family="Arial" font-size="14.00" fill="#000000">pref_prefix    </text>
<text text-anchor="start" x="573.3268" y="-263.9" font-family="Arial" font-size="14.00" fill="#666666">[text]</text>
<polygon fill="none" stroke="#000000" points="466,-222.5 466,-252.5 786,-252.5 786,-222.5 466,-222.5"/>
<text text-anchor="start" x="473" y="-233.9" font-family="Arial" font-size="14.00" fill="#000000">pref_first_given_name    </text>
<text text-anchor="start" x="645.6802" y="-233.9" font-family="Arial" font-size="14.00" fill="#666666">[text]</text>
<polygon fill="none" stroke="#000000" points="466,-192.5 466,-222.5 786,-222.5 786,-192.5 466,-192.5"/>
<text text-anchor="start" x="473" y="-203.9" font-family="Arial" font-size="14.00" fill="#000000">pref_second_given_name    </text>
<text text-anchor="start" x="668.2622" y="-203.9" font-family="Arial" font-size="14.00" fill="#666666">[text]</text>
<polygon fill="none" stroke="#000000" points="466,-162.5 466,-192.5 786,-192.5 786,-162.5 466,-162.5"/>
<text text-anchor="start" x="473" y="-173.9" font-family="Arial" font-size="14.00" fill="#000000">pref_family_name    </text>
<text text-anchor="start" x="618.4418" y="-173.9" font-family="Arial" font-size="14.00" fill="#666666">[text]</text>
<polygon fill="none" stroke="#000000" points="466,-132.5 466,-162.5 786,-162.5 786,-132.5 466,-132.5"/>
<text text-anchor="start" x="473" y="-143.9" font-family="Arial" font-size="14.00" fill="#000000">pref_suffix    </text>
<text text-anchor="start" x="571.7742" y="-143.9" font-family="Arial" font-size="14.00" fill="#666666">[text]</text>
<polygon fill="none" stroke="#000000" points="466,-102.5 466,-132.5 786,-132.5 786,-102.5 466,-102.5"/>
<text text-anchor="start" x="473" y="-113.9" font-family="Arial" font-size="14.00" fill="#000000">name_keywords    </text>
<text text-anchor="start" x="609.1108" y="-113.9" font-family="Arial" font-size="14.00" fill="#666666">[text]</text>
<polygon fill="none" stroke="#000000" points="466,-72.5 466,-102.5 786,-102.5 786,-72.5 466,-72.5"/>
<text text-anchor="start" x="473" y="-83.9" font-family="Arial" font-size="14.00" fill="#000000">name_kw_tsvector    </text>
<text text-anchor="start" x="623.892" y="-83.9" font-family="Arial" font-size="14.00" fill="#666666">[tsvector]</text>
<polygon fill="none" stroke="#000000" points="466,-42.5 466,-72.5 786,-72.5 786,-42.5 466,-42.5"/>
<text text-anchor="start" x="473" y="-53.9" font-family="Arial" font-size="14.00" fill="#000000">guardian    </text>
<text text-anchor="start" x="561.6676" y="-53.9" font-family="Arial" font-size="14.00" fill="#666666">[text]</text>
</g>
<!-- actor.usr_org_unit_opt_in&#45;&gt;actor.usr -->
<g id="edge2" class="edge">
<title>actor.usr_org_unit_opt_in:usr&#45;&gt;actor.usr:id</title>
<path fill="none" stroke="#000000" d="M808.1854,-1776.6211C862.3921,-1766.6363 840.2323,-1674.0593 798,-1627 748.4345,-1571.7694 515.5655,-1646.2306 466,-1591 438.2448,-1560.0725 424.4444,-1497.5 466,-1497.5"/>
<polygon fill="#000000" stroke="#000000" points="807.963,-1776.6402 797.6131,-1773.0167 802.9815,-1777.0701 798,-1777.5 798,-1777.5 798,-1777.5 802.9815,-1777.0701 798.3869,-1781.9833 807.963,-1776.6402 807.963,-1776.6402"/>
<text text-anchor="start" x="805.4995" y="-1787.5" font-family="Arial" font-size="10.00" fill="#000000">FOREIGN KEY (usr) REFERENCES actor.usr(id) DEFERRABLE INITIALLY DEFERRED</text>
</g>
<!-- actor.usr_org_unit_opt_in&#45;&gt;actor.usr -->
<g id="edge3" class="edge">
<title>actor.usr_org_unit_opt_in:staff&#45;&gt;actor.usr:id</title>
<path fill="none" stroke="#000000" d="M808,-1746.4083C849.0399,-1736.6654 831.3249,-1664.1338 798,-1627 748.4345,-1571.7694 515.5655,-1646.2306 466,-1591 438.2448,-1560.0725 424.4444,-1497.5 466,-1497.5"/>
<polygon fill="#000000" stroke="#000000" points="807.9409,-1746.4146 797.5116,-1743.0266 802.9705,-1746.9573 798,-1747.5 798,-1747.5 798,-1747.5 802.9705,-1746.9573 798.4884,-1751.9734 807.9409,-1746.4146 807.9409,-1746.4146"/>
<text text-anchor="start" x="804.9955" y="-1757.5" font-family="Arial" font-size="10.00" fill="#000000">FOREIGN KEY (staff) REFERENCES actor.usr(id) DEFERRABLE INITIALLY DEFERRED</text>
</g>
<!-- actor.workstation -->
<g id="node4" class="node">
<title>actor.workstation</title>
<polygon fill="#efefef" stroke="transparent" points="891,-822.5 891,-857.5 1168,-857.5 1168,-822.5 891,-822.5"/>
<polygon fill="none" stroke="#000000" points="891,-822.5 891,-857.5 1168,-857.5 1168,-822.5 891,-822.5"/>
<text text-anchor="start" x="897.7066" y="-835.3" font-family="Arial Bold" font-size="18.00" fill="#000000">actor.workstation</text>
<text text-anchor="start" x="1033.7254" y="-835.3" font-family="Arial" font-size="14.00" fill="#000000">    </text>
<text text-anchor="start" x="1067.9302" y="-835.3" font-family="Arial" font-size="14.00" fill="#666666">[BASE TABLE]</text>
<polygon fill="none" stroke="#000000" points="891,-792.5 891,-822.5 1168,-822.5 1168,-792.5 891,-792.5"/>
<text text-anchor="start" x="898" y="-803.9" font-family="Arial" font-size="14.00" fill="#000000">id    </text>
<text text-anchor="start" x="943.094" y="-803.9" font-family="Arial" font-size="14.00" fill="#666666">[integer]</text>
<polygon fill="none" stroke="#000000" points="891,-762.5 891,-792.5 1168,-792.5 1168,-762.5 891,-762.5"/>
<text text-anchor="start" x="898" y="-773.9" font-family="Arial" font-size="14.00" fill="#000000">name    </text>
<text text-anchor="start" x="967.2132" y="-773.9" font-family="Arial" font-size="14.00" fill="#666666">[text]</text>
<polygon fill="none" stroke="#000000" points="891,-732.5 891,-762.5 1168,-762.5 1168,-732.5 891,-732.5"/>
<text text-anchor="start" x="898" y="-743.9" font-family="Arial" font-size="14.00" fill="#000000">owning_lib    </text>
<text text-anchor="start" x="998.3268" y="-743.9" font-family="Arial" font-size="14.00" fill="#666666">[integer]</text>
</g>
<!-- actor.usr_org_unit_opt_in&#45;&gt;actor.workstation -->
<g id="edge4" class="edge">
<title>actor.usr_org_unit_opt_in:opt_in_ws&#45;&gt;actor.workstation:id</title>
<path fill="none" stroke="#000000" d="M808.1949,-1686.4961C841.8204,-1679.125 828.2736,-1632.4942 838,-1591 857.913,-1506.0481 803.7455,-807.5 891,-807.5"/>
<polygon fill="#000000" stroke="#000000" points="807.9519,-1686.52 797.559,-1683.0217 802.9759,-1687.01 798,-1687.5 798,-1687.5 798,-1687.5 802.9759,-1687.01 798.441,-1691.9783 807.9519,-1686.52 807.9519,-1686.52"/>
<text text-anchor="start" x="804.601" y="-1697.5" font-family="Arial" font-size="10.00" fill="#000000">FOREIGN KEY (opt_in_ws) REFERENCES actor.workstation(id) DEFERRABLE INITIALLY DEFERRED</text>
</g>
</g>
</svg>
