<?xml version="1.0" encoding="UTF-8" standalone="no"?>
<!DOCTYPE svg PUBLIC "-//W3C//DTD SVG 1.1//EN"
 "http://www.w3.org/Graphics/SVG/1.1/DTD/svg11.dtd">
<!-- Generated by graphviz version 2.40.1 (20161225.0304)
 -->
<!-- Title: actor.search_query Pages: 1 -->
<svg width="823pt" height="502pt"
 viewBox="0.00 0.00 823.00 502.00" xmlns="http://www.w3.org/2000/svg" xmlns:xlink="http://www.w3.org/1999/xlink">
<g id="graph0" class="graph" transform="scale(1 1) rotate(0) translate(4 498)">
<title>actor.search_query</title>
<polygon fill="#ffffff" stroke="transparent" points="-4,4 -4,-498 819,-498 819,4 -4,4"/>
<!-- actor.search_query -->
<g id="node1" class="node">
<title>actor.search_query</title>
<polygon fill="#efefef" stroke="transparent" points="429,-135.5 429,-170.5 724,-170.5 724,-135.5 429,-135.5"/>
<polygon fill="none" stroke="#000000" points="429,-135.5 429,-170.5 724,-170.5 724,-135.5 429,-135.5"/>
<text text-anchor="start" x="435.6976" y="-148.3" font-family="Arial Bold" font-size="18.00" fill="#000000">actor.search_query</text>
<text text-anchor="start" x="589.7344" y="-148.3" font-family="Arial" font-size="14.00" fill="#000000">    </text>
<text text-anchor="start" x="623.9392" y="-148.3" font-family="Arial" font-size="14.00" fill="#666666">[BASE TABLE]</text>
<polygon fill="none" stroke="#000000" points="429,-105.5 429,-135.5 724,-135.5 724,-105.5 429,-105.5"/>
<text text-anchor="start" x="436" y="-116.9" font-family="Arial" font-size="14.00" fill="#000000">id </text>
<text text-anchor="start" x="450.7798" y="-116.9" font-family="Arial" font-size="14.00" fill="#666666">[integer]</text>
<polygon fill="none" stroke="#000000" points="429,-75.5 429,-105.5 724,-105.5 724,-75.5 429,-75.5"/>
<text text-anchor="start" x="436" y="-86.9" font-family="Arial" font-size="14.00" fill="#000000">label </text>
<text text-anchor="start" x="469.4516" y="-86.9" font-family="Arial" font-size="14.00" fill="#666666">[text]</text>
<polygon fill="none" stroke="#000000" points="429,-45.5 429,-75.5 724,-75.5 724,-45.5 429,-45.5"/>
<text text-anchor="start" x="436" y="-56.9" font-family="Arial" font-size="14.00" fill="#000000">query_text </text>
<text text-anchor="start" x="505.2454" y="-56.9" font-family="Arial" font-size="14.00" fill="#666666">[text]</text>
<polygon fill="none" stroke="#000000" stroke-width="3" points="427,-44.5 427,-172.5 725,-172.5 725,-44.5 427,-44.5"/>
</g>
<!-- actor.search_filter_group_entry -->
<g id="node2" class="node">
<title>actor.search_filter_group_entry</title>
<polygon fill="#efefef" stroke="transparent" points="382,-415.5 382,-450.5 772,-450.5 772,-415.5 382,-415.5"/>
<polygon fill="none" stroke="#000000" points="382,-415.5 382,-450.5 772,-450.5 772,-415.5 382,-415.5"/>
<text text-anchor="start" x="388.6893" y="-428.3" font-family="Arial Bold" font-size="18.00" fill="#000000">actor.search_filter_group_entry</text>
<text text-anchor="start" x="637.7427" y="-428.3" font-family="Arial" font-size="14.00" fill="#000000">    </text>
<text text-anchor="start" x="671.9475" y="-428.3" font-family="Arial" font-size="14.00" fill="#666666">[BASE TABLE]</text>
<polygon fill="none" stroke="#000000" points="382,-385.5 382,-415.5 772,-415.5 772,-385.5 382,-385.5"/>
<text text-anchor="start" x="389" y="-396.9" font-family="Arial" font-size="14.00" fill="#000000">id    </text>
<text text-anchor="start" x="434.094" y="-396.9" font-family="Arial" font-size="14.00" fill="#666666">[integer]</text>
<polygon fill="none" stroke="#000000" points="382,-355.5 382,-385.5 772,-385.5 772,-355.5 382,-355.5"/>
<text text-anchor="start" x="389" y="-366.9" font-family="Arial" font-size="14.00" fill="#000000">grp    </text>
<text text-anchor="start" x="443.4306" y="-366.9" font-family="Arial" font-size="14.00" fill="#666666">[integer]</text>
<polygon fill="none" stroke="#000000" points="382,-325.5 382,-355.5 772,-355.5 772,-325.5 382,-325.5"/>
<text text-anchor="start" x="389" y="-336.9" font-family="Arial" font-size="14.00" fill="#000000">pos    </text>
<text text-anchor="start" x="445.77" y="-336.9" font-family="Arial" font-size="14.00" fill="#666666">[integer]</text>
<polygon fill="none" stroke="#000000" points="382,-295.5 382,-325.5 772,-325.5 772,-295.5 382,-295.5"/>
<text text-anchor="start" x="389" y="-306.9" font-family="Arial" font-size="14.00" fill="#000000">query    </text>
<text text-anchor="start" x="458.2132" y="-306.9" font-family="Arial" font-size="14.00" fill="#666666">[integer]</text>
</g>
<!-- actor.search_filter_group_entry&#45;&gt;actor.search_query -->
<g id="edge1" class="edge">
<title>actor.search_filter_group_entry:query&#45;&gt;actor.search_query:id</title>
<path fill="none" stroke="#000000" d="M577.819,-285.2132C587.8786,-227.1194 687.8447,-277.295 724,-217 746.0564,-180.2172 766.8889,-120.5 724,-120.5"/>
<polygon fill="#000000" stroke="#000000" points="577.7938,-285.5315 572.5142,-295.1428 577.3969,-290.5158 577,-295.5 577,-295.5 577,-295.5 577.3969,-290.5158 581.4858,-295.8572 577.7938,-285.5315 577.7938,-285.5315"/>
<text text-anchor="start" x="7.318" y="-305.5" font-family="Arial" font-size="10.00" fill="#000000">FOREIGN KEY (query) REFERENCES actor.search_query(id) ON DELETE CASCADE DEFERRABLE INITIALLY DEFERRED</text>
</g>
</g>
</svg>
