<?xml version="1.0" encoding="UTF-8" standalone="no"?>
<!DOCTYPE svg PUBLIC "-//W3C//DTD SVG 1.1//EN"
 "http://www.w3.org/Graphics/SVG/1.1/DTD/svg11.dtd">
<!-- Generated by graphviz version 2.40.1 (20161225.0304)
 -->
<!-- Title: actor.address_alert Pages: 1 -->
<svg width="793pt" height="1102pt"
 viewBox="0.00 0.00 792.50 1102.00" xmlns="http://www.w3.org/2000/svg" xmlns:xlink="http://www.w3.org/1999/xlink">
<g id="graph0" class="graph" transform="scale(1 1) rotate(0) translate(4 1098)">
<title>actor.address_alert</title>
<polygon fill="#ffffff" stroke="transparent" points="-4,4 -4,-1098 788.5,-1098 788.5,4 -4,4"/>
<!-- actor.address_alert -->
<g id="node1" class="node">
<title>actor.address_alert</title>
<polygon fill="#efefef" stroke="transparent" points="444,-1012.5 444,-1047.5 739,-1047.5 739,-1012.5 444,-1012.5"/>
<polygon fill="none" stroke="#000000" points="444,-1012.5 444,-1047.5 739,-1047.5 739,-1012.5 444,-1012.5"/>
<text text-anchor="start" x="450.6994" y="-1025.3" font-family="Arial Bold" font-size="18.00" fill="#000000">actor.address_alert</text>
<text text-anchor="start" x="604.7326" y="-1025.3" font-family="Arial" font-size="14.00" fill="#000000">    </text>
<text text-anchor="start" x="638.9374" y="-1025.3" font-family="Arial" font-size="14.00" fill="#666666">[BASE TABLE]</text>
<polygon fill="none" stroke="#000000" points="444,-982.5 444,-1012.5 739,-1012.5 739,-982.5 444,-982.5"/>
<text text-anchor="start" x="451" y="-993.9" font-family="Arial" font-size="14.00" fill="#000000">id </text>
<text text-anchor="start" x="465.7798" y="-993.9" font-family="Arial" font-size="14.00" fill="#666666">[integer]</text>
<polygon fill="none" stroke="#000000" points="444,-952.5 444,-982.5 739,-982.5 739,-952.5 444,-952.5"/>
<text text-anchor="start" x="451" y="-963.9" font-family="Arial" font-size="14.00" fill="#000000">owner </text>
<text text-anchor="start" x="493.0056" y="-963.9" font-family="Arial" font-size="14.00" fill="#666666">[integer]</text>
<polygon fill="none" stroke="#000000" points="444,-922.5 444,-952.5 739,-952.5 739,-922.5 444,-922.5"/>
<text text-anchor="start" x="451" y="-933.9" font-family="Arial" font-size="14.00" fill="#000000">active </text>
<text text-anchor="start" x="491.453" y="-933.9" font-family="Arial" font-size="14.00" fill="#666666">[boolean]</text>
<polygon fill="none" stroke="#000000" points="444,-892.5 444,-922.5 739,-922.5 739,-892.5 444,-892.5"/>
<text text-anchor="start" x="451" y="-903.9" font-family="Arial" font-size="14.00" fill="#000000">match_all </text>
<text text-anchor="start" x="514.7854" y="-903.9" font-family="Arial" font-size="14.00" fill="#666666">[boolean]</text>
<polygon fill="none" stroke="#000000" points="444,-862.5 444,-892.5 739,-892.5 739,-862.5 444,-862.5"/>
<text text-anchor="start" x="451" y="-873.9" font-family="Arial" font-size="14.00" fill="#000000">alert_message </text>
<text text-anchor="start" x="546.6872" y="-873.9" font-family="Arial" font-size="14.00" fill="#666666">[text]</text>
<polygon fill="none" stroke="#000000" points="444,-832.5 444,-862.5 739,-862.5 739,-832.5 444,-832.5"/>
<text text-anchor="start" x="451" y="-843.9" font-family="Arial" font-size="14.00" fill="#000000">street1 </text>
<text text-anchor="start" x="497.6802" y="-843.9" font-family="Arial" font-size="14.00" fill="#666666">[text]</text>
<polygon fill="none" stroke="#000000" points="444,-802.5 444,-832.5 739,-832.5 739,-802.5 444,-802.5"/>
<text text-anchor="start" x="451" y="-813.9" font-family="Arial" font-size="14.00" fill="#000000">street2 </text>
<text text-anchor="start" x="497.6802" y="-813.9" font-family="Arial" font-size="14.00" fill="#666666">[text]</text>
<polygon fill="none" stroke="#000000" points="444,-772.5 444,-802.5 739,-802.5 739,-772.5 444,-772.5"/>
<text text-anchor="start" x="451" y="-783.9" font-family="Arial" font-size="14.00" fill="#000000">city </text>
<text text-anchor="start" x="475.8878" y="-783.9" font-family="Arial" font-size="14.00" fill="#666666">[text]</text>
<polygon fill="none" stroke="#000000" points="444,-742.5 444,-772.5 739,-772.5 739,-742.5 444,-742.5"/>
<text text-anchor="start" x="451" y="-753.9" font-family="Arial" font-size="14.00" fill="#000000">county </text>
<text text-anchor="start" x="496.129" y="-753.9" font-family="Arial" font-size="14.00" fill="#666666">[text]</text>
<polygon fill="none" stroke="#000000" points="444,-712.5 444,-742.5 739,-742.5 739,-712.5 444,-712.5"/>
<text text-anchor="start" x="451" y="-723.9" font-family="Arial" font-size="14.00" fill="#000000">state </text>
<text text-anchor="start" x="485.237" y="-723.9" font-family="Arial" font-size="14.00" fill="#666666">[text]</text>
<polygon fill="none" stroke="#000000" points="444,-682.5 444,-712.5 739,-712.5 739,-682.5 444,-682.5"/>
<text text-anchor="start" x="451" y="-693.9" font-family="Arial" font-size="14.00" fill="#000000">country </text>
<text text-anchor="start" x="500.7896" y="-693.9" font-family="Arial" font-size="14.00" fill="#666666">[text]</text>
<polygon fill="none" stroke="#000000" points="444,-652.5 444,-682.5 739,-682.5 739,-652.5 444,-652.5"/>
<text text-anchor="start" x="451" y="-663.9" font-family="Arial" font-size="14.00" fill="#000000">post_code </text>
<text text-anchor="start" x="519.4768" y="-663.9" font-family="Arial" font-size="14.00" fill="#666666">[text]</text>
<polygon fill="none" stroke="#000000" points="444,-622.5 444,-652.5 739,-652.5 739,-622.5 444,-622.5"/>
<text text-anchor="start" x="451" y="-633.9" font-family="Arial" font-size="14.00" fill="#000000">mailing_address </text>
<text text-anchor="start" x="556.7924" y="-633.9" font-family="Arial" font-size="14.00" fill="#666666">[boolean]</text>
<polygon fill="none" stroke="#000000" points="444,-592.5 444,-622.5 739,-622.5 739,-592.5 444,-592.5"/>
<text text-anchor="start" x="451" y="-603.9" font-family="Arial" font-size="14.00" fill="#000000">billing_address </text>
<text text-anchor="start" x="548.2384" y="-603.9" font-family="Arial" font-size="14.00" fill="#666666">[boolean]</text>
<polygon fill="none" stroke="#000000" stroke-width="3" points="442,-591.5 442,-1049.5 740,-1049.5 740,-591.5 442,-591.5"/>
</g>
<!-- actor.org_unit -->
<g id="node2" class="node">
<title>actor.org_unit</title>
<polygon fill="#efefef" stroke="transparent" points="466,-432.5 466,-467.5 717,-467.5 717,-432.5 466,-432.5"/>
<polygon fill="none" stroke="#000000" points="466,-432.5 466,-467.5 717,-467.5 717,-432.5 466,-432.5"/>
<text text-anchor="start" x="472.7017" y="-445.3" font-family="Arial Bold" font-size="18.00" fill="#000000">actor.org_unit</text>
<text text-anchor="start" x="582.7303" y="-445.3" font-family="Arial" font-size="14.00" fill="#000000">    </text>
<text text-anchor="start" x="616.9351" y="-445.3" font-family="Arial" font-size="14.00" fill="#666666">[BASE TABLE]</text>
<polygon fill="none" stroke="#000000" points="466,-402.5 466,-432.5 717,-432.5 717,-402.5 466,-402.5"/>
<text text-anchor="start" x="473" y="-413.9" font-family="Arial" font-size="14.00" fill="#000000">id    </text>
<text text-anchor="start" x="518.094" y="-413.9" font-family="Arial" font-size="14.00" fill="#666666">[integer]</text>
<polygon fill="none" stroke="#000000" points="466,-372.5 466,-402.5 717,-402.5 717,-372.5 466,-372.5"/>
<text text-anchor="start" x="473" y="-383.9" font-family="Arial" font-size="14.00" fill="#000000">parent_ou    </text>
<text text-anchor="start" x="570.2342" y="-383.9" font-family="Arial" font-size="14.00" fill="#666666">[integer]</text>
<polygon fill="none" stroke="#000000" points="466,-342.5 466,-372.5 717,-372.5 717,-342.5 466,-342.5"/>
<text text-anchor="start" x="473" y="-353.9" font-family="Arial" font-size="14.00" fill="#000000">ou_type    </text>
<text text-anchor="start" x="557.0084" y="-353.9" font-family="Arial" font-size="14.00" fill="#666666">[integer]</text>
<polygon fill="none" stroke="#000000" points="466,-312.5 466,-342.5 717,-342.5 717,-312.5 466,-312.5"/>
<text text-anchor="start" x="473" y="-323.9" font-family="Arial" font-size="14.00" fill="#000000">ill_address    </text>
<text text-anchor="start" x="574.0982" y="-323.9" font-family="Arial" font-size="14.00" fill="#666666">[integer]</text>
<polygon fill="none" stroke="#000000" points="466,-282.5 466,-312.5 717,-312.5 717,-282.5 466,-282.5"/>
<text text-anchor="start" x="473" y="-293.9" font-family="Arial" font-size="14.00" fill="#000000">holds_address    </text>
<text text-anchor="start" x="598.2328" y="-293.9" font-family="Arial" font-size="14.00" fill="#666666">[integer]</text>
<polygon fill="none" stroke="#000000" points="466,-252.5 466,-282.5 717,-282.5 717,-252.5 466,-252.5"/>
<text text-anchor="start" x="473" y="-263.9" font-family="Arial" font-size="14.00" fill="#000000">mailing_address    </text>
<text text-anchor="start" x="609.1066" y="-263.9" font-family="Arial" font-size="14.00" fill="#666666">[integer]</text>
<polygon fill="none" stroke="#000000" points="466,-222.5 466,-252.5 717,-252.5 717,-222.5 466,-222.5"/>
<text text-anchor="start" x="473" y="-233.9" font-family="Arial" font-size="14.00" fill="#000000">billing_address    </text>
<text text-anchor="start" x="600.5526" y="-233.9" font-family="Arial" font-size="14.00" fill="#666666">[integer]</text>
<polygon fill="none" stroke="#000000" points="466,-192.5 466,-222.5 717,-222.5 717,-192.5 466,-192.5"/>
<text text-anchor="start" x="473" y="-203.9" font-family="Arial" font-size="14.00" fill="#000000">shortname    </text>
<text text-anchor="start" x="573.3296" y="-203.9" font-family="Arial" font-size="14.00" fill="#666666">[text]</text>
<polygon fill="none" stroke="#000000" points="466,-162.5 466,-192.5 717,-192.5 717,-162.5 466,-162.5"/>
<text text-anchor="start" x="473" y="-173.9" font-family="Arial" font-size="14.00" fill="#000000">name    </text>
<text text-anchor="start" x="542.2132" y="-173.9" font-family="Arial" font-size="14.00" fill="#666666">[text]</text>
<polygon fill="none" stroke="#000000" points="466,-132.5 466,-162.5 717,-162.5 717,-132.5 466,-132.5"/>
<text text-anchor="start" x="473" y="-143.9" font-family="Arial" font-size="14.00" fill="#000000">email    </text>
<text text-anchor="start" x="540.6438" y="-143.9" font-family="Arial" font-size="14.00" fill="#666666">[text]</text>
<polygon fill="none" stroke="#000000" points="466,-102.5 466,-132.5 717,-132.5 717,-102.5 466,-102.5"/>
<text text-anchor="start" x="473" y="-113.9" font-family="Arial" font-size="14.00" fill="#000000">phone    </text>
<text text-anchor="start" x="546.1178" y="-113.9" font-family="Arial" font-size="14.00" fill="#666666">[text]</text>
<polygon fill="none" stroke="#000000" points="466,-72.5 466,-102.5 717,-102.5 717,-72.5 466,-72.5"/>
<text text-anchor="start" x="473" y="-83.9" font-family="Arial" font-size="14.00" fill="#000000">opac_visible    </text>
<text text-anchor="start" x="584.2202" y="-83.9" font-family="Arial" font-size="14.00" fill="#666666">[boolean]</text>
<polygon fill="none" stroke="#000000" points="466,-42.5 466,-72.5 717,-72.5 717,-42.5 466,-42.5"/>
<text text-anchor="start" x="473" y="-53.9" font-family="Arial" font-size="14.00" fill="#000000">fiscal_calendar    </text>
<text text-anchor="start" x="600.554" y="-53.9" font-family="Arial" font-size="14.00" fill="#666666">[integer]</text>
</g>
<!-- actor.address_alert&#45;&gt;actor.org_unit -->
<g id="edge1" class="edge">
<title>actor.address_alert:owner&#45;&gt;actor.org_unit:id</title>
<path fill="none" stroke="#000000" d="M435.0116,-963.0728C385.2692,-911.0217 408.0653,-417.5 466,-417.5"/>
<polygon fill="#000000" stroke="#000000" points="435.0291,-963.0814 442.0116,-971.5369 439.5146,-965.2907 444,-967.5 444,-967.5 444,-967.5 439.5146,-965.2907 445.9884,-963.4631 435.0291,-963.0814 435.0291,-963.0814"/>
<text text-anchor="start" x="6.714" y="-977.5" font-family="Arial" font-size="10.00" fill="#000000">FOREIGN KEY (owner) REFERENCES actor.org_unit(id) DEFERRABLE INITIALLY DEFERRED</text>
</g>
</g>
</svg>
