<?xml version="1.0" encoding="UTF-8" standalone="no"?>
<!DOCTYPE svg PUBLIC "-//W3C//DTD SVG 1.1//EN"
 "http://www.w3.org/Graphics/SVG/1.1/DTD/svg11.dtd">
<!-- Generated by graphviz version 2.40.1 (20161225.0304)
 -->
<!-- Title: actor.org_lasso Pages: 1 -->
<svg width="919pt" height="442pt"
 viewBox="0.00 0.00 918.50 442.00" xmlns="http://www.w3.org/2000/svg" xmlns:xlink="http://www.w3.org/1999/xlink">
<g id="graph0" class="graph" transform="scale(1 1) rotate(0) translate(4 438)">
<title>actor.org_lasso</title>
<polygon fill="#ffffff" stroke="transparent" points="-4,4 -4,-438 914.5,-438 914.5,4 -4,4"/>
<!-- actor.org_lasso -->
<g id="node1" class="node">
<title>actor.org_lasso</title>
<polygon fill="#efefef" stroke="transparent" points="66.5,-105.5 66.5,-140.5 330.5,-140.5 330.5,-105.5 66.5,-105.5"/>
<polygon fill="none" stroke="#000000" points="66.5,-105.5 66.5,-140.5 330.5,-140.5 330.5,-105.5 66.5,-105.5"/>
<text text-anchor="start" x="73.2028" y="-118.3" font-family="Arial Bold" font-size="18.00" fill="#000000">actor.org_lasso</text>
<text text-anchor="start" x="196.2292" y="-118.3" font-family="Arial" font-size="14.00" fill="#000000">    </text>
<text text-anchor="start" x="230.434" y="-118.3" font-family="Arial" font-size="14.00" fill="#666666">[BASE TABLE]</text>
<polygon fill="none" stroke="#000000" points="66.5,-75.5 66.5,-105.5 330.5,-105.5 330.5,-75.5 66.5,-75.5"/>
<text text-anchor="start" x="73.5" y="-86.9" font-family="Arial" font-size="14.00" fill="#000000">id </text>
<text text-anchor="start" x="88.2798" y="-86.9" font-family="Arial" font-size="14.00" fill="#666666">[integer]</text>
<polygon fill="none" stroke="#000000" points="66.5,-45.5 66.5,-75.5 330.5,-75.5 330.5,-45.5 66.5,-45.5"/>
<text text-anchor="start" x="73.5" y="-56.9" font-family="Arial" font-size="14.00" fill="#000000">name </text>
<text text-anchor="start" x="112.399" y="-56.9" font-family="Arial" font-size="14.00" fill="#666666">[text]</text>
<polygon fill="none" stroke="#000000" stroke-width="3" points="65,-44.5 65,-142.5 332,-142.5 332,-44.5 65,-44.5"/>
</g>
<!-- actor.org_lasso_map -->
<g id="node2" class="node">
<title>actor.org_lasso_map</title>
<polygon fill="#efefef" stroke="transparent" points="43.5,-355.5 43.5,-390.5 352.5,-390.5 352.5,-355.5 43.5,-355.5"/>
<polygon fill="none" stroke="#000000" points="43.5,-355.5 43.5,-390.5 352.5,-390.5 352.5,-355.5 43.5,-355.5"/>
<text text-anchor="start" x="50.1974" y="-368.3" font-family="Arial Bold" font-size="18.00" fill="#000000">actor.org_lasso_map</text>
<text text-anchor="start" x="218.2346" y="-368.3" font-family="Arial" font-size="14.00" fill="#000000">    </text>
<text text-anchor="start" x="252.4394" y="-368.3" font-family="Arial" font-size="14.00" fill="#666666">[BASE TABLE]</text>
<polygon fill="none" stroke="#000000" points="43.5,-325.5 43.5,-355.5 352.5,-355.5 352.5,-325.5 43.5,-325.5"/>
<text text-anchor="start" x="50.5" y="-336.9" font-family="Arial" font-size="14.00" fill="#000000">id    </text>
<text text-anchor="start" x="95.594" y="-336.9" font-family="Arial" font-size="14.00" fill="#666666">[integer]</text>
<polygon fill="none" stroke="#000000" points="43.5,-295.5 43.5,-325.5 352.5,-325.5 352.5,-295.5 43.5,-295.5"/>
<text text-anchor="start" x="50.5" y="-306.9" font-family="Arial" font-size="14.00" fill="#000000">lasso    </text>
<text text-anchor="start" x="117.3766" y="-306.9" font-family="Arial" font-size="14.00" fill="#666666">[integer]</text>
<polygon fill="none" stroke="#000000" points="43.5,-265.5 43.5,-295.5 352.5,-295.5 352.5,-265.5 43.5,-265.5"/>
<text text-anchor="start" x="50.5" y="-276.9" font-family="Arial" font-size="14.00" fill="#000000">org_unit    </text>
<text text-anchor="start" x="135.2756" y="-276.9" font-family="Arial" font-size="14.00" fill="#666666">[integer]</text>
</g>
<!-- actor.org_lasso_map&#45;&gt;actor.org_lasso -->
<g id="edge1" class="edge">
<title>actor.org_lasso_map:lasso&#45;&gt;actor.org_lasso:id</title>
<path fill="none" stroke="#000000" d="M362.4407,-308.9125C388.6979,-299.3847 375.7121,-249.3171 352.5,-223 267.7551,-126.9191 151.2449,-283.0809 66.5,-187 38.1299,-154.8349 23.6111,-90.5 66.5,-90.5"/>
<polygon fill="#000000" stroke="#000000" points="362.3749,-308.923 351.7903,-306.0563 357.4374,-309.7115 352.5,-310.5 352.5,-310.5 352.5,-310.5 357.4374,-309.7115 353.2097,-314.9437 362.3749,-308.923 362.3749,-308.923"/>
<text text-anchor="start" x="359.2665" y="-320.5" font-family="Arial" font-size="10.00" fill="#000000">FOREIGN KEY (lasso) REFERENCES actor.org_lasso(id) ON DELETE CASCADE DEFERRABLE INITIALLY DEFERRED</text>
</g>
</g>
</svg>
