<?xml version="1.0" encoding="UTF-8" standalone="no"?>
<!DOCTYPE svg PUBLIC "-//W3C//DTD SVG 1.1//EN"
 "http://www.w3.org/Graphics/SVG/1.1/DTD/svg11.dtd">
<!-- Generated by graphviz version 2.40.1 (20161225.0304)
 -->
<!-- Title: actor.org_unit_closed Pages: 1 -->
<svg width="1444pt" height="922pt"
 viewBox="0.00 0.00 1444.00 922.00" xmlns="http://www.w3.org/2000/svg" xmlns:xlink="http://www.w3.org/1999/xlink">
<g id="graph0" class="graph" transform="scale(1 1) rotate(0) translate(4 918)">
<title>actor.org_unit_closed</title>
<polygon fill="#ffffff" stroke="transparent" points="-4,4 -4,-918 1440,-918 1440,4 -4,4"/>
<!-- actor.org_unit_closed -->
<g id="node1" class="node">
<title>actor.org_unit_closed</title>
<polygon fill="#efefef" stroke="transparent" points="453,-832.5 453,-867.5 766,-867.5 766,-832.5 453,-832.5"/>
<polygon fill="none" stroke="#000000" points="453,-832.5 453,-867.5 766,-867.5 766,-832.5 453,-832.5"/>
<text text-anchor="start" x="459.6922" y="-845.3" font-family="Arial Bold" font-size="18.00" fill="#000000">actor.org_unit_closed</text>
<text text-anchor="start" x="631.7398" y="-845.3" font-family="Arial" font-size="14.00" fill="#000000">    </text>
<text text-anchor="start" x="665.9446" y="-845.3" font-family="Arial" font-size="14.00" fill="#666666">[BASE TABLE]</text>
<polygon fill="none" stroke="#000000" points="453,-802.5 453,-832.5 766,-832.5 766,-802.5 453,-802.5"/>
<text text-anchor="start" x="460" y="-813.9" font-family="Arial" font-size="14.00" fill="#000000">id </text>
<text text-anchor="start" x="474.7798" y="-813.9" font-family="Arial" font-size="14.00" fill="#666666">[integer]</text>
<polygon fill="none" stroke="#000000" points="453,-772.5 453,-802.5 766,-802.5 766,-772.5 453,-772.5"/>
<text text-anchor="start" x="460" y="-783.9" font-family="Arial" font-size="14.00" fill="#000000">org_unit </text>
<text text-anchor="start" x="514.4614" y="-783.9" font-family="Arial" font-size="14.00" fill="#666666">[integer]</text>
<polygon fill="none" stroke="#000000" points="453,-742.5 453,-772.5 766,-772.5 766,-742.5 453,-742.5"/>
<text text-anchor="start" x="460" y="-753.9" font-family="Arial" font-size="14.00" fill="#000000">close_start </text>
<text text-anchor="start" x="531.5694" y="-753.9" font-family="Arial" font-size="14.00" fill="#666666">[timestamp with time zone]</text>
<polygon fill="none" stroke="#000000" points="453,-712.5 453,-742.5 766,-742.5 766,-712.5 453,-712.5"/>
<text text-anchor="start" x="460" y="-723.9" font-family="Arial" font-size="14.00" fill="#000000">close_end </text>
<text text-anchor="start" x="527.6928" y="-723.9" font-family="Arial" font-size="14.00" fill="#666666">[timestamp with time zone]</text>
<polygon fill="none" stroke="#000000" points="453,-682.5 453,-712.5 766,-712.5 766,-682.5 453,-682.5"/>
<text text-anchor="start" x="460" y="-693.9" font-family="Arial" font-size="14.00" fill="#000000">full_day </text>
<text text-anchor="start" x="512.1248" y="-693.9" font-family="Arial" font-size="14.00" fill="#666666">[boolean]</text>
<polygon fill="none" stroke="#000000" points="453,-652.5 453,-682.5 766,-682.5 766,-652.5 453,-652.5"/>
<text text-anchor="start" x="460" y="-663.9" font-family="Arial" font-size="14.00" fill="#000000">multi_day </text>
<text text-anchor="start" x="523.7854" y="-663.9" font-family="Arial" font-size="14.00" fill="#666666">[boolean]</text>
<polygon fill="none" stroke="#000000" points="453,-622.5 453,-652.5 766,-652.5 766,-622.5 453,-622.5"/>
<text text-anchor="start" x="460" y="-633.9" font-family="Arial" font-size="14.00" fill="#000000">reason </text>
<text text-anchor="start" x="506.6816" y="-633.9" font-family="Arial" font-size="14.00" fill="#666666">[text]</text>
<polygon fill="none" stroke="#000000" points="453,-592.5 453,-622.5 766,-622.5 766,-592.5 453,-592.5"/>
<text text-anchor="start" x="460" y="-603.9" font-family="Arial" font-size="14.00" fill="#000000">emergency_closing </text>
<text text-anchor="start" x="584.4684" y="-603.9" font-family="Arial" font-size="14.00" fill="#666666">[integer]</text>
<polygon fill="none" stroke="#000000" stroke-width="3" points="451,-591.5 451,-869.5 767,-869.5 767,-591.5 451,-591.5"/>
</g>
<!-- actor.org_unit -->
<g id="node2" class="node">
<title>actor.org_unit</title>
<polygon fill="#efefef" stroke="transparent" points="282,-432.5 282,-467.5 533,-467.5 533,-432.5 282,-432.5"/>
<polygon fill="none" stroke="#000000" points="282,-432.5 282,-467.5 533,-467.5 533,-432.5 282,-432.5"/>
<text text-anchor="start" x="288.7017" y="-445.3" font-family="Arial Bold" font-size="18.00" fill="#000000">actor.org_unit</text>
<text text-anchor="start" x="398.7303" y="-445.3" font-family="Arial" font-size="14.00" fill="#000000">    </text>
<text text-anchor="start" x="432.9351" y="-445.3" font-family="Arial" font-size="14.00" fill="#666666">[BASE TABLE]</text>
<polygon fill="none" stroke="#000000" points="282,-402.5 282,-432.5 533,-432.5 533,-402.5 282,-402.5"/>
<text text-anchor="start" x="289" y="-413.9" font-family="Arial" font-size="14.00" fill="#000000">id    </text>
<text text-anchor="start" x="334.094" y="-413.9" font-family="Arial" font-size="14.00" fill="#666666">[integer]</text>
<polygon fill="none" stroke="#000000" points="282,-372.5 282,-402.5 533,-402.5 533,-372.5 282,-372.5"/>
<text text-anchor="start" x="289" y="-383.9" font-family="Arial" font-size="14.00" fill="#000000">parent_ou    </text>
<text text-anchor="start" x="386.2342" y="-383.9" font-family="Arial" font-size="14.00" fill="#666666">[integer]</text>
<polygon fill="none" stroke="#000000" points="282,-342.5 282,-372.5 533,-372.5 533,-342.5 282,-342.5"/>
<text text-anchor="start" x="289" y="-353.9" font-family="Arial" font-size="14.00" fill="#000000">ou_type    </text>
<text text-anchor="start" x="373.0084" y="-353.9" font-family="Arial" font-size="14.00" fill="#666666">[integer]</text>
<polygon fill="none" stroke="#000000" points="282,-312.5 282,-342.5 533,-342.5 533,-312.5 282,-312.5"/>
<text text-anchor="start" x="289" y="-323.9" font-family="Arial" font-size="14.00" fill="#000000">ill_address    </text>
<text text-anchor="start" x="390.0982" y="-323.9" font-family="Arial" font-size="14.00" fill="#666666">[integer]</text>
<polygon fill="none" stroke="#000000" points="282,-282.5 282,-312.5 533,-312.5 533,-282.5 282,-282.5"/>
<text text-anchor="start" x="289" y="-293.9" font-family="Arial" font-size="14.00" fill="#000000">holds_address    </text>
<text text-anchor="start" x="414.2328" y="-293.9" font-family="Arial" font-size="14.00" fill="#666666">[integer]</text>
<polygon fill="none" stroke="#000000" points="282,-252.5 282,-282.5 533,-282.5 533,-252.5 282,-252.5"/>
<text text-anchor="start" x="289" y="-263.9" font-family="Arial" font-size="14.00" fill="#000000">mailing_address    </text>
<text text-anchor="start" x="425.1066" y="-263.9" font-family="Arial" font-size="14.00" fill="#666666">[integer]</text>
<polygon fill="none" stroke="#000000" points="282,-222.5 282,-252.5 533,-252.5 533,-222.5 282,-222.5"/>
<text text-anchor="start" x="289" y="-233.9" font-family="Arial" font-size="14.00" fill="#000000">billing_address    </text>
<text text-anchor="start" x="416.5526" y="-233.9" font-family="Arial" font-size="14.00" fill="#666666">[integer]</text>
<polygon fill="none" stroke="#000000" points="282,-192.5 282,-222.5 533,-222.5 533,-192.5 282,-192.5"/>
<text text-anchor="start" x="289" y="-203.9" font-family="Arial" font-size="14.00" fill="#000000">shortname    </text>
<text text-anchor="start" x="389.3296" y="-203.9" font-family="Arial" font-size="14.00" fill="#666666">[text]</text>
<polygon fill="none" stroke="#000000" points="282,-162.5 282,-192.5 533,-192.5 533,-162.5 282,-162.5"/>
<text text-anchor="start" x="289" y="-173.9" font-family="Arial" font-size="14.00" fill="#000000">name    </text>
<text text-anchor="start" x="358.2132" y="-173.9" font-family="Arial" font-size="14.00" fill="#666666">[text]</text>
<polygon fill="none" stroke="#000000" points="282,-132.5 282,-162.5 533,-162.5 533,-132.5 282,-132.5"/>
<text text-anchor="start" x="289" y="-143.9" font-family="Arial" font-size="14.00" fill="#000000">email    </text>
<text text-anchor="start" x="356.6438" y="-143.9" font-family="Arial" font-size="14.00" fill="#666666">[text]</text>
<polygon fill="none" stroke="#000000" points="282,-102.5 282,-132.5 533,-132.5 533,-102.5 282,-102.5"/>
<text text-anchor="start" x="289" y="-113.9" font-family="Arial" font-size="14.00" fill="#000000">phone    </text>
<text text-anchor="start" x="362.1178" y="-113.9" font-family="Arial" font-size="14.00" fill="#666666">[text]</text>
<polygon fill="none" stroke="#000000" points="282,-72.5 282,-102.5 533,-102.5 533,-72.5 282,-72.5"/>
<text text-anchor="start" x="289" y="-83.9" font-family="Arial" font-size="14.00" fill="#000000">opac_visible    </text>
<text text-anchor="start" x="400.2202" y="-83.9" font-family="Arial" font-size="14.00" fill="#666666">[boolean]</text>
<polygon fill="none" stroke="#000000" points="282,-42.5 282,-72.5 533,-72.5 533,-42.5 282,-42.5"/>
<text text-anchor="start" x="289" y="-53.9" font-family="Arial" font-size="14.00" fill="#000000">fiscal_calendar    </text>
<text text-anchor="start" x="416.554" y="-53.9" font-family="Arial" font-size="14.00" fill="#666666">[integer]</text>
</g>
<!-- actor.org_unit_closed&#45;&gt;actor.org_unit -->
<g id="edge1" class="edge">
<title>actor.org_unit_closed:org_unit&#45;&gt;actor.org_unit:id</title>
<path fill="none" stroke="#000000" d="M442.8626,-787.0092C349.3653,-777.5572 396.8894,-633.7798 453,-547 474.1703,-514.2583 511.8297,-543.7417 533,-511 555.5635,-476.1037 574.5556,-417.5 533,-417.5"/>
<polygon fill="#000000" stroke="#000000" points="443.0117,-787.0163 452.7823,-791.9947 448.0058,-787.2582 453,-787.5 453,-787.5 453,-787.5 448.0058,-787.2582 453.2177,-783.0053 443.0117,-787.0163 443.0117,-787.0163"/>
<text text-anchor="start" x="7.2655" y="-797.5" font-family="Arial" font-size="10.00" fill="#000000">FOREIGN KEY (org_unit) REFERENCES actor.org_unit(id) DEFERRABLE INITIALLY DEFERRED</text>
</g>
<!-- action.emergency_closing -->
<g id="node3" class="node">
<title>action.emergency_closing</title>
<polygon fill="#efefef" stroke="transparent" points="637,-327.5 637,-362.5 986,-362.5 986,-327.5 637,-327.5"/>
<polygon fill="none" stroke="#000000" points="637,-327.5 637,-362.5 986,-362.5 986,-327.5 637,-327.5"/>
<text text-anchor="start" x="643.6931" y="-340.3" font-family="Arial Bold" font-size="18.00" fill="#000000">action.emergency_closing</text>
<text text-anchor="start" x="851.7389" y="-340.3" font-family="Arial" font-size="14.00" fill="#000000">    </text>
<text text-anchor="start" x="885.9437" y="-340.3" font-family="Arial" font-size="14.00" fill="#666666">[BASE TABLE]</text>
<polygon fill="none" stroke="#000000" points="637,-297.5 637,-327.5 986,-327.5 986,-297.5 637,-297.5"/>
<text text-anchor="start" x="644" y="-308.9" font-family="Arial" font-size="14.00" fill="#000000">id    </text>
<text text-anchor="start" x="689.094" y="-308.9" font-family="Arial" font-size="14.00" fill="#666666">[integer]</text>
<polygon fill="none" stroke="#000000" points="637,-267.5 637,-297.5 986,-297.5 986,-267.5 637,-267.5"/>
<text text-anchor="start" x="644" y="-278.9" font-family="Arial" font-size="14.00" fill="#000000">creator    </text>
<text text-anchor="start" x="721.7644" y="-278.9" font-family="Arial" font-size="14.00" fill="#666666">[integer]</text>
<polygon fill="none" stroke="#000000" points="637,-237.5 637,-267.5 986,-267.5 986,-237.5 637,-237.5"/>
<text text-anchor="start" x="644" y="-248.9" font-family="Arial" font-size="14.00" fill="#000000">create_time    </text>
<text text-anchor="start" x="751.3268" y="-248.9" font-family="Arial" font-size="14.00" fill="#666666">[timestamp with time zone]</text>
<polygon fill="none" stroke="#000000" points="637,-207.5 637,-237.5 986,-237.5 986,-207.5 637,-207.5"/>
<text text-anchor="start" x="644" y="-218.9" font-family="Arial" font-size="14.00" fill="#000000">process_start_time    </text>
<text text-anchor="start" x="796.4432" y="-218.9" font-family="Arial" font-size="14.00" fill="#666666">[timestamp with time zone]</text>
<polygon fill="none" stroke="#000000" points="637,-177.5 637,-207.5 986,-207.5 986,-177.5 637,-177.5"/>
<text text-anchor="start" x="644" y="-188.9" font-family="Arial" font-size="14.00" fill="#000000">process_end_time    </text>
<text text-anchor="start" x="792.5666" y="-188.9" font-family="Arial" font-size="14.00" fill="#666666">[timestamp with time zone]</text>
<polygon fill="none" stroke="#000000" points="637,-147.5 637,-177.5 986,-177.5 986,-147.5 637,-147.5"/>
<text text-anchor="start" x="644" y="-158.9" font-family="Arial" font-size="14.00" fill="#000000">last_update_time    </text>
<text text-anchor="start" x="784.7938" y="-158.9" font-family="Arial" font-size="14.00" fill="#666666">[timestamp with time zone]</text>
</g>
<!-- actor.org_unit_closed&#45;&gt;action.emergency_closing -->
<g id="edge2" class="edge">
<title>actor.org_unit_closed:emergency_closing&#45;&gt;action.emergency_closing:id</title>
<path fill="none" stroke="#000000" d="M775.9052,-604.8409C787.4602,-596.1519 774.1385,-567.9523 766,-547 735.2467,-467.8264 667.7533,-485.1736 637,-406 621.9538,-367.264 595.4444,-312.5 637,-312.5"/>
<polygon fill="#000000" stroke="#000000" points="775.658,-604.9072 764.8332,-603.1539 770.829,-606.2036 766,-607.5 766,-607.5 766,-607.5 770.829,-606.2036 767.1668,-611.8461 775.658,-604.9072 775.658,-604.9072"/>
<text text-anchor="start" x="772.9255" y="-617.5" font-family="Arial" font-size="10.00" fill="#000000">FOREIGN KEY (emergency_closing) REFERENCES action.emergency_closing(id) ON DELETE RESTRICT DEFERRABLE INITIALLY DEFERRED</text>
</g>
</g>
</svg>
