<?xml version="1.0" encoding="UTF-8" standalone="no"?>
<!DOCTYPE svg PUBLIC "-//W3C//DTD SVG 1.1//EN"
 "http://www.w3.org/Graphics/SVG/1.1/DTD/svg11.dtd">
<!-- Generated by graphviz version 2.40.1 (20161225.0304)
 -->
<!-- Title: asset.call_number_class Pages: 1 -->
<svg width="881pt" height="802pt"
 viewBox="0.00 0.00 881.00 802.00" xmlns="http://www.w3.org/2000/svg" xmlns:xlink="http://www.w3.org/1999/xlink">
<g id="graph0" class="graph" transform="scale(1 1) rotate(0) translate(4 798)">
<title>asset.call_number_class</title>
<polygon fill="#ffffff" stroke="transparent" points="-4,4 -4,-798 877,-798 877,4 -4,4"/>
<!-- asset.call_number_class -->
<g id="node1" class="node">
<title>asset.call_number_class</title>
<polygon fill="#efefef" stroke="transparent" points="46,-165.5 46,-200.5 384,-200.5 384,-165.5 46,-165.5"/>
<polygon fill="none" stroke="#000000" points="46,-165.5 46,-200.5 384,-200.5 384,-165.5 46,-165.5"/>
<text text-anchor="start" x="52.6993" y="-178.3" font-family="Arial Bold" font-size="18.00" fill="#000000">asset.call_number_class</text>
<text text-anchor="start" x="249.7327" y="-178.3" font-family="Arial" font-size="14.00" fill="#000000">    </text>
<text text-anchor="start" x="283.9375" y="-178.3" font-family="Arial" font-size="14.00" fill="#666666">[BASE TABLE]</text>
<polygon fill="none" stroke="#000000" points="46,-135.5 46,-165.5 384,-165.5 384,-135.5 46,-135.5"/>
<text text-anchor="start" x="53" y="-146.9" font-family="Arial" font-size="14.00" fill="#000000">id </text>
<text text-anchor="start" x="67.7798" y="-146.9" font-family="Arial" font-size="14.00" fill="#666666">[bigint]</text>
<polygon fill="none" stroke="#000000" points="46,-105.5 46,-135.5 384,-135.5 384,-105.5 46,-105.5"/>
<text text-anchor="start" x="53" y="-116.9" font-family="Arial" font-size="14.00" fill="#000000">name </text>
<text text-anchor="start" x="91.899" y="-116.9" font-family="Arial" font-size="14.00" fill="#666666">[text]</text>
<polygon fill="none" stroke="#000000" points="46,-75.5 46,-105.5 384,-105.5 384,-75.5 46,-75.5"/>
<text text-anchor="start" x="53" y="-86.9" font-family="Arial" font-size="14.00" fill="#000000">normalizer </text>
<text text-anchor="start" x="122.216" y="-86.9" font-family="Arial" font-size="14.00" fill="#666666">[text]</text>
<polygon fill="none" stroke="#000000" points="46,-45.5 46,-75.5 384,-75.5 384,-45.5 46,-45.5"/>
<text text-anchor="start" x="53" y="-56.9" font-family="Arial" font-size="14.00" fill="#000000">field </text>
<text text-anchor="start" x="82.5596" y="-56.9" font-family="Arial" font-size="14.00" fill="#666666">[text]</text>
<polygon fill="none" stroke="#000000" stroke-width="3" points="44.5,-44.5 44.5,-202.5 385.5,-202.5 385.5,-44.5 44.5,-44.5"/>
</g>
<!-- asset.call_number -->
<g id="node2" class="node">
<title>asset.call_number</title>
<polygon fill="#efefef" stroke="transparent" points="71,-715.5 71,-750.5 358,-750.5 358,-715.5 71,-715.5"/>
<polygon fill="none" stroke="#000000" points="71,-715.5 71,-750.5 358,-750.5 358,-715.5 71,-715.5"/>
<text text-anchor="start" x="77.7026" y="-728.3" font-family="Arial Bold" font-size="18.00" fill="#000000">asset.call_number</text>
<text text-anchor="start" x="223.7294" y="-728.3" font-family="Arial" font-size="14.00" fill="#000000">    </text>
<text text-anchor="start" x="257.9342" y="-728.3" font-family="Arial" font-size="14.00" fill="#666666">[BASE TABLE]</text>
<polygon fill="none" stroke="#000000" points="71,-685.5 71,-715.5 358,-715.5 358,-685.5 71,-685.5"/>
<text text-anchor="start" x="78" y="-696.9" font-family="Arial" font-size="14.00" fill="#000000">id    </text>
<text text-anchor="start" x="123.094" y="-696.9" font-family="Arial" font-size="14.00" fill="#666666">[bigint]</text>
<polygon fill="none" stroke="#000000" points="71,-655.5 71,-685.5 358,-685.5 358,-655.5 71,-655.5"/>
<text text-anchor="start" x="78" y="-666.9" font-family="Arial" font-size="14.00" fill="#000000">creator    </text>
<text text-anchor="start" x="155.7644" y="-666.9" font-family="Arial" font-size="14.00" fill="#666666">[bigint]</text>
<polygon fill="none" stroke="#000000" points="71,-625.5 71,-655.5 358,-655.5 358,-625.5 71,-625.5"/>
<text text-anchor="start" x="77.5954" y="-636.9" font-family="Arial" font-size="14.00" fill="#000000">create_date    </text>
<text text-anchor="start" x="185.7202" y="-636.9" font-family="Arial" font-size="14.00" fill="#666666">[timestamp with time zone]</text>
<polygon fill="none" stroke="#000000" points="71,-595.5 71,-625.5 358,-625.5 358,-595.5 71,-595.5"/>
<text text-anchor="start" x="78" y="-606.9" font-family="Arial" font-size="14.00" fill="#000000">editor    </text>
<text text-anchor="start" x="147.2104" y="-606.9" font-family="Arial" font-size="14.00" fill="#666666">[bigint]</text>
<polygon fill="none" stroke="#000000" points="71,-565.5 71,-595.5 358,-595.5 358,-565.5 71,-565.5"/>
<text text-anchor="start" x="78" y="-576.9" font-family="Arial" font-size="14.00" fill="#000000">edit_date    </text>
<text text-anchor="start" x="169.7882" y="-576.9" font-family="Arial" font-size="14.00" fill="#666666">[timestamp with time zone]</text>
<polygon fill="none" stroke="#000000" points="71,-535.5 71,-565.5 358,-565.5 358,-535.5 71,-535.5"/>
<text text-anchor="start" x="78" y="-546.9" font-family="Arial" font-size="14.00" fill="#000000">record    </text>
<text text-anchor="start" x="151.8738" y="-546.9" font-family="Arial" font-size="14.00" fill="#666666">[bigint]</text>
<polygon fill="none" stroke="#000000" points="71,-505.5 71,-535.5 358,-535.5 358,-505.5 71,-505.5"/>
<text text-anchor="start" x="78" y="-516.9" font-family="Arial" font-size="14.00" fill="#000000">owning_lib    </text>
<text text-anchor="start" x="178.3268" y="-516.9" font-family="Arial" font-size="14.00" fill="#666666">[integer]</text>
<polygon fill="none" stroke="#000000" points="71,-475.5 71,-505.5 358,-505.5 358,-475.5 71,-475.5"/>
<text text-anchor="start" x="78" y="-486.9" font-family="Arial" font-size="14.00" fill="#000000">label    </text>
<text text-anchor="start" x="141.7658" y="-486.9" font-family="Arial" font-size="14.00" fill="#666666">[text]</text>
<polygon fill="none" stroke="#000000" points="71,-445.5 71,-475.5 358,-475.5 358,-445.5 71,-445.5"/>
<text text-anchor="start" x="78" y="-456.9" font-family="Arial" font-size="14.00" fill="#000000">deleted    </text>
<text text-anchor="start" x="158.115" y="-456.9" font-family="Arial" font-size="14.00" fill="#666666">[boolean]</text>
<polygon fill="none" stroke="#000000" points="71,-415.5 71,-445.5 358,-445.5 358,-415.5 71,-415.5"/>
<text text-anchor="start" x="78" y="-426.9" font-family="Arial" font-size="14.00" fill="#000000">prefix    </text>
<text text-anchor="start" x="146.4278" y="-426.9" font-family="Arial" font-size="14.00" fill="#666666">[integer]</text>
<polygon fill="none" stroke="#000000" points="71,-385.5 71,-415.5 358,-415.5 358,-385.5 71,-385.5"/>
<text text-anchor="start" x="78" y="-396.9" font-family="Arial" font-size="14.00" fill="#000000">suffix    </text>
<text text-anchor="start" x="144.8752" y="-396.9" font-family="Arial" font-size="14.00" fill="#666666">[integer]</text>
<polygon fill="none" stroke="#000000" points="71,-355.5 71,-385.5 358,-385.5 358,-355.5 71,-355.5"/>
<text text-anchor="start" x="78" y="-366.9" font-family="Arial" font-size="14.00" fill="#000000">label_class    </text>
<text text-anchor="start" x="181.4376" y="-366.9" font-family="Arial" font-size="14.00" fill="#666666">[bigint]</text>
<polygon fill="none" stroke="#000000" points="71,-325.5 71,-355.5 358,-355.5 358,-325.5 71,-325.5"/>
<text text-anchor="start" x="78" y="-336.9" font-family="Arial" font-size="14.00" fill="#000000">label_sortkey    </text>
<text text-anchor="start" x="194.6648" y="-336.9" font-family="Arial" font-size="14.00" fill="#666666">[text]</text>
</g>
<!-- asset.call_number&#45;&gt;asset.call_number_class -->
<g id="edge1" class="edge">
<title>asset.call_number:label_class&#45;&gt;asset.call_number_class:id</title>
<path fill="none" stroke="#000000" d="M367.9446,-368.9091C394.2244,-359.3612 381.3478,-309.1967 358,-283 265.1263,-178.7939 138.8737,-351.2061 46,-247 17.464,-214.982 3.1111,-150.5 46,-150.5"/>
<polygon fill="#000000" stroke="#000000" points="367.8744,-368.9202 357.2891,-366.0565 362.9372,-369.7101 358,-370.5 358,-370.5 358,-370.5 362.9372,-369.7101 358.7109,-374.9435 367.8744,-368.9202 367.8744,-368.9202"/>
<text text-anchor="start" x="365.4325" y="-380.5" font-family="Arial" font-size="10.00" fill="#000000">FOREIGN KEY (label_class) REFERENCES asset.call_number_class(id) DEFERRABLE INITIALLY DEFERRED</text>
</g>
</g>
</svg>
