<?xml version="1.0" encoding="UTF-8" standalone="no"?>
<!DOCTYPE svg PUBLIC "-//W3C//DTD SVG 1.1//EN"
 "http://www.w3.org/Graphics/SVG/1.1/DTD/svg11.dtd">
<!-- Generated by graphviz version 2.40.1 (20161225.0304)
 -->
<!-- Title: asset.latest_inventory Pages: 1 -->
<svg width="897pt" height="502pt"
 viewBox="0.00 0.00 896.50 502.00" xmlns="http://www.w3.org/2000/svg" xmlns:xlink="http://www.w3.org/1999/xlink">
<g id="graph0" class="graph" transform="scale(1 1) rotate(0) translate(4 498)">
<title>asset.latest_inventory</title>
<polygon fill="#ffffff" stroke="transparent" points="-4,4 -4,-498 892.5,-498 892.5,4 -4,4"/>
<!-- asset.latest_inventory -->
<g id="node1" class="node">
<title>asset.latest_inventory</title>
<polygon fill="#efefef" stroke="transparent" points="528,-412.5 528,-447.5 843,-447.5 843,-412.5 528,-412.5"/>
<polygon fill="none" stroke="#000000" points="528,-412.5 528,-447.5 843,-447.5 843,-412.5 528,-412.5"/>
<text text-anchor="start" x="534.6923" y="-425.3" font-family="Arial Bold" font-size="18.00" fill="#000000">asset.latest_inventory</text>
<text text-anchor="start" x="708.7397" y="-425.3" font-family="Arial" font-size="14.00" fill="#000000">    </text>
<text text-anchor="start" x="742.9445" y="-425.3" font-family="Arial" font-size="14.00" fill="#666666">[BASE TABLE]</text>
<polygon fill="none" stroke="#000000" points="528,-382.5 528,-412.5 843,-412.5 843,-382.5 528,-382.5"/>
<text text-anchor="start" x="535" y="-393.9" font-family="Arial" font-size="14.00" fill="#000000">id </text>
<text text-anchor="start" x="549.7798" y="-393.9" font-family="Arial" font-size="14.00" fill="#666666">[integer]</text>
<polygon fill="none" stroke="#000000" points="528,-352.5 528,-382.5 843,-382.5 843,-352.5 528,-352.5"/>
<text text-anchor="start" x="535" y="-363.9" font-family="Arial" font-size="14.00" fill="#000000">inventory_workstation </text>
<text text-anchor="start" x="674.2468" y="-363.9" font-family="Arial" font-size="14.00" fill="#666666">[integer]</text>
<polygon fill="none" stroke="#000000" points="528,-322.5 528,-352.5 843,-352.5 843,-322.5 528,-322.5"/>
<text text-anchor="start" x="535" y="-333.9" font-family="Arial" font-size="14.00" fill="#000000">inventory_date </text>
<text text-anchor="start" x="630.6998" y="-333.9" font-family="Arial" font-size="14.00" fill="#666666">[timestamp with time zone]</text>
<polygon fill="none" stroke="#000000" points="528,-292.5 528,-322.5 843,-322.5 843,-292.5 528,-292.5"/>
<text text-anchor="start" x="535" y="-303.9" font-family="Arial" font-size="14.00" fill="#000000">copy </text>
<text text-anchor="start" x="568.4558" y="-303.9" font-family="Arial" font-size="14.00" fill="#666666">[bigint]</text>
<polygon fill="none" stroke="#000000" stroke-width="3" points="526,-291.5 526,-449.5 844,-449.5 844,-291.5 526,-291.5"/>
</g>
<!-- actor.workstation -->
<g id="node2" class="node">
<title>actor.workstation</title>
<polygon fill="#efefef" stroke="transparent" points="547,-132.5 547,-167.5 824,-167.5 824,-132.5 547,-132.5"/>
<polygon fill="none" stroke="#000000" points="547,-132.5 547,-167.5 824,-167.5 824,-132.5 547,-132.5"/>
<text text-anchor="start" x="553.7066" y="-145.3" font-family="Arial Bold" font-size="18.00" fill="#000000">actor.workstation</text>
<text text-anchor="start" x="689.7254" y="-145.3" font-family="Arial" font-size="14.00" fill="#000000">    </text>
<text text-anchor="start" x="723.9302" y="-145.3" font-family="Arial" font-size="14.00" fill="#666666">[BASE TABLE]</text>
<polygon fill="none" stroke="#000000" points="547,-102.5 547,-132.5 824,-132.5 824,-102.5 547,-102.5"/>
<text text-anchor="start" x="554" y="-113.9" font-family="Arial" font-size="14.00" fill="#000000">id    </text>
<text text-anchor="start" x="599.094" y="-113.9" font-family="Arial" font-size="14.00" fill="#666666">[integer]</text>
<polygon fill="none" stroke="#000000" points="547,-72.5 547,-102.5 824,-102.5 824,-72.5 547,-72.5"/>
<text text-anchor="start" x="554" y="-83.9" font-family="Arial" font-size="14.00" fill="#000000">name    </text>
<text text-anchor="start" x="623.2132" y="-83.9" font-family="Arial" font-size="14.00" fill="#666666">[text]</text>
<polygon fill="none" stroke="#000000" points="547,-42.5 547,-72.5 824,-72.5 824,-42.5 547,-42.5"/>
<text text-anchor="start" x="554" y="-53.9" font-family="Arial" font-size="14.00" fill="#000000">owning_lib    </text>
<text text-anchor="start" x="654.3268" y="-53.9" font-family="Arial" font-size="14.00" fill="#666666">[integer]</text>
</g>
<!-- asset.latest_inventory&#45;&gt;actor.workstation -->
<g id="edge1" class="edge">
<title>asset.latest_inventory:inventory_workstation&#45;&gt;actor.workstation:id</title>
<path fill="none" stroke="#000000" d="M517.9343,-366.7828C417.8462,-352.1191 439.0507,-117.5 547,-117.5"/>
<polygon fill="#000000" stroke="#000000" points="518.0253,-366.7892 527.6802,-371.9886 523.0126,-367.1446 528,-367.5 528,-367.5 528,-367.5 523.0126,-367.1446 528.3198,-363.0114 518.0253,-366.7892 518.0253,-366.7892"/>
<text text-anchor="start" x="6.7655" y="-377.5" font-family="Arial" font-size="10.00" fill="#000000">FOREIGN KEY (inventory_workstation) REFERENCES actor.workstation(id) DEFERRABLE INITIALLY DEFERRED</text>
</g>
</g>
</svg>
