<?xml version="1.0" encoding="UTF-8" standalone="no"?>
<!DOCTYPE svg PUBLIC "-//W3C//DTD SVG 1.1//EN"
 "http://www.w3.org/Graphics/SVG/1.1/DTD/svg11.dtd">
<!-- Generated by graphviz version 2.40.1 (20161225.0304)
 -->
<!-- Title: asset.copy_part_map Pages: 1 -->
<svg width="619pt" height="532pt"
 viewBox="0.00 0.00 618.50 532.00" xmlns="http://www.w3.org/2000/svg" xmlns:xlink="http://www.w3.org/1999/xlink">
<g id="graph0" class="graph" transform="scale(1 1) rotate(0) translate(4 528)">
<title>asset.copy_part_map</title>
<polygon fill="#ffffff" stroke="transparent" points="-4,4 -4,-528 614.5,-528 614.5,4 -4,4"/>
<!-- asset.copy_part_map -->
<g id="node1" class="node">
<title>asset.copy_part_map</title>
<polygon fill="#efefef" stroke="transparent" points="46.5,-442.5 46.5,-477.5 359.5,-477.5 359.5,-442.5 46.5,-442.5"/>
<polygon fill="none" stroke="#000000" points="46.5,-442.5 46.5,-477.5 359.5,-477.5 359.5,-442.5 46.5,-442.5"/>
<text text-anchor="start" x="53.1895" y="-455.3" font-family="Arial Bold" font-size="18.00" fill="#000000">asset.copy_part_map</text>
<text text-anchor="start" x="225.2425" y="-455.3" font-family="Arial" font-size="14.00" fill="#000000">    </text>
<text text-anchor="start" x="259.4473" y="-455.3" font-family="Arial" font-size="14.00" fill="#666666">[BASE TABLE]</text>
<polygon fill="none" stroke="#000000" points="46.5,-412.5 46.5,-442.5 359.5,-442.5 359.5,-412.5 46.5,-412.5"/>
<text text-anchor="start" x="53.5" y="-423.9" font-family="Arial" font-size="14.00" fill="#000000">id </text>
<text text-anchor="start" x="68.2798" y="-423.9" font-family="Arial" font-size="14.00" fill="#666666">[integer]</text>
<polygon fill="none" stroke="#000000" points="46.5,-382.5 46.5,-412.5 359.5,-412.5 359.5,-382.5 46.5,-382.5"/>
<text text-anchor="start" x="53.5" y="-393.9" font-family="Arial" font-size="14.00" fill="#000000">target_copy </text>
<text text-anchor="start" x="130.528" y="-393.9" font-family="Arial" font-size="14.00" fill="#666666">[bigint]</text>
<polygon fill="none" stroke="#000000" points="46.5,-352.5 46.5,-382.5 359.5,-382.5 359.5,-352.5 46.5,-352.5"/>
<text text-anchor="start" x="53.5" y="-363.9" font-family="Arial" font-size="14.00" fill="#000000">part </text>
<text text-anchor="start" x="81.507" y="-363.9" font-family="Arial" font-size="14.00" fill="#666666">[integer]</text>
<polygon fill="none" stroke="#000000" stroke-width="3" points="44.5,-351.5 44.5,-479.5 360.5,-479.5 360.5,-351.5 44.5,-351.5"/>
</g>
<!-- biblio.monograph_part -->
<g id="node2" class="node">
<title>biblio.monograph_part</title>
<polygon fill="#efefef" stroke="transparent" points="43.5,-192.5 43.5,-227.5 363.5,-227.5 363.5,-192.5 43.5,-192.5"/>
<polygon fill="none" stroke="#000000" points="43.5,-192.5 43.5,-227.5 363.5,-227.5 363.5,-192.5 43.5,-192.5"/>
<text text-anchor="start" x="50.1939" y="-205.3" font-family="Arial Bold" font-size="18.00" fill="#000000">biblio.monograph_part</text>
<text text-anchor="start" x="229.2381" y="-205.3" font-family="Arial" font-size="14.00" fill="#000000">    </text>
<text text-anchor="start" x="263.4429" y="-205.3" font-family="Arial" font-size="14.00" fill="#666666">[BASE TABLE]</text>
<polygon fill="none" stroke="#000000" points="43.5,-162.5 43.5,-192.5 363.5,-192.5 363.5,-162.5 43.5,-162.5"/>
<text text-anchor="start" x="50.5" y="-173.9" font-family="Arial" font-size="14.00" fill="#000000">id    </text>
<text text-anchor="start" x="95.594" y="-173.9" font-family="Arial" font-size="14.00" fill="#666666">[integer]</text>
<polygon fill="none" stroke="#000000" points="43.5,-132.5 43.5,-162.5 363.5,-162.5 363.5,-132.5 43.5,-132.5"/>
<text text-anchor="start" x="50.5" y="-143.9" font-family="Arial" font-size="14.00" fill="#000000">record    </text>
<text text-anchor="start" x="124.3738" y="-143.9" font-family="Arial" font-size="14.00" fill="#666666">[bigint]</text>
<polygon fill="none" stroke="#000000" points="43.5,-102.5 43.5,-132.5 363.5,-132.5 363.5,-102.5 43.5,-102.5"/>
<text text-anchor="start" x="50.5" y="-113.9" font-family="Arial" font-size="14.00" fill="#000000">label    </text>
<text text-anchor="start" x="114.2658" y="-113.9" font-family="Arial" font-size="14.00" fill="#666666">[text]</text>
<polygon fill="none" stroke="#000000" points="43.5,-72.5 43.5,-102.5 363.5,-102.5 363.5,-72.5 43.5,-72.5"/>
<text text-anchor="start" x="50.5" y="-83.9" font-family="Arial" font-size="14.00" fill="#000000">label_sortkey    </text>
<text text-anchor="start" x="167.1648" y="-83.9" font-family="Arial" font-size="14.00" fill="#666666">[text]</text>
<polygon fill="none" stroke="#000000" points="43.5,-42.5 43.5,-72.5 363.5,-72.5 363.5,-42.5 43.5,-42.5"/>
<text text-anchor="start" x="50.5" y="-53.9" font-family="Arial" font-size="14.00" fill="#000000">deleted    </text>
<text text-anchor="start" x="130.615" y="-53.9" font-family="Arial" font-size="14.00" fill="#666666">[boolean]</text>
</g>
<!-- asset.copy_part_map&#45;&gt;biblio.monograph_part -->
<g id="edge1" class="edge">
<title>asset.copy_part_map:part&#45;&gt;biblio.monograph_part:id</title>
<path fill="none" stroke="#000000" d="M202.7403,-342.2119C192.5779,-278.6198 83.2473,-335.853 43.5,-271 21.7852,-235.5694 1.9444,-177.5 43.5,-177.5"/>
<polygon fill="#000000" stroke="#000000" points="202.7635,-342.5272 199.0122,-352.8314 203.1317,-347.5136 203.5,-352.5 203.5,-352.5 203.5,-352.5 203.1317,-347.5136 207.9878,-352.1686 202.7635,-342.5272 202.7635,-342.5272"/>
<text text-anchor="start" x="210.8215" y="-362.5" font-family="Arial" font-size="10.00" fill="#000000">FOREIGN KEY (part) REFERENCES biblio.monograph_part(id) ON DELETE CASCADE</text>
</g>
</g>
</svg>
