<?xml version="1.0" encoding="UTF-8" standalone="no"?>
<!DOCTYPE svg PUBLIC "-//W3C//DTD SVG 1.1//EN"
 "http://www.w3.org/Graphics/SVG/1.1/DTD/svg11.dtd">
<!-- Generated by graphviz version 2.40.1 (20161225.0304)
 -->
<!-- Title: asset.copy_location_order Pages: 1 -->
<svg width="1490pt" height="802pt"
 viewBox="0.00 0.00 1490.00 802.00" xmlns="http://www.w3.org/2000/svg" xmlns:xlink="http://www.w3.org/1999/xlink">
<g id="graph0" class="graph" transform="scale(1 1) rotate(0) translate(4 798)">
<title>asset.copy_location_order</title>
<polygon fill="#ffffff" stroke="transparent" points="-4,4 -4,-798 1486,-798 1486,4 -4,4"/>
<!-- asset.copy_location_order -->
<g id="node1" class="node">
<title>asset.copy_location_order</title>
<polygon fill="#efefef" stroke="transparent" points="589,-712.5 589,-747.5 940,-747.5 940,-712.5 589,-712.5"/>
<polygon fill="none" stroke="#000000" points="589,-712.5 589,-747.5 940,-747.5 940,-712.5 589,-712.5"/>
<text text-anchor="start" x="595.686" y="-725.3" font-family="Arial Bold" font-size="18.00" fill="#000000">asset.copy_location_order</text>
<text text-anchor="start" x="805.746" y="-725.3" font-family="Arial" font-size="14.00" fill="#000000">    </text>
<text text-anchor="start" x="839.9508" y="-725.3" font-family="Arial" font-size="14.00" fill="#666666">[BASE TABLE]</text>
<polygon fill="none" stroke="#000000" points="589,-682.5 589,-712.5 940,-712.5 940,-682.5 589,-682.5"/>
<text text-anchor="start" x="596" y="-693.9" font-family="Arial" font-size="14.00" fill="#000000">id </text>
<text text-anchor="start" x="610.7798" y="-693.9" font-family="Arial" font-size="14.00" fill="#666666">[integer]</text>
<polygon fill="none" stroke="#000000" points="589,-652.5 589,-682.5 940,-682.5 940,-652.5 589,-652.5"/>
<text text-anchor="start" x="596" y="-663.9" font-family="Arial" font-size="14.00" fill="#000000">location </text>
<text text-anchor="start" x="648.1248" y="-663.9" font-family="Arial" font-size="14.00" fill="#666666">[integer]</text>
<polygon fill="none" stroke="#000000" points="589,-622.5 589,-652.5 940,-652.5 940,-622.5 589,-622.5"/>
<text text-anchor="start" x="596" y="-633.9" font-family="Arial" font-size="14.00" fill="#000000">org </text>
<text text-anchor="start" x="620.1164" y="-633.9" font-family="Arial" font-size="14.00" fill="#666666">[integer]</text>
<polygon fill="none" stroke="#000000" points="589,-592.5 589,-622.5 940,-622.5 940,-592.5 589,-592.5"/>
<text text-anchor="start" x="596" y="-603.9" font-family="Arial" font-size="14.00" fill="#000000">position </text>
<text text-anchor="start" x="648.1248" y="-603.9" font-family="Arial" font-size="14.00" fill="#666666">[integer]</text>
<polygon fill="none" stroke="#000000" stroke-width="3" points="587,-591.5 587,-749.5 941,-749.5 941,-591.5 587,-591.5"/>
</g>
<!-- asset.copy_location -->
<g id="node2" class="node">
<title>asset.copy_location</title>
<polygon fill="#efefef" stroke="transparent" points="426,-417.5 426,-452.5 725,-452.5 725,-417.5 426,-417.5"/>
<polygon fill="none" stroke="#000000" points="426,-417.5 426,-452.5 725,-452.5 725,-417.5 426,-417.5"/>
<text text-anchor="start" x="432.6906" y="-430.3" font-family="Arial Bold" font-size="18.00" fill="#000000">asset.copy_location</text>
<text text-anchor="start" x="590.7414" y="-430.3" font-family="Arial" font-size="14.00" fill="#000000">    </text>
<text text-anchor="start" x="624.9462" y="-430.3" font-family="Arial" font-size="14.00" fill="#666666">[BASE TABLE]</text>
<polygon fill="none" stroke="#000000" points="426,-387.5 426,-417.5 725,-417.5 725,-387.5 426,-387.5"/>
<text text-anchor="start" x="433" y="-398.9" font-family="Arial" font-size="14.00" fill="#000000">id    </text>
<text text-anchor="start" x="478.094" y="-398.9" font-family="Arial" font-size="14.00" fill="#666666">[integer]</text>
<polygon fill="none" stroke="#000000" points="426,-357.5 426,-387.5 725,-387.5 725,-357.5 426,-357.5"/>
<text text-anchor="start" x="433" y="-368.9" font-family="Arial" font-size="14.00" fill="#000000">name    </text>
<text text-anchor="start" x="502.2132" y="-368.9" font-family="Arial" font-size="14.00" fill="#666666">[text]</text>
<polygon fill="none" stroke="#000000" points="426,-327.5 426,-357.5 725,-357.5 725,-327.5 426,-327.5"/>
<text text-anchor="start" x="433" y="-338.9" font-family="Arial" font-size="14.00" fill="#000000">owning_lib    </text>
<text text-anchor="start" x="533.3268" y="-338.9" font-family="Arial" font-size="14.00" fill="#666666">[integer]</text>
<polygon fill="none" stroke="#000000" points="426,-297.5 426,-327.5 725,-327.5 725,-297.5 426,-297.5"/>
<text text-anchor="start" x="433" y="-308.9" font-family="Arial" font-size="14.00" fill="#000000">holdable    </text>
<text text-anchor="start" x="520.1136" y="-308.9" font-family="Arial" font-size="14.00" fill="#666666">[boolean]</text>
<polygon fill="none" stroke="#000000" points="426,-267.5 426,-297.5 725,-297.5 725,-267.5 426,-267.5"/>
<text text-anchor="start" x="433" y="-278.9" font-family="Arial" font-size="14.00" fill="#000000">hold_verify    </text>
<text text-anchor="start" x="534.8822" y="-278.9" font-family="Arial" font-size="14.00" fill="#666666">[boolean]</text>
<polygon fill="none" stroke="#000000" points="426,-237.5 426,-267.5 725,-267.5 725,-237.5 426,-237.5"/>
<text text-anchor="start" x="433" y="-248.9" font-family="Arial" font-size="14.00" fill="#000000">opac_visible    </text>
<text text-anchor="start" x="544.2202" y="-248.9" font-family="Arial" font-size="14.00" fill="#666666">[boolean]</text>
<polygon fill="none" stroke="#000000" points="426,-207.5 426,-237.5 725,-237.5 725,-207.5 426,-207.5"/>
<text text-anchor="start" x="433" y="-218.9" font-family="Arial" font-size="14.00" fill="#000000">circulate    </text>
<text text-anchor="start" x="519.317" y="-218.9" font-family="Arial" font-size="14.00" fill="#666666">[boolean]</text>
<polygon fill="none" stroke="#000000" points="426,-177.5 426,-207.5 725,-207.5 725,-177.5 426,-177.5"/>
<text text-anchor="start" x="433" y="-188.9" font-family="Arial" font-size="14.00" fill="#000000">label_prefix    </text>
<text text-anchor="start" x="538.7714" y="-188.9" font-family="Arial" font-size="14.00" fill="#666666">[text]</text>
<polygon fill="none" stroke="#000000" points="426,-147.5 426,-177.5 725,-177.5 725,-147.5 426,-147.5"/>
<text text-anchor="start" x="433" y="-158.9" font-family="Arial" font-size="14.00" fill="#000000">label_suffix    </text>
<text text-anchor="start" x="537.2188" y="-158.9" font-family="Arial" font-size="14.00" fill="#666666">[text]</text>
<polygon fill="none" stroke="#000000" points="426,-117.5 426,-147.5 725,-147.5 725,-117.5 426,-117.5"/>
<text text-anchor="start" x="433" y="-128.9" font-family="Arial" font-size="14.00" fill="#000000">checkin_alert    </text>
<text text-anchor="start" x="549.6648" y="-128.9" font-family="Arial" font-size="14.00" fill="#666666">[boolean]</text>
<polygon fill="none" stroke="#000000" points="426,-87.5 426,-117.5 725,-117.5 725,-87.5 426,-87.5"/>
<text text-anchor="start" x="433" y="-98.9" font-family="Arial" font-size="14.00" fill="#000000">deleted    </text>
<text text-anchor="start" x="513.115" y="-98.9" font-family="Arial" font-size="14.00" fill="#666666">[boolean]</text>
<polygon fill="none" stroke="#000000" points="426,-57.5 426,-87.5 725,-87.5 725,-57.5 426,-57.5"/>
<text text-anchor="start" x="433" y="-68.9" font-family="Arial" font-size="14.00" fill="#000000">url    </text>
<text text-anchor="start" x="482.7546" y="-68.9" font-family="Arial" font-size="14.00" fill="#666666">[text]</text>
</g>
<!-- asset.copy_location_order&#45;&gt;asset.copy_location -->
<g id="edge1" class="edge">
<title>asset.copy_location_order:location&#45;&gt;asset.copy_location:id</title>
<path fill="none" stroke="#000000" d="M578.8153,-666.4035C538.7228,-656.9053 560.6399,-587.9236 589,-547 625.77,-493.9408 688.23,-549.0592 725,-496 748.6698,-461.8444 766.5556,-402.5 725,-402.5"/>
<polygon fill="#000000" stroke="#000000" points="579.0575,-666.4295 588.5183,-671.9741 584.0287,-666.9648 589,-667.5 589,-667.5 589,-667.5 584.0287,-666.9648 589.4817,-663.0259 579.0575,-666.4295 579.0575,-666.4295"/>
<text text-anchor="start" x="7.4795" y="-677.5" font-family="Arial" font-size="10.00" fill="#000000">FOREIGN KEY (location) REFERENCES asset.copy_location(id) ON DELETE CASCADE DEFERRABLE INITIALLY DEFERRED</text>
</g>
<!-- actor.org_unit -->
<g id="node3" class="node">
<title>actor.org_unit</title>
<polygon fill="#efefef" stroke="transparent" points="829,-432.5 829,-467.5 1080,-467.5 1080,-432.5 829,-432.5"/>
<polygon fill="none" stroke="#000000" points="829,-432.5 829,-467.5 1080,-467.5 1080,-432.5 829,-432.5"/>
<text text-anchor="start" x="835.7017" y="-445.3" font-family="Arial Bold" font-size="18.00" fill="#000000">actor.org_unit</text>
<text text-anchor="start" x="945.7303" y="-445.3" font-family="Arial" font-size="14.00" fill="#000000">    </text>
<text text-anchor="start" x="979.9351" y="-445.3" font-family="Arial" font-size="14.00" fill="#666666">[BASE TABLE]</text>
<polygon fill="none" stroke="#000000" points="829,-402.5 829,-432.5 1080,-432.5 1080,-402.5 829,-402.5"/>
<text text-anchor="start" x="836" y="-413.9" font-family="Arial" font-size="14.00" fill="#000000">id    </text>
<text text-anchor="start" x="881.094" y="-413.9" font-family="Arial" font-size="14.00" fill="#666666">[integer]</text>
<polygon fill="none" stroke="#000000" points="829,-372.5 829,-402.5 1080,-402.5 1080,-372.5 829,-372.5"/>
<text text-anchor="start" x="836" y="-383.9" font-family="Arial" font-size="14.00" fill="#000000">parent_ou    </text>
<text text-anchor="start" x="933.2342" y="-383.9" font-family="Arial" font-size="14.00" fill="#666666">[integer]</text>
<polygon fill="none" stroke="#000000" points="829,-342.5 829,-372.5 1080,-372.5 1080,-342.5 829,-342.5"/>
<text text-anchor="start" x="836" y="-353.9" font-family="Arial" font-size="14.00" fill="#000000">ou_type    </text>
<text text-anchor="start" x="920.0084" y="-353.9" font-family="Arial" font-size="14.00" fill="#666666">[integer]</text>
<polygon fill="none" stroke="#000000" points="829,-312.5 829,-342.5 1080,-342.5 1080,-312.5 829,-312.5"/>
<text text-anchor="start" x="836" y="-323.9" font-family="Arial" font-size="14.00" fill="#000000">ill_address    </text>
<text text-anchor="start" x="937.0982" y="-323.9" font-family="Arial" font-size="14.00" fill="#666666">[integer]</text>
<polygon fill="none" stroke="#000000" points="829,-282.5 829,-312.5 1080,-312.5 1080,-282.5 829,-282.5"/>
<text text-anchor="start" x="836" y="-293.9" font-family="Arial" font-size="14.00" fill="#000000">holds_address    </text>
<text text-anchor="start" x="961.2328" y="-293.9" font-family="Arial" font-size="14.00" fill="#666666">[integer]</text>
<polygon fill="none" stroke="#000000" points="829,-252.5 829,-282.5 1080,-282.5 1080,-252.5 829,-252.5"/>
<text text-anchor="start" x="836" y="-263.9" font-family="Arial" font-size="14.00" fill="#000000">mailing_address    </text>
<text text-anchor="start" x="972.1066" y="-263.9" font-family="Arial" font-size="14.00" fill="#666666">[integer]</text>
<polygon fill="none" stroke="#000000" points="829,-222.5 829,-252.5 1080,-252.5 1080,-222.5 829,-222.5"/>
<text text-anchor="start" x="836" y="-233.9" font-family="Arial" font-size="14.00" fill="#000000">billing_address    </text>
<text text-anchor="start" x="963.5526" y="-233.9" font-family="Arial" font-size="14.00" fill="#666666">[integer]</text>
<polygon fill="none" stroke="#000000" points="829,-192.5 829,-222.5 1080,-222.5 1080,-192.5 829,-192.5"/>
<text text-anchor="start" x="836" y="-203.9" font-family="Arial" font-size="14.00" fill="#000000">shortname    </text>
<text text-anchor="start" x="936.3296" y="-203.9" font-family="Arial" font-size="14.00" fill="#666666">[text]</text>
<polygon fill="none" stroke="#000000" points="829,-162.5 829,-192.5 1080,-192.5 1080,-162.5 829,-162.5"/>
<text text-anchor="start" x="836" y="-173.9" font-family="Arial" font-size="14.00" fill="#000000">name    </text>
<text text-anchor="start" x="905.2132" y="-173.9" font-family="Arial" font-size="14.00" fill="#666666">[text]</text>
<polygon fill="none" stroke="#000000" points="829,-132.5 829,-162.5 1080,-162.5 1080,-132.5 829,-132.5"/>
<text text-anchor="start" x="836" y="-143.9" font-family="Arial" font-size="14.00" fill="#000000">email    </text>
<text text-anchor="start" x="903.6438" y="-143.9" font-family="Arial" font-size="14.00" fill="#666666">[text]</text>
<polygon fill="none" stroke="#000000" points="829,-102.5 829,-132.5 1080,-132.5 1080,-102.5 829,-102.5"/>
<text text-anchor="start" x="836" y="-113.9" font-family="Arial" font-size="14.00" fill="#000000">phone    </text>
<text text-anchor="start" x="909.1178" y="-113.9" font-family="Arial" font-size="14.00" fill="#666666">[text]</text>
<polygon fill="none" stroke="#000000" points="829,-72.5 829,-102.5 1080,-102.5 1080,-72.5 829,-72.5"/>
<text text-anchor="start" x="836" y="-83.9" font-family="Arial" font-size="14.00" fill="#000000">opac_visible    </text>
<text text-anchor="start" x="947.2202" y="-83.9" font-family="Arial" font-size="14.00" fill="#666666">[boolean]</text>
<polygon fill="none" stroke="#000000" points="829,-42.5 829,-72.5 1080,-72.5 1080,-42.5 829,-42.5"/>
<text text-anchor="start" x="836" y="-53.9" font-family="Arial" font-size="14.00" fill="#000000">fiscal_calendar    </text>
<text text-anchor="start" x="963.554" y="-53.9" font-family="Arial" font-size="14.00" fill="#666666">[integer]</text>
</g>
<!-- asset.copy_location_order&#45;&gt;actor.org_unit -->
<g id="edge2" class="edge">
<title>asset.copy_location_order:org&#45;&gt;actor.org_unit:id</title>
<path fill="none" stroke="#000000" d="M950.2053,-635.9193C976.9181,-626.4211 961.3411,-576.3569 940,-547 909.5044,-505.0501 859.4956,-552.9499 829,-511 804.5652,-477.3874 787.4444,-417.5 829,-417.5"/>
<polygon fill="#000000" stroke="#000000" points="949.8822,-635.9692 939.3111,-633.053 944.9411,-636.7346 940,-637.5 940,-637.5 940,-637.5 944.9411,-636.7346 940.6889,-641.947 949.8822,-635.9692 949.8822,-635.9692"/>
<text text-anchor="start" x="946.822" y="-647.5" font-family="Arial" font-size="10.00" fill="#000000">FOREIGN KEY (org) REFERENCES actor.org_unit(id) ON DELETE CASCADE DEFERRABLE INITIALLY DEFERRED</text>
</g>
</g>
</svg>
