<?xml version="1.0" encoding="UTF-8" standalone="no"?>
<!DOCTYPE svg PUBLIC "-//W3C//DTD SVG 1.1//EN"
 "http://www.w3.org/Graphics/SVG/1.1/DTD/svg11.dtd">
<!-- Generated by graphviz version 2.40.1 (20161225.0304)
 -->
<!-- Title: asset.copy_alert Pages: 1 -->
<svg width="1154pt" height="2032pt"
 viewBox="0.00 0.00 1153.50 2032.00" xmlns="http://www.w3.org/2000/svg" xmlns:xlink="http://www.w3.org/1999/xlink">
<g id="graph0" class="graph" transform="scale(1 1) rotate(0) translate(4 2028)">
<title>asset.copy_alert</title>
<polygon fill="#ffffff" stroke="transparent" points="-4,4 -4,-2028 1149.5,-2028 1149.5,4 -4,4"/>
<!-- asset.copy_alert -->
<g id="node1" class="node">
<title>asset.copy_alert</title>
<polygon fill="#efefef" stroke="transparent" points="492.5,-1942.5 492.5,-1977.5 764.5,-1977.5 764.5,-1942.5 492.5,-1942.5"/>
<polygon fill="none" stroke="#000000" points="492.5,-1942.5 492.5,-1977.5 764.5,-1977.5 764.5,-1942.5 492.5,-1942.5"/>
<text text-anchor="start" x="499.1978" y="-1955.3" font-family="Arial Bold" font-size="18.00" fill="#000000">asset.copy_alert</text>
<text text-anchor="start" x="630.2342" y="-1955.3" font-family="Arial" font-size="14.00" fill="#000000">    </text>
<text text-anchor="start" x="664.439" y="-1955.3" font-family="Arial" font-size="14.00" fill="#666666">[BASE TABLE]</text>
<polygon fill="none" stroke="#000000" points="492.5,-1912.5 492.5,-1942.5 764.5,-1942.5 764.5,-1912.5 492.5,-1912.5"/>
<text text-anchor="start" x="499.5" y="-1923.9" font-family="Arial" font-size="14.00" fill="#000000">id </text>
<text text-anchor="start" x="514.2798" y="-1923.9" font-family="Arial" font-size="14.00" fill="#666666">[bigint]</text>
<polygon fill="none" stroke="#000000" points="492.5,-1882.5 492.5,-1912.5 764.5,-1912.5 764.5,-1882.5 492.5,-1882.5"/>
<text text-anchor="start" x="499.5" y="-1893.9" font-family="Arial" font-size="14.00" fill="#000000">alert_type </text>
<text text-anchor="start" x="564.852" y="-1893.9" font-family="Arial" font-size="14.00" fill="#666666">[integer]</text>
<polygon fill="none" stroke="#000000" points="492.5,-1852.5 492.5,-1882.5 764.5,-1882.5 764.5,-1852.5 492.5,-1852.5"/>
<text text-anchor="start" x="499.5" y="-1863.9" font-family="Arial" font-size="14.00" fill="#000000">copy </text>
<text text-anchor="start" x="532.9558" y="-1863.9" font-family="Arial" font-size="14.00" fill="#666666">[bigint]</text>
<polygon fill="none" stroke="#000000" points="492.5,-1822.5 492.5,-1852.5 764.5,-1852.5 764.5,-1822.5 492.5,-1822.5"/>
<text text-anchor="start" x="499.5" y="-1833.9" font-family="Arial" font-size="14.00" fill="#000000">temp </text>
<text text-anchor="start" x="534.507" y="-1833.9" font-family="Arial" font-size="14.00" fill="#666666">[boolean]</text>
<polygon fill="none" stroke="#000000" points="492.5,-1792.5 492.5,-1822.5 764.5,-1822.5 764.5,-1792.5 492.5,-1792.5"/>
<text text-anchor="start" x="499.5" y="-1803.9" font-family="Arial" font-size="14.00" fill="#000000">create_time </text>
<text text-anchor="start" x="576.5126" y="-1803.9" font-family="Arial" font-size="14.00" fill="#666666">[timestamp with time zone]</text>
<polygon fill="none" stroke="#000000" points="492.5,-1762.5 492.5,-1792.5 764.5,-1792.5 764.5,-1762.5 492.5,-1762.5"/>
<text text-anchor="start" x="499.5" y="-1773.9" font-family="Arial" font-size="14.00" fill="#000000">create_staff </text>
<text text-anchor="start" x="576.5266" y="-1773.9" font-family="Arial" font-size="14.00" fill="#666666">[bigint]</text>
<polygon fill="none" stroke="#000000" points="492.5,-1732.5 492.5,-1762.5 764.5,-1762.5 764.5,-1732.5 492.5,-1732.5"/>
<text text-anchor="start" x="499.5" y="-1743.9" font-family="Arial" font-size="14.00" fill="#000000">note </text>
<text text-anchor="start" x="530.629" y="-1743.9" font-family="Arial" font-size="14.00" fill="#666666">[text]</text>
<polygon fill="none" stroke="#000000" points="492.5,-1702.5 492.5,-1732.5 764.5,-1732.5 764.5,-1702.5 492.5,-1702.5"/>
<text text-anchor="start" x="499.5" y="-1713.9" font-family="Arial" font-size="14.00" fill="#000000">ack_time </text>
<text text-anchor="start" x="559.3962" y="-1713.9" font-family="Arial" font-size="14.00" fill="#666666">[timestamp with time zone]</text>
<polygon fill="none" stroke="#000000" points="492.5,-1672.5 492.5,-1702.5 764.5,-1702.5 764.5,-1672.5 492.5,-1672.5"/>
<text text-anchor="start" x="499.5" y="-1683.9" font-family="Arial" font-size="14.00" fill="#000000">ack_staff </text>
<text text-anchor="start" x="559.4102" y="-1683.9" font-family="Arial" font-size="14.00" fill="#666666">[bigint]</text>
<polygon fill="none" stroke="#000000" stroke-width="3" points="491,-1671.5 491,-1979.5 766,-1979.5 766,-1671.5 491,-1671.5"/>
</g>
<!-- config.copy_alert_type -->
<g id="node2" class="node">
<title>config.copy_alert_type</title>
<polygon fill="#efefef" stroke="transparent" points="43.5,-942.5 43.5,-977.5 364.5,-977.5 364.5,-942.5 43.5,-942.5"/>
<polygon fill="none" stroke="#000000" points="43.5,-942.5 43.5,-977.5 364.5,-977.5 364.5,-942.5 43.5,-942.5"/>
<text text-anchor="start" x="50.1872" y="-955.3" font-family="Arial Bold" font-size="18.00" fill="#000000">config.copy_alert_type</text>
<text text-anchor="start" x="230.2448" y="-955.3" font-family="Arial" font-size="14.00" fill="#000000">    </text>
<text text-anchor="start" x="264.4496" y="-955.3" font-family="Arial" font-size="14.00" fill="#666666">[BASE TABLE]</text>
<polygon fill="none" stroke="#000000" points="43.5,-912.5 43.5,-942.5 364.5,-942.5 364.5,-912.5 43.5,-912.5"/>
<text text-anchor="start" x="50.5" y="-923.9" font-family="Arial" font-size="14.00" fill="#000000">id    </text>
<text text-anchor="start" x="95.594" y="-923.9" font-family="Arial" font-size="14.00" fill="#666666">[integer]</text>
<polygon fill="none" stroke="#000000" points="43.5,-882.5 43.5,-912.5 364.5,-912.5 364.5,-882.5 43.5,-882.5"/>
<text text-anchor="start" x="50.5" y="-893.9" font-family="Arial" font-size="14.00" fill="#000000">scope_org    </text>
<text text-anchor="start" x="150.061" y="-893.9" font-family="Arial" font-size="14.00" fill="#666666">[integer]</text>
<polygon fill="none" stroke="#000000" points="43.5,-852.5 43.5,-882.5 364.5,-882.5 364.5,-852.5 43.5,-852.5"/>
<text text-anchor="start" x="50.5" y="-863.9" font-family="Arial" font-size="14.00" fill="#000000">active    </text>
<text text-anchor="start" x="121.2672" y="-863.9" font-family="Arial" font-size="14.00" fill="#666666">[boolean]</text>
<polygon fill="none" stroke="#000000" points="43.5,-822.5 43.5,-852.5 364.5,-852.5 364.5,-822.5 43.5,-822.5"/>
<text text-anchor="start" x="50.5" y="-833.9" font-family="Arial" font-size="14.00" fill="#000000">name    </text>
<text text-anchor="start" x="119.7132" y="-833.9" font-family="Arial" font-size="14.00" fill="#666666">[text]</text>
<polygon fill="none" stroke="#000000" points="43.5,-792.5 43.5,-822.5 364.5,-822.5 364.5,-792.5 43.5,-792.5"/>
<text text-anchor="start" x="50.5" y="-803.9" font-family="Arial" font-size="14.00" fill="#000000">state    </text>
<text text-anchor="start" x="115.0512" y="-803.9" font-family="Arial" font-size="14.00" fill="#666666">[config.copy_alert_type_state]</text>
<polygon fill="none" stroke="#000000" points="43.5,-762.5 43.5,-792.5 364.5,-792.5 364.5,-762.5 43.5,-762.5"/>
<text text-anchor="start" x="50.5" y="-773.9" font-family="Arial" font-size="14.00" fill="#000000">event    </text>
<text text-anchor="start" x="118.9432" y="-773.9" font-family="Arial" font-size="14.00" fill="#666666">[config.copy_alert_type_event]</text>
<polygon fill="none" stroke="#000000" points="43.5,-732.5 43.5,-762.5 364.5,-762.5 364.5,-732.5 43.5,-732.5"/>
<text text-anchor="start" x="50.5" y="-743.9" font-family="Arial" font-size="14.00" fill="#000000">in_renew    </text>
<text text-anchor="start" x="141.4916" y="-743.9" font-family="Arial" font-size="14.00" fill="#666666">[boolean]</text>
<polygon fill="none" stroke="#000000" points="43.5,-702.5 43.5,-732.5 364.5,-732.5 364.5,-702.5 43.5,-702.5"/>
<text text-anchor="start" x="50.5" y="-713.9" font-family="Arial" font-size="14.00" fill="#000000">invert_location    </text>
<text text-anchor="start" x="174.9446" y="-713.9" font-family="Arial" font-size="14.00" fill="#666666">[boolean]</text>
<polygon fill="none" stroke="#000000" points="43.5,-672.5 43.5,-702.5 364.5,-702.5 364.5,-672.5 43.5,-672.5"/>
<text text-anchor="start" x="50.5" y="-683.9" font-family="Arial" font-size="14.00" fill="#000000">at_circ    </text>
<text text-anchor="start" x="125.9278" y="-683.9" font-family="Arial" font-size="14.00" fill="#666666">[boolean]</text>
<polygon fill="none" stroke="#000000" points="43.5,-642.5 43.5,-672.5 364.5,-672.5 364.5,-642.5 43.5,-642.5"/>
<text text-anchor="start" x="50.5" y="-653.9" font-family="Arial" font-size="14.00" fill="#000000">at_owning    </text>
<text text-anchor="start" x="148.5042" y="-653.9" font-family="Arial" font-size="14.00" fill="#666666">[boolean]</text>
<polygon fill="none" stroke="#000000" points="43.5,-612.5 43.5,-642.5 364.5,-642.5 364.5,-612.5 43.5,-612.5"/>
<text text-anchor="start" x="50.5" y="-623.9" font-family="Arial" font-size="14.00" fill="#000000">next_status    </text>
<text text-anchor="start" x="156.2896" y="-623.9" font-family="Arial" font-size="14.00" fill="#666666">[integer[]]</text>
</g>
<!-- asset.copy_alert&#45;&gt;config.copy_alert_type -->
<g id="edge1" class="edge">
<title>asset.copy_alert:alert_type&#45;&gt;config.copy_alert_type:id</title>
<path fill="none" stroke="#000000" d="M482.2433,-1897.1784C356.4896,-1888.9898 438.378,-1726.023 416.5,-1591 404.6723,-1518.0037 438.4483,-927.5 364.5,-927.5"/>
<polygon fill="#000000" stroke="#000000" points="482.5049,-1897.1865 492.3589,-1901.9978 487.5025,-1897.3432 492.5,-1897.5 492.5,-1897.5 492.5,-1897.5 487.5025,-1897.3432 492.6411,-1893.0022 482.5049,-1897.1865 482.5049,-1897.1865"/>
<text text-anchor="start" x="65.2025" y="-1907.5" font-family="Arial" font-size="10.00" fill="#000000">FOREIGN KEY (alert_type) REFERENCES config.copy_alert_type(id) ON DELETE CASCADE</text>
</g>
<!-- actor.usr -->
<g id="node3" class="node">
<title>actor.usr</title>
<polygon fill="#efefef" stroke="transparent" points="468.5,-1512.5 468.5,-1547.5 788.5,-1547.5 788.5,-1512.5 468.5,-1512.5"/>
<polygon fill="none" stroke="#000000" points="468.5,-1512.5 468.5,-1547.5 788.5,-1547.5 788.5,-1512.5 468.5,-1512.5"/>
<text text-anchor="start" x="529.7123" y="-1525.3" font-family="Arial Bold" font-size="18.00" fill="#000000">actor.usr</text>
<text text-anchor="start" x="599.7197" y="-1525.3" font-family="Arial" font-size="14.00" fill="#000000">    </text>
<text text-anchor="start" x="633.9245" y="-1525.3" font-family="Arial" font-size="14.00" fill="#666666">[BASE TABLE]</text>
<polygon fill="none" stroke="#000000" points="468.5,-1482.5 468.5,-1512.5 788.5,-1512.5 788.5,-1482.5 468.5,-1482.5"/>
<text text-anchor="start" x="475.5" y="-1493.9" font-family="Arial" font-size="14.00" fill="#000000">id    </text>
<text text-anchor="start" x="520.594" y="-1493.9" font-family="Arial" font-size="14.00" fill="#666666">[integer]</text>
<polygon fill="none" stroke="#000000" points="468.5,-1452.5 468.5,-1482.5 788.5,-1482.5 788.5,-1452.5 468.5,-1452.5"/>
<text text-anchor="start" x="475.5" y="-1463.9" font-family="Arial" font-size="14.00" fill="#000000">card    </text>
<text text-anchor="start" x="536.9306" y="-1463.9" font-family="Arial" font-size="14.00" fill="#666666">[integer]</text>
<polygon fill="none" stroke="#000000" points="468.5,-1422.5 468.5,-1452.5 788.5,-1452.5 788.5,-1422.5 468.5,-1422.5"/>
<text text-anchor="start" x="475.5" y="-1433.9" font-family="Arial" font-size="14.00" fill="#000000">profile    </text>
<text text-anchor="start" x="547.817" y="-1433.9" font-family="Arial" font-size="14.00" fill="#666666">[integer]</text>
<polygon fill="none" stroke="#000000" points="468.5,-1392.5 468.5,-1422.5 788.5,-1422.5 788.5,-1392.5 468.5,-1392.5"/>
<text text-anchor="start" x="475.5" y="-1403.9" font-family="Arial" font-size="14.00" fill="#000000">usrname    </text>
<text text-anchor="start" x="564.1564" y="-1403.9" font-family="Arial" font-size="14.00" fill="#666666">[text]</text>
<polygon fill="none" stroke="#000000" points="468.5,-1362.5 468.5,-1392.5 788.5,-1392.5 788.5,-1362.5 468.5,-1362.5"/>
<text text-anchor="start" x="475.5" y="-1373.9" font-family="Arial" font-size="14.00" fill="#000000">email    </text>
<text text-anchor="start" x="543.1438" y="-1373.9" font-family="Arial" font-size="14.00" fill="#666666">[text]</text>
<polygon fill="none" stroke="#000000" points="468.5,-1332.5 468.5,-1362.5 788.5,-1362.5 788.5,-1332.5 468.5,-1332.5"/>
<text text-anchor="start" x="475.5" y="-1343.9" font-family="Arial" font-size="14.00" fill="#000000">passwd    </text>
<text text-anchor="start" x="557.1592" y="-1343.9" font-family="Arial" font-size="14.00" fill="#666666">[text]</text>
<polygon fill="none" stroke="#000000" points="468.5,-1302.5 468.5,-1332.5 788.5,-1332.5 788.5,-1302.5 468.5,-1302.5"/>
<text text-anchor="start" x="475.5" y="-1313.9" font-family="Arial" font-size="14.00" fill="#000000">standing    </text>
<text text-anchor="start" x="562.615" y="-1313.9" font-family="Arial" font-size="14.00" fill="#666666">[integer]</text>
<polygon fill="none" stroke="#000000" points="468.5,-1272.5 468.5,-1302.5 788.5,-1302.5 788.5,-1272.5 468.5,-1272.5"/>
<text text-anchor="start" x="475.5" y="-1283.9" font-family="Arial" font-size="14.00" fill="#000000">ident_type    </text>
<text text-anchor="start" x="574.2882" y="-1283.9" font-family="Arial" font-size="14.00" fill="#666666">[integer]</text>
<polygon fill="none" stroke="#000000" points="468.5,-1242.5 468.5,-1272.5 788.5,-1272.5 788.5,-1242.5 468.5,-1242.5"/>
<text text-anchor="start" x="475.5" y="-1253.9" font-family="Arial" font-size="14.00" fill="#000000">ident_value    </text>
<text text-anchor="start" x="581.2868" y="-1253.9" font-family="Arial" font-size="14.00" fill="#666666">[text]</text>
<polygon fill="none" stroke="#000000" points="468.5,-1212.5 468.5,-1242.5 788.5,-1242.5 788.5,-1212.5 468.5,-1212.5"/>
<text text-anchor="start" x="475.5" y="-1223.9" font-family="Arial" font-size="14.00" fill="#000000">ident_type2    </text>
<text text-anchor="start" x="582.0708" y="-1223.9" font-family="Arial" font-size="14.00" fill="#666666">[integer]</text>
<polygon fill="none" stroke="#000000" points="468.5,-1182.5 468.5,-1212.5 788.5,-1212.5 788.5,-1182.5 468.5,-1182.5"/>
<text text-anchor="start" x="475.5" y="-1193.9" font-family="Arial" font-size="14.00" fill="#000000">ident_value2    </text>
<text text-anchor="start" x="589.0694" y="-1193.9" font-family="Arial" font-size="14.00" fill="#666666">[text]</text>
<polygon fill="none" stroke="#000000" points="468.5,-1152.5 468.5,-1182.5 788.5,-1182.5 788.5,-1152.5 468.5,-1152.5"/>
<text text-anchor="start" x="475.5" y="-1163.9" font-family="Arial" font-size="14.00" fill="#000000">net_access_level    </text>
<text text-anchor="start" x="617.0694" y="-1163.9" font-family="Arial" font-size="14.00" fill="#666666">[integer]</text>
<polygon fill="none" stroke="#000000" points="468.5,-1122.5 468.5,-1152.5 788.5,-1152.5 788.5,-1122.5 468.5,-1122.5"/>
<text text-anchor="start" x="475.5" y="-1133.9" font-family="Arial" font-size="14.00" fill="#000000">photo_url    </text>
<text text-anchor="start" x="568.0582" y="-1133.9" font-family="Arial" font-size="14.00" fill="#666666">[text]</text>
<polygon fill="none" stroke="#000000" points="468.5,-1092.5 468.5,-1122.5 788.5,-1122.5 788.5,-1092.5 468.5,-1092.5"/>
<text text-anchor="start" x="475.5" y="-1103.9" font-family="Arial" font-size="14.00" fill="#000000">prefix    </text>
<text text-anchor="start" x="543.9278" y="-1103.9" font-family="Arial" font-size="14.00" fill="#666666">[text]</text>
<polygon fill="none" stroke="#000000" points="468.5,-1062.5 468.5,-1092.5 788.5,-1092.5 788.5,-1062.5 468.5,-1062.5"/>
<text text-anchor="start" x="475.5" y="-1073.9" font-family="Arial" font-size="14.00" fill="#000000">first_given_name    </text>
<text text-anchor="start" x="616.2812" y="-1073.9" font-family="Arial" font-size="14.00" fill="#666666">[text]</text>
<polygon fill="none" stroke="#000000" points="468.5,-1032.5 468.5,-1062.5 788.5,-1062.5 788.5,-1032.5 468.5,-1032.5"/>
<text text-anchor="start" x="475.5" y="-1043.9" font-family="Arial" font-size="14.00" fill="#000000">second_given_name    </text>
<text text-anchor="start" x="638.8632" y="-1043.9" font-family="Arial" font-size="14.00" fill="#666666">[text]</text>
<polygon fill="none" stroke="#000000" points="468.5,-1002.5 468.5,-1032.5 788.5,-1032.5 788.5,-1002.5 468.5,-1002.5"/>
<text text-anchor="start" x="475.5" y="-1013.9" font-family="Arial" font-size="14.00" fill="#000000">family_name    </text>
<text text-anchor="start" x="589.0428" y="-1013.9" font-family="Arial" font-size="14.00" fill="#666666">[text]</text>
<polygon fill="none" stroke="#000000" points="468.5,-972.5 468.5,-1002.5 788.5,-1002.5 788.5,-972.5 468.5,-972.5"/>
<text text-anchor="start" x="475.5" y="-983.9" font-family="Arial" font-size="14.00" fill="#000000">suffix    </text>
<text text-anchor="start" x="542.3752" y="-983.9" font-family="Arial" font-size="14.00" fill="#666666">[text]</text>
<polygon fill="none" stroke="#000000" points="468.5,-942.5 468.5,-972.5 788.5,-972.5 788.5,-942.5 468.5,-942.5"/>
<text text-anchor="start" x="475.5" y="-953.9" font-family="Arial" font-size="14.00" fill="#000000">alias    </text>
<text text-anchor="start" x="538.4832" y="-953.9" font-family="Arial" font-size="14.00" fill="#666666">[text]</text>
<polygon fill="none" stroke="#000000" points="468.5,-912.5 468.5,-942.5 788.5,-942.5 788.5,-912.5 468.5,-912.5"/>
<text text-anchor="start" x="475.5" y="-923.9" font-family="Arial" font-size="14.00" fill="#000000">day_phone    </text>
<text text-anchor="start" x="578.9656" y="-923.9" font-family="Arial" font-size="14.00" fill="#666666">[text]</text>
<polygon fill="none" stroke="#000000" points="468.5,-882.5 468.5,-912.5 788.5,-912.5 788.5,-882.5 468.5,-882.5"/>
<text text-anchor="start" x="475.5" y="-893.9" font-family="Arial" font-size="14.00" fill="#000000">evening_phone    </text>
<text text-anchor="start" x="605.42" y="-893.9" font-family="Arial" font-size="14.00" fill="#666666">[text]</text>
<polygon fill="none" stroke="#000000" points="468.5,-852.5 468.5,-882.5 788.5,-882.5 788.5,-852.5 468.5,-852.5"/>
<text text-anchor="start" x="475.5" y="-863.9" font-family="Arial" font-size="14.00" fill="#000000">other_phone    </text>
<text text-anchor="start" x="588.2994" y="-863.9" font-family="Arial" font-size="14.00" fill="#666666">[text]</text>
<polygon fill="none" stroke="#000000" points="468.5,-822.5 468.5,-852.5 788.5,-852.5 788.5,-822.5 468.5,-822.5"/>
<text text-anchor="start" x="475.5" y="-833.9" font-family="Arial" font-size="14.00" fill="#000000">mailing_address    </text>
<text text-anchor="start" x="611.6066" y="-833.9" font-family="Arial" font-size="14.00" fill="#666666">[integer]</text>
<polygon fill="none" stroke="#000000" points="468.5,-792.5 468.5,-822.5 788.5,-822.5 788.5,-792.5 468.5,-792.5"/>
<text text-anchor="start" x="475.5" y="-803.9" font-family="Arial" font-size="14.00" fill="#000000">billing_address    </text>
<text text-anchor="start" x="603.0526" y="-803.9" font-family="Arial" font-size="14.00" fill="#666666">[integer]</text>
<polygon fill="none" stroke="#000000" points="468.5,-762.5 468.5,-792.5 788.5,-792.5 788.5,-762.5 468.5,-762.5"/>
<text text-anchor="start" x="475.5" y="-773.9" font-family="Arial" font-size="14.00" fill="#000000">home_ou    </text>
<text text-anchor="start" x="568.061" y="-773.9" font-family="Arial" font-size="14.00" fill="#666666">[integer]</text>
<polygon fill="none" stroke="#000000" points="468.5,-732.5 468.5,-762.5 788.5,-762.5 788.5,-732.5 468.5,-732.5"/>
<text text-anchor="start" x="475.5" y="-743.9" font-family="Arial" font-size="14.00" fill="#000000">dob    </text>
<text text-anchor="start" x="533.0526" y="-743.9" font-family="Arial" font-size="14.00" fill="#666666">[date]</text>
<polygon fill="none" stroke="#000000" points="468.5,-702.5 468.5,-732.5 788.5,-732.5 788.5,-702.5 468.5,-702.5"/>
<text text-anchor="start" x="475.5" y="-713.9" font-family="Arial" font-size="14.00" fill="#000000">active    </text>
<text text-anchor="start" x="546.2672" y="-713.9" font-family="Arial" font-size="14.00" fill="#666666">[boolean]</text>
<polygon fill="none" stroke="#000000" points="468.5,-672.5 468.5,-702.5 788.5,-702.5 788.5,-672.5 468.5,-672.5"/>
<text text-anchor="start" x="475.5" y="-683.9" font-family="Arial" font-size="14.00" fill="#000000">master_account    </text>
<text text-anchor="start" x="609.2854" y="-683.9" font-family="Arial" font-size="14.00" fill="#666666">[boolean]</text>
<polygon fill="none" stroke="#000000" points="468.5,-642.5 468.5,-672.5 788.5,-672.5 788.5,-642.5 468.5,-642.5"/>
<text text-anchor="start" x="475.5" y="-653.9" font-family="Arial" font-size="14.00" fill="#000000">super_user    </text>
<text text-anchor="start" x="579.7216" y="-653.9" font-family="Arial" font-size="14.00" fill="#666666">[boolean]</text>
<polygon fill="none" stroke="#000000" points="468.5,-612.5 468.5,-642.5 788.5,-642.5 788.5,-612.5 468.5,-612.5"/>
<text text-anchor="start" x="475.5" y="-623.9" font-family="Arial" font-size="14.00" fill="#000000">barred    </text>
<text text-anchor="start" x="550.1564" y="-623.9" font-family="Arial" font-size="14.00" fill="#666666">[boolean]</text>
<polygon fill="none" stroke="#000000" points="468.5,-582.5 468.5,-612.5 788.5,-612.5 788.5,-582.5 468.5,-582.5"/>
<text text-anchor="start" x="475.5" y="-593.9" font-family="Arial" font-size="14.00" fill="#000000">deleted    </text>
<text text-anchor="start" x="555.615" y="-593.9" font-family="Arial" font-size="14.00" fill="#666666">[boolean]</text>
<polygon fill="none" stroke="#000000" points="468.5,-552.5 468.5,-582.5 788.5,-582.5 788.5,-552.5 468.5,-552.5"/>
<text text-anchor="start" x="475.5" y="-563.9" font-family="Arial" font-size="14.00" fill="#000000">juvenile    </text>
<text text-anchor="start" x="557.155" y="-563.9" font-family="Arial" font-size="14.00" fill="#666666">[boolean]</text>
<polygon fill="none" stroke="#000000" points="468.5,-522.5 468.5,-552.5 788.5,-552.5 788.5,-522.5 468.5,-522.5"/>
<text text-anchor="start" x="475.5" y="-533.9" font-family="Arial" font-size="14.00" fill="#000000">usrgroup    </text>
<text text-anchor="start" x="564.939" y="-533.9" font-family="Arial" font-size="14.00" fill="#666666">[integer]</text>
<polygon fill="none" stroke="#000000" points="468.5,-492.5 468.5,-522.5 788.5,-522.5 788.5,-492.5 468.5,-492.5"/>
<text text-anchor="start" x="475.5" y="-503.9" font-family="Arial" font-size="14.00" fill="#000000">claims_returned_count    </text>
<text text-anchor="start" x="651.2896" y="-503.9" font-family="Arial" font-size="14.00" fill="#666666">[integer]</text>
<polygon fill="none" stroke="#000000" points="468.5,-462.5 468.5,-492.5 788.5,-492.5 788.5,-462.5 468.5,-462.5"/>
<text text-anchor="start" x="475.5" y="-473.9" font-family="Arial" font-size="14.00" fill="#000000">credit_forward_balance    </text>
<text text-anchor="start" x="655.1788" y="-473.9" font-family="Arial" font-size="14.00" fill="#666666">[numeric(6,2)]</text>
<polygon fill="none" stroke="#000000" points="468.5,-432.5 468.5,-462.5 788.5,-462.5 788.5,-432.5 468.5,-432.5"/>
<text text-anchor="start" x="475.5" y="-443.9" font-family="Arial" font-size="14.00" fill="#000000">last_xact_id    </text>
<text text-anchor="start" x="583.6122" y="-443.9" font-family="Arial" font-size="14.00" fill="#666666">[text]</text>
<polygon fill="none" stroke="#000000" points="468.5,-402.5 468.5,-432.5 788.5,-432.5 788.5,-402.5 468.5,-402.5"/>
<text text-anchor="start" x="475.5" y="-413.9" font-family="Arial" font-size="14.00" fill="#000000">alert_message    </text>
<text text-anchor="start" x="601.5014" y="-413.9" font-family="Arial" font-size="14.00" fill="#666666">[text]</text>
<polygon fill="none" stroke="#000000" points="468.5,-372.5 468.5,-402.5 788.5,-402.5 788.5,-372.5 468.5,-372.5"/>
<text text-anchor="start" x="475.5" y="-383.9" font-family="Arial" font-size="14.00" fill="#000000">create_date    </text>
<text text-anchor="start" x="583.6248" y="-383.9" font-family="Arial" font-size="14.00" fill="#666666">[timestamp with time zone]</text>
<polygon fill="none" stroke="#000000" points="468.5,-342.5 468.5,-372.5 788.5,-372.5 788.5,-342.5 468.5,-342.5"/>
<text text-anchor="start" x="475.5" y="-353.9" font-family="Arial" font-size="14.00" fill="#000000">expire_date    </text>
<text text-anchor="start" x="582.8408" y="-353.9" font-family="Arial" font-size="14.00" fill="#666666">[timestamp with time zone]</text>
<polygon fill="none" stroke="#000000" points="468.5,-312.5 468.5,-342.5 788.5,-342.5 788.5,-312.5 468.5,-312.5"/>
<text text-anchor="start" x="475.5" y="-323.9" font-family="Arial" font-size="14.00" fill="#000000">claims_never_checked_out_count    </text>
<text text-anchor="start" x="721.3246" y="-323.9" font-family="Arial" font-size="14.00" fill="#666666">[integer]</text>
<polygon fill="none" stroke="#000000" points="468.5,-282.5 468.5,-312.5 788.5,-312.5 788.5,-282.5 468.5,-282.5"/>
<text text-anchor="start" x="475.2609" y="-293.9" font-family="Arial" font-size="14.00" fill="#000000">last_update_time    </text>
<text text-anchor="start" x="616.0547" y="-293.9" font-family="Arial" font-size="14.00" fill="#666666">[timestamp with time zone]</text>
<polygon fill="none" stroke="#000000" points="468.5,-252.5 468.5,-282.5 788.5,-282.5 788.5,-252.5 468.5,-252.5"/>
<text text-anchor="start" x="475.5" y="-263.9" font-family="Arial" font-size="14.00" fill="#000000">pref_prefix    </text>
<text text-anchor="start" x="575.8268" y="-263.9" font-family="Arial" font-size="14.00" fill="#666666">[text]</text>
<polygon fill="none" stroke="#000000" points="468.5,-222.5 468.5,-252.5 788.5,-252.5 788.5,-222.5 468.5,-222.5"/>
<text text-anchor="start" x="475.5" y="-233.9" font-family="Arial" font-size="14.00" fill="#000000">pref_first_given_name    </text>
<text text-anchor="start" x="648.1802" y="-233.9" font-family="Arial" font-size="14.00" fill="#666666">[text]</text>
<polygon fill="none" stroke="#000000" points="468.5,-192.5 468.5,-222.5 788.5,-222.5 788.5,-192.5 468.5,-192.5"/>
<text text-anchor="start" x="475.5" y="-203.9" font-family="Arial" font-size="14.00" fill="#000000">pref_second_given_name    </text>
<text text-anchor="start" x="670.7622" y="-203.9" font-family="Arial" font-size="14.00" fill="#666666">[text]</text>
<polygon fill="none" stroke="#000000" points="468.5,-162.5 468.5,-192.5 788.5,-192.5 788.5,-162.5 468.5,-162.5"/>
<text text-anchor="start" x="475.5" y="-173.9" font-family="Arial" font-size="14.00" fill="#000000">pref_family_name    </text>
<text text-anchor="start" x="620.9418" y="-173.9" font-family="Arial" font-size="14.00" fill="#666666">[text]</text>
<polygon fill="none" stroke="#000000" points="468.5,-132.5 468.5,-162.5 788.5,-162.5 788.5,-132.5 468.5,-132.5"/>
<text text-anchor="start" x="475.5" y="-143.9" font-family="Arial" font-size="14.00" fill="#000000">pref_suffix    </text>
<text text-anchor="start" x="574.2742" y="-143.9" font-family="Arial" font-size="14.00" fill="#666666">[text]</text>
<polygon fill="none" stroke="#000000" points="468.5,-102.5 468.5,-132.5 788.5,-132.5 788.5,-102.5 468.5,-102.5"/>
<text text-anchor="start" x="475.5" y="-113.9" font-family="Arial" font-size="14.00" fill="#000000">name_keywords    </text>
<text text-anchor="start" x="611.6108" y="-113.9" font-family="Arial" font-size="14.00" fill="#666666">[text]</text>
<polygon fill="none" stroke="#000000" points="468.5,-72.5 468.5,-102.5 788.5,-102.5 788.5,-72.5 468.5,-72.5"/>
<text text-anchor="start" x="475.5" y="-83.9" font-family="Arial" font-size="14.00" fill="#000000">name_kw_tsvector    </text>
<text text-anchor="start" x="626.392" y="-83.9" font-family="Arial" font-size="14.00" fill="#666666">[tsvector]</text>
<polygon fill="none" stroke="#000000" points="468.5,-42.5 468.5,-72.5 788.5,-72.5 788.5,-42.5 468.5,-42.5"/>
<text text-anchor="start" x="475.5" y="-53.9" font-family="Arial" font-size="14.00" fill="#000000">guardian    </text>
<text text-anchor="start" x="564.1676" y="-53.9" font-family="Arial" font-size="14.00" fill="#666666">[text]</text>
</g>
<!-- asset.copy_alert&#45;&gt;actor.usr -->
<g id="edge2" class="edge">
<title>asset.copy_alert:create_staff&#45;&gt;actor.usr:id</title>
<path fill="none" stroke="#000000" d="M774.3929,-1775.0794C829.3168,-1747.7124 847.5351,-1497.5 788.5,-1497.5"/>
<polygon fill="#000000" stroke="#000000" points="774.2135,-1775.1232 763.4305,-1773.1289 769.3567,-1776.3116 764.5,-1777.5 764.5,-1777.5 764.5,-1777.5 769.3567,-1776.3116 765.5695,-1781.8711 774.2135,-1775.1232 774.2135,-1775.1232"/>
<text text-anchor="start" x="771.878" y="-1787.5" font-family="Arial" font-size="10.00" fill="#000000">FOREIGN KEY (create_staff) REFERENCES actor.usr(id) ON DELETE SET NULL</text>
</g>
<!-- asset.copy_alert&#45;&gt;actor.usr -->
<g id="edge3" class="edge">
<title>asset.copy_alert:ack_staff&#45;&gt;actor.usr:id</title>
<path fill="none" stroke="#000000" d="M629.2597,-1662.2119C639.4221,-1598.6198 748.7527,-1655.853 788.5,-1591 810.2148,-1555.5694 830.0556,-1497.5 788.5,-1497.5"/>
<polygon fill="#000000" stroke="#000000" points="629.2365,-1662.5272 624.0122,-1672.1686 628.8683,-1667.5136 628.5,-1672.5 628.5,-1672.5 628.5,-1672.5 628.8683,-1667.5136 632.9878,-1672.8314 629.2365,-1662.5272 629.2365,-1662.5272"/>
<text text-anchor="start" x="266.991" y="-1682.5" font-family="Arial" font-size="10.00" fill="#000000">FOREIGN KEY (ack_staff) REFERENCES actor.usr(id) ON DELETE SET NULL</text>
</g>
</g>
</svg>
