<?xml version="1.0" encoding="UTF-8" standalone="no"?>
<!DOCTYPE svg PUBLIC "-//W3C//DTD SVG 1.1//EN"
 "http://www.w3.org/Graphics/SVG/1.1/DTD/svg11.dtd">
<!-- Generated by graphviz version 2.40.1 (20161225.0304)
 -->
<!-- Title: asset.course_module_role Pages: 1 -->
<svg width="998pt" height="502pt"
 viewBox="0.00 0.00 998.00 502.00" xmlns="http://www.w3.org/2000/svg" xmlns:xlink="http://www.w3.org/1999/xlink">
<g id="graph0" class="graph" transform="scale(1 1) rotate(0) translate(4 498)">
<title>asset.course_module_role</title>
<polygon fill="#ffffff" stroke="transparent" points="-4,4 -4,-498 994,-498 994,4 -4,4"/>
<!-- asset.course_module_role -->
<g id="node1" class="node">
<title>asset.course_module_role</title>
<polygon fill="#efefef" stroke="transparent" points="556,-135.5 556,-170.5 908,-170.5 908,-135.5 556,-135.5"/>
<polygon fill="none" stroke="#000000" points="556,-135.5 556,-170.5 908,-170.5 908,-135.5 556,-135.5"/>
<text text-anchor="start" x="562.691" y="-148.3" font-family="Arial Bold" font-size="18.00" fill="#000000">asset.course_module_role</text>
<text text-anchor="start" x="773.741" y="-148.3" font-family="Arial" font-size="14.00" fill="#000000">    </text>
<text text-anchor="start" x="807.9458" y="-148.3" font-family="Arial" font-size="14.00" fill="#666666">[BASE TABLE]</text>
<polygon fill="none" stroke="#000000" points="556,-105.5 556,-135.5 908,-135.5 908,-105.5 556,-105.5"/>
<text text-anchor="start" x="563" y="-116.9" font-family="Arial" font-size="14.00" fill="#000000">id </text>
<text text-anchor="start" x="577.7798" y="-116.9" font-family="Arial" font-size="14.00" fill="#666666">[integer]</text>
<polygon fill="none" stroke="#000000" points="556,-75.5 556,-105.5 908,-105.5 908,-75.5 556,-75.5"/>
<text text-anchor="start" x="563" y="-86.9" font-family="Arial" font-size="14.00" fill="#000000">name </text>
<text text-anchor="start" x="601.899" y="-86.9" font-family="Arial" font-size="14.00" fill="#666666">[text]</text>
<polygon fill="none" stroke="#000000" points="556,-45.5 556,-75.5 908,-75.5 908,-45.5 556,-45.5"/>
<text text-anchor="start" x="563" y="-56.9" font-family="Arial" font-size="14.00" fill="#000000">is_public </text>
<text text-anchor="start" x="621.3408" y="-56.9" font-family="Arial" font-size="14.00" fill="#666666">[boolean]</text>
<polygon fill="none" stroke="#000000" stroke-width="3" points="554.5,-44.5 554.5,-172.5 909.5,-172.5 909.5,-44.5 554.5,-44.5"/>
</g>
<!-- asset.course_module_course_users -->
<g id="node2" class="node">
<title>asset.course_module_course_users</title>
<polygon fill="#efefef" stroke="transparent" points="517,-415.5 517,-450.5 947,-450.5 947,-415.5 517,-415.5"/>
<polygon fill="none" stroke="#000000" points="517,-415.5 517,-450.5 947,-450.5 947,-415.5 517,-415.5"/>
<text text-anchor="start" x="523.6796" y="-428.3" font-family="Arial Bold" font-size="18.00" fill="#000000">asset.course_module_course_users</text>
<text text-anchor="start" x="812.7524" y="-428.3" font-family="Arial" font-size="14.00" fill="#000000">    </text>
<text text-anchor="start" x="846.9572" y="-428.3" font-family="Arial" font-size="14.00" fill="#666666">[BASE TABLE]</text>
<polygon fill="none" stroke="#000000" points="517,-385.5 517,-415.5 947,-415.5 947,-385.5 517,-385.5"/>
<text text-anchor="start" x="524" y="-396.9" font-family="Arial" font-size="14.00" fill="#000000">id    </text>
<text text-anchor="start" x="569.094" y="-396.9" font-family="Arial" font-size="14.00" fill="#666666">[integer]</text>
<polygon fill="none" stroke="#000000" points="517,-355.5 517,-385.5 947,-385.5 947,-355.5 517,-355.5"/>
<text text-anchor="start" x="524" y="-366.9" font-family="Arial" font-size="14.00" fill="#000000">course    </text>
<text text-anchor="start" x="600.2132" y="-366.9" font-family="Arial" font-size="14.00" fill="#666666">[integer]</text>
<polygon fill="none" stroke="#000000" points="517,-325.5 517,-355.5 947,-355.5 947,-325.5 517,-325.5"/>
<text text-anchor="start" x="524" y="-336.9" font-family="Arial" font-size="14.00" fill="#000000">usr    </text>
<text text-anchor="start" x="577.648" y="-336.9" font-family="Arial" font-size="14.00" fill="#666666">[integer]</text>
<polygon fill="none" stroke="#000000" points="517,-295.5 517,-325.5 947,-325.5 947,-295.5 517,-295.5"/>
<text text-anchor="start" x="524" y="-306.9" font-family="Arial" font-size="14.00" fill="#000000">usr_role    </text>
<text text-anchor="start" x="608.763" y="-306.9" font-family="Arial" font-size="14.00" fill="#666666">[integer]</text>
</g>
<!-- asset.course_module_course_users&#45;&gt;asset.course_module_role -->
<g id="edge1" class="edge">
<title>asset.course_module_course_users:usr_role&#45;&gt;asset.course_module_role:id</title>
<path fill="none" stroke="#000000" d="M732.6998,-285.3461C742.9654,-216.3602 863.3788,-285.7605 908,-217 931.347,-181.0226 950.8889,-120.5 908,-120.5"/>
<polygon fill="#000000" stroke="#000000" points="732.6876,-285.5237 727.5106,-295.1906 732.3438,-290.5118 732,-295.5 732,-295.5 732,-295.5 732.3438,-290.5118 736.4894,-295.8094 732.6876,-285.5237 732.6876,-285.5237"/>
<text text-anchor="start" x="6.8165" y="-305.5" font-family="Arial" font-size="10.00" fill="#000000">FOREIGN KEY (usr_role) REFERENCES asset.course_module_role(id) ON UPDATE CASCADE ON DELETE CASCADE DEFERRABLE INITIALLY DEFERRED</text>
</g>
</g>
</svg>
