<?xml version="1.0" encoding="UTF-8" standalone="no"?>
<!DOCTYPE svg PUBLIC "-//W3C//DTD SVG 1.1//EN"
 "http://www.w3.org/Graphics/SVG/1.1/DTD/svg11.dtd">
<!-- Generated by graphviz version 2.40.1 (20161225.0304)
 -->
<!-- Title: asset.copy_location_group_map Pages: 1 -->
<svg width="1610pt" height="742pt"
 viewBox="0.00 0.00 1610.00 742.00" xmlns="http://www.w3.org/2000/svg" xmlns:xlink="http://www.w3.org/1999/xlink">
<g id="graph0" class="graph" transform="scale(1 1) rotate(0) translate(4 738)">
<title>asset.copy_location_group_map</title>
<polygon fill="#ffffff" stroke="transparent" points="-4,4 -4,-738 1606,-738 1606,4 -4,4"/>
<!-- asset.copy_location_group_map -->
<g id="node1" class="node">
<title>asset.copy_location_group_map</title>
<polygon fill="#efefef" stroke="transparent" points="589,-652.5 589,-687.5 989,-687.5 989,-652.5 589,-652.5"/>
<polygon fill="none" stroke="#000000" points="589,-652.5 589,-687.5 989,-687.5 989,-652.5 589,-652.5"/>
<text text-anchor="start" x="595.6736" y="-665.3" font-family="Arial Bold" font-size="18.00" fill="#000000">asset.copy_location_group_map</text>
<text text-anchor="start" x="854.7584" y="-665.3" font-family="Arial" font-size="14.00" fill="#000000">    </text>
<text text-anchor="start" x="888.9632" y="-665.3" font-family="Arial" font-size="14.00" fill="#666666">[BASE TABLE]</text>
<polygon fill="none" stroke="#000000" points="589,-622.5 589,-652.5 989,-652.5 989,-622.5 589,-622.5"/>
<text text-anchor="start" x="596" y="-633.9" font-family="Arial" font-size="14.00" fill="#000000">id </text>
<text text-anchor="start" x="610.7798" y="-633.9" font-family="Arial" font-size="14.00" fill="#666666">[integer]</text>
<polygon fill="none" stroke="#000000" points="589,-592.5 589,-622.5 989,-622.5 989,-592.5 589,-592.5"/>
<text text-anchor="start" x="596" y="-603.9" font-family="Arial" font-size="14.00" fill="#000000">location </text>
<text text-anchor="start" x="648.1248" y="-603.9" font-family="Arial" font-size="14.00" fill="#666666">[integer]</text>
<polygon fill="none" stroke="#000000" points="589,-562.5 589,-592.5 989,-592.5 989,-562.5 589,-562.5"/>
<text text-anchor="start" x="596" y="-573.9" font-family="Arial" font-size="14.00" fill="#000000">lgroup </text>
<text text-anchor="start" x="638.7882" y="-573.9" font-family="Arial" font-size="14.00" fill="#666666">[integer]</text>
<polygon fill="none" stroke="#000000" stroke-width="3" points="587.5,-561.5 587.5,-689.5 990.5,-689.5 990.5,-561.5 587.5,-561.5"/>
</g>
<!-- asset.copy_location -->
<g id="node2" class="node">
<title>asset.copy_location</title>
<polygon fill="#efefef" stroke="transparent" points="424,-402.5 424,-437.5 723,-437.5 723,-402.5 424,-402.5"/>
<polygon fill="none" stroke="#000000" points="424,-402.5 424,-437.5 723,-437.5 723,-402.5 424,-402.5"/>
<text text-anchor="start" x="430.6906" y="-415.3" font-family="Arial Bold" font-size="18.00" fill="#000000">asset.copy_location</text>
<text text-anchor="start" x="588.7414" y="-415.3" font-family="Arial" font-size="14.00" fill="#000000">    </text>
<text text-anchor="start" x="622.9462" y="-415.3" font-family="Arial" font-size="14.00" fill="#666666">[BASE TABLE]</text>
<polygon fill="none" stroke="#000000" points="424,-372.5 424,-402.5 723,-402.5 723,-372.5 424,-372.5"/>
<text text-anchor="start" x="431" y="-383.9" font-family="Arial" font-size="14.00" fill="#000000">id    </text>
<text text-anchor="start" x="476.094" y="-383.9" font-family="Arial" font-size="14.00" fill="#666666">[integer]</text>
<polygon fill="none" stroke="#000000" points="424,-342.5 424,-372.5 723,-372.5 723,-342.5 424,-342.5"/>
<text text-anchor="start" x="431" y="-353.9" font-family="Arial" font-size="14.00" fill="#000000">name    </text>
<text text-anchor="start" x="500.2132" y="-353.9" font-family="Arial" font-size="14.00" fill="#666666">[text]</text>
<polygon fill="none" stroke="#000000" points="424,-312.5 424,-342.5 723,-342.5 723,-312.5 424,-312.5"/>
<text text-anchor="start" x="431" y="-323.9" font-family="Arial" font-size="14.00" fill="#000000">owning_lib    </text>
<text text-anchor="start" x="531.3268" y="-323.9" font-family="Arial" font-size="14.00" fill="#666666">[integer]</text>
<polygon fill="none" stroke="#000000" points="424,-282.5 424,-312.5 723,-312.5 723,-282.5 424,-282.5"/>
<text text-anchor="start" x="431" y="-293.9" font-family="Arial" font-size="14.00" fill="#000000">holdable    </text>
<text text-anchor="start" x="518.1136" y="-293.9" font-family="Arial" font-size="14.00" fill="#666666">[boolean]</text>
<polygon fill="none" stroke="#000000" points="424,-252.5 424,-282.5 723,-282.5 723,-252.5 424,-252.5"/>
<text text-anchor="start" x="431" y="-263.9" font-family="Arial" font-size="14.00" fill="#000000">hold_verify    </text>
<text text-anchor="start" x="532.8822" y="-263.9" font-family="Arial" font-size="14.00" fill="#666666">[boolean]</text>
<polygon fill="none" stroke="#000000" points="424,-222.5 424,-252.5 723,-252.5 723,-222.5 424,-222.5"/>
<text text-anchor="start" x="431" y="-233.9" font-family="Arial" font-size="14.00" fill="#000000">opac_visible    </text>
<text text-anchor="start" x="542.2202" y="-233.9" font-family="Arial" font-size="14.00" fill="#666666">[boolean]</text>
<polygon fill="none" stroke="#000000" points="424,-192.5 424,-222.5 723,-222.5 723,-192.5 424,-192.5"/>
<text text-anchor="start" x="431" y="-203.9" font-family="Arial" font-size="14.00" fill="#000000">circulate    </text>
<text text-anchor="start" x="517.317" y="-203.9" font-family="Arial" font-size="14.00" fill="#666666">[boolean]</text>
<polygon fill="none" stroke="#000000" points="424,-162.5 424,-192.5 723,-192.5 723,-162.5 424,-162.5"/>
<text text-anchor="start" x="431" y="-173.9" font-family="Arial" font-size="14.00" fill="#000000">label_prefix    </text>
<text text-anchor="start" x="536.7714" y="-173.9" font-family="Arial" font-size="14.00" fill="#666666">[text]</text>
<polygon fill="none" stroke="#000000" points="424,-132.5 424,-162.5 723,-162.5 723,-132.5 424,-132.5"/>
<text text-anchor="start" x="431" y="-143.9" font-family="Arial" font-size="14.00" fill="#000000">label_suffix    </text>
<text text-anchor="start" x="535.2188" y="-143.9" font-family="Arial" font-size="14.00" fill="#666666">[text]</text>
<polygon fill="none" stroke="#000000" points="424,-102.5 424,-132.5 723,-132.5 723,-102.5 424,-102.5"/>
<text text-anchor="start" x="431" y="-113.9" font-family="Arial" font-size="14.00" fill="#000000">checkin_alert    </text>
<text text-anchor="start" x="547.6648" y="-113.9" font-family="Arial" font-size="14.00" fill="#666666">[boolean]</text>
<polygon fill="none" stroke="#000000" points="424,-72.5 424,-102.5 723,-102.5 723,-72.5 424,-72.5"/>
<text text-anchor="start" x="431" y="-83.9" font-family="Arial" font-size="14.00" fill="#000000">deleted    </text>
<text text-anchor="start" x="511.115" y="-83.9" font-family="Arial" font-size="14.00" fill="#666666">[boolean]</text>
<polygon fill="none" stroke="#000000" points="424,-42.5 424,-72.5 723,-72.5 723,-42.5 424,-42.5"/>
<text text-anchor="start" x="431" y="-53.9" font-family="Arial" font-size="14.00" fill="#000000">url    </text>
<text text-anchor="start" x="480.7546" y="-53.9" font-family="Arial" font-size="14.00" fill="#666666">[text]</text>
</g>
<!-- asset.copy_location_group_map&#45;&gt;asset.copy_location -->
<g id="edge1" class="edge">
<title>asset.copy_location_group_map:location&#45;&gt;asset.copy_location:id</title>
<path fill="none" stroke="#000000" d="M578.7734,-605.9034C551.9366,-596.3126 566.915,-545.8015 589,-517 626.5246,-468.0636 685.4754,-529.9364 723,-481 748.2865,-448.0234 764.5556,-387.5 723,-387.5"/>
<polygon fill="#000000" stroke="#000000" points="579.1197,-605.9573 588.3058,-611.9461 584.0598,-606.7287 589,-607.5 589,-607.5 589,-607.5 584.0598,-606.7287 589.6942,-603.0539 579.1197,-605.9573 579.1197,-605.9573"/>
<text text-anchor="start" x="7.4795" y="-617.5" font-family="Arial" font-size="10.00" fill="#000000">FOREIGN KEY (location) REFERENCES asset.copy_location(id) ON DELETE CASCADE DEFERRABLE INITIALLY DEFERRED</text>
</g>
<!-- asset.copy_location_group -->
<g id="node3" class="node">
<title>asset.copy_location_group</title>
<polygon fill="#efefef" stroke="transparent" points="827,-312.5 827,-347.5 1182,-347.5 1182,-312.5 827,-312.5"/>
<polygon fill="none" stroke="#000000" points="827,-312.5 827,-347.5 1182,-347.5 1182,-312.5 827,-312.5"/>
<text text-anchor="start" x="833.679" y="-325.3" font-family="Arial Bold" font-size="18.00" fill="#000000">asset.copy_location_group</text>
<text text-anchor="start" x="1047.753" y="-325.3" font-family="Arial" font-size="14.00" fill="#000000">    </text>
<text text-anchor="start" x="1081.9578" y="-325.3" font-family="Arial" font-size="14.00" fill="#666666">[BASE TABLE]</text>
<polygon fill="none" stroke="#000000" points="827,-282.5 827,-312.5 1182,-312.5 1182,-282.5 827,-282.5"/>
<text text-anchor="start" x="834" y="-293.9" font-family="Arial" font-size="14.00" fill="#000000">id    </text>
<text text-anchor="start" x="879.094" y="-293.9" font-family="Arial" font-size="14.00" fill="#666666">[integer]</text>
<polygon fill="none" stroke="#000000" points="827,-252.5 827,-282.5 1182,-282.5 1182,-252.5 827,-252.5"/>
<text text-anchor="start" x="834" y="-263.9" font-family="Arial" font-size="14.00" fill="#000000">name    </text>
<text text-anchor="start" x="903.2132" y="-263.9" font-family="Arial" font-size="14.00" fill="#666666">[text]</text>
<polygon fill="none" stroke="#000000" points="827,-222.5 827,-252.5 1182,-252.5 1182,-222.5 827,-222.5"/>
<text text-anchor="start" x="834" y="-233.9" font-family="Arial" font-size="14.00" fill="#000000">owner    </text>
<text text-anchor="start" x="906.3198" y="-233.9" font-family="Arial" font-size="14.00" fill="#666666">[integer]</text>
<polygon fill="none" stroke="#000000" points="827,-192.5 827,-222.5 1182,-222.5 1182,-192.5 827,-192.5"/>
<text text-anchor="start" x="834" y="-203.9" font-family="Arial" font-size="14.00" fill="#000000">pos    </text>
<text text-anchor="start" x="890.77" y="-203.9" font-family="Arial" font-size="14.00" fill="#666666">[integer]</text>
<polygon fill="none" stroke="#000000" points="827,-162.5 827,-192.5 1182,-192.5 1182,-162.5 827,-162.5"/>
<text text-anchor="start" x="834" y="-173.9" font-family="Arial" font-size="14.00" fill="#000000">top    </text>
<text text-anchor="start" x="887.6606" y="-173.9" font-family="Arial" font-size="14.00" fill="#666666">[boolean]</text>
<polygon fill="none" stroke="#000000" points="827,-132.5 827,-162.5 1182,-162.5 1182,-132.5 827,-132.5"/>
<text text-anchor="start" x="834" y="-143.9" font-family="Arial" font-size="14.00" fill="#000000">opac_visible    </text>
<text text-anchor="start" x="945.2202" y="-143.9" font-family="Arial" font-size="14.00" fill="#666666">[boolean]</text>
</g>
<!-- asset.copy_location_group_map&#45;&gt;asset.copy_location_group -->
<g id="edge2" class="edge">
<title>asset.copy_location_group_map:lgroup&#45;&gt;asset.copy_location_group:id</title>
<path fill="none" stroke="#000000" d="M998.7031,-575.0231C1011.2575,-566.4397 998.9678,-537.3805 989,-517 948.925,-435.061 867.075,-472.939 827,-391 808.7425,-353.67 785.4444,-297.5 827,-297.5"/>
<polygon fill="#000000" stroke="#000000" points="998.6893,-575.0266 987.887,-573.1398 993.8447,-576.2633 989,-577.5 989,-577.5 989,-577.5 993.8447,-576.2633 990.113,-581.8602 998.6893,-575.0266 998.6893,-575.0266"/>
<text text-anchor="start" x="996.252" y="-587.5" font-family="Arial" font-size="10.00" fill="#000000">FOREIGN KEY (lgroup) REFERENCES asset.copy_location_group(id) ON DELETE CASCADE DEFERRABLE INITIALLY DEFERRED</text>
</g>
</g>
</svg>
