<?xml version="1.0" encoding="UTF-8" standalone="no"?>
<!DOCTYPE svg PUBLIC "-//W3C//DTD SVG 1.1//EN"
 "http://www.w3.org/Graphics/SVG/1.1/DTD/svg11.dtd">
<!-- Generated by graphviz version 2.40.1 (20161225.0304)
 -->
<!-- Title: asset.stat_cat_entry_copy_map Pages: 1 -->
<svg width="1585pt" height="652pt"
 viewBox="0.00 0.00 1585.00 652.00" xmlns="http://www.w3.org/2000/svg" xmlns:xlink="http://www.w3.org/1999/xlink">
<g id="graph0" class="graph" transform="scale(1 1) rotate(0) translate(4 648)">
<title>asset.stat_cat_entry_copy_map</title>
<polygon fill="#ffffff" stroke="transparent" points="-4,4 -4,-648 1581,-648 1581,4 -4,4"/>
<!-- asset.stat_cat_entry_copy_map -->
<g id="node1" class="node">
<title>asset.stat_cat_entry_copy_map</title>
<polygon fill="#efefef" stroke="transparent" points="563,-562.5 563,-597.5 958,-597.5 958,-562.5 563,-562.5"/>
<polygon fill="none" stroke="#000000" points="563,-562.5 563,-597.5 958,-597.5 958,-562.5 563,-562.5"/>
<text text-anchor="start" x="569.6738" y="-575.3" font-family="Arial Bold" font-size="18.00" fill="#000000">asset.stat_cat_entry_copy_map</text>
<text text-anchor="start" x="823.7582" y="-575.3" font-family="Arial" font-size="14.00" fill="#000000">    </text>
<text text-anchor="start" x="857.963" y="-575.3" font-family="Arial" font-size="14.00" fill="#666666">[BASE TABLE]</text>
<polygon fill="none" stroke="#000000" points="563,-532.5 563,-562.5 958,-562.5 958,-532.5 563,-532.5"/>
<text text-anchor="start" x="570" y="-543.9" font-family="Arial" font-size="14.00" fill="#000000">id </text>
<text text-anchor="start" x="584.7798" y="-543.9" font-family="Arial" font-size="14.00" fill="#666666">[bigint]</text>
<polygon fill="none" stroke="#000000" points="563,-502.5 563,-532.5 958,-532.5 958,-502.5 563,-502.5"/>
<text text-anchor="start" x="570" y="-513.9" font-family="Arial" font-size="14.00" fill="#000000">stat_cat </text>
<text text-anchor="start" x="622.9102" y="-513.9" font-family="Arial" font-size="14.00" fill="#666666">[integer]</text>
<polygon fill="none" stroke="#000000" points="563,-472.5 563,-502.5 958,-502.5 958,-472.5 563,-472.5"/>
<text text-anchor="start" x="570" y="-483.9" font-family="Arial" font-size="14.00" fill="#000000">stat_cat_entry </text>
<text text-anchor="start" x="661.8092" y="-483.9" font-family="Arial" font-size="14.00" fill="#666666">[integer]</text>
<polygon fill="none" stroke="#000000" points="563,-442.5 563,-472.5 958,-472.5 958,-442.5 563,-442.5"/>
<text text-anchor="start" x="570" y="-453.9" font-family="Arial" font-size="14.00" fill="#000000">owning_copy </text>
<text text-anchor="start" x="655.582" y="-453.9" font-family="Arial" font-size="14.00" fill="#666666">[bigint]</text>
<polygon fill="none" stroke="#000000" stroke-width="3" points="561,-441.5 561,-599.5 959,-599.5 959,-441.5 561,-441.5"/>
</g>
<!-- asset.stat_cat -->
<g id="node2" class="node">
<title>asset.stat_cat</title>
<polygon fill="#efefef" stroke="transparent" points="445,-282.5 445,-317.5 697,-317.5 697,-282.5 445,-282.5"/>
<polygon fill="none" stroke="#000000" points="445,-282.5 445,-317.5 697,-317.5 697,-282.5 445,-282.5"/>
<text text-anchor="start" x="451.695" y="-295.3" font-family="Arial Bold" font-size="18.00" fill="#000000">asset.stat_cat</text>
<text text-anchor="start" x="562.737" y="-295.3" font-family="Arial" font-size="14.00" fill="#000000">    </text>
<text text-anchor="start" x="596.9418" y="-295.3" font-family="Arial" font-size="14.00" fill="#666666">[BASE TABLE]</text>
<polygon fill="none" stroke="#000000" points="445,-252.5 445,-282.5 697,-282.5 697,-252.5 445,-252.5"/>
<text text-anchor="start" x="452" y="-263.9" font-family="Arial" font-size="14.00" fill="#000000">id    </text>
<text text-anchor="start" x="497.094" y="-263.9" font-family="Arial" font-size="14.00" fill="#666666">[integer]</text>
<polygon fill="none" stroke="#000000" points="445,-222.5 445,-252.5 697,-252.5 697,-222.5 445,-222.5"/>
<text text-anchor="start" x="452" y="-233.9" font-family="Arial" font-size="14.00" fill="#000000">owner    </text>
<text text-anchor="start" x="524.3198" y="-233.9" font-family="Arial" font-size="14.00" fill="#666666">[integer]</text>
<polygon fill="none" stroke="#000000" points="445,-192.5 445,-222.5 697,-222.5 697,-192.5 445,-192.5"/>
<text text-anchor="start" x="452" y="-203.9" font-family="Arial" font-size="14.00" fill="#000000">opac_visible    </text>
<text text-anchor="start" x="563.2202" y="-203.9" font-family="Arial" font-size="14.00" fill="#666666">[boolean]</text>
<polygon fill="none" stroke="#000000" points="445,-162.5 445,-192.5 697,-192.5 697,-162.5 445,-162.5"/>
<text text-anchor="start" x="452" y="-173.9" font-family="Arial" font-size="14.00" fill="#000000">name    </text>
<text text-anchor="start" x="521.2132" y="-173.9" font-family="Arial" font-size="14.00" fill="#666666">[text]</text>
<polygon fill="none" stroke="#000000" points="445,-132.5 445,-162.5 697,-162.5 697,-132.5 445,-132.5"/>
<text text-anchor="start" x="452" y="-143.9" font-family="Arial" font-size="14.00" fill="#000000">required    </text>
<text text-anchor="start" x="537.5456" y="-143.9" font-family="Arial" font-size="14.00" fill="#666666">[boolean]</text>
<polygon fill="none" stroke="#000000" points="445,-102.5 445,-132.5 697,-132.5 697,-102.5 445,-102.5"/>
<text text-anchor="start" x="452" y="-113.9" font-family="Arial" font-size="14.00" fill="#000000">sip_field    </text>
<text text-anchor="start" x="537.5456" y="-113.9" font-family="Arial" font-size="14.00" fill="#666666">[character(2)]</text>
<polygon fill="none" stroke="#000000" points="445,-72.5 445,-102.5 697,-102.5 697,-72.5 445,-72.5"/>
<text text-anchor="start" x="452" y="-83.9" font-family="Arial" font-size="14.00" fill="#000000">sip_format    </text>
<text text-anchor="start" x="551.5442" y="-83.9" font-family="Arial" font-size="14.00" fill="#666666">[text]</text>
<polygon fill="none" stroke="#000000" points="445,-42.5 445,-72.5 697,-72.5 697,-42.5 445,-42.5"/>
<text text-anchor="start" x="452" y="-53.9" font-family="Arial" font-size="14.00" fill="#000000">checkout_archive    </text>
<text text-anchor="start" x="595.1234" y="-53.9" font-family="Arial" font-size="14.00" fill="#666666">[boolean]</text>
</g>
<!-- asset.stat_cat_entry_copy_map&#45;&gt;asset.stat_cat -->
<g id="edge1" class="edge">
<title>asset.stat_cat_entry_copy_map:stat_cat&#45;&gt;asset.stat_cat:id</title>
<path fill="none" stroke="#000000" d="M553.0416,-516.4428C512.3653,-507.0017 532.6392,-436.594 563,-397 600.5246,-348.0636 659.4754,-409.9364 697,-361 722.2865,-328.0234 738.5556,-267.5 697,-267.5"/>
<polygon fill="#000000" stroke="#000000" points="553.0559,-516.4442 562.5249,-521.9749 558.0279,-516.9721 563,-517.5 563,-517.5 563,-517.5 558.0279,-516.9721 563.4751,-513.0251 553.0559,-516.4442 553.0559,-516.4442"/>
<text text-anchor="start" x="7.257" y="-527.5" font-family="Arial" font-size="10.00" fill="#000000">FOREIGN KEY (stat_cat) REFERENCES asset.stat_cat(id) ON DELETE CASCADE DEFERRABLE INITIALLY DEFERRED</text>
</g>
<!-- asset.stat_cat_entry -->
<g id="node3" class="node">
<title>asset.stat_cat_entry</title>
<polygon fill="#efefef" stroke="transparent" points="801,-222.5 801,-257.5 1103,-257.5 1103,-222.5 801,-222.5"/>
<polygon fill="none" stroke="#000000" points="801,-222.5 801,-257.5 1103,-257.5 1103,-222.5 801,-222.5"/>
<text text-anchor="start" x="807.6885" y="-235.3" font-family="Arial Bold" font-size="18.00" fill="#000000">asset.stat_cat_entry</text>
<text text-anchor="start" x="968.7435" y="-235.3" font-family="Arial" font-size="14.00" fill="#000000">    </text>
<text text-anchor="start" x="1002.9483" y="-235.3" font-family="Arial" font-size="14.00" fill="#666666">[BASE TABLE]</text>
<polygon fill="none" stroke="#000000" points="801,-192.5 801,-222.5 1103,-222.5 1103,-192.5 801,-192.5"/>
<text text-anchor="start" x="808" y="-203.9" font-family="Arial" font-size="14.00" fill="#000000">id    </text>
<text text-anchor="start" x="853.094" y="-203.9" font-family="Arial" font-size="14.00" fill="#666666">[integer]</text>
<polygon fill="none" stroke="#000000" points="801,-162.5 801,-192.5 1103,-192.5 1103,-162.5 801,-162.5"/>
<text text-anchor="start" x="808" y="-173.9" font-family="Arial" font-size="14.00" fill="#000000">stat_cat    </text>
<text text-anchor="start" x="891.2244" y="-173.9" font-family="Arial" font-size="14.00" fill="#666666">[integer]</text>
<polygon fill="none" stroke="#000000" points="801,-132.5 801,-162.5 1103,-162.5 1103,-132.5 801,-132.5"/>
<text text-anchor="start" x="808" y="-143.9" font-family="Arial" font-size="14.00" fill="#000000">owner    </text>
<text text-anchor="start" x="880.3198" y="-143.9" font-family="Arial" font-size="14.00" fill="#666666">[integer]</text>
<polygon fill="none" stroke="#000000" points="801,-102.5 801,-132.5 1103,-132.5 1103,-102.5 801,-102.5"/>
<text text-anchor="start" x="808" y="-113.9" font-family="Arial" font-size="14.00" fill="#000000">value    </text>
<text text-anchor="start" x="875.6592" y="-113.9" font-family="Arial" font-size="14.00" fill="#666666">[text]</text>
</g>
<!-- asset.stat_cat_entry_copy_map&#45;&gt;asset.stat_cat_entry -->
<g id="edge2" class="edge">
<title>asset.stat_cat_entry_copy_map:stat_cat_entry&#45;&gt;asset.stat_cat_entry:id</title>
<path fill="none" stroke="#000000" d="M968.1025,-485.9851C994.2166,-476.8705 975.7495,-428.658 958,-397 918.0017,-325.6592 840.9983,-372.3408 801,-301 780.6775,-264.7528 759.4444,-207.5 801,-207.5"/>
<polygon fill="#000000" stroke="#000000" points="967.8894,-486.017 957.3326,-483.0498 962.9447,-486.7585 958,-487.5 958,-487.5 958,-487.5 962.9447,-486.7585 958.6674,-491.9502 967.8894,-486.017 967.8894,-486.017"/>
<text text-anchor="start" x="965.472" y="-497.5" font-family="Arial" font-size="10.00" fill="#000000">FOREIGN KEY (stat_cat_entry) REFERENCES asset.stat_cat_entry(id) ON DELETE CASCADE DEFERRABLE INITIALLY DEFERRED</text>
</g>
</g>
</svg>
