<?xml version="1.0" encoding="UTF-8" standalone="no"?>
<!DOCTYPE svg PUBLIC "-//W3C//DTD SVG 1.1//EN"
 "http://www.w3.org/Graphics/SVG/1.1/DTD/svg11.dtd">
<!-- Generated by graphviz version 2.40.1 (20161225.0304)
 -->
<!-- Title: asset.call_number_prefix Pages: 1 -->
<svg width="859pt" height="1349pt"
 viewBox="0.00 0.00 858.50 1349.00" xmlns="http://www.w3.org/2000/svg" xmlns:xlink="http://www.w3.org/1999/xlink">
<g id="graph0" class="graph" transform="scale(1 1) rotate(0) translate(4 1345)">
<title>asset.call_number_prefix</title>
<polygon fill="#ffffff" stroke="transparent" points="-4,4 -4,-1345 854.5,-1345 854.5,4 -4,4"/>
<!-- asset.call_number_prefix -->
<g id="node1" class="node">
<title>asset.call_number_prefix</title>
<polygon fill="#efefef" stroke="transparent" points="464,-712.5 464,-747.5 805,-747.5 805,-712.5 464,-712.5"/>
<polygon fill="none" stroke="#000000" points="464,-712.5 464,-747.5 805,-747.5 805,-712.5 464,-712.5"/>
<text text-anchor="start" x="470.699" y="-725.3" font-family="Arial Bold" font-size="18.00" fill="#000000">asset.call_number_prefix</text>
<text text-anchor="start" x="670.733" y="-725.3" font-family="Arial" font-size="14.00" fill="#000000">    </text>
<text text-anchor="start" x="704.9378" y="-725.3" font-family="Arial" font-size="14.00" fill="#666666">[BASE TABLE]</text>
<polygon fill="none" stroke="#000000" points="464,-682.5 464,-712.5 805,-712.5 805,-682.5 464,-682.5"/>
<text text-anchor="start" x="471" y="-693.9" font-family="Arial" font-size="14.00" fill="#000000">id </text>
<text text-anchor="start" x="485.7798" y="-693.9" font-family="Arial" font-size="14.00" fill="#666666">[integer]</text>
<polygon fill="none" stroke="#000000" points="464,-652.5 464,-682.5 805,-682.5 805,-652.5 464,-652.5"/>
<text text-anchor="start" x="471" y="-663.9" font-family="Arial" font-size="14.00" fill="#000000">owning_lib </text>
<text text-anchor="start" x="541.0126" y="-663.9" font-family="Arial" font-size="14.00" fill="#666666">[integer]</text>
<polygon fill="none" stroke="#000000" points="464,-622.5 464,-652.5 805,-652.5 805,-622.5 464,-622.5"/>
<text text-anchor="start" x="471" y="-633.9" font-family="Arial" font-size="14.00" fill="#000000">label </text>
<text text-anchor="start" x="504.4516" y="-633.9" font-family="Arial" font-size="14.00" fill="#666666">[text]</text>
<polygon fill="none" stroke="#000000" points="464,-592.5 464,-622.5 805,-622.5 805,-592.5 464,-592.5"/>
<text text-anchor="start" x="471" y="-603.9" font-family="Arial" font-size="14.00" fill="#000000">label_sortkey </text>
<text text-anchor="start" x="557.3506" y="-603.9" font-family="Arial" font-size="14.00" fill="#666666">[text]</text>
<polygon fill="none" stroke="#000000" stroke-width="3" points="462,-591.5 462,-749.5 806,-749.5 806,-591.5 462,-591.5"/>
</g>
<!-- actor.org_unit -->
<g id="node3" class="node">
<title>actor.org_unit</title>
<polygon fill="#efefef" stroke="transparent" points="509,-432.5 509,-467.5 760,-467.5 760,-432.5 509,-432.5"/>
<polygon fill="none" stroke="#000000" points="509,-432.5 509,-467.5 760,-467.5 760,-432.5 509,-432.5"/>
<text text-anchor="start" x="515.7017" y="-445.3" font-family="Arial Bold" font-size="18.00" fill="#000000">actor.org_unit</text>
<text text-anchor="start" x="625.7303" y="-445.3" font-family="Arial" font-size="14.00" fill="#000000">    </text>
<text text-anchor="start" x="659.9351" y="-445.3" font-family="Arial" font-size="14.00" fill="#666666">[BASE TABLE]</text>
<polygon fill="none" stroke="#000000" points="509,-402.5 509,-432.5 760,-432.5 760,-402.5 509,-402.5"/>
<text text-anchor="start" x="516" y="-413.9" font-family="Arial" font-size="14.00" fill="#000000">id    </text>
<text text-anchor="start" x="561.094" y="-413.9" font-family="Arial" font-size="14.00" fill="#666666">[integer]</text>
<polygon fill="none" stroke="#000000" points="509,-372.5 509,-402.5 760,-402.5 760,-372.5 509,-372.5"/>
<text text-anchor="start" x="516" y="-383.9" font-family="Arial" font-size="14.00" fill="#000000">parent_ou    </text>
<text text-anchor="start" x="613.2342" y="-383.9" font-family="Arial" font-size="14.00" fill="#666666">[integer]</text>
<polygon fill="none" stroke="#000000" points="509,-342.5 509,-372.5 760,-372.5 760,-342.5 509,-342.5"/>
<text text-anchor="start" x="516" y="-353.9" font-family="Arial" font-size="14.00" fill="#000000">ou_type    </text>
<text text-anchor="start" x="600.0084" y="-353.9" font-family="Arial" font-size="14.00" fill="#666666">[integer]</text>
<polygon fill="none" stroke="#000000" points="509,-312.5 509,-342.5 760,-342.5 760,-312.5 509,-312.5"/>
<text text-anchor="start" x="516" y="-323.9" font-family="Arial" font-size="14.00" fill="#000000">ill_address    </text>
<text text-anchor="start" x="617.0982" y="-323.9" font-family="Arial" font-size="14.00" fill="#666666">[integer]</text>
<polygon fill="none" stroke="#000000" points="509,-282.5 509,-312.5 760,-312.5 760,-282.5 509,-282.5"/>
<text text-anchor="start" x="516" y="-293.9" font-family="Arial" font-size="14.00" fill="#000000">holds_address    </text>
<text text-anchor="start" x="641.2328" y="-293.9" font-family="Arial" font-size="14.00" fill="#666666">[integer]</text>
<polygon fill="none" stroke="#000000" points="509,-252.5 509,-282.5 760,-282.5 760,-252.5 509,-252.5"/>
<text text-anchor="start" x="516" y="-263.9" font-family="Arial" font-size="14.00" fill="#000000">mailing_address    </text>
<text text-anchor="start" x="652.1066" y="-263.9" font-family="Arial" font-size="14.00" fill="#666666">[integer]</text>
<polygon fill="none" stroke="#000000" points="509,-222.5 509,-252.5 760,-252.5 760,-222.5 509,-222.5"/>
<text text-anchor="start" x="516" y="-233.9" font-family="Arial" font-size="14.00" fill="#000000">billing_address    </text>
<text text-anchor="start" x="643.5526" y="-233.9" font-family="Arial" font-size="14.00" fill="#666666">[integer]</text>
<polygon fill="none" stroke="#000000" points="509,-192.5 509,-222.5 760,-222.5 760,-192.5 509,-192.5"/>
<text text-anchor="start" x="516" y="-203.9" font-family="Arial" font-size="14.00" fill="#000000">shortname    </text>
<text text-anchor="start" x="616.3296" y="-203.9" font-family="Arial" font-size="14.00" fill="#666666">[text]</text>
<polygon fill="none" stroke="#000000" points="509,-162.5 509,-192.5 760,-192.5 760,-162.5 509,-162.5"/>
<text text-anchor="start" x="516" y="-173.9" font-family="Arial" font-size="14.00" fill="#000000">name    </text>
<text text-anchor="start" x="585.2132" y="-173.9" font-family="Arial" font-size="14.00" fill="#666666">[text]</text>
<polygon fill="none" stroke="#000000" points="509,-132.5 509,-162.5 760,-162.5 760,-132.5 509,-132.5"/>
<text text-anchor="start" x="516" y="-143.9" font-family="Arial" font-size="14.00" fill="#000000">email    </text>
<text text-anchor="start" x="583.6438" y="-143.9" font-family="Arial" font-size="14.00" fill="#666666">[text]</text>
<polygon fill="none" stroke="#000000" points="509,-102.5 509,-132.5 760,-132.5 760,-102.5 509,-102.5"/>
<text text-anchor="start" x="516" y="-113.9" font-family="Arial" font-size="14.00" fill="#000000">phone    </text>
<text text-anchor="start" x="589.1178" y="-113.9" font-family="Arial" font-size="14.00" fill="#666666">[text]</text>
<polygon fill="none" stroke="#000000" points="509,-72.5 509,-102.5 760,-102.5 760,-72.5 509,-72.5"/>
<text text-anchor="start" x="516" y="-83.9" font-family="Arial" font-size="14.00" fill="#000000">opac_visible    </text>
<text text-anchor="start" x="627.2202" y="-83.9" font-family="Arial" font-size="14.00" fill="#666666">[boolean]</text>
<polygon fill="none" stroke="#000000" points="509,-42.5 509,-72.5 760,-72.5 760,-42.5 509,-42.5"/>
<text text-anchor="start" x="516" y="-53.9" font-family="Arial" font-size="14.00" fill="#000000">fiscal_calendar    </text>
<text text-anchor="start" x="643.554" y="-53.9" font-family="Arial" font-size="14.00" fill="#666666">[integer]</text>
</g>
<!-- asset.call_number_prefix&#45;&gt;actor.org_unit -->
<g id="edge2" class="edge">
<title>asset.call_number_prefix:owning_lib&#45;&gt;actor.org_unit:id</title>
<path fill="none" stroke="#000000" d="M453.8758,-666.7828C353.982,-652.1191 399.6313,-417.5 509,-417.5"/>
<polygon fill="#000000" stroke="#000000" points="454.025,-666.7933 463.682,-671.9888 459.0125,-667.1467 464,-667.5 464,-667.5 464,-667.5 459.0125,-667.1467 464.318,-663.0112 454.025,-666.7933 454.025,-666.7933"/>
<text text-anchor="start" x="182.7715" y="-677.5" font-family="Arial" font-size="10.00" fill="#000000">FOREIGN KEY (owning_lib) REFERENCES actor.org_unit(id)</text>
</g>
<!-- asset.call_number -->
<g id="node2" class="node">
<title>asset.call_number</title>
<polygon fill="#efefef" stroke="transparent" points="491,-1262.5 491,-1297.5 778,-1297.5 778,-1262.5 491,-1262.5"/>
<polygon fill="none" stroke="#000000" points="491,-1262.5 491,-1297.5 778,-1297.5 778,-1262.5 491,-1262.5"/>
<text text-anchor="start" x="497.7026" y="-1275.3" font-family="Arial Bold" font-size="18.00" fill="#000000">asset.call_number</text>
<text text-anchor="start" x="643.7294" y="-1275.3" font-family="Arial" font-size="14.00" fill="#000000">    </text>
<text text-anchor="start" x="677.9342" y="-1275.3" font-family="Arial" font-size="14.00" fill="#666666">[BASE TABLE]</text>
<polygon fill="none" stroke="#000000" points="491,-1232.5 491,-1262.5 778,-1262.5 778,-1232.5 491,-1232.5"/>
<text text-anchor="start" x="498" y="-1243.9" font-family="Arial" font-size="14.00" fill="#000000">id    </text>
<text text-anchor="start" x="543.094" y="-1243.9" font-family="Arial" font-size="14.00" fill="#666666">[bigint]</text>
<polygon fill="none" stroke="#000000" points="491,-1202.5 491,-1232.5 778,-1232.5 778,-1202.5 491,-1202.5"/>
<text text-anchor="start" x="498" y="-1213.9" font-family="Arial" font-size="14.00" fill="#000000">creator    </text>
<text text-anchor="start" x="575.7644" y="-1213.9" font-family="Arial" font-size="14.00" fill="#666666">[bigint]</text>
<polygon fill="none" stroke="#000000" points="491,-1172.5 491,-1202.5 778,-1202.5 778,-1172.5 491,-1172.5"/>
<text text-anchor="start" x="497.5954" y="-1183.9" font-family="Arial" font-size="14.00" fill="#000000">create_date    </text>
<text text-anchor="start" x="605.7202" y="-1183.9" font-family="Arial" font-size="14.00" fill="#666666">[timestamp with time zone]</text>
<polygon fill="none" stroke="#000000" points="491,-1142.5 491,-1172.5 778,-1172.5 778,-1142.5 491,-1142.5"/>
<text text-anchor="start" x="498" y="-1153.9" font-family="Arial" font-size="14.00" fill="#000000">editor    </text>
<text text-anchor="start" x="567.2104" y="-1153.9" font-family="Arial" font-size="14.00" fill="#666666">[bigint]</text>
<polygon fill="none" stroke="#000000" points="491,-1112.5 491,-1142.5 778,-1142.5 778,-1112.5 491,-1112.5"/>
<text text-anchor="start" x="498" y="-1123.9" font-family="Arial" font-size="14.00" fill="#000000">edit_date    </text>
<text text-anchor="start" x="589.7882" y="-1123.9" font-family="Arial" font-size="14.00" fill="#666666">[timestamp with time zone]</text>
<polygon fill="none" stroke="#000000" points="491,-1082.5 491,-1112.5 778,-1112.5 778,-1082.5 491,-1082.5"/>
<text text-anchor="start" x="498" y="-1093.9" font-family="Arial" font-size="14.00" fill="#000000">record    </text>
<text text-anchor="start" x="571.8738" y="-1093.9" font-family="Arial" font-size="14.00" fill="#666666">[bigint]</text>
<polygon fill="none" stroke="#000000" points="491,-1052.5 491,-1082.5 778,-1082.5 778,-1052.5 491,-1052.5"/>
<text text-anchor="start" x="498" y="-1063.9" font-family="Arial" font-size="14.00" fill="#000000">owning_lib    </text>
<text text-anchor="start" x="598.3268" y="-1063.9" font-family="Arial" font-size="14.00" fill="#666666">[integer]</text>
<polygon fill="none" stroke="#000000" points="491,-1022.5 491,-1052.5 778,-1052.5 778,-1022.5 491,-1022.5"/>
<text text-anchor="start" x="498" y="-1033.9" font-family="Arial" font-size="14.00" fill="#000000">label    </text>
<text text-anchor="start" x="561.7658" y="-1033.9" font-family="Arial" font-size="14.00" fill="#666666">[text]</text>
<polygon fill="none" stroke="#000000" points="491,-992.5 491,-1022.5 778,-1022.5 778,-992.5 491,-992.5"/>
<text text-anchor="start" x="498" y="-1003.9" font-family="Arial" font-size="14.00" fill="#000000">deleted    </text>
<text text-anchor="start" x="578.115" y="-1003.9" font-family="Arial" font-size="14.00" fill="#666666">[boolean]</text>
<polygon fill="none" stroke="#000000" points="491,-962.5 491,-992.5 778,-992.5 778,-962.5 491,-962.5"/>
<text text-anchor="start" x="498" y="-973.9" font-family="Arial" font-size="14.00" fill="#000000">prefix    </text>
<text text-anchor="start" x="566.4278" y="-973.9" font-family="Arial" font-size="14.00" fill="#666666">[integer]</text>
<polygon fill="none" stroke="#000000" points="491,-932.5 491,-962.5 778,-962.5 778,-932.5 491,-932.5"/>
<text text-anchor="start" x="498" y="-943.9" font-family="Arial" font-size="14.00" fill="#000000">suffix    </text>
<text text-anchor="start" x="564.8752" y="-943.9" font-family="Arial" font-size="14.00" fill="#666666">[integer]</text>
<polygon fill="none" stroke="#000000" points="491,-902.5 491,-932.5 778,-932.5 778,-902.5 491,-902.5"/>
<text text-anchor="start" x="498" y="-913.9" font-family="Arial" font-size="14.00" fill="#000000">label_class    </text>
<text text-anchor="start" x="601.4376" y="-913.9" font-family="Arial" font-size="14.00" fill="#666666">[bigint]</text>
<polygon fill="none" stroke="#000000" points="491,-872.5 491,-902.5 778,-902.5 778,-872.5 491,-872.5"/>
<text text-anchor="start" x="498" y="-883.9" font-family="Arial" font-size="14.00" fill="#000000">label_sortkey    </text>
<text text-anchor="start" x="614.6648" y="-883.9" font-family="Arial" font-size="14.00" fill="#666666">[text]</text>
</g>
<!-- asset.call_number&#45;&gt;asset.call_number_prefix -->
<g id="edge1" class="edge">
<title>asset.call_number:prefix&#45;&gt;asset.call_number_prefix:id</title>
<path fill="none" stroke="#000000" d="M481.0718,-975.0794C425.8037,-947.7124 404.9077,-697.5 464,-697.5"/>
<polygon fill="#000000" stroke="#000000" points="481.2846,-975.1312 489.934,-981.8719 486.1423,-976.3156 491,-977.5 491,-977.5 491,-977.5 486.1423,-976.3156 492.066,-973.1281 481.2846,-975.1312 481.2846,-975.1312"/>
<text text-anchor="start" x="7.1025" y="-987.5" font-family="Arial" font-size="10.00" fill="#000000">FOREIGN KEY (prefix) REFERENCES asset.call_number_prefix(id) DEFERRABLE INITIALLY DEFERRED</text>
</g>
</g>
</svg>
