<?xml version="1.0" encoding="UTF-8" standalone="no"?>
<!DOCTYPE svg PUBLIC "-//W3C//DTD SVG 1.1//EN"
 "http://www.w3.org/Graphics/SVG/1.1/DTD/svg11.dtd">
<!-- Generated by graphviz version 2.40.1 (20161225.0304)
 -->
<!-- Title: asset.copy_tag Pages: 1 -->
<svg width="1172pt" height="1199pt"
 viewBox="0.00 0.00 1172.00 1199.00" xmlns="http://www.w3.org/2000/svg" xmlns:xlink="http://www.w3.org/1999/xlink">
<g id="graph0" class="graph" transform="scale(1 1) rotate(0) translate(4 1195)">
<title>asset.copy_tag</title>
<polygon fill="#ffffff" stroke="transparent" points="-4,4 -4,-1195 1168,-1195 1168,4 -4,4"/>
<!-- asset.copy_tag -->
<g id="node1" class="node">
<title>asset.copy_tag</title>
<polygon fill="#efefef" stroke="transparent" points="549,-862.5 549,-897.5 811,-897.5 811,-862.5 549,-862.5"/>
<polygon fill="none" stroke="#000000" points="549,-862.5 549,-897.5 811,-897.5 811,-862.5 549,-862.5"/>
<text text-anchor="start" x="555.691" y="-875.3" font-family="Arial Bold" font-size="18.00" fill="#000000">asset.copy_tag</text>
<text text-anchor="start" x="676.741" y="-875.3" font-family="Arial" font-size="14.00" fill="#000000">    </text>
<text text-anchor="start" x="710.9458" y="-875.3" font-family="Arial" font-size="14.00" fill="#666666">[BASE TABLE]</text>
<polygon fill="none" stroke="#000000" points="549,-832.5 549,-862.5 811,-862.5 811,-832.5 549,-832.5"/>
<text text-anchor="start" x="556" y="-843.9" font-family="Arial" font-size="14.00" fill="#000000">id </text>
<text text-anchor="start" x="570.7798" y="-843.9" font-family="Arial" font-size="14.00" fill="#666666">[integer]</text>
<polygon fill="none" stroke="#000000" points="549,-802.5 549,-832.5 811,-832.5 811,-802.5 549,-802.5"/>
<text text-anchor="start" x="556" y="-813.9" font-family="Arial" font-size="14.00" fill="#000000">tag_type </text>
<text text-anchor="start" x="613.5848" y="-813.9" font-family="Arial" font-size="14.00" fill="#666666">[text]</text>
<polygon fill="none" stroke="#000000" points="549,-772.5 549,-802.5 811,-802.5 811,-772.5 549,-772.5"/>
<text text-anchor="start" x="556" y="-783.9" font-family="Arial" font-size="14.00" fill="#000000">label </text>
<text text-anchor="start" x="589.4516" y="-783.9" font-family="Arial" font-size="14.00" fill="#666666">[text]</text>
<polygon fill="none" stroke="#000000" points="549,-742.5 549,-772.5 811,-772.5 811,-742.5 549,-742.5"/>
<text text-anchor="start" x="556" y="-753.9" font-family="Arial" font-size="14.00" fill="#000000">value </text>
<text text-anchor="start" x="593.345" y="-753.9" font-family="Arial" font-size="14.00" fill="#666666">[text]</text>
<polygon fill="none" stroke="#000000" points="549,-712.5 549,-742.5 811,-742.5 811,-712.5 549,-712.5"/>
<text text-anchor="start" x="556" y="-723.9" font-family="Arial" font-size="14.00" fill="#000000">index_vector </text>
<text text-anchor="start" x="639.244" y="-723.9" font-family="Arial" font-size="14.00" fill="#666666">[tsvector]</text>
<polygon fill="none" stroke="#000000" points="549,-682.5 549,-712.5 811,-712.5 811,-682.5 549,-682.5"/>
<text text-anchor="start" x="556" y="-693.9" font-family="Arial" font-size="14.00" fill="#000000">staff_note </text>
<text text-anchor="start" x="621.366" y="-693.9" font-family="Arial" font-size="14.00" fill="#666666">[text]</text>
<polygon fill="none" stroke="#000000" points="549,-652.5 549,-682.5 811,-682.5 811,-652.5 549,-652.5"/>
<text text-anchor="start" x="556" y="-663.9" font-family="Arial" font-size="14.00" fill="#000000">pub </text>
<text text-anchor="start" x="583.2384" y="-663.9" font-family="Arial" font-size="14.00" fill="#666666">[boolean]</text>
<polygon fill="none" stroke="#000000" points="549,-622.5 549,-652.5 811,-652.5 811,-622.5 549,-622.5"/>
<text text-anchor="start" x="556" y="-633.9" font-family="Arial" font-size="14.00" fill="#000000">owner </text>
<text text-anchor="start" x="598.0056" y="-633.9" font-family="Arial" font-size="14.00" fill="#666666">[integer]</text>
<polygon fill="none" stroke="#000000" points="549,-592.5 549,-622.5 811,-622.5 811,-592.5 549,-592.5"/>
<text text-anchor="start" x="556" y="-603.9" font-family="Arial" font-size="14.00" fill="#000000">url </text>
<text text-anchor="start" x="575.4404" y="-603.9" font-family="Arial" font-size="14.00" fill="#666666">[text]</text>
<polygon fill="none" stroke="#000000" stroke-width="3" points="547.5,-591.5 547.5,-899.5 812.5,-899.5 812.5,-591.5 547.5,-591.5"/>
</g>
<!-- config.copy_tag_type -->
<g id="node3" class="node">
<title>config.copy_tag_type</title>
<polygon fill="#efefef" stroke="transparent" points="332,-282.5 332,-317.5 643,-317.5 643,-282.5 332,-282.5"/>
<polygon fill="none" stroke="#000000" points="332,-282.5 332,-317.5 643,-317.5 643,-282.5 332,-282.5"/>
<text text-anchor="start" x="338.6804" y="-295.3" font-family="Arial Bold" font-size="18.00" fill="#000000">config.copy_tag_type</text>
<text text-anchor="start" x="508.7516" y="-295.3" font-family="Arial" font-size="14.00" fill="#000000">    </text>
<text text-anchor="start" x="542.9564" y="-295.3" font-family="Arial" font-size="14.00" fill="#666666">[BASE TABLE]</text>
<polygon fill="none" stroke="#000000" points="332,-252.5 332,-282.5 643,-282.5 643,-252.5 332,-252.5"/>
<text text-anchor="start" x="339" y="-263.9" font-family="Arial" font-size="14.00" fill="#000000">code    </text>
<text text-anchor="start" x="403.5526" y="-263.9" font-family="Arial" font-size="14.00" fill="#666666">[text]</text>
<polygon fill="none" stroke="#000000" points="332,-222.5 332,-252.5 643,-252.5 643,-222.5 332,-222.5"/>
<text text-anchor="start" x="339" y="-233.9" font-family="Arial" font-size="14.00" fill="#000000">label    </text>
<text text-anchor="start" x="402.7658" y="-233.9" font-family="Arial" font-size="14.00" fill="#666666">[text]</text>
<polygon fill="none" stroke="#000000" points="332,-192.5 332,-222.5 643,-222.5 643,-192.5 332,-192.5"/>
<text text-anchor="start" x="339" y="-203.9" font-family="Arial" font-size="14.00" fill="#000000">owner    </text>
<text text-anchor="start" x="411.3198" y="-203.9" font-family="Arial" font-size="14.00" fill="#666666">[integer]</text>
</g>
<!-- asset.copy_tag&#45;&gt;config.copy_tag_type -->
<g id="edge2" class="edge">
<title>asset.copy_tag:tag_type&#45;&gt;config.copy_tag_type:code</title>
<path fill="none" stroke="#000000" d="M538.974,-817.1094C434.1336,-808.5342 521.9441,-660.5204 549,-547 570.474,-456.8999 621.526,-451.1001 643,-361 652.6343,-320.5767 684.5556,-267.5 643,-267.5"/>
<polygon fill="#000000" stroke="#000000" points="539.0076,-817.1106 548.8248,-821.9966 544.0038,-817.3053 549,-817.5 549,-817.5 549,-817.5 544.0038,-817.3053 549.1752,-813.0034 539.0076,-817.1106 539.0076,-817.1106"/>
<text text-anchor="start" x="7.19" y="-827.5" font-family="Arial" font-size="10.00" fill="#000000">FOREIGN KEY (tag_type) REFERENCES config.copy_tag_type(code) ON UPDATE CASCADE ON DELETE CASCADE</text>
</g>
<!-- actor.org_unit -->
<g id="node4" class="node">
<title>actor.org_unit</title>
<polygon fill="#efefef" stroke="transparent" points="747,-432.5 747,-467.5 998,-467.5 998,-432.5 747,-432.5"/>
<polygon fill="none" stroke="#000000" points="747,-432.5 747,-467.5 998,-467.5 998,-432.5 747,-432.5"/>
<text text-anchor="start" x="753.7017" y="-445.3" font-family="Arial Bold" font-size="18.00" fill="#000000">actor.org_unit</text>
<text text-anchor="start" x="863.7303" y="-445.3" font-family="Arial" font-size="14.00" fill="#000000">    </text>
<text text-anchor="start" x="897.9351" y="-445.3" font-family="Arial" font-size="14.00" fill="#666666">[BASE TABLE]</text>
<polygon fill="none" stroke="#000000" points="747,-402.5 747,-432.5 998,-432.5 998,-402.5 747,-402.5"/>
<text text-anchor="start" x="754" y="-413.9" font-family="Arial" font-size="14.00" fill="#000000">id    </text>
<text text-anchor="start" x="799.094" y="-413.9" font-family="Arial" font-size="14.00" fill="#666666">[integer]</text>
<polygon fill="none" stroke="#000000" points="747,-372.5 747,-402.5 998,-402.5 998,-372.5 747,-372.5"/>
<text text-anchor="start" x="754" y="-383.9" font-family="Arial" font-size="14.00" fill="#000000">parent_ou    </text>
<text text-anchor="start" x="851.2342" y="-383.9" font-family="Arial" font-size="14.00" fill="#666666">[integer]</text>
<polygon fill="none" stroke="#000000" points="747,-342.5 747,-372.5 998,-372.5 998,-342.5 747,-342.5"/>
<text text-anchor="start" x="754" y="-353.9" font-family="Arial" font-size="14.00" fill="#000000">ou_type    </text>
<text text-anchor="start" x="838.0084" y="-353.9" font-family="Arial" font-size="14.00" fill="#666666">[integer]</text>
<polygon fill="none" stroke="#000000" points="747,-312.5 747,-342.5 998,-342.5 998,-312.5 747,-312.5"/>
<text text-anchor="start" x="754" y="-323.9" font-family="Arial" font-size="14.00" fill="#000000">ill_address    </text>
<text text-anchor="start" x="855.0982" y="-323.9" font-family="Arial" font-size="14.00" fill="#666666">[integer]</text>
<polygon fill="none" stroke="#000000" points="747,-282.5 747,-312.5 998,-312.5 998,-282.5 747,-282.5"/>
<text text-anchor="start" x="754" y="-293.9" font-family="Arial" font-size="14.00" fill="#000000">holds_address    </text>
<text text-anchor="start" x="879.2328" y="-293.9" font-family="Arial" font-size="14.00" fill="#666666">[integer]</text>
<polygon fill="none" stroke="#000000" points="747,-252.5 747,-282.5 998,-282.5 998,-252.5 747,-252.5"/>
<text text-anchor="start" x="754" y="-263.9" font-family="Arial" font-size="14.00" fill="#000000">mailing_address    </text>
<text text-anchor="start" x="890.1066" y="-263.9" font-family="Arial" font-size="14.00" fill="#666666">[integer]</text>
<polygon fill="none" stroke="#000000" points="747,-222.5 747,-252.5 998,-252.5 998,-222.5 747,-222.5"/>
<text text-anchor="start" x="754" y="-233.9" font-family="Arial" font-size="14.00" fill="#000000">billing_address    </text>
<text text-anchor="start" x="881.5526" y="-233.9" font-family="Arial" font-size="14.00" fill="#666666">[integer]</text>
<polygon fill="none" stroke="#000000" points="747,-192.5 747,-222.5 998,-222.5 998,-192.5 747,-192.5"/>
<text text-anchor="start" x="754" y="-203.9" font-family="Arial" font-size="14.00" fill="#000000">shortname    </text>
<text text-anchor="start" x="854.3296" y="-203.9" font-family="Arial" font-size="14.00" fill="#666666">[text]</text>
<polygon fill="none" stroke="#000000" points="747,-162.5 747,-192.5 998,-192.5 998,-162.5 747,-162.5"/>
<text text-anchor="start" x="754" y="-173.9" font-family="Arial" font-size="14.00" fill="#000000">name    </text>
<text text-anchor="start" x="823.2132" y="-173.9" font-family="Arial" font-size="14.00" fill="#666666">[text]</text>
<polygon fill="none" stroke="#000000" points="747,-132.5 747,-162.5 998,-162.5 998,-132.5 747,-132.5"/>
<text text-anchor="start" x="754" y="-143.9" font-family="Arial" font-size="14.00" fill="#000000">email    </text>
<text text-anchor="start" x="821.6438" y="-143.9" font-family="Arial" font-size="14.00" fill="#666666">[text]</text>
<polygon fill="none" stroke="#000000" points="747,-102.5 747,-132.5 998,-132.5 998,-102.5 747,-102.5"/>
<text text-anchor="start" x="754" y="-113.9" font-family="Arial" font-size="14.00" fill="#000000">phone    </text>
<text text-anchor="start" x="827.1178" y="-113.9" font-family="Arial" font-size="14.00" fill="#666666">[text]</text>
<polygon fill="none" stroke="#000000" points="747,-72.5 747,-102.5 998,-102.5 998,-72.5 747,-72.5"/>
<text text-anchor="start" x="754" y="-83.9" font-family="Arial" font-size="14.00" fill="#000000">opac_visible    </text>
<text text-anchor="start" x="865.2202" y="-83.9" font-family="Arial" font-size="14.00" fill="#666666">[boolean]</text>
<polygon fill="none" stroke="#000000" points="747,-42.5 747,-72.5 998,-72.5 998,-42.5 747,-42.5"/>
<text text-anchor="start" x="754" y="-53.9" font-family="Arial" font-size="14.00" fill="#000000">fiscal_calendar    </text>
<text text-anchor="start" x="881.554" y="-53.9" font-family="Arial" font-size="14.00" fill="#666666">[integer]</text>
</g>
<!-- asset.copy_tag&#45;&gt;actor.org_unit -->
<g id="edge3" class="edge">
<title>asset.copy_tag:owner&#45;&gt;actor.org_unit:id</title>
<path fill="none" stroke="#000000" d="M821.1189,-635.9757C847.3286,-626.8063 829.323,-578.3296 811,-547 794.524,-518.8286 763.476,-539.1714 747,-511 726.0208,-475.1289 705.4444,-417.5 747,-417.5"/>
<polygon fill="#000000" stroke="#000000" points="820.8884,-636.0103 810.3296,-633.0502 815.9442,-636.7552 811,-637.5 811,-637.5 811,-637.5 815.9442,-636.7552 811.6704,-641.9498 820.8884,-636.0103 820.8884,-636.0103"/>
<text text-anchor="start" x="817.774" y="-647.5" font-family="Arial" font-size="10.00" fill="#000000">FOREIGN KEY (owner) REFERENCES actor.org_unit(id)</text>
</g>
<!-- asset.copy_tag_copy_map -->
<g id="node2" class="node">
<title>asset.copy_tag_copy_map</title>
<polygon fill="#efefef" stroke="transparent" points="502,-1112.5 502,-1147.5 857,-1147.5 857,-1112.5 502,-1112.5"/>
<polygon fill="none" stroke="#000000" points="502,-1112.5 502,-1147.5 857,-1147.5 857,-1112.5 502,-1112.5"/>
<text text-anchor="start" x="508.6763" y="-1125.3" font-family="Arial Bold" font-size="18.00" fill="#000000">asset.copy_tag_copy_map</text>
<text text-anchor="start" x="722.7557" y="-1125.3" font-family="Arial" font-size="14.00" fill="#000000">    </text>
<text text-anchor="start" x="756.9605" y="-1125.3" font-family="Arial" font-size="14.00" fill="#666666">[BASE TABLE]</text>
<polygon fill="none" stroke="#000000" points="502,-1082.5 502,-1112.5 857,-1112.5 857,-1082.5 502,-1082.5"/>
<text text-anchor="start" x="509" y="-1093.9" font-family="Arial" font-size="14.00" fill="#000000">id    </text>
<text text-anchor="start" x="554.094" y="-1093.9" font-family="Arial" font-size="14.00" fill="#666666">[bigint]</text>
<polygon fill="none" stroke="#000000" points="502,-1052.5 502,-1082.5 857,-1082.5 857,-1052.5 502,-1052.5"/>
<text text-anchor="start" x="509" y="-1063.9" font-family="Arial" font-size="14.00" fill="#000000">copy    </text>
<text text-anchor="start" x="572.77" y="-1063.9" font-family="Arial" font-size="14.00" fill="#666666">[bigint]</text>
<polygon fill="none" stroke="#000000" points="502,-1022.5 502,-1052.5 857,-1052.5 857,-1022.5 502,-1022.5"/>
<text text-anchor="start" x="509" y="-1033.9" font-family="Arial" font-size="14.00" fill="#000000">tag    </text>
<text text-anchor="start" x="562.6606" y="-1033.9" font-family="Arial" font-size="14.00" fill="#666666">[integer]</text>
</g>
<!-- asset.copy_tag_copy_map&#45;&gt;asset.copy_tag -->
<g id="edge1" class="edge">
<title>asset.copy_tag_copy_map:tag&#45;&gt;asset.copy_tag:id</title>
<path fill="none" stroke="#000000" d="M679.1513,-1012.3711C669.5231,-959.6003 580.6289,-999.8261 549,-944 527.8582,-906.684 506.1111,-847.5 549,-847.5"/>
<polygon fill="#000000" stroke="#000000" points="679.1649,-1012.5349 675.5157,-1022.8758 679.5825,-1017.5175 680,-1022.5 680,-1022.5 680,-1022.5 679.5825,-1017.5175 684.4843,-1022.1242 679.1649,-1012.5349 679.1649,-1012.5349"/>
<text text-anchor="start" x="686.9845" y="-1032.5" font-family="Arial" font-size="10.00" fill="#000000">FOREIGN KEY (tag) REFERENCES asset.copy_tag(id) ON UPDATE CASCADE ON DELETE CASCADE</text>
</g>
</g>
</svg>
