<?xml version="1.0" encoding="UTF-8" standalone="no"?>
<!DOCTYPE svg PUBLIC "-//W3C//DTD SVG 1.1//EN"
 "http://www.w3.org/Graphics/SVG/1.1/DTD/svg11.dtd">
<!-- Generated by graphviz version 2.40.1 (20161225.0304)
 -->
<!-- Title: asset.call_number_suffix Pages: 1 -->
<svg width="856pt" height="1349pt"
 viewBox="0.00 0.00 855.50 1349.00" xmlns="http://www.w3.org/2000/svg" xmlns:xlink="http://www.w3.org/1999/xlink">
<g id="graph0" class="graph" transform="scale(1 1) rotate(0) translate(4 1345)">
<title>asset.call_number_suffix</title>
<polygon fill="#ffffff" stroke="transparent" points="-4,4 -4,-1345 851.5,-1345 851.5,4 -4,4"/>
<!-- asset.call_number_suffix -->
<g id="node1" class="node">
<title>asset.call_number_suffix</title>
<polygon fill="#efefef" stroke="transparent" points="463,-712.5 463,-747.5 802,-747.5 802,-712.5 463,-712.5"/>
<polygon fill="none" stroke="#000000" points="463,-712.5 463,-747.5 802,-747.5 802,-712.5 463,-712.5"/>
<text text-anchor="start" x="469.6971" y="-725.3" font-family="Arial Bold" font-size="18.00" fill="#000000">asset.call_number_suffix</text>
<text text-anchor="start" x="667.7349" y="-725.3" font-family="Arial" font-size="14.00" fill="#000000">    </text>
<text text-anchor="start" x="701.9397" y="-725.3" font-family="Arial" font-size="14.00" fill="#666666">[BASE TABLE]</text>
<polygon fill="none" stroke="#000000" points="463,-682.5 463,-712.5 802,-712.5 802,-682.5 463,-682.5"/>
<text text-anchor="start" x="470" y="-693.9" font-family="Arial" font-size="14.00" fill="#000000">id </text>
<text text-anchor="start" x="484.7798" y="-693.9" font-family="Arial" font-size="14.00" fill="#666666">[integer]</text>
<polygon fill="none" stroke="#000000" points="463,-652.5 463,-682.5 802,-682.5 802,-652.5 463,-652.5"/>
<text text-anchor="start" x="470" y="-663.9" font-family="Arial" font-size="14.00" fill="#000000">owning_lib </text>
<text text-anchor="start" x="540.0126" y="-663.9" font-family="Arial" font-size="14.00" fill="#666666">[integer]</text>
<polygon fill="none" stroke="#000000" points="463,-622.5 463,-652.5 802,-652.5 802,-622.5 463,-622.5"/>
<text text-anchor="start" x="470" y="-633.9" font-family="Arial" font-size="14.00" fill="#000000">label </text>
<text text-anchor="start" x="503.4516" y="-633.9" font-family="Arial" font-size="14.00" fill="#666666">[text]</text>
<polygon fill="none" stroke="#000000" points="463,-592.5 463,-622.5 802,-622.5 802,-592.5 463,-592.5"/>
<text text-anchor="start" x="470" y="-603.9" font-family="Arial" font-size="14.00" fill="#000000">label_sortkey </text>
<text text-anchor="start" x="556.3506" y="-603.9" font-family="Arial" font-size="14.00" fill="#666666">[text]</text>
<polygon fill="none" stroke="#000000" stroke-width="3" points="461,-591.5 461,-749.5 803,-749.5 803,-591.5 461,-591.5"/>
</g>
<!-- actor.org_unit -->
<g id="node3" class="node">
<title>actor.org_unit</title>
<polygon fill="#efefef" stroke="transparent" points="507,-432.5 507,-467.5 758,-467.5 758,-432.5 507,-432.5"/>
<polygon fill="none" stroke="#000000" points="507,-432.5 507,-467.5 758,-467.5 758,-432.5 507,-432.5"/>
<text text-anchor="start" x="513.7017" y="-445.3" font-family="Arial Bold" font-size="18.00" fill="#000000">actor.org_unit</text>
<text text-anchor="start" x="623.7303" y="-445.3" font-family="Arial" font-size="14.00" fill="#000000">    </text>
<text text-anchor="start" x="657.9351" y="-445.3" font-family="Arial" font-size="14.00" fill="#666666">[BASE TABLE]</text>
<polygon fill="none" stroke="#000000" points="507,-402.5 507,-432.5 758,-432.5 758,-402.5 507,-402.5"/>
<text text-anchor="start" x="514" y="-413.9" font-family="Arial" font-size="14.00" fill="#000000">id    </text>
<text text-anchor="start" x="559.094" y="-413.9" font-family="Arial" font-size="14.00" fill="#666666">[integer]</text>
<polygon fill="none" stroke="#000000" points="507,-372.5 507,-402.5 758,-402.5 758,-372.5 507,-372.5"/>
<text text-anchor="start" x="514" y="-383.9" font-family="Arial" font-size="14.00" fill="#000000">parent_ou    </text>
<text text-anchor="start" x="611.2342" y="-383.9" font-family="Arial" font-size="14.00" fill="#666666">[integer]</text>
<polygon fill="none" stroke="#000000" points="507,-342.5 507,-372.5 758,-372.5 758,-342.5 507,-342.5"/>
<text text-anchor="start" x="514" y="-353.9" font-family="Arial" font-size="14.00" fill="#000000">ou_type    </text>
<text text-anchor="start" x="598.0084" y="-353.9" font-family="Arial" font-size="14.00" fill="#666666">[integer]</text>
<polygon fill="none" stroke="#000000" points="507,-312.5 507,-342.5 758,-342.5 758,-312.5 507,-312.5"/>
<text text-anchor="start" x="514" y="-323.9" font-family="Arial" font-size="14.00" fill="#000000">ill_address    </text>
<text text-anchor="start" x="615.0982" y="-323.9" font-family="Arial" font-size="14.00" fill="#666666">[integer]</text>
<polygon fill="none" stroke="#000000" points="507,-282.5 507,-312.5 758,-312.5 758,-282.5 507,-282.5"/>
<text text-anchor="start" x="514" y="-293.9" font-family="Arial" font-size="14.00" fill="#000000">holds_address    </text>
<text text-anchor="start" x="639.2328" y="-293.9" font-family="Arial" font-size="14.00" fill="#666666">[integer]</text>
<polygon fill="none" stroke="#000000" points="507,-252.5 507,-282.5 758,-282.5 758,-252.5 507,-252.5"/>
<text text-anchor="start" x="514" y="-263.9" font-family="Arial" font-size="14.00" fill="#000000">mailing_address    </text>
<text text-anchor="start" x="650.1066" y="-263.9" font-family="Arial" font-size="14.00" fill="#666666">[integer]</text>
<polygon fill="none" stroke="#000000" points="507,-222.5 507,-252.5 758,-252.5 758,-222.5 507,-222.5"/>
<text text-anchor="start" x="514" y="-233.9" font-family="Arial" font-size="14.00" fill="#000000">billing_address    </text>
<text text-anchor="start" x="641.5526" y="-233.9" font-family="Arial" font-size="14.00" fill="#666666">[integer]</text>
<polygon fill="none" stroke="#000000" points="507,-192.5 507,-222.5 758,-222.5 758,-192.5 507,-192.5"/>
<text text-anchor="start" x="514" y="-203.9" font-family="Arial" font-size="14.00" fill="#000000">shortname    </text>
<text text-anchor="start" x="614.3296" y="-203.9" font-family="Arial" font-size="14.00" fill="#666666">[text]</text>
<polygon fill="none" stroke="#000000" points="507,-162.5 507,-192.5 758,-192.5 758,-162.5 507,-162.5"/>
<text text-anchor="start" x="514" y="-173.9" font-family="Arial" font-size="14.00" fill="#000000">name    </text>
<text text-anchor="start" x="583.2132" y="-173.9" font-family="Arial" font-size="14.00" fill="#666666">[text]</text>
<polygon fill="none" stroke="#000000" points="507,-132.5 507,-162.5 758,-162.5 758,-132.5 507,-132.5"/>
<text text-anchor="start" x="514" y="-143.9" font-family="Arial" font-size="14.00" fill="#000000">email    </text>
<text text-anchor="start" x="581.6438" y="-143.9" font-family="Arial" font-size="14.00" fill="#666666">[text]</text>
<polygon fill="none" stroke="#000000" points="507,-102.5 507,-132.5 758,-132.5 758,-102.5 507,-102.5"/>
<text text-anchor="start" x="514" y="-113.9" font-family="Arial" font-size="14.00" fill="#000000">phone    </text>
<text text-anchor="start" x="587.1178" y="-113.9" font-family="Arial" font-size="14.00" fill="#666666">[text]</text>
<polygon fill="none" stroke="#000000" points="507,-72.5 507,-102.5 758,-102.5 758,-72.5 507,-72.5"/>
<text text-anchor="start" x="514" y="-83.9" font-family="Arial" font-size="14.00" fill="#000000">opac_visible    </text>
<text text-anchor="start" x="625.2202" y="-83.9" font-family="Arial" font-size="14.00" fill="#666666">[boolean]</text>
<polygon fill="none" stroke="#000000" points="507,-42.5 507,-72.5 758,-72.5 758,-42.5 507,-42.5"/>
<text text-anchor="start" x="514" y="-53.9" font-family="Arial" font-size="14.00" fill="#000000">fiscal_calendar    </text>
<text text-anchor="start" x="641.554" y="-53.9" font-family="Arial" font-size="14.00" fill="#666666">[integer]</text>
</g>
<!-- asset.call_number_suffix&#45;&gt;actor.org_unit -->
<g id="edge2" class="edge">
<title>asset.call_number_suffix:owning_lib&#45;&gt;actor.org_unit:id</title>
<path fill="none" stroke="#000000" d="M452.88,-666.7828C352.9983,-652.1191 397.7067,-417.5 507,-417.5"/>
<polygon fill="#000000" stroke="#000000" points="453.025,-666.793 462.6819,-671.9887 458.0125,-667.1465 463,-667.5 463,-667.5 463,-667.5 458.0125,-667.1465 463.3181,-663.0113 453.025,-666.793 453.025,-666.793"/>
<text text-anchor="start" x="181.7715" y="-677.5" font-family="Arial" font-size="10.00" fill="#000000">FOREIGN KEY (owning_lib) REFERENCES actor.org_unit(id)</text>
</g>
<!-- asset.call_number -->
<g id="node2" class="node">
<title>asset.call_number</title>
<polygon fill="#efefef" stroke="transparent" points="489,-1262.5 489,-1297.5 776,-1297.5 776,-1262.5 489,-1262.5"/>
<polygon fill="none" stroke="#000000" points="489,-1262.5 489,-1297.5 776,-1297.5 776,-1262.5 489,-1262.5"/>
<text text-anchor="start" x="495.7026" y="-1275.3" font-family="Arial Bold" font-size="18.00" fill="#000000">asset.call_number</text>
<text text-anchor="start" x="641.7294" y="-1275.3" font-family="Arial" font-size="14.00" fill="#000000">    </text>
<text text-anchor="start" x="675.9342" y="-1275.3" font-family="Arial" font-size="14.00" fill="#666666">[BASE TABLE]</text>
<polygon fill="none" stroke="#000000" points="489,-1232.5 489,-1262.5 776,-1262.5 776,-1232.5 489,-1232.5"/>
<text text-anchor="start" x="496" y="-1243.9" font-family="Arial" font-size="14.00" fill="#000000">id    </text>
<text text-anchor="start" x="541.094" y="-1243.9" font-family="Arial" font-size="14.00" fill="#666666">[bigint]</text>
<polygon fill="none" stroke="#000000" points="489,-1202.5 489,-1232.5 776,-1232.5 776,-1202.5 489,-1202.5"/>
<text text-anchor="start" x="496" y="-1213.9" font-family="Arial" font-size="14.00" fill="#000000">creator    </text>
<text text-anchor="start" x="573.7644" y="-1213.9" font-family="Arial" font-size="14.00" fill="#666666">[bigint]</text>
<polygon fill="none" stroke="#000000" points="489,-1172.5 489,-1202.5 776,-1202.5 776,-1172.5 489,-1172.5"/>
<text text-anchor="start" x="495.5954" y="-1183.9" font-family="Arial" font-size="14.00" fill="#000000">create_date    </text>
<text text-anchor="start" x="603.7202" y="-1183.9" font-family="Arial" font-size="14.00" fill="#666666">[timestamp with time zone]</text>
<polygon fill="none" stroke="#000000" points="489,-1142.5 489,-1172.5 776,-1172.5 776,-1142.5 489,-1142.5"/>
<text text-anchor="start" x="496" y="-1153.9" font-family="Arial" font-size="14.00" fill="#000000">editor    </text>
<text text-anchor="start" x="565.2104" y="-1153.9" font-family="Arial" font-size="14.00" fill="#666666">[bigint]</text>
<polygon fill="none" stroke="#000000" points="489,-1112.5 489,-1142.5 776,-1142.5 776,-1112.5 489,-1112.5"/>
<text text-anchor="start" x="496" y="-1123.9" font-family="Arial" font-size="14.00" fill="#000000">edit_date    </text>
<text text-anchor="start" x="587.7882" y="-1123.9" font-family="Arial" font-size="14.00" fill="#666666">[timestamp with time zone]</text>
<polygon fill="none" stroke="#000000" points="489,-1082.5 489,-1112.5 776,-1112.5 776,-1082.5 489,-1082.5"/>
<text text-anchor="start" x="496" y="-1093.9" font-family="Arial" font-size="14.00" fill="#000000">record    </text>
<text text-anchor="start" x="569.8738" y="-1093.9" font-family="Arial" font-size="14.00" fill="#666666">[bigint]</text>
<polygon fill="none" stroke="#000000" points="489,-1052.5 489,-1082.5 776,-1082.5 776,-1052.5 489,-1052.5"/>
<text text-anchor="start" x="496" y="-1063.9" font-family="Arial" font-size="14.00" fill="#000000">owning_lib    </text>
<text text-anchor="start" x="596.3268" y="-1063.9" font-family="Arial" font-size="14.00" fill="#666666">[integer]</text>
<polygon fill="none" stroke="#000000" points="489,-1022.5 489,-1052.5 776,-1052.5 776,-1022.5 489,-1022.5"/>
<text text-anchor="start" x="496" y="-1033.9" font-family="Arial" font-size="14.00" fill="#000000">label    </text>
<text text-anchor="start" x="559.7658" y="-1033.9" font-family="Arial" font-size="14.00" fill="#666666">[text]</text>
<polygon fill="none" stroke="#000000" points="489,-992.5 489,-1022.5 776,-1022.5 776,-992.5 489,-992.5"/>
<text text-anchor="start" x="496" y="-1003.9" font-family="Arial" font-size="14.00" fill="#000000">deleted    </text>
<text text-anchor="start" x="576.115" y="-1003.9" font-family="Arial" font-size="14.00" fill="#666666">[boolean]</text>
<polygon fill="none" stroke="#000000" points="489,-962.5 489,-992.5 776,-992.5 776,-962.5 489,-962.5"/>
<text text-anchor="start" x="496" y="-973.9" font-family="Arial" font-size="14.00" fill="#000000">prefix    </text>
<text text-anchor="start" x="564.4278" y="-973.9" font-family="Arial" font-size="14.00" fill="#666666">[integer]</text>
<polygon fill="none" stroke="#000000" points="489,-932.5 489,-962.5 776,-962.5 776,-932.5 489,-932.5"/>
<text text-anchor="start" x="496" y="-943.9" font-family="Arial" font-size="14.00" fill="#000000">suffix    </text>
<text text-anchor="start" x="562.8752" y="-943.9" font-family="Arial" font-size="14.00" fill="#666666">[integer]</text>
<polygon fill="none" stroke="#000000" points="489,-902.5 489,-932.5 776,-932.5 776,-902.5 489,-902.5"/>
<text text-anchor="start" x="496" y="-913.9" font-family="Arial" font-size="14.00" fill="#000000">label_class    </text>
<text text-anchor="start" x="599.4376" y="-913.9" font-family="Arial" font-size="14.00" fill="#666666">[bigint]</text>
<polygon fill="none" stroke="#000000" points="489,-872.5 489,-902.5 776,-902.5 776,-872.5 489,-872.5"/>
<text text-anchor="start" x="496" y="-883.9" font-family="Arial" font-size="14.00" fill="#000000">label_sortkey    </text>
<text text-anchor="start" x="612.6648" y="-883.9" font-family="Arial" font-size="14.00" fill="#666666">[text]</text>
</g>
<!-- asset.call_number&#45;&gt;asset.call_number_suffix -->
<g id="edge1" class="edge">
<title>asset.call_number:suffix&#45;&gt;asset.call_number_suffix:id</title>
<path fill="none" stroke="#000000" d="M478.7798,-946.7828C375.7991,-932.1191 354.7806,-697.5 463,-697.5"/>
<polygon fill="#000000" stroke="#000000" points="479.0245,-946.7999 488.685,-951.989 484.0123,-947.15 489,-947.5 489,-947.5 489,-947.5 484.0123,-947.15 489.315,-943.011 479.0245,-946.7999 479.0245,-946.7999"/>
<text text-anchor="start" x="7.2115" y="-957.5" font-family="Arial" font-size="10.00" fill="#000000">FOREIGN KEY (suffix) REFERENCES asset.call_number_suffix(id) DEFERRABLE INITIALLY DEFERRED</text>
</g>
</g>
</svg>
