<?xml version="1.0" encoding="UTF-8" standalone="no"?>
<!DOCTYPE svg PUBLIC "-//W3C//DTD SVG 1.1//EN"
 "http://www.w3.org/Graphics/SVG/1.1/DTD/svg11.dtd">
<!-- Generated by graphviz version 2.40.1 (20161225.0304)
 -->
<!-- Title: asset.stat_cat_sip_fields Pages: 1 -->
<svg width="1082pt" height="622pt"
 viewBox="0.00 0.00 1081.50 622.00" xmlns="http://www.w3.org/2000/svg" xmlns:xlink="http://www.w3.org/1999/xlink">
<g id="graph0" class="graph" transform="scale(1 1) rotate(0) translate(4 618)">
<title>asset.stat_cat_sip_fields</title>
<polygon fill="#ffffff" stroke="transparent" points="-4,4 -4,-618 1077.5,-618 1077.5,4 -4,4"/>
<!-- asset.stat_cat_sip_fields -->
<g id="node1" class="node">
<title>asset.stat_cat_sip_fields</title>
<polygon fill="#efefef" stroke="transparent" points="691,-135.5 691,-170.5 1028,-170.5 1028,-135.5 691,-135.5"/>
<polygon fill="none" stroke="#000000" points="691,-135.5 691,-170.5 1028,-170.5 1028,-135.5 691,-135.5"/>
<text text-anchor="start" x="697.6871" y="-148.3" font-family="Arial Bold" font-size="18.00" fill="#000000">asset.stat_cat_sip_fields</text>
<text text-anchor="start" x="893.7449" y="-148.3" font-family="Arial" font-size="14.00" fill="#000000">    </text>
<text text-anchor="start" x="927.9497" y="-148.3" font-family="Arial" font-size="14.00" fill="#666666">[BASE TABLE]</text>
<polygon fill="none" stroke="#000000" points="691,-105.5 691,-135.5 1028,-135.5 1028,-105.5 691,-105.5"/>
<text text-anchor="start" x="698" y="-116.9" font-family="Arial" font-size="14.00" fill="#000000">field </text>
<text text-anchor="start" x="727.5596" y="-116.9" font-family="Arial" font-size="14.00" fill="#666666">[character(2)]</text>
<polygon fill="none" stroke="#000000" points="691,-75.5 691,-105.5 1028,-105.5 1028,-75.5 691,-75.5"/>
<text text-anchor="start" x="698" y="-86.9" font-family="Arial" font-size="14.00" fill="#000000">name </text>
<text text-anchor="start" x="736.899" y="-86.9" font-family="Arial" font-size="14.00" fill="#666666">[text]</text>
<polygon fill="none" stroke="#000000" points="691,-45.5 691,-75.5 1028,-75.5 1028,-45.5 691,-45.5"/>
<text text-anchor="start" x="698" y="-56.9" font-family="Arial" font-size="14.00" fill="#000000">one_only </text>
<text text-anchor="start" x="758.6928" y="-56.9" font-family="Arial" font-size="14.00" fill="#666666">[boolean]</text>
<polygon fill="none" stroke="#000000" stroke-width="3" points="689,-44.5 689,-172.5 1029,-172.5 1029,-44.5 689,-44.5"/>
</g>
<!-- asset.stat_cat -->
<g id="node2" class="node">
<title>asset.stat_cat</title>
<polygon fill="#efefef" stroke="transparent" points="734,-535.5 734,-570.5 986,-570.5 986,-535.5 734,-535.5"/>
<polygon fill="none" stroke="#000000" points="734,-535.5 734,-570.5 986,-570.5 986,-535.5 734,-535.5"/>
<text text-anchor="start" x="740.695" y="-548.3" font-family="Arial Bold" font-size="18.00" fill="#000000">asset.stat_cat</text>
<text text-anchor="start" x="851.737" y="-548.3" font-family="Arial" font-size="14.00" fill="#000000">    </text>
<text text-anchor="start" x="885.9418" y="-548.3" font-family="Arial" font-size="14.00" fill="#666666">[BASE TABLE]</text>
<polygon fill="none" stroke="#000000" points="734,-505.5 734,-535.5 986,-535.5 986,-505.5 734,-505.5"/>
<text text-anchor="start" x="741" y="-516.9" font-family="Arial" font-size="14.00" fill="#000000">id    </text>
<text text-anchor="start" x="786.094" y="-516.9" font-family="Arial" font-size="14.00" fill="#666666">[integer]</text>
<polygon fill="none" stroke="#000000" points="734,-475.5 734,-505.5 986,-505.5 986,-475.5 734,-475.5"/>
<text text-anchor="start" x="741" y="-486.9" font-family="Arial" font-size="14.00" fill="#000000">owner    </text>
<text text-anchor="start" x="813.3198" y="-486.9" font-family="Arial" font-size="14.00" fill="#666666">[integer]</text>
<polygon fill="none" stroke="#000000" points="734,-445.5 734,-475.5 986,-475.5 986,-445.5 734,-445.5"/>
<text text-anchor="start" x="741" y="-456.9" font-family="Arial" font-size="14.00" fill="#000000">opac_visible    </text>
<text text-anchor="start" x="852.2202" y="-456.9" font-family="Arial" font-size="14.00" fill="#666666">[boolean]</text>
<polygon fill="none" stroke="#000000" points="734,-415.5 734,-445.5 986,-445.5 986,-415.5 734,-415.5"/>
<text text-anchor="start" x="741" y="-426.9" font-family="Arial" font-size="14.00" fill="#000000">name    </text>
<text text-anchor="start" x="810.2132" y="-426.9" font-family="Arial" font-size="14.00" fill="#666666">[text]</text>
<polygon fill="none" stroke="#000000" points="734,-385.5 734,-415.5 986,-415.5 986,-385.5 734,-385.5"/>
<text text-anchor="start" x="741" y="-396.9" font-family="Arial" font-size="14.00" fill="#000000">required    </text>
<text text-anchor="start" x="826.5456" y="-396.9" font-family="Arial" font-size="14.00" fill="#666666">[boolean]</text>
<polygon fill="none" stroke="#000000" points="734,-355.5 734,-385.5 986,-385.5 986,-355.5 734,-355.5"/>
<text text-anchor="start" x="741" y="-366.9" font-family="Arial" font-size="14.00" fill="#000000">sip_field    </text>
<text text-anchor="start" x="826.5456" y="-366.9" font-family="Arial" font-size="14.00" fill="#666666">[character(2)]</text>
<polygon fill="none" stroke="#000000" points="734,-325.5 734,-355.5 986,-355.5 986,-325.5 734,-325.5"/>
<text text-anchor="start" x="741" y="-336.9" font-family="Arial" font-size="14.00" fill="#000000">sip_format    </text>
<text text-anchor="start" x="840.5442" y="-336.9" font-family="Arial" font-size="14.00" fill="#666666">[text]</text>
<polygon fill="none" stroke="#000000" points="734,-295.5 734,-325.5 986,-325.5 986,-295.5 734,-295.5"/>
<text text-anchor="start" x="741" y="-306.9" font-family="Arial" font-size="14.00" fill="#000000">checkout_archive    </text>
<text text-anchor="start" x="884.1234" y="-306.9" font-family="Arial" font-size="14.00" fill="#666666">[boolean]</text>
</g>
<!-- asset.stat_cat&#45;&gt;asset.stat_cat_sip_fields -->
<g id="edge1" class="edge">
<title>asset.stat_cat:sip_field&#45;&gt;asset.stat_cat_sip_fields:field</title>
<path fill="none" stroke="#000000" d="M724.0018,-369.3782C684.3385,-359.6701 701.8236,-289.3567 734,-253 821.2453,-154.4199 940.7547,-315.5801 1028,-217 1056.4243,-184.8828 1070.8889,-120.5 1028,-120.5"/>
<polygon fill="#000000" stroke="#000000" points="724.0624,-369.3849 733.4982,-374.9719 729.0312,-369.9425 734,-370.5 734,-370.5 734,-370.5 729.0312,-369.9425 734.5018,-366.0281 724.0624,-369.3849 724.0624,-369.3849"/>
<text text-anchor="start" x="6.6985" y="-380.5" font-family="Arial" font-size="10.00" fill="#000000">FOREIGN KEY (sip_field) REFERENCES asset.stat_cat_sip_fields(field) ON UPDATE CASCADE ON DELETE SET NULL DEFERRABLE INITIALLY DEFERRED</text>
</g>
</g>
</svg>
