<?xml version="1.0" encoding="UTF-8" standalone="no"?>
<!DOCTYPE svg PUBLIC "-//W3C//DTD SVG 1.1//EN"
 "http://www.w3.org/Graphics/SVG/1.1/DTD/svg11.dtd">
<!-- Generated by graphviz version 2.40.1 (20161225.0304)
 -->
<!-- Title: asset.uri_call_number_map Pages: 1 -->
<svg width="913pt" height="772pt"
 viewBox="0.00 0.00 913.00 772.00" xmlns="http://www.w3.org/2000/svg" xmlns:xlink="http://www.w3.org/1999/xlink">
<g id="graph0" class="graph" transform="scale(1 1) rotate(0) translate(4 768)">
<title>asset.uri_call_number_map</title>
<polygon fill="#ffffff" stroke="transparent" points="-4,4 -4,-768 909,-768 909,4 -4,4"/>
<!-- asset.uri_call_number_map -->
<g id="node1" class="node">
<title>asset.uri_call_number_map</title>
<polygon fill="#efefef" stroke="transparent" points="228,-682.5 228,-717.5 590,-717.5 590,-682.5 228,-682.5"/>
<polygon fill="none" stroke="#000000" points="228,-682.5 228,-717.5 590,-717.5 590,-682.5 228,-682.5"/>
<text text-anchor="start" x="234.6978" y="-695.3" font-family="Arial Bold" font-size="18.00" fill="#000000">asset.uri_call_number_map</text>
<text text-anchor="start" x="455.7342" y="-695.3" font-family="Arial" font-size="14.00" fill="#000000">    </text>
<text text-anchor="start" x="489.939" y="-695.3" font-family="Arial" font-size="14.00" fill="#666666">[BASE TABLE]</text>
<polygon fill="none" stroke="#000000" points="228,-652.5 228,-682.5 590,-682.5 590,-652.5 228,-652.5"/>
<text text-anchor="start" x="235" y="-663.9" font-family="Arial" font-size="14.00" fill="#000000">id </text>
<text text-anchor="start" x="249.7798" y="-663.9" font-family="Arial" font-size="14.00" fill="#666666">[bigint]</text>
<polygon fill="none" stroke="#000000" points="228,-622.5 228,-652.5 590,-652.5 590,-622.5 228,-622.5"/>
<text text-anchor="start" x="235" y="-633.9" font-family="Arial" font-size="14.00" fill="#000000">uri </text>
<text text-anchor="start" x="254.4404" y="-633.9" font-family="Arial" font-size="14.00" fill="#666666">[integer]</text>
<polygon fill="none" stroke="#000000" points="228,-592.5 228,-622.5 590,-622.5 590,-592.5 228,-592.5"/>
<text text-anchor="start" x="235" y="-603.9" font-family="Arial" font-size="14.00" fill="#000000">call_number </text>
<text text-anchor="start" x="315.1206" y="-603.9" font-family="Arial" font-size="14.00" fill="#666666">[integer]</text>
<polygon fill="none" stroke="#000000" stroke-width="3" points="226.5,-591.5 226.5,-719.5 591.5,-719.5 591.5,-591.5 226.5,-591.5"/>
</g>
<!-- asset.uri -->
<g id="node2" class="node">
<title>asset.uri</title>
<polygon fill="#efefef" stroke="transparent" points="128,-312.5 128,-347.5 337,-347.5 337,-312.5 128,-312.5"/>
<polygon fill="none" stroke="#000000" points="128,-312.5 128,-347.5 337,-347.5 337,-312.5 128,-312.5"/>
<text text-anchor="start" x="134.7113" y="-325.3" font-family="Arial Bold" font-size="18.00" fill="#000000">asset.uri</text>
<text text-anchor="start" x="202.7207" y="-325.3" font-family="Arial" font-size="14.00" fill="#000000">    </text>
<text text-anchor="start" x="236.9255" y="-325.3" font-family="Arial" font-size="14.00" fill="#666666">[BASE TABLE]</text>
<polygon fill="none" stroke="#000000" points="128,-282.5 128,-312.5 337,-312.5 337,-282.5 128,-282.5"/>
<text text-anchor="start" x="135" y="-293.9" font-family="Arial" font-size="14.00" fill="#000000">id    </text>
<text text-anchor="start" x="180.094" y="-293.9" font-family="Arial" font-size="14.00" fill="#666666">[integer]</text>
<polygon fill="none" stroke="#000000" points="128,-252.5 128,-282.5 337,-282.5 337,-252.5 128,-252.5"/>
<text text-anchor="start" x="135" y="-263.9" font-family="Arial" font-size="14.00" fill="#000000">href    </text>
<text text-anchor="start" x="193.3212" y="-263.9" font-family="Arial" font-size="14.00" fill="#666666">[text]</text>
<polygon fill="none" stroke="#000000" points="128,-222.5 128,-252.5 337,-252.5 337,-222.5 128,-222.5"/>
<text text-anchor="start" x="135" y="-233.9" font-family="Arial" font-size="14.00" fill="#000000">label    </text>
<text text-anchor="start" x="198.7658" y="-233.9" font-family="Arial" font-size="14.00" fill="#666666">[text]</text>
<polygon fill="none" stroke="#000000" points="128,-192.5 128,-222.5 337,-222.5 337,-192.5 128,-192.5"/>
<text text-anchor="start" x="135" y="-203.9" font-family="Arial" font-size="14.00" fill="#000000">use_restriction    </text>
<text text-anchor="start" x="260.216" y="-203.9" font-family="Arial" font-size="14.00" fill="#666666">[text]</text>
<polygon fill="none" stroke="#000000" points="128,-162.5 128,-192.5 337,-192.5 337,-162.5 128,-162.5"/>
<text text-anchor="start" x="135" y="-173.9" font-family="Arial" font-size="14.00" fill="#000000">active    </text>
<text text-anchor="start" x="205.7672" y="-173.9" font-family="Arial" font-size="14.00" fill="#666666">[boolean]</text>
</g>
<!-- asset.uri_call_number_map&#45;&gt;asset.uri -->
<g id="edge1" class="edge">
<title>asset.uri_call_number_map:uri&#45;&gt;asset.uri:id</title>
<path fill="none" stroke="#000000" d="M217.7914,-636.9485C88.9783,-621.7493 491.9674,-297.5 337,-297.5"/>
<polygon fill="#000000" stroke="#000000" points="218.0146,-636.9604 227.7572,-641.9934 223.0073,-637.2302 228,-637.5 228,-637.5 228,-637.5 223.0073,-637.2302 228.2428,-633.0066 218.0146,-636.9604 218.0146,-636.9604"/>
<text text-anchor="start" x="6.505" y="-647.5" font-family="Arial" font-size="10.00" fill="#000000">FOREIGN KEY (uri) REFERENCES asset.uri(id)</text>
</g>
<!-- asset.call_number -->
<g id="node3" class="node">
<title>asset.call_number</title>
<polygon fill="#efefef" stroke="transparent" points="441,-432.5 441,-467.5 728,-467.5 728,-432.5 441,-432.5"/>
<polygon fill="none" stroke="#000000" points="441,-432.5 441,-467.5 728,-467.5 728,-432.5 441,-432.5"/>
<text text-anchor="start" x="447.7026" y="-445.3" font-family="Arial Bold" font-size="18.00" fill="#000000">asset.call_number</text>
<text text-anchor="start" x="593.7294" y="-445.3" font-family="Arial" font-size="14.00" fill="#000000">    </text>
<text text-anchor="start" x="627.9342" y="-445.3" font-family="Arial" font-size="14.00" fill="#666666">[BASE TABLE]</text>
<polygon fill="none" stroke="#000000" points="441,-402.5 441,-432.5 728,-432.5 728,-402.5 441,-402.5"/>
<text text-anchor="start" x="448" y="-413.9" font-family="Arial" font-size="14.00" fill="#000000">id    </text>
<text text-anchor="start" x="493.094" y="-413.9" font-family="Arial" font-size="14.00" fill="#666666">[bigint]</text>
<polygon fill="none" stroke="#000000" points="441,-372.5 441,-402.5 728,-402.5 728,-372.5 441,-372.5"/>
<text text-anchor="start" x="448" y="-383.9" font-family="Arial" font-size="14.00" fill="#000000">creator    </text>
<text text-anchor="start" x="525.7644" y="-383.9" font-family="Arial" font-size="14.00" fill="#666666">[bigint]</text>
<polygon fill="none" stroke="#000000" points="441,-342.5 441,-372.5 728,-372.5 728,-342.5 441,-342.5"/>
<text text-anchor="start" x="447.5954" y="-353.9" font-family="Arial" font-size="14.00" fill="#000000">create_date    </text>
<text text-anchor="start" x="555.7202" y="-353.9" font-family="Arial" font-size="14.00" fill="#666666">[timestamp with time zone]</text>
<polygon fill="none" stroke="#000000" points="441,-312.5 441,-342.5 728,-342.5 728,-312.5 441,-312.5"/>
<text text-anchor="start" x="448" y="-323.9" font-family="Arial" font-size="14.00" fill="#000000">editor    </text>
<text text-anchor="start" x="517.2104" y="-323.9" font-family="Arial" font-size="14.00" fill="#666666">[bigint]</text>
<polygon fill="none" stroke="#000000" points="441,-282.5 441,-312.5 728,-312.5 728,-282.5 441,-282.5"/>
<text text-anchor="start" x="448" y="-293.9" font-family="Arial" font-size="14.00" fill="#000000">edit_date    </text>
<text text-anchor="start" x="539.7882" y="-293.9" font-family="Arial" font-size="14.00" fill="#666666">[timestamp with time zone]</text>
<polygon fill="none" stroke="#000000" points="441,-252.5 441,-282.5 728,-282.5 728,-252.5 441,-252.5"/>
<text text-anchor="start" x="448" y="-263.9" font-family="Arial" font-size="14.00" fill="#000000">record    </text>
<text text-anchor="start" x="521.8738" y="-263.9" font-family="Arial" font-size="14.00" fill="#666666">[bigint]</text>
<polygon fill="none" stroke="#000000" points="441,-222.5 441,-252.5 728,-252.5 728,-222.5 441,-222.5"/>
<text text-anchor="start" x="448" y="-233.9" font-family="Arial" font-size="14.00" fill="#000000">owning_lib    </text>
<text text-anchor="start" x="548.3268" y="-233.9" font-family="Arial" font-size="14.00" fill="#666666">[integer]</text>
<polygon fill="none" stroke="#000000" points="441,-192.5 441,-222.5 728,-222.5 728,-192.5 441,-192.5"/>
<text text-anchor="start" x="448" y="-203.9" font-family="Arial" font-size="14.00" fill="#000000">label    </text>
<text text-anchor="start" x="511.7658" y="-203.9" font-family="Arial" font-size="14.00" fill="#666666">[text]</text>
<polygon fill="none" stroke="#000000" points="441,-162.5 441,-192.5 728,-192.5 728,-162.5 441,-162.5"/>
<text text-anchor="start" x="448" y="-173.9" font-family="Arial" font-size="14.00" fill="#000000">deleted    </text>
<text text-anchor="start" x="528.115" y="-173.9" font-family="Arial" font-size="14.00" fill="#666666">[boolean]</text>
<polygon fill="none" stroke="#000000" points="441,-132.5 441,-162.5 728,-162.5 728,-132.5 441,-132.5"/>
<text text-anchor="start" x="448" y="-143.9" font-family="Arial" font-size="14.00" fill="#000000">prefix    </text>
<text text-anchor="start" x="516.4278" y="-143.9" font-family="Arial" font-size="14.00" fill="#666666">[integer]</text>
<polygon fill="none" stroke="#000000" points="441,-102.5 441,-132.5 728,-132.5 728,-102.5 441,-102.5"/>
<text text-anchor="start" x="448" y="-113.9" font-family="Arial" font-size="14.00" fill="#000000">suffix    </text>
<text text-anchor="start" x="514.8752" y="-113.9" font-family="Arial" font-size="14.00" fill="#666666">[integer]</text>
<polygon fill="none" stroke="#000000" points="441,-72.5 441,-102.5 728,-102.5 728,-72.5 441,-72.5"/>
<text text-anchor="start" x="448" y="-83.9" font-family="Arial" font-size="14.00" fill="#000000">label_class    </text>
<text text-anchor="start" x="551.4376" y="-83.9" font-family="Arial" font-size="14.00" fill="#666666">[bigint]</text>
<polygon fill="none" stroke="#000000" points="441,-42.5 441,-72.5 728,-72.5 728,-42.5 441,-42.5"/>
<text text-anchor="start" x="448" y="-53.9" font-family="Arial" font-size="14.00" fill="#000000">label_sortkey    </text>
<text text-anchor="start" x="564.6648" y="-53.9" font-family="Arial" font-size="14.00" fill="#666666">[text]</text>
</g>
<!-- asset.uri_call_number_map&#45;&gt;asset.call_number -->
<g id="edge2" class="edge">
<title>asset.uri_call_number_map:call_number&#45;&gt;asset.call_number:id</title>
<path fill="none" stroke="#000000" d="M600.0009,-604.8361C613.5278,-595.6418 604.0328,-564.827 590,-547 547.8613,-493.4676 483.1387,-564.5324 441,-511 415.2968,-478.3471 399.4444,-417.5 441,-417.5"/>
<polygon fill="#000000" stroke="#000000" points="599.6631,-604.926 588.8417,-603.1516 594.8315,-606.213 590,-607.5 590,-607.5 590,-607.5 594.8315,-606.213 591.1583,-611.8484 599.6631,-604.926 599.6631,-604.926"/>
<text text-anchor="start" x="597.162" y="-617.5" font-family="Arial" font-size="10.00" fill="#000000">FOREIGN KEY (call_number) REFERENCES asset.call_number(id)</text>
</g>
</g>
</svg>
