<?xml version="1.0" encoding="UTF-8" standalone="no"?>
<!DOCTYPE svg PUBLIC "-//W3C//DTD SVG 1.1//EN"
 "http://www.w3.org/Graphics/SVG/1.1/DTD/svg11.dtd">
<!-- Generated by graphviz version 2.40.1 (20161225.0304)
 -->
<!-- Title: asset.active_cns_copies Pages: 1 -->
<svg width="386pt" height="225pt"
 viewBox="0.00 0.00 386.00 225.00" xmlns="http://www.w3.org/2000/svg" xmlns:xlink="http://www.w3.org/1999/xlink">
<g id="graph0" class="graph" transform="scale(1 1) rotate(0) translate(4 221)">
<title>asset.active_cns_copies</title>
<polygon fill="#ffffff" stroke="transparent" points="-4,4 -4,-221 382,-221 382,4 -4,4"/>
<!-- asset.active_cns_copies -->
<g id="node1" class="node">
<title>asset.active_cns_copies</title>
<polygon fill="#efefef" stroke="transparent" points="46,-135.5 46,-170.5 332,-170.5 332,-135.5 46,-135.5"/>
<polygon fill="none" stroke="#000000" points="46,-135.5 46,-170.5 332,-170.5 332,-135.5 46,-135.5"/>
<text text-anchor="start" x="52.5893" y="-148.3" font-family="Arial Bold" font-size="18.00" fill="#000000">asset.active_cns_copies</text>
<text text-anchor="start" x="247.6463" y="-148.3" font-family="Arial" font-size="14.00" fill="#000000">    </text>
<text text-anchor="start" x="281.8511" y="-148.3" font-family="Arial" font-size="14.00" fill="#666666">[VIEW]</text>
<polygon fill="none" stroke="#000000" points="46,-105.5 46,-135.5 332,-135.5 332,-105.5 46,-105.5"/>
<text text-anchor="start" x="53" y="-116.9" font-family="Arial" font-size="14.00" fill="#000000">cn </text>
<text text-anchor="start" x="71.6732" y="-116.9" font-family="Arial" font-size="14.00" fill="#666666">[bigint]</text>
<polygon fill="none" stroke="#000000" points="46,-75.5 46,-105.5 332,-105.5 332,-75.5 46,-75.5"/>
<text text-anchor="start" x="53" y="-86.9" font-family="Arial" font-size="14.00" fill="#000000">cid </text>
<text text-anchor="start" x="74.7798" y="-86.9" font-family="Arial" font-size="14.00" fill="#666666">[bigint]</text>
<polygon fill="none" stroke="#000000" points="46,-45.5 46,-75.5 332,-75.5 332,-45.5 46,-45.5"/>
<text text-anchor="start" x="53" y="-56.9" font-family="Arial" font-size="14.00" fill="#000000">copy_cn </text>
<text text-anchor="start" x="109.021" y="-56.9" font-family="Arial" font-size="14.00" fill="#666666">[bigint]</text>
<polygon fill="none" stroke="#000000" stroke-width="3" points="44.5,-44.5 44.5,-172.5 333.5,-172.5 333.5,-44.5 44.5,-44.5"/>
</g>
</g>
</svg>
