<?xml version="1.0" encoding="UTF-8" standalone="no"?>
<!DOCTYPE svg PUBLIC "-//W3C//DTD SVG 1.1//EN"
 "http://www.w3.org/Graphics/SVG/1.1/DTD/svg11.dtd">
<!-- Generated by graphviz version 2.40.1 (20161225.0304)
 -->
<!-- Title: asset.course_module_course Pages: 1 -->
<svg width="1889pt" height="1319pt"
 viewBox="0.00 0.00 1888.50 1319.00" xmlns="http://www.w3.org/2000/svg" xmlns:xlink="http://www.w3.org/1999/xlink">
<g id="graph0" class="graph" transform="scale(1 1) rotate(0) translate(4 1315)">
<title>asset.course_module_course</title>
<polygon fill="#ffffff" stroke="transparent" points="-4,4 -4,-1315 1884.5,-1315 1884.5,4 -4,4"/>
<!-- asset.course_module_course -->
<g id="node1" class="node">
<title>asset.course_module_course</title>
<polygon fill="#efefef" stroke="transparent" points="633.5,-772.5 633.5,-807.5 1009.5,-807.5 1009.5,-772.5 633.5,-772.5"/>
<polygon fill="none" stroke="#000000" points="633.5,-772.5 633.5,-807.5 1009.5,-807.5 1009.5,-772.5 633.5,-772.5"/>
<text text-anchor="start" x="640.185" y="-785.3" font-family="Arial Bold" font-size="18.00" fill="#000000">asset.course_module_course</text>
<text text-anchor="start" x="875.247" y="-785.3" font-family="Arial" font-size="14.00" fill="#000000">    </text>
<text text-anchor="start" x="909.4518" y="-785.3" font-family="Arial" font-size="14.00" fill="#666666">[BASE TABLE]</text>
<polygon fill="none" stroke="#000000" points="633.5,-742.5 633.5,-772.5 1009.5,-772.5 1009.5,-742.5 633.5,-742.5"/>
<text text-anchor="start" x="640.5" y="-753.9" font-family="Arial" font-size="14.00" fill="#000000">id </text>
<text text-anchor="start" x="655.2798" y="-753.9" font-family="Arial" font-size="14.00" fill="#666666">[integer]</text>
<polygon fill="none" stroke="#000000" points="633.5,-712.5 633.5,-742.5 1009.5,-742.5 1009.5,-712.5 633.5,-712.5"/>
<text text-anchor="start" x="640.5" y="-723.9" font-family="Arial" font-size="14.00" fill="#000000">name </text>
<text text-anchor="start" x="679.399" y="-723.9" font-family="Arial" font-size="14.00" fill="#666666">[text]</text>
<polygon fill="none" stroke="#000000" points="633.5,-682.5 633.5,-712.5 1009.5,-712.5 1009.5,-682.5 633.5,-682.5"/>
<text text-anchor="start" x="640.5" y="-693.9" font-family="Arial" font-size="14.00" fill="#000000">course_number </text>
<text text-anchor="start" x="741.6332" y="-693.9" font-family="Arial" font-size="14.00" fill="#666666">[text]</text>
<polygon fill="none" stroke="#000000" points="633.5,-652.5 633.5,-682.5 1009.5,-682.5 1009.5,-652.5 633.5,-652.5"/>
<text text-anchor="start" x="640.5" y="-663.9" font-family="Arial" font-size="14.00" fill="#000000">section_number </text>
<text text-anchor="start" x="743.9698" y="-663.9" font-family="Arial" font-size="14.00" fill="#666666">[text]</text>
<polygon fill="none" stroke="#000000" points="633.5,-622.5 633.5,-652.5 1009.5,-652.5 1009.5,-622.5 633.5,-622.5"/>
<text text-anchor="start" x="640.5" y="-633.9" font-family="Arial" font-size="14.00" fill="#000000">owning_lib </text>
<text text-anchor="start" x="710.5126" y="-633.9" font-family="Arial" font-size="14.00" fill="#666666">[integer]</text>
<polygon fill="none" stroke="#000000" points="633.5,-592.5 633.5,-622.5 1009.5,-622.5 1009.5,-592.5 633.5,-592.5"/>
<text text-anchor="start" x="640.5" y="-603.9" font-family="Arial" font-size="14.00" fill="#000000">is_archived </text>
<text text-anchor="start" x="715.1774" y="-603.9" font-family="Arial" font-size="14.00" fill="#666666">[boolean]</text>
<polygon fill="none" stroke="#000000" stroke-width="3" points="632,-591.5 632,-809.5 1011,-809.5 1011,-591.5 632,-591.5"/>
</g>
<!-- actor.org_unit -->
<g id="node5" class="node">
<title>actor.org_unit</title>
<polygon fill="#efefef" stroke="transparent" points="695.5,-432.5 695.5,-467.5 946.5,-467.5 946.5,-432.5 695.5,-432.5"/>
<polygon fill="none" stroke="#000000" points="695.5,-432.5 695.5,-467.5 946.5,-467.5 946.5,-432.5 695.5,-432.5"/>
<text text-anchor="start" x="702.2017" y="-445.3" font-family="Arial Bold" font-size="18.00" fill="#000000">actor.org_unit</text>
<text text-anchor="start" x="812.2303" y="-445.3" font-family="Arial" font-size="14.00" fill="#000000">    </text>
<text text-anchor="start" x="846.4351" y="-445.3" font-family="Arial" font-size="14.00" fill="#666666">[BASE TABLE]</text>
<polygon fill="none" stroke="#000000" points="695.5,-402.5 695.5,-432.5 946.5,-432.5 946.5,-402.5 695.5,-402.5"/>
<text text-anchor="start" x="702.5" y="-413.9" font-family="Arial" font-size="14.00" fill="#000000">id    </text>
<text text-anchor="start" x="747.594" y="-413.9" font-family="Arial" font-size="14.00" fill="#666666">[integer]</text>
<polygon fill="none" stroke="#000000" points="695.5,-372.5 695.5,-402.5 946.5,-402.5 946.5,-372.5 695.5,-372.5"/>
<text text-anchor="start" x="702.5" y="-383.9" font-family="Arial" font-size="14.00" fill="#000000">parent_ou    </text>
<text text-anchor="start" x="799.7342" y="-383.9" font-family="Arial" font-size="14.00" fill="#666666">[integer]</text>
<polygon fill="none" stroke="#000000" points="695.5,-342.5 695.5,-372.5 946.5,-372.5 946.5,-342.5 695.5,-342.5"/>
<text text-anchor="start" x="702.5" y="-353.9" font-family="Arial" font-size="14.00" fill="#000000">ou_type    </text>
<text text-anchor="start" x="786.5084" y="-353.9" font-family="Arial" font-size="14.00" fill="#666666">[integer]</text>
<polygon fill="none" stroke="#000000" points="695.5,-312.5 695.5,-342.5 946.5,-342.5 946.5,-312.5 695.5,-312.5"/>
<text text-anchor="start" x="702.5" y="-323.9" font-family="Arial" font-size="14.00" fill="#000000">ill_address    </text>
<text text-anchor="start" x="803.5982" y="-323.9" font-family="Arial" font-size="14.00" fill="#666666">[integer]</text>
<polygon fill="none" stroke="#000000" points="695.5,-282.5 695.5,-312.5 946.5,-312.5 946.5,-282.5 695.5,-282.5"/>
<text text-anchor="start" x="702.5" y="-293.9" font-family="Arial" font-size="14.00" fill="#000000">holds_address    </text>
<text text-anchor="start" x="827.7328" y="-293.9" font-family="Arial" font-size="14.00" fill="#666666">[integer]</text>
<polygon fill="none" stroke="#000000" points="695.5,-252.5 695.5,-282.5 946.5,-282.5 946.5,-252.5 695.5,-252.5"/>
<text text-anchor="start" x="702.5" y="-263.9" font-family="Arial" font-size="14.00" fill="#000000">mailing_address    </text>
<text text-anchor="start" x="838.6066" y="-263.9" font-family="Arial" font-size="14.00" fill="#666666">[integer]</text>
<polygon fill="none" stroke="#000000" points="695.5,-222.5 695.5,-252.5 946.5,-252.5 946.5,-222.5 695.5,-222.5"/>
<text text-anchor="start" x="702.5" y="-233.9" font-family="Arial" font-size="14.00" fill="#000000">billing_address    </text>
<text text-anchor="start" x="830.0526" y="-233.9" font-family="Arial" font-size="14.00" fill="#666666">[integer]</text>
<polygon fill="none" stroke="#000000" points="695.5,-192.5 695.5,-222.5 946.5,-222.5 946.5,-192.5 695.5,-192.5"/>
<text text-anchor="start" x="702.5" y="-203.9" font-family="Arial" font-size="14.00" fill="#000000">shortname    </text>
<text text-anchor="start" x="802.8296" y="-203.9" font-family="Arial" font-size="14.00" fill="#666666">[text]</text>
<polygon fill="none" stroke="#000000" points="695.5,-162.5 695.5,-192.5 946.5,-192.5 946.5,-162.5 695.5,-162.5"/>
<text text-anchor="start" x="702.5" y="-173.9" font-family="Arial" font-size="14.00" fill="#000000">name    </text>
<text text-anchor="start" x="771.7132" y="-173.9" font-family="Arial" font-size="14.00" fill="#666666">[text]</text>
<polygon fill="none" stroke="#000000" points="695.5,-132.5 695.5,-162.5 946.5,-162.5 946.5,-132.5 695.5,-132.5"/>
<text text-anchor="start" x="702.5" y="-143.9" font-family="Arial" font-size="14.00" fill="#000000">email    </text>
<text text-anchor="start" x="770.1438" y="-143.9" font-family="Arial" font-size="14.00" fill="#666666">[text]</text>
<polygon fill="none" stroke="#000000" points="695.5,-102.5 695.5,-132.5 946.5,-132.5 946.5,-102.5 695.5,-102.5"/>
<text text-anchor="start" x="702.5" y="-113.9" font-family="Arial" font-size="14.00" fill="#000000">phone    </text>
<text text-anchor="start" x="775.6178" y="-113.9" font-family="Arial" font-size="14.00" fill="#666666">[text]</text>
<polygon fill="none" stroke="#000000" points="695.5,-72.5 695.5,-102.5 946.5,-102.5 946.5,-72.5 695.5,-72.5"/>
<text text-anchor="start" x="702.5" y="-83.9" font-family="Arial" font-size="14.00" fill="#000000">opac_visible    </text>
<text text-anchor="start" x="813.7202" y="-83.9" font-family="Arial" font-size="14.00" fill="#666666">[boolean]</text>
<polygon fill="none" stroke="#000000" points="695.5,-42.5 695.5,-72.5 946.5,-72.5 946.5,-42.5 695.5,-42.5"/>
<text text-anchor="start" x="702.5" y="-53.9" font-family="Arial" font-size="14.00" fill="#000000">fiscal_calendar    </text>
<text text-anchor="start" x="830.054" y="-53.9" font-family="Arial" font-size="14.00" fill="#666666">[integer]</text>
</g>
<!-- asset.course_module_course&#45;&gt;actor.org_unit -->
<g id="edge4" class="edge">
<title>asset.course_module_course:owning_lib&#45;&gt;actor.org_unit:id</title>
<path fill="none" stroke="#000000" d="M623.5696,-635.9803C595.9176,-626.4281 609.2422,-574.2078 633.5,-547 726.6865,-442.4812 853.3135,-615.5188 946.5,-511 974.1545,-479.9824 988.0556,-417.5 946.5,-417.5"/>
<polygon fill="#000000" stroke="#000000" points="623.6151,-635.9872 632.8192,-641.9482 628.5575,-636.7436 633.5,-637.5 633.5,-637.5 633.5,-637.5 628.5575,-636.7436 634.1808,-633.0518 623.6151,-635.9872 623.6151,-635.9872"/>
<text text-anchor="start" x="352.2715" y="-647.5" font-family="Arial" font-size="10.00" fill="#000000">FOREIGN KEY (owning_lib) REFERENCES actor.org_unit(id)</text>
</g>
<!-- asset.course_module_course_materials -->
<g id="node2" class="node">
<title>asset.course_module_course_materials</title>
<polygon fill="#efefef" stroke="transparent" points="43.5,-1232.5 43.5,-1267.5 502.5,-1267.5 502.5,-1232.5 43.5,-1232.5"/>
<polygon fill="none" stroke="#000000" points="43.5,-1232.5 43.5,-1267.5 502.5,-1267.5 502.5,-1232.5 43.5,-1232.5"/>
<text text-anchor="start" x="50.1851" y="-1245.3" font-family="Arial Bold" font-size="18.00" fill="#000000">asset.course_module_course_materials</text>
<text text-anchor="start" x="368.2469" y="-1245.3" font-family="Arial" font-size="14.00" fill="#000000">    </text>
<text text-anchor="start" x="402.4517" y="-1245.3" font-family="Arial" font-size="14.00" fill="#666666">[BASE TABLE]</text>
<polygon fill="none" stroke="#000000" points="43.5,-1202.5 43.5,-1232.5 502.5,-1232.5 502.5,-1202.5 43.5,-1202.5"/>
<text text-anchor="start" x="50.5" y="-1213.9" font-family="Arial" font-size="14.00" fill="#000000">id    </text>
<text text-anchor="start" x="95.594" y="-1213.9" font-family="Arial" font-size="14.00" fill="#666666">[integer]</text>
<polygon fill="none" stroke="#000000" points="43.5,-1172.5 43.5,-1202.5 502.5,-1202.5 502.5,-1172.5 43.5,-1172.5"/>
<text text-anchor="start" x="50.5" y="-1183.9" font-family="Arial" font-size="14.00" fill="#000000">course    </text>
<text text-anchor="start" x="126.7132" y="-1183.9" font-family="Arial" font-size="14.00" fill="#666666">[integer]</text>
<polygon fill="none" stroke="#000000" points="43.5,-1142.5 43.5,-1172.5 502.5,-1172.5 502.5,-1142.5 43.5,-1142.5"/>
<text text-anchor="start" x="50.5" y="-1153.9" font-family="Arial" font-size="14.00" fill="#000000">item    </text>
<text text-anchor="start" x="111.1452" y="-1153.9" font-family="Arial" font-size="14.00" fill="#666666">[integer]</text>
<polygon fill="none" stroke="#000000" points="43.5,-1112.5 43.5,-1142.5 502.5,-1142.5 502.5,-1112.5 43.5,-1112.5"/>
<text text-anchor="start" x="50.5" y="-1123.9" font-family="Arial" font-size="14.00" fill="#000000">relationship    </text>
<text text-anchor="start" x="156.2714" y="-1123.9" font-family="Arial" font-size="14.00" fill="#666666">[text]</text>
<polygon fill="none" stroke="#000000" points="43.5,-1082.5 43.5,-1112.5 502.5,-1112.5 502.5,-1082.5 43.5,-1082.5"/>
<text text-anchor="start" x="50.5" y="-1093.9" font-family="Arial" font-size="14.00" fill="#000000">record    </text>
<text text-anchor="start" x="124.3738" y="-1093.9" font-family="Arial" font-size="14.00" fill="#666666">[integer]</text>
<polygon fill="none" stroke="#000000" points="43.5,-1052.5 43.5,-1082.5 502.5,-1082.5 502.5,-1052.5 43.5,-1052.5"/>
<text text-anchor="start" x="50.5" y="-1063.9" font-family="Arial" font-size="14.00" fill="#000000">temporary_record    </text>
<text text-anchor="start" x="195.1592" y="-1063.9" font-family="Arial" font-size="14.00" fill="#666666">[boolean]</text>
<polygon fill="none" stroke="#000000" points="43.5,-1022.5 43.5,-1052.5 502.5,-1052.5 502.5,-1022.5 43.5,-1022.5"/>
<text text-anchor="start" x="50.5" y="-1033.9" font-family="Arial" font-size="14.00" fill="#000000">original_location    </text>
<text text-anchor="start" x="185.8324" y="-1033.9" font-family="Arial" font-size="14.00" fill="#666666">[integer]</text>
<polygon fill="none" stroke="#000000" points="43.5,-992.5 43.5,-1022.5 502.5,-1022.5 502.5,-992.5 43.5,-992.5"/>
<text text-anchor="start" x="50.5" y="-1003.9" font-family="Arial" font-size="14.00" fill="#000000">original_status    </text>
<text text-anchor="start" x="174.9446" y="-1003.9" font-family="Arial" font-size="14.00" fill="#666666">[integer]</text>
<polygon fill="none" stroke="#000000" points="43.5,-962.5 43.5,-992.5 502.5,-992.5 502.5,-962.5 43.5,-962.5"/>
<text text-anchor="start" x="50.5" y="-973.9" font-family="Arial" font-size="14.00" fill="#000000">original_circ_modifier    </text>
<text text-anchor="start" x="216.9208" y="-973.9" font-family="Arial" font-size="14.00" fill="#666666">[text]</text>
<polygon fill="none" stroke="#000000" points="43.5,-932.5 43.5,-962.5 502.5,-962.5 502.5,-932.5 43.5,-932.5"/>
<text text-anchor="start" x="50.5" y="-943.9" font-family="Arial" font-size="14.00" fill="#000000">original_callnumber    </text>
<text text-anchor="start" x="206.0456" y="-943.9" font-family="Arial" font-size="14.00" fill="#666666">[integer]</text>
</g>
<!-- asset.course_module_course_materials&#45;&gt;asset.course_module_course -->
<g id="edge1" class="edge">
<title>asset.course_module_course_materials:course&#45;&gt;asset.course_module_course:id</title>
<path fill="none" stroke="#000000" d="M512.5909,-1185.4618C565.5914,-1162.3563 532.4275,-949.4797 554.5,-890 578.3533,-825.7216 564.9384,-757.5 633.5,-757.5"/>
<polygon fill="#000000" stroke="#000000" points="512.302,-1185.52 501.609,-1183.0891 507.401,-1186.51 502.5,-1187.5 502.5,-1187.5 502.5,-1187.5 507.401,-1186.51 503.391,-1191.9109 512.302,-1185.52 512.302,-1185.52"/>
<text text-anchor="start" x="509.152" y="-1197.5" font-family="Arial" font-size="10.00" fill="#000000">FOREIGN KEY (course) REFERENCES asset.course_module_course(id)</text>
</g>
<!-- asset.course_module_course_users -->
<g id="node3" class="node">
<title>asset.course_module_course_users</title>
<polygon fill="#efefef" stroke="transparent" points="606.5,-1142.5 606.5,-1177.5 1036.5,-1177.5 1036.5,-1142.5 606.5,-1142.5"/>
<polygon fill="none" stroke="#000000" points="606.5,-1142.5 606.5,-1177.5 1036.5,-1177.5 1036.5,-1142.5 606.5,-1142.5"/>
<text text-anchor="start" x="613.1796" y="-1155.3" font-family="Arial Bold" font-size="18.00" fill="#000000">asset.course_module_course_users</text>
<text text-anchor="start" x="902.2524" y="-1155.3" font-family="Arial" font-size="14.00" fill="#000000">    </text>
<text text-anchor="start" x="936.4572" y="-1155.3" font-family="Arial" font-size="14.00" fill="#666666">[BASE TABLE]</text>
<polygon fill="none" stroke="#000000" points="606.5,-1112.5 606.5,-1142.5 1036.5,-1142.5 1036.5,-1112.5 606.5,-1112.5"/>
<text text-anchor="start" x="613.5" y="-1123.9" font-family="Arial" font-size="14.00" fill="#000000">id    </text>
<text text-anchor="start" x="658.594" y="-1123.9" font-family="Arial" font-size="14.00" fill="#666666">[integer]</text>
<polygon fill="none" stroke="#000000" points="606.5,-1082.5 606.5,-1112.5 1036.5,-1112.5 1036.5,-1082.5 606.5,-1082.5"/>
<text text-anchor="start" x="613.5" y="-1093.9" font-family="Arial" font-size="14.00" fill="#000000">course    </text>
<text text-anchor="start" x="689.7132" y="-1093.9" font-family="Arial" font-size="14.00" fill="#666666">[integer]</text>
<polygon fill="none" stroke="#000000" points="606.5,-1052.5 606.5,-1082.5 1036.5,-1082.5 1036.5,-1052.5 606.5,-1052.5"/>
<text text-anchor="start" x="613.5" y="-1063.9" font-family="Arial" font-size="14.00" fill="#000000">usr    </text>
<text text-anchor="start" x="667.148" y="-1063.9" font-family="Arial" font-size="14.00" fill="#666666">[integer]</text>
<polygon fill="none" stroke="#000000" points="606.5,-1022.5 606.5,-1052.5 1036.5,-1052.5 1036.5,-1022.5 606.5,-1022.5"/>
<text text-anchor="start" x="613.5" y="-1033.9" font-family="Arial" font-size="14.00" fill="#000000">usr_role    </text>
<text text-anchor="start" x="698.263" y="-1033.9" font-family="Arial" font-size="14.00" fill="#666666">[integer]</text>
</g>
<!-- asset.course_module_course_users&#45;&gt;asset.course_module_course -->
<g id="edge2" class="edge">
<title>asset.course_module_course_users:course&#45;&gt;asset.course_module_course:id</title>
<path fill="none" stroke="#000000" d="M1046.4864,-1095.3288C1109.655,-1066.3721 1081.7406,-757.5 1009.5,-757.5"/>
<polygon fill="#000000" stroke="#000000" points="1046.2717,-1095.3754 1035.5439,-1093.1027 1041.3859,-1096.4377 1036.5,-1097.5 1036.5,-1097.5 1036.5,-1097.5 1041.3859,-1096.4377 1037.4561,-1101.8973 1046.2717,-1095.3754 1046.2717,-1095.3754"/>
<text text-anchor="start" x="873.152" y="-1081.5" font-family="Arial" font-size="10.00" fill="#000000">FOREIGN KEY (course) REFERENCES asset.course_module_course(id)</text>
</g>
<!-- asset.course_module_term_course_map -->
<g id="node4" class="node">
<title>asset.course_module_term_course_map</title>
<polygon fill="#efefef" stroke="transparent" points="1141.5,-1127.5 1141.5,-1162.5 1608.5,-1162.5 1608.5,-1127.5 1141.5,-1127.5"/>
<polygon fill="none" stroke="#000000" points="1141.5,-1127.5 1141.5,-1162.5 1608.5,-1162.5 1608.5,-1127.5 1141.5,-1127.5"/>
<text text-anchor="start" x="1148.1801" y="-1140.3" font-family="Arial Bold" font-size="18.00" fill="#000000">asset.course_module_term_course_map</text>
<text text-anchor="start" x="1474.2519" y="-1140.3" font-family="Arial" font-size="14.00" fill="#000000">    </text>
<text text-anchor="start" x="1508.4567" y="-1140.3" font-family="Arial" font-size="14.00" fill="#666666">[BASE TABLE]</text>
<polygon fill="none" stroke="#000000" points="1141.5,-1097.5 1141.5,-1127.5 1608.5,-1127.5 1608.5,-1097.5 1141.5,-1097.5"/>
<text text-anchor="start" x="1148.5" y="-1108.9" font-family="Arial" font-size="14.00" fill="#000000">id    </text>
<text text-anchor="start" x="1193.594" y="-1108.9" font-family="Arial" font-size="14.00" fill="#666666">[bigint]</text>
<polygon fill="none" stroke="#000000" points="1141.5,-1067.5 1141.5,-1097.5 1608.5,-1097.5 1608.5,-1067.5 1141.5,-1067.5"/>
<text text-anchor="start" x="1148.5" y="-1078.9" font-family="Arial" font-size="14.00" fill="#000000">term    </text>
<text text-anchor="start" x="1210.6992" y="-1078.9" font-family="Arial" font-size="14.00" fill="#666666">[integer]</text>
<polygon fill="none" stroke="#000000" points="1141.5,-1037.5 1141.5,-1067.5 1608.5,-1067.5 1608.5,-1037.5 1141.5,-1037.5"/>
<text text-anchor="start" x="1148.5" y="-1048.9" font-family="Arial" font-size="14.00" fill="#000000">course    </text>
<text text-anchor="start" x="1224.7132" y="-1048.9" font-family="Arial" font-size="14.00" fill="#666666">[integer]</text>
</g>
<!-- asset.course_module_term_course_map&#45;&gt;asset.course_module_course -->
<g id="edge3" class="edge">
<title>asset.course_module_term_course_map:course&#45;&gt;asset.course_module_course:id</title>
<path fill="none" stroke="#000000" d="M1131.2793,-1051.8461C1070.6404,-1043.4427 1118.3891,-955.7856 1088.5,-890 1060.1396,-827.579 1078.0616,-757.5 1009.5,-757.5"/>
<polygon fill="#000000" stroke="#000000" points="1131.5204,-1051.8614 1141.2126,-1056.9908 1136.5102,-1052.1807 1141.5,-1052.5 1141.5,-1052.5 1141.5,-1052.5 1136.5102,-1052.1807 1141.7874,-1048.0092 1131.5204,-1051.8614 1131.5204,-1051.8614"/>
<text text-anchor="start" x="1148.7" y="-1036.5" font-family="Arial" font-size="10.00" fill="#000000">FOREIGN KEY (course) REFERENCES asset.course_module_course(id) ON UPDATE CASCADE ON DELETE CASCADE DEFERRABLE INITIALLY DEFERRED</text>
</g>
</g>
</svg>
