<?xml version="1.0" encoding="UTF-8" standalone="no"?>
<!DOCTYPE svg PUBLIC "-//W3C//DTD SVG 1.1//EN"
 "http://www.w3.org/Graphics/SVG/1.1/DTD/svg11.dtd">
<!-- Generated by graphviz version 2.40.1 (20161225.0304)
 -->
<!-- Title: asset.course_module_course_materials Pages: 1 -->
<svg width="2503pt" height="1582pt"
 viewBox="0.00 0.00 2502.50 1582.00" xmlns="http://www.w3.org/2000/svg" xmlns:xlink="http://www.w3.org/1999/xlink">
<g id="graph0" class="graph" transform="scale(1 1) rotate(0) translate(4 1578)">
<title>asset.course_module_course_materials</title>
<polygon fill="#ffffff" stroke="transparent" points="-4,4 -4,-1578 2498.5,-1578 2498.5,4 -4,4"/>
<!-- asset.course_module_course_materials -->
<g id="node1" class="node">
<title>asset.course_module_course_materials</title>
<polygon fill="#efefef" stroke="transparent" points="1088,-1492.5 1088,-1527.5 1547,-1527.5 1547,-1492.5 1088,-1492.5"/>
<polygon fill="none" stroke="#000000" points="1088,-1492.5 1088,-1527.5 1547,-1527.5 1547,-1492.5 1088,-1492.5"/>
<text text-anchor="start" x="1094.6851" y="-1505.3" font-family="Arial Bold" font-size="18.00" fill="#000000">asset.course_module_course_materials</text>
<text text-anchor="start" x="1412.7469" y="-1505.3" font-family="Arial" font-size="14.00" fill="#000000">    </text>
<text text-anchor="start" x="1446.9517" y="-1505.3" font-family="Arial" font-size="14.00" fill="#666666">[BASE TABLE]</text>
<polygon fill="none" stroke="#000000" points="1088,-1462.5 1088,-1492.5 1547,-1492.5 1547,-1462.5 1088,-1462.5"/>
<text text-anchor="start" x="1095" y="-1473.9" font-family="Arial" font-size="14.00" fill="#000000">id </text>
<text text-anchor="start" x="1109.7798" y="-1473.9" font-family="Arial" font-size="14.00" fill="#666666">[integer]</text>
<polygon fill="none" stroke="#000000" points="1088,-1432.5 1088,-1462.5 1547,-1462.5 1547,-1432.5 1088,-1432.5"/>
<text text-anchor="start" x="1095" y="-1443.9" font-family="Arial" font-size="14.00" fill="#000000">course </text>
<text text-anchor="start" x="1140.899" y="-1443.9" font-family="Arial" font-size="14.00" fill="#666666">[integer]</text>
<polygon fill="none" stroke="#000000" points="1088,-1402.5 1088,-1432.5 1547,-1432.5 1547,-1402.5 1088,-1402.5"/>
<text text-anchor="start" x="1095" y="-1413.9" font-family="Arial" font-size="14.00" fill="#000000">item </text>
<text text-anchor="start" x="1125.331" y="-1413.9" font-family="Arial" font-size="14.00" fill="#666666">[integer]</text>
<polygon fill="none" stroke="#000000" points="1088,-1372.5 1088,-1402.5 1547,-1402.5 1547,-1372.5 1088,-1372.5"/>
<text text-anchor="start" x="1095" y="-1383.9" font-family="Arial" font-size="14.00" fill="#000000">relationship </text>
<text text-anchor="start" x="1170.4572" y="-1383.9" font-family="Arial" font-size="14.00" fill="#666666">[text]</text>
<polygon fill="none" stroke="#000000" points="1088,-1342.5 1088,-1372.5 1547,-1372.5 1547,-1342.5 1088,-1342.5"/>
<text text-anchor="start" x="1095" y="-1353.9" font-family="Arial" font-size="14.00" fill="#000000">record </text>
<text text-anchor="start" x="1138.5596" y="-1353.9" font-family="Arial" font-size="14.00" fill="#666666">[integer]</text>
<polygon fill="none" stroke="#000000" points="1088,-1312.5 1088,-1342.5 1547,-1342.5 1547,-1312.5 1088,-1312.5"/>
<text text-anchor="start" x="1095" y="-1323.9" font-family="Arial" font-size="14.00" fill="#000000">temporary_record </text>
<text text-anchor="start" x="1209.345" y="-1323.9" font-family="Arial" font-size="14.00" fill="#666666">[boolean]</text>
<polygon fill="none" stroke="#000000" points="1088,-1282.5 1088,-1312.5 1547,-1312.5 1547,-1282.5 1088,-1282.5"/>
<text text-anchor="start" x="1095" y="-1293.9" font-family="Arial" font-size="14.00" fill="#000000">original_location </text>
<text text-anchor="start" x="1200.0182" y="-1293.9" font-family="Arial" font-size="14.00" fill="#666666">[integer]</text>
<polygon fill="none" stroke="#000000" points="1088,-1252.5 1088,-1282.5 1547,-1282.5 1547,-1252.5 1088,-1252.5"/>
<text text-anchor="start" x="1095" y="-1263.9" font-family="Arial" font-size="14.00" fill="#000000">original_status </text>
<text text-anchor="start" x="1189.1304" y="-1263.9" font-family="Arial" font-size="14.00" fill="#666666">[integer]</text>
<polygon fill="none" stroke="#000000" points="1088,-1222.5 1088,-1252.5 1547,-1252.5 1547,-1222.5 1088,-1222.5"/>
<text text-anchor="start" x="1095" y="-1233.9" font-family="Arial" font-size="14.00" fill="#000000">original_circ_modifier </text>
<text text-anchor="start" x="1231.1066" y="-1233.9" font-family="Arial" font-size="14.00" fill="#666666">[text]</text>
<polygon fill="none" stroke="#000000" points="1088,-1192.5 1088,-1222.5 1547,-1222.5 1547,-1192.5 1088,-1192.5"/>
<text text-anchor="start" x="1095" y="-1203.9" font-family="Arial" font-size="14.00" fill="#000000">original_callnumber </text>
<text text-anchor="start" x="1220.2314" y="-1203.9" font-family="Arial" font-size="14.00" fill="#666666">[integer]</text>
<polygon fill="none" stroke="#000000" stroke-width="3" points="1086,-1191.5 1086,-1529.5 1548,-1529.5 1548,-1191.5 1086,-1191.5"/>
</g>
<!-- asset.course_module_course -->
<g id="node2" class="node">
<title>asset.course_module_course</title>
<polygon fill="#efefef" stroke="transparent" points="43,-627.5 43,-662.5 419,-662.5 419,-627.5 43,-627.5"/>
<polygon fill="none" stroke="#000000" points="43,-627.5 43,-662.5 419,-662.5 419,-627.5 43,-627.5"/>
<text text-anchor="start" x="49.685" y="-640.3" font-family="Arial Bold" font-size="18.00" fill="#000000">asset.course_module_course</text>
<text text-anchor="start" x="284.747" y="-640.3" font-family="Arial" font-size="14.00" fill="#000000">    </text>
<text text-anchor="start" x="318.9518" y="-640.3" font-family="Arial" font-size="14.00" fill="#666666">[BASE TABLE]</text>
<polygon fill="none" stroke="#000000" points="43,-597.5 43,-627.5 419,-627.5 419,-597.5 43,-597.5"/>
<text text-anchor="start" x="50" y="-608.9" font-family="Arial" font-size="14.00" fill="#000000">id    </text>
<text text-anchor="start" x="95.094" y="-608.9" font-family="Arial" font-size="14.00" fill="#666666">[integer]</text>
<polygon fill="none" stroke="#000000" points="43,-567.5 43,-597.5 419,-597.5 419,-567.5 43,-567.5"/>
<text text-anchor="start" x="50" y="-578.9" font-family="Arial" font-size="14.00" fill="#000000">name    </text>
<text text-anchor="start" x="119.2132" y="-578.9" font-family="Arial" font-size="14.00" fill="#666666">[text]</text>
<polygon fill="none" stroke="#000000" points="43,-537.5 43,-567.5 419,-567.5 419,-537.5 43,-537.5"/>
<text text-anchor="start" x="50" y="-548.9" font-family="Arial" font-size="14.00" fill="#000000">course_number    </text>
<text text-anchor="start" x="181.4474" y="-548.9" font-family="Arial" font-size="14.00" fill="#666666">[text]</text>
<polygon fill="none" stroke="#000000" points="43,-507.5 43,-537.5 419,-537.5 419,-507.5 43,-507.5"/>
<text text-anchor="start" x="50" y="-518.9" font-family="Arial" font-size="14.00" fill="#000000">section_number    </text>
<text text-anchor="start" x="183.784" y="-518.9" font-family="Arial" font-size="14.00" fill="#666666">[text]</text>
<polygon fill="none" stroke="#000000" points="43,-477.5 43,-507.5 419,-507.5 419,-477.5 43,-477.5"/>
<text text-anchor="start" x="50" y="-488.9" font-family="Arial" font-size="14.00" fill="#000000">owning_lib    </text>
<text text-anchor="start" x="150.3268" y="-488.9" font-family="Arial" font-size="14.00" fill="#666666">[integer]</text>
<polygon fill="none" stroke="#000000" points="43,-447.5 43,-477.5 419,-477.5 419,-447.5 43,-447.5"/>
<text text-anchor="start" x="50" y="-458.9" font-family="Arial" font-size="14.00" fill="#000000">is_archived    </text>
<text text-anchor="start" x="154.9916" y="-458.9" font-family="Arial" font-size="14.00" fill="#666666">[boolean]</text>
</g>
<!-- asset.course_module_course_materials&#45;&gt;asset.course_module_course -->
<g id="edge1" class="edge">
<title>asset.course_module_course_materials:course&#45;&gt;asset.course_module_course:id</title>
<path fill="none" stroke="#000000" d="M1077.9963,-1447.4734C772.8174,-1445.834 642.3291,-1368.1501 471,-1111 409.2442,-1018.3098 530.3788,-612.5 419,-612.5"/>
<polygon fill="#000000" stroke="#000000" points="1078,-1447.4733 1087.988,-1452 1083,-1447.4866 1088,-1447.5 1088,-1447.5 1088,-1447.5 1083,-1447.4866 1088.012,-1443 1078,-1447.4733 1078,-1447.4733"/>
<text text-anchor="start" x="754.652" y="-1457.5" font-family="Arial" font-size="10.00" fill="#000000">FOREIGN KEY (course) REFERENCES asset.course_module_course(id)</text>
</g>
<!-- asset.copy -->
<g id="node3" class="node">
<title>asset.copy</title>
<polygon fill="#efefef" stroke="transparent" points="523,-1032.5 523,-1067.5 869,-1067.5 869,-1032.5 523,-1032.5"/>
<polygon fill="none" stroke="#000000" points="523,-1032.5 523,-1067.5 869,-1067.5 869,-1032.5 523,-1032.5"/>
<text text-anchor="start" x="589.2014" y="-1045.3" font-family="Arial Bold" font-size="18.00" fill="#000000">asset.copy</text>
<text text-anchor="start" x="675.2306" y="-1045.3" font-family="Arial" font-size="14.00" fill="#000000">    </text>
<text text-anchor="start" x="709.4354" y="-1045.3" font-family="Arial" font-size="14.00" fill="#666666">[BASE TABLE]</text>
<polygon fill="none" stroke="#000000" points="523,-1002.5 523,-1032.5 869,-1032.5 869,-1002.5 523,-1002.5"/>
<text text-anchor="start" x="530" y="-1013.9" font-family="Arial" font-size="14.00" fill="#000000">id    </text>
<text text-anchor="start" x="575.094" y="-1013.9" font-family="Arial" font-size="14.00" fill="#666666">[bigint]</text>
<polygon fill="none" stroke="#000000" points="523,-972.5 523,-1002.5 869,-1002.5 869,-972.5 523,-972.5"/>
<text text-anchor="start" x="530" y="-983.9" font-family="Arial" font-size="14.00" fill="#000000">circ_lib    </text>
<text text-anchor="start" x="607.7504" y="-983.9" font-family="Arial" font-size="14.00" fill="#666666">[integer]</text>
<polygon fill="none" stroke="#000000" points="523,-942.5 523,-972.5 869,-972.5 869,-942.5 523,-942.5"/>
<text text-anchor="start" x="530" y="-953.9" font-family="Arial" font-size="14.00" fill="#000000">creator    </text>
<text text-anchor="start" x="607.7644" y="-953.9" font-family="Arial" font-size="14.00" fill="#666666">[bigint]</text>
<polygon fill="none" stroke="#000000" points="523,-912.5 523,-942.5 869,-942.5 869,-912.5 523,-912.5"/>
<text text-anchor="start" x="530" y="-923.9" font-family="Arial" font-size="14.00" fill="#000000">call_number    </text>
<text text-anchor="start" x="640.4348" y="-923.9" font-family="Arial" font-size="14.00" fill="#666666">[bigint]</text>
<polygon fill="none" stroke="#000000" points="523,-882.5 523,-912.5 869,-912.5 869,-882.5 523,-882.5"/>
<text text-anchor="start" x="530" y="-893.9" font-family="Arial" font-size="14.00" fill="#000000">editor    </text>
<text text-anchor="start" x="599.2104" y="-893.9" font-family="Arial" font-size="14.00" fill="#666666">[bigint]</text>
<polygon fill="none" stroke="#000000" points="523,-852.5 523,-882.5 869,-882.5 869,-852.5 523,-852.5"/>
<text text-anchor="start" x="530" y="-863.9" font-family="Arial" font-size="14.00" fill="#000000">create_date    </text>
<text text-anchor="start" x="638.1248" y="-863.9" font-family="Arial" font-size="14.00" fill="#666666">[timestamp with time zone]</text>
<polygon fill="none" stroke="#000000" points="523,-822.5 523,-852.5 869,-852.5 869,-822.5 523,-822.5"/>
<text text-anchor="start" x="530" y="-833.9" font-family="Arial" font-size="14.00" fill="#000000">edit_date    </text>
<text text-anchor="start" x="621.7882" y="-833.9" font-family="Arial" font-size="14.00" fill="#666666">[timestamp with time zone]</text>
<polygon fill="none" stroke="#000000" points="523,-792.5 523,-822.5 869,-822.5 869,-792.5 523,-792.5"/>
<text text-anchor="start" x="530" y="-803.9" font-family="Arial" font-size="14.00" fill="#000000">copy_number    </text>
<text text-anchor="start" x="649.0042" y="-803.9" font-family="Arial" font-size="14.00" fill="#666666">[integer]</text>
<polygon fill="none" stroke="#000000" points="523,-762.5 523,-792.5 869,-792.5 869,-762.5 523,-762.5"/>
<text text-anchor="start" x="530" y="-773.9" font-family="Arial" font-size="14.00" fill="#000000">status    </text>
<text text-anchor="start" x="601.5512" y="-773.9" font-family="Arial" font-size="14.00" fill="#666666">[integer]</text>
<polygon fill="none" stroke="#000000" points="523,-732.5 523,-762.5 869,-762.5 869,-732.5 523,-732.5"/>
<text text-anchor="start" x="530" y="-743.9" font-family="Arial" font-size="14.00" fill="#000000">location    </text>
<text text-anchor="start" x="612.439" y="-743.9" font-family="Arial" font-size="14.00" fill="#666666">[integer]</text>
<polygon fill="none" stroke="#000000" points="523,-702.5 523,-732.5 869,-732.5 869,-702.5 523,-702.5"/>
<text text-anchor="start" x="530" y="-713.9" font-family="Arial" font-size="14.00" fill="#000000">loan_duration    </text>
<text text-anchor="start" x="649.0126" y="-713.9" font-family="Arial" font-size="14.00" fill="#666666">[integer]</text>
<polygon fill="none" stroke="#000000" points="523,-672.5 523,-702.5 869,-702.5 869,-672.5 523,-672.5"/>
<text text-anchor="start" x="530" y="-683.9" font-family="Arial" font-size="14.00" fill="#000000">fine_level    </text>
<text text-anchor="start" x="623.3282" y="-683.9" font-family="Arial" font-size="14.00" fill="#666666">[integer]</text>
<polygon fill="none" stroke="#000000" points="523,-642.5 523,-672.5 869,-672.5 869,-642.5 523,-642.5"/>
<text text-anchor="start" x="530" y="-653.9" font-family="Arial" font-size="14.00" fill="#000000">age_protect    </text>
<text text-anchor="start" x="638.1248" y="-653.9" font-family="Arial" font-size="14.00" fill="#666666">[integer]</text>
<polygon fill="none" stroke="#000000" points="523,-612.5 523,-642.5 869,-642.5 869,-612.5 523,-612.5"/>
<text text-anchor="start" x="530" y="-623.9" font-family="Arial" font-size="14.00" fill="#000000">circulate    </text>
<text text-anchor="start" x="616.317" y="-623.9" font-family="Arial" font-size="14.00" fill="#666666">[boolean]</text>
<polygon fill="none" stroke="#000000" points="523,-582.5 523,-612.5 869,-612.5 869,-582.5 523,-582.5"/>
<text text-anchor="start" x="530" y="-593.9" font-family="Arial" font-size="14.00" fill="#000000">deposit    </text>
<text text-anchor="start" x="609.3324" y="-593.9" font-family="Arial" font-size="14.00" fill="#666666">[boolean]</text>
<polygon fill="none" stroke="#000000" points="523,-552.5 523,-582.5 869,-582.5 869,-552.5 523,-552.5"/>
<text text-anchor="start" x="530" y="-563.9" font-family="Arial" font-size="14.00" fill="#000000">ref    </text>
<text text-anchor="start" x="580.5386" y="-563.9" font-family="Arial" font-size="14.00" fill="#666666">[boolean]</text>
<polygon fill="none" stroke="#000000" points="523,-522.5 523,-552.5 869,-552.5 869,-522.5 523,-522.5"/>
<text text-anchor="start" x="530" y="-533.9" font-family="Arial" font-size="14.00" fill="#000000">holdable    </text>
<text text-anchor="start" x="617.1136" y="-533.9" font-family="Arial" font-size="14.00" fill="#666666">[boolean]</text>
<polygon fill="none" stroke="#000000" points="523,-492.5 523,-522.5 869,-522.5 869,-492.5 523,-492.5"/>
<text text-anchor="start" x="530" y="-503.9" font-family="Arial" font-size="14.00" fill="#000000">deposit_amount    </text>
<text text-anchor="start" x="663.7966" y="-503.9" font-family="Arial" font-size="14.00" fill="#666666">[numeric(6,2)]</text>
<polygon fill="none" stroke="#000000" points="523,-462.5 523,-492.5 869,-492.5 869,-462.5 523,-462.5"/>
<text text-anchor="start" x="530" y="-473.9" font-family="Arial" font-size="14.00" fill="#000000">price    </text>
<text text-anchor="start" x="594.5372" y="-473.9" font-family="Arial" font-size="14.00" fill="#666666">[numeric(8,2)]</text>
<polygon fill="none" stroke="#000000" points="523,-432.5 523,-462.5 869,-462.5 869,-432.5 523,-432.5"/>
<text text-anchor="start" x="530" y="-443.9" font-family="Arial" font-size="14.00" fill="#000000">barcode    </text>
<text text-anchor="start" x="614.7784" y="-443.9" font-family="Arial" font-size="14.00" fill="#666666">[text]</text>
<polygon fill="none" stroke="#000000" points="523,-402.5 523,-432.5 869,-432.5 869,-402.5 523,-402.5"/>
<text text-anchor="start" x="530" y="-413.9" font-family="Arial" font-size="14.00" fill="#000000">circ_modifier    </text>
<text text-anchor="start" x="643.5274" y="-413.9" font-family="Arial" font-size="14.00" fill="#666666">[text]</text>
<polygon fill="none" stroke="#000000" points="523,-372.5 523,-402.5 869,-402.5 869,-372.5 523,-372.5"/>
<text text-anchor="start" x="530" y="-383.9" font-family="Arial" font-size="14.00" fill="#000000">circ_as_type    </text>
<text text-anchor="start" x="642.7756" y="-383.9" font-family="Arial" font-size="14.00" fill="#666666">[text]</text>
<polygon fill="none" stroke="#000000" points="523,-342.5 523,-372.5 869,-372.5 869,-342.5 523,-342.5"/>
<text text-anchor="start" x="530" y="-353.9" font-family="Arial" font-size="14.00" fill="#000000">dummy_title    </text>
<text text-anchor="start" x="639.6508" y="-353.9" font-family="Arial" font-size="14.00" fill="#666666">[text]</text>
<polygon fill="none" stroke="#000000" points="523,-312.5 523,-342.5 869,-342.5 869,-312.5 523,-312.5"/>
<text text-anchor="start" x="530" y="-323.9" font-family="Arial" font-size="14.00" fill="#000000">dummy_author    </text>
<text text-anchor="start" x="657.5554" y="-323.9" font-family="Arial" font-size="14.00" fill="#666666">[text]</text>
<polygon fill="none" stroke="#000000" points="523,-282.5 523,-312.5 869,-312.5 869,-282.5 523,-282.5"/>
<text text-anchor="start" x="530" y="-293.9" font-family="Arial" font-size="14.00" fill="#000000">alert_message    </text>
<text text-anchor="start" x="656.0014" y="-293.9" font-family="Arial" font-size="14.00" fill="#666666">[text]</text>
<polygon fill="none" stroke="#000000" points="523,-252.5 523,-282.5 869,-282.5 869,-252.5 523,-252.5"/>
<text text-anchor="start" x="530" y="-263.9" font-family="Arial" font-size="14.00" fill="#000000">opac_visible    </text>
<text text-anchor="start" x="641.2202" y="-263.9" font-family="Arial" font-size="14.00" fill="#666666">[boolean]</text>
<polygon fill="none" stroke="#000000" points="523,-222.5 523,-252.5 869,-252.5 869,-222.5 523,-222.5"/>
<text text-anchor="start" x="530" y="-233.9" font-family="Arial" font-size="14.00" fill="#000000">deleted    </text>
<text text-anchor="start" x="610.115" y="-233.9" font-family="Arial" font-size="14.00" fill="#666666">[boolean]</text>
<polygon fill="none" stroke="#000000" points="523,-192.5 523,-222.5 869,-222.5 869,-192.5 523,-192.5"/>
<text text-anchor="start" x="530" y="-203.9" font-family="Arial" font-size="14.00" fill="#000000">floating    </text>
<text text-anchor="start" x="609.3296" y="-203.9" font-family="Arial" font-size="14.00" fill="#666666">[integer]</text>
<polygon fill="none" stroke="#000000" points="523,-162.5 523,-192.5 869,-192.5 869,-162.5 523,-162.5"/>
<text text-anchor="start" x="530" y="-173.9" font-family="Arial" font-size="14.00" fill="#000000">dummy_isbn    </text>
<text text-anchor="start" x="643.5456" y="-173.9" font-family="Arial" font-size="14.00" fill="#666666">[text]</text>
<polygon fill="none" stroke="#000000" points="523,-132.5 523,-162.5 869,-162.5 869,-132.5 523,-132.5"/>
<text text-anchor="start" x="529.5316" y="-143.9" font-family="Arial" font-size="14.00" fill="#000000">status_changed_time    </text>
<text text-anchor="start" x="696.784" y="-143.9" font-family="Arial" font-size="14.00" fill="#666666">[timestamp with time zone]</text>
<polygon fill="none" stroke="#000000" points="523,-102.5 523,-132.5 869,-132.5 869,-102.5 523,-102.5"/>
<text text-anchor="start" x="530" y="-113.9" font-family="Arial" font-size="14.00" fill="#000000">active_date    </text>
<text text-anchor="start" x="635.7882" y="-113.9" font-family="Arial" font-size="14.00" fill="#666666">[timestamp with time zone]</text>
<polygon fill="none" stroke="#000000" points="523,-72.5 523,-102.5 869,-102.5 869,-72.5 523,-72.5"/>
<text text-anchor="start" x="530" y="-83.9" font-family="Arial" font-size="14.00" fill="#000000">mint_condition    </text>
<text text-anchor="start" x="654.4446" y="-83.9" font-family="Arial" font-size="14.00" fill="#666666">[boolean]</text>
<polygon fill="none" stroke="#000000" points="523,-42.5 523,-72.5 869,-72.5 869,-42.5 523,-42.5"/>
<text text-anchor="start" x="530" y="-53.9" font-family="Arial" font-size="14.00" fill="#000000">cost    </text>
<text text-anchor="start" x="589.878" y="-53.9" font-family="Arial" font-size="14.00" fill="#666666">[numeric(8,2)]</text>
</g>
<!-- asset.course_module_course_materials&#45;&gt;asset.copy -->
<g id="edge2" class="edge">
<title>asset.course_module_course_materials:item&#45;&gt;asset.copy:id</title>
<path fill="none" stroke="#000000" d="M1082.5945,-1408.7734C1049.0687,-1350.2774 871.8885,-1017.5 869,-1017.5"/>
<polygon fill="#000000" stroke="#000000" points="1082.734,-1408.9988 1084.1745,-1419.8697 1085.367,-1413.2494 1088,-1417.5 1088,-1417.5 1088,-1417.5 1085.367,-1413.2494 1091.8255,-1415.1303 1082.734,-1408.9988 1082.734,-1408.9988"/>
<text text-anchor="start" x="848.61" y="-1427.5" font-family="Arial" font-size="10.00" fill="#000000">FOREIGN KEY (item) REFERENCES asset.copy(id)</text>
</g>
<!-- biblio.record_entry -->
<g id="node4" class="node">
<title>biblio.record_entry</title>
<polygon fill="#efefef" stroke="transparent" points="974,-822.5 974,-857.5 1263,-857.5 1263,-822.5 974,-822.5"/>
<polygon fill="none" stroke="#000000" points="974,-822.5 974,-857.5 1263,-857.5 1263,-822.5 974,-822.5"/>
<text text-anchor="start" x="980.7063" y="-835.3" font-family="Arial Bold" font-size="18.00" fill="#000000">biblio.record_entry</text>
<text text-anchor="start" x="1128.7257" y="-835.3" font-family="Arial" font-size="14.00" fill="#000000">    </text>
<text text-anchor="start" x="1162.9305" y="-835.3" font-family="Arial" font-size="14.00" fill="#666666">[BASE TABLE]</text>
<polygon fill="none" stroke="#000000" points="974,-792.5 974,-822.5 1263,-822.5 1263,-792.5 974,-792.5"/>
<text text-anchor="start" x="981" y="-803.9" font-family="Arial" font-size="14.00" fill="#000000">id    </text>
<text text-anchor="start" x="1026.094" y="-803.9" font-family="Arial" font-size="14.00" fill="#666666">[bigint]</text>
<polygon fill="none" stroke="#000000" points="974,-762.5 974,-792.5 1263,-792.5 1263,-762.5 974,-762.5"/>
<text text-anchor="start" x="981" y="-773.9" font-family="Arial" font-size="14.00" fill="#000000">creator    </text>
<text text-anchor="start" x="1058.7644" y="-773.9" font-family="Arial" font-size="14.00" fill="#666666">[integer]</text>
<polygon fill="none" stroke="#000000" points="974,-732.5 974,-762.5 1263,-762.5 1263,-732.5 974,-732.5"/>
<text text-anchor="start" x="981" y="-743.9" font-family="Arial" font-size="14.00" fill="#000000">editor    </text>
<text text-anchor="start" x="1050.2104" y="-743.9" font-family="Arial" font-size="14.00" fill="#666666">[integer]</text>
<polygon fill="none" stroke="#000000" points="974,-702.5 974,-732.5 1263,-732.5 1263,-702.5 974,-702.5"/>
<text text-anchor="start" x="981" y="-713.9" font-family="Arial" font-size="14.00" fill="#000000">source    </text>
<text text-anchor="start" x="1057.2132" y="-713.9" font-family="Arial" font-size="14.00" fill="#666666">[integer]</text>
<polygon fill="none" stroke="#000000" points="974,-672.5 974,-702.5 1263,-702.5 1263,-672.5 974,-672.5"/>
<text text-anchor="start" x="981" y="-683.9" font-family="Arial" font-size="14.00" fill="#000000">quality    </text>
<text text-anchor="start" x="1055.6564" y="-683.9" font-family="Arial" font-size="14.00" fill="#666666">[integer]</text>
<polygon fill="none" stroke="#000000" points="974,-642.5 974,-672.5 1263,-672.5 1263,-642.5 974,-642.5"/>
<text text-anchor="start" x="981" y="-653.9" font-family="Arial" font-size="14.00" fill="#000000">create_date    </text>
<text text-anchor="start" x="1089.1248" y="-653.9" font-family="Arial" font-size="14.00" fill="#666666">[timestamp with time zone]</text>
<polygon fill="none" stroke="#000000" points="974,-612.5 974,-642.5 1263,-642.5 1263,-612.5 974,-612.5"/>
<text text-anchor="start" x="981" y="-623.9" font-family="Arial" font-size="14.00" fill="#000000">edit_date    </text>
<text text-anchor="start" x="1072.7882" y="-623.9" font-family="Arial" font-size="14.00" fill="#666666">[timestamp with time zone]</text>
<polygon fill="none" stroke="#000000" points="974,-582.5 974,-612.5 1263,-612.5 1263,-582.5 974,-582.5"/>
<text text-anchor="start" x="981" y="-593.9" font-family="Arial" font-size="14.00" fill="#000000">active    </text>
<text text-anchor="start" x="1051.7672" y="-593.9" font-family="Arial" font-size="14.00" fill="#666666">[boolean]</text>
<polygon fill="none" stroke="#000000" points="974,-552.5 974,-582.5 1263,-582.5 1263,-552.5 974,-552.5"/>
<text text-anchor="start" x="981" y="-563.9" font-family="Arial" font-size="14.00" fill="#000000">deleted    </text>
<text text-anchor="start" x="1061.115" y="-563.9" font-family="Arial" font-size="14.00" fill="#666666">[boolean]</text>
<polygon fill="none" stroke="#000000" points="974,-522.5 974,-552.5 1263,-552.5 1263,-522.5 974,-522.5"/>
<text text-anchor="start" x="981" y="-533.9" font-family="Arial" font-size="14.00" fill="#000000">fingerprint    </text>
<text text-anchor="start" x="1077.4334" y="-533.9" font-family="Arial" font-size="14.00" fill="#666666">[text]</text>
<polygon fill="none" stroke="#000000" points="974,-492.5 974,-522.5 1263,-522.5 1263,-492.5 974,-492.5"/>
<text text-anchor="start" x="981" y="-503.9" font-family="Arial" font-size="14.00" fill="#000000">tcn_source    </text>
<text text-anchor="start" x="1083.669" y="-503.9" font-family="Arial" font-size="14.00" fill="#666666">[text]</text>
<polygon fill="none" stroke="#000000" points="974,-462.5 974,-492.5 1263,-492.5 1263,-462.5 974,-462.5"/>
<text text-anchor="start" x="981" y="-473.9" font-family="Arial" font-size="14.00" fill="#000000">tcn_value    </text>
<text text-anchor="start" x="1075.115" y="-473.9" font-family="Arial" font-size="14.00" fill="#666666">[text]</text>
<polygon fill="none" stroke="#000000" points="974,-432.5 974,-462.5 1263,-462.5 1263,-432.5 974,-432.5"/>
<text text-anchor="start" x="981" y="-443.9" font-family="Arial" font-size="14.00" fill="#000000">marc    </text>
<text text-anchor="start" x="1046.3086" y="-443.9" font-family="Arial" font-size="14.00" fill="#666666">[text]</text>
<polygon fill="none" stroke="#000000" points="974,-402.5 974,-432.5 1263,-432.5 1263,-402.5 974,-402.5"/>
<text text-anchor="start" x="981" y="-413.9" font-family="Arial" font-size="14.00" fill="#000000">last_xact_id    </text>
<text text-anchor="start" x="1089.1122" y="-413.9" font-family="Arial" font-size="14.00" fill="#666666">[text]</text>
<polygon fill="none" stroke="#000000" points="974,-372.5 974,-402.5 1263,-402.5 1263,-372.5 974,-372.5"/>
<text text-anchor="start" x="981" y="-383.9" font-family="Arial" font-size="14.00" fill="#000000">vis_attr_vector    </text>
<text text-anchor="start" x="1106.2174" y="-383.9" font-family="Arial" font-size="14.00" fill="#666666">[integer[]]</text>
<polygon fill="none" stroke="#000000" points="974,-342.5 974,-372.5 1263,-372.5 1263,-342.5 974,-342.5"/>
<text text-anchor="start" x="981" y="-353.9" font-family="Arial" font-size="14.00" fill="#000000">owner    </text>
<text text-anchor="start" x="1053.3198" y="-353.9" font-family="Arial" font-size="14.00" fill="#666666">[integer]</text>
<polygon fill="none" stroke="#000000" points="974,-312.5 974,-342.5 1263,-342.5 1263,-312.5 974,-312.5"/>
<text text-anchor="start" x="981" y="-323.9" font-family="Arial" font-size="14.00" fill="#000000">share_depth    </text>
<text text-anchor="start" x="1093.0168" y="-323.9" font-family="Arial" font-size="14.00" fill="#666666">[integer]</text>
<polygon fill="none" stroke="#000000" points="974,-282.5 974,-312.5 1263,-312.5 1263,-282.5 974,-282.5"/>
<text text-anchor="start" x="981" y="-293.9" font-family="Arial" font-size="14.00" fill="#000000">merge_date    </text>
<text text-anchor="start" x="1089.8948" y="-293.9" font-family="Arial" font-size="14.00" fill="#666666">[timestamp with time zone]</text>
<polygon fill="none" stroke="#000000" points="974,-252.5 974,-282.5 1263,-282.5 1263,-252.5 974,-252.5"/>
<text text-anchor="start" x="981" y="-263.9" font-family="Arial" font-size="14.00" fill="#000000">merged_to    </text>
<text text-anchor="start" x="1082.1122" y="-263.9" font-family="Arial" font-size="14.00" fill="#666666">[bigint]</text>
</g>
<!-- asset.course_module_course_materials&#45;&gt;biblio.record_entry -->
<g id="edge3" class="edge">
<title>asset.course_module_course_materials:record&#45;&gt;biblio.record_entry:id</title>
<path fill="none" stroke="#000000" d="M1077.751,-1356.9535C999.4737,-1348.0664 1060.6467,-1232.6387 1088,-1147 1128.8244,-1019.1856 1222.1756,-1028.8144 1263,-901 1275.6437,-861.4146 1304.5556,-807.5 1263,-807.5"/>
<polygon fill="#000000" stroke="#000000" points="1078.0142,-1356.9675 1087.7604,-1361.9936 1083.0071,-1357.2337 1088,-1357.5 1088,-1357.5 1088,-1357.5 1083.0071,-1357.2337 1088.2396,-1353.0064 1078.0142,-1356.9675 1078.0142,-1356.9675"/>
<text text-anchor="start" x="804.666" y="-1367.5" font-family="Arial" font-size="10.00" fill="#000000">FOREIGN KEY (record) REFERENCES biblio.record_entry(id)</text>
</g>
<!-- asset.copy_location -->
<g id="node5" class="node">
<title>asset.copy_location</title>
<polygon fill="#efefef" stroke="transparent" points="1367,-717.5 1367,-752.5 1666,-752.5 1666,-717.5 1367,-717.5"/>
<polygon fill="none" stroke="#000000" points="1367,-717.5 1367,-752.5 1666,-752.5 1666,-717.5 1367,-717.5"/>
<text text-anchor="start" x="1373.6906" y="-730.3" font-family="Arial Bold" font-size="18.00" fill="#000000">asset.copy_location</text>
<text text-anchor="start" x="1531.7414" y="-730.3" font-family="Arial" font-size="14.00" fill="#000000">    </text>
<text text-anchor="start" x="1565.9462" y="-730.3" font-family="Arial" font-size="14.00" fill="#666666">[BASE TABLE]</text>
<polygon fill="none" stroke="#000000" points="1367,-687.5 1367,-717.5 1666,-717.5 1666,-687.5 1367,-687.5"/>
<text text-anchor="start" x="1374" y="-698.9" font-family="Arial" font-size="14.00" fill="#000000">id    </text>
<text text-anchor="start" x="1419.094" y="-698.9" font-family="Arial" font-size="14.00" fill="#666666">[integer]</text>
<polygon fill="none" stroke="#000000" points="1367,-657.5 1367,-687.5 1666,-687.5 1666,-657.5 1367,-657.5"/>
<text text-anchor="start" x="1374" y="-668.9" font-family="Arial" font-size="14.00" fill="#000000">name    </text>
<text text-anchor="start" x="1443.2132" y="-668.9" font-family="Arial" font-size="14.00" fill="#666666">[text]</text>
<polygon fill="none" stroke="#000000" points="1367,-627.5 1367,-657.5 1666,-657.5 1666,-627.5 1367,-627.5"/>
<text text-anchor="start" x="1374" y="-638.9" font-family="Arial" font-size="14.00" fill="#000000">owning_lib    </text>
<text text-anchor="start" x="1474.3268" y="-638.9" font-family="Arial" font-size="14.00" fill="#666666">[integer]</text>
<polygon fill="none" stroke="#000000" points="1367,-597.5 1367,-627.5 1666,-627.5 1666,-597.5 1367,-597.5"/>
<text text-anchor="start" x="1374" y="-608.9" font-family="Arial" font-size="14.00" fill="#000000">holdable    </text>
<text text-anchor="start" x="1461.1136" y="-608.9" font-family="Arial" font-size="14.00" fill="#666666">[boolean]</text>
<polygon fill="none" stroke="#000000" points="1367,-567.5 1367,-597.5 1666,-597.5 1666,-567.5 1367,-567.5"/>
<text text-anchor="start" x="1374" y="-578.9" font-family="Arial" font-size="14.00" fill="#000000">hold_verify    </text>
<text text-anchor="start" x="1475.8822" y="-578.9" font-family="Arial" font-size="14.00" fill="#666666">[boolean]</text>
<polygon fill="none" stroke="#000000" points="1367,-537.5 1367,-567.5 1666,-567.5 1666,-537.5 1367,-537.5"/>
<text text-anchor="start" x="1374" y="-548.9" font-family="Arial" font-size="14.00" fill="#000000">opac_visible    </text>
<text text-anchor="start" x="1485.2202" y="-548.9" font-family="Arial" font-size="14.00" fill="#666666">[boolean]</text>
<polygon fill="none" stroke="#000000" points="1367,-507.5 1367,-537.5 1666,-537.5 1666,-507.5 1367,-507.5"/>
<text text-anchor="start" x="1374" y="-518.9" font-family="Arial" font-size="14.00" fill="#000000">circulate    </text>
<text text-anchor="start" x="1460.317" y="-518.9" font-family="Arial" font-size="14.00" fill="#666666">[boolean]</text>
<polygon fill="none" stroke="#000000" points="1367,-477.5 1367,-507.5 1666,-507.5 1666,-477.5 1367,-477.5"/>
<text text-anchor="start" x="1374" y="-488.9" font-family="Arial" font-size="14.00" fill="#000000">label_prefix    </text>
<text text-anchor="start" x="1479.7714" y="-488.9" font-family="Arial" font-size="14.00" fill="#666666">[text]</text>
<polygon fill="none" stroke="#000000" points="1367,-447.5 1367,-477.5 1666,-477.5 1666,-447.5 1367,-447.5"/>
<text text-anchor="start" x="1374" y="-458.9" font-family="Arial" font-size="14.00" fill="#000000">label_suffix    </text>
<text text-anchor="start" x="1478.2188" y="-458.9" font-family="Arial" font-size="14.00" fill="#666666">[text]</text>
<polygon fill="none" stroke="#000000" points="1367,-417.5 1367,-447.5 1666,-447.5 1666,-417.5 1367,-417.5"/>
<text text-anchor="start" x="1374" y="-428.9" font-family="Arial" font-size="14.00" fill="#000000">checkin_alert    </text>
<text text-anchor="start" x="1490.6648" y="-428.9" font-family="Arial" font-size="14.00" fill="#666666">[boolean]</text>
<polygon fill="none" stroke="#000000" points="1367,-387.5 1367,-417.5 1666,-417.5 1666,-387.5 1367,-387.5"/>
<text text-anchor="start" x="1374" y="-398.9" font-family="Arial" font-size="14.00" fill="#000000">deleted    </text>
<text text-anchor="start" x="1454.115" y="-398.9" font-family="Arial" font-size="14.00" fill="#666666">[boolean]</text>
<polygon fill="none" stroke="#000000" points="1367,-357.5 1367,-387.5 1666,-387.5 1666,-357.5 1367,-357.5"/>
<text text-anchor="start" x="1374" y="-368.9" font-family="Arial" font-size="14.00" fill="#000000">url    </text>
<text text-anchor="start" x="1423.7546" y="-368.9" font-family="Arial" font-size="14.00" fill="#666666">[text]</text>
</g>
<!-- asset.course_module_course_materials&#45;&gt;asset.copy_location -->
<g id="edge4" class="edge">
<title>asset.course_module_course_materials:original_location&#45;&gt;asset.copy_location:id</title>
<path fill="none" stroke="#000000" d="M1557.2574,-1296.6966C1608.204,-1287.8824 1561.8106,-1208.3375 1547,-1147 1521.9865,-1043.4076 1260.4305,-702.5 1367,-702.5"/>
<polygon fill="#000000" stroke="#000000" points="1556.9695,-1296.719 1546.6486,-1293.0137 1551.9847,-1297.1095 1547,-1297.5 1547,-1297.5 1547,-1297.5 1551.9847,-1297.1095 1547.3514,-1301.9863 1556.9695,-1296.719 1556.9695,-1296.719"/>
<text text-anchor="start" x="1553.93" y="-1307.5" font-family="Arial" font-size="10.00" fill="#000000">FOREIGN KEY (original_location) REFERENCES asset.copy_location(id)</text>
</g>
<!-- config.copy_status -->
<g id="node6" class="node">
<title>config.copy_status</title>
<polygon fill="#efefef" stroke="transparent" points="1770,-657.5 1770,-692.5 2060,-692.5 2060,-657.5 1770,-657.5"/>
<polygon fill="none" stroke="#000000" points="1770,-657.5 1770,-692.5 2060,-692.5 2060,-657.5 1770,-657.5"/>
<text text-anchor="start" x="1776.6897" y="-670.3" font-family="Arial Bold" font-size="18.00" fill="#000000">config.copy_status</text>
<text text-anchor="start" x="1925.7423" y="-670.3" font-family="Arial" font-size="14.00" fill="#000000">    </text>
<text text-anchor="start" x="1959.9471" y="-670.3" font-family="Arial" font-size="14.00" fill="#666666">[BASE TABLE]</text>
<polygon fill="none" stroke="#000000" points="1770,-627.5 1770,-657.5 2060,-657.5 2060,-627.5 1770,-627.5"/>
<text text-anchor="start" x="1777" y="-638.9" font-family="Arial" font-size="14.00" fill="#000000">id    </text>
<text text-anchor="start" x="1822.094" y="-638.9" font-family="Arial" font-size="14.00" fill="#666666">[integer]</text>
<polygon fill="none" stroke="#000000" points="1770,-597.5 1770,-627.5 2060,-627.5 2060,-597.5 1770,-597.5"/>
<text text-anchor="start" x="1777" y="-608.9" font-family="Arial" font-size="14.00" fill="#000000">name    </text>
<text text-anchor="start" x="1846.2132" y="-608.9" font-family="Arial" font-size="14.00" fill="#666666">[text]</text>
<polygon fill="none" stroke="#000000" points="1770,-567.5 1770,-597.5 2060,-597.5 2060,-567.5 1770,-567.5"/>
<text text-anchor="start" x="1777" y="-578.9" font-family="Arial" font-size="14.00" fill="#000000">holdable    </text>
<text text-anchor="start" x="1864.1136" y="-578.9" font-family="Arial" font-size="14.00" fill="#666666">[boolean]</text>
<polygon fill="none" stroke="#000000" points="1770,-537.5 1770,-567.5 2060,-567.5 2060,-537.5 1770,-537.5"/>
<text text-anchor="start" x="1777" y="-548.9" font-family="Arial" font-size="14.00" fill="#000000">opac_visible    </text>
<text text-anchor="start" x="1888.2202" y="-548.9" font-family="Arial" font-size="14.00" fill="#666666">[boolean]</text>
<polygon fill="none" stroke="#000000" points="1770,-507.5 1770,-537.5 2060,-537.5 2060,-507.5 1770,-507.5"/>
<text text-anchor="start" x="1777" y="-518.9" font-family="Arial" font-size="14.00" fill="#000000">copy_active    </text>
<text text-anchor="start" x="1885.115" y="-518.9" font-family="Arial" font-size="14.00" fill="#666666">[boolean]</text>
<polygon fill="none" stroke="#000000" points="1770,-477.5 1770,-507.5 2060,-507.5 2060,-477.5 1770,-477.5"/>
<text text-anchor="start" x="1777" y="-488.9" font-family="Arial" font-size="14.00" fill="#000000">restrict_copy_delete    </text>
<text text-anchor="start" x="1936.4544" y="-488.9" font-family="Arial" font-size="14.00" fill="#666666">[boolean]</text>
<polygon fill="none" stroke="#000000" points="1770,-447.5 1770,-477.5 2060,-477.5 2060,-447.5 1770,-447.5"/>
<text text-anchor="start" x="1777" y="-458.9" font-family="Arial" font-size="14.00" fill="#000000">is_available    </text>
<text text-anchor="start" x="1884.3268" y="-458.9" font-family="Arial" font-size="14.00" fill="#666666">[boolean]</text>
<polygon fill="none" stroke="#000000" points="1770,-417.5 1770,-447.5 2060,-447.5 2060,-417.5 1770,-417.5"/>
<text text-anchor="start" x="1777" y="-428.9" font-family="Arial" font-size="14.00" fill="#000000">hopeless_prone    </text>
<text text-anchor="start" x="1910.798" y="-428.9" font-family="Arial" font-size="14.00" fill="#666666">[boolean]</text>
</g>
<!-- asset.course_module_course_materials&#45;&gt;config.copy_status -->
<g id="edge5" class="edge">
<title>asset.course_module_course_materials:original_status&#45;&gt;config.copy_status:id</title>
<path fill="none" stroke="#000000" d="M1557.2819,-1267.2749C1651.5105,-1263.0487 1672.9284,-1199.7094 1718,-1111 1765.4486,-1017.6122 1665.2496,-642.5 1770,-642.5"/>
<polygon fill="#000000" stroke="#000000" points="1556.9976,-1267.281 1546.9015,-1263.0011 1551.9988,-1267.3905 1547,-1267.5 1547,-1267.5 1547,-1267.5 1551.9988,-1267.3905 1547.0985,-1271.9989 1556.9976,-1267.281 1556.9976,-1267.281"/>
<text text-anchor="start" x="1554.318" y="-1277.5" font-family="Arial" font-size="10.00" fill="#000000">FOREIGN KEY (original_status) REFERENCES config.copy_status(id)</text>
</g>
<!-- asset.call_number -->
<g id="node7" class="node">
<title>asset.call_number</title>
<polygon fill="#efefef" stroke="transparent" points="2165,-732.5 2165,-767.5 2452,-767.5 2452,-732.5 2165,-732.5"/>
<polygon fill="none" stroke="#000000" points="2165,-732.5 2165,-767.5 2452,-767.5 2452,-732.5 2165,-732.5"/>
<text text-anchor="start" x="2171.7026" y="-745.3" font-family="Arial Bold" font-size="18.00" fill="#000000">asset.call_number</text>
<text text-anchor="start" x="2317.7294" y="-745.3" font-family="Arial" font-size="14.00" fill="#000000">    </text>
<text text-anchor="start" x="2351.9342" y="-745.3" font-family="Arial" font-size="14.00" fill="#666666">[BASE TABLE]</text>
<polygon fill="none" stroke="#000000" points="2165,-702.5 2165,-732.5 2452,-732.5 2452,-702.5 2165,-702.5"/>
<text text-anchor="start" x="2172" y="-713.9" font-family="Arial" font-size="14.00" fill="#000000">id    </text>
<text text-anchor="start" x="2217.094" y="-713.9" font-family="Arial" font-size="14.00" fill="#666666">[bigint]</text>
<polygon fill="none" stroke="#000000" points="2165,-672.5 2165,-702.5 2452,-702.5 2452,-672.5 2165,-672.5"/>
<text text-anchor="start" x="2172" y="-683.9" font-family="Arial" font-size="14.00" fill="#000000">creator    </text>
<text text-anchor="start" x="2249.7644" y="-683.9" font-family="Arial" font-size="14.00" fill="#666666">[bigint]</text>
<polygon fill="none" stroke="#000000" points="2165,-642.5 2165,-672.5 2452,-672.5 2452,-642.5 2165,-642.5"/>
<text text-anchor="start" x="2171.5954" y="-653.9" font-family="Arial" font-size="14.00" fill="#000000">create_date    </text>
<text text-anchor="start" x="2279.7202" y="-653.9" font-family="Arial" font-size="14.00" fill="#666666">[timestamp with time zone]</text>
<polygon fill="none" stroke="#000000" points="2165,-612.5 2165,-642.5 2452,-642.5 2452,-612.5 2165,-612.5"/>
<text text-anchor="start" x="2172" y="-623.9" font-family="Arial" font-size="14.00" fill="#000000">editor    </text>
<text text-anchor="start" x="2241.2104" y="-623.9" font-family="Arial" font-size="14.00" fill="#666666">[bigint]</text>
<polygon fill="none" stroke="#000000" points="2165,-582.5 2165,-612.5 2452,-612.5 2452,-582.5 2165,-582.5"/>
<text text-anchor="start" x="2172" y="-593.9" font-family="Arial" font-size="14.00" fill="#000000">edit_date    </text>
<text text-anchor="start" x="2263.7882" y="-593.9" font-family="Arial" font-size="14.00" fill="#666666">[timestamp with time zone]</text>
<polygon fill="none" stroke="#000000" points="2165,-552.5 2165,-582.5 2452,-582.5 2452,-552.5 2165,-552.5"/>
<text text-anchor="start" x="2172" y="-563.9" font-family="Arial" font-size="14.00" fill="#000000">record    </text>
<text text-anchor="start" x="2245.8738" y="-563.9" font-family="Arial" font-size="14.00" fill="#666666">[bigint]</text>
<polygon fill="none" stroke="#000000" points="2165,-522.5 2165,-552.5 2452,-552.5 2452,-522.5 2165,-522.5"/>
<text text-anchor="start" x="2172" y="-533.9" font-family="Arial" font-size="14.00" fill="#000000">owning_lib    </text>
<text text-anchor="start" x="2272.3268" y="-533.9" font-family="Arial" font-size="14.00" fill="#666666">[integer]</text>
<polygon fill="none" stroke="#000000" points="2165,-492.5 2165,-522.5 2452,-522.5 2452,-492.5 2165,-492.5"/>
<text text-anchor="start" x="2172" y="-503.9" font-family="Arial" font-size="14.00" fill="#000000">label    </text>
<text text-anchor="start" x="2235.7658" y="-503.9" font-family="Arial" font-size="14.00" fill="#666666">[text]</text>
<polygon fill="none" stroke="#000000" points="2165,-462.5 2165,-492.5 2452,-492.5 2452,-462.5 2165,-462.5"/>
<text text-anchor="start" x="2172" y="-473.9" font-family="Arial" font-size="14.00" fill="#000000">deleted    </text>
<text text-anchor="start" x="2252.115" y="-473.9" font-family="Arial" font-size="14.00" fill="#666666">[boolean]</text>
<polygon fill="none" stroke="#000000" points="2165,-432.5 2165,-462.5 2452,-462.5 2452,-432.5 2165,-432.5"/>
<text text-anchor="start" x="2172" y="-443.9" font-family="Arial" font-size="14.00" fill="#000000">prefix    </text>
<text text-anchor="start" x="2240.4278" y="-443.9" font-family="Arial" font-size="14.00" fill="#666666">[integer]</text>
<polygon fill="none" stroke="#000000" points="2165,-402.5 2165,-432.5 2452,-432.5 2452,-402.5 2165,-402.5"/>
<text text-anchor="start" x="2172" y="-413.9" font-family="Arial" font-size="14.00" fill="#000000">suffix    </text>
<text text-anchor="start" x="2238.8752" y="-413.9" font-family="Arial" font-size="14.00" fill="#666666">[integer]</text>
<polygon fill="none" stroke="#000000" points="2165,-372.5 2165,-402.5 2452,-402.5 2452,-372.5 2165,-372.5"/>
<text text-anchor="start" x="2172" y="-383.9" font-family="Arial" font-size="14.00" fill="#000000">label_class    </text>
<text text-anchor="start" x="2275.4376" y="-383.9" font-family="Arial" font-size="14.00" fill="#666666">[bigint]</text>
<polygon fill="none" stroke="#000000" points="2165,-342.5 2165,-372.5 2452,-372.5 2452,-342.5 2165,-342.5"/>
<text text-anchor="start" x="2172" y="-353.9" font-family="Arial" font-size="14.00" fill="#000000">label_sortkey    </text>
<text text-anchor="start" x="2288.6648" y="-353.9" font-family="Arial" font-size="14.00" fill="#666666">[text]</text>
</g>
<!-- asset.course_module_course_materials&#45;&gt;asset.call_number -->
<g id="edge6" class="edge">
<title>asset.course_module_course_materials:original_callnumber&#45;&gt;asset.call_number:id</title>
<path fill="none" stroke="#000000" d="M1557.1233,-1207.4893C1691.9365,-1207.1973 2025.7821,-1200.3147 2112,-1111 2173.2806,-1047.5183 2076.766,-717.5 2165,-717.5"/>
<polygon fill="#000000" stroke="#000000" points="1557,-1207.4893 1546.9952,-1203 1552,-1207.4946 1547,-1207.5 1547,-1207.5 1547,-1207.5 1552,-1207.4946 1547.0048,-1212 1557,-1207.4893 1557,-1207.4893"/>
<text text-anchor="start" x="1554.051" y="-1217.5" font-family="Arial" font-size="10.00" fill="#000000">FOREIGN KEY (original_callnumber) REFERENCES asset.call_number(id)</text>
</g>
</g>
</svg>
