<?xml version="1.0" encoding="UTF-8" standalone="no"?>
<!DOCTYPE svg PUBLIC "-//W3C//DTD SVG 1.1//EN"
 "http://www.w3.org/Graphics/SVG/1.1/DTD/svg11.dtd">
<!-- Generated by graphviz version 2.40.1 (20161225.0304)
 -->
<!-- Title: asset.uri Pages: 1 -->
<svg width="1033pt" height="832pt"
 viewBox="0.00 0.00 1033.00 832.00" xmlns="http://www.w3.org/2000/svg" xmlns:xlink="http://www.w3.org/1999/xlink">
<g id="graph0" class="graph" transform="scale(1 1) rotate(0) translate(4 828)">
<title>asset.uri</title>
<polygon fill="#ffffff" stroke="transparent" points="-4,4 -4,-828 1029,-828 1029,4 -4,4"/>
<!-- asset.uri -->
<g id="node1" class="node">
<title>asset.uri</title>
<polygon fill="#efefef" stroke="transparent" points="338,-195.5 338,-230.5 547,-230.5 547,-195.5 338,-195.5"/>
<polygon fill="none" stroke="#000000" points="338,-195.5 338,-230.5 547,-230.5 547,-195.5 338,-195.5"/>
<text text-anchor="start" x="344.7113" y="-208.3" font-family="Arial Bold" font-size="18.00" fill="#000000">asset.uri</text>
<text text-anchor="start" x="412.7207" y="-208.3" font-family="Arial" font-size="14.00" fill="#000000">    </text>
<text text-anchor="start" x="446.9255" y="-208.3" font-family="Arial" font-size="14.00" fill="#666666">[BASE TABLE]</text>
<polygon fill="none" stroke="#000000" points="338,-165.5 338,-195.5 547,-195.5 547,-165.5 338,-165.5"/>
<text text-anchor="start" x="345" y="-176.9" font-family="Arial" font-size="14.00" fill="#000000">id </text>
<text text-anchor="start" x="359.7798" y="-176.9" font-family="Arial" font-size="14.00" fill="#666666">[integer]</text>
<polygon fill="none" stroke="#000000" points="338,-135.5 338,-165.5 547,-165.5 547,-135.5 338,-135.5"/>
<text text-anchor="start" x="345" y="-146.9" font-family="Arial" font-size="14.00" fill="#000000">href </text>
<text text-anchor="start" x="373.007" y="-146.9" font-family="Arial" font-size="14.00" fill="#666666">[text]</text>
<polygon fill="none" stroke="#000000" points="338,-105.5 338,-135.5 547,-135.5 547,-105.5 338,-105.5"/>
<text text-anchor="start" x="345" y="-116.9" font-family="Arial" font-size="14.00" fill="#000000">label </text>
<text text-anchor="start" x="378.4516" y="-116.9" font-family="Arial" font-size="14.00" fill="#666666">[text]</text>
<polygon fill="none" stroke="#000000" points="338,-75.5 338,-105.5 547,-105.5 547,-75.5 338,-75.5"/>
<text text-anchor="start" x="345" y="-86.9" font-family="Arial" font-size="14.00" fill="#000000">use_restriction </text>
<text text-anchor="start" x="439.9018" y="-86.9" font-family="Arial" font-size="14.00" fill="#666666">[text]</text>
<polygon fill="none" stroke="#000000" points="338,-45.5 338,-75.5 547,-75.5 547,-45.5 338,-45.5"/>
<text text-anchor="start" x="345" y="-56.9" font-family="Arial" font-size="14.00" fill="#000000">active </text>
<text text-anchor="start" x="385.453" y="-56.9" font-family="Arial" font-size="14.00" fill="#666666">[boolean]</text>
<polygon fill="none" stroke="#000000" stroke-width="3" points="336,-44.5 336,-232.5 548,-232.5 548,-44.5 336,-44.5"/>
</g>
<!-- asset.uri_call_number_map -->
<g id="node2" class="node">
<title>asset.uri_call_number_map</title>
<polygon fill="#efefef" stroke="transparent" points="43,-595.5 43,-630.5 405,-630.5 405,-595.5 43,-595.5"/>
<polygon fill="none" stroke="#000000" points="43,-595.5 43,-630.5 405,-630.5 405,-595.5 43,-595.5"/>
<text text-anchor="start" x="49.6978" y="-608.3" font-family="Arial Bold" font-size="18.00" fill="#000000">asset.uri_call_number_map</text>
<text text-anchor="start" x="270.7342" y="-608.3" font-family="Arial" font-size="14.00" fill="#000000">    </text>
<text text-anchor="start" x="304.939" y="-608.3" font-family="Arial" font-size="14.00" fill="#666666">[BASE TABLE]</text>
<polygon fill="none" stroke="#000000" points="43,-565.5 43,-595.5 405,-595.5 405,-565.5 43,-565.5"/>
<text text-anchor="start" x="50" y="-576.9" font-family="Arial" font-size="14.00" fill="#000000">id    </text>
<text text-anchor="start" x="95.094" y="-576.9" font-family="Arial" font-size="14.00" fill="#666666">[bigint]</text>
<polygon fill="none" stroke="#000000" points="43,-535.5 43,-565.5 405,-565.5 405,-535.5 43,-535.5"/>
<text text-anchor="start" x="50" y="-546.9" font-family="Arial" font-size="14.00" fill="#000000">uri    </text>
<text text-anchor="start" x="99.7546" y="-546.9" font-family="Arial" font-size="14.00" fill="#666666">[integer]</text>
<polygon fill="none" stroke="#000000" points="43,-505.5 43,-535.5 405,-535.5 405,-505.5 43,-505.5"/>
<text text-anchor="start" x="50" y="-516.9" font-family="Arial" font-size="14.00" fill="#000000">call_number    </text>
<text text-anchor="start" x="160.4348" y="-516.9" font-family="Arial" font-size="14.00" fill="#666666">[integer]</text>
</g>
<!-- asset.uri_call_number_map&#45;&gt;asset.uri -->
<g id="edge1" class="edge">
<title>asset.uri_call_number_map:uri&#45;&gt;asset.uri:id</title>
<path fill="none" stroke="#000000" d="M414.9956,-549.995C555.1405,-534.7723 174.4716,-180.5 338,-180.5"/>
<polygon fill="#000000" stroke="#000000" points="414.9873,-549.9953 404.7729,-546.0057 409.9936,-550.2477 405,-550.5 405,-550.5 405,-550.5 409.9936,-550.2477 405.2271,-554.9943 414.9873,-549.9953 414.9873,-549.9953"/>
<text text-anchor="start" x="411.505" y="-560.5" font-family="Arial" font-size="10.00" fill="#000000">FOREIGN KEY (uri) REFERENCES asset.uri(id)</text>
</g>
<!-- serial.item -->
<g id="node3" class="node">
<title>serial.item</title>
<polygon fill="#efefef" stroke="transparent" points="510,-745.5 510,-780.5 815,-780.5 815,-745.5 510,-745.5"/>
<polygon fill="none" stroke="#000000" points="510,-745.5 510,-780.5 815,-780.5 815,-745.5 510,-745.5"/>
<text text-anchor="start" x="557.721" y="-758.3" font-family="Arial Bold" font-size="18.00" fill="#000000">serial.item</text>
<text text-anchor="start" x="639.711" y="-758.3" font-family="Arial" font-size="14.00" fill="#000000">    </text>
<text text-anchor="start" x="673.9158" y="-758.3" font-family="Arial" font-size="14.00" fill="#666666">[BASE TABLE]</text>
<polygon fill="none" stroke="#000000" points="510,-715.5 510,-745.5 815,-745.5 815,-715.5 510,-715.5"/>
<text text-anchor="start" x="517" y="-726.9" font-family="Arial" font-size="14.00" fill="#000000">id    </text>
<text text-anchor="start" x="562.094" y="-726.9" font-family="Arial" font-size="14.00" fill="#666666">[integer]</text>
<polygon fill="none" stroke="#000000" points="510,-685.5 510,-715.5 815,-715.5 815,-685.5 510,-685.5"/>
<text text-anchor="start" x="517" y="-696.9" font-family="Arial" font-size="14.00" fill="#000000">creator    </text>
<text text-anchor="start" x="594.7644" y="-696.9" font-family="Arial" font-size="14.00" fill="#666666">[integer]</text>
<polygon fill="none" stroke="#000000" points="510,-655.5 510,-685.5 815,-685.5 815,-655.5 510,-655.5"/>
<text text-anchor="start" x="517" y="-666.9" font-family="Arial" font-size="14.00" fill="#000000">editor    </text>
<text text-anchor="start" x="586.2104" y="-666.9" font-family="Arial" font-size="14.00" fill="#666666">[integer]</text>
<polygon fill="none" stroke="#000000" points="510,-625.5 510,-655.5 815,-655.5 815,-625.5 510,-625.5"/>
<text text-anchor="start" x="517" y="-636.9" font-family="Arial" font-size="14.00" fill="#000000">create_date    </text>
<text text-anchor="start" x="625.1248" y="-636.9" font-family="Arial" font-size="14.00" fill="#666666">[timestamp with time zone]</text>
<polygon fill="none" stroke="#000000" points="510,-595.5 510,-625.5 815,-625.5 815,-595.5 510,-595.5"/>
<text text-anchor="start" x="517" y="-606.9" font-family="Arial" font-size="14.00" fill="#000000">edit_date    </text>
<text text-anchor="start" x="608.7882" y="-606.9" font-family="Arial" font-size="14.00" fill="#666666">[timestamp with time zone]</text>
<polygon fill="none" stroke="#000000" points="510,-565.5 510,-595.5 815,-595.5 815,-565.5 510,-565.5"/>
<text text-anchor="start" x="517" y="-576.9" font-family="Arial" font-size="14.00" fill="#000000">issuance    </text>
<text text-anchor="start" x="606.4418" y="-576.9" font-family="Arial" font-size="14.00" fill="#666666">[integer]</text>
<polygon fill="none" stroke="#000000" points="510,-535.5 510,-565.5 815,-565.5 815,-535.5 510,-535.5"/>
<text text-anchor="start" x="517" y="-546.9" font-family="Arial" font-size="14.00" fill="#000000">stream    </text>
<text text-anchor="start" x="593.9818" y="-546.9" font-family="Arial" font-size="14.00" fill="#666666">[integer]</text>
<polygon fill="none" stroke="#000000" points="510,-505.5 510,-535.5 815,-535.5 815,-505.5 510,-505.5"/>
<text text-anchor="start" x="517" y="-516.9" font-family="Arial" font-size="14.00" fill="#000000">unit    </text>
<text text-anchor="start" x="573.7672" y="-516.9" font-family="Arial" font-size="14.00" fill="#666666">[integer]</text>
<polygon fill="none" stroke="#000000" points="510,-475.5 510,-505.5 815,-505.5 815,-475.5 510,-475.5"/>
<text text-anchor="start" x="517" y="-486.9" font-family="Arial" font-size="14.00" fill="#000000">uri    </text>
<text text-anchor="start" x="566.7546" y="-486.9" font-family="Arial" font-size="14.00" fill="#666666">[integer]</text>
<polygon fill="none" stroke="#000000" points="510,-445.5 510,-475.5 815,-475.5 815,-445.5 510,-445.5"/>
<text text-anchor="start" x="516.6431" y="-456.9" font-family="Arial" font-size="14.00" fill="#000000">date_expected    </text>
<text text-anchor="start" x="642.6725" y="-456.9" font-family="Arial" font-size="14.00" fill="#666666">[timestamp with time zone]</text>
<polygon fill="none" stroke="#000000" points="510,-415.5 510,-445.5 815,-445.5 815,-415.5 510,-415.5"/>
<text text-anchor="start" x="517" y="-426.9" font-family="Arial" font-size="14.00" fill="#000000">date_received    </text>
<text text-anchor="start" x="639.1234" y="-426.9" font-family="Arial" font-size="14.00" fill="#666666">[timestamp with time zone]</text>
<polygon fill="none" stroke="#000000" points="510,-385.5 510,-415.5 815,-415.5 815,-385.5 510,-385.5"/>
<text text-anchor="start" x="517" y="-396.9" font-family="Arial" font-size="14.00" fill="#000000">status    </text>
<text text-anchor="start" x="588.5512" y="-396.9" font-family="Arial" font-size="14.00" fill="#666666">[text]</text>
<polygon fill="none" stroke="#000000" points="510,-355.5 510,-385.5 815,-385.5 815,-355.5 510,-355.5"/>
<text text-anchor="start" x="517" y="-366.9" font-family="Arial" font-size="14.00" fill="#000000">shadowed    </text>
<text text-anchor="start" x="615.007" y="-366.9" font-family="Arial" font-size="14.00" fill="#666666">[boolean]</text>
</g>
<!-- serial.item&#45;&gt;asset.uri -->
<g id="edge2" class="edge">
<title>serial.item:uri&#45;&gt;asset.uri:id</title>
<path fill="none" stroke="#000000" d="M499.7291,-489.8231C435.5915,-480.7433 480.7506,-382.2687 510,-313 518.9252,-291.8633 538.0748,-298.1367 547,-277 563.6839,-237.4892 589.8889,-180.5 547,-180.5"/>
<polygon fill="#000000" stroke="#000000" points="500.0216,-489.8423 509.704,-494.9903 505.0108,-490.1712 510,-490.5 510,-490.5 510,-490.5 505.0108,-490.1712 510.296,-486.0097 500.0216,-489.8423 500.0216,-489.8423"/>
<text text-anchor="start" x="517.4395" y="-500.5" font-family="Arial" font-size="10.00" fill="#000000">FOREIGN KEY (uri) REFERENCES asset.uri(id) ON DELETE SET NULL DEFERRABLE INITIALLY DEFERRED</text>
</g>
</g>
</svg>
