<?xml version="1.0" encoding="UTF-8" standalone="no"?>
<!DOCTYPE svg PUBLIC "-//W3C//DTD SVG 1.1//EN"
 "http://www.w3.org/Graphics/SVG/1.1/DTD/svg11.dtd">
<!-- Generated by graphviz version 2.40.1 (20161225.0304)
 -->
<!-- Title: asset.copy_tag_copy_map Pages: 1 -->
<svg width="717pt" height="652pt"
 viewBox="0.00 0.00 716.50 652.00" xmlns="http://www.w3.org/2000/svg" xmlns:xlink="http://www.w3.org/1999/xlink">
<g id="graph0" class="graph" transform="scale(1 1) rotate(0) translate(4 648)">
<title>asset.copy_tag_copy_map</title>
<polygon fill="#ffffff" stroke="transparent" points="-4,4 -4,-648 712.5,-648 712.5,4 -4,4"/>
<!-- asset.copy_tag_copy_map -->
<g id="node1" class="node">
<title>asset.copy_tag_copy_map</title>
<polygon fill="#efefef" stroke="transparent" points="46.5,-562.5 46.5,-597.5 401.5,-597.5 401.5,-562.5 46.5,-562.5"/>
<polygon fill="none" stroke="#000000" points="46.5,-562.5 46.5,-597.5 401.5,-597.5 401.5,-562.5 46.5,-562.5"/>
<text text-anchor="start" x="53.1763" y="-575.3" font-family="Arial Bold" font-size="18.00" fill="#000000">asset.copy_tag_copy_map</text>
<text text-anchor="start" x="267.2557" y="-575.3" font-family="Arial" font-size="14.00" fill="#000000">    </text>
<text text-anchor="start" x="301.4605" y="-575.3" font-family="Arial" font-size="14.00" fill="#666666">[BASE TABLE]</text>
<polygon fill="none" stroke="#000000" points="46.5,-532.5 46.5,-562.5 401.5,-562.5 401.5,-532.5 46.5,-532.5"/>
<text text-anchor="start" x="53.5" y="-543.9" font-family="Arial" font-size="14.00" fill="#000000">id </text>
<text text-anchor="start" x="68.2798" y="-543.9" font-family="Arial" font-size="14.00" fill="#666666">[bigint]</text>
<polygon fill="none" stroke="#000000" points="46.5,-502.5 46.5,-532.5 401.5,-532.5 401.5,-502.5 46.5,-502.5"/>
<text text-anchor="start" x="53.5" y="-513.9" font-family="Arial" font-size="14.00" fill="#000000">copy </text>
<text text-anchor="start" x="86.9558" y="-513.9" font-family="Arial" font-size="14.00" fill="#666666">[bigint]</text>
<polygon fill="none" stroke="#000000" points="46.5,-472.5 46.5,-502.5 401.5,-502.5 401.5,-472.5 46.5,-472.5"/>
<text text-anchor="start" x="53.5" y="-483.9" font-family="Arial" font-size="14.00" fill="#000000">tag </text>
<text text-anchor="start" x="76.8464" y="-483.9" font-family="Arial" font-size="14.00" fill="#666666">[integer]</text>
<polygon fill="none" stroke="#000000" stroke-width="3" points="44.5,-471.5 44.5,-599.5 402.5,-599.5 402.5,-471.5 44.5,-471.5"/>
</g>
<!-- asset.copy_tag -->
<g id="node2" class="node">
<title>asset.copy_tag</title>
<polygon fill="#efefef" stroke="transparent" points="93.5,-312.5 93.5,-347.5 355.5,-347.5 355.5,-312.5 93.5,-312.5"/>
<polygon fill="none" stroke="#000000" points="93.5,-312.5 93.5,-347.5 355.5,-347.5 355.5,-312.5 93.5,-312.5"/>
<text text-anchor="start" x="100.191" y="-325.3" font-family="Arial Bold" font-size="18.00" fill="#000000">asset.copy_tag</text>
<text text-anchor="start" x="221.241" y="-325.3" font-family="Arial" font-size="14.00" fill="#000000">    </text>
<text text-anchor="start" x="255.4458" y="-325.3" font-family="Arial" font-size="14.00" fill="#666666">[BASE TABLE]</text>
<polygon fill="none" stroke="#000000" points="93.5,-282.5 93.5,-312.5 355.5,-312.5 355.5,-282.5 93.5,-282.5"/>
<text text-anchor="start" x="100.5" y="-293.9" font-family="Arial" font-size="14.00" fill="#000000">id    </text>
<text text-anchor="start" x="145.594" y="-293.9" font-family="Arial" font-size="14.00" fill="#666666">[integer]</text>
<polygon fill="none" stroke="#000000" points="93.5,-252.5 93.5,-282.5 355.5,-282.5 355.5,-252.5 93.5,-252.5"/>
<text text-anchor="start" x="100.5" y="-263.9" font-family="Arial" font-size="14.00" fill="#000000">tag_type    </text>
<text text-anchor="start" x="188.399" y="-263.9" font-family="Arial" font-size="14.00" fill="#666666">[text]</text>
<polygon fill="none" stroke="#000000" points="93.5,-222.5 93.5,-252.5 355.5,-252.5 355.5,-222.5 93.5,-222.5"/>
<text text-anchor="start" x="100.5" y="-233.9" font-family="Arial" font-size="14.00" fill="#000000">label    </text>
<text text-anchor="start" x="164.2658" y="-233.9" font-family="Arial" font-size="14.00" fill="#666666">[text]</text>
<polygon fill="none" stroke="#000000" points="93.5,-192.5 93.5,-222.5 355.5,-222.5 355.5,-192.5 93.5,-192.5"/>
<text text-anchor="start" x="100.5" y="-203.9" font-family="Arial" font-size="14.00" fill="#000000">value    </text>
<text text-anchor="start" x="168.1592" y="-203.9" font-family="Arial" font-size="14.00" fill="#666666">[text]</text>
<polygon fill="none" stroke="#000000" points="93.5,-162.5 93.5,-192.5 355.5,-192.5 355.5,-162.5 93.5,-162.5"/>
<text text-anchor="start" x="100.5" y="-173.9" font-family="Arial" font-size="14.00" fill="#000000">index_vector    </text>
<text text-anchor="start" x="214.0582" y="-173.9" font-family="Arial" font-size="14.00" fill="#666666">[tsvector]</text>
<polygon fill="none" stroke="#000000" points="93.5,-132.5 93.5,-162.5 355.5,-162.5 355.5,-132.5 93.5,-132.5"/>
<text text-anchor="start" x="100.5" y="-143.9" font-family="Arial" font-size="14.00" fill="#000000">staff_note    </text>
<text text-anchor="start" x="196.1802" y="-143.9" font-family="Arial" font-size="14.00" fill="#666666">[text]</text>
<polygon fill="none" stroke="#000000" points="93.5,-102.5 93.5,-132.5 355.5,-132.5 355.5,-102.5 93.5,-102.5"/>
<text text-anchor="start" x="100.5" y="-113.9" font-family="Arial" font-size="14.00" fill="#000000">pub    </text>
<text text-anchor="start" x="158.0526" y="-113.9" font-family="Arial" font-size="14.00" fill="#666666">[boolean]</text>
<polygon fill="none" stroke="#000000" points="93.5,-72.5 93.5,-102.5 355.5,-102.5 355.5,-72.5 93.5,-72.5"/>
<text text-anchor="start" x="100.5" y="-83.9" font-family="Arial" font-size="14.00" fill="#000000">owner    </text>
<text text-anchor="start" x="172.8198" y="-83.9" font-family="Arial" font-size="14.00" fill="#666666">[integer]</text>
<polygon fill="none" stroke="#000000" points="93.5,-42.5 93.5,-72.5 355.5,-72.5 355.5,-42.5 93.5,-42.5"/>
<text text-anchor="start" x="100.5" y="-53.9" font-family="Arial" font-size="14.00" fill="#000000">url    </text>
<text text-anchor="start" x="150.2546" y="-53.9" font-family="Arial" font-size="14.00" fill="#666666">[text]</text>
</g>
<!-- asset.copy_tag_copy_map&#45;&gt;asset.copy_tag -->
<g id="edge1" class="edge">
<title>asset.copy_tag_copy_map:tag&#45;&gt;asset.copy_tag:id</title>
<path fill="none" stroke="#000000" d="M223.65,-462.2508C214.0069,-408.7517 124.9813,-447.6622 93.5,-391 73.3177,-354.6745 51.9444,-297.5 93.5,-297.5"/>
<polygon fill="#000000" stroke="#000000" points="223.6734,-462.5342 220.0154,-472.872 224.0867,-467.5171 224.5,-472.5 224.5,-472.5 224.5,-472.5 224.0867,-467.5171 228.9846,-472.128 223.6734,-462.5342 223.6734,-462.5342"/>
<text text-anchor="start" x="231.4845" y="-482.5" font-family="Arial" font-size="10.00" fill="#000000">FOREIGN KEY (tag) REFERENCES asset.copy_tag(id) ON UPDATE CASCADE ON DELETE CASCADE</text>
</g>
</g>
</svg>
