<?xml version="1.0" encoding="UTF-8" standalone="no"?>
<!DOCTYPE svg PUBLIC "-//W3C//DTD SVG 1.1//EN"
 "http://www.w3.org/Graphics/SVG/1.1/DTD/svg11.dtd">
<!-- Generated by graphviz version 2.40.1 (20161225.0304)
 -->
<!-- Title: auditor.serial_unit_history Pages: 1 -->
<svg width="446pt" height="1365pt"
 viewBox="0.00 0.00 446.00 1365.00" xmlns="http://www.w3.org/2000/svg" xmlns:xlink="http://www.w3.org/1999/xlink">
<g id="graph0" class="graph" transform="scale(1 1) rotate(0) translate(4 1361)">
<title>auditor.serial_unit_history</title>
<polygon fill="#ffffff" stroke="transparent" points="-4,4 -4,-1361 442,-1361 442,4 -4,4"/>
<!-- auditor.serial_unit_history -->
<g id="node1" class="node">
<title>auditor.serial_unit_history</title>
<polygon fill="#efefef" stroke="transparent" points="46,-1275.5 46,-1310.5 392,-1310.5 392,-1275.5 46,-1275.5"/>
<polygon fill="none" stroke="#000000" points="46,-1275.5 46,-1310.5 392,-1310.5 392,-1275.5 46,-1275.5"/>
<text text-anchor="start" x="52.7006" y="-1288.3" font-family="Arial Bold" font-size="18.00" fill="#000000">auditor.serial_unit_history</text>
<text text-anchor="start" x="257.7314" y="-1288.3" font-family="Arial" font-size="14.00" fill="#000000">    </text>
<text text-anchor="start" x="291.9362" y="-1288.3" font-family="Arial" font-size="14.00" fill="#666666">[BASE TABLE]</text>
<polygon fill="none" stroke="#000000" points="46,-1245.5 46,-1275.5 392,-1275.5 392,-1245.5 46,-1245.5"/>
<text text-anchor="start" x="53" y="-1256.9" font-family="Arial" font-size="14.00" fill="#000000">audit_id </text>
<text text-anchor="start" x="105.9074" y="-1256.9" font-family="Arial" font-size="14.00" fill="#666666">[bigint]</text>
<polygon fill="none" stroke="#000000" points="46,-1215.5 46,-1245.5 392,-1245.5 392,-1215.5 46,-1215.5"/>
<text text-anchor="start" x="53" y="-1226.9" font-family="Arial" font-size="14.00" fill="#000000">audit_time </text>
<text text-anchor="start" x="121.4586" y="-1226.9" font-family="Arial" font-size="14.00" fill="#666666">[timestamp with time zone]</text>
<polygon fill="none" stroke="#000000" points="46,-1185.5 46,-1215.5 392,-1215.5 392,-1185.5 46,-1185.5"/>
<text text-anchor="start" x="53" y="-1196.9" font-family="Arial" font-size="14.00" fill="#000000">audit_action </text>
<text text-anchor="start" x="132.3632" y="-1196.9" font-family="Arial" font-size="14.00" fill="#666666">[text]</text>
<polygon fill="none" stroke="#000000" points="46,-1155.5 46,-1185.5 392,-1185.5 392,-1155.5 46,-1155.5"/>
<text text-anchor="start" x="53" y="-1166.9" font-family="Arial" font-size="14.00" fill="#000000">audit_user </text>
<text text-anchor="start" x="122.244" y="-1166.9" font-family="Arial" font-size="14.00" fill="#666666">[integer]</text>
<polygon fill="none" stroke="#000000" points="46,-1125.5 46,-1155.5 392,-1155.5 392,-1125.5 46,-1125.5"/>
<text text-anchor="start" x="53" y="-1136.9" font-family="Arial" font-size="14.00" fill="#000000">audit_ws </text>
<text text-anchor="start" x="112.1248" y="-1136.9" font-family="Arial" font-size="14.00" fill="#666666">[integer]</text>
<polygon fill="none" stroke="#000000" points="46,-1095.5 46,-1125.5 392,-1125.5 392,-1095.5 46,-1095.5"/>
<text text-anchor="start" x="53" y="-1106.9" font-family="Arial" font-size="14.00" fill="#000000">id </text>
<text text-anchor="start" x="67.7798" y="-1106.9" font-family="Arial" font-size="14.00" fill="#666666">[bigint]</text>
<polygon fill="none" stroke="#000000" points="46,-1065.5 46,-1095.5 392,-1095.5 392,-1065.5 46,-1065.5"/>
<text text-anchor="start" x="53" y="-1076.9" font-family="Arial" font-size="14.00" fill="#000000">circ_lib </text>
<text text-anchor="start" x="100.4362" y="-1076.9" font-family="Arial" font-size="14.00" fill="#666666">[integer]</text>
<polygon fill="none" stroke="#000000" points="46,-1035.5 46,-1065.5 392,-1065.5 392,-1035.5 46,-1035.5"/>
<text text-anchor="start" x="53" y="-1046.9" font-family="Arial" font-size="14.00" fill="#000000">creator </text>
<text text-anchor="start" x="100.4502" y="-1046.9" font-family="Arial" font-size="14.00" fill="#666666">[bigint]</text>
<polygon fill="none" stroke="#000000" points="46,-1005.5 46,-1035.5 392,-1035.5 392,-1005.5 46,-1005.5"/>
<text text-anchor="start" x="53" y="-1016.9" font-family="Arial" font-size="14.00" fill="#000000">call_number </text>
<text text-anchor="start" x="133.1206" y="-1016.9" font-family="Arial" font-size="14.00" fill="#666666">[bigint]</text>
<polygon fill="none" stroke="#000000" points="46,-975.5 46,-1005.5 392,-1005.5 392,-975.5 46,-975.5"/>
<text text-anchor="start" x="53" y="-986.9" font-family="Arial" font-size="14.00" fill="#000000">editor </text>
<text text-anchor="start" x="91.8962" y="-986.9" font-family="Arial" font-size="14.00" fill="#666666">[bigint]</text>
<polygon fill="none" stroke="#000000" points="46,-945.5 46,-975.5 392,-975.5 392,-945.5 46,-945.5"/>
<text text-anchor="start" x="53" y="-956.9" font-family="Arial" font-size="14.00" fill="#000000">create_date </text>
<text text-anchor="start" x="130.8106" y="-956.9" font-family="Arial" font-size="14.00" fill="#666666">[timestamp with time zone]</text>
<polygon fill="none" stroke="#000000" points="46,-915.5 46,-945.5 392,-945.5 392,-915.5 46,-915.5"/>
<text text-anchor="start" x="53" y="-926.9" font-family="Arial" font-size="14.00" fill="#000000">edit_date </text>
<text text-anchor="start" x="114.474" y="-926.9" font-family="Arial" font-size="14.00" fill="#666666">[timestamp with time zone]</text>
<polygon fill="none" stroke="#000000" points="46,-885.5 46,-915.5 392,-915.5 392,-885.5 46,-885.5"/>
<text text-anchor="start" x="53" y="-896.9" font-family="Arial" font-size="14.00" fill="#000000">copy_number </text>
<text text-anchor="start" x="141.69" y="-896.9" font-family="Arial" font-size="14.00" fill="#666666">[integer]</text>
<polygon fill="none" stroke="#000000" points="46,-855.5 46,-885.5 392,-885.5 392,-855.5 46,-855.5"/>
<text text-anchor="start" x="53" y="-866.9" font-family="Arial" font-size="14.00" fill="#000000">status </text>
<text text-anchor="start" x="94.237" y="-866.9" font-family="Arial" font-size="14.00" fill="#666666">[integer]</text>
<polygon fill="none" stroke="#000000" points="46,-825.5 46,-855.5 392,-855.5 392,-825.5 46,-825.5"/>
<text text-anchor="start" x="53" y="-836.9" font-family="Arial" font-size="14.00" fill="#000000">location </text>
<text text-anchor="start" x="105.1248" y="-836.9" font-family="Arial" font-size="14.00" fill="#666666">[integer]</text>
<polygon fill="none" stroke="#000000" points="46,-795.5 46,-825.5 392,-825.5 392,-795.5 46,-795.5"/>
<text text-anchor="start" x="53" y="-806.9" font-family="Arial" font-size="14.00" fill="#000000">loan_duration </text>
<text text-anchor="start" x="141.6984" y="-806.9" font-family="Arial" font-size="14.00" fill="#666666">[integer]</text>
<polygon fill="none" stroke="#000000" points="46,-765.5 46,-795.5 392,-795.5 392,-765.5 46,-765.5"/>
<text text-anchor="start" x="53" y="-776.9" font-family="Arial" font-size="14.00" fill="#000000">fine_level </text>
<text text-anchor="start" x="116.014" y="-776.9" font-family="Arial" font-size="14.00" fill="#666666">[integer]</text>
<polygon fill="none" stroke="#000000" points="46,-735.5 46,-765.5 392,-765.5 392,-735.5 46,-735.5"/>
<text text-anchor="start" x="53" y="-746.9" font-family="Arial" font-size="14.00" fill="#000000">age_protect </text>
<text text-anchor="start" x="130.8106" y="-746.9" font-family="Arial" font-size="14.00" fill="#666666">[integer]</text>
<polygon fill="none" stroke="#000000" points="46,-705.5 46,-735.5 392,-735.5 392,-705.5 46,-705.5"/>
<text text-anchor="start" x="53" y="-716.9" font-family="Arial" font-size="14.00" fill="#000000">circulate </text>
<text text-anchor="start" x="109.0028" y="-716.9" font-family="Arial" font-size="14.00" fill="#666666">[boolean]</text>
<polygon fill="none" stroke="#000000" points="46,-675.5 46,-705.5 392,-705.5 392,-675.5 46,-675.5"/>
<text text-anchor="start" x="53" y="-686.9" font-family="Arial" font-size="14.00" fill="#000000">deposit </text>
<text text-anchor="start" x="102.0182" y="-686.9" font-family="Arial" font-size="14.00" fill="#666666">[boolean]</text>
<polygon fill="none" stroke="#000000" points="46,-645.5 46,-675.5 392,-675.5 392,-645.5 46,-645.5"/>
<text text-anchor="start" x="53" y="-656.9" font-family="Arial" font-size="14.00" fill="#000000">ref </text>
<text text-anchor="start" x="73.2244" y="-656.9" font-family="Arial" font-size="14.00" fill="#666666">[boolean]</text>
<polygon fill="none" stroke="#000000" points="46,-615.5 46,-645.5 392,-645.5 392,-615.5 46,-615.5"/>
<text text-anchor="start" x="53" y="-626.9" font-family="Arial" font-size="14.00" fill="#000000">holdable </text>
<text text-anchor="start" x="109.7994" y="-626.9" font-family="Arial" font-size="14.00" fill="#666666">[boolean]</text>
<polygon fill="none" stroke="#000000" points="46,-585.5 46,-615.5 392,-615.5 392,-585.5 46,-585.5"/>
<text text-anchor="start" x="53" y="-596.9" font-family="Arial" font-size="14.00" fill="#000000">deposit_amount </text>
<text text-anchor="start" x="156.4824" y="-596.9" font-family="Arial" font-size="14.00" fill="#666666">[numeric(6,2)]</text>
<polygon fill="none" stroke="#000000" points="46,-555.5 46,-585.5 392,-585.5 392,-555.5 46,-555.5"/>
<text text-anchor="start" x="53" y="-566.9" font-family="Arial" font-size="14.00" fill="#000000">price </text>
<text text-anchor="start" x="87.223" y="-566.9" font-family="Arial" font-size="14.00" fill="#666666">[numeric(8,2)]</text>
<polygon fill="none" stroke="#000000" points="46,-525.5 46,-555.5 392,-555.5 392,-525.5 46,-525.5"/>
<text text-anchor="start" x="53" y="-536.9" font-family="Arial" font-size="14.00" fill="#000000">barcode </text>
<text text-anchor="start" x="107.4642" y="-536.9" font-family="Arial" font-size="14.00" fill="#666666">[text]</text>
<polygon fill="none" stroke="#000000" points="46,-495.5 46,-525.5 392,-525.5 392,-495.5 46,-495.5"/>
<text text-anchor="start" x="53" y="-506.9" font-family="Arial" font-size="14.00" fill="#000000">circ_modifier </text>
<text text-anchor="start" x="136.2132" y="-506.9" font-family="Arial" font-size="14.00" fill="#666666">[text]</text>
<polygon fill="none" stroke="#000000" points="46,-465.5 46,-495.5 392,-495.5 392,-465.5 46,-465.5"/>
<text text-anchor="start" x="53" y="-476.9" font-family="Arial" font-size="14.00" fill="#000000">circ_as_type </text>
<text text-anchor="start" x="135.4614" y="-476.9" font-family="Arial" font-size="14.00" fill="#666666">[text]</text>
<polygon fill="none" stroke="#000000" points="46,-435.5 46,-465.5 392,-465.5 392,-435.5 46,-435.5"/>
<text text-anchor="start" x="53" y="-446.9" font-family="Arial" font-size="14.00" fill="#000000">dummy_title </text>
<text text-anchor="start" x="132.3366" y="-446.9" font-family="Arial" font-size="14.00" fill="#666666">[text]</text>
<polygon fill="none" stroke="#000000" points="46,-405.5 46,-435.5 392,-435.5 392,-405.5 46,-405.5"/>
<text text-anchor="start" x="53" y="-416.9" font-family="Arial" font-size="14.00" fill="#000000">dummy_author </text>
<text text-anchor="start" x="150.2412" y="-416.9" font-family="Arial" font-size="14.00" fill="#666666">[text]</text>
<polygon fill="none" stroke="#000000" points="46,-375.5 46,-405.5 392,-405.5 392,-375.5 46,-375.5"/>
<text text-anchor="start" x="53" y="-386.9" font-family="Arial" font-size="14.00" fill="#000000">alert_message </text>
<text text-anchor="start" x="148.6872" y="-386.9" font-family="Arial" font-size="14.00" fill="#666666">[text]</text>
<polygon fill="none" stroke="#000000" points="46,-345.5 46,-375.5 392,-375.5 392,-345.5 46,-345.5"/>
<text text-anchor="start" x="53" y="-356.9" font-family="Arial" font-size="14.00" fill="#000000">opac_visible </text>
<text text-anchor="start" x="133.906" y="-356.9" font-family="Arial" font-size="14.00" fill="#666666">[boolean]</text>
<polygon fill="none" stroke="#000000" points="46,-315.5 46,-345.5 392,-345.5 392,-315.5 46,-315.5"/>
<text text-anchor="start" x="53" y="-326.9" font-family="Arial" font-size="14.00" fill="#000000">deleted </text>
<text text-anchor="start" x="102.8008" y="-326.9" font-family="Arial" font-size="14.00" fill="#666666">[boolean]</text>
<polygon fill="none" stroke="#000000" points="46,-285.5 46,-315.5 392,-315.5 392,-285.5 46,-285.5"/>
<text text-anchor="start" x="53" y="-296.9" font-family="Arial" font-size="14.00" fill="#000000">floating </text>
<text text-anchor="start" x="102.0154" y="-296.9" font-family="Arial" font-size="14.00" fill="#666666">[integer]</text>
<polygon fill="none" stroke="#000000" points="46,-255.5 46,-285.5 392,-285.5 392,-255.5 46,-255.5"/>
<text text-anchor="start" x="53" y="-266.9" font-family="Arial" font-size="14.00" fill="#000000">dummy_isbn </text>
<text text-anchor="start" x="136.2314" y="-266.9" font-family="Arial" font-size="14.00" fill="#666666">[text]</text>
<polygon fill="none" stroke="#000000" points="46,-225.5 46,-255.5 392,-255.5 392,-225.5 46,-225.5"/>
<text text-anchor="start" x="53" y="-236.9" font-family="Arial" font-size="14.00" fill="#000000">status_changed_time </text>
<text text-anchor="start" x="189.9382" y="-236.9" font-family="Arial" font-size="14.00" fill="#666666">[timestamp with time zone]</text>
<polygon fill="none" stroke="#000000" points="46,-195.5 46,-225.5 392,-225.5 392,-195.5 46,-195.5"/>
<text text-anchor="start" x="53" y="-206.9" font-family="Arial" font-size="14.00" fill="#000000">active_date </text>
<text text-anchor="start" x="128.474" y="-206.9" font-family="Arial" font-size="14.00" fill="#666666">[timestamp with time zone]</text>
<polygon fill="none" stroke="#000000" points="46,-165.5 46,-195.5 392,-195.5 392,-165.5 46,-165.5"/>
<text text-anchor="start" x="53" y="-176.9" font-family="Arial" font-size="14.00" fill="#000000">mint_condition </text>
<text text-anchor="start" x="147.1304" y="-176.9" font-family="Arial" font-size="14.00" fill="#666666">[boolean]</text>
<polygon fill="none" stroke="#000000" points="46,-135.5 46,-165.5 392,-165.5 392,-135.5 46,-135.5"/>
<text text-anchor="start" x="53" y="-146.9" font-family="Arial" font-size="14.00" fill="#000000">cost </text>
<text text-anchor="start" x="82.5638" y="-146.9" font-family="Arial" font-size="14.00" fill="#666666">[numeric(8,2)]</text>
<polygon fill="none" stroke="#000000" points="46,-105.5 46,-135.5 392,-135.5 392,-105.5 46,-105.5"/>
<text text-anchor="start" x="53" y="-116.9" font-family="Arial" font-size="14.00" fill="#000000">sort_key </text>
<text text-anchor="start" x="109.7896" y="-116.9" font-family="Arial" font-size="14.00" fill="#666666">[text]</text>
<polygon fill="none" stroke="#000000" points="46,-75.5 46,-105.5 392,-105.5 392,-75.5 46,-75.5"/>
<text text-anchor="start" x="53" y="-86.9" font-family="Arial" font-size="14.00" fill="#000000">detailed_contents </text>
<text text-anchor="start" x="166.6016" y="-86.9" font-family="Arial" font-size="14.00" fill="#666666">[text]</text>
<polygon fill="none" stroke="#000000" points="46,-45.5 46,-75.5 392,-75.5 392,-45.5 46,-45.5"/>
<text text-anchor="start" x="53" y="-56.9" font-family="Arial" font-size="14.00" fill="#000000">summary_contents </text>
<text text-anchor="start" x="175.1318" y="-56.9" font-family="Arial" font-size="14.00" fill="#666666">[text]</text>
<polygon fill="none" stroke="#000000" stroke-width="3" points="44.5,-44.5 44.5,-1312.5 393.5,-1312.5 393.5,-44.5 44.5,-44.5"/>
</g>
</g>
</svg>
