<?xml version="1.0" encoding="UTF-8" standalone="no"?>
<!DOCTYPE svg PUBLIC "-//W3C//DTD SVG 1.1//EN"
 "http://www.w3.org/Graphics/SVG/1.1/DTD/svg11.dtd">
<!-- Generated by graphviz version 2.40.1 (20161225.0304)
 -->
<!-- Title: authority.heading_field_norm_map Pages: 1 -->
<svg width="1606pt" height="772pt"
 viewBox="0.00 0.00 1606.00 772.00" xmlns="http://www.w3.org/2000/svg" xmlns:xlink="http://www.w3.org/1999/xlink">
<g id="graph0" class="graph" transform="scale(1 1) rotate(0) translate(4 768)">
<title>authority.heading_field_norm_map</title>
<polygon fill="#ffffff" stroke="transparent" points="-4,4 -4,-768 1602,-768 1602,4 -4,4"/>
<!-- authority.heading_field_norm_map -->
<g id="node1" class="node">
<title>authority.heading_field_norm_map</title>
<polygon fill="#efefef" stroke="transparent" points="585,-682.5 585,-717.5 1003,-717.5 1003,-682.5 585,-682.5"/>
<polygon fill="none" stroke="#000000" points="585,-682.5 585,-717.5 1003,-717.5 1003,-682.5 585,-682.5"/>
<text text-anchor="start" x="591.6799" y="-695.3" font-family="Arial Bold" font-size="18.00" fill="#000000">authority.heading_field_norm_map</text>
<text text-anchor="start" x="868.7521" y="-695.3" font-family="Arial" font-size="14.00" fill="#000000">    </text>
<text text-anchor="start" x="902.9569" y="-695.3" font-family="Arial" font-size="14.00" fill="#666666">[BASE TABLE]</text>
<polygon fill="none" stroke="#000000" points="585,-652.5 585,-682.5 1003,-682.5 1003,-652.5 585,-652.5"/>
<text text-anchor="start" x="592" y="-663.9" font-family="Arial" font-size="14.00" fill="#000000">id </text>
<text text-anchor="start" x="606.7798" y="-663.9" font-family="Arial" font-size="14.00" fill="#666666">[integer]</text>
<polygon fill="none" stroke="#000000" points="585,-622.5 585,-652.5 1003,-652.5 1003,-622.5 585,-622.5"/>
<text text-anchor="start" x="592" y="-633.9" font-family="Arial" font-size="14.00" fill="#000000">field </text>
<text text-anchor="start" x="621.5596" y="-633.9" font-family="Arial" font-size="14.00" fill="#666666">[integer]</text>
<polygon fill="none" stroke="#000000" points="585,-592.5 585,-622.5 1003,-622.5 1003,-592.5 585,-592.5"/>
<text text-anchor="start" x="592" y="-603.9" font-family="Arial" font-size="14.00" fill="#000000">norm </text>
<text text-anchor="start" x="627.777" y="-603.9" font-family="Arial" font-size="14.00" fill="#666666">[integer]</text>
<polygon fill="none" stroke="#000000" points="585,-562.5 585,-592.5 1003,-592.5 1003,-562.5 585,-562.5"/>
<text text-anchor="start" x="592" y="-573.9" font-family="Arial" font-size="14.00" fill="#000000">params </text>
<text text-anchor="start" x="642.5596" y="-573.9" font-family="Arial" font-size="14.00" fill="#666666">[text]</text>
<polygon fill="none" stroke="#000000" points="585,-532.5 585,-562.5 1003,-562.5 1003,-532.5 585,-532.5"/>
<text text-anchor="start" x="592" y="-543.9" font-family="Arial" font-size="14.00" fill="#000000">pos </text>
<text text-anchor="start" x="618.4558" y="-543.9" font-family="Arial" font-size="14.00" fill="#666666">[integer]</text>
<polygon fill="none" stroke="#000000" stroke-width="3" points="583.5,-531.5 583.5,-719.5 1004.5,-719.5 1004.5,-531.5 583.5,-531.5"/>
</g>
<!-- authority.heading_field -->
<g id="node2" class="node">
<title>authority.heading_field</title>
<polygon fill="#efefef" stroke="transparent" points="412,-372.5 412,-407.5 741,-407.5 741,-372.5 412,-372.5"/>
<polygon fill="none" stroke="#000000" points="412,-372.5 412,-407.5 741,-407.5 741,-372.5 412,-372.5"/>
<text text-anchor="start" x="422.1868" y="-385.3" font-family="Arial Bold" font-size="18.00" fill="#000000">authority.heading_field</text>
<text text-anchor="start" x="603.2452" y="-385.3" font-family="Arial" font-size="14.00" fill="#000000">    </text>
<text text-anchor="start" x="637.45" y="-385.3" font-family="Arial" font-size="14.00" fill="#666666">[BASE TABLE]</text>
<polygon fill="none" stroke="#000000" points="412,-342.5 412,-372.5 741,-372.5 741,-342.5 412,-342.5"/>
<text text-anchor="start" x="419" y="-353.9" font-family="Arial" font-size="14.00" fill="#000000">id    </text>
<text text-anchor="start" x="464.094" y="-353.9" font-family="Arial" font-size="14.00" fill="#666666">[integer]</text>
<polygon fill="none" stroke="#000000" points="412,-312.5 412,-342.5 741,-342.5 741,-312.5 412,-312.5"/>
<text text-anchor="start" x="419" y="-323.9" font-family="Arial" font-size="14.00" fill="#000000">heading_type    </text>
<text text-anchor="start" x="537.2454" y="-323.9" font-family="Arial" font-size="14.00" fill="#666666">[authority.heading_type]</text>
<polygon fill="none" stroke="#000000" points="412,-282.5 412,-312.5 741,-312.5 741,-282.5 412,-282.5"/>
<text text-anchor="start" x="418.5639" y="-293.9" font-family="Arial" font-size="14.00" fill="#000000">heading_purpose    </text>
<text text-anchor="start" x="560.9271" y="-293.9" font-family="Arial" font-size="14.00" fill="#666666">[authority.heading_purpose]</text>
<polygon fill="none" stroke="#000000" points="412,-252.5 412,-282.5 741,-282.5 741,-252.5 412,-252.5"/>
<text text-anchor="start" x="419" y="-263.9" font-family="Arial" font-size="14.00" fill="#000000">label    </text>
<text text-anchor="start" x="482.7658" y="-263.9" font-family="Arial" font-size="14.00" fill="#666666">[text]</text>
<polygon fill="none" stroke="#000000" points="412,-222.5 412,-252.5 741,-252.5 741,-222.5 412,-222.5"/>
<text text-anchor="start" x="419" y="-233.9" font-family="Arial" font-size="14.00" fill="#000000">format    </text>
<text text-anchor="start" x="492.8724" y="-233.9" font-family="Arial" font-size="14.00" fill="#666666">[text]</text>
<polygon fill="none" stroke="#000000" points="412,-192.5 412,-222.5 741,-222.5 741,-192.5 412,-192.5"/>
<text text-anchor="start" x="419" y="-203.9" font-family="Arial" font-size="14.00" fill="#000000">heading_xpath    </text>
<text text-anchor="start" x="545.028" y="-203.9" font-family="Arial" font-size="14.00" fill="#666666">[text]</text>
<polygon fill="none" stroke="#000000" points="412,-162.5 412,-192.5 741,-192.5 741,-162.5 412,-162.5"/>
<text text-anchor="start" x="419" y="-173.9" font-family="Arial" font-size="14.00" fill="#000000">component_xpath    </text>
<text text-anchor="start" x="564.4726" y="-173.9" font-family="Arial" font-size="14.00" fill="#666666">[text]</text>
<polygon fill="none" stroke="#000000" points="412,-132.5 412,-162.5 741,-162.5 741,-132.5 412,-132.5"/>
<text text-anchor="start" x="419" y="-143.9" font-family="Arial" font-size="14.00" fill="#000000">type_xpath    </text>
<text text-anchor="start" x="521.6816" y="-143.9" font-family="Arial" font-size="14.00" fill="#666666">[text]</text>
<polygon fill="none" stroke="#000000" points="412,-102.5 412,-132.5 741,-132.5 741,-102.5 412,-102.5"/>
<text text-anchor="start" x="419" y="-113.9" font-family="Arial" font-size="14.00" fill="#000000">thesaurus_xpath    </text>
<text text-anchor="start" x="556.69" y="-113.9" font-family="Arial" font-size="14.00" fill="#666666">[text]</text>
<polygon fill="none" stroke="#000000" points="412,-72.5 412,-102.5 741,-102.5 741,-72.5 412,-72.5"/>
<text text-anchor="start" x="419" y="-83.9" font-family="Arial" font-size="14.00" fill="#000000">thesaurus_override_xpath    </text>
<text text-anchor="start" x="615.0308" y="-83.9" font-family="Arial" font-size="14.00" fill="#666666">[text]</text>
<polygon fill="none" stroke="#000000" points="412,-42.5 412,-72.5 741,-72.5 741,-42.5 412,-42.5"/>
<text text-anchor="start" x="419" y="-53.9" font-family="Arial" font-size="14.00" fill="#000000">joiner    </text>
<text text-anchor="start" x="487.4264" y="-53.9" font-family="Arial" font-size="14.00" fill="#666666">[text]</text>
</g>
<!-- authority.heading_field_norm_map&#45;&gt;authority.heading_field -->
<g id="edge1" class="edge">
<title>authority.heading_field_norm_map:field&#45;&gt;authority.heading_field:id</title>
<path fill="none" stroke="#000000" d="M574.8403,-636.6429C520.9215,-626.9014 545.6355,-536.4832 585,-487 629.298,-431.3152 696.702,-506.6848 741,-451 766.8705,-418.4795 782.5556,-357.5 741,-357.5"/>
<polygon fill="#000000" stroke="#000000" points="575.0354,-636.6593 584.6217,-641.9841 580.0177,-637.0796 585,-637.5 585,-637.5 585,-637.5 580.0177,-637.0796 585.3783,-633.0159 575.0354,-636.6593 575.0354,-636.6593"/>
<text text-anchor="start" x="7.1475" y="-647.5" font-family="Arial" font-size="10.00" fill="#000000">FOREIGN KEY (field) REFERENCES authority.heading_field(id) ON DELETE CASCADE DEFERRABLE INITIALLY DEFERRED</text>
</g>
<!-- config.index_normalizer -->
<g id="node3" class="node">
<title>config.index_normalizer</title>
<polygon fill="#efefef" stroke="transparent" points="845,-282.5 845,-317.5 1176,-317.5 1176,-282.5 845,-282.5"/>
<polygon fill="none" stroke="#000000" points="845,-282.5 845,-317.5 1176,-317.5 1176,-282.5 845,-282.5"/>
<text text-anchor="start" x="851.703" y="-295.3" font-family="Arial Bold" font-size="18.00" fill="#000000">config.index_normalizer</text>
<text text-anchor="start" x="1041.729" y="-295.3" font-family="Arial" font-size="14.00" fill="#000000">    </text>
<text text-anchor="start" x="1075.9338" y="-295.3" font-family="Arial" font-size="14.00" fill="#666666">[BASE TABLE]</text>
<polygon fill="none" stroke="#000000" points="845,-252.5 845,-282.5 1176,-282.5 1176,-252.5 845,-252.5"/>
<text text-anchor="start" x="852" y="-263.9" font-family="Arial" font-size="14.00" fill="#000000">id    </text>
<text text-anchor="start" x="897.094" y="-263.9" font-family="Arial" font-size="14.00" fill="#666666">[integer]</text>
<polygon fill="none" stroke="#000000" points="845,-222.5 845,-252.5 1176,-252.5 1176,-222.5 845,-222.5"/>
<text text-anchor="start" x="852" y="-233.9" font-family="Arial" font-size="14.00" fill="#000000">name    </text>
<text text-anchor="start" x="921.2132" y="-233.9" font-family="Arial" font-size="14.00" fill="#666666">[text]</text>
<polygon fill="none" stroke="#000000" points="845,-192.5 845,-222.5 1176,-222.5 1176,-192.5 845,-192.5"/>
<text text-anchor="start" x="852" y="-203.9" font-family="Arial" font-size="14.00" fill="#000000">description    </text>
<text text-anchor="start" x="953.8822" y="-203.9" font-family="Arial" font-size="14.00" fill="#666666">[text]</text>
<polygon fill="none" stroke="#000000" points="845,-162.5 845,-192.5 1176,-192.5 1176,-162.5 845,-162.5"/>
<text text-anchor="start" x="852" y="-173.9" font-family="Arial" font-size="14.00" fill="#000000">func    </text>
<text text-anchor="start" x="912.6606" y="-173.9" font-family="Arial" font-size="14.00" fill="#666666">[text]</text>
<polygon fill="none" stroke="#000000" points="845,-132.5 845,-162.5 1176,-162.5 1176,-132.5 845,-132.5"/>
<text text-anchor="start" x="852" y="-143.9" font-family="Arial" font-size="14.00" fill="#000000">param_count    </text>
<text text-anchor="start" x="967.8948" y="-143.9" font-family="Arial" font-size="14.00" fill="#666666">[integer]</text>
</g>
<!-- authority.heading_field_norm_map&#45;&gt;config.index_normalizer -->
<g id="edge2" class="edge">
<title>authority.heading_field_norm_map:norm&#45;&gt;config.index_normalizer:id</title>
<path fill="none" stroke="#000000" d="M1013.0845,-606.4619C1052.327,-597.4587 1024.6031,-531.8591 1003,-487 964.0296,-406.0774 883.9704,-441.9226 845,-361 826.9697,-323.5598 803.4444,-267.5 845,-267.5"/>
<polygon fill="#000000" stroke="#000000" points="1012.9474,-606.4759 1002.5392,-603.0237 1007.9737,-606.988 1003,-607.5 1003,-607.5 1003,-607.5 1007.9737,-606.988 1003.4608,-611.9763 1012.9474,-606.4759 1012.9474,-606.4759"/>
<text text-anchor="start" x="1010.436" y="-617.5" font-family="Arial" font-size="10.00" fill="#000000">FOREIGN KEY (norm) REFERENCES config.index_normalizer(id) ON DELETE CASCADE DEFERRABLE INITIALLY DEFERRED</text>
</g>
</g>
</svg>
