<?xml version="1.0" encoding="UTF-8" standalone="no"?>
<!DOCTYPE svg PUBLIC "-//W3C//DTD SVG 1.1//EN"
 "http://www.w3.org/Graphics/SVG/1.1/DTD/svg11.dtd">
<!-- Generated by graphviz version 2.40.1 (20161225.0304)
 -->
<!-- Title: authority.thesaurus Pages: 1 -->
<svg width="1066pt" height="562pt"
 viewBox="0.00 0.00 1065.50 562.00" xmlns="http://www.w3.org/2000/svg" xmlns:xlink="http://www.w3.org/1999/xlink">
<g id="graph0" class="graph" transform="scale(1 1) rotate(0) translate(4 558)">
<title>authority.thesaurus</title>
<polygon fill="#ffffff" stroke="transparent" points="-4,4 -4,-558 1061.5,-558 1061.5,4 -4,4"/>
<!-- authority.thesaurus -->
<g id="node1" class="node">
<title>authority.thesaurus</title>
<polygon fill="#efefef" stroke="transparent" points="717,-472.5 717,-507.5 1011,-507.5 1011,-472.5 717,-472.5"/>
<polygon fill="none" stroke="#000000" points="717,-472.5 717,-507.5 1011,-507.5 1011,-472.5 717,-472.5"/>
<text text-anchor="start" x="723.6944" y="-485.3" font-family="Arial Bold" font-size="18.00" fill="#000000">authority.thesaurus</text>
<text text-anchor="start" x="876.7376" y="-485.3" font-family="Arial" font-size="14.00" fill="#000000">    </text>
<text text-anchor="start" x="910.9424" y="-485.3" font-family="Arial" font-size="14.00" fill="#666666">[BASE TABLE]</text>
<polygon fill="none" stroke="#000000" points="717,-442.5 717,-472.5 1011,-472.5 1011,-442.5 717,-442.5"/>
<text text-anchor="start" x="724" y="-453.9" font-family="Arial" font-size="14.00" fill="#000000">code </text>
<text text-anchor="start" x="758.2384" y="-453.9" font-family="Arial" font-size="14.00" fill="#666666">[text]</text>
<polygon fill="none" stroke="#000000" points="717,-412.5 717,-442.5 1011,-442.5 1011,-412.5 717,-412.5"/>
<text text-anchor="start" x="724" y="-423.9" font-family="Arial" font-size="14.00" fill="#000000">control_set </text>
<text text-anchor="start" x="796.352" y="-423.9" font-family="Arial" font-size="14.00" fill="#666666">[integer]</text>
<polygon fill="none" stroke="#000000" points="717,-382.5 717,-412.5 1011,-412.5 1011,-382.5 717,-382.5"/>
<text text-anchor="start" x="724" y="-393.9" font-family="Arial" font-size="14.00" fill="#000000">name </text>
<text text-anchor="start" x="762.899" y="-393.9" font-family="Arial" font-size="14.00" fill="#666666">[text]</text>
<polygon fill="none" stroke="#000000" points="717,-352.5 717,-382.5 1011,-382.5 1011,-352.5 717,-352.5"/>
<text text-anchor="start" x="724" y="-363.9" font-family="Arial" font-size="14.00" fill="#000000">description </text>
<text text-anchor="start" x="795.568" y="-363.9" font-family="Arial" font-size="14.00" fill="#666666">[text]</text>
<polygon fill="none" stroke="#000000" points="717,-322.5 717,-352.5 1011,-352.5 1011,-322.5 717,-322.5"/>
<text text-anchor="start" x="724" y="-333.9" font-family="Arial" font-size="14.00" fill="#000000">short_code </text>
<text text-anchor="start" x="797.1374" y="-333.9" font-family="Arial" font-size="14.00" fill="#666666">[text]</text>
<polygon fill="none" stroke="#000000" points="717,-292.5 717,-322.5 1011,-322.5 1011,-292.5 717,-292.5"/>
<text text-anchor="start" x="724" y="-303.9" font-family="Arial" font-size="14.00" fill="#000000">uri </text>
<text text-anchor="start" x="743.4404" y="-303.9" font-family="Arial" font-size="14.00" fill="#666666">[text]</text>
<polygon fill="none" stroke="#000000" stroke-width="3" points="715.5,-291.5 715.5,-509.5 1012.5,-509.5 1012.5,-291.5 715.5,-291.5"/>
</g>
<!-- authority.control_set -->
<g id="node2" class="node">
<title>authority.control_set</title>
<polygon fill="#efefef" stroke="transparent" points="712,-132.5 712,-167.5 1015,-167.5 1015,-132.5 712,-132.5"/>
<polygon fill="none" stroke="#000000" points="712,-132.5 712,-167.5 1015,-167.5 1015,-132.5 712,-132.5"/>
<text text-anchor="start" x="718.6962" y="-145.3" font-family="Arial Bold" font-size="18.00" fill="#000000">authority.control_set</text>
<text text-anchor="start" x="880.7358" y="-145.3" font-family="Arial" font-size="14.00" fill="#000000">    </text>
<text text-anchor="start" x="914.9406" y="-145.3" font-family="Arial" font-size="14.00" fill="#666666">[BASE TABLE]</text>
<polygon fill="none" stroke="#000000" points="712,-102.5 712,-132.5 1015,-132.5 1015,-102.5 712,-102.5"/>
<text text-anchor="start" x="719" y="-113.9" font-family="Arial" font-size="14.00" fill="#000000">id    </text>
<text text-anchor="start" x="764.094" y="-113.9" font-family="Arial" font-size="14.00" fill="#666666">[integer]</text>
<polygon fill="none" stroke="#000000" points="712,-72.5 712,-102.5 1015,-102.5 1015,-72.5 712,-72.5"/>
<text text-anchor="start" x="719" y="-83.9" font-family="Arial" font-size="14.00" fill="#000000">name    </text>
<text text-anchor="start" x="788.2132" y="-83.9" font-family="Arial" font-size="14.00" fill="#666666">[text]</text>
<polygon fill="none" stroke="#000000" points="712,-42.5 712,-72.5 1015,-72.5 1015,-42.5 712,-42.5"/>
<text text-anchor="start" x="719" y="-53.9" font-family="Arial" font-size="14.00" fill="#000000">description    </text>
<text text-anchor="start" x="820.8822" y="-53.9" font-family="Arial" font-size="14.00" fill="#666666">[text]</text>
</g>
<!-- authority.thesaurus&#45;&gt;authority.control_set -->
<g id="edge1" class="edge">
<title>authority.thesaurus:control_set&#45;&gt;authority.control_set:id</title>
<path fill="none" stroke="#000000" d="M706.8306,-426.7871C639.2571,-416.7986 666.1751,-304.3343 717,-247 805.4958,-147.17 926.5042,-310.83 1015,-211 1042.5659,-179.9036 1056.5556,-117.5 1015,-117.5"/>
<polygon fill="#000000" stroke="#000000" points="707.0245,-426.8006 716.6853,-431.989 712.0122,-427.1503 717,-427.5 717,-427.5 717,-427.5 712.0122,-427.1503 717.3147,-423.011 707.0245,-426.8006 707.0245,-426.8006"/>
<text text-anchor="start" x="7.0365" y="-437.5" font-family="Arial" font-size="10.00" fill="#000000">FOREIGN KEY (control_set) REFERENCES authority.control_set(id) ON UPDATE CASCADE ON DELETE CASCADE DEFERRABLE INITIALLY DEFERRED</text>
</g>
</g>
</svg>
