<?xml version="1.0" encoding="UTF-8" standalone="no"?>
<!DOCTYPE svg PUBLIC "-//W3C//DTD SVG 1.1//EN"
 "http://www.w3.org/Graphics/SVG/1.1/DTD/svg11.dtd">
<!-- Generated by graphviz version 2.40.1 (20161225.0304)
 -->
<!-- Title: authority.record_entry Pages: 1 -->
<svg width="3226pt" height="1259pt"
 viewBox="0.00 0.00 3225.50 1259.00" xmlns="http://www.w3.org/2000/svg" xmlns:xlink="http://www.w3.org/1999/xlink">
<g id="graph0" class="graph" transform="scale(1 1) rotate(0) translate(4 1255)">
<title>authority.record_entry</title>
<polygon fill="#ffffff" stroke="transparent" points="-4,4 -4,-1255 3221.5,-1255 3221.5,4 -4,4"/>
<!-- authority.record_entry -->
<g id="node1" class="node">
<title>authority.record_entry</title>
<polygon fill="#efefef" stroke="transparent" points="1134.5,-712.5 1134.5,-747.5 1450.5,-747.5 1450.5,-712.5 1134.5,-712.5"/>
<polygon fill="none" stroke="#000000" points="1134.5,-712.5 1134.5,-747.5 1450.5,-747.5 1450.5,-712.5 1134.5,-712.5"/>
<text text-anchor="start" x="1141.1991" y="-725.3" font-family="Arial Bold" font-size="18.00" fill="#000000">authority.record_entry</text>
<text text-anchor="start" x="1316.2329" y="-725.3" font-family="Arial" font-size="14.00" fill="#000000">    </text>
<text text-anchor="start" x="1350.4377" y="-725.3" font-family="Arial" font-size="14.00" fill="#666666">[BASE TABLE]</text>
<polygon fill="none" stroke="#000000" points="1134.5,-682.5 1134.5,-712.5 1450.5,-712.5 1450.5,-682.5 1134.5,-682.5"/>
<text text-anchor="start" x="1141.5" y="-693.9" font-family="Arial" font-size="14.00" fill="#000000">id </text>
<text text-anchor="start" x="1156.2798" y="-693.9" font-family="Arial" font-size="14.00" fill="#666666">[bigint]</text>
<polygon fill="none" stroke="#000000" points="1134.5,-652.5 1134.5,-682.5 1450.5,-682.5 1450.5,-652.5 1134.5,-652.5"/>
<text text-anchor="start" x="1141.5" y="-663.9" font-family="Arial" font-size="14.00" fill="#000000">create_date </text>
<text text-anchor="start" x="1219.3106" y="-663.9" font-family="Arial" font-size="14.00" fill="#666666">[timestamp with time zone]</text>
<polygon fill="none" stroke="#000000" points="1134.5,-622.5 1134.5,-652.5 1450.5,-652.5 1450.5,-622.5 1134.5,-622.5"/>
<text text-anchor="start" x="1141.5" y="-633.9" font-family="Arial" font-size="14.00" fill="#000000">edit_date </text>
<text text-anchor="start" x="1202.974" y="-633.9" font-family="Arial" font-size="14.00" fill="#666666">[timestamp with time zone]</text>
<polygon fill="none" stroke="#000000" points="1134.5,-592.5 1134.5,-622.5 1450.5,-622.5 1450.5,-592.5 1134.5,-592.5"/>
<text text-anchor="start" x="1141.5" y="-603.9" font-family="Arial" font-size="14.00" fill="#000000">creator </text>
<text text-anchor="start" x="1188.9502" y="-603.9" font-family="Arial" font-size="14.00" fill="#666666">[integer]</text>
<polygon fill="none" stroke="#000000" points="1134.5,-562.5 1134.5,-592.5 1450.5,-592.5 1450.5,-562.5 1134.5,-562.5"/>
<text text-anchor="start" x="1141.5" y="-573.9" font-family="Arial" font-size="14.00" fill="#000000">editor </text>
<text text-anchor="start" x="1180.3962" y="-573.9" font-family="Arial" font-size="14.00" fill="#666666">[integer]</text>
<polygon fill="none" stroke="#000000" points="1134.5,-532.5 1134.5,-562.5 1450.5,-562.5 1450.5,-532.5 1134.5,-532.5"/>
<text text-anchor="start" x="1141.5" y="-543.9" font-family="Arial" font-size="14.00" fill="#000000">active </text>
<text text-anchor="start" x="1181.953" y="-543.9" font-family="Arial" font-size="14.00" fill="#666666">[boolean]</text>
<polygon fill="none" stroke="#000000" points="1134.5,-502.5 1134.5,-532.5 1450.5,-532.5 1450.5,-502.5 1134.5,-502.5"/>
<text text-anchor="start" x="1141.5" y="-513.9" font-family="Arial" font-size="14.00" fill="#000000">deleted </text>
<text text-anchor="start" x="1191.3008" y="-513.9" font-family="Arial" font-size="14.00" fill="#666666">[boolean]</text>
<polygon fill="none" stroke="#000000" points="1134.5,-472.5 1134.5,-502.5 1450.5,-502.5 1450.5,-472.5 1134.5,-472.5"/>
<text text-anchor="start" x="1141.5" y="-483.9" font-family="Arial" font-size="14.00" fill="#000000">source </text>
<text text-anchor="start" x="1187.399" y="-483.9" font-family="Arial" font-size="14.00" fill="#666666">[integer]</text>
<polygon fill="none" stroke="#000000" points="1134.5,-442.5 1134.5,-472.5 1450.5,-472.5 1450.5,-442.5 1134.5,-442.5"/>
<text text-anchor="start" x="1141.5" y="-453.9" font-family="Arial" font-size="14.00" fill="#000000">control_set </text>
<text text-anchor="start" x="1213.852" y="-453.9" font-family="Arial" font-size="14.00" fill="#666666">[integer]</text>
<polygon fill="none" stroke="#000000" points="1134.5,-412.5 1134.5,-442.5 1450.5,-442.5 1450.5,-412.5 1134.5,-412.5"/>
<text text-anchor="start" x="1141.5" y="-423.9" font-family="Arial" font-size="14.00" fill="#000000">marc </text>
<text text-anchor="start" x="1176.4944" y="-423.9" font-family="Arial" font-size="14.00" fill="#666666">[text]</text>
<polygon fill="none" stroke="#000000" points="1134.5,-382.5 1134.5,-412.5 1450.5,-412.5 1450.5,-382.5 1134.5,-382.5"/>
<text text-anchor="start" x="1141.5" y="-393.9" font-family="Arial" font-size="14.00" fill="#000000">last_xact_id </text>
<text text-anchor="start" x="1219.298" y="-393.9" font-family="Arial" font-size="14.00" fill="#666666">[text]</text>
<polygon fill="none" stroke="#000000" points="1134.5,-352.5 1134.5,-382.5 1450.5,-382.5 1450.5,-352.5 1134.5,-352.5"/>
<text text-anchor="start" x="1141.5" y="-363.9" font-family="Arial" font-size="14.00" fill="#000000">owner </text>
<text text-anchor="start" x="1183.5056" y="-363.9" font-family="Arial" font-size="14.00" fill="#666666">[integer]</text>
<polygon fill="none" stroke="#000000" points="1134.5,-322.5 1134.5,-352.5 1450.5,-352.5 1450.5,-322.5 1134.5,-322.5"/>
<text text-anchor="start" x="1141.5" y="-333.9" font-family="Arial" font-size="14.00" fill="#000000">heading </text>
<text text-anchor="start" x="1195.1928" y="-333.9" font-family="Arial" font-size="14.00" fill="#666666">[text]</text>
<polygon fill="none" stroke="#000000" points="1134.5,-292.5 1134.5,-322.5 1450.5,-322.5 1450.5,-292.5 1134.5,-292.5"/>
<text text-anchor="start" x="1141.5" y="-303.9" font-family="Arial" font-size="14.00" fill="#000000">simple_heading </text>
<text text-anchor="start" x="1243.4144" y="-303.9" font-family="Arial" font-size="14.00" fill="#666666">[text]</text>
<polygon fill="none" stroke="#000000" stroke-width="3" points="1133,-291.5 1133,-749.5 1452,-749.5 1452,-291.5 1133,-291.5"/>
</g>
<!-- authority.control_set -->
<g id="node9" class="node">
<title>authority.control_set</title>
<polygon fill="#efefef" stroke="transparent" points="1140.5,-132.5 1140.5,-167.5 1443.5,-167.5 1443.5,-132.5 1140.5,-132.5"/>
<polygon fill="none" stroke="#000000" points="1140.5,-132.5 1140.5,-167.5 1443.5,-167.5 1443.5,-132.5 1140.5,-132.5"/>
<text text-anchor="start" x="1147.1962" y="-145.3" font-family="Arial Bold" font-size="18.00" fill="#000000">authority.control_set</text>
<text text-anchor="start" x="1309.2358" y="-145.3" font-family="Arial" font-size="14.00" fill="#000000">    </text>
<text text-anchor="start" x="1343.4406" y="-145.3" font-family="Arial" font-size="14.00" fill="#666666">[BASE TABLE]</text>
<polygon fill="none" stroke="#000000" points="1140.5,-102.5 1140.5,-132.5 1443.5,-132.5 1443.5,-102.5 1140.5,-102.5"/>
<text text-anchor="start" x="1147.5" y="-113.9" font-family="Arial" font-size="14.00" fill="#000000">id    </text>
<text text-anchor="start" x="1192.594" y="-113.9" font-family="Arial" font-size="14.00" fill="#666666">[integer]</text>
<polygon fill="none" stroke="#000000" points="1140.5,-72.5 1140.5,-102.5 1443.5,-102.5 1443.5,-72.5 1140.5,-72.5"/>
<text text-anchor="start" x="1147.5" y="-83.9" font-family="Arial" font-size="14.00" fill="#000000">name    </text>
<text text-anchor="start" x="1216.7132" y="-83.9" font-family="Arial" font-size="14.00" fill="#666666">[text]</text>
<polygon fill="none" stroke="#000000" points="1140.5,-42.5 1140.5,-72.5 1443.5,-72.5 1443.5,-42.5 1140.5,-42.5"/>
<text text-anchor="start" x="1147.5" y="-53.9" font-family="Arial" font-size="14.00" fill="#000000">description    </text>
<text text-anchor="start" x="1249.3822" y="-53.9" font-family="Arial" font-size="14.00" fill="#666666">[text]</text>
</g>
<!-- authority.record_entry&#45;&gt;authority.control_set -->
<g id="edge9" class="edge">
<title>authority.record_entry:control_set&#45;&gt;authority.control_set:id</title>
<path fill="none" stroke="#000000" d="M1124.1026,-456.8689C1043.4405,-446.6218 1074.7216,-314.1472 1134.5,-247 1226.4354,-143.7318 1351.5646,-314.2682 1443.5,-211 1471.1318,-179.9621 1485.0556,-117.5 1443.5,-117.5"/>
<polygon fill="#000000" stroke="#000000" points="1124.5184,-456.894 1134.2273,-461.9917 1129.5092,-457.197 1134.5,-457.5 1134.5,-457.5 1134.5,-457.5 1129.5092,-457.197 1134.7727,-453.0083 1124.5184,-456.894 1124.5184,-456.894"/>
<text text-anchor="start" x="534.8175" y="-467.5" font-family="Arial" font-size="10.00" fill="#000000">FOREIGN KEY (control_set) REFERENCES authority.control_set(id) ON UPDATE CASCADE DEFERRABLE INITIALLY DEFERRED</text>
</g>
<!-- authority.authority_linking -->
<g id="node2" class="node">
<title>authority.authority_linking</title>
<polygon fill="#efefef" stroke="transparent" points="43.5,-1082.5 43.5,-1117.5 388.5,-1117.5 388.5,-1082.5 43.5,-1082.5"/>
<polygon fill="none" stroke="#000000" points="43.5,-1082.5 43.5,-1117.5 388.5,-1117.5 388.5,-1082.5 43.5,-1082.5"/>
<text text-anchor="start" x="50.1956" y="-1095.3" font-family="Arial Bold" font-size="18.00" fill="#000000">authority.authority_linking</text>
<text text-anchor="start" x="254.2364" y="-1095.3" font-family="Arial" font-size="14.00" fill="#000000">    </text>
<text text-anchor="start" x="288.4412" y="-1095.3" font-family="Arial" font-size="14.00" fill="#666666">[BASE TABLE]</text>
<polygon fill="none" stroke="#000000" points="43.5,-1052.5 43.5,-1082.5 388.5,-1082.5 388.5,-1052.5 43.5,-1052.5"/>
<text text-anchor="start" x="50.5" y="-1063.9" font-family="Arial" font-size="14.00" fill="#000000">id    </text>
<text text-anchor="start" x="95.594" y="-1063.9" font-family="Arial" font-size="14.00" fill="#666666">[bigint]</text>
<polygon fill="none" stroke="#000000" points="43.5,-1022.5 43.5,-1052.5 388.5,-1052.5 388.5,-1022.5 43.5,-1022.5"/>
<text text-anchor="start" x="50.5" y="-1033.9" font-family="Arial" font-size="14.00" fill="#000000">source    </text>
<text text-anchor="start" x="126.7132" y="-1033.9" font-family="Arial" font-size="14.00" fill="#666666">[bigint]</text>
<polygon fill="none" stroke="#000000" points="43.5,-992.5 43.5,-1022.5 388.5,-1022.5 388.5,-992.5 43.5,-992.5"/>
<text text-anchor="start" x="50.5" y="-1003.9" font-family="Arial" font-size="14.00" fill="#000000">target    </text>
<text text-anchor="start" x="120.4944" y="-1003.9" font-family="Arial" font-size="14.00" fill="#666666">[bigint]</text>
<polygon fill="none" stroke="#000000" points="43.5,-962.5 43.5,-992.5 388.5,-992.5 388.5,-962.5 43.5,-962.5"/>
<text text-anchor="start" x="50.5" y="-973.9" font-family="Arial" font-size="14.00" fill="#000000">field    </text>
<text text-anchor="start" x="110.3738" y="-973.9" font-family="Arial" font-size="14.00" fill="#666666">[integer]</text>
</g>
<!-- authority.authority_linking&#45;&gt;authority.record_entry -->
<g id="edge1" class="edge">
<title>authority.authority_linking:source&#45;&gt;authority.record_entry:id</title>
<path fill="none" stroke="#000000" d="M398.7008,-1036.8624C474.9269,-1026.5126 373.2962,-892.8088 439.5,-830 553.5618,-721.7874 977.2739,-697.5 1134.5,-697.5"/>
<polygon fill="#000000" stroke="#000000" points="398.4805,-1036.8761 388.2192,-1033.0088 393.4903,-1037.188 388.5,-1037.5 388.5,-1037.5 388.5,-1037.5 393.4903,-1037.188 388.7808,-1041.9912 398.4805,-1036.8761 398.4805,-1036.8761"/>
<text text-anchor="start" x="242.3265" y="-1021.5" font-family="Arial" font-size="10.00" fill="#000000">FOREIGN KEY (source) REFERENCES authority.record_entry(id)</text>
</g>
<!-- authority.authority_linking&#45;&gt;authority.record_entry -->
<g id="edge2" class="edge">
<title>authority.authority_linking:target&#45;&gt;authority.record_entry:id</title>
<path fill="none" stroke="#000000" d="M398.5391,-1006.7775C462.6484,-996.6585 381.5929,-882.8423 439.5,-830 555.6386,-724.0194 977.2739,-697.5 1134.5,-697.5"/>
<polygon fill="#000000" stroke="#000000" points="398.4742,-1006.7821 388.1769,-1003.0116 393.4871,-1007.141 388.5,-1007.5 388.5,-1007.5 388.5,-1007.5 393.4871,-1007.141 388.8231,-1011.9884 398.4742,-1006.7821 398.4742,-1006.7821"/>
<text text-anchor="start" x="244.0475" y="-991.5" font-family="Arial" font-size="10.00" fill="#000000">FOREIGN KEY (target) REFERENCES authority.record_entry(id)</text>
</g>
<!-- authority.simple_heading -->
<g id="node3" class="node">
<title>authority.simple_heading</title>
<polygon fill="#efefef" stroke="transparent" points="492.5,-1127.5 492.5,-1162.5 833.5,-1162.5 833.5,-1127.5 492.5,-1127.5"/>
<polygon fill="none" stroke="#000000" points="492.5,-1127.5 492.5,-1162.5 833.5,-1162.5 833.5,-1127.5 492.5,-1127.5"/>
<text text-anchor="start" x="499.1918" y="-1140.3" font-family="Arial Bold" font-size="18.00" fill="#000000">authority.simple_heading</text>
<text text-anchor="start" x="699.2402" y="-1140.3" font-family="Arial" font-size="14.00" fill="#000000">    </text>
<text text-anchor="start" x="733.445" y="-1140.3" font-family="Arial" font-size="14.00" fill="#666666">[BASE TABLE]</text>
<polygon fill="none" stroke="#000000" points="492.5,-1097.5 492.5,-1127.5 833.5,-1127.5 833.5,-1097.5 492.5,-1097.5"/>
<text text-anchor="start" x="499.5" y="-1108.9" font-family="Arial" font-size="14.00" fill="#000000">id    </text>
<text text-anchor="start" x="544.594" y="-1108.9" font-family="Arial" font-size="14.00" fill="#666666">[bigint]</text>
<polygon fill="none" stroke="#000000" points="492.5,-1067.5 492.5,-1097.5 833.5,-1097.5 833.5,-1067.5 492.5,-1067.5"/>
<text text-anchor="start" x="499.5" y="-1078.9" font-family="Arial" font-size="14.00" fill="#000000">record    </text>
<text text-anchor="start" x="573.3738" y="-1078.9" font-family="Arial" font-size="14.00" fill="#666666">[bigint]</text>
<polygon fill="none" stroke="#000000" points="492.5,-1037.5 492.5,-1067.5 833.5,-1067.5 833.5,-1037.5 492.5,-1037.5"/>
<text text-anchor="start" x="499.5" y="-1048.9" font-family="Arial" font-size="14.00" fill="#000000">atag    </text>
<text text-anchor="start" x="560.9432" y="-1048.9" font-family="Arial" font-size="14.00" fill="#666666">[integer]</text>
<polygon fill="none" stroke="#000000" points="492.5,-1007.5 492.5,-1037.5 833.5,-1037.5 833.5,-1007.5 492.5,-1007.5"/>
<text text-anchor="start" x="499.5" y="-1018.9" font-family="Arial" font-size="14.00" fill="#000000">value    </text>
<text text-anchor="start" x="567.1592" y="-1018.9" font-family="Arial" font-size="14.00" fill="#666666">[text]</text>
<polygon fill="none" stroke="#000000" points="492.5,-977.5 492.5,-1007.5 833.5,-1007.5 833.5,-977.5 492.5,-977.5"/>
<text text-anchor="start" x="499.5" y="-988.9" font-family="Arial" font-size="14.00" fill="#000000">sort_value    </text>
<text text-anchor="start" x="598.2756" y="-988.9" font-family="Arial" font-size="14.00" fill="#666666">[text]</text>
<polygon fill="none" stroke="#000000" points="492.5,-947.5 492.5,-977.5 833.5,-977.5 833.5,-947.5 492.5,-947.5"/>
<text text-anchor="start" x="499.5" y="-958.9" font-family="Arial" font-size="14.00" fill="#000000">index_vector    </text>
<text text-anchor="start" x="613.0582" y="-958.9" font-family="Arial" font-size="14.00" fill="#666666">[tsvector]</text>
<polygon fill="none" stroke="#000000" points="492.5,-917.5 492.5,-947.5 833.5,-947.5 833.5,-917.5 492.5,-917.5"/>
<text text-anchor="start" x="499.5" y="-928.9" font-family="Arial" font-size="14.00" fill="#000000">thesaurus    </text>
<text text-anchor="start" x="595.169" y="-928.9" font-family="Arial" font-size="14.00" fill="#666666">[text]</text>
</g>
<!-- authority.simple_heading&#45;&gt;authority.record_entry -->
<g id="edge3" class="edge">
<title>authority.simple_heading:record&#45;&gt;authority.record_entry:id</title>
<path fill="none" stroke="#000000" d="M843.5351,-1082.036C940.0708,-1072.5196 818.9963,-918.868 885.5,-830 960.6092,-729.6326 1009.1405,-697.5 1134.5,-697.5"/>
<polygon fill="#000000" stroke="#000000" points="843.4893,-1082.038 833.2921,-1078.0048 838.4947,-1082.269 833.5,-1082.5 833.5,-1082.5 833.5,-1082.5 838.4947,-1082.269 833.7079,-1086.9952 843.4893,-1082.038 843.4893,-1082.038"/>
<text text-anchor="start" x="688.162" y="-1066.5" font-family="Arial" font-size="10.00" fill="#000000">FOREIGN KEY (record) REFERENCES authority.record_entry(id)</text>
</g>
<!-- authority.bib_linking -->
<g id="node4" class="node">
<title>authority.bib_linking</title>
<polygon fill="#efefef" stroke="transparent" points="937.5,-1067.5 937.5,-1102.5 1237.5,-1102.5 1237.5,-1067.5 937.5,-1067.5"/>
<polygon fill="none" stroke="#000000" points="937.5,-1067.5 937.5,-1102.5 1237.5,-1102.5 1237.5,-1067.5 937.5,-1067.5"/>
<text text-anchor="start" x="944.2001" y="-1080.3" font-family="Arial Bold" font-size="18.00" fill="#000000">authority.bib_linking</text>
<text text-anchor="start" x="1103.2319" y="-1080.3" font-family="Arial" font-size="14.00" fill="#000000">    </text>
<text text-anchor="start" x="1137.4367" y="-1080.3" font-family="Arial" font-size="14.00" fill="#666666">[BASE TABLE]</text>
<polygon fill="none" stroke="#000000" points="937.5,-1037.5 937.5,-1067.5 1237.5,-1067.5 1237.5,-1037.5 937.5,-1037.5"/>
<text text-anchor="start" x="944.5" y="-1048.9" font-family="Arial" font-size="14.00" fill="#000000">id    </text>
<text text-anchor="start" x="989.594" y="-1048.9" font-family="Arial" font-size="14.00" fill="#666666">[bigint]</text>
<polygon fill="none" stroke="#000000" points="937.5,-1007.5 937.5,-1037.5 1237.5,-1037.5 1237.5,-1007.5 937.5,-1007.5"/>
<text text-anchor="start" x="944.5" y="-1018.9" font-family="Arial" font-size="14.00" fill="#000000">bib    </text>
<text text-anchor="start" x="997.3766" y="-1018.9" font-family="Arial" font-size="14.00" fill="#666666">[bigint]</text>
<polygon fill="none" stroke="#000000" points="937.5,-977.5 937.5,-1007.5 1237.5,-1007.5 1237.5,-977.5 937.5,-977.5"/>
<text text-anchor="start" x="944.5" y="-988.9" font-family="Arial" font-size="14.00" fill="#000000">authority    </text>
<text text-anchor="start" x="1032.3836" y="-988.9" font-family="Arial" font-size="14.00" fill="#666666">[bigint]</text>
</g>
<!-- authority.bib_linking&#45;&gt;authority.record_entry -->
<g id="edge4" class="edge">
<title>authority.bib_linking:authority&#45;&gt;authority.record_entry:id</title>
<path fill="none" stroke="#000000" d="M1247.4001,-989.528C1257.034,-980.8545 1244.0038,-954.9291 1237.5,-935 1213.4231,-861.2232 1158.5769,-867.7768 1134.5,-794 1121.1939,-753.2274 1091.6111,-697.5 1134.5,-697.5"/>
<polygon fill="#000000" stroke="#000000" points="1247.0777,-989.6247 1236.2061,-988.19 1242.2889,-991.0623 1237.5,-992.5 1237.5,-992.5 1237.5,-992.5 1242.2889,-991.0623 1238.7939,-996.81 1247.0777,-989.6247 1247.0777,-989.6247"/>
<text text-anchor="start" x="1244.6585" y="-1002.5" font-family="Arial" font-size="10.00" fill="#000000">FOREIGN KEY (authority) REFERENCES authority.record_entry(id)</text>
</g>
<!-- authority.record_note -->
<g id="node5" class="node">
<title>authority.record_note</title>
<polygon fill="#efefef" stroke="transparent" points="1342.5,-1127.5 1342.5,-1162.5 1653.5,-1162.5 1653.5,-1127.5 1342.5,-1127.5"/>
<polygon fill="none" stroke="#000000" points="1342.5,-1127.5 1342.5,-1162.5 1653.5,-1162.5 1653.5,-1127.5 1342.5,-1127.5"/>
<text text-anchor="start" x="1349.1921" y="-1140.3" font-family="Arial Bold" font-size="18.00" fill="#000000">authority.record_note</text>
<text text-anchor="start" x="1519.2399" y="-1140.3" font-family="Arial" font-size="14.00" fill="#000000">    </text>
<text text-anchor="start" x="1553.4447" y="-1140.3" font-family="Arial" font-size="14.00" fill="#666666">[BASE TABLE]</text>
<polygon fill="none" stroke="#000000" points="1342.5,-1097.5 1342.5,-1127.5 1653.5,-1127.5 1653.5,-1097.5 1342.5,-1097.5"/>
<text text-anchor="start" x="1349.5" y="-1108.9" font-family="Arial" font-size="14.00" fill="#000000">id    </text>
<text text-anchor="start" x="1394.594" y="-1108.9" font-family="Arial" font-size="14.00" fill="#666666">[bigint]</text>
<polygon fill="none" stroke="#000000" points="1342.5,-1067.5 1342.5,-1097.5 1653.5,-1097.5 1653.5,-1067.5 1342.5,-1067.5"/>
<text text-anchor="start" x="1349.5" y="-1078.9" font-family="Arial" font-size="14.00" fill="#000000">record    </text>
<text text-anchor="start" x="1423.3738" y="-1078.9" font-family="Arial" font-size="14.00" fill="#666666">[bigint]</text>
<polygon fill="none" stroke="#000000" points="1342.5,-1037.5 1342.5,-1067.5 1653.5,-1067.5 1653.5,-1037.5 1342.5,-1037.5"/>
<text text-anchor="start" x="1349.5" y="-1048.9" font-family="Arial" font-size="14.00" fill="#000000">value    </text>
<text text-anchor="start" x="1417.1592" y="-1048.9" font-family="Arial" font-size="14.00" fill="#666666">[text]</text>
<polygon fill="none" stroke="#000000" points="1342.5,-1007.5 1342.5,-1037.5 1653.5,-1037.5 1653.5,-1007.5 1342.5,-1007.5"/>
<text text-anchor="start" x="1349.5" y="-1018.9" font-family="Arial" font-size="14.00" fill="#000000">creator    </text>
<text text-anchor="start" x="1427.2644" y="-1018.9" font-family="Arial" font-size="14.00" fill="#666666">[integer]</text>
<polygon fill="none" stroke="#000000" points="1342.5,-977.5 1342.5,-1007.5 1653.5,-1007.5 1653.5,-977.5 1342.5,-977.5"/>
<text text-anchor="start" x="1349.5" y="-988.9" font-family="Arial" font-size="14.00" fill="#000000">editor    </text>
<text text-anchor="start" x="1418.7104" y="-988.9" font-family="Arial" font-size="14.00" fill="#666666">[integer]</text>
<polygon fill="none" stroke="#000000" points="1342.5,-947.5 1342.5,-977.5 1653.5,-977.5 1653.5,-947.5 1342.5,-947.5"/>
<text text-anchor="start" x="1349.5" y="-958.9" font-family="Arial" font-size="14.00" fill="#000000">create_date    </text>
<text text-anchor="start" x="1457.6248" y="-958.9" font-family="Arial" font-size="14.00" fill="#666666">[timestamp with time zone]</text>
<polygon fill="none" stroke="#000000" points="1342.5,-917.5 1342.5,-947.5 1653.5,-947.5 1653.5,-917.5 1342.5,-917.5"/>
<text text-anchor="start" x="1349.5" y="-928.9" font-family="Arial" font-size="14.00" fill="#000000">edit_date    </text>
<text text-anchor="start" x="1441.2882" y="-928.9" font-family="Arial" font-size="14.00" fill="#666666">[timestamp with time zone]</text>
</g>
<!-- authority.record_note&#45;&gt;authority.record_entry -->
<g id="edge5" class="edge">
<title>authority.record_note:record&#45;&gt;authority.record_entry:id</title>
<path fill="none" stroke="#000000" d="M1332.3391,-1081.9377C1254.2457,-1072.7982 1302.868,-954.264 1342.5,-875 1369.3328,-821.3344 1423.6672,-847.6656 1450.5,-794 1469.6805,-755.639 1493.3889,-697.5 1450.5,-697.5"/>
<polygon fill="#000000" stroke="#000000" points="1332.5153,-1081.9474 1342.2513,-1086.9931 1337.5076,-1082.2237 1342.5,-1082.5 1342.5,-1082.5 1342.5,-1082.5 1337.5076,-1082.2237 1342.7487,-1078.0069 1332.5153,-1081.9474 1332.5153,-1081.9474"/>
<text text-anchor="start" x="1349.602" y="-1092.5" font-family="Arial" font-size="10.00" fill="#000000">FOREIGN KEY (record) REFERENCES authority.record_entry(id) DEFERRABLE INITIALLY DEFERRED</text>
</g>
<!-- metabib.browse_entry_def_map -->
<g id="node6" class="node">
<title>metabib.browse_entry_def_map</title>
<polygon fill="#efefef" stroke="transparent" points="1757.5,-1097.5 1757.5,-1132.5 2155.5,-1132.5 2155.5,-1097.5 1757.5,-1097.5"/>
<polygon fill="none" stroke="#000000" points="1757.5,-1097.5 1757.5,-1132.5 2155.5,-1132.5 2155.5,-1097.5 1757.5,-1097.5"/>
<text text-anchor="start" x="1764.1834" y="-1110.3" font-family="Arial Bold" font-size="18.00" fill="#000000">metabib.browse_entry_def_map</text>
<text text-anchor="start" x="2021.2486" y="-1110.3" font-family="Arial" font-size="14.00" fill="#000000">    </text>
<text text-anchor="start" x="2055.4534" y="-1110.3" font-family="Arial" font-size="14.00" fill="#666666">[BASE TABLE]</text>
<polygon fill="none" stroke="#000000" points="1757.5,-1067.5 1757.5,-1097.5 2155.5,-1097.5 2155.5,-1067.5 1757.5,-1067.5"/>
<text text-anchor="start" x="1764.5" y="-1078.9" font-family="Arial" font-size="14.00" fill="#000000">id    </text>
<text text-anchor="start" x="1809.594" y="-1078.9" font-family="Arial" font-size="14.00" fill="#666666">[bigint]</text>
<polygon fill="none" stroke="#000000" points="1757.5,-1037.5 1757.5,-1067.5 2155.5,-1067.5 2155.5,-1037.5 1757.5,-1037.5"/>
<text text-anchor="start" x="1764.5" y="-1048.9" font-family="Arial" font-size="14.00" fill="#000000">entry    </text>
<text text-anchor="start" x="1829.8212" y="-1048.9" font-family="Arial" font-size="14.00" fill="#666666">[bigint]</text>
<polygon fill="none" stroke="#000000" points="1757.5,-1007.5 1757.5,-1037.5 2155.5,-1037.5 2155.5,-1007.5 1757.5,-1007.5"/>
<text text-anchor="start" x="1764.5" y="-1018.9" font-family="Arial" font-size="14.00" fill="#000000">def    </text>
<text text-anchor="start" x="1818.1606" y="-1018.9" font-family="Arial" font-size="14.00" fill="#666666">[integer]</text>
<polygon fill="none" stroke="#000000" points="1757.5,-977.5 1757.5,-1007.5 2155.5,-1007.5 2155.5,-977.5 1757.5,-977.5"/>
<text text-anchor="start" x="1764.5" y="-988.9" font-family="Arial" font-size="14.00" fill="#000000">source    </text>
<text text-anchor="start" x="1840.7132" y="-988.9" font-family="Arial" font-size="14.00" fill="#666666">[bigint]</text>
<polygon fill="none" stroke="#000000" points="1757.5,-947.5 1757.5,-977.5 2155.5,-977.5 2155.5,-947.5 1757.5,-947.5"/>
<text text-anchor="start" x="1764.5" y="-958.9" font-family="Arial" font-size="14.00" fill="#000000">authority    </text>
<text text-anchor="start" x="1852.3836" y="-958.9" font-family="Arial" font-size="14.00" fill="#666666">[bigint]</text>
</g>
<!-- metabib.browse_entry_def_map&#45;&gt;authority.record_entry -->
<g id="edge6" class="edge">
<title>metabib.browse_entry_def_map:authority&#45;&gt;authority.record_entry:id</title>
<path fill="none" stroke="#000000" d="M1747.2469,-961.5875C1700.3751,-952.2903 1745.2561,-874.1761 1705.5,-830 1620.0629,-735.064 1578.2198,-697.5 1450.5,-697.5"/>
<polygon fill="#000000" stroke="#000000" points="1747.5394,-961.6134 1757.101,-966.9823 1752.5197,-962.0567 1757.5,-962.5 1757.5,-962.5 1757.5,-962.5 1752.5197,-962.0567 1757.899,-958.0177 1747.5394,-961.6134 1747.5394,-961.6134"/>
<text text-anchor="start" x="1339.653" y="-972.5" font-family="Arial" font-size="10.00" fill="#000000">FOREIGN KEY (authority) REFERENCES authority.record_entry(id) ON DELETE SET NULL</text>
</g>
<!-- vandelay.authority_match -->
<g id="node7" class="node">
<title>vandelay.authority_match</title>
<polygon fill="#efefef" stroke="transparent" points="2259.5,-1097.5 2259.5,-1132.5 2605.5,-1132.5 2605.5,-1097.5 2259.5,-1097.5"/>
<polygon fill="none" stroke="#000000" points="2259.5,-1097.5 2259.5,-1132.5 2605.5,-1132.5 2605.5,-1097.5 2259.5,-1097.5"/>
<text text-anchor="start" x="2266.188" y="-1110.3" font-family="Arial Bold" font-size="18.00" fill="#000000">vandelay.authority_match</text>
<text text-anchor="start" x="2471.244" y="-1110.3" font-family="Arial" font-size="14.00" fill="#000000">    </text>
<text text-anchor="start" x="2505.4488" y="-1110.3" font-family="Arial" font-size="14.00" fill="#666666">[BASE TABLE]</text>
<polygon fill="none" stroke="#000000" points="2259.5,-1067.5 2259.5,-1097.5 2605.5,-1097.5 2605.5,-1067.5 2259.5,-1067.5"/>
<text text-anchor="start" x="2266.5" y="-1078.9" font-family="Arial" font-size="14.00" fill="#000000">id    </text>
<text text-anchor="start" x="2311.594" y="-1078.9" font-family="Arial" font-size="14.00" fill="#666666">[bigint]</text>
<polygon fill="none" stroke="#000000" points="2259.5,-1037.5 2259.5,-1067.5 2605.5,-1067.5 2605.5,-1037.5 2259.5,-1037.5"/>
<text text-anchor="start" x="2266.5" y="-1048.9" font-family="Arial" font-size="14.00" fill="#000000">queued_record    </text>
<text text-anchor="start" x="2394.852" y="-1048.9" font-family="Arial" font-size="14.00" fill="#666666">[bigint]</text>
<polygon fill="none" stroke="#000000" points="2259.5,-1007.5 2259.5,-1037.5 2605.5,-1037.5 2605.5,-1007.5 2259.5,-1007.5"/>
<text text-anchor="start" x="2266.5" y="-1018.9" font-family="Arial" font-size="14.00" fill="#000000">eg_record    </text>
<text text-anchor="start" x="2363.7216" y="-1018.9" font-family="Arial" font-size="14.00" fill="#666666">[bigint]</text>
<polygon fill="none" stroke="#000000" points="2259.5,-977.5 2259.5,-1007.5 2605.5,-1007.5 2605.5,-977.5 2259.5,-977.5"/>
<text text-anchor="start" x="2266.5" y="-988.9" font-family="Arial" font-size="14.00" fill="#000000">quality    </text>
<text text-anchor="start" x="2341.1564" y="-988.9" font-family="Arial" font-size="14.00" fill="#666666">[integer]</text>
<polygon fill="none" stroke="#000000" points="2259.5,-947.5 2259.5,-977.5 2605.5,-977.5 2605.5,-947.5 2259.5,-947.5"/>
<text text-anchor="start" x="2266.5" y="-958.9" font-family="Arial" font-size="14.00" fill="#000000">match_score    </text>
<text text-anchor="start" x="2380.8296" y="-958.9" font-family="Arial" font-size="14.00" fill="#666666">[integer]</text>
</g>
<!-- vandelay.authority_match&#45;&gt;authority.record_entry -->
<g id="edge7" class="edge">
<title>vandelay.authority_match:eg_record&#45;&gt;authority.record_entry:id</title>
<path fill="none" stroke="#000000" d="M2249.1038,-1021.7811C2179.3394,-1011.2278 2270.1257,-887.1967 2207.5,-830 2081.3985,-714.8301 1621.2797,-697.5 1450.5,-697.5"/>
<polygon fill="#000000" stroke="#000000" points="2249.5238,-1021.8101 2259.1895,-1026.9893 2254.5119,-1022.155 2259.5,-1022.5 2259.5,-1022.5 2259.5,-1022.5 2254.5119,-1022.155 2259.8105,-1018.0107 2249.5238,-1021.8101 2249.5238,-1021.8101"/>
<text text-anchor="start" x="1768.2635" y="-1032.5" font-family="Arial" font-size="10.00" fill="#000000">FOREIGN KEY (eg_record) REFERENCES authority.record_entry(id) DEFERRABLE INITIALLY DEFERRED</text>
</g>
<!-- vandelay.queued_authority_record -->
<g id="node8" class="node">
<title>vandelay.queued_authority_record</title>
<polygon fill="#efefef" stroke="transparent" points="2709.5,-1172.5 2709.5,-1207.5 3127.5,-1207.5 3127.5,-1172.5 2709.5,-1172.5"/>
<polygon fill="none" stroke="#000000" points="2709.5,-1172.5 2709.5,-1207.5 3127.5,-1207.5 3127.5,-1172.5 2709.5,-1172.5"/>
<text text-anchor="start" x="2716.1682" y="-1185.3" font-family="Arial Bold" font-size="18.00" fill="#000000">vandelay.queued_authority_record</text>
<text text-anchor="start" x="2993.2638" y="-1185.3" font-family="Arial" font-size="14.00" fill="#000000">    </text>
<text text-anchor="start" x="3027.4686" y="-1185.3" font-family="Arial" font-size="14.00" fill="#666666">[BASE TABLE]</text>
<polygon fill="none" stroke="#000000" points="2709.5,-1142.5 2709.5,-1172.5 3127.5,-1172.5 3127.5,-1142.5 2709.5,-1142.5"/>
<text text-anchor="start" x="2716.5" y="-1153.9" font-family="Arial" font-size="14.00" fill="#000000">id    </text>
<text text-anchor="start" x="2761.594" y="-1153.9" font-family="Arial" font-size="14.00" fill="#666666">[bigint]</text>
<polygon fill="none" stroke="#000000" points="2709.5,-1112.5 2709.5,-1142.5 3127.5,-1142.5 3127.5,-1112.5 2709.5,-1112.5"/>
<text text-anchor="start" x="2716.5" y="-1123.9" font-family="Arial" font-size="14.00" fill="#000000">create_time    </text>
<text text-anchor="start" x="2823.8268" y="-1123.9" font-family="Arial" font-size="14.00" fill="#666666">[timestamp with time zone]</text>
<polygon fill="none" stroke="#000000" points="2709.5,-1082.5 2709.5,-1112.5 3127.5,-1112.5 3127.5,-1082.5 2709.5,-1082.5"/>
<text text-anchor="start" x="2716.5" y="-1093.9" font-family="Arial" font-size="14.00" fill="#000000">import_time    </text>
<text text-anchor="start" x="2823.8114" y="-1093.9" font-family="Arial" font-size="14.00" fill="#666666">[timestamp with time zone]</text>
<polygon fill="none" stroke="#000000" points="2709.5,-1052.5 2709.5,-1082.5 3127.5,-1082.5 3127.5,-1052.5 2709.5,-1052.5"/>
<text text-anchor="start" x="2716.5" y="-1063.9" font-family="Arial" font-size="14.00" fill="#000000">purpose    </text>
<text text-anchor="start" x="2801.2784" y="-1063.9" font-family="Arial" font-size="14.00" fill="#666666">[text]</text>
<polygon fill="none" stroke="#000000" points="2709.5,-1022.5 2709.5,-1052.5 3127.5,-1052.5 3127.5,-1022.5 2709.5,-1022.5"/>
<text text-anchor="start" x="2716.5" y="-1033.9" font-family="Arial" font-size="14.00" fill="#000000">marc    </text>
<text text-anchor="start" x="2781.8086" y="-1033.9" font-family="Arial" font-size="14.00" fill="#666666">[text]</text>
<polygon fill="none" stroke="#000000" points="2709.5,-992.5 2709.5,-1022.5 3127.5,-1022.5 3127.5,-992.5 2709.5,-992.5"/>
<text text-anchor="start" x="2716.5" y="-1003.9" font-family="Arial" font-size="14.00" fill="#000000">quality    </text>
<text text-anchor="start" x="2791.1564" y="-1003.9" font-family="Arial" font-size="14.00" fill="#666666">[integer]</text>
<polygon fill="none" stroke="#000000" points="2709.5,-962.5 2709.5,-992.5 3127.5,-992.5 3127.5,-962.5 2709.5,-962.5"/>
<text text-anchor="start" x="2716.5" y="-973.9" font-family="Arial" font-size="14.00" fill="#000000">queue    </text>
<text text-anchor="start" x="2789.6178" y="-973.9" font-family="Arial" font-size="14.00" fill="#666666">[integer]</text>
<polygon fill="none" stroke="#000000" points="2709.5,-932.5 2709.5,-962.5 3127.5,-962.5 3127.5,-932.5 2709.5,-932.5"/>
<text text-anchor="start" x="2716.5" y="-943.9" font-family="Arial" font-size="14.00" fill="#000000">imported_as    </text>
<text text-anchor="start" x="2827.7188" y="-943.9" font-family="Arial" font-size="14.00" fill="#666666">[integer]</text>
<polygon fill="none" stroke="#000000" points="2709.5,-902.5 2709.5,-932.5 3127.5,-932.5 3127.5,-902.5 2709.5,-902.5"/>
<text text-anchor="start" x="2716.5" y="-913.9" font-family="Arial" font-size="14.00" fill="#000000">import_error    </text>
<text text-anchor="start" x="2826.918" y="-913.9" font-family="Arial" font-size="14.00" fill="#666666">[text]</text>
<polygon fill="none" stroke="#000000" points="2709.5,-872.5 2709.5,-902.5 3127.5,-902.5 3127.5,-872.5 2709.5,-872.5"/>
<text text-anchor="start" x="2716.5" y="-883.9" font-family="Arial" font-size="14.00" fill="#000000">error_detail    </text>
<text text-anchor="start" x="2821.486" y="-883.9" font-family="Arial" font-size="14.00" fill="#666666">[text]</text>
</g>
<!-- vandelay.queued_authority_record&#45;&gt;authority.record_entry -->
<g id="edge8" class="edge">
<title>vandelay.queued_authority_record:imported_as&#45;&gt;authority.record_entry:id</title>
<path fill="none" stroke="#000000" d="M2699.4956,-946.4309C2658.7625,-936.5944 2700.5254,-861.4856 2657.5,-830 2548.6224,-750.3243 1585.4168,-697.5 1450.5,-697.5"/>
<polygon fill="#000000" stroke="#000000" points="2699.5566,-946.4373 2709.0218,-951.9745 2704.5283,-946.9687 2709.5,-947.5 2709.5,-947.5 2709.5,-947.5 2704.5283,-946.9687 2709.9782,-943.0255 2699.5566,-946.4373 2699.5566,-946.4373"/>
<text text-anchor="start" x="2716.2645" y="-957.5" font-family="Arial" font-size="10.00" fill="#000000">FOREIGN KEY (imported_as) REFERENCES authority.record_entry(id) DEFERRABLE INITIALLY DEFERRED</text>
</g>
</g>
</svg>
