<?xml version="1.0" encoding="UTF-8" standalone="no"?>
<!DOCTYPE svg PUBLIC "-//W3C//DTD SVG 1.1//EN"
 "http://www.w3.org/Graphics/SVG/1.1/DTD/svg11.dtd">
<!-- Generated by graphviz version 2.40.1 (20161225.0304)
 -->
<!-- Title: authority.control_set_bib_field Pages: 1 -->
<svg width="2017pt" height="989pt"
 viewBox="0.00 0.00 2017.00 989.00" xmlns="http://www.w3.org/2000/svg" xmlns:xlink="http://www.w3.org/1999/xlink">
<g id="graph0" class="graph" transform="scale(1 1) rotate(0) translate(4 985)">
<title>authority.control_set_bib_field</title>
<polygon fill="#ffffff" stroke="transparent" points="-4,4 -4,-985 2013,-985 2013,4 -4,4"/>
<!-- authority.control_set_bib_field -->
<g id="node1" class="node">
<title>authority.control_set_bib_field</title>
<polygon fill="#efefef" stroke="transparent" points="799,-652.5 799,-687.5 1179,-687.5 1179,-652.5 799,-652.5"/>
<polygon fill="none" stroke="#000000" points="799,-652.5 799,-687.5 1179,-687.5 1179,-652.5 799,-652.5"/>
<text text-anchor="start" x="805.6852" y="-665.3" font-family="Arial Bold" font-size="18.00" fill="#000000">authority.control_set_bib_field</text>
<text text-anchor="start" x="1044.7468" y="-665.3" font-family="Arial" font-size="14.00" fill="#000000">    </text>
<text text-anchor="start" x="1078.9516" y="-665.3" font-family="Arial" font-size="14.00" fill="#666666">[BASE TABLE]</text>
<polygon fill="none" stroke="#000000" points="799,-622.5 799,-652.5 1179,-652.5 1179,-622.5 799,-622.5"/>
<text text-anchor="start" x="806" y="-633.9" font-family="Arial" font-size="14.00" fill="#000000">id </text>
<text text-anchor="start" x="820.7798" y="-633.9" font-family="Arial" font-size="14.00" fill="#666666">[integer]</text>
<polygon fill="none" stroke="#000000" points="799,-592.5 799,-622.5 1179,-622.5 1179,-592.5 799,-592.5"/>
<text text-anchor="start" x="806" y="-603.9" font-family="Arial" font-size="14.00" fill="#000000">authority_field </text>
<text text-anchor="start" x="897.021" y="-603.9" font-family="Arial" font-size="14.00" fill="#666666">[integer]</text>
<polygon fill="none" stroke="#000000" points="799,-562.5 799,-592.5 1179,-592.5 1179,-562.5 799,-562.5"/>
<text text-anchor="start" x="806" y="-573.9" font-family="Arial" font-size="14.00" fill="#000000">tag </text>
<text text-anchor="start" x="829.3464" y="-573.9" font-family="Arial" font-size="14.00" fill="#666666">[character(3)]</text>
<polygon fill="none" stroke="#000000" stroke-width="3" points="797.5,-561.5 797.5,-689.5 1180.5,-689.5 1180.5,-561.5 797.5,-561.5"/>
</g>
<!-- authority.control_set_authority_field -->
<g id="node3" class="node">
<title>authority.control_set_authority_field</title>
<polygon fill="#efefef" stroke="transparent" points="776,-402.5 776,-437.5 1201,-437.5 1201,-402.5 776,-402.5"/>
<polygon fill="none" stroke="#000000" points="776,-402.5 776,-437.5 1201,-437.5 1201,-402.5 776,-402.5"/>
<text text-anchor="start" x="782.6807" y="-415.3" font-family="Arial Bold" font-size="18.00" fill="#000000">authority.control_set_authority_field</text>
<text text-anchor="start" x="1066.7513" y="-415.3" font-family="Arial" font-size="14.00" fill="#000000">    </text>
<text text-anchor="start" x="1100.9561" y="-415.3" font-family="Arial" font-size="14.00" fill="#666666">[BASE TABLE]</text>
<polygon fill="none" stroke="#000000" points="776,-372.5 776,-402.5 1201,-402.5 1201,-372.5 776,-372.5"/>
<text text-anchor="start" x="783" y="-383.9" font-family="Arial" font-size="14.00" fill="#000000">id    </text>
<text text-anchor="start" x="828.094" y="-383.9" font-family="Arial" font-size="14.00" fill="#666666">[integer]</text>
<polygon fill="none" stroke="#000000" points="776,-342.5 776,-372.5 1201,-372.5 1201,-342.5 776,-342.5"/>
<text text-anchor="start" x="783" y="-353.9" font-family="Arial" font-size="14.00" fill="#000000">main_entry    </text>
<text text-anchor="start" x="886.4362" y="-353.9" font-family="Arial" font-size="14.00" fill="#666666">[integer]</text>
<polygon fill="none" stroke="#000000" points="776,-312.5 776,-342.5 1201,-342.5 1201,-312.5 776,-312.5"/>
<text text-anchor="start" x="783" y="-323.9" font-family="Arial" font-size="14.00" fill="#000000">control_set    </text>
<text text-anchor="start" x="885.6662" y="-323.9" font-family="Arial" font-size="14.00" fill="#666666">[integer]</text>
<polygon fill="none" stroke="#000000" points="776,-282.5 776,-312.5 1201,-312.5 1201,-282.5 776,-282.5"/>
<text text-anchor="start" x="783" y="-293.9" font-family="Arial" font-size="14.00" fill="#000000">tag    </text>
<text text-anchor="start" x="836.6606" y="-293.9" font-family="Arial" font-size="14.00" fill="#666666">[character(3)]</text>
<polygon fill="none" stroke="#000000" points="776,-252.5 776,-282.5 1201,-282.5 1201,-252.5 776,-252.5"/>
<text text-anchor="start" x="783" y="-263.9" font-family="Arial" font-size="14.00" fill="#000000">nfi    </text>
<text text-anchor="start" x="831.9846" y="-263.9" font-family="Arial" font-size="14.00" fill="#666666">[character(1)]</text>
<polygon fill="none" stroke="#000000" points="776,-222.5 776,-252.5 1201,-252.5 1201,-222.5 776,-222.5"/>
<text text-anchor="start" x="783" y="-233.9" font-family="Arial" font-size="14.00" fill="#000000">sf_list    </text>
<text text-anchor="start" x="852.9818" y="-233.9" font-family="Arial" font-size="14.00" fill="#666666">[text]</text>
<polygon fill="none" stroke="#000000" points="776,-192.5 776,-222.5 1201,-222.5 1201,-192.5 776,-192.5"/>
<text text-anchor="start" x="783" y="-203.9" font-family="Arial" font-size="14.00" fill="#000000">display_sf_list    </text>
<text text-anchor="start" x="904.3254" y="-203.9" font-family="Arial" font-size="14.00" fill="#666666">[text]</text>
<polygon fill="none" stroke="#000000" points="776,-162.5 776,-192.5 1201,-192.5 1201,-162.5 776,-162.5"/>
<text text-anchor="start" x="783" y="-173.9" font-family="Arial" font-size="14.00" fill="#000000">name    </text>
<text text-anchor="start" x="852.2132" y="-173.9" font-family="Arial" font-size="14.00" fill="#666666">[text]</text>
<polygon fill="none" stroke="#000000" points="776,-132.5 776,-162.5 1201,-162.5 1201,-132.5 776,-132.5"/>
<text text-anchor="start" x="783" y="-143.9" font-family="Arial" font-size="14.00" fill="#000000">description    </text>
<text text-anchor="start" x="884.8822" y="-143.9" font-family="Arial" font-size="14.00" fill="#666666">[text]</text>
<polygon fill="none" stroke="#000000" points="776,-102.5 776,-132.5 1201,-132.5 1201,-102.5 776,-102.5"/>
<text text-anchor="start" x="783" y="-113.9" font-family="Arial" font-size="14.00" fill="#000000">joiner    </text>
<text text-anchor="start" x="851.4264" y="-113.9" font-family="Arial" font-size="14.00" fill="#666666">[text]</text>
<polygon fill="none" stroke="#000000" points="776,-72.5 776,-102.5 1201,-102.5 1201,-72.5 776,-72.5"/>
<text text-anchor="start" x="783" y="-83.9" font-family="Arial" font-size="14.00" fill="#000000">linking_subfield    </text>
<text text-anchor="start" x="912.8892" y="-83.9" font-family="Arial" font-size="14.00" fill="#666666">[character(1)]</text>
<polygon fill="none" stroke="#000000" points="776,-42.5 776,-72.5 1201,-72.5 1201,-42.5 776,-42.5"/>
<text text-anchor="start" x="783" y="-53.9" font-family="Arial" font-size="14.00" fill="#000000">heading_field    </text>
<text text-anchor="start" x="900.4586" y="-53.9" font-family="Arial" font-size="14.00" fill="#666666">[integer]</text>
</g>
<!-- authority.control_set_bib_field&#45;&gt;authority.control_set_authority_field -->
<g id="edge2" class="edge">
<title>authority.control_set_bib_field:authority_field&#45;&gt;authority.control_set_authority_field:id</title>
<path fill="none" stroke="#000000" d="M789.0606,-605.9722C761.3537,-596.3704 774.4013,-543.9 799,-517 859.5265,-450.811 1140.4735,-547.189 1201,-481 1229.0431,-450.3333 1242.5556,-387.5 1201,-387.5"/>
<polygon fill="#000000" stroke="#000000" points="789.1161,-605.9806 798.3163,-611.9478 794.058,-606.7403 799,-607.5 799,-607.5 799,-607.5 794.058,-606.7403 799.6837,-603.0522 789.1161,-605.9806 789.1161,-605.9806"/>
<text text-anchor="start" x="7.4715" y="-617.5" font-family="Arial" font-size="10.00" fill="#000000">FOREIGN KEY (authority_field) REFERENCES authority.control_set_authority_field(id) ON UPDATE CASCADE ON DELETE CASCADE DEFERRABLE INITIALLY DEFERRED</text>
</g>
<!-- authority.control_set_bib_field_metabib_field_map -->
<g id="node2" class="node">
<title>authority.control_set_bib_field_metabib_field_map</title>
<polygon fill="#efefef" stroke="transparent" points="718,-902.5 718,-937.5 1260,-937.5 1260,-902.5 718,-902.5"/>
<polygon fill="none" stroke="#000000" points="718,-902.5 718,-937.5 1260,-937.5 1260,-902.5 718,-902.5"/>
<text text-anchor="start" x="724.6654" y="-915.3" font-family="Arial Bold" font-size="18.00" fill="#000000">authority.control_set_bib_field_metabib_field_map</text>
<text text-anchor="start" x="1125.7666" y="-915.3" font-family="Arial" font-size="14.00" fill="#000000">    </text>
<text text-anchor="start" x="1159.9714" y="-915.3" font-family="Arial" font-size="14.00" fill="#666666">[BASE TABLE]</text>
<polygon fill="none" stroke="#000000" points="718,-872.5 718,-902.5 1260,-902.5 1260,-872.5 718,-872.5"/>
<text text-anchor="start" x="725" y="-883.9" font-family="Arial" font-size="14.00" fill="#000000">id    </text>
<text text-anchor="start" x="770.094" y="-883.9" font-family="Arial" font-size="14.00" fill="#666666">[integer]</text>
<polygon fill="none" stroke="#000000" points="718,-842.5 718,-872.5 1260,-872.5 1260,-842.5 718,-842.5"/>
<text text-anchor="start" x="725" y="-853.9" font-family="Arial" font-size="14.00" fill="#000000">bib_field    </text>
<text text-anchor="start" x="811.3282" y="-853.9" font-family="Arial" font-size="14.00" fill="#666666">[integer]</text>
<polygon fill="none" stroke="#000000" points="718,-812.5 718,-842.5 1260,-842.5 1260,-812.5 718,-812.5"/>
<text text-anchor="start" x="725" y="-823.9" font-family="Arial" font-size="14.00" fill="#000000">metabib_field    </text>
<text text-anchor="start" x="842.4446" y="-823.9" font-family="Arial" font-size="14.00" fill="#666666">[integer]</text>
</g>
<!-- authority.control_set_bib_field_metabib_field_map&#45;&gt;authority.control_set_bib_field -->
<g id="edge1" class="edge">
<title>authority.control_set_bib_field_metabib_field_map:bib_field&#45;&gt;authority.control_set_bib_field:id</title>
<path fill="none" stroke="#000000" d="M1270.0414,-856.7465C1358.6303,-842.718 1279.6332,-637.5 1179,-637.5"/>
<polygon fill="#000000" stroke="#000000" points="1269.972,-856.7516 1259.6632,-853.0126 1264.986,-857.1258 1260,-857.5 1260,-857.5 1260,-857.5 1264.986,-857.1258 1260.3368,-861.9874 1269.972,-856.7516 1269.972,-856.7516"/>
<text text-anchor="start" x="1267.4765" y="-867.5" font-family="Arial" font-size="10.00" fill="#000000">FOREIGN KEY (bib_field) REFERENCES authority.control_set_bib_field(id) ON UPDATE CASCADE ON DELETE CASCADE DEFERRABLE INITIALLY DEFERRED</text>
</g>
</g>
</svg>
