<?xml version="1.0" encoding="UTF-8" standalone="no"?>
<!DOCTYPE svg PUBLIC "-//W3C//DTD SVG 1.1//EN"
 "http://www.w3.org/Graphics/SVG/1.1/DTD/svg11.dtd">
<!-- Generated by graphviz version 2.40.1 (20161225.0304)
 -->
<!-- Title: authority.control_set_authority_field Pages: 1 -->
<svg width="2340pt" height="1349pt"
 viewBox="0.00 0.00 2340.00 1349.00" xmlns="http://www.w3.org/2000/svg" xmlns:xlink="http://www.w3.org/1999/xlink">
<g id="graph0" class="graph" transform="scale(1 1) rotate(0) translate(4 1345)">
<title>authority.control_set_authority_field</title>
<polygon fill="#ffffff" stroke="transparent" points="-4,4 -4,-1345 2336,-1345 2336,4 -4,4"/>
<!-- authority.control_set_authority_field -->
<g id="node1" class="node">
<title>authority.control_set_authority_field</title>
<polygon fill="#efefef" stroke="transparent" points="717,-892.5 717,-927.5 1142,-927.5 1142,-892.5 717,-892.5"/>
<polygon fill="none" stroke="#000000" points="717,-892.5 717,-927.5 1142,-927.5 1142,-892.5 717,-892.5"/>
<text text-anchor="start" x="723.6807" y="-905.3" font-family="Arial Bold" font-size="18.00" fill="#000000">authority.control_set_authority_field</text>
<text text-anchor="start" x="1007.7513" y="-905.3" font-family="Arial" font-size="14.00" fill="#000000">    </text>
<text text-anchor="start" x="1041.9561" y="-905.3" font-family="Arial" font-size="14.00" fill="#666666">[BASE TABLE]</text>
<polygon fill="none" stroke="#000000" points="717,-862.5 717,-892.5 1142,-892.5 1142,-862.5 717,-862.5"/>
<text text-anchor="start" x="724" y="-873.9" font-family="Arial" font-size="14.00" fill="#000000">id </text>
<text text-anchor="start" x="738.7798" y="-873.9" font-family="Arial" font-size="14.00" fill="#666666">[integer]</text>
<polygon fill="none" stroke="#000000" points="717,-832.5 717,-862.5 1142,-862.5 1142,-832.5 717,-832.5"/>
<text text-anchor="start" x="724" y="-843.9" font-family="Arial" font-size="14.00" fill="#000000">main_entry </text>
<text text-anchor="start" x="797.122" y="-843.9" font-family="Arial" font-size="14.00" fill="#666666">[integer]</text>
<polygon fill="none" stroke="#000000" points="717,-802.5 717,-832.5 1142,-832.5 1142,-802.5 717,-802.5"/>
<text text-anchor="start" x="724" y="-813.9" font-family="Arial" font-size="14.00" fill="#000000">control_set </text>
<text text-anchor="start" x="796.352" y="-813.9" font-family="Arial" font-size="14.00" fill="#666666">[integer]</text>
<polygon fill="none" stroke="#000000" points="717,-772.5 717,-802.5 1142,-802.5 1142,-772.5 717,-772.5"/>
<text text-anchor="start" x="724" y="-783.9" font-family="Arial" font-size="14.00" fill="#000000">tag </text>
<text text-anchor="start" x="747.3464" y="-783.9" font-family="Arial" font-size="14.00" fill="#666666">[character(3)]</text>
<polygon fill="none" stroke="#000000" points="717,-742.5 717,-772.5 1142,-772.5 1142,-742.5 717,-742.5"/>
<text text-anchor="start" x="724" y="-753.9" font-family="Arial" font-size="14.00" fill="#000000">nfi </text>
<text text-anchor="start" x="742.6704" y="-753.9" font-family="Arial" font-size="14.00" fill="#666666">[character(1)]</text>
<polygon fill="none" stroke="#000000" points="717,-712.5 717,-742.5 1142,-742.5 1142,-712.5 717,-712.5"/>
<text text-anchor="start" x="724" y="-723.9" font-family="Arial" font-size="14.00" fill="#000000">sf_list </text>
<text text-anchor="start" x="763.6676" y="-723.9" font-family="Arial" font-size="14.00" fill="#666666">[text]</text>
<polygon fill="none" stroke="#000000" points="717,-682.5 717,-712.5 1142,-712.5 1142,-682.5 717,-682.5"/>
<text text-anchor="start" x="724" y="-693.9" font-family="Arial" font-size="14.00" fill="#000000">display_sf_list </text>
<text text-anchor="start" x="815.0112" y="-693.9" font-family="Arial" font-size="14.00" fill="#666666">[text]</text>
<polygon fill="none" stroke="#000000" points="717,-652.5 717,-682.5 1142,-682.5 1142,-652.5 717,-652.5"/>
<text text-anchor="start" x="724" y="-663.9" font-family="Arial" font-size="14.00" fill="#000000">name </text>
<text text-anchor="start" x="762.899" y="-663.9" font-family="Arial" font-size="14.00" fill="#666666">[text]</text>
<polygon fill="none" stroke="#000000" points="717,-622.5 717,-652.5 1142,-652.5 1142,-622.5 717,-622.5"/>
<text text-anchor="start" x="724" y="-633.9" font-family="Arial" font-size="14.00" fill="#000000">description </text>
<text text-anchor="start" x="795.568" y="-633.9" font-family="Arial" font-size="14.00" fill="#666666">[text]</text>
<polygon fill="none" stroke="#000000" points="717,-592.5 717,-622.5 1142,-622.5 1142,-592.5 717,-592.5"/>
<text text-anchor="start" x="724" y="-603.9" font-family="Arial" font-size="14.00" fill="#000000">joiner </text>
<text text-anchor="start" x="762.1122" y="-603.9" font-family="Arial" font-size="14.00" fill="#666666">[text]</text>
<polygon fill="none" stroke="#000000" points="717,-562.5 717,-592.5 1142,-592.5 1142,-562.5 717,-562.5"/>
<text text-anchor="start" x="724" y="-573.9" font-family="Arial" font-size="14.00" fill="#000000">linking_subfield </text>
<text text-anchor="start" x="823.575" y="-573.9" font-family="Arial" font-size="14.00" fill="#666666">[character(1)]</text>
<polygon fill="none" stroke="#000000" points="717,-532.5 717,-562.5 1142,-562.5 1142,-532.5 717,-532.5"/>
<text text-anchor="start" x="724" y="-543.9" font-family="Arial" font-size="14.00" fill="#000000">heading_field </text>
<text text-anchor="start" x="811.1444" y="-543.9" font-family="Arial" font-size="14.00" fill="#666666">[integer]</text>
<polygon fill="none" stroke="#000000" stroke-width="3" points="715,-531.5 715,-929.5 1143,-929.5 1143,-531.5 715,-531.5"/>
</g>
<!-- authority.control_set_authority_field&#45;&gt;authority.control_set_authority_field -->
<g id="edge5" class="edge">
<title>authority.control_set_authority_field:main_entry&#45;&gt;authority.control_set_authority_field:id</title>
<path fill="none" stroke="#000000" d="M931.3784,-872.9171C938.9738,-1022.9696 938.5143,-1196 930,-1196 921.29,-1196 921.0093,-1043.0244 929.1579,-892.5212"/>
<polygon fill="#000000" stroke="#000000" points="931.3619,-872.5991 935.336,-862.3787 931.102,-867.6059 930.8421,-862.6126 930.8421,-862.6126 930.8421,-862.6126 931.102,-867.6059 926.3482,-862.8466 931.3619,-872.5991 931.3619,-872.5991"/>
<text text-anchor="start" x="937.7061" y="-872.6126" font-family="Arial" font-size="10.00" fill="#000000">FOREIGN KEY (main_entry) REFERENCES authority.control_set_authority_field(id) ON UPDATE CASCADE ON DELETE CASCADE DEFERRABLE INITIALLY DEFERRED</text>
</g>
<!-- authority.control_set -->
<g id="node6" class="node">
<title>authority.control_set</title>
<polygon fill="#efefef" stroke="transparent" points="568,-252.5 568,-287.5 871,-287.5 871,-252.5 568,-252.5"/>
<polygon fill="none" stroke="#000000" points="568,-252.5 568,-287.5 871,-287.5 871,-252.5 568,-252.5"/>
<text text-anchor="start" x="574.6962" y="-265.3" font-family="Arial Bold" font-size="18.00" fill="#000000">authority.control_set</text>
<text text-anchor="start" x="736.7358" y="-265.3" font-family="Arial" font-size="14.00" fill="#000000">    </text>
<text text-anchor="start" x="770.9406" y="-265.3" font-family="Arial" font-size="14.00" fill="#666666">[BASE TABLE]</text>
<polygon fill="none" stroke="#000000" points="568,-222.5 568,-252.5 871,-252.5 871,-222.5 568,-222.5"/>
<text text-anchor="start" x="575" y="-233.9" font-family="Arial" font-size="14.00" fill="#000000">id    </text>
<text text-anchor="start" x="620.094" y="-233.9" font-family="Arial" font-size="14.00" fill="#666666">[integer]</text>
<polygon fill="none" stroke="#000000" points="568,-192.5 568,-222.5 871,-222.5 871,-192.5 568,-192.5"/>
<text text-anchor="start" x="575" y="-203.9" font-family="Arial" font-size="14.00" fill="#000000">name    </text>
<text text-anchor="start" x="644.2132" y="-203.9" font-family="Arial" font-size="14.00" fill="#666666">[text]</text>
<polygon fill="none" stroke="#000000" points="568,-162.5 568,-192.5 871,-192.5 871,-162.5 568,-162.5"/>
<text text-anchor="start" x="575" y="-173.9" font-family="Arial" font-size="14.00" fill="#000000">description    </text>
<text text-anchor="start" x="676.8822" y="-173.9" font-family="Arial" font-size="14.00" fill="#666666">[text]</text>
</g>
<!-- authority.control_set_authority_field&#45;&gt;authority.control_set -->
<g id="edge6" class="edge">
<title>authority.control_set_authority_field:control_set&#45;&gt;authority.control_set:id</title>
<path fill="none" stroke="#000000" d="M706.6631,-817.1557C574.539,-808.0325 662.5878,-619.5707 717,-487 753.9926,-396.8707 834.0074,-421.1293 871,-331 886.7787,-292.5566 912.5556,-237.5 871,-237.5"/>
<polygon fill="#000000" stroke="#000000" points="707.0055,-817.167 716.8502,-821.9975 712.0028,-817.3335 717,-817.5 717,-817.5 717,-817.5 712.0028,-817.3335 717.1498,-813.0025 707.0055,-817.167 707.0055,-817.167"/>
<text text-anchor="start" x="7.0365" y="-827.5" font-family="Arial" font-size="10.00" fill="#000000">FOREIGN KEY (control_set) REFERENCES authority.control_set(id) ON UPDATE CASCADE ON DELETE CASCADE DEFERRABLE INITIALLY DEFERRED</text>
</g>
<!-- authority.heading_field -->
<g id="node7" class="node">
<title>authority.heading_field</title>
<polygon fill="#efefef" stroke="transparent" points="975,-372.5 975,-407.5 1304,-407.5 1304,-372.5 975,-372.5"/>
<polygon fill="none" stroke="#000000" points="975,-372.5 975,-407.5 1304,-407.5 1304,-372.5 975,-372.5"/>
<text text-anchor="start" x="985.1868" y="-385.3" font-family="Arial Bold" font-size="18.00" fill="#000000">authority.heading_field</text>
<text text-anchor="start" x="1166.2452" y="-385.3" font-family="Arial" font-size="14.00" fill="#000000">    </text>
<text text-anchor="start" x="1200.45" y="-385.3" font-family="Arial" font-size="14.00" fill="#666666">[BASE TABLE]</text>
<polygon fill="none" stroke="#000000" points="975,-342.5 975,-372.5 1304,-372.5 1304,-342.5 975,-342.5"/>
<text text-anchor="start" x="982" y="-353.9" font-family="Arial" font-size="14.00" fill="#000000">id    </text>
<text text-anchor="start" x="1027.094" y="-353.9" font-family="Arial" font-size="14.00" fill="#666666">[integer]</text>
<polygon fill="none" stroke="#000000" points="975,-312.5 975,-342.5 1304,-342.5 1304,-312.5 975,-312.5"/>
<text text-anchor="start" x="982" y="-323.9" font-family="Arial" font-size="14.00" fill="#000000">heading_type    </text>
<text text-anchor="start" x="1100.2454" y="-323.9" font-family="Arial" font-size="14.00" fill="#666666">[authority.heading_type]</text>
<polygon fill="none" stroke="#000000" points="975,-282.5 975,-312.5 1304,-312.5 1304,-282.5 975,-282.5"/>
<text text-anchor="start" x="981.5639" y="-293.9" font-family="Arial" font-size="14.00" fill="#000000">heading_purpose    </text>
<text text-anchor="start" x="1123.9271" y="-293.9" font-family="Arial" font-size="14.00" fill="#666666">[authority.heading_purpose]</text>
<polygon fill="none" stroke="#000000" points="975,-252.5 975,-282.5 1304,-282.5 1304,-252.5 975,-252.5"/>
<text text-anchor="start" x="982" y="-263.9" font-family="Arial" font-size="14.00" fill="#000000">label    </text>
<text text-anchor="start" x="1045.7658" y="-263.9" font-family="Arial" font-size="14.00" fill="#666666">[text]</text>
<polygon fill="none" stroke="#000000" points="975,-222.5 975,-252.5 1304,-252.5 1304,-222.5 975,-222.5"/>
<text text-anchor="start" x="982" y="-233.9" font-family="Arial" font-size="14.00" fill="#000000">format    </text>
<text text-anchor="start" x="1055.8724" y="-233.9" font-family="Arial" font-size="14.00" fill="#666666">[text]</text>
<polygon fill="none" stroke="#000000" points="975,-192.5 975,-222.5 1304,-222.5 1304,-192.5 975,-192.5"/>
<text text-anchor="start" x="982" y="-203.9" font-family="Arial" font-size="14.00" fill="#000000">heading_xpath    </text>
<text text-anchor="start" x="1108.028" y="-203.9" font-family="Arial" font-size="14.00" fill="#666666">[text]</text>
<polygon fill="none" stroke="#000000" points="975,-162.5 975,-192.5 1304,-192.5 1304,-162.5 975,-162.5"/>
<text text-anchor="start" x="982" y="-173.9" font-family="Arial" font-size="14.00" fill="#000000">component_xpath    </text>
<text text-anchor="start" x="1127.4726" y="-173.9" font-family="Arial" font-size="14.00" fill="#666666">[text]</text>
<polygon fill="none" stroke="#000000" points="975,-132.5 975,-162.5 1304,-162.5 1304,-132.5 975,-132.5"/>
<text text-anchor="start" x="982" y="-143.9" font-family="Arial" font-size="14.00" fill="#000000">type_xpath    </text>
<text text-anchor="start" x="1084.6816" y="-143.9" font-family="Arial" font-size="14.00" fill="#666666">[text]</text>
<polygon fill="none" stroke="#000000" points="975,-102.5 975,-132.5 1304,-132.5 1304,-102.5 975,-102.5"/>
<text text-anchor="start" x="982" y="-113.9" font-family="Arial" font-size="14.00" fill="#000000">thesaurus_xpath    </text>
<text text-anchor="start" x="1119.69" y="-113.9" font-family="Arial" font-size="14.00" fill="#666666">[text]</text>
<polygon fill="none" stroke="#000000" points="975,-72.5 975,-102.5 1304,-102.5 1304,-72.5 975,-72.5"/>
<text text-anchor="start" x="982" y="-83.9" font-family="Arial" font-size="14.00" fill="#000000">thesaurus_override_xpath    </text>
<text text-anchor="start" x="1178.0308" y="-83.9" font-family="Arial" font-size="14.00" fill="#666666">[text]</text>
<polygon fill="none" stroke="#000000" points="975,-42.5 975,-72.5 1304,-72.5 1304,-42.5 975,-42.5"/>
<text text-anchor="start" x="982" y="-53.9" font-family="Arial" font-size="14.00" fill="#000000">joiner    </text>
<text text-anchor="start" x="1050.4264" y="-53.9" font-family="Arial" font-size="14.00" fill="#666666">[text]</text>
</g>
<!-- authority.control_set_authority_field&#45;&gt;authority.heading_field -->
<g id="edge7" class="edge">
<title>authority.control_set_authority_field:heading_field&#45;&gt;authority.heading_field:id</title>
<path fill="none" stroke="#000000" d="M1152.017,-544.8233C1165.5964,-535.5871 1156.2523,-504.652 1142,-487 1094.3025,-427.9247 1022.6975,-510.0753 975,-451 948.8948,-418.6676 933.4444,-357.5 975,-357.5"/>
<polygon fill="#000000" stroke="#000000" points="1151.661,-544.9183 1140.8383,-543.1525 1146.8305,-546.2092 1142,-547.5 1142,-547.5 1142,-547.5 1146.8305,-546.2092 1143.1617,-551.8475 1151.661,-544.9183 1151.661,-544.9183"/>
<text text-anchor="start" x="1148.9225" y="-557.5" font-family="Arial" font-size="10.00" fill="#000000">FOREIGN KEY (heading_field) REFERENCES authority.heading_field(id)</text>
</g>
<!-- authority.authority_linking -->
<g id="node2" class="node">
<title>authority.authority_linking</title>
<polygon fill="#efefef" stroke="transparent" points="53,-1217.5 53,-1252.5 398,-1252.5 398,-1217.5 53,-1217.5"/>
<polygon fill="none" stroke="#000000" points="53,-1217.5 53,-1252.5 398,-1252.5 398,-1217.5 53,-1217.5"/>
<text text-anchor="start" x="59.6956" y="-1230.3" font-family="Arial Bold" font-size="18.00" fill="#000000">authority.authority_linking</text>
<text text-anchor="start" x="263.7364" y="-1230.3" font-family="Arial" font-size="14.00" fill="#000000">    </text>
<text text-anchor="start" x="297.9412" y="-1230.3" font-family="Arial" font-size="14.00" fill="#666666">[BASE TABLE]</text>
<polygon fill="none" stroke="#000000" points="53,-1187.5 53,-1217.5 398,-1217.5 398,-1187.5 53,-1187.5"/>
<text text-anchor="start" x="60" y="-1198.9" font-family="Arial" font-size="14.00" fill="#000000">id    </text>
<text text-anchor="start" x="105.094" y="-1198.9" font-family="Arial" font-size="14.00" fill="#666666">[bigint]</text>
<polygon fill="none" stroke="#000000" points="53,-1157.5 53,-1187.5 398,-1187.5 398,-1157.5 53,-1157.5"/>
<text text-anchor="start" x="60" y="-1168.9" font-family="Arial" font-size="14.00" fill="#000000">source    </text>
<text text-anchor="start" x="136.2132" y="-1168.9" font-family="Arial" font-size="14.00" fill="#666666">[bigint]</text>
<polygon fill="none" stroke="#000000" points="53,-1127.5 53,-1157.5 398,-1157.5 398,-1127.5 53,-1127.5"/>
<text text-anchor="start" x="60" y="-1138.9" font-family="Arial" font-size="14.00" fill="#000000">target    </text>
<text text-anchor="start" x="129.9944" y="-1138.9" font-family="Arial" font-size="14.00" fill="#666666">[bigint]</text>
<polygon fill="none" stroke="#000000" points="53,-1097.5 53,-1127.5 398,-1127.5 398,-1097.5 53,-1097.5"/>
<text text-anchor="start" x="60" y="-1108.9" font-family="Arial" font-size="14.00" fill="#000000">field    </text>
<text text-anchor="start" x="119.8738" y="-1108.9" font-family="Arial" font-size="14.00" fill="#666666">[integer]</text>
</g>
<!-- authority.authority_linking&#45;&gt;authority.control_set_authority_field -->
<g id="edge1" class="edge">
<title>authority.authority_linking:field&#45;&gt;authority.control_set_authority_field:id</title>
<path fill="none" stroke="#000000" d="M407.9601,-1111.4397C443.9492,-1102.7879 415.6484,-1043.2672 449,-1010 543.0747,-916.1634 584.1265,-877.5 717,-877.5"/>
<polygon fill="#000000" stroke="#000000" points="407.9438,-1111.4414 397.5236,-1108.0253 402.9719,-1111.9707 398,-1112.5 398,-1112.5 398,-1112.5 402.9719,-1111.9707 398.4764,-1116.9747 407.9438,-1111.4414 407.9438,-1111.4414"/>
<text text-anchor="start" x="226.874" y="-1096.5" font-family="Arial" font-size="10.00" fill="#000000">FOREIGN KEY (field) REFERENCES authority.control_set_authority_field(id)</text>
</g>
<!-- authority.simple_heading -->
<g id="node3" class="node">
<title>authority.simple_heading</title>
<polygon fill="#efefef" stroke="transparent" points="502,-1262.5 502,-1297.5 843,-1297.5 843,-1262.5 502,-1262.5"/>
<polygon fill="none" stroke="#000000" points="502,-1262.5 502,-1297.5 843,-1297.5 843,-1262.5 502,-1262.5"/>
<text text-anchor="start" x="508.6918" y="-1275.3" font-family="Arial Bold" font-size="18.00" fill="#000000">authority.simple_heading</text>
<text text-anchor="start" x="708.7402" y="-1275.3" font-family="Arial" font-size="14.00" fill="#000000">    </text>
<text text-anchor="start" x="742.945" y="-1275.3" font-family="Arial" font-size="14.00" fill="#666666">[BASE TABLE]</text>
<polygon fill="none" stroke="#000000" points="502,-1232.5 502,-1262.5 843,-1262.5 843,-1232.5 502,-1232.5"/>
<text text-anchor="start" x="509" y="-1243.9" font-family="Arial" font-size="14.00" fill="#000000">id    </text>
<text text-anchor="start" x="554.094" y="-1243.9" font-family="Arial" font-size="14.00" fill="#666666">[bigint]</text>
<polygon fill="none" stroke="#000000" points="502,-1202.5 502,-1232.5 843,-1232.5 843,-1202.5 502,-1202.5"/>
<text text-anchor="start" x="509" y="-1213.9" font-family="Arial" font-size="14.00" fill="#000000">record    </text>
<text text-anchor="start" x="582.8738" y="-1213.9" font-family="Arial" font-size="14.00" fill="#666666">[bigint]</text>
<polygon fill="none" stroke="#000000" points="502,-1172.5 502,-1202.5 843,-1202.5 843,-1172.5 502,-1172.5"/>
<text text-anchor="start" x="509" y="-1183.9" font-family="Arial" font-size="14.00" fill="#000000">atag    </text>
<text text-anchor="start" x="570.4432" y="-1183.9" font-family="Arial" font-size="14.00" fill="#666666">[integer]</text>
<polygon fill="none" stroke="#000000" points="502,-1142.5 502,-1172.5 843,-1172.5 843,-1142.5 502,-1142.5"/>
<text text-anchor="start" x="509" y="-1153.9" font-family="Arial" font-size="14.00" fill="#000000">value    </text>
<text text-anchor="start" x="576.6592" y="-1153.9" font-family="Arial" font-size="14.00" fill="#666666">[text]</text>
<polygon fill="none" stroke="#000000" points="502,-1112.5 502,-1142.5 843,-1142.5 843,-1112.5 502,-1112.5"/>
<text text-anchor="start" x="509" y="-1123.9" font-family="Arial" font-size="14.00" fill="#000000">sort_value    </text>
<text text-anchor="start" x="607.7756" y="-1123.9" font-family="Arial" font-size="14.00" fill="#666666">[text]</text>
<polygon fill="none" stroke="#000000" points="502,-1082.5 502,-1112.5 843,-1112.5 843,-1082.5 502,-1082.5"/>
<text text-anchor="start" x="509" y="-1093.9" font-family="Arial" font-size="14.00" fill="#000000">index_vector    </text>
<text text-anchor="start" x="622.5582" y="-1093.9" font-family="Arial" font-size="14.00" fill="#666666">[tsvector]</text>
<polygon fill="none" stroke="#000000" points="502,-1052.5 502,-1082.5 843,-1082.5 843,-1052.5 502,-1052.5"/>
<text text-anchor="start" x="509" y="-1063.9" font-family="Arial" font-size="14.00" fill="#000000">thesaurus    </text>
<text text-anchor="start" x="604.669" y="-1063.9" font-family="Arial" font-size="14.00" fill="#666666">[text]</text>
</g>
<!-- authority.simple_heading&#45;&gt;authority.control_set_authority_field -->
<g id="edge2" class="edge">
<title>authority.simple_heading:atag&#45;&gt;authority.control_set_authority_field:id</title>
<path fill="none" stroke="#000000" d="M853.3766,-1186.7622C918.9114,-1176.8771 888.2797,-1070.0286 843,-1010 807.9276,-963.5035 752.0724,-1020.4965 717,-974 691.1725,-939.7597 674.1111,-877.5 717,-877.5"/>
<polygon fill="#000000" stroke="#000000" points="852.9748,-1186.7907 842.6808,-1183.0113 847.9874,-1187.1453 843,-1187.5 843,-1187.5 843,-1187.5 847.9874,-1187.1453 843.3192,-1191.9887 852.9748,-1186.7907 852.9748,-1186.7907"/>
<text text-anchor="start" x="850.3135" y="-1197.5" font-family="Arial" font-size="10.00" fill="#000000">FOREIGN KEY (atag) REFERENCES authority.control_set_authority_field(id)</text>
</g>
<!-- authority.browse_axis_authority_field_map -->
<g id="node4" class="node">
<title>authority.browse_axis_authority_field_map</title>
<polygon fill="#efefef" stroke="transparent" points="947,-1202.5 947,-1237.5 1429,-1237.5 1429,-1202.5 947,-1202.5"/>
<polygon fill="none" stroke="#000000" points="947,-1202.5 947,-1237.5 1429,-1237.5 1429,-1202.5 947,-1202.5"/>
<text text-anchor="start" x="953.6804" y="-1215.3" font-family="Arial Bold" font-size="18.00" fill="#000000">authority.browse_axis_authority_field_map</text>
<text text-anchor="start" x="1294.7516" y="-1215.3" font-family="Arial" font-size="14.00" fill="#000000">    </text>
<text text-anchor="start" x="1328.9564" y="-1215.3" font-family="Arial" font-size="14.00" fill="#666666">[BASE TABLE]</text>
<polygon fill="none" stroke="#000000" points="947,-1172.5 947,-1202.5 1429,-1202.5 1429,-1172.5 947,-1172.5"/>
<text text-anchor="start" x="954" y="-1183.9" font-family="Arial" font-size="14.00" fill="#000000">id    </text>
<text text-anchor="start" x="999.094" y="-1183.9" font-family="Arial" font-size="14.00" fill="#666666">[integer]</text>
<polygon fill="none" stroke="#000000" points="947,-1142.5 947,-1172.5 1429,-1172.5 1429,-1142.5 947,-1142.5"/>
<text text-anchor="start" x="954" y="-1153.9" font-family="Arial" font-size="14.00" fill="#000000">axis    </text>
<text text-anchor="start" x="1013.094" y="-1153.9" font-family="Arial" font-size="14.00" fill="#666666">[text]</text>
<polygon fill="none" stroke="#000000" points="947,-1112.5 947,-1142.5 1429,-1142.5 1429,-1112.5 947,-1112.5"/>
<text text-anchor="start" x="954" y="-1123.9" font-family="Arial" font-size="14.00" fill="#000000">field    </text>
<text text-anchor="start" x="1013.8738" y="-1123.9" font-family="Arial" font-size="14.00" fill="#666666">[integer]</text>
</g>
<!-- authority.browse_axis_authority_field_map&#45;&gt;authority.control_set_authority_field -->
<g id="edge3" class="edge">
<title>authority.browse_axis_authority_field_map:field&#45;&gt;authority.control_set_authority_field:id</title>
<path fill="none" stroke="#000000" d="M937.2991,-1124.8293C925.4384,-1116.1319 935.7129,-1088.1376 947,-1070 998.039,-987.9843 1090.961,-1056.0157 1142,-974 1164.6605,-937.5863 1184.8889,-877.5 1142,-877.5"/>
<polygon fill="#000000" stroke="#000000" points="937.3587,-1124.8457 945.8056,-1131.8386 942.1793,-1126.1728 947,-1127.5 947,-1127.5 947,-1127.5 942.1793,-1126.1728 948.1944,-1123.1614 937.3587,-1124.8457 937.3587,-1124.8457"/>
<text text-anchor="start" x="954.422" y="-1137.5" font-family="Arial" font-size="10.00" fill="#000000">FOREIGN KEY (field) REFERENCES authority.control_set_authority_field(id) ON UPDATE CASCADE ON DELETE CASCADE DEFERRABLE INITIALLY DEFERRED</text>
</g>
<!-- authority.control_set_bib_field -->
<g id="node5" class="node">
<title>authority.control_set_bib_field</title>
<polygon fill="#efefef" stroke="transparent" points="1533,-1202.5 1533,-1237.5 1913,-1237.5 1913,-1202.5 1533,-1202.5"/>
<polygon fill="none" stroke="#000000" points="1533,-1202.5 1533,-1237.5 1913,-1237.5 1913,-1202.5 1533,-1202.5"/>
<text text-anchor="start" x="1539.6852" y="-1215.3" font-family="Arial Bold" font-size="18.00" fill="#000000">authority.control_set_bib_field</text>
<text text-anchor="start" x="1778.7468" y="-1215.3" font-family="Arial" font-size="14.00" fill="#000000">    </text>
<text text-anchor="start" x="1812.9516" y="-1215.3" font-family="Arial" font-size="14.00" fill="#666666">[BASE TABLE]</text>
<polygon fill="none" stroke="#000000" points="1533,-1172.5 1533,-1202.5 1913,-1202.5 1913,-1172.5 1533,-1172.5"/>
<text text-anchor="start" x="1540" y="-1183.9" font-family="Arial" font-size="14.00" fill="#000000">id    </text>
<text text-anchor="start" x="1585.094" y="-1183.9" font-family="Arial" font-size="14.00" fill="#666666">[integer]</text>
<polygon fill="none" stroke="#000000" points="1533,-1142.5 1533,-1172.5 1913,-1172.5 1913,-1142.5 1533,-1142.5"/>
<text text-anchor="start" x="1540" y="-1153.9" font-family="Arial" font-size="14.00" fill="#000000">authority_field    </text>
<text text-anchor="start" x="1661.3352" y="-1153.9" font-family="Arial" font-size="14.00" fill="#666666">[integer]</text>
<polygon fill="none" stroke="#000000" points="1533,-1112.5 1533,-1142.5 1913,-1142.5 1913,-1112.5 1533,-1112.5"/>
<text text-anchor="start" x="1540" y="-1123.9" font-family="Arial" font-size="14.00" fill="#000000">tag    </text>
<text text-anchor="start" x="1593.6606" y="-1123.9" font-family="Arial" font-size="14.00" fill="#666666">[character(3)]</text>
</g>
<!-- authority.control_set_bib_field&#45;&gt;authority.control_set_authority_field -->
<g id="edge4" class="edge">
<title>authority.control_set_bib_field:authority_field&#45;&gt;authority.control_set_authority_field:id</title>
<path fill="none" stroke="#000000" d="M1522.7695,-1156.6487C1470.3484,-1146.975 1526.6746,-1057.2385 1481,-1010 1368.5552,-893.7051 1303.7663,-877.5 1142,-877.5"/>
<polygon fill="#000000" stroke="#000000" points="1523.0344,-1156.6706 1532.6268,-1161.9845 1528.0172,-1157.0853 1533,-1157.5 1533,-1157.5 1533,-1157.5 1528.0172,-1157.0853 1533.3732,-1153.0155 1523.0344,-1156.6706 1523.0344,-1156.6706"/>
<text text-anchor="start" x="1540.4715" y="-1167.5" font-family="Arial" font-size="10.00" fill="#000000">FOREIGN KEY (authority_field) REFERENCES authority.control_set_authority_field(id) ON UPDATE CASCADE ON DELETE CASCADE DEFERRABLE INITIALLY DEFERRED</text>
</g>
</g>
</svg>
