<?xml version="1.0" encoding="UTF-8" standalone="no"?>
<!DOCTYPE svg PUBLIC "-//W3C//DTD SVG 1.1//EN"
 "http://www.w3.org/Graphics/SVG/1.1/DTD/svg11.dtd">
<!-- Generated by graphviz version 2.40.1 (20161225.0304)
 -->
<!-- Title: authority.record_note Pages: 1 -->
<svg width="847pt" height="922pt"
 viewBox="0.00 0.00 846.50 922.00" xmlns="http://www.w3.org/2000/svg" xmlns:xlink="http://www.w3.org/1999/xlink">
<g id="graph0" class="graph" transform="scale(1 1) rotate(0) translate(4 918)">
<title>authority.record_note</title>
<polygon fill="#ffffff" stroke="transparent" points="-4,4 -4,-918 842.5,-918 842.5,4 -4,4"/>
<!-- authority.record_note -->
<g id="node1" class="node">
<title>authority.record_note</title>
<polygon fill="#efefef" stroke="transparent" points="46.5,-832.5 46.5,-867.5 357.5,-867.5 357.5,-832.5 46.5,-832.5"/>
<polygon fill="none" stroke="#000000" points="46.5,-832.5 46.5,-867.5 357.5,-867.5 357.5,-832.5 46.5,-832.5"/>
<text text-anchor="start" x="53.1921" y="-845.3" font-family="Arial Bold" font-size="18.00" fill="#000000">authority.record_note</text>
<text text-anchor="start" x="223.2399" y="-845.3" font-family="Arial" font-size="14.00" fill="#000000">    </text>
<text text-anchor="start" x="257.4447" y="-845.3" font-family="Arial" font-size="14.00" fill="#666666">[BASE TABLE]</text>
<polygon fill="none" stroke="#000000" points="46.5,-802.5 46.5,-832.5 357.5,-832.5 357.5,-802.5 46.5,-802.5"/>
<text text-anchor="start" x="53.5" y="-813.9" font-family="Arial" font-size="14.00" fill="#000000">id </text>
<text text-anchor="start" x="68.2798" y="-813.9" font-family="Arial" font-size="14.00" fill="#666666">[bigint]</text>
<polygon fill="none" stroke="#000000" points="46.5,-772.5 46.5,-802.5 357.5,-802.5 357.5,-772.5 46.5,-772.5"/>
<text text-anchor="start" x="53.5" y="-783.9" font-family="Arial" font-size="14.00" fill="#000000">record </text>
<text text-anchor="start" x="97.0596" y="-783.9" font-family="Arial" font-size="14.00" fill="#666666">[bigint]</text>
<polygon fill="none" stroke="#000000" points="46.5,-742.5 46.5,-772.5 357.5,-772.5 357.5,-742.5 46.5,-742.5"/>
<text text-anchor="start" x="53.5" y="-753.9" font-family="Arial" font-size="14.00" fill="#000000">value </text>
<text text-anchor="start" x="90.845" y="-753.9" font-family="Arial" font-size="14.00" fill="#666666">[text]</text>
<polygon fill="none" stroke="#000000" points="46.5,-712.5 46.5,-742.5 357.5,-742.5 357.5,-712.5 46.5,-712.5"/>
<text text-anchor="start" x="53.5" y="-723.9" font-family="Arial" font-size="14.00" fill="#000000">creator </text>
<text text-anchor="start" x="100.9502" y="-723.9" font-family="Arial" font-size="14.00" fill="#666666">[integer]</text>
<polygon fill="none" stroke="#000000" points="46.5,-682.5 46.5,-712.5 357.5,-712.5 357.5,-682.5 46.5,-682.5"/>
<text text-anchor="start" x="53.5" y="-693.9" font-family="Arial" font-size="14.00" fill="#000000">editor </text>
<text text-anchor="start" x="92.3962" y="-693.9" font-family="Arial" font-size="14.00" fill="#666666">[integer]</text>
<polygon fill="none" stroke="#000000" points="46.5,-652.5 46.5,-682.5 357.5,-682.5 357.5,-652.5 46.5,-652.5"/>
<text text-anchor="start" x="53.5" y="-663.9" font-family="Arial" font-size="14.00" fill="#000000">create_date </text>
<text text-anchor="start" x="131.3106" y="-663.9" font-family="Arial" font-size="14.00" fill="#666666">[timestamp with time zone]</text>
<polygon fill="none" stroke="#000000" points="46.5,-622.5 46.5,-652.5 357.5,-652.5 357.5,-622.5 46.5,-622.5"/>
<text text-anchor="start" x="53.5" y="-633.9" font-family="Arial" font-size="14.00" fill="#000000">edit_date </text>
<text text-anchor="start" x="114.974" y="-633.9" font-family="Arial" font-size="14.00" fill="#666666">[timestamp with time zone]</text>
<polygon fill="none" stroke="#000000" stroke-width="3" points="44.5,-621.5 44.5,-869.5 358.5,-869.5 358.5,-621.5 44.5,-621.5"/>
</g>
<!-- authority.record_entry -->
<g id="node2" class="node">
<title>authority.record_entry</title>
<polygon fill="#efefef" stroke="transparent" points="44.5,-462.5 44.5,-497.5 360.5,-497.5 360.5,-462.5 44.5,-462.5"/>
<polygon fill="none" stroke="#000000" points="44.5,-462.5 44.5,-497.5 360.5,-497.5 360.5,-462.5 44.5,-462.5"/>
<text text-anchor="start" x="51.1991" y="-475.3" font-family="Arial Bold" font-size="18.00" fill="#000000">authority.record_entry</text>
<text text-anchor="start" x="226.2329" y="-475.3" font-family="Arial" font-size="14.00" fill="#000000">    </text>
<text text-anchor="start" x="260.4377" y="-475.3" font-family="Arial" font-size="14.00" fill="#666666">[BASE TABLE]</text>
<polygon fill="none" stroke="#000000" points="44.5,-432.5 44.5,-462.5 360.5,-462.5 360.5,-432.5 44.5,-432.5"/>
<text text-anchor="start" x="51.5" y="-443.9" font-family="Arial" font-size="14.00" fill="#000000">id    </text>
<text text-anchor="start" x="96.594" y="-443.9" font-family="Arial" font-size="14.00" fill="#666666">[bigint]</text>
<polygon fill="none" stroke="#000000" points="44.5,-402.5 44.5,-432.5 360.5,-432.5 360.5,-402.5 44.5,-402.5"/>
<text text-anchor="start" x="51.5" y="-413.9" font-family="Arial" font-size="14.00" fill="#000000">create_date    </text>
<text text-anchor="start" x="159.6248" y="-413.9" font-family="Arial" font-size="14.00" fill="#666666">[timestamp with time zone]</text>
<polygon fill="none" stroke="#000000" points="44.5,-372.5 44.5,-402.5 360.5,-402.5 360.5,-372.5 44.5,-372.5"/>
<text text-anchor="start" x="51.5" y="-383.9" font-family="Arial" font-size="14.00" fill="#000000">edit_date    </text>
<text text-anchor="start" x="143.2882" y="-383.9" font-family="Arial" font-size="14.00" fill="#666666">[timestamp with time zone]</text>
<polygon fill="none" stroke="#000000" points="44.5,-342.5 44.5,-372.5 360.5,-372.5 360.5,-342.5 44.5,-342.5"/>
<text text-anchor="start" x="51.5" y="-353.9" font-family="Arial" font-size="14.00" fill="#000000">creator    </text>
<text text-anchor="start" x="129.2644" y="-353.9" font-family="Arial" font-size="14.00" fill="#666666">[integer]</text>
<polygon fill="none" stroke="#000000" points="44.5,-312.5 44.5,-342.5 360.5,-342.5 360.5,-312.5 44.5,-312.5"/>
<text text-anchor="start" x="51.5" y="-323.9" font-family="Arial" font-size="14.00" fill="#000000">editor    </text>
<text text-anchor="start" x="120.7104" y="-323.9" font-family="Arial" font-size="14.00" fill="#666666">[integer]</text>
<polygon fill="none" stroke="#000000" points="44.5,-282.5 44.5,-312.5 360.5,-312.5 360.5,-282.5 44.5,-282.5"/>
<text text-anchor="start" x="51.5" y="-293.9" font-family="Arial" font-size="14.00" fill="#000000">active    </text>
<text text-anchor="start" x="122.2672" y="-293.9" font-family="Arial" font-size="14.00" fill="#666666">[boolean]</text>
<polygon fill="none" stroke="#000000" points="44.5,-252.5 44.5,-282.5 360.5,-282.5 360.5,-252.5 44.5,-252.5"/>
<text text-anchor="start" x="51.5" y="-263.9" font-family="Arial" font-size="14.00" fill="#000000">deleted    </text>
<text text-anchor="start" x="131.615" y="-263.9" font-family="Arial" font-size="14.00" fill="#666666">[boolean]</text>
<polygon fill="none" stroke="#000000" points="44.5,-222.5 44.5,-252.5 360.5,-252.5 360.5,-222.5 44.5,-222.5"/>
<text text-anchor="start" x="51.5" y="-233.9" font-family="Arial" font-size="14.00" fill="#000000">source    </text>
<text text-anchor="start" x="127.7132" y="-233.9" font-family="Arial" font-size="14.00" fill="#666666">[integer]</text>
<polygon fill="none" stroke="#000000" points="44.5,-192.5 44.5,-222.5 360.5,-222.5 360.5,-192.5 44.5,-192.5"/>
<text text-anchor="start" x="51.5" y="-203.9" font-family="Arial" font-size="14.00" fill="#000000">control_set    </text>
<text text-anchor="start" x="154.1662" y="-203.9" font-family="Arial" font-size="14.00" fill="#666666">[integer]</text>
<polygon fill="none" stroke="#000000" points="44.5,-162.5 44.5,-192.5 360.5,-192.5 360.5,-162.5 44.5,-162.5"/>
<text text-anchor="start" x="51.5" y="-173.9" font-family="Arial" font-size="14.00" fill="#000000">marc    </text>
<text text-anchor="start" x="116.8086" y="-173.9" font-family="Arial" font-size="14.00" fill="#666666">[text]</text>
<polygon fill="none" stroke="#000000" points="44.5,-132.5 44.5,-162.5 360.5,-162.5 360.5,-132.5 44.5,-132.5"/>
<text text-anchor="start" x="51.5" y="-143.9" font-family="Arial" font-size="14.00" fill="#000000">last_xact_id    </text>
<text text-anchor="start" x="159.6122" y="-143.9" font-family="Arial" font-size="14.00" fill="#666666">[text]</text>
<polygon fill="none" stroke="#000000" points="44.5,-102.5 44.5,-132.5 360.5,-132.5 360.5,-102.5 44.5,-102.5"/>
<text text-anchor="start" x="51.5" y="-113.9" font-family="Arial" font-size="14.00" fill="#000000">owner    </text>
<text text-anchor="start" x="123.8198" y="-113.9" font-family="Arial" font-size="14.00" fill="#666666">[integer]</text>
<polygon fill="none" stroke="#000000" points="44.5,-72.5 44.5,-102.5 360.5,-102.5 360.5,-72.5 44.5,-72.5"/>
<text text-anchor="start" x="51.5" y="-83.9" font-family="Arial" font-size="14.00" fill="#000000">heading    </text>
<text text-anchor="start" x="135.507" y="-83.9" font-family="Arial" font-size="14.00" fill="#666666">[text]</text>
<polygon fill="none" stroke="#000000" points="44.5,-42.5 44.5,-72.5 360.5,-72.5 360.5,-42.5 44.5,-42.5"/>
<text text-anchor="start" x="51.5" y="-53.9" font-family="Arial" font-size="14.00" fill="#000000">simple_heading    </text>
<text text-anchor="start" x="183.7286" y="-53.9" font-family="Arial" font-size="14.00" fill="#666666">[text]</text>
</g>
<!-- authority.record_note&#45;&gt;authority.record_entry -->
<g id="edge1" class="edge">
<title>authority.record_note:record&#45;&gt;authority.record_entry:id</title>
<path fill="none" stroke="#000000" d="M367.8976,-786.8687C448.5633,-776.6183 417.3277,-644.1032 357.5,-577 264.3135,-472.4812 137.6865,-645.5188 44.5,-541 16.8455,-509.9824 2.9444,-447.5 44.5,-447.5"/>
<polygon fill="#000000" stroke="#000000" points="367.4816,-786.8938 357.2272,-783.0083 362.4908,-787.1969 357.5,-787.5 357.5,-787.5 357.5,-787.5 362.4908,-787.1969 357.7728,-791.9917 367.4816,-786.8938 367.4816,-786.8938"/>
<text text-anchor="start" x="364.602" y="-797.5" font-family="Arial" font-size="10.00" fill="#000000">FOREIGN KEY (record) REFERENCES authority.record_entry(id) DEFERRABLE INITIALLY DEFERRED</text>
</g>
</g>
</svg>
