<?xml version="1.0" encoding="UTF-8" standalone="no"?>
<!DOCTYPE svg PUBLIC "-//W3C//DTD SVG 1.1//EN"
 "http://www.w3.org/Graphics/SVG/1.1/DTD/svg11.dtd">
<!-- Generated by graphviz version 2.40.1 (20161225.0304)
 -->
<!-- Title: authority.browse_axis_authority_field_map Pages: 1 -->
<svg width="1952pt" height="742pt"
 viewBox="0.00 0.00 1952.00 742.00" xmlns="http://www.w3.org/2000/svg" xmlns:xlink="http://www.w3.org/1999/xlink">
<g id="graph0" class="graph" transform="scale(1 1) rotate(0) translate(4 738)">
<title>authority.browse_axis_authority_field_map</title>
<polygon fill="#ffffff" stroke="transparent" points="-4,4 -4,-738 1948,-738 1948,4 -4,4"/>
<!-- authority.browse_axis_authority_field_map -->
<g id="node1" class="node">
<title>authority.browse_axis_authority_field_map</title>
<polygon fill="#efefef" stroke="transparent" points="707,-652.5 707,-687.5 1189,-687.5 1189,-652.5 707,-652.5"/>
<polygon fill="none" stroke="#000000" points="707,-652.5 707,-687.5 1189,-687.5 1189,-652.5 707,-652.5"/>
<text text-anchor="start" x="713.6804" y="-665.3" font-family="Arial Bold" font-size="18.00" fill="#000000">authority.browse_axis_authority_field_map</text>
<text text-anchor="start" x="1054.7516" y="-665.3" font-family="Arial" font-size="14.00" fill="#000000">    </text>
<text text-anchor="start" x="1088.9564" y="-665.3" font-family="Arial" font-size="14.00" fill="#666666">[BASE TABLE]</text>
<polygon fill="none" stroke="#000000" points="707,-622.5 707,-652.5 1189,-652.5 1189,-622.5 707,-622.5"/>
<text text-anchor="start" x="714" y="-633.9" font-family="Arial" font-size="14.00" fill="#000000">id </text>
<text text-anchor="start" x="728.7798" y="-633.9" font-family="Arial" font-size="14.00" fill="#666666">[integer]</text>
<polygon fill="none" stroke="#000000" points="707,-592.5 707,-622.5 1189,-622.5 1189,-592.5 707,-592.5"/>
<text text-anchor="start" x="714" y="-603.9" font-family="Arial" font-size="14.00" fill="#000000">axis </text>
<text text-anchor="start" x="742.7798" y="-603.9" font-family="Arial" font-size="14.00" fill="#666666">[text]</text>
<polygon fill="none" stroke="#000000" points="707,-562.5 707,-592.5 1189,-592.5 1189,-562.5 707,-562.5"/>
<text text-anchor="start" x="714" y="-573.9" font-family="Arial" font-size="14.00" fill="#000000">field </text>
<text text-anchor="start" x="743.5596" y="-573.9" font-family="Arial" font-size="14.00" fill="#666666">[integer]</text>
<polygon fill="none" stroke="#000000" stroke-width="3" points="705.5,-561.5 705.5,-689.5 1190.5,-689.5 1190.5,-561.5 705.5,-561.5"/>
</g>
<!-- authority.browse_axis -->
<g id="node2" class="node">
<title>authority.browse_axis</title>
<polygon fill="#efefef" stroke="transparent" points="553,-282.5 553,-317.5 868,-317.5 868,-282.5 553,-282.5"/>
<polygon fill="none" stroke="#000000" points="553,-282.5 553,-317.5 868,-317.5 868,-282.5 553,-282.5"/>
<text text-anchor="start" x="559.7013" y="-295.3" font-family="Arial Bold" font-size="18.00" fill="#000000">authority.browse_axis</text>
<text text-anchor="start" x="733.7307" y="-295.3" font-family="Arial" font-size="14.00" fill="#000000">    </text>
<text text-anchor="start" x="767.9355" y="-295.3" font-family="Arial" font-size="14.00" fill="#666666">[BASE TABLE]</text>
<polygon fill="none" stroke="#000000" points="553,-252.5 553,-282.5 868,-282.5 868,-252.5 553,-252.5"/>
<text text-anchor="start" x="560" y="-263.9" font-family="Arial" font-size="14.00" fill="#000000">code    </text>
<text text-anchor="start" x="624.5526" y="-263.9" font-family="Arial" font-size="14.00" fill="#666666">[text]</text>
<polygon fill="none" stroke="#000000" points="553,-222.5 553,-252.5 868,-252.5 868,-222.5 553,-222.5"/>
<text text-anchor="start" x="560" y="-233.9" font-family="Arial" font-size="14.00" fill="#000000">name    </text>
<text text-anchor="start" x="629.2132" y="-233.9" font-family="Arial" font-size="14.00" fill="#666666">[text]</text>
<polygon fill="none" stroke="#000000" points="553,-192.5 553,-222.5 868,-222.5 868,-192.5 553,-192.5"/>
<text text-anchor="start" x="560" y="-203.9" font-family="Arial" font-size="14.00" fill="#000000">sorter    </text>
<text text-anchor="start" x="629.9818" y="-203.9" font-family="Arial" font-size="14.00" fill="#666666">[text]</text>
<polygon fill="none" stroke="#000000" points="553,-162.5 553,-192.5 868,-192.5 868,-162.5 553,-162.5"/>
<text text-anchor="start" x="560" y="-173.9" font-family="Arial" font-size="14.00" fill="#000000">description    </text>
<text text-anchor="start" x="661.8822" y="-173.9" font-family="Arial" font-size="14.00" fill="#666666">[text]</text>
</g>
<!-- authority.browse_axis_authority_field_map&#45;&gt;authority.browse_axis -->
<g id="edge1" class="edge">
<title>authority.browse_axis_authority_field_map:axis&#45;&gt;authority.browse_axis:code</title>
<path fill="none" stroke="#000000" d="M697.0004,-606.0355C671.4858,-597.2148 692.8468,-550.421 707,-517 745.8537,-425.252 829.1463,-452.748 868,-361 884.2049,-322.7343 909.5556,-267.5 868,-267.5"/>
<polygon fill="#000000" stroke="#000000" points="697.1055,-606.0508 706.3479,-611.9525 702.0528,-606.7754 707,-607.5 707,-607.5 707,-607.5 702.0528,-606.7754 707.6521,-603.0475 697.1055,-606.0508 697.1055,-606.0508"/>
<text text-anchor="start" x="7.318" y="-617.5" font-family="Arial" font-size="10.00" fill="#000000">FOREIGN KEY (axis) REFERENCES authority.browse_axis(code) ON UPDATE CASCADE ON DELETE CASCADE DEFERRABLE INITIALLY DEFERRED</text>
</g>
<!-- authority.control_set_authority_field -->
<g id="node3" class="node">
<title>authority.control_set_authority_field</title>
<polygon fill="#efefef" stroke="transparent" points="972,-402.5 972,-437.5 1397,-437.5 1397,-402.5 972,-402.5"/>
<polygon fill="none" stroke="#000000" points="972,-402.5 972,-437.5 1397,-437.5 1397,-402.5 972,-402.5"/>
<text text-anchor="start" x="978.6807" y="-415.3" font-family="Arial Bold" font-size="18.00" fill="#000000">authority.control_set_authority_field</text>
<text text-anchor="start" x="1262.7513" y="-415.3" font-family="Arial" font-size="14.00" fill="#000000">    </text>
<text text-anchor="start" x="1296.9561" y="-415.3" font-family="Arial" font-size="14.00" fill="#666666">[BASE TABLE]</text>
<polygon fill="none" stroke="#000000" points="972,-372.5 972,-402.5 1397,-402.5 1397,-372.5 972,-372.5"/>
<text text-anchor="start" x="979" y="-383.9" font-family="Arial" font-size="14.00" fill="#000000">id    </text>
<text text-anchor="start" x="1024.094" y="-383.9" font-family="Arial" font-size="14.00" fill="#666666">[integer]</text>
<polygon fill="none" stroke="#000000" points="972,-342.5 972,-372.5 1397,-372.5 1397,-342.5 972,-342.5"/>
<text text-anchor="start" x="979" y="-353.9" font-family="Arial" font-size="14.00" fill="#000000">main_entry    </text>
<text text-anchor="start" x="1082.4362" y="-353.9" font-family="Arial" font-size="14.00" fill="#666666">[integer]</text>
<polygon fill="none" stroke="#000000" points="972,-312.5 972,-342.5 1397,-342.5 1397,-312.5 972,-312.5"/>
<text text-anchor="start" x="979" y="-323.9" font-family="Arial" font-size="14.00" fill="#000000">control_set    </text>
<text text-anchor="start" x="1081.6662" y="-323.9" font-family="Arial" font-size="14.00" fill="#666666">[integer]</text>
<polygon fill="none" stroke="#000000" points="972,-282.5 972,-312.5 1397,-312.5 1397,-282.5 972,-282.5"/>
<text text-anchor="start" x="979" y="-293.9" font-family="Arial" font-size="14.00" fill="#000000">tag    </text>
<text text-anchor="start" x="1032.6606" y="-293.9" font-family="Arial" font-size="14.00" fill="#666666">[character(3)]</text>
<polygon fill="none" stroke="#000000" points="972,-252.5 972,-282.5 1397,-282.5 1397,-252.5 972,-252.5"/>
<text text-anchor="start" x="979" y="-263.9" font-family="Arial" font-size="14.00" fill="#000000">nfi    </text>
<text text-anchor="start" x="1027.9846" y="-263.9" font-family="Arial" font-size="14.00" fill="#666666">[character(1)]</text>
<polygon fill="none" stroke="#000000" points="972,-222.5 972,-252.5 1397,-252.5 1397,-222.5 972,-222.5"/>
<text text-anchor="start" x="979" y="-233.9" font-family="Arial" font-size="14.00" fill="#000000">sf_list    </text>
<text text-anchor="start" x="1048.9818" y="-233.9" font-family="Arial" font-size="14.00" fill="#666666">[text]</text>
<polygon fill="none" stroke="#000000" points="972,-192.5 972,-222.5 1397,-222.5 1397,-192.5 972,-192.5"/>
<text text-anchor="start" x="979" y="-203.9" font-family="Arial" font-size="14.00" fill="#000000">display_sf_list    </text>
<text text-anchor="start" x="1100.3254" y="-203.9" font-family="Arial" font-size="14.00" fill="#666666">[text]</text>
<polygon fill="none" stroke="#000000" points="972,-162.5 972,-192.5 1397,-192.5 1397,-162.5 972,-162.5"/>
<text text-anchor="start" x="979" y="-173.9" font-family="Arial" font-size="14.00" fill="#000000">name    </text>
<text text-anchor="start" x="1048.2132" y="-173.9" font-family="Arial" font-size="14.00" fill="#666666">[text]</text>
<polygon fill="none" stroke="#000000" points="972,-132.5 972,-162.5 1397,-162.5 1397,-132.5 972,-132.5"/>
<text text-anchor="start" x="979" y="-143.9" font-family="Arial" font-size="14.00" fill="#000000">description    </text>
<text text-anchor="start" x="1080.8822" y="-143.9" font-family="Arial" font-size="14.00" fill="#666666">[text]</text>
<polygon fill="none" stroke="#000000" points="972,-102.5 972,-132.5 1397,-132.5 1397,-102.5 972,-102.5"/>
<text text-anchor="start" x="979" y="-113.9" font-family="Arial" font-size="14.00" fill="#000000">joiner    </text>
<text text-anchor="start" x="1047.4264" y="-113.9" font-family="Arial" font-size="14.00" fill="#666666">[text]</text>
<polygon fill="none" stroke="#000000" points="972,-72.5 972,-102.5 1397,-102.5 1397,-72.5 972,-72.5"/>
<text text-anchor="start" x="979" y="-83.9" font-family="Arial" font-size="14.00" fill="#000000">linking_subfield    </text>
<text text-anchor="start" x="1108.8892" y="-83.9" font-family="Arial" font-size="14.00" fill="#666666">[character(1)]</text>
<polygon fill="none" stroke="#000000" points="972,-42.5 972,-72.5 1397,-72.5 1397,-42.5 972,-42.5"/>
<text text-anchor="start" x="979" y="-53.9" font-family="Arial" font-size="14.00" fill="#000000">heading_field    </text>
<text text-anchor="start" x="1096.4586" y="-53.9" font-family="Arial" font-size="14.00" fill="#666666">[integer]</text>
</g>
<!-- authority.browse_axis_authority_field_map&#45;&gt;authority.control_set_authority_field -->
<g id="edge2" class="edge">
<title>authority.browse_axis_authority_field_map:field&#45;&gt;authority.control_set_authority_field:id</title>
<path fill="none" stroke="#000000" d="M1199.0476,-574.7979C1212.7273,-565.4788 1203.6711,-534.3055 1189,-517 1125.7808,-442.4288 1035.2192,-555.5712 972,-481 945.1277,-449.3023 930.4444,-387.5 972,-387.5"/>
<polygon fill="#000000" stroke="#000000" points="1198.6569,-574.9029 1187.8313,-573.1544 1193.8284,-576.2015 1189,-577.5 1189,-577.5 1189,-577.5 1193.8284,-576.2015 1190.1687,-581.8456 1198.6569,-574.9029 1198.6569,-574.9029"/>
<text text-anchor="start" x="1196.422" y="-587.5" font-family="Arial" font-size="10.00" fill="#000000">FOREIGN KEY (field) REFERENCES authority.control_set_authority_field(id) ON UPDATE CASCADE ON DELETE CASCADE DEFERRABLE INITIALLY DEFERRED</text>
</g>
</g>
</svg>
