<?xml version="1.0" encoding="UTF-8" standalone="no"?>
<!DOCTYPE svg PUBLIC "-//W3C//DTD SVG 1.1//EN"
 "http://www.w3.org/Graphics/SVG/1.1/DTD/svg11.dtd">
<!-- Generated by graphviz version 2.40.1 (20161225.0304)
 -->
<!-- Title: authority.tracing_links Pages: 1 -->
<svg width="365pt" height="495pt"
 viewBox="0.00 0.00 365.00 495.00" xmlns="http://www.w3.org/2000/svg" xmlns:xlink="http://www.w3.org/1999/xlink">
<g id="graph0" class="graph" transform="scale(1 1) rotate(0) translate(4 491)">
<title>authority.tracing_links</title>
<polygon fill="#ffffff" stroke="transparent" points="-4,4 -4,-491 361,-491 361,4 -4,4"/>
<!-- authority.tracing_links -->
<g id="node1" class="node">
<title>authority.tracing_links</title>
<polygon fill="#efefef" stroke="transparent" points="46.5,-405.5 46.5,-440.5 311.5,-440.5 311.5,-405.5 46.5,-405.5"/>
<polygon fill="none" stroke="#000000" points="46.5,-405.5 46.5,-440.5 311.5,-440.5 311.5,-405.5 46.5,-405.5"/>
<text text-anchor="start" x="53.1049" y="-418.3" font-family="Arial Bold" font-size="18.00" fill="#000000">authority.tracing_links</text>
<text text-anchor="start" x="227.1307" y="-418.3" font-family="Arial" font-size="14.00" fill="#000000">    </text>
<text text-anchor="start" x="261.3355" y="-418.3" font-family="Arial" font-size="14.00" fill="#666666">[VIEW]</text>
<polygon fill="none" stroke="#000000" points="46.5,-375.5 46.5,-405.5 311.5,-405.5 311.5,-375.5 46.5,-375.5"/>
<text text-anchor="start" x="53.5" y="-386.9" font-family="Arial" font-size="14.00" fill="#000000">record </text>
<text text-anchor="start" x="97.0596" y="-386.9" font-family="Arial" font-size="14.00" fill="#666666">[bigint]</text>
<polygon fill="none" stroke="#000000" points="46.5,-345.5 46.5,-375.5 311.5,-375.5 311.5,-345.5 46.5,-345.5"/>
<text text-anchor="start" x="53.5" y="-356.9" font-family="Arial" font-size="14.00" fill="#000000">main_id </text>
<text text-anchor="start" x="106.3948" y="-356.9" font-family="Arial" font-size="14.00" fill="#666666">[bigint]</text>
<polygon fill="none" stroke="#000000" points="46.5,-315.5 46.5,-345.5 311.5,-345.5 311.5,-315.5 46.5,-315.5"/>
<text text-anchor="start" x="53.5" y="-326.9" font-family="Arial" font-size="14.00" fill="#000000">main_tag </text>
<text text-anchor="start" x="114.9614" y="-326.9" font-family="Arial" font-size="14.00" fill="#666666">[character(3)]</text>
<polygon fill="none" stroke="#000000" points="46.5,-285.5 46.5,-315.5 311.5,-315.5 311.5,-285.5 46.5,-285.5"/>
<text text-anchor="start" x="53.5" y="-296.9" font-family="Arial" font-size="14.00" fill="#000000">main_value </text>
<text text-anchor="start" x="128.96" y="-296.9" font-family="Arial" font-size="14.00" fill="#666666">[text]</text>
<polygon fill="none" stroke="#000000" points="46.5,-255.5 46.5,-285.5 311.5,-285.5 311.5,-255.5 46.5,-255.5"/>
<text text-anchor="start" x="53.5" y="-266.9" font-family="Arial" font-size="14.00" fill="#000000">relationship </text>
<text text-anchor="start" x="128.9572" y="-266.9" font-family="Arial" font-size="14.00" fill="#666666">[text]</text>
<polygon fill="none" stroke="#000000" points="46.5,-225.5 46.5,-255.5 311.5,-255.5 311.5,-225.5 46.5,-225.5"/>
<text text-anchor="start" x="53.5" y="-236.9" font-family="Arial" font-size="14.00" fill="#000000">use_restriction </text>
<text text-anchor="start" x="148.4018" y="-236.9" font-family="Arial" font-size="14.00" fill="#666666">[text]</text>
<polygon fill="none" stroke="#000000" points="46.5,-195.5 46.5,-225.5 311.5,-225.5 311.5,-195.5 46.5,-195.5"/>
<text text-anchor="start" x="53.5" y="-206.9" font-family="Arial" font-size="14.00" fill="#000000">deprecation </text>
<text text-anchor="start" x="130.5266" y="-206.9" font-family="Arial" font-size="14.00" fill="#666666">[text]</text>
<polygon fill="none" stroke="#000000" points="46.5,-165.5 46.5,-195.5 311.5,-195.5 311.5,-165.5 46.5,-165.5"/>
<text text-anchor="start" x="53.5" y="-176.9" font-family="Arial" font-size="14.00" fill="#000000">display_restriction </text>
<text text-anchor="start" x="169.3976" y="-176.9" font-family="Arial" font-size="14.00" fill="#666666">[text]</text>
<polygon fill="none" stroke="#000000" points="46.5,-135.5 46.5,-165.5 311.5,-165.5 311.5,-135.5 46.5,-135.5"/>
<text text-anchor="start" x="53.5" y="-146.9" font-family="Arial" font-size="14.00" fill="#000000">link_id </text>
<text text-anchor="start" x="97.0582" y="-146.9" font-family="Arial" font-size="14.00" fill="#666666">[bigint]</text>
<polygon fill="none" stroke="#000000" points="46.5,-105.5 46.5,-135.5 311.5,-135.5 311.5,-105.5 46.5,-105.5"/>
<text text-anchor="start" x="53.5" y="-116.9" font-family="Arial" font-size="14.00" fill="#000000">link_tag </text>
<text text-anchor="start" x="105.6248" y="-116.9" font-family="Arial" font-size="14.00" fill="#666666">[character(3)]</text>
<polygon fill="none" stroke="#000000" points="46.5,-75.5 46.5,-105.5 311.5,-105.5 311.5,-75.5 46.5,-75.5"/>
<text text-anchor="start" x="53.5" y="-86.9" font-family="Arial" font-size="14.00" fill="#000000">link_value </text>
<text text-anchor="start" x="119.6234" y="-86.9" font-family="Arial" font-size="14.00" fill="#666666">[text]</text>
<polygon fill="none" stroke="#000000" points="46.5,-45.5 46.5,-75.5 311.5,-75.5 311.5,-45.5 46.5,-45.5"/>
<text text-anchor="start" x="53.5" y="-56.9" font-family="Arial" font-size="14.00" fill="#000000">normalized_main_value </text>
<text text-anchor="start" x="205.19" y="-56.9" font-family="Arial" font-size="14.00" fill="#666666">[text]</text>
<polygon fill="none" stroke="#000000" stroke-width="3" points="44.5,-44.5 44.5,-442.5 312.5,-442.5 312.5,-44.5 44.5,-44.5"/>
</g>
</g>
</svg>
