<?xml version="1.0" encoding="UTF-8" standalone="no"?>
<!DOCTYPE svg PUBLIC "-//W3C//DTD SVG 1.1//EN"
 "http://www.w3.org/Graphics/SVG/1.1/DTD/svg11.dtd">
<!-- Generated by graphviz version 2.40.1 (20161225.0304)
 -->
<!-- Title: authority.authority_linking Pages: 1 -->
<svg width="958pt" height="832pt"
 viewBox="0.00 0.00 958.00 832.00" xmlns="http://www.w3.org/2000/svg" xmlns:xlink="http://www.w3.org/1999/xlink">
<g id="graph0" class="graph" transform="scale(1 1) rotate(0) translate(4 828)">
<title>authority.authority_linking</title>
<polygon fill="#ffffff" stroke="transparent" points="-4,4 -4,-828 954,-828 954,4 -4,4"/>
<!-- authority.authority_linking -->
<g id="node1" class="node">
<title>authority.authority_linking</title>
<polygon fill="#efefef" stroke="transparent" points="46.5,-742.5 46.5,-777.5 391.5,-777.5 391.5,-742.5 46.5,-742.5"/>
<polygon fill="none" stroke="#000000" points="46.5,-742.5 46.5,-777.5 391.5,-777.5 391.5,-742.5 46.5,-742.5"/>
<text text-anchor="start" x="53.1956" y="-755.3" font-family="Arial Bold" font-size="18.00" fill="#000000">authority.authority_linking</text>
<text text-anchor="start" x="257.2364" y="-755.3" font-family="Arial" font-size="14.00" fill="#000000">    </text>
<text text-anchor="start" x="291.4412" y="-755.3" font-family="Arial" font-size="14.00" fill="#666666">[BASE TABLE]</text>
<polygon fill="none" stroke="#000000" points="46.5,-712.5 46.5,-742.5 391.5,-742.5 391.5,-712.5 46.5,-712.5"/>
<text text-anchor="start" x="53.5" y="-723.9" font-family="Arial" font-size="14.00" fill="#000000">id </text>
<text text-anchor="start" x="68.2798" y="-723.9" font-family="Arial" font-size="14.00" fill="#666666">[bigint]</text>
<polygon fill="none" stroke="#000000" points="46.5,-682.5 46.5,-712.5 391.5,-712.5 391.5,-682.5 46.5,-682.5"/>
<text text-anchor="start" x="53.5" y="-693.9" font-family="Arial" font-size="14.00" fill="#000000">source </text>
<text text-anchor="start" x="99.399" y="-693.9" font-family="Arial" font-size="14.00" fill="#666666">[bigint]</text>
<polygon fill="none" stroke="#000000" points="46.5,-652.5 46.5,-682.5 391.5,-682.5 391.5,-652.5 46.5,-652.5"/>
<text text-anchor="start" x="53.5" y="-663.9" font-family="Arial" font-size="14.00" fill="#000000">target </text>
<text text-anchor="start" x="93.1802" y="-663.9" font-family="Arial" font-size="14.00" fill="#666666">[bigint]</text>
<polygon fill="none" stroke="#000000" points="46.5,-622.5 46.5,-652.5 391.5,-652.5 391.5,-622.5 46.5,-622.5"/>
<text text-anchor="start" x="53.5" y="-633.9" font-family="Arial" font-size="14.00" fill="#000000">field </text>
<text text-anchor="start" x="83.0596" y="-633.9" font-family="Arial" font-size="14.00" fill="#666666">[integer]</text>
<polygon fill="none" stroke="#000000" stroke-width="3" points="44.5,-621.5 44.5,-779.5 392.5,-779.5 392.5,-621.5 44.5,-621.5"/>
</g>
<!-- authority.record_entry -->
<g id="node2" class="node">
<title>authority.record_entry</title>
<polygon fill="#efefef" stroke="transparent" points="61.5,-462.5 61.5,-497.5 377.5,-497.5 377.5,-462.5 61.5,-462.5"/>
<polygon fill="none" stroke="#000000" points="61.5,-462.5 61.5,-497.5 377.5,-497.5 377.5,-462.5 61.5,-462.5"/>
<text text-anchor="start" x="68.1991" y="-475.3" font-family="Arial Bold" font-size="18.00" fill="#000000">authority.record_entry</text>
<text text-anchor="start" x="243.2329" y="-475.3" font-family="Arial" font-size="14.00" fill="#000000">    </text>
<text text-anchor="start" x="277.4377" y="-475.3" font-family="Arial" font-size="14.00" fill="#666666">[BASE TABLE]</text>
<polygon fill="none" stroke="#000000" points="61.5,-432.5 61.5,-462.5 377.5,-462.5 377.5,-432.5 61.5,-432.5"/>
<text text-anchor="start" x="68.5" y="-443.9" font-family="Arial" font-size="14.00" fill="#000000">id    </text>
<text text-anchor="start" x="113.594" y="-443.9" font-family="Arial" font-size="14.00" fill="#666666">[bigint]</text>
<polygon fill="none" stroke="#000000" points="61.5,-402.5 61.5,-432.5 377.5,-432.5 377.5,-402.5 61.5,-402.5"/>
<text text-anchor="start" x="68.5" y="-413.9" font-family="Arial" font-size="14.00" fill="#000000">create_date    </text>
<text text-anchor="start" x="176.6248" y="-413.9" font-family="Arial" font-size="14.00" fill="#666666">[timestamp with time zone]</text>
<polygon fill="none" stroke="#000000" points="61.5,-372.5 61.5,-402.5 377.5,-402.5 377.5,-372.5 61.5,-372.5"/>
<text text-anchor="start" x="68.5" y="-383.9" font-family="Arial" font-size="14.00" fill="#000000">edit_date    </text>
<text text-anchor="start" x="160.2882" y="-383.9" font-family="Arial" font-size="14.00" fill="#666666">[timestamp with time zone]</text>
<polygon fill="none" stroke="#000000" points="61.5,-342.5 61.5,-372.5 377.5,-372.5 377.5,-342.5 61.5,-342.5"/>
<text text-anchor="start" x="68.5" y="-353.9" font-family="Arial" font-size="14.00" fill="#000000">creator    </text>
<text text-anchor="start" x="146.2644" y="-353.9" font-family="Arial" font-size="14.00" fill="#666666">[integer]</text>
<polygon fill="none" stroke="#000000" points="61.5,-312.5 61.5,-342.5 377.5,-342.5 377.5,-312.5 61.5,-312.5"/>
<text text-anchor="start" x="68.5" y="-323.9" font-family="Arial" font-size="14.00" fill="#000000">editor    </text>
<text text-anchor="start" x="137.7104" y="-323.9" font-family="Arial" font-size="14.00" fill="#666666">[integer]</text>
<polygon fill="none" stroke="#000000" points="61.5,-282.5 61.5,-312.5 377.5,-312.5 377.5,-282.5 61.5,-282.5"/>
<text text-anchor="start" x="68.5" y="-293.9" font-family="Arial" font-size="14.00" fill="#000000">active    </text>
<text text-anchor="start" x="139.2672" y="-293.9" font-family="Arial" font-size="14.00" fill="#666666">[boolean]</text>
<polygon fill="none" stroke="#000000" points="61.5,-252.5 61.5,-282.5 377.5,-282.5 377.5,-252.5 61.5,-252.5"/>
<text text-anchor="start" x="68.5" y="-263.9" font-family="Arial" font-size="14.00" fill="#000000">deleted    </text>
<text text-anchor="start" x="148.615" y="-263.9" font-family="Arial" font-size="14.00" fill="#666666">[boolean]</text>
<polygon fill="none" stroke="#000000" points="61.5,-222.5 61.5,-252.5 377.5,-252.5 377.5,-222.5 61.5,-222.5"/>
<text text-anchor="start" x="68.5" y="-233.9" font-family="Arial" font-size="14.00" fill="#000000">source    </text>
<text text-anchor="start" x="144.7132" y="-233.9" font-family="Arial" font-size="14.00" fill="#666666">[integer]</text>
<polygon fill="none" stroke="#000000" points="61.5,-192.5 61.5,-222.5 377.5,-222.5 377.5,-192.5 61.5,-192.5"/>
<text text-anchor="start" x="68.5" y="-203.9" font-family="Arial" font-size="14.00" fill="#000000">control_set    </text>
<text text-anchor="start" x="171.1662" y="-203.9" font-family="Arial" font-size="14.00" fill="#666666">[integer]</text>
<polygon fill="none" stroke="#000000" points="61.5,-162.5 61.5,-192.5 377.5,-192.5 377.5,-162.5 61.5,-162.5"/>
<text text-anchor="start" x="68.5" y="-173.9" font-family="Arial" font-size="14.00" fill="#000000">marc    </text>
<text text-anchor="start" x="133.8086" y="-173.9" font-family="Arial" font-size="14.00" fill="#666666">[text]</text>
<polygon fill="none" stroke="#000000" points="61.5,-132.5 61.5,-162.5 377.5,-162.5 377.5,-132.5 61.5,-132.5"/>
<text text-anchor="start" x="68.5" y="-143.9" font-family="Arial" font-size="14.00" fill="#000000">last_xact_id    </text>
<text text-anchor="start" x="176.6122" y="-143.9" font-family="Arial" font-size="14.00" fill="#666666">[text]</text>
<polygon fill="none" stroke="#000000" points="61.5,-102.5 61.5,-132.5 377.5,-132.5 377.5,-102.5 61.5,-102.5"/>
<text text-anchor="start" x="68.5" y="-113.9" font-family="Arial" font-size="14.00" fill="#000000">owner    </text>
<text text-anchor="start" x="140.8198" y="-113.9" font-family="Arial" font-size="14.00" fill="#666666">[integer]</text>
<polygon fill="none" stroke="#000000" points="61.5,-72.5 61.5,-102.5 377.5,-102.5 377.5,-72.5 61.5,-72.5"/>
<text text-anchor="start" x="68.5" y="-83.9" font-family="Arial" font-size="14.00" fill="#000000">heading    </text>
<text text-anchor="start" x="152.507" y="-83.9" font-family="Arial" font-size="14.00" fill="#666666">[text]</text>
<polygon fill="none" stroke="#000000" points="61.5,-42.5 61.5,-72.5 377.5,-72.5 377.5,-42.5 61.5,-42.5"/>
<text text-anchor="start" x="68.5" y="-53.9" font-family="Arial" font-size="14.00" fill="#000000">simple_heading    </text>
<text text-anchor="start" x="200.7286" y="-53.9" font-family="Arial" font-size="14.00" fill="#666666">[text]</text>
</g>
<!-- authority.authority_linking&#45;&gt;authority.record_entry -->
<g id="edge1" class="edge">
<title>authority.authority_linking:source&#45;&gt;authority.record_entry:id</title>
<path fill="none" stroke="#000000" d="M401.4998,-696.4084C442.5383,-686.6668 424.8128,-614.1446 391.5,-577 342.2474,-522.0822 110.7526,-595.9178 61.5,-541 33.7548,-510.0635 19.9444,-447.5 61.5,-447.5"/>
<polygon fill="#000000" stroke="#000000" points="401.4409,-696.4148 391.0116,-693.0266 396.4705,-696.9574 391.5,-697.5 391.5,-697.5 391.5,-697.5 396.4705,-696.9574 391.9884,-701.9734 401.4409,-696.4148 401.4409,-696.4148"/>
<text text-anchor="start" x="398.8265" y="-707.5" font-family="Arial" font-size="10.00" fill="#000000">FOREIGN KEY (source) REFERENCES authority.record_entry(id)</text>
</g>
<!-- authority.authority_linking&#45;&gt;authority.record_entry -->
<g id="edge2" class="edge">
<title>authority.authority_linking:target&#45;&gt;authority.record_entry:id</title>
<path fill="none" stroke="#000000" d="M401.4325,-665.9784C429.0973,-656.4148 415.8373,-604.1367 391.5,-577 342.2474,-522.0822 110.7526,-595.9178 61.5,-541 33.7548,-510.0635 19.9444,-447.5 61.5,-447.5"/>
<polygon fill="#000000" stroke="#000000" points="401.3847,-665.9857 390.8186,-663.0519 396.4423,-666.7428 391.5,-667.5 391.5,-667.5 391.5,-667.5 396.4423,-666.7428 392.1814,-671.9481 401.3847,-665.9857 401.3847,-665.9857"/>
<text text-anchor="start" x="398.0475" y="-677.5" font-family="Arial" font-size="10.00" fill="#000000">FOREIGN KEY (target) REFERENCES authority.record_entry(id)</text>
</g>
<!-- authority.control_set_authority_field -->
<g id="node3" class="node">
<title>authority.control_set_authority_field</title>
<polygon fill="#efefef" stroke="transparent" points="482.5,-432.5 482.5,-467.5 907.5,-467.5 907.5,-432.5 482.5,-432.5"/>
<polygon fill="none" stroke="#000000" points="482.5,-432.5 482.5,-467.5 907.5,-467.5 907.5,-432.5 482.5,-432.5"/>
<text text-anchor="start" x="489.1807" y="-445.3" font-family="Arial Bold" font-size="18.00" fill="#000000">authority.control_set_authority_field</text>
<text text-anchor="start" x="773.2513" y="-445.3" font-family="Arial" font-size="14.00" fill="#000000">    </text>
<text text-anchor="start" x="807.4561" y="-445.3" font-family="Arial" font-size="14.00" fill="#666666">[BASE TABLE]</text>
<polygon fill="none" stroke="#000000" points="482.5,-402.5 482.5,-432.5 907.5,-432.5 907.5,-402.5 482.5,-402.5"/>
<text text-anchor="start" x="489.5" y="-413.9" font-family="Arial" font-size="14.00" fill="#000000">id    </text>
<text text-anchor="start" x="534.594" y="-413.9" font-family="Arial" font-size="14.00" fill="#666666">[integer]</text>
<polygon fill="none" stroke="#000000" points="482.5,-372.5 482.5,-402.5 907.5,-402.5 907.5,-372.5 482.5,-372.5"/>
<text text-anchor="start" x="489.5" y="-383.9" font-family="Arial" font-size="14.00" fill="#000000">main_entry    </text>
<text text-anchor="start" x="592.9362" y="-383.9" font-family="Arial" font-size="14.00" fill="#666666">[integer]</text>
<polygon fill="none" stroke="#000000" points="482.5,-342.5 482.5,-372.5 907.5,-372.5 907.5,-342.5 482.5,-342.5"/>
<text text-anchor="start" x="489.5" y="-353.9" font-family="Arial" font-size="14.00" fill="#000000">control_set    </text>
<text text-anchor="start" x="592.1662" y="-353.9" font-family="Arial" font-size="14.00" fill="#666666">[integer]</text>
<polygon fill="none" stroke="#000000" points="482.5,-312.5 482.5,-342.5 907.5,-342.5 907.5,-312.5 482.5,-312.5"/>
<text text-anchor="start" x="489.5" y="-323.9" font-family="Arial" font-size="14.00" fill="#000000">tag    </text>
<text text-anchor="start" x="543.1606" y="-323.9" font-family="Arial" font-size="14.00" fill="#666666">[character(3)]</text>
<polygon fill="none" stroke="#000000" points="482.5,-282.5 482.5,-312.5 907.5,-312.5 907.5,-282.5 482.5,-282.5"/>
<text text-anchor="start" x="489.5" y="-293.9" font-family="Arial" font-size="14.00" fill="#000000">nfi    </text>
<text text-anchor="start" x="538.4846" y="-293.9" font-family="Arial" font-size="14.00" fill="#666666">[character(1)]</text>
<polygon fill="none" stroke="#000000" points="482.5,-252.5 482.5,-282.5 907.5,-282.5 907.5,-252.5 482.5,-252.5"/>
<text text-anchor="start" x="489.5" y="-263.9" font-family="Arial" font-size="14.00" fill="#000000">sf_list    </text>
<text text-anchor="start" x="559.4818" y="-263.9" font-family="Arial" font-size="14.00" fill="#666666">[text]</text>
<polygon fill="none" stroke="#000000" points="482.5,-222.5 482.5,-252.5 907.5,-252.5 907.5,-222.5 482.5,-222.5"/>
<text text-anchor="start" x="489.5" y="-233.9" font-family="Arial" font-size="14.00" fill="#000000">display_sf_list    </text>
<text text-anchor="start" x="610.8254" y="-233.9" font-family="Arial" font-size="14.00" fill="#666666">[text]</text>
<polygon fill="none" stroke="#000000" points="482.5,-192.5 482.5,-222.5 907.5,-222.5 907.5,-192.5 482.5,-192.5"/>
<text text-anchor="start" x="489.5" y="-203.9" font-family="Arial" font-size="14.00" fill="#000000">name    </text>
<text text-anchor="start" x="558.7132" y="-203.9" font-family="Arial" font-size="14.00" fill="#666666">[text]</text>
<polygon fill="none" stroke="#000000" points="482.5,-162.5 482.5,-192.5 907.5,-192.5 907.5,-162.5 482.5,-162.5"/>
<text text-anchor="start" x="489.5" y="-173.9" font-family="Arial" font-size="14.00" fill="#000000">description    </text>
<text text-anchor="start" x="591.3822" y="-173.9" font-family="Arial" font-size="14.00" fill="#666666">[text]</text>
<polygon fill="none" stroke="#000000" points="482.5,-132.5 482.5,-162.5 907.5,-162.5 907.5,-132.5 482.5,-132.5"/>
<text text-anchor="start" x="489.5" y="-143.9" font-family="Arial" font-size="14.00" fill="#000000">joiner    </text>
<text text-anchor="start" x="557.9264" y="-143.9" font-family="Arial" font-size="14.00" fill="#666666">[text]</text>
<polygon fill="none" stroke="#000000" points="482.5,-102.5 482.5,-132.5 907.5,-132.5 907.5,-102.5 482.5,-102.5"/>
<text text-anchor="start" x="489.5" y="-113.9" font-family="Arial" font-size="14.00" fill="#000000">linking_subfield    </text>
<text text-anchor="start" x="619.3892" y="-113.9" font-family="Arial" font-size="14.00" fill="#666666">[character(1)]</text>
<polygon fill="none" stroke="#000000" points="482.5,-72.5 482.5,-102.5 907.5,-102.5 907.5,-72.5 482.5,-72.5"/>
<text text-anchor="start" x="489.5" y="-83.9" font-family="Arial" font-size="14.00" fill="#000000">heading_field    </text>
<text text-anchor="start" x="606.9586" y="-83.9" font-family="Arial" font-size="14.00" fill="#666666">[integer]</text>
</g>
<!-- authority.authority_linking&#45;&gt;authority.control_set_authority_field -->
<g id="edge3" class="edge">
<title>authority.authority_linking:field&#45;&gt;authority.control_set_authority_field:id</title>
<path fill="none" stroke="#000000" d="M401.5744,-636.7465C489.331,-622.718 380.3043,-417.5 482.5,-417.5"/>
<polygon fill="#000000" stroke="#000000" points="401.4721,-636.7541 391.1643,-633.0125 396.4861,-637.127 391.5,-637.5 391.5,-637.5 391.5,-637.5 396.4861,-637.127 391.8357,-641.9875 401.4721,-636.7541 401.4721,-636.7541"/>
<text text-anchor="start" x="398.374" y="-647.5" font-family="Arial" font-size="10.00" fill="#000000">FOREIGN KEY (field) REFERENCES authority.control_set_authority_field(id)</text>
</g>
</g>
</svg>
