<?xml version="1.0" encoding="UTF-8" standalone="no"?>
<!DOCTYPE svg PUBLIC "-//W3C//DTD SVG 1.1//EN"
 "http://www.w3.org/Graphics/SVG/1.1/DTD/svg11.dtd">
<!-- Generated by graphviz version 2.40.1 (20161225.0304)
 -->
<!-- Title: authority.browse_axis Pages: 1 -->
<svg width="1240pt" height="1169pt"
 viewBox="0.00 0.00 1240.00 1169.00" xmlns="http://www.w3.org/2000/svg" xmlns:xlink="http://www.w3.org/1999/xlink">
<g id="graph0" class="graph" transform="scale(1 1) rotate(0) translate(4 1165)">
<title>authority.browse_axis</title>
<polygon fill="#ffffff" stroke="transparent" points="-4,4 -4,-1165 1236,-1165 1236,4 -4,4"/>
<!-- authority.browse_axis -->
<g id="node1" class="node">
<title>authority.browse_axis</title>
<polygon fill="#efefef" stroke="transparent" points="790,-832.5 790,-867.5 1105,-867.5 1105,-832.5 790,-832.5"/>
<polygon fill="none" stroke="#000000" points="790,-832.5 790,-867.5 1105,-867.5 1105,-832.5 790,-832.5"/>
<text text-anchor="start" x="796.7013" y="-845.3" font-family="Arial Bold" font-size="18.00" fill="#000000">authority.browse_axis</text>
<text text-anchor="start" x="970.7307" y="-845.3" font-family="Arial" font-size="14.00" fill="#000000">    </text>
<text text-anchor="start" x="1004.9355" y="-845.3" font-family="Arial" font-size="14.00" fill="#666666">[BASE TABLE]</text>
<polygon fill="none" stroke="#000000" points="790,-802.5 790,-832.5 1105,-832.5 1105,-802.5 790,-802.5"/>
<text text-anchor="start" x="797" y="-813.9" font-family="Arial" font-size="14.00" fill="#000000">code </text>
<text text-anchor="start" x="831.2384" y="-813.9" font-family="Arial" font-size="14.00" fill="#666666">[text]</text>
<polygon fill="none" stroke="#000000" points="790,-772.5 790,-802.5 1105,-802.5 1105,-772.5 790,-772.5"/>
<text text-anchor="start" x="797" y="-783.9" font-family="Arial" font-size="14.00" fill="#000000">name </text>
<text text-anchor="start" x="835.899" y="-783.9" font-family="Arial" font-size="14.00" fill="#666666">[text]</text>
<polygon fill="none" stroke="#000000" points="790,-742.5 790,-772.5 1105,-772.5 1105,-742.5 790,-742.5"/>
<text text-anchor="start" x="797" y="-753.9" font-family="Arial" font-size="14.00" fill="#000000">sorter </text>
<text text-anchor="start" x="836.6676" y="-753.9" font-family="Arial" font-size="14.00" fill="#666666">[text]</text>
<polygon fill="none" stroke="#000000" points="790,-712.5 790,-742.5 1105,-742.5 1105,-712.5 790,-712.5"/>
<text text-anchor="start" x="797" y="-723.9" font-family="Arial" font-size="14.00" fill="#000000">description </text>
<text text-anchor="start" x="868.568" y="-723.9" font-family="Arial" font-size="14.00" fill="#666666">[text]</text>
<polygon fill="none" stroke="#000000" stroke-width="3" points="788,-711.5 788,-869.5 1106,-869.5 1106,-711.5 788,-711.5"/>
</g>
<!-- config.record_attr_definition -->
<g id="node3" class="node">
<title>config.record_attr_definition</title>
<polygon fill="#efefef" stroke="transparent" points="766,-552.5 766,-587.5 1129,-587.5 1129,-552.5 766,-552.5"/>
<polygon fill="none" stroke="#000000" points="766,-552.5 766,-587.5 1129,-587.5 1129,-552.5 766,-552.5"/>
<text text-anchor="start" x="772.6893" y="-565.3" font-family="Arial Bold" font-size="18.00" fill="#000000">config.record_attr_definition</text>
<text text-anchor="start" x="994.7427" y="-565.3" font-family="Arial" font-size="14.00" fill="#000000">    </text>
<text text-anchor="start" x="1028.9475" y="-565.3" font-family="Arial" font-size="14.00" fill="#666666">[BASE TABLE]</text>
<polygon fill="none" stroke="#000000" points="766,-522.5 766,-552.5 1129,-552.5 1129,-522.5 766,-522.5"/>
<text text-anchor="start" x="773" y="-533.9" font-family="Arial" font-size="14.00" fill="#000000">name    </text>
<text text-anchor="start" x="842.2132" y="-533.9" font-family="Arial" font-size="14.00" fill="#666666">[text]</text>
<polygon fill="none" stroke="#000000" points="766,-492.5 766,-522.5 1129,-522.5 1129,-492.5 766,-492.5"/>
<text text-anchor="start" x="773" y="-503.9" font-family="Arial" font-size="14.00" fill="#000000">label    </text>
<text text-anchor="start" x="836.7658" y="-503.9" font-family="Arial" font-size="14.00" fill="#666666">[text]</text>
<polygon fill="none" stroke="#000000" points="766,-462.5 766,-492.5 1129,-492.5 1129,-462.5 766,-462.5"/>
<text text-anchor="start" x="773" y="-473.9" font-family="Arial" font-size="14.00" fill="#000000">description    </text>
<text text-anchor="start" x="874.8822" y="-473.9" font-family="Arial" font-size="14.00" fill="#666666">[text]</text>
<polygon fill="none" stroke="#000000" points="766,-432.5 766,-462.5 1129,-462.5 1129,-432.5 766,-432.5"/>
<text text-anchor="start" x="773" y="-443.9" font-family="Arial" font-size="14.00" fill="#000000">multi    </text>
<text text-anchor="start" x="836.7518" y="-443.9" font-family="Arial" font-size="14.00" fill="#666666">[boolean]</text>
<polygon fill="none" stroke="#000000" points="766,-402.5 766,-432.5 1129,-432.5 1129,-402.5 766,-402.5"/>
<text text-anchor="start" x="773" y="-413.9" font-family="Arial" font-size="14.00" fill="#000000">filter    </text>
<text text-anchor="start" x="833.6424" y="-413.9" font-family="Arial" font-size="14.00" fill="#666666">[boolean]</text>
<polygon fill="none" stroke="#000000" points="766,-372.5 766,-402.5 1129,-402.5 1129,-372.5 766,-372.5"/>
<text text-anchor="start" x="773" y="-383.9" font-family="Arial" font-size="14.00" fill="#000000">sorter    </text>
<text text-anchor="start" x="842.9818" y="-383.9" font-family="Arial" font-size="14.00" fill="#666666">[boolean]</text>
<polygon fill="none" stroke="#000000" points="766,-342.5 766,-372.5 1129,-372.5 1129,-342.5 766,-342.5"/>
<text text-anchor="start" x="773" y="-353.9" font-family="Arial" font-size="14.00" fill="#000000">composite    </text>
<text text-anchor="start" x="870.993" y="-353.9" font-family="Arial" font-size="14.00" fill="#666666">[boolean]</text>
<polygon fill="none" stroke="#000000" points="766,-312.5 766,-342.5 1129,-342.5 1129,-312.5 766,-312.5"/>
<text text-anchor="start" x="773" y="-323.9" font-family="Arial" font-size="14.00" fill="#000000">tag    </text>
<text text-anchor="start" x="826.6606" y="-323.9" font-family="Arial" font-size="14.00" fill="#666666">[text]</text>
<polygon fill="none" stroke="#000000" points="766,-282.5 766,-312.5 1129,-312.5 1129,-282.5 766,-282.5"/>
<text text-anchor="start" x="773" y="-293.9" font-family="Arial" font-size="14.00" fill="#000000">sf_list    </text>
<text text-anchor="start" x="842.9818" y="-293.9" font-family="Arial" font-size="14.00" fill="#666666">[text]</text>
<polygon fill="none" stroke="#000000" points="766,-252.5 766,-282.5 1129,-282.5 1129,-252.5 766,-252.5"/>
<text text-anchor="start" x="773" y="-263.9" font-family="Arial" font-size="14.00" fill="#000000">joiner    </text>
<text text-anchor="start" x="841.4264" y="-263.9" font-family="Arial" font-size="14.00" fill="#666666">[text]</text>
<polygon fill="none" stroke="#000000" points="766,-222.5 766,-252.5 1129,-252.5 1129,-222.5 766,-222.5"/>
<text text-anchor="start" x="773" y="-233.9" font-family="Arial" font-size="14.00" fill="#000000">xpath    </text>
<text text-anchor="start" x="841.4432" y="-233.9" font-family="Arial" font-size="14.00" fill="#666666">[text]</text>
<polygon fill="none" stroke="#000000" points="766,-192.5 766,-222.5 1129,-222.5 1129,-192.5 766,-192.5"/>
<text text-anchor="start" x="773" y="-203.9" font-family="Arial" font-size="14.00" fill="#000000">format    </text>
<text text-anchor="start" x="846.8724" y="-203.9" font-family="Arial" font-size="14.00" fill="#666666">[text]</text>
<polygon fill="none" stroke="#000000" points="766,-162.5 766,-192.5 1129,-192.5 1129,-162.5 766,-162.5"/>
<text text-anchor="start" x="773" y="-173.9" font-family="Arial" font-size="14.00" fill="#000000">start_pos    </text>
<text text-anchor="start" x="864.777" y="-173.9" font-family="Arial" font-size="14.00" fill="#666666">[integer]</text>
<polygon fill="none" stroke="#000000" points="766,-132.5 766,-162.5 1129,-162.5 1129,-132.5 766,-132.5"/>
<text text-anchor="start" x="773" y="-143.9" font-family="Arial" font-size="14.00" fill="#000000">string_len    </text>
<text text-anchor="start" x="867.8822" y="-143.9" font-family="Arial" font-size="14.00" fill="#666666">[integer]</text>
<polygon fill="none" stroke="#000000" points="766,-102.5 766,-132.5 1129,-132.5 1129,-102.5 766,-102.5"/>
<text text-anchor="start" x="773" y="-113.9" font-family="Arial" font-size="14.00" fill="#000000">fixed_field    </text>
<text text-anchor="start" x="870.2188" y="-113.9" font-family="Arial" font-size="14.00" fill="#666666">[text]</text>
<polygon fill="none" stroke="#000000" points="766,-72.5 766,-102.5 1129,-102.5 1129,-72.5 766,-72.5"/>
<text text-anchor="start" x="773" y="-83.9" font-family="Arial" font-size="14.00" fill="#000000">phys_char_sf    </text>
<text text-anchor="start" x="890.4516" y="-83.9" font-family="Arial" font-size="14.00" fill="#666666">[integer]</text>
<polygon fill="none" stroke="#000000" points="766,-42.5 766,-72.5 1129,-72.5 1129,-42.5 766,-42.5"/>
<text text-anchor="start" x="773" y="-53.9" font-family="Arial" font-size="14.00" fill="#000000">vocabulary    </text>
<text text-anchor="start" x="874.885" y="-53.9" font-family="Arial" font-size="14.00" fill="#666666">[text]</text>
</g>
<!-- authority.browse_axis&#45;&gt;config.record_attr_definition -->
<g id="edge2" class="edge">
<title>authority.browse_axis:sorter&#45;&gt;config.record_attr_definition:name</title>
<path fill="none" stroke="#000000" d="M779.9041,-756.7034C690.1059,-742.3032 671.1,-537.5 766,-537.5"/>
<polygon fill="#000000" stroke="#000000" points="780.031,-756.7133 789.646,-761.9861 785.0155,-757.1067 790,-757.5 790,-757.5 790,-757.5 785.0155,-757.1067 790.354,-753.0139 780.031,-756.7133 780.031,-756.7133"/>
<text text-anchor="start" x="52.425" y="-767.5" font-family="Arial" font-size="10.00" fill="#000000">FOREIGN KEY (sorter) REFERENCES config.record_attr_definition(name) ON UPDATE CASCADE ON DELETE CASCADE DEFERRABLE INITIALLY DEFERRED</text>
</g>
<!-- authority.browse_axis_authority_field_map -->
<g id="node2" class="node">
<title>authority.browse_axis_authority_field_map</title>
<polygon fill="#efefef" stroke="transparent" points="707,-1082.5 707,-1117.5 1189,-1117.5 1189,-1082.5 707,-1082.5"/>
<polygon fill="none" stroke="#000000" points="707,-1082.5 707,-1117.5 1189,-1117.5 1189,-1082.5 707,-1082.5"/>
<text text-anchor="start" x="713.6804" y="-1095.3" font-family="Arial Bold" font-size="18.00" fill="#000000">authority.browse_axis_authority_field_map</text>
<text text-anchor="start" x="1054.7516" y="-1095.3" font-family="Arial" font-size="14.00" fill="#000000">    </text>
<text text-anchor="start" x="1088.9564" y="-1095.3" font-family="Arial" font-size="14.00" fill="#666666">[BASE TABLE]</text>
<polygon fill="none" stroke="#000000" points="707,-1052.5 707,-1082.5 1189,-1082.5 1189,-1052.5 707,-1052.5"/>
<text text-anchor="start" x="714" y="-1063.9" font-family="Arial" font-size="14.00" fill="#000000">id    </text>
<text text-anchor="start" x="759.094" y="-1063.9" font-family="Arial" font-size="14.00" fill="#666666">[integer]</text>
<polygon fill="none" stroke="#000000" points="707,-1022.5 707,-1052.5 1189,-1052.5 1189,-1022.5 707,-1022.5"/>
<text text-anchor="start" x="714" y="-1033.9" font-family="Arial" font-size="14.00" fill="#000000">axis    </text>
<text text-anchor="start" x="773.094" y="-1033.9" font-family="Arial" font-size="14.00" fill="#666666">[text]</text>
<polygon fill="none" stroke="#000000" points="707,-992.5 707,-1022.5 1189,-1022.5 1189,-992.5 707,-992.5"/>
<text text-anchor="start" x="714" y="-1003.9" font-family="Arial" font-size="14.00" fill="#000000">field    </text>
<text text-anchor="start" x="773.8738" y="-1003.9" font-family="Arial" font-size="14.00" fill="#666666">[integer]</text>
</g>
<!-- authority.browse_axis_authority_field_map&#45;&gt;authority.browse_axis -->
<g id="edge1" class="edge">
<title>authority.browse_axis_authority_field_map:axis&#45;&gt;authority.browse_axis:code</title>
<path fill="none" stroke="#000000" d="M697.0462,-1035.9008C670.7128,-1026.3045 683.3308,-975.9067 707,-950 766.8998,-884.4376 1045.1002,-979.5624 1105,-914 1133.9288,-882.3364 1147.8889,-817.5 1105,-817.5"/>
<polygon fill="#000000" stroke="#000000" points="697.1266,-1035.9136 706.2861,-1041.943 702.0633,-1036.7068 707,-1037.5 707,-1037.5 707,-1037.5 702.0633,-1036.7068 707.7139,-1033.057 697.1266,-1035.9136 697.1266,-1035.9136"/>
<text text-anchor="start" x="7.318" y="-1047.5" font-family="Arial" font-size="10.00" fill="#000000">FOREIGN KEY (axis) REFERENCES authority.browse_axis(code) ON UPDATE CASCADE ON DELETE CASCADE DEFERRABLE INITIALLY DEFERRED</text>
</g>
</g>
</svg>
