<?xml version="1.0" encoding="UTF-8" standalone="no"?>
<!DOCTYPE svg PUBLIC "-//W3C//DTD SVG 1.1//EN"
 "http://www.w3.org/Graphics/SVG/1.1/DTD/svg11.dtd">
<!-- Generated by graphviz version 2.40.1 (20161225.0304)
 -->
<!-- Title: authority.heading_field Pages: 1 -->
<svg width="1166pt" height="1259pt"
 viewBox="0.00 0.00 1165.50 1259.00" xmlns="http://www.w3.org/2000/svg" xmlns:xlink="http://www.w3.org/1999/xlink">
<g id="graph0" class="graph" transform="scale(1 1) rotate(0) translate(4 1255)">
<title>authority.heading_field</title>
<polygon fill="#ffffff" stroke="transparent" points="-4,4 -4,-1255 1161.5,-1255 1161.5,4 -4,4"/>
<!-- authority.heading_field -->
<g id="node1" class="node">
<title>authority.heading_field</title>
<polygon fill="#efefef" stroke="transparent" points="357.5,-652.5 357.5,-687.5 679.5,-687.5 679.5,-652.5 357.5,-652.5"/>
<polygon fill="none" stroke="#000000" points="357.5,-652.5 357.5,-687.5 679.5,-687.5 679.5,-652.5 357.5,-652.5"/>
<text text-anchor="start" x="364.1868" y="-665.3" font-family="Arial Bold" font-size="18.00" fill="#000000">authority.heading_field</text>
<text text-anchor="start" x="545.2452" y="-665.3" font-family="Arial" font-size="14.00" fill="#000000">    </text>
<text text-anchor="start" x="579.45" y="-665.3" font-family="Arial" font-size="14.00" fill="#666666">[BASE TABLE]</text>
<polygon fill="none" stroke="#000000" points="357.5,-622.5 357.5,-652.5 679.5,-652.5 679.5,-622.5 357.5,-622.5"/>
<text text-anchor="start" x="364.5" y="-633.9" font-family="Arial" font-size="14.00" fill="#000000">id </text>
<text text-anchor="start" x="379.2798" y="-633.9" font-family="Arial" font-size="14.00" fill="#666666">[integer]</text>
<polygon fill="none" stroke="#000000" points="357.5,-592.5 357.5,-622.5 679.5,-622.5 679.5,-592.5 357.5,-592.5"/>
<text text-anchor="start" x="364.5" y="-603.9" font-family="Arial" font-size="14.00" fill="#000000">heading_type </text>
<text text-anchor="start" x="452.4312" y="-603.9" font-family="Arial" font-size="14.00" fill="#666666">[authority.heading_type]</text>
<polygon fill="none" stroke="#000000" points="357.5,-562.5 357.5,-592.5 679.5,-592.5 679.5,-562.5 357.5,-562.5"/>
<text text-anchor="start" x="364.5" y="-573.9" font-family="Arial" font-size="14.00" fill="#000000">heading_purpose </text>
<text text-anchor="start" x="476.549" y="-573.9" font-family="Arial" font-size="14.00" fill="#666666">[authority.heading_purpose]</text>
<polygon fill="none" stroke="#000000" points="357.5,-532.5 357.5,-562.5 679.5,-562.5 679.5,-532.5 357.5,-532.5"/>
<text text-anchor="start" x="364.5" y="-543.9" font-family="Arial" font-size="14.00" fill="#000000">label </text>
<text text-anchor="start" x="397.9516" y="-543.9" font-family="Arial" font-size="14.00" fill="#666666">[text]</text>
<polygon fill="none" stroke="#000000" points="357.5,-502.5 357.5,-532.5 679.5,-532.5 679.5,-502.5 357.5,-502.5"/>
<text text-anchor="start" x="364.5" y="-513.9" font-family="Arial" font-size="14.00" fill="#000000">format </text>
<text text-anchor="start" x="408.0582" y="-513.9" font-family="Arial" font-size="14.00" fill="#666666">[text]</text>
<polygon fill="none" stroke="#000000" points="357.5,-472.5 357.5,-502.5 679.5,-502.5 679.5,-472.5 357.5,-472.5"/>
<text text-anchor="start" x="364.5" y="-483.9" font-family="Arial" font-size="14.00" fill="#000000">heading_xpath </text>
<text text-anchor="start" x="460.2138" y="-483.9" font-family="Arial" font-size="14.00" fill="#666666">[text]</text>
<polygon fill="none" stroke="#000000" points="357.5,-442.5 357.5,-472.5 679.5,-472.5 679.5,-442.5 357.5,-442.5"/>
<text text-anchor="start" x="364.5" y="-453.9" font-family="Arial" font-size="14.00" fill="#000000">component_xpath </text>
<text text-anchor="start" x="479.6584" y="-453.9" font-family="Arial" font-size="14.00" fill="#666666">[text]</text>
<polygon fill="none" stroke="#000000" points="357.5,-412.5 357.5,-442.5 679.5,-442.5 679.5,-412.5 357.5,-412.5"/>
<text text-anchor="start" x="364.5" y="-423.9" font-family="Arial" font-size="14.00" fill="#000000">type_xpath </text>
<text text-anchor="start" x="436.8674" y="-423.9" font-family="Arial" font-size="14.00" fill="#666666">[text]</text>
<polygon fill="none" stroke="#000000" points="357.5,-382.5 357.5,-412.5 679.5,-412.5 679.5,-382.5 357.5,-382.5"/>
<text text-anchor="start" x="364.5" y="-393.9" font-family="Arial" font-size="14.00" fill="#000000">thesaurus_xpath </text>
<text text-anchor="start" x="471.8758" y="-393.9" font-family="Arial" font-size="14.00" fill="#666666">[text]</text>
<polygon fill="none" stroke="#000000" points="357.5,-352.5 357.5,-382.5 679.5,-382.5 679.5,-352.5 357.5,-352.5"/>
<text text-anchor="start" x="364.5" y="-363.9" font-family="Arial" font-size="14.00" fill="#000000">thesaurus_override_xpath </text>
<text text-anchor="start" x="530.2166" y="-363.9" font-family="Arial" font-size="14.00" fill="#666666">[text]</text>
<polygon fill="none" stroke="#000000" points="357.5,-322.5 357.5,-352.5 679.5,-352.5 679.5,-322.5 357.5,-322.5"/>
<text text-anchor="start" x="364.5" y="-333.9" font-family="Arial" font-size="14.00" fill="#000000">joiner </text>
<text text-anchor="start" x="402.6122" y="-333.9" font-family="Arial" font-size="14.00" fill="#666666">[text]</text>
<polygon fill="none" stroke="#000000" stroke-width="3" points="356,-321.5 356,-689.5 681,-689.5 681,-321.5 356,-321.5"/>
</g>
<!-- config.xml_transform -->
<g id="node4" class="node">
<title>config.xml_transform</title>
<polygon fill="#efefef" stroke="transparent" points="364.5,-162.5 364.5,-197.5 672.5,-197.5 672.5,-162.5 364.5,-162.5"/>
<polygon fill="none" stroke="#000000" points="364.5,-162.5 364.5,-197.5 672.5,-197.5 672.5,-162.5 364.5,-162.5"/>
<text text-anchor="start" x="371.2113" y="-175.3" font-family="Arial Bold" font-size="18.00" fill="#000000">config.xml_transform</text>
<text text-anchor="start" x="538.2207" y="-175.3" font-family="Arial" font-size="14.00" fill="#000000">    </text>
<text text-anchor="start" x="572.4255" y="-175.3" font-family="Arial" font-size="14.00" fill="#666666">[BASE TABLE]</text>
<polygon fill="none" stroke="#000000" points="364.5,-132.5 364.5,-162.5 672.5,-162.5 672.5,-132.5 364.5,-132.5"/>
<text text-anchor="start" x="371.5" y="-143.9" font-family="Arial" font-size="14.00" fill="#000000">name    </text>
<text text-anchor="start" x="440.7132" y="-143.9" font-family="Arial" font-size="14.00" fill="#666666">[text]</text>
<polygon fill="none" stroke="#000000" points="364.5,-102.5 364.5,-132.5 672.5,-132.5 672.5,-102.5 364.5,-102.5"/>
<text text-anchor="start" x="371.5" y="-113.9" font-family="Arial" font-size="14.00" fill="#000000">namespace_uri    </text>
<text text-anchor="start" x="501.3934" y="-113.9" font-family="Arial" font-size="14.00" fill="#666666">[text]</text>
<polygon fill="none" stroke="#000000" points="364.5,-72.5 364.5,-102.5 672.5,-102.5 672.5,-72.5 364.5,-72.5"/>
<text text-anchor="start" x="371.5" y="-83.9" font-family="Arial" font-size="14.00" fill="#000000">prefix    </text>
<text text-anchor="start" x="439.9278" y="-83.9" font-family="Arial" font-size="14.00" fill="#666666">[text]</text>
<polygon fill="none" stroke="#000000" points="364.5,-42.5 364.5,-72.5 672.5,-72.5 672.5,-42.5 364.5,-42.5"/>
<text text-anchor="start" x="371.5" y="-53.9" font-family="Arial" font-size="14.00" fill="#000000">xslt    </text>
<text text-anchor="start" x="426.702" y="-53.9" font-family="Arial" font-size="14.00" fill="#666666">[text]</text>
</g>
<!-- authority.heading_field&#45;&gt;config.xml_transform -->
<g id="edge3" class="edge">
<title>authority.heading_field:format&#45;&gt;config.xml_transform:name</title>
<path fill="none" stroke="#000000" d="M689.8635,-516.995C843.6004,-501.7723 833.4403,-147.5 672.5,-147.5"/>
<polygon fill="#000000" stroke="#000000" points="689.4881,-517.0132 679.2809,-513.0053 684.4941,-517.2566 679.5,-517.5 679.5,-517.5 679.5,-517.5 684.4941,-517.2566 679.7191,-521.9947 689.4881,-517.0132 689.4881,-517.0132"/>
<text text-anchor="start" x="686.2775" y="-527.5" font-family="Arial" font-size="10.00" fill="#000000">FOREIGN KEY (format) REFERENCES config.xml_transform(name)</text>
</g>
<!-- authority.control_set_authority_field -->
<g id="node2" class="node">
<title>authority.control_set_authority_field</title>
<polygon fill="#efefef" stroke="transparent" points="43.5,-1172.5 43.5,-1207.5 468.5,-1207.5 468.5,-1172.5 43.5,-1172.5"/>
<polygon fill="none" stroke="#000000" points="43.5,-1172.5 43.5,-1207.5 468.5,-1207.5 468.5,-1172.5 43.5,-1172.5"/>
<text text-anchor="start" x="50.1807" y="-1185.3" font-family="Arial Bold" font-size="18.00" fill="#000000">authority.control_set_authority_field</text>
<text text-anchor="start" x="334.2513" y="-1185.3" font-family="Arial" font-size="14.00" fill="#000000">    </text>
<text text-anchor="start" x="368.4561" y="-1185.3" font-family="Arial" font-size="14.00" fill="#666666">[BASE TABLE]</text>
<polygon fill="none" stroke="#000000" points="43.5,-1142.5 43.5,-1172.5 468.5,-1172.5 468.5,-1142.5 43.5,-1142.5"/>
<text text-anchor="start" x="50.5" y="-1153.9" font-family="Arial" font-size="14.00" fill="#000000">id    </text>
<text text-anchor="start" x="95.594" y="-1153.9" font-family="Arial" font-size="14.00" fill="#666666">[integer]</text>
<polygon fill="none" stroke="#000000" points="43.5,-1112.5 43.5,-1142.5 468.5,-1142.5 468.5,-1112.5 43.5,-1112.5"/>
<text text-anchor="start" x="50.5" y="-1123.9" font-family="Arial" font-size="14.00" fill="#000000">main_entry    </text>
<text text-anchor="start" x="153.9362" y="-1123.9" font-family="Arial" font-size="14.00" fill="#666666">[integer]</text>
<polygon fill="none" stroke="#000000" points="43.5,-1082.5 43.5,-1112.5 468.5,-1112.5 468.5,-1082.5 43.5,-1082.5"/>
<text text-anchor="start" x="50.5" y="-1093.9" font-family="Arial" font-size="14.00" fill="#000000">control_set    </text>
<text text-anchor="start" x="153.1662" y="-1093.9" font-family="Arial" font-size="14.00" fill="#666666">[integer]</text>
<polygon fill="none" stroke="#000000" points="43.5,-1052.5 43.5,-1082.5 468.5,-1082.5 468.5,-1052.5 43.5,-1052.5"/>
<text text-anchor="start" x="50.5" y="-1063.9" font-family="Arial" font-size="14.00" fill="#000000">tag    </text>
<text text-anchor="start" x="104.1606" y="-1063.9" font-family="Arial" font-size="14.00" fill="#666666">[character(3)]</text>
<polygon fill="none" stroke="#000000" points="43.5,-1022.5 43.5,-1052.5 468.5,-1052.5 468.5,-1022.5 43.5,-1022.5"/>
<text text-anchor="start" x="50.5" y="-1033.9" font-family="Arial" font-size="14.00" fill="#000000">nfi    </text>
<text text-anchor="start" x="99.4846" y="-1033.9" font-family="Arial" font-size="14.00" fill="#666666">[character(1)]</text>
<polygon fill="none" stroke="#000000" points="43.5,-992.5 43.5,-1022.5 468.5,-1022.5 468.5,-992.5 43.5,-992.5"/>
<text text-anchor="start" x="50.5" y="-1003.9" font-family="Arial" font-size="14.00" fill="#000000">sf_list    </text>
<text text-anchor="start" x="120.4818" y="-1003.9" font-family="Arial" font-size="14.00" fill="#666666">[text]</text>
<polygon fill="none" stroke="#000000" points="43.5,-962.5 43.5,-992.5 468.5,-992.5 468.5,-962.5 43.5,-962.5"/>
<text text-anchor="start" x="50.5" y="-973.9" font-family="Arial" font-size="14.00" fill="#000000">display_sf_list    </text>
<text text-anchor="start" x="171.8254" y="-973.9" font-family="Arial" font-size="14.00" fill="#666666">[text]</text>
<polygon fill="none" stroke="#000000" points="43.5,-932.5 43.5,-962.5 468.5,-962.5 468.5,-932.5 43.5,-932.5"/>
<text text-anchor="start" x="50.5" y="-943.9" font-family="Arial" font-size="14.00" fill="#000000">name    </text>
<text text-anchor="start" x="119.7132" y="-943.9" font-family="Arial" font-size="14.00" fill="#666666">[text]</text>
<polygon fill="none" stroke="#000000" points="43.5,-902.5 43.5,-932.5 468.5,-932.5 468.5,-902.5 43.5,-902.5"/>
<text text-anchor="start" x="50.5" y="-913.9" font-family="Arial" font-size="14.00" fill="#000000">description    </text>
<text text-anchor="start" x="152.3822" y="-913.9" font-family="Arial" font-size="14.00" fill="#666666">[text]</text>
<polygon fill="none" stroke="#000000" points="43.5,-872.5 43.5,-902.5 468.5,-902.5 468.5,-872.5 43.5,-872.5"/>
<text text-anchor="start" x="50.5" y="-883.9" font-family="Arial" font-size="14.00" fill="#000000">joiner    </text>
<text text-anchor="start" x="118.9264" y="-883.9" font-family="Arial" font-size="14.00" fill="#666666">[text]</text>
<polygon fill="none" stroke="#000000" points="43.5,-842.5 43.5,-872.5 468.5,-872.5 468.5,-842.5 43.5,-842.5"/>
<text text-anchor="start" x="50.5" y="-853.9" font-family="Arial" font-size="14.00" fill="#000000">linking_subfield    </text>
<text text-anchor="start" x="180.3892" y="-853.9" font-family="Arial" font-size="14.00" fill="#666666">[character(1)]</text>
<polygon fill="none" stroke="#000000" points="43.5,-812.5 43.5,-842.5 468.5,-842.5 468.5,-812.5 43.5,-812.5"/>
<text text-anchor="start" x="50.5" y="-823.9" font-family="Arial" font-size="14.00" fill="#000000">heading_field    </text>
<text text-anchor="start" x="167.9586" y="-823.9" font-family="Arial" font-size="14.00" fill="#666666">[integer]</text>
</g>
<!-- authority.control_set_authority_field&#45;&gt;authority.heading_field -->
<g id="edge1" class="edge">
<title>authority.control_set_authority_field:heading_field&#45;&gt;authority.heading_field:id</title>
<path fill="none" stroke="#000000" d="M478.3038,-824.7601C490.4797,-815.8504 481.0614,-787.2795 468.5,-770 438.0044,-728.0501 387.9956,-775.9499 357.5,-734 332.2812,-699.309 314.6111,-637.5 357.5,-637.5"/>
<polygon fill="#000000" stroke="#000000" points="478.1309,-824.8083 467.2887,-823.1661 473.3155,-826.1541 468.5,-827.5 468.5,-827.5 468.5,-827.5 473.3155,-826.1541 469.7113,-831.8339 478.1309,-824.8083 478.1309,-824.8083"/>
<text text-anchor="start" x="475.4225" y="-837.5" font-family="Arial" font-size="10.00" fill="#000000">FOREIGN KEY (heading_field) REFERENCES authority.heading_field(id)</text>
</g>
<!-- authority.heading_field_norm_map -->
<g id="node3" class="node">
<title>authority.heading_field_norm_map</title>
<polygon fill="#efefef" stroke="transparent" points="572.5,-1067.5 572.5,-1102.5 990.5,-1102.5 990.5,-1067.5 572.5,-1067.5"/>
<polygon fill="none" stroke="#000000" points="572.5,-1067.5 572.5,-1102.5 990.5,-1102.5 990.5,-1067.5 572.5,-1067.5"/>
<text text-anchor="start" x="579.1799" y="-1080.3" font-family="Arial Bold" font-size="18.00" fill="#000000">authority.heading_field_norm_map</text>
<text text-anchor="start" x="856.2521" y="-1080.3" font-family="Arial" font-size="14.00" fill="#000000">    </text>
<text text-anchor="start" x="890.4569" y="-1080.3" font-family="Arial" font-size="14.00" fill="#666666">[BASE TABLE]</text>
<polygon fill="none" stroke="#000000" points="572.5,-1037.5 572.5,-1067.5 990.5,-1067.5 990.5,-1037.5 572.5,-1037.5"/>
<text text-anchor="start" x="579.5" y="-1048.9" font-family="Arial" font-size="14.00" fill="#000000">id    </text>
<text text-anchor="start" x="624.594" y="-1048.9" font-family="Arial" font-size="14.00" fill="#666666">[integer]</text>
<polygon fill="none" stroke="#000000" points="572.5,-1007.5 572.5,-1037.5 990.5,-1037.5 990.5,-1007.5 572.5,-1007.5"/>
<text text-anchor="start" x="579.5" y="-1018.9" font-family="Arial" font-size="14.00" fill="#000000">field    </text>
<text text-anchor="start" x="639.3738" y="-1018.9" font-family="Arial" font-size="14.00" fill="#666666">[integer]</text>
<polygon fill="none" stroke="#000000" points="572.5,-977.5 572.5,-1007.5 990.5,-1007.5 990.5,-977.5 572.5,-977.5"/>
<text text-anchor="start" x="579.5" y="-988.9" font-family="Arial" font-size="14.00" fill="#000000">norm    </text>
<text text-anchor="start" x="645.5912" y="-988.9" font-family="Arial" font-size="14.00" fill="#666666">[integer]</text>
<polygon fill="none" stroke="#000000" points="572.5,-947.5 572.5,-977.5 990.5,-977.5 990.5,-947.5 572.5,-947.5"/>
<text text-anchor="start" x="579.5" y="-958.9" font-family="Arial" font-size="14.00" fill="#000000">params    </text>
<text text-anchor="start" x="660.3738" y="-958.9" font-family="Arial" font-size="14.00" fill="#666666">[text]</text>
<polygon fill="none" stroke="#000000" points="572.5,-917.5 572.5,-947.5 990.5,-947.5 990.5,-917.5 572.5,-917.5"/>
<text text-anchor="start" x="579.5" y="-928.9" font-family="Arial" font-size="14.00" fill="#000000">pos    </text>
<text text-anchor="start" x="636.27" y="-928.9" font-family="Arial" font-size="14.00" fill="#666666">[integer]</text>
</g>
<!-- authority.heading_field_norm_map&#45;&gt;authority.heading_field -->
<g id="edge2" class="edge">
<title>authority.heading_field_norm_map:field&#45;&gt;authority.heading_field:id</title>
<path fill="none" stroke="#000000" d="M562.397,-1021.6981C511.9262,-1012.904 552.778,-933.6134 572.5,-875 597.5877,-800.4396 654.4123,-808.5604 679.5,-734 693.1775,-693.3505 722.3889,-637.5 679.5,-637.5"/>
<polygon fill="#000000" stroke="#000000" points="562.5314,-1021.7087 572.1439,-1026.9859 567.5157,-1022.1043 572.5,-1022.5 572.5,-1022.5 572.5,-1022.5 567.5157,-1022.1043 572.8561,-1018.0141 562.5314,-1021.7087 562.5314,-1021.7087"/>
<text text-anchor="start" x="579.6475" y="-1032.5" font-family="Arial" font-size="10.00" fill="#000000">FOREIGN KEY (field) REFERENCES authority.heading_field(id) ON DELETE CASCADE DEFERRABLE INITIALLY DEFERRED</text>
</g>
</g>
</svg>
