<?xml version="1.0" encoding="UTF-8" standalone="no"?>
<!DOCTYPE svg PUBLIC "-//W3C//DTD SVG 1.1//EN"
 "http://www.w3.org/Graphics/SVG/1.1/DTD/svg11.dtd">
<!-- Generated by graphviz version 2.40.1 (20161225.0304)
 -->
<!-- Title: authority.simple_heading Pages: 1 -->
<svg width="1011pt" height="1169pt"
 viewBox="0.00 0.00 1011.00 1169.00" xmlns="http://www.w3.org/2000/svg" xmlns:xlink="http://www.w3.org/1999/xlink">
<g id="graph0" class="graph" transform="scale(1 1) rotate(0) translate(4 1165)">
<title>authority.simple_heading</title>
<polygon fill="#ffffff" stroke="transparent" points="-4,4 -4,-1165 1007,-1165 1007,4 -4,4"/>
<!-- authority.simple_heading -->
<g id="node1" class="node">
<title>authority.simple_heading</title>
<polygon fill="#efefef" stroke="transparent" points="305,-832.5 305,-867.5 646,-867.5 646,-832.5 305,-832.5"/>
<polygon fill="none" stroke="#000000" points="305,-832.5 305,-867.5 646,-867.5 646,-832.5 305,-832.5"/>
<text text-anchor="start" x="311.6918" y="-845.3" font-family="Arial Bold" font-size="18.00" fill="#000000">authority.simple_heading</text>
<text text-anchor="start" x="511.7402" y="-845.3" font-family="Arial" font-size="14.00" fill="#000000">    </text>
<text text-anchor="start" x="545.945" y="-845.3" font-family="Arial" font-size="14.00" fill="#666666">[BASE TABLE]</text>
<polygon fill="none" stroke="#000000" points="305,-802.5 305,-832.5 646,-832.5 646,-802.5 305,-802.5"/>
<text text-anchor="start" x="312" y="-813.9" font-family="Arial" font-size="14.00" fill="#000000">id </text>
<text text-anchor="start" x="326.7798" y="-813.9" font-family="Arial" font-size="14.00" fill="#666666">[bigint]</text>
<polygon fill="none" stroke="#000000" points="305,-772.5 305,-802.5 646,-802.5 646,-772.5 305,-772.5"/>
<text text-anchor="start" x="312" y="-783.9" font-family="Arial" font-size="14.00" fill="#000000">record </text>
<text text-anchor="start" x="355.5596" y="-783.9" font-family="Arial" font-size="14.00" fill="#666666">[bigint]</text>
<polygon fill="none" stroke="#000000" points="305,-742.5 305,-772.5 646,-772.5 646,-742.5 305,-742.5"/>
<text text-anchor="start" x="312" y="-753.9" font-family="Arial" font-size="14.00" fill="#000000">atag </text>
<text text-anchor="start" x="343.129" y="-753.9" font-family="Arial" font-size="14.00" fill="#666666">[integer]</text>
<polygon fill="none" stroke="#000000" points="305,-712.5 305,-742.5 646,-742.5 646,-712.5 305,-712.5"/>
<text text-anchor="start" x="312" y="-723.9" font-family="Arial" font-size="14.00" fill="#000000">value </text>
<text text-anchor="start" x="349.345" y="-723.9" font-family="Arial" font-size="14.00" fill="#666666">[text]</text>
<polygon fill="none" stroke="#000000" points="305,-682.5 305,-712.5 646,-712.5 646,-682.5 305,-682.5"/>
<text text-anchor="start" x="312" y="-693.9" font-family="Arial" font-size="14.00" fill="#000000">sort_value </text>
<text text-anchor="start" x="380.4614" y="-693.9" font-family="Arial" font-size="14.00" fill="#666666">[text]</text>
<polygon fill="none" stroke="#000000" points="305,-652.5 305,-682.5 646,-682.5 646,-652.5 305,-652.5"/>
<text text-anchor="start" x="312" y="-663.9" font-family="Arial" font-size="14.00" fill="#000000">index_vector </text>
<text text-anchor="start" x="395.244" y="-663.9" font-family="Arial" font-size="14.00" fill="#666666">[tsvector]</text>
<polygon fill="none" stroke="#000000" points="305,-622.5 305,-652.5 646,-652.5 646,-622.5 305,-622.5"/>
<text text-anchor="start" x="312" y="-633.9" font-family="Arial" font-size="14.00" fill="#000000">thesaurus </text>
<text text-anchor="start" x="377.3548" y="-633.9" font-family="Arial" font-size="14.00" fill="#666666">[text]</text>
<polygon fill="none" stroke="#000000" stroke-width="3" points="303,-621.5 303,-869.5 647,-869.5 647,-621.5 303,-621.5"/>
</g>
<!-- authority.record_entry -->
<g id="node3" class="node">
<title>authority.record_entry</title>
<polygon fill="#efefef" stroke="transparent" points="80,-462.5 80,-497.5 396,-497.5 396,-462.5 80,-462.5"/>
<polygon fill="none" stroke="#000000" points="80,-462.5 80,-497.5 396,-497.5 396,-462.5 80,-462.5"/>
<text text-anchor="start" x="86.6991" y="-475.3" font-family="Arial Bold" font-size="18.00" fill="#000000">authority.record_entry</text>
<text text-anchor="start" x="261.7329" y="-475.3" font-family="Arial" font-size="14.00" fill="#000000">    </text>
<text text-anchor="start" x="295.9377" y="-475.3" font-family="Arial" font-size="14.00" fill="#666666">[BASE TABLE]</text>
<polygon fill="none" stroke="#000000" points="80,-432.5 80,-462.5 396,-462.5 396,-432.5 80,-432.5"/>
<text text-anchor="start" x="87" y="-443.9" font-family="Arial" font-size="14.00" fill="#000000">id    </text>
<text text-anchor="start" x="132.094" y="-443.9" font-family="Arial" font-size="14.00" fill="#666666">[bigint]</text>
<polygon fill="none" stroke="#000000" points="80,-402.5 80,-432.5 396,-432.5 396,-402.5 80,-402.5"/>
<text text-anchor="start" x="87" y="-413.9" font-family="Arial" font-size="14.00" fill="#000000">create_date    </text>
<text text-anchor="start" x="195.1248" y="-413.9" font-family="Arial" font-size="14.00" fill="#666666">[timestamp with time zone]</text>
<polygon fill="none" stroke="#000000" points="80,-372.5 80,-402.5 396,-402.5 396,-372.5 80,-372.5"/>
<text text-anchor="start" x="87" y="-383.9" font-family="Arial" font-size="14.00" fill="#000000">edit_date    </text>
<text text-anchor="start" x="178.7882" y="-383.9" font-family="Arial" font-size="14.00" fill="#666666">[timestamp with time zone]</text>
<polygon fill="none" stroke="#000000" points="80,-342.5 80,-372.5 396,-372.5 396,-342.5 80,-342.5"/>
<text text-anchor="start" x="87" y="-353.9" font-family="Arial" font-size="14.00" fill="#000000">creator    </text>
<text text-anchor="start" x="164.7644" y="-353.9" font-family="Arial" font-size="14.00" fill="#666666">[integer]</text>
<polygon fill="none" stroke="#000000" points="80,-312.5 80,-342.5 396,-342.5 396,-312.5 80,-312.5"/>
<text text-anchor="start" x="87" y="-323.9" font-family="Arial" font-size="14.00" fill="#000000">editor    </text>
<text text-anchor="start" x="156.2104" y="-323.9" font-family="Arial" font-size="14.00" fill="#666666">[integer]</text>
<polygon fill="none" stroke="#000000" points="80,-282.5 80,-312.5 396,-312.5 396,-282.5 80,-282.5"/>
<text text-anchor="start" x="87" y="-293.9" font-family="Arial" font-size="14.00" fill="#000000">active    </text>
<text text-anchor="start" x="157.7672" y="-293.9" font-family="Arial" font-size="14.00" fill="#666666">[boolean]</text>
<polygon fill="none" stroke="#000000" points="80,-252.5 80,-282.5 396,-282.5 396,-252.5 80,-252.5"/>
<text text-anchor="start" x="87" y="-263.9" font-family="Arial" font-size="14.00" fill="#000000">deleted    </text>
<text text-anchor="start" x="167.115" y="-263.9" font-family="Arial" font-size="14.00" fill="#666666">[boolean]</text>
<polygon fill="none" stroke="#000000" points="80,-222.5 80,-252.5 396,-252.5 396,-222.5 80,-222.5"/>
<text text-anchor="start" x="87" y="-233.9" font-family="Arial" font-size="14.00" fill="#000000">source    </text>
<text text-anchor="start" x="163.2132" y="-233.9" font-family="Arial" font-size="14.00" fill="#666666">[integer]</text>
<polygon fill="none" stroke="#000000" points="80,-192.5 80,-222.5 396,-222.5 396,-192.5 80,-192.5"/>
<text text-anchor="start" x="87" y="-203.9" font-family="Arial" font-size="14.00" fill="#000000">control_set    </text>
<text text-anchor="start" x="189.6662" y="-203.9" font-family="Arial" font-size="14.00" fill="#666666">[integer]</text>
<polygon fill="none" stroke="#000000" points="80,-162.5 80,-192.5 396,-192.5 396,-162.5 80,-162.5"/>
<text text-anchor="start" x="87" y="-173.9" font-family="Arial" font-size="14.00" fill="#000000">marc    </text>
<text text-anchor="start" x="152.3086" y="-173.9" font-family="Arial" font-size="14.00" fill="#666666">[text]</text>
<polygon fill="none" stroke="#000000" points="80,-132.5 80,-162.5 396,-162.5 396,-132.5 80,-132.5"/>
<text text-anchor="start" x="87" y="-143.9" font-family="Arial" font-size="14.00" fill="#000000">last_xact_id    </text>
<text text-anchor="start" x="195.1122" y="-143.9" font-family="Arial" font-size="14.00" fill="#666666">[text]</text>
<polygon fill="none" stroke="#000000" points="80,-102.5 80,-132.5 396,-132.5 396,-102.5 80,-102.5"/>
<text text-anchor="start" x="87" y="-113.9" font-family="Arial" font-size="14.00" fill="#000000">owner    </text>
<text text-anchor="start" x="159.3198" y="-113.9" font-family="Arial" font-size="14.00" fill="#666666">[integer]</text>
<polygon fill="none" stroke="#000000" points="80,-72.5 80,-102.5 396,-102.5 396,-72.5 80,-72.5"/>
<text text-anchor="start" x="87" y="-83.9" font-family="Arial" font-size="14.00" fill="#000000">heading    </text>
<text text-anchor="start" x="171.007" y="-83.9" font-family="Arial" font-size="14.00" fill="#666666">[text]</text>
<polygon fill="none" stroke="#000000" points="80,-42.5 80,-72.5 396,-72.5 396,-42.5 80,-42.5"/>
<text text-anchor="start" x="87" y="-53.9" font-family="Arial" font-size="14.00" fill="#000000">simple_heading    </text>
<text text-anchor="start" x="219.2286" y="-53.9" font-family="Arial" font-size="14.00" fill="#666666">[text]</text>
</g>
<!-- authority.simple_heading&#45;&gt;authority.record_entry -->
<g id="edge2" class="edge">
<title>authority.simple_heading:record&#45;&gt;authority.record_entry:id</title>
<path fill="none" stroke="#000000" d="M294.6449,-786.9018C214.6621,-777.1843 254.4577,-651.3483 305,-577 329.4524,-541.0301 371.5476,-576.9699 396,-541 419.3625,-506.6335 437.5556,-447.5 396,-447.5"/>
<polygon fill="#000000" stroke="#000000" points="295.0166,-786.9232 304.7405,-791.9925 300.0083,-787.2116 305,-787.5 305,-787.5 305,-787.5 300.0083,-787.2116 305.2595,-783.0075 295.0166,-786.9232 295.0166,-786.9232"/>
<text text-anchor="start" x="7.162" y="-797.5" font-family="Arial" font-size="10.00" fill="#000000">FOREIGN KEY (record) REFERENCES authority.record_entry(id)</text>
</g>
<!-- authority.control_set_authority_field -->
<g id="node4" class="node">
<title>authority.control_set_authority_field</title>
<polygon fill="#efefef" stroke="transparent" points="501,-432.5 501,-467.5 926,-467.5 926,-432.5 501,-432.5"/>
<polygon fill="none" stroke="#000000" points="501,-432.5 501,-467.5 926,-467.5 926,-432.5 501,-432.5"/>
<text text-anchor="start" x="507.6807" y="-445.3" font-family="Arial Bold" font-size="18.00" fill="#000000">authority.control_set_authority_field</text>
<text text-anchor="start" x="791.7513" y="-445.3" font-family="Arial" font-size="14.00" fill="#000000">    </text>
<text text-anchor="start" x="825.9561" y="-445.3" font-family="Arial" font-size="14.00" fill="#666666">[BASE TABLE]</text>
<polygon fill="none" stroke="#000000" points="501,-402.5 501,-432.5 926,-432.5 926,-402.5 501,-402.5"/>
<text text-anchor="start" x="508" y="-413.9" font-family="Arial" font-size="14.00" fill="#000000">id    </text>
<text text-anchor="start" x="553.094" y="-413.9" font-family="Arial" font-size="14.00" fill="#666666">[integer]</text>
<polygon fill="none" stroke="#000000" points="501,-372.5 501,-402.5 926,-402.5 926,-372.5 501,-372.5"/>
<text text-anchor="start" x="508" y="-383.9" font-family="Arial" font-size="14.00" fill="#000000">main_entry    </text>
<text text-anchor="start" x="611.4362" y="-383.9" font-family="Arial" font-size="14.00" fill="#666666">[integer]</text>
<polygon fill="none" stroke="#000000" points="501,-342.5 501,-372.5 926,-372.5 926,-342.5 501,-342.5"/>
<text text-anchor="start" x="508" y="-353.9" font-family="Arial" font-size="14.00" fill="#000000">control_set    </text>
<text text-anchor="start" x="610.6662" y="-353.9" font-family="Arial" font-size="14.00" fill="#666666">[integer]</text>
<polygon fill="none" stroke="#000000" points="501,-312.5 501,-342.5 926,-342.5 926,-312.5 501,-312.5"/>
<text text-anchor="start" x="508" y="-323.9" font-family="Arial" font-size="14.00" fill="#000000">tag    </text>
<text text-anchor="start" x="561.6606" y="-323.9" font-family="Arial" font-size="14.00" fill="#666666">[character(3)]</text>
<polygon fill="none" stroke="#000000" points="501,-282.5 501,-312.5 926,-312.5 926,-282.5 501,-282.5"/>
<text text-anchor="start" x="508" y="-293.9" font-family="Arial" font-size="14.00" fill="#000000">nfi    </text>
<text text-anchor="start" x="556.9846" y="-293.9" font-family="Arial" font-size="14.00" fill="#666666">[character(1)]</text>
<polygon fill="none" stroke="#000000" points="501,-252.5 501,-282.5 926,-282.5 926,-252.5 501,-252.5"/>
<text text-anchor="start" x="508" y="-263.9" font-family="Arial" font-size="14.00" fill="#000000">sf_list    </text>
<text text-anchor="start" x="577.9818" y="-263.9" font-family="Arial" font-size="14.00" fill="#666666">[text]</text>
<polygon fill="none" stroke="#000000" points="501,-222.5 501,-252.5 926,-252.5 926,-222.5 501,-222.5"/>
<text text-anchor="start" x="508" y="-233.9" font-family="Arial" font-size="14.00" fill="#000000">display_sf_list    </text>
<text text-anchor="start" x="629.3254" y="-233.9" font-family="Arial" font-size="14.00" fill="#666666">[text]</text>
<polygon fill="none" stroke="#000000" points="501,-192.5 501,-222.5 926,-222.5 926,-192.5 501,-192.5"/>
<text text-anchor="start" x="508" y="-203.9" font-family="Arial" font-size="14.00" fill="#000000">name    </text>
<text text-anchor="start" x="577.2132" y="-203.9" font-family="Arial" font-size="14.00" fill="#666666">[text]</text>
<polygon fill="none" stroke="#000000" points="501,-162.5 501,-192.5 926,-192.5 926,-162.5 501,-162.5"/>
<text text-anchor="start" x="508" y="-173.9" font-family="Arial" font-size="14.00" fill="#000000">description    </text>
<text text-anchor="start" x="609.8822" y="-173.9" font-family="Arial" font-size="14.00" fill="#666666">[text]</text>
<polygon fill="none" stroke="#000000" points="501,-132.5 501,-162.5 926,-162.5 926,-132.5 501,-132.5"/>
<text text-anchor="start" x="508" y="-143.9" font-family="Arial" font-size="14.00" fill="#000000">joiner    </text>
<text text-anchor="start" x="576.4264" y="-143.9" font-family="Arial" font-size="14.00" fill="#666666">[text]</text>
<polygon fill="none" stroke="#000000" points="501,-102.5 501,-132.5 926,-132.5 926,-102.5 501,-102.5"/>
<text text-anchor="start" x="508" y="-113.9" font-family="Arial" font-size="14.00" fill="#000000">linking_subfield    </text>
<text text-anchor="start" x="637.8892" y="-113.9" font-family="Arial" font-size="14.00" fill="#666666">[character(1)]</text>
<polygon fill="none" stroke="#000000" points="501,-72.5 501,-102.5 926,-102.5 926,-72.5 501,-72.5"/>
<text text-anchor="start" x="508" y="-83.9" font-family="Arial" font-size="14.00" fill="#000000">heading_field    </text>
<text text-anchor="start" x="625.4586" y="-83.9" font-family="Arial" font-size="14.00" fill="#666666">[integer]</text>
</g>
<!-- authority.simple_heading&#45;&gt;authority.control_set_authority_field -->
<g id="edge3" class="edge">
<title>authority.simple_heading:atag&#45;&gt;authority.control_set_authority_field:id</title>
<path fill="none" stroke="#000000" d="M656.1127,-756.83C722.9019,-747.436 687.4634,-641.4296 646,-577 607.6819,-517.4579 539.3181,-570.5421 501,-511 478.5115,-476.0553 459.4444,-417.5 501,-417.5"/>
<polygon fill="#000000" stroke="#000000" points="655.9781,-756.8389 645.7025,-753.0098 650.9891,-757.1694 646,-757.5 646,-757.5 646,-757.5 650.9891,-757.1694 646.2975,-761.9902 655.9781,-756.8389 655.9781,-756.8389"/>
<text text-anchor="start" x="653.3135" y="-767.5" font-family="Arial" font-size="10.00" fill="#000000">FOREIGN KEY (atag) REFERENCES authority.control_set_authority_field(id)</text>
</g>
<!-- metabib.browse_entry_simple_heading_map -->
<g id="node2" class="node">
<title>metabib.browse_entry_simple_heading_map</title>
<polygon fill="#efefef" stroke="transparent" points="226,-1082.5 226,-1117.5 725,-1117.5 725,-1082.5 226,-1082.5"/>
<polygon fill="none" stroke="#000000" points="226,-1082.5 226,-1117.5 725,-1117.5 725,-1082.5 226,-1082.5"/>
<text text-anchor="start" x="232.6754" y="-1095.3" font-family="Arial Bold" font-size="18.00" fill="#000000">metabib.browse_entry_simple_heading_map</text>
<text text-anchor="start" x="590.7566" y="-1095.3" font-family="Arial" font-size="14.00" fill="#000000">    </text>
<text text-anchor="start" x="624.9614" y="-1095.3" font-family="Arial" font-size="14.00" fill="#666666">[BASE TABLE]</text>
<polygon fill="none" stroke="#000000" points="226,-1052.5 226,-1082.5 725,-1082.5 725,-1052.5 226,-1052.5"/>
<text text-anchor="start" x="233" y="-1063.9" font-family="Arial" font-size="14.00" fill="#000000">id    </text>
<text text-anchor="start" x="278.094" y="-1063.9" font-family="Arial" font-size="14.00" fill="#666666">[bigint]</text>
<polygon fill="none" stroke="#000000" points="226,-1022.5 226,-1052.5 725,-1052.5 725,-1022.5 226,-1022.5"/>
<text text-anchor="start" x="233" y="-1033.9" font-family="Arial" font-size="14.00" fill="#000000">entry    </text>
<text text-anchor="start" x="298.3212" y="-1033.9" font-family="Arial" font-size="14.00" fill="#666666">[bigint]</text>
<polygon fill="none" stroke="#000000" points="226,-992.5 226,-1022.5 725,-1022.5 725,-992.5 226,-992.5"/>
<text text-anchor="start" x="233" y="-1003.9" font-family="Arial" font-size="14.00" fill="#000000">simple_heading    </text>
<text text-anchor="start" x="365.2286" y="-1003.9" font-family="Arial" font-size="14.00" fill="#666666">[bigint]</text>
</g>
<!-- metabib.browse_entry_simple_heading_map&#45;&gt;authority.simple_heading -->
<g id="edge1" class="edge">
<title>metabib.browse_entry_simple_heading_map:simple_heading&#45;&gt;authority.simple_heading:id</title>
<path fill="none" stroke="#000000" d="M475.2568,-982.166C464.8553,-915.365 348.1143,-981.2325 305,-914 281.848,-877.8968 262.1111,-817.5 305,-817.5"/>
<polygon fill="#000000" stroke="#000000" points="475.2826,-982.5258 471.5116,-992.8228 475.6413,-987.5129 476,-992.5 476,-992.5 476,-992.5 475.6413,-987.5129 480.4884,-992.1772 475.2826,-982.5258 475.2826,-982.5258"/>
<text text-anchor="start" x="483.0915" y="-1002.5" font-family="Arial" font-size="10.00" fill="#000000">FOREIGN KEY (simple_heading) REFERENCES authority.simple_heading(id) ON DELETE CASCADE</text>
</g>
</g>
</svg>
