<?xml version="1.0" encoding="UTF-8" standalone="no"?>
<!DOCTYPE svg PUBLIC "-//W3C//DTD SVG 1.1//EN"
 "http://www.w3.org/Graphics/SVG/1.1/DTD/svg11.dtd">
<!-- Generated by graphviz version 2.40.1 (20161225.0304)
 -->
<!-- Title: biblio.record_note Pages: 1 -->
<svg width="1295pt" height="2002pt"
 viewBox="0.00 0.00 1295.00 2002.00" xmlns="http://www.w3.org/2000/svg" xmlns:xlink="http://www.w3.org/1999/xlink">
<g id="graph0" class="graph" transform="scale(1 1) rotate(0) translate(4 1998)">
<title>biblio.record_note</title>
<polygon fill="#ffffff" stroke="transparent" points="-4,4 -4,-1998 1291,-1998 1291,4 -4,4"/>
<!-- biblio.record_note -->
<g id="node1" class="node">
<title>biblio.record_note</title>
<polygon fill="#efefef" stroke="transparent" points="577,-1912.5 577,-1947.5 861,-1947.5 861,-1912.5 577,-1912.5"/>
<polygon fill="none" stroke="#000000" points="577,-1912.5 577,-1947.5 861,-1947.5 861,-1912.5 577,-1912.5"/>
<text text-anchor="start" x="583.6993" y="-1925.3" font-family="Arial Bold" font-size="18.00" fill="#000000">biblio.record_note</text>
<text text-anchor="start" x="726.7327" y="-1925.3" font-family="Arial" font-size="14.00" fill="#000000">    </text>
<text text-anchor="start" x="760.9375" y="-1925.3" font-family="Arial" font-size="14.00" fill="#666666">[BASE TABLE]</text>
<polygon fill="none" stroke="#000000" points="577,-1882.5 577,-1912.5 861,-1912.5 861,-1882.5 577,-1882.5"/>
<text text-anchor="start" x="584" y="-1893.9" font-family="Arial" font-size="14.00" fill="#000000">id </text>
<text text-anchor="start" x="598.7798" y="-1893.9" font-family="Arial" font-size="14.00" fill="#666666">[bigint]</text>
<polygon fill="none" stroke="#000000" points="577,-1852.5 577,-1882.5 861,-1882.5 861,-1852.5 577,-1852.5"/>
<text text-anchor="start" x="584" y="-1863.9" font-family="Arial" font-size="14.00" fill="#000000">record </text>
<text text-anchor="start" x="627.5596" y="-1863.9" font-family="Arial" font-size="14.00" fill="#666666">[bigint]</text>
<polygon fill="none" stroke="#000000" points="577,-1822.5 577,-1852.5 861,-1852.5 861,-1822.5 577,-1822.5"/>
<text text-anchor="start" x="584" y="-1833.9" font-family="Arial" font-size="14.00" fill="#000000">value </text>
<text text-anchor="start" x="621.345" y="-1833.9" font-family="Arial" font-size="14.00" fill="#666666">[text]</text>
<polygon fill="none" stroke="#000000" points="577,-1792.5 577,-1822.5 861,-1822.5 861,-1792.5 577,-1792.5"/>
<text text-anchor="start" x="584" y="-1803.9" font-family="Arial" font-size="14.00" fill="#000000">creator </text>
<text text-anchor="start" x="631.4502" y="-1803.9" font-family="Arial" font-size="14.00" fill="#666666">[integer]</text>
<polygon fill="none" stroke="#000000" points="577,-1762.5 577,-1792.5 861,-1792.5 861,-1762.5 577,-1762.5"/>
<text text-anchor="start" x="584" y="-1773.9" font-family="Arial" font-size="14.00" fill="#000000">editor </text>
<text text-anchor="start" x="622.8962" y="-1773.9" font-family="Arial" font-size="14.00" fill="#666666">[integer]</text>
<polygon fill="none" stroke="#000000" points="577,-1732.5 577,-1762.5 861,-1762.5 861,-1732.5 577,-1732.5"/>
<text text-anchor="start" x="584" y="-1743.9" font-family="Arial" font-size="14.00" fill="#000000">pub </text>
<text text-anchor="start" x="611.2384" y="-1743.9" font-family="Arial" font-size="14.00" fill="#666666">[boolean]</text>
<polygon fill="none" stroke="#000000" points="577,-1702.5 577,-1732.5 861,-1732.5 861,-1702.5 577,-1702.5"/>
<text text-anchor="start" x="584" y="-1713.9" font-family="Arial" font-size="14.00" fill="#000000">create_date </text>
<text text-anchor="start" x="661.8106" y="-1713.9" font-family="Arial" font-size="14.00" fill="#666666">[timestamp with time zone]</text>
<polygon fill="none" stroke="#000000" points="577,-1672.5 577,-1702.5 861,-1702.5 861,-1672.5 577,-1672.5"/>
<text text-anchor="start" x="584" y="-1683.9" font-family="Arial" font-size="14.00" fill="#000000">edit_date </text>
<text text-anchor="start" x="645.474" y="-1683.9" font-family="Arial" font-size="14.00" fill="#666666">[timestamp with time zone]</text>
<polygon fill="none" stroke="#000000" stroke-width="3" points="575.5,-1671.5 575.5,-1949.5 862.5,-1949.5 862.5,-1671.5 575.5,-1671.5"/>
</g>
<!-- biblio.record_entry -->
<g id="node2" class="node">
<title>biblio.record_entry</title>
<polygon fill="#efefef" stroke="transparent" points="166,-1062.5 166,-1097.5 455,-1097.5 455,-1062.5 166,-1062.5"/>
<polygon fill="none" stroke="#000000" points="166,-1062.5 166,-1097.5 455,-1097.5 455,-1062.5 166,-1062.5"/>
<text text-anchor="start" x="172.7063" y="-1075.3" font-family="Arial Bold" font-size="18.00" fill="#000000">biblio.record_entry</text>
<text text-anchor="start" x="320.7257" y="-1075.3" font-family="Arial" font-size="14.00" fill="#000000">    </text>
<text text-anchor="start" x="354.9305" y="-1075.3" font-family="Arial" font-size="14.00" fill="#666666">[BASE TABLE]</text>
<polygon fill="none" stroke="#000000" points="166,-1032.5 166,-1062.5 455,-1062.5 455,-1032.5 166,-1032.5"/>
<text text-anchor="start" x="173" y="-1043.9" font-family="Arial" font-size="14.00" fill="#000000">id    </text>
<text text-anchor="start" x="218.094" y="-1043.9" font-family="Arial" font-size="14.00" fill="#666666">[bigint]</text>
<polygon fill="none" stroke="#000000" points="166,-1002.5 166,-1032.5 455,-1032.5 455,-1002.5 166,-1002.5"/>
<text text-anchor="start" x="173" y="-1013.9" font-family="Arial" font-size="14.00" fill="#000000">creator    </text>
<text text-anchor="start" x="250.7644" y="-1013.9" font-family="Arial" font-size="14.00" fill="#666666">[integer]</text>
<polygon fill="none" stroke="#000000" points="166,-972.5 166,-1002.5 455,-1002.5 455,-972.5 166,-972.5"/>
<text text-anchor="start" x="173" y="-983.9" font-family="Arial" font-size="14.00" fill="#000000">editor    </text>
<text text-anchor="start" x="242.2104" y="-983.9" font-family="Arial" font-size="14.00" fill="#666666">[integer]</text>
<polygon fill="none" stroke="#000000" points="166,-942.5 166,-972.5 455,-972.5 455,-942.5 166,-942.5"/>
<text text-anchor="start" x="173" y="-953.9" font-family="Arial" font-size="14.00" fill="#000000">source    </text>
<text text-anchor="start" x="249.2132" y="-953.9" font-family="Arial" font-size="14.00" fill="#666666">[integer]</text>
<polygon fill="none" stroke="#000000" points="166,-912.5 166,-942.5 455,-942.5 455,-912.5 166,-912.5"/>
<text text-anchor="start" x="173" y="-923.9" font-family="Arial" font-size="14.00" fill="#000000">quality    </text>
<text text-anchor="start" x="247.6564" y="-923.9" font-family="Arial" font-size="14.00" fill="#666666">[integer]</text>
<polygon fill="none" stroke="#000000" points="166,-882.5 166,-912.5 455,-912.5 455,-882.5 166,-882.5"/>
<text text-anchor="start" x="173" y="-893.9" font-family="Arial" font-size="14.00" fill="#000000">create_date    </text>
<text text-anchor="start" x="281.1248" y="-893.9" font-family="Arial" font-size="14.00" fill="#666666">[timestamp with time zone]</text>
<polygon fill="none" stroke="#000000" points="166,-852.5 166,-882.5 455,-882.5 455,-852.5 166,-852.5"/>
<text text-anchor="start" x="173" y="-863.9" font-family="Arial" font-size="14.00" fill="#000000">edit_date    </text>
<text text-anchor="start" x="264.7882" y="-863.9" font-family="Arial" font-size="14.00" fill="#666666">[timestamp with time zone]</text>
<polygon fill="none" stroke="#000000" points="166,-822.5 166,-852.5 455,-852.5 455,-822.5 166,-822.5"/>
<text text-anchor="start" x="173" y="-833.9" font-family="Arial" font-size="14.00" fill="#000000">active    </text>
<text text-anchor="start" x="243.7672" y="-833.9" font-family="Arial" font-size="14.00" fill="#666666">[boolean]</text>
<polygon fill="none" stroke="#000000" points="166,-792.5 166,-822.5 455,-822.5 455,-792.5 166,-792.5"/>
<text text-anchor="start" x="173" y="-803.9" font-family="Arial" font-size="14.00" fill="#000000">deleted    </text>
<text text-anchor="start" x="253.115" y="-803.9" font-family="Arial" font-size="14.00" fill="#666666">[boolean]</text>
<polygon fill="none" stroke="#000000" points="166,-762.5 166,-792.5 455,-792.5 455,-762.5 166,-762.5"/>
<text text-anchor="start" x="173" y="-773.9" font-family="Arial" font-size="14.00" fill="#000000">fingerprint    </text>
<text text-anchor="start" x="269.4334" y="-773.9" font-family="Arial" font-size="14.00" fill="#666666">[text]</text>
<polygon fill="none" stroke="#000000" points="166,-732.5 166,-762.5 455,-762.5 455,-732.5 166,-732.5"/>
<text text-anchor="start" x="173" y="-743.9" font-family="Arial" font-size="14.00" fill="#000000">tcn_source    </text>
<text text-anchor="start" x="275.669" y="-743.9" font-family="Arial" font-size="14.00" fill="#666666">[text]</text>
<polygon fill="none" stroke="#000000" points="166,-702.5 166,-732.5 455,-732.5 455,-702.5 166,-702.5"/>
<text text-anchor="start" x="173" y="-713.9" font-family="Arial" font-size="14.00" fill="#000000">tcn_value    </text>
<text text-anchor="start" x="267.115" y="-713.9" font-family="Arial" font-size="14.00" fill="#666666">[text]</text>
<polygon fill="none" stroke="#000000" points="166,-672.5 166,-702.5 455,-702.5 455,-672.5 166,-672.5"/>
<text text-anchor="start" x="173" y="-683.9" font-family="Arial" font-size="14.00" fill="#000000">marc    </text>
<text text-anchor="start" x="238.3086" y="-683.9" font-family="Arial" font-size="14.00" fill="#666666">[text]</text>
<polygon fill="none" stroke="#000000" points="166,-642.5 166,-672.5 455,-672.5 455,-642.5 166,-642.5"/>
<text text-anchor="start" x="173" y="-653.9" font-family="Arial" font-size="14.00" fill="#000000">last_xact_id    </text>
<text text-anchor="start" x="281.1122" y="-653.9" font-family="Arial" font-size="14.00" fill="#666666">[text]</text>
<polygon fill="none" stroke="#000000" points="166,-612.5 166,-642.5 455,-642.5 455,-612.5 166,-612.5"/>
<text text-anchor="start" x="173" y="-623.9" font-family="Arial" font-size="14.00" fill="#000000">vis_attr_vector    </text>
<text text-anchor="start" x="298.2174" y="-623.9" font-family="Arial" font-size="14.00" fill="#666666">[integer[]]</text>
<polygon fill="none" stroke="#000000" points="166,-582.5 166,-612.5 455,-612.5 455,-582.5 166,-582.5"/>
<text text-anchor="start" x="173" y="-593.9" font-family="Arial" font-size="14.00" fill="#000000">owner    </text>
<text text-anchor="start" x="245.3198" y="-593.9" font-family="Arial" font-size="14.00" fill="#666666">[integer]</text>
<polygon fill="none" stroke="#000000" points="166,-552.5 166,-582.5 455,-582.5 455,-552.5 166,-552.5"/>
<text text-anchor="start" x="173" y="-563.9" font-family="Arial" font-size="14.00" fill="#000000">share_depth    </text>
<text text-anchor="start" x="285.0168" y="-563.9" font-family="Arial" font-size="14.00" fill="#666666">[integer]</text>
<polygon fill="none" stroke="#000000" points="166,-522.5 166,-552.5 455,-552.5 455,-522.5 166,-522.5"/>
<text text-anchor="start" x="173" y="-533.9" font-family="Arial" font-size="14.00" fill="#000000">merge_date    </text>
<text text-anchor="start" x="281.8948" y="-533.9" font-family="Arial" font-size="14.00" fill="#666666">[timestamp with time zone]</text>
<polygon fill="none" stroke="#000000" points="166,-492.5 166,-522.5 455,-522.5 455,-492.5 166,-492.5"/>
<text text-anchor="start" x="173" y="-503.9" font-family="Arial" font-size="14.00" fill="#000000">merged_to    </text>
<text text-anchor="start" x="274.1122" y="-503.9" font-family="Arial" font-size="14.00" fill="#666666">[bigint]</text>
</g>
<!-- biblio.record_note&#45;&gt;biblio.record_entry -->
<g id="edge1" class="edge">
<title>biblio.record_note:record&#45;&gt;biblio.record_entry:id</title>
<path fill="none" stroke="#000000" d="M566.7166,-1867.1393C454.5957,-1858.9348 528.0419,-1712.3652 507,-1591 496.6368,-1531.2271 515.6647,-1047.5 455,-1047.5"/>
<polygon fill="#000000" stroke="#000000" points="567.0061,-1867.1493 576.8422,-1871.9972 572.0031,-1867.3247 577,-1867.5 577,-1867.5 577,-1867.5 572.0031,-1867.3247 577.1578,-1863.0028 567.0061,-1867.1493 567.0061,-1867.1493"/>
<text text-anchor="start" x="7.325" y="-1877.5" font-family="Arial" font-size="10.00" fill="#000000">FOREIGN KEY (record) REFERENCES biblio.record_entry(id) ON DELETE CASCADE DEFERRABLE INITIALLY DEFERRED</text>
</g>
<!-- actor.usr -->
<g id="node3" class="node">
<title>actor.usr</title>
<polygon fill="#efefef" stroke="transparent" points="559,-1512.5 559,-1547.5 879,-1547.5 879,-1512.5 559,-1512.5"/>
<polygon fill="none" stroke="#000000" points="559,-1512.5 559,-1547.5 879,-1547.5 879,-1512.5 559,-1512.5"/>
<text text-anchor="start" x="620.2123" y="-1525.3" font-family="Arial Bold" font-size="18.00" fill="#000000">actor.usr</text>
<text text-anchor="start" x="690.2197" y="-1525.3" font-family="Arial" font-size="14.00" fill="#000000">    </text>
<text text-anchor="start" x="724.4245" y="-1525.3" font-family="Arial" font-size="14.00" fill="#666666">[BASE TABLE]</text>
<polygon fill="none" stroke="#000000" points="559,-1482.5 559,-1512.5 879,-1512.5 879,-1482.5 559,-1482.5"/>
<text text-anchor="start" x="566" y="-1493.9" font-family="Arial" font-size="14.00" fill="#000000">id    </text>
<text text-anchor="start" x="611.094" y="-1493.9" font-family="Arial" font-size="14.00" fill="#666666">[integer]</text>
<polygon fill="none" stroke="#000000" points="559,-1452.5 559,-1482.5 879,-1482.5 879,-1452.5 559,-1452.5"/>
<text text-anchor="start" x="566" y="-1463.9" font-family="Arial" font-size="14.00" fill="#000000">card    </text>
<text text-anchor="start" x="627.4306" y="-1463.9" font-family="Arial" font-size="14.00" fill="#666666">[integer]</text>
<polygon fill="none" stroke="#000000" points="559,-1422.5 559,-1452.5 879,-1452.5 879,-1422.5 559,-1422.5"/>
<text text-anchor="start" x="566" y="-1433.9" font-family="Arial" font-size="14.00" fill="#000000">profile    </text>
<text text-anchor="start" x="638.317" y="-1433.9" font-family="Arial" font-size="14.00" fill="#666666">[integer]</text>
<polygon fill="none" stroke="#000000" points="559,-1392.5 559,-1422.5 879,-1422.5 879,-1392.5 559,-1392.5"/>
<text text-anchor="start" x="566" y="-1403.9" font-family="Arial" font-size="14.00" fill="#000000">usrname    </text>
<text text-anchor="start" x="654.6564" y="-1403.9" font-family="Arial" font-size="14.00" fill="#666666">[text]</text>
<polygon fill="none" stroke="#000000" points="559,-1362.5 559,-1392.5 879,-1392.5 879,-1362.5 559,-1362.5"/>
<text text-anchor="start" x="566" y="-1373.9" font-family="Arial" font-size="14.00" fill="#000000">email    </text>
<text text-anchor="start" x="633.6438" y="-1373.9" font-family="Arial" font-size="14.00" fill="#666666">[text]</text>
<polygon fill="none" stroke="#000000" points="559,-1332.5 559,-1362.5 879,-1362.5 879,-1332.5 559,-1332.5"/>
<text text-anchor="start" x="566" y="-1343.9" font-family="Arial" font-size="14.00" fill="#000000">passwd    </text>
<text text-anchor="start" x="647.6592" y="-1343.9" font-family="Arial" font-size="14.00" fill="#666666">[text]</text>
<polygon fill="none" stroke="#000000" points="559,-1302.5 559,-1332.5 879,-1332.5 879,-1302.5 559,-1302.5"/>
<text text-anchor="start" x="566" y="-1313.9" font-family="Arial" font-size="14.00" fill="#000000">standing    </text>
<text text-anchor="start" x="653.115" y="-1313.9" font-family="Arial" font-size="14.00" fill="#666666">[integer]</text>
<polygon fill="none" stroke="#000000" points="559,-1272.5 559,-1302.5 879,-1302.5 879,-1272.5 559,-1272.5"/>
<text text-anchor="start" x="566" y="-1283.9" font-family="Arial" font-size="14.00" fill="#000000">ident_type    </text>
<text text-anchor="start" x="664.7882" y="-1283.9" font-family="Arial" font-size="14.00" fill="#666666">[integer]</text>
<polygon fill="none" stroke="#000000" points="559,-1242.5 559,-1272.5 879,-1272.5 879,-1242.5 559,-1242.5"/>
<text text-anchor="start" x="566" y="-1253.9" font-family="Arial" font-size="14.00" fill="#000000">ident_value    </text>
<text text-anchor="start" x="671.7868" y="-1253.9" font-family="Arial" font-size="14.00" fill="#666666">[text]</text>
<polygon fill="none" stroke="#000000" points="559,-1212.5 559,-1242.5 879,-1242.5 879,-1212.5 559,-1212.5"/>
<text text-anchor="start" x="566" y="-1223.9" font-family="Arial" font-size="14.00" fill="#000000">ident_type2    </text>
<text text-anchor="start" x="672.5708" y="-1223.9" font-family="Arial" font-size="14.00" fill="#666666">[integer]</text>
<polygon fill="none" stroke="#000000" points="559,-1182.5 559,-1212.5 879,-1212.5 879,-1182.5 559,-1182.5"/>
<text text-anchor="start" x="566" y="-1193.9" font-family="Arial" font-size="14.00" fill="#000000">ident_value2    </text>
<text text-anchor="start" x="679.5694" y="-1193.9" font-family="Arial" font-size="14.00" fill="#666666">[text]</text>
<polygon fill="none" stroke="#000000" points="559,-1152.5 559,-1182.5 879,-1182.5 879,-1152.5 559,-1152.5"/>
<text text-anchor="start" x="566" y="-1163.9" font-family="Arial" font-size="14.00" fill="#000000">net_access_level    </text>
<text text-anchor="start" x="707.5694" y="-1163.9" font-family="Arial" font-size="14.00" fill="#666666">[integer]</text>
<polygon fill="none" stroke="#000000" points="559,-1122.5 559,-1152.5 879,-1152.5 879,-1122.5 559,-1122.5"/>
<text text-anchor="start" x="566" y="-1133.9" font-family="Arial" font-size="14.00" fill="#000000">photo_url    </text>
<text text-anchor="start" x="658.5582" y="-1133.9" font-family="Arial" font-size="14.00" fill="#666666">[text]</text>
<polygon fill="none" stroke="#000000" points="559,-1092.5 559,-1122.5 879,-1122.5 879,-1092.5 559,-1092.5"/>
<text text-anchor="start" x="566" y="-1103.9" font-family="Arial" font-size="14.00" fill="#000000">prefix    </text>
<text text-anchor="start" x="634.4278" y="-1103.9" font-family="Arial" font-size="14.00" fill="#666666">[text]</text>
<polygon fill="none" stroke="#000000" points="559,-1062.5 559,-1092.5 879,-1092.5 879,-1062.5 559,-1062.5"/>
<text text-anchor="start" x="566" y="-1073.9" font-family="Arial" font-size="14.00" fill="#000000">first_given_name    </text>
<text text-anchor="start" x="706.7812" y="-1073.9" font-family="Arial" font-size="14.00" fill="#666666">[text]</text>
<polygon fill="none" stroke="#000000" points="559,-1032.5 559,-1062.5 879,-1062.5 879,-1032.5 559,-1032.5"/>
<text text-anchor="start" x="566" y="-1043.9" font-family="Arial" font-size="14.00" fill="#000000">second_given_name    </text>
<text text-anchor="start" x="729.3632" y="-1043.9" font-family="Arial" font-size="14.00" fill="#666666">[text]</text>
<polygon fill="none" stroke="#000000" points="559,-1002.5 559,-1032.5 879,-1032.5 879,-1002.5 559,-1002.5"/>
<text text-anchor="start" x="566" y="-1013.9" font-family="Arial" font-size="14.00" fill="#000000">family_name    </text>
<text text-anchor="start" x="679.5428" y="-1013.9" font-family="Arial" font-size="14.00" fill="#666666">[text]</text>
<polygon fill="none" stroke="#000000" points="559,-972.5 559,-1002.5 879,-1002.5 879,-972.5 559,-972.5"/>
<text text-anchor="start" x="566" y="-983.9" font-family="Arial" font-size="14.00" fill="#000000">suffix    </text>
<text text-anchor="start" x="632.8752" y="-983.9" font-family="Arial" font-size="14.00" fill="#666666">[text]</text>
<polygon fill="none" stroke="#000000" points="559,-942.5 559,-972.5 879,-972.5 879,-942.5 559,-942.5"/>
<text text-anchor="start" x="566" y="-953.9" font-family="Arial" font-size="14.00" fill="#000000">alias    </text>
<text text-anchor="start" x="628.9832" y="-953.9" font-family="Arial" font-size="14.00" fill="#666666">[text]</text>
<polygon fill="none" stroke="#000000" points="559,-912.5 559,-942.5 879,-942.5 879,-912.5 559,-912.5"/>
<text text-anchor="start" x="566" y="-923.9" font-family="Arial" font-size="14.00" fill="#000000">day_phone    </text>
<text text-anchor="start" x="669.4656" y="-923.9" font-family="Arial" font-size="14.00" fill="#666666">[text]</text>
<polygon fill="none" stroke="#000000" points="559,-882.5 559,-912.5 879,-912.5 879,-882.5 559,-882.5"/>
<text text-anchor="start" x="566" y="-893.9" font-family="Arial" font-size="14.00" fill="#000000">evening_phone    </text>
<text text-anchor="start" x="695.92" y="-893.9" font-family="Arial" font-size="14.00" fill="#666666">[text]</text>
<polygon fill="none" stroke="#000000" points="559,-852.5 559,-882.5 879,-882.5 879,-852.5 559,-852.5"/>
<text text-anchor="start" x="566" y="-863.9" font-family="Arial" font-size="14.00" fill="#000000">other_phone    </text>
<text text-anchor="start" x="678.7994" y="-863.9" font-family="Arial" font-size="14.00" fill="#666666">[text]</text>
<polygon fill="none" stroke="#000000" points="559,-822.5 559,-852.5 879,-852.5 879,-822.5 559,-822.5"/>
<text text-anchor="start" x="566" y="-833.9" font-family="Arial" font-size="14.00" fill="#000000">mailing_address    </text>
<text text-anchor="start" x="702.1066" y="-833.9" font-family="Arial" font-size="14.00" fill="#666666">[integer]</text>
<polygon fill="none" stroke="#000000" points="559,-792.5 559,-822.5 879,-822.5 879,-792.5 559,-792.5"/>
<text text-anchor="start" x="566" y="-803.9" font-family="Arial" font-size="14.00" fill="#000000">billing_address    </text>
<text text-anchor="start" x="693.5526" y="-803.9" font-family="Arial" font-size="14.00" fill="#666666">[integer]</text>
<polygon fill="none" stroke="#000000" points="559,-762.5 559,-792.5 879,-792.5 879,-762.5 559,-762.5"/>
<text text-anchor="start" x="566" y="-773.9" font-family="Arial" font-size="14.00" fill="#000000">home_ou    </text>
<text text-anchor="start" x="658.561" y="-773.9" font-family="Arial" font-size="14.00" fill="#666666">[integer]</text>
<polygon fill="none" stroke="#000000" points="559,-732.5 559,-762.5 879,-762.5 879,-732.5 559,-732.5"/>
<text text-anchor="start" x="566" y="-743.9" font-family="Arial" font-size="14.00" fill="#000000">dob    </text>
<text text-anchor="start" x="623.5526" y="-743.9" font-family="Arial" font-size="14.00" fill="#666666">[date]</text>
<polygon fill="none" stroke="#000000" points="559,-702.5 559,-732.5 879,-732.5 879,-702.5 559,-702.5"/>
<text text-anchor="start" x="566" y="-713.9" font-family="Arial" font-size="14.00" fill="#000000">active    </text>
<text text-anchor="start" x="636.7672" y="-713.9" font-family="Arial" font-size="14.00" fill="#666666">[boolean]</text>
<polygon fill="none" stroke="#000000" points="559,-672.5 559,-702.5 879,-702.5 879,-672.5 559,-672.5"/>
<text text-anchor="start" x="566" y="-683.9" font-family="Arial" font-size="14.00" fill="#000000">master_account    </text>
<text text-anchor="start" x="699.7854" y="-683.9" font-family="Arial" font-size="14.00" fill="#666666">[boolean]</text>
<polygon fill="none" stroke="#000000" points="559,-642.5 559,-672.5 879,-672.5 879,-642.5 559,-642.5"/>
<text text-anchor="start" x="566" y="-653.9" font-family="Arial" font-size="14.00" fill="#000000">super_user    </text>
<text text-anchor="start" x="670.2216" y="-653.9" font-family="Arial" font-size="14.00" fill="#666666">[boolean]</text>
<polygon fill="none" stroke="#000000" points="559,-612.5 559,-642.5 879,-642.5 879,-612.5 559,-612.5"/>
<text text-anchor="start" x="566" y="-623.9" font-family="Arial" font-size="14.00" fill="#000000">barred    </text>
<text text-anchor="start" x="640.6564" y="-623.9" font-family="Arial" font-size="14.00" fill="#666666">[boolean]</text>
<polygon fill="none" stroke="#000000" points="559,-582.5 559,-612.5 879,-612.5 879,-582.5 559,-582.5"/>
<text text-anchor="start" x="566" y="-593.9" font-family="Arial" font-size="14.00" fill="#000000">deleted    </text>
<text text-anchor="start" x="646.115" y="-593.9" font-family="Arial" font-size="14.00" fill="#666666">[boolean]</text>
<polygon fill="none" stroke="#000000" points="559,-552.5 559,-582.5 879,-582.5 879,-552.5 559,-552.5"/>
<text text-anchor="start" x="566" y="-563.9" font-family="Arial" font-size="14.00" fill="#000000">juvenile    </text>
<text text-anchor="start" x="647.655" y="-563.9" font-family="Arial" font-size="14.00" fill="#666666">[boolean]</text>
<polygon fill="none" stroke="#000000" points="559,-522.5 559,-552.5 879,-552.5 879,-522.5 559,-522.5"/>
<text text-anchor="start" x="566" y="-533.9" font-family="Arial" font-size="14.00" fill="#000000">usrgroup    </text>
<text text-anchor="start" x="655.439" y="-533.9" font-family="Arial" font-size="14.00" fill="#666666">[integer]</text>
<polygon fill="none" stroke="#000000" points="559,-492.5 559,-522.5 879,-522.5 879,-492.5 559,-492.5"/>
<text text-anchor="start" x="566" y="-503.9" font-family="Arial" font-size="14.00" fill="#000000">claims_returned_count    </text>
<text text-anchor="start" x="741.7896" y="-503.9" font-family="Arial" font-size="14.00" fill="#666666">[integer]</text>
<polygon fill="none" stroke="#000000" points="559,-462.5 559,-492.5 879,-492.5 879,-462.5 559,-462.5"/>
<text text-anchor="start" x="566" y="-473.9" font-family="Arial" font-size="14.00" fill="#000000">credit_forward_balance    </text>
<text text-anchor="start" x="745.6788" y="-473.9" font-family="Arial" font-size="14.00" fill="#666666">[numeric(6,2)]</text>
<polygon fill="none" stroke="#000000" points="559,-432.5 559,-462.5 879,-462.5 879,-432.5 559,-432.5"/>
<text text-anchor="start" x="566" y="-443.9" font-family="Arial" font-size="14.00" fill="#000000">last_xact_id    </text>
<text text-anchor="start" x="674.1122" y="-443.9" font-family="Arial" font-size="14.00" fill="#666666">[text]</text>
<polygon fill="none" stroke="#000000" points="559,-402.5 559,-432.5 879,-432.5 879,-402.5 559,-402.5"/>
<text text-anchor="start" x="566" y="-413.9" font-family="Arial" font-size="14.00" fill="#000000">alert_message    </text>
<text text-anchor="start" x="692.0014" y="-413.9" font-family="Arial" font-size="14.00" fill="#666666">[text]</text>
<polygon fill="none" stroke="#000000" points="559,-372.5 559,-402.5 879,-402.5 879,-372.5 559,-372.5"/>
<text text-anchor="start" x="566" y="-383.9" font-family="Arial" font-size="14.00" fill="#000000">create_date    </text>
<text text-anchor="start" x="674.1248" y="-383.9" font-family="Arial" font-size="14.00" fill="#666666">[timestamp with time zone]</text>
<polygon fill="none" stroke="#000000" points="559,-342.5 559,-372.5 879,-372.5 879,-342.5 559,-342.5"/>
<text text-anchor="start" x="566" y="-353.9" font-family="Arial" font-size="14.00" fill="#000000">expire_date    </text>
<text text-anchor="start" x="673.3408" y="-353.9" font-family="Arial" font-size="14.00" fill="#666666">[timestamp with time zone]</text>
<polygon fill="none" stroke="#000000" points="559,-312.5 559,-342.5 879,-342.5 879,-312.5 559,-312.5"/>
<text text-anchor="start" x="566" y="-323.9" font-family="Arial" font-size="14.00" fill="#000000">claims_never_checked_out_count    </text>
<text text-anchor="start" x="811.8246" y="-323.9" font-family="Arial" font-size="14.00" fill="#666666">[integer]</text>
<polygon fill="none" stroke="#000000" points="559,-282.5 559,-312.5 879,-312.5 879,-282.5 559,-282.5"/>
<text text-anchor="start" x="565.7609" y="-293.9" font-family="Arial" font-size="14.00" fill="#000000">last_update_time    </text>
<text text-anchor="start" x="706.5547" y="-293.9" font-family="Arial" font-size="14.00" fill="#666666">[timestamp with time zone]</text>
<polygon fill="none" stroke="#000000" points="559,-252.5 559,-282.5 879,-282.5 879,-252.5 559,-252.5"/>
<text text-anchor="start" x="566" y="-263.9" font-family="Arial" font-size="14.00" fill="#000000">pref_prefix    </text>
<text text-anchor="start" x="666.3268" y="-263.9" font-family="Arial" font-size="14.00" fill="#666666">[text]</text>
<polygon fill="none" stroke="#000000" points="559,-222.5 559,-252.5 879,-252.5 879,-222.5 559,-222.5"/>
<text text-anchor="start" x="566" y="-233.9" font-family="Arial" font-size="14.00" fill="#000000">pref_first_given_name    </text>
<text text-anchor="start" x="738.6802" y="-233.9" font-family="Arial" font-size="14.00" fill="#666666">[text]</text>
<polygon fill="none" stroke="#000000" points="559,-192.5 559,-222.5 879,-222.5 879,-192.5 559,-192.5"/>
<text text-anchor="start" x="566" y="-203.9" font-family="Arial" font-size="14.00" fill="#000000">pref_second_given_name    </text>
<text text-anchor="start" x="761.2622" y="-203.9" font-family="Arial" font-size="14.00" fill="#666666">[text]</text>
<polygon fill="none" stroke="#000000" points="559,-162.5 559,-192.5 879,-192.5 879,-162.5 559,-162.5"/>
<text text-anchor="start" x="566" y="-173.9" font-family="Arial" font-size="14.00" fill="#000000">pref_family_name    </text>
<text text-anchor="start" x="711.4418" y="-173.9" font-family="Arial" font-size="14.00" fill="#666666">[text]</text>
<polygon fill="none" stroke="#000000" points="559,-132.5 559,-162.5 879,-162.5 879,-132.5 559,-132.5"/>
<text text-anchor="start" x="566" y="-143.9" font-family="Arial" font-size="14.00" fill="#000000">pref_suffix    </text>
<text text-anchor="start" x="664.7742" y="-143.9" font-family="Arial" font-size="14.00" fill="#666666">[text]</text>
<polygon fill="none" stroke="#000000" points="559,-102.5 559,-132.5 879,-132.5 879,-102.5 559,-102.5"/>
<text text-anchor="start" x="566" y="-113.9" font-family="Arial" font-size="14.00" fill="#000000">name_keywords    </text>
<text text-anchor="start" x="702.1108" y="-113.9" font-family="Arial" font-size="14.00" fill="#666666">[text]</text>
<polygon fill="none" stroke="#000000" points="559,-72.5 559,-102.5 879,-102.5 879,-72.5 559,-72.5"/>
<text text-anchor="start" x="566" y="-83.9" font-family="Arial" font-size="14.00" fill="#000000">name_kw_tsvector    </text>
<text text-anchor="start" x="716.892" y="-83.9" font-family="Arial" font-size="14.00" fill="#666666">[tsvector]</text>
<polygon fill="none" stroke="#000000" points="559,-42.5 559,-72.5 879,-72.5 879,-42.5 559,-42.5"/>
<text text-anchor="start" x="566" y="-53.9" font-family="Arial" font-size="14.00" fill="#000000">guardian    </text>
<text text-anchor="start" x="654.6676" y="-53.9" font-family="Arial" font-size="14.00" fill="#666666">[text]</text>
</g>
<!-- biblio.record_note&#45;&gt;actor.usr -->
<g id="edge2" class="edge">
<title>biblio.record_note:creator&#45;&gt;actor.usr:id</title>
<path fill="none" stroke="#000000" d="M871.1132,-1805.183C931.6087,-1776.815 944.5008,-1497.5 879,-1497.5"/>
<polygon fill="#000000" stroke="#000000" points="870.7474,-1805.2667 859.995,-1803.1136 865.8737,-1806.3833 861,-1807.5 861,-1807.5 861,-1807.5 865.8737,-1806.3833 862.005,-1811.8864 870.7474,-1805.2667 870.7474,-1805.2667"/>
<text text-anchor="start" x="867.8865" y="-1817.5" font-family="Arial" font-size="10.00" fill="#000000">FOREIGN KEY (creator) REFERENCES actor.usr(id) DEFERRABLE INITIALLY DEFERRED</text>
</g>
<!-- biblio.record_note&#45;&gt;actor.usr -->
<g id="edge3" class="edge">
<title>biblio.record_note:editor&#45;&gt;actor.usr:id</title>
<path fill="none" stroke="#000000" d="M870.8256,-1775.0794C925.0791,-1747.7124 937.9409,-1497.5 879,-1497.5"/>
<polygon fill="#000000" stroke="#000000" points="870.7097,-1775.1079 859.9235,-1773.1306 865.8548,-1776.3039 861,-1777.5 861,-1777.5 861,-1777.5 865.8548,-1776.3039 862.0765,-1781.8694 870.7097,-1775.1079 870.7097,-1775.1079"/>
<text text-anchor="start" x="867.9415" y="-1787.5" font-family="Arial" font-size="10.00" fill="#000000">FOREIGN KEY (editor) REFERENCES actor.usr(id) DEFERRABLE INITIALLY DEFERRED</text>
</g>
</g>
</svg>
