<?xml version="1.0" encoding="UTF-8" standalone="no"?>
<!DOCTYPE svg PUBLIC "-//W3C//DTD SVG 1.1//EN"
 "http://www.w3.org/Graphics/SVG/1.1/DTD/svg11.dtd">
<!-- Generated by graphviz version 2.40.1 (20161225.0304)
 -->
<!-- Title: biblio.peer_type Pages: 1 -->
<svg width="698pt" height="472pt"
 viewBox="0.00 0.00 697.50 472.00" xmlns="http://www.w3.org/2000/svg" xmlns:xlink="http://www.w3.org/1999/xlink">
<g id="graph0" class="graph" transform="scale(1 1) rotate(0) translate(4 468)">
<title>biblio.peer_type</title>
<polygon fill="#ffffff" stroke="transparent" points="-4,4 -4,-468 693.5,-468 693.5,4 -4,4"/>
<!-- biblio.peer_type -->
<g id="node1" class="node">
<title>biblio.peer_type</title>
<polygon fill="#efefef" stroke="transparent" points="85.5,-105.5 85.5,-140.5 353.5,-140.5 353.5,-105.5 85.5,-105.5"/>
<polygon fill="none" stroke="#000000" points="85.5,-105.5 85.5,-140.5 353.5,-140.5 353.5,-105.5 85.5,-105.5"/>
<text text-anchor="start" x="92.1985" y="-118.3" font-family="Arial Bold" font-size="18.00" fill="#000000">biblio.peer_type</text>
<text text-anchor="start" x="219.2335" y="-118.3" font-family="Arial" font-size="14.00" fill="#000000">    </text>
<text text-anchor="start" x="253.4383" y="-118.3" font-family="Arial" font-size="14.00" fill="#666666">[BASE TABLE]</text>
<polygon fill="none" stroke="#000000" points="85.5,-75.5 85.5,-105.5 353.5,-105.5 353.5,-75.5 85.5,-75.5"/>
<text text-anchor="start" x="92.5" y="-86.9" font-family="Arial" font-size="14.00" fill="#000000">id </text>
<text text-anchor="start" x="107.2798" y="-86.9" font-family="Arial" font-size="14.00" fill="#666666">[integer]</text>
<polygon fill="none" stroke="#000000" points="85.5,-45.5 85.5,-75.5 353.5,-75.5 353.5,-45.5 85.5,-45.5"/>
<text text-anchor="start" x="92.5" y="-56.9" font-family="Arial" font-size="14.00" fill="#000000">name </text>
<text text-anchor="start" x="131.399" y="-56.9" font-family="Arial" font-size="14.00" fill="#666666">[text]</text>
<polygon fill="none" stroke="#000000" stroke-width="3" points="84,-44.5 84,-142.5 355,-142.5 355,-44.5 84,-44.5"/>
</g>
<!-- biblio.peer_bib_copy_map -->
<g id="node2" class="node">
<title>biblio.peer_bib_copy_map</title>
<polygon fill="#efefef" stroke="transparent" points="43.5,-385.5 43.5,-420.5 394.5,-420.5 394.5,-385.5 43.5,-385.5"/>
<polygon fill="none" stroke="#000000" points="43.5,-385.5 43.5,-420.5 394.5,-420.5 394.5,-385.5 43.5,-385.5"/>
<text text-anchor="start" x="50.1878" y="-398.3" font-family="Arial Bold" font-size="18.00" fill="#000000">biblio.peer_bib_copy_map</text>
<text text-anchor="start" x="260.2442" y="-398.3" font-family="Arial" font-size="14.00" fill="#000000">    </text>
<text text-anchor="start" x="294.449" y="-398.3" font-family="Arial" font-size="14.00" fill="#666666">[BASE TABLE]</text>
<polygon fill="none" stroke="#000000" points="43.5,-355.5 43.5,-385.5 394.5,-385.5 394.5,-355.5 43.5,-355.5"/>
<text text-anchor="start" x="50.5" y="-366.9" font-family="Arial" font-size="14.00" fill="#000000">id    </text>
<text text-anchor="start" x="95.594" y="-366.9" font-family="Arial" font-size="14.00" fill="#666666">[integer]</text>
<polygon fill="none" stroke="#000000" points="43.5,-325.5 43.5,-355.5 394.5,-355.5 394.5,-325.5 43.5,-325.5"/>
<text text-anchor="start" x="50.5" y="-336.9" font-family="Arial" font-size="14.00" fill="#000000">peer_type    </text>
<text text-anchor="start" x="146.9516" y="-336.9" font-family="Arial" font-size="14.00" fill="#666666">[integer]</text>
<polygon fill="none" stroke="#000000" points="43.5,-295.5 43.5,-325.5 394.5,-325.5 394.5,-295.5 43.5,-295.5"/>
<text text-anchor="start" x="50.5" y="-306.9" font-family="Arial" font-size="14.00" fill="#000000">peer_record    </text>
<text text-anchor="start" x="160.1648" y="-306.9" font-family="Arial" font-size="14.00" fill="#666666">[bigint]</text>
<polygon fill="none" stroke="#000000" points="43.5,-265.5 43.5,-295.5 394.5,-295.5 394.5,-265.5 43.5,-265.5"/>
<text text-anchor="start" x="50.5" y="-276.9" font-family="Arial" font-size="14.00" fill="#000000">target_copy    </text>
<text text-anchor="start" x="157.8422" y="-276.9" font-family="Arial" font-size="14.00" fill="#666666">[bigint]</text>
</g>
<!-- biblio.peer_bib_copy_map&#45;&gt;biblio.peer_type -->
<g id="edge1" class="edge">
<title>biblio.peer_bib_copy_map:peer_type&#45;&gt;biblio.peer_type:id</title>
<path fill="none" stroke="#000000" d="M404.4998,-339.3768C444.1764,-329.6569 426.7828,-259.2623 394.5,-223 302.5646,-119.7318 177.4354,-290.2682 85.5,-187 56.9817,-154.9662 42.6111,-90.5 85.5,-90.5"/>
<polygon fill="#000000" stroke="#000000" points="404.4375,-339.3837 393.9977,-336.0281 399.4688,-339.9419 394.5,-340.5 394.5,-340.5 394.5,-340.5 399.4688,-339.9419 395.0023,-344.9719 404.4375,-339.3837 404.4375,-339.3837"/>
<text text-anchor="start" x="401.9315" y="-350.5" font-family="Arial" font-size="10.00" fill="#000000">FOREIGN KEY (peer_type) REFERENCES biblio.peer_type(id)</text>
</g>
</g>
</svg>
