<?xml version="1.0" encoding="UTF-8" standalone="no"?>
<!DOCTYPE svg PUBLIC "-//W3C//DTD SVG 1.1//EN"
 "http://www.w3.org/Graphics/SVG/1.1/DTD/svg11.dtd">
<!-- Generated by graphviz version 2.40.1 (20161225.0304)
 -->
<!-- Title: biblio.monograph_part Pages: 1 -->
<svg width="865pt" height="1259pt"
 viewBox="0.00 0.00 865.00 1259.00" xmlns="http://www.w3.org/2000/svg" xmlns:xlink="http://www.w3.org/1999/xlink">
<g id="graph0" class="graph" transform="scale(1 1) rotate(0) translate(4 1255)">
<title>biblio.monograph_part</title>
<polygon fill="#ffffff" stroke="transparent" points="-4,4 -4,-1255 861,-1255 861,4 -4,4"/>
<!-- biblio.monograph_part -->
<g id="node1" class="node">
<title>biblio.monograph_part</title>
<polygon fill="#efefef" stroke="transparent" points="290,-922.5 290,-957.5 610,-957.5 610,-922.5 290,-922.5"/>
<polygon fill="none" stroke="#000000" points="290,-922.5 290,-957.5 610,-957.5 610,-922.5 290,-922.5"/>
<text text-anchor="start" x="296.6939" y="-935.3" font-family="Arial Bold" font-size="18.00" fill="#000000">biblio.monograph_part</text>
<text text-anchor="start" x="475.7381" y="-935.3" font-family="Arial" font-size="14.00" fill="#000000">    </text>
<text text-anchor="start" x="509.9429" y="-935.3" font-family="Arial" font-size="14.00" fill="#666666">[BASE TABLE]</text>
<polygon fill="none" stroke="#000000" points="290,-892.5 290,-922.5 610,-922.5 610,-892.5 290,-892.5"/>
<text text-anchor="start" x="297" y="-903.9" font-family="Arial" font-size="14.00" fill="#000000">id </text>
<text text-anchor="start" x="311.7798" y="-903.9" font-family="Arial" font-size="14.00" fill="#666666">[integer]</text>
<polygon fill="none" stroke="#000000" points="290,-862.5 290,-892.5 610,-892.5 610,-862.5 290,-862.5"/>
<text text-anchor="start" x="297" y="-873.9" font-family="Arial" font-size="14.00" fill="#000000">record </text>
<text text-anchor="start" x="340.5596" y="-873.9" font-family="Arial" font-size="14.00" fill="#666666">[bigint]</text>
<polygon fill="none" stroke="#000000" points="290,-832.5 290,-862.5 610,-862.5 610,-832.5 290,-832.5"/>
<text text-anchor="start" x="297" y="-843.9" font-family="Arial" font-size="14.00" fill="#000000">label </text>
<text text-anchor="start" x="330.4516" y="-843.9" font-family="Arial" font-size="14.00" fill="#666666">[text]</text>
<polygon fill="none" stroke="#000000" points="290,-802.5 290,-832.5 610,-832.5 610,-802.5 290,-802.5"/>
<text text-anchor="start" x="297" y="-813.9" font-family="Arial" font-size="14.00" fill="#000000">label_sortkey </text>
<text text-anchor="start" x="383.3506" y="-813.9" font-family="Arial" font-size="14.00" fill="#666666">[text]</text>
<polygon fill="none" stroke="#000000" points="290,-772.5 290,-802.5 610,-802.5 610,-772.5 290,-772.5"/>
<text text-anchor="start" x="297" y="-783.9" font-family="Arial" font-size="14.00" fill="#000000">deleted </text>
<text text-anchor="start" x="346.8008" y="-783.9" font-family="Arial" font-size="14.00" fill="#666666">[boolean]</text>
<polygon fill="none" stroke="#000000" stroke-width="3" points="288.5,-771.5 288.5,-959.5 611.5,-959.5 611.5,-771.5 288.5,-771.5"/>
</g>
<!-- biblio.record_entry -->
<g id="node3" class="node">
<title>biblio.record_entry</title>
<polygon fill="#efefef" stroke="transparent" points="305,-612.5 305,-647.5 594,-647.5 594,-612.5 305,-612.5"/>
<polygon fill="none" stroke="#000000" points="305,-612.5 305,-647.5 594,-647.5 594,-612.5 305,-612.5"/>
<text text-anchor="start" x="311.7063" y="-625.3" font-family="Arial Bold" font-size="18.00" fill="#000000">biblio.record_entry</text>
<text text-anchor="start" x="459.7257" y="-625.3" font-family="Arial" font-size="14.00" fill="#000000">    </text>
<text text-anchor="start" x="493.9305" y="-625.3" font-family="Arial" font-size="14.00" fill="#666666">[BASE TABLE]</text>
<polygon fill="none" stroke="#000000" points="305,-582.5 305,-612.5 594,-612.5 594,-582.5 305,-582.5"/>
<text text-anchor="start" x="312" y="-593.9" font-family="Arial" font-size="14.00" fill="#000000">id    </text>
<text text-anchor="start" x="357.094" y="-593.9" font-family="Arial" font-size="14.00" fill="#666666">[bigint]</text>
<polygon fill="none" stroke="#000000" points="305,-552.5 305,-582.5 594,-582.5 594,-552.5 305,-552.5"/>
<text text-anchor="start" x="312" y="-563.9" font-family="Arial" font-size="14.00" fill="#000000">creator    </text>
<text text-anchor="start" x="389.7644" y="-563.9" font-family="Arial" font-size="14.00" fill="#666666">[integer]</text>
<polygon fill="none" stroke="#000000" points="305,-522.5 305,-552.5 594,-552.5 594,-522.5 305,-522.5"/>
<text text-anchor="start" x="312" y="-533.9" font-family="Arial" font-size="14.00" fill="#000000">editor    </text>
<text text-anchor="start" x="381.2104" y="-533.9" font-family="Arial" font-size="14.00" fill="#666666">[integer]</text>
<polygon fill="none" stroke="#000000" points="305,-492.5 305,-522.5 594,-522.5 594,-492.5 305,-492.5"/>
<text text-anchor="start" x="312" y="-503.9" font-family="Arial" font-size="14.00" fill="#000000">source    </text>
<text text-anchor="start" x="388.2132" y="-503.9" font-family="Arial" font-size="14.00" fill="#666666">[integer]</text>
<polygon fill="none" stroke="#000000" points="305,-462.5 305,-492.5 594,-492.5 594,-462.5 305,-462.5"/>
<text text-anchor="start" x="312" y="-473.9" font-family="Arial" font-size="14.00" fill="#000000">quality    </text>
<text text-anchor="start" x="386.6564" y="-473.9" font-family="Arial" font-size="14.00" fill="#666666">[integer]</text>
<polygon fill="none" stroke="#000000" points="305,-432.5 305,-462.5 594,-462.5 594,-432.5 305,-432.5"/>
<text text-anchor="start" x="312" y="-443.9" font-family="Arial" font-size="14.00" fill="#000000">create_date    </text>
<text text-anchor="start" x="420.1248" y="-443.9" font-family="Arial" font-size="14.00" fill="#666666">[timestamp with time zone]</text>
<polygon fill="none" stroke="#000000" points="305,-402.5 305,-432.5 594,-432.5 594,-402.5 305,-402.5"/>
<text text-anchor="start" x="312" y="-413.9" font-family="Arial" font-size="14.00" fill="#000000">edit_date    </text>
<text text-anchor="start" x="403.7882" y="-413.9" font-family="Arial" font-size="14.00" fill="#666666">[timestamp with time zone]</text>
<polygon fill="none" stroke="#000000" points="305,-372.5 305,-402.5 594,-402.5 594,-372.5 305,-372.5"/>
<text text-anchor="start" x="312" y="-383.9" font-family="Arial" font-size="14.00" fill="#000000">active    </text>
<text text-anchor="start" x="382.7672" y="-383.9" font-family="Arial" font-size="14.00" fill="#666666">[boolean]</text>
<polygon fill="none" stroke="#000000" points="305,-342.5 305,-372.5 594,-372.5 594,-342.5 305,-342.5"/>
<text text-anchor="start" x="312" y="-353.9" font-family="Arial" font-size="14.00" fill="#000000">deleted    </text>
<text text-anchor="start" x="392.115" y="-353.9" font-family="Arial" font-size="14.00" fill="#666666">[boolean]</text>
<polygon fill="none" stroke="#000000" points="305,-312.5 305,-342.5 594,-342.5 594,-312.5 305,-312.5"/>
<text text-anchor="start" x="312" y="-323.9" font-family="Arial" font-size="14.00" fill="#000000">fingerprint    </text>
<text text-anchor="start" x="408.4334" y="-323.9" font-family="Arial" font-size="14.00" fill="#666666">[text]</text>
<polygon fill="none" stroke="#000000" points="305,-282.5 305,-312.5 594,-312.5 594,-282.5 305,-282.5"/>
<text text-anchor="start" x="312" y="-293.9" font-family="Arial" font-size="14.00" fill="#000000">tcn_source    </text>
<text text-anchor="start" x="414.669" y="-293.9" font-family="Arial" font-size="14.00" fill="#666666">[text]</text>
<polygon fill="none" stroke="#000000" points="305,-252.5 305,-282.5 594,-282.5 594,-252.5 305,-252.5"/>
<text text-anchor="start" x="312" y="-263.9" font-family="Arial" font-size="14.00" fill="#000000">tcn_value    </text>
<text text-anchor="start" x="406.115" y="-263.9" font-family="Arial" font-size="14.00" fill="#666666">[text]</text>
<polygon fill="none" stroke="#000000" points="305,-222.5 305,-252.5 594,-252.5 594,-222.5 305,-222.5"/>
<text text-anchor="start" x="312" y="-233.9" font-family="Arial" font-size="14.00" fill="#000000">marc    </text>
<text text-anchor="start" x="377.3086" y="-233.9" font-family="Arial" font-size="14.00" fill="#666666">[text]</text>
<polygon fill="none" stroke="#000000" points="305,-192.5 305,-222.5 594,-222.5 594,-192.5 305,-192.5"/>
<text text-anchor="start" x="312" y="-203.9" font-family="Arial" font-size="14.00" fill="#000000">last_xact_id    </text>
<text text-anchor="start" x="420.1122" y="-203.9" font-family="Arial" font-size="14.00" fill="#666666">[text]</text>
<polygon fill="none" stroke="#000000" points="305,-162.5 305,-192.5 594,-192.5 594,-162.5 305,-162.5"/>
<text text-anchor="start" x="312" y="-173.9" font-family="Arial" font-size="14.00" fill="#000000">vis_attr_vector    </text>
<text text-anchor="start" x="437.2174" y="-173.9" font-family="Arial" font-size="14.00" fill="#666666">[integer[]]</text>
<polygon fill="none" stroke="#000000" points="305,-132.5 305,-162.5 594,-162.5 594,-132.5 305,-132.5"/>
<text text-anchor="start" x="312" y="-143.9" font-family="Arial" font-size="14.00" fill="#000000">owner    </text>
<text text-anchor="start" x="384.3198" y="-143.9" font-family="Arial" font-size="14.00" fill="#666666">[integer]</text>
<polygon fill="none" stroke="#000000" points="305,-102.5 305,-132.5 594,-132.5 594,-102.5 305,-102.5"/>
<text text-anchor="start" x="312" y="-113.9" font-family="Arial" font-size="14.00" fill="#000000">share_depth    </text>
<text text-anchor="start" x="424.0168" y="-113.9" font-family="Arial" font-size="14.00" fill="#666666">[integer]</text>
<polygon fill="none" stroke="#000000" points="305,-72.5 305,-102.5 594,-102.5 594,-72.5 305,-72.5"/>
<text text-anchor="start" x="312" y="-83.9" font-family="Arial" font-size="14.00" fill="#000000">merge_date    </text>
<text text-anchor="start" x="420.8948" y="-83.9" font-family="Arial" font-size="14.00" fill="#666666">[timestamp with time zone]</text>
<polygon fill="none" stroke="#000000" points="305,-42.5 305,-72.5 594,-72.5 594,-42.5 305,-42.5"/>
<text text-anchor="start" x="312" y="-53.9" font-family="Arial" font-size="14.00" fill="#000000">merged_to    </text>
<text text-anchor="start" x="413.1122" y="-53.9" font-family="Arial" font-size="14.00" fill="#666666">[bigint]</text>
</g>
<!-- biblio.monograph_part&#45;&gt;biblio.record_entry -->
<g id="edge2" class="edge">
<title>biblio.monograph_part:record&#45;&gt;biblio.record_entry:id</title>
<path fill="none" stroke="#000000" d="M279.8167,-876.623C225.6333,-866.659 248.0002,-774.2669 290,-727 380.3718,-625.2948 503.6282,-792.7052 594,-691 621.6024,-659.936 635.5556,-597.5 594,-597.5"/>
<polygon fill="#000000" stroke="#000000" points="280.0369,-876.6419 289.6138,-881.9834 285.0184,-877.0709 290,-877.5 290,-877.5 290,-877.5 285.0184,-877.0709 290.3862,-873.0166 280.0369,-876.6419 280.0369,-876.6419"/>
<text text-anchor="start" x="6.666" y="-887.5" font-family="Arial" font-size="10.00" fill="#000000">FOREIGN KEY (record) REFERENCES biblio.record_entry(id)</text>
</g>
<!-- asset.copy_part_map -->
<g id="node2" class="node">
<title>asset.copy_part_map</title>
<polygon fill="#efefef" stroke="transparent" points="293,-1172.5 293,-1207.5 606,-1207.5 606,-1172.5 293,-1172.5"/>
<polygon fill="none" stroke="#000000" points="293,-1172.5 293,-1207.5 606,-1207.5 606,-1172.5 293,-1172.5"/>
<text text-anchor="start" x="299.6895" y="-1185.3" font-family="Arial Bold" font-size="18.00" fill="#000000">asset.copy_part_map</text>
<text text-anchor="start" x="471.7425" y="-1185.3" font-family="Arial" font-size="14.00" fill="#000000">    </text>
<text text-anchor="start" x="505.9473" y="-1185.3" font-family="Arial" font-size="14.00" fill="#666666">[BASE TABLE]</text>
<polygon fill="none" stroke="#000000" points="293,-1142.5 293,-1172.5 606,-1172.5 606,-1142.5 293,-1142.5"/>
<text text-anchor="start" x="300" y="-1153.9" font-family="Arial" font-size="14.00" fill="#000000">id    </text>
<text text-anchor="start" x="345.094" y="-1153.9" font-family="Arial" font-size="14.00" fill="#666666">[integer]</text>
<polygon fill="none" stroke="#000000" points="293,-1112.5 293,-1142.5 606,-1142.5 606,-1112.5 293,-1112.5"/>
<text text-anchor="start" x="300" y="-1123.9" font-family="Arial" font-size="14.00" fill="#000000">target_copy    </text>
<text text-anchor="start" x="407.3422" y="-1123.9" font-family="Arial" font-size="14.00" fill="#666666">[bigint]</text>
<polygon fill="none" stroke="#000000" points="293,-1082.5 293,-1112.5 606,-1112.5 606,-1082.5 293,-1082.5"/>
<text text-anchor="start" x="300" y="-1093.9" font-family="Arial" font-size="14.00" fill="#000000">part    </text>
<text text-anchor="start" x="358.3212" y="-1093.9" font-family="Arial" font-size="14.00" fill="#666666">[integer]</text>
</g>
<!-- asset.copy_part_map&#45;&gt;biblio.monograph_part -->
<g id="edge1" class="edge">
<title>asset.copy_part_map:part&#45;&gt;biblio.monograph_part:id</title>
<path fill="none" stroke="#000000" d="M449.2415,-1072.3021C439.0952,-1009.3628 329.932,-1068.0707 290,-1004 267.3148,-967.6017 247.1111,-907.5 290,-907.5"/>
<polygon fill="#000000" stroke="#000000" points="449.2582,-1072.5275 445.5124,-1082.8338 449.6291,-1077.5138 450,-1082.5 450,-1082.5 450,-1082.5 449.6291,-1077.5138 454.4876,-1082.1662 449.2582,-1072.5275 449.2582,-1072.5275"/>
<text text-anchor="start" x="457.3215" y="-1092.5" font-family="Arial" font-size="10.00" fill="#000000">FOREIGN KEY (part) REFERENCES biblio.monograph_part(id) ON DELETE CASCADE</text>
</g>
</g>
</svg>
