<?xml version="1.0" encoding="UTF-8" standalone="no"?>
<!DOCTYPE svg PUBLIC "-//W3C//DTD SVG 1.1//EN"
 "http://www.w3.org/Graphics/SVG/1.1/DTD/svg11.dtd">
<!-- Generated by graphviz version 2.40.1 (20161225.0304)
 -->
<!-- Title: booking.resource_attr_value Pages: 1 -->
<svg width="1329pt" height="1079pt"
 viewBox="0.00 0.00 1329.00 1079.00" xmlns="http://www.w3.org/2000/svg" xmlns:xlink="http://www.w3.org/1999/xlink">
<g id="graph0" class="graph" transform="scale(1 1) rotate(0) translate(4 1075)">
<title>booking.resource_attr_value</title>
<polygon fill="#ffffff" stroke="transparent" points="-4,4 -4,-1075 1325,-1075 1325,4 -4,4"/>
<!-- booking.resource_attr_value -->
<g id="node1" class="node">
<title>booking.resource_attr_value</title>
<polygon fill="#efefef" stroke="transparent" points="486,-712.5 486,-747.5 854,-747.5 854,-712.5 486,-712.5"/>
<polygon fill="none" stroke="#000000" points="486,-712.5 486,-747.5 854,-747.5 854,-712.5 486,-712.5"/>
<text text-anchor="start" x="492.6837" y="-725.3" font-family="Arial Bold" font-size="18.00" fill="#000000">booking.resource_attr_value</text>
<text text-anchor="start" x="719.7483" y="-725.3" font-family="Arial" font-size="14.00" fill="#000000">    </text>
<text text-anchor="start" x="753.9531" y="-725.3" font-family="Arial" font-size="14.00" fill="#666666">[BASE TABLE]</text>
<polygon fill="none" stroke="#000000" points="486,-682.5 486,-712.5 854,-712.5 854,-682.5 486,-682.5"/>
<text text-anchor="start" x="493" y="-693.9" font-family="Arial" font-size="14.00" fill="#000000">id </text>
<text text-anchor="start" x="507.7798" y="-693.9" font-family="Arial" font-size="14.00" fill="#666666">[integer]</text>
<polygon fill="none" stroke="#000000" points="486,-652.5 486,-682.5 854,-682.5 854,-652.5 486,-652.5"/>
<text text-anchor="start" x="493" y="-663.9" font-family="Arial" font-size="14.00" fill="#000000">owner </text>
<text text-anchor="start" x="535.0056" y="-663.9" font-family="Arial" font-size="14.00" fill="#666666">[integer]</text>
<polygon fill="none" stroke="#000000" points="486,-622.5 486,-652.5 854,-652.5 854,-622.5 486,-622.5"/>
<text text-anchor="start" x="493" y="-633.9" font-family="Arial" font-size="14.00" fill="#000000">attr </text>
<text text-anchor="start" x="517.115" y="-633.9" font-family="Arial" font-size="14.00" fill="#666666">[integer]</text>
<polygon fill="none" stroke="#000000" points="486,-592.5 486,-622.5 854,-622.5 854,-592.5 486,-592.5"/>
<text text-anchor="start" x="493" y="-603.9" font-family="Arial" font-size="14.00" fill="#000000">valid_value </text>
<text text-anchor="start" x="566.906" y="-603.9" font-family="Arial" font-size="14.00" fill="#666666">[text]</text>
<polygon fill="none" stroke="#000000" stroke-width="3" points="484.5,-591.5 484.5,-749.5 855.5,-749.5 855.5,-591.5 484.5,-591.5"/>
</g>
<!-- actor.org_unit -->
<g id="node4" class="node">
<title>actor.org_unit</title>
<polygon fill="#efefef" stroke="transparent" points="351,-432.5 351,-467.5 602,-467.5 602,-432.5 351,-432.5"/>
<polygon fill="none" stroke="#000000" points="351,-432.5 351,-467.5 602,-467.5 602,-432.5 351,-432.5"/>
<text text-anchor="start" x="357.7017" y="-445.3" font-family="Arial Bold" font-size="18.00" fill="#000000">actor.org_unit</text>
<text text-anchor="start" x="467.7303" y="-445.3" font-family="Arial" font-size="14.00" fill="#000000">    </text>
<text text-anchor="start" x="501.9351" y="-445.3" font-family="Arial" font-size="14.00" fill="#666666">[BASE TABLE]</text>
<polygon fill="none" stroke="#000000" points="351,-402.5 351,-432.5 602,-432.5 602,-402.5 351,-402.5"/>
<text text-anchor="start" x="358" y="-413.9" font-family="Arial" font-size="14.00" fill="#000000">id    </text>
<text text-anchor="start" x="403.094" y="-413.9" font-family="Arial" font-size="14.00" fill="#666666">[integer]</text>
<polygon fill="none" stroke="#000000" points="351,-372.5 351,-402.5 602,-402.5 602,-372.5 351,-372.5"/>
<text text-anchor="start" x="358" y="-383.9" font-family="Arial" font-size="14.00" fill="#000000">parent_ou    </text>
<text text-anchor="start" x="455.2342" y="-383.9" font-family="Arial" font-size="14.00" fill="#666666">[integer]</text>
<polygon fill="none" stroke="#000000" points="351,-342.5 351,-372.5 602,-372.5 602,-342.5 351,-342.5"/>
<text text-anchor="start" x="358" y="-353.9" font-family="Arial" font-size="14.00" fill="#000000">ou_type    </text>
<text text-anchor="start" x="442.0084" y="-353.9" font-family="Arial" font-size="14.00" fill="#666666">[integer]</text>
<polygon fill="none" stroke="#000000" points="351,-312.5 351,-342.5 602,-342.5 602,-312.5 351,-312.5"/>
<text text-anchor="start" x="358" y="-323.9" font-family="Arial" font-size="14.00" fill="#000000">ill_address    </text>
<text text-anchor="start" x="459.0982" y="-323.9" font-family="Arial" font-size="14.00" fill="#666666">[integer]</text>
<polygon fill="none" stroke="#000000" points="351,-282.5 351,-312.5 602,-312.5 602,-282.5 351,-282.5"/>
<text text-anchor="start" x="358" y="-293.9" font-family="Arial" font-size="14.00" fill="#000000">holds_address    </text>
<text text-anchor="start" x="483.2328" y="-293.9" font-family="Arial" font-size="14.00" fill="#666666">[integer]</text>
<polygon fill="none" stroke="#000000" points="351,-252.5 351,-282.5 602,-282.5 602,-252.5 351,-252.5"/>
<text text-anchor="start" x="358" y="-263.9" font-family="Arial" font-size="14.00" fill="#000000">mailing_address    </text>
<text text-anchor="start" x="494.1066" y="-263.9" font-family="Arial" font-size="14.00" fill="#666666">[integer]</text>
<polygon fill="none" stroke="#000000" points="351,-222.5 351,-252.5 602,-252.5 602,-222.5 351,-222.5"/>
<text text-anchor="start" x="358" y="-233.9" font-family="Arial" font-size="14.00" fill="#000000">billing_address    </text>
<text text-anchor="start" x="485.5526" y="-233.9" font-family="Arial" font-size="14.00" fill="#666666">[integer]</text>
<polygon fill="none" stroke="#000000" points="351,-192.5 351,-222.5 602,-222.5 602,-192.5 351,-192.5"/>
<text text-anchor="start" x="358" y="-203.9" font-family="Arial" font-size="14.00" fill="#000000">shortname    </text>
<text text-anchor="start" x="458.3296" y="-203.9" font-family="Arial" font-size="14.00" fill="#666666">[text]</text>
<polygon fill="none" stroke="#000000" points="351,-162.5 351,-192.5 602,-192.5 602,-162.5 351,-162.5"/>
<text text-anchor="start" x="358" y="-173.9" font-family="Arial" font-size="14.00" fill="#000000">name    </text>
<text text-anchor="start" x="427.2132" y="-173.9" font-family="Arial" font-size="14.00" fill="#666666">[text]</text>
<polygon fill="none" stroke="#000000" points="351,-132.5 351,-162.5 602,-162.5 602,-132.5 351,-132.5"/>
<text text-anchor="start" x="358" y="-143.9" font-family="Arial" font-size="14.00" fill="#000000">email    </text>
<text text-anchor="start" x="425.6438" y="-143.9" font-family="Arial" font-size="14.00" fill="#666666">[text]</text>
<polygon fill="none" stroke="#000000" points="351,-102.5 351,-132.5 602,-132.5 602,-102.5 351,-102.5"/>
<text text-anchor="start" x="358" y="-113.9" font-family="Arial" font-size="14.00" fill="#000000">phone    </text>
<text text-anchor="start" x="431.1178" y="-113.9" font-family="Arial" font-size="14.00" fill="#666666">[text]</text>
<polygon fill="none" stroke="#000000" points="351,-72.5 351,-102.5 602,-102.5 602,-72.5 351,-72.5"/>
<text text-anchor="start" x="358" y="-83.9" font-family="Arial" font-size="14.00" fill="#000000">opac_visible    </text>
<text text-anchor="start" x="469.2202" y="-83.9" font-family="Arial" font-size="14.00" fill="#666666">[boolean]</text>
<polygon fill="none" stroke="#000000" points="351,-42.5 351,-72.5 602,-72.5 602,-42.5 351,-42.5"/>
<text text-anchor="start" x="358" y="-53.9" font-family="Arial" font-size="14.00" fill="#000000">fiscal_calendar    </text>
<text text-anchor="start" x="485.554" y="-53.9" font-family="Arial" font-size="14.00" fill="#666666">[integer]</text>
</g>
<!-- booking.resource_attr_value&#45;&gt;actor.org_unit -->
<g id="edge3" class="edge">
<title>booking.resource_attr_value:owner&#45;&gt;actor.org_unit:id</title>
<path fill="none" stroke="#000000" d="M476.0523,-666.4508C435.4702,-657.0805 456.4062,-587.1705 486,-547 518.0178,-503.5392 569.9822,-554.4608 602,-511 626.6477,-477.5433 643.5556,-417.5 602,-417.5"/>
<polygon fill="#000000" stroke="#000000" points="476.0552,-666.4511 485.528,-671.9752 481.0276,-666.9755 486,-667.5 486,-667.5 486,-667.5 481.0276,-666.9755 486.472,-663.0248 476.0552,-666.4511 476.0552,-666.4511"/>
<text text-anchor="start" x="48.714" y="-677.5" font-family="Arial" font-size="10.00" fill="#000000">FOREIGN KEY (owner) REFERENCES actor.org_unit(id) DEFERRABLE INITIALLY DEFERRED</text>
</g>
<!-- booking.resource_attr -->
<g id="node5" class="node">
<title>booking.resource_attr</title>
<polygon fill="#efefef" stroke="transparent" points="706,-312.5 706,-347.5 1021,-347.5 1021,-312.5 706,-312.5"/>
<polygon fill="none" stroke="#000000" points="706,-312.5 706,-347.5 1021,-347.5 1021,-312.5 706,-312.5"/>
<text text-anchor="start" x="712.6932" y="-325.3" font-family="Arial Bold" font-size="18.00" fill="#000000">booking.resource_attr</text>
<text text-anchor="start" x="886.7388" y="-325.3" font-family="Arial" font-size="14.00" fill="#000000">    </text>
<text text-anchor="start" x="920.9436" y="-325.3" font-family="Arial" font-size="14.00" fill="#666666">[BASE TABLE]</text>
<polygon fill="none" stroke="#000000" points="706,-282.5 706,-312.5 1021,-312.5 1021,-282.5 706,-282.5"/>
<text text-anchor="start" x="713" y="-293.9" font-family="Arial" font-size="14.00" fill="#000000">id    </text>
<text text-anchor="start" x="758.094" y="-293.9" font-family="Arial" font-size="14.00" fill="#666666">[integer]</text>
<polygon fill="none" stroke="#000000" points="706,-252.5 706,-282.5 1021,-282.5 1021,-252.5 706,-252.5"/>
<text text-anchor="start" x="713" y="-263.9" font-family="Arial" font-size="14.00" fill="#000000">owner    </text>
<text text-anchor="start" x="785.3198" y="-263.9" font-family="Arial" font-size="14.00" fill="#666666">[integer]</text>
<polygon fill="none" stroke="#000000" points="706,-222.5 706,-252.5 1021,-252.5 1021,-222.5 706,-222.5"/>
<text text-anchor="start" x="713" y="-233.9" font-family="Arial" font-size="14.00" fill="#000000">name    </text>
<text text-anchor="start" x="782.2132" y="-233.9" font-family="Arial" font-size="14.00" fill="#666666">[text]</text>
<polygon fill="none" stroke="#000000" points="706,-192.5 706,-222.5 1021,-222.5 1021,-192.5 706,-192.5"/>
<text text-anchor="start" x="713" y="-203.9" font-family="Arial" font-size="14.00" fill="#000000">resource_type    </text>
<text text-anchor="start" x="835.8948" y="-203.9" font-family="Arial" font-size="14.00" fill="#666666">[integer]</text>
<polygon fill="none" stroke="#000000" points="706,-162.5 706,-192.5 1021,-192.5 1021,-162.5 706,-162.5"/>
<text text-anchor="start" x="713" y="-173.9" font-family="Arial" font-size="14.00" fill="#000000">required    </text>
<text text-anchor="start" x="798.5456" y="-173.9" font-family="Arial" font-size="14.00" fill="#666666">[boolean]</text>
</g>
<!-- booking.resource_attr_value&#45;&gt;booking.resource_attr -->
<g id="edge4" class="edge">
<title>booking.resource_attr_value:attr&#45;&gt;booking.resource_attr:id</title>
<path fill="none" stroke="#000000" d="M863.9794,-636.0438C889.3763,-627.2715 867.4469,-580.7113 854,-547 818.5912,-458.2304 741.4088,-479.7696 706,-391 690.6038,-352.4018 664.4444,-297.5 706,-297.5"/>
<polygon fill="#000000" stroke="#000000" points="863.8952,-636.056 853.3502,-633.0472 858.9476,-636.778 854,-637.5 854,-637.5 854,-637.5 858.9476,-636.778 854.6498,-641.9528 863.8952,-636.056 863.8952,-636.056"/>
<text text-anchor="start" x="861.321" y="-647.5" font-family="Arial" font-size="10.00" fill="#000000">FOREIGN KEY (attr) REFERENCES booking.resource_attr(id) DEFERRABLE INITIALLY DEFERRED</text>
</g>
<!-- booking.reservation_attr_value_map -->
<g id="node2" class="node">
<title>booking.reservation_attr_value_map</title>
<polygon fill="#efefef" stroke="transparent" points="204,-977.5 204,-1012.5 636,-1012.5 636,-977.5 204,-977.5"/>
<polygon fill="none" stroke="#000000" points="204,-977.5 204,-1012.5 636,-1012.5 636,-977.5 204,-977.5"/>
<text text-anchor="start" x="210.677" y="-990.3" font-family="Arial Bold" font-size="18.00" fill="#000000">booking.reservation_attr_value_map</text>
<text text-anchor="start" x="501.755" y="-990.3" font-family="Arial" font-size="14.00" fill="#000000">    </text>
<text text-anchor="start" x="535.9598" y="-990.3" font-family="Arial" font-size="14.00" fill="#666666">[BASE TABLE]</text>
<polygon fill="none" stroke="#000000" points="204,-947.5 204,-977.5 636,-977.5 636,-947.5 204,-947.5"/>
<text text-anchor="start" x="211" y="-958.9" font-family="Arial" font-size="14.00" fill="#000000">id    </text>
<text text-anchor="start" x="256.094" y="-958.9" font-family="Arial" font-size="14.00" fill="#666666">[integer]</text>
<polygon fill="none" stroke="#000000" points="204,-917.5 204,-947.5 636,-947.5 636,-917.5 204,-917.5"/>
<text text-anchor="start" x="211" y="-928.9" font-family="Arial" font-size="14.00" fill="#000000">reservation    </text>
<text text-anchor="start" x="314.4362" y="-928.9" font-family="Arial" font-size="14.00" fill="#666666">[integer]</text>
<polygon fill="none" stroke="#000000" points="204,-887.5 204,-917.5 636,-917.5 636,-887.5 204,-887.5"/>
<text text-anchor="start" x="211" y="-898.9" font-family="Arial" font-size="14.00" fill="#000000">attr_value    </text>
<text text-anchor="start" x="306.6662" y="-898.9" font-family="Arial" font-size="14.00" fill="#666666">[integer]</text>
</g>
<!-- booking.reservation_attr_value_map&#45;&gt;booking.resource_attr_value -->
<g id="edge1" class="edge">
<title>booking.reservation_attr_value_map:attr_value&#45;&gt;booking.resource_attr_value:id</title>
<path fill="none" stroke="#000000" d="M645.7939,-899.7672C657.9396,-890.8793 648.4391,-862.3678 636,-845 594.999,-787.7537 527.001,-851.2463 486,-794 461.0267,-759.1318 443.1111,-697.5 486,-697.5"/>
<polygon fill="#000000" stroke="#000000" points="645.6321,-899.8123 634.7905,-898.1656 640.816,-901.1561 636,-902.5 636,-902.5 636,-902.5 640.816,-901.1561 637.2095,-906.8344 645.6321,-899.8123 645.6321,-899.8123"/>
<text text-anchor="start" x="6.585" y="-912.5" font-family="Arial" font-size="10.00" fill="#000000">FOREIGN KEY (attr_value) REFERENCES booking.resource_attr_value(id) ON DELETE CASCADE DEFERRABLE INITIALLY DEFERRED</text>
</g>
<!-- booking.resource_attr_map -->
<g id="node3" class="node">
<title>booking.resource_attr_map</title>
<polygon fill="#efefef" stroke="transparent" points="740,-992.5 740,-1027.5 1100,-1027.5 1100,-992.5 740,-992.5"/>
<polygon fill="none" stroke="#000000" points="740,-992.5 740,-1027.5 1100,-1027.5 1100,-992.5 740,-992.5"/>
<text text-anchor="start" x="746.6878" y="-1005.3" font-family="Arial Bold" font-size="18.00" fill="#000000">booking.resource_attr_map</text>
<text text-anchor="start" x="965.7442" y="-1005.3" font-family="Arial" font-size="14.00" fill="#000000">    </text>
<text text-anchor="start" x="999.949" y="-1005.3" font-family="Arial" font-size="14.00" fill="#666666">[BASE TABLE]</text>
<polygon fill="none" stroke="#000000" points="740,-962.5 740,-992.5 1100,-992.5 1100,-962.5 740,-962.5"/>
<text text-anchor="start" x="747" y="-973.9" font-family="Arial" font-size="14.00" fill="#000000">id    </text>
<text text-anchor="start" x="792.094" y="-973.9" font-family="Arial" font-size="14.00" fill="#666666">[integer]</text>
<polygon fill="none" stroke="#000000" points="740,-932.5 740,-962.5 1100,-962.5 1100,-932.5 740,-932.5"/>
<text text-anchor="start" x="747" y="-943.9" font-family="Arial" font-size="14.00" fill="#000000">resource    </text>
<text text-anchor="start" x="835.6564" y="-943.9" font-family="Arial" font-size="14.00" fill="#666666">[integer]</text>
<polygon fill="none" stroke="#000000" points="740,-902.5 740,-932.5 1100,-932.5 1100,-902.5 740,-902.5"/>
<text text-anchor="start" x="747" y="-913.9" font-family="Arial" font-size="14.00" fill="#000000">resource_attr    </text>
<text text-anchor="start" x="863.6634" y="-913.9" font-family="Arial" font-size="14.00" fill="#666666">[integer]</text>
<polygon fill="none" stroke="#000000" points="740,-872.5 740,-902.5 1100,-902.5 1100,-872.5 740,-872.5"/>
<text text-anchor="start" x="747" y="-883.9" font-family="Arial" font-size="14.00" fill="#000000">value    </text>
<text text-anchor="start" x="814.6592" y="-883.9" font-family="Arial" font-size="14.00" fill="#666666">[integer]</text>
</g>
<!-- booking.resource_attr_map&#45;&gt;booking.resource_attr_value -->
<g id="edge2" class="edge">
<title>booking.resource_attr_map:value&#45;&gt;booking.resource_attr_value:id</title>
<path fill="none" stroke="#000000" d="M730.1908,-884.7561C717.9984,-875.8344 727.3718,-847.2308 740,-830 771.4085,-787.1442 822.5915,-836.8558 854,-794 879.3529,-759.4068 896.8889,-697.5 854,-697.5"/>
<polygon fill="#000000" stroke="#000000" points="730.3697,-884.8061 738.7877,-891.8336 735.1848,-886.153 740,-887.5 740,-887.5 740,-887.5 735.1848,-886.153 741.2123,-883.1664 730.3697,-884.8061 730.3697,-884.8061"/>
<text text-anchor="start" x="746.8685" y="-897.5" font-family="Arial" font-size="10.00" fill="#000000">FOREIGN KEY (value) REFERENCES booking.resource_attr_value(id) DEFERRABLE INITIALLY DEFERRED</text>
</g>
</g>
</svg>
