<?xml version="1.0" encoding="UTF-8" standalone="no"?>
<!DOCTYPE svg PUBLIC "-//W3C//DTD SVG 1.1//EN"
 "http://www.w3.org/Graphics/SVG/1.1/DTD/svg11.dtd">
<!-- Generated by graphviz version 2.40.1 (20161225.0304)
 -->
<!-- Title: booking.reservation_attr_value_map Pages: 1 -->
<svg width="1679pt" height="1102pt"
 viewBox="0.00 0.00 1679.00 1102.00" xmlns="http://www.w3.org/2000/svg" xmlns:xlink="http://www.w3.org/1999/xlink">
<g id="graph0" class="graph" transform="scale(1 1) rotate(0) translate(4 1098)">
<title>booking.reservation_attr_value_map</title>
<polygon fill="#ffffff" stroke="transparent" points="-4,4 -4,-1098 1675,-1098 1675,4 -4,4"/>
<!-- booking.reservation_attr_value_map -->
<g id="node1" class="node">
<title>booking.reservation_attr_value_map</title>
<polygon fill="#efefef" stroke="transparent" points="603,-1012.5 603,-1047.5 1035,-1047.5 1035,-1012.5 603,-1012.5"/>
<polygon fill="none" stroke="#000000" points="603,-1012.5 603,-1047.5 1035,-1047.5 1035,-1012.5 603,-1012.5"/>
<text text-anchor="start" x="609.677" y="-1025.3" font-family="Arial Bold" font-size="18.00" fill="#000000">booking.reservation_attr_value_map</text>
<text text-anchor="start" x="900.755" y="-1025.3" font-family="Arial" font-size="14.00" fill="#000000">    </text>
<text text-anchor="start" x="934.9598" y="-1025.3" font-family="Arial" font-size="14.00" fill="#666666">[BASE TABLE]</text>
<polygon fill="none" stroke="#000000" points="603,-982.5 603,-1012.5 1035,-1012.5 1035,-982.5 603,-982.5"/>
<text text-anchor="start" x="610" y="-993.9" font-family="Arial" font-size="14.00" fill="#000000">id </text>
<text text-anchor="start" x="624.7798" y="-993.9" font-family="Arial" font-size="14.00" fill="#666666">[integer]</text>
<polygon fill="none" stroke="#000000" points="603,-952.5 603,-982.5 1035,-982.5 1035,-952.5 603,-952.5"/>
<text text-anchor="start" x="610" y="-963.9" font-family="Arial" font-size="14.00" fill="#000000">reservation </text>
<text text-anchor="start" x="683.122" y="-963.9" font-family="Arial" font-size="14.00" fill="#666666">[integer]</text>
<polygon fill="none" stroke="#000000" points="603,-922.5 603,-952.5 1035,-952.5 1035,-922.5 603,-922.5"/>
<text text-anchor="start" x="610" y="-933.9" font-family="Arial" font-size="14.00" fill="#000000">attr_value </text>
<text text-anchor="start" x="675.352" y="-933.9" font-family="Arial" font-size="14.00" fill="#666666">[integer]</text>
<polygon fill="none" stroke="#000000" stroke-width="3" points="601.5,-921.5 601.5,-1049.5 1036.5,-1049.5 1036.5,-921.5 601.5,-921.5"/>
</g>
<!-- booking.reservation -->
<g id="node2" class="node">
<title>booking.reservation</title>
<polygon fill="#efefef" stroke="transparent" points="452,-762.5 452,-797.5 750,-797.5 750,-762.5 452,-762.5"/>
<polygon fill="none" stroke="#000000" points="452,-762.5 452,-797.5 750,-797.5 750,-762.5 452,-762.5"/>
<text text-anchor="start" x="458.6964" y="-775.3" font-family="Arial Bold" font-size="18.00" fill="#000000">booking.reservation</text>
<text text-anchor="start" x="615.7356" y="-775.3" font-family="Arial" font-size="14.00" fill="#000000">    </text>
<text text-anchor="start" x="649.9404" y="-775.3" font-family="Arial" font-size="14.00" fill="#666666">[BASE TABLE]</text>
<polygon fill="none" stroke="#000000" points="452,-732.5 452,-762.5 750,-762.5 750,-732.5 452,-732.5"/>
<text text-anchor="start" x="459" y="-743.9" font-family="Arial" font-size="14.00" fill="#000000">id    </text>
<text text-anchor="start" x="504.094" y="-743.9" font-family="Arial" font-size="14.00" fill="#666666">[bigint]</text>
<polygon fill="none" stroke="#000000" points="452,-702.5 452,-732.5 750,-732.5 750,-702.5 452,-702.5"/>
<text text-anchor="start" x="459" y="-713.9" font-family="Arial" font-size="14.00" fill="#000000">usr    </text>
<text text-anchor="start" x="512.648" y="-713.9" font-family="Arial" font-size="14.00" fill="#666666">[integer]</text>
<polygon fill="none" stroke="#000000" points="452,-672.5 452,-702.5 750,-702.5 750,-672.5 452,-672.5"/>
<text text-anchor="start" x="459" y="-683.9" font-family="Arial" font-size="14.00" fill="#000000">xact_start    </text>
<text text-anchor="start" x="553.885" y="-683.9" font-family="Arial" font-size="14.00" fill="#666666">[timestamp with time zone]</text>
<polygon fill="none" stroke="#000000" points="452,-642.5 452,-672.5 750,-672.5 750,-642.5 452,-642.5"/>
<text text-anchor="start" x="459" y="-653.9" font-family="Arial" font-size="14.00" fill="#000000">xact_finish    </text>
<text text-anchor="start" x="559.3296" y="-653.9" font-family="Arial" font-size="14.00" fill="#666666">[timestamp with time zone]</text>
<polygon fill="none" stroke="#000000" points="452,-612.5 452,-642.5 750,-642.5 750,-612.5 452,-612.5"/>
<text text-anchor="start" x="459" y="-623.9" font-family="Arial" font-size="14.00" fill="#000000">unrecovered    </text>
<text text-anchor="start" x="571.0042" y="-623.9" font-family="Arial" font-size="14.00" fill="#666666">[boolean]</text>
<polygon fill="none" stroke="#000000" points="452,-582.5 452,-612.5 750,-612.5 750,-582.5 452,-582.5"/>
<text text-anchor="start" x="459" y="-593.9" font-family="Arial" font-size="14.00" fill="#000000">request_time    </text>
<text text-anchor="start" x="574.1094" y="-593.9" font-family="Arial" font-size="14.00" fill="#666666">[timestamp with time zone]</text>
<polygon fill="none" stroke="#000000" points="452,-552.5 452,-582.5 750,-582.5 750,-552.5 452,-552.5"/>
<text text-anchor="start" x="459" y="-563.9" font-family="Arial" font-size="14.00" fill="#000000">start_time    </text>
<text text-anchor="start" x="554.6522" y="-563.9" font-family="Arial" font-size="14.00" fill="#666666">[timestamp with time zone]</text>
<polygon fill="none" stroke="#000000" points="452,-522.5 452,-552.5 750,-552.5 750,-522.5 452,-522.5"/>
<text text-anchor="start" x="459" y="-533.9" font-family="Arial" font-size="14.00" fill="#000000">end_time    </text>
<text text-anchor="start" x="550.7756" y="-533.9" font-family="Arial" font-size="14.00" fill="#666666">[timestamp with time zone]</text>
<polygon fill="none" stroke="#000000" points="452,-492.5 452,-522.5 750,-522.5 750,-492.5 452,-492.5"/>
<text text-anchor="start" x="459" y="-503.9" font-family="Arial" font-size="14.00" fill="#000000">capture_time    </text>
<text text-anchor="start" x="574.1094" y="-503.9" font-family="Arial" font-size="14.00" fill="#666666">[timestamp with time zone]</text>
<polygon fill="none" stroke="#000000" points="452,-462.5 452,-492.5 750,-492.5 750,-462.5 452,-462.5"/>
<text text-anchor="start" x="459" y="-473.9" font-family="Arial" font-size="14.00" fill="#000000">cancel_time    </text>
<text text-anchor="start" x="567.8822" y="-473.9" font-family="Arial" font-size="14.00" fill="#666666">[timestamp with time zone]</text>
<polygon fill="none" stroke="#000000" points="452,-432.5 452,-462.5 750,-462.5 750,-432.5 452,-432.5"/>
<text text-anchor="start" x="459" y="-443.9" font-family="Arial" font-size="14.00" fill="#000000">pickup_time    </text>
<text text-anchor="start" x="567.8822" y="-443.9" font-family="Arial" font-size="14.00" fill="#666666">[timestamp with time zone]</text>
<polygon fill="none" stroke="#000000" points="452,-402.5 452,-432.5 750,-432.5 750,-402.5 452,-402.5"/>
<text text-anchor="start" x="459" y="-413.9" font-family="Arial" font-size="14.00" fill="#000000">return_time    </text>
<text text-anchor="start" x="563.9874" y="-413.9" font-family="Arial" font-size="14.00" fill="#666666">[timestamp with time zone]</text>
<polygon fill="none" stroke="#000000" points="452,-372.5 452,-402.5 750,-402.5 750,-372.5 452,-372.5"/>
<text text-anchor="start" x="459" y="-383.9" font-family="Arial" font-size="14.00" fill="#000000">booking_interval    </text>
<text text-anchor="start" x="595.1192" y="-383.9" font-family="Arial" font-size="14.00" fill="#666666">[interval]</text>
<polygon fill="none" stroke="#000000" points="452,-342.5 452,-372.5 750,-372.5 750,-342.5 452,-342.5"/>
<text text-anchor="start" x="459" y="-353.9" font-family="Arial" font-size="14.00" fill="#000000">fine_interval    </text>
<text text-anchor="start" x="568.662" y="-353.9" font-family="Arial" font-size="14.00" fill="#666666">[interval]</text>
<polygon fill="none" stroke="#000000" points="452,-312.5 452,-342.5 750,-342.5 750,-312.5 452,-312.5"/>
<text text-anchor="start" x="459" y="-323.9" font-family="Arial" font-size="14.00" fill="#000000">fine_amount    </text>
<text text-anchor="start" x="570.2314" y="-323.9" font-family="Arial" font-size="14.00" fill="#666666">[numeric(8,2)]</text>
<polygon fill="none" stroke="#000000" points="452,-282.5 452,-312.5 750,-312.5 750,-282.5 452,-282.5"/>
<text text-anchor="start" x="459" y="-293.9" font-family="Arial" font-size="14.00" fill="#000000">max_fine    </text>
<text text-anchor="start" x="549.993" y="-293.9" font-family="Arial" font-size="14.00" fill="#666666">[numeric(8,2)]</text>
<polygon fill="none" stroke="#000000" points="452,-252.5 452,-282.5 750,-282.5 750,-252.5 452,-252.5"/>
<text text-anchor="start" x="459" y="-263.9" font-family="Arial" font-size="14.00" fill="#000000">target_resource_type    </text>
<text text-anchor="start" x="625.467" y="-263.9" font-family="Arial" font-size="14.00" fill="#666666">[integer]</text>
<polygon fill="none" stroke="#000000" points="452,-222.5 452,-252.5 750,-252.5 750,-222.5 452,-222.5"/>
<text text-anchor="start" x="459" y="-233.9" font-family="Arial" font-size="14.00" fill="#000000">target_resource    </text>
<text text-anchor="start" x="591.2286" y="-233.9" font-family="Arial" font-size="14.00" fill="#666666">[integer]</text>
<polygon fill="none" stroke="#000000" points="452,-192.5 452,-222.5 750,-222.5 750,-192.5 452,-192.5"/>
<text text-anchor="start" x="459" y="-203.9" font-family="Arial" font-size="14.00" fill="#000000">current_resource    </text>
<text text-anchor="start" x="598.9986" y="-203.9" font-family="Arial" font-size="14.00" fill="#666666">[integer]</text>
<polygon fill="none" stroke="#000000" points="452,-162.5 452,-192.5 750,-192.5 750,-162.5 452,-162.5"/>
<text text-anchor="start" x="459" y="-173.9" font-family="Arial" font-size="14.00" fill="#000000">request_lib    </text>
<text text-anchor="start" x="561.6648" y="-173.9" font-family="Arial" font-size="14.00" fill="#666666">[integer]</text>
<polygon fill="none" stroke="#000000" points="452,-132.5 452,-162.5 750,-162.5 750,-132.5 452,-132.5"/>
<text text-anchor="start" x="459" y="-143.9" font-family="Arial" font-size="14.00" fill="#000000">pickup_lib    </text>
<text text-anchor="start" x="555.4376" y="-143.9" font-family="Arial" font-size="14.00" fill="#666666">[integer]</text>
<polygon fill="none" stroke="#000000" points="452,-102.5 452,-132.5 750,-132.5 750,-102.5 452,-102.5"/>
<text text-anchor="start" x="459" y="-113.9" font-family="Arial" font-size="14.00" fill="#000000">capture_staff    </text>
<text text-anchor="start" x="574.1234" y="-113.9" font-family="Arial" font-size="14.00" fill="#666666">[integer]</text>
<polygon fill="none" stroke="#000000" points="452,-72.5 452,-102.5 750,-102.5 750,-72.5 452,-72.5"/>
<text text-anchor="start" x="459" y="-83.9" font-family="Arial" font-size="14.00" fill="#000000">email_notify    </text>
<text text-anchor="start" x="567.8794" y="-83.9" font-family="Arial" font-size="14.00" fill="#666666">[boolean]</text>
<polygon fill="none" stroke="#000000" points="452,-42.5 452,-72.5 750,-72.5 750,-42.5 452,-42.5"/>
<text text-anchor="start" x="459" y="-53.9" font-family="Arial" font-size="14.00" fill="#000000">note    </text>
<text text-anchor="start" x="520.4432" y="-53.9" font-family="Arial" font-size="14.00" fill="#666666">[text]</text>
</g>
<!-- booking.reservation_attr_value_map&#45;&gt;booking.reservation -->
<g id="edge1" class="edge">
<title>booking.reservation_attr_value_map:reservation&#45;&gt;booking.reservation:id</title>
<path fill="none" stroke="#000000" d="M592.7643,-965.8963C565.8742,-956.2642 580.5954,-905.5536 603,-877 644.5224,-824.0818 708.4776,-893.9182 750,-841 775.6525,-808.3073 791.5556,-747.5 750,-747.5"/>
<polygon fill="#000000" stroke="#000000" points="593.1205,-965.952 602.3034,-971.9458 598.0603,-966.726 603,-967.5 603,-967.5 603,-967.5 598.0603,-966.726 603.6966,-963.0542 593.1205,-965.952 593.1205,-965.952"/>
<text text-anchor="start" x="7.2615" y="-977.5" font-family="Arial" font-size="10.00" fill="#000000">FOREIGN KEY (reservation) REFERENCES booking.reservation(id) ON DELETE CASCADE DEFERRABLE INITIALLY DEFERRED</text>
</g>
<!-- booking.resource_attr_value -->
<g id="node3" class="node">
<title>booking.resource_attr_value</title>
<polygon fill="#efefef" stroke="transparent" points="854,-462.5 854,-497.5 1222,-497.5 1222,-462.5 854,-462.5"/>
<polygon fill="none" stroke="#000000" points="854,-462.5 854,-497.5 1222,-497.5 1222,-462.5 854,-462.5"/>
<text text-anchor="start" x="860.6837" y="-475.3" font-family="Arial Bold" font-size="18.00" fill="#000000">booking.resource_attr_value</text>
<text text-anchor="start" x="1087.7483" y="-475.3" font-family="Arial" font-size="14.00" fill="#000000">    </text>
<text text-anchor="start" x="1121.9531" y="-475.3" font-family="Arial" font-size="14.00" fill="#666666">[BASE TABLE]</text>
<polygon fill="none" stroke="#000000" points="854,-432.5 854,-462.5 1222,-462.5 1222,-432.5 854,-432.5"/>
<text text-anchor="start" x="861" y="-443.9" font-family="Arial" font-size="14.00" fill="#000000">id    </text>
<text text-anchor="start" x="906.094" y="-443.9" font-family="Arial" font-size="14.00" fill="#666666">[integer]</text>
<polygon fill="none" stroke="#000000" points="854,-402.5 854,-432.5 1222,-432.5 1222,-402.5 854,-402.5"/>
<text text-anchor="start" x="861" y="-413.9" font-family="Arial" font-size="14.00" fill="#000000">owner    </text>
<text text-anchor="start" x="933.3198" y="-413.9" font-family="Arial" font-size="14.00" fill="#666666">[integer]</text>
<polygon fill="none" stroke="#000000" points="854,-372.5 854,-402.5 1222,-402.5 1222,-372.5 854,-372.5"/>
<text text-anchor="start" x="861" y="-383.9" font-family="Arial" font-size="14.00" fill="#000000">attr    </text>
<text text-anchor="start" x="915.4292" y="-383.9" font-family="Arial" font-size="14.00" fill="#666666">[integer]</text>
<polygon fill="none" stroke="#000000" points="854,-342.5 854,-372.5 1222,-372.5 1222,-342.5 854,-342.5"/>
<text text-anchor="start" x="861" y="-353.9" font-family="Arial" font-size="14.00" fill="#000000">valid_value    </text>
<text text-anchor="start" x="965.2202" y="-353.9" font-family="Arial" font-size="14.00" fill="#666666">[text]</text>
</g>
<!-- booking.reservation_attr_value_map&#45;&gt;booking.resource_attr_value -->
<g id="edge2" class="edge">
<title>booking.reservation_attr_value_map:attr_value&#45;&gt;booking.resource_attr_value:id</title>
<path fill="none" stroke="#000000" d="M1045.2465,-937.1449C1247.2084,-922.3071 625.4671,-447.5 854,-447.5"/>
<polygon fill="#000000" stroke="#000000" points="1044.994,-937.1535 1034.8441,-933.0027 1039.997,-937.3268 1035,-937.5 1035,-937.5 1035,-937.5 1039.997,-937.3268 1035.1559,-941.9973 1044.994,-937.1535 1044.994,-937.1535"/>
<text text-anchor="start" x="1041.585" y="-947.5" font-family="Arial" font-size="10.00" fill="#000000">FOREIGN KEY (attr_value) REFERENCES booking.resource_attr_value(id) ON DELETE CASCADE DEFERRABLE INITIALLY DEFERRED</text>
</g>
</g>
</svg>
