<?xml version="1.0" encoding="UTF-8" standalone="no"?>
<!DOCTYPE svg PUBLIC "-//W3C//DTD SVG 1.1//EN"
 "http://www.w3.org/Graphics/SVG/1.1/DTD/svg11.dtd">
<!-- Generated by graphviz version 2.40.1 (20161225.0304)
 -->
<!-- Title: booking.resource_attr_map Pages: 1 -->
<svg width="1496pt" height="652pt"
 viewBox="0.00 0.00 1496.00 652.00" xmlns="http://www.w3.org/2000/svg" xmlns:xlink="http://www.w3.org/1999/xlink">
<g id="graph0" class="graph" transform="scale(1 1) rotate(0) translate(4 648)">
<title>booking.resource_attr_map</title>
<polygon fill="#ffffff" stroke="transparent" points="-4,4 -4,-648 1492,-648 1492,4 -4,4"/>
<!-- booking.resource_attr_map -->
<g id="node1" class="node">
<title>booking.resource_attr_map</title>
<polygon fill="#efefef" stroke="transparent" points="622,-562.5 622,-597.5 982,-597.5 982,-562.5 622,-562.5"/>
<polygon fill="none" stroke="#000000" points="622,-562.5 622,-597.5 982,-597.5 982,-562.5 622,-562.5"/>
<text text-anchor="start" x="628.6878" y="-575.3" font-family="Arial Bold" font-size="18.00" fill="#000000">booking.resource_attr_map</text>
<text text-anchor="start" x="847.7442" y="-575.3" font-family="Arial" font-size="14.00" fill="#000000">    </text>
<text text-anchor="start" x="881.949" y="-575.3" font-family="Arial" font-size="14.00" fill="#666666">[BASE TABLE]</text>
<polygon fill="none" stroke="#000000" points="622,-532.5 622,-562.5 982,-562.5 982,-532.5 622,-532.5"/>
<text text-anchor="start" x="629" y="-543.9" font-family="Arial" font-size="14.00" fill="#000000">id </text>
<text text-anchor="start" x="643.7798" y="-543.9" font-family="Arial" font-size="14.00" fill="#666666">[integer]</text>
<polygon fill="none" stroke="#000000" points="622,-502.5 622,-532.5 982,-532.5 982,-502.5 622,-502.5"/>
<text text-anchor="start" x="629" y="-513.9" font-family="Arial" font-size="14.00" fill="#000000">resource </text>
<text text-anchor="start" x="687.3422" y="-513.9" font-family="Arial" font-size="14.00" fill="#666666">[integer]</text>
<polygon fill="none" stroke="#000000" points="622,-472.5 622,-502.5 982,-502.5 982,-472.5 622,-472.5"/>
<text text-anchor="start" x="629" y="-483.9" font-family="Arial" font-size="14.00" fill="#000000">resource_attr </text>
<text text-anchor="start" x="715.3492" y="-483.9" font-family="Arial" font-size="14.00" fill="#666666">[integer]</text>
<polygon fill="none" stroke="#000000" points="622,-442.5 622,-472.5 982,-472.5 982,-442.5 622,-442.5"/>
<text text-anchor="start" x="629" y="-453.9" font-family="Arial" font-size="14.00" fill="#000000">value </text>
<text text-anchor="start" x="666.345" y="-453.9" font-family="Arial" font-size="14.00" fill="#666666">[integer]</text>
<polygon fill="none" stroke="#000000" stroke-width="3" points="620.5,-441.5 620.5,-599.5 983.5,-599.5 983.5,-441.5 620.5,-441.5"/>
</g>
<!-- booking.resource -->
<g id="node2" class="node">
<title>booking.resource</title>
<polygon fill="#efefef" stroke="transparent" points="261,-282.5 261,-317.5 540,-317.5 540,-282.5 261,-282.5"/>
<polygon fill="none" stroke="#000000" points="261,-282.5 261,-317.5 540,-317.5 540,-282.5 261,-282.5"/>
<text text-anchor="start" x="267.6977" y="-295.3" font-family="Arial Bold" font-size="18.00" fill="#000000">booking.resource</text>
<text text-anchor="start" x="405.7343" y="-295.3" font-family="Arial" font-size="14.00" fill="#000000">    </text>
<text text-anchor="start" x="439.9391" y="-295.3" font-family="Arial" font-size="14.00" fill="#666666">[BASE TABLE]</text>
<polygon fill="none" stroke="#000000" points="261,-252.5 261,-282.5 540,-282.5 540,-252.5 261,-252.5"/>
<text text-anchor="start" x="268" y="-263.9" font-family="Arial" font-size="14.00" fill="#000000">id    </text>
<text text-anchor="start" x="313.094" y="-263.9" font-family="Arial" font-size="14.00" fill="#666666">[integer]</text>
<polygon fill="none" stroke="#000000" points="261,-222.5 261,-252.5 540,-252.5 540,-222.5 261,-222.5"/>
<text text-anchor="start" x="268" y="-233.9" font-family="Arial" font-size="14.00" fill="#000000">owner    </text>
<text text-anchor="start" x="340.3198" y="-233.9" font-family="Arial" font-size="14.00" fill="#666666">[integer]</text>
<polygon fill="none" stroke="#000000" points="261,-192.5 261,-222.5 540,-222.5 540,-192.5 261,-192.5"/>
<text text-anchor="start" x="268" y="-203.9" font-family="Arial" font-size="14.00" fill="#000000">type    </text>
<text text-anchor="start" x="328.6606" y="-203.9" font-family="Arial" font-size="14.00" fill="#666666">[integer]</text>
<polygon fill="none" stroke="#000000" points="261,-162.5 261,-192.5 540,-192.5 540,-162.5 261,-162.5"/>
<text text-anchor="start" x="268" y="-173.9" font-family="Arial" font-size="14.00" fill="#000000">overbook    </text>
<text text-anchor="start" x="359.7784" y="-173.9" font-family="Arial" font-size="14.00" fill="#666666">[boolean]</text>
<polygon fill="none" stroke="#000000" points="261,-132.5 261,-162.5 540,-162.5 540,-132.5 261,-132.5"/>
<text text-anchor="start" x="268" y="-143.9" font-family="Arial" font-size="14.00" fill="#000000">barcode    </text>
<text text-anchor="start" x="352.7784" y="-143.9" font-family="Arial" font-size="14.00" fill="#666666">[text]</text>
<polygon fill="none" stroke="#000000" points="261,-102.5 261,-132.5 540,-132.5 540,-102.5 261,-102.5"/>
<text text-anchor="start" x="268" y="-113.9" font-family="Arial" font-size="14.00" fill="#000000">deposit    </text>
<text text-anchor="start" x="347.3324" y="-113.9" font-family="Arial" font-size="14.00" fill="#666666">[boolean]</text>
<polygon fill="none" stroke="#000000" points="261,-72.5 261,-102.5 540,-102.5 540,-72.5 261,-72.5"/>
<text text-anchor="start" x="268" y="-83.9" font-family="Arial" font-size="14.00" fill="#000000">deposit_amount    </text>
<text text-anchor="start" x="401.7966" y="-83.9" font-family="Arial" font-size="14.00" fill="#666666">[numeric(8,2)]</text>
<polygon fill="none" stroke="#000000" points="261,-42.5 261,-72.5 540,-72.5 540,-42.5 261,-42.5"/>
<text text-anchor="start" x="268" y="-53.9" font-family="Arial" font-size="14.00" fill="#000000">user_fee    </text>
<text text-anchor="start" x="356.669" y="-53.9" font-family="Arial" font-size="14.00" fill="#666666">[numeric(8,2)]</text>
</g>
<!-- booking.resource_attr_map&#45;&gt;booking.resource -->
<g id="edge1" class="edge">
<title>booking.resource_attr_map:resource&#45;&gt;booking.resource:id</title>
<path fill="none" stroke="#000000" d="M611.8084,-516.7828C514.2941,-502.1191 653.2811,-267.5 540,-267.5"/>
<polygon fill="#000000" stroke="#000000" points="612.0247,-516.798 621.6841,-521.9889 617.0123,-517.149 622,-517.5 622,-517.5 622,-517.5 617.0123,-517.149 622.3159,-513.0111 612.0247,-516.798 612.0247,-516.798"/>
<text text-anchor="start" x="46.8185" y="-527.5" font-family="Arial" font-size="10.00" fill="#000000">FOREIGN KEY (resource) REFERENCES booking.resource(id) ON DELETE CASCADE DEFERRABLE INITIALLY DEFERRED</text>
</g>
<!-- booking.resource_attr -->
<g id="node3" class="node">
<title>booking.resource_attr</title>
<polygon fill="#efefef" stroke="transparent" points="644,-237.5 644,-272.5 959,-272.5 959,-237.5 644,-237.5"/>
<polygon fill="none" stroke="#000000" points="644,-237.5 644,-272.5 959,-272.5 959,-237.5 644,-237.5"/>
<text text-anchor="start" x="650.6932" y="-250.3" font-family="Arial Bold" font-size="18.00" fill="#000000">booking.resource_attr</text>
<text text-anchor="start" x="824.7388" y="-250.3" font-family="Arial" font-size="14.00" fill="#000000">    </text>
<text text-anchor="start" x="858.9436" y="-250.3" font-family="Arial" font-size="14.00" fill="#666666">[BASE TABLE]</text>
<polygon fill="none" stroke="#000000" points="644,-207.5 644,-237.5 959,-237.5 959,-207.5 644,-207.5"/>
<text text-anchor="start" x="651" y="-218.9" font-family="Arial" font-size="14.00" fill="#000000">id    </text>
<text text-anchor="start" x="696.094" y="-218.9" font-family="Arial" font-size="14.00" fill="#666666">[integer]</text>
<polygon fill="none" stroke="#000000" points="644,-177.5 644,-207.5 959,-207.5 959,-177.5 644,-177.5"/>
<text text-anchor="start" x="651" y="-188.9" font-family="Arial" font-size="14.00" fill="#000000">owner    </text>
<text text-anchor="start" x="723.3198" y="-188.9" font-family="Arial" font-size="14.00" fill="#666666">[integer]</text>
<polygon fill="none" stroke="#000000" points="644,-147.5 644,-177.5 959,-177.5 959,-147.5 644,-147.5"/>
<text text-anchor="start" x="651" y="-158.9" font-family="Arial" font-size="14.00" fill="#000000">name    </text>
<text text-anchor="start" x="720.2132" y="-158.9" font-family="Arial" font-size="14.00" fill="#666666">[text]</text>
<polygon fill="none" stroke="#000000" points="644,-117.5 644,-147.5 959,-147.5 959,-117.5 644,-117.5"/>
<text text-anchor="start" x="651" y="-128.9" font-family="Arial" font-size="14.00" fill="#000000">resource_type    </text>
<text text-anchor="start" x="773.8948" y="-128.9" font-family="Arial" font-size="14.00" fill="#666666">[integer]</text>
<polygon fill="none" stroke="#000000" points="644,-87.5 644,-117.5 959,-117.5 959,-87.5 644,-87.5"/>
<text text-anchor="start" x="651" y="-98.9" font-family="Arial" font-size="14.00" fill="#000000">required    </text>
<text text-anchor="start" x="736.5456" y="-98.9" font-family="Arial" font-size="14.00" fill="#666666">[boolean]</text>
</g>
<!-- booking.resource_attr_map&#45;&gt;booking.resource_attr -->
<g id="edge2" class="edge">
<title>booking.resource_attr_map:resource_attr&#45;&gt;booking.resource_attr:id</title>
<path fill="none" stroke="#000000" d="M611.7625,-485.8949C584.8622,-476.2548 599.5342,-425.5055 622,-397 717.3515,-276.0146 863.6485,-436.9854 959,-316 984.7225,-283.3623 1000.5556,-222.5 959,-222.5"/>
<polygon fill="#000000" stroke="#000000" points="612.1207,-485.951 621.3029,-491.9457 617.0603,-486.7255 622,-487.5 622,-487.5 622,-487.5 617.0603,-486.7255 622.6971,-483.0543 612.1207,-485.951 612.1207,-485.951"/>
<text text-anchor="start" x="6.8135" y="-497.5" font-family="Arial" font-size="10.00" fill="#000000">FOREIGN KEY (resource_attr) REFERENCES booking.resource_attr(id) ON DELETE CASCADE DEFERRABLE INITIALLY DEFERRED</text>
</g>
<!-- booking.resource_attr_value -->
<g id="node4" class="node">
<title>booking.resource_attr_value</title>
<polygon fill="#efefef" stroke="transparent" points="1063,-222.5 1063,-257.5 1431,-257.5 1431,-222.5 1063,-222.5"/>
<polygon fill="none" stroke="#000000" points="1063,-222.5 1063,-257.5 1431,-257.5 1431,-222.5 1063,-222.5"/>
<text text-anchor="start" x="1069.6837" y="-235.3" font-family="Arial Bold" font-size="18.00" fill="#000000">booking.resource_attr_value</text>
<text text-anchor="start" x="1296.7483" y="-235.3" font-family="Arial" font-size="14.00" fill="#000000">    </text>
<text text-anchor="start" x="1330.9531" y="-235.3" font-family="Arial" font-size="14.00" fill="#666666">[BASE TABLE]</text>
<polygon fill="none" stroke="#000000" points="1063,-192.5 1063,-222.5 1431,-222.5 1431,-192.5 1063,-192.5"/>
<text text-anchor="start" x="1070" y="-203.9" font-family="Arial" font-size="14.00" fill="#000000">id    </text>
<text text-anchor="start" x="1115.094" y="-203.9" font-family="Arial" font-size="14.00" fill="#666666">[integer]</text>
<polygon fill="none" stroke="#000000" points="1063,-162.5 1063,-192.5 1431,-192.5 1431,-162.5 1063,-162.5"/>
<text text-anchor="start" x="1070" y="-173.9" font-family="Arial" font-size="14.00" fill="#000000">owner    </text>
<text text-anchor="start" x="1142.3198" y="-173.9" font-family="Arial" font-size="14.00" fill="#666666">[integer]</text>
<polygon fill="none" stroke="#000000" points="1063,-132.5 1063,-162.5 1431,-162.5 1431,-132.5 1063,-132.5"/>
<text text-anchor="start" x="1070" y="-143.9" font-family="Arial" font-size="14.00" fill="#000000">attr    </text>
<text text-anchor="start" x="1124.4292" y="-143.9" font-family="Arial" font-size="14.00" fill="#666666">[integer]</text>
<polygon fill="none" stroke="#000000" points="1063,-102.5 1063,-132.5 1431,-132.5 1431,-102.5 1063,-102.5"/>
<text text-anchor="start" x="1070" y="-113.9" font-family="Arial" font-size="14.00" fill="#000000">valid_value    </text>
<text text-anchor="start" x="1174.2202" y="-113.9" font-family="Arial" font-size="14.00" fill="#666666">[text]</text>
</g>
<!-- booking.resource_attr_map&#45;&gt;booking.resource_attr_value -->
<g id="edge3" class="edge">
<title>booking.resource_attr_map:value&#45;&gt;booking.resource_attr_value:id</title>
<path fill="none" stroke="#000000" d="M992.177,-456.7828C1089.5235,-442.1191 949.8523,-207.5 1063,-207.5"/>
<polygon fill="#000000" stroke="#000000" points="991.9753,-456.797 981.6836,-453.0111 986.9876,-457.1485 982,-457.5 982,-457.5 982,-457.5 986.9876,-457.1485 982.3164,-461.9889 991.9753,-456.797 991.9753,-456.797"/>
<text text-anchor="start" x="988.8685" y="-467.5" font-family="Arial" font-size="10.00" fill="#000000">FOREIGN KEY (value) REFERENCES booking.resource_attr_value(id) DEFERRABLE INITIALLY DEFERRED</text>
</g>
</g>
</svg>
