<?xml version="1.0" encoding="UTF-8" standalone="no"?>
<!DOCTYPE svg PUBLIC "-//W3C//DTD SVG 1.1//EN"
 "http://www.w3.org/Graphics/SVG/1.1/DTD/svg11.dtd">
<!-- Generated by graphviz version 2.40.1 (20161225.0304)
 -->
<!-- Title: booking.resource_attr Pages: 1 -->
<svg width="1472pt" height="1109pt"
 viewBox="0.00 0.00 1472.00 1109.00" xmlns="http://www.w3.org/2000/svg" xmlns:xlink="http://www.w3.org/1999/xlink">
<g id="graph0" class="graph" transform="scale(1 1) rotate(0) translate(4 1105)">
<title>booking.resource_attr</title>
<polygon fill="#ffffff" stroke="transparent" points="-4,4 -4,-1105 1468,-1105 1468,4 -4,4"/>
<!-- booking.resource_attr -->
<g id="node1" class="node">
<title>booking.resource_attr</title>
<polygon fill="#efefef" stroke="transparent" points="518,-742.5 518,-777.5 833,-777.5 833,-742.5 518,-742.5"/>
<polygon fill="none" stroke="#000000" points="518,-742.5 518,-777.5 833,-777.5 833,-742.5 518,-742.5"/>
<text text-anchor="start" x="524.6932" y="-755.3" font-family="Arial Bold" font-size="18.00" fill="#000000">booking.resource_attr</text>
<text text-anchor="start" x="698.7388" y="-755.3" font-family="Arial" font-size="14.00" fill="#000000">    </text>
<text text-anchor="start" x="732.9436" y="-755.3" font-family="Arial" font-size="14.00" fill="#666666">[BASE TABLE]</text>
<polygon fill="none" stroke="#000000" points="518,-712.5 518,-742.5 833,-742.5 833,-712.5 518,-712.5"/>
<text text-anchor="start" x="525" y="-723.9" font-family="Arial" font-size="14.00" fill="#000000">id </text>
<text text-anchor="start" x="539.7798" y="-723.9" font-family="Arial" font-size="14.00" fill="#666666">[integer]</text>
<polygon fill="none" stroke="#000000" points="518,-682.5 518,-712.5 833,-712.5 833,-682.5 518,-682.5"/>
<text text-anchor="start" x="525" y="-693.9" font-family="Arial" font-size="14.00" fill="#000000">owner </text>
<text text-anchor="start" x="567.0056" y="-693.9" font-family="Arial" font-size="14.00" fill="#666666">[integer]</text>
<polygon fill="none" stroke="#000000" points="518,-652.5 518,-682.5 833,-682.5 833,-652.5 518,-652.5"/>
<text text-anchor="start" x="525" y="-663.9" font-family="Arial" font-size="14.00" fill="#000000">name </text>
<text text-anchor="start" x="563.899" y="-663.9" font-family="Arial" font-size="14.00" fill="#666666">[text]</text>
<polygon fill="none" stroke="#000000" points="518,-622.5 518,-652.5 833,-652.5 833,-622.5 518,-622.5"/>
<text text-anchor="start" x="525" y="-633.9" font-family="Arial" font-size="14.00" fill="#000000">resource_type </text>
<text text-anchor="start" x="617.5806" y="-633.9" font-family="Arial" font-size="14.00" fill="#666666">[integer]</text>
<polygon fill="none" stroke="#000000" points="518,-592.5 518,-622.5 833,-622.5 833,-592.5 518,-592.5"/>
<text text-anchor="start" x="525" y="-603.9" font-family="Arial" font-size="14.00" fill="#000000">required </text>
<text text-anchor="start" x="580.2314" y="-603.9" font-family="Arial" font-size="14.00" fill="#666666">[boolean]</text>
<polygon fill="none" stroke="#000000" stroke-width="3" points="516,-591.5 516,-779.5 834,-779.5 834,-591.5 516,-591.5"/>
</g>
<!-- actor.org_unit -->
<g id="node4" class="node">
<title>actor.org_unit</title>
<polygon fill="#efefef" stroke="transparent" points="355,-432.5 355,-467.5 606,-467.5 606,-432.5 355,-432.5"/>
<polygon fill="none" stroke="#000000" points="355,-432.5 355,-467.5 606,-467.5 606,-432.5 355,-432.5"/>
<text text-anchor="start" x="361.7017" y="-445.3" font-family="Arial Bold" font-size="18.00" fill="#000000">actor.org_unit</text>
<text text-anchor="start" x="471.7303" y="-445.3" font-family="Arial" font-size="14.00" fill="#000000">    </text>
<text text-anchor="start" x="505.9351" y="-445.3" font-family="Arial" font-size="14.00" fill="#666666">[BASE TABLE]</text>
<polygon fill="none" stroke="#000000" points="355,-402.5 355,-432.5 606,-432.5 606,-402.5 355,-402.5"/>
<text text-anchor="start" x="362" y="-413.9" font-family="Arial" font-size="14.00" fill="#000000">id    </text>
<text text-anchor="start" x="407.094" y="-413.9" font-family="Arial" font-size="14.00" fill="#666666">[integer]</text>
<polygon fill="none" stroke="#000000" points="355,-372.5 355,-402.5 606,-402.5 606,-372.5 355,-372.5"/>
<text text-anchor="start" x="362" y="-383.9" font-family="Arial" font-size="14.00" fill="#000000">parent_ou    </text>
<text text-anchor="start" x="459.2342" y="-383.9" font-family="Arial" font-size="14.00" fill="#666666">[integer]</text>
<polygon fill="none" stroke="#000000" points="355,-342.5 355,-372.5 606,-372.5 606,-342.5 355,-342.5"/>
<text text-anchor="start" x="362" y="-353.9" font-family="Arial" font-size="14.00" fill="#000000">ou_type    </text>
<text text-anchor="start" x="446.0084" y="-353.9" font-family="Arial" font-size="14.00" fill="#666666">[integer]</text>
<polygon fill="none" stroke="#000000" points="355,-312.5 355,-342.5 606,-342.5 606,-312.5 355,-312.5"/>
<text text-anchor="start" x="362" y="-323.9" font-family="Arial" font-size="14.00" fill="#000000">ill_address    </text>
<text text-anchor="start" x="463.0982" y="-323.9" font-family="Arial" font-size="14.00" fill="#666666">[integer]</text>
<polygon fill="none" stroke="#000000" points="355,-282.5 355,-312.5 606,-312.5 606,-282.5 355,-282.5"/>
<text text-anchor="start" x="362" y="-293.9" font-family="Arial" font-size="14.00" fill="#000000">holds_address    </text>
<text text-anchor="start" x="487.2328" y="-293.9" font-family="Arial" font-size="14.00" fill="#666666">[integer]</text>
<polygon fill="none" stroke="#000000" points="355,-252.5 355,-282.5 606,-282.5 606,-252.5 355,-252.5"/>
<text text-anchor="start" x="362" y="-263.9" font-family="Arial" font-size="14.00" fill="#000000">mailing_address    </text>
<text text-anchor="start" x="498.1066" y="-263.9" font-family="Arial" font-size="14.00" fill="#666666">[integer]</text>
<polygon fill="none" stroke="#000000" points="355,-222.5 355,-252.5 606,-252.5 606,-222.5 355,-222.5"/>
<text text-anchor="start" x="362" y="-233.9" font-family="Arial" font-size="14.00" fill="#000000">billing_address    </text>
<text text-anchor="start" x="489.5526" y="-233.9" font-family="Arial" font-size="14.00" fill="#666666">[integer]</text>
<polygon fill="none" stroke="#000000" points="355,-192.5 355,-222.5 606,-222.5 606,-192.5 355,-192.5"/>
<text text-anchor="start" x="362" y="-203.9" font-family="Arial" font-size="14.00" fill="#000000">shortname    </text>
<text text-anchor="start" x="462.3296" y="-203.9" font-family="Arial" font-size="14.00" fill="#666666">[text]</text>
<polygon fill="none" stroke="#000000" points="355,-162.5 355,-192.5 606,-192.5 606,-162.5 355,-162.5"/>
<text text-anchor="start" x="362" y="-173.9" font-family="Arial" font-size="14.00" fill="#000000">name    </text>
<text text-anchor="start" x="431.2132" y="-173.9" font-family="Arial" font-size="14.00" fill="#666666">[text]</text>
<polygon fill="none" stroke="#000000" points="355,-132.5 355,-162.5 606,-162.5 606,-132.5 355,-132.5"/>
<text text-anchor="start" x="362" y="-143.9" font-family="Arial" font-size="14.00" fill="#000000">email    </text>
<text text-anchor="start" x="429.6438" y="-143.9" font-family="Arial" font-size="14.00" fill="#666666">[text]</text>
<polygon fill="none" stroke="#000000" points="355,-102.5 355,-132.5 606,-132.5 606,-102.5 355,-102.5"/>
<text text-anchor="start" x="362" y="-113.9" font-family="Arial" font-size="14.00" fill="#000000">phone    </text>
<text text-anchor="start" x="435.1178" y="-113.9" font-family="Arial" font-size="14.00" fill="#666666">[text]</text>
<polygon fill="none" stroke="#000000" points="355,-72.5 355,-102.5 606,-102.5 606,-72.5 355,-72.5"/>
<text text-anchor="start" x="362" y="-83.9" font-family="Arial" font-size="14.00" fill="#000000">opac_visible    </text>
<text text-anchor="start" x="473.2202" y="-83.9" font-family="Arial" font-size="14.00" fill="#666666">[boolean]</text>
<polygon fill="none" stroke="#000000" points="355,-42.5 355,-72.5 606,-72.5 606,-42.5 355,-42.5"/>
<text text-anchor="start" x="362" y="-53.9" font-family="Arial" font-size="14.00" fill="#000000">fiscal_calendar    </text>
<text text-anchor="start" x="489.554" y="-53.9" font-family="Arial" font-size="14.00" fill="#666666">[integer]</text>
</g>
<!-- booking.resource_attr&#45;&gt;actor.org_unit -->
<g id="edge3" class="edge">
<title>booking.resource_attr:owner&#45;&gt;actor.org_unit:id</title>
<path fill="none" stroke="#000000" d="M507.8773,-696.6699C454.3722,-687.2311 482.7557,-599.4975 518,-547 541.5538,-511.9158 582.4462,-546.0842 606,-511 629.1626,-476.4985 647.5556,-417.5 606,-417.5"/>
<polygon fill="#000000" stroke="#000000" points="508.0335,-696.6827 517.6322,-701.9849 513.0167,-697.0913 518,-697.5 518,-697.5 518,-697.5 513.0167,-697.0913 518.3678,-693.0151 508.0335,-696.6827 508.0335,-696.6827"/>
<text text-anchor="start" x="80.714" y="-707.5" font-family="Arial" font-size="10.00" fill="#000000">FOREIGN KEY (owner) REFERENCES actor.org_unit(id) DEFERRABLE INITIALLY DEFERRED</text>
</g>
<!-- booking.resource_type -->
<g id="node5" class="node">
<title>booking.resource_type</title>
<polygon fill="#efefef" stroke="transparent" points="710,-387.5 710,-422.5 1033,-422.5 1033,-387.5 710,-387.5"/>
<polygon fill="none" stroke="#000000" points="710,-387.5 710,-422.5 1033,-422.5 1033,-387.5 710,-387.5"/>
<text text-anchor="start" x="716.6873" y="-400.3" font-family="Arial Bold" font-size="18.00" fill="#000000">booking.resource_type</text>
<text text-anchor="start" x="898.7447" y="-400.3" font-family="Arial" font-size="14.00" fill="#000000">    </text>
<text text-anchor="start" x="932.9495" y="-400.3" font-family="Arial" font-size="14.00" fill="#666666">[BASE TABLE]</text>
<polygon fill="none" stroke="#000000" points="710,-357.5 710,-387.5 1033,-387.5 1033,-357.5 710,-357.5"/>
<text text-anchor="start" x="717" y="-368.9" font-family="Arial" font-size="14.00" fill="#000000">id    </text>
<text text-anchor="start" x="762.094" y="-368.9" font-family="Arial" font-size="14.00" fill="#666666">[integer]</text>
<polygon fill="none" stroke="#000000" points="710,-327.5 710,-357.5 1033,-357.5 1033,-327.5 710,-327.5"/>
<text text-anchor="start" x="717" y="-338.9" font-family="Arial" font-size="14.00" fill="#000000">name    </text>
<text text-anchor="start" x="786.2132" y="-338.9" font-family="Arial" font-size="14.00" fill="#666666">[text]</text>
<polygon fill="none" stroke="#000000" points="710,-297.5 710,-327.5 1033,-327.5 1033,-297.5 710,-297.5"/>
<text text-anchor="start" x="717" y="-308.9" font-family="Arial" font-size="14.00" fill="#000000">elbow_room    </text>
<text text-anchor="start" x="827.4348" y="-308.9" font-family="Arial" font-size="14.00" fill="#666666">[interval]</text>
<polygon fill="none" stroke="#000000" points="710,-267.5 710,-297.5 1033,-297.5 1033,-267.5 710,-267.5"/>
<text text-anchor="start" x="717" y="-278.9" font-family="Arial" font-size="14.00" fill="#000000">fine_interval    </text>
<text text-anchor="start" x="826.662" y="-278.9" font-family="Arial" font-size="14.00" fill="#666666">[interval]</text>
<polygon fill="none" stroke="#000000" points="710,-237.5 710,-267.5 1033,-267.5 1033,-237.5 710,-237.5"/>
<text text-anchor="start" x="717" y="-248.9" font-family="Arial" font-size="14.00" fill="#000000">fine_amount    </text>
<text text-anchor="start" x="828.2314" y="-248.9" font-family="Arial" font-size="14.00" fill="#666666">[numeric(8,2)]</text>
<polygon fill="none" stroke="#000000" points="710,-207.5 710,-237.5 1033,-237.5 1033,-207.5 710,-207.5"/>
<text text-anchor="start" x="717" y="-218.9" font-family="Arial" font-size="14.00" fill="#000000">max_fine    </text>
<text text-anchor="start" x="807.993" y="-218.9" font-family="Arial" font-size="14.00" fill="#666666">[numeric(8,2)]</text>
<polygon fill="none" stroke="#000000" points="710,-177.5 710,-207.5 1033,-207.5 1033,-177.5 710,-177.5"/>
<text text-anchor="start" x="717" y="-188.9" font-family="Arial" font-size="14.00" fill="#000000">owner    </text>
<text text-anchor="start" x="789.3198" y="-188.9" font-family="Arial" font-size="14.00" fill="#666666">[integer]</text>
<polygon fill="none" stroke="#000000" points="710,-147.5 710,-177.5 1033,-177.5 1033,-147.5 710,-147.5"/>
<text text-anchor="start" x="717" y="-158.9" font-family="Arial" font-size="14.00" fill="#000000">catalog_item    </text>
<text text-anchor="start" x="830.5554" y="-158.9" font-family="Arial" font-size="14.00" fill="#666666">[boolean]</text>
<polygon fill="none" stroke="#000000" points="710,-117.5 710,-147.5 1033,-147.5 1033,-117.5 710,-117.5"/>
<text text-anchor="start" x="717" y="-128.9" font-family="Arial" font-size="14.00" fill="#000000">transferable    </text>
<text text-anchor="start" x="825.1094" y="-128.9" font-family="Arial" font-size="14.00" fill="#666666">[boolean]</text>
<polygon fill="none" stroke="#000000" points="710,-87.5 710,-117.5 1033,-117.5 1033,-87.5 710,-87.5"/>
<text text-anchor="start" x="717" y="-98.9" font-family="Arial" font-size="14.00" fill="#000000">record    </text>
<text text-anchor="start" x="790.8738" y="-98.9" font-family="Arial" font-size="14.00" fill="#666666">[bigint]</text>
</g>
<!-- booking.resource_attr&#45;&gt;booking.resource_type -->
<g id="edge4" class="edge">
<title>booking.resource_attr:resource_type&#45;&gt;booking.resource_type:id</title>
<path fill="none" stroke="#000000" d="M843.0873,-635.9935C869.1124,-626.9278 850.2161,-578.9512 833,-547 801.9513,-489.3769 741.0487,-523.6231 710,-466 690.2883,-429.4171 668.4444,-372.5 710,-372.5"/>
<polygon fill="#000000" stroke="#000000" points="842.8903,-636.0228 832.3353,-633.0494 837.9452,-636.7614 833,-637.5 833,-637.5 833,-637.5 837.9452,-636.7614 833.6647,-641.9506 842.8903,-636.0228 842.8903,-636.0228"/>
<text text-anchor="start" x="840.3625" y="-647.5" font-family="Arial" font-size="10.00" fill="#000000">FOREIGN KEY (resource_type) REFERENCES booking.resource_type(id) ON DELETE CASCADE DEFERRABLE INITIALLY DEFERRED</text>
</g>
<!-- booking.resource_attr_map -->
<g id="node2" class="node">
<title>booking.resource_attr_map</title>
<polygon fill="#efefef" stroke="transparent" points="262,-1022.5 262,-1057.5 622,-1057.5 622,-1022.5 262,-1022.5"/>
<polygon fill="none" stroke="#000000" points="262,-1022.5 262,-1057.5 622,-1057.5 622,-1022.5 262,-1022.5"/>
<text text-anchor="start" x="268.6878" y="-1035.3" font-family="Arial Bold" font-size="18.00" fill="#000000">booking.resource_attr_map</text>
<text text-anchor="start" x="487.7442" y="-1035.3" font-family="Arial" font-size="14.00" fill="#000000">    </text>
<text text-anchor="start" x="521.949" y="-1035.3" font-family="Arial" font-size="14.00" fill="#666666">[BASE TABLE]</text>
<polygon fill="none" stroke="#000000" points="262,-992.5 262,-1022.5 622,-1022.5 622,-992.5 262,-992.5"/>
<text text-anchor="start" x="269" y="-1003.9" font-family="Arial" font-size="14.00" fill="#000000">id    </text>
<text text-anchor="start" x="314.094" y="-1003.9" font-family="Arial" font-size="14.00" fill="#666666">[integer]</text>
<polygon fill="none" stroke="#000000" points="262,-962.5 262,-992.5 622,-992.5 622,-962.5 262,-962.5"/>
<text text-anchor="start" x="269" y="-973.9" font-family="Arial" font-size="14.00" fill="#000000">resource    </text>
<text text-anchor="start" x="357.6564" y="-973.9" font-family="Arial" font-size="14.00" fill="#666666">[integer]</text>
<polygon fill="none" stroke="#000000" points="262,-932.5 262,-962.5 622,-962.5 622,-932.5 262,-932.5"/>
<text text-anchor="start" x="269" y="-943.9" font-family="Arial" font-size="14.00" fill="#000000">resource_attr    </text>
<text text-anchor="start" x="385.6634" y="-943.9" font-family="Arial" font-size="14.00" fill="#666666">[integer]</text>
<polygon fill="none" stroke="#000000" points="262,-902.5 262,-932.5 622,-932.5 622,-902.5 262,-902.5"/>
<text text-anchor="start" x="269" y="-913.9" font-family="Arial" font-size="14.00" fill="#000000">value    </text>
<text text-anchor="start" x="336.6592" y="-913.9" font-family="Arial" font-size="14.00" fill="#666666">[integer]</text>
</g>
<!-- booking.resource_attr_map&#45;&gt;booking.resource_attr -->
<g id="edge1" class="edge">
<title>booking.resource_attr_map:resource_attr&#45;&gt;booking.resource_attr:id</title>
<path fill="none" stroke="#000000" d="M632.1915,-945.8564C657.5073,-936.4103 642.2661,-888.4611 622,-860 593.6285,-820.1559 546.3715,-863.8441 518,-824 493.1228,-789.0632 475.1111,-727.5 518,-727.5"/>
<polygon fill="#000000" stroke="#000000" points="631.8724,-945.9078 621.2835,-943.0574 626.9362,-946.7039 622,-947.5 622,-947.5 622,-947.5 626.9362,-946.7039 622.7165,-951.9426 631.8724,-945.9078 631.8724,-945.9078"/>
<text text-anchor="start" x="6.8135" y="-957.5" font-family="Arial" font-size="10.00" fill="#000000">FOREIGN KEY (resource_attr) REFERENCES booking.resource_attr(id) ON DELETE CASCADE DEFERRABLE INITIALLY DEFERRED</text>
</g>
<!-- booking.resource_attr_value -->
<g id="node3" class="node">
<title>booking.resource_attr_value</title>
<polygon fill="#efefef" stroke="transparent" points="726,-1022.5 726,-1057.5 1094,-1057.5 1094,-1022.5 726,-1022.5"/>
<polygon fill="none" stroke="#000000" points="726,-1022.5 726,-1057.5 1094,-1057.5 1094,-1022.5 726,-1022.5"/>
<text text-anchor="start" x="732.6837" y="-1035.3" font-family="Arial Bold" font-size="18.00" fill="#000000">booking.resource_attr_value</text>
<text text-anchor="start" x="959.7483" y="-1035.3" font-family="Arial" font-size="14.00" fill="#000000">    </text>
<text text-anchor="start" x="993.9531" y="-1035.3" font-family="Arial" font-size="14.00" fill="#666666">[BASE TABLE]</text>
<polygon fill="none" stroke="#000000" points="726,-992.5 726,-1022.5 1094,-1022.5 1094,-992.5 726,-992.5"/>
<text text-anchor="start" x="733" y="-1003.9" font-family="Arial" font-size="14.00" fill="#000000">id    </text>
<text text-anchor="start" x="778.094" y="-1003.9" font-family="Arial" font-size="14.00" fill="#666666">[integer]</text>
<polygon fill="none" stroke="#000000" points="726,-962.5 726,-992.5 1094,-992.5 1094,-962.5 726,-962.5"/>
<text text-anchor="start" x="733" y="-973.9" font-family="Arial" font-size="14.00" fill="#000000">owner    </text>
<text text-anchor="start" x="805.3198" y="-973.9" font-family="Arial" font-size="14.00" fill="#666666">[integer]</text>
<polygon fill="none" stroke="#000000" points="726,-932.5 726,-962.5 1094,-962.5 1094,-932.5 726,-932.5"/>
<text text-anchor="start" x="733" y="-943.9" font-family="Arial" font-size="14.00" fill="#000000">attr    </text>
<text text-anchor="start" x="787.4292" y="-943.9" font-family="Arial" font-size="14.00" fill="#666666">[integer]</text>
<polygon fill="none" stroke="#000000" points="726,-902.5 726,-932.5 1094,-932.5 1094,-902.5 726,-902.5"/>
<text text-anchor="start" x="733" y="-913.9" font-family="Arial" font-size="14.00" fill="#000000">valid_value    </text>
<text text-anchor="start" x="837.2202" y="-913.9" font-family="Arial" font-size="14.00" fill="#666666">[text]</text>
</g>
<!-- booking.resource_attr_value&#45;&gt;booking.resource_attr -->
<g id="edge2" class="edge">
<title>booking.resource_attr_value:attr&#45;&gt;booking.resource_attr:id</title>
<path fill="none" stroke="#000000" d="M715.8047,-945.8537C690.4676,-936.3923 705.6104,-888.3728 726,-860 755.2808,-819.2549 803.7192,-864.7451 833,-824 858.0288,-789.1716 875.8889,-727.5 833,-727.5"/>
<polygon fill="#000000" stroke="#000000" points="716.1279,-945.9058 725.2826,-951.9425 721.0639,-946.7029 726,-947.5 726,-947.5 726,-947.5 721.0639,-946.7029 726.7174,-943.0575 716.1279,-945.9058 716.1279,-945.9058"/>
<text text-anchor="start" x="733.321" y="-957.5" font-family="Arial" font-size="10.00" fill="#000000">FOREIGN KEY (attr) REFERENCES booking.resource_attr(id) DEFERRABLE INITIALLY DEFERRED</text>
</g>
</g>
</svg>
