<?xml version="1.0" encoding="UTF-8" standalone="no"?>
<!DOCTYPE svg PUBLIC "-//W3C//DTD SVG 1.1//EN"
 "http://www.w3.org/Graphics/SVG/1.1/DTD/svg11.dtd">
<!-- Generated by graphviz version 2.40.1 (20161225.0304)
 -->
<!-- Title: booking.resource Pages: 1 -->
<svg width="1691pt" height="1799pt"
 viewBox="0.00 0.00 1691.00 1799.00" xmlns="http://www.w3.org/2000/svg" xmlns:xlink="http://www.w3.org/1999/xlink">
<g id="graph0" class="graph" transform="scale(1 1) rotate(0) translate(4 1795)">
<title>booking.resource</title>
<polygon fill="#ffffff" stroke="transparent" points="-4,4 -4,-1795 1687,-1795 1687,4 -4,4"/>
<!-- booking.resource -->
<g id="node1" class="node">
<title>booking.resource</title>
<polygon fill="#efefef" stroke="transparent" points="708,-832.5 708,-867.5 987,-867.5 987,-832.5 708,-832.5"/>
<polygon fill="none" stroke="#000000" points="708,-832.5 708,-867.5 987,-867.5 987,-832.5 708,-832.5"/>
<text text-anchor="start" x="714.6977" y="-845.3" font-family="Arial Bold" font-size="18.00" fill="#000000">booking.resource</text>
<text text-anchor="start" x="852.7343" y="-845.3" font-family="Arial" font-size="14.00" fill="#000000">    </text>
<text text-anchor="start" x="886.9391" y="-845.3" font-family="Arial" font-size="14.00" fill="#666666">[BASE TABLE]</text>
<polygon fill="none" stroke="#000000" points="708,-802.5 708,-832.5 987,-832.5 987,-802.5 708,-802.5"/>
<text text-anchor="start" x="715" y="-813.9" font-family="Arial" font-size="14.00" fill="#000000">id </text>
<text text-anchor="start" x="729.7798" y="-813.9" font-family="Arial" font-size="14.00" fill="#666666">[integer]</text>
<polygon fill="none" stroke="#000000" points="708,-772.5 708,-802.5 987,-802.5 987,-772.5 708,-772.5"/>
<text text-anchor="start" x="715" y="-783.9" font-family="Arial" font-size="14.00" fill="#000000">owner </text>
<text text-anchor="start" x="757.0056" y="-783.9" font-family="Arial" font-size="14.00" fill="#666666">[integer]</text>
<polygon fill="none" stroke="#000000" points="708,-742.5 708,-772.5 987,-772.5 987,-742.5 708,-742.5"/>
<text text-anchor="start" x="715" y="-753.9" font-family="Arial" font-size="14.00" fill="#000000">type </text>
<text text-anchor="start" x="745.3464" y="-753.9" font-family="Arial" font-size="14.00" fill="#666666">[integer]</text>
<polygon fill="none" stroke="#000000" points="708,-712.5 708,-742.5 987,-742.5 987,-712.5 708,-712.5"/>
<text text-anchor="start" x="715" y="-723.9" font-family="Arial" font-size="14.00" fill="#000000">overbook </text>
<text text-anchor="start" x="776.4642" y="-723.9" font-family="Arial" font-size="14.00" fill="#666666">[boolean]</text>
<polygon fill="none" stroke="#000000" points="708,-682.5 708,-712.5 987,-712.5 987,-682.5 708,-682.5"/>
<text text-anchor="start" x="715" y="-693.9" font-family="Arial" font-size="14.00" fill="#000000">barcode </text>
<text text-anchor="start" x="769.4642" y="-693.9" font-family="Arial" font-size="14.00" fill="#666666">[text]</text>
<polygon fill="none" stroke="#000000" points="708,-652.5 708,-682.5 987,-682.5 987,-652.5 708,-652.5"/>
<text text-anchor="start" x="715" y="-663.9" font-family="Arial" font-size="14.00" fill="#000000">deposit </text>
<text text-anchor="start" x="764.0182" y="-663.9" font-family="Arial" font-size="14.00" fill="#666666">[boolean]</text>
<polygon fill="none" stroke="#000000" points="708,-622.5 708,-652.5 987,-652.5 987,-622.5 708,-622.5"/>
<text text-anchor="start" x="715" y="-633.9" font-family="Arial" font-size="14.00" fill="#000000">deposit_amount </text>
<text text-anchor="start" x="818.4824" y="-633.9" font-family="Arial" font-size="14.00" fill="#666666">[numeric(8,2)]</text>
<polygon fill="none" stroke="#000000" points="708,-592.5 708,-622.5 987,-622.5 987,-592.5 708,-592.5"/>
<text text-anchor="start" x="715" y="-603.9" font-family="Arial" font-size="14.00" fill="#000000">user_fee </text>
<text text-anchor="start" x="773.3548" y="-603.9" font-family="Arial" font-size="14.00" fill="#666666">[numeric(8,2)]</text>
<polygon fill="none" stroke="#000000" stroke-width="3" points="706,-591.5 706,-869.5 988,-869.5 988,-591.5 706,-591.5"/>
</g>
<!-- actor.org_unit -->
<g id="node5" class="node">
<title>actor.org_unit</title>
<polygon fill="#efefef" stroke="transparent" points="527,-432.5 527,-467.5 778,-467.5 778,-432.5 527,-432.5"/>
<polygon fill="none" stroke="#000000" points="527,-432.5 527,-467.5 778,-467.5 778,-432.5 527,-432.5"/>
<text text-anchor="start" x="533.7017" y="-445.3" font-family="Arial Bold" font-size="18.00" fill="#000000">actor.org_unit</text>
<text text-anchor="start" x="643.7303" y="-445.3" font-family="Arial" font-size="14.00" fill="#000000">    </text>
<text text-anchor="start" x="677.9351" y="-445.3" font-family="Arial" font-size="14.00" fill="#666666">[BASE TABLE]</text>
<polygon fill="none" stroke="#000000" points="527,-402.5 527,-432.5 778,-432.5 778,-402.5 527,-402.5"/>
<text text-anchor="start" x="534" y="-413.9" font-family="Arial" font-size="14.00" fill="#000000">id    </text>
<text text-anchor="start" x="579.094" y="-413.9" font-family="Arial" font-size="14.00" fill="#666666">[integer]</text>
<polygon fill="none" stroke="#000000" points="527,-372.5 527,-402.5 778,-402.5 778,-372.5 527,-372.5"/>
<text text-anchor="start" x="534" y="-383.9" font-family="Arial" font-size="14.00" fill="#000000">parent_ou    </text>
<text text-anchor="start" x="631.2342" y="-383.9" font-family="Arial" font-size="14.00" fill="#666666">[integer]</text>
<polygon fill="none" stroke="#000000" points="527,-342.5 527,-372.5 778,-372.5 778,-342.5 527,-342.5"/>
<text text-anchor="start" x="534" y="-353.9" font-family="Arial" font-size="14.00" fill="#000000">ou_type    </text>
<text text-anchor="start" x="618.0084" y="-353.9" font-family="Arial" font-size="14.00" fill="#666666">[integer]</text>
<polygon fill="none" stroke="#000000" points="527,-312.5 527,-342.5 778,-342.5 778,-312.5 527,-312.5"/>
<text text-anchor="start" x="534" y="-323.9" font-family="Arial" font-size="14.00" fill="#000000">ill_address    </text>
<text text-anchor="start" x="635.0982" y="-323.9" font-family="Arial" font-size="14.00" fill="#666666">[integer]</text>
<polygon fill="none" stroke="#000000" points="527,-282.5 527,-312.5 778,-312.5 778,-282.5 527,-282.5"/>
<text text-anchor="start" x="534" y="-293.9" font-family="Arial" font-size="14.00" fill="#000000">holds_address    </text>
<text text-anchor="start" x="659.2328" y="-293.9" font-family="Arial" font-size="14.00" fill="#666666">[integer]</text>
<polygon fill="none" stroke="#000000" points="527,-252.5 527,-282.5 778,-282.5 778,-252.5 527,-252.5"/>
<text text-anchor="start" x="534" y="-263.9" font-family="Arial" font-size="14.00" fill="#000000">mailing_address    </text>
<text text-anchor="start" x="670.1066" y="-263.9" font-family="Arial" font-size="14.00" fill="#666666">[integer]</text>
<polygon fill="none" stroke="#000000" points="527,-222.5 527,-252.5 778,-252.5 778,-222.5 527,-222.5"/>
<text text-anchor="start" x="534" y="-233.9" font-family="Arial" font-size="14.00" fill="#000000">billing_address    </text>
<text text-anchor="start" x="661.5526" y="-233.9" font-family="Arial" font-size="14.00" fill="#666666">[integer]</text>
<polygon fill="none" stroke="#000000" points="527,-192.5 527,-222.5 778,-222.5 778,-192.5 527,-192.5"/>
<text text-anchor="start" x="534" y="-203.9" font-family="Arial" font-size="14.00" fill="#000000">shortname    </text>
<text text-anchor="start" x="634.3296" y="-203.9" font-family="Arial" font-size="14.00" fill="#666666">[text]</text>
<polygon fill="none" stroke="#000000" points="527,-162.5 527,-192.5 778,-192.5 778,-162.5 527,-162.5"/>
<text text-anchor="start" x="534" y="-173.9" font-family="Arial" font-size="14.00" fill="#000000">name    </text>
<text text-anchor="start" x="603.2132" y="-173.9" font-family="Arial" font-size="14.00" fill="#666666">[text]</text>
<polygon fill="none" stroke="#000000" points="527,-132.5 527,-162.5 778,-162.5 778,-132.5 527,-132.5"/>
<text text-anchor="start" x="534" y="-143.9" font-family="Arial" font-size="14.00" fill="#000000">email    </text>
<text text-anchor="start" x="601.6438" y="-143.9" font-family="Arial" font-size="14.00" fill="#666666">[text]</text>
<polygon fill="none" stroke="#000000" points="527,-102.5 527,-132.5 778,-132.5 778,-102.5 527,-102.5"/>
<text text-anchor="start" x="534" y="-113.9" font-family="Arial" font-size="14.00" fill="#000000">phone    </text>
<text text-anchor="start" x="607.1178" y="-113.9" font-family="Arial" font-size="14.00" fill="#666666">[text]</text>
<polygon fill="none" stroke="#000000" points="527,-72.5 527,-102.5 778,-102.5 778,-72.5 527,-72.5"/>
<text text-anchor="start" x="534" y="-83.9" font-family="Arial" font-size="14.00" fill="#000000">opac_visible    </text>
<text text-anchor="start" x="645.2202" y="-83.9" font-family="Arial" font-size="14.00" fill="#666666">[boolean]</text>
<polygon fill="none" stroke="#000000" points="527,-42.5 527,-72.5 778,-72.5 778,-42.5 527,-42.5"/>
<text text-anchor="start" x="534" y="-53.9" font-family="Arial" font-size="14.00" fill="#000000">fiscal_calendar    </text>
<text text-anchor="start" x="661.554" y="-53.9" font-family="Arial" font-size="14.00" fill="#666666">[integer]</text>
</g>
<!-- booking.resource&#45;&gt;actor.org_unit -->
<g id="edge5" class="edge">
<title>booking.resource:owner&#45;&gt;actor.org_unit:id</title>
<path fill="none" stroke="#000000" d="M697.8701,-787.0139C604.5168,-777.6524 654.1713,-635.2134 708,-547 726.223,-517.1366 759.777,-540.8634 778,-511 799.6459,-475.5272 819.5556,-417.5 778,-417.5"/>
<polygon fill="#000000" stroke="#000000" points="698.0115,-787.0206 707.7843,-791.9948 703.0057,-787.2603 708,-787.5 708,-787.5 708,-787.5 703.0057,-787.2603 708.2157,-783.0052 698.0115,-787.0206 698.0115,-787.0206"/>
<text text-anchor="start" x="270.714" y="-797.5" font-family="Arial" font-size="10.00" fill="#000000">FOREIGN KEY (owner) REFERENCES actor.org_unit(id) DEFERRABLE INITIALLY DEFERRED</text>
</g>
<!-- booking.resource_type -->
<g id="node6" class="node">
<title>booking.resource_type</title>
<polygon fill="#efefef" stroke="transparent" points="882,-387.5 882,-422.5 1205,-422.5 1205,-387.5 882,-387.5"/>
<polygon fill="none" stroke="#000000" points="882,-387.5 882,-422.5 1205,-422.5 1205,-387.5 882,-387.5"/>
<text text-anchor="start" x="888.6873" y="-400.3" font-family="Arial Bold" font-size="18.00" fill="#000000">booking.resource_type</text>
<text text-anchor="start" x="1070.7447" y="-400.3" font-family="Arial" font-size="14.00" fill="#000000">    </text>
<text text-anchor="start" x="1104.9495" y="-400.3" font-family="Arial" font-size="14.00" fill="#666666">[BASE TABLE]</text>
<polygon fill="none" stroke="#000000" points="882,-357.5 882,-387.5 1205,-387.5 1205,-357.5 882,-357.5"/>
<text text-anchor="start" x="889" y="-368.9" font-family="Arial" font-size="14.00" fill="#000000">id    </text>
<text text-anchor="start" x="934.094" y="-368.9" font-family="Arial" font-size="14.00" fill="#666666">[integer]</text>
<polygon fill="none" stroke="#000000" points="882,-327.5 882,-357.5 1205,-357.5 1205,-327.5 882,-327.5"/>
<text text-anchor="start" x="889" y="-338.9" font-family="Arial" font-size="14.00" fill="#000000">name    </text>
<text text-anchor="start" x="958.2132" y="-338.9" font-family="Arial" font-size="14.00" fill="#666666">[text]</text>
<polygon fill="none" stroke="#000000" points="882,-297.5 882,-327.5 1205,-327.5 1205,-297.5 882,-297.5"/>
<text text-anchor="start" x="889" y="-308.9" font-family="Arial" font-size="14.00" fill="#000000">elbow_room    </text>
<text text-anchor="start" x="999.4348" y="-308.9" font-family="Arial" font-size="14.00" fill="#666666">[interval]</text>
<polygon fill="none" stroke="#000000" points="882,-267.5 882,-297.5 1205,-297.5 1205,-267.5 882,-267.5"/>
<text text-anchor="start" x="889" y="-278.9" font-family="Arial" font-size="14.00" fill="#000000">fine_interval    </text>
<text text-anchor="start" x="998.662" y="-278.9" font-family="Arial" font-size="14.00" fill="#666666">[interval]</text>
<polygon fill="none" stroke="#000000" points="882,-237.5 882,-267.5 1205,-267.5 1205,-237.5 882,-237.5"/>
<text text-anchor="start" x="889" y="-248.9" font-family="Arial" font-size="14.00" fill="#000000">fine_amount    </text>
<text text-anchor="start" x="1000.2314" y="-248.9" font-family="Arial" font-size="14.00" fill="#666666">[numeric(8,2)]</text>
<polygon fill="none" stroke="#000000" points="882,-207.5 882,-237.5 1205,-237.5 1205,-207.5 882,-207.5"/>
<text text-anchor="start" x="889" y="-218.9" font-family="Arial" font-size="14.00" fill="#000000">max_fine    </text>
<text text-anchor="start" x="979.993" y="-218.9" font-family="Arial" font-size="14.00" fill="#666666">[numeric(8,2)]</text>
<polygon fill="none" stroke="#000000" points="882,-177.5 882,-207.5 1205,-207.5 1205,-177.5 882,-177.5"/>
<text text-anchor="start" x="889" y="-188.9" font-family="Arial" font-size="14.00" fill="#000000">owner    </text>
<text text-anchor="start" x="961.3198" y="-188.9" font-family="Arial" font-size="14.00" fill="#666666">[integer]</text>
<polygon fill="none" stroke="#000000" points="882,-147.5 882,-177.5 1205,-177.5 1205,-147.5 882,-147.5"/>
<text text-anchor="start" x="889" y="-158.9" font-family="Arial" font-size="14.00" fill="#000000">catalog_item    </text>
<text text-anchor="start" x="1002.5554" y="-158.9" font-family="Arial" font-size="14.00" fill="#666666">[boolean]</text>
<polygon fill="none" stroke="#000000" points="882,-117.5 882,-147.5 1205,-147.5 1205,-117.5 882,-117.5"/>
<text text-anchor="start" x="889" y="-128.9" font-family="Arial" font-size="14.00" fill="#000000">transferable    </text>
<text text-anchor="start" x="997.1094" y="-128.9" font-family="Arial" font-size="14.00" fill="#666666">[boolean]</text>
<polygon fill="none" stroke="#000000" points="882,-87.5 882,-117.5 1205,-117.5 1205,-87.5 882,-87.5"/>
<text text-anchor="start" x="889" y="-98.9" font-family="Arial" font-size="14.00" fill="#000000">record    </text>
<text text-anchor="start" x="962.8738" y="-98.9" font-family="Arial" font-size="14.00" fill="#666666">[bigint]</text>
</g>
<!-- booking.resource&#45;&gt;booking.resource_type -->
<g id="edge6" class="edge">
<title>booking.resource:type&#45;&gt;booking.resource_type:id</title>
<path fill="none" stroke="#000000" d="M997.3053,-756.9308C1076.4876,-747.6791 1026.6583,-627.6809 987,-547 961.0002,-494.1059 907.9998,-518.8941 882,-466 863.6685,-428.7063 840.4444,-372.5 882,-372.5"/>
<polygon fill="#000000" stroke="#000000" points="996.9848,-756.9484 986.7518,-753.0068 991.9924,-757.2242 987,-757.5 987,-757.5 987,-757.5 991.9924,-757.2242 987.2482,-761.9932 996.9848,-756.9484 996.9848,-756.9484"/>
<text text-anchor="start" x="993.87" y="-767.5" font-family="Arial" font-size="10.00" fill="#000000">FOREIGN KEY (type) REFERENCES booking.resource_type(id) DEFERRABLE INITIALLY DEFERRED</text>
</g>
<!-- action.reservation_transit_copy -->
<g id="node2" class="node">
<title>action.reservation_transit_copy</title>
<polygon fill="#efefef" stroke="transparent" points="205,-1532.5 205,-1567.5 595,-1567.5 595,-1532.5 205,-1532.5"/>
<polygon fill="none" stroke="#000000" points="205,-1532.5 205,-1567.5 595,-1567.5 595,-1532.5 205,-1532.5"/>
<text text-anchor="start" x="211.6875" y="-1545.3" font-family="Arial Bold" font-size="18.00" fill="#000000">action.reservation_transit_copy</text>
<text text-anchor="start" x="460.7445" y="-1545.3" font-family="Arial" font-size="14.00" fill="#000000">    </text>
<text text-anchor="start" x="494.9493" y="-1545.3" font-family="Arial" font-size="14.00" fill="#666666">[BASE TABLE]</text>
<polygon fill="none" stroke="#000000" points="205,-1502.5 205,-1532.5 595,-1532.5 595,-1502.5 205,-1502.5"/>
<text text-anchor="start" x="212" y="-1513.9" font-family="Arial" font-size="14.00" fill="#000000">id    </text>
<text text-anchor="start" x="257.094" y="-1513.9" font-family="Arial" font-size="14.00" fill="#666666">[integer]</text>
<polygon fill="none" stroke="#000000" points="205,-1472.5 205,-1502.5 595,-1502.5 595,-1472.5 205,-1472.5"/>
<text text-anchor="start" x="212" y="-1483.9" font-family="Arial" font-size="14.00" fill="#000000">source_send_time    </text>
<text text-anchor="start" x="360.5666" y="-1483.9" font-family="Arial" font-size="14.00" fill="#666666">[timestamp with time zone]</text>
<polygon fill="none" stroke="#000000" points="205,-1442.5 205,-1472.5 595,-1472.5 595,-1442.5 205,-1442.5"/>
<text text-anchor="start" x="212" y="-1453.9" font-family="Arial" font-size="14.00" fill="#000000">dest_recv_time    </text>
<text text-anchor="start" x="341.1094" y="-1453.9" font-family="Arial" font-size="14.00" fill="#666666">[timestamp with time zone]</text>
<polygon fill="none" stroke="#000000" points="205,-1412.5 205,-1442.5 595,-1442.5 595,-1412.5 205,-1412.5"/>
<text text-anchor="start" x="212" y="-1423.9" font-family="Arial" font-size="14.00" fill="#000000">target_copy    </text>
<text text-anchor="start" x="319.3422" y="-1423.9" font-family="Arial" font-size="14.00" fill="#666666">[bigint]</text>
<polygon fill="none" stroke="#000000" points="205,-1382.5 205,-1412.5 595,-1412.5 595,-1382.5 205,-1382.5"/>
<text text-anchor="start" x="212" y="-1393.9" font-family="Arial" font-size="14.00" fill="#000000">source    </text>
<text text-anchor="start" x="288.2132" y="-1393.9" font-family="Arial" font-size="14.00" fill="#666666">[integer]</text>
<polygon fill="none" stroke="#000000" points="205,-1352.5 205,-1382.5 595,-1382.5 595,-1352.5 205,-1352.5"/>
<text text-anchor="start" x="212" y="-1363.9" font-family="Arial" font-size="14.00" fill="#000000">dest    </text>
<text text-anchor="start" x="272.6606" y="-1363.9" font-family="Arial" font-size="14.00" fill="#666666">[integer]</text>
<polygon fill="none" stroke="#000000" points="205,-1322.5 205,-1352.5 595,-1352.5 595,-1322.5 205,-1322.5"/>
<text text-anchor="start" x="212" y="-1333.9" font-family="Arial" font-size="14.00" fill="#000000">prev_hop    </text>
<text text-anchor="start" x="304.561" y="-1333.9" font-family="Arial" font-size="14.00" fill="#666666">[integer]</text>
<polygon fill="none" stroke="#000000" points="205,-1292.5 205,-1322.5 595,-1322.5 595,-1292.5 205,-1292.5"/>
<text text-anchor="start" x="212" y="-1303.9" font-family="Arial" font-size="14.00" fill="#000000">copy_status    </text>
<text text-anchor="start" x="320.899" y="-1303.9" font-family="Arial" font-size="14.00" fill="#666666">[integer]</text>
<polygon fill="none" stroke="#000000" points="205,-1262.5 205,-1292.5 595,-1292.5 595,-1262.5 205,-1262.5"/>
<text text-anchor="start" x="212" y="-1273.9" font-family="Arial" font-size="14.00" fill="#000000">persistant_transfer    </text>
<text text-anchor="start" x="362.1164" y="-1273.9" font-family="Arial" font-size="14.00" fill="#666666">[boolean]</text>
<polygon fill="none" stroke="#000000" points="205,-1232.5 205,-1262.5 595,-1262.5 595,-1232.5 205,-1232.5"/>
<text text-anchor="start" x="212" y="-1243.9" font-family="Arial" font-size="14.00" fill="#000000">prev_dest    </text>
<text text-anchor="start" x="307.669" y="-1243.9" font-family="Arial" font-size="14.00" fill="#666666">[integer]</text>
<polygon fill="none" stroke="#000000" points="205,-1202.5 205,-1232.5 595,-1232.5 595,-1202.5 205,-1202.5"/>
<text text-anchor="start" x="212" y="-1213.9" font-family="Arial" font-size="14.00" fill="#000000">cancel_time    </text>
<text text-anchor="start" x="320.8822" y="-1213.9" font-family="Arial" font-size="14.00" fill="#666666">[timestamp with time zone]</text>
<polygon fill="none" stroke="#000000" points="205,-1172.5 205,-1202.5 595,-1202.5 595,-1172.5 205,-1172.5"/>
<text text-anchor="start" x="212" y="-1183.9" font-family="Arial" font-size="14.00" fill="#000000">reservation    </text>
<text text-anchor="start" x="315.4362" y="-1183.9" font-family="Arial" font-size="14.00" fill="#666666">[integer]</text>
</g>
<!-- action.reservation_transit_copy&#45;&gt;booking.resource -->
<g id="edge1" class="edge">
<title>action.reservation_transit_copy:target_copy&#45;&gt;booking.resource:id</title>
<path fill="none" stroke="#000000" d="M603.9574,-1422.992C646.5892,-1377.2797 633.6285,-998.322 647,-950 664.2898,-887.5182 643.1701,-817.5 708,-817.5"/>
<polygon fill="#000000" stroke="#000000" points="603.9326,-1423.0044 592.977,-1423.4803 599.4663,-1425.2522 595,-1427.5 595,-1427.5 595,-1427.5 599.4663,-1425.2522 597.023,-1431.5197 603.9326,-1423.0044 603.9326,-1423.0044"/>
<text text-anchor="start" x="7.145" y="-1437.5" font-family="Arial" font-size="10.00" fill="#000000">FOREIGN KEY (target_copy) REFERENCES booking.resource(id) ON DELETE CASCADE DEFERRABLE INITIALLY DEFERRED</text>
</g>
<!-- booking.reservation -->
<g id="node3" class="node">
<title>booking.reservation</title>
<polygon fill="#efefef" stroke="transparent" points="699,-1712.5 699,-1747.5 997,-1747.5 997,-1712.5 699,-1712.5"/>
<polygon fill="none" stroke="#000000" points="699,-1712.5 699,-1747.5 997,-1747.5 997,-1712.5 699,-1712.5"/>
<text text-anchor="start" x="705.6964" y="-1725.3" font-family="Arial Bold" font-size="18.00" fill="#000000">booking.reservation</text>
<text text-anchor="start" x="862.7356" y="-1725.3" font-family="Arial" font-size="14.00" fill="#000000">    </text>
<text text-anchor="start" x="896.9404" y="-1725.3" font-family="Arial" font-size="14.00" fill="#666666">[BASE TABLE]</text>
<polygon fill="none" stroke="#000000" points="699,-1682.5 699,-1712.5 997,-1712.5 997,-1682.5 699,-1682.5"/>
<text text-anchor="start" x="706" y="-1693.9" font-family="Arial" font-size="14.00" fill="#000000">id    </text>
<text text-anchor="start" x="751.094" y="-1693.9" font-family="Arial" font-size="14.00" fill="#666666">[bigint]</text>
<polygon fill="none" stroke="#000000" points="699,-1652.5 699,-1682.5 997,-1682.5 997,-1652.5 699,-1652.5"/>
<text text-anchor="start" x="706" y="-1663.9" font-family="Arial" font-size="14.00" fill="#000000">usr    </text>
<text text-anchor="start" x="759.648" y="-1663.9" font-family="Arial" font-size="14.00" fill="#666666">[integer]</text>
<polygon fill="none" stroke="#000000" points="699,-1622.5 699,-1652.5 997,-1652.5 997,-1622.5 699,-1622.5"/>
<text text-anchor="start" x="706" y="-1633.9" font-family="Arial" font-size="14.00" fill="#000000">xact_start    </text>
<text text-anchor="start" x="800.885" y="-1633.9" font-family="Arial" font-size="14.00" fill="#666666">[timestamp with time zone]</text>
<polygon fill="none" stroke="#000000" points="699,-1592.5 699,-1622.5 997,-1622.5 997,-1592.5 699,-1592.5"/>
<text text-anchor="start" x="706" y="-1603.9" font-family="Arial" font-size="14.00" fill="#000000">xact_finish    </text>
<text text-anchor="start" x="806.3296" y="-1603.9" font-family="Arial" font-size="14.00" fill="#666666">[timestamp with time zone]</text>
<polygon fill="none" stroke="#000000" points="699,-1562.5 699,-1592.5 997,-1592.5 997,-1562.5 699,-1562.5"/>
<text text-anchor="start" x="706" y="-1573.9" font-family="Arial" font-size="14.00" fill="#000000">unrecovered    </text>
<text text-anchor="start" x="818.0042" y="-1573.9" font-family="Arial" font-size="14.00" fill="#666666">[boolean]</text>
<polygon fill="none" stroke="#000000" points="699,-1532.5 699,-1562.5 997,-1562.5 997,-1532.5 699,-1532.5"/>
<text text-anchor="start" x="706" y="-1543.9" font-family="Arial" font-size="14.00" fill="#000000">request_time    </text>
<text text-anchor="start" x="821.1094" y="-1543.9" font-family="Arial" font-size="14.00" fill="#666666">[timestamp with time zone]</text>
<polygon fill="none" stroke="#000000" points="699,-1502.5 699,-1532.5 997,-1532.5 997,-1502.5 699,-1502.5"/>
<text text-anchor="start" x="706" y="-1513.9" font-family="Arial" font-size="14.00" fill="#000000">start_time    </text>
<text text-anchor="start" x="801.6522" y="-1513.9" font-family="Arial" font-size="14.00" fill="#666666">[timestamp with time zone]</text>
<polygon fill="none" stroke="#000000" points="699,-1472.5 699,-1502.5 997,-1502.5 997,-1472.5 699,-1472.5"/>
<text text-anchor="start" x="706" y="-1483.9" font-family="Arial" font-size="14.00" fill="#000000">end_time    </text>
<text text-anchor="start" x="797.7756" y="-1483.9" font-family="Arial" font-size="14.00" fill="#666666">[timestamp with time zone]</text>
<polygon fill="none" stroke="#000000" points="699,-1442.5 699,-1472.5 997,-1472.5 997,-1442.5 699,-1442.5"/>
<text text-anchor="start" x="706" y="-1453.9" font-family="Arial" font-size="14.00" fill="#000000">capture_time    </text>
<text text-anchor="start" x="821.1094" y="-1453.9" font-family="Arial" font-size="14.00" fill="#666666">[timestamp with time zone]</text>
<polygon fill="none" stroke="#000000" points="699,-1412.5 699,-1442.5 997,-1442.5 997,-1412.5 699,-1412.5"/>
<text text-anchor="start" x="706" y="-1423.9" font-family="Arial" font-size="14.00" fill="#000000">cancel_time    </text>
<text text-anchor="start" x="814.8822" y="-1423.9" font-family="Arial" font-size="14.00" fill="#666666">[timestamp with time zone]</text>
<polygon fill="none" stroke="#000000" points="699,-1382.5 699,-1412.5 997,-1412.5 997,-1382.5 699,-1382.5"/>
<text text-anchor="start" x="706" y="-1393.9" font-family="Arial" font-size="14.00" fill="#000000">pickup_time    </text>
<text text-anchor="start" x="814.8822" y="-1393.9" font-family="Arial" font-size="14.00" fill="#666666">[timestamp with time zone]</text>
<polygon fill="none" stroke="#000000" points="699,-1352.5 699,-1382.5 997,-1382.5 997,-1352.5 699,-1352.5"/>
<text text-anchor="start" x="706" y="-1363.9" font-family="Arial" font-size="14.00" fill="#000000">return_time    </text>
<text text-anchor="start" x="810.9874" y="-1363.9" font-family="Arial" font-size="14.00" fill="#666666">[timestamp with time zone]</text>
<polygon fill="none" stroke="#000000" points="699,-1322.5 699,-1352.5 997,-1352.5 997,-1322.5 699,-1322.5"/>
<text text-anchor="start" x="706" y="-1333.9" font-family="Arial" font-size="14.00" fill="#000000">booking_interval    </text>
<text text-anchor="start" x="842.1192" y="-1333.9" font-family="Arial" font-size="14.00" fill="#666666">[interval]</text>
<polygon fill="none" stroke="#000000" points="699,-1292.5 699,-1322.5 997,-1322.5 997,-1292.5 699,-1292.5"/>
<text text-anchor="start" x="706" y="-1303.9" font-family="Arial" font-size="14.00" fill="#000000">fine_interval    </text>
<text text-anchor="start" x="815.662" y="-1303.9" font-family="Arial" font-size="14.00" fill="#666666">[interval]</text>
<polygon fill="none" stroke="#000000" points="699,-1262.5 699,-1292.5 997,-1292.5 997,-1262.5 699,-1262.5"/>
<text text-anchor="start" x="706" y="-1273.9" font-family="Arial" font-size="14.00" fill="#000000">fine_amount    </text>
<text text-anchor="start" x="817.2314" y="-1273.9" font-family="Arial" font-size="14.00" fill="#666666">[numeric(8,2)]</text>
<polygon fill="none" stroke="#000000" points="699,-1232.5 699,-1262.5 997,-1262.5 997,-1232.5 699,-1232.5"/>
<text text-anchor="start" x="706" y="-1243.9" font-family="Arial" font-size="14.00" fill="#000000">max_fine    </text>
<text text-anchor="start" x="796.993" y="-1243.9" font-family="Arial" font-size="14.00" fill="#666666">[numeric(8,2)]</text>
<polygon fill="none" stroke="#000000" points="699,-1202.5 699,-1232.5 997,-1232.5 997,-1202.5 699,-1202.5"/>
<text text-anchor="start" x="706" y="-1213.9" font-family="Arial" font-size="14.00" fill="#000000">target_resource_type    </text>
<text text-anchor="start" x="872.467" y="-1213.9" font-family="Arial" font-size="14.00" fill="#666666">[integer]</text>
<polygon fill="none" stroke="#000000" points="699,-1172.5 699,-1202.5 997,-1202.5 997,-1172.5 699,-1172.5"/>
<text text-anchor="start" x="706" y="-1183.9" font-family="Arial" font-size="14.00" fill="#000000">target_resource    </text>
<text text-anchor="start" x="838.2286" y="-1183.9" font-family="Arial" font-size="14.00" fill="#666666">[integer]</text>
<polygon fill="none" stroke="#000000" points="699,-1142.5 699,-1172.5 997,-1172.5 997,-1142.5 699,-1142.5"/>
<text text-anchor="start" x="706" y="-1153.9" font-family="Arial" font-size="14.00" fill="#000000">current_resource    </text>
<text text-anchor="start" x="845.9986" y="-1153.9" font-family="Arial" font-size="14.00" fill="#666666">[integer]</text>
<polygon fill="none" stroke="#000000" points="699,-1112.5 699,-1142.5 997,-1142.5 997,-1112.5 699,-1112.5"/>
<text text-anchor="start" x="706" y="-1123.9" font-family="Arial" font-size="14.00" fill="#000000">request_lib    </text>
<text text-anchor="start" x="808.6648" y="-1123.9" font-family="Arial" font-size="14.00" fill="#666666">[integer]</text>
<polygon fill="none" stroke="#000000" points="699,-1082.5 699,-1112.5 997,-1112.5 997,-1082.5 699,-1082.5"/>
<text text-anchor="start" x="706" y="-1093.9" font-family="Arial" font-size="14.00" fill="#000000">pickup_lib    </text>
<text text-anchor="start" x="802.4376" y="-1093.9" font-family="Arial" font-size="14.00" fill="#666666">[integer]</text>
<polygon fill="none" stroke="#000000" points="699,-1052.5 699,-1082.5 997,-1082.5 997,-1052.5 699,-1052.5"/>
<text text-anchor="start" x="706" y="-1063.9" font-family="Arial" font-size="14.00" fill="#000000">capture_staff    </text>
<text text-anchor="start" x="821.1234" y="-1063.9" font-family="Arial" font-size="14.00" fill="#666666">[integer]</text>
<polygon fill="none" stroke="#000000" points="699,-1022.5 699,-1052.5 997,-1052.5 997,-1022.5 699,-1022.5"/>
<text text-anchor="start" x="706" y="-1033.9" font-family="Arial" font-size="14.00" fill="#000000">email_notify    </text>
<text text-anchor="start" x="814.8794" y="-1033.9" font-family="Arial" font-size="14.00" fill="#666666">[boolean]</text>
<polygon fill="none" stroke="#000000" points="699,-992.5 699,-1022.5 997,-1022.5 997,-992.5 699,-992.5"/>
<text text-anchor="start" x="706" y="-1003.9" font-family="Arial" font-size="14.00" fill="#000000">note    </text>
<text text-anchor="start" x="767.4432" y="-1003.9" font-family="Arial" font-size="14.00" fill="#666666">[text]</text>
</g>
<!-- booking.reservation&#45;&gt;booking.resource -->
<g id="edge2" class="edge">
<title>booking.reservation:current_resource&#45;&gt;booking.resource:id</title>
<path fill="none" stroke="#000000" d="M689.3003,-1154.482C655.4166,-1131.324 670.8676,-981.8678 699,-950 784.37,-853.2944 901.63,-1010.7056 987,-914 1015.384,-881.8471 1029.8889,-817.5 987,-817.5"/>
<polygon fill="#000000" stroke="#000000" points="689.4515,-1154.529 697.663,-1161.7968 694.2258,-1156.0145 699,-1157.5 699,-1157.5 699,-1157.5 694.2258,-1156.0145 700.337,-1153.2032 689.4515,-1154.529 689.4515,-1154.529"/>
<text text-anchor="start" x="706.482" y="-1167.5" font-family="Arial" font-size="10.00" fill="#000000">FOREIGN KEY (current_resource) REFERENCES booking.resource(id) ON DELETE CASCADE DEFERRABLE INITIALLY DEFERRED</text>
</g>
<!-- booking.reservation&#45;&gt;booking.resource -->
<g id="edge3" class="edge">
<title>booking.reservation:target_resource&#45;&gt;booking.resource:id</title>
<path fill="none" stroke="#000000" d="M689.1494,-1184.839C648.7424,-1161.1788 666.4592,-986.8616 699,-950 784.37,-853.2944 901.63,-1010.7056 987,-914 1015.384,-881.8471 1029.8889,-817.5 987,-817.5"/>
<polygon fill="#000000" stroke="#000000" points="689.346,-1184.892 697.8264,-1191.8443 694.173,-1186.196 699,-1187.5 699,-1187.5 699,-1187.5 694.173,-1186.196 700.1736,-1183.1557 689.346,-1184.892 689.346,-1184.892"/>
<text text-anchor="start" x="706.257" y="-1197.5" font-family="Arial" font-size="10.00" fill="#000000">FOREIGN KEY (target_resource) REFERENCES booking.resource(id) ON DELETE CASCADE DEFERRABLE INITIALLY DEFERRED</text>
</g>
<!-- booking.resource_attr_map -->
<g id="node4" class="node">
<title>booking.resource_attr_map</title>
<polygon fill="#efefef" stroke="transparent" points="1101,-1412.5 1101,-1447.5 1461,-1447.5 1461,-1412.5 1101,-1412.5"/>
<polygon fill="none" stroke="#000000" points="1101,-1412.5 1101,-1447.5 1461,-1447.5 1461,-1412.5 1101,-1412.5"/>
<text text-anchor="start" x="1107.6878" y="-1425.3" font-family="Arial Bold" font-size="18.00" fill="#000000">booking.resource_attr_map</text>
<text text-anchor="start" x="1326.7442" y="-1425.3" font-family="Arial" font-size="14.00" fill="#000000">    </text>
<text text-anchor="start" x="1360.949" y="-1425.3" font-family="Arial" font-size="14.00" fill="#666666">[BASE TABLE]</text>
<polygon fill="none" stroke="#000000" points="1101,-1382.5 1101,-1412.5 1461,-1412.5 1461,-1382.5 1101,-1382.5"/>
<text text-anchor="start" x="1108" y="-1393.9" font-family="Arial" font-size="14.00" fill="#000000">id    </text>
<text text-anchor="start" x="1153.094" y="-1393.9" font-family="Arial" font-size="14.00" fill="#666666">[integer]</text>
<polygon fill="none" stroke="#000000" points="1101,-1352.5 1101,-1382.5 1461,-1382.5 1461,-1352.5 1101,-1352.5"/>
<text text-anchor="start" x="1108" y="-1363.9" font-family="Arial" font-size="14.00" fill="#000000">resource    </text>
<text text-anchor="start" x="1196.6564" y="-1363.9" font-family="Arial" font-size="14.00" fill="#666666">[integer]</text>
<polygon fill="none" stroke="#000000" points="1101,-1322.5 1101,-1352.5 1461,-1352.5 1461,-1322.5 1101,-1322.5"/>
<text text-anchor="start" x="1108" y="-1333.9" font-family="Arial" font-size="14.00" fill="#000000">resource_attr    </text>
<text text-anchor="start" x="1224.6634" y="-1333.9" font-family="Arial" font-size="14.00" fill="#666666">[integer]</text>
<polygon fill="none" stroke="#000000" points="1101,-1292.5 1101,-1322.5 1461,-1322.5 1461,-1292.5 1101,-1292.5"/>
<text text-anchor="start" x="1108" y="-1303.9" font-family="Arial" font-size="14.00" fill="#000000">value    </text>
<text text-anchor="start" x="1175.6592" y="-1303.9" font-family="Arial" font-size="14.00" fill="#666666">[integer]</text>
</g>
<!-- booking.resource_attr_map&#45;&gt;booking.resource -->
<g id="edge4" class="edge">
<title>booking.resource_attr_map:resource&#45;&gt;booking.resource:id</title>
<path fill="none" stroke="#000000" d="M1090.765,-1366.0338C1012.6288,-1342.2639 1073.8964,-1036.3241 1049,-950 1030.9831,-887.5292 1052.017,-817.5 987,-817.5"/>
<polygon fill="#000000" stroke="#000000" points="1091.1011,-1366.0818 1100.3618,-1371.9545 1096.0505,-1366.7909 1101,-1367.5 1101,-1367.5 1101,-1367.5 1096.0505,-1366.7909 1101.6382,-1363.0455 1091.1011,-1366.0818 1091.1011,-1366.0818"/>
<text text-anchor="start" x="1107.8185" y="-1377.5" font-family="Arial" font-size="10.00" fill="#000000">FOREIGN KEY (resource) REFERENCES booking.resource(id) ON DELETE CASCADE DEFERRABLE INITIALLY DEFERRED</text>
</g>
</g>
</svg>
