<?xml version="1.0" encoding="UTF-8" standalone="no"?>
<!DOCTYPE svg PUBLIC "-//W3C//DTD SVG 1.1//EN"
 "http://www.w3.org/Graphics/SVG/1.1/DTD/svg11.dtd">
<!-- Generated by graphviz version 2.40.1 (20161225.0304)
 -->
<!-- Title: config.coded_value_map Pages: 1 -->
<svg width="1075pt" height="1289pt"
 viewBox="0.00 0.00 1075.00 1289.00" xmlns="http://www.w3.org/2000/svg" xmlns:xlink="http://www.w3.org/1999/xlink">
<g id="graph0" class="graph" transform="scale(1 1) rotate(0) translate(4 1285)">
<title>config.coded_value_map</title>
<polygon fill="#ffffff" stroke="transparent" points="-4,4 -4,-1285 1071,-1285 1071,4 -4,4"/>
<!-- config.coded_value_map -->
<g id="node1" class="node">
<title>config.coded_value_map</title>
<polygon fill="#efefef" stroke="transparent" points="631,-982.5 631,-1017.5 972,-1017.5 972,-982.5 631,-982.5"/>
<polygon fill="none" stroke="#000000" points="631,-982.5 631,-1017.5 972,-1017.5 972,-982.5 631,-982.5"/>
<text text-anchor="start" x="637.6801" y="-995.3" font-family="Arial Bold" font-size="18.00" fill="#000000">config.coded_value_map</text>
<text text-anchor="start" x="837.7519" y="-995.3" font-family="Arial" font-size="14.00" fill="#000000">    </text>
<text text-anchor="start" x="871.9567" y="-995.3" font-family="Arial" font-size="14.00" fill="#666666">[BASE TABLE]</text>
<polygon fill="none" stroke="#000000" points="631,-952.5 631,-982.5 972,-982.5 972,-952.5 631,-952.5"/>
<text text-anchor="start" x="638" y="-963.9" font-family="Arial" font-size="14.00" fill="#000000">id </text>
<text text-anchor="start" x="652.7798" y="-963.9" font-family="Arial" font-size="14.00" fill="#666666">[integer]</text>
<polygon fill="none" stroke="#000000" points="631,-922.5 631,-952.5 972,-952.5 972,-922.5 631,-922.5"/>
<text text-anchor="start" x="638" y="-933.9" font-family="Arial" font-size="14.00" fill="#000000">ctype </text>
<text text-anchor="start" x="675.3464" y="-933.9" font-family="Arial" font-size="14.00" fill="#666666">[text]</text>
<polygon fill="none" stroke="#000000" points="631,-892.5 631,-922.5 972,-922.5 972,-892.5 631,-892.5"/>
<text text-anchor="start" x="638" y="-903.9" font-family="Arial" font-size="14.00" fill="#000000">code </text>
<text text-anchor="start" x="672.2384" y="-903.9" font-family="Arial" font-size="14.00" fill="#666666">[text]</text>
<polygon fill="none" stroke="#000000" points="631,-862.5 631,-892.5 972,-892.5 972,-862.5 631,-862.5"/>
<text text-anchor="start" x="638" y="-873.9" font-family="Arial" font-size="14.00" fill="#000000">value </text>
<text text-anchor="start" x="675.345" y="-873.9" font-family="Arial" font-size="14.00" fill="#666666">[text]</text>
<polygon fill="none" stroke="#000000" points="631,-832.5 631,-862.5 972,-862.5 972,-832.5 631,-832.5"/>
<text text-anchor="start" x="638" y="-843.9" font-family="Arial" font-size="14.00" fill="#000000">description </text>
<text text-anchor="start" x="709.568" y="-843.9" font-family="Arial" font-size="14.00" fill="#666666">[text]</text>
<polygon fill="none" stroke="#000000" points="631,-802.5 631,-832.5 972,-832.5 972,-802.5 631,-802.5"/>
<text text-anchor="start" x="638" y="-813.9" font-family="Arial" font-size="14.00" fill="#000000">opac_visible </text>
<text text-anchor="start" x="718.906" y="-813.9" font-family="Arial" font-size="14.00" fill="#666666">[boolean]</text>
<polygon fill="none" stroke="#000000" points="631,-772.5 631,-802.5 972,-802.5 972,-772.5 631,-772.5"/>
<text text-anchor="start" x="638" y="-783.9" font-family="Arial" font-size="14.00" fill="#000000">search_label </text>
<text text-anchor="start" x="721.2426" y="-783.9" font-family="Arial" font-size="14.00" fill="#666666">[text]</text>
<polygon fill="none" stroke="#000000" points="631,-742.5 631,-772.5 972,-772.5 972,-742.5 631,-742.5"/>
<text text-anchor="start" x="638" y="-753.9" font-family="Arial" font-size="14.00" fill="#000000">is_simple </text>
<text text-anchor="start" x="700.2188" y="-753.9" font-family="Arial" font-size="14.00" fill="#666666">[boolean]</text>
<polygon fill="none" stroke="#000000" points="631,-712.5 631,-742.5 972,-742.5 972,-712.5 631,-712.5"/>
<text text-anchor="start" x="638" y="-723.9" font-family="Arial" font-size="14.00" fill="#000000">concept_uri </text>
<text text-anchor="start" x="714.244" y="-723.9" font-family="Arial" font-size="14.00" fill="#666666">[text]</text>
<polygon fill="none" stroke="#000000" stroke-width="3" points="629,-711.5 629,-1019.5 973,-1019.5 973,-711.5 629,-711.5"/>
</g>
<!-- config.record_attr_definition -->
<g id="node3" class="node">
<title>config.record_attr_definition</title>
<polygon fill="#efefef" stroke="transparent" points="620,-552.5 620,-587.5 983,-587.5 983,-552.5 620,-552.5"/>
<polygon fill="none" stroke="#000000" points="620,-552.5 620,-587.5 983,-587.5 983,-552.5 620,-552.5"/>
<text text-anchor="start" x="626.6893" y="-565.3" font-family="Arial Bold" font-size="18.00" fill="#000000">config.record_attr_definition</text>
<text text-anchor="start" x="848.7427" y="-565.3" font-family="Arial" font-size="14.00" fill="#000000">    </text>
<text text-anchor="start" x="882.9475" y="-565.3" font-family="Arial" font-size="14.00" fill="#666666">[BASE TABLE]</text>
<polygon fill="none" stroke="#000000" points="620,-522.5 620,-552.5 983,-552.5 983,-522.5 620,-522.5"/>
<text text-anchor="start" x="627" y="-533.9" font-family="Arial" font-size="14.00" fill="#000000">name    </text>
<text text-anchor="start" x="696.2132" y="-533.9" font-family="Arial" font-size="14.00" fill="#666666">[text]</text>
<polygon fill="none" stroke="#000000" points="620,-492.5 620,-522.5 983,-522.5 983,-492.5 620,-492.5"/>
<text text-anchor="start" x="627" y="-503.9" font-family="Arial" font-size="14.00" fill="#000000">label    </text>
<text text-anchor="start" x="690.7658" y="-503.9" font-family="Arial" font-size="14.00" fill="#666666">[text]</text>
<polygon fill="none" stroke="#000000" points="620,-462.5 620,-492.5 983,-492.5 983,-462.5 620,-462.5"/>
<text text-anchor="start" x="627" y="-473.9" font-family="Arial" font-size="14.00" fill="#000000">description    </text>
<text text-anchor="start" x="728.8822" y="-473.9" font-family="Arial" font-size="14.00" fill="#666666">[text]</text>
<polygon fill="none" stroke="#000000" points="620,-432.5 620,-462.5 983,-462.5 983,-432.5 620,-432.5"/>
<text text-anchor="start" x="627" y="-443.9" font-family="Arial" font-size="14.00" fill="#000000">multi    </text>
<text text-anchor="start" x="690.7518" y="-443.9" font-family="Arial" font-size="14.00" fill="#666666">[boolean]</text>
<polygon fill="none" stroke="#000000" points="620,-402.5 620,-432.5 983,-432.5 983,-402.5 620,-402.5"/>
<text text-anchor="start" x="627" y="-413.9" font-family="Arial" font-size="14.00" fill="#000000">filter    </text>
<text text-anchor="start" x="687.6424" y="-413.9" font-family="Arial" font-size="14.00" fill="#666666">[boolean]</text>
<polygon fill="none" stroke="#000000" points="620,-372.5 620,-402.5 983,-402.5 983,-372.5 620,-372.5"/>
<text text-anchor="start" x="627" y="-383.9" font-family="Arial" font-size="14.00" fill="#000000">sorter    </text>
<text text-anchor="start" x="696.9818" y="-383.9" font-family="Arial" font-size="14.00" fill="#666666">[boolean]</text>
<polygon fill="none" stroke="#000000" points="620,-342.5 620,-372.5 983,-372.5 983,-342.5 620,-342.5"/>
<text text-anchor="start" x="627" y="-353.9" font-family="Arial" font-size="14.00" fill="#000000">composite    </text>
<text text-anchor="start" x="724.993" y="-353.9" font-family="Arial" font-size="14.00" fill="#666666">[boolean]</text>
<polygon fill="none" stroke="#000000" points="620,-312.5 620,-342.5 983,-342.5 983,-312.5 620,-312.5"/>
<text text-anchor="start" x="627" y="-323.9" font-family="Arial" font-size="14.00" fill="#000000">tag    </text>
<text text-anchor="start" x="680.6606" y="-323.9" font-family="Arial" font-size="14.00" fill="#666666">[text]</text>
<polygon fill="none" stroke="#000000" points="620,-282.5 620,-312.5 983,-312.5 983,-282.5 620,-282.5"/>
<text text-anchor="start" x="627" y="-293.9" font-family="Arial" font-size="14.00" fill="#000000">sf_list    </text>
<text text-anchor="start" x="696.9818" y="-293.9" font-family="Arial" font-size="14.00" fill="#666666">[text]</text>
<polygon fill="none" stroke="#000000" points="620,-252.5 620,-282.5 983,-282.5 983,-252.5 620,-252.5"/>
<text text-anchor="start" x="627" y="-263.9" font-family="Arial" font-size="14.00" fill="#000000">joiner    </text>
<text text-anchor="start" x="695.4264" y="-263.9" font-family="Arial" font-size="14.00" fill="#666666">[text]</text>
<polygon fill="none" stroke="#000000" points="620,-222.5 620,-252.5 983,-252.5 983,-222.5 620,-222.5"/>
<text text-anchor="start" x="627" y="-233.9" font-family="Arial" font-size="14.00" fill="#000000">xpath    </text>
<text text-anchor="start" x="695.4432" y="-233.9" font-family="Arial" font-size="14.00" fill="#666666">[text]</text>
<polygon fill="none" stroke="#000000" points="620,-192.5 620,-222.5 983,-222.5 983,-192.5 620,-192.5"/>
<text text-anchor="start" x="627" y="-203.9" font-family="Arial" font-size="14.00" fill="#000000">format    </text>
<text text-anchor="start" x="700.8724" y="-203.9" font-family="Arial" font-size="14.00" fill="#666666">[text]</text>
<polygon fill="none" stroke="#000000" points="620,-162.5 620,-192.5 983,-192.5 983,-162.5 620,-162.5"/>
<text text-anchor="start" x="627" y="-173.9" font-family="Arial" font-size="14.00" fill="#000000">start_pos    </text>
<text text-anchor="start" x="718.777" y="-173.9" font-family="Arial" font-size="14.00" fill="#666666">[integer]</text>
<polygon fill="none" stroke="#000000" points="620,-132.5 620,-162.5 983,-162.5 983,-132.5 620,-132.5"/>
<text text-anchor="start" x="627" y="-143.9" font-family="Arial" font-size="14.00" fill="#000000">string_len    </text>
<text text-anchor="start" x="721.8822" y="-143.9" font-family="Arial" font-size="14.00" fill="#666666">[integer]</text>
<polygon fill="none" stroke="#000000" points="620,-102.5 620,-132.5 983,-132.5 983,-102.5 620,-102.5"/>
<text text-anchor="start" x="627" y="-113.9" font-family="Arial" font-size="14.00" fill="#000000">fixed_field    </text>
<text text-anchor="start" x="724.2188" y="-113.9" font-family="Arial" font-size="14.00" fill="#666666">[text]</text>
<polygon fill="none" stroke="#000000" points="620,-72.5 620,-102.5 983,-102.5 983,-72.5 620,-72.5"/>
<text text-anchor="start" x="627" y="-83.9" font-family="Arial" font-size="14.00" fill="#000000">phys_char_sf    </text>
<text text-anchor="start" x="744.4516" y="-83.9" font-family="Arial" font-size="14.00" fill="#666666">[integer]</text>
<polygon fill="none" stroke="#000000" points="620,-42.5 620,-72.5 983,-72.5 983,-42.5 620,-42.5"/>
<text text-anchor="start" x="627" y="-53.9" font-family="Arial" font-size="14.00" fill="#000000">vocabulary    </text>
<text text-anchor="start" x="728.885" y="-53.9" font-family="Arial" font-size="14.00" fill="#666666">[text]</text>
</g>
<!-- config.coded_value_map&#45;&gt;config.record_attr_definition -->
<g id="edge2" class="edge">
<title>config.coded_value_map:ctype&#45;&gt;config.record_attr_definition:name</title>
<path fill="none" stroke="#000000" d="M620.7705,-937.0482C452.7974,-922.0276 445.6285,-537.5 620,-537.5"/>
<polygon fill="#000000" stroke="#000000" points="621.0097,-937.0587 630.8014,-941.9956 626.0049,-937.2793 631,-937.5 631,-937.5 631,-937.5 626.0049,-937.2793 631.1986,-933.0044 621.0097,-937.0587 621.0097,-937.0587"/>
<text text-anchor="start" x="7.365" y="-947.5" font-family="Arial" font-size="10.00" fill="#000000">FOREIGN KEY (ctype) REFERENCES config.record_attr_definition(name) ON DELETE CASCADE DEFERRABLE INITIALLY DEFERRED</text>
</g>
<!-- config.composite_attr_entry_definition -->
<g id="node2" class="node">
<title>config.composite_attr_entry_definition</title>
<polygon fill="#efefef" stroke="transparent" points="580,-1202.5 580,-1237.5 1024,-1237.5 1024,-1202.5 580,-1202.5"/>
<polygon fill="none" stroke="#000000" points="580,-1202.5 580,-1237.5 1024,-1237.5 1024,-1202.5 580,-1202.5"/>
<text text-anchor="start" x="586.6776" y="-1215.3" font-family="Arial Bold" font-size="18.00" fill="#000000">config.composite_attr_entry_definition</text>
<text text-anchor="start" x="889.7544" y="-1215.3" font-family="Arial" font-size="14.00" fill="#000000">    </text>
<text text-anchor="start" x="923.9592" y="-1215.3" font-family="Arial" font-size="14.00" fill="#666666">[BASE TABLE]</text>
<polygon fill="none" stroke="#000000" points="580,-1172.5 580,-1202.5 1024,-1202.5 1024,-1172.5 580,-1172.5"/>
<text text-anchor="start" x="587" y="-1183.9" font-family="Arial" font-size="14.00" fill="#000000">coded_value    </text>
<text text-anchor="start" x="700.5722" y="-1183.9" font-family="Arial" font-size="14.00" fill="#666666">[integer]</text>
<polygon fill="none" stroke="#000000" points="580,-1142.5 580,-1172.5 1024,-1172.5 1024,-1142.5 580,-1142.5"/>
<text text-anchor="start" x="587" y="-1153.9" font-family="Arial" font-size="14.00" fill="#000000">definition    </text>
<text text-anchor="start" x="677.2188" y="-1153.9" font-family="Arial" font-size="14.00" fill="#666666">[text]</text>
</g>
<!-- config.composite_attr_entry_definition&#45;&gt;config.coded_value_map -->
<g id="edge1" class="edge">
<title>config.composite_attr_entry_definition:coded_value&#45;&gt;config.coded_value_map:id</title>
<path fill="none" stroke="#000000" d="M570.0467,-1185.9012C543.7163,-1176.3077 556.3486,-1125.923 580,-1100 638.9598,-1035.3774 913.0402,-1128.6226 972,-1064 1000.907,-1032.3166 1014.8889,-967.5 972,-967.5"/>
<polygon fill="#000000" stroke="#000000" points="570.1266,-1185.914 579.2863,-1191.943 575.0633,-1186.707 580,-1187.5 580,-1187.5 580,-1187.5 575.0633,-1186.707 580.7137,-1183.057 570.1266,-1185.914 570.1266,-1185.914"/>
<text text-anchor="start" x="16.637" y="-1197.5" font-family="Arial" font-size="10.00" fill="#000000">FOREIGN KEY (coded_value) REFERENCES config.coded_value_map(id) ON UPDATE CASCADE ON DELETE CASCADE</text>
</g>
</g>
</svg>
