<?xml version="1.0" encoding="UTF-8" standalone="no"?>
<!DOCTYPE svg PUBLIC "-//W3C//DTD SVG 1.1//EN"
 "http://www.w3.org/Graphics/SVG/1.1/DTD/svg11.dtd">
<!-- Generated by graphviz version 2.40.1 (20161225.0304)
 -->
<!-- Title: config.floating_group Pages: 1 -->
<svg width="1430pt" height="1372pt"
 viewBox="0.00 0.00 1430.00 1372.00" xmlns="http://www.w3.org/2000/svg" xmlns:xlink="http://www.w3.org/1999/xlink">
<g id="graph0" class="graph" transform="scale(1 1) rotate(0) translate(4 1368)">
<title>config.floating_group</title>
<polygon fill="#ffffff" stroke="transparent" points="-4,4 -4,-1368 1426,-1368 1426,4 -4,4"/>
<!-- config.floating_group -->
<g id="node1" class="node">
<title>config.floating_group</title>
<polygon fill="#efefef" stroke="transparent" points="584,-135.5 584,-170.5 892,-170.5 892,-135.5 584,-135.5"/>
<polygon fill="none" stroke="#000000" points="584,-135.5 584,-170.5 892,-170.5 892,-135.5 584,-135.5"/>
<text text-anchor="start" x="590.687" y="-148.3" font-family="Arial Bold" font-size="18.00" fill="#000000">config.floating_group</text>
<text text-anchor="start" x="757.745" y="-148.3" font-family="Arial" font-size="14.00" fill="#000000">    </text>
<text text-anchor="start" x="791.9498" y="-148.3" font-family="Arial" font-size="14.00" fill="#666666">[BASE TABLE]</text>
<polygon fill="none" stroke="#000000" points="584,-105.5 584,-135.5 892,-135.5 892,-105.5 584,-105.5"/>
<text text-anchor="start" x="591" y="-116.9" font-family="Arial" font-size="14.00" fill="#000000">id </text>
<text text-anchor="start" x="605.7798" y="-116.9" font-family="Arial" font-size="14.00" fill="#666666">[integer]</text>
<polygon fill="none" stroke="#000000" points="584,-75.5 584,-105.5 892,-105.5 892,-75.5 584,-75.5"/>
<text text-anchor="start" x="591" y="-86.9" font-family="Arial" font-size="14.00" fill="#000000">name </text>
<text text-anchor="start" x="629.899" y="-86.9" font-family="Arial" font-size="14.00" fill="#666666">[text]</text>
<polygon fill="none" stroke="#000000" points="584,-45.5 584,-75.5 892,-75.5 892,-45.5 584,-45.5"/>
<text text-anchor="start" x="591" y="-56.9" font-family="Arial" font-size="14.00" fill="#000000">manual </text>
<text text-anchor="start" x="640.7882" y="-56.9" font-family="Arial" font-size="14.00" fill="#666666">[boolean]</text>
<polygon fill="none" stroke="#000000" stroke-width="3" points="582.5,-44.5 582.5,-172.5 893.5,-172.5 893.5,-44.5 582.5,-44.5"/>
</g>
<!-- asset.copy -->
<g id="node2" class="node">
<title>asset.copy</title>
<polygon fill="#efefef" stroke="transparent" points="135,-1285.5 135,-1320.5 481,-1320.5 481,-1285.5 135,-1285.5"/>
<polygon fill="none" stroke="#000000" points="135,-1285.5 135,-1320.5 481,-1320.5 481,-1285.5 135,-1285.5"/>
<text text-anchor="start" x="201.2014" y="-1298.3" font-family="Arial Bold" font-size="18.00" fill="#000000">asset.copy</text>
<text text-anchor="start" x="287.2306" y="-1298.3" font-family="Arial" font-size="14.00" fill="#000000">    </text>
<text text-anchor="start" x="321.4354" y="-1298.3" font-family="Arial" font-size="14.00" fill="#666666">[BASE TABLE]</text>
<polygon fill="none" stroke="#000000" points="135,-1255.5 135,-1285.5 481,-1285.5 481,-1255.5 135,-1255.5"/>
<text text-anchor="start" x="142" y="-1266.9" font-family="Arial" font-size="14.00" fill="#000000">id    </text>
<text text-anchor="start" x="187.094" y="-1266.9" font-family="Arial" font-size="14.00" fill="#666666">[bigint]</text>
<polygon fill="none" stroke="#000000" points="135,-1225.5 135,-1255.5 481,-1255.5 481,-1225.5 135,-1225.5"/>
<text text-anchor="start" x="142" y="-1236.9" font-family="Arial" font-size="14.00" fill="#000000">circ_lib    </text>
<text text-anchor="start" x="219.7504" y="-1236.9" font-family="Arial" font-size="14.00" fill="#666666">[integer]</text>
<polygon fill="none" stroke="#000000" points="135,-1195.5 135,-1225.5 481,-1225.5 481,-1195.5 135,-1195.5"/>
<text text-anchor="start" x="142" y="-1206.9" font-family="Arial" font-size="14.00" fill="#000000">creator    </text>
<text text-anchor="start" x="219.7644" y="-1206.9" font-family="Arial" font-size="14.00" fill="#666666">[bigint]</text>
<polygon fill="none" stroke="#000000" points="135,-1165.5 135,-1195.5 481,-1195.5 481,-1165.5 135,-1165.5"/>
<text text-anchor="start" x="142" y="-1176.9" font-family="Arial" font-size="14.00" fill="#000000">call_number    </text>
<text text-anchor="start" x="252.4348" y="-1176.9" font-family="Arial" font-size="14.00" fill="#666666">[bigint]</text>
<polygon fill="none" stroke="#000000" points="135,-1135.5 135,-1165.5 481,-1165.5 481,-1135.5 135,-1135.5"/>
<text text-anchor="start" x="142" y="-1146.9" font-family="Arial" font-size="14.00" fill="#000000">editor    </text>
<text text-anchor="start" x="211.2104" y="-1146.9" font-family="Arial" font-size="14.00" fill="#666666">[bigint]</text>
<polygon fill="none" stroke="#000000" points="135,-1105.5 135,-1135.5 481,-1135.5 481,-1105.5 135,-1105.5"/>
<text text-anchor="start" x="142" y="-1116.9" font-family="Arial" font-size="14.00" fill="#000000">create_date    </text>
<text text-anchor="start" x="250.1248" y="-1116.9" font-family="Arial" font-size="14.00" fill="#666666">[timestamp with time zone]</text>
<polygon fill="none" stroke="#000000" points="135,-1075.5 135,-1105.5 481,-1105.5 481,-1075.5 135,-1075.5"/>
<text text-anchor="start" x="142" y="-1086.9" font-family="Arial" font-size="14.00" fill="#000000">edit_date    </text>
<text text-anchor="start" x="233.7882" y="-1086.9" font-family="Arial" font-size="14.00" fill="#666666">[timestamp with time zone]</text>
<polygon fill="none" stroke="#000000" points="135,-1045.5 135,-1075.5 481,-1075.5 481,-1045.5 135,-1045.5"/>
<text text-anchor="start" x="142" y="-1056.9" font-family="Arial" font-size="14.00" fill="#000000">copy_number    </text>
<text text-anchor="start" x="261.0042" y="-1056.9" font-family="Arial" font-size="14.00" fill="#666666">[integer]</text>
<polygon fill="none" stroke="#000000" points="135,-1015.5 135,-1045.5 481,-1045.5 481,-1015.5 135,-1015.5"/>
<text text-anchor="start" x="142" y="-1026.9" font-family="Arial" font-size="14.00" fill="#000000">status    </text>
<text text-anchor="start" x="213.5512" y="-1026.9" font-family="Arial" font-size="14.00" fill="#666666">[integer]</text>
<polygon fill="none" stroke="#000000" points="135,-985.5 135,-1015.5 481,-1015.5 481,-985.5 135,-985.5"/>
<text text-anchor="start" x="142" y="-996.9" font-family="Arial" font-size="14.00" fill="#000000">location    </text>
<text text-anchor="start" x="224.439" y="-996.9" font-family="Arial" font-size="14.00" fill="#666666">[integer]</text>
<polygon fill="none" stroke="#000000" points="135,-955.5 135,-985.5 481,-985.5 481,-955.5 135,-955.5"/>
<text text-anchor="start" x="142" y="-966.9" font-family="Arial" font-size="14.00" fill="#000000">loan_duration    </text>
<text text-anchor="start" x="261.0126" y="-966.9" font-family="Arial" font-size="14.00" fill="#666666">[integer]</text>
<polygon fill="none" stroke="#000000" points="135,-925.5 135,-955.5 481,-955.5 481,-925.5 135,-925.5"/>
<text text-anchor="start" x="142" y="-936.9" font-family="Arial" font-size="14.00" fill="#000000">fine_level    </text>
<text text-anchor="start" x="235.3282" y="-936.9" font-family="Arial" font-size="14.00" fill="#666666">[integer]</text>
<polygon fill="none" stroke="#000000" points="135,-895.5 135,-925.5 481,-925.5 481,-895.5 135,-895.5"/>
<text text-anchor="start" x="142" y="-906.9" font-family="Arial" font-size="14.00" fill="#000000">age_protect    </text>
<text text-anchor="start" x="250.1248" y="-906.9" font-family="Arial" font-size="14.00" fill="#666666">[integer]</text>
<polygon fill="none" stroke="#000000" points="135,-865.5 135,-895.5 481,-895.5 481,-865.5 135,-865.5"/>
<text text-anchor="start" x="142" y="-876.9" font-family="Arial" font-size="14.00" fill="#000000">circulate    </text>
<text text-anchor="start" x="228.317" y="-876.9" font-family="Arial" font-size="14.00" fill="#666666">[boolean]</text>
<polygon fill="none" stroke="#000000" points="135,-835.5 135,-865.5 481,-865.5 481,-835.5 135,-835.5"/>
<text text-anchor="start" x="142" y="-846.9" font-family="Arial" font-size="14.00" fill="#000000">deposit    </text>
<text text-anchor="start" x="221.3324" y="-846.9" font-family="Arial" font-size="14.00" fill="#666666">[boolean]</text>
<polygon fill="none" stroke="#000000" points="135,-805.5 135,-835.5 481,-835.5 481,-805.5 135,-805.5"/>
<text text-anchor="start" x="142" y="-816.9" font-family="Arial" font-size="14.00" fill="#000000">ref    </text>
<text text-anchor="start" x="192.5386" y="-816.9" font-family="Arial" font-size="14.00" fill="#666666">[boolean]</text>
<polygon fill="none" stroke="#000000" points="135,-775.5 135,-805.5 481,-805.5 481,-775.5 135,-775.5"/>
<text text-anchor="start" x="142" y="-786.9" font-family="Arial" font-size="14.00" fill="#000000">holdable    </text>
<text text-anchor="start" x="229.1136" y="-786.9" font-family="Arial" font-size="14.00" fill="#666666">[boolean]</text>
<polygon fill="none" stroke="#000000" points="135,-745.5 135,-775.5 481,-775.5 481,-745.5 135,-745.5"/>
<text text-anchor="start" x="142" y="-756.9" font-family="Arial" font-size="14.00" fill="#000000">deposit_amount    </text>
<text text-anchor="start" x="275.7966" y="-756.9" font-family="Arial" font-size="14.00" fill="#666666">[numeric(6,2)]</text>
<polygon fill="none" stroke="#000000" points="135,-715.5 135,-745.5 481,-745.5 481,-715.5 135,-715.5"/>
<text text-anchor="start" x="142" y="-726.9" font-family="Arial" font-size="14.00" fill="#000000">price    </text>
<text text-anchor="start" x="206.5372" y="-726.9" font-family="Arial" font-size="14.00" fill="#666666">[numeric(8,2)]</text>
<polygon fill="none" stroke="#000000" points="135,-685.5 135,-715.5 481,-715.5 481,-685.5 135,-685.5"/>
<text text-anchor="start" x="142" y="-696.9" font-family="Arial" font-size="14.00" fill="#000000">barcode    </text>
<text text-anchor="start" x="226.7784" y="-696.9" font-family="Arial" font-size="14.00" fill="#666666">[text]</text>
<polygon fill="none" stroke="#000000" points="135,-655.5 135,-685.5 481,-685.5 481,-655.5 135,-655.5"/>
<text text-anchor="start" x="142" y="-666.9" font-family="Arial" font-size="14.00" fill="#000000">circ_modifier    </text>
<text text-anchor="start" x="255.5274" y="-666.9" font-family="Arial" font-size="14.00" fill="#666666">[text]</text>
<polygon fill="none" stroke="#000000" points="135,-625.5 135,-655.5 481,-655.5 481,-625.5 135,-625.5"/>
<text text-anchor="start" x="142" y="-636.9" font-family="Arial" font-size="14.00" fill="#000000">circ_as_type    </text>
<text text-anchor="start" x="254.7756" y="-636.9" font-family="Arial" font-size="14.00" fill="#666666">[text]</text>
<polygon fill="none" stroke="#000000" points="135,-595.5 135,-625.5 481,-625.5 481,-595.5 135,-595.5"/>
<text text-anchor="start" x="142" y="-606.9" font-family="Arial" font-size="14.00" fill="#000000">dummy_title    </text>
<text text-anchor="start" x="251.6508" y="-606.9" font-family="Arial" font-size="14.00" fill="#666666">[text]</text>
<polygon fill="none" stroke="#000000" points="135,-565.5 135,-595.5 481,-595.5 481,-565.5 135,-565.5"/>
<text text-anchor="start" x="142" y="-576.9" font-family="Arial" font-size="14.00" fill="#000000">dummy_author    </text>
<text text-anchor="start" x="269.5554" y="-576.9" font-family="Arial" font-size="14.00" fill="#666666">[text]</text>
<polygon fill="none" stroke="#000000" points="135,-535.5 135,-565.5 481,-565.5 481,-535.5 135,-535.5"/>
<text text-anchor="start" x="142" y="-546.9" font-family="Arial" font-size="14.00" fill="#000000">alert_message    </text>
<text text-anchor="start" x="268.0014" y="-546.9" font-family="Arial" font-size="14.00" fill="#666666">[text]</text>
<polygon fill="none" stroke="#000000" points="135,-505.5 135,-535.5 481,-535.5 481,-505.5 135,-505.5"/>
<text text-anchor="start" x="142" y="-516.9" font-family="Arial" font-size="14.00" fill="#000000">opac_visible    </text>
<text text-anchor="start" x="253.2202" y="-516.9" font-family="Arial" font-size="14.00" fill="#666666">[boolean]</text>
<polygon fill="none" stroke="#000000" points="135,-475.5 135,-505.5 481,-505.5 481,-475.5 135,-475.5"/>
<text text-anchor="start" x="142" y="-486.9" font-family="Arial" font-size="14.00" fill="#000000">deleted    </text>
<text text-anchor="start" x="222.115" y="-486.9" font-family="Arial" font-size="14.00" fill="#666666">[boolean]</text>
<polygon fill="none" stroke="#000000" points="135,-445.5 135,-475.5 481,-475.5 481,-445.5 135,-445.5"/>
<text text-anchor="start" x="142" y="-456.9" font-family="Arial" font-size="14.00" fill="#000000">floating    </text>
<text text-anchor="start" x="221.3296" y="-456.9" font-family="Arial" font-size="14.00" fill="#666666">[integer]</text>
<polygon fill="none" stroke="#000000" points="135,-415.5 135,-445.5 481,-445.5 481,-415.5 135,-415.5"/>
<text text-anchor="start" x="142" y="-426.9" font-family="Arial" font-size="14.00" fill="#000000">dummy_isbn    </text>
<text text-anchor="start" x="255.5456" y="-426.9" font-family="Arial" font-size="14.00" fill="#666666">[text]</text>
<polygon fill="none" stroke="#000000" points="135,-385.5 135,-415.5 481,-415.5 481,-385.5 135,-385.5"/>
<text text-anchor="start" x="141.5316" y="-396.9" font-family="Arial" font-size="14.00" fill="#000000">status_changed_time    </text>
<text text-anchor="start" x="308.784" y="-396.9" font-family="Arial" font-size="14.00" fill="#666666">[timestamp with time zone]</text>
<polygon fill="none" stroke="#000000" points="135,-355.5 135,-385.5 481,-385.5 481,-355.5 135,-355.5"/>
<text text-anchor="start" x="142" y="-366.9" font-family="Arial" font-size="14.00" fill="#000000">active_date    </text>
<text text-anchor="start" x="247.7882" y="-366.9" font-family="Arial" font-size="14.00" fill="#666666">[timestamp with time zone]</text>
<polygon fill="none" stroke="#000000" points="135,-325.5 135,-355.5 481,-355.5 481,-325.5 135,-325.5"/>
<text text-anchor="start" x="142" y="-336.9" font-family="Arial" font-size="14.00" fill="#000000">mint_condition    </text>
<text text-anchor="start" x="266.4446" y="-336.9" font-family="Arial" font-size="14.00" fill="#666666">[boolean]</text>
<polygon fill="none" stroke="#000000" points="135,-295.5 135,-325.5 481,-325.5 481,-295.5 135,-295.5"/>
<text text-anchor="start" x="142" y="-306.9" font-family="Arial" font-size="14.00" fill="#000000">cost    </text>
<text text-anchor="start" x="201.878" y="-306.9" font-family="Arial" font-size="14.00" fill="#666666">[numeric(8,2)]</text>
</g>
<!-- asset.copy&#45;&gt;config.floating_group -->
<g id="edge1" class="edge">
<title>asset.copy:floating&#45;&gt;config.floating_group:id</title>
<path fill="none" stroke="#000000" d="M491.3937,-459.9736C570.6211,-451.4106 505.4357,-340.1027 533,-253 552.0381,-192.84 520.8995,-120.5 584,-120.5"/>
<polygon fill="#000000" stroke="#000000" points="490.9872,-459.9941 480.7723,-456.0058 485.9936,-460.247 481,-460.5 481,-460.5 481,-460.5 485.9936,-460.247 481.2277,-464.9942 490.9872,-459.9941 490.9872,-459.9941"/>
<text text-anchor="start" x="7.369" y="-470.5" font-family="Arial" font-size="10.00" fill="#000000">FOREIGN KEY (floating) REFERENCES config.floating_group(id) DEFERRABLE INITIALLY DEFERRED</text>
</g>
<!-- asset.copy_template -->
<g id="node3" class="node">
<title>asset.copy_template</title>
<polygon fill="#efefef" stroke="transparent" points="585,-1165.5 585,-1200.5 891,-1200.5 891,-1165.5 585,-1165.5"/>
<polygon fill="none" stroke="#000000" points="585,-1165.5 585,-1200.5 891,-1200.5 891,-1165.5 585,-1165.5"/>
<text text-anchor="start" x="591.6905" y="-1178.3" font-family="Arial Bold" font-size="18.00" fill="#000000">asset.copy_template</text>
<text text-anchor="start" x="756.7415" y="-1178.3" font-family="Arial" font-size="14.00" fill="#000000">    </text>
<text text-anchor="start" x="790.9463" y="-1178.3" font-family="Arial" font-size="14.00" fill="#666666">[BASE TABLE]</text>
<polygon fill="none" stroke="#000000" points="585,-1135.5 585,-1165.5 891,-1165.5 891,-1135.5 585,-1135.5"/>
<text text-anchor="start" x="592" y="-1146.9" font-family="Arial" font-size="14.00" fill="#000000">id    </text>
<text text-anchor="start" x="637.094" y="-1146.9" font-family="Arial" font-size="14.00" fill="#666666">[integer]</text>
<polygon fill="none" stroke="#000000" points="585,-1105.5 585,-1135.5 891,-1135.5 891,-1105.5 585,-1105.5"/>
<text text-anchor="start" x="592" y="-1116.9" font-family="Arial" font-size="14.00" fill="#000000">owning_lib    </text>
<text text-anchor="start" x="692.3268" y="-1116.9" font-family="Arial" font-size="14.00" fill="#666666">[integer]</text>
<polygon fill="none" stroke="#000000" points="585,-1075.5 585,-1105.5 891,-1105.5 891,-1075.5 585,-1075.5"/>
<text text-anchor="start" x="592" y="-1086.9" font-family="Arial" font-size="14.00" fill="#000000">creator    </text>
<text text-anchor="start" x="669.7644" y="-1086.9" font-family="Arial" font-size="14.00" fill="#666666">[bigint]</text>
<polygon fill="none" stroke="#000000" points="585,-1045.5 585,-1075.5 891,-1075.5 891,-1045.5 585,-1045.5"/>
<text text-anchor="start" x="592" y="-1056.9" font-family="Arial" font-size="14.00" fill="#000000">editor    </text>
<text text-anchor="start" x="661.2104" y="-1056.9" font-family="Arial" font-size="14.00" fill="#666666">[bigint]</text>
<polygon fill="none" stroke="#000000" points="585,-1015.5 585,-1045.5 891,-1045.5 891,-1015.5 585,-1015.5"/>
<text text-anchor="start" x="592" y="-1026.9" font-family="Arial" font-size="14.00" fill="#000000">create_date    </text>
<text text-anchor="start" x="700.1248" y="-1026.9" font-family="Arial" font-size="14.00" fill="#666666">[timestamp with time zone]</text>
<polygon fill="none" stroke="#000000" points="585,-985.5 585,-1015.5 891,-1015.5 891,-985.5 585,-985.5"/>
<text text-anchor="start" x="592" y="-996.9" font-family="Arial" font-size="14.00" fill="#000000">edit_date    </text>
<text text-anchor="start" x="683.7882" y="-996.9" font-family="Arial" font-size="14.00" fill="#666666">[timestamp with time zone]</text>
<polygon fill="none" stroke="#000000" points="585,-955.5 585,-985.5 891,-985.5 891,-955.5 585,-955.5"/>
<text text-anchor="start" x="592" y="-966.9" font-family="Arial" font-size="14.00" fill="#000000">name    </text>
<text text-anchor="start" x="661.2132" y="-966.9" font-family="Arial" font-size="14.00" fill="#666666">[text]</text>
<polygon fill="none" stroke="#000000" points="585,-925.5 585,-955.5 891,-955.5 891,-925.5 585,-925.5"/>
<text text-anchor="start" x="592" y="-936.9" font-family="Arial" font-size="14.00" fill="#000000">circ_lib    </text>
<text text-anchor="start" x="669.7504" y="-936.9" font-family="Arial" font-size="14.00" fill="#666666">[integer]</text>
<polygon fill="none" stroke="#000000" points="585,-895.5 585,-925.5 891,-925.5 891,-895.5 585,-895.5"/>
<text text-anchor="start" x="592" y="-906.9" font-family="Arial" font-size="14.00" fill="#000000">status    </text>
<text text-anchor="start" x="663.5512" y="-906.9" font-family="Arial" font-size="14.00" fill="#666666">[integer]</text>
<polygon fill="none" stroke="#000000" points="585,-865.5 585,-895.5 891,-895.5 891,-865.5 585,-865.5"/>
<text text-anchor="start" x="592" y="-876.9" font-family="Arial" font-size="14.00" fill="#000000">location    </text>
<text text-anchor="start" x="674.439" y="-876.9" font-family="Arial" font-size="14.00" fill="#666666">[integer]</text>
<polygon fill="none" stroke="#000000" points="585,-835.5 585,-865.5 891,-865.5 891,-835.5 585,-835.5"/>
<text text-anchor="start" x="592" y="-846.9" font-family="Arial" font-size="14.00" fill="#000000">loan_duration    </text>
<text text-anchor="start" x="711.0126" y="-846.9" font-family="Arial" font-size="14.00" fill="#666666">[integer]</text>
<polygon fill="none" stroke="#000000" points="585,-805.5 585,-835.5 891,-835.5 891,-805.5 585,-805.5"/>
<text text-anchor="start" x="592" y="-816.9" font-family="Arial" font-size="14.00" fill="#000000">fine_level    </text>
<text text-anchor="start" x="685.3282" y="-816.9" font-family="Arial" font-size="14.00" fill="#666666">[integer]</text>
<polygon fill="none" stroke="#000000" points="585,-775.5 585,-805.5 891,-805.5 891,-775.5 585,-775.5"/>
<text text-anchor="start" x="592" y="-786.9" font-family="Arial" font-size="14.00" fill="#000000">age_protect    </text>
<text text-anchor="start" x="700.1248" y="-786.9" font-family="Arial" font-size="14.00" fill="#666666">[integer]</text>
<polygon fill="none" stroke="#000000" points="585,-745.5 585,-775.5 891,-775.5 891,-745.5 585,-745.5"/>
<text text-anchor="start" x="592" y="-756.9" font-family="Arial" font-size="14.00" fill="#000000">circulate    </text>
<text text-anchor="start" x="678.317" y="-756.9" font-family="Arial" font-size="14.00" fill="#666666">[boolean]</text>
<polygon fill="none" stroke="#000000" points="585,-715.5 585,-745.5 891,-745.5 891,-715.5 585,-715.5"/>
<text text-anchor="start" x="592" y="-726.9" font-family="Arial" font-size="14.00" fill="#000000">deposit    </text>
<text text-anchor="start" x="671.3324" y="-726.9" font-family="Arial" font-size="14.00" fill="#666666">[boolean]</text>
<polygon fill="none" stroke="#000000" points="585,-685.5 585,-715.5 891,-715.5 891,-685.5 585,-685.5"/>
<text text-anchor="start" x="592" y="-696.9" font-family="Arial" font-size="14.00" fill="#000000">ref    </text>
<text text-anchor="start" x="642.5386" y="-696.9" font-family="Arial" font-size="14.00" fill="#666666">[boolean]</text>
<polygon fill="none" stroke="#000000" points="585,-655.5 585,-685.5 891,-685.5 891,-655.5 585,-655.5"/>
<text text-anchor="start" x="592" y="-666.9" font-family="Arial" font-size="14.00" fill="#000000">holdable    </text>
<text text-anchor="start" x="679.1136" y="-666.9" font-family="Arial" font-size="14.00" fill="#666666">[boolean]</text>
<polygon fill="none" stroke="#000000" points="585,-625.5 585,-655.5 891,-655.5 891,-625.5 585,-625.5"/>
<text text-anchor="start" x="592" y="-636.9" font-family="Arial" font-size="14.00" fill="#000000">deposit_amount    </text>
<text text-anchor="start" x="725.7966" y="-636.9" font-family="Arial" font-size="14.00" fill="#666666">[numeric(6,2)]</text>
<polygon fill="none" stroke="#000000" points="585,-595.5 585,-625.5 891,-625.5 891,-595.5 585,-595.5"/>
<text text-anchor="start" x="592" y="-606.9" font-family="Arial" font-size="14.00" fill="#000000">price    </text>
<text text-anchor="start" x="656.5372" y="-606.9" font-family="Arial" font-size="14.00" fill="#666666">[numeric(8,2)]</text>
<polygon fill="none" stroke="#000000" points="585,-565.5 585,-595.5 891,-595.5 891,-565.5 585,-565.5"/>
<text text-anchor="start" x="592" y="-576.9" font-family="Arial" font-size="14.00" fill="#000000">circ_modifier    </text>
<text text-anchor="start" x="705.5274" y="-576.9" font-family="Arial" font-size="14.00" fill="#666666">[text]</text>
<polygon fill="none" stroke="#000000" points="585,-535.5 585,-565.5 891,-565.5 891,-535.5 585,-535.5"/>
<text text-anchor="start" x="592" y="-546.9" font-family="Arial" font-size="14.00" fill="#000000">circ_as_type    </text>
<text text-anchor="start" x="704.7756" y="-546.9" font-family="Arial" font-size="14.00" fill="#666666">[text]</text>
<polygon fill="none" stroke="#000000" points="585,-505.5 585,-535.5 891,-535.5 891,-505.5 585,-505.5"/>
<text text-anchor="start" x="592" y="-516.9" font-family="Arial" font-size="14.00" fill="#000000">alert_message    </text>
<text text-anchor="start" x="718.0014" y="-516.9" font-family="Arial" font-size="14.00" fill="#666666">[text]</text>
<polygon fill="none" stroke="#000000" points="585,-475.5 585,-505.5 891,-505.5 891,-475.5 585,-475.5"/>
<text text-anchor="start" x="592" y="-486.9" font-family="Arial" font-size="14.00" fill="#000000">opac_visible    </text>
<text text-anchor="start" x="703.2202" y="-486.9" font-family="Arial" font-size="14.00" fill="#666666">[boolean]</text>
<polygon fill="none" stroke="#000000" points="585,-445.5 585,-475.5 891,-475.5 891,-445.5 585,-445.5"/>
<text text-anchor="start" x="592" y="-456.9" font-family="Arial" font-size="14.00" fill="#000000">floating    </text>
<text text-anchor="start" x="671.3296" y="-456.9" font-family="Arial" font-size="14.00" fill="#666666">[integer]</text>
<polygon fill="none" stroke="#000000" points="585,-415.5 585,-445.5 891,-445.5 891,-415.5 585,-415.5"/>
<text text-anchor="start" x="592" y="-426.9" font-family="Arial" font-size="14.00" fill="#000000">mint_condition    </text>
<text text-anchor="start" x="716.4446" y="-426.9" font-family="Arial" font-size="14.00" fill="#666666">[boolean]</text>
</g>
<!-- asset.copy_template&#45;&gt;config.floating_group -->
<g id="edge2" class="edge">
<title>asset.copy_template:floating&#45;&gt;config.floating_group:id</title>
<path fill="none" stroke="#000000" d="M899.1798,-454.5987C928.6975,-409.4502 926.8265,-120.5 892,-120.5"/>
<polygon fill="#000000" stroke="#000000" points="899.1098,-454.6492 888.3671,-456.8506 895.0549,-457.5746 891,-460.5 891,-460.5 891,-460.5 895.0549,-457.5746 893.6329,-464.1494 899.1098,-454.6492 899.1098,-454.6492"/>
<text text-anchor="start" x="898.369" y="-470.5" font-family="Arial" font-size="10.00" fill="#000000">FOREIGN KEY (floating) REFERENCES config.floating_group(id) DEFERRABLE INITIALLY DEFERRED</text>
</g>
<!-- config.floating_group_member -->
<g id="node4" class="node">
<title>config.floating_group_member</title>
<polygon fill="#efefef" stroke="transparent" points="995,-880.5 995,-915.5 1379,-915.5 1379,-880.5 995,-880.5"/>
<polygon fill="none" stroke="#000000" points="995,-880.5 995,-915.5 1379,-915.5 1379,-880.5 995,-880.5"/>
<text text-anchor="start" x="1001.6863" y="-893.3" font-family="Arial Bold" font-size="18.00" fill="#000000">config.floating_group_member</text>
<text text-anchor="start" x="1244.7457" y="-893.3" font-family="Arial" font-size="14.00" fill="#000000">    </text>
<text text-anchor="start" x="1278.9505" y="-893.3" font-family="Arial" font-size="14.00" fill="#666666">[BASE TABLE]</text>
<polygon fill="none" stroke="#000000" points="995,-850.5 995,-880.5 1379,-880.5 1379,-850.5 995,-850.5"/>
<text text-anchor="start" x="1002" y="-861.9" font-family="Arial" font-size="14.00" fill="#000000">id    </text>
<text text-anchor="start" x="1047.094" y="-861.9" font-family="Arial" font-size="14.00" fill="#666666">[integer]</text>
<polygon fill="none" stroke="#000000" points="995,-820.5 995,-850.5 1379,-850.5 1379,-820.5 995,-820.5"/>
<text text-anchor="start" x="1002" y="-831.9" font-family="Arial" font-size="14.00" fill="#000000">floating_group    </text>
<text text-anchor="start" x="1124.9032" y="-831.9" font-family="Arial" font-size="14.00" fill="#666666">[integer]</text>
<polygon fill="none" stroke="#000000" points="995,-790.5 995,-820.5 1379,-820.5 1379,-790.5 995,-790.5"/>
<text text-anchor="start" x="1002" y="-801.9" font-family="Arial" font-size="14.00" fill="#000000">org_unit    </text>
<text text-anchor="start" x="1086.7756" y="-801.9" font-family="Arial" font-size="14.00" fill="#666666">[integer]</text>
<polygon fill="none" stroke="#000000" points="995,-760.5 995,-790.5 1379,-790.5 1379,-760.5 995,-760.5"/>
<text text-anchor="start" x="1002" y="-771.9" font-family="Arial" font-size="14.00" fill="#000000">stop_depth    </text>
<text text-anchor="start" x="1105.4642" y="-771.9" font-family="Arial" font-size="14.00" fill="#666666">[integer]</text>
<polygon fill="none" stroke="#000000" points="995,-730.5 995,-760.5 1379,-760.5 1379,-730.5 995,-730.5"/>
<text text-anchor="start" x="1002" y="-741.9" font-family="Arial" font-size="14.00" fill="#000000">max_depth    </text>
<text text-anchor="start" x="1105.4516" y="-741.9" font-family="Arial" font-size="14.00" fill="#666666">[integer]</text>
<polygon fill="none" stroke="#000000" points="995,-700.5 995,-730.5 1379,-730.5 1379,-700.5 995,-700.5"/>
<text text-anchor="start" x="1002" y="-711.9" font-family="Arial" font-size="14.00" fill="#000000">exclude    </text>
<text text-anchor="start" x="1084.4418" y="-711.9" font-family="Arial" font-size="14.00" fill="#666666">[boolean]</text>
</g>
<!-- config.floating_group_member&#45;&gt;config.floating_group -->
<g id="edge3" class="edge">
<title>config.floating_group_member:floating_group&#45;&gt;config.floating_group:id</title>
<path fill="none" stroke="#000000" d="M985.4733,-831.3114C932.8221,-782.0079 956.9266,-312.9568 943,-253 928.7232,-191.5358 955.1005,-120.5 892,-120.5"/>
<polygon fill="#000000" stroke="#000000" points="985.8457,-831.4751 993.1888,-839.6194 990.4229,-833.4876 995,-835.5 995,-835.5 995,-835.5 990.4229,-833.4876 996.8112,-831.3806 985.8457,-831.4751 985.8457,-831.4751"/>
<text text-anchor="start" x="1001.867" y="-845.5" font-family="Arial" font-size="10.00" fill="#000000">FOREIGN KEY (floating_group) REFERENCES config.floating_group(id)</text>
</g>
</g>
</svg>
