<?xml version="1.0" encoding="UTF-8" standalone="no"?>
<!DOCTYPE svg PUBLIC "-//W3C//DTD SVG 1.1//EN"
 "http://www.w3.org/Graphics/SVG/1.1/DTD/svg11.dtd">
<!-- Generated by graphviz version 2.40.1 (20161225.0304)
 -->
<!-- Title: config.standing Pages: 1 -->
<svg width="832pt" height="1822pt"
 viewBox="0.00 0.00 832.00 1822.00" xmlns="http://www.w3.org/2000/svg" xmlns:xlink="http://www.w3.org/1999/xlink">
<g id="graph0" class="graph" transform="scale(1 1) rotate(0) translate(4 1818)">
<title>config.standing</title>
<polygon fill="#ffffff" stroke="transparent" points="-4,4 -4,-1818 828,-1818 828,4 -4,4"/>
<!-- config.standing -->
<g id="node1" class="node">
<title>config.standing</title>
<polygon fill="#efefef" stroke="transparent" points="72,-105.5 72,-140.5 334,-140.5 334,-105.5 72,-105.5"/>
<polygon fill="none" stroke="#000000" points="72,-105.5 72,-140.5 334,-140.5 334,-105.5 72,-105.5"/>
<text text-anchor="start" x="78.6937" y="-118.3" font-family="Arial Bold" font-size="18.00" fill="#000000">config.standing</text>
<text text-anchor="start" x="199.7383" y="-118.3" font-family="Arial" font-size="14.00" fill="#000000">    </text>
<text text-anchor="start" x="233.9431" y="-118.3" font-family="Arial" font-size="14.00" fill="#666666">[BASE TABLE]</text>
<polygon fill="none" stroke="#000000" points="72,-75.5 72,-105.5 334,-105.5 334,-75.5 72,-75.5"/>
<text text-anchor="start" x="79" y="-86.9" font-family="Arial" font-size="14.00" fill="#000000">id </text>
<text text-anchor="start" x="93.7798" y="-86.9" font-family="Arial" font-size="14.00" fill="#666666">[integer]</text>
<polygon fill="none" stroke="#000000" points="72,-45.5 72,-75.5 334,-75.5 334,-45.5 72,-45.5"/>
<text text-anchor="start" x="79" y="-56.9" font-family="Arial" font-size="14.00" fill="#000000">value </text>
<text text-anchor="start" x="116.345" y="-56.9" font-family="Arial" font-size="14.00" fill="#666666">[text]</text>
<polygon fill="none" stroke="#000000" stroke-width="3" points="70.5,-44.5 70.5,-142.5 335.5,-142.5 335.5,-44.5 70.5,-44.5"/>
</g>
<!-- actor.usr -->
<g id="node2" class="node">
<title>actor.usr</title>
<polygon fill="#efefef" stroke="transparent" points="43,-1735.5 43,-1770.5 363,-1770.5 363,-1735.5 43,-1735.5"/>
<polygon fill="none" stroke="#000000" points="43,-1735.5 43,-1770.5 363,-1770.5 363,-1735.5 43,-1735.5"/>
<text text-anchor="start" x="104.2123" y="-1748.3" font-family="Arial Bold" font-size="18.00" fill="#000000">actor.usr</text>
<text text-anchor="start" x="174.2197" y="-1748.3" font-family="Arial" font-size="14.00" fill="#000000">    </text>
<text text-anchor="start" x="208.4245" y="-1748.3" font-family="Arial" font-size="14.00" fill="#666666">[BASE TABLE]</text>
<polygon fill="none" stroke="#000000" points="43,-1705.5 43,-1735.5 363,-1735.5 363,-1705.5 43,-1705.5"/>
<text text-anchor="start" x="50" y="-1716.9" font-family="Arial" font-size="14.00" fill="#000000">id    </text>
<text text-anchor="start" x="95.094" y="-1716.9" font-family="Arial" font-size="14.00" fill="#666666">[integer]</text>
<polygon fill="none" stroke="#000000" points="43,-1675.5 43,-1705.5 363,-1705.5 363,-1675.5 43,-1675.5"/>
<text text-anchor="start" x="50" y="-1686.9" font-family="Arial" font-size="14.00" fill="#000000">card    </text>
<text text-anchor="start" x="111.4306" y="-1686.9" font-family="Arial" font-size="14.00" fill="#666666">[integer]</text>
<polygon fill="none" stroke="#000000" points="43,-1645.5 43,-1675.5 363,-1675.5 363,-1645.5 43,-1645.5"/>
<text text-anchor="start" x="50" y="-1656.9" font-family="Arial" font-size="14.00" fill="#000000">profile    </text>
<text text-anchor="start" x="122.317" y="-1656.9" font-family="Arial" font-size="14.00" fill="#666666">[integer]</text>
<polygon fill="none" stroke="#000000" points="43,-1615.5 43,-1645.5 363,-1645.5 363,-1615.5 43,-1615.5"/>
<text text-anchor="start" x="50" y="-1626.9" font-family="Arial" font-size="14.00" fill="#000000">usrname    </text>
<text text-anchor="start" x="138.6564" y="-1626.9" font-family="Arial" font-size="14.00" fill="#666666">[text]</text>
<polygon fill="none" stroke="#000000" points="43,-1585.5 43,-1615.5 363,-1615.5 363,-1585.5 43,-1585.5"/>
<text text-anchor="start" x="50" y="-1596.9" font-family="Arial" font-size="14.00" fill="#000000">email    </text>
<text text-anchor="start" x="117.6438" y="-1596.9" font-family="Arial" font-size="14.00" fill="#666666">[text]</text>
<polygon fill="none" stroke="#000000" points="43,-1555.5 43,-1585.5 363,-1585.5 363,-1555.5 43,-1555.5"/>
<text text-anchor="start" x="50" y="-1566.9" font-family="Arial" font-size="14.00" fill="#000000">passwd    </text>
<text text-anchor="start" x="131.6592" y="-1566.9" font-family="Arial" font-size="14.00" fill="#666666">[text]</text>
<polygon fill="none" stroke="#000000" points="43,-1525.5 43,-1555.5 363,-1555.5 363,-1525.5 43,-1525.5"/>
<text text-anchor="start" x="50" y="-1536.9" font-family="Arial" font-size="14.00" fill="#000000">standing    </text>
<text text-anchor="start" x="137.115" y="-1536.9" font-family="Arial" font-size="14.00" fill="#666666">[integer]</text>
<polygon fill="none" stroke="#000000" points="43,-1495.5 43,-1525.5 363,-1525.5 363,-1495.5 43,-1495.5"/>
<text text-anchor="start" x="50" y="-1506.9" font-family="Arial" font-size="14.00" fill="#000000">ident_type    </text>
<text text-anchor="start" x="148.7882" y="-1506.9" font-family="Arial" font-size="14.00" fill="#666666">[integer]</text>
<polygon fill="none" stroke="#000000" points="43,-1465.5 43,-1495.5 363,-1495.5 363,-1465.5 43,-1465.5"/>
<text text-anchor="start" x="50" y="-1476.9" font-family="Arial" font-size="14.00" fill="#000000">ident_value    </text>
<text text-anchor="start" x="155.7868" y="-1476.9" font-family="Arial" font-size="14.00" fill="#666666">[text]</text>
<polygon fill="none" stroke="#000000" points="43,-1435.5 43,-1465.5 363,-1465.5 363,-1435.5 43,-1435.5"/>
<text text-anchor="start" x="50" y="-1446.9" font-family="Arial" font-size="14.00" fill="#000000">ident_type2    </text>
<text text-anchor="start" x="156.5708" y="-1446.9" font-family="Arial" font-size="14.00" fill="#666666">[integer]</text>
<polygon fill="none" stroke="#000000" points="43,-1405.5 43,-1435.5 363,-1435.5 363,-1405.5 43,-1405.5"/>
<text text-anchor="start" x="50" y="-1416.9" font-family="Arial" font-size="14.00" fill="#000000">ident_value2    </text>
<text text-anchor="start" x="163.5694" y="-1416.9" font-family="Arial" font-size="14.00" fill="#666666">[text]</text>
<polygon fill="none" stroke="#000000" points="43,-1375.5 43,-1405.5 363,-1405.5 363,-1375.5 43,-1375.5"/>
<text text-anchor="start" x="50" y="-1386.9" font-family="Arial" font-size="14.00" fill="#000000">net_access_level    </text>
<text text-anchor="start" x="191.5694" y="-1386.9" font-family="Arial" font-size="14.00" fill="#666666">[integer]</text>
<polygon fill="none" stroke="#000000" points="43,-1345.5 43,-1375.5 363,-1375.5 363,-1345.5 43,-1345.5"/>
<text text-anchor="start" x="50" y="-1356.9" font-family="Arial" font-size="14.00" fill="#000000">photo_url    </text>
<text text-anchor="start" x="142.5582" y="-1356.9" font-family="Arial" font-size="14.00" fill="#666666">[text]</text>
<polygon fill="none" stroke="#000000" points="43,-1315.5 43,-1345.5 363,-1345.5 363,-1315.5 43,-1315.5"/>
<text text-anchor="start" x="50" y="-1326.9" font-family="Arial" font-size="14.00" fill="#000000">prefix    </text>
<text text-anchor="start" x="118.4278" y="-1326.9" font-family="Arial" font-size="14.00" fill="#666666">[text]</text>
<polygon fill="none" stroke="#000000" points="43,-1285.5 43,-1315.5 363,-1315.5 363,-1285.5 43,-1285.5"/>
<text text-anchor="start" x="50" y="-1296.9" font-family="Arial" font-size="14.00" fill="#000000">first_given_name    </text>
<text text-anchor="start" x="190.7812" y="-1296.9" font-family="Arial" font-size="14.00" fill="#666666">[text]</text>
<polygon fill="none" stroke="#000000" points="43,-1255.5 43,-1285.5 363,-1285.5 363,-1255.5 43,-1255.5"/>
<text text-anchor="start" x="50" y="-1266.9" font-family="Arial" font-size="14.00" fill="#000000">second_given_name    </text>
<text text-anchor="start" x="213.3632" y="-1266.9" font-family="Arial" font-size="14.00" fill="#666666">[text]</text>
<polygon fill="none" stroke="#000000" points="43,-1225.5 43,-1255.5 363,-1255.5 363,-1225.5 43,-1225.5"/>
<text text-anchor="start" x="50" y="-1236.9" font-family="Arial" font-size="14.00" fill="#000000">family_name    </text>
<text text-anchor="start" x="163.5428" y="-1236.9" font-family="Arial" font-size="14.00" fill="#666666">[text]</text>
<polygon fill="none" stroke="#000000" points="43,-1195.5 43,-1225.5 363,-1225.5 363,-1195.5 43,-1195.5"/>
<text text-anchor="start" x="50" y="-1206.9" font-family="Arial" font-size="14.00" fill="#000000">suffix    </text>
<text text-anchor="start" x="116.8752" y="-1206.9" font-family="Arial" font-size="14.00" fill="#666666">[text]</text>
<polygon fill="none" stroke="#000000" points="43,-1165.5 43,-1195.5 363,-1195.5 363,-1165.5 43,-1165.5"/>
<text text-anchor="start" x="50" y="-1176.9" font-family="Arial" font-size="14.00" fill="#000000">alias    </text>
<text text-anchor="start" x="112.9832" y="-1176.9" font-family="Arial" font-size="14.00" fill="#666666">[text]</text>
<polygon fill="none" stroke="#000000" points="43,-1135.5 43,-1165.5 363,-1165.5 363,-1135.5 43,-1135.5"/>
<text text-anchor="start" x="50" y="-1146.9" font-family="Arial" font-size="14.00" fill="#000000">day_phone    </text>
<text text-anchor="start" x="153.4656" y="-1146.9" font-family="Arial" font-size="14.00" fill="#666666">[text]</text>
<polygon fill="none" stroke="#000000" points="43,-1105.5 43,-1135.5 363,-1135.5 363,-1105.5 43,-1105.5"/>
<text text-anchor="start" x="50" y="-1116.9" font-family="Arial" font-size="14.00" fill="#000000">evening_phone    </text>
<text text-anchor="start" x="179.92" y="-1116.9" font-family="Arial" font-size="14.00" fill="#666666">[text]</text>
<polygon fill="none" stroke="#000000" points="43,-1075.5 43,-1105.5 363,-1105.5 363,-1075.5 43,-1075.5"/>
<text text-anchor="start" x="50" y="-1086.9" font-family="Arial" font-size="14.00" fill="#000000">other_phone    </text>
<text text-anchor="start" x="162.7994" y="-1086.9" font-family="Arial" font-size="14.00" fill="#666666">[text]</text>
<polygon fill="none" stroke="#000000" points="43,-1045.5 43,-1075.5 363,-1075.5 363,-1045.5 43,-1045.5"/>
<text text-anchor="start" x="50" y="-1056.9" font-family="Arial" font-size="14.00" fill="#000000">mailing_address    </text>
<text text-anchor="start" x="186.1066" y="-1056.9" font-family="Arial" font-size="14.00" fill="#666666">[integer]</text>
<polygon fill="none" stroke="#000000" points="43,-1015.5 43,-1045.5 363,-1045.5 363,-1015.5 43,-1015.5"/>
<text text-anchor="start" x="50" y="-1026.9" font-family="Arial" font-size="14.00" fill="#000000">billing_address    </text>
<text text-anchor="start" x="177.5526" y="-1026.9" font-family="Arial" font-size="14.00" fill="#666666">[integer]</text>
<polygon fill="none" stroke="#000000" points="43,-985.5 43,-1015.5 363,-1015.5 363,-985.5 43,-985.5"/>
<text text-anchor="start" x="50" y="-996.9" font-family="Arial" font-size="14.00" fill="#000000">home_ou    </text>
<text text-anchor="start" x="142.561" y="-996.9" font-family="Arial" font-size="14.00" fill="#666666">[integer]</text>
<polygon fill="none" stroke="#000000" points="43,-955.5 43,-985.5 363,-985.5 363,-955.5 43,-955.5"/>
<text text-anchor="start" x="50" y="-966.9" font-family="Arial" font-size="14.00" fill="#000000">dob    </text>
<text text-anchor="start" x="107.5526" y="-966.9" font-family="Arial" font-size="14.00" fill="#666666">[date]</text>
<polygon fill="none" stroke="#000000" points="43,-925.5 43,-955.5 363,-955.5 363,-925.5 43,-925.5"/>
<text text-anchor="start" x="50" y="-936.9" font-family="Arial" font-size="14.00" fill="#000000">active    </text>
<text text-anchor="start" x="120.7672" y="-936.9" font-family="Arial" font-size="14.00" fill="#666666">[boolean]</text>
<polygon fill="none" stroke="#000000" points="43,-895.5 43,-925.5 363,-925.5 363,-895.5 43,-895.5"/>
<text text-anchor="start" x="50" y="-906.9" font-family="Arial" font-size="14.00" fill="#000000">master_account    </text>
<text text-anchor="start" x="183.7854" y="-906.9" font-family="Arial" font-size="14.00" fill="#666666">[boolean]</text>
<polygon fill="none" stroke="#000000" points="43,-865.5 43,-895.5 363,-895.5 363,-865.5 43,-865.5"/>
<text text-anchor="start" x="50" y="-876.9" font-family="Arial" font-size="14.00" fill="#000000">super_user    </text>
<text text-anchor="start" x="154.2216" y="-876.9" font-family="Arial" font-size="14.00" fill="#666666">[boolean]</text>
<polygon fill="none" stroke="#000000" points="43,-835.5 43,-865.5 363,-865.5 363,-835.5 43,-835.5"/>
<text text-anchor="start" x="50" y="-846.9" font-family="Arial" font-size="14.00" fill="#000000">barred    </text>
<text text-anchor="start" x="124.6564" y="-846.9" font-family="Arial" font-size="14.00" fill="#666666">[boolean]</text>
<polygon fill="none" stroke="#000000" points="43,-805.5 43,-835.5 363,-835.5 363,-805.5 43,-805.5"/>
<text text-anchor="start" x="50" y="-816.9" font-family="Arial" font-size="14.00" fill="#000000">deleted    </text>
<text text-anchor="start" x="130.115" y="-816.9" font-family="Arial" font-size="14.00" fill="#666666">[boolean]</text>
<polygon fill="none" stroke="#000000" points="43,-775.5 43,-805.5 363,-805.5 363,-775.5 43,-775.5"/>
<text text-anchor="start" x="50" y="-786.9" font-family="Arial" font-size="14.00" fill="#000000">juvenile    </text>
<text text-anchor="start" x="131.655" y="-786.9" font-family="Arial" font-size="14.00" fill="#666666">[boolean]</text>
<polygon fill="none" stroke="#000000" points="43,-745.5 43,-775.5 363,-775.5 363,-745.5 43,-745.5"/>
<text text-anchor="start" x="50" y="-756.9" font-family="Arial" font-size="14.00" fill="#000000">usrgroup    </text>
<text text-anchor="start" x="139.439" y="-756.9" font-family="Arial" font-size="14.00" fill="#666666">[integer]</text>
<polygon fill="none" stroke="#000000" points="43,-715.5 43,-745.5 363,-745.5 363,-715.5 43,-715.5"/>
<text text-anchor="start" x="50" y="-726.9" font-family="Arial" font-size="14.00" fill="#000000">claims_returned_count    </text>
<text text-anchor="start" x="225.7896" y="-726.9" font-family="Arial" font-size="14.00" fill="#666666">[integer]</text>
<polygon fill="none" stroke="#000000" points="43,-685.5 43,-715.5 363,-715.5 363,-685.5 43,-685.5"/>
<text text-anchor="start" x="50" y="-696.9" font-family="Arial" font-size="14.00" fill="#000000">credit_forward_balance    </text>
<text text-anchor="start" x="229.6788" y="-696.9" font-family="Arial" font-size="14.00" fill="#666666">[numeric(6,2)]</text>
<polygon fill="none" stroke="#000000" points="43,-655.5 43,-685.5 363,-685.5 363,-655.5 43,-655.5"/>
<text text-anchor="start" x="50" y="-666.9" font-family="Arial" font-size="14.00" fill="#000000">last_xact_id    </text>
<text text-anchor="start" x="158.1122" y="-666.9" font-family="Arial" font-size="14.00" fill="#666666">[text]</text>
<polygon fill="none" stroke="#000000" points="43,-625.5 43,-655.5 363,-655.5 363,-625.5 43,-625.5"/>
<text text-anchor="start" x="50" y="-636.9" font-family="Arial" font-size="14.00" fill="#000000">alert_message    </text>
<text text-anchor="start" x="176.0014" y="-636.9" font-family="Arial" font-size="14.00" fill="#666666">[text]</text>
<polygon fill="none" stroke="#000000" points="43,-595.5 43,-625.5 363,-625.5 363,-595.5 43,-595.5"/>
<text text-anchor="start" x="50" y="-606.9" font-family="Arial" font-size="14.00" fill="#000000">create_date    </text>
<text text-anchor="start" x="158.1248" y="-606.9" font-family="Arial" font-size="14.00" fill="#666666">[timestamp with time zone]</text>
<polygon fill="none" stroke="#000000" points="43,-565.5 43,-595.5 363,-595.5 363,-565.5 43,-565.5"/>
<text text-anchor="start" x="50" y="-576.9" font-family="Arial" font-size="14.00" fill="#000000">expire_date    </text>
<text text-anchor="start" x="157.3408" y="-576.9" font-family="Arial" font-size="14.00" fill="#666666">[timestamp with time zone]</text>
<polygon fill="none" stroke="#000000" points="43,-535.5 43,-565.5 363,-565.5 363,-535.5 43,-535.5"/>
<text text-anchor="start" x="50" y="-546.9" font-family="Arial" font-size="14.00" fill="#000000">claims_never_checked_out_count    </text>
<text text-anchor="start" x="295.8246" y="-546.9" font-family="Arial" font-size="14.00" fill="#666666">[integer]</text>
<polygon fill="none" stroke="#000000" points="43,-505.5 43,-535.5 363,-535.5 363,-505.5 43,-505.5"/>
<text text-anchor="start" x="49.7609" y="-516.9" font-family="Arial" font-size="14.00" fill="#000000">last_update_time    </text>
<text text-anchor="start" x="190.5547" y="-516.9" font-family="Arial" font-size="14.00" fill="#666666">[timestamp with time zone]</text>
<polygon fill="none" stroke="#000000" points="43,-475.5 43,-505.5 363,-505.5 363,-475.5 43,-475.5"/>
<text text-anchor="start" x="50" y="-486.9" font-family="Arial" font-size="14.00" fill="#000000">pref_prefix    </text>
<text text-anchor="start" x="150.3268" y="-486.9" font-family="Arial" font-size="14.00" fill="#666666">[text]</text>
<polygon fill="none" stroke="#000000" points="43,-445.5 43,-475.5 363,-475.5 363,-445.5 43,-445.5"/>
<text text-anchor="start" x="50" y="-456.9" font-family="Arial" font-size="14.00" fill="#000000">pref_first_given_name    </text>
<text text-anchor="start" x="222.6802" y="-456.9" font-family="Arial" font-size="14.00" fill="#666666">[text]</text>
<polygon fill="none" stroke="#000000" points="43,-415.5 43,-445.5 363,-445.5 363,-415.5 43,-415.5"/>
<text text-anchor="start" x="50" y="-426.9" font-family="Arial" font-size="14.00" fill="#000000">pref_second_given_name    </text>
<text text-anchor="start" x="245.2622" y="-426.9" font-family="Arial" font-size="14.00" fill="#666666">[text]</text>
<polygon fill="none" stroke="#000000" points="43,-385.5 43,-415.5 363,-415.5 363,-385.5 43,-385.5"/>
<text text-anchor="start" x="50" y="-396.9" font-family="Arial" font-size="14.00" fill="#000000">pref_family_name    </text>
<text text-anchor="start" x="195.4418" y="-396.9" font-family="Arial" font-size="14.00" fill="#666666">[text]</text>
<polygon fill="none" stroke="#000000" points="43,-355.5 43,-385.5 363,-385.5 363,-355.5 43,-355.5"/>
<text text-anchor="start" x="50" y="-366.9" font-family="Arial" font-size="14.00" fill="#000000">pref_suffix    </text>
<text text-anchor="start" x="148.7742" y="-366.9" font-family="Arial" font-size="14.00" fill="#666666">[text]</text>
<polygon fill="none" stroke="#000000" points="43,-325.5 43,-355.5 363,-355.5 363,-325.5 43,-325.5"/>
<text text-anchor="start" x="50" y="-336.9" font-family="Arial" font-size="14.00" fill="#000000">name_keywords    </text>
<text text-anchor="start" x="186.1108" y="-336.9" font-family="Arial" font-size="14.00" fill="#666666">[text]</text>
<polygon fill="none" stroke="#000000" points="43,-295.5 43,-325.5 363,-325.5 363,-295.5 43,-295.5"/>
<text text-anchor="start" x="50" y="-306.9" font-family="Arial" font-size="14.00" fill="#000000">name_kw_tsvector    </text>
<text text-anchor="start" x="200.892" y="-306.9" font-family="Arial" font-size="14.00" fill="#666666">[tsvector]</text>
<polygon fill="none" stroke="#000000" points="43,-265.5 43,-295.5 363,-295.5 363,-265.5 43,-265.5"/>
<text text-anchor="start" x="50" y="-276.9" font-family="Arial" font-size="14.00" fill="#000000">guardian    </text>
<text text-anchor="start" x="138.6676" y="-276.9" font-family="Arial" font-size="14.00" fill="#666666">[text]</text>
</g>
<!-- actor.usr&#45;&gt;config.standing -->
<g id="edge1" class="edge">
<title>actor.usr:standing&#45;&gt;config.standing:id</title>
<path fill="none" stroke="#000000" d="M371.5202,-1534.6578C441.3483,-1434.8796 411.5817,-90.5 334,-90.5"/>
<polygon fill="#000000" stroke="#000000" points="371.2474,-1534.8448 360.4552,-1536.7887 367.1237,-1537.6724 363,-1540.5 363,-1540.5 363,-1540.5 367.1237,-1537.6724 365.5448,-1544.2113 371.2474,-1534.8448 371.2474,-1534.8448"/>
<text text-anchor="start" x="370.37" y="-1550.5" font-family="Arial" font-size="10.00" fill="#000000">FOREIGN KEY (standing) REFERENCES config.standing(id) DEFERRABLE INITIALLY DEFERRED</text>
</g>
</g>
</svg>
