<?xml version="1.0" encoding="UTF-8" standalone="no"?>
<!DOCTYPE svg PUBLIC "-//W3C//DTD SVG 1.1//EN"
 "http://www.w3.org/Graphics/SVG/1.1/DTD/svg11.dtd">
<!-- Generated by graphviz version 2.40.1 (20161225.0304)
 -->
<!-- Title: config.composite_attr_entry_definition Pages: 1 -->
<svg width="1068pt" height="622pt"
 viewBox="0.00 0.00 1068.00 622.00" xmlns="http://www.w3.org/2000/svg" xmlns:xlink="http://www.w3.org/1999/xlink">
<g id="graph0" class="graph" transform="scale(1 1) rotate(0) translate(4 618)">
<title>config.composite_attr_entry_definition</title>
<polygon fill="#ffffff" stroke="transparent" points="-4,4 -4,-618 1064,-618 1064,4 -4,4"/>
<!-- config.composite_attr_entry_definition -->
<g id="node1" class="node">
<title>config.composite_attr_entry_definition</title>
<polygon fill="#efefef" stroke="transparent" points="570,-532.5 570,-567.5 1014,-567.5 1014,-532.5 570,-532.5"/>
<polygon fill="none" stroke="#000000" points="570,-532.5 570,-567.5 1014,-567.5 1014,-532.5 570,-532.5"/>
<text text-anchor="start" x="576.6776" y="-545.3" font-family="Arial Bold" font-size="18.00" fill="#000000">config.composite_attr_entry_definition</text>
<text text-anchor="start" x="879.7544" y="-545.3" font-family="Arial" font-size="14.00" fill="#000000">    </text>
<text text-anchor="start" x="913.9592" y="-545.3" font-family="Arial" font-size="14.00" fill="#666666">[BASE TABLE]</text>
<polygon fill="none" stroke="#000000" points="570,-502.5 570,-532.5 1014,-532.5 1014,-502.5 570,-502.5"/>
<text text-anchor="start" x="577" y="-513.9" font-family="Arial" font-size="14.00" fill="#000000">coded_value </text>
<text text-anchor="start" x="660.258" y="-513.9" font-family="Arial" font-size="14.00" fill="#666666">[integer]</text>
<polygon fill="none" stroke="#000000" points="570,-472.5 570,-502.5 1014,-502.5 1014,-472.5 570,-472.5"/>
<text text-anchor="start" x="577" y="-483.9" font-family="Arial" font-size="14.00" fill="#000000">definition </text>
<text text-anchor="start" x="636.9046" y="-483.9" font-family="Arial" font-size="14.00" fill="#666666">[text]</text>
<polygon fill="none" stroke="#000000" stroke-width="3" points="568.5,-471.5 568.5,-569.5 1015.5,-569.5 1015.5,-471.5 568.5,-471.5"/>
</g>
<!-- config.coded_value_map -->
<g id="node2" class="node">
<title>config.coded_value_map</title>
<polygon fill="#efefef" stroke="transparent" points="621,-312.5 621,-347.5 962,-347.5 962,-312.5 621,-312.5"/>
<polygon fill="none" stroke="#000000" points="621,-312.5 621,-347.5 962,-347.5 962,-312.5 621,-312.5"/>
<text text-anchor="start" x="627.6801" y="-325.3" font-family="Arial Bold" font-size="18.00" fill="#000000">config.coded_value_map</text>
<text text-anchor="start" x="827.7519" y="-325.3" font-family="Arial" font-size="14.00" fill="#000000">    </text>
<text text-anchor="start" x="861.9567" y="-325.3" font-family="Arial" font-size="14.00" fill="#666666">[BASE TABLE]</text>
<polygon fill="none" stroke="#000000" points="621,-282.5 621,-312.5 962,-312.5 962,-282.5 621,-282.5"/>
<text text-anchor="start" x="628" y="-293.9" font-family="Arial" font-size="14.00" fill="#000000">id    </text>
<text text-anchor="start" x="673.094" y="-293.9" font-family="Arial" font-size="14.00" fill="#666666">[integer]</text>
<polygon fill="none" stroke="#000000" points="621,-252.5 621,-282.5 962,-282.5 962,-252.5 621,-252.5"/>
<text text-anchor="start" x="628" y="-263.9" font-family="Arial" font-size="14.00" fill="#000000">ctype    </text>
<text text-anchor="start" x="695.6606" y="-263.9" font-family="Arial" font-size="14.00" fill="#666666">[text]</text>
<polygon fill="none" stroke="#000000" points="621,-222.5 621,-252.5 962,-252.5 962,-222.5 621,-222.5"/>
<text text-anchor="start" x="628" y="-233.9" font-family="Arial" font-size="14.00" fill="#000000">code    </text>
<text text-anchor="start" x="692.5526" y="-233.9" font-family="Arial" font-size="14.00" fill="#666666">[text]</text>
<polygon fill="none" stroke="#000000" points="621,-192.5 621,-222.5 962,-222.5 962,-192.5 621,-192.5"/>
<text text-anchor="start" x="628" y="-203.9" font-family="Arial" font-size="14.00" fill="#000000">value    </text>
<text text-anchor="start" x="695.6592" y="-203.9" font-family="Arial" font-size="14.00" fill="#666666">[text]</text>
<polygon fill="none" stroke="#000000" points="621,-162.5 621,-192.5 962,-192.5 962,-162.5 621,-162.5"/>
<text text-anchor="start" x="628" y="-173.9" font-family="Arial" font-size="14.00" fill="#000000">description    </text>
<text text-anchor="start" x="729.8822" y="-173.9" font-family="Arial" font-size="14.00" fill="#666666">[text]</text>
<polygon fill="none" stroke="#000000" points="621,-132.5 621,-162.5 962,-162.5 962,-132.5 621,-132.5"/>
<text text-anchor="start" x="628" y="-143.9" font-family="Arial" font-size="14.00" fill="#000000">opac_visible    </text>
<text text-anchor="start" x="739.2202" y="-143.9" font-family="Arial" font-size="14.00" fill="#666666">[boolean]</text>
<polygon fill="none" stroke="#000000" points="621,-102.5 621,-132.5 962,-132.5 962,-102.5 621,-102.5"/>
<text text-anchor="start" x="628" y="-113.9" font-family="Arial" font-size="14.00" fill="#000000">search_label    </text>
<text text-anchor="start" x="741.5568" y="-113.9" font-family="Arial" font-size="14.00" fill="#666666">[text]</text>
<polygon fill="none" stroke="#000000" points="621,-72.5 621,-102.5 962,-102.5 962,-72.5 621,-72.5"/>
<text text-anchor="start" x="628" y="-83.9" font-family="Arial" font-size="14.00" fill="#000000">is_simple    </text>
<text text-anchor="start" x="720.533" y="-83.9" font-family="Arial" font-size="14.00" fill="#666666">[boolean]</text>
<polygon fill="none" stroke="#000000" points="621,-42.5 621,-72.5 962,-72.5 962,-42.5 621,-42.5"/>
<text text-anchor="start" x="628" y="-53.9" font-family="Arial" font-size="14.00" fill="#000000">concept_uri    </text>
<text text-anchor="start" x="734.5582" y="-53.9" font-family="Arial" font-size="14.00" fill="#666666">[text]</text>
</g>
<!-- config.composite_attr_entry_definition&#45;&gt;config.coded_value_map -->
<g id="edge1" class="edge">
<title>config.composite_attr_entry_definition:coded_value&#45;&gt;config.coded_value_map:id</title>
<path fill="none" stroke="#000000" d="M560.0614,-515.9729C532.3594,-506.3756 545.4318,-453.9278 570,-427 628.9598,-362.3774 903.0402,-455.6226 962,-391 990.0084,-360.3016 1003.5556,-297.5 962,-297.5"/>
<polygon fill="#000000" stroke="#000000" points="560.116,-515.9812 569.3166,-521.9478 565.058,-516.7406 570,-517.5 570,-517.5 570,-517.5 565.058,-516.7406 570.6834,-513.0522 560.116,-515.9812 560.116,-515.9812"/>
<text text-anchor="start" x="6.637" y="-527.5" font-family="Arial" font-size="10.00" fill="#000000">FOREIGN KEY (coded_value) REFERENCES config.coded_value_map(id) ON UPDATE CASCADE ON DELETE CASCADE</text>
</g>
</g>
</svg>
