<?xml version="1.0" encoding="UTF-8" standalone="no"?>
<!DOCTYPE svg PUBLIC "-//W3C//DTD SVG 1.1//EN"
 "http://www.w3.org/Graphics/SVG/1.1/DTD/svg11.dtd">
<!-- Generated by graphviz version 2.40.1 (20161225.0304)
 -->
<!-- Title: config.remote_account Pages: 1 -->
<svg width="932pt" height="952pt"
 viewBox="0.00 0.00 931.50 952.00" xmlns="http://www.w3.org/2000/svg" xmlns:xlink="http://www.w3.org/1999/xlink">
<g id="graph0" class="graph" transform="scale(1 1) rotate(0) translate(4 948)">
<title>config.remote_account</title>
<polygon fill="#ffffff" stroke="transparent" points="-4,4 -4,-948 927.5,-948 927.5,4 -4,4"/>
<!-- config.remote_account -->
<g id="node1" class="node">
<title>config.remote_account</title>
<polygon fill="#efefef" stroke="transparent" points="555,-862.5 555,-897.5 878,-897.5 878,-862.5 555,-862.5"/>
<polygon fill="none" stroke="#000000" points="555,-862.5 555,-897.5 878,-897.5 878,-862.5 555,-862.5"/>
<text text-anchor="start" x="561.6882" y="-875.3" font-family="Arial Bold" font-size="18.00" fill="#000000">config.remote_account</text>
<text text-anchor="start" x="743.7438" y="-875.3" font-family="Arial" font-size="14.00" fill="#000000">    </text>
<text text-anchor="start" x="777.9486" y="-875.3" font-family="Arial" font-size="14.00" fill="#666666">[BASE TABLE]</text>
<polygon fill="none" stroke="#000000" points="555,-832.5 555,-862.5 878,-862.5 878,-832.5 555,-832.5"/>
<text text-anchor="start" x="562" y="-843.9" font-family="Arial" font-size="14.00" fill="#000000">id </text>
<text text-anchor="start" x="576.7798" y="-843.9" font-family="Arial" font-size="14.00" fill="#666666">[integer]</text>
<polygon fill="none" stroke="#000000" points="555,-802.5 555,-832.5 878,-832.5 878,-802.5 555,-802.5"/>
<text text-anchor="start" x="562" y="-813.9" font-family="Arial" font-size="14.00" fill="#000000">label </text>
<text text-anchor="start" x="595.4516" y="-813.9" font-family="Arial" font-size="14.00" fill="#666666">[text]</text>
<polygon fill="none" stroke="#000000" points="555,-772.5 555,-802.5 878,-802.5 878,-772.5 555,-772.5"/>
<text text-anchor="start" x="562" y="-783.9" font-family="Arial" font-size="14.00" fill="#000000">host </text>
<text text-anchor="start" x="592.3464" y="-783.9" font-family="Arial" font-size="14.00" fill="#666666">[text]</text>
<polygon fill="none" stroke="#000000" points="555,-742.5 555,-772.5 878,-772.5 878,-742.5 555,-742.5"/>
<text text-anchor="start" x="562" y="-753.9" font-family="Arial" font-size="14.00" fill="#000000">username </text>
<text text-anchor="start" x="628.1248" y="-753.9" font-family="Arial" font-size="14.00" fill="#666666">[text]</text>
<polygon fill="none" stroke="#000000" points="555,-712.5 555,-742.5 878,-742.5 878,-712.5 555,-712.5"/>
<text text-anchor="start" x="562" y="-723.9" font-family="Arial" font-size="14.00" fill="#000000">password </text>
<text text-anchor="start" x="625.7882" y="-723.9" font-family="Arial" font-size="14.00" fill="#666666">[text]</text>
<polygon fill="none" stroke="#000000" points="555,-682.5 555,-712.5 878,-712.5 878,-682.5 555,-682.5"/>
<text text-anchor="start" x="562" y="-693.9" font-family="Arial" font-size="14.00" fill="#000000">account </text>
<text text-anchor="start" x="614.9116" y="-693.9" font-family="Arial" font-size="14.00" fill="#666666">[text]</text>
<polygon fill="none" stroke="#000000" points="555,-652.5 555,-682.5 878,-682.5 878,-652.5 555,-652.5"/>
<text text-anchor="start" x="562" y="-663.9" font-family="Arial" font-size="14.00" fill="#000000">path </text>
<text text-anchor="start" x="593.129" y="-663.9" font-family="Arial" font-size="14.00" fill="#666666">[text]</text>
<polygon fill="none" stroke="#000000" points="555,-622.5 555,-652.5 878,-652.5 878,-622.5 555,-622.5"/>
<text text-anchor="start" x="562" y="-633.9" font-family="Arial" font-size="14.00" fill="#000000">owner </text>
<text text-anchor="start" x="604.0056" y="-633.9" font-family="Arial" font-size="14.00" fill="#666666">[integer]</text>
<polygon fill="none" stroke="#000000" points="555,-592.5 555,-622.5 878,-622.5 878,-592.5 555,-592.5"/>
<text text-anchor="start" x="562" y="-603.9" font-family="Arial" font-size="14.00" fill="#000000">last_activity </text>
<text text-anchor="start" x="638.23" y="-603.9" font-family="Arial" font-size="14.00" fill="#666666">[timestamp with time zone]</text>
<polygon fill="none" stroke="#000000" stroke-width="3" points="553,-591.5 553,-899.5 879,-899.5 879,-591.5 553,-591.5"/>
</g>
<!-- actor.org_unit -->
<g id="node2" class="node">
<title>actor.org_unit</title>
<polygon fill="#efefef" stroke="transparent" points="591,-432.5 591,-467.5 842,-467.5 842,-432.5 591,-432.5"/>
<polygon fill="none" stroke="#000000" points="591,-432.5 591,-467.5 842,-467.5 842,-432.5 591,-432.5"/>
<text text-anchor="start" x="597.7017" y="-445.3" font-family="Arial Bold" font-size="18.00" fill="#000000">actor.org_unit</text>
<text text-anchor="start" x="707.7303" y="-445.3" font-family="Arial" font-size="14.00" fill="#000000">    </text>
<text text-anchor="start" x="741.9351" y="-445.3" font-family="Arial" font-size="14.00" fill="#666666">[BASE TABLE]</text>
<polygon fill="none" stroke="#000000" points="591,-402.5 591,-432.5 842,-432.5 842,-402.5 591,-402.5"/>
<text text-anchor="start" x="598" y="-413.9" font-family="Arial" font-size="14.00" fill="#000000">id    </text>
<text text-anchor="start" x="643.094" y="-413.9" font-family="Arial" font-size="14.00" fill="#666666">[integer]</text>
<polygon fill="none" stroke="#000000" points="591,-372.5 591,-402.5 842,-402.5 842,-372.5 591,-372.5"/>
<text text-anchor="start" x="598" y="-383.9" font-family="Arial" font-size="14.00" fill="#000000">parent_ou    </text>
<text text-anchor="start" x="695.2342" y="-383.9" font-family="Arial" font-size="14.00" fill="#666666">[integer]</text>
<polygon fill="none" stroke="#000000" points="591,-342.5 591,-372.5 842,-372.5 842,-342.5 591,-342.5"/>
<text text-anchor="start" x="598" y="-353.9" font-family="Arial" font-size="14.00" fill="#000000">ou_type    </text>
<text text-anchor="start" x="682.0084" y="-353.9" font-family="Arial" font-size="14.00" fill="#666666">[integer]</text>
<polygon fill="none" stroke="#000000" points="591,-312.5 591,-342.5 842,-342.5 842,-312.5 591,-312.5"/>
<text text-anchor="start" x="598" y="-323.9" font-family="Arial" font-size="14.00" fill="#000000">ill_address    </text>
<text text-anchor="start" x="699.0982" y="-323.9" font-family="Arial" font-size="14.00" fill="#666666">[integer]</text>
<polygon fill="none" stroke="#000000" points="591,-282.5 591,-312.5 842,-312.5 842,-282.5 591,-282.5"/>
<text text-anchor="start" x="598" y="-293.9" font-family="Arial" font-size="14.00" fill="#000000">holds_address    </text>
<text text-anchor="start" x="723.2328" y="-293.9" font-family="Arial" font-size="14.00" fill="#666666">[integer]</text>
<polygon fill="none" stroke="#000000" points="591,-252.5 591,-282.5 842,-282.5 842,-252.5 591,-252.5"/>
<text text-anchor="start" x="598" y="-263.9" font-family="Arial" font-size="14.00" fill="#000000">mailing_address    </text>
<text text-anchor="start" x="734.1066" y="-263.9" font-family="Arial" font-size="14.00" fill="#666666">[integer]</text>
<polygon fill="none" stroke="#000000" points="591,-222.5 591,-252.5 842,-252.5 842,-222.5 591,-222.5"/>
<text text-anchor="start" x="598" y="-233.9" font-family="Arial" font-size="14.00" fill="#000000">billing_address    </text>
<text text-anchor="start" x="725.5526" y="-233.9" font-family="Arial" font-size="14.00" fill="#666666">[integer]</text>
<polygon fill="none" stroke="#000000" points="591,-192.5 591,-222.5 842,-222.5 842,-192.5 591,-192.5"/>
<text text-anchor="start" x="598" y="-203.9" font-family="Arial" font-size="14.00" fill="#000000">shortname    </text>
<text text-anchor="start" x="698.3296" y="-203.9" font-family="Arial" font-size="14.00" fill="#666666">[text]</text>
<polygon fill="none" stroke="#000000" points="591,-162.5 591,-192.5 842,-192.5 842,-162.5 591,-162.5"/>
<text text-anchor="start" x="598" y="-173.9" font-family="Arial" font-size="14.00" fill="#000000">name    </text>
<text text-anchor="start" x="667.2132" y="-173.9" font-family="Arial" font-size="14.00" fill="#666666">[text]</text>
<polygon fill="none" stroke="#000000" points="591,-132.5 591,-162.5 842,-162.5 842,-132.5 591,-132.5"/>
<text text-anchor="start" x="598" y="-143.9" font-family="Arial" font-size="14.00" fill="#000000">email    </text>
<text text-anchor="start" x="665.6438" y="-143.9" font-family="Arial" font-size="14.00" fill="#666666">[text]</text>
<polygon fill="none" stroke="#000000" points="591,-102.5 591,-132.5 842,-132.5 842,-102.5 591,-102.5"/>
<text text-anchor="start" x="598" y="-113.9" font-family="Arial" font-size="14.00" fill="#000000">phone    </text>
<text text-anchor="start" x="671.1178" y="-113.9" font-family="Arial" font-size="14.00" fill="#666666">[text]</text>
<polygon fill="none" stroke="#000000" points="591,-72.5 591,-102.5 842,-102.5 842,-72.5 591,-72.5"/>
<text text-anchor="start" x="598" y="-83.9" font-family="Arial" font-size="14.00" fill="#000000">opac_visible    </text>
<text text-anchor="start" x="709.2202" y="-83.9" font-family="Arial" font-size="14.00" fill="#666666">[boolean]</text>
<polygon fill="none" stroke="#000000" points="591,-42.5 591,-72.5 842,-72.5 842,-42.5 591,-42.5"/>
<text text-anchor="start" x="598" y="-53.9" font-family="Arial" font-size="14.00" fill="#000000">fiscal_calendar    </text>
<text text-anchor="start" x="725.554" y="-53.9" font-family="Arial" font-size="14.00" fill="#666666">[integer]</text>
</g>
<!-- config.remote_account&#45;&gt;actor.org_unit -->
<g id="edge1" class="edge">
<title>config.remote_account:owner&#45;&gt;actor.org_unit:id</title>
<path fill="none" stroke="#000000" d="M544.7857,-636.6591C458.6057,-621.8888 495.5018,-417.5 591,-417.5"/>
<polygon fill="#000000" stroke="#000000" points="545.0337,-636.6794 554.6307,-641.9848 550.0169,-637.0897 555,-637.5 555,-637.5 555,-637.5 550.0169,-637.0897 555.3693,-633.0152 545.0337,-636.6794 545.0337,-636.6794"/>
<text text-anchor="start" x="7.433" y="-647.5" font-family="Arial" font-size="10.00" fill="#000000">FOREIGN KEY (owner) REFERENCES actor.org_unit(id) ON DELETE CASCADE DEFERRABLE INITIALLY DEFERRED</text>
</g>
</g>
</svg>
