<?xml version="1.0" encoding="UTF-8" standalone="no"?>
<!DOCTYPE svg PUBLIC "-//W3C//DTD SVG 1.1//EN"
 "http://www.w3.org/Graphics/SVG/1.1/DTD/svg11.dtd">
<!-- Generated by graphviz version 2.40.1 (20161225.0304)
 -->
<!-- Title: config.metabib_class Pages: 1 -->
<svg width="1351pt" height="1102pt"
 viewBox="0.00 0.00 1350.50 1102.00" xmlns="http://www.w3.org/2000/svg" xmlns:xlink="http://www.w3.org/1999/xlink">
<g id="graph0" class="graph" transform="scale(1 1) rotate(0) translate(4 1098)">
<title>config.metabib_class</title>
<polygon fill="#ffffff" stroke="transparent" points="-4,4 -4,-1098 1346.5,-1098 1346.5,4 -4,4"/>
<!-- config.metabib_class -->
<g id="node1" class="node">
<title>config.metabib_class</title>
<polygon fill="#efefef" stroke="transparent" points="522,-315.5 522,-350.5 831,-350.5 831,-315.5 522,-315.5"/>
<polygon fill="none" stroke="#000000" points="522,-315.5 522,-350.5 831,-350.5 831,-315.5 522,-315.5"/>
<text text-anchor="start" x="528.6974" y="-328.3" font-family="Arial Bold" font-size="18.00" fill="#000000">config.metabib_class</text>
<text text-anchor="start" x="696.7346" y="-328.3" font-family="Arial" font-size="14.00" fill="#000000">    </text>
<text text-anchor="start" x="730.9394" y="-328.3" font-family="Arial" font-size="14.00" fill="#666666">[BASE TABLE]</text>
<polygon fill="none" stroke="#000000" points="522,-285.5 522,-315.5 831,-315.5 831,-285.5 522,-285.5"/>
<text text-anchor="start" x="529" y="-296.9" font-family="Arial" font-size="14.00" fill="#000000">name </text>
<text text-anchor="start" x="567.899" y="-296.9" font-family="Arial" font-size="14.00" fill="#666666">[text]</text>
<polygon fill="none" stroke="#000000" points="522,-255.5 522,-285.5 831,-285.5 831,-255.5 522,-255.5"/>
<text text-anchor="start" x="529" y="-266.9" font-family="Arial" font-size="14.00" fill="#000000">label </text>
<text text-anchor="start" x="562.4516" y="-266.9" font-family="Arial" font-size="14.00" fill="#666666">[text]</text>
<polygon fill="none" stroke="#000000" points="522,-225.5 522,-255.5 831,-255.5 831,-225.5 522,-225.5"/>
<text text-anchor="start" x="529" y="-236.9" font-family="Arial" font-size="14.00" fill="#000000">buoyant </text>
<text text-anchor="start" x="582.6942" y="-236.9" font-family="Arial" font-size="14.00" fill="#666666">[boolean]</text>
<polygon fill="none" stroke="#000000" points="522,-195.5 522,-225.5 831,-225.5 831,-195.5 522,-195.5"/>
<text text-anchor="start" x="529" y="-206.9" font-family="Arial" font-size="14.00" fill="#000000">restrict </text>
<text text-anchor="start" x="574.8822" y="-206.9" font-family="Arial" font-size="14.00" fill="#666666">[boolean]</text>
<polygon fill="none" stroke="#000000" points="522,-165.5 522,-195.5 831,-195.5 831,-165.5 522,-165.5"/>
<text text-anchor="start" x="529" y="-176.9" font-family="Arial" font-size="14.00" fill="#000000">combined </text>
<text text-anchor="start" x="593.5708" y="-176.9" font-family="Arial" font-size="14.00" fill="#666666">[boolean]</text>
<polygon fill="none" stroke="#000000" points="522,-135.5 522,-165.5 831,-165.5 831,-135.5 522,-135.5"/>
<text text-anchor="start" x="529" y="-146.9" font-family="Arial" font-size="14.00" fill="#000000">a_weight </text>
<text text-anchor="start" x="588.9074" y="-146.9" font-family="Arial" font-size="14.00" fill="#666666">[numeric]</text>
<polygon fill="none" stroke="#000000" points="522,-105.5 522,-135.5 831,-135.5 831,-105.5 522,-105.5"/>
<text text-anchor="start" x="529" y="-116.9" font-family="Arial" font-size="14.00" fill="#000000">b_weight </text>
<text text-anchor="start" x="588.9074" y="-116.9" font-family="Arial" font-size="14.00" fill="#666666">[numeric]</text>
<polygon fill="none" stroke="#000000" points="522,-75.5 522,-105.5 831,-105.5 831,-75.5 522,-75.5"/>
<text text-anchor="start" x="529" y="-86.9" font-family="Arial" font-size="14.00" fill="#000000">c_weight </text>
<text text-anchor="start" x="588.1248" y="-86.9" font-family="Arial" font-size="14.00" fill="#666666">[numeric]</text>
<polygon fill="none" stroke="#000000" points="522,-45.5 522,-75.5 831,-75.5 831,-45.5 522,-45.5"/>
<text text-anchor="start" x="529" y="-56.9" font-family="Arial" font-size="14.00" fill="#000000">d_weight </text>
<text text-anchor="start" x="588.9074" y="-56.9" font-family="Arial" font-size="14.00" fill="#666666">[numeric]</text>
<polygon fill="none" stroke="#000000" stroke-width="3" points="520,-44.5 520,-352.5 832,-352.5 832,-44.5 520,-44.5"/>
</g>
<!-- config.metabib_class_ts_map -->
<g id="node2" class="node">
<title>config.metabib_class_ts_map</title>
<polygon fill="#efefef" stroke="transparent" points="43,-865.5 43,-900.5 421,-900.5 421,-865.5 43,-865.5"/>
<polygon fill="none" stroke="#000000" points="43,-865.5 43,-900.5 421,-900.5 421,-865.5 43,-865.5"/>
<text text-anchor="start" x="49.6878" y="-878.3" font-family="Arial Bold" font-size="18.00" fill="#000000">config.metabib_class_ts_map</text>
<text text-anchor="start" x="286.7442" y="-878.3" font-family="Arial" font-size="14.00" fill="#000000">    </text>
<text text-anchor="start" x="320.949" y="-878.3" font-family="Arial" font-size="14.00" fill="#666666">[BASE TABLE]</text>
<polygon fill="none" stroke="#000000" points="43,-835.5 43,-865.5 421,-865.5 421,-835.5 43,-835.5"/>
<text text-anchor="start" x="50" y="-846.9" font-family="Arial" font-size="14.00" fill="#000000">id    </text>
<text text-anchor="start" x="95.094" y="-846.9" font-family="Arial" font-size="14.00" fill="#666666">[integer]</text>
<polygon fill="none" stroke="#000000" points="43,-805.5 43,-835.5 421,-835.5 421,-805.5 43,-805.5"/>
<text text-anchor="start" x="50" y="-816.9" font-family="Arial" font-size="14.00" fill="#000000">field_class    </text>
<text text-anchor="start" x="149.5456" y="-816.9" font-family="Arial" font-size="14.00" fill="#666666">[text]</text>
<polygon fill="none" stroke="#000000" points="43,-775.5 43,-805.5 421,-805.5 421,-775.5 43,-775.5"/>
<text text-anchor="start" x="50" y="-786.9" font-family="Arial" font-size="14.00" fill="#000000">ts_config    </text>
<text text-anchor="start" x="140.223" y="-786.9" font-family="Arial" font-size="14.00" fill="#666666">[text]</text>
<polygon fill="none" stroke="#000000" points="43,-745.5 43,-775.5 421,-775.5 421,-745.5 43,-745.5"/>
<text text-anchor="start" x="50" y="-756.9" font-family="Arial" font-size="14.00" fill="#000000">active    </text>
<text text-anchor="start" x="120.7672" y="-756.9" font-family="Arial" font-size="14.00" fill="#666666">[boolean]</text>
<polygon fill="none" stroke="#000000" points="43,-715.5 43,-745.5 421,-745.5 421,-715.5 43,-715.5"/>
<text text-anchor="start" x="50" y="-726.9" font-family="Arial" font-size="14.00" fill="#000000">index_weight    </text>
<text text-anchor="start" x="165.8934" y="-726.9" font-family="Arial" font-size="14.00" fill="#666666">[character(1)]</text>
<polygon fill="none" stroke="#000000" points="43,-685.5 43,-715.5 421,-715.5 421,-685.5 43,-685.5"/>
<text text-anchor="start" x="50" y="-696.9" font-family="Arial" font-size="14.00" fill="#000000">index_lang    </text>
<text text-anchor="start" x="151.8962" y="-696.9" font-family="Arial" font-size="14.00" fill="#666666">[text]</text>
<polygon fill="none" stroke="#000000" points="43,-655.5 43,-685.5 421,-685.5 421,-655.5 43,-655.5"/>
<text text-anchor="start" x="50" y="-666.9" font-family="Arial" font-size="14.00" fill="#000000">search_lang    </text>
<text text-anchor="start" x="160.4502" y="-666.9" font-family="Arial" font-size="14.00" fill="#666666">[text]</text>
<polygon fill="none" stroke="#000000" points="43,-625.5 43,-655.5 421,-655.5 421,-625.5 43,-625.5"/>
<text text-anchor="start" x="50" y="-636.9" font-family="Arial" font-size="14.00" fill="#000000">always    </text>
<text text-anchor="start" x="126.9832" y="-636.9" font-family="Arial" font-size="14.00" fill="#666666">[boolean]</text>
</g>
<!-- config.metabib_class_ts_map&#45;&gt;config.metabib_class -->
<g id="edge1" class="edge">
<title>config.metabib_class_ts_map:field_class&#45;&gt;config.metabib_class:name</title>
<path fill="none" stroke="#000000" d="M430.9854,-819.0059C503.4303,-795.9974 452.8869,-513.8554 473,-433 488.1565,-372.0701 459.2133,-300.5 522,-300.5"/>
<polygon fill="#000000" stroke="#000000" points="430.8899,-819.0201 420.334,-816.0495 425.945,-819.76 421,-820.5 421,-820.5 421,-820.5 425.945,-819.76 421.666,-824.9505 430.8899,-819.0201 430.8899,-819.0201"/>
<text text-anchor="start" x="428.323" y="-830.5" font-family="Arial" font-size="10.00" fill="#000000">FOREIGN KEY (field_class) REFERENCES config.metabib_class(name)</text>
</g>
<!-- config.metabib_field -->
<g id="node3" class="node">
<title>config.metabib_field</title>
<polygon fill="#efefef" stroke="transparent" points="526,-1015.5 526,-1050.5 827,-1050.5 827,-1015.5 526,-1015.5"/>
<polygon fill="none" stroke="#000000" points="526,-1015.5 526,-1050.5 827,-1050.5 827,-1015.5 526,-1015.5"/>
<text text-anchor="start" x="532.6961" y="-1028.3" font-family="Arial Bold" font-size="18.00" fill="#000000">config.metabib_field</text>
<text text-anchor="start" x="692.7359" y="-1028.3" font-family="Arial" font-size="14.00" fill="#000000">    </text>
<text text-anchor="start" x="726.9407" y="-1028.3" font-family="Arial" font-size="14.00" fill="#666666">[BASE TABLE]</text>
<polygon fill="none" stroke="#000000" points="526,-985.5 526,-1015.5 827,-1015.5 827,-985.5 526,-985.5"/>
<text text-anchor="start" x="533" y="-996.9" font-family="Arial" font-size="14.00" fill="#000000">id    </text>
<text text-anchor="start" x="578.094" y="-996.9" font-family="Arial" font-size="14.00" fill="#666666">[integer]</text>
<polygon fill="none" stroke="#000000" points="526,-955.5 526,-985.5 827,-985.5 827,-955.5 526,-955.5"/>
<text text-anchor="start" x="533" y="-966.9" font-family="Arial" font-size="14.00" fill="#000000">field_class    </text>
<text text-anchor="start" x="632.5456" y="-966.9" font-family="Arial" font-size="14.00" fill="#666666">[text]</text>
<polygon fill="none" stroke="#000000" points="526,-925.5 526,-955.5 827,-955.5 827,-925.5 526,-925.5"/>
<text text-anchor="start" x="533" y="-936.9" font-family="Arial" font-size="14.00" fill="#000000">name    </text>
<text text-anchor="start" x="602.2132" y="-936.9" font-family="Arial" font-size="14.00" fill="#666666">[text]</text>
<polygon fill="none" stroke="#000000" points="526,-895.5 526,-925.5 827,-925.5 827,-895.5 526,-895.5"/>
<text text-anchor="start" x="533" y="-906.9" font-family="Arial" font-size="14.00" fill="#000000">label    </text>
<text text-anchor="start" x="596.7658" y="-906.9" font-family="Arial" font-size="14.00" fill="#666666">[text]</text>
<polygon fill="none" stroke="#000000" points="526,-865.5 526,-895.5 827,-895.5 827,-865.5 526,-865.5"/>
<text text-anchor="start" x="533" y="-876.9" font-family="Arial" font-size="14.00" fill="#000000">xpath    </text>
<text text-anchor="start" x="601.4432" y="-876.9" font-family="Arial" font-size="14.00" fill="#666666">[text]</text>
<polygon fill="none" stroke="#000000" points="526,-835.5 526,-865.5 827,-865.5 827,-835.5 526,-835.5"/>
<text text-anchor="start" x="533" y="-846.9" font-family="Arial" font-size="14.00" fill="#000000">weight    </text>
<text text-anchor="start" x="607.6564" y="-846.9" font-family="Arial" font-size="14.00" fill="#666666">[integer]</text>
<polygon fill="none" stroke="#000000" points="526,-805.5 526,-835.5 827,-835.5 827,-805.5 526,-805.5"/>
<text text-anchor="start" x="533" y="-816.9" font-family="Arial" font-size="14.00" fill="#000000">format    </text>
<text text-anchor="start" x="606.8724" y="-816.9" font-family="Arial" font-size="14.00" fill="#666666">[text]</text>
<polygon fill="none" stroke="#000000" points="526,-775.5 526,-805.5 827,-805.5 827,-775.5 526,-775.5"/>
<text text-anchor="start" x="533" y="-786.9" font-family="Arial" font-size="14.00" fill="#000000">search_field    </text>
<text text-anchor="start" x="642.6648" y="-786.9" font-family="Arial" font-size="14.00" fill="#666666">[boolean]</text>
<polygon fill="none" stroke="#000000" points="526,-745.5 526,-775.5 827,-775.5 827,-745.5 526,-745.5"/>
<text text-anchor="start" x="533" y="-756.9" font-family="Arial" font-size="14.00" fill="#000000">facet_field    </text>
<text text-anchor="start" x="631.0028" y="-756.9" font-family="Arial" font-size="14.00" fill="#666666">[boolean]</text>
<polygon fill="none" stroke="#000000" points="526,-715.5 526,-745.5 827,-745.5 827,-715.5 526,-715.5"/>
<text text-anchor="start" x="533" y="-726.9" font-family="Arial" font-size="14.00" fill="#000000">browse_field    </text>
<text text-anchor="start" x="645.7714" y="-726.9" font-family="Arial" font-size="14.00" fill="#666666">[boolean]</text>
<polygon fill="none" stroke="#000000" points="526,-685.5 526,-715.5 827,-715.5 827,-685.5 526,-685.5"/>
<text text-anchor="start" x="533" y="-696.9" font-family="Arial" font-size="14.00" fill="#000000">browse_xpath    </text>
<text text-anchor="start" x="654.3408" y="-696.9" font-family="Arial" font-size="14.00" fill="#666666">[text]</text>
<polygon fill="none" stroke="#000000" points="526,-655.5 526,-685.5 827,-685.5 827,-655.5 526,-655.5"/>
<text text-anchor="start" x="533" y="-666.9" font-family="Arial" font-size="14.00" fill="#000000">browse_sort_xpath    </text>
<text text-anchor="start" x="685.4572" y="-666.9" font-family="Arial" font-size="14.00" fill="#666666">[text]</text>
<polygon fill="none" stroke="#000000" points="526,-625.5 526,-655.5 827,-655.5 827,-625.5 526,-625.5"/>
<text text-anchor="start" x="533" y="-636.9" font-family="Arial" font-size="14.00" fill="#000000">facet_xpath    </text>
<text text-anchor="start" x="639.5722" y="-636.9" font-family="Arial" font-size="14.00" fill="#666666">[text]</text>
<polygon fill="none" stroke="#000000" points="526,-595.5 526,-625.5 827,-625.5 827,-595.5 526,-595.5"/>
<text text-anchor="start" x="533" y="-606.9" font-family="Arial" font-size="14.00" fill="#000000">display_xpath    </text>
<text text-anchor="start" x="652.7868" y="-606.9" font-family="Arial" font-size="14.00" fill="#666666">[text]</text>
<polygon fill="none" stroke="#000000" points="526,-565.5 526,-595.5 827,-595.5 827,-565.5 526,-565.5"/>
<text text-anchor="start" x="533" y="-576.9" font-family="Arial" font-size="14.00" fill="#000000">authority_xpath    </text>
<text text-anchor="start" x="662.9046" y="-576.9" font-family="Arial" font-size="14.00" fill="#666666">[text]</text>
<polygon fill="none" stroke="#000000" points="526,-535.5 526,-565.5 827,-565.5 827,-535.5 526,-535.5"/>
<text text-anchor="start" x="533" y="-546.9" font-family="Arial" font-size="14.00" fill="#000000">joiner    </text>
<text text-anchor="start" x="601.4264" y="-546.9" font-family="Arial" font-size="14.00" fill="#666666">[text]</text>
<polygon fill="none" stroke="#000000" points="526,-505.5 526,-535.5 827,-535.5 827,-505.5 526,-505.5"/>
<text text-anchor="start" x="533" y="-516.9" font-family="Arial" font-size="14.00" fill="#000000">restrict    </text>
<text text-anchor="start" x="609.1964" y="-516.9" font-family="Arial" font-size="14.00" fill="#666666">[boolean]</text>
<polygon fill="none" stroke="#000000" points="526,-475.5 526,-505.5 827,-505.5 827,-475.5 526,-475.5"/>
<text text-anchor="start" x="533" y="-486.9" font-family="Arial" font-size="14.00" fill="#000000">display_field    </text>
<text text-anchor="start" x="644.2174" y="-486.9" font-family="Arial" font-size="14.00" fill="#666666">[boolean]</text>
</g>
<!-- config.metabib_field&#45;&gt;config.metabib_class -->
<g id="edge2" class="edge">
<title>config.metabib_field:field_class&#45;&gt;config.metabib_class:name</title>
<path fill="none" stroke="#000000" d="M519.412,-962.9756C488.4381,-889.3672 487.1035,-300.5 522,-300.5"/>
<polygon fill="#000000" stroke="#000000" points="519.4126,-962.9763 522.6143,-973.4643 522.7063,-966.7381 526,-970.5 526,-970.5 526,-970.5 522.7063,-966.7381 529.3857,-967.5357 519.4126,-962.9763 519.4126,-962.9763"/>
<text text-anchor="start" x="196.323" y="-980.5" font-family="Arial" font-size="10.00" fill="#000000">FOREIGN KEY (field_class) REFERENCES config.metabib_class(name)</text>
</g>
<!-- config.metabib_search_alias -->
<g id="node4" class="node">
<title>config.metabib_search_alias</title>
<polygon fill="#efefef" stroke="transparent" points="931,-790.5 931,-825.5 1300,-825.5 1300,-790.5 931,-790.5"/>
<polygon fill="none" stroke="#000000" points="931,-790.5 931,-825.5 1300,-825.5 1300,-790.5 931,-790.5"/>
<text text-anchor="start" x="937.6887" y="-803.3" font-family="Arial Bold" font-size="18.00" fill="#000000">config.metabib_search_alias</text>
<text text-anchor="start" x="1165.7433" y="-803.3" font-family="Arial" font-size="14.00" fill="#000000">    </text>
<text text-anchor="start" x="1199.9481" y="-803.3" font-family="Arial" font-size="14.00" fill="#666666">[BASE TABLE]</text>
<polygon fill="none" stroke="#000000" points="931,-760.5 931,-790.5 1300,-790.5 1300,-760.5 931,-760.5"/>
<text text-anchor="start" x="938" y="-771.9" font-family="Arial" font-size="14.00" fill="#000000">alias    </text>
<text text-anchor="start" x="1000.9832" y="-771.9" font-family="Arial" font-size="14.00" fill="#666666">[text]</text>
<polygon fill="none" stroke="#000000" points="931,-730.5 931,-760.5 1300,-760.5 1300,-730.5 931,-730.5"/>
<text text-anchor="start" x="938" y="-741.9" font-family="Arial" font-size="14.00" fill="#000000">field_class    </text>
<text text-anchor="start" x="1037.5456" y="-741.9" font-family="Arial" font-size="14.00" fill="#666666">[text]</text>
<polygon fill="none" stroke="#000000" points="931,-700.5 931,-730.5 1300,-730.5 1300,-700.5 931,-700.5"/>
<text text-anchor="start" x="938" y="-711.9" font-family="Arial" font-size="14.00" fill="#000000">field    </text>
<text text-anchor="start" x="997.8738" y="-711.9" font-family="Arial" font-size="14.00" fill="#666666">[integer]</text>
</g>
<!-- config.metabib_search_alias&#45;&gt;config.metabib_class -->
<g id="edge3" class="edge">
<title>config.metabib_search_alias:field_class&#45;&gt;config.metabib_class:name</title>
<path fill="none" stroke="#000000" d="M921.0491,-743.8887C836.6146,-714.7609 928.7918,-300.5 831,-300.5"/>
<polygon fill="#000000" stroke="#000000" points="921.1286,-743.9014 930.2807,-749.9421 926.0643,-744.7007 931,-745.5 931,-745.5 931,-745.5 926.0643,-744.7007 931.7193,-741.0579 921.1286,-743.9014 921.1286,-743.9014"/>
<text text-anchor="start" x="938.323" y="-755.5" font-family="Arial" font-size="10.00" fill="#000000">FOREIGN KEY (field_class) REFERENCES config.metabib_class(name)</text>
</g>
</g>
</svg>
