<?xml version="1.0" encoding="UTF-8" standalone="no"?>
<!DOCTYPE svg PUBLIC "-//W3C//DTD SVG 1.1//EN"
 "http://www.w3.org/Graphics/SVG/1.1/DTD/svg11.dtd">
<!-- Generated by graphviz version 2.40.1 (20161225.0304)
 -->
<!-- Title: config.circ_matrix_weights Pages: 1 -->
<svg width="1019pt" height="1012pt"
 viewBox="0.00 0.00 1019.00 1012.00" xmlns="http://www.w3.org/2000/svg" xmlns:xlink="http://www.w3.org/1999/xlink">
<g id="graph0" class="graph" transform="scale(1 1) rotate(0) translate(4 1008)">
<title>config.circ_matrix_weights</title>
<polygon fill="#ffffff" stroke="transparent" points="-4,4 -4,-1008 1015,-1008 1015,4 -4,4"/>
<!-- config.circ_matrix_weights -->
<g id="node1" class="node">
<title>config.circ_matrix_weights</title>
<polygon fill="#efefef" stroke="transparent" points="46,-615.5 46,-650.5 398,-650.5 398,-615.5 46,-615.5"/>
<polygon fill="none" stroke="#000000" points="46,-615.5 46,-650.5 398,-650.5 398,-615.5 46,-615.5"/>
<text text-anchor="start" x="52.7099" y="-628.3" font-family="Arial Bold" font-size="18.00" fill="#000000">config.circ_matrix_weights</text>
<text text-anchor="start" x="263.7221" y="-628.3" font-family="Arial" font-size="14.00" fill="#000000">    </text>
<text text-anchor="start" x="297.9269" y="-628.3" font-family="Arial" font-size="14.00" fill="#666666">[BASE TABLE]</text>
<polygon fill="none" stroke="#000000" points="46,-585.5 46,-615.5 398,-615.5 398,-585.5 46,-585.5"/>
<text text-anchor="start" x="53" y="-596.9" font-family="Arial" font-size="14.00" fill="#000000">id </text>
<text text-anchor="start" x="67.7798" y="-596.9" font-family="Arial" font-size="14.00" fill="#666666">[integer]</text>
<polygon fill="none" stroke="#000000" points="46,-555.5 46,-585.5 398,-585.5 398,-555.5 46,-555.5"/>
<text text-anchor="start" x="53" y="-566.9" font-family="Arial" font-size="14.00" fill="#000000">name </text>
<text text-anchor="start" x="91.899" y="-566.9" font-family="Arial" font-size="14.00" fill="#666666">[text]</text>
<polygon fill="none" stroke="#000000" points="46,-525.5 46,-555.5 398,-555.5 398,-525.5 46,-525.5"/>
<text text-anchor="start" x="53" y="-536.9" font-family="Arial" font-size="14.00" fill="#000000">org_unit </text>
<text text-anchor="start" x="107.4614" y="-536.9" font-family="Arial" font-size="14.00" fill="#666666">[numeric(6,2)]</text>
<polygon fill="none" stroke="#000000" points="46,-495.5 46,-525.5 398,-525.5 398,-495.5 46,-495.5"/>
<text text-anchor="start" x="53" y="-506.9" font-family="Arial" font-size="14.00" fill="#000000">grp </text>
<text text-anchor="start" x="77.1164" y="-506.9" font-family="Arial" font-size="14.00" fill="#666666">[numeric(6,2)]</text>
<polygon fill="none" stroke="#000000" points="46,-465.5 46,-495.5 398,-495.5 398,-465.5 46,-465.5"/>
<text text-anchor="start" x="53" y="-476.9" font-family="Arial" font-size="14.00" fill="#000000">circ_modifier </text>
<text text-anchor="start" x="136.2132" y="-476.9" font-family="Arial" font-size="14.00" fill="#666666">[numeric(6,2)]</text>
<polygon fill="none" stroke="#000000" points="46,-435.5 46,-465.5 398,-465.5 398,-435.5 46,-435.5"/>
<text text-anchor="start" x="53" y="-446.9" font-family="Arial" font-size="14.00" fill="#000000">copy_location </text>
<text text-anchor="start" x="142.4726" y="-446.9" font-family="Arial" font-size="14.00" fill="#666666">[numeric(6,2)]</text>
<polygon fill="none" stroke="#000000" points="46,-405.5 46,-435.5 398,-435.5 398,-405.5 46,-405.5"/>
<text text-anchor="start" x="53" y="-416.9" font-family="Arial" font-size="14.00" fill="#000000">marc_type </text>
<text text-anchor="start" x="122.2328" y="-416.9" font-family="Arial" font-size="14.00" fill="#666666">[numeric(6,2)]</text>
<polygon fill="none" stroke="#000000" points="46,-375.5 46,-405.5 398,-405.5 398,-375.5 46,-375.5"/>
<text text-anchor="start" x="53" y="-386.9" font-family="Arial" font-size="14.00" fill="#000000">marc_form </text>
<text text-anchor="start" x="123.7714" y="-386.9" font-family="Arial" font-size="14.00" fill="#666666">[numeric(6,2)]</text>
<polygon fill="none" stroke="#000000" points="46,-345.5 46,-375.5 398,-375.5 398,-345.5 46,-345.5"/>
<text text-anchor="start" x="53" y="-356.9" font-family="Arial" font-size="14.00" fill="#000000">marc_bib_level </text>
<text text-anchor="start" x="151.0098" y="-356.9" font-family="Arial" font-size="14.00" fill="#666666">[numeric(6,2)]</text>
<polygon fill="none" stroke="#000000" points="46,-315.5 46,-345.5 398,-345.5 398,-315.5 46,-315.5"/>
<text text-anchor="start" x="53" y="-326.9" font-family="Arial" font-size="14.00" fill="#000000">marc_vr_format </text>
<text text-anchor="start" x="154.8878" y="-326.9" font-family="Arial" font-size="14.00" fill="#666666">[numeric(6,2)]</text>
<polygon fill="none" stroke="#000000" points="46,-285.5 46,-315.5 398,-315.5 398,-285.5 46,-285.5"/>
<text text-anchor="start" x="53" y="-296.9" font-family="Arial" font-size="14.00" fill="#000000">copy_circ_lib </text>
<text text-anchor="start" x="137.784" y="-296.9" font-family="Arial" font-size="14.00" fill="#666666">[numeric(6,2)]</text>
<polygon fill="none" stroke="#000000" points="46,-255.5 46,-285.5 398,-285.5 398,-255.5 46,-255.5"/>
<text text-anchor="start" x="53" y="-266.9" font-family="Arial" font-size="14.00" fill="#000000">copy_owning_lib </text>
<text text-anchor="start" x="160.3604" y="-266.9" font-family="Arial" font-size="14.00" fill="#666666">[numeric(6,2)]</text>
<polygon fill="none" stroke="#000000" points="46,-225.5 46,-255.5 398,-255.5 398,-225.5 46,-225.5"/>
<text text-anchor="start" x="53" y="-236.9" font-family="Arial" font-size="14.00" fill="#000000">user_home_ou </text>
<text text-anchor="start" x="150.2552" y="-236.9" font-family="Arial" font-size="14.00" fill="#666666">[numeric(6,2)]</text>
<polygon fill="none" stroke="#000000" points="46,-195.5 46,-225.5 398,-225.5 398,-195.5 46,-195.5"/>
<text text-anchor="start" x="53" y="-206.9" font-family="Arial" font-size="14.00" fill="#000000">ref_flag </text>
<text text-anchor="start" x="103.5694" y="-206.9" font-family="Arial" font-size="14.00" fill="#666666">[numeric(6,2)]</text>
<polygon fill="none" stroke="#000000" points="46,-165.5 46,-195.5 398,-195.5 398,-165.5 46,-165.5"/>
<text text-anchor="start" x="53" y="-176.9" font-family="Arial" font-size="14.00" fill="#000000">juvenile_flag </text>
<text text-anchor="start" x="134.6858" y="-176.9" font-family="Arial" font-size="14.00" fill="#666666">[numeric(6,2)]</text>
<polygon fill="none" stroke="#000000" points="46,-135.5 46,-165.5 398,-165.5 398,-135.5 46,-135.5"/>
<text text-anchor="start" x="53" y="-146.9" font-family="Arial" font-size="14.00" fill="#000000">is_renewal </text>
<text text-anchor="start" x="123.784" y="-146.9" font-family="Arial" font-size="14.00" fill="#666666">[numeric(6,2)]</text>
<polygon fill="none" stroke="#000000" points="46,-105.5 46,-135.5 398,-135.5 398,-105.5 46,-105.5"/>
<text text-anchor="start" x="53" y="-116.9" font-family="Arial" font-size="14.00" fill="#000000">usr_age_lower_bound </text>
<text text-anchor="start" x="195.3814" y="-116.9" font-family="Arial" font-size="14.00" fill="#666666">[numeric(6,2)]</text>
<polygon fill="none" stroke="#000000" points="46,-75.5 46,-105.5 398,-105.5 398,-75.5 46,-75.5"/>
<text text-anchor="start" x="53" y="-86.9" font-family="Arial" font-size="14.00" fill="#000000">usr_age_upper_bound </text>
<text text-anchor="start" x="197.7334" y="-86.9" font-family="Arial" font-size="14.00" fill="#666666">[numeric(6,2)]</text>
<polygon fill="none" stroke="#000000" points="46,-45.5 46,-75.5 398,-75.5 398,-45.5 46,-45.5"/>
<text text-anchor="start" x="53" y="-56.9" font-family="Arial" font-size="14.00" fill="#000000">item_age </text>
<text text-anchor="start" x="114.4614" y="-56.9" font-family="Arial" font-size="14.00" fill="#666666">[numeric(6,2)]</text>
<polygon fill="none" stroke="#000000" stroke-width="3" points="44.5,-44.5 44.5,-652.5 399.5,-652.5 399.5,-44.5 44.5,-44.5"/>
</g>
<!-- config.weight_assoc -->
<g id="node2" class="node">
<title>config.weight_assoc</title>
<polygon fill="#efefef" stroke="transparent" points="70,-925.5 70,-960.5 373,-960.5 373,-925.5 70,-925.5"/>
<polygon fill="none" stroke="#000000" points="70,-925.5 70,-960.5 373,-960.5 373,-925.5 70,-925.5"/>
<text text-anchor="start" x="76.6935" y="-938.3" font-family="Arial Bold" font-size="18.00" fill="#000000">config.weight_assoc</text>
<text text-anchor="start" x="238.7385" y="-938.3" font-family="Arial" font-size="14.00" fill="#000000">    </text>
<text text-anchor="start" x="272.9433" y="-938.3" font-family="Arial" font-size="14.00" fill="#666666">[BASE TABLE]</text>
<polygon fill="none" stroke="#000000" points="70,-895.5 70,-925.5 373,-925.5 373,-895.5 70,-895.5"/>
<text text-anchor="start" x="77" y="-906.9" font-family="Arial" font-size="14.00" fill="#000000">id    </text>
<text text-anchor="start" x="122.094" y="-906.9" font-family="Arial" font-size="14.00" fill="#666666">[integer]</text>
<polygon fill="none" stroke="#000000" points="70,-865.5 70,-895.5 373,-895.5 373,-865.5 70,-865.5"/>
<text text-anchor="start" x="77" y="-876.9" font-family="Arial" font-size="14.00" fill="#000000">active    </text>
<text text-anchor="start" x="147.7672" y="-876.9" font-family="Arial" font-size="14.00" fill="#666666">[boolean]</text>
<polygon fill="none" stroke="#000000" points="70,-835.5 70,-865.5 373,-865.5 373,-835.5 70,-835.5"/>
<text text-anchor="start" x="77" y="-846.9" font-family="Arial" font-size="14.00" fill="#000000">org_unit    </text>
<text text-anchor="start" x="161.7756" y="-846.9" font-family="Arial" font-size="14.00" fill="#666666">[integer]</text>
<polygon fill="none" stroke="#000000" points="70,-805.5 70,-835.5 373,-835.5 373,-805.5 70,-805.5"/>
<text text-anchor="start" x="77" y="-816.9" font-family="Arial" font-size="14.00" fill="#000000">circ_weights    </text>
<text text-anchor="start" x="188.2062" y="-816.9" font-family="Arial" font-size="14.00" fill="#666666">[integer]</text>
<polygon fill="none" stroke="#000000" points="70,-775.5 70,-805.5 373,-805.5 373,-775.5 70,-775.5"/>
<text text-anchor="start" x="77" y="-786.9" font-family="Arial" font-size="14.00" fill="#000000">hold_weights    </text>
<text text-anchor="start" x="192.8934" y="-786.9" font-family="Arial" font-size="14.00" fill="#666666">[integer]</text>
</g>
<!-- config.weight_assoc&#45;&gt;config.circ_matrix_weights -->
<g id="edge1" class="edge">
<title>config.weight_assoc:circ_weights&#45;&gt;config.circ_matrix_weights:id</title>
<path fill="none" stroke="#000000" d="M382.9466,-818.9073C409.2378,-809.3492 396.4162,-759.1356 373,-733 324.2168,-678.5514 94.7832,-751.4486 46,-697 17.3804,-665.0567 3.1111,-600.5 46,-600.5"/>
<polygon fill="#000000" stroke="#000000" points="382.8742,-818.9188 372.2885,-816.0566 377.9371,-819.7094 373,-820.5 373,-820.5 373,-820.5 377.9371,-819.7094 373.7115,-824.9434 382.8742,-818.9188 382.8742,-818.9188"/>
<text text-anchor="start" x="379.7695" y="-830.5" font-family="Arial" font-size="10.00" fill="#000000">FOREIGN KEY (circ_weights) REFERENCES config.circ_matrix_weights(id) ON DELETE SET NULL DEFERRABLE INITIALLY DEFERRED</text>
</g>
</g>
</svg>
