<?xml version="1.0" encoding="UTF-8" standalone="no"?>
<!DOCTYPE svg PUBLIC "-//W3C//DTD SVG 1.1//EN"
 "http://www.w3.org/Graphics/SVG/1.1/DTD/svg11.dtd">
<!-- Generated by graphviz version 2.40.1 (20161225.0304)
 -->
<!-- Title: config.hold_matrix_matchpoint Pages: 1 -->
<svg width="2351pt" height="1462pt"
 viewBox="0.00 0.00 2350.50 1462.00" xmlns="http://www.w3.org/2000/svg" xmlns:xlink="http://www.w3.org/1999/xlink">
<g id="graph0" class="graph" transform="scale(1 1) rotate(0) translate(4 1458)">
<title>config.hold_matrix_matchpoint</title>
<polygon fill="#ffffff" stroke="transparent" points="-4,4 -4,-1458 2346.5,-1458 2346.5,4 -4,4"/>
<!-- config.hold_matrix_matchpoint -->
<g id="node1" class="node">
<title>config.hold_matrix_matchpoint</title>
<polygon fill="#efefef" stroke="transparent" points="490,-1372.5 490,-1407.5 875,-1407.5 875,-1372.5 490,-1372.5"/>
<polygon fill="none" stroke="#000000" points="490,-1372.5 490,-1407.5 875,-1407.5 875,-1372.5 490,-1372.5"/>
<text text-anchor="start" x="496.6904" y="-1385.3" font-family="Arial Bold" font-size="18.00" fill="#000000">config.hold_matrix_matchpoint</text>
<text text-anchor="start" x="740.7416" y="-1385.3" font-family="Arial" font-size="14.00" fill="#000000">    </text>
<text text-anchor="start" x="774.9464" y="-1385.3" font-family="Arial" font-size="14.00" fill="#666666">[BASE TABLE]</text>
<polygon fill="none" stroke="#000000" points="490,-1342.5 490,-1372.5 875,-1372.5 875,-1342.5 490,-1342.5"/>
<text text-anchor="start" x="497" y="-1353.9" font-family="Arial" font-size="14.00" fill="#000000">id </text>
<text text-anchor="start" x="511.7798" y="-1353.9" font-family="Arial" font-size="14.00" fill="#666666">[integer]</text>
<polygon fill="none" stroke="#000000" points="490,-1312.5 490,-1342.5 875,-1342.5 875,-1312.5 490,-1312.5"/>
<text text-anchor="start" x="497" y="-1323.9" font-family="Arial" font-size="14.00" fill="#000000">active </text>
<text text-anchor="start" x="537.453" y="-1323.9" font-family="Arial" font-size="14.00" fill="#666666">[boolean]</text>
<polygon fill="none" stroke="#000000" points="490,-1282.5 490,-1312.5 875,-1312.5 875,-1282.5 490,-1282.5"/>
<text text-anchor="start" x="497" y="-1293.9" font-family="Arial" font-size="14.00" fill="#000000">strict_ou_match </text>
<text text-anchor="start" x="599.6858" y="-1293.9" font-family="Arial" font-size="14.00" fill="#666666">[boolean]</text>
<polygon fill="none" stroke="#000000" points="490,-1252.5 490,-1282.5 875,-1282.5 875,-1252.5 490,-1252.5"/>
<text text-anchor="start" x="497" y="-1263.9" font-family="Arial" font-size="14.00" fill="#000000">user_home_ou </text>
<text text-anchor="start" x="594.2552" y="-1263.9" font-family="Arial" font-size="14.00" fill="#666666">[integer]</text>
<polygon fill="none" stroke="#000000" points="490,-1222.5 490,-1252.5 875,-1252.5 875,-1222.5 490,-1222.5"/>
<text text-anchor="start" x="497" y="-1233.9" font-family="Arial" font-size="14.00" fill="#000000">request_ou </text>
<text text-anchor="start" x="570.92" y="-1233.9" font-family="Arial" font-size="14.00" fill="#666666">[integer]</text>
<polygon fill="none" stroke="#000000" points="490,-1192.5 490,-1222.5 875,-1222.5 875,-1192.5 490,-1192.5"/>
<text text-anchor="start" x="497" y="-1203.9" font-family="Arial" font-size="14.00" fill="#000000">pickup_ou </text>
<text text-anchor="start" x="564.6928" y="-1203.9" font-family="Arial" font-size="14.00" fill="#666666">[integer]</text>
<polygon fill="none" stroke="#000000" points="490,-1162.5 490,-1192.5 875,-1192.5 875,-1162.5 490,-1162.5"/>
<text text-anchor="start" x="497" y="-1173.9" font-family="Arial" font-size="14.00" fill="#000000">item_owning_ou </text>
<text text-anchor="start" x="602.805" y="-1173.9" font-family="Arial" font-size="14.00" fill="#666666">[integer]</text>
<polygon fill="none" stroke="#000000" points="490,-1132.5 490,-1162.5 875,-1162.5 875,-1132.5 490,-1132.5"/>
<text text-anchor="start" x="497" y="-1143.9" font-family="Arial" font-size="14.00" fill="#000000">item_circ_ou </text>
<text text-anchor="start" x="580.2286" y="-1143.9" font-family="Arial" font-size="14.00" fill="#666666">[integer]</text>
<polygon fill="none" stroke="#000000" points="490,-1102.5 490,-1132.5 875,-1132.5 875,-1102.5 490,-1102.5"/>
<text text-anchor="start" x="497" y="-1113.9" font-family="Arial" font-size="14.00" fill="#000000">usr_grp </text>
<text text-anchor="start" x="548.3422" y="-1113.9" font-family="Arial" font-size="14.00" fill="#666666">[integer]</text>
<polygon fill="none" stroke="#000000" points="490,-1072.5 490,-1102.5 875,-1102.5 875,-1072.5 490,-1072.5"/>
<text text-anchor="start" x="497" y="-1083.9" font-family="Arial" font-size="14.00" fill="#000000">requestor_grp </text>
<text text-anchor="start" x="588.0238" y="-1083.9" font-family="Arial" font-size="14.00" fill="#666666">[integer]</text>
<polygon fill="none" stroke="#000000" points="490,-1042.5 490,-1072.5 875,-1072.5 875,-1042.5 490,-1042.5"/>
<text text-anchor="start" x="497" y="-1053.9" font-family="Arial" font-size="14.00" fill="#000000">circ_modifier </text>
<text text-anchor="start" x="580.2132" y="-1053.9" font-family="Arial" font-size="14.00" fill="#666666">[text]</text>
<polygon fill="none" stroke="#000000" points="490,-1012.5 490,-1042.5 875,-1042.5 875,-1012.5 490,-1012.5"/>
<text text-anchor="start" x="497" y="-1023.9" font-family="Arial" font-size="14.00" fill="#000000">marc_type </text>
<text text-anchor="start" x="566.2328" y="-1023.9" font-family="Arial" font-size="14.00" fill="#666666">[text]</text>
<polygon fill="none" stroke="#000000" points="490,-982.5 490,-1012.5 875,-1012.5 875,-982.5 490,-982.5"/>
<text text-anchor="start" x="497" y="-993.9" font-family="Arial" font-size="14.00" fill="#000000">marc_form </text>
<text text-anchor="start" x="567.7714" y="-993.9" font-family="Arial" font-size="14.00" fill="#666666">[text]</text>
<polygon fill="none" stroke="#000000" points="490,-952.5 490,-982.5 875,-982.5 875,-952.5 490,-952.5"/>
<text text-anchor="start" x="497" y="-963.9" font-family="Arial" font-size="14.00" fill="#000000">marc_bib_level </text>
<text text-anchor="start" x="595.0098" y="-963.9" font-family="Arial" font-size="14.00" fill="#666666">[text]</text>
<polygon fill="none" stroke="#000000" points="490,-922.5 490,-952.5 875,-952.5 875,-922.5 490,-922.5"/>
<text text-anchor="start" x="497" y="-933.9" font-family="Arial" font-size="14.00" fill="#000000">marc_vr_format </text>
<text text-anchor="start" x="598.8878" y="-933.9" font-family="Arial" font-size="14.00" fill="#666666">[text]</text>
<polygon fill="none" stroke="#000000" points="490,-892.5 490,-922.5 875,-922.5 875,-892.5 490,-892.5"/>
<text text-anchor="start" x="497" y="-903.9" font-family="Arial" font-size="14.00" fill="#000000">juvenile_flag </text>
<text text-anchor="start" x="578.6858" y="-903.9" font-family="Arial" font-size="14.00" fill="#666666">[boolean]</text>
<polygon fill="none" stroke="#000000" points="490,-862.5 490,-892.5 875,-892.5 875,-862.5 490,-862.5"/>
<text text-anchor="start" x="497" y="-873.9" font-family="Arial" font-size="14.00" fill="#000000">ref_flag </text>
<text text-anchor="start" x="547.5694" y="-873.9" font-family="Arial" font-size="14.00" fill="#666666">[boolean]</text>
<polygon fill="none" stroke="#000000" points="490,-832.5 490,-862.5 875,-862.5 875,-832.5 490,-832.5"/>
<text text-anchor="start" x="497" y="-843.9" font-family="Arial" font-size="14.00" fill="#000000">item_age </text>
<text text-anchor="start" x="558.4614" y="-843.9" font-family="Arial" font-size="14.00" fill="#666666">[interval]</text>
<polygon fill="none" stroke="#000000" points="490,-802.5 490,-832.5 875,-832.5 875,-802.5 490,-802.5"/>
<text text-anchor="start" x="497" y="-813.9" font-family="Arial" font-size="14.00" fill="#000000">holdable </text>
<text text-anchor="start" x="553.7994" y="-813.9" font-family="Arial" font-size="14.00" fill="#666666">[boolean]</text>
<polygon fill="none" stroke="#000000" points="490,-772.5 490,-802.5 875,-802.5 875,-772.5 490,-772.5"/>
<text text-anchor="start" x="497" y="-783.9" font-family="Arial" font-size="14.00" fill="#000000">distance_is_from_owner </text>
<text text-anchor="start" x="652.582" y="-783.9" font-family="Arial" font-size="14.00" fill="#666666">[boolean]</text>
<polygon fill="none" stroke="#000000" points="490,-742.5 490,-772.5 875,-772.5 875,-742.5 490,-742.5"/>
<text text-anchor="start" x="497" y="-753.9" font-family="Arial" font-size="14.00" fill="#000000">transit_range </text>
<text text-anchor="start" x="582.5778" y="-753.9" font-family="Arial" font-size="14.00" fill="#666666">[integer]</text>
<polygon fill="none" stroke="#000000" points="490,-712.5 490,-742.5 875,-742.5 875,-712.5 490,-712.5"/>
<text text-anchor="start" x="497" y="-723.9" font-family="Arial" font-size="14.00" fill="#000000">max_holds </text>
<text text-anchor="start" x="568.5708" y="-723.9" font-family="Arial" font-size="14.00" fill="#666666">[integer]</text>
<polygon fill="none" stroke="#000000" points="490,-682.5 490,-712.5 875,-712.5 875,-682.5 490,-682.5"/>
<text text-anchor="start" x="497" y="-693.9" font-family="Arial" font-size="14.00" fill="#000000">include_frozen_holds </text>
<text text-anchor="start" x="633.1528" y="-693.9" font-family="Arial" font-size="14.00" fill="#666666">[boolean]</text>
<polygon fill="none" stroke="#000000" points="490,-652.5 490,-682.5 875,-682.5 875,-652.5 490,-652.5"/>
<text text-anchor="start" x="497" y="-663.9" font-family="Arial" font-size="14.00" fill="#000000">stop_blocked_user </text>
<text text-anchor="start" x="618.3744" y="-663.9" font-family="Arial" font-size="14.00" fill="#666666">[boolean]</text>
<polygon fill="none" stroke="#000000" points="490,-622.5 490,-652.5 875,-652.5 875,-622.5 490,-622.5"/>
<text text-anchor="start" x="497" y="-633.9" font-family="Arial" font-size="14.00" fill="#000000">age_hold_protect_rule </text>
<text text-anchor="start" x="640.1626" y="-633.9" font-family="Arial" font-size="14.00" fill="#666666">[integer]</text>
<polygon fill="none" stroke="#000000" points="490,-592.5 490,-622.5 875,-622.5 875,-592.5 490,-592.5"/>
<text text-anchor="start" x="497" y="-603.9" font-family="Arial" font-size="14.00" fill="#000000">description </text>
<text text-anchor="start" x="568.568" y="-603.9" font-family="Arial" font-size="14.00" fill="#666666">[text]</text>
<polygon fill="none" stroke="#000000" stroke-width="3" points="488,-591.5 488,-1409.5 876,-1409.5 876,-591.5 488,-591.5"/>
</g>
<!-- actor.org_unit -->
<g id="node2" class="node">
<title>actor.org_unit</title>
<polygon fill="#efefef" stroke="transparent" points="368,-432.5 368,-467.5 619,-467.5 619,-432.5 368,-432.5"/>
<polygon fill="none" stroke="#000000" points="368,-432.5 368,-467.5 619,-467.5 619,-432.5 368,-432.5"/>
<text text-anchor="start" x="374.7017" y="-445.3" font-family="Arial Bold" font-size="18.00" fill="#000000">actor.org_unit</text>
<text text-anchor="start" x="484.7303" y="-445.3" font-family="Arial" font-size="14.00" fill="#000000">    </text>
<text text-anchor="start" x="518.9351" y="-445.3" font-family="Arial" font-size="14.00" fill="#666666">[BASE TABLE]</text>
<polygon fill="none" stroke="#000000" points="368,-402.5 368,-432.5 619,-432.5 619,-402.5 368,-402.5"/>
<text text-anchor="start" x="375" y="-413.9" font-family="Arial" font-size="14.00" fill="#000000">id    </text>
<text text-anchor="start" x="420.094" y="-413.9" font-family="Arial" font-size="14.00" fill="#666666">[integer]</text>
<polygon fill="none" stroke="#000000" points="368,-372.5 368,-402.5 619,-402.5 619,-372.5 368,-372.5"/>
<text text-anchor="start" x="375" y="-383.9" font-family="Arial" font-size="14.00" fill="#000000">parent_ou    </text>
<text text-anchor="start" x="472.2342" y="-383.9" font-family="Arial" font-size="14.00" fill="#666666">[integer]</text>
<polygon fill="none" stroke="#000000" points="368,-342.5 368,-372.5 619,-372.5 619,-342.5 368,-342.5"/>
<text text-anchor="start" x="375" y="-353.9" font-family="Arial" font-size="14.00" fill="#000000">ou_type    </text>
<text text-anchor="start" x="459.0084" y="-353.9" font-family="Arial" font-size="14.00" fill="#666666">[integer]</text>
<polygon fill="none" stroke="#000000" points="368,-312.5 368,-342.5 619,-342.5 619,-312.5 368,-312.5"/>
<text text-anchor="start" x="375" y="-323.9" font-family="Arial" font-size="14.00" fill="#000000">ill_address    </text>
<text text-anchor="start" x="476.0982" y="-323.9" font-family="Arial" font-size="14.00" fill="#666666">[integer]</text>
<polygon fill="none" stroke="#000000" points="368,-282.5 368,-312.5 619,-312.5 619,-282.5 368,-282.5"/>
<text text-anchor="start" x="375" y="-293.9" font-family="Arial" font-size="14.00" fill="#000000">holds_address    </text>
<text text-anchor="start" x="500.2328" y="-293.9" font-family="Arial" font-size="14.00" fill="#666666">[integer]</text>
<polygon fill="none" stroke="#000000" points="368,-252.5 368,-282.5 619,-282.5 619,-252.5 368,-252.5"/>
<text text-anchor="start" x="375" y="-263.9" font-family="Arial" font-size="14.00" fill="#000000">mailing_address    </text>
<text text-anchor="start" x="511.1066" y="-263.9" font-family="Arial" font-size="14.00" fill="#666666">[integer]</text>
<polygon fill="none" stroke="#000000" points="368,-222.5 368,-252.5 619,-252.5 619,-222.5 368,-222.5"/>
<text text-anchor="start" x="375" y="-233.9" font-family="Arial" font-size="14.00" fill="#000000">billing_address    </text>
<text text-anchor="start" x="502.5526" y="-233.9" font-family="Arial" font-size="14.00" fill="#666666">[integer]</text>
<polygon fill="none" stroke="#000000" points="368,-192.5 368,-222.5 619,-222.5 619,-192.5 368,-192.5"/>
<text text-anchor="start" x="375" y="-203.9" font-family="Arial" font-size="14.00" fill="#000000">shortname    </text>
<text text-anchor="start" x="475.3296" y="-203.9" font-family="Arial" font-size="14.00" fill="#666666">[text]</text>
<polygon fill="none" stroke="#000000" points="368,-162.5 368,-192.5 619,-192.5 619,-162.5 368,-162.5"/>
<text text-anchor="start" x="375" y="-173.9" font-family="Arial" font-size="14.00" fill="#000000">name    </text>
<text text-anchor="start" x="444.2132" y="-173.9" font-family="Arial" font-size="14.00" fill="#666666">[text]</text>
<polygon fill="none" stroke="#000000" points="368,-132.5 368,-162.5 619,-162.5 619,-132.5 368,-132.5"/>
<text text-anchor="start" x="375" y="-143.9" font-family="Arial" font-size="14.00" fill="#000000">email    </text>
<text text-anchor="start" x="442.6438" y="-143.9" font-family="Arial" font-size="14.00" fill="#666666">[text]</text>
<polygon fill="none" stroke="#000000" points="368,-102.5 368,-132.5 619,-132.5 619,-102.5 368,-102.5"/>
<text text-anchor="start" x="375" y="-113.9" font-family="Arial" font-size="14.00" fill="#000000">phone    </text>
<text text-anchor="start" x="448.1178" y="-113.9" font-family="Arial" font-size="14.00" fill="#666666">[text]</text>
<polygon fill="none" stroke="#000000" points="368,-72.5 368,-102.5 619,-102.5 619,-72.5 368,-72.5"/>
<text text-anchor="start" x="375" y="-83.9" font-family="Arial" font-size="14.00" fill="#000000">opac_visible    </text>
<text text-anchor="start" x="486.2202" y="-83.9" font-family="Arial" font-size="14.00" fill="#666666">[boolean]</text>
<polygon fill="none" stroke="#000000" points="368,-42.5 368,-72.5 619,-72.5 619,-42.5 368,-42.5"/>
<text text-anchor="start" x="375" y="-53.9" font-family="Arial" font-size="14.00" fill="#000000">fiscal_calendar    </text>
<text text-anchor="start" x="502.554" y="-53.9" font-family="Arial" font-size="14.00" fill="#666666">[integer]</text>
</g>
<!-- config.hold_matrix_matchpoint&#45;&gt;actor.org_unit -->
<g id="edge1" class="edge">
<title>config.hold_matrix_matchpoint:user_home_ou&#45;&gt;actor.org_unit:id</title>
<path fill="none" stroke="#000000" d="M479.9878,-1266.6894C332.6243,-1242.2355 395.2689,-671.7874 490,-547 525.9912,-499.5896 583.0088,-558.4104 619,-511 644.1265,-477.9013 660.5556,-417.5 619,-417.5"/>
<polygon fill="#000000" stroke="#000000" points="480.0326,-1266.6929 489.6368,-1271.9853 485.0163,-1267.0965 490,-1267.5 490,-1267.5 490,-1267.5 485.0163,-1267.0965 490.3632,-1263.0147 480.0326,-1266.6929 480.0326,-1266.6929"/>
<text text-anchor="start" x="12.982" y="-1277.5" font-family="Arial" font-size="10.00" fill="#000000">FOREIGN KEY (user_home_ou) REFERENCES actor.org_unit(id) DEFERRABLE INITIALLY DEFERRED</text>
</g>
<!-- config.hold_matrix_matchpoint&#45;&gt;actor.org_unit -->
<g id="edge2" class="edge">
<title>config.hold_matrix_matchpoint:request_ou&#45;&gt;actor.org_unit:id</title>
<path fill="none" stroke="#000000" d="M479.9825,-1236.6514C339.2969,-1212.1967 399.3039,-666.4722 490,-547 525.9912,-499.5896 583.0088,-558.4104 619,-511 644.1265,-477.9013 660.5556,-417.5 619,-417.5"/>
<polygon fill="#000000" stroke="#000000" points="480.0357,-1236.6558 489.6201,-1241.9839 485.0178,-1237.0779 490,-1237.5 490,-1237.5 490,-1237.5 485.0178,-1237.0779 490.3799,-1233.0161 480.0357,-1236.6558 480.0357,-1236.6558"/>
<text text-anchor="start" x="30.316" y="-1247.5" font-family="Arial" font-size="10.00" fill="#000000">FOREIGN KEY (request_ou) REFERENCES actor.org_unit(id) DEFERRABLE INITIALLY DEFERRED</text>
</g>
<!-- config.hold_matrix_matchpoint&#45;&gt;actor.org_unit -->
<g id="edge3" class="edge">
<title>config.hold_matrix_matchpoint:pickup_ou&#45;&gt;actor.org_unit:id</title>
<path fill="none" stroke="#000000" d="M479.8479,-1207.3252C199.173,-1197.526 314.582,-778.0746 490,-547 525.9912,-499.5896 583.0088,-558.4104 619,-511 644.1265,-477.9013 660.5556,-417.5 619,-417.5"/>
<polygon fill="#000000" stroke="#000000" points="480.0015,-1207.3278 489.9225,-1211.9993 485.0007,-1207.4139 490,-1207.5 490,-1207.5 490,-1207.5 485.0007,-1207.4139 490.0775,-1203.0007 480.0015,-1207.3278 480.0015,-1207.3278"/>
<text text-anchor="start" x="34.54" y="-1217.5" font-family="Arial" font-size="10.00" fill="#000000">FOREIGN KEY (pickup_ou) REFERENCES actor.org_unit(id) DEFERRABLE INITIALLY DEFERRED</text>
</g>
<!-- config.hold_matrix_matchpoint&#45;&gt;actor.org_unit -->
<g id="edge4" class="edge">
<title>config.hold_matrix_matchpoint:item_owning_ou&#45;&gt;actor.org_unit:id</title>
<path fill="none" stroke="#000000" d="M479.9121,-1177.319C212.4913,-1167.5835 322.6322,-767.4702 490,-547 525.9912,-499.5896 583.0088,-558.4104 619,-511 644.1265,-477.9013 660.5556,-417.5 619,-417.5"/>
<polygon fill="#000000" stroke="#000000" points="480.0016,-1177.3205 489.9192,-1181.9993 485.0008,-1177.4103 490,-1177.5 490,-1177.5 490,-1177.5 485.0008,-1177.4103 490.0808,-1173.0007 480.0016,-1177.3205 480.0016,-1177.3205"/>
<text text-anchor="start" x="6.9285" y="-1187.5" font-family="Arial" font-size="10.00" fill="#000000">FOREIGN KEY (item_owning_ou) REFERENCES actor.org_unit(id) DEFERRABLE INITIALLY DEFERRED</text>
</g>
<!-- config.hold_matrix_matchpoint&#45;&gt;actor.org_unit -->
<g id="edge5" class="edge">
<title>config.hold_matrix_matchpoint:item_circ_ou&#45;&gt;actor.org_unit:id</title>
<path fill="none" stroke="#000000" d="M479.6378,-1147.299C225.9029,-1137.302 330.7534,-756.7724 490,-547 525.9912,-499.5896 583.0088,-558.4104 619,-511 644.1265,-477.9013 660.5556,-417.5 619,-417.5"/>
<polygon fill="#000000" stroke="#000000" points="480.0019,-1147.306 489.9127,-1151.9992 485.0009,-1147.403 490,-1147.5 490,-1147.5 490,-1147.5 485.0009,-1147.403 490.0873,-1143.0008 480.0019,-1147.306 480.0019,-1147.306"/>
<text text-anchor="start" x="22.9915" y="-1157.5" font-family="Arial" font-size="10.00" fill="#000000">FOREIGN KEY (item_circ_ou) REFERENCES actor.org_unit(id) DEFERRABLE INITIALLY DEFERRED</text>
</g>
<!-- permission.grp_tree -->
<g id="node3" class="node">
<title>permission.grp_tree</title>
<polygon fill="#efefef" stroke="transparent" points="723,-357.5 723,-392.5 1023,-392.5 1023,-357.5 723,-357.5"/>
<polygon fill="none" stroke="#000000" points="723,-357.5 723,-392.5 1023,-392.5 1023,-357.5 723,-357.5"/>
<text text-anchor="start" x="729.7073" y="-370.3" font-family="Arial Bold" font-size="18.00" fill="#000000">permission.grp_tree</text>
<text text-anchor="start" x="888.7247" y="-370.3" font-family="Arial" font-size="14.00" fill="#000000">    </text>
<text text-anchor="start" x="922.9295" y="-370.3" font-family="Arial" font-size="14.00" fill="#666666">[BASE TABLE]</text>
<polygon fill="none" stroke="#000000" points="723,-327.5 723,-357.5 1023,-357.5 1023,-327.5 723,-327.5"/>
<text text-anchor="start" x="730" y="-338.9" font-family="Arial" font-size="14.00" fill="#000000">id    </text>
<text text-anchor="start" x="775.094" y="-338.9" font-family="Arial" font-size="14.00" fill="#666666">[integer]</text>
<polygon fill="none" stroke="#000000" points="723,-297.5 723,-327.5 1023,-327.5 1023,-297.5 723,-297.5"/>
<text text-anchor="start" x="730" y="-308.9" font-family="Arial" font-size="14.00" fill="#000000">name    </text>
<text text-anchor="start" x="799.2132" y="-308.9" font-family="Arial" font-size="14.00" fill="#666666">[text]</text>
<polygon fill="none" stroke="#000000" points="723,-267.5 723,-297.5 1023,-297.5 1023,-267.5 723,-267.5"/>
<text text-anchor="start" x="730" y="-278.9" font-family="Arial" font-size="14.00" fill="#000000">parent    </text>
<text text-anchor="start" x="803.8864" y="-278.9" font-family="Arial" font-size="14.00" fill="#666666">[integer]</text>
<polygon fill="none" stroke="#000000" points="723,-237.5 723,-267.5 1023,-267.5 1023,-237.5 723,-237.5"/>
<text text-anchor="start" x="730" y="-248.9" font-family="Arial" font-size="14.00" fill="#000000">usergroup    </text>
<text text-anchor="start" x="827.2216" y="-248.9" font-family="Arial" font-size="14.00" fill="#666666">[boolean]</text>
<polygon fill="none" stroke="#000000" points="723,-207.5 723,-237.5 1023,-237.5 1023,-207.5 723,-207.5"/>
<text text-anchor="start" x="730" y="-218.9" font-family="Arial" font-size="14.00" fill="#000000">perm_interval    </text>
<text text-anchor="start" x="848.986" y="-218.9" font-family="Arial" font-size="14.00" fill="#666666">[interval]</text>
<polygon fill="none" stroke="#000000" points="723,-177.5 723,-207.5 1023,-207.5 1023,-177.5 723,-177.5"/>
<text text-anchor="start" x="730" y="-188.9" font-family="Arial" font-size="14.00" fill="#000000">description    </text>
<text text-anchor="start" x="831.8822" y="-188.9" font-family="Arial" font-size="14.00" fill="#666666">[text]</text>
<polygon fill="none" stroke="#000000" points="723,-147.5 723,-177.5 1023,-177.5 1023,-147.5 723,-147.5"/>
<text text-anchor="start" x="730" y="-158.9" font-family="Arial" font-size="14.00" fill="#000000">application_perm    </text>
<text text-anchor="start" x="870.7798" y="-158.9" font-family="Arial" font-size="14.00" fill="#666666">[text]</text>
<polygon fill="none" stroke="#000000" points="723,-117.5 723,-147.5 1023,-147.5 1023,-117.5 723,-117.5"/>
<text text-anchor="start" x="730" y="-128.9" font-family="Arial" font-size="14.00" fill="#000000">hold_priority    </text>
<text text-anchor="start" x="840.432" y="-128.9" font-family="Arial" font-size="14.00" fill="#666666">[integer]</text>
</g>
<!-- config.hold_matrix_matchpoint&#45;&gt;permission.grp_tree -->
<g id="edge6" class="edge">
<title>config.hold_matrix_matchpoint:usr_grp&#45;&gt;permission.grp_tree:id</title>
<path fill="none" stroke="#000000" d="M885.1808,-1117.308C1124.7669,-1108.1038 988.2671,-769.9687 875,-547 837.1137,-472.4201 760.8863,-510.5799 723,-436 704.1792,-398.9508 681.4444,-342.5 723,-342.5"/>
<polygon fill="#000000" stroke="#000000" points="884.9982,-1117.3114 874.9151,-1113.0008 879.9991,-1117.4057 875,-1117.5 875,-1117.5 875,-1117.5 879.9991,-1117.4057 875.0849,-1121.9992 884.9982,-1117.3114 884.9982,-1117.3114"/>
<text text-anchor="start" x="881.7715" y="-1127.5" font-family="Arial" font-size="10.00" fill="#000000">FOREIGN KEY (usr_grp) REFERENCES permission.grp_tree(id) DEFERRABLE INITIALLY DEFERRED</text>
</g>
<!-- config.hold_matrix_matchpoint&#45;&gt;permission.grp_tree -->
<g id="edge7" class="edge">
<title>config.hold_matrix_matchpoint:requestor_grp&#45;&gt;permission.grp_tree:id</title>
<path fill="none" stroke="#000000" d="M885.3186,-1087.2913C1111.3768,-1077.9637 982.2046,-758.0347 875,-547 837.1137,-472.4201 760.8863,-510.5799 723,-436 704.1792,-398.9508 681.4444,-342.5 723,-342.5"/>
<polygon fill="#000000" stroke="#000000" points="884.998,-1087.2977 874.909,-1083.0009 879.999,-1087.3989 875,-1087.5 875,-1087.5 875,-1087.5 879.999,-1087.3989 875.091,-1091.9991 884.998,-1087.2977 884.998,-1087.2977"/>
<text text-anchor="start" x="881.5995" y="-1097.5" font-family="Arial" font-size="10.00" fill="#000000">FOREIGN KEY (requestor_grp) REFERENCES permission.grp_tree(id) DEFERRABLE INITIALLY DEFERRED</text>
</g>
<!-- config.circ_modifier -->
<g id="node4" class="node">
<title>config.circ_modifier</title>
<polygon fill="#efefef" stroke="transparent" points="1127,-327.5 1127,-362.5 1423,-362.5 1423,-327.5 1127,-327.5"/>
<polygon fill="none" stroke="#000000" points="1127,-327.5 1127,-362.5 1423,-362.5 1423,-327.5 1127,-327.5"/>
<text text-anchor="start" x="1133.7143" y="-340.3" font-family="Arial Bold" font-size="18.00" fill="#000000">config.circ_modifier</text>
<text text-anchor="start" x="1288.7177" y="-340.3" font-family="Arial" font-size="14.00" fill="#000000">    </text>
<text text-anchor="start" x="1322.9225" y="-340.3" font-family="Arial" font-size="14.00" fill="#666666">[BASE TABLE]</text>
<polygon fill="none" stroke="#000000" points="1127,-297.5 1127,-327.5 1423,-327.5 1423,-297.5 1127,-297.5"/>
<text text-anchor="start" x="1134" y="-308.9" font-family="Arial" font-size="14.00" fill="#000000">code    </text>
<text text-anchor="start" x="1198.5526" y="-308.9" font-family="Arial" font-size="14.00" fill="#666666">[text]</text>
<polygon fill="none" stroke="#000000" points="1127,-267.5 1127,-297.5 1423,-297.5 1423,-267.5 1127,-267.5"/>
<text text-anchor="start" x="1134" y="-278.9" font-family="Arial" font-size="14.00" fill="#000000">name    </text>
<text text-anchor="start" x="1203.2132" y="-278.9" font-family="Arial" font-size="14.00" fill="#666666">[text]</text>
<polygon fill="none" stroke="#000000" points="1127,-237.5 1127,-267.5 1423,-267.5 1423,-237.5 1127,-237.5"/>
<text text-anchor="start" x="1134" y="-248.9" font-family="Arial" font-size="14.00" fill="#000000">description    </text>
<text text-anchor="start" x="1235.8822" y="-248.9" font-family="Arial" font-size="14.00" fill="#666666">[text]</text>
<polygon fill="none" stroke="#000000" points="1127,-207.5 1127,-237.5 1423,-237.5 1423,-207.5 1127,-207.5"/>
<text text-anchor="start" x="1134" y="-218.9" font-family="Arial" font-size="14.00" fill="#000000">sip2_media_type    </text>
<text text-anchor="start" x="1274.0126" y="-218.9" font-family="Arial" font-size="14.00" fill="#666666">[text]</text>
<polygon fill="none" stroke="#000000" points="1127,-177.5 1127,-207.5 1423,-207.5 1423,-177.5 1127,-177.5"/>
<text text-anchor="start" x="1134" y="-188.9" font-family="Arial" font-size="14.00" fill="#000000">magnetic_media    </text>
<text text-anchor="start" x="1270.8906" y="-188.9" font-family="Arial" font-size="14.00" fill="#666666">[boolean]</text>
<polygon fill="none" stroke="#000000" points="1127,-147.5 1127,-177.5 1423,-177.5 1423,-147.5 1127,-147.5"/>
<text text-anchor="start" x="1134" y="-158.9" font-family="Arial" font-size="14.00" fill="#000000">avg_wait_time    </text>
<text text-anchor="start" x="1257.662" y="-158.9" font-family="Arial" font-size="14.00" fill="#666666">[interval]</text>
</g>
<!-- config.hold_matrix_matchpoint&#45;&gt;config.circ_modifier -->
<g id="edge8" class="edge">
<title>config.hold_matrix_matchpoint:circ_modifier&#45;&gt;config.circ_modifier:code</title>
<path fill="none" stroke="#000000" d="M885.0252,-1057.3445C1130.0956,-1049.6075 998.7163,-754.5669 1075,-511 1102.2574,-423.9695 1035.8009,-312.5 1127,-312.5"/>
<polygon fill="#000000" stroke="#000000" points="884.9988,-1057.3449 874.9302,-1053.0005 879.9994,-1057.4224 875,-1057.5 875,-1057.5 875,-1057.5 879.9994,-1057.4224 875.0698,-1061.9995 884.9988,-1057.3449 884.9988,-1057.3449"/>
<text text-anchor="start" x="881.5545" y="-1067.5" font-family="Arial" font-size="10.00" fill="#000000">FOREIGN KEY (circ_modifier) REFERENCES config.circ_modifier(code) DEFERRABLE INITIALLY DEFERRED</text>
</g>
<!-- actor.org_unit_type -->
<g id="node5" class="node">
<title>actor.org_unit_type</title>
<polygon fill="#efefef" stroke="transparent" points="1528,-342.5 1528,-377.5 1823,-377.5 1823,-342.5 1528,-342.5"/>
<polygon fill="none" stroke="#000000" points="1528,-342.5 1528,-377.5 1823,-377.5 1823,-342.5 1528,-342.5"/>
<text text-anchor="start" x="1534.6913" y="-355.3" font-family="Arial Bold" font-size="18.00" fill="#000000">actor.org_unit_type</text>
<text text-anchor="start" x="1688.7407" y="-355.3" font-family="Arial" font-size="14.00" fill="#000000">    </text>
<text text-anchor="start" x="1722.9455" y="-355.3" font-family="Arial" font-size="14.00" fill="#666666">[BASE TABLE]</text>
<polygon fill="none" stroke="#000000" points="1528,-312.5 1528,-342.5 1823,-342.5 1823,-312.5 1528,-312.5"/>
<text text-anchor="start" x="1535" y="-323.9" font-family="Arial" font-size="14.00" fill="#000000">id    </text>
<text text-anchor="start" x="1580.094" y="-323.9" font-family="Arial" font-size="14.00" fill="#666666">[integer]</text>
<polygon fill="none" stroke="#000000" points="1528,-282.5 1528,-312.5 1823,-312.5 1823,-282.5 1528,-282.5"/>
<text text-anchor="start" x="1535" y="-293.9" font-family="Arial" font-size="14.00" fill="#000000">name    </text>
<text text-anchor="start" x="1604.2132" y="-293.9" font-family="Arial" font-size="14.00" fill="#666666">[text]</text>
<polygon fill="none" stroke="#000000" points="1528,-252.5 1528,-282.5 1823,-282.5 1823,-252.5 1528,-252.5"/>
<text text-anchor="start" x="1535" y="-263.9" font-family="Arial" font-size="14.00" fill="#000000">opac_label    </text>
<text text-anchor="start" x="1636.8962" y="-263.9" font-family="Arial" font-size="14.00" fill="#666666">[text]</text>
<polygon fill="none" stroke="#000000" points="1528,-222.5 1528,-252.5 1823,-252.5 1823,-222.5 1528,-222.5"/>
<text text-anchor="start" x="1535" y="-233.9" font-family="Arial" font-size="14.00" fill="#000000">depth    </text>
<text text-anchor="start" x="1604.2258" y="-233.9" font-family="Arial" font-size="14.00" fill="#666666">[integer]</text>
<polygon fill="none" stroke="#000000" points="1528,-192.5 1528,-222.5 1823,-222.5 1823,-192.5 1528,-192.5"/>
<text text-anchor="start" x="1535" y="-203.9" font-family="Arial" font-size="14.00" fill="#000000">parent    </text>
<text text-anchor="start" x="1608.8864" y="-203.9" font-family="Arial" font-size="14.00" fill="#666666">[integer]</text>
<polygon fill="none" stroke="#000000" points="1528,-162.5 1528,-192.5 1823,-192.5 1823,-162.5 1528,-162.5"/>
<text text-anchor="start" x="1535" y="-173.9" font-family="Arial" font-size="14.00" fill="#000000">can_have_vols    </text>
<text text-anchor="start" x="1662.5722" y="-173.9" font-family="Arial" font-size="14.00" fill="#666666">[boolean]</text>
<polygon fill="none" stroke="#000000" points="1528,-132.5 1528,-162.5 1823,-162.5 1823,-132.5 1528,-132.5"/>
<text text-anchor="start" x="1535" y="-143.9" font-family="Arial" font-size="14.00" fill="#000000">can_have_users    </text>
<text text-anchor="start" x="1671.9088" y="-143.9" font-family="Arial" font-size="14.00" fill="#666666">[boolean]</text>
</g>
<!-- config.hold_matrix_matchpoint&#45;&gt;actor.org_unit_type -->
<g id="edge9" class="edge">
<title>config.hold_matrix_matchpoint:transit_range&#45;&gt;actor.org_unit_type:id</title>
<path fill="none" stroke="#000000" d="M885.0661,-757.4866C1166.0984,-756.7278 1284.7689,-723.1064 1475,-511 1531.6784,-447.804 1443.1108,-327.5 1528,-327.5"/>
<polygon fill="#000000" stroke="#000000" points="885,-757.4866 874.994,-753 880,-757.4933 875,-757.5 875,-757.5 875,-757.5 880,-757.4933 875.006,-762 885,-757.4866 885,-757.4866"/>
<text text-anchor="start" x="881.9245" y="-767.5" font-family="Arial" font-size="10.00" fill="#000000">FOREIGN KEY (transit_range) REFERENCES actor.org_unit_type(id) DEFERRABLE INITIALLY DEFERRED</text>
</g>
<!-- config.rule_age_hold_protect -->
<g id="node6" class="node">
<title>config.rule_age_hold_protect</title>
<polygon fill="#efefef" stroke="transparent" points="1927,-297.5 1927,-332.5 2300,-332.5 2300,-297.5 1927,-297.5"/>
<polygon fill="none" stroke="#000000" points="1927,-297.5 1927,-332.5 2300,-332.5 2300,-297.5 1927,-297.5"/>
<text text-anchor="start" x="1933.6754" y="-310.3" font-family="Arial Bold" font-size="18.00" fill="#000000">config.rule_age_hold_protect</text>
<text text-anchor="start" x="2165.7566" y="-310.3" font-family="Arial" font-size="14.00" fill="#000000">    </text>
<text text-anchor="start" x="2199.9614" y="-310.3" font-family="Arial" font-size="14.00" fill="#666666">[BASE TABLE]</text>
<polygon fill="none" stroke="#000000" points="1927,-267.5 1927,-297.5 2300,-297.5 2300,-267.5 1927,-267.5"/>
<text text-anchor="start" x="1934" y="-278.9" font-family="Arial" font-size="14.00" fill="#000000">id    </text>
<text text-anchor="start" x="1979.094" y="-278.9" font-family="Arial" font-size="14.00" fill="#666666">[integer]</text>
<polygon fill="none" stroke="#000000" points="1927,-237.5 1927,-267.5 2300,-267.5 2300,-237.5 1927,-237.5"/>
<text text-anchor="start" x="1934" y="-248.9" font-family="Arial" font-size="14.00" fill="#000000">name    </text>
<text text-anchor="start" x="2003.2132" y="-248.9" font-family="Arial" font-size="14.00" fill="#666666">[text]</text>
<polygon fill="none" stroke="#000000" points="1927,-207.5 1927,-237.5 2300,-237.5 2300,-207.5 1927,-207.5"/>
<text text-anchor="start" x="1934" y="-218.9" font-family="Arial" font-size="14.00" fill="#000000">age    </text>
<text text-anchor="start" x="1991.5526" y="-218.9" font-family="Arial" font-size="14.00" fill="#666666">[interval]</text>
<polygon fill="none" stroke="#000000" points="1927,-177.5 1927,-207.5 2300,-207.5 2300,-177.5 1927,-177.5"/>
<text text-anchor="start" x="1934" y="-188.9" font-family="Arial" font-size="14.00" fill="#000000">prox    </text>
<text text-anchor="start" x="1995.4306" y="-188.9" font-family="Arial" font-size="14.00" fill="#666666">[integer]</text>
</g>
<!-- config.hold_matrix_matchpoint&#45;&gt;config.rule_age_hold_protect -->
<g id="edge10" class="edge">
<title>config.hold_matrix_matchpoint:age_hold_protect_rule&#45;&gt;config.rule_age_hold_protect:id</title>
<path fill="none" stroke="#000000" d="M885.2786,-637.3936C1028.9473,-634.7793 1794.2131,-584.2391 1875,-511 1952.163,-441.0462 1822.8479,-282.5 1927,-282.5"/>
<polygon fill="#000000" stroke="#000000" points="884.9995,-637.3963 874.9534,-633.0002 879.9997,-637.4482 875,-637.5 875,-637.5 875,-637.5 879.9997,-637.4482 875.0466,-641.9998 884.9995,-637.3963 884.9995,-637.3963"/>
<text text-anchor="start" x="881.683" y="-647.5" font-family="Arial" font-size="10.00" fill="#000000">FOREIGN KEY (age_hold_protect_rule) REFERENCES config.rule_age_hold_protect(id) DEFERRABLE INITIALLY DEFERRED</text>
</g>
</g>
</svg>
