<?xml version="1.0" encoding="UTF-8" standalone="no"?>
<!DOCTYPE svg PUBLIC "-//W3C//DTD SVG 1.1//EN"
 "http://www.w3.org/Graphics/SVG/1.1/DTD/svg11.dtd">
<!-- Generated by graphviz version 2.40.1 (20161225.0304)
 -->
<!-- Title: config.usr_activity_type Pages: 1 -->
<svg width="1154pt" height="832pt"
 viewBox="0.00 0.00 1154.00 832.00" xmlns="http://www.w3.org/2000/svg" xmlns:xlink="http://www.w3.org/1999/xlink">
<g id="graph0" class="graph" transform="scale(1 1) rotate(0) translate(4 828)">
<title>config.usr_activity_type</title>
<polygon fill="#ffffff" stroke="transparent" points="-4,4 -4,-828 1150,-828 1150,4 -4,4"/>
<!-- config.usr_activity_type -->
<g id="node1" class="node">
<title>config.usr_activity_type</title>
<polygon fill="#efefef" stroke="transparent" points="558,-285.5 558,-320.5 886,-320.5 886,-285.5 558,-285.5"/>
<polygon fill="none" stroke="#000000" points="558,-285.5 558,-320.5 886,-320.5 886,-285.5 558,-285.5"/>
<text text-anchor="start" x="564.6952" y="-298.3" font-family="Arial Bold" font-size="18.00" fill="#000000">config.usr_activity_type</text>
<text text-anchor="start" x="751.7368" y="-298.3" font-family="Arial" font-size="14.00" fill="#000000">    </text>
<text text-anchor="start" x="785.9416" y="-298.3" font-family="Arial" font-size="14.00" fill="#666666">[BASE TABLE]</text>
<polygon fill="none" stroke="#000000" points="558,-255.5 558,-285.5 886,-285.5 886,-255.5 558,-255.5"/>
<text text-anchor="start" x="565" y="-266.9" font-family="Arial" font-size="14.00" fill="#000000">id </text>
<text text-anchor="start" x="579.7798" y="-266.9" font-family="Arial" font-size="14.00" fill="#666666">[integer]</text>
<polygon fill="none" stroke="#000000" points="558,-225.5 558,-255.5 886,-255.5 886,-225.5 558,-225.5"/>
<text text-anchor="start" x="565" y="-236.9" font-family="Arial" font-size="14.00" fill="#000000">ewho </text>
<text text-anchor="start" x="602.345" y="-236.9" font-family="Arial" font-size="14.00" fill="#666666">[text]</text>
<polygon fill="none" stroke="#000000" points="558,-195.5 558,-225.5 886,-225.5 886,-195.5 558,-195.5"/>
<text text-anchor="start" x="565" y="-206.9" font-family="Arial" font-size="14.00" fill="#000000">ewhat </text>
<text text-anchor="start" x="606.2356" y="-206.9" font-family="Arial" font-size="14.00" fill="#666666">[text]</text>
<polygon fill="none" stroke="#000000" points="558,-165.5 558,-195.5 886,-195.5 886,-165.5 558,-165.5"/>
<text text-anchor="start" x="565" y="-176.9" font-family="Arial" font-size="14.00" fill="#000000">ehow </text>
<text text-anchor="start" x="602.345" y="-176.9" font-family="Arial" font-size="14.00" fill="#666666">[text]</text>
<polygon fill="none" stroke="#000000" points="558,-135.5 558,-165.5 886,-165.5 886,-135.5 558,-135.5"/>
<text text-anchor="start" x="565" y="-146.9" font-family="Arial" font-size="14.00" fill="#000000">label </text>
<text text-anchor="start" x="598.4516" y="-146.9" font-family="Arial" font-size="14.00" fill="#666666">[text]</text>
<polygon fill="none" stroke="#000000" points="558,-105.5 558,-135.5 886,-135.5 886,-105.5 558,-105.5"/>
<text text-anchor="start" x="565" y="-116.9" font-family="Arial" font-size="14.00" fill="#000000">egroup </text>
<text text-anchor="start" x="612.4642" y="-116.9" font-family="Arial" font-size="14.00" fill="#666666">[config.usr_activity_group]</text>
<polygon fill="none" stroke="#000000" points="558,-75.5 558,-105.5 886,-105.5 886,-75.5 558,-75.5"/>
<text text-anchor="start" x="565" y="-86.9" font-family="Arial" font-size="14.00" fill="#000000">enabled </text>
<text text-anchor="start" x="618.6928" y="-86.9" font-family="Arial" font-size="14.00" fill="#666666">[boolean]</text>
<polygon fill="none" stroke="#000000" points="558,-45.5 558,-75.5 886,-75.5 886,-45.5 558,-45.5"/>
<text text-anchor="start" x="565" y="-56.9" font-family="Arial" font-size="14.00" fill="#000000">transient </text>
<text text-anchor="start" x="622.5694" y="-56.9" font-family="Arial" font-size="14.00" fill="#666666">[boolean]</text>
<polygon fill="none" stroke="#000000" stroke-width="3" points="556.5,-44.5 556.5,-322.5 887.5,-322.5 887.5,-44.5 556.5,-44.5"/>
</g>
<!-- actor.usr_activity -->
<g id="node2" class="node">
<title>actor.usr_activity</title>
<polygon fill="#efefef" stroke="transparent" points="373,-655.5 373,-690.5 655,-690.5 655,-655.5 373,-655.5"/>
<polygon fill="none" stroke="#000000" points="373,-655.5 373,-690.5 655,-690.5 655,-655.5 373,-655.5"/>
<text text-anchor="start" x="382.7097" y="-668.3" font-family="Arial Bold" font-size="18.00" fill="#000000">actor.usr_activity</text>
<text text-anchor="start" x="517.7223" y="-668.3" font-family="Arial" font-size="14.00" fill="#000000">    </text>
<text text-anchor="start" x="551.9271" y="-668.3" font-family="Arial" font-size="14.00" fill="#666666">[BASE TABLE]</text>
<polygon fill="none" stroke="#000000" points="373,-625.5 373,-655.5 655,-655.5 655,-625.5 373,-625.5"/>
<text text-anchor="start" x="380" y="-636.9" font-family="Arial" font-size="14.00" fill="#000000">id    </text>
<text text-anchor="start" x="425.094" y="-636.9" font-family="Arial" font-size="14.00" fill="#666666">[bigint]</text>
<polygon fill="none" stroke="#000000" points="373,-595.5 373,-625.5 655,-625.5 655,-595.5 373,-595.5"/>
<text text-anchor="start" x="380" y="-606.9" font-family="Arial" font-size="14.00" fill="#000000">usr    </text>
<text text-anchor="start" x="433.648" y="-606.9" font-family="Arial" font-size="14.00" fill="#666666">[integer]</text>
<polygon fill="none" stroke="#000000" points="373,-565.5 373,-595.5 655,-595.5 655,-565.5 373,-565.5"/>
<text text-anchor="start" x="380" y="-576.9" font-family="Arial" font-size="14.00" fill="#000000">etype    </text>
<text text-anchor="start" x="448.4432" y="-576.9" font-family="Arial" font-size="14.00" fill="#666666">[integer]</text>
<polygon fill="none" stroke="#000000" points="373,-535.5 373,-565.5 655,-565.5 655,-535.5 373,-535.5"/>
<text text-anchor="start" x="379.8247" y="-546.9" font-family="Arial" font-size="14.00" fill="#000000">event_time    </text>
<text text-anchor="start" x="482.4909" y="-546.9" font-family="Arial" font-size="14.00" fill="#666666">[timestamp with time zone]</text>
</g>
<!-- actor.usr_activity&#45;&gt;config.usr_activity_type -->
<g id="edge1" class="edge">
<title>actor.usr_activity:etype&#45;&gt;config.usr_activity_type:id</title>
<path fill="none" stroke="#000000" d="M664.9127,-578.9992C688.6773,-570.3477 666.257,-526.0761 655,-493 632.2303,-426.0963 580.7697,-433.9037 558,-367 544.1817,-326.3981 515.1111,-270.5 558,-270.5"/>
<polygon fill="#000000" stroke="#000000" points="664.8873,-579.003 654.3263,-576.0507 659.9437,-579.7515 655,-580.5 655,-580.5 655,-580.5 659.9437,-579.7515 655.6737,-584.9493 664.8873,-579.003 664.8873,-579.003"/>
<text text-anchor="start" x="661.766" y="-590.5" font-family="Arial" font-size="10.00" fill="#000000">FOREIGN KEY (etype) REFERENCES config.usr_activity_type(id)</text>
</g>
<!-- config.remoteauth_profile -->
<g id="node3" class="node">
<title>config.remoteauth_profile</title>
<polygon fill="#efefef" stroke="transparent" points="759,-745.5 759,-780.5 1103,-780.5 1103,-745.5 759,-745.5"/>
<polygon fill="none" stroke="#000000" points="759,-745.5 759,-780.5 1103,-780.5 1103,-745.5 759,-745.5"/>
<text text-anchor="start" x="765.6906" y="-758.3" font-family="Arial Bold" font-size="18.00" fill="#000000">config.remoteauth_profile</text>
<text text-anchor="start" x="968.7414" y="-758.3" font-family="Arial" font-size="14.00" fill="#000000">    </text>
<text text-anchor="start" x="1002.9462" y="-758.3" font-family="Arial" font-size="14.00" fill="#666666">[BASE TABLE]</text>
<polygon fill="none" stroke="#000000" points="759,-715.5 759,-745.5 1103,-745.5 1103,-715.5 759,-715.5"/>
<text text-anchor="start" x="766" y="-726.9" font-family="Arial" font-size="14.00" fill="#000000">name    </text>
<text text-anchor="start" x="835.2132" y="-726.9" font-family="Arial" font-size="14.00" fill="#666666">[text]</text>
<polygon fill="none" stroke="#000000" points="759,-685.5 759,-715.5 1103,-715.5 1103,-685.5 759,-685.5"/>
<text text-anchor="start" x="766" y="-696.9" font-family="Arial" font-size="14.00" fill="#000000">description    </text>
<text text-anchor="start" x="867.8822" y="-696.9" font-family="Arial" font-size="14.00" fill="#666666">[text]</text>
<polygon fill="none" stroke="#000000" points="759,-655.5 759,-685.5 1103,-685.5 1103,-655.5 759,-655.5"/>
<text text-anchor="start" x="766" y="-666.9" font-family="Arial" font-size="14.00" fill="#000000">context_org    </text>
<text text-anchor="start" x="873.3422" y="-666.9" font-family="Arial" font-size="14.00" fill="#666666">[integer]</text>
<polygon fill="none" stroke="#000000" points="759,-625.5 759,-655.5 1103,-655.5 1103,-625.5 759,-625.5"/>
<text text-anchor="start" x="766" y="-636.9" font-family="Arial" font-size="14.00" fill="#000000">enabled    </text>
<text text-anchor="start" x="850.007" y="-636.9" font-family="Arial" font-size="14.00" fill="#666666">[boolean]</text>
<polygon fill="none" stroke="#000000" points="759,-595.5 759,-625.5 1103,-625.5 1103,-595.5 759,-595.5"/>
<text text-anchor="start" x="766" y="-606.9" font-family="Arial" font-size="14.00" fill="#000000">perm    </text>
<text text-anchor="start" x="832.0912" y="-606.9" font-family="Arial" font-size="14.00" fill="#666666">[integer]</text>
<polygon fill="none" stroke="#000000" points="759,-565.5 759,-595.5 1103,-595.5 1103,-565.5 759,-565.5"/>
<text text-anchor="start" x="766" y="-576.9" font-family="Arial" font-size="14.00" fill="#000000">restrict_to_org    </text>
<text text-anchor="start" x="889.6606" y="-576.9" font-family="Arial" font-size="14.00" fill="#666666">[boolean]</text>
<polygon fill="none" stroke="#000000" points="759,-535.5 759,-565.5 1103,-565.5 1103,-535.5 759,-535.5"/>
<text text-anchor="start" x="766" y="-546.9" font-family="Arial" font-size="14.00" fill="#000000">allow_inactive    </text>
<text text-anchor="start" x="887.324" y="-546.9" font-family="Arial" font-size="14.00" fill="#666666">[boolean]</text>
<polygon fill="none" stroke="#000000" points="759,-505.5 759,-535.5 1103,-535.5 1103,-505.5 759,-505.5"/>
<text text-anchor="start" x="766" y="-516.9" font-family="Arial" font-size="14.00" fill="#000000">allow_expired    </text>
<text text-anchor="start" x="885.77" y="-516.9" font-family="Arial" font-size="14.00" fill="#666666">[boolean]</text>
<polygon fill="none" stroke="#000000" points="759,-475.5 759,-505.5 1103,-505.5 1103,-475.5 759,-475.5"/>
<text text-anchor="start" x="766" y="-486.9" font-family="Arial" font-size="14.00" fill="#000000">block_list    </text>
<text text-anchor="start" x="857.763" y="-486.9" font-family="Arial" font-size="14.00" fill="#666666">[text]</text>
<polygon fill="none" stroke="#000000" points="759,-445.5 759,-475.5 1103,-475.5 1103,-445.5 759,-445.5"/>
<text text-anchor="start" x="766" y="-456.9" font-family="Arial" font-size="14.00" fill="#000000">usr_activity_type    </text>
<text text-anchor="start" x="904.446" y="-456.9" font-family="Arial" font-size="14.00" fill="#666666">[integer]</text>
</g>
<!-- config.remoteauth_profile&#45;&gt;config.usr_activity_type -->
<g id="edge2" class="edge">
<title>config.remoteauth_profile:usr_activity_type&#45;&gt;config.usr_activity_type:id</title>
<path fill="none" stroke="#000000" d="M749.1703,-457.7408C736.915,-448.7723 746.1176,-420.0416 759,-403 794.3785,-356.199 850.6215,-413.801 886,-367 911.8631,-332.7866 928.8889,-270.5 886,-270.5"/>
<polygon fill="#000000" stroke="#000000" points="749.3721,-457.7974 757.7838,-464.8326 754.186,-459.1487 759,-460.5 759,-460.5 759,-460.5 754.186,-459.1487 760.2162,-456.1674 749.3721,-457.7974 749.3721,-457.7974"/>
<text text-anchor="start" x="7.4835" y="-470.5" font-family="Arial" font-size="10.00" fill="#000000">FOREIGN KEY (usr_activity_type) REFERENCES config.usr_activity_type(id) ON UPDATE CASCADE ON DELETE RESTRICT DEFERRABLE INITIALLY DEFERRED</text>
</g>
</g>
</svg>
