<?xml version="1.0" encoding="UTF-8" standalone="no"?>
<!DOCTYPE svg PUBLIC "-//W3C//DTD SVG 1.1//EN"
 "http://www.w3.org/Graphics/SVG/1.1/DTD/svg11.dtd">
<!-- Generated by graphviz version 2.40.1 (20161225.0304)
 -->
<!-- Title: config.standing_penalty Pages: 1 -->
<svg width="1363pt" height="742pt"
 viewBox="0.00 0.00 1363.00 742.00" xmlns="http://www.w3.org/2000/svg" xmlns:xlink="http://www.w3.org/1999/xlink">
<g id="graph0" class="graph" transform="scale(1 1) rotate(0) translate(4 738)">
<title>config.standing_penalty</title>
<polygon fill="#ffffff" stroke="transparent" points="-4,4 -4,-738 1359,-738 1359,4 -4,4"/>
<!-- config.standing_penalty -->
<g id="node1" class="node">
<title>config.standing_penalty</title>
<polygon fill="#efefef" stroke="transparent" points="548,-255.5 548,-290.5 878,-290.5 878,-255.5 548,-255.5"/>
<polygon fill="none" stroke="#000000" points="548,-255.5 548,-290.5 878,-290.5 878,-255.5 548,-255.5"/>
<text text-anchor="start" x="554.68" y="-268.3" font-family="Arial Bold" font-size="18.00" fill="#000000">config.standing_penalty</text>
<text text-anchor="start" x="743.752" y="-268.3" font-family="Arial" font-size="14.00" fill="#000000">    </text>
<text text-anchor="start" x="777.9568" y="-268.3" font-family="Arial" font-size="14.00" fill="#666666">[BASE TABLE]</text>
<polygon fill="none" stroke="#000000" points="548,-225.5 548,-255.5 878,-255.5 878,-225.5 548,-225.5"/>
<text text-anchor="start" x="555" y="-236.9" font-family="Arial" font-size="14.00" fill="#000000">id </text>
<text text-anchor="start" x="569.7798" y="-236.9" font-family="Arial" font-size="14.00" fill="#666666">[integer]</text>
<polygon fill="none" stroke="#000000" points="548,-195.5 548,-225.5 878,-225.5 878,-195.5 548,-195.5"/>
<text text-anchor="start" x="555" y="-206.9" font-family="Arial" font-size="14.00" fill="#000000">name </text>
<text text-anchor="start" x="593.899" y="-206.9" font-family="Arial" font-size="14.00" fill="#666666">[text]</text>
<polygon fill="none" stroke="#000000" points="548,-165.5 548,-195.5 878,-195.5 878,-165.5 548,-165.5"/>
<text text-anchor="start" x="555" y="-176.9" font-family="Arial" font-size="14.00" fill="#000000">label </text>
<text text-anchor="start" x="588.4516" y="-176.9" font-family="Arial" font-size="14.00" fill="#666666">[text]</text>
<polygon fill="none" stroke="#000000" points="548,-135.5 548,-165.5 878,-165.5 878,-135.5 548,-135.5"/>
<text text-anchor="start" x="555" y="-146.9" font-family="Arial" font-size="14.00" fill="#000000">block_list </text>
<text text-anchor="start" x="616.4488" y="-146.9" font-family="Arial" font-size="14.00" fill="#666666">[text]</text>
<polygon fill="none" stroke="#000000" points="548,-105.5 548,-135.5 878,-135.5 878,-105.5 548,-105.5"/>
<text text-anchor="start" x="555" y="-116.9" font-family="Arial" font-size="14.00" fill="#000000">staff_alert </text>
<text text-anchor="start" x="620.3506" y="-116.9" font-family="Arial" font-size="14.00" fill="#666666">[boolean]</text>
<polygon fill="none" stroke="#000000" points="548,-75.5 548,-105.5 878,-105.5 878,-75.5 548,-75.5"/>
<text text-anchor="start" x="555" y="-86.9" font-family="Arial" font-size="14.00" fill="#000000">org_depth </text>
<text text-anchor="start" x="621.92" y="-86.9" font-family="Arial" font-size="14.00" fill="#666666">[integer]</text>
<polygon fill="none" stroke="#000000" points="548,-45.5 548,-75.5 878,-75.5 878,-45.5 548,-45.5"/>
<text text-anchor="start" x="555" y="-56.9" font-family="Arial" font-size="14.00" fill="#000000">ignore_proximity </text>
<text text-anchor="start" x="661.561" y="-56.9" font-family="Arial" font-size="14.00" fill="#666666">[integer]</text>
<polygon fill="none" stroke="#000000" stroke-width="3" points="546.5,-44.5 546.5,-292.5 879.5,-292.5 879.5,-44.5 546.5,-44.5"/>
</g>
<!-- actor.usr_standing_penalty -->
<g id="node2" class="node">
<title>actor.usr_standing_penalty</title>
<polygon fill="#efefef" stroke="transparent" points="290,-655.5 290,-690.5 647,-690.5 647,-655.5 290,-655.5"/>
<polygon fill="none" stroke="#000000" points="290,-655.5 290,-690.5 647,-690.5 647,-655.5 290,-655.5"/>
<text text-anchor="start" x="296.6818" y="-668.3" font-family="Arial Bold" font-size="18.00" fill="#000000">actor.usr_standing_penalty</text>
<text text-anchor="start" x="512.7502" y="-668.3" font-family="Arial" font-size="14.00" fill="#000000">    </text>
<text text-anchor="start" x="546.955" y="-668.3" font-family="Arial" font-size="14.00" fill="#666666">[BASE TABLE]</text>
<polygon fill="none" stroke="#000000" points="290,-625.5 290,-655.5 647,-655.5 647,-625.5 290,-625.5"/>
<text text-anchor="start" x="297" y="-636.9" font-family="Arial" font-size="14.00" fill="#000000">id    </text>
<text text-anchor="start" x="342.094" y="-636.9" font-family="Arial" font-size="14.00" fill="#666666">[integer]</text>
<polygon fill="none" stroke="#000000" points="290,-595.5 290,-625.5 647,-625.5 647,-595.5 290,-595.5"/>
<text text-anchor="start" x="297" y="-606.9" font-family="Arial" font-size="14.00" fill="#000000">org_unit    </text>
<text text-anchor="start" x="381.7756" y="-606.9" font-family="Arial" font-size="14.00" fill="#666666">[integer]</text>
<polygon fill="none" stroke="#000000" points="290,-565.5 290,-595.5 647,-595.5 647,-565.5 290,-565.5"/>
<text text-anchor="start" x="297" y="-576.9" font-family="Arial" font-size="14.00" fill="#000000">usr    </text>
<text text-anchor="start" x="350.648" y="-576.9" font-family="Arial" font-size="14.00" fill="#666666">[integer]</text>
<polygon fill="none" stroke="#000000" points="290,-535.5 290,-565.5 647,-565.5 647,-535.5 290,-535.5"/>
<text text-anchor="start" x="297" y="-546.9" font-family="Arial" font-size="14.00" fill="#000000">standing_penalty    </text>
<text text-anchor="start" x="437.0252" y="-546.9" font-family="Arial" font-size="14.00" fill="#666666">[integer]</text>
<polygon fill="none" stroke="#000000" points="290,-505.5 290,-535.5 647,-535.5 647,-505.5 290,-505.5"/>
<text text-anchor="start" x="297" y="-516.9" font-family="Arial" font-size="14.00" fill="#000000">staff    </text>
<text text-anchor="start" x="357.6592" y="-516.9" font-family="Arial" font-size="14.00" fill="#666666">[integer]</text>
<polygon fill="none" stroke="#000000" points="290,-475.5 290,-505.5 647,-505.5 647,-475.5 290,-475.5"/>
<text text-anchor="start" x="297" y="-486.9" font-family="Arial" font-size="14.00" fill="#000000">set_date    </text>
<text text-anchor="start" x="384.899" y="-486.9" font-family="Arial" font-size="14.00" fill="#666666">[timestamp with time zone]</text>
<polygon fill="none" stroke="#000000" points="290,-445.5 290,-475.5 647,-475.5 647,-445.5 290,-445.5"/>
<text text-anchor="start" x="297" y="-456.9" font-family="Arial" font-size="14.00" fill="#000000">stop_date    </text>
<text text-anchor="start" x="392.6816" y="-456.9" font-family="Arial" font-size="14.00" fill="#666666">[timestamp with time zone]</text>
<polygon fill="none" stroke="#000000" points="290,-415.5 290,-445.5 647,-445.5 647,-415.5 290,-415.5"/>
<text text-anchor="start" x="297" y="-426.9" font-family="Arial" font-size="14.00" fill="#000000">note    </text>
<text text-anchor="start" x="358.4432" y="-426.9" font-family="Arial" font-size="14.00" fill="#666666">[text]</text>
</g>
<!-- actor.usr_standing_penalty&#45;&gt;config.standing_penalty -->
<g id="edge1" class="edge">
<title>actor.usr_standing_penalty:standing_penalty&#45;&gt;config.standing_penalty:id</title>
<path fill="none" stroke="#000000" d="M657.3624,-549.7725C722.7105,-540.0231 690.1368,-434.5865 647,-373 620.1402,-334.6522 574.8598,-375.3478 548,-337 523.3948,-301.8711 505.1111,-240.5 548,-240.5"/>
<polygon fill="#000000" stroke="#000000" points="656.9754,-549.7996 646.6848,-546.011 651.9877,-550.1498 647,-550.5 647,-550.5 647,-550.5 651.9877,-550.1498 647.3152,-554.989 656.9754,-549.7996 656.9754,-549.7996"/>
<text text-anchor="start" x="7.296" y="-560.5" font-family="Arial" font-size="10.00" fill="#000000">FOREIGN KEY (standing_penalty) REFERENCES config.standing_penalty(id) ON DELETE CASCADE DEFERRABLE INITIALLY DEFERRED</text>
</g>
<!-- permission.grp_penalty_threshold -->
<g id="node3" class="node">
<title>permission.grp_penalty_threshold</title>
<polygon fill="#efefef" stroke="transparent" points="751,-610.5 751,-645.5 1162,-645.5 1162,-610.5 751,-610.5"/>
<polygon fill="none" stroke="#000000" points="751,-610.5 751,-645.5 1162,-645.5 1162,-610.5 751,-610.5"/>
<text text-anchor="start" x="757.6872" y="-623.3" font-family="Arial Bold" font-size="18.00" fill="#000000">permission.grp_penalty_threshold</text>
<text text-anchor="start" x="1027.7448" y="-623.3" font-family="Arial" font-size="14.00" fill="#000000">    </text>
<text text-anchor="start" x="1061.9496" y="-623.3" font-family="Arial" font-size="14.00" fill="#666666">[BASE TABLE]</text>
<polygon fill="none" stroke="#000000" points="751,-580.5 751,-610.5 1162,-610.5 1162,-580.5 751,-580.5"/>
<text text-anchor="start" x="758" y="-591.9" font-family="Arial" font-size="14.00" fill="#000000">id    </text>
<text text-anchor="start" x="803.094" y="-591.9" font-family="Arial" font-size="14.00" fill="#666666">[integer]</text>
<polygon fill="none" stroke="#000000" points="751,-550.5 751,-580.5 1162,-580.5 1162,-550.5 751,-550.5"/>
<text text-anchor="start" x="758" y="-561.9" font-family="Arial" font-size="14.00" fill="#000000">grp    </text>
<text text-anchor="start" x="812.4306" y="-561.9" font-family="Arial" font-size="14.00" fill="#666666">[integer]</text>
<polygon fill="none" stroke="#000000" points="751,-520.5 751,-550.5 1162,-550.5 1162,-520.5 751,-520.5"/>
<text text-anchor="start" x="758" y="-531.9" font-family="Arial" font-size="14.00" fill="#000000">org_unit    </text>
<text text-anchor="start" x="842.7756" y="-531.9" font-family="Arial" font-size="14.00" fill="#666666">[integer]</text>
<polygon fill="none" stroke="#000000" points="751,-490.5 751,-520.5 1162,-520.5 1162,-490.5 751,-490.5"/>
<text text-anchor="start" x="758" y="-501.9" font-family="Arial" font-size="14.00" fill="#000000">penalty    </text>
<text text-anchor="start" x="837.3324" y="-501.9" font-family="Arial" font-size="14.00" fill="#666666">[integer]</text>
<polygon fill="none" stroke="#000000" points="751,-460.5 751,-490.5 1162,-490.5 1162,-460.5 751,-460.5"/>
<text text-anchor="start" x="758" y="-471.9" font-family="Arial" font-size="14.00" fill="#000000">threshold    </text>
<text text-anchor="start" x="849.7756" y="-471.9" font-family="Arial" font-size="14.00" fill="#666666">[numeric(8,2)]</text>
</g>
<!-- permission.grp_penalty_threshold&#45;&gt;config.standing_penalty -->
<g id="edge2" class="edge">
<title>permission.grp_penalty_threshold:penalty&#45;&gt;config.standing_penalty:id</title>
<path fill="none" stroke="#000000" d="M740.9158,-503.9237C716.1973,-494.8522 734.2025,-448.6365 751,-418 783.1859,-359.297 845.8141,-395.703 878,-337 898.6194,-299.3928 920.8889,-240.5 878,-240.5"/>
<polygon fill="#000000" stroke="#000000" points="741.12,-503.9555 750.305,-509.946 746.06,-504.7278 751,-505.5 751,-505.5 751,-505.5 746.06,-504.7278 751.695,-501.054 741.12,-503.9555 741.12,-503.9555"/>
<text text-anchor="start" x="757.972" y="-515.5" font-family="Arial" font-size="10.00" fill="#000000">FOREIGN KEY (penalty) REFERENCES config.standing_penalty(id) ON DELETE CASCADE DEFERRABLE INITIALLY DEFERRED</text>
</g>
</g>
</svg>
