<?xml version="1.0" encoding="UTF-8" standalone="no"?>
<!DOCTYPE svg PUBLIC "-//W3C//DTD SVG 1.1//EN"
 "http://www.w3.org/Graphics/SVG/1.1/DTD/svg11.dtd">
<!-- Generated by graphviz version 2.40.1 (20161225.0304)
 -->
<!-- Title: config.z3950_index_field_map Pages: 1 -->
<svg width="1423pt" height="1012pt"
 viewBox="0.00 0.00 1422.50 1012.00" xmlns="http://www.w3.org/2000/svg" xmlns:xlink="http://www.w3.org/1999/xlink">
<g id="graph0" class="graph" transform="scale(1 1) rotate(0) translate(4 1008)">
<title>config.z3950_index_field_map</title>
<polygon fill="#ffffff" stroke="transparent" points="-4,4 -4,-1008 1418.5,-1008 1418.5,4 -4,4"/>
<!-- config.z3950_index_field_map -->
<g id="node1" class="node">
<title>config.z3950_index_field_map</title>
<polygon fill="#efefef" stroke="transparent" points="616,-922.5 616,-957.5 1000,-957.5 1000,-922.5 616,-922.5"/>
<polygon fill="none" stroke="#000000" points="616,-922.5 616,-957.5 1000,-957.5 1000,-922.5 616,-922.5"/>
<text text-anchor="start" x="622.6755" y="-935.3" font-family="Arial Bold" font-size="18.00" fill="#000000">config.z3950_index_field_map</text>
<text text-anchor="start" x="865.7565" y="-935.3" font-family="Arial" font-size="14.00" fill="#000000">    </text>
<text text-anchor="start" x="899.9613" y="-935.3" font-family="Arial" font-size="14.00" fill="#666666">[BASE TABLE]</text>
<polygon fill="none" stroke="#000000" points="616,-892.5 616,-922.5 1000,-922.5 1000,-892.5 616,-892.5"/>
<text text-anchor="start" x="623" y="-903.9" font-family="Arial" font-size="14.00" fill="#000000">id </text>
<text text-anchor="start" x="637.7798" y="-903.9" font-family="Arial" font-size="14.00" fill="#666666">[integer]</text>
<polygon fill="none" stroke="#000000" points="616,-862.5 616,-892.5 1000,-892.5 1000,-862.5 616,-862.5"/>
<text text-anchor="start" x="623" y="-873.9" font-family="Arial" font-size="14.00" fill="#000000">label </text>
<text text-anchor="start" x="656.4516" y="-873.9" font-family="Arial" font-size="14.00" fill="#666666">[text]</text>
<polygon fill="none" stroke="#000000" points="616,-832.5 616,-862.5 1000,-862.5 1000,-832.5 616,-832.5"/>
<text text-anchor="start" x="623" y="-843.9" font-family="Arial" font-size="14.00" fill="#000000">metabib_field </text>
<text text-anchor="start" x="710.1304" y="-843.9" font-family="Arial" font-size="14.00" fill="#666666">[integer]</text>
<polygon fill="none" stroke="#000000" points="616,-802.5 616,-832.5 1000,-832.5 1000,-802.5 616,-802.5"/>
<text text-anchor="start" x="623" y="-813.9" font-family="Arial" font-size="14.00" fill="#000000">record_attr </text>
<text text-anchor="start" x="694.5666" y="-813.9" font-family="Arial" font-size="14.00" fill="#666666">[text]</text>
<polygon fill="none" stroke="#000000" points="616,-772.5 616,-802.5 1000,-802.5 1000,-772.5 616,-772.5"/>
<text text-anchor="start" x="623" y="-783.9" font-family="Arial" font-size="14.00" fill="#000000">z3950_attr </text>
<text text-anchor="start" x="693.028" y="-783.9" font-family="Arial" font-size="14.00" fill="#666666">[integer]</text>
<polygon fill="none" stroke="#000000" points="616,-742.5 616,-772.5 1000,-772.5 1000,-742.5 616,-742.5"/>
<text text-anchor="start" x="623" y="-753.9" font-family="Arial" font-size="14.00" fill="#000000">z3950_attr_type </text>
<text text-anchor="start" x="727.2664" y="-753.9" font-family="Arial" font-size="14.00" fill="#666666">[text]</text>
<polygon fill="none" stroke="#000000" stroke-width="3" points="614.5,-741.5 614.5,-959.5 1001.5,-959.5 1001.5,-741.5 614.5,-741.5"/>
</g>
<!-- config.metabib_field -->
<g id="node2" class="node">
<title>config.metabib_field</title>
<polygon fill="#efefef" stroke="transparent" points="221,-582.5 221,-617.5 522,-617.5 522,-582.5 221,-582.5"/>
<polygon fill="none" stroke="#000000" points="221,-582.5 221,-617.5 522,-617.5 522,-582.5 221,-582.5"/>
<text text-anchor="start" x="227.6961" y="-595.3" font-family="Arial Bold" font-size="18.00" fill="#000000">config.metabib_field</text>
<text text-anchor="start" x="387.7359" y="-595.3" font-family="Arial" font-size="14.00" fill="#000000">    </text>
<text text-anchor="start" x="421.9407" y="-595.3" font-family="Arial" font-size="14.00" fill="#666666">[BASE TABLE]</text>
<polygon fill="none" stroke="#000000" points="221,-552.5 221,-582.5 522,-582.5 522,-552.5 221,-552.5"/>
<text text-anchor="start" x="228" y="-563.9" font-family="Arial" font-size="14.00" fill="#000000">id    </text>
<text text-anchor="start" x="273.094" y="-563.9" font-family="Arial" font-size="14.00" fill="#666666">[integer]</text>
<polygon fill="none" stroke="#000000" points="221,-522.5 221,-552.5 522,-552.5 522,-522.5 221,-522.5"/>
<text text-anchor="start" x="228" y="-533.9" font-family="Arial" font-size="14.00" fill="#000000">field_class    </text>
<text text-anchor="start" x="327.5456" y="-533.9" font-family="Arial" font-size="14.00" fill="#666666">[text]</text>
<polygon fill="none" stroke="#000000" points="221,-492.5 221,-522.5 522,-522.5 522,-492.5 221,-492.5"/>
<text text-anchor="start" x="228" y="-503.9" font-family="Arial" font-size="14.00" fill="#000000">name    </text>
<text text-anchor="start" x="297.2132" y="-503.9" font-family="Arial" font-size="14.00" fill="#666666">[text]</text>
<polygon fill="none" stroke="#000000" points="221,-462.5 221,-492.5 522,-492.5 522,-462.5 221,-462.5"/>
<text text-anchor="start" x="228" y="-473.9" font-family="Arial" font-size="14.00" fill="#000000">label    </text>
<text text-anchor="start" x="291.7658" y="-473.9" font-family="Arial" font-size="14.00" fill="#666666">[text]</text>
<polygon fill="none" stroke="#000000" points="221,-432.5 221,-462.5 522,-462.5 522,-432.5 221,-432.5"/>
<text text-anchor="start" x="228" y="-443.9" font-family="Arial" font-size="14.00" fill="#000000">xpath    </text>
<text text-anchor="start" x="296.4432" y="-443.9" font-family="Arial" font-size="14.00" fill="#666666">[text]</text>
<polygon fill="none" stroke="#000000" points="221,-402.5 221,-432.5 522,-432.5 522,-402.5 221,-402.5"/>
<text text-anchor="start" x="228" y="-413.9" font-family="Arial" font-size="14.00" fill="#000000">weight    </text>
<text text-anchor="start" x="302.6564" y="-413.9" font-family="Arial" font-size="14.00" fill="#666666">[integer]</text>
<polygon fill="none" stroke="#000000" points="221,-372.5 221,-402.5 522,-402.5 522,-372.5 221,-372.5"/>
<text text-anchor="start" x="228" y="-383.9" font-family="Arial" font-size="14.00" fill="#000000">format    </text>
<text text-anchor="start" x="301.8724" y="-383.9" font-family="Arial" font-size="14.00" fill="#666666">[text]</text>
<polygon fill="none" stroke="#000000" points="221,-342.5 221,-372.5 522,-372.5 522,-342.5 221,-342.5"/>
<text text-anchor="start" x="228" y="-353.9" font-family="Arial" font-size="14.00" fill="#000000">search_field    </text>
<text text-anchor="start" x="337.6648" y="-353.9" font-family="Arial" font-size="14.00" fill="#666666">[boolean]</text>
<polygon fill="none" stroke="#000000" points="221,-312.5 221,-342.5 522,-342.5 522,-312.5 221,-312.5"/>
<text text-anchor="start" x="228" y="-323.9" font-family="Arial" font-size="14.00" fill="#000000">facet_field    </text>
<text text-anchor="start" x="326.0028" y="-323.9" font-family="Arial" font-size="14.00" fill="#666666">[boolean]</text>
<polygon fill="none" stroke="#000000" points="221,-282.5 221,-312.5 522,-312.5 522,-282.5 221,-282.5"/>
<text text-anchor="start" x="228" y="-293.9" font-family="Arial" font-size="14.00" fill="#000000">browse_field    </text>
<text text-anchor="start" x="340.7714" y="-293.9" font-family="Arial" font-size="14.00" fill="#666666">[boolean]</text>
<polygon fill="none" stroke="#000000" points="221,-252.5 221,-282.5 522,-282.5 522,-252.5 221,-252.5"/>
<text text-anchor="start" x="228" y="-263.9" font-family="Arial" font-size="14.00" fill="#000000">browse_xpath    </text>
<text text-anchor="start" x="349.3408" y="-263.9" font-family="Arial" font-size="14.00" fill="#666666">[text]</text>
<polygon fill="none" stroke="#000000" points="221,-222.5 221,-252.5 522,-252.5 522,-222.5 221,-222.5"/>
<text text-anchor="start" x="228" y="-233.9" font-family="Arial" font-size="14.00" fill="#000000">browse_sort_xpath    </text>
<text text-anchor="start" x="380.4572" y="-233.9" font-family="Arial" font-size="14.00" fill="#666666">[text]</text>
<polygon fill="none" stroke="#000000" points="221,-192.5 221,-222.5 522,-222.5 522,-192.5 221,-192.5"/>
<text text-anchor="start" x="228" y="-203.9" font-family="Arial" font-size="14.00" fill="#000000">facet_xpath    </text>
<text text-anchor="start" x="334.5722" y="-203.9" font-family="Arial" font-size="14.00" fill="#666666">[text]</text>
<polygon fill="none" stroke="#000000" points="221,-162.5 221,-192.5 522,-192.5 522,-162.5 221,-162.5"/>
<text text-anchor="start" x="228" y="-173.9" font-family="Arial" font-size="14.00" fill="#000000">display_xpath    </text>
<text text-anchor="start" x="347.7868" y="-173.9" font-family="Arial" font-size="14.00" fill="#666666">[text]</text>
<polygon fill="none" stroke="#000000" points="221,-132.5 221,-162.5 522,-162.5 522,-132.5 221,-132.5"/>
<text text-anchor="start" x="228" y="-143.9" font-family="Arial" font-size="14.00" fill="#000000">authority_xpath    </text>
<text text-anchor="start" x="357.9046" y="-143.9" font-family="Arial" font-size="14.00" fill="#666666">[text]</text>
<polygon fill="none" stroke="#000000" points="221,-102.5 221,-132.5 522,-132.5 522,-102.5 221,-102.5"/>
<text text-anchor="start" x="228" y="-113.9" font-family="Arial" font-size="14.00" fill="#000000">joiner    </text>
<text text-anchor="start" x="296.4264" y="-113.9" font-family="Arial" font-size="14.00" fill="#666666">[text]</text>
<polygon fill="none" stroke="#000000" points="221,-72.5 221,-102.5 522,-102.5 522,-72.5 221,-72.5"/>
<text text-anchor="start" x="228" y="-83.9" font-family="Arial" font-size="14.00" fill="#000000">restrict    </text>
<text text-anchor="start" x="304.1964" y="-83.9" font-family="Arial" font-size="14.00" fill="#666666">[boolean]</text>
<polygon fill="none" stroke="#000000" points="221,-42.5 221,-72.5 522,-72.5 522,-42.5 221,-42.5"/>
<text text-anchor="start" x="228" y="-53.9" font-family="Arial" font-size="14.00" fill="#000000">display_field    </text>
<text text-anchor="start" x="339.2174" y="-53.9" font-family="Arial" font-size="14.00" fill="#666666">[boolean]</text>
</g>
<!-- config.z3950_index_field_map&#45;&gt;config.metabib_field -->
<g id="edge1" class="edge">
<title>config.z3950_index_field_map:metabib_field&#45;&gt;config.metabib_field:id</title>
<path fill="none" stroke="#000000" d="M606.1214,-845.0794C554.1337,-817.7124 584.0456,-567.5 522,-567.5"/>
<polygon fill="#000000" stroke="#000000" points="606.2873,-845.12 614.929,-851.8707 611.1437,-846.31 616,-847.5 616,-847.5 616,-847.5 611.1437,-846.31 617.071,-843.1293 606.2873,-845.12 606.2873,-845.12"/>
<text text-anchor="start" x="6.595" y="-857.5" font-family="Arial" font-size="10.00" fill="#000000">FOREIGN KEY (metabib_field) REFERENCES config.metabib_field(id) ON UPDATE CASCADE DEFERRABLE INITIALLY DEFERRED</text>
</g>
<!-- config.record_attr_definition -->
<g id="node3" class="node">
<title>config.record_attr_definition</title>
<polygon fill="#efefef" stroke="transparent" points="626,-567.5 626,-602.5 989,-602.5 989,-567.5 626,-567.5"/>
<polygon fill="none" stroke="#000000" points="626,-567.5 626,-602.5 989,-602.5 989,-567.5 626,-567.5"/>
<text text-anchor="start" x="632.6893" y="-580.3" font-family="Arial Bold" font-size="18.00" fill="#000000">config.record_attr_definition</text>
<text text-anchor="start" x="854.7427" y="-580.3" font-family="Arial" font-size="14.00" fill="#000000">    </text>
<text text-anchor="start" x="888.9475" y="-580.3" font-family="Arial" font-size="14.00" fill="#666666">[BASE TABLE]</text>
<polygon fill="none" stroke="#000000" points="626,-537.5 626,-567.5 989,-567.5 989,-537.5 626,-537.5"/>
<text text-anchor="start" x="633" y="-548.9" font-family="Arial" font-size="14.00" fill="#000000">name    </text>
<text text-anchor="start" x="702.2132" y="-548.9" font-family="Arial" font-size="14.00" fill="#666666">[text]</text>
<polygon fill="none" stroke="#000000" points="626,-507.5 626,-537.5 989,-537.5 989,-507.5 626,-507.5"/>
<text text-anchor="start" x="633" y="-518.9" font-family="Arial" font-size="14.00" fill="#000000">label    </text>
<text text-anchor="start" x="696.7658" y="-518.9" font-family="Arial" font-size="14.00" fill="#666666">[text]</text>
<polygon fill="none" stroke="#000000" points="626,-477.5 626,-507.5 989,-507.5 989,-477.5 626,-477.5"/>
<text text-anchor="start" x="633" y="-488.9" font-family="Arial" font-size="14.00" fill="#000000">description    </text>
<text text-anchor="start" x="734.8822" y="-488.9" font-family="Arial" font-size="14.00" fill="#666666">[text]</text>
<polygon fill="none" stroke="#000000" points="626,-447.5 626,-477.5 989,-477.5 989,-447.5 626,-447.5"/>
<text text-anchor="start" x="633" y="-458.9" font-family="Arial" font-size="14.00" fill="#000000">multi    </text>
<text text-anchor="start" x="696.7518" y="-458.9" font-family="Arial" font-size="14.00" fill="#666666">[boolean]</text>
<polygon fill="none" stroke="#000000" points="626,-417.5 626,-447.5 989,-447.5 989,-417.5 626,-417.5"/>
<text text-anchor="start" x="633" y="-428.9" font-family="Arial" font-size="14.00" fill="#000000">filter    </text>
<text text-anchor="start" x="693.6424" y="-428.9" font-family="Arial" font-size="14.00" fill="#666666">[boolean]</text>
<polygon fill="none" stroke="#000000" points="626,-387.5 626,-417.5 989,-417.5 989,-387.5 626,-387.5"/>
<text text-anchor="start" x="633" y="-398.9" font-family="Arial" font-size="14.00" fill="#000000">sorter    </text>
<text text-anchor="start" x="702.9818" y="-398.9" font-family="Arial" font-size="14.00" fill="#666666">[boolean]</text>
<polygon fill="none" stroke="#000000" points="626,-357.5 626,-387.5 989,-387.5 989,-357.5 626,-357.5"/>
<text text-anchor="start" x="633" y="-368.9" font-family="Arial" font-size="14.00" fill="#000000">composite    </text>
<text text-anchor="start" x="730.993" y="-368.9" font-family="Arial" font-size="14.00" fill="#666666">[boolean]</text>
<polygon fill="none" stroke="#000000" points="626,-327.5 626,-357.5 989,-357.5 989,-327.5 626,-327.5"/>
<text text-anchor="start" x="633" y="-338.9" font-family="Arial" font-size="14.00" fill="#000000">tag    </text>
<text text-anchor="start" x="686.6606" y="-338.9" font-family="Arial" font-size="14.00" fill="#666666">[text]</text>
<polygon fill="none" stroke="#000000" points="626,-297.5 626,-327.5 989,-327.5 989,-297.5 626,-297.5"/>
<text text-anchor="start" x="633" y="-308.9" font-family="Arial" font-size="14.00" fill="#000000">sf_list    </text>
<text text-anchor="start" x="702.9818" y="-308.9" font-family="Arial" font-size="14.00" fill="#666666">[text]</text>
<polygon fill="none" stroke="#000000" points="626,-267.5 626,-297.5 989,-297.5 989,-267.5 626,-267.5"/>
<text text-anchor="start" x="633" y="-278.9" font-family="Arial" font-size="14.00" fill="#000000">joiner    </text>
<text text-anchor="start" x="701.4264" y="-278.9" font-family="Arial" font-size="14.00" fill="#666666">[text]</text>
<polygon fill="none" stroke="#000000" points="626,-237.5 626,-267.5 989,-267.5 989,-237.5 626,-237.5"/>
<text text-anchor="start" x="633" y="-248.9" font-family="Arial" font-size="14.00" fill="#000000">xpath    </text>
<text text-anchor="start" x="701.4432" y="-248.9" font-family="Arial" font-size="14.00" fill="#666666">[text]</text>
<polygon fill="none" stroke="#000000" points="626,-207.5 626,-237.5 989,-237.5 989,-207.5 626,-207.5"/>
<text text-anchor="start" x="633" y="-218.9" font-family="Arial" font-size="14.00" fill="#000000">format    </text>
<text text-anchor="start" x="706.8724" y="-218.9" font-family="Arial" font-size="14.00" fill="#666666">[text]</text>
<polygon fill="none" stroke="#000000" points="626,-177.5 626,-207.5 989,-207.5 989,-177.5 626,-177.5"/>
<text text-anchor="start" x="633" y="-188.9" font-family="Arial" font-size="14.00" fill="#000000">start_pos    </text>
<text text-anchor="start" x="724.777" y="-188.9" font-family="Arial" font-size="14.00" fill="#666666">[integer]</text>
<polygon fill="none" stroke="#000000" points="626,-147.5 626,-177.5 989,-177.5 989,-147.5 626,-147.5"/>
<text text-anchor="start" x="633" y="-158.9" font-family="Arial" font-size="14.00" fill="#000000">string_len    </text>
<text text-anchor="start" x="727.8822" y="-158.9" font-family="Arial" font-size="14.00" fill="#666666">[integer]</text>
<polygon fill="none" stroke="#000000" points="626,-117.5 626,-147.5 989,-147.5 989,-117.5 626,-117.5"/>
<text text-anchor="start" x="633" y="-128.9" font-family="Arial" font-size="14.00" fill="#000000">fixed_field    </text>
<text text-anchor="start" x="730.2188" y="-128.9" font-family="Arial" font-size="14.00" fill="#666666">[text]</text>
<polygon fill="none" stroke="#000000" points="626,-87.5 626,-117.5 989,-117.5 989,-87.5 626,-87.5"/>
<text text-anchor="start" x="633" y="-98.9" font-family="Arial" font-size="14.00" fill="#000000">phys_char_sf    </text>
<text text-anchor="start" x="750.4516" y="-98.9" font-family="Arial" font-size="14.00" fill="#666666">[integer]</text>
<polygon fill="none" stroke="#000000" points="626,-57.5 626,-87.5 989,-87.5 989,-57.5 626,-57.5"/>
<text text-anchor="start" x="633" y="-68.9" font-family="Arial" font-size="14.00" fill="#000000">vocabulary    </text>
<text text-anchor="start" x="734.885" y="-68.9" font-family="Arial" font-size="14.00" fill="#666666">[text]</text>
</g>
<!-- config.z3950_index_field_map&#45;&gt;config.record_attr_definition -->
<g id="edge2" class="edge">
<title>config.z3950_index_field_map:record_attr&#45;&gt;config.record_attr_definition:name</title>
<path fill="none" stroke="#000000" d="M606.0073,-816.4147C565.0313,-806.7284 583.1959,-734.5946 616,-697 726.0079,-570.9273 878.9921,-772.0727 989,-646 1016.3215,-614.6887 1030.5556,-552.5 989,-552.5"/>
<polygon fill="#000000" stroke="#000000" points="606.0585,-816.4202 615.5141,-821.9737 611.0292,-816.9601 616,-817.5 616,-817.5 616,-817.5 611.0292,-816.9601 616.4859,-813.0263 606.0585,-816.4202 606.0585,-816.4202"/>
<text text-anchor="start" x="254.4845" y="-827.5" font-family="Arial" font-size="10.00" fill="#000000">FOREIGN KEY (record_attr) REFERENCES config.record_attr_definition(name)</text>
</g>
<!-- config.z3950_attr -->
<g id="node4" class="node">
<title>config.z3950_attr</title>
<polygon fill="#efefef" stroke="transparent" points="1093,-417.5 1093,-452.5 1372,-452.5 1372,-417.5 1093,-417.5"/>
<polygon fill="none" stroke="#000000" points="1093,-417.5 1093,-452.5 1372,-452.5 1372,-417.5 1093,-417.5"/>
<text text-anchor="start" x="1099.6905" y="-430.3" font-family="Arial Bold" font-size="18.00" fill="#000000">config.z3950_attr</text>
<text text-anchor="start" x="1237.7415" y="-430.3" font-family="Arial" font-size="14.00" fill="#000000">    </text>
<text text-anchor="start" x="1271.9463" y="-430.3" font-family="Arial" font-size="14.00" fill="#666666">[BASE TABLE]</text>
<polygon fill="none" stroke="#000000" points="1093,-387.5 1093,-417.5 1372,-417.5 1372,-387.5 1093,-387.5"/>
<text text-anchor="start" x="1100" y="-398.9" font-family="Arial" font-size="14.00" fill="#000000">id    </text>
<text text-anchor="start" x="1145.094" y="-398.9" font-family="Arial" font-size="14.00" fill="#666666">[integer]</text>
<polygon fill="none" stroke="#000000" points="1093,-357.5 1093,-387.5 1372,-387.5 1372,-357.5 1093,-357.5"/>
<text text-anchor="start" x="1100" y="-368.9" font-family="Arial" font-size="14.00" fill="#000000">source    </text>
<text text-anchor="start" x="1176.2132" y="-368.9" font-family="Arial" font-size="14.00" fill="#666666">[text]</text>
<polygon fill="none" stroke="#000000" points="1093,-327.5 1093,-357.5 1372,-357.5 1372,-327.5 1093,-327.5"/>
<text text-anchor="start" x="1100" y="-338.9" font-family="Arial" font-size="14.00" fill="#000000">name    </text>
<text text-anchor="start" x="1169.2132" y="-338.9" font-family="Arial" font-size="14.00" fill="#666666">[text]</text>
<polygon fill="none" stroke="#000000" points="1093,-297.5 1093,-327.5 1372,-327.5 1372,-297.5 1093,-297.5"/>
<text text-anchor="start" x="1100" y="-308.9" font-family="Arial" font-size="14.00" fill="#000000">label    </text>
<text text-anchor="start" x="1163.7658" y="-308.9" font-family="Arial" font-size="14.00" fill="#666666">[text]</text>
<polygon fill="none" stroke="#000000" points="1093,-267.5 1093,-297.5 1372,-297.5 1372,-267.5 1093,-267.5"/>
<text text-anchor="start" x="1100" y="-278.9" font-family="Arial" font-size="14.00" fill="#000000">code    </text>
<text text-anchor="start" x="1164.5526" y="-278.9" font-family="Arial" font-size="14.00" fill="#666666">[integer]</text>
<polygon fill="none" stroke="#000000" points="1093,-237.5 1093,-267.5 1372,-267.5 1372,-237.5 1093,-237.5"/>
<text text-anchor="start" x="1100" y="-248.9" font-family="Arial" font-size="14.00" fill="#000000">format    </text>
<text text-anchor="start" x="1173.8724" y="-248.9" font-family="Arial" font-size="14.00" fill="#666666">[integer]</text>
<polygon fill="none" stroke="#000000" points="1093,-207.5 1093,-237.5 1372,-237.5 1372,-207.5 1093,-207.5"/>
<text text-anchor="start" x="1100" y="-218.9" font-family="Arial" font-size="14.00" fill="#000000">truncation    </text>
<text text-anchor="start" x="1195.6662" y="-218.9" font-family="Arial" font-size="14.00" fill="#666666">[integer]</text>
</g>
<!-- config.z3950_index_field_map&#45;&gt;config.z3950_attr -->
<g id="edge3" class="edge">
<title>config.z3950_index_field_map:z3950_attr&#45;&gt;config.z3950_attr:id</title>
<path fill="none" stroke="#000000" d="M1009.9905,-785.6101C1081.4928,-756.5656 1008.5938,-402.5 1093,-402.5"/>
<polygon fill="#000000" stroke="#000000" points="1009.8257,-785.6412 999.1635,-783.0784 1004.9129,-786.5706 1000,-787.5 1000,-787.5 1000,-787.5 1004.9129,-786.5706 1000.8365,-791.9216 1009.8257,-785.6412 1009.8257,-785.6412"/>
<text text-anchor="start" x="1006.982" y="-797.5" font-family="Arial" font-size="10.00" fill="#000000">FOREIGN KEY (z3950_attr) REFERENCES config.z3950_attr(id)</text>
</g>
</g>
</svg>
