<?xml version="1.0" encoding="UTF-8" standalone="no"?>
<!DOCTYPE svg PUBLIC "-//W3C//DTD SVG 1.1//EN"
 "http://www.w3.org/Graphics/SVG/1.1/DTD/svg11.dtd">
<!-- Generated by graphviz version 2.40.1 (20161225.0304)
 -->
<!-- Title: config.copy_status Pages: 1 -->
<svg width="1846pt" height="1522pt"
 viewBox="0.00 0.00 1845.50 1522.00" xmlns="http://www.w3.org/2000/svg" xmlns:xlink="http://www.w3.org/1999/xlink">
<g id="graph0" class="graph" transform="scale(1 1) rotate(0) translate(4 1518)">
<title>config.copy_status</title>
<polygon fill="#ffffff" stroke="transparent" points="-4,4 -4,-1518 1841.5,-1518 1841.5,4 -4,4"/>
<!-- config.copy_status -->
<g id="node1" class="node">
<title>config.copy_status</title>
<polygon fill="#efefef" stroke="transparent" points="722,-285.5 722,-320.5 1012,-320.5 1012,-285.5 722,-285.5"/>
<polygon fill="none" stroke="#000000" points="722,-285.5 722,-320.5 1012,-320.5 1012,-285.5 722,-285.5"/>
<text text-anchor="start" x="728.6897" y="-298.3" font-family="Arial Bold" font-size="18.00" fill="#000000">config.copy_status</text>
<text text-anchor="start" x="877.7423" y="-298.3" font-family="Arial" font-size="14.00" fill="#000000">    </text>
<text text-anchor="start" x="911.9471" y="-298.3" font-family="Arial" font-size="14.00" fill="#666666">[BASE TABLE]</text>
<polygon fill="none" stroke="#000000" points="722,-255.5 722,-285.5 1012,-285.5 1012,-255.5 722,-255.5"/>
<text text-anchor="start" x="729" y="-266.9" font-family="Arial" font-size="14.00" fill="#000000">id </text>
<text text-anchor="start" x="743.7798" y="-266.9" font-family="Arial" font-size="14.00" fill="#666666">[integer]</text>
<polygon fill="none" stroke="#000000" points="722,-225.5 722,-255.5 1012,-255.5 1012,-225.5 722,-225.5"/>
<text text-anchor="start" x="729" y="-236.9" font-family="Arial" font-size="14.00" fill="#000000">name </text>
<text text-anchor="start" x="767.899" y="-236.9" font-family="Arial" font-size="14.00" fill="#666666">[text]</text>
<polygon fill="none" stroke="#000000" points="722,-195.5 722,-225.5 1012,-225.5 1012,-195.5 722,-195.5"/>
<text text-anchor="start" x="729" y="-206.9" font-family="Arial" font-size="14.00" fill="#000000">holdable </text>
<text text-anchor="start" x="785.7994" y="-206.9" font-family="Arial" font-size="14.00" fill="#666666">[boolean]</text>
<polygon fill="none" stroke="#000000" points="722,-165.5 722,-195.5 1012,-195.5 1012,-165.5 722,-165.5"/>
<text text-anchor="start" x="729" y="-176.9" font-family="Arial" font-size="14.00" fill="#000000">opac_visible </text>
<text text-anchor="start" x="809.906" y="-176.9" font-family="Arial" font-size="14.00" fill="#666666">[boolean]</text>
<polygon fill="none" stroke="#000000" points="722,-135.5 722,-165.5 1012,-165.5 1012,-135.5 722,-135.5"/>
<text text-anchor="start" x="729" y="-146.9" font-family="Arial" font-size="14.00" fill="#000000">copy_active </text>
<text text-anchor="start" x="806.8008" y="-146.9" font-family="Arial" font-size="14.00" fill="#666666">[boolean]</text>
<polygon fill="none" stroke="#000000" points="722,-105.5 722,-135.5 1012,-135.5 1012,-105.5 722,-105.5"/>
<text text-anchor="start" x="729" y="-116.9" font-family="Arial" font-size="14.00" fill="#000000">restrict_copy_delete </text>
<text text-anchor="start" x="858.1402" y="-116.9" font-family="Arial" font-size="14.00" fill="#666666">[boolean]</text>
<polygon fill="none" stroke="#000000" points="722,-75.5 722,-105.5 1012,-105.5 1012,-75.5 722,-75.5"/>
<text text-anchor="start" x="729" y="-86.9" font-family="Arial" font-size="14.00" fill="#000000">is_available </text>
<text text-anchor="start" x="806.0126" y="-86.9" font-family="Arial" font-size="14.00" fill="#666666">[boolean]</text>
<polygon fill="none" stroke="#000000" points="722,-45.5 722,-75.5 1012,-75.5 1012,-45.5 722,-45.5"/>
<text text-anchor="start" x="729" y="-56.9" font-family="Arial" font-size="14.00" fill="#000000">hopeless_prone </text>
<text text-anchor="start" x="832.4838" y="-56.9" font-family="Arial" font-size="14.00" fill="#666666">[boolean]</text>
<polygon fill="none" stroke="#000000" stroke-width="3" points="720.5,-44.5 720.5,-322.5 1013.5,-322.5 1013.5,-44.5 720.5,-44.5"/>
</g>
<!-- asset.copy -->
<g id="node2" class="node">
<title>asset.copy</title>
<polygon fill="#efefef" stroke="transparent" points="43,-1435.5 43,-1470.5 389,-1470.5 389,-1435.5 43,-1435.5"/>
<polygon fill="none" stroke="#000000" points="43,-1435.5 43,-1470.5 389,-1470.5 389,-1435.5 43,-1435.5"/>
<text text-anchor="start" x="109.2014" y="-1448.3" font-family="Arial Bold" font-size="18.00" fill="#000000">asset.copy</text>
<text text-anchor="start" x="195.2306" y="-1448.3" font-family="Arial" font-size="14.00" fill="#000000">    </text>
<text text-anchor="start" x="229.4354" y="-1448.3" font-family="Arial" font-size="14.00" fill="#666666">[BASE TABLE]</text>
<polygon fill="none" stroke="#000000" points="43,-1405.5 43,-1435.5 389,-1435.5 389,-1405.5 43,-1405.5"/>
<text text-anchor="start" x="50" y="-1416.9" font-family="Arial" font-size="14.00" fill="#000000">id    </text>
<text text-anchor="start" x="95.094" y="-1416.9" font-family="Arial" font-size="14.00" fill="#666666">[bigint]</text>
<polygon fill="none" stroke="#000000" points="43,-1375.5 43,-1405.5 389,-1405.5 389,-1375.5 43,-1375.5"/>
<text text-anchor="start" x="50" y="-1386.9" font-family="Arial" font-size="14.00" fill="#000000">circ_lib    </text>
<text text-anchor="start" x="127.7504" y="-1386.9" font-family="Arial" font-size="14.00" fill="#666666">[integer]</text>
<polygon fill="none" stroke="#000000" points="43,-1345.5 43,-1375.5 389,-1375.5 389,-1345.5 43,-1345.5"/>
<text text-anchor="start" x="50" y="-1356.9" font-family="Arial" font-size="14.00" fill="#000000">creator    </text>
<text text-anchor="start" x="127.7644" y="-1356.9" font-family="Arial" font-size="14.00" fill="#666666">[bigint]</text>
<polygon fill="none" stroke="#000000" points="43,-1315.5 43,-1345.5 389,-1345.5 389,-1315.5 43,-1315.5"/>
<text text-anchor="start" x="50" y="-1326.9" font-family="Arial" font-size="14.00" fill="#000000">call_number    </text>
<text text-anchor="start" x="160.4348" y="-1326.9" font-family="Arial" font-size="14.00" fill="#666666">[bigint]</text>
<polygon fill="none" stroke="#000000" points="43,-1285.5 43,-1315.5 389,-1315.5 389,-1285.5 43,-1285.5"/>
<text text-anchor="start" x="50" y="-1296.9" font-family="Arial" font-size="14.00" fill="#000000">editor    </text>
<text text-anchor="start" x="119.2104" y="-1296.9" font-family="Arial" font-size="14.00" fill="#666666">[bigint]</text>
<polygon fill="none" stroke="#000000" points="43,-1255.5 43,-1285.5 389,-1285.5 389,-1255.5 43,-1255.5"/>
<text text-anchor="start" x="50" y="-1266.9" font-family="Arial" font-size="14.00" fill="#000000">create_date    </text>
<text text-anchor="start" x="158.1248" y="-1266.9" font-family="Arial" font-size="14.00" fill="#666666">[timestamp with time zone]</text>
<polygon fill="none" stroke="#000000" points="43,-1225.5 43,-1255.5 389,-1255.5 389,-1225.5 43,-1225.5"/>
<text text-anchor="start" x="50" y="-1236.9" font-family="Arial" font-size="14.00" fill="#000000">edit_date    </text>
<text text-anchor="start" x="141.7882" y="-1236.9" font-family="Arial" font-size="14.00" fill="#666666">[timestamp with time zone]</text>
<polygon fill="none" stroke="#000000" points="43,-1195.5 43,-1225.5 389,-1225.5 389,-1195.5 43,-1195.5"/>
<text text-anchor="start" x="50" y="-1206.9" font-family="Arial" font-size="14.00" fill="#000000">copy_number    </text>
<text text-anchor="start" x="169.0042" y="-1206.9" font-family="Arial" font-size="14.00" fill="#666666">[integer]</text>
<polygon fill="none" stroke="#000000" points="43,-1165.5 43,-1195.5 389,-1195.5 389,-1165.5 43,-1165.5"/>
<text text-anchor="start" x="50" y="-1176.9" font-family="Arial" font-size="14.00" fill="#000000">status    </text>
<text text-anchor="start" x="121.5512" y="-1176.9" font-family="Arial" font-size="14.00" fill="#666666">[integer]</text>
<polygon fill="none" stroke="#000000" points="43,-1135.5 43,-1165.5 389,-1165.5 389,-1135.5 43,-1135.5"/>
<text text-anchor="start" x="50" y="-1146.9" font-family="Arial" font-size="14.00" fill="#000000">location    </text>
<text text-anchor="start" x="132.439" y="-1146.9" font-family="Arial" font-size="14.00" fill="#666666">[integer]</text>
<polygon fill="none" stroke="#000000" points="43,-1105.5 43,-1135.5 389,-1135.5 389,-1105.5 43,-1105.5"/>
<text text-anchor="start" x="50" y="-1116.9" font-family="Arial" font-size="14.00" fill="#000000">loan_duration    </text>
<text text-anchor="start" x="169.0126" y="-1116.9" font-family="Arial" font-size="14.00" fill="#666666">[integer]</text>
<polygon fill="none" stroke="#000000" points="43,-1075.5 43,-1105.5 389,-1105.5 389,-1075.5 43,-1075.5"/>
<text text-anchor="start" x="50" y="-1086.9" font-family="Arial" font-size="14.00" fill="#000000">fine_level    </text>
<text text-anchor="start" x="143.3282" y="-1086.9" font-family="Arial" font-size="14.00" fill="#666666">[integer]</text>
<polygon fill="none" stroke="#000000" points="43,-1045.5 43,-1075.5 389,-1075.5 389,-1045.5 43,-1045.5"/>
<text text-anchor="start" x="50" y="-1056.9" font-family="Arial" font-size="14.00" fill="#000000">age_protect    </text>
<text text-anchor="start" x="158.1248" y="-1056.9" font-family="Arial" font-size="14.00" fill="#666666">[integer]</text>
<polygon fill="none" stroke="#000000" points="43,-1015.5 43,-1045.5 389,-1045.5 389,-1015.5 43,-1015.5"/>
<text text-anchor="start" x="50" y="-1026.9" font-family="Arial" font-size="14.00" fill="#000000">circulate    </text>
<text text-anchor="start" x="136.317" y="-1026.9" font-family="Arial" font-size="14.00" fill="#666666">[boolean]</text>
<polygon fill="none" stroke="#000000" points="43,-985.5 43,-1015.5 389,-1015.5 389,-985.5 43,-985.5"/>
<text text-anchor="start" x="50" y="-996.9" font-family="Arial" font-size="14.00" fill="#000000">deposit    </text>
<text text-anchor="start" x="129.3324" y="-996.9" font-family="Arial" font-size="14.00" fill="#666666">[boolean]</text>
<polygon fill="none" stroke="#000000" points="43,-955.5 43,-985.5 389,-985.5 389,-955.5 43,-955.5"/>
<text text-anchor="start" x="50" y="-966.9" font-family="Arial" font-size="14.00" fill="#000000">ref    </text>
<text text-anchor="start" x="100.5386" y="-966.9" font-family="Arial" font-size="14.00" fill="#666666">[boolean]</text>
<polygon fill="none" stroke="#000000" points="43,-925.5 43,-955.5 389,-955.5 389,-925.5 43,-925.5"/>
<text text-anchor="start" x="50" y="-936.9" font-family="Arial" font-size="14.00" fill="#000000">holdable    </text>
<text text-anchor="start" x="137.1136" y="-936.9" font-family="Arial" font-size="14.00" fill="#666666">[boolean]</text>
<polygon fill="none" stroke="#000000" points="43,-895.5 43,-925.5 389,-925.5 389,-895.5 43,-895.5"/>
<text text-anchor="start" x="50" y="-906.9" font-family="Arial" font-size="14.00" fill="#000000">deposit_amount    </text>
<text text-anchor="start" x="183.7966" y="-906.9" font-family="Arial" font-size="14.00" fill="#666666">[numeric(6,2)]</text>
<polygon fill="none" stroke="#000000" points="43,-865.5 43,-895.5 389,-895.5 389,-865.5 43,-865.5"/>
<text text-anchor="start" x="50" y="-876.9" font-family="Arial" font-size="14.00" fill="#000000">price    </text>
<text text-anchor="start" x="114.5372" y="-876.9" font-family="Arial" font-size="14.00" fill="#666666">[numeric(8,2)]</text>
<polygon fill="none" stroke="#000000" points="43,-835.5 43,-865.5 389,-865.5 389,-835.5 43,-835.5"/>
<text text-anchor="start" x="50" y="-846.9" font-family="Arial" font-size="14.00" fill="#000000">barcode    </text>
<text text-anchor="start" x="134.7784" y="-846.9" font-family="Arial" font-size="14.00" fill="#666666">[text]</text>
<polygon fill="none" stroke="#000000" points="43,-805.5 43,-835.5 389,-835.5 389,-805.5 43,-805.5"/>
<text text-anchor="start" x="50" y="-816.9" font-family="Arial" font-size="14.00" fill="#000000">circ_modifier    </text>
<text text-anchor="start" x="163.5274" y="-816.9" font-family="Arial" font-size="14.00" fill="#666666">[text]</text>
<polygon fill="none" stroke="#000000" points="43,-775.5 43,-805.5 389,-805.5 389,-775.5 43,-775.5"/>
<text text-anchor="start" x="50" y="-786.9" font-family="Arial" font-size="14.00" fill="#000000">circ_as_type    </text>
<text text-anchor="start" x="162.7756" y="-786.9" font-family="Arial" font-size="14.00" fill="#666666">[text]</text>
<polygon fill="none" stroke="#000000" points="43,-745.5 43,-775.5 389,-775.5 389,-745.5 43,-745.5"/>
<text text-anchor="start" x="50" y="-756.9" font-family="Arial" font-size="14.00" fill="#000000">dummy_title    </text>
<text text-anchor="start" x="159.6508" y="-756.9" font-family="Arial" font-size="14.00" fill="#666666">[text]</text>
<polygon fill="none" stroke="#000000" points="43,-715.5 43,-745.5 389,-745.5 389,-715.5 43,-715.5"/>
<text text-anchor="start" x="50" y="-726.9" font-family="Arial" font-size="14.00" fill="#000000">dummy_author    </text>
<text text-anchor="start" x="177.5554" y="-726.9" font-family="Arial" font-size="14.00" fill="#666666">[text]</text>
<polygon fill="none" stroke="#000000" points="43,-685.5 43,-715.5 389,-715.5 389,-685.5 43,-685.5"/>
<text text-anchor="start" x="50" y="-696.9" font-family="Arial" font-size="14.00" fill="#000000">alert_message    </text>
<text text-anchor="start" x="176.0014" y="-696.9" font-family="Arial" font-size="14.00" fill="#666666">[text]</text>
<polygon fill="none" stroke="#000000" points="43,-655.5 43,-685.5 389,-685.5 389,-655.5 43,-655.5"/>
<text text-anchor="start" x="50" y="-666.9" font-family="Arial" font-size="14.00" fill="#000000">opac_visible    </text>
<text text-anchor="start" x="161.2202" y="-666.9" font-family="Arial" font-size="14.00" fill="#666666">[boolean]</text>
<polygon fill="none" stroke="#000000" points="43,-625.5 43,-655.5 389,-655.5 389,-625.5 43,-625.5"/>
<text text-anchor="start" x="50" y="-636.9" font-family="Arial" font-size="14.00" fill="#000000">deleted    </text>
<text text-anchor="start" x="130.115" y="-636.9" font-family="Arial" font-size="14.00" fill="#666666">[boolean]</text>
<polygon fill="none" stroke="#000000" points="43,-595.5 43,-625.5 389,-625.5 389,-595.5 43,-595.5"/>
<text text-anchor="start" x="50" y="-606.9" font-family="Arial" font-size="14.00" fill="#000000">floating    </text>
<text text-anchor="start" x="129.3296" y="-606.9" font-family="Arial" font-size="14.00" fill="#666666">[integer]</text>
<polygon fill="none" stroke="#000000" points="43,-565.5 43,-595.5 389,-595.5 389,-565.5 43,-565.5"/>
<text text-anchor="start" x="50" y="-576.9" font-family="Arial" font-size="14.00" fill="#000000">dummy_isbn    </text>
<text text-anchor="start" x="163.5456" y="-576.9" font-family="Arial" font-size="14.00" fill="#666666">[text]</text>
<polygon fill="none" stroke="#000000" points="43,-535.5 43,-565.5 389,-565.5 389,-535.5 43,-535.5"/>
<text text-anchor="start" x="49.5316" y="-546.9" font-family="Arial" font-size="14.00" fill="#000000">status_changed_time    </text>
<text text-anchor="start" x="216.784" y="-546.9" font-family="Arial" font-size="14.00" fill="#666666">[timestamp with time zone]</text>
<polygon fill="none" stroke="#000000" points="43,-505.5 43,-535.5 389,-535.5 389,-505.5 43,-505.5"/>
<text text-anchor="start" x="50" y="-516.9" font-family="Arial" font-size="14.00" fill="#000000">active_date    </text>
<text text-anchor="start" x="155.7882" y="-516.9" font-family="Arial" font-size="14.00" fill="#666666">[timestamp with time zone]</text>
<polygon fill="none" stroke="#000000" points="43,-475.5 43,-505.5 389,-505.5 389,-475.5 43,-475.5"/>
<text text-anchor="start" x="50" y="-486.9" font-family="Arial" font-size="14.00" fill="#000000">mint_condition    </text>
<text text-anchor="start" x="174.4446" y="-486.9" font-family="Arial" font-size="14.00" fill="#666666">[boolean]</text>
<polygon fill="none" stroke="#000000" points="43,-445.5 43,-475.5 389,-475.5 389,-445.5 43,-445.5"/>
<text text-anchor="start" x="50" y="-456.9" font-family="Arial" font-size="14.00" fill="#000000">cost    </text>
<text text-anchor="start" x="109.878" y="-456.9" font-family="Arial" font-size="14.00" fill="#666666">[numeric(8,2)]</text>
</g>
<!-- asset.copy&#45;&gt;config.copy_status -->
<g id="edge1" class="edge">
<title>asset.copy:status&#45;&gt;config.copy_status:id</title>
<path fill="none" stroke="#000000" d="M398.8168,-1177.0296C468.966,-1123.656 394.2214,-471.5993 441,-403 518.7908,-288.9223 583.9234,-270.5 722,-270.5"/>
<polygon fill="#000000" stroke="#000000" points="398.4282,-1177.1669 387.5001,-1176.2573 393.7141,-1178.8334 389,-1180.5 389,-1180.5 389,-1180.5 393.7141,-1178.8334 390.4999,-1184.7427 398.4282,-1177.1669 398.4282,-1177.1669"/>
<text text-anchor="start" x="396.1485" y="-1190.5" font-family="Arial" font-size="10.00" fill="#000000">FOREIGN KEY (status) REFERENCES config.copy_status(id) DEFERRABLE INITIALLY DEFERRED</text>
</g>
<!-- action.transit_copy -->
<g id="node3" class="node">
<title>action.transit_copy</title>
<polygon fill="#efefef" stroke="transparent" points="493,-1105.5 493,-1140.5 821,-1140.5 821,-1105.5 493,-1105.5"/>
<polygon fill="none" stroke="#000000" points="493,-1105.5 493,-1140.5 821,-1140.5 821,-1105.5 493,-1105.5"/>
<text text-anchor="start" x="518.1965" y="-1118.3" font-family="Arial Bold" font-size="18.00" fill="#000000">action.transit_copy</text>
<text text-anchor="start" x="668.2355" y="-1118.3" font-family="Arial" font-size="14.00" fill="#000000">    </text>
<text text-anchor="start" x="702.4403" y="-1118.3" font-family="Arial" font-size="14.00" fill="#666666">[BASE TABLE]</text>
<polygon fill="none" stroke="#000000" points="493,-1075.5 493,-1105.5 821,-1105.5 821,-1075.5 493,-1075.5"/>
<text text-anchor="start" x="500" y="-1086.9" font-family="Arial" font-size="14.00" fill="#000000">id    </text>
<text text-anchor="start" x="545.094" y="-1086.9" font-family="Arial" font-size="14.00" fill="#666666">[integer]</text>
<polygon fill="none" stroke="#000000" points="493,-1045.5 493,-1075.5 821,-1075.5 821,-1045.5 493,-1045.5"/>
<text text-anchor="start" x="499.8745" y="-1056.9" font-family="Arial" font-size="14.00" fill="#000000">source_send_time    </text>
<text text-anchor="start" x="648.4411" y="-1056.9" font-family="Arial" font-size="14.00" fill="#666666">[timestamp with time zone]</text>
<polygon fill="none" stroke="#000000" points="493,-1015.5 493,-1045.5 821,-1045.5 821,-1015.5 493,-1015.5"/>
<text text-anchor="start" x="500" y="-1026.9" font-family="Arial" font-size="14.00" fill="#000000">dest_recv_time    </text>
<text text-anchor="start" x="629.1094" y="-1026.9" font-family="Arial" font-size="14.00" fill="#666666">[timestamp with time zone]</text>
<polygon fill="none" stroke="#000000" points="493,-985.5 493,-1015.5 821,-1015.5 821,-985.5 493,-985.5"/>
<text text-anchor="start" x="500" y="-996.9" font-family="Arial" font-size="14.00" fill="#000000">target_copy    </text>
<text text-anchor="start" x="607.3422" y="-996.9" font-family="Arial" font-size="14.00" fill="#666666">[bigint]</text>
<polygon fill="none" stroke="#000000" points="493,-955.5 493,-985.5 821,-985.5 821,-955.5 493,-955.5"/>
<text text-anchor="start" x="500" y="-966.9" font-family="Arial" font-size="14.00" fill="#000000">source    </text>
<text text-anchor="start" x="576.2132" y="-966.9" font-family="Arial" font-size="14.00" fill="#666666">[integer]</text>
<polygon fill="none" stroke="#000000" points="493,-925.5 493,-955.5 821,-955.5 821,-925.5 493,-925.5"/>
<text text-anchor="start" x="500" y="-936.9" font-family="Arial" font-size="14.00" fill="#000000">dest    </text>
<text text-anchor="start" x="560.6606" y="-936.9" font-family="Arial" font-size="14.00" fill="#666666">[integer]</text>
<polygon fill="none" stroke="#000000" points="493,-895.5 493,-925.5 821,-925.5 821,-895.5 493,-895.5"/>
<text text-anchor="start" x="500" y="-906.9" font-family="Arial" font-size="14.00" fill="#000000">prev_hop    </text>
<text text-anchor="start" x="592.561" y="-906.9" font-family="Arial" font-size="14.00" fill="#666666">[integer]</text>
<polygon fill="none" stroke="#000000" points="493,-865.5 493,-895.5 821,-895.5 821,-865.5 493,-865.5"/>
<text text-anchor="start" x="500" y="-876.9" font-family="Arial" font-size="14.00" fill="#000000">copy_status    </text>
<text text-anchor="start" x="608.899" y="-876.9" font-family="Arial" font-size="14.00" fill="#666666">[integer]</text>
<polygon fill="none" stroke="#000000" points="493,-835.5 493,-865.5 821,-865.5 821,-835.5 493,-835.5"/>
<text text-anchor="start" x="500" y="-846.9" font-family="Arial" font-size="14.00" fill="#000000">persistant_transfer    </text>
<text text-anchor="start" x="650.1164" y="-846.9" font-family="Arial" font-size="14.00" fill="#666666">[boolean]</text>
<polygon fill="none" stroke="#000000" points="493,-805.5 493,-835.5 821,-835.5 821,-805.5 493,-805.5"/>
<text text-anchor="start" x="500" y="-816.9" font-family="Arial" font-size="14.00" fill="#000000">prev_dest    </text>
<text text-anchor="start" x="595.669" y="-816.9" font-family="Arial" font-size="14.00" fill="#666666">[integer]</text>
<polygon fill="none" stroke="#000000" points="493,-775.5 493,-805.5 821,-805.5 821,-775.5 493,-775.5"/>
<text text-anchor="start" x="500" y="-786.9" font-family="Arial" font-size="14.00" fill="#000000">cancel_time    </text>
<text text-anchor="start" x="608.8822" y="-786.9" font-family="Arial" font-size="14.00" fill="#666666">[timestamp with time zone]</text>
</g>
<!-- action.transit_copy&#45;&gt;config.copy_status -->
<g id="edge2" class="edge">
<title>action.transit_copy:copy_status&#45;&gt;config.copy_status:id</title>
<path fill="none" stroke="#000000" d="M831.14,-879.1567C938.2768,-847.5967 588.4259,-270.5 722,-270.5"/>
<polygon fill="#000000" stroke="#000000" points="830.9134,-879.1866 820.409,-876.039 825.9567,-879.8433 821,-880.5 821,-880.5 821,-880.5 825.9567,-879.8433 821.591,-884.961 830.9134,-879.1866 830.9134,-879.1866"/>
<text text-anchor="start" x="335.81" y="-890.5" font-family="Arial" font-size="10.00" fill="#000000">FOREIGN KEY (copy_status) REFERENCES config.copy_status(id) DEFERRABLE INITIALLY DEFERRED</text>
</g>
<!-- asset.copy_template -->
<g id="node4" class="node">
<title>asset.copy_template</title>
<polygon fill="#efefef" stroke="transparent" points="925,-1315.5 925,-1350.5 1231,-1350.5 1231,-1315.5 925,-1315.5"/>
<polygon fill="none" stroke="#000000" points="925,-1315.5 925,-1350.5 1231,-1350.5 1231,-1315.5 925,-1315.5"/>
<text text-anchor="start" x="931.6905" y="-1328.3" font-family="Arial Bold" font-size="18.00" fill="#000000">asset.copy_template</text>
<text text-anchor="start" x="1096.7415" y="-1328.3" font-family="Arial" font-size="14.00" fill="#000000">    </text>
<text text-anchor="start" x="1130.9463" y="-1328.3" font-family="Arial" font-size="14.00" fill="#666666">[BASE TABLE]</text>
<polygon fill="none" stroke="#000000" points="925,-1285.5 925,-1315.5 1231,-1315.5 1231,-1285.5 925,-1285.5"/>
<text text-anchor="start" x="932" y="-1296.9" font-family="Arial" font-size="14.00" fill="#000000">id    </text>
<text text-anchor="start" x="977.094" y="-1296.9" font-family="Arial" font-size="14.00" fill="#666666">[integer]</text>
<polygon fill="none" stroke="#000000" points="925,-1255.5 925,-1285.5 1231,-1285.5 1231,-1255.5 925,-1255.5"/>
<text text-anchor="start" x="932" y="-1266.9" font-family="Arial" font-size="14.00" fill="#000000">owning_lib    </text>
<text text-anchor="start" x="1032.3268" y="-1266.9" font-family="Arial" font-size="14.00" fill="#666666">[integer]</text>
<polygon fill="none" stroke="#000000" points="925,-1225.5 925,-1255.5 1231,-1255.5 1231,-1225.5 925,-1225.5"/>
<text text-anchor="start" x="932" y="-1236.9" font-family="Arial" font-size="14.00" fill="#000000">creator    </text>
<text text-anchor="start" x="1009.7644" y="-1236.9" font-family="Arial" font-size="14.00" fill="#666666">[bigint]</text>
<polygon fill="none" stroke="#000000" points="925,-1195.5 925,-1225.5 1231,-1225.5 1231,-1195.5 925,-1195.5"/>
<text text-anchor="start" x="932" y="-1206.9" font-family="Arial" font-size="14.00" fill="#000000">editor    </text>
<text text-anchor="start" x="1001.2104" y="-1206.9" font-family="Arial" font-size="14.00" fill="#666666">[bigint]</text>
<polygon fill="none" stroke="#000000" points="925,-1165.5 925,-1195.5 1231,-1195.5 1231,-1165.5 925,-1165.5"/>
<text text-anchor="start" x="932" y="-1176.9" font-family="Arial" font-size="14.00" fill="#000000">create_date    </text>
<text text-anchor="start" x="1040.1248" y="-1176.9" font-family="Arial" font-size="14.00" fill="#666666">[timestamp with time zone]</text>
<polygon fill="none" stroke="#000000" points="925,-1135.5 925,-1165.5 1231,-1165.5 1231,-1135.5 925,-1135.5"/>
<text text-anchor="start" x="932" y="-1146.9" font-family="Arial" font-size="14.00" fill="#000000">edit_date    </text>
<text text-anchor="start" x="1023.7882" y="-1146.9" font-family="Arial" font-size="14.00" fill="#666666">[timestamp with time zone]</text>
<polygon fill="none" stroke="#000000" points="925,-1105.5 925,-1135.5 1231,-1135.5 1231,-1105.5 925,-1105.5"/>
<text text-anchor="start" x="932" y="-1116.9" font-family="Arial" font-size="14.00" fill="#000000">name    </text>
<text text-anchor="start" x="1001.2132" y="-1116.9" font-family="Arial" font-size="14.00" fill="#666666">[text]</text>
<polygon fill="none" stroke="#000000" points="925,-1075.5 925,-1105.5 1231,-1105.5 1231,-1075.5 925,-1075.5"/>
<text text-anchor="start" x="932" y="-1086.9" font-family="Arial" font-size="14.00" fill="#000000">circ_lib    </text>
<text text-anchor="start" x="1009.7504" y="-1086.9" font-family="Arial" font-size="14.00" fill="#666666">[integer]</text>
<polygon fill="none" stroke="#000000" points="925,-1045.5 925,-1075.5 1231,-1075.5 1231,-1045.5 925,-1045.5"/>
<text text-anchor="start" x="932" y="-1056.9" font-family="Arial" font-size="14.00" fill="#000000">status    </text>
<text text-anchor="start" x="1003.5512" y="-1056.9" font-family="Arial" font-size="14.00" fill="#666666">[integer]</text>
<polygon fill="none" stroke="#000000" points="925,-1015.5 925,-1045.5 1231,-1045.5 1231,-1015.5 925,-1015.5"/>
<text text-anchor="start" x="932" y="-1026.9" font-family="Arial" font-size="14.00" fill="#000000">location    </text>
<text text-anchor="start" x="1014.439" y="-1026.9" font-family="Arial" font-size="14.00" fill="#666666">[integer]</text>
<polygon fill="none" stroke="#000000" points="925,-985.5 925,-1015.5 1231,-1015.5 1231,-985.5 925,-985.5"/>
<text text-anchor="start" x="932" y="-996.9" font-family="Arial" font-size="14.00" fill="#000000">loan_duration    </text>
<text text-anchor="start" x="1051.0126" y="-996.9" font-family="Arial" font-size="14.00" fill="#666666">[integer]</text>
<polygon fill="none" stroke="#000000" points="925,-955.5 925,-985.5 1231,-985.5 1231,-955.5 925,-955.5"/>
<text text-anchor="start" x="932" y="-966.9" font-family="Arial" font-size="14.00" fill="#000000">fine_level    </text>
<text text-anchor="start" x="1025.3282" y="-966.9" font-family="Arial" font-size="14.00" fill="#666666">[integer]</text>
<polygon fill="none" stroke="#000000" points="925,-925.5 925,-955.5 1231,-955.5 1231,-925.5 925,-925.5"/>
<text text-anchor="start" x="932" y="-936.9" font-family="Arial" font-size="14.00" fill="#000000">age_protect    </text>
<text text-anchor="start" x="1040.1248" y="-936.9" font-family="Arial" font-size="14.00" fill="#666666">[integer]</text>
<polygon fill="none" stroke="#000000" points="925,-895.5 925,-925.5 1231,-925.5 1231,-895.5 925,-895.5"/>
<text text-anchor="start" x="932" y="-906.9" font-family="Arial" font-size="14.00" fill="#000000">circulate    </text>
<text text-anchor="start" x="1018.317" y="-906.9" font-family="Arial" font-size="14.00" fill="#666666">[boolean]</text>
<polygon fill="none" stroke="#000000" points="925,-865.5 925,-895.5 1231,-895.5 1231,-865.5 925,-865.5"/>
<text text-anchor="start" x="932" y="-876.9" font-family="Arial" font-size="14.00" fill="#000000">deposit    </text>
<text text-anchor="start" x="1011.3324" y="-876.9" font-family="Arial" font-size="14.00" fill="#666666">[boolean]</text>
<polygon fill="none" stroke="#000000" points="925,-835.5 925,-865.5 1231,-865.5 1231,-835.5 925,-835.5"/>
<text text-anchor="start" x="932" y="-846.9" font-family="Arial" font-size="14.00" fill="#000000">ref    </text>
<text text-anchor="start" x="982.5386" y="-846.9" font-family="Arial" font-size="14.00" fill="#666666">[boolean]</text>
<polygon fill="none" stroke="#000000" points="925,-805.5 925,-835.5 1231,-835.5 1231,-805.5 925,-805.5"/>
<text text-anchor="start" x="932" y="-816.9" font-family="Arial" font-size="14.00" fill="#000000">holdable    </text>
<text text-anchor="start" x="1019.1136" y="-816.9" font-family="Arial" font-size="14.00" fill="#666666">[boolean]</text>
<polygon fill="none" stroke="#000000" points="925,-775.5 925,-805.5 1231,-805.5 1231,-775.5 925,-775.5"/>
<text text-anchor="start" x="932" y="-786.9" font-family="Arial" font-size="14.00" fill="#000000">deposit_amount    </text>
<text text-anchor="start" x="1065.7966" y="-786.9" font-family="Arial" font-size="14.00" fill="#666666">[numeric(6,2)]</text>
<polygon fill="none" stroke="#000000" points="925,-745.5 925,-775.5 1231,-775.5 1231,-745.5 925,-745.5"/>
<text text-anchor="start" x="932" y="-756.9" font-family="Arial" font-size="14.00" fill="#000000">price    </text>
<text text-anchor="start" x="996.5372" y="-756.9" font-family="Arial" font-size="14.00" fill="#666666">[numeric(8,2)]</text>
<polygon fill="none" stroke="#000000" points="925,-715.5 925,-745.5 1231,-745.5 1231,-715.5 925,-715.5"/>
<text text-anchor="start" x="932" y="-726.9" font-family="Arial" font-size="14.00" fill="#000000">circ_modifier    </text>
<text text-anchor="start" x="1045.5274" y="-726.9" font-family="Arial" font-size="14.00" fill="#666666">[text]</text>
<polygon fill="none" stroke="#000000" points="925,-685.5 925,-715.5 1231,-715.5 1231,-685.5 925,-685.5"/>
<text text-anchor="start" x="932" y="-696.9" font-family="Arial" font-size="14.00" fill="#000000">circ_as_type    </text>
<text text-anchor="start" x="1044.7756" y="-696.9" font-family="Arial" font-size="14.00" fill="#666666">[text]</text>
<polygon fill="none" stroke="#000000" points="925,-655.5 925,-685.5 1231,-685.5 1231,-655.5 925,-655.5"/>
<text text-anchor="start" x="932" y="-666.9" font-family="Arial" font-size="14.00" fill="#000000">alert_message    </text>
<text text-anchor="start" x="1058.0014" y="-666.9" font-family="Arial" font-size="14.00" fill="#666666">[text]</text>
<polygon fill="none" stroke="#000000" points="925,-625.5 925,-655.5 1231,-655.5 1231,-625.5 925,-625.5"/>
<text text-anchor="start" x="932" y="-636.9" font-family="Arial" font-size="14.00" fill="#000000">opac_visible    </text>
<text text-anchor="start" x="1043.2202" y="-636.9" font-family="Arial" font-size="14.00" fill="#666666">[boolean]</text>
<polygon fill="none" stroke="#000000" points="925,-595.5 925,-625.5 1231,-625.5 1231,-595.5 925,-595.5"/>
<text text-anchor="start" x="932" y="-606.9" font-family="Arial" font-size="14.00" fill="#000000">floating    </text>
<text text-anchor="start" x="1011.3296" y="-606.9" font-family="Arial" font-size="14.00" fill="#666666">[integer]</text>
<polygon fill="none" stroke="#000000" points="925,-565.5 925,-595.5 1231,-595.5 1231,-565.5 925,-565.5"/>
<text text-anchor="start" x="932" y="-576.9" font-family="Arial" font-size="14.00" fill="#000000">mint_condition    </text>
<text text-anchor="start" x="1056.4446" y="-576.9" font-family="Arial" font-size="14.00" fill="#666666">[boolean]</text>
</g>
<!-- asset.copy_template&#45;&gt;config.copy_status -->
<g id="edge3" class="edge">
<title>asset.copy_template:status&#45;&gt;config.copy_status:id</title>
<path fill="none" stroke="#000000" d="M915.8325,-1056.047C870.2456,-1007.5126 910.8232,-577.5267 925,-523 954.8678,-408.1224 1130.6968,-270.5 1012,-270.5"/>
<polygon fill="#000000" stroke="#000000" points="916.005,-1056.1307 923.0338,-1064.5478 920.5025,-1058.3154 925,-1060.5 925,-1060.5 925,-1060.5 920.5025,-1058.3154 926.9662,-1056.4522 916.005,-1056.1307 916.005,-1056.1307"/>
<text text-anchor="start" x="699.6485" y="-1044.5" font-family="Arial" font-size="10.00" fill="#000000">FOREIGN KEY (status) REFERENCES config.copy_status(id) DEFERRABLE INITIALLY DEFERRED</text>
</g>
<!-- asset.course_module_course_materials -->
<g id="node5" class="node">
<title>asset.course_module_course_materials</title>
<polygon fill="#efefef" stroke="transparent" points="1336,-1090.5 1336,-1125.5 1795,-1125.5 1795,-1090.5 1336,-1090.5"/>
<polygon fill="none" stroke="#000000" points="1336,-1090.5 1336,-1125.5 1795,-1125.5 1795,-1090.5 1336,-1090.5"/>
<text text-anchor="start" x="1342.6851" y="-1103.3" font-family="Arial Bold" font-size="18.00" fill="#000000">asset.course_module_course_materials</text>
<text text-anchor="start" x="1660.7469" y="-1103.3" font-family="Arial" font-size="14.00" fill="#000000">    </text>
<text text-anchor="start" x="1694.9517" y="-1103.3" font-family="Arial" font-size="14.00" fill="#666666">[BASE TABLE]</text>
<polygon fill="none" stroke="#000000" points="1336,-1060.5 1336,-1090.5 1795,-1090.5 1795,-1060.5 1336,-1060.5"/>
<text text-anchor="start" x="1343" y="-1071.9" font-family="Arial" font-size="14.00" fill="#000000">id    </text>
<text text-anchor="start" x="1388.094" y="-1071.9" font-family="Arial" font-size="14.00" fill="#666666">[integer]</text>
<polygon fill="none" stroke="#000000" points="1336,-1030.5 1336,-1060.5 1795,-1060.5 1795,-1030.5 1336,-1030.5"/>
<text text-anchor="start" x="1343" y="-1041.9" font-family="Arial" font-size="14.00" fill="#000000">course    </text>
<text text-anchor="start" x="1419.2132" y="-1041.9" font-family="Arial" font-size="14.00" fill="#666666">[integer]</text>
<polygon fill="none" stroke="#000000" points="1336,-1000.5 1336,-1030.5 1795,-1030.5 1795,-1000.5 1336,-1000.5"/>
<text text-anchor="start" x="1343" y="-1011.9" font-family="Arial" font-size="14.00" fill="#000000">item    </text>
<text text-anchor="start" x="1403.6452" y="-1011.9" font-family="Arial" font-size="14.00" fill="#666666">[integer]</text>
<polygon fill="none" stroke="#000000" points="1336,-970.5 1336,-1000.5 1795,-1000.5 1795,-970.5 1336,-970.5"/>
<text text-anchor="start" x="1343" y="-981.9" font-family="Arial" font-size="14.00" fill="#000000">relationship    </text>
<text text-anchor="start" x="1448.7714" y="-981.9" font-family="Arial" font-size="14.00" fill="#666666">[text]</text>
<polygon fill="none" stroke="#000000" points="1336,-940.5 1336,-970.5 1795,-970.5 1795,-940.5 1336,-940.5"/>
<text text-anchor="start" x="1343" y="-951.9" font-family="Arial" font-size="14.00" fill="#000000">record    </text>
<text text-anchor="start" x="1416.8738" y="-951.9" font-family="Arial" font-size="14.00" fill="#666666">[integer]</text>
<polygon fill="none" stroke="#000000" points="1336,-910.5 1336,-940.5 1795,-940.5 1795,-910.5 1336,-910.5"/>
<text text-anchor="start" x="1343" y="-921.9" font-family="Arial" font-size="14.00" fill="#000000">temporary_record    </text>
<text text-anchor="start" x="1487.6592" y="-921.9" font-family="Arial" font-size="14.00" fill="#666666">[boolean]</text>
<polygon fill="none" stroke="#000000" points="1336,-880.5 1336,-910.5 1795,-910.5 1795,-880.5 1336,-880.5"/>
<text text-anchor="start" x="1343" y="-891.9" font-family="Arial" font-size="14.00" fill="#000000">original_location    </text>
<text text-anchor="start" x="1478.3324" y="-891.9" font-family="Arial" font-size="14.00" fill="#666666">[integer]</text>
<polygon fill="none" stroke="#000000" points="1336,-850.5 1336,-880.5 1795,-880.5 1795,-850.5 1336,-850.5"/>
<text text-anchor="start" x="1343" y="-861.9" font-family="Arial" font-size="14.00" fill="#000000">original_status    </text>
<text text-anchor="start" x="1467.4446" y="-861.9" font-family="Arial" font-size="14.00" fill="#666666">[integer]</text>
<polygon fill="none" stroke="#000000" points="1336,-820.5 1336,-850.5 1795,-850.5 1795,-820.5 1336,-820.5"/>
<text text-anchor="start" x="1343" y="-831.9" font-family="Arial" font-size="14.00" fill="#000000">original_circ_modifier    </text>
<text text-anchor="start" x="1509.4208" y="-831.9" font-family="Arial" font-size="14.00" fill="#666666">[text]</text>
<polygon fill="none" stroke="#000000" points="1336,-790.5 1336,-820.5 1795,-820.5 1795,-790.5 1336,-790.5"/>
<text text-anchor="start" x="1343" y="-801.9" font-family="Arial" font-size="14.00" fill="#000000">original_callnumber    </text>
<text text-anchor="start" x="1498.5456" y="-801.9" font-family="Arial" font-size="14.00" fill="#666666">[integer]</text>
</g>
<!-- asset.course_module_course_materials&#45;&gt;config.copy_status -->
<g id="edge4" class="edge">
<title>asset.course_module_course_materials:original_status&#45;&gt;config.copy_status:id</title>
<path fill="none" stroke="#000000" d="M1325.8645,-864.1276C1240.0841,-839.284 1340.594,-484.5209 1283,-403 1205.6395,-293.5006 1146.07,-270.5 1012,-270.5"/>
<polygon fill="#000000" stroke="#000000" points="1326.0904,-864.1581 1335.3961,-869.9593 1331.0452,-864.829 1336,-865.5 1336,-865.5 1336,-865.5 1331.0452,-864.829 1336.6039,-861.0407 1326.0904,-864.1581 1326.0904,-864.1581"/>
<text text-anchor="start" x="1343.318" y="-875.5" font-family="Arial" font-size="10.00" fill="#000000">FOREIGN KEY (original_status) REFERENCES config.copy_status(id)</text>
</g>
</g>
</svg>
