<?xml version="1.0" encoding="UTF-8" standalone="no"?>
<!DOCTYPE svg PUBLIC "-//W3C//DTD SVG 1.1//EN"
 "http://www.w3.org/Graphics/SVG/1.1/DTD/svg11.dtd">
<!-- Generated by graphviz version 2.40.1 (20161225.0304)
 -->
<!-- Title: config.i18n_core Pages: 1 -->
<svg width="1049pt" height="592pt"
 viewBox="0.00 0.00 1048.50 592.00" xmlns="http://www.w3.org/2000/svg" xmlns:xlink="http://www.w3.org/1999/xlink">
<g id="graph0" class="graph" transform="scale(1 1) rotate(0) translate(4 588)">
<title>config.i18n_core</title>
<polygon fill="#ffffff" stroke="transparent" points="-4,4 -4,-588 1044.5,-588 1044.5,4 -4,4"/>
<!-- config.i18n_core -->
<g id="node1" class="node">
<title>config.i18n_core</title>
<polygon fill="#efefef" stroke="transparent" points="719,-502.5 719,-537.5 992,-537.5 992,-502.5 719,-502.5"/>
<polygon fill="none" stroke="#000000" points="719,-502.5 719,-537.5 992,-537.5 992,-502.5 719,-502.5"/>
<text text-anchor="start" x="725.6956" y="-515.3" font-family="Arial Bold" font-size="18.00" fill="#000000">config.i18n_core</text>
<text text-anchor="start" x="857.7364" y="-515.3" font-family="Arial" font-size="14.00" fill="#000000">    </text>
<text text-anchor="start" x="891.9412" y="-515.3" font-family="Arial" font-size="14.00" fill="#666666">[BASE TABLE]</text>
<polygon fill="none" stroke="#000000" points="719,-472.5 719,-502.5 992,-502.5 992,-472.5 719,-472.5"/>
<text text-anchor="start" x="726" y="-483.9" font-family="Arial" font-size="14.00" fill="#000000">id </text>
<text text-anchor="start" x="740.7798" y="-483.9" font-family="Arial" font-size="14.00" fill="#666666">[bigint]</text>
<polygon fill="none" stroke="#000000" points="719,-442.5 719,-472.5 992,-472.5 992,-442.5 719,-442.5"/>
<text text-anchor="start" x="726" y="-453.9" font-family="Arial" font-size="14.00" fill="#000000">fq_field </text>
<text text-anchor="start" x="775.0154" y="-453.9" font-family="Arial" font-size="14.00" fill="#666666">[text]</text>
<polygon fill="none" stroke="#000000" points="719,-412.5 719,-442.5 992,-442.5 992,-412.5 719,-412.5"/>
<text text-anchor="start" x="726" y="-423.9" font-family="Arial" font-size="14.00" fill="#000000">identity_value </text>
<text text-anchor="start" x="815.4698" y="-423.9" font-family="Arial" font-size="14.00" fill="#666666">[text]</text>
<polygon fill="none" stroke="#000000" points="719,-382.5 719,-412.5 992,-412.5 992,-382.5 719,-382.5"/>
<text text-anchor="start" x="726" y="-393.9" font-family="Arial" font-size="14.00" fill="#000000">translation </text>
<text text-anchor="start" x="794.4586" y="-393.9" font-family="Arial" font-size="14.00" fill="#666666">[text]</text>
<polygon fill="none" stroke="#000000" points="719,-352.5 719,-382.5 992,-382.5 992,-352.5 719,-352.5"/>
<text text-anchor="start" x="726" y="-363.9" font-family="Arial" font-size="14.00" fill="#000000">string </text>
<text text-anchor="start" x="764.1136" y="-363.9" font-family="Arial" font-size="14.00" fill="#666666">[text]</text>
<polygon fill="none" stroke="#000000" stroke-width="3" points="717,-351.5 717,-539.5 993,-539.5 993,-351.5 717,-351.5"/>
</g>
<!-- config.i18n_locale -->
<g id="node2" class="node">
<title>config.i18n_locale</title>
<polygon fill="#efefef" stroke="transparent" points="713,-192.5 713,-227.5 998,-227.5 998,-192.5 713,-192.5"/>
<polygon fill="none" stroke="#000000" points="713,-192.5 713,-227.5 998,-227.5 998,-192.5 713,-192.5"/>
<text text-anchor="start" x="719.6944" y="-205.3" font-family="Arial Bold" font-size="18.00" fill="#000000">config.i18n_locale</text>
<text text-anchor="start" x="863.7376" y="-205.3" font-family="Arial" font-size="14.00" fill="#000000">    </text>
<text text-anchor="start" x="897.9424" y="-205.3" font-family="Arial" font-size="14.00" fill="#666666">[BASE TABLE]</text>
<polygon fill="none" stroke="#000000" points="713,-162.5 713,-192.5 998,-192.5 998,-162.5 713,-162.5"/>
<text text-anchor="start" x="720" y="-173.9" font-family="Arial" font-size="14.00" fill="#000000">code    </text>
<text text-anchor="start" x="784.5526" y="-173.9" font-family="Arial" font-size="14.00" fill="#666666">[text]</text>
<polygon fill="none" stroke="#000000" points="713,-132.5 713,-162.5 998,-162.5 998,-132.5 713,-132.5"/>
<text text-anchor="start" x="720" y="-143.9" font-family="Arial" font-size="14.00" fill="#000000">marc_code    </text>
<text text-anchor="start" x="823.439" y="-143.9" font-family="Arial" font-size="14.00" fill="#666666">[text]</text>
<polygon fill="none" stroke="#000000" points="713,-102.5 713,-132.5 998,-132.5 998,-102.5 713,-102.5"/>
<text text-anchor="start" x="720" y="-113.9" font-family="Arial" font-size="14.00" fill="#000000">name    </text>
<text text-anchor="start" x="789.2132" y="-113.9" font-family="Arial" font-size="14.00" fill="#666666">[text]</text>
<polygon fill="none" stroke="#000000" points="713,-72.5 713,-102.5 998,-102.5 998,-72.5 713,-72.5"/>
<text text-anchor="start" x="720" y="-83.9" font-family="Arial" font-size="14.00" fill="#000000">description    </text>
<text text-anchor="start" x="821.8822" y="-83.9" font-family="Arial" font-size="14.00" fill="#666666">[text]</text>
<polygon fill="none" stroke="#000000" points="713,-42.5 713,-72.5 998,-72.5 998,-42.5 713,-42.5"/>
<text text-anchor="start" x="720" y="-53.9" font-family="Arial" font-size="14.00" fill="#000000">rtl    </text>
<text text-anchor="start" x="765.8626" y="-53.9" font-family="Arial" font-size="14.00" fill="#666666">[boolean]</text>
</g>
<!-- config.i18n_core&#45;&gt;config.i18n_locale -->
<g id="edge1" class="edge">
<title>config.i18n_core:translation&#45;&gt;config.i18n_locale:code</title>
<path fill="none" stroke="#000000" d="M709.0246,-396.7034C620.8923,-382.3032 618.6246,-177.5 713,-177.5"/>
<polygon fill="#000000" stroke="#000000" points="709.0317,-396.7039 718.6417,-401.9857 714.0159,-397.1019 719,-397.5 719,-397.5 719,-397.5 714.0159,-397.1019 719.3583,-393.0143 709.0317,-396.7039 709.0317,-396.7039"/>
<text text-anchor="start" x="7.4765" y="-407.5" font-family="Arial" font-size="10.00" fill="#000000">FOREIGN KEY (translation) REFERENCES config.i18n_locale(code) ON UPDATE CASCADE ON DELETE CASCADE DEFERRABLE INITIALLY DEFERRED</text>
</g>
</g>
</svg>
