<?xml version="1.0" encoding="UTF-8" standalone="no"?>
<!DOCTYPE svg PUBLIC "-//W3C//DTD SVG 1.1//EN"
 "http://www.w3.org/Graphics/SVG/1.1/DTD/svg11.dtd">
<!-- Generated by graphviz version 2.40.1 (20161225.0304)
 -->
<!-- Title: config.internal_flag Pages: 1 -->
<svg width="392pt" height="225pt"
 viewBox="0.00 0.00 392.00 225.00" xmlns="http://www.w3.org/2000/svg" xmlns:xlink="http://www.w3.org/1999/xlink">
<g id="graph0" class="graph" transform="scale(1 1) rotate(0) translate(4 221)">
<title>config.internal_flag</title>
<polygon fill="#ffffff" stroke="transparent" points="-4,4 -4,-221 388,-221 388,4 -4,4"/>
<!-- config.internal_flag -->
<g id="node1" class="node">
<title>config.internal_flag</title>
<polygon fill="#efefef" stroke="transparent" points="46,-135.5 46,-170.5 338,-170.5 338,-135.5 46,-135.5"/>
<polygon fill="none" stroke="#000000" points="46,-135.5 46,-170.5 338,-170.5 338,-135.5 46,-135.5"/>
<text text-anchor="start" x="52.6961" y="-148.3" font-family="Arial Bold" font-size="18.00" fill="#000000">config.internal_flag</text>
<text text-anchor="start" x="203.7359" y="-148.3" font-family="Arial" font-size="14.00" fill="#000000">    </text>
<text text-anchor="start" x="237.9407" y="-148.3" font-family="Arial" font-size="14.00" fill="#666666">[BASE TABLE]</text>
<polygon fill="none" stroke="#000000" points="46,-105.5 46,-135.5 338,-135.5 338,-105.5 46,-105.5"/>
<text text-anchor="start" x="53" y="-116.9" font-family="Arial" font-size="14.00" fill="#000000">name </text>
<text text-anchor="start" x="91.899" y="-116.9" font-family="Arial" font-size="14.00" fill="#666666">[text]</text>
<polygon fill="none" stroke="#000000" points="46,-75.5 46,-105.5 338,-105.5 338,-75.5 46,-75.5"/>
<text text-anchor="start" x="53" y="-86.9" font-family="Arial" font-size="14.00" fill="#000000">value </text>
<text text-anchor="start" x="90.345" y="-86.9" font-family="Arial" font-size="14.00" fill="#666666">[text]</text>
<polygon fill="none" stroke="#000000" points="46,-45.5 46,-75.5 338,-75.5 338,-45.5 46,-45.5"/>
<text text-anchor="start" x="53" y="-56.9" font-family="Arial" font-size="14.00" fill="#000000">enabled </text>
<text text-anchor="start" x="106.6928" y="-56.9" font-family="Arial" font-size="14.00" fill="#666666">[boolean]</text>
<polygon fill="none" stroke="#000000" stroke-width="3" points="44.5,-44.5 44.5,-172.5 339.5,-172.5 339.5,-44.5 44.5,-44.5"/>
</g>
</g>
</svg>
