<?xml version="1.0" encoding="UTF-8" standalone="no"?>
<!DOCTYPE svg PUBLIC "-//W3C//DTD SVG 1.1//EN"
 "http://www.w3.org/Graphics/SVG/1.1/DTD/svg11.dtd">
<!-- Generated by graphviz version 2.40.1 (20161225.0304)
 -->
<!-- Title: config.record_attr_definition Pages: 1 -->
<svg width="4393pt" height="1469pt"
 viewBox="0.00 0.00 4392.50 1469.00" xmlns="http://www.w3.org/2000/svg" xmlns:xlink="http://www.w3.org/1999/xlink">
<g id="graph0" class="graph" transform="scale(1 1) rotate(0) translate(4 1465)">
<title>config.record_attr_definition</title>
<polygon fill="#ffffff" stroke="transparent" points="-4,4 -4,-1465 4388.5,-1465 4388.5,4 -4,4"/>
<!-- config.record_attr_definition -->
<g id="node1" class="node">
<title>config.record_attr_definition</title>
<polygon fill="#efefef" stroke="transparent" points="2006,-892.5 2006,-927.5 2369,-927.5 2369,-892.5 2006,-892.5"/>
<polygon fill="none" stroke="#000000" points="2006,-892.5 2006,-927.5 2369,-927.5 2369,-892.5 2006,-892.5"/>
<text text-anchor="start" x="2012.6893" y="-905.3" font-family="Arial Bold" font-size="18.00" fill="#000000">config.record_attr_definition</text>
<text text-anchor="start" x="2234.7427" y="-905.3" font-family="Arial" font-size="14.00" fill="#000000">    </text>
<text text-anchor="start" x="2268.9475" y="-905.3" font-family="Arial" font-size="14.00" fill="#666666">[BASE TABLE]</text>
<polygon fill="none" stroke="#000000" points="2006,-862.5 2006,-892.5 2369,-892.5 2369,-862.5 2006,-862.5"/>
<text text-anchor="start" x="2013" y="-873.9" font-family="Arial" font-size="14.00" fill="#000000">name </text>
<text text-anchor="start" x="2051.899" y="-873.9" font-family="Arial" font-size="14.00" fill="#666666">[text]</text>
<polygon fill="none" stroke="#000000" points="2006,-832.5 2006,-862.5 2369,-862.5 2369,-832.5 2006,-832.5"/>
<text text-anchor="start" x="2013" y="-843.9" font-family="Arial" font-size="14.00" fill="#000000">label </text>
<text text-anchor="start" x="2046.4516" y="-843.9" font-family="Arial" font-size="14.00" fill="#666666">[text]</text>
<polygon fill="none" stroke="#000000" points="2006,-802.5 2006,-832.5 2369,-832.5 2369,-802.5 2006,-802.5"/>
<text text-anchor="start" x="2013" y="-813.9" font-family="Arial" font-size="14.00" fill="#000000">description </text>
<text text-anchor="start" x="2084.568" y="-813.9" font-family="Arial" font-size="14.00" fill="#666666">[text]</text>
<polygon fill="none" stroke="#000000" points="2006,-772.5 2006,-802.5 2369,-802.5 2369,-772.5 2006,-772.5"/>
<text text-anchor="start" x="2013" y="-783.9" font-family="Arial" font-size="14.00" fill="#000000">multi </text>
<text text-anchor="start" x="2046.4376" y="-783.9" font-family="Arial" font-size="14.00" fill="#666666">[boolean]</text>
<polygon fill="none" stroke="#000000" points="2006,-742.5 2006,-772.5 2369,-772.5 2369,-742.5 2006,-742.5"/>
<text text-anchor="start" x="2013" y="-753.9" font-family="Arial" font-size="14.00" fill="#000000">filter </text>
<text text-anchor="start" x="2043.3282" y="-753.9" font-family="Arial" font-size="14.00" fill="#666666">[boolean]</text>
<polygon fill="none" stroke="#000000" points="2006,-712.5 2006,-742.5 2369,-742.5 2369,-712.5 2006,-712.5"/>
<text text-anchor="start" x="2013" y="-723.9" font-family="Arial" font-size="14.00" fill="#000000">sorter </text>
<text text-anchor="start" x="2052.6676" y="-723.9" font-family="Arial" font-size="14.00" fill="#666666">[boolean]</text>
<polygon fill="none" stroke="#000000" points="2006,-682.5 2006,-712.5 2369,-712.5 2369,-682.5 2006,-682.5"/>
<text text-anchor="start" x="2013" y="-693.9" font-family="Arial" font-size="14.00" fill="#000000">composite </text>
<text text-anchor="start" x="2080.6788" y="-693.9" font-family="Arial" font-size="14.00" fill="#666666">[boolean]</text>
<polygon fill="none" stroke="#000000" points="2006,-652.5 2006,-682.5 2369,-682.5 2369,-652.5 2006,-652.5"/>
<text text-anchor="start" x="2013" y="-663.9" font-family="Arial" font-size="14.00" fill="#000000">tag </text>
<text text-anchor="start" x="2036.3464" y="-663.9" font-family="Arial" font-size="14.00" fill="#666666">[text]</text>
<polygon fill="none" stroke="#000000" points="2006,-622.5 2006,-652.5 2369,-652.5 2369,-622.5 2006,-622.5"/>
<text text-anchor="start" x="2013" y="-633.9" font-family="Arial" font-size="14.00" fill="#000000">sf_list </text>
<text text-anchor="start" x="2052.6676" y="-633.9" font-family="Arial" font-size="14.00" fill="#666666">[text]</text>
<polygon fill="none" stroke="#000000" points="2006,-592.5 2006,-622.5 2369,-622.5 2369,-592.5 2006,-592.5"/>
<text text-anchor="start" x="2013" y="-603.9" font-family="Arial" font-size="14.00" fill="#000000">joiner </text>
<text text-anchor="start" x="2051.1122" y="-603.9" font-family="Arial" font-size="14.00" fill="#666666">[text]</text>
<polygon fill="none" stroke="#000000" points="2006,-562.5 2006,-592.5 2369,-592.5 2369,-562.5 2006,-562.5"/>
<text text-anchor="start" x="2013" y="-573.9" font-family="Arial" font-size="14.00" fill="#000000">xpath </text>
<text text-anchor="start" x="2051.129" y="-573.9" font-family="Arial" font-size="14.00" fill="#666666">[text]</text>
<polygon fill="none" stroke="#000000" points="2006,-532.5 2006,-562.5 2369,-562.5 2369,-532.5 2006,-532.5"/>
<text text-anchor="start" x="2013" y="-543.9" font-family="Arial" font-size="14.00" fill="#000000">format </text>
<text text-anchor="start" x="2056.5582" y="-543.9" font-family="Arial" font-size="14.00" fill="#666666">[text]</text>
<polygon fill="none" stroke="#000000" points="2006,-502.5 2006,-532.5 2369,-532.5 2369,-502.5 2006,-502.5"/>
<text text-anchor="start" x="2013" y="-513.9" font-family="Arial" font-size="14.00" fill="#000000">start_pos </text>
<text text-anchor="start" x="2074.4628" y="-513.9" font-family="Arial" font-size="14.00" fill="#666666">[integer]</text>
<polygon fill="none" stroke="#000000" points="2006,-472.5 2006,-502.5 2369,-502.5 2369,-472.5 2006,-472.5"/>
<text text-anchor="start" x="2013" y="-483.9" font-family="Arial" font-size="14.00" fill="#000000">string_len </text>
<text text-anchor="start" x="2077.568" y="-483.9" font-family="Arial" font-size="14.00" fill="#666666">[integer]</text>
<polygon fill="none" stroke="#000000" points="2006,-442.5 2006,-472.5 2369,-472.5 2369,-442.5 2006,-442.5"/>
<text text-anchor="start" x="2013" y="-453.9" font-family="Arial" font-size="14.00" fill="#000000">fixed_field </text>
<text text-anchor="start" x="2079.9046" y="-453.9" font-family="Arial" font-size="14.00" fill="#666666">[text]</text>
<polygon fill="none" stroke="#000000" points="2006,-412.5 2006,-442.5 2369,-442.5 2369,-412.5 2006,-412.5"/>
<text text-anchor="start" x="2013" y="-423.9" font-family="Arial" font-size="14.00" fill="#000000">phys_char_sf </text>
<text text-anchor="start" x="2100.1374" y="-423.9" font-family="Arial" font-size="14.00" fill="#666666">[integer]</text>
<polygon fill="none" stroke="#000000" points="2006,-382.5 2006,-412.5 2369,-412.5 2369,-382.5 2006,-382.5"/>
<text text-anchor="start" x="2013" y="-393.9" font-family="Arial" font-size="14.00" fill="#000000">vocabulary </text>
<text text-anchor="start" x="2084.5708" y="-393.9" font-family="Arial" font-size="14.00" fill="#666666">[text]</text>
<polygon fill="none" stroke="#000000" stroke-width="3" points="2004,-381.5 2004,-929.5 2370,-929.5 2370,-381.5 2004,-381.5"/>
</g>
<!-- config.xml_transform -->
<g id="node11" class="node">
<title>config.xml_transform</title>
<polygon fill="#efefef" stroke="transparent" points="1765,-192.5 1765,-227.5 2073,-227.5 2073,-192.5 1765,-192.5"/>
<polygon fill="none" stroke="#000000" points="1765,-192.5 1765,-227.5 2073,-227.5 2073,-192.5 1765,-192.5"/>
<text text-anchor="start" x="1771.7113" y="-205.3" font-family="Arial Bold" font-size="18.00" fill="#000000">config.xml_transform</text>
<text text-anchor="start" x="1938.7207" y="-205.3" font-family="Arial" font-size="14.00" fill="#000000">    </text>
<text text-anchor="start" x="1972.9255" y="-205.3" font-family="Arial" font-size="14.00" fill="#666666">[BASE TABLE]</text>
<polygon fill="none" stroke="#000000" points="1765,-162.5 1765,-192.5 2073,-192.5 2073,-162.5 1765,-162.5"/>
<text text-anchor="start" x="1772" y="-173.9" font-family="Arial" font-size="14.00" fill="#000000">name    </text>
<text text-anchor="start" x="1841.2132" y="-173.9" font-family="Arial" font-size="14.00" fill="#666666">[text]</text>
<polygon fill="none" stroke="#000000" points="1765,-132.5 1765,-162.5 2073,-162.5 2073,-132.5 1765,-132.5"/>
<text text-anchor="start" x="1772" y="-143.9" font-family="Arial" font-size="14.00" fill="#000000">namespace_uri    </text>
<text text-anchor="start" x="1901.8934" y="-143.9" font-family="Arial" font-size="14.00" fill="#666666">[text]</text>
<polygon fill="none" stroke="#000000" points="1765,-102.5 1765,-132.5 2073,-132.5 2073,-102.5 1765,-102.5"/>
<text text-anchor="start" x="1772" y="-113.9" font-family="Arial" font-size="14.00" fill="#000000">prefix    </text>
<text text-anchor="start" x="1840.4278" y="-113.9" font-family="Arial" font-size="14.00" fill="#666666">[text]</text>
<polygon fill="none" stroke="#000000" points="1765,-72.5 1765,-102.5 2073,-102.5 2073,-72.5 1765,-72.5"/>
<text text-anchor="start" x="1772" y="-83.9" font-family="Arial" font-size="14.00" fill="#000000">xslt    </text>
<text text-anchor="start" x="1827.202" y="-83.9" font-family="Arial" font-size="14.00" fill="#666666">[text]</text>
</g>
<!-- config.record_attr_definition&#45;&gt;config.xml_transform -->
<g id="edge10" class="edge">
<title>config.record_attr_definition:format&#45;&gt;config.xml_transform:name</title>
<path fill="none" stroke="#000000" d="M1995.7173,-546.9411C1916.8986,-537.8546 1971.2844,-419.9278 2006,-337 2022.1409,-298.4431 2056.8591,-309.5569 2073,-271 2089.0468,-232.6677 2114.5556,-177.5 2073,-177.5"/>
<polygon fill="#000000" stroke="#000000" points="1996.0147,-546.9572 2005.7557,-551.9934 2001.0074,-547.2286 2006,-547.5 2006,-547.5 2006,-547.5 2001.0074,-547.2286 2006.2443,-543.0066 1996.0147,-546.9572 1996.0147,-546.9572"/>
<text text-anchor="start" x="1408.4365" y="-557.5" font-family="Arial" font-size="10.00" fill="#000000">FOREIGN KEY (format) REFERENCES config.xml_transform(name) ON DELETE CASCADE DEFERRABLE INITIALLY DEFERRED</text>
</g>
<!-- config.marc21_physical_characteristic_subfield_map -->
<g id="node12" class="node">
<title>config.marc21_physical_characteristic_subfield_map</title>
<polygon fill="#efefef" stroke="transparent" points="2177,-222.5 2177,-257.5 2739,-257.5 2739,-222.5 2177,-222.5"/>
<polygon fill="none" stroke="#000000" points="2177,-222.5 2177,-257.5 2739,-257.5 2739,-222.5 2177,-222.5"/>
<text text-anchor="start" x="2183.679" y="-235.3" font-family="Arial Bold" font-size="18.00" fill="#000000">config.marc21_physical_characteristic_subfield_map</text>
<text text-anchor="start" x="2604.753" y="-235.3" font-family="Arial" font-size="14.00" fill="#000000">    </text>
<text text-anchor="start" x="2638.9578" y="-235.3" font-family="Arial" font-size="14.00" fill="#666666">[BASE TABLE]</text>
<polygon fill="none" stroke="#000000" points="2177,-192.5 2177,-222.5 2739,-222.5 2739,-192.5 2177,-192.5"/>
<text text-anchor="start" x="2184" y="-203.9" font-family="Arial" font-size="14.00" fill="#000000">id    </text>
<text text-anchor="start" x="2229.094" y="-203.9" font-family="Arial" font-size="14.00" fill="#666666">[integer]</text>
<polygon fill="none" stroke="#000000" points="2177,-162.5 2177,-192.5 2739,-192.5 2739,-162.5 2177,-162.5"/>
<text text-anchor="start" x="2184" y="-173.9" font-family="Arial" font-size="14.00" fill="#000000">ptype_key    </text>
<text text-anchor="start" x="2282.0084" y="-173.9" font-family="Arial" font-size="14.00" fill="#666666">[text]</text>
<polygon fill="none" stroke="#000000" points="2177,-132.5 2177,-162.5 2739,-162.5 2739,-132.5 2177,-132.5"/>
<text text-anchor="start" x="2184" y="-143.9" font-family="Arial" font-size="14.00" fill="#000000">subfield    </text>
<text text-anchor="start" x="2266.439" y="-143.9" font-family="Arial" font-size="14.00" fill="#666666">[text]</text>
<polygon fill="none" stroke="#000000" points="2177,-102.5 2177,-132.5 2739,-132.5 2739,-102.5 2177,-102.5"/>
<text text-anchor="start" x="2184" y="-113.9" font-family="Arial" font-size="14.00" fill="#000000">start_pos    </text>
<text text-anchor="start" x="2275.777" y="-113.9" font-family="Arial" font-size="14.00" fill="#666666">[integer]</text>
<polygon fill="none" stroke="#000000" points="2177,-72.5 2177,-102.5 2739,-102.5 2739,-72.5 2177,-72.5"/>
<text text-anchor="start" x="2184" y="-83.9" font-family="Arial" font-size="14.00" fill="#000000">length    </text>
<text text-anchor="start" x="2256.3324" y="-83.9" font-family="Arial" font-size="14.00" fill="#666666">[integer]</text>
<polygon fill="none" stroke="#000000" points="2177,-42.5 2177,-72.5 2739,-72.5 2739,-42.5 2177,-42.5"/>
<text text-anchor="start" x="2184" y="-53.9" font-family="Arial" font-size="14.00" fill="#000000">label    </text>
<text text-anchor="start" x="2247.7658" y="-53.9" font-family="Arial" font-size="14.00" fill="#666666">[text]</text>
</g>
<!-- config.record_attr_definition&#45;&gt;config.marc21_physical_characteristic_subfield_map -->
<g id="edge11" class="edge">
<title>config.record_attr_definition:phys_char_sf&#45;&gt;config.marc21_physical_characteristic_subfield_map:id</title>
<path fill="none" stroke="#000000" d="M2378.9046,-426.0025C2406.3989,-416.586 2392.2792,-365.0497 2369,-337 2313.5534,-270.1909 2232.4466,-367.8091 2177,-301 2150.4611,-269.0226 2135.4444,-207.5 2177,-207.5"/>
<polygon fill="#000000" stroke="#000000" points="2378.8876,-426.005 2368.3272,-423.0506 2373.9438,-426.7525 2369,-427.5 2369,-427.5 2369,-427.5 2373.9438,-426.7525 2369.6728,-431.9494 2378.8876,-426.005 2378.8876,-426.005"/>
<text text-anchor="start" x="2376.254" y="-437.5" font-family="Arial" font-size="10.00" fill="#000000">FOREIGN KEY (phys_char_sf) REFERENCES config.marc21_physical_characteristic_subfield_map(id)</text>
</g>
<!-- config.marc_subfield -->
<g id="node2" class="node">
<title>config.marc_subfield</title>
<polygon fill="#efefef" stroke="transparent" points="228,-1382.5 228,-1417.5 550,-1417.5 550,-1382.5 228,-1382.5"/>
<polygon fill="none" stroke="#000000" points="228,-1382.5 228,-1417.5 550,-1417.5 550,-1382.5 228,-1382.5"/>
<text text-anchor="start" x="242.7013" y="-1395.3" font-family="Arial Bold" font-size="18.00" fill="#000000">config.marc_subfield</text>
<text text-anchor="start" x="407.7307" y="-1395.3" font-family="Arial" font-size="14.00" fill="#000000">    </text>
<text text-anchor="start" x="441.9355" y="-1395.3" font-family="Arial" font-size="14.00" fill="#666666">[BASE TABLE]</text>
<polygon fill="none" stroke="#000000" points="228,-1352.5 228,-1382.5 550,-1382.5 550,-1352.5 228,-1352.5"/>
<text text-anchor="start" x="235" y="-1363.9" font-family="Arial" font-size="14.00" fill="#000000">id    </text>
<text text-anchor="start" x="280.094" y="-1363.9" font-family="Arial" font-size="14.00" fill="#666666">[integer]</text>
<polygon fill="none" stroke="#000000" points="228,-1322.5 228,-1352.5 550,-1352.5 550,-1322.5 228,-1322.5"/>
<text text-anchor="start" x="235" y="-1333.9" font-family="Arial" font-size="14.00" fill="#000000">marc_format    </text>
<text text-anchor="start" x="347.7588" y="-1333.9" font-family="Arial" font-size="14.00" fill="#666666">[integer]</text>
<polygon fill="none" stroke="#000000" points="228,-1292.5 228,-1322.5 550,-1322.5 550,-1292.5 228,-1292.5"/>
<text text-anchor="start" x="234.5954" y="-1303.9" font-family="Arial" font-size="14.00" fill="#000000">marc_record_type    </text>
<text text-anchor="start" x="381.594" y="-1303.9" font-family="Arial" font-size="14.00" fill="#666666">[config.marc_record_type]</text>
<polygon fill="none" stroke="#000000" points="228,-1262.5 228,-1292.5 550,-1292.5 550,-1262.5 228,-1262.5"/>
<text text-anchor="start" x="235" y="-1273.9" font-family="Arial" font-size="14.00" fill="#000000">tag    </text>
<text text-anchor="start" x="288.6606" y="-1273.9" font-family="Arial" font-size="14.00" fill="#666666">[character(3)]</text>
<polygon fill="none" stroke="#000000" points="228,-1232.5 228,-1262.5 550,-1262.5 550,-1232.5 228,-1232.5"/>
<text text-anchor="start" x="235" y="-1243.9" font-family="Arial" font-size="14.00" fill="#000000">code    </text>
<text text-anchor="start" x="299.5526" y="-1243.9" font-family="Arial" font-size="14.00" fill="#666666">[character(1)]</text>
<polygon fill="none" stroke="#000000" points="228,-1202.5 228,-1232.5 550,-1232.5 550,-1202.5 228,-1202.5"/>
<text text-anchor="start" x="235" y="-1213.9" font-family="Arial" font-size="14.00" fill="#000000">description    </text>
<text text-anchor="start" x="336.8822" y="-1213.9" font-family="Arial" font-size="14.00" fill="#666666">[text]</text>
<polygon fill="none" stroke="#000000" points="228,-1172.5 228,-1202.5 550,-1202.5 550,-1172.5 228,-1172.5"/>
<text text-anchor="start" x="235" y="-1183.9" font-family="Arial" font-size="14.00" fill="#000000">repeatable    </text>
<text text-anchor="start" x="335.3408" y="-1183.9" font-family="Arial" font-size="14.00" fill="#666666">[boolean]</text>
<polygon fill="none" stroke="#000000" points="228,-1142.5 228,-1172.5 550,-1172.5 550,-1142.5 228,-1142.5"/>
<text text-anchor="start" x="235" y="-1153.9" font-family="Arial" font-size="14.00" fill="#000000">mandatory    </text>
<text text-anchor="start" x="335.3296" y="-1153.9" font-family="Arial" font-size="14.00" fill="#666666">[boolean]</text>
<polygon fill="none" stroke="#000000" points="228,-1112.5 228,-1142.5 550,-1142.5 550,-1112.5 228,-1112.5"/>
<text text-anchor="start" x="235" y="-1123.9" font-family="Arial" font-size="14.00" fill="#000000">hidden    </text>
<text text-anchor="start" x="311.2244" y="-1123.9" font-family="Arial" font-size="14.00" fill="#666666">[boolean]</text>
<polygon fill="none" stroke="#000000" points="228,-1082.5 228,-1112.5 550,-1112.5 550,-1082.5 228,-1082.5"/>
<text text-anchor="start" x="235" y="-1093.9" font-family="Arial" font-size="14.00" fill="#000000">value_ctype    </text>
<text text-anchor="start" x="343.8976" y="-1093.9" font-family="Arial" font-size="14.00" fill="#666666">[text]</text>
<polygon fill="none" stroke="#000000" points="228,-1052.5 228,-1082.5 550,-1082.5 550,-1052.5 228,-1052.5"/>
<text text-anchor="start" x="235" y="-1063.9" font-family="Arial" font-size="14.00" fill="#000000">owner    </text>
<text text-anchor="start" x="307.3198" y="-1063.9" font-family="Arial" font-size="14.00" fill="#666666">[integer]</text>
</g>
<!-- config.marc_subfield&#45;&gt;config.record_attr_definition -->
<g id="edge1" class="edge">
<title>config.marc_subfield:value_ctype&#45;&gt;config.record_attr_definition:name</title>
<path fill="none" stroke="#000000" d="M560.0565,-1096.1624C590.3451,-1086.9084 567.0615,-1032.1166 602,-1010 734.3964,-926.1911 1849.3068,-877.5 2006,-877.5"/>
<polygon fill="#000000" stroke="#000000" points="559.9127,-1096.1815 549.4067,-1093.0393 554.9564,-1096.8407 550,-1097.5 550,-1097.5 550,-1097.5 554.9564,-1096.8407 550.5933,-1101.9607 559.9127,-1096.1815 559.9127,-1096.1815"/>
<text text-anchor="start" x="6.9185" y="-1107.5" font-family="Arial" font-size="10.00" fill="#000000">FOREIGN KEY (value_ctype) REFERENCES config.record_attr_definition(name) DEFERRABLE INITIALLY DEFERRED</text>
</g>
<!-- vandelay.match_set_point -->
<g id="node3" class="node">
<title>vandelay.match_set_point</title>
<polygon fill="#efefef" stroke="transparent" points="654,-1367.5 654,-1402.5 1004,-1402.5 1004,-1367.5 654,-1367.5"/>
<polygon fill="none" stroke="#000000" points="654,-1367.5 654,-1402.5 1004,-1402.5 1004,-1367.5 654,-1367.5"/>
<text text-anchor="start" x="660.681" y="-1380.3" font-family="Arial Bold" font-size="18.00" fill="#000000">vandelay.match_set_point</text>
<text text-anchor="start" x="869.751" y="-1380.3" font-family="Arial" font-size="14.00" fill="#000000">    </text>
<text text-anchor="start" x="903.9558" y="-1380.3" font-family="Arial" font-size="14.00" fill="#666666">[BASE TABLE]</text>
<polygon fill="none" stroke="#000000" points="654,-1337.5 654,-1367.5 1004,-1367.5 1004,-1337.5 654,-1337.5"/>
<text text-anchor="start" x="661" y="-1348.9" font-family="Arial" font-size="14.00" fill="#000000">id    </text>
<text text-anchor="start" x="706.094" y="-1348.9" font-family="Arial" font-size="14.00" fill="#666666">[integer]</text>
<polygon fill="none" stroke="#000000" points="654,-1307.5 654,-1337.5 1004,-1337.5 1004,-1307.5 654,-1307.5"/>
<text text-anchor="start" x="661" y="-1318.9" font-family="Arial" font-size="14.00" fill="#000000">match_set    </text>
<text text-anchor="start" x="759.777" y="-1318.9" font-family="Arial" font-size="14.00" fill="#666666">[integer]</text>
<polygon fill="none" stroke="#000000" points="654,-1277.5 654,-1307.5 1004,-1307.5 1004,-1277.5 654,-1277.5"/>
<text text-anchor="start" x="661" y="-1288.9" font-family="Arial" font-size="14.00" fill="#000000">parent    </text>
<text text-anchor="start" x="734.8864" y="-1288.9" font-family="Arial" font-size="14.00" fill="#666666">[integer]</text>
<polygon fill="none" stroke="#000000" points="654,-1247.5 654,-1277.5 1004,-1277.5 1004,-1247.5 654,-1247.5"/>
<text text-anchor="start" x="661" y="-1258.9" font-family="Arial" font-size="14.00" fill="#000000">bool_op    </text>
<text text-anchor="start" x="745.007" y="-1258.9" font-family="Arial" font-size="14.00" fill="#666666">[text]</text>
<polygon fill="none" stroke="#000000" points="654,-1217.5 654,-1247.5 1004,-1247.5 1004,-1217.5 654,-1217.5"/>
<text text-anchor="start" x="661" y="-1228.9" font-family="Arial" font-size="14.00" fill="#000000">svf    </text>
<text text-anchor="start" x="713.0954" y="-1228.9" font-family="Arial" font-size="14.00" fill="#666666">[text]</text>
<polygon fill="none" stroke="#000000" points="654,-1187.5 654,-1217.5 1004,-1217.5 1004,-1187.5 654,-1187.5"/>
<text text-anchor="start" x="661" y="-1198.9" font-family="Arial" font-size="14.00" fill="#000000">tag    </text>
<text text-anchor="start" x="714.6606" y="-1198.9" font-family="Arial" font-size="14.00" fill="#666666">[text]</text>
<polygon fill="none" stroke="#000000" points="654,-1157.5 654,-1187.5 1004,-1187.5 1004,-1157.5 654,-1157.5"/>
<text text-anchor="start" x="661" y="-1168.9" font-family="Arial" font-size="14.00" fill="#000000">subfield    </text>
<text text-anchor="start" x="743.439" y="-1168.9" font-family="Arial" font-size="14.00" fill="#666666">[text]</text>
<polygon fill="none" stroke="#000000" points="654,-1127.5 654,-1157.5 1004,-1157.5 1004,-1127.5 654,-1127.5"/>
<text text-anchor="start" x="661" y="-1138.9" font-family="Arial" font-size="14.00" fill="#000000">negate    </text>
<text text-anchor="start" x="738.0084" y="-1138.9" font-family="Arial" font-size="14.00" fill="#666666">[boolean]</text>
<polygon fill="none" stroke="#000000" points="654,-1097.5 654,-1127.5 1004,-1127.5 1004,-1097.5 654,-1097.5"/>
<text text-anchor="start" x="661" y="-1108.9" font-family="Arial" font-size="14.00" fill="#000000">quality    </text>
<text text-anchor="start" x="735.6564" y="-1108.9" font-family="Arial" font-size="14.00" fill="#666666">[integer]</text>
<polygon fill="none" stroke="#000000" points="654,-1067.5 654,-1097.5 1004,-1097.5 1004,-1067.5 654,-1067.5"/>
<text text-anchor="start" x="661" y="-1078.9" font-family="Arial" font-size="14.00" fill="#000000">heading    </text>
<text text-anchor="start" x="745.007" y="-1078.9" font-family="Arial" font-size="14.00" fill="#666666">[boolean]</text>
</g>
<!-- vandelay.match_set_point&#45;&gt;config.record_attr_definition -->
<g id="edge2" class="edge">
<title>vandelay.match_set_point:svf&#45;&gt;config.record_attr_definition:name</title>
<path fill="none" stroke="#000000" d="M1014.1427,-1231.908C1096.8131,-1221.4805 983.7086,-1075.9945 1056,-1010 1134.7116,-938.1445 1899.4227,-877.5 2006,-877.5"/>
<polygon fill="#000000" stroke="#000000" points="1013.983,-1231.9172 1003.7378,-1228.0076 1008.9915,-1232.2086 1004,-1232.5 1004,-1232.5 1004,-1232.5 1008.9915,-1232.2086 1004.2622,-1236.9924 1013.983,-1231.9172 1013.983,-1231.9172"/>
<text text-anchor="start" x="1011.265" y="-1242.5" font-family="Arial" font-size="10.00" fill="#000000">FOREIGN KEY (svf) REFERENCES config.record_attr_definition(name)</text>
</g>
<!-- authority.browse_axis -->
<g id="node4" class="node">
<title>authority.browse_axis</title>
<polygon fill="#efefef" stroke="transparent" points="1109,-1277.5 1109,-1312.5 1424,-1312.5 1424,-1277.5 1109,-1277.5"/>
<polygon fill="none" stroke="#000000" points="1109,-1277.5 1109,-1312.5 1424,-1312.5 1424,-1277.5 1109,-1277.5"/>
<text text-anchor="start" x="1115.7013" y="-1290.3" font-family="Arial Bold" font-size="18.00" fill="#000000">authority.browse_axis</text>
<text text-anchor="start" x="1289.7307" y="-1290.3" font-family="Arial" font-size="14.00" fill="#000000">    </text>
<text text-anchor="start" x="1323.9355" y="-1290.3" font-family="Arial" font-size="14.00" fill="#666666">[BASE TABLE]</text>
<polygon fill="none" stroke="#000000" points="1109,-1247.5 1109,-1277.5 1424,-1277.5 1424,-1247.5 1109,-1247.5"/>
<text text-anchor="start" x="1116" y="-1258.9" font-family="Arial" font-size="14.00" fill="#000000">code    </text>
<text text-anchor="start" x="1180.5526" y="-1258.9" font-family="Arial" font-size="14.00" fill="#666666">[text]</text>
<polygon fill="none" stroke="#000000" points="1109,-1217.5 1109,-1247.5 1424,-1247.5 1424,-1217.5 1109,-1217.5"/>
<text text-anchor="start" x="1116" y="-1228.9" font-family="Arial" font-size="14.00" fill="#000000">name    </text>
<text text-anchor="start" x="1185.2132" y="-1228.9" font-family="Arial" font-size="14.00" fill="#666666">[text]</text>
<polygon fill="none" stroke="#000000" points="1109,-1187.5 1109,-1217.5 1424,-1217.5 1424,-1187.5 1109,-1187.5"/>
<text text-anchor="start" x="1116" y="-1198.9" font-family="Arial" font-size="14.00" fill="#000000">sorter    </text>
<text text-anchor="start" x="1185.9818" y="-1198.9" font-family="Arial" font-size="14.00" fill="#666666">[text]</text>
<polygon fill="none" stroke="#000000" points="1109,-1157.5 1109,-1187.5 1424,-1187.5 1424,-1157.5 1109,-1157.5"/>
<text text-anchor="start" x="1116" y="-1168.9" font-family="Arial" font-size="14.00" fill="#000000">description    </text>
<text text-anchor="start" x="1217.8822" y="-1168.9" font-family="Arial" font-size="14.00" fill="#666666">[text]</text>
</g>
<!-- authority.browse_axis&#45;&gt;config.record_attr_definition -->
<g id="edge3" class="edge">
<title>authority.browse_axis:sorter&#45;&gt;config.record_attr_definition:name</title>
<path fill="none" stroke="#000000" d="M1434.39,-1201.7936C1504.1689,-1191.4223 1414.6739,-1069.4606 1475,-1010 1561.6161,-924.6265 1884.3818,-877.5 2006,-877.5"/>
<polygon fill="#000000" stroke="#000000" points="1433.977,-1201.8216 1423.6947,-1198.0104 1428.9885,-1202.1608 1424,-1202.5 1424,-1202.5 1424,-1202.5 1428.9885,-1202.1608 1424.3053,-1206.9896 1433.977,-1201.8216 1433.977,-1201.8216"/>
<text text-anchor="start" x="686.425" y="-1212.5" font-family="Arial" font-size="10.00" fill="#000000">FOREIGN KEY (sorter) REFERENCES config.record_attr_definition(name) ON UPDATE CASCADE ON DELETE CASCADE DEFERRABLE INITIALLY DEFERRED</text>
</g>
<!-- config.coded_value_map -->
<g id="node5" class="node">
<title>config.coded_value_map</title>
<polygon fill="#efefef" stroke="transparent" points="1528,-1352.5 1528,-1387.5 1869,-1387.5 1869,-1352.5 1528,-1352.5"/>
<polygon fill="none" stroke="#000000" points="1528,-1352.5 1528,-1387.5 1869,-1387.5 1869,-1352.5 1528,-1352.5"/>
<text text-anchor="start" x="1534.6801" y="-1365.3" font-family="Arial Bold" font-size="18.00" fill="#000000">config.coded_value_map</text>
<text text-anchor="start" x="1734.7519" y="-1365.3" font-family="Arial" font-size="14.00" fill="#000000">    </text>
<text text-anchor="start" x="1768.9567" y="-1365.3" font-family="Arial" font-size="14.00" fill="#666666">[BASE TABLE]</text>
<polygon fill="none" stroke="#000000" points="1528,-1322.5 1528,-1352.5 1869,-1352.5 1869,-1322.5 1528,-1322.5"/>
<text text-anchor="start" x="1535" y="-1333.9" font-family="Arial" font-size="14.00" fill="#000000">id    </text>
<text text-anchor="start" x="1580.094" y="-1333.9" font-family="Arial" font-size="14.00" fill="#666666">[integer]</text>
<polygon fill="none" stroke="#000000" points="1528,-1292.5 1528,-1322.5 1869,-1322.5 1869,-1292.5 1528,-1292.5"/>
<text text-anchor="start" x="1535" y="-1303.9" font-family="Arial" font-size="14.00" fill="#000000">ctype    </text>
<text text-anchor="start" x="1602.6606" y="-1303.9" font-family="Arial" font-size="14.00" fill="#666666">[text]</text>
<polygon fill="none" stroke="#000000" points="1528,-1262.5 1528,-1292.5 1869,-1292.5 1869,-1262.5 1528,-1262.5"/>
<text text-anchor="start" x="1535" y="-1273.9" font-family="Arial" font-size="14.00" fill="#000000">code    </text>
<text text-anchor="start" x="1599.5526" y="-1273.9" font-family="Arial" font-size="14.00" fill="#666666">[text]</text>
<polygon fill="none" stroke="#000000" points="1528,-1232.5 1528,-1262.5 1869,-1262.5 1869,-1232.5 1528,-1232.5"/>
<text text-anchor="start" x="1535" y="-1243.9" font-family="Arial" font-size="14.00" fill="#000000">value    </text>
<text text-anchor="start" x="1602.6592" y="-1243.9" font-family="Arial" font-size="14.00" fill="#666666">[text]</text>
<polygon fill="none" stroke="#000000" points="1528,-1202.5 1528,-1232.5 1869,-1232.5 1869,-1202.5 1528,-1202.5"/>
<text text-anchor="start" x="1535" y="-1213.9" font-family="Arial" font-size="14.00" fill="#000000">description    </text>
<text text-anchor="start" x="1636.8822" y="-1213.9" font-family="Arial" font-size="14.00" fill="#666666">[text]</text>
<polygon fill="none" stroke="#000000" points="1528,-1172.5 1528,-1202.5 1869,-1202.5 1869,-1172.5 1528,-1172.5"/>
<text text-anchor="start" x="1535" y="-1183.9" font-family="Arial" font-size="14.00" fill="#000000">opac_visible    </text>
<text text-anchor="start" x="1646.2202" y="-1183.9" font-family="Arial" font-size="14.00" fill="#666666">[boolean]</text>
<polygon fill="none" stroke="#000000" points="1528,-1142.5 1528,-1172.5 1869,-1172.5 1869,-1142.5 1528,-1142.5"/>
<text text-anchor="start" x="1535" y="-1153.9" font-family="Arial" font-size="14.00" fill="#000000">search_label    </text>
<text text-anchor="start" x="1648.5568" y="-1153.9" font-family="Arial" font-size="14.00" fill="#666666">[text]</text>
<polygon fill="none" stroke="#000000" points="1528,-1112.5 1528,-1142.5 1869,-1142.5 1869,-1112.5 1528,-1112.5"/>
<text text-anchor="start" x="1535" y="-1123.9" font-family="Arial" font-size="14.00" fill="#000000">is_simple    </text>
<text text-anchor="start" x="1627.533" y="-1123.9" font-family="Arial" font-size="14.00" fill="#666666">[boolean]</text>
<polygon fill="none" stroke="#000000" points="1528,-1082.5 1528,-1112.5 1869,-1112.5 1869,-1082.5 1528,-1082.5"/>
<text text-anchor="start" x="1535" y="-1093.9" font-family="Arial" font-size="14.00" fill="#000000">concept_uri    </text>
<text text-anchor="start" x="1641.5582" y="-1093.9" font-family="Arial" font-size="14.00" fill="#666666">[text]</text>
</g>
<!-- config.coded_value_map&#45;&gt;config.record_attr_definition -->
<g id="edge4" class="edge">
<title>config.coded_value_map:ctype&#45;&gt;config.record_attr_definition:name</title>
<path fill="none" stroke="#000000" d="M1879.0822,-1305.4584C1931.9852,-1282.3159 1897.9567,-1069.1104 1921,-1010 1946.412,-944.8134 1936.0353,-877.5 2006,-877.5"/>
<polygon fill="#000000" stroke="#000000" points="1878.8011,-1305.5153 1868.1069,-1303.0895 1873.9005,-1306.5076 1869,-1307.5 1869,-1307.5 1869,-1307.5 1873.9005,-1306.5076 1869.8931,-1311.9105 1878.8011,-1305.5153 1878.8011,-1305.5153"/>
<text text-anchor="start" x="1245.365" y="-1317.5" font-family="Arial" font-size="10.00" fill="#000000">FOREIGN KEY (ctype) REFERENCES config.record_attr_definition(name) ON DELETE CASCADE DEFERRABLE INITIALLY DEFERRED</text>
</g>
<!-- config.record_attr_index_norm_map -->
<g id="node6" class="node">
<title>config.record_attr_index_norm_map</title>
<polygon fill="#efefef" stroke="transparent" points="1973,-1292.5 1973,-1327.5 2403,-1327.5 2403,-1292.5 1973,-1292.5"/>
<polygon fill="none" stroke="#000000" points="1973,-1292.5 1973,-1327.5 2403,-1327.5 2403,-1292.5 1973,-1292.5"/>
<text text-anchor="start" x="1979.685" y="-1305.3" font-family="Arial Bold" font-size="18.00" fill="#000000">config.record_attr_index_norm_map</text>
<text text-anchor="start" x="2268.747" y="-1305.3" font-family="Arial" font-size="14.00" fill="#000000">    </text>
<text text-anchor="start" x="2302.9518" y="-1305.3" font-family="Arial" font-size="14.00" fill="#666666">[BASE TABLE]</text>
<polygon fill="none" stroke="#000000" points="1973,-1262.5 1973,-1292.5 2403,-1292.5 2403,-1262.5 1973,-1262.5"/>
<text text-anchor="start" x="1980" y="-1273.9" font-family="Arial" font-size="14.00" fill="#000000">id    </text>
<text text-anchor="start" x="2025.094" y="-1273.9" font-family="Arial" font-size="14.00" fill="#666666">[integer]</text>
<polygon fill="none" stroke="#000000" points="1973,-1232.5 1973,-1262.5 2403,-1262.5 2403,-1232.5 1973,-1232.5"/>
<text text-anchor="start" x="1980" y="-1243.9" font-family="Arial" font-size="14.00" fill="#000000">attr    </text>
<text text-anchor="start" x="2034.4292" y="-1243.9" font-family="Arial" font-size="14.00" fill="#666666">[text]</text>
<polygon fill="none" stroke="#000000" points="1973,-1202.5 1973,-1232.5 2403,-1232.5 2403,-1202.5 1973,-1202.5"/>
<text text-anchor="start" x="1980" y="-1213.9" font-family="Arial" font-size="14.00" fill="#000000">norm    </text>
<text text-anchor="start" x="2046.0912" y="-1213.9" font-family="Arial" font-size="14.00" fill="#666666">[integer]</text>
<polygon fill="none" stroke="#000000" points="1973,-1172.5 1973,-1202.5 2403,-1202.5 2403,-1172.5 1973,-1172.5"/>
<text text-anchor="start" x="1980" y="-1183.9" font-family="Arial" font-size="14.00" fill="#000000">params    </text>
<text text-anchor="start" x="2060.8738" y="-1183.9" font-family="Arial" font-size="14.00" fill="#666666">[text]</text>
<polygon fill="none" stroke="#000000" points="1973,-1142.5 1973,-1172.5 2403,-1172.5 2403,-1142.5 1973,-1142.5"/>
<text text-anchor="start" x="1980" y="-1153.9" font-family="Arial" font-size="14.00" fill="#000000">pos    </text>
<text text-anchor="start" x="2036.77" y="-1153.9" font-family="Arial" font-size="14.00" fill="#666666">[integer]</text>
</g>
<!-- config.record_attr_index_norm_map&#45;&gt;config.record_attr_definition -->
<g id="edge5" class="edge">
<title>config.record_attr_index_norm_map:attr&#45;&gt;config.record_attr_definition:name</title>
<path fill="none" stroke="#000000" d="M1962.7355,-1246.6145C1910.5253,-1236.9193 1936.4973,-1149.9204 1973,-1100 2082.0163,-950.9113 2259.9837,-1123.0887 2369,-974 2394.3153,-939.3793 2411.8889,-877.5 2369,-877.5"/>
<polygon fill="#000000" stroke="#000000" points="1963.037,-1246.6404 1972.6132,-1251.9833 1968.0185,-1247.0702 1973,-1247.5 1973,-1247.5 1973,-1247.5 1968.0185,-1247.0702 1973.3868,-1243.0167 1963.037,-1246.6404 1963.037,-1246.6404"/>
<text text-anchor="start" x="1669.5905" y="-1231.5" font-family="Arial" font-size="10.00" fill="#000000">FOREIGN KEY (attr) REFERENCES config.record_attr_definition(name) ON DELETE CASCADE DEFERRABLE INITIALLY DEFERRED</text>
</g>
<!-- config.z3950_index_field_map -->
<g id="node7" class="node">
<title>config.z3950_index_field_map</title>
<polygon fill="#efefef" stroke="transparent" points="2507,-1307.5 2507,-1342.5 2891,-1342.5 2891,-1307.5 2507,-1307.5"/>
<polygon fill="none" stroke="#000000" points="2507,-1307.5 2507,-1342.5 2891,-1342.5 2891,-1307.5 2507,-1307.5"/>
<text text-anchor="start" x="2513.6755" y="-1320.3" font-family="Arial Bold" font-size="18.00" fill="#000000">config.z3950_index_field_map</text>
<text text-anchor="start" x="2756.7565" y="-1320.3" font-family="Arial" font-size="14.00" fill="#000000">    </text>
<text text-anchor="start" x="2790.9613" y="-1320.3" font-family="Arial" font-size="14.00" fill="#666666">[BASE TABLE]</text>
<polygon fill="none" stroke="#000000" points="2507,-1277.5 2507,-1307.5 2891,-1307.5 2891,-1277.5 2507,-1277.5"/>
<text text-anchor="start" x="2514" y="-1288.9" font-family="Arial" font-size="14.00" fill="#000000">id    </text>
<text text-anchor="start" x="2559.094" y="-1288.9" font-family="Arial" font-size="14.00" fill="#666666">[integer]</text>
<polygon fill="none" stroke="#000000" points="2507,-1247.5 2507,-1277.5 2891,-1277.5 2891,-1247.5 2507,-1247.5"/>
<text text-anchor="start" x="2514" y="-1258.9" font-family="Arial" font-size="14.00" fill="#000000">label    </text>
<text text-anchor="start" x="2577.7658" y="-1258.9" font-family="Arial" font-size="14.00" fill="#666666">[text]</text>
<polygon fill="none" stroke="#000000" points="2507,-1217.5 2507,-1247.5 2891,-1247.5 2891,-1217.5 2507,-1217.5"/>
<text text-anchor="start" x="2514" y="-1228.9" font-family="Arial" font-size="14.00" fill="#000000">metabib_field    </text>
<text text-anchor="start" x="2631.4446" y="-1228.9" font-family="Arial" font-size="14.00" fill="#666666">[integer]</text>
<polygon fill="none" stroke="#000000" points="2507,-1187.5 2507,-1217.5 2891,-1217.5 2891,-1187.5 2507,-1187.5"/>
<text text-anchor="start" x="2514" y="-1198.9" font-family="Arial" font-size="14.00" fill="#000000">record_attr    </text>
<text text-anchor="start" x="2615.8808" y="-1198.9" font-family="Arial" font-size="14.00" fill="#666666">[text]</text>
<polygon fill="none" stroke="#000000" points="2507,-1157.5 2507,-1187.5 2891,-1187.5 2891,-1157.5 2507,-1157.5"/>
<text text-anchor="start" x="2514" y="-1168.9" font-family="Arial" font-size="14.00" fill="#000000">z3950_attr    </text>
<text text-anchor="start" x="2614.3422" y="-1168.9" font-family="Arial" font-size="14.00" fill="#666666">[integer]</text>
<polygon fill="none" stroke="#000000" points="2507,-1127.5 2507,-1157.5 2891,-1157.5 2891,-1127.5 2507,-1127.5"/>
<text text-anchor="start" x="2514" y="-1138.9" font-family="Arial" font-size="14.00" fill="#000000">z3950_attr_type    </text>
<text text-anchor="start" x="2648.5806" y="-1138.9" font-family="Arial" font-size="14.00" fill="#666666">[text]</text>
</g>
<!-- config.z3950_index_field_map&#45;&gt;config.record_attr_definition -->
<g id="edge6" class="edge">
<title>config.z3950_index_field_map:record_attr&#45;&gt;config.record_attr_definition:name</title>
<path fill="none" stroke="#000000" d="M2496.8911,-1201.9467C2424.1617,-1193.3992 2489.6368,-1087.6088 2455,-1010 2426.3875,-945.8894 2439.2057,-877.5 2369,-877.5"/>
<polygon fill="#000000" stroke="#000000" points="2497.0149,-1201.9534 2506.754,-1206.9933 2502.0075,-1202.2267 2507,-1202.5 2507,-1202.5 2507,-1202.5 2502.0075,-1202.2267 2507.246,-1198.0067 2497.0149,-1201.9534 2497.0149,-1201.9534"/>
<text text-anchor="start" x="2514.4845" y="-1212.5" font-family="Arial" font-size="10.00" fill="#000000">FOREIGN KEY (record_attr) REFERENCES config.record_attr_definition(name)</text>
</g>
<!-- metabib.uncontrolled_record_attr_value -->
<g id="node8" class="node">
<title>metabib.uncontrolled_record_attr_value</title>
<polygon fill="#efefef" stroke="transparent" points="2995,-1262.5 2995,-1297.5 3453,-1297.5 3453,-1262.5 2995,-1262.5"/>
<polygon fill="none" stroke="#000000" points="2995,-1262.5 2995,-1297.5 3453,-1297.5 3453,-1262.5 2995,-1262.5"/>
<text text-anchor="start" x="3001.6765" y="-1275.3" font-family="Arial Bold" font-size="18.00" fill="#000000">metabib.uncontrolled_record_attr_value</text>
<text text-anchor="start" x="3318.7555" y="-1275.3" font-family="Arial" font-size="14.00" fill="#000000">    </text>
<text text-anchor="start" x="3352.9603" y="-1275.3" font-family="Arial" font-size="14.00" fill="#666666">[BASE TABLE]</text>
<polygon fill="none" stroke="#000000" points="2995,-1232.5 2995,-1262.5 3453,-1262.5 3453,-1232.5 2995,-1232.5"/>
<text text-anchor="start" x="3002" y="-1243.9" font-family="Arial" font-size="14.00" fill="#000000">id    </text>
<text text-anchor="start" x="3047.094" y="-1243.9" font-family="Arial" font-size="14.00" fill="#666666">[bigint]</text>
<polygon fill="none" stroke="#000000" points="2995,-1202.5 2995,-1232.5 3453,-1232.5 3453,-1202.5 2995,-1202.5"/>
<text text-anchor="start" x="3002" y="-1213.9" font-family="Arial" font-size="14.00" fill="#000000">attr    </text>
<text text-anchor="start" x="3056.4292" y="-1213.9" font-family="Arial" font-size="14.00" fill="#666666">[text]</text>
<polygon fill="none" stroke="#000000" points="2995,-1172.5 2995,-1202.5 3453,-1202.5 3453,-1172.5 2995,-1172.5"/>
<text text-anchor="start" x="3002" y="-1183.9" font-family="Arial" font-size="14.00" fill="#000000">value    </text>
<text text-anchor="start" x="3069.6592" y="-1183.9" font-family="Arial" font-size="14.00" fill="#666666">[text]</text>
</g>
<!-- metabib.uncontrolled_record_attr_value&#45;&gt;config.record_attr_definition -->
<g id="edge7" class="edge">
<title>metabib.uncontrolled_record_attr_value:attr&#45;&gt;config.record_attr_definition:name</title>
<path fill="none" stroke="#000000" d="M2984.7786,-1216.8678C2908.3194,-1206.6053 3008.202,-1073.9951 2943,-1010 2849.5721,-918.3015 2499.9099,-877.5 2369,-877.5"/>
<polygon fill="#000000" stroke="#000000" points="2985.0191,-1216.8826 2994.7222,-1221.9914 2990.0095,-1217.1913 2995,-1217.5 2995,-1217.5 2995,-1217.5 2990.0095,-1217.1913 2995.2778,-1213.0086 2985.0191,-1216.8826 2985.0191,-1216.8826"/>
<text text-anchor="start" x="3002.4315" y="-1227.5" font-family="Arial" font-size="10.00" fill="#000000">FOREIGN KEY (attr) REFERENCES config.record_attr_definition(name)</text>
</g>
<!-- metabib.record_sorter -->
<g id="node9" class="node">
<title>metabib.record_sorter</title>
<polygon fill="#efefef" stroke="transparent" points="3558,-1277.5 3558,-1312.5 3875,-1312.5 3875,-1277.5 3558,-1277.5"/>
<polygon fill="none" stroke="#000000" points="3558,-1277.5 3558,-1312.5 3875,-1312.5 3875,-1277.5 3558,-1277.5"/>
<text text-anchor="start" x="3564.7041" y="-1290.3" font-family="Arial Bold" font-size="18.00" fill="#000000">metabib.record_sorter</text>
<text text-anchor="start" x="3740.7279" y="-1290.3" font-family="Arial" font-size="14.00" fill="#000000">    </text>
<text text-anchor="start" x="3774.9327" y="-1290.3" font-family="Arial" font-size="14.00" fill="#666666">[BASE TABLE]</text>
<polygon fill="none" stroke="#000000" points="3558,-1247.5 3558,-1277.5 3875,-1277.5 3875,-1247.5 3558,-1247.5"/>
<text text-anchor="start" x="3565" y="-1258.9" font-family="Arial" font-size="14.00" fill="#000000">id    </text>
<text text-anchor="start" x="3610.094" y="-1258.9" font-family="Arial" font-size="14.00" fill="#666666">[bigint]</text>
<polygon fill="none" stroke="#000000" points="3558,-1217.5 3558,-1247.5 3875,-1247.5 3875,-1217.5 3558,-1217.5"/>
<text text-anchor="start" x="3565" y="-1228.9" font-family="Arial" font-size="14.00" fill="#000000">source    </text>
<text text-anchor="start" x="3641.2132" y="-1228.9" font-family="Arial" font-size="14.00" fill="#666666">[bigint]</text>
<polygon fill="none" stroke="#000000" points="3558,-1187.5 3558,-1217.5 3875,-1217.5 3875,-1187.5 3558,-1187.5"/>
<text text-anchor="start" x="3565" y="-1198.9" font-family="Arial" font-size="14.00" fill="#000000">attr    </text>
<text text-anchor="start" x="3619.4292" y="-1198.9" font-family="Arial" font-size="14.00" fill="#666666">[text]</text>
<polygon fill="none" stroke="#000000" points="3558,-1157.5 3558,-1187.5 3875,-1187.5 3875,-1157.5 3558,-1157.5"/>
<text text-anchor="start" x="3565" y="-1168.9" font-family="Arial" font-size="14.00" fill="#000000">value    </text>
<text text-anchor="start" x="3632.6592" y="-1168.9" font-family="Arial" font-size="14.00" fill="#666666">[text]</text>
</g>
<!-- metabib.record_sorter&#45;&gt;config.record_attr_definition -->
<g id="edge8" class="edge">
<title>metabib.record_sorter:attr&#45;&gt;config.record_attr_definition:name</title>
<path fill="none" stroke="#000000" d="M3547.5948,-1201.7706C3477.8053,-1191.0649 3569.4533,-1065.301 3505,-1010 3408.5561,-927.2511 2496.0779,-877.5 2369,-877.5"/>
<polygon fill="#000000" stroke="#000000" points="3548.0245,-1201.8006 3557.6853,-1206.989 3553.0122,-1202.1503 3558,-1202.5 3558,-1202.5 3558,-1202.5 3553.0122,-1202.1503 3558.3147,-1198.011 3548.0245,-1201.8006 3548.0245,-1201.8006"/>
<text text-anchor="start" x="3565.1505" y="-1212.5" font-family="Arial" font-size="10.00" fill="#000000">FOREIGN KEY (attr) REFERENCES config.record_attr_definition(name) ON DELETE CASCADE</text>
</g>
<!-- vandelay.match_set_quality -->
<g id="node10" class="node">
<title>vandelay.match_set_quality</title>
<polygon fill="#efefef" stroke="transparent" points="3979,-1322.5 3979,-1357.5 4342,-1357.5 4342,-1322.5 3979,-1322.5"/>
<polygon fill="none" stroke="#000000" points="3979,-1322.5 3979,-1357.5 4342,-1357.5 4342,-1322.5 3979,-1322.5"/>
<text text-anchor="start" x="3985.6839" y="-1335.3" font-family="Arial Bold" font-size="18.00" fill="#000000">vandelay.match_set_quality</text>
<text text-anchor="start" x="4207.7481" y="-1335.3" font-family="Arial" font-size="14.00" fill="#000000">    </text>
<text text-anchor="start" x="4241.9529" y="-1335.3" font-family="Arial" font-size="14.00" fill="#666666">[BASE TABLE]</text>
<polygon fill="none" stroke="#000000" points="3979,-1292.5 3979,-1322.5 4342,-1322.5 4342,-1292.5 3979,-1292.5"/>
<text text-anchor="start" x="3986" y="-1303.9" font-family="Arial" font-size="14.00" fill="#000000">id    </text>
<text text-anchor="start" x="4031.094" y="-1303.9" font-family="Arial" font-size="14.00" fill="#666666">[integer]</text>
<polygon fill="none" stroke="#000000" points="3979,-1262.5 3979,-1292.5 4342,-1292.5 4342,-1262.5 3979,-1262.5"/>
<text text-anchor="start" x="3986" y="-1273.9" font-family="Arial" font-size="14.00" fill="#000000">match_set    </text>
<text text-anchor="start" x="4084.777" y="-1273.9" font-family="Arial" font-size="14.00" fill="#666666">[integer]</text>
<polygon fill="none" stroke="#000000" points="3979,-1232.5 3979,-1262.5 4342,-1262.5 4342,-1232.5 3979,-1232.5"/>
<text text-anchor="start" x="3986" y="-1243.9" font-family="Arial" font-size="14.00" fill="#000000">svf    </text>
<text text-anchor="start" x="4038.0954" y="-1243.9" font-family="Arial" font-size="14.00" fill="#666666">[text]</text>
<polygon fill="none" stroke="#000000" points="3979,-1202.5 3979,-1232.5 4342,-1232.5 4342,-1202.5 3979,-1202.5"/>
<text text-anchor="start" x="3986" y="-1213.9" font-family="Arial" font-size="14.00" fill="#000000">tag    </text>
<text text-anchor="start" x="4039.6606" y="-1213.9" font-family="Arial" font-size="14.00" fill="#666666">[text]</text>
<polygon fill="none" stroke="#000000" points="3979,-1172.5 3979,-1202.5 4342,-1202.5 4342,-1172.5 3979,-1172.5"/>
<text text-anchor="start" x="3986" y="-1183.9" font-family="Arial" font-size="14.00" fill="#000000">subfield    </text>
<text text-anchor="start" x="4068.439" y="-1183.9" font-family="Arial" font-size="14.00" fill="#666666">[text]</text>
<polygon fill="none" stroke="#000000" points="3979,-1142.5 3979,-1172.5 4342,-1172.5 4342,-1142.5 3979,-1142.5"/>
<text text-anchor="start" x="3986" y="-1153.9" font-family="Arial" font-size="14.00" fill="#000000">value    </text>
<text text-anchor="start" x="4053.6592" y="-1153.9" font-family="Arial" font-size="14.00" fill="#666666">[text]</text>
<polygon fill="none" stroke="#000000" points="3979,-1112.5 3979,-1142.5 4342,-1142.5 4342,-1112.5 3979,-1112.5"/>
<text text-anchor="start" x="3986" y="-1123.9" font-family="Arial" font-size="14.00" fill="#000000">quality    </text>
<text text-anchor="start" x="4060.6564" y="-1123.9" font-family="Arial" font-size="14.00" fill="#666666">[integer]</text>
</g>
<!-- vandelay.match_set_quality&#45;&gt;config.record_attr_definition -->
<g id="edge9" class="edge">
<title>vandelay.match_set_quality:svf&#45;&gt;config.record_attr_definition:name</title>
<path fill="none" stroke="#000000" d="M3968.7614,-1246.9278C3880.0738,-1236.2465 4005.4573,-1078.8187 3927,-1010 3796.3895,-895.4352 2542.736,-877.5 2369,-877.5"/>
<polygon fill="#000000" stroke="#000000" points="3969.0156,-1246.9419 3978.7489,-1251.993 3974.0078,-1247.2209 3979,-1247.5 3979,-1247.5 3979,-1247.5 3974.0078,-1247.2209 3979.2511,-1243.007 3969.0156,-1246.9419 3969.0156,-1246.9419"/>
<text text-anchor="start" x="3653.265" y="-1257.5" font-family="Arial" font-size="10.00" fill="#000000">FOREIGN KEY (svf) REFERENCES config.record_attr_definition(name)</text>
</g>
</g>
</svg>
