<?xml version="1.0" encoding="UTF-8" standalone="no"?>
<!DOCTYPE svg PUBLIC "-//W3C//DTD SVG 1.1//EN"
 "http://www.w3.org/Graphics/SVG/1.1/DTD/svg11.dtd">
<!-- Generated by graphviz version 2.40.1 (20161225.0304)
 -->
<!-- Title: config.floating_group_member Pages: 1 -->
<svg width="1005pt" height="862pt"
 viewBox="0.00 0.00 1005.00 862.00" xmlns="http://www.w3.org/2000/svg" xmlns:xlink="http://www.w3.org/1999/xlink">
<g id="graph0" class="graph" transform="scale(1 1) rotate(0) translate(4 858)">
<title>config.floating_group_member</title>
<polygon fill="#ffffff" stroke="transparent" points="-4,4 -4,-858 1001,-858 1001,4 -4,4"/>
<!-- config.floating_group_member -->
<g id="node1" class="node">
<title>config.floating_group_member</title>
<polygon fill="#efefef" stroke="transparent" points="336,-772.5 336,-807.5 720,-807.5 720,-772.5 336,-772.5"/>
<polygon fill="none" stroke="#000000" points="336,-772.5 336,-807.5 720,-807.5 720,-772.5 336,-772.5"/>
<text text-anchor="start" x="342.6863" y="-785.3" font-family="Arial Bold" font-size="18.00" fill="#000000">config.floating_group_member</text>
<text text-anchor="start" x="585.7457" y="-785.3" font-family="Arial" font-size="14.00" fill="#000000">    </text>
<text text-anchor="start" x="619.9505" y="-785.3" font-family="Arial" font-size="14.00" fill="#666666">[BASE TABLE]</text>
<polygon fill="none" stroke="#000000" points="336,-742.5 336,-772.5 720,-772.5 720,-742.5 336,-742.5"/>
<text text-anchor="start" x="343" y="-753.9" font-family="Arial" font-size="14.00" fill="#000000">id </text>
<text text-anchor="start" x="357.7798" y="-753.9" font-family="Arial" font-size="14.00" fill="#666666">[integer]</text>
<polygon fill="none" stroke="#000000" points="336,-712.5 336,-742.5 720,-742.5 720,-712.5 336,-712.5"/>
<text text-anchor="start" x="343" y="-723.9" font-family="Arial" font-size="14.00" fill="#000000">floating_group </text>
<text text-anchor="start" x="435.589" y="-723.9" font-family="Arial" font-size="14.00" fill="#666666">[integer]</text>
<polygon fill="none" stroke="#000000" points="336,-682.5 336,-712.5 720,-712.5 720,-682.5 336,-682.5"/>
<text text-anchor="start" x="343" y="-693.9" font-family="Arial" font-size="14.00" fill="#000000">org_unit </text>
<text text-anchor="start" x="397.4614" y="-693.9" font-family="Arial" font-size="14.00" fill="#666666">[integer]</text>
<polygon fill="none" stroke="#000000" points="336,-652.5 336,-682.5 720,-682.5 720,-652.5 336,-652.5"/>
<text text-anchor="start" x="343" y="-663.9" font-family="Arial" font-size="14.00" fill="#000000">stop_depth </text>
<text text-anchor="start" x="416.15" y="-663.9" font-family="Arial" font-size="14.00" fill="#666666">[integer]</text>
<polygon fill="none" stroke="#000000" points="336,-622.5 336,-652.5 720,-652.5 720,-622.5 336,-622.5"/>
<text text-anchor="start" x="343" y="-633.9" font-family="Arial" font-size="14.00" fill="#000000">max_depth </text>
<text text-anchor="start" x="416.1374" y="-633.9" font-family="Arial" font-size="14.00" fill="#666666">[integer]</text>
<polygon fill="none" stroke="#000000" points="336,-592.5 336,-622.5 720,-622.5 720,-592.5 336,-592.5"/>
<text text-anchor="start" x="343" y="-603.9" font-family="Arial" font-size="14.00" fill="#000000">exclude </text>
<text text-anchor="start" x="395.1276" y="-603.9" font-family="Arial" font-size="14.00" fill="#666666">[boolean]</text>
<polygon fill="none" stroke="#000000" stroke-width="3" points="334.5,-591.5 334.5,-809.5 721.5,-809.5 721.5,-591.5 334.5,-591.5"/>
</g>
<!-- config.floating_group -->
<g id="node2" class="node">
<title>config.floating_group</title>
<polygon fill="#efefef" stroke="transparent" points="182,-282.5 182,-317.5 490,-317.5 490,-282.5 182,-282.5"/>
<polygon fill="none" stroke="#000000" points="182,-282.5 182,-317.5 490,-317.5 490,-282.5 182,-282.5"/>
<text text-anchor="start" x="188.687" y="-295.3" font-family="Arial Bold" font-size="18.00" fill="#000000">config.floating_group</text>
<text text-anchor="start" x="355.745" y="-295.3" font-family="Arial" font-size="14.00" fill="#000000">    </text>
<text text-anchor="start" x="389.9498" y="-295.3" font-family="Arial" font-size="14.00" fill="#666666">[BASE TABLE]</text>
<polygon fill="none" stroke="#000000" points="182,-252.5 182,-282.5 490,-282.5 490,-252.5 182,-252.5"/>
<text text-anchor="start" x="189" y="-263.9" font-family="Arial" font-size="14.00" fill="#000000">id    </text>
<text text-anchor="start" x="234.094" y="-263.9" font-family="Arial" font-size="14.00" fill="#666666">[integer]</text>
<polygon fill="none" stroke="#000000" points="182,-222.5 182,-252.5 490,-252.5 490,-222.5 182,-222.5"/>
<text text-anchor="start" x="189" y="-233.9" font-family="Arial" font-size="14.00" fill="#000000">name    </text>
<text text-anchor="start" x="258.2132" y="-233.9" font-family="Arial" font-size="14.00" fill="#666666">[text]</text>
<polygon fill="none" stroke="#000000" points="182,-192.5 182,-222.5 490,-222.5 490,-192.5 182,-192.5"/>
<text text-anchor="start" x="189" y="-203.9" font-family="Arial" font-size="14.00" fill="#000000">manual    </text>
<text text-anchor="start" x="269.1024" y="-203.9" font-family="Arial" font-size="14.00" fill="#666666">[boolean]</text>
</g>
<!-- config.floating_group_member&#45;&gt;config.floating_group -->
<g id="edge1" class="edge">
<title>config.floating_group_member:floating_group&#45;&gt;config.floating_group:id</title>
<path fill="none" stroke="#000000" d="M325.9811,-726.8764C260.4903,-718.1237 310.0318,-619.0836 336,-547 372.3752,-446.0284 453.6248,-461.9716 490,-361 504.0844,-321.904 531.5556,-267.5 490,-267.5"/>
<polygon fill="#000000" stroke="#000000" points="326.0193,-726.8787 335.7204,-731.9913 331.0097,-727.1893 336,-727.5 336,-727.5 336,-727.5 331.0097,-727.1893 336.2796,-723.0087 326.0193,-726.8787 326.0193,-726.8787"/>
<text text-anchor="start" x="6.867" y="-737.5" font-family="Arial" font-size="10.00" fill="#000000">FOREIGN KEY (floating_group) REFERENCES config.floating_group(id)</text>
</g>
<!-- actor.org_unit -->
<g id="node3" class="node">
<title>actor.org_unit</title>
<polygon fill="#efefef" stroke="transparent" points="595,-432.5 595,-467.5 846,-467.5 846,-432.5 595,-432.5"/>
<polygon fill="none" stroke="#000000" points="595,-432.5 595,-467.5 846,-467.5 846,-432.5 595,-432.5"/>
<text text-anchor="start" x="601.7017" y="-445.3" font-family="Arial Bold" font-size="18.00" fill="#000000">actor.org_unit</text>
<text text-anchor="start" x="711.7303" y="-445.3" font-family="Arial" font-size="14.00" fill="#000000">    </text>
<text text-anchor="start" x="745.9351" y="-445.3" font-family="Arial" font-size="14.00" fill="#666666">[BASE TABLE]</text>
<polygon fill="none" stroke="#000000" points="595,-402.5 595,-432.5 846,-432.5 846,-402.5 595,-402.5"/>
<text text-anchor="start" x="602" y="-413.9" font-family="Arial" font-size="14.00" fill="#000000">id    </text>
<text text-anchor="start" x="647.094" y="-413.9" font-family="Arial" font-size="14.00" fill="#666666">[integer]</text>
<polygon fill="none" stroke="#000000" points="595,-372.5 595,-402.5 846,-402.5 846,-372.5 595,-372.5"/>
<text text-anchor="start" x="602" y="-383.9" font-family="Arial" font-size="14.00" fill="#000000">parent_ou    </text>
<text text-anchor="start" x="699.2342" y="-383.9" font-family="Arial" font-size="14.00" fill="#666666">[integer]</text>
<polygon fill="none" stroke="#000000" points="595,-342.5 595,-372.5 846,-372.5 846,-342.5 595,-342.5"/>
<text text-anchor="start" x="602" y="-353.9" font-family="Arial" font-size="14.00" fill="#000000">ou_type    </text>
<text text-anchor="start" x="686.0084" y="-353.9" font-family="Arial" font-size="14.00" fill="#666666">[integer]</text>
<polygon fill="none" stroke="#000000" points="595,-312.5 595,-342.5 846,-342.5 846,-312.5 595,-312.5"/>
<text text-anchor="start" x="602" y="-323.9" font-family="Arial" font-size="14.00" fill="#000000">ill_address    </text>
<text text-anchor="start" x="703.0982" y="-323.9" font-family="Arial" font-size="14.00" fill="#666666">[integer]</text>
<polygon fill="none" stroke="#000000" points="595,-282.5 595,-312.5 846,-312.5 846,-282.5 595,-282.5"/>
<text text-anchor="start" x="602" y="-293.9" font-family="Arial" font-size="14.00" fill="#000000">holds_address    </text>
<text text-anchor="start" x="727.2328" y="-293.9" font-family="Arial" font-size="14.00" fill="#666666">[integer]</text>
<polygon fill="none" stroke="#000000" points="595,-252.5 595,-282.5 846,-282.5 846,-252.5 595,-252.5"/>
<text text-anchor="start" x="602" y="-263.9" font-family="Arial" font-size="14.00" fill="#000000">mailing_address    </text>
<text text-anchor="start" x="738.1066" y="-263.9" font-family="Arial" font-size="14.00" fill="#666666">[integer]</text>
<polygon fill="none" stroke="#000000" points="595,-222.5 595,-252.5 846,-252.5 846,-222.5 595,-222.5"/>
<text text-anchor="start" x="602" y="-233.9" font-family="Arial" font-size="14.00" fill="#000000">billing_address    </text>
<text text-anchor="start" x="729.5526" y="-233.9" font-family="Arial" font-size="14.00" fill="#666666">[integer]</text>
<polygon fill="none" stroke="#000000" points="595,-192.5 595,-222.5 846,-222.5 846,-192.5 595,-192.5"/>
<text text-anchor="start" x="602" y="-203.9" font-family="Arial" font-size="14.00" fill="#000000">shortname    </text>
<text text-anchor="start" x="702.3296" y="-203.9" font-family="Arial" font-size="14.00" fill="#666666">[text]</text>
<polygon fill="none" stroke="#000000" points="595,-162.5 595,-192.5 846,-192.5 846,-162.5 595,-162.5"/>
<text text-anchor="start" x="602" y="-173.9" font-family="Arial" font-size="14.00" fill="#000000">name    </text>
<text text-anchor="start" x="671.2132" y="-173.9" font-family="Arial" font-size="14.00" fill="#666666">[text]</text>
<polygon fill="none" stroke="#000000" points="595,-132.5 595,-162.5 846,-162.5 846,-132.5 595,-132.5"/>
<text text-anchor="start" x="602" y="-143.9" font-family="Arial" font-size="14.00" fill="#000000">email    </text>
<text text-anchor="start" x="669.6438" y="-143.9" font-family="Arial" font-size="14.00" fill="#666666">[text]</text>
<polygon fill="none" stroke="#000000" points="595,-102.5 595,-132.5 846,-132.5 846,-102.5 595,-102.5"/>
<text text-anchor="start" x="602" y="-113.9" font-family="Arial" font-size="14.00" fill="#000000">phone    </text>
<text text-anchor="start" x="675.1178" y="-113.9" font-family="Arial" font-size="14.00" fill="#666666">[text]</text>
<polygon fill="none" stroke="#000000" points="595,-72.5 595,-102.5 846,-102.5 846,-72.5 595,-72.5"/>
<text text-anchor="start" x="602" y="-83.9" font-family="Arial" font-size="14.00" fill="#000000">opac_visible    </text>
<text text-anchor="start" x="713.2202" y="-83.9" font-family="Arial" font-size="14.00" fill="#666666">[boolean]</text>
<polygon fill="none" stroke="#000000" points="595,-42.5 595,-72.5 846,-72.5 846,-42.5 595,-42.5"/>
<text text-anchor="start" x="602" y="-53.9" font-family="Arial" font-size="14.00" fill="#000000">fiscal_calendar    </text>
<text text-anchor="start" x="729.554" y="-53.9" font-family="Arial" font-size="14.00" fill="#666666">[integer]</text>
</g>
<!-- config.floating_group_member&#45;&gt;actor.org_unit -->
<g id="edge2" class="edge">
<title>config.floating_group_member:org_unit&#45;&gt;actor.org_unit:id</title>
<path fill="none" stroke="#000000" d="M730.1477,-696.6522C783.9318,-687.0148 758.024,-597.5205 720,-547 685.2336,-500.8078 629.7664,-557.1922 595,-511 570.0105,-477.7978 553.4444,-417.5 595,-417.5"/>
<polygon fill="#000000" stroke="#000000" points="729.9653,-696.6673 719.6253,-693.0156 724.9826,-697.0837 720,-697.5 720,-697.5 720,-697.5 724.9826,-697.0837 720.3747,-701.9844 729.9653,-696.6673 729.9653,-696.6673"/>
<text text-anchor="start" x="727.3255" y="-707.5" font-family="Arial" font-size="10.00" fill="#000000">FOREIGN KEY (org_unit) REFERENCES actor.org_unit(id)</text>
</g>
</g>
</svg>
