<?xml version="1.0" encoding="UTF-8" standalone="no"?>
<!DOCTYPE svg PUBLIC "-//W3C//DTD SVG 1.1//EN"
 "http://www.w3.org/Graphics/SVG/1.1/DTD/svg11.dtd">
<!-- Generated by graphviz version 2.40.1 (20161225.0304)
 -->
<!-- Title: config.hard_due_date Pages: 1 -->
<svg width="1055pt" height="1342pt"
 viewBox="0.00 0.00 1054.50 1342.00" xmlns="http://www.w3.org/2000/svg" xmlns:xlink="http://www.w3.org/1999/xlink">
<g id="graph0" class="graph" transform="scale(1 1) rotate(0) translate(4 1338)">
<title>config.hard_due_date</title>
<polygon fill="#ffffff" stroke="transparent" points="-4,4 -4,-1338 1050.5,-1338 1050.5,4 -4,4"/>
<!-- config.hard_due_date -->
<g id="node1" class="node">
<title>config.hard_due_date</title>
<polygon fill="#efefef" stroke="transparent" points="316.5,-195.5 316.5,-230.5 631.5,-230.5 631.5,-195.5 316.5,-195.5"/>
<polygon fill="none" stroke="#000000" points="316.5,-195.5 316.5,-230.5 631.5,-230.5 631.5,-195.5 316.5,-195.5"/>
<text text-anchor="start" x="323.1761" y="-208.3" font-family="Arial Bold" font-size="18.00" fill="#000000">config.hard_due_date</text>
<text text-anchor="start" x="497.2559" y="-208.3" font-family="Arial" font-size="14.00" fill="#000000">    </text>
<text text-anchor="start" x="531.4607" y="-208.3" font-family="Arial" font-size="14.00" fill="#666666">[BASE TABLE]</text>
<polygon fill="none" stroke="#000000" points="316.5,-165.5 316.5,-195.5 631.5,-195.5 631.5,-165.5 316.5,-165.5"/>
<text text-anchor="start" x="323.5" y="-176.9" font-family="Arial" font-size="14.00" fill="#000000">id </text>
<text text-anchor="start" x="338.2798" y="-176.9" font-family="Arial" font-size="14.00" fill="#666666">[integer]</text>
<polygon fill="none" stroke="#000000" points="316.5,-135.5 316.5,-165.5 631.5,-165.5 631.5,-135.5 316.5,-135.5"/>
<text text-anchor="start" x="323.5" y="-146.9" font-family="Arial" font-size="14.00" fill="#000000">name </text>
<text text-anchor="start" x="362.399" y="-146.9" font-family="Arial" font-size="14.00" fill="#666666">[text]</text>
<polygon fill="none" stroke="#000000" points="316.5,-105.5 316.5,-135.5 631.5,-135.5 631.5,-105.5 316.5,-105.5"/>
<text text-anchor="start" x="323.5" y="-116.9" font-family="Arial" font-size="14.00" fill="#000000">ceiling_date </text>
<text text-anchor="start" x="402.0792" y="-116.9" font-family="Arial" font-size="14.00" fill="#666666">[timestamp with time zone]</text>
<polygon fill="none" stroke="#000000" points="316.5,-75.5 316.5,-105.5 631.5,-105.5 631.5,-75.5 316.5,-75.5"/>
<text text-anchor="start" x="323.5" y="-86.9" font-family="Arial" font-size="14.00" fill="#000000">forceto </text>
<text text-anchor="start" x="370.1802" y="-86.9" font-family="Arial" font-size="14.00" fill="#666666">[boolean]</text>
<polygon fill="none" stroke="#000000" points="316.5,-45.5 316.5,-75.5 631.5,-75.5 631.5,-45.5 316.5,-45.5"/>
<text text-anchor="start" x="323.5" y="-56.9" font-family="Arial" font-size="14.00" fill="#000000">owner </text>
<text text-anchor="start" x="365.5056" y="-56.9" font-family="Arial" font-size="14.00" fill="#666666">[integer]</text>
<polygon fill="none" stroke="#000000" stroke-width="3" points="314.5,-44.5 314.5,-232.5 632.5,-232.5 632.5,-44.5 314.5,-44.5"/>
</g>
<!-- config.circ_matrix_matchpoint -->
<g id="node2" class="node">
<title>config.circ_matrix_matchpoint</title>
<polygon fill="#efefef" stroke="transparent" points="43.5,-1255.5 43.5,-1290.5 422.5,-1290.5 422.5,-1255.5 43.5,-1255.5"/>
<polygon fill="none" stroke="#000000" points="43.5,-1255.5 43.5,-1290.5 422.5,-1290.5 422.5,-1255.5 43.5,-1255.5"/>
<text text-anchor="start" x="50.2036" y="-1268.3" font-family="Arial Bold" font-size="18.00" fill="#000000">config.circ_matrix_matchpoint</text>
<text text-anchor="start" x="288.2284" y="-1268.3" font-family="Arial" font-size="14.00" fill="#000000">    </text>
<text text-anchor="start" x="322.4332" y="-1268.3" font-family="Arial" font-size="14.00" fill="#666666">[BASE TABLE]</text>
<polygon fill="none" stroke="#000000" points="43.5,-1225.5 43.5,-1255.5 422.5,-1255.5 422.5,-1225.5 43.5,-1225.5"/>
<text text-anchor="start" x="50.5" y="-1236.9" font-family="Arial" font-size="14.00" fill="#000000">id    </text>
<text text-anchor="start" x="95.594" y="-1236.9" font-family="Arial" font-size="14.00" fill="#666666">[integer]</text>
<polygon fill="none" stroke="#000000" points="43.5,-1195.5 43.5,-1225.5 422.5,-1225.5 422.5,-1195.5 43.5,-1195.5"/>
<text text-anchor="start" x="50.5" y="-1206.9" font-family="Arial" font-size="14.00" fill="#000000">active    </text>
<text text-anchor="start" x="121.2672" y="-1206.9" font-family="Arial" font-size="14.00" fill="#666666">[boolean]</text>
<polygon fill="none" stroke="#000000" points="43.5,-1165.5 43.5,-1195.5 422.5,-1195.5 422.5,-1165.5 43.5,-1165.5"/>
<text text-anchor="start" x="50.5" y="-1176.9" font-family="Arial" font-size="14.00" fill="#000000">org_unit    </text>
<text text-anchor="start" x="135.2756" y="-1176.9" font-family="Arial" font-size="14.00" fill="#666666">[integer]</text>
<polygon fill="none" stroke="#000000" points="43.5,-1135.5 43.5,-1165.5 422.5,-1165.5 422.5,-1135.5 43.5,-1135.5"/>
<text text-anchor="start" x="50.5" y="-1146.9" font-family="Arial" font-size="14.00" fill="#000000">grp    </text>
<text text-anchor="start" x="104.9306" y="-1146.9" font-family="Arial" font-size="14.00" fill="#666666">[integer]</text>
<polygon fill="none" stroke="#000000" points="43.5,-1105.5 43.5,-1135.5 422.5,-1135.5 422.5,-1105.5 43.5,-1105.5"/>
<text text-anchor="start" x="50.5" y="-1116.9" font-family="Arial" font-size="14.00" fill="#000000">circ_modifier    </text>
<text text-anchor="start" x="164.0274" y="-1116.9" font-family="Arial" font-size="14.00" fill="#666666">[text]</text>
<polygon fill="none" stroke="#000000" points="43.5,-1075.5 43.5,-1105.5 422.5,-1105.5 422.5,-1075.5 43.5,-1075.5"/>
<text text-anchor="start" x="50.5" y="-1086.9" font-family="Arial" font-size="14.00" fill="#000000">copy_location    </text>
<text text-anchor="start" x="170.2868" y="-1086.9" font-family="Arial" font-size="14.00" fill="#666666">[integer]</text>
<polygon fill="none" stroke="#000000" points="43.5,-1045.5 43.5,-1075.5 422.5,-1075.5 422.5,-1045.5 43.5,-1045.5"/>
<text text-anchor="start" x="50.5" y="-1056.9" font-family="Arial" font-size="14.00" fill="#000000">marc_type    </text>
<text text-anchor="start" x="150.047" y="-1056.9" font-family="Arial" font-size="14.00" fill="#666666">[text]</text>
<polygon fill="none" stroke="#000000" points="43.5,-1015.5 43.5,-1045.5 422.5,-1045.5 422.5,-1015.5 43.5,-1015.5"/>
<text text-anchor="start" x="50.5" y="-1026.9" font-family="Arial" font-size="14.00" fill="#000000">marc_form    </text>
<text text-anchor="start" x="151.5856" y="-1026.9" font-family="Arial" font-size="14.00" fill="#666666">[text]</text>
<polygon fill="none" stroke="#000000" points="43.5,-985.5 43.5,-1015.5 422.5,-1015.5 422.5,-985.5 43.5,-985.5"/>
<text text-anchor="start" x="50.5" y="-996.9" font-family="Arial" font-size="14.00" fill="#000000">marc_bib_level    </text>
<text text-anchor="start" x="178.824" y="-996.9" font-family="Arial" font-size="14.00" fill="#666666">[text]</text>
<polygon fill="none" stroke="#000000" points="43.5,-955.5 43.5,-985.5 422.5,-985.5 422.5,-955.5 43.5,-955.5"/>
<text text-anchor="start" x="50.5" y="-966.9" font-family="Arial" font-size="14.00" fill="#000000">marc_vr_format    </text>
<text text-anchor="start" x="182.702" y="-966.9" font-family="Arial" font-size="14.00" fill="#666666">[text]</text>
<polygon fill="none" stroke="#000000" points="43.5,-925.5 43.5,-955.5 422.5,-955.5 422.5,-925.5 43.5,-925.5"/>
<text text-anchor="start" x="50.5" y="-936.9" font-family="Arial" font-size="14.00" fill="#000000">copy_circ_lib    </text>
<text text-anchor="start" x="165.5982" y="-936.9" font-family="Arial" font-size="14.00" fill="#666666">[integer]</text>
<polygon fill="none" stroke="#000000" points="43.5,-895.5 43.5,-925.5 422.5,-925.5 422.5,-895.5 43.5,-895.5"/>
<text text-anchor="start" x="50.5" y="-906.9" font-family="Arial" font-size="14.00" fill="#000000">copy_owning_lib    </text>
<text text-anchor="start" x="188.1746" y="-906.9" font-family="Arial" font-size="14.00" fill="#666666">[integer]</text>
<polygon fill="none" stroke="#000000" points="43.5,-865.5 43.5,-895.5 422.5,-895.5 422.5,-865.5 43.5,-865.5"/>
<text text-anchor="start" x="50.5" y="-876.9" font-family="Arial" font-size="14.00" fill="#000000">user_home_ou    </text>
<text text-anchor="start" x="178.0694" y="-876.9" font-family="Arial" font-size="14.00" fill="#666666">[integer]</text>
<polygon fill="none" stroke="#000000" points="43.5,-835.5 43.5,-865.5 422.5,-865.5 422.5,-835.5 43.5,-835.5"/>
<text text-anchor="start" x="50.5" y="-846.9" font-family="Arial" font-size="14.00" fill="#000000">ref_flag    </text>
<text text-anchor="start" x="131.3836" y="-846.9" font-family="Arial" font-size="14.00" fill="#666666">[boolean]</text>
<polygon fill="none" stroke="#000000" points="43.5,-805.5 43.5,-835.5 422.5,-835.5 422.5,-805.5 43.5,-805.5"/>
<text text-anchor="start" x="50.5" y="-816.9" font-family="Arial" font-size="14.00" fill="#000000">juvenile_flag    </text>
<text text-anchor="start" x="162.5" y="-816.9" font-family="Arial" font-size="14.00" fill="#666666">[boolean]</text>
<polygon fill="none" stroke="#000000" points="43.5,-775.5 43.5,-805.5 422.5,-805.5 422.5,-775.5 43.5,-775.5"/>
<text text-anchor="start" x="50.5" y="-786.9" font-family="Arial" font-size="14.00" fill="#000000">is_renewal    </text>
<text text-anchor="start" x="151.5982" y="-786.9" font-family="Arial" font-size="14.00" fill="#666666">[boolean]</text>
<polygon fill="none" stroke="#000000" points="43.5,-745.5 43.5,-775.5 422.5,-775.5 422.5,-745.5 43.5,-745.5"/>
<text text-anchor="start" x="50.5" y="-756.9" font-family="Arial" font-size="14.00" fill="#000000">usr_age_lower_bound    </text>
<text text-anchor="start" x="223.1956" y="-756.9" font-family="Arial" font-size="14.00" fill="#666666">[interval]</text>
<polygon fill="none" stroke="#000000" points="43.5,-715.5 43.5,-745.5 422.5,-745.5 422.5,-715.5 43.5,-715.5"/>
<text text-anchor="start" x="50.5" y="-726.9" font-family="Arial" font-size="14.00" fill="#000000">usr_age_upper_bound    </text>
<text text-anchor="start" x="225.5476" y="-726.9" font-family="Arial" font-size="14.00" fill="#666666">[interval]</text>
<polygon fill="none" stroke="#000000" points="43.5,-685.5 43.5,-715.5 422.5,-715.5 422.5,-685.5 43.5,-685.5"/>
<text text-anchor="start" x="50.5" y="-696.9" font-family="Arial" font-size="14.00" fill="#000000">item_age    </text>
<text text-anchor="start" x="142.2756" y="-696.9" font-family="Arial" font-size="14.00" fill="#666666">[interval]</text>
<polygon fill="none" stroke="#000000" points="43.5,-655.5 43.5,-685.5 422.5,-685.5 422.5,-655.5 43.5,-655.5"/>
<text text-anchor="start" x="50.5" y="-666.9" font-family="Arial" font-size="14.00" fill="#000000">circulate    </text>
<text text-anchor="start" x="136.817" y="-666.9" font-family="Arial" font-size="14.00" fill="#666666">[boolean]</text>
<polygon fill="none" stroke="#000000" points="43.5,-625.5 43.5,-655.5 422.5,-655.5 422.5,-625.5 43.5,-625.5"/>
<text text-anchor="start" x="50.5" y="-636.9" font-family="Arial" font-size="14.00" fill="#000000">duration_rule    </text>
<text text-anchor="start" x="166.3906" y="-636.9" font-family="Arial" font-size="14.00" fill="#666666">[integer]</text>
<polygon fill="none" stroke="#000000" points="43.5,-595.5 43.5,-625.5 422.5,-625.5 422.5,-595.5 43.5,-595.5"/>
<text text-anchor="start" x="50.5" y="-606.9" font-family="Arial" font-size="14.00" fill="#000000">recurring_fine_rule    </text>
<text text-anchor="start" x="201.3836" y="-606.9" font-family="Arial" font-size="14.00" fill="#666666">[integer]</text>
<polygon fill="none" stroke="#000000" points="43.5,-565.5 43.5,-595.5 422.5,-595.5 422.5,-565.5 43.5,-565.5"/>
<text text-anchor="start" x="50.5" y="-576.9" font-family="Arial" font-size="14.00" fill="#000000">max_fine_rule    </text>
<text text-anchor="start" x="172.608" y="-576.9" font-family="Arial" font-size="14.00" fill="#666666">[integer]</text>
<polygon fill="none" stroke="#000000" points="43.5,-535.5 43.5,-565.5 422.5,-565.5 422.5,-535.5 43.5,-535.5"/>
<text text-anchor="start" x="50.5" y="-546.9" font-family="Arial" font-size="14.00" fill="#000000">hard_due_date    </text>
<text text-anchor="start" x="178.8646" y="-546.9" font-family="Arial" font-size="14.00" fill="#666666">[integer]</text>
<polygon fill="none" stroke="#000000" points="43.5,-505.5 43.5,-535.5 422.5,-535.5 422.5,-505.5 43.5,-505.5"/>
<text text-anchor="start" x="50.5" y="-516.9" font-family="Arial" font-size="14.00" fill="#000000">renewals    </text>
<text text-anchor="start" x="140.709" y="-516.9" font-family="Arial" font-size="14.00" fill="#666666">[integer]</text>
<polygon fill="none" stroke="#000000" points="43.5,-475.5 43.5,-505.5 422.5,-505.5 422.5,-475.5 43.5,-475.5"/>
<text text-anchor="start" x="50.5" y="-486.9" font-family="Arial" font-size="14.00" fill="#000000">grace_period    </text>
<text text-anchor="start" x="166.3934" y="-486.9" font-family="Arial" font-size="14.00" fill="#666666">[interval]</text>
<polygon fill="none" stroke="#000000" points="43.5,-445.5 43.5,-475.5 422.5,-475.5 422.5,-445.5 43.5,-445.5"/>
<text text-anchor="start" x="50.5" y="-456.9" font-family="Arial" font-size="14.00" fill="#000000">script_test    </text>
<text text-anchor="start" x="148.4916" y="-456.9" font-family="Arial" font-size="14.00" fill="#666666">[text]</text>
<polygon fill="none" stroke="#000000" points="43.5,-415.5 43.5,-445.5 422.5,-445.5 422.5,-415.5 43.5,-415.5"/>
<text text-anchor="start" x="50.5" y="-426.9" font-family="Arial" font-size="14.00" fill="#000000">total_copy_hold_ratio    </text>
<text text-anchor="start" x="217.7482" y="-426.9" font-family="Arial" font-size="14.00" fill="#666666">[double precision]</text>
<polygon fill="none" stroke="#000000" points="43.5,-385.5 43.5,-415.5 422.5,-415.5 422.5,-385.5 43.5,-385.5"/>
<text text-anchor="start" x="50.5" y="-396.9" font-family="Arial" font-size="14.00" fill="#000000">available_copy_hold_ratio    </text>
<text text-anchor="start" x="246.528" y="-396.9" font-family="Arial" font-size="14.00" fill="#666666">[double precision]</text>
<polygon fill="none" stroke="#000000" points="43.5,-355.5 43.5,-385.5 422.5,-385.5 422.5,-355.5 43.5,-355.5"/>
<text text-anchor="start" x="50.5" y="-366.9" font-family="Arial" font-size="14.00" fill="#000000">description    </text>
<text text-anchor="start" x="152.3822" y="-366.9" font-family="Arial" font-size="14.00" fill="#666666">[text]</text>
</g>
<!-- config.circ_matrix_matchpoint&#45;&gt;config.hard_due_date -->
<g id="edge1" class="edge">
<title>config.circ_matrix_matchpoint:hard_due_date&#45;&gt;config.hard_due_date:id</title>
<path fill="none" stroke="#000000" d="M432.2958,-547.8826C472.224,-524.6038 451.1374,-352.9698 422.5,-313 393.5225,-272.5555 345.4775,-317.4445 316.5,-277 291.5208,-242.136 273.6111,-180.5 316.5,-180.5"/>
<polygon fill="#000000" stroke="#000000" points="432.1611,-547.9185 421.3383,-546.1525 427.3305,-549.2092 422.5,-550.5 422.5,-550.5 422.5,-550.5 427.3305,-549.2092 423.6617,-554.8475 432.1611,-547.9185 432.1611,-547.9185"/>
<text text-anchor="start" x="429.406" y="-560.5" font-family="Arial" font-size="10.00" fill="#000000">FOREIGN KEY (hard_due_date) REFERENCES config.hard_due_date(id) DEFERRABLE INITIALLY DEFERRED</text>
</g>
<!-- config.hard_due_date_values -->
<g id="node3" class="node">
<title>config.hard_due_date_values</title>
<polygon fill="#efefef" stroke="transparent" points="526.5,-865.5 526.5,-900.5 903.5,-900.5 903.5,-865.5 526.5,-865.5"/>
<polygon fill="none" stroke="#000000" points="526.5,-865.5 526.5,-900.5 903.5,-900.5 903.5,-865.5 526.5,-865.5"/>
<text text-anchor="start" x="533.1666" y="-878.3" font-family="Arial Bold" font-size="18.00" fill="#000000">config.hard_due_date_values</text>
<text text-anchor="start" x="769.2654" y="-878.3" font-family="Arial" font-size="14.00" fill="#000000">    </text>
<text text-anchor="start" x="803.4702" y="-878.3" font-family="Arial" font-size="14.00" fill="#666666">[BASE TABLE]</text>
<polygon fill="none" stroke="#000000" points="526.5,-835.5 526.5,-865.5 903.5,-865.5 903.5,-835.5 526.5,-835.5"/>
<text text-anchor="start" x="533.5" y="-846.9" font-family="Arial" font-size="14.00" fill="#000000">id    </text>
<text text-anchor="start" x="578.594" y="-846.9" font-family="Arial" font-size="14.00" fill="#666666">[integer]</text>
<polygon fill="none" stroke="#000000" points="526.5,-805.5 526.5,-835.5 903.5,-835.5 903.5,-805.5 526.5,-805.5"/>
<text text-anchor="start" x="533.5" y="-816.9" font-family="Arial" font-size="14.00" fill="#000000">hard_due_date    </text>
<text text-anchor="start" x="661.8646" y="-816.9" font-family="Arial" font-size="14.00" fill="#666666">[integer]</text>
<polygon fill="none" stroke="#000000" points="526.5,-775.5 526.5,-805.5 903.5,-805.5 903.5,-775.5 526.5,-775.5"/>
<text text-anchor="start" x="533.5" y="-786.9" font-family="Arial" font-size="14.00" fill="#000000">ceiling_date    </text>
<text text-anchor="start" x="642.3934" y="-786.9" font-family="Arial" font-size="14.00" fill="#666666">[timestamp with time zone]</text>
<polygon fill="none" stroke="#000000" points="526.5,-745.5 526.5,-775.5 903.5,-775.5 903.5,-745.5 526.5,-745.5"/>
<text text-anchor="start" x="533.5" y="-756.9" font-family="Arial" font-size="14.00" fill="#000000">active_date    </text>
<text text-anchor="start" x="639.2882" y="-756.9" font-family="Arial" font-size="14.00" fill="#666666">[timestamp with time zone]</text>
</g>
<!-- config.hard_due_date_values&#45;&gt;config.hard_due_date -->
<g id="edge2" class="edge">
<title>config.hard_due_date_values:hard_due_date&#45;&gt;config.hard_due_date:id</title>
<path fill="none" stroke="#000000" d="M516.5435,-819.2832C401.9996,-788.4126 771.9642,-180.5 631.5,-180.5"/>
<polygon fill="#000000" stroke="#000000" points="516.5739,-819.2868 525.954,-824.9668 521.5369,-819.8934 526.5,-820.5 526.5,-820.5 526.5,-820.5 521.5369,-819.8934 527.046,-816.0332 516.5739,-819.2868 516.5739,-819.2868"/>
<text text-anchor="start" x="533.406" y="-830.5" font-family="Arial" font-size="10.00" fill="#000000">FOREIGN KEY (hard_due_date) REFERENCES config.hard_due_date(id) DEFERRABLE INITIALLY DEFERRED</text>
</g>
</g>
</svg>
