<?xml version="1.0" encoding="UTF-8" standalone="no"?>
<!DOCTYPE svg PUBLIC "-//W3C//DTD SVG 1.1//EN"
 "http://www.w3.org/Graphics/SVG/1.1/DTD/svg11.dtd">
<!-- Generated by graphviz version 2.40.1 (20161225.0304)
 -->
<!-- Title: config.marc_format Pages: 1 -->
<svg width="1106pt" height="712pt"
 viewBox="0.00 0.00 1106.00 712.00" xmlns="http://www.w3.org/2000/svg" xmlns:xlink="http://www.w3.org/1999/xlink">
<g id="graph0" class="graph" transform="scale(1 1) rotate(0) translate(4 708)">
<title>config.marc_format</title>
<polygon fill="#ffffff" stroke="transparent" points="-4,4 -4,-708 1102,-708 1102,4 -4,4"/>
<!-- config.marc_format -->
<g id="node1" class="node">
<title>config.marc_format</title>
<polygon fill="#efefef" stroke="transparent" points="401,-135.5 401,-170.5 696,-170.5 696,-135.5 401,-135.5"/>
<polygon fill="none" stroke="#000000" points="401,-135.5 401,-170.5 696,-170.5 696,-135.5 401,-135.5"/>
<text text-anchor="start" x="407.7084" y="-148.3" font-family="Arial Bold" font-size="18.00" fill="#000000">config.marc_format</text>
<text text-anchor="start" x="561.7236" y="-148.3" font-family="Arial" font-size="14.00" fill="#000000">    </text>
<text text-anchor="start" x="595.9284" y="-148.3" font-family="Arial" font-size="14.00" fill="#666666">[BASE TABLE]</text>
<polygon fill="none" stroke="#000000" points="401,-105.5 401,-135.5 696,-135.5 696,-105.5 401,-105.5"/>
<text text-anchor="start" x="408" y="-116.9" font-family="Arial" font-size="14.00" fill="#000000">id </text>
<text text-anchor="start" x="422.7798" y="-116.9" font-family="Arial" font-size="14.00" fill="#666666">[integer]</text>
<polygon fill="none" stroke="#000000" points="401,-75.5 401,-105.5 696,-105.5 696,-75.5 401,-75.5"/>
<text text-anchor="start" x="408" y="-86.9" font-family="Arial" font-size="14.00" fill="#000000">code </text>
<text text-anchor="start" x="442.2384" y="-86.9" font-family="Arial" font-size="14.00" fill="#666666">[text]</text>
<polygon fill="none" stroke="#000000" points="401,-45.5 401,-75.5 696,-75.5 696,-45.5 401,-45.5"/>
<text text-anchor="start" x="408" y="-56.9" font-family="Arial" font-size="14.00" fill="#000000">name </text>
<text text-anchor="start" x="446.899" y="-56.9" font-family="Arial" font-size="14.00" fill="#666666">[text]</text>
<polygon fill="none" stroke="#000000" stroke-width="3" points="399,-44.5 399,-172.5 697,-172.5 697,-44.5 399,-44.5"/>
</g>
<!-- config.marc_field -->
<g id="node2" class="node">
<title>config.marc_field</title>
<polygon fill="#efefef" stroke="transparent" points="175,-625.5 175,-660.5 497,-660.5 497,-625.5 175,-625.5"/>
<polygon fill="none" stroke="#000000" points="175,-625.5 175,-660.5 497,-660.5 497,-625.5 175,-625.5"/>
<text text-anchor="start" x="204.2075" y="-638.3" font-family="Arial Bold" font-size="18.00" fill="#000000">config.marc_field</text>
<text text-anchor="start" x="340.2245" y="-638.3" font-family="Arial" font-size="14.00" fill="#000000">    </text>
<text text-anchor="start" x="374.4293" y="-638.3" font-family="Arial" font-size="14.00" fill="#666666">[BASE TABLE]</text>
<polygon fill="none" stroke="#000000" points="175,-595.5 175,-625.5 497,-625.5 497,-595.5 175,-595.5"/>
<text text-anchor="start" x="182" y="-606.9" font-family="Arial" font-size="14.00" fill="#000000">id    </text>
<text text-anchor="start" x="227.094" y="-606.9" font-family="Arial" font-size="14.00" fill="#666666">[integer]</text>
<polygon fill="none" stroke="#000000" points="175,-565.5 175,-595.5 497,-595.5 497,-565.5 175,-565.5"/>
<text text-anchor="start" x="182" y="-576.9" font-family="Arial" font-size="14.00" fill="#000000">marc_format    </text>
<text text-anchor="start" x="294.7588" y="-576.9" font-family="Arial" font-size="14.00" fill="#666666">[integer]</text>
<polygon fill="none" stroke="#000000" points="175,-535.5 175,-565.5 497,-565.5 497,-535.5 175,-535.5"/>
<text text-anchor="start" x="181.5954" y="-546.9" font-family="Arial" font-size="14.00" fill="#000000">marc_record_type    </text>
<text text-anchor="start" x="328.594" y="-546.9" font-family="Arial" font-size="14.00" fill="#666666">[config.marc_record_type]</text>
<polygon fill="none" stroke="#000000" points="175,-505.5 175,-535.5 497,-535.5 497,-505.5 175,-505.5"/>
<text text-anchor="start" x="182" y="-516.9" font-family="Arial" font-size="14.00" fill="#000000">tag    </text>
<text text-anchor="start" x="235.6606" y="-516.9" font-family="Arial" font-size="14.00" fill="#666666">[character(3)]</text>
<polygon fill="none" stroke="#000000" points="175,-475.5 175,-505.5 497,-505.5 497,-475.5 175,-475.5"/>
<text text-anchor="start" x="182" y="-486.9" font-family="Arial" font-size="14.00" fill="#000000">name    </text>
<text text-anchor="start" x="251.2132" y="-486.9" font-family="Arial" font-size="14.00" fill="#666666">[text]</text>
<polygon fill="none" stroke="#000000" points="175,-445.5 175,-475.5 497,-475.5 497,-445.5 175,-445.5"/>
<text text-anchor="start" x="182" y="-456.9" font-family="Arial" font-size="14.00" fill="#000000">description    </text>
<text text-anchor="start" x="283.8822" y="-456.9" font-family="Arial" font-size="14.00" fill="#666666">[text]</text>
<polygon fill="none" stroke="#000000" points="175,-415.5 175,-445.5 497,-445.5 497,-415.5 175,-415.5"/>
<text text-anchor="start" x="182" y="-426.9" font-family="Arial" font-size="14.00" fill="#000000">fixed_field    </text>
<text text-anchor="start" x="279.2188" y="-426.9" font-family="Arial" font-size="14.00" fill="#666666">[boolean]</text>
<polygon fill="none" stroke="#000000" points="175,-385.5 175,-415.5 497,-415.5 497,-385.5 175,-385.5"/>
<text text-anchor="start" x="182" y="-396.9" font-family="Arial" font-size="14.00" fill="#000000">repeatable    </text>
<text text-anchor="start" x="282.3408" y="-396.9" font-family="Arial" font-size="14.00" fill="#666666">[boolean]</text>
<polygon fill="none" stroke="#000000" points="175,-355.5 175,-385.5 497,-385.5 497,-355.5 175,-355.5"/>
<text text-anchor="start" x="182" y="-366.9" font-family="Arial" font-size="14.00" fill="#000000">mandatory    </text>
<text text-anchor="start" x="282.3296" y="-366.9" font-family="Arial" font-size="14.00" fill="#666666">[boolean]</text>
<polygon fill="none" stroke="#000000" points="175,-325.5 175,-355.5 497,-355.5 497,-325.5 175,-325.5"/>
<text text-anchor="start" x="182" y="-336.9" font-family="Arial" font-size="14.00" fill="#000000">hidden    </text>
<text text-anchor="start" x="258.2244" y="-336.9" font-family="Arial" font-size="14.00" fill="#666666">[boolean]</text>
<polygon fill="none" stroke="#000000" points="175,-295.5 175,-325.5 497,-325.5 497,-295.5 175,-295.5"/>
<text text-anchor="start" x="182" y="-306.9" font-family="Arial" font-size="14.00" fill="#000000">owner    </text>
<text text-anchor="start" x="254.3198" y="-306.9" font-family="Arial" font-size="14.00" fill="#666666">[integer]</text>
</g>
<!-- config.marc_field&#45;&gt;config.marc_format -->
<g id="edge1" class="edge">
<title>config.marc_field:marc_format&#45;&gt;config.marc_format:id</title>
<path fill="none" stroke="#000000" d="M506.9272,-578.6407C566.6946,-554.8548 536.4297,-309.8971 497,-253 471.0447,-215.5465 426.9553,-254.4535 401,-217 376.5707,-181.7485 358.1111,-120.5 401,-120.5"/>
<polygon fill="#000000" stroke="#000000" points="506.8291,-578.659 496.1716,-576.0769 501.9145,-579.5795 497,-580.5 497,-580.5 497,-580.5 501.9145,-579.5795 497.8284,-584.9231 506.8291,-578.659 506.8291,-578.659"/>
<text text-anchor="start" x="7.053" y="-590.5" font-family="Arial" font-size="10.00" fill="#000000">FOREIGN KEY (marc_format) REFERENCES config.marc_format(id) DEFERRABLE INITIALLY DEFERRED</text>
</g>
<!-- config.marc_subfield -->
<g id="node3" class="node">
<title>config.marc_subfield</title>
<polygon fill="#efefef" stroke="transparent" points="601,-625.5 601,-660.5 923,-660.5 923,-625.5 601,-625.5"/>
<polygon fill="none" stroke="#000000" points="601,-625.5 601,-660.5 923,-660.5 923,-625.5 601,-625.5"/>
<text text-anchor="start" x="615.7013" y="-638.3" font-family="Arial Bold" font-size="18.00" fill="#000000">config.marc_subfield</text>
<text text-anchor="start" x="780.7307" y="-638.3" font-family="Arial" font-size="14.00" fill="#000000">    </text>
<text text-anchor="start" x="814.9355" y="-638.3" font-family="Arial" font-size="14.00" fill="#666666">[BASE TABLE]</text>
<polygon fill="none" stroke="#000000" points="601,-595.5 601,-625.5 923,-625.5 923,-595.5 601,-595.5"/>
<text text-anchor="start" x="608" y="-606.9" font-family="Arial" font-size="14.00" fill="#000000">id    </text>
<text text-anchor="start" x="653.094" y="-606.9" font-family="Arial" font-size="14.00" fill="#666666">[integer]</text>
<polygon fill="none" stroke="#000000" points="601,-565.5 601,-595.5 923,-595.5 923,-565.5 601,-565.5"/>
<text text-anchor="start" x="608" y="-576.9" font-family="Arial" font-size="14.00" fill="#000000">marc_format    </text>
<text text-anchor="start" x="720.7588" y="-576.9" font-family="Arial" font-size="14.00" fill="#666666">[integer]</text>
<polygon fill="none" stroke="#000000" points="601,-535.5 601,-565.5 923,-565.5 923,-535.5 601,-535.5"/>
<text text-anchor="start" x="607.5954" y="-546.9" font-family="Arial" font-size="14.00" fill="#000000">marc_record_type    </text>
<text text-anchor="start" x="754.594" y="-546.9" font-family="Arial" font-size="14.00" fill="#666666">[config.marc_record_type]</text>
<polygon fill="none" stroke="#000000" points="601,-505.5 601,-535.5 923,-535.5 923,-505.5 601,-505.5"/>
<text text-anchor="start" x="608" y="-516.9" font-family="Arial" font-size="14.00" fill="#000000">tag    </text>
<text text-anchor="start" x="661.6606" y="-516.9" font-family="Arial" font-size="14.00" fill="#666666">[character(3)]</text>
<polygon fill="none" stroke="#000000" points="601,-475.5 601,-505.5 923,-505.5 923,-475.5 601,-475.5"/>
<text text-anchor="start" x="608" y="-486.9" font-family="Arial" font-size="14.00" fill="#000000">code    </text>
<text text-anchor="start" x="672.5526" y="-486.9" font-family="Arial" font-size="14.00" fill="#666666">[character(1)]</text>
<polygon fill="none" stroke="#000000" points="601,-445.5 601,-475.5 923,-475.5 923,-445.5 601,-445.5"/>
<text text-anchor="start" x="608" y="-456.9" font-family="Arial" font-size="14.00" fill="#000000">description    </text>
<text text-anchor="start" x="709.8822" y="-456.9" font-family="Arial" font-size="14.00" fill="#666666">[text]</text>
<polygon fill="none" stroke="#000000" points="601,-415.5 601,-445.5 923,-445.5 923,-415.5 601,-415.5"/>
<text text-anchor="start" x="608" y="-426.9" font-family="Arial" font-size="14.00" fill="#000000">repeatable    </text>
<text text-anchor="start" x="708.3408" y="-426.9" font-family="Arial" font-size="14.00" fill="#666666">[boolean]</text>
<polygon fill="none" stroke="#000000" points="601,-385.5 601,-415.5 923,-415.5 923,-385.5 601,-385.5"/>
<text text-anchor="start" x="608" y="-396.9" font-family="Arial" font-size="14.00" fill="#000000">mandatory    </text>
<text text-anchor="start" x="708.3296" y="-396.9" font-family="Arial" font-size="14.00" fill="#666666">[boolean]</text>
<polygon fill="none" stroke="#000000" points="601,-355.5 601,-385.5 923,-385.5 923,-355.5 601,-355.5"/>
<text text-anchor="start" x="608" y="-366.9" font-family="Arial" font-size="14.00" fill="#000000">hidden    </text>
<text text-anchor="start" x="684.2244" y="-366.9" font-family="Arial" font-size="14.00" fill="#666666">[boolean]</text>
<polygon fill="none" stroke="#000000" points="601,-325.5 601,-355.5 923,-355.5 923,-325.5 601,-325.5"/>
<text text-anchor="start" x="608" y="-336.9" font-family="Arial" font-size="14.00" fill="#000000">value_ctype    </text>
<text text-anchor="start" x="716.8976" y="-336.9" font-family="Arial" font-size="14.00" fill="#666666">[text]</text>
<polygon fill="none" stroke="#000000" points="601,-295.5 601,-325.5 923,-325.5 923,-295.5 601,-295.5"/>
<text text-anchor="start" x="608" y="-306.9" font-family="Arial" font-size="14.00" fill="#000000">owner    </text>
<text text-anchor="start" x="680.3198" y="-306.9" font-family="Arial" font-size="14.00" fill="#666666">[integer]</text>
</g>
<!-- config.marc_subfield&#45;&gt;config.marc_format -->
<g id="edge2" class="edge">
<title>config.marc_subfield:marc_format&#45;&gt;config.marc_format:id</title>
<path fill="none" stroke="#000000" d="M591.0736,-578.6412C531.315,-554.8614 561.6687,-309.9652 601,-253 626.6543,-215.8439 670.3457,-254.1561 696,-217 720.3683,-181.7064 738.8889,-120.5 696,-120.5"/>
<polygon fill="#000000" stroke="#000000" points="591.1708,-578.6594 600.1717,-584.9231 596.0854,-579.5797 601,-580.5 601,-580.5 601,-580.5 596.0854,-579.5797 601.8283,-576.0769 591.1708,-578.6594 591.1708,-578.6594"/>
<text text-anchor="start" x="608.053" y="-590.5" font-family="Arial" font-size="10.00" fill="#000000">FOREIGN KEY (marc_format) REFERENCES config.marc_format(id) DEFERRABLE INITIALLY DEFERRED</text>
</g>
</g>
</svg>
