<?xml version="1.0" encoding="UTF-8" standalone="no"?>
<!DOCTYPE svg PUBLIC "-//W3C//DTD SVG 1.1//EN"
 "http://www.w3.org/Graphics/SVG/1.1/DTD/svg11.dtd">
<!-- Generated by graphviz version 2.40.1 (20161225.0304)
 -->
<!-- Title: config.metabib_search_alias Pages: 1 -->
<svg width="1289pt" height="922pt"
 viewBox="0.00 0.00 1289.00 922.00" xmlns="http://www.w3.org/2000/svg" xmlns:xlink="http://www.w3.org/1999/xlink">
<g id="graph0" class="graph" transform="scale(1 1) rotate(0) translate(4 918)">
<title>config.metabib_search_alias</title>
<polygon fill="#ffffff" stroke="transparent" points="-4,4 -4,-918 1285,-918 1285,4 -4,4"/>
<!-- config.metabib_search_alias -->
<g id="node1" class="node">
<title>config.metabib_search_alias</title>
<polygon fill="#efefef" stroke="transparent" points="337,-832.5 337,-867.5 706,-867.5 706,-832.5 337,-832.5"/>
<polygon fill="none" stroke="#000000" points="337,-832.5 337,-867.5 706,-867.5 706,-832.5 337,-832.5"/>
<text text-anchor="start" x="343.6887" y="-845.3" font-family="Arial Bold" font-size="18.00" fill="#000000">config.metabib_search_alias</text>
<text text-anchor="start" x="571.7433" y="-845.3" font-family="Arial" font-size="14.00" fill="#000000">    </text>
<text text-anchor="start" x="605.9481" y="-845.3" font-family="Arial" font-size="14.00" fill="#666666">[BASE TABLE]</text>
<polygon fill="none" stroke="#000000" points="337,-802.5 337,-832.5 706,-832.5 706,-802.5 337,-802.5"/>
<text text-anchor="start" x="344" y="-813.9" font-family="Arial" font-size="14.00" fill="#000000">alias </text>
<text text-anchor="start" x="376.669" y="-813.9" font-family="Arial" font-size="14.00" fill="#666666">[text]</text>
<polygon fill="none" stroke="#000000" points="337,-772.5 337,-802.5 706,-802.5 706,-772.5 337,-772.5"/>
<text text-anchor="start" x="344" y="-783.9" font-family="Arial" font-size="14.00" fill="#000000">field_class </text>
<text text-anchor="start" x="413.2314" y="-783.9" font-family="Arial" font-size="14.00" fill="#666666">[text]</text>
<polygon fill="none" stroke="#000000" points="337,-742.5 337,-772.5 706,-772.5 706,-742.5 337,-742.5"/>
<text text-anchor="start" x="344" y="-753.9" font-family="Arial" font-size="14.00" fill="#000000">field </text>
<text text-anchor="start" x="373.5596" y="-753.9" font-family="Arial" font-size="14.00" fill="#666666">[integer]</text>
<polygon fill="none" stroke="#000000" stroke-width="3" points="335,-741.5 335,-869.5 707,-869.5 707,-741.5 335,-741.5"/>
</g>
<!-- config.metabib_class -->
<g id="node2" class="node">
<title>config.metabib_class</title>
<polygon fill="#efefef" stroke="transparent" points="163,-447.5 163,-482.5 472,-482.5 472,-447.5 163,-447.5"/>
<polygon fill="none" stroke="#000000" points="163,-447.5 163,-482.5 472,-482.5 472,-447.5 163,-447.5"/>
<text text-anchor="start" x="169.6974" y="-460.3" font-family="Arial Bold" font-size="18.00" fill="#000000">config.metabib_class</text>
<text text-anchor="start" x="337.7346" y="-460.3" font-family="Arial" font-size="14.00" fill="#000000">    </text>
<text text-anchor="start" x="371.9394" y="-460.3" font-family="Arial" font-size="14.00" fill="#666666">[BASE TABLE]</text>
<polygon fill="none" stroke="#000000" points="163,-417.5 163,-447.5 472,-447.5 472,-417.5 163,-417.5"/>
<text text-anchor="start" x="170" y="-428.9" font-family="Arial" font-size="14.00" fill="#000000">name    </text>
<text text-anchor="start" x="239.2132" y="-428.9" font-family="Arial" font-size="14.00" fill="#666666">[text]</text>
<polygon fill="none" stroke="#000000" points="163,-387.5 163,-417.5 472,-417.5 472,-387.5 163,-387.5"/>
<text text-anchor="start" x="170" y="-398.9" font-family="Arial" font-size="14.00" fill="#000000">label    </text>
<text text-anchor="start" x="233.7658" y="-398.9" font-family="Arial" font-size="14.00" fill="#666666">[text]</text>
<polygon fill="none" stroke="#000000" points="163,-357.5 163,-387.5 472,-387.5 472,-357.5 163,-357.5"/>
<text text-anchor="start" x="170" y="-368.9" font-family="Arial" font-size="14.00" fill="#000000">buoyant    </text>
<text text-anchor="start" x="254.0084" y="-368.9" font-family="Arial" font-size="14.00" fill="#666666">[boolean]</text>
<polygon fill="none" stroke="#000000" points="163,-327.5 163,-357.5 472,-357.5 472,-327.5 163,-327.5"/>
<text text-anchor="start" x="170" y="-338.9" font-family="Arial" font-size="14.00" fill="#000000">restrict    </text>
<text text-anchor="start" x="246.1964" y="-338.9" font-family="Arial" font-size="14.00" fill="#666666">[boolean]</text>
<polygon fill="none" stroke="#000000" points="163,-297.5 163,-327.5 472,-327.5 472,-297.5 163,-297.5"/>
<text text-anchor="start" x="170" y="-308.9" font-family="Arial" font-size="14.00" fill="#000000">combined    </text>
<text text-anchor="start" x="264.885" y="-308.9" font-family="Arial" font-size="14.00" fill="#666666">[boolean]</text>
<polygon fill="none" stroke="#000000" points="163,-267.5 163,-297.5 472,-297.5 472,-267.5 163,-267.5"/>
<text text-anchor="start" x="170" y="-278.9" font-family="Arial" font-size="14.00" fill="#000000">a_weight    </text>
<text text-anchor="start" x="260.2216" y="-278.9" font-family="Arial" font-size="14.00" fill="#666666">[numeric]</text>
<polygon fill="none" stroke="#000000" points="163,-237.5 163,-267.5 472,-267.5 472,-237.5 163,-237.5"/>
<text text-anchor="start" x="170" y="-248.9" font-family="Arial" font-size="14.00" fill="#000000">b_weight    </text>
<text text-anchor="start" x="260.2216" y="-248.9" font-family="Arial" font-size="14.00" fill="#666666">[numeric]</text>
<polygon fill="none" stroke="#000000" points="163,-207.5 163,-237.5 472,-237.5 472,-207.5 163,-207.5"/>
<text text-anchor="start" x="170" y="-218.9" font-family="Arial" font-size="14.00" fill="#000000">c_weight    </text>
<text text-anchor="start" x="259.439" y="-218.9" font-family="Arial" font-size="14.00" fill="#666666">[numeric]</text>
<polygon fill="none" stroke="#000000" points="163,-177.5 163,-207.5 472,-207.5 472,-177.5 163,-177.5"/>
<text text-anchor="start" x="170" y="-188.9" font-family="Arial" font-size="14.00" fill="#000000">d_weight    </text>
<text text-anchor="start" x="260.2216" y="-188.9" font-family="Arial" font-size="14.00" fill="#666666">[numeric]</text>
</g>
<!-- config.metabib_search_alias&#45;&gt;config.metabib_class -->
<g id="edge1" class="edge">
<title>config.metabib_search_alias:field_class&#45;&gt;config.metabib_class:name</title>
<path fill="none" stroke="#000000" d="M326.9957,-787.0155C188.2099,-772.41 637.1746,-432.5 472,-432.5"/>
<polygon fill="#000000" stroke="#000000" points="327.0117,-787.0161 336.7823,-791.9947 332.0059,-787.2581 337,-787.5 337,-787.5 337,-787.5 332.0059,-787.2581 337.2177,-783.0053 327.0117,-787.0161 327.0117,-787.0161"/>
<text text-anchor="start" x="7.323" y="-797.5" font-family="Arial" font-size="10.00" fill="#000000">FOREIGN KEY (field_class) REFERENCES config.metabib_class(name)</text>
</g>
<!-- config.metabib_field -->
<g id="node3" class="node">
<title>config.metabib_field</title>
<polygon fill="#efefef" stroke="transparent" points="576,-582.5 576,-617.5 877,-617.5 877,-582.5 576,-582.5"/>
<polygon fill="none" stroke="#000000" points="576,-582.5 576,-617.5 877,-617.5 877,-582.5 576,-582.5"/>
<text text-anchor="start" x="582.6961" y="-595.3" font-family="Arial Bold" font-size="18.00" fill="#000000">config.metabib_field</text>
<text text-anchor="start" x="742.7359" y="-595.3" font-family="Arial" font-size="14.00" fill="#000000">    </text>
<text text-anchor="start" x="776.9407" y="-595.3" font-family="Arial" font-size="14.00" fill="#666666">[BASE TABLE]</text>
<polygon fill="none" stroke="#000000" points="576,-552.5 576,-582.5 877,-582.5 877,-552.5 576,-552.5"/>
<text text-anchor="start" x="583" y="-563.9" font-family="Arial" font-size="14.00" fill="#000000">id    </text>
<text text-anchor="start" x="628.094" y="-563.9" font-family="Arial" font-size="14.00" fill="#666666">[integer]</text>
<polygon fill="none" stroke="#000000" points="576,-522.5 576,-552.5 877,-552.5 877,-522.5 576,-522.5"/>
<text text-anchor="start" x="583" y="-533.9" font-family="Arial" font-size="14.00" fill="#000000">field_class    </text>
<text text-anchor="start" x="682.5456" y="-533.9" font-family="Arial" font-size="14.00" fill="#666666">[text]</text>
<polygon fill="none" stroke="#000000" points="576,-492.5 576,-522.5 877,-522.5 877,-492.5 576,-492.5"/>
<text text-anchor="start" x="583" y="-503.9" font-family="Arial" font-size="14.00" fill="#000000">name    </text>
<text text-anchor="start" x="652.2132" y="-503.9" font-family="Arial" font-size="14.00" fill="#666666">[text]</text>
<polygon fill="none" stroke="#000000" points="576,-462.5 576,-492.5 877,-492.5 877,-462.5 576,-462.5"/>
<text text-anchor="start" x="583" y="-473.9" font-family="Arial" font-size="14.00" fill="#000000">label    </text>
<text text-anchor="start" x="646.7658" y="-473.9" font-family="Arial" font-size="14.00" fill="#666666">[text]</text>
<polygon fill="none" stroke="#000000" points="576,-432.5 576,-462.5 877,-462.5 877,-432.5 576,-432.5"/>
<text text-anchor="start" x="583" y="-443.9" font-family="Arial" font-size="14.00" fill="#000000">xpath    </text>
<text text-anchor="start" x="651.4432" y="-443.9" font-family="Arial" font-size="14.00" fill="#666666">[text]</text>
<polygon fill="none" stroke="#000000" points="576,-402.5 576,-432.5 877,-432.5 877,-402.5 576,-402.5"/>
<text text-anchor="start" x="583" y="-413.9" font-family="Arial" font-size="14.00" fill="#000000">weight    </text>
<text text-anchor="start" x="657.6564" y="-413.9" font-family="Arial" font-size="14.00" fill="#666666">[integer]</text>
<polygon fill="none" stroke="#000000" points="576,-372.5 576,-402.5 877,-402.5 877,-372.5 576,-372.5"/>
<text text-anchor="start" x="583" y="-383.9" font-family="Arial" font-size="14.00" fill="#000000">format    </text>
<text text-anchor="start" x="656.8724" y="-383.9" font-family="Arial" font-size="14.00" fill="#666666">[text]</text>
<polygon fill="none" stroke="#000000" points="576,-342.5 576,-372.5 877,-372.5 877,-342.5 576,-342.5"/>
<text text-anchor="start" x="583" y="-353.9" font-family="Arial" font-size="14.00" fill="#000000">search_field    </text>
<text text-anchor="start" x="692.6648" y="-353.9" font-family="Arial" font-size="14.00" fill="#666666">[boolean]</text>
<polygon fill="none" stroke="#000000" points="576,-312.5 576,-342.5 877,-342.5 877,-312.5 576,-312.5"/>
<text text-anchor="start" x="583" y="-323.9" font-family="Arial" font-size="14.00" fill="#000000">facet_field    </text>
<text text-anchor="start" x="681.0028" y="-323.9" font-family="Arial" font-size="14.00" fill="#666666">[boolean]</text>
<polygon fill="none" stroke="#000000" points="576,-282.5 576,-312.5 877,-312.5 877,-282.5 576,-282.5"/>
<text text-anchor="start" x="583" y="-293.9" font-family="Arial" font-size="14.00" fill="#000000">browse_field    </text>
<text text-anchor="start" x="695.7714" y="-293.9" font-family="Arial" font-size="14.00" fill="#666666">[boolean]</text>
<polygon fill="none" stroke="#000000" points="576,-252.5 576,-282.5 877,-282.5 877,-252.5 576,-252.5"/>
<text text-anchor="start" x="583" y="-263.9" font-family="Arial" font-size="14.00" fill="#000000">browse_xpath    </text>
<text text-anchor="start" x="704.3408" y="-263.9" font-family="Arial" font-size="14.00" fill="#666666">[text]</text>
<polygon fill="none" stroke="#000000" points="576,-222.5 576,-252.5 877,-252.5 877,-222.5 576,-222.5"/>
<text text-anchor="start" x="583" y="-233.9" font-family="Arial" font-size="14.00" fill="#000000">browse_sort_xpath    </text>
<text text-anchor="start" x="735.4572" y="-233.9" font-family="Arial" font-size="14.00" fill="#666666">[text]</text>
<polygon fill="none" stroke="#000000" points="576,-192.5 576,-222.5 877,-222.5 877,-192.5 576,-192.5"/>
<text text-anchor="start" x="583" y="-203.9" font-family="Arial" font-size="14.00" fill="#000000">facet_xpath    </text>
<text text-anchor="start" x="689.5722" y="-203.9" font-family="Arial" font-size="14.00" fill="#666666">[text]</text>
<polygon fill="none" stroke="#000000" points="576,-162.5 576,-192.5 877,-192.5 877,-162.5 576,-162.5"/>
<text text-anchor="start" x="583" y="-173.9" font-family="Arial" font-size="14.00" fill="#000000">display_xpath    </text>
<text text-anchor="start" x="702.7868" y="-173.9" font-family="Arial" font-size="14.00" fill="#666666">[text]</text>
<polygon fill="none" stroke="#000000" points="576,-132.5 576,-162.5 877,-162.5 877,-132.5 576,-132.5"/>
<text text-anchor="start" x="583" y="-143.9" font-family="Arial" font-size="14.00" fill="#000000">authority_xpath    </text>
<text text-anchor="start" x="712.9046" y="-143.9" font-family="Arial" font-size="14.00" fill="#666666">[text]</text>
<polygon fill="none" stroke="#000000" points="576,-102.5 576,-132.5 877,-132.5 877,-102.5 576,-102.5"/>
<text text-anchor="start" x="583" y="-113.9" font-family="Arial" font-size="14.00" fill="#000000">joiner    </text>
<text text-anchor="start" x="651.4264" y="-113.9" font-family="Arial" font-size="14.00" fill="#666666">[text]</text>
<polygon fill="none" stroke="#000000" points="576,-72.5 576,-102.5 877,-102.5 877,-72.5 576,-72.5"/>
<text text-anchor="start" x="583" y="-83.9" font-family="Arial" font-size="14.00" fill="#000000">restrict    </text>
<text text-anchor="start" x="659.1964" y="-83.9" font-family="Arial" font-size="14.00" fill="#666666">[boolean]</text>
<polygon fill="none" stroke="#000000" points="576,-42.5 576,-72.5 877,-72.5 877,-42.5 576,-42.5"/>
<text text-anchor="start" x="583" y="-53.9" font-family="Arial" font-size="14.00" fill="#000000">display_field    </text>
<text text-anchor="start" x="694.2174" y="-53.9" font-family="Arial" font-size="14.00" fill="#666666">[boolean]</text>
</g>
<!-- config.metabib_search_alias&#45;&gt;config.metabib_field -->
<g id="edge2" class="edge">
<title>config.metabib_search_alias:field&#45;&gt;config.metabib_field:id</title>
<path fill="none" stroke="#000000" d="M715.9791,-754.8529C729.4351,-745.7135 719.736,-715.0567 706,-697 669.7024,-649.2847 612.2976,-708.7153 576,-661 550.8405,-627.9264 534.4444,-567.5 576,-567.5"/>
<polygon fill="#000000" stroke="#000000" points="715.6657,-754.936 704.8462,-753.1504 710.8329,-756.218 706,-757.5 706,-757.5 706,-757.5 710.8329,-756.218 707.1538,-761.8496 715.6657,-754.936 715.6657,-754.936"/>
<text text-anchor="start" x="713.156" y="-767.5" font-family="Arial" font-size="10.00" fill="#000000">FOREIGN KEY (field) REFERENCES config.metabib_field(id) ON UPDATE CASCADE DEFERRABLE INITIALLY DEFERRED</text>
</g>
</g>
</svg>
