<?xml version="1.0" encoding="UTF-8" standalone="no"?>
<!DOCTYPE svg PUBLIC "-//W3C//DTD SVG 1.1//EN"
 "http://www.w3.org/Graphics/SVG/1.1/DTD/svg11.dtd">
<!-- Generated by graphviz version 2.40.1 (20161225.0304)
 -->
<!-- Title: config.xml_transform Pages: 1 -->
<svg width="2088pt" height="952pt"
 viewBox="0.00 0.00 2087.50 952.00" xmlns="http://www.w3.org/2000/svg" xmlns:xlink="http://www.w3.org/1999/xlink">
<g id="graph0" class="graph" transform="scale(1 1) rotate(0) translate(4 948)">
<title>config.xml_transform</title>
<polygon fill="#ffffff" stroke="transparent" points="-4,4 -4,-948 2083.5,-948 2083.5,4 -4,4"/>
<!-- config.xml_transform -->
<g id="node1" class="node">
<title>config.xml_transform</title>
<polygon fill="#efefef" stroke="transparent" points="691.5,-165.5 691.5,-200.5 999.5,-200.5 999.5,-165.5 691.5,-165.5"/>
<polygon fill="none" stroke="#000000" points="691.5,-165.5 691.5,-200.5 999.5,-200.5 999.5,-165.5 691.5,-165.5"/>
<text text-anchor="start" x="698.2113" y="-178.3" font-family="Arial Bold" font-size="18.00" fill="#000000">config.xml_transform</text>
<text text-anchor="start" x="865.2207" y="-178.3" font-family="Arial" font-size="14.00" fill="#000000">    </text>
<text text-anchor="start" x="899.4255" y="-178.3" font-family="Arial" font-size="14.00" fill="#666666">[BASE TABLE]</text>
<polygon fill="none" stroke="#000000" points="691.5,-135.5 691.5,-165.5 999.5,-165.5 999.5,-135.5 691.5,-135.5"/>
<text text-anchor="start" x="698.5" y="-146.9" font-family="Arial" font-size="14.00" fill="#000000">name </text>
<text text-anchor="start" x="737.399" y="-146.9" font-family="Arial" font-size="14.00" fill="#666666">[text]</text>
<polygon fill="none" stroke="#000000" points="691.5,-105.5 691.5,-135.5 999.5,-135.5 999.5,-105.5 691.5,-105.5"/>
<text text-anchor="start" x="698.5" y="-116.9" font-family="Arial" font-size="14.00" fill="#000000">namespace_uri </text>
<text text-anchor="start" x="798.0792" y="-116.9" font-family="Arial" font-size="14.00" fill="#666666">[text]</text>
<polygon fill="none" stroke="#000000" points="691.5,-75.5 691.5,-105.5 999.5,-105.5 999.5,-75.5 691.5,-75.5"/>
<text text-anchor="start" x="698.5" y="-86.9" font-family="Arial" font-size="14.00" fill="#000000">prefix </text>
<text text-anchor="start" x="736.6136" y="-86.9" font-family="Arial" font-size="14.00" fill="#666666">[text]</text>
<polygon fill="none" stroke="#000000" points="691.5,-45.5 691.5,-75.5 999.5,-75.5 999.5,-45.5 691.5,-45.5"/>
<text text-anchor="start" x="698.5" y="-56.9" font-family="Arial" font-size="14.00" fill="#000000">xslt </text>
<text text-anchor="start" x="723.3878" y="-56.9" font-family="Arial" font-size="14.00" fill="#666666">[text]</text>
<polygon fill="none" stroke="#000000" stroke-width="3" points="690,-44.5 690,-202.5 1001,-202.5 1001,-44.5 690,-44.5"/>
</g>
<!-- authority.heading_field -->
<g id="node2" class="node">
<title>authority.heading_field</title>
<polygon fill="#efefef" stroke="transparent" points="43.5,-760.5 43.5,-795.5 372.5,-795.5 372.5,-760.5 43.5,-760.5"/>
<polygon fill="none" stroke="#000000" points="43.5,-760.5 43.5,-795.5 372.5,-795.5 372.5,-760.5 43.5,-760.5"/>
<text text-anchor="start" x="53.6868" y="-773.3" font-family="Arial Bold" font-size="18.00" fill="#000000">authority.heading_field</text>
<text text-anchor="start" x="234.7452" y="-773.3" font-family="Arial" font-size="14.00" fill="#000000">    </text>
<text text-anchor="start" x="268.95" y="-773.3" font-family="Arial" font-size="14.00" fill="#666666">[BASE TABLE]</text>
<polygon fill="none" stroke="#000000" points="43.5,-730.5 43.5,-760.5 372.5,-760.5 372.5,-730.5 43.5,-730.5"/>
<text text-anchor="start" x="50.5" y="-741.9" font-family="Arial" font-size="14.00" fill="#000000">id    </text>
<text text-anchor="start" x="95.594" y="-741.9" font-family="Arial" font-size="14.00" fill="#666666">[integer]</text>
<polygon fill="none" stroke="#000000" points="43.5,-700.5 43.5,-730.5 372.5,-730.5 372.5,-700.5 43.5,-700.5"/>
<text text-anchor="start" x="50.5" y="-711.9" font-family="Arial" font-size="14.00" fill="#000000">heading_type    </text>
<text text-anchor="start" x="168.7454" y="-711.9" font-family="Arial" font-size="14.00" fill="#666666">[authority.heading_type]</text>
<polygon fill="none" stroke="#000000" points="43.5,-670.5 43.5,-700.5 372.5,-700.5 372.5,-670.5 43.5,-670.5"/>
<text text-anchor="start" x="50.0639" y="-681.9" font-family="Arial" font-size="14.00" fill="#000000">heading_purpose    </text>
<text text-anchor="start" x="192.4271" y="-681.9" font-family="Arial" font-size="14.00" fill="#666666">[authority.heading_purpose]</text>
<polygon fill="none" stroke="#000000" points="43.5,-640.5 43.5,-670.5 372.5,-670.5 372.5,-640.5 43.5,-640.5"/>
<text text-anchor="start" x="50.5" y="-651.9" font-family="Arial" font-size="14.00" fill="#000000">label    </text>
<text text-anchor="start" x="114.2658" y="-651.9" font-family="Arial" font-size="14.00" fill="#666666">[text]</text>
<polygon fill="none" stroke="#000000" points="43.5,-610.5 43.5,-640.5 372.5,-640.5 372.5,-610.5 43.5,-610.5"/>
<text text-anchor="start" x="50.5" y="-621.9" font-family="Arial" font-size="14.00" fill="#000000">format    </text>
<text text-anchor="start" x="124.3724" y="-621.9" font-family="Arial" font-size="14.00" fill="#666666">[text]</text>
<polygon fill="none" stroke="#000000" points="43.5,-580.5 43.5,-610.5 372.5,-610.5 372.5,-580.5 43.5,-580.5"/>
<text text-anchor="start" x="50.5" y="-591.9" font-family="Arial" font-size="14.00" fill="#000000">heading_xpath    </text>
<text text-anchor="start" x="176.528" y="-591.9" font-family="Arial" font-size="14.00" fill="#666666">[text]</text>
<polygon fill="none" stroke="#000000" points="43.5,-550.5 43.5,-580.5 372.5,-580.5 372.5,-550.5 43.5,-550.5"/>
<text text-anchor="start" x="50.5" y="-561.9" font-family="Arial" font-size="14.00" fill="#000000">component_xpath    </text>
<text text-anchor="start" x="195.9726" y="-561.9" font-family="Arial" font-size="14.00" fill="#666666">[text]</text>
<polygon fill="none" stroke="#000000" points="43.5,-520.5 43.5,-550.5 372.5,-550.5 372.5,-520.5 43.5,-520.5"/>
<text text-anchor="start" x="50.5" y="-531.9" font-family="Arial" font-size="14.00" fill="#000000">type_xpath    </text>
<text text-anchor="start" x="153.1816" y="-531.9" font-family="Arial" font-size="14.00" fill="#666666">[text]</text>
<polygon fill="none" stroke="#000000" points="43.5,-490.5 43.5,-520.5 372.5,-520.5 372.5,-490.5 43.5,-490.5"/>
<text text-anchor="start" x="50.5" y="-501.9" font-family="Arial" font-size="14.00" fill="#000000">thesaurus_xpath    </text>
<text text-anchor="start" x="188.19" y="-501.9" font-family="Arial" font-size="14.00" fill="#666666">[text]</text>
<polygon fill="none" stroke="#000000" points="43.5,-460.5 43.5,-490.5 372.5,-490.5 372.5,-460.5 43.5,-460.5"/>
<text text-anchor="start" x="50.5" y="-471.9" font-family="Arial" font-size="14.00" fill="#000000">thesaurus_override_xpath    </text>
<text text-anchor="start" x="246.5308" y="-471.9" font-family="Arial" font-size="14.00" fill="#666666">[text]</text>
<polygon fill="none" stroke="#000000" points="43.5,-430.5 43.5,-460.5 372.5,-460.5 372.5,-430.5 43.5,-430.5"/>
<text text-anchor="start" x="50.5" y="-441.9" font-family="Arial" font-size="14.00" fill="#000000">joiner    </text>
<text text-anchor="start" x="118.9264" y="-441.9" font-family="Arial" font-size="14.00" fill="#666666">[text]</text>
</g>
<!-- authority.heading_field&#45;&gt;config.xml_transform -->
<g id="edge1" class="edge">
<title>authority.heading_field:format&#45;&gt;config.xml_transform:name</title>
<path fill="none" stroke="#000000" d="M382.3714,-623.7036C443.0251,-599.7002 380.3064,-342.2751 423.5,-283 501.7525,-175.6133 558.6265,-150.5 691.5,-150.5"/>
<polygon fill="#000000" stroke="#000000" points="382.3384,-623.7095 371.6943,-621.0727 377.4192,-624.6048 372.5,-625.5 372.5,-625.5 372.5,-625.5 377.4192,-624.6048 373.3057,-629.9273 382.3384,-623.7095 382.3384,-623.7095"/>
<text text-anchor="start" x="220.2775" y="-609.5" font-family="Arial" font-size="10.00" fill="#000000">FOREIGN KEY (format) REFERENCES config.xml_transform(name)</text>
</g>
<!-- config.metabib_field -->
<g id="node3" class="node">
<title>config.metabib_field</title>
<polygon fill="#efefef" stroke="transparent" points="476.5,-865.5 476.5,-900.5 777.5,-900.5 777.5,-865.5 476.5,-865.5"/>
<polygon fill="none" stroke="#000000" points="476.5,-865.5 476.5,-900.5 777.5,-900.5 777.5,-865.5 476.5,-865.5"/>
<text text-anchor="start" x="483.1961" y="-878.3" font-family="Arial Bold" font-size="18.00" fill="#000000">config.metabib_field</text>
<text text-anchor="start" x="643.2359" y="-878.3" font-family="Arial" font-size="14.00" fill="#000000">    </text>
<text text-anchor="start" x="677.4407" y="-878.3" font-family="Arial" font-size="14.00" fill="#666666">[BASE TABLE]</text>
<polygon fill="none" stroke="#000000" points="476.5,-835.5 476.5,-865.5 777.5,-865.5 777.5,-835.5 476.5,-835.5"/>
<text text-anchor="start" x="483.5" y="-846.9" font-family="Arial" font-size="14.00" fill="#000000">id    </text>
<text text-anchor="start" x="528.594" y="-846.9" font-family="Arial" font-size="14.00" fill="#666666">[integer]</text>
<polygon fill="none" stroke="#000000" points="476.5,-805.5 476.5,-835.5 777.5,-835.5 777.5,-805.5 476.5,-805.5"/>
<text text-anchor="start" x="483.5" y="-816.9" font-family="Arial" font-size="14.00" fill="#000000">field_class    </text>
<text text-anchor="start" x="583.0456" y="-816.9" font-family="Arial" font-size="14.00" fill="#666666">[text]</text>
<polygon fill="none" stroke="#000000" points="476.5,-775.5 476.5,-805.5 777.5,-805.5 777.5,-775.5 476.5,-775.5"/>
<text text-anchor="start" x="483.5" y="-786.9" font-family="Arial" font-size="14.00" fill="#000000">name    </text>
<text text-anchor="start" x="552.7132" y="-786.9" font-family="Arial" font-size="14.00" fill="#666666">[text]</text>
<polygon fill="none" stroke="#000000" points="476.5,-745.5 476.5,-775.5 777.5,-775.5 777.5,-745.5 476.5,-745.5"/>
<text text-anchor="start" x="483.5" y="-756.9" font-family="Arial" font-size="14.00" fill="#000000">label    </text>
<text text-anchor="start" x="547.2658" y="-756.9" font-family="Arial" font-size="14.00" fill="#666666">[text]</text>
<polygon fill="none" stroke="#000000" points="476.5,-715.5 476.5,-745.5 777.5,-745.5 777.5,-715.5 476.5,-715.5"/>
<text text-anchor="start" x="483.5" y="-726.9" font-family="Arial" font-size="14.00" fill="#000000">xpath    </text>
<text text-anchor="start" x="551.9432" y="-726.9" font-family="Arial" font-size="14.00" fill="#666666">[text]</text>
<polygon fill="none" stroke="#000000" points="476.5,-685.5 476.5,-715.5 777.5,-715.5 777.5,-685.5 476.5,-685.5"/>
<text text-anchor="start" x="483.5" y="-696.9" font-family="Arial" font-size="14.00" fill="#000000">weight    </text>
<text text-anchor="start" x="558.1564" y="-696.9" font-family="Arial" font-size="14.00" fill="#666666">[integer]</text>
<polygon fill="none" stroke="#000000" points="476.5,-655.5 476.5,-685.5 777.5,-685.5 777.5,-655.5 476.5,-655.5"/>
<text text-anchor="start" x="483.5" y="-666.9" font-family="Arial" font-size="14.00" fill="#000000">format    </text>
<text text-anchor="start" x="557.3724" y="-666.9" font-family="Arial" font-size="14.00" fill="#666666">[text]</text>
<polygon fill="none" stroke="#000000" points="476.5,-625.5 476.5,-655.5 777.5,-655.5 777.5,-625.5 476.5,-625.5"/>
<text text-anchor="start" x="483.5" y="-636.9" font-family="Arial" font-size="14.00" fill="#000000">search_field    </text>
<text text-anchor="start" x="593.1648" y="-636.9" font-family="Arial" font-size="14.00" fill="#666666">[boolean]</text>
<polygon fill="none" stroke="#000000" points="476.5,-595.5 476.5,-625.5 777.5,-625.5 777.5,-595.5 476.5,-595.5"/>
<text text-anchor="start" x="483.5" y="-606.9" font-family="Arial" font-size="14.00" fill="#000000">facet_field    </text>
<text text-anchor="start" x="581.5028" y="-606.9" font-family="Arial" font-size="14.00" fill="#666666">[boolean]</text>
<polygon fill="none" stroke="#000000" points="476.5,-565.5 476.5,-595.5 777.5,-595.5 777.5,-565.5 476.5,-565.5"/>
<text text-anchor="start" x="483.5" y="-576.9" font-family="Arial" font-size="14.00" fill="#000000">browse_field    </text>
<text text-anchor="start" x="596.2714" y="-576.9" font-family="Arial" font-size="14.00" fill="#666666">[boolean]</text>
<polygon fill="none" stroke="#000000" points="476.5,-535.5 476.5,-565.5 777.5,-565.5 777.5,-535.5 476.5,-535.5"/>
<text text-anchor="start" x="483.5" y="-546.9" font-family="Arial" font-size="14.00" fill="#000000">browse_xpath    </text>
<text text-anchor="start" x="604.8408" y="-546.9" font-family="Arial" font-size="14.00" fill="#666666">[text]</text>
<polygon fill="none" stroke="#000000" points="476.5,-505.5 476.5,-535.5 777.5,-535.5 777.5,-505.5 476.5,-505.5"/>
<text text-anchor="start" x="483.5" y="-516.9" font-family="Arial" font-size="14.00" fill="#000000">browse_sort_xpath    </text>
<text text-anchor="start" x="635.9572" y="-516.9" font-family="Arial" font-size="14.00" fill="#666666">[text]</text>
<polygon fill="none" stroke="#000000" points="476.5,-475.5 476.5,-505.5 777.5,-505.5 777.5,-475.5 476.5,-475.5"/>
<text text-anchor="start" x="483.5" y="-486.9" font-family="Arial" font-size="14.00" fill="#000000">facet_xpath    </text>
<text text-anchor="start" x="590.0722" y="-486.9" font-family="Arial" font-size="14.00" fill="#666666">[text]</text>
<polygon fill="none" stroke="#000000" points="476.5,-445.5 476.5,-475.5 777.5,-475.5 777.5,-445.5 476.5,-445.5"/>
<text text-anchor="start" x="483.5" y="-456.9" font-family="Arial" font-size="14.00" fill="#000000">display_xpath    </text>
<text text-anchor="start" x="603.2868" y="-456.9" font-family="Arial" font-size="14.00" fill="#666666">[text]</text>
<polygon fill="none" stroke="#000000" points="476.5,-415.5 476.5,-445.5 777.5,-445.5 777.5,-415.5 476.5,-415.5"/>
<text text-anchor="start" x="483.5" y="-426.9" font-family="Arial" font-size="14.00" fill="#000000">authority_xpath    </text>
<text text-anchor="start" x="613.4046" y="-426.9" font-family="Arial" font-size="14.00" fill="#666666">[text]</text>
<polygon fill="none" stroke="#000000" points="476.5,-385.5 476.5,-415.5 777.5,-415.5 777.5,-385.5 476.5,-385.5"/>
<text text-anchor="start" x="483.5" y="-396.9" font-family="Arial" font-size="14.00" fill="#000000">joiner    </text>
<text text-anchor="start" x="551.9264" y="-396.9" font-family="Arial" font-size="14.00" fill="#666666">[text]</text>
<polygon fill="none" stroke="#000000" points="476.5,-355.5 476.5,-385.5 777.5,-385.5 777.5,-355.5 476.5,-355.5"/>
<text text-anchor="start" x="483.5" y="-366.9" font-family="Arial" font-size="14.00" fill="#000000">restrict    </text>
<text text-anchor="start" x="559.6964" y="-366.9" font-family="Arial" font-size="14.00" fill="#666666">[boolean]</text>
<polygon fill="none" stroke="#000000" points="476.5,-325.5 476.5,-355.5 777.5,-355.5 777.5,-325.5 476.5,-325.5"/>
<text text-anchor="start" x="483.5" y="-336.9" font-family="Arial" font-size="14.00" fill="#000000">display_field    </text>
<text text-anchor="start" x="594.7174" y="-336.9" font-family="Arial" font-size="14.00" fill="#666666">[boolean]</text>
</g>
<!-- config.metabib_field&#45;&gt;config.xml_transform -->
<g id="edge2" class="edge">
<title>config.metabib_field:format&#45;&gt;config.xml_transform:name</title>
<path fill="none" stroke="#000000" d="M786.0813,-664.9617C817.6796,-620.0407 799.583,-316.1838 777.5,-283 754.5439,-248.5043 714.4561,-281.4957 691.5,-247 667.739,-211.2947 648.6111,-150.5 691.5,-150.5"/>
<polygon fill="#000000" stroke="#000000" points="785.9021,-665.0773 775.0598,-666.7191 781.701,-667.7887 777.5,-670.5 777.5,-670.5 777.5,-670.5 781.701,-667.7887 779.9402,-674.2809 785.9021,-665.0773 785.9021,-665.0773"/>
<text text-anchor="start" x="784.2775" y="-680.5" font-family="Arial" font-size="10.00" fill="#000000">FOREIGN KEY (format) REFERENCES config.xml_transform(name)</text>
</g>
<!-- config.record_attr_definition -->
<g id="node4" class="node">
<title>config.record_attr_definition</title>
<polygon fill="#efefef" stroke="transparent" points="881.5,-850.5 881.5,-885.5 1244.5,-885.5 1244.5,-850.5 881.5,-850.5"/>
<polygon fill="none" stroke="#000000" points="881.5,-850.5 881.5,-885.5 1244.5,-885.5 1244.5,-850.5 881.5,-850.5"/>
<text text-anchor="start" x="888.1893" y="-863.3" font-family="Arial Bold" font-size="18.00" fill="#000000">config.record_attr_definition</text>
<text text-anchor="start" x="1110.2427" y="-863.3" font-family="Arial" font-size="14.00" fill="#000000">    </text>
<text text-anchor="start" x="1144.4475" y="-863.3" font-family="Arial" font-size="14.00" fill="#666666">[BASE TABLE]</text>
<polygon fill="none" stroke="#000000" points="881.5,-820.5 881.5,-850.5 1244.5,-850.5 1244.5,-820.5 881.5,-820.5"/>
<text text-anchor="start" x="888.5" y="-831.9" font-family="Arial" font-size="14.00" fill="#000000">name    </text>
<text text-anchor="start" x="957.7132" y="-831.9" font-family="Arial" font-size="14.00" fill="#666666">[text]</text>
<polygon fill="none" stroke="#000000" points="881.5,-790.5 881.5,-820.5 1244.5,-820.5 1244.5,-790.5 881.5,-790.5"/>
<text text-anchor="start" x="888.5" y="-801.9" font-family="Arial" font-size="14.00" fill="#000000">label    </text>
<text text-anchor="start" x="952.2658" y="-801.9" font-family="Arial" font-size="14.00" fill="#666666">[text]</text>
<polygon fill="none" stroke="#000000" points="881.5,-760.5 881.5,-790.5 1244.5,-790.5 1244.5,-760.5 881.5,-760.5"/>
<text text-anchor="start" x="888.5" y="-771.9" font-family="Arial" font-size="14.00" fill="#000000">description    </text>
<text text-anchor="start" x="990.3822" y="-771.9" font-family="Arial" font-size="14.00" fill="#666666">[text]</text>
<polygon fill="none" stroke="#000000" points="881.5,-730.5 881.5,-760.5 1244.5,-760.5 1244.5,-730.5 881.5,-730.5"/>
<text text-anchor="start" x="888.5" y="-741.9" font-family="Arial" font-size="14.00" fill="#000000">multi    </text>
<text text-anchor="start" x="952.2518" y="-741.9" font-family="Arial" font-size="14.00" fill="#666666">[boolean]</text>
<polygon fill="none" stroke="#000000" points="881.5,-700.5 881.5,-730.5 1244.5,-730.5 1244.5,-700.5 881.5,-700.5"/>
<text text-anchor="start" x="888.5" y="-711.9" font-family="Arial" font-size="14.00" fill="#000000">filter    </text>
<text text-anchor="start" x="949.1424" y="-711.9" font-family="Arial" font-size="14.00" fill="#666666">[boolean]</text>
<polygon fill="none" stroke="#000000" points="881.5,-670.5 881.5,-700.5 1244.5,-700.5 1244.5,-670.5 881.5,-670.5"/>
<text text-anchor="start" x="888.5" y="-681.9" font-family="Arial" font-size="14.00" fill="#000000">sorter    </text>
<text text-anchor="start" x="958.4818" y="-681.9" font-family="Arial" font-size="14.00" fill="#666666">[boolean]</text>
<polygon fill="none" stroke="#000000" points="881.5,-640.5 881.5,-670.5 1244.5,-670.5 1244.5,-640.5 881.5,-640.5"/>
<text text-anchor="start" x="888.5" y="-651.9" font-family="Arial" font-size="14.00" fill="#000000">composite    </text>
<text text-anchor="start" x="986.493" y="-651.9" font-family="Arial" font-size="14.00" fill="#666666">[boolean]</text>
<polygon fill="none" stroke="#000000" points="881.5,-610.5 881.5,-640.5 1244.5,-640.5 1244.5,-610.5 881.5,-610.5"/>
<text text-anchor="start" x="888.5" y="-621.9" font-family="Arial" font-size="14.00" fill="#000000">tag    </text>
<text text-anchor="start" x="942.1606" y="-621.9" font-family="Arial" font-size="14.00" fill="#666666">[text]</text>
<polygon fill="none" stroke="#000000" points="881.5,-580.5 881.5,-610.5 1244.5,-610.5 1244.5,-580.5 881.5,-580.5"/>
<text text-anchor="start" x="888.5" y="-591.9" font-family="Arial" font-size="14.00" fill="#000000">sf_list    </text>
<text text-anchor="start" x="958.4818" y="-591.9" font-family="Arial" font-size="14.00" fill="#666666">[text]</text>
<polygon fill="none" stroke="#000000" points="881.5,-550.5 881.5,-580.5 1244.5,-580.5 1244.5,-550.5 881.5,-550.5"/>
<text text-anchor="start" x="888.5" y="-561.9" font-family="Arial" font-size="14.00" fill="#000000">joiner    </text>
<text text-anchor="start" x="956.9264" y="-561.9" font-family="Arial" font-size="14.00" fill="#666666">[text]</text>
<polygon fill="none" stroke="#000000" points="881.5,-520.5 881.5,-550.5 1244.5,-550.5 1244.5,-520.5 881.5,-520.5"/>
<text text-anchor="start" x="888.5" y="-531.9" font-family="Arial" font-size="14.00" fill="#000000">xpath    </text>
<text text-anchor="start" x="956.9432" y="-531.9" font-family="Arial" font-size="14.00" fill="#666666">[text]</text>
<polygon fill="none" stroke="#000000" points="881.5,-490.5 881.5,-520.5 1244.5,-520.5 1244.5,-490.5 881.5,-490.5"/>
<text text-anchor="start" x="888.5" y="-501.9" font-family="Arial" font-size="14.00" fill="#000000">format    </text>
<text text-anchor="start" x="962.3724" y="-501.9" font-family="Arial" font-size="14.00" fill="#666666">[text]</text>
<polygon fill="none" stroke="#000000" points="881.5,-460.5 881.5,-490.5 1244.5,-490.5 1244.5,-460.5 881.5,-460.5"/>
<text text-anchor="start" x="888.5" y="-471.9" font-family="Arial" font-size="14.00" fill="#000000">start_pos    </text>
<text text-anchor="start" x="980.277" y="-471.9" font-family="Arial" font-size="14.00" fill="#666666">[integer]</text>
<polygon fill="none" stroke="#000000" points="881.5,-430.5 881.5,-460.5 1244.5,-460.5 1244.5,-430.5 881.5,-430.5"/>
<text text-anchor="start" x="888.5" y="-441.9" font-family="Arial" font-size="14.00" fill="#000000">string_len    </text>
<text text-anchor="start" x="983.3822" y="-441.9" font-family="Arial" font-size="14.00" fill="#666666">[integer]</text>
<polygon fill="none" stroke="#000000" points="881.5,-400.5 881.5,-430.5 1244.5,-430.5 1244.5,-400.5 881.5,-400.5"/>
<text text-anchor="start" x="888.5" y="-411.9" font-family="Arial" font-size="14.00" fill="#000000">fixed_field    </text>
<text text-anchor="start" x="985.7188" y="-411.9" font-family="Arial" font-size="14.00" fill="#666666">[text]</text>
<polygon fill="none" stroke="#000000" points="881.5,-370.5 881.5,-400.5 1244.5,-400.5 1244.5,-370.5 881.5,-370.5"/>
<text text-anchor="start" x="888.5" y="-381.9" font-family="Arial" font-size="14.00" fill="#000000">phys_char_sf    </text>
<text text-anchor="start" x="1005.9516" y="-381.9" font-family="Arial" font-size="14.00" fill="#666666">[integer]</text>
<polygon fill="none" stroke="#000000" points="881.5,-340.5 881.5,-370.5 1244.5,-370.5 1244.5,-340.5 881.5,-340.5"/>
<text text-anchor="start" x="888.5" y="-351.9" font-family="Arial" font-size="14.00" fill="#000000">vocabulary    </text>
<text text-anchor="start" x="990.385" y="-351.9" font-family="Arial" font-size="14.00" fill="#666666">[text]</text>
</g>
<!-- config.record_attr_definition&#45;&gt;config.xml_transform -->
<g id="edge3" class="edge">
<title>config.record_attr_definition:format&#45;&gt;config.xml_transform:name</title>
<path fill="none" stroke="#000000" d="M871.8879,-502.5489C838.6645,-479.8952 858.1538,-333.5238 881.5,-298 912.8782,-250.2548 968.1218,-294.7452 999.5,-247 1023.0551,-211.1585 1042.3889,-150.5 999.5,-150.5"/>
<polygon fill="#000000" stroke="#000000" points="871.9404,-502.565 880.1792,-509.8018 876.7202,-504.0325 881.5,-505.5 881.5,-505.5 881.5,-505.5 876.7202,-504.0325 882.8208,-501.1982 871.9404,-502.565 871.9404,-502.565"/>
<text text-anchor="start" x="888.9365" y="-515.5" font-family="Arial" font-size="10.00" fill="#000000">FOREIGN KEY (format) REFERENCES config.xml_transform(name) ON DELETE CASCADE DEFERRABLE INITIALLY DEFERRED</text>
</g>
<!-- unapi.bre_output_layout -->
<g id="node5" class="node">
<title>unapi.bre_output_layout</title>
<polygon fill="#efefef" stroke="transparent" points="1348.5,-730.5 1348.5,-765.5 1682.5,-765.5 1682.5,-730.5 1348.5,-730.5"/>
<polygon fill="none" stroke="#000000" points="1348.5,-730.5 1348.5,-765.5 1682.5,-765.5 1682.5,-730.5 1348.5,-730.5"/>
<text text-anchor="start" x="1355.1748" y="-743.3" font-family="Arial Bold" font-size="18.00" fill="#000000">unapi.bre_output_layout</text>
<text text-anchor="start" x="1548.2572" y="-743.3" font-family="Arial" font-size="14.00" fill="#000000">    </text>
<text text-anchor="start" x="1582.462" y="-743.3" font-family="Arial" font-size="14.00" fill="#666666">[BASE TABLE]</text>
<polygon fill="none" stroke="#000000" points="1348.5,-700.5 1348.5,-730.5 1682.5,-730.5 1682.5,-700.5 1348.5,-700.5"/>
<text text-anchor="start" x="1355.5" y="-711.9" font-family="Arial" font-size="14.00" fill="#000000">name    </text>
<text text-anchor="start" x="1424.7132" y="-711.9" font-family="Arial" font-size="14.00" fill="#666666">[text]</text>
<polygon fill="none" stroke="#000000" points="1348.5,-670.5 1348.5,-700.5 1682.5,-700.5 1682.5,-670.5 1348.5,-670.5"/>
<text text-anchor="start" x="1355.5" y="-681.9" font-family="Arial" font-size="14.00" fill="#000000">transform    </text>
<text text-anchor="start" x="1448.8156" y="-681.9" font-family="Arial" font-size="14.00" fill="#666666">[text]</text>
<polygon fill="none" stroke="#000000" points="1348.5,-640.5 1348.5,-670.5 1682.5,-670.5 1682.5,-640.5 1348.5,-640.5"/>
<text text-anchor="start" x="1355.5" y="-651.9" font-family="Arial" font-size="14.00" fill="#000000">mime_type    </text>
<text text-anchor="start" x="1458.1536" y="-651.9" font-family="Arial" font-size="14.00" fill="#666666">[text]</text>
<polygon fill="none" stroke="#000000" points="1348.5,-610.5 1348.5,-640.5 1682.5,-640.5 1682.5,-610.5 1348.5,-610.5"/>
<text text-anchor="start" x="1355.5" y="-621.9" font-family="Arial" font-size="14.00" fill="#000000">feed_top    </text>
<text text-anchor="start" x="1444.1816" y="-621.9" font-family="Arial" font-size="14.00" fill="#666666">[text]</text>
<polygon fill="none" stroke="#000000" points="1348.5,-580.5 1348.5,-610.5 1682.5,-610.5 1682.5,-580.5 1348.5,-580.5"/>
<text text-anchor="start" x="1355.5" y="-591.9" font-family="Arial" font-size="14.00" fill="#000000">holdings_element    </text>
<text text-anchor="start" x="1499.4018" y="-591.9" font-family="Arial" font-size="14.00" fill="#666666">[text]</text>
<polygon fill="none" stroke="#000000" points="1348.5,-550.5 1348.5,-580.5 1682.5,-580.5 1682.5,-550.5 1348.5,-550.5"/>
<text text-anchor="start" x="1355.5" y="-561.9" font-family="Arial" font-size="14.00" fill="#000000">title_element    </text>
<text text-anchor="start" x="1469.0526" y="-561.9" font-family="Arial" font-size="14.00" fill="#666666">[text]</text>
<polygon fill="none" stroke="#000000" points="1348.5,-520.5 1348.5,-550.5 1682.5,-550.5 1682.5,-520.5 1348.5,-520.5"/>
<text text-anchor="start" x="1355.5" y="-531.9" font-family="Arial" font-size="14.00" fill="#000000">description_element    </text>
<text text-anchor="start" x="1514.953" y="-531.9" font-family="Arial" font-size="14.00" fill="#666666">[text]</text>
<polygon fill="none" stroke="#000000" points="1348.5,-490.5 1348.5,-520.5 1682.5,-520.5 1682.5,-490.5 1348.5,-490.5"/>
<text text-anchor="start" x="1355.5" y="-501.9" font-family="Arial" font-size="14.00" fill="#000000">creator_element    </text>
<text text-anchor="start" x="1490.8352" y="-501.9" font-family="Arial" font-size="14.00" fill="#666666">[text]</text>
<polygon fill="none" stroke="#000000" points="1348.5,-460.5 1348.5,-490.5 1682.5,-490.5 1682.5,-460.5 1348.5,-460.5"/>
<text text-anchor="start" x="1355.5" y="-471.9" font-family="Arial" font-size="14.00" fill="#000000">update_ts_element    </text>
<text text-anchor="start" x="1508.7524" y="-471.9" font-family="Arial" font-size="14.00" fill="#666666">[text]</text>
</g>
<!-- unapi.bre_output_layout&#45;&gt;config.xml_transform -->
<g id="edge4" class="edge">
<title>unapi.bre_output_layout:transform&#45;&gt;config.xml_transform:name</title>
<path fill="none" stroke="#000000" d="M1338.2997,-683.8743C1265.6165,-658.851 1348.1384,-352.3813 1296.5,-283 1210.2016,-167.0496 1144.0403,-150.5 999.5,-150.5"/>
<polygon fill="#000000" stroke="#000000" points="1338.6246,-683.9261 1347.7917,-689.9439 1343.5623,-684.713 1348.5,-685.5 1348.5,-685.5 1348.5,-685.5 1343.5623,-684.713 1349.2083,-681.0561 1338.6246,-683.9261 1338.6246,-683.9261"/>
<text text-anchor="start" x="1355.8815" y="-695.5" font-family="Arial" font-size="10.00" fill="#000000">FOREIGN KEY (transform) REFERENCES config.xml_transform(name) ON UPDATE CASCADE ON DELETE CASCADE DEFERRABLE INITIALLY DEFERRED</text>
</g>
</g>
</svg>
