<?xml version="1.0" encoding="UTF-8" standalone="no"?>
<!DOCTYPE svg PUBLIC "-//W3C//DTD SVG 1.1//EN"
 "http://www.w3.org/Graphics/SVG/1.1/DTD/svg11.dtd">
<!-- Generated by graphviz version 2.40.1 (20161225.0304)
 -->
<!-- Title: config.circ_matrix_limit_set_map Pages: 1 -->
<svg width="1647pt" height="1342pt"
 viewBox="0.00 0.00 1647.00 1342.00" xmlns="http://www.w3.org/2000/svg" xmlns:xlink="http://www.w3.org/1999/xlink">
<g id="graph0" class="graph" transform="scale(1 1) rotate(0) translate(4 1338)">
<title>config.circ_matrix_limit_set_map</title>
<polygon fill="#ffffff" stroke="transparent" points="-4,4 -4,-1338 1643,-1338 1643,4 -4,4"/>
<!-- config.circ_matrix_limit_set_map -->
<g id="node1" class="node">
<title>config.circ_matrix_limit_set_map</title>
<polygon fill="#efefef" stroke="transparent" points="647,-1252.5 647,-1287.5 1049,-1287.5 1049,-1252.5 647,-1252.5"/>
<polygon fill="none" stroke="#000000" points="647,-1252.5 647,-1287.5 1049,-1287.5 1049,-1252.5 647,-1252.5"/>
<text text-anchor="start" x="653.7133" y="-1265.3" font-family="Arial Bold" font-size="18.00" fill="#000000">config.circ_matrix_limit_set_map</text>
<text text-anchor="start" x="914.7187" y="-1265.3" font-family="Arial" font-size="14.00" fill="#000000">    </text>
<text text-anchor="start" x="948.9235" y="-1265.3" font-family="Arial" font-size="14.00" fill="#666666">[BASE TABLE]</text>
<polygon fill="none" stroke="#000000" points="647,-1222.5 647,-1252.5 1049,-1252.5 1049,-1222.5 647,-1222.5"/>
<text text-anchor="start" x="654" y="-1233.9" font-family="Arial" font-size="14.00" fill="#000000">id </text>
<text text-anchor="start" x="668.7798" y="-1233.9" font-family="Arial" font-size="14.00" fill="#666666">[integer]</text>
<polygon fill="none" stroke="#000000" points="647,-1192.5 647,-1222.5 1049,-1222.5 1049,-1192.5 647,-1192.5"/>
<text text-anchor="start" x="654" y="-1203.9" font-family="Arial" font-size="14.00" fill="#000000">matchpoint </text>
<text text-anchor="start" x="726.352" y="-1203.9" font-family="Arial" font-size="14.00" fill="#666666">[integer]</text>
<polygon fill="none" stroke="#000000" points="647,-1162.5 647,-1192.5 1049,-1192.5 1049,-1162.5 647,-1162.5"/>
<text text-anchor="start" x="654" y="-1173.9" font-family="Arial" font-size="14.00" fill="#000000">limit_set </text>
<text text-anchor="start" x="709.2174" y="-1173.9" font-family="Arial" font-size="14.00" fill="#666666">[integer]</text>
<polygon fill="none" stroke="#000000" points="647,-1132.5 647,-1162.5 1049,-1162.5 1049,-1132.5 647,-1132.5"/>
<text text-anchor="start" x="654" y="-1143.9" font-family="Arial" font-size="14.00" fill="#000000">fallthrough </text>
<text text-anchor="start" x="723.2412" y="-1143.9" font-family="Arial" font-size="14.00" fill="#666666">[boolean]</text>
<polygon fill="none" stroke="#000000" points="647,-1102.5 647,-1132.5 1049,-1132.5 1049,-1102.5 647,-1102.5"/>
<text text-anchor="start" x="654" y="-1113.9" font-family="Arial" font-size="14.00" fill="#000000">active </text>
<text text-anchor="start" x="694.453" y="-1113.9" font-family="Arial" font-size="14.00" fill="#666666">[boolean]</text>
<polygon fill="none" stroke="#000000" stroke-width="3" points="645.5,-1101.5 645.5,-1289.5 1050.5,-1289.5 1050.5,-1101.5 645.5,-1101.5"/>
</g>
<!-- config.circ_matrix_matchpoint -->
<g id="node2" class="node">
<title>config.circ_matrix_matchpoint</title>
<polygon fill="#efefef" stroke="transparent" points="437,-942.5 437,-977.5 816,-977.5 816,-942.5 437,-942.5"/>
<polygon fill="none" stroke="#000000" points="437,-942.5 437,-977.5 816,-977.5 816,-942.5 437,-942.5"/>
<text text-anchor="start" x="443.7036" y="-955.3" font-family="Arial Bold" font-size="18.00" fill="#000000">config.circ_matrix_matchpoint</text>
<text text-anchor="start" x="681.7284" y="-955.3" font-family="Arial" font-size="14.00" fill="#000000">    </text>
<text text-anchor="start" x="715.9332" y="-955.3" font-family="Arial" font-size="14.00" fill="#666666">[BASE TABLE]</text>
<polygon fill="none" stroke="#000000" points="437,-912.5 437,-942.5 816,-942.5 816,-912.5 437,-912.5"/>
<text text-anchor="start" x="444" y="-923.9" font-family="Arial" font-size="14.00" fill="#000000">id    </text>
<text text-anchor="start" x="489.094" y="-923.9" font-family="Arial" font-size="14.00" fill="#666666">[integer]</text>
<polygon fill="none" stroke="#000000" points="437,-882.5 437,-912.5 816,-912.5 816,-882.5 437,-882.5"/>
<text text-anchor="start" x="444" y="-893.9" font-family="Arial" font-size="14.00" fill="#000000">active    </text>
<text text-anchor="start" x="514.7672" y="-893.9" font-family="Arial" font-size="14.00" fill="#666666">[boolean]</text>
<polygon fill="none" stroke="#000000" points="437,-852.5 437,-882.5 816,-882.5 816,-852.5 437,-852.5"/>
<text text-anchor="start" x="444" y="-863.9" font-family="Arial" font-size="14.00" fill="#000000">org_unit    </text>
<text text-anchor="start" x="528.7756" y="-863.9" font-family="Arial" font-size="14.00" fill="#666666">[integer]</text>
<polygon fill="none" stroke="#000000" points="437,-822.5 437,-852.5 816,-852.5 816,-822.5 437,-822.5"/>
<text text-anchor="start" x="444" y="-833.9" font-family="Arial" font-size="14.00" fill="#000000">grp    </text>
<text text-anchor="start" x="498.4306" y="-833.9" font-family="Arial" font-size="14.00" fill="#666666">[integer]</text>
<polygon fill="none" stroke="#000000" points="437,-792.5 437,-822.5 816,-822.5 816,-792.5 437,-792.5"/>
<text text-anchor="start" x="444" y="-803.9" font-family="Arial" font-size="14.00" fill="#000000">circ_modifier    </text>
<text text-anchor="start" x="557.5274" y="-803.9" font-family="Arial" font-size="14.00" fill="#666666">[text]</text>
<polygon fill="none" stroke="#000000" points="437,-762.5 437,-792.5 816,-792.5 816,-762.5 437,-762.5"/>
<text text-anchor="start" x="444" y="-773.9" font-family="Arial" font-size="14.00" fill="#000000">copy_location    </text>
<text text-anchor="start" x="563.7868" y="-773.9" font-family="Arial" font-size="14.00" fill="#666666">[integer]</text>
<polygon fill="none" stroke="#000000" points="437,-732.5 437,-762.5 816,-762.5 816,-732.5 437,-732.5"/>
<text text-anchor="start" x="444" y="-743.9" font-family="Arial" font-size="14.00" fill="#000000">marc_type    </text>
<text text-anchor="start" x="543.547" y="-743.9" font-family="Arial" font-size="14.00" fill="#666666">[text]</text>
<polygon fill="none" stroke="#000000" points="437,-702.5 437,-732.5 816,-732.5 816,-702.5 437,-702.5"/>
<text text-anchor="start" x="444" y="-713.9" font-family="Arial" font-size="14.00" fill="#000000">marc_form    </text>
<text text-anchor="start" x="545.0856" y="-713.9" font-family="Arial" font-size="14.00" fill="#666666">[text]</text>
<polygon fill="none" stroke="#000000" points="437,-672.5 437,-702.5 816,-702.5 816,-672.5 437,-672.5"/>
<text text-anchor="start" x="444" y="-683.9" font-family="Arial" font-size="14.00" fill="#000000">marc_bib_level    </text>
<text text-anchor="start" x="572.324" y="-683.9" font-family="Arial" font-size="14.00" fill="#666666">[text]</text>
<polygon fill="none" stroke="#000000" points="437,-642.5 437,-672.5 816,-672.5 816,-642.5 437,-642.5"/>
<text text-anchor="start" x="444" y="-653.9" font-family="Arial" font-size="14.00" fill="#000000">marc_vr_format    </text>
<text text-anchor="start" x="576.202" y="-653.9" font-family="Arial" font-size="14.00" fill="#666666">[text]</text>
<polygon fill="none" stroke="#000000" points="437,-612.5 437,-642.5 816,-642.5 816,-612.5 437,-612.5"/>
<text text-anchor="start" x="444" y="-623.9" font-family="Arial" font-size="14.00" fill="#000000">copy_circ_lib    </text>
<text text-anchor="start" x="559.0982" y="-623.9" font-family="Arial" font-size="14.00" fill="#666666">[integer]</text>
<polygon fill="none" stroke="#000000" points="437,-582.5 437,-612.5 816,-612.5 816,-582.5 437,-582.5"/>
<text text-anchor="start" x="444" y="-593.9" font-family="Arial" font-size="14.00" fill="#000000">copy_owning_lib    </text>
<text text-anchor="start" x="581.6746" y="-593.9" font-family="Arial" font-size="14.00" fill="#666666">[integer]</text>
<polygon fill="none" stroke="#000000" points="437,-552.5 437,-582.5 816,-582.5 816,-552.5 437,-552.5"/>
<text text-anchor="start" x="444" y="-563.9" font-family="Arial" font-size="14.00" fill="#000000">user_home_ou    </text>
<text text-anchor="start" x="571.5694" y="-563.9" font-family="Arial" font-size="14.00" fill="#666666">[integer]</text>
<polygon fill="none" stroke="#000000" points="437,-522.5 437,-552.5 816,-552.5 816,-522.5 437,-522.5"/>
<text text-anchor="start" x="444" y="-533.9" font-family="Arial" font-size="14.00" fill="#000000">ref_flag    </text>
<text text-anchor="start" x="524.8836" y="-533.9" font-family="Arial" font-size="14.00" fill="#666666">[boolean]</text>
<polygon fill="none" stroke="#000000" points="437,-492.5 437,-522.5 816,-522.5 816,-492.5 437,-492.5"/>
<text text-anchor="start" x="444" y="-503.9" font-family="Arial" font-size="14.00" fill="#000000">juvenile_flag    </text>
<text text-anchor="start" x="556" y="-503.9" font-family="Arial" font-size="14.00" fill="#666666">[boolean]</text>
<polygon fill="none" stroke="#000000" points="437,-462.5 437,-492.5 816,-492.5 816,-462.5 437,-462.5"/>
<text text-anchor="start" x="444" y="-473.9" font-family="Arial" font-size="14.00" fill="#000000">is_renewal    </text>
<text text-anchor="start" x="545.0982" y="-473.9" font-family="Arial" font-size="14.00" fill="#666666">[boolean]</text>
<polygon fill="none" stroke="#000000" points="437,-432.5 437,-462.5 816,-462.5 816,-432.5 437,-432.5"/>
<text text-anchor="start" x="444" y="-443.9" font-family="Arial" font-size="14.00" fill="#000000">usr_age_lower_bound    </text>
<text text-anchor="start" x="616.6956" y="-443.9" font-family="Arial" font-size="14.00" fill="#666666">[interval]</text>
<polygon fill="none" stroke="#000000" points="437,-402.5 437,-432.5 816,-432.5 816,-402.5 437,-402.5"/>
<text text-anchor="start" x="444" y="-413.9" font-family="Arial" font-size="14.00" fill="#000000">usr_age_upper_bound    </text>
<text text-anchor="start" x="619.0476" y="-413.9" font-family="Arial" font-size="14.00" fill="#666666">[interval]</text>
<polygon fill="none" stroke="#000000" points="437,-372.5 437,-402.5 816,-402.5 816,-372.5 437,-372.5"/>
<text text-anchor="start" x="444" y="-383.9" font-family="Arial" font-size="14.00" fill="#000000">item_age    </text>
<text text-anchor="start" x="535.7756" y="-383.9" font-family="Arial" font-size="14.00" fill="#666666">[interval]</text>
<polygon fill="none" stroke="#000000" points="437,-342.5 437,-372.5 816,-372.5 816,-342.5 437,-342.5"/>
<text text-anchor="start" x="444" y="-353.9" font-family="Arial" font-size="14.00" fill="#000000">circulate    </text>
<text text-anchor="start" x="530.317" y="-353.9" font-family="Arial" font-size="14.00" fill="#666666">[boolean]</text>
<polygon fill="none" stroke="#000000" points="437,-312.5 437,-342.5 816,-342.5 816,-312.5 437,-312.5"/>
<text text-anchor="start" x="444" y="-323.9" font-family="Arial" font-size="14.00" fill="#000000">duration_rule    </text>
<text text-anchor="start" x="559.8906" y="-323.9" font-family="Arial" font-size="14.00" fill="#666666">[integer]</text>
<polygon fill="none" stroke="#000000" points="437,-282.5 437,-312.5 816,-312.5 816,-282.5 437,-282.5"/>
<text text-anchor="start" x="444" y="-293.9" font-family="Arial" font-size="14.00" fill="#000000">recurring_fine_rule    </text>
<text text-anchor="start" x="594.8836" y="-293.9" font-family="Arial" font-size="14.00" fill="#666666">[integer]</text>
<polygon fill="none" stroke="#000000" points="437,-252.5 437,-282.5 816,-282.5 816,-252.5 437,-252.5"/>
<text text-anchor="start" x="444" y="-263.9" font-family="Arial" font-size="14.00" fill="#000000">max_fine_rule    </text>
<text text-anchor="start" x="566.108" y="-263.9" font-family="Arial" font-size="14.00" fill="#666666">[integer]</text>
<polygon fill="none" stroke="#000000" points="437,-222.5 437,-252.5 816,-252.5 816,-222.5 437,-222.5"/>
<text text-anchor="start" x="444" y="-233.9" font-family="Arial" font-size="14.00" fill="#000000">hard_due_date    </text>
<text text-anchor="start" x="572.3646" y="-233.9" font-family="Arial" font-size="14.00" fill="#666666">[integer]</text>
<polygon fill="none" stroke="#000000" points="437,-192.5 437,-222.5 816,-222.5 816,-192.5 437,-192.5"/>
<text text-anchor="start" x="444" y="-203.9" font-family="Arial" font-size="14.00" fill="#000000">renewals    </text>
<text text-anchor="start" x="534.209" y="-203.9" font-family="Arial" font-size="14.00" fill="#666666">[integer]</text>
<polygon fill="none" stroke="#000000" points="437,-162.5 437,-192.5 816,-192.5 816,-162.5 437,-162.5"/>
<text text-anchor="start" x="444" y="-173.9" font-family="Arial" font-size="14.00" fill="#000000">grace_period    </text>
<text text-anchor="start" x="559.8934" y="-173.9" font-family="Arial" font-size="14.00" fill="#666666">[interval]</text>
<polygon fill="none" stroke="#000000" points="437,-132.5 437,-162.5 816,-162.5 816,-132.5 437,-132.5"/>
<text text-anchor="start" x="444" y="-143.9" font-family="Arial" font-size="14.00" fill="#000000">script_test    </text>
<text text-anchor="start" x="541.9916" y="-143.9" font-family="Arial" font-size="14.00" fill="#666666">[text]</text>
<polygon fill="none" stroke="#000000" points="437,-102.5 437,-132.5 816,-132.5 816,-102.5 437,-102.5"/>
<text text-anchor="start" x="444" y="-113.9" font-family="Arial" font-size="14.00" fill="#000000">total_copy_hold_ratio    </text>
<text text-anchor="start" x="611.2482" y="-113.9" font-family="Arial" font-size="14.00" fill="#666666">[double precision]</text>
<polygon fill="none" stroke="#000000" points="437,-72.5 437,-102.5 816,-102.5 816,-72.5 437,-72.5"/>
<text text-anchor="start" x="444" y="-83.9" font-family="Arial" font-size="14.00" fill="#000000">available_copy_hold_ratio    </text>
<text text-anchor="start" x="640.028" y="-83.9" font-family="Arial" font-size="14.00" fill="#666666">[double precision]</text>
<polygon fill="none" stroke="#000000" points="437,-42.5 437,-72.5 816,-72.5 816,-42.5 437,-42.5"/>
<text text-anchor="start" x="444" y="-53.9" font-family="Arial" font-size="14.00" fill="#000000">description    </text>
<text text-anchor="start" x="545.8822" y="-53.9" font-family="Arial" font-size="14.00" fill="#666666">[text]</text>
</g>
<!-- config.circ_matrix_limit_set_map&#45;&gt;config.circ_matrix_matchpoint -->
<g id="edge1" class="edge">
<title>config.circ_matrix_limit_set_map:matchpoint&#45;&gt;config.circ_matrix_matchpoint:id</title>
<path fill="none" stroke="#000000" d="M636.8366,-1206.6399C582.8759,-1196.8648 607.2183,-1106.1484 647,-1057 695.3163,-997.3074 767.6837,-1080.6926 816,-1021 842.1446,-988.6995 857.5556,-927.5 816,-927.5"/>
<polygon fill="#000000" stroke="#000000" points="637.0356,-1206.6566 646.6205,-1211.984 642.0178,-1207.0783 647,-1207.5 647,-1207.5 647,-1207.5 642.0178,-1207.0783 647.3795,-1203.016 637.0356,-1206.6566 637.0356,-1206.6566"/>
<text text-anchor="start" x="7.0405" y="-1217.5" font-family="Arial" font-size="10.00" fill="#000000">FOREIGN KEY (matchpoint) REFERENCES config.circ_matrix_matchpoint(id) ON DELETE CASCADE DEFERRABLE INITIALLY DEFERRED</text>
</g>
<!-- config.circ_limit_set -->
<g id="node3" class="node">
<title>config.circ_limit_set</title>
<polygon fill="#efefef" stroke="transparent" points="920,-597.5 920,-632.5 1218,-632.5 1218,-597.5 920,-597.5"/>
<polygon fill="none" stroke="#000000" points="920,-597.5 920,-632.5 1218,-632.5 1218,-597.5 920,-597.5"/>
<text text-anchor="start" x="926.7153" y="-610.3" font-family="Arial Bold" font-size="18.00" fill="#000000">config.circ_limit_set</text>
<text text-anchor="start" x="1083.7167" y="-610.3" font-family="Arial" font-size="14.00" fill="#000000">    </text>
<text text-anchor="start" x="1117.9215" y="-610.3" font-family="Arial" font-size="14.00" fill="#666666">[BASE TABLE]</text>
<polygon fill="none" stroke="#000000" points="920,-567.5 920,-597.5 1218,-597.5 1218,-567.5 920,-567.5"/>
<text text-anchor="start" x="927" y="-578.9" font-family="Arial" font-size="14.00" fill="#000000">id    </text>
<text text-anchor="start" x="972.094" y="-578.9" font-family="Arial" font-size="14.00" fill="#666666">[integer]</text>
<polygon fill="none" stroke="#000000" points="920,-537.5 920,-567.5 1218,-567.5 1218,-537.5 920,-537.5"/>
<text text-anchor="start" x="927" y="-548.9" font-family="Arial" font-size="14.00" fill="#000000">name    </text>
<text text-anchor="start" x="996.2132" y="-548.9" font-family="Arial" font-size="14.00" fill="#666666">[text]</text>
<polygon fill="none" stroke="#000000" points="920,-507.5 920,-537.5 1218,-537.5 1218,-507.5 920,-507.5"/>
<text text-anchor="start" x="927" y="-518.9" font-family="Arial" font-size="14.00" fill="#000000">owning_lib    </text>
<text text-anchor="start" x="1027.3268" y="-518.9" font-family="Arial" font-size="14.00" fill="#666666">[integer]</text>
<polygon fill="none" stroke="#000000" points="920,-477.5 920,-507.5 1218,-507.5 1218,-477.5 920,-477.5"/>
<text text-anchor="start" x="927" y="-488.9" font-family="Arial" font-size="14.00" fill="#000000">items_out    </text>
<text text-anchor="start" x="1021.8836" y="-488.9" font-family="Arial" font-size="14.00" fill="#666666">[integer]</text>
<polygon fill="none" stroke="#000000" points="920,-447.5 920,-477.5 1218,-477.5 1218,-447.5 920,-447.5"/>
<text text-anchor="start" x="927" y="-458.9" font-family="Arial" font-size="14.00" fill="#000000">depth    </text>
<text text-anchor="start" x="996.2258" y="-458.9" font-family="Arial" font-size="14.00" fill="#666666">[integer]</text>
<polygon fill="none" stroke="#000000" points="920,-417.5 920,-447.5 1218,-447.5 1218,-417.5 920,-417.5"/>
<text text-anchor="start" x="927" y="-428.9" font-family="Arial" font-size="14.00" fill="#000000">global    </text>
<text text-anchor="start" x="998.5484" y="-428.9" font-family="Arial" font-size="14.00" fill="#666666">[boolean]</text>
<polygon fill="none" stroke="#000000" points="920,-387.5 920,-417.5 1218,-417.5 1218,-387.5 920,-387.5"/>
<text text-anchor="start" x="927" y="-398.9" font-family="Arial" font-size="14.00" fill="#000000">description    </text>
<text text-anchor="start" x="1028.8822" y="-398.9" font-family="Arial" font-size="14.00" fill="#666666">[text]</text>
</g>
<!-- config.circ_matrix_limit_set_map&#45;&gt;config.circ_limit_set -->
<g id="edge2" class="edge">
<title>config.circ_matrix_limit_set_map:limit_set&#45;&gt;config.circ_limit_set:id</title>
<path fill="none" stroke="#000000" d="M1058.9205,-1176.1897C1162.8415,-1145.4058 788.4053,-582.5 920,-582.5"/>
<polygon fill="#000000" stroke="#000000" points="1058.9139,-1176.1905 1048.4107,-1173.0387 1053.957,-1176.8452 1049,-1177.5 1049,-1177.5 1049,-1177.5 1053.957,-1176.8452 1049.5893,-1181.9613 1058.9139,-1176.1905 1058.9139,-1176.1905"/>
<text text-anchor="start" x="1055.6665" y="-1187.5" font-family="Arial" font-size="10.00" fill="#000000">FOREIGN KEY (limit_set) REFERENCES config.circ_limit_set(id) ON DELETE CASCADE DEFERRABLE INITIALLY DEFERRED</text>
</g>
</g>
</svg>
