<?xml version="1.0" encoding="UTF-8" standalone="no"?>
<!DOCTYPE svg PUBLIC "-//W3C//DTD SVG 1.1//EN"
 "http://www.w3.org/Graphics/SVG/1.1/DTD/svg11.dtd">
<!-- Generated by graphviz version 2.40.1 (20161225.0304)
 -->
<!-- Title: config.circ_limit_set_circ_mod_map Pages: 1 -->
<svg width="1743pt" height="592pt"
 viewBox="0.00 0.00 1743.00 592.00" xmlns="http://www.w3.org/2000/svg" xmlns:xlink="http://www.w3.org/1999/xlink">
<g id="graph0" class="graph" transform="scale(1 1) rotate(0) translate(4 588)">
<title>config.circ_limit_set_circ_mod_map</title>
<polygon fill="#ffffff" stroke="transparent" points="-4,4 -4,-588 1739,-588 1739,4 -4,4"/>
<!-- config.circ_limit_set_circ_mod_map -->
<g id="node1" class="node">
<title>config.circ_limit_set_circ_mod_map</title>
<polygon fill="#efefef" stroke="transparent" points="590,-502.5 590,-537.5 1016,-537.5 1016,-502.5 590,-502.5"/>
<polygon fill="none" stroke="#000000" points="590,-502.5 590,-537.5 1016,-537.5 1016,-502.5 590,-502.5"/>
<text text-anchor="start" x="596.7082" y="-515.3" font-family="Arial Bold" font-size="18.00" fill="#000000">config.circ_limit_set_circ_mod_map</text>
<text text-anchor="start" x="881.7238" y="-515.3" font-family="Arial" font-size="14.00" fill="#000000">    </text>
<text text-anchor="start" x="915.9286" y="-515.3" font-family="Arial" font-size="14.00" fill="#666666">[BASE TABLE]</text>
<polygon fill="none" stroke="#000000" points="590,-472.5 590,-502.5 1016,-502.5 1016,-472.5 590,-472.5"/>
<text text-anchor="start" x="597" y="-483.9" font-family="Arial" font-size="14.00" fill="#000000">id </text>
<text text-anchor="start" x="611.7798" y="-483.9" font-family="Arial" font-size="14.00" fill="#666666">[integer]</text>
<polygon fill="none" stroke="#000000" points="590,-442.5 590,-472.5 1016,-472.5 1016,-442.5 590,-442.5"/>
<text text-anchor="start" x="597" y="-453.9" font-family="Arial" font-size="14.00" fill="#000000">limit_set </text>
<text text-anchor="start" x="652.2174" y="-453.9" font-family="Arial" font-size="14.00" fill="#666666">[integer]</text>
<polygon fill="none" stroke="#000000" points="590,-412.5 590,-442.5 1016,-442.5 1016,-412.5 590,-412.5"/>
<text text-anchor="start" x="597" y="-423.9" font-family="Arial" font-size="14.00" fill="#000000">circ_mod </text>
<text text-anchor="start" x="657.6662" y="-423.9" font-family="Arial" font-size="14.00" fill="#666666">[text]</text>
<polygon fill="none" stroke="#000000" stroke-width="3" points="588.5,-411.5 588.5,-539.5 1017.5,-539.5 1017.5,-411.5 588.5,-411.5"/>
</g>
<!-- config.circ_limit_set -->
<g id="node2" class="node">
<title>config.circ_limit_set</title>
<polygon fill="#efefef" stroke="transparent" points="454,-252.5 454,-287.5 752,-287.5 752,-252.5 454,-252.5"/>
<polygon fill="none" stroke="#000000" points="454,-252.5 454,-287.5 752,-287.5 752,-252.5 454,-252.5"/>
<text text-anchor="start" x="460.7153" y="-265.3" font-family="Arial Bold" font-size="18.00" fill="#000000">config.circ_limit_set</text>
<text text-anchor="start" x="617.7167" y="-265.3" font-family="Arial" font-size="14.00" fill="#000000">    </text>
<text text-anchor="start" x="651.9215" y="-265.3" font-family="Arial" font-size="14.00" fill="#666666">[BASE TABLE]</text>
<polygon fill="none" stroke="#000000" points="454,-222.5 454,-252.5 752,-252.5 752,-222.5 454,-222.5"/>
<text text-anchor="start" x="461" y="-233.9" font-family="Arial" font-size="14.00" fill="#000000">id    </text>
<text text-anchor="start" x="506.094" y="-233.9" font-family="Arial" font-size="14.00" fill="#666666">[integer]</text>
<polygon fill="none" stroke="#000000" points="454,-192.5 454,-222.5 752,-222.5 752,-192.5 454,-192.5"/>
<text text-anchor="start" x="461" y="-203.9" font-family="Arial" font-size="14.00" fill="#000000">name    </text>
<text text-anchor="start" x="530.2132" y="-203.9" font-family="Arial" font-size="14.00" fill="#666666">[text]</text>
<polygon fill="none" stroke="#000000" points="454,-162.5 454,-192.5 752,-192.5 752,-162.5 454,-162.5"/>
<text text-anchor="start" x="461" y="-173.9" font-family="Arial" font-size="14.00" fill="#000000">owning_lib    </text>
<text text-anchor="start" x="561.3268" y="-173.9" font-family="Arial" font-size="14.00" fill="#666666">[integer]</text>
<polygon fill="none" stroke="#000000" points="454,-132.5 454,-162.5 752,-162.5 752,-132.5 454,-132.5"/>
<text text-anchor="start" x="461" y="-143.9" font-family="Arial" font-size="14.00" fill="#000000">items_out    </text>
<text text-anchor="start" x="555.8836" y="-143.9" font-family="Arial" font-size="14.00" fill="#666666">[integer]</text>
<polygon fill="none" stroke="#000000" points="454,-102.5 454,-132.5 752,-132.5 752,-102.5 454,-102.5"/>
<text text-anchor="start" x="461" y="-113.9" font-family="Arial" font-size="14.00" fill="#000000">depth    </text>
<text text-anchor="start" x="530.2258" y="-113.9" font-family="Arial" font-size="14.00" fill="#666666">[integer]</text>
<polygon fill="none" stroke="#000000" points="454,-72.5 454,-102.5 752,-102.5 752,-72.5 454,-72.5"/>
<text text-anchor="start" x="461" y="-83.9" font-family="Arial" font-size="14.00" fill="#000000">global    </text>
<text text-anchor="start" x="532.5484" y="-83.9" font-family="Arial" font-size="14.00" fill="#666666">[boolean]</text>
<polygon fill="none" stroke="#000000" points="454,-42.5 454,-72.5 752,-72.5 752,-42.5 454,-42.5"/>
<text text-anchor="start" x="461" y="-53.9" font-family="Arial" font-size="14.00" fill="#000000">description    </text>
<text text-anchor="start" x="562.8822" y="-53.9" font-family="Arial" font-size="14.00" fill="#666666">[text]</text>
</g>
<!-- config.circ_limit_set_circ_mod_map&#45;&gt;config.circ_limit_set -->
<g id="edge1" class="edge">
<title>config.circ_limit_set_circ_mod_map:limit_set&#45;&gt;config.circ_limit_set:id</title>
<path fill="none" stroke="#000000" d="M580.1078,-456.0126C552.6893,-446.658 567.1914,-395.4336 590,-367 636.1514,-309.467 705.8486,-388.533 752,-331 778.0024,-298.5849 793.5556,-237.5 752,-237.5"/>
<polygon fill="#000000" stroke="#000000" points="580.1112,-456.013 589.3309,-461.95 585.0556,-456.7565 590,-457.5 590,-457.5 590,-457.5 585.0556,-456.7565 590.6691,-453.05 580.1112,-456.013 580.1112,-456.013"/>
<text text-anchor="start" x="6.6665" y="-467.5" font-family="Arial" font-size="10.00" fill="#000000">FOREIGN KEY (limit_set) REFERENCES config.circ_limit_set(id) ON DELETE CASCADE DEFERRABLE INITIALLY DEFERRED</text>
</g>
<!-- config.circ_modifier -->
<g id="node3" class="node">
<title>config.circ_modifier</title>
<polygon fill="#efefef" stroke="transparent" points="856,-237.5 856,-272.5 1152,-272.5 1152,-237.5 856,-237.5"/>
<polygon fill="none" stroke="#000000" points="856,-237.5 856,-272.5 1152,-272.5 1152,-237.5 856,-237.5"/>
<text text-anchor="start" x="862.7143" y="-250.3" font-family="Arial Bold" font-size="18.00" fill="#000000">config.circ_modifier</text>
<text text-anchor="start" x="1017.7177" y="-250.3" font-family="Arial" font-size="14.00" fill="#000000">    </text>
<text text-anchor="start" x="1051.9225" y="-250.3" font-family="Arial" font-size="14.00" fill="#666666">[BASE TABLE]</text>
<polygon fill="none" stroke="#000000" points="856,-207.5 856,-237.5 1152,-237.5 1152,-207.5 856,-207.5"/>
<text text-anchor="start" x="863" y="-218.9" font-family="Arial" font-size="14.00" fill="#000000">code    </text>
<text text-anchor="start" x="927.5526" y="-218.9" font-family="Arial" font-size="14.00" fill="#666666">[text]</text>
<polygon fill="none" stroke="#000000" points="856,-177.5 856,-207.5 1152,-207.5 1152,-177.5 856,-177.5"/>
<text text-anchor="start" x="863" y="-188.9" font-family="Arial" font-size="14.00" fill="#000000">name    </text>
<text text-anchor="start" x="932.2132" y="-188.9" font-family="Arial" font-size="14.00" fill="#666666">[text]</text>
<polygon fill="none" stroke="#000000" points="856,-147.5 856,-177.5 1152,-177.5 1152,-147.5 856,-147.5"/>
<text text-anchor="start" x="863" y="-158.9" font-family="Arial" font-size="14.00" fill="#000000">description    </text>
<text text-anchor="start" x="964.8822" y="-158.9" font-family="Arial" font-size="14.00" fill="#666666">[text]</text>
<polygon fill="none" stroke="#000000" points="856,-117.5 856,-147.5 1152,-147.5 1152,-117.5 856,-117.5"/>
<text text-anchor="start" x="863" y="-128.9" font-family="Arial" font-size="14.00" fill="#000000">sip2_media_type    </text>
<text text-anchor="start" x="1003.0126" y="-128.9" font-family="Arial" font-size="14.00" fill="#666666">[text]</text>
<polygon fill="none" stroke="#000000" points="856,-87.5 856,-117.5 1152,-117.5 1152,-87.5 856,-87.5"/>
<text text-anchor="start" x="863" y="-98.9" font-family="Arial" font-size="14.00" fill="#000000">magnetic_media    </text>
<text text-anchor="start" x="999.8906" y="-98.9" font-family="Arial" font-size="14.00" fill="#666666">[boolean]</text>
<polygon fill="none" stroke="#000000" points="856,-57.5 856,-87.5 1152,-87.5 1152,-57.5 856,-57.5"/>
<text text-anchor="start" x="863" y="-68.9" font-family="Arial" font-size="14.00" fill="#000000">avg_wait_time    </text>
<text text-anchor="start" x="986.662" y="-68.9" font-family="Arial" font-size="14.00" fill="#666666">[interval]</text>
</g>
<!-- config.circ_limit_set_circ_mod_map&#45;&gt;config.circ_modifier -->
<g id="edge2" class="edge">
<title>config.circ_limit_set_circ_mod_map:circ_mod&#45;&gt;config.circ_modifier:code</title>
<path fill="none" stroke="#000000" d="M1025.9535,-424.872C1039.3259,-415.7949 1029.3866,-385.3172 1016,-367 971.9613,-306.7409 900.0387,-376.2591 856,-316 831.4804,-282.4493 814.4444,-222.5 856,-222.5"/>
<polygon fill="#000000" stroke="#000000" points="1025.6687,-424.9472 1014.8512,-423.1491 1020.8343,-426.2236 1016,-427.5 1016,-427.5 1016,-427.5 1020.8343,-426.2236 1017.1488,-431.8509 1025.6687,-424.9472 1025.6687,-424.9472"/>
<text text-anchor="start" x="1023.215" y="-437.5" font-family="Arial" font-size="10.00" fill="#000000">FOREIGN KEY (circ_mod) REFERENCES config.circ_modifier(code) ON UPDATE CASCADE ON DELETE CASCADE DEFERRABLE INITIALLY DEFERRED</text>
</g>
</g>
</svg>
