<?xml version="1.0" encoding="UTF-8" standalone="no"?>
<!DOCTYPE svg PUBLIC "-//W3C//DTD SVG 1.1//EN"
 "http://www.w3.org/Graphics/SVG/1.1/DTD/svg11.dtd">
<!-- Generated by graphviz version 2.40.1 (20161225.0304)
 -->
<!-- Title: config.record_attr_index_norm_map Pages: 1 -->
<svg width="1654pt" height="952pt"
 viewBox="0.00 0.00 1654.00 952.00" xmlns="http://www.w3.org/2000/svg" xmlns:xlink="http://www.w3.org/1999/xlink">
<g id="graph0" class="graph" transform="scale(1 1) rotate(0) translate(4 948)">
<title>config.record_attr_index_norm_map</title>
<polygon fill="#ffffff" stroke="transparent" points="-4,4 -4,-948 1650,-948 1650,4 -4,4"/>
<!-- config.record_attr_index_norm_map -->
<g id="node1" class="node">
<title>config.record_attr_index_norm_map</title>
<polygon fill="#efefef" stroke="transparent" points="621,-862.5 621,-897.5 1051,-897.5 1051,-862.5 621,-862.5"/>
<polygon fill="none" stroke="#000000" points="621,-862.5 621,-897.5 1051,-897.5 1051,-862.5 621,-862.5"/>
<text text-anchor="start" x="627.685" y="-875.3" font-family="Arial Bold" font-size="18.00" fill="#000000">config.record_attr_index_norm_map</text>
<text text-anchor="start" x="916.747" y="-875.3" font-family="Arial" font-size="14.00" fill="#000000">    </text>
<text text-anchor="start" x="950.9518" y="-875.3" font-family="Arial" font-size="14.00" fill="#666666">[BASE TABLE]</text>
<polygon fill="none" stroke="#000000" points="621,-832.5 621,-862.5 1051,-862.5 1051,-832.5 621,-832.5"/>
<text text-anchor="start" x="628" y="-843.9" font-family="Arial" font-size="14.00" fill="#000000">id </text>
<text text-anchor="start" x="642.7798" y="-843.9" font-family="Arial" font-size="14.00" fill="#666666">[integer]</text>
<polygon fill="none" stroke="#000000" points="621,-802.5 621,-832.5 1051,-832.5 1051,-802.5 621,-802.5"/>
<text text-anchor="start" x="628" y="-813.9" font-family="Arial" font-size="14.00" fill="#000000">attr </text>
<text text-anchor="start" x="652.115" y="-813.9" font-family="Arial" font-size="14.00" fill="#666666">[text]</text>
<polygon fill="none" stroke="#000000" points="621,-772.5 621,-802.5 1051,-802.5 1051,-772.5 621,-772.5"/>
<text text-anchor="start" x="628" y="-783.9" font-family="Arial" font-size="14.00" fill="#000000">norm </text>
<text text-anchor="start" x="663.777" y="-783.9" font-family="Arial" font-size="14.00" fill="#666666">[integer]</text>
<polygon fill="none" stroke="#000000" points="621,-742.5 621,-772.5 1051,-772.5 1051,-742.5 621,-742.5"/>
<text text-anchor="start" x="628" y="-753.9" font-family="Arial" font-size="14.00" fill="#000000">params </text>
<text text-anchor="start" x="678.5596" y="-753.9" font-family="Arial" font-size="14.00" fill="#666666">[text]</text>
<polygon fill="none" stroke="#000000" points="621,-712.5 621,-742.5 1051,-742.5 1051,-712.5 621,-712.5"/>
<text text-anchor="start" x="628" y="-723.9" font-family="Arial" font-size="14.00" fill="#000000">pos </text>
<text text-anchor="start" x="654.4558" y="-723.9" font-family="Arial" font-size="14.00" fill="#666666">[integer]</text>
<polygon fill="none" stroke="#000000" stroke-width="3" points="619.5,-711.5 619.5,-899.5 1052.5,-899.5 1052.5,-711.5 619.5,-711.5"/>
</g>
<!-- config.record_attr_definition -->
<g id="node2" class="node">
<title>config.record_attr_definition</title>
<polygon fill="#efefef" stroke="transparent" points="429,-552.5 429,-587.5 792,-587.5 792,-552.5 429,-552.5"/>
<polygon fill="none" stroke="#000000" points="429,-552.5 429,-587.5 792,-587.5 792,-552.5 429,-552.5"/>
<text text-anchor="start" x="435.6893" y="-565.3" font-family="Arial Bold" font-size="18.00" fill="#000000">config.record_attr_definition</text>
<text text-anchor="start" x="657.7427" y="-565.3" font-family="Arial" font-size="14.00" fill="#000000">    </text>
<text text-anchor="start" x="691.9475" y="-565.3" font-family="Arial" font-size="14.00" fill="#666666">[BASE TABLE]</text>
<polygon fill="none" stroke="#000000" points="429,-522.5 429,-552.5 792,-552.5 792,-522.5 429,-522.5"/>
<text text-anchor="start" x="436" y="-533.9" font-family="Arial" font-size="14.00" fill="#000000">name    </text>
<text text-anchor="start" x="505.2132" y="-533.9" font-family="Arial" font-size="14.00" fill="#666666">[text]</text>
<polygon fill="none" stroke="#000000" points="429,-492.5 429,-522.5 792,-522.5 792,-492.5 429,-492.5"/>
<text text-anchor="start" x="436" y="-503.9" font-family="Arial" font-size="14.00" fill="#000000">label    </text>
<text text-anchor="start" x="499.7658" y="-503.9" font-family="Arial" font-size="14.00" fill="#666666">[text]</text>
<polygon fill="none" stroke="#000000" points="429,-462.5 429,-492.5 792,-492.5 792,-462.5 429,-462.5"/>
<text text-anchor="start" x="436" y="-473.9" font-family="Arial" font-size="14.00" fill="#000000">description    </text>
<text text-anchor="start" x="537.8822" y="-473.9" font-family="Arial" font-size="14.00" fill="#666666">[text]</text>
<polygon fill="none" stroke="#000000" points="429,-432.5 429,-462.5 792,-462.5 792,-432.5 429,-432.5"/>
<text text-anchor="start" x="436" y="-443.9" font-family="Arial" font-size="14.00" fill="#000000">multi    </text>
<text text-anchor="start" x="499.7518" y="-443.9" font-family="Arial" font-size="14.00" fill="#666666">[boolean]</text>
<polygon fill="none" stroke="#000000" points="429,-402.5 429,-432.5 792,-432.5 792,-402.5 429,-402.5"/>
<text text-anchor="start" x="436" y="-413.9" font-family="Arial" font-size="14.00" fill="#000000">filter    </text>
<text text-anchor="start" x="496.6424" y="-413.9" font-family="Arial" font-size="14.00" fill="#666666">[boolean]</text>
<polygon fill="none" stroke="#000000" points="429,-372.5 429,-402.5 792,-402.5 792,-372.5 429,-372.5"/>
<text text-anchor="start" x="436" y="-383.9" font-family="Arial" font-size="14.00" fill="#000000">sorter    </text>
<text text-anchor="start" x="505.9818" y="-383.9" font-family="Arial" font-size="14.00" fill="#666666">[boolean]</text>
<polygon fill="none" stroke="#000000" points="429,-342.5 429,-372.5 792,-372.5 792,-342.5 429,-342.5"/>
<text text-anchor="start" x="436" y="-353.9" font-family="Arial" font-size="14.00" fill="#000000">composite    </text>
<text text-anchor="start" x="533.993" y="-353.9" font-family="Arial" font-size="14.00" fill="#666666">[boolean]</text>
<polygon fill="none" stroke="#000000" points="429,-312.5 429,-342.5 792,-342.5 792,-312.5 429,-312.5"/>
<text text-anchor="start" x="436" y="-323.9" font-family="Arial" font-size="14.00" fill="#000000">tag    </text>
<text text-anchor="start" x="489.6606" y="-323.9" font-family="Arial" font-size="14.00" fill="#666666">[text]</text>
<polygon fill="none" stroke="#000000" points="429,-282.5 429,-312.5 792,-312.5 792,-282.5 429,-282.5"/>
<text text-anchor="start" x="436" y="-293.9" font-family="Arial" font-size="14.00" fill="#000000">sf_list    </text>
<text text-anchor="start" x="505.9818" y="-293.9" font-family="Arial" font-size="14.00" fill="#666666">[text]</text>
<polygon fill="none" stroke="#000000" points="429,-252.5 429,-282.5 792,-282.5 792,-252.5 429,-252.5"/>
<text text-anchor="start" x="436" y="-263.9" font-family="Arial" font-size="14.00" fill="#000000">joiner    </text>
<text text-anchor="start" x="504.4264" y="-263.9" font-family="Arial" font-size="14.00" fill="#666666">[text]</text>
<polygon fill="none" stroke="#000000" points="429,-222.5 429,-252.5 792,-252.5 792,-222.5 429,-222.5"/>
<text text-anchor="start" x="436" y="-233.9" font-family="Arial" font-size="14.00" fill="#000000">xpath    </text>
<text text-anchor="start" x="504.4432" y="-233.9" font-family="Arial" font-size="14.00" fill="#666666">[text]</text>
<polygon fill="none" stroke="#000000" points="429,-192.5 429,-222.5 792,-222.5 792,-192.5 429,-192.5"/>
<text text-anchor="start" x="436" y="-203.9" font-family="Arial" font-size="14.00" fill="#000000">format    </text>
<text text-anchor="start" x="509.8724" y="-203.9" font-family="Arial" font-size="14.00" fill="#666666">[text]</text>
<polygon fill="none" stroke="#000000" points="429,-162.5 429,-192.5 792,-192.5 792,-162.5 429,-162.5"/>
<text text-anchor="start" x="436" y="-173.9" font-family="Arial" font-size="14.00" fill="#000000">start_pos    </text>
<text text-anchor="start" x="527.777" y="-173.9" font-family="Arial" font-size="14.00" fill="#666666">[integer]</text>
<polygon fill="none" stroke="#000000" points="429,-132.5 429,-162.5 792,-162.5 792,-132.5 429,-132.5"/>
<text text-anchor="start" x="436" y="-143.9" font-family="Arial" font-size="14.00" fill="#000000">string_len    </text>
<text text-anchor="start" x="530.8822" y="-143.9" font-family="Arial" font-size="14.00" fill="#666666">[integer]</text>
<polygon fill="none" stroke="#000000" points="429,-102.5 429,-132.5 792,-132.5 792,-102.5 429,-102.5"/>
<text text-anchor="start" x="436" y="-113.9" font-family="Arial" font-size="14.00" fill="#000000">fixed_field    </text>
<text text-anchor="start" x="533.2188" y="-113.9" font-family="Arial" font-size="14.00" fill="#666666">[text]</text>
<polygon fill="none" stroke="#000000" points="429,-72.5 429,-102.5 792,-102.5 792,-72.5 429,-72.5"/>
<text text-anchor="start" x="436" y="-83.9" font-family="Arial" font-size="14.00" fill="#000000">phys_char_sf    </text>
<text text-anchor="start" x="553.4516" y="-83.9" font-family="Arial" font-size="14.00" fill="#666666">[integer]</text>
<polygon fill="none" stroke="#000000" points="429,-42.5 429,-72.5 792,-72.5 792,-42.5 429,-42.5"/>
<text text-anchor="start" x="436" y="-53.9" font-family="Arial" font-size="14.00" fill="#000000">vocabulary    </text>
<text text-anchor="start" x="537.885" y="-53.9" font-family="Arial" font-size="14.00" fill="#666666">[text]</text>
</g>
<!-- config.record_attr_index_norm_map&#45;&gt;config.record_attr_definition -->
<g id="edge1" class="edge">
<title>config.record_attr_index_norm_map:attr&#45;&gt;config.record_attr_definition:name</title>
<path fill="none" stroke="#000000" d="M610.836,-816.6395C556.8695,-806.8596 581.1598,-716.101 621,-667 669.9354,-606.6897 743.0646,-691.3103 792,-631 818.1831,-598.7307 833.5556,-537.5 792,-537.5"/>
<polygon fill="#000000" stroke="#000000" points="611.0356,-816.6563 620.6203,-821.984 616.0178,-817.0781 621,-817.5 621,-817.5 621,-817.5 616.0178,-817.0781 621.3797,-813.016 611.0356,-816.6563 611.0356,-816.6563"/>
<text text-anchor="start" x="7.0905" y="-827.5" font-family="Arial" font-size="10.00" fill="#000000">FOREIGN KEY (attr) REFERENCES config.record_attr_definition(name) ON DELETE CASCADE DEFERRABLE INITIALLY DEFERRED</text>
</g>
<!-- config.index_normalizer -->
<g id="node3" class="node">
<title>config.index_normalizer</title>
<polygon fill="#efefef" stroke="transparent" points="896,-372.5 896,-407.5 1227,-407.5 1227,-372.5 896,-372.5"/>
<polygon fill="none" stroke="#000000" points="896,-372.5 896,-407.5 1227,-407.5 1227,-372.5 896,-372.5"/>
<text text-anchor="start" x="902.703" y="-385.3" font-family="Arial Bold" font-size="18.00" fill="#000000">config.index_normalizer</text>
<text text-anchor="start" x="1092.729" y="-385.3" font-family="Arial" font-size="14.00" fill="#000000">    </text>
<text text-anchor="start" x="1126.9338" y="-385.3" font-family="Arial" font-size="14.00" fill="#666666">[BASE TABLE]</text>
<polygon fill="none" stroke="#000000" points="896,-342.5 896,-372.5 1227,-372.5 1227,-342.5 896,-342.5"/>
<text text-anchor="start" x="903" y="-353.9" font-family="Arial" font-size="14.00" fill="#000000">id    </text>
<text text-anchor="start" x="948.094" y="-353.9" font-family="Arial" font-size="14.00" fill="#666666">[integer]</text>
<polygon fill="none" stroke="#000000" points="896,-312.5 896,-342.5 1227,-342.5 1227,-312.5 896,-312.5"/>
<text text-anchor="start" x="903" y="-323.9" font-family="Arial" font-size="14.00" fill="#000000">name    </text>
<text text-anchor="start" x="972.2132" y="-323.9" font-family="Arial" font-size="14.00" fill="#666666">[text]</text>
<polygon fill="none" stroke="#000000" points="896,-282.5 896,-312.5 1227,-312.5 1227,-282.5 896,-282.5"/>
<text text-anchor="start" x="903" y="-293.9" font-family="Arial" font-size="14.00" fill="#000000">description    </text>
<text text-anchor="start" x="1004.8822" y="-293.9" font-family="Arial" font-size="14.00" fill="#666666">[text]</text>
<polygon fill="none" stroke="#000000" points="896,-252.5 896,-282.5 1227,-282.5 1227,-252.5 896,-252.5"/>
<text text-anchor="start" x="903" y="-263.9" font-family="Arial" font-size="14.00" fill="#000000">func    </text>
<text text-anchor="start" x="963.6606" y="-263.9" font-family="Arial" font-size="14.00" fill="#666666">[text]</text>
<polygon fill="none" stroke="#000000" points="896,-222.5 896,-252.5 1227,-252.5 1227,-222.5 896,-222.5"/>
<text text-anchor="start" x="903" y="-233.9" font-family="Arial" font-size="14.00" fill="#000000">param_count    </text>
<text text-anchor="start" x="1018.8948" y="-233.9" font-family="Arial" font-size="14.00" fill="#666666">[integer]</text>
</g>
<!-- config.record_attr_index_norm_map&#45;&gt;config.index_normalizer -->
<g id="edge2" class="edge">
<title>config.record_attr_index_norm_map:norm&#45;&gt;config.index_normalizer:id</title>
<path fill="none" stroke="#000000" d="M1060.9902,-786.4996C1099.4331,-777.8158 1066.2466,-714.3981 1051,-667 1003.8909,-520.5488 742.1585,-357.5 896,-357.5"/>
<polygon fill="#000000" stroke="#000000" points="1060.9502,-786.5035 1050.5516,-783.0224 1055.9751,-787.0017 1051,-787.5 1051,-787.5 1051,-787.5 1055.9751,-787.0017 1051.4484,-791.9776 1060.9502,-786.5035 1060.9502,-786.5035"/>
<text text-anchor="start" x="1058.436" y="-797.5" font-family="Arial" font-size="10.00" fill="#000000">FOREIGN KEY (norm) REFERENCES config.index_normalizer(id) ON DELETE CASCADE DEFERRABLE INITIALLY DEFERRED</text>
</g>
</g>
</svg>
