<?xml version="1.0" encoding="UTF-8" standalone="no"?>
<!DOCTYPE svg PUBLIC "-//W3C//DTD SVG 1.1//EN"
 "http://www.w3.org/Graphics/SVG/1.1/DTD/svg11.dtd">
<!-- Generated by graphviz version 2.40.1 (20161225.0304)
 -->
<!-- Title: config.filter_dialog_filter_set Pages: 1 -->
<svg width="1483pt" height="1972pt"
 viewBox="0.00 0.00 1483.00 1972.00" xmlns="http://www.w3.org/2000/svg" xmlns:xlink="http://www.w3.org/1999/xlink">
<g id="graph0" class="graph" transform="scale(1 1) rotate(0) translate(4 1968)">
<title>config.filter_dialog_filter_set</title>
<polygon fill="#ffffff" stroke="transparent" points="-4,4 -4,-1968 1479,-1968 1479,4 -4,4"/>
<!-- config.filter_dialog_filter_set -->
<g id="node1" class="node">
<title>config.filter_dialog_filter_set</title>
<polygon fill="#efefef" stroke="transparent" points="575,-1882.5 575,-1917.5 939,-1917.5 939,-1882.5 575,-1882.5"/>
<polygon fill="none" stroke="#000000" points="575,-1882.5 575,-1917.5 939,-1917.5 939,-1882.5 575,-1882.5"/>
<text text-anchor="start" x="581.6961" y="-1895.3" font-family="Arial Bold" font-size="18.00" fill="#000000">config.filter_dialog_filter_set</text>
<text text-anchor="start" x="804.7359" y="-1895.3" font-family="Arial" font-size="14.00" fill="#000000">    </text>
<text text-anchor="start" x="838.9407" y="-1895.3" font-family="Arial" font-size="14.00" fill="#666666">[BASE TABLE]</text>
<polygon fill="none" stroke="#000000" points="575,-1852.5 575,-1882.5 939,-1882.5 939,-1852.5 575,-1852.5"/>
<text text-anchor="start" x="582" y="-1863.9" font-family="Arial" font-size="14.00" fill="#000000">id </text>
<text text-anchor="start" x="596.7798" y="-1863.9" font-family="Arial" font-size="14.00" fill="#666666">[integer]</text>
<polygon fill="none" stroke="#000000" points="575,-1822.5 575,-1852.5 939,-1852.5 939,-1822.5 575,-1822.5"/>
<text text-anchor="start" x="582" y="-1833.9" font-family="Arial" font-size="14.00" fill="#000000">name </text>
<text text-anchor="start" x="620.899" y="-1833.9" font-family="Arial" font-size="14.00" fill="#666666">[text]</text>
<polygon fill="none" stroke="#000000" points="575,-1792.5 575,-1822.5 939,-1822.5 939,-1792.5 575,-1792.5"/>
<text text-anchor="start" x="582" y="-1803.9" font-family="Arial" font-size="14.00" fill="#000000">owning_lib </text>
<text text-anchor="start" x="652.0126" y="-1803.9" font-family="Arial" font-size="14.00" fill="#666666">[integer]</text>
<polygon fill="none" stroke="#000000" points="575,-1762.5 575,-1792.5 939,-1792.5 939,-1762.5 575,-1762.5"/>
<text text-anchor="start" x="582" y="-1773.9" font-family="Arial" font-size="14.00" fill="#000000">creator </text>
<text text-anchor="start" x="629.4502" y="-1773.9" font-family="Arial" font-size="14.00" fill="#666666">[integer]</text>
<polygon fill="none" stroke="#000000" points="575,-1732.5 575,-1762.5 939,-1762.5 939,-1732.5 575,-1732.5"/>
<text text-anchor="start" x="582" y="-1743.9" font-family="Arial" font-size="14.00" fill="#000000">create_time </text>
<text text-anchor="start" x="659.0126" y="-1743.9" font-family="Arial" font-size="14.00" fill="#666666">[timestamp with time zone]</text>
<polygon fill="none" stroke="#000000" points="575,-1702.5 575,-1732.5 939,-1732.5 939,-1702.5 575,-1702.5"/>
<text text-anchor="start" x="582" y="-1713.9" font-family="Arial" font-size="14.00" fill="#000000">interface </text>
<text text-anchor="start" x="639.5694" y="-1713.9" font-family="Arial" font-size="14.00" fill="#666666">[text]</text>
<polygon fill="none" stroke="#000000" points="575,-1672.5 575,-1702.5 939,-1702.5 939,-1672.5 575,-1672.5"/>
<text text-anchor="start" x="582" y="-1683.9" font-family="Arial" font-size="14.00" fill="#000000">filters </text>
<text text-anchor="start" x="619.3282" y="-1683.9" font-family="Arial" font-size="14.00" fill="#666666">[text]</text>
<polygon fill="none" stroke="#000000" stroke-width="3" points="573.5,-1671.5 573.5,-1919.5 940.5,-1919.5 940.5,-1671.5 573.5,-1671.5"/>
</g>
<!-- actor.org_unit -->
<g id="node2" class="node">
<title>actor.org_unit</title>
<polygon fill="#efefef" stroke="transparent" points="242,-972.5 242,-1007.5 493,-1007.5 493,-972.5 242,-972.5"/>
<polygon fill="none" stroke="#000000" points="242,-972.5 242,-1007.5 493,-1007.5 493,-972.5 242,-972.5"/>
<text text-anchor="start" x="248.7017" y="-985.3" font-family="Arial Bold" font-size="18.00" fill="#000000">actor.org_unit</text>
<text text-anchor="start" x="358.7303" y="-985.3" font-family="Arial" font-size="14.00" fill="#000000">    </text>
<text text-anchor="start" x="392.9351" y="-985.3" font-family="Arial" font-size="14.00" fill="#666666">[BASE TABLE]</text>
<polygon fill="none" stroke="#000000" points="242,-942.5 242,-972.5 493,-972.5 493,-942.5 242,-942.5"/>
<text text-anchor="start" x="249" y="-953.9" font-family="Arial" font-size="14.00" fill="#000000">id    </text>
<text text-anchor="start" x="294.094" y="-953.9" font-family="Arial" font-size="14.00" fill="#666666">[integer]</text>
<polygon fill="none" stroke="#000000" points="242,-912.5 242,-942.5 493,-942.5 493,-912.5 242,-912.5"/>
<text text-anchor="start" x="249" y="-923.9" font-family="Arial" font-size="14.00" fill="#000000">parent_ou    </text>
<text text-anchor="start" x="346.2342" y="-923.9" font-family="Arial" font-size="14.00" fill="#666666">[integer]</text>
<polygon fill="none" stroke="#000000" points="242,-882.5 242,-912.5 493,-912.5 493,-882.5 242,-882.5"/>
<text text-anchor="start" x="249" y="-893.9" font-family="Arial" font-size="14.00" fill="#000000">ou_type    </text>
<text text-anchor="start" x="333.0084" y="-893.9" font-family="Arial" font-size="14.00" fill="#666666">[integer]</text>
<polygon fill="none" stroke="#000000" points="242,-852.5 242,-882.5 493,-882.5 493,-852.5 242,-852.5"/>
<text text-anchor="start" x="249" y="-863.9" font-family="Arial" font-size="14.00" fill="#000000">ill_address    </text>
<text text-anchor="start" x="350.0982" y="-863.9" font-family="Arial" font-size="14.00" fill="#666666">[integer]</text>
<polygon fill="none" stroke="#000000" points="242,-822.5 242,-852.5 493,-852.5 493,-822.5 242,-822.5"/>
<text text-anchor="start" x="249" y="-833.9" font-family="Arial" font-size="14.00" fill="#000000">holds_address    </text>
<text text-anchor="start" x="374.2328" y="-833.9" font-family="Arial" font-size="14.00" fill="#666666">[integer]</text>
<polygon fill="none" stroke="#000000" points="242,-792.5 242,-822.5 493,-822.5 493,-792.5 242,-792.5"/>
<text text-anchor="start" x="249" y="-803.9" font-family="Arial" font-size="14.00" fill="#000000">mailing_address    </text>
<text text-anchor="start" x="385.1066" y="-803.9" font-family="Arial" font-size="14.00" fill="#666666">[integer]</text>
<polygon fill="none" stroke="#000000" points="242,-762.5 242,-792.5 493,-792.5 493,-762.5 242,-762.5"/>
<text text-anchor="start" x="249" y="-773.9" font-family="Arial" font-size="14.00" fill="#000000">billing_address    </text>
<text text-anchor="start" x="376.5526" y="-773.9" font-family="Arial" font-size="14.00" fill="#666666">[integer]</text>
<polygon fill="none" stroke="#000000" points="242,-732.5 242,-762.5 493,-762.5 493,-732.5 242,-732.5"/>
<text text-anchor="start" x="249" y="-743.9" font-family="Arial" font-size="14.00" fill="#000000">shortname    </text>
<text text-anchor="start" x="349.3296" y="-743.9" font-family="Arial" font-size="14.00" fill="#666666">[text]</text>
<polygon fill="none" stroke="#000000" points="242,-702.5 242,-732.5 493,-732.5 493,-702.5 242,-702.5"/>
<text text-anchor="start" x="249" y="-713.9" font-family="Arial" font-size="14.00" fill="#000000">name    </text>
<text text-anchor="start" x="318.2132" y="-713.9" font-family="Arial" font-size="14.00" fill="#666666">[text]</text>
<polygon fill="none" stroke="#000000" points="242,-672.5 242,-702.5 493,-702.5 493,-672.5 242,-672.5"/>
<text text-anchor="start" x="249" y="-683.9" font-family="Arial" font-size="14.00" fill="#000000">email    </text>
<text text-anchor="start" x="316.6438" y="-683.9" font-family="Arial" font-size="14.00" fill="#666666">[text]</text>
<polygon fill="none" stroke="#000000" points="242,-642.5 242,-672.5 493,-672.5 493,-642.5 242,-642.5"/>
<text text-anchor="start" x="249" y="-653.9" font-family="Arial" font-size="14.00" fill="#000000">phone    </text>
<text text-anchor="start" x="322.1178" y="-653.9" font-family="Arial" font-size="14.00" fill="#666666">[text]</text>
<polygon fill="none" stroke="#000000" points="242,-612.5 242,-642.5 493,-642.5 493,-612.5 242,-612.5"/>
<text text-anchor="start" x="249" y="-623.9" font-family="Arial" font-size="14.00" fill="#000000">opac_visible    </text>
<text text-anchor="start" x="360.2202" y="-623.9" font-family="Arial" font-size="14.00" fill="#666666">[boolean]</text>
<polygon fill="none" stroke="#000000" points="242,-582.5 242,-612.5 493,-612.5 493,-582.5 242,-582.5"/>
<text text-anchor="start" x="249" y="-593.9" font-family="Arial" font-size="14.00" fill="#000000">fiscal_calendar    </text>
<text text-anchor="start" x="376.554" y="-593.9" font-family="Arial" font-size="14.00" fill="#666666">[integer]</text>
</g>
<!-- config.filter_dialog_filter_set&#45;&gt;actor.org_unit -->
<g id="edge1" class="edge">
<title>config.filter_dialog_filter_set:owning_lib&#45;&gt;actor.org_unit:id</title>
<path fill="none" stroke="#000000" d="M565.2534,-1804.0753C487.8363,-1745.5846 584.3619,-957.5 493,-957.5"/>
<polygon fill="#000000" stroke="#000000" points="565.5655,-1804.1849 573.5082,-1811.7455 570.2827,-1805.8424 575,-1807.5 575,-1807.5 575,-1807.5 570.2827,-1805.8424 576.4918,-1803.2545 565.5655,-1804.1849 565.5655,-1804.1849"/>
<text text-anchor="start" x="7.4305" y="-1817.5" font-family="Arial" font-size="10.00" fill="#000000">FOREIGN KEY (owning_lib) REFERENCES actor.org_unit(id) ON DELETE CASCADE DEFERRABLE INITIALLY DEFERRED</text>
</g>
<!-- actor.usr -->
<g id="node3" class="node">
<title>actor.usr</title>
<polygon fill="#efefef" stroke="transparent" points="597,-1512.5 597,-1547.5 917,-1547.5 917,-1512.5 597,-1512.5"/>
<polygon fill="none" stroke="#000000" points="597,-1512.5 597,-1547.5 917,-1547.5 917,-1512.5 597,-1512.5"/>
<text text-anchor="start" x="658.2123" y="-1525.3" font-family="Arial Bold" font-size="18.00" fill="#000000">actor.usr</text>
<text text-anchor="start" x="728.2197" y="-1525.3" font-family="Arial" font-size="14.00" fill="#000000">    </text>
<text text-anchor="start" x="762.4245" y="-1525.3" font-family="Arial" font-size="14.00" fill="#666666">[BASE TABLE]</text>
<polygon fill="none" stroke="#000000" points="597,-1482.5 597,-1512.5 917,-1512.5 917,-1482.5 597,-1482.5"/>
<text text-anchor="start" x="604" y="-1493.9" font-family="Arial" font-size="14.00" fill="#000000">id    </text>
<text text-anchor="start" x="649.094" y="-1493.9" font-family="Arial" font-size="14.00" fill="#666666">[integer]</text>
<polygon fill="none" stroke="#000000" points="597,-1452.5 597,-1482.5 917,-1482.5 917,-1452.5 597,-1452.5"/>
<text text-anchor="start" x="604" y="-1463.9" font-family="Arial" font-size="14.00" fill="#000000">card    </text>
<text text-anchor="start" x="665.4306" y="-1463.9" font-family="Arial" font-size="14.00" fill="#666666">[integer]</text>
<polygon fill="none" stroke="#000000" points="597,-1422.5 597,-1452.5 917,-1452.5 917,-1422.5 597,-1422.5"/>
<text text-anchor="start" x="604" y="-1433.9" font-family="Arial" font-size="14.00" fill="#000000">profile    </text>
<text text-anchor="start" x="676.317" y="-1433.9" font-family="Arial" font-size="14.00" fill="#666666">[integer]</text>
<polygon fill="none" stroke="#000000" points="597,-1392.5 597,-1422.5 917,-1422.5 917,-1392.5 597,-1392.5"/>
<text text-anchor="start" x="604" y="-1403.9" font-family="Arial" font-size="14.00" fill="#000000">usrname    </text>
<text text-anchor="start" x="692.6564" y="-1403.9" font-family="Arial" font-size="14.00" fill="#666666">[text]</text>
<polygon fill="none" stroke="#000000" points="597,-1362.5 597,-1392.5 917,-1392.5 917,-1362.5 597,-1362.5"/>
<text text-anchor="start" x="604" y="-1373.9" font-family="Arial" font-size="14.00" fill="#000000">email    </text>
<text text-anchor="start" x="671.6438" y="-1373.9" font-family="Arial" font-size="14.00" fill="#666666">[text]</text>
<polygon fill="none" stroke="#000000" points="597,-1332.5 597,-1362.5 917,-1362.5 917,-1332.5 597,-1332.5"/>
<text text-anchor="start" x="604" y="-1343.9" font-family="Arial" font-size="14.00" fill="#000000">passwd    </text>
<text text-anchor="start" x="685.6592" y="-1343.9" font-family="Arial" font-size="14.00" fill="#666666">[text]</text>
<polygon fill="none" stroke="#000000" points="597,-1302.5 597,-1332.5 917,-1332.5 917,-1302.5 597,-1302.5"/>
<text text-anchor="start" x="604" y="-1313.9" font-family="Arial" font-size="14.00" fill="#000000">standing    </text>
<text text-anchor="start" x="691.115" y="-1313.9" font-family="Arial" font-size="14.00" fill="#666666">[integer]</text>
<polygon fill="none" stroke="#000000" points="597,-1272.5 597,-1302.5 917,-1302.5 917,-1272.5 597,-1272.5"/>
<text text-anchor="start" x="604" y="-1283.9" font-family="Arial" font-size="14.00" fill="#000000">ident_type    </text>
<text text-anchor="start" x="702.7882" y="-1283.9" font-family="Arial" font-size="14.00" fill="#666666">[integer]</text>
<polygon fill="none" stroke="#000000" points="597,-1242.5 597,-1272.5 917,-1272.5 917,-1242.5 597,-1242.5"/>
<text text-anchor="start" x="604" y="-1253.9" font-family="Arial" font-size="14.00" fill="#000000">ident_value    </text>
<text text-anchor="start" x="709.7868" y="-1253.9" font-family="Arial" font-size="14.00" fill="#666666">[text]</text>
<polygon fill="none" stroke="#000000" points="597,-1212.5 597,-1242.5 917,-1242.5 917,-1212.5 597,-1212.5"/>
<text text-anchor="start" x="604" y="-1223.9" font-family="Arial" font-size="14.00" fill="#000000">ident_type2    </text>
<text text-anchor="start" x="710.5708" y="-1223.9" font-family="Arial" font-size="14.00" fill="#666666">[integer]</text>
<polygon fill="none" stroke="#000000" points="597,-1182.5 597,-1212.5 917,-1212.5 917,-1182.5 597,-1182.5"/>
<text text-anchor="start" x="604" y="-1193.9" font-family="Arial" font-size="14.00" fill="#000000">ident_value2    </text>
<text text-anchor="start" x="717.5694" y="-1193.9" font-family="Arial" font-size="14.00" fill="#666666">[text]</text>
<polygon fill="none" stroke="#000000" points="597,-1152.5 597,-1182.5 917,-1182.5 917,-1152.5 597,-1152.5"/>
<text text-anchor="start" x="604" y="-1163.9" font-family="Arial" font-size="14.00" fill="#000000">net_access_level    </text>
<text text-anchor="start" x="745.5694" y="-1163.9" font-family="Arial" font-size="14.00" fill="#666666">[integer]</text>
<polygon fill="none" stroke="#000000" points="597,-1122.5 597,-1152.5 917,-1152.5 917,-1122.5 597,-1122.5"/>
<text text-anchor="start" x="604" y="-1133.9" font-family="Arial" font-size="14.00" fill="#000000">photo_url    </text>
<text text-anchor="start" x="696.5582" y="-1133.9" font-family="Arial" font-size="14.00" fill="#666666">[text]</text>
<polygon fill="none" stroke="#000000" points="597,-1092.5 597,-1122.5 917,-1122.5 917,-1092.5 597,-1092.5"/>
<text text-anchor="start" x="604" y="-1103.9" font-family="Arial" font-size="14.00" fill="#000000">prefix    </text>
<text text-anchor="start" x="672.4278" y="-1103.9" font-family="Arial" font-size="14.00" fill="#666666">[text]</text>
<polygon fill="none" stroke="#000000" points="597,-1062.5 597,-1092.5 917,-1092.5 917,-1062.5 597,-1062.5"/>
<text text-anchor="start" x="604" y="-1073.9" font-family="Arial" font-size="14.00" fill="#000000">first_given_name    </text>
<text text-anchor="start" x="744.7812" y="-1073.9" font-family="Arial" font-size="14.00" fill="#666666">[text]</text>
<polygon fill="none" stroke="#000000" points="597,-1032.5 597,-1062.5 917,-1062.5 917,-1032.5 597,-1032.5"/>
<text text-anchor="start" x="604" y="-1043.9" font-family="Arial" font-size="14.00" fill="#000000">second_given_name    </text>
<text text-anchor="start" x="767.3632" y="-1043.9" font-family="Arial" font-size="14.00" fill="#666666">[text]</text>
<polygon fill="none" stroke="#000000" points="597,-1002.5 597,-1032.5 917,-1032.5 917,-1002.5 597,-1002.5"/>
<text text-anchor="start" x="604" y="-1013.9" font-family="Arial" font-size="14.00" fill="#000000">family_name    </text>
<text text-anchor="start" x="717.5428" y="-1013.9" font-family="Arial" font-size="14.00" fill="#666666">[text]</text>
<polygon fill="none" stroke="#000000" points="597,-972.5 597,-1002.5 917,-1002.5 917,-972.5 597,-972.5"/>
<text text-anchor="start" x="604" y="-983.9" font-family="Arial" font-size="14.00" fill="#000000">suffix    </text>
<text text-anchor="start" x="670.8752" y="-983.9" font-family="Arial" font-size="14.00" fill="#666666">[text]</text>
<polygon fill="none" stroke="#000000" points="597,-942.5 597,-972.5 917,-972.5 917,-942.5 597,-942.5"/>
<text text-anchor="start" x="604" y="-953.9" font-family="Arial" font-size="14.00" fill="#000000">alias    </text>
<text text-anchor="start" x="666.9832" y="-953.9" font-family="Arial" font-size="14.00" fill="#666666">[text]</text>
<polygon fill="none" stroke="#000000" points="597,-912.5 597,-942.5 917,-942.5 917,-912.5 597,-912.5"/>
<text text-anchor="start" x="604" y="-923.9" font-family="Arial" font-size="14.00" fill="#000000">day_phone    </text>
<text text-anchor="start" x="707.4656" y="-923.9" font-family="Arial" font-size="14.00" fill="#666666">[text]</text>
<polygon fill="none" stroke="#000000" points="597,-882.5 597,-912.5 917,-912.5 917,-882.5 597,-882.5"/>
<text text-anchor="start" x="604" y="-893.9" font-family="Arial" font-size="14.00" fill="#000000">evening_phone    </text>
<text text-anchor="start" x="733.92" y="-893.9" font-family="Arial" font-size="14.00" fill="#666666">[text]</text>
<polygon fill="none" stroke="#000000" points="597,-852.5 597,-882.5 917,-882.5 917,-852.5 597,-852.5"/>
<text text-anchor="start" x="604" y="-863.9" font-family="Arial" font-size="14.00" fill="#000000">other_phone    </text>
<text text-anchor="start" x="716.7994" y="-863.9" font-family="Arial" font-size="14.00" fill="#666666">[text]</text>
<polygon fill="none" stroke="#000000" points="597,-822.5 597,-852.5 917,-852.5 917,-822.5 597,-822.5"/>
<text text-anchor="start" x="604" y="-833.9" font-family="Arial" font-size="14.00" fill="#000000">mailing_address    </text>
<text text-anchor="start" x="740.1066" y="-833.9" font-family="Arial" font-size="14.00" fill="#666666">[integer]</text>
<polygon fill="none" stroke="#000000" points="597,-792.5 597,-822.5 917,-822.5 917,-792.5 597,-792.5"/>
<text text-anchor="start" x="604" y="-803.9" font-family="Arial" font-size="14.00" fill="#000000">billing_address    </text>
<text text-anchor="start" x="731.5526" y="-803.9" font-family="Arial" font-size="14.00" fill="#666666">[integer]</text>
<polygon fill="none" stroke="#000000" points="597,-762.5 597,-792.5 917,-792.5 917,-762.5 597,-762.5"/>
<text text-anchor="start" x="604" y="-773.9" font-family="Arial" font-size="14.00" fill="#000000">home_ou    </text>
<text text-anchor="start" x="696.561" y="-773.9" font-family="Arial" font-size="14.00" fill="#666666">[integer]</text>
<polygon fill="none" stroke="#000000" points="597,-732.5 597,-762.5 917,-762.5 917,-732.5 597,-732.5"/>
<text text-anchor="start" x="604" y="-743.9" font-family="Arial" font-size="14.00" fill="#000000">dob    </text>
<text text-anchor="start" x="661.5526" y="-743.9" font-family="Arial" font-size="14.00" fill="#666666">[date]</text>
<polygon fill="none" stroke="#000000" points="597,-702.5 597,-732.5 917,-732.5 917,-702.5 597,-702.5"/>
<text text-anchor="start" x="604" y="-713.9" font-family="Arial" font-size="14.00" fill="#000000">active    </text>
<text text-anchor="start" x="674.7672" y="-713.9" font-family="Arial" font-size="14.00" fill="#666666">[boolean]</text>
<polygon fill="none" stroke="#000000" points="597,-672.5 597,-702.5 917,-702.5 917,-672.5 597,-672.5"/>
<text text-anchor="start" x="604" y="-683.9" font-family="Arial" font-size="14.00" fill="#000000">master_account    </text>
<text text-anchor="start" x="737.7854" y="-683.9" font-family="Arial" font-size="14.00" fill="#666666">[boolean]</text>
<polygon fill="none" stroke="#000000" points="597,-642.5 597,-672.5 917,-672.5 917,-642.5 597,-642.5"/>
<text text-anchor="start" x="604" y="-653.9" font-family="Arial" font-size="14.00" fill="#000000">super_user    </text>
<text text-anchor="start" x="708.2216" y="-653.9" font-family="Arial" font-size="14.00" fill="#666666">[boolean]</text>
<polygon fill="none" stroke="#000000" points="597,-612.5 597,-642.5 917,-642.5 917,-612.5 597,-612.5"/>
<text text-anchor="start" x="604" y="-623.9" font-family="Arial" font-size="14.00" fill="#000000">barred    </text>
<text text-anchor="start" x="678.6564" y="-623.9" font-family="Arial" font-size="14.00" fill="#666666">[boolean]</text>
<polygon fill="none" stroke="#000000" points="597,-582.5 597,-612.5 917,-612.5 917,-582.5 597,-582.5"/>
<text text-anchor="start" x="604" y="-593.9" font-family="Arial" font-size="14.00" fill="#000000">deleted    </text>
<text text-anchor="start" x="684.115" y="-593.9" font-family="Arial" font-size="14.00" fill="#666666">[boolean]</text>
<polygon fill="none" stroke="#000000" points="597,-552.5 597,-582.5 917,-582.5 917,-552.5 597,-552.5"/>
<text text-anchor="start" x="604" y="-563.9" font-family="Arial" font-size="14.00" fill="#000000">juvenile    </text>
<text text-anchor="start" x="685.655" y="-563.9" font-family="Arial" font-size="14.00" fill="#666666">[boolean]</text>
<polygon fill="none" stroke="#000000" points="597,-522.5 597,-552.5 917,-552.5 917,-522.5 597,-522.5"/>
<text text-anchor="start" x="604" y="-533.9" font-family="Arial" font-size="14.00" fill="#000000">usrgroup    </text>
<text text-anchor="start" x="693.439" y="-533.9" font-family="Arial" font-size="14.00" fill="#666666">[integer]</text>
<polygon fill="none" stroke="#000000" points="597,-492.5 597,-522.5 917,-522.5 917,-492.5 597,-492.5"/>
<text text-anchor="start" x="604" y="-503.9" font-family="Arial" font-size="14.00" fill="#000000">claims_returned_count    </text>
<text text-anchor="start" x="779.7896" y="-503.9" font-family="Arial" font-size="14.00" fill="#666666">[integer]</text>
<polygon fill="none" stroke="#000000" points="597,-462.5 597,-492.5 917,-492.5 917,-462.5 597,-462.5"/>
<text text-anchor="start" x="604" y="-473.9" font-family="Arial" font-size="14.00" fill="#000000">credit_forward_balance    </text>
<text text-anchor="start" x="783.6788" y="-473.9" font-family="Arial" font-size="14.00" fill="#666666">[numeric(6,2)]</text>
<polygon fill="none" stroke="#000000" points="597,-432.5 597,-462.5 917,-462.5 917,-432.5 597,-432.5"/>
<text text-anchor="start" x="604" y="-443.9" font-family="Arial" font-size="14.00" fill="#000000">last_xact_id    </text>
<text text-anchor="start" x="712.1122" y="-443.9" font-family="Arial" font-size="14.00" fill="#666666">[text]</text>
<polygon fill="none" stroke="#000000" points="597,-402.5 597,-432.5 917,-432.5 917,-402.5 597,-402.5"/>
<text text-anchor="start" x="604" y="-413.9" font-family="Arial" font-size="14.00" fill="#000000">alert_message    </text>
<text text-anchor="start" x="730.0014" y="-413.9" font-family="Arial" font-size="14.00" fill="#666666">[text]</text>
<polygon fill="none" stroke="#000000" points="597,-372.5 597,-402.5 917,-402.5 917,-372.5 597,-372.5"/>
<text text-anchor="start" x="604" y="-383.9" font-family="Arial" font-size="14.00" fill="#000000">create_date    </text>
<text text-anchor="start" x="712.1248" y="-383.9" font-family="Arial" font-size="14.00" fill="#666666">[timestamp with time zone]</text>
<polygon fill="none" stroke="#000000" points="597,-342.5 597,-372.5 917,-372.5 917,-342.5 597,-342.5"/>
<text text-anchor="start" x="604" y="-353.9" font-family="Arial" font-size="14.00" fill="#000000">expire_date    </text>
<text text-anchor="start" x="711.3408" y="-353.9" font-family="Arial" font-size="14.00" fill="#666666">[timestamp with time zone]</text>
<polygon fill="none" stroke="#000000" points="597,-312.5 597,-342.5 917,-342.5 917,-312.5 597,-312.5"/>
<text text-anchor="start" x="604" y="-323.9" font-family="Arial" font-size="14.00" fill="#000000">claims_never_checked_out_count    </text>
<text text-anchor="start" x="849.8246" y="-323.9" font-family="Arial" font-size="14.00" fill="#666666">[integer]</text>
<polygon fill="none" stroke="#000000" points="597,-282.5 597,-312.5 917,-312.5 917,-282.5 597,-282.5"/>
<text text-anchor="start" x="603.7609" y="-293.9" font-family="Arial" font-size="14.00" fill="#000000">last_update_time    </text>
<text text-anchor="start" x="744.5547" y="-293.9" font-family="Arial" font-size="14.00" fill="#666666">[timestamp with time zone]</text>
<polygon fill="none" stroke="#000000" points="597,-252.5 597,-282.5 917,-282.5 917,-252.5 597,-252.5"/>
<text text-anchor="start" x="604" y="-263.9" font-family="Arial" font-size="14.00" fill="#000000">pref_prefix    </text>
<text text-anchor="start" x="704.3268" y="-263.9" font-family="Arial" font-size="14.00" fill="#666666">[text]</text>
<polygon fill="none" stroke="#000000" points="597,-222.5 597,-252.5 917,-252.5 917,-222.5 597,-222.5"/>
<text text-anchor="start" x="604" y="-233.9" font-family="Arial" font-size="14.00" fill="#000000">pref_first_given_name    </text>
<text text-anchor="start" x="776.6802" y="-233.9" font-family="Arial" font-size="14.00" fill="#666666">[text]</text>
<polygon fill="none" stroke="#000000" points="597,-192.5 597,-222.5 917,-222.5 917,-192.5 597,-192.5"/>
<text text-anchor="start" x="604" y="-203.9" font-family="Arial" font-size="14.00" fill="#000000">pref_second_given_name    </text>
<text text-anchor="start" x="799.2622" y="-203.9" font-family="Arial" font-size="14.00" fill="#666666">[text]</text>
<polygon fill="none" stroke="#000000" points="597,-162.5 597,-192.5 917,-192.5 917,-162.5 597,-162.5"/>
<text text-anchor="start" x="604" y="-173.9" font-family="Arial" font-size="14.00" fill="#000000">pref_family_name    </text>
<text text-anchor="start" x="749.4418" y="-173.9" font-family="Arial" font-size="14.00" fill="#666666">[text]</text>
<polygon fill="none" stroke="#000000" points="597,-132.5 597,-162.5 917,-162.5 917,-132.5 597,-132.5"/>
<text text-anchor="start" x="604" y="-143.9" font-family="Arial" font-size="14.00" fill="#000000">pref_suffix    </text>
<text text-anchor="start" x="702.7742" y="-143.9" font-family="Arial" font-size="14.00" fill="#666666">[text]</text>
<polygon fill="none" stroke="#000000" points="597,-102.5 597,-132.5 917,-132.5 917,-102.5 597,-102.5"/>
<text text-anchor="start" x="604" y="-113.9" font-family="Arial" font-size="14.00" fill="#000000">name_keywords    </text>
<text text-anchor="start" x="740.1108" y="-113.9" font-family="Arial" font-size="14.00" fill="#666666">[text]</text>
<polygon fill="none" stroke="#000000" points="597,-72.5 597,-102.5 917,-102.5 917,-72.5 597,-72.5"/>
<text text-anchor="start" x="604" y="-83.9" font-family="Arial" font-size="14.00" fill="#000000">name_kw_tsvector    </text>
<text text-anchor="start" x="754.892" y="-83.9" font-family="Arial" font-size="14.00" fill="#666666">[tsvector]</text>
<polygon fill="none" stroke="#000000" points="597,-42.5 597,-72.5 917,-72.5 917,-42.5 597,-42.5"/>
<text text-anchor="start" x="604" y="-53.9" font-family="Arial" font-size="14.00" fill="#000000">guardian    </text>
<text text-anchor="start" x="692.6676" y="-53.9" font-family="Arial" font-size="14.00" fill="#666666">[text]</text>
</g>
<!-- config.filter_dialog_filter_set&#45;&gt;actor.usr -->
<g id="edge2" class="edge">
<title>config.filter_dialog_filter_set:creator&#45;&gt;actor.usr:id</title>
<path fill="none" stroke="#000000" d="M948.8011,-1774.9069C998.7921,-1746.6795 975.8788,-1497.5 917,-1497.5"/>
<polygon fill="#000000" stroke="#000000" points="948.6674,-1774.9422 937.849,-1773.1497 943.8337,-1776.2211 939,-1777.5 939,-1777.5 939,-1777.5 943.8337,-1776.2211 940.151,-1781.8503 948.6674,-1774.9422 948.6674,-1774.9422"/>
<text text-anchor="start" x="945.6055" y="-1787.5" font-family="Arial" font-size="10.00" fill="#000000">FOREIGN KEY (creator) REFERENCES actor.usr(id) ON DELETE CASCADE DEFERRABLE INITIALLY DEFERRED</text>
</g>
<!-- config.filter_dialog_interface -->
<g id="node4" class="node">
<title>config.filter_dialog_interface</title>
<polygon fill="#efefef" stroke="transparent" points="1022,-807.5 1022,-842.5 1387,-842.5 1387,-807.5 1022,-807.5"/>
<polygon fill="none" stroke="#000000" points="1022,-807.5 1022,-842.5 1387,-842.5 1387,-807.5 1022,-807.5"/>
<text text-anchor="start" x="1028.6912" y="-820.3" font-family="Arial Bold" font-size="18.00" fill="#000000">config.filter_dialog_interface</text>
<text text-anchor="start" x="1252.7408" y="-820.3" font-family="Arial" font-size="14.00" fill="#000000">    </text>
<text text-anchor="start" x="1286.9456" y="-820.3" font-family="Arial" font-size="14.00" fill="#666666">[BASE TABLE]</text>
<polygon fill="none" stroke="#000000" points="1022,-777.5 1022,-807.5 1387,-807.5 1387,-777.5 1022,-777.5"/>
<text text-anchor="start" x="1029" y="-788.9" font-family="Arial" font-size="14.00" fill="#000000">key    </text>
<text text-anchor="start" x="1084.9874" y="-788.9" font-family="Arial" font-size="14.00" fill="#666666">[text]</text>
<polygon fill="none" stroke="#000000" points="1022,-747.5 1022,-777.5 1387,-777.5 1387,-747.5 1022,-747.5"/>
<text text-anchor="start" x="1029" y="-758.9" font-family="Arial" font-size="14.00" fill="#000000">description    </text>
<text text-anchor="start" x="1130.8822" y="-758.9" font-family="Arial" font-size="14.00" fill="#666666">[text]</text>
</g>
<!-- config.filter_dialog_filter_set&#45;&gt;config.filter_dialog_interface -->
<g id="edge3" class="edge">
<title>config.filter_dialog_filter_set:interface&#45;&gt;config.filter_dialog_interface:key</title>
<path fill="none" stroke="#000000" d="M948.546,-1714.5084C1034.2472,-1657.094 922.2356,-792.5 1022,-792.5"/>
<polygon fill="#000000" stroke="#000000" points="948.5424,-1714.5095 937.6543,-1713.2059 943.7712,-1716.0047 939,-1717.5 939,-1717.5 939,-1717.5 943.7712,-1716.0047 940.3457,-1721.7941 948.5424,-1714.5095 948.5424,-1714.5095"/>
<text text-anchor="start" x="945.5925" y="-1727.5" font-family="Arial" font-size="10.00" fill="#000000">FOREIGN KEY (interface) REFERENCES config.filter_dialog_interface(key) DEFERRABLE INITIALLY DEFERRED</text>
</g>
</g>
</svg>
