<?xml version="1.0" encoding="UTF-8" standalone="no"?>
<!DOCTYPE svg PUBLIC "-//W3C//DTD SVG 1.1//EN"
 "http://www.w3.org/Graphics/SVG/1.1/DTD/svg11.dtd">
<!-- Generated by graphviz version 2.40.1 (20161225.0304)
 -->
<!-- Title: config.circ_limit_set_group_map Pages: 1 -->
<svg width="1612pt" height="622pt"
 viewBox="0.00 0.00 1612.00 622.00" xmlns="http://www.w3.org/2000/svg" xmlns:xlink="http://www.w3.org/1999/xlink">
<g id="graph0" class="graph" transform="scale(1 1) rotate(0) translate(4 618)">
<title>config.circ_limit_set_group_map</title>
<polygon fill="#ffffff" stroke="transparent" points="-4,4 -4,-618 1608,-618 1608,4 -4,4"/>
<!-- config.circ_limit_set_group_map -->
<g id="node1" class="node">
<title>config.circ_limit_set_group_map</title>
<polygon fill="#efefef" stroke="transparent" points="590,-532.5 590,-567.5 989,-567.5 989,-532.5 590,-532.5"/>
<polygon fill="none" stroke="#000000" points="590,-532.5 590,-567.5 989,-567.5 989,-532.5 590,-532.5"/>
<text text-anchor="start" x="596.6983" y="-545.3" font-family="Arial Bold" font-size="18.00" fill="#000000">config.circ_limit_set_group_map</text>
<text text-anchor="start" x="854.7337" y="-545.3" font-family="Arial" font-size="14.00" fill="#000000">    </text>
<text text-anchor="start" x="888.9385" y="-545.3" font-family="Arial" font-size="14.00" fill="#666666">[BASE TABLE]</text>
<polygon fill="none" stroke="#000000" points="590,-502.5 590,-532.5 989,-532.5 989,-502.5 590,-502.5"/>
<text text-anchor="start" x="597" y="-513.9" font-family="Arial" font-size="14.00" fill="#000000">id </text>
<text text-anchor="start" x="611.7798" y="-513.9" font-family="Arial" font-size="14.00" fill="#666666">[integer]</text>
<polygon fill="none" stroke="#000000" points="590,-472.5 590,-502.5 989,-502.5 989,-472.5 590,-472.5"/>
<text text-anchor="start" x="597" y="-483.9" font-family="Arial" font-size="14.00" fill="#000000">limit_set </text>
<text text-anchor="start" x="652.2174" y="-483.9" font-family="Arial" font-size="14.00" fill="#666666">[integer]</text>
<polygon fill="none" stroke="#000000" points="590,-442.5 590,-472.5 989,-472.5 989,-442.5 590,-442.5"/>
<text text-anchor="start" x="597" y="-453.9" font-family="Arial" font-size="14.00" fill="#000000">limit_group </text>
<text text-anchor="start" x="669.3352" y="-453.9" font-family="Arial" font-size="14.00" fill="#666666">[integer]</text>
<polygon fill="none" stroke="#000000" points="590,-412.5 590,-442.5 989,-442.5 989,-412.5 590,-412.5"/>
<text text-anchor="start" x="597" y="-423.9" font-family="Arial" font-size="14.00" fill="#000000">check_only </text>
<text text-anchor="start" x="670.9102" y="-423.9" font-family="Arial" font-size="14.00" fill="#666666">[boolean]</text>
<polygon fill="none" stroke="#000000" stroke-width="3" points="588,-411.5 588,-569.5 990,-569.5 990,-411.5 588,-411.5"/>
</g>
<!-- config.circ_limit_set -->
<g id="node2" class="node">
<title>config.circ_limit_set</title>
<polygon fill="#efefef" stroke="transparent" points="435,-252.5 435,-287.5 733,-287.5 733,-252.5 435,-252.5"/>
<polygon fill="none" stroke="#000000" points="435,-252.5 435,-287.5 733,-287.5 733,-252.5 435,-252.5"/>
<text text-anchor="start" x="441.7153" y="-265.3" font-family="Arial Bold" font-size="18.00" fill="#000000">config.circ_limit_set</text>
<text text-anchor="start" x="598.7167" y="-265.3" font-family="Arial" font-size="14.00" fill="#000000">    </text>
<text text-anchor="start" x="632.9215" y="-265.3" font-family="Arial" font-size="14.00" fill="#666666">[BASE TABLE]</text>
<polygon fill="none" stroke="#000000" points="435,-222.5 435,-252.5 733,-252.5 733,-222.5 435,-222.5"/>
<text text-anchor="start" x="442" y="-233.9" font-family="Arial" font-size="14.00" fill="#000000">id    </text>
<text text-anchor="start" x="487.094" y="-233.9" font-family="Arial" font-size="14.00" fill="#666666">[integer]</text>
<polygon fill="none" stroke="#000000" points="435,-192.5 435,-222.5 733,-222.5 733,-192.5 435,-192.5"/>
<text text-anchor="start" x="442" y="-203.9" font-family="Arial" font-size="14.00" fill="#000000">name    </text>
<text text-anchor="start" x="511.2132" y="-203.9" font-family="Arial" font-size="14.00" fill="#666666">[text]</text>
<polygon fill="none" stroke="#000000" points="435,-162.5 435,-192.5 733,-192.5 733,-162.5 435,-162.5"/>
<text text-anchor="start" x="442" y="-173.9" font-family="Arial" font-size="14.00" fill="#000000">owning_lib    </text>
<text text-anchor="start" x="542.3268" y="-173.9" font-family="Arial" font-size="14.00" fill="#666666">[integer]</text>
<polygon fill="none" stroke="#000000" points="435,-132.5 435,-162.5 733,-162.5 733,-132.5 435,-132.5"/>
<text text-anchor="start" x="442" y="-143.9" font-family="Arial" font-size="14.00" fill="#000000">items_out    </text>
<text text-anchor="start" x="536.8836" y="-143.9" font-family="Arial" font-size="14.00" fill="#666666">[integer]</text>
<polygon fill="none" stroke="#000000" points="435,-102.5 435,-132.5 733,-132.5 733,-102.5 435,-102.5"/>
<text text-anchor="start" x="442" y="-113.9" font-family="Arial" font-size="14.00" fill="#000000">depth    </text>
<text text-anchor="start" x="511.2258" y="-113.9" font-family="Arial" font-size="14.00" fill="#666666">[integer]</text>
<polygon fill="none" stroke="#000000" points="435,-72.5 435,-102.5 733,-102.5 733,-72.5 435,-72.5"/>
<text text-anchor="start" x="442" y="-83.9" font-family="Arial" font-size="14.00" fill="#000000">global    </text>
<text text-anchor="start" x="513.5484" y="-83.9" font-family="Arial" font-size="14.00" fill="#666666">[boolean]</text>
<polygon fill="none" stroke="#000000" points="435,-42.5 435,-72.5 733,-72.5 733,-42.5 435,-42.5"/>
<text text-anchor="start" x="442" y="-53.9" font-family="Arial" font-size="14.00" fill="#000000">description    </text>
<text text-anchor="start" x="543.8822" y="-53.9" font-family="Arial" font-size="14.00" fill="#666666">[text]</text>
</g>
<!-- config.circ_limit_set_group_map&#45;&gt;config.circ_limit_set -->
<g id="edge1" class="edge">
<title>config.circ_limit_set_group_map:limit_set&#45;&gt;config.circ_limit_set:id</title>
<path fill="none" stroke="#000000" d="M580.0372,-486.4394C539.3226,-476.9687 559.3266,-406.3524 590,-367 630.2908,-315.309 692.7092,-382.691 733,-331 758.5469,-298.2247 774.5556,-237.5 733,-237.5"/>
<polygon fill="#000000" stroke="#000000" points="580.0562,-486.4413 589.5236,-491.9747 585.0281,-486.9707 590,-487.5 590,-487.5 590,-487.5 585.0281,-486.9707 590.4764,-483.0253 580.0562,-486.4413 580.0562,-486.4413"/>
<text text-anchor="start" x="6.6665" y="-497.5" font-family="Arial" font-size="10.00" fill="#000000">FOREIGN KEY (limit_set) REFERENCES config.circ_limit_set(id) ON DELETE CASCADE DEFERRABLE INITIALLY DEFERRED</text>
</g>
<!-- config.circ_limit_group -->
<g id="node3" class="node">
<title>config.circ_limit_group</title>
<polygon fill="#efefef" stroke="transparent" points="837,-192.5 837,-227.5 1157,-227.5 1157,-192.5 837,-192.5"/>
<polygon fill="none" stroke="#000000" points="837,-192.5 837,-227.5 1157,-227.5 1157,-192.5 837,-192.5"/>
<text text-anchor="start" x="843.711" y="-205.3" font-family="Arial Bold" font-size="18.00" fill="#000000">config.circ_limit_group</text>
<text text-anchor="start" x="1022.721" y="-205.3" font-family="Arial" font-size="14.00" fill="#000000">    </text>
<text text-anchor="start" x="1056.9258" y="-205.3" font-family="Arial" font-size="14.00" fill="#666666">[BASE TABLE]</text>
<polygon fill="none" stroke="#000000" points="837,-162.5 837,-192.5 1157,-192.5 1157,-162.5 837,-162.5"/>
<text text-anchor="start" x="844" y="-173.9" font-family="Arial" font-size="14.00" fill="#000000">id    </text>
<text text-anchor="start" x="889.094" y="-173.9" font-family="Arial" font-size="14.00" fill="#666666">[integer]</text>
<polygon fill="none" stroke="#000000" points="837,-132.5 837,-162.5 1157,-162.5 1157,-132.5 837,-132.5"/>
<text text-anchor="start" x="844" y="-143.9" font-family="Arial" font-size="14.00" fill="#000000">name    </text>
<text text-anchor="start" x="913.2132" y="-143.9" font-family="Arial" font-size="14.00" fill="#666666">[text]</text>
<polygon fill="none" stroke="#000000" points="837,-102.5 837,-132.5 1157,-132.5 1157,-102.5 837,-102.5"/>
<text text-anchor="start" x="844" y="-113.9" font-family="Arial" font-size="14.00" fill="#000000">description    </text>
<text text-anchor="start" x="945.8822" y="-113.9" font-family="Arial" font-size="14.00" fill="#666666">[text]</text>
</g>
<!-- config.circ_limit_set_group_map&#45;&gt;config.circ_limit_group -->
<g id="edge2" class="edge">
<title>config.circ_limit_set_group_map:limit_group&#45;&gt;config.circ_limit_group:id</title>
<path fill="none" stroke="#000000" d="M999.0959,-455.9887C1025.1717,-446.8955 1006.5194,-398.7859 989,-367 950.4314,-297.0239 875.5686,-340.9761 837,-271 816.941,-234.6063 795.4444,-177.5 837,-177.5"/>
<polygon fill="#000000" stroke="#000000" points="998.8898,-456.0195 988.3338,-453.0496 993.9449,-456.7598 989,-457.5 989,-457.5 989,-457.5 993.9449,-456.7598 989.6662,-461.9504 998.8898,-456.0195 998.8898,-456.0195"/>
<text text-anchor="start" x="996.4395" y="-467.5" font-family="Arial" font-size="10.00" fill="#000000">FOREIGN KEY (limit_group) REFERENCES config.circ_limit_group(id) ON DELETE CASCADE DEFERRABLE INITIALLY DEFERRED</text>
</g>
</g>
</svg>
