<?xml version="1.0" encoding="UTF-8" standalone="no"?>
<!DOCTYPE svg PUBLIC "-//W3C//DTD SVG 1.1//EN"
 "http://www.w3.org/Graphics/SVG/1.1/DTD/svg11.dtd">
<!-- Generated by graphviz version 2.40.1 (20161225.0304)
 -->
<!-- Title: config.index_normalizer Pages: 1 -->
<svg width="1856pt" height="592pt"
 viewBox="0.00 0.00 1856.00 592.00" xmlns="http://www.w3.org/2000/svg" xmlns:xlink="http://www.w3.org/1999/xlink">
<g id="graph0" class="graph" transform="scale(1 1) rotate(0) translate(4 588)">
<title>config.index_normalizer</title>
<polygon fill="#ffffff" stroke="transparent" points="-4,4 -4,-588 1852,-588 1852,4 -4,4"/>
<!-- config.index_normalizer -->
<g id="node1" class="node">
<title>config.index_normalizer</title>
<polygon fill="#efefef" stroke="transparent" points="758,-195.5 758,-230.5 1089,-230.5 1089,-195.5 758,-195.5"/>
<polygon fill="none" stroke="#000000" points="758,-195.5 758,-230.5 1089,-230.5 1089,-195.5 758,-195.5"/>
<text text-anchor="start" x="764.703" y="-208.3" font-family="Arial Bold" font-size="18.00" fill="#000000">config.index_normalizer</text>
<text text-anchor="start" x="954.729" y="-208.3" font-family="Arial" font-size="14.00" fill="#000000">    </text>
<text text-anchor="start" x="988.9338" y="-208.3" font-family="Arial" font-size="14.00" fill="#666666">[BASE TABLE]</text>
<polygon fill="none" stroke="#000000" points="758,-165.5 758,-195.5 1089,-195.5 1089,-165.5 758,-165.5"/>
<text text-anchor="start" x="765" y="-176.9" font-family="Arial" font-size="14.00" fill="#000000">id </text>
<text text-anchor="start" x="779.7798" y="-176.9" font-family="Arial" font-size="14.00" fill="#666666">[integer]</text>
<polygon fill="none" stroke="#000000" points="758,-135.5 758,-165.5 1089,-165.5 1089,-135.5 758,-135.5"/>
<text text-anchor="start" x="765" y="-146.9" font-family="Arial" font-size="14.00" fill="#000000">name </text>
<text text-anchor="start" x="803.899" y="-146.9" font-family="Arial" font-size="14.00" fill="#666666">[text]</text>
<polygon fill="none" stroke="#000000" points="758,-105.5 758,-135.5 1089,-135.5 1089,-105.5 758,-105.5"/>
<text text-anchor="start" x="765" y="-116.9" font-family="Arial" font-size="14.00" fill="#000000">description </text>
<text text-anchor="start" x="836.568" y="-116.9" font-family="Arial" font-size="14.00" fill="#666666">[text]</text>
<polygon fill="none" stroke="#000000" points="758,-75.5 758,-105.5 1089,-105.5 1089,-75.5 758,-75.5"/>
<text text-anchor="start" x="765" y="-86.9" font-family="Arial" font-size="14.00" fill="#000000">func </text>
<text text-anchor="start" x="795.3464" y="-86.9" font-family="Arial" font-size="14.00" fill="#666666">[text]</text>
<polygon fill="none" stroke="#000000" points="758,-45.5 758,-75.5 1089,-75.5 1089,-45.5 758,-45.5"/>
<text text-anchor="start" x="765" y="-56.9" font-family="Arial" font-size="14.00" fill="#000000">param_count </text>
<text text-anchor="start" x="850.5806" y="-56.9" font-family="Arial" font-size="14.00" fill="#666666">[integer]</text>
<polygon fill="none" stroke="#000000" stroke-width="3" points="756,-44.5 756,-232.5 1090,-232.5 1090,-44.5 756,-44.5"/>
</g>
<!-- authority.heading_field_norm_map -->
<g id="node2" class="node">
<title>authority.heading_field_norm_map</title>
<polygon fill="#efefef" stroke="transparent" points="177,-505.5 177,-540.5 595,-540.5 595,-505.5 177,-505.5"/>
<polygon fill="none" stroke="#000000" points="177,-505.5 177,-540.5 595,-540.5 595,-505.5 177,-505.5"/>
<text text-anchor="start" x="183.6799" y="-518.3" font-family="Arial Bold" font-size="18.00" fill="#000000">authority.heading_field_norm_map</text>
<text text-anchor="start" x="460.7521" y="-518.3" font-family="Arial" font-size="14.00" fill="#000000">    </text>
<text text-anchor="start" x="494.9569" y="-518.3" font-family="Arial" font-size="14.00" fill="#666666">[BASE TABLE]</text>
<polygon fill="none" stroke="#000000" points="177,-475.5 177,-505.5 595,-505.5 595,-475.5 177,-475.5"/>
<text text-anchor="start" x="184" y="-486.9" font-family="Arial" font-size="14.00" fill="#000000">id    </text>
<text text-anchor="start" x="229.094" y="-486.9" font-family="Arial" font-size="14.00" fill="#666666">[integer]</text>
<polygon fill="none" stroke="#000000" points="177,-445.5 177,-475.5 595,-475.5 595,-445.5 177,-445.5"/>
<text text-anchor="start" x="184" y="-456.9" font-family="Arial" font-size="14.00" fill="#000000">field    </text>
<text text-anchor="start" x="243.8738" y="-456.9" font-family="Arial" font-size="14.00" fill="#666666">[integer]</text>
<polygon fill="none" stroke="#000000" points="177,-415.5 177,-445.5 595,-445.5 595,-415.5 177,-415.5"/>
<text text-anchor="start" x="184" y="-426.9" font-family="Arial" font-size="14.00" fill="#000000">norm    </text>
<text text-anchor="start" x="250.0912" y="-426.9" font-family="Arial" font-size="14.00" fill="#666666">[integer]</text>
<polygon fill="none" stroke="#000000" points="177,-385.5 177,-415.5 595,-415.5 595,-385.5 177,-385.5"/>
<text text-anchor="start" x="184" y="-396.9" font-family="Arial" font-size="14.00" fill="#000000">params    </text>
<text text-anchor="start" x="264.8738" y="-396.9" font-family="Arial" font-size="14.00" fill="#666666">[text]</text>
<polygon fill="none" stroke="#000000" points="177,-355.5 177,-385.5 595,-385.5 595,-355.5 177,-355.5"/>
<text text-anchor="start" x="184" y="-366.9" font-family="Arial" font-size="14.00" fill="#000000">pos    </text>
<text text-anchor="start" x="240.77" y="-366.9" font-family="Arial" font-size="14.00" fill="#666666">[integer]</text>
</g>
<!-- authority.heading_field_norm_map&#45;&gt;config.index_normalizer -->
<g id="edge1" class="edge">
<title>authority.heading_field_norm_map:norm&#45;&gt;config.index_normalizer:id</title>
<path fill="none" stroke="#000000" d="M605.2007,-429.6131C647.7086,-421.4234 618.8158,-358.2568 647,-313 687.6107,-247.7892 681.1776,-180.5 758,-180.5"/>
<polygon fill="#000000" stroke="#000000" points="604.9624,-429.6337 594.6102,-426.0169 599.9812,-430.0669 595,-430.5 595,-430.5 595,-430.5 599.9812,-430.0669 595.3898,-434.9831 604.9624,-429.6337 604.9624,-429.6337"/>
<text text-anchor="start" x="7.436" y="-440.5" font-family="Arial" font-size="10.00" fill="#000000">FOREIGN KEY (norm) REFERENCES config.index_normalizer(id) ON DELETE CASCADE DEFERRABLE INITIALLY DEFERRED</text>
</g>
<!-- config.metabib_field_index_norm_map -->
<g id="node3" class="node">
<title>config.metabib_field_index_norm_map</title>
<polygon fill="#efefef" stroke="transparent" points="699,-505.5 699,-540.5 1149,-540.5 1149,-505.5 699,-505.5"/>
<polygon fill="none" stroke="#000000" points="699,-505.5 699,-540.5 1149,-540.5 1149,-505.5 699,-505.5"/>
<text text-anchor="start" x="705.6797" y="-518.3" font-family="Arial Bold" font-size="18.00" fill="#000000">config.metabib_field_index_norm_map</text>
<text text-anchor="start" x="1014.7523" y="-518.3" font-family="Arial" font-size="14.00" fill="#000000">    </text>
<text text-anchor="start" x="1048.9571" y="-518.3" font-family="Arial" font-size="14.00" fill="#666666">[BASE TABLE]</text>
<polygon fill="none" stroke="#000000" points="699,-475.5 699,-505.5 1149,-505.5 1149,-475.5 699,-475.5"/>
<text text-anchor="start" x="706" y="-486.9" font-family="Arial" font-size="14.00" fill="#000000">id    </text>
<text text-anchor="start" x="751.094" y="-486.9" font-family="Arial" font-size="14.00" fill="#666666">[integer]</text>
<polygon fill="none" stroke="#000000" points="699,-445.5 699,-475.5 1149,-475.5 1149,-445.5 699,-445.5"/>
<text text-anchor="start" x="706" y="-456.9" font-family="Arial" font-size="14.00" fill="#000000">field    </text>
<text text-anchor="start" x="765.8738" y="-456.9" font-family="Arial" font-size="14.00" fill="#666666">[integer]</text>
<polygon fill="none" stroke="#000000" points="699,-415.5 699,-445.5 1149,-445.5 1149,-415.5 699,-415.5"/>
<text text-anchor="start" x="706" y="-426.9" font-family="Arial" font-size="14.00" fill="#000000">norm    </text>
<text text-anchor="start" x="772.0912" y="-426.9" font-family="Arial" font-size="14.00" fill="#666666">[integer]</text>
<polygon fill="none" stroke="#000000" points="699,-385.5 699,-415.5 1149,-415.5 1149,-385.5 699,-385.5"/>
<text text-anchor="start" x="706" y="-396.9" font-family="Arial" font-size="14.00" fill="#000000">params    </text>
<text text-anchor="start" x="786.8738" y="-396.9" font-family="Arial" font-size="14.00" fill="#666666">[text]</text>
<polygon fill="none" stroke="#000000" points="699,-355.5 699,-385.5 1149,-385.5 1149,-355.5 699,-355.5"/>
<text text-anchor="start" x="706" y="-366.9" font-family="Arial" font-size="14.00" fill="#000000">pos    </text>
<text text-anchor="start" x="762.77" y="-366.9" font-family="Arial" font-size="14.00" fill="#666666">[integer]</text>
</g>
<!-- config.metabib_field_index_norm_map&#45;&gt;config.index_normalizer -->
<g id="edge2" class="edge">
<title>config.metabib_field_index_norm_map:norm&#45;&gt;config.index_normalizer:id</title>
<path fill="none" stroke="#000000" d="M688.9938,-429.371C649.2629,-419.6022 666.2855,-348.8734 699,-313 757.6465,-248.6906 1030.3535,-341.3094 1089,-277 1117.8997,-245.3098 1131.8889,-180.5 1089,-180.5"/>
<polygon fill="#000000" stroke="#000000" points="689.063,-429.3788 698.4954,-434.9716 694.0315,-429.9394 699,-430.5 699,-430.5 699,-430.5 694.0315,-429.9394 699.5046,-426.0284 689.063,-429.3788 689.063,-429.3788"/>
<text text-anchor="start" x="706.436" y="-440.5" font-family="Arial" font-size="10.00" fill="#000000">FOREIGN KEY (norm) REFERENCES config.index_normalizer(id) ON DELETE CASCADE DEFERRABLE INITIALLY DEFERRED</text>
</g>
<!-- config.record_attr_index_norm_map -->
<g id="node4" class="node">
<title>config.record_attr_index_norm_map</title>
<polygon fill="#efefef" stroke="transparent" points="1253,-505.5 1253,-540.5 1683,-540.5 1683,-505.5 1253,-505.5"/>
<polygon fill="none" stroke="#000000" points="1253,-505.5 1253,-540.5 1683,-540.5 1683,-505.5 1253,-505.5"/>
<text text-anchor="start" x="1259.685" y="-518.3" font-family="Arial Bold" font-size="18.00" fill="#000000">config.record_attr_index_norm_map</text>
<text text-anchor="start" x="1548.747" y="-518.3" font-family="Arial" font-size="14.00" fill="#000000">    </text>
<text text-anchor="start" x="1582.9518" y="-518.3" font-family="Arial" font-size="14.00" fill="#666666">[BASE TABLE]</text>
<polygon fill="none" stroke="#000000" points="1253,-475.5 1253,-505.5 1683,-505.5 1683,-475.5 1253,-475.5"/>
<text text-anchor="start" x="1260" y="-486.9" font-family="Arial" font-size="14.00" fill="#000000">id    </text>
<text text-anchor="start" x="1305.094" y="-486.9" font-family="Arial" font-size="14.00" fill="#666666">[integer]</text>
<polygon fill="none" stroke="#000000" points="1253,-445.5 1253,-475.5 1683,-475.5 1683,-445.5 1253,-445.5"/>
<text text-anchor="start" x="1260" y="-456.9" font-family="Arial" font-size="14.00" fill="#000000">attr    </text>
<text text-anchor="start" x="1314.4292" y="-456.9" font-family="Arial" font-size="14.00" fill="#666666">[text]</text>
<polygon fill="none" stroke="#000000" points="1253,-415.5 1253,-445.5 1683,-445.5 1683,-415.5 1253,-415.5"/>
<text text-anchor="start" x="1260" y="-426.9" font-family="Arial" font-size="14.00" fill="#000000">norm    </text>
<text text-anchor="start" x="1326.0912" y="-426.9" font-family="Arial" font-size="14.00" fill="#666666">[integer]</text>
<polygon fill="none" stroke="#000000" points="1253,-385.5 1253,-415.5 1683,-415.5 1683,-385.5 1253,-385.5"/>
<text text-anchor="start" x="1260" y="-396.9" font-family="Arial" font-size="14.00" fill="#000000">params    </text>
<text text-anchor="start" x="1340.8738" y="-396.9" font-family="Arial" font-size="14.00" fill="#666666">[text]</text>
<polygon fill="none" stroke="#000000" points="1253,-355.5 1253,-385.5 1683,-385.5 1683,-355.5 1253,-355.5"/>
<text text-anchor="start" x="1260" y="-366.9" font-family="Arial" font-size="14.00" fill="#000000">pos    </text>
<text text-anchor="start" x="1316.77" y="-366.9" font-family="Arial" font-size="14.00" fill="#666666">[integer]</text>
</g>
<!-- config.record_attr_index_norm_map&#45;&gt;config.index_normalizer -->
<g id="edge3" class="edge">
<title>config.record_attr_index_norm_map:norm&#45;&gt;config.index_normalizer:id</title>
<path fill="none" stroke="#000000" d="M1242.8006,-429.6123C1200.3047,-421.4151 1229.2841,-358.1944 1201,-313 1160.0935,-247.6365 1166.1085,-180.5 1089,-180.5"/>
<polygon fill="#000000" stroke="#000000" points="1243.0377,-429.6328 1252.6098,-434.9831 1248.0188,-430.0664 1253,-430.5 1253,-430.5 1253,-430.5 1248.0188,-430.0664 1253.3902,-426.0169 1243.0377,-429.6328 1243.0377,-429.6328"/>
<text text-anchor="start" x="1260.436" y="-414.5" font-family="Arial" font-size="10.00" fill="#000000">FOREIGN KEY (norm) REFERENCES config.index_normalizer(id) ON DELETE CASCADE DEFERRABLE INITIALLY DEFERRED</text>
</g>
</g>
</svg>
