<?xml version="1.0" encoding="UTF-8" standalone="no"?>
<!DOCTYPE svg PUBLIC "-//W3C//DTD SVG 1.1//EN"
 "http://www.w3.org/Graphics/SVG/1.1/DTD/svg11.dtd">
<!-- Generated by graphviz version 2.40.1 (20161225.0304)
 -->
<!-- Title: config.circ_limit_set Pages: 1 -->
<svg width="2324pt" height="1199pt"
 viewBox="0.00 0.00 2324.00 1199.00" xmlns="http://www.w3.org/2000/svg" xmlns:xlink="http://www.w3.org/1999/xlink">
<g id="graph0" class="graph" transform="scale(1 1) rotate(0) translate(4 1195)">
<title>config.circ_limit_set</title>
<polygon fill="#ffffff" stroke="transparent" points="-4,4 -4,-1195 2320,-1195 2320,4 -4,4"/>
<!-- config.circ_limit_set -->
<g id="node1" class="node">
<title>config.circ_limit_set</title>
<polygon fill="#efefef" stroke="transparent" points="1015,-802.5 1015,-837.5 1313,-837.5 1313,-802.5 1015,-802.5"/>
<polygon fill="none" stroke="#000000" points="1015,-802.5 1015,-837.5 1313,-837.5 1313,-802.5 1015,-802.5"/>
<text text-anchor="start" x="1021.7153" y="-815.3" font-family="Arial Bold" font-size="18.00" fill="#000000">config.circ_limit_set</text>
<text text-anchor="start" x="1178.7167" y="-815.3" font-family="Arial" font-size="14.00" fill="#000000">    </text>
<text text-anchor="start" x="1212.9215" y="-815.3" font-family="Arial" font-size="14.00" fill="#666666">[BASE TABLE]</text>
<polygon fill="none" stroke="#000000" points="1015,-772.5 1015,-802.5 1313,-802.5 1313,-772.5 1015,-772.5"/>
<text text-anchor="start" x="1022" y="-783.9" font-family="Arial" font-size="14.00" fill="#000000">id </text>
<text text-anchor="start" x="1036.7798" y="-783.9" font-family="Arial" font-size="14.00" fill="#666666">[integer]</text>
<polygon fill="none" stroke="#000000" points="1015,-742.5 1015,-772.5 1313,-772.5 1313,-742.5 1015,-742.5"/>
<text text-anchor="start" x="1022" y="-753.9" font-family="Arial" font-size="14.00" fill="#000000">name </text>
<text text-anchor="start" x="1060.899" y="-753.9" font-family="Arial" font-size="14.00" fill="#666666">[text]</text>
<polygon fill="none" stroke="#000000" points="1015,-712.5 1015,-742.5 1313,-742.5 1313,-712.5 1015,-712.5"/>
<text text-anchor="start" x="1022" y="-723.9" font-family="Arial" font-size="14.00" fill="#000000">owning_lib </text>
<text text-anchor="start" x="1092.0126" y="-723.9" font-family="Arial" font-size="14.00" fill="#666666">[integer]</text>
<polygon fill="none" stroke="#000000" points="1015,-682.5 1015,-712.5 1313,-712.5 1313,-682.5 1015,-682.5"/>
<text text-anchor="start" x="1022" y="-693.9" font-family="Arial" font-size="14.00" fill="#000000">items_out </text>
<text text-anchor="start" x="1086.5694" y="-693.9" font-family="Arial" font-size="14.00" fill="#666666">[integer]</text>
<polygon fill="none" stroke="#000000" points="1015,-652.5 1015,-682.5 1313,-682.5 1313,-652.5 1015,-652.5"/>
<text text-anchor="start" x="1022" y="-663.9" font-family="Arial" font-size="14.00" fill="#000000">depth </text>
<text text-anchor="start" x="1060.9116" y="-663.9" font-family="Arial" font-size="14.00" fill="#666666">[integer]</text>
<polygon fill="none" stroke="#000000" points="1015,-622.5 1015,-652.5 1313,-652.5 1313,-622.5 1015,-622.5"/>
<text text-anchor="start" x="1022" y="-633.9" font-family="Arial" font-size="14.00" fill="#000000">global </text>
<text text-anchor="start" x="1063.2342" y="-633.9" font-family="Arial" font-size="14.00" fill="#666666">[boolean]</text>
<polygon fill="none" stroke="#000000" points="1015,-592.5 1015,-622.5 1313,-622.5 1313,-592.5 1015,-592.5"/>
<text text-anchor="start" x="1022" y="-603.9" font-family="Arial" font-size="14.00" fill="#000000">description </text>
<text text-anchor="start" x="1093.568" y="-603.9" font-family="Arial" font-size="14.00" fill="#666666">[text]</text>
<polygon fill="none" stroke="#000000" stroke-width="3" points="1013.5,-591.5 1013.5,-839.5 1314.5,-839.5 1314.5,-591.5 1013.5,-591.5"/>
</g>
<!-- actor.org_unit -->
<g id="node6" class="node">
<title>actor.org_unit</title>
<polygon fill="#efefef" stroke="transparent" points="1038,-432.5 1038,-467.5 1289,-467.5 1289,-432.5 1038,-432.5"/>
<polygon fill="none" stroke="#000000" points="1038,-432.5 1038,-467.5 1289,-467.5 1289,-432.5 1038,-432.5"/>
<text text-anchor="start" x="1044.7017" y="-445.3" font-family="Arial Bold" font-size="18.00" fill="#000000">actor.org_unit</text>
<text text-anchor="start" x="1154.7303" y="-445.3" font-family="Arial" font-size="14.00" fill="#000000">    </text>
<text text-anchor="start" x="1188.9351" y="-445.3" font-family="Arial" font-size="14.00" fill="#666666">[BASE TABLE]</text>
<polygon fill="none" stroke="#000000" points="1038,-402.5 1038,-432.5 1289,-432.5 1289,-402.5 1038,-402.5"/>
<text text-anchor="start" x="1045" y="-413.9" font-family="Arial" font-size="14.00" fill="#000000">id    </text>
<text text-anchor="start" x="1090.094" y="-413.9" font-family="Arial" font-size="14.00" fill="#666666">[integer]</text>
<polygon fill="none" stroke="#000000" points="1038,-372.5 1038,-402.5 1289,-402.5 1289,-372.5 1038,-372.5"/>
<text text-anchor="start" x="1045" y="-383.9" font-family="Arial" font-size="14.00" fill="#000000">parent_ou    </text>
<text text-anchor="start" x="1142.2342" y="-383.9" font-family="Arial" font-size="14.00" fill="#666666">[integer]</text>
<polygon fill="none" stroke="#000000" points="1038,-342.5 1038,-372.5 1289,-372.5 1289,-342.5 1038,-342.5"/>
<text text-anchor="start" x="1045" y="-353.9" font-family="Arial" font-size="14.00" fill="#000000">ou_type    </text>
<text text-anchor="start" x="1129.0084" y="-353.9" font-family="Arial" font-size="14.00" fill="#666666">[integer]</text>
<polygon fill="none" stroke="#000000" points="1038,-312.5 1038,-342.5 1289,-342.5 1289,-312.5 1038,-312.5"/>
<text text-anchor="start" x="1045" y="-323.9" font-family="Arial" font-size="14.00" fill="#000000">ill_address    </text>
<text text-anchor="start" x="1146.0982" y="-323.9" font-family="Arial" font-size="14.00" fill="#666666">[integer]</text>
<polygon fill="none" stroke="#000000" points="1038,-282.5 1038,-312.5 1289,-312.5 1289,-282.5 1038,-282.5"/>
<text text-anchor="start" x="1045" y="-293.9" font-family="Arial" font-size="14.00" fill="#000000">holds_address    </text>
<text text-anchor="start" x="1170.2328" y="-293.9" font-family="Arial" font-size="14.00" fill="#666666">[integer]</text>
<polygon fill="none" stroke="#000000" points="1038,-252.5 1038,-282.5 1289,-282.5 1289,-252.5 1038,-252.5"/>
<text text-anchor="start" x="1045" y="-263.9" font-family="Arial" font-size="14.00" fill="#000000">mailing_address    </text>
<text text-anchor="start" x="1181.1066" y="-263.9" font-family="Arial" font-size="14.00" fill="#666666">[integer]</text>
<polygon fill="none" stroke="#000000" points="1038,-222.5 1038,-252.5 1289,-252.5 1289,-222.5 1038,-222.5"/>
<text text-anchor="start" x="1045" y="-233.9" font-family="Arial" font-size="14.00" fill="#000000">billing_address    </text>
<text text-anchor="start" x="1172.5526" y="-233.9" font-family="Arial" font-size="14.00" fill="#666666">[integer]</text>
<polygon fill="none" stroke="#000000" points="1038,-192.5 1038,-222.5 1289,-222.5 1289,-192.5 1038,-192.5"/>
<text text-anchor="start" x="1045" y="-203.9" font-family="Arial" font-size="14.00" fill="#000000">shortname    </text>
<text text-anchor="start" x="1145.3296" y="-203.9" font-family="Arial" font-size="14.00" fill="#666666">[text]</text>
<polygon fill="none" stroke="#000000" points="1038,-162.5 1038,-192.5 1289,-192.5 1289,-162.5 1038,-162.5"/>
<text text-anchor="start" x="1045" y="-173.9" font-family="Arial" font-size="14.00" fill="#000000">name    </text>
<text text-anchor="start" x="1114.2132" y="-173.9" font-family="Arial" font-size="14.00" fill="#666666">[text]</text>
<polygon fill="none" stroke="#000000" points="1038,-132.5 1038,-162.5 1289,-162.5 1289,-132.5 1038,-132.5"/>
<text text-anchor="start" x="1045" y="-143.9" font-family="Arial" font-size="14.00" fill="#000000">email    </text>
<text text-anchor="start" x="1112.6438" y="-143.9" font-family="Arial" font-size="14.00" fill="#666666">[text]</text>
<polygon fill="none" stroke="#000000" points="1038,-102.5 1038,-132.5 1289,-132.5 1289,-102.5 1038,-102.5"/>
<text text-anchor="start" x="1045" y="-113.9" font-family="Arial" font-size="14.00" fill="#000000">phone    </text>
<text text-anchor="start" x="1118.1178" y="-113.9" font-family="Arial" font-size="14.00" fill="#666666">[text]</text>
<polygon fill="none" stroke="#000000" points="1038,-72.5 1038,-102.5 1289,-102.5 1289,-72.5 1038,-72.5"/>
<text text-anchor="start" x="1045" y="-83.9" font-family="Arial" font-size="14.00" fill="#000000">opac_visible    </text>
<text text-anchor="start" x="1156.2202" y="-83.9" font-family="Arial" font-size="14.00" fill="#666666">[boolean]</text>
<polygon fill="none" stroke="#000000" points="1038,-42.5 1038,-72.5 1289,-72.5 1289,-42.5 1038,-42.5"/>
<text text-anchor="start" x="1045" y="-53.9" font-family="Arial" font-size="14.00" fill="#000000">fiscal_calendar    </text>
<text text-anchor="start" x="1172.554" y="-53.9" font-family="Arial" font-size="14.00" fill="#666666">[integer]</text>
</g>
<!-- config.circ_limit_set&#45;&gt;actor.org_unit -->
<g id="edge5" class="edge">
<title>config.circ_limit_set:owning_lib&#45;&gt;actor.org_unit:id</title>
<path fill="none" stroke="#000000" d="M1004.8324,-726.7887C937.2839,-716.8223 964.4744,-604.5982 1015,-547 1095.9958,-454.6663 1208.0042,-603.3337 1289,-511 1316.4036,-479.7605 1330.5556,-417.5 1289,-417.5"/>
<polygon fill="#000000" stroke="#000000" points="1005.0244,-726.802 1014.6859,-731.989 1010.0122,-727.151 1015,-727.5 1015,-727.5 1015,-727.5 1010.0122,-727.151 1015.3141,-723.011 1005.0244,-726.802 1005.0244,-726.802"/>
<text text-anchor="start" x="557.7115" y="-737.5" font-family="Arial" font-size="10.00" fill="#000000">FOREIGN KEY (owning_lib) REFERENCES actor.org_unit(id) DEFERRABLE INITIALLY DEFERRED</text>
</g>
<!-- config.circ_limit_set_circ_mod_map -->
<g id="node2" class="node">
<title>config.circ_limit_set_circ_mod_map</title>
<polygon fill="#efefef" stroke="transparent" points="164,-1082.5 164,-1117.5 590,-1117.5 590,-1082.5 164,-1082.5"/>
<polygon fill="none" stroke="#000000" points="164,-1082.5 164,-1117.5 590,-1117.5 590,-1082.5 164,-1082.5"/>
<text text-anchor="start" x="170.7082" y="-1095.3" font-family="Arial Bold" font-size="18.00" fill="#000000">config.circ_limit_set_circ_mod_map</text>
<text text-anchor="start" x="455.7238" y="-1095.3" font-family="Arial" font-size="14.00" fill="#000000">    </text>
<text text-anchor="start" x="489.9286" y="-1095.3" font-family="Arial" font-size="14.00" fill="#666666">[BASE TABLE]</text>
<polygon fill="none" stroke="#000000" points="164,-1052.5 164,-1082.5 590,-1082.5 590,-1052.5 164,-1052.5"/>
<text text-anchor="start" x="171" y="-1063.9" font-family="Arial" font-size="14.00" fill="#000000">id    </text>
<text text-anchor="start" x="216.094" y="-1063.9" font-family="Arial" font-size="14.00" fill="#666666">[integer]</text>
<polygon fill="none" stroke="#000000" points="164,-1022.5 164,-1052.5 590,-1052.5 590,-1022.5 164,-1022.5"/>
<text text-anchor="start" x="171" y="-1033.9" font-family="Arial" font-size="14.00" fill="#000000">limit_set    </text>
<text text-anchor="start" x="256.5316" y="-1033.9" font-family="Arial" font-size="14.00" fill="#666666">[integer]</text>
<polygon fill="none" stroke="#000000" points="164,-992.5 164,-1022.5 590,-1022.5 590,-992.5 164,-992.5"/>
<text text-anchor="start" x="171" y="-1003.9" font-family="Arial" font-size="14.00" fill="#000000">circ_mod    </text>
<text text-anchor="start" x="261.9804" y="-1003.9" font-family="Arial" font-size="14.00" fill="#666666">[text]</text>
</g>
<!-- config.circ_limit_set_circ_mod_map&#45;&gt;config.circ_limit_set -->
<g id="edge1" class="edge">
<title>config.circ_limit_set_circ_mod_map:limit_set&#45;&gt;config.circ_limit_set:id</title>
<path fill="none" stroke="#000000" d="M600.0564,-1036.494C641.2599,-1027.2276 602.9077,-956.2535 642,-920 770.9944,-800.373 839.0734,-787.5 1015,-787.5"/>
<polygon fill="#000000" stroke="#000000" points="599.9503,-1036.5045 589.552,-1033.0223 594.9752,-1037.0022 590,-1037.5 590,-1037.5 590,-1037.5 594.9752,-1037.0022 590.448,-1041.9777 599.9503,-1036.5045 599.9503,-1036.5045"/>
<text text-anchor="start" x="6.6665" y="-1047.5" font-family="Arial" font-size="10.00" fill="#000000">FOREIGN KEY (limit_set) REFERENCES config.circ_limit_set(id) ON DELETE CASCADE DEFERRABLE INITIALLY DEFERRED</text>
</g>
<!-- config.circ_limit_set_copy_loc_map -->
<g id="node3" class="node">
<title>config.circ_limit_set_copy_loc_map</title>
<polygon fill="#efefef" stroke="transparent" points="694,-1082.5 694,-1117.5 1118,-1117.5 1118,-1082.5 694,-1082.5"/>
<polygon fill="none" stroke="#000000" points="694,-1082.5 694,-1117.5 1118,-1117.5 1118,-1082.5 694,-1082.5"/>
<text text-anchor="start" x="700.6973" y="-1095.3" font-family="Arial Bold" font-size="18.00" fill="#000000">config.circ_limit_set_copy_loc_map</text>
<text text-anchor="start" x="983.7347" y="-1095.3" font-family="Arial" font-size="14.00" fill="#000000">    </text>
<text text-anchor="start" x="1017.9395" y="-1095.3" font-family="Arial" font-size="14.00" fill="#666666">[BASE TABLE]</text>
<polygon fill="none" stroke="#000000" points="694,-1052.5 694,-1082.5 1118,-1082.5 1118,-1052.5 694,-1052.5"/>
<text text-anchor="start" x="701" y="-1063.9" font-family="Arial" font-size="14.00" fill="#000000">id    </text>
<text text-anchor="start" x="746.094" y="-1063.9" font-family="Arial" font-size="14.00" fill="#666666">[integer]</text>
<polygon fill="none" stroke="#000000" points="694,-1022.5 694,-1052.5 1118,-1052.5 1118,-1022.5 694,-1022.5"/>
<text text-anchor="start" x="701" y="-1033.9" font-family="Arial" font-size="14.00" fill="#000000">limit_set    </text>
<text text-anchor="start" x="786.5316" y="-1033.9" font-family="Arial" font-size="14.00" fill="#666666">[integer]</text>
<polygon fill="none" stroke="#000000" points="694,-992.5 694,-1022.5 1118,-1022.5 1118,-992.5 694,-992.5"/>
<text text-anchor="start" x="701" y="-1003.9" font-family="Arial" font-size="14.00" fill="#000000">copy_loc    </text>
<text text-anchor="start" x="790.4418" y="-1003.9" font-family="Arial" font-size="14.00" fill="#666666">[integer]</text>
</g>
<!-- config.circ_limit_set_copy_loc_map&#45;&gt;config.circ_limit_set -->
<g id="edge2" class="edge">
<title>config.circ_limit_set_copy_loc_map:limit_set&#45;&gt;config.circ_limit_set:id</title>
<path fill="none" stroke="#000000" d="M1128.0832,-1035.9243C1152.7961,-1026.8558 1134.7651,-980.6543 1118,-950 1091.9116,-902.2984 1041.0884,-931.7016 1015,-884 994.4204,-846.371 972.1111,-787.5 1015,-787.5"/>
<polygon fill="#000000" stroke="#000000" points="1127.8801,-1035.9559 1117.3052,-1033.054 1122.94,-1036.728 1118,-1037.5 1118,-1037.5 1118,-1037.5 1122.94,-1036.728 1118.6948,-1041.946 1127.8801,-1035.9559 1127.8801,-1035.9559"/>
<text text-anchor="start" x="1124.6665" y="-1047.5" font-family="Arial" font-size="10.00" fill="#000000">FOREIGN KEY (limit_set) REFERENCES config.circ_limit_set(id) ON DELETE CASCADE DEFERRABLE INITIALLY DEFERRED</text>
</g>
<!-- config.circ_limit_set_group_map -->
<g id="node4" class="node">
<title>config.circ_limit_set_group_map</title>
<polygon fill="#efefef" stroke="transparent" points="1223,-1097.5 1223,-1132.5 1622,-1132.5 1622,-1097.5 1223,-1097.5"/>
<polygon fill="none" stroke="#000000" points="1223,-1097.5 1223,-1132.5 1622,-1132.5 1622,-1097.5 1223,-1097.5"/>
<text text-anchor="start" x="1229.6983" y="-1110.3" font-family="Arial Bold" font-size="18.00" fill="#000000">config.circ_limit_set_group_map</text>
<text text-anchor="start" x="1487.7337" y="-1110.3" font-family="Arial" font-size="14.00" fill="#000000">    </text>
<text text-anchor="start" x="1521.9385" y="-1110.3" font-family="Arial" font-size="14.00" fill="#666666">[BASE TABLE]</text>
<polygon fill="none" stroke="#000000" points="1223,-1067.5 1223,-1097.5 1622,-1097.5 1622,-1067.5 1223,-1067.5"/>
<text text-anchor="start" x="1230" y="-1078.9" font-family="Arial" font-size="14.00" fill="#000000">id    </text>
<text text-anchor="start" x="1275.094" y="-1078.9" font-family="Arial" font-size="14.00" fill="#666666">[integer]</text>
<polygon fill="none" stroke="#000000" points="1223,-1037.5 1223,-1067.5 1622,-1067.5 1622,-1037.5 1223,-1037.5"/>
<text text-anchor="start" x="1230" y="-1048.9" font-family="Arial" font-size="14.00" fill="#000000">limit_set    </text>
<text text-anchor="start" x="1315.5316" y="-1048.9" font-family="Arial" font-size="14.00" fill="#666666">[integer]</text>
<polygon fill="none" stroke="#000000" points="1223,-1007.5 1223,-1037.5 1622,-1037.5 1622,-1007.5 1223,-1007.5"/>
<text text-anchor="start" x="1230" y="-1018.9" font-family="Arial" font-size="14.00" fill="#000000">limit_group    </text>
<text text-anchor="start" x="1332.6494" y="-1018.9" font-family="Arial" font-size="14.00" fill="#666666">[integer]</text>
<polygon fill="none" stroke="#000000" points="1223,-977.5 1223,-1007.5 1622,-1007.5 1622,-977.5 1223,-977.5"/>
<text text-anchor="start" x="1230" y="-988.9" font-family="Arial" font-size="14.00" fill="#000000">check_only    </text>
<text text-anchor="start" x="1334.2244" y="-988.9" font-family="Arial" font-size="14.00" fill="#666666">[boolean]</text>
</g>
<!-- config.circ_limit_set_group_map&#45;&gt;config.circ_limit_set -->
<g id="edge3" class="edge">
<title>config.circ_limit_set_group_map:limit_set&#45;&gt;config.circ_limit_set:id</title>
<path fill="none" stroke="#000000" d="M1212.6321,-1051.3446C1174.6287,-1041.9063 1198.6585,-976.7715 1223,-935 1246.148,-895.2766 1289.852,-923.7234 1313,-884 1334.5938,-846.9437 1355.8889,-787.5 1313,-787.5"/>
<polygon fill="#000000" stroke="#000000" points="1213.0615,-1051.3924 1222.5016,-1056.9723 1218.0308,-1051.9462 1223,-1052.5 1223,-1052.5 1223,-1052.5 1218.0308,-1051.9462 1223.4984,-1048.0277 1213.0615,-1051.3924 1213.0615,-1051.3924"/>
<text text-anchor="start" x="1229.6665" y="-1062.5" font-family="Arial" font-size="10.00" fill="#000000">FOREIGN KEY (limit_set) REFERENCES config.circ_limit_set(id) ON DELETE CASCADE DEFERRABLE INITIALLY DEFERRED</text>
</g>
<!-- config.circ_matrix_limit_set_map -->
<g id="node5" class="node">
<title>config.circ_matrix_limit_set_map</title>
<polygon fill="#efefef" stroke="transparent" points="1726,-1112.5 1726,-1147.5 2128,-1147.5 2128,-1112.5 1726,-1112.5"/>
<polygon fill="none" stroke="#000000" points="1726,-1112.5 1726,-1147.5 2128,-1147.5 2128,-1112.5 1726,-1112.5"/>
<text text-anchor="start" x="1732.7133" y="-1125.3" font-family="Arial Bold" font-size="18.00" fill="#000000">config.circ_matrix_limit_set_map</text>
<text text-anchor="start" x="1993.7187" y="-1125.3" font-family="Arial" font-size="14.00" fill="#000000">    </text>
<text text-anchor="start" x="2027.9235" y="-1125.3" font-family="Arial" font-size="14.00" fill="#666666">[BASE TABLE]</text>
<polygon fill="none" stroke="#000000" points="1726,-1082.5 1726,-1112.5 2128,-1112.5 2128,-1082.5 1726,-1082.5"/>
<text text-anchor="start" x="1733" y="-1093.9" font-family="Arial" font-size="14.00" fill="#000000">id    </text>
<text text-anchor="start" x="1778.094" y="-1093.9" font-family="Arial" font-size="14.00" fill="#666666">[integer]</text>
<polygon fill="none" stroke="#000000" points="1726,-1052.5 1726,-1082.5 2128,-1082.5 2128,-1052.5 1726,-1052.5"/>
<text text-anchor="start" x="1733" y="-1063.9" font-family="Arial" font-size="14.00" fill="#000000">matchpoint    </text>
<text text-anchor="start" x="1835.6662" y="-1063.9" font-family="Arial" font-size="14.00" fill="#666666">[integer]</text>
<polygon fill="none" stroke="#000000" points="1726,-1022.5 1726,-1052.5 2128,-1052.5 2128,-1022.5 1726,-1022.5"/>
<text text-anchor="start" x="1733" y="-1033.9" font-family="Arial" font-size="14.00" fill="#000000">limit_set    </text>
<text text-anchor="start" x="1818.5316" y="-1033.9" font-family="Arial" font-size="14.00" fill="#666666">[integer]</text>
<polygon fill="none" stroke="#000000" points="1726,-992.5 1726,-1022.5 2128,-1022.5 2128,-992.5 1726,-992.5"/>
<text text-anchor="start" x="1733" y="-1003.9" font-family="Arial" font-size="14.00" fill="#000000">fallthrough    </text>
<text text-anchor="start" x="1832.5554" y="-1003.9" font-family="Arial" font-size="14.00" fill="#666666">[boolean]</text>
<polygon fill="none" stroke="#000000" points="1726,-962.5 1726,-992.5 2128,-992.5 2128,-962.5 1726,-962.5"/>
<text text-anchor="start" x="1733" y="-973.9" font-family="Arial" font-size="14.00" fill="#000000">active    </text>
<text text-anchor="start" x="1803.7672" y="-973.9" font-family="Arial" font-size="14.00" fill="#666666">[boolean]</text>
</g>
<!-- config.circ_matrix_limit_set_map&#45;&gt;config.circ_limit_set -->
<g id="edge4" class="edge">
<title>config.circ_matrix_limit_set_map:limit_set&#45;&gt;config.circ_limit_set:id</title>
<path fill="none" stroke="#000000" d="M1715.9411,-1036.4967C1674.7149,-1027.2546 1712.9025,-956.4572 1674,-920 1549.2924,-803.1311 1483.9103,-787.5 1313,-787.5"/>
<polygon fill="#000000" stroke="#000000" points="1716.0494,-1036.5074 1725.5533,-1041.9778 1721.0247,-1037.0037 1726,-1037.5 1726,-1037.5 1726,-1037.5 1721.0247,-1037.0037 1726.4467,-1033.0222 1716.0494,-1036.5074 1716.0494,-1036.5074"/>
<text text-anchor="start" x="1732.6665" y="-1021.5" font-family="Arial" font-size="10.00" fill="#000000">FOREIGN KEY (limit_set) REFERENCES config.circ_limit_set(id) ON DELETE CASCADE DEFERRABLE INITIALLY DEFERRED</text>
</g>
</g>
</svg>
