<?xml version="1.0" encoding="UTF-8" standalone="no"?>
<!DOCTYPE svg PUBLIC "-//W3C//DTD SVG 1.1//EN"
 "http://www.w3.org/Graphics/SVG/1.1/DTD/svg11.dtd">
<!-- Generated by graphviz version 2.40.1 (20161225.0304)
 -->
<!-- Title: config.hold_matrix_weights Pages: 1 -->
<svg width="878pt" height="952pt"
 viewBox="0.00 0.00 878.00 952.00" xmlns="http://www.w3.org/2000/svg" xmlns:xlink="http://www.w3.org/1999/xlink">
<g id="graph0" class="graph" transform="scale(1 1) rotate(0) translate(4 948)">
<title>config.hold_matrix_weights</title>
<polygon fill="#ffffff" stroke="transparent" points="-4,4 -4,-948 874,-948 874,4 -4,4"/>
<!-- config.hold_matrix_weights -->
<g id="node1" class="node">
<title>config.hold_matrix_weights</title>
<polygon fill="#efefef" stroke="transparent" points="46,-555.5 46,-590.5 404,-590.5 404,-555.5 46,-555.5"/>
<polygon fill="none" stroke="#000000" points="46,-555.5 46,-590.5 404,-590.5 404,-555.5 46,-555.5"/>
<text text-anchor="start" x="52.6967" y="-568.3" font-family="Arial Bold" font-size="18.00" fill="#000000">config.hold_matrix_weights</text>
<text text-anchor="start" x="269.7353" y="-568.3" font-family="Arial" font-size="14.00" fill="#000000">    </text>
<text text-anchor="start" x="303.9401" y="-568.3" font-family="Arial" font-size="14.00" fill="#666666">[BASE TABLE]</text>
<polygon fill="none" stroke="#000000" points="46,-525.5 46,-555.5 404,-555.5 404,-525.5 46,-525.5"/>
<text text-anchor="start" x="53" y="-536.9" font-family="Arial" font-size="14.00" fill="#000000">id </text>
<text text-anchor="start" x="67.7798" y="-536.9" font-family="Arial" font-size="14.00" fill="#666666">[integer]</text>
<polygon fill="none" stroke="#000000" points="46,-495.5 46,-525.5 404,-525.5 404,-495.5 46,-495.5"/>
<text text-anchor="start" x="53" y="-506.9" font-family="Arial" font-size="14.00" fill="#000000">name </text>
<text text-anchor="start" x="91.899" y="-506.9" font-family="Arial" font-size="14.00" fill="#666666">[text]</text>
<polygon fill="none" stroke="#000000" points="46,-465.5 46,-495.5 404,-495.5 404,-465.5 46,-465.5"/>
<text text-anchor="start" x="53" y="-476.9" font-family="Arial" font-size="14.00" fill="#000000">user_home_ou </text>
<text text-anchor="start" x="150.2552" y="-476.9" font-family="Arial" font-size="14.00" fill="#666666">[numeric(6,2)]</text>
<polygon fill="none" stroke="#000000" points="46,-435.5 46,-465.5 404,-465.5 404,-435.5 46,-435.5"/>
<text text-anchor="start" x="53" y="-446.9" font-family="Arial" font-size="14.00" fill="#000000">request_ou </text>
<text text-anchor="start" x="126.92" y="-446.9" font-family="Arial" font-size="14.00" fill="#666666">[numeric(6,2)]</text>
<polygon fill="none" stroke="#000000" points="46,-405.5 46,-435.5 404,-435.5 404,-405.5 46,-405.5"/>
<text text-anchor="start" x="53" y="-416.9" font-family="Arial" font-size="14.00" fill="#000000">pickup_ou </text>
<text text-anchor="start" x="120.6928" y="-416.9" font-family="Arial" font-size="14.00" fill="#666666">[numeric(6,2)]</text>
<polygon fill="none" stroke="#000000" points="46,-375.5 46,-405.5 404,-405.5 404,-375.5 46,-375.5"/>
<text text-anchor="start" x="53" y="-386.9" font-family="Arial" font-size="14.00" fill="#000000">item_owning_ou </text>
<text text-anchor="start" x="158.805" y="-386.9" font-family="Arial" font-size="14.00" fill="#666666">[numeric(6,2)]</text>
<polygon fill="none" stroke="#000000" points="46,-345.5 46,-375.5 404,-375.5 404,-345.5 46,-345.5"/>
<text text-anchor="start" x="53" y="-356.9" font-family="Arial" font-size="14.00" fill="#000000">item_circ_ou </text>
<text text-anchor="start" x="136.2286" y="-356.9" font-family="Arial" font-size="14.00" fill="#666666">[numeric(6,2)]</text>
<polygon fill="none" stroke="#000000" points="46,-315.5 46,-345.5 404,-345.5 404,-315.5 46,-315.5"/>
<text text-anchor="start" x="53" y="-326.9" font-family="Arial" font-size="14.00" fill="#000000">usr_grp </text>
<text text-anchor="start" x="104.3422" y="-326.9" font-family="Arial" font-size="14.00" fill="#666666">[numeric(6,2)]</text>
<polygon fill="none" stroke="#000000" points="46,-285.5 46,-315.5 404,-315.5 404,-285.5 46,-285.5"/>
<text text-anchor="start" x="53" y="-296.9" font-family="Arial" font-size="14.00" fill="#000000">requestor_grp </text>
<text text-anchor="start" x="144.0238" y="-296.9" font-family="Arial" font-size="14.00" fill="#666666">[numeric(6,2)]</text>
<polygon fill="none" stroke="#000000" points="46,-255.5 46,-285.5 404,-285.5 404,-255.5 46,-255.5"/>
<text text-anchor="start" x="53" y="-266.9" font-family="Arial" font-size="14.00" fill="#000000">circ_modifier </text>
<text text-anchor="start" x="136.2132" y="-266.9" font-family="Arial" font-size="14.00" fill="#666666">[numeric(6,2)]</text>
<polygon fill="none" stroke="#000000" points="46,-225.5 46,-255.5 404,-255.5 404,-225.5 46,-225.5"/>
<text text-anchor="start" x="53" y="-236.9" font-family="Arial" font-size="14.00" fill="#000000">marc_type </text>
<text text-anchor="start" x="122.2328" y="-236.9" font-family="Arial" font-size="14.00" fill="#666666">[numeric(6,2)]</text>
<polygon fill="none" stroke="#000000" points="46,-195.5 46,-225.5 404,-225.5 404,-195.5 46,-195.5"/>
<text text-anchor="start" x="53" y="-206.9" font-family="Arial" font-size="14.00" fill="#000000">marc_form </text>
<text text-anchor="start" x="123.7714" y="-206.9" font-family="Arial" font-size="14.00" fill="#666666">[numeric(6,2)]</text>
<polygon fill="none" stroke="#000000" points="46,-165.5 46,-195.5 404,-195.5 404,-165.5 46,-165.5"/>
<text text-anchor="start" x="53" y="-176.9" font-family="Arial" font-size="14.00" fill="#000000">marc_bib_level </text>
<text text-anchor="start" x="151.0098" y="-176.9" font-family="Arial" font-size="14.00" fill="#666666">[numeric(6,2)]</text>
<polygon fill="none" stroke="#000000" points="46,-135.5 46,-165.5 404,-165.5 404,-135.5 46,-135.5"/>
<text text-anchor="start" x="53" y="-146.9" font-family="Arial" font-size="14.00" fill="#000000">marc_vr_format </text>
<text text-anchor="start" x="154.8878" y="-146.9" font-family="Arial" font-size="14.00" fill="#666666">[numeric(6,2)]</text>
<polygon fill="none" stroke="#000000" points="46,-105.5 46,-135.5 404,-135.5 404,-105.5 46,-105.5"/>
<text text-anchor="start" x="53" y="-116.9" font-family="Arial" font-size="14.00" fill="#000000">juvenile_flag </text>
<text text-anchor="start" x="134.6858" y="-116.9" font-family="Arial" font-size="14.00" fill="#666666">[numeric(6,2)]</text>
<polygon fill="none" stroke="#000000" points="46,-75.5 46,-105.5 404,-105.5 404,-75.5 46,-75.5"/>
<text text-anchor="start" x="53" y="-86.9" font-family="Arial" font-size="14.00" fill="#000000">ref_flag </text>
<text text-anchor="start" x="103.5694" y="-86.9" font-family="Arial" font-size="14.00" fill="#666666">[numeric(6,2)]</text>
<polygon fill="none" stroke="#000000" points="46,-45.5 46,-75.5 404,-75.5 404,-45.5 46,-45.5"/>
<text text-anchor="start" x="53" y="-56.9" font-family="Arial" font-size="14.00" fill="#000000">item_age </text>
<text text-anchor="start" x="114.4614" y="-56.9" font-family="Arial" font-size="14.00" fill="#666666">[numeric(6,2)]</text>
<polygon fill="none" stroke="#000000" stroke-width="3" points="44.5,-44.5 44.5,-592.5 405.5,-592.5 405.5,-44.5 44.5,-44.5"/>
</g>
<!-- config.weight_assoc -->
<g id="node2" class="node">
<title>config.weight_assoc</title>
<polygon fill="#efefef" stroke="transparent" points="73,-865.5 73,-900.5 376,-900.5 376,-865.5 73,-865.5"/>
<polygon fill="none" stroke="#000000" points="73,-865.5 73,-900.5 376,-900.5 376,-865.5 73,-865.5"/>
<text text-anchor="start" x="79.6935" y="-878.3" font-family="Arial Bold" font-size="18.00" fill="#000000">config.weight_assoc</text>
<text text-anchor="start" x="241.7385" y="-878.3" font-family="Arial" font-size="14.00" fill="#000000">    </text>
<text text-anchor="start" x="275.9433" y="-878.3" font-family="Arial" font-size="14.00" fill="#666666">[BASE TABLE]</text>
<polygon fill="none" stroke="#000000" points="73,-835.5 73,-865.5 376,-865.5 376,-835.5 73,-835.5"/>
<text text-anchor="start" x="80" y="-846.9" font-family="Arial" font-size="14.00" fill="#000000">id    </text>
<text text-anchor="start" x="125.094" y="-846.9" font-family="Arial" font-size="14.00" fill="#666666">[integer]</text>
<polygon fill="none" stroke="#000000" points="73,-805.5 73,-835.5 376,-835.5 376,-805.5 73,-805.5"/>
<text text-anchor="start" x="80" y="-816.9" font-family="Arial" font-size="14.00" fill="#000000">active    </text>
<text text-anchor="start" x="150.7672" y="-816.9" font-family="Arial" font-size="14.00" fill="#666666">[boolean]</text>
<polygon fill="none" stroke="#000000" points="73,-775.5 73,-805.5 376,-805.5 376,-775.5 73,-775.5"/>
<text text-anchor="start" x="80" y="-786.9" font-family="Arial" font-size="14.00" fill="#000000">org_unit    </text>
<text text-anchor="start" x="164.7756" y="-786.9" font-family="Arial" font-size="14.00" fill="#666666">[integer]</text>
<polygon fill="none" stroke="#000000" points="73,-745.5 73,-775.5 376,-775.5 376,-745.5 73,-745.5"/>
<text text-anchor="start" x="80" y="-756.9" font-family="Arial" font-size="14.00" fill="#000000">circ_weights    </text>
<text text-anchor="start" x="191.2062" y="-756.9" font-family="Arial" font-size="14.00" fill="#666666">[integer]</text>
<polygon fill="none" stroke="#000000" points="73,-715.5 73,-745.5 376,-745.5 376,-715.5 73,-715.5"/>
<text text-anchor="start" x="80" y="-726.9" font-family="Arial" font-size="14.00" fill="#000000">hold_weights    </text>
<text text-anchor="start" x="195.8934" y="-726.9" font-family="Arial" font-size="14.00" fill="#666666">[integer]</text>
</g>
<!-- config.weight_assoc&#45;&gt;config.hold_matrix_weights -->
<g id="edge1" class="edge">
<title>config.weight_assoc:hold_weights&#45;&gt;config.hold_matrix_weights:id</title>
<path fill="none" stroke="#000000" d="M224.2888,-705.2068C213.8556,-635.3153 91.4743,-706.5976 46,-637 22.5406,-601.0958 3.1111,-540.5 46,-540.5"/>
<polygon fill="#000000" stroke="#000000" points="224.3106,-705.5238 220.5107,-715.8102 224.6553,-710.5119 225,-715.5 225,-715.5 225,-715.5 224.6553,-710.5119 229.4893,-715.1898 224.3106,-705.5238 224.3106,-705.5238"/>
<text text-anchor="start" x="232.4215" y="-725.5" font-family="Arial" font-size="10.00" fill="#000000">FOREIGN KEY (hold_weights) REFERENCES config.hold_matrix_weights(id) ON DELETE SET NULL DEFERRABLE INITIALLY DEFERRED</text>
</g>
</g>
</svg>
