<?xml version="1.0" encoding="UTF-8" standalone="no"?>
<!DOCTYPE svg PUBLIC "-//W3C//DTD SVG 1.1//EN"
 "http://www.w3.org/Graphics/SVG/1.1/DTD/svg11.dtd">
<!-- Generated by graphviz version 2.40.1 (20161225.0304)
 -->
<!-- Title: config.metabib_field_index_norm_map Pages: 1 -->
<svg width="1627pt" height="982pt"
 viewBox="0.00 0.00 1627.00 982.00" xmlns="http://www.w3.org/2000/svg" xmlns:xlink="http://www.w3.org/1999/xlink">
<g id="graph0" class="graph" transform="scale(1 1) rotate(0) translate(4 978)">
<title>config.metabib_field_index_norm_map</title>
<polygon fill="#ffffff" stroke="transparent" points="-4,4 -4,-978 1623,-978 1623,4 -4,4"/>
<!-- config.metabib_field_index_norm_map -->
<g id="node1" class="node">
<title>config.metabib_field_index_norm_map</title>
<polygon fill="#efefef" stroke="transparent" points="574,-892.5 574,-927.5 1024,-927.5 1024,-892.5 574,-892.5"/>
<polygon fill="none" stroke="#000000" points="574,-892.5 574,-927.5 1024,-927.5 1024,-892.5 574,-892.5"/>
<text text-anchor="start" x="580.6797" y="-905.3" font-family="Arial Bold" font-size="18.00" fill="#000000">config.metabib_field_index_norm_map</text>
<text text-anchor="start" x="889.7523" y="-905.3" font-family="Arial" font-size="14.00" fill="#000000">    </text>
<text text-anchor="start" x="923.9571" y="-905.3" font-family="Arial" font-size="14.00" fill="#666666">[BASE TABLE]</text>
<polygon fill="none" stroke="#000000" points="574,-862.5 574,-892.5 1024,-892.5 1024,-862.5 574,-862.5"/>
<text text-anchor="start" x="581" y="-873.9" font-family="Arial" font-size="14.00" fill="#000000">id </text>
<text text-anchor="start" x="595.7798" y="-873.9" font-family="Arial" font-size="14.00" fill="#666666">[integer]</text>
<polygon fill="none" stroke="#000000" points="574,-832.5 574,-862.5 1024,-862.5 1024,-832.5 574,-832.5"/>
<text text-anchor="start" x="581" y="-843.9" font-family="Arial" font-size="14.00" fill="#000000">field </text>
<text text-anchor="start" x="610.5596" y="-843.9" font-family="Arial" font-size="14.00" fill="#666666">[integer]</text>
<polygon fill="none" stroke="#000000" points="574,-802.5 574,-832.5 1024,-832.5 1024,-802.5 574,-802.5"/>
<text text-anchor="start" x="581" y="-813.9" font-family="Arial" font-size="14.00" fill="#000000">norm </text>
<text text-anchor="start" x="616.777" y="-813.9" font-family="Arial" font-size="14.00" fill="#666666">[integer]</text>
<polygon fill="none" stroke="#000000" points="574,-772.5 574,-802.5 1024,-802.5 1024,-772.5 574,-772.5"/>
<text text-anchor="start" x="581" y="-783.9" font-family="Arial" font-size="14.00" fill="#000000">params </text>
<text text-anchor="start" x="631.5596" y="-783.9" font-family="Arial" font-size="14.00" fill="#666666">[text]</text>
<polygon fill="none" stroke="#000000" points="574,-742.5 574,-772.5 1024,-772.5 1024,-742.5 574,-742.5"/>
<text text-anchor="start" x="581" y="-753.9" font-family="Arial" font-size="14.00" fill="#000000">pos </text>
<text text-anchor="start" x="607.4558" y="-753.9" font-family="Arial" font-size="14.00" fill="#666666">[integer]</text>
<polygon fill="none" stroke="#000000" stroke-width="3" points="572.5,-741.5 572.5,-929.5 1025.5,-929.5 1025.5,-741.5 572.5,-741.5"/>
</g>
<!-- config.metabib_field -->
<g id="node2" class="node">
<title>config.metabib_field</title>
<polygon fill="#efefef" stroke="transparent" points="438,-582.5 438,-617.5 739,-617.5 739,-582.5 438,-582.5"/>
<polygon fill="none" stroke="#000000" points="438,-582.5 438,-617.5 739,-617.5 739,-582.5 438,-582.5"/>
<text text-anchor="start" x="444.6961" y="-595.3" font-family="Arial Bold" font-size="18.00" fill="#000000">config.metabib_field</text>
<text text-anchor="start" x="604.7359" y="-595.3" font-family="Arial" font-size="14.00" fill="#000000">    </text>
<text text-anchor="start" x="638.9407" y="-595.3" font-family="Arial" font-size="14.00" fill="#666666">[BASE TABLE]</text>
<polygon fill="none" stroke="#000000" points="438,-552.5 438,-582.5 739,-582.5 739,-552.5 438,-552.5"/>
<text text-anchor="start" x="445" y="-563.9" font-family="Arial" font-size="14.00" fill="#000000">id    </text>
<text text-anchor="start" x="490.094" y="-563.9" font-family="Arial" font-size="14.00" fill="#666666">[integer]</text>
<polygon fill="none" stroke="#000000" points="438,-522.5 438,-552.5 739,-552.5 739,-522.5 438,-522.5"/>
<text text-anchor="start" x="445" y="-533.9" font-family="Arial" font-size="14.00" fill="#000000">field_class    </text>
<text text-anchor="start" x="544.5456" y="-533.9" font-family="Arial" font-size="14.00" fill="#666666">[text]</text>
<polygon fill="none" stroke="#000000" points="438,-492.5 438,-522.5 739,-522.5 739,-492.5 438,-492.5"/>
<text text-anchor="start" x="445" y="-503.9" font-family="Arial" font-size="14.00" fill="#000000">name    </text>
<text text-anchor="start" x="514.2132" y="-503.9" font-family="Arial" font-size="14.00" fill="#666666">[text]</text>
<polygon fill="none" stroke="#000000" points="438,-462.5 438,-492.5 739,-492.5 739,-462.5 438,-462.5"/>
<text text-anchor="start" x="445" y="-473.9" font-family="Arial" font-size="14.00" fill="#000000">label    </text>
<text text-anchor="start" x="508.7658" y="-473.9" font-family="Arial" font-size="14.00" fill="#666666">[text]</text>
<polygon fill="none" stroke="#000000" points="438,-432.5 438,-462.5 739,-462.5 739,-432.5 438,-432.5"/>
<text text-anchor="start" x="445" y="-443.9" font-family="Arial" font-size="14.00" fill="#000000">xpath    </text>
<text text-anchor="start" x="513.4432" y="-443.9" font-family="Arial" font-size="14.00" fill="#666666">[text]</text>
<polygon fill="none" stroke="#000000" points="438,-402.5 438,-432.5 739,-432.5 739,-402.5 438,-402.5"/>
<text text-anchor="start" x="445" y="-413.9" font-family="Arial" font-size="14.00" fill="#000000">weight    </text>
<text text-anchor="start" x="519.6564" y="-413.9" font-family="Arial" font-size="14.00" fill="#666666">[integer]</text>
<polygon fill="none" stroke="#000000" points="438,-372.5 438,-402.5 739,-402.5 739,-372.5 438,-372.5"/>
<text text-anchor="start" x="445" y="-383.9" font-family="Arial" font-size="14.00" fill="#000000">format    </text>
<text text-anchor="start" x="518.8724" y="-383.9" font-family="Arial" font-size="14.00" fill="#666666">[text]</text>
<polygon fill="none" stroke="#000000" points="438,-342.5 438,-372.5 739,-372.5 739,-342.5 438,-342.5"/>
<text text-anchor="start" x="445" y="-353.9" font-family="Arial" font-size="14.00" fill="#000000">search_field    </text>
<text text-anchor="start" x="554.6648" y="-353.9" font-family="Arial" font-size="14.00" fill="#666666">[boolean]</text>
<polygon fill="none" stroke="#000000" points="438,-312.5 438,-342.5 739,-342.5 739,-312.5 438,-312.5"/>
<text text-anchor="start" x="445" y="-323.9" font-family="Arial" font-size="14.00" fill="#000000">facet_field    </text>
<text text-anchor="start" x="543.0028" y="-323.9" font-family="Arial" font-size="14.00" fill="#666666">[boolean]</text>
<polygon fill="none" stroke="#000000" points="438,-282.5 438,-312.5 739,-312.5 739,-282.5 438,-282.5"/>
<text text-anchor="start" x="445" y="-293.9" font-family="Arial" font-size="14.00" fill="#000000">browse_field    </text>
<text text-anchor="start" x="557.7714" y="-293.9" font-family="Arial" font-size="14.00" fill="#666666">[boolean]</text>
<polygon fill="none" stroke="#000000" points="438,-252.5 438,-282.5 739,-282.5 739,-252.5 438,-252.5"/>
<text text-anchor="start" x="445" y="-263.9" font-family="Arial" font-size="14.00" fill="#000000">browse_xpath    </text>
<text text-anchor="start" x="566.3408" y="-263.9" font-family="Arial" font-size="14.00" fill="#666666">[text]</text>
<polygon fill="none" stroke="#000000" points="438,-222.5 438,-252.5 739,-252.5 739,-222.5 438,-222.5"/>
<text text-anchor="start" x="445" y="-233.9" font-family="Arial" font-size="14.00" fill="#000000">browse_sort_xpath    </text>
<text text-anchor="start" x="597.4572" y="-233.9" font-family="Arial" font-size="14.00" fill="#666666">[text]</text>
<polygon fill="none" stroke="#000000" points="438,-192.5 438,-222.5 739,-222.5 739,-192.5 438,-192.5"/>
<text text-anchor="start" x="445" y="-203.9" font-family="Arial" font-size="14.00" fill="#000000">facet_xpath    </text>
<text text-anchor="start" x="551.5722" y="-203.9" font-family="Arial" font-size="14.00" fill="#666666">[text]</text>
<polygon fill="none" stroke="#000000" points="438,-162.5 438,-192.5 739,-192.5 739,-162.5 438,-162.5"/>
<text text-anchor="start" x="445" y="-173.9" font-family="Arial" font-size="14.00" fill="#000000">display_xpath    </text>
<text text-anchor="start" x="564.7868" y="-173.9" font-family="Arial" font-size="14.00" fill="#666666">[text]</text>
<polygon fill="none" stroke="#000000" points="438,-132.5 438,-162.5 739,-162.5 739,-132.5 438,-132.5"/>
<text text-anchor="start" x="445" y="-143.9" font-family="Arial" font-size="14.00" fill="#000000">authority_xpath    </text>
<text text-anchor="start" x="574.9046" y="-143.9" font-family="Arial" font-size="14.00" fill="#666666">[text]</text>
<polygon fill="none" stroke="#000000" points="438,-102.5 438,-132.5 739,-132.5 739,-102.5 438,-102.5"/>
<text text-anchor="start" x="445" y="-113.9" font-family="Arial" font-size="14.00" fill="#000000">joiner    </text>
<text text-anchor="start" x="513.4264" y="-113.9" font-family="Arial" font-size="14.00" fill="#666666">[text]</text>
<polygon fill="none" stroke="#000000" points="438,-72.5 438,-102.5 739,-102.5 739,-72.5 438,-72.5"/>
<text text-anchor="start" x="445" y="-83.9" font-family="Arial" font-size="14.00" fill="#000000">restrict    </text>
<text text-anchor="start" x="521.1964" y="-83.9" font-family="Arial" font-size="14.00" fill="#666666">[boolean]</text>
<polygon fill="none" stroke="#000000" points="438,-42.5 438,-72.5 739,-72.5 739,-42.5 438,-42.5"/>
<text text-anchor="start" x="445" y="-53.9" font-family="Arial" font-size="14.00" fill="#000000">display_field    </text>
<text text-anchor="start" x="556.2174" y="-53.9" font-family="Arial" font-size="14.00" fill="#666666">[boolean]</text>
</g>
<!-- config.metabib_field_index_norm_map&#45;&gt;config.metabib_field -->
<g id="edge1" class="edge">
<title>config.metabib_field_index_norm_map:field&#45;&gt;config.metabib_field:id</title>
<path fill="none" stroke="#000000" d="M563.8377,-846.6408C509.8892,-836.8755 534.3397,-746.2464 574,-697 621.0789,-638.5418 691.9211,-719.4582 739,-661 765.0649,-628.6351 780.5556,-567.5 739,-567.5"/>
<polygon fill="#000000" stroke="#000000" points="564.0356,-846.6574 573.6208,-851.984 569.0178,-847.0787 574,-847.5 574,-847.5 574,-847.5 569.0178,-847.0787 574.3792,-843.016 564.0356,-846.6574 564.0356,-846.6574"/>
<text text-anchor="start" x="6.986" y="-857.5" font-family="Arial" font-size="10.00" fill="#000000">FOREIGN KEY (field) REFERENCES config.metabib_field(id) ON DELETE CASCADE DEFERRABLE INITIALLY DEFERRED</text>
</g>
<!-- config.index_normalizer -->
<g id="node3" class="node">
<title>config.index_normalizer</title>
<polygon fill="#efefef" stroke="transparent" points="843,-387.5 843,-422.5 1174,-422.5 1174,-387.5 843,-387.5"/>
<polygon fill="none" stroke="#000000" points="843,-387.5 843,-422.5 1174,-422.5 1174,-387.5 843,-387.5"/>
<text text-anchor="start" x="849.703" y="-400.3" font-family="Arial Bold" font-size="18.00" fill="#000000">config.index_normalizer</text>
<text text-anchor="start" x="1039.729" y="-400.3" font-family="Arial" font-size="14.00" fill="#000000">    </text>
<text text-anchor="start" x="1073.9338" y="-400.3" font-family="Arial" font-size="14.00" fill="#666666">[BASE TABLE]</text>
<polygon fill="none" stroke="#000000" points="843,-357.5 843,-387.5 1174,-387.5 1174,-357.5 843,-357.5"/>
<text text-anchor="start" x="850" y="-368.9" font-family="Arial" font-size="14.00" fill="#000000">id    </text>
<text text-anchor="start" x="895.094" y="-368.9" font-family="Arial" font-size="14.00" fill="#666666">[integer]</text>
<polygon fill="none" stroke="#000000" points="843,-327.5 843,-357.5 1174,-357.5 1174,-327.5 843,-327.5"/>
<text text-anchor="start" x="850" y="-338.9" font-family="Arial" font-size="14.00" fill="#000000">name    </text>
<text text-anchor="start" x="919.2132" y="-338.9" font-family="Arial" font-size="14.00" fill="#666666">[text]</text>
<polygon fill="none" stroke="#000000" points="843,-297.5 843,-327.5 1174,-327.5 1174,-297.5 843,-297.5"/>
<text text-anchor="start" x="850" y="-308.9" font-family="Arial" font-size="14.00" fill="#000000">description    </text>
<text text-anchor="start" x="951.8822" y="-308.9" font-family="Arial" font-size="14.00" fill="#666666">[text]</text>
<polygon fill="none" stroke="#000000" points="843,-267.5 843,-297.5 1174,-297.5 1174,-267.5 843,-267.5"/>
<text text-anchor="start" x="850" y="-278.9" font-family="Arial" font-size="14.00" fill="#000000">func    </text>
<text text-anchor="start" x="910.6606" y="-278.9" font-family="Arial" font-size="14.00" fill="#666666">[text]</text>
<polygon fill="none" stroke="#000000" points="843,-237.5 843,-267.5 1174,-267.5 1174,-237.5 843,-237.5"/>
<text text-anchor="start" x="850" y="-248.9" font-family="Arial" font-size="14.00" fill="#000000">param_count    </text>
<text text-anchor="start" x="965.8948" y="-248.9" font-family="Arial" font-size="14.00" fill="#666666">[integer]</text>
</g>
<!-- config.metabib_field_index_norm_map&#45;&gt;config.index_normalizer -->
<g id="edge2" class="edge">
<title>config.metabib_field_index_norm_map:norm&#45;&gt;config.index_normalizer:id</title>
<path fill="none" stroke="#000000" d="M1034.005,-816.4946C1072.5733,-807.7691 1040.2431,-744.0659 1024,-697 970.1259,-540.8945 677.8596,-372.5 843,-372.5"/>
<polygon fill="#000000" stroke="#000000" points="1033.9499,-816.5001 1023.55,-813.0225 1028.9749,-817 1024,-817.5 1024,-817.5 1024,-817.5 1028.9749,-817 1024.45,-821.9775 1033.9499,-816.5001 1033.9499,-816.5001"/>
<text text-anchor="start" x="1031.436" y="-827.5" font-family="Arial" font-size="10.00" fill="#000000">FOREIGN KEY (norm) REFERENCES config.index_normalizer(id) ON DELETE CASCADE DEFERRABLE INITIALLY DEFERRED</text>
</g>
</g>
</svg>
