<?xml version="1.0" encoding="UTF-8" standalone="no"?>
<!DOCTYPE svg PUBLIC "-//W3C//DTD SVG 1.1//EN"
 "http://www.w3.org/Graphics/SVG/1.1/DTD/svg11.dtd">
<!-- Generated by graphviz version 2.40.1 (20161225.0304)
 -->
<!-- Title: config.barcode_completion Pages: 1 -->
<svg width="974pt" height="982pt"
 viewBox="0.00 0.00 974.00 982.00" xmlns="http://www.w3.org/2000/svg" xmlns:xlink="http://www.w3.org/1999/xlink">
<g id="graph0" class="graph" transform="scale(1 1) rotate(0) translate(4 978)">
<title>config.barcode_completion</title>
<polygon fill="#ffffff" stroke="transparent" points="-4,4 -4,-978 970,-978 970,4 -4,4"/>
<!-- config.barcode_completion -->
<g id="node1" class="node">
<title>config.barcode_completion</title>
<polygon fill="#efefef" stroke="transparent" points="564,-892.5 564,-927.5 920,-927.5 920,-892.5 564,-892.5"/>
<polygon fill="none" stroke="#000000" points="564,-892.5 564,-927.5 920,-927.5 920,-892.5 564,-892.5"/>
<text text-anchor="start" x="570.6858" y="-905.3" font-family="Arial Bold" font-size="18.00" fill="#000000">config.barcode_completion</text>
<text text-anchor="start" x="785.7462" y="-905.3" font-family="Arial" font-size="14.00" fill="#000000">    </text>
<text text-anchor="start" x="819.951" y="-905.3" font-family="Arial" font-size="14.00" fill="#666666">[BASE TABLE]</text>
<polygon fill="none" stroke="#000000" points="564,-862.5 564,-892.5 920,-892.5 920,-862.5 564,-862.5"/>
<text text-anchor="start" x="571" y="-873.9" font-family="Arial" font-size="14.00" fill="#000000">id </text>
<text text-anchor="start" x="585.7798" y="-873.9" font-family="Arial" font-size="14.00" fill="#666666">[integer]</text>
<polygon fill="none" stroke="#000000" points="564,-832.5 564,-862.5 920,-862.5 920,-832.5 564,-832.5"/>
<text text-anchor="start" x="571" y="-843.9" font-family="Arial" font-size="14.00" fill="#000000">active </text>
<text text-anchor="start" x="611.453" y="-843.9" font-family="Arial" font-size="14.00" fill="#666666">[boolean]</text>
<polygon fill="none" stroke="#000000" points="564,-802.5 564,-832.5 920,-832.5 920,-802.5 564,-802.5"/>
<text text-anchor="start" x="571" y="-813.9" font-family="Arial" font-size="14.00" fill="#000000">org_unit </text>
<text text-anchor="start" x="625.4614" y="-813.9" font-family="Arial" font-size="14.00" fill="#666666">[integer]</text>
<polygon fill="none" stroke="#000000" points="564,-772.5 564,-802.5 920,-802.5 920,-772.5 564,-772.5"/>
<text text-anchor="start" x="571" y="-783.9" font-family="Arial" font-size="14.00" fill="#000000">prefix </text>
<text text-anchor="start" x="609.1136" y="-783.9" font-family="Arial" font-size="14.00" fill="#666666">[text]</text>
<polygon fill="none" stroke="#000000" points="564,-742.5 564,-772.5 920,-772.5 920,-742.5 564,-742.5"/>
<text text-anchor="start" x="571" y="-753.9" font-family="Arial" font-size="14.00" fill="#000000">suffix </text>
<text text-anchor="start" x="607.561" y="-753.9" font-family="Arial" font-size="14.00" fill="#666666">[text]</text>
<polygon fill="none" stroke="#000000" points="564,-712.5 564,-742.5 920,-742.5 920,-712.5 564,-712.5"/>
<text text-anchor="start" x="571" y="-723.9" font-family="Arial" font-size="14.00" fill="#000000">length </text>
<text text-anchor="start" x="613.0182" y="-723.9" font-family="Arial" font-size="14.00" fill="#666666">[integer]</text>
<polygon fill="none" stroke="#000000" points="564,-682.5 564,-712.5 920,-712.5 920,-682.5 564,-682.5"/>
<text text-anchor="start" x="571" y="-693.9" font-family="Arial" font-size="14.00" fill="#000000">padding </text>
<text text-anchor="start" x="624.6928" y="-693.9" font-family="Arial" font-size="14.00" fill="#666666">[text]</text>
<polygon fill="none" stroke="#000000" points="564,-652.5 564,-682.5 920,-682.5 920,-652.5 564,-652.5"/>
<text text-anchor="start" x="571" y="-663.9" font-family="Arial" font-size="14.00" fill="#000000">padding_end </text>
<text text-anchor="start" x="655.8232" y="-663.9" font-family="Arial" font-size="14.00" fill="#666666">[boolean]</text>
<polygon fill="none" stroke="#000000" points="564,-622.5 564,-652.5 920,-652.5 920,-622.5 564,-622.5"/>
<text text-anchor="start" x="571" y="-633.9" font-family="Arial" font-size="14.00" fill="#000000">asset </text>
<text text-anchor="start" x="608.3464" y="-633.9" font-family="Arial" font-size="14.00" fill="#666666">[boolean]</text>
<polygon fill="none" stroke="#000000" points="564,-592.5 564,-622.5 920,-622.5 920,-592.5 564,-592.5"/>
<text text-anchor="start" x="571" y="-603.9" font-family="Arial" font-size="14.00" fill="#000000">actor </text>
<text text-anchor="start" x="606.007" y="-603.9" font-family="Arial" font-size="14.00" fill="#666666">[boolean]</text>
<polygon fill="none" stroke="#000000" stroke-width="3" points="562.5,-591.5 562.5,-929.5 921.5,-929.5 921.5,-591.5 562.5,-591.5"/>
</g>
<!-- actor.org_unit -->
<g id="node2" class="node">
<title>actor.org_unit</title>
<polygon fill="#efefef" stroke="transparent" points="616,-432.5 616,-467.5 867,-467.5 867,-432.5 616,-432.5"/>
<polygon fill="none" stroke="#000000" points="616,-432.5 616,-467.5 867,-467.5 867,-432.5 616,-432.5"/>
<text text-anchor="start" x="622.7017" y="-445.3" font-family="Arial Bold" font-size="18.00" fill="#000000">actor.org_unit</text>
<text text-anchor="start" x="732.7303" y="-445.3" font-family="Arial" font-size="14.00" fill="#000000">    </text>
<text text-anchor="start" x="766.9351" y="-445.3" font-family="Arial" font-size="14.00" fill="#666666">[BASE TABLE]</text>
<polygon fill="none" stroke="#000000" points="616,-402.5 616,-432.5 867,-432.5 867,-402.5 616,-402.5"/>
<text text-anchor="start" x="623" y="-413.9" font-family="Arial" font-size="14.00" fill="#000000">id    </text>
<text text-anchor="start" x="668.094" y="-413.9" font-family="Arial" font-size="14.00" fill="#666666">[integer]</text>
<polygon fill="none" stroke="#000000" points="616,-372.5 616,-402.5 867,-402.5 867,-372.5 616,-372.5"/>
<text text-anchor="start" x="623" y="-383.9" font-family="Arial" font-size="14.00" fill="#000000">parent_ou    </text>
<text text-anchor="start" x="720.2342" y="-383.9" font-family="Arial" font-size="14.00" fill="#666666">[integer]</text>
<polygon fill="none" stroke="#000000" points="616,-342.5 616,-372.5 867,-372.5 867,-342.5 616,-342.5"/>
<text text-anchor="start" x="623" y="-353.9" font-family="Arial" font-size="14.00" fill="#000000">ou_type    </text>
<text text-anchor="start" x="707.0084" y="-353.9" font-family="Arial" font-size="14.00" fill="#666666">[integer]</text>
<polygon fill="none" stroke="#000000" points="616,-312.5 616,-342.5 867,-342.5 867,-312.5 616,-312.5"/>
<text text-anchor="start" x="623" y="-323.9" font-family="Arial" font-size="14.00" fill="#000000">ill_address    </text>
<text text-anchor="start" x="724.0982" y="-323.9" font-family="Arial" font-size="14.00" fill="#666666">[integer]</text>
<polygon fill="none" stroke="#000000" points="616,-282.5 616,-312.5 867,-312.5 867,-282.5 616,-282.5"/>
<text text-anchor="start" x="623" y="-293.9" font-family="Arial" font-size="14.00" fill="#000000">holds_address    </text>
<text text-anchor="start" x="748.2328" y="-293.9" font-family="Arial" font-size="14.00" fill="#666666">[integer]</text>
<polygon fill="none" stroke="#000000" points="616,-252.5 616,-282.5 867,-282.5 867,-252.5 616,-252.5"/>
<text text-anchor="start" x="623" y="-263.9" font-family="Arial" font-size="14.00" fill="#000000">mailing_address    </text>
<text text-anchor="start" x="759.1066" y="-263.9" font-family="Arial" font-size="14.00" fill="#666666">[integer]</text>
<polygon fill="none" stroke="#000000" points="616,-222.5 616,-252.5 867,-252.5 867,-222.5 616,-222.5"/>
<text text-anchor="start" x="623" y="-233.9" font-family="Arial" font-size="14.00" fill="#000000">billing_address    </text>
<text text-anchor="start" x="750.5526" y="-233.9" font-family="Arial" font-size="14.00" fill="#666666">[integer]</text>
<polygon fill="none" stroke="#000000" points="616,-192.5 616,-222.5 867,-222.5 867,-192.5 616,-192.5"/>
<text text-anchor="start" x="623" y="-203.9" font-family="Arial" font-size="14.00" fill="#000000">shortname    </text>
<text text-anchor="start" x="723.3296" y="-203.9" font-family="Arial" font-size="14.00" fill="#666666">[text]</text>
<polygon fill="none" stroke="#000000" points="616,-162.5 616,-192.5 867,-192.5 867,-162.5 616,-162.5"/>
<text text-anchor="start" x="623" y="-173.9" font-family="Arial" font-size="14.00" fill="#000000">name    </text>
<text text-anchor="start" x="692.2132" y="-173.9" font-family="Arial" font-size="14.00" fill="#666666">[text]</text>
<polygon fill="none" stroke="#000000" points="616,-132.5 616,-162.5 867,-162.5 867,-132.5 616,-132.5"/>
<text text-anchor="start" x="623" y="-143.9" font-family="Arial" font-size="14.00" fill="#000000">email    </text>
<text text-anchor="start" x="690.6438" y="-143.9" font-family="Arial" font-size="14.00" fill="#666666">[text]</text>
<polygon fill="none" stroke="#000000" points="616,-102.5 616,-132.5 867,-132.5 867,-102.5 616,-102.5"/>
<text text-anchor="start" x="623" y="-113.9" font-family="Arial" font-size="14.00" fill="#000000">phone    </text>
<text text-anchor="start" x="696.1178" y="-113.9" font-family="Arial" font-size="14.00" fill="#666666">[text]</text>
<polygon fill="none" stroke="#000000" points="616,-72.5 616,-102.5 867,-102.5 867,-72.5 616,-72.5"/>
<text text-anchor="start" x="623" y="-83.9" font-family="Arial" font-size="14.00" fill="#000000">opac_visible    </text>
<text text-anchor="start" x="734.2202" y="-83.9" font-family="Arial" font-size="14.00" fill="#666666">[boolean]</text>
<polygon fill="none" stroke="#000000" points="616,-42.5 616,-72.5 867,-72.5 867,-42.5 616,-42.5"/>
<text text-anchor="start" x="623" y="-53.9" font-family="Arial" font-size="14.00" fill="#000000">fiscal_calendar    </text>
<text text-anchor="start" x="750.554" y="-53.9" font-family="Arial" font-size="14.00" fill="#666666">[integer]</text>
</g>
<!-- config.barcode_completion&#45;&gt;actor.org_unit -->
<g id="edge1" class="edge">
<title>config.barcode_completion:org_unit&#45;&gt;actor.org_unit:id</title>
<path fill="none" stroke="#000000" d="M553.8441,-817.0418C446.1779,-806.995 486.5012,-634.2516 564,-547 654.0591,-445.6074 776.9409,-612.3926 867,-511 894.5964,-479.9307 908.5556,-417.5 867,-417.5"/>
<polygon fill="#000000" stroke="#000000" points="554.0102,-817.0492 563.7971,-821.9954 559.0051,-817.2746 564,-817.5 564,-817.5 564,-817.5 559.0051,-817.2746 564.2029,-813.0046 554.0102,-817.0492 554.0102,-817.0492"/>
<text text-anchor="start" x="6.9845" y="-827.5" font-family="Arial" font-size="10.00" fill="#000000">FOREIGN KEY (org_unit) REFERENCES actor.org_unit(id) ON DELETE CASCADE DEFERRABLE INITIALLY DEFERRED</text>
</g>
</g>
</svg>
