<?xml version="1.0" encoding="UTF-8" standalone="no"?>
<!DOCTYPE svg PUBLIC "-//W3C//DTD SVG 1.1//EN"
 "http://www.w3.org/Graphics/SVG/1.1/DTD/svg11.dtd">
<!-- Generated by graphviz version 2.40.1 (20161225.0304)
 -->
<!-- Title: config.filter_dialog_interface Pages: 1 -->
<svg width="944pt" height="562pt"
 viewBox="0.00 0.00 943.50 562.00" xmlns="http://www.w3.org/2000/svg" xmlns:xlink="http://www.w3.org/1999/xlink">
<g id="graph0" class="graph" transform="scale(1 1) rotate(0) translate(4 558)">
<title>config.filter_dialog_interface</title>
<polygon fill="#ffffff" stroke="transparent" points="-4,4 -4,-558 939.5,-558 939.5,4 -4,4"/>
<!-- config.filter_dialog_interface -->
<g id="node1" class="node">
<title>config.filter_dialog_interface</title>
<polygon fill="#efefef" stroke="transparent" points="525,-105.5 525,-140.5 890,-140.5 890,-105.5 525,-105.5"/>
<polygon fill="none" stroke="#000000" points="525,-105.5 525,-140.5 890,-140.5 890,-105.5 525,-105.5"/>
<text text-anchor="start" x="531.6912" y="-118.3" font-family="Arial Bold" font-size="18.00" fill="#000000">config.filter_dialog_interface</text>
<text text-anchor="start" x="755.7408" y="-118.3" font-family="Arial" font-size="14.00" fill="#000000">    </text>
<text text-anchor="start" x="789.9456" y="-118.3" font-family="Arial" font-size="14.00" fill="#666666">[BASE TABLE]</text>
<polygon fill="none" stroke="#000000" points="525,-75.5 525,-105.5 890,-105.5 890,-75.5 525,-75.5"/>
<text text-anchor="start" x="532" y="-86.9" font-family="Arial" font-size="14.00" fill="#000000">key </text>
<text text-anchor="start" x="557.6732" y="-86.9" font-family="Arial" font-size="14.00" fill="#666666">[text]</text>
<polygon fill="none" stroke="#000000" points="525,-45.5 525,-75.5 890,-75.5 890,-45.5 525,-45.5"/>
<text text-anchor="start" x="532" y="-56.9" font-family="Arial" font-size="14.00" fill="#000000">description </text>
<text text-anchor="start" x="603.568" y="-56.9" font-family="Arial" font-size="14.00" fill="#666666">[text]</text>
<polygon fill="none" stroke="#000000" stroke-width="3" points="523,-44.5 523,-142.5 891,-142.5 891,-44.5 523,-44.5"/>
</g>
<!-- config.filter_dialog_filter_set -->
<g id="node2" class="node">
<title>config.filter_dialog_filter_set</title>
<polygon fill="#efefef" stroke="transparent" points="526,-475.5 526,-510.5 890,-510.5 890,-475.5 526,-475.5"/>
<polygon fill="none" stroke="#000000" points="526,-475.5 526,-510.5 890,-510.5 890,-475.5 526,-475.5"/>
<text text-anchor="start" x="532.6961" y="-488.3" font-family="Arial Bold" font-size="18.00" fill="#000000">config.filter_dialog_filter_set</text>
<text text-anchor="start" x="755.7359" y="-488.3" font-family="Arial" font-size="14.00" fill="#000000">    </text>
<text text-anchor="start" x="789.9407" y="-488.3" font-family="Arial" font-size="14.00" fill="#666666">[BASE TABLE]</text>
<polygon fill="none" stroke="#000000" points="526,-445.5 526,-475.5 890,-475.5 890,-445.5 526,-445.5"/>
<text text-anchor="start" x="533" y="-456.9" font-family="Arial" font-size="14.00" fill="#000000">id    </text>
<text text-anchor="start" x="578.094" y="-456.9" font-family="Arial" font-size="14.00" fill="#666666">[integer]</text>
<polygon fill="none" stroke="#000000" points="526,-415.5 526,-445.5 890,-445.5 890,-415.5 526,-415.5"/>
<text text-anchor="start" x="533" y="-426.9" font-family="Arial" font-size="14.00" fill="#000000">name    </text>
<text text-anchor="start" x="602.2132" y="-426.9" font-family="Arial" font-size="14.00" fill="#666666">[text]</text>
<polygon fill="none" stroke="#000000" points="526,-385.5 526,-415.5 890,-415.5 890,-385.5 526,-385.5"/>
<text text-anchor="start" x="533" y="-396.9" font-family="Arial" font-size="14.00" fill="#000000">owning_lib    </text>
<text text-anchor="start" x="633.3268" y="-396.9" font-family="Arial" font-size="14.00" fill="#666666">[integer]</text>
<polygon fill="none" stroke="#000000" points="526,-355.5 526,-385.5 890,-385.5 890,-355.5 526,-355.5"/>
<text text-anchor="start" x="533" y="-366.9" font-family="Arial" font-size="14.00" fill="#000000">creator    </text>
<text text-anchor="start" x="610.7644" y="-366.9" font-family="Arial" font-size="14.00" fill="#666666">[integer]</text>
<polygon fill="none" stroke="#000000" points="526,-325.5 526,-355.5 890,-355.5 890,-325.5 526,-325.5"/>
<text text-anchor="start" x="533" y="-336.9" font-family="Arial" font-size="14.00" fill="#000000">create_time    </text>
<text text-anchor="start" x="640.3268" y="-336.9" font-family="Arial" font-size="14.00" fill="#666666">[timestamp with time zone]</text>
<polygon fill="none" stroke="#000000" points="526,-295.5 526,-325.5 890,-325.5 890,-295.5 526,-295.5"/>
<text text-anchor="start" x="533" y="-306.9" font-family="Arial" font-size="14.00" fill="#000000">interface    </text>
<text text-anchor="start" x="620.8836" y="-306.9" font-family="Arial" font-size="14.00" fill="#666666">[text]</text>
<polygon fill="none" stroke="#000000" points="526,-265.5 526,-295.5 890,-295.5 890,-265.5 526,-265.5"/>
<text text-anchor="start" x="533" y="-276.9" font-family="Arial" font-size="14.00" fill="#000000">filters    </text>
<text text-anchor="start" x="600.6424" y="-276.9" font-family="Arial" font-size="14.00" fill="#666666">[text]</text>
</g>
<!-- config.filter_dialog_filter_set&#45;&gt;config.filter_dialog_interface -->
<g id="edge1" class="edge">
<title>config.filter_dialog_filter_set:interface&#45;&gt;config.filter_dialog_interface:key</title>
<path fill="none" stroke="#000000" d="M516.0493,-308.9036C489.7341,-299.3238 502.4395,-249.0056 526,-223 580.5745,-162.7618 835.4255,-247.2382 890,-187 918.796,-155.2156 932.8889,-90.5 890,-90.5"/>
<polygon fill="#000000" stroke="#000000" points="516.1263,-308.9159 525.2871,-314.9432 521.0631,-309.7079 526,-310.5 526,-310.5 526,-310.5 521.0631,-309.7079 526.7129,-306.0568 516.1263,-308.9159 516.1263,-308.9159"/>
<text text-anchor="start" x="6.5925" y="-320.5" font-family="Arial" font-size="10.00" fill="#000000">FOREIGN KEY (interface) REFERENCES config.filter_dialog_interface(key) DEFERRABLE INITIALLY DEFERRED</text>
</g>
</g>
</svg>
