<?xml version="1.0" encoding="UTF-8" standalone="no"?>
<!DOCTYPE svg PUBLIC "-//W3C//DTD SVG 1.1//EN"
 "http://www.w3.org/Graphics/SVG/1.1/DTD/svg11.dtd">
<!-- Generated by graphviz version 2.40.1 (20161225.0304)
 -->
<!-- Title: config.metabib_field_virtual_map Pages: 1 -->
<svg width="753pt" height="952pt"
 viewBox="0.00 0.00 753.00 952.00" xmlns="http://www.w3.org/2000/svg" xmlns:xlink="http://www.w3.org/1999/xlink">
<g id="graph0" class="graph" transform="scale(1 1) rotate(0) translate(4 948)">
<title>config.metabib_field_virtual_map</title>
<polygon fill="#ffffff" stroke="transparent" points="-4,4 -4,-948 749,-948 749,4 -4,4"/>
<!-- config.metabib_field_virtual_map -->
<g id="node1" class="node">
<title>config.metabib_field_virtual_map</title>
<polygon fill="#efefef" stroke="transparent" points="295,-862.5 295,-897.5 699,-897.5 699,-862.5 295,-862.5"/>
<polygon fill="none" stroke="#000000" points="295,-862.5 295,-897.5 699,-897.5 699,-862.5 295,-862.5"/>
<text text-anchor="start" x="301.69" y="-875.3" font-family="Arial Bold" font-size="18.00" fill="#000000">config.metabib_field_virtual_map</text>
<text text-anchor="start" x="564.742" y="-875.3" font-family="Arial" font-size="14.00" fill="#000000">    </text>
<text text-anchor="start" x="598.9468" y="-875.3" font-family="Arial" font-size="14.00" fill="#666666">[BASE TABLE]</text>
<polygon fill="none" stroke="#000000" points="295,-832.5 295,-862.5 699,-862.5 699,-832.5 295,-832.5"/>
<text text-anchor="start" x="302" y="-843.9" font-family="Arial" font-size="14.00" fill="#000000">id </text>
<text text-anchor="start" x="316.7798" y="-843.9" font-family="Arial" font-size="14.00" fill="#666666">[integer]</text>
<polygon fill="none" stroke="#000000" points="295,-802.5 295,-832.5 699,-832.5 699,-802.5 295,-802.5"/>
<text text-anchor="start" x="302" y="-813.9" font-family="Arial" font-size="14.00" fill="#000000">real </text>
<text text-anchor="start" x="329.223" y="-813.9" font-family="Arial" font-size="14.00" fill="#666666">[integer]</text>
<polygon fill="none" stroke="#000000" points="295,-772.5 295,-802.5 699,-802.5 699,-772.5 295,-772.5"/>
<text text-anchor="start" x="302" y="-783.9" font-family="Arial" font-size="14.00" fill="#000000">virtual </text>
<text text-anchor="start" x="343.2202" y="-783.9" font-family="Arial" font-size="14.00" fill="#666666">[integer]</text>
<polygon fill="none" stroke="#000000" points="295,-742.5 295,-772.5 699,-772.5 699,-742.5 295,-742.5"/>
<text text-anchor="start" x="302" y="-753.9" font-family="Arial" font-size="14.00" fill="#000000">weight </text>
<text text-anchor="start" x="346.3422" y="-753.9" font-family="Arial" font-size="14.00" fill="#666666">[integer]</text>
<polygon fill="none" stroke="#000000" stroke-width="3" points="293.5,-741.5 293.5,-899.5 700.5,-899.5 700.5,-741.5 293.5,-741.5"/>
</g>
<!-- config.metabib_field -->
<g id="node2" class="node">
<title>config.metabib_field</title>
<polygon fill="#efefef" stroke="transparent" points="346,-582.5 346,-617.5 647,-617.5 647,-582.5 346,-582.5"/>
<polygon fill="none" stroke="#000000" points="346,-582.5 346,-617.5 647,-617.5 647,-582.5 346,-582.5"/>
<text text-anchor="start" x="352.6961" y="-595.3" font-family="Arial Bold" font-size="18.00" fill="#000000">config.metabib_field</text>
<text text-anchor="start" x="512.7359" y="-595.3" font-family="Arial" font-size="14.00" fill="#000000">    </text>
<text text-anchor="start" x="546.9407" y="-595.3" font-family="Arial" font-size="14.00" fill="#666666">[BASE TABLE]</text>
<polygon fill="none" stroke="#000000" points="346,-552.5 346,-582.5 647,-582.5 647,-552.5 346,-552.5"/>
<text text-anchor="start" x="353" y="-563.9" font-family="Arial" font-size="14.00" fill="#000000">id    </text>
<text text-anchor="start" x="398.094" y="-563.9" font-family="Arial" font-size="14.00" fill="#666666">[integer]</text>
<polygon fill="none" stroke="#000000" points="346,-522.5 346,-552.5 647,-552.5 647,-522.5 346,-522.5"/>
<text text-anchor="start" x="353" y="-533.9" font-family="Arial" font-size="14.00" fill="#000000">field_class    </text>
<text text-anchor="start" x="452.5456" y="-533.9" font-family="Arial" font-size="14.00" fill="#666666">[text]</text>
<polygon fill="none" stroke="#000000" points="346,-492.5 346,-522.5 647,-522.5 647,-492.5 346,-492.5"/>
<text text-anchor="start" x="353" y="-503.9" font-family="Arial" font-size="14.00" fill="#000000">name    </text>
<text text-anchor="start" x="422.2132" y="-503.9" font-family="Arial" font-size="14.00" fill="#666666">[text]</text>
<polygon fill="none" stroke="#000000" points="346,-462.5 346,-492.5 647,-492.5 647,-462.5 346,-462.5"/>
<text text-anchor="start" x="353" y="-473.9" font-family="Arial" font-size="14.00" fill="#000000">label    </text>
<text text-anchor="start" x="416.7658" y="-473.9" font-family="Arial" font-size="14.00" fill="#666666">[text]</text>
<polygon fill="none" stroke="#000000" points="346,-432.5 346,-462.5 647,-462.5 647,-432.5 346,-432.5"/>
<text text-anchor="start" x="353" y="-443.9" font-family="Arial" font-size="14.00" fill="#000000">xpath    </text>
<text text-anchor="start" x="421.4432" y="-443.9" font-family="Arial" font-size="14.00" fill="#666666">[text]</text>
<polygon fill="none" stroke="#000000" points="346,-402.5 346,-432.5 647,-432.5 647,-402.5 346,-402.5"/>
<text text-anchor="start" x="353" y="-413.9" font-family="Arial" font-size="14.00" fill="#000000">weight    </text>
<text text-anchor="start" x="427.6564" y="-413.9" font-family="Arial" font-size="14.00" fill="#666666">[integer]</text>
<polygon fill="none" stroke="#000000" points="346,-372.5 346,-402.5 647,-402.5 647,-372.5 346,-372.5"/>
<text text-anchor="start" x="353" y="-383.9" font-family="Arial" font-size="14.00" fill="#000000">format    </text>
<text text-anchor="start" x="426.8724" y="-383.9" font-family="Arial" font-size="14.00" fill="#666666">[text]</text>
<polygon fill="none" stroke="#000000" points="346,-342.5 346,-372.5 647,-372.5 647,-342.5 346,-342.5"/>
<text text-anchor="start" x="353" y="-353.9" font-family="Arial" font-size="14.00" fill="#000000">search_field    </text>
<text text-anchor="start" x="462.6648" y="-353.9" font-family="Arial" font-size="14.00" fill="#666666">[boolean]</text>
<polygon fill="none" stroke="#000000" points="346,-312.5 346,-342.5 647,-342.5 647,-312.5 346,-312.5"/>
<text text-anchor="start" x="353" y="-323.9" font-family="Arial" font-size="14.00" fill="#000000">facet_field    </text>
<text text-anchor="start" x="451.0028" y="-323.9" font-family="Arial" font-size="14.00" fill="#666666">[boolean]</text>
<polygon fill="none" stroke="#000000" points="346,-282.5 346,-312.5 647,-312.5 647,-282.5 346,-282.5"/>
<text text-anchor="start" x="353" y="-293.9" font-family="Arial" font-size="14.00" fill="#000000">browse_field    </text>
<text text-anchor="start" x="465.7714" y="-293.9" font-family="Arial" font-size="14.00" fill="#666666">[boolean]</text>
<polygon fill="none" stroke="#000000" points="346,-252.5 346,-282.5 647,-282.5 647,-252.5 346,-252.5"/>
<text text-anchor="start" x="353" y="-263.9" font-family="Arial" font-size="14.00" fill="#000000">browse_xpath    </text>
<text text-anchor="start" x="474.3408" y="-263.9" font-family="Arial" font-size="14.00" fill="#666666">[text]</text>
<polygon fill="none" stroke="#000000" points="346,-222.5 346,-252.5 647,-252.5 647,-222.5 346,-222.5"/>
<text text-anchor="start" x="353" y="-233.9" font-family="Arial" font-size="14.00" fill="#000000">browse_sort_xpath    </text>
<text text-anchor="start" x="505.4572" y="-233.9" font-family="Arial" font-size="14.00" fill="#666666">[text]</text>
<polygon fill="none" stroke="#000000" points="346,-192.5 346,-222.5 647,-222.5 647,-192.5 346,-192.5"/>
<text text-anchor="start" x="353" y="-203.9" font-family="Arial" font-size="14.00" fill="#000000">facet_xpath    </text>
<text text-anchor="start" x="459.5722" y="-203.9" font-family="Arial" font-size="14.00" fill="#666666">[text]</text>
<polygon fill="none" stroke="#000000" points="346,-162.5 346,-192.5 647,-192.5 647,-162.5 346,-162.5"/>
<text text-anchor="start" x="353" y="-173.9" font-family="Arial" font-size="14.00" fill="#000000">display_xpath    </text>
<text text-anchor="start" x="472.7868" y="-173.9" font-family="Arial" font-size="14.00" fill="#666666">[text]</text>
<polygon fill="none" stroke="#000000" points="346,-132.5 346,-162.5 647,-162.5 647,-132.5 346,-132.5"/>
<text text-anchor="start" x="353" y="-143.9" font-family="Arial" font-size="14.00" fill="#000000">authority_xpath    </text>
<text text-anchor="start" x="482.9046" y="-143.9" font-family="Arial" font-size="14.00" fill="#666666">[text]</text>
<polygon fill="none" stroke="#000000" points="346,-102.5 346,-132.5 647,-132.5 647,-102.5 346,-102.5"/>
<text text-anchor="start" x="353" y="-113.9" font-family="Arial" font-size="14.00" fill="#000000">joiner    </text>
<text text-anchor="start" x="421.4264" y="-113.9" font-family="Arial" font-size="14.00" fill="#666666">[text]</text>
<polygon fill="none" stroke="#000000" points="346,-72.5 346,-102.5 647,-102.5 647,-72.5 346,-72.5"/>
<text text-anchor="start" x="353" y="-83.9" font-family="Arial" font-size="14.00" fill="#000000">restrict    </text>
<text text-anchor="start" x="429.1964" y="-83.9" font-family="Arial" font-size="14.00" fill="#666666">[boolean]</text>
<polygon fill="none" stroke="#000000" points="346,-42.5 346,-72.5 647,-72.5 647,-42.5 346,-42.5"/>
<text text-anchor="start" x="353" y="-53.9" font-family="Arial" font-size="14.00" fill="#000000">display_field    </text>
<text text-anchor="start" x="464.2174" y="-53.9" font-family="Arial" font-size="14.00" fill="#666666">[boolean]</text>
</g>
<!-- config.metabib_field_virtual_map&#45;&gt;config.metabib_field -->
<g id="edge1" class="edge">
<title>config.metabib_field_virtual_map:real&#45;&gt;config.metabib_field:id</title>
<path fill="none" stroke="#000000" d="M284.9984,-816.4068C243.9446,-806.6515 261.5621,-734.0321 295,-697 347.6957,-638.6401 594.3043,-719.3599 647,-661 674.8493,-630.1572 688.5556,-567.5 647,-567.5"/>
<polygon fill="#000000" stroke="#000000" points="285.0592,-816.4134 294.511,-821.9734 290.0296,-816.9567 295,-817.5 295,-817.5 295,-817.5 290.0296,-816.9567 295.489,-813.0266 285.0592,-816.4134 285.0592,-816.4134"/>
<text text-anchor="start" x="9.6125" y="-827.5" font-family="Arial" font-size="10.00" fill="#000000">FOREIGN KEY (&quot;real&quot;) REFERENCES config.metabib_field(id)</text>
</g>
<!-- config.metabib_field_virtual_map&#45;&gt;config.metabib_field -->
<g id="edge2" class="edge">
<title>config.metabib_field_virtual_map:virtual&#45;&gt;config.metabib_field:id</title>
<path fill="none" stroke="#000000" d="M285.0651,-785.9763C257.3856,-776.3994 270.5713,-724.0545 295,-697 347.6957,-638.6401 594.3043,-719.3599 647,-661 674.8493,-630.1572 688.5556,-567.5 647,-567.5"/>
<polygon fill="#000000" stroke="#000000" points="285.1156,-785.9839 294.3178,-791.948 290.0578,-786.742 295,-787.5 295,-787.5 295,-787.5 290.0578,-786.742 295.6822,-783.052 285.1156,-785.9839 285.1156,-785.9839"/>
<text text-anchor="start" x="7.1625" y="-797.5" font-family="Arial" font-size="10.00" fill="#000000">FOREIGN KEY (virtual) REFERENCES config.metabib_field(id)</text>
</g>
</g>
</svg>
