<?xml version="1.0" encoding="UTF-8" standalone="no"?>
<!DOCTYPE svg PUBLIC "-//W3C//DTD SVG 1.1//EN"
 "http://www.w3.org/Graphics/SVG/1.1/DTD/svg11.dtd">
<!-- Generated by graphviz version 2.40.1 (20161225.0304)
 -->
<!-- Title: config.print_template Pages: 1 -->
<svg width="1172pt" height="922pt"
 viewBox="0.00 0.00 1172.00 922.00" xmlns="http://www.w3.org/2000/svg" xmlns:xlink="http://www.w3.org/1999/xlink">
<g id="graph0" class="graph" transform="scale(1 1) rotate(0) translate(4 918)">
<title>config.print_template</title>
<polygon fill="#ffffff" stroke="transparent" points="-4,4 -4,-918 1168,-918 1168,4 -4,4"/>
<!-- config.print_template -->
<g id="node1" class="node">
<title>config.print_template</title>
<polygon fill="#efefef" stroke="transparent" points="268,-832.5 268,-867.5 576,-867.5 576,-832.5 268,-832.5"/>
<polygon fill="none" stroke="#000000" points="268,-832.5 268,-867.5 576,-867.5 576,-832.5 268,-832.5"/>
<text text-anchor="start" x="274.696" y="-845.3" font-family="Arial Bold" font-size="18.00" fill="#000000">config.print_template</text>
<text text-anchor="start" x="441.736" y="-845.3" font-family="Arial" font-size="14.00" fill="#000000">    </text>
<text text-anchor="start" x="475.9408" y="-845.3" font-family="Arial" font-size="14.00" fill="#666666">[BASE TABLE]</text>
<polygon fill="none" stroke="#000000" points="268,-802.5 268,-832.5 576,-832.5 576,-802.5 268,-802.5"/>
<text text-anchor="start" x="275" y="-813.9" font-family="Arial" font-size="14.00" fill="#000000">id </text>
<text text-anchor="start" x="289.7798" y="-813.9" font-family="Arial" font-size="14.00" fill="#666666">[integer]</text>
<polygon fill="none" stroke="#000000" points="268,-772.5 268,-802.5 576,-802.5 576,-772.5 268,-772.5"/>
<text text-anchor="start" x="275" y="-783.9" font-family="Arial" font-size="14.00" fill="#000000">name </text>
<text text-anchor="start" x="313.899" y="-783.9" font-family="Arial" font-size="14.00" fill="#666666">[text]</text>
<polygon fill="none" stroke="#000000" points="268,-742.5 268,-772.5 576,-772.5 576,-742.5 268,-742.5"/>
<text text-anchor="start" x="275" y="-753.9" font-family="Arial" font-size="14.00" fill="#000000">label </text>
<text text-anchor="start" x="308.4516" y="-753.9" font-family="Arial" font-size="14.00" fill="#666666">[text]</text>
<polygon fill="none" stroke="#000000" points="268,-712.5 268,-742.5 576,-742.5 576,-712.5 268,-712.5"/>
<text text-anchor="start" x="275" y="-723.9" font-family="Arial" font-size="14.00" fill="#000000">owner </text>
<text text-anchor="start" x="317.0056" y="-723.9" font-family="Arial" font-size="14.00" fill="#666666">[integer]</text>
<polygon fill="none" stroke="#000000" points="268,-682.5 268,-712.5 576,-712.5 576,-682.5 268,-682.5"/>
<text text-anchor="start" x="275" y="-693.9" font-family="Arial" font-size="14.00" fill="#000000">active </text>
<text text-anchor="start" x="315.453" y="-693.9" font-family="Arial" font-size="14.00" fill="#666666">[boolean]</text>
<polygon fill="none" stroke="#000000" points="268,-652.5 268,-682.5 576,-682.5 576,-652.5 268,-652.5"/>
<text text-anchor="start" x="275" y="-663.9" font-family="Arial" font-size="14.00" fill="#000000">locale </text>
<text text-anchor="start" x="315.4516" y="-663.9" font-family="Arial" font-size="14.00" fill="#666666">[text]</text>
<polygon fill="none" stroke="#000000" points="268,-622.5 268,-652.5 576,-652.5 576,-622.5 268,-622.5"/>
<text text-anchor="start" x="275" y="-633.9" font-family="Arial" font-size="14.00" fill="#000000">content_type </text>
<text text-anchor="start" x="359.0406" y="-633.9" font-family="Arial" font-size="14.00" fill="#666666">[text]</text>
<polygon fill="none" stroke="#000000" points="268,-592.5 268,-622.5 576,-622.5 576,-592.5 268,-592.5"/>
<text text-anchor="start" x="275" y="-603.9" font-family="Arial" font-size="14.00" fill="#000000">template </text>
<text text-anchor="start" x="332.5694" y="-603.9" font-family="Arial" font-size="14.00" fill="#666666">[text]</text>
<polygon fill="none" stroke="#000000" stroke-width="3" points="266.5,-591.5 266.5,-869.5 577.5,-869.5 577.5,-591.5 266.5,-591.5"/>
</g>
<!-- actor.org_unit -->
<g id="node2" class="node">
<title>actor.org_unit</title>
<polygon fill="#efefef" stroke="transparent" points="110,-432.5 110,-467.5 361,-467.5 361,-432.5 110,-432.5"/>
<polygon fill="none" stroke="#000000" points="110,-432.5 110,-467.5 361,-467.5 361,-432.5 110,-432.5"/>
<text text-anchor="start" x="116.7017" y="-445.3" font-family="Arial Bold" font-size="18.00" fill="#000000">actor.org_unit</text>
<text text-anchor="start" x="226.7303" y="-445.3" font-family="Arial" font-size="14.00" fill="#000000">    </text>
<text text-anchor="start" x="260.9351" y="-445.3" font-family="Arial" font-size="14.00" fill="#666666">[BASE TABLE]</text>
<polygon fill="none" stroke="#000000" points="110,-402.5 110,-432.5 361,-432.5 361,-402.5 110,-402.5"/>
<text text-anchor="start" x="117" y="-413.9" font-family="Arial" font-size="14.00" fill="#000000">id    </text>
<text text-anchor="start" x="162.094" y="-413.9" font-family="Arial" font-size="14.00" fill="#666666">[integer]</text>
<polygon fill="none" stroke="#000000" points="110,-372.5 110,-402.5 361,-402.5 361,-372.5 110,-372.5"/>
<text text-anchor="start" x="117" y="-383.9" font-family="Arial" font-size="14.00" fill="#000000">parent_ou    </text>
<text text-anchor="start" x="214.2342" y="-383.9" font-family="Arial" font-size="14.00" fill="#666666">[integer]</text>
<polygon fill="none" stroke="#000000" points="110,-342.5 110,-372.5 361,-372.5 361,-342.5 110,-342.5"/>
<text text-anchor="start" x="117" y="-353.9" font-family="Arial" font-size="14.00" fill="#000000">ou_type    </text>
<text text-anchor="start" x="201.0084" y="-353.9" font-family="Arial" font-size="14.00" fill="#666666">[integer]</text>
<polygon fill="none" stroke="#000000" points="110,-312.5 110,-342.5 361,-342.5 361,-312.5 110,-312.5"/>
<text text-anchor="start" x="117" y="-323.9" font-family="Arial" font-size="14.00" fill="#000000">ill_address    </text>
<text text-anchor="start" x="218.0982" y="-323.9" font-family="Arial" font-size="14.00" fill="#666666">[integer]</text>
<polygon fill="none" stroke="#000000" points="110,-282.5 110,-312.5 361,-312.5 361,-282.5 110,-282.5"/>
<text text-anchor="start" x="117" y="-293.9" font-family="Arial" font-size="14.00" fill="#000000">holds_address    </text>
<text text-anchor="start" x="242.2328" y="-293.9" font-family="Arial" font-size="14.00" fill="#666666">[integer]</text>
<polygon fill="none" stroke="#000000" points="110,-252.5 110,-282.5 361,-282.5 361,-252.5 110,-252.5"/>
<text text-anchor="start" x="117" y="-263.9" font-family="Arial" font-size="14.00" fill="#000000">mailing_address    </text>
<text text-anchor="start" x="253.1066" y="-263.9" font-family="Arial" font-size="14.00" fill="#666666">[integer]</text>
<polygon fill="none" stroke="#000000" points="110,-222.5 110,-252.5 361,-252.5 361,-222.5 110,-222.5"/>
<text text-anchor="start" x="117" y="-233.9" font-family="Arial" font-size="14.00" fill="#000000">billing_address    </text>
<text text-anchor="start" x="244.5526" y="-233.9" font-family="Arial" font-size="14.00" fill="#666666">[integer]</text>
<polygon fill="none" stroke="#000000" points="110,-192.5 110,-222.5 361,-222.5 361,-192.5 110,-192.5"/>
<text text-anchor="start" x="117" y="-203.9" font-family="Arial" font-size="14.00" fill="#000000">shortname    </text>
<text text-anchor="start" x="217.3296" y="-203.9" font-family="Arial" font-size="14.00" fill="#666666">[text]</text>
<polygon fill="none" stroke="#000000" points="110,-162.5 110,-192.5 361,-192.5 361,-162.5 110,-162.5"/>
<text text-anchor="start" x="117" y="-173.9" font-family="Arial" font-size="14.00" fill="#000000">name    </text>
<text text-anchor="start" x="186.2132" y="-173.9" font-family="Arial" font-size="14.00" fill="#666666">[text]</text>
<polygon fill="none" stroke="#000000" points="110,-132.5 110,-162.5 361,-162.5 361,-132.5 110,-132.5"/>
<text text-anchor="start" x="117" y="-143.9" font-family="Arial" font-size="14.00" fill="#000000">email    </text>
<text text-anchor="start" x="184.6438" y="-143.9" font-family="Arial" font-size="14.00" fill="#666666">[text]</text>
<polygon fill="none" stroke="#000000" points="110,-102.5 110,-132.5 361,-132.5 361,-102.5 110,-102.5"/>
<text text-anchor="start" x="117" y="-113.9" font-family="Arial" font-size="14.00" fill="#000000">phone    </text>
<text text-anchor="start" x="190.1178" y="-113.9" font-family="Arial" font-size="14.00" fill="#666666">[text]</text>
<polygon fill="none" stroke="#000000" points="110,-72.5 110,-102.5 361,-102.5 361,-72.5 110,-72.5"/>
<text text-anchor="start" x="117" y="-83.9" font-family="Arial" font-size="14.00" fill="#000000">opac_visible    </text>
<text text-anchor="start" x="228.2202" y="-83.9" font-family="Arial" font-size="14.00" fill="#666666">[boolean]</text>
<polygon fill="none" stroke="#000000" points="110,-42.5 110,-72.5 361,-72.5 361,-42.5 110,-42.5"/>
<text text-anchor="start" x="117" y="-53.9" font-family="Arial" font-size="14.00" fill="#000000">fiscal_calendar    </text>
<text text-anchor="start" x="244.554" y="-53.9" font-family="Arial" font-size="14.00" fill="#666666">[integer]</text>
</g>
<!-- config.print_template&#45;&gt;actor.org_unit -->
<g id="edge1" class="edge">
<title>config.print_template:owner&#45;&gt;actor.org_unit:id</title>
<path fill="none" stroke="#000000" d="M257.8761,-726.8226C190.9324,-717.326 224.6917,-610.2043 268,-547 293.0529,-510.4377 335.9471,-547.5623 361,-511 384.4891,-476.7199 402.5556,-417.5 361,-417.5"/>
<polygon fill="#000000" stroke="#000000" points="258.0223,-726.8323 267.6995,-731.99 263.0112,-727.1662 268,-727.5 268,-727.5 268,-727.5 263.0112,-727.1662 268.3005,-723.01 258.0223,-726.8323 258.0223,-726.8323"/>
<text text-anchor="start" x="6.774" y="-737.5" font-family="Arial" font-size="10.00" fill="#000000">FOREIGN KEY (owner) REFERENCES actor.org_unit(id)</text>
</g>
<!-- config.i18n_locale -->
<g id="node3" class="node">
<title>config.i18n_locale</title>
<polygon fill="#efefef" stroke="transparent" points="465,-312.5 465,-347.5 750,-347.5 750,-312.5 465,-312.5"/>
<polygon fill="none" stroke="#000000" points="465,-312.5 465,-347.5 750,-347.5 750,-312.5 465,-312.5"/>
<text text-anchor="start" x="471.6944" y="-325.3" font-family="Arial Bold" font-size="18.00" fill="#000000">config.i18n_locale</text>
<text text-anchor="start" x="615.7376" y="-325.3" font-family="Arial" font-size="14.00" fill="#000000">    </text>
<text text-anchor="start" x="649.9424" y="-325.3" font-family="Arial" font-size="14.00" fill="#666666">[BASE TABLE]</text>
<polygon fill="none" stroke="#000000" points="465,-282.5 465,-312.5 750,-312.5 750,-282.5 465,-282.5"/>
<text text-anchor="start" x="472" y="-293.9" font-family="Arial" font-size="14.00" fill="#000000">code    </text>
<text text-anchor="start" x="536.5526" y="-293.9" font-family="Arial" font-size="14.00" fill="#666666">[text]</text>
<polygon fill="none" stroke="#000000" points="465,-252.5 465,-282.5 750,-282.5 750,-252.5 465,-252.5"/>
<text text-anchor="start" x="472" y="-263.9" font-family="Arial" font-size="14.00" fill="#000000">marc_code    </text>
<text text-anchor="start" x="575.439" y="-263.9" font-family="Arial" font-size="14.00" fill="#666666">[text]</text>
<polygon fill="none" stroke="#000000" points="465,-222.5 465,-252.5 750,-252.5 750,-222.5 465,-222.5"/>
<text text-anchor="start" x="472" y="-233.9" font-family="Arial" font-size="14.00" fill="#000000">name    </text>
<text text-anchor="start" x="541.2132" y="-233.9" font-family="Arial" font-size="14.00" fill="#666666">[text]</text>
<polygon fill="none" stroke="#000000" points="465,-192.5 465,-222.5 750,-222.5 750,-192.5 465,-192.5"/>
<text text-anchor="start" x="472" y="-203.9" font-family="Arial" font-size="14.00" fill="#000000">description    </text>
<text text-anchor="start" x="573.8822" y="-203.9" font-family="Arial" font-size="14.00" fill="#666666">[text]</text>
<polygon fill="none" stroke="#000000" points="465,-162.5 465,-192.5 750,-192.5 750,-162.5 465,-162.5"/>
<text text-anchor="start" x="472" y="-173.9" font-family="Arial" font-size="14.00" fill="#000000">rtl    </text>
<text text-anchor="start" x="517.8626" y="-173.9" font-family="Arial" font-size="14.00" fill="#666666">[boolean]</text>
</g>
<!-- config.print_template&#45;&gt;config.i18n_locale -->
<g id="edge2" class="edge">
<title>config.print_template:locale&#45;&gt;config.i18n_locale:code</title>
<path fill="none" stroke="#000000" d="M585.9888,-666.5C624.4198,-657.8201 591.1516,-594.4285 576,-547 550.1052,-465.9423 490.8948,-472.0577 465,-391 452.3542,-351.4153 423.4444,-297.5 465,-297.5"/>
<polygon fill="#000000" stroke="#000000" points="585.9503,-666.5038 575.5517,-663.0224 580.9751,-667.0019 576,-667.5 576,-667.5 576,-667.5 580.9751,-667.0019 576.4483,-671.9776 585.9503,-666.5038 585.9503,-666.5038"/>
<text text-anchor="start" x="582.76" y="-677.5" font-family="Arial" font-size="10.00" fill="#000000">FOREIGN KEY (locale) REFERENCES config.i18n_locale(code) ON UPDATE CASCADE DEFERRABLE INITIALLY DEFERRED</text>
</g>
</g>
</svg>
