<?xml version="1.0" encoding="UTF-8" standalone="no"?>
<!DOCTYPE svg PUBLIC "-//W3C//DTD SVG 1.1//EN"
 "http://www.w3.org/Graphics/SVG/1.1/DTD/svg11.dtd">
<!-- Generated by graphviz version 2.40.1 (20161225.0304)
 -->
<!-- Title: config.metabib_field_ts_map Pages: 1 -->
<svg width="1301pt" height="1042pt"
 viewBox="0.00 0.00 1301.00 1042.00" xmlns="http://www.w3.org/2000/svg" xmlns:xlink="http://www.w3.org/1999/xlink">
<g id="graph0" class="graph" transform="scale(1 1) rotate(0) translate(4 1038)">
<title>config.metabib_field_ts_map</title>
<polygon fill="#ffffff" stroke="transparent" points="-4,4 -4,-1038 1297,-1038 1297,4 -4,4"/>
<!-- config.metabib_field_ts_map -->
<g id="node1" class="node">
<title>config.metabib_field_ts_map</title>
<polygon fill="#efefef" stroke="transparent" points="616,-952.5 616,-987.5 986,-987.5 986,-952.5 616,-952.5"/>
<polygon fill="none" stroke="#000000" points="616,-952.5 616,-987.5 986,-987.5 986,-952.5 616,-952.5"/>
<text text-anchor="start" x="622.6865" y="-965.3" font-family="Arial Bold" font-size="18.00" fill="#000000">config.metabib_field_ts_map</text>
<text text-anchor="start" x="851.7455" y="-965.3" font-family="Arial" font-size="14.00" fill="#000000">    </text>
<text text-anchor="start" x="885.9503" y="-965.3" font-family="Arial" font-size="14.00" fill="#666666">[BASE TABLE]</text>
<polygon fill="none" stroke="#000000" points="616,-922.5 616,-952.5 986,-952.5 986,-922.5 616,-922.5"/>
<text text-anchor="start" x="623" y="-933.9" font-family="Arial" font-size="14.00" fill="#000000">id </text>
<text text-anchor="start" x="637.7798" y="-933.9" font-family="Arial" font-size="14.00" fill="#666666">[integer]</text>
<polygon fill="none" stroke="#000000" points="616,-892.5 616,-922.5 986,-922.5 986,-892.5 616,-892.5"/>
<text text-anchor="start" x="623" y="-903.9" font-family="Arial" font-size="14.00" fill="#000000">metabib_field </text>
<text text-anchor="start" x="710.1304" y="-903.9" font-family="Arial" font-size="14.00" fill="#666666">[integer]</text>
<polygon fill="none" stroke="#000000" points="616,-862.5 616,-892.5 986,-892.5 986,-862.5 616,-862.5"/>
<text text-anchor="start" x="623" y="-873.9" font-family="Arial" font-size="14.00" fill="#000000">ts_config </text>
<text text-anchor="start" x="682.9088" y="-873.9" font-family="Arial" font-size="14.00" fill="#666666">[text]</text>
<polygon fill="none" stroke="#000000" points="616,-832.5 616,-862.5 986,-862.5 986,-832.5 616,-832.5"/>
<text text-anchor="start" x="623" y="-843.9" font-family="Arial" font-size="14.00" fill="#000000">active </text>
<text text-anchor="start" x="663.453" y="-843.9" font-family="Arial" font-size="14.00" fill="#666666">[boolean]</text>
<polygon fill="none" stroke="#000000" points="616,-802.5 616,-832.5 986,-832.5 986,-802.5 616,-802.5"/>
<text text-anchor="start" x="623" y="-813.9" font-family="Arial" font-size="14.00" fill="#000000">index_weight </text>
<text text-anchor="start" x="708.5792" y="-813.9" font-family="Arial" font-size="14.00" fill="#666666">[character(1)]</text>
<polygon fill="none" stroke="#000000" points="616,-772.5 616,-802.5 986,-802.5 986,-772.5 616,-772.5"/>
<text text-anchor="start" x="623" y="-783.9" font-family="Arial" font-size="14.00" fill="#000000">index_lang </text>
<text text-anchor="start" x="694.582" y="-783.9" font-family="Arial" font-size="14.00" fill="#666666">[text]</text>
<polygon fill="none" stroke="#000000" points="616,-742.5 616,-772.5 986,-772.5 986,-742.5 616,-742.5"/>
<text text-anchor="start" x="623" y="-753.9" font-family="Arial" font-size="14.00" fill="#000000">search_lang </text>
<text text-anchor="start" x="703.136" y="-753.9" font-family="Arial" font-size="14.00" fill="#666666">[text]</text>
<polygon fill="none" stroke="#000000" stroke-width="3" points="614.5,-741.5 614.5,-989.5 987.5,-989.5 987.5,-741.5 614.5,-741.5"/>
</g>
<!-- config.metabib_field -->
<g id="node2" class="node">
<title>config.metabib_field</title>
<polygon fill="#efefef" stroke="transparent" points="449,-582.5 449,-617.5 750,-617.5 750,-582.5 449,-582.5"/>
<polygon fill="none" stroke="#000000" points="449,-582.5 449,-617.5 750,-617.5 750,-582.5 449,-582.5"/>
<text text-anchor="start" x="455.6961" y="-595.3" font-family="Arial Bold" font-size="18.00" fill="#000000">config.metabib_field</text>
<text text-anchor="start" x="615.7359" y="-595.3" font-family="Arial" font-size="14.00" fill="#000000">    </text>
<text text-anchor="start" x="649.9407" y="-595.3" font-family="Arial" font-size="14.00" fill="#666666">[BASE TABLE]</text>
<polygon fill="none" stroke="#000000" points="449,-552.5 449,-582.5 750,-582.5 750,-552.5 449,-552.5"/>
<text text-anchor="start" x="456" y="-563.9" font-family="Arial" font-size="14.00" fill="#000000">id    </text>
<text text-anchor="start" x="501.094" y="-563.9" font-family="Arial" font-size="14.00" fill="#666666">[integer]</text>
<polygon fill="none" stroke="#000000" points="449,-522.5 449,-552.5 750,-552.5 750,-522.5 449,-522.5"/>
<text text-anchor="start" x="456" y="-533.9" font-family="Arial" font-size="14.00" fill="#000000">field_class    </text>
<text text-anchor="start" x="555.5456" y="-533.9" font-family="Arial" font-size="14.00" fill="#666666">[text]</text>
<polygon fill="none" stroke="#000000" points="449,-492.5 449,-522.5 750,-522.5 750,-492.5 449,-492.5"/>
<text text-anchor="start" x="456" y="-503.9" font-family="Arial" font-size="14.00" fill="#000000">name    </text>
<text text-anchor="start" x="525.2132" y="-503.9" font-family="Arial" font-size="14.00" fill="#666666">[text]</text>
<polygon fill="none" stroke="#000000" points="449,-462.5 449,-492.5 750,-492.5 750,-462.5 449,-462.5"/>
<text text-anchor="start" x="456" y="-473.9" font-family="Arial" font-size="14.00" fill="#000000">label    </text>
<text text-anchor="start" x="519.7658" y="-473.9" font-family="Arial" font-size="14.00" fill="#666666">[text]</text>
<polygon fill="none" stroke="#000000" points="449,-432.5 449,-462.5 750,-462.5 750,-432.5 449,-432.5"/>
<text text-anchor="start" x="456" y="-443.9" font-family="Arial" font-size="14.00" fill="#000000">xpath    </text>
<text text-anchor="start" x="524.4432" y="-443.9" font-family="Arial" font-size="14.00" fill="#666666">[text]</text>
<polygon fill="none" stroke="#000000" points="449,-402.5 449,-432.5 750,-432.5 750,-402.5 449,-402.5"/>
<text text-anchor="start" x="456" y="-413.9" font-family="Arial" font-size="14.00" fill="#000000">weight    </text>
<text text-anchor="start" x="530.6564" y="-413.9" font-family="Arial" font-size="14.00" fill="#666666">[integer]</text>
<polygon fill="none" stroke="#000000" points="449,-372.5 449,-402.5 750,-402.5 750,-372.5 449,-372.5"/>
<text text-anchor="start" x="456" y="-383.9" font-family="Arial" font-size="14.00" fill="#000000">format    </text>
<text text-anchor="start" x="529.8724" y="-383.9" font-family="Arial" font-size="14.00" fill="#666666">[text]</text>
<polygon fill="none" stroke="#000000" points="449,-342.5 449,-372.5 750,-372.5 750,-342.5 449,-342.5"/>
<text text-anchor="start" x="456" y="-353.9" font-family="Arial" font-size="14.00" fill="#000000">search_field    </text>
<text text-anchor="start" x="565.6648" y="-353.9" font-family="Arial" font-size="14.00" fill="#666666">[boolean]</text>
<polygon fill="none" stroke="#000000" points="449,-312.5 449,-342.5 750,-342.5 750,-312.5 449,-312.5"/>
<text text-anchor="start" x="456" y="-323.9" font-family="Arial" font-size="14.00" fill="#000000">facet_field    </text>
<text text-anchor="start" x="554.0028" y="-323.9" font-family="Arial" font-size="14.00" fill="#666666">[boolean]</text>
<polygon fill="none" stroke="#000000" points="449,-282.5 449,-312.5 750,-312.5 750,-282.5 449,-282.5"/>
<text text-anchor="start" x="456" y="-293.9" font-family="Arial" font-size="14.00" fill="#000000">browse_field    </text>
<text text-anchor="start" x="568.7714" y="-293.9" font-family="Arial" font-size="14.00" fill="#666666">[boolean]</text>
<polygon fill="none" stroke="#000000" points="449,-252.5 449,-282.5 750,-282.5 750,-252.5 449,-252.5"/>
<text text-anchor="start" x="456" y="-263.9" font-family="Arial" font-size="14.00" fill="#000000">browse_xpath    </text>
<text text-anchor="start" x="577.3408" y="-263.9" font-family="Arial" font-size="14.00" fill="#666666">[text]</text>
<polygon fill="none" stroke="#000000" points="449,-222.5 449,-252.5 750,-252.5 750,-222.5 449,-222.5"/>
<text text-anchor="start" x="456" y="-233.9" font-family="Arial" font-size="14.00" fill="#000000">browse_sort_xpath    </text>
<text text-anchor="start" x="608.4572" y="-233.9" font-family="Arial" font-size="14.00" fill="#666666">[text]</text>
<polygon fill="none" stroke="#000000" points="449,-192.5 449,-222.5 750,-222.5 750,-192.5 449,-192.5"/>
<text text-anchor="start" x="456" y="-203.9" font-family="Arial" font-size="14.00" fill="#000000">facet_xpath    </text>
<text text-anchor="start" x="562.5722" y="-203.9" font-family="Arial" font-size="14.00" fill="#666666">[text]</text>
<polygon fill="none" stroke="#000000" points="449,-162.5 449,-192.5 750,-192.5 750,-162.5 449,-162.5"/>
<text text-anchor="start" x="456" y="-173.9" font-family="Arial" font-size="14.00" fill="#000000">display_xpath    </text>
<text text-anchor="start" x="575.7868" y="-173.9" font-family="Arial" font-size="14.00" fill="#666666">[text]</text>
<polygon fill="none" stroke="#000000" points="449,-132.5 449,-162.5 750,-162.5 750,-132.5 449,-132.5"/>
<text text-anchor="start" x="456" y="-143.9" font-family="Arial" font-size="14.00" fill="#000000">authority_xpath    </text>
<text text-anchor="start" x="585.9046" y="-143.9" font-family="Arial" font-size="14.00" fill="#666666">[text]</text>
<polygon fill="none" stroke="#000000" points="449,-102.5 449,-132.5 750,-132.5 750,-102.5 449,-102.5"/>
<text text-anchor="start" x="456" y="-113.9" font-family="Arial" font-size="14.00" fill="#000000">joiner    </text>
<text text-anchor="start" x="524.4264" y="-113.9" font-family="Arial" font-size="14.00" fill="#666666">[text]</text>
<polygon fill="none" stroke="#000000" points="449,-72.5 449,-102.5 750,-102.5 750,-72.5 449,-72.5"/>
<text text-anchor="start" x="456" y="-83.9" font-family="Arial" font-size="14.00" fill="#000000">restrict    </text>
<text text-anchor="start" x="532.1964" y="-83.9" font-family="Arial" font-size="14.00" fill="#666666">[boolean]</text>
<polygon fill="none" stroke="#000000" points="449,-42.5 449,-72.5 750,-72.5 750,-42.5 449,-42.5"/>
<text text-anchor="start" x="456" y="-53.9" font-family="Arial" font-size="14.00" fill="#000000">display_field    </text>
<text text-anchor="start" x="567.2174" y="-53.9" font-family="Arial" font-size="14.00" fill="#666666">[boolean]</text>
</g>
<!-- config.metabib_field_ts_map&#45;&gt;config.metabib_field -->
<g id="edge1" class="edge">
<title>config.metabib_field_ts_map:metabib_field&#45;&gt;config.metabib_field:id</title>
<path fill="none" stroke="#000000" d="M605.6258,-906.8881C525.3369,-896.9494 561.2953,-768.3413 616,-697 653.5246,-648.0636 712.4754,-709.9364 750,-661 775.2865,-628.0234 791.5556,-567.5 750,-567.5"/>
<polygon fill="#000000" stroke="#000000" points="606.0174,-906.9111 615.735,-911.9922 611.0087,-907.2055 616,-907.5 616,-907.5 616,-907.5 611.0087,-907.2055 616.265,-903.0078 606.0174,-906.9111 606.0174,-906.9111"/>
<text text-anchor="start" x="6.595" y="-917.5" font-family="Arial" font-size="10.00" fill="#000000">FOREIGN KEY (metabib_field) REFERENCES config.metabib_field(id) ON UPDATE CASCADE DEFERRABLE INITIALLY DEFERRED</text>
</g>
<!-- config.ts_config_list -->
<g id="node3" class="node">
<title>config.ts_config_list</title>
<polygon fill="#efefef" stroke="transparent" points="854,-342.5 854,-377.5 1152,-377.5 1152,-342.5 854,-342.5"/>
<polygon fill="none" stroke="#000000" points="854,-342.5 854,-377.5 1152,-377.5 1152,-342.5 854,-342.5"/>
<text text-anchor="start" x="860.6973" y="-355.3" font-family="Arial Bold" font-size="18.00" fill="#000000">config.ts_config_list</text>
<text text-anchor="start" x="1017.7347" y="-355.3" font-family="Arial" font-size="14.00" fill="#000000">    </text>
<text text-anchor="start" x="1051.9395" y="-355.3" font-family="Arial" font-size="14.00" fill="#666666">[BASE TABLE]</text>
<polygon fill="none" stroke="#000000" points="854,-312.5 854,-342.5 1152,-342.5 1152,-312.5 854,-312.5"/>
<text text-anchor="start" x="861" y="-323.9" font-family="Arial" font-size="14.00" fill="#000000">id    </text>
<text text-anchor="start" x="906.094" y="-323.9" font-family="Arial" font-size="14.00" fill="#666666">[text]</text>
<polygon fill="none" stroke="#000000" points="854,-282.5 854,-312.5 1152,-312.5 1152,-282.5 854,-282.5"/>
<text text-anchor="start" x="861" y="-293.9" font-family="Arial" font-size="14.00" fill="#000000">name    </text>
<text text-anchor="start" x="930.2132" y="-293.9" font-family="Arial" font-size="14.00" fill="#666666">[text]</text>
</g>
<!-- config.metabib_field_ts_map&#45;&gt;config.ts_config_list -->
<g id="edge2" class="edge">
<title>config.metabib_field_ts_map:ts_config&#45;&gt;config.ts_config_list:id</title>
<path fill="none" stroke="#000000" d="M996.3599,-876.8389C1060.4633,-867.9654 1002.9139,-771.5676 986,-697 966.7122,-611.9667 766.8067,-327.5 854,-327.5"/>
<polygon fill="#000000" stroke="#000000" points="995.9797,-876.8631 985.7134,-873.0091 990.9899,-877.1815 986,-877.5 986,-877.5 986,-877.5 990.9899,-877.1815 986.2866,-881.9909 995.9797,-876.8631 995.9797,-876.8631"/>
<text text-anchor="start" x="993.322" y="-887.5" font-family="Arial" font-size="10.00" fill="#000000">FOREIGN KEY (ts_config) REFERENCES config.ts_config_list(id)</text>
</g>
</g>
</svg>
