<?xml version="1.0" encoding="UTF-8" standalone="no"?>
<!DOCTYPE svg PUBLIC "-//W3C//DTD SVG 1.1//EN"
 "http://www.w3.org/Graphics/SVG/1.1/DTD/svg11.dtd">
<!-- Generated by graphviz version 2.40.1 (20161225.0304)
 -->
<!-- Title: config.weight_assoc Pages: 1 -->
<svg width="1520pt" height="1012pt"
 viewBox="0.00 0.00 1520.00 1012.00" xmlns="http://www.w3.org/2000/svg" xmlns:xlink="http://www.w3.org/1999/xlink">
<g id="graph0" class="graph" transform="scale(1 1) rotate(0) translate(4 1008)">
<title>config.weight_assoc</title>
<polygon fill="#ffffff" stroke="transparent" points="-4,4 -4,-1008 1516,-1008 1516,4 -4,4"/>
<!-- config.weight_assoc -->
<g id="node1" class="node">
<title>config.weight_assoc</title>
<polygon fill="#efefef" stroke="transparent" points="564,-922.5 564,-957.5 867,-957.5 867,-922.5 564,-922.5"/>
<polygon fill="none" stroke="#000000" points="564,-922.5 564,-957.5 867,-957.5 867,-922.5 564,-922.5"/>
<text text-anchor="start" x="570.6935" y="-935.3" font-family="Arial Bold" font-size="18.00" fill="#000000">config.weight_assoc</text>
<text text-anchor="start" x="732.7385" y="-935.3" font-family="Arial" font-size="14.00" fill="#000000">    </text>
<text text-anchor="start" x="766.9433" y="-935.3" font-family="Arial" font-size="14.00" fill="#666666">[BASE TABLE]</text>
<polygon fill="none" stroke="#000000" points="564,-892.5 564,-922.5 867,-922.5 867,-892.5 564,-892.5"/>
<text text-anchor="start" x="571" y="-903.9" font-family="Arial" font-size="14.00" fill="#000000">id </text>
<text text-anchor="start" x="585.7798" y="-903.9" font-family="Arial" font-size="14.00" fill="#666666">[integer]</text>
<polygon fill="none" stroke="#000000" points="564,-862.5 564,-892.5 867,-892.5 867,-862.5 564,-862.5"/>
<text text-anchor="start" x="571" y="-873.9" font-family="Arial" font-size="14.00" fill="#000000">active </text>
<text text-anchor="start" x="611.453" y="-873.9" font-family="Arial" font-size="14.00" fill="#666666">[boolean]</text>
<polygon fill="none" stroke="#000000" points="564,-832.5 564,-862.5 867,-862.5 867,-832.5 564,-832.5"/>
<text text-anchor="start" x="571" y="-843.9" font-family="Arial" font-size="14.00" fill="#000000">org_unit </text>
<text text-anchor="start" x="625.4614" y="-843.9" font-family="Arial" font-size="14.00" fill="#666666">[integer]</text>
<polygon fill="none" stroke="#000000" points="564,-802.5 564,-832.5 867,-832.5 867,-802.5 564,-802.5"/>
<text text-anchor="start" x="571" y="-813.9" font-family="Arial" font-size="14.00" fill="#000000">circ_weights </text>
<text text-anchor="start" x="651.892" y="-813.9" font-family="Arial" font-size="14.00" fill="#666666">[integer]</text>
<polygon fill="none" stroke="#000000" points="564,-772.5 564,-802.5 867,-802.5 867,-772.5 564,-772.5"/>
<text text-anchor="start" x="571" y="-783.9" font-family="Arial" font-size="14.00" fill="#000000">hold_weights </text>
<text text-anchor="start" x="656.5792" y="-783.9" font-family="Arial" font-size="14.00" fill="#666666">[integer]</text>
<polygon fill="none" stroke="#000000" stroke-width="3" points="562,-771.5 562,-959.5 868,-959.5 868,-771.5 562,-771.5"/>
</g>
<!-- actor.org_unit -->
<g id="node2" class="node">
<title>actor.org_unit</title>
<polygon fill="#efefef" stroke="transparent" points="185,-522.5 185,-557.5 436,-557.5 436,-522.5 185,-522.5"/>
<polygon fill="none" stroke="#000000" points="185,-522.5 185,-557.5 436,-557.5 436,-522.5 185,-522.5"/>
<text text-anchor="start" x="191.7017" y="-535.3" font-family="Arial Bold" font-size="18.00" fill="#000000">actor.org_unit</text>
<text text-anchor="start" x="301.7303" y="-535.3" font-family="Arial" font-size="14.00" fill="#000000">    </text>
<text text-anchor="start" x="335.9351" y="-535.3" font-family="Arial" font-size="14.00" fill="#666666">[BASE TABLE]</text>
<polygon fill="none" stroke="#000000" points="185,-492.5 185,-522.5 436,-522.5 436,-492.5 185,-492.5"/>
<text text-anchor="start" x="192" y="-503.9" font-family="Arial" font-size="14.00" fill="#000000">id    </text>
<text text-anchor="start" x="237.094" y="-503.9" font-family="Arial" font-size="14.00" fill="#666666">[integer]</text>
<polygon fill="none" stroke="#000000" points="185,-462.5 185,-492.5 436,-492.5 436,-462.5 185,-462.5"/>
<text text-anchor="start" x="192" y="-473.9" font-family="Arial" font-size="14.00" fill="#000000">parent_ou    </text>
<text text-anchor="start" x="289.2342" y="-473.9" font-family="Arial" font-size="14.00" fill="#666666">[integer]</text>
<polygon fill="none" stroke="#000000" points="185,-432.5 185,-462.5 436,-462.5 436,-432.5 185,-432.5"/>
<text text-anchor="start" x="192" y="-443.9" font-family="Arial" font-size="14.00" fill="#000000">ou_type    </text>
<text text-anchor="start" x="276.0084" y="-443.9" font-family="Arial" font-size="14.00" fill="#666666">[integer]</text>
<polygon fill="none" stroke="#000000" points="185,-402.5 185,-432.5 436,-432.5 436,-402.5 185,-402.5"/>
<text text-anchor="start" x="192" y="-413.9" font-family="Arial" font-size="14.00" fill="#000000">ill_address    </text>
<text text-anchor="start" x="293.0982" y="-413.9" font-family="Arial" font-size="14.00" fill="#666666">[integer]</text>
<polygon fill="none" stroke="#000000" points="185,-372.5 185,-402.5 436,-402.5 436,-372.5 185,-372.5"/>
<text text-anchor="start" x="192" y="-383.9" font-family="Arial" font-size="14.00" fill="#000000">holds_address    </text>
<text text-anchor="start" x="317.2328" y="-383.9" font-family="Arial" font-size="14.00" fill="#666666">[integer]</text>
<polygon fill="none" stroke="#000000" points="185,-342.5 185,-372.5 436,-372.5 436,-342.5 185,-342.5"/>
<text text-anchor="start" x="192" y="-353.9" font-family="Arial" font-size="14.00" fill="#000000">mailing_address    </text>
<text text-anchor="start" x="328.1066" y="-353.9" font-family="Arial" font-size="14.00" fill="#666666">[integer]</text>
<polygon fill="none" stroke="#000000" points="185,-312.5 185,-342.5 436,-342.5 436,-312.5 185,-312.5"/>
<text text-anchor="start" x="192" y="-323.9" font-family="Arial" font-size="14.00" fill="#000000">billing_address    </text>
<text text-anchor="start" x="319.5526" y="-323.9" font-family="Arial" font-size="14.00" fill="#666666">[integer]</text>
<polygon fill="none" stroke="#000000" points="185,-282.5 185,-312.5 436,-312.5 436,-282.5 185,-282.5"/>
<text text-anchor="start" x="192" y="-293.9" font-family="Arial" font-size="14.00" fill="#000000">shortname    </text>
<text text-anchor="start" x="292.3296" y="-293.9" font-family="Arial" font-size="14.00" fill="#666666">[text]</text>
<polygon fill="none" stroke="#000000" points="185,-252.5 185,-282.5 436,-282.5 436,-252.5 185,-252.5"/>
<text text-anchor="start" x="192" y="-263.9" font-family="Arial" font-size="14.00" fill="#000000">name    </text>
<text text-anchor="start" x="261.2132" y="-263.9" font-family="Arial" font-size="14.00" fill="#666666">[text]</text>
<polygon fill="none" stroke="#000000" points="185,-222.5 185,-252.5 436,-252.5 436,-222.5 185,-222.5"/>
<text text-anchor="start" x="192" y="-233.9" font-family="Arial" font-size="14.00" fill="#000000">email    </text>
<text text-anchor="start" x="259.6438" y="-233.9" font-family="Arial" font-size="14.00" fill="#666666">[text]</text>
<polygon fill="none" stroke="#000000" points="185,-192.5 185,-222.5 436,-222.5 436,-192.5 185,-192.5"/>
<text text-anchor="start" x="192" y="-203.9" font-family="Arial" font-size="14.00" fill="#000000">phone    </text>
<text text-anchor="start" x="265.1178" y="-203.9" font-family="Arial" font-size="14.00" fill="#666666">[text]</text>
<polygon fill="none" stroke="#000000" points="185,-162.5 185,-192.5 436,-192.5 436,-162.5 185,-162.5"/>
<text text-anchor="start" x="192" y="-173.9" font-family="Arial" font-size="14.00" fill="#000000">opac_visible    </text>
<text text-anchor="start" x="303.2202" y="-173.9" font-family="Arial" font-size="14.00" fill="#666666">[boolean]</text>
<polygon fill="none" stroke="#000000" points="185,-132.5 185,-162.5 436,-162.5 436,-132.5 185,-132.5"/>
<text text-anchor="start" x="192" y="-143.9" font-family="Arial" font-size="14.00" fill="#000000">fiscal_calendar    </text>
<text text-anchor="start" x="319.554" y="-143.9" font-family="Arial" font-size="14.00" fill="#666666">[integer]</text>
</g>
<!-- config.weight_assoc&#45;&gt;actor.org_unit -->
<g id="edge1" class="edge">
<title>config.weight_assoc:org_unit&#45;&gt;actor.org_unit:id</title>
<path fill="none" stroke="#000000" d="M553.8096,-846.9546C489.2582,-839.6283 514.2455,-759.8673 488,-691 457.813,-611.7903 520.7669,-507.5 436,-507.5"/>
<polygon fill="#000000" stroke="#000000" points="554.0143,-846.9654 563.7595,-851.9936 559.0071,-847.2327 564,-847.5 564,-847.5 564,-847.5 559.0071,-847.2327 564.2405,-843.0064 554.0143,-846.9654 554.0143,-846.9654"/>
<text text-anchor="start" x="6.9845" y="-857.5" font-family="Arial" font-size="10.00" fill="#000000">FOREIGN KEY (org_unit) REFERENCES actor.org_unit(id) ON DELETE CASCADE DEFERRABLE INITIALLY DEFERRED</text>
</g>
<!-- config.circ_matrix_weights -->
<g id="node3" class="node">
<title>config.circ_matrix_weights</title>
<polygon fill="#efefef" stroke="transparent" points="540,-612.5 540,-647.5 892,-647.5 892,-612.5 540,-612.5"/>
<polygon fill="none" stroke="#000000" points="540,-612.5 540,-647.5 892,-647.5 892,-612.5 540,-612.5"/>
<text text-anchor="start" x="546.7099" y="-625.3" font-family="Arial Bold" font-size="18.00" fill="#000000">config.circ_matrix_weights</text>
<text text-anchor="start" x="757.7221" y="-625.3" font-family="Arial" font-size="14.00" fill="#000000">    </text>
<text text-anchor="start" x="791.9269" y="-625.3" font-family="Arial" font-size="14.00" fill="#666666">[BASE TABLE]</text>
<polygon fill="none" stroke="#000000" points="540,-582.5 540,-612.5 892,-612.5 892,-582.5 540,-582.5"/>
<text text-anchor="start" x="547" y="-593.9" font-family="Arial" font-size="14.00" fill="#000000">id    </text>
<text text-anchor="start" x="592.094" y="-593.9" font-family="Arial" font-size="14.00" fill="#666666">[integer]</text>
<polygon fill="none" stroke="#000000" points="540,-552.5 540,-582.5 892,-582.5 892,-552.5 540,-552.5"/>
<text text-anchor="start" x="547" y="-563.9" font-family="Arial" font-size="14.00" fill="#000000">name    </text>
<text text-anchor="start" x="616.2132" y="-563.9" font-family="Arial" font-size="14.00" fill="#666666">[text]</text>
<polygon fill="none" stroke="#000000" points="540,-522.5 540,-552.5 892,-552.5 892,-522.5 540,-522.5"/>
<text text-anchor="start" x="547" y="-533.9" font-family="Arial" font-size="14.00" fill="#000000">org_unit    </text>
<text text-anchor="start" x="631.7756" y="-533.9" font-family="Arial" font-size="14.00" fill="#666666">[numeric(6,2)]</text>
<polygon fill="none" stroke="#000000" points="540,-492.5 540,-522.5 892,-522.5 892,-492.5 540,-492.5"/>
<text text-anchor="start" x="547" y="-503.9" font-family="Arial" font-size="14.00" fill="#000000">grp    </text>
<text text-anchor="start" x="601.4306" y="-503.9" font-family="Arial" font-size="14.00" fill="#666666">[numeric(6,2)]</text>
<polygon fill="none" stroke="#000000" points="540,-462.5 540,-492.5 892,-492.5 892,-462.5 540,-462.5"/>
<text text-anchor="start" x="547" y="-473.9" font-family="Arial" font-size="14.00" fill="#000000">circ_modifier    </text>
<text text-anchor="start" x="660.5274" y="-473.9" font-family="Arial" font-size="14.00" fill="#666666">[numeric(6,2)]</text>
<polygon fill="none" stroke="#000000" points="540,-432.5 540,-462.5 892,-462.5 892,-432.5 540,-432.5"/>
<text text-anchor="start" x="547" y="-443.9" font-family="Arial" font-size="14.00" fill="#000000">copy_location    </text>
<text text-anchor="start" x="666.7868" y="-443.9" font-family="Arial" font-size="14.00" fill="#666666">[numeric(6,2)]</text>
<polygon fill="none" stroke="#000000" points="540,-402.5 540,-432.5 892,-432.5 892,-402.5 540,-402.5"/>
<text text-anchor="start" x="547" y="-413.9" font-family="Arial" font-size="14.00" fill="#000000">marc_type    </text>
<text text-anchor="start" x="646.547" y="-413.9" font-family="Arial" font-size="14.00" fill="#666666">[numeric(6,2)]</text>
<polygon fill="none" stroke="#000000" points="540,-372.5 540,-402.5 892,-402.5 892,-372.5 540,-372.5"/>
<text text-anchor="start" x="547" y="-383.9" font-family="Arial" font-size="14.00" fill="#000000">marc_form    </text>
<text text-anchor="start" x="648.0856" y="-383.9" font-family="Arial" font-size="14.00" fill="#666666">[numeric(6,2)]</text>
<polygon fill="none" stroke="#000000" points="540,-342.5 540,-372.5 892,-372.5 892,-342.5 540,-342.5"/>
<text text-anchor="start" x="547" y="-353.9" font-family="Arial" font-size="14.00" fill="#000000">marc_bib_level    </text>
<text text-anchor="start" x="675.324" y="-353.9" font-family="Arial" font-size="14.00" fill="#666666">[numeric(6,2)]</text>
<polygon fill="none" stroke="#000000" points="540,-312.5 540,-342.5 892,-342.5 892,-312.5 540,-312.5"/>
<text text-anchor="start" x="547" y="-323.9" font-family="Arial" font-size="14.00" fill="#000000">marc_vr_format    </text>
<text text-anchor="start" x="679.202" y="-323.9" font-family="Arial" font-size="14.00" fill="#666666">[numeric(6,2)]</text>
<polygon fill="none" stroke="#000000" points="540,-282.5 540,-312.5 892,-312.5 892,-282.5 540,-282.5"/>
<text text-anchor="start" x="547" y="-293.9" font-family="Arial" font-size="14.00" fill="#000000">copy_circ_lib    </text>
<text text-anchor="start" x="662.0982" y="-293.9" font-family="Arial" font-size="14.00" fill="#666666">[numeric(6,2)]</text>
<polygon fill="none" stroke="#000000" points="540,-252.5 540,-282.5 892,-282.5 892,-252.5 540,-252.5"/>
<text text-anchor="start" x="547" y="-263.9" font-family="Arial" font-size="14.00" fill="#000000">copy_owning_lib    </text>
<text text-anchor="start" x="684.6746" y="-263.9" font-family="Arial" font-size="14.00" fill="#666666">[numeric(6,2)]</text>
<polygon fill="none" stroke="#000000" points="540,-222.5 540,-252.5 892,-252.5 892,-222.5 540,-222.5"/>
<text text-anchor="start" x="547" y="-233.9" font-family="Arial" font-size="14.00" fill="#000000">user_home_ou    </text>
<text text-anchor="start" x="674.5694" y="-233.9" font-family="Arial" font-size="14.00" fill="#666666">[numeric(6,2)]</text>
<polygon fill="none" stroke="#000000" points="540,-192.5 540,-222.5 892,-222.5 892,-192.5 540,-192.5"/>
<text text-anchor="start" x="547" y="-203.9" font-family="Arial" font-size="14.00" fill="#000000">ref_flag    </text>
<text text-anchor="start" x="627.8836" y="-203.9" font-family="Arial" font-size="14.00" fill="#666666">[numeric(6,2)]</text>
<polygon fill="none" stroke="#000000" points="540,-162.5 540,-192.5 892,-192.5 892,-162.5 540,-162.5"/>
<text text-anchor="start" x="547" y="-173.9" font-family="Arial" font-size="14.00" fill="#000000">juvenile_flag    </text>
<text text-anchor="start" x="659" y="-173.9" font-family="Arial" font-size="14.00" fill="#666666">[numeric(6,2)]</text>
<polygon fill="none" stroke="#000000" points="540,-132.5 540,-162.5 892,-162.5 892,-132.5 540,-132.5"/>
<text text-anchor="start" x="547" y="-143.9" font-family="Arial" font-size="14.00" fill="#000000">is_renewal    </text>
<text text-anchor="start" x="648.0982" y="-143.9" font-family="Arial" font-size="14.00" fill="#666666">[numeric(6,2)]</text>
<polygon fill="none" stroke="#000000" points="540,-102.5 540,-132.5 892,-132.5 892,-102.5 540,-102.5"/>
<text text-anchor="start" x="547" y="-113.9" font-family="Arial" font-size="14.00" fill="#000000">usr_age_lower_bound    </text>
<text text-anchor="start" x="719.6956" y="-113.9" font-family="Arial" font-size="14.00" fill="#666666">[numeric(6,2)]</text>
<polygon fill="none" stroke="#000000" points="540,-72.5 540,-102.5 892,-102.5 892,-72.5 540,-72.5"/>
<text text-anchor="start" x="547" y="-83.9" font-family="Arial" font-size="14.00" fill="#000000">usr_age_upper_bound    </text>
<text text-anchor="start" x="722.0476" y="-83.9" font-family="Arial" font-size="14.00" fill="#666666">[numeric(6,2)]</text>
<polygon fill="none" stroke="#000000" points="540,-42.5 540,-72.5 892,-72.5 892,-42.5 540,-42.5"/>
<text text-anchor="start" x="547" y="-53.9" font-family="Arial" font-size="14.00" fill="#000000">item_age    </text>
<text text-anchor="start" x="638.7756" y="-53.9" font-family="Arial" font-size="14.00" fill="#666666">[numeric(6,2)]</text>
</g>
<!-- config.weight_assoc&#45;&gt;config.circ_matrix_weights -->
<g id="edge2" class="edge">
<title>config.weight_assoc:circ_weights&#45;&gt;config.circ_matrix_weights:id</title>
<path fill="none" stroke="#000000" d="M876.9322,-815.9787C904.5948,-806.417 891.3239,-754.1487 867,-727 818.2168,-672.5514 588.7832,-745.4486 540,-691 512.2701,-660.0498 498.4444,-597.5 540,-597.5"/>
<polygon fill="#000000" stroke="#000000" points="876.8847,-815.9859 866.3187,-813.0519 871.9424,-816.743 867,-817.5 867,-817.5 867,-817.5 871.9424,-816.743 867.6813,-821.9481 876.8847,-815.9859 876.8847,-815.9859"/>
<text text-anchor="start" x="873.7695" y="-827.5" font-family="Arial" font-size="10.00" fill="#000000">FOREIGN KEY (circ_weights) REFERENCES config.circ_matrix_weights(id) ON DELETE SET NULL DEFERRABLE INITIALLY DEFERRED</text>
</g>
<!-- config.hold_matrix_weights -->
<g id="node4" class="node">
<title>config.hold_matrix_weights</title>
<polygon fill="#efefef" stroke="transparent" points="996,-582.5 996,-617.5 1354,-617.5 1354,-582.5 996,-582.5"/>
<polygon fill="none" stroke="#000000" points="996,-582.5 996,-617.5 1354,-617.5 1354,-582.5 996,-582.5"/>
<text text-anchor="start" x="1002.6967" y="-595.3" font-family="Arial Bold" font-size="18.00" fill="#000000">config.hold_matrix_weights</text>
<text text-anchor="start" x="1219.7353" y="-595.3" font-family="Arial" font-size="14.00" fill="#000000">    </text>
<text text-anchor="start" x="1253.9401" y="-595.3" font-family="Arial" font-size="14.00" fill="#666666">[BASE TABLE]</text>
<polygon fill="none" stroke="#000000" points="996,-552.5 996,-582.5 1354,-582.5 1354,-552.5 996,-552.5"/>
<text text-anchor="start" x="1003" y="-563.9" font-family="Arial" font-size="14.00" fill="#000000">id    </text>
<text text-anchor="start" x="1048.094" y="-563.9" font-family="Arial" font-size="14.00" fill="#666666">[integer]</text>
<polygon fill="none" stroke="#000000" points="996,-522.5 996,-552.5 1354,-552.5 1354,-522.5 996,-522.5"/>
<text text-anchor="start" x="1003" y="-533.9" font-family="Arial" font-size="14.00" fill="#000000">name    </text>
<text text-anchor="start" x="1072.2132" y="-533.9" font-family="Arial" font-size="14.00" fill="#666666">[text]</text>
<polygon fill="none" stroke="#000000" points="996,-492.5 996,-522.5 1354,-522.5 1354,-492.5 996,-492.5"/>
<text text-anchor="start" x="1003" y="-503.9" font-family="Arial" font-size="14.00" fill="#000000">user_home_ou    </text>
<text text-anchor="start" x="1130.5694" y="-503.9" font-family="Arial" font-size="14.00" fill="#666666">[numeric(6,2)]</text>
<polygon fill="none" stroke="#000000" points="996,-462.5 996,-492.5 1354,-492.5 1354,-462.5 996,-462.5"/>
<text text-anchor="start" x="1003" y="-473.9" font-family="Arial" font-size="14.00" fill="#000000">request_ou    </text>
<text text-anchor="start" x="1107.2342" y="-473.9" font-family="Arial" font-size="14.00" fill="#666666">[numeric(6,2)]</text>
<polygon fill="none" stroke="#000000" points="996,-432.5 996,-462.5 1354,-462.5 1354,-432.5 996,-432.5"/>
<text text-anchor="start" x="1003" y="-443.9" font-family="Arial" font-size="14.00" fill="#000000">pickup_ou    </text>
<text text-anchor="start" x="1101.007" y="-443.9" font-family="Arial" font-size="14.00" fill="#666666">[numeric(6,2)]</text>
<polygon fill="none" stroke="#000000" points="996,-402.5 996,-432.5 1354,-432.5 1354,-402.5 996,-402.5"/>
<text text-anchor="start" x="1003" y="-413.9" font-family="Arial" font-size="14.00" fill="#000000">item_owning_ou    </text>
<text text-anchor="start" x="1139.1192" y="-413.9" font-family="Arial" font-size="14.00" fill="#666666">[numeric(6,2)]</text>
<polygon fill="none" stroke="#000000" points="996,-372.5 996,-402.5 1354,-402.5 1354,-372.5 996,-372.5"/>
<text text-anchor="start" x="1003" y="-383.9" font-family="Arial" font-size="14.00" fill="#000000">item_circ_ou    </text>
<text text-anchor="start" x="1116.5428" y="-383.9" font-family="Arial" font-size="14.00" fill="#666666">[numeric(6,2)]</text>
<polygon fill="none" stroke="#000000" points="996,-342.5 996,-372.5 1354,-372.5 1354,-342.5 996,-342.5"/>
<text text-anchor="start" x="1003" y="-353.9" font-family="Arial" font-size="14.00" fill="#000000">usr_grp    </text>
<text text-anchor="start" x="1084.6564" y="-353.9" font-family="Arial" font-size="14.00" fill="#666666">[numeric(6,2)]</text>
<polygon fill="none" stroke="#000000" points="996,-312.5 996,-342.5 1354,-342.5 1354,-312.5 996,-312.5"/>
<text text-anchor="start" x="1003" y="-323.9" font-family="Arial" font-size="14.00" fill="#000000">requestor_grp    </text>
<text text-anchor="start" x="1124.338" y="-323.9" font-family="Arial" font-size="14.00" fill="#666666">[numeric(6,2)]</text>
<polygon fill="none" stroke="#000000" points="996,-282.5 996,-312.5 1354,-312.5 1354,-282.5 996,-282.5"/>
<text text-anchor="start" x="1003" y="-293.9" font-family="Arial" font-size="14.00" fill="#000000">circ_modifier    </text>
<text text-anchor="start" x="1116.5274" y="-293.9" font-family="Arial" font-size="14.00" fill="#666666">[numeric(6,2)]</text>
<polygon fill="none" stroke="#000000" points="996,-252.5 996,-282.5 1354,-282.5 1354,-252.5 996,-252.5"/>
<text text-anchor="start" x="1003" y="-263.9" font-family="Arial" font-size="14.00" fill="#000000">marc_type    </text>
<text text-anchor="start" x="1102.547" y="-263.9" font-family="Arial" font-size="14.00" fill="#666666">[numeric(6,2)]</text>
<polygon fill="none" stroke="#000000" points="996,-222.5 996,-252.5 1354,-252.5 1354,-222.5 996,-222.5"/>
<text text-anchor="start" x="1003" y="-233.9" font-family="Arial" font-size="14.00" fill="#000000">marc_form    </text>
<text text-anchor="start" x="1104.0856" y="-233.9" font-family="Arial" font-size="14.00" fill="#666666">[numeric(6,2)]</text>
<polygon fill="none" stroke="#000000" points="996,-192.5 996,-222.5 1354,-222.5 1354,-192.5 996,-192.5"/>
<text text-anchor="start" x="1003" y="-203.9" font-family="Arial" font-size="14.00" fill="#000000">marc_bib_level    </text>
<text text-anchor="start" x="1131.324" y="-203.9" font-family="Arial" font-size="14.00" fill="#666666">[numeric(6,2)]</text>
<polygon fill="none" stroke="#000000" points="996,-162.5 996,-192.5 1354,-192.5 1354,-162.5 996,-162.5"/>
<text text-anchor="start" x="1003" y="-173.9" font-family="Arial" font-size="14.00" fill="#000000">marc_vr_format    </text>
<text text-anchor="start" x="1135.202" y="-173.9" font-family="Arial" font-size="14.00" fill="#666666">[numeric(6,2)]</text>
<polygon fill="none" stroke="#000000" points="996,-132.5 996,-162.5 1354,-162.5 1354,-132.5 996,-132.5"/>
<text text-anchor="start" x="1003" y="-143.9" font-family="Arial" font-size="14.00" fill="#000000">juvenile_flag    </text>
<text text-anchor="start" x="1115" y="-143.9" font-family="Arial" font-size="14.00" fill="#666666">[numeric(6,2)]</text>
<polygon fill="none" stroke="#000000" points="996,-102.5 996,-132.5 1354,-132.5 1354,-102.5 996,-102.5"/>
<text text-anchor="start" x="1003" y="-113.9" font-family="Arial" font-size="14.00" fill="#000000">ref_flag    </text>
<text text-anchor="start" x="1083.8836" y="-113.9" font-family="Arial" font-size="14.00" fill="#666666">[numeric(6,2)]</text>
<polygon fill="none" stroke="#000000" points="996,-72.5 996,-102.5 1354,-102.5 1354,-72.5 996,-72.5"/>
<text text-anchor="start" x="1003" y="-83.9" font-family="Arial" font-size="14.00" fill="#000000">item_age    </text>
<text text-anchor="start" x="1094.7756" y="-83.9" font-family="Arial" font-size="14.00" fill="#666666">[numeric(6,2)]</text>
</g>
<!-- config.weight_assoc&#45;&gt;config.hold_matrix_weights -->
<g id="edge3" class="edge">
<title>config.weight_assoc:hold_weights&#45;&gt;config.hold_matrix_weights:id</title>
<path fill="none" stroke="#000000" d="M877.1549,-786.8625C921.2363,-780.9584 917.8391,-735.0415 944,-691 974.4153,-639.7962 936.444,-567.5 996,-567.5"/>
<polygon fill="#000000" stroke="#000000" points="876.9804,-786.8734 866.718,-783.0088 871.9902,-787.1867 867,-787.5 867,-787.5 867,-787.5 871.9902,-787.1867 867.282,-791.9912 876.9804,-786.8734 876.9804,-786.8734"/>
<text text-anchor="start" x="874.4215" y="-797.5" font-family="Arial" font-size="10.00" fill="#000000">FOREIGN KEY (hold_weights) REFERENCES config.hold_matrix_weights(id) ON DELETE SET NULL DEFERRABLE INITIALLY DEFERRED</text>
</g>
</g>
</svg>
