<?xml version="1.0" encoding="UTF-8" standalone="no"?>
<!DOCTYPE svg PUBLIC "-//W3C//DTD SVG 1.1//EN"
 "http://www.w3.org/Graphics/SVG/1.1/DTD/svg11.dtd">
<!-- Generated by graphviz version 2.40.1 (20161225.0304)
 -->
<!-- Title: config.upgrade_log Pages: 1 -->
<svg width="394pt" height="225pt"
 viewBox="0.00 0.00 394.00 225.00" xmlns="http://www.w3.org/2000/svg" xmlns:xlink="http://www.w3.org/1999/xlink">
<g id="graph0" class="graph" transform="scale(1 1) rotate(0) translate(4 221)">
<title>config.upgrade_log</title>
<polygon fill="#ffffff" stroke="transparent" points="-4,4 -4,-221 390,-221 390,4 -4,4"/>
<!-- config.upgrade_log -->
<g id="node1" class="node">
<title>config.upgrade_log</title>
<polygon fill="#efefef" stroke="transparent" points="46,-135.5 46,-170.5 340,-170.5 340,-135.5 46,-135.5"/>
<polygon fill="none" stroke="#000000" points="46,-135.5 46,-170.5 340,-170.5 340,-135.5 46,-135.5"/>
<text text-anchor="start" x="52.6863" y="-148.3" font-family="Arial Bold" font-size="18.00" fill="#000000">config.upgrade_log</text>
<text text-anchor="start" x="205.7457" y="-148.3" font-family="Arial" font-size="14.00" fill="#000000">    </text>
<text text-anchor="start" x="239.9505" y="-148.3" font-family="Arial" font-size="14.00" fill="#666666">[BASE TABLE]</text>
<polygon fill="none" stroke="#000000" points="46,-105.5 46,-135.5 340,-135.5 340,-105.5 46,-105.5"/>
<text text-anchor="start" x="53" y="-116.9" font-family="Arial" font-size="14.00" fill="#000000">version </text>
<text text-anchor="start" x="102.0056" y="-116.9" font-family="Arial" font-size="14.00" fill="#666666">[text]</text>
<polygon fill="none" stroke="#000000" points="46,-75.5 46,-105.5 340,-105.5 340,-75.5 46,-75.5"/>
<text text-anchor="start" x="53" y="-86.9" font-family="Arial" font-size="14.00" fill="#000000">install_date </text>
<text text-anchor="start" x="127.6872" y="-86.9" font-family="Arial" font-size="14.00" fill="#666666">[timestamp with time zone]</text>
<polygon fill="none" stroke="#000000" points="46,-45.5 46,-75.5 340,-75.5 340,-45.5 46,-45.5"/>
<text text-anchor="start" x="53" y="-56.9" font-family="Arial" font-size="14.00" fill="#000000">applied_to </text>
<text text-anchor="start" x="121.4726" y="-56.9" font-family="Arial" font-size="14.00" fill="#666666">[text]</text>
<polygon fill="none" stroke="#000000" stroke-width="3" points="44.5,-44.5 44.5,-172.5 341.5,-172.5 341.5,-44.5 44.5,-44.5"/>
</g>
</g>
</svg>
