<?xml version="1.0" encoding="UTF-8" standalone="no"?>
<!DOCTYPE svg PUBLIC "-//W3C//DTD SVG 1.1//EN"
 "http://www.w3.org/Graphics/SVG/1.1/DTD/svg11.dtd">
<!-- Generated by graphviz version 2.40.1 (20161225.0304)
 -->
<!-- Title: config.marc21_rec_type_map Pages: 1 -->
<svg width="478pt" height="225pt"
 viewBox="0.00 0.00 478.00 225.00" xmlns="http://www.w3.org/2000/svg" xmlns:xlink="http://www.w3.org/1999/xlink">
<g id="graph0" class="graph" transform="scale(1 1) rotate(0) translate(4 221)">
<title>config.marc21_rec_type_map</title>
<polygon fill="#ffffff" stroke="transparent" points="-4,4 -4,-221 474,-221 474,4 -4,4"/>
<!-- config.marc21_rec_type_map -->
<g id="node1" class="node">
<title>config.marc21_rec_type_map</title>
<polygon fill="#efefef" stroke="transparent" points="46,-135.5 46,-170.5 424,-170.5 424,-135.5 46,-135.5"/>
<polygon fill="none" stroke="#000000" points="46,-135.5 46,-170.5 424,-170.5 424,-135.5 46,-135.5"/>
<text text-anchor="start" x="52.6878" y="-148.3" font-family="Arial Bold" font-size="18.00" fill="#000000">config.marc21_rec_type_map</text>
<text text-anchor="start" x="289.7442" y="-148.3" font-family="Arial" font-size="14.00" fill="#000000">    </text>
<text text-anchor="start" x="323.949" y="-148.3" font-family="Arial" font-size="14.00" fill="#666666">[BASE TABLE]</text>
<polygon fill="none" stroke="#000000" points="46,-105.5 46,-135.5 424,-135.5 424,-105.5 46,-105.5"/>
<text text-anchor="start" x="53" y="-116.9" font-family="Arial" font-size="14.00" fill="#000000">code </text>
<text text-anchor="start" x="87.2384" y="-116.9" font-family="Arial" font-size="14.00" fill="#666666">[text]</text>
<polygon fill="none" stroke="#000000" points="46,-75.5 46,-105.5 424,-105.5 424,-75.5 46,-75.5"/>
<text text-anchor="start" x="53" y="-86.9" font-family="Arial" font-size="14.00" fill="#000000">type_val </text>
<text text-anchor="start" x="109.0182" y="-86.9" font-family="Arial" font-size="14.00" fill="#666666">[text]</text>
<polygon fill="none" stroke="#000000" points="46,-45.5 46,-75.5 424,-75.5 424,-45.5 46,-45.5"/>
<text text-anchor="start" x="53" y="-56.9" font-family="Arial" font-size="14.00" fill="#000000">blvl_val </text>
<text text-anchor="start" x="103.5582" y="-56.9" font-family="Arial" font-size="14.00" fill="#666666">[text]</text>
<polygon fill="none" stroke="#000000" stroke-width="3" points="44.5,-44.5 44.5,-172.5 425.5,-172.5 425.5,-44.5 44.5,-44.5"/>
</g>
</g>
</svg>
