<?xml version="1.0" encoding="UTF-8" standalone="no"?>
<!DOCTYPE svg PUBLIC "-//W3C//DTD SVG 1.1//EN"
 "http://www.w3.org/Graphics/SVG/1.1/DTD/svg11.dtd">
<!-- Generated by graphviz version 2.40.1 (20161225.0304)
 -->
<!-- Title: config.rule_recurring_fine Pages: 1 -->
<svg width="983pt" height="1402pt"
 viewBox="0.00 0.00 982.50 1402.00" xmlns="http://www.w3.org/2000/svg" xmlns:xlink="http://www.w3.org/1999/xlink">
<g id="graph0" class="graph" transform="scale(1 1) rotate(0) translate(4 1398)">
<title>config.rule_recurring_fine</title>
<polygon fill="#ffffff" stroke="transparent" points="-4,4 -4,-1398 978.5,-1398 978.5,4 -4,4"/>
<!-- config.rule_recurring_fine -->
<g id="node1" class="node">
<title>config.rule_recurring_fine</title>
<polygon fill="#efefef" stroke="transparent" points="61.5,-255.5 61.5,-290.5 405.5,-290.5 405.5,-255.5 61.5,-255.5"/>
<polygon fill="none" stroke="#000000" points="61.5,-255.5 61.5,-290.5 405.5,-290.5 405.5,-255.5 61.5,-255.5"/>
<text text-anchor="start" x="68.1996" y="-268.3" font-family="Arial Bold" font-size="18.00" fill="#000000">config.rule_recurring_fine</text>
<text text-anchor="start" x="271.2324" y="-268.3" font-family="Arial" font-size="14.00" fill="#000000">    </text>
<text text-anchor="start" x="305.4372" y="-268.3" font-family="Arial" font-size="14.00" fill="#666666">[BASE TABLE]</text>
<polygon fill="none" stroke="#000000" points="61.5,-225.5 61.5,-255.5 405.5,-255.5 405.5,-225.5 61.5,-225.5"/>
<text text-anchor="start" x="68.5" y="-236.9" font-family="Arial" font-size="14.00" fill="#000000">id </text>
<text text-anchor="start" x="83.2798" y="-236.9" font-family="Arial" font-size="14.00" fill="#666666">[integer]</text>
<polygon fill="none" stroke="#000000" points="61.5,-195.5 61.5,-225.5 405.5,-225.5 405.5,-195.5 61.5,-195.5"/>
<text text-anchor="start" x="68.5" y="-206.9" font-family="Arial" font-size="14.00" fill="#000000">name </text>
<text text-anchor="start" x="107.399" y="-206.9" font-family="Arial" font-size="14.00" fill="#666666">[text]</text>
<polygon fill="none" stroke="#000000" points="61.5,-165.5 61.5,-195.5 405.5,-195.5 405.5,-165.5 61.5,-165.5"/>
<text text-anchor="start" x="68.5" y="-176.9" font-family="Arial" font-size="14.00" fill="#000000">high </text>
<text text-anchor="start" x="98.845" y="-176.9" font-family="Arial" font-size="14.00" fill="#666666">[numeric(6,2)]</text>
<polygon fill="none" stroke="#000000" points="61.5,-135.5 61.5,-165.5 405.5,-165.5 405.5,-135.5 61.5,-135.5"/>
<text text-anchor="start" x="68.5" y="-146.9" font-family="Arial" font-size="14.00" fill="#000000">normal </text>
<text text-anchor="start" x="115.1662" y="-146.9" font-family="Arial" font-size="14.00" fill="#666666">[numeric(6,2)]</text>
<polygon fill="none" stroke="#000000" points="61.5,-105.5 61.5,-135.5 405.5,-135.5 405.5,-105.5 61.5,-105.5"/>
<text text-anchor="start" x="68.5" y="-116.9" font-family="Arial" font-size="14.00" fill="#000000">low </text>
<text text-anchor="start" x="93.3864" y="-116.9" font-family="Arial" font-size="14.00" fill="#666666">[numeric(6,2)]</text>
<polygon fill="none" stroke="#000000" points="61.5,-75.5 61.5,-105.5 405.5,-105.5 405.5,-75.5 61.5,-75.5"/>
<text text-anchor="start" x="68.5" y="-86.9" font-family="Arial" font-size="14.00" fill="#000000">recurrence_interval </text>
<text text-anchor="start" x="192.1802" y="-86.9" font-family="Arial" font-size="14.00" fill="#666666">[interval]</text>
<polygon fill="none" stroke="#000000" points="61.5,-45.5 61.5,-75.5 405.5,-75.5 405.5,-45.5 61.5,-45.5"/>
<text text-anchor="start" x="68.5" y="-56.9" font-family="Arial" font-size="14.00" fill="#000000">grace_period </text>
<text text-anchor="start" x="154.0792" y="-56.9" font-family="Arial" font-size="14.00" fill="#666666">[interval]</text>
<polygon fill="none" stroke="#000000" stroke-width="3" points="60,-44.5 60,-292.5 407,-292.5 407,-44.5 60,-44.5"/>
</g>
<!-- config.circ_matrix_matchpoint -->
<g id="node2" class="node">
<title>config.circ_matrix_matchpoint</title>
<polygon fill="#efefef" stroke="transparent" points="43.5,-1315.5 43.5,-1350.5 422.5,-1350.5 422.5,-1315.5 43.5,-1315.5"/>
<polygon fill="none" stroke="#000000" points="43.5,-1315.5 43.5,-1350.5 422.5,-1350.5 422.5,-1315.5 43.5,-1315.5"/>
<text text-anchor="start" x="50.2036" y="-1328.3" font-family="Arial Bold" font-size="18.00" fill="#000000">config.circ_matrix_matchpoint</text>
<text text-anchor="start" x="288.2284" y="-1328.3" font-family="Arial" font-size="14.00" fill="#000000">    </text>
<text text-anchor="start" x="322.4332" y="-1328.3" font-family="Arial" font-size="14.00" fill="#666666">[BASE TABLE]</text>
<polygon fill="none" stroke="#000000" points="43.5,-1285.5 43.5,-1315.5 422.5,-1315.5 422.5,-1285.5 43.5,-1285.5"/>
<text text-anchor="start" x="50.5" y="-1296.9" font-family="Arial" font-size="14.00" fill="#000000">id    </text>
<text text-anchor="start" x="95.594" y="-1296.9" font-family="Arial" font-size="14.00" fill="#666666">[integer]</text>
<polygon fill="none" stroke="#000000" points="43.5,-1255.5 43.5,-1285.5 422.5,-1285.5 422.5,-1255.5 43.5,-1255.5"/>
<text text-anchor="start" x="50.5" y="-1266.9" font-family="Arial" font-size="14.00" fill="#000000">active    </text>
<text text-anchor="start" x="121.2672" y="-1266.9" font-family="Arial" font-size="14.00" fill="#666666">[boolean]</text>
<polygon fill="none" stroke="#000000" points="43.5,-1225.5 43.5,-1255.5 422.5,-1255.5 422.5,-1225.5 43.5,-1225.5"/>
<text text-anchor="start" x="50.5" y="-1236.9" font-family="Arial" font-size="14.00" fill="#000000">org_unit    </text>
<text text-anchor="start" x="135.2756" y="-1236.9" font-family="Arial" font-size="14.00" fill="#666666">[integer]</text>
<polygon fill="none" stroke="#000000" points="43.5,-1195.5 43.5,-1225.5 422.5,-1225.5 422.5,-1195.5 43.5,-1195.5"/>
<text text-anchor="start" x="50.5" y="-1206.9" font-family="Arial" font-size="14.00" fill="#000000">grp    </text>
<text text-anchor="start" x="104.9306" y="-1206.9" font-family="Arial" font-size="14.00" fill="#666666">[integer]</text>
<polygon fill="none" stroke="#000000" points="43.5,-1165.5 43.5,-1195.5 422.5,-1195.5 422.5,-1165.5 43.5,-1165.5"/>
<text text-anchor="start" x="50.5" y="-1176.9" font-family="Arial" font-size="14.00" fill="#000000">circ_modifier    </text>
<text text-anchor="start" x="164.0274" y="-1176.9" font-family="Arial" font-size="14.00" fill="#666666">[text]</text>
<polygon fill="none" stroke="#000000" points="43.5,-1135.5 43.5,-1165.5 422.5,-1165.5 422.5,-1135.5 43.5,-1135.5"/>
<text text-anchor="start" x="50.5" y="-1146.9" font-family="Arial" font-size="14.00" fill="#000000">copy_location    </text>
<text text-anchor="start" x="170.2868" y="-1146.9" font-family="Arial" font-size="14.00" fill="#666666">[integer]</text>
<polygon fill="none" stroke="#000000" points="43.5,-1105.5 43.5,-1135.5 422.5,-1135.5 422.5,-1105.5 43.5,-1105.5"/>
<text text-anchor="start" x="50.5" y="-1116.9" font-family="Arial" font-size="14.00" fill="#000000">marc_type    </text>
<text text-anchor="start" x="150.047" y="-1116.9" font-family="Arial" font-size="14.00" fill="#666666">[text]</text>
<polygon fill="none" stroke="#000000" points="43.5,-1075.5 43.5,-1105.5 422.5,-1105.5 422.5,-1075.5 43.5,-1075.5"/>
<text text-anchor="start" x="50.5" y="-1086.9" font-family="Arial" font-size="14.00" fill="#000000">marc_form    </text>
<text text-anchor="start" x="151.5856" y="-1086.9" font-family="Arial" font-size="14.00" fill="#666666">[text]</text>
<polygon fill="none" stroke="#000000" points="43.5,-1045.5 43.5,-1075.5 422.5,-1075.5 422.5,-1045.5 43.5,-1045.5"/>
<text text-anchor="start" x="50.5" y="-1056.9" font-family="Arial" font-size="14.00" fill="#000000">marc_bib_level    </text>
<text text-anchor="start" x="178.824" y="-1056.9" font-family="Arial" font-size="14.00" fill="#666666">[text]</text>
<polygon fill="none" stroke="#000000" points="43.5,-1015.5 43.5,-1045.5 422.5,-1045.5 422.5,-1015.5 43.5,-1015.5"/>
<text text-anchor="start" x="50.5" y="-1026.9" font-family="Arial" font-size="14.00" fill="#000000">marc_vr_format    </text>
<text text-anchor="start" x="182.702" y="-1026.9" font-family="Arial" font-size="14.00" fill="#666666">[text]</text>
<polygon fill="none" stroke="#000000" points="43.5,-985.5 43.5,-1015.5 422.5,-1015.5 422.5,-985.5 43.5,-985.5"/>
<text text-anchor="start" x="50.5" y="-996.9" font-family="Arial" font-size="14.00" fill="#000000">copy_circ_lib    </text>
<text text-anchor="start" x="165.5982" y="-996.9" font-family="Arial" font-size="14.00" fill="#666666">[integer]</text>
<polygon fill="none" stroke="#000000" points="43.5,-955.5 43.5,-985.5 422.5,-985.5 422.5,-955.5 43.5,-955.5"/>
<text text-anchor="start" x="50.5" y="-966.9" font-family="Arial" font-size="14.00" fill="#000000">copy_owning_lib    </text>
<text text-anchor="start" x="188.1746" y="-966.9" font-family="Arial" font-size="14.00" fill="#666666">[integer]</text>
<polygon fill="none" stroke="#000000" points="43.5,-925.5 43.5,-955.5 422.5,-955.5 422.5,-925.5 43.5,-925.5"/>
<text text-anchor="start" x="50.5" y="-936.9" font-family="Arial" font-size="14.00" fill="#000000">user_home_ou    </text>
<text text-anchor="start" x="178.0694" y="-936.9" font-family="Arial" font-size="14.00" fill="#666666">[integer]</text>
<polygon fill="none" stroke="#000000" points="43.5,-895.5 43.5,-925.5 422.5,-925.5 422.5,-895.5 43.5,-895.5"/>
<text text-anchor="start" x="50.5" y="-906.9" font-family="Arial" font-size="14.00" fill="#000000">ref_flag    </text>
<text text-anchor="start" x="131.3836" y="-906.9" font-family="Arial" font-size="14.00" fill="#666666">[boolean]</text>
<polygon fill="none" stroke="#000000" points="43.5,-865.5 43.5,-895.5 422.5,-895.5 422.5,-865.5 43.5,-865.5"/>
<text text-anchor="start" x="50.5" y="-876.9" font-family="Arial" font-size="14.00" fill="#000000">juvenile_flag    </text>
<text text-anchor="start" x="162.5" y="-876.9" font-family="Arial" font-size="14.00" fill="#666666">[boolean]</text>
<polygon fill="none" stroke="#000000" points="43.5,-835.5 43.5,-865.5 422.5,-865.5 422.5,-835.5 43.5,-835.5"/>
<text text-anchor="start" x="50.5" y="-846.9" font-family="Arial" font-size="14.00" fill="#000000">is_renewal    </text>
<text text-anchor="start" x="151.5982" y="-846.9" font-family="Arial" font-size="14.00" fill="#666666">[boolean]</text>
<polygon fill="none" stroke="#000000" points="43.5,-805.5 43.5,-835.5 422.5,-835.5 422.5,-805.5 43.5,-805.5"/>
<text text-anchor="start" x="50.5" y="-816.9" font-family="Arial" font-size="14.00" fill="#000000">usr_age_lower_bound    </text>
<text text-anchor="start" x="223.1956" y="-816.9" font-family="Arial" font-size="14.00" fill="#666666">[interval]</text>
<polygon fill="none" stroke="#000000" points="43.5,-775.5 43.5,-805.5 422.5,-805.5 422.5,-775.5 43.5,-775.5"/>
<text text-anchor="start" x="50.5" y="-786.9" font-family="Arial" font-size="14.00" fill="#000000">usr_age_upper_bound    </text>
<text text-anchor="start" x="225.5476" y="-786.9" font-family="Arial" font-size="14.00" fill="#666666">[interval]</text>
<polygon fill="none" stroke="#000000" points="43.5,-745.5 43.5,-775.5 422.5,-775.5 422.5,-745.5 43.5,-745.5"/>
<text text-anchor="start" x="50.5" y="-756.9" font-family="Arial" font-size="14.00" fill="#000000">item_age    </text>
<text text-anchor="start" x="142.2756" y="-756.9" font-family="Arial" font-size="14.00" fill="#666666">[interval]</text>
<polygon fill="none" stroke="#000000" points="43.5,-715.5 43.5,-745.5 422.5,-745.5 422.5,-715.5 43.5,-715.5"/>
<text text-anchor="start" x="50.5" y="-726.9" font-family="Arial" font-size="14.00" fill="#000000">circulate    </text>
<text text-anchor="start" x="136.817" y="-726.9" font-family="Arial" font-size="14.00" fill="#666666">[boolean]</text>
<polygon fill="none" stroke="#000000" points="43.5,-685.5 43.5,-715.5 422.5,-715.5 422.5,-685.5 43.5,-685.5"/>
<text text-anchor="start" x="50.5" y="-696.9" font-family="Arial" font-size="14.00" fill="#000000">duration_rule    </text>
<text text-anchor="start" x="166.3906" y="-696.9" font-family="Arial" font-size="14.00" fill="#666666">[integer]</text>
<polygon fill="none" stroke="#000000" points="43.5,-655.5 43.5,-685.5 422.5,-685.5 422.5,-655.5 43.5,-655.5"/>
<text text-anchor="start" x="50.5" y="-666.9" font-family="Arial" font-size="14.00" fill="#000000">recurring_fine_rule    </text>
<text text-anchor="start" x="201.3836" y="-666.9" font-family="Arial" font-size="14.00" fill="#666666">[integer]</text>
<polygon fill="none" stroke="#000000" points="43.5,-625.5 43.5,-655.5 422.5,-655.5 422.5,-625.5 43.5,-625.5"/>
<text text-anchor="start" x="50.5" y="-636.9" font-family="Arial" font-size="14.00" fill="#000000">max_fine_rule    </text>
<text text-anchor="start" x="172.608" y="-636.9" font-family="Arial" font-size="14.00" fill="#666666">[integer]</text>
<polygon fill="none" stroke="#000000" points="43.5,-595.5 43.5,-625.5 422.5,-625.5 422.5,-595.5 43.5,-595.5"/>
<text text-anchor="start" x="50.5" y="-606.9" font-family="Arial" font-size="14.00" fill="#000000">hard_due_date    </text>
<text text-anchor="start" x="178.8646" y="-606.9" font-family="Arial" font-size="14.00" fill="#666666">[integer]</text>
<polygon fill="none" stroke="#000000" points="43.5,-565.5 43.5,-595.5 422.5,-595.5 422.5,-565.5 43.5,-565.5"/>
<text text-anchor="start" x="50.5" y="-576.9" font-family="Arial" font-size="14.00" fill="#000000">renewals    </text>
<text text-anchor="start" x="140.709" y="-576.9" font-family="Arial" font-size="14.00" fill="#666666">[integer]</text>
<polygon fill="none" stroke="#000000" points="43.5,-535.5 43.5,-565.5 422.5,-565.5 422.5,-535.5 43.5,-535.5"/>
<text text-anchor="start" x="50.5" y="-546.9" font-family="Arial" font-size="14.00" fill="#000000">grace_period    </text>
<text text-anchor="start" x="166.3934" y="-546.9" font-family="Arial" font-size="14.00" fill="#666666">[interval]</text>
<polygon fill="none" stroke="#000000" points="43.5,-505.5 43.5,-535.5 422.5,-535.5 422.5,-505.5 43.5,-505.5"/>
<text text-anchor="start" x="50.5" y="-516.9" font-family="Arial" font-size="14.00" fill="#000000">script_test    </text>
<text text-anchor="start" x="148.4916" y="-516.9" font-family="Arial" font-size="14.00" fill="#666666">[text]</text>
<polygon fill="none" stroke="#000000" points="43.5,-475.5 43.5,-505.5 422.5,-505.5 422.5,-475.5 43.5,-475.5"/>
<text text-anchor="start" x="50.5" y="-486.9" font-family="Arial" font-size="14.00" fill="#000000">total_copy_hold_ratio    </text>
<text text-anchor="start" x="217.7482" y="-486.9" font-family="Arial" font-size="14.00" fill="#666666">[double precision]</text>
<polygon fill="none" stroke="#000000" points="43.5,-445.5 43.5,-475.5 422.5,-475.5 422.5,-445.5 43.5,-445.5"/>
<text text-anchor="start" x="50.5" y="-456.9" font-family="Arial" font-size="14.00" fill="#000000">available_copy_hold_ratio    </text>
<text text-anchor="start" x="246.528" y="-456.9" font-family="Arial" font-size="14.00" fill="#666666">[double precision]</text>
<polygon fill="none" stroke="#000000" points="43.5,-415.5 43.5,-445.5 422.5,-445.5 422.5,-415.5 43.5,-415.5"/>
<text text-anchor="start" x="50.5" y="-426.9" font-family="Arial" font-size="14.00" fill="#000000">description    </text>
<text text-anchor="start" x="152.3822" y="-426.9" font-family="Arial" font-size="14.00" fill="#666666">[text]</text>
</g>
<!-- config.circ_matrix_matchpoint&#45;&gt;config.rule_recurring_fine -->
<g id="edge1" class="edge">
<title>config.circ_matrix_matchpoint:recurring_fine_rule&#45;&gt;config.rule_recurring_fine:id</title>
<path fill="none" stroke="#000000" d="M432.5688,-668.3438C486.1653,-643.9182 464.4413,-419.3318 422.5,-373 368.3953,-313.2314 115.6047,-396.7686 61.5,-337 32.717,-305.2039 18.6111,-240.5 61.5,-240.5"/>
<polygon fill="#000000" stroke="#000000" points="432.2783,-668.4059 421.5577,-666.0998 427.3892,-669.453 422.5,-670.5 422.5,-670.5 422.5,-670.5 427.3892,-669.453 423.4423,-674.9002 432.2783,-668.4059 432.2783,-668.4059"/>
<text text-anchor="start" x="429.321" y="-680.5" font-family="Arial" font-size="10.00" fill="#000000">FOREIGN KEY (recurring_fine_rule) REFERENCES config.rule_recurring_fine(id) DEFERRABLE INITIALLY DEFERRED</text>
</g>
</g>
</svg>
