<?xml version="1.0" encoding="UTF-8" standalone="no"?>
<!DOCTYPE svg PUBLIC "-//W3C//DTD SVG 1.1//EN"
 "http://www.w3.org/Graphics/SVG/1.1/DTD/svg11.dtd">
<!-- Generated by graphviz version 2.40.1 (20161225.0304)
 -->
<!-- Title: config.org_unit_setting_type Pages: 1 -->
<svg width="1530pt" height="959pt"
 viewBox="0.00 0.00 1530.00 959.00" xmlns="http://www.w3.org/2000/svg" xmlns:xlink="http://www.w3.org/1999/xlink">
<g id="graph0" class="graph" transform="scale(1 1) rotate(0) translate(4 955)">
<title>config.org_unit_setting_type</title>
<polygon fill="#ffffff" stroke="transparent" points="-4,4 -4,-955 1526,-955 1526,4 -4,4"/>
<!-- config.org_unit_setting_type -->
<g id="node1" class="node">
<title>config.org_unit_setting_type</title>
<polygon fill="#efefef" stroke="transparent" points="436,-532.5 436,-567.5 802,-567.5 802,-532.5 436,-532.5"/>
<polygon fill="none" stroke="#000000" points="436,-532.5 436,-567.5 802,-567.5 802,-532.5 436,-532.5"/>
<text text-anchor="start" x="442.6755" y="-545.3" font-family="Arial Bold" font-size="18.00" fill="#000000">config.org_unit_setting_type</text>
<text text-anchor="start" x="667.7565" y="-545.3" font-family="Arial" font-size="14.00" fill="#000000">    </text>
<text text-anchor="start" x="701.9613" y="-545.3" font-family="Arial" font-size="14.00" fill="#666666">[BASE TABLE]</text>
<polygon fill="none" stroke="#000000" points="436,-502.5 436,-532.5 802,-532.5 802,-502.5 436,-502.5"/>
<text text-anchor="start" x="443" y="-513.9" font-family="Arial" font-size="14.00" fill="#000000">name </text>
<text text-anchor="start" x="481.899" y="-513.9" font-family="Arial" font-size="14.00" fill="#666666">[text]</text>
<polygon fill="none" stroke="#000000" points="436,-472.5 436,-502.5 802,-502.5 802,-472.5 436,-472.5"/>
<text text-anchor="start" x="443" y="-483.9" font-family="Arial" font-size="14.00" fill="#000000">label </text>
<text text-anchor="start" x="476.4516" y="-483.9" font-family="Arial" font-size="14.00" fill="#666666">[text]</text>
<polygon fill="none" stroke="#000000" points="436,-442.5 436,-472.5 802,-472.5 802,-442.5 436,-442.5"/>
<text text-anchor="start" x="443" y="-453.9" font-family="Arial" font-size="14.00" fill="#000000">grp </text>
<text text-anchor="start" x="467.1164" y="-453.9" font-family="Arial" font-size="14.00" fill="#666666">[text]</text>
<polygon fill="none" stroke="#000000" points="436,-412.5 436,-442.5 802,-442.5 802,-412.5 436,-412.5"/>
<text text-anchor="start" x="443" y="-423.9" font-family="Arial" font-size="14.00" fill="#000000">description </text>
<text text-anchor="start" x="514.568" y="-423.9" font-family="Arial" font-size="14.00" fill="#666666">[text]</text>
<polygon fill="none" stroke="#000000" points="436,-382.5 436,-412.5 802,-412.5 802,-382.5 436,-382.5"/>
<text text-anchor="start" x="443" y="-393.9" font-family="Arial" font-size="14.00" fill="#000000">datatype </text>
<text text-anchor="start" x="500.5848" y="-393.9" font-family="Arial" font-size="14.00" fill="#666666">[text]</text>
<polygon fill="none" stroke="#000000" points="436,-352.5 436,-382.5 802,-382.5 802,-352.5 436,-352.5"/>
<text text-anchor="start" x="443" y="-363.9" font-family="Arial" font-size="14.00" fill="#000000">fm_class </text>
<text text-anchor="start" x="502.1136" y="-363.9" font-family="Arial" font-size="14.00" fill="#666666">[text]</text>
<polygon fill="none" stroke="#000000" points="436,-322.5 436,-352.5 802,-352.5 802,-322.5 436,-322.5"/>
<text text-anchor="start" x="443" y="-333.9" font-family="Arial" font-size="14.00" fill="#000000">view_perm </text>
<text text-anchor="start" x="514.5554" y="-333.9" font-family="Arial" font-size="14.00" fill="#666666">[integer]</text>
<polygon fill="none" stroke="#000000" points="436,-292.5 436,-322.5 802,-322.5 802,-292.5 436,-292.5"/>
<text text-anchor="start" x="443" y="-303.9" font-family="Arial" font-size="14.00" fill="#000000">update_perm </text>
<text text-anchor="start" x="529.3632" y="-303.9" font-family="Arial" font-size="14.00" fill="#666666">[integer]</text>
<polygon fill="none" stroke="#000000" stroke-width="3" points="434.5,-291.5 434.5,-569.5 803.5,-569.5 803.5,-291.5 434.5,-291.5"/>
</g>
<!-- config.settings_group -->
<g id="node4" class="node">
<title>config.settings_group</title>
<polygon fill="#efefef" stroke="transparent" points="50,-117.5 50,-152.5 362,-152.5 362,-117.5 50,-117.5"/>
<polygon fill="none" stroke="#000000" points="50,-117.5 50,-152.5 362,-152.5 362,-117.5 50,-117.5"/>
<text text-anchor="start" x="56.6872" y="-130.3" font-family="Arial Bold" font-size="18.00" fill="#000000">config.settings_group</text>
<text text-anchor="start" x="227.7448" y="-130.3" font-family="Arial" font-size="14.00" fill="#000000">    </text>
<text text-anchor="start" x="261.9496" y="-130.3" font-family="Arial" font-size="14.00" fill="#666666">[BASE TABLE]</text>
<polygon fill="none" stroke="#000000" points="50,-87.5 50,-117.5 362,-117.5 362,-87.5 50,-87.5"/>
<text text-anchor="start" x="57" y="-98.9" font-family="Arial" font-size="14.00" fill="#000000">name    </text>
<text text-anchor="start" x="126.2132" y="-98.9" font-family="Arial" font-size="14.00" fill="#666666">[text]</text>
<polygon fill="none" stroke="#000000" points="50,-57.5 50,-87.5 362,-87.5 362,-57.5 50,-57.5"/>
<text text-anchor="start" x="57" y="-68.9" font-family="Arial" font-size="14.00" fill="#000000">label    </text>
<text text-anchor="start" x="120.7658" y="-68.9" font-family="Arial" font-size="14.00" fill="#666666">[text]</text>
</g>
<!-- config.org_unit_setting_type&#45;&gt;config.settings_group -->
<g id="edge3" class="edge">
<title>config.org_unit_setting_type:grp&#45;&gt;config.settings_group:name</title>
<path fill="none" stroke="#000000" d="M426.1251,-455.4152C362.9085,-426.3218 438.9646,-102.5 362,-102.5"/>
<polygon fill="#000000" stroke="#000000" points="426.2157,-455.4343 435.0704,-461.9029 431.1078,-456.4671 436,-457.5 436,-457.5 436,-457.5 431.1078,-456.4671 436.9296,-453.0971 426.2157,-455.4343 426.2157,-455.4343"/>
<text text-anchor="start" x="136.5965" y="-467.5" font-family="Arial" font-size="10.00" fill="#000000">FOREIGN KEY (grp) REFERENCES config.settings_group(name)</text>
</g>
<!-- permission.perm_list -->
<g id="node5" class="node">
<title>permission.perm_list</title>
<polygon fill="#efefef" stroke="transparent" points="466,-132.5 466,-167.5 772,-167.5 772,-132.5 466,-132.5"/>
<polygon fill="none" stroke="#000000" points="466,-132.5 466,-167.5 772,-167.5 772,-132.5 466,-132.5"/>
<text text-anchor="start" x="472.7193" y="-145.3" font-family="Arial Bold" font-size="18.00" fill="#000000">permission.perm_list</text>
<text text-anchor="start" x="637.7127" y="-145.3" font-family="Arial" font-size="14.00" fill="#000000">    </text>
<text text-anchor="start" x="671.9175" y="-145.3" font-family="Arial" font-size="14.00" fill="#666666">[BASE TABLE]</text>
<polygon fill="none" stroke="#000000" points="466,-102.5 466,-132.5 772,-132.5 772,-102.5 466,-102.5"/>
<text text-anchor="start" x="473" y="-113.9" font-family="Arial" font-size="14.00" fill="#000000">id    </text>
<text text-anchor="start" x="518.094" y="-113.9" font-family="Arial" font-size="14.00" fill="#666666">[integer]</text>
<polygon fill="none" stroke="#000000" points="466,-72.5 466,-102.5 772,-102.5 772,-72.5 466,-72.5"/>
<text text-anchor="start" x="473" y="-83.9" font-family="Arial" font-size="14.00" fill="#000000">code    </text>
<text text-anchor="start" x="537.5526" y="-83.9" font-family="Arial" font-size="14.00" fill="#666666">[text]</text>
<polygon fill="none" stroke="#000000" points="466,-42.5 466,-72.5 772,-72.5 772,-42.5 466,-42.5"/>
<text text-anchor="start" x="473" y="-53.9" font-family="Arial" font-size="14.00" fill="#000000">description    </text>
<text text-anchor="start" x="574.8822" y="-53.9" font-family="Arial" font-size="14.00" fill="#666666">[text]</text>
</g>
<!-- config.org_unit_setting_type&#45;&gt;permission.perm_list -->
<g id="edge4" class="edge">
<title>config.org_unit_setting_type:view_perm&#45;&gt;permission.perm_list:id</title>
<path fill="none" stroke="#000000" d="M812.1959,-336.6591C898.425,-321.8888 867.117,-117.5 772,-117.5"/>
<polygon fill="#000000" stroke="#000000" points="811.9662,-336.6779 801.6301,-333.0152 806.9831,-337.089 802,-337.5 802,-337.5 802,-337.5 806.9831,-337.089 802.3699,-341.9848 811.9662,-336.6779 811.9662,-336.6779"/>
<text text-anchor="start" x="808.671" y="-347.5" font-family="Arial" font-size="10.00" fill="#000000">FOREIGN KEY (view_perm) REFERENCES permission.perm_list(id) ON UPDATE CASCADE ON DELETE RESTRICT DEFERRABLE INITIALLY DEFERRED</text>
</g>
<!-- config.org_unit_setting_type&#45;&gt;permission.perm_list -->
<g id="edge5" class="edge">
<title>config.org_unit_setting_type:update_perm&#45;&gt;permission.perm_list:id</title>
<path fill="none" stroke="#000000" d="M619.7889,-282.1747C629.893,-221.1657 734.2798,-273.8307 772,-211 793.3892,-175.3718 813.5556,-117.5 772,-117.5"/>
<polygon fill="#000000" stroke="#000000" points="619.7619,-282.5291 614.5131,-292.1571 619.381,-287.5145 619,-292.5 619,-292.5 619,-292.5 619.381,-287.5145 623.4869,-292.8429 619.7619,-282.5291 619.7619,-282.5291"/>
<text text-anchor="start" x="7.493" y="-302.5" font-family="Arial" font-size="10.00" fill="#000000">FOREIGN KEY (update_perm) REFERENCES permission.perm_list(id) ON UPDATE CASCADE DEFERRABLE INITIALLY DEFERRED</text>
</g>
<!-- actor.org_unit_setting -->
<g id="node2" class="node">
<title>actor.org_unit_setting</title>
<polygon fill="#efefef" stroke="transparent" points="232,-842.5 232,-877.5 546,-877.5 546,-842.5 232,-842.5"/>
<polygon fill="none" stroke="#000000" points="232,-842.5 232,-877.5 546,-877.5 546,-842.5 232,-842.5"/>
<text text-anchor="start" x="238.69" y="-855.3" font-family="Arial Bold" font-size="18.00" fill="#000000">actor.org_unit_setting</text>
<text text-anchor="start" x="411.742" y="-855.3" font-family="Arial" font-size="14.00" fill="#000000">    </text>
<text text-anchor="start" x="445.9468" y="-855.3" font-family="Arial" font-size="14.00" fill="#666666">[BASE TABLE]</text>
<polygon fill="none" stroke="#000000" points="232,-812.5 232,-842.5 546,-842.5 546,-812.5 232,-812.5"/>
<text text-anchor="start" x="239" y="-823.9" font-family="Arial" font-size="14.00" fill="#000000">id    </text>
<text text-anchor="start" x="284.094" y="-823.9" font-family="Arial" font-size="14.00" fill="#666666">[bigint]</text>
<polygon fill="none" stroke="#000000" points="232,-782.5 232,-812.5 546,-812.5 546,-782.5 232,-782.5"/>
<text text-anchor="start" x="239" y="-793.9" font-family="Arial" font-size="14.00" fill="#000000">org_unit    </text>
<text text-anchor="start" x="323.7756" y="-793.9" font-family="Arial" font-size="14.00" fill="#666666">[integer]</text>
<polygon fill="none" stroke="#000000" points="232,-752.5 232,-782.5 546,-782.5 546,-752.5 232,-752.5"/>
<text text-anchor="start" x="239" y="-763.9" font-family="Arial" font-size="14.00" fill="#000000">name    </text>
<text text-anchor="start" x="308.2132" y="-763.9" font-family="Arial" font-size="14.00" fill="#666666">[text]</text>
<polygon fill="none" stroke="#000000" points="232,-722.5 232,-752.5 546,-752.5 546,-722.5 232,-722.5"/>
<text text-anchor="start" x="239" y="-733.9" font-family="Arial" font-size="14.00" fill="#000000">value    </text>
<text text-anchor="start" x="306.6592" y="-733.9" font-family="Arial" font-size="14.00" fill="#666666">[text]</text>
</g>
<!-- actor.org_unit_setting&#45;&gt;config.org_unit_setting_type -->
<g id="edge1" class="edge">
<title>actor.org_unit_setting:name&#45;&gt;config.org_unit_setting_type:name</title>
<path fill="none" stroke="#000000" d="M556.0971,-765.9165C580.8874,-756.805 563.2145,-710.4041 546,-680 517.9094,-630.3866 464.0906,-663.6134 436,-614 414.8687,-576.6781 393.1111,-517.5 436,-517.5"/>
<polygon fill="#000000" stroke="#000000" points="555.8793,-765.9506 545.3028,-763.0543 550.9396,-766.7253 546,-767.5 546,-767.5 546,-767.5 550.9396,-766.7253 546.6972,-771.9457 555.8793,-765.9506 555.8793,-765.9506"/>
<text text-anchor="start" x="30.2505" y="-777.5" font-family="Arial" font-size="10.00" fill="#000000">FOREIGN KEY (name) REFERENCES config.org_unit_setting_type(name) DEFERRABLE INITIALLY DEFERRED</text>
</g>
<!-- config.org_unit_setting_type_log -->
<g id="node3" class="node">
<title>config.org_unit_setting_type_log</title>
<polygon fill="#efefef" stroke="transparent" points="650,-872.5 650,-907.5 1050,-907.5 1050,-872.5 650,-872.5"/>
<polygon fill="none" stroke="#000000" points="650,-872.5 650,-907.5 1050,-907.5 1050,-872.5 650,-872.5"/>
<text text-anchor="start" x="656.6691" y="-885.3" font-family="Arial Bold" font-size="18.00" fill="#000000">config.org_unit_setting_type_log</text>
<text text-anchor="start" x="915.7629" y="-885.3" font-family="Arial" font-size="14.00" fill="#000000">    </text>
<text text-anchor="start" x="949.9677" y="-885.3" font-family="Arial" font-size="14.00" fill="#666666">[BASE TABLE]</text>
<polygon fill="none" stroke="#000000" points="650,-842.5 650,-872.5 1050,-872.5 1050,-842.5 650,-842.5"/>
<text text-anchor="start" x="657" y="-853.9" font-family="Arial" font-size="14.00" fill="#000000">id    </text>
<text text-anchor="start" x="702.094" y="-853.9" font-family="Arial" font-size="14.00" fill="#666666">[bigint]</text>
<polygon fill="none" stroke="#000000" points="650,-812.5 650,-842.5 1050,-842.5 1050,-812.5 650,-812.5"/>
<text text-anchor="start" x="657" y="-823.9" font-family="Arial" font-size="14.00" fill="#000000">date_applied    </text>
<text text-anchor="start" x="771.352" y="-823.9" font-family="Arial" font-size="14.00" fill="#666666">[timestamp with time zone]</text>
<polygon fill="none" stroke="#000000" points="650,-782.5 650,-812.5 1050,-812.5 1050,-782.5 650,-782.5"/>
<text text-anchor="start" x="657" y="-793.9" font-family="Arial" font-size="14.00" fill="#000000">org    </text>
<text text-anchor="start" x="711.4306" y="-793.9" font-family="Arial" font-size="14.00" fill="#666666">[integer]</text>
<polygon fill="none" stroke="#000000" points="650,-752.5 650,-782.5 1050,-782.5 1050,-752.5 650,-752.5"/>
<text text-anchor="start" x="657" y="-763.9" font-family="Arial" font-size="14.00" fill="#000000">original_value    </text>
<text text-anchor="start" x="777.5526" y="-763.9" font-family="Arial" font-size="14.00" fill="#666666">[text]</text>
<polygon fill="none" stroke="#000000" points="650,-722.5 650,-752.5 1050,-752.5 1050,-722.5 650,-722.5"/>
<text text-anchor="start" x="657" y="-733.9" font-family="Arial" font-size="14.00" fill="#000000">new_value    </text>
<text text-anchor="start" x="758.1136" y="-733.9" font-family="Arial" font-size="14.00" fill="#666666">[text]</text>
<polygon fill="none" stroke="#000000" points="650,-692.5 650,-722.5 1050,-722.5 1050,-692.5 650,-692.5"/>
<text text-anchor="start" x="657" y="-703.9" font-family="Arial" font-size="14.00" fill="#000000">field_name    </text>
<text text-anchor="start" x="759.6648" y="-703.9" font-family="Arial" font-size="14.00" fill="#666666">[text]</text>
</g>
<!-- config.org_unit_setting_type_log&#45;&gt;config.org_unit_setting_type -->
<g id="edge2" class="edge">
<title>config.org_unit_setting_type_log:field_name&#45;&gt;config.org_unit_setting_type:name</title>
<path fill="none" stroke="#000000" d="M640.1405,-704.7178C627.7939,-695.6787 636.7487,-666.7563 650,-650 693.0637,-595.5457 758.9363,-668.4543 802,-614 828.6038,-580.3593 844.8889,-517.5 802,-517.5"/>
<polygon fill="#000000" stroke="#000000" points="640.3758,-704.7842 648.7779,-711.8309 645.1879,-706.1421 650,-707.5 650,-707.5 650,-707.5 645.1879,-706.1421 651.2221,-703.1691 640.3758,-704.7842 640.3758,-704.7842"/>
<text text-anchor="start" x="657.3035" y="-717.5" font-family="Arial" font-size="10.00" fill="#000000">FOREIGN KEY (field_name) REFERENCES config.org_unit_setting_type(name) DEFERRABLE INITIALLY DEFERRED</text>
</g>
</g>
</svg>
