<?xml version="1.0" encoding="UTF-8" standalone="no"?>
<!DOCTYPE svg PUBLIC "-//W3C//DTD SVG 1.1//EN"
 "http://www.w3.org/Graphics/SVG/1.1/DTD/svg11.dtd">
<!-- Generated by graphviz version 2.40.1 (20161225.0304)
 -->
<!-- Title: config.carousel_type Pages: 1 -->
<svg width="663pt" height="922pt"
 viewBox="0.00 0.00 662.50 922.00" xmlns="http://www.w3.org/2000/svg" xmlns:xlink="http://www.w3.org/1999/xlink">
<g id="graph0" class="graph" transform="scale(1 1) rotate(0) translate(4 918)">
<title>config.carousel_type</title>
<polygon fill="#ffffff" stroke="transparent" points="-4,4 -4,-918 658.5,-918 658.5,4 -4,4"/>
<!-- config.carousel_type -->
<g id="node1" class="node">
<title>config.carousel_type</title>
<polygon fill="#efefef" stroke="transparent" points="51.5,-225.5 51.5,-260.5 357.5,-260.5 357.5,-225.5 51.5,-225.5"/>
<polygon fill="none" stroke="#000000" points="51.5,-225.5 51.5,-260.5 357.5,-260.5 357.5,-225.5 51.5,-225.5"/>
<text text-anchor="start" x="58.1914" y="-238.3" font-family="Arial Bold" font-size="18.00" fill="#000000">config.carousel_type</text>
<text text-anchor="start" x="223.2406" y="-238.3" font-family="Arial" font-size="14.00" fill="#000000">    </text>
<text text-anchor="start" x="257.4454" y="-238.3" font-family="Arial" font-size="14.00" fill="#666666">[BASE TABLE]</text>
<polygon fill="none" stroke="#000000" points="51.5,-195.5 51.5,-225.5 357.5,-225.5 357.5,-195.5 51.5,-195.5"/>
<text text-anchor="start" x="58.5" y="-206.9" font-family="Arial" font-size="14.00" fill="#000000">id </text>
<text text-anchor="start" x="73.2798" y="-206.9" font-family="Arial" font-size="14.00" fill="#666666">[integer]</text>
<polygon fill="none" stroke="#000000" points="51.5,-165.5 51.5,-195.5 357.5,-195.5 357.5,-165.5 51.5,-165.5"/>
<text text-anchor="start" x="58.5" y="-176.9" font-family="Arial" font-size="14.00" fill="#000000">name </text>
<text text-anchor="start" x="97.399" y="-176.9" font-family="Arial" font-size="14.00" fill="#666666">[text]</text>
<polygon fill="none" stroke="#000000" points="51.5,-135.5 51.5,-165.5 357.5,-165.5 357.5,-135.5 51.5,-135.5"/>
<text text-anchor="start" x="58.5" y="-146.9" font-family="Arial" font-size="14.00" fill="#000000">automatic </text>
<text text-anchor="start" x="123.0694" y="-146.9" font-family="Arial" font-size="14.00" fill="#666666">[boolean]</text>
<polygon fill="none" stroke="#000000" points="51.5,-105.5 51.5,-135.5 357.5,-135.5 357.5,-105.5 51.5,-105.5"/>
<text text-anchor="start" x="58.5" y="-116.9" font-family="Arial" font-size="14.00" fill="#000000">filter_by_age </text>
<text text-anchor="start" x="142.5238" y="-116.9" font-family="Arial" font-size="14.00" fill="#666666">[boolean]</text>
<polygon fill="none" stroke="#000000" points="51.5,-75.5 51.5,-105.5 357.5,-105.5 357.5,-75.5 51.5,-75.5"/>
<text text-anchor="start" x="58.5" y="-86.9" font-family="Arial" font-size="14.00" fill="#000000">filter_by_copy_owning_lib </text>
<text text-anchor="start" x="222.6458" y="-86.9" font-family="Arial" font-size="14.00" fill="#666666">[boolean]</text>
<polygon fill="none" stroke="#000000" points="51.5,-45.5 51.5,-75.5 357.5,-75.5 357.5,-45.5 51.5,-45.5"/>
<text text-anchor="start" x="58.5" y="-56.9" font-family="Arial" font-size="14.00" fill="#000000">filter_by_copy_location </text>
<text text-anchor="start" x="204.758" y="-56.9" font-family="Arial" font-size="14.00" fill="#666666">[boolean]</text>
<polygon fill="none" stroke="#000000" stroke-width="3" points="50,-44.5 50,-262.5 359,-262.5 359,-44.5 50,-44.5"/>
</g>
<!-- container.carousel -->
<g id="node2" class="node">
<title>container.carousel</title>
<polygon fill="#efefef" stroke="transparent" points="43.5,-835.5 43.5,-870.5 364.5,-870.5 364.5,-835.5 43.5,-835.5"/>
<polygon fill="none" stroke="#000000" points="43.5,-835.5 43.5,-870.5 364.5,-870.5 364.5,-835.5 43.5,-835.5"/>
<text text-anchor="start" x="66.6995" y="-848.3" font-family="Arial Bold" font-size="18.00" fill="#000000">container.carousel</text>
<text text-anchor="start" x="213.7325" y="-848.3" font-family="Arial" font-size="14.00" fill="#000000">    </text>
<text text-anchor="start" x="247.9373" y="-848.3" font-family="Arial" font-size="14.00" fill="#666666">[BASE TABLE]</text>
<polygon fill="none" stroke="#000000" points="43.5,-805.5 43.5,-835.5 364.5,-835.5 364.5,-805.5 43.5,-805.5"/>
<text text-anchor="start" x="50.5" y="-816.9" font-family="Arial" font-size="14.00" fill="#000000">id    </text>
<text text-anchor="start" x="95.594" y="-816.9" font-family="Arial" font-size="14.00" fill="#666666">[integer]</text>
<polygon fill="none" stroke="#000000" points="43.5,-775.5 43.5,-805.5 364.5,-805.5 364.5,-775.5 43.5,-775.5"/>
<text text-anchor="start" x="50.5" y="-786.9" font-family="Arial" font-size="14.00" fill="#000000">type    </text>
<text text-anchor="start" x="111.1606" y="-786.9" font-family="Arial" font-size="14.00" fill="#666666">[integer]</text>
<polygon fill="none" stroke="#000000" points="43.5,-745.5 43.5,-775.5 364.5,-775.5 364.5,-745.5 43.5,-745.5"/>
<text text-anchor="start" x="50.5" y="-756.9" font-family="Arial" font-size="14.00" fill="#000000">owner    </text>
<text text-anchor="start" x="122.8198" y="-756.9" font-family="Arial" font-size="14.00" fill="#666666">[integer]</text>
<polygon fill="none" stroke="#000000" points="43.5,-715.5 43.5,-745.5 364.5,-745.5 364.5,-715.5 43.5,-715.5"/>
<text text-anchor="start" x="50.5" y="-726.9" font-family="Arial" font-size="14.00" fill="#000000">name    </text>
<text text-anchor="start" x="119.7132" y="-726.9" font-family="Arial" font-size="14.00" fill="#666666">[text]</text>
<polygon fill="none" stroke="#000000" points="43.5,-685.5 43.5,-715.5 364.5,-715.5 364.5,-685.5 43.5,-685.5"/>
<text text-anchor="start" x="50.5" y="-696.9" font-family="Arial" font-size="14.00" fill="#000000">bucket    </text>
<text text-anchor="start" x="125.9432" y="-696.9" font-family="Arial" font-size="14.00" fill="#666666">[integer]</text>
<polygon fill="none" stroke="#000000" points="43.5,-655.5 43.5,-685.5 364.5,-685.5 364.5,-655.5 43.5,-655.5"/>
<text text-anchor="start" x="50.5" y="-666.9" font-family="Arial" font-size="14.00" fill="#000000">creator    </text>
<text text-anchor="start" x="128.2644" y="-666.9" font-family="Arial" font-size="14.00" fill="#666666">[integer]</text>
<polygon fill="none" stroke="#000000" points="43.5,-625.5 43.5,-655.5 364.5,-655.5 364.5,-625.5 43.5,-625.5"/>
<text text-anchor="start" x="50.5" y="-636.9" font-family="Arial" font-size="14.00" fill="#000000">editor    </text>
<text text-anchor="start" x="119.7104" y="-636.9" font-family="Arial" font-size="14.00" fill="#666666">[integer]</text>
<polygon fill="none" stroke="#000000" points="43.5,-595.5 43.5,-625.5 364.5,-625.5 364.5,-595.5 43.5,-595.5"/>
<text text-anchor="start" x="50.5" y="-606.9" font-family="Arial" font-size="14.00" fill="#000000">create_time    </text>
<text text-anchor="start" x="157.8268" y="-606.9" font-family="Arial" font-size="14.00" fill="#666666">[timestamp with time zone]</text>
<polygon fill="none" stroke="#000000" points="43.5,-565.5 43.5,-595.5 364.5,-595.5 364.5,-565.5 43.5,-565.5"/>
<text text-anchor="start" x="50.5" y="-576.9" font-family="Arial" font-size="14.00" fill="#000000">edit_time    </text>
<text text-anchor="start" x="141.4902" y="-576.9" font-family="Arial" font-size="14.00" fill="#666666">[timestamp with time zone]</text>
<polygon fill="none" stroke="#000000" points="43.5,-535.5 43.5,-565.5 364.5,-565.5 364.5,-535.5 43.5,-535.5"/>
<text text-anchor="start" x="50.5" y="-546.9" font-family="Arial" font-size="14.00" fill="#000000">age_filter    </text>
<text text-anchor="start" x="142.2728" y="-546.9" font-family="Arial" font-size="14.00" fill="#666666">[interval]</text>
<polygon fill="none" stroke="#000000" points="43.5,-505.5 43.5,-535.5 364.5,-535.5 364.5,-505.5 43.5,-505.5"/>
<text text-anchor="start" x="50.5" y="-516.9" font-family="Arial" font-size="14.00" fill="#000000">owning_lib_filter    </text>
<text text-anchor="start" x="185.047" y="-516.9" font-family="Arial" font-size="14.00" fill="#666666">[integer[]]</text>
<polygon fill="none" stroke="#000000" points="43.5,-475.5 43.5,-505.5 364.5,-505.5 364.5,-475.5 43.5,-475.5"/>
<text text-anchor="start" x="50.5" y="-486.9" font-family="Arial" font-size="14.00" fill="#000000">copy_location_filter    </text>
<text text-anchor="start" x="204.507" y="-486.9" font-family="Arial" font-size="14.00" fill="#666666">[integer[]]</text>
<polygon fill="none" stroke="#000000" points="43.5,-445.5 43.5,-475.5 364.5,-475.5 364.5,-445.5 43.5,-445.5"/>
<text text-anchor="start" x="50.3829" y="-456.9" font-family="Arial" font-size="14.00" fill="#000000">last_refresh_time    </text>
<text text-anchor="start" x="191.9327" y="-456.9" font-family="Arial" font-size="14.00" fill="#666666">[timestamp with time zone]</text>
<polygon fill="none" stroke="#000000" points="43.5,-415.5 43.5,-445.5 364.5,-445.5 364.5,-415.5 43.5,-415.5"/>
<text text-anchor="start" x="50.5" y="-426.9" font-family="Arial" font-size="14.00" fill="#000000">active    </text>
<text text-anchor="start" x="121.2672" y="-426.9" font-family="Arial" font-size="14.00" fill="#666666">[boolean]</text>
<polygon fill="none" stroke="#000000" points="43.5,-385.5 43.5,-415.5 364.5,-415.5 364.5,-385.5 43.5,-385.5"/>
<text text-anchor="start" x="50.5" y="-396.9" font-family="Arial" font-size="14.00" fill="#000000">max_items    </text>
<text text-anchor="start" x="152.371" y="-396.9" font-family="Arial" font-size="14.00" fill="#666666">[integer]</text>
</g>
<!-- container.carousel&#45;&gt;config.carousel_type -->
<g id="edge1" class="edge">
<title>container.carousel:type&#45;&gt;config.carousel_type:id</title>
<path fill="none" stroke="#000000" d="M374.5005,-789.1452C461.5648,-764.6238 428.3521,-414.617 364.5,-343 271.3135,-238.4812 144.6865,-411.5188 51.5,-307 22.9581,-274.9872 8.6111,-210.5 51.5,-210.5"/>
<polygon fill="#000000" stroke="#000000" points="374.4095,-789.1574 363.8958,-786.0407 369.4547,-789.8287 364.5,-790.5 364.5,-790.5 364.5,-790.5 369.4547,-789.8287 365.1042,-794.9593 374.4095,-789.1574 374.4095,-789.1574"/>
<text text-anchor="start" x="371.1545" y="-800.5" font-family="Arial" font-size="10.00" fill="#000000">FOREIGN KEY (type) REFERENCES config.carousel_type(id)</text>
</g>
</g>
</svg>
