<?xml version="1.0" encoding="UTF-8" standalone="no"?>
<!DOCTYPE svg PUBLIC "-//W3C//DTD SVG 1.1//EN"
 "http://www.w3.org/Graphics/SVG/1.1/DTD/svg11.dtd">
<!-- Generated by graphviz version 2.40.1 (20161225.0304)
 -->
<!-- Title: config.hard_due_date_values Pages: 1 -->
<svg width="951pt" height="562pt"
 viewBox="0.00 0.00 950.50 562.00" xmlns="http://www.w3.org/2000/svg" xmlns:xlink="http://www.w3.org/1999/xlink">
<g id="graph0" class="graph" transform="scale(1 1) rotate(0) translate(4 558)">
<title>config.hard_due_date_values</title>
<polygon fill="#ffffff" stroke="transparent" points="-4,4 -4,-558 946.5,-558 946.5,4 -4,4"/>
<!-- config.hard_due_date_values -->
<g id="node1" class="node">
<title>config.hard_due_date_values</title>
<polygon fill="#efefef" stroke="transparent" points="520,-472.5 520,-507.5 897,-507.5 897,-472.5 520,-472.5"/>
<polygon fill="none" stroke="#000000" points="520,-472.5 520,-507.5 897,-507.5 897,-472.5 520,-472.5"/>
<text text-anchor="start" x="526.6666" y="-485.3" font-family="Arial Bold" font-size="18.00" fill="#000000">config.hard_due_date_values</text>
<text text-anchor="start" x="762.7654" y="-485.3" font-family="Arial" font-size="14.00" fill="#000000">    </text>
<text text-anchor="start" x="796.9702" y="-485.3" font-family="Arial" font-size="14.00" fill="#666666">[BASE TABLE]</text>
<polygon fill="none" stroke="#000000" points="520,-442.5 520,-472.5 897,-472.5 897,-442.5 520,-442.5"/>
<text text-anchor="start" x="527" y="-453.9" font-family="Arial" font-size="14.00" fill="#000000">id </text>
<text text-anchor="start" x="541.7798" y="-453.9" font-family="Arial" font-size="14.00" fill="#666666">[integer]</text>
<polygon fill="none" stroke="#000000" points="520,-412.5 520,-442.5 897,-442.5 897,-412.5 520,-412.5"/>
<text text-anchor="start" x="527" y="-423.9" font-family="Arial" font-size="14.00" fill="#000000">hard_due_date </text>
<text text-anchor="start" x="625.0504" y="-423.9" font-family="Arial" font-size="14.00" fill="#666666">[integer]</text>
<polygon fill="none" stroke="#000000" points="520,-382.5 520,-412.5 897,-412.5 897,-382.5 520,-382.5"/>
<text text-anchor="start" x="527" y="-393.9" font-family="Arial" font-size="14.00" fill="#000000">ceiling_date </text>
<text text-anchor="start" x="605.5792" y="-393.9" font-family="Arial" font-size="14.00" fill="#666666">[timestamp with time zone]</text>
<polygon fill="none" stroke="#000000" points="520,-352.5 520,-382.5 897,-382.5 897,-352.5 520,-352.5"/>
<text text-anchor="start" x="527" y="-363.9" font-family="Arial" font-size="14.00" fill="#000000">active_date </text>
<text text-anchor="start" x="602.474" y="-363.9" font-family="Arial" font-size="14.00" fill="#666666">[timestamp with time zone]</text>
<polygon fill="none" stroke="#000000" stroke-width="3" points="518,-351.5 518,-509.5 898,-509.5 898,-351.5 518,-351.5"/>
</g>
<!-- config.hard_due_date -->
<g id="node2" class="node">
<title>config.hard_due_date</title>
<polygon fill="#efefef" stroke="transparent" points="551,-192.5 551,-227.5 866,-227.5 866,-192.5 551,-192.5"/>
<polygon fill="none" stroke="#000000" points="551,-192.5 551,-227.5 866,-227.5 866,-192.5 551,-192.5"/>
<text text-anchor="start" x="557.6761" y="-205.3" font-family="Arial Bold" font-size="18.00" fill="#000000">config.hard_due_date</text>
<text text-anchor="start" x="731.7559" y="-205.3" font-family="Arial" font-size="14.00" fill="#000000">    </text>
<text text-anchor="start" x="765.9607" y="-205.3" font-family="Arial" font-size="14.00" fill="#666666">[BASE TABLE]</text>
<polygon fill="none" stroke="#000000" points="551,-162.5 551,-192.5 866,-192.5 866,-162.5 551,-162.5"/>
<text text-anchor="start" x="558" y="-173.9" font-family="Arial" font-size="14.00" fill="#000000">id    </text>
<text text-anchor="start" x="603.094" y="-173.9" font-family="Arial" font-size="14.00" fill="#666666">[integer]</text>
<polygon fill="none" stroke="#000000" points="551,-132.5 551,-162.5 866,-162.5 866,-132.5 551,-132.5"/>
<text text-anchor="start" x="558" y="-143.9" font-family="Arial" font-size="14.00" fill="#000000">name    </text>
<text text-anchor="start" x="627.2132" y="-143.9" font-family="Arial" font-size="14.00" fill="#666666">[text]</text>
<polygon fill="none" stroke="#000000" points="551,-102.5 551,-132.5 866,-132.5 866,-102.5 551,-102.5"/>
<text text-anchor="start" x="558" y="-113.9" font-family="Arial" font-size="14.00" fill="#000000">ceiling_date    </text>
<text text-anchor="start" x="666.8934" y="-113.9" font-family="Arial" font-size="14.00" fill="#666666">[timestamp with time zone]</text>
<polygon fill="none" stroke="#000000" points="551,-72.5 551,-102.5 866,-102.5 866,-72.5 551,-72.5"/>
<text text-anchor="start" x="558" y="-83.9" font-family="Arial" font-size="14.00" fill="#000000">forceto    </text>
<text text-anchor="start" x="634.9944" y="-83.9" font-family="Arial" font-size="14.00" fill="#666666">[boolean]</text>
<polygon fill="none" stroke="#000000" points="551,-42.5 551,-72.5 866,-72.5 866,-42.5 551,-42.5"/>
<text text-anchor="start" x="558" y="-53.9" font-family="Arial" font-size="14.00" fill="#000000">owner    </text>
<text text-anchor="start" x="630.3198" y="-53.9" font-family="Arial" font-size="14.00" fill="#666666">[integer]</text>
</g>
<!-- config.hard_due_date_values&#45;&gt;config.hard_due_date -->
<g id="edge1" class="edge">
<title>config.hard_due_date_values:hard_due_date&#45;&gt;config.hard_due_date:id</title>
<path fill="none" stroke="#000000" d="M509.9205,-426.7828C410.0545,-412.1191 442.5367,-177.5 551,-177.5"/>
<polygon fill="#000000" stroke="#000000" points="510.0252,-426.7902 519.6806,-431.9887 515.0126,-427.1451 520,-427.5 520,-427.5 520,-427.5 515.0126,-427.1451 520.3194,-423.0113 510.0252,-426.7902 510.0252,-426.7902"/>
<text text-anchor="start" x="6.906" y="-437.5" font-family="Arial" font-size="10.00" fill="#000000">FOREIGN KEY (hard_due_date) REFERENCES config.hard_due_date(id) DEFERRABLE INITIALLY DEFERRED</text>
</g>
</g>
</svg>
