<?xml version="1.0" encoding="UTF-8" standalone="no"?>
<!DOCTYPE svg PUBLIC "-//W3C//DTD SVG 1.1//EN"
 "http://www.w3.org/Graphics/SVG/1.1/DTD/svg11.dtd">
<!-- Generated by graphviz version 2.40.1 (20161225.0304)
 -->
<!-- Title: config.non_cataloged_type Pages: 1 -->
<svg width="1151pt" height="622pt"
 viewBox="0.00 0.00 1151.00 622.00" xmlns="http://www.w3.org/2000/svg" xmlns:xlink="http://www.w3.org/1999/xlink">
<g id="graph0" class="graph" transform="scale(1 1) rotate(0) translate(4 618)">
<title>config.non_cataloged_type</title>
<polygon fill="#ffffff" stroke="transparent" points="-4,4 -4,-618 1147,-618 1147,4 -4,4"/>
<!-- config.non_cataloged_type -->
<g id="node1" class="node">
<title>config.non_cataloged_type</title>
<polygon fill="#efefef" stroke="transparent" points="399,-195.5 399,-230.5 755,-230.5 755,-195.5 399,-195.5"/>
<polygon fill="none" stroke="#000000" points="399,-195.5 399,-230.5 755,-230.5 755,-195.5 399,-195.5"/>
<text text-anchor="start" x="405.6678" y="-208.3" font-family="Arial Bold" font-size="18.00" fill="#000000">config.non_cataloged_type</text>
<text text-anchor="start" x="620.7642" y="-208.3" font-family="Arial" font-size="14.00" fill="#000000">    </text>
<text text-anchor="start" x="654.969" y="-208.3" font-family="Arial" font-size="14.00" fill="#666666">[BASE TABLE]</text>
<polygon fill="none" stroke="#000000" points="399,-165.5 399,-195.5 755,-195.5 755,-165.5 399,-165.5"/>
<text text-anchor="start" x="406" y="-176.9" font-family="Arial" font-size="14.00" fill="#000000">id </text>
<text text-anchor="start" x="420.7798" y="-176.9" font-family="Arial" font-size="14.00" fill="#666666">[integer]</text>
<polygon fill="none" stroke="#000000" points="399,-135.5 399,-165.5 755,-165.5 755,-135.5 399,-135.5"/>
<text text-anchor="start" x="406" y="-146.9" font-family="Arial" font-size="14.00" fill="#000000">owning_lib </text>
<text text-anchor="start" x="476.0126" y="-146.9" font-family="Arial" font-size="14.00" fill="#666666">[integer]</text>
<polygon fill="none" stroke="#000000" points="399,-105.5 399,-135.5 755,-135.5 755,-105.5 399,-105.5"/>
<text text-anchor="start" x="406" y="-116.9" font-family="Arial" font-size="14.00" fill="#000000">name </text>
<text text-anchor="start" x="444.899" y="-116.9" font-family="Arial" font-size="14.00" fill="#666666">[text]</text>
<polygon fill="none" stroke="#000000" points="399,-75.5 399,-105.5 755,-105.5 755,-75.5 399,-75.5"/>
<text text-anchor="start" x="406" y="-86.9" font-family="Arial" font-size="14.00" fill="#000000">circ_duration </text>
<text text-anchor="start" x="490.0112" y="-86.9" font-family="Arial" font-size="14.00" fill="#666666">[interval]</text>
<polygon fill="none" stroke="#000000" points="399,-45.5 399,-75.5 755,-75.5 755,-45.5 399,-45.5"/>
<text text-anchor="start" x="406" y="-56.9" font-family="Arial" font-size="14.00" fill="#000000">in_house </text>
<text text-anchor="start" x="466.6928" y="-56.9" font-family="Arial" font-size="14.00" fill="#666666">[boolean]</text>
<polygon fill="none" stroke="#000000" stroke-width="3" points="397.5,-44.5 397.5,-232.5 756.5,-232.5 756.5,-44.5 397.5,-44.5"/>
</g>
<!-- action.non_cat_in_house_use -->
<g id="node2" class="node">
<title>action.non_cat_in_house_use</title>
<polygon fill="#efefef" stroke="transparent" points="139,-535.5 139,-570.5 519,-570.5 519,-535.5 139,-535.5"/>
<polygon fill="none" stroke="#000000" points="139,-535.5 139,-570.5 519,-570.5 519,-535.5 139,-535.5"/>
<text text-anchor="start" x="145.6627" y="-548.3" font-family="Arial Bold" font-size="18.00" fill="#000000">action.non_cat_in_house_use</text>
<text text-anchor="start" x="384.7693" y="-548.3" font-family="Arial" font-size="14.00" fill="#000000">    </text>
<text text-anchor="start" x="418.9741" y="-548.3" font-family="Arial" font-size="14.00" fill="#666666">[BASE TABLE]</text>
<polygon fill="none" stroke="#000000" points="139,-505.5 139,-535.5 519,-535.5 519,-505.5 139,-505.5"/>
<text text-anchor="start" x="146" y="-516.9" font-family="Arial" font-size="14.00" fill="#000000">id    </text>
<text text-anchor="start" x="191.094" y="-516.9" font-family="Arial" font-size="14.00" fill="#666666">[integer]</text>
<polygon fill="none" stroke="#000000" points="139,-475.5 139,-505.5 519,-505.5 519,-475.5 139,-475.5"/>
<text text-anchor="start" x="146" y="-486.9" font-family="Arial" font-size="14.00" fill="#000000">item_type    </text>
<text text-anchor="start" x="240.8836" y="-486.9" font-family="Arial" font-size="14.00" fill="#666666">[bigint]</text>
<polygon fill="none" stroke="#000000" points="139,-445.5 139,-475.5 519,-475.5 519,-445.5 139,-445.5"/>
<text text-anchor="start" x="146" y="-456.9" font-family="Arial" font-size="14.00" fill="#000000">staff    </text>
<text text-anchor="start" x="206.6592" y="-456.9" font-family="Arial" font-size="14.00" fill="#666666">[integer]</text>
<polygon fill="none" stroke="#000000" points="139,-415.5 139,-445.5 519,-445.5 519,-415.5 139,-415.5"/>
<text text-anchor="start" x="146" y="-426.9" font-family="Arial" font-size="14.00" fill="#000000">org_unit    </text>
<text text-anchor="start" x="230.7756" y="-426.9" font-family="Arial" font-size="14.00" fill="#666666">[integer]</text>
<polygon fill="none" stroke="#000000" points="139,-385.5 139,-415.5 519,-415.5 519,-385.5 139,-385.5"/>
<text text-anchor="start" x="146" y="-396.9" font-family="Arial" font-size="14.00" fill="#000000">use_time    </text>
<text text-anchor="start" x="236.993" y="-396.9" font-family="Arial" font-size="14.00" fill="#666666">[timestamp with time zone]</text>
<polygon fill="none" stroke="#000000" points="139,-355.5 139,-385.5 519,-385.5 519,-355.5 139,-355.5"/>
<text text-anchor="start" x="146" y="-366.9" font-family="Arial" font-size="14.00" fill="#000000">workstation    </text>
<text text-anchor="start" x="250.9902" y="-366.9" font-family="Arial" font-size="14.00" fill="#666666">[integer]</text>
</g>
<!-- action.non_cat_in_house_use&#45;&gt;config.non_cataloged_type -->
<g id="edge1" class="edge">
<title>action.non_cat_in_house_use:item_type&#45;&gt;config.non_cataloged_type:id</title>
<path fill="none" stroke="#000000" d="M529.374,-489.7642C594.8743,-479.9049 563.8838,-373.3252 519,-313 485.7619,-268.327 432.2381,-321.673 399,-277 373.3983,-242.5905 356.1111,-180.5 399,-180.5"/>
<polygon fill="#000000" stroke="#000000" points="528.9749,-489.7924 518.6816,-486.0113 523.9875,-490.1462 519,-490.5 519,-490.5 519,-490.5 523.9875,-490.1462 519.3184,-494.9887 528.9749,-489.7924 528.9749,-489.7924"/>
<text text-anchor="start" x="7.47" y="-500.5" font-family="Arial" font-size="10.00" fill="#000000">FOREIGN KEY (item_type) REFERENCES config.non_cataloged_type(id) DEFERRABLE INITIALLY DEFERRED</text>
</g>
<!-- action.non_cataloged_circulation -->
<g id="node3" class="node">
<title>action.non_cataloged_circulation</title>
<polygon fill="#efefef" stroke="transparent" points="624,-535.5 624,-570.5 1027,-570.5 1027,-535.5 624,-535.5"/>
<polygon fill="none" stroke="#000000" points="624,-535.5 624,-570.5 1027,-570.5 1027,-535.5 624,-535.5"/>
<text text-anchor="start" x="630.6742" y="-548.3" font-family="Arial Bold" font-size="18.00" fill="#000000">action.non_cataloged_circulation</text>
<text text-anchor="start" x="892.7578" y="-548.3" font-family="Arial" font-size="14.00" fill="#000000">    </text>
<text text-anchor="start" x="926.9626" y="-548.3" font-family="Arial" font-size="14.00" fill="#666666">[BASE TABLE]</text>
<polygon fill="none" stroke="#000000" points="624,-505.5 624,-535.5 1027,-535.5 1027,-505.5 624,-505.5"/>
<text text-anchor="start" x="631" y="-516.9" font-family="Arial" font-size="14.00" fill="#000000">id    </text>
<text text-anchor="start" x="676.094" y="-516.9" font-family="Arial" font-size="14.00" fill="#666666">[integer]</text>
<polygon fill="none" stroke="#000000" points="624,-475.5 624,-505.5 1027,-505.5 1027,-475.5 624,-475.5"/>
<text text-anchor="start" x="631" y="-486.9" font-family="Arial" font-size="14.00" fill="#000000">patron    </text>
<text text-anchor="start" x="704.8864" y="-486.9" font-family="Arial" font-size="14.00" fill="#666666">[integer]</text>
<polygon fill="none" stroke="#000000" points="624,-445.5 624,-475.5 1027,-475.5 1027,-445.5 624,-445.5"/>
<text text-anchor="start" x="631" y="-456.9" font-family="Arial" font-size="14.00" fill="#000000">staff    </text>
<text text-anchor="start" x="691.6592" y="-456.9" font-family="Arial" font-size="14.00" fill="#666666">[integer]</text>
<polygon fill="none" stroke="#000000" points="624,-415.5 624,-445.5 1027,-445.5 1027,-415.5 624,-415.5"/>
<text text-anchor="start" x="631" y="-426.9" font-family="Arial" font-size="14.00" fill="#000000">circ_lib    </text>
<text text-anchor="start" x="708.7504" y="-426.9" font-family="Arial" font-size="14.00" fill="#666666">[integer]</text>
<polygon fill="none" stroke="#000000" points="624,-385.5 624,-415.5 1027,-415.5 1027,-385.5 624,-385.5"/>
<text text-anchor="start" x="631" y="-396.9" font-family="Arial" font-size="14.00" fill="#000000">item_type    </text>
<text text-anchor="start" x="725.8836" y="-396.9" font-family="Arial" font-size="14.00" fill="#666666">[integer]</text>
<polygon fill="none" stroke="#000000" points="624,-355.5 624,-385.5 1027,-385.5 1027,-355.5 624,-355.5"/>
<text text-anchor="start" x="631" y="-366.9" font-family="Arial" font-size="14.00" fill="#000000">circ_time    </text>
<text text-anchor="start" x="721.195" y="-366.9" font-family="Arial" font-size="14.00" fill="#666666">[timestamp with time zone]</text>
</g>
<!-- action.non_cataloged_circulation&#45;&gt;config.non_cataloged_type -->
<g id="edge2" class="edge">
<title>action.non_cataloged_circulation:item_type&#45;&gt;config.non_cataloged_type:id</title>
<path fill="none" stroke="#000000" d="M614.1147,-398.958C588.1808,-389.6954 602.7269,-340.9078 624,-313 660.6042,-264.9796 718.3958,-325.0204 755,-277 781.0003,-242.8907 797.8889,-180.5 755,-180.5"/>
<polygon fill="#000000" stroke="#000000" points="614.1195,-398.9587 623.3064,-404.9462 619.0597,-399.7293 624,-400.5 624,-400.5 624,-400.5 619.0597,-399.7293 624.6936,-396.0538 614.1195,-398.9587 614.1195,-398.9587"/>
<text text-anchor="start" x="631.47" y="-410.5" font-family="Arial" font-size="10.00" fill="#000000">FOREIGN KEY (item_type) REFERENCES config.non_cataloged_type(id) DEFERRABLE INITIALLY DEFERRED</text>
</g>
</g>
</svg>
