<?xml version="1.0" encoding="UTF-8" standalone="no"?>
<!DOCTYPE svg PUBLIC "-//W3C//DTD SVG 1.1//EN"
 "http://www.w3.org/Graphics/SVG/1.1/DTD/svg11.dtd">
<!-- Generated by graphviz version 2.40.1 (20161225.0304)
 -->
<!-- Title: config.circ_limit_group Pages: 1 -->
<svg width="1343pt" height="502pt"
 viewBox="0.00 0.00 1343.00 502.00" xmlns="http://www.w3.org/2000/svg" xmlns:xlink="http://www.w3.org/1999/xlink">
<g id="graph0" class="graph" transform="scale(1 1) rotate(0) translate(4 498)">
<title>config.circ_limit_group</title>
<polygon fill="#ffffff" stroke="transparent" points="-4,4 -4,-498 1339,-498 1339,4 -4,4"/>
<!-- config.circ_limit_group -->
<g id="node1" class="node">
<title>config.circ_limit_group</title>
<polygon fill="#efefef" stroke="transparent" points="503,-135.5 503,-170.5 823,-170.5 823,-135.5 503,-135.5"/>
<polygon fill="none" stroke="#000000" points="503,-135.5 503,-170.5 823,-170.5 823,-135.5 503,-135.5"/>
<text text-anchor="start" x="509.711" y="-148.3" font-family="Arial Bold" font-size="18.00" fill="#000000">config.circ_limit_group</text>
<text text-anchor="start" x="688.721" y="-148.3" font-family="Arial" font-size="14.00" fill="#000000">    </text>
<text text-anchor="start" x="722.9258" y="-148.3" font-family="Arial" font-size="14.00" fill="#666666">[BASE TABLE]</text>
<polygon fill="none" stroke="#000000" points="503,-105.5 503,-135.5 823,-135.5 823,-105.5 503,-105.5"/>
<text text-anchor="start" x="510" y="-116.9" font-family="Arial" font-size="14.00" fill="#000000">id </text>
<text text-anchor="start" x="524.7798" y="-116.9" font-family="Arial" font-size="14.00" fill="#666666">[integer]</text>
<polygon fill="none" stroke="#000000" points="503,-75.5 503,-105.5 823,-105.5 823,-75.5 503,-75.5"/>
<text text-anchor="start" x="510" y="-86.9" font-family="Arial" font-size="14.00" fill="#000000">name </text>
<text text-anchor="start" x="548.899" y="-86.9" font-family="Arial" font-size="14.00" fill="#666666">[text]</text>
<polygon fill="none" stroke="#000000" points="503,-45.5 503,-75.5 823,-75.5 823,-45.5 503,-45.5"/>
<text text-anchor="start" x="510" y="-56.9" font-family="Arial" font-size="14.00" fill="#000000">description </text>
<text text-anchor="start" x="581.568" y="-56.9" font-family="Arial" font-size="14.00" fill="#666666">[text]</text>
<polygon fill="none" stroke="#000000" stroke-width="3" points="501.5,-44.5 501.5,-172.5 824.5,-172.5 824.5,-44.5 501.5,-44.5"/>
</g>
<!-- action.circulation_limit_group_map -->
<g id="node2" class="node">
<title>action.circulation_limit_group_map</title>
<polygon fill="#efefef" stroke="transparent" points="197,-385.5 197,-420.5 615,-420.5 615,-385.5 197,-385.5"/>
<polygon fill="none" stroke="#000000" points="197,-385.5 197,-420.5 615,-420.5 615,-385.5 197,-385.5"/>
<text text-anchor="start" x="203.6979" y="-398.3" font-family="Arial Bold" font-size="18.00" fill="#000000">action.circulation_limit_group_map</text>
<text text-anchor="start" x="480.7341" y="-398.3" font-family="Arial" font-size="14.00" fill="#000000">    </text>
<text text-anchor="start" x="514.9389" y="-398.3" font-family="Arial" font-size="14.00" fill="#666666">[BASE TABLE]</text>
<polygon fill="none" stroke="#000000" points="197,-355.5 197,-385.5 615,-385.5 615,-355.5 197,-355.5"/>
<text text-anchor="start" x="204" y="-366.9" font-family="Arial" font-size="14.00" fill="#000000">circ    </text>
<text text-anchor="start" x="259.972" y="-366.9" font-family="Arial" font-size="14.00" fill="#666666">[bigint]</text>
<polygon fill="none" stroke="#000000" points="197,-325.5 197,-355.5 615,-355.5 615,-325.5 197,-325.5"/>
<text text-anchor="start" x="204" y="-336.9" font-family="Arial" font-size="14.00" fill="#000000">limit_group    </text>
<text text-anchor="start" x="306.6494" y="-336.9" font-family="Arial" font-size="14.00" fill="#666666">[integer]</text>
</g>
<!-- action.circulation_limit_group_map&#45;&gt;config.circ_limit_group -->
<g id="edge1" class="edge">
<title>action.circulation_limit_group_map:limit_group&#45;&gt;config.circ_limit_group:id</title>
<path fill="none" stroke="#000000" d="M624.9673,-337.6165C636.1351,-328.7493 625.4999,-301.3748 615,-283 586.3342,-232.8348 531.6658,-267.1652 503,-217 481.7212,-179.762 460.1111,-120.5 503,-120.5"/>
<polygon fill="#000000" stroke="#000000" points="624.6061,-337.7209 613.7494,-336.1773 619.803,-339.1105 615,-340.5 615,-340.5 615,-340.5 619.803,-339.1105 616.2506,-344.8227 624.6061,-337.7209 624.6061,-337.7209"/>
<text text-anchor="start" x="7.4395" y="-350.5" font-family="Arial" font-size="10.00" fill="#000000">FOREIGN KEY (limit_group) REFERENCES config.circ_limit_group(id) ON DELETE CASCADE DEFERRABLE INITIALLY DEFERRED</text>
</g>
<!-- config.circ_limit_set_group_map -->
<g id="node3" class="node">
<title>config.circ_limit_set_group_map</title>
<polygon fill="#efefef" stroke="transparent" points="720,-415.5 720,-450.5 1119,-450.5 1119,-415.5 720,-415.5"/>
<polygon fill="none" stroke="#000000" points="720,-415.5 720,-450.5 1119,-450.5 1119,-415.5 720,-415.5"/>
<text text-anchor="start" x="726.6983" y="-428.3" font-family="Arial Bold" font-size="18.00" fill="#000000">config.circ_limit_set_group_map</text>
<text text-anchor="start" x="984.7337" y="-428.3" font-family="Arial" font-size="14.00" fill="#000000">    </text>
<text text-anchor="start" x="1018.9385" y="-428.3" font-family="Arial" font-size="14.00" fill="#666666">[BASE TABLE]</text>
<polygon fill="none" stroke="#000000" points="720,-385.5 720,-415.5 1119,-415.5 1119,-385.5 720,-385.5"/>
<text text-anchor="start" x="727" y="-396.9" font-family="Arial" font-size="14.00" fill="#000000">id    </text>
<text text-anchor="start" x="772.094" y="-396.9" font-family="Arial" font-size="14.00" fill="#666666">[integer]</text>
<polygon fill="none" stroke="#000000" points="720,-355.5 720,-385.5 1119,-385.5 1119,-355.5 720,-355.5"/>
<text text-anchor="start" x="727" y="-366.9" font-family="Arial" font-size="14.00" fill="#000000">limit_set    </text>
<text text-anchor="start" x="812.5316" y="-366.9" font-family="Arial" font-size="14.00" fill="#666666">[integer]</text>
<polygon fill="none" stroke="#000000" points="720,-325.5 720,-355.5 1119,-355.5 1119,-325.5 720,-325.5"/>
<text text-anchor="start" x="727" y="-336.9" font-family="Arial" font-size="14.00" fill="#000000">limit_group    </text>
<text text-anchor="start" x="829.6494" y="-336.9" font-family="Arial" font-size="14.00" fill="#666666">[integer]</text>
<polygon fill="none" stroke="#000000" points="720,-295.5 720,-325.5 1119,-325.5 1119,-295.5 720,-295.5"/>
<text text-anchor="start" x="727" y="-306.9" font-family="Arial" font-size="14.00" fill="#000000">check_only    </text>
<text text-anchor="start" x="831.2244" y="-306.9" font-family="Arial" font-size="14.00" fill="#666666">[boolean]</text>
</g>
<!-- config.circ_limit_set_group_map&#45;&gt;config.circ_limit_group -->
<g id="edge2" class="edge">
<title>config.circ_limit_set_group_map:limit_group&#45;&gt;config.circ_limit_group:id</title>
<path fill="none" stroke="#000000" d="M709.8098,-338.8573C684.5014,-329.4164 699.7766,-281.4915 720,-253 748.0688,-213.4557 794.9312,-256.5443 823,-217 847.8248,-182.0259 865.8889,-120.5 823,-120.5"/>
<polygon fill="#000000" stroke="#000000" points="710.1275,-338.9084 719.2838,-344.9426 715.0637,-339.7042 720,-340.5 720,-340.5 720,-340.5 715.0637,-339.7042 720.7162,-336.0574 710.1275,-338.9084 710.1275,-338.9084"/>
<text text-anchor="start" x="727.4395" y="-350.5" font-family="Arial" font-size="10.00" fill="#000000">FOREIGN KEY (limit_group) REFERENCES config.circ_limit_group(id) ON DELETE CASCADE DEFERRABLE INITIALLY DEFERRED</text>
</g>
</g>
</svg>
