<?xml version="1.0" encoding="UTF-8" standalone="no"?>
<!DOCTYPE svg PUBLIC "-//W3C//DTD SVG 1.1//EN"
 "http://www.w3.org/Graphics/SVG/1.1/DTD/svg11.dtd">
<!-- Generated by graphviz version 2.40.1 (20161225.0304)
 -->
<!-- Title: config.marc21_ff_pos_map Pages: 1 -->
<svg width="458pt" height="345pt"
 viewBox="0.00 0.00 458.00 345.00" xmlns="http://www.w3.org/2000/svg" xmlns:xlink="http://www.w3.org/1999/xlink">
<g id="graph0" class="graph" transform="scale(1 1) rotate(0) translate(4 341)">
<title>config.marc21_ff_pos_map</title>
<polygon fill="#ffffff" stroke="transparent" points="-4,4 -4,-341 454,-341 454,4 -4,4"/>
<!-- config.marc21_ff_pos_map -->
<g id="node1" class="node">
<title>config.marc21_ff_pos_map</title>
<polygon fill="#efefef" stroke="transparent" points="46,-255.5 46,-290.5 404,-290.5 404,-255.5 46,-255.5"/>
<polygon fill="none" stroke="#000000" points="46,-255.5 46,-290.5 404,-290.5 404,-255.5 46,-255.5"/>
<text text-anchor="start" x="52.6859" y="-268.3" font-family="Arial Bold" font-size="18.00" fill="#000000">config.marc21_ff_pos_map</text>
<text text-anchor="start" x="269.7461" y="-268.3" font-family="Arial" font-size="14.00" fill="#000000">    </text>
<text text-anchor="start" x="303.9509" y="-268.3" font-family="Arial" font-size="14.00" fill="#666666">[BASE TABLE]</text>
<polygon fill="none" stroke="#000000" points="46,-225.5 46,-255.5 404,-255.5 404,-225.5 46,-225.5"/>
<text text-anchor="start" x="53" y="-236.9" font-family="Arial" font-size="14.00" fill="#000000">id </text>
<text text-anchor="start" x="67.7798" y="-236.9" font-family="Arial" font-size="14.00" fill="#666666">[integer]</text>
<polygon fill="none" stroke="#000000" points="46,-195.5 46,-225.5 404,-225.5 404,-195.5 46,-195.5"/>
<text text-anchor="start" x="53" y="-206.9" font-family="Arial" font-size="14.00" fill="#000000">fixed_field </text>
<text text-anchor="start" x="119.9046" y="-206.9" font-family="Arial" font-size="14.00" fill="#666666">[text]</text>
<polygon fill="none" stroke="#000000" points="46,-165.5 46,-195.5 404,-195.5 404,-165.5 46,-165.5"/>
<text text-anchor="start" x="53" y="-176.9" font-family="Arial" font-size="14.00" fill="#000000">tag </text>
<text text-anchor="start" x="76.3464" y="-176.9" font-family="Arial" font-size="14.00" fill="#666666">[text]</text>
<polygon fill="none" stroke="#000000" points="46,-135.5 46,-165.5 404,-165.5 404,-135.5 46,-135.5"/>
<text text-anchor="start" x="53" y="-146.9" font-family="Arial" font-size="14.00" fill="#000000">rec_type </text>
<text text-anchor="start" x="110.5722" y="-146.9" font-family="Arial" font-size="14.00" fill="#666666">[text]</text>
<polygon fill="none" stroke="#000000" points="46,-105.5 46,-135.5 404,-135.5 404,-105.5 46,-105.5"/>
<text text-anchor="start" x="53" y="-116.9" font-family="Arial" font-size="14.00" fill="#000000">start_pos </text>
<text text-anchor="start" x="114.4628" y="-116.9" font-family="Arial" font-size="14.00" fill="#666666">[integer]</text>
<polygon fill="none" stroke="#000000" points="46,-75.5 46,-105.5 404,-105.5 404,-75.5 46,-75.5"/>
<text text-anchor="start" x="53" y="-86.9" font-family="Arial" font-size="14.00" fill="#000000">length </text>
<text text-anchor="start" x="95.0182" y="-86.9" font-family="Arial" font-size="14.00" fill="#666666">[integer]</text>
<polygon fill="none" stroke="#000000" points="46,-45.5 46,-75.5 404,-75.5 404,-45.5 46,-45.5"/>
<text text-anchor="start" x="53" y="-56.9" font-family="Arial" font-size="14.00" fill="#000000">default_val </text>
<text text-anchor="start" x="124.5806" y="-56.9" font-family="Arial" font-size="14.00" fill="#666666">[text]</text>
<polygon fill="none" stroke="#000000" stroke-width="3" points="44.5,-44.5 44.5,-292.5 405.5,-292.5 405.5,-44.5 44.5,-44.5"/>
</g>
</g>
</svg>
