<?xml version="1.0" encoding="UTF-8" standalone="no"?>
<!DOCTYPE svg PUBLIC "-//W3C//DTD SVG 1.1//EN"
 "http://www.w3.org/Graphics/SVG/1.1/DTD/svg11.dtd">
<!-- Generated by graphviz version 2.40.1 (20161225.0304)
 -->
<!-- Title: config.sms_carrier Pages: 1 -->
<svg width="688pt" height="1552pt"
 viewBox="0.00 0.00 687.50 1552.00" xmlns="http://www.w3.org/2000/svg" xmlns:xlink="http://www.w3.org/1999/xlink">
<g id="graph0" class="graph" transform="scale(1 1) rotate(0) translate(4 1548)">
<title>config.sms_carrier</title>
<polygon fill="#ffffff" stroke="transparent" points="-4,4 -4,-1548 683.5,-1548 683.5,4 -4,4"/>
<!-- config.sms_carrier -->
<g id="node1" class="node">
<title>config.sms_carrier</title>
<polygon fill="#efefef" stroke="transparent" points="61.5,-195.5 61.5,-230.5 349.5,-230.5 349.5,-195.5 61.5,-195.5"/>
<polygon fill="none" stroke="#000000" points="61.5,-195.5 61.5,-230.5 349.5,-230.5 349.5,-195.5 61.5,-195.5"/>
<text text-anchor="start" x="68.2166" y="-208.3" font-family="Arial Bold" font-size="18.00" fill="#000000">config.sms_carrier</text>
<text text-anchor="start" x="215.2154" y="-208.3" font-family="Arial" font-size="14.00" fill="#000000">    </text>
<text text-anchor="start" x="249.4202" y="-208.3" font-family="Arial" font-size="14.00" fill="#666666">[BASE TABLE]</text>
<polygon fill="none" stroke="#000000" points="61.5,-165.5 61.5,-195.5 349.5,-195.5 349.5,-165.5 61.5,-165.5"/>
<text text-anchor="start" x="68.5" y="-176.9" font-family="Arial" font-size="14.00" fill="#000000">id </text>
<text text-anchor="start" x="83.2798" y="-176.9" font-family="Arial" font-size="14.00" fill="#666666">[integer]</text>
<polygon fill="none" stroke="#000000" points="61.5,-135.5 61.5,-165.5 349.5,-165.5 349.5,-135.5 61.5,-135.5"/>
<text text-anchor="start" x="68.5" y="-146.9" font-family="Arial" font-size="14.00" fill="#000000">region </text>
<text text-anchor="start" x="111.2882" y="-146.9" font-family="Arial" font-size="14.00" fill="#666666">[text]</text>
<polygon fill="none" stroke="#000000" points="61.5,-105.5 61.5,-135.5 349.5,-135.5 349.5,-105.5 61.5,-105.5"/>
<text text-anchor="start" x="68.5" y="-116.9" font-family="Arial" font-size="14.00" fill="#000000">name </text>
<text text-anchor="start" x="107.399" y="-116.9" font-family="Arial" font-size="14.00" fill="#666666">[text]</text>
<polygon fill="none" stroke="#000000" points="61.5,-75.5 61.5,-105.5 349.5,-105.5 349.5,-75.5 61.5,-75.5"/>
<text text-anchor="start" x="68.5" y="-86.9" font-family="Arial" font-size="14.00" fill="#000000">email_gateway </text>
<text text-anchor="start" x="165.7398" y="-86.9" font-family="Arial" font-size="14.00" fill="#666666">[text]</text>
<polygon fill="none" stroke="#000000" points="61.5,-45.5 61.5,-75.5 349.5,-75.5 349.5,-45.5 61.5,-45.5"/>
<text text-anchor="start" x="68.5" y="-56.9" font-family="Arial" font-size="14.00" fill="#000000">active </text>
<text text-anchor="start" x="108.953" y="-56.9" font-family="Arial" font-size="14.00" fill="#666666">[boolean]</text>
<polygon fill="none" stroke="#000000" stroke-width="3" points="60,-44.5 60,-232.5 351,-232.5 351,-44.5 60,-44.5"/>
</g>
<!-- action.hold_request -->
<g id="node2" class="node">
<title>action.hold_request</title>
<polygon fill="#efefef" stroke="transparent" points="43.5,-1465.5 43.5,-1500.5 366.5,-1500.5 366.5,-1465.5 43.5,-1465.5"/>
<polygon fill="none" stroke="#000000" points="43.5,-1465.5 43.5,-1500.5 366.5,-1500.5 366.5,-1465.5 43.5,-1465.5"/>
<text text-anchor="start" x="62.6883" y="-1478.3" font-family="Arial Bold" font-size="18.00" fill="#000000">action.hold_request</text>
<text text-anchor="start" x="219.7437" y="-1478.3" font-family="Arial" font-size="14.00" fill="#000000">    </text>
<text text-anchor="start" x="253.9485" y="-1478.3" font-family="Arial" font-size="14.00" fill="#666666">[BASE TABLE]</text>
<polygon fill="none" stroke="#000000" points="43.5,-1435.5 43.5,-1465.5 366.5,-1465.5 366.5,-1435.5 43.5,-1435.5"/>
<text text-anchor="start" x="50.5" y="-1446.9" font-family="Arial" font-size="14.00" fill="#000000">id    </text>
<text text-anchor="start" x="95.594" y="-1446.9" font-family="Arial" font-size="14.00" fill="#666666">[integer]</text>
<polygon fill="none" stroke="#000000" points="43.5,-1405.5 43.5,-1435.5 366.5,-1435.5 366.5,-1405.5 43.5,-1405.5"/>
<text text-anchor="start" x="50.5" y="-1416.9" font-family="Arial" font-size="14.00" fill="#000000">request_time    </text>
<text text-anchor="start" x="165.6094" y="-1416.9" font-family="Arial" font-size="14.00" fill="#666666">[timestamp with time zone]</text>
<polygon fill="none" stroke="#000000" points="43.5,-1375.5 43.5,-1405.5 366.5,-1405.5 366.5,-1375.5 43.5,-1375.5"/>
<text text-anchor="start" x="50.5" y="-1386.9" font-family="Arial" font-size="14.00" fill="#000000">capture_time    </text>
<text text-anchor="start" x="165.6094" y="-1386.9" font-family="Arial" font-size="14.00" fill="#666666">[timestamp with time zone]</text>
<polygon fill="none" stroke="#000000" points="43.5,-1345.5 43.5,-1375.5 366.5,-1375.5 366.5,-1345.5 43.5,-1345.5"/>
<text text-anchor="start" x="50.5" y="-1356.9" font-family="Arial" font-size="14.00" fill="#000000">fulfillment_time    </text>
<text text-anchor="start" x="178.0344" y="-1356.9" font-family="Arial" font-size="14.00" fill="#666666">[timestamp with time zone]</text>
<polygon fill="none" stroke="#000000" points="43.5,-1315.5 43.5,-1345.5 366.5,-1345.5 366.5,-1315.5 43.5,-1315.5"/>
<text text-anchor="start" x="50.5" y="-1326.9" font-family="Arial" font-size="14.00" fill="#000000">checkin_time    </text>
<text text-anchor="start" x="166.3822" y="-1326.9" font-family="Arial" font-size="14.00" fill="#666666">[timestamp with time zone]</text>
<polygon fill="none" stroke="#000000" points="43.5,-1285.5 43.5,-1315.5 366.5,-1315.5 366.5,-1285.5 43.5,-1285.5"/>
<text text-anchor="start" x="50.5" y="-1296.9" font-family="Arial" font-size="14.00" fill="#000000">return_time    </text>
<text text-anchor="start" x="155.4874" y="-1296.9" font-family="Arial" font-size="14.00" fill="#666666">[timestamp with time zone]</text>
<polygon fill="none" stroke="#000000" points="43.5,-1255.5 43.5,-1285.5 366.5,-1285.5 366.5,-1255.5 43.5,-1255.5"/>
<text text-anchor="start" x="50.5" y="-1266.9" font-family="Arial" font-size="14.00" fill="#000000">prev_check_time    </text>
<text text-anchor="start" x="190.5014" y="-1266.9" font-family="Arial" font-size="14.00" fill="#666666">[timestamp with time zone]</text>
<polygon fill="none" stroke="#000000" points="43.5,-1225.5 43.5,-1255.5 366.5,-1255.5 366.5,-1225.5 43.5,-1225.5"/>
<text text-anchor="start" x="50.5" y="-1236.9" font-family="Arial" font-size="14.00" fill="#000000">expire_time    </text>
<text text-anchor="start" x="157.0428" y="-1236.9" font-family="Arial" font-size="14.00" fill="#666666">[timestamp with time zone]</text>
<polygon fill="none" stroke="#000000" points="43.5,-1195.5 43.5,-1225.5 366.5,-1225.5 366.5,-1195.5 43.5,-1195.5"/>
<text text-anchor="start" x="50.5" y="-1206.9" font-family="Arial" font-size="14.00" fill="#000000">cancel_time    </text>
<text text-anchor="start" x="159.3822" y="-1206.9" font-family="Arial" font-size="14.00" fill="#666666">[timestamp with time zone]</text>
<polygon fill="none" stroke="#000000" points="43.5,-1165.5 43.5,-1195.5 366.5,-1195.5 366.5,-1165.5 43.5,-1165.5"/>
<text text-anchor="start" x="50.5" y="-1176.9" font-family="Arial" font-size="14.00" fill="#000000">cancel_cause    </text>
<text text-anchor="start" x="170.2896" y="-1176.9" font-family="Arial" font-size="14.00" fill="#666666">[integer]</text>
<polygon fill="none" stroke="#000000" points="43.5,-1135.5 43.5,-1165.5 366.5,-1165.5 366.5,-1135.5 43.5,-1135.5"/>
<text text-anchor="start" x="50.5" y="-1146.9" font-family="Arial" font-size="14.00" fill="#000000">cancel_note    </text>
<text text-anchor="start" x="160.1802" y="-1146.9" font-family="Arial" font-size="14.00" fill="#666666">[text]</text>
<polygon fill="none" stroke="#000000" points="43.5,-1105.5 43.5,-1135.5 366.5,-1135.5 366.5,-1105.5 43.5,-1105.5"/>
<text text-anchor="start" x="50.5" y="-1116.9" font-family="Arial" font-size="14.00" fill="#000000">target    </text>
<text text-anchor="start" x="120.4944" y="-1116.9" font-family="Arial" font-size="14.00" fill="#666666">[bigint]</text>
<polygon fill="none" stroke="#000000" points="43.5,-1075.5 43.5,-1105.5 366.5,-1105.5 366.5,-1075.5 43.5,-1075.5"/>
<text text-anchor="start" x="50.5" y="-1086.9" font-family="Arial" font-size="14.00" fill="#000000">current_copy    </text>
<text text-anchor="start" x="165.6122" y="-1086.9" font-family="Arial" font-size="14.00" fill="#666666">[bigint]</text>
<polygon fill="none" stroke="#000000" points="43.5,-1045.5 43.5,-1075.5 366.5,-1075.5 366.5,-1045.5 43.5,-1045.5"/>
<text text-anchor="start" x="50.5" y="-1056.9" font-family="Arial" font-size="14.00" fill="#000000">fulfillment_staff    </text>
<text text-anchor="start" x="178.0484" y="-1056.9" font-family="Arial" font-size="14.00" fill="#666666">[integer]</text>
<polygon fill="none" stroke="#000000" points="43.5,-1015.5 43.5,-1045.5 366.5,-1045.5 366.5,-1015.5 43.5,-1015.5"/>
<text text-anchor="start" x="50.5" y="-1026.9" font-family="Arial" font-size="14.00" fill="#000000">fulfillment_lib    </text>
<text text-anchor="start" x="165.5898" y="-1026.9" font-family="Arial" font-size="14.00" fill="#666666">[integer]</text>
<polygon fill="none" stroke="#000000" points="43.5,-985.5 43.5,-1015.5 366.5,-1015.5 366.5,-985.5 43.5,-985.5"/>
<text text-anchor="start" x="50.5" y="-996.9" font-family="Arial" font-size="14.00" fill="#000000">request_lib    </text>
<text text-anchor="start" x="153.1648" y="-996.9" font-family="Arial" font-size="14.00" fill="#666666">[integer]</text>
<polygon fill="none" stroke="#000000" points="43.5,-955.5 43.5,-985.5 366.5,-985.5 366.5,-955.5 43.5,-955.5"/>
<text text-anchor="start" x="50.5" y="-966.9" font-family="Arial" font-size="14.00" fill="#000000">requestor    </text>
<text text-anchor="start" x="143.8296" y="-966.9" font-family="Arial" font-size="14.00" fill="#666666">[integer]</text>
<polygon fill="none" stroke="#000000" points="43.5,-925.5 43.5,-955.5 366.5,-955.5 366.5,-925.5 43.5,-925.5"/>
<text text-anchor="start" x="50.5" y="-936.9" font-family="Arial" font-size="14.00" fill="#000000">usr    </text>
<text text-anchor="start" x="104.148" y="-936.9" font-family="Arial" font-size="14.00" fill="#666666">[integer]</text>
<polygon fill="none" stroke="#000000" points="43.5,-895.5 43.5,-925.5 366.5,-925.5 366.5,-895.5 43.5,-895.5"/>
<text text-anchor="start" x="50.5" y="-906.9" font-family="Arial" font-size="14.00" fill="#000000">selection_ou    </text>
<text text-anchor="start" x="163.2868" y="-906.9" font-family="Arial" font-size="14.00" fill="#666666">[integer]</text>
<polygon fill="none" stroke="#000000" points="43.5,-865.5 43.5,-895.5 366.5,-895.5 366.5,-865.5 43.5,-865.5"/>
<text text-anchor="start" x="50.5" y="-876.9" font-family="Arial" font-size="14.00" fill="#000000">selection_depth    </text>
<text text-anchor="start" x="182.7426" y="-876.9" font-family="Arial" font-size="14.00" fill="#666666">[integer]</text>
<polygon fill="none" stroke="#000000" points="43.5,-835.5 43.5,-865.5 366.5,-865.5 366.5,-835.5 43.5,-835.5"/>
<text text-anchor="start" x="50.5" y="-846.9" font-family="Arial" font-size="14.00" fill="#000000">pickup_lib    </text>
<text text-anchor="start" x="146.9376" y="-846.9" font-family="Arial" font-size="14.00" fill="#666666">[integer]</text>
<polygon fill="none" stroke="#000000" points="43.5,-805.5 43.5,-835.5 366.5,-835.5 366.5,-805.5 43.5,-805.5"/>
<text text-anchor="start" x="50.5" y="-816.9" font-family="Arial" font-size="14.00" fill="#000000">hold_type    </text>
<text text-anchor="start" x="145.3976" y="-816.9" font-family="Arial" font-size="14.00" fill="#666666">[text]</text>
<polygon fill="none" stroke="#000000" points="43.5,-775.5 43.5,-805.5 366.5,-805.5 366.5,-775.5 43.5,-775.5"/>
<text text-anchor="start" x="50.5" y="-786.9" font-family="Arial" font-size="14.00" fill="#000000">holdable_formats    </text>
<text text-anchor="start" x="192.0638" y="-786.9" font-family="Arial" font-size="14.00" fill="#666666">[text]</text>
<polygon fill="none" stroke="#000000" points="43.5,-745.5 43.5,-775.5 366.5,-775.5 366.5,-745.5 43.5,-745.5"/>
<text text-anchor="start" x="50.5" y="-756.9" font-family="Arial" font-size="14.00" fill="#000000">phone_notify    </text>
<text text-anchor="start" x="164.8534" y="-756.9" font-family="Arial" font-size="14.00" fill="#666666">[text]</text>
<polygon fill="none" stroke="#000000" points="43.5,-715.5 43.5,-745.5 366.5,-745.5 366.5,-715.5 43.5,-715.5"/>
<text text-anchor="start" x="50.5" y="-726.9" font-family="Arial" font-size="14.00" fill="#000000">email_notify    </text>
<text text-anchor="start" x="159.3794" y="-726.9" font-family="Arial" font-size="14.00" fill="#666666">[boolean]</text>
<polygon fill="none" stroke="#000000" points="43.5,-685.5 43.5,-715.5 366.5,-715.5 366.5,-685.5 43.5,-685.5"/>
<text text-anchor="start" x="50.5" y="-696.9" font-family="Arial" font-size="14.00" fill="#000000">sms_notify    </text>
<text text-anchor="start" x="151.601" y="-696.9" font-family="Arial" font-size="14.00" fill="#666666">[text]</text>
<polygon fill="none" stroke="#000000" points="43.5,-655.5 43.5,-685.5 366.5,-685.5 366.5,-655.5 43.5,-655.5"/>
<text text-anchor="start" x="50.5" y="-666.9" font-family="Arial" font-size="14.00" fill="#000000">sms_carrier    </text>
<text text-anchor="start" x="157.8016" y="-666.9" font-family="Arial" font-size="14.00" fill="#666666">[integer]</text>
<polygon fill="none" stroke="#000000" points="43.5,-625.5 43.5,-655.5 366.5,-655.5 366.5,-625.5 43.5,-625.5"/>
<text text-anchor="start" x="50.5" y="-636.9" font-family="Arial" font-size="14.00" fill="#000000">frozen    </text>
<text text-anchor="start" x="123.6038" y="-636.9" font-family="Arial" font-size="14.00" fill="#666666">[boolean]</text>
<polygon fill="none" stroke="#000000" points="43.5,-595.5 43.5,-625.5 366.5,-625.5 366.5,-595.5 43.5,-595.5"/>
<text text-anchor="start" x="50.5" y="-606.9" font-family="Arial" font-size="14.00" fill="#000000">thaw_date    </text>
<text text-anchor="start" x="149.2882" y="-606.9" font-family="Arial" font-size="14.00" fill="#666666">[timestamp with time zone]</text>
<polygon fill="none" stroke="#000000" points="43.5,-565.5 43.5,-595.5 366.5,-595.5 366.5,-565.5 43.5,-565.5"/>
<text text-anchor="start" x="50.5" y="-576.9" font-family="Arial" font-size="14.00" fill="#000000">shelf_time    </text>
<text text-anchor="start" x="148.4902" y="-576.9" font-family="Arial" font-size="14.00" fill="#666666">[timestamp with time zone]</text>
<polygon fill="none" stroke="#000000" points="43.5,-535.5 43.5,-565.5 366.5,-565.5 366.5,-535.5 43.5,-535.5"/>
<text text-anchor="start" x="50.5" y="-546.9" font-family="Arial" font-size="14.00" fill="#000000">cut_in_line    </text>
<text text-anchor="start" x="151.6108" y="-546.9" font-family="Arial" font-size="14.00" fill="#666666">[boolean]</text>
<polygon fill="none" stroke="#000000" points="43.5,-505.5 43.5,-535.5 366.5,-535.5 366.5,-505.5 43.5,-505.5"/>
<text text-anchor="start" x="50.5" y="-516.9" font-family="Arial" font-size="14.00" fill="#000000">mint_condition    </text>
<text text-anchor="start" x="174.9446" y="-516.9" font-family="Arial" font-size="14.00" fill="#666666">[boolean]</text>
<polygon fill="none" stroke="#000000" points="43.5,-475.5 43.5,-505.5 366.5,-505.5 366.5,-475.5 43.5,-475.5"/>
<text text-anchor="start" x="50.2139" y="-486.9" font-family="Arial" font-size="14.00" fill="#000000">shelf_expire_time    </text>
<text text-anchor="start" x="194.1017" y="-486.9" font-family="Arial" font-size="14.00" fill="#666666">[timestamp with time zone]</text>
<polygon fill="none" stroke="#000000" points="43.5,-445.5 43.5,-475.5 366.5,-475.5 366.5,-445.5 43.5,-445.5"/>
<text text-anchor="start" x="50.5" y="-456.9" font-family="Arial" font-size="14.00" fill="#000000">current_shelf_lib    </text>
<text text-anchor="start" x="187.3878" y="-456.9" font-family="Arial" font-size="14.00" fill="#666666">[integer]</text>
<polygon fill="none" stroke="#000000" points="43.5,-415.5 43.5,-445.5 366.5,-445.5 366.5,-415.5 43.5,-415.5"/>
<text text-anchor="start" x="50.5" y="-426.9" font-family="Arial" font-size="14.00" fill="#000000">behind_desk    </text>
<text text-anchor="start" x="164.0722" y="-426.9" font-family="Arial" font-size="14.00" fill="#666666">[boolean]</text>
<polygon fill="none" stroke="#000000" points="43.5,-385.5 43.5,-415.5 366.5,-415.5 366.5,-385.5 43.5,-385.5"/>
<text text-anchor="start" x="50.5" y="-396.9" font-family="Arial" font-size="14.00" fill="#000000">acq_request    </text>
<text text-anchor="start" x="161.7342" y="-396.9" font-family="Arial" font-size="14.00" fill="#666666">[integer]</text>
<polygon fill="none" stroke="#000000" points="43.5,-355.5 43.5,-385.5 366.5,-385.5 366.5,-355.5 43.5,-355.5"/>
<text text-anchor="start" x="50.5" y="-366.9" font-family="Arial" font-size="14.00" fill="#000000">hopeless_date    </text>
<text text-anchor="start" x="175.7454" y="-366.9" font-family="Arial" font-size="14.00" fill="#666666">[timestamp with time zone]</text>
</g>
<!-- action.hold_request&#45;&gt;config.sms_carrier -->
<g id="edge1" class="edge">
<title>action.hold_request:sms_carrier&#45;&gt;config.sms_carrier:id</title>
<path fill="none" stroke="#000000" d="M376.5713,-668.7439C443.4962,-644.1973 416.9097,-369.7096 366.5,-313 275.8155,-210.9822 152.1845,-379.0178 61.5,-277 33.0058,-244.9448 18.6111,-180.5 61.5,-180.5"/>
<polygon fill="#000000" stroke="#000000" points="376.3514,-668.7821 365.727,-666.0669 371.4257,-669.6411 366.5,-670.5 366.5,-670.5 366.5,-670.5 371.4257,-669.6411 367.273,-674.9331 376.3514,-668.7821 376.3514,-668.7821"/>
<text text-anchor="start" x="373.511" y="-680.5" font-family="Arial" font-size="10.00" fill="#000000">FOREIGN KEY (sms_carrier) REFERENCES config.sms_carrier(id)</text>
</g>
</g>
</svg>
