<?xml version="1.0" encoding="UTF-8" standalone="no"?>
<!DOCTYPE svg PUBLIC "-//W3C//DTD SVG 1.1//EN"
 "http://www.w3.org/Graphics/SVG/1.1/DTD/svg11.dtd">
<!-- Generated by graphviz version 2.40.1 (20161225.0304)
 -->
<!-- Title: config.z3950_source Pages: 1 -->
<svg width="1278pt" height="1019pt"
 viewBox="0.00 0.00 1278.00 1019.00" xmlns="http://www.w3.org/2000/svg" xmlns:xlink="http://www.w3.org/1999/xlink">
<g id="graph0" class="graph" transform="scale(1 1) rotate(0) translate(4 1015)">
<title>config.z3950_source</title>
<polygon fill="#ffffff" stroke="transparent" points="-4,4 -4,-1015 1274,-1015 1274,4 -4,4"/>
<!-- config.z3950_source -->
<g id="node1" class="node">
<title>config.z3950_source</title>
<polygon fill="#efefef" stroke="transparent" points="314,-562.5 314,-597.5 621,-597.5 621,-562.5 314,-562.5"/>
<polygon fill="none" stroke="#000000" points="314,-562.5 314,-597.5 621,-597.5 621,-562.5 314,-562.5"/>
<text text-anchor="start" x="320.6865" y="-575.3" font-family="Arial Bold" font-size="18.00" fill="#000000">config.z3950_source</text>
<text text-anchor="start" x="486.7455" y="-575.3" font-family="Arial" font-size="14.00" fill="#000000">    </text>
<text text-anchor="start" x="520.9503" y="-575.3" font-family="Arial" font-size="14.00" fill="#666666">[BASE TABLE]</text>
<polygon fill="none" stroke="#000000" points="314,-532.5 314,-562.5 621,-562.5 621,-532.5 314,-532.5"/>
<text text-anchor="start" x="321" y="-543.9" font-family="Arial" font-size="14.00" fill="#000000">name </text>
<text text-anchor="start" x="359.899" y="-543.9" font-family="Arial" font-size="14.00" fill="#666666">[text]</text>
<polygon fill="none" stroke="#000000" points="314,-502.5 314,-532.5 621,-532.5 621,-502.5 314,-502.5"/>
<text text-anchor="start" x="321" y="-513.9" font-family="Arial" font-size="14.00" fill="#000000">label </text>
<text text-anchor="start" x="354.4516" y="-513.9" font-family="Arial" font-size="14.00" fill="#666666">[text]</text>
<polygon fill="none" stroke="#000000" points="314,-472.5 314,-502.5 621,-502.5 621,-472.5 314,-472.5"/>
<text text-anchor="start" x="321" y="-483.9" font-family="Arial" font-size="14.00" fill="#000000">host </text>
<text text-anchor="start" x="351.3464" y="-483.9" font-family="Arial" font-size="14.00" fill="#666666">[text]</text>
<polygon fill="none" stroke="#000000" points="314,-442.5 314,-472.5 621,-472.5 621,-442.5 314,-442.5"/>
<text text-anchor="start" x="321" y="-453.9" font-family="Arial" font-size="14.00" fill="#000000">port </text>
<text text-anchor="start" x="349.007" y="-453.9" font-family="Arial" font-size="14.00" fill="#666666">[integer]</text>
<polygon fill="none" stroke="#000000" points="314,-412.5 314,-442.5 621,-442.5 621,-412.5 314,-412.5"/>
<text text-anchor="start" x="321" y="-423.9" font-family="Arial" font-size="14.00" fill="#000000">db </text>
<text text-anchor="start" x="340.4558" y="-423.9" font-family="Arial" font-size="14.00" fill="#666666">[text]</text>
<polygon fill="none" stroke="#000000" points="314,-382.5 314,-412.5 621,-412.5 621,-382.5 314,-382.5"/>
<text text-anchor="start" x="321" y="-393.9" font-family="Arial" font-size="14.00" fill="#000000">record_format </text>
<text text-anchor="start" x="412.0098" y="-393.9" font-family="Arial" font-size="14.00" fill="#666666">[text]</text>
<polygon fill="none" stroke="#000000" points="314,-352.5 314,-382.5 621,-382.5 621,-352.5 314,-352.5"/>
<text text-anchor="start" x="321" y="-363.9" font-family="Arial" font-size="14.00" fill="#000000">transmission_format </text>
<text text-anchor="start" x="450.8962" y="-363.9" font-family="Arial" font-size="14.00" fill="#666666">[text]</text>
<polygon fill="none" stroke="#000000" points="314,-322.5 314,-352.5 621,-352.5 621,-322.5 314,-322.5"/>
<text text-anchor="start" x="321" y="-333.9" font-family="Arial" font-size="14.00" fill="#000000">auth </text>
<text text-anchor="start" x="352.129" y="-333.9" font-family="Arial" font-size="14.00" fill="#666666">[boolean]</text>
<polygon fill="none" stroke="#000000" points="314,-292.5 314,-322.5 621,-322.5 621,-292.5 314,-292.5"/>
<text text-anchor="start" x="321" y="-303.9" font-family="Arial" font-size="14.00" fill="#000000">use_perm </text>
<text text-anchor="start" x="387.1248" y="-303.9" font-family="Arial" font-size="14.00" fill="#666666">[integer]</text>
<polygon fill="none" stroke="#000000" stroke-width="3" points="312,-291.5 312,-599.5 622,-599.5 622,-291.5 312,-291.5"/>
</g>
<!-- permission.perm_list -->
<g id="node4" class="node">
<title>permission.perm_list</title>
<polygon fill="#efefef" stroke="transparent" points="315,-132.5 315,-167.5 621,-167.5 621,-132.5 315,-132.5"/>
<polygon fill="none" stroke="#000000" points="315,-132.5 315,-167.5 621,-167.5 621,-132.5 315,-132.5"/>
<text text-anchor="start" x="321.7193" y="-145.3" font-family="Arial Bold" font-size="18.00" fill="#000000">permission.perm_list</text>
<text text-anchor="start" x="486.7127" y="-145.3" font-family="Arial" font-size="14.00" fill="#000000">    </text>
<text text-anchor="start" x="520.9175" y="-145.3" font-family="Arial" font-size="14.00" fill="#666666">[BASE TABLE]</text>
<polygon fill="none" stroke="#000000" points="315,-102.5 315,-132.5 621,-132.5 621,-102.5 315,-102.5"/>
<text text-anchor="start" x="322" y="-113.9" font-family="Arial" font-size="14.00" fill="#000000">id    </text>
<text text-anchor="start" x="367.094" y="-113.9" font-family="Arial" font-size="14.00" fill="#666666">[integer]</text>
<polygon fill="none" stroke="#000000" points="315,-72.5 315,-102.5 621,-102.5 621,-72.5 315,-72.5"/>
<text text-anchor="start" x="322" y="-83.9" font-family="Arial" font-size="14.00" fill="#000000">code    </text>
<text text-anchor="start" x="386.5526" y="-83.9" font-family="Arial" font-size="14.00" fill="#666666">[text]</text>
<polygon fill="none" stroke="#000000" points="315,-42.5 315,-72.5 621,-72.5 621,-42.5 315,-42.5"/>
<text text-anchor="start" x="322" y="-53.9" font-family="Arial" font-size="14.00" fill="#000000">description    </text>
<text text-anchor="start" x="423.8822" y="-53.9" font-family="Arial" font-size="14.00" fill="#666666">[text]</text>
</g>
<!-- config.z3950_source&#45;&gt;permission.perm_list -->
<g id="edge3" class="edge">
<title>config.z3950_source:use_perm&#45;&gt;permission.perm_list:id</title>
<path fill="none" stroke="#000000" d="M467.2111,-282.1747C457.107,-221.1657 352.7202,-273.8307 315,-211 293.6108,-175.3718 273.4444,-117.5 315,-117.5"/>
<polygon fill="#000000" stroke="#000000" points="467.2381,-282.5291 463.5131,-292.8429 467.619,-287.5145 468,-292.5 468,-292.5 468,-292.5 467.619,-287.5145 472.4869,-292.1571 467.2381,-282.5291 467.2381,-282.5291"/>
<text text-anchor="start" x="474.6105" y="-302.5" font-family="Arial" font-size="10.00" fill="#000000">FOREIGN KEY (use_perm) REFERENCES permission.perm_list(id) ON UPDATE CASCADE ON DELETE RESTRICT DEFERRABLE INITIALLY DEFERRED</text>
</g>
<!-- config.z3950_source_credentials -->
<g id="node2" class="node">
<title>config.z3950_source_credentials</title>
<polygon fill="#efefef" stroke="transparent" points="43,-902.5 43,-937.5 447,-937.5 447,-902.5 43,-902.5"/>
<polygon fill="none" stroke="#000000" points="43,-902.5 43,-937.5 447,-937.5 447,-902.5 43,-902.5"/>
<text text-anchor="start" x="49.6765" y="-915.3" font-family="Arial Bold" font-size="18.00" fill="#000000">config.z3950_source_credentials</text>
<text text-anchor="start" x="312.7555" y="-915.3" font-family="Arial" font-size="14.00" fill="#000000">    </text>
<text text-anchor="start" x="346.9603" y="-915.3" font-family="Arial" font-size="14.00" fill="#666666">[BASE TABLE]</text>
<polygon fill="none" stroke="#000000" points="43,-872.5 43,-902.5 447,-902.5 447,-872.5 43,-872.5"/>
<text text-anchor="start" x="50" y="-883.9" font-family="Arial" font-size="14.00" fill="#000000">id    </text>
<text text-anchor="start" x="95.094" y="-883.9" font-family="Arial" font-size="14.00" fill="#666666">[integer]</text>
<polygon fill="none" stroke="#000000" points="43,-842.5 43,-872.5 447,-872.5 447,-842.5 43,-842.5"/>
<text text-anchor="start" x="50" y="-853.9" font-family="Arial" font-size="14.00" fill="#000000">owner    </text>
<text text-anchor="start" x="122.3198" y="-853.9" font-family="Arial" font-size="14.00" fill="#666666">[integer]</text>
<polygon fill="none" stroke="#000000" points="43,-812.5 43,-842.5 447,-842.5 447,-812.5 43,-812.5"/>
<text text-anchor="start" x="50" y="-823.9" font-family="Arial" font-size="14.00" fill="#000000">source    </text>
<text text-anchor="start" x="126.2132" y="-823.9" font-family="Arial" font-size="14.00" fill="#666666">[text]</text>
<polygon fill="none" stroke="#000000" points="43,-782.5 43,-812.5 447,-812.5 447,-782.5 43,-782.5"/>
<text text-anchor="start" x="50" y="-793.9" font-family="Arial" font-size="14.00" fill="#000000">username    </text>
<text text-anchor="start" x="146.439" y="-793.9" font-family="Arial" font-size="14.00" fill="#666666">[text]</text>
<polygon fill="none" stroke="#000000" points="43,-752.5 43,-782.5 447,-782.5 447,-752.5 43,-752.5"/>
<text text-anchor="start" x="50" y="-763.9" font-family="Arial" font-size="14.00" fill="#000000">password    </text>
<text text-anchor="start" x="144.1024" y="-763.9" font-family="Arial" font-size="14.00" fill="#666666">[text]</text>
</g>
<!-- config.z3950_source_credentials&#45;&gt;config.z3950_source -->
<g id="edge1" class="edge">
<title>config.z3950_source_credentials:source&#45;&gt;config.z3950_source:name</title>
<path fill="none" stroke="#000000" d="M457.3867,-826.3333C495.5402,-816.8048 472.4791,-751.0875 447,-710 412.223,-653.9186 348.777,-700.0814 314,-644 291.3971,-607.5505 271.1111,-547.5 314,-547.5"/>
<polygon fill="#000000" stroke="#000000" points="456.9375,-826.3837 446.4977,-823.0281 451.9688,-826.9419 447,-827.5 447,-827.5 447,-827.5 451.9688,-826.9419 447.5023,-831.9719 456.9375,-826.3837 456.9375,-826.3837"/>
<text text-anchor="start" x="453.7535" y="-837.5" font-family="Arial" font-size="10.00" fill="#000000">FOREIGN KEY (source) REFERENCES config.z3950_source(name) ON UPDATE CASCADE ON DELETE CASCADE DEFERRABLE INITIALLY DEFERRED</text>
</g>
<!-- config.z3950_attr -->
<g id="node3" class="node">
<title>config.z3950_attr</title>
<polygon fill="#efefef" stroke="transparent" points="552,-932.5 552,-967.5 831,-967.5 831,-932.5 552,-932.5"/>
<polygon fill="none" stroke="#000000" points="552,-932.5 552,-967.5 831,-967.5 831,-932.5 552,-932.5"/>
<text text-anchor="start" x="558.6905" y="-945.3" font-family="Arial Bold" font-size="18.00" fill="#000000">config.z3950_attr</text>
<text text-anchor="start" x="696.7415" y="-945.3" font-family="Arial" font-size="14.00" fill="#000000">    </text>
<text text-anchor="start" x="730.9463" y="-945.3" font-family="Arial" font-size="14.00" fill="#666666">[BASE TABLE]</text>
<polygon fill="none" stroke="#000000" points="552,-902.5 552,-932.5 831,-932.5 831,-902.5 552,-902.5"/>
<text text-anchor="start" x="559" y="-913.9" font-family="Arial" font-size="14.00" fill="#000000">id    </text>
<text text-anchor="start" x="604.094" y="-913.9" font-family="Arial" font-size="14.00" fill="#666666">[integer]</text>
<polygon fill="none" stroke="#000000" points="552,-872.5 552,-902.5 831,-902.5 831,-872.5 552,-872.5"/>
<text text-anchor="start" x="559" y="-883.9" font-family="Arial" font-size="14.00" fill="#000000">source    </text>
<text text-anchor="start" x="635.2132" y="-883.9" font-family="Arial" font-size="14.00" fill="#666666">[text]</text>
<polygon fill="none" stroke="#000000" points="552,-842.5 552,-872.5 831,-872.5 831,-842.5 552,-842.5"/>
<text text-anchor="start" x="559" y="-853.9" font-family="Arial" font-size="14.00" fill="#000000">name    </text>
<text text-anchor="start" x="628.2132" y="-853.9" font-family="Arial" font-size="14.00" fill="#666666">[text]</text>
<polygon fill="none" stroke="#000000" points="552,-812.5 552,-842.5 831,-842.5 831,-812.5 552,-812.5"/>
<text text-anchor="start" x="559" y="-823.9" font-family="Arial" font-size="14.00" fill="#000000">label    </text>
<text text-anchor="start" x="622.7658" y="-823.9" font-family="Arial" font-size="14.00" fill="#666666">[text]</text>
<polygon fill="none" stroke="#000000" points="552,-782.5 552,-812.5 831,-812.5 831,-782.5 552,-782.5"/>
<text text-anchor="start" x="559" y="-793.9" font-family="Arial" font-size="14.00" fill="#000000">code    </text>
<text text-anchor="start" x="623.5526" y="-793.9" font-family="Arial" font-size="14.00" fill="#666666">[integer]</text>
<polygon fill="none" stroke="#000000" points="552,-752.5 552,-782.5 831,-782.5 831,-752.5 552,-752.5"/>
<text text-anchor="start" x="559" y="-763.9" font-family="Arial" font-size="14.00" fill="#000000">format    </text>
<text text-anchor="start" x="632.8724" y="-763.9" font-family="Arial" font-size="14.00" fill="#666666">[integer]</text>
<polygon fill="none" stroke="#000000" points="552,-722.5 552,-752.5 831,-752.5 831,-722.5 552,-722.5"/>
<text text-anchor="start" x="559" y="-733.9" font-family="Arial" font-size="14.00" fill="#000000">truncation    </text>
<text text-anchor="start" x="654.6662" y="-733.9" font-family="Arial" font-size="14.00" fill="#666666">[integer]</text>
</g>
<!-- config.z3950_attr&#45;&gt;config.z3950_source -->
<g id="edge2" class="edge">
<title>config.z3950_attr:source&#45;&gt;config.z3950_source:name</title>
<path fill="none" stroke="#000000" d="M542.4119,-884.5641C509.3692,-862.0245 529.9644,-716.3513 552,-680 569.9306,-650.4206 603.0694,-673.5794 621,-644 643.2327,-607.3235 663.8889,-547.5 621,-547.5"/>
<polygon fill="#000000" stroke="#000000" points="542.4382,-884.5721 550.6824,-891.8028 547.2191,-886.036 552,-887.5 552,-887.5 552,-887.5 547.2191,-886.036 553.3176,-883.1972 542.4382,-884.5721 542.4382,-884.5721"/>
<text text-anchor="start" x="558.7535" y="-897.5" font-family="Arial" font-size="10.00" fill="#000000">FOREIGN KEY (source) REFERENCES config.z3950_source(name) ON UPDATE CASCADE ON DELETE CASCADE DEFERRABLE INITIALLY DEFERRED</text>
</g>
</g>
</svg>
