<?xml version="1.0" encoding="UTF-8" standalone="no"?>
<!DOCTYPE svg PUBLIC "-//W3C//DTD SVG 1.1//EN"
 "http://www.w3.org/Graphics/SVG/1.1/DTD/svg11.dtd">
<!-- Generated by graphviz version 2.40.1 (20161225.0304)
 -->
<!-- Title: config.hold_type Pages: 1 -->
<svg width="882pt" height="1492pt"
 viewBox="0.00 0.00 881.50 1492.00" xmlns="http://www.w3.org/2000/svg" xmlns:xlink="http://www.w3.org/1999/xlink">
<g id="graph0" class="graph" transform="scale(1 1) rotate(0) translate(4 1488)">
<title>config.hold_type</title>
<polygon fill="#ffffff" stroke="transparent" points="-4,4 -4,-1488 877.5,-1488 877.5,4 -4,4"/>
<!-- config.hold_type -->
<g id="node1" class="node">
<title>config.hold_type</title>
<polygon fill="#efefef" stroke="transparent" points="69.5,-135.5 69.5,-170.5 341.5,-170.5 341.5,-135.5 69.5,-135.5"/>
<polygon fill="none" stroke="#000000" points="69.5,-135.5 69.5,-170.5 341.5,-170.5 341.5,-135.5 69.5,-135.5"/>
<text text-anchor="start" x="76.1906" y="-148.3" font-family="Arial Bold" font-size="18.00" fill="#000000">config.hold_type</text>
<text text-anchor="start" x="207.2414" y="-148.3" font-family="Arial" font-size="14.00" fill="#000000">    </text>
<text text-anchor="start" x="241.4462" y="-148.3" font-family="Arial" font-size="14.00" fill="#666666">[BASE TABLE]</text>
<polygon fill="none" stroke="#000000" points="69.5,-105.5 69.5,-135.5 341.5,-135.5 341.5,-105.5 69.5,-105.5"/>
<text text-anchor="start" x="76.5" y="-116.9" font-family="Arial" font-size="14.00" fill="#000000">id </text>
<text text-anchor="start" x="91.2798" y="-116.9" font-family="Arial" font-size="14.00" fill="#666666">[integer]</text>
<polygon fill="none" stroke="#000000" points="69.5,-75.5 69.5,-105.5 341.5,-105.5 341.5,-75.5 69.5,-75.5"/>
<text text-anchor="start" x="76.5" y="-86.9" font-family="Arial" font-size="14.00" fill="#000000">hold_type </text>
<text text-anchor="start" x="141.0834" y="-86.9" font-family="Arial" font-size="14.00" fill="#666666">[text]</text>
<polygon fill="none" stroke="#000000" points="69.5,-45.5 69.5,-75.5 341.5,-75.5 341.5,-45.5 69.5,-45.5"/>
<text text-anchor="start" x="76.5" y="-56.9" font-family="Arial" font-size="14.00" fill="#000000">description </text>
<text text-anchor="start" x="148.068" y="-56.9" font-family="Arial" font-size="14.00" fill="#666666">[text]</text>
<polygon fill="none" stroke="#000000" stroke-width="3" points="68,-44.5 68,-172.5 343,-172.5 343,-44.5 68,-44.5"/>
</g>
<!-- action.hold_request -->
<g id="node2" class="node">
<title>action.hold_request</title>
<polygon fill="#efefef" stroke="transparent" points="43.5,-1405.5 43.5,-1440.5 366.5,-1440.5 366.5,-1405.5 43.5,-1405.5"/>
<polygon fill="none" stroke="#000000" points="43.5,-1405.5 43.5,-1440.5 366.5,-1440.5 366.5,-1405.5 43.5,-1405.5"/>
<text text-anchor="start" x="62.6883" y="-1418.3" font-family="Arial Bold" font-size="18.00" fill="#000000">action.hold_request</text>
<text text-anchor="start" x="219.7437" y="-1418.3" font-family="Arial" font-size="14.00" fill="#000000">    </text>
<text text-anchor="start" x="253.9485" y="-1418.3" font-family="Arial" font-size="14.00" fill="#666666">[BASE TABLE]</text>
<polygon fill="none" stroke="#000000" points="43.5,-1375.5 43.5,-1405.5 366.5,-1405.5 366.5,-1375.5 43.5,-1375.5"/>
<text text-anchor="start" x="50.5" y="-1386.9" font-family="Arial" font-size="14.00" fill="#000000">id    </text>
<text text-anchor="start" x="95.594" y="-1386.9" font-family="Arial" font-size="14.00" fill="#666666">[integer]</text>
<polygon fill="none" stroke="#000000" points="43.5,-1345.5 43.5,-1375.5 366.5,-1375.5 366.5,-1345.5 43.5,-1345.5"/>
<text text-anchor="start" x="50.5" y="-1356.9" font-family="Arial" font-size="14.00" fill="#000000">request_time    </text>
<text text-anchor="start" x="165.6094" y="-1356.9" font-family="Arial" font-size="14.00" fill="#666666">[timestamp with time zone]</text>
<polygon fill="none" stroke="#000000" points="43.5,-1315.5 43.5,-1345.5 366.5,-1345.5 366.5,-1315.5 43.5,-1315.5"/>
<text text-anchor="start" x="50.5" y="-1326.9" font-family="Arial" font-size="14.00" fill="#000000">capture_time    </text>
<text text-anchor="start" x="165.6094" y="-1326.9" font-family="Arial" font-size="14.00" fill="#666666">[timestamp with time zone]</text>
<polygon fill="none" stroke="#000000" points="43.5,-1285.5 43.5,-1315.5 366.5,-1315.5 366.5,-1285.5 43.5,-1285.5"/>
<text text-anchor="start" x="50.5" y="-1296.9" font-family="Arial" font-size="14.00" fill="#000000">fulfillment_time    </text>
<text text-anchor="start" x="178.0344" y="-1296.9" font-family="Arial" font-size="14.00" fill="#666666">[timestamp with time zone]</text>
<polygon fill="none" stroke="#000000" points="43.5,-1255.5 43.5,-1285.5 366.5,-1285.5 366.5,-1255.5 43.5,-1255.5"/>
<text text-anchor="start" x="50.5" y="-1266.9" font-family="Arial" font-size="14.00" fill="#000000">checkin_time    </text>
<text text-anchor="start" x="166.3822" y="-1266.9" font-family="Arial" font-size="14.00" fill="#666666">[timestamp with time zone]</text>
<polygon fill="none" stroke="#000000" points="43.5,-1225.5 43.5,-1255.5 366.5,-1255.5 366.5,-1225.5 43.5,-1225.5"/>
<text text-anchor="start" x="50.5" y="-1236.9" font-family="Arial" font-size="14.00" fill="#000000">return_time    </text>
<text text-anchor="start" x="155.4874" y="-1236.9" font-family="Arial" font-size="14.00" fill="#666666">[timestamp with time zone]</text>
<polygon fill="none" stroke="#000000" points="43.5,-1195.5 43.5,-1225.5 366.5,-1225.5 366.5,-1195.5 43.5,-1195.5"/>
<text text-anchor="start" x="50.5" y="-1206.9" font-family="Arial" font-size="14.00" fill="#000000">prev_check_time    </text>
<text text-anchor="start" x="190.5014" y="-1206.9" font-family="Arial" font-size="14.00" fill="#666666">[timestamp with time zone]</text>
<polygon fill="none" stroke="#000000" points="43.5,-1165.5 43.5,-1195.5 366.5,-1195.5 366.5,-1165.5 43.5,-1165.5"/>
<text text-anchor="start" x="50.5" y="-1176.9" font-family="Arial" font-size="14.00" fill="#000000">expire_time    </text>
<text text-anchor="start" x="157.0428" y="-1176.9" font-family="Arial" font-size="14.00" fill="#666666">[timestamp with time zone]</text>
<polygon fill="none" stroke="#000000" points="43.5,-1135.5 43.5,-1165.5 366.5,-1165.5 366.5,-1135.5 43.5,-1135.5"/>
<text text-anchor="start" x="50.5" y="-1146.9" font-family="Arial" font-size="14.00" fill="#000000">cancel_time    </text>
<text text-anchor="start" x="159.3822" y="-1146.9" font-family="Arial" font-size="14.00" fill="#666666">[timestamp with time zone]</text>
<polygon fill="none" stroke="#000000" points="43.5,-1105.5 43.5,-1135.5 366.5,-1135.5 366.5,-1105.5 43.5,-1105.5"/>
<text text-anchor="start" x="50.5" y="-1116.9" font-family="Arial" font-size="14.00" fill="#000000">cancel_cause    </text>
<text text-anchor="start" x="170.2896" y="-1116.9" font-family="Arial" font-size="14.00" fill="#666666">[integer]</text>
<polygon fill="none" stroke="#000000" points="43.5,-1075.5 43.5,-1105.5 366.5,-1105.5 366.5,-1075.5 43.5,-1075.5"/>
<text text-anchor="start" x="50.5" y="-1086.9" font-family="Arial" font-size="14.00" fill="#000000">cancel_note    </text>
<text text-anchor="start" x="160.1802" y="-1086.9" font-family="Arial" font-size="14.00" fill="#666666">[text]</text>
<polygon fill="none" stroke="#000000" points="43.5,-1045.5 43.5,-1075.5 366.5,-1075.5 366.5,-1045.5 43.5,-1045.5"/>
<text text-anchor="start" x="50.5" y="-1056.9" font-family="Arial" font-size="14.00" fill="#000000">target    </text>
<text text-anchor="start" x="120.4944" y="-1056.9" font-family="Arial" font-size="14.00" fill="#666666">[bigint]</text>
<polygon fill="none" stroke="#000000" points="43.5,-1015.5 43.5,-1045.5 366.5,-1045.5 366.5,-1015.5 43.5,-1015.5"/>
<text text-anchor="start" x="50.5" y="-1026.9" font-family="Arial" font-size="14.00" fill="#000000">current_copy    </text>
<text text-anchor="start" x="165.6122" y="-1026.9" font-family="Arial" font-size="14.00" fill="#666666">[bigint]</text>
<polygon fill="none" stroke="#000000" points="43.5,-985.5 43.5,-1015.5 366.5,-1015.5 366.5,-985.5 43.5,-985.5"/>
<text text-anchor="start" x="50.5" y="-996.9" font-family="Arial" font-size="14.00" fill="#000000">fulfillment_staff    </text>
<text text-anchor="start" x="178.0484" y="-996.9" font-family="Arial" font-size="14.00" fill="#666666">[integer]</text>
<polygon fill="none" stroke="#000000" points="43.5,-955.5 43.5,-985.5 366.5,-985.5 366.5,-955.5 43.5,-955.5"/>
<text text-anchor="start" x="50.5" y="-966.9" font-family="Arial" font-size="14.00" fill="#000000">fulfillment_lib    </text>
<text text-anchor="start" x="165.5898" y="-966.9" font-family="Arial" font-size="14.00" fill="#666666">[integer]</text>
<polygon fill="none" stroke="#000000" points="43.5,-925.5 43.5,-955.5 366.5,-955.5 366.5,-925.5 43.5,-925.5"/>
<text text-anchor="start" x="50.5" y="-936.9" font-family="Arial" font-size="14.00" fill="#000000">request_lib    </text>
<text text-anchor="start" x="153.1648" y="-936.9" font-family="Arial" font-size="14.00" fill="#666666">[integer]</text>
<polygon fill="none" stroke="#000000" points="43.5,-895.5 43.5,-925.5 366.5,-925.5 366.5,-895.5 43.5,-895.5"/>
<text text-anchor="start" x="50.5" y="-906.9" font-family="Arial" font-size="14.00" fill="#000000">requestor    </text>
<text text-anchor="start" x="143.8296" y="-906.9" font-family="Arial" font-size="14.00" fill="#666666">[integer]</text>
<polygon fill="none" stroke="#000000" points="43.5,-865.5 43.5,-895.5 366.5,-895.5 366.5,-865.5 43.5,-865.5"/>
<text text-anchor="start" x="50.5" y="-876.9" font-family="Arial" font-size="14.00" fill="#000000">usr    </text>
<text text-anchor="start" x="104.148" y="-876.9" font-family="Arial" font-size="14.00" fill="#666666">[integer]</text>
<polygon fill="none" stroke="#000000" points="43.5,-835.5 43.5,-865.5 366.5,-865.5 366.5,-835.5 43.5,-835.5"/>
<text text-anchor="start" x="50.5" y="-846.9" font-family="Arial" font-size="14.00" fill="#000000">selection_ou    </text>
<text text-anchor="start" x="163.2868" y="-846.9" font-family="Arial" font-size="14.00" fill="#666666">[integer]</text>
<polygon fill="none" stroke="#000000" points="43.5,-805.5 43.5,-835.5 366.5,-835.5 366.5,-805.5 43.5,-805.5"/>
<text text-anchor="start" x="50.5" y="-816.9" font-family="Arial" font-size="14.00" fill="#000000">selection_depth    </text>
<text text-anchor="start" x="182.7426" y="-816.9" font-family="Arial" font-size="14.00" fill="#666666">[integer]</text>
<polygon fill="none" stroke="#000000" points="43.5,-775.5 43.5,-805.5 366.5,-805.5 366.5,-775.5 43.5,-775.5"/>
<text text-anchor="start" x="50.5" y="-786.9" font-family="Arial" font-size="14.00" fill="#000000">pickup_lib    </text>
<text text-anchor="start" x="146.9376" y="-786.9" font-family="Arial" font-size="14.00" fill="#666666">[integer]</text>
<polygon fill="none" stroke="#000000" points="43.5,-745.5 43.5,-775.5 366.5,-775.5 366.5,-745.5 43.5,-745.5"/>
<text text-anchor="start" x="50.5" y="-756.9" font-family="Arial" font-size="14.00" fill="#000000">hold_type    </text>
<text text-anchor="start" x="145.3976" y="-756.9" font-family="Arial" font-size="14.00" fill="#666666">[text]</text>
<polygon fill="none" stroke="#000000" points="43.5,-715.5 43.5,-745.5 366.5,-745.5 366.5,-715.5 43.5,-715.5"/>
<text text-anchor="start" x="50.5" y="-726.9" font-family="Arial" font-size="14.00" fill="#000000">holdable_formats    </text>
<text text-anchor="start" x="192.0638" y="-726.9" font-family="Arial" font-size="14.00" fill="#666666">[text]</text>
<polygon fill="none" stroke="#000000" points="43.5,-685.5 43.5,-715.5 366.5,-715.5 366.5,-685.5 43.5,-685.5"/>
<text text-anchor="start" x="50.5" y="-696.9" font-family="Arial" font-size="14.00" fill="#000000">phone_notify    </text>
<text text-anchor="start" x="164.8534" y="-696.9" font-family="Arial" font-size="14.00" fill="#666666">[text]</text>
<polygon fill="none" stroke="#000000" points="43.5,-655.5 43.5,-685.5 366.5,-685.5 366.5,-655.5 43.5,-655.5"/>
<text text-anchor="start" x="50.5" y="-666.9" font-family="Arial" font-size="14.00" fill="#000000">email_notify    </text>
<text text-anchor="start" x="159.3794" y="-666.9" font-family="Arial" font-size="14.00" fill="#666666">[boolean]</text>
<polygon fill="none" stroke="#000000" points="43.5,-625.5 43.5,-655.5 366.5,-655.5 366.5,-625.5 43.5,-625.5"/>
<text text-anchor="start" x="50.5" y="-636.9" font-family="Arial" font-size="14.00" fill="#000000">sms_notify    </text>
<text text-anchor="start" x="151.601" y="-636.9" font-family="Arial" font-size="14.00" fill="#666666">[text]</text>
<polygon fill="none" stroke="#000000" points="43.5,-595.5 43.5,-625.5 366.5,-625.5 366.5,-595.5 43.5,-595.5"/>
<text text-anchor="start" x="50.5" y="-606.9" font-family="Arial" font-size="14.00" fill="#000000">sms_carrier    </text>
<text text-anchor="start" x="157.8016" y="-606.9" font-family="Arial" font-size="14.00" fill="#666666">[integer]</text>
<polygon fill="none" stroke="#000000" points="43.5,-565.5 43.5,-595.5 366.5,-595.5 366.5,-565.5 43.5,-565.5"/>
<text text-anchor="start" x="50.5" y="-576.9" font-family="Arial" font-size="14.00" fill="#000000">frozen    </text>
<text text-anchor="start" x="123.6038" y="-576.9" font-family="Arial" font-size="14.00" fill="#666666">[boolean]</text>
<polygon fill="none" stroke="#000000" points="43.5,-535.5 43.5,-565.5 366.5,-565.5 366.5,-535.5 43.5,-535.5"/>
<text text-anchor="start" x="50.5" y="-546.9" font-family="Arial" font-size="14.00" fill="#000000">thaw_date    </text>
<text text-anchor="start" x="149.2882" y="-546.9" font-family="Arial" font-size="14.00" fill="#666666">[timestamp with time zone]</text>
<polygon fill="none" stroke="#000000" points="43.5,-505.5 43.5,-535.5 366.5,-535.5 366.5,-505.5 43.5,-505.5"/>
<text text-anchor="start" x="50.5" y="-516.9" font-family="Arial" font-size="14.00" fill="#000000">shelf_time    </text>
<text text-anchor="start" x="148.4902" y="-516.9" font-family="Arial" font-size="14.00" fill="#666666">[timestamp with time zone]</text>
<polygon fill="none" stroke="#000000" points="43.5,-475.5 43.5,-505.5 366.5,-505.5 366.5,-475.5 43.5,-475.5"/>
<text text-anchor="start" x="50.5" y="-486.9" font-family="Arial" font-size="14.00" fill="#000000">cut_in_line    </text>
<text text-anchor="start" x="151.6108" y="-486.9" font-family="Arial" font-size="14.00" fill="#666666">[boolean]</text>
<polygon fill="none" stroke="#000000" points="43.5,-445.5 43.5,-475.5 366.5,-475.5 366.5,-445.5 43.5,-445.5"/>
<text text-anchor="start" x="50.5" y="-456.9" font-family="Arial" font-size="14.00" fill="#000000">mint_condition    </text>
<text text-anchor="start" x="174.9446" y="-456.9" font-family="Arial" font-size="14.00" fill="#666666">[boolean]</text>
<polygon fill="none" stroke="#000000" points="43.5,-415.5 43.5,-445.5 366.5,-445.5 366.5,-415.5 43.5,-415.5"/>
<text text-anchor="start" x="50.2139" y="-426.9" font-family="Arial" font-size="14.00" fill="#000000">shelf_expire_time    </text>
<text text-anchor="start" x="194.1017" y="-426.9" font-family="Arial" font-size="14.00" fill="#666666">[timestamp with time zone]</text>
<polygon fill="none" stroke="#000000" points="43.5,-385.5 43.5,-415.5 366.5,-415.5 366.5,-385.5 43.5,-385.5"/>
<text text-anchor="start" x="50.5" y="-396.9" font-family="Arial" font-size="14.00" fill="#000000">current_shelf_lib    </text>
<text text-anchor="start" x="187.3878" y="-396.9" font-family="Arial" font-size="14.00" fill="#666666">[integer]</text>
<polygon fill="none" stroke="#000000" points="43.5,-355.5 43.5,-385.5 366.5,-385.5 366.5,-355.5 43.5,-355.5"/>
<text text-anchor="start" x="50.5" y="-366.9" font-family="Arial" font-size="14.00" fill="#000000">behind_desk    </text>
<text text-anchor="start" x="164.0722" y="-366.9" font-family="Arial" font-size="14.00" fill="#666666">[boolean]</text>
<polygon fill="none" stroke="#000000" points="43.5,-325.5 43.5,-355.5 366.5,-355.5 366.5,-325.5 43.5,-325.5"/>
<text text-anchor="start" x="50.5" y="-336.9" font-family="Arial" font-size="14.00" fill="#000000">acq_request    </text>
<text text-anchor="start" x="161.7342" y="-336.9" font-family="Arial" font-size="14.00" fill="#666666">[integer]</text>
<polygon fill="none" stroke="#000000" points="43.5,-295.5 43.5,-325.5 366.5,-325.5 366.5,-295.5 43.5,-295.5"/>
<text text-anchor="start" x="50.5" y="-306.9" font-family="Arial" font-size="14.00" fill="#000000">hopeless_date    </text>
<text text-anchor="start" x="175.7454" y="-306.9" font-family="Arial" font-size="14.00" fill="#666666">[timestamp with time zone]</text>
</g>
<!-- action.hold_request&#45;&gt;config.hold_type -->
<g id="edge1" class="edge">
<title>action.hold_request:hold_type&#45;&gt;config.hold_type:hold_type</title>
<path fill="none" stroke="#000000" d="M376.6347,-759.2837C476.8679,-734.3875 438.9569,-334.7699 366.5,-253 278.3168,-153.4825 157.6832,-316.5175 69.5,-217 32.2134,-174.9209 13.2778,-90.5 69.5,-90.5"/>
<polygon fill="#000000" stroke="#000000" points="376.4288,-759.3083 365.9638,-756.0321 371.4644,-759.9042 366.5,-760.5 366.5,-760.5 366.5,-760.5 371.4644,-759.9042 367.0362,-764.9679 376.4288,-759.3083 376.4288,-759.3083"/>
<text text-anchor="start" x="373.524" y="-770.5" font-family="Arial" font-size="10.00" fill="#000000">FOREIGN KEY (hold_type) REFERENCES config.hold_type(hold_type) DEFERRABLE INITIALLY DEFERRED</text>
</g>
</g>
</svg>
