<?xml version="1.0" encoding="UTF-8" standalone="no"?>
<!DOCTYPE svg PUBLIC "-//W3C//DTD SVG 1.1//EN"
 "http://www.w3.org/Graphics/SVG/1.1/DTD/svg11.dtd">
<!-- Generated by graphviz version 2.40.1 (20161225.0304)
 -->
<!-- Title: config.copy_alert_type Pages: 1 -->
<svg width="1070pt" height="1439pt"
 viewBox="0.00 0.00 1070.00 1439.00" xmlns="http://www.w3.org/2000/svg" xmlns:xlink="http://www.w3.org/1999/xlink">
<g id="graph0" class="graph" transform="scale(1 1) rotate(0) translate(4 1435)">
<title>config.copy_alert_type</title>
<polygon fill="#ffffff" stroke="transparent" points="-4,4 -4,-1435 1066,-1435 1066,4 -4,4"/>
<!-- config.copy_alert_type -->
<g id="node1" class="node">
<title>config.copy_alert_type</title>
<polygon fill="#efefef" stroke="transparent" points="398,-922.5 398,-957.5 719,-957.5 719,-922.5 398,-922.5"/>
<polygon fill="none" stroke="#000000" points="398,-922.5 398,-957.5 719,-957.5 719,-922.5 398,-922.5"/>
<text text-anchor="start" x="404.6872" y="-935.3" font-family="Arial Bold" font-size="18.00" fill="#000000">config.copy_alert_type</text>
<text text-anchor="start" x="584.7448" y="-935.3" font-family="Arial" font-size="14.00" fill="#000000">    </text>
<text text-anchor="start" x="618.9496" y="-935.3" font-family="Arial" font-size="14.00" fill="#666666">[BASE TABLE]</text>
<polygon fill="none" stroke="#000000" points="398,-892.5 398,-922.5 719,-922.5 719,-892.5 398,-892.5"/>
<text text-anchor="start" x="405" y="-903.9" font-family="Arial" font-size="14.00" fill="#000000">id </text>
<text text-anchor="start" x="419.7798" y="-903.9" font-family="Arial" font-size="14.00" fill="#666666">[integer]</text>
<polygon fill="none" stroke="#000000" points="398,-862.5 398,-892.5 719,-892.5 719,-862.5 398,-862.5"/>
<text text-anchor="start" x="405" y="-873.9" font-family="Arial" font-size="14.00" fill="#000000">scope_org </text>
<text text-anchor="start" x="474.2468" y="-873.9" font-family="Arial" font-size="14.00" fill="#666666">[integer]</text>
<polygon fill="none" stroke="#000000" points="398,-832.5 398,-862.5 719,-862.5 719,-832.5 398,-832.5"/>
<text text-anchor="start" x="405" y="-843.9" font-family="Arial" font-size="14.00" fill="#000000">active </text>
<text text-anchor="start" x="445.453" y="-843.9" font-family="Arial" font-size="14.00" fill="#666666">[boolean]</text>
<polygon fill="none" stroke="#000000" points="398,-802.5 398,-832.5 719,-832.5 719,-802.5 398,-802.5"/>
<text text-anchor="start" x="405" y="-813.9" font-family="Arial" font-size="14.00" fill="#000000">name </text>
<text text-anchor="start" x="443.899" y="-813.9" font-family="Arial" font-size="14.00" fill="#666666">[text]</text>
<polygon fill="none" stroke="#000000" points="398,-772.5 398,-802.5 719,-802.5 719,-772.5 398,-772.5"/>
<text text-anchor="start" x="405" y="-783.9" font-family="Arial" font-size="14.00" fill="#000000">state </text>
<text text-anchor="start" x="439.237" y="-783.9" font-family="Arial" font-size="14.00" fill="#666666">[config.copy_alert_type_state]</text>
<polygon fill="none" stroke="#000000" points="398,-742.5 398,-772.5 719,-772.5 719,-742.5 398,-742.5"/>
<text text-anchor="start" x="405" y="-753.9" font-family="Arial" font-size="14.00" fill="#000000">event </text>
<text text-anchor="start" x="443.129" y="-753.9" font-family="Arial" font-size="14.00" fill="#666666">[config.copy_alert_type_event]</text>
<polygon fill="none" stroke="#000000" points="398,-712.5 398,-742.5 719,-742.5 719,-712.5 398,-712.5"/>
<text text-anchor="start" x="405" y="-723.9" font-family="Arial" font-size="14.00" fill="#000000">in_renew </text>
<text text-anchor="start" x="465.6774" y="-723.9" font-family="Arial" font-size="14.00" fill="#666666">[boolean]</text>
<polygon fill="none" stroke="#000000" points="398,-682.5 398,-712.5 719,-712.5 719,-682.5 398,-682.5"/>
<text text-anchor="start" x="405" y="-693.9" font-family="Arial" font-size="14.00" fill="#000000">invert_location </text>
<text text-anchor="start" x="499.1304" y="-693.9" font-family="Arial" font-size="14.00" fill="#666666">[boolean]</text>
<polygon fill="none" stroke="#000000" points="398,-652.5 398,-682.5 719,-682.5 719,-652.5 398,-652.5"/>
<text text-anchor="start" x="405" y="-663.9" font-family="Arial" font-size="14.00" fill="#000000">at_circ </text>
<text text-anchor="start" x="450.1136" y="-663.9" font-family="Arial" font-size="14.00" fill="#666666">[boolean]</text>
<polygon fill="none" stroke="#000000" points="398,-622.5 398,-652.5 719,-652.5 719,-622.5 398,-622.5"/>
<text text-anchor="start" x="405" y="-633.9" font-family="Arial" font-size="14.00" fill="#000000">at_owning </text>
<text text-anchor="start" x="472.69" y="-633.9" font-family="Arial" font-size="14.00" fill="#666666">[boolean]</text>
<polygon fill="none" stroke="#000000" points="398,-592.5 398,-622.5 719,-622.5 719,-592.5 398,-592.5"/>
<text text-anchor="start" x="405" y="-603.9" font-family="Arial" font-size="14.00" fill="#000000">next_status </text>
<text text-anchor="start" x="480.4754" y="-603.9" font-family="Arial" font-size="14.00" fill="#666666">[integer[]]</text>
<polygon fill="none" stroke="#000000" stroke-width="3" points="396,-591.5 396,-959.5 720,-959.5 720,-591.5 396,-591.5"/>
</g>
<!-- actor.org_unit -->
<g id="node4" class="node">
<title>actor.org_unit</title>
<polygon fill="#efefef" stroke="transparent" points="433,-432.5 433,-467.5 684,-467.5 684,-432.5 433,-432.5"/>
<polygon fill="none" stroke="#000000" points="433,-432.5 433,-467.5 684,-467.5 684,-432.5 433,-432.5"/>
<text text-anchor="start" x="439.7017" y="-445.3" font-family="Arial Bold" font-size="18.00" fill="#000000">actor.org_unit</text>
<text text-anchor="start" x="549.7303" y="-445.3" font-family="Arial" font-size="14.00" fill="#000000">    </text>
<text text-anchor="start" x="583.9351" y="-445.3" font-family="Arial" font-size="14.00" fill="#666666">[BASE TABLE]</text>
<polygon fill="none" stroke="#000000" points="433,-402.5 433,-432.5 684,-432.5 684,-402.5 433,-402.5"/>
<text text-anchor="start" x="440" y="-413.9" font-family="Arial" font-size="14.00" fill="#000000">id    </text>
<text text-anchor="start" x="485.094" y="-413.9" font-family="Arial" font-size="14.00" fill="#666666">[integer]</text>
<polygon fill="none" stroke="#000000" points="433,-372.5 433,-402.5 684,-402.5 684,-372.5 433,-372.5"/>
<text text-anchor="start" x="440" y="-383.9" font-family="Arial" font-size="14.00" fill="#000000">parent_ou    </text>
<text text-anchor="start" x="537.2342" y="-383.9" font-family="Arial" font-size="14.00" fill="#666666">[integer]</text>
<polygon fill="none" stroke="#000000" points="433,-342.5 433,-372.5 684,-372.5 684,-342.5 433,-342.5"/>
<text text-anchor="start" x="440" y="-353.9" font-family="Arial" font-size="14.00" fill="#000000">ou_type    </text>
<text text-anchor="start" x="524.0084" y="-353.9" font-family="Arial" font-size="14.00" fill="#666666">[integer]</text>
<polygon fill="none" stroke="#000000" points="433,-312.5 433,-342.5 684,-342.5 684,-312.5 433,-312.5"/>
<text text-anchor="start" x="440" y="-323.9" font-family="Arial" font-size="14.00" fill="#000000">ill_address    </text>
<text text-anchor="start" x="541.0982" y="-323.9" font-family="Arial" font-size="14.00" fill="#666666">[integer]</text>
<polygon fill="none" stroke="#000000" points="433,-282.5 433,-312.5 684,-312.5 684,-282.5 433,-282.5"/>
<text text-anchor="start" x="440" y="-293.9" font-family="Arial" font-size="14.00" fill="#000000">holds_address    </text>
<text text-anchor="start" x="565.2328" y="-293.9" font-family="Arial" font-size="14.00" fill="#666666">[integer]</text>
<polygon fill="none" stroke="#000000" points="433,-252.5 433,-282.5 684,-282.5 684,-252.5 433,-252.5"/>
<text text-anchor="start" x="440" y="-263.9" font-family="Arial" font-size="14.00" fill="#000000">mailing_address    </text>
<text text-anchor="start" x="576.1066" y="-263.9" font-family="Arial" font-size="14.00" fill="#666666">[integer]</text>
<polygon fill="none" stroke="#000000" points="433,-222.5 433,-252.5 684,-252.5 684,-222.5 433,-222.5"/>
<text text-anchor="start" x="440" y="-233.9" font-family="Arial" font-size="14.00" fill="#000000">billing_address    </text>
<text text-anchor="start" x="567.5526" y="-233.9" font-family="Arial" font-size="14.00" fill="#666666">[integer]</text>
<polygon fill="none" stroke="#000000" points="433,-192.5 433,-222.5 684,-222.5 684,-192.5 433,-192.5"/>
<text text-anchor="start" x="440" y="-203.9" font-family="Arial" font-size="14.00" fill="#000000">shortname    </text>
<text text-anchor="start" x="540.3296" y="-203.9" font-family="Arial" font-size="14.00" fill="#666666">[text]</text>
<polygon fill="none" stroke="#000000" points="433,-162.5 433,-192.5 684,-192.5 684,-162.5 433,-162.5"/>
<text text-anchor="start" x="440" y="-173.9" font-family="Arial" font-size="14.00" fill="#000000">name    </text>
<text text-anchor="start" x="509.2132" y="-173.9" font-family="Arial" font-size="14.00" fill="#666666">[text]</text>
<polygon fill="none" stroke="#000000" points="433,-132.5 433,-162.5 684,-162.5 684,-132.5 433,-132.5"/>
<text text-anchor="start" x="440" y="-143.9" font-family="Arial" font-size="14.00" fill="#000000">email    </text>
<text text-anchor="start" x="507.6438" y="-143.9" font-family="Arial" font-size="14.00" fill="#666666">[text]</text>
<polygon fill="none" stroke="#000000" points="433,-102.5 433,-132.5 684,-132.5 684,-102.5 433,-102.5"/>
<text text-anchor="start" x="440" y="-113.9" font-family="Arial" font-size="14.00" fill="#000000">phone    </text>
<text text-anchor="start" x="513.1178" y="-113.9" font-family="Arial" font-size="14.00" fill="#666666">[text]</text>
<polygon fill="none" stroke="#000000" points="433,-72.5 433,-102.5 684,-102.5 684,-72.5 433,-72.5"/>
<text text-anchor="start" x="440" y="-83.9" font-family="Arial" font-size="14.00" fill="#000000">opac_visible    </text>
<text text-anchor="start" x="551.2202" y="-83.9" font-family="Arial" font-size="14.00" fill="#666666">[boolean]</text>
<polygon fill="none" stroke="#000000" points="433,-42.5 433,-72.5 684,-72.5 684,-42.5 433,-42.5"/>
<text text-anchor="start" x="440" y="-53.9" font-family="Arial" font-size="14.00" fill="#000000">fiscal_calendar    </text>
<text text-anchor="start" x="567.554" y="-53.9" font-family="Arial" font-size="14.00" fill="#666666">[integer]</text>
</g>
<!-- config.copy_alert_type&#45;&gt;actor.org_unit -->
<g id="edge3" class="edge">
<title>config.copy_alert_type:scope_org&#45;&gt;actor.org_unit:id</title>
<path fill="none" stroke="#000000" d="M387.9864,-877.1239C194.1736,-862.3533 231.3685,-417.5 433,-417.5"/>
<polygon fill="#000000" stroke="#000000" points="388.007,-877.1245 397.831,-881.9968 393.0035,-877.3123 398,-877.5 398,-877.5 398,-877.5 393.0035,-877.3123 398.169,-873.0032 388.007,-877.1245 388.007,-877.1245"/>
<text text-anchor="start" x="6.764" y="-887.5" font-family="Arial" font-size="10.00" fill="#000000">FOREIGN KEY (scope_org) REFERENCES actor.org_unit(id) ON DELETE CASCADE</text>
</g>
<!-- actor.copy_alert_suppress -->
<g id="node2" class="node">
<title>actor.copy_alert_suppress</title>
<polygon fill="#efefef" stroke="transparent" points="171,-1262.5 171,-1297.5 523,-1297.5 523,-1262.5 171,-1262.5"/>
<polygon fill="none" stroke="#000000" points="171,-1262.5 171,-1297.5 523,-1297.5 523,-1262.5 171,-1262.5"/>
<text text-anchor="start" x="177.6901" y="-1275.3" font-family="Arial Bold" font-size="18.00" fill="#000000">actor.copy_alert_suppress</text>
<text text-anchor="start" x="388.7419" y="-1275.3" font-family="Arial" font-size="14.00" fill="#000000">    </text>
<text text-anchor="start" x="422.9467" y="-1275.3" font-family="Arial" font-size="14.00" fill="#666666">[BASE TABLE]</text>
<polygon fill="none" stroke="#000000" points="171,-1232.5 171,-1262.5 523,-1262.5 523,-1232.5 171,-1232.5"/>
<text text-anchor="start" x="178" y="-1243.9" font-family="Arial" font-size="14.00" fill="#000000">id    </text>
<text text-anchor="start" x="223.094" y="-1243.9" font-family="Arial" font-size="14.00" fill="#666666">[integer]</text>
<polygon fill="none" stroke="#000000" points="171,-1202.5 171,-1232.5 523,-1232.5 523,-1202.5 171,-1202.5"/>
<text text-anchor="start" x="178" y="-1213.9" font-family="Arial" font-size="14.00" fill="#000000">org    </text>
<text text-anchor="start" x="232.4306" y="-1213.9" font-family="Arial" font-size="14.00" fill="#666666">[integer]</text>
<polygon fill="none" stroke="#000000" points="171,-1172.5 171,-1202.5 523,-1202.5 523,-1172.5 171,-1172.5"/>
<text text-anchor="start" x="178" y="-1183.9" font-family="Arial" font-size="14.00" fill="#000000">alert_type    </text>
<text text-anchor="start" x="273.6662" y="-1183.9" font-family="Arial" font-size="14.00" fill="#666666">[integer]</text>
</g>
<!-- actor.copy_alert_suppress&#45;&gt;config.copy_alert_type -->
<g id="edge1" class="edge">
<title>actor.copy_alert_suppress:alert_type&#45;&gt;config.copy_alert_type:id</title>
<path fill="none" stroke="#000000" d="M532.751,-1184.7223C543.2963,-1176.1596 531.0598,-1149.5683 523,-1130 492.9583,-1057.0623 428.0417,-1076.9377 398,-1004 381.6661,-964.3432 355.1111,-907.5 398,-907.5"/>
<polygon fill="#000000" stroke="#000000" points="532.6174,-1184.7603 521.7671,-1183.1722 527.8087,-1186.1301 523,-1187.5 523,-1187.5 523,-1187.5 527.8087,-1186.1301 524.2329,-1191.8278 532.6174,-1184.7603 532.6174,-1184.7603"/>
<text text-anchor="start" x="95.7025" y="-1197.5" font-family="Arial" font-size="10.00" fill="#000000">FOREIGN KEY (alert_type) REFERENCES config.copy_alert_type(id) ON DELETE CASCADE</text>
</g>
<!-- asset.copy_alert -->
<g id="node3" class="node">
<title>asset.copy_alert</title>
<polygon fill="#efefef" stroke="transparent" points="628,-1352.5 628,-1387.5 915,-1387.5 915,-1352.5 628,-1352.5"/>
<polygon fill="none" stroke="#000000" points="628,-1352.5 628,-1387.5 915,-1387.5 915,-1352.5 628,-1352.5"/>
<text text-anchor="start" x="642.1978" y="-1365.3" font-family="Arial Bold" font-size="18.00" fill="#000000">asset.copy_alert</text>
<text text-anchor="start" x="773.2342" y="-1365.3" font-family="Arial" font-size="14.00" fill="#000000">    </text>
<text text-anchor="start" x="807.439" y="-1365.3" font-family="Arial" font-size="14.00" fill="#666666">[BASE TABLE]</text>
<polygon fill="none" stroke="#000000" points="628,-1322.5 628,-1352.5 915,-1352.5 915,-1322.5 628,-1322.5"/>
<text text-anchor="start" x="635" y="-1333.9" font-family="Arial" font-size="14.00" fill="#000000">id    </text>
<text text-anchor="start" x="680.094" y="-1333.9" font-family="Arial" font-size="14.00" fill="#666666">[bigint]</text>
<polygon fill="none" stroke="#000000" points="628,-1292.5 628,-1322.5 915,-1322.5 915,-1292.5 628,-1292.5"/>
<text text-anchor="start" x="635" y="-1303.9" font-family="Arial" font-size="14.00" fill="#000000">alert_type    </text>
<text text-anchor="start" x="730.6662" y="-1303.9" font-family="Arial" font-size="14.00" fill="#666666">[integer]</text>
<polygon fill="none" stroke="#000000" points="628,-1262.5 628,-1292.5 915,-1292.5 915,-1262.5 628,-1262.5"/>
<text text-anchor="start" x="635" y="-1273.9" font-family="Arial" font-size="14.00" fill="#000000">copy    </text>
<text text-anchor="start" x="698.77" y="-1273.9" font-family="Arial" font-size="14.00" fill="#666666">[bigint]</text>
<polygon fill="none" stroke="#000000" points="628,-1232.5 628,-1262.5 915,-1262.5 915,-1232.5 628,-1232.5"/>
<text text-anchor="start" x="635" y="-1243.9" font-family="Arial" font-size="14.00" fill="#000000">temp    </text>
<text text-anchor="start" x="700.3212" y="-1243.9" font-family="Arial" font-size="14.00" fill="#666666">[boolean]</text>
<polygon fill="none" stroke="#000000" points="628,-1202.5 628,-1232.5 915,-1232.5 915,-1202.5 628,-1202.5"/>
<text text-anchor="start" x="634.9944" y="-1213.9" font-family="Arial" font-size="14.00" fill="#000000">create_time    </text>
<text text-anchor="start" x="742.3212" y="-1213.9" font-family="Arial" font-size="14.00" fill="#666666">[timestamp with time zone]</text>
<polygon fill="none" stroke="#000000" points="628,-1172.5 628,-1202.5 915,-1202.5 915,-1172.5 628,-1172.5"/>
<text text-anchor="start" x="635" y="-1183.9" font-family="Arial" font-size="14.00" fill="#000000">create_staff    </text>
<text text-anchor="start" x="742.3408" y="-1183.9" font-family="Arial" font-size="14.00" fill="#666666">[bigint]</text>
<polygon fill="none" stroke="#000000" points="628,-1142.5 628,-1172.5 915,-1172.5 915,-1142.5 628,-1142.5"/>
<text text-anchor="start" x="635" y="-1153.9" font-family="Arial" font-size="14.00" fill="#000000">note    </text>
<text text-anchor="start" x="696.4432" y="-1153.9" font-family="Arial" font-size="14.00" fill="#666666">[text]</text>
<polygon fill="none" stroke="#000000" points="628,-1112.5 628,-1142.5 915,-1142.5 915,-1112.5 628,-1112.5"/>
<text text-anchor="start" x="635" y="-1123.9" font-family="Arial" font-size="14.00" fill="#000000">ack_time    </text>
<text text-anchor="start" x="725.2104" y="-1123.9" font-family="Arial" font-size="14.00" fill="#666666">[timestamp with time zone]</text>
<polygon fill="none" stroke="#000000" points="628,-1082.5 628,-1112.5 915,-1112.5 915,-1082.5 628,-1082.5"/>
<text text-anchor="start" x="635" y="-1093.9" font-family="Arial" font-size="14.00" fill="#000000">ack_staff    </text>
<text text-anchor="start" x="725.2244" y="-1093.9" font-family="Arial" font-size="14.00" fill="#666666">[bigint]</text>
</g>
<!-- asset.copy_alert&#45;&gt;config.copy_alert_type -->
<g id="edge2" class="edge">
<title>asset.copy_alert:alert_type&#45;&gt;config.copy_alert_type:id</title>
<path fill="none" stroke="#000000" d="M618.1251,-1305.1848C571.7341,-1281.6807 596.6038,-1086.1841 628,-1040 652.4524,-1004.0301 694.5476,-1039.9699 719,-1004 743.1121,-968.5308 761.8889,-907.5 719,-907.5"/>
<polygon fill="#000000" stroke="#000000" points="618.264,-1305.2173 626.9728,-1311.8812 623.132,-1306.3586 628,-1307.5 628,-1307.5 628,-1307.5 623.132,-1306.3586 629.0272,-1303.1188 618.264,-1305.2173 618.264,-1305.2173"/>
<text text-anchor="start" x="634.7025" y="-1317.5" font-family="Arial" font-size="10.00" fill="#000000">FOREIGN KEY (alert_type) REFERENCES config.copy_alert_type(id) ON DELETE CASCADE</text>
</g>
</g>
</svg>
