<?xml version="1.0" encoding="UTF-8" standalone="no"?>
<!DOCTYPE svg PUBLIC "-//W3C//DTD SVG 1.1//EN"
 "http://www.w3.org/Graphics/SVG/1.1/DTD/svg11.dtd">
<!-- Generated by graphviz version 2.40.1 (20161225.0304)
 -->
<!-- Title: config.remoteauth_profile Pages: 1 -->
<svg width="1803pt" height="982pt"
 viewBox="0.00 0.00 1803.00 982.00" xmlns="http://www.w3.org/2000/svg" xmlns:xlink="http://www.w3.org/1999/xlink">
<g id="graph0" class="graph" transform="scale(1 1) rotate(0) translate(4 978)">
<title>config.remoteauth_profile</title>
<polygon fill="#ffffff" stroke="transparent" points="-4,4 -4,-978 1799,-978 1799,4 -4,4"/>
<!-- config.remoteauth_profile -->
<g id="node1" class="node">
<title>config.remoteauth_profile</title>
<polygon fill="#efefef" stroke="transparent" points="692,-892.5 692,-927.5 1036,-927.5 1036,-892.5 692,-892.5"/>
<polygon fill="none" stroke="#000000" points="692,-892.5 692,-927.5 1036,-927.5 1036,-892.5 692,-892.5"/>
<text text-anchor="start" x="698.6906" y="-905.3" font-family="Arial Bold" font-size="18.00" fill="#000000">config.remoteauth_profile</text>
<text text-anchor="start" x="901.7414" y="-905.3" font-family="Arial" font-size="14.00" fill="#000000">    </text>
<text text-anchor="start" x="935.9462" y="-905.3" font-family="Arial" font-size="14.00" fill="#666666">[BASE TABLE]</text>
<polygon fill="none" stroke="#000000" points="692,-862.5 692,-892.5 1036,-892.5 1036,-862.5 692,-862.5"/>
<text text-anchor="start" x="699" y="-873.9" font-family="Arial" font-size="14.00" fill="#000000">name </text>
<text text-anchor="start" x="737.899" y="-873.9" font-family="Arial" font-size="14.00" fill="#666666">[text]</text>
<polygon fill="none" stroke="#000000" points="692,-832.5 692,-862.5 1036,-862.5 1036,-832.5 692,-832.5"/>
<text text-anchor="start" x="699" y="-843.9" font-family="Arial" font-size="14.00" fill="#000000">description </text>
<text text-anchor="start" x="770.568" y="-843.9" font-family="Arial" font-size="14.00" fill="#666666">[text]</text>
<polygon fill="none" stroke="#000000" points="692,-802.5 692,-832.5 1036,-832.5 1036,-802.5 692,-802.5"/>
<text text-anchor="start" x="699" y="-813.9" font-family="Arial" font-size="14.00" fill="#000000">context_org </text>
<text text-anchor="start" x="776.028" y="-813.9" font-family="Arial" font-size="14.00" fill="#666666">[integer]</text>
<polygon fill="none" stroke="#000000" points="692,-772.5 692,-802.5 1036,-802.5 1036,-772.5 692,-772.5"/>
<text text-anchor="start" x="699" y="-783.9" font-family="Arial" font-size="14.00" fill="#000000">enabled </text>
<text text-anchor="start" x="752.6928" y="-783.9" font-family="Arial" font-size="14.00" fill="#666666">[boolean]</text>
<polygon fill="none" stroke="#000000" points="692,-742.5 692,-772.5 1036,-772.5 1036,-742.5 692,-742.5"/>
<text text-anchor="start" x="699" y="-753.9" font-family="Arial" font-size="14.00" fill="#000000">perm </text>
<text text-anchor="start" x="734.777" y="-753.9" font-family="Arial" font-size="14.00" fill="#666666">[integer]</text>
<polygon fill="none" stroke="#000000" points="692,-712.5 692,-742.5 1036,-742.5 1036,-712.5 692,-712.5"/>
<text text-anchor="start" x="699" y="-723.9" font-family="Arial" font-size="14.00" fill="#000000">restrict_to_org </text>
<text text-anchor="start" x="792.3464" y="-723.9" font-family="Arial" font-size="14.00" fill="#666666">[boolean]</text>
<polygon fill="none" stroke="#000000" points="692,-682.5 692,-712.5 1036,-712.5 1036,-682.5 692,-682.5"/>
<text text-anchor="start" x="699" y="-693.9" font-family="Arial" font-size="14.00" fill="#000000">allow_inactive </text>
<text text-anchor="start" x="790.0098" y="-693.9" font-family="Arial" font-size="14.00" fill="#666666">[boolean]</text>
<polygon fill="none" stroke="#000000" points="692,-652.5 692,-682.5 1036,-682.5 1036,-652.5 692,-652.5"/>
<text text-anchor="start" x="699" y="-663.9" font-family="Arial" font-size="14.00" fill="#000000">allow_expired </text>
<text text-anchor="start" x="788.4558" y="-663.9" font-family="Arial" font-size="14.00" fill="#666666">[boolean]</text>
<polygon fill="none" stroke="#000000" points="692,-622.5 692,-652.5 1036,-652.5 1036,-622.5 692,-622.5"/>
<text text-anchor="start" x="699" y="-633.9" font-family="Arial" font-size="14.00" fill="#000000">block_list </text>
<text text-anchor="start" x="760.4488" y="-633.9" font-family="Arial" font-size="14.00" fill="#666666">[text]</text>
<polygon fill="none" stroke="#000000" points="692,-592.5 692,-622.5 1036,-622.5 1036,-592.5 692,-592.5"/>
<text text-anchor="start" x="699" y="-603.9" font-family="Arial" font-size="14.00" fill="#000000">usr_activity_type </text>
<text text-anchor="start" x="807.1318" y="-603.9" font-family="Arial" font-size="14.00" fill="#666666">[integer]</text>
<polygon fill="none" stroke="#000000" stroke-width="3" points="690.5,-591.5 690.5,-929.5 1037.5,-929.5 1037.5,-591.5 690.5,-591.5"/>
</g>
<!-- actor.org_unit -->
<g id="node2" class="node">
<title>actor.org_unit</title>
<polygon fill="#efefef" stroke="transparent" points="356,-432.5 356,-467.5 607,-467.5 607,-432.5 356,-432.5"/>
<polygon fill="none" stroke="#000000" points="356,-432.5 356,-467.5 607,-467.5 607,-432.5 356,-432.5"/>
<text text-anchor="start" x="362.7017" y="-445.3" font-family="Arial Bold" font-size="18.00" fill="#000000">actor.org_unit</text>
<text text-anchor="start" x="472.7303" y="-445.3" font-family="Arial" font-size="14.00" fill="#000000">    </text>
<text text-anchor="start" x="506.9351" y="-445.3" font-family="Arial" font-size="14.00" fill="#666666">[BASE TABLE]</text>
<polygon fill="none" stroke="#000000" points="356,-402.5 356,-432.5 607,-432.5 607,-402.5 356,-402.5"/>
<text text-anchor="start" x="363" y="-413.9" font-family="Arial" font-size="14.00" fill="#000000">id    </text>
<text text-anchor="start" x="408.094" y="-413.9" font-family="Arial" font-size="14.00" fill="#666666">[integer]</text>
<polygon fill="none" stroke="#000000" points="356,-372.5 356,-402.5 607,-402.5 607,-372.5 356,-372.5"/>
<text text-anchor="start" x="363" y="-383.9" font-family="Arial" font-size="14.00" fill="#000000">parent_ou    </text>
<text text-anchor="start" x="460.2342" y="-383.9" font-family="Arial" font-size="14.00" fill="#666666">[integer]</text>
<polygon fill="none" stroke="#000000" points="356,-342.5 356,-372.5 607,-372.5 607,-342.5 356,-342.5"/>
<text text-anchor="start" x="363" y="-353.9" font-family="Arial" font-size="14.00" fill="#000000">ou_type    </text>
<text text-anchor="start" x="447.0084" y="-353.9" font-family="Arial" font-size="14.00" fill="#666666">[integer]</text>
<polygon fill="none" stroke="#000000" points="356,-312.5 356,-342.5 607,-342.5 607,-312.5 356,-312.5"/>
<text text-anchor="start" x="363" y="-323.9" font-family="Arial" font-size="14.00" fill="#000000">ill_address    </text>
<text text-anchor="start" x="464.0982" y="-323.9" font-family="Arial" font-size="14.00" fill="#666666">[integer]</text>
<polygon fill="none" stroke="#000000" points="356,-282.5 356,-312.5 607,-312.5 607,-282.5 356,-282.5"/>
<text text-anchor="start" x="363" y="-293.9" font-family="Arial" font-size="14.00" fill="#000000">holds_address    </text>
<text text-anchor="start" x="488.2328" y="-293.9" font-family="Arial" font-size="14.00" fill="#666666">[integer]</text>
<polygon fill="none" stroke="#000000" points="356,-252.5 356,-282.5 607,-282.5 607,-252.5 356,-252.5"/>
<text text-anchor="start" x="363" y="-263.9" font-family="Arial" font-size="14.00" fill="#000000">mailing_address    </text>
<text text-anchor="start" x="499.1066" y="-263.9" font-family="Arial" font-size="14.00" fill="#666666">[integer]</text>
<polygon fill="none" stroke="#000000" points="356,-222.5 356,-252.5 607,-252.5 607,-222.5 356,-222.5"/>
<text text-anchor="start" x="363" y="-233.9" font-family="Arial" font-size="14.00" fill="#000000">billing_address    </text>
<text text-anchor="start" x="490.5526" y="-233.9" font-family="Arial" font-size="14.00" fill="#666666">[integer]</text>
<polygon fill="none" stroke="#000000" points="356,-192.5 356,-222.5 607,-222.5 607,-192.5 356,-192.5"/>
<text text-anchor="start" x="363" y="-203.9" font-family="Arial" font-size="14.00" fill="#000000">shortname    </text>
<text text-anchor="start" x="463.3296" y="-203.9" font-family="Arial" font-size="14.00" fill="#666666">[text]</text>
<polygon fill="none" stroke="#000000" points="356,-162.5 356,-192.5 607,-192.5 607,-162.5 356,-162.5"/>
<text text-anchor="start" x="363" y="-173.9" font-family="Arial" font-size="14.00" fill="#000000">name    </text>
<text text-anchor="start" x="432.2132" y="-173.9" font-family="Arial" font-size="14.00" fill="#666666">[text]</text>
<polygon fill="none" stroke="#000000" points="356,-132.5 356,-162.5 607,-162.5 607,-132.5 356,-132.5"/>
<text text-anchor="start" x="363" y="-143.9" font-family="Arial" font-size="14.00" fill="#000000">email    </text>
<text text-anchor="start" x="430.6438" y="-143.9" font-family="Arial" font-size="14.00" fill="#666666">[text]</text>
<polygon fill="none" stroke="#000000" points="356,-102.5 356,-132.5 607,-132.5 607,-102.5 356,-102.5"/>
<text text-anchor="start" x="363" y="-113.9" font-family="Arial" font-size="14.00" fill="#000000">phone    </text>
<text text-anchor="start" x="436.1178" y="-113.9" font-family="Arial" font-size="14.00" fill="#666666">[text]</text>
<polygon fill="none" stroke="#000000" points="356,-72.5 356,-102.5 607,-102.5 607,-72.5 356,-72.5"/>
<text text-anchor="start" x="363" y="-83.9" font-family="Arial" font-size="14.00" fill="#000000">opac_visible    </text>
<text text-anchor="start" x="474.2202" y="-83.9" font-family="Arial" font-size="14.00" fill="#666666">[boolean]</text>
<polygon fill="none" stroke="#000000" points="356,-42.5 356,-72.5 607,-72.5 607,-42.5 356,-42.5"/>
<text text-anchor="start" x="363" y="-53.9" font-family="Arial" font-size="14.00" fill="#000000">fiscal_calendar    </text>
<text text-anchor="start" x="490.554" y="-53.9" font-family="Arial" font-size="14.00" fill="#666666">[integer]</text>
</g>
<!-- config.remoteauth_profile&#45;&gt;actor.org_unit -->
<g id="edge1" class="edge">
<title>config.remoteauth_profile:context_org&#45;&gt;actor.org_unit:id</title>
<path fill="none" stroke="#000000" d="M681.7393,-815.5365C608.747,-785.3604 694.1464,-417.5 607,-417.5"/>
<polygon fill="#000000" stroke="#000000" points="682.1782,-815.6204 691.1542,-821.9198 687.0891,-816.5602 692,-817.5 692,-817.5 692,-817.5 687.0891,-816.5602 692.8458,-813.0802 682.1782,-815.6204 682.1782,-815.6204"/>
<text text-anchor="start" x="6.814" y="-827.5" font-family="Arial" font-size="10.00" fill="#000000">FOREIGN KEY (context_org) REFERENCES actor.org_unit(id) ON UPDATE CASCADE ON DELETE CASCADE DEFERRABLE INITIALLY DEFERRED</text>
</g>
<!-- permission.perm_list -->
<g id="node3" class="node">
<title>permission.perm_list</title>
<polygon fill="#efefef" stroke="transparent" points="711,-282.5 711,-317.5 1017,-317.5 1017,-282.5 711,-282.5"/>
<polygon fill="none" stroke="#000000" points="711,-282.5 711,-317.5 1017,-317.5 1017,-282.5 711,-282.5"/>
<text text-anchor="start" x="717.7193" y="-295.3" font-family="Arial Bold" font-size="18.00" fill="#000000">permission.perm_list</text>
<text text-anchor="start" x="882.7127" y="-295.3" font-family="Arial" font-size="14.00" fill="#000000">    </text>
<text text-anchor="start" x="916.9175" y="-295.3" font-family="Arial" font-size="14.00" fill="#666666">[BASE TABLE]</text>
<polygon fill="none" stroke="#000000" points="711,-252.5 711,-282.5 1017,-282.5 1017,-252.5 711,-252.5"/>
<text text-anchor="start" x="718" y="-263.9" font-family="Arial" font-size="14.00" fill="#000000">id    </text>
<text text-anchor="start" x="763.094" y="-263.9" font-family="Arial" font-size="14.00" fill="#666666">[integer]</text>
<polygon fill="none" stroke="#000000" points="711,-222.5 711,-252.5 1017,-252.5 1017,-222.5 711,-222.5"/>
<text text-anchor="start" x="718" y="-233.9" font-family="Arial" font-size="14.00" fill="#000000">code    </text>
<text text-anchor="start" x="782.5526" y="-233.9" font-family="Arial" font-size="14.00" fill="#666666">[text]</text>
<polygon fill="none" stroke="#000000" points="711,-192.5 711,-222.5 1017,-222.5 1017,-192.5 711,-192.5"/>
<text text-anchor="start" x="718" y="-203.9" font-family="Arial" font-size="14.00" fill="#000000">description    </text>
<text text-anchor="start" x="819.8822" y="-203.9" font-family="Arial" font-size="14.00" fill="#666666">[text]</text>
</g>
<!-- config.remoteauth_profile&#45;&gt;permission.perm_list -->
<g id="edge2" class="edge">
<title>config.remoteauth_profile:perm&#45;&gt;permission.perm_list:id</title>
<path fill="none" stroke="#000000" d="M1044.8283,-752.6503C1088.137,-701.7604 1068.2929,-267.5 1017,-267.5"/>
<polygon fill="#000000" stroke="#000000" points="1044.7646,-752.6852 1033.8333,-753.5559 1040.3823,-755.0926 1036,-757.5 1036,-757.5 1036,-757.5 1040.3823,-755.0926 1038.1667,-761.4441 1044.7646,-752.6852 1044.7646,-752.6852"/>
<text text-anchor="start" x="1043.449" y="-767.5" font-family="Arial" font-size="10.00" fill="#000000">FOREIGN KEY (perm) REFERENCES permission.perm_list(id) ON UPDATE CASCADE ON DELETE RESTRICT DEFERRABLE INITIALLY DEFERRED</text>
</g>
<!-- config.usr_activity_type -->
<g id="node4" class="node">
<title>config.usr_activity_type</title>
<polygon fill="#efefef" stroke="transparent" points="1121,-357.5 1121,-392.5 1449,-392.5 1449,-357.5 1121,-357.5"/>
<polygon fill="none" stroke="#000000" points="1121,-357.5 1121,-392.5 1449,-392.5 1449,-357.5 1121,-357.5"/>
<text text-anchor="start" x="1127.6952" y="-370.3" font-family="Arial Bold" font-size="18.00" fill="#000000">config.usr_activity_type</text>
<text text-anchor="start" x="1314.7368" y="-370.3" font-family="Arial" font-size="14.00" fill="#000000">    </text>
<text text-anchor="start" x="1348.9416" y="-370.3" font-family="Arial" font-size="14.00" fill="#666666">[BASE TABLE]</text>
<polygon fill="none" stroke="#000000" points="1121,-327.5 1121,-357.5 1449,-357.5 1449,-327.5 1121,-327.5"/>
<text text-anchor="start" x="1128" y="-338.9" font-family="Arial" font-size="14.00" fill="#000000">id    </text>
<text text-anchor="start" x="1173.094" y="-338.9" font-family="Arial" font-size="14.00" fill="#666666">[integer]</text>
<polygon fill="none" stroke="#000000" points="1121,-297.5 1121,-327.5 1449,-327.5 1449,-297.5 1121,-297.5"/>
<text text-anchor="start" x="1128" y="-308.9" font-family="Arial" font-size="14.00" fill="#000000">ewho    </text>
<text text-anchor="start" x="1195.6592" y="-308.9" font-family="Arial" font-size="14.00" fill="#666666">[text]</text>
<polygon fill="none" stroke="#000000" points="1121,-267.5 1121,-297.5 1449,-297.5 1449,-267.5 1121,-267.5"/>
<text text-anchor="start" x="1128" y="-278.9" font-family="Arial" font-size="14.00" fill="#000000">ewhat    </text>
<text text-anchor="start" x="1199.5498" y="-278.9" font-family="Arial" font-size="14.00" fill="#666666">[text]</text>
<polygon fill="none" stroke="#000000" points="1121,-237.5 1121,-267.5 1449,-267.5 1449,-237.5 1121,-237.5"/>
<text text-anchor="start" x="1128" y="-248.9" font-family="Arial" font-size="14.00" fill="#000000">ehow    </text>
<text text-anchor="start" x="1195.6592" y="-248.9" font-family="Arial" font-size="14.00" fill="#666666">[text]</text>
<polygon fill="none" stroke="#000000" points="1121,-207.5 1121,-237.5 1449,-237.5 1449,-207.5 1121,-207.5"/>
<text text-anchor="start" x="1128" y="-218.9" font-family="Arial" font-size="14.00" fill="#000000">label    </text>
<text text-anchor="start" x="1191.7658" y="-218.9" font-family="Arial" font-size="14.00" fill="#666666">[text]</text>
<polygon fill="none" stroke="#000000" points="1121,-177.5 1121,-207.5 1449,-207.5 1449,-177.5 1121,-177.5"/>
<text text-anchor="start" x="1128" y="-188.9" font-family="Arial" font-size="14.00" fill="#000000">egroup    </text>
<text text-anchor="start" x="1205.7784" y="-188.9" font-family="Arial" font-size="14.00" fill="#666666">[config.usr_activity_group]</text>
<polygon fill="none" stroke="#000000" points="1121,-147.5 1121,-177.5 1449,-177.5 1449,-147.5 1121,-147.5"/>
<text text-anchor="start" x="1128" y="-158.9" font-family="Arial" font-size="14.00" fill="#000000">enabled    </text>
<text text-anchor="start" x="1212.007" y="-158.9" font-family="Arial" font-size="14.00" fill="#666666">[boolean]</text>
<polygon fill="none" stroke="#000000" points="1121,-117.5 1121,-147.5 1449,-147.5 1449,-117.5 1121,-117.5"/>
<text text-anchor="start" x="1128" y="-128.9" font-family="Arial" font-size="14.00" fill="#000000">transient    </text>
<text text-anchor="start" x="1215.8836" y="-128.9" font-family="Arial" font-size="14.00" fill="#666666">[boolean]</text>
</g>
<!-- config.remoteauth_profile&#45;&gt;config.usr_activity_type -->
<g id="edge3" class="edge">
<title>config.remoteauth_profile:usr_activity_type&#45;&gt;config.usr_activity_type:id</title>
<path fill="none" stroke="#000000" d="M1046.1488,-606.831C1150.4195,-592.2001 1000.9355,-342.5 1121,-342.5"/>
<polygon fill="#000000" stroke="#000000" points="1045.9783,-606.8421 1035.704,-603.0097 1040.9892,-607.1711 1036,-607.5 1036,-607.5 1036,-607.5 1040.9892,-607.1711 1036.296,-611.9903 1045.9783,-606.8421 1045.9783,-606.8421"/>
<text text-anchor="start" x="1043.4835" y="-617.5" font-family="Arial" font-size="10.00" fill="#000000">FOREIGN KEY (usr_activity_type) REFERENCES config.usr_activity_type(id) ON UPDATE CASCADE ON DELETE RESTRICT DEFERRABLE INITIALLY DEFERRED</text>
</g>
</g>
</svg>
