<?xml version="1.0" encoding="UTF-8" standalone="no"?>
<!DOCTYPE svg PUBLIC "-//W3C//DTD SVG 1.1//EN"
 "http://www.w3.org/Graphics/SVG/1.1/DTD/svg11.dtd">
<!-- Generated by graphviz version 2.40.1 (20161225.0304)
 -->
<!-- Title: config.display_field_map Pages: 1 -->
<svg width="679pt" height="922pt"
 viewBox="0.00 0.00 679.00 922.00" xmlns="http://www.w3.org/2000/svg" xmlns:xlink="http://www.w3.org/1999/xlink">
<g id="graph0" class="graph" transform="scale(1 1) rotate(0) translate(4 918)">
<title>config.display_field_map</title>
<polygon fill="#ffffff" stroke="transparent" points="-4,4 -4,-918 675,-918 675,4 -4,4"/>
<!-- config.display_field_map -->
<g id="node1" class="node">
<title>config.display_field_map</title>
<polygon fill="#efefef" stroke="transparent" points="287,-832.5 287,-867.5 625,-867.5 625,-832.5 287,-832.5"/>
<polygon fill="none" stroke="#000000" points="287,-832.5 287,-867.5 625,-867.5 625,-832.5 287,-832.5"/>
<text text-anchor="start" x="293.6939" y="-845.3" font-family="Arial Bold" font-size="18.00" fill="#000000">config.display_field_map</text>
<text text-anchor="start" x="490.7381" y="-845.3" font-family="Arial" font-size="14.00" fill="#000000">    </text>
<text text-anchor="start" x="524.9429" y="-845.3" font-family="Arial" font-size="14.00" fill="#666666">[BASE TABLE]</text>
<polygon fill="none" stroke="#000000" points="287,-802.5 287,-832.5 625,-832.5 625,-802.5 287,-802.5"/>
<text text-anchor="start" x="294" y="-813.9" font-family="Arial" font-size="14.00" fill="#000000">name </text>
<text text-anchor="start" x="332.899" y="-813.9" font-family="Arial" font-size="14.00" fill="#666666">[text]</text>
<polygon fill="none" stroke="#000000" points="287,-772.5 287,-802.5 625,-802.5 625,-772.5 287,-772.5"/>
<text text-anchor="start" x="294" y="-783.9" font-family="Arial" font-size="14.00" fill="#000000">field </text>
<text text-anchor="start" x="323.5596" y="-783.9" font-family="Arial" font-size="14.00" fill="#666666">[integer]</text>
<polygon fill="none" stroke="#000000" points="287,-742.5 287,-772.5 625,-772.5 625,-742.5 287,-742.5"/>
<text text-anchor="start" x="294" y="-753.9" font-family="Arial" font-size="14.00" fill="#000000">multi </text>
<text text-anchor="start" x="327.4376" y="-753.9" font-family="Arial" font-size="14.00" fill="#666666">[boolean]</text>
<polygon fill="none" stroke="#000000" stroke-width="3" points="285.5,-741.5 285.5,-869.5 626.5,-869.5 626.5,-741.5 285.5,-741.5"/>
</g>
<!-- config.metabib_field -->
<g id="node2" class="node">
<title>config.metabib_field</title>
<polygon fill="#efefef" stroke="transparent" points="305,-582.5 305,-617.5 606,-617.5 606,-582.5 305,-582.5"/>
<polygon fill="none" stroke="#000000" points="305,-582.5 305,-617.5 606,-617.5 606,-582.5 305,-582.5"/>
<text text-anchor="start" x="311.6961" y="-595.3" font-family="Arial Bold" font-size="18.00" fill="#000000">config.metabib_field</text>
<text text-anchor="start" x="471.7359" y="-595.3" font-family="Arial" font-size="14.00" fill="#000000">    </text>
<text text-anchor="start" x="505.9407" y="-595.3" font-family="Arial" font-size="14.00" fill="#666666">[BASE TABLE]</text>
<polygon fill="none" stroke="#000000" points="305,-552.5 305,-582.5 606,-582.5 606,-552.5 305,-552.5"/>
<text text-anchor="start" x="312" y="-563.9" font-family="Arial" font-size="14.00" fill="#000000">id    </text>
<text text-anchor="start" x="357.094" y="-563.9" font-family="Arial" font-size="14.00" fill="#666666">[integer]</text>
<polygon fill="none" stroke="#000000" points="305,-522.5 305,-552.5 606,-552.5 606,-522.5 305,-522.5"/>
<text text-anchor="start" x="312" y="-533.9" font-family="Arial" font-size="14.00" fill="#000000">field_class    </text>
<text text-anchor="start" x="411.5456" y="-533.9" font-family="Arial" font-size="14.00" fill="#666666">[text]</text>
<polygon fill="none" stroke="#000000" points="305,-492.5 305,-522.5 606,-522.5 606,-492.5 305,-492.5"/>
<text text-anchor="start" x="312" y="-503.9" font-family="Arial" font-size="14.00" fill="#000000">name    </text>
<text text-anchor="start" x="381.2132" y="-503.9" font-family="Arial" font-size="14.00" fill="#666666">[text]</text>
<polygon fill="none" stroke="#000000" points="305,-462.5 305,-492.5 606,-492.5 606,-462.5 305,-462.5"/>
<text text-anchor="start" x="312" y="-473.9" font-family="Arial" font-size="14.00" fill="#000000">label    </text>
<text text-anchor="start" x="375.7658" y="-473.9" font-family="Arial" font-size="14.00" fill="#666666">[text]</text>
<polygon fill="none" stroke="#000000" points="305,-432.5 305,-462.5 606,-462.5 606,-432.5 305,-432.5"/>
<text text-anchor="start" x="312" y="-443.9" font-family="Arial" font-size="14.00" fill="#000000">xpath    </text>
<text text-anchor="start" x="380.4432" y="-443.9" font-family="Arial" font-size="14.00" fill="#666666">[text]</text>
<polygon fill="none" stroke="#000000" points="305,-402.5 305,-432.5 606,-432.5 606,-402.5 305,-402.5"/>
<text text-anchor="start" x="312" y="-413.9" font-family="Arial" font-size="14.00" fill="#000000">weight    </text>
<text text-anchor="start" x="386.6564" y="-413.9" font-family="Arial" font-size="14.00" fill="#666666">[integer]</text>
<polygon fill="none" stroke="#000000" points="305,-372.5 305,-402.5 606,-402.5 606,-372.5 305,-372.5"/>
<text text-anchor="start" x="312" y="-383.9" font-family="Arial" font-size="14.00" fill="#000000">format    </text>
<text text-anchor="start" x="385.8724" y="-383.9" font-family="Arial" font-size="14.00" fill="#666666">[text]</text>
<polygon fill="none" stroke="#000000" points="305,-342.5 305,-372.5 606,-372.5 606,-342.5 305,-342.5"/>
<text text-anchor="start" x="312" y="-353.9" font-family="Arial" font-size="14.00" fill="#000000">search_field    </text>
<text text-anchor="start" x="421.6648" y="-353.9" font-family="Arial" font-size="14.00" fill="#666666">[boolean]</text>
<polygon fill="none" stroke="#000000" points="305,-312.5 305,-342.5 606,-342.5 606,-312.5 305,-312.5"/>
<text text-anchor="start" x="312" y="-323.9" font-family="Arial" font-size="14.00" fill="#000000">facet_field    </text>
<text text-anchor="start" x="410.0028" y="-323.9" font-family="Arial" font-size="14.00" fill="#666666">[boolean]</text>
<polygon fill="none" stroke="#000000" points="305,-282.5 305,-312.5 606,-312.5 606,-282.5 305,-282.5"/>
<text text-anchor="start" x="312" y="-293.9" font-family="Arial" font-size="14.00" fill="#000000">browse_field    </text>
<text text-anchor="start" x="424.7714" y="-293.9" font-family="Arial" font-size="14.00" fill="#666666">[boolean]</text>
<polygon fill="none" stroke="#000000" points="305,-252.5 305,-282.5 606,-282.5 606,-252.5 305,-252.5"/>
<text text-anchor="start" x="312" y="-263.9" font-family="Arial" font-size="14.00" fill="#000000">browse_xpath    </text>
<text text-anchor="start" x="433.3408" y="-263.9" font-family="Arial" font-size="14.00" fill="#666666">[text]</text>
<polygon fill="none" stroke="#000000" points="305,-222.5 305,-252.5 606,-252.5 606,-222.5 305,-222.5"/>
<text text-anchor="start" x="312" y="-233.9" font-family="Arial" font-size="14.00" fill="#000000">browse_sort_xpath    </text>
<text text-anchor="start" x="464.4572" y="-233.9" font-family="Arial" font-size="14.00" fill="#666666">[text]</text>
<polygon fill="none" stroke="#000000" points="305,-192.5 305,-222.5 606,-222.5 606,-192.5 305,-192.5"/>
<text text-anchor="start" x="312" y="-203.9" font-family="Arial" font-size="14.00" fill="#000000">facet_xpath    </text>
<text text-anchor="start" x="418.5722" y="-203.9" font-family="Arial" font-size="14.00" fill="#666666">[text]</text>
<polygon fill="none" stroke="#000000" points="305,-162.5 305,-192.5 606,-192.5 606,-162.5 305,-162.5"/>
<text text-anchor="start" x="312" y="-173.9" font-family="Arial" font-size="14.00" fill="#000000">display_xpath    </text>
<text text-anchor="start" x="431.7868" y="-173.9" font-family="Arial" font-size="14.00" fill="#666666">[text]</text>
<polygon fill="none" stroke="#000000" points="305,-132.5 305,-162.5 606,-162.5 606,-132.5 305,-132.5"/>
<text text-anchor="start" x="312" y="-143.9" font-family="Arial" font-size="14.00" fill="#000000">authority_xpath    </text>
<text text-anchor="start" x="441.9046" y="-143.9" font-family="Arial" font-size="14.00" fill="#666666">[text]</text>
<polygon fill="none" stroke="#000000" points="305,-102.5 305,-132.5 606,-132.5 606,-102.5 305,-102.5"/>
<text text-anchor="start" x="312" y="-113.9" font-family="Arial" font-size="14.00" fill="#000000">joiner    </text>
<text text-anchor="start" x="380.4264" y="-113.9" font-family="Arial" font-size="14.00" fill="#666666">[text]</text>
<polygon fill="none" stroke="#000000" points="305,-72.5 305,-102.5 606,-102.5 606,-72.5 305,-72.5"/>
<text text-anchor="start" x="312" y="-83.9" font-family="Arial" font-size="14.00" fill="#000000">restrict    </text>
<text text-anchor="start" x="388.1964" y="-83.9" font-family="Arial" font-size="14.00" fill="#666666">[boolean]</text>
<polygon fill="none" stroke="#000000" points="305,-42.5 305,-72.5 606,-72.5 606,-42.5 305,-42.5"/>
<text text-anchor="start" x="312" y="-53.9" font-family="Arial" font-size="14.00" fill="#000000">display_field    </text>
<text text-anchor="start" x="423.2174" y="-53.9" font-family="Arial" font-size="14.00" fill="#666666">[boolean]</text>
</g>
<!-- config.display_field_map&#45;&gt;config.metabib_field -->
<g id="edge1" class="edge">
<title>config.display_field_map:field&#45;&gt;config.metabib_field:id</title>
<path fill="none" stroke="#000000" d="M277.0688,-785.9796C249.4121,-776.4233 262.7132,-724.1818 287,-697 382.0634,-590.605 510.9366,-767.395 606,-661 633.6877,-630.012 647.5556,-567.5 606,-567.5"/>
<polygon fill="#000000" stroke="#000000" points="277.1152,-785.9866 286.319,-791.9482 282.0576,-786.7433 287,-787.5 287,-787.5 287,-787.5 282.0576,-786.7433 287.681,-783.0518 277.1152,-785.9866 277.1152,-785.9866"/>
<text text-anchor="start" x="7.327" y="-797.5" font-family="Arial" font-size="10.00" fill="#000000">FOREIGN KEY (field) REFERENCES config.metabib_field(id)</text>
</g>
</g>
</svg>
