<?xml version="1.0" encoding="UTF-8" standalone="no"?>
<!DOCTYPE svg PUBLIC "-//W3C//DTD SVG 1.1//EN"
 "http://www.w3.org/Graphics/SVG/1.1/DTD/svg11.dtd">
<!-- Generated by graphviz version 2.40.1 (20161225.0304)
 -->
<!-- Title: container.call_number_bucket Pages: 1 -->
<svg width="1637pt" height="2309pt"
 viewBox="0.00 0.00 1637.00 2309.00" xmlns="http://www.w3.org/2000/svg" xmlns:xlink="http://www.w3.org/1999/xlink">
<g id="graph0" class="graph" transform="scale(1 1) rotate(0) translate(4 2305)">
<title>container.call_number_bucket</title>
<polygon fill="#ffffff" stroke="transparent" points="-4,4 -4,-2305 1633,-2305 1633,4 -4,4"/>
<!-- container.call_number_bucket -->
<g id="node1" class="node">
<title>container.call_number_bucket</title>
<polygon fill="#efefef" stroke="transparent" points="645,-1912.5 645,-1947.5 1026,-1947.5 1026,-1912.5 645,-1912.5"/>
<polygon fill="none" stroke="#000000" points="645,-1912.5 645,-1947.5 1026,-1947.5 1026,-1912.5 645,-1912.5"/>
<text text-anchor="start" x="651.6866" y="-1925.3" font-family="Arial Bold" font-size="18.00" fill="#000000">container.call_number_bucket</text>
<text text-anchor="start" x="891.7454" y="-1925.3" font-family="Arial" font-size="14.00" fill="#000000">    </text>
<text text-anchor="start" x="925.9502" y="-1925.3" font-family="Arial" font-size="14.00" fill="#666666">[BASE TABLE]</text>
<polygon fill="none" stroke="#000000" points="645,-1882.5 645,-1912.5 1026,-1912.5 1026,-1882.5 645,-1882.5"/>
<text text-anchor="start" x="652" y="-1893.9" font-family="Arial" font-size="14.00" fill="#000000">id </text>
<text text-anchor="start" x="666.7798" y="-1893.9" font-family="Arial" font-size="14.00" fill="#666666">[integer]</text>
<polygon fill="none" stroke="#000000" points="645,-1852.5 645,-1882.5 1026,-1882.5 1026,-1852.5 645,-1852.5"/>
<text text-anchor="start" x="652" y="-1863.9" font-family="Arial" font-size="14.00" fill="#000000">owner </text>
<text text-anchor="start" x="694.0056" y="-1863.9" font-family="Arial" font-size="14.00" fill="#666666">[integer]</text>
<polygon fill="none" stroke="#000000" points="645,-1822.5 645,-1852.5 1026,-1852.5 1026,-1822.5 645,-1822.5"/>
<text text-anchor="start" x="652" y="-1833.9" font-family="Arial" font-size="14.00" fill="#000000">name </text>
<text text-anchor="start" x="690.899" y="-1833.9" font-family="Arial" font-size="14.00" fill="#666666">[text]</text>
<polygon fill="none" stroke="#000000" points="645,-1792.5 645,-1822.5 1026,-1822.5 1026,-1792.5 645,-1792.5"/>
<text text-anchor="start" x="652" y="-1803.9" font-family="Arial" font-size="14.00" fill="#000000">btype </text>
<text text-anchor="start" x="690.129" y="-1803.9" font-family="Arial" font-size="14.00" fill="#666666">[text]</text>
<polygon fill="none" stroke="#000000" points="645,-1762.5 645,-1792.5 1026,-1792.5 1026,-1762.5 645,-1762.5"/>
<text text-anchor="start" x="652" y="-1773.9" font-family="Arial" font-size="14.00" fill="#000000">description </text>
<text text-anchor="start" x="723.568" y="-1773.9" font-family="Arial" font-size="14.00" fill="#666666">[text]</text>
<polygon fill="none" stroke="#000000" points="645,-1732.5 645,-1762.5 1026,-1762.5 1026,-1732.5 645,-1732.5"/>
<text text-anchor="start" x="652" y="-1743.9" font-family="Arial" font-size="14.00" fill="#000000">pub </text>
<text text-anchor="start" x="679.2384" y="-1743.9" font-family="Arial" font-size="14.00" fill="#666666">[boolean]</text>
<polygon fill="none" stroke="#000000" points="645,-1702.5 645,-1732.5 1026,-1732.5 1026,-1702.5 645,-1702.5"/>
<text text-anchor="start" x="652" y="-1713.9" font-family="Arial" font-size="14.00" fill="#000000">owning_lib </text>
<text text-anchor="start" x="722.0126" y="-1713.9" font-family="Arial" font-size="14.00" fill="#666666">[integer]</text>
<polygon fill="none" stroke="#000000" points="645,-1672.5 645,-1702.5 1026,-1702.5 1026,-1672.5 645,-1672.5"/>
<text text-anchor="start" x="652" y="-1683.9" font-family="Arial" font-size="14.00" fill="#000000">create_time </text>
<text text-anchor="start" x="729.0126" y="-1683.9" font-family="Arial" font-size="14.00" fill="#666666">[timestamp with time zone]</text>
<polygon fill="none" stroke="#000000" stroke-width="3" points="643,-1671.5 643,-1949.5 1027,-1949.5 1027,-1671.5 643,-1671.5"/>
</g>
<!-- actor.usr -->
<g id="node4" class="node">
<title>actor.usr</title>
<polygon fill="#efefef" stroke="transparent" points="198,-1512.5 198,-1547.5 518,-1547.5 518,-1512.5 198,-1512.5"/>
<polygon fill="none" stroke="#000000" points="198,-1512.5 198,-1547.5 518,-1547.5 518,-1512.5 198,-1512.5"/>
<text text-anchor="start" x="259.2123" y="-1525.3" font-family="Arial Bold" font-size="18.00" fill="#000000">actor.usr</text>
<text text-anchor="start" x="329.2197" y="-1525.3" font-family="Arial" font-size="14.00" fill="#000000">    </text>
<text text-anchor="start" x="363.4245" y="-1525.3" font-family="Arial" font-size="14.00" fill="#666666">[BASE TABLE]</text>
<polygon fill="none" stroke="#000000" points="198,-1482.5 198,-1512.5 518,-1512.5 518,-1482.5 198,-1482.5"/>
<text text-anchor="start" x="205" y="-1493.9" font-family="Arial" font-size="14.00" fill="#000000">id    </text>
<text text-anchor="start" x="250.094" y="-1493.9" font-family="Arial" font-size="14.00" fill="#666666">[integer]</text>
<polygon fill="none" stroke="#000000" points="198,-1452.5 198,-1482.5 518,-1482.5 518,-1452.5 198,-1452.5"/>
<text text-anchor="start" x="205" y="-1463.9" font-family="Arial" font-size="14.00" fill="#000000">card    </text>
<text text-anchor="start" x="266.4306" y="-1463.9" font-family="Arial" font-size="14.00" fill="#666666">[integer]</text>
<polygon fill="none" stroke="#000000" points="198,-1422.5 198,-1452.5 518,-1452.5 518,-1422.5 198,-1422.5"/>
<text text-anchor="start" x="205" y="-1433.9" font-family="Arial" font-size="14.00" fill="#000000">profile    </text>
<text text-anchor="start" x="277.317" y="-1433.9" font-family="Arial" font-size="14.00" fill="#666666">[integer]</text>
<polygon fill="none" stroke="#000000" points="198,-1392.5 198,-1422.5 518,-1422.5 518,-1392.5 198,-1392.5"/>
<text text-anchor="start" x="205" y="-1403.9" font-family="Arial" font-size="14.00" fill="#000000">usrname    </text>
<text text-anchor="start" x="293.6564" y="-1403.9" font-family="Arial" font-size="14.00" fill="#666666">[text]</text>
<polygon fill="none" stroke="#000000" points="198,-1362.5 198,-1392.5 518,-1392.5 518,-1362.5 198,-1362.5"/>
<text text-anchor="start" x="205" y="-1373.9" font-family="Arial" font-size="14.00" fill="#000000">email    </text>
<text text-anchor="start" x="272.6438" y="-1373.9" font-family="Arial" font-size="14.00" fill="#666666">[text]</text>
<polygon fill="none" stroke="#000000" points="198,-1332.5 198,-1362.5 518,-1362.5 518,-1332.5 198,-1332.5"/>
<text text-anchor="start" x="205" y="-1343.9" font-family="Arial" font-size="14.00" fill="#000000">passwd    </text>
<text text-anchor="start" x="286.6592" y="-1343.9" font-family="Arial" font-size="14.00" fill="#666666">[text]</text>
<polygon fill="none" stroke="#000000" points="198,-1302.5 198,-1332.5 518,-1332.5 518,-1302.5 198,-1302.5"/>
<text text-anchor="start" x="205" y="-1313.9" font-family="Arial" font-size="14.00" fill="#000000">standing    </text>
<text text-anchor="start" x="292.115" y="-1313.9" font-family="Arial" font-size="14.00" fill="#666666">[integer]</text>
<polygon fill="none" stroke="#000000" points="198,-1272.5 198,-1302.5 518,-1302.5 518,-1272.5 198,-1272.5"/>
<text text-anchor="start" x="205" y="-1283.9" font-family="Arial" font-size="14.00" fill="#000000">ident_type    </text>
<text text-anchor="start" x="303.7882" y="-1283.9" font-family="Arial" font-size="14.00" fill="#666666">[integer]</text>
<polygon fill="none" stroke="#000000" points="198,-1242.5 198,-1272.5 518,-1272.5 518,-1242.5 198,-1242.5"/>
<text text-anchor="start" x="205" y="-1253.9" font-family="Arial" font-size="14.00" fill="#000000">ident_value    </text>
<text text-anchor="start" x="310.7868" y="-1253.9" font-family="Arial" font-size="14.00" fill="#666666">[text]</text>
<polygon fill="none" stroke="#000000" points="198,-1212.5 198,-1242.5 518,-1242.5 518,-1212.5 198,-1212.5"/>
<text text-anchor="start" x="205" y="-1223.9" font-family="Arial" font-size="14.00" fill="#000000">ident_type2    </text>
<text text-anchor="start" x="311.5708" y="-1223.9" font-family="Arial" font-size="14.00" fill="#666666">[integer]</text>
<polygon fill="none" stroke="#000000" points="198,-1182.5 198,-1212.5 518,-1212.5 518,-1182.5 198,-1182.5"/>
<text text-anchor="start" x="205" y="-1193.9" font-family="Arial" font-size="14.00" fill="#000000">ident_value2    </text>
<text text-anchor="start" x="318.5694" y="-1193.9" font-family="Arial" font-size="14.00" fill="#666666">[text]</text>
<polygon fill="none" stroke="#000000" points="198,-1152.5 198,-1182.5 518,-1182.5 518,-1152.5 198,-1152.5"/>
<text text-anchor="start" x="205" y="-1163.9" font-family="Arial" font-size="14.00" fill="#000000">net_access_level    </text>
<text text-anchor="start" x="346.5694" y="-1163.9" font-family="Arial" font-size="14.00" fill="#666666">[integer]</text>
<polygon fill="none" stroke="#000000" points="198,-1122.5 198,-1152.5 518,-1152.5 518,-1122.5 198,-1122.5"/>
<text text-anchor="start" x="205" y="-1133.9" font-family="Arial" font-size="14.00" fill="#000000">photo_url    </text>
<text text-anchor="start" x="297.5582" y="-1133.9" font-family="Arial" font-size="14.00" fill="#666666">[text]</text>
<polygon fill="none" stroke="#000000" points="198,-1092.5 198,-1122.5 518,-1122.5 518,-1092.5 198,-1092.5"/>
<text text-anchor="start" x="205" y="-1103.9" font-family="Arial" font-size="14.00" fill="#000000">prefix    </text>
<text text-anchor="start" x="273.4278" y="-1103.9" font-family="Arial" font-size="14.00" fill="#666666">[text]</text>
<polygon fill="none" stroke="#000000" points="198,-1062.5 198,-1092.5 518,-1092.5 518,-1062.5 198,-1062.5"/>
<text text-anchor="start" x="205" y="-1073.9" font-family="Arial" font-size="14.00" fill="#000000">first_given_name    </text>
<text text-anchor="start" x="345.7812" y="-1073.9" font-family="Arial" font-size="14.00" fill="#666666">[text]</text>
<polygon fill="none" stroke="#000000" points="198,-1032.5 198,-1062.5 518,-1062.5 518,-1032.5 198,-1032.5"/>
<text text-anchor="start" x="205" y="-1043.9" font-family="Arial" font-size="14.00" fill="#000000">second_given_name    </text>
<text text-anchor="start" x="368.3632" y="-1043.9" font-family="Arial" font-size="14.00" fill="#666666">[text]</text>
<polygon fill="none" stroke="#000000" points="198,-1002.5 198,-1032.5 518,-1032.5 518,-1002.5 198,-1002.5"/>
<text text-anchor="start" x="205" y="-1013.9" font-family="Arial" font-size="14.00" fill="#000000">family_name    </text>
<text text-anchor="start" x="318.5428" y="-1013.9" font-family="Arial" font-size="14.00" fill="#666666">[text]</text>
<polygon fill="none" stroke="#000000" points="198,-972.5 198,-1002.5 518,-1002.5 518,-972.5 198,-972.5"/>
<text text-anchor="start" x="205" y="-983.9" font-family="Arial" font-size="14.00" fill="#000000">suffix    </text>
<text text-anchor="start" x="271.8752" y="-983.9" font-family="Arial" font-size="14.00" fill="#666666">[text]</text>
<polygon fill="none" stroke="#000000" points="198,-942.5 198,-972.5 518,-972.5 518,-942.5 198,-942.5"/>
<text text-anchor="start" x="205" y="-953.9" font-family="Arial" font-size="14.00" fill="#000000">alias    </text>
<text text-anchor="start" x="267.9832" y="-953.9" font-family="Arial" font-size="14.00" fill="#666666">[text]</text>
<polygon fill="none" stroke="#000000" points="198,-912.5 198,-942.5 518,-942.5 518,-912.5 198,-912.5"/>
<text text-anchor="start" x="205" y="-923.9" font-family="Arial" font-size="14.00" fill="#000000">day_phone    </text>
<text text-anchor="start" x="308.4656" y="-923.9" font-family="Arial" font-size="14.00" fill="#666666">[text]</text>
<polygon fill="none" stroke="#000000" points="198,-882.5 198,-912.5 518,-912.5 518,-882.5 198,-882.5"/>
<text text-anchor="start" x="205" y="-893.9" font-family="Arial" font-size="14.00" fill="#000000">evening_phone    </text>
<text text-anchor="start" x="334.92" y="-893.9" font-family="Arial" font-size="14.00" fill="#666666">[text]</text>
<polygon fill="none" stroke="#000000" points="198,-852.5 198,-882.5 518,-882.5 518,-852.5 198,-852.5"/>
<text text-anchor="start" x="205" y="-863.9" font-family="Arial" font-size="14.00" fill="#000000">other_phone    </text>
<text text-anchor="start" x="317.7994" y="-863.9" font-family="Arial" font-size="14.00" fill="#666666">[text]</text>
<polygon fill="none" stroke="#000000" points="198,-822.5 198,-852.5 518,-852.5 518,-822.5 198,-822.5"/>
<text text-anchor="start" x="205" y="-833.9" font-family="Arial" font-size="14.00" fill="#000000">mailing_address    </text>
<text text-anchor="start" x="341.1066" y="-833.9" font-family="Arial" font-size="14.00" fill="#666666">[integer]</text>
<polygon fill="none" stroke="#000000" points="198,-792.5 198,-822.5 518,-822.5 518,-792.5 198,-792.5"/>
<text text-anchor="start" x="205" y="-803.9" font-family="Arial" font-size="14.00" fill="#000000">billing_address    </text>
<text text-anchor="start" x="332.5526" y="-803.9" font-family="Arial" font-size="14.00" fill="#666666">[integer]</text>
<polygon fill="none" stroke="#000000" points="198,-762.5 198,-792.5 518,-792.5 518,-762.5 198,-762.5"/>
<text text-anchor="start" x="205" y="-773.9" font-family="Arial" font-size="14.00" fill="#000000">home_ou    </text>
<text text-anchor="start" x="297.561" y="-773.9" font-family="Arial" font-size="14.00" fill="#666666">[integer]</text>
<polygon fill="none" stroke="#000000" points="198,-732.5 198,-762.5 518,-762.5 518,-732.5 198,-732.5"/>
<text text-anchor="start" x="205" y="-743.9" font-family="Arial" font-size="14.00" fill="#000000">dob    </text>
<text text-anchor="start" x="262.5526" y="-743.9" font-family="Arial" font-size="14.00" fill="#666666">[date]</text>
<polygon fill="none" stroke="#000000" points="198,-702.5 198,-732.5 518,-732.5 518,-702.5 198,-702.5"/>
<text text-anchor="start" x="205" y="-713.9" font-family="Arial" font-size="14.00" fill="#000000">active    </text>
<text text-anchor="start" x="275.7672" y="-713.9" font-family="Arial" font-size="14.00" fill="#666666">[boolean]</text>
<polygon fill="none" stroke="#000000" points="198,-672.5 198,-702.5 518,-702.5 518,-672.5 198,-672.5"/>
<text text-anchor="start" x="205" y="-683.9" font-family="Arial" font-size="14.00" fill="#000000">master_account    </text>
<text text-anchor="start" x="338.7854" y="-683.9" font-family="Arial" font-size="14.00" fill="#666666">[boolean]</text>
<polygon fill="none" stroke="#000000" points="198,-642.5 198,-672.5 518,-672.5 518,-642.5 198,-642.5"/>
<text text-anchor="start" x="205" y="-653.9" font-family="Arial" font-size="14.00" fill="#000000">super_user    </text>
<text text-anchor="start" x="309.2216" y="-653.9" font-family="Arial" font-size="14.00" fill="#666666">[boolean]</text>
<polygon fill="none" stroke="#000000" points="198,-612.5 198,-642.5 518,-642.5 518,-612.5 198,-612.5"/>
<text text-anchor="start" x="205" y="-623.9" font-family="Arial" font-size="14.00" fill="#000000">barred    </text>
<text text-anchor="start" x="279.6564" y="-623.9" font-family="Arial" font-size="14.00" fill="#666666">[boolean]</text>
<polygon fill="none" stroke="#000000" points="198,-582.5 198,-612.5 518,-612.5 518,-582.5 198,-582.5"/>
<text text-anchor="start" x="205" y="-593.9" font-family="Arial" font-size="14.00" fill="#000000">deleted    </text>
<text text-anchor="start" x="285.115" y="-593.9" font-family="Arial" font-size="14.00" fill="#666666">[boolean]</text>
<polygon fill="none" stroke="#000000" points="198,-552.5 198,-582.5 518,-582.5 518,-552.5 198,-552.5"/>
<text text-anchor="start" x="205" y="-563.9" font-family="Arial" font-size="14.00" fill="#000000">juvenile    </text>
<text text-anchor="start" x="286.655" y="-563.9" font-family="Arial" font-size="14.00" fill="#666666">[boolean]</text>
<polygon fill="none" stroke="#000000" points="198,-522.5 198,-552.5 518,-552.5 518,-522.5 198,-522.5"/>
<text text-anchor="start" x="205" y="-533.9" font-family="Arial" font-size="14.00" fill="#000000">usrgroup    </text>
<text text-anchor="start" x="294.439" y="-533.9" font-family="Arial" font-size="14.00" fill="#666666">[integer]</text>
<polygon fill="none" stroke="#000000" points="198,-492.5 198,-522.5 518,-522.5 518,-492.5 198,-492.5"/>
<text text-anchor="start" x="205" y="-503.9" font-family="Arial" font-size="14.00" fill="#000000">claims_returned_count    </text>
<text text-anchor="start" x="380.7896" y="-503.9" font-family="Arial" font-size="14.00" fill="#666666">[integer]</text>
<polygon fill="none" stroke="#000000" points="198,-462.5 198,-492.5 518,-492.5 518,-462.5 198,-462.5"/>
<text text-anchor="start" x="205" y="-473.9" font-family="Arial" font-size="14.00" fill="#000000">credit_forward_balance    </text>
<text text-anchor="start" x="384.6788" y="-473.9" font-family="Arial" font-size="14.00" fill="#666666">[numeric(6,2)]</text>
<polygon fill="none" stroke="#000000" points="198,-432.5 198,-462.5 518,-462.5 518,-432.5 198,-432.5"/>
<text text-anchor="start" x="205" y="-443.9" font-family="Arial" font-size="14.00" fill="#000000">last_xact_id    </text>
<text text-anchor="start" x="313.1122" y="-443.9" font-family="Arial" font-size="14.00" fill="#666666">[text]</text>
<polygon fill="none" stroke="#000000" points="198,-402.5 198,-432.5 518,-432.5 518,-402.5 198,-402.5"/>
<text text-anchor="start" x="205" y="-413.9" font-family="Arial" font-size="14.00" fill="#000000">alert_message    </text>
<text text-anchor="start" x="331.0014" y="-413.9" font-family="Arial" font-size="14.00" fill="#666666">[text]</text>
<polygon fill="none" stroke="#000000" points="198,-372.5 198,-402.5 518,-402.5 518,-372.5 198,-372.5"/>
<text text-anchor="start" x="205" y="-383.9" font-family="Arial" font-size="14.00" fill="#000000">create_date    </text>
<text text-anchor="start" x="313.1248" y="-383.9" font-family="Arial" font-size="14.00" fill="#666666">[timestamp with time zone]</text>
<polygon fill="none" stroke="#000000" points="198,-342.5 198,-372.5 518,-372.5 518,-342.5 198,-342.5"/>
<text text-anchor="start" x="205" y="-353.9" font-family="Arial" font-size="14.00" fill="#000000">expire_date    </text>
<text text-anchor="start" x="312.3408" y="-353.9" font-family="Arial" font-size="14.00" fill="#666666">[timestamp with time zone]</text>
<polygon fill="none" stroke="#000000" points="198,-312.5 198,-342.5 518,-342.5 518,-312.5 198,-312.5"/>
<text text-anchor="start" x="205" y="-323.9" font-family="Arial" font-size="14.00" fill="#000000">claims_never_checked_out_count    </text>
<text text-anchor="start" x="450.8246" y="-323.9" font-family="Arial" font-size="14.00" fill="#666666">[integer]</text>
<polygon fill="none" stroke="#000000" points="198,-282.5 198,-312.5 518,-312.5 518,-282.5 198,-282.5"/>
<text text-anchor="start" x="204.7609" y="-293.9" font-family="Arial" font-size="14.00" fill="#000000">last_update_time    </text>
<text text-anchor="start" x="345.5547" y="-293.9" font-family="Arial" font-size="14.00" fill="#666666">[timestamp with time zone]</text>
<polygon fill="none" stroke="#000000" points="198,-252.5 198,-282.5 518,-282.5 518,-252.5 198,-252.5"/>
<text text-anchor="start" x="205" y="-263.9" font-family="Arial" font-size="14.00" fill="#000000">pref_prefix    </text>
<text text-anchor="start" x="305.3268" y="-263.9" font-family="Arial" font-size="14.00" fill="#666666">[text]</text>
<polygon fill="none" stroke="#000000" points="198,-222.5 198,-252.5 518,-252.5 518,-222.5 198,-222.5"/>
<text text-anchor="start" x="205" y="-233.9" font-family="Arial" font-size="14.00" fill="#000000">pref_first_given_name    </text>
<text text-anchor="start" x="377.6802" y="-233.9" font-family="Arial" font-size="14.00" fill="#666666">[text]</text>
<polygon fill="none" stroke="#000000" points="198,-192.5 198,-222.5 518,-222.5 518,-192.5 198,-192.5"/>
<text text-anchor="start" x="205" y="-203.9" font-family="Arial" font-size="14.00" fill="#000000">pref_second_given_name    </text>
<text text-anchor="start" x="400.2622" y="-203.9" font-family="Arial" font-size="14.00" fill="#666666">[text]</text>
<polygon fill="none" stroke="#000000" points="198,-162.5 198,-192.5 518,-192.5 518,-162.5 198,-162.5"/>
<text text-anchor="start" x="205" y="-173.9" font-family="Arial" font-size="14.00" fill="#000000">pref_family_name    </text>
<text text-anchor="start" x="350.4418" y="-173.9" font-family="Arial" font-size="14.00" fill="#666666">[text]</text>
<polygon fill="none" stroke="#000000" points="198,-132.5 198,-162.5 518,-162.5 518,-132.5 198,-132.5"/>
<text text-anchor="start" x="205" y="-143.9" font-family="Arial" font-size="14.00" fill="#000000">pref_suffix    </text>
<text text-anchor="start" x="303.7742" y="-143.9" font-family="Arial" font-size="14.00" fill="#666666">[text]</text>
<polygon fill="none" stroke="#000000" points="198,-102.5 198,-132.5 518,-132.5 518,-102.5 198,-102.5"/>
<text text-anchor="start" x="205" y="-113.9" font-family="Arial" font-size="14.00" fill="#000000">name_keywords    </text>
<text text-anchor="start" x="341.1108" y="-113.9" font-family="Arial" font-size="14.00" fill="#666666">[text]</text>
<polygon fill="none" stroke="#000000" points="198,-72.5 198,-102.5 518,-102.5 518,-72.5 198,-72.5"/>
<text text-anchor="start" x="205" y="-83.9" font-family="Arial" font-size="14.00" fill="#000000">name_kw_tsvector    </text>
<text text-anchor="start" x="355.892" y="-83.9" font-family="Arial" font-size="14.00" fill="#666666">[tsvector]</text>
<polygon fill="none" stroke="#000000" points="198,-42.5 198,-72.5 518,-72.5 518,-42.5 198,-42.5"/>
<text text-anchor="start" x="205" y="-53.9" font-family="Arial" font-size="14.00" fill="#000000">guardian    </text>
<text text-anchor="start" x="293.6676" y="-53.9" font-family="Arial" font-size="14.00" fill="#666666">[text]</text>
</g>
<!-- container.call_number_bucket&#45;&gt;actor.usr -->
<g id="edge3" class="edge">
<title>container.call_number_bucket:owner&#45;&gt;actor.usr:id</title>
<path fill="none" stroke="#000000" d="M634.9602,-1865.6837C561.6881,-1837.7709 601.3654,-1497.5 518,-1497.5"/>
<polygon fill="#000000" stroke="#000000" points="635.1597,-1865.7197 644.1989,-1871.9281 640.0799,-1866.6099 645,-1867.5 645,-1867.5 645,-1867.5 640.0799,-1866.6099 645.8011,-1863.0719 635.1597,-1865.7197 635.1597,-1865.7197"/>
<text text-anchor="start" x="7.439" y="-1877.5" font-family="Arial" font-size="10.00" fill="#000000">FOREIGN KEY (owner) REFERENCES actor.usr(id) ON UPDATE CASCADE ON DELETE CASCADE DEFERRABLE INITIALLY DEFERRED</text>
</g>
<!-- container.call_number_bucket_type -->
<g id="node5" class="node">
<title>container.call_number_bucket_type</title>
<polygon fill="#efefef" stroke="transparent" points="623,-807.5 623,-842.5 1048,-842.5 1048,-807.5 623,-807.5"/>
<polygon fill="none" stroke="#000000" points="623,-807.5 623,-842.5 1048,-842.5 1048,-807.5 623,-807.5"/>
<text text-anchor="start" x="629.6762" y="-820.3" font-family="Arial Bold" font-size="18.00" fill="#000000">container.call_number_bucket_type</text>
<text text-anchor="start" x="913.7558" y="-820.3" font-family="Arial" font-size="14.00" fill="#000000">    </text>
<text text-anchor="start" x="947.9606" y="-820.3" font-family="Arial" font-size="14.00" fill="#666666">[BASE TABLE]</text>
<polygon fill="none" stroke="#000000" points="623,-777.5 623,-807.5 1048,-807.5 1048,-777.5 623,-777.5"/>
<text text-anchor="start" x="630" y="-788.9" font-family="Arial" font-size="14.00" fill="#000000">code    </text>
<text text-anchor="start" x="694.5526" y="-788.9" font-family="Arial" font-size="14.00" fill="#666666">[text]</text>
<polygon fill="none" stroke="#000000" points="623,-747.5 623,-777.5 1048,-777.5 1048,-747.5 623,-747.5"/>
<text text-anchor="start" x="630" y="-758.9" font-family="Arial" font-size="14.00" fill="#000000">label    </text>
<text text-anchor="start" x="693.7658" y="-758.9" font-family="Arial" font-size="14.00" fill="#666666">[text]</text>
</g>
<!-- container.call_number_bucket&#45;&gt;container.call_number_bucket_type -->
<g id="edge4" class="edge">
<title>container.call_number_bucket:btype&#45;&gt;container.call_number_bucket_type:code</title>
<path fill="none" stroke="#000000" d="M637.2998,-1801.0184C586.7076,-1714.574 569.2417,-792.5 623,-792.5"/>
<polygon fill="#000000" stroke="#000000" points="637.3495,-1801.0603 642.1021,-1810.9427 641.1747,-1804.2801 645,-1807.5 645,-1807.5 645,-1807.5 641.1747,-1804.2801 647.8979,-1804.0573 637.3495,-1801.0603 637.3495,-1801.0603"/>
<text text-anchor="start" x="99.8015" y="-1817.5" font-family="Arial" font-size="10.00" fill="#000000">FOREIGN KEY (btype) REFERENCES container.call_number_bucket_type(code) DEFERRABLE INITIALLY DEFERRED</text>
</g>
<!-- actor.org_unit -->
<g id="node6" class="node">
<title>actor.org_unit</title>
<polygon fill="#efefef" stroke="transparent" points="1152,-972.5 1152,-1007.5 1403,-1007.5 1403,-972.5 1152,-972.5"/>
<polygon fill="none" stroke="#000000" points="1152,-972.5 1152,-1007.5 1403,-1007.5 1403,-972.5 1152,-972.5"/>
<text text-anchor="start" x="1158.7017" y="-985.3" font-family="Arial Bold" font-size="18.00" fill="#000000">actor.org_unit</text>
<text text-anchor="start" x="1268.7303" y="-985.3" font-family="Arial" font-size="14.00" fill="#000000">    </text>
<text text-anchor="start" x="1302.9351" y="-985.3" font-family="Arial" font-size="14.00" fill="#666666">[BASE TABLE]</text>
<polygon fill="none" stroke="#000000" points="1152,-942.5 1152,-972.5 1403,-972.5 1403,-942.5 1152,-942.5"/>
<text text-anchor="start" x="1159" y="-953.9" font-family="Arial" font-size="14.00" fill="#000000">id    </text>
<text text-anchor="start" x="1204.094" y="-953.9" font-family="Arial" font-size="14.00" fill="#666666">[integer]</text>
<polygon fill="none" stroke="#000000" points="1152,-912.5 1152,-942.5 1403,-942.5 1403,-912.5 1152,-912.5"/>
<text text-anchor="start" x="1159" y="-923.9" font-family="Arial" font-size="14.00" fill="#000000">parent_ou    </text>
<text text-anchor="start" x="1256.2342" y="-923.9" font-family="Arial" font-size="14.00" fill="#666666">[integer]</text>
<polygon fill="none" stroke="#000000" points="1152,-882.5 1152,-912.5 1403,-912.5 1403,-882.5 1152,-882.5"/>
<text text-anchor="start" x="1159" y="-893.9" font-family="Arial" font-size="14.00" fill="#000000">ou_type    </text>
<text text-anchor="start" x="1243.0084" y="-893.9" font-family="Arial" font-size="14.00" fill="#666666">[integer]</text>
<polygon fill="none" stroke="#000000" points="1152,-852.5 1152,-882.5 1403,-882.5 1403,-852.5 1152,-852.5"/>
<text text-anchor="start" x="1159" y="-863.9" font-family="Arial" font-size="14.00" fill="#000000">ill_address    </text>
<text text-anchor="start" x="1260.0982" y="-863.9" font-family="Arial" font-size="14.00" fill="#666666">[integer]</text>
<polygon fill="none" stroke="#000000" points="1152,-822.5 1152,-852.5 1403,-852.5 1403,-822.5 1152,-822.5"/>
<text text-anchor="start" x="1159" y="-833.9" font-family="Arial" font-size="14.00" fill="#000000">holds_address    </text>
<text text-anchor="start" x="1284.2328" y="-833.9" font-family="Arial" font-size="14.00" fill="#666666">[integer]</text>
<polygon fill="none" stroke="#000000" points="1152,-792.5 1152,-822.5 1403,-822.5 1403,-792.5 1152,-792.5"/>
<text text-anchor="start" x="1159" y="-803.9" font-family="Arial" font-size="14.00" fill="#000000">mailing_address    </text>
<text text-anchor="start" x="1295.1066" y="-803.9" font-family="Arial" font-size="14.00" fill="#666666">[integer]</text>
<polygon fill="none" stroke="#000000" points="1152,-762.5 1152,-792.5 1403,-792.5 1403,-762.5 1152,-762.5"/>
<text text-anchor="start" x="1159" y="-773.9" font-family="Arial" font-size="14.00" fill="#000000">billing_address    </text>
<text text-anchor="start" x="1286.5526" y="-773.9" font-family="Arial" font-size="14.00" fill="#666666">[integer]</text>
<polygon fill="none" stroke="#000000" points="1152,-732.5 1152,-762.5 1403,-762.5 1403,-732.5 1152,-732.5"/>
<text text-anchor="start" x="1159" y="-743.9" font-family="Arial" font-size="14.00" fill="#000000">shortname    </text>
<text text-anchor="start" x="1259.3296" y="-743.9" font-family="Arial" font-size="14.00" fill="#666666">[text]</text>
<polygon fill="none" stroke="#000000" points="1152,-702.5 1152,-732.5 1403,-732.5 1403,-702.5 1152,-702.5"/>
<text text-anchor="start" x="1159" y="-713.9" font-family="Arial" font-size="14.00" fill="#000000">name    </text>
<text text-anchor="start" x="1228.2132" y="-713.9" font-family="Arial" font-size="14.00" fill="#666666">[text]</text>
<polygon fill="none" stroke="#000000" points="1152,-672.5 1152,-702.5 1403,-702.5 1403,-672.5 1152,-672.5"/>
<text text-anchor="start" x="1159" y="-683.9" font-family="Arial" font-size="14.00" fill="#000000">email    </text>
<text text-anchor="start" x="1226.6438" y="-683.9" font-family="Arial" font-size="14.00" fill="#666666">[text]</text>
<polygon fill="none" stroke="#000000" points="1152,-642.5 1152,-672.5 1403,-672.5 1403,-642.5 1152,-642.5"/>
<text text-anchor="start" x="1159" y="-653.9" font-family="Arial" font-size="14.00" fill="#000000">phone    </text>
<text text-anchor="start" x="1232.1178" y="-653.9" font-family="Arial" font-size="14.00" fill="#666666">[text]</text>
<polygon fill="none" stroke="#000000" points="1152,-612.5 1152,-642.5 1403,-642.5 1403,-612.5 1152,-612.5"/>
<text text-anchor="start" x="1159" y="-623.9" font-family="Arial" font-size="14.00" fill="#000000">opac_visible    </text>
<text text-anchor="start" x="1270.2202" y="-623.9" font-family="Arial" font-size="14.00" fill="#666666">[boolean]</text>
<polygon fill="none" stroke="#000000" points="1152,-582.5 1152,-612.5 1403,-612.5 1403,-582.5 1152,-582.5"/>
<text text-anchor="start" x="1159" y="-593.9" font-family="Arial" font-size="14.00" fill="#000000">fiscal_calendar    </text>
<text text-anchor="start" x="1286.554" y="-593.9" font-family="Arial" font-size="14.00" fill="#666666">[integer]</text>
</g>
<!-- container.call_number_bucket&#45;&gt;actor.org_unit -->
<g id="edge5" class="edge">
<title>container.call_number_bucket:owning_lib&#45;&gt;actor.org_unit:id</title>
<path fill="none" stroke="#000000" d="M1036.0229,-1716.9332C1090.0522,-1710.4649 1081.4747,-1649.7204 1100,-1591 1121.2489,-1523.6467 1081.3744,-957.5 1152,-957.5"/>
<polygon fill="#000000" stroke="#000000" points="1035.9841,-1716.9354 1025.7459,-1713.0072 1030.992,-1717.2177 1026,-1717.5 1026,-1717.5 1026,-1717.5 1030.992,-1717.2177 1026.2541,-1721.9928 1035.9841,-1716.9354 1035.9841,-1716.9354"/>
<text text-anchor="start" x="1033.4305" y="-1727.5" font-family="Arial" font-size="10.00" fill="#000000">FOREIGN KEY (owning_lib) REFERENCES actor.org_unit(id) ON DELETE CASCADE DEFERRABLE INITIALLY DEFERRED</text>
</g>
<!-- container.call_number_bucket_item -->
<g id="node2" class="node">
<title>container.call_number_bucket_item</title>
<polygon fill="#efefef" stroke="transparent" points="359,-2222.5 359,-2257.5 784,-2257.5 784,-2222.5 359,-2222.5"/>
<polygon fill="none" stroke="#000000" points="359,-2222.5 359,-2257.5 784,-2257.5 784,-2222.5 359,-2222.5"/>
<text text-anchor="start" x="365.6861" y="-2235.3" font-family="Arial Bold" font-size="18.00" fill="#000000">container.call_number_bucket_item</text>
<text text-anchor="start" x="649.7459" y="-2235.3" font-family="Arial" font-size="14.00" fill="#000000">    </text>
<text text-anchor="start" x="683.9507" y="-2235.3" font-family="Arial" font-size="14.00" fill="#666666">[BASE TABLE]</text>
<polygon fill="none" stroke="#000000" points="359,-2192.5 359,-2222.5 784,-2222.5 784,-2192.5 359,-2192.5"/>
<text text-anchor="start" x="366" y="-2203.9" font-family="Arial" font-size="14.00" fill="#000000">id    </text>
<text text-anchor="start" x="411.094" y="-2203.9" font-family="Arial" font-size="14.00" fill="#666666">[integer]</text>
<polygon fill="none" stroke="#000000" points="359,-2162.5 359,-2192.5 784,-2192.5 784,-2162.5 359,-2162.5"/>
<text text-anchor="start" x="366" y="-2173.9" font-family="Arial" font-size="14.00" fill="#000000">bucket    </text>
<text text-anchor="start" x="441.4432" y="-2173.9" font-family="Arial" font-size="14.00" fill="#666666">[integer]</text>
<polygon fill="none" stroke="#000000" points="359,-2132.5 359,-2162.5 784,-2162.5 784,-2132.5 359,-2132.5"/>
<text text-anchor="start" x="366" y="-2143.9" font-family="Arial" font-size="14.00" fill="#000000">target_call_number    </text>
<text text-anchor="start" x="520.007" y="-2143.9" font-family="Arial" font-size="14.00" fill="#666666">[integer]</text>
<polygon fill="none" stroke="#000000" points="359,-2102.5 359,-2132.5 784,-2132.5 784,-2102.5 359,-2102.5"/>
<text text-anchor="start" x="366" y="-2113.9" font-family="Arial" font-size="14.00" fill="#000000">pos    </text>
<text text-anchor="start" x="422.77" y="-2113.9" font-family="Arial" font-size="14.00" fill="#666666">[integer]</text>
<polygon fill="none" stroke="#000000" points="359,-2072.5 359,-2102.5 784,-2102.5 784,-2072.5 359,-2072.5"/>
<text text-anchor="start" x="366" y="-2083.9" font-family="Arial" font-size="14.00" fill="#000000">create_time    </text>
<text text-anchor="start" x="473.3268" y="-2083.9" font-family="Arial" font-size="14.00" fill="#666666">[timestamp with time zone]</text>
</g>
<!-- container.call_number_bucket_item&#45;&gt;container.call_number_bucket -->
<g id="edge1" class="edge">
<title>container.call_number_bucket_item:bucket&#45;&gt;container.call_number_bucket:id</title>
<path fill="none" stroke="#000000" d="M794.2775,-2176.6047C846.6276,-2166.8042 821.8524,-2078.9048 784,-2030 744.9396,-1979.5344 684.0604,-2044.4656 645,-1994 618.7486,-1960.0836 602.1111,-1897.5 645,-1897.5"/>
<polygon fill="#000000" stroke="#000000" points="793.9623,-2176.632 783.6094,-2173.017 788.9811,-2177.066 784,-2177.5 784,-2177.5 784,-2177.5 788.9811,-2177.066 784.3906,-2181.983 793.9623,-2176.632 793.9623,-2176.632"/>
<text text-anchor="start" x="50.087" y="-2187.5" font-family="Arial" font-size="10.00" fill="#000000">FOREIGN KEY (bucket) REFERENCES container.call_number_bucket(id) ON UPDATE CASCADE ON DELETE CASCADE DEFERRABLE INITIALLY DEFERRED</text>
</g>
<!-- container.call_number_bucket_note -->
<g id="node3" class="node">
<title>container.call_number_bucket_note</title>
<polygon fill="#efefef" stroke="transparent" points="888,-2192.5 888,-2227.5 1314,-2227.5 1314,-2192.5 888,-2192.5"/>
<polygon fill="none" stroke="#000000" points="888,-2192.5 888,-2227.5 1314,-2227.5 1314,-2192.5 888,-2192.5"/>
<text text-anchor="start" x="894.6731" y="-2205.3" font-family="Arial Bold" font-size="18.00" fill="#000000">container.call_number_bucket_note</text>
<text text-anchor="start" x="1179.7589" y="-2205.3" font-family="Arial" font-size="14.00" fill="#000000">    </text>
<text text-anchor="start" x="1213.9637" y="-2205.3" font-family="Arial" font-size="14.00" fill="#666666">[BASE TABLE]</text>
<polygon fill="none" stroke="#000000" points="888,-2162.5 888,-2192.5 1314,-2192.5 1314,-2162.5 888,-2162.5"/>
<text text-anchor="start" x="895" y="-2173.9" font-family="Arial" font-size="14.00" fill="#000000">id    </text>
<text text-anchor="start" x="940.094" y="-2173.9" font-family="Arial" font-size="14.00" fill="#666666">[integer]</text>
<polygon fill="none" stroke="#000000" points="888,-2132.5 888,-2162.5 1314,-2162.5 1314,-2132.5 888,-2132.5"/>
<text text-anchor="start" x="895" y="-2143.9" font-family="Arial" font-size="14.00" fill="#000000">bucket    </text>
<text text-anchor="start" x="970.4432" y="-2143.9" font-family="Arial" font-size="14.00" fill="#666666">[integer]</text>
<polygon fill="none" stroke="#000000" points="888,-2102.5 888,-2132.5 1314,-2132.5 1314,-2102.5 888,-2102.5"/>
<text text-anchor="start" x="895" y="-2113.9" font-family="Arial" font-size="14.00" fill="#000000">note    </text>
<text text-anchor="start" x="956.4432" y="-2113.9" font-family="Arial" font-size="14.00" fill="#666666">[text]</text>
</g>
<!-- container.call_number_bucket_note&#45;&gt;container.call_number_bucket -->
<g id="edge2" class="edge">
<title>container.call_number_bucket_note:bucket&#45;&gt;container.call_number_bucket:id</title>
<path fill="none" stroke="#000000" d="M877.8592,-2145.8904C852.8253,-2136.6333 869.3714,-2089.5588 888,-2060 924.2487,-2002.4826 989.7513,-2051.5174 1026,-1994 1048.8671,-1957.7157 1068.8889,-1897.5 1026,-1897.5"/>
<polygon fill="#000000" stroke="#000000" points="878.1236,-2145.9322 887.2945,-2151.9444 883.0618,-2146.7161 888,-2147.5 888,-2147.5 888,-2147.5 883.0618,-2146.7161 888.7055,-2143.0556 878.1236,-2145.9322 878.1236,-2145.9322"/>
<text text-anchor="start" x="895.087" y="-2157.5" font-family="Arial" font-size="10.00" fill="#000000">FOREIGN KEY (bucket) REFERENCES container.call_number_bucket(id) ON UPDATE CASCADE ON DELETE CASCADE DEFERRABLE INITIALLY DEFERRED</text>
</g>
</g>
</svg>
