<?xml version="1.0" encoding="UTF-8" standalone="no"?>
<!DOCTYPE svg PUBLIC "-//W3C//DTD SVG 1.1//EN"
 "http://www.w3.org/Graphics/SVG/1.1/DTD/svg11.dtd">
<!-- Generated by graphviz version 2.40.1 (20161225.0304)
 -->
<!-- Title: container.copy_bucket_type Pages: 1 -->
<svg width="916pt" height="592pt"
 viewBox="0.00 0.00 915.50 592.00" xmlns="http://www.w3.org/2000/svg" xmlns:xlink="http://www.w3.org/1999/xlink">
<g id="graph0" class="graph" transform="scale(1 1) rotate(0) translate(4 588)">
<title>container.copy_bucket_type</title>
<polygon fill="#ffffff" stroke="transparent" points="-4,4 -4,-588 911.5,-588 911.5,4 -4,4"/>
<!-- container.copy_bucket_type -->
<g id="node1" class="node">
<title>container.copy_bucket_type</title>
<polygon fill="#efefef" stroke="transparent" points="497,-105.5 497,-140.5 862,-140.5 862,-105.5 497,-105.5"/>
<polygon fill="none" stroke="#000000" points="497,-105.5 497,-140.5 862,-140.5 862,-105.5 497,-105.5"/>
<text text-anchor="start" x="503.675" y="-118.3" font-family="Arial Bold" font-size="18.00" fill="#000000">container.copy_bucket_type</text>
<text text-anchor="start" x="727.757" y="-118.3" font-family="Arial" font-size="14.00" fill="#000000">    </text>
<text text-anchor="start" x="761.9618" y="-118.3" font-family="Arial" font-size="14.00" fill="#666666">[BASE TABLE]</text>
<polygon fill="none" stroke="#000000" points="497,-75.5 497,-105.5 862,-105.5 862,-75.5 497,-75.5"/>
<text text-anchor="start" x="504" y="-86.9" font-family="Arial" font-size="14.00" fill="#000000">code </text>
<text text-anchor="start" x="538.2384" y="-86.9" font-family="Arial" font-size="14.00" fill="#666666">[text]</text>
<polygon fill="none" stroke="#000000" points="497,-45.5 497,-75.5 862,-75.5 862,-45.5 497,-45.5"/>
<text text-anchor="start" x="504" y="-56.9" font-family="Arial" font-size="14.00" fill="#000000">label </text>
<text text-anchor="start" x="537.4516" y="-56.9" font-family="Arial" font-size="14.00" fill="#666666">[text]</text>
<polygon fill="none" stroke="#000000" stroke-width="3" points="495,-44.5 495,-142.5 863,-142.5 863,-44.5 495,-44.5"/>
</g>
<!-- container.copy_bucket -->
<g id="node2" class="node">
<title>container.copy_bucket</title>
<polygon fill="#efefef" stroke="transparent" points="519,-505.5 519,-540.5 840,-540.5 840,-505.5 519,-505.5"/>
<polygon fill="none" stroke="#000000" points="519,-505.5 519,-540.5 840,-540.5 840,-505.5 519,-505.5"/>
<text text-anchor="start" x="525.6854" y="-518.3" font-family="Arial Bold" font-size="18.00" fill="#000000">container.copy_bucket</text>
<text text-anchor="start" x="705.7466" y="-518.3" font-family="Arial" font-size="14.00" fill="#000000">    </text>
<text text-anchor="start" x="739.9514" y="-518.3" font-family="Arial" font-size="14.00" fill="#666666">[BASE TABLE]</text>
<polygon fill="none" stroke="#000000" points="519,-475.5 519,-505.5 840,-505.5 840,-475.5 519,-475.5"/>
<text text-anchor="start" x="526" y="-486.9" font-family="Arial" font-size="14.00" fill="#000000">id    </text>
<text text-anchor="start" x="571.094" y="-486.9" font-family="Arial" font-size="14.00" fill="#666666">[integer]</text>
<polygon fill="none" stroke="#000000" points="519,-445.5 519,-475.5 840,-475.5 840,-445.5 519,-445.5"/>
<text text-anchor="start" x="526" y="-456.9" font-family="Arial" font-size="14.00" fill="#000000">owner    </text>
<text text-anchor="start" x="598.3198" y="-456.9" font-family="Arial" font-size="14.00" fill="#666666">[integer]</text>
<polygon fill="none" stroke="#000000" points="519,-415.5 519,-445.5 840,-445.5 840,-415.5 519,-415.5"/>
<text text-anchor="start" x="526" y="-426.9" font-family="Arial" font-size="14.00" fill="#000000">name    </text>
<text text-anchor="start" x="595.2132" y="-426.9" font-family="Arial" font-size="14.00" fill="#666666">[text]</text>
<polygon fill="none" stroke="#000000" points="519,-385.5 519,-415.5 840,-415.5 840,-385.5 519,-385.5"/>
<text text-anchor="start" x="526" y="-396.9" font-family="Arial" font-size="14.00" fill="#000000">btype    </text>
<text text-anchor="start" x="594.4432" y="-396.9" font-family="Arial" font-size="14.00" fill="#666666">[text]</text>
<polygon fill="none" stroke="#000000" points="519,-355.5 519,-385.5 840,-385.5 840,-355.5 519,-355.5"/>
<text text-anchor="start" x="526" y="-366.9" font-family="Arial" font-size="14.00" fill="#000000">description    </text>
<text text-anchor="start" x="627.8822" y="-366.9" font-family="Arial" font-size="14.00" fill="#666666">[text]</text>
<polygon fill="none" stroke="#000000" points="519,-325.5 519,-355.5 840,-355.5 840,-325.5 519,-325.5"/>
<text text-anchor="start" x="526" y="-336.9" font-family="Arial" font-size="14.00" fill="#000000">pub    </text>
<text text-anchor="start" x="583.5526" y="-336.9" font-family="Arial" font-size="14.00" fill="#666666">[boolean]</text>
<polygon fill="none" stroke="#000000" points="519,-295.5 519,-325.5 840,-325.5 840,-295.5 519,-295.5"/>
<text text-anchor="start" x="526" y="-306.9" font-family="Arial" font-size="14.00" fill="#000000">owning_lib    </text>
<text text-anchor="start" x="626.3268" y="-306.9" font-family="Arial" font-size="14.00" fill="#666666">[integer]</text>
<polygon fill="none" stroke="#000000" points="519,-265.5 519,-295.5 840,-295.5 840,-265.5 519,-265.5"/>
<text text-anchor="start" x="526" y="-276.9" font-family="Arial" font-size="14.00" fill="#000000">create_time    </text>
<text text-anchor="start" x="633.3268" y="-276.9" font-family="Arial" font-size="14.00" fill="#666666">[timestamp with time zone]</text>
</g>
<!-- container.copy_bucket&#45;&gt;container.copy_bucket_type -->
<g id="edge1" class="edge">
<title>container.copy_bucket:btype&#45;&gt;container.copy_bucket_type:code</title>
<path fill="none" stroke="#000000" d="M509.2252,-398.3549C448.0065,-370.9657 431.31,-90.5 497,-90.5"/>
<polygon fill="#000000" stroke="#000000" points="509.2324,-398.3564 518.0354,-404.8954 514.1162,-399.4282 519,-400.5 519,-400.5 519,-400.5 514.1162,-399.4282 519.9646,-396.1046 509.2324,-398.3564 509.2324,-398.3564"/>
<text text-anchor="start" x="7.4675" y="-410.5" font-family="Arial" font-size="10.00" fill="#000000">FOREIGN KEY (btype) REFERENCES container.copy_bucket_type(code) DEFERRABLE INITIALLY DEFERRED</text>
</g>
</g>
</svg>
