<?xml version="1.0" encoding="UTF-8" standalone="no"?>
<!DOCTYPE svg PUBLIC "-//W3C//DTD SVG 1.1//EN"
 "http://www.w3.org/Graphics/SVG/1.1/DTD/svg11.dtd">
<!-- Generated by graphviz version 2.40.1 (20161225.0304)
 -->
<!-- Title: container.copy_bucket_item Pages: 1 -->
<svg width="1183pt" height="929pt"
 viewBox="0.00 0.00 1183.00 929.00" xmlns="http://www.w3.org/2000/svg" xmlns:xlink="http://www.w3.org/1999/xlink">
<g id="graph0" class="graph" transform="scale(1 1) rotate(0) translate(4 925)">
<title>container.copy_bucket_item</title>
<polygon fill="#ffffff" stroke="transparent" points="-4,4 -4,-925 1179,-925 1179,4 -4,4"/>
<!-- container.copy_bucket_item -->
<g id="node1" class="node">
<title>container.copy_bucket_item</title>
<polygon fill="#efefef" stroke="transparent" points="744,-592.5 744,-627.5 1109,-627.5 1109,-592.5 744,-592.5"/>
<polygon fill="none" stroke="#000000" points="744,-592.5 744,-627.5 1109,-627.5 1109,-592.5 744,-592.5"/>
<text text-anchor="start" x="750.6849" y="-605.3" font-family="Arial Bold" font-size="18.00" fill="#000000">container.copy_bucket_item</text>
<text text-anchor="start" x="974.7471" y="-605.3" font-family="Arial" font-size="14.00" fill="#000000">    </text>
<text text-anchor="start" x="1008.9519" y="-605.3" font-family="Arial" font-size="14.00" fill="#666666">[BASE TABLE]</text>
<polygon fill="none" stroke="#000000" points="744,-562.5 744,-592.5 1109,-592.5 1109,-562.5 744,-562.5"/>
<text text-anchor="start" x="751" y="-573.9" font-family="Arial" font-size="14.00" fill="#000000">id </text>
<text text-anchor="start" x="765.7798" y="-573.9" font-family="Arial" font-size="14.00" fill="#666666">[integer]</text>
<polygon fill="none" stroke="#000000" points="744,-532.5 744,-562.5 1109,-562.5 1109,-532.5 744,-532.5"/>
<text text-anchor="start" x="751" y="-543.9" font-family="Arial" font-size="14.00" fill="#000000">bucket </text>
<text text-anchor="start" x="796.129" y="-543.9" font-family="Arial" font-size="14.00" fill="#666666">[integer]</text>
<polygon fill="none" stroke="#000000" points="744,-502.5 744,-532.5 1109,-532.5 1109,-502.5 744,-502.5"/>
<text text-anchor="start" x="751" y="-513.9" font-family="Arial" font-size="14.00" fill="#000000">target_copy </text>
<text text-anchor="start" x="828.028" y="-513.9" font-family="Arial" font-size="14.00" fill="#666666">[integer]</text>
<polygon fill="none" stroke="#000000" points="744,-472.5 744,-502.5 1109,-502.5 1109,-472.5 744,-472.5"/>
<text text-anchor="start" x="751" y="-483.9" font-family="Arial" font-size="14.00" fill="#000000">pos </text>
<text text-anchor="start" x="777.4558" y="-483.9" font-family="Arial" font-size="14.00" fill="#666666">[integer]</text>
<polygon fill="none" stroke="#000000" points="744,-442.5 744,-472.5 1109,-472.5 1109,-442.5 744,-442.5"/>
<text text-anchor="start" x="751" y="-453.9" font-family="Arial" font-size="14.00" fill="#000000">create_time </text>
<text text-anchor="start" x="828.0126" y="-453.9" font-family="Arial" font-size="14.00" fill="#666666">[timestamp with time zone]</text>
<polygon fill="none" stroke="#000000" stroke-width="3" points="742,-441.5 742,-629.5 1110,-629.5 1110,-441.5 742,-441.5"/>
</g>
<!-- container.copy_bucket -->
<g id="node3" class="node">
<title>container.copy_bucket</title>
<polygon fill="#efefef" stroke="transparent" points="766,-282.5 766,-317.5 1087,-317.5 1087,-282.5 766,-282.5"/>
<polygon fill="none" stroke="#000000" points="766,-282.5 766,-317.5 1087,-317.5 1087,-282.5 766,-282.5"/>
<text text-anchor="start" x="772.6854" y="-295.3" font-family="Arial Bold" font-size="18.00" fill="#000000">container.copy_bucket</text>
<text text-anchor="start" x="952.7466" y="-295.3" font-family="Arial" font-size="14.00" fill="#000000">    </text>
<text text-anchor="start" x="986.9514" y="-295.3" font-family="Arial" font-size="14.00" fill="#666666">[BASE TABLE]</text>
<polygon fill="none" stroke="#000000" points="766,-252.5 766,-282.5 1087,-282.5 1087,-252.5 766,-252.5"/>
<text text-anchor="start" x="773" y="-263.9" font-family="Arial" font-size="14.00" fill="#000000">id    </text>
<text text-anchor="start" x="818.094" y="-263.9" font-family="Arial" font-size="14.00" fill="#666666">[integer]</text>
<polygon fill="none" stroke="#000000" points="766,-222.5 766,-252.5 1087,-252.5 1087,-222.5 766,-222.5"/>
<text text-anchor="start" x="773" y="-233.9" font-family="Arial" font-size="14.00" fill="#000000">owner    </text>
<text text-anchor="start" x="845.3198" y="-233.9" font-family="Arial" font-size="14.00" fill="#666666">[integer]</text>
<polygon fill="none" stroke="#000000" points="766,-192.5 766,-222.5 1087,-222.5 1087,-192.5 766,-192.5"/>
<text text-anchor="start" x="773" y="-203.9" font-family="Arial" font-size="14.00" fill="#000000">name    </text>
<text text-anchor="start" x="842.2132" y="-203.9" font-family="Arial" font-size="14.00" fill="#666666">[text]</text>
<polygon fill="none" stroke="#000000" points="766,-162.5 766,-192.5 1087,-192.5 1087,-162.5 766,-162.5"/>
<text text-anchor="start" x="773" y="-173.9" font-family="Arial" font-size="14.00" fill="#000000">btype    </text>
<text text-anchor="start" x="841.4432" y="-173.9" font-family="Arial" font-size="14.00" fill="#666666">[text]</text>
<polygon fill="none" stroke="#000000" points="766,-132.5 766,-162.5 1087,-162.5 1087,-132.5 766,-132.5"/>
<text text-anchor="start" x="773" y="-143.9" font-family="Arial" font-size="14.00" fill="#000000">description    </text>
<text text-anchor="start" x="874.8822" y="-143.9" font-family="Arial" font-size="14.00" fill="#666666">[text]</text>
<polygon fill="none" stroke="#000000" points="766,-102.5 766,-132.5 1087,-132.5 1087,-102.5 766,-102.5"/>
<text text-anchor="start" x="773" y="-113.9" font-family="Arial" font-size="14.00" fill="#000000">pub    </text>
<text text-anchor="start" x="830.5526" y="-113.9" font-family="Arial" font-size="14.00" fill="#666666">[boolean]</text>
<polygon fill="none" stroke="#000000" points="766,-72.5 766,-102.5 1087,-102.5 1087,-72.5 766,-72.5"/>
<text text-anchor="start" x="773" y="-83.9" font-family="Arial" font-size="14.00" fill="#000000">owning_lib    </text>
<text text-anchor="start" x="873.3268" y="-83.9" font-family="Arial" font-size="14.00" fill="#666666">[integer]</text>
<polygon fill="none" stroke="#000000" points="766,-42.5 766,-72.5 1087,-72.5 1087,-42.5 766,-42.5"/>
<text text-anchor="start" x="773" y="-53.9" font-family="Arial" font-size="14.00" fill="#000000">create_time    </text>
<text text-anchor="start" x="880.3268" y="-53.9" font-family="Arial" font-size="14.00" fill="#666666">[timestamp with time zone]</text>
</g>
<!-- container.copy_bucket_item&#45;&gt;container.copy_bucket -->
<g id="edge2" class="edge">
<title>container.copy_bucket_item:bucket&#45;&gt;container.copy_bucket:id</title>
<path fill="none" stroke="#000000" d="M733.7468,-546.839C620.5006,-531.8652 644.7072,-267.5 766,-267.5"/>
<polygon fill="#000000" stroke="#000000" points="734.0207,-546.8566 743.7105,-551.9907 739.0104,-547.1783 744,-547.5 744,-547.5 744,-547.5 739.0104,-547.1783 744.2895,-543.0093 734.0207,-546.8566 734.0207,-546.8566"/>
<text text-anchor="start" x="42.753" y="-557.5" font-family="Arial" font-size="10.00" fill="#000000">FOREIGN KEY (bucket) REFERENCES container.copy_bucket(id) ON UPDATE CASCADE ON DELETE CASCADE DEFERRABLE INITIALLY DEFERRED</text>
</g>
<!-- container.copy_bucket_item_note -->
<g id="node2" class="node">
<title>container.copy_bucket_item_note</title>
<polygon fill="#efefef" stroke="transparent" points="722,-842.5 722,-877.5 1132,-877.5 1132,-842.5 722,-842.5"/>
<polygon fill="none" stroke="#000000" points="722,-842.5 722,-877.5 1132,-877.5 1132,-842.5 722,-842.5"/>
<text text-anchor="start" x="728.6714" y="-855.3" font-family="Arial Bold" font-size="18.00" fill="#000000">container.copy_bucket_item_note</text>
<text text-anchor="start" x="997.7606" y="-855.3" font-family="Arial" font-size="14.00" fill="#000000">    </text>
<text text-anchor="start" x="1031.9654" y="-855.3" font-family="Arial" font-size="14.00" fill="#666666">[BASE TABLE]</text>
<polygon fill="none" stroke="#000000" points="722,-812.5 722,-842.5 1132,-842.5 1132,-812.5 722,-812.5"/>
<text text-anchor="start" x="729" y="-823.9" font-family="Arial" font-size="14.00" fill="#000000">id    </text>
<text text-anchor="start" x="774.094" y="-823.9" font-family="Arial" font-size="14.00" fill="#666666">[integer]</text>
<polygon fill="none" stroke="#000000" points="722,-782.5 722,-812.5 1132,-812.5 1132,-782.5 722,-782.5"/>
<text text-anchor="start" x="729" y="-793.9" font-family="Arial" font-size="14.00" fill="#000000">item    </text>
<text text-anchor="start" x="789.6452" y="-793.9" font-family="Arial" font-size="14.00" fill="#666666">[integer]</text>
<polygon fill="none" stroke="#000000" points="722,-752.5 722,-782.5 1132,-782.5 1132,-752.5 722,-752.5"/>
<text text-anchor="start" x="729" y="-763.9" font-family="Arial" font-size="14.00" fill="#000000">note    </text>
<text text-anchor="start" x="790.4432" y="-763.9" font-family="Arial" font-size="14.00" fill="#666666">[text]</text>
</g>
<!-- container.copy_bucket_item_note&#45;&gt;container.copy_bucket_item -->
<g id="edge1" class="edge">
<title>container.copy_bucket_item_note:item&#45;&gt;container.copy_bucket_item:id</title>
<path fill="none" stroke="#000000" d="M712.0471,-795.9016C685.7193,-786.3104 698.3639,-735.9369 722,-710 780.1766,-646.1605 1050.8234,-737.8395 1109,-674 1137.8884,-642.2996 1151.8889,-577.5 1109,-577.5"/>
<polygon fill="#000000" stroke="#000000" points="712.1265,-795.9143 721.2864,-801.9431 717.0633,-796.7072 722,-797.5 722,-797.5 722,-797.5 717.0633,-796.7072 722.7136,-793.0569 712.1265,-795.9143 712.1265,-795.9143"/>
<text text-anchor="start" x="6.8155" y="-807.5" font-family="Arial" font-size="10.00" fill="#000000">FOREIGN KEY (item) REFERENCES container.copy_bucket_item(id) ON UPDATE CASCADE ON DELETE CASCADE DEFERRABLE INITIALLY DEFERRED</text>
</g>
</g>
</svg>
