<?xml version="1.0" encoding="UTF-8" standalone="no"?>
<!DOCTYPE svg PUBLIC "-//W3C//DTD SVG 1.1//EN"
 "http://www.w3.org/Graphics/SVG/1.1/DTD/svg11.dtd">
<!-- Generated by graphviz version 2.40.1 (20161225.0304)
 -->
<!-- Title: container.copy_bucket_item_note Pages: 1 -->
<svg width="1186pt" height="532pt"
 viewBox="0.00 0.00 1186.00 532.00" xmlns="http://www.w3.org/2000/svg" xmlns:xlink="http://www.w3.org/1999/xlink">
<g id="graph0" class="graph" transform="scale(1 1) rotate(0) translate(4 528)">
<title>container.copy_bucket_item_note</title>
<polygon fill="#ffffff" stroke="transparent" points="-4,4 -4,-528 1182,-528 1182,4 -4,4"/>
<!-- container.copy_bucket_item_note -->
<g id="node1" class="node">
<title>container.copy_bucket_item_note</title>
<polygon fill="#efefef" stroke="transparent" points="722,-442.5 722,-477.5 1132,-477.5 1132,-442.5 722,-442.5"/>
<polygon fill="none" stroke="#000000" points="722,-442.5 722,-477.5 1132,-477.5 1132,-442.5 722,-442.5"/>
<text text-anchor="start" x="728.6714" y="-455.3" font-family="Arial Bold" font-size="18.00" fill="#000000">container.copy_bucket_item_note</text>
<text text-anchor="start" x="997.7606" y="-455.3" font-family="Arial" font-size="14.00" fill="#000000">    </text>
<text text-anchor="start" x="1031.9654" y="-455.3" font-family="Arial" font-size="14.00" fill="#666666">[BASE TABLE]</text>
<polygon fill="none" stroke="#000000" points="722,-412.5 722,-442.5 1132,-442.5 1132,-412.5 722,-412.5"/>
<text text-anchor="start" x="729" y="-423.9" font-family="Arial" font-size="14.00" fill="#000000">id </text>
<text text-anchor="start" x="743.7798" y="-423.9" font-family="Arial" font-size="14.00" fill="#666666">[integer]</text>
<polygon fill="none" stroke="#000000" points="722,-382.5 722,-412.5 1132,-412.5 1132,-382.5 722,-382.5"/>
<text text-anchor="start" x="729" y="-393.9" font-family="Arial" font-size="14.00" fill="#000000">item </text>
<text text-anchor="start" x="759.331" y="-393.9" font-family="Arial" font-size="14.00" fill="#666666">[integer]</text>
<polygon fill="none" stroke="#000000" points="722,-352.5 722,-382.5 1132,-382.5 1132,-352.5 722,-352.5"/>
<text text-anchor="start" x="729" y="-363.9" font-family="Arial" font-size="14.00" fill="#000000">note </text>
<text text-anchor="start" x="760.129" y="-363.9" font-family="Arial" font-size="14.00" fill="#666666">[text]</text>
<polygon fill="none" stroke="#000000" stroke-width="3" points="720.5,-351.5 720.5,-479.5 1133.5,-479.5 1133.5,-351.5 720.5,-351.5"/>
</g>
<!-- container.copy_bucket_item -->
<g id="node2" class="node">
<title>container.copy_bucket_item</title>
<polygon fill="#efefef" stroke="transparent" points="744,-192.5 744,-227.5 1109,-227.5 1109,-192.5 744,-192.5"/>
<polygon fill="none" stroke="#000000" points="744,-192.5 744,-227.5 1109,-227.5 1109,-192.5 744,-192.5"/>
<text text-anchor="start" x="750.6849" y="-205.3" font-family="Arial Bold" font-size="18.00" fill="#000000">container.copy_bucket_item</text>
<text text-anchor="start" x="974.7471" y="-205.3" font-family="Arial" font-size="14.00" fill="#000000">    </text>
<text text-anchor="start" x="1008.9519" y="-205.3" font-family="Arial" font-size="14.00" fill="#666666">[BASE TABLE]</text>
<polygon fill="none" stroke="#000000" points="744,-162.5 744,-192.5 1109,-192.5 1109,-162.5 744,-162.5"/>
<text text-anchor="start" x="751" y="-173.9" font-family="Arial" font-size="14.00" fill="#000000">id    </text>
<text text-anchor="start" x="796.094" y="-173.9" font-family="Arial" font-size="14.00" fill="#666666">[integer]</text>
<polygon fill="none" stroke="#000000" points="744,-132.5 744,-162.5 1109,-162.5 1109,-132.5 744,-132.5"/>
<text text-anchor="start" x="751" y="-143.9" font-family="Arial" font-size="14.00" fill="#000000">bucket    </text>
<text text-anchor="start" x="826.4432" y="-143.9" font-family="Arial" font-size="14.00" fill="#666666">[integer]</text>
<polygon fill="none" stroke="#000000" points="744,-102.5 744,-132.5 1109,-132.5 1109,-102.5 744,-102.5"/>
<text text-anchor="start" x="751" y="-113.9" font-family="Arial" font-size="14.00" fill="#000000">target_copy    </text>
<text text-anchor="start" x="858.3422" y="-113.9" font-family="Arial" font-size="14.00" fill="#666666">[integer]</text>
<polygon fill="none" stroke="#000000" points="744,-72.5 744,-102.5 1109,-102.5 1109,-72.5 744,-72.5"/>
<text text-anchor="start" x="751" y="-83.9" font-family="Arial" font-size="14.00" fill="#000000">pos    </text>
<text text-anchor="start" x="807.77" y="-83.9" font-family="Arial" font-size="14.00" fill="#666666">[integer]</text>
<polygon fill="none" stroke="#000000" points="744,-42.5 744,-72.5 1109,-72.5 1109,-42.5 744,-42.5"/>
<text text-anchor="start" x="751" y="-53.9" font-family="Arial" font-size="14.00" fill="#000000">create_time    </text>
<text text-anchor="start" x="858.3268" y="-53.9" font-family="Arial" font-size="14.00" fill="#666666">[timestamp with time zone]</text>
</g>
<!-- container.copy_bucket_item_note&#45;&gt;container.copy_bucket_item -->
<g id="edge1" class="edge">
<title>container.copy_bucket_item_note:item&#45;&gt;container.copy_bucket_item:id</title>
<path fill="none" stroke="#000000" d="M712.0618,-395.9733C684.3624,-386.3783 697.4477,-333.9423 722,-307 780.1766,-243.1605 1050.8234,-334.8395 1109,-271 1136.9903,-240.2851 1150.5556,-177.5 1109,-177.5"/>
<polygon fill="#000000" stroke="#000000" points="712.1159,-395.9815 721.3167,-401.9478 717.058,-396.7408 722,-397.5 722,-397.5 722,-397.5 717.058,-396.7408 722.6833,-393.0522 712.1159,-395.9815 712.1159,-395.9815"/>
<text text-anchor="start" x="6.8155" y="-407.5" font-family="Arial" font-size="10.00" fill="#000000">FOREIGN KEY (item) REFERENCES container.copy_bucket_item(id) ON UPDATE CASCADE ON DELETE CASCADE DEFERRABLE INITIALLY DEFERRED</text>
</g>
</g>
</svg>
