<?xml version="1.0" encoding="UTF-8" standalone="no"?>
<!DOCTYPE svg PUBLIC "-//W3C//DTD SVG 1.1//EN"
 "http://www.w3.org/Graphics/SVG/1.1/DTD/svg11.dtd">
<!-- Generated by graphviz version 2.40.1 (20161225.0304)
 -->
<!-- Title: container.call_number_bucket_type Pages: 1 -->
<svg width="1009pt" height="592pt"
 viewBox="0.00 0.00 1008.50 592.00" xmlns="http://www.w3.org/2000/svg" xmlns:xlink="http://www.w3.org/1999/xlink">
<g id="graph0" class="graph" transform="scale(1 1) rotate(0) translate(4 588)">
<title>container.call_number_bucket_type</title>
<polygon fill="#ffffff" stroke="transparent" points="-4,4 -4,-588 1004.5,-588 1004.5,4 -4,4"/>
<!-- container.call_number_bucket_type -->
<g id="node1" class="node">
<title>container.call_number_bucket_type</title>
<polygon fill="#efefef" stroke="transparent" points="530,-105.5 530,-140.5 955,-140.5 955,-105.5 530,-105.5"/>
<polygon fill="none" stroke="#000000" points="530,-105.5 530,-140.5 955,-140.5 955,-105.5 530,-105.5"/>
<text text-anchor="start" x="536.6762" y="-118.3" font-family="Arial Bold" font-size="18.00" fill="#000000">container.call_number_bucket_type</text>
<text text-anchor="start" x="820.7558" y="-118.3" font-family="Arial" font-size="14.00" fill="#000000">    </text>
<text text-anchor="start" x="854.9606" y="-118.3" font-family="Arial" font-size="14.00" fill="#666666">[BASE TABLE]</text>
<polygon fill="none" stroke="#000000" points="530,-75.5 530,-105.5 955,-105.5 955,-75.5 530,-75.5"/>
<text text-anchor="start" x="537" y="-86.9" font-family="Arial" font-size="14.00" fill="#000000">code </text>
<text text-anchor="start" x="571.2384" y="-86.9" font-family="Arial" font-size="14.00" fill="#666666">[text]</text>
<polygon fill="none" stroke="#000000" points="530,-45.5 530,-75.5 955,-75.5 955,-45.5 530,-45.5"/>
<text text-anchor="start" x="537" y="-56.9" font-family="Arial" font-size="14.00" fill="#000000">label </text>
<text text-anchor="start" x="570.4516" y="-56.9" font-family="Arial" font-size="14.00" fill="#666666">[text]</text>
<polygon fill="none" stroke="#000000" stroke-width="3" points="528,-44.5 528,-142.5 956,-142.5 956,-44.5 528,-44.5"/>
</g>
<!-- container.call_number_bucket -->
<g id="node2" class="node">
<title>container.call_number_bucket</title>
<polygon fill="#efefef" stroke="transparent" points="552,-505.5 552,-540.5 933,-540.5 933,-505.5 552,-505.5"/>
<polygon fill="none" stroke="#000000" points="552,-505.5 552,-540.5 933,-540.5 933,-505.5 552,-505.5"/>
<text text-anchor="start" x="558.6866" y="-518.3" font-family="Arial Bold" font-size="18.00" fill="#000000">container.call_number_bucket</text>
<text text-anchor="start" x="798.7454" y="-518.3" font-family="Arial" font-size="14.00" fill="#000000">    </text>
<text text-anchor="start" x="832.9502" y="-518.3" font-family="Arial" font-size="14.00" fill="#666666">[BASE TABLE]</text>
<polygon fill="none" stroke="#000000" points="552,-475.5 552,-505.5 933,-505.5 933,-475.5 552,-475.5"/>
<text text-anchor="start" x="559" y="-486.9" font-family="Arial" font-size="14.00" fill="#000000">id    </text>
<text text-anchor="start" x="604.094" y="-486.9" font-family="Arial" font-size="14.00" fill="#666666">[integer]</text>
<polygon fill="none" stroke="#000000" points="552,-445.5 552,-475.5 933,-475.5 933,-445.5 552,-445.5"/>
<text text-anchor="start" x="559" y="-456.9" font-family="Arial" font-size="14.00" fill="#000000">owner    </text>
<text text-anchor="start" x="631.3198" y="-456.9" font-family="Arial" font-size="14.00" fill="#666666">[integer]</text>
<polygon fill="none" stroke="#000000" points="552,-415.5 552,-445.5 933,-445.5 933,-415.5 552,-415.5"/>
<text text-anchor="start" x="559" y="-426.9" font-family="Arial" font-size="14.00" fill="#000000">name    </text>
<text text-anchor="start" x="628.2132" y="-426.9" font-family="Arial" font-size="14.00" fill="#666666">[text]</text>
<polygon fill="none" stroke="#000000" points="552,-385.5 552,-415.5 933,-415.5 933,-385.5 552,-385.5"/>
<text text-anchor="start" x="559" y="-396.9" font-family="Arial" font-size="14.00" fill="#000000">btype    </text>
<text text-anchor="start" x="627.4432" y="-396.9" font-family="Arial" font-size="14.00" fill="#666666">[text]</text>
<polygon fill="none" stroke="#000000" points="552,-355.5 552,-385.5 933,-385.5 933,-355.5 552,-355.5"/>
<text text-anchor="start" x="559" y="-366.9" font-family="Arial" font-size="14.00" fill="#000000">description    </text>
<text text-anchor="start" x="660.8822" y="-366.9" font-family="Arial" font-size="14.00" fill="#666666">[text]</text>
<polygon fill="none" stroke="#000000" points="552,-325.5 552,-355.5 933,-355.5 933,-325.5 552,-325.5"/>
<text text-anchor="start" x="559" y="-336.9" font-family="Arial" font-size="14.00" fill="#000000">pub    </text>
<text text-anchor="start" x="616.5526" y="-336.9" font-family="Arial" font-size="14.00" fill="#666666">[boolean]</text>
<polygon fill="none" stroke="#000000" points="552,-295.5 552,-325.5 933,-325.5 933,-295.5 552,-295.5"/>
<text text-anchor="start" x="559" y="-306.9" font-family="Arial" font-size="14.00" fill="#000000">owning_lib    </text>
<text text-anchor="start" x="659.3268" y="-306.9" font-family="Arial" font-size="14.00" fill="#666666">[integer]</text>
<polygon fill="none" stroke="#000000" points="552,-265.5 552,-295.5 933,-295.5 933,-265.5 552,-265.5"/>
<text text-anchor="start" x="559" y="-276.9" font-family="Arial" font-size="14.00" fill="#000000">create_time    </text>
<text text-anchor="start" x="666.3268" y="-276.9" font-family="Arial" font-size="14.00" fill="#666666">[timestamp with time zone]</text>
</g>
<!-- container.call_number_bucket&#45;&gt;container.call_number_bucket_type -->
<g id="edge1" class="edge">
<title>container.call_number_bucket:btype&#45;&gt;container.call_number_bucket_type:code</title>
<path fill="none" stroke="#000000" d="M542.2252,-398.3549C481.0065,-370.9657 464.31,-90.5 530,-90.5"/>
<polygon fill="#000000" stroke="#000000" points="542.2324,-398.3564 551.0354,-404.8954 547.1162,-399.4282 552,-400.5 552,-400.5 552,-400.5 547.1162,-399.4282 552.9646,-396.1046 542.2324,-398.3564 542.2324,-398.3564"/>
<text text-anchor="start" x="6.8015" y="-410.5" font-family="Arial" font-size="10.00" fill="#000000">FOREIGN KEY (btype) REFERENCES container.call_number_bucket_type(code) DEFERRABLE INITIALLY DEFERRED</text>
</g>
</g>
</svg>
