<?xml version="1.0" encoding="UTF-8" standalone="no"?>
<!DOCTYPE svg PUBLIC "-//W3C//DTD SVG 1.1//EN"
 "http://www.w3.org/Graphics/SVG/1.1/DTD/svg11.dtd">
<!-- Generated by graphviz version 2.40.1 (20161225.0304)
 -->
<!-- Title: container.call_number_bucket_item Pages: 1 -->
<svg width="1955pt" height="1079pt"
 viewBox="0.00 0.00 1955.00 1079.00" xmlns="http://www.w3.org/2000/svg" xmlns:xlink="http://www.w3.org/1999/xlink">
<g id="graph0" class="graph" transform="scale(1 1) rotate(0) translate(4 1075)">
<title>container.call_number_bucket_item</title>
<polygon fill="#ffffff" stroke="transparent" points="-4,4 -4,-1075 1951,-1075 1951,4 -4,4"/>
<!-- container.call_number_bucket_item -->
<g id="node1" class="node">
<title>container.call_number_bucket_item</title>
<polygon fill="#efefef" stroke="transparent" points="777,-742.5 777,-777.5 1202,-777.5 1202,-742.5 777,-742.5"/>
<polygon fill="none" stroke="#000000" points="777,-742.5 777,-777.5 1202,-777.5 1202,-742.5 777,-742.5"/>
<text text-anchor="start" x="783.6861" y="-755.3" font-family="Arial Bold" font-size="18.00" fill="#000000">container.call_number_bucket_item</text>
<text text-anchor="start" x="1067.7459" y="-755.3" font-family="Arial" font-size="14.00" fill="#000000">    </text>
<text text-anchor="start" x="1101.9507" y="-755.3" font-family="Arial" font-size="14.00" fill="#666666">[BASE TABLE]</text>
<polygon fill="none" stroke="#000000" points="777,-712.5 777,-742.5 1202,-742.5 1202,-712.5 777,-712.5"/>
<text text-anchor="start" x="784" y="-723.9" font-family="Arial" font-size="14.00" fill="#000000">id </text>
<text text-anchor="start" x="798.7798" y="-723.9" font-family="Arial" font-size="14.00" fill="#666666">[integer]</text>
<polygon fill="none" stroke="#000000" points="777,-682.5 777,-712.5 1202,-712.5 1202,-682.5 777,-682.5"/>
<text text-anchor="start" x="784" y="-693.9" font-family="Arial" font-size="14.00" fill="#000000">bucket </text>
<text text-anchor="start" x="829.129" y="-693.9" font-family="Arial" font-size="14.00" fill="#666666">[integer]</text>
<polygon fill="none" stroke="#000000" points="777,-652.5 777,-682.5 1202,-682.5 1202,-652.5 777,-652.5"/>
<text text-anchor="start" x="784" y="-663.9" font-family="Arial" font-size="14.00" fill="#000000">target_call_number </text>
<text text-anchor="start" x="907.6928" y="-663.9" font-family="Arial" font-size="14.00" fill="#666666">[integer]</text>
<polygon fill="none" stroke="#000000" points="777,-622.5 777,-652.5 1202,-652.5 1202,-622.5 777,-622.5"/>
<text text-anchor="start" x="784" y="-633.9" font-family="Arial" font-size="14.00" fill="#000000">pos </text>
<text text-anchor="start" x="810.4558" y="-633.9" font-family="Arial" font-size="14.00" fill="#666666">[integer]</text>
<polygon fill="none" stroke="#000000" points="777,-592.5 777,-622.5 1202,-622.5 1202,-592.5 777,-592.5"/>
<text text-anchor="start" x="784" y="-603.9" font-family="Arial" font-size="14.00" fill="#000000">create_time </text>
<text text-anchor="start" x="861.0126" y="-603.9" font-family="Arial" font-size="14.00" fill="#666666">[timestamp with time zone]</text>
<polygon fill="none" stroke="#000000" stroke-width="3" points="775,-591.5 775,-779.5 1203,-779.5 1203,-591.5 775,-591.5"/>
</g>
<!-- container.call_number_bucket -->
<g id="node3" class="node">
<title>container.call_number_bucket</title>
<polygon fill="#efefef" stroke="transparent" points="580,-357.5 580,-392.5 961,-392.5 961,-357.5 580,-357.5"/>
<polygon fill="none" stroke="#000000" points="580,-357.5 580,-392.5 961,-392.5 961,-357.5 580,-357.5"/>
<text text-anchor="start" x="586.6866" y="-370.3" font-family="Arial Bold" font-size="18.00" fill="#000000">container.call_number_bucket</text>
<text text-anchor="start" x="826.7454" y="-370.3" font-family="Arial" font-size="14.00" fill="#000000">    </text>
<text text-anchor="start" x="860.9502" y="-370.3" font-family="Arial" font-size="14.00" fill="#666666">[BASE TABLE]</text>
<polygon fill="none" stroke="#000000" points="580,-327.5 580,-357.5 961,-357.5 961,-327.5 580,-327.5"/>
<text text-anchor="start" x="587" y="-338.9" font-family="Arial" font-size="14.00" fill="#000000">id    </text>
<text text-anchor="start" x="632.094" y="-338.9" font-family="Arial" font-size="14.00" fill="#666666">[integer]</text>
<polygon fill="none" stroke="#000000" points="580,-297.5 580,-327.5 961,-327.5 961,-297.5 580,-297.5"/>
<text text-anchor="start" x="587" y="-308.9" font-family="Arial" font-size="14.00" fill="#000000">owner    </text>
<text text-anchor="start" x="659.3198" y="-308.9" font-family="Arial" font-size="14.00" fill="#666666">[integer]</text>
<polygon fill="none" stroke="#000000" points="580,-267.5 580,-297.5 961,-297.5 961,-267.5 580,-267.5"/>
<text text-anchor="start" x="587" y="-278.9" font-family="Arial" font-size="14.00" fill="#000000">name    </text>
<text text-anchor="start" x="656.2132" y="-278.9" font-family="Arial" font-size="14.00" fill="#666666">[text]</text>
<polygon fill="none" stroke="#000000" points="580,-237.5 580,-267.5 961,-267.5 961,-237.5 580,-237.5"/>
<text text-anchor="start" x="587" y="-248.9" font-family="Arial" font-size="14.00" fill="#000000">btype    </text>
<text text-anchor="start" x="655.4432" y="-248.9" font-family="Arial" font-size="14.00" fill="#666666">[text]</text>
<polygon fill="none" stroke="#000000" points="580,-207.5 580,-237.5 961,-237.5 961,-207.5 580,-207.5"/>
<text text-anchor="start" x="587" y="-218.9" font-family="Arial" font-size="14.00" fill="#000000">description    </text>
<text text-anchor="start" x="688.8822" y="-218.9" font-family="Arial" font-size="14.00" fill="#666666">[text]</text>
<polygon fill="none" stroke="#000000" points="580,-177.5 580,-207.5 961,-207.5 961,-177.5 580,-177.5"/>
<text text-anchor="start" x="587" y="-188.9" font-family="Arial" font-size="14.00" fill="#000000">pub    </text>
<text text-anchor="start" x="644.5526" y="-188.9" font-family="Arial" font-size="14.00" fill="#666666">[boolean]</text>
<polygon fill="none" stroke="#000000" points="580,-147.5 580,-177.5 961,-177.5 961,-147.5 580,-147.5"/>
<text text-anchor="start" x="587" y="-158.9" font-family="Arial" font-size="14.00" fill="#000000">owning_lib    </text>
<text text-anchor="start" x="687.3268" y="-158.9" font-family="Arial" font-size="14.00" fill="#666666">[integer]</text>
<polygon fill="none" stroke="#000000" points="580,-117.5 580,-147.5 961,-147.5 961,-117.5 580,-117.5"/>
<text text-anchor="start" x="587" y="-128.9" font-family="Arial" font-size="14.00" fill="#000000">create_time    </text>
<text text-anchor="start" x="694.3268" y="-128.9" font-family="Arial" font-size="14.00" fill="#666666">[timestamp with time zone]</text>
</g>
<!-- container.call_number_bucket_item&#45;&gt;container.call_number_bucket -->
<g id="edge2" class="edge">
<title>container.call_number_bucket_item:bucket&#45;&gt;container.call_number_bucket:id</title>
<path fill="none" stroke="#000000" d="M766.9146,-696.6929C713.8268,-687.5114 745.9121,-602.0608 777,-547 823.9561,-463.8345 914.0439,-519.1655 961,-436 981.4311,-399.8139 1002.5556,-342.5 961,-342.5"/>
<polygon fill="#000000" stroke="#000000" points="767.0319,-696.7022 776.641,-701.9857 772.0159,-697.1011 777,-697.5 777,-697.5 777,-697.5 772.0159,-697.1011 777.359,-693.0143 767.0319,-696.7022 767.0319,-696.7022"/>
<text text-anchor="start" x="43.087" y="-707.5" font-family="Arial" font-size="10.00" fill="#000000">FOREIGN KEY (bucket) REFERENCES container.call_number_bucket(id) ON UPDATE CASCADE ON DELETE CASCADE DEFERRABLE INITIALLY DEFERRED</text>
</g>
<!-- asset.call_number -->
<g id="node4" class="node">
<title>asset.call_number</title>
<polygon fill="#efefef" stroke="transparent" points="1065,-432.5 1065,-467.5 1352,-467.5 1352,-432.5 1065,-432.5"/>
<polygon fill="none" stroke="#000000" points="1065,-432.5 1065,-467.5 1352,-467.5 1352,-432.5 1065,-432.5"/>
<text text-anchor="start" x="1071.7026" y="-445.3" font-family="Arial Bold" font-size="18.00" fill="#000000">asset.call_number</text>
<text text-anchor="start" x="1217.7294" y="-445.3" font-family="Arial" font-size="14.00" fill="#000000">    </text>
<text text-anchor="start" x="1251.9342" y="-445.3" font-family="Arial" font-size="14.00" fill="#666666">[BASE TABLE]</text>
<polygon fill="none" stroke="#000000" points="1065,-402.5 1065,-432.5 1352,-432.5 1352,-402.5 1065,-402.5"/>
<text text-anchor="start" x="1072" y="-413.9" font-family="Arial" font-size="14.00" fill="#000000">id    </text>
<text text-anchor="start" x="1117.094" y="-413.9" font-family="Arial" font-size="14.00" fill="#666666">[bigint]</text>
<polygon fill="none" stroke="#000000" points="1065,-372.5 1065,-402.5 1352,-402.5 1352,-372.5 1065,-372.5"/>
<text text-anchor="start" x="1072" y="-383.9" font-family="Arial" font-size="14.00" fill="#000000">creator    </text>
<text text-anchor="start" x="1149.7644" y="-383.9" font-family="Arial" font-size="14.00" fill="#666666">[bigint]</text>
<polygon fill="none" stroke="#000000" points="1065,-342.5 1065,-372.5 1352,-372.5 1352,-342.5 1065,-342.5"/>
<text text-anchor="start" x="1071.5954" y="-353.9" font-family="Arial" font-size="14.00" fill="#000000">create_date    </text>
<text text-anchor="start" x="1179.7202" y="-353.9" font-family="Arial" font-size="14.00" fill="#666666">[timestamp with time zone]</text>
<polygon fill="none" stroke="#000000" points="1065,-312.5 1065,-342.5 1352,-342.5 1352,-312.5 1065,-312.5"/>
<text text-anchor="start" x="1072" y="-323.9" font-family="Arial" font-size="14.00" fill="#000000">editor    </text>
<text text-anchor="start" x="1141.2104" y="-323.9" font-family="Arial" font-size="14.00" fill="#666666">[bigint]</text>
<polygon fill="none" stroke="#000000" points="1065,-282.5 1065,-312.5 1352,-312.5 1352,-282.5 1065,-282.5"/>
<text text-anchor="start" x="1072" y="-293.9" font-family="Arial" font-size="14.00" fill="#000000">edit_date    </text>
<text text-anchor="start" x="1163.7882" y="-293.9" font-family="Arial" font-size="14.00" fill="#666666">[timestamp with time zone]</text>
<polygon fill="none" stroke="#000000" points="1065,-252.5 1065,-282.5 1352,-282.5 1352,-252.5 1065,-252.5"/>
<text text-anchor="start" x="1072" y="-263.9" font-family="Arial" font-size="14.00" fill="#000000">record    </text>
<text text-anchor="start" x="1145.8738" y="-263.9" font-family="Arial" font-size="14.00" fill="#666666">[bigint]</text>
<polygon fill="none" stroke="#000000" points="1065,-222.5 1065,-252.5 1352,-252.5 1352,-222.5 1065,-222.5"/>
<text text-anchor="start" x="1072" y="-233.9" font-family="Arial" font-size="14.00" fill="#000000">owning_lib    </text>
<text text-anchor="start" x="1172.3268" y="-233.9" font-family="Arial" font-size="14.00" fill="#666666">[integer]</text>
<polygon fill="none" stroke="#000000" points="1065,-192.5 1065,-222.5 1352,-222.5 1352,-192.5 1065,-192.5"/>
<text text-anchor="start" x="1072" y="-203.9" font-family="Arial" font-size="14.00" fill="#000000">label    </text>
<text text-anchor="start" x="1135.7658" y="-203.9" font-family="Arial" font-size="14.00" fill="#666666">[text]</text>
<polygon fill="none" stroke="#000000" points="1065,-162.5 1065,-192.5 1352,-192.5 1352,-162.5 1065,-162.5"/>
<text text-anchor="start" x="1072" y="-173.9" font-family="Arial" font-size="14.00" fill="#000000">deleted    </text>
<text text-anchor="start" x="1152.115" y="-173.9" font-family="Arial" font-size="14.00" fill="#666666">[boolean]</text>
<polygon fill="none" stroke="#000000" points="1065,-132.5 1065,-162.5 1352,-162.5 1352,-132.5 1065,-132.5"/>
<text text-anchor="start" x="1072" y="-143.9" font-family="Arial" font-size="14.00" fill="#000000">prefix    </text>
<text text-anchor="start" x="1140.4278" y="-143.9" font-family="Arial" font-size="14.00" fill="#666666">[integer]</text>
<polygon fill="none" stroke="#000000" points="1065,-102.5 1065,-132.5 1352,-132.5 1352,-102.5 1065,-102.5"/>
<text text-anchor="start" x="1072" y="-113.9" font-family="Arial" font-size="14.00" fill="#000000">suffix    </text>
<text text-anchor="start" x="1138.8752" y="-113.9" font-family="Arial" font-size="14.00" fill="#666666">[integer]</text>
<polygon fill="none" stroke="#000000" points="1065,-72.5 1065,-102.5 1352,-102.5 1352,-72.5 1065,-72.5"/>
<text text-anchor="start" x="1072" y="-83.9" font-family="Arial" font-size="14.00" fill="#000000">label_class    </text>
<text text-anchor="start" x="1175.4376" y="-83.9" font-family="Arial" font-size="14.00" fill="#666666">[bigint]</text>
<polygon fill="none" stroke="#000000" points="1065,-42.5 1065,-72.5 1352,-72.5 1352,-42.5 1065,-42.5"/>
<text text-anchor="start" x="1072" y="-53.9" font-family="Arial" font-size="14.00" fill="#000000">label_sortkey    </text>
<text text-anchor="start" x="1188.6648" y="-53.9" font-family="Arial" font-size="14.00" fill="#666666">[text]</text>
</g>
<!-- container.call_number_bucket_item&#45;&gt;asset.call_number -->
<g id="edge3" class="edge">
<title>container.call_number_bucket_item:target_call_number&#45;&gt;asset.call_number:id</title>
<path fill="none" stroke="#000000" d="M1211.96,-666.4416C1252.6495,-656.9903 1232.4695,-586.5104 1202,-547 1163.5542,-497.1465 1103.4458,-560.8535 1065,-511 1039.623,-478.093 1023.4444,-417.5 1065,-417.5"/>
<polygon fill="#000000" stroke="#000000" points="1211.944,-666.4432 1201.5244,-663.0252 1206.972,-666.9716 1202,-667.5 1202,-667.5 1202,-667.5 1206.972,-666.9716 1202.4756,-671.9748 1211.944,-666.4432 1211.944,-666.4432"/>
<text text-anchor="start" x="1209.1485" y="-677.5" font-family="Arial" font-size="10.00" fill="#000000">FOREIGN KEY (target_call_number) REFERENCES asset.call_number(id) ON UPDATE CASCADE ON DELETE CASCADE DEFERRABLE INITIALLY DEFERRED</text>
</g>
<!-- container.call_number_bucket_item_note -->
<g id="node2" class="node">
<title>container.call_number_bucket_item_note</title>
<polygon fill="#efefef" stroke="transparent" points="755,-992.5 755,-1027.5 1225,-1027.5 1225,-992.5 755,-992.5"/>
<polygon fill="none" stroke="#000000" points="755,-992.5 755,-1027.5 1225,-1027.5 1225,-992.5 755,-992.5"/>
<text text-anchor="start" x="761.6726" y="-1005.3" font-family="Arial Bold" font-size="18.00" fill="#000000">container.call_number_bucket_item_note</text>
<text text-anchor="start" x="1090.7594" y="-1005.3" font-family="Arial" font-size="14.00" fill="#000000">    </text>
<text text-anchor="start" x="1124.9642" y="-1005.3" font-family="Arial" font-size="14.00" fill="#666666">[BASE TABLE]</text>
<polygon fill="none" stroke="#000000" points="755,-962.5 755,-992.5 1225,-992.5 1225,-962.5 755,-962.5"/>
<text text-anchor="start" x="762" y="-973.9" font-family="Arial" font-size="14.00" fill="#000000">id    </text>
<text text-anchor="start" x="807.094" y="-973.9" font-family="Arial" font-size="14.00" fill="#666666">[integer]</text>
<polygon fill="none" stroke="#000000" points="755,-932.5 755,-962.5 1225,-962.5 1225,-932.5 755,-932.5"/>
<text text-anchor="start" x="762" y="-943.9" font-family="Arial" font-size="14.00" fill="#000000">item    </text>
<text text-anchor="start" x="822.6452" y="-943.9" font-family="Arial" font-size="14.00" fill="#666666">[integer]</text>
<polygon fill="none" stroke="#000000" points="755,-902.5 755,-932.5 1225,-932.5 1225,-902.5 755,-902.5"/>
<text text-anchor="start" x="762" y="-913.9" font-family="Arial" font-size="14.00" fill="#000000">note    </text>
<text text-anchor="start" x="823.4432" y="-913.9" font-family="Arial" font-size="14.00" fill="#666666">[text]</text>
</g>
<!-- container.call_number_bucket_item_note&#45;&gt;container.call_number_bucket_item -->
<g id="edge1" class="edge">
<title>container.call_number_bucket_item_note:item&#45;&gt;container.call_number_bucket_item:id</title>
<path fill="none" stroke="#000000" d="M745.0425,-945.8974C718.688,-936.2817 731.2036,-885.7899 755,-860 822.5791,-786.7595 1134.4209,-897.2405 1202,-824 1231.0843,-792.4792 1244.8889,-727.5 1202,-727.5"/>
<polygon fill="#000000" stroke="#000000" points="745.127,-945.911 754.2849,-951.9428 750.0635,-946.7055 755,-947.5 755,-947.5 755,-947.5 750.0635,-946.7055 755.7151,-943.0572 745.127,-945.911 745.127,-945.911"/>
<text text-anchor="start" x="7.1495" y="-957.5" font-family="Arial" font-size="10.00" fill="#000000">FOREIGN KEY (item) REFERENCES container.call_number_bucket_item(id) ON UPDATE CASCADE ON DELETE CASCADE DEFERRABLE INITIALLY DEFERRED</text>
</g>
</g>
</svg>
