<?xml version="1.0" encoding="UTF-8" standalone="no"?>
<!DOCTYPE svg PUBLIC "-//W3C//DTD SVG 1.1//EN"
 "http://www.w3.org/Graphics/SVG/1.1/DTD/svg11.dtd">
<!-- Generated by graphviz version 2.40.1 (20161225.0304)
 -->
<!-- Title: container.carousel_org_unit Pages: 1 -->
<svg width="1058pt" height="892pt"
 viewBox="0.00 0.00 1058.00 892.00" xmlns="http://www.w3.org/2000/svg" xmlns:xlink="http://www.w3.org/1999/xlink">
<g id="graph0" class="graph" transform="scale(1 1) rotate(0) translate(4 888)">
<title>container.carousel_org_unit</title>
<polygon fill="#ffffff" stroke="transparent" points="-4,4 -4,-888 1054,-888 1054,4 -4,4"/>
<!-- container.carousel_org_unit -->
<g id="node1" class="node">
<title>container.carousel_org_unit</title>
<polygon fill="#efefef" stroke="transparent" points="410,-802.5 410,-837.5 773,-837.5 773,-802.5 410,-802.5"/>
<polygon fill="none" stroke="#000000" points="410,-802.5 410,-837.5 773,-837.5 773,-802.5 410,-802.5"/>
<text text-anchor="start" x="416.6866" y="-815.3" font-family="Arial Bold" font-size="18.00" fill="#000000">container.carousel_org_unit</text>
<text text-anchor="start" x="638.7454" y="-815.3" font-family="Arial" font-size="14.00" fill="#000000">    </text>
<text text-anchor="start" x="672.9502" y="-815.3" font-family="Arial" font-size="14.00" fill="#666666">[BASE TABLE]</text>
<polygon fill="none" stroke="#000000" points="410,-772.5 410,-802.5 773,-802.5 773,-772.5 410,-772.5"/>
<text text-anchor="start" x="417" y="-783.9" font-family="Arial" font-size="14.00" fill="#000000">id </text>
<text text-anchor="start" x="431.7798" y="-783.9" font-family="Arial" font-size="14.00" fill="#666666">[integer]</text>
<polygon fill="none" stroke="#000000" points="410,-742.5 410,-772.5 773,-772.5 773,-742.5 410,-742.5"/>
<text text-anchor="start" x="417" y="-753.9" font-family="Arial" font-size="14.00" fill="#000000">carousel </text>
<text text-anchor="start" x="473.7882" y="-753.9" font-family="Arial" font-size="14.00" fill="#666666">[integer]</text>
<polygon fill="none" stroke="#000000" points="410,-712.5 410,-742.5 773,-742.5 773,-712.5 410,-712.5"/>
<text text-anchor="start" x="417" y="-723.9" font-family="Arial" font-size="14.00" fill="#000000">override_name </text>
<text text-anchor="start" x="514.2398" y="-723.9" font-family="Arial" font-size="14.00" fill="#666666">[text]</text>
<polygon fill="none" stroke="#000000" points="410,-682.5 410,-712.5 773,-712.5 773,-682.5 410,-682.5"/>
<text text-anchor="start" x="417" y="-693.9" font-family="Arial" font-size="14.00" fill="#000000">org_unit </text>
<text text-anchor="start" x="471.4614" y="-693.9" font-family="Arial" font-size="14.00" fill="#666666">[integer]</text>
<polygon fill="none" stroke="#000000" points="410,-652.5 410,-682.5 773,-682.5 773,-652.5 410,-652.5"/>
<text text-anchor="start" x="417" y="-663.9" font-family="Arial" font-size="14.00" fill="#000000">seq </text>
<text text-anchor="start" x="443.4558" y="-663.9" font-family="Arial" font-size="14.00" fill="#666666">[integer]</text>
<polygon fill="none" stroke="#000000" stroke-width="3" points="408,-651.5 408,-839.5 774,-839.5 774,-651.5 408,-651.5"/>
</g>
<!-- container.carousel -->
<g id="node2" class="node">
<title>container.carousel</title>
<polygon fill="#efefef" stroke="transparent" points="236,-492.5 236,-527.5 557,-527.5 557,-492.5 236,-492.5"/>
<polygon fill="none" stroke="#000000" points="236,-492.5 236,-527.5 557,-527.5 557,-492.5 236,-492.5"/>
<text text-anchor="start" x="259.1995" y="-505.3" font-family="Arial Bold" font-size="18.00" fill="#000000">container.carousel</text>
<text text-anchor="start" x="406.2325" y="-505.3" font-family="Arial" font-size="14.00" fill="#000000">    </text>
<text text-anchor="start" x="440.4373" y="-505.3" font-family="Arial" font-size="14.00" fill="#666666">[BASE TABLE]</text>
<polygon fill="none" stroke="#000000" points="236,-462.5 236,-492.5 557,-492.5 557,-462.5 236,-462.5"/>
<text text-anchor="start" x="243" y="-473.9" font-family="Arial" font-size="14.00" fill="#000000">id    </text>
<text text-anchor="start" x="288.094" y="-473.9" font-family="Arial" font-size="14.00" fill="#666666">[integer]</text>
<polygon fill="none" stroke="#000000" points="236,-432.5 236,-462.5 557,-462.5 557,-432.5 236,-432.5"/>
<text text-anchor="start" x="243" y="-443.9" font-family="Arial" font-size="14.00" fill="#000000">type    </text>
<text text-anchor="start" x="303.6606" y="-443.9" font-family="Arial" font-size="14.00" fill="#666666">[integer]</text>
<polygon fill="none" stroke="#000000" points="236,-402.5 236,-432.5 557,-432.5 557,-402.5 236,-402.5"/>
<text text-anchor="start" x="243" y="-413.9" font-family="Arial" font-size="14.00" fill="#000000">owner    </text>
<text text-anchor="start" x="315.3198" y="-413.9" font-family="Arial" font-size="14.00" fill="#666666">[integer]</text>
<polygon fill="none" stroke="#000000" points="236,-372.5 236,-402.5 557,-402.5 557,-372.5 236,-372.5"/>
<text text-anchor="start" x="243" y="-383.9" font-family="Arial" font-size="14.00" fill="#000000">name    </text>
<text text-anchor="start" x="312.2132" y="-383.9" font-family="Arial" font-size="14.00" fill="#666666">[text]</text>
<polygon fill="none" stroke="#000000" points="236,-342.5 236,-372.5 557,-372.5 557,-342.5 236,-342.5"/>
<text text-anchor="start" x="243" y="-353.9" font-family="Arial" font-size="14.00" fill="#000000">bucket    </text>
<text text-anchor="start" x="318.4432" y="-353.9" font-family="Arial" font-size="14.00" fill="#666666">[integer]</text>
<polygon fill="none" stroke="#000000" points="236,-312.5 236,-342.5 557,-342.5 557,-312.5 236,-312.5"/>
<text text-anchor="start" x="243" y="-323.9" font-family="Arial" font-size="14.00" fill="#000000">creator    </text>
<text text-anchor="start" x="320.7644" y="-323.9" font-family="Arial" font-size="14.00" fill="#666666">[integer]</text>
<polygon fill="none" stroke="#000000" points="236,-282.5 236,-312.5 557,-312.5 557,-282.5 236,-282.5"/>
<text text-anchor="start" x="243" y="-293.9" font-family="Arial" font-size="14.00" fill="#000000">editor    </text>
<text text-anchor="start" x="312.2104" y="-293.9" font-family="Arial" font-size="14.00" fill="#666666">[integer]</text>
<polygon fill="none" stroke="#000000" points="236,-252.5 236,-282.5 557,-282.5 557,-252.5 236,-252.5"/>
<text text-anchor="start" x="243" y="-263.9" font-family="Arial" font-size="14.00" fill="#000000">create_time    </text>
<text text-anchor="start" x="350.3268" y="-263.9" font-family="Arial" font-size="14.00" fill="#666666">[timestamp with time zone]</text>
<polygon fill="none" stroke="#000000" points="236,-222.5 236,-252.5 557,-252.5 557,-222.5 236,-222.5"/>
<text text-anchor="start" x="243" y="-233.9" font-family="Arial" font-size="14.00" fill="#000000">edit_time    </text>
<text text-anchor="start" x="333.9902" y="-233.9" font-family="Arial" font-size="14.00" fill="#666666">[timestamp with time zone]</text>
<polygon fill="none" stroke="#000000" points="236,-192.5 236,-222.5 557,-222.5 557,-192.5 236,-192.5"/>
<text text-anchor="start" x="243" y="-203.9" font-family="Arial" font-size="14.00" fill="#000000">age_filter    </text>
<text text-anchor="start" x="334.7728" y="-203.9" font-family="Arial" font-size="14.00" fill="#666666">[interval]</text>
<polygon fill="none" stroke="#000000" points="236,-162.5 236,-192.5 557,-192.5 557,-162.5 236,-162.5"/>
<text text-anchor="start" x="243" y="-173.9" font-family="Arial" font-size="14.00" fill="#000000">owning_lib_filter    </text>
<text text-anchor="start" x="377.547" y="-173.9" font-family="Arial" font-size="14.00" fill="#666666">[integer[]]</text>
<polygon fill="none" stroke="#000000" points="236,-132.5 236,-162.5 557,-162.5 557,-132.5 236,-132.5"/>
<text text-anchor="start" x="243" y="-143.9" font-family="Arial" font-size="14.00" fill="#000000">copy_location_filter    </text>
<text text-anchor="start" x="397.007" y="-143.9" font-family="Arial" font-size="14.00" fill="#666666">[integer[]]</text>
<polygon fill="none" stroke="#000000" points="236,-102.5 236,-132.5 557,-132.5 557,-102.5 236,-102.5"/>
<text text-anchor="start" x="242.8829" y="-113.9" font-family="Arial" font-size="14.00" fill="#000000">last_refresh_time    </text>
<text text-anchor="start" x="384.4327" y="-113.9" font-family="Arial" font-size="14.00" fill="#666666">[timestamp with time zone]</text>
<polygon fill="none" stroke="#000000" points="236,-72.5 236,-102.5 557,-102.5 557,-72.5 236,-72.5"/>
<text text-anchor="start" x="243" y="-83.9" font-family="Arial" font-size="14.00" fill="#000000">active    </text>
<text text-anchor="start" x="313.7672" y="-83.9" font-family="Arial" font-size="14.00" fill="#666666">[boolean]</text>
<polygon fill="none" stroke="#000000" points="236,-42.5 236,-72.5 557,-72.5 557,-42.5 236,-42.5"/>
<text text-anchor="start" x="243" y="-53.9" font-family="Arial" font-size="14.00" fill="#000000">max_items    </text>
<text text-anchor="start" x="344.871" y="-53.9" font-family="Arial" font-size="14.00" fill="#666666">[integer]</text>
</g>
<!-- container.carousel_org_unit&#45;&gt;container.carousel -->
<g id="edge1" class="edge">
<title>container.carousel_org_unit:carousel&#45;&gt;container.carousel:id</title>
<path fill="none" stroke="#000000" d="M399.8433,-756.6452C345.9578,-746.9301 370.9672,-656.7453 410,-607 451.5224,-554.0818 515.4776,-623.9182 557,-571 582.6525,-538.3073 598.5556,-477.5 557,-477.5"/>
<polygon fill="#000000" stroke="#000000" points="400.0352,-756.6613 409.6226,-761.9841 405.0176,-757.0807 410,-757.5 410,-757.5 410,-757.5 405.0176,-757.0807 410.3774,-753.0159 400.0352,-756.6613 400.0352,-756.6613"/>
<text text-anchor="start" x="6.9345" y="-767.5" font-family="Arial" font-size="10.00" fill="#000000">FOREIGN KEY (carousel) REFERENCES container.carousel(id) ON DELETE CASCADE</text>
</g>
<!-- actor.org_unit -->
<g id="node3" class="node">
<title>actor.org_unit</title>
<polygon fill="#efefef" stroke="transparent" points="661,-462.5 661,-497.5 912,-497.5 912,-462.5 661,-462.5"/>
<polygon fill="none" stroke="#000000" points="661,-462.5 661,-497.5 912,-497.5 912,-462.5 661,-462.5"/>
<text text-anchor="start" x="667.7017" y="-475.3" font-family="Arial Bold" font-size="18.00" fill="#000000">actor.org_unit</text>
<text text-anchor="start" x="777.7303" y="-475.3" font-family="Arial" font-size="14.00" fill="#000000">    </text>
<text text-anchor="start" x="811.9351" y="-475.3" font-family="Arial" font-size="14.00" fill="#666666">[BASE TABLE]</text>
<polygon fill="none" stroke="#000000" points="661,-432.5 661,-462.5 912,-462.5 912,-432.5 661,-432.5"/>
<text text-anchor="start" x="668" y="-443.9" font-family="Arial" font-size="14.00" fill="#000000">id    </text>
<text text-anchor="start" x="713.094" y="-443.9" font-family="Arial" font-size="14.00" fill="#666666">[integer]</text>
<polygon fill="none" stroke="#000000" points="661,-402.5 661,-432.5 912,-432.5 912,-402.5 661,-402.5"/>
<text text-anchor="start" x="668" y="-413.9" font-family="Arial" font-size="14.00" fill="#000000">parent_ou    </text>
<text text-anchor="start" x="765.2342" y="-413.9" font-family="Arial" font-size="14.00" fill="#666666">[integer]</text>
<polygon fill="none" stroke="#000000" points="661,-372.5 661,-402.5 912,-402.5 912,-372.5 661,-372.5"/>
<text text-anchor="start" x="668" y="-383.9" font-family="Arial" font-size="14.00" fill="#000000">ou_type    </text>
<text text-anchor="start" x="752.0084" y="-383.9" font-family="Arial" font-size="14.00" fill="#666666">[integer]</text>
<polygon fill="none" stroke="#000000" points="661,-342.5 661,-372.5 912,-372.5 912,-342.5 661,-342.5"/>
<text text-anchor="start" x="668" y="-353.9" font-family="Arial" font-size="14.00" fill="#000000">ill_address    </text>
<text text-anchor="start" x="769.0982" y="-353.9" font-family="Arial" font-size="14.00" fill="#666666">[integer]</text>
<polygon fill="none" stroke="#000000" points="661,-312.5 661,-342.5 912,-342.5 912,-312.5 661,-312.5"/>
<text text-anchor="start" x="668" y="-323.9" font-family="Arial" font-size="14.00" fill="#000000">holds_address    </text>
<text text-anchor="start" x="793.2328" y="-323.9" font-family="Arial" font-size="14.00" fill="#666666">[integer]</text>
<polygon fill="none" stroke="#000000" points="661,-282.5 661,-312.5 912,-312.5 912,-282.5 661,-282.5"/>
<text text-anchor="start" x="668" y="-293.9" font-family="Arial" font-size="14.00" fill="#000000">mailing_address    </text>
<text text-anchor="start" x="804.1066" y="-293.9" font-family="Arial" font-size="14.00" fill="#666666">[integer]</text>
<polygon fill="none" stroke="#000000" points="661,-252.5 661,-282.5 912,-282.5 912,-252.5 661,-252.5"/>
<text text-anchor="start" x="668" y="-263.9" font-family="Arial" font-size="14.00" fill="#000000">billing_address    </text>
<text text-anchor="start" x="795.5526" y="-263.9" font-family="Arial" font-size="14.00" fill="#666666">[integer]</text>
<polygon fill="none" stroke="#000000" points="661,-222.5 661,-252.5 912,-252.5 912,-222.5 661,-222.5"/>
<text text-anchor="start" x="668" y="-233.9" font-family="Arial" font-size="14.00" fill="#000000">shortname    </text>
<text text-anchor="start" x="768.3296" y="-233.9" font-family="Arial" font-size="14.00" fill="#666666">[text]</text>
<polygon fill="none" stroke="#000000" points="661,-192.5 661,-222.5 912,-222.5 912,-192.5 661,-192.5"/>
<text text-anchor="start" x="668" y="-203.9" font-family="Arial" font-size="14.00" fill="#000000">name    </text>
<text text-anchor="start" x="737.2132" y="-203.9" font-family="Arial" font-size="14.00" fill="#666666">[text]</text>
<polygon fill="none" stroke="#000000" points="661,-162.5 661,-192.5 912,-192.5 912,-162.5 661,-162.5"/>
<text text-anchor="start" x="668" y="-173.9" font-family="Arial" font-size="14.00" fill="#000000">email    </text>
<text text-anchor="start" x="735.6438" y="-173.9" font-family="Arial" font-size="14.00" fill="#666666">[text]</text>
<polygon fill="none" stroke="#000000" points="661,-132.5 661,-162.5 912,-162.5 912,-132.5 661,-132.5"/>
<text text-anchor="start" x="668" y="-143.9" font-family="Arial" font-size="14.00" fill="#000000">phone    </text>
<text text-anchor="start" x="741.1178" y="-143.9" font-family="Arial" font-size="14.00" fill="#666666">[text]</text>
<polygon fill="none" stroke="#000000" points="661,-102.5 661,-132.5 912,-132.5 912,-102.5 661,-102.5"/>
<text text-anchor="start" x="668" y="-113.9" font-family="Arial" font-size="14.00" fill="#000000">opac_visible    </text>
<text text-anchor="start" x="779.2202" y="-113.9" font-family="Arial" font-size="14.00" fill="#666666">[boolean]</text>
<polygon fill="none" stroke="#000000" points="661,-72.5 661,-102.5 912,-102.5 912,-72.5 661,-72.5"/>
<text text-anchor="start" x="668" y="-83.9" font-family="Arial" font-size="14.00" fill="#000000">fiscal_calendar    </text>
<text text-anchor="start" x="795.554" y="-83.9" font-family="Arial" font-size="14.00" fill="#666666">[integer]</text>
</g>
<!-- container.carousel_org_unit&#45;&gt;actor.org_unit -->
<g id="edge2" class="edge">
<title>container.carousel_org_unit:org_unit&#45;&gt;actor.org_unit:id</title>
<path fill="none" stroke="#000000" d="M783.1099,-695.9809C809.2669,-686.842 791.007,-638.5123 773,-607 744.3342,-556.8348 689.6658,-591.1652 661,-541 640.3827,-504.9197 619.4444,-447.5 661,-447.5"/>
<polygon fill="#000000" stroke="#000000" points="782.889,-696.014 772.3313,-693.05 777.9445,-696.757 773,-697.5 773,-697.5 773,-697.5 777.9445,-696.757 773.6687,-701.95 782.889,-696.014 782.889,-696.014"/>
<text text-anchor="start" x="780.3255" y="-707.5" font-family="Arial" font-size="10.00" fill="#000000">FOREIGN KEY (org_unit) REFERENCES actor.org_unit(id)</text>
</g>
</g>
</svg>
