<?xml version="1.0" encoding="UTF-8" standalone="no"?>
<!DOCTYPE svg PUBLIC "-//W3C//DTD SVG 1.1//EN"
 "http://www.w3.org/Graphics/SVG/1.1/DTD/svg11.dtd">
<!-- Generated by graphviz version 2.40.1 (20161225.0304)
 -->
<!-- Title: container.user_bucket_item Pages: 1 -->
<svg width="1818pt" height="2159pt"
 viewBox="0.00 0.00 1818.00 2159.00" xmlns="http://www.w3.org/2000/svg" xmlns:xlink="http://www.w3.org/1999/xlink">
<g id="graph0" class="graph" transform="scale(1 1) rotate(0) translate(4 2155)">
<title>container.user_bucket_item</title>
<polygon fill="#ffffff" stroke="transparent" points="-4,4 -4,-2155 1814,-2155 1814,4 -4,4"/>
<!-- container.user_bucket_item -->
<g id="node1" class="node">
<title>container.user_bucket_item</title>
<polygon fill="#efefef" stroke="transparent" points="706,-1822.5 706,-1857.5 1068,-1857.5 1068,-1822.5 706,-1822.5"/>
<polygon fill="none" stroke="#000000" points="706,-1822.5 706,-1857.5 1068,-1857.5 1068,-1822.5 706,-1822.5"/>
<text text-anchor="start" x="712.6888" y="-1835.3" font-family="Arial Bold" font-size="18.00" fill="#000000">container.user_bucket_item</text>
<text text-anchor="start" x="933.7432" y="-1835.3" font-family="Arial" font-size="14.00" fill="#000000">    </text>
<text text-anchor="start" x="967.948" y="-1835.3" font-family="Arial" font-size="14.00" fill="#666666">[BASE TABLE]</text>
<polygon fill="none" stroke="#000000" points="706,-1792.5 706,-1822.5 1068,-1822.5 1068,-1792.5 706,-1792.5"/>
<text text-anchor="start" x="713" y="-1803.9" font-family="Arial" font-size="14.00" fill="#000000">id </text>
<text text-anchor="start" x="727.7798" y="-1803.9" font-family="Arial" font-size="14.00" fill="#666666">[integer]</text>
<polygon fill="none" stroke="#000000" points="706,-1762.5 706,-1792.5 1068,-1792.5 1068,-1762.5 706,-1762.5"/>
<text text-anchor="start" x="713" y="-1773.9" font-family="Arial" font-size="14.00" fill="#000000">bucket </text>
<text text-anchor="start" x="758.129" y="-1773.9" font-family="Arial" font-size="14.00" fill="#666666">[integer]</text>
<polygon fill="none" stroke="#000000" points="706,-1732.5 706,-1762.5 1068,-1762.5 1068,-1732.5 706,-1732.5"/>
<text text-anchor="start" x="713" y="-1743.9" font-family="Arial" font-size="14.00" fill="#000000">target_user </text>
<text text-anchor="start" x="787.6886" y="-1743.9" font-family="Arial" font-size="14.00" fill="#666666">[integer]</text>
<polygon fill="none" stroke="#000000" points="706,-1702.5 706,-1732.5 1068,-1732.5 1068,-1702.5 706,-1702.5"/>
<text text-anchor="start" x="713" y="-1713.9" font-family="Arial" font-size="14.00" fill="#000000">pos </text>
<text text-anchor="start" x="739.4558" y="-1713.9" font-family="Arial" font-size="14.00" fill="#666666">[integer]</text>
<polygon fill="none" stroke="#000000" points="706,-1672.5 706,-1702.5 1068,-1702.5 1068,-1672.5 706,-1672.5"/>
<text text-anchor="start" x="713" y="-1683.9" font-family="Arial" font-size="14.00" fill="#000000">create_time </text>
<text text-anchor="start" x="790.0126" y="-1683.9" font-family="Arial" font-size="14.00" fill="#666666">[timestamp with time zone]</text>
<polygon fill="none" stroke="#000000" stroke-width="3" points="704.5,-1671.5 704.5,-1859.5 1069.5,-1859.5 1069.5,-1671.5 704.5,-1671.5"/>
</g>
<!-- container.user_bucket -->
<g id="node3" class="node">
<title>container.user_bucket</title>
<polygon fill="#efefef" stroke="transparent" points="517,-897.5 517,-932.5 835,-932.5 835,-897.5 517,-897.5"/>
<polygon fill="none" stroke="#000000" points="517,-897.5 517,-932.5 835,-932.5 835,-897.5 517,-897.5"/>
<text text-anchor="start" x="523.6893" y="-910.3" font-family="Arial Bold" font-size="18.00" fill="#000000">container.user_bucket</text>
<text text-anchor="start" x="700.7427" y="-910.3" font-family="Arial" font-size="14.00" fill="#000000">    </text>
<text text-anchor="start" x="734.9475" y="-910.3" font-family="Arial" font-size="14.00" fill="#666666">[BASE TABLE]</text>
<polygon fill="none" stroke="#000000" points="517,-867.5 517,-897.5 835,-897.5 835,-867.5 517,-867.5"/>
<text text-anchor="start" x="524" y="-878.9" font-family="Arial" font-size="14.00" fill="#000000">id    </text>
<text text-anchor="start" x="569.094" y="-878.9" font-family="Arial" font-size="14.00" fill="#666666">[integer]</text>
<polygon fill="none" stroke="#000000" points="517,-837.5 517,-867.5 835,-867.5 835,-837.5 517,-837.5"/>
<text text-anchor="start" x="524" y="-848.9" font-family="Arial" font-size="14.00" fill="#000000">owner    </text>
<text text-anchor="start" x="596.3198" y="-848.9" font-family="Arial" font-size="14.00" fill="#666666">[integer]</text>
<polygon fill="none" stroke="#000000" points="517,-807.5 517,-837.5 835,-837.5 835,-807.5 517,-807.5"/>
<text text-anchor="start" x="524" y="-818.9" font-family="Arial" font-size="14.00" fill="#000000">name    </text>
<text text-anchor="start" x="593.2132" y="-818.9" font-family="Arial" font-size="14.00" fill="#666666">[text]</text>
<polygon fill="none" stroke="#000000" points="517,-777.5 517,-807.5 835,-807.5 835,-777.5 517,-777.5"/>
<text text-anchor="start" x="524" y="-788.9" font-family="Arial" font-size="14.00" fill="#000000">btype    </text>
<text text-anchor="start" x="592.4432" y="-788.9" font-family="Arial" font-size="14.00" fill="#666666">[text]</text>
<polygon fill="none" stroke="#000000" points="517,-747.5 517,-777.5 835,-777.5 835,-747.5 517,-747.5"/>
<text text-anchor="start" x="524" y="-758.9" font-family="Arial" font-size="14.00" fill="#000000">description    </text>
<text text-anchor="start" x="625.8822" y="-758.9" font-family="Arial" font-size="14.00" fill="#666666">[text]</text>
<polygon fill="none" stroke="#000000" points="517,-717.5 517,-747.5 835,-747.5 835,-717.5 517,-717.5"/>
<text text-anchor="start" x="524" y="-728.9" font-family="Arial" font-size="14.00" fill="#000000">pub    </text>
<text text-anchor="start" x="581.5526" y="-728.9" font-family="Arial" font-size="14.00" fill="#666666">[boolean]</text>
<polygon fill="none" stroke="#000000" points="517,-687.5 517,-717.5 835,-717.5 835,-687.5 517,-687.5"/>
<text text-anchor="start" x="524" y="-698.9" font-family="Arial" font-size="14.00" fill="#000000">owning_lib    </text>
<text text-anchor="start" x="624.3268" y="-698.9" font-family="Arial" font-size="14.00" fill="#666666">[integer]</text>
<polygon fill="none" stroke="#000000" points="517,-657.5 517,-687.5 835,-687.5 835,-657.5 517,-657.5"/>
<text text-anchor="start" x="524" y="-668.9" font-family="Arial" font-size="14.00" fill="#000000">create_time    </text>
<text text-anchor="start" x="631.3268" y="-668.9" font-family="Arial" font-size="14.00" fill="#666666">[timestamp with time zone]</text>
</g>
<!-- container.user_bucket_item&#45;&gt;container.user_bucket -->
<g id="edge2" class="edge">
<title>container.user_bucket_item:bucket&#45;&gt;container.user_bucket:id</title>
<path fill="none" stroke="#000000" d="M695.817,-1776.6342C523.9994,-1745.4533 1032.3139,-882.5 835,-882.5"/>
<polygon fill="#000000" stroke="#000000" points="696.036,-1776.6527 705.6187,-1781.9838 701.018,-1777.0764 706,-1777.5 706,-1777.5 706,-1777.5 701.018,-1777.0764 706.3813,-1773.0162 696.036,-1776.6527 696.036,-1776.6527"/>
<text text-anchor="start" x="6.5885" y="-1787.5" font-family="Arial" font-size="10.00" fill="#000000">FOREIGN KEY (bucket) REFERENCES container.user_bucket(id) ON UPDATE CASCADE ON DELETE CASCADE DEFERRABLE INITIALLY DEFERRED</text>
</g>
<!-- actor.usr -->
<g id="node4" class="node">
<title>actor.usr</title>
<polygon fill="#efefef" stroke="transparent" points="939,-1512.5 939,-1547.5 1259,-1547.5 1259,-1512.5 939,-1512.5"/>
<polygon fill="none" stroke="#000000" points="939,-1512.5 939,-1547.5 1259,-1547.5 1259,-1512.5 939,-1512.5"/>
<text text-anchor="start" x="1000.2123" y="-1525.3" font-family="Arial Bold" font-size="18.00" fill="#000000">actor.usr</text>
<text text-anchor="start" x="1070.2197" y="-1525.3" font-family="Arial" font-size="14.00" fill="#000000">    </text>
<text text-anchor="start" x="1104.4245" y="-1525.3" font-family="Arial" font-size="14.00" fill="#666666">[BASE TABLE]</text>
<polygon fill="none" stroke="#000000" points="939,-1482.5 939,-1512.5 1259,-1512.5 1259,-1482.5 939,-1482.5"/>
<text text-anchor="start" x="946" y="-1493.9" font-family="Arial" font-size="14.00" fill="#000000">id    </text>
<text text-anchor="start" x="991.094" y="-1493.9" font-family="Arial" font-size="14.00" fill="#666666">[integer]</text>
<polygon fill="none" stroke="#000000" points="939,-1452.5 939,-1482.5 1259,-1482.5 1259,-1452.5 939,-1452.5"/>
<text text-anchor="start" x="946" y="-1463.9" font-family="Arial" font-size="14.00" fill="#000000">card    </text>
<text text-anchor="start" x="1007.4306" y="-1463.9" font-family="Arial" font-size="14.00" fill="#666666">[integer]</text>
<polygon fill="none" stroke="#000000" points="939,-1422.5 939,-1452.5 1259,-1452.5 1259,-1422.5 939,-1422.5"/>
<text text-anchor="start" x="946" y="-1433.9" font-family="Arial" font-size="14.00" fill="#000000">profile    </text>
<text text-anchor="start" x="1018.317" y="-1433.9" font-family="Arial" font-size="14.00" fill="#666666">[integer]</text>
<polygon fill="none" stroke="#000000" points="939,-1392.5 939,-1422.5 1259,-1422.5 1259,-1392.5 939,-1392.5"/>
<text text-anchor="start" x="946" y="-1403.9" font-family="Arial" font-size="14.00" fill="#000000">usrname    </text>
<text text-anchor="start" x="1034.6564" y="-1403.9" font-family="Arial" font-size="14.00" fill="#666666">[text]</text>
<polygon fill="none" stroke="#000000" points="939,-1362.5 939,-1392.5 1259,-1392.5 1259,-1362.5 939,-1362.5"/>
<text text-anchor="start" x="946" y="-1373.9" font-family="Arial" font-size="14.00" fill="#000000">email    </text>
<text text-anchor="start" x="1013.6438" y="-1373.9" font-family="Arial" font-size="14.00" fill="#666666">[text]</text>
<polygon fill="none" stroke="#000000" points="939,-1332.5 939,-1362.5 1259,-1362.5 1259,-1332.5 939,-1332.5"/>
<text text-anchor="start" x="946" y="-1343.9" font-family="Arial" font-size="14.00" fill="#000000">passwd    </text>
<text text-anchor="start" x="1027.6592" y="-1343.9" font-family="Arial" font-size="14.00" fill="#666666">[text]</text>
<polygon fill="none" stroke="#000000" points="939,-1302.5 939,-1332.5 1259,-1332.5 1259,-1302.5 939,-1302.5"/>
<text text-anchor="start" x="946" y="-1313.9" font-family="Arial" font-size="14.00" fill="#000000">standing    </text>
<text text-anchor="start" x="1033.115" y="-1313.9" font-family="Arial" font-size="14.00" fill="#666666">[integer]</text>
<polygon fill="none" stroke="#000000" points="939,-1272.5 939,-1302.5 1259,-1302.5 1259,-1272.5 939,-1272.5"/>
<text text-anchor="start" x="946" y="-1283.9" font-family="Arial" font-size="14.00" fill="#000000">ident_type    </text>
<text text-anchor="start" x="1044.7882" y="-1283.9" font-family="Arial" font-size="14.00" fill="#666666">[integer]</text>
<polygon fill="none" stroke="#000000" points="939,-1242.5 939,-1272.5 1259,-1272.5 1259,-1242.5 939,-1242.5"/>
<text text-anchor="start" x="946" y="-1253.9" font-family="Arial" font-size="14.00" fill="#000000">ident_value    </text>
<text text-anchor="start" x="1051.7868" y="-1253.9" font-family="Arial" font-size="14.00" fill="#666666">[text]</text>
<polygon fill="none" stroke="#000000" points="939,-1212.5 939,-1242.5 1259,-1242.5 1259,-1212.5 939,-1212.5"/>
<text text-anchor="start" x="946" y="-1223.9" font-family="Arial" font-size="14.00" fill="#000000">ident_type2    </text>
<text text-anchor="start" x="1052.5708" y="-1223.9" font-family="Arial" font-size="14.00" fill="#666666">[integer]</text>
<polygon fill="none" stroke="#000000" points="939,-1182.5 939,-1212.5 1259,-1212.5 1259,-1182.5 939,-1182.5"/>
<text text-anchor="start" x="946" y="-1193.9" font-family="Arial" font-size="14.00" fill="#000000">ident_value2    </text>
<text text-anchor="start" x="1059.5694" y="-1193.9" font-family="Arial" font-size="14.00" fill="#666666">[text]</text>
<polygon fill="none" stroke="#000000" points="939,-1152.5 939,-1182.5 1259,-1182.5 1259,-1152.5 939,-1152.5"/>
<text text-anchor="start" x="946" y="-1163.9" font-family="Arial" font-size="14.00" fill="#000000">net_access_level    </text>
<text text-anchor="start" x="1087.5694" y="-1163.9" font-family="Arial" font-size="14.00" fill="#666666">[integer]</text>
<polygon fill="none" stroke="#000000" points="939,-1122.5 939,-1152.5 1259,-1152.5 1259,-1122.5 939,-1122.5"/>
<text text-anchor="start" x="946" y="-1133.9" font-family="Arial" font-size="14.00" fill="#000000">photo_url    </text>
<text text-anchor="start" x="1038.5582" y="-1133.9" font-family="Arial" font-size="14.00" fill="#666666">[text]</text>
<polygon fill="none" stroke="#000000" points="939,-1092.5 939,-1122.5 1259,-1122.5 1259,-1092.5 939,-1092.5"/>
<text text-anchor="start" x="946" y="-1103.9" font-family="Arial" font-size="14.00" fill="#000000">prefix    </text>
<text text-anchor="start" x="1014.4278" y="-1103.9" font-family="Arial" font-size="14.00" fill="#666666">[text]</text>
<polygon fill="none" stroke="#000000" points="939,-1062.5 939,-1092.5 1259,-1092.5 1259,-1062.5 939,-1062.5"/>
<text text-anchor="start" x="946" y="-1073.9" font-family="Arial" font-size="14.00" fill="#000000">first_given_name    </text>
<text text-anchor="start" x="1086.7812" y="-1073.9" font-family="Arial" font-size="14.00" fill="#666666">[text]</text>
<polygon fill="none" stroke="#000000" points="939,-1032.5 939,-1062.5 1259,-1062.5 1259,-1032.5 939,-1032.5"/>
<text text-anchor="start" x="946" y="-1043.9" font-family="Arial" font-size="14.00" fill="#000000">second_given_name    </text>
<text text-anchor="start" x="1109.3632" y="-1043.9" font-family="Arial" font-size="14.00" fill="#666666">[text]</text>
<polygon fill="none" stroke="#000000" points="939,-1002.5 939,-1032.5 1259,-1032.5 1259,-1002.5 939,-1002.5"/>
<text text-anchor="start" x="946" y="-1013.9" font-family="Arial" font-size="14.00" fill="#000000">family_name    </text>
<text text-anchor="start" x="1059.5428" y="-1013.9" font-family="Arial" font-size="14.00" fill="#666666">[text]</text>
<polygon fill="none" stroke="#000000" points="939,-972.5 939,-1002.5 1259,-1002.5 1259,-972.5 939,-972.5"/>
<text text-anchor="start" x="946" y="-983.9" font-family="Arial" font-size="14.00" fill="#000000">suffix    </text>
<text text-anchor="start" x="1012.8752" y="-983.9" font-family="Arial" font-size="14.00" fill="#666666">[text]</text>
<polygon fill="none" stroke="#000000" points="939,-942.5 939,-972.5 1259,-972.5 1259,-942.5 939,-942.5"/>
<text text-anchor="start" x="946" y="-953.9" font-family="Arial" font-size="14.00" fill="#000000">alias    </text>
<text text-anchor="start" x="1008.9832" y="-953.9" font-family="Arial" font-size="14.00" fill="#666666">[text]</text>
<polygon fill="none" stroke="#000000" points="939,-912.5 939,-942.5 1259,-942.5 1259,-912.5 939,-912.5"/>
<text text-anchor="start" x="946" y="-923.9" font-family="Arial" font-size="14.00" fill="#000000">day_phone    </text>
<text text-anchor="start" x="1049.4656" y="-923.9" font-family="Arial" font-size="14.00" fill="#666666">[text]</text>
<polygon fill="none" stroke="#000000" points="939,-882.5 939,-912.5 1259,-912.5 1259,-882.5 939,-882.5"/>
<text text-anchor="start" x="946" y="-893.9" font-family="Arial" font-size="14.00" fill="#000000">evening_phone    </text>
<text text-anchor="start" x="1075.92" y="-893.9" font-family="Arial" font-size="14.00" fill="#666666">[text]</text>
<polygon fill="none" stroke="#000000" points="939,-852.5 939,-882.5 1259,-882.5 1259,-852.5 939,-852.5"/>
<text text-anchor="start" x="946" y="-863.9" font-family="Arial" font-size="14.00" fill="#000000">other_phone    </text>
<text text-anchor="start" x="1058.7994" y="-863.9" font-family="Arial" font-size="14.00" fill="#666666">[text]</text>
<polygon fill="none" stroke="#000000" points="939,-822.5 939,-852.5 1259,-852.5 1259,-822.5 939,-822.5"/>
<text text-anchor="start" x="946" y="-833.9" font-family="Arial" font-size="14.00" fill="#000000">mailing_address    </text>
<text text-anchor="start" x="1082.1066" y="-833.9" font-family="Arial" font-size="14.00" fill="#666666">[integer]</text>
<polygon fill="none" stroke="#000000" points="939,-792.5 939,-822.5 1259,-822.5 1259,-792.5 939,-792.5"/>
<text text-anchor="start" x="946" y="-803.9" font-family="Arial" font-size="14.00" fill="#000000">billing_address    </text>
<text text-anchor="start" x="1073.5526" y="-803.9" font-family="Arial" font-size="14.00" fill="#666666">[integer]</text>
<polygon fill="none" stroke="#000000" points="939,-762.5 939,-792.5 1259,-792.5 1259,-762.5 939,-762.5"/>
<text text-anchor="start" x="946" y="-773.9" font-family="Arial" font-size="14.00" fill="#000000">home_ou    </text>
<text text-anchor="start" x="1038.561" y="-773.9" font-family="Arial" font-size="14.00" fill="#666666">[integer]</text>
<polygon fill="none" stroke="#000000" points="939,-732.5 939,-762.5 1259,-762.5 1259,-732.5 939,-732.5"/>
<text text-anchor="start" x="946" y="-743.9" font-family="Arial" font-size="14.00" fill="#000000">dob    </text>
<text text-anchor="start" x="1003.5526" y="-743.9" font-family="Arial" font-size="14.00" fill="#666666">[date]</text>
<polygon fill="none" stroke="#000000" points="939,-702.5 939,-732.5 1259,-732.5 1259,-702.5 939,-702.5"/>
<text text-anchor="start" x="946" y="-713.9" font-family="Arial" font-size="14.00" fill="#000000">active    </text>
<text text-anchor="start" x="1016.7672" y="-713.9" font-family="Arial" font-size="14.00" fill="#666666">[boolean]</text>
<polygon fill="none" stroke="#000000" points="939,-672.5 939,-702.5 1259,-702.5 1259,-672.5 939,-672.5"/>
<text text-anchor="start" x="946" y="-683.9" font-family="Arial" font-size="14.00" fill="#000000">master_account    </text>
<text text-anchor="start" x="1079.7854" y="-683.9" font-family="Arial" font-size="14.00" fill="#666666">[boolean]</text>
<polygon fill="none" stroke="#000000" points="939,-642.5 939,-672.5 1259,-672.5 1259,-642.5 939,-642.5"/>
<text text-anchor="start" x="946" y="-653.9" font-family="Arial" font-size="14.00" fill="#000000">super_user    </text>
<text text-anchor="start" x="1050.2216" y="-653.9" font-family="Arial" font-size="14.00" fill="#666666">[boolean]</text>
<polygon fill="none" stroke="#000000" points="939,-612.5 939,-642.5 1259,-642.5 1259,-612.5 939,-612.5"/>
<text text-anchor="start" x="946" y="-623.9" font-family="Arial" font-size="14.00" fill="#000000">barred    </text>
<text text-anchor="start" x="1020.6564" y="-623.9" font-family="Arial" font-size="14.00" fill="#666666">[boolean]</text>
<polygon fill="none" stroke="#000000" points="939,-582.5 939,-612.5 1259,-612.5 1259,-582.5 939,-582.5"/>
<text text-anchor="start" x="946" y="-593.9" font-family="Arial" font-size="14.00" fill="#000000">deleted    </text>
<text text-anchor="start" x="1026.115" y="-593.9" font-family="Arial" font-size="14.00" fill="#666666">[boolean]</text>
<polygon fill="none" stroke="#000000" points="939,-552.5 939,-582.5 1259,-582.5 1259,-552.5 939,-552.5"/>
<text text-anchor="start" x="946" y="-563.9" font-family="Arial" font-size="14.00" fill="#000000">juvenile    </text>
<text text-anchor="start" x="1027.655" y="-563.9" font-family="Arial" font-size="14.00" fill="#666666">[boolean]</text>
<polygon fill="none" stroke="#000000" points="939,-522.5 939,-552.5 1259,-552.5 1259,-522.5 939,-522.5"/>
<text text-anchor="start" x="946" y="-533.9" font-family="Arial" font-size="14.00" fill="#000000">usrgroup    </text>
<text text-anchor="start" x="1035.439" y="-533.9" font-family="Arial" font-size="14.00" fill="#666666">[integer]</text>
<polygon fill="none" stroke="#000000" points="939,-492.5 939,-522.5 1259,-522.5 1259,-492.5 939,-492.5"/>
<text text-anchor="start" x="946" y="-503.9" font-family="Arial" font-size="14.00" fill="#000000">claims_returned_count    </text>
<text text-anchor="start" x="1121.7896" y="-503.9" font-family="Arial" font-size="14.00" fill="#666666">[integer]</text>
<polygon fill="none" stroke="#000000" points="939,-462.5 939,-492.5 1259,-492.5 1259,-462.5 939,-462.5"/>
<text text-anchor="start" x="946" y="-473.9" font-family="Arial" font-size="14.00" fill="#000000">credit_forward_balance    </text>
<text text-anchor="start" x="1125.6788" y="-473.9" font-family="Arial" font-size="14.00" fill="#666666">[numeric(6,2)]</text>
<polygon fill="none" stroke="#000000" points="939,-432.5 939,-462.5 1259,-462.5 1259,-432.5 939,-432.5"/>
<text text-anchor="start" x="946" y="-443.9" font-family="Arial" font-size="14.00" fill="#000000">last_xact_id    </text>
<text text-anchor="start" x="1054.1122" y="-443.9" font-family="Arial" font-size="14.00" fill="#666666">[text]</text>
<polygon fill="none" stroke="#000000" points="939,-402.5 939,-432.5 1259,-432.5 1259,-402.5 939,-402.5"/>
<text text-anchor="start" x="946" y="-413.9" font-family="Arial" font-size="14.00" fill="#000000">alert_message    </text>
<text text-anchor="start" x="1072.0014" y="-413.9" font-family="Arial" font-size="14.00" fill="#666666">[text]</text>
<polygon fill="none" stroke="#000000" points="939,-372.5 939,-402.5 1259,-402.5 1259,-372.5 939,-372.5"/>
<text text-anchor="start" x="946" y="-383.9" font-family="Arial" font-size="14.00" fill="#000000">create_date    </text>
<text text-anchor="start" x="1054.1248" y="-383.9" font-family="Arial" font-size="14.00" fill="#666666">[timestamp with time zone]</text>
<polygon fill="none" stroke="#000000" points="939,-342.5 939,-372.5 1259,-372.5 1259,-342.5 939,-342.5"/>
<text text-anchor="start" x="946" y="-353.9" font-family="Arial" font-size="14.00" fill="#000000">expire_date    </text>
<text text-anchor="start" x="1053.3408" y="-353.9" font-family="Arial" font-size="14.00" fill="#666666">[timestamp with time zone]</text>
<polygon fill="none" stroke="#000000" points="939,-312.5 939,-342.5 1259,-342.5 1259,-312.5 939,-312.5"/>
<text text-anchor="start" x="946" y="-323.9" font-family="Arial" font-size="14.00" fill="#000000">claims_never_checked_out_count    </text>
<text text-anchor="start" x="1191.8246" y="-323.9" font-family="Arial" font-size="14.00" fill="#666666">[integer]</text>
<polygon fill="none" stroke="#000000" points="939,-282.5 939,-312.5 1259,-312.5 1259,-282.5 939,-282.5"/>
<text text-anchor="start" x="945.7609" y="-293.9" font-family="Arial" font-size="14.00" fill="#000000">last_update_time    </text>
<text text-anchor="start" x="1086.5547" y="-293.9" font-family="Arial" font-size="14.00" fill="#666666">[timestamp with time zone]</text>
<polygon fill="none" stroke="#000000" points="939,-252.5 939,-282.5 1259,-282.5 1259,-252.5 939,-252.5"/>
<text text-anchor="start" x="946" y="-263.9" font-family="Arial" font-size="14.00" fill="#000000">pref_prefix    </text>
<text text-anchor="start" x="1046.3268" y="-263.9" font-family="Arial" font-size="14.00" fill="#666666">[text]</text>
<polygon fill="none" stroke="#000000" points="939,-222.5 939,-252.5 1259,-252.5 1259,-222.5 939,-222.5"/>
<text text-anchor="start" x="946" y="-233.9" font-family="Arial" font-size="14.00" fill="#000000">pref_first_given_name    </text>
<text text-anchor="start" x="1118.6802" y="-233.9" font-family="Arial" font-size="14.00" fill="#666666">[text]</text>
<polygon fill="none" stroke="#000000" points="939,-192.5 939,-222.5 1259,-222.5 1259,-192.5 939,-192.5"/>
<text text-anchor="start" x="946" y="-203.9" font-family="Arial" font-size="14.00" fill="#000000">pref_second_given_name    </text>
<text text-anchor="start" x="1141.2622" y="-203.9" font-family="Arial" font-size="14.00" fill="#666666">[text]</text>
<polygon fill="none" stroke="#000000" points="939,-162.5 939,-192.5 1259,-192.5 1259,-162.5 939,-162.5"/>
<text text-anchor="start" x="946" y="-173.9" font-family="Arial" font-size="14.00" fill="#000000">pref_family_name    </text>
<text text-anchor="start" x="1091.4418" y="-173.9" font-family="Arial" font-size="14.00" fill="#666666">[text]</text>
<polygon fill="none" stroke="#000000" points="939,-132.5 939,-162.5 1259,-162.5 1259,-132.5 939,-132.5"/>
<text text-anchor="start" x="946" y="-143.9" font-family="Arial" font-size="14.00" fill="#000000">pref_suffix    </text>
<text text-anchor="start" x="1044.7742" y="-143.9" font-family="Arial" font-size="14.00" fill="#666666">[text]</text>
<polygon fill="none" stroke="#000000" points="939,-102.5 939,-132.5 1259,-132.5 1259,-102.5 939,-102.5"/>
<text text-anchor="start" x="946" y="-113.9" font-family="Arial" font-size="14.00" fill="#000000">name_keywords    </text>
<text text-anchor="start" x="1082.1108" y="-113.9" font-family="Arial" font-size="14.00" fill="#666666">[text]</text>
<polygon fill="none" stroke="#000000" points="939,-72.5 939,-102.5 1259,-102.5 1259,-72.5 939,-72.5"/>
<text text-anchor="start" x="946" y="-83.9" font-family="Arial" font-size="14.00" fill="#000000">name_kw_tsvector    </text>
<text text-anchor="start" x="1096.892" y="-83.9" font-family="Arial" font-size="14.00" fill="#666666">[tsvector]</text>
<polygon fill="none" stroke="#000000" points="939,-42.5 939,-72.5 1259,-72.5 1259,-42.5 939,-42.5"/>
<text text-anchor="start" x="946" y="-53.9" font-family="Arial" font-size="14.00" fill="#000000">guardian    </text>
<text text-anchor="start" x="1034.6676" y="-53.9" font-family="Arial" font-size="14.00" fill="#666666">[text]</text>
</g>
<!-- container.user_bucket_item&#45;&gt;actor.usr -->
<g id="edge3" class="edge">
<title>container.user_bucket_item:target_user&#45;&gt;actor.usr:id</title>
<path fill="none" stroke="#000000" d="M1077.9557,-1746.4448C1118.6084,-1737.0218 1098.1687,-1666.7406 1068,-1627 1032.0088,-1579.5896 974.9912,-1638.4104 939,-1591 913.8735,-1557.9013 897.4444,-1497.5 939,-1497.5"/>
<polygon fill="#000000" stroke="#000000" points="1077.9443,-1746.4459 1067.5257,-1743.0251 1072.9722,-1746.973 1068,-1747.5 1068,-1747.5 1068,-1747.5 1072.9722,-1746.973 1068.4743,-1751.9749 1077.9443,-1746.4459 1077.9443,-1746.4459"/>
<text text-anchor="start" x="1074.7665" y="-1757.5" font-family="Arial" font-size="10.00" fill="#000000">FOREIGN KEY (target_user) REFERENCES actor.usr(id) ON UPDATE CASCADE ON DELETE CASCADE DEFERRABLE INITIALLY DEFERRED</text>
</g>
<!-- container.user_bucket_item_note -->
<g id="node2" class="node">
<title>container.user_bucket_item_note</title>
<polygon fill="#efefef" stroke="transparent" points="683,-2072.5 683,-2107.5 1090,-2107.5 1090,-2072.5 683,-2072.5"/>
<polygon fill="none" stroke="#000000" points="683,-2072.5 683,-2107.5 1090,-2107.5 1090,-2072.5 683,-2072.5"/>
<text text-anchor="start" x="689.6753" y="-2085.3" font-family="Arial Bold" font-size="18.00" fill="#000000">container.user_bucket_item_note</text>
<text text-anchor="start" x="955.7567" y="-2085.3" font-family="Arial" font-size="14.00" fill="#000000">    </text>
<text text-anchor="start" x="989.9615" y="-2085.3" font-family="Arial" font-size="14.00" fill="#666666">[BASE TABLE]</text>
<polygon fill="none" stroke="#000000" points="683,-2042.5 683,-2072.5 1090,-2072.5 1090,-2042.5 683,-2042.5"/>
<text text-anchor="start" x="690" y="-2053.9" font-family="Arial" font-size="14.00" fill="#000000">id    </text>
<text text-anchor="start" x="735.094" y="-2053.9" font-family="Arial" font-size="14.00" fill="#666666">[integer]</text>
<polygon fill="none" stroke="#000000" points="683,-2012.5 683,-2042.5 1090,-2042.5 1090,-2012.5 683,-2012.5"/>
<text text-anchor="start" x="690" y="-2023.9" font-family="Arial" font-size="14.00" fill="#000000">item    </text>
<text text-anchor="start" x="750.6452" y="-2023.9" font-family="Arial" font-size="14.00" fill="#666666">[integer]</text>
<polygon fill="none" stroke="#000000" points="683,-1982.5 683,-2012.5 1090,-2012.5 1090,-1982.5 683,-1982.5"/>
<text text-anchor="start" x="690" y="-1993.9" font-family="Arial" font-size="14.00" fill="#000000">note    </text>
<text text-anchor="start" x="751.4432" y="-1993.9" font-family="Arial" font-size="14.00" fill="#666666">[text]</text>
</g>
<!-- container.user_bucket_item_note&#45;&gt;container.user_bucket_item -->
<g id="edge1" class="edge">
<title>container.user_bucket_item_note:item&#45;&gt;container.user_bucket_item:id</title>
<path fill="none" stroke="#000000" d="M1099.9526,-2025.9019C1126.2789,-2016.3121 1113.6268,-1965.9454 1090,-1940 1032.2933,-1876.6303 763.7067,-1967.3697 706,-1904 677.123,-1872.2892 663.1111,-1807.5 706,-1807.5"/>
<polygon fill="#000000" stroke="#000000" points="1099.8735,-2025.9145 1089.2865,-2023.0569 1094.9368,-2026.7073 1090,-2027.5 1090,-2027.5 1090,-2027.5 1094.9368,-2026.7073 1090.7135,-2031.9431 1099.8735,-2025.9145 1099.8735,-2025.9145"/>
<text text-anchor="start" x="1096.651" y="-2037.5" font-family="Arial" font-size="10.00" fill="#000000">FOREIGN KEY (item) REFERENCES container.user_bucket_item(id) ON UPDATE CASCADE ON DELETE CASCADE DEFERRABLE INITIALLY DEFERRED</text>
</g>
</g>
</svg>
