<?xml version="1.0" encoding="UTF-8" standalone="no"?>
<!DOCTYPE svg PUBLIC "-//W3C//DTD SVG 1.1//EN"
 "http://www.w3.org/Graphics/SVG/1.1/DTD/svg11.dtd">
<!-- Generated by graphviz version 2.40.1 (20161225.0304)
 -->
<!-- Title: container.user_bucket_item_note Pages: 1 -->
<svg width="1182pt" height="532pt"
 viewBox="0.00 0.00 1181.50 532.00" xmlns="http://www.w3.org/2000/svg" xmlns:xlink="http://www.w3.org/1999/xlink">
<g id="graph0" class="graph" transform="scale(1 1) rotate(0) translate(4 528)">
<title>container.user_bucket_item_note</title>
<polygon fill="#ffffff" stroke="transparent" points="-4,4 -4,-528 1177.5,-528 1177.5,4 -4,4"/>
<!-- container.user_bucket_item_note -->
<g id="node1" class="node">
<title>container.user_bucket_item_note</title>
<polygon fill="#efefef" stroke="transparent" points="46.5,-442.5 46.5,-477.5 453.5,-477.5 453.5,-442.5 46.5,-442.5"/>
<polygon fill="none" stroke="#000000" points="46.5,-442.5 46.5,-477.5 453.5,-477.5 453.5,-442.5 46.5,-442.5"/>
<text text-anchor="start" x="53.1753" y="-455.3" font-family="Arial Bold" font-size="18.00" fill="#000000">container.user_bucket_item_note</text>
<text text-anchor="start" x="319.2567" y="-455.3" font-family="Arial" font-size="14.00" fill="#000000">    </text>
<text text-anchor="start" x="353.4615" y="-455.3" font-family="Arial" font-size="14.00" fill="#666666">[BASE TABLE]</text>
<polygon fill="none" stroke="#000000" points="46.5,-412.5 46.5,-442.5 453.5,-442.5 453.5,-412.5 46.5,-412.5"/>
<text text-anchor="start" x="53.5" y="-423.9" font-family="Arial" font-size="14.00" fill="#000000">id </text>
<text text-anchor="start" x="68.2798" y="-423.9" font-family="Arial" font-size="14.00" fill="#666666">[integer]</text>
<polygon fill="none" stroke="#000000" points="46.5,-382.5 46.5,-412.5 453.5,-412.5 453.5,-382.5 46.5,-382.5"/>
<text text-anchor="start" x="53.5" y="-393.9" font-family="Arial" font-size="14.00" fill="#000000">item </text>
<text text-anchor="start" x="83.831" y="-393.9" font-family="Arial" font-size="14.00" fill="#666666">[integer]</text>
<polygon fill="none" stroke="#000000" points="46.5,-352.5 46.5,-382.5 453.5,-382.5 453.5,-352.5 46.5,-352.5"/>
<text text-anchor="start" x="53.5" y="-363.9" font-family="Arial" font-size="14.00" fill="#000000">note </text>
<text text-anchor="start" x="84.629" y="-363.9" font-family="Arial" font-size="14.00" fill="#666666">[text]</text>
<polygon fill="none" stroke="#000000" stroke-width="3" points="44.5,-351.5 44.5,-479.5 454.5,-479.5 454.5,-351.5 44.5,-351.5"/>
</g>
<!-- container.user_bucket_item -->
<g id="node2" class="node">
<title>container.user_bucket_item</title>
<polygon fill="#efefef" stroke="transparent" points="69.5,-192.5 69.5,-227.5 431.5,-227.5 431.5,-192.5 69.5,-192.5"/>
<polygon fill="none" stroke="#000000" points="69.5,-192.5 69.5,-227.5 431.5,-227.5 431.5,-192.5 69.5,-192.5"/>
<text text-anchor="start" x="76.1888" y="-205.3" font-family="Arial Bold" font-size="18.00" fill="#000000">container.user_bucket_item</text>
<text text-anchor="start" x="297.2432" y="-205.3" font-family="Arial" font-size="14.00" fill="#000000">    </text>
<text text-anchor="start" x="331.448" y="-205.3" font-family="Arial" font-size="14.00" fill="#666666">[BASE TABLE]</text>
<polygon fill="none" stroke="#000000" points="69.5,-162.5 69.5,-192.5 431.5,-192.5 431.5,-162.5 69.5,-162.5"/>
<text text-anchor="start" x="76.5" y="-173.9" font-family="Arial" font-size="14.00" fill="#000000">id    </text>
<text text-anchor="start" x="121.594" y="-173.9" font-family="Arial" font-size="14.00" fill="#666666">[integer]</text>
<polygon fill="none" stroke="#000000" points="69.5,-132.5 69.5,-162.5 431.5,-162.5 431.5,-132.5 69.5,-132.5"/>
<text text-anchor="start" x="76.5" y="-143.9" font-family="Arial" font-size="14.00" fill="#000000">bucket    </text>
<text text-anchor="start" x="151.9432" y="-143.9" font-family="Arial" font-size="14.00" fill="#666666">[integer]</text>
<polygon fill="none" stroke="#000000" points="69.5,-102.5 69.5,-132.5 431.5,-132.5 431.5,-102.5 69.5,-102.5"/>
<text text-anchor="start" x="76.5" y="-113.9" font-family="Arial" font-size="14.00" fill="#000000">target_user    </text>
<text text-anchor="start" x="181.5028" y="-113.9" font-family="Arial" font-size="14.00" fill="#666666">[integer]</text>
<polygon fill="none" stroke="#000000" points="69.5,-72.5 69.5,-102.5 431.5,-102.5 431.5,-72.5 69.5,-72.5"/>
<text text-anchor="start" x="76.5" y="-83.9" font-family="Arial" font-size="14.00" fill="#000000">pos    </text>
<text text-anchor="start" x="133.27" y="-83.9" font-family="Arial" font-size="14.00" fill="#666666">[integer]</text>
<polygon fill="none" stroke="#000000" points="69.5,-42.5 69.5,-72.5 431.5,-72.5 431.5,-42.5 69.5,-42.5"/>
<text text-anchor="start" x="76.5" y="-53.9" font-family="Arial" font-size="14.00" fill="#000000">create_time    </text>
<text text-anchor="start" x="183.8268" y="-53.9" font-family="Arial" font-size="14.00" fill="#666666">[timestamp with time zone]</text>
</g>
<!-- container.user_bucket_item_note&#45;&gt;container.user_bucket_item -->
<g id="edge1" class="edge">
<title>container.user_bucket_item_note:item&#45;&gt;container.user_bucket_item:id</title>
<path fill="none" stroke="#000000" d="M463.438,-395.9735C491.1358,-386.38 478.0426,-333.9511 453.5,-307 395.7933,-243.6303 127.2067,-334.3697 69.5,-271 41.5207,-240.275 27.9444,-177.5 69.5,-177.5"/>
<polygon fill="#000000" stroke="#000000" points="463.3841,-395.9817 452.8168,-393.0522 458.442,-396.7409 453.5,-397.5 453.5,-397.5 453.5,-397.5 458.442,-396.7409 454.1832,-401.9478 463.3841,-395.9817 463.3841,-395.9817"/>
<text text-anchor="start" x="460.151" y="-407.5" font-family="Arial" font-size="10.00" fill="#000000">FOREIGN KEY (item) REFERENCES container.user_bucket_item(id) ON UPDATE CASCADE ON DELETE CASCADE DEFERRABLE INITIALLY DEFERRED</text>
</g>
</g>
</svg>
