<?xml version="1.0" encoding="UTF-8" standalone="no"?>
<!DOCTYPE svg PUBLIC "-//W3C//DTD SVG 1.1//EN"
 "http://www.w3.org/Graphics/SVG/1.1/DTD/svg11.dtd">
<!-- Generated by graphviz version 2.40.1 (20161225.0304)
 -->
<!-- Title: container.user_bucket Pages: 1 -->
<svg width="1570pt" height="2309pt"
 viewBox="0.00 0.00 1570.00 2309.00" xmlns="http://www.w3.org/2000/svg" xmlns:xlink="http://www.w3.org/1999/xlink">
<g id="graph0" class="graph" transform="scale(1 1) rotate(0) translate(4 2305)">
<title>container.user_bucket</title>
<polygon fill="#ffffff" stroke="transparent" points="-4,4 -4,-2305 1566,-2305 1566,4 -4,4"/>
<!-- container.user_bucket -->
<g id="node1" class="node">
<title>container.user_bucket</title>
<polygon fill="#efefef" stroke="transparent" points="645,-1912.5 645,-1947.5 963,-1947.5 963,-1912.5 645,-1912.5"/>
<polygon fill="none" stroke="#000000" points="645,-1912.5 645,-1947.5 963,-1947.5 963,-1912.5 645,-1912.5"/>
<text text-anchor="start" x="651.6893" y="-1925.3" font-family="Arial Bold" font-size="18.00" fill="#000000">container.user_bucket</text>
<text text-anchor="start" x="828.7427" y="-1925.3" font-family="Arial" font-size="14.00" fill="#000000">    </text>
<text text-anchor="start" x="862.9475" y="-1925.3" font-family="Arial" font-size="14.00" fill="#666666">[BASE TABLE]</text>
<polygon fill="none" stroke="#000000" points="645,-1882.5 645,-1912.5 963,-1912.5 963,-1882.5 645,-1882.5"/>
<text text-anchor="start" x="652" y="-1893.9" font-family="Arial" font-size="14.00" fill="#000000">id </text>
<text text-anchor="start" x="666.7798" y="-1893.9" font-family="Arial" font-size="14.00" fill="#666666">[integer]</text>
<polygon fill="none" stroke="#000000" points="645,-1852.5 645,-1882.5 963,-1882.5 963,-1852.5 645,-1852.5"/>
<text text-anchor="start" x="652" y="-1863.9" font-family="Arial" font-size="14.00" fill="#000000">owner </text>
<text text-anchor="start" x="694.0056" y="-1863.9" font-family="Arial" font-size="14.00" fill="#666666">[integer]</text>
<polygon fill="none" stroke="#000000" points="645,-1822.5 645,-1852.5 963,-1852.5 963,-1822.5 645,-1822.5"/>
<text text-anchor="start" x="652" y="-1833.9" font-family="Arial" font-size="14.00" fill="#000000">name </text>
<text text-anchor="start" x="690.899" y="-1833.9" font-family="Arial" font-size="14.00" fill="#666666">[text]</text>
<polygon fill="none" stroke="#000000" points="645,-1792.5 645,-1822.5 963,-1822.5 963,-1792.5 645,-1792.5"/>
<text text-anchor="start" x="652" y="-1803.9" font-family="Arial" font-size="14.00" fill="#000000">btype </text>
<text text-anchor="start" x="690.129" y="-1803.9" font-family="Arial" font-size="14.00" fill="#666666">[text]</text>
<polygon fill="none" stroke="#000000" points="645,-1762.5 645,-1792.5 963,-1792.5 963,-1762.5 645,-1762.5"/>
<text text-anchor="start" x="652" y="-1773.9" font-family="Arial" font-size="14.00" fill="#000000">description </text>
<text text-anchor="start" x="723.568" y="-1773.9" font-family="Arial" font-size="14.00" fill="#666666">[text]</text>
<polygon fill="none" stroke="#000000" points="645,-1732.5 645,-1762.5 963,-1762.5 963,-1732.5 645,-1732.5"/>
<text text-anchor="start" x="652" y="-1743.9" font-family="Arial" font-size="14.00" fill="#000000">pub </text>
<text text-anchor="start" x="679.2384" y="-1743.9" font-family="Arial" font-size="14.00" fill="#666666">[boolean]</text>
<polygon fill="none" stroke="#000000" points="645,-1702.5 645,-1732.5 963,-1732.5 963,-1702.5 645,-1702.5"/>
<text text-anchor="start" x="652" y="-1713.9" font-family="Arial" font-size="14.00" fill="#000000">owning_lib </text>
<text text-anchor="start" x="722.0126" y="-1713.9" font-family="Arial" font-size="14.00" fill="#666666">[integer]</text>
<polygon fill="none" stroke="#000000" points="645,-1672.5 645,-1702.5 963,-1702.5 963,-1672.5 645,-1672.5"/>
<text text-anchor="start" x="652" y="-1683.9" font-family="Arial" font-size="14.00" fill="#000000">create_time </text>
<text text-anchor="start" x="729.0126" y="-1683.9" font-family="Arial" font-size="14.00" fill="#666666">[timestamp with time zone]</text>
<polygon fill="none" stroke="#000000" stroke-width="3" points="643.5,-1671.5 643.5,-1949.5 964.5,-1949.5 964.5,-1671.5 643.5,-1671.5"/>
</g>
<!-- actor.usr -->
<g id="node4" class="node">
<title>actor.usr</title>
<polygon fill="#efefef" stroke="transparent" points="199,-1512.5 199,-1547.5 519,-1547.5 519,-1512.5 199,-1512.5"/>
<polygon fill="none" stroke="#000000" points="199,-1512.5 199,-1547.5 519,-1547.5 519,-1512.5 199,-1512.5"/>
<text text-anchor="start" x="260.2123" y="-1525.3" font-family="Arial Bold" font-size="18.00" fill="#000000">actor.usr</text>
<text text-anchor="start" x="330.2197" y="-1525.3" font-family="Arial" font-size="14.00" fill="#000000">    </text>
<text text-anchor="start" x="364.4245" y="-1525.3" font-family="Arial" font-size="14.00" fill="#666666">[BASE TABLE]</text>
<polygon fill="none" stroke="#000000" points="199,-1482.5 199,-1512.5 519,-1512.5 519,-1482.5 199,-1482.5"/>
<text text-anchor="start" x="206" y="-1493.9" font-family="Arial" font-size="14.00" fill="#000000">id    </text>
<text text-anchor="start" x="251.094" y="-1493.9" font-family="Arial" font-size="14.00" fill="#666666">[integer]</text>
<polygon fill="none" stroke="#000000" points="199,-1452.5 199,-1482.5 519,-1482.5 519,-1452.5 199,-1452.5"/>
<text text-anchor="start" x="206" y="-1463.9" font-family="Arial" font-size="14.00" fill="#000000">card    </text>
<text text-anchor="start" x="267.4306" y="-1463.9" font-family="Arial" font-size="14.00" fill="#666666">[integer]</text>
<polygon fill="none" stroke="#000000" points="199,-1422.5 199,-1452.5 519,-1452.5 519,-1422.5 199,-1422.5"/>
<text text-anchor="start" x="206" y="-1433.9" font-family="Arial" font-size="14.00" fill="#000000">profile    </text>
<text text-anchor="start" x="278.317" y="-1433.9" font-family="Arial" font-size="14.00" fill="#666666">[integer]</text>
<polygon fill="none" stroke="#000000" points="199,-1392.5 199,-1422.5 519,-1422.5 519,-1392.5 199,-1392.5"/>
<text text-anchor="start" x="206" y="-1403.9" font-family="Arial" font-size="14.00" fill="#000000">usrname    </text>
<text text-anchor="start" x="294.6564" y="-1403.9" font-family="Arial" font-size="14.00" fill="#666666">[text]</text>
<polygon fill="none" stroke="#000000" points="199,-1362.5 199,-1392.5 519,-1392.5 519,-1362.5 199,-1362.5"/>
<text text-anchor="start" x="206" y="-1373.9" font-family="Arial" font-size="14.00" fill="#000000">email    </text>
<text text-anchor="start" x="273.6438" y="-1373.9" font-family="Arial" font-size="14.00" fill="#666666">[text]</text>
<polygon fill="none" stroke="#000000" points="199,-1332.5 199,-1362.5 519,-1362.5 519,-1332.5 199,-1332.5"/>
<text text-anchor="start" x="206" y="-1343.9" font-family="Arial" font-size="14.00" fill="#000000">passwd    </text>
<text text-anchor="start" x="287.6592" y="-1343.9" font-family="Arial" font-size="14.00" fill="#666666">[text]</text>
<polygon fill="none" stroke="#000000" points="199,-1302.5 199,-1332.5 519,-1332.5 519,-1302.5 199,-1302.5"/>
<text text-anchor="start" x="206" y="-1313.9" font-family="Arial" font-size="14.00" fill="#000000">standing    </text>
<text text-anchor="start" x="293.115" y="-1313.9" font-family="Arial" font-size="14.00" fill="#666666">[integer]</text>
<polygon fill="none" stroke="#000000" points="199,-1272.5 199,-1302.5 519,-1302.5 519,-1272.5 199,-1272.5"/>
<text text-anchor="start" x="206" y="-1283.9" font-family="Arial" font-size="14.00" fill="#000000">ident_type    </text>
<text text-anchor="start" x="304.7882" y="-1283.9" font-family="Arial" font-size="14.00" fill="#666666">[integer]</text>
<polygon fill="none" stroke="#000000" points="199,-1242.5 199,-1272.5 519,-1272.5 519,-1242.5 199,-1242.5"/>
<text text-anchor="start" x="206" y="-1253.9" font-family="Arial" font-size="14.00" fill="#000000">ident_value    </text>
<text text-anchor="start" x="311.7868" y="-1253.9" font-family="Arial" font-size="14.00" fill="#666666">[text]</text>
<polygon fill="none" stroke="#000000" points="199,-1212.5 199,-1242.5 519,-1242.5 519,-1212.5 199,-1212.5"/>
<text text-anchor="start" x="206" y="-1223.9" font-family="Arial" font-size="14.00" fill="#000000">ident_type2    </text>
<text text-anchor="start" x="312.5708" y="-1223.9" font-family="Arial" font-size="14.00" fill="#666666">[integer]</text>
<polygon fill="none" stroke="#000000" points="199,-1182.5 199,-1212.5 519,-1212.5 519,-1182.5 199,-1182.5"/>
<text text-anchor="start" x="206" y="-1193.9" font-family="Arial" font-size="14.00" fill="#000000">ident_value2    </text>
<text text-anchor="start" x="319.5694" y="-1193.9" font-family="Arial" font-size="14.00" fill="#666666">[text]</text>
<polygon fill="none" stroke="#000000" points="199,-1152.5 199,-1182.5 519,-1182.5 519,-1152.5 199,-1152.5"/>
<text text-anchor="start" x="206" y="-1163.9" font-family="Arial" font-size="14.00" fill="#000000">net_access_level    </text>
<text text-anchor="start" x="347.5694" y="-1163.9" font-family="Arial" font-size="14.00" fill="#666666">[integer]</text>
<polygon fill="none" stroke="#000000" points="199,-1122.5 199,-1152.5 519,-1152.5 519,-1122.5 199,-1122.5"/>
<text text-anchor="start" x="206" y="-1133.9" font-family="Arial" font-size="14.00" fill="#000000">photo_url    </text>
<text text-anchor="start" x="298.5582" y="-1133.9" font-family="Arial" font-size="14.00" fill="#666666">[text]</text>
<polygon fill="none" stroke="#000000" points="199,-1092.5 199,-1122.5 519,-1122.5 519,-1092.5 199,-1092.5"/>
<text text-anchor="start" x="206" y="-1103.9" font-family="Arial" font-size="14.00" fill="#000000">prefix    </text>
<text text-anchor="start" x="274.4278" y="-1103.9" font-family="Arial" font-size="14.00" fill="#666666">[text]</text>
<polygon fill="none" stroke="#000000" points="199,-1062.5 199,-1092.5 519,-1092.5 519,-1062.5 199,-1062.5"/>
<text text-anchor="start" x="206" y="-1073.9" font-family="Arial" font-size="14.00" fill="#000000">first_given_name    </text>
<text text-anchor="start" x="346.7812" y="-1073.9" font-family="Arial" font-size="14.00" fill="#666666">[text]</text>
<polygon fill="none" stroke="#000000" points="199,-1032.5 199,-1062.5 519,-1062.5 519,-1032.5 199,-1032.5"/>
<text text-anchor="start" x="206" y="-1043.9" font-family="Arial" font-size="14.00" fill="#000000">second_given_name    </text>
<text text-anchor="start" x="369.3632" y="-1043.9" font-family="Arial" font-size="14.00" fill="#666666">[text]</text>
<polygon fill="none" stroke="#000000" points="199,-1002.5 199,-1032.5 519,-1032.5 519,-1002.5 199,-1002.5"/>
<text text-anchor="start" x="206" y="-1013.9" font-family="Arial" font-size="14.00" fill="#000000">family_name    </text>
<text text-anchor="start" x="319.5428" y="-1013.9" font-family="Arial" font-size="14.00" fill="#666666">[text]</text>
<polygon fill="none" stroke="#000000" points="199,-972.5 199,-1002.5 519,-1002.5 519,-972.5 199,-972.5"/>
<text text-anchor="start" x="206" y="-983.9" font-family="Arial" font-size="14.00" fill="#000000">suffix    </text>
<text text-anchor="start" x="272.8752" y="-983.9" font-family="Arial" font-size="14.00" fill="#666666">[text]</text>
<polygon fill="none" stroke="#000000" points="199,-942.5 199,-972.5 519,-972.5 519,-942.5 199,-942.5"/>
<text text-anchor="start" x="206" y="-953.9" font-family="Arial" font-size="14.00" fill="#000000">alias    </text>
<text text-anchor="start" x="268.9832" y="-953.9" font-family="Arial" font-size="14.00" fill="#666666">[text]</text>
<polygon fill="none" stroke="#000000" points="199,-912.5 199,-942.5 519,-942.5 519,-912.5 199,-912.5"/>
<text text-anchor="start" x="206" y="-923.9" font-family="Arial" font-size="14.00" fill="#000000">day_phone    </text>
<text text-anchor="start" x="309.4656" y="-923.9" font-family="Arial" font-size="14.00" fill="#666666">[text]</text>
<polygon fill="none" stroke="#000000" points="199,-882.5 199,-912.5 519,-912.5 519,-882.5 199,-882.5"/>
<text text-anchor="start" x="206" y="-893.9" font-family="Arial" font-size="14.00" fill="#000000">evening_phone    </text>
<text text-anchor="start" x="335.92" y="-893.9" font-family="Arial" font-size="14.00" fill="#666666">[text]</text>
<polygon fill="none" stroke="#000000" points="199,-852.5 199,-882.5 519,-882.5 519,-852.5 199,-852.5"/>
<text text-anchor="start" x="206" y="-863.9" font-family="Arial" font-size="14.00" fill="#000000">other_phone    </text>
<text text-anchor="start" x="318.7994" y="-863.9" font-family="Arial" font-size="14.00" fill="#666666">[text]</text>
<polygon fill="none" stroke="#000000" points="199,-822.5 199,-852.5 519,-852.5 519,-822.5 199,-822.5"/>
<text text-anchor="start" x="206" y="-833.9" font-family="Arial" font-size="14.00" fill="#000000">mailing_address    </text>
<text text-anchor="start" x="342.1066" y="-833.9" font-family="Arial" font-size="14.00" fill="#666666">[integer]</text>
<polygon fill="none" stroke="#000000" points="199,-792.5 199,-822.5 519,-822.5 519,-792.5 199,-792.5"/>
<text text-anchor="start" x="206" y="-803.9" font-family="Arial" font-size="14.00" fill="#000000">billing_address    </text>
<text text-anchor="start" x="333.5526" y="-803.9" font-family="Arial" font-size="14.00" fill="#666666">[integer]</text>
<polygon fill="none" stroke="#000000" points="199,-762.5 199,-792.5 519,-792.5 519,-762.5 199,-762.5"/>
<text text-anchor="start" x="206" y="-773.9" font-family="Arial" font-size="14.00" fill="#000000">home_ou    </text>
<text text-anchor="start" x="298.561" y="-773.9" font-family="Arial" font-size="14.00" fill="#666666">[integer]</text>
<polygon fill="none" stroke="#000000" points="199,-732.5 199,-762.5 519,-762.5 519,-732.5 199,-732.5"/>
<text text-anchor="start" x="206" y="-743.9" font-family="Arial" font-size="14.00" fill="#000000">dob    </text>
<text text-anchor="start" x="263.5526" y="-743.9" font-family="Arial" font-size="14.00" fill="#666666">[date]</text>
<polygon fill="none" stroke="#000000" points="199,-702.5 199,-732.5 519,-732.5 519,-702.5 199,-702.5"/>
<text text-anchor="start" x="206" y="-713.9" font-family="Arial" font-size="14.00" fill="#000000">active    </text>
<text text-anchor="start" x="276.7672" y="-713.9" font-family="Arial" font-size="14.00" fill="#666666">[boolean]</text>
<polygon fill="none" stroke="#000000" points="199,-672.5 199,-702.5 519,-702.5 519,-672.5 199,-672.5"/>
<text text-anchor="start" x="206" y="-683.9" font-family="Arial" font-size="14.00" fill="#000000">master_account    </text>
<text text-anchor="start" x="339.7854" y="-683.9" font-family="Arial" font-size="14.00" fill="#666666">[boolean]</text>
<polygon fill="none" stroke="#000000" points="199,-642.5 199,-672.5 519,-672.5 519,-642.5 199,-642.5"/>
<text text-anchor="start" x="206" y="-653.9" font-family="Arial" font-size="14.00" fill="#000000">super_user    </text>
<text text-anchor="start" x="310.2216" y="-653.9" font-family="Arial" font-size="14.00" fill="#666666">[boolean]</text>
<polygon fill="none" stroke="#000000" points="199,-612.5 199,-642.5 519,-642.5 519,-612.5 199,-612.5"/>
<text text-anchor="start" x="206" y="-623.9" font-family="Arial" font-size="14.00" fill="#000000">barred    </text>
<text text-anchor="start" x="280.6564" y="-623.9" font-family="Arial" font-size="14.00" fill="#666666">[boolean]</text>
<polygon fill="none" stroke="#000000" points="199,-582.5 199,-612.5 519,-612.5 519,-582.5 199,-582.5"/>
<text text-anchor="start" x="206" y="-593.9" font-family="Arial" font-size="14.00" fill="#000000">deleted    </text>
<text text-anchor="start" x="286.115" y="-593.9" font-family="Arial" font-size="14.00" fill="#666666">[boolean]</text>
<polygon fill="none" stroke="#000000" points="199,-552.5 199,-582.5 519,-582.5 519,-552.5 199,-552.5"/>
<text text-anchor="start" x="206" y="-563.9" font-family="Arial" font-size="14.00" fill="#000000">juvenile    </text>
<text text-anchor="start" x="287.655" y="-563.9" font-family="Arial" font-size="14.00" fill="#666666">[boolean]</text>
<polygon fill="none" stroke="#000000" points="199,-522.5 199,-552.5 519,-552.5 519,-522.5 199,-522.5"/>
<text text-anchor="start" x="206" y="-533.9" font-family="Arial" font-size="14.00" fill="#000000">usrgroup    </text>
<text text-anchor="start" x="295.439" y="-533.9" font-family="Arial" font-size="14.00" fill="#666666">[integer]</text>
<polygon fill="none" stroke="#000000" points="199,-492.5 199,-522.5 519,-522.5 519,-492.5 199,-492.5"/>
<text text-anchor="start" x="206" y="-503.9" font-family="Arial" font-size="14.00" fill="#000000">claims_returned_count    </text>
<text text-anchor="start" x="381.7896" y="-503.9" font-family="Arial" font-size="14.00" fill="#666666">[integer]</text>
<polygon fill="none" stroke="#000000" points="199,-462.5 199,-492.5 519,-492.5 519,-462.5 199,-462.5"/>
<text text-anchor="start" x="206" y="-473.9" font-family="Arial" font-size="14.00" fill="#000000">credit_forward_balance    </text>
<text text-anchor="start" x="385.6788" y="-473.9" font-family="Arial" font-size="14.00" fill="#666666">[numeric(6,2)]</text>
<polygon fill="none" stroke="#000000" points="199,-432.5 199,-462.5 519,-462.5 519,-432.5 199,-432.5"/>
<text text-anchor="start" x="206" y="-443.9" font-family="Arial" font-size="14.00" fill="#000000">last_xact_id    </text>
<text text-anchor="start" x="314.1122" y="-443.9" font-family="Arial" font-size="14.00" fill="#666666">[text]</text>
<polygon fill="none" stroke="#000000" points="199,-402.5 199,-432.5 519,-432.5 519,-402.5 199,-402.5"/>
<text text-anchor="start" x="206" y="-413.9" font-family="Arial" font-size="14.00" fill="#000000">alert_message    </text>
<text text-anchor="start" x="332.0014" y="-413.9" font-family="Arial" font-size="14.00" fill="#666666">[text]</text>
<polygon fill="none" stroke="#000000" points="199,-372.5 199,-402.5 519,-402.5 519,-372.5 199,-372.5"/>
<text text-anchor="start" x="206" y="-383.9" font-family="Arial" font-size="14.00" fill="#000000">create_date    </text>
<text text-anchor="start" x="314.1248" y="-383.9" font-family="Arial" font-size="14.00" fill="#666666">[timestamp with time zone]</text>
<polygon fill="none" stroke="#000000" points="199,-342.5 199,-372.5 519,-372.5 519,-342.5 199,-342.5"/>
<text text-anchor="start" x="206" y="-353.9" font-family="Arial" font-size="14.00" fill="#000000">expire_date    </text>
<text text-anchor="start" x="313.3408" y="-353.9" font-family="Arial" font-size="14.00" fill="#666666">[timestamp with time zone]</text>
<polygon fill="none" stroke="#000000" points="199,-312.5 199,-342.5 519,-342.5 519,-312.5 199,-312.5"/>
<text text-anchor="start" x="206" y="-323.9" font-family="Arial" font-size="14.00" fill="#000000">claims_never_checked_out_count    </text>
<text text-anchor="start" x="451.8246" y="-323.9" font-family="Arial" font-size="14.00" fill="#666666">[integer]</text>
<polygon fill="none" stroke="#000000" points="199,-282.5 199,-312.5 519,-312.5 519,-282.5 199,-282.5"/>
<text text-anchor="start" x="205.7609" y="-293.9" font-family="Arial" font-size="14.00" fill="#000000">last_update_time    </text>
<text text-anchor="start" x="346.5547" y="-293.9" font-family="Arial" font-size="14.00" fill="#666666">[timestamp with time zone]</text>
<polygon fill="none" stroke="#000000" points="199,-252.5 199,-282.5 519,-282.5 519,-252.5 199,-252.5"/>
<text text-anchor="start" x="206" y="-263.9" font-family="Arial" font-size="14.00" fill="#000000">pref_prefix    </text>
<text text-anchor="start" x="306.3268" y="-263.9" font-family="Arial" font-size="14.00" fill="#666666">[text]</text>
<polygon fill="none" stroke="#000000" points="199,-222.5 199,-252.5 519,-252.5 519,-222.5 199,-222.5"/>
<text text-anchor="start" x="206" y="-233.9" font-family="Arial" font-size="14.00" fill="#000000">pref_first_given_name    </text>
<text text-anchor="start" x="378.6802" y="-233.9" font-family="Arial" font-size="14.00" fill="#666666">[text]</text>
<polygon fill="none" stroke="#000000" points="199,-192.5 199,-222.5 519,-222.5 519,-192.5 199,-192.5"/>
<text text-anchor="start" x="206" y="-203.9" font-family="Arial" font-size="14.00" fill="#000000">pref_second_given_name    </text>
<text text-anchor="start" x="401.2622" y="-203.9" font-family="Arial" font-size="14.00" fill="#666666">[text]</text>
<polygon fill="none" stroke="#000000" points="199,-162.5 199,-192.5 519,-192.5 519,-162.5 199,-162.5"/>
<text text-anchor="start" x="206" y="-173.9" font-family="Arial" font-size="14.00" fill="#000000">pref_family_name    </text>
<text text-anchor="start" x="351.4418" y="-173.9" font-family="Arial" font-size="14.00" fill="#666666">[text]</text>
<polygon fill="none" stroke="#000000" points="199,-132.5 199,-162.5 519,-162.5 519,-132.5 199,-132.5"/>
<text text-anchor="start" x="206" y="-143.9" font-family="Arial" font-size="14.00" fill="#000000">pref_suffix    </text>
<text text-anchor="start" x="304.7742" y="-143.9" font-family="Arial" font-size="14.00" fill="#666666">[text]</text>
<polygon fill="none" stroke="#000000" points="199,-102.5 199,-132.5 519,-132.5 519,-102.5 199,-102.5"/>
<text text-anchor="start" x="206" y="-113.9" font-family="Arial" font-size="14.00" fill="#000000">name_keywords    </text>
<text text-anchor="start" x="342.1108" y="-113.9" font-family="Arial" font-size="14.00" fill="#666666">[text]</text>
<polygon fill="none" stroke="#000000" points="199,-72.5 199,-102.5 519,-102.5 519,-72.5 199,-72.5"/>
<text text-anchor="start" x="206" y="-83.9" font-family="Arial" font-size="14.00" fill="#000000">name_kw_tsvector    </text>
<text text-anchor="start" x="356.892" y="-83.9" font-family="Arial" font-size="14.00" fill="#666666">[tsvector]</text>
<polygon fill="none" stroke="#000000" points="199,-42.5 199,-72.5 519,-72.5 519,-42.5 199,-42.5"/>
<text text-anchor="start" x="206" y="-53.9" font-family="Arial" font-size="14.00" fill="#000000">guardian    </text>
<text text-anchor="start" x="294.6676" y="-53.9" font-family="Arial" font-size="14.00" fill="#666666">[text]</text>
</g>
<!-- container.user_bucket&#45;&gt;actor.usr -->
<g id="edge3" class="edge">
<title>container.user_bucket:owner&#45;&gt;actor.usr:id</title>
<path fill="none" stroke="#000000" d="M634.9729,-1865.6837C561.8289,-1837.7709 602.2965,-1497.5 519,-1497.5"/>
<polygon fill="#000000" stroke="#000000" points="635.1601,-1865.7176 644.1979,-1871.9279 640.0801,-1866.6088 645,-1867.5 645,-1867.5 645,-1867.5 640.0801,-1866.6088 645.8021,-1863.0721 635.1601,-1865.7176 635.1601,-1865.7176"/>
<text text-anchor="start" x="7.439" y="-1877.5" font-family="Arial" font-size="10.00" fill="#000000">FOREIGN KEY (owner) REFERENCES actor.usr(id) ON UPDATE CASCADE ON DELETE CASCADE DEFERRABLE INITIALLY DEFERRED</text>
</g>
<!-- container.user_bucket_type -->
<g id="node5" class="node">
<title>container.user_bucket_type</title>
<polygon fill="#efefef" stroke="transparent" points="623,-807.5 623,-842.5 985,-842.5 985,-807.5 623,-807.5"/>
<polygon fill="none" stroke="#000000" points="623,-807.5 623,-842.5 985,-842.5 985,-807.5 623,-807.5"/>
<text text-anchor="start" x="629.6789" y="-820.3" font-family="Arial Bold" font-size="18.00" fill="#000000">container.user_bucket_type</text>
<text text-anchor="start" x="850.7531" y="-820.3" font-family="Arial" font-size="14.00" fill="#000000">    </text>
<text text-anchor="start" x="884.9579" y="-820.3" font-family="Arial" font-size="14.00" fill="#666666">[BASE TABLE]</text>
<polygon fill="none" stroke="#000000" points="623,-777.5 623,-807.5 985,-807.5 985,-777.5 623,-777.5"/>
<text text-anchor="start" x="630" y="-788.9" font-family="Arial" font-size="14.00" fill="#000000">code    </text>
<text text-anchor="start" x="694.5526" y="-788.9" font-family="Arial" font-size="14.00" fill="#666666">[text]</text>
<polygon fill="none" stroke="#000000" points="623,-747.5 623,-777.5 985,-777.5 985,-747.5 623,-747.5"/>
<text text-anchor="start" x="630" y="-758.9" font-family="Arial" font-size="14.00" fill="#000000">label    </text>
<text text-anchor="start" x="693.7658" y="-758.9" font-family="Arial" font-size="14.00" fill="#666666">[text]</text>
</g>
<!-- container.user_bucket&#45;&gt;container.user_bucket_type -->
<g id="edge4" class="edge">
<title>container.user_bucket:btype&#45;&gt;container.user_bucket_type:code</title>
<path fill="none" stroke="#000000" d="M970.7002,-1801.0184C1021.2924,-1714.574 1038.7583,-792.5 985,-792.5"/>
<polygon fill="#000000" stroke="#000000" points="970.6505,-1801.0603 960.1021,-1804.0573 966.8253,-1804.2801 963,-1807.5 963,-1807.5 963,-1807.5 966.8253,-1804.2801 965.8979,-1810.9427 970.6505,-1801.0603 970.6505,-1801.0603"/>
<text text-anchor="start" x="970.303" y="-1817.5" font-family="Arial" font-size="10.00" fill="#000000">FOREIGN KEY (btype) REFERENCES container.user_bucket_type(code) DEFERRABLE INITIALLY DEFERRED</text>
</g>
<!-- actor.org_unit -->
<g id="node6" class="node">
<title>actor.org_unit</title>
<polygon fill="#efefef" stroke="transparent" points="1090,-972.5 1090,-1007.5 1341,-1007.5 1341,-972.5 1090,-972.5"/>
<polygon fill="none" stroke="#000000" points="1090,-972.5 1090,-1007.5 1341,-1007.5 1341,-972.5 1090,-972.5"/>
<text text-anchor="start" x="1096.7017" y="-985.3" font-family="Arial Bold" font-size="18.00" fill="#000000">actor.org_unit</text>
<text text-anchor="start" x="1206.7303" y="-985.3" font-family="Arial" font-size="14.00" fill="#000000">    </text>
<text text-anchor="start" x="1240.9351" y="-985.3" font-family="Arial" font-size="14.00" fill="#666666">[BASE TABLE]</text>
<polygon fill="none" stroke="#000000" points="1090,-942.5 1090,-972.5 1341,-972.5 1341,-942.5 1090,-942.5"/>
<text text-anchor="start" x="1097" y="-953.9" font-family="Arial" font-size="14.00" fill="#000000">id    </text>
<text text-anchor="start" x="1142.094" y="-953.9" font-family="Arial" font-size="14.00" fill="#666666">[integer]</text>
<polygon fill="none" stroke="#000000" points="1090,-912.5 1090,-942.5 1341,-942.5 1341,-912.5 1090,-912.5"/>
<text text-anchor="start" x="1097" y="-923.9" font-family="Arial" font-size="14.00" fill="#000000">parent_ou    </text>
<text text-anchor="start" x="1194.2342" y="-923.9" font-family="Arial" font-size="14.00" fill="#666666">[integer]</text>
<polygon fill="none" stroke="#000000" points="1090,-882.5 1090,-912.5 1341,-912.5 1341,-882.5 1090,-882.5"/>
<text text-anchor="start" x="1097" y="-893.9" font-family="Arial" font-size="14.00" fill="#000000">ou_type    </text>
<text text-anchor="start" x="1181.0084" y="-893.9" font-family="Arial" font-size="14.00" fill="#666666">[integer]</text>
<polygon fill="none" stroke="#000000" points="1090,-852.5 1090,-882.5 1341,-882.5 1341,-852.5 1090,-852.5"/>
<text text-anchor="start" x="1097" y="-863.9" font-family="Arial" font-size="14.00" fill="#000000">ill_address    </text>
<text text-anchor="start" x="1198.0982" y="-863.9" font-family="Arial" font-size="14.00" fill="#666666">[integer]</text>
<polygon fill="none" stroke="#000000" points="1090,-822.5 1090,-852.5 1341,-852.5 1341,-822.5 1090,-822.5"/>
<text text-anchor="start" x="1097" y="-833.9" font-family="Arial" font-size="14.00" fill="#000000">holds_address    </text>
<text text-anchor="start" x="1222.2328" y="-833.9" font-family="Arial" font-size="14.00" fill="#666666">[integer]</text>
<polygon fill="none" stroke="#000000" points="1090,-792.5 1090,-822.5 1341,-822.5 1341,-792.5 1090,-792.5"/>
<text text-anchor="start" x="1097" y="-803.9" font-family="Arial" font-size="14.00" fill="#000000">mailing_address    </text>
<text text-anchor="start" x="1233.1066" y="-803.9" font-family="Arial" font-size="14.00" fill="#666666">[integer]</text>
<polygon fill="none" stroke="#000000" points="1090,-762.5 1090,-792.5 1341,-792.5 1341,-762.5 1090,-762.5"/>
<text text-anchor="start" x="1097" y="-773.9" font-family="Arial" font-size="14.00" fill="#000000">billing_address    </text>
<text text-anchor="start" x="1224.5526" y="-773.9" font-family="Arial" font-size="14.00" fill="#666666">[integer]</text>
<polygon fill="none" stroke="#000000" points="1090,-732.5 1090,-762.5 1341,-762.5 1341,-732.5 1090,-732.5"/>
<text text-anchor="start" x="1097" y="-743.9" font-family="Arial" font-size="14.00" fill="#000000">shortname    </text>
<text text-anchor="start" x="1197.3296" y="-743.9" font-family="Arial" font-size="14.00" fill="#666666">[text]</text>
<polygon fill="none" stroke="#000000" points="1090,-702.5 1090,-732.5 1341,-732.5 1341,-702.5 1090,-702.5"/>
<text text-anchor="start" x="1097" y="-713.9" font-family="Arial" font-size="14.00" fill="#000000">name    </text>
<text text-anchor="start" x="1166.2132" y="-713.9" font-family="Arial" font-size="14.00" fill="#666666">[text]</text>
<polygon fill="none" stroke="#000000" points="1090,-672.5 1090,-702.5 1341,-702.5 1341,-672.5 1090,-672.5"/>
<text text-anchor="start" x="1097" y="-683.9" font-family="Arial" font-size="14.00" fill="#000000">email    </text>
<text text-anchor="start" x="1164.6438" y="-683.9" font-family="Arial" font-size="14.00" fill="#666666">[text]</text>
<polygon fill="none" stroke="#000000" points="1090,-642.5 1090,-672.5 1341,-672.5 1341,-642.5 1090,-642.5"/>
<text text-anchor="start" x="1097" y="-653.9" font-family="Arial" font-size="14.00" fill="#000000">phone    </text>
<text text-anchor="start" x="1170.1178" y="-653.9" font-family="Arial" font-size="14.00" fill="#666666">[text]</text>
<polygon fill="none" stroke="#000000" points="1090,-612.5 1090,-642.5 1341,-642.5 1341,-612.5 1090,-612.5"/>
<text text-anchor="start" x="1097" y="-623.9" font-family="Arial" font-size="14.00" fill="#000000">opac_visible    </text>
<text text-anchor="start" x="1208.2202" y="-623.9" font-family="Arial" font-size="14.00" fill="#666666">[boolean]</text>
<polygon fill="none" stroke="#000000" points="1090,-582.5 1090,-612.5 1341,-612.5 1341,-582.5 1090,-582.5"/>
<text text-anchor="start" x="1097" y="-593.9" font-family="Arial" font-size="14.00" fill="#000000">fiscal_calendar    </text>
<text text-anchor="start" x="1224.554" y="-593.9" font-family="Arial" font-size="14.00" fill="#666666">[integer]</text>
</g>
<!-- container.user_bucket&#45;&gt;actor.org_unit -->
<g id="edge5" class="edge">
<title>container.user_bucket:owning_lib&#45;&gt;actor.org_unit:id</title>
<path fill="none" stroke="#000000" d="M973.0225,-1716.9331C1027.0472,-1710.4633 1018.4286,-1649.7058 1037,-1591 1058.3044,-1523.6547 1019.3652,-957.5 1090,-957.5"/>
<polygon fill="#000000" stroke="#000000" points="972.984,-1716.9352 962.7458,-1713.0072 967.992,-1717.2176 963,-1717.5 963,-1717.5 963,-1717.5 967.992,-1717.2176 963.2542,-1721.9928 972.984,-1716.9352 972.984,-1716.9352"/>
<text text-anchor="start" x="970.4305" y="-1727.5" font-family="Arial" font-size="10.00" fill="#000000">FOREIGN KEY (owning_lib) REFERENCES actor.org_unit(id) ON DELETE CASCADE DEFERRABLE INITIALLY DEFERRED</text>
</g>
<!-- container.user_bucket_item -->
<g id="node2" class="node">
<title>container.user_bucket_item</title>
<polygon fill="#efefef" stroke="transparent" points="389,-2222.5 389,-2257.5 751,-2257.5 751,-2222.5 389,-2222.5"/>
<polygon fill="none" stroke="#000000" points="389,-2222.5 389,-2257.5 751,-2257.5 751,-2222.5 389,-2222.5"/>
<text text-anchor="start" x="395.6888" y="-2235.3" font-family="Arial Bold" font-size="18.00" fill="#000000">container.user_bucket_item</text>
<text text-anchor="start" x="616.7432" y="-2235.3" font-family="Arial" font-size="14.00" fill="#000000">    </text>
<text text-anchor="start" x="650.948" y="-2235.3" font-family="Arial" font-size="14.00" fill="#666666">[BASE TABLE]</text>
<polygon fill="none" stroke="#000000" points="389,-2192.5 389,-2222.5 751,-2222.5 751,-2192.5 389,-2192.5"/>
<text text-anchor="start" x="396" y="-2203.9" font-family="Arial" font-size="14.00" fill="#000000">id    </text>
<text text-anchor="start" x="441.094" y="-2203.9" font-family="Arial" font-size="14.00" fill="#666666">[integer]</text>
<polygon fill="none" stroke="#000000" points="389,-2162.5 389,-2192.5 751,-2192.5 751,-2162.5 389,-2162.5"/>
<text text-anchor="start" x="396" y="-2173.9" font-family="Arial" font-size="14.00" fill="#000000">bucket    </text>
<text text-anchor="start" x="471.4432" y="-2173.9" font-family="Arial" font-size="14.00" fill="#666666">[integer]</text>
<polygon fill="none" stroke="#000000" points="389,-2132.5 389,-2162.5 751,-2162.5 751,-2132.5 389,-2132.5"/>
<text text-anchor="start" x="396" y="-2143.9" font-family="Arial" font-size="14.00" fill="#000000">target_user    </text>
<text text-anchor="start" x="501.0028" y="-2143.9" font-family="Arial" font-size="14.00" fill="#666666">[integer]</text>
<polygon fill="none" stroke="#000000" points="389,-2102.5 389,-2132.5 751,-2132.5 751,-2102.5 389,-2102.5"/>
<text text-anchor="start" x="396" y="-2113.9" font-family="Arial" font-size="14.00" fill="#000000">pos    </text>
<text text-anchor="start" x="452.77" y="-2113.9" font-family="Arial" font-size="14.00" fill="#666666">[integer]</text>
<polygon fill="none" stroke="#000000" points="389,-2072.5 389,-2102.5 751,-2102.5 751,-2072.5 389,-2072.5"/>
<text text-anchor="start" x="396" y="-2083.9" font-family="Arial" font-size="14.00" fill="#000000">create_time    </text>
<text text-anchor="start" x="503.3268" y="-2083.9" font-family="Arial" font-size="14.00" fill="#666666">[timestamp with time zone]</text>
</g>
<!-- container.user_bucket_item&#45;&gt;container.user_bucket -->
<g id="edge1" class="edge">
<title>container.user_bucket_item:bucket&#45;&gt;container.user_bucket:id</title>
<path fill="none" stroke="#000000" d="M761.2598,-2176.6178C813.4198,-2166.959 787.0181,-2080.2711 751,-2030 722.0225,-1989.5555 673.9775,-2034.4445 645,-1994 620.0208,-1959.136 602.1111,-1897.5 645,-1897.5"/>
<polygon fill="#000000" stroke="#000000" points="760.9632,-2176.6432 750.6145,-2173.0165 755.9816,-2177.0716 751,-2177.5 751,-2177.5 751,-2177.5 755.9816,-2177.0716 751.3855,-2181.9835 760.9632,-2176.6432 760.9632,-2176.6432"/>
<text text-anchor="start" x="51.5885" y="-2187.5" font-family="Arial" font-size="10.00" fill="#000000">FOREIGN KEY (bucket) REFERENCES container.user_bucket(id) ON UPDATE CASCADE ON DELETE CASCADE DEFERRABLE INITIALLY DEFERRED</text>
</g>
<!-- container.user_bucket_note -->
<g id="node3" class="node">
<title>container.user_bucket_note</title>
<polygon fill="#efefef" stroke="transparent" points="856,-2192.5 856,-2227.5 1219,-2227.5 1219,-2192.5 856,-2192.5"/>
<polygon fill="none" stroke="#000000" points="856,-2192.5 856,-2227.5 1219,-2227.5 1219,-2192.5 856,-2192.5"/>
<text text-anchor="start" x="862.6758" y="-2205.3" font-family="Arial Bold" font-size="18.00" fill="#000000">container.user_bucket_note</text>
<text text-anchor="start" x="1084.7562" y="-2205.3" font-family="Arial" font-size="14.00" fill="#000000">    </text>
<text text-anchor="start" x="1118.961" y="-2205.3" font-family="Arial" font-size="14.00" fill="#666666">[BASE TABLE]</text>
<polygon fill="none" stroke="#000000" points="856,-2162.5 856,-2192.5 1219,-2192.5 1219,-2162.5 856,-2162.5"/>
<text text-anchor="start" x="863" y="-2173.9" font-family="Arial" font-size="14.00" fill="#000000">id    </text>
<text text-anchor="start" x="908.094" y="-2173.9" font-family="Arial" font-size="14.00" fill="#666666">[integer]</text>
<polygon fill="none" stroke="#000000" points="856,-2132.5 856,-2162.5 1219,-2162.5 1219,-2132.5 856,-2132.5"/>
<text text-anchor="start" x="863" y="-2143.9" font-family="Arial" font-size="14.00" fill="#000000">bucket    </text>
<text text-anchor="start" x="938.4432" y="-2143.9" font-family="Arial" font-size="14.00" fill="#666666">[integer]</text>
<polygon fill="none" stroke="#000000" points="856,-2102.5 856,-2132.5 1219,-2132.5 1219,-2102.5 856,-2102.5"/>
<text text-anchor="start" x="863" y="-2113.9" font-family="Arial" font-size="14.00" fill="#000000">note    </text>
<text text-anchor="start" x="924.4432" y="-2113.9" font-family="Arial" font-size="14.00" fill="#666666">[text]</text>
</g>
<!-- container.user_bucket_note&#45;&gt;container.user_bucket -->
<g id="edge2" class="edge">
<title>container.user_bucket_note:bucket&#45;&gt;container.user_bucket:id</title>
<path fill="none" stroke="#000000" d="M845.9087,-2145.9198C821.1506,-2136.8263 838.9724,-2090.5092 856,-2060 883.2304,-2011.2098 935.7696,-2042.7902 963,-1994 983.9018,-1956.5491 1005.8889,-1897.5 963,-1897.5"/>
<polygon fill="#000000" stroke="#000000" points="846.1204,-2145.9528 855.3038,-2151.9458 851.0602,-2146.7264 856,-2147.5 856,-2147.5 856,-2147.5 851.0602,-2146.7264 856.6962,-2143.0542 846.1204,-2145.9528 846.1204,-2145.9528"/>
<text text-anchor="start" x="862.5885" y="-2157.5" font-family="Arial" font-size="10.00" fill="#000000">FOREIGN KEY (bucket) REFERENCES container.user_bucket(id) ON UPDATE CASCADE ON DELETE CASCADE DEFERRABLE INITIALLY DEFERRED</text>
</g>
</g>
</svg>
