<?xml version="1.0" encoding="UTF-8" standalone="no"?>
<!DOCTYPE svg PUBLIC "-//W3C//DTD SVG 1.1//EN"
 "http://www.w3.org/Graphics/SVG/1.1/DTD/svg11.dtd">
<!-- Generated by graphviz version 2.40.1 (20161225.0304)
 -->
<!-- Title: container.call_number_bucket_item_note Pages: 1 -->
<svg width="1279pt" height="532pt"
 viewBox="0.00 0.00 1279.00 532.00" xmlns="http://www.w3.org/2000/svg" xmlns:xlink="http://www.w3.org/1999/xlink">
<g id="graph0" class="graph" transform="scale(1 1) rotate(0) translate(4 528)">
<title>container.call_number_bucket_item_note</title>
<polygon fill="#ffffff" stroke="transparent" points="-4,4 -4,-528 1275,-528 1275,4 -4,4"/>
<!-- container.call_number_bucket_item_note -->
<g id="node1" class="node">
<title>container.call_number_bucket_item_note</title>
<polygon fill="#efefef" stroke="transparent" points="755,-442.5 755,-477.5 1225,-477.5 1225,-442.5 755,-442.5"/>
<polygon fill="none" stroke="#000000" points="755,-442.5 755,-477.5 1225,-477.5 1225,-442.5 755,-442.5"/>
<text text-anchor="start" x="761.6726" y="-455.3" font-family="Arial Bold" font-size="18.00" fill="#000000">container.call_number_bucket_item_note</text>
<text text-anchor="start" x="1090.7594" y="-455.3" font-family="Arial" font-size="14.00" fill="#000000">    </text>
<text text-anchor="start" x="1124.9642" y="-455.3" font-family="Arial" font-size="14.00" fill="#666666">[BASE TABLE]</text>
<polygon fill="none" stroke="#000000" points="755,-412.5 755,-442.5 1225,-442.5 1225,-412.5 755,-412.5"/>
<text text-anchor="start" x="762" y="-423.9" font-family="Arial" font-size="14.00" fill="#000000">id </text>
<text text-anchor="start" x="776.7798" y="-423.9" font-family="Arial" font-size="14.00" fill="#666666">[integer]</text>
<polygon fill="none" stroke="#000000" points="755,-382.5 755,-412.5 1225,-412.5 1225,-382.5 755,-382.5"/>
<text text-anchor="start" x="762" y="-393.9" font-family="Arial" font-size="14.00" fill="#000000">item </text>
<text text-anchor="start" x="792.331" y="-393.9" font-family="Arial" font-size="14.00" fill="#666666">[integer]</text>
<polygon fill="none" stroke="#000000" points="755,-352.5 755,-382.5 1225,-382.5 1225,-352.5 755,-352.5"/>
<text text-anchor="start" x="762" y="-363.9" font-family="Arial" font-size="14.00" fill="#000000">note </text>
<text text-anchor="start" x="793.129" y="-363.9" font-family="Arial" font-size="14.00" fill="#666666">[text]</text>
<polygon fill="none" stroke="#000000" stroke-width="3" points="753.5,-351.5 753.5,-479.5 1226.5,-479.5 1226.5,-351.5 753.5,-351.5"/>
</g>
<!-- container.call_number_bucket_item -->
<g id="node2" class="node">
<title>container.call_number_bucket_item</title>
<polygon fill="#efefef" stroke="transparent" points="777,-192.5 777,-227.5 1202,-227.5 1202,-192.5 777,-192.5"/>
<polygon fill="none" stroke="#000000" points="777,-192.5 777,-227.5 1202,-227.5 1202,-192.5 777,-192.5"/>
<text text-anchor="start" x="783.6861" y="-205.3" font-family="Arial Bold" font-size="18.00" fill="#000000">container.call_number_bucket_item</text>
<text text-anchor="start" x="1067.7459" y="-205.3" font-family="Arial" font-size="14.00" fill="#000000">    </text>
<text text-anchor="start" x="1101.9507" y="-205.3" font-family="Arial" font-size="14.00" fill="#666666">[BASE TABLE]</text>
<polygon fill="none" stroke="#000000" points="777,-162.5 777,-192.5 1202,-192.5 1202,-162.5 777,-162.5"/>
<text text-anchor="start" x="784" y="-173.9" font-family="Arial" font-size="14.00" fill="#000000">id    </text>
<text text-anchor="start" x="829.094" y="-173.9" font-family="Arial" font-size="14.00" fill="#666666">[integer]</text>
<polygon fill="none" stroke="#000000" points="777,-132.5 777,-162.5 1202,-162.5 1202,-132.5 777,-132.5"/>
<text text-anchor="start" x="784" y="-143.9" font-family="Arial" font-size="14.00" fill="#000000">bucket    </text>
<text text-anchor="start" x="859.4432" y="-143.9" font-family="Arial" font-size="14.00" fill="#666666">[integer]</text>
<polygon fill="none" stroke="#000000" points="777,-102.5 777,-132.5 1202,-132.5 1202,-102.5 777,-102.5"/>
<text text-anchor="start" x="784" y="-113.9" font-family="Arial" font-size="14.00" fill="#000000">target_call_number    </text>
<text text-anchor="start" x="938.007" y="-113.9" font-family="Arial" font-size="14.00" fill="#666666">[integer]</text>
<polygon fill="none" stroke="#000000" points="777,-72.5 777,-102.5 1202,-102.5 1202,-72.5 777,-72.5"/>
<text text-anchor="start" x="784" y="-83.9" font-family="Arial" font-size="14.00" fill="#000000">pos    </text>
<text text-anchor="start" x="840.77" y="-83.9" font-family="Arial" font-size="14.00" fill="#666666">[integer]</text>
<polygon fill="none" stroke="#000000" points="777,-42.5 777,-72.5 1202,-72.5 1202,-42.5 777,-42.5"/>
<text text-anchor="start" x="784" y="-53.9" font-family="Arial" font-size="14.00" fill="#000000">create_time    </text>
<text text-anchor="start" x="891.3268" y="-53.9" font-family="Arial" font-size="14.00" fill="#666666">[timestamp with time zone]</text>
</g>
<!-- container.call_number_bucket_item_note&#45;&gt;container.call_number_bucket_item -->
<g id="edge1" class="edge">
<title>container.call_number_bucket_item_note:item&#45;&gt;container.call_number_bucket_item:id</title>
<path fill="none" stroke="#000000" d="M745.0574,-395.9693C717.3312,-386.3497 730.2812,-333.7896 755,-307 822.5791,-233.7595 1134.4209,-344.2405 1202,-271 1230.1801,-240.4591 1243.5556,-177.5 1202,-177.5"/>
<polygon fill="#000000" stroke="#000000" points="745.1164,-395.9783 754.3152,-401.9476 750.0582,-396.7391 755,-397.5 755,-397.5 755,-397.5 750.0582,-396.7391 755.6848,-393.0524 745.1164,-395.9783 745.1164,-395.9783"/>
<text text-anchor="start" x="7.1495" y="-407.5" font-family="Arial" font-size="10.00" fill="#000000">FOREIGN KEY (item) REFERENCES container.call_number_bucket_item(id) ON UPDATE CASCADE ON DELETE CASCADE DEFERRABLE INITIALLY DEFERRED</text>
</g>
</g>
</svg>
