<?xml version="1.0" encoding="UTF-8" standalone="no"?>
<!DOCTYPE svg PUBLIC "-//W3C//DTD SVG 1.1//EN"
 "http://www.w3.org/Graphics/SVG/1.1/DTD/svg11.dtd">
<!-- Generated by graphviz version 2.40.1 (20161225.0304)
 -->
<!-- Title: container.carousel Pages: 1 -->
<svg width="1720pt" height="2519pt"
 viewBox="0.00 0.00 1720.00 2519.00" xmlns="http://www.w3.org/2000/svg" xmlns:xlink="http://www.w3.org/1999/xlink">
<g id="graph0" class="graph" transform="scale(1 1) rotate(0) translate(4 2515)">
<title>container.carousel</title>
<polygon fill="#ffffff" stroke="transparent" points="-4,4 -4,-2515 1716,-2515 1716,4 -4,4"/>
<!-- container.carousel -->
<g id="node1" class="node">
<title>container.carousel</title>
<polygon fill="#efefef" stroke="transparent" points="882,-2122.5 882,-2157.5 1172,-2157.5 1172,-2122.5 882,-2122.5"/>
<polygon fill="none" stroke="#000000" points="882,-2122.5 882,-2157.5 1172,-2157.5 1172,-2122.5 882,-2122.5"/>
<text text-anchor="start" x="889.6995" y="-2135.3" font-family="Arial Bold" font-size="18.00" fill="#000000">container.carousel</text>
<text text-anchor="start" x="1036.7325" y="-2135.3" font-family="Arial" font-size="14.00" fill="#000000">    </text>
<text text-anchor="start" x="1070.9373" y="-2135.3" font-family="Arial" font-size="14.00" fill="#666666">[BASE TABLE]</text>
<polygon fill="none" stroke="#000000" points="882,-2092.5 882,-2122.5 1172,-2122.5 1172,-2092.5 882,-2092.5"/>
<text text-anchor="start" x="889" y="-2103.9" font-family="Arial" font-size="14.00" fill="#000000">id </text>
<text text-anchor="start" x="903.7798" y="-2103.9" font-family="Arial" font-size="14.00" fill="#666666">[integer]</text>
<polygon fill="none" stroke="#000000" points="882,-2062.5 882,-2092.5 1172,-2092.5 1172,-2062.5 882,-2062.5"/>
<text text-anchor="start" x="889" y="-2073.9" font-family="Arial" font-size="14.00" fill="#000000">type </text>
<text text-anchor="start" x="919.3464" y="-2073.9" font-family="Arial" font-size="14.00" fill="#666666">[integer]</text>
<polygon fill="none" stroke="#000000" points="882,-2032.5 882,-2062.5 1172,-2062.5 1172,-2032.5 882,-2032.5"/>
<text text-anchor="start" x="889" y="-2043.9" font-family="Arial" font-size="14.00" fill="#000000">owner </text>
<text text-anchor="start" x="931.0056" y="-2043.9" font-family="Arial" font-size="14.00" fill="#666666">[integer]</text>
<polygon fill="none" stroke="#000000" points="882,-2002.5 882,-2032.5 1172,-2032.5 1172,-2002.5 882,-2002.5"/>
<text text-anchor="start" x="889" y="-2013.9" font-family="Arial" font-size="14.00" fill="#000000">name </text>
<text text-anchor="start" x="927.899" y="-2013.9" font-family="Arial" font-size="14.00" fill="#666666">[text]</text>
<polygon fill="none" stroke="#000000" points="882,-1972.5 882,-2002.5 1172,-2002.5 1172,-1972.5 882,-1972.5"/>
<text text-anchor="start" x="889" y="-1983.9" font-family="Arial" font-size="14.00" fill="#000000">bucket </text>
<text text-anchor="start" x="934.129" y="-1983.9" font-family="Arial" font-size="14.00" fill="#666666">[integer]</text>
<polygon fill="none" stroke="#000000" points="882,-1942.5 882,-1972.5 1172,-1972.5 1172,-1942.5 882,-1942.5"/>
<text text-anchor="start" x="889" y="-1953.9" font-family="Arial" font-size="14.00" fill="#000000">creator </text>
<text text-anchor="start" x="936.4502" y="-1953.9" font-family="Arial" font-size="14.00" fill="#666666">[integer]</text>
<polygon fill="none" stroke="#000000" points="882,-1912.5 882,-1942.5 1172,-1942.5 1172,-1912.5 882,-1912.5"/>
<text text-anchor="start" x="889" y="-1923.9" font-family="Arial" font-size="14.00" fill="#000000">editor </text>
<text text-anchor="start" x="927.8962" y="-1923.9" font-family="Arial" font-size="14.00" fill="#666666">[integer]</text>
<polygon fill="none" stroke="#000000" points="882,-1882.5 882,-1912.5 1172,-1912.5 1172,-1882.5 882,-1882.5"/>
<text text-anchor="start" x="889" y="-1893.9" font-family="Arial" font-size="14.00" fill="#000000">create_time </text>
<text text-anchor="start" x="966.0126" y="-1893.9" font-family="Arial" font-size="14.00" fill="#666666">[timestamp with time zone]</text>
<polygon fill="none" stroke="#000000" points="882,-1852.5 882,-1882.5 1172,-1882.5 1172,-1852.5 882,-1852.5"/>
<text text-anchor="start" x="889" y="-1863.9" font-family="Arial" font-size="14.00" fill="#000000">edit_time </text>
<text text-anchor="start" x="949.676" y="-1863.9" font-family="Arial" font-size="14.00" fill="#666666">[timestamp with time zone]</text>
<polygon fill="none" stroke="#000000" points="882,-1822.5 882,-1852.5 1172,-1852.5 1172,-1822.5 882,-1822.5"/>
<text text-anchor="start" x="889" y="-1833.9" font-family="Arial" font-size="14.00" fill="#000000">age_filter </text>
<text text-anchor="start" x="950.4586" y="-1833.9" font-family="Arial" font-size="14.00" fill="#666666">[interval]</text>
<polygon fill="none" stroke="#000000" points="882,-1792.5 882,-1822.5 1172,-1822.5 1172,-1792.5 882,-1792.5"/>
<text text-anchor="start" x="889" y="-1803.9" font-family="Arial" font-size="14.00" fill="#000000">owning_lib_filter </text>
<text text-anchor="start" x="993.2328" y="-1803.9" font-family="Arial" font-size="14.00" fill="#666666">[integer[]]</text>
<polygon fill="none" stroke="#000000" points="882,-1762.5 882,-1792.5 1172,-1792.5 1172,-1762.5 882,-1762.5"/>
<text text-anchor="start" x="889" y="-1773.9" font-family="Arial" font-size="14.00" fill="#000000">copy_location_filter </text>
<text text-anchor="start" x="1012.6928" y="-1773.9" font-family="Arial" font-size="14.00" fill="#666666">[integer[]]</text>
<polygon fill="none" stroke="#000000" points="882,-1732.5 882,-1762.5 1172,-1762.5 1172,-1732.5 882,-1732.5"/>
<text text-anchor="start" x="888.54" y="-1743.9" font-family="Arial" font-size="14.00" fill="#000000">last_refresh_time </text>
<text text-anchor="start" x="999.7756" y="-1743.9" font-family="Arial" font-size="14.00" fill="#666666">[timestamp with time zone]</text>
<polygon fill="none" stroke="#000000" points="882,-1702.5 882,-1732.5 1172,-1732.5 1172,-1702.5 882,-1702.5"/>
<text text-anchor="start" x="889" y="-1713.9" font-family="Arial" font-size="14.00" fill="#000000">active </text>
<text text-anchor="start" x="929.453" y="-1713.9" font-family="Arial" font-size="14.00" fill="#666666">[boolean]</text>
<polygon fill="none" stroke="#000000" points="882,-1672.5 882,-1702.5 1172,-1702.5 1172,-1672.5 882,-1672.5"/>
<text text-anchor="start" x="889" y="-1683.9" font-family="Arial" font-size="14.00" fill="#000000">max_items </text>
<text text-anchor="start" x="960.5568" y="-1683.9" font-family="Arial" font-size="14.00" fill="#666666">[integer]</text>
<polygon fill="none" stroke="#000000" stroke-width="3" points="880.5,-1671.5 880.5,-2159.5 1173.5,-2159.5 1173.5,-1671.5 880.5,-1671.5"/>
</g>
<!-- config.carousel_type -->
<g id="node3" class="node">
<title>config.carousel_type</title>
<polygon fill="#efefef" stroke="transparent" points="43,-867.5 43,-902.5 349,-902.5 349,-867.5 43,-867.5"/>
<polygon fill="none" stroke="#000000" points="43,-867.5 43,-902.5 349,-902.5 349,-867.5 43,-867.5"/>
<text text-anchor="start" x="49.6914" y="-880.3" font-family="Arial Bold" font-size="18.00" fill="#000000">config.carousel_type</text>
<text text-anchor="start" x="214.7406" y="-880.3" font-family="Arial" font-size="14.00" fill="#000000">    </text>
<text text-anchor="start" x="248.9454" y="-880.3" font-family="Arial" font-size="14.00" fill="#666666">[BASE TABLE]</text>
<polygon fill="none" stroke="#000000" points="43,-837.5 43,-867.5 349,-867.5 349,-837.5 43,-837.5"/>
<text text-anchor="start" x="50" y="-848.9" font-family="Arial" font-size="14.00" fill="#000000">id    </text>
<text text-anchor="start" x="95.094" y="-848.9" font-family="Arial" font-size="14.00" fill="#666666">[integer]</text>
<polygon fill="none" stroke="#000000" points="43,-807.5 43,-837.5 349,-837.5 349,-807.5 43,-807.5"/>
<text text-anchor="start" x="50" y="-818.9" font-family="Arial" font-size="14.00" fill="#000000">name    </text>
<text text-anchor="start" x="119.2132" y="-818.9" font-family="Arial" font-size="14.00" fill="#666666">[text]</text>
<polygon fill="none" stroke="#000000" points="43,-777.5 43,-807.5 349,-807.5 349,-777.5 43,-777.5"/>
<text text-anchor="start" x="50" y="-788.9" font-family="Arial" font-size="14.00" fill="#000000">automatic    </text>
<text text-anchor="start" x="144.8836" y="-788.9" font-family="Arial" font-size="14.00" fill="#666666">[boolean]</text>
<polygon fill="none" stroke="#000000" points="43,-747.5 43,-777.5 349,-777.5 349,-747.5 43,-747.5"/>
<text text-anchor="start" x="50" y="-758.9" font-family="Arial" font-size="14.00" fill="#000000">filter_by_age    </text>
<text text-anchor="start" x="164.338" y="-758.9" font-family="Arial" font-size="14.00" fill="#666666">[boolean]</text>
<polygon fill="none" stroke="#000000" points="43,-717.5 43,-747.5 349,-747.5 349,-717.5 43,-717.5"/>
<text text-anchor="start" x="50" y="-728.9" font-family="Arial" font-size="14.00" fill="#000000">filter_by_copy_owning_lib    </text>
<text text-anchor="start" x="244.46" y="-728.9" font-family="Arial" font-size="14.00" fill="#666666">[boolean]</text>
<polygon fill="none" stroke="#000000" points="43,-687.5 43,-717.5 349,-717.5 349,-687.5 43,-687.5"/>
<text text-anchor="start" x="50" y="-698.9" font-family="Arial" font-size="14.00" fill="#000000">filter_by_copy_location    </text>
<text text-anchor="start" x="226.5722" y="-698.9" font-family="Arial" font-size="14.00" fill="#666666">[boolean]</text>
</g>
<!-- container.carousel&#45;&gt;config.carousel_type -->
<g id="edge2" class="edge">
<title>container.carousel:type&#45;&gt;config.carousel_type:id</title>
<path fill="none" stroke="#000000" d="M871.8508,-2077.4209C576.7716,-2072.7862 524.9641,-1864.8996 401,-1591 367.0826,-1516.0593 431.2587,-852.5 349,-852.5"/>
<polygon fill="#000000" stroke="#000000" points="872.0003,-2077.422 881.9649,-2081.9999 877.0002,-2077.461 882,-2077.5 882,-2077.5 882,-2077.5 877.0002,-2077.461 882.0351,-2073.0001 872.0003,-2077.422 872.0003,-2077.422"/>
<text text-anchor="start" x="598.6545" y="-2087.5" font-family="Arial" font-size="10.00" fill="#000000">FOREIGN KEY (type) REFERENCES config.carousel_type(id)</text>
</g>
<!-- actor.org_unit -->
<g id="node4" class="node">
<title>actor.org_unit</title>
<polygon fill="#efefef" stroke="transparent" points="454,-972.5 454,-1007.5 705,-1007.5 705,-972.5 454,-972.5"/>
<polygon fill="none" stroke="#000000" points="454,-972.5 454,-1007.5 705,-1007.5 705,-972.5 454,-972.5"/>
<text text-anchor="start" x="460.7017" y="-985.3" font-family="Arial Bold" font-size="18.00" fill="#000000">actor.org_unit</text>
<text text-anchor="start" x="570.7303" y="-985.3" font-family="Arial" font-size="14.00" fill="#000000">    </text>
<text text-anchor="start" x="604.9351" y="-985.3" font-family="Arial" font-size="14.00" fill="#666666">[BASE TABLE]</text>
<polygon fill="none" stroke="#000000" points="454,-942.5 454,-972.5 705,-972.5 705,-942.5 454,-942.5"/>
<text text-anchor="start" x="461" y="-953.9" font-family="Arial" font-size="14.00" fill="#000000">id    </text>
<text text-anchor="start" x="506.094" y="-953.9" font-family="Arial" font-size="14.00" fill="#666666">[integer]</text>
<polygon fill="none" stroke="#000000" points="454,-912.5 454,-942.5 705,-942.5 705,-912.5 454,-912.5"/>
<text text-anchor="start" x="461" y="-923.9" font-family="Arial" font-size="14.00" fill="#000000">parent_ou    </text>
<text text-anchor="start" x="558.2342" y="-923.9" font-family="Arial" font-size="14.00" fill="#666666">[integer]</text>
<polygon fill="none" stroke="#000000" points="454,-882.5 454,-912.5 705,-912.5 705,-882.5 454,-882.5"/>
<text text-anchor="start" x="461" y="-893.9" font-family="Arial" font-size="14.00" fill="#000000">ou_type    </text>
<text text-anchor="start" x="545.0084" y="-893.9" font-family="Arial" font-size="14.00" fill="#666666">[integer]</text>
<polygon fill="none" stroke="#000000" points="454,-852.5 454,-882.5 705,-882.5 705,-852.5 454,-852.5"/>
<text text-anchor="start" x="461" y="-863.9" font-family="Arial" font-size="14.00" fill="#000000">ill_address    </text>
<text text-anchor="start" x="562.0982" y="-863.9" font-family="Arial" font-size="14.00" fill="#666666">[integer]</text>
<polygon fill="none" stroke="#000000" points="454,-822.5 454,-852.5 705,-852.5 705,-822.5 454,-822.5"/>
<text text-anchor="start" x="461" y="-833.9" font-family="Arial" font-size="14.00" fill="#000000">holds_address    </text>
<text text-anchor="start" x="586.2328" y="-833.9" font-family="Arial" font-size="14.00" fill="#666666">[integer]</text>
<polygon fill="none" stroke="#000000" points="454,-792.5 454,-822.5 705,-822.5 705,-792.5 454,-792.5"/>
<text text-anchor="start" x="461" y="-803.9" font-family="Arial" font-size="14.00" fill="#000000">mailing_address    </text>
<text text-anchor="start" x="597.1066" y="-803.9" font-family="Arial" font-size="14.00" fill="#666666">[integer]</text>
<polygon fill="none" stroke="#000000" points="454,-762.5 454,-792.5 705,-792.5 705,-762.5 454,-762.5"/>
<text text-anchor="start" x="461" y="-773.9" font-family="Arial" font-size="14.00" fill="#000000">billing_address    </text>
<text text-anchor="start" x="588.5526" y="-773.9" font-family="Arial" font-size="14.00" fill="#666666">[integer]</text>
<polygon fill="none" stroke="#000000" points="454,-732.5 454,-762.5 705,-762.5 705,-732.5 454,-732.5"/>
<text text-anchor="start" x="461" y="-743.9" font-family="Arial" font-size="14.00" fill="#000000">shortname    </text>
<text text-anchor="start" x="561.3296" y="-743.9" font-family="Arial" font-size="14.00" fill="#666666">[text]</text>
<polygon fill="none" stroke="#000000" points="454,-702.5 454,-732.5 705,-732.5 705,-702.5 454,-702.5"/>
<text text-anchor="start" x="461" y="-713.9" font-family="Arial" font-size="14.00" fill="#000000">name    </text>
<text text-anchor="start" x="530.2132" y="-713.9" font-family="Arial" font-size="14.00" fill="#666666">[text]</text>
<polygon fill="none" stroke="#000000" points="454,-672.5 454,-702.5 705,-702.5 705,-672.5 454,-672.5"/>
<text text-anchor="start" x="461" y="-683.9" font-family="Arial" font-size="14.00" fill="#000000">email    </text>
<text text-anchor="start" x="528.6438" y="-683.9" font-family="Arial" font-size="14.00" fill="#666666">[text]</text>
<polygon fill="none" stroke="#000000" points="454,-642.5 454,-672.5 705,-672.5 705,-642.5 454,-642.5"/>
<text text-anchor="start" x="461" y="-653.9" font-family="Arial" font-size="14.00" fill="#000000">phone    </text>
<text text-anchor="start" x="534.1178" y="-653.9" font-family="Arial" font-size="14.00" fill="#666666">[text]</text>
<polygon fill="none" stroke="#000000" points="454,-612.5 454,-642.5 705,-642.5 705,-612.5 454,-612.5"/>
<text text-anchor="start" x="461" y="-623.9" font-family="Arial" font-size="14.00" fill="#000000">opac_visible    </text>
<text text-anchor="start" x="572.2202" y="-623.9" font-family="Arial" font-size="14.00" fill="#666666">[boolean]</text>
<polygon fill="none" stroke="#000000" points="454,-582.5 454,-612.5 705,-612.5 705,-582.5 454,-582.5"/>
<text text-anchor="start" x="461" y="-593.9" font-family="Arial" font-size="14.00" fill="#000000">fiscal_calendar    </text>
<text text-anchor="start" x="588.554" y="-593.9" font-family="Arial" font-size="14.00" fill="#666666">[integer]</text>
</g>
<!-- container.carousel&#45;&gt;actor.org_unit -->
<g id="edge3" class="edge">
<title>container.carousel:owner&#45;&gt;actor.org_unit:id</title>
<path fill="none" stroke="#000000" d="M871.7957,-2047.2952C675.6461,-2039.2328 792.9325,-1794.7207 757,-1591 744.7323,-1521.448 775.6256,-957.5 705,-957.5"/>
<polygon fill="#000000" stroke="#000000" points="872.002,-2047.2992 881.9096,-2051.9991 877.001,-2047.3996 882,-2047.5 882,-2047.5 882,-2047.5 877.001,-2047.3996 882.0904,-2043.0009 872.002,-2047.2992 872.002,-2047.2992"/>
<text text-anchor="start" x="620.774" y="-2057.5" font-family="Arial" font-size="10.00" fill="#000000">FOREIGN KEY (owner) REFERENCES actor.org_unit(id)</text>
</g>
<!-- container.biblio_record_entry_bucket -->
<g id="node5" class="node">
<title>container.biblio_record_entry_bucket</title>
<polygon fill="#efefef" stroke="transparent" points="809,-897.5 809,-932.5 1245,-932.5 1245,-897.5 809,-897.5"/>
<polygon fill="none" stroke="#000000" points="809,-897.5 809,-932.5 1245,-932.5 1245,-897.5 809,-897.5"/>
<text text-anchor="start" x="815.6799" y="-910.3" font-family="Arial Bold" font-size="18.00" fill="#000000">container.biblio_record_entry_bucket</text>
<text text-anchor="start" x="1110.7521" y="-910.3" font-family="Arial" font-size="14.00" fill="#000000">    </text>
<text text-anchor="start" x="1144.9569" y="-910.3" font-family="Arial" font-size="14.00" fill="#666666">[BASE TABLE]</text>
<polygon fill="none" stroke="#000000" points="809,-867.5 809,-897.5 1245,-897.5 1245,-867.5 809,-867.5"/>
<text text-anchor="start" x="816" y="-878.9" font-family="Arial" font-size="14.00" fill="#000000">id    </text>
<text text-anchor="start" x="861.094" y="-878.9" font-family="Arial" font-size="14.00" fill="#666666">[integer]</text>
<polygon fill="none" stroke="#000000" points="809,-837.5 809,-867.5 1245,-867.5 1245,-837.5 809,-837.5"/>
<text text-anchor="start" x="816" y="-848.9" font-family="Arial" font-size="14.00" fill="#000000">owner    </text>
<text text-anchor="start" x="888.3198" y="-848.9" font-family="Arial" font-size="14.00" fill="#666666">[integer]</text>
<polygon fill="none" stroke="#000000" points="809,-807.5 809,-837.5 1245,-837.5 1245,-807.5 809,-807.5"/>
<text text-anchor="start" x="816" y="-818.9" font-family="Arial" font-size="14.00" fill="#000000">name    </text>
<text text-anchor="start" x="885.2132" y="-818.9" font-family="Arial" font-size="14.00" fill="#666666">[text]</text>
<polygon fill="none" stroke="#000000" points="809,-777.5 809,-807.5 1245,-807.5 1245,-777.5 809,-777.5"/>
<text text-anchor="start" x="816" y="-788.9" font-family="Arial" font-size="14.00" fill="#000000">btype    </text>
<text text-anchor="start" x="884.4432" y="-788.9" font-family="Arial" font-size="14.00" fill="#666666">[text]</text>
<polygon fill="none" stroke="#000000" points="809,-747.5 809,-777.5 1245,-777.5 1245,-747.5 809,-747.5"/>
<text text-anchor="start" x="816" y="-758.9" font-family="Arial" font-size="14.00" fill="#000000">description    </text>
<text text-anchor="start" x="917.8822" y="-758.9" font-family="Arial" font-size="14.00" fill="#666666">[text]</text>
<polygon fill="none" stroke="#000000" points="809,-717.5 809,-747.5 1245,-747.5 1245,-717.5 809,-717.5"/>
<text text-anchor="start" x="816" y="-728.9" font-family="Arial" font-size="14.00" fill="#000000">pub    </text>
<text text-anchor="start" x="873.5526" y="-728.9" font-family="Arial" font-size="14.00" fill="#666666">[boolean]</text>
<polygon fill="none" stroke="#000000" points="809,-687.5 809,-717.5 1245,-717.5 1245,-687.5 809,-687.5"/>
<text text-anchor="start" x="816" y="-698.9" font-family="Arial" font-size="14.00" fill="#000000">owning_lib    </text>
<text text-anchor="start" x="916.3268" y="-698.9" font-family="Arial" font-size="14.00" fill="#666666">[integer]</text>
<polygon fill="none" stroke="#000000" points="809,-657.5 809,-687.5 1245,-687.5 1245,-657.5 809,-657.5"/>
<text text-anchor="start" x="816" y="-668.9" font-family="Arial" font-size="14.00" fill="#000000">create_time    </text>
<text text-anchor="start" x="923.3268" y="-668.9" font-family="Arial" font-size="14.00" fill="#666666">[timestamp with time zone]</text>
</g>
<!-- container.carousel&#45;&gt;container.biblio_record_entry_bucket -->
<g id="edge4" class="edge">
<title>container.carousel:bucket&#45;&gt;container.biblio_record_entry_bucket:id</title>
<path fill="none" stroke="#000000" d="M1180.165,-1981.2857C1239.6789,-1892.5148 1303.8191,-882.5 1245,-882.5"/>
<polygon fill="#000000" stroke="#000000" points="1179.9574,-1981.4436 1169.2746,-1983.9191 1175.9787,-1984.4718 1172,-1987.5 1172,-1987.5 1172,-1987.5 1175.9787,-1984.4718 1174.7254,-1991.0809 1179.9574,-1981.4436 1179.9574,-1981.4436"/>
<text text-anchor="start" x="1179.2575" y="-1997.5" font-family="Arial" font-size="10.00" fill="#000000">FOREIGN KEY (bucket) REFERENCES container.biblio_record_entry_bucket(id)</text>
</g>
<!-- actor.usr -->
<g id="node6" class="node">
<title>actor.usr</title>
<polygon fill="#efefef" stroke="transparent" points="1349,-1512.5 1349,-1547.5 1669,-1547.5 1669,-1512.5 1349,-1512.5"/>
<polygon fill="none" stroke="#000000" points="1349,-1512.5 1349,-1547.5 1669,-1547.5 1669,-1512.5 1349,-1512.5"/>
<text text-anchor="start" x="1410.2123" y="-1525.3" font-family="Arial Bold" font-size="18.00" fill="#000000">actor.usr</text>
<text text-anchor="start" x="1480.2197" y="-1525.3" font-family="Arial" font-size="14.00" fill="#000000">    </text>
<text text-anchor="start" x="1514.4245" y="-1525.3" font-family="Arial" font-size="14.00" fill="#666666">[BASE TABLE]</text>
<polygon fill="none" stroke="#000000" points="1349,-1482.5 1349,-1512.5 1669,-1512.5 1669,-1482.5 1349,-1482.5"/>
<text text-anchor="start" x="1356" y="-1493.9" font-family="Arial" font-size="14.00" fill="#000000">id    </text>
<text text-anchor="start" x="1401.094" y="-1493.9" font-family="Arial" font-size="14.00" fill="#666666">[integer]</text>
<polygon fill="none" stroke="#000000" points="1349,-1452.5 1349,-1482.5 1669,-1482.5 1669,-1452.5 1349,-1452.5"/>
<text text-anchor="start" x="1356" y="-1463.9" font-family="Arial" font-size="14.00" fill="#000000">card    </text>
<text text-anchor="start" x="1417.4306" y="-1463.9" font-family="Arial" font-size="14.00" fill="#666666">[integer]</text>
<polygon fill="none" stroke="#000000" points="1349,-1422.5 1349,-1452.5 1669,-1452.5 1669,-1422.5 1349,-1422.5"/>
<text text-anchor="start" x="1356" y="-1433.9" font-family="Arial" font-size="14.00" fill="#000000">profile    </text>
<text text-anchor="start" x="1428.317" y="-1433.9" font-family="Arial" font-size="14.00" fill="#666666">[integer]</text>
<polygon fill="none" stroke="#000000" points="1349,-1392.5 1349,-1422.5 1669,-1422.5 1669,-1392.5 1349,-1392.5"/>
<text text-anchor="start" x="1356" y="-1403.9" font-family="Arial" font-size="14.00" fill="#000000">usrname    </text>
<text text-anchor="start" x="1444.6564" y="-1403.9" font-family="Arial" font-size="14.00" fill="#666666">[text]</text>
<polygon fill="none" stroke="#000000" points="1349,-1362.5 1349,-1392.5 1669,-1392.5 1669,-1362.5 1349,-1362.5"/>
<text text-anchor="start" x="1356" y="-1373.9" font-family="Arial" font-size="14.00" fill="#000000">email    </text>
<text text-anchor="start" x="1423.6438" y="-1373.9" font-family="Arial" font-size="14.00" fill="#666666">[text]</text>
<polygon fill="none" stroke="#000000" points="1349,-1332.5 1349,-1362.5 1669,-1362.5 1669,-1332.5 1349,-1332.5"/>
<text text-anchor="start" x="1356" y="-1343.9" font-family="Arial" font-size="14.00" fill="#000000">passwd    </text>
<text text-anchor="start" x="1437.6592" y="-1343.9" font-family="Arial" font-size="14.00" fill="#666666">[text]</text>
<polygon fill="none" stroke="#000000" points="1349,-1302.5 1349,-1332.5 1669,-1332.5 1669,-1302.5 1349,-1302.5"/>
<text text-anchor="start" x="1356" y="-1313.9" font-family="Arial" font-size="14.00" fill="#000000">standing    </text>
<text text-anchor="start" x="1443.115" y="-1313.9" font-family="Arial" font-size="14.00" fill="#666666">[integer]</text>
<polygon fill="none" stroke="#000000" points="1349,-1272.5 1349,-1302.5 1669,-1302.5 1669,-1272.5 1349,-1272.5"/>
<text text-anchor="start" x="1356" y="-1283.9" font-family="Arial" font-size="14.00" fill="#000000">ident_type    </text>
<text text-anchor="start" x="1454.7882" y="-1283.9" font-family="Arial" font-size="14.00" fill="#666666">[integer]</text>
<polygon fill="none" stroke="#000000" points="1349,-1242.5 1349,-1272.5 1669,-1272.5 1669,-1242.5 1349,-1242.5"/>
<text text-anchor="start" x="1356" y="-1253.9" font-family="Arial" font-size="14.00" fill="#000000">ident_value    </text>
<text text-anchor="start" x="1461.7868" y="-1253.9" font-family="Arial" font-size="14.00" fill="#666666">[text]</text>
<polygon fill="none" stroke="#000000" points="1349,-1212.5 1349,-1242.5 1669,-1242.5 1669,-1212.5 1349,-1212.5"/>
<text text-anchor="start" x="1356" y="-1223.9" font-family="Arial" font-size="14.00" fill="#000000">ident_type2    </text>
<text text-anchor="start" x="1462.5708" y="-1223.9" font-family="Arial" font-size="14.00" fill="#666666">[integer]</text>
<polygon fill="none" stroke="#000000" points="1349,-1182.5 1349,-1212.5 1669,-1212.5 1669,-1182.5 1349,-1182.5"/>
<text text-anchor="start" x="1356" y="-1193.9" font-family="Arial" font-size="14.00" fill="#000000">ident_value2    </text>
<text text-anchor="start" x="1469.5694" y="-1193.9" font-family="Arial" font-size="14.00" fill="#666666">[text]</text>
<polygon fill="none" stroke="#000000" points="1349,-1152.5 1349,-1182.5 1669,-1182.5 1669,-1152.5 1349,-1152.5"/>
<text text-anchor="start" x="1356" y="-1163.9" font-family="Arial" font-size="14.00" fill="#000000">net_access_level    </text>
<text text-anchor="start" x="1497.5694" y="-1163.9" font-family="Arial" font-size="14.00" fill="#666666">[integer]</text>
<polygon fill="none" stroke="#000000" points="1349,-1122.5 1349,-1152.5 1669,-1152.5 1669,-1122.5 1349,-1122.5"/>
<text text-anchor="start" x="1356" y="-1133.9" font-family="Arial" font-size="14.00" fill="#000000">photo_url    </text>
<text text-anchor="start" x="1448.5582" y="-1133.9" font-family="Arial" font-size="14.00" fill="#666666">[text]</text>
<polygon fill="none" stroke="#000000" points="1349,-1092.5 1349,-1122.5 1669,-1122.5 1669,-1092.5 1349,-1092.5"/>
<text text-anchor="start" x="1356" y="-1103.9" font-family="Arial" font-size="14.00" fill="#000000">prefix    </text>
<text text-anchor="start" x="1424.4278" y="-1103.9" font-family="Arial" font-size="14.00" fill="#666666">[text]</text>
<polygon fill="none" stroke="#000000" points="1349,-1062.5 1349,-1092.5 1669,-1092.5 1669,-1062.5 1349,-1062.5"/>
<text text-anchor="start" x="1356" y="-1073.9" font-family="Arial" font-size="14.00" fill="#000000">first_given_name    </text>
<text text-anchor="start" x="1496.7812" y="-1073.9" font-family="Arial" font-size="14.00" fill="#666666">[text]</text>
<polygon fill="none" stroke="#000000" points="1349,-1032.5 1349,-1062.5 1669,-1062.5 1669,-1032.5 1349,-1032.5"/>
<text text-anchor="start" x="1356" y="-1043.9" font-family="Arial" font-size="14.00" fill="#000000">second_given_name    </text>
<text text-anchor="start" x="1519.3632" y="-1043.9" font-family="Arial" font-size="14.00" fill="#666666">[text]</text>
<polygon fill="none" stroke="#000000" points="1349,-1002.5 1349,-1032.5 1669,-1032.5 1669,-1002.5 1349,-1002.5"/>
<text text-anchor="start" x="1356" y="-1013.9" font-family="Arial" font-size="14.00" fill="#000000">family_name    </text>
<text text-anchor="start" x="1469.5428" y="-1013.9" font-family="Arial" font-size="14.00" fill="#666666">[text]</text>
<polygon fill="none" stroke="#000000" points="1349,-972.5 1349,-1002.5 1669,-1002.5 1669,-972.5 1349,-972.5"/>
<text text-anchor="start" x="1356" y="-983.9" font-family="Arial" font-size="14.00" fill="#000000">suffix    </text>
<text text-anchor="start" x="1422.8752" y="-983.9" font-family="Arial" font-size="14.00" fill="#666666">[text]</text>
<polygon fill="none" stroke="#000000" points="1349,-942.5 1349,-972.5 1669,-972.5 1669,-942.5 1349,-942.5"/>
<text text-anchor="start" x="1356" y="-953.9" font-family="Arial" font-size="14.00" fill="#000000">alias    </text>
<text text-anchor="start" x="1418.9832" y="-953.9" font-family="Arial" font-size="14.00" fill="#666666">[text]</text>
<polygon fill="none" stroke="#000000" points="1349,-912.5 1349,-942.5 1669,-942.5 1669,-912.5 1349,-912.5"/>
<text text-anchor="start" x="1356" y="-923.9" font-family="Arial" font-size="14.00" fill="#000000">day_phone    </text>
<text text-anchor="start" x="1459.4656" y="-923.9" font-family="Arial" font-size="14.00" fill="#666666">[text]</text>
<polygon fill="none" stroke="#000000" points="1349,-882.5 1349,-912.5 1669,-912.5 1669,-882.5 1349,-882.5"/>
<text text-anchor="start" x="1356" y="-893.9" font-family="Arial" font-size="14.00" fill="#000000">evening_phone    </text>
<text text-anchor="start" x="1485.92" y="-893.9" font-family="Arial" font-size="14.00" fill="#666666">[text]</text>
<polygon fill="none" stroke="#000000" points="1349,-852.5 1349,-882.5 1669,-882.5 1669,-852.5 1349,-852.5"/>
<text text-anchor="start" x="1356" y="-863.9" font-family="Arial" font-size="14.00" fill="#000000">other_phone    </text>
<text text-anchor="start" x="1468.7994" y="-863.9" font-family="Arial" font-size="14.00" fill="#666666">[text]</text>
<polygon fill="none" stroke="#000000" points="1349,-822.5 1349,-852.5 1669,-852.5 1669,-822.5 1349,-822.5"/>
<text text-anchor="start" x="1356" y="-833.9" font-family="Arial" font-size="14.00" fill="#000000">mailing_address    </text>
<text text-anchor="start" x="1492.1066" y="-833.9" font-family="Arial" font-size="14.00" fill="#666666">[integer]</text>
<polygon fill="none" stroke="#000000" points="1349,-792.5 1349,-822.5 1669,-822.5 1669,-792.5 1349,-792.5"/>
<text text-anchor="start" x="1356" y="-803.9" font-family="Arial" font-size="14.00" fill="#000000">billing_address    </text>
<text text-anchor="start" x="1483.5526" y="-803.9" font-family="Arial" font-size="14.00" fill="#666666">[integer]</text>
<polygon fill="none" stroke="#000000" points="1349,-762.5 1349,-792.5 1669,-792.5 1669,-762.5 1349,-762.5"/>
<text text-anchor="start" x="1356" y="-773.9" font-family="Arial" font-size="14.00" fill="#000000">home_ou    </text>
<text text-anchor="start" x="1448.561" y="-773.9" font-family="Arial" font-size="14.00" fill="#666666">[integer]</text>
<polygon fill="none" stroke="#000000" points="1349,-732.5 1349,-762.5 1669,-762.5 1669,-732.5 1349,-732.5"/>
<text text-anchor="start" x="1356" y="-743.9" font-family="Arial" font-size="14.00" fill="#000000">dob    </text>
<text text-anchor="start" x="1413.5526" y="-743.9" font-family="Arial" font-size="14.00" fill="#666666">[date]</text>
<polygon fill="none" stroke="#000000" points="1349,-702.5 1349,-732.5 1669,-732.5 1669,-702.5 1349,-702.5"/>
<text text-anchor="start" x="1356" y="-713.9" font-family="Arial" font-size="14.00" fill="#000000">active    </text>
<text text-anchor="start" x="1426.7672" y="-713.9" font-family="Arial" font-size="14.00" fill="#666666">[boolean]</text>
<polygon fill="none" stroke="#000000" points="1349,-672.5 1349,-702.5 1669,-702.5 1669,-672.5 1349,-672.5"/>
<text text-anchor="start" x="1356" y="-683.9" font-family="Arial" font-size="14.00" fill="#000000">master_account    </text>
<text text-anchor="start" x="1489.7854" y="-683.9" font-family="Arial" font-size="14.00" fill="#666666">[boolean]</text>
<polygon fill="none" stroke="#000000" points="1349,-642.5 1349,-672.5 1669,-672.5 1669,-642.5 1349,-642.5"/>
<text text-anchor="start" x="1356" y="-653.9" font-family="Arial" font-size="14.00" fill="#000000">super_user    </text>
<text text-anchor="start" x="1460.2216" y="-653.9" font-family="Arial" font-size="14.00" fill="#666666">[boolean]</text>
<polygon fill="none" stroke="#000000" points="1349,-612.5 1349,-642.5 1669,-642.5 1669,-612.5 1349,-612.5"/>
<text text-anchor="start" x="1356" y="-623.9" font-family="Arial" font-size="14.00" fill="#000000">barred    </text>
<text text-anchor="start" x="1430.6564" y="-623.9" font-family="Arial" font-size="14.00" fill="#666666">[boolean]</text>
<polygon fill="none" stroke="#000000" points="1349,-582.5 1349,-612.5 1669,-612.5 1669,-582.5 1349,-582.5"/>
<text text-anchor="start" x="1356" y="-593.9" font-family="Arial" font-size="14.00" fill="#000000">deleted    </text>
<text text-anchor="start" x="1436.115" y="-593.9" font-family="Arial" font-size="14.00" fill="#666666">[boolean]</text>
<polygon fill="none" stroke="#000000" points="1349,-552.5 1349,-582.5 1669,-582.5 1669,-552.5 1349,-552.5"/>
<text text-anchor="start" x="1356" y="-563.9" font-family="Arial" font-size="14.00" fill="#000000">juvenile    </text>
<text text-anchor="start" x="1437.655" y="-563.9" font-family="Arial" font-size="14.00" fill="#666666">[boolean]</text>
<polygon fill="none" stroke="#000000" points="1349,-522.5 1349,-552.5 1669,-552.5 1669,-522.5 1349,-522.5"/>
<text text-anchor="start" x="1356" y="-533.9" font-family="Arial" font-size="14.00" fill="#000000">usrgroup    </text>
<text text-anchor="start" x="1445.439" y="-533.9" font-family="Arial" font-size="14.00" fill="#666666">[integer]</text>
<polygon fill="none" stroke="#000000" points="1349,-492.5 1349,-522.5 1669,-522.5 1669,-492.5 1349,-492.5"/>
<text text-anchor="start" x="1356" y="-503.9" font-family="Arial" font-size="14.00" fill="#000000">claims_returned_count    </text>
<text text-anchor="start" x="1531.7896" y="-503.9" font-family="Arial" font-size="14.00" fill="#666666">[integer]</text>
<polygon fill="none" stroke="#000000" points="1349,-462.5 1349,-492.5 1669,-492.5 1669,-462.5 1349,-462.5"/>
<text text-anchor="start" x="1356" y="-473.9" font-family="Arial" font-size="14.00" fill="#000000">credit_forward_balance    </text>
<text text-anchor="start" x="1535.6788" y="-473.9" font-family="Arial" font-size="14.00" fill="#666666">[numeric(6,2)]</text>
<polygon fill="none" stroke="#000000" points="1349,-432.5 1349,-462.5 1669,-462.5 1669,-432.5 1349,-432.5"/>
<text text-anchor="start" x="1356" y="-443.9" font-family="Arial" font-size="14.00" fill="#000000">last_xact_id    </text>
<text text-anchor="start" x="1464.1122" y="-443.9" font-family="Arial" font-size="14.00" fill="#666666">[text]</text>
<polygon fill="none" stroke="#000000" points="1349,-402.5 1349,-432.5 1669,-432.5 1669,-402.5 1349,-402.5"/>
<text text-anchor="start" x="1356" y="-413.9" font-family="Arial" font-size="14.00" fill="#000000">alert_message    </text>
<text text-anchor="start" x="1482.0014" y="-413.9" font-family="Arial" font-size="14.00" fill="#666666">[text]</text>
<polygon fill="none" stroke="#000000" points="1349,-372.5 1349,-402.5 1669,-402.5 1669,-372.5 1349,-372.5"/>
<text text-anchor="start" x="1356" y="-383.9" font-family="Arial" font-size="14.00" fill="#000000">create_date    </text>
<text text-anchor="start" x="1464.1248" y="-383.9" font-family="Arial" font-size="14.00" fill="#666666">[timestamp with time zone]</text>
<polygon fill="none" stroke="#000000" points="1349,-342.5 1349,-372.5 1669,-372.5 1669,-342.5 1349,-342.5"/>
<text text-anchor="start" x="1356" y="-353.9" font-family="Arial" font-size="14.00" fill="#000000">expire_date    </text>
<text text-anchor="start" x="1463.3408" y="-353.9" font-family="Arial" font-size="14.00" fill="#666666">[timestamp with time zone]</text>
<polygon fill="none" stroke="#000000" points="1349,-312.5 1349,-342.5 1669,-342.5 1669,-312.5 1349,-312.5"/>
<text text-anchor="start" x="1356" y="-323.9" font-family="Arial" font-size="14.00" fill="#000000">claims_never_checked_out_count    </text>
<text text-anchor="start" x="1601.8246" y="-323.9" font-family="Arial" font-size="14.00" fill="#666666">[integer]</text>
<polygon fill="none" stroke="#000000" points="1349,-282.5 1349,-312.5 1669,-312.5 1669,-282.5 1349,-282.5"/>
<text text-anchor="start" x="1355.7609" y="-293.9" font-family="Arial" font-size="14.00" fill="#000000">last_update_time    </text>
<text text-anchor="start" x="1496.5547" y="-293.9" font-family="Arial" font-size="14.00" fill="#666666">[timestamp with time zone]</text>
<polygon fill="none" stroke="#000000" points="1349,-252.5 1349,-282.5 1669,-282.5 1669,-252.5 1349,-252.5"/>
<text text-anchor="start" x="1356" y="-263.9" font-family="Arial" font-size="14.00" fill="#000000">pref_prefix    </text>
<text text-anchor="start" x="1456.3268" y="-263.9" font-family="Arial" font-size="14.00" fill="#666666">[text]</text>
<polygon fill="none" stroke="#000000" points="1349,-222.5 1349,-252.5 1669,-252.5 1669,-222.5 1349,-222.5"/>
<text text-anchor="start" x="1356" y="-233.9" font-family="Arial" font-size="14.00" fill="#000000">pref_first_given_name    </text>
<text text-anchor="start" x="1528.6802" y="-233.9" font-family="Arial" font-size="14.00" fill="#666666">[text]</text>
<polygon fill="none" stroke="#000000" points="1349,-192.5 1349,-222.5 1669,-222.5 1669,-192.5 1349,-192.5"/>
<text text-anchor="start" x="1356" y="-203.9" font-family="Arial" font-size="14.00" fill="#000000">pref_second_given_name    </text>
<text text-anchor="start" x="1551.2622" y="-203.9" font-family="Arial" font-size="14.00" fill="#666666">[text]</text>
<polygon fill="none" stroke="#000000" points="1349,-162.5 1349,-192.5 1669,-192.5 1669,-162.5 1349,-162.5"/>
<text text-anchor="start" x="1356" y="-173.9" font-family="Arial" font-size="14.00" fill="#000000">pref_family_name    </text>
<text text-anchor="start" x="1501.4418" y="-173.9" font-family="Arial" font-size="14.00" fill="#666666">[text]</text>
<polygon fill="none" stroke="#000000" points="1349,-132.5 1349,-162.5 1669,-162.5 1669,-132.5 1349,-132.5"/>
<text text-anchor="start" x="1356" y="-143.9" font-family="Arial" font-size="14.00" fill="#000000">pref_suffix    </text>
<text text-anchor="start" x="1454.7742" y="-143.9" font-family="Arial" font-size="14.00" fill="#666666">[text]</text>
<polygon fill="none" stroke="#000000" points="1349,-102.5 1349,-132.5 1669,-132.5 1669,-102.5 1349,-102.5"/>
<text text-anchor="start" x="1356" y="-113.9" font-family="Arial" font-size="14.00" fill="#000000">name_keywords    </text>
<text text-anchor="start" x="1492.1108" y="-113.9" font-family="Arial" font-size="14.00" fill="#666666">[text]</text>
<polygon fill="none" stroke="#000000" points="1349,-72.5 1349,-102.5 1669,-102.5 1669,-72.5 1349,-72.5"/>
<text text-anchor="start" x="1356" y="-83.9" font-family="Arial" font-size="14.00" fill="#000000">name_kw_tsvector    </text>
<text text-anchor="start" x="1506.892" y="-83.9" font-family="Arial" font-size="14.00" fill="#666666">[tsvector]</text>
<polygon fill="none" stroke="#000000" points="1349,-42.5 1349,-72.5 1669,-72.5 1669,-42.5 1349,-42.5"/>
<text text-anchor="start" x="1356" y="-53.9" font-family="Arial" font-size="14.00" fill="#000000">guardian    </text>
<text text-anchor="start" x="1444.6676" y="-53.9" font-family="Arial" font-size="14.00" fill="#666666">[text]</text>
</g>
<!-- container.carousel&#45;&gt;actor.usr -->
<g id="edge5" class="edge">
<title>container.carousel:creator&#45;&gt;actor.usr:id</title>
<path fill="none" stroke="#000000" d="M1181.4233,-1953.2399C1234.3667,-1906.8664 1297.3376,-1497.5 1349,-1497.5"/>
<polygon fill="#000000" stroke="#000000" points="1181.1121,-1953.3806 1170.1462,-1953.3995 1176.5561,-1955.4403 1172,-1957.5 1172,-1957.5 1172,-1957.5 1176.5561,-1955.4403 1173.8538,-1961.6005 1181.1121,-1953.3806 1181.1121,-1953.3806"/>
<text text-anchor="start" x="1178.9465" y="-1967.5" font-family="Arial" font-size="10.00" fill="#000000">FOREIGN KEY (creator) REFERENCES actor.usr(id)</text>
</g>
<!-- container.carousel&#45;&gt;actor.usr -->
<g id="edge6" class="edge">
<title>container.carousel:editor&#45;&gt;actor.usr:id</title>
<path fill="none" stroke="#000000" d="M1181.2998,-1923.2441C1232.2243,-1878.5857 1300.3602,-1497.5 1349,-1497.5"/>
<polygon fill="#000000" stroke="#000000" points="1181.0931,-1923.3387 1170.1274,-1923.4081 1176.5465,-1925.4194 1172,-1927.5 1172,-1927.5 1172,-1927.5 1176.5465,-1925.4194 1173.8726,-1931.5919 1181.0931,-1923.3387 1181.0931,-1923.3387"/>
<text text-anchor="start" x="1179.0015" y="-1937.5" font-family="Arial" font-size="10.00" fill="#000000">FOREIGN KEY (editor) REFERENCES actor.usr(id)</text>
</g>
<!-- container.carousel_org_unit -->
<g id="node2" class="node">
<title>container.carousel_org_unit</title>
<polygon fill="#efefef" stroke="transparent" points="845,-2432.5 845,-2467.5 1208,-2467.5 1208,-2432.5 845,-2432.5"/>
<polygon fill="none" stroke="#000000" points="845,-2432.5 845,-2467.5 1208,-2467.5 1208,-2432.5 845,-2432.5"/>
<text text-anchor="start" x="851.6866" y="-2445.3" font-family="Arial Bold" font-size="18.00" fill="#000000">container.carousel_org_unit</text>
<text text-anchor="start" x="1073.7454" y="-2445.3" font-family="Arial" font-size="14.00" fill="#000000">    </text>
<text text-anchor="start" x="1107.9502" y="-2445.3" font-family="Arial" font-size="14.00" fill="#666666">[BASE TABLE]</text>
<polygon fill="none" stroke="#000000" points="845,-2402.5 845,-2432.5 1208,-2432.5 1208,-2402.5 845,-2402.5"/>
<text text-anchor="start" x="852" y="-2413.9" font-family="Arial" font-size="14.00" fill="#000000">id    </text>
<text text-anchor="start" x="897.094" y="-2413.9" font-family="Arial" font-size="14.00" fill="#666666">[integer]</text>
<polygon fill="none" stroke="#000000" points="845,-2372.5 845,-2402.5 1208,-2402.5 1208,-2372.5 845,-2372.5"/>
<text text-anchor="start" x="852" y="-2383.9" font-family="Arial" font-size="14.00" fill="#000000">carousel    </text>
<text text-anchor="start" x="939.1024" y="-2383.9" font-family="Arial" font-size="14.00" fill="#666666">[integer]</text>
<polygon fill="none" stroke="#000000" points="845,-2342.5 845,-2372.5 1208,-2372.5 1208,-2342.5 845,-2342.5"/>
<text text-anchor="start" x="852" y="-2353.9" font-family="Arial" font-size="14.00" fill="#000000">override_name    </text>
<text text-anchor="start" x="979.554" y="-2353.9" font-family="Arial" font-size="14.00" fill="#666666">[text]</text>
<polygon fill="none" stroke="#000000" points="845,-2312.5 845,-2342.5 1208,-2342.5 1208,-2312.5 845,-2312.5"/>
<text text-anchor="start" x="852" y="-2323.9" font-family="Arial" font-size="14.00" fill="#000000">org_unit    </text>
<text text-anchor="start" x="936.7756" y="-2323.9" font-family="Arial" font-size="14.00" fill="#666666">[integer]</text>
<polygon fill="none" stroke="#000000" points="845,-2282.5 845,-2312.5 1208,-2312.5 1208,-2282.5 845,-2282.5"/>
<text text-anchor="start" x="852" y="-2293.9" font-family="Arial" font-size="14.00" fill="#000000">seq    </text>
<text text-anchor="start" x="908.77" y="-2293.9" font-family="Arial" font-size="14.00" fill="#666666">[integer]</text>
</g>
<!-- container.carousel_org_unit&#45;&gt;container.carousel -->
<g id="edge1" class="edge">
<title>container.carousel_org_unit:carousel&#45;&gt;container.carousel:id</title>
<path fill="none" stroke="#000000" d="M1217.982,-2386.639C1271.1036,-2376.8573 1249.345,-2286.162 1208,-2240 1159.3733,-2185.7078 930.6267,-2258.2922 882,-2204 853.3857,-2172.0519 839.1111,-2107.5 882,-2107.5"/>
<polygon fill="#000000" stroke="#000000" points="1217.963,-2386.6406 1207.6133,-2383.0166 1212.9815,-2387.0703 1208,-2387.5 1208,-2387.5 1208,-2387.5 1212.9815,-2387.0703 1208.3867,-2391.9834 1217.963,-2386.6406 1217.963,-2386.6406"/>
<text text-anchor="start" x="1214.9345" y="-2397.5" font-family="Arial" font-size="10.00" fill="#000000">FOREIGN KEY (carousel) REFERENCES container.carousel(id) ON DELETE CASCADE</text>
</g>
</g>
</svg>
