<?xml version="1.0" encoding="UTF-8" standalone="no"?>
<!DOCTYPE svg PUBLIC "-//W3C//DTD SVG 1.1//EN"
 "http://www.w3.org/Graphics/SVG/1.1/DTD/svg11.dtd">
<!-- Generated by graphviz version 2.40.1 (20161225.0304)
 -->
<!-- Title: container.biblio_record_entry_bucket_note Pages: 1 -->
<svg width="1308pt" height="622pt"
 viewBox="0.00 0.00 1307.50 622.00" xmlns="http://www.w3.org/2000/svg" xmlns:xlink="http://www.w3.org/1999/xlink">
<g id="graph0" class="graph" transform="scale(1 1) rotate(0) translate(4 618)">
<title>container.biblio_record_entry_bucket_note</title>
<polygon fill="#ffffff" stroke="transparent" points="-4,4 -4,-618 1303.5,-618 1303.5,4 -4,4"/>
<!-- container.biblio_record_entry_bucket_note -->
<g id="node1" class="node">
<title>container.biblio_record_entry_bucket_note</title>
<polygon fill="#efefef" stroke="transparent" points="46.5,-532.5 46.5,-567.5 527.5,-567.5 527.5,-532.5 46.5,-532.5"/>
<polygon fill="none" stroke="#000000" points="46.5,-532.5 46.5,-567.5 527.5,-567.5 527.5,-532.5 46.5,-532.5"/>
<text text-anchor="start" x="53.1664" y="-545.3" font-family="Arial Bold" font-size="18.00" fill="#000000">container.biblio_record_entry_bucket_note</text>
<text text-anchor="start" x="393.2656" y="-545.3" font-family="Arial" font-size="14.00" fill="#000000">    </text>
<text text-anchor="start" x="427.4704" y="-545.3" font-family="Arial" font-size="14.00" fill="#666666">[BASE TABLE]</text>
<polygon fill="none" stroke="#000000" points="46.5,-502.5 46.5,-532.5 527.5,-532.5 527.5,-502.5 46.5,-502.5"/>
<text text-anchor="start" x="53.5" y="-513.9" font-family="Arial" font-size="14.00" fill="#000000">id </text>
<text text-anchor="start" x="68.2798" y="-513.9" font-family="Arial" font-size="14.00" fill="#666666">[integer]</text>
<polygon fill="none" stroke="#000000" points="46.5,-472.5 46.5,-502.5 527.5,-502.5 527.5,-472.5 46.5,-472.5"/>
<text text-anchor="start" x="53.5" y="-483.9" font-family="Arial" font-size="14.00" fill="#000000">bucket </text>
<text text-anchor="start" x="98.629" y="-483.9" font-family="Arial" font-size="14.00" fill="#666666">[integer]</text>
<polygon fill="none" stroke="#000000" points="46.5,-442.5 46.5,-472.5 527.5,-472.5 527.5,-442.5 46.5,-442.5"/>
<text text-anchor="start" x="53.5" y="-453.9" font-family="Arial" font-size="14.00" fill="#000000">note </text>
<text text-anchor="start" x="84.629" y="-453.9" font-family="Arial" font-size="14.00" fill="#666666">[text]</text>
<polygon fill="none" stroke="#000000" stroke-width="3" points="44.5,-441.5 44.5,-569.5 528.5,-569.5 528.5,-441.5 44.5,-441.5"/>
</g>
<!-- container.biblio_record_entry_bucket -->
<g id="node2" class="node">
<title>container.biblio_record_entry_bucket</title>
<polygon fill="#efefef" stroke="transparent" points="69.5,-282.5 69.5,-317.5 505.5,-317.5 505.5,-282.5 69.5,-282.5"/>
<polygon fill="none" stroke="#000000" points="69.5,-282.5 69.5,-317.5 505.5,-317.5 505.5,-282.5 69.5,-282.5"/>
<text text-anchor="start" x="76.1799" y="-295.3" font-family="Arial Bold" font-size="18.00" fill="#000000">container.biblio_record_entry_bucket</text>
<text text-anchor="start" x="371.2521" y="-295.3" font-family="Arial" font-size="14.00" fill="#000000">    </text>
<text text-anchor="start" x="405.4569" y="-295.3" font-family="Arial" font-size="14.00" fill="#666666">[BASE TABLE]</text>
<polygon fill="none" stroke="#000000" points="69.5,-252.5 69.5,-282.5 505.5,-282.5 505.5,-252.5 69.5,-252.5"/>
<text text-anchor="start" x="76.5" y="-263.9" font-family="Arial" font-size="14.00" fill="#000000">id    </text>
<text text-anchor="start" x="121.594" y="-263.9" font-family="Arial" font-size="14.00" fill="#666666">[integer]</text>
<polygon fill="none" stroke="#000000" points="69.5,-222.5 69.5,-252.5 505.5,-252.5 505.5,-222.5 69.5,-222.5"/>
<text text-anchor="start" x="76.5" y="-233.9" font-family="Arial" font-size="14.00" fill="#000000">owner    </text>
<text text-anchor="start" x="148.8198" y="-233.9" font-family="Arial" font-size="14.00" fill="#666666">[integer]</text>
<polygon fill="none" stroke="#000000" points="69.5,-192.5 69.5,-222.5 505.5,-222.5 505.5,-192.5 69.5,-192.5"/>
<text text-anchor="start" x="76.5" y="-203.9" font-family="Arial" font-size="14.00" fill="#000000">name    </text>
<text text-anchor="start" x="145.7132" y="-203.9" font-family="Arial" font-size="14.00" fill="#666666">[text]</text>
<polygon fill="none" stroke="#000000" points="69.5,-162.5 69.5,-192.5 505.5,-192.5 505.5,-162.5 69.5,-162.5"/>
<text text-anchor="start" x="76.5" y="-173.9" font-family="Arial" font-size="14.00" fill="#000000">btype    </text>
<text text-anchor="start" x="144.9432" y="-173.9" font-family="Arial" font-size="14.00" fill="#666666">[text]</text>
<polygon fill="none" stroke="#000000" points="69.5,-132.5 69.5,-162.5 505.5,-162.5 505.5,-132.5 69.5,-132.5"/>
<text text-anchor="start" x="76.5" y="-143.9" font-family="Arial" font-size="14.00" fill="#000000">description    </text>
<text text-anchor="start" x="178.3822" y="-143.9" font-family="Arial" font-size="14.00" fill="#666666">[text]</text>
<polygon fill="none" stroke="#000000" points="69.5,-102.5 69.5,-132.5 505.5,-132.5 505.5,-102.5 69.5,-102.5"/>
<text text-anchor="start" x="76.5" y="-113.9" font-family="Arial" font-size="14.00" fill="#000000">pub    </text>
<text text-anchor="start" x="134.0526" y="-113.9" font-family="Arial" font-size="14.00" fill="#666666">[boolean]</text>
<polygon fill="none" stroke="#000000" points="69.5,-72.5 69.5,-102.5 505.5,-102.5 505.5,-72.5 69.5,-72.5"/>
<text text-anchor="start" x="76.5" y="-83.9" font-family="Arial" font-size="14.00" fill="#000000">owning_lib    </text>
<text text-anchor="start" x="176.8268" y="-83.9" font-family="Arial" font-size="14.00" fill="#666666">[integer]</text>
<polygon fill="none" stroke="#000000" points="69.5,-42.5 69.5,-72.5 505.5,-72.5 505.5,-42.5 69.5,-42.5"/>
<text text-anchor="start" x="76.5" y="-53.9" font-family="Arial" font-size="14.00" fill="#000000">create_time    </text>
<text text-anchor="start" x="183.8268" y="-53.9" font-family="Arial" font-size="14.00" fill="#666666">[timestamp with time zone]</text>
</g>
<!-- container.biblio_record_entry_bucket_note&#45;&gt;container.biblio_record_entry_bucket -->
<g id="edge1" class="edge">
<title>container.biblio_record_entry_bucket_note:bucket&#45;&gt;container.biblio_record_entry_bucket:id</title>
<path fill="none" stroke="#000000" d="M537.4433,-485.9686C565.1737,-476.3453 552.2445,-423.7659 527.5,-397 458.1964,-322.0352 138.8036,-435.9648 69.5,-361 41.2906,-330.4862 27.9444,-267.5 69.5,-267.5"/>
<polygon fill="#000000" stroke="#000000" points="537.3835,-485.9778 526.815,-483.0524 532.4417,-486.7389 527.5,-487.5 527.5,-487.5 527.5,-487.5 532.4417,-486.7389 528.185,-491.9476 537.3835,-485.9778 537.3835,-485.9778"/>
<text text-anchor="start" x="534.3055" y="-497.5" font-family="Arial" font-size="10.00" fill="#000000">FOREIGN KEY (bucket) REFERENCES container.biblio_record_entry_bucket(id) ON UPDATE CASCADE ON DELETE CASCADE DEFERRABLE INITIALLY DEFERRED</text>
</g>
</g>
</svg>
