<?xml version="1.0" encoding="UTF-8" standalone="no"?>
<!DOCTYPE svg PUBLIC "-//W3C//DTD SVG 1.1//EN"
 "http://www.w3.org/Graphics/SVG/1.1/DTD/svg11.dtd">
<!-- Generated by graphviz version 2.40.1 (20161225.0304)
 -->
<!-- Title: container.copy_bucket_note Pages: 1 -->
<svg width="1128pt" height="622pt"
 viewBox="0.00 0.00 1128.00 622.00" xmlns="http://www.w3.org/2000/svg" xmlns:xlink="http://www.w3.org/1999/xlink">
<g id="graph0" class="graph" transform="scale(1 1) rotate(0) translate(4 618)">
<title>container.copy_bucket_note</title>
<polygon fill="#ffffff" stroke="transparent" points="-4,4 -4,-618 1124,-618 1124,4 -4,4"/>
<!-- container.copy_bucket_note -->
<g id="node1" class="node">
<title>container.copy_bucket_note</title>
<polygon fill="#efefef" stroke="transparent" points="708,-532.5 708,-567.5 1074,-567.5 1074,-532.5 708,-532.5"/>
<polygon fill="none" stroke="#000000" points="708,-532.5 708,-567.5 1074,-567.5 1074,-532.5 708,-532.5"/>
<text text-anchor="start" x="714.6719" y="-545.3" font-family="Arial Bold" font-size="18.00" fill="#000000">container.copy_bucket_note</text>
<text text-anchor="start" x="939.7601" y="-545.3" font-family="Arial" font-size="14.00" fill="#000000">    </text>
<text text-anchor="start" x="973.9649" y="-545.3" font-family="Arial" font-size="14.00" fill="#666666">[BASE TABLE]</text>
<polygon fill="none" stroke="#000000" points="708,-502.5 708,-532.5 1074,-532.5 1074,-502.5 708,-502.5"/>
<text text-anchor="start" x="715" y="-513.9" font-family="Arial" font-size="14.00" fill="#000000">id </text>
<text text-anchor="start" x="729.7798" y="-513.9" font-family="Arial" font-size="14.00" fill="#666666">[integer]</text>
<polygon fill="none" stroke="#000000" points="708,-472.5 708,-502.5 1074,-502.5 1074,-472.5 708,-472.5"/>
<text text-anchor="start" x="715" y="-483.9" font-family="Arial" font-size="14.00" fill="#000000">bucket </text>
<text text-anchor="start" x="760.129" y="-483.9" font-family="Arial" font-size="14.00" fill="#666666">[integer]</text>
<polygon fill="none" stroke="#000000" points="708,-442.5 708,-472.5 1074,-472.5 1074,-442.5 708,-442.5"/>
<text text-anchor="start" x="715" y="-453.9" font-family="Arial" font-size="14.00" fill="#000000">note </text>
<text text-anchor="start" x="746.129" y="-453.9" font-family="Arial" font-size="14.00" fill="#666666">[text]</text>
<polygon fill="none" stroke="#000000" stroke-width="3" points="706.5,-441.5 706.5,-569.5 1075.5,-569.5 1075.5,-441.5 706.5,-441.5"/>
</g>
<!-- container.copy_bucket -->
<g id="node2" class="node">
<title>container.copy_bucket</title>
<polygon fill="#efefef" stroke="transparent" points="730,-282.5 730,-317.5 1051,-317.5 1051,-282.5 730,-282.5"/>
<polygon fill="none" stroke="#000000" points="730,-282.5 730,-317.5 1051,-317.5 1051,-282.5 730,-282.5"/>
<text text-anchor="start" x="736.6854" y="-295.3" font-family="Arial Bold" font-size="18.00" fill="#000000">container.copy_bucket</text>
<text text-anchor="start" x="916.7466" y="-295.3" font-family="Arial" font-size="14.00" fill="#000000">    </text>
<text text-anchor="start" x="950.9514" y="-295.3" font-family="Arial" font-size="14.00" fill="#666666">[BASE TABLE]</text>
<polygon fill="none" stroke="#000000" points="730,-252.5 730,-282.5 1051,-282.5 1051,-252.5 730,-252.5"/>
<text text-anchor="start" x="737" y="-263.9" font-family="Arial" font-size="14.00" fill="#000000">id    </text>
<text text-anchor="start" x="782.094" y="-263.9" font-family="Arial" font-size="14.00" fill="#666666">[integer]</text>
<polygon fill="none" stroke="#000000" points="730,-222.5 730,-252.5 1051,-252.5 1051,-222.5 730,-222.5"/>
<text text-anchor="start" x="737" y="-233.9" font-family="Arial" font-size="14.00" fill="#000000">owner    </text>
<text text-anchor="start" x="809.3198" y="-233.9" font-family="Arial" font-size="14.00" fill="#666666">[integer]</text>
<polygon fill="none" stroke="#000000" points="730,-192.5 730,-222.5 1051,-222.5 1051,-192.5 730,-192.5"/>
<text text-anchor="start" x="737" y="-203.9" font-family="Arial" font-size="14.00" fill="#000000">name    </text>
<text text-anchor="start" x="806.2132" y="-203.9" font-family="Arial" font-size="14.00" fill="#666666">[text]</text>
<polygon fill="none" stroke="#000000" points="730,-162.5 730,-192.5 1051,-192.5 1051,-162.5 730,-162.5"/>
<text text-anchor="start" x="737" y="-173.9" font-family="Arial" font-size="14.00" fill="#000000">btype    </text>
<text text-anchor="start" x="805.4432" y="-173.9" font-family="Arial" font-size="14.00" fill="#666666">[text]</text>
<polygon fill="none" stroke="#000000" points="730,-132.5 730,-162.5 1051,-162.5 1051,-132.5 730,-132.5"/>
<text text-anchor="start" x="737" y="-143.9" font-family="Arial" font-size="14.00" fill="#000000">description    </text>
<text text-anchor="start" x="838.8822" y="-143.9" font-family="Arial" font-size="14.00" fill="#666666">[text]</text>
<polygon fill="none" stroke="#000000" points="730,-102.5 730,-132.5 1051,-132.5 1051,-102.5 730,-102.5"/>
<text text-anchor="start" x="737" y="-113.9" font-family="Arial" font-size="14.00" fill="#000000">pub    </text>
<text text-anchor="start" x="794.5526" y="-113.9" font-family="Arial" font-size="14.00" fill="#666666">[boolean]</text>
<polygon fill="none" stroke="#000000" points="730,-72.5 730,-102.5 1051,-102.5 1051,-72.5 730,-72.5"/>
<text text-anchor="start" x="737" y="-83.9" font-family="Arial" font-size="14.00" fill="#000000">owning_lib    </text>
<text text-anchor="start" x="837.3268" y="-83.9" font-family="Arial" font-size="14.00" fill="#666666">[integer]</text>
<polygon fill="none" stroke="#000000" points="730,-42.5 730,-72.5 1051,-72.5 1051,-42.5 730,-42.5"/>
<text text-anchor="start" x="737" y="-53.9" font-family="Arial" font-size="14.00" fill="#000000">create_time    </text>
<text text-anchor="start" x="844.3268" y="-53.9" font-family="Arial" font-size="14.00" fill="#666666">[timestamp with time zone]</text>
</g>
<!-- container.copy_bucket_note&#45;&gt;container.copy_bucket -->
<g id="edge1" class="edge">
<title>container.copy_bucket_note:bucket&#45;&gt;container.copy_bucket:id</title>
<path fill="none" stroke="#000000" d="M698.066,-485.9771C670.3923,-476.4054 683.6073,-424.0869 708,-397 759.2869,-340.0485 999.7131,-417.9515 1051,-361 1078.8084,-330.1202 1092.5556,-267.5 1051,-267.5"/>
<polygon fill="#000000" stroke="#000000" points="698.1155,-485.9846 707.3181,-491.948 703.0577,-486.7423 708,-487.5 708,-487.5 708,-487.5 703.0577,-486.7423 708.6819,-483.052 698.1155,-485.9846 698.1155,-485.9846"/>
<text text-anchor="start" x="6.753" y="-497.5" font-family="Arial" font-size="10.00" fill="#000000">FOREIGN KEY (bucket) REFERENCES container.copy_bucket(id) ON UPDATE CASCADE ON DELETE CASCADE DEFERRABLE INITIALLY DEFERRED</text>
</g>
</g>
</svg>
