<?xml version="1.0" encoding="UTF-8" standalone="no"?>
<!DOCTYPE svg PUBLIC "-//W3C//DTD SVG 1.1//EN"
 "http://www.w3.org/Graphics/SVG/1.1/DTD/svg11.dtd">
<!-- Generated by graphviz version 2.40.1 (20161225.0304)
 -->
<!-- Title: container.biblio_record_entry_bucket_type Pages: 1 -->
<svg width="1094pt" height="592pt"
 viewBox="0.00 0.00 1094.00 592.00" xmlns="http://www.w3.org/2000/svg" xmlns:xlink="http://www.w3.org/1999/xlink">
<g id="graph0" class="graph" transform="scale(1 1) rotate(0) translate(4 588)">
<title>container.biblio_record_entry_bucket_type</title>
<polygon fill="#ffffff" stroke="transparent" points="-4,4 -4,-588 1090,-588 1090,4 -4,4"/>
<!-- container.biblio_record_entry_bucket_type -->
<g id="node1" class="node">
<title>container.biblio_record_entry_bucket_type</title>
<polygon fill="#efefef" stroke="transparent" points="46,-105.5 46,-140.5 526,-140.5 526,-105.5 46,-105.5"/>
<polygon fill="none" stroke="#000000" points="46,-105.5 46,-140.5 526,-140.5 526,-105.5 46,-105.5"/>
<text text-anchor="start" x="52.6695" y="-118.3" font-family="Arial Bold" font-size="18.00" fill="#000000">container.biblio_record_entry_bucket_type</text>
<text text-anchor="start" x="391.7625" y="-118.3" font-family="Arial" font-size="14.00" fill="#000000">    </text>
<text text-anchor="start" x="425.9673" y="-118.3" font-family="Arial" font-size="14.00" fill="#666666">[BASE TABLE]</text>
<polygon fill="none" stroke="#000000" points="46,-75.5 46,-105.5 526,-105.5 526,-75.5 46,-75.5"/>
<text text-anchor="start" x="53" y="-86.9" font-family="Arial" font-size="14.00" fill="#000000">code </text>
<text text-anchor="start" x="87.2384" y="-86.9" font-family="Arial" font-size="14.00" fill="#666666">[text]</text>
<polygon fill="none" stroke="#000000" points="46,-45.5 46,-75.5 526,-75.5 526,-45.5 46,-45.5"/>
<text text-anchor="start" x="53" y="-56.9" font-family="Arial" font-size="14.00" fill="#000000">label </text>
<text text-anchor="start" x="86.4516" y="-56.9" font-family="Arial" font-size="14.00" fill="#666666">[text]</text>
<polygon fill="none" stroke="#000000" stroke-width="3" points="44.5,-44.5 44.5,-142.5 527.5,-142.5 527.5,-44.5 44.5,-44.5"/>
</g>
<!-- container.biblio_record_entry_bucket -->
<g id="node2" class="node">
<title>container.biblio_record_entry_bucket</title>
<polygon fill="#efefef" stroke="transparent" points="68,-505.5 68,-540.5 504,-540.5 504,-505.5 68,-505.5"/>
<polygon fill="none" stroke="#000000" points="68,-505.5 68,-540.5 504,-540.5 504,-505.5 68,-505.5"/>
<text text-anchor="start" x="74.6799" y="-518.3" font-family="Arial Bold" font-size="18.00" fill="#000000">container.biblio_record_entry_bucket</text>
<text text-anchor="start" x="369.7521" y="-518.3" font-family="Arial" font-size="14.00" fill="#000000">    </text>
<text text-anchor="start" x="403.9569" y="-518.3" font-family="Arial" font-size="14.00" fill="#666666">[BASE TABLE]</text>
<polygon fill="none" stroke="#000000" points="68,-475.5 68,-505.5 504,-505.5 504,-475.5 68,-475.5"/>
<text text-anchor="start" x="75" y="-486.9" font-family="Arial" font-size="14.00" fill="#000000">id    </text>
<text text-anchor="start" x="120.094" y="-486.9" font-family="Arial" font-size="14.00" fill="#666666">[integer]</text>
<polygon fill="none" stroke="#000000" points="68,-445.5 68,-475.5 504,-475.5 504,-445.5 68,-445.5"/>
<text text-anchor="start" x="75" y="-456.9" font-family="Arial" font-size="14.00" fill="#000000">owner    </text>
<text text-anchor="start" x="147.3198" y="-456.9" font-family="Arial" font-size="14.00" fill="#666666">[integer]</text>
<polygon fill="none" stroke="#000000" points="68,-415.5 68,-445.5 504,-445.5 504,-415.5 68,-415.5"/>
<text text-anchor="start" x="75" y="-426.9" font-family="Arial" font-size="14.00" fill="#000000">name    </text>
<text text-anchor="start" x="144.2132" y="-426.9" font-family="Arial" font-size="14.00" fill="#666666">[text]</text>
<polygon fill="none" stroke="#000000" points="68,-385.5 68,-415.5 504,-415.5 504,-385.5 68,-385.5"/>
<text text-anchor="start" x="75" y="-396.9" font-family="Arial" font-size="14.00" fill="#000000">btype    </text>
<text text-anchor="start" x="143.4432" y="-396.9" font-family="Arial" font-size="14.00" fill="#666666">[text]</text>
<polygon fill="none" stroke="#000000" points="68,-355.5 68,-385.5 504,-385.5 504,-355.5 68,-355.5"/>
<text text-anchor="start" x="75" y="-366.9" font-family="Arial" font-size="14.00" fill="#000000">description    </text>
<text text-anchor="start" x="176.8822" y="-366.9" font-family="Arial" font-size="14.00" fill="#666666">[text]</text>
<polygon fill="none" stroke="#000000" points="68,-325.5 68,-355.5 504,-355.5 504,-325.5 68,-325.5"/>
<text text-anchor="start" x="75" y="-336.9" font-family="Arial" font-size="14.00" fill="#000000">pub    </text>
<text text-anchor="start" x="132.5526" y="-336.9" font-family="Arial" font-size="14.00" fill="#666666">[boolean]</text>
<polygon fill="none" stroke="#000000" points="68,-295.5 68,-325.5 504,-325.5 504,-295.5 68,-295.5"/>
<text text-anchor="start" x="75" y="-306.9" font-family="Arial" font-size="14.00" fill="#000000">owning_lib    </text>
<text text-anchor="start" x="175.3268" y="-306.9" font-family="Arial" font-size="14.00" fill="#666666">[integer]</text>
<polygon fill="none" stroke="#000000" points="68,-265.5 68,-295.5 504,-295.5 504,-265.5 68,-265.5"/>
<text text-anchor="start" x="75" y="-276.9" font-family="Arial" font-size="14.00" fill="#000000">create_time    </text>
<text text-anchor="start" x="182.3268" y="-276.9" font-family="Arial" font-size="14.00" fill="#666666">[timestamp with time zone]</text>
</g>
<!-- container.biblio_record_entry_bucket&#45;&gt;container.biblio_record_entry_bucket_type -->
<g id="edge1" class="edge">
<title>container.biblio_record_entry_bucket:btype&#45;&gt;container.biblio_record_entry_bucket_type:code</title>
<path fill="none" stroke="#000000" d="M513.7748,-398.3549C574.9935,-370.9657 591.69,-90.5 526,-90.5"/>
<polygon fill="#000000" stroke="#000000" points="513.7676,-398.3564 503.0354,-396.1046 508.8838,-399.4282 504,-400.5 504,-400.5 504,-400.5 508.8838,-399.4282 504.9646,-404.8954 513.7676,-398.3564 513.7676,-398.3564"/>
<text text-anchor="start" x="510.52" y="-410.5" font-family="Arial" font-size="10.00" fill="#000000">FOREIGN KEY (btype) REFERENCES container.biblio_record_entry_bucket_type(code) DEFERRABLE INITIALLY DEFERRED</text>
</g>
</g>
</svg>
