<?xml version="1.0" encoding="UTF-8" standalone="no"?>
<!DOCTYPE svg PUBLIC "-//W3C//DTD SVG 1.1//EN"
 "http://www.w3.org/Graphics/SVG/1.1/DTD/svg11.dtd">
<!-- Generated by graphviz version 2.40.1 (20161225.0304)
 -->
<!-- Title: evergreen.holds_staging Pages: 1 -->
<svg width="438pt" height="585pt"
 viewBox="0.00 0.00 438.00 585.00" xmlns="http://www.w3.org/2000/svg" xmlns:xlink="http://www.w3.org/1999/xlink">
<g id="graph0" class="graph" transform="scale(1 1) rotate(0) translate(4 581)">
<title>evergreen.holds_staging</title>
<polygon fill="#ffffff" stroke="transparent" points="-4,4 -4,-581 434,-581 434,4 -4,4"/>
<!-- evergreen.holds_staging -->
<g id="node1" class="node">
<title>evergreen.holds_staging</title>
<polygon fill="#efefef" stroke="transparent" points="46,-495.5 46,-530.5 384,-530.5 384,-495.5 46,-495.5"/>
<polygon fill="none" stroke="#000000" points="46,-495.5 46,-530.5 384,-530.5 384,-495.5 46,-495.5"/>
<text text-anchor="start" x="52.684" y="-508.3" font-family="Arial Bold" font-size="18.00" fill="#000000">evergreen.holds_staging</text>
<text text-anchor="start" x="249.748" y="-508.3" font-family="Arial" font-size="14.00" fill="#000000">    </text>
<text text-anchor="start" x="283.9528" y="-508.3" font-family="Arial" font-size="14.00" fill="#666666">[BASE TABLE]</text>
<polygon fill="none" stroke="#000000" points="46,-465.5 46,-495.5 384,-495.5 384,-465.5 46,-465.5"/>
<text text-anchor="start" x="53" y="-476.9" font-family="Arial" font-size="14.00" fill="#000000">id </text>
<text text-anchor="start" x="67.7798" y="-476.9" font-family="Arial" font-size="14.00" fill="#666666">[bigint]</text>
<polygon fill="none" stroke="#000000" points="46,-435.5 46,-465.5 384,-465.5 384,-435.5 46,-435.5"/>
<text text-anchor="start" x="53" y="-446.9" font-family="Arial" font-size="14.00" fill="#000000">bib </text>
<text text-anchor="start" x="75.5624" y="-446.9" font-family="Arial" font-size="14.00" fill="#666666">[bigint]</text>
<polygon fill="none" stroke="#000000" points="46,-405.5 46,-435.5 384,-435.5 384,-405.5 46,-405.5"/>
<text text-anchor="start" x="53" y="-416.9" font-family="Arial" font-size="14.00" fill="#000000">dateplaced </text>
<text text-anchor="start" x="125.366" y="-416.9" font-family="Arial" font-size="14.00" fill="#666666">[timestamp with time zone]</text>
<polygon fill="none" stroke="#000000" points="46,-375.5 46,-405.5 384,-405.5 384,-375.5 46,-375.5"/>
<text text-anchor="start" x="53" y="-386.9" font-family="Arial" font-size="14.00" fill="#000000">pull_email </text>
<text text-anchor="start" x="119.8906" y="-386.9" font-family="Arial" font-size="14.00" fill="#666666">[text]</text>
<polygon fill="none" stroke="#000000" points="46,-345.5 46,-375.5 384,-375.5 384,-345.5 46,-345.5"/>
<text text-anchor="start" x="53" y="-356.9" font-family="Arial" font-size="14.00" fill="#000000">pull_bib </text>
<text text-anchor="start" x="105.1234" y="-356.9" font-family="Arial" font-size="14.00" fill="#666666">[bigint]</text>
<polygon fill="none" stroke="#000000" points="46,-315.5 46,-345.5 384,-345.5 384,-315.5 46,-315.5"/>
<text text-anchor="start" x="53" y="-326.9" font-family="Arial" font-size="14.00" fill="#000000">pull_patron </text>
<text text-anchor="start" x="126.1332" y="-326.9" font-family="Arial" font-size="14.00" fill="#666666">[bigint]</text>
<polygon fill="none" stroke="#000000" points="46,-285.5 46,-315.5 384,-315.5 384,-285.5 46,-285.5"/>
<text text-anchor="start" x="53" y="-296.9" font-family="Arial" font-size="14.00" fill="#000000">pickup </text>
<text text-anchor="start" x="97.345" y="-296.9" font-family="Arial" font-size="14.00" fill="#666666">[integer]</text>
<polygon fill="none" stroke="#000000" points="46,-255.5 46,-285.5 384,-285.5 384,-255.5 46,-255.5"/>
<text text-anchor="start" x="53" y="-266.9" font-family="Arial" font-size="14.00" fill="#000000">email_exists </text>
<text text-anchor="start" x="133.892" y="-266.9" font-family="Arial" font-size="14.00" fill="#666666">[boolean]</text>
<polygon fill="none" stroke="#000000" points="46,-225.5 46,-255.5 384,-255.5 384,-225.5 46,-225.5"/>
<text text-anchor="start" x="53" y="-236.9" font-family="Arial" font-size="14.00" fill="#000000">patron </text>
<text text-anchor="start" x="96.5722" y="-236.9" font-family="Arial" font-size="14.00" fill="#666666">[integer]</text>
<polygon fill="none" stroke="#000000" points="46,-195.5 46,-225.5 384,-225.5 384,-195.5 46,-195.5"/>
<text text-anchor="start" x="53" y="-206.9" font-family="Arial" font-size="14.00" fill="#000000">pull_monograph </text>
<text text-anchor="start" x="157.251" y="-206.9" font-family="Arial" font-size="14.00" fill="#666666">[bigint]</text>
<polygon fill="none" stroke="#000000" points="46,-165.5 46,-195.5 384,-195.5 384,-165.5 46,-165.5"/>
<text text-anchor="start" x="53" y="-176.9" font-family="Arial" font-size="14.00" fill="#000000">pull_good_items </text>
<text text-anchor="start" x="158.805" y="-176.9" font-family="Arial" font-size="14.00" fill="#666666">[integer]</text>
<polygon fill="none" stroke="#000000" points="46,-135.5 46,-165.5 384,-165.5 384,-135.5 46,-135.5"/>
<text text-anchor="start" x="53" y="-146.9" font-family="Arial" font-size="14.00" fill="#000000">pull_hold_number </text>
<text text-anchor="start" x="168.1402" y="-146.9" font-family="Arial" font-size="14.00" fill="#666666">[bigint]</text>
<polygon fill="none" stroke="#000000" points="46,-105.5 46,-135.5 384,-135.5 384,-105.5 46,-105.5"/>
<text text-anchor="start" x="53" y="-116.9" font-family="Arial" font-size="14.00" fill="#000000">date_expire </text>
<text text-anchor="start" x="130.0266" y="-116.9" font-family="Arial" font-size="14.00" fill="#666666">[timestamp with time zone]</text>
<polygon fill="none" stroke="#000000" points="46,-75.5 46,-105.5 384,-105.5 384,-75.5 46,-75.5"/>
<text text-anchor="start" x="53" y="-86.9" font-family="Arial" font-size="14.00" fill="#000000">iii_bib </text>
<text text-anchor="start" x="92.6648" y="-86.9" font-family="Arial" font-size="14.00" fill="#666666">[bigint]</text>
<polygon fill="none" stroke="#000000" points="46,-45.5 46,-75.5 384,-75.5 384,-45.5 46,-45.5"/>
<text text-anchor="start" x="53" y="-56.9" font-family="Arial" font-size="14.00" fill="#000000">iii_patron </text>
<text text-anchor="start" x="113.6746" y="-56.9" font-family="Arial" font-size="14.00" fill="#666666">[bigint]</text>
<polygon fill="none" stroke="#000000" stroke-width="3" points="44.5,-44.5 44.5,-532.5 385.5,-532.5 385.5,-44.5 44.5,-44.5"/>
</g>
</g>
</svg>
