<?xml version="1.0" encoding="UTF-8" standalone="no"?>
<!DOCTYPE svg PUBLIC "-//W3C//DTD SVG 1.1//EN"
 "http://www.w3.org/Graphics/SVG/1.1/DTD/svg11.dtd">
<!-- Generated by graphviz version 2.40.1 (20161225.0304)
 -->
<!-- Title: evergreen.status_staging Pages: 1 -->
<svg width="443pt" height="285pt"
 viewBox="0.00 0.00 443.00 285.00" xmlns="http://www.w3.org/2000/svg" xmlns:xlink="http://www.w3.org/1999/xlink">
<g id="graph0" class="graph" transform="scale(1 1) rotate(0) translate(4 281)">
<title>evergreen.status_staging</title>
<polygon fill="#ffffff" stroke="transparent" points="-4,4 -4,-281 439,-281 439,4 -4,4"/>
<!-- evergreen.status_staging -->
<g id="node1" class="node">
<title>evergreen.status_staging</title>
<polygon fill="#efefef" stroke="transparent" points="46.5,-195.5 46.5,-230.5 389.5,-230.5 389.5,-195.5 46.5,-195.5"/>
<polygon fill="none" stroke="#000000" points="46.5,-195.5 46.5,-230.5 389.5,-230.5 389.5,-195.5 46.5,-195.5"/>
<text text-anchor="start" x="53.182" y="-208.3" font-family="Arial Bold" font-size="18.00" fill="#000000">evergreen.status_staging</text>
<text text-anchor="start" x="255.25" y="-208.3" font-family="Arial" font-size="14.00" fill="#000000">    </text>
<text text-anchor="start" x="289.4548" y="-208.3" font-family="Arial" font-size="14.00" fill="#666666">[BASE TABLE]</text>
<polygon fill="none" stroke="#000000" points="46.5,-165.5 46.5,-195.5 389.5,-195.5 389.5,-165.5 46.5,-165.5"/>
<text text-anchor="start" x="53.5" y="-176.9" font-family="Arial" font-size="14.00" fill="#000000">id </text>
<text text-anchor="start" x="68.2798" y="-176.9" font-family="Arial" font-size="14.00" fill="#666666">[bigint]</text>
<polygon fill="none" stroke="#000000" points="46.5,-135.5 46.5,-165.5 389.5,-165.5 389.5,-135.5 46.5,-135.5"/>
<text text-anchor="start" x="53.5" y="-146.9" font-family="Arial" font-size="14.00" fill="#000000">iii_item </text>
<text text-anchor="start" x="100.9334" y="-146.9" font-family="Arial" font-size="14.00" fill="#666666">[bigint]</text>
<polygon fill="none" stroke="#000000" points="46.5,-105.5 46.5,-135.5 389.5,-135.5 389.5,-105.5 46.5,-105.5"/>
<text text-anchor="start" x="53.5" y="-116.9" font-family="Arial" font-size="14.00" fill="#000000">iii_status </text>
<text text-anchor="start" x="111.8394" y="-116.9" font-family="Arial" font-size="14.00" fill="#666666">[integer]</text>
<polygon fill="none" stroke="#000000" points="46.5,-75.5 46.5,-105.5 389.5,-105.5 389.5,-75.5 46.5,-75.5"/>
<text text-anchor="start" x="53.5" y="-86.9" font-family="Arial" font-size="14.00" fill="#000000">evg_item </text>
<text text-anchor="start" x="114.1788" y="-86.9" font-family="Arial" font-size="14.00" fill="#666666">[bigint]</text>
<polygon fill="none" stroke="#000000" points="46.5,-45.5 46.5,-75.5 389.5,-75.5 389.5,-45.5 46.5,-45.5"/>
<text text-anchor="start" x="53.5" y="-56.9" font-family="Arial" font-size="14.00" fill="#000000">evg_status </text>
<text text-anchor="start" x="125.0848" y="-56.9" font-family="Arial" font-size="14.00" fill="#666666">[integer]</text>
<polygon fill="none" stroke="#000000" stroke-width="3" points="44.5,-44.5 44.5,-232.5 390.5,-232.5 390.5,-44.5 44.5,-44.5"/>
</g>
</g>
</svg>
