<?xml version="1.0" encoding="UTF-8" standalone="no"?>
<!DOCTYPE svg PUBLIC "-//W3C//DTD SVG 1.1//EN"
 "http://www.w3.org/Graphics/SVG/1.1/DTD/svg11.dtd">
<!-- Generated by graphviz version 2.40.1 (20161225.0304)
 -->
<!-- Title: extend_reporter.global_bibs_by_holding_update Pages: 1 -->
<svg width="576pt" height="225pt"
 viewBox="0.00 0.00 576.00 225.00" xmlns="http://www.w3.org/2000/svg" xmlns:xlink="http://www.w3.org/1999/xlink">
<g id="graph0" class="graph" transform="scale(1 1) rotate(0) translate(4 221)">
<title>extend_reporter.global_bibs_by_holding_update</title>
<polygon fill="#ffffff" stroke="transparent" points="-4,4 -4,-221 572,-221 572,4 -4,4"/>
<!-- extend_reporter.global_bibs_by_holding_update -->
<g id="node1" class="node">
<title>extend_reporter.global_bibs_by_holding_update</title>
<polygon fill="#efefef" stroke="transparent" points="46,-135.5 46,-170.5 522,-170.5 522,-135.5 46,-135.5"/>
<polygon fill="none" stroke="#000000" points="46,-135.5 46,-170.5 522,-170.5 522,-135.5 46,-135.5"/>
<text text-anchor="start" x="52.5466" y="-148.3" font-family="Arial Bold" font-size="18.00" fill="#000000">extend_reporter.global_bibs_by_holding_update</text>
<text text-anchor="start" x="437.689" y="-148.3" font-family="Arial" font-size="14.00" fill="#000000">    </text>
<text text-anchor="start" x="471.8938" y="-148.3" font-family="Arial" font-size="14.00" fill="#666666">[VIEW]</text>
<polygon fill="none" stroke="#000000" points="46,-105.5 46,-135.5 522,-135.5 522,-105.5 46,-105.5"/>
<text text-anchor="start" x="53" y="-116.9" font-family="Arial" font-size="14.00" fill="#000000">id </text>
<text text-anchor="start" x="67.7798" y="-116.9" font-family="Arial" font-size="14.00" fill="#666666">[bigint]</text>
<polygon fill="none" stroke="#000000" points="46,-75.5 46,-105.5 522,-105.5 522,-75.5 46,-75.5"/>
<text text-anchor="start" x="53" y="-86.9" font-family="Arial" font-size="14.00" fill="#000000">holding_update </text>
<text text-anchor="start" x="152.603" y="-86.9" font-family="Arial" font-size="14.00" fill="#666666">[timestamp with time zone]</text>
<polygon fill="none" stroke="#000000" points="46,-45.5 46,-75.5 522,-75.5 522,-45.5 46,-45.5"/>
<text text-anchor="start" x="53" y="-56.9" font-family="Arial" font-size="14.00" fill="#000000">update_type </text>
<text text-anchor="start" x="133.9326" y="-56.9" font-family="Arial" font-size="14.00" fill="#666666">[text]</text>
<polygon fill="none" stroke="#000000" stroke-width="3" points="44.5,-44.5 44.5,-172.5 523.5,-172.5 523.5,-44.5 44.5,-44.5"/>
</g>
</g>
</svg>
