<?xml version="1.0" encoding="UTF-8" standalone="no"?>
<!DOCTYPE svg PUBLIC "-//W3C//DTD SVG 1.1//EN"
 "http://www.w3.org/Graphics/SVG/1.1/DTD/svg11.dtd">
<!-- Generated by graphviz version 2.40.1 (20161225.0304)
 -->
<!-- Title: metabib.browse_entry_simple_heading_map Pages: 1 -->
<svg width="1278pt" height="592pt"
 viewBox="0.00 0.00 1278.00 592.00" xmlns="http://www.w3.org/2000/svg" xmlns:xlink="http://www.w3.org/1999/xlink">
<g id="graph0" class="graph" transform="scale(1 1) rotate(0) translate(4 588)">
<title>metabib.browse_entry_simple_heading_map</title>
<polygon fill="#ffffff" stroke="transparent" points="-4,4 -4,-588 1274,-588 1274,4 -4,4"/>
<!-- metabib.browse_entry_simple_heading_map -->
<g id="node1" class="node">
<title>metabib.browse_entry_simple_heading_map</title>
<polygon fill="#efefef" stroke="transparent" points="300,-502.5 300,-537.5 799,-537.5 799,-502.5 300,-502.5"/>
<polygon fill="none" stroke="#000000" points="300,-502.5 300,-537.5 799,-537.5 799,-502.5 300,-502.5"/>
<text text-anchor="start" x="306.6754" y="-515.3" font-family="Arial Bold" font-size="18.00" fill="#000000">metabib.browse_entry_simple_heading_map</text>
<text text-anchor="start" x="664.7566" y="-515.3" font-family="Arial" font-size="14.00" fill="#000000">    </text>
<text text-anchor="start" x="698.9614" y="-515.3" font-family="Arial" font-size="14.00" fill="#666666">[BASE TABLE]</text>
<polygon fill="none" stroke="#000000" points="300,-472.5 300,-502.5 799,-502.5 799,-472.5 300,-472.5"/>
<text text-anchor="start" x="307" y="-483.9" font-family="Arial" font-size="14.00" fill="#000000">id </text>
<text text-anchor="start" x="321.7798" y="-483.9" font-family="Arial" font-size="14.00" fill="#666666">[bigint]</text>
<polygon fill="none" stroke="#000000" points="300,-442.5 300,-472.5 799,-472.5 799,-442.5 300,-442.5"/>
<text text-anchor="start" x="307" y="-453.9" font-family="Arial" font-size="14.00" fill="#000000">entry </text>
<text text-anchor="start" x="342.007" y="-453.9" font-family="Arial" font-size="14.00" fill="#666666">[bigint]</text>
<polygon fill="none" stroke="#000000" points="300,-412.5 300,-442.5 799,-442.5 799,-412.5 300,-412.5"/>
<text text-anchor="start" x="307" y="-423.9" font-family="Arial" font-size="14.00" fill="#000000">simple_heading </text>
<text text-anchor="start" x="408.9144" y="-423.9" font-family="Arial" font-size="14.00" fill="#666666">[bigint]</text>
<polygon fill="none" stroke="#000000" stroke-width="3" points="298,-411.5 298,-539.5 800,-539.5 800,-411.5 298,-411.5"/>
</g>
<!-- metabib.browse_entry -->
<g id="node2" class="node">
<title>metabib.browse_entry</title>
<polygon fill="#efefef" stroke="transparent" points="174,-207.5 174,-242.5 492,-242.5 492,-207.5 174,-207.5"/>
<polygon fill="none" stroke="#000000" points="174,-207.5 174,-242.5 492,-242.5 492,-207.5 174,-207.5"/>
<text text-anchor="start" x="180.6992" y="-220.3" font-family="Arial Bold" font-size="18.00" fill="#000000">metabib.browse_entry</text>
<text text-anchor="start" x="357.7328" y="-220.3" font-family="Arial" font-size="14.00" fill="#000000">    </text>
<text text-anchor="start" x="391.9376" y="-220.3" font-family="Arial" font-size="14.00" fill="#666666">[BASE TABLE]</text>
<polygon fill="none" stroke="#000000" points="174,-177.5 174,-207.5 492,-207.5 492,-177.5 174,-177.5"/>
<text text-anchor="start" x="181" y="-188.9" font-family="Arial" font-size="14.00" fill="#000000">id    </text>
<text text-anchor="start" x="226.094" y="-188.9" font-family="Arial" font-size="14.00" fill="#666666">[bigint]</text>
<polygon fill="none" stroke="#000000" points="174,-147.5 174,-177.5 492,-177.5 492,-147.5 174,-147.5"/>
<text text-anchor="start" x="181" y="-158.9" font-family="Arial" font-size="14.00" fill="#000000">value    </text>
<text text-anchor="start" x="248.6592" y="-158.9" font-family="Arial" font-size="14.00" fill="#666666">[text]</text>
<polygon fill="none" stroke="#000000" points="174,-117.5 174,-147.5 492,-147.5 492,-117.5 174,-117.5"/>
<text text-anchor="start" x="181" y="-128.9" font-family="Arial" font-size="14.00" fill="#000000">index_vector    </text>
<text text-anchor="start" x="294.5582" y="-128.9" font-family="Arial" font-size="14.00" fill="#666666">[tsvector]</text>
<polygon fill="none" stroke="#000000" points="174,-87.5 174,-117.5 492,-117.5 492,-87.5 174,-87.5"/>
<text text-anchor="start" x="181" y="-98.9" font-family="Arial" font-size="14.00" fill="#000000">sort_value    </text>
<text text-anchor="start" x="279.7756" y="-98.9" font-family="Arial" font-size="14.00" fill="#666666">[text]</text>
</g>
<!-- metabib.browse_entry_simple_heading_map&#45;&gt;metabib.browse_entry -->
<g id="edge1" class="edge">
<title>metabib.browse_entry_simple_heading_map:entry&#45;&gt;metabib.browse_entry:id</title>
<path fill="none" stroke="#000000" d="M289.8312,-455.9446C263.331,-446.5942 279.9345,-397.2432 300,-367 351.2035,-289.825 440.7965,-363.175 492,-286 514.9742,-251.3727 533.5556,-192.5 492,-192.5"/>
<polygon fill="#000000" stroke="#000000" points="290.115,-455.9879 299.3196,-461.9483 295.0575,-456.744 300,-457.5 300,-457.5 300,-457.5 295.0575,-456.744 300.6804,-453.0517 290.115,-455.9879 290.115,-455.9879"/>
<text text-anchor="start" x="6.661" y="-467.5" font-family="Arial" font-size="10.00" fill="#000000">FOREIGN KEY (entry) REFERENCES metabib.browse_entry(id)</text>
</g>
<!-- authority.simple_heading -->
<g id="node3" class="node">
<title>authority.simple_heading</title>
<polygon fill="#efefef" stroke="transparent" points="597,-252.5 597,-287.5 938,-287.5 938,-252.5 597,-252.5"/>
<polygon fill="none" stroke="#000000" points="597,-252.5 597,-287.5 938,-287.5 938,-252.5 597,-252.5"/>
<text text-anchor="start" x="603.6918" y="-265.3" font-family="Arial Bold" font-size="18.00" fill="#000000">authority.simple_heading</text>
<text text-anchor="start" x="803.7402" y="-265.3" font-family="Arial" font-size="14.00" fill="#000000">    </text>
<text text-anchor="start" x="837.945" y="-265.3" font-family="Arial" font-size="14.00" fill="#666666">[BASE TABLE]</text>
<polygon fill="none" stroke="#000000" points="597,-222.5 597,-252.5 938,-252.5 938,-222.5 597,-222.5"/>
<text text-anchor="start" x="604" y="-233.9" font-family="Arial" font-size="14.00" fill="#000000">id    </text>
<text text-anchor="start" x="649.094" y="-233.9" font-family="Arial" font-size="14.00" fill="#666666">[bigint]</text>
<polygon fill="none" stroke="#000000" points="597,-192.5 597,-222.5 938,-222.5 938,-192.5 597,-192.5"/>
<text text-anchor="start" x="604" y="-203.9" font-family="Arial" font-size="14.00" fill="#000000">record    </text>
<text text-anchor="start" x="677.8738" y="-203.9" font-family="Arial" font-size="14.00" fill="#666666">[bigint]</text>
<polygon fill="none" stroke="#000000" points="597,-162.5 597,-192.5 938,-192.5 938,-162.5 597,-162.5"/>
<text text-anchor="start" x="604" y="-173.9" font-family="Arial" font-size="14.00" fill="#000000">atag    </text>
<text text-anchor="start" x="665.4432" y="-173.9" font-family="Arial" font-size="14.00" fill="#666666">[integer]</text>
<polygon fill="none" stroke="#000000" points="597,-132.5 597,-162.5 938,-162.5 938,-132.5 597,-132.5"/>
<text text-anchor="start" x="604" y="-143.9" font-family="Arial" font-size="14.00" fill="#000000">value    </text>
<text text-anchor="start" x="671.6592" y="-143.9" font-family="Arial" font-size="14.00" fill="#666666">[text]</text>
<polygon fill="none" stroke="#000000" points="597,-102.5 597,-132.5 938,-132.5 938,-102.5 597,-102.5"/>
<text text-anchor="start" x="604" y="-113.9" font-family="Arial" font-size="14.00" fill="#000000">sort_value    </text>
<text text-anchor="start" x="702.7756" y="-113.9" font-family="Arial" font-size="14.00" fill="#666666">[text]</text>
<polygon fill="none" stroke="#000000" points="597,-72.5 597,-102.5 938,-102.5 938,-72.5 597,-72.5"/>
<text text-anchor="start" x="604" y="-83.9" font-family="Arial" font-size="14.00" fill="#000000">index_vector    </text>
<text text-anchor="start" x="717.5582" y="-83.9" font-family="Arial" font-size="14.00" fill="#666666">[tsvector]</text>
<polygon fill="none" stroke="#000000" points="597,-42.5 597,-72.5 938,-72.5 938,-42.5 597,-42.5"/>
<text text-anchor="start" x="604" y="-53.9" font-family="Arial" font-size="14.00" fill="#000000">thesaurus    </text>
<text text-anchor="start" x="699.669" y="-53.9" font-family="Arial" font-size="14.00" fill="#666666">[text]</text>
</g>
<!-- metabib.browse_entry_simple_heading_map&#45;&gt;authority.simple_heading -->
<g id="edge2" class="edge">
<title>metabib.browse_entry_simple_heading_map:simple_heading&#45;&gt;authority.simple_heading:id</title>
<path fill="none" stroke="#000000" d="M809.04,-424.8043C822.6949,-415.5061 813.5673,-384.393 799,-367 740.4467,-297.0889 655.5533,-400.9111 597,-331 570.3178,-299.1421 555.4444,-237.5 597,-237.5"/>
<polygon fill="#000000" stroke="#000000" points="808.6579,-424.9068 797.8331,-423.1539 803.829,-426.2034 799,-427.5 799,-427.5 799,-427.5 803.829,-426.2034 800.1669,-431.8461 808.6579,-424.9068 808.6579,-424.9068"/>
<text text-anchor="start" x="806.0915" y="-437.5" font-family="Arial" font-size="10.00" fill="#000000">FOREIGN KEY (simple_heading) REFERENCES authority.simple_heading(id) ON DELETE CASCADE</text>
</g>
</g>
</svg>
