<?xml version="1.0" encoding="UTF-8" standalone="no"?>
<!DOCTYPE svg PUBLIC "-//W3C//DTD SVG 1.1//EN"
 "http://www.w3.org/Graphics/SVG/1.1/DTD/svg11.dtd">
<!-- Generated by graphviz version 2.40.1 (20161225.0304)
 -->
<!-- Title: metabib.metarecord_source_map Pages: 1 -->
<svg width="1603pt" height="952pt"
 viewBox="0.00 0.00 1603.00 952.00" xmlns="http://www.w3.org/2000/svg" xmlns:xlink="http://www.w3.org/1999/xlink">
<g id="graph0" class="graph" transform="scale(1 1) rotate(0) translate(4 948)">
<title>metabib.metarecord_source_map</title>
<polygon fill="#ffffff" stroke="transparent" points="-4,4 -4,-948 1599,-948 1599,4 -4,4"/>
<!-- metabib.metarecord_source_map -->
<g id="node1" class="node">
<title>metabib.metarecord_source_map</title>
<polygon fill="#efefef" stroke="transparent" points="606,-862.5 606,-897.5 1016,-897.5 1016,-862.5 606,-862.5"/>
<polygon fill="none" stroke="#000000" points="606,-862.5 606,-897.5 1016,-897.5 1016,-862.5 606,-862.5"/>
<text text-anchor="start" x="612.6894" y="-875.3" font-family="Arial Bold" font-size="18.00" fill="#000000">metabib.metarecord_source_map</text>
<text text-anchor="start" x="881.7426" y="-875.3" font-family="Arial" font-size="14.00" fill="#000000">    </text>
<text text-anchor="start" x="915.9474" y="-875.3" font-family="Arial" font-size="14.00" fill="#666666">[BASE TABLE]</text>
<polygon fill="none" stroke="#000000" points="606,-832.5 606,-862.5 1016,-862.5 1016,-832.5 606,-832.5"/>
<text text-anchor="start" x="613" y="-843.9" font-family="Arial" font-size="14.00" fill="#000000">id </text>
<text text-anchor="start" x="627.7798" y="-843.9" font-family="Arial" font-size="14.00" fill="#666666">[bigint]</text>
<polygon fill="none" stroke="#000000" points="606,-802.5 606,-832.5 1016,-832.5 1016,-802.5 606,-802.5"/>
<text text-anchor="start" x="613" y="-813.9" font-family="Arial" font-size="14.00" fill="#000000">metarecord </text>
<text text-anchor="start" x="687.676" y="-813.9" font-family="Arial" font-size="14.00" fill="#666666">[bigint]</text>
<polygon fill="none" stroke="#000000" points="606,-772.5 606,-802.5 1016,-802.5 1016,-772.5 606,-772.5"/>
<text text-anchor="start" x="613" y="-783.9" font-family="Arial" font-size="14.00" fill="#000000">source </text>
<text text-anchor="start" x="658.899" y="-783.9" font-family="Arial" font-size="14.00" fill="#666666">[bigint]</text>
<polygon fill="none" stroke="#000000" stroke-width="3" points="604.5,-771.5 604.5,-899.5 1017.5,-899.5 1017.5,-771.5 604.5,-771.5"/>
</g>
<!-- metabib.metarecord -->
<g id="node2" class="node">
<title>metabib.metarecord</title>
<polygon fill="#efefef" stroke="transparent" points="461,-387.5 461,-422.5 762,-422.5 762,-387.5 461,-387.5"/>
<polygon fill="none" stroke="#000000" points="461,-387.5 461,-422.5 762,-422.5 762,-387.5 461,-387.5"/>
<text text-anchor="start" x="467.7033" y="-400.3" font-family="Arial Bold" font-size="18.00" fill="#000000">metabib.metarecord</text>
<text text-anchor="start" x="627.7287" y="-400.3" font-family="Arial" font-size="14.00" fill="#000000">    </text>
<text text-anchor="start" x="661.9335" y="-400.3" font-family="Arial" font-size="14.00" fill="#666666">[BASE TABLE]</text>
<polygon fill="none" stroke="#000000" points="461,-357.5 461,-387.5 762,-387.5 762,-357.5 461,-357.5"/>
<text text-anchor="start" x="468" y="-368.9" font-family="Arial" font-size="14.00" fill="#000000">id    </text>
<text text-anchor="start" x="513.094" y="-368.9" font-family="Arial" font-size="14.00" fill="#666666">[bigint]</text>
<polygon fill="none" stroke="#000000" points="461,-327.5 461,-357.5 762,-357.5 762,-327.5 461,-327.5"/>
<text text-anchor="start" x="468" y="-338.9" font-family="Arial" font-size="14.00" fill="#000000">fingerprint    </text>
<text text-anchor="start" x="564.4334" y="-338.9" font-family="Arial" font-size="14.00" fill="#666666">[text]</text>
<polygon fill="none" stroke="#000000" points="461,-297.5 461,-327.5 762,-327.5 762,-297.5 461,-297.5"/>
<text text-anchor="start" x="468" y="-308.9" font-family="Arial" font-size="14.00" fill="#000000">master_record    </text>
<text text-anchor="start" x="592.4334" y="-308.9" font-family="Arial" font-size="14.00" fill="#666666">[bigint]</text>
<polygon fill="none" stroke="#000000" points="461,-267.5 461,-297.5 762,-297.5 762,-267.5 461,-267.5"/>
<text text-anchor="start" x="468" y="-278.9" font-family="Arial" font-size="14.00" fill="#000000">mods    </text>
<text text-anchor="start" x="536.4306" y="-278.9" font-family="Arial" font-size="14.00" fill="#666666">[text]</text>
</g>
<!-- metabib.metarecord_source_map&#45;&gt;metabib.metarecord -->
<g id="edge1" class="edge">
<title>metabib.metarecord_source_map:metarecord&#45;&gt;metabib.metarecord:id</title>
<path fill="none" stroke="#000000" d="M595.9347,-817.1145C415.851,-802.42 967.9969,-372.5 762,-372.5"/>
<polygon fill="#000000" stroke="#000000" points="596.0073,-817.1172 605.8278,-821.9967 601.0037,-817.3086 606,-817.5 606,-817.5 606,-817.5 601.0037,-817.3086 606.1722,-813.0033 596.0073,-817.1172 596.0073,-817.1172"/>
<text text-anchor="start" x="6.877" y="-827.5" font-family="Arial" font-size="10.00" fill="#000000">FOREIGN KEY (metarecord) REFERENCES metabib.metarecord(id) ON DELETE CASCADE DEFERRABLE INITIALLY DEFERRED</text>
</g>
<!-- biblio.record_entry -->
<g id="node3" class="node">
<title>biblio.record_entry</title>
<polygon fill="#efefef" stroke="transparent" points="866,-612.5 866,-647.5 1155,-647.5 1155,-612.5 866,-612.5"/>
<polygon fill="none" stroke="#000000" points="866,-612.5 866,-647.5 1155,-647.5 1155,-612.5 866,-612.5"/>
<text text-anchor="start" x="872.7063" y="-625.3" font-family="Arial Bold" font-size="18.00" fill="#000000">biblio.record_entry</text>
<text text-anchor="start" x="1020.7257" y="-625.3" font-family="Arial" font-size="14.00" fill="#000000">    </text>
<text text-anchor="start" x="1054.9305" y="-625.3" font-family="Arial" font-size="14.00" fill="#666666">[BASE TABLE]</text>
<polygon fill="none" stroke="#000000" points="866,-582.5 866,-612.5 1155,-612.5 1155,-582.5 866,-582.5"/>
<text text-anchor="start" x="873" y="-593.9" font-family="Arial" font-size="14.00" fill="#000000">id    </text>
<text text-anchor="start" x="918.094" y="-593.9" font-family="Arial" font-size="14.00" fill="#666666">[bigint]</text>
<polygon fill="none" stroke="#000000" points="866,-552.5 866,-582.5 1155,-582.5 1155,-552.5 866,-552.5"/>
<text text-anchor="start" x="873" y="-563.9" font-family="Arial" font-size="14.00" fill="#000000">creator    </text>
<text text-anchor="start" x="950.7644" y="-563.9" font-family="Arial" font-size="14.00" fill="#666666">[integer]</text>
<polygon fill="none" stroke="#000000" points="866,-522.5 866,-552.5 1155,-552.5 1155,-522.5 866,-522.5"/>
<text text-anchor="start" x="873" y="-533.9" font-family="Arial" font-size="14.00" fill="#000000">editor    </text>
<text text-anchor="start" x="942.2104" y="-533.9" font-family="Arial" font-size="14.00" fill="#666666">[integer]</text>
<polygon fill="none" stroke="#000000" points="866,-492.5 866,-522.5 1155,-522.5 1155,-492.5 866,-492.5"/>
<text text-anchor="start" x="873" y="-503.9" font-family="Arial" font-size="14.00" fill="#000000">source    </text>
<text text-anchor="start" x="949.2132" y="-503.9" font-family="Arial" font-size="14.00" fill="#666666">[integer]</text>
<polygon fill="none" stroke="#000000" points="866,-462.5 866,-492.5 1155,-492.5 1155,-462.5 866,-462.5"/>
<text text-anchor="start" x="873" y="-473.9" font-family="Arial" font-size="14.00" fill="#000000">quality    </text>
<text text-anchor="start" x="947.6564" y="-473.9" font-family="Arial" font-size="14.00" fill="#666666">[integer]</text>
<polygon fill="none" stroke="#000000" points="866,-432.5 866,-462.5 1155,-462.5 1155,-432.5 866,-432.5"/>
<text text-anchor="start" x="873" y="-443.9" font-family="Arial" font-size="14.00" fill="#000000">create_date    </text>
<text text-anchor="start" x="981.1248" y="-443.9" font-family="Arial" font-size="14.00" fill="#666666">[timestamp with time zone]</text>
<polygon fill="none" stroke="#000000" points="866,-402.5 866,-432.5 1155,-432.5 1155,-402.5 866,-402.5"/>
<text text-anchor="start" x="873" y="-413.9" font-family="Arial" font-size="14.00" fill="#000000">edit_date    </text>
<text text-anchor="start" x="964.7882" y="-413.9" font-family="Arial" font-size="14.00" fill="#666666">[timestamp with time zone]</text>
<polygon fill="none" stroke="#000000" points="866,-372.5 866,-402.5 1155,-402.5 1155,-372.5 866,-372.5"/>
<text text-anchor="start" x="873" y="-383.9" font-family="Arial" font-size="14.00" fill="#000000">active    </text>
<text text-anchor="start" x="943.7672" y="-383.9" font-family="Arial" font-size="14.00" fill="#666666">[boolean]</text>
<polygon fill="none" stroke="#000000" points="866,-342.5 866,-372.5 1155,-372.5 1155,-342.5 866,-342.5"/>
<text text-anchor="start" x="873" y="-353.9" font-family="Arial" font-size="14.00" fill="#000000">deleted    </text>
<text text-anchor="start" x="953.115" y="-353.9" font-family="Arial" font-size="14.00" fill="#666666">[boolean]</text>
<polygon fill="none" stroke="#000000" points="866,-312.5 866,-342.5 1155,-342.5 1155,-312.5 866,-312.5"/>
<text text-anchor="start" x="873" y="-323.9" font-family="Arial" font-size="14.00" fill="#000000">fingerprint    </text>
<text text-anchor="start" x="969.4334" y="-323.9" font-family="Arial" font-size="14.00" fill="#666666">[text]</text>
<polygon fill="none" stroke="#000000" points="866,-282.5 866,-312.5 1155,-312.5 1155,-282.5 866,-282.5"/>
<text text-anchor="start" x="873" y="-293.9" font-family="Arial" font-size="14.00" fill="#000000">tcn_source    </text>
<text text-anchor="start" x="975.669" y="-293.9" font-family="Arial" font-size="14.00" fill="#666666">[text]</text>
<polygon fill="none" stroke="#000000" points="866,-252.5 866,-282.5 1155,-282.5 1155,-252.5 866,-252.5"/>
<text text-anchor="start" x="873" y="-263.9" font-family="Arial" font-size="14.00" fill="#000000">tcn_value    </text>
<text text-anchor="start" x="967.115" y="-263.9" font-family="Arial" font-size="14.00" fill="#666666">[text]</text>
<polygon fill="none" stroke="#000000" points="866,-222.5 866,-252.5 1155,-252.5 1155,-222.5 866,-222.5"/>
<text text-anchor="start" x="873" y="-233.9" font-family="Arial" font-size="14.00" fill="#000000">marc    </text>
<text text-anchor="start" x="938.3086" y="-233.9" font-family="Arial" font-size="14.00" fill="#666666">[text]</text>
<polygon fill="none" stroke="#000000" points="866,-192.5 866,-222.5 1155,-222.5 1155,-192.5 866,-192.5"/>
<text text-anchor="start" x="873" y="-203.9" font-family="Arial" font-size="14.00" fill="#000000">last_xact_id    </text>
<text text-anchor="start" x="981.1122" y="-203.9" font-family="Arial" font-size="14.00" fill="#666666">[text]</text>
<polygon fill="none" stroke="#000000" points="866,-162.5 866,-192.5 1155,-192.5 1155,-162.5 866,-162.5"/>
<text text-anchor="start" x="873" y="-173.9" font-family="Arial" font-size="14.00" fill="#000000">vis_attr_vector    </text>
<text text-anchor="start" x="998.2174" y="-173.9" font-family="Arial" font-size="14.00" fill="#666666">[integer[]]</text>
<polygon fill="none" stroke="#000000" points="866,-132.5 866,-162.5 1155,-162.5 1155,-132.5 866,-132.5"/>
<text text-anchor="start" x="873" y="-143.9" font-family="Arial" font-size="14.00" fill="#000000">owner    </text>
<text text-anchor="start" x="945.3198" y="-143.9" font-family="Arial" font-size="14.00" fill="#666666">[integer]</text>
<polygon fill="none" stroke="#000000" points="866,-102.5 866,-132.5 1155,-132.5 1155,-102.5 866,-102.5"/>
<text text-anchor="start" x="873" y="-113.9" font-family="Arial" font-size="14.00" fill="#000000">share_depth    </text>
<text text-anchor="start" x="985.0168" y="-113.9" font-family="Arial" font-size="14.00" fill="#666666">[integer]</text>
<polygon fill="none" stroke="#000000" points="866,-72.5 866,-102.5 1155,-102.5 1155,-72.5 866,-72.5"/>
<text text-anchor="start" x="873" y="-83.9" font-family="Arial" font-size="14.00" fill="#000000">merge_date    </text>
<text text-anchor="start" x="981.8948" y="-83.9" font-family="Arial" font-size="14.00" fill="#666666">[timestamp with time zone]</text>
<polygon fill="none" stroke="#000000" points="866,-42.5 866,-72.5 1155,-72.5 1155,-42.5 866,-42.5"/>
<text text-anchor="start" x="873" y="-53.9" font-family="Arial" font-size="14.00" fill="#000000">merged_to    </text>
<text text-anchor="start" x="974.1122" y="-53.9" font-family="Arial" font-size="14.00" fill="#666666">[bigint]</text>
</g>
<!-- metabib.metarecord_source_map&#45;&gt;biblio.record_entry -->
<g id="edge2" class="edge">
<title>metabib.metarecord_source_map:source&#45;&gt;biblio.record_entry:id</title>
<path fill="none" stroke="#000000" d="M1026.0019,-784.8353C1039.5321,-775.6384 1030.0464,-744.8164 1016,-727 973.553,-673.1604 908.447,-744.8396 866,-691 840.272,-658.3667 824.4444,-597.5 866,-597.5"/>
<polygon fill="#000000" stroke="#000000" points="1025.663,-784.9256 1014.8415,-783.1517 1020.8315,-786.2128 1016,-787.5 1016,-787.5 1016,-787.5 1020.8315,-786.2128 1017.1585,-791.8483 1025.663,-784.9256 1025.663,-784.9256"/>
<text text-anchor="start" x="1023.4895" y="-797.5" font-family="Arial" font-size="10.00" fill="#000000">FOREIGN KEY (source) REFERENCES biblio.record_entry(id) ON DELETE CASCADE DEFERRABLE INITIALLY DEFERRED</text>
</g>
</g>
</svg>
