<?xml version="1.0" encoding="UTF-8" standalone="no"?>
<!DOCTYPE svg PUBLIC "-//W3C//DTD SVG 1.1//EN"
 "http://www.w3.org/Graphics/SVG/1.1/DTD/svg11.dtd">
<!-- Generated by graphviz version 2.40.1 (20161225.0304)
 -->
<!-- Title: metabib.record_sorter Pages: 1 -->
<svg width="1172pt" height="982pt"
 viewBox="0.00 0.00 1172.00 982.00" xmlns="http://www.w3.org/2000/svg" xmlns:xlink="http://www.w3.org/1999/xlink">
<g id="graph0" class="graph" transform="scale(1 1) rotate(0) translate(4 978)">
<title>metabib.record_sorter</title>
<polygon fill="#ffffff" stroke="transparent" points="-4,4 -4,-978 1168,-978 1168,4 -4,4"/>
<!-- metabib.record_sorter -->
<g id="node1" class="node">
<title>metabib.record_sorter</title>
<polygon fill="#efefef" stroke="transparent" points="402,-892.5 402,-927.5 719,-927.5 719,-892.5 402,-892.5"/>
<polygon fill="none" stroke="#000000" points="402,-892.5 402,-927.5 719,-927.5 719,-892.5 402,-892.5"/>
<text text-anchor="start" x="408.7041" y="-905.3" font-family="Arial Bold" font-size="18.00" fill="#000000">metabib.record_sorter</text>
<text text-anchor="start" x="584.7279" y="-905.3" font-family="Arial" font-size="14.00" fill="#000000">    </text>
<text text-anchor="start" x="618.9327" y="-905.3" font-family="Arial" font-size="14.00" fill="#666666">[BASE TABLE]</text>
<polygon fill="none" stroke="#000000" points="402,-862.5 402,-892.5 719,-892.5 719,-862.5 402,-862.5"/>
<text text-anchor="start" x="409" y="-873.9" font-family="Arial" font-size="14.00" fill="#000000">id </text>
<text text-anchor="start" x="423.7798" y="-873.9" font-family="Arial" font-size="14.00" fill="#666666">[bigint]</text>
<polygon fill="none" stroke="#000000" points="402,-832.5 402,-862.5 719,-862.5 719,-832.5 402,-832.5"/>
<text text-anchor="start" x="409" y="-843.9" font-family="Arial" font-size="14.00" fill="#000000">source </text>
<text text-anchor="start" x="454.899" y="-843.9" font-family="Arial" font-size="14.00" fill="#666666">[bigint]</text>
<polygon fill="none" stroke="#000000" points="402,-802.5 402,-832.5 719,-832.5 719,-802.5 402,-802.5"/>
<text text-anchor="start" x="409" y="-813.9" font-family="Arial" font-size="14.00" fill="#000000">attr </text>
<text text-anchor="start" x="433.115" y="-813.9" font-family="Arial" font-size="14.00" fill="#666666">[text]</text>
<polygon fill="none" stroke="#000000" points="402,-772.5 402,-802.5 719,-802.5 719,-772.5 402,-772.5"/>
<text text-anchor="start" x="409" y="-783.9" font-family="Arial" font-size="14.00" fill="#000000">value </text>
<text text-anchor="start" x="446.345" y="-783.9" font-family="Arial" font-size="14.00" fill="#666666">[text]</text>
<polygon fill="none" stroke="#000000" stroke-width="3" points="400,-771.5 400,-929.5 720,-929.5 720,-771.5 400,-771.5"/>
</g>
<!-- biblio.record_entry -->
<g id="node2" class="node">
<title>biblio.record_entry</title>
<polygon fill="#efefef" stroke="transparent" points="201,-612.5 201,-647.5 490,-647.5 490,-612.5 201,-612.5"/>
<polygon fill="none" stroke="#000000" points="201,-612.5 201,-647.5 490,-647.5 490,-612.5 201,-612.5"/>
<text text-anchor="start" x="207.7063" y="-625.3" font-family="Arial Bold" font-size="18.00" fill="#000000">biblio.record_entry</text>
<text text-anchor="start" x="355.7257" y="-625.3" font-family="Arial" font-size="14.00" fill="#000000">    </text>
<text text-anchor="start" x="389.9305" y="-625.3" font-family="Arial" font-size="14.00" fill="#666666">[BASE TABLE]</text>
<polygon fill="none" stroke="#000000" points="201,-582.5 201,-612.5 490,-612.5 490,-582.5 201,-582.5"/>
<text text-anchor="start" x="208" y="-593.9" font-family="Arial" font-size="14.00" fill="#000000">id    </text>
<text text-anchor="start" x="253.094" y="-593.9" font-family="Arial" font-size="14.00" fill="#666666">[bigint]</text>
<polygon fill="none" stroke="#000000" points="201,-552.5 201,-582.5 490,-582.5 490,-552.5 201,-552.5"/>
<text text-anchor="start" x="208" y="-563.9" font-family="Arial" font-size="14.00" fill="#000000">creator    </text>
<text text-anchor="start" x="285.7644" y="-563.9" font-family="Arial" font-size="14.00" fill="#666666">[integer]</text>
<polygon fill="none" stroke="#000000" points="201,-522.5 201,-552.5 490,-552.5 490,-522.5 201,-522.5"/>
<text text-anchor="start" x="208" y="-533.9" font-family="Arial" font-size="14.00" fill="#000000">editor    </text>
<text text-anchor="start" x="277.2104" y="-533.9" font-family="Arial" font-size="14.00" fill="#666666">[integer]</text>
<polygon fill="none" stroke="#000000" points="201,-492.5 201,-522.5 490,-522.5 490,-492.5 201,-492.5"/>
<text text-anchor="start" x="208" y="-503.9" font-family="Arial" font-size="14.00" fill="#000000">source    </text>
<text text-anchor="start" x="284.2132" y="-503.9" font-family="Arial" font-size="14.00" fill="#666666">[integer]</text>
<polygon fill="none" stroke="#000000" points="201,-462.5 201,-492.5 490,-492.5 490,-462.5 201,-462.5"/>
<text text-anchor="start" x="208" y="-473.9" font-family="Arial" font-size="14.00" fill="#000000">quality    </text>
<text text-anchor="start" x="282.6564" y="-473.9" font-family="Arial" font-size="14.00" fill="#666666">[integer]</text>
<polygon fill="none" stroke="#000000" points="201,-432.5 201,-462.5 490,-462.5 490,-432.5 201,-432.5"/>
<text text-anchor="start" x="208" y="-443.9" font-family="Arial" font-size="14.00" fill="#000000">create_date    </text>
<text text-anchor="start" x="316.1248" y="-443.9" font-family="Arial" font-size="14.00" fill="#666666">[timestamp with time zone]</text>
<polygon fill="none" stroke="#000000" points="201,-402.5 201,-432.5 490,-432.5 490,-402.5 201,-402.5"/>
<text text-anchor="start" x="208" y="-413.9" font-family="Arial" font-size="14.00" fill="#000000">edit_date    </text>
<text text-anchor="start" x="299.7882" y="-413.9" font-family="Arial" font-size="14.00" fill="#666666">[timestamp with time zone]</text>
<polygon fill="none" stroke="#000000" points="201,-372.5 201,-402.5 490,-402.5 490,-372.5 201,-372.5"/>
<text text-anchor="start" x="208" y="-383.9" font-family="Arial" font-size="14.00" fill="#000000">active    </text>
<text text-anchor="start" x="278.7672" y="-383.9" font-family="Arial" font-size="14.00" fill="#666666">[boolean]</text>
<polygon fill="none" stroke="#000000" points="201,-342.5 201,-372.5 490,-372.5 490,-342.5 201,-342.5"/>
<text text-anchor="start" x="208" y="-353.9" font-family="Arial" font-size="14.00" fill="#000000">deleted    </text>
<text text-anchor="start" x="288.115" y="-353.9" font-family="Arial" font-size="14.00" fill="#666666">[boolean]</text>
<polygon fill="none" stroke="#000000" points="201,-312.5 201,-342.5 490,-342.5 490,-312.5 201,-312.5"/>
<text text-anchor="start" x="208" y="-323.9" font-family="Arial" font-size="14.00" fill="#000000">fingerprint    </text>
<text text-anchor="start" x="304.4334" y="-323.9" font-family="Arial" font-size="14.00" fill="#666666">[text]</text>
<polygon fill="none" stroke="#000000" points="201,-282.5 201,-312.5 490,-312.5 490,-282.5 201,-282.5"/>
<text text-anchor="start" x="208" y="-293.9" font-family="Arial" font-size="14.00" fill="#000000">tcn_source    </text>
<text text-anchor="start" x="310.669" y="-293.9" font-family="Arial" font-size="14.00" fill="#666666">[text]</text>
<polygon fill="none" stroke="#000000" points="201,-252.5 201,-282.5 490,-282.5 490,-252.5 201,-252.5"/>
<text text-anchor="start" x="208" y="-263.9" font-family="Arial" font-size="14.00" fill="#000000">tcn_value    </text>
<text text-anchor="start" x="302.115" y="-263.9" font-family="Arial" font-size="14.00" fill="#666666">[text]</text>
<polygon fill="none" stroke="#000000" points="201,-222.5 201,-252.5 490,-252.5 490,-222.5 201,-222.5"/>
<text text-anchor="start" x="208" y="-233.9" font-family="Arial" font-size="14.00" fill="#000000">marc    </text>
<text text-anchor="start" x="273.3086" y="-233.9" font-family="Arial" font-size="14.00" fill="#666666">[text]</text>
<polygon fill="none" stroke="#000000" points="201,-192.5 201,-222.5 490,-222.5 490,-192.5 201,-192.5"/>
<text text-anchor="start" x="208" y="-203.9" font-family="Arial" font-size="14.00" fill="#000000">last_xact_id    </text>
<text text-anchor="start" x="316.1122" y="-203.9" font-family="Arial" font-size="14.00" fill="#666666">[text]</text>
<polygon fill="none" stroke="#000000" points="201,-162.5 201,-192.5 490,-192.5 490,-162.5 201,-162.5"/>
<text text-anchor="start" x="208" y="-173.9" font-family="Arial" font-size="14.00" fill="#000000">vis_attr_vector    </text>
<text text-anchor="start" x="333.2174" y="-173.9" font-family="Arial" font-size="14.00" fill="#666666">[integer[]]</text>
<polygon fill="none" stroke="#000000" points="201,-132.5 201,-162.5 490,-162.5 490,-132.5 201,-132.5"/>
<text text-anchor="start" x="208" y="-143.9" font-family="Arial" font-size="14.00" fill="#000000">owner    </text>
<text text-anchor="start" x="280.3198" y="-143.9" font-family="Arial" font-size="14.00" fill="#666666">[integer]</text>
<polygon fill="none" stroke="#000000" points="201,-102.5 201,-132.5 490,-132.5 490,-102.5 201,-102.5"/>
<text text-anchor="start" x="208" y="-113.9" font-family="Arial" font-size="14.00" fill="#000000">share_depth    </text>
<text text-anchor="start" x="320.0168" y="-113.9" font-family="Arial" font-size="14.00" fill="#666666">[integer]</text>
<polygon fill="none" stroke="#000000" points="201,-72.5 201,-102.5 490,-102.5 490,-72.5 201,-72.5"/>
<text text-anchor="start" x="208" y="-83.9" font-family="Arial" font-size="14.00" fill="#000000">merge_date    </text>
<text text-anchor="start" x="316.8948" y="-83.9" font-family="Arial" font-size="14.00" fill="#666666">[timestamp with time zone]</text>
<polygon fill="none" stroke="#000000" points="201,-42.5 201,-72.5 490,-72.5 490,-42.5 201,-42.5"/>
<text text-anchor="start" x="208" y="-53.9" font-family="Arial" font-size="14.00" fill="#000000">merged_to    </text>
<text text-anchor="start" x="309.1122" y="-53.9" font-family="Arial" font-size="14.00" fill="#666666">[bigint]</text>
</g>
<!-- metabib.record_sorter&#45;&gt;biblio.record_entry -->
<g id="edge1" class="edge">
<title>metabib.record_sorter:source&#45;&gt;biblio.record_entry:id</title>
<path fill="none" stroke="#000000" d="M391.8243,-846.4097C351.8082,-836.9636 374.2476,-768.3381 402,-727 425.5538,-691.9158 466.4462,-726.0842 490,-691 513.1626,-656.4985 531.5556,-597.5 490,-597.5"/>
<polygon fill="#000000" stroke="#000000" points="392.0569,-846.4345 401.5205,-851.9744 397.0285,-846.9673 402,-847.5 402,-847.5 402,-847.5 397.0285,-846.9673 402.4795,-843.0256 392.0569,-846.4345 392.0569,-846.4345"/>
<text text-anchor="start" x="6.5495" y="-857.5" font-family="Arial" font-size="10.00" fill="#000000">FOREIGN KEY (source) REFERENCES biblio.record_entry(id) ON DELETE CASCADE</text>
</g>
<!-- config.record_attr_definition -->
<g id="node3" class="node">
<title>config.record_attr_definition</title>
<polygon fill="#efefef" stroke="transparent" points="594,-582.5 594,-617.5 957,-617.5 957,-582.5 594,-582.5"/>
<polygon fill="none" stroke="#000000" points="594,-582.5 594,-617.5 957,-617.5 957,-582.5 594,-582.5"/>
<text text-anchor="start" x="600.6893" y="-595.3" font-family="Arial Bold" font-size="18.00" fill="#000000">config.record_attr_definition</text>
<text text-anchor="start" x="822.7427" y="-595.3" font-family="Arial" font-size="14.00" fill="#000000">    </text>
<text text-anchor="start" x="856.9475" y="-595.3" font-family="Arial" font-size="14.00" fill="#666666">[BASE TABLE]</text>
<polygon fill="none" stroke="#000000" points="594,-552.5 594,-582.5 957,-582.5 957,-552.5 594,-552.5"/>
<text text-anchor="start" x="601" y="-563.9" font-family="Arial" font-size="14.00" fill="#000000">name    </text>
<text text-anchor="start" x="670.2132" y="-563.9" font-family="Arial" font-size="14.00" fill="#666666">[text]</text>
<polygon fill="none" stroke="#000000" points="594,-522.5 594,-552.5 957,-552.5 957,-522.5 594,-522.5"/>
<text text-anchor="start" x="601" y="-533.9" font-family="Arial" font-size="14.00" fill="#000000">label    </text>
<text text-anchor="start" x="664.7658" y="-533.9" font-family="Arial" font-size="14.00" fill="#666666">[text]</text>
<polygon fill="none" stroke="#000000" points="594,-492.5 594,-522.5 957,-522.5 957,-492.5 594,-492.5"/>
<text text-anchor="start" x="601" y="-503.9" font-family="Arial" font-size="14.00" fill="#000000">description    </text>
<text text-anchor="start" x="702.8822" y="-503.9" font-family="Arial" font-size="14.00" fill="#666666">[text]</text>
<polygon fill="none" stroke="#000000" points="594,-462.5 594,-492.5 957,-492.5 957,-462.5 594,-462.5"/>
<text text-anchor="start" x="601" y="-473.9" font-family="Arial" font-size="14.00" fill="#000000">multi    </text>
<text text-anchor="start" x="664.7518" y="-473.9" font-family="Arial" font-size="14.00" fill="#666666">[boolean]</text>
<polygon fill="none" stroke="#000000" points="594,-432.5 594,-462.5 957,-462.5 957,-432.5 594,-432.5"/>
<text text-anchor="start" x="601" y="-443.9" font-family="Arial" font-size="14.00" fill="#000000">filter    </text>
<text text-anchor="start" x="661.6424" y="-443.9" font-family="Arial" font-size="14.00" fill="#666666">[boolean]</text>
<polygon fill="none" stroke="#000000" points="594,-402.5 594,-432.5 957,-432.5 957,-402.5 594,-402.5"/>
<text text-anchor="start" x="601" y="-413.9" font-family="Arial" font-size="14.00" fill="#000000">sorter    </text>
<text text-anchor="start" x="670.9818" y="-413.9" font-family="Arial" font-size="14.00" fill="#666666">[boolean]</text>
<polygon fill="none" stroke="#000000" points="594,-372.5 594,-402.5 957,-402.5 957,-372.5 594,-372.5"/>
<text text-anchor="start" x="601" y="-383.9" font-family="Arial" font-size="14.00" fill="#000000">composite    </text>
<text text-anchor="start" x="698.993" y="-383.9" font-family="Arial" font-size="14.00" fill="#666666">[boolean]</text>
<polygon fill="none" stroke="#000000" points="594,-342.5 594,-372.5 957,-372.5 957,-342.5 594,-342.5"/>
<text text-anchor="start" x="601" y="-353.9" font-family="Arial" font-size="14.00" fill="#000000">tag    </text>
<text text-anchor="start" x="654.6606" y="-353.9" font-family="Arial" font-size="14.00" fill="#666666">[text]</text>
<polygon fill="none" stroke="#000000" points="594,-312.5 594,-342.5 957,-342.5 957,-312.5 594,-312.5"/>
<text text-anchor="start" x="601" y="-323.9" font-family="Arial" font-size="14.00" fill="#000000">sf_list    </text>
<text text-anchor="start" x="670.9818" y="-323.9" font-family="Arial" font-size="14.00" fill="#666666">[text]</text>
<polygon fill="none" stroke="#000000" points="594,-282.5 594,-312.5 957,-312.5 957,-282.5 594,-282.5"/>
<text text-anchor="start" x="601" y="-293.9" font-family="Arial" font-size="14.00" fill="#000000">joiner    </text>
<text text-anchor="start" x="669.4264" y="-293.9" font-family="Arial" font-size="14.00" fill="#666666">[text]</text>
<polygon fill="none" stroke="#000000" points="594,-252.5 594,-282.5 957,-282.5 957,-252.5 594,-252.5"/>
<text text-anchor="start" x="601" y="-263.9" font-family="Arial" font-size="14.00" fill="#000000">xpath    </text>
<text text-anchor="start" x="669.4432" y="-263.9" font-family="Arial" font-size="14.00" fill="#666666">[text]</text>
<polygon fill="none" stroke="#000000" points="594,-222.5 594,-252.5 957,-252.5 957,-222.5 594,-222.5"/>
<text text-anchor="start" x="601" y="-233.9" font-family="Arial" font-size="14.00" fill="#000000">format    </text>
<text text-anchor="start" x="674.8724" y="-233.9" font-family="Arial" font-size="14.00" fill="#666666">[text]</text>
<polygon fill="none" stroke="#000000" points="594,-192.5 594,-222.5 957,-222.5 957,-192.5 594,-192.5"/>
<text text-anchor="start" x="601" y="-203.9" font-family="Arial" font-size="14.00" fill="#000000">start_pos    </text>
<text text-anchor="start" x="692.777" y="-203.9" font-family="Arial" font-size="14.00" fill="#666666">[integer]</text>
<polygon fill="none" stroke="#000000" points="594,-162.5 594,-192.5 957,-192.5 957,-162.5 594,-162.5"/>
<text text-anchor="start" x="601" y="-173.9" font-family="Arial" font-size="14.00" fill="#000000">string_len    </text>
<text text-anchor="start" x="695.8822" y="-173.9" font-family="Arial" font-size="14.00" fill="#666666">[integer]</text>
<polygon fill="none" stroke="#000000" points="594,-132.5 594,-162.5 957,-162.5 957,-132.5 594,-132.5"/>
<text text-anchor="start" x="601" y="-143.9" font-family="Arial" font-size="14.00" fill="#000000">fixed_field    </text>
<text text-anchor="start" x="698.2188" y="-143.9" font-family="Arial" font-size="14.00" fill="#666666">[text]</text>
<polygon fill="none" stroke="#000000" points="594,-102.5 594,-132.5 957,-132.5 957,-102.5 594,-102.5"/>
<text text-anchor="start" x="601" y="-113.9" font-family="Arial" font-size="14.00" fill="#000000">phys_char_sf    </text>
<text text-anchor="start" x="718.4516" y="-113.9" font-family="Arial" font-size="14.00" fill="#666666">[integer]</text>
<polygon fill="none" stroke="#000000" points="594,-72.5 594,-102.5 957,-102.5 957,-72.5 594,-72.5"/>
<text text-anchor="start" x="601" y="-83.9" font-family="Arial" font-size="14.00" fill="#000000">vocabulary    </text>
<text text-anchor="start" x="702.885" y="-83.9" font-family="Arial" font-size="14.00" fill="#666666">[text]</text>
</g>
<!-- metabib.record_sorter&#45;&gt;config.record_attr_definition -->
<g id="edge2" class="edge">
<title>metabib.record_sorter:attr&#45;&gt;config.record_attr_definition:name</title>
<path fill="none" stroke="#000000" d="M729.1308,-815.9686C755.4097,-806.7582 737.738,-758.0832 719,-727 686.5653,-673.1962 626.4347,-714.8038 594,-661 572.5457,-625.411 552.4444,-567.5 594,-567.5"/>
<polygon fill="#000000" stroke="#000000" points="728.8877,-816.0053 718.3274,-813.0505 723.9438,-816.7527 719,-817.5 719,-817.5 719,-817.5 723.9438,-816.7527 719.6726,-821.9495 728.8877,-816.0053 728.8877,-816.0053"/>
<text text-anchor="start" x="726.1505" y="-827.5" font-family="Arial" font-size="10.00" fill="#000000">FOREIGN KEY (attr) REFERENCES config.record_attr_definition(name) ON DELETE CASCADE</text>
</g>
</g>
</svg>
