<?xml version="1.0" encoding="UTF-8" standalone="no"?>
<!DOCTYPE svg PUBLIC "-//W3C//DTD SVG 1.1//EN"
 "http://www.w3.org/Graphics/SVG/1.1/DTD/svg11.dtd">
<!-- Generated by graphviz version 2.40.1 (20161225.0304)
 -->
<!-- Title: metabib.combined_keyword_field_entry Pages: 1 -->
<svg width="558pt" height="225pt"
 viewBox="0.00 0.00 558.00 225.00" xmlns="http://www.w3.org/2000/svg" xmlns:xlink="http://www.w3.org/1999/xlink">
<g id="graph0" class="graph" transform="scale(1 1) rotate(0) translate(4 221)">
<title>metabib.combined_keyword_field_entry</title>
<polygon fill="#ffffff" stroke="transparent" points="-4,4 -4,-221 554,-221 554,4 -4,4"/>
<!-- metabib.combined_keyword_field_entry -->
<g id="node1" class="node">
<title>metabib.combined_keyword_field_entry</title>
<polygon fill="#efefef" stroke="transparent" points="46,-135.5 46,-170.5 504,-170.5 504,-135.5 46,-135.5"/>
<polygon fill="none" stroke="#000000" points="46,-135.5 46,-170.5 504,-170.5 504,-135.5 46,-135.5"/>
<text text-anchor="start" x="52.6828" y="-148.3" font-family="Arial Bold" font-size="18.00" fill="#000000">metabib.combined_keyword_field_entry</text>
<text text-anchor="start" x="369.7492" y="-148.3" font-family="Arial" font-size="14.00" fill="#000000">    </text>
<text text-anchor="start" x="403.954" y="-148.3" font-family="Arial" font-size="14.00" fill="#666666">[BASE TABLE]</text>
<polygon fill="none" stroke="#000000" points="46,-105.5 46,-135.5 504,-135.5 504,-105.5 46,-105.5"/>
<text text-anchor="start" x="53" y="-116.9" font-family="Arial" font-size="14.00" fill="#000000">record </text>
<text text-anchor="start" x="96.5596" y="-116.9" font-family="Arial" font-size="14.00" fill="#666666">[bigint]</text>
<polygon fill="none" stroke="#000000" points="46,-75.5 46,-105.5 504,-105.5 504,-75.5 46,-75.5"/>
<text text-anchor="start" x="53" y="-86.9" font-family="Arial" font-size="14.00" fill="#000000">metabib_field </text>
<text text-anchor="start" x="140.1304" y="-86.9" font-family="Arial" font-size="14.00" fill="#666666">[integer]</text>
<polygon fill="none" stroke="#000000" points="46,-45.5 46,-75.5 504,-75.5 504,-45.5 46,-45.5"/>
<text text-anchor="start" x="53" y="-56.9" font-family="Arial" font-size="14.00" fill="#000000">index_vector </text>
<text text-anchor="start" x="136.244" y="-56.9" font-family="Arial" font-size="14.00" fill="#666666">[tsvector]</text>
<polygon fill="none" stroke="#000000" stroke-width="3" points="44.5,-44.5 44.5,-172.5 505.5,-172.5 505.5,-44.5 44.5,-44.5"/>
</g>
</g>
</svg>
