<?xml version="1.0" encoding="UTF-8" standalone="no"?>
<!DOCTYPE svg PUBLIC "-//W3C//DTD SVG 1.1//EN"
 "http://www.w3.org/Graphics/SVG/1.1/DTD/svg11.dtd">
<!-- Generated by graphviz version 2.40.1 (20161225.0304)
 -->
<!-- Title: metabib.record_attr_vector_list Pages: 1 -->
<svg width="734pt" height="922pt"
 viewBox="0.00 0.00 734.00 922.00" xmlns="http://www.w3.org/2000/svg" xmlns:xlink="http://www.w3.org/1999/xlink">
<g id="graph0" class="graph" transform="scale(1 1) rotate(0) translate(4 918)">
<title>metabib.record_attr_vector_list</title>
<polygon fill="#ffffff" stroke="transparent" points="-4,4 -4,-918 730,-918 730,4 -4,4"/>
<!-- metabib.record_attr_vector_list -->
<g id="node1" class="node">
<title>metabib.record_attr_vector_list</title>
<polygon fill="#efefef" stroke="transparent" points="292,-832.5 292,-867.5 680,-867.5 680,-832.5 292,-832.5"/>
<polygon fill="none" stroke="#000000" points="292,-832.5 292,-867.5 680,-867.5 680,-832.5 292,-832.5"/>
<text text-anchor="start" x="298.6973" y="-845.3" font-family="Arial Bold" font-size="18.00" fill="#000000">metabib.record_attr_vector_list</text>
<text text-anchor="start" x="545.7347" y="-845.3" font-family="Arial" font-size="14.00" fill="#000000">    </text>
<text text-anchor="start" x="579.9395" y="-845.3" font-family="Arial" font-size="14.00" fill="#666666">[BASE TABLE]</text>
<polygon fill="none" stroke="#000000" points="292,-802.5 292,-832.5 680,-832.5 680,-802.5 292,-802.5"/>
<text text-anchor="start" x="299" y="-813.9" font-family="Arial" font-size="14.00" fill="#000000">source </text>
<text text-anchor="start" x="344.899" y="-813.9" font-family="Arial" font-size="14.00" fill="#666666">[bigint]</text>
<polygon fill="none" stroke="#000000" points="292,-772.5 292,-802.5 680,-802.5 680,-772.5 292,-772.5"/>
<text text-anchor="start" x="299" y="-783.9" font-family="Arial" font-size="14.00" fill="#000000">vlist </text>
<text text-anchor="start" x="326.9944" y="-783.9" font-family="Arial" font-size="14.00" fill="#666666">[integer[]]</text>
<polygon fill="none" stroke="#000000" stroke-width="3" points="290.5,-771.5 290.5,-869.5 681.5,-869.5 681.5,-771.5 290.5,-771.5"/>
</g>
<!-- biblio.record_entry -->
<g id="node2" class="node">
<title>biblio.record_entry</title>
<polygon fill="#efefef" stroke="transparent" points="341,-612.5 341,-647.5 630,-647.5 630,-612.5 341,-612.5"/>
<polygon fill="none" stroke="#000000" points="341,-612.5 341,-647.5 630,-647.5 630,-612.5 341,-612.5"/>
<text text-anchor="start" x="347.7063" y="-625.3" font-family="Arial Bold" font-size="18.00" fill="#000000">biblio.record_entry</text>
<text text-anchor="start" x="495.7257" y="-625.3" font-family="Arial" font-size="14.00" fill="#000000">    </text>
<text text-anchor="start" x="529.9305" y="-625.3" font-family="Arial" font-size="14.00" fill="#666666">[BASE TABLE]</text>
<polygon fill="none" stroke="#000000" points="341,-582.5 341,-612.5 630,-612.5 630,-582.5 341,-582.5"/>
<text text-anchor="start" x="348" y="-593.9" font-family="Arial" font-size="14.00" fill="#000000">id    </text>
<text text-anchor="start" x="393.094" y="-593.9" font-family="Arial" font-size="14.00" fill="#666666">[bigint]</text>
<polygon fill="none" stroke="#000000" points="341,-552.5 341,-582.5 630,-582.5 630,-552.5 341,-552.5"/>
<text text-anchor="start" x="348" y="-563.9" font-family="Arial" font-size="14.00" fill="#000000">creator    </text>
<text text-anchor="start" x="425.7644" y="-563.9" font-family="Arial" font-size="14.00" fill="#666666">[integer]</text>
<polygon fill="none" stroke="#000000" points="341,-522.5 341,-552.5 630,-552.5 630,-522.5 341,-522.5"/>
<text text-anchor="start" x="348" y="-533.9" font-family="Arial" font-size="14.00" fill="#000000">editor    </text>
<text text-anchor="start" x="417.2104" y="-533.9" font-family="Arial" font-size="14.00" fill="#666666">[integer]</text>
<polygon fill="none" stroke="#000000" points="341,-492.5 341,-522.5 630,-522.5 630,-492.5 341,-492.5"/>
<text text-anchor="start" x="348" y="-503.9" font-family="Arial" font-size="14.00" fill="#000000">source    </text>
<text text-anchor="start" x="424.2132" y="-503.9" font-family="Arial" font-size="14.00" fill="#666666">[integer]</text>
<polygon fill="none" stroke="#000000" points="341,-462.5 341,-492.5 630,-492.5 630,-462.5 341,-462.5"/>
<text text-anchor="start" x="348" y="-473.9" font-family="Arial" font-size="14.00" fill="#000000">quality    </text>
<text text-anchor="start" x="422.6564" y="-473.9" font-family="Arial" font-size="14.00" fill="#666666">[integer]</text>
<polygon fill="none" stroke="#000000" points="341,-432.5 341,-462.5 630,-462.5 630,-432.5 341,-432.5"/>
<text text-anchor="start" x="348" y="-443.9" font-family="Arial" font-size="14.00" fill="#000000">create_date    </text>
<text text-anchor="start" x="456.1248" y="-443.9" font-family="Arial" font-size="14.00" fill="#666666">[timestamp with time zone]</text>
<polygon fill="none" stroke="#000000" points="341,-402.5 341,-432.5 630,-432.5 630,-402.5 341,-402.5"/>
<text text-anchor="start" x="348" y="-413.9" font-family="Arial" font-size="14.00" fill="#000000">edit_date    </text>
<text text-anchor="start" x="439.7882" y="-413.9" font-family="Arial" font-size="14.00" fill="#666666">[timestamp with time zone]</text>
<polygon fill="none" stroke="#000000" points="341,-372.5 341,-402.5 630,-402.5 630,-372.5 341,-372.5"/>
<text text-anchor="start" x="348" y="-383.9" font-family="Arial" font-size="14.00" fill="#000000">active    </text>
<text text-anchor="start" x="418.7672" y="-383.9" font-family="Arial" font-size="14.00" fill="#666666">[boolean]</text>
<polygon fill="none" stroke="#000000" points="341,-342.5 341,-372.5 630,-372.5 630,-342.5 341,-342.5"/>
<text text-anchor="start" x="348" y="-353.9" font-family="Arial" font-size="14.00" fill="#000000">deleted    </text>
<text text-anchor="start" x="428.115" y="-353.9" font-family="Arial" font-size="14.00" fill="#666666">[boolean]</text>
<polygon fill="none" stroke="#000000" points="341,-312.5 341,-342.5 630,-342.5 630,-312.5 341,-312.5"/>
<text text-anchor="start" x="348" y="-323.9" font-family="Arial" font-size="14.00" fill="#000000">fingerprint    </text>
<text text-anchor="start" x="444.4334" y="-323.9" font-family="Arial" font-size="14.00" fill="#666666">[text]</text>
<polygon fill="none" stroke="#000000" points="341,-282.5 341,-312.5 630,-312.5 630,-282.5 341,-282.5"/>
<text text-anchor="start" x="348" y="-293.9" font-family="Arial" font-size="14.00" fill="#000000">tcn_source    </text>
<text text-anchor="start" x="450.669" y="-293.9" font-family="Arial" font-size="14.00" fill="#666666">[text]</text>
<polygon fill="none" stroke="#000000" points="341,-252.5 341,-282.5 630,-282.5 630,-252.5 341,-252.5"/>
<text text-anchor="start" x="348" y="-263.9" font-family="Arial" font-size="14.00" fill="#000000">tcn_value    </text>
<text text-anchor="start" x="442.115" y="-263.9" font-family="Arial" font-size="14.00" fill="#666666">[text]</text>
<polygon fill="none" stroke="#000000" points="341,-222.5 341,-252.5 630,-252.5 630,-222.5 341,-222.5"/>
<text text-anchor="start" x="348" y="-233.9" font-family="Arial" font-size="14.00" fill="#000000">marc    </text>
<text text-anchor="start" x="413.3086" y="-233.9" font-family="Arial" font-size="14.00" fill="#666666">[text]</text>
<polygon fill="none" stroke="#000000" points="341,-192.5 341,-222.5 630,-222.5 630,-192.5 341,-192.5"/>
<text text-anchor="start" x="348" y="-203.9" font-family="Arial" font-size="14.00" fill="#000000">last_xact_id    </text>
<text text-anchor="start" x="456.1122" y="-203.9" font-family="Arial" font-size="14.00" fill="#666666">[text]</text>
<polygon fill="none" stroke="#000000" points="341,-162.5 341,-192.5 630,-192.5 630,-162.5 341,-162.5"/>
<text text-anchor="start" x="348" y="-173.9" font-family="Arial" font-size="14.00" fill="#000000">vis_attr_vector    </text>
<text text-anchor="start" x="473.2174" y="-173.9" font-family="Arial" font-size="14.00" fill="#666666">[integer[]]</text>
<polygon fill="none" stroke="#000000" points="341,-132.5 341,-162.5 630,-162.5 630,-132.5 341,-132.5"/>
<text text-anchor="start" x="348" y="-143.9" font-family="Arial" font-size="14.00" fill="#000000">owner    </text>
<text text-anchor="start" x="420.3198" y="-143.9" font-family="Arial" font-size="14.00" fill="#666666">[integer]</text>
<polygon fill="none" stroke="#000000" points="341,-102.5 341,-132.5 630,-132.5 630,-102.5 341,-102.5"/>
<text text-anchor="start" x="348" y="-113.9" font-family="Arial" font-size="14.00" fill="#000000">share_depth    </text>
<text text-anchor="start" x="460.0168" y="-113.9" font-family="Arial" font-size="14.00" fill="#666666">[integer]</text>
<polygon fill="none" stroke="#000000" points="341,-72.5 341,-102.5 630,-102.5 630,-72.5 341,-72.5"/>
<text text-anchor="start" x="348" y="-83.9" font-family="Arial" font-size="14.00" fill="#000000">merge_date    </text>
<text text-anchor="start" x="456.8948" y="-83.9" font-family="Arial" font-size="14.00" fill="#666666">[timestamp with time zone]</text>
<polygon fill="none" stroke="#000000" points="341,-42.5 341,-72.5 630,-72.5 630,-42.5 341,-42.5"/>
<text text-anchor="start" x="348" y="-53.9" font-family="Arial" font-size="14.00" fill="#000000">merged_to    </text>
<text text-anchor="start" x="449.1122" y="-53.9" font-family="Arial" font-size="14.00" fill="#666666">[bigint]</text>
</g>
<!-- metabib.record_attr_vector_list&#45;&gt;biblio.record_entry -->
<g id="edge1" class="edge">
<title>metabib.record_attr_vector_list:source&#45;&gt;biblio.record_entry:id</title>
<path fill="none" stroke="#000000" d="M282.0665,-815.9776C254.3962,-806.409 267.6281,-754.1056 292,-727 342.5044,-670.8308 579.4956,-747.1692 630,-691 657.7846,-660.0989 671.5556,-597.5 630,-597.5"/>
<polygon fill="#000000" stroke="#000000" points="282.1154,-815.985 291.3183,-821.9481 287.0577,-816.7425 292,-817.5 292,-817.5 292,-817.5 287.0577,-816.7425 292.6817,-813.0519 282.1154,-815.985 282.1154,-815.985"/>
<text text-anchor="start" x="6.8305" y="-827.5" font-family="Arial" font-size="10.00" fill="#000000">FOREIGN KEY (source) REFERENCES biblio.record_entry(id)</text>
</g>
</g>
</svg>
