<?xml version="1.0" encoding="UTF-8" standalone="no"?>
<!DOCTYPE svg PUBLIC "-//W3C//DTD SVG 1.1//EN"
 "http://www.w3.org/Graphics/SVG/1.1/DTD/svg11.dtd">
<!-- Generated by graphviz version 2.40.1 (20161225.0304)
 -->
<!-- Title: metabib.browse_entry_def_map Pages: 1 -->
<svg width="1631pt" height="1012pt"
 viewBox="0.00 0.00 1631.00 1012.00" xmlns="http://www.w3.org/2000/svg" xmlns:xlink="http://www.w3.org/1999/xlink">
<g id="graph0" class="graph" transform="scale(1 1) rotate(0) translate(4 1008)">
<title>metabib.browse_entry_def_map</title>
<polygon fill="#ffffff" stroke="transparent" points="-4,4 -4,-1008 1627,-1008 1627,4 -4,4"/>
<!-- metabib.browse_entry_def_map -->
<g id="node1" class="node">
<title>metabib.browse_entry_def_map</title>
<polygon fill="#efefef" stroke="transparent" points="617,-922.5 617,-957.5 1015,-957.5 1015,-922.5 617,-922.5"/>
<polygon fill="none" stroke="#000000" points="617,-922.5 617,-957.5 1015,-957.5 1015,-922.5 617,-922.5"/>
<text text-anchor="start" x="623.6834" y="-935.3" font-family="Arial Bold" font-size="18.00" fill="#000000">metabib.browse_entry_def_map</text>
<text text-anchor="start" x="880.7486" y="-935.3" font-family="Arial" font-size="14.00" fill="#000000">    </text>
<text text-anchor="start" x="914.9534" y="-935.3" font-family="Arial" font-size="14.00" fill="#666666">[BASE TABLE]</text>
<polygon fill="none" stroke="#000000" points="617,-892.5 617,-922.5 1015,-922.5 1015,-892.5 617,-892.5"/>
<text text-anchor="start" x="624" y="-903.9" font-family="Arial" font-size="14.00" fill="#000000">id </text>
<text text-anchor="start" x="638.7798" y="-903.9" font-family="Arial" font-size="14.00" fill="#666666">[bigint]</text>
<polygon fill="none" stroke="#000000" points="617,-862.5 617,-892.5 1015,-892.5 1015,-862.5 617,-862.5"/>
<text text-anchor="start" x="624" y="-873.9" font-family="Arial" font-size="14.00" fill="#000000">entry </text>
<text text-anchor="start" x="659.007" y="-873.9" font-family="Arial" font-size="14.00" fill="#666666">[bigint]</text>
<polygon fill="none" stroke="#000000" points="617,-832.5 617,-862.5 1015,-862.5 1015,-832.5 617,-832.5"/>
<text text-anchor="start" x="624" y="-843.9" font-family="Arial" font-size="14.00" fill="#000000">def </text>
<text text-anchor="start" x="647.3464" y="-843.9" font-family="Arial" font-size="14.00" fill="#666666">[integer]</text>
<polygon fill="none" stroke="#000000" points="617,-802.5 617,-832.5 1015,-832.5 1015,-802.5 617,-802.5"/>
<text text-anchor="start" x="624" y="-813.9" font-family="Arial" font-size="14.00" fill="#000000">source </text>
<text text-anchor="start" x="669.899" y="-813.9" font-family="Arial" font-size="14.00" fill="#666666">[bigint]</text>
<polygon fill="none" stroke="#000000" points="617,-772.5 617,-802.5 1015,-802.5 1015,-772.5 617,-772.5"/>
<text text-anchor="start" x="624" y="-783.9" font-family="Arial" font-size="14.00" fill="#000000">authority </text>
<text text-anchor="start" x="681.5694" y="-783.9" font-family="Arial" font-size="14.00" fill="#666666">[bigint]</text>
<polygon fill="none" stroke="#000000" stroke-width="3" points="615.5,-771.5 615.5,-959.5 1016.5,-959.5 1016.5,-771.5 615.5,-771.5"/>
</g>
<!-- metabib.browse_entry -->
<g id="node2" class="node">
<title>metabib.browse_entry</title>
<polygon fill="#efefef" stroke="transparent" points="43,-387.5 43,-422.5 361,-422.5 361,-387.5 43,-387.5"/>
<polygon fill="none" stroke="#000000" points="43,-387.5 43,-422.5 361,-422.5 361,-387.5 43,-387.5"/>
<text text-anchor="start" x="49.6992" y="-400.3" font-family="Arial Bold" font-size="18.00" fill="#000000">metabib.browse_entry</text>
<text text-anchor="start" x="226.7328" y="-400.3" font-family="Arial" font-size="14.00" fill="#000000">    </text>
<text text-anchor="start" x="260.9376" y="-400.3" font-family="Arial" font-size="14.00" fill="#666666">[BASE TABLE]</text>
<polygon fill="none" stroke="#000000" points="43,-357.5 43,-387.5 361,-387.5 361,-357.5 43,-357.5"/>
<text text-anchor="start" x="50" y="-368.9" font-family="Arial" font-size="14.00" fill="#000000">id    </text>
<text text-anchor="start" x="95.094" y="-368.9" font-family="Arial" font-size="14.00" fill="#666666">[bigint]</text>
<polygon fill="none" stroke="#000000" points="43,-327.5 43,-357.5 361,-357.5 361,-327.5 43,-327.5"/>
<text text-anchor="start" x="50" y="-338.9" font-family="Arial" font-size="14.00" fill="#000000">value    </text>
<text text-anchor="start" x="117.6592" y="-338.9" font-family="Arial" font-size="14.00" fill="#666666">[text]</text>
<polygon fill="none" stroke="#000000" points="43,-297.5 43,-327.5 361,-327.5 361,-297.5 43,-297.5"/>
<text text-anchor="start" x="50" y="-308.9" font-family="Arial" font-size="14.00" fill="#000000">index_vector    </text>
<text text-anchor="start" x="163.5582" y="-308.9" font-family="Arial" font-size="14.00" fill="#666666">[tsvector]</text>
<polygon fill="none" stroke="#000000" points="43,-267.5 43,-297.5 361,-297.5 361,-267.5 43,-267.5"/>
<text text-anchor="start" x="50" y="-278.9" font-family="Arial" font-size="14.00" fill="#000000">sort_value    </text>
<text text-anchor="start" x="148.7756" y="-278.9" font-family="Arial" font-size="14.00" fill="#666666">[text]</text>
</g>
<!-- metabib.browse_entry_def_map&#45;&gt;metabib.browse_entry -->
<g id="edge1" class="edge">
<title>metabib.browse_entry_def_map:entry&#45;&gt;metabib.browse_entry:id</title>
<path fill="none" stroke="#000000" d="M606.8008,-877.3123C492.8407,-873.0323 469.8089,-795.9814 413,-691 378.8694,-627.9276 432.7149,-372.5 361,-372.5"/>
<polygon fill="#000000" stroke="#000000" points="607.0017,-877.3159 616.9172,-881.9992 612.0008,-877.408 617,-877.5 617,-877.5 617,-877.5 612.0008,-877.408 617.0828,-873.0008 607.0017,-877.3159 607.0017,-877.3159"/>
<text text-anchor="start" x="323.661" y="-887.5" font-family="Arial" font-size="10.00" fill="#000000">FOREIGN KEY (entry) REFERENCES metabib.browse_entry(id)</text>
</g>
<!-- config.metabib_field -->
<g id="node3" class="node">
<title>config.metabib_field</title>
<polygon fill="#efefef" stroke="transparent" points="466,-597.5 466,-632.5 767,-632.5 767,-597.5 466,-597.5"/>
<polygon fill="none" stroke="#000000" points="466,-597.5 466,-632.5 767,-632.5 767,-597.5 466,-597.5"/>
<text text-anchor="start" x="472.6961" y="-610.3" font-family="Arial Bold" font-size="18.00" fill="#000000">config.metabib_field</text>
<text text-anchor="start" x="632.7359" y="-610.3" font-family="Arial" font-size="14.00" fill="#000000">    </text>
<text text-anchor="start" x="666.9407" y="-610.3" font-family="Arial" font-size="14.00" fill="#666666">[BASE TABLE]</text>
<polygon fill="none" stroke="#000000" points="466,-567.5 466,-597.5 767,-597.5 767,-567.5 466,-567.5"/>
<text text-anchor="start" x="473" y="-578.9" font-family="Arial" font-size="14.00" fill="#000000">id    </text>
<text text-anchor="start" x="518.094" y="-578.9" font-family="Arial" font-size="14.00" fill="#666666">[integer]</text>
<polygon fill="none" stroke="#000000" points="466,-537.5 466,-567.5 767,-567.5 767,-537.5 466,-537.5"/>
<text text-anchor="start" x="473" y="-548.9" font-family="Arial" font-size="14.00" fill="#000000">field_class    </text>
<text text-anchor="start" x="572.5456" y="-548.9" font-family="Arial" font-size="14.00" fill="#666666">[text]</text>
<polygon fill="none" stroke="#000000" points="466,-507.5 466,-537.5 767,-537.5 767,-507.5 466,-507.5"/>
<text text-anchor="start" x="473" y="-518.9" font-family="Arial" font-size="14.00" fill="#000000">name    </text>
<text text-anchor="start" x="542.2132" y="-518.9" font-family="Arial" font-size="14.00" fill="#666666">[text]</text>
<polygon fill="none" stroke="#000000" points="466,-477.5 466,-507.5 767,-507.5 767,-477.5 466,-477.5"/>
<text text-anchor="start" x="473" y="-488.9" font-family="Arial" font-size="14.00" fill="#000000">label    </text>
<text text-anchor="start" x="536.7658" y="-488.9" font-family="Arial" font-size="14.00" fill="#666666">[text]</text>
<polygon fill="none" stroke="#000000" points="466,-447.5 466,-477.5 767,-477.5 767,-447.5 466,-447.5"/>
<text text-anchor="start" x="473" y="-458.9" font-family="Arial" font-size="14.00" fill="#000000">xpath    </text>
<text text-anchor="start" x="541.4432" y="-458.9" font-family="Arial" font-size="14.00" fill="#666666">[text]</text>
<polygon fill="none" stroke="#000000" points="466,-417.5 466,-447.5 767,-447.5 767,-417.5 466,-417.5"/>
<text text-anchor="start" x="473" y="-428.9" font-family="Arial" font-size="14.00" fill="#000000">weight    </text>
<text text-anchor="start" x="547.6564" y="-428.9" font-family="Arial" font-size="14.00" fill="#666666">[integer]</text>
<polygon fill="none" stroke="#000000" points="466,-387.5 466,-417.5 767,-417.5 767,-387.5 466,-387.5"/>
<text text-anchor="start" x="473" y="-398.9" font-family="Arial" font-size="14.00" fill="#000000">format    </text>
<text text-anchor="start" x="546.8724" y="-398.9" font-family="Arial" font-size="14.00" fill="#666666">[text]</text>
<polygon fill="none" stroke="#000000" points="466,-357.5 466,-387.5 767,-387.5 767,-357.5 466,-357.5"/>
<text text-anchor="start" x="473" y="-368.9" font-family="Arial" font-size="14.00" fill="#000000">search_field    </text>
<text text-anchor="start" x="582.6648" y="-368.9" font-family="Arial" font-size="14.00" fill="#666666">[boolean]</text>
<polygon fill="none" stroke="#000000" points="466,-327.5 466,-357.5 767,-357.5 767,-327.5 466,-327.5"/>
<text text-anchor="start" x="473" y="-338.9" font-family="Arial" font-size="14.00" fill="#000000">facet_field    </text>
<text text-anchor="start" x="571.0028" y="-338.9" font-family="Arial" font-size="14.00" fill="#666666">[boolean]</text>
<polygon fill="none" stroke="#000000" points="466,-297.5 466,-327.5 767,-327.5 767,-297.5 466,-297.5"/>
<text text-anchor="start" x="473" y="-308.9" font-family="Arial" font-size="14.00" fill="#000000">browse_field    </text>
<text text-anchor="start" x="585.7714" y="-308.9" font-family="Arial" font-size="14.00" fill="#666666">[boolean]</text>
<polygon fill="none" stroke="#000000" points="466,-267.5 466,-297.5 767,-297.5 767,-267.5 466,-267.5"/>
<text text-anchor="start" x="473" y="-278.9" font-family="Arial" font-size="14.00" fill="#000000">browse_xpath    </text>
<text text-anchor="start" x="594.3408" y="-278.9" font-family="Arial" font-size="14.00" fill="#666666">[text]</text>
<polygon fill="none" stroke="#000000" points="466,-237.5 466,-267.5 767,-267.5 767,-237.5 466,-237.5"/>
<text text-anchor="start" x="473" y="-248.9" font-family="Arial" font-size="14.00" fill="#000000">browse_sort_xpath    </text>
<text text-anchor="start" x="625.4572" y="-248.9" font-family="Arial" font-size="14.00" fill="#666666">[text]</text>
<polygon fill="none" stroke="#000000" points="466,-207.5 466,-237.5 767,-237.5 767,-207.5 466,-207.5"/>
<text text-anchor="start" x="473" y="-218.9" font-family="Arial" font-size="14.00" fill="#000000">facet_xpath    </text>
<text text-anchor="start" x="579.5722" y="-218.9" font-family="Arial" font-size="14.00" fill="#666666">[text]</text>
<polygon fill="none" stroke="#000000" points="466,-177.5 466,-207.5 767,-207.5 767,-177.5 466,-177.5"/>
<text text-anchor="start" x="473" y="-188.9" font-family="Arial" font-size="14.00" fill="#000000">display_xpath    </text>
<text text-anchor="start" x="592.7868" y="-188.9" font-family="Arial" font-size="14.00" fill="#666666">[text]</text>
<polygon fill="none" stroke="#000000" points="466,-147.5 466,-177.5 767,-177.5 767,-147.5 466,-147.5"/>
<text text-anchor="start" x="473" y="-158.9" font-family="Arial" font-size="14.00" fill="#000000">authority_xpath    </text>
<text text-anchor="start" x="602.9046" y="-158.9" font-family="Arial" font-size="14.00" fill="#666666">[text]</text>
<polygon fill="none" stroke="#000000" points="466,-117.5 466,-147.5 767,-147.5 767,-117.5 466,-117.5"/>
<text text-anchor="start" x="473" y="-128.9" font-family="Arial" font-size="14.00" fill="#000000">joiner    </text>
<text text-anchor="start" x="541.4264" y="-128.9" font-family="Arial" font-size="14.00" fill="#666666">[text]</text>
<polygon fill="none" stroke="#000000" points="466,-87.5 466,-117.5 767,-117.5 767,-87.5 466,-87.5"/>
<text text-anchor="start" x="473" y="-98.9" font-family="Arial" font-size="14.00" fill="#000000">restrict    </text>
<text text-anchor="start" x="549.1964" y="-98.9" font-family="Arial" font-size="14.00" fill="#666666">[boolean]</text>
<polygon fill="none" stroke="#000000" points="466,-57.5 466,-87.5 767,-87.5 767,-57.5 466,-57.5"/>
<text text-anchor="start" x="473" y="-68.9" font-family="Arial" font-size="14.00" fill="#000000">display_field    </text>
<text text-anchor="start" x="584.2174" y="-68.9" font-family="Arial" font-size="14.00" fill="#666666">[boolean]</text>
</g>
<!-- metabib.browse_entry_def_map&#45;&gt;config.metabib_field -->
<g id="edge2" class="edge">
<title>metabib.browse_entry_def_map:def&#45;&gt;config.metabib_field:id</title>
<path fill="none" stroke="#000000" d="M606.8059,-846.3969C566.634,-836.8427 588.0084,-767.4787 617,-727 658.001,-669.7537 725.999,-733.2463 767,-676 791.1969,-642.2158 808.5556,-582.5 767,-582.5"/>
<polygon fill="#000000" stroke="#000000" points="607.058,-846.4241 616.5159,-851.9739 612.029,-846.9621 617,-847.5 617,-847.5 617,-847.5 612.029,-846.9621 617.4841,-843.0261 607.058,-846.4241 607.058,-846.4241"/>
<text text-anchor="start" x="53.375" y="-857.5" font-family="Arial" font-size="10.00" fill="#000000">FOREIGN KEY (def) REFERENCES config.metabib_field(id) ON UPDATE CASCADE DEFERRABLE INITIALLY DEFERRED</text>
</g>
<!-- biblio.record_entry -->
<g id="node4" class="node">
<title>biblio.record_entry</title>
<polygon fill="#efefef" stroke="transparent" points="871,-612.5 871,-647.5 1160,-647.5 1160,-612.5 871,-612.5"/>
<polygon fill="none" stroke="#000000" points="871,-612.5 871,-647.5 1160,-647.5 1160,-612.5 871,-612.5"/>
<text text-anchor="start" x="877.7063" y="-625.3" font-family="Arial Bold" font-size="18.00" fill="#000000">biblio.record_entry</text>
<text text-anchor="start" x="1025.7257" y="-625.3" font-family="Arial" font-size="14.00" fill="#000000">    </text>
<text text-anchor="start" x="1059.9305" y="-625.3" font-family="Arial" font-size="14.00" fill="#666666">[BASE TABLE]</text>
<polygon fill="none" stroke="#000000" points="871,-582.5 871,-612.5 1160,-612.5 1160,-582.5 871,-582.5"/>
<text text-anchor="start" x="878" y="-593.9" font-family="Arial" font-size="14.00" fill="#000000">id    </text>
<text text-anchor="start" x="923.094" y="-593.9" font-family="Arial" font-size="14.00" fill="#666666">[bigint]</text>
<polygon fill="none" stroke="#000000" points="871,-552.5 871,-582.5 1160,-582.5 1160,-552.5 871,-552.5"/>
<text text-anchor="start" x="878" y="-563.9" font-family="Arial" font-size="14.00" fill="#000000">creator    </text>
<text text-anchor="start" x="955.7644" y="-563.9" font-family="Arial" font-size="14.00" fill="#666666">[integer]</text>
<polygon fill="none" stroke="#000000" points="871,-522.5 871,-552.5 1160,-552.5 1160,-522.5 871,-522.5"/>
<text text-anchor="start" x="878" y="-533.9" font-family="Arial" font-size="14.00" fill="#000000">editor    </text>
<text text-anchor="start" x="947.2104" y="-533.9" font-family="Arial" font-size="14.00" fill="#666666">[integer]</text>
<polygon fill="none" stroke="#000000" points="871,-492.5 871,-522.5 1160,-522.5 1160,-492.5 871,-492.5"/>
<text text-anchor="start" x="878" y="-503.9" font-family="Arial" font-size="14.00" fill="#000000">source    </text>
<text text-anchor="start" x="954.2132" y="-503.9" font-family="Arial" font-size="14.00" fill="#666666">[integer]</text>
<polygon fill="none" stroke="#000000" points="871,-462.5 871,-492.5 1160,-492.5 1160,-462.5 871,-462.5"/>
<text text-anchor="start" x="878" y="-473.9" font-family="Arial" font-size="14.00" fill="#000000">quality    </text>
<text text-anchor="start" x="952.6564" y="-473.9" font-family="Arial" font-size="14.00" fill="#666666">[integer]</text>
<polygon fill="none" stroke="#000000" points="871,-432.5 871,-462.5 1160,-462.5 1160,-432.5 871,-432.5"/>
<text text-anchor="start" x="878" y="-443.9" font-family="Arial" font-size="14.00" fill="#000000">create_date    </text>
<text text-anchor="start" x="986.1248" y="-443.9" font-family="Arial" font-size="14.00" fill="#666666">[timestamp with time zone]</text>
<polygon fill="none" stroke="#000000" points="871,-402.5 871,-432.5 1160,-432.5 1160,-402.5 871,-402.5"/>
<text text-anchor="start" x="878" y="-413.9" font-family="Arial" font-size="14.00" fill="#000000">edit_date    </text>
<text text-anchor="start" x="969.7882" y="-413.9" font-family="Arial" font-size="14.00" fill="#666666">[timestamp with time zone]</text>
<polygon fill="none" stroke="#000000" points="871,-372.5 871,-402.5 1160,-402.5 1160,-372.5 871,-372.5"/>
<text text-anchor="start" x="878" y="-383.9" font-family="Arial" font-size="14.00" fill="#000000">active    </text>
<text text-anchor="start" x="948.7672" y="-383.9" font-family="Arial" font-size="14.00" fill="#666666">[boolean]</text>
<polygon fill="none" stroke="#000000" points="871,-342.5 871,-372.5 1160,-372.5 1160,-342.5 871,-342.5"/>
<text text-anchor="start" x="878" y="-353.9" font-family="Arial" font-size="14.00" fill="#000000">deleted    </text>
<text text-anchor="start" x="958.115" y="-353.9" font-family="Arial" font-size="14.00" fill="#666666">[boolean]</text>
<polygon fill="none" stroke="#000000" points="871,-312.5 871,-342.5 1160,-342.5 1160,-312.5 871,-312.5"/>
<text text-anchor="start" x="878" y="-323.9" font-family="Arial" font-size="14.00" fill="#000000">fingerprint    </text>
<text text-anchor="start" x="974.4334" y="-323.9" font-family="Arial" font-size="14.00" fill="#666666">[text]</text>
<polygon fill="none" stroke="#000000" points="871,-282.5 871,-312.5 1160,-312.5 1160,-282.5 871,-282.5"/>
<text text-anchor="start" x="878" y="-293.9" font-family="Arial" font-size="14.00" fill="#000000">tcn_source    </text>
<text text-anchor="start" x="980.669" y="-293.9" font-family="Arial" font-size="14.00" fill="#666666">[text]</text>
<polygon fill="none" stroke="#000000" points="871,-252.5 871,-282.5 1160,-282.5 1160,-252.5 871,-252.5"/>
<text text-anchor="start" x="878" y="-263.9" font-family="Arial" font-size="14.00" fill="#000000">tcn_value    </text>
<text text-anchor="start" x="972.115" y="-263.9" font-family="Arial" font-size="14.00" fill="#666666">[text]</text>
<polygon fill="none" stroke="#000000" points="871,-222.5 871,-252.5 1160,-252.5 1160,-222.5 871,-222.5"/>
<text text-anchor="start" x="878" y="-233.9" font-family="Arial" font-size="14.00" fill="#000000">marc    </text>
<text text-anchor="start" x="943.3086" y="-233.9" font-family="Arial" font-size="14.00" fill="#666666">[text]</text>
<polygon fill="none" stroke="#000000" points="871,-192.5 871,-222.5 1160,-222.5 1160,-192.5 871,-192.5"/>
<text text-anchor="start" x="878" y="-203.9" font-family="Arial" font-size="14.00" fill="#000000">last_xact_id    </text>
<text text-anchor="start" x="986.1122" y="-203.9" font-family="Arial" font-size="14.00" fill="#666666">[text]</text>
<polygon fill="none" stroke="#000000" points="871,-162.5 871,-192.5 1160,-192.5 1160,-162.5 871,-162.5"/>
<text text-anchor="start" x="878" y="-173.9" font-family="Arial" font-size="14.00" fill="#000000">vis_attr_vector    </text>
<text text-anchor="start" x="1003.2174" y="-173.9" font-family="Arial" font-size="14.00" fill="#666666">[integer[]]</text>
<polygon fill="none" stroke="#000000" points="871,-132.5 871,-162.5 1160,-162.5 1160,-132.5 871,-132.5"/>
<text text-anchor="start" x="878" y="-143.9" font-family="Arial" font-size="14.00" fill="#000000">owner    </text>
<text text-anchor="start" x="950.3198" y="-143.9" font-family="Arial" font-size="14.00" fill="#666666">[integer]</text>
<polygon fill="none" stroke="#000000" points="871,-102.5 871,-132.5 1160,-132.5 1160,-102.5 871,-102.5"/>
<text text-anchor="start" x="878" y="-113.9" font-family="Arial" font-size="14.00" fill="#000000">share_depth    </text>
<text text-anchor="start" x="990.0168" y="-113.9" font-family="Arial" font-size="14.00" fill="#666666">[integer]</text>
<polygon fill="none" stroke="#000000" points="871,-72.5 871,-102.5 1160,-102.5 1160,-72.5 871,-72.5"/>
<text text-anchor="start" x="878" y="-83.9" font-family="Arial" font-size="14.00" fill="#000000">merge_date    </text>
<text text-anchor="start" x="986.8948" y="-83.9" font-family="Arial" font-size="14.00" fill="#666666">[timestamp with time zone]</text>
<polygon fill="none" stroke="#000000" points="871,-42.5 871,-72.5 1160,-72.5 1160,-42.5 871,-42.5"/>
<text text-anchor="start" x="878" y="-53.9" font-family="Arial" font-size="14.00" fill="#000000">merged_to    </text>
<text text-anchor="start" x="979.1122" y="-53.9" font-family="Arial" font-size="14.00" fill="#666666">[bigint]</text>
</g>
<!-- metabib.browse_entry_def_map&#45;&gt;biblio.record_entry -->
<g id="edge3" class="edge">
<title>metabib.browse_entry_def_map:source&#45;&gt;biblio.record_entry:id</title>
<path fill="none" stroke="#000000" d="M1025.2337,-815.8978C1052.1124,-806.2747 1037.3359,-755.6073 1015,-727 974.4014,-675.0023 911.5986,-742.9977 871,-691 845.4262,-658.2457 829.4444,-597.5 871,-597.5"/>
<polygon fill="#000000" stroke="#000000" points="1024.8797,-815.9532 1014.3039,-813.0542 1019.9398,-816.7266 1015,-817.5 1015,-817.5 1015,-817.5 1019.9398,-816.7266 1015.6961,-821.9458 1024.8797,-815.9532 1024.8797,-815.9532"/>
<text text-anchor="start" x="1021.8305" y="-827.5" font-family="Arial" font-size="10.00" fill="#000000">FOREIGN KEY (source) REFERENCES biblio.record_entry(id)</text>
</g>
<!-- authority.record_entry -->
<g id="node5" class="node">
<title>authority.record_entry</title>
<polygon fill="#efefef" stroke="transparent" points="1264,-537.5 1264,-572.5 1580,-572.5 1580,-537.5 1264,-537.5"/>
<polygon fill="none" stroke="#000000" points="1264,-537.5 1264,-572.5 1580,-572.5 1580,-537.5 1264,-537.5"/>
<text text-anchor="start" x="1270.6991" y="-550.3" font-family="Arial Bold" font-size="18.00" fill="#000000">authority.record_entry</text>
<text text-anchor="start" x="1445.7329" y="-550.3" font-family="Arial" font-size="14.00" fill="#000000">    </text>
<text text-anchor="start" x="1479.9377" y="-550.3" font-family="Arial" font-size="14.00" fill="#666666">[BASE TABLE]</text>
<polygon fill="none" stroke="#000000" points="1264,-507.5 1264,-537.5 1580,-537.5 1580,-507.5 1264,-507.5"/>
<text text-anchor="start" x="1271" y="-518.9" font-family="Arial" font-size="14.00" fill="#000000">id    </text>
<text text-anchor="start" x="1316.094" y="-518.9" font-family="Arial" font-size="14.00" fill="#666666">[bigint]</text>
<polygon fill="none" stroke="#000000" points="1264,-477.5 1264,-507.5 1580,-507.5 1580,-477.5 1264,-477.5"/>
<text text-anchor="start" x="1271" y="-488.9" font-family="Arial" font-size="14.00" fill="#000000">create_date    </text>
<text text-anchor="start" x="1379.1248" y="-488.9" font-family="Arial" font-size="14.00" fill="#666666">[timestamp with time zone]</text>
<polygon fill="none" stroke="#000000" points="1264,-447.5 1264,-477.5 1580,-477.5 1580,-447.5 1264,-447.5"/>
<text text-anchor="start" x="1271" y="-458.9" font-family="Arial" font-size="14.00" fill="#000000">edit_date    </text>
<text text-anchor="start" x="1362.7882" y="-458.9" font-family="Arial" font-size="14.00" fill="#666666">[timestamp with time zone]</text>
<polygon fill="none" stroke="#000000" points="1264,-417.5 1264,-447.5 1580,-447.5 1580,-417.5 1264,-417.5"/>
<text text-anchor="start" x="1271" y="-428.9" font-family="Arial" font-size="14.00" fill="#000000">creator    </text>
<text text-anchor="start" x="1348.7644" y="-428.9" font-family="Arial" font-size="14.00" fill="#666666">[integer]</text>
<polygon fill="none" stroke="#000000" points="1264,-387.5 1264,-417.5 1580,-417.5 1580,-387.5 1264,-387.5"/>
<text text-anchor="start" x="1271" y="-398.9" font-family="Arial" font-size="14.00" fill="#000000">editor    </text>
<text text-anchor="start" x="1340.2104" y="-398.9" font-family="Arial" font-size="14.00" fill="#666666">[integer]</text>
<polygon fill="none" stroke="#000000" points="1264,-357.5 1264,-387.5 1580,-387.5 1580,-357.5 1264,-357.5"/>
<text text-anchor="start" x="1271" y="-368.9" font-family="Arial" font-size="14.00" fill="#000000">active    </text>
<text text-anchor="start" x="1341.7672" y="-368.9" font-family="Arial" font-size="14.00" fill="#666666">[boolean]</text>
<polygon fill="none" stroke="#000000" points="1264,-327.5 1264,-357.5 1580,-357.5 1580,-327.5 1264,-327.5"/>
<text text-anchor="start" x="1271" y="-338.9" font-family="Arial" font-size="14.00" fill="#000000">deleted    </text>
<text text-anchor="start" x="1351.115" y="-338.9" font-family="Arial" font-size="14.00" fill="#666666">[boolean]</text>
<polygon fill="none" stroke="#000000" points="1264,-297.5 1264,-327.5 1580,-327.5 1580,-297.5 1264,-297.5"/>
<text text-anchor="start" x="1271" y="-308.9" font-family="Arial" font-size="14.00" fill="#000000">source    </text>
<text text-anchor="start" x="1347.2132" y="-308.9" font-family="Arial" font-size="14.00" fill="#666666">[integer]</text>
<polygon fill="none" stroke="#000000" points="1264,-267.5 1264,-297.5 1580,-297.5 1580,-267.5 1264,-267.5"/>
<text text-anchor="start" x="1271" y="-278.9" font-family="Arial" font-size="14.00" fill="#000000">control_set    </text>
<text text-anchor="start" x="1373.6662" y="-278.9" font-family="Arial" font-size="14.00" fill="#666666">[integer]</text>
<polygon fill="none" stroke="#000000" points="1264,-237.5 1264,-267.5 1580,-267.5 1580,-237.5 1264,-237.5"/>
<text text-anchor="start" x="1271" y="-248.9" font-family="Arial" font-size="14.00" fill="#000000">marc    </text>
<text text-anchor="start" x="1336.3086" y="-248.9" font-family="Arial" font-size="14.00" fill="#666666">[text]</text>
<polygon fill="none" stroke="#000000" points="1264,-207.5 1264,-237.5 1580,-237.5 1580,-207.5 1264,-207.5"/>
<text text-anchor="start" x="1271" y="-218.9" font-family="Arial" font-size="14.00" fill="#000000">last_xact_id    </text>
<text text-anchor="start" x="1379.1122" y="-218.9" font-family="Arial" font-size="14.00" fill="#666666">[text]</text>
<polygon fill="none" stroke="#000000" points="1264,-177.5 1264,-207.5 1580,-207.5 1580,-177.5 1264,-177.5"/>
<text text-anchor="start" x="1271" y="-188.9" font-family="Arial" font-size="14.00" fill="#000000">owner    </text>
<text text-anchor="start" x="1343.3198" y="-188.9" font-family="Arial" font-size="14.00" fill="#666666">[integer]</text>
<polygon fill="none" stroke="#000000" points="1264,-147.5 1264,-177.5 1580,-177.5 1580,-147.5 1264,-147.5"/>
<text text-anchor="start" x="1271" y="-158.9" font-family="Arial" font-size="14.00" fill="#000000">heading    </text>
<text text-anchor="start" x="1355.007" y="-158.9" font-family="Arial" font-size="14.00" fill="#666666">[text]</text>
<polygon fill="none" stroke="#000000" points="1264,-117.5 1264,-147.5 1580,-147.5 1580,-117.5 1264,-117.5"/>
<text text-anchor="start" x="1271" y="-128.9" font-family="Arial" font-size="14.00" fill="#000000">simple_heading    </text>
<text text-anchor="start" x="1403.2286" y="-128.9" font-family="Arial" font-size="14.00" fill="#666666">[text]</text>
</g>
<!-- metabib.browse_entry_def_map&#45;&gt;authority.record_entry -->
<g id="edge4" class="edge">
<title>metabib.browse_entry_def_map:authority&#45;&gt;authority.record_entry:id</title>
<path fill="none" stroke="#000000" d="M1025.0592,-787.4157C1115.0713,-785.8616 1150.8747,-762.5019 1212,-691 1262.9272,-631.4274 1185.6261,-522.5 1264,-522.5"/>
<polygon fill="#000000" stroke="#000000" points="1024.9996,-787.4161 1014.9622,-783.0002 1019.9998,-787.458 1015,-787.5 1015,-787.5 1015,-787.5 1019.9998,-787.458 1015.0378,-791.9998 1024.9996,-787.4161 1024.9996,-787.4161"/>
<text text-anchor="start" x="1022.153" y="-797.5" font-family="Arial" font-size="10.00" fill="#000000">FOREIGN KEY (authority) REFERENCES authority.record_entry(id) ON DELETE SET NULL</text>
</g>
</g>
</svg>
