<?xml version="1.0" encoding="UTF-8" standalone="no"?>
<!DOCTYPE svg PUBLIC "-//W3C//DTD SVG 1.1//EN"
 "http://www.w3.org/Graphics/SVG/1.1/DTD/svg11.dtd">
<!-- Generated by graphviz version 2.40.1 (20161225.0304)
 -->
<!-- Title: metabib.subject_field_entry Pages: 1 -->
<svg width="1521pt" height="1012pt"
 viewBox="0.00 0.00 1521.00 1012.00" xmlns="http://www.w3.org/2000/svg" xmlns:xlink="http://www.w3.org/1999/xlink">
<g id="graph0" class="graph" transform="scale(1 1) rotate(0) translate(4 1008)">
<title>metabib.subject_field_entry</title>
<polygon fill="#ffffff" stroke="transparent" points="-4,4 -4,-1008 1517,-1008 1517,4 -4,4"/>
<!-- metabib.subject_field_entry -->
<g id="node1" class="node">
<title>metabib.subject_field_entry</title>
<polygon fill="#efefef" stroke="transparent" points="579,-922.5 579,-957.5 939,-957.5 939,-922.5 579,-922.5"/>
<polygon fill="none" stroke="#000000" points="579,-922.5 579,-957.5 939,-957.5 939,-922.5 579,-922.5"/>
<text text-anchor="start" x="585.6896" y="-935.3" font-family="Arial Bold" font-size="18.00" fill="#000000">metabib.subject_field_entry</text>
<text text-anchor="start" x="804.7424" y="-935.3" font-family="Arial" font-size="14.00" fill="#000000">    </text>
<text text-anchor="start" x="838.9472" y="-935.3" font-family="Arial" font-size="14.00" fill="#666666">[BASE TABLE]</text>
<polygon fill="none" stroke="#000000" points="579,-892.5 579,-922.5 939,-922.5 939,-892.5 579,-892.5"/>
<text text-anchor="start" x="586" y="-903.9" font-family="Arial" font-size="14.00" fill="#000000">id </text>
<text text-anchor="start" x="600.7798" y="-903.9" font-family="Arial" font-size="14.00" fill="#666666">[bigint]</text>
<polygon fill="none" stroke="#000000" points="579,-862.5 579,-892.5 939,-892.5 939,-862.5 579,-862.5"/>
<text text-anchor="start" x="586" y="-873.9" font-family="Arial" font-size="14.00" fill="#000000">source </text>
<text text-anchor="start" x="631.899" y="-873.9" font-family="Arial" font-size="14.00" fill="#666666">[bigint]</text>
<polygon fill="none" stroke="#000000" points="579,-832.5 579,-862.5 939,-862.5 939,-832.5 579,-832.5"/>
<text text-anchor="start" x="586" y="-843.9" font-family="Arial" font-size="14.00" fill="#000000">field </text>
<text text-anchor="start" x="615.5596" y="-843.9" font-family="Arial" font-size="14.00" fill="#666666">[integer]</text>
<polygon fill="none" stroke="#000000" points="579,-802.5 579,-832.5 939,-832.5 939,-802.5 579,-802.5"/>
<text text-anchor="start" x="586" y="-813.9" font-family="Arial" font-size="14.00" fill="#000000">value </text>
<text text-anchor="start" x="623.345" y="-813.9" font-family="Arial" font-size="14.00" fill="#666666">[text]</text>
<polygon fill="none" stroke="#000000" points="579,-772.5 579,-802.5 939,-802.5 939,-772.5 579,-772.5"/>
<text text-anchor="start" x="586" y="-783.9" font-family="Arial" font-size="14.00" fill="#000000">index_vector </text>
<text text-anchor="start" x="669.244" y="-783.9" font-family="Arial" font-size="14.00" fill="#666666">[tsvector]</text>
<polygon fill="none" stroke="#000000" stroke-width="3" points="577.5,-771.5 577.5,-959.5 940.5,-959.5 940.5,-771.5 577.5,-771.5"/>
</g>
<!-- biblio.record_entry -->
<g id="node2" class="node">
<title>biblio.record_entry</title>
<polygon fill="#efefef" stroke="transparent" points="415,-612.5 415,-647.5 704,-647.5 704,-612.5 415,-612.5"/>
<polygon fill="none" stroke="#000000" points="415,-612.5 415,-647.5 704,-647.5 704,-612.5 415,-612.5"/>
<text text-anchor="start" x="421.7063" y="-625.3" font-family="Arial Bold" font-size="18.00" fill="#000000">biblio.record_entry</text>
<text text-anchor="start" x="569.7257" y="-625.3" font-family="Arial" font-size="14.00" fill="#000000">    </text>
<text text-anchor="start" x="603.9305" y="-625.3" font-family="Arial" font-size="14.00" fill="#666666">[BASE TABLE]</text>
<polygon fill="none" stroke="#000000" points="415,-582.5 415,-612.5 704,-612.5 704,-582.5 415,-582.5"/>
<text text-anchor="start" x="422" y="-593.9" font-family="Arial" font-size="14.00" fill="#000000">id    </text>
<text text-anchor="start" x="467.094" y="-593.9" font-family="Arial" font-size="14.00" fill="#666666">[bigint]</text>
<polygon fill="none" stroke="#000000" points="415,-552.5 415,-582.5 704,-582.5 704,-552.5 415,-552.5"/>
<text text-anchor="start" x="422" y="-563.9" font-family="Arial" font-size="14.00" fill="#000000">creator    </text>
<text text-anchor="start" x="499.7644" y="-563.9" font-family="Arial" font-size="14.00" fill="#666666">[integer]</text>
<polygon fill="none" stroke="#000000" points="415,-522.5 415,-552.5 704,-552.5 704,-522.5 415,-522.5"/>
<text text-anchor="start" x="422" y="-533.9" font-family="Arial" font-size="14.00" fill="#000000">editor    </text>
<text text-anchor="start" x="491.2104" y="-533.9" font-family="Arial" font-size="14.00" fill="#666666">[integer]</text>
<polygon fill="none" stroke="#000000" points="415,-492.5 415,-522.5 704,-522.5 704,-492.5 415,-492.5"/>
<text text-anchor="start" x="422" y="-503.9" font-family="Arial" font-size="14.00" fill="#000000">source    </text>
<text text-anchor="start" x="498.2132" y="-503.9" font-family="Arial" font-size="14.00" fill="#666666">[integer]</text>
<polygon fill="none" stroke="#000000" points="415,-462.5 415,-492.5 704,-492.5 704,-462.5 415,-462.5"/>
<text text-anchor="start" x="422" y="-473.9" font-family="Arial" font-size="14.00" fill="#000000">quality    </text>
<text text-anchor="start" x="496.6564" y="-473.9" font-family="Arial" font-size="14.00" fill="#666666">[integer]</text>
<polygon fill="none" stroke="#000000" points="415,-432.5 415,-462.5 704,-462.5 704,-432.5 415,-432.5"/>
<text text-anchor="start" x="422" y="-443.9" font-family="Arial" font-size="14.00" fill="#000000">create_date    </text>
<text text-anchor="start" x="530.1248" y="-443.9" font-family="Arial" font-size="14.00" fill="#666666">[timestamp with time zone]</text>
<polygon fill="none" stroke="#000000" points="415,-402.5 415,-432.5 704,-432.5 704,-402.5 415,-402.5"/>
<text text-anchor="start" x="422" y="-413.9" font-family="Arial" font-size="14.00" fill="#000000">edit_date    </text>
<text text-anchor="start" x="513.7882" y="-413.9" font-family="Arial" font-size="14.00" fill="#666666">[timestamp with time zone]</text>
<polygon fill="none" stroke="#000000" points="415,-372.5 415,-402.5 704,-402.5 704,-372.5 415,-372.5"/>
<text text-anchor="start" x="422" y="-383.9" font-family="Arial" font-size="14.00" fill="#000000">active    </text>
<text text-anchor="start" x="492.7672" y="-383.9" font-family="Arial" font-size="14.00" fill="#666666">[boolean]</text>
<polygon fill="none" stroke="#000000" points="415,-342.5 415,-372.5 704,-372.5 704,-342.5 415,-342.5"/>
<text text-anchor="start" x="422" y="-353.9" font-family="Arial" font-size="14.00" fill="#000000">deleted    </text>
<text text-anchor="start" x="502.115" y="-353.9" font-family="Arial" font-size="14.00" fill="#666666">[boolean]</text>
<polygon fill="none" stroke="#000000" points="415,-312.5 415,-342.5 704,-342.5 704,-312.5 415,-312.5"/>
<text text-anchor="start" x="422" y="-323.9" font-family="Arial" font-size="14.00" fill="#000000">fingerprint    </text>
<text text-anchor="start" x="518.4334" y="-323.9" font-family="Arial" font-size="14.00" fill="#666666">[text]</text>
<polygon fill="none" stroke="#000000" points="415,-282.5 415,-312.5 704,-312.5 704,-282.5 415,-282.5"/>
<text text-anchor="start" x="422" y="-293.9" font-family="Arial" font-size="14.00" fill="#000000">tcn_source    </text>
<text text-anchor="start" x="524.669" y="-293.9" font-family="Arial" font-size="14.00" fill="#666666">[text]</text>
<polygon fill="none" stroke="#000000" points="415,-252.5 415,-282.5 704,-282.5 704,-252.5 415,-252.5"/>
<text text-anchor="start" x="422" y="-263.9" font-family="Arial" font-size="14.00" fill="#000000">tcn_value    </text>
<text text-anchor="start" x="516.115" y="-263.9" font-family="Arial" font-size="14.00" fill="#666666">[text]</text>
<polygon fill="none" stroke="#000000" points="415,-222.5 415,-252.5 704,-252.5 704,-222.5 415,-222.5"/>
<text text-anchor="start" x="422" y="-233.9" font-family="Arial" font-size="14.00" fill="#000000">marc    </text>
<text text-anchor="start" x="487.3086" y="-233.9" font-family="Arial" font-size="14.00" fill="#666666">[text]</text>
<polygon fill="none" stroke="#000000" points="415,-192.5 415,-222.5 704,-222.5 704,-192.5 415,-192.5"/>
<text text-anchor="start" x="422" y="-203.9" font-family="Arial" font-size="14.00" fill="#000000">last_xact_id    </text>
<text text-anchor="start" x="530.1122" y="-203.9" font-family="Arial" font-size="14.00" fill="#666666">[text]</text>
<polygon fill="none" stroke="#000000" points="415,-162.5 415,-192.5 704,-192.5 704,-162.5 415,-162.5"/>
<text text-anchor="start" x="422" y="-173.9" font-family="Arial" font-size="14.00" fill="#000000">vis_attr_vector    </text>
<text text-anchor="start" x="547.2174" y="-173.9" font-family="Arial" font-size="14.00" fill="#666666">[integer[]]</text>
<polygon fill="none" stroke="#000000" points="415,-132.5 415,-162.5 704,-162.5 704,-132.5 415,-132.5"/>
<text text-anchor="start" x="422" y="-143.9" font-family="Arial" font-size="14.00" fill="#000000">owner    </text>
<text text-anchor="start" x="494.3198" y="-143.9" font-family="Arial" font-size="14.00" fill="#666666">[integer]</text>
<polygon fill="none" stroke="#000000" points="415,-102.5 415,-132.5 704,-132.5 704,-102.5 415,-102.5"/>
<text text-anchor="start" x="422" y="-113.9" font-family="Arial" font-size="14.00" fill="#000000">share_depth    </text>
<text text-anchor="start" x="534.0168" y="-113.9" font-family="Arial" font-size="14.00" fill="#666666">[integer]</text>
<polygon fill="none" stroke="#000000" points="415,-72.5 415,-102.5 704,-102.5 704,-72.5 415,-72.5"/>
<text text-anchor="start" x="422" y="-83.9" font-family="Arial" font-size="14.00" fill="#000000">merge_date    </text>
<text text-anchor="start" x="530.8948" y="-83.9" font-family="Arial" font-size="14.00" fill="#666666">[timestamp with time zone]</text>
<polygon fill="none" stroke="#000000" points="415,-42.5 415,-72.5 704,-72.5 704,-42.5 415,-42.5"/>
<text text-anchor="start" x="422" y="-53.9" font-family="Arial" font-size="14.00" fill="#000000">merged_to    </text>
<text text-anchor="start" x="523.1122" y="-53.9" font-family="Arial" font-size="14.00" fill="#666666">[bigint]</text>
</g>
<!-- metabib.subject_field_entry&#45;&gt;biblio.record_entry -->
<g id="edge1" class="edge">
<title>metabib.subject_field_entry:source&#45;&gt;biblio.record_entry:id</title>
<path fill="none" stroke="#000000" d="M568.8523,-876.6522C515.0682,-867.0148 540.976,-777.5205 579,-727 613.7664,-680.8078 669.2336,-737.1922 704,-691 728.9895,-657.7978 745.5556,-597.5 704,-597.5"/>
<polygon fill="#000000" stroke="#000000" points="569.0347,-876.6673 578.6253,-881.9844 574.0174,-877.0837 579,-877.5 579,-877.5 579,-877.5 574.0174,-877.0837 579.3747,-873.0156 569.0347,-876.6673 569.0347,-876.6673"/>
<text text-anchor="start" x="7.4895" y="-887.5" font-family="Arial" font-size="10.00" fill="#000000">FOREIGN KEY (source) REFERENCES biblio.record_entry(id) ON DELETE CASCADE DEFERRABLE INITIALLY DEFERRED</text>
</g>
<!-- config.metabib_field -->
<g id="node3" class="node">
<title>config.metabib_field</title>
<polygon fill="#efefef" stroke="transparent" points="808,-597.5 808,-632.5 1109,-632.5 1109,-597.5 808,-597.5"/>
<polygon fill="none" stroke="#000000" points="808,-597.5 808,-632.5 1109,-632.5 1109,-597.5 808,-597.5"/>
<text text-anchor="start" x="814.6961" y="-610.3" font-family="Arial Bold" font-size="18.00" fill="#000000">config.metabib_field</text>
<text text-anchor="start" x="974.7359" y="-610.3" font-family="Arial" font-size="14.00" fill="#000000">    </text>
<text text-anchor="start" x="1008.9407" y="-610.3" font-family="Arial" font-size="14.00" fill="#666666">[BASE TABLE]</text>
<polygon fill="none" stroke="#000000" points="808,-567.5 808,-597.5 1109,-597.5 1109,-567.5 808,-567.5"/>
<text text-anchor="start" x="815" y="-578.9" font-family="Arial" font-size="14.00" fill="#000000">id    </text>
<text text-anchor="start" x="860.094" y="-578.9" font-family="Arial" font-size="14.00" fill="#666666">[integer]</text>
<polygon fill="none" stroke="#000000" points="808,-537.5 808,-567.5 1109,-567.5 1109,-537.5 808,-537.5"/>
<text text-anchor="start" x="815" y="-548.9" font-family="Arial" font-size="14.00" fill="#000000">field_class    </text>
<text text-anchor="start" x="914.5456" y="-548.9" font-family="Arial" font-size="14.00" fill="#666666">[text]</text>
<polygon fill="none" stroke="#000000" points="808,-507.5 808,-537.5 1109,-537.5 1109,-507.5 808,-507.5"/>
<text text-anchor="start" x="815" y="-518.9" font-family="Arial" font-size="14.00" fill="#000000">name    </text>
<text text-anchor="start" x="884.2132" y="-518.9" font-family="Arial" font-size="14.00" fill="#666666">[text]</text>
<polygon fill="none" stroke="#000000" points="808,-477.5 808,-507.5 1109,-507.5 1109,-477.5 808,-477.5"/>
<text text-anchor="start" x="815" y="-488.9" font-family="Arial" font-size="14.00" fill="#000000">label    </text>
<text text-anchor="start" x="878.7658" y="-488.9" font-family="Arial" font-size="14.00" fill="#666666">[text]</text>
<polygon fill="none" stroke="#000000" points="808,-447.5 808,-477.5 1109,-477.5 1109,-447.5 808,-447.5"/>
<text text-anchor="start" x="815" y="-458.9" font-family="Arial" font-size="14.00" fill="#000000">xpath    </text>
<text text-anchor="start" x="883.4432" y="-458.9" font-family="Arial" font-size="14.00" fill="#666666">[text]</text>
<polygon fill="none" stroke="#000000" points="808,-417.5 808,-447.5 1109,-447.5 1109,-417.5 808,-417.5"/>
<text text-anchor="start" x="815" y="-428.9" font-family="Arial" font-size="14.00" fill="#000000">weight    </text>
<text text-anchor="start" x="889.6564" y="-428.9" font-family="Arial" font-size="14.00" fill="#666666">[integer]</text>
<polygon fill="none" stroke="#000000" points="808,-387.5 808,-417.5 1109,-417.5 1109,-387.5 808,-387.5"/>
<text text-anchor="start" x="815" y="-398.9" font-family="Arial" font-size="14.00" fill="#000000">format    </text>
<text text-anchor="start" x="888.8724" y="-398.9" font-family="Arial" font-size="14.00" fill="#666666">[text]</text>
<polygon fill="none" stroke="#000000" points="808,-357.5 808,-387.5 1109,-387.5 1109,-357.5 808,-357.5"/>
<text text-anchor="start" x="815" y="-368.9" font-family="Arial" font-size="14.00" fill="#000000">search_field    </text>
<text text-anchor="start" x="924.6648" y="-368.9" font-family="Arial" font-size="14.00" fill="#666666">[boolean]</text>
<polygon fill="none" stroke="#000000" points="808,-327.5 808,-357.5 1109,-357.5 1109,-327.5 808,-327.5"/>
<text text-anchor="start" x="815" y="-338.9" font-family="Arial" font-size="14.00" fill="#000000">facet_field    </text>
<text text-anchor="start" x="913.0028" y="-338.9" font-family="Arial" font-size="14.00" fill="#666666">[boolean]</text>
<polygon fill="none" stroke="#000000" points="808,-297.5 808,-327.5 1109,-327.5 1109,-297.5 808,-297.5"/>
<text text-anchor="start" x="815" y="-308.9" font-family="Arial" font-size="14.00" fill="#000000">browse_field    </text>
<text text-anchor="start" x="927.7714" y="-308.9" font-family="Arial" font-size="14.00" fill="#666666">[boolean]</text>
<polygon fill="none" stroke="#000000" points="808,-267.5 808,-297.5 1109,-297.5 1109,-267.5 808,-267.5"/>
<text text-anchor="start" x="815" y="-278.9" font-family="Arial" font-size="14.00" fill="#000000">browse_xpath    </text>
<text text-anchor="start" x="936.3408" y="-278.9" font-family="Arial" font-size="14.00" fill="#666666">[text]</text>
<polygon fill="none" stroke="#000000" points="808,-237.5 808,-267.5 1109,-267.5 1109,-237.5 808,-237.5"/>
<text text-anchor="start" x="815" y="-248.9" font-family="Arial" font-size="14.00" fill="#000000">browse_sort_xpath    </text>
<text text-anchor="start" x="967.4572" y="-248.9" font-family="Arial" font-size="14.00" fill="#666666">[text]</text>
<polygon fill="none" stroke="#000000" points="808,-207.5 808,-237.5 1109,-237.5 1109,-207.5 808,-207.5"/>
<text text-anchor="start" x="815" y="-218.9" font-family="Arial" font-size="14.00" fill="#000000">facet_xpath    </text>
<text text-anchor="start" x="921.5722" y="-218.9" font-family="Arial" font-size="14.00" fill="#666666">[text]</text>
<polygon fill="none" stroke="#000000" points="808,-177.5 808,-207.5 1109,-207.5 1109,-177.5 808,-177.5"/>
<text text-anchor="start" x="815" y="-188.9" font-family="Arial" font-size="14.00" fill="#000000">display_xpath    </text>
<text text-anchor="start" x="934.7868" y="-188.9" font-family="Arial" font-size="14.00" fill="#666666">[text]</text>
<polygon fill="none" stroke="#000000" points="808,-147.5 808,-177.5 1109,-177.5 1109,-147.5 808,-147.5"/>
<text text-anchor="start" x="815" y="-158.9" font-family="Arial" font-size="14.00" fill="#000000">authority_xpath    </text>
<text text-anchor="start" x="944.9046" y="-158.9" font-family="Arial" font-size="14.00" fill="#666666">[text]</text>
<polygon fill="none" stroke="#000000" points="808,-117.5 808,-147.5 1109,-147.5 1109,-117.5 808,-117.5"/>
<text text-anchor="start" x="815" y="-128.9" font-family="Arial" font-size="14.00" fill="#000000">joiner    </text>
<text text-anchor="start" x="883.4264" y="-128.9" font-family="Arial" font-size="14.00" fill="#666666">[text]</text>
<polygon fill="none" stroke="#000000" points="808,-87.5 808,-117.5 1109,-117.5 1109,-87.5 808,-87.5"/>
<text text-anchor="start" x="815" y="-98.9" font-family="Arial" font-size="14.00" fill="#000000">restrict    </text>
<text text-anchor="start" x="891.1964" y="-98.9" font-family="Arial" font-size="14.00" fill="#666666">[boolean]</text>
<polygon fill="none" stroke="#000000" points="808,-57.5 808,-87.5 1109,-87.5 1109,-57.5 808,-57.5"/>
<text text-anchor="start" x="815" y="-68.9" font-family="Arial" font-size="14.00" fill="#000000">display_field    </text>
<text text-anchor="start" x="926.2174" y="-68.9" font-family="Arial" font-size="14.00" fill="#666666">[boolean]</text>
</g>
<!-- metabib.subject_field_entry&#45;&gt;config.metabib_field -->
<g id="edge2" class="edge">
<title>metabib.subject_field_entry:field&#45;&gt;config.metabib_field:id</title>
<path fill="none" stroke="#000000" d="M949.1809,-846.4061C989.2412,-836.9301 967.104,-768.0999 939,-727 903.7337,-675.4258 843.2663,-727.5742 808,-676 784.5439,-641.6973 766.4444,-582.5 808,-582.5"/>
<polygon fill="#000000" stroke="#000000" points="948.9428,-846.4316 938.5192,-843.0258 943.9714,-846.9658 939,-847.5 939,-847.5 939,-847.5 943.9714,-846.9658 939.4808,-851.9742 948.9428,-846.4316 948.9428,-846.4316"/>
<text text-anchor="start" x="945.986" y="-857.5" font-family="Arial" font-size="10.00" fill="#000000">FOREIGN KEY (field) REFERENCES config.metabib_field(id) ON DELETE CASCADE DEFERRABLE INITIALLY DEFERRED</text>
</g>
</g>
</svg>
