<?xml version="1.0" encoding="UTF-8" standalone="no"?>
<!DOCTYPE svg PUBLIC "-//W3C//DTD SVG 1.1//EN"
 "http://www.w3.org/Graphics/SVG/1.1/DTD/svg11.dtd">
<!-- Generated by graphviz version 2.40.1 (20161225.0304)
 -->
<!-- Title: metabib.browse_entry Pages: 1 -->
<svg width="1096pt" height="562pt"
 viewBox="0.00 0.00 1095.50 562.00" xmlns="http://www.w3.org/2000/svg" xmlns:xlink="http://www.w3.org/1999/xlink">
<g id="graph0" class="graph" transform="scale(1 1) rotate(0) translate(4 558)">
<title>metabib.browse_entry</title>
<polygon fill="#ffffff" stroke="transparent" points="-4,4 -4,-558 1091.5,-558 1091.5,4 -4,4"/>
<!-- metabib.browse_entry -->
<g id="node1" class="node">
<title>metabib.browse_entry</title>
<polygon fill="#efefef" stroke="transparent" points="360,-165.5 360,-200.5 678,-200.5 678,-165.5 360,-165.5"/>
<polygon fill="none" stroke="#000000" points="360,-165.5 360,-200.5 678,-200.5 678,-165.5 360,-165.5"/>
<text text-anchor="start" x="366.6992" y="-178.3" font-family="Arial Bold" font-size="18.00" fill="#000000">metabib.browse_entry</text>
<text text-anchor="start" x="543.7328" y="-178.3" font-family="Arial" font-size="14.00" fill="#000000">    </text>
<text text-anchor="start" x="577.9376" y="-178.3" font-family="Arial" font-size="14.00" fill="#666666">[BASE TABLE]</text>
<polygon fill="none" stroke="#000000" points="360,-135.5 360,-165.5 678,-165.5 678,-135.5 360,-135.5"/>
<text text-anchor="start" x="367" y="-146.9" font-family="Arial" font-size="14.00" fill="#000000">id </text>
<text text-anchor="start" x="381.7798" y="-146.9" font-family="Arial" font-size="14.00" fill="#666666">[bigint]</text>
<polygon fill="none" stroke="#000000" points="360,-105.5 360,-135.5 678,-135.5 678,-105.5 360,-105.5"/>
<text text-anchor="start" x="367" y="-116.9" font-family="Arial" font-size="14.00" fill="#000000">value </text>
<text text-anchor="start" x="404.345" y="-116.9" font-family="Arial" font-size="14.00" fill="#666666">[text]</text>
<polygon fill="none" stroke="#000000" points="360,-75.5 360,-105.5 678,-105.5 678,-75.5 360,-75.5"/>
<text text-anchor="start" x="367" y="-86.9" font-family="Arial" font-size="14.00" fill="#000000">index_vector </text>
<text text-anchor="start" x="450.244" y="-86.9" font-family="Arial" font-size="14.00" fill="#666666">[tsvector]</text>
<polygon fill="none" stroke="#000000" points="360,-45.5 360,-75.5 678,-75.5 678,-45.5 360,-45.5"/>
<text text-anchor="start" x="367" y="-56.9" font-family="Arial" font-size="14.00" fill="#000000">sort_value </text>
<text text-anchor="start" x="435.4614" y="-56.9" font-family="Arial" font-size="14.00" fill="#666666">[text]</text>
<polygon fill="none" stroke="#000000" stroke-width="3" points="358.5,-44.5 358.5,-202.5 679.5,-202.5 679.5,-44.5 358.5,-44.5"/>
</g>
<!-- metabib.browse_entry_def_map -->
<g id="node2" class="node">
<title>metabib.browse_entry_def_map</title>
<polygon fill="#efefef" stroke="transparent" points="43,-475.5 43,-510.5 441,-510.5 441,-475.5 43,-475.5"/>
<polygon fill="none" stroke="#000000" points="43,-475.5 43,-510.5 441,-510.5 441,-475.5 43,-475.5"/>
<text text-anchor="start" x="49.6834" y="-488.3" font-family="Arial Bold" font-size="18.00" fill="#000000">metabib.browse_entry_def_map</text>
<text text-anchor="start" x="306.7486" y="-488.3" font-family="Arial" font-size="14.00" fill="#000000">    </text>
<text text-anchor="start" x="340.9534" y="-488.3" font-family="Arial" font-size="14.00" fill="#666666">[BASE TABLE]</text>
<polygon fill="none" stroke="#000000" points="43,-445.5 43,-475.5 441,-475.5 441,-445.5 43,-445.5"/>
<text text-anchor="start" x="50" y="-456.9" font-family="Arial" font-size="14.00" fill="#000000">id    </text>
<text text-anchor="start" x="95.094" y="-456.9" font-family="Arial" font-size="14.00" fill="#666666">[bigint]</text>
<polygon fill="none" stroke="#000000" points="43,-415.5 43,-445.5 441,-445.5 441,-415.5 43,-415.5"/>
<text text-anchor="start" x="50" y="-426.9" font-family="Arial" font-size="14.00" fill="#000000">entry    </text>
<text text-anchor="start" x="115.3212" y="-426.9" font-family="Arial" font-size="14.00" fill="#666666">[bigint]</text>
<polygon fill="none" stroke="#000000" points="43,-385.5 43,-415.5 441,-415.5 441,-385.5 43,-385.5"/>
<text text-anchor="start" x="50" y="-396.9" font-family="Arial" font-size="14.00" fill="#000000">def    </text>
<text text-anchor="start" x="103.6606" y="-396.9" font-family="Arial" font-size="14.00" fill="#666666">[integer]</text>
<polygon fill="none" stroke="#000000" points="43,-355.5 43,-385.5 441,-385.5 441,-355.5 43,-355.5"/>
<text text-anchor="start" x="50" y="-366.9" font-family="Arial" font-size="14.00" fill="#000000">source    </text>
<text text-anchor="start" x="126.2132" y="-366.9" font-family="Arial" font-size="14.00" fill="#666666">[bigint]</text>
<polygon fill="none" stroke="#000000" points="43,-325.5 43,-355.5 441,-355.5 441,-325.5 43,-325.5"/>
<text text-anchor="start" x="50" y="-336.9" font-family="Arial" font-size="14.00" fill="#000000">authority    </text>
<text text-anchor="start" x="137.8836" y="-336.9" font-family="Arial" font-size="14.00" fill="#666666">[bigint]</text>
</g>
<!-- metabib.browse_entry_def_map&#45;&gt;metabib.browse_entry -->
<g id="edge1" class="edge">
<title>metabib.browse_entry_def_map:entry&#45;&gt;metabib.browse_entry:id</title>
<path fill="none" stroke="#000000" d="M451.2375,-429.6331C503.1571,-420.1384 474.6988,-334.8544 441,-283 419.5329,-249.9672 381.4671,-280.0328 360,-247 336.6293,-211.038 317.1111,-150.5 360,-150.5"/>
<polygon fill="#000000" stroke="#000000" points="450.9643,-429.6561 440.6202,-426.016 445.9822,-430.0781 441,-430.5 441,-430.5 441,-430.5 445.9822,-430.0781 441.3798,-434.984 450.9643,-429.6561 450.9643,-429.6561"/>
<text text-anchor="start" x="447.661" y="-440.5" font-family="Arial" font-size="10.00" fill="#000000">FOREIGN KEY (entry) REFERENCES metabib.browse_entry(id)</text>
</g>
<!-- metabib.browse_entry_simple_heading_map -->
<g id="node3" class="node">
<title>metabib.browse_entry_simple_heading_map</title>
<polygon fill="#efefef" stroke="transparent" points="546,-445.5 546,-480.5 1045,-480.5 1045,-445.5 546,-445.5"/>
<polygon fill="none" stroke="#000000" points="546,-445.5 546,-480.5 1045,-480.5 1045,-445.5 546,-445.5"/>
<text text-anchor="start" x="552.6754" y="-458.3" font-family="Arial Bold" font-size="18.00" fill="#000000">metabib.browse_entry_simple_heading_map</text>
<text text-anchor="start" x="910.7566" y="-458.3" font-family="Arial" font-size="14.00" fill="#000000">    </text>
<text text-anchor="start" x="944.9614" y="-458.3" font-family="Arial" font-size="14.00" fill="#666666">[BASE TABLE]</text>
<polygon fill="none" stroke="#000000" points="546,-415.5 546,-445.5 1045,-445.5 1045,-415.5 546,-415.5"/>
<text text-anchor="start" x="553" y="-426.9" font-family="Arial" font-size="14.00" fill="#000000">id    </text>
<text text-anchor="start" x="598.094" y="-426.9" font-family="Arial" font-size="14.00" fill="#666666">[bigint]</text>
<polygon fill="none" stroke="#000000" points="546,-385.5 546,-415.5 1045,-415.5 1045,-385.5 546,-385.5"/>
<text text-anchor="start" x="553" y="-396.9" font-family="Arial" font-size="14.00" fill="#000000">entry    </text>
<text text-anchor="start" x="618.3212" y="-396.9" font-family="Arial" font-size="14.00" fill="#666666">[bigint]</text>
<polygon fill="none" stroke="#000000" points="546,-355.5 546,-385.5 1045,-385.5 1045,-355.5 546,-355.5"/>
<text text-anchor="start" x="553" y="-366.9" font-family="Arial" font-size="14.00" fill="#000000">simple_heading    </text>
<text text-anchor="start" x="685.2286" y="-366.9" font-family="Arial" font-size="14.00" fill="#666666">[bigint]</text>
</g>
<!-- metabib.browse_entry_simple_heading_map&#45;&gt;metabib.browse_entry -->
<g id="edge2" class="edge">
<title>metabib.browse_entry_simple_heading_map:entry&#45;&gt;metabib.browse_entry:id</title>
<path fill="none" stroke="#000000" d="M535.8672,-398.8954C510.8781,-389.6662 527.6314,-342.7211 546,-313 580.4834,-257.2047 643.5166,-302.7953 678,-247 700.548,-210.5165 720.8889,-150.5 678,-150.5"/>
<polygon fill="#000000" stroke="#000000" points="536.1231,-398.9358 545.2961,-404.9446 541.0615,-399.7179 546,-400.5 546,-400.5 546,-400.5 541.0615,-399.7179 546.7039,-396.0554 536.1231,-398.9358 536.1231,-398.9358"/>
<text text-anchor="start" x="552.661" y="-410.5" font-family="Arial" font-size="10.00" fill="#000000">FOREIGN KEY (entry) REFERENCES metabib.browse_entry(id)</text>
</g>
</g>
</svg>
