<?xml version="1.0" encoding="UTF-8" standalone="no"?>
<!DOCTYPE svg PUBLIC "-//W3C//DTD SVG 1.1//EN"
 "http://www.w3.org/Graphics/SVG/1.1/DTD/svg11.dtd">
<!-- Generated by graphviz version 2.40.1 (20161225.0304)
 -->
<!-- Title: metabib.uncontrolled_record_attr_value Pages: 1 -->
<svg width="847pt" height="892pt"
 viewBox="0.00 0.00 847.00 892.00" xmlns="http://www.w3.org/2000/svg" xmlns:xlink="http://www.w3.org/1999/xlink">
<g id="graph0" class="graph" transform="scale(1 1) rotate(0) translate(4 888)">
<title>metabib.uncontrolled_record_attr_value</title>
<polygon fill="#ffffff" stroke="transparent" points="-4,4 -4,-888 843,-888 843,4 -4,4"/>
<!-- metabib.uncontrolled_record_attr_value -->
<g id="node1" class="node">
<title>metabib.uncontrolled_record_attr_value</title>
<polygon fill="#efefef" stroke="transparent" points="335,-802.5 335,-837.5 793,-837.5 793,-802.5 335,-802.5"/>
<polygon fill="none" stroke="#000000" points="335,-802.5 335,-837.5 793,-837.5 793,-802.5 335,-802.5"/>
<text text-anchor="start" x="341.6765" y="-815.3" font-family="Arial Bold" font-size="18.00" fill="#000000">metabib.uncontrolled_record_attr_value</text>
<text text-anchor="start" x="658.7555" y="-815.3" font-family="Arial" font-size="14.00" fill="#000000">    </text>
<text text-anchor="start" x="692.9603" y="-815.3" font-family="Arial" font-size="14.00" fill="#666666">[BASE TABLE]</text>
<polygon fill="none" stroke="#000000" points="335,-772.5 335,-802.5 793,-802.5 793,-772.5 335,-772.5"/>
<text text-anchor="start" x="342" y="-783.9" font-family="Arial" font-size="14.00" fill="#000000">id </text>
<text text-anchor="start" x="356.7798" y="-783.9" font-family="Arial" font-size="14.00" fill="#666666">[bigint]</text>
<polygon fill="none" stroke="#000000" points="335,-742.5 335,-772.5 793,-772.5 793,-742.5 335,-742.5"/>
<text text-anchor="start" x="342" y="-753.9" font-family="Arial" font-size="14.00" fill="#000000">attr </text>
<text text-anchor="start" x="366.115" y="-753.9" font-family="Arial" font-size="14.00" fill="#666666">[text]</text>
<polygon fill="none" stroke="#000000" points="335,-712.5 335,-742.5 793,-742.5 793,-712.5 335,-712.5"/>
<text text-anchor="start" x="342" y="-723.9" font-family="Arial" font-size="14.00" fill="#000000">value </text>
<text text-anchor="start" x="379.345" y="-723.9" font-family="Arial" font-size="14.00" fill="#666666">[text]</text>
<polygon fill="none" stroke="#000000" stroke-width="3" points="333.5,-711.5 333.5,-839.5 794.5,-839.5 794.5,-711.5 333.5,-711.5"/>
</g>
<!-- config.record_attr_definition -->
<g id="node2" class="node">
<title>config.record_attr_definition</title>
<polygon fill="#efefef" stroke="transparent" points="382,-552.5 382,-587.5 745,-587.5 745,-552.5 382,-552.5"/>
<polygon fill="none" stroke="#000000" points="382,-552.5 382,-587.5 745,-587.5 745,-552.5 382,-552.5"/>
<text text-anchor="start" x="388.6893" y="-565.3" font-family="Arial Bold" font-size="18.00" fill="#000000">config.record_attr_definition</text>
<text text-anchor="start" x="610.7427" y="-565.3" font-family="Arial" font-size="14.00" fill="#000000">    </text>
<text text-anchor="start" x="644.9475" y="-565.3" font-family="Arial" font-size="14.00" fill="#666666">[BASE TABLE]</text>
<polygon fill="none" stroke="#000000" points="382,-522.5 382,-552.5 745,-552.5 745,-522.5 382,-522.5"/>
<text text-anchor="start" x="389" y="-533.9" font-family="Arial" font-size="14.00" fill="#000000">name    </text>
<text text-anchor="start" x="458.2132" y="-533.9" font-family="Arial" font-size="14.00" fill="#666666">[text]</text>
<polygon fill="none" stroke="#000000" points="382,-492.5 382,-522.5 745,-522.5 745,-492.5 382,-492.5"/>
<text text-anchor="start" x="389" y="-503.9" font-family="Arial" font-size="14.00" fill="#000000">label    </text>
<text text-anchor="start" x="452.7658" y="-503.9" font-family="Arial" font-size="14.00" fill="#666666">[text]</text>
<polygon fill="none" stroke="#000000" points="382,-462.5 382,-492.5 745,-492.5 745,-462.5 382,-462.5"/>
<text text-anchor="start" x="389" y="-473.9" font-family="Arial" font-size="14.00" fill="#000000">description    </text>
<text text-anchor="start" x="490.8822" y="-473.9" font-family="Arial" font-size="14.00" fill="#666666">[text]</text>
<polygon fill="none" stroke="#000000" points="382,-432.5 382,-462.5 745,-462.5 745,-432.5 382,-432.5"/>
<text text-anchor="start" x="389" y="-443.9" font-family="Arial" font-size="14.00" fill="#000000">multi    </text>
<text text-anchor="start" x="452.7518" y="-443.9" font-family="Arial" font-size="14.00" fill="#666666">[boolean]</text>
<polygon fill="none" stroke="#000000" points="382,-402.5 382,-432.5 745,-432.5 745,-402.5 382,-402.5"/>
<text text-anchor="start" x="389" y="-413.9" font-family="Arial" font-size="14.00" fill="#000000">filter    </text>
<text text-anchor="start" x="449.6424" y="-413.9" font-family="Arial" font-size="14.00" fill="#666666">[boolean]</text>
<polygon fill="none" stroke="#000000" points="382,-372.5 382,-402.5 745,-402.5 745,-372.5 382,-372.5"/>
<text text-anchor="start" x="389" y="-383.9" font-family="Arial" font-size="14.00" fill="#000000">sorter    </text>
<text text-anchor="start" x="458.9818" y="-383.9" font-family="Arial" font-size="14.00" fill="#666666">[boolean]</text>
<polygon fill="none" stroke="#000000" points="382,-342.5 382,-372.5 745,-372.5 745,-342.5 382,-342.5"/>
<text text-anchor="start" x="389" y="-353.9" font-family="Arial" font-size="14.00" fill="#000000">composite    </text>
<text text-anchor="start" x="486.993" y="-353.9" font-family="Arial" font-size="14.00" fill="#666666">[boolean]</text>
<polygon fill="none" stroke="#000000" points="382,-312.5 382,-342.5 745,-342.5 745,-312.5 382,-312.5"/>
<text text-anchor="start" x="389" y="-323.9" font-family="Arial" font-size="14.00" fill="#000000">tag    </text>
<text text-anchor="start" x="442.6606" y="-323.9" font-family="Arial" font-size="14.00" fill="#666666">[text]</text>
<polygon fill="none" stroke="#000000" points="382,-282.5 382,-312.5 745,-312.5 745,-282.5 382,-282.5"/>
<text text-anchor="start" x="389" y="-293.9" font-family="Arial" font-size="14.00" fill="#000000">sf_list    </text>
<text text-anchor="start" x="458.9818" y="-293.9" font-family="Arial" font-size="14.00" fill="#666666">[text]</text>
<polygon fill="none" stroke="#000000" points="382,-252.5 382,-282.5 745,-282.5 745,-252.5 382,-252.5"/>
<text text-anchor="start" x="389" y="-263.9" font-family="Arial" font-size="14.00" fill="#000000">joiner    </text>
<text text-anchor="start" x="457.4264" y="-263.9" font-family="Arial" font-size="14.00" fill="#666666">[text]</text>
<polygon fill="none" stroke="#000000" points="382,-222.5 382,-252.5 745,-252.5 745,-222.5 382,-222.5"/>
<text text-anchor="start" x="389" y="-233.9" font-family="Arial" font-size="14.00" fill="#000000">xpath    </text>
<text text-anchor="start" x="457.4432" y="-233.9" font-family="Arial" font-size="14.00" fill="#666666">[text]</text>
<polygon fill="none" stroke="#000000" points="382,-192.5 382,-222.5 745,-222.5 745,-192.5 382,-192.5"/>
<text text-anchor="start" x="389" y="-203.9" font-family="Arial" font-size="14.00" fill="#000000">format    </text>
<text text-anchor="start" x="462.8724" y="-203.9" font-family="Arial" font-size="14.00" fill="#666666">[text]</text>
<polygon fill="none" stroke="#000000" points="382,-162.5 382,-192.5 745,-192.5 745,-162.5 382,-162.5"/>
<text text-anchor="start" x="389" y="-173.9" font-family="Arial" font-size="14.00" fill="#000000">start_pos    </text>
<text text-anchor="start" x="480.777" y="-173.9" font-family="Arial" font-size="14.00" fill="#666666">[integer]</text>
<polygon fill="none" stroke="#000000" points="382,-132.5 382,-162.5 745,-162.5 745,-132.5 382,-132.5"/>
<text text-anchor="start" x="389" y="-143.9" font-family="Arial" font-size="14.00" fill="#000000">string_len    </text>
<text text-anchor="start" x="483.8822" y="-143.9" font-family="Arial" font-size="14.00" fill="#666666">[integer]</text>
<polygon fill="none" stroke="#000000" points="382,-102.5 382,-132.5 745,-132.5 745,-102.5 382,-102.5"/>
<text text-anchor="start" x="389" y="-113.9" font-family="Arial" font-size="14.00" fill="#000000">fixed_field    </text>
<text text-anchor="start" x="486.2188" y="-113.9" font-family="Arial" font-size="14.00" fill="#666666">[text]</text>
<polygon fill="none" stroke="#000000" points="382,-72.5 382,-102.5 745,-102.5 745,-72.5 382,-72.5"/>
<text text-anchor="start" x="389" y="-83.9" font-family="Arial" font-size="14.00" fill="#000000">phys_char_sf    </text>
<text text-anchor="start" x="506.4516" y="-83.9" font-family="Arial" font-size="14.00" fill="#666666">[integer]</text>
<polygon fill="none" stroke="#000000" points="382,-42.5 382,-72.5 745,-72.5 745,-42.5 382,-42.5"/>
<text text-anchor="start" x="389" y="-53.9" font-family="Arial" font-size="14.00" fill="#000000">vocabulary    </text>
<text text-anchor="start" x="490.885" y="-53.9" font-family="Arial" font-size="14.00" fill="#666666">[text]</text>
</g>
<!-- metabib.uncontrolled_record_attr_value&#45;&gt;config.record_attr_definition -->
<g id="edge1" class="edge">
<title>metabib.uncontrolled_record_attr_value:attr&#45;&gt;config.record_attr_definition:name</title>
<path fill="none" stroke="#000000" d="M325.06,-755.9716C297.3493,-746.3664 310.378,-693.8786 335,-667 396.78,-599.5577 683.22,-698.4423 745,-631 773.0697,-600.3576 786.5556,-537.5 745,-537.5"/>
<polygon fill="#000000" stroke="#000000" points="325.1162,-755.9802 334.3161,-761.9477 330.0581,-756.7401 335,-757.5 335,-757.5 335,-757.5 330.0581,-756.7401 335.6839,-753.0523 325.1162,-755.9802 325.1162,-755.9802"/>
<text text-anchor="start" x="7.4315" y="-767.5" font-family="Arial" font-size="10.00" fill="#000000">FOREIGN KEY (attr) REFERENCES config.record_attr_definition(name)</text>
</g>
</g>
</svg>
