<?xml version="1.0" encoding="UTF-8" standalone="no"?>
<!DOCTYPE svg PUBLIC "-//W3C//DTD SVG 1.1//EN"
 "http://www.w3.org/Graphics/SVG/1.1/DTD/svg11.dtd">
<!-- Generated by graphviz version 2.40.1 (20161225.0304)
 -->
<!-- Title: money.collections_tracker Pages: 1 -->
<svg width="855pt" height="1912pt"
 viewBox="0.00 0.00 854.50 1912.00" xmlns="http://www.w3.org/2000/svg" xmlns:xlink="http://www.w3.org/1999/xlink">
<g id="graph0" class="graph" transform="scale(1 1) rotate(0) translate(4 1908)">
<title>money.collections_tracker</title>
<polygon fill="#ffffff" stroke="transparent" points="-4,4 -4,-1908 850.5,-1908 850.5,4 -4,4"/>
<!-- money.collections_tracker -->
<g id="node1" class="node">
<title>money.collections_tracker</title>
<polygon fill="#efefef" stroke="transparent" points="46.5,-1822.5 46.5,-1857.5 395.5,-1857.5 395.5,-1822.5 46.5,-1822.5"/>
<polygon fill="none" stroke="#000000" points="46.5,-1822.5 46.5,-1857.5 395.5,-1857.5 395.5,-1822.5 46.5,-1822.5"/>
<text text-anchor="start" x="53.2021" y="-1835.3" font-family="Arial Bold" font-size="18.00" fill="#000000">money.collections_tracker</text>
<text text-anchor="start" x="261.2299" y="-1835.3" font-family="Arial" font-size="14.00" fill="#000000">    </text>
<text text-anchor="start" x="295.4347" y="-1835.3" font-family="Arial" font-size="14.00" fill="#666666">[BASE TABLE]</text>
<polygon fill="none" stroke="#000000" points="46.5,-1792.5 46.5,-1822.5 395.5,-1822.5 395.5,-1792.5 46.5,-1792.5"/>
<text text-anchor="start" x="53.5" y="-1803.9" font-family="Arial" font-size="14.00" fill="#000000">id </text>
<text text-anchor="start" x="68.2798" y="-1803.9" font-family="Arial" font-size="14.00" fill="#666666">[bigint]</text>
<polygon fill="none" stroke="#000000" points="46.5,-1762.5 46.5,-1792.5 395.5,-1792.5 395.5,-1762.5 46.5,-1762.5"/>
<text text-anchor="start" x="53.5" y="-1773.9" font-family="Arial" font-size="14.00" fill="#000000">usr </text>
<text text-anchor="start" x="76.8338" y="-1773.9" font-family="Arial" font-size="14.00" fill="#666666">[integer]</text>
<polygon fill="none" stroke="#000000" points="46.5,-1732.5 46.5,-1762.5 395.5,-1762.5 395.5,-1732.5 46.5,-1732.5"/>
<text text-anchor="start" x="53.5" y="-1743.9" font-family="Arial" font-size="14.00" fill="#000000">collector </text>
<text text-anchor="start" x="109.5028" y="-1743.9" font-family="Arial" font-size="14.00" fill="#666666">[integer]</text>
<polygon fill="none" stroke="#000000" points="46.5,-1702.5 46.5,-1732.5 395.5,-1732.5 395.5,-1702.5 46.5,-1702.5"/>
<text text-anchor="start" x="53.5" y="-1713.9" font-family="Arial" font-size="14.00" fill="#000000">location </text>
<text text-anchor="start" x="105.6248" y="-1713.9" font-family="Arial" font-size="14.00" fill="#666666">[integer]</text>
<polygon fill="none" stroke="#000000" points="46.5,-1672.5 46.5,-1702.5 395.5,-1702.5 395.5,-1672.5 46.5,-1672.5"/>
<text text-anchor="start" x="53.5" y="-1683.9" font-family="Arial" font-size="14.00" fill="#000000">enter_time </text>
<text text-anchor="start" x="123.5126" y="-1683.9" font-family="Arial" font-size="14.00" fill="#666666">[timestamp with time zone]</text>
<polygon fill="none" stroke="#000000" stroke-width="3" points="44.5,-1671.5 44.5,-1859.5 396.5,-1859.5 396.5,-1671.5 44.5,-1671.5"/>
</g>
<!-- actor.usr -->
<g id="node2" class="node">
<title>actor.usr</title>
<polygon fill="#efefef" stroke="transparent" points="61.5,-1512.5 61.5,-1547.5 381.5,-1547.5 381.5,-1512.5 61.5,-1512.5"/>
<polygon fill="none" stroke="#000000" points="61.5,-1512.5 61.5,-1547.5 381.5,-1547.5 381.5,-1512.5 61.5,-1512.5"/>
<text text-anchor="start" x="122.7123" y="-1525.3" font-family="Arial Bold" font-size="18.00" fill="#000000">actor.usr</text>
<text text-anchor="start" x="192.7197" y="-1525.3" font-family="Arial" font-size="14.00" fill="#000000">    </text>
<text text-anchor="start" x="226.9245" y="-1525.3" font-family="Arial" font-size="14.00" fill="#666666">[BASE TABLE]</text>
<polygon fill="none" stroke="#000000" points="61.5,-1482.5 61.5,-1512.5 381.5,-1512.5 381.5,-1482.5 61.5,-1482.5"/>
<text text-anchor="start" x="68.5" y="-1493.9" font-family="Arial" font-size="14.00" fill="#000000">id    </text>
<text text-anchor="start" x="113.594" y="-1493.9" font-family="Arial" font-size="14.00" fill="#666666">[integer]</text>
<polygon fill="none" stroke="#000000" points="61.5,-1452.5 61.5,-1482.5 381.5,-1482.5 381.5,-1452.5 61.5,-1452.5"/>
<text text-anchor="start" x="68.5" y="-1463.9" font-family="Arial" font-size="14.00" fill="#000000">card    </text>
<text text-anchor="start" x="129.9306" y="-1463.9" font-family="Arial" font-size="14.00" fill="#666666">[integer]</text>
<polygon fill="none" stroke="#000000" points="61.5,-1422.5 61.5,-1452.5 381.5,-1452.5 381.5,-1422.5 61.5,-1422.5"/>
<text text-anchor="start" x="68.5" y="-1433.9" font-family="Arial" font-size="14.00" fill="#000000">profile    </text>
<text text-anchor="start" x="140.817" y="-1433.9" font-family="Arial" font-size="14.00" fill="#666666">[integer]</text>
<polygon fill="none" stroke="#000000" points="61.5,-1392.5 61.5,-1422.5 381.5,-1422.5 381.5,-1392.5 61.5,-1392.5"/>
<text text-anchor="start" x="68.5" y="-1403.9" font-family="Arial" font-size="14.00" fill="#000000">usrname    </text>
<text text-anchor="start" x="157.1564" y="-1403.9" font-family="Arial" font-size="14.00" fill="#666666">[text]</text>
<polygon fill="none" stroke="#000000" points="61.5,-1362.5 61.5,-1392.5 381.5,-1392.5 381.5,-1362.5 61.5,-1362.5"/>
<text text-anchor="start" x="68.5" y="-1373.9" font-family="Arial" font-size="14.00" fill="#000000">email    </text>
<text text-anchor="start" x="136.1438" y="-1373.9" font-family="Arial" font-size="14.00" fill="#666666">[text]</text>
<polygon fill="none" stroke="#000000" points="61.5,-1332.5 61.5,-1362.5 381.5,-1362.5 381.5,-1332.5 61.5,-1332.5"/>
<text text-anchor="start" x="68.5" y="-1343.9" font-family="Arial" font-size="14.00" fill="#000000">passwd    </text>
<text text-anchor="start" x="150.1592" y="-1343.9" font-family="Arial" font-size="14.00" fill="#666666">[text]</text>
<polygon fill="none" stroke="#000000" points="61.5,-1302.5 61.5,-1332.5 381.5,-1332.5 381.5,-1302.5 61.5,-1302.5"/>
<text text-anchor="start" x="68.5" y="-1313.9" font-family="Arial" font-size="14.00" fill="#000000">standing    </text>
<text text-anchor="start" x="155.615" y="-1313.9" font-family="Arial" font-size="14.00" fill="#666666">[integer]</text>
<polygon fill="none" stroke="#000000" points="61.5,-1272.5 61.5,-1302.5 381.5,-1302.5 381.5,-1272.5 61.5,-1272.5"/>
<text text-anchor="start" x="68.5" y="-1283.9" font-family="Arial" font-size="14.00" fill="#000000">ident_type    </text>
<text text-anchor="start" x="167.2882" y="-1283.9" font-family="Arial" font-size="14.00" fill="#666666">[integer]</text>
<polygon fill="none" stroke="#000000" points="61.5,-1242.5 61.5,-1272.5 381.5,-1272.5 381.5,-1242.5 61.5,-1242.5"/>
<text text-anchor="start" x="68.5" y="-1253.9" font-family="Arial" font-size="14.00" fill="#000000">ident_value    </text>
<text text-anchor="start" x="174.2868" y="-1253.9" font-family="Arial" font-size="14.00" fill="#666666">[text]</text>
<polygon fill="none" stroke="#000000" points="61.5,-1212.5 61.5,-1242.5 381.5,-1242.5 381.5,-1212.5 61.5,-1212.5"/>
<text text-anchor="start" x="68.5" y="-1223.9" font-family="Arial" font-size="14.00" fill="#000000">ident_type2    </text>
<text text-anchor="start" x="175.0708" y="-1223.9" font-family="Arial" font-size="14.00" fill="#666666">[integer]</text>
<polygon fill="none" stroke="#000000" points="61.5,-1182.5 61.5,-1212.5 381.5,-1212.5 381.5,-1182.5 61.5,-1182.5"/>
<text text-anchor="start" x="68.5" y="-1193.9" font-family="Arial" font-size="14.00" fill="#000000">ident_value2    </text>
<text text-anchor="start" x="182.0694" y="-1193.9" font-family="Arial" font-size="14.00" fill="#666666">[text]</text>
<polygon fill="none" stroke="#000000" points="61.5,-1152.5 61.5,-1182.5 381.5,-1182.5 381.5,-1152.5 61.5,-1152.5"/>
<text text-anchor="start" x="68.5" y="-1163.9" font-family="Arial" font-size="14.00" fill="#000000">net_access_level    </text>
<text text-anchor="start" x="210.0694" y="-1163.9" font-family="Arial" font-size="14.00" fill="#666666">[integer]</text>
<polygon fill="none" stroke="#000000" points="61.5,-1122.5 61.5,-1152.5 381.5,-1152.5 381.5,-1122.5 61.5,-1122.5"/>
<text text-anchor="start" x="68.5" y="-1133.9" font-family="Arial" font-size="14.00" fill="#000000">photo_url    </text>
<text text-anchor="start" x="161.0582" y="-1133.9" font-family="Arial" font-size="14.00" fill="#666666">[text]</text>
<polygon fill="none" stroke="#000000" points="61.5,-1092.5 61.5,-1122.5 381.5,-1122.5 381.5,-1092.5 61.5,-1092.5"/>
<text text-anchor="start" x="68.5" y="-1103.9" font-family="Arial" font-size="14.00" fill="#000000">prefix    </text>
<text text-anchor="start" x="136.9278" y="-1103.9" font-family="Arial" font-size="14.00" fill="#666666">[text]</text>
<polygon fill="none" stroke="#000000" points="61.5,-1062.5 61.5,-1092.5 381.5,-1092.5 381.5,-1062.5 61.5,-1062.5"/>
<text text-anchor="start" x="68.5" y="-1073.9" font-family="Arial" font-size="14.00" fill="#000000">first_given_name    </text>
<text text-anchor="start" x="209.2812" y="-1073.9" font-family="Arial" font-size="14.00" fill="#666666">[text]</text>
<polygon fill="none" stroke="#000000" points="61.5,-1032.5 61.5,-1062.5 381.5,-1062.5 381.5,-1032.5 61.5,-1032.5"/>
<text text-anchor="start" x="68.5" y="-1043.9" font-family="Arial" font-size="14.00" fill="#000000">second_given_name    </text>
<text text-anchor="start" x="231.8632" y="-1043.9" font-family="Arial" font-size="14.00" fill="#666666">[text]</text>
<polygon fill="none" stroke="#000000" points="61.5,-1002.5 61.5,-1032.5 381.5,-1032.5 381.5,-1002.5 61.5,-1002.5"/>
<text text-anchor="start" x="68.5" y="-1013.9" font-family="Arial" font-size="14.00" fill="#000000">family_name    </text>
<text text-anchor="start" x="182.0428" y="-1013.9" font-family="Arial" font-size="14.00" fill="#666666">[text]</text>
<polygon fill="none" stroke="#000000" points="61.5,-972.5 61.5,-1002.5 381.5,-1002.5 381.5,-972.5 61.5,-972.5"/>
<text text-anchor="start" x="68.5" y="-983.9" font-family="Arial" font-size="14.00" fill="#000000">suffix    </text>
<text text-anchor="start" x="135.3752" y="-983.9" font-family="Arial" font-size="14.00" fill="#666666">[text]</text>
<polygon fill="none" stroke="#000000" points="61.5,-942.5 61.5,-972.5 381.5,-972.5 381.5,-942.5 61.5,-942.5"/>
<text text-anchor="start" x="68.5" y="-953.9" font-family="Arial" font-size="14.00" fill="#000000">alias    </text>
<text text-anchor="start" x="131.4832" y="-953.9" font-family="Arial" font-size="14.00" fill="#666666">[text]</text>
<polygon fill="none" stroke="#000000" points="61.5,-912.5 61.5,-942.5 381.5,-942.5 381.5,-912.5 61.5,-912.5"/>
<text text-anchor="start" x="68.5" y="-923.9" font-family="Arial" font-size="14.00" fill="#000000">day_phone    </text>
<text text-anchor="start" x="171.9656" y="-923.9" font-family="Arial" font-size="14.00" fill="#666666">[text]</text>
<polygon fill="none" stroke="#000000" points="61.5,-882.5 61.5,-912.5 381.5,-912.5 381.5,-882.5 61.5,-882.5"/>
<text text-anchor="start" x="68.5" y="-893.9" font-family="Arial" font-size="14.00" fill="#000000">evening_phone    </text>
<text text-anchor="start" x="198.42" y="-893.9" font-family="Arial" font-size="14.00" fill="#666666">[text]</text>
<polygon fill="none" stroke="#000000" points="61.5,-852.5 61.5,-882.5 381.5,-882.5 381.5,-852.5 61.5,-852.5"/>
<text text-anchor="start" x="68.5" y="-863.9" font-family="Arial" font-size="14.00" fill="#000000">other_phone    </text>
<text text-anchor="start" x="181.2994" y="-863.9" font-family="Arial" font-size="14.00" fill="#666666">[text]</text>
<polygon fill="none" stroke="#000000" points="61.5,-822.5 61.5,-852.5 381.5,-852.5 381.5,-822.5 61.5,-822.5"/>
<text text-anchor="start" x="68.5" y="-833.9" font-family="Arial" font-size="14.00" fill="#000000">mailing_address    </text>
<text text-anchor="start" x="204.6066" y="-833.9" font-family="Arial" font-size="14.00" fill="#666666">[integer]</text>
<polygon fill="none" stroke="#000000" points="61.5,-792.5 61.5,-822.5 381.5,-822.5 381.5,-792.5 61.5,-792.5"/>
<text text-anchor="start" x="68.5" y="-803.9" font-family="Arial" font-size="14.00" fill="#000000">billing_address    </text>
<text text-anchor="start" x="196.0526" y="-803.9" font-family="Arial" font-size="14.00" fill="#666666">[integer]</text>
<polygon fill="none" stroke="#000000" points="61.5,-762.5 61.5,-792.5 381.5,-792.5 381.5,-762.5 61.5,-762.5"/>
<text text-anchor="start" x="68.5" y="-773.9" font-family="Arial" font-size="14.00" fill="#000000">home_ou    </text>
<text text-anchor="start" x="161.061" y="-773.9" font-family="Arial" font-size="14.00" fill="#666666">[integer]</text>
<polygon fill="none" stroke="#000000" points="61.5,-732.5 61.5,-762.5 381.5,-762.5 381.5,-732.5 61.5,-732.5"/>
<text text-anchor="start" x="68.5" y="-743.9" font-family="Arial" font-size="14.00" fill="#000000">dob    </text>
<text text-anchor="start" x="126.0526" y="-743.9" font-family="Arial" font-size="14.00" fill="#666666">[date]</text>
<polygon fill="none" stroke="#000000" points="61.5,-702.5 61.5,-732.5 381.5,-732.5 381.5,-702.5 61.5,-702.5"/>
<text text-anchor="start" x="68.5" y="-713.9" font-family="Arial" font-size="14.00" fill="#000000">active    </text>
<text text-anchor="start" x="139.2672" y="-713.9" font-family="Arial" font-size="14.00" fill="#666666">[boolean]</text>
<polygon fill="none" stroke="#000000" points="61.5,-672.5 61.5,-702.5 381.5,-702.5 381.5,-672.5 61.5,-672.5"/>
<text text-anchor="start" x="68.5" y="-683.9" font-family="Arial" font-size="14.00" fill="#000000">master_account    </text>
<text text-anchor="start" x="202.2854" y="-683.9" font-family="Arial" font-size="14.00" fill="#666666">[boolean]</text>
<polygon fill="none" stroke="#000000" points="61.5,-642.5 61.5,-672.5 381.5,-672.5 381.5,-642.5 61.5,-642.5"/>
<text text-anchor="start" x="68.5" y="-653.9" font-family="Arial" font-size="14.00" fill="#000000">super_user    </text>
<text text-anchor="start" x="172.7216" y="-653.9" font-family="Arial" font-size="14.00" fill="#666666">[boolean]</text>
<polygon fill="none" stroke="#000000" points="61.5,-612.5 61.5,-642.5 381.5,-642.5 381.5,-612.5 61.5,-612.5"/>
<text text-anchor="start" x="68.5" y="-623.9" font-family="Arial" font-size="14.00" fill="#000000">barred    </text>
<text text-anchor="start" x="143.1564" y="-623.9" font-family="Arial" font-size="14.00" fill="#666666">[boolean]</text>
<polygon fill="none" stroke="#000000" points="61.5,-582.5 61.5,-612.5 381.5,-612.5 381.5,-582.5 61.5,-582.5"/>
<text text-anchor="start" x="68.5" y="-593.9" font-family="Arial" font-size="14.00" fill="#000000">deleted    </text>
<text text-anchor="start" x="148.615" y="-593.9" font-family="Arial" font-size="14.00" fill="#666666">[boolean]</text>
<polygon fill="none" stroke="#000000" points="61.5,-552.5 61.5,-582.5 381.5,-582.5 381.5,-552.5 61.5,-552.5"/>
<text text-anchor="start" x="68.5" y="-563.9" font-family="Arial" font-size="14.00" fill="#000000">juvenile    </text>
<text text-anchor="start" x="150.155" y="-563.9" font-family="Arial" font-size="14.00" fill="#666666">[boolean]</text>
<polygon fill="none" stroke="#000000" points="61.5,-522.5 61.5,-552.5 381.5,-552.5 381.5,-522.5 61.5,-522.5"/>
<text text-anchor="start" x="68.5" y="-533.9" font-family="Arial" font-size="14.00" fill="#000000">usrgroup    </text>
<text text-anchor="start" x="157.939" y="-533.9" font-family="Arial" font-size="14.00" fill="#666666">[integer]</text>
<polygon fill="none" stroke="#000000" points="61.5,-492.5 61.5,-522.5 381.5,-522.5 381.5,-492.5 61.5,-492.5"/>
<text text-anchor="start" x="68.5" y="-503.9" font-family="Arial" font-size="14.00" fill="#000000">claims_returned_count    </text>
<text text-anchor="start" x="244.2896" y="-503.9" font-family="Arial" font-size="14.00" fill="#666666">[integer]</text>
<polygon fill="none" stroke="#000000" points="61.5,-462.5 61.5,-492.5 381.5,-492.5 381.5,-462.5 61.5,-462.5"/>
<text text-anchor="start" x="68.5" y="-473.9" font-family="Arial" font-size="14.00" fill="#000000">credit_forward_balance    </text>
<text text-anchor="start" x="248.1788" y="-473.9" font-family="Arial" font-size="14.00" fill="#666666">[numeric(6,2)]</text>
<polygon fill="none" stroke="#000000" points="61.5,-432.5 61.5,-462.5 381.5,-462.5 381.5,-432.5 61.5,-432.5"/>
<text text-anchor="start" x="68.5" y="-443.9" font-family="Arial" font-size="14.00" fill="#000000">last_xact_id    </text>
<text text-anchor="start" x="176.6122" y="-443.9" font-family="Arial" font-size="14.00" fill="#666666">[text]</text>
<polygon fill="none" stroke="#000000" points="61.5,-402.5 61.5,-432.5 381.5,-432.5 381.5,-402.5 61.5,-402.5"/>
<text text-anchor="start" x="68.5" y="-413.9" font-family="Arial" font-size="14.00" fill="#000000">alert_message    </text>
<text text-anchor="start" x="194.5014" y="-413.9" font-family="Arial" font-size="14.00" fill="#666666">[text]</text>
<polygon fill="none" stroke="#000000" points="61.5,-372.5 61.5,-402.5 381.5,-402.5 381.5,-372.5 61.5,-372.5"/>
<text text-anchor="start" x="68.5" y="-383.9" font-family="Arial" font-size="14.00" fill="#000000">create_date    </text>
<text text-anchor="start" x="176.6248" y="-383.9" font-family="Arial" font-size="14.00" fill="#666666">[timestamp with time zone]</text>
<polygon fill="none" stroke="#000000" points="61.5,-342.5 61.5,-372.5 381.5,-372.5 381.5,-342.5 61.5,-342.5"/>
<text text-anchor="start" x="68.5" y="-353.9" font-family="Arial" font-size="14.00" fill="#000000">expire_date    </text>
<text text-anchor="start" x="175.8408" y="-353.9" font-family="Arial" font-size="14.00" fill="#666666">[timestamp with time zone]</text>
<polygon fill="none" stroke="#000000" points="61.5,-312.5 61.5,-342.5 381.5,-342.5 381.5,-312.5 61.5,-312.5"/>
<text text-anchor="start" x="68.5" y="-323.9" font-family="Arial" font-size="14.00" fill="#000000">claims_never_checked_out_count    </text>
<text text-anchor="start" x="314.3246" y="-323.9" font-family="Arial" font-size="14.00" fill="#666666">[integer]</text>
<polygon fill="none" stroke="#000000" points="61.5,-282.5 61.5,-312.5 381.5,-312.5 381.5,-282.5 61.5,-282.5"/>
<text text-anchor="start" x="68.2609" y="-293.9" font-family="Arial" font-size="14.00" fill="#000000">last_update_time    </text>
<text text-anchor="start" x="209.0547" y="-293.9" font-family="Arial" font-size="14.00" fill="#666666">[timestamp with time zone]</text>
<polygon fill="none" stroke="#000000" points="61.5,-252.5 61.5,-282.5 381.5,-282.5 381.5,-252.5 61.5,-252.5"/>
<text text-anchor="start" x="68.5" y="-263.9" font-family="Arial" font-size="14.00" fill="#000000">pref_prefix    </text>
<text text-anchor="start" x="168.8268" y="-263.9" font-family="Arial" font-size="14.00" fill="#666666">[text]</text>
<polygon fill="none" stroke="#000000" points="61.5,-222.5 61.5,-252.5 381.5,-252.5 381.5,-222.5 61.5,-222.5"/>
<text text-anchor="start" x="68.5" y="-233.9" font-family="Arial" font-size="14.00" fill="#000000">pref_first_given_name    </text>
<text text-anchor="start" x="241.1802" y="-233.9" font-family="Arial" font-size="14.00" fill="#666666">[text]</text>
<polygon fill="none" stroke="#000000" points="61.5,-192.5 61.5,-222.5 381.5,-222.5 381.5,-192.5 61.5,-192.5"/>
<text text-anchor="start" x="68.5" y="-203.9" font-family="Arial" font-size="14.00" fill="#000000">pref_second_given_name    </text>
<text text-anchor="start" x="263.7622" y="-203.9" font-family="Arial" font-size="14.00" fill="#666666">[text]</text>
<polygon fill="none" stroke="#000000" points="61.5,-162.5 61.5,-192.5 381.5,-192.5 381.5,-162.5 61.5,-162.5"/>
<text text-anchor="start" x="68.5" y="-173.9" font-family="Arial" font-size="14.00" fill="#000000">pref_family_name    </text>
<text text-anchor="start" x="213.9418" y="-173.9" font-family="Arial" font-size="14.00" fill="#666666">[text]</text>
<polygon fill="none" stroke="#000000" points="61.5,-132.5 61.5,-162.5 381.5,-162.5 381.5,-132.5 61.5,-132.5"/>
<text text-anchor="start" x="68.5" y="-143.9" font-family="Arial" font-size="14.00" fill="#000000">pref_suffix    </text>
<text text-anchor="start" x="167.2742" y="-143.9" font-family="Arial" font-size="14.00" fill="#666666">[text]</text>
<polygon fill="none" stroke="#000000" points="61.5,-102.5 61.5,-132.5 381.5,-132.5 381.5,-102.5 61.5,-102.5"/>
<text text-anchor="start" x="68.5" y="-113.9" font-family="Arial" font-size="14.00" fill="#000000">name_keywords    </text>
<text text-anchor="start" x="204.6108" y="-113.9" font-family="Arial" font-size="14.00" fill="#666666">[text]</text>
<polygon fill="none" stroke="#000000" points="61.5,-72.5 61.5,-102.5 381.5,-102.5 381.5,-72.5 61.5,-72.5"/>
<text text-anchor="start" x="68.5" y="-83.9" font-family="Arial" font-size="14.00" fill="#000000">name_kw_tsvector    </text>
<text text-anchor="start" x="219.392" y="-83.9" font-family="Arial" font-size="14.00" fill="#666666">[tsvector]</text>
<polygon fill="none" stroke="#000000" points="61.5,-42.5 61.5,-72.5 381.5,-72.5 381.5,-42.5 61.5,-42.5"/>
<text text-anchor="start" x="68.5" y="-53.9" font-family="Arial" font-size="14.00" fill="#000000">guardian    </text>
<text text-anchor="start" x="157.1676" y="-53.9" font-family="Arial" font-size="14.00" fill="#666666">[text]</text>
</g>
<!-- money.collections_tracker&#45;&gt;actor.usr -->
<g id="edge1" class="edge">
<title>money.collections_tracker:usr&#45;&gt;actor.usr:id</title>
<path fill="none" stroke="#000000" d="M405.6856,-1776.621C459.8938,-1766.6348 437.7474,-1674.0457 395.5,-1627 345.6215,-1571.4565 111.3785,-1646.5435 61.5,-1591 33.7349,-1560.0814 19.9444,-1497.5 61.5,-1497.5"/>
<polygon fill="#000000" stroke="#000000" points="405.463,-1776.6401 395.1131,-1773.0167 400.4815,-1777.0701 395.5,-1777.5 395.5,-1777.5 395.5,-1777.5 400.4815,-1777.0701 395.8869,-1781.9833 405.463,-1776.6401 405.463,-1776.6401"/>
<text text-anchor="start" x="402.9995" y="-1787.5" font-family="Arial" font-size="10.00" fill="#000000">FOREIGN KEY (usr) REFERENCES actor.usr(id) DEFERRABLE INITIALLY DEFERRED</text>
</g>
<!-- money.collections_tracker&#45;&gt;actor.usr -->
<g id="edge2" class="edge">
<title>money.collections_tracker:collector&#45;&gt;actor.usr:id</title>
<path fill="none" stroke="#000000" d="M405.5002,-1746.4081C446.5415,-1736.6639 428.8368,-1664.1231 395.5,-1627 345.6215,-1571.4565 111.3785,-1646.5435 61.5,-1591 33.7349,-1560.0814 19.9444,-1497.5 61.5,-1497.5"/>
<polygon fill="#000000" stroke="#000000" points="405.4409,-1746.4145 395.0115,-1743.0266 400.4705,-1746.9573 395.5,-1747.5 395.5,-1747.5 395.5,-1747.5 400.4705,-1746.9573 395.9885,-1751.9734 405.4409,-1746.4145 405.4409,-1746.4145"/>
<text text-anchor="start" x="402.332" y="-1757.5" font-family="Arial" font-size="10.00" fill="#000000">FOREIGN KEY (collector) REFERENCES actor.usr(id) DEFERRABLE INITIALLY DEFERRED</text>
</g>
<!-- actor.org_unit -->
<g id="node3" class="node">
<title>actor.org_unit</title>
<polygon fill="#efefef" stroke="transparent" points="486.5,-972.5 486.5,-1007.5 737.5,-1007.5 737.5,-972.5 486.5,-972.5"/>
<polygon fill="none" stroke="#000000" points="486.5,-972.5 486.5,-1007.5 737.5,-1007.5 737.5,-972.5 486.5,-972.5"/>
<text text-anchor="start" x="493.2017" y="-985.3" font-family="Arial Bold" font-size="18.00" fill="#000000">actor.org_unit</text>
<text text-anchor="start" x="603.2303" y="-985.3" font-family="Arial" font-size="14.00" fill="#000000">    </text>
<text text-anchor="start" x="637.4351" y="-985.3" font-family="Arial" font-size="14.00" fill="#666666">[BASE TABLE]</text>
<polygon fill="none" stroke="#000000" points="486.5,-942.5 486.5,-972.5 737.5,-972.5 737.5,-942.5 486.5,-942.5"/>
<text text-anchor="start" x="493.5" y="-953.9" font-family="Arial" font-size="14.00" fill="#000000">id    </text>
<text text-anchor="start" x="538.594" y="-953.9" font-family="Arial" font-size="14.00" fill="#666666">[integer]</text>
<polygon fill="none" stroke="#000000" points="486.5,-912.5 486.5,-942.5 737.5,-942.5 737.5,-912.5 486.5,-912.5"/>
<text text-anchor="start" x="493.5" y="-923.9" font-family="Arial" font-size="14.00" fill="#000000">parent_ou    </text>
<text text-anchor="start" x="590.7342" y="-923.9" font-family="Arial" font-size="14.00" fill="#666666">[integer]</text>
<polygon fill="none" stroke="#000000" points="486.5,-882.5 486.5,-912.5 737.5,-912.5 737.5,-882.5 486.5,-882.5"/>
<text text-anchor="start" x="493.5" y="-893.9" font-family="Arial" font-size="14.00" fill="#000000">ou_type    </text>
<text text-anchor="start" x="577.5084" y="-893.9" font-family="Arial" font-size="14.00" fill="#666666">[integer]</text>
<polygon fill="none" stroke="#000000" points="486.5,-852.5 486.5,-882.5 737.5,-882.5 737.5,-852.5 486.5,-852.5"/>
<text text-anchor="start" x="493.5" y="-863.9" font-family="Arial" font-size="14.00" fill="#000000">ill_address    </text>
<text text-anchor="start" x="594.5982" y="-863.9" font-family="Arial" font-size="14.00" fill="#666666">[integer]</text>
<polygon fill="none" stroke="#000000" points="486.5,-822.5 486.5,-852.5 737.5,-852.5 737.5,-822.5 486.5,-822.5"/>
<text text-anchor="start" x="493.5" y="-833.9" font-family="Arial" font-size="14.00" fill="#000000">holds_address    </text>
<text text-anchor="start" x="618.7328" y="-833.9" font-family="Arial" font-size="14.00" fill="#666666">[integer]</text>
<polygon fill="none" stroke="#000000" points="486.5,-792.5 486.5,-822.5 737.5,-822.5 737.5,-792.5 486.5,-792.5"/>
<text text-anchor="start" x="493.5" y="-803.9" font-family="Arial" font-size="14.00" fill="#000000">mailing_address    </text>
<text text-anchor="start" x="629.6066" y="-803.9" font-family="Arial" font-size="14.00" fill="#666666">[integer]</text>
<polygon fill="none" stroke="#000000" points="486.5,-762.5 486.5,-792.5 737.5,-792.5 737.5,-762.5 486.5,-762.5"/>
<text text-anchor="start" x="493.5" y="-773.9" font-family="Arial" font-size="14.00" fill="#000000">billing_address    </text>
<text text-anchor="start" x="621.0526" y="-773.9" font-family="Arial" font-size="14.00" fill="#666666">[integer]</text>
<polygon fill="none" stroke="#000000" points="486.5,-732.5 486.5,-762.5 737.5,-762.5 737.5,-732.5 486.5,-732.5"/>
<text text-anchor="start" x="493.5" y="-743.9" font-family="Arial" font-size="14.00" fill="#000000">shortname    </text>
<text text-anchor="start" x="593.8296" y="-743.9" font-family="Arial" font-size="14.00" fill="#666666">[text]</text>
<polygon fill="none" stroke="#000000" points="486.5,-702.5 486.5,-732.5 737.5,-732.5 737.5,-702.5 486.5,-702.5"/>
<text text-anchor="start" x="493.5" y="-713.9" font-family="Arial" font-size="14.00" fill="#000000">name    </text>
<text text-anchor="start" x="562.7132" y="-713.9" font-family="Arial" font-size="14.00" fill="#666666">[text]</text>
<polygon fill="none" stroke="#000000" points="486.5,-672.5 486.5,-702.5 737.5,-702.5 737.5,-672.5 486.5,-672.5"/>
<text text-anchor="start" x="493.5" y="-683.9" font-family="Arial" font-size="14.00" fill="#000000">email    </text>
<text text-anchor="start" x="561.1438" y="-683.9" font-family="Arial" font-size="14.00" fill="#666666">[text]</text>
<polygon fill="none" stroke="#000000" points="486.5,-642.5 486.5,-672.5 737.5,-672.5 737.5,-642.5 486.5,-642.5"/>
<text text-anchor="start" x="493.5" y="-653.9" font-family="Arial" font-size="14.00" fill="#000000">phone    </text>
<text text-anchor="start" x="566.6178" y="-653.9" font-family="Arial" font-size="14.00" fill="#666666">[text]</text>
<polygon fill="none" stroke="#000000" points="486.5,-612.5 486.5,-642.5 737.5,-642.5 737.5,-612.5 486.5,-612.5"/>
<text text-anchor="start" x="493.5" y="-623.9" font-family="Arial" font-size="14.00" fill="#000000">opac_visible    </text>
<text text-anchor="start" x="604.7202" y="-623.9" font-family="Arial" font-size="14.00" fill="#666666">[boolean]</text>
<polygon fill="none" stroke="#000000" points="486.5,-582.5 486.5,-612.5 737.5,-612.5 737.5,-582.5 486.5,-582.5"/>
<text text-anchor="start" x="493.5" y="-593.9" font-family="Arial" font-size="14.00" fill="#000000">fiscal_calendar    </text>
<text text-anchor="start" x="621.054" y="-593.9" font-family="Arial" font-size="14.00" fill="#666666">[integer]</text>
</g>
<!-- money.collections_tracker&#45;&gt;actor.org_unit -->
<g id="edge3" class="edge">
<title>money.collections_tracker:location&#45;&gt;actor.org_unit:id</title>
<path fill="none" stroke="#000000" d="M405.1591,-1713.7693C474.3355,-1656.4348 404.9407,-957.5 486.5,-957.5"/>
<polygon fill="#000000" stroke="#000000" points="404.8284,-1713.897 393.8786,-1713.3022 400.1642,-1715.6985 395.5,-1717.5 395.5,-1717.5 395.5,-1717.5 400.1642,-1715.6985 397.1214,-1721.6978 404.8284,-1713.897 404.8284,-1713.897"/>
<text text-anchor="start" x="402.6" y="-1727.5" font-family="Arial" font-size="10.00" fill="#000000">FOREIGN KEY (location) REFERENCES actor.org_unit(id) DEFERRABLE INITIALLY DEFERRED</text>
</g>
</g>
</svg>
