<?xml version="1.0" encoding="UTF-8" standalone="no"?>
<!DOCTYPE svg PUBLIC "-//W3C//DTD SVG 1.1//EN"
 "http://www.w3.org/Graphics/SVG/1.1/DTD/svg11.dtd">
<!-- Generated by graphviz version 2.40.1 (20161225.0304)
 -->
<!-- Title: money.transaction_billing_with_void_summary Pages: 1 -->
<svg width="563pt" height="285pt"
 viewBox="0.00 0.00 563.00 285.00" xmlns="http://www.w3.org/2000/svg" xmlns:xlink="http://www.w3.org/1999/xlink">
<g id="graph0" class="graph" transform="scale(1 1) rotate(0) translate(4 281)">
<title>money.transaction_billing_with_void_summary</title>
<polygon fill="#ffffff" stroke="transparent" points="-4,4 -4,-281 559,-281 559,4 -4,4"/>
<!-- money.transaction_billing_with_void_summary -->
<g id="node1" class="node">
<title>money.transaction_billing_with_void_summary</title>
<polygon fill="#efefef" stroke="transparent" points="46.5,-195.5 46.5,-230.5 509.5,-230.5 509.5,-195.5 46.5,-195.5"/>
<polygon fill="none" stroke="#000000" points="46.5,-195.5 46.5,-230.5 509.5,-230.5 509.5,-195.5 46.5,-195.5"/>
<text text-anchor="start" x="53.0941" y="-208.3" font-family="Arial Bold" font-size="18.00" fill="#000000">money.transaction_billing_with_void_summary</text>
<text text-anchor="start" x="425.1415" y="-208.3" font-family="Arial" font-size="14.00" fill="#000000">    </text>
<text text-anchor="start" x="459.3463" y="-208.3" font-family="Arial" font-size="14.00" fill="#666666">[VIEW]</text>
<polygon fill="none" stroke="#000000" points="46.5,-165.5 46.5,-195.5 509.5,-195.5 509.5,-165.5 46.5,-165.5"/>
<text text-anchor="start" x="53.5" y="-176.9" font-family="Arial" font-size="14.00" fill="#000000">xact </text>
<text text-anchor="start" x="83.0638" y="-176.9" font-family="Arial" font-size="14.00" fill="#666666">[bigint]</text>
<polygon fill="none" stroke="#000000" points="46.5,-135.5 46.5,-165.5 509.5,-165.5 509.5,-135.5 46.5,-135.5"/>
<text text-anchor="start" x="53.5" y="-146.9" font-family="Arial" font-size="14.00" fill="#000000">last_billing_type </text>
<text text-anchor="start" x="156.9656" y="-146.9" font-family="Arial" font-size="14.00" fill="#666666">[text]</text>
<polygon fill="none" stroke="#000000" points="46.5,-105.5 46.5,-135.5 509.5,-135.5 509.5,-105.5 46.5,-105.5"/>
<text text-anchor="start" x="53.5" y="-116.9" font-family="Arial" font-size="14.00" fill="#000000">last_billing_note </text>
<text text-anchor="start" x="157.7482" y="-116.9" font-family="Arial" font-size="14.00" fill="#666666">[text]</text>
<polygon fill="none" stroke="#000000" points="46.5,-75.5 46.5,-105.5 509.5,-105.5 509.5,-75.5 46.5,-75.5"/>
<text text-anchor="start" x="53.5" y="-86.9" font-family="Arial" font-size="14.00" fill="#000000">last_billing_ts </text>
<text text-anchor="start" x="141.4004" y="-86.9" font-family="Arial" font-size="14.00" fill="#666666">[timestamp with time zone]</text>
<polygon fill="none" stroke="#000000" points="46.5,-45.5 46.5,-75.5 509.5,-75.5 509.5,-45.5 46.5,-45.5"/>
<text text-anchor="start" x="53.5" y="-56.9" font-family="Arial" font-size="14.00" fill="#000000">total_owed </text>
<text text-anchor="start" x="125.0806" y="-56.9" font-family="Arial" font-size="14.00" fill="#666666">[numeric]</text>
<polygon fill="none" stroke="#000000" stroke-width="3" points="44.5,-44.5 44.5,-232.5 510.5,-232.5 510.5,-44.5 44.5,-44.5"/>
</g>
</g>
</svg>
