<?xml version="1.0" encoding="UTF-8" standalone="no"?>
<!DOCTYPE svg PUBLIC "-//W3C//DTD SVG 1.1//EN"
 "http://www.w3.org/Graphics/SVG/1.1/DTD/svg11.dtd">
<!-- Generated by graphviz version 2.40.1 (20161225.0304)
 -->
<!-- Title: money.account_adjustment Pages: 1 -->
<svg width="499pt" height="952pt"
 viewBox="0.00 0.00 498.50 952.00" xmlns="http://www.w3.org/2000/svg" xmlns:xlink="http://www.w3.org/1999/xlink">
<g id="graph0" class="graph" transform="scale(1 1) rotate(0) translate(4 948)">
<title>money.account_adjustment</title>
<polygon fill="#ffffff" stroke="transparent" points="-4,4 -4,-948 494.5,-948 494.5,4 -4,4"/>
<!-- money.account_adjustment -->
<g id="node1" class="node">
<title>money.account_adjustment</title>
<polygon fill="#efefef" stroke="transparent" points="46.5,-862.5 46.5,-897.5 407.5,-897.5 407.5,-862.5 46.5,-862.5"/>
<polygon fill="none" stroke="#000000" points="46.5,-862.5 46.5,-897.5 407.5,-897.5 407.5,-862.5 46.5,-862.5"/>
<text text-anchor="start" x="53.182" y="-875.3" font-family="Arial Bold" font-size="18.00" fill="#000000">money.account_adjustment</text>
<text text-anchor="start" x="273.25" y="-875.3" font-family="Arial" font-size="14.00" fill="#000000">    </text>
<text text-anchor="start" x="307.4548" y="-875.3" font-family="Arial" font-size="14.00" fill="#666666">[BASE TABLE]</text>
<polygon fill="none" stroke="#000000" points="46.5,-832.5 46.5,-862.5 407.5,-862.5 407.5,-832.5 46.5,-832.5"/>
<text text-anchor="start" x="53.5" y="-843.9" font-family="Arial" font-size="14.00" fill="#000000">id </text>
<text text-anchor="start" x="68.2798" y="-843.9" font-family="Arial" font-size="14.00" fill="#666666">[bigint]</text>
<polygon fill="none" stroke="#000000" points="46.5,-802.5 46.5,-832.5 407.5,-832.5 407.5,-802.5 46.5,-802.5"/>
<text text-anchor="start" x="53.5" y="-813.9" font-family="Arial" font-size="14.00" fill="#000000">xact </text>
<text text-anchor="start" x="83.0638" y="-813.9" font-family="Arial" font-size="14.00" fill="#666666">[bigint]</text>
<polygon fill="none" stroke="#000000" points="46.5,-772.5 46.5,-802.5 407.5,-802.5 407.5,-772.5 46.5,-772.5"/>
<text text-anchor="start" x="53.5" y="-783.9" font-family="Arial" font-size="14.00" fill="#000000">payment_ts </text>
<text text-anchor="start" x="129.7454" y="-783.9" font-family="Arial" font-size="14.00" fill="#666666">[timestamp with time zone]</text>
<polygon fill="none" stroke="#000000" points="46.5,-742.5 46.5,-772.5 407.5,-772.5 407.5,-742.5 46.5,-742.5"/>
<text text-anchor="start" x="53.5" y="-753.9" font-family="Arial" font-size="14.00" fill="#000000">voided </text>
<text text-anchor="start" x="98.6276" y="-753.9" font-family="Arial" font-size="14.00" fill="#666666">[boolean]</text>
<polygon fill="none" stroke="#000000" points="46.5,-712.5 46.5,-742.5 407.5,-742.5 407.5,-712.5 46.5,-712.5"/>
<text text-anchor="start" x="53.5" y="-723.9" font-family="Arial" font-size="14.00" fill="#000000">amount </text>
<text text-anchor="start" x="104.0722" y="-723.9" font-family="Arial" font-size="14.00" fill="#666666">[numeric(6,2)]</text>
<polygon fill="none" stroke="#000000" points="46.5,-682.5 46.5,-712.5 407.5,-712.5 407.5,-682.5 46.5,-682.5"/>
<text text-anchor="start" x="53.5" y="-693.9" font-family="Arial" font-size="14.00" fill="#000000">note </text>
<text text-anchor="start" x="84.629" y="-693.9" font-family="Arial" font-size="14.00" fill="#666666">[text]</text>
<polygon fill="none" stroke="#000000" points="46.5,-652.5 46.5,-682.5 407.5,-682.5 407.5,-652.5 46.5,-652.5"/>
<text text-anchor="start" x="53.5" y="-663.9" font-family="Arial" font-size="14.00" fill="#000000">amount_collected </text>
<text text-anchor="start" x="167.089" y="-663.9" font-family="Arial" font-size="14.00" fill="#666666">[numeric(6,2)]</text>
<polygon fill="none" stroke="#000000" points="46.5,-622.5 46.5,-652.5 407.5,-652.5 407.5,-622.5 46.5,-622.5"/>
<text text-anchor="start" x="53.5" y="-633.9" font-family="Arial" font-size="14.00" fill="#000000">accepting_usr </text>
<text text-anchor="start" x="144.5266" y="-633.9" font-family="Arial" font-size="14.00" fill="#666666">[integer]</text>
<polygon fill="none" stroke="#000000" points="46.5,-592.5 46.5,-622.5 407.5,-622.5 407.5,-592.5 46.5,-592.5"/>
<text text-anchor="start" x="53.5" y="-603.9" font-family="Arial" font-size="14.00" fill="#000000">billing </text>
<text text-anchor="start" x="93.1648" y="-603.9" font-family="Arial" font-size="14.00" fill="#666666">[bigint]</text>
<polygon fill="none" stroke="#000000" stroke-width="3" points="44.5,-591.5 44.5,-899.5 408.5,-899.5 408.5,-591.5 44.5,-591.5"/>
</g>
<!-- money.billing -->
<g id="node2" class="node">
<title>money.billing</title>
<polygon fill="#efefef" stroke="transparent" points="83.5,-432.5 83.5,-467.5 370.5,-467.5 370.5,-432.5 83.5,-432.5"/>
<polygon fill="none" stroke="#000000" points="83.5,-432.5 83.5,-467.5 370.5,-467.5 370.5,-432.5 83.5,-432.5"/>
<text text-anchor="start" x="110.7118" y="-445.3" font-family="Arial Bold" font-size="18.00" fill="#000000">money.billing</text>
<text text-anchor="start" x="215.7202" y="-445.3" font-family="Arial" font-size="14.00" fill="#000000">    </text>
<text text-anchor="start" x="249.925" y="-445.3" font-family="Arial" font-size="14.00" fill="#666666">[BASE TABLE]</text>
<polygon fill="none" stroke="#000000" points="83.5,-402.5 83.5,-432.5 370.5,-432.5 370.5,-402.5 83.5,-402.5"/>
<text text-anchor="start" x="90.5" y="-413.9" font-family="Arial" font-size="14.00" fill="#000000">id    </text>
<text text-anchor="start" x="135.594" y="-413.9" font-family="Arial" font-size="14.00" fill="#666666">[bigint]</text>
<polygon fill="none" stroke="#000000" points="83.5,-372.5 83.5,-402.5 370.5,-402.5 370.5,-372.5 83.5,-372.5"/>
<text text-anchor="start" x="90.5" y="-383.9" font-family="Arial" font-size="14.00" fill="#000000">xact    </text>
<text text-anchor="start" x="150.378" y="-383.9" font-family="Arial" font-size="14.00" fill="#666666">[bigint]</text>
<polygon fill="none" stroke="#000000" points="83.5,-342.5 83.5,-372.5 370.5,-372.5 370.5,-342.5 83.5,-342.5"/>
<text text-anchor="start" x="90.5" y="-353.9" font-family="Arial" font-size="14.00" fill="#000000">billing_ts    </text>
<text text-anchor="start" x="179.1522" y="-353.9" font-family="Arial" font-size="14.00" fill="#666666">[timestamp with time zone]</text>
<polygon fill="none" stroke="#000000" points="83.5,-312.5 83.5,-342.5 370.5,-342.5 370.5,-312.5 83.5,-312.5"/>
<text text-anchor="start" x="90.5" y="-323.9" font-family="Arial" font-size="14.00" fill="#000000">voided    </text>
<text text-anchor="start" x="165.9418" y="-323.9" font-family="Arial" font-size="14.00" fill="#666666">[boolean]</text>
<polygon fill="none" stroke="#000000" points="83.5,-282.5 83.5,-312.5 370.5,-312.5 370.5,-282.5 83.5,-282.5"/>
<text text-anchor="start" x="90.5" y="-293.9" font-family="Arial" font-size="14.00" fill="#000000">voider    </text>
<text text-anchor="start" x="162.8198" y="-293.9" font-family="Arial" font-size="14.00" fill="#666666">[integer]</text>
<polygon fill="none" stroke="#000000" points="83.5,-252.5 83.5,-282.5 370.5,-282.5 370.5,-252.5 83.5,-252.5"/>
<text text-anchor="start" x="90.5" y="-263.9" font-family="Arial" font-size="14.00" fill="#000000">void_time    </text>
<text text-anchor="start" x="184.5996" y="-263.9" font-family="Arial" font-size="14.00" fill="#666666">[timestamp with time zone]</text>
<polygon fill="none" stroke="#000000" points="83.5,-222.5 83.5,-252.5 370.5,-252.5 370.5,-222.5 83.5,-222.5"/>
<text text-anchor="start" x="90.5" y="-233.9" font-family="Arial" font-size="14.00" fill="#000000">amount    </text>
<text text-anchor="start" x="171.3864" y="-233.9" font-family="Arial" font-size="14.00" fill="#666666">[numeric(6,2)]</text>
<polygon fill="none" stroke="#000000" points="83.5,-192.5 83.5,-222.5 370.5,-222.5 370.5,-192.5 83.5,-192.5"/>
<text text-anchor="start" x="90.5" y="-203.9" font-family="Arial" font-size="14.00" fill="#000000">billing_type    </text>
<text text-anchor="start" x="194.7174" y="-203.9" font-family="Arial" font-size="14.00" fill="#666666">[text]</text>
<polygon fill="none" stroke="#000000" points="83.5,-162.5 83.5,-192.5 370.5,-192.5 370.5,-162.5 83.5,-162.5"/>
<text text-anchor="start" x="90.5" y="-173.9" font-family="Arial" font-size="14.00" fill="#000000">btype    </text>
<text text-anchor="start" x="158.9432" y="-173.9" font-family="Arial" font-size="14.00" fill="#666666">[integer]</text>
<polygon fill="none" stroke="#000000" points="83.5,-132.5 83.5,-162.5 370.5,-162.5 370.5,-132.5 83.5,-132.5"/>
<text text-anchor="start" x="90.5" y="-143.9" font-family="Arial" font-size="14.00" fill="#000000">note    </text>
<text text-anchor="start" x="151.9432" y="-143.9" font-family="Arial" font-size="14.00" fill="#666666">[text]</text>
<polygon fill="none" stroke="#000000" points="83.5,-102.5 83.5,-132.5 370.5,-132.5 370.5,-102.5 83.5,-102.5"/>
<text text-anchor="start" x="90.0954" y="-113.9" font-family="Arial" font-size="14.00" fill="#000000">create_date    </text>
<text text-anchor="start" x="198.2202" y="-113.9" font-family="Arial" font-size="14.00" fill="#666666">[timestamp with time zone]</text>
<polygon fill="none" stroke="#000000" points="83.5,-72.5 83.5,-102.5 370.5,-102.5 370.5,-72.5 83.5,-72.5"/>
<text text-anchor="start" x="90.1031" y="-83.9" font-family="Arial" font-size="14.00" fill="#000000">period_start    </text>
<text text-anchor="start" x="198.2125" y="-83.9" font-family="Arial" font-size="14.00" fill="#666666">[timestamp with time zone]</text>
<polygon fill="none" stroke="#000000" points="83.5,-42.5 83.5,-72.5 370.5,-72.5 370.5,-42.5 83.5,-42.5"/>
<text text-anchor="start" x="90.5" y="-53.9" font-family="Arial" font-size="14.00" fill="#000000">period_end    </text>
<text text-anchor="start" x="194.7328" y="-53.9" font-family="Arial" font-size="14.00" fill="#666666">[timestamp with time zone]</text>
</g>
<!-- money.account_adjustment&#45;&gt;money.billing -->
<g id="edge1" class="edge">
<title>money.account_adjustment:billing&#45;&gt;money.billing:id</title>
<path fill="none" stroke="#000000" d="M226.6957,-582.263C216.8174,-524.2971 118.6614,-571.3027 83.5,-511 62.5681,-475.1013 41.9444,-417.5 83.5,-417.5"/>
<polygon fill="#000000" stroke="#000000" points="226.7167,-582.5307 223.0138,-592.8525 227.1083,-587.5154 227.5,-592.5 227.5,-592.5 227.5,-592.5 227.1083,-587.5154 231.9862,-592.1475 226.7167,-582.5307 226.7167,-582.5307"/>
<text text-anchor="start" x="234.5045" y="-602.5" font-family="Arial" font-size="10.00" fill="#000000">FOREIGN KEY (billing) REFERENCES money.billing(id)</text>
</g>
</g>
</svg>
