<?xml version="1.0" encoding="UTF-8" standalone="no"?>
<!DOCTYPE svg PUBLIC "-//W3C//DTD SVG 1.1//EN"
 "http://www.w3.org/Graphics/SVG/1.1/DTD/svg11.dtd">
<!-- Generated by graphviz version 2.40.1 (20161225.0304)
 -->
<!-- Title: money.billable_xact_summary Pages: 1 -->
<svg width="433pt" height="555pt"
 viewBox="0.00 0.00 433.00 555.00" xmlns="http://www.w3.org/2000/svg" xmlns:xlink="http://www.w3.org/1999/xlink">
<g id="graph0" class="graph" transform="scale(1 1) rotate(0) translate(4 551)">
<title>money.billable_xact_summary</title>
<polygon fill="#ffffff" stroke="transparent" points="-4,4 -4,-551 429,-551 429,4 -4,4"/>
<!-- money.billable_xact_summary -->
<g id="node1" class="node">
<title>money.billable_xact_summary</title>
<polygon fill="#efefef" stroke="transparent" points="46.5,-465.5 46.5,-500.5 379.5,-500.5 379.5,-465.5 46.5,-465.5"/>
<polygon fill="none" stroke="#000000" points="46.5,-465.5 46.5,-500.5 379.5,-500.5 379.5,-465.5 46.5,-465.5"/>
<text text-anchor="start" x="53.1056" y="-478.3" font-family="Arial Bold" font-size="18.00" fill="#000000">money.billable_xact_summary</text>
<text text-anchor="start" x="295.13" y="-478.3" font-family="Arial" font-size="14.00" fill="#000000">    </text>
<text text-anchor="start" x="329.3348" y="-478.3" font-family="Arial" font-size="14.00" fill="#666666">[VIEW]</text>
<polygon fill="none" stroke="#000000" points="46.5,-435.5 46.5,-465.5 379.5,-465.5 379.5,-435.5 46.5,-435.5"/>
<text text-anchor="start" x="53.5" y="-446.9" font-family="Arial" font-size="14.00" fill="#000000">id </text>
<text text-anchor="start" x="68.2798" y="-446.9" font-family="Arial" font-size="14.00" fill="#666666">[bigint]</text>
<polygon fill="none" stroke="#000000" points="46.5,-405.5 46.5,-435.5 379.5,-435.5 379.5,-405.5 46.5,-405.5"/>
<text text-anchor="start" x="53.5" y="-416.9" font-family="Arial" font-size="14.00" fill="#000000">usr </text>
<text text-anchor="start" x="76.8338" y="-416.9" font-family="Arial" font-size="14.00" fill="#666666">[integer]</text>
<polygon fill="none" stroke="#000000" points="46.5,-375.5 46.5,-405.5 379.5,-405.5 379.5,-375.5 46.5,-375.5"/>
<text text-anchor="start" x="53.5" y="-386.9" font-family="Arial" font-size="14.00" fill="#000000">xact_start </text>
<text text-anchor="start" x="118.0708" y="-386.9" font-family="Arial" font-size="14.00" fill="#666666">[timestamp with time zone]</text>
<polygon fill="none" stroke="#000000" points="46.5,-345.5 46.5,-375.5 379.5,-375.5 379.5,-345.5 46.5,-345.5"/>
<text text-anchor="start" x="53.5" y="-356.9" font-family="Arial" font-size="14.00" fill="#000000">xact_finish </text>
<text text-anchor="start" x="123.5154" y="-356.9" font-family="Arial" font-size="14.00" fill="#666666">[timestamp with time zone]</text>
<polygon fill="none" stroke="#000000" points="46.5,-315.5 46.5,-345.5 379.5,-345.5 379.5,-315.5 46.5,-315.5"/>
<text text-anchor="start" x="53.5" y="-326.9" font-family="Arial" font-size="14.00" fill="#000000">total_paid </text>
<text text-anchor="start" x="118.0806" y="-326.9" font-family="Arial" font-size="14.00" fill="#666666">[numeric]</text>
<polygon fill="none" stroke="#000000" points="46.5,-285.5 46.5,-315.5 379.5,-315.5 379.5,-285.5 46.5,-285.5"/>
<text text-anchor="start" x="53.5" y="-296.9" font-family="Arial" font-size="14.00" fill="#000000">last_payment_ts </text>
<text text-anchor="start" x="159.3078" y="-296.9" font-family="Arial" font-size="14.00" fill="#666666">[timestamp with time zone]</text>
<polygon fill="none" stroke="#000000" points="46.5,-255.5 46.5,-285.5 379.5,-285.5 379.5,-255.5 46.5,-255.5"/>
<text text-anchor="start" x="53.5" y="-266.9" font-family="Arial" font-size="14.00" fill="#000000">last_payment_note </text>
<text text-anchor="start" x="175.6556" y="-266.9" font-family="Arial" font-size="14.00" fill="#666666">[text]</text>
<polygon fill="none" stroke="#000000" points="46.5,-225.5 46.5,-255.5 379.5,-255.5 379.5,-225.5 46.5,-225.5"/>
<text text-anchor="start" x="53.5" y="-236.9" font-family="Arial" font-size="14.00" fill="#000000">last_payment_type </text>
<text text-anchor="start" x="174.873" y="-236.9" font-family="Arial" font-size="14.00" fill="#666666">[name]</text>
<polygon fill="none" stroke="#000000" points="46.5,-195.5 46.5,-225.5 379.5,-225.5 379.5,-195.5 46.5,-195.5"/>
<text text-anchor="start" x="53.5" y="-206.9" font-family="Arial" font-size="14.00" fill="#000000">total_owed </text>
<text text-anchor="start" x="125.0806" y="-206.9" font-family="Arial" font-size="14.00" fill="#666666">[numeric]</text>
<polygon fill="none" stroke="#000000" points="46.5,-165.5 46.5,-195.5 379.5,-195.5 379.5,-165.5 46.5,-165.5"/>
<text text-anchor="start" x="53.5" y="-176.9" font-family="Arial" font-size="14.00" fill="#000000">last_billing_ts </text>
<text text-anchor="start" x="141.4004" y="-176.9" font-family="Arial" font-size="14.00" fill="#666666">[timestamp with time zone]</text>
<polygon fill="none" stroke="#000000" points="46.5,-135.5 46.5,-165.5 379.5,-165.5 379.5,-135.5 46.5,-135.5"/>
<text text-anchor="start" x="53.5" y="-146.9" font-family="Arial" font-size="14.00" fill="#000000">last_billing_note </text>
<text text-anchor="start" x="157.7482" y="-146.9" font-family="Arial" font-size="14.00" fill="#666666">[text]</text>
<polygon fill="none" stroke="#000000" points="46.5,-105.5 46.5,-135.5 379.5,-135.5 379.5,-105.5 46.5,-105.5"/>
<text text-anchor="start" x="53.5" y="-116.9" font-family="Arial" font-size="14.00" fill="#000000">last_billing_type </text>
<text text-anchor="start" x="156.9656" y="-116.9" font-family="Arial" font-size="14.00" fill="#666666">[text]</text>
<polygon fill="none" stroke="#000000" points="46.5,-75.5 46.5,-105.5 379.5,-105.5 379.5,-75.5 46.5,-75.5"/>
<text text-anchor="start" x="53.5" y="-86.9" font-family="Arial" font-size="14.00" fill="#000000">balance_owed </text>
<text text-anchor="start" x="147.6472" y="-86.9" font-family="Arial" font-size="14.00" fill="#666666">[numeric]</text>
<polygon fill="none" stroke="#000000" points="46.5,-45.5 46.5,-75.5 379.5,-75.5 379.5,-45.5 46.5,-45.5"/>
<text text-anchor="start" x="53.5" y="-56.9" font-family="Arial" font-size="14.00" fill="#000000">xact_type </text>
<text text-anchor="start" x="117.3022" y="-56.9" font-family="Arial" font-size="14.00" fill="#666666">[name]</text>
<polygon fill="none" stroke="#000000" stroke-width="3" points="44.5,-44.5 44.5,-502.5 380.5,-502.5 380.5,-44.5 44.5,-44.5"/>
</g>
</g>
</svg>
