<?xml version="1.0" encoding="UTF-8" standalone="no"?>
<!DOCTYPE svg PUBLIC "-//W3C//DTD SVG 1.1//EN"
 "http://www.w3.org/Graphics/SVG/1.1/DTD/svg11.dtd">
<!-- Generated by graphviz version 2.40.1 (20161225.0304)
 -->
<!-- Title: money.billable_xact_with_void_summary Pages: 1 -->
<svg width="518pt" height="555pt"
 viewBox="0.00 0.00 518.00 555.00" xmlns="http://www.w3.org/2000/svg" xmlns:xlink="http://www.w3.org/1999/xlink">
<g id="graph0" class="graph" transform="scale(1 1) rotate(0) translate(4 551)">
<title>money.billable_xact_with_void_summary</title>
<polygon fill="#ffffff" stroke="transparent" points="-4,4 -4,-551 514,-551 514,4 -4,4"/>
<!-- money.billable_xact_with_void_summary -->
<g id="node1" class="node">
<title>money.billable_xact_with_void_summary</title>
<polygon fill="#efefef" stroke="transparent" points="46,-465.5 46,-500.5 464,-500.5 464,-465.5 46,-465.5"/>
<polygon fill="none" stroke="#000000" points="46,-465.5 46,-500.5 464,-500.5 464,-465.5 46,-465.5"/>
<text text-anchor="start" x="52.5977" y="-478.3" font-family="Arial Bold" font-size="18.00" fill="#000000">money.billable_xact_with_void_summary</text>
<text text-anchor="start" x="379.6379" y="-478.3" font-family="Arial" font-size="14.00" fill="#000000">    </text>
<text text-anchor="start" x="413.8427" y="-478.3" font-family="Arial" font-size="14.00" fill="#666666">[VIEW]</text>
<polygon fill="none" stroke="#000000" points="46,-435.5 46,-465.5 464,-465.5 464,-435.5 46,-435.5"/>
<text text-anchor="start" x="53" y="-446.9" font-family="Arial" font-size="14.00" fill="#000000">id </text>
<text text-anchor="start" x="67.7798" y="-446.9" font-family="Arial" font-size="14.00" fill="#666666">[bigint]</text>
<polygon fill="none" stroke="#000000" points="46,-405.5 46,-435.5 464,-435.5 464,-405.5 46,-405.5"/>
<text text-anchor="start" x="53" y="-416.9" font-family="Arial" font-size="14.00" fill="#000000">usr </text>
<text text-anchor="start" x="76.3338" y="-416.9" font-family="Arial" font-size="14.00" fill="#666666">[integer]</text>
<polygon fill="none" stroke="#000000" points="46,-375.5 46,-405.5 464,-405.5 464,-375.5 46,-375.5"/>
<text text-anchor="start" x="53" y="-386.9" font-family="Arial" font-size="14.00" fill="#000000">xact_start </text>
<text text-anchor="start" x="117.5708" y="-386.9" font-family="Arial" font-size="14.00" fill="#666666">[timestamp with time zone]</text>
<polygon fill="none" stroke="#000000" points="46,-345.5 46,-375.5 464,-375.5 464,-345.5 46,-345.5"/>
<text text-anchor="start" x="53" y="-356.9" font-family="Arial" font-size="14.00" fill="#000000">xact_finish </text>
<text text-anchor="start" x="123.0154" y="-356.9" font-family="Arial" font-size="14.00" fill="#666666">[timestamp with time zone]</text>
<polygon fill="none" stroke="#000000" points="46,-315.5 46,-345.5 464,-345.5 464,-315.5 46,-315.5"/>
<text text-anchor="start" x="53" y="-326.9" font-family="Arial" font-size="14.00" fill="#000000">total_paid </text>
<text text-anchor="start" x="117.5806" y="-326.9" font-family="Arial" font-size="14.00" fill="#666666">[numeric]</text>
<polygon fill="none" stroke="#000000" points="46,-285.5 46,-315.5 464,-315.5 464,-285.5 46,-285.5"/>
<text text-anchor="start" x="53" y="-296.9" font-family="Arial" font-size="14.00" fill="#000000">last_payment_ts </text>
<text text-anchor="start" x="158.8078" y="-296.9" font-family="Arial" font-size="14.00" fill="#666666">[timestamp with time zone]</text>
<polygon fill="none" stroke="#000000" points="46,-255.5 46,-285.5 464,-285.5 464,-255.5 46,-255.5"/>
<text text-anchor="start" x="53" y="-266.9" font-family="Arial" font-size="14.00" fill="#000000">last_payment_note </text>
<text text-anchor="start" x="175.1556" y="-266.9" font-family="Arial" font-size="14.00" fill="#666666">[text]</text>
<polygon fill="none" stroke="#000000" points="46,-225.5 46,-255.5 464,-255.5 464,-225.5 46,-225.5"/>
<text text-anchor="start" x="53" y="-236.9" font-family="Arial" font-size="14.00" fill="#000000">last_payment_type </text>
<text text-anchor="start" x="174.373" y="-236.9" font-family="Arial" font-size="14.00" fill="#666666">[name]</text>
<polygon fill="none" stroke="#000000" points="46,-195.5 46,-225.5 464,-225.5 464,-195.5 46,-195.5"/>
<text text-anchor="start" x="53" y="-206.9" font-family="Arial" font-size="14.00" fill="#000000">total_owed </text>
<text text-anchor="start" x="124.5806" y="-206.9" font-family="Arial" font-size="14.00" fill="#666666">[numeric]</text>
<polygon fill="none" stroke="#000000" points="46,-165.5 46,-195.5 464,-195.5 464,-165.5 46,-165.5"/>
<text text-anchor="start" x="53" y="-176.9" font-family="Arial" font-size="14.00" fill="#000000">last_billing_ts </text>
<text text-anchor="start" x="140.9004" y="-176.9" font-family="Arial" font-size="14.00" fill="#666666">[timestamp with time zone]</text>
<polygon fill="none" stroke="#000000" points="46,-135.5 46,-165.5 464,-165.5 464,-135.5 46,-135.5"/>
<text text-anchor="start" x="53" y="-146.9" font-family="Arial" font-size="14.00" fill="#000000">last_billing_note </text>
<text text-anchor="start" x="157.2482" y="-146.9" font-family="Arial" font-size="14.00" fill="#666666">[text]</text>
<polygon fill="none" stroke="#000000" points="46,-105.5 46,-135.5 464,-135.5 464,-105.5 46,-105.5"/>
<text text-anchor="start" x="53" y="-116.9" font-family="Arial" font-size="14.00" fill="#000000">last_billing_type </text>
<text text-anchor="start" x="156.4656" y="-116.9" font-family="Arial" font-size="14.00" fill="#666666">[text]</text>
<polygon fill="none" stroke="#000000" points="46,-75.5 46,-105.5 464,-105.5 464,-75.5 46,-75.5"/>
<text text-anchor="start" x="53" y="-86.9" font-family="Arial" font-size="14.00" fill="#000000">balance_owed </text>
<text text-anchor="start" x="147.1472" y="-86.9" font-family="Arial" font-size="14.00" fill="#666666">[numeric]</text>
<polygon fill="none" stroke="#000000" points="46,-45.5 46,-75.5 464,-75.5 464,-45.5 46,-45.5"/>
<text text-anchor="start" x="53" y="-56.9" font-family="Arial" font-size="14.00" fill="#000000">xact_type </text>
<text text-anchor="start" x="116.8022" y="-56.9" font-family="Arial" font-size="14.00" fill="#666666">[name]</text>
<polygon fill="none" stroke="#000000" stroke-width="3" points="44.5,-44.5 44.5,-502.5 465.5,-502.5 465.5,-44.5 44.5,-44.5"/>
</g>
</g>
</svg>
