<?xml version="1.0" encoding="UTF-8" standalone="no"?>
<!DOCTYPE svg PUBLIC "-//W3C//DTD SVG 1.1//EN"
 "http://www.w3.org/Graphics/SVG/1.1/DTD/svg11.dtd">
<!-- Generated by graphviz version 2.40.1 (20161225.0304)
 -->
<!-- Title: money.open_transaction_billing_type_summary Pages: 1 -->
<svg width="572pt" height="285pt"
 viewBox="0.00 0.00 572.00 285.00" xmlns="http://www.w3.org/2000/svg" xmlns:xlink="http://www.w3.org/1999/xlink">
<g id="graph0" class="graph" transform="scale(1 1) rotate(0) translate(4 281)">
<title>money.open_transaction_billing_type_summary</title>
<polygon fill="#ffffff" stroke="transparent" points="-4,4 -4,-281 568,-281 568,4 -4,4"/>
<!-- money.open_transaction_billing_type_summary -->
<g id="node1" class="node">
<title>money.open_transaction_billing_type_summary</title>
<polygon fill="#efefef" stroke="transparent" points="46,-195.5 46,-230.5 518,-230.5 518,-195.5 46,-195.5"/>
<polygon fill="none" stroke="#000000" points="46,-195.5 46,-230.5 518,-230.5 518,-195.5 46,-195.5"/>
<text text-anchor="start" x="52.5761" y="-208.3" font-family="Arial Bold" font-size="18.00" fill="#000000">money.open_transaction_billing_type_summary</text>
<text text-anchor="start" x="433.6595" y="-208.3" font-family="Arial" font-size="14.00" fill="#000000">    </text>
<text text-anchor="start" x="467.8643" y="-208.3" font-family="Arial" font-size="14.00" fill="#666666">[VIEW]</text>
<polygon fill="none" stroke="#000000" points="46,-165.5 46,-195.5 518,-195.5 518,-165.5 46,-165.5"/>
<text text-anchor="start" x="53" y="-176.9" font-family="Arial" font-size="14.00" fill="#000000">xact </text>
<text text-anchor="start" x="82.5638" y="-176.9" font-family="Arial" font-size="14.00" fill="#666666">[bigint]</text>
<polygon fill="none" stroke="#000000" points="46,-135.5 46,-165.5 518,-165.5 518,-135.5 46,-135.5"/>
<text text-anchor="start" x="53" y="-146.9" font-family="Arial" font-size="14.00" fill="#000000">last_billing_type </text>
<text text-anchor="start" x="156.4656" y="-146.9" font-family="Arial" font-size="14.00" fill="#666666">[text]</text>
<polygon fill="none" stroke="#000000" points="46,-105.5 46,-135.5 518,-135.5 518,-105.5 46,-105.5"/>
<text text-anchor="start" x="53" y="-116.9" font-family="Arial" font-size="14.00" fill="#000000">last_billing_note </text>
<text text-anchor="start" x="157.2482" y="-116.9" font-family="Arial" font-size="14.00" fill="#666666">[text]</text>
<polygon fill="none" stroke="#000000" points="46,-75.5 46,-105.5 518,-105.5 518,-75.5 46,-75.5"/>
<text text-anchor="start" x="53" y="-86.9" font-family="Arial" font-size="14.00" fill="#000000">last_billing_ts </text>
<text text-anchor="start" x="140.9004" y="-86.9" font-family="Arial" font-size="14.00" fill="#666666">[timestamp with time zone]</text>
<polygon fill="none" stroke="#000000" points="46,-45.5 46,-75.5 518,-75.5 518,-45.5 46,-45.5"/>
<text text-anchor="start" x="53" y="-56.9" font-family="Arial" font-size="14.00" fill="#000000">total_owed </text>
<text text-anchor="start" x="124.5806" y="-56.9" font-family="Arial" font-size="14.00" fill="#666666">[numeric]</text>
<polygon fill="none" stroke="#000000" stroke-width="3" points="44.5,-44.5 44.5,-232.5 519.5,-232.5 519.5,-44.5 44.5,-44.5"/>
</g>
</g>
</svg>
