<?xml version="1.0" encoding="UTF-8" standalone="no"?>
<!DOCTYPE svg PUBLIC "-//W3C//DTD SVG 1.1//EN"
 "http://www.w3.org/Graphics/SVG/1.1/DTD/svg11.dtd">
<!-- Generated by graphviz version 2.40.1 (20161225.0304)
 -->
<!-- Title: money.goods_payment Pages: 1 -->
<svg width="428pt" height="375pt"
 viewBox="0.00 0.00 428.00 375.00" xmlns="http://www.w3.org/2000/svg" xmlns:xlink="http://www.w3.org/1999/xlink">
<g id="graph0" class="graph" transform="scale(1 1) rotate(0) translate(4 371)">
<title>money.goods_payment</title>
<polygon fill="#ffffff" stroke="transparent" points="-4,4 -4,-371 424,-371 424,4 -4,4"/>
<!-- money.goods_payment -->
<g id="node1" class="node">
<title>money.goods_payment</title>
<polygon fill="#efefef" stroke="transparent" points="46,-285.5 46,-320.5 374,-320.5 374,-285.5 46,-285.5"/>
<polygon fill="none" stroke="#000000" points="46,-285.5 46,-320.5 374,-320.5 374,-285.5 46,-285.5"/>
<text text-anchor="start" x="52.6844" y="-298.3" font-family="Arial Bold" font-size="18.00" fill="#000000">money.goods_payment</text>
<text text-anchor="start" x="239.7476" y="-298.3" font-family="Arial" font-size="14.00" fill="#000000">    </text>
<text text-anchor="start" x="273.9524" y="-298.3" font-family="Arial" font-size="14.00" fill="#666666">[BASE TABLE]</text>
<polygon fill="none" stroke="#000000" points="46,-255.5 46,-285.5 374,-285.5 374,-255.5 46,-255.5"/>
<text text-anchor="start" x="53" y="-266.9" font-family="Arial" font-size="14.00" fill="#000000">id </text>
<text text-anchor="start" x="67.7798" y="-266.9" font-family="Arial" font-size="14.00" fill="#666666">[bigint]</text>
<polygon fill="none" stroke="#000000" points="46,-225.5 46,-255.5 374,-255.5 374,-225.5 46,-225.5"/>
<text text-anchor="start" x="53" y="-236.9" font-family="Arial" font-size="14.00" fill="#000000">xact </text>
<text text-anchor="start" x="82.5638" y="-236.9" font-family="Arial" font-size="14.00" fill="#666666">[bigint]</text>
<polygon fill="none" stroke="#000000" points="46,-195.5 46,-225.5 374,-225.5 374,-195.5 46,-195.5"/>
<text text-anchor="start" x="53" y="-206.9" font-family="Arial" font-size="14.00" fill="#000000">payment_ts </text>
<text text-anchor="start" x="129.2454" y="-206.9" font-family="Arial" font-size="14.00" fill="#666666">[timestamp with time zone]</text>
<polygon fill="none" stroke="#000000" points="46,-165.5 46,-195.5 374,-195.5 374,-165.5 46,-165.5"/>
<text text-anchor="start" x="53" y="-176.9" font-family="Arial" font-size="14.00" fill="#000000">voided </text>
<text text-anchor="start" x="98.1276" y="-176.9" font-family="Arial" font-size="14.00" fill="#666666">[boolean]</text>
<polygon fill="none" stroke="#000000" points="46,-135.5 46,-165.5 374,-165.5 374,-135.5 46,-135.5"/>
<text text-anchor="start" x="53" y="-146.9" font-family="Arial" font-size="14.00" fill="#000000">amount </text>
<text text-anchor="start" x="103.5722" y="-146.9" font-family="Arial" font-size="14.00" fill="#666666">[numeric(6,2)]</text>
<polygon fill="none" stroke="#000000" points="46,-105.5 46,-135.5 374,-135.5 374,-105.5 46,-105.5"/>
<text text-anchor="start" x="53" y="-116.9" font-family="Arial" font-size="14.00" fill="#000000">note </text>
<text text-anchor="start" x="84.129" y="-116.9" font-family="Arial" font-size="14.00" fill="#666666">[text]</text>
<polygon fill="none" stroke="#000000" points="46,-75.5 46,-105.5 374,-105.5 374,-75.5 46,-75.5"/>
<text text-anchor="start" x="53" y="-86.9" font-family="Arial" font-size="14.00" fill="#000000">amount_collected </text>
<text text-anchor="start" x="166.589" y="-86.9" font-family="Arial" font-size="14.00" fill="#666666">[numeric(6,2)]</text>
<polygon fill="none" stroke="#000000" points="46,-45.5 46,-75.5 374,-75.5 374,-45.5 46,-45.5"/>
<text text-anchor="start" x="53" y="-56.9" font-family="Arial" font-size="14.00" fill="#000000">accepting_usr </text>
<text text-anchor="start" x="144.0266" y="-56.9" font-family="Arial" font-size="14.00" fill="#666666">[integer]</text>
<polygon fill="none" stroke="#000000" stroke-width="3" points="44.5,-44.5 44.5,-322.5 375.5,-322.5 375.5,-44.5 44.5,-44.5"/>
</g>
</g>
</svg>
