<?xml version="1.0" encoding="UTF-8" standalone="no"?>
<!DOCTYPE svg PUBLIC "-//W3C//DTD SVG 1.1//EN"
 "http://www.w3.org/Graphics/SVG/1.1/DTD/svg11.dtd">
<!-- Generated by graphviz version 2.40.1 (20161225.0304)
 -->
<!-- Title: money.billing Pages: 1 -->
<svg width="933pt" height="1229pt"
 viewBox="0.00 0.00 932.50 1229.00" xmlns="http://www.w3.org/2000/svg" xmlns:xlink="http://www.w3.org/1999/xlink">
<g id="graph0" class="graph" transform="scale(1 1) rotate(0) translate(4 1225)">
<title>money.billing</title>
<polygon fill="#ffffff" stroke="transparent" points="-4,4 -4,-1225 928.5,-1225 928.5,4 -4,4"/>
<!-- money.billing -->
<g id="node1" class="node">
<title>money.billing</title>
<polygon fill="#efefef" stroke="transparent" points="95.5,-712.5 95.5,-747.5 352.5,-747.5 352.5,-712.5 95.5,-712.5"/>
<polygon fill="none" stroke="#000000" points="95.5,-712.5 95.5,-747.5 352.5,-747.5 352.5,-712.5 95.5,-712.5"/>
<text text-anchor="start" x="107.7118" y="-725.3" font-family="Arial Bold" font-size="18.00" fill="#000000">money.billing</text>
<text text-anchor="start" x="212.7202" y="-725.3" font-family="Arial" font-size="14.00" fill="#000000">    </text>
<text text-anchor="start" x="246.925" y="-725.3" font-family="Arial" font-size="14.00" fill="#666666">[BASE TABLE]</text>
<polygon fill="none" stroke="#000000" points="95.5,-682.5 95.5,-712.5 352.5,-712.5 352.5,-682.5 95.5,-682.5"/>
<text text-anchor="start" x="102.5" y="-693.9" font-family="Arial" font-size="14.00" fill="#000000">id </text>
<text text-anchor="start" x="117.2798" y="-693.9" font-family="Arial" font-size="14.00" fill="#666666">[bigint]</text>
<polygon fill="none" stroke="#000000" points="95.5,-652.5 95.5,-682.5 352.5,-682.5 352.5,-652.5 95.5,-652.5"/>
<text text-anchor="start" x="102.5" y="-663.9" font-family="Arial" font-size="14.00" fill="#000000">xact </text>
<text text-anchor="start" x="132.0638" y="-663.9" font-family="Arial" font-size="14.00" fill="#666666">[bigint]</text>
<polygon fill="none" stroke="#000000" points="95.5,-622.5 95.5,-652.5 352.5,-652.5 352.5,-622.5 95.5,-622.5"/>
<text text-anchor="start" x="102.5" y="-633.9" font-family="Arial" font-size="14.00" fill="#000000">billing_ts </text>
<text text-anchor="start" x="160.838" y="-633.9" font-family="Arial" font-size="14.00" fill="#666666">[timestamp with time zone]</text>
<polygon fill="none" stroke="#000000" points="95.5,-592.5 95.5,-622.5 352.5,-622.5 352.5,-592.5 95.5,-592.5"/>
<text text-anchor="start" x="102.5" y="-603.9" font-family="Arial" font-size="14.00" fill="#000000">voided </text>
<text text-anchor="start" x="147.6276" y="-603.9" font-family="Arial" font-size="14.00" fill="#666666">[boolean]</text>
<polygon fill="none" stroke="#000000" points="95.5,-562.5 95.5,-592.5 352.5,-592.5 352.5,-562.5 95.5,-562.5"/>
<text text-anchor="start" x="102.5" y="-573.9" font-family="Arial" font-size="14.00" fill="#000000">voider </text>
<text text-anchor="start" x="144.5056" y="-573.9" font-family="Arial" font-size="14.00" fill="#666666">[integer]</text>
<polygon fill="none" stroke="#000000" points="95.5,-532.5 95.5,-562.5 352.5,-562.5 352.5,-532.5 95.5,-532.5"/>
<text text-anchor="start" x="102.5" y="-543.9" font-family="Arial" font-size="14.00" fill="#000000">void_time </text>
<text text-anchor="start" x="166.2854" y="-543.9" font-family="Arial" font-size="14.00" fill="#666666">[timestamp with time zone]</text>
<polygon fill="none" stroke="#000000" points="95.5,-502.5 95.5,-532.5 352.5,-532.5 352.5,-502.5 95.5,-502.5"/>
<text text-anchor="start" x="102.5" y="-513.9" font-family="Arial" font-size="14.00" fill="#000000">amount </text>
<text text-anchor="start" x="153.0722" y="-513.9" font-family="Arial" font-size="14.00" fill="#666666">[numeric(6,2)]</text>
<polygon fill="none" stroke="#000000" points="95.5,-472.5 95.5,-502.5 352.5,-502.5 352.5,-472.5 95.5,-472.5"/>
<text text-anchor="start" x="102.5" y="-483.9" font-family="Arial" font-size="14.00" fill="#000000">billing_type </text>
<text text-anchor="start" x="176.4032" y="-483.9" font-family="Arial" font-size="14.00" fill="#666666">[text]</text>
<polygon fill="none" stroke="#000000" points="95.5,-442.5 95.5,-472.5 352.5,-472.5 352.5,-442.5 95.5,-442.5"/>
<text text-anchor="start" x="102.5" y="-453.9" font-family="Arial" font-size="14.00" fill="#000000">btype </text>
<text text-anchor="start" x="140.629" y="-453.9" font-family="Arial" font-size="14.00" fill="#666666">[integer]</text>
<polygon fill="none" stroke="#000000" points="95.5,-412.5 95.5,-442.5 352.5,-442.5 352.5,-412.5 95.5,-412.5"/>
<text text-anchor="start" x="102.5" y="-423.9" font-family="Arial" font-size="14.00" fill="#000000">note </text>
<text text-anchor="start" x="133.629" y="-423.9" font-family="Arial" font-size="14.00" fill="#666666">[text]</text>
<polygon fill="none" stroke="#000000" points="95.5,-382.5 95.5,-412.5 352.5,-412.5 352.5,-382.5 95.5,-382.5"/>
<text text-anchor="start" x="102.2525" y="-393.9" font-family="Arial" font-size="14.00" fill="#000000">create_date </text>
<text text-anchor="start" x="180.0631" y="-393.9" font-family="Arial" font-size="14.00" fill="#666666">[timestamp with time zone]</text>
<polygon fill="none" stroke="#000000" points="95.5,-352.5 95.5,-382.5 352.5,-382.5 352.5,-352.5 95.5,-352.5"/>
<text text-anchor="start" x="102.2602" y="-363.9" font-family="Arial" font-size="14.00" fill="#000000">period_start </text>
<text text-anchor="start" x="180.0554" y="-363.9" font-family="Arial" font-size="14.00" fill="#666666">[timestamp with time zone]</text>
<polygon fill="none" stroke="#000000" points="95.5,-322.5 95.5,-352.5 352.5,-352.5 352.5,-322.5 95.5,-322.5"/>
<text text-anchor="start" x="102.5" y="-333.9" font-family="Arial" font-size="14.00" fill="#000000">period_end </text>
<text text-anchor="start" x="176.4186" y="-333.9" font-family="Arial" font-size="14.00" fill="#666666">[timestamp with time zone]</text>
<polygon fill="none" stroke="#000000" stroke-width="3" points="93.5,-321.5 93.5,-749.5 353.5,-749.5 353.5,-321.5 93.5,-321.5"/>
</g>
<!-- config.billing_type -->
<g id="node3" class="node">
<title>config.billing_type</title>
<polygon fill="#efefef" stroke="transparent" points="82.5,-162.5 82.5,-197.5 366.5,-197.5 366.5,-162.5 82.5,-162.5"/>
<polygon fill="none" stroke="#000000" points="82.5,-162.5 82.5,-197.5 366.5,-197.5 366.5,-162.5 82.5,-162.5"/>
<text text-anchor="start" x="89.1993" y="-175.3" font-family="Arial Bold" font-size="18.00" fill="#000000">config.billing_type</text>
<text text-anchor="start" x="232.2327" y="-175.3" font-family="Arial" font-size="14.00" fill="#000000">    </text>
<text text-anchor="start" x="266.4375" y="-175.3" font-family="Arial" font-size="14.00" fill="#666666">[BASE TABLE]</text>
<polygon fill="none" stroke="#000000" points="82.5,-132.5 82.5,-162.5 366.5,-162.5 366.5,-132.5 82.5,-132.5"/>
<text text-anchor="start" x="89.5" y="-143.9" font-family="Arial" font-size="14.00" fill="#000000">id    </text>
<text text-anchor="start" x="134.594" y="-143.9" font-family="Arial" font-size="14.00" fill="#666666">[integer]</text>
<polygon fill="none" stroke="#000000" points="82.5,-102.5 82.5,-132.5 366.5,-132.5 366.5,-102.5 82.5,-102.5"/>
<text text-anchor="start" x="89.5" y="-113.9" font-family="Arial" font-size="14.00" fill="#000000">name    </text>
<text text-anchor="start" x="158.7132" y="-113.9" font-family="Arial" font-size="14.00" fill="#666666">[text]</text>
<polygon fill="none" stroke="#000000" points="82.5,-72.5 82.5,-102.5 366.5,-102.5 366.5,-72.5 82.5,-72.5"/>
<text text-anchor="start" x="89.5" y="-83.9" font-family="Arial" font-size="14.00" fill="#000000">owner    </text>
<text text-anchor="start" x="161.8198" y="-83.9" font-family="Arial" font-size="14.00" fill="#666666">[integer]</text>
<polygon fill="none" stroke="#000000" points="82.5,-42.5 82.5,-72.5 366.5,-72.5 366.5,-42.5 82.5,-42.5"/>
<text text-anchor="start" x="89.5" y="-53.9" font-family="Arial" font-size="14.00" fill="#000000">default_price    </text>
<text text-anchor="start" x="203.838" y="-53.9" font-family="Arial" font-size="14.00" fill="#666666">[numeric(6,2)]</text>
</g>
<!-- money.billing&#45;&gt;config.billing_type -->
<g id="edge2" class="edge">
<title>money.billing:btype&#45;&gt;config.billing_type:id</title>
<path fill="none" stroke="#000000" d="M362.6672,-456.789C430.2111,-446.8266 402.9705,-334.6465 352.5,-277 272.7535,-185.9149 162.2465,-332.0851 82.5,-241 55.1263,-209.7343 40.9444,-147.5 82.5,-147.5"/>
<polygon fill="#000000" stroke="#000000" points="362.4756,-456.8023 352.186,-453.011 357.4878,-457.1511 352.5,-457.5 352.5,-457.5 352.5,-457.5 357.4878,-457.1511 352.814,-461.989 362.4756,-456.8023 362.4756,-456.8023"/>
<text text-anchor="start" x="359.32" y="-467.5" font-family="Arial" font-size="10.00" fill="#000000">FOREIGN KEY (btype) REFERENCES config.billing_type(id) ON DELETE RESTRICT DEFERRABLE INITIALLY DEFERRED</text>
</g>
<!-- money.account_adjustment -->
<g id="node2" class="node">
<title>money.account_adjustment</title>
<polygon fill="#efefef" stroke="transparent" points="43.5,-1142.5 43.5,-1177.5 404.5,-1177.5 404.5,-1142.5 43.5,-1142.5"/>
<polygon fill="none" stroke="#000000" points="43.5,-1142.5 43.5,-1177.5 404.5,-1177.5 404.5,-1142.5 43.5,-1142.5"/>
<text text-anchor="start" x="50.182" y="-1155.3" font-family="Arial Bold" font-size="18.00" fill="#000000">money.account_adjustment</text>
<text text-anchor="start" x="270.25" y="-1155.3" font-family="Arial" font-size="14.00" fill="#000000">    </text>
<text text-anchor="start" x="304.4548" y="-1155.3" font-family="Arial" font-size="14.00" fill="#666666">[BASE TABLE]</text>
<polygon fill="none" stroke="#000000" points="43.5,-1112.5 43.5,-1142.5 404.5,-1142.5 404.5,-1112.5 43.5,-1112.5"/>
<text text-anchor="start" x="50.5" y="-1123.9" font-family="Arial" font-size="14.00" fill="#000000">id    </text>
<text text-anchor="start" x="95.594" y="-1123.9" font-family="Arial" font-size="14.00" fill="#666666">[bigint]</text>
<polygon fill="none" stroke="#000000" points="43.5,-1082.5 43.5,-1112.5 404.5,-1112.5 404.5,-1082.5 43.5,-1082.5"/>
<text text-anchor="start" x="50.5" y="-1093.9" font-family="Arial" font-size="14.00" fill="#000000">xact    </text>
<text text-anchor="start" x="110.378" y="-1093.9" font-family="Arial" font-size="14.00" fill="#666666">[bigint]</text>
<polygon fill="none" stroke="#000000" points="43.5,-1052.5 43.5,-1082.5 404.5,-1082.5 404.5,-1052.5 43.5,-1052.5"/>
<text text-anchor="start" x="50.5" y="-1063.9" font-family="Arial" font-size="14.00" fill="#000000">payment_ts    </text>
<text text-anchor="start" x="157.0596" y="-1063.9" font-family="Arial" font-size="14.00" fill="#666666">[timestamp with time zone]</text>
<polygon fill="none" stroke="#000000" points="43.5,-1022.5 43.5,-1052.5 404.5,-1052.5 404.5,-1022.5 43.5,-1022.5"/>
<text text-anchor="start" x="50.5" y="-1033.9" font-family="Arial" font-size="14.00" fill="#000000">voided    </text>
<text text-anchor="start" x="125.9418" y="-1033.9" font-family="Arial" font-size="14.00" fill="#666666">[boolean]</text>
<polygon fill="none" stroke="#000000" points="43.5,-992.5 43.5,-1022.5 404.5,-1022.5 404.5,-992.5 43.5,-992.5"/>
<text text-anchor="start" x="50.5" y="-1003.9" font-family="Arial" font-size="14.00" fill="#000000">amount    </text>
<text text-anchor="start" x="131.3864" y="-1003.9" font-family="Arial" font-size="14.00" fill="#666666">[numeric(6,2)]</text>
<polygon fill="none" stroke="#000000" points="43.5,-962.5 43.5,-992.5 404.5,-992.5 404.5,-962.5 43.5,-962.5"/>
<text text-anchor="start" x="50.5" y="-973.9" font-family="Arial" font-size="14.00" fill="#000000">note    </text>
<text text-anchor="start" x="111.9432" y="-973.9" font-family="Arial" font-size="14.00" fill="#666666">[text]</text>
<polygon fill="none" stroke="#000000" points="43.5,-932.5 43.5,-962.5 404.5,-962.5 404.5,-932.5 43.5,-932.5"/>
<text text-anchor="start" x="50.5" y="-943.9" font-family="Arial" font-size="14.00" fill="#000000">amount_collected    </text>
<text text-anchor="start" x="194.4032" y="-943.9" font-family="Arial" font-size="14.00" fill="#666666">[numeric(6,2)]</text>
<polygon fill="none" stroke="#000000" points="43.5,-902.5 43.5,-932.5 404.5,-932.5 404.5,-902.5 43.5,-902.5"/>
<text text-anchor="start" x="50.5" y="-913.9" font-family="Arial" font-size="14.00" fill="#000000">accepting_usr    </text>
<text text-anchor="start" x="171.8408" y="-913.9" font-family="Arial" font-size="14.00" fill="#666666">[integer]</text>
<polygon fill="none" stroke="#000000" points="43.5,-872.5 43.5,-902.5 404.5,-902.5 404.5,-872.5 43.5,-872.5"/>
<text text-anchor="start" x="50.5" y="-883.9" font-family="Arial" font-size="14.00" fill="#000000">billing    </text>
<text text-anchor="start" x="120.479" y="-883.9" font-family="Arial" font-size="14.00" fill="#666666">[bigint]</text>
</g>
<!-- money.account_adjustment&#45;&gt;money.billing -->
<g id="edge1" class="edge">
<title>money.account_adjustment:billing&#45;&gt;money.billing:id</title>
<path fill="none" stroke="#000000" d="M223.6637,-862.478C214.1765,-810.2235 126.5863,-849.3064 95.5,-794 74.4854,-756.6123 52.6111,-697.5 95.5,-697.5"/>
<polygon fill="#000000" stroke="#000000" points="223.6683,-862.5346 220.0156,-872.8743 224.0842,-867.5173 224.5,-872.5 224.5,-872.5 224.5,-872.5 224.0842,-867.5173 228.9844,-872.1257 223.6683,-862.5346 223.6683,-862.5346"/>
<text text-anchor="start" x="231.5045" y="-882.5" font-family="Arial" font-size="10.00" fill="#000000">FOREIGN KEY (billing) REFERENCES money.billing(id)</text>
</g>
</g>
</svg>
