<?xml version="1.0" encoding="UTF-8" standalone="no"?>
<!DOCTYPE svg PUBLIC "-//W3C//DTD SVG 1.1//EN"
 "http://www.w3.org/Graphics/SVG/1.1/DTD/svg11.dtd">
<!-- Generated by graphviz version 2.40.1 (20161225.0304)
 -->
<!-- Title: permission.grp_perm_map Pages: 1 -->
<svg width="1627pt" height="682pt"
 viewBox="0.00 0.00 1627.00 682.00" xmlns="http://www.w3.org/2000/svg" xmlns:xlink="http://www.w3.org/1999/xlink">
<g id="graph0" class="graph" transform="scale(1 1) rotate(0) translate(4 678)">
<title>permission.grp_perm_map</title>
<polygon fill="#ffffff" stroke="transparent" points="-4,4 -4,-678 1623,-678 1623,4 -4,4"/>
<!-- permission.grp_perm_map -->
<g id="node1" class="node">
<title>permission.grp_perm_map</title>
<polygon fill="#efefef" stroke="transparent" points="569,-592.5 569,-627.5 924,-627.5 924,-592.5 569,-592.5"/>
<polygon fill="none" stroke="#000000" points="569,-592.5 569,-627.5 924,-627.5 924,-592.5 569,-592.5"/>
<text text-anchor="start" x="575.7069" y="-605.3" font-family="Arial Bold" font-size="18.00" fill="#000000">permission.grp_perm_map</text>
<text text-anchor="start" x="789.7251" y="-605.3" font-family="Arial" font-size="14.00" fill="#000000">    </text>
<text text-anchor="start" x="823.9299" y="-605.3" font-family="Arial" font-size="14.00" fill="#666666">[BASE TABLE]</text>
<polygon fill="none" stroke="#000000" points="569,-562.5 569,-592.5 924,-592.5 924,-562.5 569,-562.5"/>
<text text-anchor="start" x="576" y="-573.9" font-family="Arial" font-size="14.00" fill="#000000">id </text>
<text text-anchor="start" x="590.7798" y="-573.9" font-family="Arial" font-size="14.00" fill="#666666">[integer]</text>
<polygon fill="none" stroke="#000000" points="569,-532.5 569,-562.5 924,-562.5 924,-532.5 569,-532.5"/>
<text text-anchor="start" x="576" y="-543.9" font-family="Arial" font-size="14.00" fill="#000000">grp </text>
<text text-anchor="start" x="600.1164" y="-543.9" font-family="Arial" font-size="14.00" fill="#666666">[integer]</text>
<polygon fill="none" stroke="#000000" points="569,-502.5 569,-532.5 924,-532.5 924,-502.5 569,-502.5"/>
<text text-anchor="start" x="576" y="-513.9" font-family="Arial" font-size="14.00" fill="#000000">perm </text>
<text text-anchor="start" x="611.777" y="-513.9" font-family="Arial" font-size="14.00" fill="#666666">[integer]</text>
<polygon fill="none" stroke="#000000" points="569,-472.5 569,-502.5 924,-502.5 924,-472.5 569,-472.5"/>
<text text-anchor="start" x="576" y="-483.9" font-family="Arial" font-size="14.00" fill="#000000">depth </text>
<text text-anchor="start" x="614.9116" y="-483.9" font-family="Arial" font-size="14.00" fill="#666666">[integer]</text>
<polygon fill="none" stroke="#000000" points="569,-442.5 569,-472.5 924,-472.5 924,-442.5 569,-442.5"/>
<text text-anchor="start" x="576" y="-453.9" font-family="Arial" font-size="14.00" fill="#000000">grantable </text>
<text text-anchor="start" x="638.244" y="-453.9" font-family="Arial" font-size="14.00" fill="#666666">[boolean]</text>
<polygon fill="none" stroke="#000000" stroke-width="3" points="567,-441.5 567,-629.5 925,-629.5 925,-441.5 567,-441.5"/>
</g>
<!-- permission.grp_tree -->
<g id="node2" class="node">
<title>permission.grp_tree</title>
<polygon fill="#efefef" stroke="transparent" points="394,-282.5 394,-317.5 694,-317.5 694,-282.5 394,-282.5"/>
<polygon fill="none" stroke="#000000" points="394,-282.5 394,-317.5 694,-317.5 694,-282.5 394,-282.5"/>
<text text-anchor="start" x="400.7073" y="-295.3" font-family="Arial Bold" font-size="18.00" fill="#000000">permission.grp_tree</text>
<text text-anchor="start" x="559.7247" y="-295.3" font-family="Arial" font-size="14.00" fill="#000000">    </text>
<text text-anchor="start" x="593.9295" y="-295.3" font-family="Arial" font-size="14.00" fill="#666666">[BASE TABLE]</text>
<polygon fill="none" stroke="#000000" points="394,-252.5 394,-282.5 694,-282.5 694,-252.5 394,-252.5"/>
<text text-anchor="start" x="401" y="-263.9" font-family="Arial" font-size="14.00" fill="#000000">id    </text>
<text text-anchor="start" x="446.094" y="-263.9" font-family="Arial" font-size="14.00" fill="#666666">[integer]</text>
<polygon fill="none" stroke="#000000" points="394,-222.5 394,-252.5 694,-252.5 694,-222.5 394,-222.5"/>
<text text-anchor="start" x="401" y="-233.9" font-family="Arial" font-size="14.00" fill="#000000">name    </text>
<text text-anchor="start" x="470.2132" y="-233.9" font-family="Arial" font-size="14.00" fill="#666666">[text]</text>
<polygon fill="none" stroke="#000000" points="394,-192.5 394,-222.5 694,-222.5 694,-192.5 394,-192.5"/>
<text text-anchor="start" x="401" y="-203.9" font-family="Arial" font-size="14.00" fill="#000000">parent    </text>
<text text-anchor="start" x="474.8864" y="-203.9" font-family="Arial" font-size="14.00" fill="#666666">[integer]</text>
<polygon fill="none" stroke="#000000" points="394,-162.5 394,-192.5 694,-192.5 694,-162.5 394,-162.5"/>
<text text-anchor="start" x="401" y="-173.9" font-family="Arial" font-size="14.00" fill="#000000">usergroup    </text>
<text text-anchor="start" x="498.2216" y="-173.9" font-family="Arial" font-size="14.00" fill="#666666">[boolean]</text>
<polygon fill="none" stroke="#000000" points="394,-132.5 394,-162.5 694,-162.5 694,-132.5 394,-132.5"/>
<text text-anchor="start" x="401" y="-143.9" font-family="Arial" font-size="14.00" fill="#000000">perm_interval    </text>
<text text-anchor="start" x="519.986" y="-143.9" font-family="Arial" font-size="14.00" fill="#666666">[interval]</text>
<polygon fill="none" stroke="#000000" points="394,-102.5 394,-132.5 694,-132.5 694,-102.5 394,-102.5"/>
<text text-anchor="start" x="401" y="-113.9" font-family="Arial" font-size="14.00" fill="#000000">description    </text>
<text text-anchor="start" x="502.8822" y="-113.9" font-family="Arial" font-size="14.00" fill="#666666">[text]</text>
<polygon fill="none" stroke="#000000" points="394,-72.5 394,-102.5 694,-102.5 694,-72.5 394,-72.5"/>
<text text-anchor="start" x="401" y="-83.9" font-family="Arial" font-size="14.00" fill="#000000">application_perm    </text>
<text text-anchor="start" x="541.7798" y="-83.9" font-family="Arial" font-size="14.00" fill="#666666">[text]</text>
<polygon fill="none" stroke="#000000" points="394,-42.5 394,-72.5 694,-72.5 694,-42.5 394,-42.5"/>
<text text-anchor="start" x="401" y="-53.9" font-family="Arial" font-size="14.00" fill="#000000">hold_priority    </text>
<text text-anchor="start" x="511.432" y="-53.9" font-family="Arial" font-size="14.00" fill="#666666">[integer]</text>
</g>
<!-- permission.grp_perm_map&#45;&gt;permission.grp_tree -->
<g id="edge1" class="edge">
<title>permission.grp_perm_map:grp&#45;&gt;permission.grp_tree:id</title>
<path fill="none" stroke="#000000" d="M558.8523,-546.6522C505.0682,-537.0148 530.976,-447.5205 569,-397 603.7664,-350.8078 659.2336,-407.1922 694,-361 718.9895,-327.7978 735.5556,-267.5 694,-267.5"/>
<polygon fill="#000000" stroke="#000000" points="559.0347,-546.6673 568.6253,-551.9844 564.0174,-547.0837 569,-547.5 569,-547.5 569,-547.5 564.0174,-547.0837 569.3747,-543.0156 559.0347,-546.6673 559.0347,-546.6673"/>
<text text-anchor="start" x="7.214" y="-557.5" font-family="Arial" font-size="10.00" fill="#000000">FOREIGN KEY (grp) REFERENCES permission.grp_tree(id) ON DELETE CASCADE DEFERRABLE INITIALLY DEFERRED</text>
</g>
<!-- permission.perm_list -->
<g id="node3" class="node">
<title>permission.perm_list</title>
<polygon fill="#efefef" stroke="transparent" points="798,-207.5 798,-242.5 1104,-242.5 1104,-207.5 798,-207.5"/>
<polygon fill="none" stroke="#000000" points="798,-207.5 798,-242.5 1104,-242.5 1104,-207.5 798,-207.5"/>
<text text-anchor="start" x="804.7193" y="-220.3" font-family="Arial Bold" font-size="18.00" fill="#000000">permission.perm_list</text>
<text text-anchor="start" x="969.7127" y="-220.3" font-family="Arial" font-size="14.00" fill="#000000">    </text>
<text text-anchor="start" x="1003.9175" y="-220.3" font-family="Arial" font-size="14.00" fill="#666666">[BASE TABLE]</text>
<polygon fill="none" stroke="#000000" points="798,-177.5 798,-207.5 1104,-207.5 1104,-177.5 798,-177.5"/>
<text text-anchor="start" x="805" y="-188.9" font-family="Arial" font-size="14.00" fill="#000000">id    </text>
<text text-anchor="start" x="850.094" y="-188.9" font-family="Arial" font-size="14.00" fill="#666666">[integer]</text>
<polygon fill="none" stroke="#000000" points="798,-147.5 798,-177.5 1104,-177.5 1104,-147.5 798,-147.5"/>
<text text-anchor="start" x="805" y="-158.9" font-family="Arial" font-size="14.00" fill="#000000">code    </text>
<text text-anchor="start" x="869.5526" y="-158.9" font-family="Arial" font-size="14.00" fill="#666666">[text]</text>
<polygon fill="none" stroke="#000000" points="798,-117.5 798,-147.5 1104,-147.5 1104,-117.5 798,-117.5"/>
<text text-anchor="start" x="805" y="-128.9" font-family="Arial" font-size="14.00" fill="#000000">description    </text>
<text text-anchor="start" x="906.8822" y="-128.9" font-family="Arial" font-size="14.00" fill="#666666">[text]</text>
</g>
<!-- permission.grp_perm_map&#45;&gt;permission.perm_list -->
<g id="edge2" class="edge">
<title>permission.grp_perm_map:perm&#45;&gt;permission.perm_list:id</title>
<path fill="none" stroke="#000000" d="M934.0681,-516.4696C973.1716,-507.5313 944.4978,-442.3749 924,-397 893.2755,-328.9869 828.7245,-354.0131 798,-286 780.8922,-248.1293 756.4444,-192.5 798,-192.5"/>
<polygon fill="#000000" stroke="#000000" points="933.948,-516.4818 923.5418,-513.0234 928.974,-516.9909 924,-517.5 924,-517.5 924,-517.5 928.974,-516.9909 924.4582,-521.9766 933.948,-516.4818 933.948,-516.4818"/>
<text text-anchor="start" x="931.449" y="-527.5" font-family="Arial" font-size="10.00" fill="#000000">FOREIGN KEY (perm) REFERENCES permission.perm_list(id) ON UPDATE CASCADE ON DELETE RESTRICT DEFERRABLE INITIALLY DEFERRED</text>
</g>
</g>
</svg>
