<?xml version="1.0" encoding="UTF-8" standalone="no"?>
<!DOCTYPE svg PUBLIC "-//W3C//DTD SVG 1.1//EN"
 "http://www.w3.org/Graphics/SVG/1.1/DTD/svg11.dtd">
<!-- Generated by graphviz version 2.40.1 (20161225.0304)
 -->
<!-- Title: permission.usr_object_perm_map Pages: 1 -->
<svg width="1634pt" height="1942pt"
 viewBox="0.00 0.00 1634.00 1942.00" xmlns="http://www.w3.org/2000/svg" xmlns:xlink="http://www.w3.org/1999/xlink">
<g id="graph0" class="graph" transform="scale(1 1) rotate(0) translate(4 1938)">
<title>permission.usr_object_perm_map</title>
<polygon fill="#ffffff" stroke="transparent" points="-4,4 -4,-1938 1630,-1938 1630,4 -4,4"/>
<!-- permission.usr_object_perm_map -->
<g id="node1" class="node">
<title>permission.usr_object_perm_map</title>
<polygon fill="#efefef" stroke="transparent" points="519,-1852.5 519,-1887.5 931,-1887.5 931,-1852.5 519,-1852.5"/>
<polygon fill="none" stroke="#000000" points="519,-1852.5 519,-1887.5 931,-1887.5 931,-1852.5 519,-1852.5"/>
<text text-anchor="start" x="525.6994" y="-1865.3" font-family="Arial Bold" font-size="18.00" fill="#000000">permission.usr_object_perm_map</text>
<text text-anchor="start" x="796.7326" y="-1865.3" font-family="Arial" font-size="14.00" fill="#000000">    </text>
<text text-anchor="start" x="830.9374" y="-1865.3" font-family="Arial" font-size="14.00" fill="#666666">[BASE TABLE]</text>
<polygon fill="none" stroke="#000000" points="519,-1822.5 519,-1852.5 931,-1852.5 931,-1822.5 519,-1822.5"/>
<text text-anchor="start" x="526" y="-1833.9" font-family="Arial" font-size="14.00" fill="#000000">id </text>
<text text-anchor="start" x="540.7798" y="-1833.9" font-family="Arial" font-size="14.00" fill="#666666">[integer]</text>
<polygon fill="none" stroke="#000000" points="519,-1792.5 519,-1822.5 931,-1822.5 931,-1792.5 519,-1792.5"/>
<text text-anchor="start" x="526" y="-1803.9" font-family="Arial" font-size="14.00" fill="#000000">usr </text>
<text text-anchor="start" x="549.3338" y="-1803.9" font-family="Arial" font-size="14.00" fill="#666666">[integer]</text>
<polygon fill="none" stroke="#000000" points="519,-1762.5 519,-1792.5 931,-1792.5 931,-1762.5 519,-1762.5"/>
<text text-anchor="start" x="526" y="-1773.9" font-family="Arial" font-size="14.00" fill="#000000">perm </text>
<text text-anchor="start" x="561.777" y="-1773.9" font-family="Arial" font-size="14.00" fill="#666666">[integer]</text>
<polygon fill="none" stroke="#000000" points="519,-1732.5 519,-1762.5 931,-1762.5 931,-1732.5 519,-1732.5"/>
<text text-anchor="start" x="526" y="-1743.9" font-family="Arial" font-size="14.00" fill="#000000">object_type </text>
<text text-anchor="start" x="601.474" y="-1743.9" font-family="Arial" font-size="14.00" fill="#666666">[text]</text>
<polygon fill="none" stroke="#000000" points="519,-1702.5 519,-1732.5 931,-1732.5 931,-1702.5 519,-1702.5"/>
<text text-anchor="start" x="526" y="-1713.9" font-family="Arial" font-size="14.00" fill="#000000">object_id </text>
<text text-anchor="start" x="585.9074" y="-1713.9" font-family="Arial" font-size="14.00" fill="#666666">[text]</text>
<polygon fill="none" stroke="#000000" points="519,-1672.5 519,-1702.5 931,-1702.5 931,-1672.5 519,-1672.5"/>
<text text-anchor="start" x="526" y="-1683.9" font-family="Arial" font-size="14.00" fill="#000000">grantable </text>
<text text-anchor="start" x="588.244" y="-1683.9" font-family="Arial" font-size="14.00" fill="#666666">[boolean]</text>
<polygon fill="none" stroke="#000000" stroke-width="3" points="517.5,-1671.5 517.5,-1889.5 932.5,-1889.5 932.5,-1671.5 517.5,-1671.5"/>
</g>
<!-- actor.usr -->
<g id="node2" class="node">
<title>actor.usr</title>
<polygon fill="#efefef" stroke="transparent" points="357,-1512.5 357,-1547.5 677,-1547.5 677,-1512.5 357,-1512.5"/>
<polygon fill="none" stroke="#000000" points="357,-1512.5 357,-1547.5 677,-1547.5 677,-1512.5 357,-1512.5"/>
<text text-anchor="start" x="418.2123" y="-1525.3" font-family="Arial Bold" font-size="18.00" fill="#000000">actor.usr</text>
<text text-anchor="start" x="488.2197" y="-1525.3" font-family="Arial" font-size="14.00" fill="#000000">    </text>
<text text-anchor="start" x="522.4245" y="-1525.3" font-family="Arial" font-size="14.00" fill="#666666">[BASE TABLE]</text>
<polygon fill="none" stroke="#000000" points="357,-1482.5 357,-1512.5 677,-1512.5 677,-1482.5 357,-1482.5"/>
<text text-anchor="start" x="364" y="-1493.9" font-family="Arial" font-size="14.00" fill="#000000">id    </text>
<text text-anchor="start" x="409.094" y="-1493.9" font-family="Arial" font-size="14.00" fill="#666666">[integer]</text>
<polygon fill="none" stroke="#000000" points="357,-1452.5 357,-1482.5 677,-1482.5 677,-1452.5 357,-1452.5"/>
<text text-anchor="start" x="364" y="-1463.9" font-family="Arial" font-size="14.00" fill="#000000">card    </text>
<text text-anchor="start" x="425.4306" y="-1463.9" font-family="Arial" font-size="14.00" fill="#666666">[integer]</text>
<polygon fill="none" stroke="#000000" points="357,-1422.5 357,-1452.5 677,-1452.5 677,-1422.5 357,-1422.5"/>
<text text-anchor="start" x="364" y="-1433.9" font-family="Arial" font-size="14.00" fill="#000000">profile    </text>
<text text-anchor="start" x="436.317" y="-1433.9" font-family="Arial" font-size="14.00" fill="#666666">[integer]</text>
<polygon fill="none" stroke="#000000" points="357,-1392.5 357,-1422.5 677,-1422.5 677,-1392.5 357,-1392.5"/>
<text text-anchor="start" x="364" y="-1403.9" font-family="Arial" font-size="14.00" fill="#000000">usrname    </text>
<text text-anchor="start" x="452.6564" y="-1403.9" font-family="Arial" font-size="14.00" fill="#666666">[text]</text>
<polygon fill="none" stroke="#000000" points="357,-1362.5 357,-1392.5 677,-1392.5 677,-1362.5 357,-1362.5"/>
<text text-anchor="start" x="364" y="-1373.9" font-family="Arial" font-size="14.00" fill="#000000">email    </text>
<text text-anchor="start" x="431.6438" y="-1373.9" font-family="Arial" font-size="14.00" fill="#666666">[text]</text>
<polygon fill="none" stroke="#000000" points="357,-1332.5 357,-1362.5 677,-1362.5 677,-1332.5 357,-1332.5"/>
<text text-anchor="start" x="364" y="-1343.9" font-family="Arial" font-size="14.00" fill="#000000">passwd    </text>
<text text-anchor="start" x="445.6592" y="-1343.9" font-family="Arial" font-size="14.00" fill="#666666">[text]</text>
<polygon fill="none" stroke="#000000" points="357,-1302.5 357,-1332.5 677,-1332.5 677,-1302.5 357,-1302.5"/>
<text text-anchor="start" x="364" y="-1313.9" font-family="Arial" font-size="14.00" fill="#000000">standing    </text>
<text text-anchor="start" x="451.115" y="-1313.9" font-family="Arial" font-size="14.00" fill="#666666">[integer]</text>
<polygon fill="none" stroke="#000000" points="357,-1272.5 357,-1302.5 677,-1302.5 677,-1272.5 357,-1272.5"/>
<text text-anchor="start" x="364" y="-1283.9" font-family="Arial" font-size="14.00" fill="#000000">ident_type    </text>
<text text-anchor="start" x="462.7882" y="-1283.9" font-family="Arial" font-size="14.00" fill="#666666">[integer]</text>
<polygon fill="none" stroke="#000000" points="357,-1242.5 357,-1272.5 677,-1272.5 677,-1242.5 357,-1242.5"/>
<text text-anchor="start" x="364" y="-1253.9" font-family="Arial" font-size="14.00" fill="#000000">ident_value    </text>
<text text-anchor="start" x="469.7868" y="-1253.9" font-family="Arial" font-size="14.00" fill="#666666">[text]</text>
<polygon fill="none" stroke="#000000" points="357,-1212.5 357,-1242.5 677,-1242.5 677,-1212.5 357,-1212.5"/>
<text text-anchor="start" x="364" y="-1223.9" font-family="Arial" font-size="14.00" fill="#000000">ident_type2    </text>
<text text-anchor="start" x="470.5708" y="-1223.9" font-family="Arial" font-size="14.00" fill="#666666">[integer]</text>
<polygon fill="none" stroke="#000000" points="357,-1182.5 357,-1212.5 677,-1212.5 677,-1182.5 357,-1182.5"/>
<text text-anchor="start" x="364" y="-1193.9" font-family="Arial" font-size="14.00" fill="#000000">ident_value2    </text>
<text text-anchor="start" x="477.5694" y="-1193.9" font-family="Arial" font-size="14.00" fill="#666666">[text]</text>
<polygon fill="none" stroke="#000000" points="357,-1152.5 357,-1182.5 677,-1182.5 677,-1152.5 357,-1152.5"/>
<text text-anchor="start" x="364" y="-1163.9" font-family="Arial" font-size="14.00" fill="#000000">net_access_level    </text>
<text text-anchor="start" x="505.5694" y="-1163.9" font-family="Arial" font-size="14.00" fill="#666666">[integer]</text>
<polygon fill="none" stroke="#000000" points="357,-1122.5 357,-1152.5 677,-1152.5 677,-1122.5 357,-1122.5"/>
<text text-anchor="start" x="364" y="-1133.9" font-family="Arial" font-size="14.00" fill="#000000">photo_url    </text>
<text text-anchor="start" x="456.5582" y="-1133.9" font-family="Arial" font-size="14.00" fill="#666666">[text]</text>
<polygon fill="none" stroke="#000000" points="357,-1092.5 357,-1122.5 677,-1122.5 677,-1092.5 357,-1092.5"/>
<text text-anchor="start" x="364" y="-1103.9" font-family="Arial" font-size="14.00" fill="#000000">prefix    </text>
<text text-anchor="start" x="432.4278" y="-1103.9" font-family="Arial" font-size="14.00" fill="#666666">[text]</text>
<polygon fill="none" stroke="#000000" points="357,-1062.5 357,-1092.5 677,-1092.5 677,-1062.5 357,-1062.5"/>
<text text-anchor="start" x="364" y="-1073.9" font-family="Arial" font-size="14.00" fill="#000000">first_given_name    </text>
<text text-anchor="start" x="504.7812" y="-1073.9" font-family="Arial" font-size="14.00" fill="#666666">[text]</text>
<polygon fill="none" stroke="#000000" points="357,-1032.5 357,-1062.5 677,-1062.5 677,-1032.5 357,-1032.5"/>
<text text-anchor="start" x="364" y="-1043.9" font-family="Arial" font-size="14.00" fill="#000000">second_given_name    </text>
<text text-anchor="start" x="527.3632" y="-1043.9" font-family="Arial" font-size="14.00" fill="#666666">[text]</text>
<polygon fill="none" stroke="#000000" points="357,-1002.5 357,-1032.5 677,-1032.5 677,-1002.5 357,-1002.5"/>
<text text-anchor="start" x="364" y="-1013.9" font-family="Arial" font-size="14.00" fill="#000000">family_name    </text>
<text text-anchor="start" x="477.5428" y="-1013.9" font-family="Arial" font-size="14.00" fill="#666666">[text]</text>
<polygon fill="none" stroke="#000000" points="357,-972.5 357,-1002.5 677,-1002.5 677,-972.5 357,-972.5"/>
<text text-anchor="start" x="364" y="-983.9" font-family="Arial" font-size="14.00" fill="#000000">suffix    </text>
<text text-anchor="start" x="430.8752" y="-983.9" font-family="Arial" font-size="14.00" fill="#666666">[text]</text>
<polygon fill="none" stroke="#000000" points="357,-942.5 357,-972.5 677,-972.5 677,-942.5 357,-942.5"/>
<text text-anchor="start" x="364" y="-953.9" font-family="Arial" font-size="14.00" fill="#000000">alias    </text>
<text text-anchor="start" x="426.9832" y="-953.9" font-family="Arial" font-size="14.00" fill="#666666">[text]</text>
<polygon fill="none" stroke="#000000" points="357,-912.5 357,-942.5 677,-942.5 677,-912.5 357,-912.5"/>
<text text-anchor="start" x="364" y="-923.9" font-family="Arial" font-size="14.00" fill="#000000">day_phone    </text>
<text text-anchor="start" x="467.4656" y="-923.9" font-family="Arial" font-size="14.00" fill="#666666">[text]</text>
<polygon fill="none" stroke="#000000" points="357,-882.5 357,-912.5 677,-912.5 677,-882.5 357,-882.5"/>
<text text-anchor="start" x="364" y="-893.9" font-family="Arial" font-size="14.00" fill="#000000">evening_phone    </text>
<text text-anchor="start" x="493.92" y="-893.9" font-family="Arial" font-size="14.00" fill="#666666">[text]</text>
<polygon fill="none" stroke="#000000" points="357,-852.5 357,-882.5 677,-882.5 677,-852.5 357,-852.5"/>
<text text-anchor="start" x="364" y="-863.9" font-family="Arial" font-size="14.00" fill="#000000">other_phone    </text>
<text text-anchor="start" x="476.7994" y="-863.9" font-family="Arial" font-size="14.00" fill="#666666">[text]</text>
<polygon fill="none" stroke="#000000" points="357,-822.5 357,-852.5 677,-852.5 677,-822.5 357,-822.5"/>
<text text-anchor="start" x="364" y="-833.9" font-family="Arial" font-size="14.00" fill="#000000">mailing_address    </text>
<text text-anchor="start" x="500.1066" y="-833.9" font-family="Arial" font-size="14.00" fill="#666666">[integer]</text>
<polygon fill="none" stroke="#000000" points="357,-792.5 357,-822.5 677,-822.5 677,-792.5 357,-792.5"/>
<text text-anchor="start" x="364" y="-803.9" font-family="Arial" font-size="14.00" fill="#000000">billing_address    </text>
<text text-anchor="start" x="491.5526" y="-803.9" font-family="Arial" font-size="14.00" fill="#666666">[integer]</text>
<polygon fill="none" stroke="#000000" points="357,-762.5 357,-792.5 677,-792.5 677,-762.5 357,-762.5"/>
<text text-anchor="start" x="364" y="-773.9" font-family="Arial" font-size="14.00" fill="#000000">home_ou    </text>
<text text-anchor="start" x="456.561" y="-773.9" font-family="Arial" font-size="14.00" fill="#666666">[integer]</text>
<polygon fill="none" stroke="#000000" points="357,-732.5 357,-762.5 677,-762.5 677,-732.5 357,-732.5"/>
<text text-anchor="start" x="364" y="-743.9" font-family="Arial" font-size="14.00" fill="#000000">dob    </text>
<text text-anchor="start" x="421.5526" y="-743.9" font-family="Arial" font-size="14.00" fill="#666666">[date]</text>
<polygon fill="none" stroke="#000000" points="357,-702.5 357,-732.5 677,-732.5 677,-702.5 357,-702.5"/>
<text text-anchor="start" x="364" y="-713.9" font-family="Arial" font-size="14.00" fill="#000000">active    </text>
<text text-anchor="start" x="434.7672" y="-713.9" font-family="Arial" font-size="14.00" fill="#666666">[boolean]</text>
<polygon fill="none" stroke="#000000" points="357,-672.5 357,-702.5 677,-702.5 677,-672.5 357,-672.5"/>
<text text-anchor="start" x="364" y="-683.9" font-family="Arial" font-size="14.00" fill="#000000">master_account    </text>
<text text-anchor="start" x="497.7854" y="-683.9" font-family="Arial" font-size="14.00" fill="#666666">[boolean]</text>
<polygon fill="none" stroke="#000000" points="357,-642.5 357,-672.5 677,-672.5 677,-642.5 357,-642.5"/>
<text text-anchor="start" x="364" y="-653.9" font-family="Arial" font-size="14.00" fill="#000000">super_user    </text>
<text text-anchor="start" x="468.2216" y="-653.9" font-family="Arial" font-size="14.00" fill="#666666">[boolean]</text>
<polygon fill="none" stroke="#000000" points="357,-612.5 357,-642.5 677,-642.5 677,-612.5 357,-612.5"/>
<text text-anchor="start" x="364" y="-623.9" font-family="Arial" font-size="14.00" fill="#000000">barred    </text>
<text text-anchor="start" x="438.6564" y="-623.9" font-family="Arial" font-size="14.00" fill="#666666">[boolean]</text>
<polygon fill="none" stroke="#000000" points="357,-582.5 357,-612.5 677,-612.5 677,-582.5 357,-582.5"/>
<text text-anchor="start" x="364" y="-593.9" font-family="Arial" font-size="14.00" fill="#000000">deleted    </text>
<text text-anchor="start" x="444.115" y="-593.9" font-family="Arial" font-size="14.00" fill="#666666">[boolean]</text>
<polygon fill="none" stroke="#000000" points="357,-552.5 357,-582.5 677,-582.5 677,-552.5 357,-552.5"/>
<text text-anchor="start" x="364" y="-563.9" font-family="Arial" font-size="14.00" fill="#000000">juvenile    </text>
<text text-anchor="start" x="445.655" y="-563.9" font-family="Arial" font-size="14.00" fill="#666666">[boolean]</text>
<polygon fill="none" stroke="#000000" points="357,-522.5 357,-552.5 677,-552.5 677,-522.5 357,-522.5"/>
<text text-anchor="start" x="364" y="-533.9" font-family="Arial" font-size="14.00" fill="#000000">usrgroup    </text>
<text text-anchor="start" x="453.439" y="-533.9" font-family="Arial" font-size="14.00" fill="#666666">[integer]</text>
<polygon fill="none" stroke="#000000" points="357,-492.5 357,-522.5 677,-522.5 677,-492.5 357,-492.5"/>
<text text-anchor="start" x="364" y="-503.9" font-family="Arial" font-size="14.00" fill="#000000">claims_returned_count    </text>
<text text-anchor="start" x="539.7896" y="-503.9" font-family="Arial" font-size="14.00" fill="#666666">[integer]</text>
<polygon fill="none" stroke="#000000" points="357,-462.5 357,-492.5 677,-492.5 677,-462.5 357,-462.5"/>
<text text-anchor="start" x="364" y="-473.9" font-family="Arial" font-size="14.00" fill="#000000">credit_forward_balance    </text>
<text text-anchor="start" x="543.6788" y="-473.9" font-family="Arial" font-size="14.00" fill="#666666">[numeric(6,2)]</text>
<polygon fill="none" stroke="#000000" points="357,-432.5 357,-462.5 677,-462.5 677,-432.5 357,-432.5"/>
<text text-anchor="start" x="364" y="-443.9" font-family="Arial" font-size="14.00" fill="#000000">last_xact_id    </text>
<text text-anchor="start" x="472.1122" y="-443.9" font-family="Arial" font-size="14.00" fill="#666666">[text]</text>
<polygon fill="none" stroke="#000000" points="357,-402.5 357,-432.5 677,-432.5 677,-402.5 357,-402.5"/>
<text text-anchor="start" x="364" y="-413.9" font-family="Arial" font-size="14.00" fill="#000000">alert_message    </text>
<text text-anchor="start" x="490.0014" y="-413.9" font-family="Arial" font-size="14.00" fill="#666666">[text]</text>
<polygon fill="none" stroke="#000000" points="357,-372.5 357,-402.5 677,-402.5 677,-372.5 357,-372.5"/>
<text text-anchor="start" x="364" y="-383.9" font-family="Arial" font-size="14.00" fill="#000000">create_date    </text>
<text text-anchor="start" x="472.1248" y="-383.9" font-family="Arial" font-size="14.00" fill="#666666">[timestamp with time zone]</text>
<polygon fill="none" stroke="#000000" points="357,-342.5 357,-372.5 677,-372.5 677,-342.5 357,-342.5"/>
<text text-anchor="start" x="364" y="-353.9" font-family="Arial" font-size="14.00" fill="#000000">expire_date    </text>
<text text-anchor="start" x="471.3408" y="-353.9" font-family="Arial" font-size="14.00" fill="#666666">[timestamp with time zone]</text>
<polygon fill="none" stroke="#000000" points="357,-312.5 357,-342.5 677,-342.5 677,-312.5 357,-312.5"/>
<text text-anchor="start" x="364" y="-323.9" font-family="Arial" font-size="14.00" fill="#000000">claims_never_checked_out_count    </text>
<text text-anchor="start" x="609.8246" y="-323.9" font-family="Arial" font-size="14.00" fill="#666666">[integer]</text>
<polygon fill="none" stroke="#000000" points="357,-282.5 357,-312.5 677,-312.5 677,-282.5 357,-282.5"/>
<text text-anchor="start" x="363.7609" y="-293.9" font-family="Arial" font-size="14.00" fill="#000000">last_update_time    </text>
<text text-anchor="start" x="504.5547" y="-293.9" font-family="Arial" font-size="14.00" fill="#666666">[timestamp with time zone]</text>
<polygon fill="none" stroke="#000000" points="357,-252.5 357,-282.5 677,-282.5 677,-252.5 357,-252.5"/>
<text text-anchor="start" x="364" y="-263.9" font-family="Arial" font-size="14.00" fill="#000000">pref_prefix    </text>
<text text-anchor="start" x="464.3268" y="-263.9" font-family="Arial" font-size="14.00" fill="#666666">[text]</text>
<polygon fill="none" stroke="#000000" points="357,-222.5 357,-252.5 677,-252.5 677,-222.5 357,-222.5"/>
<text text-anchor="start" x="364" y="-233.9" font-family="Arial" font-size="14.00" fill="#000000">pref_first_given_name    </text>
<text text-anchor="start" x="536.6802" y="-233.9" font-family="Arial" font-size="14.00" fill="#666666">[text]</text>
<polygon fill="none" stroke="#000000" points="357,-192.5 357,-222.5 677,-222.5 677,-192.5 357,-192.5"/>
<text text-anchor="start" x="364" y="-203.9" font-family="Arial" font-size="14.00" fill="#000000">pref_second_given_name    </text>
<text text-anchor="start" x="559.2622" y="-203.9" font-family="Arial" font-size="14.00" fill="#666666">[text]</text>
<polygon fill="none" stroke="#000000" points="357,-162.5 357,-192.5 677,-192.5 677,-162.5 357,-162.5"/>
<text text-anchor="start" x="364" y="-173.9" font-family="Arial" font-size="14.00" fill="#000000">pref_family_name    </text>
<text text-anchor="start" x="509.4418" y="-173.9" font-family="Arial" font-size="14.00" fill="#666666">[text]</text>
<polygon fill="none" stroke="#000000" points="357,-132.5 357,-162.5 677,-162.5 677,-132.5 357,-132.5"/>
<text text-anchor="start" x="364" y="-143.9" font-family="Arial" font-size="14.00" fill="#000000">pref_suffix    </text>
<text text-anchor="start" x="462.7742" y="-143.9" font-family="Arial" font-size="14.00" fill="#666666">[text]</text>
<polygon fill="none" stroke="#000000" points="357,-102.5 357,-132.5 677,-132.5 677,-102.5 357,-102.5"/>
<text text-anchor="start" x="364" y="-113.9" font-family="Arial" font-size="14.00" fill="#000000">name_keywords    </text>
<text text-anchor="start" x="500.1108" y="-113.9" font-family="Arial" font-size="14.00" fill="#666666">[text]</text>
<polygon fill="none" stroke="#000000" points="357,-72.5 357,-102.5 677,-102.5 677,-72.5 357,-72.5"/>
<text text-anchor="start" x="364" y="-83.9" font-family="Arial" font-size="14.00" fill="#000000">name_kw_tsvector    </text>
<text text-anchor="start" x="514.892" y="-83.9" font-family="Arial" font-size="14.00" fill="#666666">[tsvector]</text>
<polygon fill="none" stroke="#000000" points="357,-42.5 357,-72.5 677,-72.5 677,-42.5 357,-42.5"/>
<text text-anchor="start" x="364" y="-53.9" font-family="Arial" font-size="14.00" fill="#000000">guardian    </text>
<text text-anchor="start" x="452.6676" y="-53.9" font-family="Arial" font-size="14.00" fill="#666666">[text]</text>
</g>
<!-- permission.usr_object_perm_map&#45;&gt;actor.usr -->
<g id="edge1" class="edge">
<title>permission.usr_object_perm_map:usr&#45;&gt;actor.usr:id</title>
<path fill="none" stroke="#000000" d="M508.849,-1806.8026C441.5304,-1797.0285 471.2179,-1686.8938 519,-1627 563.9155,-1570.6994 632.0845,-1647.3006 677,-1591 702.9156,-1558.5154 718.5556,-1497.5 677,-1497.5"/>
<polygon fill="#000000" stroke="#000000" points="509.0235,-1806.8145 518.6915,-1811.9894 514.0118,-1807.1572 519,-1807.5 519,-1807.5 519,-1807.5 514.0118,-1807.1572 519.3085,-1803.0106 509.0235,-1806.8145 509.0235,-1806.8145"/>
<text text-anchor="start" x="7.2185" y="-1817.5" font-family="Arial" font-size="10.00" fill="#000000">FOREIGN KEY (usr) REFERENCES actor.usr(id) ON DELETE CASCADE DEFERRABLE INITIALLY DEFERRED</text>
</g>
<!-- permission.perm_list -->
<g id="node3" class="node">
<title>permission.perm_list</title>
<polygon fill="#efefef" stroke="transparent" points="781,-822.5 781,-857.5 1087,-857.5 1087,-822.5 781,-822.5"/>
<polygon fill="none" stroke="#000000" points="781,-822.5 781,-857.5 1087,-857.5 1087,-822.5 781,-822.5"/>
<text text-anchor="start" x="787.7193" y="-835.3" font-family="Arial Bold" font-size="18.00" fill="#000000">permission.perm_list</text>
<text text-anchor="start" x="952.7127" y="-835.3" font-family="Arial" font-size="14.00" fill="#000000">    </text>
<text text-anchor="start" x="986.9175" y="-835.3" font-family="Arial" font-size="14.00" fill="#666666">[BASE TABLE]</text>
<polygon fill="none" stroke="#000000" points="781,-792.5 781,-822.5 1087,-822.5 1087,-792.5 781,-792.5"/>
<text text-anchor="start" x="788" y="-803.9" font-family="Arial" font-size="14.00" fill="#000000">id    </text>
<text text-anchor="start" x="833.094" y="-803.9" font-family="Arial" font-size="14.00" fill="#666666">[integer]</text>
<polygon fill="none" stroke="#000000" points="781,-762.5 781,-792.5 1087,-792.5 1087,-762.5 781,-762.5"/>
<text text-anchor="start" x="788" y="-773.9" font-family="Arial" font-size="14.00" fill="#000000">code    </text>
<text text-anchor="start" x="852.5526" y="-773.9" font-family="Arial" font-size="14.00" fill="#666666">[text]</text>
<polygon fill="none" stroke="#000000" points="781,-732.5 781,-762.5 1087,-762.5 1087,-732.5 781,-732.5"/>
<text text-anchor="start" x="788" y="-743.9" font-family="Arial" font-size="14.00" fill="#000000">description    </text>
<text text-anchor="start" x="889.8822" y="-743.9" font-family="Arial" font-size="14.00" fill="#666666">[text]</text>
</g>
<!-- permission.usr_object_perm_map&#45;&gt;permission.perm_list -->
<g id="edge2" class="edge">
<title>permission.usr_object_perm_map:perm&#45;&gt;permission.perm_list:id</title>
<path fill="none" stroke="#000000" d="M941.2056,-1776.7068C1129.8745,-1745.5603 566.5034,-807.5 781,-807.5"/>
<polygon fill="#000000" stroke="#000000" points="940.9699,-1776.7251 930.6513,-1773.0135 935.985,-1777.1125 931,-1777.5 931,-1777.5 931,-1777.5 935.985,-1777.1125 931.3487,-1781.9865 940.9699,-1776.7251 940.9699,-1776.7251"/>
<text text-anchor="start" x="938.449" y="-1787.5" font-family="Arial" font-size="10.00" fill="#000000">FOREIGN KEY (perm) REFERENCES permission.perm_list(id) ON UPDATE CASCADE ON DELETE RESTRICT DEFERRABLE INITIALLY DEFERRED</text>
</g>
</g>
</svg>
