<?xml version="1.0" encoding="UTF-8" standalone="no"?>
<!DOCTYPE svg PUBLIC "-//W3C//DTD SVG 1.1//EN"
 "http://www.w3.org/Graphics/SVG/1.1/DTD/svg11.dtd">
<!-- Generated by graphviz version 2.40.1 (20161225.0304)
 -->
<!-- Title: permission.grp_penalty_threshold Pages: 1 -->
<svg width="1592pt" height="832pt"
 viewBox="0.00 0.00 1592.00 832.00" xmlns="http://www.w3.org/2000/svg" xmlns:xlink="http://www.w3.org/1999/xlink">
<g id="graph0" class="graph" transform="scale(1 1) rotate(0) translate(4 828)">
<title>permission.grp_penalty_threshold</title>
<polygon fill="#ffffff" stroke="transparent" points="-4,4 -4,-828 1588,-828 1588,4 -4,4"/>
<!-- permission.grp_penalty_threshold -->
<g id="node1" class="node">
<title>permission.grp_penalty_threshold</title>
<polygon fill="#efefef" stroke="transparent" points="569,-742.5 569,-777.5 980,-777.5 980,-742.5 569,-742.5"/>
<polygon fill="none" stroke="#000000" points="569,-742.5 569,-777.5 980,-777.5 980,-742.5 569,-742.5"/>
<text text-anchor="start" x="575.6872" y="-755.3" font-family="Arial Bold" font-size="18.00" fill="#000000">permission.grp_penalty_threshold</text>
<text text-anchor="start" x="845.7448" y="-755.3" font-family="Arial" font-size="14.00" fill="#000000">    </text>
<text text-anchor="start" x="879.9496" y="-755.3" font-family="Arial" font-size="14.00" fill="#666666">[BASE TABLE]</text>
<polygon fill="none" stroke="#000000" points="569,-712.5 569,-742.5 980,-742.5 980,-712.5 569,-712.5"/>
<text text-anchor="start" x="576" y="-723.9" font-family="Arial" font-size="14.00" fill="#000000">id </text>
<text text-anchor="start" x="590.7798" y="-723.9" font-family="Arial" font-size="14.00" fill="#666666">[integer]</text>
<polygon fill="none" stroke="#000000" points="569,-682.5 569,-712.5 980,-712.5 980,-682.5 569,-682.5"/>
<text text-anchor="start" x="576" y="-693.9" font-family="Arial" font-size="14.00" fill="#000000">grp </text>
<text text-anchor="start" x="600.1164" y="-693.9" font-family="Arial" font-size="14.00" fill="#666666">[integer]</text>
<polygon fill="none" stroke="#000000" points="569,-652.5 569,-682.5 980,-682.5 980,-652.5 569,-652.5"/>
<text text-anchor="start" x="576" y="-663.9" font-family="Arial" font-size="14.00" fill="#000000">org_unit </text>
<text text-anchor="start" x="630.4614" y="-663.9" font-family="Arial" font-size="14.00" fill="#666666">[integer]</text>
<polygon fill="none" stroke="#000000" points="569,-622.5 569,-652.5 980,-652.5 980,-622.5 569,-622.5"/>
<text text-anchor="start" x="576" y="-633.9" font-family="Arial" font-size="14.00" fill="#000000">penalty </text>
<text text-anchor="start" x="625.0182" y="-633.9" font-family="Arial" font-size="14.00" fill="#666666">[integer]</text>
<polygon fill="none" stroke="#000000" points="569,-592.5 569,-622.5 980,-622.5 980,-592.5 569,-592.5"/>
<text text-anchor="start" x="576" y="-603.9" font-family="Arial" font-size="14.00" fill="#000000">threshold </text>
<text text-anchor="start" x="637.4614" y="-603.9" font-family="Arial" font-size="14.00" fill="#666666">[numeric(8,2)]</text>
<polygon fill="none" stroke="#000000" stroke-width="3" points="567,-591.5 567,-779.5 981,-779.5 981,-591.5 567,-591.5"/>
</g>
<!-- permission.grp_tree -->
<g id="node2" class="node">
<title>permission.grp_tree</title>
<polygon fill="#efefef" stroke="transparent" points="244,-357.5 244,-392.5 544,-392.5 544,-357.5 244,-357.5"/>
<polygon fill="none" stroke="#000000" points="244,-357.5 244,-392.5 544,-392.5 544,-357.5 244,-357.5"/>
<text text-anchor="start" x="250.7073" y="-370.3" font-family="Arial Bold" font-size="18.00" fill="#000000">permission.grp_tree</text>
<text text-anchor="start" x="409.7247" y="-370.3" font-family="Arial" font-size="14.00" fill="#000000">    </text>
<text text-anchor="start" x="443.9295" y="-370.3" font-family="Arial" font-size="14.00" fill="#666666">[BASE TABLE]</text>
<polygon fill="none" stroke="#000000" points="244,-327.5 244,-357.5 544,-357.5 544,-327.5 244,-327.5"/>
<text text-anchor="start" x="251" y="-338.9" font-family="Arial" font-size="14.00" fill="#000000">id    </text>
<text text-anchor="start" x="296.094" y="-338.9" font-family="Arial" font-size="14.00" fill="#666666">[integer]</text>
<polygon fill="none" stroke="#000000" points="244,-297.5 244,-327.5 544,-327.5 544,-297.5 244,-297.5"/>
<text text-anchor="start" x="251" y="-308.9" font-family="Arial" font-size="14.00" fill="#000000">name    </text>
<text text-anchor="start" x="320.2132" y="-308.9" font-family="Arial" font-size="14.00" fill="#666666">[text]</text>
<polygon fill="none" stroke="#000000" points="244,-267.5 244,-297.5 544,-297.5 544,-267.5 244,-267.5"/>
<text text-anchor="start" x="251" y="-278.9" font-family="Arial" font-size="14.00" fill="#000000">parent    </text>
<text text-anchor="start" x="324.8864" y="-278.9" font-family="Arial" font-size="14.00" fill="#666666">[integer]</text>
<polygon fill="none" stroke="#000000" points="244,-237.5 244,-267.5 544,-267.5 544,-237.5 244,-237.5"/>
<text text-anchor="start" x="251" y="-248.9" font-family="Arial" font-size="14.00" fill="#000000">usergroup    </text>
<text text-anchor="start" x="348.2216" y="-248.9" font-family="Arial" font-size="14.00" fill="#666666">[boolean]</text>
<polygon fill="none" stroke="#000000" points="244,-207.5 244,-237.5 544,-237.5 544,-207.5 244,-207.5"/>
<text text-anchor="start" x="251" y="-218.9" font-family="Arial" font-size="14.00" fill="#000000">perm_interval    </text>
<text text-anchor="start" x="369.986" y="-218.9" font-family="Arial" font-size="14.00" fill="#666666">[interval]</text>
<polygon fill="none" stroke="#000000" points="244,-177.5 244,-207.5 544,-207.5 544,-177.5 244,-177.5"/>
<text text-anchor="start" x="251" y="-188.9" font-family="Arial" font-size="14.00" fill="#000000">description    </text>
<text text-anchor="start" x="352.8822" y="-188.9" font-family="Arial" font-size="14.00" fill="#666666">[text]</text>
<polygon fill="none" stroke="#000000" points="244,-147.5 244,-177.5 544,-177.5 544,-147.5 244,-147.5"/>
<text text-anchor="start" x="251" y="-158.9" font-family="Arial" font-size="14.00" fill="#000000">application_perm    </text>
<text text-anchor="start" x="391.7798" y="-158.9" font-family="Arial" font-size="14.00" fill="#666666">[text]</text>
<polygon fill="none" stroke="#000000" points="244,-117.5 244,-147.5 544,-147.5 544,-117.5 244,-117.5"/>
<text text-anchor="start" x="251" y="-128.9" font-family="Arial" font-size="14.00" fill="#000000">hold_priority    </text>
<text text-anchor="start" x="361.432" y="-128.9" font-family="Arial" font-size="14.00" fill="#666666">[integer]</text>
</g>
<!-- permission.grp_penalty_threshold&#45;&gt;permission.grp_tree -->
<g id="edge1" class="edge">
<title>permission.grp_penalty_threshold:grp&#45;&gt;permission.grp_tree:id</title>
<path fill="none" stroke="#000000" d="M559.0123,-696.9708C423.6921,-681.7318 698.6159,-342.5 544,-342.5"/>
<polygon fill="#000000" stroke="#000000" points="559.014,-696.9708 568.7618,-701.9937 564.007,-697.2354 569,-697.5 569,-697.5 569,-697.5 564.007,-697.2354 569.2382,-693.0063 559.014,-696.9708 559.014,-696.9708"/>
<text text-anchor="start" x="7.214" y="-707.5" font-family="Arial" font-size="10.00" fill="#000000">FOREIGN KEY (grp) REFERENCES permission.grp_tree(id) ON DELETE CASCADE DEFERRABLE INITIALLY DEFERRED</text>
</g>
<!-- actor.org_unit -->
<g id="node3" class="node">
<title>actor.org_unit</title>
<polygon fill="#efefef" stroke="transparent" points="649,-432.5 649,-467.5 900,-467.5 900,-432.5 649,-432.5"/>
<polygon fill="none" stroke="#000000" points="649,-432.5 649,-467.5 900,-467.5 900,-432.5 649,-432.5"/>
<text text-anchor="start" x="655.7017" y="-445.3" font-family="Arial Bold" font-size="18.00" fill="#000000">actor.org_unit</text>
<text text-anchor="start" x="765.7303" y="-445.3" font-family="Arial" font-size="14.00" fill="#000000">    </text>
<text text-anchor="start" x="799.9351" y="-445.3" font-family="Arial" font-size="14.00" fill="#666666">[BASE TABLE]</text>
<polygon fill="none" stroke="#000000" points="649,-402.5 649,-432.5 900,-432.5 900,-402.5 649,-402.5"/>
<text text-anchor="start" x="656" y="-413.9" font-family="Arial" font-size="14.00" fill="#000000">id    </text>
<text text-anchor="start" x="701.094" y="-413.9" font-family="Arial" font-size="14.00" fill="#666666">[integer]</text>
<polygon fill="none" stroke="#000000" points="649,-372.5 649,-402.5 900,-402.5 900,-372.5 649,-372.5"/>
<text text-anchor="start" x="656" y="-383.9" font-family="Arial" font-size="14.00" fill="#000000">parent_ou    </text>
<text text-anchor="start" x="753.2342" y="-383.9" font-family="Arial" font-size="14.00" fill="#666666">[integer]</text>
<polygon fill="none" stroke="#000000" points="649,-342.5 649,-372.5 900,-372.5 900,-342.5 649,-342.5"/>
<text text-anchor="start" x="656" y="-353.9" font-family="Arial" font-size="14.00" fill="#000000">ou_type    </text>
<text text-anchor="start" x="740.0084" y="-353.9" font-family="Arial" font-size="14.00" fill="#666666">[integer]</text>
<polygon fill="none" stroke="#000000" points="649,-312.5 649,-342.5 900,-342.5 900,-312.5 649,-312.5"/>
<text text-anchor="start" x="656" y="-323.9" font-family="Arial" font-size="14.00" fill="#000000">ill_address    </text>
<text text-anchor="start" x="757.0982" y="-323.9" font-family="Arial" font-size="14.00" fill="#666666">[integer]</text>
<polygon fill="none" stroke="#000000" points="649,-282.5 649,-312.5 900,-312.5 900,-282.5 649,-282.5"/>
<text text-anchor="start" x="656" y="-293.9" font-family="Arial" font-size="14.00" fill="#000000">holds_address    </text>
<text text-anchor="start" x="781.2328" y="-293.9" font-family="Arial" font-size="14.00" fill="#666666">[integer]</text>
<polygon fill="none" stroke="#000000" points="649,-252.5 649,-282.5 900,-282.5 900,-252.5 649,-252.5"/>
<text text-anchor="start" x="656" y="-263.9" font-family="Arial" font-size="14.00" fill="#000000">mailing_address    </text>
<text text-anchor="start" x="792.1066" y="-263.9" font-family="Arial" font-size="14.00" fill="#666666">[integer]</text>
<polygon fill="none" stroke="#000000" points="649,-222.5 649,-252.5 900,-252.5 900,-222.5 649,-222.5"/>
<text text-anchor="start" x="656" y="-233.9" font-family="Arial" font-size="14.00" fill="#000000">billing_address    </text>
<text text-anchor="start" x="783.5526" y="-233.9" font-family="Arial" font-size="14.00" fill="#666666">[integer]</text>
<polygon fill="none" stroke="#000000" points="649,-192.5 649,-222.5 900,-222.5 900,-192.5 649,-192.5"/>
<text text-anchor="start" x="656" y="-203.9" font-family="Arial" font-size="14.00" fill="#000000">shortname    </text>
<text text-anchor="start" x="756.3296" y="-203.9" font-family="Arial" font-size="14.00" fill="#666666">[text]</text>
<polygon fill="none" stroke="#000000" points="649,-162.5 649,-192.5 900,-192.5 900,-162.5 649,-162.5"/>
<text text-anchor="start" x="656" y="-173.9" font-family="Arial" font-size="14.00" fill="#000000">name    </text>
<text text-anchor="start" x="725.2132" y="-173.9" font-family="Arial" font-size="14.00" fill="#666666">[text]</text>
<polygon fill="none" stroke="#000000" points="649,-132.5 649,-162.5 900,-162.5 900,-132.5 649,-132.5"/>
<text text-anchor="start" x="656" y="-143.9" font-family="Arial" font-size="14.00" fill="#000000">email    </text>
<text text-anchor="start" x="723.6438" y="-143.9" font-family="Arial" font-size="14.00" fill="#666666">[text]</text>
<polygon fill="none" stroke="#000000" points="649,-102.5 649,-132.5 900,-132.5 900,-102.5 649,-102.5"/>
<text text-anchor="start" x="656" y="-113.9" font-family="Arial" font-size="14.00" fill="#000000">phone    </text>
<text text-anchor="start" x="729.1178" y="-113.9" font-family="Arial" font-size="14.00" fill="#666666">[text]</text>
<polygon fill="none" stroke="#000000" points="649,-72.5 649,-102.5 900,-102.5 900,-72.5 649,-72.5"/>
<text text-anchor="start" x="656" y="-83.9" font-family="Arial" font-size="14.00" fill="#000000">opac_visible    </text>
<text text-anchor="start" x="767.2202" y="-83.9" font-family="Arial" font-size="14.00" fill="#666666">[boolean]</text>
<polygon fill="none" stroke="#000000" points="649,-42.5 649,-72.5 900,-72.5 900,-42.5 649,-42.5"/>
<text text-anchor="start" x="656" y="-53.9" font-family="Arial" font-size="14.00" fill="#000000">fiscal_calendar    </text>
<text text-anchor="start" x="783.554" y="-53.9" font-family="Arial" font-size="14.00" fill="#666666">[integer]</text>
</g>
<!-- permission.grp_penalty_threshold&#45;&gt;actor.org_unit -->
<g id="edge2" class="edge">
<title>permission.grp_penalty_threshold:org_unit&#45;&gt;actor.org_unit:id</title>
<path fill="none" stroke="#000000" d="M559.0024,-666.4971C520.4968,-657.7928 553.255,-594.2349 569,-547 575.3246,-528.0263 585.0463,-527.7337 596,-511 622.1614,-471.0337 601.2326,-417.5 649,-417.5"/>
<polygon fill="#000000" stroke="#000000" points="559.0499,-666.5018 568.5508,-671.9775 564.025,-667.0009 569,-667.5 569,-667.5 569,-667.5 564.025,-667.0009 569.4492,-663.0225 559.0499,-666.5018 559.0499,-666.5018"/>
<text text-anchor="start" x="11.9845" y="-677.5" font-family="Arial" font-size="10.00" fill="#000000">FOREIGN KEY (org_unit) REFERENCES actor.org_unit(id) ON DELETE CASCADE DEFERRABLE INITIALLY DEFERRED</text>
</g>
<!-- config.standing_penalty -->
<g id="node4" class="node">
<title>config.standing_penalty</title>
<polygon fill="#efefef" stroke="transparent" points="1004,-342.5 1004,-377.5 1334,-377.5 1334,-342.5 1004,-342.5"/>
<polygon fill="none" stroke="#000000" points="1004,-342.5 1004,-377.5 1334,-377.5 1334,-342.5 1004,-342.5"/>
<text text-anchor="start" x="1010.68" y="-355.3" font-family="Arial Bold" font-size="18.00" fill="#000000">config.standing_penalty</text>
<text text-anchor="start" x="1199.752" y="-355.3" font-family="Arial" font-size="14.00" fill="#000000">    </text>
<text text-anchor="start" x="1233.9568" y="-355.3" font-family="Arial" font-size="14.00" fill="#666666">[BASE TABLE]</text>
<polygon fill="none" stroke="#000000" points="1004,-312.5 1004,-342.5 1334,-342.5 1334,-312.5 1004,-312.5"/>
<text text-anchor="start" x="1011" y="-323.9" font-family="Arial" font-size="14.00" fill="#000000">id    </text>
<text text-anchor="start" x="1056.094" y="-323.9" font-family="Arial" font-size="14.00" fill="#666666">[integer]</text>
<polygon fill="none" stroke="#000000" points="1004,-282.5 1004,-312.5 1334,-312.5 1334,-282.5 1004,-282.5"/>
<text text-anchor="start" x="1011" y="-293.9" font-family="Arial" font-size="14.00" fill="#000000">name    </text>
<text text-anchor="start" x="1080.2132" y="-293.9" font-family="Arial" font-size="14.00" fill="#666666">[text]</text>
<polygon fill="none" stroke="#000000" points="1004,-252.5 1004,-282.5 1334,-282.5 1334,-252.5 1004,-252.5"/>
<text text-anchor="start" x="1011" y="-263.9" font-family="Arial" font-size="14.00" fill="#000000">label    </text>
<text text-anchor="start" x="1074.7658" y="-263.9" font-family="Arial" font-size="14.00" fill="#666666">[text]</text>
<polygon fill="none" stroke="#000000" points="1004,-222.5 1004,-252.5 1334,-252.5 1334,-222.5 1004,-222.5"/>
<text text-anchor="start" x="1011" y="-233.9" font-family="Arial" font-size="14.00" fill="#000000">block_list    </text>
<text text-anchor="start" x="1102.763" y="-233.9" font-family="Arial" font-size="14.00" fill="#666666">[text]</text>
<polygon fill="none" stroke="#000000" points="1004,-192.5 1004,-222.5 1334,-222.5 1334,-192.5 1004,-192.5"/>
<text text-anchor="start" x="1011" y="-203.9" font-family="Arial" font-size="14.00" fill="#000000">staff_alert    </text>
<text text-anchor="start" x="1106.6648" y="-203.9" font-family="Arial" font-size="14.00" fill="#666666">[boolean]</text>
<polygon fill="none" stroke="#000000" points="1004,-162.5 1004,-192.5 1334,-192.5 1334,-162.5 1004,-162.5"/>
<text text-anchor="start" x="1011" y="-173.9" font-family="Arial" font-size="14.00" fill="#000000">org_depth    </text>
<text text-anchor="start" x="1108.2342" y="-173.9" font-family="Arial" font-size="14.00" fill="#666666">[integer]</text>
<polygon fill="none" stroke="#000000" points="1004,-132.5 1004,-162.5 1334,-162.5 1334,-132.5 1004,-132.5"/>
<text text-anchor="start" x="1011" y="-143.9" font-family="Arial" font-size="14.00" fill="#000000">ignore_proximity    </text>
<text text-anchor="start" x="1147.8752" y="-143.9" font-family="Arial" font-size="14.00" fill="#666666">[integer]</text>
</g>
<!-- permission.grp_penalty_threshold&#45;&gt;config.standing_penalty -->
<g id="edge3" class="edge">
<title>permission.grp_penalty_threshold:penalty&#45;&gt;config.standing_penalty:id</title>
<path fill="none" stroke="#000000" d="M990.1308,-636.8648C1105.1525,-621.3679 869.4536,-327.5 1004,-327.5"/>
<polygon fill="#000000" stroke="#000000" points="989.9804,-636.8741 979.7184,-633.0088 984.9902,-637.1871 980,-637.5 980,-637.5 980,-637.5 984.9902,-637.1871 980.2816,-641.9912 989.9804,-636.8741 989.9804,-636.8741"/>
<text text-anchor="start" x="986.972" y="-647.5" font-family="Arial" font-size="10.00" fill="#000000">FOREIGN KEY (penalty) REFERENCES config.standing_penalty(id) ON DELETE CASCADE DEFERRABLE INITIALLY DEFERRED</text>
</g>
</g>
</svg>
