<?xml version="1.0" encoding="UTF-8" standalone="no"?>
<!DOCTYPE svg PUBLIC "-//W3C//DTD SVG 1.1//EN"
 "http://www.w3.org/Graphics/SVG/1.1/DTD/svg11.dtd">
<!-- Generated by graphviz version 2.40.1 (20161225.0304)
 -->
<!-- Title: permission.perm_list Pages: 1 -->
<svg width="3291pt" height="682pt"
 viewBox="0.00 0.00 3291.00 682.00" xmlns="http://www.w3.org/2000/svg" xmlns:xlink="http://www.w3.org/1999/xlink">
<g id="graph0" class="graph" transform="scale(1 1) rotate(0) translate(4 678)">
<title>permission.perm_list</title>
<polygon fill="#ffffff" stroke="transparent" points="-4,4 -4,-678 3287,-678 3287,4 -4,4"/>
<!-- permission.perm_list -->
<g id="node1" class="node">
<title>permission.perm_list</title>
<polygon fill="#efefef" stroke="transparent" points="1288,-135.5 1288,-170.5 1594,-170.5 1594,-135.5 1288,-135.5"/>
<polygon fill="none" stroke="#000000" points="1288,-135.5 1288,-170.5 1594,-170.5 1594,-135.5 1288,-135.5"/>
<text text-anchor="start" x="1294.7193" y="-148.3" font-family="Arial Bold" font-size="18.00" fill="#000000">permission.perm_list</text>
<text text-anchor="start" x="1459.7127" y="-148.3" font-family="Arial" font-size="14.00" fill="#000000">    </text>
<text text-anchor="start" x="1493.9175" y="-148.3" font-family="Arial" font-size="14.00" fill="#666666">[BASE TABLE]</text>
<polygon fill="none" stroke="#000000" points="1288,-105.5 1288,-135.5 1594,-135.5 1594,-105.5 1288,-105.5"/>
<text text-anchor="start" x="1295" y="-116.9" font-family="Arial" font-size="14.00" fill="#000000">id </text>
<text text-anchor="start" x="1309.7798" y="-116.9" font-family="Arial" font-size="14.00" fill="#666666">[integer]</text>
<polygon fill="none" stroke="#000000" points="1288,-75.5 1288,-105.5 1594,-105.5 1594,-75.5 1288,-75.5"/>
<text text-anchor="start" x="1295" y="-86.9" font-family="Arial" font-size="14.00" fill="#000000">code </text>
<text text-anchor="start" x="1329.2384" y="-86.9" font-family="Arial" font-size="14.00" fill="#666666">[text]</text>
<polygon fill="none" stroke="#000000" points="1288,-45.5 1288,-75.5 1594,-75.5 1594,-45.5 1288,-45.5"/>
<text text-anchor="start" x="1295" y="-56.9" font-family="Arial" font-size="14.00" fill="#000000">description </text>
<text text-anchor="start" x="1366.568" y="-56.9" font-family="Arial" font-size="14.00" fill="#666666">[text]</text>
<polygon fill="none" stroke="#000000" stroke-width="3" points="1286.5,-44.5 1286.5,-172.5 1595.5,-172.5 1595.5,-44.5 1286.5,-44.5"/>
</g>
<!-- permission.usr_perm_map -->
<g id="node2" class="node">
<title>permission.usr_perm_map</title>
<polygon fill="#efefef" stroke="transparent" points="341,-520.5 341,-555.5 695,-555.5 695,-520.5 341,-520.5"/>
<polygon fill="none" stroke="#000000" points="341,-520.5 341,-555.5 695,-555.5 695,-520.5 341,-520.5"/>
<text text-anchor="start" x="347.71" y="-533.3" font-family="Arial Bold" font-size="18.00" fill="#000000">permission.usr_perm_map</text>
<text text-anchor="start" x="560.722" y="-533.3" font-family="Arial" font-size="14.00" fill="#000000">    </text>
<text text-anchor="start" x="594.9268" y="-533.3" font-family="Arial" font-size="14.00" fill="#666666">[BASE TABLE]</text>
<polygon fill="none" stroke="#000000" points="341,-490.5 341,-520.5 695,-520.5 695,-490.5 341,-490.5"/>
<text text-anchor="start" x="348" y="-501.9" font-family="Arial" font-size="14.00" fill="#000000">id    </text>
<text text-anchor="start" x="393.094" y="-501.9" font-family="Arial" font-size="14.00" fill="#666666">[integer]</text>
<polygon fill="none" stroke="#000000" points="341,-460.5 341,-490.5 695,-490.5 695,-460.5 341,-460.5"/>
<text text-anchor="start" x="348" y="-471.9" font-family="Arial" font-size="14.00" fill="#000000">usr    </text>
<text text-anchor="start" x="401.648" y="-471.9" font-family="Arial" font-size="14.00" fill="#666666">[integer]</text>
<polygon fill="none" stroke="#000000" points="341,-430.5 341,-460.5 695,-460.5 695,-430.5 341,-430.5"/>
<text text-anchor="start" x="348" y="-441.9" font-family="Arial" font-size="14.00" fill="#000000">perm    </text>
<text text-anchor="start" x="414.0912" y="-441.9" font-family="Arial" font-size="14.00" fill="#666666">[integer]</text>
<polygon fill="none" stroke="#000000" points="341,-400.5 341,-430.5 695,-430.5 695,-400.5 341,-400.5"/>
<text text-anchor="start" x="348" y="-411.9" font-family="Arial" font-size="14.00" fill="#000000">depth    </text>
<text text-anchor="start" x="417.2258" y="-411.9" font-family="Arial" font-size="14.00" fill="#666666">[integer]</text>
<polygon fill="none" stroke="#000000" points="341,-370.5 341,-400.5 695,-400.5 695,-370.5 341,-370.5"/>
<text text-anchor="start" x="348" y="-381.9" font-family="Arial" font-size="14.00" fill="#000000">grantable    </text>
<text text-anchor="start" x="440.5582" y="-381.9" font-family="Arial" font-size="14.00" fill="#666666">[boolean]</text>
</g>
<!-- permission.usr_perm_map&#45;&gt;permission.perm_list -->
<g id="edge1" class="edge">
<title>permission.usr_perm_map:perm&#45;&gt;permission.perm_list:id</title>
<path fill="none" stroke="#000000" d="M705.407,-444.7925C775.328,-434.4051 686.3226,-312.2595 747,-253 835.551,-166.5183 1164.2246,-120.5 1288,-120.5"/>
<polygon fill="#000000" stroke="#000000" points="704.977,-444.8217 694.6948,-441.0104 699.9885,-445.1608 695,-445.5 695,-445.5 695,-445.5 699.9885,-445.1608 695.3052,-449.9896 704.977,-444.8217 704.977,-444.8217"/>
<text text-anchor="start" x="7.449" y="-455.5" font-family="Arial" font-size="10.00" fill="#000000">FOREIGN KEY (perm) REFERENCES permission.perm_list(id) ON UPDATE CASCADE ON DELETE RESTRICT DEFERRABLE INITIALLY DEFERRED</text>
</g>
<!-- config.org_unit_setting_type -->
<g id="node3" class="node">
<title>config.org_unit_setting_type</title>
<polygon fill="#efefef" stroke="transparent" points="799,-565.5 799,-600.5 1165,-600.5 1165,-565.5 799,-565.5"/>
<polygon fill="none" stroke="#000000" points="799,-565.5 799,-600.5 1165,-600.5 1165,-565.5 799,-565.5"/>
<text text-anchor="start" x="805.6755" y="-578.3" font-family="Arial Bold" font-size="18.00" fill="#000000">config.org_unit_setting_type</text>
<text text-anchor="start" x="1030.7565" y="-578.3" font-family="Arial" font-size="14.00" fill="#000000">    </text>
<text text-anchor="start" x="1064.9613" y="-578.3" font-family="Arial" font-size="14.00" fill="#666666">[BASE TABLE]</text>
<polygon fill="none" stroke="#000000" points="799,-535.5 799,-565.5 1165,-565.5 1165,-535.5 799,-535.5"/>
<text text-anchor="start" x="806" y="-546.9" font-family="Arial" font-size="14.00" fill="#000000">name    </text>
<text text-anchor="start" x="875.2132" y="-546.9" font-family="Arial" font-size="14.00" fill="#666666">[text]</text>
<polygon fill="none" stroke="#000000" points="799,-505.5 799,-535.5 1165,-535.5 1165,-505.5 799,-505.5"/>
<text text-anchor="start" x="806" y="-516.9" font-family="Arial" font-size="14.00" fill="#000000">label    </text>
<text text-anchor="start" x="869.7658" y="-516.9" font-family="Arial" font-size="14.00" fill="#666666">[text]</text>
<polygon fill="none" stroke="#000000" points="799,-475.5 799,-505.5 1165,-505.5 1165,-475.5 799,-475.5"/>
<text text-anchor="start" x="806" y="-486.9" font-family="Arial" font-size="14.00" fill="#000000">grp    </text>
<text text-anchor="start" x="860.4306" y="-486.9" font-family="Arial" font-size="14.00" fill="#666666">[text]</text>
<polygon fill="none" stroke="#000000" points="799,-445.5 799,-475.5 1165,-475.5 1165,-445.5 799,-445.5"/>
<text text-anchor="start" x="806" y="-456.9" font-family="Arial" font-size="14.00" fill="#000000">description    </text>
<text text-anchor="start" x="907.8822" y="-456.9" font-family="Arial" font-size="14.00" fill="#666666">[text]</text>
<polygon fill="none" stroke="#000000" points="799,-415.5 799,-445.5 1165,-445.5 1165,-415.5 799,-415.5"/>
<text text-anchor="start" x="806" y="-426.9" font-family="Arial" font-size="14.00" fill="#000000">datatype    </text>
<text text-anchor="start" x="893.899" y="-426.9" font-family="Arial" font-size="14.00" fill="#666666">[text]</text>
<polygon fill="none" stroke="#000000" points="799,-385.5 799,-415.5 1165,-415.5 1165,-385.5 799,-385.5"/>
<text text-anchor="start" x="806" y="-396.9" font-family="Arial" font-size="14.00" fill="#000000">fm_class    </text>
<text text-anchor="start" x="895.4278" y="-396.9" font-family="Arial" font-size="14.00" fill="#666666">[text]</text>
<polygon fill="none" stroke="#000000" points="799,-355.5 799,-385.5 1165,-385.5 1165,-355.5 799,-355.5"/>
<text text-anchor="start" x="806" y="-366.9" font-family="Arial" font-size="14.00" fill="#000000">view_perm    </text>
<text text-anchor="start" x="907.8696" y="-366.9" font-family="Arial" font-size="14.00" fill="#666666">[integer]</text>
<polygon fill="none" stroke="#000000" points="799,-325.5 799,-355.5 1165,-355.5 1165,-325.5 799,-325.5"/>
<text text-anchor="start" x="806" y="-336.9" font-family="Arial" font-size="14.00" fill="#000000">update_perm    </text>
<text text-anchor="start" x="922.6774" y="-336.9" font-family="Arial" font-size="14.00" fill="#666666">[integer]</text>
</g>
<!-- config.org_unit_setting_type&#45;&gt;permission.perm_list -->
<g id="edge2" class="edge">
<title>config.org_unit_setting_type:update_perm&#45;&gt;permission.perm_list:id</title>
<path fill="none" stroke="#000000" d="M1173.8402,-335.0618C1205.2233,-301.1836 1262.62,-120.5 1288,-120.5"/>
<polygon fill="#000000" stroke="#000000" points="1173.5174,-335.2603 1162.6421,-336.6672 1169.2587,-337.8801 1165,-340.5 1165,-340.5 1165,-340.5 1169.2587,-337.8801 1167.3579,-344.3328 1173.5174,-335.2603 1173.5174,-335.2603"/>
<text text-anchor="start" x="1172.493" y="-350.5" font-family="Arial" font-size="10.00" fill="#000000">FOREIGN KEY (update_perm) REFERENCES permission.perm_list(id) ON UPDATE CASCADE DEFERRABLE INITIALLY DEFERRED</text>
</g>
<!-- config.org_unit_setting_type&#45;&gt;permission.perm_list -->
<g id="edge3" class="edge">
<title>config.org_unit_setting_type:view_perm&#45;&gt;permission.perm_list:id</title>
<path fill="none" stroke="#000000" d="M1174.9928,-369.6969C1218.4483,-362.0302 1193.5555,-301.0082 1217,-253 1246.3175,-192.9655 1221.1894,-120.5 1288,-120.5"/>
<polygon fill="#000000" stroke="#000000" points="1174.9679,-369.6988 1164.6395,-366.0145 1169.9839,-370.0994 1165,-370.5 1165,-370.5 1165,-370.5 1169.9839,-370.0994 1165.3605,-374.9855 1174.9679,-369.6988 1174.9679,-369.6988"/>
<text text-anchor="start" x="1171.671" y="-380.5" font-family="Arial" font-size="10.00" fill="#000000">FOREIGN KEY (view_perm) REFERENCES permission.perm_list(id) ON UPDATE CASCADE ON DELETE RESTRICT DEFERRABLE INITIALLY DEFERRED</text>
</g>
<!-- config.remoteauth_profile -->
<g id="node4" class="node">
<title>config.remoteauth_profile</title>
<polygon fill="#efefef" stroke="transparent" points="1269,-595.5 1269,-630.5 1613,-630.5 1613,-595.5 1269,-595.5"/>
<polygon fill="none" stroke="#000000" points="1269,-595.5 1269,-630.5 1613,-630.5 1613,-595.5 1269,-595.5"/>
<text text-anchor="start" x="1275.6906" y="-608.3" font-family="Arial Bold" font-size="18.00" fill="#000000">config.remoteauth_profile</text>
<text text-anchor="start" x="1478.7414" y="-608.3" font-family="Arial" font-size="14.00" fill="#000000">    </text>
<text text-anchor="start" x="1512.9462" y="-608.3" font-family="Arial" font-size="14.00" fill="#666666">[BASE TABLE]</text>
<polygon fill="none" stroke="#000000" points="1269,-565.5 1269,-595.5 1613,-595.5 1613,-565.5 1269,-565.5"/>
<text text-anchor="start" x="1276" y="-576.9" font-family="Arial" font-size="14.00" fill="#000000">name    </text>
<text text-anchor="start" x="1345.2132" y="-576.9" font-family="Arial" font-size="14.00" fill="#666666">[text]</text>
<polygon fill="none" stroke="#000000" points="1269,-535.5 1269,-565.5 1613,-565.5 1613,-535.5 1269,-535.5"/>
<text text-anchor="start" x="1276" y="-546.9" font-family="Arial" font-size="14.00" fill="#000000">description    </text>
<text text-anchor="start" x="1377.8822" y="-546.9" font-family="Arial" font-size="14.00" fill="#666666">[text]</text>
<polygon fill="none" stroke="#000000" points="1269,-505.5 1269,-535.5 1613,-535.5 1613,-505.5 1269,-505.5"/>
<text text-anchor="start" x="1276" y="-516.9" font-family="Arial" font-size="14.00" fill="#000000">context_org    </text>
<text text-anchor="start" x="1383.3422" y="-516.9" font-family="Arial" font-size="14.00" fill="#666666">[integer]</text>
<polygon fill="none" stroke="#000000" points="1269,-475.5 1269,-505.5 1613,-505.5 1613,-475.5 1269,-475.5"/>
<text text-anchor="start" x="1276" y="-486.9" font-family="Arial" font-size="14.00" fill="#000000">enabled    </text>
<text text-anchor="start" x="1360.007" y="-486.9" font-family="Arial" font-size="14.00" fill="#666666">[boolean]</text>
<polygon fill="none" stroke="#000000" points="1269,-445.5 1269,-475.5 1613,-475.5 1613,-445.5 1269,-445.5"/>
<text text-anchor="start" x="1276" y="-456.9" font-family="Arial" font-size="14.00" fill="#000000">perm    </text>
<text text-anchor="start" x="1342.0912" y="-456.9" font-family="Arial" font-size="14.00" fill="#666666">[integer]</text>
<polygon fill="none" stroke="#000000" points="1269,-415.5 1269,-445.5 1613,-445.5 1613,-415.5 1269,-415.5"/>
<text text-anchor="start" x="1276" y="-426.9" font-family="Arial" font-size="14.00" fill="#000000">restrict_to_org    </text>
<text text-anchor="start" x="1399.6606" y="-426.9" font-family="Arial" font-size="14.00" fill="#666666">[boolean]</text>
<polygon fill="none" stroke="#000000" points="1269,-385.5 1269,-415.5 1613,-415.5 1613,-385.5 1269,-385.5"/>
<text text-anchor="start" x="1276" y="-396.9" font-family="Arial" font-size="14.00" fill="#000000">allow_inactive    </text>
<text text-anchor="start" x="1397.324" y="-396.9" font-family="Arial" font-size="14.00" fill="#666666">[boolean]</text>
<polygon fill="none" stroke="#000000" points="1269,-355.5 1269,-385.5 1613,-385.5 1613,-355.5 1269,-355.5"/>
<text text-anchor="start" x="1276" y="-366.9" font-family="Arial" font-size="14.00" fill="#000000">allow_expired    </text>
<text text-anchor="start" x="1395.77" y="-366.9" font-family="Arial" font-size="14.00" fill="#666666">[boolean]</text>
<polygon fill="none" stroke="#000000" points="1269,-325.5 1269,-355.5 1613,-355.5 1613,-325.5 1269,-325.5"/>
<text text-anchor="start" x="1276" y="-336.9" font-family="Arial" font-size="14.00" fill="#000000">block_list    </text>
<text text-anchor="start" x="1367.763" y="-336.9" font-family="Arial" font-size="14.00" fill="#666666">[text]</text>
<polygon fill="none" stroke="#000000" points="1269,-295.5 1269,-325.5 1613,-325.5 1613,-295.5 1269,-295.5"/>
<text text-anchor="start" x="1276" y="-306.9" font-family="Arial" font-size="14.00" fill="#000000">usr_activity_type    </text>
<text text-anchor="start" x="1414.446" y="-306.9" font-family="Arial" font-size="14.00" fill="#666666">[integer]</text>
</g>
<!-- config.remoteauth_profile&#45;&gt;permission.perm_list -->
<g id="edge4" class="edge">
<title>config.remoteauth_profile:perm&#45;&gt;permission.perm_list:id</title>
<path fill="none" stroke="#000000" d="M1623.0214,-458.3288C1686.7677,-429.3721 1666.1262,-120.5 1594,-120.5"/>
<polygon fill="#000000" stroke="#000000" points="1622.7733,-458.3825 1612.0471,-456.102 1617.8866,-459.4413 1613,-460.5 1613,-460.5 1613,-460.5 1617.8866,-459.4413 1613.9529,-464.898 1622.7733,-458.3825 1622.7733,-458.3825"/>
<text text-anchor="start" x="1272.949" y="-444.5" font-family="Arial" font-size="10.00" fill="#000000">FOREIGN KEY (perm) REFERENCES permission.perm_list(id) ON UPDATE CASCADE ON DELETE RESTRICT DEFERRABLE INITIALLY DEFERRED</text>
</g>
<!-- config.z3950_source -->
<g id="node5" class="node">
<title>config.z3950_source</title>
<polygon fill="#efefef" stroke="transparent" points="1718,-580.5 1718,-615.5 2025,-615.5 2025,-580.5 1718,-580.5"/>
<polygon fill="none" stroke="#000000" points="1718,-580.5 1718,-615.5 2025,-615.5 2025,-580.5 1718,-580.5"/>
<text text-anchor="start" x="1724.6865" y="-593.3" font-family="Arial Bold" font-size="18.00" fill="#000000">config.z3950_source</text>
<text text-anchor="start" x="1890.7455" y="-593.3" font-family="Arial" font-size="14.00" fill="#000000">    </text>
<text text-anchor="start" x="1924.9503" y="-593.3" font-family="Arial" font-size="14.00" fill="#666666">[BASE TABLE]</text>
<polygon fill="none" stroke="#000000" points="1718,-550.5 1718,-580.5 2025,-580.5 2025,-550.5 1718,-550.5"/>
<text text-anchor="start" x="1725" y="-561.9" font-family="Arial" font-size="14.00" fill="#000000">name    </text>
<text text-anchor="start" x="1794.2132" y="-561.9" font-family="Arial" font-size="14.00" fill="#666666">[text]</text>
<polygon fill="none" stroke="#000000" points="1718,-520.5 1718,-550.5 2025,-550.5 2025,-520.5 1718,-520.5"/>
<text text-anchor="start" x="1725" y="-531.9" font-family="Arial" font-size="14.00" fill="#000000">label    </text>
<text text-anchor="start" x="1788.7658" y="-531.9" font-family="Arial" font-size="14.00" fill="#666666">[text]</text>
<polygon fill="none" stroke="#000000" points="1718,-490.5 1718,-520.5 2025,-520.5 2025,-490.5 1718,-490.5"/>
<text text-anchor="start" x="1725" y="-501.9" font-family="Arial" font-size="14.00" fill="#000000">host    </text>
<text text-anchor="start" x="1785.6606" y="-501.9" font-family="Arial" font-size="14.00" fill="#666666">[text]</text>
<polygon fill="none" stroke="#000000" points="1718,-460.5 1718,-490.5 2025,-490.5 2025,-460.5 1718,-460.5"/>
<text text-anchor="start" x="1725" y="-471.9" font-family="Arial" font-size="14.00" fill="#000000">port    </text>
<text text-anchor="start" x="1783.3212" y="-471.9" font-family="Arial" font-size="14.00" fill="#666666">[integer]</text>
<polygon fill="none" stroke="#000000" points="1718,-430.5 1718,-460.5 2025,-460.5 2025,-430.5 1718,-430.5"/>
<text text-anchor="start" x="1725" y="-441.9" font-family="Arial" font-size="14.00" fill="#000000">db    </text>
<text text-anchor="start" x="1774.77" y="-441.9" font-family="Arial" font-size="14.00" fill="#666666">[text]</text>
<polygon fill="none" stroke="#000000" points="1718,-400.5 1718,-430.5 2025,-430.5 2025,-400.5 1718,-400.5"/>
<text text-anchor="start" x="1725" y="-411.9" font-family="Arial" font-size="14.00" fill="#000000">record_format    </text>
<text text-anchor="start" x="1846.324" y="-411.9" font-family="Arial" font-size="14.00" fill="#666666">[text]</text>
<polygon fill="none" stroke="#000000" points="1718,-370.5 1718,-400.5 2025,-400.5 2025,-370.5 1718,-370.5"/>
<text text-anchor="start" x="1725" y="-381.9" font-family="Arial" font-size="14.00" fill="#000000">transmission_format    </text>
<text text-anchor="start" x="1885.2104" y="-381.9" font-family="Arial" font-size="14.00" fill="#666666">[text]</text>
<polygon fill="none" stroke="#000000" points="1718,-340.5 1718,-370.5 2025,-370.5 2025,-340.5 1718,-340.5"/>
<text text-anchor="start" x="1725" y="-351.9" font-family="Arial" font-size="14.00" fill="#000000">auth    </text>
<text text-anchor="start" x="1786.4432" y="-351.9" font-family="Arial" font-size="14.00" fill="#666666">[boolean]</text>
<polygon fill="none" stroke="#000000" points="1718,-310.5 1718,-340.5 2025,-340.5 2025,-310.5 1718,-310.5"/>
<text text-anchor="start" x="1725" y="-321.9" font-family="Arial" font-size="14.00" fill="#000000">use_perm    </text>
<text text-anchor="start" x="1821.439" y="-321.9" font-family="Arial" font-size="14.00" fill="#666666">[integer]</text>
</g>
<!-- config.z3950_source&#45;&gt;permission.perm_list -->
<g id="edge5" class="edge">
<title>config.z3950_source:use_perm&#45;&gt;permission.perm_list:id</title>
<path fill="none" stroke="#000000" d="M1708.1314,-323.0549C1662.3523,-299.9258 1643.8096,-120.5 1594,-120.5"/>
<polygon fill="#000000" stroke="#000000" points="1708.2935,-323.095 1716.9178,-329.8679 1713.1467,-324.2975 1718,-325.5 1718,-325.5 1718,-325.5 1713.1467,-324.2975 1719.0822,-321.1321 1708.2935,-323.095 1708.2935,-323.095"/>
<text text-anchor="start" x="1724.6105" y="-309.5" font-family="Arial" font-size="10.00" fill="#000000">FOREIGN KEY (use_perm) REFERENCES permission.perm_list(id) ON UPDATE CASCADE ON DELETE RESTRICT DEFERRABLE INITIALLY DEFERRED</text>
</g>
<!-- permission.grp_perm_map -->
<g id="node6" class="node">
<title>permission.grp_perm_map</title>
<polygon fill="#efefef" stroke="transparent" points="2129,-520.5 2129,-555.5 2484,-555.5 2484,-520.5 2129,-520.5"/>
<polygon fill="none" stroke="#000000" points="2129,-520.5 2129,-555.5 2484,-555.5 2484,-520.5 2129,-520.5"/>
<text text-anchor="start" x="2135.7069" y="-533.3" font-family="Arial Bold" font-size="18.00" fill="#000000">permission.grp_perm_map</text>
<text text-anchor="start" x="2349.7251" y="-533.3" font-family="Arial" font-size="14.00" fill="#000000">    </text>
<text text-anchor="start" x="2383.9299" y="-533.3" font-family="Arial" font-size="14.00" fill="#666666">[BASE TABLE]</text>
<polygon fill="none" stroke="#000000" points="2129,-490.5 2129,-520.5 2484,-520.5 2484,-490.5 2129,-490.5"/>
<text text-anchor="start" x="2136" y="-501.9" font-family="Arial" font-size="14.00" fill="#000000">id    </text>
<text text-anchor="start" x="2181.094" y="-501.9" font-family="Arial" font-size="14.00" fill="#666666">[integer]</text>
<polygon fill="none" stroke="#000000" points="2129,-460.5 2129,-490.5 2484,-490.5 2484,-460.5 2129,-460.5"/>
<text text-anchor="start" x="2136" y="-471.9" font-family="Arial" font-size="14.00" fill="#000000">grp    </text>
<text text-anchor="start" x="2190.4306" y="-471.9" font-family="Arial" font-size="14.00" fill="#666666">[integer]</text>
<polygon fill="none" stroke="#000000" points="2129,-430.5 2129,-460.5 2484,-460.5 2484,-430.5 2129,-430.5"/>
<text text-anchor="start" x="2136" y="-441.9" font-family="Arial" font-size="14.00" fill="#000000">perm    </text>
<text text-anchor="start" x="2202.0912" y="-441.9" font-family="Arial" font-size="14.00" fill="#666666">[integer]</text>
<polygon fill="none" stroke="#000000" points="2129,-400.5 2129,-430.5 2484,-430.5 2484,-400.5 2129,-400.5"/>
<text text-anchor="start" x="2136" y="-411.9" font-family="Arial" font-size="14.00" fill="#000000">depth    </text>
<text text-anchor="start" x="2205.2258" y="-411.9" font-family="Arial" font-size="14.00" fill="#666666">[integer]</text>
<polygon fill="none" stroke="#000000" points="2129,-370.5 2129,-400.5 2484,-400.5 2484,-370.5 2129,-370.5"/>
<text text-anchor="start" x="2136" y="-381.9" font-family="Arial" font-size="14.00" fill="#000000">grantable    </text>
<text text-anchor="start" x="2228.5582" y="-381.9" font-family="Arial" font-size="14.00" fill="#666666">[boolean]</text>
</g>
<!-- permission.grp_perm_map&#45;&gt;permission.perm_list -->
<g id="edge6" class="edge">
<title>permission.grp_perm_map:perm&#45;&gt;permission.perm_list:id</title>
<path fill="none" stroke="#000000" d="M2119.0189,-444.8589C2048.2405,-434.9721 2136.9775,-313.2123 2077,-253 1998.4538,-174.1463 1705.2988,-120.5 1594,-120.5"/>
<polygon fill="#000000" stroke="#000000" points="2119.0206,-444.8589 2128.7115,-449.9907 2124.0103,-445.1795 2129,-445.5 2129,-445.5 2129,-445.5 2124.0103,-445.1795 2129.2885,-441.0093 2119.0206,-444.8589 2119.0206,-444.8589"/>
<text text-anchor="start" x="2136.449" y="-455.5" font-family="Arial" font-size="10.00" fill="#000000">FOREIGN KEY (perm) REFERENCES permission.perm_list(id) ON UPDATE CASCADE ON DELETE RESTRICT DEFERRABLE INITIALLY DEFERRED</text>
</g>
<!-- permission.usr_object_perm_map -->
<g id="node7" class="node">
<title>permission.usr_object_perm_map</title>
<polygon fill="#efefef" stroke="transparent" points="2588,-535.5 2588,-570.5 3000,-570.5 3000,-535.5 2588,-535.5"/>
<polygon fill="none" stroke="#000000" points="2588,-535.5 2588,-570.5 3000,-570.5 3000,-535.5 2588,-535.5"/>
<text text-anchor="start" x="2594.6994" y="-548.3" font-family="Arial Bold" font-size="18.00" fill="#000000">permission.usr_object_perm_map</text>
<text text-anchor="start" x="2865.7326" y="-548.3" font-family="Arial" font-size="14.00" fill="#000000">    </text>
<text text-anchor="start" x="2899.9374" y="-548.3" font-family="Arial" font-size="14.00" fill="#666666">[BASE TABLE]</text>
<polygon fill="none" stroke="#000000" points="2588,-505.5 2588,-535.5 3000,-535.5 3000,-505.5 2588,-505.5"/>
<text text-anchor="start" x="2595" y="-516.9" font-family="Arial" font-size="14.00" fill="#000000">id    </text>
<text text-anchor="start" x="2640.094" y="-516.9" font-family="Arial" font-size="14.00" fill="#666666">[integer]</text>
<polygon fill="none" stroke="#000000" points="2588,-475.5 2588,-505.5 3000,-505.5 3000,-475.5 2588,-475.5"/>
<text text-anchor="start" x="2595" y="-486.9" font-family="Arial" font-size="14.00" fill="#000000">usr    </text>
<text text-anchor="start" x="2648.648" y="-486.9" font-family="Arial" font-size="14.00" fill="#666666">[integer]</text>
<polygon fill="none" stroke="#000000" points="2588,-445.5 2588,-475.5 3000,-475.5 3000,-445.5 2588,-445.5"/>
<text text-anchor="start" x="2595" y="-456.9" font-family="Arial" font-size="14.00" fill="#000000">perm    </text>
<text text-anchor="start" x="2661.0912" y="-456.9" font-family="Arial" font-size="14.00" fill="#666666">[integer]</text>
<polygon fill="none" stroke="#000000" points="2588,-415.5 2588,-445.5 3000,-445.5 3000,-415.5 2588,-415.5"/>
<text text-anchor="start" x="2595" y="-426.9" font-family="Arial" font-size="14.00" fill="#000000">object_type    </text>
<text text-anchor="start" x="2700.7882" y="-426.9" font-family="Arial" font-size="14.00" fill="#666666">[text]</text>
<polygon fill="none" stroke="#000000" points="2588,-385.5 2588,-415.5 3000,-415.5 3000,-385.5 2588,-385.5"/>
<text text-anchor="start" x="2595" y="-396.9" font-family="Arial" font-size="14.00" fill="#000000">object_id    </text>
<text text-anchor="start" x="2685.2216" y="-396.9" font-family="Arial" font-size="14.00" fill="#666666">[text]</text>
<polygon fill="none" stroke="#000000" points="2588,-355.5 2588,-385.5 3000,-385.5 3000,-355.5 2588,-355.5"/>
<text text-anchor="start" x="2595" y="-366.9" font-family="Arial" font-size="14.00" fill="#000000">grantable    </text>
<text text-anchor="start" x="2687.5582" y="-366.9" font-family="Arial" font-size="14.00" fill="#666666">[boolean]</text>
</g>
<!-- permission.usr_object_perm_map&#45;&gt;permission.perm_list -->
<g id="edge7" class="edge">
<title>permission.usr_object_perm_map:perm&#45;&gt;permission.perm_list:id</title>
<path fill="none" stroke="#000000" d="M2577.7911,-459.8545C2501.5322,-449.3787 2603.927,-314.0951 2536,-253 2457.4135,-182.3175 1699.697,-120.5 1594,-120.5"/>
<polygon fill="#000000" stroke="#000000" points="2578.0199,-459.8689 2587.716,-464.991 2583.01,-460.1845 2588,-460.5 2588,-460.5 2588,-460.5 2583.01,-460.1845 2588.284,-456.009 2578.0199,-459.8689 2578.0199,-459.8689"/>
<text text-anchor="start" x="2595.449" y="-470.5" font-family="Arial" font-size="10.00" fill="#000000">FOREIGN KEY (perm) REFERENCES permission.perm_list(id) ON UPDATE CASCADE ON DELETE RESTRICT DEFERRABLE INITIALLY DEFERRED</text>
</g>
</g>
</svg>
