<?xml version="1.0" encoding="UTF-8" standalone="no"?>
<!DOCTYPE svg PUBLIC "-//W3C//DTD SVG 1.1//EN"
 "http://www.w3.org/Graphics/SVG/1.1/DTD/svg11.dtd">
<!-- Generated by graphviz version 2.40.1 (20161225.0304)
 -->
<!-- Title: permission.usr_grp_map Pages: 1 -->
<svg width="1435pt" height="1852pt"
 viewBox="0.00 0.00 1435.00 1852.00" xmlns="http://www.w3.org/2000/svg" xmlns:xlink="http://www.w3.org/1999/xlink">
<g id="graph0" class="graph" transform="scale(1 1) rotate(0) translate(4 1848)">
<title>permission.usr_grp_map</title>
<polygon fill="#ffffff" stroke="transparent" points="-4,4 -4,-1848 1431,-1848 1431,4 -4,4"/>
<!-- permission.usr_grp_map -->
<g id="node1" class="node">
<title>permission.usr_grp_map</title>
<polygon fill="#efefef" stroke="transparent" points="519,-1762.5 519,-1797.5 858,-1797.5 858,-1762.5 519,-1762.5"/>
<polygon fill="none" stroke="#000000" points="519,-1762.5 519,-1797.5 858,-1797.5 858,-1762.5 519,-1762.5"/>
<text text-anchor="start" x="525.7061" y="-1775.3" font-family="Arial Bold" font-size="18.00" fill="#000000">permission.usr_grp_map</text>
<text text-anchor="start" x="723.7259" y="-1775.3" font-family="Arial" font-size="14.00" fill="#000000">    </text>
<text text-anchor="start" x="757.9307" y="-1775.3" font-family="Arial" font-size="14.00" fill="#666666">[BASE TABLE]</text>
<polygon fill="none" stroke="#000000" points="519,-1732.5 519,-1762.5 858,-1762.5 858,-1732.5 519,-1732.5"/>
<text text-anchor="start" x="526" y="-1743.9" font-family="Arial" font-size="14.00" fill="#000000">id </text>
<text text-anchor="start" x="540.7798" y="-1743.9" font-family="Arial" font-size="14.00" fill="#666666">[integer]</text>
<polygon fill="none" stroke="#000000" points="519,-1702.5 519,-1732.5 858,-1732.5 858,-1702.5 519,-1702.5"/>
<text text-anchor="start" x="526" y="-1713.9" font-family="Arial" font-size="14.00" fill="#000000">usr </text>
<text text-anchor="start" x="549.3338" y="-1713.9" font-family="Arial" font-size="14.00" fill="#666666">[integer]</text>
<polygon fill="none" stroke="#000000" points="519,-1672.5 519,-1702.5 858,-1702.5 858,-1672.5 519,-1672.5"/>
<text text-anchor="start" x="526" y="-1683.9" font-family="Arial" font-size="14.00" fill="#000000">grp </text>
<text text-anchor="start" x="550.1164" y="-1683.9" font-family="Arial" font-size="14.00" fill="#666666">[integer]</text>
<polygon fill="none" stroke="#000000" stroke-width="3" points="517,-1671.5 517,-1799.5 859,-1799.5 859,-1671.5 517,-1671.5"/>
</g>
<!-- actor.usr -->
<g id="node2" class="node">
<title>actor.usr</title>
<polygon fill="#efefef" stroke="transparent" points="322,-1512.5 322,-1547.5 642,-1547.5 642,-1512.5 322,-1512.5"/>
<polygon fill="none" stroke="#000000" points="322,-1512.5 322,-1547.5 642,-1547.5 642,-1512.5 322,-1512.5"/>
<text text-anchor="start" x="383.2123" y="-1525.3" font-family="Arial Bold" font-size="18.00" fill="#000000">actor.usr</text>
<text text-anchor="start" x="453.2197" y="-1525.3" font-family="Arial" font-size="14.00" fill="#000000">    </text>
<text text-anchor="start" x="487.4245" y="-1525.3" font-family="Arial" font-size="14.00" fill="#666666">[BASE TABLE]</text>
<polygon fill="none" stroke="#000000" points="322,-1482.5 322,-1512.5 642,-1512.5 642,-1482.5 322,-1482.5"/>
<text text-anchor="start" x="329" y="-1493.9" font-family="Arial" font-size="14.00" fill="#000000">id    </text>
<text text-anchor="start" x="374.094" y="-1493.9" font-family="Arial" font-size="14.00" fill="#666666">[integer]</text>
<polygon fill="none" stroke="#000000" points="322,-1452.5 322,-1482.5 642,-1482.5 642,-1452.5 322,-1452.5"/>
<text text-anchor="start" x="329" y="-1463.9" font-family="Arial" font-size="14.00" fill="#000000">card    </text>
<text text-anchor="start" x="390.4306" y="-1463.9" font-family="Arial" font-size="14.00" fill="#666666">[integer]</text>
<polygon fill="none" stroke="#000000" points="322,-1422.5 322,-1452.5 642,-1452.5 642,-1422.5 322,-1422.5"/>
<text text-anchor="start" x="329" y="-1433.9" font-family="Arial" font-size="14.00" fill="#000000">profile    </text>
<text text-anchor="start" x="401.317" y="-1433.9" font-family="Arial" font-size="14.00" fill="#666666">[integer]</text>
<polygon fill="none" stroke="#000000" points="322,-1392.5 322,-1422.5 642,-1422.5 642,-1392.5 322,-1392.5"/>
<text text-anchor="start" x="329" y="-1403.9" font-family="Arial" font-size="14.00" fill="#000000">usrname    </text>
<text text-anchor="start" x="417.6564" y="-1403.9" font-family="Arial" font-size="14.00" fill="#666666">[text]</text>
<polygon fill="none" stroke="#000000" points="322,-1362.5 322,-1392.5 642,-1392.5 642,-1362.5 322,-1362.5"/>
<text text-anchor="start" x="329" y="-1373.9" font-family="Arial" font-size="14.00" fill="#000000">email    </text>
<text text-anchor="start" x="396.6438" y="-1373.9" font-family="Arial" font-size="14.00" fill="#666666">[text]</text>
<polygon fill="none" stroke="#000000" points="322,-1332.5 322,-1362.5 642,-1362.5 642,-1332.5 322,-1332.5"/>
<text text-anchor="start" x="329" y="-1343.9" font-family="Arial" font-size="14.00" fill="#000000">passwd    </text>
<text text-anchor="start" x="410.6592" y="-1343.9" font-family="Arial" font-size="14.00" fill="#666666">[text]</text>
<polygon fill="none" stroke="#000000" points="322,-1302.5 322,-1332.5 642,-1332.5 642,-1302.5 322,-1302.5"/>
<text text-anchor="start" x="329" y="-1313.9" font-family="Arial" font-size="14.00" fill="#000000">standing    </text>
<text text-anchor="start" x="416.115" y="-1313.9" font-family="Arial" font-size="14.00" fill="#666666">[integer]</text>
<polygon fill="none" stroke="#000000" points="322,-1272.5 322,-1302.5 642,-1302.5 642,-1272.5 322,-1272.5"/>
<text text-anchor="start" x="329" y="-1283.9" font-family="Arial" font-size="14.00" fill="#000000">ident_type    </text>
<text text-anchor="start" x="427.7882" y="-1283.9" font-family="Arial" font-size="14.00" fill="#666666">[integer]</text>
<polygon fill="none" stroke="#000000" points="322,-1242.5 322,-1272.5 642,-1272.5 642,-1242.5 322,-1242.5"/>
<text text-anchor="start" x="329" y="-1253.9" font-family="Arial" font-size="14.00" fill="#000000">ident_value    </text>
<text text-anchor="start" x="434.7868" y="-1253.9" font-family="Arial" font-size="14.00" fill="#666666">[text]</text>
<polygon fill="none" stroke="#000000" points="322,-1212.5 322,-1242.5 642,-1242.5 642,-1212.5 322,-1212.5"/>
<text text-anchor="start" x="329" y="-1223.9" font-family="Arial" font-size="14.00" fill="#000000">ident_type2    </text>
<text text-anchor="start" x="435.5708" y="-1223.9" font-family="Arial" font-size="14.00" fill="#666666">[integer]</text>
<polygon fill="none" stroke="#000000" points="322,-1182.5 322,-1212.5 642,-1212.5 642,-1182.5 322,-1182.5"/>
<text text-anchor="start" x="329" y="-1193.9" font-family="Arial" font-size="14.00" fill="#000000">ident_value2    </text>
<text text-anchor="start" x="442.5694" y="-1193.9" font-family="Arial" font-size="14.00" fill="#666666">[text]</text>
<polygon fill="none" stroke="#000000" points="322,-1152.5 322,-1182.5 642,-1182.5 642,-1152.5 322,-1152.5"/>
<text text-anchor="start" x="329" y="-1163.9" font-family="Arial" font-size="14.00" fill="#000000">net_access_level    </text>
<text text-anchor="start" x="470.5694" y="-1163.9" font-family="Arial" font-size="14.00" fill="#666666">[integer]</text>
<polygon fill="none" stroke="#000000" points="322,-1122.5 322,-1152.5 642,-1152.5 642,-1122.5 322,-1122.5"/>
<text text-anchor="start" x="329" y="-1133.9" font-family="Arial" font-size="14.00" fill="#000000">photo_url    </text>
<text text-anchor="start" x="421.5582" y="-1133.9" font-family="Arial" font-size="14.00" fill="#666666">[text]</text>
<polygon fill="none" stroke="#000000" points="322,-1092.5 322,-1122.5 642,-1122.5 642,-1092.5 322,-1092.5"/>
<text text-anchor="start" x="329" y="-1103.9" font-family="Arial" font-size="14.00" fill="#000000">prefix    </text>
<text text-anchor="start" x="397.4278" y="-1103.9" font-family="Arial" font-size="14.00" fill="#666666">[text]</text>
<polygon fill="none" stroke="#000000" points="322,-1062.5 322,-1092.5 642,-1092.5 642,-1062.5 322,-1062.5"/>
<text text-anchor="start" x="329" y="-1073.9" font-family="Arial" font-size="14.00" fill="#000000">first_given_name    </text>
<text text-anchor="start" x="469.7812" y="-1073.9" font-family="Arial" font-size="14.00" fill="#666666">[text]</text>
<polygon fill="none" stroke="#000000" points="322,-1032.5 322,-1062.5 642,-1062.5 642,-1032.5 322,-1032.5"/>
<text text-anchor="start" x="329" y="-1043.9" font-family="Arial" font-size="14.00" fill="#000000">second_given_name    </text>
<text text-anchor="start" x="492.3632" y="-1043.9" font-family="Arial" font-size="14.00" fill="#666666">[text]</text>
<polygon fill="none" stroke="#000000" points="322,-1002.5 322,-1032.5 642,-1032.5 642,-1002.5 322,-1002.5"/>
<text text-anchor="start" x="329" y="-1013.9" font-family="Arial" font-size="14.00" fill="#000000">family_name    </text>
<text text-anchor="start" x="442.5428" y="-1013.9" font-family="Arial" font-size="14.00" fill="#666666">[text]</text>
<polygon fill="none" stroke="#000000" points="322,-972.5 322,-1002.5 642,-1002.5 642,-972.5 322,-972.5"/>
<text text-anchor="start" x="329" y="-983.9" font-family="Arial" font-size="14.00" fill="#000000">suffix    </text>
<text text-anchor="start" x="395.8752" y="-983.9" font-family="Arial" font-size="14.00" fill="#666666">[text]</text>
<polygon fill="none" stroke="#000000" points="322,-942.5 322,-972.5 642,-972.5 642,-942.5 322,-942.5"/>
<text text-anchor="start" x="329" y="-953.9" font-family="Arial" font-size="14.00" fill="#000000">alias    </text>
<text text-anchor="start" x="391.9832" y="-953.9" font-family="Arial" font-size="14.00" fill="#666666">[text]</text>
<polygon fill="none" stroke="#000000" points="322,-912.5 322,-942.5 642,-942.5 642,-912.5 322,-912.5"/>
<text text-anchor="start" x="329" y="-923.9" font-family="Arial" font-size="14.00" fill="#000000">day_phone    </text>
<text text-anchor="start" x="432.4656" y="-923.9" font-family="Arial" font-size="14.00" fill="#666666">[text]</text>
<polygon fill="none" stroke="#000000" points="322,-882.5 322,-912.5 642,-912.5 642,-882.5 322,-882.5"/>
<text text-anchor="start" x="329" y="-893.9" font-family="Arial" font-size="14.00" fill="#000000">evening_phone    </text>
<text text-anchor="start" x="458.92" y="-893.9" font-family="Arial" font-size="14.00" fill="#666666">[text]</text>
<polygon fill="none" stroke="#000000" points="322,-852.5 322,-882.5 642,-882.5 642,-852.5 322,-852.5"/>
<text text-anchor="start" x="329" y="-863.9" font-family="Arial" font-size="14.00" fill="#000000">other_phone    </text>
<text text-anchor="start" x="441.7994" y="-863.9" font-family="Arial" font-size="14.00" fill="#666666">[text]</text>
<polygon fill="none" stroke="#000000" points="322,-822.5 322,-852.5 642,-852.5 642,-822.5 322,-822.5"/>
<text text-anchor="start" x="329" y="-833.9" font-family="Arial" font-size="14.00" fill="#000000">mailing_address    </text>
<text text-anchor="start" x="465.1066" y="-833.9" font-family="Arial" font-size="14.00" fill="#666666">[integer]</text>
<polygon fill="none" stroke="#000000" points="322,-792.5 322,-822.5 642,-822.5 642,-792.5 322,-792.5"/>
<text text-anchor="start" x="329" y="-803.9" font-family="Arial" font-size="14.00" fill="#000000">billing_address    </text>
<text text-anchor="start" x="456.5526" y="-803.9" font-family="Arial" font-size="14.00" fill="#666666">[integer]</text>
<polygon fill="none" stroke="#000000" points="322,-762.5 322,-792.5 642,-792.5 642,-762.5 322,-762.5"/>
<text text-anchor="start" x="329" y="-773.9" font-family="Arial" font-size="14.00" fill="#000000">home_ou    </text>
<text text-anchor="start" x="421.561" y="-773.9" font-family="Arial" font-size="14.00" fill="#666666">[integer]</text>
<polygon fill="none" stroke="#000000" points="322,-732.5 322,-762.5 642,-762.5 642,-732.5 322,-732.5"/>
<text text-anchor="start" x="329" y="-743.9" font-family="Arial" font-size="14.00" fill="#000000">dob    </text>
<text text-anchor="start" x="386.5526" y="-743.9" font-family="Arial" font-size="14.00" fill="#666666">[date]</text>
<polygon fill="none" stroke="#000000" points="322,-702.5 322,-732.5 642,-732.5 642,-702.5 322,-702.5"/>
<text text-anchor="start" x="329" y="-713.9" font-family="Arial" font-size="14.00" fill="#000000">active    </text>
<text text-anchor="start" x="399.7672" y="-713.9" font-family="Arial" font-size="14.00" fill="#666666">[boolean]</text>
<polygon fill="none" stroke="#000000" points="322,-672.5 322,-702.5 642,-702.5 642,-672.5 322,-672.5"/>
<text text-anchor="start" x="329" y="-683.9" font-family="Arial" font-size="14.00" fill="#000000">master_account    </text>
<text text-anchor="start" x="462.7854" y="-683.9" font-family="Arial" font-size="14.00" fill="#666666">[boolean]</text>
<polygon fill="none" stroke="#000000" points="322,-642.5 322,-672.5 642,-672.5 642,-642.5 322,-642.5"/>
<text text-anchor="start" x="329" y="-653.9" font-family="Arial" font-size="14.00" fill="#000000">super_user    </text>
<text text-anchor="start" x="433.2216" y="-653.9" font-family="Arial" font-size="14.00" fill="#666666">[boolean]</text>
<polygon fill="none" stroke="#000000" points="322,-612.5 322,-642.5 642,-642.5 642,-612.5 322,-612.5"/>
<text text-anchor="start" x="329" y="-623.9" font-family="Arial" font-size="14.00" fill="#000000">barred    </text>
<text text-anchor="start" x="403.6564" y="-623.9" font-family="Arial" font-size="14.00" fill="#666666">[boolean]</text>
<polygon fill="none" stroke="#000000" points="322,-582.5 322,-612.5 642,-612.5 642,-582.5 322,-582.5"/>
<text text-anchor="start" x="329" y="-593.9" font-family="Arial" font-size="14.00" fill="#000000">deleted    </text>
<text text-anchor="start" x="409.115" y="-593.9" font-family="Arial" font-size="14.00" fill="#666666">[boolean]</text>
<polygon fill="none" stroke="#000000" points="322,-552.5 322,-582.5 642,-582.5 642,-552.5 322,-552.5"/>
<text text-anchor="start" x="329" y="-563.9" font-family="Arial" font-size="14.00" fill="#000000">juvenile    </text>
<text text-anchor="start" x="410.655" y="-563.9" font-family="Arial" font-size="14.00" fill="#666666">[boolean]</text>
<polygon fill="none" stroke="#000000" points="322,-522.5 322,-552.5 642,-552.5 642,-522.5 322,-522.5"/>
<text text-anchor="start" x="329" y="-533.9" font-family="Arial" font-size="14.00" fill="#000000">usrgroup    </text>
<text text-anchor="start" x="418.439" y="-533.9" font-family="Arial" font-size="14.00" fill="#666666">[integer]</text>
<polygon fill="none" stroke="#000000" points="322,-492.5 322,-522.5 642,-522.5 642,-492.5 322,-492.5"/>
<text text-anchor="start" x="329" y="-503.9" font-family="Arial" font-size="14.00" fill="#000000">claims_returned_count    </text>
<text text-anchor="start" x="504.7896" y="-503.9" font-family="Arial" font-size="14.00" fill="#666666">[integer]</text>
<polygon fill="none" stroke="#000000" points="322,-462.5 322,-492.5 642,-492.5 642,-462.5 322,-462.5"/>
<text text-anchor="start" x="329" y="-473.9" font-family="Arial" font-size="14.00" fill="#000000">credit_forward_balance    </text>
<text text-anchor="start" x="508.6788" y="-473.9" font-family="Arial" font-size="14.00" fill="#666666">[numeric(6,2)]</text>
<polygon fill="none" stroke="#000000" points="322,-432.5 322,-462.5 642,-462.5 642,-432.5 322,-432.5"/>
<text text-anchor="start" x="329" y="-443.9" font-family="Arial" font-size="14.00" fill="#000000">last_xact_id    </text>
<text text-anchor="start" x="437.1122" y="-443.9" font-family="Arial" font-size="14.00" fill="#666666">[text]</text>
<polygon fill="none" stroke="#000000" points="322,-402.5 322,-432.5 642,-432.5 642,-402.5 322,-402.5"/>
<text text-anchor="start" x="329" y="-413.9" font-family="Arial" font-size="14.00" fill="#000000">alert_message    </text>
<text text-anchor="start" x="455.0014" y="-413.9" font-family="Arial" font-size="14.00" fill="#666666">[text]</text>
<polygon fill="none" stroke="#000000" points="322,-372.5 322,-402.5 642,-402.5 642,-372.5 322,-372.5"/>
<text text-anchor="start" x="329" y="-383.9" font-family="Arial" font-size="14.00" fill="#000000">create_date    </text>
<text text-anchor="start" x="437.1248" y="-383.9" font-family="Arial" font-size="14.00" fill="#666666">[timestamp with time zone]</text>
<polygon fill="none" stroke="#000000" points="322,-342.5 322,-372.5 642,-372.5 642,-342.5 322,-342.5"/>
<text text-anchor="start" x="329" y="-353.9" font-family="Arial" font-size="14.00" fill="#000000">expire_date    </text>
<text text-anchor="start" x="436.3408" y="-353.9" font-family="Arial" font-size="14.00" fill="#666666">[timestamp with time zone]</text>
<polygon fill="none" stroke="#000000" points="322,-312.5 322,-342.5 642,-342.5 642,-312.5 322,-312.5"/>
<text text-anchor="start" x="329" y="-323.9" font-family="Arial" font-size="14.00" fill="#000000">claims_never_checked_out_count    </text>
<text text-anchor="start" x="574.8246" y="-323.9" font-family="Arial" font-size="14.00" fill="#666666">[integer]</text>
<polygon fill="none" stroke="#000000" points="322,-282.5 322,-312.5 642,-312.5 642,-282.5 322,-282.5"/>
<text text-anchor="start" x="328.7609" y="-293.9" font-family="Arial" font-size="14.00" fill="#000000">last_update_time    </text>
<text text-anchor="start" x="469.5547" y="-293.9" font-family="Arial" font-size="14.00" fill="#666666">[timestamp with time zone]</text>
<polygon fill="none" stroke="#000000" points="322,-252.5 322,-282.5 642,-282.5 642,-252.5 322,-252.5"/>
<text text-anchor="start" x="329" y="-263.9" font-family="Arial" font-size="14.00" fill="#000000">pref_prefix    </text>
<text text-anchor="start" x="429.3268" y="-263.9" font-family="Arial" font-size="14.00" fill="#666666">[text]</text>
<polygon fill="none" stroke="#000000" points="322,-222.5 322,-252.5 642,-252.5 642,-222.5 322,-222.5"/>
<text text-anchor="start" x="329" y="-233.9" font-family="Arial" font-size="14.00" fill="#000000">pref_first_given_name    </text>
<text text-anchor="start" x="501.6802" y="-233.9" font-family="Arial" font-size="14.00" fill="#666666">[text]</text>
<polygon fill="none" stroke="#000000" points="322,-192.5 322,-222.5 642,-222.5 642,-192.5 322,-192.5"/>
<text text-anchor="start" x="329" y="-203.9" font-family="Arial" font-size="14.00" fill="#000000">pref_second_given_name    </text>
<text text-anchor="start" x="524.2622" y="-203.9" font-family="Arial" font-size="14.00" fill="#666666">[text]</text>
<polygon fill="none" stroke="#000000" points="322,-162.5 322,-192.5 642,-192.5 642,-162.5 322,-162.5"/>
<text text-anchor="start" x="329" y="-173.9" font-family="Arial" font-size="14.00" fill="#000000">pref_family_name    </text>
<text text-anchor="start" x="474.4418" y="-173.9" font-family="Arial" font-size="14.00" fill="#666666">[text]</text>
<polygon fill="none" stroke="#000000" points="322,-132.5 322,-162.5 642,-162.5 642,-132.5 322,-132.5"/>
<text text-anchor="start" x="329" y="-143.9" font-family="Arial" font-size="14.00" fill="#000000">pref_suffix    </text>
<text text-anchor="start" x="427.7742" y="-143.9" font-family="Arial" font-size="14.00" fill="#666666">[text]</text>
<polygon fill="none" stroke="#000000" points="322,-102.5 322,-132.5 642,-132.5 642,-102.5 322,-102.5"/>
<text text-anchor="start" x="329" y="-113.9" font-family="Arial" font-size="14.00" fill="#000000">name_keywords    </text>
<text text-anchor="start" x="465.1108" y="-113.9" font-family="Arial" font-size="14.00" fill="#666666">[text]</text>
<polygon fill="none" stroke="#000000" points="322,-72.5 322,-102.5 642,-102.5 642,-72.5 322,-72.5"/>
<text text-anchor="start" x="329" y="-83.9" font-family="Arial" font-size="14.00" fill="#000000">name_kw_tsvector    </text>
<text text-anchor="start" x="479.892" y="-83.9" font-family="Arial" font-size="14.00" fill="#666666">[tsvector]</text>
<polygon fill="none" stroke="#000000" points="322,-42.5 322,-72.5 642,-72.5 642,-42.5 322,-42.5"/>
<text text-anchor="start" x="329" y="-53.9" font-family="Arial" font-size="14.00" fill="#000000">guardian    </text>
<text text-anchor="start" x="417.6676" y="-53.9" font-family="Arial" font-size="14.00" fill="#666666">[text]</text>
</g>
<!-- permission.usr_grp_map&#45;&gt;actor.usr -->
<g id="edge1" class="edge">
<title>permission.usr_grp_map:usr&#45;&gt;actor.usr:id</title>
<path fill="none" stroke="#000000" d="M508.7827,-1715.9103C481.9995,-1706.3603 497.237,-1656.0456 519,-1627 553.1547,-1581.416 607.8453,-1636.584 642,-1591 666.9178,-1557.7439 683.5556,-1497.5 642,-1497.5"/>
<polygon fill="#000000" stroke="#000000" points="509.1189,-1715.9626 518.3082,-1721.9465 514.0594,-1716.7313 519,-1717.5 519,-1717.5 519,-1717.5 514.0594,-1716.7313 519.6918,-1713.0535 509.1189,-1715.9626 509.1189,-1715.9626"/>
<text text-anchor="start" x="7.2185" y="-1727.5" font-family="Arial" font-size="10.00" fill="#000000">FOREIGN KEY (usr) REFERENCES actor.usr(id) ON DELETE CASCADE DEFERRABLE INITIALLY DEFERRED</text>
</g>
<!-- permission.grp_tree -->
<g id="node3" class="node">
<title>permission.grp_tree</title>
<polygon fill="#efefef" stroke="transparent" points="746,-897.5 746,-932.5 1046,-932.5 1046,-897.5 746,-897.5"/>
<polygon fill="none" stroke="#000000" points="746,-897.5 746,-932.5 1046,-932.5 1046,-897.5 746,-897.5"/>
<text text-anchor="start" x="752.7073" y="-910.3" font-family="Arial Bold" font-size="18.00" fill="#000000">permission.grp_tree</text>
<text text-anchor="start" x="911.7247" y="-910.3" font-family="Arial" font-size="14.00" fill="#000000">    </text>
<text text-anchor="start" x="945.9295" y="-910.3" font-family="Arial" font-size="14.00" fill="#666666">[BASE TABLE]</text>
<polygon fill="none" stroke="#000000" points="746,-867.5 746,-897.5 1046,-897.5 1046,-867.5 746,-867.5"/>
<text text-anchor="start" x="753" y="-878.9" font-family="Arial" font-size="14.00" fill="#000000">id    </text>
<text text-anchor="start" x="798.094" y="-878.9" font-family="Arial" font-size="14.00" fill="#666666">[integer]</text>
<polygon fill="none" stroke="#000000" points="746,-837.5 746,-867.5 1046,-867.5 1046,-837.5 746,-837.5"/>
<text text-anchor="start" x="753" y="-848.9" font-family="Arial" font-size="14.00" fill="#000000">name    </text>
<text text-anchor="start" x="822.2132" y="-848.9" font-family="Arial" font-size="14.00" fill="#666666">[text]</text>
<polygon fill="none" stroke="#000000" points="746,-807.5 746,-837.5 1046,-837.5 1046,-807.5 746,-807.5"/>
<text text-anchor="start" x="753" y="-818.9" font-family="Arial" font-size="14.00" fill="#000000">parent    </text>
<text text-anchor="start" x="826.8864" y="-818.9" font-family="Arial" font-size="14.00" fill="#666666">[integer]</text>
<polygon fill="none" stroke="#000000" points="746,-777.5 746,-807.5 1046,-807.5 1046,-777.5 746,-777.5"/>
<text text-anchor="start" x="753" y="-788.9" font-family="Arial" font-size="14.00" fill="#000000">usergroup    </text>
<text text-anchor="start" x="850.2216" y="-788.9" font-family="Arial" font-size="14.00" fill="#666666">[boolean]</text>
<polygon fill="none" stroke="#000000" points="746,-747.5 746,-777.5 1046,-777.5 1046,-747.5 746,-747.5"/>
<text text-anchor="start" x="753" y="-758.9" font-family="Arial" font-size="14.00" fill="#000000">perm_interval    </text>
<text text-anchor="start" x="871.986" y="-758.9" font-family="Arial" font-size="14.00" fill="#666666">[interval]</text>
<polygon fill="none" stroke="#000000" points="746,-717.5 746,-747.5 1046,-747.5 1046,-717.5 746,-717.5"/>
<text text-anchor="start" x="753" y="-728.9" font-family="Arial" font-size="14.00" fill="#000000">description    </text>
<text text-anchor="start" x="854.8822" y="-728.9" font-family="Arial" font-size="14.00" fill="#666666">[text]</text>
<polygon fill="none" stroke="#000000" points="746,-687.5 746,-717.5 1046,-717.5 1046,-687.5 746,-687.5"/>
<text text-anchor="start" x="753" y="-698.9" font-family="Arial" font-size="14.00" fill="#000000">application_perm    </text>
<text text-anchor="start" x="893.7798" y="-698.9" font-family="Arial" font-size="14.00" fill="#666666">[text]</text>
<polygon fill="none" stroke="#000000" points="746,-657.5 746,-687.5 1046,-687.5 1046,-657.5 746,-657.5"/>
<text text-anchor="start" x="753" y="-668.9" font-family="Arial" font-size="14.00" fill="#000000">hold_priority    </text>
<text text-anchor="start" x="863.432" y="-668.9" font-family="Arial" font-size="14.00" fill="#666666">[integer]</text>
</g>
<!-- permission.usr_grp_map&#45;&gt;permission.grp_tree -->
<g id="edge2" class="edge">
<title>permission.usr_grp_map:grp&#45;&gt;permission.grp_tree:id</title>
<path fill="none" stroke="#000000" d="M868.2982,-1686.4982C1019.4774,-1654.821 569.092,-882.5 746,-882.5"/>
<polygon fill="#000000" stroke="#000000" points="867.953,-1686.5317 857.5643,-1683.0211 862.9765,-1687.0158 858,-1687.5 858,-1687.5 858,-1687.5 862.9765,-1687.0158 858.4357,-1691.9789 867.953,-1686.5317 867.953,-1686.5317"/>
<text text-anchor="start" x="865.214" y="-1697.5" font-family="Arial" font-size="10.00" fill="#000000">FOREIGN KEY (grp) REFERENCES permission.grp_tree(id) ON DELETE CASCADE DEFERRABLE INITIALLY DEFERRED</text>
</g>
</g>
</svg>
