<?xml version="1.0" encoding="UTF-8" standalone="no"?>
<!DOCTYPE svg PUBLIC "-//W3C//DTD SVG 1.1//EN"
 "http://www.w3.org/Graphics/SVG/1.1/DTD/svg11.dtd">
<!-- Generated by graphviz version 2.40.1 (20161225.0304)
 -->
<!-- Title: permission.usr_perm_map Pages: 1 -->
<svg width="1576pt" height="1912pt"
 viewBox="0.00 0.00 1576.00 1912.00" xmlns="http://www.w3.org/2000/svg" xmlns:xlink="http://www.w3.org/1999/xlink">
<g id="graph0" class="graph" transform="scale(1 1) rotate(0) translate(4 1908)">
<title>permission.usr_perm_map</title>
<polygon fill="#ffffff" stroke="transparent" points="-4,4 -4,-1908 1572,-1908 1572,4 -4,4"/>
<!-- permission.usr_perm_map -->
<g id="node1" class="node">
<title>permission.usr_perm_map</title>
<polygon fill="#efefef" stroke="transparent" points="519,-1822.5 519,-1857.5 873,-1857.5 873,-1822.5 519,-1822.5"/>
<polygon fill="none" stroke="#000000" points="519,-1822.5 519,-1857.5 873,-1857.5 873,-1822.5 519,-1822.5"/>
<text text-anchor="start" x="525.71" y="-1835.3" font-family="Arial Bold" font-size="18.00" fill="#000000">permission.usr_perm_map</text>
<text text-anchor="start" x="738.722" y="-1835.3" font-family="Arial" font-size="14.00" fill="#000000">    </text>
<text text-anchor="start" x="772.9268" y="-1835.3" font-family="Arial" font-size="14.00" fill="#666666">[BASE TABLE]</text>
<polygon fill="none" stroke="#000000" points="519,-1792.5 519,-1822.5 873,-1822.5 873,-1792.5 519,-1792.5"/>
<text text-anchor="start" x="526" y="-1803.9" font-family="Arial" font-size="14.00" fill="#000000">id </text>
<text text-anchor="start" x="540.7798" y="-1803.9" font-family="Arial" font-size="14.00" fill="#666666">[integer]</text>
<polygon fill="none" stroke="#000000" points="519,-1762.5 519,-1792.5 873,-1792.5 873,-1762.5 519,-1762.5"/>
<text text-anchor="start" x="526" y="-1773.9" font-family="Arial" font-size="14.00" fill="#000000">usr </text>
<text text-anchor="start" x="549.3338" y="-1773.9" font-family="Arial" font-size="14.00" fill="#666666">[integer]</text>
<polygon fill="none" stroke="#000000" points="519,-1732.5 519,-1762.5 873,-1762.5 873,-1732.5 519,-1732.5"/>
<text text-anchor="start" x="526" y="-1743.9" font-family="Arial" font-size="14.00" fill="#000000">perm </text>
<text text-anchor="start" x="561.777" y="-1743.9" font-family="Arial" font-size="14.00" fill="#666666">[integer]</text>
<polygon fill="none" stroke="#000000" points="519,-1702.5 519,-1732.5 873,-1732.5 873,-1702.5 519,-1702.5"/>
<text text-anchor="start" x="526" y="-1713.9" font-family="Arial" font-size="14.00" fill="#000000">depth </text>
<text text-anchor="start" x="564.9116" y="-1713.9" font-family="Arial" font-size="14.00" fill="#666666">[integer]</text>
<polygon fill="none" stroke="#000000" points="519,-1672.5 519,-1702.5 873,-1702.5 873,-1672.5 519,-1672.5"/>
<text text-anchor="start" x="526" y="-1683.9" font-family="Arial" font-size="14.00" fill="#000000">grantable </text>
<text text-anchor="start" x="588.244" y="-1683.9" font-family="Arial" font-size="14.00" fill="#666666">[boolean]</text>
<polygon fill="none" stroke="#000000" stroke-width="3" points="517.5,-1671.5 517.5,-1859.5 874.5,-1859.5 874.5,-1671.5 517.5,-1671.5"/>
</g>
<!-- actor.usr -->
<g id="node2" class="node">
<title>actor.usr</title>
<polygon fill="#efefef" stroke="transparent" points="328,-1512.5 328,-1547.5 648,-1547.5 648,-1512.5 328,-1512.5"/>
<polygon fill="none" stroke="#000000" points="328,-1512.5 328,-1547.5 648,-1547.5 648,-1512.5 328,-1512.5"/>
<text text-anchor="start" x="389.2123" y="-1525.3" font-family="Arial Bold" font-size="18.00" fill="#000000">actor.usr</text>
<text text-anchor="start" x="459.2197" y="-1525.3" font-family="Arial" font-size="14.00" fill="#000000">    </text>
<text text-anchor="start" x="493.4245" y="-1525.3" font-family="Arial" font-size="14.00" fill="#666666">[BASE TABLE]</text>
<polygon fill="none" stroke="#000000" points="328,-1482.5 328,-1512.5 648,-1512.5 648,-1482.5 328,-1482.5"/>
<text text-anchor="start" x="335" y="-1493.9" font-family="Arial" font-size="14.00" fill="#000000">id    </text>
<text text-anchor="start" x="380.094" y="-1493.9" font-family="Arial" font-size="14.00" fill="#666666">[integer]</text>
<polygon fill="none" stroke="#000000" points="328,-1452.5 328,-1482.5 648,-1482.5 648,-1452.5 328,-1452.5"/>
<text text-anchor="start" x="335" y="-1463.9" font-family="Arial" font-size="14.00" fill="#000000">card    </text>
<text text-anchor="start" x="396.4306" y="-1463.9" font-family="Arial" font-size="14.00" fill="#666666">[integer]</text>
<polygon fill="none" stroke="#000000" points="328,-1422.5 328,-1452.5 648,-1452.5 648,-1422.5 328,-1422.5"/>
<text text-anchor="start" x="335" y="-1433.9" font-family="Arial" font-size="14.00" fill="#000000">profile    </text>
<text text-anchor="start" x="407.317" y="-1433.9" font-family="Arial" font-size="14.00" fill="#666666">[integer]</text>
<polygon fill="none" stroke="#000000" points="328,-1392.5 328,-1422.5 648,-1422.5 648,-1392.5 328,-1392.5"/>
<text text-anchor="start" x="335" y="-1403.9" font-family="Arial" font-size="14.00" fill="#000000">usrname    </text>
<text text-anchor="start" x="423.6564" y="-1403.9" font-family="Arial" font-size="14.00" fill="#666666">[text]</text>
<polygon fill="none" stroke="#000000" points="328,-1362.5 328,-1392.5 648,-1392.5 648,-1362.5 328,-1362.5"/>
<text text-anchor="start" x="335" y="-1373.9" font-family="Arial" font-size="14.00" fill="#000000">email    </text>
<text text-anchor="start" x="402.6438" y="-1373.9" font-family="Arial" font-size="14.00" fill="#666666">[text]</text>
<polygon fill="none" stroke="#000000" points="328,-1332.5 328,-1362.5 648,-1362.5 648,-1332.5 328,-1332.5"/>
<text text-anchor="start" x="335" y="-1343.9" font-family="Arial" font-size="14.00" fill="#000000">passwd    </text>
<text text-anchor="start" x="416.6592" y="-1343.9" font-family="Arial" font-size="14.00" fill="#666666">[text]</text>
<polygon fill="none" stroke="#000000" points="328,-1302.5 328,-1332.5 648,-1332.5 648,-1302.5 328,-1302.5"/>
<text text-anchor="start" x="335" y="-1313.9" font-family="Arial" font-size="14.00" fill="#000000">standing    </text>
<text text-anchor="start" x="422.115" y="-1313.9" font-family="Arial" font-size="14.00" fill="#666666">[integer]</text>
<polygon fill="none" stroke="#000000" points="328,-1272.5 328,-1302.5 648,-1302.5 648,-1272.5 328,-1272.5"/>
<text text-anchor="start" x="335" y="-1283.9" font-family="Arial" font-size="14.00" fill="#000000">ident_type    </text>
<text text-anchor="start" x="433.7882" y="-1283.9" font-family="Arial" font-size="14.00" fill="#666666">[integer]</text>
<polygon fill="none" stroke="#000000" points="328,-1242.5 328,-1272.5 648,-1272.5 648,-1242.5 328,-1242.5"/>
<text text-anchor="start" x="335" y="-1253.9" font-family="Arial" font-size="14.00" fill="#000000">ident_value    </text>
<text text-anchor="start" x="440.7868" y="-1253.9" font-family="Arial" font-size="14.00" fill="#666666">[text]</text>
<polygon fill="none" stroke="#000000" points="328,-1212.5 328,-1242.5 648,-1242.5 648,-1212.5 328,-1212.5"/>
<text text-anchor="start" x="335" y="-1223.9" font-family="Arial" font-size="14.00" fill="#000000">ident_type2    </text>
<text text-anchor="start" x="441.5708" y="-1223.9" font-family="Arial" font-size="14.00" fill="#666666">[integer]</text>
<polygon fill="none" stroke="#000000" points="328,-1182.5 328,-1212.5 648,-1212.5 648,-1182.5 328,-1182.5"/>
<text text-anchor="start" x="335" y="-1193.9" font-family="Arial" font-size="14.00" fill="#000000">ident_value2    </text>
<text text-anchor="start" x="448.5694" y="-1193.9" font-family="Arial" font-size="14.00" fill="#666666">[text]</text>
<polygon fill="none" stroke="#000000" points="328,-1152.5 328,-1182.5 648,-1182.5 648,-1152.5 328,-1152.5"/>
<text text-anchor="start" x="335" y="-1163.9" font-family="Arial" font-size="14.00" fill="#000000">net_access_level    </text>
<text text-anchor="start" x="476.5694" y="-1163.9" font-family="Arial" font-size="14.00" fill="#666666">[integer]</text>
<polygon fill="none" stroke="#000000" points="328,-1122.5 328,-1152.5 648,-1152.5 648,-1122.5 328,-1122.5"/>
<text text-anchor="start" x="335" y="-1133.9" font-family="Arial" font-size="14.00" fill="#000000">photo_url    </text>
<text text-anchor="start" x="427.5582" y="-1133.9" font-family="Arial" font-size="14.00" fill="#666666">[text]</text>
<polygon fill="none" stroke="#000000" points="328,-1092.5 328,-1122.5 648,-1122.5 648,-1092.5 328,-1092.5"/>
<text text-anchor="start" x="335" y="-1103.9" font-family="Arial" font-size="14.00" fill="#000000">prefix    </text>
<text text-anchor="start" x="403.4278" y="-1103.9" font-family="Arial" font-size="14.00" fill="#666666">[text]</text>
<polygon fill="none" stroke="#000000" points="328,-1062.5 328,-1092.5 648,-1092.5 648,-1062.5 328,-1062.5"/>
<text text-anchor="start" x="335" y="-1073.9" font-family="Arial" font-size="14.00" fill="#000000">first_given_name    </text>
<text text-anchor="start" x="475.7812" y="-1073.9" font-family="Arial" font-size="14.00" fill="#666666">[text]</text>
<polygon fill="none" stroke="#000000" points="328,-1032.5 328,-1062.5 648,-1062.5 648,-1032.5 328,-1032.5"/>
<text text-anchor="start" x="335" y="-1043.9" font-family="Arial" font-size="14.00" fill="#000000">second_given_name    </text>
<text text-anchor="start" x="498.3632" y="-1043.9" font-family="Arial" font-size="14.00" fill="#666666">[text]</text>
<polygon fill="none" stroke="#000000" points="328,-1002.5 328,-1032.5 648,-1032.5 648,-1002.5 328,-1002.5"/>
<text text-anchor="start" x="335" y="-1013.9" font-family="Arial" font-size="14.00" fill="#000000">family_name    </text>
<text text-anchor="start" x="448.5428" y="-1013.9" font-family="Arial" font-size="14.00" fill="#666666">[text]</text>
<polygon fill="none" stroke="#000000" points="328,-972.5 328,-1002.5 648,-1002.5 648,-972.5 328,-972.5"/>
<text text-anchor="start" x="335" y="-983.9" font-family="Arial" font-size="14.00" fill="#000000">suffix    </text>
<text text-anchor="start" x="401.8752" y="-983.9" font-family="Arial" font-size="14.00" fill="#666666">[text]</text>
<polygon fill="none" stroke="#000000" points="328,-942.5 328,-972.5 648,-972.5 648,-942.5 328,-942.5"/>
<text text-anchor="start" x="335" y="-953.9" font-family="Arial" font-size="14.00" fill="#000000">alias    </text>
<text text-anchor="start" x="397.9832" y="-953.9" font-family="Arial" font-size="14.00" fill="#666666">[text]</text>
<polygon fill="none" stroke="#000000" points="328,-912.5 328,-942.5 648,-942.5 648,-912.5 328,-912.5"/>
<text text-anchor="start" x="335" y="-923.9" font-family="Arial" font-size="14.00" fill="#000000">day_phone    </text>
<text text-anchor="start" x="438.4656" y="-923.9" font-family="Arial" font-size="14.00" fill="#666666">[text]</text>
<polygon fill="none" stroke="#000000" points="328,-882.5 328,-912.5 648,-912.5 648,-882.5 328,-882.5"/>
<text text-anchor="start" x="335" y="-893.9" font-family="Arial" font-size="14.00" fill="#000000">evening_phone    </text>
<text text-anchor="start" x="464.92" y="-893.9" font-family="Arial" font-size="14.00" fill="#666666">[text]</text>
<polygon fill="none" stroke="#000000" points="328,-852.5 328,-882.5 648,-882.5 648,-852.5 328,-852.5"/>
<text text-anchor="start" x="335" y="-863.9" font-family="Arial" font-size="14.00" fill="#000000">other_phone    </text>
<text text-anchor="start" x="447.7994" y="-863.9" font-family="Arial" font-size="14.00" fill="#666666">[text]</text>
<polygon fill="none" stroke="#000000" points="328,-822.5 328,-852.5 648,-852.5 648,-822.5 328,-822.5"/>
<text text-anchor="start" x="335" y="-833.9" font-family="Arial" font-size="14.00" fill="#000000">mailing_address    </text>
<text text-anchor="start" x="471.1066" y="-833.9" font-family="Arial" font-size="14.00" fill="#666666">[integer]</text>
<polygon fill="none" stroke="#000000" points="328,-792.5 328,-822.5 648,-822.5 648,-792.5 328,-792.5"/>
<text text-anchor="start" x="335" y="-803.9" font-family="Arial" font-size="14.00" fill="#000000">billing_address    </text>
<text text-anchor="start" x="462.5526" y="-803.9" font-family="Arial" font-size="14.00" fill="#666666">[integer]</text>
<polygon fill="none" stroke="#000000" points="328,-762.5 328,-792.5 648,-792.5 648,-762.5 328,-762.5"/>
<text text-anchor="start" x="335" y="-773.9" font-family="Arial" font-size="14.00" fill="#000000">home_ou    </text>
<text text-anchor="start" x="427.561" y="-773.9" font-family="Arial" font-size="14.00" fill="#666666">[integer]</text>
<polygon fill="none" stroke="#000000" points="328,-732.5 328,-762.5 648,-762.5 648,-732.5 328,-732.5"/>
<text text-anchor="start" x="335" y="-743.9" font-family="Arial" font-size="14.00" fill="#000000">dob    </text>
<text text-anchor="start" x="392.5526" y="-743.9" font-family="Arial" font-size="14.00" fill="#666666">[date]</text>
<polygon fill="none" stroke="#000000" points="328,-702.5 328,-732.5 648,-732.5 648,-702.5 328,-702.5"/>
<text text-anchor="start" x="335" y="-713.9" font-family="Arial" font-size="14.00" fill="#000000">active    </text>
<text text-anchor="start" x="405.7672" y="-713.9" font-family="Arial" font-size="14.00" fill="#666666">[boolean]</text>
<polygon fill="none" stroke="#000000" points="328,-672.5 328,-702.5 648,-702.5 648,-672.5 328,-672.5"/>
<text text-anchor="start" x="335" y="-683.9" font-family="Arial" font-size="14.00" fill="#000000">master_account    </text>
<text text-anchor="start" x="468.7854" y="-683.9" font-family="Arial" font-size="14.00" fill="#666666">[boolean]</text>
<polygon fill="none" stroke="#000000" points="328,-642.5 328,-672.5 648,-672.5 648,-642.5 328,-642.5"/>
<text text-anchor="start" x="335" y="-653.9" font-family="Arial" font-size="14.00" fill="#000000">super_user    </text>
<text text-anchor="start" x="439.2216" y="-653.9" font-family="Arial" font-size="14.00" fill="#666666">[boolean]</text>
<polygon fill="none" stroke="#000000" points="328,-612.5 328,-642.5 648,-642.5 648,-612.5 328,-612.5"/>
<text text-anchor="start" x="335" y="-623.9" font-family="Arial" font-size="14.00" fill="#000000">barred    </text>
<text text-anchor="start" x="409.6564" y="-623.9" font-family="Arial" font-size="14.00" fill="#666666">[boolean]</text>
<polygon fill="none" stroke="#000000" points="328,-582.5 328,-612.5 648,-612.5 648,-582.5 328,-582.5"/>
<text text-anchor="start" x="335" y="-593.9" font-family="Arial" font-size="14.00" fill="#000000">deleted    </text>
<text text-anchor="start" x="415.115" y="-593.9" font-family="Arial" font-size="14.00" fill="#666666">[boolean]</text>
<polygon fill="none" stroke="#000000" points="328,-552.5 328,-582.5 648,-582.5 648,-552.5 328,-552.5"/>
<text text-anchor="start" x="335" y="-563.9" font-family="Arial" font-size="14.00" fill="#000000">juvenile    </text>
<text text-anchor="start" x="416.655" y="-563.9" font-family="Arial" font-size="14.00" fill="#666666">[boolean]</text>
<polygon fill="none" stroke="#000000" points="328,-522.5 328,-552.5 648,-552.5 648,-522.5 328,-522.5"/>
<text text-anchor="start" x="335" y="-533.9" font-family="Arial" font-size="14.00" fill="#000000">usrgroup    </text>
<text text-anchor="start" x="424.439" y="-533.9" font-family="Arial" font-size="14.00" fill="#666666">[integer]</text>
<polygon fill="none" stroke="#000000" points="328,-492.5 328,-522.5 648,-522.5 648,-492.5 328,-492.5"/>
<text text-anchor="start" x="335" y="-503.9" font-family="Arial" font-size="14.00" fill="#000000">claims_returned_count    </text>
<text text-anchor="start" x="510.7896" y="-503.9" font-family="Arial" font-size="14.00" fill="#666666">[integer]</text>
<polygon fill="none" stroke="#000000" points="328,-462.5 328,-492.5 648,-492.5 648,-462.5 328,-462.5"/>
<text text-anchor="start" x="335" y="-473.9" font-family="Arial" font-size="14.00" fill="#000000">credit_forward_balance    </text>
<text text-anchor="start" x="514.6788" y="-473.9" font-family="Arial" font-size="14.00" fill="#666666">[numeric(6,2)]</text>
<polygon fill="none" stroke="#000000" points="328,-432.5 328,-462.5 648,-462.5 648,-432.5 328,-432.5"/>
<text text-anchor="start" x="335" y="-443.9" font-family="Arial" font-size="14.00" fill="#000000">last_xact_id    </text>
<text text-anchor="start" x="443.1122" y="-443.9" font-family="Arial" font-size="14.00" fill="#666666">[text]</text>
<polygon fill="none" stroke="#000000" points="328,-402.5 328,-432.5 648,-432.5 648,-402.5 328,-402.5"/>
<text text-anchor="start" x="335" y="-413.9" font-family="Arial" font-size="14.00" fill="#000000">alert_message    </text>
<text text-anchor="start" x="461.0014" y="-413.9" font-family="Arial" font-size="14.00" fill="#666666">[text]</text>
<polygon fill="none" stroke="#000000" points="328,-372.5 328,-402.5 648,-402.5 648,-372.5 328,-372.5"/>
<text text-anchor="start" x="335" y="-383.9" font-family="Arial" font-size="14.00" fill="#000000">create_date    </text>
<text text-anchor="start" x="443.1248" y="-383.9" font-family="Arial" font-size="14.00" fill="#666666">[timestamp with time zone]</text>
<polygon fill="none" stroke="#000000" points="328,-342.5 328,-372.5 648,-372.5 648,-342.5 328,-342.5"/>
<text text-anchor="start" x="335" y="-353.9" font-family="Arial" font-size="14.00" fill="#000000">expire_date    </text>
<text text-anchor="start" x="442.3408" y="-353.9" font-family="Arial" font-size="14.00" fill="#666666">[timestamp with time zone]</text>
<polygon fill="none" stroke="#000000" points="328,-312.5 328,-342.5 648,-342.5 648,-312.5 328,-312.5"/>
<text text-anchor="start" x="335" y="-323.9" font-family="Arial" font-size="14.00" fill="#000000">claims_never_checked_out_count    </text>
<text text-anchor="start" x="580.8246" y="-323.9" font-family="Arial" font-size="14.00" fill="#666666">[integer]</text>
<polygon fill="none" stroke="#000000" points="328,-282.5 328,-312.5 648,-312.5 648,-282.5 328,-282.5"/>
<text text-anchor="start" x="334.7609" y="-293.9" font-family="Arial" font-size="14.00" fill="#000000">last_update_time    </text>
<text text-anchor="start" x="475.5547" y="-293.9" font-family="Arial" font-size="14.00" fill="#666666">[timestamp with time zone]</text>
<polygon fill="none" stroke="#000000" points="328,-252.5 328,-282.5 648,-282.5 648,-252.5 328,-252.5"/>
<text text-anchor="start" x="335" y="-263.9" font-family="Arial" font-size="14.00" fill="#000000">pref_prefix    </text>
<text text-anchor="start" x="435.3268" y="-263.9" font-family="Arial" font-size="14.00" fill="#666666">[text]</text>
<polygon fill="none" stroke="#000000" points="328,-222.5 328,-252.5 648,-252.5 648,-222.5 328,-222.5"/>
<text text-anchor="start" x="335" y="-233.9" font-family="Arial" font-size="14.00" fill="#000000">pref_first_given_name    </text>
<text text-anchor="start" x="507.6802" y="-233.9" font-family="Arial" font-size="14.00" fill="#666666">[text]</text>
<polygon fill="none" stroke="#000000" points="328,-192.5 328,-222.5 648,-222.5 648,-192.5 328,-192.5"/>
<text text-anchor="start" x="335" y="-203.9" font-family="Arial" font-size="14.00" fill="#000000">pref_second_given_name    </text>
<text text-anchor="start" x="530.2622" y="-203.9" font-family="Arial" font-size="14.00" fill="#666666">[text]</text>
<polygon fill="none" stroke="#000000" points="328,-162.5 328,-192.5 648,-192.5 648,-162.5 328,-162.5"/>
<text text-anchor="start" x="335" y="-173.9" font-family="Arial" font-size="14.00" fill="#000000">pref_family_name    </text>
<text text-anchor="start" x="480.4418" y="-173.9" font-family="Arial" font-size="14.00" fill="#666666">[text]</text>
<polygon fill="none" stroke="#000000" points="328,-132.5 328,-162.5 648,-162.5 648,-132.5 328,-132.5"/>
<text text-anchor="start" x="335" y="-143.9" font-family="Arial" font-size="14.00" fill="#000000">pref_suffix    </text>
<text text-anchor="start" x="433.7742" y="-143.9" font-family="Arial" font-size="14.00" fill="#666666">[text]</text>
<polygon fill="none" stroke="#000000" points="328,-102.5 328,-132.5 648,-132.5 648,-102.5 328,-102.5"/>
<text text-anchor="start" x="335" y="-113.9" font-family="Arial" font-size="14.00" fill="#000000">name_keywords    </text>
<text text-anchor="start" x="471.1108" y="-113.9" font-family="Arial" font-size="14.00" fill="#666666">[text]</text>
<polygon fill="none" stroke="#000000" points="328,-72.5 328,-102.5 648,-102.5 648,-72.5 328,-72.5"/>
<text text-anchor="start" x="335" y="-83.9" font-family="Arial" font-size="14.00" fill="#000000">name_kw_tsvector    </text>
<text text-anchor="start" x="485.892" y="-83.9" font-family="Arial" font-size="14.00" fill="#666666">[tsvector]</text>
<polygon fill="none" stroke="#000000" points="328,-42.5 328,-72.5 648,-72.5 648,-42.5 328,-42.5"/>
<text text-anchor="start" x="335" y="-53.9" font-family="Arial" font-size="14.00" fill="#000000">guardian    </text>
<text text-anchor="start" x="423.6676" y="-53.9" font-family="Arial" font-size="14.00" fill="#666666">[text]</text>
</g>
<!-- permission.usr_perm_map&#45;&gt;actor.usr -->
<g id="edge1" class="edge">
<title>permission.usr_perm_map:usr&#45;&gt;actor.usr:id</title>
<path fill="none" stroke="#000000" d="M508.8505,-1776.6508C455.0454,-1766.9976 480.7675,-1677.3629 519,-1627 554.9912,-1579.5896 612.0088,-1638.4104 648,-1591 673.1265,-1557.9013 689.5556,-1497.5 648,-1497.5"/>
<polygon fill="#000000" stroke="#000000" points="509.0348,-1776.6661 518.6248,-1781.9843 514.0174,-1777.0831 519,-1777.5 519,-1777.5 519,-1777.5 514.0174,-1777.0831 519.3752,-1773.0157 509.0348,-1776.6661 509.0348,-1776.6661"/>
<text text-anchor="start" x="7.2185" y="-1787.5" font-family="Arial" font-size="10.00" fill="#000000">FOREIGN KEY (usr) REFERENCES actor.usr(id) ON DELETE CASCADE DEFERRABLE INITIALLY DEFERRED</text>
</g>
<!-- permission.perm_list -->
<g id="node3" class="node">
<title>permission.perm_list</title>
<polygon fill="#efefef" stroke="transparent" points="752,-822.5 752,-857.5 1058,-857.5 1058,-822.5 752,-822.5"/>
<polygon fill="none" stroke="#000000" points="752,-822.5 752,-857.5 1058,-857.5 1058,-822.5 752,-822.5"/>
<text text-anchor="start" x="758.7193" y="-835.3" font-family="Arial Bold" font-size="18.00" fill="#000000">permission.perm_list</text>
<text text-anchor="start" x="923.7127" y="-835.3" font-family="Arial" font-size="14.00" fill="#000000">    </text>
<text text-anchor="start" x="957.9175" y="-835.3" font-family="Arial" font-size="14.00" fill="#666666">[BASE TABLE]</text>
<polygon fill="none" stroke="#000000" points="752,-792.5 752,-822.5 1058,-822.5 1058,-792.5 752,-792.5"/>
<text text-anchor="start" x="759" y="-803.9" font-family="Arial" font-size="14.00" fill="#000000">id    </text>
<text text-anchor="start" x="804.094" y="-803.9" font-family="Arial" font-size="14.00" fill="#666666">[integer]</text>
<polygon fill="none" stroke="#000000" points="752,-762.5 752,-792.5 1058,-792.5 1058,-762.5 752,-762.5"/>
<text text-anchor="start" x="759" y="-773.9" font-family="Arial" font-size="14.00" fill="#000000">code    </text>
<text text-anchor="start" x="823.5526" y="-773.9" font-family="Arial" font-size="14.00" fill="#666666">[text]</text>
<polygon fill="none" stroke="#000000" points="752,-732.5 752,-762.5 1058,-762.5 1058,-732.5 752,-732.5"/>
<text text-anchor="start" x="759" y="-743.9" font-family="Arial" font-size="14.00" fill="#000000">description    </text>
<text text-anchor="start" x="860.8822" y="-743.9" font-family="Arial" font-size="14.00" fill="#666666">[text]</text>
</g>
<!-- permission.usr_perm_map&#45;&gt;permission.perm_list -->
<g id="edge2" class="edge">
<title>permission.usr_perm_map:perm&#45;&gt;permission.perm_list:id</title>
<path fill="none" stroke="#000000" d="M883.1459,-1746.6858C1065.2992,-1715.6456 544.9869,-807.5 752,-807.5"/>
<polygon fill="#000000" stroke="#000000" points="882.968,-1746.7 872.64,-1743.0144 877.984,-1747.1 873,-1747.5 873,-1747.5 873,-1747.5 877.984,-1747.1 873.36,-1751.9856 882.968,-1746.7 882.968,-1746.7"/>
<text text-anchor="start" x="880.449" y="-1757.5" font-family="Arial" font-size="10.00" fill="#000000">FOREIGN KEY (perm) REFERENCES permission.perm_list(id) ON UPDATE CASCADE ON DELETE RESTRICT DEFERRABLE INITIALLY DEFERRED</text>
</g>
</g>
</svg>
