<?xml version="1.0" encoding="UTF-8" standalone="no"?>
<!DOCTYPE svg PUBLIC "-//W3C//DTD SVG 1.1//EN"
 "http://www.w3.org/Graphics/SVG/1.1/DTD/svg11.dtd">
<!-- Generated by graphviz version 2.40.1 (20161225.0304)
 -->
<!-- Title: public.pg_stat_statements Pages: 1 -->
<svg width="400pt" height="825pt"
 viewBox="0.00 0.00 400.00 825.00" xmlns="http://www.w3.org/2000/svg" xmlns:xlink="http://www.w3.org/1999/xlink">
<g id="graph0" class="graph" transform="scale(1 1) rotate(0) translate(4 821)">
<title>public.pg_stat_statements</title>
<polygon fill="#ffffff" stroke="transparent" points="-4,4 -4,-821 396,-821 396,4 -4,4"/>
<!-- public.pg_stat_statements -->
<g id="node1" class="node">
<title>public.pg_stat_statements</title>
<polygon fill="#efefef" stroke="transparent" points="46,-735.5 46,-770.5 346,-770.5 346,-735.5 46,-735.5"/>
<polygon fill="none" stroke="#000000" points="46,-735.5 46,-770.5 346,-770.5 346,-735.5 46,-735.5"/>
<text text-anchor="start" x="52.5837" y="-748.3" font-family="Arial Bold" font-size="18.00" fill="#000000">public.pg_stat_statements</text>
<text text-anchor="start" x="261.6519" y="-748.3" font-family="Arial" font-size="14.00" fill="#000000">    </text>
<text text-anchor="start" x="295.8567" y="-748.3" font-family="Arial" font-size="14.00" fill="#666666">[VIEW]</text>
<polygon fill="none" stroke="#000000" points="46,-705.5 46,-735.5 346,-735.5 346,-705.5 46,-705.5"/>
<text text-anchor="start" x="53" y="-716.9" font-family="Arial" font-size="14.00" fill="#000000">userid </text>
<text text-anchor="start" x="95.0056" y="-716.9" font-family="Arial" font-size="14.00" fill="#666666">[oid]</text>
<polygon fill="none" stroke="#000000" points="46,-675.5 46,-705.5 346,-705.5 346,-675.5 46,-675.5"/>
<text text-anchor="start" x="53" y="-686.9" font-family="Arial" font-size="14.00" fill="#000000">dbid </text>
<text text-anchor="start" x="83.345" y="-686.9" font-family="Arial" font-size="14.00" fill="#666666">[oid]</text>
<polygon fill="none" stroke="#000000" points="46,-645.5 46,-675.5 346,-675.5 346,-645.5 46,-645.5"/>
<text text-anchor="start" x="53" y="-656.9" font-family="Arial" font-size="14.00" fill="#000000">queryid </text>
<text text-anchor="start" x="102.7882" y="-656.9" font-family="Arial" font-size="14.00" fill="#666666">[bigint]</text>
<polygon fill="none" stroke="#000000" points="46,-615.5 46,-645.5 346,-645.5 346,-615.5 46,-615.5"/>
<text text-anchor="start" x="53" y="-626.9" font-family="Arial" font-size="14.00" fill="#000000">query </text>
<text text-anchor="start" x="91.899" y="-626.9" font-family="Arial" font-size="14.00" fill="#666666">[text]</text>
<polygon fill="none" stroke="#000000" points="46,-585.5 46,-615.5 346,-615.5 346,-585.5 46,-585.5"/>
<text text-anchor="start" x="53" y="-596.9" font-family="Arial" font-size="14.00" fill="#000000">calls </text>
<text text-anchor="start" x="84.8864" y="-596.9" font-family="Arial" font-size="14.00" fill="#666666">[bigint]</text>
<polygon fill="none" stroke="#000000" points="46,-555.5 46,-585.5 346,-585.5 346,-555.5 46,-555.5"/>
<text text-anchor="start" x="53" y="-566.9" font-family="Arial" font-size="14.00" fill="#000000">total_time </text>
<text text-anchor="start" x="117.5666" y="-566.9" font-family="Arial" font-size="14.00" fill="#666666">[double precision]</text>
<polygon fill="none" stroke="#000000" points="46,-525.5 46,-555.5 346,-555.5 346,-525.5 46,-525.5"/>
<text text-anchor="start" x="53" y="-536.9" font-family="Arial" font-size="14.00" fill="#000000">min_time </text>
<text text-anchor="start" x="113.6634" y="-536.9" font-family="Arial" font-size="14.00" fill="#666666">[double precision]</text>
<polygon fill="none" stroke="#000000" points="46,-495.5 46,-525.5 346,-525.5 346,-495.5 46,-495.5"/>
<text text-anchor="start" x="53" y="-506.9" font-family="Arial" font-size="14.00" fill="#000000">max_time </text>
<text text-anchor="start" x="117.5568" y="-506.9" font-family="Arial" font-size="14.00" fill="#666666">[double precision]</text>
<polygon fill="none" stroke="#000000" points="46,-465.5 46,-495.5 346,-495.5 346,-465.5 46,-465.5"/>
<text text-anchor="start" x="53" y="-476.9" font-family="Arial" font-size="14.00" fill="#000000">mean_time </text>
<text text-anchor="start" x="126.122" y="-476.9" font-family="Arial" font-size="14.00" fill="#666666">[double precision]</text>
<polygon fill="none" stroke="#000000" points="46,-435.5 46,-465.5 346,-465.5 346,-435.5 46,-435.5"/>
<text text-anchor="start" x="53" y="-446.9" font-family="Arial" font-size="14.00" fill="#000000">stddev_time </text>
<text text-anchor="start" x="132.352" y="-446.9" font-family="Arial" font-size="14.00" fill="#666666">[double precision]</text>
<polygon fill="none" stroke="#000000" points="46,-405.5 46,-435.5 346,-435.5 346,-405.5 46,-405.5"/>
<text text-anchor="start" x="53" y="-416.9" font-family="Arial" font-size="14.00" fill="#000000">rows </text>
<text text-anchor="start" x="86.4404" y="-416.9" font-family="Arial" font-size="14.00" fill="#666666">[bigint]</text>
<polygon fill="none" stroke="#000000" points="46,-375.5 46,-405.5 346,-405.5 346,-375.5 46,-375.5"/>
<text text-anchor="start" x="53" y="-386.9" font-family="Arial" font-size="14.00" fill="#000000">shared_blks_hit </text>
<text text-anchor="start" x="154.9158" y="-386.9" font-family="Arial" font-size="14.00" fill="#666666">[bigint]</text>
<polygon fill="none" stroke="#000000" points="46,-345.5 46,-375.5 346,-375.5 346,-345.5 46,-345.5"/>
<text text-anchor="start" x="53" y="-356.9" font-family="Arial" font-size="14.00" fill="#000000">shared_blks_read </text>
<text text-anchor="start" x="168.1444" y="-356.9" font-family="Arial" font-size="14.00" fill="#666666">[bigint]</text>
<polygon fill="none" stroke="#000000" points="46,-315.5 46,-345.5 346,-345.5 346,-315.5 46,-315.5"/>
<text text-anchor="start" x="53" y="-326.9" font-family="Arial" font-size="14.00" fill="#000000">shared_blks_dirtied </text>
<text text-anchor="start" x="178.2482" y="-326.9" font-family="Arial" font-size="14.00" fill="#666666">[bigint]</text>
<polygon fill="none" stroke="#000000" points="46,-285.5 46,-315.5 346,-315.5 346,-285.5 46,-285.5"/>
<text text-anchor="start" x="53" y="-296.9" font-family="Arial" font-size="14.00" fill="#000000">shared_blks_written </text>
<text text-anchor="start" x="181.3562" y="-296.9" font-family="Arial" font-size="14.00" fill="#666666">[bigint]</text>
<polygon fill="none" stroke="#000000" points="46,-255.5 46,-285.5 346,-285.5 346,-255.5 46,-255.5"/>
<text text-anchor="start" x="53" y="-266.9" font-family="Arial" font-size="14.00" fill="#000000">local_blks_hit </text>
<text text-anchor="start" x="140.9032" y="-266.9" font-family="Arial" font-size="14.00" fill="#666666">[bigint]</text>
<polygon fill="none" stroke="#000000" points="46,-225.5 46,-255.5 346,-255.5 346,-225.5 46,-225.5"/>
<text text-anchor="start" x="53" y="-236.9" font-family="Arial" font-size="14.00" fill="#000000">local_blks_read </text>
<text text-anchor="start" x="154.1318" y="-236.9" font-family="Arial" font-size="14.00" fill="#666666">[bigint]</text>
<polygon fill="none" stroke="#000000" points="46,-195.5 46,-225.5 346,-225.5 346,-195.5 46,-195.5"/>
<text text-anchor="start" x="53" y="-206.9" font-family="Arial" font-size="14.00" fill="#000000">local_blks_dirtied </text>
<text text-anchor="start" x="164.2356" y="-206.9" font-family="Arial" font-size="14.00" fill="#666666">[bigint]</text>
<polygon fill="none" stroke="#000000" points="46,-165.5 46,-195.5 346,-195.5 346,-165.5 46,-165.5"/>
<text text-anchor="start" x="53" y="-176.9" font-family="Arial" font-size="14.00" fill="#000000">local_blks_written </text>
<text text-anchor="start" x="167.3436" y="-176.9" font-family="Arial" font-size="14.00" fill="#666666">[bigint]</text>
<polygon fill="none" stroke="#000000" points="46,-135.5 46,-165.5 346,-165.5 346,-135.5 46,-135.5"/>
<text text-anchor="start" x="53" y="-146.9" font-family="Arial" font-size="14.00" fill="#000000">temp_blks_read </text>
<text text-anchor="start" x="156.4698" y="-146.9" font-family="Arial" font-size="14.00" fill="#666666">[bigint]</text>
<polygon fill="none" stroke="#000000" points="46,-105.5 46,-135.5 346,-135.5 346,-105.5 46,-105.5"/>
<text text-anchor="start" x="53" y="-116.9" font-family="Arial" font-size="14.00" fill="#000000">temp_blks_written </text>
<text text-anchor="start" x="169.6816" y="-116.9" font-family="Arial" font-size="14.00" fill="#666666">[bigint]</text>
<polygon fill="none" stroke="#000000" points="46,-75.5 46,-105.5 346,-105.5 346,-75.5 46,-75.5"/>
<text text-anchor="start" x="53" y="-86.9" font-family="Arial" font-size="14.00" fill="#000000">blk_read_time </text>
<text text-anchor="start" x="144.7938" y="-86.9" font-family="Arial" font-size="14.00" fill="#666666">[double precision]</text>
<polygon fill="none" stroke="#000000" points="46,-45.5 46,-75.5 346,-75.5 346,-45.5 46,-45.5"/>
<text text-anchor="start" x="53" y="-56.9" font-family="Arial" font-size="14.00" fill="#000000">blk_write_time </text>
<text text-anchor="start" x="146.3324" y="-56.9" font-family="Arial" font-size="14.00" fill="#666666">[double precision]</text>
<polygon fill="none" stroke="#000000" stroke-width="3" points="44.5,-44.5 44.5,-772.5 347.5,-772.5 347.5,-44.5 44.5,-44.5"/>
</g>
</g>
</svg>
