<?xml version="1.0" encoding="UTF-8" standalone="no"?>
<!DOCTYPE svg PUBLIC "-//W3C//DTD SVG 1.1//EN"
 "http://www.w3.org/Graphics/SVG/1.1/DTD/svg11.dtd">
<!-- Generated by graphviz version 2.40.1 (20161225.0304)
 -->
<!-- Title: query.function_sig Pages: 1 -->
<svg width="1029pt" height="1169pt"
 viewBox="0.00 0.00 1029.00 1169.00" xmlns="http://www.w3.org/2000/svg" xmlns:xlink="http://www.w3.org/1999/xlink">
<g id="graph0" class="graph" transform="scale(1 1) rotate(0) translate(4 1165)">
<title>query.function_sig</title>
<polygon fill="#ffffff" stroke="transparent" points="-4,4 -4,-1165 1025,-1165 1025,4 -4,4"/>
<!-- query.function_sig -->
<g id="node1" class="node">
<title>query.function_sig</title>
<polygon fill="#efefef" stroke="transparent" points="247,-442.5 247,-477.5 534,-477.5 534,-442.5 247,-442.5"/>
<polygon fill="none" stroke="#000000" points="247,-442.5 247,-477.5 534,-477.5 534,-442.5 247,-442.5"/>
<text text-anchor="start" x="253.6945" y="-455.3" font-family="Arial Bold" font-size="18.00" fill="#000000">query.function_sig</text>
<text text-anchor="start" x="399.7375" y="-455.3" font-family="Arial" font-size="14.00" fill="#000000">    </text>
<text text-anchor="start" x="433.9423" y="-455.3" font-family="Arial" font-size="14.00" fill="#666666">[BASE TABLE]</text>
<polygon fill="none" stroke="#000000" points="247,-412.5 247,-442.5 534,-442.5 534,-412.5 247,-412.5"/>
<text text-anchor="start" x="254" y="-423.9" font-family="Arial" font-size="14.00" fill="#000000">id </text>
<text text-anchor="start" x="268.7798" y="-423.9" font-family="Arial" font-size="14.00" fill="#666666">[integer]</text>
<polygon fill="none" stroke="#000000" points="247,-382.5 247,-412.5 534,-412.5 534,-382.5 247,-382.5"/>
<text text-anchor="start" x="254" y="-393.9" font-family="Arial" font-size="14.00" fill="#000000">function_name </text>
<text text-anchor="start" x="349.6998" y="-393.9" font-family="Arial" font-size="14.00" fill="#666666">[text]</text>
<polygon fill="none" stroke="#000000" points="247,-352.5 247,-382.5 534,-382.5 534,-352.5 247,-352.5"/>
<text text-anchor="start" x="254" y="-363.9" font-family="Arial" font-size="14.00" fill="#000000">return_type </text>
<text text-anchor="start" x="328.6886" y="-363.9" font-family="Arial" font-size="14.00" fill="#666666">[integer]</text>
<polygon fill="none" stroke="#000000" points="247,-322.5 247,-352.5 534,-352.5 534,-322.5 247,-322.5"/>
<text text-anchor="start" x="254" y="-333.9" font-family="Arial" font-size="14.00" fill="#000000">is_aggregate </text>
<text text-anchor="start" x="338.8092" y="-333.9" font-family="Arial" font-size="14.00" fill="#666666">[boolean]</text>
<polygon fill="none" stroke="#000000" stroke-width="3" points="245,-321.5 245,-479.5 535,-479.5 535,-321.5 245,-321.5"/>
</g>
<!-- query.datatype -->
<g id="node4" class="node">
<title>query.datatype</title>
<polygon fill="#efefef" stroke="transparent" points="261,-162.5 261,-197.5 521,-197.5 521,-162.5 261,-162.5"/>
<polygon fill="none" stroke="#000000" points="261,-162.5 261,-197.5 521,-197.5 521,-162.5 261,-162.5"/>
<text text-anchor="start" x="267.6918" y="-175.3" font-family="Arial Bold" font-size="18.00" fill="#000000">query.datatype</text>
<text text-anchor="start" x="386.7402" y="-175.3" font-family="Arial" font-size="14.00" fill="#000000">    </text>
<text text-anchor="start" x="420.945" y="-175.3" font-family="Arial" font-size="14.00" fill="#666666">[BASE TABLE]</text>
<polygon fill="none" stroke="#000000" points="261,-132.5 261,-162.5 521,-162.5 521,-132.5 261,-132.5"/>
<text text-anchor="start" x="268" y="-143.9" font-family="Arial" font-size="14.00" fill="#000000">id    </text>
<text text-anchor="start" x="313.094" y="-143.9" font-family="Arial" font-size="14.00" fill="#666666">[integer]</text>
<polygon fill="none" stroke="#000000" points="261,-102.5 261,-132.5 521,-132.5 521,-102.5 261,-102.5"/>
<text text-anchor="start" x="268" y="-113.9" font-family="Arial" font-size="14.00" fill="#000000">datatype_name    </text>
<text text-anchor="start" x="398.69" y="-113.9" font-family="Arial" font-size="14.00" fill="#666666">[text]</text>
<polygon fill="none" stroke="#000000" points="261,-72.5 261,-102.5 521,-102.5 521,-72.5 261,-72.5"/>
<text text-anchor="start" x="268" y="-83.9" font-family="Arial" font-size="14.00" fill="#000000">is_numeric    </text>
<text text-anchor="start" x="369.8696" y="-83.9" font-family="Arial" font-size="14.00" fill="#666666">[boolean]</text>
<polygon fill="none" stroke="#000000" points="261,-42.5 261,-72.5 521,-72.5 521,-42.5 261,-42.5"/>
<text text-anchor="start" x="268" y="-53.9" font-family="Arial" font-size="14.00" fill="#000000">is_composite    </text>
<text text-anchor="start" x="383.8822" y="-53.9" font-family="Arial" font-size="14.00" fill="#666666">[boolean]</text>
</g>
<!-- query.function_sig&#45;&gt;query.datatype -->
<g id="edge3" class="edge">
<title>query.function_sig:return_type&#45;&gt;query.datatype:id</title>
<path fill="none" stroke="#000000" d="M543.9245,-365.9856C571.5399,-356.4657 558.0312,-304.4082 534,-277 453.3166,-184.9785 341.6834,-333.0215 261,-241 233.6038,-209.754 219.4444,-147.5 261,-147.5"/>
<polygon fill="#000000" stroke="#000000" points="543.8856,-365.9914 533.3211,-363.0515 538.9428,-366.7457 534,-367.5 534,-367.5 534,-367.5 538.9428,-366.7457 534.6789,-371.9485 543.8856,-365.9914 543.8856,-365.9914"/>
<text text-anchor="start" x="540.536" y="-377.5" font-family="Arial" font-size="10.00" fill="#000000">FOREIGN KEY (return_type) REFERENCES query.datatype(id) DEFERRABLE INITIALLY DEFERRED</text>
</g>
<!-- query.expression -->
<g id="node2" class="node">
<title>query.expression</title>
<polygon fill="#efefef" stroke="transparent" points="43,-1082.5 43,-1117.5 321,-1117.5 321,-1082.5 43,-1082.5"/>
<polygon fill="none" stroke="#000000" points="43,-1082.5 43,-1117.5 321,-1117.5 321,-1082.5 43,-1082.5"/>
<text text-anchor="start" x="49.7008" y="-1095.3" font-family="Arial Bold" font-size="18.00" fill="#000000">query.expression</text>
<text text-anchor="start" x="186.7312" y="-1095.3" font-family="Arial" font-size="14.00" fill="#000000">    </text>
<text text-anchor="start" x="220.936" y="-1095.3" font-family="Arial" font-size="14.00" fill="#666666">[BASE TABLE]</text>
<polygon fill="none" stroke="#000000" points="43,-1052.5 43,-1082.5 321,-1082.5 321,-1052.5 43,-1052.5"/>
<text text-anchor="start" x="50" y="-1063.9" font-family="Arial" font-size="14.00" fill="#000000">id    </text>
<text text-anchor="start" x="95.094" y="-1063.9" font-family="Arial" font-size="14.00" fill="#666666">[integer]</text>
<polygon fill="none" stroke="#000000" points="43,-1022.5 43,-1052.5 321,-1052.5 321,-1022.5 43,-1022.5"/>
<text text-anchor="start" x="50" y="-1033.9" font-family="Arial" font-size="14.00" fill="#000000">type    </text>
<text text-anchor="start" x="110.6606" y="-1033.9" font-family="Arial" font-size="14.00" fill="#666666">[text]</text>
<polygon fill="none" stroke="#000000" points="43,-992.5 43,-1022.5 321,-1022.5 321,-992.5 43,-992.5"/>
<text text-anchor="start" x="50" y="-1003.9" font-family="Arial" font-size="14.00" fill="#000000">parenthesize    </text>
<text text-anchor="start" x="164.3408" y="-1003.9" font-family="Arial" font-size="14.00" fill="#666666">[boolean]</text>
<polygon fill="none" stroke="#000000" points="43,-962.5 43,-992.5 321,-992.5 321,-962.5 43,-962.5"/>
<text text-anchor="start" x="50" y="-973.9" font-family="Arial" font-size="14.00" fill="#000000">parent_expr    </text>
<text text-anchor="start" x="158.8948" y="-973.9" font-family="Arial" font-size="14.00" fill="#666666">[integer]</text>
<polygon fill="none" stroke="#000000" points="43,-932.5 43,-962.5 321,-962.5 321,-932.5 43,-932.5"/>
<text text-anchor="start" x="50" y="-943.9" font-family="Arial" font-size="14.00" fill="#000000">seq_no    </text>
<text text-anchor="start" x="130.1178" y="-943.9" font-family="Arial" font-size="14.00" fill="#666666">[integer]</text>
<polygon fill="none" stroke="#000000" points="43,-902.5 43,-932.5 321,-932.5 321,-902.5 43,-902.5"/>
<text text-anchor="start" x="50" y="-913.9" font-family="Arial" font-size="14.00" fill="#000000">literal    </text>
<text text-anchor="start" x="117.641" y="-913.9" font-family="Arial" font-size="14.00" fill="#666666">[text]</text>
<polygon fill="none" stroke="#000000" points="43,-872.5 43,-902.5 321,-902.5 321,-872.5 43,-872.5"/>
<text text-anchor="start" x="50" y="-883.9" font-family="Arial" font-size="14.00" fill="#000000">table_alias    </text>
<text text-anchor="start" x="151.1108" y="-883.9" font-family="Arial" font-size="14.00" fill="#666666">[text]</text>
<polygon fill="none" stroke="#000000" points="43,-842.5 43,-872.5 321,-872.5 321,-842.5 43,-842.5"/>
<text text-anchor="start" x="50" y="-853.9" font-family="Arial" font-size="14.00" fill="#000000">column_name    </text>
<text text-anchor="start" x="172.1108" y="-853.9" font-family="Arial" font-size="14.00" fill="#666666">[text]</text>
<polygon fill="none" stroke="#000000" points="43,-812.5 43,-842.5 321,-842.5 321,-812.5 43,-812.5"/>
<text text-anchor="start" x="50" y="-823.9" font-family="Arial" font-size="14.00" fill="#000000">left_operand    </text>
<text text-anchor="start" x="162.014" y="-823.9" font-family="Arial" font-size="14.00" fill="#666666">[integer]</text>
<polygon fill="none" stroke="#000000" points="43,-782.5 43,-812.5 321,-812.5 321,-782.5 43,-782.5"/>
<text text-anchor="start" x="50" y="-793.9" font-family="Arial" font-size="14.00" fill="#000000">operator    </text>
<text text-anchor="start" x="136.3296" y="-793.9" font-family="Arial" font-size="14.00" fill="#666666">[text]</text>
<polygon fill="none" stroke="#000000" points="43,-752.5 43,-782.5 321,-782.5 321,-752.5 43,-752.5"/>
<text text-anchor="start" x="50" y="-763.9" font-family="Arial" font-size="14.00" fill="#000000">right_operand    </text>
<text text-anchor="start" x="170.5666" y="-763.9" font-family="Arial" font-size="14.00" fill="#666666">[integer]</text>
<polygon fill="none" stroke="#000000" points="43,-722.5 43,-752.5 321,-752.5 321,-722.5 43,-722.5"/>
<text text-anchor="start" x="50" y="-733.9" font-family="Arial" font-size="14.00" fill="#000000">function_id    </text>
<text text-anchor="start" x="151.8948" y="-733.9" font-family="Arial" font-size="14.00" fill="#666666">[integer]</text>
<polygon fill="none" stroke="#000000" points="43,-692.5 43,-722.5 321,-722.5 321,-692.5 43,-692.5"/>
<text text-anchor="start" x="50" y="-703.9" font-family="Arial" font-size="14.00" fill="#000000">subquery    </text>
<text text-anchor="start" x="141.7784" y="-703.9" font-family="Arial" font-size="14.00" fill="#666666">[integer]</text>
<polygon fill="none" stroke="#000000" points="43,-662.5 43,-692.5 321,-692.5 321,-662.5 43,-662.5"/>
<text text-anchor="start" x="50" y="-673.9" font-family="Arial" font-size="14.00" fill="#000000">cast_type    </text>
<text text-anchor="start" x="144.1164" y="-673.9" font-family="Arial" font-size="14.00" fill="#666666">[integer]</text>
<polygon fill="none" stroke="#000000" points="43,-632.5 43,-662.5 321,-662.5 321,-632.5 43,-632.5"/>
<text text-anchor="start" x="50" y="-643.9" font-family="Arial" font-size="14.00" fill="#000000">negate    </text>
<text text-anchor="start" x="127.0084" y="-643.9" font-family="Arial" font-size="14.00" fill="#666666">[boolean]</text>
<polygon fill="none" stroke="#000000" points="43,-602.5 43,-632.5 321,-632.5 321,-602.5 43,-602.5"/>
<text text-anchor="start" x="50" y="-613.9" font-family="Arial" font-size="14.00" fill="#000000">bind_variable    </text>
<text text-anchor="start" x="167.446" y="-613.9" font-family="Arial" font-size="14.00" fill="#666666">[text]</text>
</g>
<!-- query.expression&#45;&gt;query.function_sig -->
<g id="edge1" class="edge">
<title>query.expression:function_id&#45;&gt;query.function_sig:id</title>
<path fill="none" stroke="#000000" d="M331.3409,-736.7867C396.4049,-727.2255 360.8772,-623.7455 321,-560 301.603,-528.993 266.397,-555.007 247,-524 224.254,-487.6396 204.1111,-427.5 247,-427.5"/>
<polygon fill="#000000" stroke="#000000" points="330.9763,-736.8118 320.6903,-733.0107 325.9881,-737.1559 321,-737.5 321,-737.5 321,-737.5 325.9881,-737.1559 321.3097,-741.9893 330.9763,-736.8118 330.9763,-736.8118"/>
<text text-anchor="start" x="328.1475" y="-721.5" font-family="Arial" font-size="10.00" fill="#000000">FOREIGN KEY (function_id) REFERENCES query.function_sig(id) DEFERRABLE INITIALLY DEFERRED</text>
</g>
<!-- query.function_param_def -->
<g id="node3" class="node">
<title>query.function_param_def</title>
<polygon fill="#efefef" stroke="transparent" points="425,-902.5 425,-937.5 775,-937.5 775,-902.5 425,-902.5"/>
<polygon fill="none" stroke="#000000" points="425,-902.5 425,-937.5 775,-937.5 775,-902.5 425,-902.5"/>
<text text-anchor="start" x="431.6828" y="-915.3" font-family="Arial Bold" font-size="18.00" fill="#000000">query.function_param_def</text>
<text text-anchor="start" x="640.7492" y="-915.3" font-family="Arial" font-size="14.00" fill="#000000">    </text>
<text text-anchor="start" x="674.954" y="-915.3" font-family="Arial" font-size="14.00" fill="#666666">[BASE TABLE]</text>
<polygon fill="none" stroke="#000000" points="425,-872.5 425,-902.5 775,-902.5 775,-872.5 425,-872.5"/>
<text text-anchor="start" x="432" y="-883.9" font-family="Arial" font-size="14.00" fill="#000000">id    </text>
<text text-anchor="start" x="477.094" y="-883.9" font-family="Arial" font-size="14.00" fill="#666666">[integer]</text>
<polygon fill="none" stroke="#000000" points="425,-842.5 425,-872.5 775,-872.5 775,-842.5 425,-842.5"/>
<text text-anchor="start" x="432" y="-853.9" font-family="Arial" font-size="14.00" fill="#000000">function_id    </text>
<text text-anchor="start" x="533.8948" y="-853.9" font-family="Arial" font-size="14.00" fill="#666666">[integer]</text>
<polygon fill="none" stroke="#000000" points="425,-812.5 425,-842.5 775,-842.5 775,-812.5 425,-812.5"/>
<text text-anchor="start" x="432" y="-823.9" font-family="Arial" font-size="14.00" fill="#000000">seq_no    </text>
<text text-anchor="start" x="512.1178" y="-823.9" font-family="Arial" font-size="14.00" fill="#666666">[integer]</text>
<polygon fill="none" stroke="#000000" points="425,-782.5 425,-812.5 775,-812.5 775,-782.5 425,-782.5"/>
<text text-anchor="start" x="432" y="-793.9" font-family="Arial" font-size="14.00" fill="#000000">datatype    </text>
<text text-anchor="start" x="519.899" y="-793.9" font-family="Arial" font-size="14.00" fill="#666666">[integer]</text>
</g>
<!-- query.function_param_def&#45;&gt;query.function_sig -->
<g id="edge2" class="edge">
<title>query.function_param_def:function_id&#45;&gt;query.function_sig:id</title>
<path fill="none" stroke="#000000" d="M414.9919,-857.084C245.8018,-842.1032 727.5937,-427.5 534,-427.5"/>
<polygon fill="#000000" stroke="#000000" points="415.0086,-857.0846 424.8131,-861.9961 420.0043,-857.2923 425,-857.5 425,-857.5 425,-857.5 420.0043,-857.2923 425.1869,-853.0039 415.0086,-857.0846 415.0086,-857.0846"/>
<text text-anchor="start" x="431.8665" y="-867.5" font-family="Arial" font-size="10.00" fill="#000000">FOREIGN KEY (function_id) REFERENCES query.function_sig(id) ON DELETE CASCADE DEFERRABLE INITIALLY DEFERRED</text>
</g>
</g>
</svg>
