<?xml version="1.0" encoding="UTF-8" standalone="no"?>
<!DOCTYPE svg PUBLIC "-//W3C//DTD SVG 1.1//EN"
 "http://www.w3.org/Graphics/SVG/1.1/DTD/svg11.dtd">
<!-- Generated by graphviz version 2.40.1 (20161225.0304)
 -->
<!-- Title: query.bind_variable Pages: 1 -->
<svg width="723pt" height="922pt"
 viewBox="0.00 0.00 723.00 922.00" xmlns="http://www.w3.org/2000/svg" xmlns:xlink="http://www.w3.org/1999/xlink">
<g id="graph0" class="graph" transform="scale(1 1) rotate(0) translate(4 918)">
<title>query.bind_variable</title>
<polygon fill="#ffffff" stroke="transparent" points="-4,4 -4,-918 719,-918 719,4 -4,4"/>
<!-- query.bind_variable -->
<g id="node1" class="node">
<title>query.bind_variable</title>
<polygon fill="#efefef" stroke="transparent" points="371,-195.5 371,-230.5 669,-230.5 669,-195.5 371,-195.5"/>
<polygon fill="none" stroke="#000000" points="371,-195.5 371,-230.5 669,-230.5 669,-195.5 371,-195.5"/>
<text text-anchor="start" x="377.6973" y="-208.3" font-family="Arial Bold" font-size="18.00" fill="#000000">query.bind_variable</text>
<text text-anchor="start" x="534.7347" y="-208.3" font-family="Arial" font-size="14.00" fill="#000000">    </text>
<text text-anchor="start" x="568.9395" y="-208.3" font-family="Arial" font-size="14.00" fill="#666666">[BASE TABLE]</text>
<polygon fill="none" stroke="#000000" points="371,-165.5 371,-195.5 669,-195.5 669,-165.5 371,-165.5"/>
<text text-anchor="start" x="378" y="-176.9" font-family="Arial" font-size="14.00" fill="#000000">name </text>
<text text-anchor="start" x="416.899" y="-176.9" font-family="Arial" font-size="14.00" fill="#666666">[text]</text>
<polygon fill="none" stroke="#000000" points="371,-135.5 371,-165.5 669,-165.5 669,-135.5 371,-135.5"/>
<text text-anchor="start" x="378" y="-146.9" font-family="Arial" font-size="14.00" fill="#000000">type </text>
<text text-anchor="start" x="408.3464" y="-146.9" font-family="Arial" font-size="14.00" fill="#666666">[text]</text>
<polygon fill="none" stroke="#000000" points="371,-105.5 371,-135.5 669,-135.5 669,-105.5 371,-105.5"/>
<text text-anchor="start" x="378" y="-116.9" font-family="Arial" font-size="14.00" fill="#000000">description </text>
<text text-anchor="start" x="449.568" y="-116.9" font-family="Arial" font-size="14.00" fill="#666666">[text]</text>
<polygon fill="none" stroke="#000000" points="371,-75.5 371,-105.5 669,-105.5 669,-75.5 371,-75.5"/>
<text text-anchor="start" x="378" y="-86.9" font-family="Arial" font-size="14.00" fill="#000000">default_value </text>
<text text-anchor="start" x="465.1458" y="-86.9" font-family="Arial" font-size="14.00" fill="#666666">[text]</text>
<polygon fill="none" stroke="#000000" points="371,-45.5 371,-75.5 669,-75.5 669,-45.5 371,-45.5"/>
<text text-anchor="start" x="378" y="-56.9" font-family="Arial" font-size="14.00" fill="#000000">label </text>
<text text-anchor="start" x="411.4516" y="-56.9" font-family="Arial" font-size="14.00" fill="#666666">[text]</text>
<polygon fill="none" stroke="#000000" stroke-width="3" points="369.5,-44.5 369.5,-232.5 670.5,-232.5 670.5,-44.5 369.5,-44.5"/>
</g>
<!-- query.expression -->
<g id="node2" class="node">
<title>query.expression</title>
<polygon fill="#efefef" stroke="transparent" points="381,-835.5 381,-870.5 659,-870.5 659,-835.5 381,-835.5"/>
<polygon fill="none" stroke="#000000" points="381,-835.5 381,-870.5 659,-870.5 659,-835.5 381,-835.5"/>
<text text-anchor="start" x="387.7008" y="-848.3" font-family="Arial Bold" font-size="18.00" fill="#000000">query.expression</text>
<text text-anchor="start" x="524.7312" y="-848.3" font-family="Arial" font-size="14.00" fill="#000000">    </text>
<text text-anchor="start" x="558.936" y="-848.3" font-family="Arial" font-size="14.00" fill="#666666">[BASE TABLE]</text>
<polygon fill="none" stroke="#000000" points="381,-805.5 381,-835.5 659,-835.5 659,-805.5 381,-805.5"/>
<text text-anchor="start" x="388" y="-816.9" font-family="Arial" font-size="14.00" fill="#000000">id    </text>
<text text-anchor="start" x="433.094" y="-816.9" font-family="Arial" font-size="14.00" fill="#666666">[integer]</text>
<polygon fill="none" stroke="#000000" points="381,-775.5 381,-805.5 659,-805.5 659,-775.5 381,-775.5"/>
<text text-anchor="start" x="388" y="-786.9" font-family="Arial" font-size="14.00" fill="#000000">type    </text>
<text text-anchor="start" x="448.6606" y="-786.9" font-family="Arial" font-size="14.00" fill="#666666">[text]</text>
<polygon fill="none" stroke="#000000" points="381,-745.5 381,-775.5 659,-775.5 659,-745.5 381,-745.5"/>
<text text-anchor="start" x="388" y="-756.9" font-family="Arial" font-size="14.00" fill="#000000">parenthesize    </text>
<text text-anchor="start" x="502.3408" y="-756.9" font-family="Arial" font-size="14.00" fill="#666666">[boolean]</text>
<polygon fill="none" stroke="#000000" points="381,-715.5 381,-745.5 659,-745.5 659,-715.5 381,-715.5"/>
<text text-anchor="start" x="388" y="-726.9" font-family="Arial" font-size="14.00" fill="#000000">parent_expr    </text>
<text text-anchor="start" x="496.8948" y="-726.9" font-family="Arial" font-size="14.00" fill="#666666">[integer]</text>
<polygon fill="none" stroke="#000000" points="381,-685.5 381,-715.5 659,-715.5 659,-685.5 381,-685.5"/>
<text text-anchor="start" x="388" y="-696.9" font-family="Arial" font-size="14.00" fill="#000000">seq_no    </text>
<text text-anchor="start" x="468.1178" y="-696.9" font-family="Arial" font-size="14.00" fill="#666666">[integer]</text>
<polygon fill="none" stroke="#000000" points="381,-655.5 381,-685.5 659,-685.5 659,-655.5 381,-655.5"/>
<text text-anchor="start" x="388" y="-666.9" font-family="Arial" font-size="14.00" fill="#000000">literal    </text>
<text text-anchor="start" x="455.641" y="-666.9" font-family="Arial" font-size="14.00" fill="#666666">[text]</text>
<polygon fill="none" stroke="#000000" points="381,-625.5 381,-655.5 659,-655.5 659,-625.5 381,-625.5"/>
<text text-anchor="start" x="388" y="-636.9" font-family="Arial" font-size="14.00" fill="#000000">table_alias    </text>
<text text-anchor="start" x="489.1108" y="-636.9" font-family="Arial" font-size="14.00" fill="#666666">[text]</text>
<polygon fill="none" stroke="#000000" points="381,-595.5 381,-625.5 659,-625.5 659,-595.5 381,-595.5"/>
<text text-anchor="start" x="388" y="-606.9" font-family="Arial" font-size="14.00" fill="#000000">column_name    </text>
<text text-anchor="start" x="510.1108" y="-606.9" font-family="Arial" font-size="14.00" fill="#666666">[text]</text>
<polygon fill="none" stroke="#000000" points="381,-565.5 381,-595.5 659,-595.5 659,-565.5 381,-565.5"/>
<text text-anchor="start" x="388" y="-576.9" font-family="Arial" font-size="14.00" fill="#000000">left_operand    </text>
<text text-anchor="start" x="500.014" y="-576.9" font-family="Arial" font-size="14.00" fill="#666666">[integer]</text>
<polygon fill="none" stroke="#000000" points="381,-535.5 381,-565.5 659,-565.5 659,-535.5 381,-535.5"/>
<text text-anchor="start" x="388" y="-546.9" font-family="Arial" font-size="14.00" fill="#000000">operator    </text>
<text text-anchor="start" x="474.3296" y="-546.9" font-family="Arial" font-size="14.00" fill="#666666">[text]</text>
<polygon fill="none" stroke="#000000" points="381,-505.5 381,-535.5 659,-535.5 659,-505.5 381,-505.5"/>
<text text-anchor="start" x="388" y="-516.9" font-family="Arial" font-size="14.00" fill="#000000">right_operand    </text>
<text text-anchor="start" x="508.5666" y="-516.9" font-family="Arial" font-size="14.00" fill="#666666">[integer]</text>
<polygon fill="none" stroke="#000000" points="381,-475.5 381,-505.5 659,-505.5 659,-475.5 381,-475.5"/>
<text text-anchor="start" x="388" y="-486.9" font-family="Arial" font-size="14.00" fill="#000000">function_id    </text>
<text text-anchor="start" x="489.8948" y="-486.9" font-family="Arial" font-size="14.00" fill="#666666">[integer]</text>
<polygon fill="none" stroke="#000000" points="381,-445.5 381,-475.5 659,-475.5 659,-445.5 381,-445.5"/>
<text text-anchor="start" x="388" y="-456.9" font-family="Arial" font-size="14.00" fill="#000000">subquery    </text>
<text text-anchor="start" x="479.7784" y="-456.9" font-family="Arial" font-size="14.00" fill="#666666">[integer]</text>
<polygon fill="none" stroke="#000000" points="381,-415.5 381,-445.5 659,-445.5 659,-415.5 381,-415.5"/>
<text text-anchor="start" x="388" y="-426.9" font-family="Arial" font-size="14.00" fill="#000000">cast_type    </text>
<text text-anchor="start" x="482.1164" y="-426.9" font-family="Arial" font-size="14.00" fill="#666666">[integer]</text>
<polygon fill="none" stroke="#000000" points="381,-385.5 381,-415.5 659,-415.5 659,-385.5 381,-385.5"/>
<text text-anchor="start" x="388" y="-396.9" font-family="Arial" font-size="14.00" fill="#000000">negate    </text>
<text text-anchor="start" x="465.0084" y="-396.9" font-family="Arial" font-size="14.00" fill="#666666">[boolean]</text>
<polygon fill="none" stroke="#000000" points="381,-355.5 381,-385.5 659,-385.5 659,-355.5 381,-355.5"/>
<text text-anchor="start" x="388" y="-366.9" font-family="Arial" font-size="14.00" fill="#000000">bind_variable    </text>
<text text-anchor="start" x="505.446" y="-366.9" font-family="Arial" font-size="14.00" fill="#666666">[text]</text>
</g>
<!-- query.expression&#45;&gt;query.bind_variable -->
<g id="edge1" class="edge">
<title>query.expression:bind_variable&#45;&gt;query.bind_variable:name</title>
<path fill="none" stroke="#000000" d="M520.7679,-345.473C530.6033,-286.2545 632.2156,-337.957 669,-277 691.1592,-240.2791 711.8889,-180.5 669,-180.5"/>
<polygon fill="#000000" stroke="#000000" points="520.7637,-345.5292 515.5131,-355.1563 520.3819,-350.5146 520,-355.5 520,-355.5 520,-355.5 520.3819,-350.5146 524.4869,-355.8437 520.7637,-345.5292 520.7637,-345.5292"/>
<text text-anchor="start" x="6.9255" y="-365.5" font-family="Arial" font-size="10.00" fill="#000000">FOREIGN KEY (bind_variable) REFERENCES query.bind_variable(name) DEFERRABLE INITIALLY DEFERRED</text>
</g>
</g>
</svg>
