<?xml version="1.0" encoding="UTF-8" standalone="no"?>
<!DOCTYPE svg PUBLIC "-//W3C//DTD SVG 1.1//EN"
 "http://www.w3.org/Graphics/SVG/1.1/DTD/svg11.dtd">
<!-- Generated by graphviz version 2.40.1 (20161225.0304)
 -->
<!-- Title: query.function_param_def Pages: 1 -->
<svg width="1414pt" height="532pt"
 viewBox="0.00 0.00 1414.00 532.00" xmlns="http://www.w3.org/2000/svg" xmlns:xlink="http://www.w3.org/1999/xlink">
<g id="graph0" class="graph" transform="scale(1 1) rotate(0) translate(4 528)">
<title>query.function_param_def</title>
<polygon fill="#ffffff" stroke="transparent" points="-4,4 -4,-528 1410,-528 1410,4 -4,4"/>
<!-- query.function_param_def -->
<g id="node1" class="node">
<title>query.function_param_def</title>
<polygon fill="#efefef" stroke="transparent" points="596,-442.5 596,-477.5 946,-477.5 946,-442.5 596,-442.5"/>
<polygon fill="none" stroke="#000000" points="596,-442.5 596,-477.5 946,-477.5 946,-442.5 596,-442.5"/>
<text text-anchor="start" x="602.6828" y="-455.3" font-family="Arial Bold" font-size="18.00" fill="#000000">query.function_param_def</text>
<text text-anchor="start" x="811.7492" y="-455.3" font-family="Arial" font-size="14.00" fill="#000000">    </text>
<text text-anchor="start" x="845.954" y="-455.3" font-family="Arial" font-size="14.00" fill="#666666">[BASE TABLE]</text>
<polygon fill="none" stroke="#000000" points="596,-412.5 596,-442.5 946,-442.5 946,-412.5 596,-412.5"/>
<text text-anchor="start" x="603" y="-423.9" font-family="Arial" font-size="14.00" fill="#000000">id </text>
<text text-anchor="start" x="617.7798" y="-423.9" font-family="Arial" font-size="14.00" fill="#666666">[integer]</text>
<polygon fill="none" stroke="#000000" points="596,-382.5 596,-412.5 946,-412.5 946,-382.5 596,-382.5"/>
<text text-anchor="start" x="603" y="-393.9" font-family="Arial" font-size="14.00" fill="#000000">function_id </text>
<text text-anchor="start" x="674.5806" y="-393.9" font-family="Arial" font-size="14.00" fill="#666666">[integer]</text>
<polygon fill="none" stroke="#000000" points="596,-352.5 596,-382.5 946,-382.5 946,-352.5 596,-352.5"/>
<text text-anchor="start" x="603" y="-363.9" font-family="Arial" font-size="14.00" fill="#000000">seq_no </text>
<text text-anchor="start" x="652.8036" y="-363.9" font-family="Arial" font-size="14.00" fill="#666666">[integer]</text>
<polygon fill="none" stroke="#000000" points="596,-322.5 596,-352.5 946,-352.5 946,-322.5 596,-322.5"/>
<text text-anchor="start" x="603" y="-333.9" font-family="Arial" font-size="14.00" fill="#000000">datatype </text>
<text text-anchor="start" x="660.5848" y="-333.9" font-family="Arial" font-size="14.00" fill="#666666">[integer]</text>
<polygon fill="none" stroke="#000000" stroke-width="3" points="594.5,-321.5 594.5,-479.5 947.5,-479.5 947.5,-321.5 594.5,-321.5"/>
</g>
<!-- query.function_sig -->
<g id="node2" class="node">
<title>query.function_sig</title>
<polygon fill="#efefef" stroke="transparent" points="439,-162.5 439,-197.5 726,-197.5 726,-162.5 439,-162.5"/>
<polygon fill="none" stroke="#000000" points="439,-162.5 439,-197.5 726,-197.5 726,-162.5 439,-162.5"/>
<text text-anchor="start" x="445.6945" y="-175.3" font-family="Arial Bold" font-size="18.00" fill="#000000">query.function_sig</text>
<text text-anchor="start" x="591.7375" y="-175.3" font-family="Arial" font-size="14.00" fill="#000000">    </text>
<text text-anchor="start" x="625.9423" y="-175.3" font-family="Arial" font-size="14.00" fill="#666666">[BASE TABLE]</text>
<polygon fill="none" stroke="#000000" points="439,-132.5 439,-162.5 726,-162.5 726,-132.5 439,-132.5"/>
<text text-anchor="start" x="446" y="-143.9" font-family="Arial" font-size="14.00" fill="#000000">id    </text>
<text text-anchor="start" x="491.094" y="-143.9" font-family="Arial" font-size="14.00" fill="#666666">[integer]</text>
<polygon fill="none" stroke="#000000" points="439,-102.5 439,-132.5 726,-132.5 726,-102.5 439,-102.5"/>
<text text-anchor="start" x="446" y="-113.9" font-family="Arial" font-size="14.00" fill="#000000">function_name    </text>
<text text-anchor="start" x="572.014" y="-113.9" font-family="Arial" font-size="14.00" fill="#666666">[text]</text>
<polygon fill="none" stroke="#000000" points="439,-72.5 439,-102.5 726,-102.5 726,-72.5 439,-72.5"/>
<text text-anchor="start" x="446" y="-83.9" font-family="Arial" font-size="14.00" fill="#000000">return_type    </text>
<text text-anchor="start" x="551.0028" y="-83.9" font-family="Arial" font-size="14.00" fill="#666666">[integer]</text>
<polygon fill="none" stroke="#000000" points="439,-42.5 439,-72.5 726,-72.5 726,-42.5 439,-42.5"/>
<text text-anchor="start" x="446" y="-53.9" font-family="Arial" font-size="14.00" fill="#000000">is_aggregate    </text>
<text text-anchor="start" x="561.1234" y="-53.9" font-family="Arial" font-size="14.00" fill="#666666">[boolean]</text>
</g>
<!-- query.function_param_def&#45;&gt;query.function_sig -->
<g id="edge1" class="edge">
<title>query.function_param_def:function_id&#45;&gt;query.function_sig:id</title>
<path fill="none" stroke="#000000" d="M586.0437,-396.4444C545.3862,-387.0177 565.7917,-316.7105 596,-277 632.2976,-229.2847 689.7024,-288.7153 726,-241 751.1595,-207.9264 767.5556,-147.5 726,-147.5"/>
<polygon fill="#000000" stroke="#000000" points="586.0557,-396.4456 595.5255,-401.9749 591.0279,-396.9728 596,-397.5 596,-397.5 596,-397.5 591.0279,-396.9728 596.4745,-393.0251 586.0557,-396.4456 586.0557,-396.4456"/>
<text text-anchor="start" x="6.8665" y="-407.5" font-family="Arial" font-size="10.00" fill="#000000">FOREIGN KEY (function_id) REFERENCES query.function_sig(id) ON DELETE CASCADE DEFERRABLE INITIALLY DEFERRED</text>
</g>
<!-- query.datatype -->
<g id="node3" class="node">
<title>query.datatype</title>
<polygon fill="#efefef" stroke="transparent" points="830,-162.5 830,-197.5 1090,-197.5 1090,-162.5 830,-162.5"/>
<polygon fill="none" stroke="#000000" points="830,-162.5 830,-197.5 1090,-197.5 1090,-162.5 830,-162.5"/>
<text text-anchor="start" x="836.6918" y="-175.3" font-family="Arial Bold" font-size="18.00" fill="#000000">query.datatype</text>
<text text-anchor="start" x="955.7402" y="-175.3" font-family="Arial" font-size="14.00" fill="#000000">    </text>
<text text-anchor="start" x="989.945" y="-175.3" font-family="Arial" font-size="14.00" fill="#666666">[BASE TABLE]</text>
<polygon fill="none" stroke="#000000" points="830,-132.5 830,-162.5 1090,-162.5 1090,-132.5 830,-132.5"/>
<text text-anchor="start" x="837" y="-143.9" font-family="Arial" font-size="14.00" fill="#000000">id    </text>
<text text-anchor="start" x="882.094" y="-143.9" font-family="Arial" font-size="14.00" fill="#666666">[integer]</text>
<polygon fill="none" stroke="#000000" points="830,-102.5 830,-132.5 1090,-132.5 1090,-102.5 830,-102.5"/>
<text text-anchor="start" x="837" y="-113.9" font-family="Arial" font-size="14.00" fill="#000000">datatype_name    </text>
<text text-anchor="start" x="967.69" y="-113.9" font-family="Arial" font-size="14.00" fill="#666666">[text]</text>
<polygon fill="none" stroke="#000000" points="830,-72.5 830,-102.5 1090,-102.5 1090,-72.5 830,-72.5"/>
<text text-anchor="start" x="837" y="-83.9" font-family="Arial" font-size="14.00" fill="#000000">is_numeric    </text>
<text text-anchor="start" x="938.8696" y="-83.9" font-family="Arial" font-size="14.00" fill="#666666">[boolean]</text>
<polygon fill="none" stroke="#000000" points="830,-42.5 830,-72.5 1090,-72.5 1090,-42.5 830,-42.5"/>
<text text-anchor="start" x="837" y="-53.9" font-family="Arial" font-size="14.00" fill="#000000">is_composite    </text>
<text text-anchor="start" x="952.8822" y="-53.9" font-family="Arial" font-size="14.00" fill="#666666">[boolean]</text>
</g>
<!-- query.function_param_def&#45;&gt;query.datatype -->
<g id="edge2" class="edge">
<title>query.function_param_def:datatype&#45;&gt;query.datatype:id</title>
<path fill="none" stroke="#000000" d="M955.9587,-334.8683C969.3478,-325.7789 959.4566,-295.2659 946,-277 913.9822,-233.5392 862.0178,-284.4608 830,-241 805.3523,-207.5433 788.4444,-147.5 830,-147.5"/>
<polygon fill="#000000" stroke="#000000" points="955.6681,-334.945 944.8502,-333.1494 950.8341,-336.2225 946,-337.5 946,-337.5 946,-337.5 950.8341,-336.2225 947.1498,-341.8506 955.6681,-334.945 955.6681,-334.945"/>
<text text-anchor="start" x="952.6445" y="-347.5" font-family="Arial" font-size="10.00" fill="#000000">FOREIGN KEY (datatype) REFERENCES query.datatype(id) DEFERRABLE INITIALLY DEFERRED</text>
</g>
</g>
</svg>
