<?xml version="1.0" encoding="UTF-8" standalone="no"?>
<!DOCTYPE svg PUBLIC "-//W3C//DTD SVG 1.1//EN"
 "http://www.w3.org/Graphics/SVG/1.1/DTD/svg11.dtd">
<!-- Generated by graphviz version 2.40.1 (20161225.0304)
 -->
<!-- Title: query.datatype Pages: 1 -->
<svg width="2296pt" height="892pt"
 viewBox="0.00 0.00 2296.00 892.00" xmlns="http://www.w3.org/2000/svg" xmlns:xlink="http://www.w3.org/1999/xlink">
<g id="graph0" class="graph" transform="scale(1 1) rotate(0) translate(4 888)">
<title>query.datatype</title>
<polygon fill="#ffffff" stroke="transparent" points="-4,4 -4,-888 2292,-888 2292,4 -4,4"/>
<!-- query.datatype -->
<g id="node1" class="node">
<title>query.datatype</title>
<polygon fill="#efefef" stroke="transparent" points="1095,-165.5 1095,-200.5 1355,-200.5 1355,-165.5 1095,-165.5"/>
<polygon fill="none" stroke="#000000" points="1095,-165.5 1095,-200.5 1355,-200.5 1355,-165.5 1095,-165.5"/>
<text text-anchor="start" x="1101.6918" y="-178.3" font-family="Arial Bold" font-size="18.00" fill="#000000">query.datatype</text>
<text text-anchor="start" x="1220.7402" y="-178.3" font-family="Arial" font-size="14.00" fill="#000000">    </text>
<text text-anchor="start" x="1254.945" y="-178.3" font-family="Arial" font-size="14.00" fill="#666666">[BASE TABLE]</text>
<polygon fill="none" stroke="#000000" points="1095,-135.5 1095,-165.5 1355,-165.5 1355,-135.5 1095,-135.5"/>
<text text-anchor="start" x="1102" y="-146.9" font-family="Arial" font-size="14.00" fill="#000000">id </text>
<text text-anchor="start" x="1116.7798" y="-146.9" font-family="Arial" font-size="14.00" fill="#666666">[integer]</text>
<polygon fill="none" stroke="#000000" points="1095,-105.5 1095,-135.5 1355,-135.5 1355,-105.5 1095,-105.5"/>
<text text-anchor="start" x="1102" y="-116.9" font-family="Arial" font-size="14.00" fill="#000000">datatype_name </text>
<text text-anchor="start" x="1202.3758" y="-116.9" font-family="Arial" font-size="14.00" fill="#666666">[text]</text>
<polygon fill="none" stroke="#000000" points="1095,-75.5 1095,-105.5 1355,-105.5 1355,-75.5 1095,-75.5"/>
<text text-anchor="start" x="1102" y="-86.9" font-family="Arial" font-size="14.00" fill="#000000">is_numeric </text>
<text text-anchor="start" x="1173.5554" y="-86.9" font-family="Arial" font-size="14.00" fill="#666666">[boolean]</text>
<polygon fill="none" stroke="#000000" points="1095,-45.5 1095,-75.5 1355,-75.5 1355,-45.5 1095,-45.5"/>
<text text-anchor="start" x="1102" y="-56.9" font-family="Arial" font-size="14.00" fill="#000000">is_composite </text>
<text text-anchor="start" x="1187.568" y="-56.9" font-family="Arial" font-size="14.00" fill="#666666">[boolean]</text>
<polygon fill="none" stroke="#000000" stroke-width="3" points="1093.5,-44.5 1093.5,-202.5 1356.5,-202.5 1356.5,-44.5 1093.5,-44.5"/>
</g>
<!-- query.expression -->
<g id="node2" class="node">
<title>query.expression</title>
<polygon fill="#efefef" stroke="transparent" points="43,-805.5 43,-840.5 321,-840.5 321,-805.5 43,-805.5"/>
<polygon fill="none" stroke="#000000" points="43,-805.5 43,-840.5 321,-840.5 321,-805.5 43,-805.5"/>
<text text-anchor="start" x="49.7008" y="-818.3" font-family="Arial Bold" font-size="18.00" fill="#000000">query.expression</text>
<text text-anchor="start" x="186.7312" y="-818.3" font-family="Arial" font-size="14.00" fill="#000000">    </text>
<text text-anchor="start" x="220.936" y="-818.3" font-family="Arial" font-size="14.00" fill="#666666">[BASE TABLE]</text>
<polygon fill="none" stroke="#000000" points="43,-775.5 43,-805.5 321,-805.5 321,-775.5 43,-775.5"/>
<text text-anchor="start" x="50" y="-786.9" font-family="Arial" font-size="14.00" fill="#000000">id    </text>
<text text-anchor="start" x="95.094" y="-786.9" font-family="Arial" font-size="14.00" fill="#666666">[integer]</text>
<polygon fill="none" stroke="#000000" points="43,-745.5 43,-775.5 321,-775.5 321,-745.5 43,-745.5"/>
<text text-anchor="start" x="50" y="-756.9" font-family="Arial" font-size="14.00" fill="#000000">type    </text>
<text text-anchor="start" x="110.6606" y="-756.9" font-family="Arial" font-size="14.00" fill="#666666">[text]</text>
<polygon fill="none" stroke="#000000" points="43,-715.5 43,-745.5 321,-745.5 321,-715.5 43,-715.5"/>
<text text-anchor="start" x="50" y="-726.9" font-family="Arial" font-size="14.00" fill="#000000">parenthesize    </text>
<text text-anchor="start" x="164.3408" y="-726.9" font-family="Arial" font-size="14.00" fill="#666666">[boolean]</text>
<polygon fill="none" stroke="#000000" points="43,-685.5 43,-715.5 321,-715.5 321,-685.5 43,-685.5"/>
<text text-anchor="start" x="50" y="-696.9" font-family="Arial" font-size="14.00" fill="#000000">parent_expr    </text>
<text text-anchor="start" x="158.8948" y="-696.9" font-family="Arial" font-size="14.00" fill="#666666">[integer]</text>
<polygon fill="none" stroke="#000000" points="43,-655.5 43,-685.5 321,-685.5 321,-655.5 43,-655.5"/>
<text text-anchor="start" x="50" y="-666.9" font-family="Arial" font-size="14.00" fill="#000000">seq_no    </text>
<text text-anchor="start" x="130.1178" y="-666.9" font-family="Arial" font-size="14.00" fill="#666666">[integer]</text>
<polygon fill="none" stroke="#000000" points="43,-625.5 43,-655.5 321,-655.5 321,-625.5 43,-625.5"/>
<text text-anchor="start" x="50" y="-636.9" font-family="Arial" font-size="14.00" fill="#000000">literal    </text>
<text text-anchor="start" x="117.641" y="-636.9" font-family="Arial" font-size="14.00" fill="#666666">[text]</text>
<polygon fill="none" stroke="#000000" points="43,-595.5 43,-625.5 321,-625.5 321,-595.5 43,-595.5"/>
<text text-anchor="start" x="50" y="-606.9" font-family="Arial" font-size="14.00" fill="#000000">table_alias    </text>
<text text-anchor="start" x="151.1108" y="-606.9" font-family="Arial" font-size="14.00" fill="#666666">[text]</text>
<polygon fill="none" stroke="#000000" points="43,-565.5 43,-595.5 321,-595.5 321,-565.5 43,-565.5"/>
<text text-anchor="start" x="50" y="-576.9" font-family="Arial" font-size="14.00" fill="#000000">column_name    </text>
<text text-anchor="start" x="172.1108" y="-576.9" font-family="Arial" font-size="14.00" fill="#666666">[text]</text>
<polygon fill="none" stroke="#000000" points="43,-535.5 43,-565.5 321,-565.5 321,-535.5 43,-535.5"/>
<text text-anchor="start" x="50" y="-546.9" font-family="Arial" font-size="14.00" fill="#000000">left_operand    </text>
<text text-anchor="start" x="162.014" y="-546.9" font-family="Arial" font-size="14.00" fill="#666666">[integer]</text>
<polygon fill="none" stroke="#000000" points="43,-505.5 43,-535.5 321,-535.5 321,-505.5 43,-505.5"/>
<text text-anchor="start" x="50" y="-516.9" font-family="Arial" font-size="14.00" fill="#000000">operator    </text>
<text text-anchor="start" x="136.3296" y="-516.9" font-family="Arial" font-size="14.00" fill="#666666">[text]</text>
<polygon fill="none" stroke="#000000" points="43,-475.5 43,-505.5 321,-505.5 321,-475.5 43,-475.5"/>
<text text-anchor="start" x="50" y="-486.9" font-family="Arial" font-size="14.00" fill="#000000">right_operand    </text>
<text text-anchor="start" x="170.5666" y="-486.9" font-family="Arial" font-size="14.00" fill="#666666">[integer]</text>
<polygon fill="none" stroke="#000000" points="43,-445.5 43,-475.5 321,-475.5 321,-445.5 43,-445.5"/>
<text text-anchor="start" x="50" y="-456.9" font-family="Arial" font-size="14.00" fill="#000000">function_id    </text>
<text text-anchor="start" x="151.8948" y="-456.9" font-family="Arial" font-size="14.00" fill="#666666">[integer]</text>
<polygon fill="none" stroke="#000000" points="43,-415.5 43,-445.5 321,-445.5 321,-415.5 43,-415.5"/>
<text text-anchor="start" x="50" y="-426.9" font-family="Arial" font-size="14.00" fill="#000000">subquery    </text>
<text text-anchor="start" x="141.7784" y="-426.9" font-family="Arial" font-size="14.00" fill="#666666">[integer]</text>
<polygon fill="none" stroke="#000000" points="43,-385.5 43,-415.5 321,-415.5 321,-385.5 43,-385.5"/>
<text text-anchor="start" x="50" y="-396.9" font-family="Arial" font-size="14.00" fill="#000000">cast_type    </text>
<text text-anchor="start" x="144.1164" y="-396.9" font-family="Arial" font-size="14.00" fill="#666666">[integer]</text>
<polygon fill="none" stroke="#000000" points="43,-355.5 43,-385.5 321,-385.5 321,-355.5 43,-355.5"/>
<text text-anchor="start" x="50" y="-366.9" font-family="Arial" font-size="14.00" fill="#000000">negate    </text>
<text text-anchor="start" x="127.0084" y="-366.9" font-family="Arial" font-size="14.00" fill="#666666">[boolean]</text>
<polygon fill="none" stroke="#000000" points="43,-325.5 43,-355.5 321,-355.5 321,-325.5 43,-325.5"/>
<text text-anchor="start" x="50" y="-336.9" font-family="Arial" font-size="14.00" fill="#000000">bind_variable    </text>
<text text-anchor="start" x="167.446" y="-336.9" font-family="Arial" font-size="14.00" fill="#666666">[text]</text>
</g>
<!-- query.expression&#45;&gt;query.datatype -->
<g id="edge1" class="edge">
<title>query.expression:cast_type&#45;&gt;query.datatype:id</title>
<path fill="none" stroke="#000000" d="M331.0198,-399.4512C371.8921,-389.7978 331.1384,-316.0171 373,-283 501.08,-181.9806 931.8761,-150.5 1095,-150.5"/>
<polygon fill="#000000" stroke="#000000" points="330.9457,-399.4588 320.5315,-396.0245 325.9728,-399.9794 321,-400.5 321,-400.5 321,-400.5 325.9728,-399.9794 321.4685,-404.9755 330.9457,-399.4588 330.9457,-399.4588"/>
<text text-anchor="start" x="328.424" y="-410.5" font-family="Arial" font-size="10.00" fill="#000000">FOREIGN KEY (cast_type) REFERENCES query.datatype(id) DEFERRABLE INITIALLY DEFERRED</text>
</g>
<!-- query.function_param_def -->
<g id="node3" class="node">
<title>query.function_param_def</title>
<polygon fill="#efefef" stroke="transparent" points="425,-625.5 425,-660.5 775,-660.5 775,-625.5 425,-625.5"/>
<polygon fill="none" stroke="#000000" points="425,-625.5 425,-660.5 775,-660.5 775,-625.5 425,-625.5"/>
<text text-anchor="start" x="431.6828" y="-638.3" font-family="Arial Bold" font-size="18.00" fill="#000000">query.function_param_def</text>
<text text-anchor="start" x="640.7492" y="-638.3" font-family="Arial" font-size="14.00" fill="#000000">    </text>
<text text-anchor="start" x="674.954" y="-638.3" font-family="Arial" font-size="14.00" fill="#666666">[BASE TABLE]</text>
<polygon fill="none" stroke="#000000" points="425,-595.5 425,-625.5 775,-625.5 775,-595.5 425,-595.5"/>
<text text-anchor="start" x="432" y="-606.9" font-family="Arial" font-size="14.00" fill="#000000">id    </text>
<text text-anchor="start" x="477.094" y="-606.9" font-family="Arial" font-size="14.00" fill="#666666">[integer]</text>
<polygon fill="none" stroke="#000000" points="425,-565.5 425,-595.5 775,-595.5 775,-565.5 425,-565.5"/>
<text text-anchor="start" x="432" y="-576.9" font-family="Arial" font-size="14.00" fill="#000000">function_id    </text>
<text text-anchor="start" x="533.8948" y="-576.9" font-family="Arial" font-size="14.00" fill="#666666">[integer]</text>
<polygon fill="none" stroke="#000000" points="425,-535.5 425,-565.5 775,-565.5 775,-535.5 425,-535.5"/>
<text text-anchor="start" x="432" y="-546.9" font-family="Arial" font-size="14.00" fill="#000000">seq_no    </text>
<text text-anchor="start" x="512.1178" y="-546.9" font-family="Arial" font-size="14.00" fill="#666666">[integer]</text>
<polygon fill="none" stroke="#000000" points="425,-505.5 425,-535.5 775,-535.5 775,-505.5 425,-505.5"/>
<text text-anchor="start" x="432" y="-516.9" font-family="Arial" font-size="14.00" fill="#000000">datatype    </text>
<text text-anchor="start" x="519.899" y="-516.9" font-family="Arial" font-size="14.00" fill="#666666">[integer]</text>
</g>
<!-- query.function_param_def&#45;&gt;query.datatype -->
<g id="edge2" class="edge">
<title>query.function_param_def:datatype&#45;&gt;query.datatype:id</title>
<path fill="none" stroke="#000000" d="M785.0159,-520.0041C875.1223,-510.4555 762.6528,-365.2985 827,-283 908.8434,-178.3242 962.1265,-150.5 1095,-150.5"/>
<polygon fill="#000000" stroke="#000000" points="784.9878,-520.0054 774.7774,-516.0055 779.9939,-520.2527 775,-520.5 775,-520.5 775,-520.5 779.9939,-520.2527 775.2226,-524.9945 784.9878,-520.0054 784.9878,-520.0054"/>
<text text-anchor="start" x="551.6445" y="-504.5" font-family="Arial" font-size="10.00" fill="#000000">FOREIGN KEY (datatype) REFERENCES query.datatype(id) DEFERRABLE INITIALLY DEFERRED</text>
</g>
<!-- query.function_sig -->
<g id="node4" class="node">
<title>query.function_sig</title>
<polygon fill="#efefef" stroke="transparent" points="880,-625.5 880,-660.5 1167,-660.5 1167,-625.5 880,-625.5"/>
<polygon fill="none" stroke="#000000" points="880,-625.5 880,-660.5 1167,-660.5 1167,-625.5 880,-625.5"/>
<text text-anchor="start" x="886.6945" y="-638.3" font-family="Arial Bold" font-size="18.00" fill="#000000">query.function_sig</text>
<text text-anchor="start" x="1032.7375" y="-638.3" font-family="Arial" font-size="14.00" fill="#000000">    </text>
<text text-anchor="start" x="1066.9423" y="-638.3" font-family="Arial" font-size="14.00" fill="#666666">[BASE TABLE]</text>
<polygon fill="none" stroke="#000000" points="880,-595.5 880,-625.5 1167,-625.5 1167,-595.5 880,-595.5"/>
<text text-anchor="start" x="887" y="-606.9" font-family="Arial" font-size="14.00" fill="#000000">id    </text>
<text text-anchor="start" x="932.094" y="-606.9" font-family="Arial" font-size="14.00" fill="#666666">[integer]</text>
<polygon fill="none" stroke="#000000" points="880,-565.5 880,-595.5 1167,-595.5 1167,-565.5 880,-565.5"/>
<text text-anchor="start" x="887" y="-576.9" font-family="Arial" font-size="14.00" fill="#000000">function_name    </text>
<text text-anchor="start" x="1013.014" y="-576.9" font-family="Arial" font-size="14.00" fill="#666666">[text]</text>
<polygon fill="none" stroke="#000000" points="880,-535.5 880,-565.5 1167,-565.5 1167,-535.5 880,-535.5"/>
<text text-anchor="start" x="887" y="-546.9" font-family="Arial" font-size="14.00" fill="#000000">return_type    </text>
<text text-anchor="start" x="992.0028" y="-546.9" font-family="Arial" font-size="14.00" fill="#666666">[integer]</text>
<polygon fill="none" stroke="#000000" points="880,-505.5 880,-535.5 1167,-535.5 1167,-505.5 880,-505.5"/>
<text text-anchor="start" x="887" y="-516.9" font-family="Arial" font-size="14.00" fill="#000000">is_aggregate    </text>
<text text-anchor="start" x="1002.1234" y="-516.9" font-family="Arial" font-size="14.00" fill="#666666">[boolean]</text>
</g>
<!-- query.function_sig&#45;&gt;query.datatype -->
<g id="edge3" class="edge">
<title>query.function_sig:return_type&#45;&gt;query.datatype:id</title>
<path fill="none" stroke="#000000" d="M1177.3493,-550.0022C1330.1222,-534.262 918.0696,-150.5 1095,-150.5"/>
<polygon fill="#000000" stroke="#000000" points="1176.9885,-550.0195 1166.7838,-546.0052 1171.9942,-550.2597 1167,-550.5 1167,-550.5 1167,-550.5 1171.9942,-550.2597 1167.2162,-554.9948 1176.9885,-550.0195 1176.9885,-550.0195"/>
<text text-anchor="start" x="1173.536" y="-560.5" font-family="Arial" font-size="10.00" fill="#000000">FOREIGN KEY (return_type) REFERENCES query.datatype(id) DEFERRABLE INITIALLY DEFERRED</text>
</g>
<!-- query.record_column -->
<g id="node5" class="node">
<title>query.record_column</title>
<polygon fill="#efefef" stroke="transparent" points="1271,-640.5 1271,-675.5 1581,-675.5 1581,-640.5 1271,-640.5"/>
<polygon fill="none" stroke="#000000" points="1271,-640.5 1271,-675.5 1581,-675.5 1581,-640.5 1271,-640.5"/>
<text text-anchor="start" x="1277.7024" y="-653.3" font-family="Arial Bold" font-size="18.00" fill="#000000">query.record_column</text>
<text text-anchor="start" x="1446.7296" y="-653.3" font-family="Arial" font-size="14.00" fill="#000000">    </text>
<text text-anchor="start" x="1480.9344" y="-653.3" font-family="Arial" font-size="14.00" fill="#666666">[BASE TABLE]</text>
<polygon fill="none" stroke="#000000" points="1271,-610.5 1271,-640.5 1581,-640.5 1581,-610.5 1271,-610.5"/>
<text text-anchor="start" x="1278" y="-621.9" font-family="Arial" font-size="14.00" fill="#000000">id    </text>
<text text-anchor="start" x="1323.094" y="-621.9" font-family="Arial" font-size="14.00" fill="#666666">[integer]</text>
<polygon fill="none" stroke="#000000" points="1271,-580.5 1271,-610.5 1581,-610.5 1581,-580.5 1271,-580.5"/>
<text text-anchor="start" x="1278" y="-591.9" font-family="Arial" font-size="14.00" fill="#000000">from_relation    </text>
<text text-anchor="start" x="1393.8766" y="-591.9" font-family="Arial" font-size="14.00" fill="#666666">[integer]</text>
<polygon fill="none" stroke="#000000" points="1271,-550.5 1271,-580.5 1581,-580.5 1581,-550.5 1271,-550.5"/>
<text text-anchor="start" x="1278" y="-561.9" font-family="Arial" font-size="14.00" fill="#000000">seq_no    </text>
<text text-anchor="start" x="1358.1178" y="-561.9" font-family="Arial" font-size="14.00" fill="#666666">[integer]</text>
<polygon fill="none" stroke="#000000" points="1271,-520.5 1271,-550.5 1581,-550.5 1581,-520.5 1271,-520.5"/>
<text text-anchor="start" x="1278" y="-531.9" font-family="Arial" font-size="14.00" fill="#000000">column_name    </text>
<text text-anchor="start" x="1400.1108" y="-531.9" font-family="Arial" font-size="14.00" fill="#666666">[text]</text>
<polygon fill="none" stroke="#000000" points="1271,-490.5 1271,-520.5 1581,-520.5 1581,-490.5 1271,-490.5"/>
<text text-anchor="start" x="1278" y="-501.9" font-family="Arial" font-size="14.00" fill="#000000">column_type    </text>
<text text-anchor="start" x="1391.5582" y="-501.9" font-family="Arial" font-size="14.00" fill="#666666">[integer]</text>
</g>
<!-- query.record_column&#45;&gt;query.datatype -->
<g id="edge4" class="edge">
<title>query.record_column:column_type&#45;&gt;query.datatype:id</title>
<path fill="none" stroke="#000000" d="M1260.9253,-504.9708C1126.9179,-489.7318 1513.4928,-150.5 1355,-150.5"/>
<polygon fill="#000000" stroke="#000000" points="1261.0138,-504.9753 1270.7639,-509.9938 1266.0069,-505.2377 1271,-505.5 1271,-505.5 1271,-505.5 1266.0069,-505.2377 1271.2361,-501.0062 1261.0138,-504.9753 1261.0138,-504.9753"/>
<text text-anchor="start" x="1278.1995" y="-515.5" font-family="Arial" font-size="10.00" fill="#000000">FOREIGN KEY (column_type) REFERENCES query.datatype(id) ON DELETE CASCADE DEFERRABLE INITIALLY DEFERRED</text>
</g>
<!-- query.subfield -->
<g id="node6" class="node">
<title>query.subfield</title>
<polygon fill="#efefef" stroke="transparent" points="1686,-625.5 1686,-660.5 1939,-660.5 1939,-625.5 1686,-625.5"/>
<polygon fill="none" stroke="#000000" points="1686,-625.5 1686,-660.5 1939,-660.5 1939,-625.5 1686,-625.5"/>
<text text-anchor="start" x="1692.7018" y="-638.3" font-family="Arial Bold" font-size="18.00" fill="#000000">query.subfield</text>
<text text-anchor="start" x="1804.7302" y="-638.3" font-family="Arial" font-size="14.00" fill="#000000">    </text>
<text text-anchor="start" x="1838.935" y="-638.3" font-family="Arial" font-size="14.00" fill="#666666">[BASE TABLE]</text>
<polygon fill="none" stroke="#000000" points="1686,-595.5 1686,-625.5 1939,-625.5 1939,-595.5 1686,-595.5"/>
<text text-anchor="start" x="1693" y="-606.9" font-family="Arial" font-size="14.00" fill="#000000">id    </text>
<text text-anchor="start" x="1738.094" y="-606.9" font-family="Arial" font-size="14.00" fill="#666666">[integer]</text>
<polygon fill="none" stroke="#000000" points="1686,-565.5 1686,-595.5 1939,-595.5 1939,-565.5 1686,-565.5"/>
<text text-anchor="start" x="1693" y="-576.9" font-family="Arial" font-size="14.00" fill="#000000">composite_type    </text>
<text text-anchor="start" x="1825.2314" y="-576.9" font-family="Arial" font-size="14.00" fill="#666666">[integer]</text>
<polygon fill="none" stroke="#000000" points="1686,-535.5 1686,-565.5 1939,-565.5 1939,-535.5 1686,-535.5"/>
<text text-anchor="start" x="1693" y="-546.9" font-family="Arial" font-size="14.00" fill="#000000">seq_no    </text>
<text text-anchor="start" x="1773.1178" y="-546.9" font-family="Arial" font-size="14.00" fill="#666666">[integer]</text>
<polygon fill="none" stroke="#000000" points="1686,-505.5 1686,-535.5 1939,-535.5 1939,-505.5 1686,-505.5"/>
<text text-anchor="start" x="1693" y="-516.9" font-family="Arial" font-size="14.00" fill="#000000">subfield_type    </text>
<text text-anchor="start" x="1809.6774" y="-516.9" font-family="Arial" font-size="14.00" fill="#666666">[integer]</text>
</g>
<!-- query.subfield&#45;&gt;query.datatype -->
<g id="edge5" class="edge">
<title>query.subfield:composite_type&#45;&gt;query.datatype:id</title>
<path fill="none" stroke="#000000" d="M1676.0419,-578.3811C1624.5618,-554.3731 1671.4759,-333.4903 1633,-283 1550.0402,-174.1352 1491.8718,-150.5 1355,-150.5"/>
<polygon fill="#000000" stroke="#000000" points="1676.219,-578.4187 1685.0634,-584.9015 1681.1095,-579.4593 1686,-580.5 1686,-580.5 1686,-580.5 1681.1095,-579.4593 1686.9366,-576.0985 1676.219,-578.4187 1676.219,-578.4187"/>
<text text-anchor="start" x="1692.5305" y="-590.5" font-family="Arial" font-size="10.00" fill="#000000">FOREIGN KEY (composite_type) REFERENCES query.datatype(id) ON DELETE CASCADE DEFERRABLE INITIALLY DEFERRED</text>
</g>
<!-- query.subfield&#45;&gt;query.datatype -->
<g id="edge6" class="edge">
<title>query.subfield:subfield_type&#45;&gt;query.datatype:id</title>
<path fill="none" stroke="#000000" d="M1675.9747,-520.0024C1585.7767,-510.4207 1698.1596,-364.7754 1633,-283 1547.7051,-175.9549 1491.8718,-150.5 1355,-150.5"/>
<polygon fill="#000000" stroke="#000000" points="1676.0123,-520.0041 1685.7769,-524.9945 1681.0061,-520.2521 1686,-520.5 1686,-520.5 1686,-520.5 1681.0061,-520.2521 1686.2231,-516.0055 1676.0123,-520.0041 1676.0123,-520.0041"/>
<text text-anchor="start" x="1693.3665" y="-530.5" font-family="Arial" font-size="10.00" fill="#000000">FOREIGN KEY (subfield_type) REFERENCES query.datatype(id) DEFERRABLE INITIALLY DEFERRED</text>
</g>
</g>
</svg>
