<?xml version="1.0" encoding="UTF-8" standalone="no"?>
<!DOCTYPE svg PUBLIC "-//W3C//DTD SVG 1.1//EN"
 "http://www.w3.org/Graphics/SVG/1.1/DTD/svg11.dtd">
<!-- Generated by graphviz version 2.40.1 (20161225.0304)
 -->
<!-- Title: query.record_column Pages: 1 -->
<svg width="1518pt" height="772pt"
 viewBox="0.00 0.00 1518.00 772.00" xmlns="http://www.w3.org/2000/svg" xmlns:xlink="http://www.w3.org/1999/xlink">
<g id="graph0" class="graph" transform="scale(1 1) rotate(0) translate(4 768)">
<title>query.record_column</title>
<polygon fill="#ffffff" stroke="transparent" points="-4,4 -4,-768 1514,-768 1514,4 -4,4"/>
<!-- query.record_column -->
<g id="node1" class="node">
<title>query.record_column</title>
<polygon fill="#efefef" stroke="transparent" points="611,-682.5 611,-717.5 921,-717.5 921,-682.5 611,-682.5"/>
<polygon fill="none" stroke="#000000" points="611,-682.5 611,-717.5 921,-717.5 921,-682.5 611,-682.5"/>
<text text-anchor="start" x="617.7024" y="-695.3" font-family="Arial Bold" font-size="18.00" fill="#000000">query.record_column</text>
<text text-anchor="start" x="786.7296" y="-695.3" font-family="Arial" font-size="14.00" fill="#000000">    </text>
<text text-anchor="start" x="820.9344" y="-695.3" font-family="Arial" font-size="14.00" fill="#666666">[BASE TABLE]</text>
<polygon fill="none" stroke="#000000" points="611,-652.5 611,-682.5 921,-682.5 921,-652.5 611,-652.5"/>
<text text-anchor="start" x="618" y="-663.9" font-family="Arial" font-size="14.00" fill="#000000">id </text>
<text text-anchor="start" x="632.7798" y="-663.9" font-family="Arial" font-size="14.00" fill="#666666">[integer]</text>
<polygon fill="none" stroke="#000000" points="611,-622.5 611,-652.5 921,-652.5 921,-622.5 611,-622.5"/>
<text text-anchor="start" x="618" y="-633.9" font-family="Arial" font-size="14.00" fill="#000000">from_relation </text>
<text text-anchor="start" x="703.5624" y="-633.9" font-family="Arial" font-size="14.00" fill="#666666">[integer]</text>
<polygon fill="none" stroke="#000000" points="611,-592.5 611,-622.5 921,-622.5 921,-592.5 611,-592.5"/>
<text text-anchor="start" x="618" y="-603.9" font-family="Arial" font-size="14.00" fill="#000000">seq_no </text>
<text text-anchor="start" x="667.8036" y="-603.9" font-family="Arial" font-size="14.00" fill="#666666">[integer]</text>
<polygon fill="none" stroke="#000000" points="611,-562.5 611,-592.5 921,-592.5 921,-562.5 611,-562.5"/>
<text text-anchor="start" x="618" y="-573.9" font-family="Arial" font-size="14.00" fill="#000000">column_name </text>
<text text-anchor="start" x="709.7966" y="-573.9" font-family="Arial" font-size="14.00" fill="#666666">[text]</text>
<polygon fill="none" stroke="#000000" points="611,-532.5 611,-562.5 921,-562.5 921,-532.5 611,-532.5"/>
<text text-anchor="start" x="618" y="-543.9" font-family="Arial" font-size="14.00" fill="#000000">column_type </text>
<text text-anchor="start" x="701.244" y="-543.9" font-family="Arial" font-size="14.00" fill="#666666">[integer]</text>
<polygon fill="none" stroke="#000000" stroke-width="3" points="609.5,-531.5 609.5,-719.5 922.5,-719.5 922.5,-531.5 609.5,-531.5"/>
</g>
<!-- query.from_relation -->
<g id="node2" class="node">
<title>query.from_relation</title>
<polygon fill="#efefef" stroke="transparent" points="427,-372.5 427,-407.5 723,-407.5 723,-372.5 427,-372.5"/>
<polygon fill="none" stroke="#000000" points="427,-372.5 427,-407.5 723,-407.5 723,-372.5 427,-372.5"/>
<text text-anchor="start" x="433.7062" y="-385.3" font-family="Arial Bold" font-size="18.00" fill="#000000">query.from_relation</text>
<text text-anchor="start" x="588.7258" y="-385.3" font-family="Arial" font-size="14.00" fill="#000000">    </text>
<text text-anchor="start" x="622.9306" y="-385.3" font-family="Arial" font-size="14.00" fill="#666666">[BASE TABLE]</text>
<polygon fill="none" stroke="#000000" points="427,-342.5 427,-372.5 723,-372.5 723,-342.5 427,-342.5"/>
<text text-anchor="start" x="434" y="-353.9" font-family="Arial" font-size="14.00" fill="#000000">id    </text>
<text text-anchor="start" x="479.094" y="-353.9" font-family="Arial" font-size="14.00" fill="#666666">[integer]</text>
<polygon fill="none" stroke="#000000" points="427,-312.5 427,-342.5 723,-342.5 723,-312.5 427,-312.5"/>
<text text-anchor="start" x="434" y="-323.9" font-family="Arial" font-size="14.00" fill="#000000">type    </text>
<text text-anchor="start" x="494.6606" y="-323.9" font-family="Arial" font-size="14.00" fill="#666666">[text]</text>
<polygon fill="none" stroke="#000000" points="427,-282.5 427,-312.5 723,-312.5 723,-282.5 427,-282.5"/>
<text text-anchor="start" x="434" y="-293.9" font-family="Arial" font-size="14.00" fill="#000000">table_name    </text>
<text text-anchor="start" x="541.3408" y="-293.9" font-family="Arial" font-size="14.00" fill="#666666">[text]</text>
<polygon fill="none" stroke="#000000" points="427,-252.5 427,-282.5 723,-282.5 723,-252.5 427,-252.5"/>
<text text-anchor="start" x="434" y="-263.9" font-family="Arial" font-size="14.00" fill="#000000">class_name    </text>
<text text-anchor="start" x="542.885" y="-263.9" font-family="Arial" font-size="14.00" fill="#666666">[text]</text>
<polygon fill="none" stroke="#000000" points="427,-222.5 427,-252.5 723,-252.5 723,-222.5 427,-222.5"/>
<text text-anchor="start" x="434" y="-233.9" font-family="Arial" font-size="14.00" fill="#000000">subquery    </text>
<text text-anchor="start" x="525.7784" y="-233.9" font-family="Arial" font-size="14.00" fill="#666666">[integer]</text>
<polygon fill="none" stroke="#000000" points="427,-192.5 427,-222.5 723,-222.5 723,-192.5 427,-192.5"/>
<text text-anchor="start" x="434" y="-203.9" font-family="Arial" font-size="14.00" fill="#000000">function_call    </text>
<text text-anchor="start" x="546.0014" y="-203.9" font-family="Arial" font-size="14.00" fill="#666666">[integer]</text>
<polygon fill="none" stroke="#000000" points="427,-162.5 427,-192.5 723,-192.5 723,-162.5 427,-162.5"/>
<text text-anchor="start" x="434" y="-173.9" font-family="Arial" font-size="14.00" fill="#000000">table_alias    </text>
<text text-anchor="start" x="535.1108" y="-173.9" font-family="Arial" font-size="14.00" fill="#666666">[text]</text>
<polygon fill="none" stroke="#000000" points="427,-132.5 427,-162.5 723,-162.5 723,-132.5 427,-132.5"/>
<text text-anchor="start" x="434" y="-143.9" font-family="Arial" font-size="14.00" fill="#000000">parent_relation    </text>
<text text-anchor="start" x="561.5638" y="-143.9" font-family="Arial" font-size="14.00" fill="#666666">[integer]</text>
<polygon fill="none" stroke="#000000" points="427,-102.5 427,-132.5 723,-132.5 723,-102.5 427,-102.5"/>
<text text-anchor="start" x="434" y="-113.9" font-family="Arial" font-size="14.00" fill="#000000">seq_no    </text>
<text text-anchor="start" x="514.1178" y="-113.9" font-family="Arial" font-size="14.00" fill="#666666">[integer]</text>
<polygon fill="none" stroke="#000000" points="427,-72.5 427,-102.5 723,-102.5 723,-72.5 427,-72.5"/>
<text text-anchor="start" x="434" y="-83.9" font-family="Arial" font-size="14.00" fill="#000000">join_type    </text>
<text text-anchor="start" x="524.2216" y="-83.9" font-family="Arial" font-size="14.00" fill="#666666">[text]</text>
<polygon fill="none" stroke="#000000" points="427,-42.5 427,-72.5 723,-72.5 723,-42.5 427,-42.5"/>
<text text-anchor="start" x="434" y="-53.9" font-family="Arial" font-size="14.00" fill="#000000">on_clause    </text>
<text text-anchor="start" x="532.007" y="-53.9" font-family="Arial" font-size="14.00" fill="#666666">[integer]</text>
</g>
<!-- query.record_column&#45;&gt;query.from_relation -->
<g id="edge1" class="edge">
<title>query.record_column:from_relation&#45;&gt;query.from_relation:id</title>
<path fill="none" stroke="#000000" d="M600.8593,-636.6574C547.1531,-627.0778 573.753,-538.0961 611,-487 641.7998,-444.7484 692.2002,-493.2516 723,-451 747.4788,-417.4195 764.5556,-357.5 723,-357.5"/>
<polygon fill="#000000" stroke="#000000" points="601.0343,-636.6718 610.6273,-641.9845 606.0172,-637.0859 611,-637.5 611,-637.5 611,-637.5 606.0172,-637.0859 611.3727,-633.0155 601.0343,-636.6718 601.0343,-636.6718"/>
<text text-anchor="start" x="7.3795" y="-647.5" font-family="Arial" font-size="10.00" fill="#000000">FOREIGN KEY (from_relation) REFERENCES query.from_relation(id) ON DELETE CASCADE DEFERRABLE INITIALLY DEFERRED</text>
</g>
<!-- query.datatype -->
<g id="node3" class="node">
<title>query.datatype</title>
<polygon fill="#efefef" stroke="transparent" points="827,-267.5 827,-302.5 1087,-302.5 1087,-267.5 827,-267.5"/>
<polygon fill="none" stroke="#000000" points="827,-267.5 827,-302.5 1087,-302.5 1087,-267.5 827,-267.5"/>
<text text-anchor="start" x="833.6918" y="-280.3" font-family="Arial Bold" font-size="18.00" fill="#000000">query.datatype</text>
<text text-anchor="start" x="952.7402" y="-280.3" font-family="Arial" font-size="14.00" fill="#000000">    </text>
<text text-anchor="start" x="986.945" y="-280.3" font-family="Arial" font-size="14.00" fill="#666666">[BASE TABLE]</text>
<polygon fill="none" stroke="#000000" points="827,-237.5 827,-267.5 1087,-267.5 1087,-237.5 827,-237.5"/>
<text text-anchor="start" x="834" y="-248.9" font-family="Arial" font-size="14.00" fill="#000000">id    </text>
<text text-anchor="start" x="879.094" y="-248.9" font-family="Arial" font-size="14.00" fill="#666666">[integer]</text>
<polygon fill="none" stroke="#000000" points="827,-207.5 827,-237.5 1087,-237.5 1087,-207.5 827,-207.5"/>
<text text-anchor="start" x="834" y="-218.9" font-family="Arial" font-size="14.00" fill="#000000">datatype_name    </text>
<text text-anchor="start" x="964.69" y="-218.9" font-family="Arial" font-size="14.00" fill="#666666">[text]</text>
<polygon fill="none" stroke="#000000" points="827,-177.5 827,-207.5 1087,-207.5 1087,-177.5 827,-177.5"/>
<text text-anchor="start" x="834" y="-188.9" font-family="Arial" font-size="14.00" fill="#000000">is_numeric    </text>
<text text-anchor="start" x="935.8696" y="-188.9" font-family="Arial" font-size="14.00" fill="#666666">[boolean]</text>
<polygon fill="none" stroke="#000000" points="827,-147.5 827,-177.5 1087,-177.5 1087,-147.5 827,-147.5"/>
<text text-anchor="start" x="834" y="-158.9" font-family="Arial" font-size="14.00" fill="#000000">is_composite    </text>
<text text-anchor="start" x="949.8822" y="-158.9" font-family="Arial" font-size="14.00" fill="#666666">[boolean]</text>
</g>
<!-- query.record_column&#45;&gt;query.datatype -->
<g id="edge2" class="edge">
<title>query.record_column:column_type&#45;&gt;query.datatype:id</title>
<path fill="none" stroke="#000000" d="M930.774,-544.8862C941.927,-536.3358 927.5136,-508.513 921,-487 899.1746,-414.9157 848.8254,-418.0843 827,-346 814.9579,-306.2275 785.4444,-252.5 827,-252.5"/>
<polygon fill="#000000" stroke="#000000" points="930.6605,-544.9164 919.8374,-543.1528 925.8303,-546.2082 921,-547.5 921,-547.5 921,-547.5 925.8303,-546.2082 922.1626,-551.8472 930.6605,-544.9164 930.6605,-544.9164"/>
<text text-anchor="start" x="928.1995" y="-557.5" font-family="Arial" font-size="10.00" fill="#000000">FOREIGN KEY (column_type) REFERENCES query.datatype(id) ON DELETE CASCADE DEFERRABLE INITIALLY DEFERRED</text>
</g>
</g>
</svg>
