<?xml version="1.0" encoding="UTF-8" standalone="no"?>
<!DOCTYPE svg PUBLIC "-//W3C//DTD SVG 1.1//EN"
 "http://www.w3.org/Graphics/SVG/1.1/DTD/svg11.dtd">
<!-- Generated by graphviz version 2.40.1 (20161225.0304)
 -->
<!-- Title: query.order_by_item Pages: 1 -->
<svg width="1516pt" height="892pt"
 viewBox="0.00 0.00 1516.00 892.00" xmlns="http://www.w3.org/2000/svg" xmlns:xlink="http://www.w3.org/1999/xlink">
<g id="graph0" class="graph" transform="scale(1 1) rotate(0) translate(4 888)">
<title>query.order_by_item</title>
<polygon fill="#ffffff" stroke="transparent" points="-4,4 -4,-888 1512,-888 1512,4 -4,4"/>
<!-- query.order_by_item -->
<g id="node1" class="node">
<title>query.order_by_item</title>
<polygon fill="#efefef" stroke="transparent" points="611,-802.5 611,-837.5 917,-837.5 917,-802.5 611,-802.5"/>
<polygon fill="none" stroke="#000000" points="611,-802.5 611,-837.5 917,-837.5 917,-802.5 611,-802.5"/>
<text text-anchor="start" x="617.7013" y="-815.3" font-family="Arial Bold" font-size="18.00" fill="#000000">query.order_by_item</text>
<text text-anchor="start" x="782.7307" y="-815.3" font-family="Arial" font-size="14.00" fill="#000000">    </text>
<text text-anchor="start" x="816.9355" y="-815.3" font-family="Arial" font-size="14.00" fill="#666666">[BASE TABLE]</text>
<polygon fill="none" stroke="#000000" points="611,-772.5 611,-802.5 917,-802.5 917,-772.5 611,-772.5"/>
<text text-anchor="start" x="618" y="-783.9" font-family="Arial" font-size="14.00" fill="#000000">id </text>
<text text-anchor="start" x="632.7798" y="-783.9" font-family="Arial" font-size="14.00" fill="#666666">[integer]</text>
<polygon fill="none" stroke="#000000" points="611,-742.5 611,-772.5 917,-772.5 917,-742.5 611,-742.5"/>
<text text-anchor="start" x="618" y="-753.9" font-family="Arial" font-size="14.00" fill="#000000">stored_query </text>
<text text-anchor="start" x="703.5806" y="-753.9" font-family="Arial" font-size="14.00" fill="#666666">[integer]</text>
<polygon fill="none" stroke="#000000" points="611,-712.5 611,-742.5 917,-742.5 917,-712.5 611,-712.5"/>
<text text-anchor="start" x="618" y="-723.9" font-family="Arial" font-size="14.00" fill="#000000">seq_no </text>
<text text-anchor="start" x="667.8036" y="-723.9" font-family="Arial" font-size="14.00" fill="#666666">[integer]</text>
<polygon fill="none" stroke="#000000" points="611,-682.5 611,-712.5 917,-712.5 917,-682.5 611,-682.5"/>
<text text-anchor="start" x="618" y="-693.9" font-family="Arial" font-size="14.00" fill="#000000">expression </text>
<text text-anchor="start" x="689.5708" y="-693.9" font-family="Arial" font-size="14.00" fill="#666666">[integer]</text>
<polygon fill="none" stroke="#000000" stroke-width="3" points="609.5,-681.5 609.5,-839.5 918.5,-839.5 918.5,-681.5 609.5,-681.5"/>
</g>
<!-- query.stored_query -->
<g id="node2" class="node">
<title>query.stored_query</title>
<polygon fill="#efefef" stroke="transparent" points="421,-417.5 421,-452.5 717,-452.5 717,-417.5 421,-417.5"/>
<polygon fill="none" stroke="#000000" points="421,-417.5 421,-452.5 717,-452.5 717,-417.5 421,-417.5"/>
<text text-anchor="start" x="427.6945" y="-430.3" font-family="Arial Bold" font-size="18.00" fill="#000000">query.stored_query</text>
<text text-anchor="start" x="582.7375" y="-430.3" font-family="Arial" font-size="14.00" fill="#000000">    </text>
<text text-anchor="start" x="616.9423" y="-430.3" font-family="Arial" font-size="14.00" fill="#666666">[BASE TABLE]</text>
<polygon fill="none" stroke="#000000" points="421,-387.5 421,-417.5 717,-417.5 717,-387.5 421,-387.5"/>
<text text-anchor="start" x="428" y="-398.9" font-family="Arial" font-size="14.00" fill="#000000">id    </text>
<text text-anchor="start" x="473.094" y="-398.9" font-family="Arial" font-size="14.00" fill="#666666">[integer]</text>
<polygon fill="none" stroke="#000000" points="421,-357.5 421,-387.5 717,-387.5 717,-357.5 421,-357.5"/>
<text text-anchor="start" x="428" y="-368.9" font-family="Arial" font-size="14.00" fill="#000000">type    </text>
<text text-anchor="start" x="488.6606" y="-368.9" font-family="Arial" font-size="14.00" fill="#666666">[text]</text>
<polygon fill="none" stroke="#000000" points="421,-327.5 421,-357.5 717,-357.5 717,-327.5 421,-327.5"/>
<text text-anchor="start" x="428" y="-338.9" font-family="Arial" font-size="14.00" fill="#000000">use_all    </text>
<text text-anchor="start" x="506.5484" y="-338.9" font-family="Arial" font-size="14.00" fill="#666666">[boolean]</text>
<polygon fill="none" stroke="#000000" points="421,-297.5 421,-327.5 717,-327.5 717,-297.5 421,-297.5"/>
<text text-anchor="start" x="428" y="-308.9" font-family="Arial" font-size="14.00" fill="#000000">use_distinct    </text>
<text text-anchor="start" x="536.1122" y="-308.9" font-family="Arial" font-size="14.00" fill="#666666">[boolean]</text>
<polygon fill="none" stroke="#000000" points="421,-267.5 421,-297.5 717,-297.5 717,-267.5 421,-267.5"/>
<text text-anchor="start" x="428" y="-278.9" font-family="Arial" font-size="14.00" fill="#000000">from_clause    </text>
<text text-anchor="start" x="538.4362" y="-278.9" font-family="Arial" font-size="14.00" fill="#666666">[integer]</text>
<polygon fill="none" stroke="#000000" points="421,-237.5 421,-267.5 717,-267.5 717,-237.5 421,-237.5"/>
<text text-anchor="start" x="428" y="-248.9" font-family="Arial" font-size="14.00" fill="#000000">where_clause    </text>
<text text-anchor="start" x="548.5568" y="-248.9" font-family="Arial" font-size="14.00" fill="#666666">[integer]</text>
<polygon fill="none" stroke="#000000" points="421,-207.5 421,-237.5 717,-237.5 717,-207.5 421,-207.5"/>
<text text-anchor="start" x="428" y="-218.9" font-family="Arial" font-size="14.00" fill="#000000">having_clause    </text>
<text text-anchor="start" x="551.6788" y="-218.9" font-family="Arial" font-size="14.00" fill="#666666">[integer]</text>
<polygon fill="none" stroke="#000000" points="421,-177.5 421,-207.5 717,-207.5 717,-177.5 421,-177.5"/>
<text text-anchor="start" x="428" y="-188.9" font-family="Arial" font-size="14.00" fill="#000000">limit_count    </text>
<text text-anchor="start" x="529.0968" y="-188.9" font-family="Arial" font-size="14.00" fill="#666666">[integer]</text>
<polygon fill="none" stroke="#000000" points="421,-147.5 421,-177.5 717,-177.5 717,-147.5 421,-147.5"/>
<text text-anchor="start" x="428" y="-158.9" font-family="Arial" font-size="14.00" fill="#000000">offset_count    </text>
<text text-anchor="start" x="538.4628" y="-158.9" font-family="Arial" font-size="14.00" fill="#666666">[integer]</text>
</g>
<!-- query.order_by_item&#45;&gt;query.stored_query -->
<g id="edge1" class="edge">
<title>query.order_by_item:stored_query&#45;&gt;query.stored_query:id</title>
<path fill="none" stroke="#000000" d="M601.002,-756.497C562.493,-747.7916 595.2283,-684.2259 611,-637 635.8344,-562.6372 692.1656,-570.3628 717,-496 730.1634,-456.5844 758.5556,-402.5 717,-402.5"/>
<polygon fill="#000000" stroke="#000000" points="601.0499,-756.5017 610.5508,-761.9775 606.025,-757.0009 611,-757.5 611,-757.5 611,-757.5 606.025,-757.0009 611.4492,-753.0225 601.0499,-756.5017 601.0499,-756.5017"/>
<text text-anchor="start" x="7.3665" y="-767.5" font-family="Arial" font-size="10.00" fill="#000000">FOREIGN KEY (stored_query) REFERENCES query.stored_query(id) ON DELETE CASCADE DEFERRABLE INITIALLY DEFERRED</text>
</g>
<!-- query.expression -->
<g id="node3" class="node">
<title>query.expression</title>
<polygon fill="#efefef" stroke="transparent" points="821,-522.5 821,-557.5 1099,-557.5 1099,-522.5 821,-522.5"/>
<polygon fill="none" stroke="#000000" points="821,-522.5 821,-557.5 1099,-557.5 1099,-522.5 821,-522.5"/>
<text text-anchor="start" x="827.7008" y="-535.3" font-family="Arial Bold" font-size="18.00" fill="#000000">query.expression</text>
<text text-anchor="start" x="964.7312" y="-535.3" font-family="Arial" font-size="14.00" fill="#000000">    </text>
<text text-anchor="start" x="998.936" y="-535.3" font-family="Arial" font-size="14.00" fill="#666666">[BASE TABLE]</text>
<polygon fill="none" stroke="#000000" points="821,-492.5 821,-522.5 1099,-522.5 1099,-492.5 821,-492.5"/>
<text text-anchor="start" x="828" y="-503.9" font-family="Arial" font-size="14.00" fill="#000000">id    </text>
<text text-anchor="start" x="873.094" y="-503.9" font-family="Arial" font-size="14.00" fill="#666666">[integer]</text>
<polygon fill="none" stroke="#000000" points="821,-462.5 821,-492.5 1099,-492.5 1099,-462.5 821,-462.5"/>
<text text-anchor="start" x="828" y="-473.9" font-family="Arial" font-size="14.00" fill="#000000">type    </text>
<text text-anchor="start" x="888.6606" y="-473.9" font-family="Arial" font-size="14.00" fill="#666666">[text]</text>
<polygon fill="none" stroke="#000000" points="821,-432.5 821,-462.5 1099,-462.5 1099,-432.5 821,-432.5"/>
<text text-anchor="start" x="828" y="-443.9" font-family="Arial" font-size="14.00" fill="#000000">parenthesize    </text>
<text text-anchor="start" x="942.3408" y="-443.9" font-family="Arial" font-size="14.00" fill="#666666">[boolean]</text>
<polygon fill="none" stroke="#000000" points="821,-402.5 821,-432.5 1099,-432.5 1099,-402.5 821,-402.5"/>
<text text-anchor="start" x="828" y="-413.9" font-family="Arial" font-size="14.00" fill="#000000">parent_expr    </text>
<text text-anchor="start" x="936.8948" y="-413.9" font-family="Arial" font-size="14.00" fill="#666666">[integer]</text>
<polygon fill="none" stroke="#000000" points="821,-372.5 821,-402.5 1099,-402.5 1099,-372.5 821,-372.5"/>
<text text-anchor="start" x="828" y="-383.9" font-family="Arial" font-size="14.00" fill="#000000">seq_no    </text>
<text text-anchor="start" x="908.1178" y="-383.9" font-family="Arial" font-size="14.00" fill="#666666">[integer]</text>
<polygon fill="none" stroke="#000000" points="821,-342.5 821,-372.5 1099,-372.5 1099,-342.5 821,-342.5"/>
<text text-anchor="start" x="828" y="-353.9" font-family="Arial" font-size="14.00" fill="#000000">literal    </text>
<text text-anchor="start" x="895.641" y="-353.9" font-family="Arial" font-size="14.00" fill="#666666">[text]</text>
<polygon fill="none" stroke="#000000" points="821,-312.5 821,-342.5 1099,-342.5 1099,-312.5 821,-312.5"/>
<text text-anchor="start" x="828" y="-323.9" font-family="Arial" font-size="14.00" fill="#000000">table_alias    </text>
<text text-anchor="start" x="929.1108" y="-323.9" font-family="Arial" font-size="14.00" fill="#666666">[text]</text>
<polygon fill="none" stroke="#000000" points="821,-282.5 821,-312.5 1099,-312.5 1099,-282.5 821,-282.5"/>
<text text-anchor="start" x="828" y="-293.9" font-family="Arial" font-size="14.00" fill="#000000">column_name    </text>
<text text-anchor="start" x="950.1108" y="-293.9" font-family="Arial" font-size="14.00" fill="#666666">[text]</text>
<polygon fill="none" stroke="#000000" points="821,-252.5 821,-282.5 1099,-282.5 1099,-252.5 821,-252.5"/>
<text text-anchor="start" x="828" y="-263.9" font-family="Arial" font-size="14.00" fill="#000000">left_operand    </text>
<text text-anchor="start" x="940.014" y="-263.9" font-family="Arial" font-size="14.00" fill="#666666">[integer]</text>
<polygon fill="none" stroke="#000000" points="821,-222.5 821,-252.5 1099,-252.5 1099,-222.5 821,-222.5"/>
<text text-anchor="start" x="828" y="-233.9" font-family="Arial" font-size="14.00" fill="#000000">operator    </text>
<text text-anchor="start" x="914.3296" y="-233.9" font-family="Arial" font-size="14.00" fill="#666666">[text]</text>
<polygon fill="none" stroke="#000000" points="821,-192.5 821,-222.5 1099,-222.5 1099,-192.5 821,-192.5"/>
<text text-anchor="start" x="828" y="-203.9" font-family="Arial" font-size="14.00" fill="#000000">right_operand    </text>
<text text-anchor="start" x="948.5666" y="-203.9" font-family="Arial" font-size="14.00" fill="#666666">[integer]</text>
<polygon fill="none" stroke="#000000" points="821,-162.5 821,-192.5 1099,-192.5 1099,-162.5 821,-162.5"/>
<text text-anchor="start" x="828" y="-173.9" font-family="Arial" font-size="14.00" fill="#000000">function_id    </text>
<text text-anchor="start" x="929.8948" y="-173.9" font-family="Arial" font-size="14.00" fill="#666666">[integer]</text>
<polygon fill="none" stroke="#000000" points="821,-132.5 821,-162.5 1099,-162.5 1099,-132.5 821,-132.5"/>
<text text-anchor="start" x="828" y="-143.9" font-family="Arial" font-size="14.00" fill="#000000">subquery    </text>
<text text-anchor="start" x="919.7784" y="-143.9" font-family="Arial" font-size="14.00" fill="#666666">[integer]</text>
<polygon fill="none" stroke="#000000" points="821,-102.5 821,-132.5 1099,-132.5 1099,-102.5 821,-102.5"/>
<text text-anchor="start" x="828" y="-113.9" font-family="Arial" font-size="14.00" fill="#000000">cast_type    </text>
<text text-anchor="start" x="922.1164" y="-113.9" font-family="Arial" font-size="14.00" fill="#666666">[integer]</text>
<polygon fill="none" stroke="#000000" points="821,-72.5 821,-102.5 1099,-102.5 1099,-72.5 821,-72.5"/>
<text text-anchor="start" x="828" y="-83.9" font-family="Arial" font-size="14.00" fill="#000000">negate    </text>
<text text-anchor="start" x="905.0084" y="-83.9" font-family="Arial" font-size="14.00" fill="#666666">[boolean]</text>
<polygon fill="none" stroke="#000000" points="821,-42.5 821,-72.5 1099,-72.5 1099,-42.5 821,-42.5"/>
<text text-anchor="start" x="828" y="-53.9" font-family="Arial" font-size="14.00" fill="#000000">bind_variable    </text>
<text text-anchor="start" x="945.446" y="-53.9" font-family="Arial" font-size="14.00" fill="#666666">[text]</text>
</g>
<!-- query.order_by_item&#45;&gt;query.expression -->
<g id="edge2" class="edge">
<title>query.order_by_item:expression&#45;&gt;query.expression:id</title>
<path fill="none" stroke="#000000" d="M926.9196,-694.8962C940.1809,-685.8981 929.9227,-655.6474 917,-637 891.0447,-599.5465 846.9553,-638.4535 821,-601 797.3302,-566.8444 779.4444,-507.5 821,-507.5"/>
<polygon fill="#000000" stroke="#000000" points="926.6723,-694.961 915.8575,-693.1474 921.8362,-696.2305 917,-697.5 917,-697.5 917,-697.5 921.8362,-696.2305 918.1425,-701.8526 926.6723,-694.961 926.6723,-694.961"/>
<text text-anchor="start" x="924.3735" y="-707.5" font-family="Arial" font-size="10.00" fill="#000000">FOREIGN KEY (expression) REFERENCES query.expression(id) ON DELETE CASCADE DEFERRABLE INITIALLY DEFERRED</text>
</g>
</g>
</svg>
