<?xml version="1.0" encoding="UTF-8" standalone="no"?>
<!DOCTYPE svg PUBLIC "-//W3C//DTD SVG 1.1//EN"
 "http://www.w3.org/Graphics/SVG/1.1/DTD/svg11.dtd">
<!-- Generated by graphviz version 2.40.1 (20161225.0304)
 -->
<!-- Title: query.case_branch Pages: 1 -->
<svg width="1207pt" height="922pt"
 viewBox="0.00 0.00 1207.00 922.00" xmlns="http://www.w3.org/2000/svg" xmlns:xlink="http://www.w3.org/1999/xlink">
<g id="graph0" class="graph" transform="scale(1 1) rotate(0) translate(4 918)">
<title>query.case_branch</title>
<polygon fill="#ffffff" stroke="transparent" points="-4,4 -4,-918 1203,-918 1203,4 -4,4"/>
<!-- query.case_branch -->
<g id="node1" class="node">
<title>query.case_branch</title>
<polygon fill="#efefef" stroke="transparent" points="309,-832.5 309,-867.5 603,-867.5 603,-832.5 309,-832.5"/>
<polygon fill="none" stroke="#000000" points="309,-832.5 309,-867.5 603,-867.5 603,-832.5 309,-832.5"/>
<text text-anchor="start" x="315.6917" y="-845.3" font-family="Arial Bold" font-size="18.00" fill="#000000">query.case_branch</text>
<text text-anchor="start" x="468.7403" y="-845.3" font-family="Arial" font-size="14.00" fill="#000000">    </text>
<text text-anchor="start" x="502.9451" y="-845.3" font-family="Arial" font-size="14.00" fill="#666666">[BASE TABLE]</text>
<polygon fill="none" stroke="#000000" points="309,-802.5 309,-832.5 603,-832.5 603,-802.5 309,-802.5"/>
<text text-anchor="start" x="316" y="-813.9" font-family="Arial" font-size="14.00" fill="#000000">id </text>
<text text-anchor="start" x="330.7798" y="-813.9" font-family="Arial" font-size="14.00" fill="#666666">[integer]</text>
<polygon fill="none" stroke="#000000" points="309,-772.5 309,-802.5 603,-802.5 603,-772.5 309,-772.5"/>
<text text-anchor="start" x="316" y="-783.9" font-family="Arial" font-size="14.00" fill="#000000">parent_expr </text>
<text text-anchor="start" x="394.5806" y="-783.9" font-family="Arial" font-size="14.00" fill="#666666">[integer]</text>
<polygon fill="none" stroke="#000000" points="309,-742.5 309,-772.5 603,-772.5 603,-742.5 309,-742.5"/>
<text text-anchor="start" x="316" y="-753.9" font-family="Arial" font-size="14.00" fill="#000000">seq_no </text>
<text text-anchor="start" x="365.8036" y="-753.9" font-family="Arial" font-size="14.00" fill="#666666">[integer]</text>
<polygon fill="none" stroke="#000000" points="309,-712.5 309,-742.5 603,-742.5 603,-712.5 309,-712.5"/>
<text text-anchor="start" x="316" y="-723.9" font-family="Arial" font-size="14.00" fill="#000000">condition </text>
<text text-anchor="start" x="375.9074" y="-723.9" font-family="Arial" font-size="14.00" fill="#666666">[integer]</text>
<polygon fill="none" stroke="#000000" points="309,-682.5 309,-712.5 603,-712.5 603,-682.5 309,-682.5"/>
<text text-anchor="start" x="316" y="-693.9" font-family="Arial" font-size="14.00" fill="#000000">result </text>
<text text-anchor="start" x="354.1136" y="-693.9" font-family="Arial" font-size="14.00" fill="#666666">[integer]</text>
<polygon fill="none" stroke="#000000" stroke-width="3" points="307.5,-681.5 307.5,-869.5 604.5,-869.5 604.5,-681.5 307.5,-681.5"/>
</g>
<!-- query.expression -->
<g id="node2" class="node">
<title>query.expression</title>
<polygon fill="#efefef" stroke="transparent" points="317,-522.5 317,-557.5 595,-557.5 595,-522.5 317,-522.5"/>
<polygon fill="none" stroke="#000000" points="317,-522.5 317,-557.5 595,-557.5 595,-522.5 317,-522.5"/>
<text text-anchor="start" x="323.7008" y="-535.3" font-family="Arial Bold" font-size="18.00" fill="#000000">query.expression</text>
<text text-anchor="start" x="460.7312" y="-535.3" font-family="Arial" font-size="14.00" fill="#000000">    </text>
<text text-anchor="start" x="494.936" y="-535.3" font-family="Arial" font-size="14.00" fill="#666666">[BASE TABLE]</text>
<polygon fill="none" stroke="#000000" points="317,-492.5 317,-522.5 595,-522.5 595,-492.5 317,-492.5"/>
<text text-anchor="start" x="324" y="-503.9" font-family="Arial" font-size="14.00" fill="#000000">id    </text>
<text text-anchor="start" x="369.094" y="-503.9" font-family="Arial" font-size="14.00" fill="#666666">[integer]</text>
<polygon fill="none" stroke="#000000" points="317,-462.5 317,-492.5 595,-492.5 595,-462.5 317,-462.5"/>
<text text-anchor="start" x="324" y="-473.9" font-family="Arial" font-size="14.00" fill="#000000">type    </text>
<text text-anchor="start" x="384.6606" y="-473.9" font-family="Arial" font-size="14.00" fill="#666666">[text]</text>
<polygon fill="none" stroke="#000000" points="317,-432.5 317,-462.5 595,-462.5 595,-432.5 317,-432.5"/>
<text text-anchor="start" x="324" y="-443.9" font-family="Arial" font-size="14.00" fill="#000000">parenthesize    </text>
<text text-anchor="start" x="438.3408" y="-443.9" font-family="Arial" font-size="14.00" fill="#666666">[boolean]</text>
<polygon fill="none" stroke="#000000" points="317,-402.5 317,-432.5 595,-432.5 595,-402.5 317,-402.5"/>
<text text-anchor="start" x="324" y="-413.9" font-family="Arial" font-size="14.00" fill="#000000">parent_expr    </text>
<text text-anchor="start" x="432.8948" y="-413.9" font-family="Arial" font-size="14.00" fill="#666666">[integer]</text>
<polygon fill="none" stroke="#000000" points="317,-372.5 317,-402.5 595,-402.5 595,-372.5 317,-372.5"/>
<text text-anchor="start" x="324" y="-383.9" font-family="Arial" font-size="14.00" fill="#000000">seq_no    </text>
<text text-anchor="start" x="404.1178" y="-383.9" font-family="Arial" font-size="14.00" fill="#666666">[integer]</text>
<polygon fill="none" stroke="#000000" points="317,-342.5 317,-372.5 595,-372.5 595,-342.5 317,-342.5"/>
<text text-anchor="start" x="324" y="-353.9" font-family="Arial" font-size="14.00" fill="#000000">literal    </text>
<text text-anchor="start" x="391.641" y="-353.9" font-family="Arial" font-size="14.00" fill="#666666">[text]</text>
<polygon fill="none" stroke="#000000" points="317,-312.5 317,-342.5 595,-342.5 595,-312.5 317,-312.5"/>
<text text-anchor="start" x="324" y="-323.9" font-family="Arial" font-size="14.00" fill="#000000">table_alias    </text>
<text text-anchor="start" x="425.1108" y="-323.9" font-family="Arial" font-size="14.00" fill="#666666">[text]</text>
<polygon fill="none" stroke="#000000" points="317,-282.5 317,-312.5 595,-312.5 595,-282.5 317,-282.5"/>
<text text-anchor="start" x="324" y="-293.9" font-family="Arial" font-size="14.00" fill="#000000">column_name    </text>
<text text-anchor="start" x="446.1108" y="-293.9" font-family="Arial" font-size="14.00" fill="#666666">[text]</text>
<polygon fill="none" stroke="#000000" points="317,-252.5 317,-282.5 595,-282.5 595,-252.5 317,-252.5"/>
<text text-anchor="start" x="324" y="-263.9" font-family="Arial" font-size="14.00" fill="#000000">left_operand    </text>
<text text-anchor="start" x="436.014" y="-263.9" font-family="Arial" font-size="14.00" fill="#666666">[integer]</text>
<polygon fill="none" stroke="#000000" points="317,-222.5 317,-252.5 595,-252.5 595,-222.5 317,-222.5"/>
<text text-anchor="start" x="324" y="-233.9" font-family="Arial" font-size="14.00" fill="#000000">operator    </text>
<text text-anchor="start" x="410.3296" y="-233.9" font-family="Arial" font-size="14.00" fill="#666666">[text]</text>
<polygon fill="none" stroke="#000000" points="317,-192.5 317,-222.5 595,-222.5 595,-192.5 317,-192.5"/>
<text text-anchor="start" x="324" y="-203.9" font-family="Arial" font-size="14.00" fill="#000000">right_operand    </text>
<text text-anchor="start" x="444.5666" y="-203.9" font-family="Arial" font-size="14.00" fill="#666666">[integer]</text>
<polygon fill="none" stroke="#000000" points="317,-162.5 317,-192.5 595,-192.5 595,-162.5 317,-162.5"/>
<text text-anchor="start" x="324" y="-173.9" font-family="Arial" font-size="14.00" fill="#000000">function_id    </text>
<text text-anchor="start" x="425.8948" y="-173.9" font-family="Arial" font-size="14.00" fill="#666666">[integer]</text>
<polygon fill="none" stroke="#000000" points="317,-132.5 317,-162.5 595,-162.5 595,-132.5 317,-132.5"/>
<text text-anchor="start" x="324" y="-143.9" font-family="Arial" font-size="14.00" fill="#000000">subquery    </text>
<text text-anchor="start" x="415.7784" y="-143.9" font-family="Arial" font-size="14.00" fill="#666666">[integer]</text>
<polygon fill="none" stroke="#000000" points="317,-102.5 317,-132.5 595,-132.5 595,-102.5 317,-102.5"/>
<text text-anchor="start" x="324" y="-113.9" font-family="Arial" font-size="14.00" fill="#000000">cast_type    </text>
<text text-anchor="start" x="418.1164" y="-113.9" font-family="Arial" font-size="14.00" fill="#666666">[integer]</text>
<polygon fill="none" stroke="#000000" points="317,-72.5 317,-102.5 595,-102.5 595,-72.5 317,-72.5"/>
<text text-anchor="start" x="324" y="-83.9" font-family="Arial" font-size="14.00" fill="#000000">negate    </text>
<text text-anchor="start" x="401.0084" y="-83.9" font-family="Arial" font-size="14.00" fill="#666666">[boolean]</text>
<polygon fill="none" stroke="#000000" points="317,-42.5 317,-72.5 595,-72.5 595,-42.5 317,-42.5"/>
<text text-anchor="start" x="324" y="-53.9" font-family="Arial" font-size="14.00" fill="#000000">bind_variable    </text>
<text text-anchor="start" x="441.446" y="-53.9" font-family="Arial" font-size="14.00" fill="#666666">[text]</text>
</g>
<!-- query.case_branch&#45;&gt;query.expression -->
<g id="edge1" class="edge">
<title>query.case_branch:parent_expr&#45;&gt;query.expression:id</title>
<path fill="none" stroke="#000000" d="M612.904,-784.9069C664.1673,-756.6795 653.7219,-507.5 595,-507.5"/>
<polygon fill="#000000" stroke="#000000" points="612.6739,-784.9671 601.8602,-783.1467 607.837,-786.2335 603,-787.5 603,-787.5 603,-787.5 607.837,-786.2335 604.1398,-791.8533 612.6739,-784.9671 612.6739,-784.9671"/>
<text text-anchor="start" x="609.87" y="-797.5" font-family="Arial" font-size="10.00" fill="#000000">FOREIGN KEY (parent_expr) REFERENCES query.expression(id) ON DELETE CASCADE DEFERRABLE INITIALLY DEFERRED</text>
</g>
<!-- query.case_branch&#45;&gt;query.expression -->
<g id="edge2" class="edge">
<title>query.case_branch:condition&#45;&gt;query.expression:id</title>
<path fill="none" stroke="#000000" d="M613.1922,-726.6591C700.147,-711.8888 689.3071,-507.5 595,-507.5"/>
<polygon fill="#000000" stroke="#000000" points="612.9661,-726.6776 602.6299,-723.0152 607.9831,-727.0888 603,-727.5 603,-727.5 603,-727.5 607.9831,-727.0888 603.3701,-731.9848 612.9661,-726.6776 612.9661,-726.6776"/>
<text text-anchor="start" x="609.82" y="-737.5" font-family="Arial" font-size="10.00" fill="#000000">FOREIGN KEY (condition) REFERENCES query.expression(id) DEFERRABLE INITIALLY DEFERRED</text>
</g>
<!-- query.case_branch&#45;&gt;query.expression -->
<g id="edge3" class="edge">
<title>query.case_branch:result&#45;&gt;query.expression:id</title>
<path fill="none" stroke="#000000" d="M456.7775,-672.5171C466.3269,-615.8981 561.2091,-659.9837 595,-601 615.6569,-564.9423 636.5556,-507.5 595,-507.5"/>
<polygon fill="#000000" stroke="#000000" points="456.7766,-672.5302 451.5136,-682.1505 456.3883,-677.5151 456,-682.5 456,-682.5 456,-682.5 456.3883,-677.5151 460.4864,-682.8495 456.7766,-672.5302 456.7766,-672.5302"/>
<text text-anchor="start" x="6.6035" y="-692.5" font-family="Arial" font-size="10.00" fill="#000000">FOREIGN KEY (result) REFERENCES query.expression(id) DEFERRABLE INITIALLY DEFERRED</text>
</g>
</g>
</svg>
