<?xml version="1.0" encoding="UTF-8" standalone="no"?>
<!DOCTYPE svg PUBLIC "-//W3C//DTD SVG 1.1//EN"
 "http://www.w3.org/Graphics/SVG/1.1/DTD/svg11.dtd">
<!-- Generated by graphviz version 2.40.1 (20161225.0304)
 -->
<!-- Title: query.expr_xser Pages: 1 -->
<svg width="320pt" height="315pt"
 viewBox="0.00 0.00 320.00 315.00" xmlns="http://www.w3.org/2000/svg" xmlns:xlink="http://www.w3.org/1999/xlink">
<g id="graph0" class="graph" transform="scale(1 1) rotate(0) translate(4 311)">
<title>query.expr_xser</title>
<polygon fill="#ffffff" stroke="transparent" points="-4,4 -4,-311 316,-311 316,4 -4,4"/>
<!-- query.expr_xser -->
<g id="node1" class="node">
<title>query.expr_xser</title>
<polygon fill="#efefef" stroke="transparent" points="46,-225.5 46,-260.5 266,-260.5 266,-225.5 46,-225.5"/>
<polygon fill="none" stroke="#000000" points="46,-225.5 46,-260.5 266,-260.5 266,-225.5 46,-225.5"/>
<text text-anchor="start" x="52.6067" y="-238.3" font-family="Arial Bold" font-size="18.00" fill="#000000">query.expr_xser</text>
<text text-anchor="start" x="181.6289" y="-238.3" font-family="Arial" font-size="14.00" fill="#000000">    </text>
<text text-anchor="start" x="215.8337" y="-238.3" font-family="Arial" font-size="14.00" fill="#666666">[VIEW]</text>
<polygon fill="none" stroke="#000000" points="46,-195.5 46,-225.5 266,-225.5 266,-195.5 46,-195.5"/>
<text text-anchor="start" x="53" y="-206.9" font-family="Arial" font-size="14.00" fill="#000000">id </text>
<text text-anchor="start" x="67.7798" y="-206.9" font-family="Arial" font-size="14.00" fill="#666666">[integer]</text>
<polygon fill="none" stroke="#000000" points="46,-165.5 46,-195.5 266,-195.5 266,-165.5 46,-165.5"/>
<text text-anchor="start" x="53" y="-176.9" font-family="Arial" font-size="14.00" fill="#000000">parenthesize </text>
<text text-anchor="start" x="137.0266" y="-176.9" font-family="Arial" font-size="14.00" fill="#666666">[boolean]</text>
<polygon fill="none" stroke="#000000" points="46,-135.5 46,-165.5 266,-165.5 266,-135.5 46,-135.5"/>
<text text-anchor="start" x="53" y="-146.9" font-family="Arial" font-size="14.00" fill="#000000">parent_expr </text>
<text text-anchor="start" x="131.5806" y="-146.9" font-family="Arial" font-size="14.00" fill="#666666">[integer]</text>
<polygon fill="none" stroke="#000000" points="46,-105.5 46,-135.5 266,-135.5 266,-105.5 46,-105.5"/>
<text text-anchor="start" x="53" y="-116.9" font-family="Arial" font-size="14.00" fill="#000000">seq_no </text>
<text text-anchor="start" x="102.8036" y="-116.9" font-family="Arial" font-size="14.00" fill="#666666">[integer]</text>
<polygon fill="none" stroke="#000000" points="46,-75.5 46,-105.5 266,-105.5 266,-75.5 46,-75.5"/>
<text text-anchor="start" x="53" y="-86.9" font-family="Arial" font-size="14.00" fill="#000000">operator </text>
<text text-anchor="start" x="109.0154" y="-86.9" font-family="Arial" font-size="14.00" fill="#666666">[text]</text>
<polygon fill="none" stroke="#000000" points="46,-45.5 46,-75.5 266,-75.5 266,-45.5 46,-45.5"/>
<text text-anchor="start" x="53" y="-56.9" font-family="Arial" font-size="14.00" fill="#000000">negate </text>
<text text-anchor="start" x="99.6942" y="-56.9" font-family="Arial" font-size="14.00" fill="#666666">[boolean]</text>
<polygon fill="none" stroke="#000000" stroke-width="3" points="44.5,-44.5 44.5,-262.5 267.5,-262.5 267.5,-44.5 44.5,-44.5"/>
</g>
</g>
</svg>
