<?xml version="1.0" encoding="UTF-8" standalone="no"?>
<!DOCTYPE svg PUBLIC "-//W3C//DTD SVG 1.1//EN"
 "http://www.w3.org/Graphics/SVG/1.1/DTD/svg11.dtd">
<!-- Generated by graphviz version 2.40.1 (20161225.0304)
 -->
<!-- Title: query.expr_xfunc Pages: 1 -->
<svg width="329pt" height="345pt"
 viewBox="0.00 0.00 329.00 345.00" xmlns="http://www.w3.org/2000/svg" xmlns:xlink="http://www.w3.org/1999/xlink">
<g id="graph0" class="graph" transform="scale(1 1) rotate(0) translate(4 341)">
<title>query.expr_xfunc</title>
<polygon fill="#ffffff" stroke="transparent" points="-4,4 -4,-341 325,-341 325,4 -4,4"/>
<!-- query.expr_xfunc -->
<g id="node1" class="node">
<title>query.expr_xfunc</title>
<polygon fill="#efefef" stroke="transparent" points="46.5,-255.5 46.5,-290.5 275.5,-290.5 275.5,-255.5 46.5,-255.5"/>
<polygon fill="none" stroke="#000000" points="46.5,-255.5 46.5,-290.5 275.5,-290.5 275.5,-255.5 46.5,-255.5"/>
<text text-anchor="start" x="53.0986" y="-268.3" font-family="Arial Bold" font-size="18.00" fill="#000000">query.expr_xfunc</text>
<text text-anchor="start" x="191.137" y="-268.3" font-family="Arial" font-size="14.00" fill="#000000">    </text>
<text text-anchor="start" x="225.3418" y="-268.3" font-family="Arial" font-size="14.00" fill="#666666">[VIEW]</text>
<polygon fill="none" stroke="#000000" points="46.5,-225.5 46.5,-255.5 275.5,-255.5 275.5,-225.5 46.5,-225.5"/>
<text text-anchor="start" x="53.5" y="-236.9" font-family="Arial" font-size="14.00" fill="#000000">id </text>
<text text-anchor="start" x="68.2798" y="-236.9" font-family="Arial" font-size="14.00" fill="#666666">[integer]</text>
<polygon fill="none" stroke="#000000" points="46.5,-195.5 46.5,-225.5 275.5,-225.5 275.5,-195.5 46.5,-195.5"/>
<text text-anchor="start" x="53.5" y="-206.9" font-family="Arial" font-size="14.00" fill="#000000">parenthesize </text>
<text text-anchor="start" x="137.5266" y="-206.9" font-family="Arial" font-size="14.00" fill="#666666">[boolean]</text>
<polygon fill="none" stroke="#000000" points="46.5,-165.5 46.5,-195.5 275.5,-195.5 275.5,-165.5 46.5,-165.5"/>
<text text-anchor="start" x="53.5" y="-176.9" font-family="Arial" font-size="14.00" fill="#000000">parent_expr </text>
<text text-anchor="start" x="132.0806" y="-176.9" font-family="Arial" font-size="14.00" fill="#666666">[integer]</text>
<polygon fill="none" stroke="#000000" points="46.5,-135.5 46.5,-165.5 275.5,-165.5 275.5,-135.5 46.5,-135.5"/>
<text text-anchor="start" x="53.5" y="-146.9" font-family="Arial" font-size="14.00" fill="#000000">seq_no </text>
<text text-anchor="start" x="103.3036" y="-146.9" font-family="Arial" font-size="14.00" fill="#666666">[integer]</text>
<polygon fill="none" stroke="#000000" points="46.5,-105.5 46.5,-135.5 275.5,-135.5 275.5,-105.5 46.5,-105.5"/>
<text text-anchor="start" x="53.5" y="-116.9" font-family="Arial" font-size="14.00" fill="#000000">column_name </text>
<text text-anchor="start" x="145.2966" y="-116.9" font-family="Arial" font-size="14.00" fill="#666666">[text]</text>
<polygon fill="none" stroke="#000000" points="46.5,-75.5 46.5,-105.5 275.5,-105.5 275.5,-75.5 46.5,-75.5"/>
<text text-anchor="start" x="53.5" y="-86.9" font-family="Arial" font-size="14.00" fill="#000000">function_id </text>
<text text-anchor="start" x="125.0806" y="-86.9" font-family="Arial" font-size="14.00" fill="#666666">[integer]</text>
<polygon fill="none" stroke="#000000" points="46.5,-45.5 46.5,-75.5 275.5,-75.5 275.5,-45.5 46.5,-45.5"/>
<text text-anchor="start" x="53.5" y="-56.9" font-family="Arial" font-size="14.00" fill="#000000">negate </text>
<text text-anchor="start" x="100.1942" y="-56.9" font-family="Arial" font-size="14.00" fill="#666666">[boolean]</text>
<polygon fill="none" stroke="#000000" stroke-width="3" points="44.5,-44.5 44.5,-292.5 276.5,-292.5 276.5,-44.5 44.5,-44.5"/>
</g>
</g>
</svg>
