<?xml version="1.0" encoding="UTF-8" standalone="no"?>
<!DOCTYPE svg PUBLIC "-//W3C//DTD SVG 1.1//EN"
 "http://www.w3.org/Graphics/SVG/1.1/DTD/svg11.dtd">
<!-- Generated by graphviz version 2.40.1 (20161225.0304)
 -->
<!-- Title: query.stored_query Pages: 1 -->
<svg width="1916pt" height="1589pt"
 viewBox="0.00 0.00 1915.50 1589.00" xmlns="http://www.w3.org/2000/svg" xmlns:xlink="http://www.w3.org/1999/xlink">
<g id="graph0" class="graph" transform="scale(1 1) rotate(0) translate(4 1585)">
<title>query.stored_query</title>
<polygon fill="#ffffff" stroke="transparent" points="-4,4 -4,-1585 1911.5,-1585 1911.5,4 -4,4"/>
<!-- query.stored_query -->
<g id="node1" class="node">
<title>query.stored_query</title>
<polygon fill="#efefef" stroke="transparent" points="882.5,-952.5 882.5,-987.5 1178.5,-987.5 1178.5,-952.5 882.5,-952.5"/>
<polygon fill="none" stroke="#000000" points="882.5,-952.5 882.5,-987.5 1178.5,-987.5 1178.5,-952.5 882.5,-952.5"/>
<text text-anchor="start" x="889.1945" y="-965.3" font-family="Arial Bold" font-size="18.00" fill="#000000">query.stored_query</text>
<text text-anchor="start" x="1044.2375" y="-965.3" font-family="Arial" font-size="14.00" fill="#000000">    </text>
<text text-anchor="start" x="1078.4423" y="-965.3" font-family="Arial" font-size="14.00" fill="#666666">[BASE TABLE]</text>
<polygon fill="none" stroke="#000000" points="882.5,-922.5 882.5,-952.5 1178.5,-952.5 1178.5,-922.5 882.5,-922.5"/>
<text text-anchor="start" x="889.5" y="-933.9" font-family="Arial" font-size="14.00" fill="#000000">id </text>
<text text-anchor="start" x="904.2798" y="-933.9" font-family="Arial" font-size="14.00" fill="#666666">[integer]</text>
<polygon fill="none" stroke="#000000" points="882.5,-892.5 882.5,-922.5 1178.5,-922.5 1178.5,-892.5 882.5,-892.5"/>
<text text-anchor="start" x="889.5" y="-903.9" font-family="Arial" font-size="14.00" fill="#000000">type </text>
<text text-anchor="start" x="919.8464" y="-903.9" font-family="Arial" font-size="14.00" fill="#666666">[text]</text>
<polygon fill="none" stroke="#000000" points="882.5,-862.5 882.5,-892.5 1178.5,-892.5 1178.5,-862.5 882.5,-862.5"/>
<text text-anchor="start" x="889.5" y="-873.9" font-family="Arial" font-size="14.00" fill="#000000">use_all </text>
<text text-anchor="start" x="937.7342" y="-873.9" font-family="Arial" font-size="14.00" fill="#666666">[boolean]</text>
<polygon fill="none" stroke="#000000" points="882.5,-832.5 882.5,-862.5 1178.5,-862.5 1178.5,-832.5 882.5,-832.5"/>
<text text-anchor="start" x="889.5" y="-843.9" font-family="Arial" font-size="14.00" fill="#000000">use_distinct </text>
<text text-anchor="start" x="967.298" y="-843.9" font-family="Arial" font-size="14.00" fill="#666666">[boolean]</text>
<polygon fill="none" stroke="#000000" points="882.5,-802.5 882.5,-832.5 1178.5,-832.5 1178.5,-802.5 882.5,-802.5"/>
<text text-anchor="start" x="889.5" y="-813.9" font-family="Arial" font-size="14.00" fill="#000000">from_clause </text>
<text text-anchor="start" x="969.622" y="-813.9" font-family="Arial" font-size="14.00" fill="#666666">[integer]</text>
<polygon fill="none" stroke="#000000" points="882.5,-772.5 882.5,-802.5 1178.5,-802.5 1178.5,-772.5 882.5,-772.5"/>
<text text-anchor="start" x="889.5" y="-783.9" font-family="Arial" font-size="14.00" fill="#000000">where_clause </text>
<text text-anchor="start" x="979.7426" y="-783.9" font-family="Arial" font-size="14.00" fill="#666666">[integer]</text>
<polygon fill="none" stroke="#000000" points="882.5,-742.5 882.5,-772.5 1178.5,-772.5 1178.5,-742.5 882.5,-742.5"/>
<text text-anchor="start" x="889.5" y="-753.9" font-family="Arial" font-size="14.00" fill="#000000">having_clause </text>
<text text-anchor="start" x="982.8646" y="-753.9" font-family="Arial" font-size="14.00" fill="#666666">[integer]</text>
<polygon fill="none" stroke="#000000" points="882.5,-712.5 882.5,-742.5 1178.5,-742.5 1178.5,-712.5 882.5,-712.5"/>
<text text-anchor="start" x="889.5" y="-723.9" font-family="Arial" font-size="14.00" fill="#000000">limit_count </text>
<text text-anchor="start" x="960.2826" y="-723.9" font-family="Arial" font-size="14.00" fill="#666666">[integer]</text>
<polygon fill="none" stroke="#000000" points="882.5,-682.5 882.5,-712.5 1178.5,-712.5 1178.5,-682.5 882.5,-682.5"/>
<text text-anchor="start" x="889.5" y="-693.9" font-family="Arial" font-size="14.00" fill="#000000">offset_count </text>
<text text-anchor="start" x="969.6486" y="-693.9" font-family="Arial" font-size="14.00" fill="#666666">[integer]</text>
<polygon fill="none" stroke="#000000" stroke-width="3" points="881,-681.5 881,-989.5 1180,-989.5 1180,-681.5 881,-681.5"/>
</g>
<!-- query.expression -->
<g id="node3" class="node">
<title>query.expression</title>
<polygon fill="#efefef" stroke="transparent" points="891.5,-522.5 891.5,-557.5 1169.5,-557.5 1169.5,-522.5 891.5,-522.5"/>
<polygon fill="none" stroke="#000000" points="891.5,-522.5 891.5,-557.5 1169.5,-557.5 1169.5,-522.5 891.5,-522.5"/>
<text text-anchor="start" x="898.2008" y="-535.3" font-family="Arial Bold" font-size="18.00" fill="#000000">query.expression</text>
<text text-anchor="start" x="1035.2312" y="-535.3" font-family="Arial" font-size="14.00" fill="#000000">    </text>
<text text-anchor="start" x="1069.436" y="-535.3" font-family="Arial" font-size="14.00" fill="#666666">[BASE TABLE]</text>
<polygon fill="none" stroke="#000000" points="891.5,-492.5 891.5,-522.5 1169.5,-522.5 1169.5,-492.5 891.5,-492.5"/>
<text text-anchor="start" x="898.5" y="-503.9" font-family="Arial" font-size="14.00" fill="#000000">id    </text>
<text text-anchor="start" x="943.594" y="-503.9" font-family="Arial" font-size="14.00" fill="#666666">[integer]</text>
<polygon fill="none" stroke="#000000" points="891.5,-462.5 891.5,-492.5 1169.5,-492.5 1169.5,-462.5 891.5,-462.5"/>
<text text-anchor="start" x="898.5" y="-473.9" font-family="Arial" font-size="14.00" fill="#000000">type    </text>
<text text-anchor="start" x="959.1606" y="-473.9" font-family="Arial" font-size="14.00" fill="#666666">[text]</text>
<polygon fill="none" stroke="#000000" points="891.5,-432.5 891.5,-462.5 1169.5,-462.5 1169.5,-432.5 891.5,-432.5"/>
<text text-anchor="start" x="898.5" y="-443.9" font-family="Arial" font-size="14.00" fill="#000000">parenthesize    </text>
<text text-anchor="start" x="1012.8408" y="-443.9" font-family="Arial" font-size="14.00" fill="#666666">[boolean]</text>
<polygon fill="none" stroke="#000000" points="891.5,-402.5 891.5,-432.5 1169.5,-432.5 1169.5,-402.5 891.5,-402.5"/>
<text text-anchor="start" x="898.5" y="-413.9" font-family="Arial" font-size="14.00" fill="#000000">parent_expr    </text>
<text text-anchor="start" x="1007.3948" y="-413.9" font-family="Arial" font-size="14.00" fill="#666666">[integer]</text>
<polygon fill="none" stroke="#000000" points="891.5,-372.5 891.5,-402.5 1169.5,-402.5 1169.5,-372.5 891.5,-372.5"/>
<text text-anchor="start" x="898.5" y="-383.9" font-family="Arial" font-size="14.00" fill="#000000">seq_no    </text>
<text text-anchor="start" x="978.6178" y="-383.9" font-family="Arial" font-size="14.00" fill="#666666">[integer]</text>
<polygon fill="none" stroke="#000000" points="891.5,-342.5 891.5,-372.5 1169.5,-372.5 1169.5,-342.5 891.5,-342.5"/>
<text text-anchor="start" x="898.5" y="-353.9" font-family="Arial" font-size="14.00" fill="#000000">literal    </text>
<text text-anchor="start" x="966.141" y="-353.9" font-family="Arial" font-size="14.00" fill="#666666">[text]</text>
<polygon fill="none" stroke="#000000" points="891.5,-312.5 891.5,-342.5 1169.5,-342.5 1169.5,-312.5 891.5,-312.5"/>
<text text-anchor="start" x="898.5" y="-323.9" font-family="Arial" font-size="14.00" fill="#000000">table_alias    </text>
<text text-anchor="start" x="999.6108" y="-323.9" font-family="Arial" font-size="14.00" fill="#666666">[text]</text>
<polygon fill="none" stroke="#000000" points="891.5,-282.5 891.5,-312.5 1169.5,-312.5 1169.5,-282.5 891.5,-282.5"/>
<text text-anchor="start" x="898.5" y="-293.9" font-family="Arial" font-size="14.00" fill="#000000">column_name    </text>
<text text-anchor="start" x="1020.6108" y="-293.9" font-family="Arial" font-size="14.00" fill="#666666">[text]</text>
<polygon fill="none" stroke="#000000" points="891.5,-252.5 891.5,-282.5 1169.5,-282.5 1169.5,-252.5 891.5,-252.5"/>
<text text-anchor="start" x="898.5" y="-263.9" font-family="Arial" font-size="14.00" fill="#000000">left_operand    </text>
<text text-anchor="start" x="1010.514" y="-263.9" font-family="Arial" font-size="14.00" fill="#666666">[integer]</text>
<polygon fill="none" stroke="#000000" points="891.5,-222.5 891.5,-252.5 1169.5,-252.5 1169.5,-222.5 891.5,-222.5"/>
<text text-anchor="start" x="898.5" y="-233.9" font-family="Arial" font-size="14.00" fill="#000000">operator    </text>
<text text-anchor="start" x="984.8296" y="-233.9" font-family="Arial" font-size="14.00" fill="#666666">[text]</text>
<polygon fill="none" stroke="#000000" points="891.5,-192.5 891.5,-222.5 1169.5,-222.5 1169.5,-192.5 891.5,-192.5"/>
<text text-anchor="start" x="898.5" y="-203.9" font-family="Arial" font-size="14.00" fill="#000000">right_operand    </text>
<text text-anchor="start" x="1019.0666" y="-203.9" font-family="Arial" font-size="14.00" fill="#666666">[integer]</text>
<polygon fill="none" stroke="#000000" points="891.5,-162.5 891.5,-192.5 1169.5,-192.5 1169.5,-162.5 891.5,-162.5"/>
<text text-anchor="start" x="898.5" y="-173.9" font-family="Arial" font-size="14.00" fill="#000000">function_id    </text>
<text text-anchor="start" x="1000.3948" y="-173.9" font-family="Arial" font-size="14.00" fill="#666666">[integer]</text>
<polygon fill="none" stroke="#000000" points="891.5,-132.5 891.5,-162.5 1169.5,-162.5 1169.5,-132.5 891.5,-132.5"/>
<text text-anchor="start" x="898.5" y="-143.9" font-family="Arial" font-size="14.00" fill="#000000">subquery    </text>
<text text-anchor="start" x="990.2784" y="-143.9" font-family="Arial" font-size="14.00" fill="#666666">[integer]</text>
<polygon fill="none" stroke="#000000" points="891.5,-102.5 891.5,-132.5 1169.5,-132.5 1169.5,-102.5 891.5,-102.5"/>
<text text-anchor="start" x="898.5" y="-113.9" font-family="Arial" font-size="14.00" fill="#000000">cast_type    </text>
<text text-anchor="start" x="992.6164" y="-113.9" font-family="Arial" font-size="14.00" fill="#666666">[integer]</text>
<polygon fill="none" stroke="#000000" points="891.5,-72.5 891.5,-102.5 1169.5,-102.5 1169.5,-72.5 891.5,-72.5"/>
<text text-anchor="start" x="898.5" y="-83.9" font-family="Arial" font-size="14.00" fill="#000000">negate    </text>
<text text-anchor="start" x="975.5084" y="-83.9" font-family="Arial" font-size="14.00" fill="#666666">[boolean]</text>
<polygon fill="none" stroke="#000000" points="891.5,-42.5 891.5,-72.5 1169.5,-72.5 1169.5,-42.5 891.5,-42.5"/>
<text text-anchor="start" x="898.5" y="-53.9" font-family="Arial" font-size="14.00" fill="#000000">bind_variable    </text>
<text text-anchor="start" x="1015.946" y="-53.9" font-family="Arial" font-size="14.00" fill="#666666">[text]</text>
</g>
<!-- query.stored_query&#45;&gt;query.expression -->
<g id="edge9" class="edge">
<title>query.stored_query:where_clause&#45;&gt;query.expression:id</title>
<path fill="none" stroke="#000000" d="M1188.3959,-784.9069C1239.564,-756.6795 1228.2282,-507.5 1169.5,-507.5"/>
<polygon fill="#000000" stroke="#000000" points="1188.1734,-784.9651 1177.3593,-783.147 1183.3367,-786.2326 1178.5,-787.5 1178.5,-787.5 1178.5,-787.5 1183.3367,-786.2326 1179.6407,-791.853 1188.1734,-784.9651 1188.1734,-784.9651"/>
<text text-anchor="start" x="1185.486" y="-797.5" font-family="Arial" font-size="10.00" fill="#000000">FOREIGN KEY (where_clause) REFERENCES query.expression(id) DEFERRABLE INITIALLY DEFERRED</text>
</g>
<!-- query.stored_query&#45;&gt;query.expression -->
<g id="edge10" class="edge">
<title>query.stored_query:having_clause&#45;&gt;query.expression:id</title>
<path fill="none" stroke="#000000" d="M1188.1709,-754.6924C1232.7845,-727.2266 1221.6171,-507.5 1169.5,-507.5"/>
<polygon fill="#000000" stroke="#000000" points="1188.1035,-754.7119 1177.2453,-753.1784 1183.3017,-756.1059 1178.5,-757.5 1178.5,-757.5 1178.5,-757.5 1183.3017,-756.1059 1179.7547,-761.8216 1188.1035,-754.7119 1188.1035,-754.7119"/>
<text text-anchor="start" x="1185.371" y="-767.5" font-family="Arial" font-size="10.00" fill="#000000">FOREIGN KEY (having_clause) REFERENCES query.expression(id) DEFERRABLE INITIALLY DEFERRED</text>
</g>
<!-- query.stored_query&#45;&gt;query.expression -->
<g id="edge11" class="edge">
<title>query.stored_query:limit_count&#45;&gt;query.expression:id</title>
<path fill="none" stroke="#000000" d="M1188.4446,-724.0443C1225.8739,-696.0556 1214.7983,-507.5 1169.5,-507.5"/>
<polygon fill="#000000" stroke="#000000" points="1187.9459,-724.2175 1177.0229,-723.2493 1183.223,-725.8588 1178.5,-727.5 1178.5,-727.5 1178.5,-727.5 1183.223,-725.8588 1179.9771,-731.7507 1187.9459,-724.2175 1187.9459,-724.2175"/>
<text text-anchor="start" x="1185.436" y="-737.5" font-family="Arial" font-size="10.00" fill="#000000">FOREIGN KEY (limit_count) REFERENCES query.expression(id) DEFERRABLE INITIALLY DEFERRED</text>
</g>
<!-- query.stored_query&#45;&gt;query.expression -->
<g id="edge12" class="edge">
<title>query.stored_query:offset_count&#45;&gt;query.expression:id</title>
<path fill="none" stroke="#000000" d="M1031.2775,-672.5171C1040.8269,-615.8981 1135.7091,-659.9837 1169.5,-601 1190.1569,-564.9423 1211.0556,-507.5 1169.5,-507.5"/>
<polygon fill="#000000" stroke="#000000" points="1031.2766,-672.5302 1026.0136,-682.1505 1030.8883,-677.5151 1030.5,-682.5 1030.5,-682.5 1030.5,-682.5 1030.8883,-677.5151 1034.9864,-682.8495 1031.2766,-672.5302 1031.2766,-672.5302"/>
<text text-anchor="start" x="551.091" y="-692.5" font-family="Arial" font-size="10.00" fill="#000000">FOREIGN KEY (offset_count) REFERENCES query.expression(id) DEFERRABLE INITIALLY DEFERRED</text>
</g>
<!-- query.from_relation -->
<g id="node4" class="node">
<title>query.from_relation</title>
<polygon fill="#efefef" stroke="transparent" points="1273.5,-447.5 1273.5,-482.5 1569.5,-482.5 1569.5,-447.5 1273.5,-447.5"/>
<polygon fill="none" stroke="#000000" points="1273.5,-447.5 1273.5,-482.5 1569.5,-482.5 1569.5,-447.5 1273.5,-447.5"/>
<text text-anchor="start" x="1280.2062" y="-460.3" font-family="Arial Bold" font-size="18.00" fill="#000000">query.from_relation</text>
<text text-anchor="start" x="1435.2258" y="-460.3" font-family="Arial" font-size="14.00" fill="#000000">    </text>
<text text-anchor="start" x="1469.4306" y="-460.3" font-family="Arial" font-size="14.00" fill="#666666">[BASE TABLE]</text>
<polygon fill="none" stroke="#000000" points="1273.5,-417.5 1273.5,-447.5 1569.5,-447.5 1569.5,-417.5 1273.5,-417.5"/>
<text text-anchor="start" x="1280.5" y="-428.9" font-family="Arial" font-size="14.00" fill="#000000">id    </text>
<text text-anchor="start" x="1325.594" y="-428.9" font-family="Arial" font-size="14.00" fill="#666666">[integer]</text>
<polygon fill="none" stroke="#000000" points="1273.5,-387.5 1273.5,-417.5 1569.5,-417.5 1569.5,-387.5 1273.5,-387.5"/>
<text text-anchor="start" x="1280.5" y="-398.9" font-family="Arial" font-size="14.00" fill="#000000">type    </text>
<text text-anchor="start" x="1341.1606" y="-398.9" font-family="Arial" font-size="14.00" fill="#666666">[text]</text>
<polygon fill="none" stroke="#000000" points="1273.5,-357.5 1273.5,-387.5 1569.5,-387.5 1569.5,-357.5 1273.5,-357.5"/>
<text text-anchor="start" x="1280.5" y="-368.9" font-family="Arial" font-size="14.00" fill="#000000">table_name    </text>
<text text-anchor="start" x="1387.8408" y="-368.9" font-family="Arial" font-size="14.00" fill="#666666">[text]</text>
<polygon fill="none" stroke="#000000" points="1273.5,-327.5 1273.5,-357.5 1569.5,-357.5 1569.5,-327.5 1273.5,-327.5"/>
<text text-anchor="start" x="1280.5" y="-338.9" font-family="Arial" font-size="14.00" fill="#000000">class_name    </text>
<text text-anchor="start" x="1389.385" y="-338.9" font-family="Arial" font-size="14.00" fill="#666666">[text]</text>
<polygon fill="none" stroke="#000000" points="1273.5,-297.5 1273.5,-327.5 1569.5,-327.5 1569.5,-297.5 1273.5,-297.5"/>
<text text-anchor="start" x="1280.5" y="-308.9" font-family="Arial" font-size="14.00" fill="#000000">subquery    </text>
<text text-anchor="start" x="1372.2784" y="-308.9" font-family="Arial" font-size="14.00" fill="#666666">[integer]</text>
<polygon fill="none" stroke="#000000" points="1273.5,-267.5 1273.5,-297.5 1569.5,-297.5 1569.5,-267.5 1273.5,-267.5"/>
<text text-anchor="start" x="1280.5" y="-278.9" font-family="Arial" font-size="14.00" fill="#000000">function_call    </text>
<text text-anchor="start" x="1392.5014" y="-278.9" font-family="Arial" font-size="14.00" fill="#666666">[integer]</text>
<polygon fill="none" stroke="#000000" points="1273.5,-237.5 1273.5,-267.5 1569.5,-267.5 1569.5,-237.5 1273.5,-237.5"/>
<text text-anchor="start" x="1280.5" y="-248.9" font-family="Arial" font-size="14.00" fill="#000000">table_alias    </text>
<text text-anchor="start" x="1381.6108" y="-248.9" font-family="Arial" font-size="14.00" fill="#666666">[text]</text>
<polygon fill="none" stroke="#000000" points="1273.5,-207.5 1273.5,-237.5 1569.5,-237.5 1569.5,-207.5 1273.5,-207.5"/>
<text text-anchor="start" x="1280.5" y="-218.9" font-family="Arial" font-size="14.00" fill="#000000">parent_relation    </text>
<text text-anchor="start" x="1408.0638" y="-218.9" font-family="Arial" font-size="14.00" fill="#666666">[integer]</text>
<polygon fill="none" stroke="#000000" points="1273.5,-177.5 1273.5,-207.5 1569.5,-207.5 1569.5,-177.5 1273.5,-177.5"/>
<text text-anchor="start" x="1280.5" y="-188.9" font-family="Arial" font-size="14.00" fill="#000000">seq_no    </text>
<text text-anchor="start" x="1360.6178" y="-188.9" font-family="Arial" font-size="14.00" fill="#666666">[integer]</text>
<polygon fill="none" stroke="#000000" points="1273.5,-147.5 1273.5,-177.5 1569.5,-177.5 1569.5,-147.5 1273.5,-147.5"/>
<text text-anchor="start" x="1280.5" y="-158.9" font-family="Arial" font-size="14.00" fill="#000000">join_type    </text>
<text text-anchor="start" x="1370.7216" y="-158.9" font-family="Arial" font-size="14.00" fill="#666666">[text]</text>
<polygon fill="none" stroke="#000000" points="1273.5,-117.5 1273.5,-147.5 1569.5,-147.5 1569.5,-117.5 1273.5,-117.5"/>
<text text-anchor="start" x="1280.5" y="-128.9" font-family="Arial" font-size="14.00" fill="#000000">on_clause    </text>
<text text-anchor="start" x="1378.507" y="-128.9" font-family="Arial" font-size="14.00" fill="#666666">[integer]</text>
</g>
<!-- query.stored_query&#45;&gt;query.from_relation -->
<g id="edge8" class="edge">
<title>query.stored_query:from_clause&#45;&gt;query.from_relation:id</title>
<path fill="none" stroke="#000000" d="M1188.5117,-815.6101C1260.2421,-786.5656 1188.9927,-432.5 1273.5,-432.5"/>
<polygon fill="#000000" stroke="#000000" points="1188.3265,-815.645 1177.6652,-813.0781 1183.4132,-816.5725 1178.5,-817.5 1178.5,-817.5 1178.5,-817.5 1183.4132,-816.5725 1179.3348,-821.9219 1188.3265,-815.645 1188.3265,-815.645"/>
<text text-anchor="start" x="1185.1035" y="-827.5" font-family="Arial" font-size="10.00" fill="#000000">FOREIGN KEY (from_clause) REFERENCES query.from_relation(id) DEFERRABLE INITIALLY DEFERRED</text>
</g>
<!-- action.fieldset -->
<g id="node2" class="node">
<title>action.fieldset</title>
<polygon fill="#efefef" stroke="transparent" points="43.5,-1502.5 43.5,-1537.5 354.5,-1537.5 354.5,-1502.5 43.5,-1502.5"/>
<polygon fill="none" stroke="#000000" points="43.5,-1502.5 43.5,-1537.5 354.5,-1537.5 354.5,-1502.5 43.5,-1502.5"/>
<text text-anchor="start" x="80.2017" y="-1515.3" font-family="Arial Bold" font-size="18.00" fill="#000000">action.fieldset</text>
<text text-anchor="start" x="190.2303" y="-1515.3" font-family="Arial" font-size="14.00" fill="#000000">    </text>
<text text-anchor="start" x="224.4351" y="-1515.3" font-family="Arial" font-size="14.00" fill="#666666">[BASE TABLE]</text>
<polygon fill="none" stroke="#000000" points="43.5,-1472.5 43.5,-1502.5 354.5,-1502.5 354.5,-1472.5 43.5,-1472.5"/>
<text text-anchor="start" x="50.5" y="-1483.9" font-family="Arial" font-size="14.00" fill="#000000">id    </text>
<text text-anchor="start" x="95.594" y="-1483.9" font-family="Arial" font-size="14.00" fill="#666666">[integer]</text>
<polygon fill="none" stroke="#000000" points="43.5,-1442.5 43.5,-1472.5 354.5,-1472.5 354.5,-1442.5 43.5,-1442.5"/>
<text text-anchor="start" x="50.5" y="-1453.9" font-family="Arial" font-size="14.00" fill="#000000">fieldset_group    </text>
<text text-anchor="start" x="172.6206" y="-1453.9" font-family="Arial" font-size="14.00" fill="#666666">[integer]</text>
<polygon fill="none" stroke="#000000" points="43.5,-1412.5 43.5,-1442.5 354.5,-1442.5 354.5,-1412.5 43.5,-1412.5"/>
<text text-anchor="start" x="50.5" y="-1423.9" font-family="Arial" font-size="14.00" fill="#000000">owner    </text>
<text text-anchor="start" x="122.8198" y="-1423.9" font-family="Arial" font-size="14.00" fill="#666666">[integer]</text>
<polygon fill="none" stroke="#000000" points="43.5,-1382.5 43.5,-1412.5 354.5,-1412.5 354.5,-1382.5 43.5,-1382.5"/>
<text text-anchor="start" x="50.5" y="-1393.9" font-family="Arial" font-size="14.00" fill="#000000">owning_lib    </text>
<text text-anchor="start" x="150.8268" y="-1393.9" font-family="Arial" font-size="14.00" fill="#666666">[integer]</text>
<polygon fill="none" stroke="#000000" points="43.5,-1352.5 43.5,-1382.5 354.5,-1382.5 354.5,-1352.5 43.5,-1352.5"/>
<text text-anchor="start" x="50.5" y="-1363.9" font-family="Arial" font-size="14.00" fill="#000000">status    </text>
<text text-anchor="start" x="122.0512" y="-1363.9" font-family="Arial" font-size="14.00" fill="#666666">[text]</text>
<polygon fill="none" stroke="#000000" points="43.5,-1322.5 43.5,-1352.5 354.5,-1352.5 354.5,-1322.5 43.5,-1322.5"/>
<text text-anchor="start" x="50.5" y="-1333.9" font-family="Arial" font-size="14.00" fill="#000000">creation_time    </text>
<text text-anchor="start" x="168.716" y="-1333.9" font-family="Arial" font-size="14.00" fill="#666666">[timestamp with time zone]</text>
<polygon fill="none" stroke="#000000" points="43.5,-1292.5 43.5,-1322.5 354.5,-1322.5 354.5,-1292.5 43.5,-1292.5"/>
<text text-anchor="start" x="50.0428" y="-1303.9" font-family="Arial" font-size="14.00" fill="#000000">scheduled_time    </text>
<text text-anchor="start" x="182.2728" y="-1303.9" font-family="Arial" font-size="14.00" fill="#666666">[timestamp with time zone]</text>
<polygon fill="none" stroke="#000000" points="43.5,-1262.5 43.5,-1292.5 354.5,-1292.5 354.5,-1262.5 43.5,-1262.5"/>
<text text-anchor="start" x="50.5" y="-1273.9" font-family="Arial" font-size="14.00" fill="#000000">applied_time    </text>
<text text-anchor="start" x="164.054" y="-1273.9" font-family="Arial" font-size="14.00" fill="#666666">[timestamp with time zone]</text>
<polygon fill="none" stroke="#000000" points="43.5,-1232.5 43.5,-1262.5 354.5,-1262.5 354.5,-1232.5 43.5,-1232.5"/>
<text text-anchor="start" x="50.5" y="-1243.9" font-family="Arial" font-size="14.00" fill="#000000">classname    </text>
<text text-anchor="start" x="151.6024" y="-1243.9" font-family="Arial" font-size="14.00" fill="#666666">[text]</text>
<polygon fill="none" stroke="#000000" points="43.5,-1202.5 43.5,-1232.5 354.5,-1232.5 354.5,-1202.5 43.5,-1202.5"/>
<text text-anchor="start" x="50.5" y="-1213.9" font-family="Arial" font-size="14.00" fill="#000000">name    </text>
<text text-anchor="start" x="119.7132" y="-1213.9" font-family="Arial" font-size="14.00" fill="#666666">[text]</text>
<polygon fill="none" stroke="#000000" points="43.5,-1172.5 43.5,-1202.5 354.5,-1202.5 354.5,-1172.5 43.5,-1172.5"/>
<text text-anchor="start" x="50.5" y="-1183.9" font-family="Arial" font-size="14.00" fill="#000000">error_msg    </text>
<text text-anchor="start" x="148.4776" y="-1183.9" font-family="Arial" font-size="14.00" fill="#666666">[text]</text>
<polygon fill="none" stroke="#000000" points="43.5,-1142.5 43.5,-1172.5 354.5,-1172.5 354.5,-1142.5 43.5,-1142.5"/>
<text text-anchor="start" x="50.5" y="-1153.9" font-family="Arial" font-size="14.00" fill="#000000">stored_query    </text>
<text text-anchor="start" x="166.3948" y="-1153.9" font-family="Arial" font-size="14.00" fill="#666666">[integer]</text>
<polygon fill="none" stroke="#000000" points="43.5,-1112.5 43.5,-1142.5 354.5,-1142.5 354.5,-1112.5 43.5,-1112.5"/>
<text text-anchor="start" x="50.5" y="-1123.9" font-family="Arial" font-size="14.00" fill="#000000">pkey_value    </text>
<text text-anchor="start" x="155.507" y="-1123.9" font-family="Arial" font-size="14.00" fill="#666666">[text]</text>
</g>
<!-- action.fieldset&#45;&gt;query.stored_query -->
<g id="edge1" class="edge">
<title>action.fieldset:stored_query&#45;&gt;query.stored_query:id</title>
<path fill="none" stroke="#000000" d="M364.6029,-1156.2291C395.2055,-1147.4254 373.6579,-1095.1245 406.5,-1070 493.7072,-1003.2856 772.7006,-937.5 882.5,-937.5"/>
<polygon fill="#000000" stroke="#000000" points="364.4218,-1156.2518 353.9383,-1153.0352 359.4609,-1156.8759 354.5,-1157.5 354.5,-1157.5 354.5,-1157.5 359.4609,-1156.8759 355.0617,-1161.9648 364.4218,-1156.2518 364.4218,-1156.2518"/>
<text text-anchor="start" x="361.1475" y="-1167.5" font-family="Arial" font-size="10.00" fill="#000000">FOREIGN KEY (stored_query) REFERENCES query.stored_query(id) DEFERRABLE INITIALLY DEFERRED</text>
</g>
<!-- query.expression&#45;&gt;query.stored_query -->
<g id="edge2" class="edge">
<title>query.expression:subquery&#45;&gt;query.stored_query:id</title>
<path fill="none" stroke="#000000" d="M1176.6191,-154.8162C1214.2416,-234.4577 1219.9057,-937.5 1178.5,-937.5"/>
<polygon fill="#000000" stroke="#000000" points="1176.4739,-154.667 1172.7252,-144.3618 1172.9869,-151.0835 1169.5,-147.5 1169.5,-147.5 1169.5,-147.5 1172.9869,-151.0835 1166.2748,-150.6382 1176.4739,-154.667 1176.4739,-154.667"/>
<text text-anchor="start" x="693.7605" y="-157.5" font-family="Arial" font-size="10.00" fill="#000000">FOREIGN KEY (subquery) REFERENCES query.stored_query(id) DEFERRABLE INITIALLY DEFERRED</text>
</g>
<!-- query.from_relation&#45;&gt;query.stored_query -->
<g id="edge3" class="edge">
<title>query.from_relation:subquery&#45;&gt;query.stored_query:id</title>
<path fill="none" stroke="#000000" d="M1264.0114,-316.8248C1207.4238,-372.045 1245.3123,-937.5 1178.5,-937.5"/>
<polygon fill="#000000" stroke="#000000" points="1264.4006,-316.6475 1275.3664,-316.5947 1268.9503,-314.5737 1273.5,-312.5 1273.5,-312.5 1273.5,-312.5 1268.9503,-314.5737 1271.6336,-308.4053 1264.4006,-316.6475 1264.4006,-316.6475"/>
<text text-anchor="start" x="973.8205" y="-322.5" font-family="Arial" font-size="10.00" fill="#000000">FOREIGN KEY (subquery) REFERENCES query.stored_query(id)</text>
</g>
<!-- query.order_by_item -->
<g id="node5" class="node">
<title>query.order_by_item</title>
<polygon fill="#efefef" stroke="transparent" points="458.5,-1367.5 458.5,-1402.5 764.5,-1402.5 764.5,-1367.5 458.5,-1367.5"/>
<polygon fill="none" stroke="#000000" points="458.5,-1367.5 458.5,-1402.5 764.5,-1402.5 764.5,-1367.5 458.5,-1367.5"/>
<text text-anchor="start" x="465.2013" y="-1380.3" font-family="Arial Bold" font-size="18.00" fill="#000000">query.order_by_item</text>
<text text-anchor="start" x="630.2307" y="-1380.3" font-family="Arial" font-size="14.00" fill="#000000">    </text>
<text text-anchor="start" x="664.4355" y="-1380.3" font-family="Arial" font-size="14.00" fill="#666666">[BASE TABLE]</text>
<polygon fill="none" stroke="#000000" points="458.5,-1337.5 458.5,-1367.5 764.5,-1367.5 764.5,-1337.5 458.5,-1337.5"/>
<text text-anchor="start" x="465.5" y="-1348.9" font-family="Arial" font-size="14.00" fill="#000000">id    </text>
<text text-anchor="start" x="510.594" y="-1348.9" font-family="Arial" font-size="14.00" fill="#666666">[integer]</text>
<polygon fill="none" stroke="#000000" points="458.5,-1307.5 458.5,-1337.5 764.5,-1337.5 764.5,-1307.5 458.5,-1307.5"/>
<text text-anchor="start" x="465.5" y="-1318.9" font-family="Arial" font-size="14.00" fill="#000000">stored_query    </text>
<text text-anchor="start" x="581.3948" y="-1318.9" font-family="Arial" font-size="14.00" fill="#666666">[integer]</text>
<polygon fill="none" stroke="#000000" points="458.5,-1277.5 458.5,-1307.5 764.5,-1307.5 764.5,-1277.5 458.5,-1277.5"/>
<text text-anchor="start" x="465.5" y="-1288.9" font-family="Arial" font-size="14.00" fill="#000000">seq_no    </text>
<text text-anchor="start" x="545.6178" y="-1288.9" font-family="Arial" font-size="14.00" fill="#666666">[integer]</text>
<polygon fill="none" stroke="#000000" points="458.5,-1247.5 458.5,-1277.5 764.5,-1277.5 764.5,-1247.5 458.5,-1247.5"/>
<text text-anchor="start" x="465.5" y="-1258.9" font-family="Arial" font-size="14.00" fill="#000000">expression    </text>
<text text-anchor="start" x="567.385" y="-1258.9" font-family="Arial" font-size="14.00" fill="#666666">[integer]</text>
</g>
<!-- query.order_by_item&#45;&gt;query.stored_query -->
<g id="edge4" class="edge">
<title>query.order_by_item:stored_query&#45;&gt;query.stored_query:id</title>
<path fill="none" stroke="#000000" d="M774.3194,-1320.2592C818.9561,-1298.2694 798.9633,-1120.7644 816.5,-1070 837.9818,-1007.8158 816.7098,-937.5 882.5,-937.5"/>
<polygon fill="#000000" stroke="#000000" points="774.2494,-1320.2751 763.4988,-1318.1128 769.3747,-1321.3875 764.5,-1322.5 764.5,-1322.5 764.5,-1322.5 769.3747,-1321.3875 765.5012,-1326.8872 774.2494,-1320.2751 774.2494,-1320.2751"/>
<text text-anchor="start" x="466.3665" y="-1306.5" font-family="Arial" font-size="10.00" fill="#000000">FOREIGN KEY (stored_query) REFERENCES query.stored_query(id) ON DELETE CASCADE DEFERRABLE INITIALLY DEFERRED</text>
</g>
<!-- query.query_sequence -->
<g id="node6" class="node">
<title>query.query_sequence</title>
<polygon fill="#efefef" stroke="transparent" points="868.5,-1367.5 868.5,-1402.5 1192.5,-1402.5 1192.5,-1367.5 868.5,-1367.5"/>
<polygon fill="none" stroke="#000000" points="868.5,-1367.5 868.5,-1402.5 1192.5,-1402.5 1192.5,-1367.5 868.5,-1367.5"/>
<text text-anchor="start" x="875.1824" y="-1380.3" font-family="Arial Bold" font-size="18.00" fill="#000000">query.query_sequence</text>
<text text-anchor="start" x="1058.2496" y="-1380.3" font-family="Arial" font-size="14.00" fill="#000000">    </text>
<text text-anchor="start" x="1092.4544" y="-1380.3" font-family="Arial" font-size="14.00" fill="#666666">[BASE TABLE]</text>
<polygon fill="none" stroke="#000000" points="868.5,-1337.5 868.5,-1367.5 1192.5,-1367.5 1192.5,-1337.5 868.5,-1337.5"/>
<text text-anchor="start" x="875.5" y="-1348.9" font-family="Arial" font-size="14.00" fill="#000000">id    </text>
<text text-anchor="start" x="920.594" y="-1348.9" font-family="Arial" font-size="14.00" fill="#666666">[integer]</text>
<polygon fill="none" stroke="#000000" points="868.5,-1307.5 868.5,-1337.5 1192.5,-1337.5 1192.5,-1307.5 868.5,-1307.5"/>
<text text-anchor="start" x="875.5" y="-1318.9" font-family="Arial" font-size="14.00" fill="#000000">parent_query    </text>
<text text-anchor="start" x="992.1774" y="-1318.9" font-family="Arial" font-size="14.00" fill="#666666">[integer]</text>
<polygon fill="none" stroke="#000000" points="868.5,-1277.5 868.5,-1307.5 1192.5,-1307.5 1192.5,-1277.5 868.5,-1277.5"/>
<text text-anchor="start" x="875.5" y="-1288.9" font-family="Arial" font-size="14.00" fill="#000000">seq_no    </text>
<text text-anchor="start" x="955.6178" y="-1288.9" font-family="Arial" font-size="14.00" fill="#666666">[integer]</text>
<polygon fill="none" stroke="#000000" points="868.5,-1247.5 868.5,-1277.5 1192.5,-1277.5 1192.5,-1247.5 868.5,-1247.5"/>
<text text-anchor="start" x="875.5" y="-1258.9" font-family="Arial" font-size="14.00" fill="#000000">child_query    </text>
<text text-anchor="start" x="981.2742" y="-1258.9" font-family="Arial" font-size="14.00" fill="#666666">[integer]</text>
</g>
<!-- query.query_sequence&#45;&gt;query.stored_query -->
<g id="edge5" class="edge">
<title>query.query_sequence:child_query&#45;&gt;query.stored_query:id</title>
<path fill="none" stroke="#000000" d="M1030.8068,-1237.358C1037.302,-1132.6655 1145.0838,-1140.86 1178.5,-1034 1191.3005,-993.0659 1221.3889,-937.5 1178.5,-937.5"/>
<polygon fill="#000000" stroke="#000000" points="1030.8025,-1237.5046 1026.0021,-1247.3639 1030.6512,-1242.5023 1030.5,-1247.5 1030.5,-1247.5 1030.5,-1247.5 1030.6512,-1242.5023 1034.9979,-1247.6361 1030.8025,-1237.5046 1030.8025,-1237.5046"/>
<text text-anchor="start" x="1037.481" y="-1257.5" font-family="Arial" font-size="10.00" fill="#000000">FOREIGN KEY (child_query) REFERENCES query.stored_query(id) ON DELETE CASCADE DEFERRABLE INITIALLY DEFERRED</text>
</g>
<!-- query.query_sequence&#45;&gt;query.stored_query -->
<g id="edge6" class="edge">
<title>query.query_sequence:parent_query&#45;&gt;query.stored_query:id</title>
<path fill="none" stroke="#000000" d="M1200.9008,-1316.7588C1233.1322,-1268.8661 1218.2126,-937.5 1178.5,-937.5"/>
<polygon fill="#000000" stroke="#000000" points="1200.7562,-1316.8576 1189.9609,-1318.7847 1196.6281,-1319.6788 1192.5,-1322.5 1192.5,-1322.5 1192.5,-1322.5 1196.6281,-1319.6788 1195.0391,-1326.2153 1200.7562,-1316.8576 1200.7562,-1316.8576"/>
<text text-anchor="start" x="1199.587" y="-1332.5" font-family="Arial" font-size="10.00" fill="#000000">FOREIGN KEY (parent_query) REFERENCES query.stored_query(id) ON DELETE CASCADE DEFERRABLE INITIALLY DEFERRED</text>
</g>
<!-- query.select_item -->
<g id="node7" class="node">
<title>query.select_item</title>
<polygon fill="#efefef" stroke="transparent" points="1296.5,-1397.5 1296.5,-1432.5 1578.5,-1432.5 1578.5,-1397.5 1296.5,-1397.5"/>
<polygon fill="none" stroke="#000000" points="1296.5,-1397.5 1296.5,-1432.5 1578.5,-1432.5 1578.5,-1397.5 1296.5,-1397.5"/>
<text text-anchor="start" x="1303.2046" y="-1410.3" font-family="Arial Bold" font-size="18.00" fill="#000000">query.select_item</text>
<text text-anchor="start" x="1444.2274" y="-1410.3" font-family="Arial" font-size="14.00" fill="#000000">    </text>
<text text-anchor="start" x="1478.4322" y="-1410.3" font-family="Arial" font-size="14.00" fill="#666666">[BASE TABLE]</text>
<polygon fill="none" stroke="#000000" points="1296.5,-1367.5 1296.5,-1397.5 1578.5,-1397.5 1578.5,-1367.5 1296.5,-1367.5"/>
<text text-anchor="start" x="1303.5" y="-1378.9" font-family="Arial" font-size="14.00" fill="#000000">id    </text>
<text text-anchor="start" x="1348.594" y="-1378.9" font-family="Arial" font-size="14.00" fill="#666666">[integer]</text>
<polygon fill="none" stroke="#000000" points="1296.5,-1337.5 1296.5,-1367.5 1578.5,-1367.5 1578.5,-1337.5 1296.5,-1337.5"/>
<text text-anchor="start" x="1303.5" y="-1348.9" font-family="Arial" font-size="14.00" fill="#000000">stored_query    </text>
<text text-anchor="start" x="1419.3948" y="-1348.9" font-family="Arial" font-size="14.00" fill="#666666">[integer]</text>
<polygon fill="none" stroke="#000000" points="1296.5,-1307.5 1296.5,-1337.5 1578.5,-1337.5 1578.5,-1307.5 1296.5,-1307.5"/>
<text text-anchor="start" x="1303.5" y="-1318.9" font-family="Arial" font-size="14.00" fill="#000000">seq_no    </text>
<text text-anchor="start" x="1383.6178" y="-1318.9" font-family="Arial" font-size="14.00" fill="#666666">[integer]</text>
<polygon fill="none" stroke="#000000" points="1296.5,-1277.5 1296.5,-1307.5 1578.5,-1307.5 1578.5,-1277.5 1296.5,-1277.5"/>
<text text-anchor="start" x="1303.5" y="-1288.9" font-family="Arial" font-size="14.00" fill="#000000">expression    </text>
<text text-anchor="start" x="1405.385" y="-1288.9" font-family="Arial" font-size="14.00" fill="#666666">[integer]</text>
<polygon fill="none" stroke="#000000" points="1296.5,-1247.5 1296.5,-1277.5 1578.5,-1277.5 1578.5,-1247.5 1296.5,-1247.5"/>
<text text-anchor="start" x="1303.5" y="-1258.9" font-family="Arial" font-size="14.00" fill="#000000">column_alias    </text>
<text text-anchor="start" x="1419.3808" y="-1258.9" font-family="Arial" font-size="14.00" fill="#666666">[text]</text>
<polygon fill="none" stroke="#000000" points="1296.5,-1217.5 1296.5,-1247.5 1578.5,-1247.5 1578.5,-1217.5 1296.5,-1217.5"/>
<text text-anchor="start" x="1303.5" y="-1228.9" font-family="Arial" font-size="14.00" fill="#000000">grouped_by    </text>
<text text-anchor="start" x="1411.6262" y="-1228.9" font-family="Arial" font-size="14.00" fill="#666666">[boolean]</text>
</g>
<!-- query.select_item&#45;&gt;query.stored_query -->
<g id="edge7" class="edge">
<title>query.select_item:stored_query&#45;&gt;query.stored_query:id</title>
<path fill="none" stroke="#000000" d="M1286.5493,-1350.4335C1236.1293,-1327.875 1263.5614,-1127.1204 1244.5,-1070 1223.6744,-1007.5929 1244.2902,-937.5 1178.5,-937.5"/>
<polygon fill="#000000" stroke="#000000" points="1286.7089,-1350.4666 1295.585,-1356.906 1291.6045,-1351.4833 1296.5,-1352.5 1296.5,-1352.5 1296.5,-1352.5 1291.6045,-1351.4833 1297.415,-1348.094 1286.7089,-1350.4666 1286.7089,-1350.4666"/>
<text text-anchor="start" x="1303.8665" y="-1362.5" font-family="Arial" font-size="10.00" fill="#000000">FOREIGN KEY (stored_query) REFERENCES query.stored_query(id) ON DELETE CASCADE DEFERRABLE INITIALLY DEFERRED</text>
</g>
</g>
</svg>
