<?xml version="1.0" encoding="UTF-8" standalone="no"?>
<!DOCTYPE svg PUBLIC "-//W3C//DTD SVG 1.1//EN"
 "http://www.w3.org/Graphics/SVG/1.1/DTD/svg11.dtd">
<!-- Generated by graphviz version 2.40.1 (20161225.0304)
 -->
<!-- Title: query.from_relation Pages: 1 -->
<svg width="1392pt" height="1409pt"
 viewBox="0.00 0.00 1392.11 1409.00" xmlns="http://www.w3.org/2000/svg" xmlns:xlink="http://www.w3.org/1999/xlink">
<g id="graph0" class="graph" transform="scale(1 1) rotate(0) translate(4 1405)">
<title>query.from_relation</title>
<polygon fill="#ffffff" stroke="transparent" points="-4,4 -4,-1405 1388.1087,-1405 1388.1087,4 -4,4"/>
<!-- query.from_relation -->
<g id="node1" class="node">
<title>query.from_relation</title>
<polygon fill="#efefef" stroke="transparent" points="470.1087,-1012.5 470.1087,-1047.5 766.1087,-1047.5 766.1087,-1012.5 470.1087,-1012.5"/>
<polygon fill="none" stroke="#000000" points="470.1087,-1012.5 470.1087,-1047.5 766.1087,-1047.5 766.1087,-1012.5 470.1087,-1012.5"/>
<text text-anchor="start" x="476.8149" y="-1025.3" font-family="Arial Bold" font-size="18.00" fill="#000000">query.from_relation</text>
<text text-anchor="start" x="631.8345" y="-1025.3" font-family="Arial" font-size="14.00" fill="#000000">    </text>
<text text-anchor="start" x="666.0393" y="-1025.3" font-family="Arial" font-size="14.00" fill="#666666">[BASE TABLE]</text>
<polygon fill="none" stroke="#000000" points="470.1087,-982.5 470.1087,-1012.5 766.1087,-1012.5 766.1087,-982.5 470.1087,-982.5"/>
<text text-anchor="start" x="477.1087" y="-993.9" font-family="Arial" font-size="14.00" fill="#000000">id </text>
<text text-anchor="start" x="491.8885" y="-993.9" font-family="Arial" font-size="14.00" fill="#666666">[integer]</text>
<polygon fill="none" stroke="#000000" points="470.1087,-952.5 470.1087,-982.5 766.1087,-982.5 766.1087,-952.5 470.1087,-952.5"/>
<text text-anchor="start" x="477.1087" y="-963.9" font-family="Arial" font-size="14.00" fill="#000000">type </text>
<text text-anchor="start" x="507.4551" y="-963.9" font-family="Arial" font-size="14.00" fill="#666666">[text]</text>
<polygon fill="none" stroke="#000000" points="470.1087,-922.5 470.1087,-952.5 766.1087,-952.5 766.1087,-922.5 470.1087,-922.5"/>
<text text-anchor="start" x="477.1087" y="-933.9" font-family="Arial" font-size="14.00" fill="#000000">table_name </text>
<text text-anchor="start" x="554.1353" y="-933.9" font-family="Arial" font-size="14.00" fill="#666666">[text]</text>
<polygon fill="none" stroke="#000000" points="470.1087,-892.5 470.1087,-922.5 766.1087,-922.5 766.1087,-892.5 470.1087,-892.5"/>
<text text-anchor="start" x="477.1087" y="-903.9" font-family="Arial" font-size="14.00" fill="#000000">class_name </text>
<text text-anchor="start" x="555.6795" y="-903.9" font-family="Arial" font-size="14.00" fill="#666666">[text]</text>
<polygon fill="none" stroke="#000000" points="470.1087,-862.5 470.1087,-892.5 766.1087,-892.5 766.1087,-862.5 470.1087,-862.5"/>
<text text-anchor="start" x="477.1087" y="-873.9" font-family="Arial" font-size="14.00" fill="#000000">subquery </text>
<text text-anchor="start" x="538.5729" y="-873.9" font-family="Arial" font-size="14.00" fill="#666666">[integer]</text>
<polygon fill="none" stroke="#000000" points="470.1087,-832.5 470.1087,-862.5 766.1087,-862.5 766.1087,-832.5 470.1087,-832.5"/>
<text text-anchor="start" x="477.1087" y="-843.9" font-family="Arial" font-size="14.00" fill="#000000">function_call </text>
<text text-anchor="start" x="558.7959" y="-843.9" font-family="Arial" font-size="14.00" fill="#666666">[integer]</text>
<polygon fill="none" stroke="#000000" points="470.1087,-802.5 470.1087,-832.5 766.1087,-832.5 766.1087,-802.5 470.1087,-802.5"/>
<text text-anchor="start" x="477.1087" y="-813.9" font-family="Arial" font-size="14.00" fill="#000000">table_alias </text>
<text text-anchor="start" x="547.9053" y="-813.9" font-family="Arial" font-size="14.00" fill="#666666">[text]</text>
<polygon fill="none" stroke="#000000" points="470.1087,-772.5 470.1087,-802.5 766.1087,-802.5 766.1087,-772.5 470.1087,-772.5"/>
<text text-anchor="start" x="477.1087" y="-783.9" font-family="Arial" font-size="14.00" fill="#000000">parent_relation </text>
<text text-anchor="start" x="574.3583" y="-783.9" font-family="Arial" font-size="14.00" fill="#666666">[integer]</text>
<polygon fill="none" stroke="#000000" points="470.1087,-742.5 470.1087,-772.5 766.1087,-772.5 766.1087,-742.5 470.1087,-742.5"/>
<text text-anchor="start" x="477.1087" y="-753.9" font-family="Arial" font-size="14.00" fill="#000000">seq_no </text>
<text text-anchor="start" x="526.9123" y="-753.9" font-family="Arial" font-size="14.00" fill="#666666">[integer]</text>
<polygon fill="none" stroke="#000000" points="470.1087,-712.5 470.1087,-742.5 766.1087,-742.5 766.1087,-712.5 470.1087,-712.5"/>
<text text-anchor="start" x="477.1087" y="-723.9" font-family="Arial" font-size="14.00" fill="#000000">join_type </text>
<text text-anchor="start" x="537.0161" y="-723.9" font-family="Arial" font-size="14.00" fill="#666666">[text]</text>
<polygon fill="none" stroke="#000000" points="470.1087,-682.5 470.1087,-712.5 766.1087,-712.5 766.1087,-682.5 470.1087,-682.5"/>
<text text-anchor="start" x="477.1087" y="-693.9" font-family="Arial" font-size="14.00" fill="#000000">on_clause </text>
<text text-anchor="start" x="544.8015" y="-693.9" font-family="Arial" font-size="14.00" fill="#666666">[integer]</text>
<polygon fill="none" stroke="#000000" stroke-width="3" points="468.6087,-681.5 468.6087,-1049.5 767.6087,-1049.5 767.6087,-681.5 468.6087,-681.5"/>
</g>
<!-- query.from_relation&#45;&gt;query.from_relation -->
<g id="edge1" class="edge">
<title>query.from_relation:parent_relation&#45;&gt;query.from_relation:id</title>
<path fill="none" stroke="#000000" d="M619.5103,-812.9395C627.0815,-969.1883 626.6143,-1294 618.1087,-1294 609.4251,-1294 609.1198,-1150.9481 617.1928,-1012.5975"/>
<polygon fill="#000000" stroke="#000000" points="619.5076,-812.8837 623.4942,-802.6682 619.2538,-807.8902 619,-802.8966 619,-802.8966 619,-802.8966 619.2538,-807.8902 614.5058,-803.125 619.5076,-812.8837 619.5076,-812.8837"/>
<text text-anchor="start" x="7.2055" y="-812.8966" font-family="Arial" font-size="10.00" fill="#000000">FOREIGN KEY (parent_relation) REFERENCES query.from_relation(id) ON DELETE CASCADE DEFERRABLE INITIALLY DEFERRED</text>
</g>
<!-- query.stored_query -->
<g id="node3" class="node">
<title>query.stored_query</title>
<polygon fill="#efefef" stroke="transparent" points="275.1087,-417.5 275.1087,-452.5 571.1087,-452.5 571.1087,-417.5 275.1087,-417.5"/>
<polygon fill="none" stroke="#000000" points="275.1087,-417.5 275.1087,-452.5 571.1087,-452.5 571.1087,-417.5 275.1087,-417.5"/>
<text text-anchor="start" x="281.8032" y="-430.3" font-family="Arial Bold" font-size="18.00" fill="#000000">query.stored_query</text>
<text text-anchor="start" x="436.8462" y="-430.3" font-family="Arial" font-size="14.00" fill="#000000">    </text>
<text text-anchor="start" x="471.051" y="-430.3" font-family="Arial" font-size="14.00" fill="#666666">[BASE TABLE]</text>
<polygon fill="none" stroke="#000000" points="275.1087,-387.5 275.1087,-417.5 571.1087,-417.5 571.1087,-387.5 275.1087,-387.5"/>
<text text-anchor="start" x="282.1087" y="-398.9" font-family="Arial" font-size="14.00" fill="#000000">id    </text>
<text text-anchor="start" x="327.2027" y="-398.9" font-family="Arial" font-size="14.00" fill="#666666">[integer]</text>
<polygon fill="none" stroke="#000000" points="275.1087,-357.5 275.1087,-387.5 571.1087,-387.5 571.1087,-357.5 275.1087,-357.5"/>
<text text-anchor="start" x="282.1087" y="-368.9" font-family="Arial" font-size="14.00" fill="#000000">type    </text>
<text text-anchor="start" x="342.7693" y="-368.9" font-family="Arial" font-size="14.00" fill="#666666">[text]</text>
<polygon fill="none" stroke="#000000" points="275.1087,-327.5 275.1087,-357.5 571.1087,-357.5 571.1087,-327.5 275.1087,-327.5"/>
<text text-anchor="start" x="282.1087" y="-338.9" font-family="Arial" font-size="14.00" fill="#000000">use_all    </text>
<text text-anchor="start" x="360.6571" y="-338.9" font-family="Arial" font-size="14.00" fill="#666666">[boolean]</text>
<polygon fill="none" stroke="#000000" points="275.1087,-297.5 275.1087,-327.5 571.1087,-327.5 571.1087,-297.5 275.1087,-297.5"/>
<text text-anchor="start" x="282.1087" y="-308.9" font-family="Arial" font-size="14.00" fill="#000000">use_distinct    </text>
<text text-anchor="start" x="390.2209" y="-308.9" font-family="Arial" font-size="14.00" fill="#666666">[boolean]</text>
<polygon fill="none" stroke="#000000" points="275.1087,-267.5 275.1087,-297.5 571.1087,-297.5 571.1087,-267.5 275.1087,-267.5"/>
<text text-anchor="start" x="282.1087" y="-278.9" font-family="Arial" font-size="14.00" fill="#000000">from_clause    </text>
<text text-anchor="start" x="392.5449" y="-278.9" font-family="Arial" font-size="14.00" fill="#666666">[integer]</text>
<polygon fill="none" stroke="#000000" points="275.1087,-237.5 275.1087,-267.5 571.1087,-267.5 571.1087,-237.5 275.1087,-237.5"/>
<text text-anchor="start" x="282.1087" y="-248.9" font-family="Arial" font-size="14.00" fill="#000000">where_clause    </text>
<text text-anchor="start" x="402.6655" y="-248.9" font-family="Arial" font-size="14.00" fill="#666666">[integer]</text>
<polygon fill="none" stroke="#000000" points="275.1087,-207.5 275.1087,-237.5 571.1087,-237.5 571.1087,-207.5 275.1087,-207.5"/>
<text text-anchor="start" x="282.1087" y="-218.9" font-family="Arial" font-size="14.00" fill="#000000">having_clause    </text>
<text text-anchor="start" x="405.7875" y="-218.9" font-family="Arial" font-size="14.00" fill="#666666">[integer]</text>
<polygon fill="none" stroke="#000000" points="275.1087,-177.5 275.1087,-207.5 571.1087,-207.5 571.1087,-177.5 275.1087,-177.5"/>
<text text-anchor="start" x="282.1087" y="-188.9" font-family="Arial" font-size="14.00" fill="#000000">limit_count    </text>
<text text-anchor="start" x="383.2055" y="-188.9" font-family="Arial" font-size="14.00" fill="#666666">[integer]</text>
<polygon fill="none" stroke="#000000" points="275.1087,-147.5 275.1087,-177.5 571.1087,-177.5 571.1087,-147.5 275.1087,-147.5"/>
<text text-anchor="start" x="282.1087" y="-158.9" font-family="Arial" font-size="14.00" fill="#000000">offset_count    </text>
<text text-anchor="start" x="392.5715" y="-158.9" font-family="Arial" font-size="14.00" fill="#666666">[integer]</text>
</g>
<!-- query.from_relation&#45;&gt;query.stored_query -->
<g id="edge4" class="edge">
<title>query.from_relation:subquery&#45;&gt;query.stored_query:id</title>
<path fill="none" stroke="#000000" d="M459.8209,-877.3228C201.217,-868.1746 567.3186,-507.7997 571.1087,-496 583.817,-456.4353 612.6642,-402.5 571.1087,-402.5"/>
<polygon fill="#000000" stroke="#000000" points="460.1102,-877.3277 470.0312,-881.9993 465.1094,-877.4138 470.1087,-877.5 470.1087,-877.5 470.1087,-877.5 465.1094,-877.4138 470.1862,-873.0007 460.1102,-877.3277 460.1102,-877.3277"/>
<text text-anchor="start" x="170.4292" y="-887.5" font-family="Arial" font-size="10.00" fill="#000000">FOREIGN KEY (subquery) REFERENCES query.stored_query(id)</text>
</g>
<!-- query.expression -->
<g id="node4" class="node">
<title>query.expression</title>
<polygon fill="#efefef" stroke="transparent" points="675.1087,-522.5 675.1087,-557.5 953.1087,-557.5 953.1087,-522.5 675.1087,-522.5"/>
<polygon fill="none" stroke="#000000" points="675.1087,-522.5 675.1087,-557.5 953.1087,-557.5 953.1087,-522.5 675.1087,-522.5"/>
<text text-anchor="start" x="681.8095" y="-535.3" font-family="Arial Bold" font-size="18.00" fill="#000000">query.expression</text>
<text text-anchor="start" x="818.8399" y="-535.3" font-family="Arial" font-size="14.00" fill="#000000">    </text>
<text text-anchor="start" x="853.0447" y="-535.3" font-family="Arial" font-size="14.00" fill="#666666">[BASE TABLE]</text>
<polygon fill="none" stroke="#000000" points="675.1087,-492.5 675.1087,-522.5 953.1087,-522.5 953.1087,-492.5 675.1087,-492.5"/>
<text text-anchor="start" x="682.1087" y="-503.9" font-family="Arial" font-size="14.00" fill="#000000">id    </text>
<text text-anchor="start" x="727.2027" y="-503.9" font-family="Arial" font-size="14.00" fill="#666666">[integer]</text>
<polygon fill="none" stroke="#000000" points="675.1087,-462.5 675.1087,-492.5 953.1087,-492.5 953.1087,-462.5 675.1087,-462.5"/>
<text text-anchor="start" x="682.1087" y="-473.9" font-family="Arial" font-size="14.00" fill="#000000">type    </text>
<text text-anchor="start" x="742.7693" y="-473.9" font-family="Arial" font-size="14.00" fill="#666666">[text]</text>
<polygon fill="none" stroke="#000000" points="675.1087,-432.5 675.1087,-462.5 953.1087,-462.5 953.1087,-432.5 675.1087,-432.5"/>
<text text-anchor="start" x="682.1087" y="-443.9" font-family="Arial" font-size="14.00" fill="#000000">parenthesize    </text>
<text text-anchor="start" x="796.4495" y="-443.9" font-family="Arial" font-size="14.00" fill="#666666">[boolean]</text>
<polygon fill="none" stroke="#000000" points="675.1087,-402.5 675.1087,-432.5 953.1087,-432.5 953.1087,-402.5 675.1087,-402.5"/>
<text text-anchor="start" x="682.1087" y="-413.9" font-family="Arial" font-size="14.00" fill="#000000">parent_expr    </text>
<text text-anchor="start" x="791.0035" y="-413.9" font-family="Arial" font-size="14.00" fill="#666666">[integer]</text>
<polygon fill="none" stroke="#000000" points="675.1087,-372.5 675.1087,-402.5 953.1087,-402.5 953.1087,-372.5 675.1087,-372.5"/>
<text text-anchor="start" x="682.1087" y="-383.9" font-family="Arial" font-size="14.00" fill="#000000">seq_no    </text>
<text text-anchor="start" x="762.2265" y="-383.9" font-family="Arial" font-size="14.00" fill="#666666">[integer]</text>
<polygon fill="none" stroke="#000000" points="675.1087,-342.5 675.1087,-372.5 953.1087,-372.5 953.1087,-342.5 675.1087,-342.5"/>
<text text-anchor="start" x="682.1087" y="-353.9" font-family="Arial" font-size="14.00" fill="#000000">literal    </text>
<text text-anchor="start" x="749.7497" y="-353.9" font-family="Arial" font-size="14.00" fill="#666666">[text]</text>
<polygon fill="none" stroke="#000000" points="675.1087,-312.5 675.1087,-342.5 953.1087,-342.5 953.1087,-312.5 675.1087,-312.5"/>
<text text-anchor="start" x="682.1087" y="-323.9" font-family="Arial" font-size="14.00" fill="#000000">table_alias    </text>
<text text-anchor="start" x="783.2195" y="-323.9" font-family="Arial" font-size="14.00" fill="#666666">[text]</text>
<polygon fill="none" stroke="#000000" points="675.1087,-282.5 675.1087,-312.5 953.1087,-312.5 953.1087,-282.5 675.1087,-282.5"/>
<text text-anchor="start" x="682.1087" y="-293.9" font-family="Arial" font-size="14.00" fill="#000000">column_name    </text>
<text text-anchor="start" x="804.2195" y="-293.9" font-family="Arial" font-size="14.00" fill="#666666">[text]</text>
<polygon fill="none" stroke="#000000" points="675.1087,-252.5 675.1087,-282.5 953.1087,-282.5 953.1087,-252.5 675.1087,-252.5"/>
<text text-anchor="start" x="682.1087" y="-263.9" font-family="Arial" font-size="14.00" fill="#000000">left_operand    </text>
<text text-anchor="start" x="794.1227" y="-263.9" font-family="Arial" font-size="14.00" fill="#666666">[integer]</text>
<polygon fill="none" stroke="#000000" points="675.1087,-222.5 675.1087,-252.5 953.1087,-252.5 953.1087,-222.5 675.1087,-222.5"/>
<text text-anchor="start" x="682.1087" y="-233.9" font-family="Arial" font-size="14.00" fill="#000000">operator    </text>
<text text-anchor="start" x="768.4383" y="-233.9" font-family="Arial" font-size="14.00" fill="#666666">[text]</text>
<polygon fill="none" stroke="#000000" points="675.1087,-192.5 675.1087,-222.5 953.1087,-222.5 953.1087,-192.5 675.1087,-192.5"/>
<text text-anchor="start" x="682.1087" y="-203.9" font-family="Arial" font-size="14.00" fill="#000000">right_operand    </text>
<text text-anchor="start" x="802.6753" y="-203.9" font-family="Arial" font-size="14.00" fill="#666666">[integer]</text>
<polygon fill="none" stroke="#000000" points="675.1087,-162.5 675.1087,-192.5 953.1087,-192.5 953.1087,-162.5 675.1087,-162.5"/>
<text text-anchor="start" x="682.1087" y="-173.9" font-family="Arial" font-size="14.00" fill="#000000">function_id    </text>
<text text-anchor="start" x="784.0035" y="-173.9" font-family="Arial" font-size="14.00" fill="#666666">[integer]</text>
<polygon fill="none" stroke="#000000" points="675.1087,-132.5 675.1087,-162.5 953.1087,-162.5 953.1087,-132.5 675.1087,-132.5"/>
<text text-anchor="start" x="682.1087" y="-143.9" font-family="Arial" font-size="14.00" fill="#000000">subquery    </text>
<text text-anchor="start" x="773.8871" y="-143.9" font-family="Arial" font-size="14.00" fill="#666666">[integer]</text>
<polygon fill="none" stroke="#000000" points="675.1087,-102.5 675.1087,-132.5 953.1087,-132.5 953.1087,-102.5 675.1087,-102.5"/>
<text text-anchor="start" x="682.1087" y="-113.9" font-family="Arial" font-size="14.00" fill="#000000">cast_type    </text>
<text text-anchor="start" x="776.2251" y="-113.9" font-family="Arial" font-size="14.00" fill="#666666">[integer]</text>
<polygon fill="none" stroke="#000000" points="675.1087,-72.5 675.1087,-102.5 953.1087,-102.5 953.1087,-72.5 675.1087,-72.5"/>
<text text-anchor="start" x="682.1087" y="-83.9" font-family="Arial" font-size="14.00" fill="#000000">negate    </text>
<text text-anchor="start" x="759.1171" y="-83.9" font-family="Arial" font-size="14.00" fill="#666666">[boolean]</text>
<polygon fill="none" stroke="#000000" points="675.1087,-42.5 675.1087,-72.5 953.1087,-72.5 953.1087,-42.5 675.1087,-42.5"/>
<text text-anchor="start" x="682.1087" y="-53.9" font-family="Arial" font-size="14.00" fill="#000000">bind_variable    </text>
<text text-anchor="start" x="799.5547" y="-53.9" font-family="Arial" font-size="14.00" fill="#666666">[text]</text>
</g>
<!-- query.from_relation&#45;&gt;query.expression -->
<g id="edge5" class="edge">
<title>query.from_relation:function_call&#45;&gt;query.expression:id</title>
<path fill="none" stroke="#000000" d="M776.4638,-846.9018C856.4466,-837.1843 816.651,-711.3483 766.1087,-637 741.6562,-601.0301 699.5611,-636.9699 675.1087,-601 651.7462,-566.6335 633.5531,-507.5 675.1087,-507.5"/>
<polygon fill="#000000" stroke="#000000" points="776.092,-846.9232 765.8491,-843.0075 771.1004,-847.2116 766.1087,-847.5 766.1087,-847.5 766.1087,-847.5 771.1004,-847.2116 766.3682,-851.9925 776.092,-846.9232 776.092,-846.9232"/>
<text text-anchor="start" x="773.2102" y="-857.5" font-family="Arial" font-size="10.00" fill="#000000">FOREIGN KEY (function_call) REFERENCES query.expression(id)</text>
</g>
<!-- query.from_relation&#45;&gt;query.expression -->
<g id="edge6" class="edge">
<title>query.from_relation:on_clause&#45;&gt;query.expression:id</title>
<path fill="none" stroke="#000000" d="M776.016,-694.9046C789.2372,-685.9341 778.8636,-655.7626 766.1087,-637 741.6562,-601.0301 699.5611,-636.9699 675.1087,-601 651.7462,-566.6335 633.5531,-507.5 675.1087,-507.5"/>
<polygon fill="#000000" stroke="#000000" points="775.7823,-694.9658 764.9683,-693.1469 770.9455,-696.2329 766.1087,-697.5 766.1087,-697.5 766.1087,-697.5 770.9455,-696.2329 767.2491,-701.8531 775.7823,-694.9658 775.7823,-694.9658"/>
<text text-anchor="start" x="773.1482" y="-707.5" font-family="Arial" font-size="10.00" fill="#000000">FOREIGN KEY (on_clause) REFERENCES query.expression(id) DEFERRABLE INITIALLY DEFERRED</text>
</g>
<!-- query.record_column -->
<g id="node2" class="node">
<title>query.record_column</title>
<polygon fill="#efefef" stroke="transparent" points="463.1087,-1322.5 463.1087,-1357.5 773.1087,-1357.5 773.1087,-1322.5 463.1087,-1322.5"/>
<polygon fill="none" stroke="#000000" points="463.1087,-1322.5 463.1087,-1357.5 773.1087,-1357.5 773.1087,-1322.5 463.1087,-1322.5"/>
<text text-anchor="start" x="469.8111" y="-1335.3" font-family="Arial Bold" font-size="18.00" fill="#000000">query.record_column</text>
<text text-anchor="start" x="638.8383" y="-1335.3" font-family="Arial" font-size="14.00" fill="#000000">    </text>
<text text-anchor="start" x="673.0431" y="-1335.3" font-family="Arial" font-size="14.00" fill="#666666">[BASE TABLE]</text>
<polygon fill="none" stroke="#000000" points="463.1087,-1292.5 463.1087,-1322.5 773.1087,-1322.5 773.1087,-1292.5 463.1087,-1292.5"/>
<text text-anchor="start" x="470.1087" y="-1303.9" font-family="Arial" font-size="14.00" fill="#000000">id    </text>
<text text-anchor="start" x="515.2027" y="-1303.9" font-family="Arial" font-size="14.00" fill="#666666">[integer]</text>
<polygon fill="none" stroke="#000000" points="463.1087,-1262.5 463.1087,-1292.5 773.1087,-1292.5 773.1087,-1262.5 463.1087,-1262.5"/>
<text text-anchor="start" x="470.1087" y="-1273.9" font-family="Arial" font-size="14.00" fill="#000000">from_relation    </text>
<text text-anchor="start" x="585.9853" y="-1273.9" font-family="Arial" font-size="14.00" fill="#666666">[integer]</text>
<polygon fill="none" stroke="#000000" points="463.1087,-1232.5 463.1087,-1262.5 773.1087,-1262.5 773.1087,-1232.5 463.1087,-1232.5"/>
<text text-anchor="start" x="470.1087" y="-1243.9" font-family="Arial" font-size="14.00" fill="#000000">seq_no    </text>
<text text-anchor="start" x="550.2265" y="-1243.9" font-family="Arial" font-size="14.00" fill="#666666">[integer]</text>
<polygon fill="none" stroke="#000000" points="463.1087,-1202.5 463.1087,-1232.5 773.1087,-1232.5 773.1087,-1202.5 463.1087,-1202.5"/>
<text text-anchor="start" x="470.1087" y="-1213.9" font-family="Arial" font-size="14.00" fill="#000000">column_name    </text>
<text text-anchor="start" x="592.2195" y="-1213.9" font-family="Arial" font-size="14.00" fill="#666666">[text]</text>
<polygon fill="none" stroke="#000000" points="463.1087,-1172.5 463.1087,-1202.5 773.1087,-1202.5 773.1087,-1172.5 463.1087,-1172.5"/>
<text text-anchor="start" x="470.1087" y="-1183.9" font-family="Arial" font-size="14.00" fill="#000000">column_type    </text>
<text text-anchor="start" x="583.6669" y="-1183.9" font-family="Arial" font-size="14.00" fill="#666666">[integer]</text>
</g>
<!-- query.record_column&#45;&gt;query.from_relation -->
<g id="edge2" class="edge">
<title>query.record_column:from_relation&#45;&gt;query.from_relation:id</title>
<path fill="none" stroke="#000000" d="M783.3689,-1276.839C897.1013,-1261.8652 887.0666,-997.5 766.1087,-997.5"/>
<polygon fill="#000000" stroke="#000000" points="783.088,-1276.857 772.8193,-1273.0093 778.0983,-1277.1785 773.1087,-1277.5 773.1087,-1277.5 773.1087,-1277.5 778.0983,-1277.1785 773.398,-1281.9907 783.088,-1276.857 783.088,-1276.857"/>
<text text-anchor="start" x="780.4882" y="-1287.5" font-family="Arial" font-size="10.00" fill="#000000">FOREIGN KEY (from_relation) REFERENCES query.from_relation(id) ON DELETE CASCADE DEFERRABLE INITIALLY DEFERRED</text>
</g>
<!-- query.stored_query&#45;&gt;query.from_relation -->
<g id="edge3" class="edge">
<title>query.stored_query:from_clause&#45;&gt;query.from_relation:id</title>
<path fill="none" stroke="#000000" d="M581.5044,-283.0545C660.9077,-292.0716 598.9937,-409.1862 571.1087,-496 547.5348,-569.3921 493.6825,-563.6079 470.1087,-637 421.1102,-789.5461 309.8865,-997.5 470.1087,-997.5"/>
<polygon fill="#000000" stroke="#000000" points="581.0945,-283.0327 571.3484,-278.0064 576.1016,-282.7664 571.1087,-282.5 571.1087,-282.5 571.1087,-282.5 576.1016,-282.7664 570.869,-286.9936 581.0945,-283.0327 581.0945,-283.0327"/>
<text text-anchor="start" x="81.7122" y="-292.5" font-family="Arial" font-size="10.00" fill="#000000">FOREIGN KEY (from_clause) REFERENCES query.from_relation(id) DEFERRABLE INITIALLY DEFERRED</text>
</g>
</g>
</svg>
