<?xml version="1.0" encoding="UTF-8" standalone="no"?>
<!DOCTYPE svg PUBLIC "-//W3C//DTD SVG 1.1//EN"
 "http://www.w3.org/Graphics/SVG/1.1/DTD/svg11.dtd">
<!-- Generated by graphviz version 2.40.1 (20161225.0304)
 -->
<!-- Title: reporter.xact_paid_totals Pages: 1 -->
<svg width="389pt" height="255pt"
 viewBox="0.00 0.00 389.00 255.00" xmlns="http://www.w3.org/2000/svg" xmlns:xlink="http://www.w3.org/1999/xlink">
<g id="graph0" class="graph" transform="scale(1 1) rotate(0) translate(4 251)">
<title>reporter.xact_paid_totals</title>
<polygon fill="#ffffff" stroke="transparent" points="-4,4 -4,-251 385,-251 385,4 -4,4"/>
<!-- reporter.xact_paid_totals -->
<g id="node1" class="node">
<title>reporter.xact_paid_totals</title>
<polygon fill="#efefef" stroke="transparent" points="46.5,-165.5 46.5,-200.5 335.5,-200.5 335.5,-165.5 46.5,-165.5"/>
<polygon fill="none" stroke="#000000" points="46.5,-165.5 46.5,-200.5 335.5,-200.5 335.5,-165.5 46.5,-165.5"/>
<text text-anchor="start" x="53.0926" y="-178.3" font-family="Arial Bold" font-size="18.00" fill="#000000">reporter.xact_paid_totals</text>
<text text-anchor="start" x="251.143" y="-178.3" font-family="Arial" font-size="14.00" fill="#000000">    </text>
<text text-anchor="start" x="285.3478" y="-178.3" font-family="Arial" font-size="14.00" fill="#666666">[VIEW]</text>
<polygon fill="none" stroke="#000000" points="46.5,-135.5 46.5,-165.5 335.5,-165.5 335.5,-135.5 46.5,-135.5"/>
<text text-anchor="start" x="53.5" y="-146.9" font-family="Arial" font-size="14.00" fill="#000000">xact </text>
<text text-anchor="start" x="83.0638" y="-146.9" font-family="Arial" font-size="14.00" fill="#666666">[bigint]</text>
<polygon fill="none" stroke="#000000" points="46.5,-105.5 46.5,-135.5 335.5,-135.5 335.5,-105.5 46.5,-105.5"/>
<text text-anchor="start" x="53.5" y="-116.9" font-family="Arial" font-size="14.00" fill="#000000">unvoided </text>
<text text-anchor="start" x="114.1928" y="-116.9" font-family="Arial" font-size="14.00" fill="#666666">[numeric]</text>
<polygon fill="none" stroke="#000000" points="46.5,-75.5 46.5,-105.5 335.5,-105.5 335.5,-75.5 46.5,-75.5"/>
<text text-anchor="start" x="53.5" y="-86.9" font-family="Arial" font-size="14.00" fill="#000000">voided </text>
<text text-anchor="start" x="98.6276" y="-86.9" font-family="Arial" font-size="14.00" fill="#666666">[numeric]</text>
<polygon fill="none" stroke="#000000" points="46.5,-45.5 46.5,-75.5 335.5,-75.5 335.5,-45.5 46.5,-45.5"/>
<text text-anchor="start" x="53.5" y="-56.9" font-family="Arial" font-size="14.00" fill="#000000">total </text>
<text text-anchor="start" x="83.8436" y="-56.9" font-family="Arial" font-size="14.00" fill="#666666">[numeric]</text>
<polygon fill="none" stroke="#000000" stroke-width="3" points="44.5,-44.5 44.5,-202.5 336.5,-202.5 336.5,-44.5 44.5,-44.5"/>
</g>
</g>
</svg>
