<?xml version="1.0" encoding="UTF-8" standalone="no"?>
<!DOCTYPE svg PUBLIC "-//W3C//DTD SVG 1.1//EN"
 "http://www.w3.org/Graphics/SVG/1.1/DTD/svg11.dtd">
<!-- Generated by graphviz version 2.40.1 (20161225.0304)
 -->
<!-- Title: reporter.report_folder Pages: 1 -->
<svg width="1247pt" height="2429pt"
 viewBox="0.00 0.00 1247.00 2429.00" xmlns="http://www.w3.org/2000/svg" xmlns:xlink="http://www.w3.org/1999/xlink">
<g id="graph0" class="graph" transform="scale(1 1) rotate(0) translate(4 2425)">
<title>reporter.report_folder</title>
<polygon fill="#ffffff" stroke="transparent" points="-4,4 -4,-2425 1243,-2425 1243,4 -4,4"/>
<!-- reporter.report_folder -->
<g id="node1" class="node">
<title>reporter.report_folder</title>
<polygon fill="#efefef" stroke="transparent" points="463,-1882.5 463,-1917.5 774,-1917.5 774,-1882.5 463,-1882.5"/>
<polygon fill="none" stroke="#000000" points="463,-1882.5 463,-1917.5 774,-1917.5 774,-1882.5 463,-1882.5"/>
<text text-anchor="start" x="469.7038" y="-1895.3" font-family="Arial Bold" font-size="18.00" fill="#000000">reporter.report_folder</text>
<text text-anchor="start" x="639.7282" y="-1895.3" font-family="Arial" font-size="14.00" fill="#000000">    </text>
<text text-anchor="start" x="673.933" y="-1895.3" font-family="Arial" font-size="14.00" fill="#666666">[BASE TABLE]</text>
<polygon fill="none" stroke="#000000" points="463,-1852.5 463,-1882.5 774,-1882.5 774,-1852.5 463,-1852.5"/>
<text text-anchor="start" x="470" y="-1863.9" font-family="Arial" font-size="14.00" fill="#000000">id </text>
<text text-anchor="start" x="484.7798" y="-1863.9" font-family="Arial" font-size="14.00" fill="#666666">[integer]</text>
<polygon fill="none" stroke="#000000" points="463,-1822.5 463,-1852.5 774,-1852.5 774,-1822.5 463,-1822.5"/>
<text text-anchor="start" x="470" y="-1833.9" font-family="Arial" font-size="14.00" fill="#000000">parent </text>
<text text-anchor="start" x="513.5722" y="-1833.9" font-family="Arial" font-size="14.00" fill="#666666">[integer]</text>
<polygon fill="none" stroke="#000000" points="463,-1792.5 463,-1822.5 774,-1822.5 774,-1792.5 463,-1792.5"/>
<text text-anchor="start" x="470" y="-1803.9" font-family="Arial" font-size="14.00" fill="#000000">owner </text>
<text text-anchor="start" x="512.0056" y="-1803.9" font-family="Arial" font-size="14.00" fill="#666666">[integer]</text>
<polygon fill="none" stroke="#000000" points="463,-1762.5 463,-1792.5 774,-1792.5 774,-1762.5 463,-1762.5"/>
<text text-anchor="start" x="470" y="-1773.9" font-family="Arial" font-size="14.00" fill="#000000">create_time </text>
<text text-anchor="start" x="547.0126" y="-1773.9" font-family="Arial" font-size="14.00" fill="#666666">[timestamp with time zone]</text>
<polygon fill="none" stroke="#000000" points="463,-1732.5 463,-1762.5 774,-1762.5 774,-1732.5 463,-1732.5"/>
<text text-anchor="start" x="470" y="-1743.9" font-family="Arial" font-size="14.00" fill="#000000">name </text>
<text text-anchor="start" x="508.899" y="-1743.9" font-family="Arial" font-size="14.00" fill="#666666">[text]</text>
<polygon fill="none" stroke="#000000" points="463,-1702.5 463,-1732.5 774,-1732.5 774,-1702.5 463,-1702.5"/>
<text text-anchor="start" x="470" y="-1713.9" font-family="Arial" font-size="14.00" fill="#000000">shared </text>
<text text-anchor="start" x="516.6816" y="-1713.9" font-family="Arial" font-size="14.00" fill="#666666">[boolean]</text>
<polygon fill="none" stroke="#000000" points="463,-1672.5 463,-1702.5 774,-1702.5 774,-1672.5 463,-1672.5"/>
<text text-anchor="start" x="470" y="-1683.9" font-family="Arial" font-size="14.00" fill="#000000">share_with </text>
<text text-anchor="start" x="541.568" y="-1683.9" font-family="Arial" font-size="14.00" fill="#666666">[integer]</text>
<polygon fill="none" stroke="#000000" stroke-width="3" points="461,-1671.5 461,-1919.5 775,-1919.5 775,-1671.5 461,-1671.5"/>
</g>
<!-- reporter.report_folder&#45;&gt;reporter.report_folder -->
<g id="edge2" class="edge">
<title>reporter.report_folder:parent&#45;&gt;reporter.report_folder:id</title>
<path fill="none" stroke="#000000" d="M620.6268,-1862.639C627.9627,-1988.6359 627.4204,-2171 619,-2171 610.3604,-2171 610.0144,-2006.6614 617.9622,-1882.7755"/>
<polygon fill="#000000" stroke="#000000" points="620.6193,-1862.5129 624.5052,-1852.2587 620.3164,-1857.5221 620.0135,-1852.5313 620.0135,-1852.5313 620.0135,-1852.5313 620.3164,-1857.5221 615.5218,-1852.8039 620.6193,-1862.5129 620.6193,-1862.5129"/>
<text text-anchor="start" x="627.5025" y="-1862.5313" font-family="Arial" font-size="10.00" fill="#000000">FOREIGN KEY (parent) REFERENCES reporter.report_folder(id) DEFERRABLE INITIALLY DEFERRED</text>
</g>
<!-- actor.usr -->
<g id="node3" class="node">
<title>actor.usr</title>
<polygon fill="#efefef" stroke="transparent" points="264,-1512.5 264,-1547.5 584,-1547.5 584,-1512.5 264,-1512.5"/>
<polygon fill="none" stroke="#000000" points="264,-1512.5 264,-1547.5 584,-1547.5 584,-1512.5 264,-1512.5"/>
<text text-anchor="start" x="325.2123" y="-1525.3" font-family="Arial Bold" font-size="18.00" fill="#000000">actor.usr</text>
<text text-anchor="start" x="395.2197" y="-1525.3" font-family="Arial" font-size="14.00" fill="#000000">    </text>
<text text-anchor="start" x="429.4245" y="-1525.3" font-family="Arial" font-size="14.00" fill="#666666">[BASE TABLE]</text>
<polygon fill="none" stroke="#000000" points="264,-1482.5 264,-1512.5 584,-1512.5 584,-1482.5 264,-1482.5"/>
<text text-anchor="start" x="271" y="-1493.9" font-family="Arial" font-size="14.00" fill="#000000">id    </text>
<text text-anchor="start" x="316.094" y="-1493.9" font-family="Arial" font-size="14.00" fill="#666666">[integer]</text>
<polygon fill="none" stroke="#000000" points="264,-1452.5 264,-1482.5 584,-1482.5 584,-1452.5 264,-1452.5"/>
<text text-anchor="start" x="271" y="-1463.9" font-family="Arial" font-size="14.00" fill="#000000">card    </text>
<text text-anchor="start" x="332.4306" y="-1463.9" font-family="Arial" font-size="14.00" fill="#666666">[integer]</text>
<polygon fill="none" stroke="#000000" points="264,-1422.5 264,-1452.5 584,-1452.5 584,-1422.5 264,-1422.5"/>
<text text-anchor="start" x="271" y="-1433.9" font-family="Arial" font-size="14.00" fill="#000000">profile    </text>
<text text-anchor="start" x="343.317" y="-1433.9" font-family="Arial" font-size="14.00" fill="#666666">[integer]</text>
<polygon fill="none" stroke="#000000" points="264,-1392.5 264,-1422.5 584,-1422.5 584,-1392.5 264,-1392.5"/>
<text text-anchor="start" x="271" y="-1403.9" font-family="Arial" font-size="14.00" fill="#000000">usrname    </text>
<text text-anchor="start" x="359.6564" y="-1403.9" font-family="Arial" font-size="14.00" fill="#666666">[text]</text>
<polygon fill="none" stroke="#000000" points="264,-1362.5 264,-1392.5 584,-1392.5 584,-1362.5 264,-1362.5"/>
<text text-anchor="start" x="271" y="-1373.9" font-family="Arial" font-size="14.00" fill="#000000">email    </text>
<text text-anchor="start" x="338.6438" y="-1373.9" font-family="Arial" font-size="14.00" fill="#666666">[text]</text>
<polygon fill="none" stroke="#000000" points="264,-1332.5 264,-1362.5 584,-1362.5 584,-1332.5 264,-1332.5"/>
<text text-anchor="start" x="271" y="-1343.9" font-family="Arial" font-size="14.00" fill="#000000">passwd    </text>
<text text-anchor="start" x="352.6592" y="-1343.9" font-family="Arial" font-size="14.00" fill="#666666">[text]</text>
<polygon fill="none" stroke="#000000" points="264,-1302.5 264,-1332.5 584,-1332.5 584,-1302.5 264,-1302.5"/>
<text text-anchor="start" x="271" y="-1313.9" font-family="Arial" font-size="14.00" fill="#000000">standing    </text>
<text text-anchor="start" x="358.115" y="-1313.9" font-family="Arial" font-size="14.00" fill="#666666">[integer]</text>
<polygon fill="none" stroke="#000000" points="264,-1272.5 264,-1302.5 584,-1302.5 584,-1272.5 264,-1272.5"/>
<text text-anchor="start" x="271" y="-1283.9" font-family="Arial" font-size="14.00" fill="#000000">ident_type    </text>
<text text-anchor="start" x="369.7882" y="-1283.9" font-family="Arial" font-size="14.00" fill="#666666">[integer]</text>
<polygon fill="none" stroke="#000000" points="264,-1242.5 264,-1272.5 584,-1272.5 584,-1242.5 264,-1242.5"/>
<text text-anchor="start" x="271" y="-1253.9" font-family="Arial" font-size="14.00" fill="#000000">ident_value    </text>
<text text-anchor="start" x="376.7868" y="-1253.9" font-family="Arial" font-size="14.00" fill="#666666">[text]</text>
<polygon fill="none" stroke="#000000" points="264,-1212.5 264,-1242.5 584,-1242.5 584,-1212.5 264,-1212.5"/>
<text text-anchor="start" x="271" y="-1223.9" font-family="Arial" font-size="14.00" fill="#000000">ident_type2    </text>
<text text-anchor="start" x="377.5708" y="-1223.9" font-family="Arial" font-size="14.00" fill="#666666">[integer]</text>
<polygon fill="none" stroke="#000000" points="264,-1182.5 264,-1212.5 584,-1212.5 584,-1182.5 264,-1182.5"/>
<text text-anchor="start" x="271" y="-1193.9" font-family="Arial" font-size="14.00" fill="#000000">ident_value2    </text>
<text text-anchor="start" x="384.5694" y="-1193.9" font-family="Arial" font-size="14.00" fill="#666666">[text]</text>
<polygon fill="none" stroke="#000000" points="264,-1152.5 264,-1182.5 584,-1182.5 584,-1152.5 264,-1152.5"/>
<text text-anchor="start" x="271" y="-1163.9" font-family="Arial" font-size="14.00" fill="#000000">net_access_level    </text>
<text text-anchor="start" x="412.5694" y="-1163.9" font-family="Arial" font-size="14.00" fill="#666666">[integer]</text>
<polygon fill="none" stroke="#000000" points="264,-1122.5 264,-1152.5 584,-1152.5 584,-1122.5 264,-1122.5"/>
<text text-anchor="start" x="271" y="-1133.9" font-family="Arial" font-size="14.00" fill="#000000">photo_url    </text>
<text text-anchor="start" x="363.5582" y="-1133.9" font-family="Arial" font-size="14.00" fill="#666666">[text]</text>
<polygon fill="none" stroke="#000000" points="264,-1092.5 264,-1122.5 584,-1122.5 584,-1092.5 264,-1092.5"/>
<text text-anchor="start" x="271" y="-1103.9" font-family="Arial" font-size="14.00" fill="#000000">prefix    </text>
<text text-anchor="start" x="339.4278" y="-1103.9" font-family="Arial" font-size="14.00" fill="#666666">[text]</text>
<polygon fill="none" stroke="#000000" points="264,-1062.5 264,-1092.5 584,-1092.5 584,-1062.5 264,-1062.5"/>
<text text-anchor="start" x="271" y="-1073.9" font-family="Arial" font-size="14.00" fill="#000000">first_given_name    </text>
<text text-anchor="start" x="411.7812" y="-1073.9" font-family="Arial" font-size="14.00" fill="#666666">[text]</text>
<polygon fill="none" stroke="#000000" points="264,-1032.5 264,-1062.5 584,-1062.5 584,-1032.5 264,-1032.5"/>
<text text-anchor="start" x="271" y="-1043.9" font-family="Arial" font-size="14.00" fill="#000000">second_given_name    </text>
<text text-anchor="start" x="434.3632" y="-1043.9" font-family="Arial" font-size="14.00" fill="#666666">[text]</text>
<polygon fill="none" stroke="#000000" points="264,-1002.5 264,-1032.5 584,-1032.5 584,-1002.5 264,-1002.5"/>
<text text-anchor="start" x="271" y="-1013.9" font-family="Arial" font-size="14.00" fill="#000000">family_name    </text>
<text text-anchor="start" x="384.5428" y="-1013.9" font-family="Arial" font-size="14.00" fill="#666666">[text]</text>
<polygon fill="none" stroke="#000000" points="264,-972.5 264,-1002.5 584,-1002.5 584,-972.5 264,-972.5"/>
<text text-anchor="start" x="271" y="-983.9" font-family="Arial" font-size="14.00" fill="#000000">suffix    </text>
<text text-anchor="start" x="337.8752" y="-983.9" font-family="Arial" font-size="14.00" fill="#666666">[text]</text>
<polygon fill="none" stroke="#000000" points="264,-942.5 264,-972.5 584,-972.5 584,-942.5 264,-942.5"/>
<text text-anchor="start" x="271" y="-953.9" font-family="Arial" font-size="14.00" fill="#000000">alias    </text>
<text text-anchor="start" x="333.9832" y="-953.9" font-family="Arial" font-size="14.00" fill="#666666">[text]</text>
<polygon fill="none" stroke="#000000" points="264,-912.5 264,-942.5 584,-942.5 584,-912.5 264,-912.5"/>
<text text-anchor="start" x="271" y="-923.9" font-family="Arial" font-size="14.00" fill="#000000">day_phone    </text>
<text text-anchor="start" x="374.4656" y="-923.9" font-family="Arial" font-size="14.00" fill="#666666">[text]</text>
<polygon fill="none" stroke="#000000" points="264,-882.5 264,-912.5 584,-912.5 584,-882.5 264,-882.5"/>
<text text-anchor="start" x="271" y="-893.9" font-family="Arial" font-size="14.00" fill="#000000">evening_phone    </text>
<text text-anchor="start" x="400.92" y="-893.9" font-family="Arial" font-size="14.00" fill="#666666">[text]</text>
<polygon fill="none" stroke="#000000" points="264,-852.5 264,-882.5 584,-882.5 584,-852.5 264,-852.5"/>
<text text-anchor="start" x="271" y="-863.9" font-family="Arial" font-size="14.00" fill="#000000">other_phone    </text>
<text text-anchor="start" x="383.7994" y="-863.9" font-family="Arial" font-size="14.00" fill="#666666">[text]</text>
<polygon fill="none" stroke="#000000" points="264,-822.5 264,-852.5 584,-852.5 584,-822.5 264,-822.5"/>
<text text-anchor="start" x="271" y="-833.9" font-family="Arial" font-size="14.00" fill="#000000">mailing_address    </text>
<text text-anchor="start" x="407.1066" y="-833.9" font-family="Arial" font-size="14.00" fill="#666666">[integer]</text>
<polygon fill="none" stroke="#000000" points="264,-792.5 264,-822.5 584,-822.5 584,-792.5 264,-792.5"/>
<text text-anchor="start" x="271" y="-803.9" font-family="Arial" font-size="14.00" fill="#000000">billing_address    </text>
<text text-anchor="start" x="398.5526" y="-803.9" font-family="Arial" font-size="14.00" fill="#666666">[integer]</text>
<polygon fill="none" stroke="#000000" points="264,-762.5 264,-792.5 584,-792.5 584,-762.5 264,-762.5"/>
<text text-anchor="start" x="271" y="-773.9" font-family="Arial" font-size="14.00" fill="#000000">home_ou    </text>
<text text-anchor="start" x="363.561" y="-773.9" font-family="Arial" font-size="14.00" fill="#666666">[integer]</text>
<polygon fill="none" stroke="#000000" points="264,-732.5 264,-762.5 584,-762.5 584,-732.5 264,-732.5"/>
<text text-anchor="start" x="271" y="-743.9" font-family="Arial" font-size="14.00" fill="#000000">dob    </text>
<text text-anchor="start" x="328.5526" y="-743.9" font-family="Arial" font-size="14.00" fill="#666666">[date]</text>
<polygon fill="none" stroke="#000000" points="264,-702.5 264,-732.5 584,-732.5 584,-702.5 264,-702.5"/>
<text text-anchor="start" x="271" y="-713.9" font-family="Arial" font-size="14.00" fill="#000000">active    </text>
<text text-anchor="start" x="341.7672" y="-713.9" font-family="Arial" font-size="14.00" fill="#666666">[boolean]</text>
<polygon fill="none" stroke="#000000" points="264,-672.5 264,-702.5 584,-702.5 584,-672.5 264,-672.5"/>
<text text-anchor="start" x="271" y="-683.9" font-family="Arial" font-size="14.00" fill="#000000">master_account    </text>
<text text-anchor="start" x="404.7854" y="-683.9" font-family="Arial" font-size="14.00" fill="#666666">[boolean]</text>
<polygon fill="none" stroke="#000000" points="264,-642.5 264,-672.5 584,-672.5 584,-642.5 264,-642.5"/>
<text text-anchor="start" x="271" y="-653.9" font-family="Arial" font-size="14.00" fill="#000000">super_user    </text>
<text text-anchor="start" x="375.2216" y="-653.9" font-family="Arial" font-size="14.00" fill="#666666">[boolean]</text>
<polygon fill="none" stroke="#000000" points="264,-612.5 264,-642.5 584,-642.5 584,-612.5 264,-612.5"/>
<text text-anchor="start" x="271" y="-623.9" font-family="Arial" font-size="14.00" fill="#000000">barred    </text>
<text text-anchor="start" x="345.6564" y="-623.9" font-family="Arial" font-size="14.00" fill="#666666">[boolean]</text>
<polygon fill="none" stroke="#000000" points="264,-582.5 264,-612.5 584,-612.5 584,-582.5 264,-582.5"/>
<text text-anchor="start" x="271" y="-593.9" font-family="Arial" font-size="14.00" fill="#000000">deleted    </text>
<text text-anchor="start" x="351.115" y="-593.9" font-family="Arial" font-size="14.00" fill="#666666">[boolean]</text>
<polygon fill="none" stroke="#000000" points="264,-552.5 264,-582.5 584,-582.5 584,-552.5 264,-552.5"/>
<text text-anchor="start" x="271" y="-563.9" font-family="Arial" font-size="14.00" fill="#000000">juvenile    </text>
<text text-anchor="start" x="352.655" y="-563.9" font-family="Arial" font-size="14.00" fill="#666666">[boolean]</text>
<polygon fill="none" stroke="#000000" points="264,-522.5 264,-552.5 584,-552.5 584,-522.5 264,-522.5"/>
<text text-anchor="start" x="271" y="-533.9" font-family="Arial" font-size="14.00" fill="#000000">usrgroup    </text>
<text text-anchor="start" x="360.439" y="-533.9" font-family="Arial" font-size="14.00" fill="#666666">[integer]</text>
<polygon fill="none" stroke="#000000" points="264,-492.5 264,-522.5 584,-522.5 584,-492.5 264,-492.5"/>
<text text-anchor="start" x="271" y="-503.9" font-family="Arial" font-size="14.00" fill="#000000">claims_returned_count    </text>
<text text-anchor="start" x="446.7896" y="-503.9" font-family="Arial" font-size="14.00" fill="#666666">[integer]</text>
<polygon fill="none" stroke="#000000" points="264,-462.5 264,-492.5 584,-492.5 584,-462.5 264,-462.5"/>
<text text-anchor="start" x="271" y="-473.9" font-family="Arial" font-size="14.00" fill="#000000">credit_forward_balance    </text>
<text text-anchor="start" x="450.6788" y="-473.9" font-family="Arial" font-size="14.00" fill="#666666">[numeric(6,2)]</text>
<polygon fill="none" stroke="#000000" points="264,-432.5 264,-462.5 584,-462.5 584,-432.5 264,-432.5"/>
<text text-anchor="start" x="271" y="-443.9" font-family="Arial" font-size="14.00" fill="#000000">last_xact_id    </text>
<text text-anchor="start" x="379.1122" y="-443.9" font-family="Arial" font-size="14.00" fill="#666666">[text]</text>
<polygon fill="none" stroke="#000000" points="264,-402.5 264,-432.5 584,-432.5 584,-402.5 264,-402.5"/>
<text text-anchor="start" x="271" y="-413.9" font-family="Arial" font-size="14.00" fill="#000000">alert_message    </text>
<text text-anchor="start" x="397.0014" y="-413.9" font-family="Arial" font-size="14.00" fill="#666666">[text]</text>
<polygon fill="none" stroke="#000000" points="264,-372.5 264,-402.5 584,-402.5 584,-372.5 264,-372.5"/>
<text text-anchor="start" x="271" y="-383.9" font-family="Arial" font-size="14.00" fill="#000000">create_date    </text>
<text text-anchor="start" x="379.1248" y="-383.9" font-family="Arial" font-size="14.00" fill="#666666">[timestamp with time zone]</text>
<polygon fill="none" stroke="#000000" points="264,-342.5 264,-372.5 584,-372.5 584,-342.5 264,-342.5"/>
<text text-anchor="start" x="271" y="-353.9" font-family="Arial" font-size="14.00" fill="#000000">expire_date    </text>
<text text-anchor="start" x="378.3408" y="-353.9" font-family="Arial" font-size="14.00" fill="#666666">[timestamp with time zone]</text>
<polygon fill="none" stroke="#000000" points="264,-312.5 264,-342.5 584,-342.5 584,-312.5 264,-312.5"/>
<text text-anchor="start" x="271" y="-323.9" font-family="Arial" font-size="14.00" fill="#000000">claims_never_checked_out_count    </text>
<text text-anchor="start" x="516.8246" y="-323.9" font-family="Arial" font-size="14.00" fill="#666666">[integer]</text>
<polygon fill="none" stroke="#000000" points="264,-282.5 264,-312.5 584,-312.5 584,-282.5 264,-282.5"/>
<text text-anchor="start" x="270.7609" y="-293.9" font-family="Arial" font-size="14.00" fill="#000000">last_update_time    </text>
<text text-anchor="start" x="411.5547" y="-293.9" font-family="Arial" font-size="14.00" fill="#666666">[timestamp with time zone]</text>
<polygon fill="none" stroke="#000000" points="264,-252.5 264,-282.5 584,-282.5 584,-252.5 264,-252.5"/>
<text text-anchor="start" x="271" y="-263.9" font-family="Arial" font-size="14.00" fill="#000000">pref_prefix    </text>
<text text-anchor="start" x="371.3268" y="-263.9" font-family="Arial" font-size="14.00" fill="#666666">[text]</text>
<polygon fill="none" stroke="#000000" points="264,-222.5 264,-252.5 584,-252.5 584,-222.5 264,-222.5"/>
<text text-anchor="start" x="271" y="-233.9" font-family="Arial" font-size="14.00" fill="#000000">pref_first_given_name    </text>
<text text-anchor="start" x="443.6802" y="-233.9" font-family="Arial" font-size="14.00" fill="#666666">[text]</text>
<polygon fill="none" stroke="#000000" points="264,-192.5 264,-222.5 584,-222.5 584,-192.5 264,-192.5"/>
<text text-anchor="start" x="271" y="-203.9" font-family="Arial" font-size="14.00" fill="#000000">pref_second_given_name    </text>
<text text-anchor="start" x="466.2622" y="-203.9" font-family="Arial" font-size="14.00" fill="#666666">[text]</text>
<polygon fill="none" stroke="#000000" points="264,-162.5 264,-192.5 584,-192.5 584,-162.5 264,-162.5"/>
<text text-anchor="start" x="271" y="-173.9" font-family="Arial" font-size="14.00" fill="#000000">pref_family_name    </text>
<text text-anchor="start" x="416.4418" y="-173.9" font-family="Arial" font-size="14.00" fill="#666666">[text]</text>
<polygon fill="none" stroke="#000000" points="264,-132.5 264,-162.5 584,-162.5 584,-132.5 264,-132.5"/>
<text text-anchor="start" x="271" y="-143.9" font-family="Arial" font-size="14.00" fill="#000000">pref_suffix    </text>
<text text-anchor="start" x="369.7742" y="-143.9" font-family="Arial" font-size="14.00" fill="#666666">[text]</text>
<polygon fill="none" stroke="#000000" points="264,-102.5 264,-132.5 584,-132.5 584,-102.5 264,-102.5"/>
<text text-anchor="start" x="271" y="-113.9" font-family="Arial" font-size="14.00" fill="#000000">name_keywords    </text>
<text text-anchor="start" x="407.1108" y="-113.9" font-family="Arial" font-size="14.00" fill="#666666">[text]</text>
<polygon fill="none" stroke="#000000" points="264,-72.5 264,-102.5 584,-102.5 584,-72.5 264,-72.5"/>
<text text-anchor="start" x="271" y="-83.9" font-family="Arial" font-size="14.00" fill="#000000">name_kw_tsvector    </text>
<text text-anchor="start" x="421.892" y="-83.9" font-family="Arial" font-size="14.00" fill="#666666">[tsvector]</text>
<polygon fill="none" stroke="#000000" points="264,-42.5 264,-72.5 584,-72.5 584,-42.5 264,-42.5"/>
<text text-anchor="start" x="271" y="-53.9" font-family="Arial" font-size="14.00" fill="#000000">guardian    </text>
<text text-anchor="start" x="359.6676" y="-53.9" font-family="Arial" font-size="14.00" fill="#666666">[text]</text>
</g>
<!-- reporter.report_folder&#45;&gt;actor.usr -->
<g id="edge3" class="edge">
<title>reporter.report_folder:owner&#45;&gt;actor.usr:id</title>
<path fill="none" stroke="#000000" d="M452.861,-1806.8118C385.708,-1797.1655 417.1942,-1688.4184 463,-1627 496.5435,-1582.0235 550.4565,-1635.9765 584,-1591 608.8437,-1557.6885 625.5556,-1497.5 584,-1497.5"/>
<polygon fill="#000000" stroke="#000000" points="453.023,-1806.8227 462.6952,-1811.9897 458.0115,-1807.1614 463,-1807.5 463,-1807.5 463,-1807.5 458.0115,-1807.1614 463.3048,-1803.0103 453.023,-1806.8227 453.023,-1806.8227"/>
<text text-anchor="start" x="47.831" y="-1817.5" font-family="Arial" font-size="10.00" fill="#000000">FOREIGN KEY (owner) REFERENCES actor.usr(id) DEFERRABLE INITIALLY DEFERRED</text>
</g>
<!-- actor.org_unit -->
<g id="node4" class="node">
<title>actor.org_unit</title>
<polygon fill="#efefef" stroke="transparent" points="689,-972.5 689,-1007.5 940,-1007.5 940,-972.5 689,-972.5"/>
<polygon fill="none" stroke="#000000" points="689,-972.5 689,-1007.5 940,-1007.5 940,-972.5 689,-972.5"/>
<text text-anchor="start" x="695.7017" y="-985.3" font-family="Arial Bold" font-size="18.00" fill="#000000">actor.org_unit</text>
<text text-anchor="start" x="805.7303" y="-985.3" font-family="Arial" font-size="14.00" fill="#000000">    </text>
<text text-anchor="start" x="839.9351" y="-985.3" font-family="Arial" font-size="14.00" fill="#666666">[BASE TABLE]</text>
<polygon fill="none" stroke="#000000" points="689,-942.5 689,-972.5 940,-972.5 940,-942.5 689,-942.5"/>
<text text-anchor="start" x="696" y="-953.9" font-family="Arial" font-size="14.00" fill="#000000">id    </text>
<text text-anchor="start" x="741.094" y="-953.9" font-family="Arial" font-size="14.00" fill="#666666">[integer]</text>
<polygon fill="none" stroke="#000000" points="689,-912.5 689,-942.5 940,-942.5 940,-912.5 689,-912.5"/>
<text text-anchor="start" x="696" y="-923.9" font-family="Arial" font-size="14.00" fill="#000000">parent_ou    </text>
<text text-anchor="start" x="793.2342" y="-923.9" font-family="Arial" font-size="14.00" fill="#666666">[integer]</text>
<polygon fill="none" stroke="#000000" points="689,-882.5 689,-912.5 940,-912.5 940,-882.5 689,-882.5"/>
<text text-anchor="start" x="696" y="-893.9" font-family="Arial" font-size="14.00" fill="#000000">ou_type    </text>
<text text-anchor="start" x="780.0084" y="-893.9" font-family="Arial" font-size="14.00" fill="#666666">[integer]</text>
<polygon fill="none" stroke="#000000" points="689,-852.5 689,-882.5 940,-882.5 940,-852.5 689,-852.5"/>
<text text-anchor="start" x="696" y="-863.9" font-family="Arial" font-size="14.00" fill="#000000">ill_address    </text>
<text text-anchor="start" x="797.0982" y="-863.9" font-family="Arial" font-size="14.00" fill="#666666">[integer]</text>
<polygon fill="none" stroke="#000000" points="689,-822.5 689,-852.5 940,-852.5 940,-822.5 689,-822.5"/>
<text text-anchor="start" x="696" y="-833.9" font-family="Arial" font-size="14.00" fill="#000000">holds_address    </text>
<text text-anchor="start" x="821.2328" y="-833.9" font-family="Arial" font-size="14.00" fill="#666666">[integer]</text>
<polygon fill="none" stroke="#000000" points="689,-792.5 689,-822.5 940,-822.5 940,-792.5 689,-792.5"/>
<text text-anchor="start" x="696" y="-803.9" font-family="Arial" font-size="14.00" fill="#000000">mailing_address    </text>
<text text-anchor="start" x="832.1066" y="-803.9" font-family="Arial" font-size="14.00" fill="#666666">[integer]</text>
<polygon fill="none" stroke="#000000" points="689,-762.5 689,-792.5 940,-792.5 940,-762.5 689,-762.5"/>
<text text-anchor="start" x="696" y="-773.9" font-family="Arial" font-size="14.00" fill="#000000">billing_address    </text>
<text text-anchor="start" x="823.5526" y="-773.9" font-family="Arial" font-size="14.00" fill="#666666">[integer]</text>
<polygon fill="none" stroke="#000000" points="689,-732.5 689,-762.5 940,-762.5 940,-732.5 689,-732.5"/>
<text text-anchor="start" x="696" y="-743.9" font-family="Arial" font-size="14.00" fill="#000000">shortname    </text>
<text text-anchor="start" x="796.3296" y="-743.9" font-family="Arial" font-size="14.00" fill="#666666">[text]</text>
<polygon fill="none" stroke="#000000" points="689,-702.5 689,-732.5 940,-732.5 940,-702.5 689,-702.5"/>
<text text-anchor="start" x="696" y="-713.9" font-family="Arial" font-size="14.00" fill="#000000">name    </text>
<text text-anchor="start" x="765.2132" y="-713.9" font-family="Arial" font-size="14.00" fill="#666666">[text]</text>
<polygon fill="none" stroke="#000000" points="689,-672.5 689,-702.5 940,-702.5 940,-672.5 689,-672.5"/>
<text text-anchor="start" x="696" y="-683.9" font-family="Arial" font-size="14.00" fill="#000000">email    </text>
<text text-anchor="start" x="763.6438" y="-683.9" font-family="Arial" font-size="14.00" fill="#666666">[text]</text>
<polygon fill="none" stroke="#000000" points="689,-642.5 689,-672.5 940,-672.5 940,-642.5 689,-642.5"/>
<text text-anchor="start" x="696" y="-653.9" font-family="Arial" font-size="14.00" fill="#000000">phone    </text>
<text text-anchor="start" x="769.1178" y="-653.9" font-family="Arial" font-size="14.00" fill="#666666">[text]</text>
<polygon fill="none" stroke="#000000" points="689,-612.5 689,-642.5 940,-642.5 940,-612.5 689,-612.5"/>
<text text-anchor="start" x="696" y="-623.9" font-family="Arial" font-size="14.00" fill="#000000">opac_visible    </text>
<text text-anchor="start" x="807.2202" y="-623.9" font-family="Arial" font-size="14.00" fill="#666666">[boolean]</text>
<polygon fill="none" stroke="#000000" points="689,-582.5 689,-612.5 940,-612.5 940,-582.5 689,-582.5"/>
<text text-anchor="start" x="696" y="-593.9" font-family="Arial" font-size="14.00" fill="#000000">fiscal_calendar    </text>
<text text-anchor="start" x="823.554" y="-593.9" font-family="Arial" font-size="14.00" fill="#666666">[integer]</text>
</g>
<!-- reporter.report_folder&#45;&gt;actor.org_unit -->
<g id="edge4" class="edge">
<title>reporter.report_folder:share_with&#45;&gt;actor.org_unit:id</title>
<path fill="none" stroke="#000000" d="M784.1477,-1686.4117C919.1168,-1655.0753 529.3501,-957.5 689,-957.5"/>
<polygon fill="#000000" stroke="#000000" points="783.943,-1686.4336 773.5201,-1683.0257 778.9715,-1686.9668 774,-1687.5 774,-1687.5 774,-1687.5 778.9715,-1686.9668 774.4799,-1691.9743 783.943,-1686.4336 783.943,-1686.4336"/>
<text text-anchor="start" x="781.156" y="-1697.5" font-family="Arial" font-size="10.00" fill="#000000">FOREIGN KEY (share_with) REFERENCES actor.org_unit(id) DEFERRABLE INITIALLY DEFERRED</text>
</g>
<!-- reporter.report -->
<g id="node2" class="node">
<title>reporter.report</title>
<polygon fill="#efefef" stroke="transparent" points="475,-2342.5 475,-2377.5 762,-2377.5 762,-2342.5 475,-2342.5"/>
<polygon fill="none" stroke="#000000" points="475,-2342.5 475,-2377.5 762,-2377.5 762,-2342.5 475,-2342.5"/>
<text text-anchor="start" x="497.2105" y="-2355.3" font-family="Arial Bold" font-size="18.00" fill="#000000">reporter.report</text>
<text text-anchor="start" x="612.2215" y="-2355.3" font-family="Arial" font-size="14.00" fill="#000000">    </text>
<text text-anchor="start" x="646.4263" y="-2355.3" font-family="Arial" font-size="14.00" fill="#666666">[BASE TABLE]</text>
<polygon fill="none" stroke="#000000" points="475,-2312.5 475,-2342.5 762,-2342.5 762,-2312.5 475,-2312.5"/>
<text text-anchor="start" x="482" y="-2323.9" font-family="Arial" font-size="14.00" fill="#000000">id    </text>
<text text-anchor="start" x="527.094" y="-2323.9" font-family="Arial" font-size="14.00" fill="#666666">[integer]</text>
<polygon fill="none" stroke="#000000" points="475,-2282.5 475,-2312.5 762,-2312.5 762,-2282.5 475,-2282.5"/>
<text text-anchor="start" x="482" y="-2293.9" font-family="Arial" font-size="14.00" fill="#000000">owner    </text>
<text text-anchor="start" x="554.3198" y="-2293.9" font-family="Arial" font-size="14.00" fill="#666666">[integer]</text>
<polygon fill="none" stroke="#000000" points="475,-2252.5 475,-2282.5 762,-2282.5 762,-2252.5 475,-2252.5"/>
<text text-anchor="start" x="481.9944" y="-2263.9" font-family="Arial" font-size="14.00" fill="#000000">create_time    </text>
<text text-anchor="start" x="589.3212" y="-2263.9" font-family="Arial" font-size="14.00" fill="#666666">[timestamp with time zone]</text>
<polygon fill="none" stroke="#000000" points="475,-2222.5 475,-2252.5 762,-2252.5 762,-2222.5 475,-2222.5"/>
<text text-anchor="start" x="482" y="-2233.9" font-family="Arial" font-size="14.00" fill="#000000">name    </text>
<text text-anchor="start" x="551.2132" y="-2233.9" font-family="Arial" font-size="14.00" fill="#666666">[text]</text>
<polygon fill="none" stroke="#000000" points="475,-2192.5 475,-2222.5 762,-2222.5 762,-2192.5 475,-2192.5"/>
<text text-anchor="start" x="482" y="-2203.9" font-family="Arial" font-size="14.00" fill="#000000">description    </text>
<text text-anchor="start" x="583.8822" y="-2203.9" font-family="Arial" font-size="14.00" fill="#666666">[text]</text>
<polygon fill="none" stroke="#000000" points="475,-2162.5 475,-2192.5 762,-2192.5 762,-2162.5 475,-2162.5"/>
<text text-anchor="start" x="482" y="-2173.9" font-family="Arial" font-size="14.00" fill="#000000">template    </text>
<text text-anchor="start" x="569.8836" y="-2173.9" font-family="Arial" font-size="14.00" fill="#666666">[integer]</text>
<polygon fill="none" stroke="#000000" points="475,-2132.5 475,-2162.5 762,-2162.5 762,-2132.5 475,-2132.5"/>
<text text-anchor="start" x="482" y="-2143.9" font-family="Arial" font-size="14.00" fill="#000000">data    </text>
<text text-anchor="start" x="543.4432" y="-2143.9" font-family="Arial" font-size="14.00" fill="#666666">[text]</text>
<polygon fill="none" stroke="#000000" points="475,-2102.5 475,-2132.5 762,-2132.5 762,-2102.5 475,-2102.5"/>
<text text-anchor="start" x="482" y="-2113.9" font-family="Arial" font-size="14.00" fill="#000000">folder    </text>
<text text-anchor="start" x="551.2104" y="-2113.9" font-family="Arial" font-size="14.00" fill="#666666">[integer]</text>
<polygon fill="none" stroke="#000000" points="475,-2072.5 475,-2102.5 762,-2102.5 762,-2072.5 475,-2072.5"/>
<text text-anchor="start" x="482" y="-2083.9" font-family="Arial" font-size="14.00" fill="#000000">recur    </text>
<text text-anchor="start" x="548.0912" y="-2083.9" font-family="Arial" font-size="14.00" fill="#666666">[boolean]</text>
<polygon fill="none" stroke="#000000" points="475,-2042.5 475,-2072.5 762,-2072.5 762,-2042.5 475,-2042.5"/>
<text text-anchor="start" x="482" y="-2053.9" font-family="Arial" font-size="14.00" fill="#000000">recurrence    </text>
<text text-anchor="start" x="583.0996" y="-2053.9" font-family="Arial" font-size="14.00" fill="#666666">[interval]</text>
</g>
<!-- reporter.report&#45;&gt;reporter.report_folder -->
<g id="edge1" class="edge">
<title>reporter.report:folder&#45;&gt;reporter.report_folder:id</title>
<path fill="none" stroke="#000000" d="M464.8628,-2116.7828C363.1313,-2102.1191 355.2372,-1867.5 463,-1867.5"/>
<polygon fill="#000000" stroke="#000000" points="465.0249,-2116.7942 474.6824,-2121.9888 470.0125,-2117.1471 475,-2117.5 475,-2117.5 475,-2117.5 470.0125,-2117.1471 475.3176,-2113.0112 465.0249,-2116.7942 465.0249,-2116.7942"/>
<text text-anchor="start" x="7.159" y="-2127.5" font-family="Arial" font-size="10.00" fill="#000000">FOREIGN KEY (folder) REFERENCES reporter.report_folder(id) DEFERRABLE INITIALLY DEFERRED</text>
</g>
</g>
</svg>
