<?xml version="1.0" encoding="UTF-8" standalone="no"?>
<!DOCTYPE svg PUBLIC "-//W3C//DTD SVG 1.1//EN"
 "http://www.w3.org/Graphics/SVG/1.1/DTD/svg11.dtd">
<!-- Generated by graphviz version 2.40.1 (20161225.0304)
 -->
<!-- Title: reporter.template Pages: 1 -->
<svg width="1195pt" height="2429pt"
 viewBox="0.00 0.00 1195.00 2429.00" xmlns="http://www.w3.org/2000/svg" xmlns:xlink="http://www.w3.org/1999/xlink">
<g id="graph0" class="graph" transform="scale(1 1) rotate(0) translate(4 2425)">
<title>reporter.template</title>
<polygon fill="#ffffff" stroke="transparent" points="-4,4 -4,-2425 1191,-2425 1191,4 -4,4"/>
<!-- reporter.template -->
<g id="node1" class="node">
<title>reporter.template</title>
<polygon fill="#efefef" stroke="transparent" points="422,-1882.5 422,-1917.5 700,-1917.5 700,-1882.5 422,-1882.5"/>
<polygon fill="none" stroke="#000000" points="422,-1882.5 422,-1917.5 700,-1917.5 700,-1882.5 422,-1882.5"/>
<text text-anchor="start" x="428.7053" y="-1895.3" font-family="Arial Bold" font-size="18.00" fill="#000000">reporter.template</text>
<text text-anchor="start" x="565.7267" y="-1895.3" font-family="Arial" font-size="14.00" fill="#000000">    </text>
<text text-anchor="start" x="599.9315" y="-1895.3" font-family="Arial" font-size="14.00" fill="#666666">[BASE TABLE]</text>
<polygon fill="none" stroke="#000000" points="422,-1852.5 422,-1882.5 700,-1882.5 700,-1852.5 422,-1852.5"/>
<text text-anchor="start" x="429" y="-1863.9" font-family="Arial" font-size="14.00" fill="#000000">id </text>
<text text-anchor="start" x="443.7798" y="-1863.9" font-family="Arial" font-size="14.00" fill="#666666">[integer]</text>
<polygon fill="none" stroke="#000000" points="422,-1822.5 422,-1852.5 700,-1852.5 700,-1822.5 422,-1822.5"/>
<text text-anchor="start" x="429" y="-1833.9" font-family="Arial" font-size="14.00" fill="#000000">owner </text>
<text text-anchor="start" x="471.0056" y="-1833.9" font-family="Arial" font-size="14.00" fill="#666666">[integer]</text>
<polygon fill="none" stroke="#000000" points="422,-1792.5 422,-1822.5 700,-1822.5 700,-1792.5 422,-1792.5"/>
<text text-anchor="start" x="429" y="-1803.9" font-family="Arial" font-size="14.00" fill="#000000">create_time </text>
<text text-anchor="start" x="506.0126" y="-1803.9" font-family="Arial" font-size="14.00" fill="#666666">[timestamp with time zone]</text>
<polygon fill="none" stroke="#000000" points="422,-1762.5 422,-1792.5 700,-1792.5 700,-1762.5 422,-1762.5"/>
<text text-anchor="start" x="429" y="-1773.9" font-family="Arial" font-size="14.00" fill="#000000">name </text>
<text text-anchor="start" x="467.899" y="-1773.9" font-family="Arial" font-size="14.00" fill="#666666">[text]</text>
<polygon fill="none" stroke="#000000" points="422,-1732.5 422,-1762.5 700,-1762.5 700,-1732.5 422,-1732.5"/>
<text text-anchor="start" x="429" y="-1743.9" font-family="Arial" font-size="14.00" fill="#000000">description </text>
<text text-anchor="start" x="500.568" y="-1743.9" font-family="Arial" font-size="14.00" fill="#666666">[text]</text>
<polygon fill="none" stroke="#000000" points="422,-1702.5 422,-1732.5 700,-1732.5 700,-1702.5 422,-1702.5"/>
<text text-anchor="start" x="429" y="-1713.9" font-family="Arial" font-size="14.00" fill="#000000">data </text>
<text text-anchor="start" x="460.129" y="-1713.9" font-family="Arial" font-size="14.00" fill="#666666">[text]</text>
<polygon fill="none" stroke="#000000" points="422,-1672.5 422,-1702.5 700,-1702.5 700,-1672.5 422,-1672.5"/>
<text text-anchor="start" x="429" y="-1683.9" font-family="Arial" font-size="14.00" fill="#000000">folder </text>
<text text-anchor="start" x="467.8962" y="-1683.9" font-family="Arial" font-size="14.00" fill="#666666">[integer]</text>
<polygon fill="none" stroke="#000000" stroke-width="3" points="420.5,-1671.5 420.5,-1919.5 701.5,-1919.5 701.5,-1671.5 420.5,-1671.5"/>
</g>
<!-- actor.usr -->
<g id="node3" class="node">
<title>actor.usr</title>
<polygon fill="#efefef" stroke="transparent" points="185,-1512.5 185,-1547.5 505,-1547.5 505,-1512.5 185,-1512.5"/>
<polygon fill="none" stroke="#000000" points="185,-1512.5 185,-1547.5 505,-1547.5 505,-1512.5 185,-1512.5"/>
<text text-anchor="start" x="246.2123" y="-1525.3" font-family="Arial Bold" font-size="18.00" fill="#000000">actor.usr</text>
<text text-anchor="start" x="316.2197" y="-1525.3" font-family="Arial" font-size="14.00" fill="#000000">    </text>
<text text-anchor="start" x="350.4245" y="-1525.3" font-family="Arial" font-size="14.00" fill="#666666">[BASE TABLE]</text>
<polygon fill="none" stroke="#000000" points="185,-1482.5 185,-1512.5 505,-1512.5 505,-1482.5 185,-1482.5"/>
<text text-anchor="start" x="192" y="-1493.9" font-family="Arial" font-size="14.00" fill="#000000">id    </text>
<text text-anchor="start" x="237.094" y="-1493.9" font-family="Arial" font-size="14.00" fill="#666666">[integer]</text>
<polygon fill="none" stroke="#000000" points="185,-1452.5 185,-1482.5 505,-1482.5 505,-1452.5 185,-1452.5"/>
<text text-anchor="start" x="192" y="-1463.9" font-family="Arial" font-size="14.00" fill="#000000">card    </text>
<text text-anchor="start" x="253.4306" y="-1463.9" font-family="Arial" font-size="14.00" fill="#666666">[integer]</text>
<polygon fill="none" stroke="#000000" points="185,-1422.5 185,-1452.5 505,-1452.5 505,-1422.5 185,-1422.5"/>
<text text-anchor="start" x="192" y="-1433.9" font-family="Arial" font-size="14.00" fill="#000000">profile    </text>
<text text-anchor="start" x="264.317" y="-1433.9" font-family="Arial" font-size="14.00" fill="#666666">[integer]</text>
<polygon fill="none" stroke="#000000" points="185,-1392.5 185,-1422.5 505,-1422.5 505,-1392.5 185,-1392.5"/>
<text text-anchor="start" x="192" y="-1403.9" font-family="Arial" font-size="14.00" fill="#000000">usrname    </text>
<text text-anchor="start" x="280.6564" y="-1403.9" font-family="Arial" font-size="14.00" fill="#666666">[text]</text>
<polygon fill="none" stroke="#000000" points="185,-1362.5 185,-1392.5 505,-1392.5 505,-1362.5 185,-1362.5"/>
<text text-anchor="start" x="192" y="-1373.9" font-family="Arial" font-size="14.00" fill="#000000">email    </text>
<text text-anchor="start" x="259.6438" y="-1373.9" font-family="Arial" font-size="14.00" fill="#666666">[text]</text>
<polygon fill="none" stroke="#000000" points="185,-1332.5 185,-1362.5 505,-1362.5 505,-1332.5 185,-1332.5"/>
<text text-anchor="start" x="192" y="-1343.9" font-family="Arial" font-size="14.00" fill="#000000">passwd    </text>
<text text-anchor="start" x="273.6592" y="-1343.9" font-family="Arial" font-size="14.00" fill="#666666">[text]</text>
<polygon fill="none" stroke="#000000" points="185,-1302.5 185,-1332.5 505,-1332.5 505,-1302.5 185,-1302.5"/>
<text text-anchor="start" x="192" y="-1313.9" font-family="Arial" font-size="14.00" fill="#000000">standing    </text>
<text text-anchor="start" x="279.115" y="-1313.9" font-family="Arial" font-size="14.00" fill="#666666">[integer]</text>
<polygon fill="none" stroke="#000000" points="185,-1272.5 185,-1302.5 505,-1302.5 505,-1272.5 185,-1272.5"/>
<text text-anchor="start" x="192" y="-1283.9" font-family="Arial" font-size="14.00" fill="#000000">ident_type    </text>
<text text-anchor="start" x="290.7882" y="-1283.9" font-family="Arial" font-size="14.00" fill="#666666">[integer]</text>
<polygon fill="none" stroke="#000000" points="185,-1242.5 185,-1272.5 505,-1272.5 505,-1242.5 185,-1242.5"/>
<text text-anchor="start" x="192" y="-1253.9" font-family="Arial" font-size="14.00" fill="#000000">ident_value    </text>
<text text-anchor="start" x="297.7868" y="-1253.9" font-family="Arial" font-size="14.00" fill="#666666">[text]</text>
<polygon fill="none" stroke="#000000" points="185,-1212.5 185,-1242.5 505,-1242.5 505,-1212.5 185,-1212.5"/>
<text text-anchor="start" x="192" y="-1223.9" font-family="Arial" font-size="14.00" fill="#000000">ident_type2    </text>
<text text-anchor="start" x="298.5708" y="-1223.9" font-family="Arial" font-size="14.00" fill="#666666">[integer]</text>
<polygon fill="none" stroke="#000000" points="185,-1182.5 185,-1212.5 505,-1212.5 505,-1182.5 185,-1182.5"/>
<text text-anchor="start" x="192" y="-1193.9" font-family="Arial" font-size="14.00" fill="#000000">ident_value2    </text>
<text text-anchor="start" x="305.5694" y="-1193.9" font-family="Arial" font-size="14.00" fill="#666666">[text]</text>
<polygon fill="none" stroke="#000000" points="185,-1152.5 185,-1182.5 505,-1182.5 505,-1152.5 185,-1152.5"/>
<text text-anchor="start" x="192" y="-1163.9" font-family="Arial" font-size="14.00" fill="#000000">net_access_level    </text>
<text text-anchor="start" x="333.5694" y="-1163.9" font-family="Arial" font-size="14.00" fill="#666666">[integer]</text>
<polygon fill="none" stroke="#000000" points="185,-1122.5 185,-1152.5 505,-1152.5 505,-1122.5 185,-1122.5"/>
<text text-anchor="start" x="192" y="-1133.9" font-family="Arial" font-size="14.00" fill="#000000">photo_url    </text>
<text text-anchor="start" x="284.5582" y="-1133.9" font-family="Arial" font-size="14.00" fill="#666666">[text]</text>
<polygon fill="none" stroke="#000000" points="185,-1092.5 185,-1122.5 505,-1122.5 505,-1092.5 185,-1092.5"/>
<text text-anchor="start" x="192" y="-1103.9" font-family="Arial" font-size="14.00" fill="#000000">prefix    </text>
<text text-anchor="start" x="260.4278" y="-1103.9" font-family="Arial" font-size="14.00" fill="#666666">[text]</text>
<polygon fill="none" stroke="#000000" points="185,-1062.5 185,-1092.5 505,-1092.5 505,-1062.5 185,-1062.5"/>
<text text-anchor="start" x="192" y="-1073.9" font-family="Arial" font-size="14.00" fill="#000000">first_given_name    </text>
<text text-anchor="start" x="332.7812" y="-1073.9" font-family="Arial" font-size="14.00" fill="#666666">[text]</text>
<polygon fill="none" stroke="#000000" points="185,-1032.5 185,-1062.5 505,-1062.5 505,-1032.5 185,-1032.5"/>
<text text-anchor="start" x="192" y="-1043.9" font-family="Arial" font-size="14.00" fill="#000000">second_given_name    </text>
<text text-anchor="start" x="355.3632" y="-1043.9" font-family="Arial" font-size="14.00" fill="#666666">[text]</text>
<polygon fill="none" stroke="#000000" points="185,-1002.5 185,-1032.5 505,-1032.5 505,-1002.5 185,-1002.5"/>
<text text-anchor="start" x="192" y="-1013.9" font-family="Arial" font-size="14.00" fill="#000000">family_name    </text>
<text text-anchor="start" x="305.5428" y="-1013.9" font-family="Arial" font-size="14.00" fill="#666666">[text]</text>
<polygon fill="none" stroke="#000000" points="185,-972.5 185,-1002.5 505,-1002.5 505,-972.5 185,-972.5"/>
<text text-anchor="start" x="192" y="-983.9" font-family="Arial" font-size="14.00" fill="#000000">suffix    </text>
<text text-anchor="start" x="258.8752" y="-983.9" font-family="Arial" font-size="14.00" fill="#666666">[text]</text>
<polygon fill="none" stroke="#000000" points="185,-942.5 185,-972.5 505,-972.5 505,-942.5 185,-942.5"/>
<text text-anchor="start" x="192" y="-953.9" font-family="Arial" font-size="14.00" fill="#000000">alias    </text>
<text text-anchor="start" x="254.9832" y="-953.9" font-family="Arial" font-size="14.00" fill="#666666">[text]</text>
<polygon fill="none" stroke="#000000" points="185,-912.5 185,-942.5 505,-942.5 505,-912.5 185,-912.5"/>
<text text-anchor="start" x="192" y="-923.9" font-family="Arial" font-size="14.00" fill="#000000">day_phone    </text>
<text text-anchor="start" x="295.4656" y="-923.9" font-family="Arial" font-size="14.00" fill="#666666">[text]</text>
<polygon fill="none" stroke="#000000" points="185,-882.5 185,-912.5 505,-912.5 505,-882.5 185,-882.5"/>
<text text-anchor="start" x="192" y="-893.9" font-family="Arial" font-size="14.00" fill="#000000">evening_phone    </text>
<text text-anchor="start" x="321.92" y="-893.9" font-family="Arial" font-size="14.00" fill="#666666">[text]</text>
<polygon fill="none" stroke="#000000" points="185,-852.5 185,-882.5 505,-882.5 505,-852.5 185,-852.5"/>
<text text-anchor="start" x="192" y="-863.9" font-family="Arial" font-size="14.00" fill="#000000">other_phone    </text>
<text text-anchor="start" x="304.7994" y="-863.9" font-family="Arial" font-size="14.00" fill="#666666">[text]</text>
<polygon fill="none" stroke="#000000" points="185,-822.5 185,-852.5 505,-852.5 505,-822.5 185,-822.5"/>
<text text-anchor="start" x="192" y="-833.9" font-family="Arial" font-size="14.00" fill="#000000">mailing_address    </text>
<text text-anchor="start" x="328.1066" y="-833.9" font-family="Arial" font-size="14.00" fill="#666666">[integer]</text>
<polygon fill="none" stroke="#000000" points="185,-792.5 185,-822.5 505,-822.5 505,-792.5 185,-792.5"/>
<text text-anchor="start" x="192" y="-803.9" font-family="Arial" font-size="14.00" fill="#000000">billing_address    </text>
<text text-anchor="start" x="319.5526" y="-803.9" font-family="Arial" font-size="14.00" fill="#666666">[integer]</text>
<polygon fill="none" stroke="#000000" points="185,-762.5 185,-792.5 505,-792.5 505,-762.5 185,-762.5"/>
<text text-anchor="start" x="192" y="-773.9" font-family="Arial" font-size="14.00" fill="#000000">home_ou    </text>
<text text-anchor="start" x="284.561" y="-773.9" font-family="Arial" font-size="14.00" fill="#666666">[integer]</text>
<polygon fill="none" stroke="#000000" points="185,-732.5 185,-762.5 505,-762.5 505,-732.5 185,-732.5"/>
<text text-anchor="start" x="192" y="-743.9" font-family="Arial" font-size="14.00" fill="#000000">dob    </text>
<text text-anchor="start" x="249.5526" y="-743.9" font-family="Arial" font-size="14.00" fill="#666666">[date]</text>
<polygon fill="none" stroke="#000000" points="185,-702.5 185,-732.5 505,-732.5 505,-702.5 185,-702.5"/>
<text text-anchor="start" x="192" y="-713.9" font-family="Arial" font-size="14.00" fill="#000000">active    </text>
<text text-anchor="start" x="262.7672" y="-713.9" font-family="Arial" font-size="14.00" fill="#666666">[boolean]</text>
<polygon fill="none" stroke="#000000" points="185,-672.5 185,-702.5 505,-702.5 505,-672.5 185,-672.5"/>
<text text-anchor="start" x="192" y="-683.9" font-family="Arial" font-size="14.00" fill="#000000">master_account    </text>
<text text-anchor="start" x="325.7854" y="-683.9" font-family="Arial" font-size="14.00" fill="#666666">[boolean]</text>
<polygon fill="none" stroke="#000000" points="185,-642.5 185,-672.5 505,-672.5 505,-642.5 185,-642.5"/>
<text text-anchor="start" x="192" y="-653.9" font-family="Arial" font-size="14.00" fill="#000000">super_user    </text>
<text text-anchor="start" x="296.2216" y="-653.9" font-family="Arial" font-size="14.00" fill="#666666">[boolean]</text>
<polygon fill="none" stroke="#000000" points="185,-612.5 185,-642.5 505,-642.5 505,-612.5 185,-612.5"/>
<text text-anchor="start" x="192" y="-623.9" font-family="Arial" font-size="14.00" fill="#000000">barred    </text>
<text text-anchor="start" x="266.6564" y="-623.9" font-family="Arial" font-size="14.00" fill="#666666">[boolean]</text>
<polygon fill="none" stroke="#000000" points="185,-582.5 185,-612.5 505,-612.5 505,-582.5 185,-582.5"/>
<text text-anchor="start" x="192" y="-593.9" font-family="Arial" font-size="14.00" fill="#000000">deleted    </text>
<text text-anchor="start" x="272.115" y="-593.9" font-family="Arial" font-size="14.00" fill="#666666">[boolean]</text>
<polygon fill="none" stroke="#000000" points="185,-552.5 185,-582.5 505,-582.5 505,-552.5 185,-552.5"/>
<text text-anchor="start" x="192" y="-563.9" font-family="Arial" font-size="14.00" fill="#000000">juvenile    </text>
<text text-anchor="start" x="273.655" y="-563.9" font-family="Arial" font-size="14.00" fill="#666666">[boolean]</text>
<polygon fill="none" stroke="#000000" points="185,-522.5 185,-552.5 505,-552.5 505,-522.5 185,-522.5"/>
<text text-anchor="start" x="192" y="-533.9" font-family="Arial" font-size="14.00" fill="#000000">usrgroup    </text>
<text text-anchor="start" x="281.439" y="-533.9" font-family="Arial" font-size="14.00" fill="#666666">[integer]</text>
<polygon fill="none" stroke="#000000" points="185,-492.5 185,-522.5 505,-522.5 505,-492.5 185,-492.5"/>
<text text-anchor="start" x="192" y="-503.9" font-family="Arial" font-size="14.00" fill="#000000">claims_returned_count    </text>
<text text-anchor="start" x="367.7896" y="-503.9" font-family="Arial" font-size="14.00" fill="#666666">[integer]</text>
<polygon fill="none" stroke="#000000" points="185,-462.5 185,-492.5 505,-492.5 505,-462.5 185,-462.5"/>
<text text-anchor="start" x="192" y="-473.9" font-family="Arial" font-size="14.00" fill="#000000">credit_forward_balance    </text>
<text text-anchor="start" x="371.6788" y="-473.9" font-family="Arial" font-size="14.00" fill="#666666">[numeric(6,2)]</text>
<polygon fill="none" stroke="#000000" points="185,-432.5 185,-462.5 505,-462.5 505,-432.5 185,-432.5"/>
<text text-anchor="start" x="192" y="-443.9" font-family="Arial" font-size="14.00" fill="#000000">last_xact_id    </text>
<text text-anchor="start" x="300.1122" y="-443.9" font-family="Arial" font-size="14.00" fill="#666666">[text]</text>
<polygon fill="none" stroke="#000000" points="185,-402.5 185,-432.5 505,-432.5 505,-402.5 185,-402.5"/>
<text text-anchor="start" x="192" y="-413.9" font-family="Arial" font-size="14.00" fill="#000000">alert_message    </text>
<text text-anchor="start" x="318.0014" y="-413.9" font-family="Arial" font-size="14.00" fill="#666666">[text]</text>
<polygon fill="none" stroke="#000000" points="185,-372.5 185,-402.5 505,-402.5 505,-372.5 185,-372.5"/>
<text text-anchor="start" x="192" y="-383.9" font-family="Arial" font-size="14.00" fill="#000000">create_date    </text>
<text text-anchor="start" x="300.1248" y="-383.9" font-family="Arial" font-size="14.00" fill="#666666">[timestamp with time zone]</text>
<polygon fill="none" stroke="#000000" points="185,-342.5 185,-372.5 505,-372.5 505,-342.5 185,-342.5"/>
<text text-anchor="start" x="192" y="-353.9" font-family="Arial" font-size="14.00" fill="#000000">expire_date    </text>
<text text-anchor="start" x="299.3408" y="-353.9" font-family="Arial" font-size="14.00" fill="#666666">[timestamp with time zone]</text>
<polygon fill="none" stroke="#000000" points="185,-312.5 185,-342.5 505,-342.5 505,-312.5 185,-312.5"/>
<text text-anchor="start" x="192" y="-323.9" font-family="Arial" font-size="14.00" fill="#000000">claims_never_checked_out_count    </text>
<text text-anchor="start" x="437.8246" y="-323.9" font-family="Arial" font-size="14.00" fill="#666666">[integer]</text>
<polygon fill="none" stroke="#000000" points="185,-282.5 185,-312.5 505,-312.5 505,-282.5 185,-282.5"/>
<text text-anchor="start" x="191.7609" y="-293.9" font-family="Arial" font-size="14.00" fill="#000000">last_update_time    </text>
<text text-anchor="start" x="332.5547" y="-293.9" font-family="Arial" font-size="14.00" fill="#666666">[timestamp with time zone]</text>
<polygon fill="none" stroke="#000000" points="185,-252.5 185,-282.5 505,-282.5 505,-252.5 185,-252.5"/>
<text text-anchor="start" x="192" y="-263.9" font-family="Arial" font-size="14.00" fill="#000000">pref_prefix    </text>
<text text-anchor="start" x="292.3268" y="-263.9" font-family="Arial" font-size="14.00" fill="#666666">[text]</text>
<polygon fill="none" stroke="#000000" points="185,-222.5 185,-252.5 505,-252.5 505,-222.5 185,-222.5"/>
<text text-anchor="start" x="192" y="-233.9" font-family="Arial" font-size="14.00" fill="#000000">pref_first_given_name    </text>
<text text-anchor="start" x="364.6802" y="-233.9" font-family="Arial" font-size="14.00" fill="#666666">[text]</text>
<polygon fill="none" stroke="#000000" points="185,-192.5 185,-222.5 505,-222.5 505,-192.5 185,-192.5"/>
<text text-anchor="start" x="192" y="-203.9" font-family="Arial" font-size="14.00" fill="#000000">pref_second_given_name    </text>
<text text-anchor="start" x="387.2622" y="-203.9" font-family="Arial" font-size="14.00" fill="#666666">[text]</text>
<polygon fill="none" stroke="#000000" points="185,-162.5 185,-192.5 505,-192.5 505,-162.5 185,-162.5"/>
<text text-anchor="start" x="192" y="-173.9" font-family="Arial" font-size="14.00" fill="#000000">pref_family_name    </text>
<text text-anchor="start" x="337.4418" y="-173.9" font-family="Arial" font-size="14.00" fill="#666666">[text]</text>
<polygon fill="none" stroke="#000000" points="185,-132.5 185,-162.5 505,-162.5 505,-132.5 185,-132.5"/>
<text text-anchor="start" x="192" y="-143.9" font-family="Arial" font-size="14.00" fill="#000000">pref_suffix    </text>
<text text-anchor="start" x="290.7742" y="-143.9" font-family="Arial" font-size="14.00" fill="#666666">[text]</text>
<polygon fill="none" stroke="#000000" points="185,-102.5 185,-132.5 505,-132.5 505,-102.5 185,-102.5"/>
<text text-anchor="start" x="192" y="-113.9" font-family="Arial" font-size="14.00" fill="#000000">name_keywords    </text>
<text text-anchor="start" x="328.1108" y="-113.9" font-family="Arial" font-size="14.00" fill="#666666">[text]</text>
<polygon fill="none" stroke="#000000" points="185,-72.5 185,-102.5 505,-102.5 505,-72.5 185,-72.5"/>
<text text-anchor="start" x="192" y="-83.9" font-family="Arial" font-size="14.00" fill="#000000">name_kw_tsvector    </text>
<text text-anchor="start" x="342.892" y="-83.9" font-family="Arial" font-size="14.00" fill="#666666">[tsvector]</text>
<polygon fill="none" stroke="#000000" points="185,-42.5 185,-72.5 505,-72.5 505,-42.5 185,-42.5"/>
<text text-anchor="start" x="192" y="-53.9" font-family="Arial" font-size="14.00" fill="#000000">guardian    </text>
<text text-anchor="start" x="280.6676" y="-53.9" font-family="Arial" font-size="14.00" fill="#666666">[text]</text>
</g>
<!-- reporter.template&#45;&gt;actor.usr -->
<g id="edge2" class="edge">
<title>reporter.template:owner&#45;&gt;actor.usr:id</title>
<path fill="none" stroke="#000000" d="M411.6505,-1836.9056C331.7571,-1827.2478 372.6738,-1702.1606 422,-1627 444.0617,-1593.3835 482.9383,-1624.6165 505,-1591 527.8004,-1556.258 546.5556,-1497.5 505,-1497.5"/>
<polygon fill="#000000" stroke="#000000" points="412.0165,-1836.9265 421.7419,-1841.9926 417.0082,-1837.2132 422,-1837.5 422,-1837.5 422,-1837.5 417.0082,-1837.2132 422.2581,-1833.0074 412.0165,-1836.9265 412.0165,-1836.9265"/>
<text text-anchor="start" x="6.831" y="-1847.5" font-family="Arial" font-size="10.00" fill="#000000">FOREIGN KEY (owner) REFERENCES actor.usr(id) DEFERRABLE INITIALLY DEFERRED</text>
</g>
<!-- reporter.template_folder -->
<g id="node4" class="node">
<title>reporter.template_folder</title>
<polygon fill="#efefef" stroke="transparent" points="610,-882.5 610,-917.5 943,-917.5 943,-882.5 610,-882.5"/>
<polygon fill="none" stroke="#000000" points="610,-882.5 610,-917.5 943,-917.5 943,-882.5 610,-882.5"/>
<text text-anchor="start" x="616.6986" y="-895.3" font-family="Arial Bold" font-size="18.00" fill="#000000">reporter.template_folder</text>
<text text-anchor="start" x="808.7334" y="-895.3" font-family="Arial" font-size="14.00" fill="#000000">    </text>
<text text-anchor="start" x="842.9382" y="-895.3" font-family="Arial" font-size="14.00" fill="#666666">[BASE TABLE]</text>
<polygon fill="none" stroke="#000000" points="610,-852.5 610,-882.5 943,-882.5 943,-852.5 610,-852.5"/>
<text text-anchor="start" x="617" y="-863.9" font-family="Arial" font-size="14.00" fill="#000000">id    </text>
<text text-anchor="start" x="662.094" y="-863.9" font-family="Arial" font-size="14.00" fill="#666666">[integer]</text>
<polygon fill="none" stroke="#000000" points="610,-822.5 610,-852.5 943,-852.5 943,-822.5 610,-822.5"/>
<text text-anchor="start" x="617" y="-833.9" font-family="Arial" font-size="14.00" fill="#000000">parent    </text>
<text text-anchor="start" x="690.8864" y="-833.9" font-family="Arial" font-size="14.00" fill="#666666">[integer]</text>
<polygon fill="none" stroke="#000000" points="610,-792.5 610,-822.5 943,-822.5 943,-792.5 610,-792.5"/>
<text text-anchor="start" x="617" y="-803.9" font-family="Arial" font-size="14.00" fill="#000000">owner    </text>
<text text-anchor="start" x="689.3198" y="-803.9" font-family="Arial" font-size="14.00" fill="#666666">[integer]</text>
<polygon fill="none" stroke="#000000" points="610,-762.5 610,-792.5 943,-792.5 943,-762.5 610,-762.5"/>
<text text-anchor="start" x="617" y="-773.9" font-family="Arial" font-size="14.00" fill="#000000">create_time    </text>
<text text-anchor="start" x="724.3268" y="-773.9" font-family="Arial" font-size="14.00" fill="#666666">[timestamp with time zone]</text>
<polygon fill="none" stroke="#000000" points="610,-732.5 610,-762.5 943,-762.5 943,-732.5 610,-732.5"/>
<text text-anchor="start" x="617" y="-743.9" font-family="Arial" font-size="14.00" fill="#000000">name    </text>
<text text-anchor="start" x="686.2132" y="-743.9" font-family="Arial" font-size="14.00" fill="#666666">[text]</text>
<polygon fill="none" stroke="#000000" points="610,-702.5 610,-732.5 943,-732.5 943,-702.5 610,-702.5"/>
<text text-anchor="start" x="617" y="-713.9" font-family="Arial" font-size="14.00" fill="#000000">shared    </text>
<text text-anchor="start" x="693.9958" y="-713.9" font-family="Arial" font-size="14.00" fill="#666666">[boolean]</text>
<polygon fill="none" stroke="#000000" points="610,-672.5 610,-702.5 943,-702.5 943,-672.5 610,-672.5"/>
<text text-anchor="start" x="617" y="-683.9" font-family="Arial" font-size="14.00" fill="#000000">share_with    </text>
<text text-anchor="start" x="718.8822" y="-683.9" font-family="Arial" font-size="14.00" fill="#666666">[integer]</text>
</g>
<!-- reporter.template&#45;&gt;reporter.template_folder -->
<g id="edge3" class="edge">
<title>reporter.template:folder&#45;&gt;reporter.template_folder:id</title>
<path fill="none" stroke="#000000" d="M710.0184,-1686.5738C865.7234,-1655.7816 430.2639,-867.5 610,-867.5"/>
<polygon fill="#000000" stroke="#000000" points="709.9575,-1686.5793 699.5857,-1683.0191 704.9788,-1687.0397 700,-1687.5 700,-1687.5 700,-1687.5 704.9788,-1687.0397 700.4143,-1691.9809 709.9575,-1686.5793 709.9575,-1686.5793"/>
<text text-anchor="start" x="707.045" y="-1697.5" font-family="Arial" font-size="10.00" fill="#000000">FOREIGN KEY (folder) REFERENCES reporter.template_folder(id) DEFERRABLE INITIALLY DEFERRED</text>
</g>
<!-- reporter.report -->
<g id="node2" class="node">
<title>reporter.report</title>
<polygon fill="#efefef" stroke="transparent" points="417,-2342.5 417,-2377.5 704,-2377.5 704,-2342.5 417,-2342.5"/>
<polygon fill="none" stroke="#000000" points="417,-2342.5 417,-2377.5 704,-2377.5 704,-2342.5 417,-2342.5"/>
<text text-anchor="start" x="439.2105" y="-2355.3" font-family="Arial Bold" font-size="18.00" fill="#000000">reporter.report</text>
<text text-anchor="start" x="554.2215" y="-2355.3" font-family="Arial" font-size="14.00" fill="#000000">    </text>
<text text-anchor="start" x="588.4263" y="-2355.3" font-family="Arial" font-size="14.00" fill="#666666">[BASE TABLE]</text>
<polygon fill="none" stroke="#000000" points="417,-2312.5 417,-2342.5 704,-2342.5 704,-2312.5 417,-2312.5"/>
<text text-anchor="start" x="424" y="-2323.9" font-family="Arial" font-size="14.00" fill="#000000">id    </text>
<text text-anchor="start" x="469.094" y="-2323.9" font-family="Arial" font-size="14.00" fill="#666666">[integer]</text>
<polygon fill="none" stroke="#000000" points="417,-2282.5 417,-2312.5 704,-2312.5 704,-2282.5 417,-2282.5"/>
<text text-anchor="start" x="424" y="-2293.9" font-family="Arial" font-size="14.00" fill="#000000">owner    </text>
<text text-anchor="start" x="496.3198" y="-2293.9" font-family="Arial" font-size="14.00" fill="#666666">[integer]</text>
<polygon fill="none" stroke="#000000" points="417,-2252.5 417,-2282.5 704,-2282.5 704,-2252.5 417,-2252.5"/>
<text text-anchor="start" x="423.9944" y="-2263.9" font-family="Arial" font-size="14.00" fill="#000000">create_time    </text>
<text text-anchor="start" x="531.3212" y="-2263.9" font-family="Arial" font-size="14.00" fill="#666666">[timestamp with time zone]</text>
<polygon fill="none" stroke="#000000" points="417,-2222.5 417,-2252.5 704,-2252.5 704,-2222.5 417,-2222.5"/>
<text text-anchor="start" x="424" y="-2233.9" font-family="Arial" font-size="14.00" fill="#000000">name    </text>
<text text-anchor="start" x="493.2132" y="-2233.9" font-family="Arial" font-size="14.00" fill="#666666">[text]</text>
<polygon fill="none" stroke="#000000" points="417,-2192.5 417,-2222.5 704,-2222.5 704,-2192.5 417,-2192.5"/>
<text text-anchor="start" x="424" y="-2203.9" font-family="Arial" font-size="14.00" fill="#000000">description    </text>
<text text-anchor="start" x="525.8822" y="-2203.9" font-family="Arial" font-size="14.00" fill="#666666">[text]</text>
<polygon fill="none" stroke="#000000" points="417,-2162.5 417,-2192.5 704,-2192.5 704,-2162.5 417,-2162.5"/>
<text text-anchor="start" x="424" y="-2173.9" font-family="Arial" font-size="14.00" fill="#000000">template    </text>
<text text-anchor="start" x="511.8836" y="-2173.9" font-family="Arial" font-size="14.00" fill="#666666">[integer]</text>
<polygon fill="none" stroke="#000000" points="417,-2132.5 417,-2162.5 704,-2162.5 704,-2132.5 417,-2132.5"/>
<text text-anchor="start" x="424" y="-2143.9" font-family="Arial" font-size="14.00" fill="#000000">data    </text>
<text text-anchor="start" x="485.4432" y="-2143.9" font-family="Arial" font-size="14.00" fill="#666666">[text]</text>
<polygon fill="none" stroke="#000000" points="417,-2102.5 417,-2132.5 704,-2132.5 704,-2102.5 417,-2102.5"/>
<text text-anchor="start" x="424" y="-2113.9" font-family="Arial" font-size="14.00" fill="#000000">folder    </text>
<text text-anchor="start" x="493.2104" y="-2113.9" font-family="Arial" font-size="14.00" fill="#666666">[integer]</text>
<polygon fill="none" stroke="#000000" points="417,-2072.5 417,-2102.5 704,-2102.5 704,-2072.5 417,-2072.5"/>
<text text-anchor="start" x="424" y="-2083.9" font-family="Arial" font-size="14.00" fill="#000000">recur    </text>
<text text-anchor="start" x="490.0912" y="-2083.9" font-family="Arial" font-size="14.00" fill="#666666">[boolean]</text>
<polygon fill="none" stroke="#000000" points="417,-2042.5 417,-2072.5 704,-2072.5 704,-2042.5 417,-2042.5"/>
<text text-anchor="start" x="424" y="-2053.9" font-family="Arial" font-size="14.00" fill="#000000">recurrence    </text>
<text text-anchor="start" x="525.0996" y="-2053.9" font-family="Arial" font-size="14.00" fill="#666666">[interval]</text>
</g>
<!-- reporter.report&#45;&gt;reporter.template -->
<g id="edge1" class="edge">
<title>reporter.report:template&#45;&gt;reporter.template:id</title>
<path fill="none" stroke="#000000" d="M713.9992,-2176.8C780.4337,-2166.9916 753.7896,-2056.5498 704,-2000 620.505,-1905.1684 505.495,-2058.8316 422,-1964 393.6581,-1931.81 379.1111,-1867.5 422,-1867.5"/>
<polygon fill="#000000" stroke="#000000" points="713.9756,-2176.8015 703.6857,-2173.011 708.9878,-2177.1508 704,-2177.5 704,-2177.5 704,-2177.5 708.9878,-2177.1508 704.3143,-2181.989 713.9756,-2176.8015 713.9756,-2176.8015"/>
<text text-anchor="start" x="710.6575" y="-2187.5" font-family="Arial" font-size="10.00" fill="#000000">FOREIGN KEY (template) REFERENCES reporter.template(id) DEFERRABLE INITIALLY DEFERRED</text>
</g>
</g>
</svg>
