<?xml version="1.0" encoding="UTF-8" standalone="no"?>
<!DOCTYPE svg PUBLIC "-//W3C//DTD SVG 1.1//EN"
 "http://www.w3.org/Graphics/SVG/1.1/DTD/svg11.dtd">
<!-- Generated by graphviz version 2.40.1 (20161225.0304)
 -->
<!-- Title: reporter.template_folder Pages: 1 -->
<svg width="1228pt" height="2339pt"
 viewBox="0.00 0.00 1228.00 2339.00" xmlns="http://www.w3.org/2000/svg" xmlns:xlink="http://www.w3.org/1999/xlink">
<g id="graph0" class="graph" transform="scale(1 1) rotate(0) translate(4 2335)">
<title>reporter.template_folder</title>
<polygon fill="#ffffff" stroke="transparent" points="-4,4 -4,-2335 1224,-2335 1224,4 -4,4"/>
<!-- reporter.template_folder -->
<g id="node1" class="node">
<title>reporter.template_folder</title>
<polygon fill="#efefef" stroke="transparent" points="422,-1882.5 422,-1917.5 755,-1917.5 755,-1882.5 422,-1882.5"/>
<polygon fill="none" stroke="#000000" points="422,-1882.5 422,-1917.5 755,-1917.5 755,-1882.5 422,-1882.5"/>
<text text-anchor="start" x="428.6986" y="-1895.3" font-family="Arial Bold" font-size="18.00" fill="#000000">reporter.template_folder</text>
<text text-anchor="start" x="620.7334" y="-1895.3" font-family="Arial" font-size="14.00" fill="#000000">    </text>
<text text-anchor="start" x="654.9382" y="-1895.3" font-family="Arial" font-size="14.00" fill="#666666">[BASE TABLE]</text>
<polygon fill="none" stroke="#000000" points="422,-1852.5 422,-1882.5 755,-1882.5 755,-1852.5 422,-1852.5"/>
<text text-anchor="start" x="429" y="-1863.9" font-family="Arial" font-size="14.00" fill="#000000">id </text>
<text text-anchor="start" x="443.7798" y="-1863.9" font-family="Arial" font-size="14.00" fill="#666666">[integer]</text>
<polygon fill="none" stroke="#000000" points="422,-1822.5 422,-1852.5 755,-1852.5 755,-1822.5 422,-1822.5"/>
<text text-anchor="start" x="429" y="-1833.9" font-family="Arial" font-size="14.00" fill="#000000">parent </text>
<text text-anchor="start" x="472.5722" y="-1833.9" font-family="Arial" font-size="14.00" fill="#666666">[integer]</text>
<polygon fill="none" stroke="#000000" points="422,-1792.5 422,-1822.5 755,-1822.5 755,-1792.5 422,-1792.5"/>
<text text-anchor="start" x="429" y="-1803.9" font-family="Arial" font-size="14.00" fill="#000000">owner </text>
<text text-anchor="start" x="471.0056" y="-1803.9" font-family="Arial" font-size="14.00" fill="#666666">[integer]</text>
<polygon fill="none" stroke="#000000" points="422,-1762.5 422,-1792.5 755,-1792.5 755,-1762.5 422,-1762.5"/>
<text text-anchor="start" x="429" y="-1773.9" font-family="Arial" font-size="14.00" fill="#000000">create_time </text>
<text text-anchor="start" x="506.0126" y="-1773.9" font-family="Arial" font-size="14.00" fill="#666666">[timestamp with time zone]</text>
<polygon fill="none" stroke="#000000" points="422,-1732.5 422,-1762.5 755,-1762.5 755,-1732.5 422,-1732.5"/>
<text text-anchor="start" x="429" y="-1743.9" font-family="Arial" font-size="14.00" fill="#000000">name </text>
<text text-anchor="start" x="467.899" y="-1743.9" font-family="Arial" font-size="14.00" fill="#666666">[text]</text>
<polygon fill="none" stroke="#000000" points="422,-1702.5 422,-1732.5 755,-1732.5 755,-1702.5 422,-1702.5"/>
<text text-anchor="start" x="429" y="-1713.9" font-family="Arial" font-size="14.00" fill="#000000">shared </text>
<text text-anchor="start" x="475.6816" y="-1713.9" font-family="Arial" font-size="14.00" fill="#666666">[boolean]</text>
<polygon fill="none" stroke="#000000" points="422,-1672.5 422,-1702.5 755,-1702.5 755,-1672.5 422,-1672.5"/>
<text text-anchor="start" x="429" y="-1683.9" font-family="Arial" font-size="14.00" fill="#000000">share_with </text>
<text text-anchor="start" x="500.568" y="-1683.9" font-family="Arial" font-size="14.00" fill="#666666">[integer]</text>
<polygon fill="none" stroke="#000000" stroke-width="3" points="420,-1671.5 420,-1919.5 756,-1919.5 756,-1671.5 420,-1671.5"/>
</g>
<!-- reporter.template_folder&#45;&gt;reporter.template_folder -->
<g id="edge2" class="edge">
<title>reporter.template_folder:parent&#45;&gt;reporter.template_folder:id</title>
<path fill="none" stroke="#000000" d="M590.7373,-1862.9331C597.957,-1981.1817 597.3779,-2149 589,-2149 580.3779,-2149 580.0159,-1998.7902 587.9138,-1882.5712"/>
<polygon fill="#000000" stroke="#000000" points="590.7229,-1862.7052 594.5771,-1852.4389 590.4045,-1857.7153 590.0862,-1852.7254 590.0862,-1852.7254 590.0862,-1852.7254 590.4045,-1857.7153 585.5953,-1853.012 590.7229,-1862.7052 590.7229,-1862.7052"/>
<text text-anchor="start" x="597.4612" y="-1862.7254" font-family="Arial" font-size="10.00" fill="#000000">FOREIGN KEY (parent) REFERENCES reporter.template_folder(id) DEFERRABLE INITIALLY DEFERRED</text>
</g>
<!-- actor.usr -->
<g id="node3" class="node">
<title>actor.usr</title>
<polygon fill="#efefef" stroke="transparent" points="234,-1512.5 234,-1547.5 554,-1547.5 554,-1512.5 234,-1512.5"/>
<polygon fill="none" stroke="#000000" points="234,-1512.5 234,-1547.5 554,-1547.5 554,-1512.5 234,-1512.5"/>
<text text-anchor="start" x="295.2123" y="-1525.3" font-family="Arial Bold" font-size="18.00" fill="#000000">actor.usr</text>
<text text-anchor="start" x="365.2197" y="-1525.3" font-family="Arial" font-size="14.00" fill="#000000">    </text>
<text text-anchor="start" x="399.4245" y="-1525.3" font-family="Arial" font-size="14.00" fill="#666666">[BASE TABLE]</text>
<polygon fill="none" stroke="#000000" points="234,-1482.5 234,-1512.5 554,-1512.5 554,-1482.5 234,-1482.5"/>
<text text-anchor="start" x="241" y="-1493.9" font-family="Arial" font-size="14.00" fill="#000000">id    </text>
<text text-anchor="start" x="286.094" y="-1493.9" font-family="Arial" font-size="14.00" fill="#666666">[integer]</text>
<polygon fill="none" stroke="#000000" points="234,-1452.5 234,-1482.5 554,-1482.5 554,-1452.5 234,-1452.5"/>
<text text-anchor="start" x="241" y="-1463.9" font-family="Arial" font-size="14.00" fill="#000000">card    </text>
<text text-anchor="start" x="302.4306" y="-1463.9" font-family="Arial" font-size="14.00" fill="#666666">[integer]</text>
<polygon fill="none" stroke="#000000" points="234,-1422.5 234,-1452.5 554,-1452.5 554,-1422.5 234,-1422.5"/>
<text text-anchor="start" x="241" y="-1433.9" font-family="Arial" font-size="14.00" fill="#000000">profile    </text>
<text text-anchor="start" x="313.317" y="-1433.9" font-family="Arial" font-size="14.00" fill="#666666">[integer]</text>
<polygon fill="none" stroke="#000000" points="234,-1392.5 234,-1422.5 554,-1422.5 554,-1392.5 234,-1392.5"/>
<text text-anchor="start" x="241" y="-1403.9" font-family="Arial" font-size="14.00" fill="#000000">usrname    </text>
<text text-anchor="start" x="329.6564" y="-1403.9" font-family="Arial" font-size="14.00" fill="#666666">[text]</text>
<polygon fill="none" stroke="#000000" points="234,-1362.5 234,-1392.5 554,-1392.5 554,-1362.5 234,-1362.5"/>
<text text-anchor="start" x="241" y="-1373.9" font-family="Arial" font-size="14.00" fill="#000000">email    </text>
<text text-anchor="start" x="308.6438" y="-1373.9" font-family="Arial" font-size="14.00" fill="#666666">[text]</text>
<polygon fill="none" stroke="#000000" points="234,-1332.5 234,-1362.5 554,-1362.5 554,-1332.5 234,-1332.5"/>
<text text-anchor="start" x="241" y="-1343.9" font-family="Arial" font-size="14.00" fill="#000000">passwd    </text>
<text text-anchor="start" x="322.6592" y="-1343.9" font-family="Arial" font-size="14.00" fill="#666666">[text]</text>
<polygon fill="none" stroke="#000000" points="234,-1302.5 234,-1332.5 554,-1332.5 554,-1302.5 234,-1302.5"/>
<text text-anchor="start" x="241" y="-1313.9" font-family="Arial" font-size="14.00" fill="#000000">standing    </text>
<text text-anchor="start" x="328.115" y="-1313.9" font-family="Arial" font-size="14.00" fill="#666666">[integer]</text>
<polygon fill="none" stroke="#000000" points="234,-1272.5 234,-1302.5 554,-1302.5 554,-1272.5 234,-1272.5"/>
<text text-anchor="start" x="241" y="-1283.9" font-family="Arial" font-size="14.00" fill="#000000">ident_type    </text>
<text text-anchor="start" x="339.7882" y="-1283.9" font-family="Arial" font-size="14.00" fill="#666666">[integer]</text>
<polygon fill="none" stroke="#000000" points="234,-1242.5 234,-1272.5 554,-1272.5 554,-1242.5 234,-1242.5"/>
<text text-anchor="start" x="241" y="-1253.9" font-family="Arial" font-size="14.00" fill="#000000">ident_value    </text>
<text text-anchor="start" x="346.7868" y="-1253.9" font-family="Arial" font-size="14.00" fill="#666666">[text]</text>
<polygon fill="none" stroke="#000000" points="234,-1212.5 234,-1242.5 554,-1242.5 554,-1212.5 234,-1212.5"/>
<text text-anchor="start" x="241" y="-1223.9" font-family="Arial" font-size="14.00" fill="#000000">ident_type2    </text>
<text text-anchor="start" x="347.5708" y="-1223.9" font-family="Arial" font-size="14.00" fill="#666666">[integer]</text>
<polygon fill="none" stroke="#000000" points="234,-1182.5 234,-1212.5 554,-1212.5 554,-1182.5 234,-1182.5"/>
<text text-anchor="start" x="241" y="-1193.9" font-family="Arial" font-size="14.00" fill="#000000">ident_value2    </text>
<text text-anchor="start" x="354.5694" y="-1193.9" font-family="Arial" font-size="14.00" fill="#666666">[text]</text>
<polygon fill="none" stroke="#000000" points="234,-1152.5 234,-1182.5 554,-1182.5 554,-1152.5 234,-1152.5"/>
<text text-anchor="start" x="241" y="-1163.9" font-family="Arial" font-size="14.00" fill="#000000">net_access_level    </text>
<text text-anchor="start" x="382.5694" y="-1163.9" font-family="Arial" font-size="14.00" fill="#666666">[integer]</text>
<polygon fill="none" stroke="#000000" points="234,-1122.5 234,-1152.5 554,-1152.5 554,-1122.5 234,-1122.5"/>
<text text-anchor="start" x="241" y="-1133.9" font-family="Arial" font-size="14.00" fill="#000000">photo_url    </text>
<text text-anchor="start" x="333.5582" y="-1133.9" font-family="Arial" font-size="14.00" fill="#666666">[text]</text>
<polygon fill="none" stroke="#000000" points="234,-1092.5 234,-1122.5 554,-1122.5 554,-1092.5 234,-1092.5"/>
<text text-anchor="start" x="241" y="-1103.9" font-family="Arial" font-size="14.00" fill="#000000">prefix    </text>
<text text-anchor="start" x="309.4278" y="-1103.9" font-family="Arial" font-size="14.00" fill="#666666">[text]</text>
<polygon fill="none" stroke="#000000" points="234,-1062.5 234,-1092.5 554,-1092.5 554,-1062.5 234,-1062.5"/>
<text text-anchor="start" x="241" y="-1073.9" font-family="Arial" font-size="14.00" fill="#000000">first_given_name    </text>
<text text-anchor="start" x="381.7812" y="-1073.9" font-family="Arial" font-size="14.00" fill="#666666">[text]</text>
<polygon fill="none" stroke="#000000" points="234,-1032.5 234,-1062.5 554,-1062.5 554,-1032.5 234,-1032.5"/>
<text text-anchor="start" x="241" y="-1043.9" font-family="Arial" font-size="14.00" fill="#000000">second_given_name    </text>
<text text-anchor="start" x="404.3632" y="-1043.9" font-family="Arial" font-size="14.00" fill="#666666">[text]</text>
<polygon fill="none" stroke="#000000" points="234,-1002.5 234,-1032.5 554,-1032.5 554,-1002.5 234,-1002.5"/>
<text text-anchor="start" x="241" y="-1013.9" font-family="Arial" font-size="14.00" fill="#000000">family_name    </text>
<text text-anchor="start" x="354.5428" y="-1013.9" font-family="Arial" font-size="14.00" fill="#666666">[text]</text>
<polygon fill="none" stroke="#000000" points="234,-972.5 234,-1002.5 554,-1002.5 554,-972.5 234,-972.5"/>
<text text-anchor="start" x="241" y="-983.9" font-family="Arial" font-size="14.00" fill="#000000">suffix    </text>
<text text-anchor="start" x="307.8752" y="-983.9" font-family="Arial" font-size="14.00" fill="#666666">[text]</text>
<polygon fill="none" stroke="#000000" points="234,-942.5 234,-972.5 554,-972.5 554,-942.5 234,-942.5"/>
<text text-anchor="start" x="241" y="-953.9" font-family="Arial" font-size="14.00" fill="#000000">alias    </text>
<text text-anchor="start" x="303.9832" y="-953.9" font-family="Arial" font-size="14.00" fill="#666666">[text]</text>
<polygon fill="none" stroke="#000000" points="234,-912.5 234,-942.5 554,-942.5 554,-912.5 234,-912.5"/>
<text text-anchor="start" x="241" y="-923.9" font-family="Arial" font-size="14.00" fill="#000000">day_phone    </text>
<text text-anchor="start" x="344.4656" y="-923.9" font-family="Arial" font-size="14.00" fill="#666666">[text]</text>
<polygon fill="none" stroke="#000000" points="234,-882.5 234,-912.5 554,-912.5 554,-882.5 234,-882.5"/>
<text text-anchor="start" x="241" y="-893.9" font-family="Arial" font-size="14.00" fill="#000000">evening_phone    </text>
<text text-anchor="start" x="370.92" y="-893.9" font-family="Arial" font-size="14.00" fill="#666666">[text]</text>
<polygon fill="none" stroke="#000000" points="234,-852.5 234,-882.5 554,-882.5 554,-852.5 234,-852.5"/>
<text text-anchor="start" x="241" y="-863.9" font-family="Arial" font-size="14.00" fill="#000000">other_phone    </text>
<text text-anchor="start" x="353.7994" y="-863.9" font-family="Arial" font-size="14.00" fill="#666666">[text]</text>
<polygon fill="none" stroke="#000000" points="234,-822.5 234,-852.5 554,-852.5 554,-822.5 234,-822.5"/>
<text text-anchor="start" x="241" y="-833.9" font-family="Arial" font-size="14.00" fill="#000000">mailing_address    </text>
<text text-anchor="start" x="377.1066" y="-833.9" font-family="Arial" font-size="14.00" fill="#666666">[integer]</text>
<polygon fill="none" stroke="#000000" points="234,-792.5 234,-822.5 554,-822.5 554,-792.5 234,-792.5"/>
<text text-anchor="start" x="241" y="-803.9" font-family="Arial" font-size="14.00" fill="#000000">billing_address    </text>
<text text-anchor="start" x="368.5526" y="-803.9" font-family="Arial" font-size="14.00" fill="#666666">[integer]</text>
<polygon fill="none" stroke="#000000" points="234,-762.5 234,-792.5 554,-792.5 554,-762.5 234,-762.5"/>
<text text-anchor="start" x="241" y="-773.9" font-family="Arial" font-size="14.00" fill="#000000">home_ou    </text>
<text text-anchor="start" x="333.561" y="-773.9" font-family="Arial" font-size="14.00" fill="#666666">[integer]</text>
<polygon fill="none" stroke="#000000" points="234,-732.5 234,-762.5 554,-762.5 554,-732.5 234,-732.5"/>
<text text-anchor="start" x="241" y="-743.9" font-family="Arial" font-size="14.00" fill="#000000">dob    </text>
<text text-anchor="start" x="298.5526" y="-743.9" font-family="Arial" font-size="14.00" fill="#666666">[date]</text>
<polygon fill="none" stroke="#000000" points="234,-702.5 234,-732.5 554,-732.5 554,-702.5 234,-702.5"/>
<text text-anchor="start" x="241" y="-713.9" font-family="Arial" font-size="14.00" fill="#000000">active    </text>
<text text-anchor="start" x="311.7672" y="-713.9" font-family="Arial" font-size="14.00" fill="#666666">[boolean]</text>
<polygon fill="none" stroke="#000000" points="234,-672.5 234,-702.5 554,-702.5 554,-672.5 234,-672.5"/>
<text text-anchor="start" x="241" y="-683.9" font-family="Arial" font-size="14.00" fill="#000000">master_account    </text>
<text text-anchor="start" x="374.7854" y="-683.9" font-family="Arial" font-size="14.00" fill="#666666">[boolean]</text>
<polygon fill="none" stroke="#000000" points="234,-642.5 234,-672.5 554,-672.5 554,-642.5 234,-642.5"/>
<text text-anchor="start" x="241" y="-653.9" font-family="Arial" font-size="14.00" fill="#000000">super_user    </text>
<text text-anchor="start" x="345.2216" y="-653.9" font-family="Arial" font-size="14.00" fill="#666666">[boolean]</text>
<polygon fill="none" stroke="#000000" points="234,-612.5 234,-642.5 554,-642.5 554,-612.5 234,-612.5"/>
<text text-anchor="start" x="241" y="-623.9" font-family="Arial" font-size="14.00" fill="#000000">barred    </text>
<text text-anchor="start" x="315.6564" y="-623.9" font-family="Arial" font-size="14.00" fill="#666666">[boolean]</text>
<polygon fill="none" stroke="#000000" points="234,-582.5 234,-612.5 554,-612.5 554,-582.5 234,-582.5"/>
<text text-anchor="start" x="241" y="-593.9" font-family="Arial" font-size="14.00" fill="#000000">deleted    </text>
<text text-anchor="start" x="321.115" y="-593.9" font-family="Arial" font-size="14.00" fill="#666666">[boolean]</text>
<polygon fill="none" stroke="#000000" points="234,-552.5 234,-582.5 554,-582.5 554,-552.5 234,-552.5"/>
<text text-anchor="start" x="241" y="-563.9" font-family="Arial" font-size="14.00" fill="#000000">juvenile    </text>
<text text-anchor="start" x="322.655" y="-563.9" font-family="Arial" font-size="14.00" fill="#666666">[boolean]</text>
<polygon fill="none" stroke="#000000" points="234,-522.5 234,-552.5 554,-552.5 554,-522.5 234,-522.5"/>
<text text-anchor="start" x="241" y="-533.9" font-family="Arial" font-size="14.00" fill="#000000">usrgroup    </text>
<text text-anchor="start" x="330.439" y="-533.9" font-family="Arial" font-size="14.00" fill="#666666">[integer]</text>
<polygon fill="none" stroke="#000000" points="234,-492.5 234,-522.5 554,-522.5 554,-492.5 234,-492.5"/>
<text text-anchor="start" x="241" y="-503.9" font-family="Arial" font-size="14.00" fill="#000000">claims_returned_count    </text>
<text text-anchor="start" x="416.7896" y="-503.9" font-family="Arial" font-size="14.00" fill="#666666">[integer]</text>
<polygon fill="none" stroke="#000000" points="234,-462.5 234,-492.5 554,-492.5 554,-462.5 234,-462.5"/>
<text text-anchor="start" x="241" y="-473.9" font-family="Arial" font-size="14.00" fill="#000000">credit_forward_balance    </text>
<text text-anchor="start" x="420.6788" y="-473.9" font-family="Arial" font-size="14.00" fill="#666666">[numeric(6,2)]</text>
<polygon fill="none" stroke="#000000" points="234,-432.5 234,-462.5 554,-462.5 554,-432.5 234,-432.5"/>
<text text-anchor="start" x="241" y="-443.9" font-family="Arial" font-size="14.00" fill="#000000">last_xact_id    </text>
<text text-anchor="start" x="349.1122" y="-443.9" font-family="Arial" font-size="14.00" fill="#666666">[text]</text>
<polygon fill="none" stroke="#000000" points="234,-402.5 234,-432.5 554,-432.5 554,-402.5 234,-402.5"/>
<text text-anchor="start" x="241" y="-413.9" font-family="Arial" font-size="14.00" fill="#000000">alert_message    </text>
<text text-anchor="start" x="367.0014" y="-413.9" font-family="Arial" font-size="14.00" fill="#666666">[text]</text>
<polygon fill="none" stroke="#000000" points="234,-372.5 234,-402.5 554,-402.5 554,-372.5 234,-372.5"/>
<text text-anchor="start" x="241" y="-383.9" font-family="Arial" font-size="14.00" fill="#000000">create_date    </text>
<text text-anchor="start" x="349.1248" y="-383.9" font-family="Arial" font-size="14.00" fill="#666666">[timestamp with time zone]</text>
<polygon fill="none" stroke="#000000" points="234,-342.5 234,-372.5 554,-372.5 554,-342.5 234,-342.5"/>
<text text-anchor="start" x="241" y="-353.9" font-family="Arial" font-size="14.00" fill="#000000">expire_date    </text>
<text text-anchor="start" x="348.3408" y="-353.9" font-family="Arial" font-size="14.00" fill="#666666">[timestamp with time zone]</text>
<polygon fill="none" stroke="#000000" points="234,-312.5 234,-342.5 554,-342.5 554,-312.5 234,-312.5"/>
<text text-anchor="start" x="241" y="-323.9" font-family="Arial" font-size="14.00" fill="#000000">claims_never_checked_out_count    </text>
<text text-anchor="start" x="486.8246" y="-323.9" font-family="Arial" font-size="14.00" fill="#666666">[integer]</text>
<polygon fill="none" stroke="#000000" points="234,-282.5 234,-312.5 554,-312.5 554,-282.5 234,-282.5"/>
<text text-anchor="start" x="240.7609" y="-293.9" font-family="Arial" font-size="14.00" fill="#000000">last_update_time    </text>
<text text-anchor="start" x="381.5547" y="-293.9" font-family="Arial" font-size="14.00" fill="#666666">[timestamp with time zone]</text>
<polygon fill="none" stroke="#000000" points="234,-252.5 234,-282.5 554,-282.5 554,-252.5 234,-252.5"/>
<text text-anchor="start" x="241" y="-263.9" font-family="Arial" font-size="14.00" fill="#000000">pref_prefix    </text>
<text text-anchor="start" x="341.3268" y="-263.9" font-family="Arial" font-size="14.00" fill="#666666">[text]</text>
<polygon fill="none" stroke="#000000" points="234,-222.5 234,-252.5 554,-252.5 554,-222.5 234,-222.5"/>
<text text-anchor="start" x="241" y="-233.9" font-family="Arial" font-size="14.00" fill="#000000">pref_first_given_name    </text>
<text text-anchor="start" x="413.6802" y="-233.9" font-family="Arial" font-size="14.00" fill="#666666">[text]</text>
<polygon fill="none" stroke="#000000" points="234,-192.5 234,-222.5 554,-222.5 554,-192.5 234,-192.5"/>
<text text-anchor="start" x="241" y="-203.9" font-family="Arial" font-size="14.00" fill="#000000">pref_second_given_name    </text>
<text text-anchor="start" x="436.2622" y="-203.9" font-family="Arial" font-size="14.00" fill="#666666">[text]</text>
<polygon fill="none" stroke="#000000" points="234,-162.5 234,-192.5 554,-192.5 554,-162.5 234,-162.5"/>
<text text-anchor="start" x="241" y="-173.9" font-family="Arial" font-size="14.00" fill="#000000">pref_family_name    </text>
<text text-anchor="start" x="386.4418" y="-173.9" font-family="Arial" font-size="14.00" fill="#666666">[text]</text>
<polygon fill="none" stroke="#000000" points="234,-132.5 234,-162.5 554,-162.5 554,-132.5 234,-132.5"/>
<text text-anchor="start" x="241" y="-143.9" font-family="Arial" font-size="14.00" fill="#000000">pref_suffix    </text>
<text text-anchor="start" x="339.7742" y="-143.9" font-family="Arial" font-size="14.00" fill="#666666">[text]</text>
<polygon fill="none" stroke="#000000" points="234,-102.5 234,-132.5 554,-132.5 554,-102.5 234,-102.5"/>
<text text-anchor="start" x="241" y="-113.9" font-family="Arial" font-size="14.00" fill="#000000">name_keywords    </text>
<text text-anchor="start" x="377.1108" y="-113.9" font-family="Arial" font-size="14.00" fill="#666666">[text]</text>
<polygon fill="none" stroke="#000000" points="234,-72.5 234,-102.5 554,-102.5 554,-72.5 234,-72.5"/>
<text text-anchor="start" x="241" y="-83.9" font-family="Arial" font-size="14.00" fill="#000000">name_kw_tsvector    </text>
<text text-anchor="start" x="391.892" y="-83.9" font-family="Arial" font-size="14.00" fill="#666666">[tsvector]</text>
<polygon fill="none" stroke="#000000" points="234,-42.5 234,-72.5 554,-72.5 554,-42.5 234,-42.5"/>
<text text-anchor="start" x="241" y="-53.9" font-family="Arial" font-size="14.00" fill="#000000">guardian    </text>
<text text-anchor="start" x="329.6676" y="-53.9" font-family="Arial" font-size="14.00" fill="#666666">[text]</text>
</g>
<!-- reporter.template_folder&#45;&gt;actor.usr -->
<g id="edge3" class="edge">
<title>reporter.template_folder:owner&#45;&gt;actor.usr:id</title>
<path fill="none" stroke="#000000" d="M411.8568,-1806.8086C344.645,-1797.118 375.4931,-1687.8892 422,-1627 458.9109,-1578.6744 517.0891,-1639.3256 554,-1591 579.224,-1557.9755 595.5556,-1497.5 554,-1497.5"/>
<polygon fill="#000000" stroke="#000000" points="412.0231,-1806.8199 421.6939,-1811.9896 417.0116,-1807.1599 422,-1807.5 422,-1807.5 422,-1807.5 417.0116,-1807.1599 422.3061,-1803.0104 412.0231,-1806.8199 412.0231,-1806.8199"/>
<text text-anchor="start" x="6.831" y="-1817.5" font-family="Arial" font-size="10.00" fill="#000000">FOREIGN KEY (owner) REFERENCES actor.usr(id) DEFERRABLE INITIALLY DEFERRED</text>
</g>
<!-- actor.org_unit -->
<g id="node4" class="node">
<title>actor.org_unit</title>
<polygon fill="#efefef" stroke="transparent" points="659,-972.5 659,-1007.5 910,-1007.5 910,-972.5 659,-972.5"/>
<polygon fill="none" stroke="#000000" points="659,-972.5 659,-1007.5 910,-1007.5 910,-972.5 659,-972.5"/>
<text text-anchor="start" x="665.7017" y="-985.3" font-family="Arial Bold" font-size="18.00" fill="#000000">actor.org_unit</text>
<text text-anchor="start" x="775.7303" y="-985.3" font-family="Arial" font-size="14.00" fill="#000000">    </text>
<text text-anchor="start" x="809.9351" y="-985.3" font-family="Arial" font-size="14.00" fill="#666666">[BASE TABLE]</text>
<polygon fill="none" stroke="#000000" points="659,-942.5 659,-972.5 910,-972.5 910,-942.5 659,-942.5"/>
<text text-anchor="start" x="666" y="-953.9" font-family="Arial" font-size="14.00" fill="#000000">id    </text>
<text text-anchor="start" x="711.094" y="-953.9" font-family="Arial" font-size="14.00" fill="#666666">[integer]</text>
<polygon fill="none" stroke="#000000" points="659,-912.5 659,-942.5 910,-942.5 910,-912.5 659,-912.5"/>
<text text-anchor="start" x="666" y="-923.9" font-family="Arial" font-size="14.00" fill="#000000">parent_ou    </text>
<text text-anchor="start" x="763.2342" y="-923.9" font-family="Arial" font-size="14.00" fill="#666666">[integer]</text>
<polygon fill="none" stroke="#000000" points="659,-882.5 659,-912.5 910,-912.5 910,-882.5 659,-882.5"/>
<text text-anchor="start" x="666" y="-893.9" font-family="Arial" font-size="14.00" fill="#000000">ou_type    </text>
<text text-anchor="start" x="750.0084" y="-893.9" font-family="Arial" font-size="14.00" fill="#666666">[integer]</text>
<polygon fill="none" stroke="#000000" points="659,-852.5 659,-882.5 910,-882.5 910,-852.5 659,-852.5"/>
<text text-anchor="start" x="666" y="-863.9" font-family="Arial" font-size="14.00" fill="#000000">ill_address    </text>
<text text-anchor="start" x="767.0982" y="-863.9" font-family="Arial" font-size="14.00" fill="#666666">[integer]</text>
<polygon fill="none" stroke="#000000" points="659,-822.5 659,-852.5 910,-852.5 910,-822.5 659,-822.5"/>
<text text-anchor="start" x="666" y="-833.9" font-family="Arial" font-size="14.00" fill="#000000">holds_address    </text>
<text text-anchor="start" x="791.2328" y="-833.9" font-family="Arial" font-size="14.00" fill="#666666">[integer]</text>
<polygon fill="none" stroke="#000000" points="659,-792.5 659,-822.5 910,-822.5 910,-792.5 659,-792.5"/>
<text text-anchor="start" x="666" y="-803.9" font-family="Arial" font-size="14.00" fill="#000000">mailing_address    </text>
<text text-anchor="start" x="802.1066" y="-803.9" font-family="Arial" font-size="14.00" fill="#666666">[integer]</text>
<polygon fill="none" stroke="#000000" points="659,-762.5 659,-792.5 910,-792.5 910,-762.5 659,-762.5"/>
<text text-anchor="start" x="666" y="-773.9" font-family="Arial" font-size="14.00" fill="#000000">billing_address    </text>
<text text-anchor="start" x="793.5526" y="-773.9" font-family="Arial" font-size="14.00" fill="#666666">[integer]</text>
<polygon fill="none" stroke="#000000" points="659,-732.5 659,-762.5 910,-762.5 910,-732.5 659,-732.5"/>
<text text-anchor="start" x="666" y="-743.9" font-family="Arial" font-size="14.00" fill="#000000">shortname    </text>
<text text-anchor="start" x="766.3296" y="-743.9" font-family="Arial" font-size="14.00" fill="#666666">[text]</text>
<polygon fill="none" stroke="#000000" points="659,-702.5 659,-732.5 910,-732.5 910,-702.5 659,-702.5"/>
<text text-anchor="start" x="666" y="-713.9" font-family="Arial" font-size="14.00" fill="#000000">name    </text>
<text text-anchor="start" x="735.2132" y="-713.9" font-family="Arial" font-size="14.00" fill="#666666">[text]</text>
<polygon fill="none" stroke="#000000" points="659,-672.5 659,-702.5 910,-702.5 910,-672.5 659,-672.5"/>
<text text-anchor="start" x="666" y="-683.9" font-family="Arial" font-size="14.00" fill="#000000">email    </text>
<text text-anchor="start" x="733.6438" y="-683.9" font-family="Arial" font-size="14.00" fill="#666666">[text]</text>
<polygon fill="none" stroke="#000000" points="659,-642.5 659,-672.5 910,-672.5 910,-642.5 659,-642.5"/>
<text text-anchor="start" x="666" y="-653.9" font-family="Arial" font-size="14.00" fill="#000000">phone    </text>
<text text-anchor="start" x="739.1178" y="-653.9" font-family="Arial" font-size="14.00" fill="#666666">[text]</text>
<polygon fill="none" stroke="#000000" points="659,-612.5 659,-642.5 910,-642.5 910,-612.5 659,-612.5"/>
<text text-anchor="start" x="666" y="-623.9" font-family="Arial" font-size="14.00" fill="#000000">opac_visible    </text>
<text text-anchor="start" x="777.2202" y="-623.9" font-family="Arial" font-size="14.00" fill="#666666">[boolean]</text>
<polygon fill="none" stroke="#000000" points="659,-582.5 659,-612.5 910,-612.5 910,-582.5 659,-582.5"/>
<text text-anchor="start" x="666" y="-593.9" font-family="Arial" font-size="14.00" fill="#000000">fiscal_calendar    </text>
<text text-anchor="start" x="793.554" y="-593.9" font-family="Arial" font-size="14.00" fill="#666666">[integer]</text>
</g>
<!-- reporter.template_folder&#45;&gt;actor.org_unit -->
<g id="edge4" class="edge">
<title>reporter.template_folder:share_with&#45;&gt;actor.org_unit:id</title>
<path fill="none" stroke="#000000" d="M765.1502,-1686.4117C899.9024,-1655.0753 499.0561,-957.5 659,-957.5"/>
<polygon fill="#000000" stroke="#000000" points="764.943,-1686.4338 754.5202,-1683.0256 759.9715,-1686.9669 755,-1687.5 755,-1687.5 755,-1687.5 759.9715,-1686.9669 755.4798,-1691.9744 764.943,-1686.4338 764.943,-1686.4338"/>
<text text-anchor="start" x="762.156" y="-1697.5" font-family="Arial" font-size="10.00" fill="#000000">FOREIGN KEY (share_with) REFERENCES actor.org_unit(id) DEFERRABLE INITIALLY DEFERRED</text>
</g>
<!-- reporter.template -->
<g id="node2" class="node">
<title>reporter.template</title>
<polygon fill="#efefef" stroke="transparent" points="445,-2252.5 445,-2287.5 732,-2287.5 732,-2252.5 445,-2252.5"/>
<polygon fill="none" stroke="#000000" points="445,-2252.5 445,-2287.5 732,-2287.5 732,-2252.5 445,-2252.5"/>
<text text-anchor="start" x="456.2053" y="-2265.3" font-family="Arial Bold" font-size="18.00" fill="#000000">reporter.template</text>
<text text-anchor="start" x="593.2267" y="-2265.3" font-family="Arial" font-size="14.00" fill="#000000">    </text>
<text text-anchor="start" x="627.4315" y="-2265.3" font-family="Arial" font-size="14.00" fill="#666666">[BASE TABLE]</text>
<polygon fill="none" stroke="#000000" points="445,-2222.5 445,-2252.5 732,-2252.5 732,-2222.5 445,-2222.5"/>
<text text-anchor="start" x="452" y="-2233.9" font-family="Arial" font-size="14.00" fill="#000000">id    </text>
<text text-anchor="start" x="497.094" y="-2233.9" font-family="Arial" font-size="14.00" fill="#666666">[integer]</text>
<polygon fill="none" stroke="#000000" points="445,-2192.5 445,-2222.5 732,-2222.5 732,-2192.5 445,-2192.5"/>
<text text-anchor="start" x="452" y="-2203.9" font-family="Arial" font-size="14.00" fill="#000000">owner    </text>
<text text-anchor="start" x="524.3198" y="-2203.9" font-family="Arial" font-size="14.00" fill="#666666">[integer]</text>
<polygon fill="none" stroke="#000000" points="445,-2162.5 445,-2192.5 732,-2192.5 732,-2162.5 445,-2162.5"/>
<text text-anchor="start" x="451.9944" y="-2173.9" font-family="Arial" font-size="14.00" fill="#000000">create_time    </text>
<text text-anchor="start" x="559.3212" y="-2173.9" font-family="Arial" font-size="14.00" fill="#666666">[timestamp with time zone]</text>
<polygon fill="none" stroke="#000000" points="445,-2132.5 445,-2162.5 732,-2162.5 732,-2132.5 445,-2132.5"/>
<text text-anchor="start" x="452" y="-2143.9" font-family="Arial" font-size="14.00" fill="#000000">name    </text>
<text text-anchor="start" x="521.2132" y="-2143.9" font-family="Arial" font-size="14.00" fill="#666666">[text]</text>
<polygon fill="none" stroke="#000000" points="445,-2102.5 445,-2132.5 732,-2132.5 732,-2102.5 445,-2102.5"/>
<text text-anchor="start" x="452" y="-2113.9" font-family="Arial" font-size="14.00" fill="#000000">description    </text>
<text text-anchor="start" x="553.8822" y="-2113.9" font-family="Arial" font-size="14.00" fill="#666666">[text]</text>
<polygon fill="none" stroke="#000000" points="445,-2072.5 445,-2102.5 732,-2102.5 732,-2072.5 445,-2072.5"/>
<text text-anchor="start" x="452" y="-2083.9" font-family="Arial" font-size="14.00" fill="#000000">data    </text>
<text text-anchor="start" x="513.4432" y="-2083.9" font-family="Arial" font-size="14.00" fill="#666666">[text]</text>
<polygon fill="none" stroke="#000000" points="445,-2042.5 445,-2072.5 732,-2072.5 732,-2042.5 445,-2042.5"/>
<text text-anchor="start" x="452" y="-2053.9" font-family="Arial" font-size="14.00" fill="#000000">folder    </text>
<text text-anchor="start" x="521.2104" y="-2053.9" font-family="Arial" font-size="14.00" fill="#666666">[integer]</text>
</g>
<!-- reporter.template&#45;&gt;reporter.template_folder -->
<g id="edge1" class="edge">
<title>reporter.template:folder&#45;&gt;reporter.template_folder:id</title>
<path fill="none" stroke="#000000" d="M588.2734,-2032.3575C578.1051,-1966.7364 463.9845,-2030.1267 422,-1964 399.0115,-1927.7925 379.1111,-1867.5 422,-1867.5"/>
<polygon fill="#000000" stroke="#000000" points="588.2854,-2032.5256 584.5115,-2042.8216 588.6427,-2037.5128 589,-2042.5 589,-2042.5 589,-2042.5 588.6427,-2037.5128 593.4885,-2042.1784 588.2854,-2032.5256 588.2854,-2032.5256"/>
<text text-anchor="start" x="596.045" y="-2052.5" font-family="Arial" font-size="10.00" fill="#000000">FOREIGN KEY (folder) REFERENCES reporter.template_folder(id) DEFERRABLE INITIALLY DEFERRED</text>
</g>
</g>
</svg>
