<?xml version="1.0" encoding="UTF-8" standalone="no"?>
<!DOCTYPE svg PUBLIC "-//W3C//DTD SVG 1.1//EN"
 "http://www.w3.org/Graphics/SVG/1.1/DTD/svg11.dtd">
<!-- Generated by graphviz version 2.40.1 (20161225.0304)
 -->
<!-- Title: reporter.schedule Pages: 1 -->
<svg width="1224pt" height="2242pt"
 viewBox="0.00 0.00 1223.50 2242.00" xmlns="http://www.w3.org/2000/svg" xmlns:xlink="http://www.w3.org/1999/xlink">
<g id="graph0" class="graph" transform="scale(1 1) rotate(0) translate(4 2238)">
<title>reporter.schedule</title>
<polygon fill="#ffffff" stroke="transparent" points="-4,4 -4,-2238 1219.5,-2238 1219.5,4 -4,4"/>
<!-- reporter.schedule -->
<g id="node1" class="node">
<title>reporter.schedule</title>
<polygon fill="#efefef" stroke="transparent" points="450.5,-2152.5 450.5,-2187.5 731.5,-2187.5 731.5,-2152.5 450.5,-2152.5"/>
<polygon fill="none" stroke="#000000" points="450.5,-2152.5 450.5,-2187.5 731.5,-2187.5 731.5,-2152.5 450.5,-2152.5"/>
<text text-anchor="start" x="457.2005" y="-2165.3" font-family="Arial Bold" font-size="18.00" fill="#000000">reporter.schedule</text>
<text text-anchor="start" x="597.2315" y="-2165.3" font-family="Arial" font-size="14.00" fill="#000000">    </text>
<text text-anchor="start" x="631.4363" y="-2165.3" font-family="Arial" font-size="14.00" fill="#666666">[BASE TABLE]</text>
<polygon fill="none" stroke="#000000" points="450.5,-2122.5 450.5,-2152.5 731.5,-2152.5 731.5,-2122.5 450.5,-2122.5"/>
<text text-anchor="start" x="457.5" y="-2133.9" font-family="Arial" font-size="14.00" fill="#000000">id </text>
<text text-anchor="start" x="472.2798" y="-2133.9" font-family="Arial" font-size="14.00" fill="#666666">[integer]</text>
<polygon fill="none" stroke="#000000" points="450.5,-2092.5 450.5,-2122.5 731.5,-2122.5 731.5,-2092.5 450.5,-2092.5"/>
<text text-anchor="start" x="457.5" y="-2103.9" font-family="Arial" font-size="14.00" fill="#000000">report </text>
<text text-anchor="start" x="497.9502" y="-2103.9" font-family="Arial" font-size="14.00" fill="#666666">[integer]</text>
<polygon fill="none" stroke="#000000" points="450.5,-2062.5 450.5,-2092.5 731.5,-2092.5 731.5,-2062.5 450.5,-2062.5"/>
<text text-anchor="start" x="457.5" y="-2073.9" font-family="Arial" font-size="14.00" fill="#000000">folder </text>
<text text-anchor="start" x="496.3962" y="-2073.9" font-family="Arial" font-size="14.00" fill="#666666">[integer]</text>
<polygon fill="none" stroke="#000000" points="450.5,-2032.5 450.5,-2062.5 731.5,-2062.5 731.5,-2032.5 450.5,-2032.5"/>
<text text-anchor="start" x="457.5" y="-2043.9" font-family="Arial" font-size="14.00" fill="#000000">runner </text>
<text text-anchor="start" x="501.8422" y="-2043.9" font-family="Arial" font-size="14.00" fill="#666666">[integer]</text>
<polygon fill="none" stroke="#000000" points="450.5,-2002.5 450.5,-2032.5 731.5,-2032.5 731.5,-2002.5 450.5,-2002.5"/>
<text text-anchor="start" x="457.5" y="-2013.9" font-family="Arial" font-size="14.00" fill="#000000">run_time </text>
<text text-anchor="start" x="515.8394" y="-2013.9" font-family="Arial" font-size="14.00" fill="#666666">[timestamp with time zone]</text>
<polygon fill="none" stroke="#000000" points="450.5,-1972.5 450.5,-2002.5 731.5,-2002.5 731.5,-1972.5 450.5,-1972.5"/>
<text text-anchor="start" x="457.5" y="-1983.9" font-family="Arial" font-size="14.00" fill="#000000">start_time </text>
<text text-anchor="start" x="522.838" y="-1983.9" font-family="Arial" font-size="14.00" fill="#666666">[timestamp with time zone]</text>
<polygon fill="none" stroke="#000000" points="450.5,-1942.5 450.5,-1972.5 731.5,-1972.5 731.5,-1942.5 450.5,-1942.5"/>
<text text-anchor="start" x="457.5" y="-1953.9" font-family="Arial" font-size="14.00" fill="#000000">complete_time </text>
<text text-anchor="start" x="552.4018" y="-1953.9" font-family="Arial" font-size="14.00" fill="#666666">[timestamp with time zone]</text>
<polygon fill="none" stroke="#000000" points="450.5,-1912.5 450.5,-1942.5 731.5,-1942.5 731.5,-1912.5 450.5,-1912.5"/>
<text text-anchor="start" x="457.5" y="-1923.9" font-family="Arial" font-size="14.00" fill="#000000">email </text>
<text text-anchor="start" x="494.8296" y="-1923.9" font-family="Arial" font-size="14.00" fill="#666666">[text]</text>
<polygon fill="none" stroke="#000000" points="450.5,-1882.5 450.5,-1912.5 731.5,-1912.5 731.5,-1882.5 450.5,-1882.5"/>
<text text-anchor="start" x="457.5" y="-1893.9" font-family="Arial" font-size="14.00" fill="#000000">excel_format </text>
<text text-anchor="start" x="541.5126" y="-1893.9" font-family="Arial" font-size="14.00" fill="#666666">[boolean]</text>
<polygon fill="none" stroke="#000000" points="450.5,-1852.5 450.5,-1882.5 731.5,-1882.5 731.5,-1852.5 450.5,-1852.5"/>
<text text-anchor="start" x="457.5" y="-1863.9" font-family="Arial" font-size="14.00" fill="#000000">html_format </text>
<text text-anchor="start" x="535.2812" y="-1863.9" font-family="Arial" font-size="14.00" fill="#666666">[boolean]</text>
<polygon fill="none" stroke="#000000" points="450.5,-1822.5 450.5,-1852.5 731.5,-1852.5 731.5,-1822.5 450.5,-1822.5"/>
<text text-anchor="start" x="457.5" y="-1833.9" font-family="Arial" font-size="14.00" fill="#000000">csv_format </text>
<text text-anchor="start" x="529.8408" y="-1833.9" font-family="Arial" font-size="14.00" fill="#666666">[boolean]</text>
<polygon fill="none" stroke="#000000" points="450.5,-1792.5 450.5,-1822.5 731.5,-1822.5 731.5,-1792.5 450.5,-1792.5"/>
<text text-anchor="start" x="457.5" y="-1803.9" font-family="Arial" font-size="14.00" fill="#000000">chart_pie </text>
<text text-anchor="start" x="518.9614" y="-1803.9" font-family="Arial" font-size="14.00" fill="#666666">[boolean]</text>
<polygon fill="none" stroke="#000000" points="450.5,-1762.5 450.5,-1792.5 731.5,-1792.5 731.5,-1762.5 450.5,-1762.5"/>
<text text-anchor="start" x="457.5" y="-1773.9" font-family="Arial" font-size="14.00" fill="#000000">chart_bar </text>
<text text-anchor="start" x="520.5154" y="-1773.9" font-family="Arial" font-size="14.00" fill="#666666">[boolean]</text>
<polygon fill="none" stroke="#000000" points="450.5,-1732.5 450.5,-1762.5 731.5,-1762.5 731.5,-1732.5 450.5,-1732.5"/>
<text text-anchor="start" x="457.5" y="-1743.9" font-family="Arial" font-size="14.00" fill="#000000">chart_line </text>
<text text-anchor="start" x="522.068" y="-1743.9" font-family="Arial" font-size="14.00" fill="#666666">[boolean]</text>
<polygon fill="none" stroke="#000000" points="450.5,-1702.5 450.5,-1732.5 731.5,-1732.5 731.5,-1702.5 450.5,-1702.5"/>
<text text-anchor="start" x="457.5" y="-1713.9" font-family="Arial" font-size="14.00" fill="#000000">error_code </text>
<text text-anchor="start" x="529.068" y="-1713.9" font-family="Arial" font-size="14.00" fill="#666666">[integer]</text>
<polygon fill="none" stroke="#000000" points="450.5,-1672.5 450.5,-1702.5 731.5,-1702.5 731.5,-1672.5 450.5,-1672.5"/>
<text text-anchor="start" x="457.5" y="-1683.9" font-family="Arial" font-size="14.00" fill="#000000">error_text </text>
<text text-anchor="start" x="521.284" y="-1683.9" font-family="Arial" font-size="14.00" fill="#666666">[text]</text>
<polygon fill="none" stroke="#000000" stroke-width="3" points="448.5,-1671.5 448.5,-2189.5 732.5,-2189.5 732.5,-1671.5 448.5,-1671.5"/>
</g>
<!-- reporter.report -->
<g id="node2" class="node">
<title>reporter.report</title>
<polygon fill="#efefef" stroke="transparent" points="43.5,-927.5 43.5,-962.5 330.5,-962.5 330.5,-927.5 43.5,-927.5"/>
<polygon fill="none" stroke="#000000" points="43.5,-927.5 43.5,-962.5 330.5,-962.5 330.5,-927.5 43.5,-927.5"/>
<text text-anchor="start" x="65.7105" y="-940.3" font-family="Arial Bold" font-size="18.00" fill="#000000">reporter.report</text>
<text text-anchor="start" x="180.7215" y="-940.3" font-family="Arial" font-size="14.00" fill="#000000">    </text>
<text text-anchor="start" x="214.9263" y="-940.3" font-family="Arial" font-size="14.00" fill="#666666">[BASE TABLE]</text>
<polygon fill="none" stroke="#000000" points="43.5,-897.5 43.5,-927.5 330.5,-927.5 330.5,-897.5 43.5,-897.5"/>
<text text-anchor="start" x="50.5" y="-908.9" font-family="Arial" font-size="14.00" fill="#000000">id    </text>
<text text-anchor="start" x="95.594" y="-908.9" font-family="Arial" font-size="14.00" fill="#666666">[integer]</text>
<polygon fill="none" stroke="#000000" points="43.5,-867.5 43.5,-897.5 330.5,-897.5 330.5,-867.5 43.5,-867.5"/>
<text text-anchor="start" x="50.5" y="-878.9" font-family="Arial" font-size="14.00" fill="#000000">owner    </text>
<text text-anchor="start" x="122.8198" y="-878.9" font-family="Arial" font-size="14.00" fill="#666666">[integer]</text>
<polygon fill="none" stroke="#000000" points="43.5,-837.5 43.5,-867.5 330.5,-867.5 330.5,-837.5 43.5,-837.5"/>
<text text-anchor="start" x="50.4944" y="-848.9" font-family="Arial" font-size="14.00" fill="#000000">create_time    </text>
<text text-anchor="start" x="157.8212" y="-848.9" font-family="Arial" font-size="14.00" fill="#666666">[timestamp with time zone]</text>
<polygon fill="none" stroke="#000000" points="43.5,-807.5 43.5,-837.5 330.5,-837.5 330.5,-807.5 43.5,-807.5"/>
<text text-anchor="start" x="50.5" y="-818.9" font-family="Arial" font-size="14.00" fill="#000000">name    </text>
<text text-anchor="start" x="119.7132" y="-818.9" font-family="Arial" font-size="14.00" fill="#666666">[text]</text>
<polygon fill="none" stroke="#000000" points="43.5,-777.5 43.5,-807.5 330.5,-807.5 330.5,-777.5 43.5,-777.5"/>
<text text-anchor="start" x="50.5" y="-788.9" font-family="Arial" font-size="14.00" fill="#000000">description    </text>
<text text-anchor="start" x="152.3822" y="-788.9" font-family="Arial" font-size="14.00" fill="#666666">[text]</text>
<polygon fill="none" stroke="#000000" points="43.5,-747.5 43.5,-777.5 330.5,-777.5 330.5,-747.5 43.5,-747.5"/>
<text text-anchor="start" x="50.5" y="-758.9" font-family="Arial" font-size="14.00" fill="#000000">template    </text>
<text text-anchor="start" x="138.3836" y="-758.9" font-family="Arial" font-size="14.00" fill="#666666">[integer]</text>
<polygon fill="none" stroke="#000000" points="43.5,-717.5 43.5,-747.5 330.5,-747.5 330.5,-717.5 43.5,-717.5"/>
<text text-anchor="start" x="50.5" y="-728.9" font-family="Arial" font-size="14.00" fill="#000000">data    </text>
<text text-anchor="start" x="111.9432" y="-728.9" font-family="Arial" font-size="14.00" fill="#666666">[text]</text>
<polygon fill="none" stroke="#000000" points="43.5,-687.5 43.5,-717.5 330.5,-717.5 330.5,-687.5 43.5,-687.5"/>
<text text-anchor="start" x="50.5" y="-698.9" font-family="Arial" font-size="14.00" fill="#000000">folder    </text>
<text text-anchor="start" x="119.7104" y="-698.9" font-family="Arial" font-size="14.00" fill="#666666">[integer]</text>
<polygon fill="none" stroke="#000000" points="43.5,-657.5 43.5,-687.5 330.5,-687.5 330.5,-657.5 43.5,-657.5"/>
<text text-anchor="start" x="50.5" y="-668.9" font-family="Arial" font-size="14.00" fill="#000000">recur    </text>
<text text-anchor="start" x="116.5912" y="-668.9" font-family="Arial" font-size="14.00" fill="#666666">[boolean]</text>
<polygon fill="none" stroke="#000000" points="43.5,-627.5 43.5,-657.5 330.5,-657.5 330.5,-627.5 43.5,-627.5"/>
<text text-anchor="start" x="50.5" y="-638.9" font-family="Arial" font-size="14.00" fill="#000000">recurrence    </text>
<text text-anchor="start" x="151.5996" y="-638.9" font-family="Arial" font-size="14.00" fill="#666666">[interval]</text>
</g>
<!-- reporter.schedule&#45;&gt;reporter.report -->
<g id="edge1" class="edge">
<title>reporter.schedule:report&#45;&gt;reporter.report:id</title>
<path fill="none" stroke="#000000" d="M440.2717,-2107.3045C224.5914,-2098.8483 406.1037,-1817.8069 382.5,-1591 378.5868,-1553.3981 368.305,-912.5 330.5,-912.5"/>
<polygon fill="#000000" stroke="#000000" points="440.5018,-2107.3088 450.4139,-2111.9992 445.5009,-2107.4044 450.5,-2107.5 450.5,-2107.5 450.5,-2107.5 445.5009,-2107.4044 450.5861,-2103.0008 440.5018,-2107.3088 440.5018,-2107.3088"/>
<text text-anchor="start" x="11.3855" y="-2117.5" font-family="Arial" font-size="10.00" fill="#000000">FOREIGN KEY (report) REFERENCES reporter.report(id) DEFERRABLE INITIALLY DEFERRED</text>
</g>
<!-- reporter.output_folder -->
<g id="node3" class="node">
<title>reporter.output_folder</title>
<polygon fill="#efefef" stroke="transparent" points="434.5,-882.5 434.5,-917.5 748.5,-917.5 748.5,-882.5 434.5,-882.5"/>
<polygon fill="none" stroke="#000000" points="434.5,-882.5 434.5,-917.5 748.5,-917.5 748.5,-882.5 434.5,-882.5"/>
<text text-anchor="start" x="441.1918" y="-895.3" font-family="Arial Bold" font-size="18.00" fill="#000000">reporter.output_folder</text>
<text text-anchor="start" x="614.2402" y="-895.3" font-family="Arial" font-size="14.00" fill="#000000">    </text>
<text text-anchor="start" x="648.445" y="-895.3" font-family="Arial" font-size="14.00" fill="#666666">[BASE TABLE]</text>
<polygon fill="none" stroke="#000000" points="434.5,-852.5 434.5,-882.5 748.5,-882.5 748.5,-852.5 434.5,-852.5"/>
<text text-anchor="start" x="441.5" y="-863.9" font-family="Arial" font-size="14.00" fill="#000000">id    </text>
<text text-anchor="start" x="486.594" y="-863.9" font-family="Arial" font-size="14.00" fill="#666666">[integer]</text>
<polygon fill="none" stroke="#000000" points="434.5,-822.5 434.5,-852.5 748.5,-852.5 748.5,-822.5 434.5,-822.5"/>
<text text-anchor="start" x="441.5" y="-833.9" font-family="Arial" font-size="14.00" fill="#000000">parent    </text>
<text text-anchor="start" x="515.3864" y="-833.9" font-family="Arial" font-size="14.00" fill="#666666">[integer]</text>
<polygon fill="none" stroke="#000000" points="434.5,-792.5 434.5,-822.5 748.5,-822.5 748.5,-792.5 434.5,-792.5"/>
<text text-anchor="start" x="441.5" y="-803.9" font-family="Arial" font-size="14.00" fill="#000000">owner    </text>
<text text-anchor="start" x="513.8198" y="-803.9" font-family="Arial" font-size="14.00" fill="#666666">[integer]</text>
<polygon fill="none" stroke="#000000" points="434.5,-762.5 434.5,-792.5 748.5,-792.5 748.5,-762.5 434.5,-762.5"/>
<text text-anchor="start" x="441.5" y="-773.9" font-family="Arial" font-size="14.00" fill="#000000">create_time    </text>
<text text-anchor="start" x="548.8268" y="-773.9" font-family="Arial" font-size="14.00" fill="#666666">[timestamp with time zone]</text>
<polygon fill="none" stroke="#000000" points="434.5,-732.5 434.5,-762.5 748.5,-762.5 748.5,-732.5 434.5,-732.5"/>
<text text-anchor="start" x="441.5" y="-743.9" font-family="Arial" font-size="14.00" fill="#000000">name    </text>
<text text-anchor="start" x="510.7132" y="-743.9" font-family="Arial" font-size="14.00" fill="#666666">[text]</text>
<polygon fill="none" stroke="#000000" points="434.5,-702.5 434.5,-732.5 748.5,-732.5 748.5,-702.5 434.5,-702.5"/>
<text text-anchor="start" x="441.5" y="-713.9" font-family="Arial" font-size="14.00" fill="#000000">shared    </text>
<text text-anchor="start" x="518.4958" y="-713.9" font-family="Arial" font-size="14.00" fill="#666666">[boolean]</text>
<polygon fill="none" stroke="#000000" points="434.5,-672.5 434.5,-702.5 748.5,-702.5 748.5,-672.5 434.5,-672.5"/>
<text text-anchor="start" x="441.5" y="-683.9" font-family="Arial" font-size="14.00" fill="#000000">share_with    </text>
<text text-anchor="start" x="543.3822" y="-683.9" font-family="Arial" font-size="14.00" fill="#666666">[integer]</text>
</g>
<!-- reporter.schedule&#45;&gt;reporter.output_folder -->
<g id="edge2" class="edge">
<title>reporter.schedule:folder&#45;&gt;reporter.output_folder:id</title>
<path fill="none" stroke="#000000" d="M741.7286,-2077.2656C926.1848,-2068.5651 772.4544,-1819.392 731.5,-1627 693.7685,-1449.748 253.2766,-867.5 434.5,-867.5"/>
<polygon fill="#000000" stroke="#000000" points="741.4974,-2077.2708 731.3969,-2073.0012 736.4987,-2077.3854 731.5,-2077.5 731.5,-2077.5 731.5,-2077.5 736.4987,-2077.3854 731.6031,-2081.9988 741.4974,-2077.2708 741.4974,-2077.2708"/>
<text text-anchor="start" x="738.819" y="-2087.5" font-family="Arial" font-size="10.00" fill="#000000">FOREIGN KEY (folder) REFERENCES reporter.output_folder(id) DEFERRABLE INITIALLY DEFERRED</text>
</g>
<!-- actor.usr -->
<g id="node4" class="node">
<title>actor.usr</title>
<polygon fill="#efefef" stroke="transparent" points="852.5,-1512.5 852.5,-1547.5 1172.5,-1547.5 1172.5,-1512.5 852.5,-1512.5"/>
<polygon fill="none" stroke="#000000" points="852.5,-1512.5 852.5,-1547.5 1172.5,-1547.5 1172.5,-1512.5 852.5,-1512.5"/>
<text text-anchor="start" x="913.7123" y="-1525.3" font-family="Arial Bold" font-size="18.00" fill="#000000">actor.usr</text>
<text text-anchor="start" x="983.7197" y="-1525.3" font-family="Arial" font-size="14.00" fill="#000000">    </text>
<text text-anchor="start" x="1017.9245" y="-1525.3" font-family="Arial" font-size="14.00" fill="#666666">[BASE TABLE]</text>
<polygon fill="none" stroke="#000000" points="852.5,-1482.5 852.5,-1512.5 1172.5,-1512.5 1172.5,-1482.5 852.5,-1482.5"/>
<text text-anchor="start" x="859.5" y="-1493.9" font-family="Arial" font-size="14.00" fill="#000000">id    </text>
<text text-anchor="start" x="904.594" y="-1493.9" font-family="Arial" font-size="14.00" fill="#666666">[integer]</text>
<polygon fill="none" stroke="#000000" points="852.5,-1452.5 852.5,-1482.5 1172.5,-1482.5 1172.5,-1452.5 852.5,-1452.5"/>
<text text-anchor="start" x="859.5" y="-1463.9" font-family="Arial" font-size="14.00" fill="#000000">card    </text>
<text text-anchor="start" x="920.9306" y="-1463.9" font-family="Arial" font-size="14.00" fill="#666666">[integer]</text>
<polygon fill="none" stroke="#000000" points="852.5,-1422.5 852.5,-1452.5 1172.5,-1452.5 1172.5,-1422.5 852.5,-1422.5"/>
<text text-anchor="start" x="859.5" y="-1433.9" font-family="Arial" font-size="14.00" fill="#000000">profile    </text>
<text text-anchor="start" x="931.817" y="-1433.9" font-family="Arial" font-size="14.00" fill="#666666">[integer]</text>
<polygon fill="none" stroke="#000000" points="852.5,-1392.5 852.5,-1422.5 1172.5,-1422.5 1172.5,-1392.5 852.5,-1392.5"/>
<text text-anchor="start" x="859.5" y="-1403.9" font-family="Arial" font-size="14.00" fill="#000000">usrname    </text>
<text text-anchor="start" x="948.1564" y="-1403.9" font-family="Arial" font-size="14.00" fill="#666666">[text]</text>
<polygon fill="none" stroke="#000000" points="852.5,-1362.5 852.5,-1392.5 1172.5,-1392.5 1172.5,-1362.5 852.5,-1362.5"/>
<text text-anchor="start" x="859.5" y="-1373.9" font-family="Arial" font-size="14.00" fill="#000000">email    </text>
<text text-anchor="start" x="927.1438" y="-1373.9" font-family="Arial" font-size="14.00" fill="#666666">[text]</text>
<polygon fill="none" stroke="#000000" points="852.5,-1332.5 852.5,-1362.5 1172.5,-1362.5 1172.5,-1332.5 852.5,-1332.5"/>
<text text-anchor="start" x="859.5" y="-1343.9" font-family="Arial" font-size="14.00" fill="#000000">passwd    </text>
<text text-anchor="start" x="941.1592" y="-1343.9" font-family="Arial" font-size="14.00" fill="#666666">[text]</text>
<polygon fill="none" stroke="#000000" points="852.5,-1302.5 852.5,-1332.5 1172.5,-1332.5 1172.5,-1302.5 852.5,-1302.5"/>
<text text-anchor="start" x="859.5" y="-1313.9" font-family="Arial" font-size="14.00" fill="#000000">standing    </text>
<text text-anchor="start" x="946.615" y="-1313.9" font-family="Arial" font-size="14.00" fill="#666666">[integer]</text>
<polygon fill="none" stroke="#000000" points="852.5,-1272.5 852.5,-1302.5 1172.5,-1302.5 1172.5,-1272.5 852.5,-1272.5"/>
<text text-anchor="start" x="859.5" y="-1283.9" font-family="Arial" font-size="14.00" fill="#000000">ident_type    </text>
<text text-anchor="start" x="958.2882" y="-1283.9" font-family="Arial" font-size="14.00" fill="#666666">[integer]</text>
<polygon fill="none" stroke="#000000" points="852.5,-1242.5 852.5,-1272.5 1172.5,-1272.5 1172.5,-1242.5 852.5,-1242.5"/>
<text text-anchor="start" x="859.5" y="-1253.9" font-family="Arial" font-size="14.00" fill="#000000">ident_value    </text>
<text text-anchor="start" x="965.2868" y="-1253.9" font-family="Arial" font-size="14.00" fill="#666666">[text]</text>
<polygon fill="none" stroke="#000000" points="852.5,-1212.5 852.5,-1242.5 1172.5,-1242.5 1172.5,-1212.5 852.5,-1212.5"/>
<text text-anchor="start" x="859.5" y="-1223.9" font-family="Arial" font-size="14.00" fill="#000000">ident_type2    </text>
<text text-anchor="start" x="966.0708" y="-1223.9" font-family="Arial" font-size="14.00" fill="#666666">[integer]</text>
<polygon fill="none" stroke="#000000" points="852.5,-1182.5 852.5,-1212.5 1172.5,-1212.5 1172.5,-1182.5 852.5,-1182.5"/>
<text text-anchor="start" x="859.5" y="-1193.9" font-family="Arial" font-size="14.00" fill="#000000">ident_value2    </text>
<text text-anchor="start" x="973.0694" y="-1193.9" font-family="Arial" font-size="14.00" fill="#666666">[text]</text>
<polygon fill="none" stroke="#000000" points="852.5,-1152.5 852.5,-1182.5 1172.5,-1182.5 1172.5,-1152.5 852.5,-1152.5"/>
<text text-anchor="start" x="859.5" y="-1163.9" font-family="Arial" font-size="14.00" fill="#000000">net_access_level    </text>
<text text-anchor="start" x="1001.0694" y="-1163.9" font-family="Arial" font-size="14.00" fill="#666666">[integer]</text>
<polygon fill="none" stroke="#000000" points="852.5,-1122.5 852.5,-1152.5 1172.5,-1152.5 1172.5,-1122.5 852.5,-1122.5"/>
<text text-anchor="start" x="859.5" y="-1133.9" font-family="Arial" font-size="14.00" fill="#000000">photo_url    </text>
<text text-anchor="start" x="952.0582" y="-1133.9" font-family="Arial" font-size="14.00" fill="#666666">[text]</text>
<polygon fill="none" stroke="#000000" points="852.5,-1092.5 852.5,-1122.5 1172.5,-1122.5 1172.5,-1092.5 852.5,-1092.5"/>
<text text-anchor="start" x="859.5" y="-1103.9" font-family="Arial" font-size="14.00" fill="#000000">prefix    </text>
<text text-anchor="start" x="927.9278" y="-1103.9" font-family="Arial" font-size="14.00" fill="#666666">[text]</text>
<polygon fill="none" stroke="#000000" points="852.5,-1062.5 852.5,-1092.5 1172.5,-1092.5 1172.5,-1062.5 852.5,-1062.5"/>
<text text-anchor="start" x="859.5" y="-1073.9" font-family="Arial" font-size="14.00" fill="#000000">first_given_name    </text>
<text text-anchor="start" x="1000.2812" y="-1073.9" font-family="Arial" font-size="14.00" fill="#666666">[text]</text>
<polygon fill="none" stroke="#000000" points="852.5,-1032.5 852.5,-1062.5 1172.5,-1062.5 1172.5,-1032.5 852.5,-1032.5"/>
<text text-anchor="start" x="859.5" y="-1043.9" font-family="Arial" font-size="14.00" fill="#000000">second_given_name    </text>
<text text-anchor="start" x="1022.8632" y="-1043.9" font-family="Arial" font-size="14.00" fill="#666666">[text]</text>
<polygon fill="none" stroke="#000000" points="852.5,-1002.5 852.5,-1032.5 1172.5,-1032.5 1172.5,-1002.5 852.5,-1002.5"/>
<text text-anchor="start" x="859.5" y="-1013.9" font-family="Arial" font-size="14.00" fill="#000000">family_name    </text>
<text text-anchor="start" x="973.0428" y="-1013.9" font-family="Arial" font-size="14.00" fill="#666666">[text]</text>
<polygon fill="none" stroke="#000000" points="852.5,-972.5 852.5,-1002.5 1172.5,-1002.5 1172.5,-972.5 852.5,-972.5"/>
<text text-anchor="start" x="859.5" y="-983.9" font-family="Arial" font-size="14.00" fill="#000000">suffix    </text>
<text text-anchor="start" x="926.3752" y="-983.9" font-family="Arial" font-size="14.00" fill="#666666">[text]</text>
<polygon fill="none" stroke="#000000" points="852.5,-942.5 852.5,-972.5 1172.5,-972.5 1172.5,-942.5 852.5,-942.5"/>
<text text-anchor="start" x="859.5" y="-953.9" font-family="Arial" font-size="14.00" fill="#000000">alias    </text>
<text text-anchor="start" x="922.4832" y="-953.9" font-family="Arial" font-size="14.00" fill="#666666">[text]</text>
<polygon fill="none" stroke="#000000" points="852.5,-912.5 852.5,-942.5 1172.5,-942.5 1172.5,-912.5 852.5,-912.5"/>
<text text-anchor="start" x="859.5" y="-923.9" font-family="Arial" font-size="14.00" fill="#000000">day_phone    </text>
<text text-anchor="start" x="962.9656" y="-923.9" font-family="Arial" font-size="14.00" fill="#666666">[text]</text>
<polygon fill="none" stroke="#000000" points="852.5,-882.5 852.5,-912.5 1172.5,-912.5 1172.5,-882.5 852.5,-882.5"/>
<text text-anchor="start" x="859.5" y="-893.9" font-family="Arial" font-size="14.00" fill="#000000">evening_phone    </text>
<text text-anchor="start" x="989.42" y="-893.9" font-family="Arial" font-size="14.00" fill="#666666">[text]</text>
<polygon fill="none" stroke="#000000" points="852.5,-852.5 852.5,-882.5 1172.5,-882.5 1172.5,-852.5 852.5,-852.5"/>
<text text-anchor="start" x="859.5" y="-863.9" font-family="Arial" font-size="14.00" fill="#000000">other_phone    </text>
<text text-anchor="start" x="972.2994" y="-863.9" font-family="Arial" font-size="14.00" fill="#666666">[text]</text>
<polygon fill="none" stroke="#000000" points="852.5,-822.5 852.5,-852.5 1172.5,-852.5 1172.5,-822.5 852.5,-822.5"/>
<text text-anchor="start" x="859.5" y="-833.9" font-family="Arial" font-size="14.00" fill="#000000">mailing_address    </text>
<text text-anchor="start" x="995.6066" y="-833.9" font-family="Arial" font-size="14.00" fill="#666666">[integer]</text>
<polygon fill="none" stroke="#000000" points="852.5,-792.5 852.5,-822.5 1172.5,-822.5 1172.5,-792.5 852.5,-792.5"/>
<text text-anchor="start" x="859.5" y="-803.9" font-family="Arial" font-size="14.00" fill="#000000">billing_address    </text>
<text text-anchor="start" x="987.0526" y="-803.9" font-family="Arial" font-size="14.00" fill="#666666">[integer]</text>
<polygon fill="none" stroke="#000000" points="852.5,-762.5 852.5,-792.5 1172.5,-792.5 1172.5,-762.5 852.5,-762.5"/>
<text text-anchor="start" x="859.5" y="-773.9" font-family="Arial" font-size="14.00" fill="#000000">home_ou    </text>
<text text-anchor="start" x="952.061" y="-773.9" font-family="Arial" font-size="14.00" fill="#666666">[integer]</text>
<polygon fill="none" stroke="#000000" points="852.5,-732.5 852.5,-762.5 1172.5,-762.5 1172.5,-732.5 852.5,-732.5"/>
<text text-anchor="start" x="859.5" y="-743.9" font-family="Arial" font-size="14.00" fill="#000000">dob    </text>
<text text-anchor="start" x="917.0526" y="-743.9" font-family="Arial" font-size="14.00" fill="#666666">[date]</text>
<polygon fill="none" stroke="#000000" points="852.5,-702.5 852.5,-732.5 1172.5,-732.5 1172.5,-702.5 852.5,-702.5"/>
<text text-anchor="start" x="859.5" y="-713.9" font-family="Arial" font-size="14.00" fill="#000000">active    </text>
<text text-anchor="start" x="930.2672" y="-713.9" font-family="Arial" font-size="14.00" fill="#666666">[boolean]</text>
<polygon fill="none" stroke="#000000" points="852.5,-672.5 852.5,-702.5 1172.5,-702.5 1172.5,-672.5 852.5,-672.5"/>
<text text-anchor="start" x="859.5" y="-683.9" font-family="Arial" font-size="14.00" fill="#000000">master_account    </text>
<text text-anchor="start" x="993.2854" y="-683.9" font-family="Arial" font-size="14.00" fill="#666666">[boolean]</text>
<polygon fill="none" stroke="#000000" points="852.5,-642.5 852.5,-672.5 1172.5,-672.5 1172.5,-642.5 852.5,-642.5"/>
<text text-anchor="start" x="859.5" y="-653.9" font-family="Arial" font-size="14.00" fill="#000000">super_user    </text>
<text text-anchor="start" x="963.7216" y="-653.9" font-family="Arial" font-size="14.00" fill="#666666">[boolean]</text>
<polygon fill="none" stroke="#000000" points="852.5,-612.5 852.5,-642.5 1172.5,-642.5 1172.5,-612.5 852.5,-612.5"/>
<text text-anchor="start" x="859.5" y="-623.9" font-family="Arial" font-size="14.00" fill="#000000">barred    </text>
<text text-anchor="start" x="934.1564" y="-623.9" font-family="Arial" font-size="14.00" fill="#666666">[boolean]</text>
<polygon fill="none" stroke="#000000" points="852.5,-582.5 852.5,-612.5 1172.5,-612.5 1172.5,-582.5 852.5,-582.5"/>
<text text-anchor="start" x="859.5" y="-593.9" font-family="Arial" font-size="14.00" fill="#000000">deleted    </text>
<text text-anchor="start" x="939.615" y="-593.9" font-family="Arial" font-size="14.00" fill="#666666">[boolean]</text>
<polygon fill="none" stroke="#000000" points="852.5,-552.5 852.5,-582.5 1172.5,-582.5 1172.5,-552.5 852.5,-552.5"/>
<text text-anchor="start" x="859.5" y="-563.9" font-family="Arial" font-size="14.00" fill="#000000">juvenile    </text>
<text text-anchor="start" x="941.155" y="-563.9" font-family="Arial" font-size="14.00" fill="#666666">[boolean]</text>
<polygon fill="none" stroke="#000000" points="852.5,-522.5 852.5,-552.5 1172.5,-552.5 1172.5,-522.5 852.5,-522.5"/>
<text text-anchor="start" x="859.5" y="-533.9" font-family="Arial" font-size="14.00" fill="#000000">usrgroup    </text>
<text text-anchor="start" x="948.939" y="-533.9" font-family="Arial" font-size="14.00" fill="#666666">[integer]</text>
<polygon fill="none" stroke="#000000" points="852.5,-492.5 852.5,-522.5 1172.5,-522.5 1172.5,-492.5 852.5,-492.5"/>
<text text-anchor="start" x="859.5" y="-503.9" font-family="Arial" font-size="14.00" fill="#000000">claims_returned_count    </text>
<text text-anchor="start" x="1035.2896" y="-503.9" font-family="Arial" font-size="14.00" fill="#666666">[integer]</text>
<polygon fill="none" stroke="#000000" points="852.5,-462.5 852.5,-492.5 1172.5,-492.5 1172.5,-462.5 852.5,-462.5"/>
<text text-anchor="start" x="859.5" y="-473.9" font-family="Arial" font-size="14.00" fill="#000000">credit_forward_balance    </text>
<text text-anchor="start" x="1039.1788" y="-473.9" font-family="Arial" font-size="14.00" fill="#666666">[numeric(6,2)]</text>
<polygon fill="none" stroke="#000000" points="852.5,-432.5 852.5,-462.5 1172.5,-462.5 1172.5,-432.5 852.5,-432.5"/>
<text text-anchor="start" x="859.5" y="-443.9" font-family="Arial" font-size="14.00" fill="#000000">last_xact_id    </text>
<text text-anchor="start" x="967.6122" y="-443.9" font-family="Arial" font-size="14.00" fill="#666666">[text]</text>
<polygon fill="none" stroke="#000000" points="852.5,-402.5 852.5,-432.5 1172.5,-432.5 1172.5,-402.5 852.5,-402.5"/>
<text text-anchor="start" x="859.5" y="-413.9" font-family="Arial" font-size="14.00" fill="#000000">alert_message    </text>
<text text-anchor="start" x="985.5014" y="-413.9" font-family="Arial" font-size="14.00" fill="#666666">[text]</text>
<polygon fill="none" stroke="#000000" points="852.5,-372.5 852.5,-402.5 1172.5,-402.5 1172.5,-372.5 852.5,-372.5"/>
<text text-anchor="start" x="859.5" y="-383.9" font-family="Arial" font-size="14.00" fill="#000000">create_date    </text>
<text text-anchor="start" x="967.6248" y="-383.9" font-family="Arial" font-size="14.00" fill="#666666">[timestamp with time zone]</text>
<polygon fill="none" stroke="#000000" points="852.5,-342.5 852.5,-372.5 1172.5,-372.5 1172.5,-342.5 852.5,-342.5"/>
<text text-anchor="start" x="859.5" y="-353.9" font-family="Arial" font-size="14.00" fill="#000000">expire_date    </text>
<text text-anchor="start" x="966.8408" y="-353.9" font-family="Arial" font-size="14.00" fill="#666666">[timestamp with time zone]</text>
<polygon fill="none" stroke="#000000" points="852.5,-312.5 852.5,-342.5 1172.5,-342.5 1172.5,-312.5 852.5,-312.5"/>
<text text-anchor="start" x="859.5" y="-323.9" font-family="Arial" font-size="14.00" fill="#000000">claims_never_checked_out_count    </text>
<text text-anchor="start" x="1105.3246" y="-323.9" font-family="Arial" font-size="14.00" fill="#666666">[integer]</text>
<polygon fill="none" stroke="#000000" points="852.5,-282.5 852.5,-312.5 1172.5,-312.5 1172.5,-282.5 852.5,-282.5"/>
<text text-anchor="start" x="859.2609" y="-293.9" font-family="Arial" font-size="14.00" fill="#000000">last_update_time    </text>
<text text-anchor="start" x="1000.0547" y="-293.9" font-family="Arial" font-size="14.00" fill="#666666">[timestamp with time zone]</text>
<polygon fill="none" stroke="#000000" points="852.5,-252.5 852.5,-282.5 1172.5,-282.5 1172.5,-252.5 852.5,-252.5"/>
<text text-anchor="start" x="859.5" y="-263.9" font-family="Arial" font-size="14.00" fill="#000000">pref_prefix    </text>
<text text-anchor="start" x="959.8268" y="-263.9" font-family="Arial" font-size="14.00" fill="#666666">[text]</text>
<polygon fill="none" stroke="#000000" points="852.5,-222.5 852.5,-252.5 1172.5,-252.5 1172.5,-222.5 852.5,-222.5"/>
<text text-anchor="start" x="859.5" y="-233.9" font-family="Arial" font-size="14.00" fill="#000000">pref_first_given_name    </text>
<text text-anchor="start" x="1032.1802" y="-233.9" font-family="Arial" font-size="14.00" fill="#666666">[text]</text>
<polygon fill="none" stroke="#000000" points="852.5,-192.5 852.5,-222.5 1172.5,-222.5 1172.5,-192.5 852.5,-192.5"/>
<text text-anchor="start" x="859.5" y="-203.9" font-family="Arial" font-size="14.00" fill="#000000">pref_second_given_name    </text>
<text text-anchor="start" x="1054.7622" y="-203.9" font-family="Arial" font-size="14.00" fill="#666666">[text]</text>
<polygon fill="none" stroke="#000000" points="852.5,-162.5 852.5,-192.5 1172.5,-192.5 1172.5,-162.5 852.5,-162.5"/>
<text text-anchor="start" x="859.5" y="-173.9" font-family="Arial" font-size="14.00" fill="#000000">pref_family_name    </text>
<text text-anchor="start" x="1004.9418" y="-173.9" font-family="Arial" font-size="14.00" fill="#666666">[text]</text>
<polygon fill="none" stroke="#000000" points="852.5,-132.5 852.5,-162.5 1172.5,-162.5 1172.5,-132.5 852.5,-132.5"/>
<text text-anchor="start" x="859.5" y="-143.9" font-family="Arial" font-size="14.00" fill="#000000">pref_suffix    </text>
<text text-anchor="start" x="958.2742" y="-143.9" font-family="Arial" font-size="14.00" fill="#666666">[text]</text>
<polygon fill="none" stroke="#000000" points="852.5,-102.5 852.5,-132.5 1172.5,-132.5 1172.5,-102.5 852.5,-102.5"/>
<text text-anchor="start" x="859.5" y="-113.9" font-family="Arial" font-size="14.00" fill="#000000">name_keywords    </text>
<text text-anchor="start" x="995.6108" y="-113.9" font-family="Arial" font-size="14.00" fill="#666666">[text]</text>
<polygon fill="none" stroke="#000000" points="852.5,-72.5 852.5,-102.5 1172.5,-102.5 1172.5,-72.5 852.5,-72.5"/>
<text text-anchor="start" x="859.5" y="-83.9" font-family="Arial" font-size="14.00" fill="#000000">name_kw_tsvector    </text>
<text text-anchor="start" x="1010.392" y="-83.9" font-family="Arial" font-size="14.00" fill="#666666">[tsvector]</text>
<polygon fill="none" stroke="#000000" points="852.5,-42.5 852.5,-72.5 1172.5,-72.5 1172.5,-42.5 852.5,-42.5"/>
<text text-anchor="start" x="859.5" y="-53.9" font-family="Arial" font-size="14.00" fill="#000000">guardian    </text>
<text text-anchor="start" x="948.1676" y="-53.9" font-family="Arial" font-size="14.00" fill="#666666">[text]</text>
</g>
<!-- reporter.schedule&#45;&gt;actor.usr -->
<g id="edge3" class="edge">
<title>reporter.schedule:runner&#45;&gt;actor.usr:id</title>
<path fill="none" stroke="#000000" d="M740.8621,-2043.0728C793.8209,-1991.0217 793.2272,-1497.5 852.5,-1497.5"/>
<polygon fill="#000000" stroke="#000000" points="740.5402,-2043.225 729.5762,-2043.4319 736.0201,-2045.3625 731.5,-2047.5 731.5,-2047.5 731.5,-2047.5 736.0201,-2045.3625 733.4238,-2051.5681 740.5402,-2043.225 740.5402,-2043.225"/>
<text text-anchor="start" x="738.4965" y="-2057.5" font-family="Arial" font-size="10.00" fill="#000000">FOREIGN KEY (runner) REFERENCES actor.usr(id) DEFERRABLE INITIALLY DEFERRED</text>
</g>
</g>
</svg>
