<?xml version="1.0" encoding="UTF-8" standalone="no"?>
<!DOCTYPE svg PUBLIC "-//W3C//DTD SVG 1.1//EN"
 "http://www.w3.org/Graphics/SVG/1.1/DTD/svg11.dtd">
<!-- Generated by graphviz version 2.40.1 (20161225.0304)
 -->
<!-- Title: search.relevance_adjustment Pages: 1 -->
<svg width="893pt" height="982pt"
 viewBox="0.00 0.00 893.00 982.00" xmlns="http://www.w3.org/2000/svg" xmlns:xlink="http://www.w3.org/1999/xlink">
<g id="graph0" class="graph" transform="scale(1 1) rotate(0) translate(4 978)">
<title>search.relevance_adjustment</title>
<polygon fill="#ffffff" stroke="transparent" points="-4,4 -4,-978 889,-978 889,4 -4,4"/>
<!-- search.relevance_adjustment -->
<g id="node1" class="node">
<title>search.relevance_adjustment</title>
<polygon fill="#efefef" stroke="transparent" points="463,-892.5 463,-927.5 839,-927.5 839,-892.5 463,-892.5"/>
<polygon fill="none" stroke="#000000" points="463,-892.5 463,-927.5 839,-927.5 839,-892.5 463,-892.5"/>
<text text-anchor="start" x="469.6868" y="-905.3" font-family="Arial Bold" font-size="18.00" fill="#000000">search.relevance_adjustment</text>
<text text-anchor="start" x="704.7452" y="-905.3" font-family="Arial" font-size="14.00" fill="#000000">    </text>
<text text-anchor="start" x="738.95" y="-905.3" font-family="Arial" font-size="14.00" fill="#666666">[BASE TABLE]</text>
<polygon fill="none" stroke="#000000" points="463,-862.5 463,-892.5 839,-892.5 839,-862.5 463,-862.5"/>
<text text-anchor="start" x="470" y="-873.9" font-family="Arial" font-size="14.00" fill="#000000">id </text>
<text text-anchor="start" x="484.7798" y="-873.9" font-family="Arial" font-size="14.00" fill="#666666">[integer]</text>
<polygon fill="none" stroke="#000000" points="463,-832.5 463,-862.5 839,-862.5 839,-832.5 463,-832.5"/>
<text text-anchor="start" x="470" y="-843.9" font-family="Arial" font-size="14.00" fill="#000000">active </text>
<text text-anchor="start" x="510.453" y="-843.9" font-family="Arial" font-size="14.00" fill="#666666">[boolean]</text>
<polygon fill="none" stroke="#000000" points="463,-802.5 463,-832.5 839,-832.5 839,-802.5 463,-802.5"/>
<text text-anchor="start" x="470" y="-813.9" font-family="Arial" font-size="14.00" fill="#000000">field </text>
<text text-anchor="start" x="499.5596" y="-813.9" font-family="Arial" font-size="14.00" fill="#666666">[integer]</text>
<polygon fill="none" stroke="#000000" points="463,-772.5 463,-802.5 839,-802.5 839,-772.5 463,-772.5"/>
<text text-anchor="start" x="470" y="-783.9" font-family="Arial" font-size="14.00" fill="#000000">bump_type </text>
<text text-anchor="start" x="543.1374" y="-783.9" font-family="Arial" font-size="14.00" fill="#666666">[text]</text>
<polygon fill="none" stroke="#000000" points="463,-742.5 463,-772.5 839,-772.5 839,-742.5 463,-742.5"/>
<text text-anchor="start" x="470" y="-753.9" font-family="Arial" font-size="14.00" fill="#000000">multiplier </text>
<text text-anchor="start" x="529.8766" y="-753.9" font-family="Arial" font-size="14.00" fill="#666666">[numeric]</text>
<polygon fill="none" stroke="#000000" stroke-width="3" points="461.5,-741.5 461.5,-929.5 840.5,-929.5 840.5,-741.5 461.5,-741.5"/>
</g>
<!-- config.metabib_field -->
<g id="node2" class="node">
<title>config.metabib_field</title>
<polygon fill="#efefef" stroke="transparent" points="500,-582.5 500,-617.5 801,-617.5 801,-582.5 500,-582.5"/>
<polygon fill="none" stroke="#000000" points="500,-582.5 500,-617.5 801,-617.5 801,-582.5 500,-582.5"/>
<text text-anchor="start" x="506.6961" y="-595.3" font-family="Arial Bold" font-size="18.00" fill="#000000">config.metabib_field</text>
<text text-anchor="start" x="666.7359" y="-595.3" font-family="Arial" font-size="14.00" fill="#000000">    </text>
<text text-anchor="start" x="700.9407" y="-595.3" font-family="Arial" font-size="14.00" fill="#666666">[BASE TABLE]</text>
<polygon fill="none" stroke="#000000" points="500,-552.5 500,-582.5 801,-582.5 801,-552.5 500,-552.5"/>
<text text-anchor="start" x="507" y="-563.9" font-family="Arial" font-size="14.00" fill="#000000">id    </text>
<text text-anchor="start" x="552.094" y="-563.9" font-family="Arial" font-size="14.00" fill="#666666">[integer]</text>
<polygon fill="none" stroke="#000000" points="500,-522.5 500,-552.5 801,-552.5 801,-522.5 500,-522.5"/>
<text text-anchor="start" x="507" y="-533.9" font-family="Arial" font-size="14.00" fill="#000000">field_class    </text>
<text text-anchor="start" x="606.5456" y="-533.9" font-family="Arial" font-size="14.00" fill="#666666">[text]</text>
<polygon fill="none" stroke="#000000" points="500,-492.5 500,-522.5 801,-522.5 801,-492.5 500,-492.5"/>
<text text-anchor="start" x="507" y="-503.9" font-family="Arial" font-size="14.00" fill="#000000">name    </text>
<text text-anchor="start" x="576.2132" y="-503.9" font-family="Arial" font-size="14.00" fill="#666666">[text]</text>
<polygon fill="none" stroke="#000000" points="500,-462.5 500,-492.5 801,-492.5 801,-462.5 500,-462.5"/>
<text text-anchor="start" x="507" y="-473.9" font-family="Arial" font-size="14.00" fill="#000000">label    </text>
<text text-anchor="start" x="570.7658" y="-473.9" font-family="Arial" font-size="14.00" fill="#666666">[text]</text>
<polygon fill="none" stroke="#000000" points="500,-432.5 500,-462.5 801,-462.5 801,-432.5 500,-432.5"/>
<text text-anchor="start" x="507" y="-443.9" font-family="Arial" font-size="14.00" fill="#000000">xpath    </text>
<text text-anchor="start" x="575.4432" y="-443.9" font-family="Arial" font-size="14.00" fill="#666666">[text]</text>
<polygon fill="none" stroke="#000000" points="500,-402.5 500,-432.5 801,-432.5 801,-402.5 500,-402.5"/>
<text text-anchor="start" x="507" y="-413.9" font-family="Arial" font-size="14.00" fill="#000000">weight    </text>
<text text-anchor="start" x="581.6564" y="-413.9" font-family="Arial" font-size="14.00" fill="#666666">[integer]</text>
<polygon fill="none" stroke="#000000" points="500,-372.5 500,-402.5 801,-402.5 801,-372.5 500,-372.5"/>
<text text-anchor="start" x="507" y="-383.9" font-family="Arial" font-size="14.00" fill="#000000">format    </text>
<text text-anchor="start" x="580.8724" y="-383.9" font-family="Arial" font-size="14.00" fill="#666666">[text]</text>
<polygon fill="none" stroke="#000000" points="500,-342.5 500,-372.5 801,-372.5 801,-342.5 500,-342.5"/>
<text text-anchor="start" x="507" y="-353.9" font-family="Arial" font-size="14.00" fill="#000000">search_field    </text>
<text text-anchor="start" x="616.6648" y="-353.9" font-family="Arial" font-size="14.00" fill="#666666">[boolean]</text>
<polygon fill="none" stroke="#000000" points="500,-312.5 500,-342.5 801,-342.5 801,-312.5 500,-312.5"/>
<text text-anchor="start" x="507" y="-323.9" font-family="Arial" font-size="14.00" fill="#000000">facet_field    </text>
<text text-anchor="start" x="605.0028" y="-323.9" font-family="Arial" font-size="14.00" fill="#666666">[boolean]</text>
<polygon fill="none" stroke="#000000" points="500,-282.5 500,-312.5 801,-312.5 801,-282.5 500,-282.5"/>
<text text-anchor="start" x="507" y="-293.9" font-family="Arial" font-size="14.00" fill="#000000">browse_field    </text>
<text text-anchor="start" x="619.7714" y="-293.9" font-family="Arial" font-size="14.00" fill="#666666">[boolean]</text>
<polygon fill="none" stroke="#000000" points="500,-252.5 500,-282.5 801,-282.5 801,-252.5 500,-252.5"/>
<text text-anchor="start" x="507" y="-263.9" font-family="Arial" font-size="14.00" fill="#000000">browse_xpath    </text>
<text text-anchor="start" x="628.3408" y="-263.9" font-family="Arial" font-size="14.00" fill="#666666">[text]</text>
<polygon fill="none" stroke="#000000" points="500,-222.5 500,-252.5 801,-252.5 801,-222.5 500,-222.5"/>
<text text-anchor="start" x="507" y="-233.9" font-family="Arial" font-size="14.00" fill="#000000">browse_sort_xpath    </text>
<text text-anchor="start" x="659.4572" y="-233.9" font-family="Arial" font-size="14.00" fill="#666666">[text]</text>
<polygon fill="none" stroke="#000000" points="500,-192.5 500,-222.5 801,-222.5 801,-192.5 500,-192.5"/>
<text text-anchor="start" x="507" y="-203.9" font-family="Arial" font-size="14.00" fill="#000000">facet_xpath    </text>
<text text-anchor="start" x="613.5722" y="-203.9" font-family="Arial" font-size="14.00" fill="#666666">[text]</text>
<polygon fill="none" stroke="#000000" points="500,-162.5 500,-192.5 801,-192.5 801,-162.5 500,-162.5"/>
<text text-anchor="start" x="507" y="-173.9" font-family="Arial" font-size="14.00" fill="#000000">display_xpath    </text>
<text text-anchor="start" x="626.7868" y="-173.9" font-family="Arial" font-size="14.00" fill="#666666">[text]</text>
<polygon fill="none" stroke="#000000" points="500,-132.5 500,-162.5 801,-162.5 801,-132.5 500,-132.5"/>
<text text-anchor="start" x="507" y="-143.9" font-family="Arial" font-size="14.00" fill="#000000">authority_xpath    </text>
<text text-anchor="start" x="636.9046" y="-143.9" font-family="Arial" font-size="14.00" fill="#666666">[text]</text>
<polygon fill="none" stroke="#000000" points="500,-102.5 500,-132.5 801,-132.5 801,-102.5 500,-102.5"/>
<text text-anchor="start" x="507" y="-113.9" font-family="Arial" font-size="14.00" fill="#000000">joiner    </text>
<text text-anchor="start" x="575.4264" y="-113.9" font-family="Arial" font-size="14.00" fill="#666666">[text]</text>
<polygon fill="none" stroke="#000000" points="500,-72.5 500,-102.5 801,-102.5 801,-72.5 500,-72.5"/>
<text text-anchor="start" x="507" y="-83.9" font-family="Arial" font-size="14.00" fill="#000000">restrict    </text>
<text text-anchor="start" x="583.1964" y="-83.9" font-family="Arial" font-size="14.00" fill="#666666">[boolean]</text>
<polygon fill="none" stroke="#000000" points="500,-42.5 500,-72.5 801,-72.5 801,-42.5 500,-42.5"/>
<text text-anchor="start" x="507" y="-53.9" font-family="Arial" font-size="14.00" fill="#000000">display_field    </text>
<text text-anchor="start" x="618.2174" y="-53.9" font-family="Arial" font-size="14.00" fill="#666666">[boolean]</text>
</g>
<!-- search.relevance_adjustment&#45;&gt;config.metabib_field -->
<g id="edge1" class="edge">
<title>search.relevance_adjustment:field&#45;&gt;config.metabib_field:id</title>
<path fill="none" stroke="#000000" d="M452.9995,-816.4078C411.9553,-806.661 429.6398,-734.102 463,-697 513.5044,-640.8308 750.4956,-717.1692 801,-661 828.7846,-630.0989 842.5556,-567.5 801,-567.5"/>
<polygon fill="#000000" stroke="#000000" points="453.0591,-816.4142 462.5114,-821.9734 458.0296,-816.9571 463,-817.5 463,-817.5 463,-817.5 458.0296,-816.9571 463.4886,-813.0266 453.0591,-816.4142 453.0591,-816.4142"/>
<text text-anchor="start" x="7.267" y="-827.5" font-family="Arial" font-size="10.00" fill="#000000">FOREIGN KEY (field) REFERENCES config.metabib_field(id) DEFERRABLE INITIALLY DEFERRED</text>
</g>
</g>
</svg>
