<?xml version="1.0" encoding="UTF-8" standalone="no"?>
<!DOCTYPE svg PUBLIC "-//W3C//DTD SVG 1.1//EN"
 "http://www.w3.org/Graphics/SVG/1.1/DTD/svg11.dtd">
<!-- Generated by graphviz version 2.40.1 (20161225.0304)
 -->
<!-- Title: search.best_tsconfig Pages: 1 -->
<svg width="356pt" height="195pt"
 viewBox="0.00 0.00 356.00 195.00" xmlns="http://www.w3.org/2000/svg" xmlns:xlink="http://www.w3.org/1999/xlink">
<g id="graph0" class="graph" transform="scale(1 1) rotate(0) translate(4 191)">
<title>search.best_tsconfig</title>
<polygon fill="#ffffff" stroke="transparent" points="-4,4 -4,-191 352,-191 352,4 -4,4"/>
<!-- search.best_tsconfig -->
<g id="node1" class="node">
<title>search.best_tsconfig</title>
<polygon fill="#efefef" stroke="transparent" points="46,-105.5 46,-140.5 302,-140.5 302,-105.5 46,-105.5"/>
<polygon fill="none" stroke="#000000" points="46,-105.5 46,-140.5 302,-140.5 302,-105.5 46,-105.5"/>
<text text-anchor="start" x="52.5923" y="-118.3" font-family="Arial Bold" font-size="18.00" fill="#000000">search.best_tsconfig</text>
<text text-anchor="start" x="217.6433" y="-118.3" font-family="Arial" font-size="14.00" fill="#000000">    </text>
<text text-anchor="start" x="251.8481" y="-118.3" font-family="Arial" font-size="14.00" fill="#666666">[VIEW]</text>
<polygon fill="none" stroke="#000000" points="46,-75.5 46,-105.5 302,-105.5 302,-75.5 46,-75.5"/>
<text text-anchor="start" x="53" y="-86.9" font-family="Arial" font-size="14.00" fill="#000000">id </text>
<text text-anchor="start" x="67.7798" y="-86.9" font-family="Arial" font-size="14.00" fill="#666666">[integer]</text>
<polygon fill="none" stroke="#000000" points="46,-45.5 46,-75.5 302,-75.5 302,-45.5 46,-45.5"/>
<text text-anchor="start" x="53" y="-56.9" font-family="Arial" font-size="14.00" fill="#000000">ts_config </text>
<text text-anchor="start" x="112.9088" y="-56.9" font-family="Arial" font-size="14.00" fill="#666666">[text]</text>
<polygon fill="none" stroke="#000000" stroke-width="3" points="44.5,-44.5 44.5,-142.5 303.5,-142.5 303.5,-44.5 44.5,-44.5"/>
</g>
</g>
</svg>
