<?xml version="1.0" encoding="UTF-8" standalone="no"?>
<!DOCTYPE svg PUBLIC "-//W3C//DTD SVG 1.1//EN"
 "http://www.w3.org/Graphics/SVG/1.1/DTD/svg11.dtd">
<!-- Generated by graphviz version 2.40.1 (20161225.0304)
 -->
<!-- Title: serial.index_summary Pages: 1 -->
<svg width="960pt" height="832pt"
 viewBox="0.00 0.00 960.00 832.00" xmlns="http://www.w3.org/2000/svg" xmlns:xlink="http://www.w3.org/1999/xlink">
<g id="graph0" class="graph" transform="scale(1 1) rotate(0) translate(4 828)">
<title>serial.index_summary</title>
<polygon fill="#ffffff" stroke="transparent" points="-4,4 -4,-828 956,-828 956,4 -4,4"/>
<!-- serial.index_summary -->
<g id="node1" class="node">
<title>serial.index_summary</title>
<polygon fill="#efefef" stroke="transparent" points="46,-742.5 46,-777.5 362,-777.5 362,-742.5 46,-742.5"/>
<polygon fill="none" stroke="#000000" points="46,-742.5 46,-777.5 362,-777.5 362,-742.5 46,-742.5"/>
<text text-anchor="start" x="52.7144" y="-755.3" font-family="Arial Bold" font-size="18.00" fill="#000000">serial.index_summary</text>
<text text-anchor="start" x="227.7176" y="-755.3" font-family="Arial" font-size="14.00" fill="#000000">    </text>
<text text-anchor="start" x="261.9224" y="-755.3" font-family="Arial" font-size="14.00" fill="#666666">[BASE TABLE]</text>
<polygon fill="none" stroke="#000000" points="46,-712.5 46,-742.5 362,-742.5 362,-712.5 46,-712.5"/>
<text text-anchor="start" x="53" y="-723.9" font-family="Arial" font-size="14.00" fill="#000000">id </text>
<text text-anchor="start" x="67.7798" y="-723.9" font-family="Arial" font-size="14.00" fill="#666666">[integer]</text>
<polygon fill="none" stroke="#000000" points="46,-682.5 46,-712.5 362,-712.5 362,-682.5 46,-682.5"/>
<text text-anchor="start" x="53" y="-693.9" font-family="Arial" font-size="14.00" fill="#000000">distribution </text>
<text text-anchor="start" x="124.5652" y="-693.9" font-family="Arial" font-size="14.00" fill="#666666">[integer]</text>
<polygon fill="none" stroke="#000000" points="46,-652.5 46,-682.5 362,-682.5 362,-652.5 46,-652.5"/>
<text text-anchor="start" x="53" y="-663.9" font-family="Arial" font-size="14.00" fill="#000000">generated_coverage </text>
<text text-anchor="start" x="185.2762" y="-663.9" font-family="Arial" font-size="14.00" fill="#666666">[text]</text>
<polygon fill="none" stroke="#000000" points="46,-622.5 46,-652.5 362,-652.5 362,-622.5 46,-622.5"/>
<text text-anchor="start" x="53" y="-633.9" font-family="Arial" font-size="14.00" fill="#000000">textual_holdings </text>
<text text-anchor="start" x="158.035" y="-633.9" font-family="Arial" font-size="14.00" fill="#666666">[text]</text>
<polygon fill="none" stroke="#000000" points="46,-592.5 46,-622.5 362,-622.5 362,-592.5 46,-592.5"/>
<text text-anchor="start" x="53" y="-603.9" font-family="Arial" font-size="14.00" fill="#000000">show_generated </text>
<text text-anchor="start" x="160.3744" y="-603.9" font-family="Arial" font-size="14.00" fill="#666666">[boolean]</text>
<polygon fill="none" stroke="#000000" stroke-width="3" points="44.5,-591.5 44.5,-779.5 363.5,-779.5 363.5,-591.5 44.5,-591.5"/>
</g>
<!-- serial.distribution -->
<g id="node2" class="node">
<title>serial.distribution</title>
<polygon fill="#efefef" stroke="transparent" points="66,-432.5 66,-467.5 342,-467.5 342,-432.5 66,-432.5"/>
<polygon fill="none" stroke="#000000" points="66,-432.5 66,-467.5 342,-467.5 342,-432.5 66,-432.5"/>
<text text-anchor="start" x="72.7133" y="-445.3" font-family="Arial Bold" font-size="18.00" fill="#000000">serial.distribution</text>
<text text-anchor="start" x="207.7187" y="-445.3" font-family="Arial" font-size="14.00" fill="#000000">    </text>
<text text-anchor="start" x="241.9235" y="-445.3" font-family="Arial" font-size="14.00" fill="#666666">[BASE TABLE]</text>
<polygon fill="none" stroke="#000000" points="66,-402.5 66,-432.5 342,-432.5 342,-402.5 66,-402.5"/>
<text text-anchor="start" x="73" y="-413.9" font-family="Arial" font-size="14.00" fill="#000000">id    </text>
<text text-anchor="start" x="118.094" y="-413.9" font-family="Arial" font-size="14.00" fill="#666666">[integer]</text>
<polygon fill="none" stroke="#000000" points="66,-372.5 66,-402.5 342,-402.5 342,-372.5 66,-372.5"/>
<text text-anchor="start" x="73" y="-383.9" font-family="Arial" font-size="14.00" fill="#000000">record_entry    </text>
<text text-anchor="start" x="185.7728" y="-383.9" font-family="Arial" font-size="14.00" fill="#666666">[bigint]</text>
<polygon fill="none" stroke="#000000" points="66,-342.5 66,-372.5 342,-372.5 342,-342.5 66,-342.5"/>
<text text-anchor="start" x="73" y="-353.9" font-family="Arial" font-size="14.00" fill="#000000">summary_method    </text>
<text text-anchor="start" x="219.216" y="-353.9" font-family="Arial" font-size="14.00" fill="#666666">[text]</text>
<polygon fill="none" stroke="#000000" points="66,-312.5 66,-342.5 342,-342.5 342,-312.5 66,-312.5"/>
<text text-anchor="start" x="73" y="-323.9" font-family="Arial" font-size="14.00" fill="#000000">subscription    </text>
<text text-anchor="start" x="181.8822" y="-323.9" font-family="Arial" font-size="14.00" fill="#666666">[integer]</text>
<polygon fill="none" stroke="#000000" points="66,-282.5 66,-312.5 342,-312.5 342,-282.5 66,-282.5"/>
<text text-anchor="start" x="73" y="-293.9" font-family="Arial" font-size="14.00" fill="#000000">holding_lib    </text>
<text text-anchor="start" x="174.1094" y="-293.9" font-family="Arial" font-size="14.00" fill="#666666">[integer]</text>
<polygon fill="none" stroke="#000000" points="66,-252.5 66,-282.5 342,-282.5 342,-252.5 66,-252.5"/>
<text text-anchor="start" x="73" y="-263.9" font-family="Arial" font-size="14.00" fill="#000000">label    </text>
<text text-anchor="start" x="136.7658" y="-263.9" font-family="Arial" font-size="14.00" fill="#666666">[text]</text>
<polygon fill="none" stroke="#000000" points="66,-222.5 66,-252.5 342,-252.5 342,-222.5 66,-222.5"/>
<text text-anchor="start" x="73" y="-233.9" font-family="Arial" font-size="14.00" fill="#000000">display_grouping    </text>
<text text-anchor="start" x="213.0112" y="-233.9" font-family="Arial" font-size="14.00" fill="#666666">[text]</text>
<polygon fill="none" stroke="#000000" points="66,-192.5 66,-222.5 342,-222.5 342,-192.5 66,-192.5"/>
<text text-anchor="start" x="73" y="-203.9" font-family="Arial" font-size="14.00" fill="#000000">receive_call_number    </text>
<text text-anchor="start" x="236.3324" y="-203.9" font-family="Arial" font-size="14.00" fill="#666666">[bigint]</text>
<polygon fill="none" stroke="#000000" points="66,-162.5 66,-192.5 342,-192.5 342,-162.5 66,-162.5"/>
<text text-anchor="start" x="73" y="-173.9" font-family="Arial" font-size="14.00" fill="#000000">receive_unit_template    </text>
<text text-anchor="start" x="244.1262" y="-173.9" font-family="Arial" font-size="14.00" fill="#666666">[integer]</text>
<polygon fill="none" stroke="#000000" points="66,-132.5 66,-162.5 342,-162.5 342,-132.5 66,-132.5"/>
<text text-anchor="start" x="73" y="-143.9" font-family="Arial" font-size="14.00" fill="#000000">bind_call_number    </text>
<text text-anchor="start" x="217.6718" y="-143.9" font-family="Arial" font-size="14.00" fill="#666666">[bigint]</text>
<polygon fill="none" stroke="#000000" points="66,-102.5 66,-132.5 342,-132.5 342,-102.5 66,-102.5"/>
<text text-anchor="start" x="73" y="-113.9" font-family="Arial" font-size="14.00" fill="#000000">bind_unit_template    </text>
<text text-anchor="start" x="225.4656" y="-113.9" font-family="Arial" font-size="14.00" fill="#666666">[integer]</text>
<polygon fill="none" stroke="#000000" points="66,-72.5 66,-102.5 342,-102.5 342,-72.5 66,-72.5"/>
<text text-anchor="start" x="73" y="-83.9" font-family="Arial" font-size="14.00" fill="#000000">unit_label_prefix    </text>
<text text-anchor="start" x="209.1164" y="-83.9" font-family="Arial" font-size="14.00" fill="#666666">[text]</text>
<polygon fill="none" stroke="#000000" points="66,-42.5 66,-72.5 342,-72.5 342,-42.5 66,-42.5"/>
<text text-anchor="start" x="73" y="-53.9" font-family="Arial" font-size="14.00" fill="#000000">unit_label_suffix    </text>
<text text-anchor="start" x="207.5638" y="-53.9" font-family="Arial" font-size="14.00" fill="#666666">[text]</text>
</g>
<!-- serial.index_summary&#45;&gt;serial.distribution -->
<g id="edge1" class="edge">
<title>serial.index_summary:distribution&#45;&gt;serial.distribution:id</title>
<path fill="none" stroke="#000000" d="M371.8143,-694.9069C421.9792,-666.6795 400.8475,-417.5 342,-417.5"/>
<polygon fill="#000000" stroke="#000000" points="371.6682,-694.9454 360.8504,-693.1493 366.8341,-696.2227 362,-697.5 362,-697.5 362,-697.5 366.8341,-696.2227 363.1496,-701.8507 371.6682,-694.9454 371.6682,-694.9454"/>
<text text-anchor="start" x="368.938" y="-707.5" font-family="Arial" font-size="10.00" fill="#000000">FOREIGN KEY (distribution) REFERENCES serial.distribution(id) ON DELETE CASCADE DEFERRABLE INITIALLY DEFERRED</text>
</g>
</g>
</svg>
