<?xml version="1.0" encoding="UTF-8" standalone="no"?>
<!DOCTYPE svg PUBLIC "-//W3C//DTD SVG 1.1//EN"
 "http://www.w3.org/Graphics/SVG/1.1/DTD/svg11.dtd">
<!-- Generated by graphviz version 2.40.1 (20161225.0304)
 -->
<!-- Title: serial.routing_list_user Pages: 1 -->
<svg width="1417pt" height="1942pt"
 viewBox="0.00 0.00 1417.00 1942.00" xmlns="http://www.w3.org/2000/svg" xmlns:xlink="http://www.w3.org/1999/xlink">
<g id="graph0" class="graph" transform="scale(1 1) rotate(0) translate(4 1938)">
<title>serial.routing_list_user</title>
<polygon fill="#ffffff" stroke="transparent" points="-4,4 -4,-1938 1413,-1938 1413,4 -4,4"/>
<!-- serial.routing_list_user -->
<g id="node1" class="node">
<title>serial.routing_list_user</title>
<polygon fill="#efefef" stroke="transparent" points="554,-1852.5 554,-1887.5 875,-1887.5 875,-1852.5 554,-1852.5"/>
<polygon fill="none" stroke="#000000" points="554,-1852.5 554,-1887.5 875,-1887.5 875,-1852.5 554,-1852.5"/>
<text text-anchor="start" x="560.7079" y="-1865.3" font-family="Arial Bold" font-size="18.00" fill="#000000">serial.routing_list_user</text>
<text text-anchor="start" x="740.7241" y="-1865.3" font-family="Arial" font-size="14.00" fill="#000000">    </text>
<text text-anchor="start" x="774.9289" y="-1865.3" font-family="Arial" font-size="14.00" fill="#666666">[BASE TABLE]</text>
<polygon fill="none" stroke="#000000" points="554,-1822.5 554,-1852.5 875,-1852.5 875,-1822.5 554,-1822.5"/>
<text text-anchor="start" x="561" y="-1833.9" font-family="Arial" font-size="14.00" fill="#000000">id </text>
<text text-anchor="start" x="575.7798" y="-1833.9" font-family="Arial" font-size="14.00" fill="#666666">[integer]</text>
<polygon fill="none" stroke="#000000" points="554,-1792.5 554,-1822.5 875,-1822.5 875,-1792.5 554,-1792.5"/>
<text text-anchor="start" x="561" y="-1803.9" font-family="Arial" font-size="14.00" fill="#000000">stream </text>
<text text-anchor="start" x="607.6676" y="-1803.9" font-family="Arial" font-size="14.00" fill="#666666">[integer]</text>
<polygon fill="none" stroke="#000000" points="554,-1762.5 554,-1792.5 875,-1792.5 875,-1762.5 554,-1762.5"/>
<text text-anchor="start" x="561" y="-1773.9" font-family="Arial" font-size="14.00" fill="#000000">pos </text>
<text text-anchor="start" x="587.4558" y="-1773.9" font-family="Arial" font-size="14.00" fill="#666666">[integer]</text>
<polygon fill="none" stroke="#000000" points="554,-1732.5 554,-1762.5 875,-1762.5 875,-1732.5 554,-1732.5"/>
<text text-anchor="start" x="561" y="-1743.9" font-family="Arial" font-size="14.00" fill="#000000">reader </text>
<text text-anchor="start" x="605.3422" y="-1743.9" font-family="Arial" font-size="14.00" fill="#666666">[integer]</text>
<polygon fill="none" stroke="#000000" points="554,-1702.5 554,-1732.5 875,-1732.5 875,-1702.5 554,-1702.5"/>
<text text-anchor="start" x="561" y="-1713.9" font-family="Arial" font-size="14.00" fill="#000000">department </text>
<text text-anchor="start" x="635.6886" y="-1713.9" font-family="Arial" font-size="14.00" fill="#666666">[text]</text>
<polygon fill="none" stroke="#000000" points="554,-1672.5 554,-1702.5 875,-1702.5 875,-1672.5 554,-1672.5"/>
<text text-anchor="start" x="561" y="-1683.9" font-family="Arial" font-size="14.00" fill="#000000">note </text>
<text text-anchor="start" x="592.129" y="-1683.9" font-family="Arial" font-size="14.00" fill="#666666">[text]</text>
<polygon fill="none" stroke="#000000" stroke-width="3" points="552,-1671.5 552,-1889.5 876,-1889.5 876,-1671.5 552,-1671.5"/>
</g>
<!-- serial.stream -->
<g id="node2" class="node">
<title>serial.stream</title>
<polygon fill="#efefef" stroke="transparent" points="400,-822.5 400,-857.5 644,-857.5 644,-822.5 400,-822.5"/>
<polygon fill="none" stroke="#000000" points="400,-822.5 400,-857.5 644,-857.5 644,-822.5 400,-822.5"/>
<text text-anchor="start" x="406.7189" y="-835.3" font-family="Arial Bold" font-size="18.00" fill="#000000">serial.stream</text>
<text text-anchor="start" x="509.7131" y="-835.3" font-family="Arial" font-size="14.00" fill="#000000">    </text>
<text text-anchor="start" x="543.9179" y="-835.3" font-family="Arial" font-size="14.00" fill="#666666">[BASE TABLE]</text>
<polygon fill="none" stroke="#000000" points="400,-792.5 400,-822.5 644,-822.5 644,-792.5 400,-792.5"/>
<text text-anchor="start" x="407" y="-803.9" font-family="Arial" font-size="14.00" fill="#000000">id    </text>
<text text-anchor="start" x="452.094" y="-803.9" font-family="Arial" font-size="14.00" fill="#666666">[integer]</text>
<polygon fill="none" stroke="#000000" points="400,-762.5 400,-792.5 644,-792.5 644,-762.5 400,-762.5"/>
<text text-anchor="start" x="407" y="-773.9" font-family="Arial" font-size="14.00" fill="#000000">distribution    </text>
<text text-anchor="start" x="508.8794" y="-773.9" font-family="Arial" font-size="14.00" fill="#666666">[integer]</text>
<polygon fill="none" stroke="#000000" points="400,-732.5 400,-762.5 644,-762.5 644,-732.5 400,-732.5"/>
<text text-anchor="start" x="407" y="-743.9" font-family="Arial" font-size="14.00" fill="#000000">routing_label    </text>
<text text-anchor="start" x="521.3366" y="-743.9" font-family="Arial" font-size="14.00" fill="#666666">[text]</text>
</g>
<!-- serial.routing_list_user&#45;&gt;serial.stream -->
<g id="edge1" class="edge">
<title>serial.routing_list_user:stream&#45;&gt;serial.stream:id</title>
<path fill="none" stroke="#000000" d="M544.261,-1804.2659C462.7648,-1742.1962 751.8561,-807.5 644,-807.5"/>
<polygon fill="#000000" stroke="#000000" points="544.5096,-1804.3483 552.5818,-1811.7707 549.2548,-1805.9242 554,-1807.5 554,-1807.5 554,-1807.5 549.2548,-1805.9242 555.4182,-1803.2293 544.5096,-1804.3483 544.5096,-1804.3483"/>
<text text-anchor="start" x="6.722" y="-1817.5" font-family="Arial" font-size="10.00" fill="#000000">FOREIGN KEY (stream) REFERENCES serial.stream(id) ON DELETE CASCADE DEFERRABLE INITIALLY DEFERRED</text>
</g>
<!-- actor.usr -->
<g id="node3" class="node">
<title>actor.usr</title>
<polygon fill="#efefef" stroke="transparent" points="748,-1512.5 748,-1547.5 1068,-1547.5 1068,-1512.5 748,-1512.5"/>
<polygon fill="none" stroke="#000000" points="748,-1512.5 748,-1547.5 1068,-1547.5 1068,-1512.5 748,-1512.5"/>
<text text-anchor="start" x="809.2123" y="-1525.3" font-family="Arial Bold" font-size="18.00" fill="#000000">actor.usr</text>
<text text-anchor="start" x="879.2197" y="-1525.3" font-family="Arial" font-size="14.00" fill="#000000">    </text>
<text text-anchor="start" x="913.4245" y="-1525.3" font-family="Arial" font-size="14.00" fill="#666666">[BASE TABLE]</text>
<polygon fill="none" stroke="#000000" points="748,-1482.5 748,-1512.5 1068,-1512.5 1068,-1482.5 748,-1482.5"/>
<text text-anchor="start" x="755" y="-1493.9" font-family="Arial" font-size="14.00" fill="#000000">id    </text>
<text text-anchor="start" x="800.094" y="-1493.9" font-family="Arial" font-size="14.00" fill="#666666">[integer]</text>
<polygon fill="none" stroke="#000000" points="748,-1452.5 748,-1482.5 1068,-1482.5 1068,-1452.5 748,-1452.5"/>
<text text-anchor="start" x="755" y="-1463.9" font-family="Arial" font-size="14.00" fill="#000000">card    </text>
<text text-anchor="start" x="816.4306" y="-1463.9" font-family="Arial" font-size="14.00" fill="#666666">[integer]</text>
<polygon fill="none" stroke="#000000" points="748,-1422.5 748,-1452.5 1068,-1452.5 1068,-1422.5 748,-1422.5"/>
<text text-anchor="start" x="755" y="-1433.9" font-family="Arial" font-size="14.00" fill="#000000">profile    </text>
<text text-anchor="start" x="827.317" y="-1433.9" font-family="Arial" font-size="14.00" fill="#666666">[integer]</text>
<polygon fill="none" stroke="#000000" points="748,-1392.5 748,-1422.5 1068,-1422.5 1068,-1392.5 748,-1392.5"/>
<text text-anchor="start" x="755" y="-1403.9" font-family="Arial" font-size="14.00" fill="#000000">usrname    </text>
<text text-anchor="start" x="843.6564" y="-1403.9" font-family="Arial" font-size="14.00" fill="#666666">[text]</text>
<polygon fill="none" stroke="#000000" points="748,-1362.5 748,-1392.5 1068,-1392.5 1068,-1362.5 748,-1362.5"/>
<text text-anchor="start" x="755" y="-1373.9" font-family="Arial" font-size="14.00" fill="#000000">email    </text>
<text text-anchor="start" x="822.6438" y="-1373.9" font-family="Arial" font-size="14.00" fill="#666666">[text]</text>
<polygon fill="none" stroke="#000000" points="748,-1332.5 748,-1362.5 1068,-1362.5 1068,-1332.5 748,-1332.5"/>
<text text-anchor="start" x="755" y="-1343.9" font-family="Arial" font-size="14.00" fill="#000000">passwd    </text>
<text text-anchor="start" x="836.6592" y="-1343.9" font-family="Arial" font-size="14.00" fill="#666666">[text]</text>
<polygon fill="none" stroke="#000000" points="748,-1302.5 748,-1332.5 1068,-1332.5 1068,-1302.5 748,-1302.5"/>
<text text-anchor="start" x="755" y="-1313.9" font-family="Arial" font-size="14.00" fill="#000000">standing    </text>
<text text-anchor="start" x="842.115" y="-1313.9" font-family="Arial" font-size="14.00" fill="#666666">[integer]</text>
<polygon fill="none" stroke="#000000" points="748,-1272.5 748,-1302.5 1068,-1302.5 1068,-1272.5 748,-1272.5"/>
<text text-anchor="start" x="755" y="-1283.9" font-family="Arial" font-size="14.00" fill="#000000">ident_type    </text>
<text text-anchor="start" x="853.7882" y="-1283.9" font-family="Arial" font-size="14.00" fill="#666666">[integer]</text>
<polygon fill="none" stroke="#000000" points="748,-1242.5 748,-1272.5 1068,-1272.5 1068,-1242.5 748,-1242.5"/>
<text text-anchor="start" x="755" y="-1253.9" font-family="Arial" font-size="14.00" fill="#000000">ident_value    </text>
<text text-anchor="start" x="860.7868" y="-1253.9" font-family="Arial" font-size="14.00" fill="#666666">[text]</text>
<polygon fill="none" stroke="#000000" points="748,-1212.5 748,-1242.5 1068,-1242.5 1068,-1212.5 748,-1212.5"/>
<text text-anchor="start" x="755" y="-1223.9" font-family="Arial" font-size="14.00" fill="#000000">ident_type2    </text>
<text text-anchor="start" x="861.5708" y="-1223.9" font-family="Arial" font-size="14.00" fill="#666666">[integer]</text>
<polygon fill="none" stroke="#000000" points="748,-1182.5 748,-1212.5 1068,-1212.5 1068,-1182.5 748,-1182.5"/>
<text text-anchor="start" x="755" y="-1193.9" font-family="Arial" font-size="14.00" fill="#000000">ident_value2    </text>
<text text-anchor="start" x="868.5694" y="-1193.9" font-family="Arial" font-size="14.00" fill="#666666">[text]</text>
<polygon fill="none" stroke="#000000" points="748,-1152.5 748,-1182.5 1068,-1182.5 1068,-1152.5 748,-1152.5"/>
<text text-anchor="start" x="755" y="-1163.9" font-family="Arial" font-size="14.00" fill="#000000">net_access_level    </text>
<text text-anchor="start" x="896.5694" y="-1163.9" font-family="Arial" font-size="14.00" fill="#666666">[integer]</text>
<polygon fill="none" stroke="#000000" points="748,-1122.5 748,-1152.5 1068,-1152.5 1068,-1122.5 748,-1122.5"/>
<text text-anchor="start" x="755" y="-1133.9" font-family="Arial" font-size="14.00" fill="#000000">photo_url    </text>
<text text-anchor="start" x="847.5582" y="-1133.9" font-family="Arial" font-size="14.00" fill="#666666">[text]</text>
<polygon fill="none" stroke="#000000" points="748,-1092.5 748,-1122.5 1068,-1122.5 1068,-1092.5 748,-1092.5"/>
<text text-anchor="start" x="755" y="-1103.9" font-family="Arial" font-size="14.00" fill="#000000">prefix    </text>
<text text-anchor="start" x="823.4278" y="-1103.9" font-family="Arial" font-size="14.00" fill="#666666">[text]</text>
<polygon fill="none" stroke="#000000" points="748,-1062.5 748,-1092.5 1068,-1092.5 1068,-1062.5 748,-1062.5"/>
<text text-anchor="start" x="755" y="-1073.9" font-family="Arial" font-size="14.00" fill="#000000">first_given_name    </text>
<text text-anchor="start" x="895.7812" y="-1073.9" font-family="Arial" font-size="14.00" fill="#666666">[text]</text>
<polygon fill="none" stroke="#000000" points="748,-1032.5 748,-1062.5 1068,-1062.5 1068,-1032.5 748,-1032.5"/>
<text text-anchor="start" x="755" y="-1043.9" font-family="Arial" font-size="14.00" fill="#000000">second_given_name    </text>
<text text-anchor="start" x="918.3632" y="-1043.9" font-family="Arial" font-size="14.00" fill="#666666">[text]</text>
<polygon fill="none" stroke="#000000" points="748,-1002.5 748,-1032.5 1068,-1032.5 1068,-1002.5 748,-1002.5"/>
<text text-anchor="start" x="755" y="-1013.9" font-family="Arial" font-size="14.00" fill="#000000">family_name    </text>
<text text-anchor="start" x="868.5428" y="-1013.9" font-family="Arial" font-size="14.00" fill="#666666">[text]</text>
<polygon fill="none" stroke="#000000" points="748,-972.5 748,-1002.5 1068,-1002.5 1068,-972.5 748,-972.5"/>
<text text-anchor="start" x="755" y="-983.9" font-family="Arial" font-size="14.00" fill="#000000">suffix    </text>
<text text-anchor="start" x="821.8752" y="-983.9" font-family="Arial" font-size="14.00" fill="#666666">[text]</text>
<polygon fill="none" stroke="#000000" points="748,-942.5 748,-972.5 1068,-972.5 1068,-942.5 748,-942.5"/>
<text text-anchor="start" x="755" y="-953.9" font-family="Arial" font-size="14.00" fill="#000000">alias    </text>
<text text-anchor="start" x="817.9832" y="-953.9" font-family="Arial" font-size="14.00" fill="#666666">[text]</text>
<polygon fill="none" stroke="#000000" points="748,-912.5 748,-942.5 1068,-942.5 1068,-912.5 748,-912.5"/>
<text text-anchor="start" x="755" y="-923.9" font-family="Arial" font-size="14.00" fill="#000000">day_phone    </text>
<text text-anchor="start" x="858.4656" y="-923.9" font-family="Arial" font-size="14.00" fill="#666666">[text]</text>
<polygon fill="none" stroke="#000000" points="748,-882.5 748,-912.5 1068,-912.5 1068,-882.5 748,-882.5"/>
<text text-anchor="start" x="755" y="-893.9" font-family="Arial" font-size="14.00" fill="#000000">evening_phone    </text>
<text text-anchor="start" x="884.92" y="-893.9" font-family="Arial" font-size="14.00" fill="#666666">[text]</text>
<polygon fill="none" stroke="#000000" points="748,-852.5 748,-882.5 1068,-882.5 1068,-852.5 748,-852.5"/>
<text text-anchor="start" x="755" y="-863.9" font-family="Arial" font-size="14.00" fill="#000000">other_phone    </text>
<text text-anchor="start" x="867.7994" y="-863.9" font-family="Arial" font-size="14.00" fill="#666666">[text]</text>
<polygon fill="none" stroke="#000000" points="748,-822.5 748,-852.5 1068,-852.5 1068,-822.5 748,-822.5"/>
<text text-anchor="start" x="755" y="-833.9" font-family="Arial" font-size="14.00" fill="#000000">mailing_address    </text>
<text text-anchor="start" x="891.1066" y="-833.9" font-family="Arial" font-size="14.00" fill="#666666">[integer]</text>
<polygon fill="none" stroke="#000000" points="748,-792.5 748,-822.5 1068,-822.5 1068,-792.5 748,-792.5"/>
<text text-anchor="start" x="755" y="-803.9" font-family="Arial" font-size="14.00" fill="#000000">billing_address    </text>
<text text-anchor="start" x="882.5526" y="-803.9" font-family="Arial" font-size="14.00" fill="#666666">[integer]</text>
<polygon fill="none" stroke="#000000" points="748,-762.5 748,-792.5 1068,-792.5 1068,-762.5 748,-762.5"/>
<text text-anchor="start" x="755" y="-773.9" font-family="Arial" font-size="14.00" fill="#000000">home_ou    </text>
<text text-anchor="start" x="847.561" y="-773.9" font-family="Arial" font-size="14.00" fill="#666666">[integer]</text>
<polygon fill="none" stroke="#000000" points="748,-732.5 748,-762.5 1068,-762.5 1068,-732.5 748,-732.5"/>
<text text-anchor="start" x="755" y="-743.9" font-family="Arial" font-size="14.00" fill="#000000">dob    </text>
<text text-anchor="start" x="812.5526" y="-743.9" font-family="Arial" font-size="14.00" fill="#666666">[date]</text>
<polygon fill="none" stroke="#000000" points="748,-702.5 748,-732.5 1068,-732.5 1068,-702.5 748,-702.5"/>
<text text-anchor="start" x="755" y="-713.9" font-family="Arial" font-size="14.00" fill="#000000">active    </text>
<text text-anchor="start" x="825.7672" y="-713.9" font-family="Arial" font-size="14.00" fill="#666666">[boolean]</text>
<polygon fill="none" stroke="#000000" points="748,-672.5 748,-702.5 1068,-702.5 1068,-672.5 748,-672.5"/>
<text text-anchor="start" x="755" y="-683.9" font-family="Arial" font-size="14.00" fill="#000000">master_account    </text>
<text text-anchor="start" x="888.7854" y="-683.9" font-family="Arial" font-size="14.00" fill="#666666">[boolean]</text>
<polygon fill="none" stroke="#000000" points="748,-642.5 748,-672.5 1068,-672.5 1068,-642.5 748,-642.5"/>
<text text-anchor="start" x="755" y="-653.9" font-family="Arial" font-size="14.00" fill="#000000">super_user    </text>
<text text-anchor="start" x="859.2216" y="-653.9" font-family="Arial" font-size="14.00" fill="#666666">[boolean]</text>
<polygon fill="none" stroke="#000000" points="748,-612.5 748,-642.5 1068,-642.5 1068,-612.5 748,-612.5"/>
<text text-anchor="start" x="755" y="-623.9" font-family="Arial" font-size="14.00" fill="#000000">barred    </text>
<text text-anchor="start" x="829.6564" y="-623.9" font-family="Arial" font-size="14.00" fill="#666666">[boolean]</text>
<polygon fill="none" stroke="#000000" points="748,-582.5 748,-612.5 1068,-612.5 1068,-582.5 748,-582.5"/>
<text text-anchor="start" x="755" y="-593.9" font-family="Arial" font-size="14.00" fill="#000000">deleted    </text>
<text text-anchor="start" x="835.115" y="-593.9" font-family="Arial" font-size="14.00" fill="#666666">[boolean]</text>
<polygon fill="none" stroke="#000000" points="748,-552.5 748,-582.5 1068,-582.5 1068,-552.5 748,-552.5"/>
<text text-anchor="start" x="755" y="-563.9" font-family="Arial" font-size="14.00" fill="#000000">juvenile    </text>
<text text-anchor="start" x="836.655" y="-563.9" font-family="Arial" font-size="14.00" fill="#666666">[boolean]</text>
<polygon fill="none" stroke="#000000" points="748,-522.5 748,-552.5 1068,-552.5 1068,-522.5 748,-522.5"/>
<text text-anchor="start" x="755" y="-533.9" font-family="Arial" font-size="14.00" fill="#000000">usrgroup    </text>
<text text-anchor="start" x="844.439" y="-533.9" font-family="Arial" font-size="14.00" fill="#666666">[integer]</text>
<polygon fill="none" stroke="#000000" points="748,-492.5 748,-522.5 1068,-522.5 1068,-492.5 748,-492.5"/>
<text text-anchor="start" x="755" y="-503.9" font-family="Arial" font-size="14.00" fill="#000000">claims_returned_count    </text>
<text text-anchor="start" x="930.7896" y="-503.9" font-family="Arial" font-size="14.00" fill="#666666">[integer]</text>
<polygon fill="none" stroke="#000000" points="748,-462.5 748,-492.5 1068,-492.5 1068,-462.5 748,-462.5"/>
<text text-anchor="start" x="755" y="-473.9" font-family="Arial" font-size="14.00" fill="#000000">credit_forward_balance    </text>
<text text-anchor="start" x="934.6788" y="-473.9" font-family="Arial" font-size="14.00" fill="#666666">[numeric(6,2)]</text>
<polygon fill="none" stroke="#000000" points="748,-432.5 748,-462.5 1068,-462.5 1068,-432.5 748,-432.5"/>
<text text-anchor="start" x="755" y="-443.9" font-family="Arial" font-size="14.00" fill="#000000">last_xact_id    </text>
<text text-anchor="start" x="863.1122" y="-443.9" font-family="Arial" font-size="14.00" fill="#666666">[text]</text>
<polygon fill="none" stroke="#000000" points="748,-402.5 748,-432.5 1068,-432.5 1068,-402.5 748,-402.5"/>
<text text-anchor="start" x="755" y="-413.9" font-family="Arial" font-size="14.00" fill="#000000">alert_message    </text>
<text text-anchor="start" x="881.0014" y="-413.9" font-family="Arial" font-size="14.00" fill="#666666">[text]</text>
<polygon fill="none" stroke="#000000" points="748,-372.5 748,-402.5 1068,-402.5 1068,-372.5 748,-372.5"/>
<text text-anchor="start" x="755" y="-383.9" font-family="Arial" font-size="14.00" fill="#000000">create_date    </text>
<text text-anchor="start" x="863.1248" y="-383.9" font-family="Arial" font-size="14.00" fill="#666666">[timestamp with time zone]</text>
<polygon fill="none" stroke="#000000" points="748,-342.5 748,-372.5 1068,-372.5 1068,-342.5 748,-342.5"/>
<text text-anchor="start" x="755" y="-353.9" font-family="Arial" font-size="14.00" fill="#000000">expire_date    </text>
<text text-anchor="start" x="862.3408" y="-353.9" font-family="Arial" font-size="14.00" fill="#666666">[timestamp with time zone]</text>
<polygon fill="none" stroke="#000000" points="748,-312.5 748,-342.5 1068,-342.5 1068,-312.5 748,-312.5"/>
<text text-anchor="start" x="755" y="-323.9" font-family="Arial" font-size="14.00" fill="#000000">claims_never_checked_out_count    </text>
<text text-anchor="start" x="1000.8246" y="-323.9" font-family="Arial" font-size="14.00" fill="#666666">[integer]</text>
<polygon fill="none" stroke="#000000" points="748,-282.5 748,-312.5 1068,-312.5 1068,-282.5 748,-282.5"/>
<text text-anchor="start" x="754.7609" y="-293.9" font-family="Arial" font-size="14.00" fill="#000000">last_update_time    </text>
<text text-anchor="start" x="895.5547" y="-293.9" font-family="Arial" font-size="14.00" fill="#666666">[timestamp with time zone]</text>
<polygon fill="none" stroke="#000000" points="748,-252.5 748,-282.5 1068,-282.5 1068,-252.5 748,-252.5"/>
<text text-anchor="start" x="755" y="-263.9" font-family="Arial" font-size="14.00" fill="#000000">pref_prefix    </text>
<text text-anchor="start" x="855.3268" y="-263.9" font-family="Arial" font-size="14.00" fill="#666666">[text]</text>
<polygon fill="none" stroke="#000000" points="748,-222.5 748,-252.5 1068,-252.5 1068,-222.5 748,-222.5"/>
<text text-anchor="start" x="755" y="-233.9" font-family="Arial" font-size="14.00" fill="#000000">pref_first_given_name    </text>
<text text-anchor="start" x="927.6802" y="-233.9" font-family="Arial" font-size="14.00" fill="#666666">[text]</text>
<polygon fill="none" stroke="#000000" points="748,-192.5 748,-222.5 1068,-222.5 1068,-192.5 748,-192.5"/>
<text text-anchor="start" x="755" y="-203.9" font-family="Arial" font-size="14.00" fill="#000000">pref_second_given_name    </text>
<text text-anchor="start" x="950.2622" y="-203.9" font-family="Arial" font-size="14.00" fill="#666666">[text]</text>
<polygon fill="none" stroke="#000000" points="748,-162.5 748,-192.5 1068,-192.5 1068,-162.5 748,-162.5"/>
<text text-anchor="start" x="755" y="-173.9" font-family="Arial" font-size="14.00" fill="#000000">pref_family_name    </text>
<text text-anchor="start" x="900.4418" y="-173.9" font-family="Arial" font-size="14.00" fill="#666666">[text]</text>
<polygon fill="none" stroke="#000000" points="748,-132.5 748,-162.5 1068,-162.5 1068,-132.5 748,-132.5"/>
<text text-anchor="start" x="755" y="-143.9" font-family="Arial" font-size="14.00" fill="#000000">pref_suffix    </text>
<text text-anchor="start" x="853.7742" y="-143.9" font-family="Arial" font-size="14.00" fill="#666666">[text]</text>
<polygon fill="none" stroke="#000000" points="748,-102.5 748,-132.5 1068,-132.5 1068,-102.5 748,-102.5"/>
<text text-anchor="start" x="755" y="-113.9" font-family="Arial" font-size="14.00" fill="#000000">name_keywords    </text>
<text text-anchor="start" x="891.1108" y="-113.9" font-family="Arial" font-size="14.00" fill="#666666">[text]</text>
<polygon fill="none" stroke="#000000" points="748,-72.5 748,-102.5 1068,-102.5 1068,-72.5 748,-72.5"/>
<text text-anchor="start" x="755" y="-83.9" font-family="Arial" font-size="14.00" fill="#000000">name_kw_tsvector    </text>
<text text-anchor="start" x="905.892" y="-83.9" font-family="Arial" font-size="14.00" fill="#666666">[tsvector]</text>
<polygon fill="none" stroke="#000000" points="748,-42.5 748,-72.5 1068,-72.5 1068,-42.5 748,-42.5"/>
<text text-anchor="start" x="755" y="-53.9" font-family="Arial" font-size="14.00" fill="#000000">guardian    </text>
<text text-anchor="start" x="843.6676" y="-53.9" font-family="Arial" font-size="14.00" fill="#666666">[text]</text>
</g>
<!-- serial.routing_list_user&#45;&gt;actor.usr -->
<g id="edge2" class="edge">
<title>serial.routing_list_user:reader&#45;&gt;actor.usr:id</title>
<path fill="none" stroke="#000000" d="M884.9546,-1746.4457C925.5973,-1737.0302 905.0877,-1666.8019 875,-1627 839.6215,-1580.199 783.3785,-1637.801 748,-1591 722.9409,-1557.8502 706.4444,-1497.5 748,-1497.5"/>
<polygon fill="#000000" stroke="#000000" points="884.9444,-1746.4467 874.526,-1743.025 879.9722,-1746.9733 875,-1747.5 875,-1747.5 875,-1747.5 879.9722,-1746.9733 875.474,-1751.975 884.9444,-1746.4467 884.9444,-1746.4467"/>
<text text-anchor="start" x="881.7155" y="-1757.5" font-family="Arial" font-size="10.00" fill="#000000">FOREIGN KEY (reader) REFERENCES actor.usr(id) ON DELETE CASCADE DEFERRABLE INITIALLY DEFERRED</text>
</g>
</g>
</svg>
