<?xml version="1.0" encoding="UTF-8" standalone="no"?>
<!DOCTYPE svg PUBLIC "-//W3C//DTD SVG 1.1//EN"
 "http://www.w3.org/Graphics/SVG/1.1/DTD/svg11.dtd">
<!-- Generated by graphviz version 2.40.1 (20161225.0304)
 -->
<!-- Title: serial.subscription_note Pages: 1 -->
<svg width="1364pt" height="2002pt"
 viewBox="0.00 0.00 1364.00 2002.00" xmlns="http://www.w3.org/2000/svg" xmlns:xlink="http://www.w3.org/1999/xlink">
<g id="graph0" class="graph" transform="scale(1 1) rotate(0) translate(4 1998)">
<title>serial.subscription_note</title>
<polygon fill="#ffffff" stroke="transparent" points="-4,4 -4,-1998 1360,-1998 1360,4 -4,4"/>
<!-- serial.subscription_note -->
<g id="node1" class="node">
<title>serial.subscription_note</title>
<polygon fill="#efefef" stroke="transparent" points="600,-1912.5 600,-1947.5 930,-1947.5 930,-1912.5 600,-1912.5"/>
<polygon fill="none" stroke="#000000" points="600,-1912.5 600,-1947.5 930,-1947.5 930,-1912.5 600,-1912.5"/>
<text text-anchor="start" x="606.698" y="-1925.3" font-family="Arial Bold" font-size="18.00" fill="#000000">serial.subscription_note</text>
<text text-anchor="start" x="795.734" y="-1925.3" font-family="Arial" font-size="14.00" fill="#000000">    </text>
<text text-anchor="start" x="829.9388" y="-1925.3" font-family="Arial" font-size="14.00" fill="#666666">[BASE TABLE]</text>
<polygon fill="none" stroke="#000000" points="600,-1882.5 600,-1912.5 930,-1912.5 930,-1882.5 600,-1882.5"/>
<text text-anchor="start" x="607" y="-1893.9" font-family="Arial" font-size="14.00" fill="#000000">id </text>
<text text-anchor="start" x="621.7798" y="-1893.9" font-family="Arial" font-size="14.00" fill="#666666">[integer]</text>
<polygon fill="none" stroke="#000000" points="600,-1852.5 600,-1882.5 930,-1882.5 930,-1852.5 600,-1852.5"/>
<text text-anchor="start" x="607" y="-1863.9" font-family="Arial" font-size="14.00" fill="#000000">subscription </text>
<text text-anchor="start" x="685.568" y="-1863.9" font-family="Arial" font-size="14.00" fill="#666666">[integer]</text>
<polygon fill="none" stroke="#000000" points="600,-1822.5 600,-1852.5 930,-1852.5 930,-1822.5 600,-1822.5"/>
<text text-anchor="start" x="607" y="-1833.9" font-family="Arial" font-size="14.00" fill="#000000">creator </text>
<text text-anchor="start" x="654.4502" y="-1833.9" font-family="Arial" font-size="14.00" fill="#666666">[integer]</text>
<polygon fill="none" stroke="#000000" points="600,-1792.5 600,-1822.5 930,-1822.5 930,-1792.5 600,-1792.5"/>
<text text-anchor="start" x="607" y="-1803.9" font-family="Arial" font-size="14.00" fill="#000000">create_date </text>
<text text-anchor="start" x="684.8106" y="-1803.9" font-family="Arial" font-size="14.00" fill="#666666">[timestamp with time zone]</text>
<polygon fill="none" stroke="#000000" points="600,-1762.5 600,-1792.5 930,-1792.5 930,-1762.5 600,-1762.5"/>
<text text-anchor="start" x="607" y="-1773.9" font-family="Arial" font-size="14.00" fill="#000000">pub </text>
<text text-anchor="start" x="634.2384" y="-1773.9" font-family="Arial" font-size="14.00" fill="#666666">[boolean]</text>
<polygon fill="none" stroke="#000000" points="600,-1732.5 600,-1762.5 930,-1762.5 930,-1732.5 600,-1732.5"/>
<text text-anchor="start" x="607" y="-1743.9" font-family="Arial" font-size="14.00" fill="#000000">alert </text>
<text text-anchor="start" x="638.1136" y="-1743.9" font-family="Arial" font-size="14.00" fill="#666666">[boolean]</text>
<polygon fill="none" stroke="#000000" points="600,-1702.5 600,-1732.5 930,-1732.5 930,-1702.5 600,-1702.5"/>
<text text-anchor="start" x="607" y="-1713.9" font-family="Arial" font-size="14.00" fill="#000000">title </text>
<text text-anchor="start" x="632.6676" y="-1713.9" font-family="Arial" font-size="14.00" fill="#666666">[text]</text>
<polygon fill="none" stroke="#000000" points="600,-1672.5 600,-1702.5 930,-1702.5 930,-1672.5 600,-1672.5"/>
<text text-anchor="start" x="607" y="-1683.9" font-family="Arial" font-size="14.00" fill="#000000">value </text>
<text text-anchor="start" x="644.345" y="-1683.9" font-family="Arial" font-size="14.00" fill="#666666">[text]</text>
<polygon fill="none" stroke="#000000" stroke-width="3" points="598.5,-1671.5 598.5,-1949.5 931.5,-1949.5 931.5,-1671.5 598.5,-1671.5"/>
</g>
<!-- serial.subscription -->
<g id="node2" class="node">
<title>serial.subscription</title>
<polygon fill="#efefef" stroke="transparent" points="419,-867.5 419,-902.5 704,-902.5 704,-867.5 419,-867.5"/>
<polygon fill="none" stroke="#000000" points="419,-867.5 419,-902.5 704,-902.5 704,-867.5 419,-867.5"/>
<text text-anchor="start" x="425.7115" y="-880.3" font-family="Arial Bold" font-size="18.00" fill="#000000">serial.subscription</text>
<text text-anchor="start" x="569.7205" y="-880.3" font-family="Arial" font-size="14.00" fill="#000000">    </text>
<text text-anchor="start" x="603.9253" y="-880.3" font-family="Arial" font-size="14.00" fill="#666666">[BASE TABLE]</text>
<polygon fill="none" stroke="#000000" points="419,-837.5 419,-867.5 704,-867.5 704,-837.5 419,-837.5"/>
<text text-anchor="start" x="426" y="-848.9" font-family="Arial" font-size="14.00" fill="#000000">id    </text>
<text text-anchor="start" x="471.094" y="-848.9" font-family="Arial" font-size="14.00" fill="#666666">[integer]</text>
<polygon fill="none" stroke="#000000" points="419,-807.5 419,-837.5 704,-837.5 704,-807.5 419,-807.5"/>
<text text-anchor="start" x="426" y="-818.9" font-family="Arial" font-size="14.00" fill="#000000">owning_lib    </text>
<text text-anchor="start" x="526.3268" y="-818.9" font-family="Arial" font-size="14.00" fill="#666666">[integer]</text>
<polygon fill="none" stroke="#000000" points="419,-777.5 419,-807.5 704,-807.5 704,-777.5 419,-777.5"/>
<text text-anchor="start" x="426" y="-788.9" font-family="Arial" font-size="14.00" fill="#000000">start_date    </text>
<text text-anchor="start" x="522.4502" y="-788.9" font-family="Arial" font-size="14.00" fill="#666666">[timestamp with time zone]</text>
<polygon fill="none" stroke="#000000" points="419,-747.5 419,-777.5 704,-777.5 704,-747.5 419,-747.5"/>
<text text-anchor="start" x="426" y="-758.9" font-family="Arial" font-size="14.00" fill="#000000">end_date    </text>
<text text-anchor="start" x="518.5736" y="-758.9" font-family="Arial" font-size="14.00" fill="#666666">[timestamp with time zone]</text>
<polygon fill="none" stroke="#000000" points="419,-717.5 419,-747.5 704,-747.5 704,-717.5 419,-717.5"/>
<text text-anchor="start" x="426" y="-728.9" font-family="Arial" font-size="14.00" fill="#000000">record_entry    </text>
<text text-anchor="start" x="538.7728" y="-728.9" font-family="Arial" font-size="14.00" fill="#666666">[bigint]</text>
<polygon fill="none" stroke="#000000" points="419,-687.5 419,-717.5 704,-717.5 704,-687.5 419,-687.5"/>
<text text-anchor="start" x="426" y="-698.9" font-family="Arial" font-size="14.00" fill="#000000">expected_date_offset    </text>
<text text-anchor="start" x="594.049" y="-698.9" font-family="Arial" font-size="14.00" fill="#666666">[interval]</text>
</g>
<!-- serial.subscription_note&#45;&gt;serial.subscription -->
<g id="edge1" class="edge">
<title>serial.subscription_note:subscription&#45;&gt;serial.subscription:id</title>
<path fill="none" stroke="#000000" d="M590.1438,-1864.2174C508.1051,-1801.2166 813.6041,-852.5 704,-852.5"/>
<polygon fill="#000000" stroke="#000000" points="590.5124,-1864.3401 598.578,-1871.7694 595.2562,-1865.92 600,-1867.5 600,-1867.5 600,-1867.5 595.2562,-1865.92 601.422,-1863.2306 590.5124,-1864.3401 590.5124,-1864.3401"/>
<text text-anchor="start" x="6.936" y="-1877.5" font-family="Arial" font-size="10.00" fill="#000000">FOREIGN KEY (subscription) REFERENCES serial.subscription(id) ON DELETE CASCADE DEFERRABLE INITIALLY DEFERRED</text>
</g>
<!-- actor.usr -->
<g id="node3" class="node">
<title>actor.usr</title>
<polygon fill="#efefef" stroke="transparent" points="808,-1512.5 808,-1547.5 1128,-1547.5 1128,-1512.5 808,-1512.5"/>
<polygon fill="none" stroke="#000000" points="808,-1512.5 808,-1547.5 1128,-1547.5 1128,-1512.5 808,-1512.5"/>
<text text-anchor="start" x="869.2123" y="-1525.3" font-family="Arial Bold" font-size="18.00" fill="#000000">actor.usr</text>
<text text-anchor="start" x="939.2197" y="-1525.3" font-family="Arial" font-size="14.00" fill="#000000">    </text>
<text text-anchor="start" x="973.4245" y="-1525.3" font-family="Arial" font-size="14.00" fill="#666666">[BASE TABLE]</text>
<polygon fill="none" stroke="#000000" points="808,-1482.5 808,-1512.5 1128,-1512.5 1128,-1482.5 808,-1482.5"/>
<text text-anchor="start" x="815" y="-1493.9" font-family="Arial" font-size="14.00" fill="#000000">id    </text>
<text text-anchor="start" x="860.094" y="-1493.9" font-family="Arial" font-size="14.00" fill="#666666">[integer]</text>
<polygon fill="none" stroke="#000000" points="808,-1452.5 808,-1482.5 1128,-1482.5 1128,-1452.5 808,-1452.5"/>
<text text-anchor="start" x="815" y="-1463.9" font-family="Arial" font-size="14.00" fill="#000000">card    </text>
<text text-anchor="start" x="876.4306" y="-1463.9" font-family="Arial" font-size="14.00" fill="#666666">[integer]</text>
<polygon fill="none" stroke="#000000" points="808,-1422.5 808,-1452.5 1128,-1452.5 1128,-1422.5 808,-1422.5"/>
<text text-anchor="start" x="815" y="-1433.9" font-family="Arial" font-size="14.00" fill="#000000">profile    </text>
<text text-anchor="start" x="887.317" y="-1433.9" font-family="Arial" font-size="14.00" fill="#666666">[integer]</text>
<polygon fill="none" stroke="#000000" points="808,-1392.5 808,-1422.5 1128,-1422.5 1128,-1392.5 808,-1392.5"/>
<text text-anchor="start" x="815" y="-1403.9" font-family="Arial" font-size="14.00" fill="#000000">usrname    </text>
<text text-anchor="start" x="903.6564" y="-1403.9" font-family="Arial" font-size="14.00" fill="#666666">[text]</text>
<polygon fill="none" stroke="#000000" points="808,-1362.5 808,-1392.5 1128,-1392.5 1128,-1362.5 808,-1362.5"/>
<text text-anchor="start" x="815" y="-1373.9" font-family="Arial" font-size="14.00" fill="#000000">email    </text>
<text text-anchor="start" x="882.6438" y="-1373.9" font-family="Arial" font-size="14.00" fill="#666666">[text]</text>
<polygon fill="none" stroke="#000000" points="808,-1332.5 808,-1362.5 1128,-1362.5 1128,-1332.5 808,-1332.5"/>
<text text-anchor="start" x="815" y="-1343.9" font-family="Arial" font-size="14.00" fill="#000000">passwd    </text>
<text text-anchor="start" x="896.6592" y="-1343.9" font-family="Arial" font-size="14.00" fill="#666666">[text]</text>
<polygon fill="none" stroke="#000000" points="808,-1302.5 808,-1332.5 1128,-1332.5 1128,-1302.5 808,-1302.5"/>
<text text-anchor="start" x="815" y="-1313.9" font-family="Arial" font-size="14.00" fill="#000000">standing    </text>
<text text-anchor="start" x="902.115" y="-1313.9" font-family="Arial" font-size="14.00" fill="#666666">[integer]</text>
<polygon fill="none" stroke="#000000" points="808,-1272.5 808,-1302.5 1128,-1302.5 1128,-1272.5 808,-1272.5"/>
<text text-anchor="start" x="815" y="-1283.9" font-family="Arial" font-size="14.00" fill="#000000">ident_type    </text>
<text text-anchor="start" x="913.7882" y="-1283.9" font-family="Arial" font-size="14.00" fill="#666666">[integer]</text>
<polygon fill="none" stroke="#000000" points="808,-1242.5 808,-1272.5 1128,-1272.5 1128,-1242.5 808,-1242.5"/>
<text text-anchor="start" x="815" y="-1253.9" font-family="Arial" font-size="14.00" fill="#000000">ident_value    </text>
<text text-anchor="start" x="920.7868" y="-1253.9" font-family="Arial" font-size="14.00" fill="#666666">[text]</text>
<polygon fill="none" stroke="#000000" points="808,-1212.5 808,-1242.5 1128,-1242.5 1128,-1212.5 808,-1212.5"/>
<text text-anchor="start" x="815" y="-1223.9" font-family="Arial" font-size="14.00" fill="#000000">ident_type2    </text>
<text text-anchor="start" x="921.5708" y="-1223.9" font-family="Arial" font-size="14.00" fill="#666666">[integer]</text>
<polygon fill="none" stroke="#000000" points="808,-1182.5 808,-1212.5 1128,-1212.5 1128,-1182.5 808,-1182.5"/>
<text text-anchor="start" x="815" y="-1193.9" font-family="Arial" font-size="14.00" fill="#000000">ident_value2    </text>
<text text-anchor="start" x="928.5694" y="-1193.9" font-family="Arial" font-size="14.00" fill="#666666">[text]</text>
<polygon fill="none" stroke="#000000" points="808,-1152.5 808,-1182.5 1128,-1182.5 1128,-1152.5 808,-1152.5"/>
<text text-anchor="start" x="815" y="-1163.9" font-family="Arial" font-size="14.00" fill="#000000">net_access_level    </text>
<text text-anchor="start" x="956.5694" y="-1163.9" font-family="Arial" font-size="14.00" fill="#666666">[integer]</text>
<polygon fill="none" stroke="#000000" points="808,-1122.5 808,-1152.5 1128,-1152.5 1128,-1122.5 808,-1122.5"/>
<text text-anchor="start" x="815" y="-1133.9" font-family="Arial" font-size="14.00" fill="#000000">photo_url    </text>
<text text-anchor="start" x="907.5582" y="-1133.9" font-family="Arial" font-size="14.00" fill="#666666">[text]</text>
<polygon fill="none" stroke="#000000" points="808,-1092.5 808,-1122.5 1128,-1122.5 1128,-1092.5 808,-1092.5"/>
<text text-anchor="start" x="815" y="-1103.9" font-family="Arial" font-size="14.00" fill="#000000">prefix    </text>
<text text-anchor="start" x="883.4278" y="-1103.9" font-family="Arial" font-size="14.00" fill="#666666">[text]</text>
<polygon fill="none" stroke="#000000" points="808,-1062.5 808,-1092.5 1128,-1092.5 1128,-1062.5 808,-1062.5"/>
<text text-anchor="start" x="815" y="-1073.9" font-family="Arial" font-size="14.00" fill="#000000">first_given_name    </text>
<text text-anchor="start" x="955.7812" y="-1073.9" font-family="Arial" font-size="14.00" fill="#666666">[text]</text>
<polygon fill="none" stroke="#000000" points="808,-1032.5 808,-1062.5 1128,-1062.5 1128,-1032.5 808,-1032.5"/>
<text text-anchor="start" x="815" y="-1043.9" font-family="Arial" font-size="14.00" fill="#000000">second_given_name    </text>
<text text-anchor="start" x="978.3632" y="-1043.9" font-family="Arial" font-size="14.00" fill="#666666">[text]</text>
<polygon fill="none" stroke="#000000" points="808,-1002.5 808,-1032.5 1128,-1032.5 1128,-1002.5 808,-1002.5"/>
<text text-anchor="start" x="815" y="-1013.9" font-family="Arial" font-size="14.00" fill="#000000">family_name    </text>
<text text-anchor="start" x="928.5428" y="-1013.9" font-family="Arial" font-size="14.00" fill="#666666">[text]</text>
<polygon fill="none" stroke="#000000" points="808,-972.5 808,-1002.5 1128,-1002.5 1128,-972.5 808,-972.5"/>
<text text-anchor="start" x="815" y="-983.9" font-family="Arial" font-size="14.00" fill="#000000">suffix    </text>
<text text-anchor="start" x="881.8752" y="-983.9" font-family="Arial" font-size="14.00" fill="#666666">[text]</text>
<polygon fill="none" stroke="#000000" points="808,-942.5 808,-972.5 1128,-972.5 1128,-942.5 808,-942.5"/>
<text text-anchor="start" x="815" y="-953.9" font-family="Arial" font-size="14.00" fill="#000000">alias    </text>
<text text-anchor="start" x="877.9832" y="-953.9" font-family="Arial" font-size="14.00" fill="#666666">[text]</text>
<polygon fill="none" stroke="#000000" points="808,-912.5 808,-942.5 1128,-942.5 1128,-912.5 808,-912.5"/>
<text text-anchor="start" x="815" y="-923.9" font-family="Arial" font-size="14.00" fill="#000000">day_phone    </text>
<text text-anchor="start" x="918.4656" y="-923.9" font-family="Arial" font-size="14.00" fill="#666666">[text]</text>
<polygon fill="none" stroke="#000000" points="808,-882.5 808,-912.5 1128,-912.5 1128,-882.5 808,-882.5"/>
<text text-anchor="start" x="815" y="-893.9" font-family="Arial" font-size="14.00" fill="#000000">evening_phone    </text>
<text text-anchor="start" x="944.92" y="-893.9" font-family="Arial" font-size="14.00" fill="#666666">[text]</text>
<polygon fill="none" stroke="#000000" points="808,-852.5 808,-882.5 1128,-882.5 1128,-852.5 808,-852.5"/>
<text text-anchor="start" x="815" y="-863.9" font-family="Arial" font-size="14.00" fill="#000000">other_phone    </text>
<text text-anchor="start" x="927.7994" y="-863.9" font-family="Arial" font-size="14.00" fill="#666666">[text]</text>
<polygon fill="none" stroke="#000000" points="808,-822.5 808,-852.5 1128,-852.5 1128,-822.5 808,-822.5"/>
<text text-anchor="start" x="815" y="-833.9" font-family="Arial" font-size="14.00" fill="#000000">mailing_address    </text>
<text text-anchor="start" x="951.1066" y="-833.9" font-family="Arial" font-size="14.00" fill="#666666">[integer]</text>
<polygon fill="none" stroke="#000000" points="808,-792.5 808,-822.5 1128,-822.5 1128,-792.5 808,-792.5"/>
<text text-anchor="start" x="815" y="-803.9" font-family="Arial" font-size="14.00" fill="#000000">billing_address    </text>
<text text-anchor="start" x="942.5526" y="-803.9" font-family="Arial" font-size="14.00" fill="#666666">[integer]</text>
<polygon fill="none" stroke="#000000" points="808,-762.5 808,-792.5 1128,-792.5 1128,-762.5 808,-762.5"/>
<text text-anchor="start" x="815" y="-773.9" font-family="Arial" font-size="14.00" fill="#000000">home_ou    </text>
<text text-anchor="start" x="907.561" y="-773.9" font-family="Arial" font-size="14.00" fill="#666666">[integer]</text>
<polygon fill="none" stroke="#000000" points="808,-732.5 808,-762.5 1128,-762.5 1128,-732.5 808,-732.5"/>
<text text-anchor="start" x="815" y="-743.9" font-family="Arial" font-size="14.00" fill="#000000">dob    </text>
<text text-anchor="start" x="872.5526" y="-743.9" font-family="Arial" font-size="14.00" fill="#666666">[date]</text>
<polygon fill="none" stroke="#000000" points="808,-702.5 808,-732.5 1128,-732.5 1128,-702.5 808,-702.5"/>
<text text-anchor="start" x="815" y="-713.9" font-family="Arial" font-size="14.00" fill="#000000">active    </text>
<text text-anchor="start" x="885.7672" y="-713.9" font-family="Arial" font-size="14.00" fill="#666666">[boolean]</text>
<polygon fill="none" stroke="#000000" points="808,-672.5 808,-702.5 1128,-702.5 1128,-672.5 808,-672.5"/>
<text text-anchor="start" x="815" y="-683.9" font-family="Arial" font-size="14.00" fill="#000000">master_account    </text>
<text text-anchor="start" x="948.7854" y="-683.9" font-family="Arial" font-size="14.00" fill="#666666">[boolean]</text>
<polygon fill="none" stroke="#000000" points="808,-642.5 808,-672.5 1128,-672.5 1128,-642.5 808,-642.5"/>
<text text-anchor="start" x="815" y="-653.9" font-family="Arial" font-size="14.00" fill="#000000">super_user    </text>
<text text-anchor="start" x="919.2216" y="-653.9" font-family="Arial" font-size="14.00" fill="#666666">[boolean]</text>
<polygon fill="none" stroke="#000000" points="808,-612.5 808,-642.5 1128,-642.5 1128,-612.5 808,-612.5"/>
<text text-anchor="start" x="815" y="-623.9" font-family="Arial" font-size="14.00" fill="#000000">barred    </text>
<text text-anchor="start" x="889.6564" y="-623.9" font-family="Arial" font-size="14.00" fill="#666666">[boolean]</text>
<polygon fill="none" stroke="#000000" points="808,-582.5 808,-612.5 1128,-612.5 1128,-582.5 808,-582.5"/>
<text text-anchor="start" x="815" y="-593.9" font-family="Arial" font-size="14.00" fill="#000000">deleted    </text>
<text text-anchor="start" x="895.115" y="-593.9" font-family="Arial" font-size="14.00" fill="#666666">[boolean]</text>
<polygon fill="none" stroke="#000000" points="808,-552.5 808,-582.5 1128,-582.5 1128,-552.5 808,-552.5"/>
<text text-anchor="start" x="815" y="-563.9" font-family="Arial" font-size="14.00" fill="#000000">juvenile    </text>
<text text-anchor="start" x="896.655" y="-563.9" font-family="Arial" font-size="14.00" fill="#666666">[boolean]</text>
<polygon fill="none" stroke="#000000" points="808,-522.5 808,-552.5 1128,-552.5 1128,-522.5 808,-522.5"/>
<text text-anchor="start" x="815" y="-533.9" font-family="Arial" font-size="14.00" fill="#000000">usrgroup    </text>
<text text-anchor="start" x="904.439" y="-533.9" font-family="Arial" font-size="14.00" fill="#666666">[integer]</text>
<polygon fill="none" stroke="#000000" points="808,-492.5 808,-522.5 1128,-522.5 1128,-492.5 808,-492.5"/>
<text text-anchor="start" x="815" y="-503.9" font-family="Arial" font-size="14.00" fill="#000000">claims_returned_count    </text>
<text text-anchor="start" x="990.7896" y="-503.9" font-family="Arial" font-size="14.00" fill="#666666">[integer]</text>
<polygon fill="none" stroke="#000000" points="808,-462.5 808,-492.5 1128,-492.5 1128,-462.5 808,-462.5"/>
<text text-anchor="start" x="815" y="-473.9" font-family="Arial" font-size="14.00" fill="#000000">credit_forward_balance    </text>
<text text-anchor="start" x="994.6788" y="-473.9" font-family="Arial" font-size="14.00" fill="#666666">[numeric(6,2)]</text>
<polygon fill="none" stroke="#000000" points="808,-432.5 808,-462.5 1128,-462.5 1128,-432.5 808,-432.5"/>
<text text-anchor="start" x="815" y="-443.9" font-family="Arial" font-size="14.00" fill="#000000">last_xact_id    </text>
<text text-anchor="start" x="923.1122" y="-443.9" font-family="Arial" font-size="14.00" fill="#666666">[text]</text>
<polygon fill="none" stroke="#000000" points="808,-402.5 808,-432.5 1128,-432.5 1128,-402.5 808,-402.5"/>
<text text-anchor="start" x="815" y="-413.9" font-family="Arial" font-size="14.00" fill="#000000">alert_message    </text>
<text text-anchor="start" x="941.0014" y="-413.9" font-family="Arial" font-size="14.00" fill="#666666">[text]</text>
<polygon fill="none" stroke="#000000" points="808,-372.5 808,-402.5 1128,-402.5 1128,-372.5 808,-372.5"/>
<text text-anchor="start" x="815" y="-383.9" font-family="Arial" font-size="14.00" fill="#000000">create_date    </text>
<text text-anchor="start" x="923.1248" y="-383.9" font-family="Arial" font-size="14.00" fill="#666666">[timestamp with time zone]</text>
<polygon fill="none" stroke="#000000" points="808,-342.5 808,-372.5 1128,-372.5 1128,-342.5 808,-342.5"/>
<text text-anchor="start" x="815" y="-353.9" font-family="Arial" font-size="14.00" fill="#000000">expire_date    </text>
<text text-anchor="start" x="922.3408" y="-353.9" font-family="Arial" font-size="14.00" fill="#666666">[timestamp with time zone]</text>
<polygon fill="none" stroke="#000000" points="808,-312.5 808,-342.5 1128,-342.5 1128,-312.5 808,-312.5"/>
<text text-anchor="start" x="815" y="-323.9" font-family="Arial" font-size="14.00" fill="#000000">claims_never_checked_out_count    </text>
<text text-anchor="start" x="1060.8246" y="-323.9" font-family="Arial" font-size="14.00" fill="#666666">[integer]</text>
<polygon fill="none" stroke="#000000" points="808,-282.5 808,-312.5 1128,-312.5 1128,-282.5 808,-282.5"/>
<text text-anchor="start" x="814.7609" y="-293.9" font-family="Arial" font-size="14.00" fill="#000000">last_update_time    </text>
<text text-anchor="start" x="955.5547" y="-293.9" font-family="Arial" font-size="14.00" fill="#666666">[timestamp with time zone]</text>
<polygon fill="none" stroke="#000000" points="808,-252.5 808,-282.5 1128,-282.5 1128,-252.5 808,-252.5"/>
<text text-anchor="start" x="815" y="-263.9" font-family="Arial" font-size="14.00" fill="#000000">pref_prefix    </text>
<text text-anchor="start" x="915.3268" y="-263.9" font-family="Arial" font-size="14.00" fill="#666666">[text]</text>
<polygon fill="none" stroke="#000000" points="808,-222.5 808,-252.5 1128,-252.5 1128,-222.5 808,-222.5"/>
<text text-anchor="start" x="815" y="-233.9" font-family="Arial" font-size="14.00" fill="#000000">pref_first_given_name    </text>
<text text-anchor="start" x="987.6802" y="-233.9" font-family="Arial" font-size="14.00" fill="#666666">[text]</text>
<polygon fill="none" stroke="#000000" points="808,-192.5 808,-222.5 1128,-222.5 1128,-192.5 808,-192.5"/>
<text text-anchor="start" x="815" y="-203.9" font-family="Arial" font-size="14.00" fill="#000000">pref_second_given_name    </text>
<text text-anchor="start" x="1010.2622" y="-203.9" font-family="Arial" font-size="14.00" fill="#666666">[text]</text>
<polygon fill="none" stroke="#000000" points="808,-162.5 808,-192.5 1128,-192.5 1128,-162.5 808,-162.5"/>
<text text-anchor="start" x="815" y="-173.9" font-family="Arial" font-size="14.00" fill="#000000">pref_family_name    </text>
<text text-anchor="start" x="960.4418" y="-173.9" font-family="Arial" font-size="14.00" fill="#666666">[text]</text>
<polygon fill="none" stroke="#000000" points="808,-132.5 808,-162.5 1128,-162.5 1128,-132.5 808,-132.5"/>
<text text-anchor="start" x="815" y="-143.9" font-family="Arial" font-size="14.00" fill="#000000">pref_suffix    </text>
<text text-anchor="start" x="913.7742" y="-143.9" font-family="Arial" font-size="14.00" fill="#666666">[text]</text>
<polygon fill="none" stroke="#000000" points="808,-102.5 808,-132.5 1128,-132.5 1128,-102.5 808,-102.5"/>
<text text-anchor="start" x="815" y="-113.9" font-family="Arial" font-size="14.00" fill="#000000">name_keywords    </text>
<text text-anchor="start" x="951.1108" y="-113.9" font-family="Arial" font-size="14.00" fill="#666666">[text]</text>
<polygon fill="none" stroke="#000000" points="808,-72.5 808,-102.5 1128,-102.5 1128,-72.5 808,-72.5"/>
<text text-anchor="start" x="815" y="-83.9" font-family="Arial" font-size="14.00" fill="#000000">name_kw_tsvector    </text>
<text text-anchor="start" x="965.892" y="-83.9" font-family="Arial" font-size="14.00" fill="#666666">[tsvector]</text>
<polygon fill="none" stroke="#000000" points="808,-42.5 808,-72.5 1128,-72.5 1128,-42.5 808,-42.5"/>
<text text-anchor="start" x="815" y="-53.9" font-family="Arial" font-size="14.00" fill="#000000">guardian    </text>
<text text-anchor="start" x="903.6676" y="-53.9" font-family="Arial" font-size="14.00" fill="#666666">[text]</text>
</g>
<!-- serial.subscription_note&#45;&gt;actor.usr -->
<g id="edge2" class="edge">
<title>serial.subscription_note:creator&#45;&gt;actor.usr:id</title>
<path fill="none" stroke="#000000" d="M940.3701,-1836.8911C1020.5946,-1827.0013 983.8275,-1699.0056 930,-1627 896.151,-1581.7198 841.849,-1636.2802 808,-1591 783.119,-1557.7164 766.4444,-1497.5 808,-1497.5"/>
<polygon fill="#000000" stroke="#000000" points="939.9828,-1836.9138 929.7362,-1833.0077 934.9914,-1837.2069 930,-1837.5 930,-1837.5 930,-1837.5 934.9914,-1837.2069 930.2638,-1841.9923 939.9828,-1836.9138 939.9828,-1836.9138"/>
<text text-anchor="start" x="936.8865" y="-1847.5" font-family="Arial" font-size="10.00" fill="#000000">FOREIGN KEY (creator) REFERENCES actor.usr(id) DEFERRABLE INITIALLY DEFERRED</text>
</g>
</g>
</svg>
