<?xml version="1.0" encoding="UTF-8" standalone="no"?>
<!DOCTYPE svg PUBLIC "-//W3C//DTD SVG 1.1//EN"
 "http://www.w3.org/Graphics/SVG/1.1/DTD/svg11.dtd">
<!-- Generated by graphviz version 2.40.1 (20161225.0304)
 -->
<!-- Title: serial.basic_summary Pages: 1 -->
<svg width="960pt" height="832pt"
 viewBox="0.00 0.00 959.50 832.00" xmlns="http://www.w3.org/2000/svg" xmlns:xlink="http://www.w3.org/1999/xlink">
<g id="graph0" class="graph" transform="scale(1 1) rotate(0) translate(4 828)">
<title>serial.basic_summary</title>
<polygon fill="#ffffff" stroke="transparent" points="-4,4 -4,-828 955.5,-828 955.5,4 -4,4"/>
<!-- serial.basic_summary -->
<g id="node1" class="node">
<title>serial.basic_summary</title>
<polygon fill="#efefef" stroke="transparent" points="46.5,-742.5 46.5,-777.5 361.5,-777.5 361.5,-742.5 46.5,-742.5"/>
<polygon fill="none" stroke="#000000" points="46.5,-742.5 46.5,-777.5 361.5,-777.5 361.5,-742.5 46.5,-742.5"/>
<text text-anchor="start" x="53.2175" y="-755.3" font-family="Arial Bold" font-size="18.00" fill="#000000">serial.basic_summary</text>
<text text-anchor="start" x="227.2145" y="-755.3" font-family="Arial" font-size="14.00" fill="#000000">    </text>
<text text-anchor="start" x="261.4193" y="-755.3" font-family="Arial" font-size="14.00" fill="#666666">[BASE TABLE]</text>
<polygon fill="none" stroke="#000000" points="46.5,-712.5 46.5,-742.5 361.5,-742.5 361.5,-712.5 46.5,-712.5"/>
<text text-anchor="start" x="53.5" y="-723.9" font-family="Arial" font-size="14.00" fill="#000000">id </text>
<text text-anchor="start" x="68.2798" y="-723.9" font-family="Arial" font-size="14.00" fill="#666666">[integer]</text>
<polygon fill="none" stroke="#000000" points="46.5,-682.5 46.5,-712.5 361.5,-712.5 361.5,-682.5 46.5,-682.5"/>
<text text-anchor="start" x="53.5" y="-693.9" font-family="Arial" font-size="14.00" fill="#000000">distribution </text>
<text text-anchor="start" x="125.0652" y="-693.9" font-family="Arial" font-size="14.00" fill="#666666">[integer]</text>
<polygon fill="none" stroke="#000000" points="46.5,-652.5 46.5,-682.5 361.5,-682.5 361.5,-652.5 46.5,-652.5"/>
<text text-anchor="start" x="53.5" y="-663.9" font-family="Arial" font-size="14.00" fill="#000000">generated_coverage </text>
<text text-anchor="start" x="185.7762" y="-663.9" font-family="Arial" font-size="14.00" fill="#666666">[text]</text>
<polygon fill="none" stroke="#000000" points="46.5,-622.5 46.5,-652.5 361.5,-652.5 361.5,-622.5 46.5,-622.5"/>
<text text-anchor="start" x="53.5" y="-633.9" font-family="Arial" font-size="14.00" fill="#000000">textual_holdings </text>
<text text-anchor="start" x="158.535" y="-633.9" font-family="Arial" font-size="14.00" fill="#666666">[text]</text>
<polygon fill="none" stroke="#000000" points="46.5,-592.5 46.5,-622.5 361.5,-622.5 361.5,-592.5 46.5,-592.5"/>
<text text-anchor="start" x="53.5" y="-603.9" font-family="Arial" font-size="14.00" fill="#000000">show_generated </text>
<text text-anchor="start" x="160.8744" y="-603.9" font-family="Arial" font-size="14.00" fill="#666666">[boolean]</text>
<polygon fill="none" stroke="#000000" stroke-width="3" points="44.5,-591.5 44.5,-779.5 362.5,-779.5 362.5,-591.5 44.5,-591.5"/>
</g>
<!-- serial.distribution -->
<g id="node2" class="node">
<title>serial.distribution</title>
<polygon fill="#efefef" stroke="transparent" points="66.5,-432.5 66.5,-467.5 342.5,-467.5 342.5,-432.5 66.5,-432.5"/>
<polygon fill="none" stroke="#000000" points="66.5,-432.5 66.5,-467.5 342.5,-467.5 342.5,-432.5 66.5,-432.5"/>
<text text-anchor="start" x="73.2133" y="-445.3" font-family="Arial Bold" font-size="18.00" fill="#000000">serial.distribution</text>
<text text-anchor="start" x="208.2187" y="-445.3" font-family="Arial" font-size="14.00" fill="#000000">    </text>
<text text-anchor="start" x="242.4235" y="-445.3" font-family="Arial" font-size="14.00" fill="#666666">[BASE TABLE]</text>
<polygon fill="none" stroke="#000000" points="66.5,-402.5 66.5,-432.5 342.5,-432.5 342.5,-402.5 66.5,-402.5"/>
<text text-anchor="start" x="73.5" y="-413.9" font-family="Arial" font-size="14.00" fill="#000000">id    </text>
<text text-anchor="start" x="118.594" y="-413.9" font-family="Arial" font-size="14.00" fill="#666666">[integer]</text>
<polygon fill="none" stroke="#000000" points="66.5,-372.5 66.5,-402.5 342.5,-402.5 342.5,-372.5 66.5,-372.5"/>
<text text-anchor="start" x="73.5" y="-383.9" font-family="Arial" font-size="14.00" fill="#000000">record_entry    </text>
<text text-anchor="start" x="186.2728" y="-383.9" font-family="Arial" font-size="14.00" fill="#666666">[bigint]</text>
<polygon fill="none" stroke="#000000" points="66.5,-342.5 66.5,-372.5 342.5,-372.5 342.5,-342.5 66.5,-342.5"/>
<text text-anchor="start" x="73.5" y="-353.9" font-family="Arial" font-size="14.00" fill="#000000">summary_method    </text>
<text text-anchor="start" x="219.716" y="-353.9" font-family="Arial" font-size="14.00" fill="#666666">[text]</text>
<polygon fill="none" stroke="#000000" points="66.5,-312.5 66.5,-342.5 342.5,-342.5 342.5,-312.5 66.5,-312.5"/>
<text text-anchor="start" x="73.5" y="-323.9" font-family="Arial" font-size="14.00" fill="#000000">subscription    </text>
<text text-anchor="start" x="182.3822" y="-323.9" font-family="Arial" font-size="14.00" fill="#666666">[integer]</text>
<polygon fill="none" stroke="#000000" points="66.5,-282.5 66.5,-312.5 342.5,-312.5 342.5,-282.5 66.5,-282.5"/>
<text text-anchor="start" x="73.5" y="-293.9" font-family="Arial" font-size="14.00" fill="#000000">holding_lib    </text>
<text text-anchor="start" x="174.6094" y="-293.9" font-family="Arial" font-size="14.00" fill="#666666">[integer]</text>
<polygon fill="none" stroke="#000000" points="66.5,-252.5 66.5,-282.5 342.5,-282.5 342.5,-252.5 66.5,-252.5"/>
<text text-anchor="start" x="73.5" y="-263.9" font-family="Arial" font-size="14.00" fill="#000000">label    </text>
<text text-anchor="start" x="137.2658" y="-263.9" font-family="Arial" font-size="14.00" fill="#666666">[text]</text>
<polygon fill="none" stroke="#000000" points="66.5,-222.5 66.5,-252.5 342.5,-252.5 342.5,-222.5 66.5,-222.5"/>
<text text-anchor="start" x="73.5" y="-233.9" font-family="Arial" font-size="14.00" fill="#000000">display_grouping    </text>
<text text-anchor="start" x="213.5112" y="-233.9" font-family="Arial" font-size="14.00" fill="#666666">[text]</text>
<polygon fill="none" stroke="#000000" points="66.5,-192.5 66.5,-222.5 342.5,-222.5 342.5,-192.5 66.5,-192.5"/>
<text text-anchor="start" x="73.5" y="-203.9" font-family="Arial" font-size="14.00" fill="#000000">receive_call_number    </text>
<text text-anchor="start" x="236.8324" y="-203.9" font-family="Arial" font-size="14.00" fill="#666666">[bigint]</text>
<polygon fill="none" stroke="#000000" points="66.5,-162.5 66.5,-192.5 342.5,-192.5 342.5,-162.5 66.5,-162.5"/>
<text text-anchor="start" x="73.5" y="-173.9" font-family="Arial" font-size="14.00" fill="#000000">receive_unit_template    </text>
<text text-anchor="start" x="244.6262" y="-173.9" font-family="Arial" font-size="14.00" fill="#666666">[integer]</text>
<polygon fill="none" stroke="#000000" points="66.5,-132.5 66.5,-162.5 342.5,-162.5 342.5,-132.5 66.5,-132.5"/>
<text text-anchor="start" x="73.5" y="-143.9" font-family="Arial" font-size="14.00" fill="#000000">bind_call_number    </text>
<text text-anchor="start" x="218.1718" y="-143.9" font-family="Arial" font-size="14.00" fill="#666666">[bigint]</text>
<polygon fill="none" stroke="#000000" points="66.5,-102.5 66.5,-132.5 342.5,-132.5 342.5,-102.5 66.5,-102.5"/>
<text text-anchor="start" x="73.5" y="-113.9" font-family="Arial" font-size="14.00" fill="#000000">bind_unit_template    </text>
<text text-anchor="start" x="225.9656" y="-113.9" font-family="Arial" font-size="14.00" fill="#666666">[integer]</text>
<polygon fill="none" stroke="#000000" points="66.5,-72.5 66.5,-102.5 342.5,-102.5 342.5,-72.5 66.5,-72.5"/>
<text text-anchor="start" x="73.5" y="-83.9" font-family="Arial" font-size="14.00" fill="#000000">unit_label_prefix    </text>
<text text-anchor="start" x="209.6164" y="-83.9" font-family="Arial" font-size="14.00" fill="#666666">[text]</text>
<polygon fill="none" stroke="#000000" points="66.5,-42.5 66.5,-72.5 342.5,-72.5 342.5,-42.5 66.5,-42.5"/>
<text text-anchor="start" x="73.5" y="-53.9" font-family="Arial" font-size="14.00" fill="#000000">unit_label_suffix    </text>
<text text-anchor="start" x="208.0638" y="-53.9" font-family="Arial" font-size="14.00" fill="#666666">[text]</text>
</g>
<!-- serial.basic_summary&#45;&gt;serial.distribution -->
<g id="edge1" class="edge">
<title>serial.basic_summary:distribution&#45;&gt;serial.distribution:id</title>
<path fill="none" stroke="#000000" d="M371.6826,-696.6237C425.8575,-686.6672 403.4156,-594.3416 361.5,-547 273.9421,-448.1075 154.0579,-609.8925 66.5,-511 38.9529,-479.8869 24.9444,-417.5 66.5,-417.5"/>
<polygon fill="#000000" stroke="#000000" points="371.4632,-696.6425 361.1141,-693.0166 366.4816,-697.0712 361.5,-697.5 361.5,-697.5 361.5,-697.5 366.4816,-697.0712 361.8859,-701.9834 371.4632,-696.6425 371.4632,-696.6425"/>
<text text-anchor="start" x="368.438" y="-707.5" font-family="Arial" font-size="10.00" fill="#000000">FOREIGN KEY (distribution) REFERENCES serial.distribution(id) ON DELETE CASCADE DEFERRABLE INITIALLY DEFERRED</text>
</g>
</g>
</svg>
