<?xml version="1.0" encoding="UTF-8" standalone="no"?>
<!DOCTYPE svg PUBLIC "-//W3C//DTD SVG 1.1//EN"
 "http://www.w3.org/Graphics/SVG/1.1/DTD/svg11.dtd">
<!-- Generated by graphviz version 2.40.1 (20161225.0304)
 -->
<!-- Title: serial.subscription Pages: 1 -->
<svg width="2104pt" height="1769pt"
 viewBox="0.00 0.00 2104.00 1769.00" xmlns="http://www.w3.org/2000/svg" xmlns:xlink="http://www.w3.org/1999/xlink">
<g id="graph0" class="graph" transform="scale(1 1) rotate(0) translate(4 1765)">
<title>serial.subscription</title>
<polygon fill="#ffffff" stroke="transparent" points="-4,4 -4,-1765 2100,-1765 2100,4 -4,4"/>
<!-- serial.subscription -->
<g id="node1" class="node">
<title>serial.subscription</title>
<polygon fill="#efefef" stroke="transparent" points="897,-952.5 897,-987.5 1182,-987.5 1182,-952.5 897,-952.5"/>
<polygon fill="none" stroke="#000000" points="897,-952.5 897,-987.5 1182,-987.5 1182,-952.5 897,-952.5"/>
<text text-anchor="start" x="903.7115" y="-965.3" font-family="Arial Bold" font-size="18.00" fill="#000000">serial.subscription</text>
<text text-anchor="start" x="1047.7205" y="-965.3" font-family="Arial" font-size="14.00" fill="#000000">    </text>
<text text-anchor="start" x="1081.9253" y="-965.3" font-family="Arial" font-size="14.00" fill="#666666">[BASE TABLE]</text>
<polygon fill="none" stroke="#000000" points="897,-922.5 897,-952.5 1182,-952.5 1182,-922.5 897,-922.5"/>
<text text-anchor="start" x="904" y="-933.9" font-family="Arial" font-size="14.00" fill="#000000">id </text>
<text text-anchor="start" x="918.7798" y="-933.9" font-family="Arial" font-size="14.00" fill="#666666">[integer]</text>
<polygon fill="none" stroke="#000000" points="897,-892.5 897,-922.5 1182,-922.5 1182,-892.5 897,-892.5"/>
<text text-anchor="start" x="904" y="-903.9" font-family="Arial" font-size="14.00" fill="#000000">owning_lib </text>
<text text-anchor="start" x="974.0126" y="-903.9" font-family="Arial" font-size="14.00" fill="#666666">[integer]</text>
<polygon fill="none" stroke="#000000" points="897,-862.5 897,-892.5 1182,-892.5 1182,-862.5 897,-862.5"/>
<text text-anchor="start" x="904" y="-873.9" font-family="Arial" font-size="14.00" fill="#000000">start_date </text>
<text text-anchor="start" x="970.136" y="-873.9" font-family="Arial" font-size="14.00" fill="#666666">[timestamp with time zone]</text>
<polygon fill="none" stroke="#000000" points="897,-832.5 897,-862.5 1182,-862.5 1182,-832.5 897,-832.5"/>
<text text-anchor="start" x="904" y="-843.9" font-family="Arial" font-size="14.00" fill="#000000">end_date </text>
<text text-anchor="start" x="966.2594" y="-843.9" font-family="Arial" font-size="14.00" fill="#666666">[timestamp with time zone]</text>
<polygon fill="none" stroke="#000000" points="897,-802.5 897,-832.5 1182,-832.5 1182,-802.5 897,-802.5"/>
<text text-anchor="start" x="904" y="-813.9" font-family="Arial" font-size="14.00" fill="#000000">record_entry </text>
<text text-anchor="start" x="986.4586" y="-813.9" font-family="Arial" font-size="14.00" fill="#666666">[bigint]</text>
<polygon fill="none" stroke="#000000" points="897,-772.5 897,-802.5 1182,-802.5 1182,-772.5 897,-772.5"/>
<text text-anchor="start" x="904" y="-783.9" font-family="Arial" font-size="14.00" fill="#000000">expected_date_offset </text>
<text text-anchor="start" x="1041.7348" y="-783.9" font-family="Arial" font-size="14.00" fill="#666666">[interval]</text>
<polygon fill="none" stroke="#000000" stroke-width="3" points="895,-771.5 895,-989.5 1183,-989.5 1183,-771.5 895,-771.5"/>
</g>
<!-- actor.org_unit -->
<g id="node6" class="node">
<title>actor.org_unit</title>
<polygon fill="#efefef" stroke="transparent" points="727,-522.5 727,-557.5 978,-557.5 978,-522.5 727,-522.5"/>
<polygon fill="none" stroke="#000000" points="727,-522.5 727,-557.5 978,-557.5 978,-522.5 727,-522.5"/>
<text text-anchor="start" x="733.7017" y="-535.3" font-family="Arial Bold" font-size="18.00" fill="#000000">actor.org_unit</text>
<text text-anchor="start" x="843.7303" y="-535.3" font-family="Arial" font-size="14.00" fill="#000000">    </text>
<text text-anchor="start" x="877.9351" y="-535.3" font-family="Arial" font-size="14.00" fill="#666666">[BASE TABLE]</text>
<polygon fill="none" stroke="#000000" points="727,-492.5 727,-522.5 978,-522.5 978,-492.5 727,-492.5"/>
<text text-anchor="start" x="734" y="-503.9" font-family="Arial" font-size="14.00" fill="#000000">id    </text>
<text text-anchor="start" x="779.094" y="-503.9" font-family="Arial" font-size="14.00" fill="#666666">[integer]</text>
<polygon fill="none" stroke="#000000" points="727,-462.5 727,-492.5 978,-492.5 978,-462.5 727,-462.5"/>
<text text-anchor="start" x="734" y="-473.9" font-family="Arial" font-size="14.00" fill="#000000">parent_ou    </text>
<text text-anchor="start" x="831.2342" y="-473.9" font-family="Arial" font-size="14.00" fill="#666666">[integer]</text>
<polygon fill="none" stroke="#000000" points="727,-432.5 727,-462.5 978,-462.5 978,-432.5 727,-432.5"/>
<text text-anchor="start" x="734" y="-443.9" font-family="Arial" font-size="14.00" fill="#000000">ou_type    </text>
<text text-anchor="start" x="818.0084" y="-443.9" font-family="Arial" font-size="14.00" fill="#666666">[integer]</text>
<polygon fill="none" stroke="#000000" points="727,-402.5 727,-432.5 978,-432.5 978,-402.5 727,-402.5"/>
<text text-anchor="start" x="734" y="-413.9" font-family="Arial" font-size="14.00" fill="#000000">ill_address    </text>
<text text-anchor="start" x="835.0982" y="-413.9" font-family="Arial" font-size="14.00" fill="#666666">[integer]</text>
<polygon fill="none" stroke="#000000" points="727,-372.5 727,-402.5 978,-402.5 978,-372.5 727,-372.5"/>
<text text-anchor="start" x="734" y="-383.9" font-family="Arial" font-size="14.00" fill="#000000">holds_address    </text>
<text text-anchor="start" x="859.2328" y="-383.9" font-family="Arial" font-size="14.00" fill="#666666">[integer]</text>
<polygon fill="none" stroke="#000000" points="727,-342.5 727,-372.5 978,-372.5 978,-342.5 727,-342.5"/>
<text text-anchor="start" x="734" y="-353.9" font-family="Arial" font-size="14.00" fill="#000000">mailing_address    </text>
<text text-anchor="start" x="870.1066" y="-353.9" font-family="Arial" font-size="14.00" fill="#666666">[integer]</text>
<polygon fill="none" stroke="#000000" points="727,-312.5 727,-342.5 978,-342.5 978,-312.5 727,-312.5"/>
<text text-anchor="start" x="734" y="-323.9" font-family="Arial" font-size="14.00" fill="#000000">billing_address    </text>
<text text-anchor="start" x="861.5526" y="-323.9" font-family="Arial" font-size="14.00" fill="#666666">[integer]</text>
<polygon fill="none" stroke="#000000" points="727,-282.5 727,-312.5 978,-312.5 978,-282.5 727,-282.5"/>
<text text-anchor="start" x="734" y="-293.9" font-family="Arial" font-size="14.00" fill="#000000">shortname    </text>
<text text-anchor="start" x="834.3296" y="-293.9" font-family="Arial" font-size="14.00" fill="#666666">[text]</text>
<polygon fill="none" stroke="#000000" points="727,-252.5 727,-282.5 978,-282.5 978,-252.5 727,-252.5"/>
<text text-anchor="start" x="734" y="-263.9" font-family="Arial" font-size="14.00" fill="#000000">name    </text>
<text text-anchor="start" x="803.2132" y="-263.9" font-family="Arial" font-size="14.00" fill="#666666">[text]</text>
<polygon fill="none" stroke="#000000" points="727,-222.5 727,-252.5 978,-252.5 978,-222.5 727,-222.5"/>
<text text-anchor="start" x="734" y="-233.9" font-family="Arial" font-size="14.00" fill="#000000">email    </text>
<text text-anchor="start" x="801.6438" y="-233.9" font-family="Arial" font-size="14.00" fill="#666666">[text]</text>
<polygon fill="none" stroke="#000000" points="727,-192.5 727,-222.5 978,-222.5 978,-192.5 727,-192.5"/>
<text text-anchor="start" x="734" y="-203.9" font-family="Arial" font-size="14.00" fill="#000000">phone    </text>
<text text-anchor="start" x="807.1178" y="-203.9" font-family="Arial" font-size="14.00" fill="#666666">[text]</text>
<polygon fill="none" stroke="#000000" points="727,-162.5 727,-192.5 978,-192.5 978,-162.5 727,-162.5"/>
<text text-anchor="start" x="734" y="-173.9" font-family="Arial" font-size="14.00" fill="#000000">opac_visible    </text>
<text text-anchor="start" x="845.2202" y="-173.9" font-family="Arial" font-size="14.00" fill="#666666">[boolean]</text>
<polygon fill="none" stroke="#000000" points="727,-132.5 727,-162.5 978,-162.5 978,-132.5 727,-132.5"/>
<text text-anchor="start" x="734" y="-143.9" font-family="Arial" font-size="14.00" fill="#000000">fiscal_calendar    </text>
<text text-anchor="start" x="861.554" y="-143.9" font-family="Arial" font-size="14.00" fill="#666666">[integer]</text>
</g>
<!-- serial.subscription&#45;&gt;actor.org_unit -->
<g id="edge5" class="edge">
<title>serial.subscription:owning_lib&#45;&gt;actor.org_unit:id</title>
<path fill="none" stroke="#000000" d="M886.9263,-907.2071C717.4164,-896.9412 972.3834,-620.1236 978,-601 989.7103,-561.1285 1019.5556,-507.5 978,-507.5"/>
<polygon fill="#000000" stroke="#000000" points="887.0042,-907.2093 896.8692,-911.9981 892.0021,-907.3546 897,-907.5 897,-907.5 897,-907.5 892.0021,-907.3546 897.1308,-903.0019 887.0042,-907.2093 887.0042,-907.2093"/>
<text text-anchor="start" x="329.706" y="-917.5" font-family="Arial" font-size="10.00" fill="#000000">FOREIGN KEY (owning_lib) REFERENCES actor.org_unit(id) ON DELETE SET NULL DEFERRABLE INITIALLY DEFERRED</text>
</g>
<!-- biblio.record_entry -->
<g id="node7" class="node">
<title>biblio.record_entry</title>
<polygon fill="#efefef" stroke="transparent" points="1082,-612.5 1082,-647.5 1371,-647.5 1371,-612.5 1082,-612.5"/>
<polygon fill="none" stroke="#000000" points="1082,-612.5 1082,-647.5 1371,-647.5 1371,-612.5 1082,-612.5"/>
<text text-anchor="start" x="1088.7063" y="-625.3" font-family="Arial Bold" font-size="18.00" fill="#000000">biblio.record_entry</text>
<text text-anchor="start" x="1236.7257" y="-625.3" font-family="Arial" font-size="14.00" fill="#000000">    </text>
<text text-anchor="start" x="1270.9305" y="-625.3" font-family="Arial" font-size="14.00" fill="#666666">[BASE TABLE]</text>
<polygon fill="none" stroke="#000000" points="1082,-582.5 1082,-612.5 1371,-612.5 1371,-582.5 1082,-582.5"/>
<text text-anchor="start" x="1089" y="-593.9" font-family="Arial" font-size="14.00" fill="#000000">id    </text>
<text text-anchor="start" x="1134.094" y="-593.9" font-family="Arial" font-size="14.00" fill="#666666">[bigint]</text>
<polygon fill="none" stroke="#000000" points="1082,-552.5 1082,-582.5 1371,-582.5 1371,-552.5 1082,-552.5"/>
<text text-anchor="start" x="1089" y="-563.9" font-family="Arial" font-size="14.00" fill="#000000">creator    </text>
<text text-anchor="start" x="1166.7644" y="-563.9" font-family="Arial" font-size="14.00" fill="#666666">[integer]</text>
<polygon fill="none" stroke="#000000" points="1082,-522.5 1082,-552.5 1371,-552.5 1371,-522.5 1082,-522.5"/>
<text text-anchor="start" x="1089" y="-533.9" font-family="Arial" font-size="14.00" fill="#000000">editor    </text>
<text text-anchor="start" x="1158.2104" y="-533.9" font-family="Arial" font-size="14.00" fill="#666666">[integer]</text>
<polygon fill="none" stroke="#000000" points="1082,-492.5 1082,-522.5 1371,-522.5 1371,-492.5 1082,-492.5"/>
<text text-anchor="start" x="1089" y="-503.9" font-family="Arial" font-size="14.00" fill="#000000">source    </text>
<text text-anchor="start" x="1165.2132" y="-503.9" font-family="Arial" font-size="14.00" fill="#666666">[integer]</text>
<polygon fill="none" stroke="#000000" points="1082,-462.5 1082,-492.5 1371,-492.5 1371,-462.5 1082,-462.5"/>
<text text-anchor="start" x="1089" y="-473.9" font-family="Arial" font-size="14.00" fill="#000000">quality    </text>
<text text-anchor="start" x="1163.6564" y="-473.9" font-family="Arial" font-size="14.00" fill="#666666">[integer]</text>
<polygon fill="none" stroke="#000000" points="1082,-432.5 1082,-462.5 1371,-462.5 1371,-432.5 1082,-432.5"/>
<text text-anchor="start" x="1089" y="-443.9" font-family="Arial" font-size="14.00" fill="#000000">create_date    </text>
<text text-anchor="start" x="1197.1248" y="-443.9" font-family="Arial" font-size="14.00" fill="#666666">[timestamp with time zone]</text>
<polygon fill="none" stroke="#000000" points="1082,-402.5 1082,-432.5 1371,-432.5 1371,-402.5 1082,-402.5"/>
<text text-anchor="start" x="1089" y="-413.9" font-family="Arial" font-size="14.00" fill="#000000">edit_date    </text>
<text text-anchor="start" x="1180.7882" y="-413.9" font-family="Arial" font-size="14.00" fill="#666666">[timestamp with time zone]</text>
<polygon fill="none" stroke="#000000" points="1082,-372.5 1082,-402.5 1371,-402.5 1371,-372.5 1082,-372.5"/>
<text text-anchor="start" x="1089" y="-383.9" font-family="Arial" font-size="14.00" fill="#000000">active    </text>
<text text-anchor="start" x="1159.7672" y="-383.9" font-family="Arial" font-size="14.00" fill="#666666">[boolean]</text>
<polygon fill="none" stroke="#000000" points="1082,-342.5 1082,-372.5 1371,-372.5 1371,-342.5 1082,-342.5"/>
<text text-anchor="start" x="1089" y="-353.9" font-family="Arial" font-size="14.00" fill="#000000">deleted    </text>
<text text-anchor="start" x="1169.115" y="-353.9" font-family="Arial" font-size="14.00" fill="#666666">[boolean]</text>
<polygon fill="none" stroke="#000000" points="1082,-312.5 1082,-342.5 1371,-342.5 1371,-312.5 1082,-312.5"/>
<text text-anchor="start" x="1089" y="-323.9" font-family="Arial" font-size="14.00" fill="#000000">fingerprint    </text>
<text text-anchor="start" x="1185.4334" y="-323.9" font-family="Arial" font-size="14.00" fill="#666666">[text]</text>
<polygon fill="none" stroke="#000000" points="1082,-282.5 1082,-312.5 1371,-312.5 1371,-282.5 1082,-282.5"/>
<text text-anchor="start" x="1089" y="-293.9" font-family="Arial" font-size="14.00" fill="#000000">tcn_source    </text>
<text text-anchor="start" x="1191.669" y="-293.9" font-family="Arial" font-size="14.00" fill="#666666">[text]</text>
<polygon fill="none" stroke="#000000" points="1082,-252.5 1082,-282.5 1371,-282.5 1371,-252.5 1082,-252.5"/>
<text text-anchor="start" x="1089" y="-263.9" font-family="Arial" font-size="14.00" fill="#000000">tcn_value    </text>
<text text-anchor="start" x="1183.115" y="-263.9" font-family="Arial" font-size="14.00" fill="#666666">[text]</text>
<polygon fill="none" stroke="#000000" points="1082,-222.5 1082,-252.5 1371,-252.5 1371,-222.5 1082,-222.5"/>
<text text-anchor="start" x="1089" y="-233.9" font-family="Arial" font-size="14.00" fill="#000000">marc    </text>
<text text-anchor="start" x="1154.3086" y="-233.9" font-family="Arial" font-size="14.00" fill="#666666">[text]</text>
<polygon fill="none" stroke="#000000" points="1082,-192.5 1082,-222.5 1371,-222.5 1371,-192.5 1082,-192.5"/>
<text text-anchor="start" x="1089" y="-203.9" font-family="Arial" font-size="14.00" fill="#000000">last_xact_id    </text>
<text text-anchor="start" x="1197.1122" y="-203.9" font-family="Arial" font-size="14.00" fill="#666666">[text]</text>
<polygon fill="none" stroke="#000000" points="1082,-162.5 1082,-192.5 1371,-192.5 1371,-162.5 1082,-162.5"/>
<text text-anchor="start" x="1089" y="-173.9" font-family="Arial" font-size="14.00" fill="#000000">vis_attr_vector    </text>
<text text-anchor="start" x="1214.2174" y="-173.9" font-family="Arial" font-size="14.00" fill="#666666">[integer[]]</text>
<polygon fill="none" stroke="#000000" points="1082,-132.5 1082,-162.5 1371,-162.5 1371,-132.5 1082,-132.5"/>
<text text-anchor="start" x="1089" y="-143.9" font-family="Arial" font-size="14.00" fill="#000000">owner    </text>
<text text-anchor="start" x="1161.3198" y="-143.9" font-family="Arial" font-size="14.00" fill="#666666">[integer]</text>
<polygon fill="none" stroke="#000000" points="1082,-102.5 1082,-132.5 1371,-132.5 1371,-102.5 1082,-102.5"/>
<text text-anchor="start" x="1089" y="-113.9" font-family="Arial" font-size="14.00" fill="#000000">share_depth    </text>
<text text-anchor="start" x="1201.0168" y="-113.9" font-family="Arial" font-size="14.00" fill="#666666">[integer]</text>
<polygon fill="none" stroke="#000000" points="1082,-72.5 1082,-102.5 1371,-102.5 1371,-72.5 1082,-72.5"/>
<text text-anchor="start" x="1089" y="-83.9" font-family="Arial" font-size="14.00" fill="#000000">merge_date    </text>
<text text-anchor="start" x="1197.8948" y="-83.9" font-family="Arial" font-size="14.00" fill="#666666">[timestamp with time zone]</text>
<polygon fill="none" stroke="#000000" points="1082,-42.5 1082,-72.5 1371,-72.5 1371,-42.5 1082,-42.5"/>
<text text-anchor="start" x="1089" y="-53.9" font-family="Arial" font-size="14.00" fill="#000000">merged_to    </text>
<text text-anchor="start" x="1190.1122" y="-53.9" font-family="Arial" font-size="14.00" fill="#666666">[bigint]</text>
</g>
<!-- serial.subscription&#45;&gt;biblio.record_entry -->
<g id="edge6" class="edge">
<title>serial.subscription:record_entry&#45;&gt;biblio.record_entry:id</title>
<path fill="none" stroke="#000000" d="M1192.1918,-815.9289C1218.826,-806.4869 1202.8697,-756.6939 1182,-727 1154.8383,-688.3535 1109.1617,-729.6465 1082,-691 1058.105,-657.0016 1040.4444,-597.5 1082,-597.5"/>
<polygon fill="#000000" stroke="#000000" points="1191.8833,-815.9764 1181.3144,-813.0525 1186.9416,-816.7382 1182,-817.5 1182,-817.5 1182,-817.5 1186.9416,-816.7382 1182.6856,-821.9475 1191.8833,-815.9764 1191.8833,-815.9764"/>
<text text-anchor="start" x="1188.708" y="-827.5" font-family="Arial" font-size="10.00" fill="#000000">FOREIGN KEY (record_entry) REFERENCES biblio.record_entry(id) ON DELETE SET NULL DEFERRABLE INITIALLY DEFERRED</text>
</g>
<!-- serial.caption_and_pattern -->
<g id="node2" class="node">
<title>serial.caption_and_pattern</title>
<polygon fill="#efefef" stroke="transparent" points="247,-1682.5 247,-1717.5 600,-1717.5 600,-1682.5 247,-1682.5"/>
<polygon fill="none" stroke="#000000" points="247,-1682.5 247,-1717.5 600,-1717.5 600,-1682.5 247,-1682.5"/>
<text text-anchor="start" x="253.6816" y="-1695.3" font-family="Arial Bold" font-size="18.00" fill="#000000">serial.caption_and_pattern</text>
<text text-anchor="start" x="465.7504" y="-1695.3" font-family="Arial" font-size="14.00" fill="#000000">    </text>
<text text-anchor="start" x="499.9552" y="-1695.3" font-family="Arial" font-size="14.00" fill="#666666">[BASE TABLE]</text>
<polygon fill="none" stroke="#000000" points="247,-1652.5 247,-1682.5 600,-1682.5 600,-1652.5 247,-1652.5"/>
<text text-anchor="start" x="254" y="-1663.9" font-family="Arial" font-size="14.00" fill="#000000">id    </text>
<text text-anchor="start" x="299.094" y="-1663.9" font-family="Arial" font-size="14.00" fill="#666666">[integer]</text>
<polygon fill="none" stroke="#000000" points="247,-1622.5 247,-1652.5 600,-1652.5 600,-1622.5 247,-1622.5"/>
<text text-anchor="start" x="254" y="-1633.9" font-family="Arial" font-size="14.00" fill="#000000">subscription    </text>
<text text-anchor="start" x="362.8822" y="-1633.9" font-family="Arial" font-size="14.00" fill="#666666">[integer]</text>
<polygon fill="none" stroke="#000000" points="247,-1592.5 247,-1622.5 600,-1622.5 600,-1592.5 247,-1592.5"/>
<text text-anchor="start" x="254" y="-1603.9" font-family="Arial" font-size="14.00" fill="#000000">type    </text>
<text text-anchor="start" x="314.6606" y="-1603.9" font-family="Arial" font-size="14.00" fill="#666666">[text]</text>
<polygon fill="none" stroke="#000000" points="247,-1562.5 247,-1592.5 600,-1592.5 600,-1562.5 247,-1562.5"/>
<text text-anchor="start" x="254" y="-1573.9" font-family="Arial" font-size="14.00" fill="#000000">create_date    </text>
<text text-anchor="start" x="362.1248" y="-1573.9" font-family="Arial" font-size="14.00" fill="#666666">[timestamp with time zone]</text>
<polygon fill="none" stroke="#000000" points="247,-1532.5 247,-1562.5 600,-1562.5 600,-1532.5 247,-1532.5"/>
<text text-anchor="start" x="254" y="-1543.9" font-family="Arial" font-size="14.00" fill="#000000">start_date    </text>
<text text-anchor="start" x="350.4502" y="-1543.9" font-family="Arial" font-size="14.00" fill="#666666">[timestamp with time zone]</text>
<polygon fill="none" stroke="#000000" points="247,-1502.5 247,-1532.5 600,-1532.5 600,-1502.5 247,-1502.5"/>
<text text-anchor="start" x="254" y="-1513.9" font-family="Arial" font-size="14.00" fill="#000000">end_date    </text>
<text text-anchor="start" x="346.5736" y="-1513.9" font-family="Arial" font-size="14.00" fill="#666666">[timestamp with time zone]</text>
<polygon fill="none" stroke="#000000" points="247,-1472.5 247,-1502.5 600,-1502.5 600,-1472.5 247,-1472.5"/>
<text text-anchor="start" x="254" y="-1483.9" font-family="Arial" font-size="14.00" fill="#000000">active    </text>
<text text-anchor="start" x="324.7672" y="-1483.9" font-family="Arial" font-size="14.00" fill="#666666">[boolean]</text>
<polygon fill="none" stroke="#000000" points="247,-1442.5 247,-1472.5 600,-1472.5 600,-1442.5 247,-1442.5"/>
<text text-anchor="start" x="254" y="-1453.9" font-family="Arial" font-size="14.00" fill="#000000">pattern_code    </text>
<text text-anchor="start" x="369.9074" y="-1453.9" font-family="Arial" font-size="14.00" fill="#666666">[text]</text>
<polygon fill="none" stroke="#000000" points="247,-1412.5 247,-1442.5 600,-1442.5 600,-1412.5 247,-1412.5"/>
<text text-anchor="start" x="254" y="-1423.9" font-family="Arial" font-size="14.00" fill="#000000">enum_1    </text>
<text text-anchor="start" x="338.7784" y="-1423.9" font-family="Arial" font-size="14.00" fill="#666666">[text]</text>
<polygon fill="none" stroke="#000000" points="247,-1382.5 247,-1412.5 600,-1412.5 600,-1382.5 247,-1382.5"/>
<text text-anchor="start" x="254" y="-1393.9" font-family="Arial" font-size="14.00" fill="#000000">enum_2    </text>
<text text-anchor="start" x="338.7784" y="-1393.9" font-family="Arial" font-size="14.00" fill="#666666">[text]</text>
<polygon fill="none" stroke="#000000" points="247,-1352.5 247,-1382.5 600,-1382.5 600,-1352.5 247,-1352.5"/>
<text text-anchor="start" x="254" y="-1363.9" font-family="Arial" font-size="14.00" fill="#000000">enum_3    </text>
<text text-anchor="start" x="338.7784" y="-1363.9" font-family="Arial" font-size="14.00" fill="#666666">[text]</text>
<polygon fill="none" stroke="#000000" points="247,-1322.5 247,-1352.5 600,-1352.5 600,-1322.5 247,-1322.5"/>
<text text-anchor="start" x="254" y="-1333.9" font-family="Arial" font-size="14.00" fill="#000000">enum_4    </text>
<text text-anchor="start" x="338.7784" y="-1333.9" font-family="Arial" font-size="14.00" fill="#666666">[text]</text>
<polygon fill="none" stroke="#000000" points="247,-1292.5 247,-1322.5 600,-1322.5 600,-1292.5 247,-1292.5"/>
<text text-anchor="start" x="254" y="-1303.9" font-family="Arial" font-size="14.00" fill="#000000">enum_5    </text>
<text text-anchor="start" x="338.7784" y="-1303.9" font-family="Arial" font-size="14.00" fill="#666666">[text]</text>
<polygon fill="none" stroke="#000000" points="247,-1262.5 247,-1292.5 600,-1292.5 600,-1262.5 247,-1262.5"/>
<text text-anchor="start" x="254" y="-1273.9" font-family="Arial" font-size="14.00" fill="#000000">enum_6    </text>
<text text-anchor="start" x="338.7784" y="-1273.9" font-family="Arial" font-size="14.00" fill="#666666">[text]</text>
<polygon fill="none" stroke="#000000" points="247,-1232.5 247,-1262.5 600,-1262.5 600,-1232.5 247,-1232.5"/>
<text text-anchor="start" x="254" y="-1243.9" font-family="Arial" font-size="14.00" fill="#000000">chron_1    </text>
<text text-anchor="start" x="338.7784" y="-1243.9" font-family="Arial" font-size="14.00" fill="#666666">[text]</text>
<polygon fill="none" stroke="#000000" points="247,-1202.5 247,-1232.5 600,-1232.5 600,-1202.5 247,-1202.5"/>
<text text-anchor="start" x="254" y="-1213.9" font-family="Arial" font-size="14.00" fill="#000000">chron_2    </text>
<text text-anchor="start" x="338.7784" y="-1213.9" font-family="Arial" font-size="14.00" fill="#666666">[text]</text>
<polygon fill="none" stroke="#000000" points="247,-1172.5 247,-1202.5 600,-1202.5 600,-1172.5 247,-1172.5"/>
<text text-anchor="start" x="254" y="-1183.9" font-family="Arial" font-size="14.00" fill="#000000">chron_3    </text>
<text text-anchor="start" x="338.7784" y="-1183.9" font-family="Arial" font-size="14.00" fill="#666666">[text]</text>
<polygon fill="none" stroke="#000000" points="247,-1142.5 247,-1172.5 600,-1172.5 600,-1142.5 247,-1142.5"/>
<text text-anchor="start" x="254" y="-1153.9" font-family="Arial" font-size="14.00" fill="#000000">chron_4    </text>
<text text-anchor="start" x="338.7784" y="-1153.9" font-family="Arial" font-size="14.00" fill="#666666">[text]</text>
<polygon fill="none" stroke="#000000" points="247,-1112.5 247,-1142.5 600,-1142.5 600,-1112.5 247,-1112.5"/>
<text text-anchor="start" x="254" y="-1123.9" font-family="Arial" font-size="14.00" fill="#000000">chron_5    </text>
<text text-anchor="start" x="338.7784" y="-1123.9" font-family="Arial" font-size="14.00" fill="#666666">[text]</text>
</g>
<!-- serial.caption_and_pattern&#45;&gt;serial.subscription -->
<g id="edge1" class="edge">
<title>serial.caption_and_pattern:subscription&#45;&gt;serial.subscription:id</title>
<path fill="none" stroke="#000000" d="M609.1317,-1633.3496C658.6735,-1584.505 618.9687,-1120.066 652,-1070 720.1728,-966.6697 773.2071,-937.5 897,-937.5"/>
<polygon fill="#000000" stroke="#000000" points="609.1038,-1633.3622 598.138,-1633.4033 604.5519,-1635.4311 600,-1637.5 600,-1637.5 600,-1637.5 604.5519,-1635.4311 601.862,-1641.5967 609.1038,-1633.3622 609.1038,-1633.3622"/>
<text text-anchor="start" x="6.936" y="-1647.5" font-family="Arial" font-size="10.00" fill="#000000">FOREIGN KEY (subscription) REFERENCES serial.subscription(id) ON DELETE CASCADE DEFERRABLE INITIALLY DEFERRED</text>
</g>
<!-- serial.distribution -->
<g id="node3" class="node">
<title>serial.distribution</title>
<polygon fill="#efefef" stroke="transparent" points="704,-1592.5 704,-1627.5 980,-1627.5 980,-1592.5 704,-1592.5"/>
<polygon fill="none" stroke="#000000" points="704,-1592.5 704,-1627.5 980,-1627.5 980,-1592.5 704,-1592.5"/>
<text text-anchor="start" x="710.7133" y="-1605.3" font-family="Arial Bold" font-size="18.00" fill="#000000">serial.distribution</text>
<text text-anchor="start" x="845.7187" y="-1605.3" font-family="Arial" font-size="14.00" fill="#000000">    </text>
<text text-anchor="start" x="879.9235" y="-1605.3" font-family="Arial" font-size="14.00" fill="#666666">[BASE TABLE]</text>
<polygon fill="none" stroke="#000000" points="704,-1562.5 704,-1592.5 980,-1592.5 980,-1562.5 704,-1562.5"/>
<text text-anchor="start" x="711" y="-1573.9" font-family="Arial" font-size="14.00" fill="#000000">id    </text>
<text text-anchor="start" x="756.094" y="-1573.9" font-family="Arial" font-size="14.00" fill="#666666">[integer]</text>
<polygon fill="none" stroke="#000000" points="704,-1532.5 704,-1562.5 980,-1562.5 980,-1532.5 704,-1532.5"/>
<text text-anchor="start" x="711" y="-1543.9" font-family="Arial" font-size="14.00" fill="#000000">record_entry    </text>
<text text-anchor="start" x="823.7728" y="-1543.9" font-family="Arial" font-size="14.00" fill="#666666">[bigint]</text>
<polygon fill="none" stroke="#000000" points="704,-1502.5 704,-1532.5 980,-1532.5 980,-1502.5 704,-1502.5"/>
<text text-anchor="start" x="711" y="-1513.9" font-family="Arial" font-size="14.00" fill="#000000">summary_method    </text>
<text text-anchor="start" x="857.216" y="-1513.9" font-family="Arial" font-size="14.00" fill="#666666">[text]</text>
<polygon fill="none" stroke="#000000" points="704,-1472.5 704,-1502.5 980,-1502.5 980,-1472.5 704,-1472.5"/>
<text text-anchor="start" x="711" y="-1483.9" font-family="Arial" font-size="14.00" fill="#000000">subscription    </text>
<text text-anchor="start" x="819.8822" y="-1483.9" font-family="Arial" font-size="14.00" fill="#666666">[integer]</text>
<polygon fill="none" stroke="#000000" points="704,-1442.5 704,-1472.5 980,-1472.5 980,-1442.5 704,-1442.5"/>
<text text-anchor="start" x="711" y="-1453.9" font-family="Arial" font-size="14.00" fill="#000000">holding_lib    </text>
<text text-anchor="start" x="812.1094" y="-1453.9" font-family="Arial" font-size="14.00" fill="#666666">[integer]</text>
<polygon fill="none" stroke="#000000" points="704,-1412.5 704,-1442.5 980,-1442.5 980,-1412.5 704,-1412.5"/>
<text text-anchor="start" x="711" y="-1423.9" font-family="Arial" font-size="14.00" fill="#000000">label    </text>
<text text-anchor="start" x="774.7658" y="-1423.9" font-family="Arial" font-size="14.00" fill="#666666">[text]</text>
<polygon fill="none" stroke="#000000" points="704,-1382.5 704,-1412.5 980,-1412.5 980,-1382.5 704,-1382.5"/>
<text text-anchor="start" x="711" y="-1393.9" font-family="Arial" font-size="14.00" fill="#000000">display_grouping    </text>
<text text-anchor="start" x="851.0112" y="-1393.9" font-family="Arial" font-size="14.00" fill="#666666">[text]</text>
<polygon fill="none" stroke="#000000" points="704,-1352.5 704,-1382.5 980,-1382.5 980,-1352.5 704,-1352.5"/>
<text text-anchor="start" x="711" y="-1363.9" font-family="Arial" font-size="14.00" fill="#000000">receive_call_number    </text>
<text text-anchor="start" x="874.3324" y="-1363.9" font-family="Arial" font-size="14.00" fill="#666666">[bigint]</text>
<polygon fill="none" stroke="#000000" points="704,-1322.5 704,-1352.5 980,-1352.5 980,-1322.5 704,-1322.5"/>
<text text-anchor="start" x="711" y="-1333.9" font-family="Arial" font-size="14.00" fill="#000000">receive_unit_template    </text>
<text text-anchor="start" x="882.1262" y="-1333.9" font-family="Arial" font-size="14.00" fill="#666666">[integer]</text>
<polygon fill="none" stroke="#000000" points="704,-1292.5 704,-1322.5 980,-1322.5 980,-1292.5 704,-1292.5"/>
<text text-anchor="start" x="711" y="-1303.9" font-family="Arial" font-size="14.00" fill="#000000">bind_call_number    </text>
<text text-anchor="start" x="855.6718" y="-1303.9" font-family="Arial" font-size="14.00" fill="#666666">[bigint]</text>
<polygon fill="none" stroke="#000000" points="704,-1262.5 704,-1292.5 980,-1292.5 980,-1262.5 704,-1262.5"/>
<text text-anchor="start" x="711" y="-1273.9" font-family="Arial" font-size="14.00" fill="#000000">bind_unit_template    </text>
<text text-anchor="start" x="863.4656" y="-1273.9" font-family="Arial" font-size="14.00" fill="#666666">[integer]</text>
<polygon fill="none" stroke="#000000" points="704,-1232.5 704,-1262.5 980,-1262.5 980,-1232.5 704,-1232.5"/>
<text text-anchor="start" x="711" y="-1243.9" font-family="Arial" font-size="14.00" fill="#000000">unit_label_prefix    </text>
<text text-anchor="start" x="847.1164" y="-1243.9" font-family="Arial" font-size="14.00" fill="#666666">[text]</text>
<polygon fill="none" stroke="#000000" points="704,-1202.5 704,-1232.5 980,-1232.5 980,-1202.5 704,-1202.5"/>
<text text-anchor="start" x="711" y="-1213.9" font-family="Arial" font-size="14.00" fill="#000000">unit_label_suffix    </text>
<text text-anchor="start" x="845.5638" y="-1213.9" font-family="Arial" font-size="14.00" fill="#666666">[text]</text>
</g>
<!-- serial.distribution&#45;&gt;serial.subscription -->
<g id="edge2" class="edge">
<title>serial.distribution:subscription&#45;&gt;serial.subscription:id</title>
<path fill="none" stroke="#000000" d="M990.1432,-1485.5641C1047.5886,-1461.8035 999.8365,-1226.1728 980,-1160 960.7447,-1095.7659 916.2553,-1098.2341 897,-1034 884.6847,-992.9173 854.1111,-937.5 897,-937.5"/>
<polygon fill="#000000" stroke="#000000" points="989.8227,-1485.6252 979.1563,-1483.0798 984.9113,-1486.5626 980,-1487.5 980,-1487.5 980,-1487.5 984.9113,-1486.5626 980.8437,-1491.9202 989.8227,-1485.6252 989.8227,-1485.6252"/>
<text text-anchor="start" x="986.936" y="-1497.5" font-family="Arial" font-size="10.00" fill="#000000">FOREIGN KEY (subscription) REFERENCES serial.subscription(id) ON DELETE CASCADE DEFERRABLE INITIALLY DEFERRED</text>
</g>
<!-- serial.issuance -->
<g id="node4" class="node">
<title>serial.issuance</title>
<polygon fill="#efefef" stroke="transparent" points="1084,-1577.5 1084,-1612.5 1392,-1612.5 1392,-1577.5 1084,-1577.5"/>
<polygon fill="none" stroke="#000000" points="1084,-1577.5 1084,-1612.5 1392,-1612.5 1392,-1577.5 1084,-1577.5"/>
<text text-anchor="start" x="1114.7089" y="-1590.3" font-family="Arial Bold" font-size="18.00" fill="#000000">serial.issuance</text>
<text text-anchor="start" x="1233.7231" y="-1590.3" font-family="Arial" font-size="14.00" fill="#000000">    </text>
<text text-anchor="start" x="1267.9279" y="-1590.3" font-family="Arial" font-size="14.00" fill="#666666">[BASE TABLE]</text>
<polygon fill="none" stroke="#000000" points="1084,-1547.5 1084,-1577.5 1392,-1577.5 1392,-1547.5 1084,-1547.5"/>
<text text-anchor="start" x="1091" y="-1558.9" font-family="Arial" font-size="14.00" fill="#000000">id    </text>
<text text-anchor="start" x="1136.094" y="-1558.9" font-family="Arial" font-size="14.00" fill="#666666">[integer]</text>
<polygon fill="none" stroke="#000000" points="1084,-1517.5 1084,-1547.5 1392,-1547.5 1392,-1517.5 1084,-1517.5"/>
<text text-anchor="start" x="1091" y="-1528.9" font-family="Arial" font-size="14.00" fill="#000000">creator    </text>
<text text-anchor="start" x="1168.7644" y="-1528.9" font-family="Arial" font-size="14.00" fill="#666666">[integer]</text>
<polygon fill="none" stroke="#000000" points="1084,-1487.5 1084,-1517.5 1392,-1517.5 1392,-1487.5 1084,-1487.5"/>
<text text-anchor="start" x="1091" y="-1498.9" font-family="Arial" font-size="14.00" fill="#000000">editor    </text>
<text text-anchor="start" x="1160.2104" y="-1498.9" font-family="Arial" font-size="14.00" fill="#666666">[integer]</text>
<polygon fill="none" stroke="#000000" points="1084,-1457.5 1084,-1487.5 1392,-1487.5 1392,-1457.5 1084,-1457.5"/>
<text text-anchor="start" x="1091" y="-1468.9" font-family="Arial" font-size="14.00" fill="#000000">create_date    </text>
<text text-anchor="start" x="1199.1248" y="-1468.9" font-family="Arial" font-size="14.00" fill="#666666">[timestamp with time zone]</text>
<polygon fill="none" stroke="#000000" points="1084,-1427.5 1084,-1457.5 1392,-1457.5 1392,-1427.5 1084,-1427.5"/>
<text text-anchor="start" x="1091" y="-1438.9" font-family="Arial" font-size="14.00" fill="#000000">edit_date    </text>
<text text-anchor="start" x="1182.7882" y="-1438.9" font-family="Arial" font-size="14.00" fill="#666666">[timestamp with time zone]</text>
<polygon fill="none" stroke="#000000" points="1084,-1397.5 1084,-1427.5 1392,-1427.5 1392,-1397.5 1084,-1397.5"/>
<text text-anchor="start" x="1091" y="-1408.9" font-family="Arial" font-size="14.00" fill="#000000">subscription    </text>
<text text-anchor="start" x="1199.8822" y="-1408.9" font-family="Arial" font-size="14.00" fill="#666666">[integer]</text>
<polygon fill="none" stroke="#000000" points="1084,-1367.5 1084,-1397.5 1392,-1397.5 1392,-1367.5 1084,-1367.5"/>
<text text-anchor="start" x="1091" y="-1378.9" font-family="Arial" font-size="14.00" fill="#000000">label    </text>
<text text-anchor="start" x="1154.7658" y="-1378.9" font-family="Arial" font-size="14.00" fill="#666666">[text]</text>
<polygon fill="none" stroke="#000000" points="1084,-1337.5 1084,-1367.5 1392,-1367.5 1392,-1337.5 1084,-1337.5"/>
<text text-anchor="start" x="1090.5905" y="-1348.9" font-family="Arial" font-size="14.00" fill="#000000">date_published    </text>
<text text-anchor="start" x="1219.7251" y="-1348.9" font-family="Arial" font-size="14.00" fill="#666666">[timestamp with time zone]</text>
<polygon fill="none" stroke="#000000" points="1084,-1307.5 1084,-1337.5 1392,-1337.5 1392,-1307.5 1084,-1307.5"/>
<text text-anchor="start" x="1091" y="-1318.9" font-family="Arial" font-size="14.00" fill="#000000">caption_and_pattern    </text>
<text text-anchor="start" x="1252.8176" y="-1318.9" font-family="Arial" font-size="14.00" fill="#666666">[integer]</text>
<polygon fill="none" stroke="#000000" points="1084,-1277.5 1084,-1307.5 1392,-1307.5 1392,-1277.5 1084,-1277.5"/>
<text text-anchor="start" x="1091" y="-1288.9" font-family="Arial" font-size="14.00" fill="#000000">holding_code    </text>
<text text-anchor="start" x="1208.4614" y="-1288.9" font-family="Arial" font-size="14.00" fill="#666666">[text]</text>
<polygon fill="none" stroke="#000000" points="1084,-1247.5 1084,-1277.5 1392,-1277.5 1392,-1247.5 1084,-1247.5"/>
<text text-anchor="start" x="1091" y="-1258.9" font-family="Arial" font-size="14.00" fill="#000000">holding_type    </text>
<text text-anchor="start" x="1204.5694" y="-1258.9" font-family="Arial" font-size="14.00" fill="#666666">[text]</text>
<polygon fill="none" stroke="#000000" points="1084,-1217.5 1084,-1247.5 1392,-1247.5 1392,-1217.5 1084,-1217.5"/>
<text text-anchor="start" x="1091" y="-1228.9" font-family="Arial" font-size="14.00" fill="#000000">holding_link_id    </text>
<text text-anchor="start" x="1217.7812" y="-1228.9" font-family="Arial" font-size="14.00" fill="#666666">[integer]</text>
</g>
<!-- serial.issuance&#45;&gt;serial.subscription -->
<g id="edge3" class="edge">
<title>serial.issuance:subscription&#45;&gt;serial.subscription:id</title>
<path fill="none" stroke="#000000" d="M1074.1601,-1409.8371C1036.3197,-1386.86 1069.3267,-1221.8215 1084,-1175 1106.8222,-1102.1759 1159.1778,-1106.8241 1182,-1034 1194.8258,-993.0738 1224.8889,-937.5 1182,-937.5"/>
<polygon fill="#000000" stroke="#000000" points="1074.3472,-1409.8876 1082.8244,-1416.8437 1079.1736,-1411.1938 1084,-1412.5 1084,-1412.5 1084,-1412.5 1079.1736,-1411.1938 1085.1756,-1408.1563 1074.3472,-1409.8876 1074.3472,-1409.8876"/>
<text text-anchor="start" x="1090.936" y="-1422.5" font-family="Arial" font-size="10.00" fill="#000000">FOREIGN KEY (subscription) REFERENCES serial.subscription(id) ON DELETE CASCADE DEFERRABLE INITIALLY DEFERRED</text>
</g>
<!-- serial.subscription_note -->
<g id="node5" class="node">
<title>serial.subscription_note</title>
<polygon fill="#efefef" stroke="transparent" points="1496,-1517.5 1496,-1552.5 1826,-1552.5 1826,-1517.5 1496,-1517.5"/>
<polygon fill="none" stroke="#000000" points="1496,-1517.5 1496,-1552.5 1826,-1552.5 1826,-1517.5 1496,-1517.5"/>
<text text-anchor="start" x="1502.698" y="-1530.3" font-family="Arial Bold" font-size="18.00" fill="#000000">serial.subscription_note</text>
<text text-anchor="start" x="1691.734" y="-1530.3" font-family="Arial" font-size="14.00" fill="#000000">    </text>
<text text-anchor="start" x="1725.9388" y="-1530.3" font-family="Arial" font-size="14.00" fill="#666666">[BASE TABLE]</text>
<polygon fill="none" stroke="#000000" points="1496,-1487.5 1496,-1517.5 1826,-1517.5 1826,-1487.5 1496,-1487.5"/>
<text text-anchor="start" x="1503" y="-1498.9" font-family="Arial" font-size="14.00" fill="#000000">id    </text>
<text text-anchor="start" x="1548.094" y="-1498.9" font-family="Arial" font-size="14.00" fill="#666666">[integer]</text>
<polygon fill="none" stroke="#000000" points="1496,-1457.5 1496,-1487.5 1826,-1487.5 1826,-1457.5 1496,-1457.5"/>
<text text-anchor="start" x="1503" y="-1468.9" font-family="Arial" font-size="14.00" fill="#000000">subscription    </text>
<text text-anchor="start" x="1611.8822" y="-1468.9" font-family="Arial" font-size="14.00" fill="#666666">[integer]</text>
<polygon fill="none" stroke="#000000" points="1496,-1427.5 1496,-1457.5 1826,-1457.5 1826,-1427.5 1496,-1427.5"/>
<text text-anchor="start" x="1503" y="-1438.9" font-family="Arial" font-size="14.00" fill="#000000">creator    </text>
<text text-anchor="start" x="1580.7644" y="-1438.9" font-family="Arial" font-size="14.00" fill="#666666">[integer]</text>
<polygon fill="none" stroke="#000000" points="1496,-1397.5 1496,-1427.5 1826,-1427.5 1826,-1397.5 1496,-1397.5"/>
<text text-anchor="start" x="1503" y="-1408.9" font-family="Arial" font-size="14.00" fill="#000000">create_date    </text>
<text text-anchor="start" x="1611.1248" y="-1408.9" font-family="Arial" font-size="14.00" fill="#666666">[timestamp with time zone]</text>
<polygon fill="none" stroke="#000000" points="1496,-1367.5 1496,-1397.5 1826,-1397.5 1826,-1367.5 1496,-1367.5"/>
<text text-anchor="start" x="1503" y="-1378.9" font-family="Arial" font-size="14.00" fill="#000000">pub    </text>
<text text-anchor="start" x="1560.5526" y="-1378.9" font-family="Arial" font-size="14.00" fill="#666666">[boolean]</text>
<polygon fill="none" stroke="#000000" points="1496,-1337.5 1496,-1367.5 1826,-1367.5 1826,-1337.5 1496,-1337.5"/>
<text text-anchor="start" x="1503" y="-1348.9" font-family="Arial" font-size="14.00" fill="#000000">alert    </text>
<text text-anchor="start" x="1564.4278" y="-1348.9" font-family="Arial" font-size="14.00" fill="#666666">[boolean]</text>
<polygon fill="none" stroke="#000000" points="1496,-1307.5 1496,-1337.5 1826,-1337.5 1826,-1307.5 1496,-1307.5"/>
<text text-anchor="start" x="1503" y="-1318.9" font-family="Arial" font-size="14.00" fill="#000000">title    </text>
<text text-anchor="start" x="1558.9818" y="-1318.9" font-family="Arial" font-size="14.00" fill="#666666">[text]</text>
<polygon fill="none" stroke="#000000" points="1496,-1277.5 1496,-1307.5 1826,-1307.5 1826,-1277.5 1496,-1277.5"/>
<text text-anchor="start" x="1503" y="-1288.9" font-family="Arial" font-size="14.00" fill="#000000">value    </text>
<text text-anchor="start" x="1570.6592" y="-1288.9" font-family="Arial" font-size="14.00" fill="#666666">[text]</text>
</g>
<!-- serial.subscription_note&#45;&gt;serial.subscription -->
<g id="edge4" class="edge">
<title>serial.subscription_note:subscription&#45;&gt;serial.subscription:id</title>
<path fill="none" stroke="#000000" d="M1485.7911,-1470.8806C1412.977,-1445.9522 1493.9378,-1140.6152 1444,-1070 1368.6572,-963.4605 1312.4884,-937.5 1182,-937.5"/>
<polygon fill="#000000" stroke="#000000" points="1486.1235,-1470.9332 1495.2949,-1476.9444 1491.0617,-1471.7166 1496,-1472.5 1496,-1472.5 1496,-1472.5 1491.0617,-1471.7166 1496.7051,-1468.0556 1486.1235,-1470.9332 1486.1235,-1470.9332"/>
<text text-anchor="start" x="1502.936" y="-1456.5" font-family="Arial" font-size="10.00" fill="#000000">FOREIGN KEY (subscription) REFERENCES serial.subscription(id) ON DELETE CASCADE DEFERRABLE INITIALLY DEFERRED</text>
</g>
</g>
</svg>
