<?xml version="1.0" encoding="UTF-8" standalone="no"?>
<!DOCTYPE svg PUBLIC "-//W3C//DTD SVG 1.1//EN"
 "http://www.w3.org/Graphics/SVG/1.1/DTD/svg11.dtd">
<!-- Generated by graphviz version 2.40.1 (20161225.0304)
 -->
<!-- Title: serial.caption_and_pattern Pages: 1 -->
<svg width="1059pt" height="1559pt"
 viewBox="0.00 0.00 1058.50 1559.00" xmlns="http://www.w3.org/2000/svg" xmlns:xlink="http://www.w3.org/1999/xlink">
<g id="graph0" class="graph" transform="scale(1 1) rotate(0) translate(4 1555)">
<title>serial.caption_and_pattern</title>
<polygon fill="#ffffff" stroke="transparent" points="-4,4 -4,-1555 1054.5,-1555 1054.5,4 -4,4"/>
<!-- serial.caption_and_pattern -->
<g id="node1" class="node">
<title>serial.caption_and_pattern</title>
<polygon fill="#efefef" stroke="transparent" points="652,-952.5 652,-987.5 1005,-987.5 1005,-952.5 652,-952.5"/>
<polygon fill="none" stroke="#000000" points="652,-952.5 652,-987.5 1005,-987.5 1005,-952.5 652,-952.5"/>
<text text-anchor="start" x="658.6816" y="-965.3" font-family="Arial Bold" font-size="18.00" fill="#000000">serial.caption_and_pattern</text>
<text text-anchor="start" x="870.7504" y="-965.3" font-family="Arial" font-size="14.00" fill="#000000">    </text>
<text text-anchor="start" x="904.9552" y="-965.3" font-family="Arial" font-size="14.00" fill="#666666">[BASE TABLE]</text>
<polygon fill="none" stroke="#000000" points="652,-922.5 652,-952.5 1005,-952.5 1005,-922.5 652,-922.5"/>
<text text-anchor="start" x="659" y="-933.9" font-family="Arial" font-size="14.00" fill="#000000">id </text>
<text text-anchor="start" x="673.7798" y="-933.9" font-family="Arial" font-size="14.00" fill="#666666">[integer]</text>
<polygon fill="none" stroke="#000000" points="652,-892.5 652,-922.5 1005,-922.5 1005,-892.5 652,-892.5"/>
<text text-anchor="start" x="659" y="-903.9" font-family="Arial" font-size="14.00" fill="#000000">subscription </text>
<text text-anchor="start" x="737.568" y="-903.9" font-family="Arial" font-size="14.00" fill="#666666">[integer]</text>
<polygon fill="none" stroke="#000000" points="652,-862.5 652,-892.5 1005,-892.5 1005,-862.5 652,-862.5"/>
<text text-anchor="start" x="659" y="-873.9" font-family="Arial" font-size="14.00" fill="#000000">type </text>
<text text-anchor="start" x="689.3464" y="-873.9" font-family="Arial" font-size="14.00" fill="#666666">[text]</text>
<polygon fill="none" stroke="#000000" points="652,-832.5 652,-862.5 1005,-862.5 1005,-832.5 652,-832.5"/>
<text text-anchor="start" x="659" y="-843.9" font-family="Arial" font-size="14.00" fill="#000000">create_date </text>
<text text-anchor="start" x="736.8106" y="-843.9" font-family="Arial" font-size="14.00" fill="#666666">[timestamp with time zone]</text>
<polygon fill="none" stroke="#000000" points="652,-802.5 652,-832.5 1005,-832.5 1005,-802.5 652,-802.5"/>
<text text-anchor="start" x="659" y="-813.9" font-family="Arial" font-size="14.00" fill="#000000">start_date </text>
<text text-anchor="start" x="725.136" y="-813.9" font-family="Arial" font-size="14.00" fill="#666666">[timestamp with time zone]</text>
<polygon fill="none" stroke="#000000" points="652,-772.5 652,-802.5 1005,-802.5 1005,-772.5 652,-772.5"/>
<text text-anchor="start" x="659" y="-783.9" font-family="Arial" font-size="14.00" fill="#000000">end_date </text>
<text text-anchor="start" x="721.2594" y="-783.9" font-family="Arial" font-size="14.00" fill="#666666">[timestamp with time zone]</text>
<polygon fill="none" stroke="#000000" points="652,-742.5 652,-772.5 1005,-772.5 1005,-742.5 652,-742.5"/>
<text text-anchor="start" x="659" y="-753.9" font-family="Arial" font-size="14.00" fill="#000000">active </text>
<text text-anchor="start" x="699.453" y="-753.9" font-family="Arial" font-size="14.00" fill="#666666">[boolean]</text>
<polygon fill="none" stroke="#000000" points="652,-712.5 652,-742.5 1005,-742.5 1005,-712.5 652,-712.5"/>
<text text-anchor="start" x="659" y="-723.9" font-family="Arial" font-size="14.00" fill="#000000">pattern_code </text>
<text text-anchor="start" x="744.5932" y="-723.9" font-family="Arial" font-size="14.00" fill="#666666">[text]</text>
<polygon fill="none" stroke="#000000" points="652,-682.5 652,-712.5 1005,-712.5 1005,-682.5 652,-682.5"/>
<text text-anchor="start" x="659" y="-693.9" font-family="Arial" font-size="14.00" fill="#000000">enum_1 </text>
<text text-anchor="start" x="713.4642" y="-693.9" font-family="Arial" font-size="14.00" fill="#666666">[text]</text>
<polygon fill="none" stroke="#000000" points="652,-652.5 652,-682.5 1005,-682.5 1005,-652.5 652,-652.5"/>
<text text-anchor="start" x="659" y="-663.9" font-family="Arial" font-size="14.00" fill="#000000">enum_2 </text>
<text text-anchor="start" x="713.4642" y="-663.9" font-family="Arial" font-size="14.00" fill="#666666">[text]</text>
<polygon fill="none" stroke="#000000" points="652,-622.5 652,-652.5 1005,-652.5 1005,-622.5 652,-622.5"/>
<text text-anchor="start" x="659" y="-633.9" font-family="Arial" font-size="14.00" fill="#000000">enum_3 </text>
<text text-anchor="start" x="713.4642" y="-633.9" font-family="Arial" font-size="14.00" fill="#666666">[text]</text>
<polygon fill="none" stroke="#000000" points="652,-592.5 652,-622.5 1005,-622.5 1005,-592.5 652,-592.5"/>
<text text-anchor="start" x="659" y="-603.9" font-family="Arial" font-size="14.00" fill="#000000">enum_4 </text>
<text text-anchor="start" x="713.4642" y="-603.9" font-family="Arial" font-size="14.00" fill="#666666">[text]</text>
<polygon fill="none" stroke="#000000" points="652,-562.5 652,-592.5 1005,-592.5 1005,-562.5 652,-562.5"/>
<text text-anchor="start" x="659" y="-573.9" font-family="Arial" font-size="14.00" fill="#000000">enum_5 </text>
<text text-anchor="start" x="713.4642" y="-573.9" font-family="Arial" font-size="14.00" fill="#666666">[text]</text>
<polygon fill="none" stroke="#000000" points="652,-532.5 652,-562.5 1005,-562.5 1005,-532.5 652,-532.5"/>
<text text-anchor="start" x="659" y="-543.9" font-family="Arial" font-size="14.00" fill="#000000">enum_6 </text>
<text text-anchor="start" x="713.4642" y="-543.9" font-family="Arial" font-size="14.00" fill="#666666">[text]</text>
<polygon fill="none" stroke="#000000" points="652,-502.5 652,-532.5 1005,-532.5 1005,-502.5 652,-502.5"/>
<text text-anchor="start" x="659" y="-513.9" font-family="Arial" font-size="14.00" fill="#000000">chron_1 </text>
<text text-anchor="start" x="713.4642" y="-513.9" font-family="Arial" font-size="14.00" fill="#666666">[text]</text>
<polygon fill="none" stroke="#000000" points="652,-472.5 652,-502.5 1005,-502.5 1005,-472.5 652,-472.5"/>
<text text-anchor="start" x="659" y="-483.9" font-family="Arial" font-size="14.00" fill="#000000">chron_2 </text>
<text text-anchor="start" x="713.4642" y="-483.9" font-family="Arial" font-size="14.00" fill="#666666">[text]</text>
<polygon fill="none" stroke="#000000" points="652,-442.5 652,-472.5 1005,-472.5 1005,-442.5 652,-442.5"/>
<text text-anchor="start" x="659" y="-453.9" font-family="Arial" font-size="14.00" fill="#000000">chron_3 </text>
<text text-anchor="start" x="713.4642" y="-453.9" font-family="Arial" font-size="14.00" fill="#666666">[text]</text>
<polygon fill="none" stroke="#000000" points="652,-412.5 652,-442.5 1005,-442.5 1005,-412.5 652,-412.5"/>
<text text-anchor="start" x="659" y="-423.9" font-family="Arial" font-size="14.00" fill="#000000">chron_4 </text>
<text text-anchor="start" x="713.4642" y="-423.9" font-family="Arial" font-size="14.00" fill="#666666">[text]</text>
<polygon fill="none" stroke="#000000" points="652,-382.5 652,-412.5 1005,-412.5 1005,-382.5 652,-382.5"/>
<text text-anchor="start" x="659" y="-393.9" font-family="Arial" font-size="14.00" fill="#000000">chron_5 </text>
<text text-anchor="start" x="713.4642" y="-393.9" font-family="Arial" font-size="14.00" fill="#666666">[text]</text>
<polygon fill="none" stroke="#000000" stroke-width="3" points="650,-381.5 650,-989.5 1006,-989.5 1006,-381.5 650,-381.5"/>
</g>
<!-- serial.subscription -->
<g id="node3" class="node">
<title>serial.subscription</title>
<polygon fill="#efefef" stroke="transparent" points="686,-222.5 686,-257.5 971,-257.5 971,-222.5 686,-222.5"/>
<polygon fill="none" stroke="#000000" points="686,-222.5 686,-257.5 971,-257.5 971,-222.5 686,-222.5"/>
<text text-anchor="start" x="692.7115" y="-235.3" font-family="Arial Bold" font-size="18.00" fill="#000000">serial.subscription</text>
<text text-anchor="start" x="836.7205" y="-235.3" font-family="Arial" font-size="14.00" fill="#000000">    </text>
<text text-anchor="start" x="870.9253" y="-235.3" font-family="Arial" font-size="14.00" fill="#666666">[BASE TABLE]</text>
<polygon fill="none" stroke="#000000" points="686,-192.5 686,-222.5 971,-222.5 971,-192.5 686,-192.5"/>
<text text-anchor="start" x="693" y="-203.9" font-family="Arial" font-size="14.00" fill="#000000">id    </text>
<text text-anchor="start" x="738.094" y="-203.9" font-family="Arial" font-size="14.00" fill="#666666">[integer]</text>
<polygon fill="none" stroke="#000000" points="686,-162.5 686,-192.5 971,-192.5 971,-162.5 686,-162.5"/>
<text text-anchor="start" x="693" y="-173.9" font-family="Arial" font-size="14.00" fill="#000000">owning_lib    </text>
<text text-anchor="start" x="793.3268" y="-173.9" font-family="Arial" font-size="14.00" fill="#666666">[integer]</text>
<polygon fill="none" stroke="#000000" points="686,-132.5 686,-162.5 971,-162.5 971,-132.5 686,-132.5"/>
<text text-anchor="start" x="693" y="-143.9" font-family="Arial" font-size="14.00" fill="#000000">start_date    </text>
<text text-anchor="start" x="789.4502" y="-143.9" font-family="Arial" font-size="14.00" fill="#666666">[timestamp with time zone]</text>
<polygon fill="none" stroke="#000000" points="686,-102.5 686,-132.5 971,-132.5 971,-102.5 686,-102.5"/>
<text text-anchor="start" x="693" y="-113.9" font-family="Arial" font-size="14.00" fill="#000000">end_date    </text>
<text text-anchor="start" x="785.5736" y="-113.9" font-family="Arial" font-size="14.00" fill="#666666">[timestamp with time zone]</text>
<polygon fill="none" stroke="#000000" points="686,-72.5 686,-102.5 971,-102.5 971,-72.5 686,-72.5"/>
<text text-anchor="start" x="693" y="-83.9" font-family="Arial" font-size="14.00" fill="#000000">record_entry    </text>
<text text-anchor="start" x="805.7728" y="-83.9" font-family="Arial" font-size="14.00" fill="#666666">[bigint]</text>
<polygon fill="none" stroke="#000000" points="686,-42.5 686,-72.5 971,-72.5 971,-42.5 686,-42.5"/>
<text text-anchor="start" x="693" y="-53.9" font-family="Arial" font-size="14.00" fill="#000000">expected_date_offset    </text>
<text text-anchor="start" x="861.049" y="-53.9" font-family="Arial" font-size="14.00" fill="#666666">[interval]</text>
</g>
<!-- serial.caption_and_pattern&#45;&gt;serial.subscription -->
<g id="edge2" class="edge">
<title>serial.caption_and_pattern:subscription&#45;&gt;serial.subscription:id</title>
<path fill="none" stroke="#000000" d="M642.5764,-903.7338C577.1334,-848.6362 611.4765,-207.5 686,-207.5"/>
<polygon fill="#000000" stroke="#000000" points="642.7141,-903.7888 650.33,-911.6786 647.3571,-905.6444 652,-907.5 652,-907.5 652,-907.5 647.3571,-905.6444 653.67,-903.3214 642.7141,-903.7888 642.7141,-903.7888"/>
<text text-anchor="start" x="58.936" y="-917.5" font-family="Arial" font-size="10.00" fill="#000000">FOREIGN KEY (subscription) REFERENCES serial.subscription(id) ON DELETE CASCADE DEFERRABLE INITIALLY DEFERRED</text>
</g>
<!-- serial.issuance -->
<g id="node2" class="node">
<title>serial.issuance</title>
<polygon fill="#efefef" stroke="transparent" points="675,-1472.5 675,-1507.5 983,-1507.5 983,-1472.5 675,-1472.5"/>
<polygon fill="none" stroke="#000000" points="675,-1472.5 675,-1507.5 983,-1507.5 983,-1472.5 675,-1472.5"/>
<text text-anchor="start" x="705.7089" y="-1485.3" font-family="Arial Bold" font-size="18.00" fill="#000000">serial.issuance</text>
<text text-anchor="start" x="824.7231" y="-1485.3" font-family="Arial" font-size="14.00" fill="#000000">    </text>
<text text-anchor="start" x="858.9279" y="-1485.3" font-family="Arial" font-size="14.00" fill="#666666">[BASE TABLE]</text>
<polygon fill="none" stroke="#000000" points="675,-1442.5 675,-1472.5 983,-1472.5 983,-1442.5 675,-1442.5"/>
<text text-anchor="start" x="682" y="-1453.9" font-family="Arial" font-size="14.00" fill="#000000">id    </text>
<text text-anchor="start" x="727.094" y="-1453.9" font-family="Arial" font-size="14.00" fill="#666666">[integer]</text>
<polygon fill="none" stroke="#000000" points="675,-1412.5 675,-1442.5 983,-1442.5 983,-1412.5 675,-1412.5"/>
<text text-anchor="start" x="682" y="-1423.9" font-family="Arial" font-size="14.00" fill="#000000">creator    </text>
<text text-anchor="start" x="759.7644" y="-1423.9" font-family="Arial" font-size="14.00" fill="#666666">[integer]</text>
<polygon fill="none" stroke="#000000" points="675,-1382.5 675,-1412.5 983,-1412.5 983,-1382.5 675,-1382.5"/>
<text text-anchor="start" x="682" y="-1393.9" font-family="Arial" font-size="14.00" fill="#000000">editor    </text>
<text text-anchor="start" x="751.2104" y="-1393.9" font-family="Arial" font-size="14.00" fill="#666666">[integer]</text>
<polygon fill="none" stroke="#000000" points="675,-1352.5 675,-1382.5 983,-1382.5 983,-1352.5 675,-1352.5"/>
<text text-anchor="start" x="682" y="-1363.9" font-family="Arial" font-size="14.00" fill="#000000">create_date    </text>
<text text-anchor="start" x="790.1248" y="-1363.9" font-family="Arial" font-size="14.00" fill="#666666">[timestamp with time zone]</text>
<polygon fill="none" stroke="#000000" points="675,-1322.5 675,-1352.5 983,-1352.5 983,-1322.5 675,-1322.5"/>
<text text-anchor="start" x="682" y="-1333.9" font-family="Arial" font-size="14.00" fill="#000000">edit_date    </text>
<text text-anchor="start" x="773.7882" y="-1333.9" font-family="Arial" font-size="14.00" fill="#666666">[timestamp with time zone]</text>
<polygon fill="none" stroke="#000000" points="675,-1292.5 675,-1322.5 983,-1322.5 983,-1292.5 675,-1292.5"/>
<text text-anchor="start" x="682" y="-1303.9" font-family="Arial" font-size="14.00" fill="#000000">subscription    </text>
<text text-anchor="start" x="790.8822" y="-1303.9" font-family="Arial" font-size="14.00" fill="#666666">[integer]</text>
<polygon fill="none" stroke="#000000" points="675,-1262.5 675,-1292.5 983,-1292.5 983,-1262.5 675,-1262.5"/>
<text text-anchor="start" x="682" y="-1273.9" font-family="Arial" font-size="14.00" fill="#000000">label    </text>
<text text-anchor="start" x="745.7658" y="-1273.9" font-family="Arial" font-size="14.00" fill="#666666">[text]</text>
<polygon fill="none" stroke="#000000" points="675,-1232.5 675,-1262.5 983,-1262.5 983,-1232.5 675,-1232.5"/>
<text text-anchor="start" x="681.5905" y="-1243.9" font-family="Arial" font-size="14.00" fill="#000000">date_published    </text>
<text text-anchor="start" x="810.7251" y="-1243.9" font-family="Arial" font-size="14.00" fill="#666666">[timestamp with time zone]</text>
<polygon fill="none" stroke="#000000" points="675,-1202.5 675,-1232.5 983,-1232.5 983,-1202.5 675,-1202.5"/>
<text text-anchor="start" x="682" y="-1213.9" font-family="Arial" font-size="14.00" fill="#000000">caption_and_pattern    </text>
<text text-anchor="start" x="843.8176" y="-1213.9" font-family="Arial" font-size="14.00" fill="#666666">[integer]</text>
<polygon fill="none" stroke="#000000" points="675,-1172.5 675,-1202.5 983,-1202.5 983,-1172.5 675,-1172.5"/>
<text text-anchor="start" x="682" y="-1183.9" font-family="Arial" font-size="14.00" fill="#000000">holding_code    </text>
<text text-anchor="start" x="799.4614" y="-1183.9" font-family="Arial" font-size="14.00" fill="#666666">[text]</text>
<polygon fill="none" stroke="#000000" points="675,-1142.5 675,-1172.5 983,-1172.5 983,-1142.5 675,-1142.5"/>
<text text-anchor="start" x="682" y="-1153.9" font-family="Arial" font-size="14.00" fill="#000000">holding_type    </text>
<text text-anchor="start" x="795.5694" y="-1153.9" font-family="Arial" font-size="14.00" fill="#666666">[text]</text>
<polygon fill="none" stroke="#000000" points="675,-1112.5 675,-1142.5 983,-1142.5 983,-1112.5 675,-1112.5"/>
<text text-anchor="start" x="682" y="-1123.9" font-family="Arial" font-size="14.00" fill="#000000">holding_link_id    </text>
<text text-anchor="start" x="808.7812" y="-1123.9" font-family="Arial" font-size="14.00" fill="#666666">[integer]</text>
</g>
<!-- serial.issuance&#45;&gt;serial.caption_and_pattern -->
<g id="edge1" class="edge">
<title>serial.issuance:caption_and_pattern&#45;&gt;serial.caption_and_pattern:id</title>
<path fill="none" stroke="#000000" d="M665.0177,-1216.6388C611.8931,-1206.8543 633.6245,-1116.1347 675,-1070 724.2526,-1015.0822 955.7474,-1088.9178 1005,-1034 1033.6354,-1002.0708 1047.8889,-937.5 1005,-937.5"/>
<polygon fill="#000000" stroke="#000000" points="665.037,-1216.6404 674.6132,-1221.9833 670.0185,-1217.0702 675,-1217.5 675,-1217.5 675,-1217.5 670.0185,-1217.0702 675.3868,-1213.0167 665.037,-1216.6404 665.037,-1216.6404"/>
<text text-anchor="start" x="7.125" y="-1227.5" font-family="Arial" font-size="10.00" fill="#000000">FOREIGN KEY (caption_and_pattern) REFERENCES serial.caption_and_pattern(id) ON DELETE CASCADE DEFERRABLE INITIALLY DEFERRED</text>
</g>
</g>
</svg>
