<?xml version="1.0" encoding="UTF-8" standalone="no"?>
<!DOCTYPE svg PUBLIC "-//W3C//DTD SVG 1.1//EN"
 "http://www.w3.org/Graphics/SVG/1.1/DTD/svg11.dtd">
<!-- Generated by graphviz version 2.40.1 (20161225.0304)
 -->
<!-- Title: serial.distribution_note Pages: 1 -->
<svg width="1345pt" height="2002pt"
 viewBox="0.00 0.00 1345.00 2002.00" xmlns="http://www.w3.org/2000/svg" xmlns:xlink="http://www.w3.org/1999/xlink">
<g id="graph0" class="graph" transform="scale(1 1) rotate(0) translate(4 1998)">
<title>serial.distribution_note</title>
<polygon fill="#ffffff" stroke="transparent" points="-4,4 -4,-1998 1341,-1998 1341,4 -4,4"/>
<!-- serial.distribution_note -->
<g id="node1" class="node">
<title>serial.distribution_note</title>
<polygon fill="#efefef" stroke="transparent" points="590,-1912.5 590,-1947.5 911,-1947.5 911,-1912.5 590,-1912.5"/>
<polygon fill="none" stroke="#000000" points="590,-1912.5 590,-1947.5 911,-1947.5 911,-1912.5 590,-1912.5"/>
<text text-anchor="start" x="596.6998" y="-1925.3" font-family="Arial Bold" font-size="18.00" fill="#000000">serial.distribution_note</text>
<text text-anchor="start" x="776.7322" y="-1925.3" font-family="Arial" font-size="14.00" fill="#000000">    </text>
<text text-anchor="start" x="810.937" y="-1925.3" font-family="Arial" font-size="14.00" fill="#666666">[BASE TABLE]</text>
<polygon fill="none" stroke="#000000" points="590,-1882.5 590,-1912.5 911,-1912.5 911,-1882.5 590,-1882.5"/>
<text text-anchor="start" x="597" y="-1893.9" font-family="Arial" font-size="14.00" fill="#000000">id </text>
<text text-anchor="start" x="611.7798" y="-1893.9" font-family="Arial" font-size="14.00" fill="#666666">[integer]</text>
<polygon fill="none" stroke="#000000" points="590,-1852.5 590,-1882.5 911,-1882.5 911,-1852.5 590,-1852.5"/>
<text text-anchor="start" x="597" y="-1863.9" font-family="Arial" font-size="14.00" fill="#000000">distribution </text>
<text text-anchor="start" x="668.5652" y="-1863.9" font-family="Arial" font-size="14.00" fill="#666666">[integer]</text>
<polygon fill="none" stroke="#000000" points="590,-1822.5 590,-1852.5 911,-1852.5 911,-1822.5 590,-1822.5"/>
<text text-anchor="start" x="597" y="-1833.9" font-family="Arial" font-size="14.00" fill="#000000">creator </text>
<text text-anchor="start" x="644.4502" y="-1833.9" font-family="Arial" font-size="14.00" fill="#666666">[integer]</text>
<polygon fill="none" stroke="#000000" points="590,-1792.5 590,-1822.5 911,-1822.5 911,-1792.5 590,-1792.5"/>
<text text-anchor="start" x="597" y="-1803.9" font-family="Arial" font-size="14.00" fill="#000000">create_date </text>
<text text-anchor="start" x="674.8106" y="-1803.9" font-family="Arial" font-size="14.00" fill="#666666">[timestamp with time zone]</text>
<polygon fill="none" stroke="#000000" points="590,-1762.5 590,-1792.5 911,-1792.5 911,-1762.5 590,-1762.5"/>
<text text-anchor="start" x="597" y="-1773.9" font-family="Arial" font-size="14.00" fill="#000000">pub </text>
<text text-anchor="start" x="624.2384" y="-1773.9" font-family="Arial" font-size="14.00" fill="#666666">[boolean]</text>
<polygon fill="none" stroke="#000000" points="590,-1732.5 590,-1762.5 911,-1762.5 911,-1732.5 590,-1732.5"/>
<text text-anchor="start" x="597" y="-1743.9" font-family="Arial" font-size="14.00" fill="#000000">alert </text>
<text text-anchor="start" x="628.1136" y="-1743.9" font-family="Arial" font-size="14.00" fill="#666666">[boolean]</text>
<polygon fill="none" stroke="#000000" points="590,-1702.5 590,-1732.5 911,-1732.5 911,-1702.5 590,-1702.5"/>
<text text-anchor="start" x="597" y="-1713.9" font-family="Arial" font-size="14.00" fill="#000000">title </text>
<text text-anchor="start" x="622.6676" y="-1713.9" font-family="Arial" font-size="14.00" fill="#666666">[text]</text>
<polygon fill="none" stroke="#000000" points="590,-1672.5 590,-1702.5 911,-1702.5 911,-1672.5 590,-1672.5"/>
<text text-anchor="start" x="597" y="-1683.9" font-family="Arial" font-size="14.00" fill="#000000">value </text>
<text text-anchor="start" x="634.345" y="-1683.9" font-family="Arial" font-size="14.00" fill="#666666">[text]</text>
<polygon fill="none" stroke="#000000" stroke-width="3" points="588,-1671.5 588,-1949.5 912,-1949.5 912,-1671.5 588,-1671.5"/>
</g>
<!-- serial.distribution -->
<g id="node2" class="node">
<title>serial.distribution</title>
<polygon fill="#efefef" stroke="transparent" points="412,-972.5 412,-1007.5 688,-1007.5 688,-972.5 412,-972.5"/>
<polygon fill="none" stroke="#000000" points="412,-972.5 412,-1007.5 688,-1007.5 688,-972.5 412,-972.5"/>
<text text-anchor="start" x="418.7133" y="-985.3" font-family="Arial Bold" font-size="18.00" fill="#000000">serial.distribution</text>
<text text-anchor="start" x="553.7187" y="-985.3" font-family="Arial" font-size="14.00" fill="#000000">    </text>
<text text-anchor="start" x="587.9235" y="-985.3" font-family="Arial" font-size="14.00" fill="#666666">[BASE TABLE]</text>
<polygon fill="none" stroke="#000000" points="412,-942.5 412,-972.5 688,-972.5 688,-942.5 412,-942.5"/>
<text text-anchor="start" x="419" y="-953.9" font-family="Arial" font-size="14.00" fill="#000000">id    </text>
<text text-anchor="start" x="464.094" y="-953.9" font-family="Arial" font-size="14.00" fill="#666666">[integer]</text>
<polygon fill="none" stroke="#000000" points="412,-912.5 412,-942.5 688,-942.5 688,-912.5 412,-912.5"/>
<text text-anchor="start" x="419" y="-923.9" font-family="Arial" font-size="14.00" fill="#000000">record_entry    </text>
<text text-anchor="start" x="531.7728" y="-923.9" font-family="Arial" font-size="14.00" fill="#666666">[bigint]</text>
<polygon fill="none" stroke="#000000" points="412,-882.5 412,-912.5 688,-912.5 688,-882.5 412,-882.5"/>
<text text-anchor="start" x="419" y="-893.9" font-family="Arial" font-size="14.00" fill="#000000">summary_method    </text>
<text text-anchor="start" x="565.216" y="-893.9" font-family="Arial" font-size="14.00" fill="#666666">[text]</text>
<polygon fill="none" stroke="#000000" points="412,-852.5 412,-882.5 688,-882.5 688,-852.5 412,-852.5"/>
<text text-anchor="start" x="419" y="-863.9" font-family="Arial" font-size="14.00" fill="#000000">subscription    </text>
<text text-anchor="start" x="527.8822" y="-863.9" font-family="Arial" font-size="14.00" fill="#666666">[integer]</text>
<polygon fill="none" stroke="#000000" points="412,-822.5 412,-852.5 688,-852.5 688,-822.5 412,-822.5"/>
<text text-anchor="start" x="419" y="-833.9" font-family="Arial" font-size="14.00" fill="#000000">holding_lib    </text>
<text text-anchor="start" x="520.1094" y="-833.9" font-family="Arial" font-size="14.00" fill="#666666">[integer]</text>
<polygon fill="none" stroke="#000000" points="412,-792.5 412,-822.5 688,-822.5 688,-792.5 412,-792.5"/>
<text text-anchor="start" x="419" y="-803.9" font-family="Arial" font-size="14.00" fill="#000000">label    </text>
<text text-anchor="start" x="482.7658" y="-803.9" font-family="Arial" font-size="14.00" fill="#666666">[text]</text>
<polygon fill="none" stroke="#000000" points="412,-762.5 412,-792.5 688,-792.5 688,-762.5 412,-762.5"/>
<text text-anchor="start" x="419" y="-773.9" font-family="Arial" font-size="14.00" fill="#000000">display_grouping    </text>
<text text-anchor="start" x="559.0112" y="-773.9" font-family="Arial" font-size="14.00" fill="#666666">[text]</text>
<polygon fill="none" stroke="#000000" points="412,-732.5 412,-762.5 688,-762.5 688,-732.5 412,-732.5"/>
<text text-anchor="start" x="419" y="-743.9" font-family="Arial" font-size="14.00" fill="#000000">receive_call_number    </text>
<text text-anchor="start" x="582.3324" y="-743.9" font-family="Arial" font-size="14.00" fill="#666666">[bigint]</text>
<polygon fill="none" stroke="#000000" points="412,-702.5 412,-732.5 688,-732.5 688,-702.5 412,-702.5"/>
<text text-anchor="start" x="419" y="-713.9" font-family="Arial" font-size="14.00" fill="#000000">receive_unit_template    </text>
<text text-anchor="start" x="590.1262" y="-713.9" font-family="Arial" font-size="14.00" fill="#666666">[integer]</text>
<polygon fill="none" stroke="#000000" points="412,-672.5 412,-702.5 688,-702.5 688,-672.5 412,-672.5"/>
<text text-anchor="start" x="419" y="-683.9" font-family="Arial" font-size="14.00" fill="#000000">bind_call_number    </text>
<text text-anchor="start" x="563.6718" y="-683.9" font-family="Arial" font-size="14.00" fill="#666666">[bigint]</text>
<polygon fill="none" stroke="#000000" points="412,-642.5 412,-672.5 688,-672.5 688,-642.5 412,-642.5"/>
<text text-anchor="start" x="419" y="-653.9" font-family="Arial" font-size="14.00" fill="#000000">bind_unit_template    </text>
<text text-anchor="start" x="571.4656" y="-653.9" font-family="Arial" font-size="14.00" fill="#666666">[integer]</text>
<polygon fill="none" stroke="#000000" points="412,-612.5 412,-642.5 688,-642.5 688,-612.5 412,-612.5"/>
<text text-anchor="start" x="419" y="-623.9" font-family="Arial" font-size="14.00" fill="#000000">unit_label_prefix    </text>
<text text-anchor="start" x="555.1164" y="-623.9" font-family="Arial" font-size="14.00" fill="#666666">[text]</text>
<polygon fill="none" stroke="#000000" points="412,-582.5 412,-612.5 688,-612.5 688,-582.5 412,-582.5"/>
<text text-anchor="start" x="419" y="-593.9" font-family="Arial" font-size="14.00" fill="#000000">unit_label_suffix    </text>
<text text-anchor="start" x="553.5638" y="-593.9" font-family="Arial" font-size="14.00" fill="#666666">[text]</text>
</g>
<!-- serial.distribution_note&#45;&gt;serial.distribution -->
<g id="edge1" class="edge">
<title>serial.distribution_note:distribution&#45;&gt;serial.distribution:id</title>
<path fill="none" stroke="#000000" d="M579.923,-1866.6663C404.136,-1835.789 887.8163,-957.5 688,-957.5"/>
<polygon fill="#000000" stroke="#000000" points="580.034,-1866.6754 589.6289,-1871.9847 585.017,-1867.0877 590,-1867.5 590,-1867.5 590,-1867.5 585.017,-1867.0877 590.3711,-1863.0153 580.034,-1866.6754 580.034,-1866.6754"/>
<text text-anchor="start" x="6.938" y="-1877.5" font-family="Arial" font-size="10.00" fill="#000000">FOREIGN KEY (distribution) REFERENCES serial.distribution(id) ON DELETE CASCADE DEFERRABLE INITIALLY DEFERRED</text>
</g>
<!-- actor.usr -->
<g id="node3" class="node">
<title>actor.usr</title>
<polygon fill="#efefef" stroke="transparent" points="792,-1512.5 792,-1547.5 1112,-1547.5 1112,-1512.5 792,-1512.5"/>
<polygon fill="none" stroke="#000000" points="792,-1512.5 792,-1547.5 1112,-1547.5 1112,-1512.5 792,-1512.5"/>
<text text-anchor="start" x="853.2123" y="-1525.3" font-family="Arial Bold" font-size="18.00" fill="#000000">actor.usr</text>
<text text-anchor="start" x="923.2197" y="-1525.3" font-family="Arial" font-size="14.00" fill="#000000">    </text>
<text text-anchor="start" x="957.4245" y="-1525.3" font-family="Arial" font-size="14.00" fill="#666666">[BASE TABLE]</text>
<polygon fill="none" stroke="#000000" points="792,-1482.5 792,-1512.5 1112,-1512.5 1112,-1482.5 792,-1482.5"/>
<text text-anchor="start" x="799" y="-1493.9" font-family="Arial" font-size="14.00" fill="#000000">id    </text>
<text text-anchor="start" x="844.094" y="-1493.9" font-family="Arial" font-size="14.00" fill="#666666">[integer]</text>
<polygon fill="none" stroke="#000000" points="792,-1452.5 792,-1482.5 1112,-1482.5 1112,-1452.5 792,-1452.5"/>
<text text-anchor="start" x="799" y="-1463.9" font-family="Arial" font-size="14.00" fill="#000000">card    </text>
<text text-anchor="start" x="860.4306" y="-1463.9" font-family="Arial" font-size="14.00" fill="#666666">[integer]</text>
<polygon fill="none" stroke="#000000" points="792,-1422.5 792,-1452.5 1112,-1452.5 1112,-1422.5 792,-1422.5"/>
<text text-anchor="start" x="799" y="-1433.9" font-family="Arial" font-size="14.00" fill="#000000">profile    </text>
<text text-anchor="start" x="871.317" y="-1433.9" font-family="Arial" font-size="14.00" fill="#666666">[integer]</text>
<polygon fill="none" stroke="#000000" points="792,-1392.5 792,-1422.5 1112,-1422.5 1112,-1392.5 792,-1392.5"/>
<text text-anchor="start" x="799" y="-1403.9" font-family="Arial" font-size="14.00" fill="#000000">usrname    </text>
<text text-anchor="start" x="887.6564" y="-1403.9" font-family="Arial" font-size="14.00" fill="#666666">[text]</text>
<polygon fill="none" stroke="#000000" points="792,-1362.5 792,-1392.5 1112,-1392.5 1112,-1362.5 792,-1362.5"/>
<text text-anchor="start" x="799" y="-1373.9" font-family="Arial" font-size="14.00" fill="#000000">email    </text>
<text text-anchor="start" x="866.6438" y="-1373.9" font-family="Arial" font-size="14.00" fill="#666666">[text]</text>
<polygon fill="none" stroke="#000000" points="792,-1332.5 792,-1362.5 1112,-1362.5 1112,-1332.5 792,-1332.5"/>
<text text-anchor="start" x="799" y="-1343.9" font-family="Arial" font-size="14.00" fill="#000000">passwd    </text>
<text text-anchor="start" x="880.6592" y="-1343.9" font-family="Arial" font-size="14.00" fill="#666666">[text]</text>
<polygon fill="none" stroke="#000000" points="792,-1302.5 792,-1332.5 1112,-1332.5 1112,-1302.5 792,-1302.5"/>
<text text-anchor="start" x="799" y="-1313.9" font-family="Arial" font-size="14.00" fill="#000000">standing    </text>
<text text-anchor="start" x="886.115" y="-1313.9" font-family="Arial" font-size="14.00" fill="#666666">[integer]</text>
<polygon fill="none" stroke="#000000" points="792,-1272.5 792,-1302.5 1112,-1302.5 1112,-1272.5 792,-1272.5"/>
<text text-anchor="start" x="799" y="-1283.9" font-family="Arial" font-size="14.00" fill="#000000">ident_type    </text>
<text text-anchor="start" x="897.7882" y="-1283.9" font-family="Arial" font-size="14.00" fill="#666666">[integer]</text>
<polygon fill="none" stroke="#000000" points="792,-1242.5 792,-1272.5 1112,-1272.5 1112,-1242.5 792,-1242.5"/>
<text text-anchor="start" x="799" y="-1253.9" font-family="Arial" font-size="14.00" fill="#000000">ident_value    </text>
<text text-anchor="start" x="904.7868" y="-1253.9" font-family="Arial" font-size="14.00" fill="#666666">[text]</text>
<polygon fill="none" stroke="#000000" points="792,-1212.5 792,-1242.5 1112,-1242.5 1112,-1212.5 792,-1212.5"/>
<text text-anchor="start" x="799" y="-1223.9" font-family="Arial" font-size="14.00" fill="#000000">ident_type2    </text>
<text text-anchor="start" x="905.5708" y="-1223.9" font-family="Arial" font-size="14.00" fill="#666666">[integer]</text>
<polygon fill="none" stroke="#000000" points="792,-1182.5 792,-1212.5 1112,-1212.5 1112,-1182.5 792,-1182.5"/>
<text text-anchor="start" x="799" y="-1193.9" font-family="Arial" font-size="14.00" fill="#000000">ident_value2    </text>
<text text-anchor="start" x="912.5694" y="-1193.9" font-family="Arial" font-size="14.00" fill="#666666">[text]</text>
<polygon fill="none" stroke="#000000" points="792,-1152.5 792,-1182.5 1112,-1182.5 1112,-1152.5 792,-1152.5"/>
<text text-anchor="start" x="799" y="-1163.9" font-family="Arial" font-size="14.00" fill="#000000">net_access_level    </text>
<text text-anchor="start" x="940.5694" y="-1163.9" font-family="Arial" font-size="14.00" fill="#666666">[integer]</text>
<polygon fill="none" stroke="#000000" points="792,-1122.5 792,-1152.5 1112,-1152.5 1112,-1122.5 792,-1122.5"/>
<text text-anchor="start" x="799" y="-1133.9" font-family="Arial" font-size="14.00" fill="#000000">photo_url    </text>
<text text-anchor="start" x="891.5582" y="-1133.9" font-family="Arial" font-size="14.00" fill="#666666">[text]</text>
<polygon fill="none" stroke="#000000" points="792,-1092.5 792,-1122.5 1112,-1122.5 1112,-1092.5 792,-1092.5"/>
<text text-anchor="start" x="799" y="-1103.9" font-family="Arial" font-size="14.00" fill="#000000">prefix    </text>
<text text-anchor="start" x="867.4278" y="-1103.9" font-family="Arial" font-size="14.00" fill="#666666">[text]</text>
<polygon fill="none" stroke="#000000" points="792,-1062.5 792,-1092.5 1112,-1092.5 1112,-1062.5 792,-1062.5"/>
<text text-anchor="start" x="799" y="-1073.9" font-family="Arial" font-size="14.00" fill="#000000">first_given_name    </text>
<text text-anchor="start" x="939.7812" y="-1073.9" font-family="Arial" font-size="14.00" fill="#666666">[text]</text>
<polygon fill="none" stroke="#000000" points="792,-1032.5 792,-1062.5 1112,-1062.5 1112,-1032.5 792,-1032.5"/>
<text text-anchor="start" x="799" y="-1043.9" font-family="Arial" font-size="14.00" fill="#000000">second_given_name    </text>
<text text-anchor="start" x="962.3632" y="-1043.9" font-family="Arial" font-size="14.00" fill="#666666">[text]</text>
<polygon fill="none" stroke="#000000" points="792,-1002.5 792,-1032.5 1112,-1032.5 1112,-1002.5 792,-1002.5"/>
<text text-anchor="start" x="799" y="-1013.9" font-family="Arial" font-size="14.00" fill="#000000">family_name    </text>
<text text-anchor="start" x="912.5428" y="-1013.9" font-family="Arial" font-size="14.00" fill="#666666">[text]</text>
<polygon fill="none" stroke="#000000" points="792,-972.5 792,-1002.5 1112,-1002.5 1112,-972.5 792,-972.5"/>
<text text-anchor="start" x="799" y="-983.9" font-family="Arial" font-size="14.00" fill="#000000">suffix    </text>
<text text-anchor="start" x="865.8752" y="-983.9" font-family="Arial" font-size="14.00" fill="#666666">[text]</text>
<polygon fill="none" stroke="#000000" points="792,-942.5 792,-972.5 1112,-972.5 1112,-942.5 792,-942.5"/>
<text text-anchor="start" x="799" y="-953.9" font-family="Arial" font-size="14.00" fill="#000000">alias    </text>
<text text-anchor="start" x="861.9832" y="-953.9" font-family="Arial" font-size="14.00" fill="#666666">[text]</text>
<polygon fill="none" stroke="#000000" points="792,-912.5 792,-942.5 1112,-942.5 1112,-912.5 792,-912.5"/>
<text text-anchor="start" x="799" y="-923.9" font-family="Arial" font-size="14.00" fill="#000000">day_phone    </text>
<text text-anchor="start" x="902.4656" y="-923.9" font-family="Arial" font-size="14.00" fill="#666666">[text]</text>
<polygon fill="none" stroke="#000000" points="792,-882.5 792,-912.5 1112,-912.5 1112,-882.5 792,-882.5"/>
<text text-anchor="start" x="799" y="-893.9" font-family="Arial" font-size="14.00" fill="#000000">evening_phone    </text>
<text text-anchor="start" x="928.92" y="-893.9" font-family="Arial" font-size="14.00" fill="#666666">[text]</text>
<polygon fill="none" stroke="#000000" points="792,-852.5 792,-882.5 1112,-882.5 1112,-852.5 792,-852.5"/>
<text text-anchor="start" x="799" y="-863.9" font-family="Arial" font-size="14.00" fill="#000000">other_phone    </text>
<text text-anchor="start" x="911.7994" y="-863.9" font-family="Arial" font-size="14.00" fill="#666666">[text]</text>
<polygon fill="none" stroke="#000000" points="792,-822.5 792,-852.5 1112,-852.5 1112,-822.5 792,-822.5"/>
<text text-anchor="start" x="799" y="-833.9" font-family="Arial" font-size="14.00" fill="#000000">mailing_address    </text>
<text text-anchor="start" x="935.1066" y="-833.9" font-family="Arial" font-size="14.00" fill="#666666">[integer]</text>
<polygon fill="none" stroke="#000000" points="792,-792.5 792,-822.5 1112,-822.5 1112,-792.5 792,-792.5"/>
<text text-anchor="start" x="799" y="-803.9" font-family="Arial" font-size="14.00" fill="#000000">billing_address    </text>
<text text-anchor="start" x="926.5526" y="-803.9" font-family="Arial" font-size="14.00" fill="#666666">[integer]</text>
<polygon fill="none" stroke="#000000" points="792,-762.5 792,-792.5 1112,-792.5 1112,-762.5 792,-762.5"/>
<text text-anchor="start" x="799" y="-773.9" font-family="Arial" font-size="14.00" fill="#000000">home_ou    </text>
<text text-anchor="start" x="891.561" y="-773.9" font-family="Arial" font-size="14.00" fill="#666666">[integer]</text>
<polygon fill="none" stroke="#000000" points="792,-732.5 792,-762.5 1112,-762.5 1112,-732.5 792,-732.5"/>
<text text-anchor="start" x="799" y="-743.9" font-family="Arial" font-size="14.00" fill="#000000">dob    </text>
<text text-anchor="start" x="856.5526" y="-743.9" font-family="Arial" font-size="14.00" fill="#666666">[date]</text>
<polygon fill="none" stroke="#000000" points="792,-702.5 792,-732.5 1112,-732.5 1112,-702.5 792,-702.5"/>
<text text-anchor="start" x="799" y="-713.9" font-family="Arial" font-size="14.00" fill="#000000">active    </text>
<text text-anchor="start" x="869.7672" y="-713.9" font-family="Arial" font-size="14.00" fill="#666666">[boolean]</text>
<polygon fill="none" stroke="#000000" points="792,-672.5 792,-702.5 1112,-702.5 1112,-672.5 792,-672.5"/>
<text text-anchor="start" x="799" y="-683.9" font-family="Arial" font-size="14.00" fill="#000000">master_account    </text>
<text text-anchor="start" x="932.7854" y="-683.9" font-family="Arial" font-size="14.00" fill="#666666">[boolean]</text>
<polygon fill="none" stroke="#000000" points="792,-642.5 792,-672.5 1112,-672.5 1112,-642.5 792,-642.5"/>
<text text-anchor="start" x="799" y="-653.9" font-family="Arial" font-size="14.00" fill="#000000">super_user    </text>
<text text-anchor="start" x="903.2216" y="-653.9" font-family="Arial" font-size="14.00" fill="#666666">[boolean]</text>
<polygon fill="none" stroke="#000000" points="792,-612.5 792,-642.5 1112,-642.5 1112,-612.5 792,-612.5"/>
<text text-anchor="start" x="799" y="-623.9" font-family="Arial" font-size="14.00" fill="#000000">barred    </text>
<text text-anchor="start" x="873.6564" y="-623.9" font-family="Arial" font-size="14.00" fill="#666666">[boolean]</text>
<polygon fill="none" stroke="#000000" points="792,-582.5 792,-612.5 1112,-612.5 1112,-582.5 792,-582.5"/>
<text text-anchor="start" x="799" y="-593.9" font-family="Arial" font-size="14.00" fill="#000000">deleted    </text>
<text text-anchor="start" x="879.115" y="-593.9" font-family="Arial" font-size="14.00" fill="#666666">[boolean]</text>
<polygon fill="none" stroke="#000000" points="792,-552.5 792,-582.5 1112,-582.5 1112,-552.5 792,-552.5"/>
<text text-anchor="start" x="799" y="-563.9" font-family="Arial" font-size="14.00" fill="#000000">juvenile    </text>
<text text-anchor="start" x="880.655" y="-563.9" font-family="Arial" font-size="14.00" fill="#666666">[boolean]</text>
<polygon fill="none" stroke="#000000" points="792,-522.5 792,-552.5 1112,-552.5 1112,-522.5 792,-522.5"/>
<text text-anchor="start" x="799" y="-533.9" font-family="Arial" font-size="14.00" fill="#000000">usrgroup    </text>
<text text-anchor="start" x="888.439" y="-533.9" font-family="Arial" font-size="14.00" fill="#666666">[integer]</text>
<polygon fill="none" stroke="#000000" points="792,-492.5 792,-522.5 1112,-522.5 1112,-492.5 792,-492.5"/>
<text text-anchor="start" x="799" y="-503.9" font-family="Arial" font-size="14.00" fill="#000000">claims_returned_count    </text>
<text text-anchor="start" x="974.7896" y="-503.9" font-family="Arial" font-size="14.00" fill="#666666">[integer]</text>
<polygon fill="none" stroke="#000000" points="792,-462.5 792,-492.5 1112,-492.5 1112,-462.5 792,-462.5"/>
<text text-anchor="start" x="799" y="-473.9" font-family="Arial" font-size="14.00" fill="#000000">credit_forward_balance    </text>
<text text-anchor="start" x="978.6788" y="-473.9" font-family="Arial" font-size="14.00" fill="#666666">[numeric(6,2)]</text>
<polygon fill="none" stroke="#000000" points="792,-432.5 792,-462.5 1112,-462.5 1112,-432.5 792,-432.5"/>
<text text-anchor="start" x="799" y="-443.9" font-family="Arial" font-size="14.00" fill="#000000">last_xact_id    </text>
<text text-anchor="start" x="907.1122" y="-443.9" font-family="Arial" font-size="14.00" fill="#666666">[text]</text>
<polygon fill="none" stroke="#000000" points="792,-402.5 792,-432.5 1112,-432.5 1112,-402.5 792,-402.5"/>
<text text-anchor="start" x="799" y="-413.9" font-family="Arial" font-size="14.00" fill="#000000">alert_message    </text>
<text text-anchor="start" x="925.0014" y="-413.9" font-family="Arial" font-size="14.00" fill="#666666">[text]</text>
<polygon fill="none" stroke="#000000" points="792,-372.5 792,-402.5 1112,-402.5 1112,-372.5 792,-372.5"/>
<text text-anchor="start" x="799" y="-383.9" font-family="Arial" font-size="14.00" fill="#000000">create_date    </text>
<text text-anchor="start" x="907.1248" y="-383.9" font-family="Arial" font-size="14.00" fill="#666666">[timestamp with time zone]</text>
<polygon fill="none" stroke="#000000" points="792,-342.5 792,-372.5 1112,-372.5 1112,-342.5 792,-342.5"/>
<text text-anchor="start" x="799" y="-353.9" font-family="Arial" font-size="14.00" fill="#000000">expire_date    </text>
<text text-anchor="start" x="906.3408" y="-353.9" font-family="Arial" font-size="14.00" fill="#666666">[timestamp with time zone]</text>
<polygon fill="none" stroke="#000000" points="792,-312.5 792,-342.5 1112,-342.5 1112,-312.5 792,-312.5"/>
<text text-anchor="start" x="799" y="-323.9" font-family="Arial" font-size="14.00" fill="#000000">claims_never_checked_out_count    </text>
<text text-anchor="start" x="1044.8246" y="-323.9" font-family="Arial" font-size="14.00" fill="#666666">[integer]</text>
<polygon fill="none" stroke="#000000" points="792,-282.5 792,-312.5 1112,-312.5 1112,-282.5 792,-282.5"/>
<text text-anchor="start" x="798.7609" y="-293.9" font-family="Arial" font-size="14.00" fill="#000000">last_update_time    </text>
<text text-anchor="start" x="939.5547" y="-293.9" font-family="Arial" font-size="14.00" fill="#666666">[timestamp with time zone]</text>
<polygon fill="none" stroke="#000000" points="792,-252.5 792,-282.5 1112,-282.5 1112,-252.5 792,-252.5"/>
<text text-anchor="start" x="799" y="-263.9" font-family="Arial" font-size="14.00" fill="#000000">pref_prefix    </text>
<text text-anchor="start" x="899.3268" y="-263.9" font-family="Arial" font-size="14.00" fill="#666666">[text]</text>
<polygon fill="none" stroke="#000000" points="792,-222.5 792,-252.5 1112,-252.5 1112,-222.5 792,-222.5"/>
<text text-anchor="start" x="799" y="-233.9" font-family="Arial" font-size="14.00" fill="#000000">pref_first_given_name    </text>
<text text-anchor="start" x="971.6802" y="-233.9" font-family="Arial" font-size="14.00" fill="#666666">[text]</text>
<polygon fill="none" stroke="#000000" points="792,-192.5 792,-222.5 1112,-222.5 1112,-192.5 792,-192.5"/>
<text text-anchor="start" x="799" y="-203.9" font-family="Arial" font-size="14.00" fill="#000000">pref_second_given_name    </text>
<text text-anchor="start" x="994.2622" y="-203.9" font-family="Arial" font-size="14.00" fill="#666666">[text]</text>
<polygon fill="none" stroke="#000000" points="792,-162.5 792,-192.5 1112,-192.5 1112,-162.5 792,-162.5"/>
<text text-anchor="start" x="799" y="-173.9" font-family="Arial" font-size="14.00" fill="#000000">pref_family_name    </text>
<text text-anchor="start" x="944.4418" y="-173.9" font-family="Arial" font-size="14.00" fill="#666666">[text]</text>
<polygon fill="none" stroke="#000000" points="792,-132.5 792,-162.5 1112,-162.5 1112,-132.5 792,-132.5"/>
<text text-anchor="start" x="799" y="-143.9" font-family="Arial" font-size="14.00" fill="#000000">pref_suffix    </text>
<text text-anchor="start" x="897.7742" y="-143.9" font-family="Arial" font-size="14.00" fill="#666666">[text]</text>
<polygon fill="none" stroke="#000000" points="792,-102.5 792,-132.5 1112,-132.5 1112,-102.5 792,-102.5"/>
<text text-anchor="start" x="799" y="-113.9" font-family="Arial" font-size="14.00" fill="#000000">name_keywords    </text>
<text text-anchor="start" x="935.1108" y="-113.9" font-family="Arial" font-size="14.00" fill="#666666">[text]</text>
<polygon fill="none" stroke="#000000" points="792,-72.5 792,-102.5 1112,-102.5 1112,-72.5 792,-72.5"/>
<text text-anchor="start" x="799" y="-83.9" font-family="Arial" font-size="14.00" fill="#000000">name_kw_tsvector    </text>
<text text-anchor="start" x="949.892" y="-83.9" font-family="Arial" font-size="14.00" fill="#666666">[tsvector]</text>
<polygon fill="none" stroke="#000000" points="792,-42.5 792,-72.5 1112,-72.5 1112,-42.5 792,-42.5"/>
<text text-anchor="start" x="799" y="-53.9" font-family="Arial" font-size="14.00" fill="#000000">guardian    </text>
<text text-anchor="start" x="887.6676" y="-53.9" font-family="Arial" font-size="14.00" fill="#666666">[text]</text>
</g>
<!-- serial.distribution_note&#45;&gt;actor.usr -->
<g id="edge2" class="edge">
<title>serial.distribution_note:creator&#45;&gt;actor.usr:id</title>
<path fill="none" stroke="#000000" d="M921.369,-1836.892C1001.5753,-1827.0156 964.5813,-1699.1889 911,-1627 878.0672,-1582.6303 824.9328,-1635.3697 792,-1591 767.2328,-1557.6316 750.4444,-1497.5 792,-1497.5"/>
<polygon fill="#000000" stroke="#000000" points="920.9829,-1836.9145 910.7365,-1833.0077 915.9914,-1837.2073 911,-1837.5 911,-1837.5 911,-1837.5 915.9914,-1837.2073 911.2635,-1841.9923 920.9829,-1836.9145 920.9829,-1836.9145"/>
<text text-anchor="start" x="917.8865" y="-1847.5" font-family="Arial" font-size="10.00" fill="#000000">FOREIGN KEY (creator) REFERENCES actor.usr(id) DEFERRABLE INITIALLY DEFERRED</text>
</g>
</g>
</svg>
