<?xml version="1.0" encoding="UTF-8" standalone="no"?>
<!DOCTYPE svg PUBLIC "-//W3C//DTD SVG 1.1//EN"
 "http://www.w3.org/Graphics/SVG/1.1/DTD/svg11.dtd">
<!-- Generated by graphviz version 2.40.1 (20161225.0304)
 -->
<!-- Title: serial.pattern_template Pages: 1 -->
<svg width="842pt" height="832pt"
 viewBox="0.00 0.00 842.00 832.00" xmlns="http://www.w3.org/2000/svg" xmlns:xlink="http://www.w3.org/1999/xlink">
<g id="graph0" class="graph" transform="scale(1 1) rotate(0) translate(4 828)">
<title>serial.pattern_template</title>
<polygon fill="#ffffff" stroke="transparent" points="-4,4 -4,-828 838,-828 838,4 -4,4"/>
<!-- serial.pattern_template -->
<g id="node1" class="node">
<title>serial.pattern_template</title>
<polygon fill="#efefef" stroke="transparent" points="464,-742.5 464,-777.5 788,-777.5 788,-742.5 464,-742.5"/>
<polygon fill="none" stroke="#000000" points="464,-742.5 464,-777.5 788,-777.5 788,-742.5 464,-742.5"/>
<text text-anchor="start" x="470.6968" y="-755.3" font-family="Arial Bold" font-size="18.00" fill="#000000">serial.pattern_template</text>
<text text-anchor="start" x="653.7352" y="-755.3" font-family="Arial" font-size="14.00" fill="#000000">    </text>
<text text-anchor="start" x="687.94" y="-755.3" font-family="Arial" font-size="14.00" fill="#666666">[BASE TABLE]</text>
<polygon fill="none" stroke="#000000" points="464,-712.5 464,-742.5 788,-742.5 788,-712.5 464,-712.5"/>
<text text-anchor="start" x="471" y="-723.9" font-family="Arial" font-size="14.00" fill="#000000">id </text>
<text text-anchor="start" x="485.7798" y="-723.9" font-family="Arial" font-size="14.00" fill="#666666">[integer]</text>
<polygon fill="none" stroke="#000000" points="464,-682.5 464,-712.5 788,-712.5 788,-682.5 464,-682.5"/>
<text text-anchor="start" x="471" y="-693.9" font-family="Arial" font-size="14.00" fill="#000000">name </text>
<text text-anchor="start" x="509.899" y="-693.9" font-family="Arial" font-size="14.00" fill="#666666">[text]</text>
<polygon fill="none" stroke="#000000" points="464,-652.5 464,-682.5 788,-682.5 788,-652.5 464,-652.5"/>
<text text-anchor="start" x="471" y="-663.9" font-family="Arial" font-size="14.00" fill="#000000">pattern_code </text>
<text text-anchor="start" x="556.5932" y="-663.9" font-family="Arial" font-size="14.00" fill="#666666">[text]</text>
<polygon fill="none" stroke="#000000" points="464,-622.5 464,-652.5 788,-652.5 788,-622.5 464,-622.5"/>
<text text-anchor="start" x="471" y="-633.9" font-family="Arial" font-size="14.00" fill="#000000">owning_lib </text>
<text text-anchor="start" x="541.0126" y="-633.9" font-family="Arial" font-size="14.00" fill="#666666">[integer]</text>
<polygon fill="none" stroke="#000000" points="464,-592.5 464,-622.5 788,-622.5 788,-592.5 464,-592.5"/>
<text text-anchor="start" x="471" y="-603.9" font-family="Arial" font-size="14.00" fill="#000000">share_depth </text>
<text text-anchor="start" x="552.7026" y="-603.9" font-family="Arial" font-size="14.00" fill="#666666">[integer]</text>
<polygon fill="none" stroke="#000000" stroke-width="3" points="462.5,-591.5 462.5,-779.5 789.5,-779.5 789.5,-591.5 462.5,-591.5"/>
</g>
<!-- actor.org_unit -->
<g id="node2" class="node">
<title>actor.org_unit</title>
<polygon fill="#efefef" stroke="transparent" points="500,-432.5 500,-467.5 751,-467.5 751,-432.5 500,-432.5"/>
<polygon fill="none" stroke="#000000" points="500,-432.5 500,-467.5 751,-467.5 751,-432.5 500,-432.5"/>
<text text-anchor="start" x="506.7017" y="-445.3" font-family="Arial Bold" font-size="18.00" fill="#000000">actor.org_unit</text>
<text text-anchor="start" x="616.7303" y="-445.3" font-family="Arial" font-size="14.00" fill="#000000">    </text>
<text text-anchor="start" x="650.9351" y="-445.3" font-family="Arial" font-size="14.00" fill="#666666">[BASE TABLE]</text>
<polygon fill="none" stroke="#000000" points="500,-402.5 500,-432.5 751,-432.5 751,-402.5 500,-402.5"/>
<text text-anchor="start" x="507" y="-413.9" font-family="Arial" font-size="14.00" fill="#000000">id    </text>
<text text-anchor="start" x="552.094" y="-413.9" font-family="Arial" font-size="14.00" fill="#666666">[integer]</text>
<polygon fill="none" stroke="#000000" points="500,-372.5 500,-402.5 751,-402.5 751,-372.5 500,-372.5"/>
<text text-anchor="start" x="507" y="-383.9" font-family="Arial" font-size="14.00" fill="#000000">parent_ou    </text>
<text text-anchor="start" x="604.2342" y="-383.9" font-family="Arial" font-size="14.00" fill="#666666">[integer]</text>
<polygon fill="none" stroke="#000000" points="500,-342.5 500,-372.5 751,-372.5 751,-342.5 500,-342.5"/>
<text text-anchor="start" x="507" y="-353.9" font-family="Arial" font-size="14.00" fill="#000000">ou_type    </text>
<text text-anchor="start" x="591.0084" y="-353.9" font-family="Arial" font-size="14.00" fill="#666666">[integer]</text>
<polygon fill="none" stroke="#000000" points="500,-312.5 500,-342.5 751,-342.5 751,-312.5 500,-312.5"/>
<text text-anchor="start" x="507" y="-323.9" font-family="Arial" font-size="14.00" fill="#000000">ill_address    </text>
<text text-anchor="start" x="608.0982" y="-323.9" font-family="Arial" font-size="14.00" fill="#666666">[integer]</text>
<polygon fill="none" stroke="#000000" points="500,-282.5 500,-312.5 751,-312.5 751,-282.5 500,-282.5"/>
<text text-anchor="start" x="507" y="-293.9" font-family="Arial" font-size="14.00" fill="#000000">holds_address    </text>
<text text-anchor="start" x="632.2328" y="-293.9" font-family="Arial" font-size="14.00" fill="#666666">[integer]</text>
<polygon fill="none" stroke="#000000" points="500,-252.5 500,-282.5 751,-282.5 751,-252.5 500,-252.5"/>
<text text-anchor="start" x="507" y="-263.9" font-family="Arial" font-size="14.00" fill="#000000">mailing_address    </text>
<text text-anchor="start" x="643.1066" y="-263.9" font-family="Arial" font-size="14.00" fill="#666666">[integer]</text>
<polygon fill="none" stroke="#000000" points="500,-222.5 500,-252.5 751,-252.5 751,-222.5 500,-222.5"/>
<text text-anchor="start" x="507" y="-233.9" font-family="Arial" font-size="14.00" fill="#000000">billing_address    </text>
<text text-anchor="start" x="634.5526" y="-233.9" font-family="Arial" font-size="14.00" fill="#666666">[integer]</text>
<polygon fill="none" stroke="#000000" points="500,-192.5 500,-222.5 751,-222.5 751,-192.5 500,-192.5"/>
<text text-anchor="start" x="507" y="-203.9" font-family="Arial" font-size="14.00" fill="#000000">shortname    </text>
<text text-anchor="start" x="607.3296" y="-203.9" font-family="Arial" font-size="14.00" fill="#666666">[text]</text>
<polygon fill="none" stroke="#000000" points="500,-162.5 500,-192.5 751,-192.5 751,-162.5 500,-162.5"/>
<text text-anchor="start" x="507" y="-173.9" font-family="Arial" font-size="14.00" fill="#000000">name    </text>
<text text-anchor="start" x="576.2132" y="-173.9" font-family="Arial" font-size="14.00" fill="#666666">[text]</text>
<polygon fill="none" stroke="#000000" points="500,-132.5 500,-162.5 751,-162.5 751,-132.5 500,-132.5"/>
<text text-anchor="start" x="507" y="-143.9" font-family="Arial" font-size="14.00" fill="#000000">email    </text>
<text text-anchor="start" x="574.6438" y="-143.9" font-family="Arial" font-size="14.00" fill="#666666">[text]</text>
<polygon fill="none" stroke="#000000" points="500,-102.5 500,-132.5 751,-132.5 751,-102.5 500,-102.5"/>
<text text-anchor="start" x="507" y="-113.9" font-family="Arial" font-size="14.00" fill="#000000">phone    </text>
<text text-anchor="start" x="580.1178" y="-113.9" font-family="Arial" font-size="14.00" fill="#666666">[text]</text>
<polygon fill="none" stroke="#000000" points="500,-72.5 500,-102.5 751,-102.5 751,-72.5 500,-72.5"/>
<text text-anchor="start" x="507" y="-83.9" font-family="Arial" font-size="14.00" fill="#000000">opac_visible    </text>
<text text-anchor="start" x="618.2202" y="-83.9" font-family="Arial" font-size="14.00" fill="#666666">[boolean]</text>
<polygon fill="none" stroke="#000000" points="500,-42.5 500,-72.5 751,-72.5 751,-42.5 500,-42.5"/>
<text text-anchor="start" x="507" y="-53.9" font-family="Arial" font-size="14.00" fill="#000000">fiscal_calendar    </text>
<text text-anchor="start" x="634.554" y="-53.9" font-family="Arial" font-size="14.00" fill="#666666">[integer]</text>
</g>
<!-- serial.pattern_template&#45;&gt;actor.org_unit -->
<g id="edge1" class="edge">
<title>serial.pattern_template:owning_lib&#45;&gt;actor.org_unit:id</title>
<path fill="none" stroke="#000000" d="M454.0732,-635.9836C426.4438,-626.4514 439.8822,-574.332 464,-547 549.0574,-450.6068 665.9426,-607.3932 751,-511 778.4949,-479.8408 792.5556,-417.5 751,-417.5"/>
<polygon fill="#000000" stroke="#000000" points="454.1147,-635.9898 463.3204,-641.9484 459.0573,-636.7449 464,-637.5 464,-637.5 464,-637.5 459.0573,-636.7449 464.6796,-633.0516 454.1147,-635.9898 454.1147,-635.9898"/>
<text text-anchor="start" x="6.7115" y="-647.5" font-family="Arial" font-size="10.00" fill="#000000">FOREIGN KEY (owning_lib) REFERENCES actor.org_unit(id) DEFERRABLE INITIALLY DEFERRED</text>
</g>
</g>
</svg>
