<?xml version="1.0" encoding="UTF-8" standalone="no"?>
<!DOCTYPE svg PUBLIC "-//W3C//DTD SVG 1.1//EN"
 "http://www.w3.org/Graphics/SVG/1.1/DTD/svg11.dtd">
<!-- Generated by graphviz version 2.40.1 (20161225.0304)
 -->
<!-- Title: serial.record_entry Pages: 1 -->
<svg width="1472pt" height="1769pt"
 viewBox="0.00 0.00 1472.00 1769.00" xmlns="http://www.w3.org/2000/svg" xmlns:xlink="http://www.w3.org/1999/xlink">
<g id="graph0" class="graph" transform="scale(1 1) rotate(0) translate(4 1765)">
<title>serial.record_entry</title>
<polygon fill="#ffffff" stroke="transparent" points="-4,4 -4,-1765 1468,-1765 1468,4 -4,4"/>
<!-- serial.record_entry -->
<g id="node1" class="node">
<title>serial.record_entry</title>
<polygon fill="#efefef" stroke="transparent" points="576,-1132.5 576,-1167.5 866,-1167.5 866,-1132.5 576,-1132.5"/>
<polygon fill="none" stroke="#000000" points="576,-1132.5 576,-1167.5 866,-1167.5 866,-1132.5 576,-1132.5"/>
<text text-anchor="start" x="582.7104" y="-1145.3" font-family="Arial Bold" font-size="18.00" fill="#000000">serial.record_entry</text>
<text text-anchor="start" x="731.7216" y="-1145.3" font-family="Arial" font-size="14.00" fill="#000000">    </text>
<text text-anchor="start" x="765.9264" y="-1145.3" font-family="Arial" font-size="14.00" fill="#666666">[BASE TABLE]</text>
<polygon fill="none" stroke="#000000" points="576,-1102.5 576,-1132.5 866,-1132.5 866,-1102.5 576,-1102.5"/>
<text text-anchor="start" x="583" y="-1113.9" font-family="Arial" font-size="14.00" fill="#000000">id </text>
<text text-anchor="start" x="597.7798" y="-1113.9" font-family="Arial" font-size="14.00" fill="#666666">[bigint]</text>
<polygon fill="none" stroke="#000000" points="576,-1072.5 576,-1102.5 866,-1102.5 866,-1072.5 576,-1072.5"/>
<text text-anchor="start" x="583" y="-1083.9" font-family="Arial" font-size="14.00" fill="#000000">record </text>
<text text-anchor="start" x="626.5596" y="-1083.9" font-family="Arial" font-size="14.00" fill="#666666">[bigint]</text>
<polygon fill="none" stroke="#000000" points="576,-1042.5 576,-1072.5 866,-1072.5 866,-1042.5 576,-1042.5"/>
<text text-anchor="start" x="583" y="-1053.9" font-family="Arial" font-size="14.00" fill="#000000">owning_lib </text>
<text text-anchor="start" x="653.0126" y="-1053.9" font-family="Arial" font-size="14.00" fill="#666666">[integer]</text>
<polygon fill="none" stroke="#000000" points="576,-1012.5 576,-1042.5 866,-1042.5 866,-1012.5 576,-1012.5"/>
<text text-anchor="start" x="583" y="-1023.9" font-family="Arial" font-size="14.00" fill="#000000">creator </text>
<text text-anchor="start" x="630.4502" y="-1023.9" font-family="Arial" font-size="14.00" fill="#666666">[integer]</text>
<polygon fill="none" stroke="#000000" points="576,-982.5 576,-1012.5 866,-1012.5 866,-982.5 576,-982.5"/>
<text text-anchor="start" x="583" y="-993.9" font-family="Arial" font-size="14.00" fill="#000000">editor </text>
<text text-anchor="start" x="621.8962" y="-993.9" font-family="Arial" font-size="14.00" fill="#666666">[integer]</text>
<polygon fill="none" stroke="#000000" points="576,-952.5 576,-982.5 866,-982.5 866,-952.5 576,-952.5"/>
<text text-anchor="start" x="583" y="-963.9" font-family="Arial" font-size="14.00" fill="#000000">source </text>
<text text-anchor="start" x="628.899" y="-963.9" font-family="Arial" font-size="14.00" fill="#666666">[integer]</text>
<polygon fill="none" stroke="#000000" points="576,-922.5 576,-952.5 866,-952.5 866,-922.5 576,-922.5"/>
<text text-anchor="start" x="583" y="-933.9" font-family="Arial" font-size="14.00" fill="#000000">create_date </text>
<text text-anchor="start" x="660.8106" y="-933.9" font-family="Arial" font-size="14.00" fill="#666666">[timestamp with time zone]</text>
<polygon fill="none" stroke="#000000" points="576,-892.5 576,-922.5 866,-922.5 866,-892.5 576,-892.5"/>
<text text-anchor="start" x="583" y="-903.9" font-family="Arial" font-size="14.00" fill="#000000">edit_date </text>
<text text-anchor="start" x="644.474" y="-903.9" font-family="Arial" font-size="14.00" fill="#666666">[timestamp with time zone]</text>
<polygon fill="none" stroke="#000000" points="576,-862.5 576,-892.5 866,-892.5 866,-862.5 576,-862.5"/>
<text text-anchor="start" x="583" y="-873.9" font-family="Arial" font-size="14.00" fill="#000000">active </text>
<text text-anchor="start" x="623.453" y="-873.9" font-family="Arial" font-size="14.00" fill="#666666">[boolean]</text>
<polygon fill="none" stroke="#000000" points="576,-832.5 576,-862.5 866,-862.5 866,-832.5 576,-832.5"/>
<text text-anchor="start" x="583" y="-843.9" font-family="Arial" font-size="14.00" fill="#000000">deleted </text>
<text text-anchor="start" x="632.8008" y="-843.9" font-family="Arial" font-size="14.00" fill="#666666">[boolean]</text>
<polygon fill="none" stroke="#000000" points="576,-802.5 576,-832.5 866,-832.5 866,-802.5 576,-802.5"/>
<text text-anchor="start" x="583" y="-813.9" font-family="Arial" font-size="14.00" fill="#000000">marc </text>
<text text-anchor="start" x="617.9944" y="-813.9" font-family="Arial" font-size="14.00" fill="#666666">[text]</text>
<polygon fill="none" stroke="#000000" points="576,-772.5 576,-802.5 866,-802.5 866,-772.5 576,-772.5"/>
<text text-anchor="start" x="583" y="-783.9" font-family="Arial" font-size="14.00" fill="#000000">last_xact_id </text>
<text text-anchor="start" x="660.798" y="-783.9" font-family="Arial" font-size="14.00" fill="#666666">[text]</text>
<polygon fill="none" stroke="#000000" stroke-width="3" points="574.5,-771.5 574.5,-1169.5 867.5,-1169.5 867.5,-771.5 574.5,-771.5"/>
</g>
<!-- biblio.record_entry -->
<g id="node3" class="node">
<title>biblio.record_entry</title>
<polygon fill="#efefef" stroke="transparent" points="389,-612.5 389,-647.5 678,-647.5 678,-612.5 389,-612.5"/>
<polygon fill="none" stroke="#000000" points="389,-612.5 389,-647.5 678,-647.5 678,-612.5 389,-612.5"/>
<text text-anchor="start" x="395.7063" y="-625.3" font-family="Arial Bold" font-size="18.00" fill="#000000">biblio.record_entry</text>
<text text-anchor="start" x="543.7257" y="-625.3" font-family="Arial" font-size="14.00" fill="#000000">    </text>
<text text-anchor="start" x="577.9305" y="-625.3" font-family="Arial" font-size="14.00" fill="#666666">[BASE TABLE]</text>
<polygon fill="none" stroke="#000000" points="389,-582.5 389,-612.5 678,-612.5 678,-582.5 389,-582.5"/>
<text text-anchor="start" x="396" y="-593.9" font-family="Arial" font-size="14.00" fill="#000000">id    </text>
<text text-anchor="start" x="441.094" y="-593.9" font-family="Arial" font-size="14.00" fill="#666666">[bigint]</text>
<polygon fill="none" stroke="#000000" points="389,-552.5 389,-582.5 678,-582.5 678,-552.5 389,-552.5"/>
<text text-anchor="start" x="396" y="-563.9" font-family="Arial" font-size="14.00" fill="#000000">creator    </text>
<text text-anchor="start" x="473.7644" y="-563.9" font-family="Arial" font-size="14.00" fill="#666666">[integer]</text>
<polygon fill="none" stroke="#000000" points="389,-522.5 389,-552.5 678,-552.5 678,-522.5 389,-522.5"/>
<text text-anchor="start" x="396" y="-533.9" font-family="Arial" font-size="14.00" fill="#000000">editor    </text>
<text text-anchor="start" x="465.2104" y="-533.9" font-family="Arial" font-size="14.00" fill="#666666">[integer]</text>
<polygon fill="none" stroke="#000000" points="389,-492.5 389,-522.5 678,-522.5 678,-492.5 389,-492.5"/>
<text text-anchor="start" x="396" y="-503.9" font-family="Arial" font-size="14.00" fill="#000000">source    </text>
<text text-anchor="start" x="472.2132" y="-503.9" font-family="Arial" font-size="14.00" fill="#666666">[integer]</text>
<polygon fill="none" stroke="#000000" points="389,-462.5 389,-492.5 678,-492.5 678,-462.5 389,-462.5"/>
<text text-anchor="start" x="396" y="-473.9" font-family="Arial" font-size="14.00" fill="#000000">quality    </text>
<text text-anchor="start" x="470.6564" y="-473.9" font-family="Arial" font-size="14.00" fill="#666666">[integer]</text>
<polygon fill="none" stroke="#000000" points="389,-432.5 389,-462.5 678,-462.5 678,-432.5 389,-432.5"/>
<text text-anchor="start" x="396" y="-443.9" font-family="Arial" font-size="14.00" fill="#000000">create_date    </text>
<text text-anchor="start" x="504.1248" y="-443.9" font-family="Arial" font-size="14.00" fill="#666666">[timestamp with time zone]</text>
<polygon fill="none" stroke="#000000" points="389,-402.5 389,-432.5 678,-432.5 678,-402.5 389,-402.5"/>
<text text-anchor="start" x="396" y="-413.9" font-family="Arial" font-size="14.00" fill="#000000">edit_date    </text>
<text text-anchor="start" x="487.7882" y="-413.9" font-family="Arial" font-size="14.00" fill="#666666">[timestamp with time zone]</text>
<polygon fill="none" stroke="#000000" points="389,-372.5 389,-402.5 678,-402.5 678,-372.5 389,-372.5"/>
<text text-anchor="start" x="396" y="-383.9" font-family="Arial" font-size="14.00" fill="#000000">active    </text>
<text text-anchor="start" x="466.7672" y="-383.9" font-family="Arial" font-size="14.00" fill="#666666">[boolean]</text>
<polygon fill="none" stroke="#000000" points="389,-342.5 389,-372.5 678,-372.5 678,-342.5 389,-342.5"/>
<text text-anchor="start" x="396" y="-353.9" font-family="Arial" font-size="14.00" fill="#000000">deleted    </text>
<text text-anchor="start" x="476.115" y="-353.9" font-family="Arial" font-size="14.00" fill="#666666">[boolean]</text>
<polygon fill="none" stroke="#000000" points="389,-312.5 389,-342.5 678,-342.5 678,-312.5 389,-312.5"/>
<text text-anchor="start" x="396" y="-323.9" font-family="Arial" font-size="14.00" fill="#000000">fingerprint    </text>
<text text-anchor="start" x="492.4334" y="-323.9" font-family="Arial" font-size="14.00" fill="#666666">[text]</text>
<polygon fill="none" stroke="#000000" points="389,-282.5 389,-312.5 678,-312.5 678,-282.5 389,-282.5"/>
<text text-anchor="start" x="396" y="-293.9" font-family="Arial" font-size="14.00" fill="#000000">tcn_source    </text>
<text text-anchor="start" x="498.669" y="-293.9" font-family="Arial" font-size="14.00" fill="#666666">[text]</text>
<polygon fill="none" stroke="#000000" points="389,-252.5 389,-282.5 678,-282.5 678,-252.5 389,-252.5"/>
<text text-anchor="start" x="396" y="-263.9" font-family="Arial" font-size="14.00" fill="#000000">tcn_value    </text>
<text text-anchor="start" x="490.115" y="-263.9" font-family="Arial" font-size="14.00" fill="#666666">[text]</text>
<polygon fill="none" stroke="#000000" points="389,-222.5 389,-252.5 678,-252.5 678,-222.5 389,-222.5"/>
<text text-anchor="start" x="396" y="-233.9" font-family="Arial" font-size="14.00" fill="#000000">marc    </text>
<text text-anchor="start" x="461.3086" y="-233.9" font-family="Arial" font-size="14.00" fill="#666666">[text]</text>
<polygon fill="none" stroke="#000000" points="389,-192.5 389,-222.5 678,-222.5 678,-192.5 389,-192.5"/>
<text text-anchor="start" x="396" y="-203.9" font-family="Arial" font-size="14.00" fill="#000000">last_xact_id    </text>
<text text-anchor="start" x="504.1122" y="-203.9" font-family="Arial" font-size="14.00" fill="#666666">[text]</text>
<polygon fill="none" stroke="#000000" points="389,-162.5 389,-192.5 678,-192.5 678,-162.5 389,-162.5"/>
<text text-anchor="start" x="396" y="-173.9" font-family="Arial" font-size="14.00" fill="#000000">vis_attr_vector    </text>
<text text-anchor="start" x="521.2174" y="-173.9" font-family="Arial" font-size="14.00" fill="#666666">[integer[]]</text>
<polygon fill="none" stroke="#000000" points="389,-132.5 389,-162.5 678,-162.5 678,-132.5 389,-132.5"/>
<text text-anchor="start" x="396" y="-143.9" font-family="Arial" font-size="14.00" fill="#000000">owner    </text>
<text text-anchor="start" x="468.3198" y="-143.9" font-family="Arial" font-size="14.00" fill="#666666">[integer]</text>
<polygon fill="none" stroke="#000000" points="389,-102.5 389,-132.5 678,-132.5 678,-102.5 389,-102.5"/>
<text text-anchor="start" x="396" y="-113.9" font-family="Arial" font-size="14.00" fill="#000000">share_depth    </text>
<text text-anchor="start" x="508.0168" y="-113.9" font-family="Arial" font-size="14.00" fill="#666666">[integer]</text>
<polygon fill="none" stroke="#000000" points="389,-72.5 389,-102.5 678,-102.5 678,-72.5 389,-72.5"/>
<text text-anchor="start" x="396" y="-83.9" font-family="Arial" font-size="14.00" fill="#000000">merge_date    </text>
<text text-anchor="start" x="504.8948" y="-83.9" font-family="Arial" font-size="14.00" fill="#666666">[timestamp with time zone]</text>
<polygon fill="none" stroke="#000000" points="389,-42.5 389,-72.5 678,-72.5 678,-42.5 389,-42.5"/>
<text text-anchor="start" x="396" y="-53.9" font-family="Arial" font-size="14.00" fill="#000000">merged_to    </text>
<text text-anchor="start" x="497.1122" y="-53.9" font-family="Arial" font-size="14.00" fill="#666666">[bigint]</text>
</g>
<!-- serial.record_entry&#45;&gt;biblio.record_entry -->
<g id="edge2" class="edge">
<title>serial.record_entry:record&#45;&gt;biblio.record_entry:id</title>
<path fill="none" stroke="#000000" d="M565.9868,-1087.1852C418.6975,-1077.6755 485.4482,-854.9857 576,-727 603.7662,-687.7553 650.2338,-730.2447 678,-691 702.0013,-657.0766 719.5556,-597.5 678,-597.5"/>
<polygon fill="#000000" stroke="#000000" points="566.0049,-1087.1857 575.8585,-1091.9978 571.0025,-1087.3428 576,-1087.5 576,-1087.5 576,-1087.5 571.0025,-1087.3428 576.1415,-1083.0022 566.0049,-1087.1857 566.0049,-1087.1857"/>
<text text-anchor="start" x="6.6005" y="-1097.5" font-family="Arial" font-size="10.00" fill="#000000">FOREIGN KEY (record) REFERENCES biblio.record_entry(id) ON DELETE SET NULL DEFERRABLE INITIALLY DEFERRED</text>
</g>
<!-- actor.org_unit -->
<g id="node4" class="node">
<title>actor.org_unit</title>
<polygon fill="#efefef" stroke="transparent" points="782,-522.5 782,-557.5 1033,-557.5 1033,-522.5 782,-522.5"/>
<polygon fill="none" stroke="#000000" points="782,-522.5 782,-557.5 1033,-557.5 1033,-522.5 782,-522.5"/>
<text text-anchor="start" x="788.7017" y="-535.3" font-family="Arial Bold" font-size="18.00" fill="#000000">actor.org_unit</text>
<text text-anchor="start" x="898.7303" y="-535.3" font-family="Arial" font-size="14.00" fill="#000000">    </text>
<text text-anchor="start" x="932.9351" y="-535.3" font-family="Arial" font-size="14.00" fill="#666666">[BASE TABLE]</text>
<polygon fill="none" stroke="#000000" points="782,-492.5 782,-522.5 1033,-522.5 1033,-492.5 782,-492.5"/>
<text text-anchor="start" x="789" y="-503.9" font-family="Arial" font-size="14.00" fill="#000000">id    </text>
<text text-anchor="start" x="834.094" y="-503.9" font-family="Arial" font-size="14.00" fill="#666666">[integer]</text>
<polygon fill="none" stroke="#000000" points="782,-462.5 782,-492.5 1033,-492.5 1033,-462.5 782,-462.5"/>
<text text-anchor="start" x="789" y="-473.9" font-family="Arial" font-size="14.00" fill="#000000">parent_ou    </text>
<text text-anchor="start" x="886.2342" y="-473.9" font-family="Arial" font-size="14.00" fill="#666666">[integer]</text>
<polygon fill="none" stroke="#000000" points="782,-432.5 782,-462.5 1033,-462.5 1033,-432.5 782,-432.5"/>
<text text-anchor="start" x="789" y="-443.9" font-family="Arial" font-size="14.00" fill="#000000">ou_type    </text>
<text text-anchor="start" x="873.0084" y="-443.9" font-family="Arial" font-size="14.00" fill="#666666">[integer]</text>
<polygon fill="none" stroke="#000000" points="782,-402.5 782,-432.5 1033,-432.5 1033,-402.5 782,-402.5"/>
<text text-anchor="start" x="789" y="-413.9" font-family="Arial" font-size="14.00" fill="#000000">ill_address    </text>
<text text-anchor="start" x="890.0982" y="-413.9" font-family="Arial" font-size="14.00" fill="#666666">[integer]</text>
<polygon fill="none" stroke="#000000" points="782,-372.5 782,-402.5 1033,-402.5 1033,-372.5 782,-372.5"/>
<text text-anchor="start" x="789" y="-383.9" font-family="Arial" font-size="14.00" fill="#000000">holds_address    </text>
<text text-anchor="start" x="914.2328" y="-383.9" font-family="Arial" font-size="14.00" fill="#666666">[integer]</text>
<polygon fill="none" stroke="#000000" points="782,-342.5 782,-372.5 1033,-372.5 1033,-342.5 782,-342.5"/>
<text text-anchor="start" x="789" y="-353.9" font-family="Arial" font-size="14.00" fill="#000000">mailing_address    </text>
<text text-anchor="start" x="925.1066" y="-353.9" font-family="Arial" font-size="14.00" fill="#666666">[integer]</text>
<polygon fill="none" stroke="#000000" points="782,-312.5 782,-342.5 1033,-342.5 1033,-312.5 782,-312.5"/>
<text text-anchor="start" x="789" y="-323.9" font-family="Arial" font-size="14.00" fill="#000000">billing_address    </text>
<text text-anchor="start" x="916.5526" y="-323.9" font-family="Arial" font-size="14.00" fill="#666666">[integer]</text>
<polygon fill="none" stroke="#000000" points="782,-282.5 782,-312.5 1033,-312.5 1033,-282.5 782,-282.5"/>
<text text-anchor="start" x="789" y="-293.9" font-family="Arial" font-size="14.00" fill="#000000">shortname    </text>
<text text-anchor="start" x="889.3296" y="-293.9" font-family="Arial" font-size="14.00" fill="#666666">[text]</text>
<polygon fill="none" stroke="#000000" points="782,-252.5 782,-282.5 1033,-282.5 1033,-252.5 782,-252.5"/>
<text text-anchor="start" x="789" y="-263.9" font-family="Arial" font-size="14.00" fill="#000000">name    </text>
<text text-anchor="start" x="858.2132" y="-263.9" font-family="Arial" font-size="14.00" fill="#666666">[text]</text>
<polygon fill="none" stroke="#000000" points="782,-222.5 782,-252.5 1033,-252.5 1033,-222.5 782,-222.5"/>
<text text-anchor="start" x="789" y="-233.9" font-family="Arial" font-size="14.00" fill="#000000">email    </text>
<text text-anchor="start" x="856.6438" y="-233.9" font-family="Arial" font-size="14.00" fill="#666666">[text]</text>
<polygon fill="none" stroke="#000000" points="782,-192.5 782,-222.5 1033,-222.5 1033,-192.5 782,-192.5"/>
<text text-anchor="start" x="789" y="-203.9" font-family="Arial" font-size="14.00" fill="#000000">phone    </text>
<text text-anchor="start" x="862.1178" y="-203.9" font-family="Arial" font-size="14.00" fill="#666666">[text]</text>
<polygon fill="none" stroke="#000000" points="782,-162.5 782,-192.5 1033,-192.5 1033,-162.5 782,-162.5"/>
<text text-anchor="start" x="789" y="-173.9" font-family="Arial" font-size="14.00" fill="#000000">opac_visible    </text>
<text text-anchor="start" x="900.2202" y="-173.9" font-family="Arial" font-size="14.00" fill="#666666">[boolean]</text>
<polygon fill="none" stroke="#000000" points="782,-132.5 782,-162.5 1033,-162.5 1033,-132.5 782,-132.5"/>
<text text-anchor="start" x="789" y="-143.9" font-family="Arial" font-size="14.00" fill="#000000">fiscal_calendar    </text>
<text text-anchor="start" x="916.554" y="-143.9" font-family="Arial" font-size="14.00" fill="#666666">[integer]</text>
</g>
<!-- serial.record_entry&#45;&gt;actor.org_unit -->
<g id="edge3" class="edge">
<title>serial.record_entry:owning_lib&#45;&gt;actor.org_unit:id</title>
<path fill="none" stroke="#000000" d="M876.3138,-1057.1639C1007.8318,-1048.2563 907.5269,-864.1539 866,-727 846.4965,-662.5842 801.5035,-665.4158 782,-601 769.9579,-561.2275 740.4444,-507.5 782,-507.5"/>
<polygon fill="#000000" stroke="#000000" points="875.9947,-1057.1742 865.8534,-1053.0024 870.9973,-1057.3371 866,-1057.5 866,-1057.5 866,-1057.5 870.9973,-1057.3371 866.1466,-1061.9976 875.9947,-1057.1742 875.9947,-1057.1742"/>
<text text-anchor="start" x="872.706" y="-1067.5" font-family="Arial" font-size="10.00" fill="#000000">FOREIGN KEY (owning_lib) REFERENCES actor.org_unit(id) ON DELETE SET NULL DEFERRABLE INITIALLY DEFERRED</text>
</g>
<!-- serial.distribution -->
<g id="node2" class="node">
<title>serial.distribution</title>
<polygon fill="#efefef" stroke="transparent" points="583,-1682.5 583,-1717.5 859,-1717.5 859,-1682.5 583,-1682.5"/>
<polygon fill="none" stroke="#000000" points="583,-1682.5 583,-1717.5 859,-1717.5 859,-1682.5 583,-1682.5"/>
<text text-anchor="start" x="589.7133" y="-1695.3" font-family="Arial Bold" font-size="18.00" fill="#000000">serial.distribution</text>
<text text-anchor="start" x="724.7187" y="-1695.3" font-family="Arial" font-size="14.00" fill="#000000">    </text>
<text text-anchor="start" x="758.9235" y="-1695.3" font-family="Arial" font-size="14.00" fill="#666666">[BASE TABLE]</text>
<polygon fill="none" stroke="#000000" points="583,-1652.5 583,-1682.5 859,-1682.5 859,-1652.5 583,-1652.5"/>
<text text-anchor="start" x="590" y="-1663.9" font-family="Arial" font-size="14.00" fill="#000000">id    </text>
<text text-anchor="start" x="635.094" y="-1663.9" font-family="Arial" font-size="14.00" fill="#666666">[integer]</text>
<polygon fill="none" stroke="#000000" points="583,-1622.5 583,-1652.5 859,-1652.5 859,-1622.5 583,-1622.5"/>
<text text-anchor="start" x="590" y="-1633.9" font-family="Arial" font-size="14.00" fill="#000000">record_entry    </text>
<text text-anchor="start" x="702.7728" y="-1633.9" font-family="Arial" font-size="14.00" fill="#666666">[bigint]</text>
<polygon fill="none" stroke="#000000" points="583,-1592.5 583,-1622.5 859,-1622.5 859,-1592.5 583,-1592.5"/>
<text text-anchor="start" x="590" y="-1603.9" font-family="Arial" font-size="14.00" fill="#000000">summary_method    </text>
<text text-anchor="start" x="736.216" y="-1603.9" font-family="Arial" font-size="14.00" fill="#666666">[text]</text>
<polygon fill="none" stroke="#000000" points="583,-1562.5 583,-1592.5 859,-1592.5 859,-1562.5 583,-1562.5"/>
<text text-anchor="start" x="590" y="-1573.9" font-family="Arial" font-size="14.00" fill="#000000">subscription    </text>
<text text-anchor="start" x="698.8822" y="-1573.9" font-family="Arial" font-size="14.00" fill="#666666">[integer]</text>
<polygon fill="none" stroke="#000000" points="583,-1532.5 583,-1562.5 859,-1562.5 859,-1532.5 583,-1532.5"/>
<text text-anchor="start" x="590" y="-1543.9" font-family="Arial" font-size="14.00" fill="#000000">holding_lib    </text>
<text text-anchor="start" x="691.1094" y="-1543.9" font-family="Arial" font-size="14.00" fill="#666666">[integer]</text>
<polygon fill="none" stroke="#000000" points="583,-1502.5 583,-1532.5 859,-1532.5 859,-1502.5 583,-1502.5"/>
<text text-anchor="start" x="590" y="-1513.9" font-family="Arial" font-size="14.00" fill="#000000">label    </text>
<text text-anchor="start" x="653.7658" y="-1513.9" font-family="Arial" font-size="14.00" fill="#666666">[text]</text>
<polygon fill="none" stroke="#000000" points="583,-1472.5 583,-1502.5 859,-1502.5 859,-1472.5 583,-1472.5"/>
<text text-anchor="start" x="590" y="-1483.9" font-family="Arial" font-size="14.00" fill="#000000">display_grouping    </text>
<text text-anchor="start" x="730.0112" y="-1483.9" font-family="Arial" font-size="14.00" fill="#666666">[text]</text>
<polygon fill="none" stroke="#000000" points="583,-1442.5 583,-1472.5 859,-1472.5 859,-1442.5 583,-1442.5"/>
<text text-anchor="start" x="590" y="-1453.9" font-family="Arial" font-size="14.00" fill="#000000">receive_call_number    </text>
<text text-anchor="start" x="753.3324" y="-1453.9" font-family="Arial" font-size="14.00" fill="#666666">[bigint]</text>
<polygon fill="none" stroke="#000000" points="583,-1412.5 583,-1442.5 859,-1442.5 859,-1412.5 583,-1412.5"/>
<text text-anchor="start" x="590" y="-1423.9" font-family="Arial" font-size="14.00" fill="#000000">receive_unit_template    </text>
<text text-anchor="start" x="761.1262" y="-1423.9" font-family="Arial" font-size="14.00" fill="#666666">[integer]</text>
<polygon fill="none" stroke="#000000" points="583,-1382.5 583,-1412.5 859,-1412.5 859,-1382.5 583,-1382.5"/>
<text text-anchor="start" x="590" y="-1393.9" font-family="Arial" font-size="14.00" fill="#000000">bind_call_number    </text>
<text text-anchor="start" x="734.6718" y="-1393.9" font-family="Arial" font-size="14.00" fill="#666666">[bigint]</text>
<polygon fill="none" stroke="#000000" points="583,-1352.5 583,-1382.5 859,-1382.5 859,-1352.5 583,-1352.5"/>
<text text-anchor="start" x="590" y="-1363.9" font-family="Arial" font-size="14.00" fill="#000000">bind_unit_template    </text>
<text text-anchor="start" x="742.4656" y="-1363.9" font-family="Arial" font-size="14.00" fill="#666666">[integer]</text>
<polygon fill="none" stroke="#000000" points="583,-1322.5 583,-1352.5 859,-1352.5 859,-1322.5 583,-1322.5"/>
<text text-anchor="start" x="590" y="-1333.9" font-family="Arial" font-size="14.00" fill="#000000">unit_label_prefix    </text>
<text text-anchor="start" x="726.1164" y="-1333.9" font-family="Arial" font-size="14.00" fill="#666666">[text]</text>
<polygon fill="none" stroke="#000000" points="583,-1292.5 583,-1322.5 859,-1322.5 859,-1292.5 583,-1292.5"/>
<text text-anchor="start" x="590" y="-1303.9" font-family="Arial" font-size="14.00" fill="#000000">unit_label_suffix    </text>
<text text-anchor="start" x="724.5638" y="-1303.9" font-family="Arial" font-size="14.00" fill="#666666">[text]</text>
</g>
<!-- serial.distribution&#45;&gt;serial.record_entry -->
<g id="edge1" class="edge">
<title>serial.distribution:record_entry&#45;&gt;serial.record_entry:id</title>
<path fill="none" stroke="#000000" d="M869.0128,-1637.1685C1090.286,-1622.3772 1093.7463,-1117.5 866,-1117.5"/>
<polygon fill="#000000" stroke="#000000" points="868.9945,-1637.169 858.8511,-1633.0025 863.9973,-1637.3345 859,-1637.5 859,-1637.5 859,-1637.5 863.9973,-1637.3345 859.1489,-1641.9975 868.9945,-1637.169 868.9945,-1637.169"/>
<text text-anchor="start" x="866.4325" y="-1647.5" font-family="Arial" font-size="10.00" fill="#000000">FOREIGN KEY (record_entry) REFERENCES serial.record_entry(id) ON DELETE SET NULL DEFERRABLE INITIALLY DEFERRED</text>
</g>
</g>
</svg>
