<?xml version="1.0" encoding="UTF-8" standalone="no"?>
<!DOCTYPE svg PUBLIC "-//W3C//DTD SVG 1.1//EN"
 "http://www.w3.org/Graphics/SVG/1.1/DTD/svg11.dtd">
<!-- Generated by graphviz version 2.40.1 (20161225.0304)
 -->
<!-- Title: serial.issuance Pages: 1 -->
<svg width="1503pt" height="2669pt"
 viewBox="0.00 0.00 1502.50 2669.00" xmlns="http://www.w3.org/2000/svg" xmlns:xlink="http://www.w3.org/1999/xlink">
<g id="graph0" class="graph" transform="scale(1 1) rotate(0) translate(4 2665)">
<title>serial.issuance</title>
<polygon fill="#ffffff" stroke="transparent" points="-4,4 -4,-2665 1498.5,-2665 1498.5,4 -4,4"/>
<!-- serial.issuance -->
<g id="node1" class="node">
<title>serial.issuance</title>
<polygon fill="#efefef" stroke="transparent" points="510,-2032.5 510,-2067.5 788,-2067.5 788,-2032.5 510,-2032.5"/>
<polygon fill="none" stroke="#000000" points="510,-2032.5 510,-2067.5 788,-2067.5 788,-2032.5 510,-2032.5"/>
<text text-anchor="start" x="525.7089" y="-2045.3" font-family="Arial Bold" font-size="18.00" fill="#000000">serial.issuance</text>
<text text-anchor="start" x="644.7231" y="-2045.3" font-family="Arial" font-size="14.00" fill="#000000">    </text>
<text text-anchor="start" x="678.9279" y="-2045.3" font-family="Arial" font-size="14.00" fill="#666666">[BASE TABLE]</text>
<polygon fill="none" stroke="#000000" points="510,-2002.5 510,-2032.5 788,-2032.5 788,-2002.5 510,-2002.5"/>
<text text-anchor="start" x="517" y="-2013.9" font-family="Arial" font-size="14.00" fill="#000000">id </text>
<text text-anchor="start" x="531.7798" y="-2013.9" font-family="Arial" font-size="14.00" fill="#666666">[integer]</text>
<polygon fill="none" stroke="#000000" points="510,-1972.5 510,-2002.5 788,-2002.5 788,-1972.5 510,-1972.5"/>
<text text-anchor="start" x="517" y="-1983.9" font-family="Arial" font-size="14.00" fill="#000000">creator </text>
<text text-anchor="start" x="564.4502" y="-1983.9" font-family="Arial" font-size="14.00" fill="#666666">[integer]</text>
<polygon fill="none" stroke="#000000" points="510,-1942.5 510,-1972.5 788,-1972.5 788,-1942.5 510,-1942.5"/>
<text text-anchor="start" x="517" y="-1953.9" font-family="Arial" font-size="14.00" fill="#000000">editor </text>
<text text-anchor="start" x="555.8962" y="-1953.9" font-family="Arial" font-size="14.00" fill="#666666">[integer]</text>
<polygon fill="none" stroke="#000000" points="510,-1912.5 510,-1942.5 788,-1942.5 788,-1912.5 510,-1912.5"/>
<text text-anchor="start" x="517" y="-1923.9" font-family="Arial" font-size="14.00" fill="#000000">create_date </text>
<text text-anchor="start" x="594.8106" y="-1923.9" font-family="Arial" font-size="14.00" fill="#666666">[timestamp with time zone]</text>
<polygon fill="none" stroke="#000000" points="510,-1882.5 510,-1912.5 788,-1912.5 788,-1882.5 510,-1882.5"/>
<text text-anchor="start" x="517" y="-1893.9" font-family="Arial" font-size="14.00" fill="#000000">edit_date </text>
<text text-anchor="start" x="578.474" y="-1893.9" font-family="Arial" font-size="14.00" fill="#666666">[timestamp with time zone]</text>
<polygon fill="none" stroke="#000000" points="510,-1852.5 510,-1882.5 788,-1882.5 788,-1852.5 510,-1852.5"/>
<text text-anchor="start" x="517" y="-1863.9" font-family="Arial" font-size="14.00" fill="#000000">subscription </text>
<text text-anchor="start" x="595.568" y="-1863.9" font-family="Arial" font-size="14.00" fill="#666666">[integer]</text>
<polygon fill="none" stroke="#000000" points="510,-1822.5 510,-1852.5 788,-1852.5 788,-1822.5 510,-1822.5"/>
<text text-anchor="start" x="517" y="-1833.9" font-family="Arial" font-size="14.00" fill="#000000">label </text>
<text text-anchor="start" x="550.4516" y="-1833.9" font-family="Arial" font-size="14.00" fill="#666666">[text]</text>
<polygon fill="none" stroke="#000000" points="510,-1792.5 510,-1822.5 788,-1822.5 788,-1792.5 510,-1792.5"/>
<text text-anchor="start" x="516.7476" y="-1803.9" font-family="Arial" font-size="14.00" fill="#000000">date_published </text>
<text text-anchor="start" x="615.568" y="-1803.9" font-family="Arial" font-size="14.00" fill="#666666">[timestamp with time zone]</text>
<polygon fill="none" stroke="#000000" points="510,-1762.5 510,-1792.5 788,-1792.5 788,-1762.5 510,-1762.5"/>
<text text-anchor="start" x="517" y="-1773.9" font-family="Arial" font-size="14.00" fill="#000000">caption_and_pattern </text>
<text text-anchor="start" x="648.5034" y="-1773.9" font-family="Arial" font-size="14.00" fill="#666666">[integer]</text>
<polygon fill="none" stroke="#000000" points="510,-1732.5 510,-1762.5 788,-1762.5 788,-1732.5 510,-1732.5"/>
<text text-anchor="start" x="517" y="-1743.9" font-family="Arial" font-size="14.00" fill="#000000">holding_code </text>
<text text-anchor="start" x="604.1472" y="-1743.9" font-family="Arial" font-size="14.00" fill="#666666">[text]</text>
<polygon fill="none" stroke="#000000" points="510,-1702.5 510,-1732.5 788,-1732.5 788,-1702.5 510,-1702.5"/>
<text text-anchor="start" x="517" y="-1713.9" font-family="Arial" font-size="14.00" fill="#000000">holding_type </text>
<text text-anchor="start" x="600.2552" y="-1713.9" font-family="Arial" font-size="14.00" fill="#666666">[text]</text>
<polygon fill="none" stroke="#000000" points="510,-1672.5 510,-1702.5 788,-1702.5 788,-1672.5 510,-1672.5"/>
<text text-anchor="start" x="517" y="-1683.9" font-family="Arial" font-size="14.00" fill="#000000">holding_link_id </text>
<text text-anchor="start" x="613.467" y="-1683.9" font-family="Arial" font-size="14.00" fill="#666666">[integer]</text>
<polygon fill="none" stroke="#000000" stroke-width="3" points="508.5,-1671.5 508.5,-2069.5 789.5,-2069.5 789.5,-1671.5 508.5,-1671.5"/>
</g>
<!-- actor.usr -->
<g id="node4" class="node">
<title>actor.usr</title>
<polygon fill="#efefef" stroke="transparent" points="285,-1512.5 285,-1547.5 605,-1547.5 605,-1512.5 285,-1512.5"/>
<polygon fill="none" stroke="#000000" points="285,-1512.5 285,-1547.5 605,-1547.5 605,-1512.5 285,-1512.5"/>
<text text-anchor="start" x="346.2123" y="-1525.3" font-family="Arial Bold" font-size="18.00" fill="#000000">actor.usr</text>
<text text-anchor="start" x="416.2197" y="-1525.3" font-family="Arial" font-size="14.00" fill="#000000">    </text>
<text text-anchor="start" x="450.4245" y="-1525.3" font-family="Arial" font-size="14.00" fill="#666666">[BASE TABLE]</text>
<polygon fill="none" stroke="#000000" points="285,-1482.5 285,-1512.5 605,-1512.5 605,-1482.5 285,-1482.5"/>
<text text-anchor="start" x="292" y="-1493.9" font-family="Arial" font-size="14.00" fill="#000000">id    </text>
<text text-anchor="start" x="337.094" y="-1493.9" font-family="Arial" font-size="14.00" fill="#666666">[integer]</text>
<polygon fill="none" stroke="#000000" points="285,-1452.5 285,-1482.5 605,-1482.5 605,-1452.5 285,-1452.5"/>
<text text-anchor="start" x="292" y="-1463.9" font-family="Arial" font-size="14.00" fill="#000000">card    </text>
<text text-anchor="start" x="353.4306" y="-1463.9" font-family="Arial" font-size="14.00" fill="#666666">[integer]</text>
<polygon fill="none" stroke="#000000" points="285,-1422.5 285,-1452.5 605,-1452.5 605,-1422.5 285,-1422.5"/>
<text text-anchor="start" x="292" y="-1433.9" font-family="Arial" font-size="14.00" fill="#000000">profile    </text>
<text text-anchor="start" x="364.317" y="-1433.9" font-family="Arial" font-size="14.00" fill="#666666">[integer]</text>
<polygon fill="none" stroke="#000000" points="285,-1392.5 285,-1422.5 605,-1422.5 605,-1392.5 285,-1392.5"/>
<text text-anchor="start" x="292" y="-1403.9" font-family="Arial" font-size="14.00" fill="#000000">usrname    </text>
<text text-anchor="start" x="380.6564" y="-1403.9" font-family="Arial" font-size="14.00" fill="#666666">[text]</text>
<polygon fill="none" stroke="#000000" points="285,-1362.5 285,-1392.5 605,-1392.5 605,-1362.5 285,-1362.5"/>
<text text-anchor="start" x="292" y="-1373.9" font-family="Arial" font-size="14.00" fill="#000000">email    </text>
<text text-anchor="start" x="359.6438" y="-1373.9" font-family="Arial" font-size="14.00" fill="#666666">[text]</text>
<polygon fill="none" stroke="#000000" points="285,-1332.5 285,-1362.5 605,-1362.5 605,-1332.5 285,-1332.5"/>
<text text-anchor="start" x="292" y="-1343.9" font-family="Arial" font-size="14.00" fill="#000000">passwd    </text>
<text text-anchor="start" x="373.6592" y="-1343.9" font-family="Arial" font-size="14.00" fill="#666666">[text]</text>
<polygon fill="none" stroke="#000000" points="285,-1302.5 285,-1332.5 605,-1332.5 605,-1302.5 285,-1302.5"/>
<text text-anchor="start" x="292" y="-1313.9" font-family="Arial" font-size="14.00" fill="#000000">standing    </text>
<text text-anchor="start" x="379.115" y="-1313.9" font-family="Arial" font-size="14.00" fill="#666666">[integer]</text>
<polygon fill="none" stroke="#000000" points="285,-1272.5 285,-1302.5 605,-1302.5 605,-1272.5 285,-1272.5"/>
<text text-anchor="start" x="292" y="-1283.9" font-family="Arial" font-size="14.00" fill="#000000">ident_type    </text>
<text text-anchor="start" x="390.7882" y="-1283.9" font-family="Arial" font-size="14.00" fill="#666666">[integer]</text>
<polygon fill="none" stroke="#000000" points="285,-1242.5 285,-1272.5 605,-1272.5 605,-1242.5 285,-1242.5"/>
<text text-anchor="start" x="292" y="-1253.9" font-family="Arial" font-size="14.00" fill="#000000">ident_value    </text>
<text text-anchor="start" x="397.7868" y="-1253.9" font-family="Arial" font-size="14.00" fill="#666666">[text]</text>
<polygon fill="none" stroke="#000000" points="285,-1212.5 285,-1242.5 605,-1242.5 605,-1212.5 285,-1212.5"/>
<text text-anchor="start" x="292" y="-1223.9" font-family="Arial" font-size="14.00" fill="#000000">ident_type2    </text>
<text text-anchor="start" x="398.5708" y="-1223.9" font-family="Arial" font-size="14.00" fill="#666666">[integer]</text>
<polygon fill="none" stroke="#000000" points="285,-1182.5 285,-1212.5 605,-1212.5 605,-1182.5 285,-1182.5"/>
<text text-anchor="start" x="292" y="-1193.9" font-family="Arial" font-size="14.00" fill="#000000">ident_value2    </text>
<text text-anchor="start" x="405.5694" y="-1193.9" font-family="Arial" font-size="14.00" fill="#666666">[text]</text>
<polygon fill="none" stroke="#000000" points="285,-1152.5 285,-1182.5 605,-1182.5 605,-1152.5 285,-1152.5"/>
<text text-anchor="start" x="292" y="-1163.9" font-family="Arial" font-size="14.00" fill="#000000">net_access_level    </text>
<text text-anchor="start" x="433.5694" y="-1163.9" font-family="Arial" font-size="14.00" fill="#666666">[integer]</text>
<polygon fill="none" stroke="#000000" points="285,-1122.5 285,-1152.5 605,-1152.5 605,-1122.5 285,-1122.5"/>
<text text-anchor="start" x="292" y="-1133.9" font-family="Arial" font-size="14.00" fill="#000000">photo_url    </text>
<text text-anchor="start" x="384.5582" y="-1133.9" font-family="Arial" font-size="14.00" fill="#666666">[text]</text>
<polygon fill="none" stroke="#000000" points="285,-1092.5 285,-1122.5 605,-1122.5 605,-1092.5 285,-1092.5"/>
<text text-anchor="start" x="292" y="-1103.9" font-family="Arial" font-size="14.00" fill="#000000">prefix    </text>
<text text-anchor="start" x="360.4278" y="-1103.9" font-family="Arial" font-size="14.00" fill="#666666">[text]</text>
<polygon fill="none" stroke="#000000" points="285,-1062.5 285,-1092.5 605,-1092.5 605,-1062.5 285,-1062.5"/>
<text text-anchor="start" x="292" y="-1073.9" font-family="Arial" font-size="14.00" fill="#000000">first_given_name    </text>
<text text-anchor="start" x="432.7812" y="-1073.9" font-family="Arial" font-size="14.00" fill="#666666">[text]</text>
<polygon fill="none" stroke="#000000" points="285,-1032.5 285,-1062.5 605,-1062.5 605,-1032.5 285,-1032.5"/>
<text text-anchor="start" x="292" y="-1043.9" font-family="Arial" font-size="14.00" fill="#000000">second_given_name    </text>
<text text-anchor="start" x="455.3632" y="-1043.9" font-family="Arial" font-size="14.00" fill="#666666">[text]</text>
<polygon fill="none" stroke="#000000" points="285,-1002.5 285,-1032.5 605,-1032.5 605,-1002.5 285,-1002.5"/>
<text text-anchor="start" x="292" y="-1013.9" font-family="Arial" font-size="14.00" fill="#000000">family_name    </text>
<text text-anchor="start" x="405.5428" y="-1013.9" font-family="Arial" font-size="14.00" fill="#666666">[text]</text>
<polygon fill="none" stroke="#000000" points="285,-972.5 285,-1002.5 605,-1002.5 605,-972.5 285,-972.5"/>
<text text-anchor="start" x="292" y="-983.9" font-family="Arial" font-size="14.00" fill="#000000">suffix    </text>
<text text-anchor="start" x="358.8752" y="-983.9" font-family="Arial" font-size="14.00" fill="#666666">[text]</text>
<polygon fill="none" stroke="#000000" points="285,-942.5 285,-972.5 605,-972.5 605,-942.5 285,-942.5"/>
<text text-anchor="start" x="292" y="-953.9" font-family="Arial" font-size="14.00" fill="#000000">alias    </text>
<text text-anchor="start" x="354.9832" y="-953.9" font-family="Arial" font-size="14.00" fill="#666666">[text]</text>
<polygon fill="none" stroke="#000000" points="285,-912.5 285,-942.5 605,-942.5 605,-912.5 285,-912.5"/>
<text text-anchor="start" x="292" y="-923.9" font-family="Arial" font-size="14.00" fill="#000000">day_phone    </text>
<text text-anchor="start" x="395.4656" y="-923.9" font-family="Arial" font-size="14.00" fill="#666666">[text]</text>
<polygon fill="none" stroke="#000000" points="285,-882.5 285,-912.5 605,-912.5 605,-882.5 285,-882.5"/>
<text text-anchor="start" x="292" y="-893.9" font-family="Arial" font-size="14.00" fill="#000000">evening_phone    </text>
<text text-anchor="start" x="421.92" y="-893.9" font-family="Arial" font-size="14.00" fill="#666666">[text]</text>
<polygon fill="none" stroke="#000000" points="285,-852.5 285,-882.5 605,-882.5 605,-852.5 285,-852.5"/>
<text text-anchor="start" x="292" y="-863.9" font-family="Arial" font-size="14.00" fill="#000000">other_phone    </text>
<text text-anchor="start" x="404.7994" y="-863.9" font-family="Arial" font-size="14.00" fill="#666666">[text]</text>
<polygon fill="none" stroke="#000000" points="285,-822.5 285,-852.5 605,-852.5 605,-822.5 285,-822.5"/>
<text text-anchor="start" x="292" y="-833.9" font-family="Arial" font-size="14.00" fill="#000000">mailing_address    </text>
<text text-anchor="start" x="428.1066" y="-833.9" font-family="Arial" font-size="14.00" fill="#666666">[integer]</text>
<polygon fill="none" stroke="#000000" points="285,-792.5 285,-822.5 605,-822.5 605,-792.5 285,-792.5"/>
<text text-anchor="start" x="292" y="-803.9" font-family="Arial" font-size="14.00" fill="#000000">billing_address    </text>
<text text-anchor="start" x="419.5526" y="-803.9" font-family="Arial" font-size="14.00" fill="#666666">[integer]</text>
<polygon fill="none" stroke="#000000" points="285,-762.5 285,-792.5 605,-792.5 605,-762.5 285,-762.5"/>
<text text-anchor="start" x="292" y="-773.9" font-family="Arial" font-size="14.00" fill="#000000">home_ou    </text>
<text text-anchor="start" x="384.561" y="-773.9" font-family="Arial" font-size="14.00" fill="#666666">[integer]</text>
<polygon fill="none" stroke="#000000" points="285,-732.5 285,-762.5 605,-762.5 605,-732.5 285,-732.5"/>
<text text-anchor="start" x="292" y="-743.9" font-family="Arial" font-size="14.00" fill="#000000">dob    </text>
<text text-anchor="start" x="349.5526" y="-743.9" font-family="Arial" font-size="14.00" fill="#666666">[date]</text>
<polygon fill="none" stroke="#000000" points="285,-702.5 285,-732.5 605,-732.5 605,-702.5 285,-702.5"/>
<text text-anchor="start" x="292" y="-713.9" font-family="Arial" font-size="14.00" fill="#000000">active    </text>
<text text-anchor="start" x="362.7672" y="-713.9" font-family="Arial" font-size="14.00" fill="#666666">[boolean]</text>
<polygon fill="none" stroke="#000000" points="285,-672.5 285,-702.5 605,-702.5 605,-672.5 285,-672.5"/>
<text text-anchor="start" x="292" y="-683.9" font-family="Arial" font-size="14.00" fill="#000000">master_account    </text>
<text text-anchor="start" x="425.7854" y="-683.9" font-family="Arial" font-size="14.00" fill="#666666">[boolean]</text>
<polygon fill="none" stroke="#000000" points="285,-642.5 285,-672.5 605,-672.5 605,-642.5 285,-642.5"/>
<text text-anchor="start" x="292" y="-653.9" font-family="Arial" font-size="14.00" fill="#000000">super_user    </text>
<text text-anchor="start" x="396.2216" y="-653.9" font-family="Arial" font-size="14.00" fill="#666666">[boolean]</text>
<polygon fill="none" stroke="#000000" points="285,-612.5 285,-642.5 605,-642.5 605,-612.5 285,-612.5"/>
<text text-anchor="start" x="292" y="-623.9" font-family="Arial" font-size="14.00" fill="#000000">barred    </text>
<text text-anchor="start" x="366.6564" y="-623.9" font-family="Arial" font-size="14.00" fill="#666666">[boolean]</text>
<polygon fill="none" stroke="#000000" points="285,-582.5 285,-612.5 605,-612.5 605,-582.5 285,-582.5"/>
<text text-anchor="start" x="292" y="-593.9" font-family="Arial" font-size="14.00" fill="#000000">deleted    </text>
<text text-anchor="start" x="372.115" y="-593.9" font-family="Arial" font-size="14.00" fill="#666666">[boolean]</text>
<polygon fill="none" stroke="#000000" points="285,-552.5 285,-582.5 605,-582.5 605,-552.5 285,-552.5"/>
<text text-anchor="start" x="292" y="-563.9" font-family="Arial" font-size="14.00" fill="#000000">juvenile    </text>
<text text-anchor="start" x="373.655" y="-563.9" font-family="Arial" font-size="14.00" fill="#666666">[boolean]</text>
<polygon fill="none" stroke="#000000" points="285,-522.5 285,-552.5 605,-552.5 605,-522.5 285,-522.5"/>
<text text-anchor="start" x="292" y="-533.9" font-family="Arial" font-size="14.00" fill="#000000">usrgroup    </text>
<text text-anchor="start" x="381.439" y="-533.9" font-family="Arial" font-size="14.00" fill="#666666">[integer]</text>
<polygon fill="none" stroke="#000000" points="285,-492.5 285,-522.5 605,-522.5 605,-492.5 285,-492.5"/>
<text text-anchor="start" x="292" y="-503.9" font-family="Arial" font-size="14.00" fill="#000000">claims_returned_count    </text>
<text text-anchor="start" x="467.7896" y="-503.9" font-family="Arial" font-size="14.00" fill="#666666">[integer]</text>
<polygon fill="none" stroke="#000000" points="285,-462.5 285,-492.5 605,-492.5 605,-462.5 285,-462.5"/>
<text text-anchor="start" x="292" y="-473.9" font-family="Arial" font-size="14.00" fill="#000000">credit_forward_balance    </text>
<text text-anchor="start" x="471.6788" y="-473.9" font-family="Arial" font-size="14.00" fill="#666666">[numeric(6,2)]</text>
<polygon fill="none" stroke="#000000" points="285,-432.5 285,-462.5 605,-462.5 605,-432.5 285,-432.5"/>
<text text-anchor="start" x="292" y="-443.9" font-family="Arial" font-size="14.00" fill="#000000">last_xact_id    </text>
<text text-anchor="start" x="400.1122" y="-443.9" font-family="Arial" font-size="14.00" fill="#666666">[text]</text>
<polygon fill="none" stroke="#000000" points="285,-402.5 285,-432.5 605,-432.5 605,-402.5 285,-402.5"/>
<text text-anchor="start" x="292" y="-413.9" font-family="Arial" font-size="14.00" fill="#000000">alert_message    </text>
<text text-anchor="start" x="418.0014" y="-413.9" font-family="Arial" font-size="14.00" fill="#666666">[text]</text>
<polygon fill="none" stroke="#000000" points="285,-372.5 285,-402.5 605,-402.5 605,-372.5 285,-372.5"/>
<text text-anchor="start" x="292" y="-383.9" font-family="Arial" font-size="14.00" fill="#000000">create_date    </text>
<text text-anchor="start" x="400.1248" y="-383.9" font-family="Arial" font-size="14.00" fill="#666666">[timestamp with time zone]</text>
<polygon fill="none" stroke="#000000" points="285,-342.5 285,-372.5 605,-372.5 605,-342.5 285,-342.5"/>
<text text-anchor="start" x="292" y="-353.9" font-family="Arial" font-size="14.00" fill="#000000">expire_date    </text>
<text text-anchor="start" x="399.3408" y="-353.9" font-family="Arial" font-size="14.00" fill="#666666">[timestamp with time zone]</text>
<polygon fill="none" stroke="#000000" points="285,-312.5 285,-342.5 605,-342.5 605,-312.5 285,-312.5"/>
<text text-anchor="start" x="292" y="-323.9" font-family="Arial" font-size="14.00" fill="#000000">claims_never_checked_out_count    </text>
<text text-anchor="start" x="537.8246" y="-323.9" font-family="Arial" font-size="14.00" fill="#666666">[integer]</text>
<polygon fill="none" stroke="#000000" points="285,-282.5 285,-312.5 605,-312.5 605,-282.5 285,-282.5"/>
<text text-anchor="start" x="291.7609" y="-293.9" font-family="Arial" font-size="14.00" fill="#000000">last_update_time    </text>
<text text-anchor="start" x="432.5547" y="-293.9" font-family="Arial" font-size="14.00" fill="#666666">[timestamp with time zone]</text>
<polygon fill="none" stroke="#000000" points="285,-252.5 285,-282.5 605,-282.5 605,-252.5 285,-252.5"/>
<text text-anchor="start" x="292" y="-263.9" font-family="Arial" font-size="14.00" fill="#000000">pref_prefix    </text>
<text text-anchor="start" x="392.3268" y="-263.9" font-family="Arial" font-size="14.00" fill="#666666">[text]</text>
<polygon fill="none" stroke="#000000" points="285,-222.5 285,-252.5 605,-252.5 605,-222.5 285,-222.5"/>
<text text-anchor="start" x="292" y="-233.9" font-family="Arial" font-size="14.00" fill="#000000">pref_first_given_name    </text>
<text text-anchor="start" x="464.6802" y="-233.9" font-family="Arial" font-size="14.00" fill="#666666">[text]</text>
<polygon fill="none" stroke="#000000" points="285,-192.5 285,-222.5 605,-222.5 605,-192.5 285,-192.5"/>
<text text-anchor="start" x="292" y="-203.9" font-family="Arial" font-size="14.00" fill="#000000">pref_second_given_name    </text>
<text text-anchor="start" x="487.2622" y="-203.9" font-family="Arial" font-size="14.00" fill="#666666">[text]</text>
<polygon fill="none" stroke="#000000" points="285,-162.5 285,-192.5 605,-192.5 605,-162.5 285,-162.5"/>
<text text-anchor="start" x="292" y="-173.9" font-family="Arial" font-size="14.00" fill="#000000">pref_family_name    </text>
<text text-anchor="start" x="437.4418" y="-173.9" font-family="Arial" font-size="14.00" fill="#666666">[text]</text>
<polygon fill="none" stroke="#000000" points="285,-132.5 285,-162.5 605,-162.5 605,-132.5 285,-132.5"/>
<text text-anchor="start" x="292" y="-143.9" font-family="Arial" font-size="14.00" fill="#000000">pref_suffix    </text>
<text text-anchor="start" x="390.7742" y="-143.9" font-family="Arial" font-size="14.00" fill="#666666">[text]</text>
<polygon fill="none" stroke="#000000" points="285,-102.5 285,-132.5 605,-132.5 605,-102.5 285,-102.5"/>
<text text-anchor="start" x="292" y="-113.9" font-family="Arial" font-size="14.00" fill="#000000">name_keywords    </text>
<text text-anchor="start" x="428.1108" y="-113.9" font-family="Arial" font-size="14.00" fill="#666666">[text]</text>
<polygon fill="none" stroke="#000000" points="285,-72.5 285,-102.5 605,-102.5 605,-72.5 285,-72.5"/>
<text text-anchor="start" x="292" y="-83.9" font-family="Arial" font-size="14.00" fill="#000000">name_kw_tsvector    </text>
<text text-anchor="start" x="442.892" y="-83.9" font-family="Arial" font-size="14.00" fill="#666666">[tsvector]</text>
<polygon fill="none" stroke="#000000" points="285,-42.5 285,-72.5 605,-72.5 605,-42.5 285,-42.5"/>
<text text-anchor="start" x="292" y="-53.9" font-family="Arial" font-size="14.00" fill="#000000">guardian    </text>
<text text-anchor="start" x="380.6676" y="-53.9" font-family="Arial" font-size="14.00" fill="#666666">[text]</text>
</g>
<!-- serial.issuance&#45;&gt;actor.usr -->
<g id="edge3" class="edge">
<title>serial.issuance:creator&#45;&gt;actor.usr:id</title>
<path fill="none" stroke="#000000" d="M499.9888,-1987.1866C352.7608,-1977.7198 420.9218,-1756.0156 510,-1627 535.6543,-1589.8439 579.3457,-1628.1561 605,-1591 628.6108,-1556.8036 646.5556,-1497.5 605,-1497.5"/>
<polygon fill="#000000" stroke="#000000" points="500.0049,-1987.187 509.8592,-1991.9978 505.0024,-1987.3435 510,-1987.5 510,-1987.5 510,-1987.5 505.0024,-1987.3435 510.1408,-1983.0022 500.0049,-1987.187 500.0049,-1987.187"/>
<text text-anchor="start" x="90.8865" y="-1997.5" font-family="Arial" font-size="10.00" fill="#000000">FOREIGN KEY (creator) REFERENCES actor.usr(id) DEFERRABLE INITIALLY DEFERRED</text>
</g>
<!-- serial.issuance&#45;&gt;actor.usr -->
<g id="edge4" class="edge">
<title>serial.issuance:editor&#45;&gt;actor.usr:id</title>
<path fill="none" stroke="#000000" d="M499.6148,-1957.1295C366.2202,-1947.3174 428.5792,-1744.9251 510,-1627 535.6543,-1589.8439 579.3457,-1628.1561 605,-1591 628.6108,-1556.8036 646.5556,-1497.5 605,-1497.5"/>
<polygon fill="#000000" stroke="#000000" points="500.0064,-1957.1434 509.8395,-1961.9971 505.0032,-1957.3217 510,-1957.5 510,-1957.5 510,-1957.5 505.0032,-1957.3217 510.1605,-1953.0029 500.0064,-1957.1434 500.0064,-1957.1434"/>
<text text-anchor="start" x="96.9415" y="-1967.5" font-family="Arial" font-size="10.00" fill="#000000">FOREIGN KEY (editor) REFERENCES actor.usr(id) DEFERRABLE INITIALLY DEFERRED</text>
</g>
<!-- serial.subscription -->
<g id="node5" class="node">
<title>serial.subscription</title>
<polygon fill="#efefef" stroke="transparent" points="710,-867.5 710,-902.5 995,-902.5 995,-867.5 710,-867.5"/>
<polygon fill="none" stroke="#000000" points="710,-867.5 710,-902.5 995,-902.5 995,-867.5 710,-867.5"/>
<text text-anchor="start" x="716.7115" y="-880.3" font-family="Arial Bold" font-size="18.00" fill="#000000">serial.subscription</text>
<text text-anchor="start" x="860.7205" y="-880.3" font-family="Arial" font-size="14.00" fill="#000000">    </text>
<text text-anchor="start" x="894.9253" y="-880.3" font-family="Arial" font-size="14.00" fill="#666666">[BASE TABLE]</text>
<polygon fill="none" stroke="#000000" points="710,-837.5 710,-867.5 995,-867.5 995,-837.5 710,-837.5"/>
<text text-anchor="start" x="717" y="-848.9" font-family="Arial" font-size="14.00" fill="#000000">id    </text>
<text text-anchor="start" x="762.094" y="-848.9" font-family="Arial" font-size="14.00" fill="#666666">[integer]</text>
<polygon fill="none" stroke="#000000" points="710,-807.5 710,-837.5 995,-837.5 995,-807.5 710,-807.5"/>
<text text-anchor="start" x="717" y="-818.9" font-family="Arial" font-size="14.00" fill="#000000">owning_lib    </text>
<text text-anchor="start" x="817.3268" y="-818.9" font-family="Arial" font-size="14.00" fill="#666666">[integer]</text>
<polygon fill="none" stroke="#000000" points="710,-777.5 710,-807.5 995,-807.5 995,-777.5 710,-777.5"/>
<text text-anchor="start" x="717" y="-788.9" font-family="Arial" font-size="14.00" fill="#000000">start_date    </text>
<text text-anchor="start" x="813.4502" y="-788.9" font-family="Arial" font-size="14.00" fill="#666666">[timestamp with time zone]</text>
<polygon fill="none" stroke="#000000" points="710,-747.5 710,-777.5 995,-777.5 995,-747.5 710,-747.5"/>
<text text-anchor="start" x="717" y="-758.9" font-family="Arial" font-size="14.00" fill="#000000">end_date    </text>
<text text-anchor="start" x="809.5736" y="-758.9" font-family="Arial" font-size="14.00" fill="#666666">[timestamp with time zone]</text>
<polygon fill="none" stroke="#000000" points="710,-717.5 710,-747.5 995,-747.5 995,-717.5 710,-717.5"/>
<text text-anchor="start" x="717" y="-728.9" font-family="Arial" font-size="14.00" fill="#000000">record_entry    </text>
<text text-anchor="start" x="829.7728" y="-728.9" font-family="Arial" font-size="14.00" fill="#666666">[bigint]</text>
<polygon fill="none" stroke="#000000" points="710,-687.5 710,-717.5 995,-717.5 995,-687.5 710,-687.5"/>
<text text-anchor="start" x="717" y="-698.9" font-family="Arial" font-size="14.00" fill="#000000">expected_date_offset    </text>
<text text-anchor="start" x="885.049" y="-698.9" font-family="Arial" font-size="14.00" fill="#666666">[interval]</text>
</g>
<!-- serial.issuance&#45;&gt;serial.subscription -->
<g id="edge5" class="edge">
<title>serial.issuance:subscription&#45;&gt;serial.subscription:id</title>
<path fill="none" stroke="#000000" d="M797.6631,-1864.4056C881.9357,-1803.1342 600.5349,-852.5 710,-852.5"/>
<polygon fill="#000000" stroke="#000000" points="797.5236,-1864.4502 786.6276,-1863.2144 792.7618,-1865.9751 788,-1867.5 788,-1867.5 788,-1867.5 792.7618,-1865.9751 789.3724,-1871.7856 797.5236,-1864.4502 797.5236,-1864.4502"/>
<text text-anchor="start" x="794.936" y="-1877.5" font-family="Arial" font-size="10.00" fill="#000000">FOREIGN KEY (subscription) REFERENCES serial.subscription(id) ON DELETE CASCADE DEFERRABLE INITIALLY DEFERRED</text>
</g>
<!-- serial.caption_and_pattern -->
<g id="node6" class="node">
<title>serial.caption_and_pattern</title>
<polygon fill="#efefef" stroke="transparent" points="1099,-1062.5 1099,-1097.5 1452,-1097.5 1452,-1062.5 1099,-1062.5"/>
<polygon fill="none" stroke="#000000" points="1099,-1062.5 1099,-1097.5 1452,-1097.5 1452,-1062.5 1099,-1062.5"/>
<text text-anchor="start" x="1105.6816" y="-1075.3" font-family="Arial Bold" font-size="18.00" fill="#000000">serial.caption_and_pattern</text>
<text text-anchor="start" x="1317.7504" y="-1075.3" font-family="Arial" font-size="14.00" fill="#000000">    </text>
<text text-anchor="start" x="1351.9552" y="-1075.3" font-family="Arial" font-size="14.00" fill="#666666">[BASE TABLE]</text>
<polygon fill="none" stroke="#000000" points="1099,-1032.5 1099,-1062.5 1452,-1062.5 1452,-1032.5 1099,-1032.5"/>
<text text-anchor="start" x="1106" y="-1043.9" font-family="Arial" font-size="14.00" fill="#000000">id    </text>
<text text-anchor="start" x="1151.094" y="-1043.9" font-family="Arial" font-size="14.00" fill="#666666">[integer]</text>
<polygon fill="none" stroke="#000000" points="1099,-1002.5 1099,-1032.5 1452,-1032.5 1452,-1002.5 1099,-1002.5"/>
<text text-anchor="start" x="1106" y="-1013.9" font-family="Arial" font-size="14.00" fill="#000000">subscription    </text>
<text text-anchor="start" x="1214.8822" y="-1013.9" font-family="Arial" font-size="14.00" fill="#666666">[integer]</text>
<polygon fill="none" stroke="#000000" points="1099,-972.5 1099,-1002.5 1452,-1002.5 1452,-972.5 1099,-972.5"/>
<text text-anchor="start" x="1106" y="-983.9" font-family="Arial" font-size="14.00" fill="#000000">type    </text>
<text text-anchor="start" x="1166.6606" y="-983.9" font-family="Arial" font-size="14.00" fill="#666666">[text]</text>
<polygon fill="none" stroke="#000000" points="1099,-942.5 1099,-972.5 1452,-972.5 1452,-942.5 1099,-942.5"/>
<text text-anchor="start" x="1106" y="-953.9" font-family="Arial" font-size="14.00" fill="#000000">create_date    </text>
<text text-anchor="start" x="1214.1248" y="-953.9" font-family="Arial" font-size="14.00" fill="#666666">[timestamp with time zone]</text>
<polygon fill="none" stroke="#000000" points="1099,-912.5 1099,-942.5 1452,-942.5 1452,-912.5 1099,-912.5"/>
<text text-anchor="start" x="1106" y="-923.9" font-family="Arial" font-size="14.00" fill="#000000">start_date    </text>
<text text-anchor="start" x="1202.4502" y="-923.9" font-family="Arial" font-size="14.00" fill="#666666">[timestamp with time zone]</text>
<polygon fill="none" stroke="#000000" points="1099,-882.5 1099,-912.5 1452,-912.5 1452,-882.5 1099,-882.5"/>
<text text-anchor="start" x="1106" y="-893.9" font-family="Arial" font-size="14.00" fill="#000000">end_date    </text>
<text text-anchor="start" x="1198.5736" y="-893.9" font-family="Arial" font-size="14.00" fill="#666666">[timestamp with time zone]</text>
<polygon fill="none" stroke="#000000" points="1099,-852.5 1099,-882.5 1452,-882.5 1452,-852.5 1099,-852.5"/>
<text text-anchor="start" x="1106" y="-863.9" font-family="Arial" font-size="14.00" fill="#000000">active    </text>
<text text-anchor="start" x="1176.7672" y="-863.9" font-family="Arial" font-size="14.00" fill="#666666">[boolean]</text>
<polygon fill="none" stroke="#000000" points="1099,-822.5 1099,-852.5 1452,-852.5 1452,-822.5 1099,-822.5"/>
<text text-anchor="start" x="1106" y="-833.9" font-family="Arial" font-size="14.00" fill="#000000">pattern_code    </text>
<text text-anchor="start" x="1221.9074" y="-833.9" font-family="Arial" font-size="14.00" fill="#666666">[text]</text>
<polygon fill="none" stroke="#000000" points="1099,-792.5 1099,-822.5 1452,-822.5 1452,-792.5 1099,-792.5"/>
<text text-anchor="start" x="1106" y="-803.9" font-family="Arial" font-size="14.00" fill="#000000">enum_1    </text>
<text text-anchor="start" x="1190.7784" y="-803.9" font-family="Arial" font-size="14.00" fill="#666666">[text]</text>
<polygon fill="none" stroke="#000000" points="1099,-762.5 1099,-792.5 1452,-792.5 1452,-762.5 1099,-762.5"/>
<text text-anchor="start" x="1106" y="-773.9" font-family="Arial" font-size="14.00" fill="#000000">enum_2    </text>
<text text-anchor="start" x="1190.7784" y="-773.9" font-family="Arial" font-size="14.00" fill="#666666">[text]</text>
<polygon fill="none" stroke="#000000" points="1099,-732.5 1099,-762.5 1452,-762.5 1452,-732.5 1099,-732.5"/>
<text text-anchor="start" x="1106" y="-743.9" font-family="Arial" font-size="14.00" fill="#000000">enum_3    </text>
<text text-anchor="start" x="1190.7784" y="-743.9" font-family="Arial" font-size="14.00" fill="#666666">[text]</text>
<polygon fill="none" stroke="#000000" points="1099,-702.5 1099,-732.5 1452,-732.5 1452,-702.5 1099,-702.5"/>
<text text-anchor="start" x="1106" y="-713.9" font-family="Arial" font-size="14.00" fill="#000000">enum_4    </text>
<text text-anchor="start" x="1190.7784" y="-713.9" font-family="Arial" font-size="14.00" fill="#666666">[text]</text>
<polygon fill="none" stroke="#000000" points="1099,-672.5 1099,-702.5 1452,-702.5 1452,-672.5 1099,-672.5"/>
<text text-anchor="start" x="1106" y="-683.9" font-family="Arial" font-size="14.00" fill="#000000">enum_5    </text>
<text text-anchor="start" x="1190.7784" y="-683.9" font-family="Arial" font-size="14.00" fill="#666666">[text]</text>
<polygon fill="none" stroke="#000000" points="1099,-642.5 1099,-672.5 1452,-672.5 1452,-642.5 1099,-642.5"/>
<text text-anchor="start" x="1106" y="-653.9" font-family="Arial" font-size="14.00" fill="#000000">enum_6    </text>
<text text-anchor="start" x="1190.7784" y="-653.9" font-family="Arial" font-size="14.00" fill="#666666">[text]</text>
<polygon fill="none" stroke="#000000" points="1099,-612.5 1099,-642.5 1452,-642.5 1452,-612.5 1099,-612.5"/>
<text text-anchor="start" x="1106" y="-623.9" font-family="Arial" font-size="14.00" fill="#000000">chron_1    </text>
<text text-anchor="start" x="1190.7784" y="-623.9" font-family="Arial" font-size="14.00" fill="#666666">[text]</text>
<polygon fill="none" stroke="#000000" points="1099,-582.5 1099,-612.5 1452,-612.5 1452,-582.5 1099,-582.5"/>
<text text-anchor="start" x="1106" y="-593.9" font-family="Arial" font-size="14.00" fill="#000000">chron_2    </text>
<text text-anchor="start" x="1190.7784" y="-593.9" font-family="Arial" font-size="14.00" fill="#666666">[text]</text>
<polygon fill="none" stroke="#000000" points="1099,-552.5 1099,-582.5 1452,-582.5 1452,-552.5 1099,-552.5"/>
<text text-anchor="start" x="1106" y="-563.9" font-family="Arial" font-size="14.00" fill="#000000">chron_3    </text>
<text text-anchor="start" x="1190.7784" y="-563.9" font-family="Arial" font-size="14.00" fill="#666666">[text]</text>
<polygon fill="none" stroke="#000000" points="1099,-522.5 1099,-552.5 1452,-552.5 1452,-522.5 1099,-522.5"/>
<text text-anchor="start" x="1106" y="-533.9" font-family="Arial" font-size="14.00" fill="#000000">chron_4    </text>
<text text-anchor="start" x="1190.7784" y="-533.9" font-family="Arial" font-size="14.00" fill="#666666">[text]</text>
<polygon fill="none" stroke="#000000" points="1099,-492.5 1099,-522.5 1452,-522.5 1452,-492.5 1099,-492.5"/>
<text text-anchor="start" x="1106" y="-503.9" font-family="Arial" font-size="14.00" fill="#000000">chron_5    </text>
<text text-anchor="start" x="1190.7784" y="-503.9" font-family="Arial" font-size="14.00" fill="#666666">[text]</text>
</g>
<!-- serial.issuance&#45;&gt;serial.caption_and_pattern -->
<g id="edge6" class="edge">
<title>serial.issuance:caption_and_pattern&#45;&gt;serial.caption_and_pattern:id</title>
<path fill="none" stroke="#000000" d="M798.2206,-1777.3866C932.1358,-1774.3651 978.1122,-1711.0214 1047,-1591 1077.1985,-1538.3859 1038.3353,-1047.5 1099,-1047.5"/>
<polygon fill="#000000" stroke="#000000" points="797.9994,-1777.3889 787.95,-1773.0003 792.9997,-1777.4445 788,-1777.5 788,-1777.5 788,-1777.5 792.9997,-1777.4445 788.05,-1781.9997 797.9994,-1777.3889 797.9994,-1777.3889"/>
<text text-anchor="start" x="795.125" y="-1787.5" font-family="Arial" font-size="10.00" fill="#000000">FOREIGN KEY (caption_and_pattern) REFERENCES serial.caption_and_pattern(id) ON DELETE CASCADE DEFERRABLE INITIALLY DEFERRED</text>
</g>
<!-- serial.item -->
<g id="node2" class="node">
<title>serial.item</title>
<polygon fill="#efefef" stroke="transparent" points="267,-2582.5 267,-2617.5 572,-2617.5 572,-2582.5 267,-2582.5"/>
<polygon fill="none" stroke="#000000" points="267,-2582.5 267,-2617.5 572,-2617.5 572,-2582.5 267,-2582.5"/>
<text text-anchor="start" x="314.721" y="-2595.3" font-family="Arial Bold" font-size="18.00" fill="#000000">serial.item</text>
<text text-anchor="start" x="396.711" y="-2595.3" font-family="Arial" font-size="14.00" fill="#000000">    </text>
<text text-anchor="start" x="430.9158" y="-2595.3" font-family="Arial" font-size="14.00" fill="#666666">[BASE TABLE]</text>
<polygon fill="none" stroke="#000000" points="267,-2552.5 267,-2582.5 572,-2582.5 572,-2552.5 267,-2552.5"/>
<text text-anchor="start" x="274" y="-2563.9" font-family="Arial" font-size="14.00" fill="#000000">id    </text>
<text text-anchor="start" x="319.094" y="-2563.9" font-family="Arial" font-size="14.00" fill="#666666">[integer]</text>
<polygon fill="none" stroke="#000000" points="267,-2522.5 267,-2552.5 572,-2552.5 572,-2522.5 267,-2522.5"/>
<text text-anchor="start" x="274" y="-2533.9" font-family="Arial" font-size="14.00" fill="#000000">creator    </text>
<text text-anchor="start" x="351.7644" y="-2533.9" font-family="Arial" font-size="14.00" fill="#666666">[integer]</text>
<polygon fill="none" stroke="#000000" points="267,-2492.5 267,-2522.5 572,-2522.5 572,-2492.5 267,-2492.5"/>
<text text-anchor="start" x="274" y="-2503.9" font-family="Arial" font-size="14.00" fill="#000000">editor    </text>
<text text-anchor="start" x="343.2104" y="-2503.9" font-family="Arial" font-size="14.00" fill="#666666">[integer]</text>
<polygon fill="none" stroke="#000000" points="267,-2462.5 267,-2492.5 572,-2492.5 572,-2462.5 267,-2462.5"/>
<text text-anchor="start" x="274" y="-2473.9" font-family="Arial" font-size="14.00" fill="#000000">create_date    </text>
<text text-anchor="start" x="382.1248" y="-2473.9" font-family="Arial" font-size="14.00" fill="#666666">[timestamp with time zone]</text>
<polygon fill="none" stroke="#000000" points="267,-2432.5 267,-2462.5 572,-2462.5 572,-2432.5 267,-2432.5"/>
<text text-anchor="start" x="274" y="-2443.9" font-family="Arial" font-size="14.00" fill="#000000">edit_date    </text>
<text text-anchor="start" x="365.7882" y="-2443.9" font-family="Arial" font-size="14.00" fill="#666666">[timestamp with time zone]</text>
<polygon fill="none" stroke="#000000" points="267,-2402.5 267,-2432.5 572,-2432.5 572,-2402.5 267,-2402.5"/>
<text text-anchor="start" x="274" y="-2413.9" font-family="Arial" font-size="14.00" fill="#000000">issuance    </text>
<text text-anchor="start" x="363.4418" y="-2413.9" font-family="Arial" font-size="14.00" fill="#666666">[integer]</text>
<polygon fill="none" stroke="#000000" points="267,-2372.5 267,-2402.5 572,-2402.5 572,-2372.5 267,-2372.5"/>
<text text-anchor="start" x="274" y="-2383.9" font-family="Arial" font-size="14.00" fill="#000000">stream    </text>
<text text-anchor="start" x="350.9818" y="-2383.9" font-family="Arial" font-size="14.00" fill="#666666">[integer]</text>
<polygon fill="none" stroke="#000000" points="267,-2342.5 267,-2372.5 572,-2372.5 572,-2342.5 267,-2342.5"/>
<text text-anchor="start" x="274" y="-2353.9" font-family="Arial" font-size="14.00" fill="#000000">unit    </text>
<text text-anchor="start" x="330.7672" y="-2353.9" font-family="Arial" font-size="14.00" fill="#666666">[integer]</text>
<polygon fill="none" stroke="#000000" points="267,-2312.5 267,-2342.5 572,-2342.5 572,-2312.5 267,-2312.5"/>
<text text-anchor="start" x="274" y="-2323.9" font-family="Arial" font-size="14.00" fill="#000000">uri    </text>
<text text-anchor="start" x="323.7546" y="-2323.9" font-family="Arial" font-size="14.00" fill="#666666">[integer]</text>
<polygon fill="none" stroke="#000000" points="267,-2282.5 267,-2312.5 572,-2312.5 572,-2282.5 267,-2282.5"/>
<text text-anchor="start" x="273.6431" y="-2293.9" font-family="Arial" font-size="14.00" fill="#000000">date_expected    </text>
<text text-anchor="start" x="399.6725" y="-2293.9" font-family="Arial" font-size="14.00" fill="#666666">[timestamp with time zone]</text>
<polygon fill="none" stroke="#000000" points="267,-2252.5 267,-2282.5 572,-2282.5 572,-2252.5 267,-2252.5"/>
<text text-anchor="start" x="274" y="-2263.9" font-family="Arial" font-size="14.00" fill="#000000">date_received    </text>
<text text-anchor="start" x="396.1234" y="-2263.9" font-family="Arial" font-size="14.00" fill="#666666">[timestamp with time zone]</text>
<polygon fill="none" stroke="#000000" points="267,-2222.5 267,-2252.5 572,-2252.5 572,-2222.5 267,-2222.5"/>
<text text-anchor="start" x="274" y="-2233.9" font-family="Arial" font-size="14.00" fill="#000000">status    </text>
<text text-anchor="start" x="345.5512" y="-2233.9" font-family="Arial" font-size="14.00" fill="#666666">[text]</text>
<polygon fill="none" stroke="#000000" points="267,-2192.5 267,-2222.5 572,-2222.5 572,-2192.5 267,-2192.5"/>
<text text-anchor="start" x="274" y="-2203.9" font-family="Arial" font-size="14.00" fill="#000000">shadowed    </text>
<text text-anchor="start" x="372.007" y="-2203.9" font-family="Arial" font-size="14.00" fill="#666666">[boolean]</text>
</g>
<!-- serial.item&#45;&gt;serial.issuance -->
<g id="edge1" class="edge">
<title>serial.item:issuance&#45;&gt;serial.issuance:id</title>
<path fill="none" stroke="#000000" d="M581.836,-2415.2091C627.838,-2391.9487 599.8629,-2198.3978 572,-2150 556.1021,-2122.3854 525.8979,-2141.6146 510,-2114 488.6014,-2076.8307 467.1111,-2017.5 510,-2017.5"/>
<polygon fill="#000000" stroke="#000000" points="581.7393,-2415.2316 570.9792,-2413.1173 576.8697,-2416.3658 572,-2417.5 572,-2417.5 572,-2417.5 576.8697,-2416.3658 573.0208,-2421.8827 581.7393,-2415.2316 581.7393,-2415.2316"/>
<text text-anchor="start" x="6.822" y="-2427.5" font-family="Arial" font-size="10.00" fill="#000000">FOREIGN KEY (issuance) REFERENCES serial.issuance(id) ON DELETE CASCADE DEFERRABLE INITIALLY DEFERRED</text>
</g>
<!-- serial.materialized_holding_code -->
<g id="node3" class="node">
<title>serial.materialized_holding_code</title>
<polygon fill="#efefef" stroke="transparent" points="676,-2447.5 676,-2482.5 1079,-2482.5 1079,-2447.5 676,-2447.5"/>
<polygon fill="none" stroke="#000000" points="676,-2447.5 676,-2482.5 1079,-2482.5 1079,-2447.5 676,-2447.5"/>
<text text-anchor="start" x="682.6931" y="-2460.3" font-family="Arial Bold" font-size="18.00" fill="#000000">serial.materialized_holding_code</text>
<text text-anchor="start" x="944.7389" y="-2460.3" font-family="Arial" font-size="14.00" fill="#000000">    </text>
<text text-anchor="start" x="978.9437" y="-2460.3" font-family="Arial" font-size="14.00" fill="#666666">[BASE TABLE]</text>
<polygon fill="none" stroke="#000000" points="676,-2417.5 676,-2447.5 1079,-2447.5 1079,-2417.5 676,-2417.5"/>
<text text-anchor="start" x="683" y="-2428.9" font-family="Arial" font-size="14.00" fill="#000000">id    </text>
<text text-anchor="start" x="728.094" y="-2428.9" font-family="Arial" font-size="14.00" fill="#666666">[bigint]</text>
<polygon fill="none" stroke="#000000" points="676,-2387.5 676,-2417.5 1079,-2417.5 1079,-2387.5 676,-2387.5"/>
<text text-anchor="start" x="683" y="-2398.9" font-family="Arial" font-size="14.00" fill="#000000">issuance    </text>
<text text-anchor="start" x="772.4418" y="-2398.9" font-family="Arial" font-size="14.00" fill="#666666">[integer]</text>
<polygon fill="none" stroke="#000000" points="676,-2357.5 676,-2387.5 1079,-2387.5 1079,-2357.5 676,-2357.5"/>
<text text-anchor="start" x="683" y="-2368.9" font-family="Arial" font-size="14.00" fill="#000000">subfield    </text>
<text text-anchor="start" x="765.439" y="-2368.9" font-family="Arial" font-size="14.00" fill="#666666">[character(1)]</text>
<polygon fill="none" stroke="#000000" points="676,-2327.5 676,-2357.5 1079,-2357.5 1079,-2327.5 676,-2327.5"/>
<text text-anchor="start" x="683" y="-2338.9" font-family="Arial" font-size="14.00" fill="#000000">value    </text>
<text text-anchor="start" x="750.6592" y="-2338.9" font-family="Arial" font-size="14.00" fill="#666666">[text]</text>
</g>
<!-- serial.materialized_holding_code&#45;&gt;serial.issuance -->
<g id="edge2" class="edge">
<title>serial.materialized_holding_code:issuance&#45;&gt;serial.issuance:id</title>
<path fill="none" stroke="#000000" d="M665.8059,-2401.4199C629.1902,-2392.5827 662.1785,-2331.3286 676,-2285 701.9729,-2197.9412 762.0271,-2201.0588 788,-2114 800.2613,-2072.9011 830.8889,-2017.5 788,-2017.5"/>
<polygon fill="#000000" stroke="#000000" points="666.0557,-2401.4463 675.5258,-2406.975 671.0278,-2401.9732 676,-2402.5 676,-2402.5 676,-2402.5 671.0278,-2401.9732 676.4742,-2398.025 666.0557,-2401.4463 666.0557,-2401.4463"/>
<text text-anchor="start" x="682.882" y="-2412.5" font-family="Arial" font-size="10.00" fill="#000000">FOREIGN KEY (issuance) REFERENCES serial.issuance(id) ON DELETE CASCADE</text>
</g>
</g>
</svg>
