<?xml version="1.0" encoding="UTF-8" standalone="no"?>
<!DOCTYPE svg PUBLIC "-//W3C//DTD SVG 1.1//EN"
 "http://www.w3.org/Graphics/SVG/1.1/DTD/svg11.dtd">
<!-- Generated by graphviz version 2.40.1 (20161225.0304)
 -->
<!-- Title: unapi.bre_output_layout Pages: 1 -->
<svg width="1119pt" height="682pt"
 viewBox="0.00 0.00 1119.00 682.00" xmlns="http://www.w3.org/2000/svg" xmlns:xlink="http://www.w3.org/1999/xlink">
<g id="graph0" class="graph" transform="scale(1 1) rotate(0) translate(4 678)">
<title>unapi.bre_output_layout</title>
<polygon fill="#ffffff" stroke="transparent" points="-4,4 -4,-678 1115,-678 1115,4 -4,4"/>
<!-- unapi.bre_output_layout -->
<g id="node1" class="node">
<title>unapi.bre_output_layout</title>
<polygon fill="#efefef" stroke="transparent" points="46,-592.5 46,-627.5 380,-627.5 380,-592.5 46,-592.5"/>
<polygon fill="none" stroke="#000000" points="46,-592.5 46,-627.5 380,-627.5 380,-592.5 46,-592.5"/>
<text text-anchor="start" x="52.6748" y="-605.3" font-family="Arial Bold" font-size="18.00" fill="#000000">unapi.bre_output_layout</text>
<text text-anchor="start" x="245.7572" y="-605.3" font-family="Arial" font-size="14.00" fill="#000000">    </text>
<text text-anchor="start" x="279.962" y="-605.3" font-family="Arial" font-size="14.00" fill="#666666">[BASE TABLE]</text>
<polygon fill="none" stroke="#000000" points="46,-562.5 46,-592.5 380,-592.5 380,-562.5 46,-562.5"/>
<text text-anchor="start" x="53" y="-573.9" font-family="Arial" font-size="14.00" fill="#000000">name </text>
<text text-anchor="start" x="91.899" y="-573.9" font-family="Arial" font-size="14.00" fill="#666666">[text]</text>
<polygon fill="none" stroke="#000000" points="46,-532.5 46,-562.5 380,-562.5 380,-532.5 46,-532.5"/>
<text text-anchor="start" x="53" y="-543.9" font-family="Arial" font-size="14.00" fill="#000000">transform </text>
<text text-anchor="start" x="116.0014" y="-543.9" font-family="Arial" font-size="14.00" fill="#666666">[text]</text>
<polygon fill="none" stroke="#000000" points="46,-502.5 46,-532.5 380,-532.5 380,-502.5 46,-502.5"/>
<text text-anchor="start" x="53" y="-513.9" font-family="Arial" font-size="14.00" fill="#000000">mime_type </text>
<text text-anchor="start" x="125.3394" y="-513.9" font-family="Arial" font-size="14.00" fill="#666666">[text]</text>
<polygon fill="none" stroke="#000000" points="46,-472.5 46,-502.5 380,-502.5 380,-472.5 46,-472.5"/>
<text text-anchor="start" x="53" y="-483.9" font-family="Arial" font-size="14.00" fill="#000000">feed_top </text>
<text text-anchor="start" x="111.3674" y="-483.9" font-family="Arial" font-size="14.00" fill="#666666">[text]</text>
<polygon fill="none" stroke="#000000" points="46,-442.5 46,-472.5 380,-472.5 380,-442.5 46,-442.5"/>
<text text-anchor="start" x="53" y="-453.9" font-family="Arial" font-size="14.00" fill="#000000">holdings_element </text>
<text text-anchor="start" x="166.5876" y="-453.9" font-family="Arial" font-size="14.00" fill="#666666">[text]</text>
<polygon fill="none" stroke="#000000" points="46,-412.5 46,-442.5 380,-442.5 380,-412.5 46,-412.5"/>
<text text-anchor="start" x="53" y="-423.9" font-family="Arial" font-size="14.00" fill="#000000">title_element </text>
<text text-anchor="start" x="136.2384" y="-423.9" font-family="Arial" font-size="14.00" fill="#666666">[text]</text>
<polygon fill="none" stroke="#000000" points="46,-382.5 46,-412.5 380,-412.5 380,-382.5 46,-382.5"/>
<text text-anchor="start" x="53" y="-393.9" font-family="Arial" font-size="14.00" fill="#000000">description_element </text>
<text text-anchor="start" x="182.1388" y="-393.9" font-family="Arial" font-size="14.00" fill="#666666">[text]</text>
<polygon fill="none" stroke="#000000" points="46,-352.5 46,-382.5 380,-382.5 380,-352.5 46,-352.5"/>
<text text-anchor="start" x="53" y="-363.9" font-family="Arial" font-size="14.00" fill="#000000">creator_element </text>
<text text-anchor="start" x="158.021" y="-363.9" font-family="Arial" font-size="14.00" fill="#666666">[text]</text>
<polygon fill="none" stroke="#000000" points="46,-322.5 46,-352.5 380,-352.5 380,-322.5 46,-322.5"/>
<text text-anchor="start" x="53" y="-333.9" font-family="Arial" font-size="14.00" fill="#000000">update_ts_element </text>
<text text-anchor="start" x="175.9382" y="-333.9" font-family="Arial" font-size="14.00" fill="#666666">[text]</text>
<polygon fill="none" stroke="#000000" stroke-width="3" points="44.5,-321.5 44.5,-629.5 381.5,-629.5 381.5,-321.5 44.5,-321.5"/>
</g>
<!-- config.xml_transform -->
<g id="node2" class="node">
<title>config.xml_transform</title>
<polygon fill="#efefef" stroke="transparent" points="59,-162.5 59,-197.5 367,-197.5 367,-162.5 59,-162.5"/>
<polygon fill="none" stroke="#000000" points="59,-162.5 59,-197.5 367,-197.5 367,-162.5 59,-162.5"/>
<text text-anchor="start" x="65.7113" y="-175.3" font-family="Arial Bold" font-size="18.00" fill="#000000">config.xml_transform</text>
<text text-anchor="start" x="232.7207" y="-175.3" font-family="Arial" font-size="14.00" fill="#000000">    </text>
<text text-anchor="start" x="266.9255" y="-175.3" font-family="Arial" font-size="14.00" fill="#666666">[BASE TABLE]</text>
<polygon fill="none" stroke="#000000" points="59,-132.5 59,-162.5 367,-162.5 367,-132.5 59,-132.5"/>
<text text-anchor="start" x="66" y="-143.9" font-family="Arial" font-size="14.00" fill="#000000">name    </text>
<text text-anchor="start" x="135.2132" y="-143.9" font-family="Arial" font-size="14.00" fill="#666666">[text]</text>
<polygon fill="none" stroke="#000000" points="59,-102.5 59,-132.5 367,-132.5 367,-102.5 59,-102.5"/>
<text text-anchor="start" x="66" y="-113.9" font-family="Arial" font-size="14.00" fill="#000000">namespace_uri    </text>
<text text-anchor="start" x="195.8934" y="-113.9" font-family="Arial" font-size="14.00" fill="#666666">[text]</text>
<polygon fill="none" stroke="#000000" points="59,-72.5 59,-102.5 367,-102.5 367,-72.5 59,-72.5"/>
<text text-anchor="start" x="66" y="-83.9" font-family="Arial" font-size="14.00" fill="#000000">prefix    </text>
<text text-anchor="start" x="134.4278" y="-83.9" font-family="Arial" font-size="14.00" fill="#666666">[text]</text>
<polygon fill="none" stroke="#000000" points="59,-42.5 59,-72.5 367,-72.5 367,-42.5 59,-42.5"/>
<text text-anchor="start" x="66" y="-53.9" font-family="Arial" font-size="14.00" fill="#000000">xslt    </text>
<text text-anchor="start" x="121.202" y="-53.9" font-family="Arial" font-size="14.00" fill="#666666">[text]</text>
</g>
<!-- unapi.bre_output_layout&#45;&gt;config.xml_transform -->
<g id="edge1" class="edge">
<title>unapi.bre_output_layout:transform&#45;&gt;config.xml_transform:name</title>
<path fill="none" stroke="#000000" d="M389.9571,-545.7166C467.8043,-516.8604 452.4618,-147.5 367,-147.5"/>
<polygon fill="#000000" stroke="#000000" points="389.8434,-545.7369 379.2066,-543.0705 384.9217,-546.6185 380,-547.5 380,-547.5 380,-547.5 384.9217,-546.6185 380.7934,-551.9295 389.8434,-545.7369 389.8434,-545.7369"/>
<text text-anchor="start" x="387.3815" y="-557.5" font-family="Arial" font-size="10.00" fill="#000000">FOREIGN KEY (transform) REFERENCES config.xml_transform(name) ON UPDATE CASCADE ON DELETE CASCADE DEFERRABLE INITIALLY DEFERRED</text>
</g>
</g>
</svg>
