<?xml version="1.0" encoding="UTF-8" standalone="no"?>
<!DOCTYPE svg PUBLIC "-//W3C//DTD SVG 1.1//EN"
 "http://www.w3.org/Graphics/SVG/1.1/DTD/svg11.dtd">
<!-- Generated by graphviz version 2.40.1 (20161225.0304)
 -->
<!-- Title: url_verify.verification_attempt Pages: 1 -->
<svg width="1349pt" height="2309pt"
 viewBox="0.00 0.00 1349.00 2309.00" xmlns="http://www.w3.org/2000/svg" xmlns:xlink="http://www.w3.org/1999/xlink">
<g id="graph0" class="graph" transform="scale(1 1) rotate(0) translate(4 2305)">
<title>url_verify.verification_attempt</title>
<polygon fill="#ffffff" stroke="transparent" points="-4,4 -4,-2305 1345,-2305 1345,4 -4,4"/>
<!-- url_verify.verification_attempt -->
<g id="node1" class="node">
<title>url_verify.verification_attempt</title>
<polygon fill="#efefef" stroke="transparent" points="499,-1822.5 499,-1857.5 874,-1857.5 874,-1822.5 499,-1822.5"/>
<polygon fill="none" stroke="#000000" points="499,-1822.5 499,-1857.5 874,-1857.5 874,-1822.5 499,-1822.5"/>
<text text-anchor="start" x="505.7043" y="-1835.3" font-family="Arial Bold" font-size="18.00" fill="#000000">url_verify.verification_attempt</text>
<text text-anchor="start" x="739.7277" y="-1835.3" font-family="Arial" font-size="14.00" fill="#000000">    </text>
<text text-anchor="start" x="773.9325" y="-1835.3" font-family="Arial" font-size="14.00" fill="#666666">[BASE TABLE]</text>
<polygon fill="none" stroke="#000000" points="499,-1792.5 499,-1822.5 874,-1822.5 874,-1792.5 499,-1792.5"/>
<text text-anchor="start" x="506" y="-1803.9" font-family="Arial" font-size="14.00" fill="#000000">id </text>
<text text-anchor="start" x="520.7798" y="-1803.9" font-family="Arial" font-size="14.00" fill="#666666">[integer]</text>
<polygon fill="none" stroke="#000000" points="499,-1762.5 499,-1792.5 874,-1792.5 874,-1762.5 499,-1762.5"/>
<text text-anchor="start" x="506" y="-1773.9" font-family="Arial" font-size="14.00" fill="#000000">usr </text>
<text text-anchor="start" x="529.3338" y="-1773.9" font-family="Arial" font-size="14.00" fill="#666666">[integer]</text>
<polygon fill="none" stroke="#000000" points="499,-1732.5 499,-1762.5 874,-1762.5 874,-1732.5 499,-1732.5"/>
<text text-anchor="start" x="506" y="-1743.9" font-family="Arial" font-size="14.00" fill="#000000">session </text>
<text text-anchor="start" x="557.345" y="-1743.9" font-family="Arial" font-size="14.00" fill="#666666">[integer]</text>
<polygon fill="none" stroke="#000000" points="499,-1702.5 499,-1732.5 874,-1732.5 874,-1702.5 499,-1702.5"/>
<text text-anchor="start" x="506" y="-1713.9" font-family="Arial" font-size="14.00" fill="#000000">start_time </text>
<text text-anchor="start" x="571.338" y="-1713.9" font-family="Arial" font-size="14.00" fill="#666666">[timestamp with time zone]</text>
<polygon fill="none" stroke="#000000" points="499,-1672.5 499,-1702.5 874,-1702.5 874,-1672.5 499,-1672.5"/>
<text text-anchor="start" x="506" y="-1683.9" font-family="Arial" font-size="14.00" fill="#000000">finish_time </text>
<text text-anchor="start" x="576.7826" y="-1683.9" font-family="Arial" font-size="14.00" fill="#666666">[timestamp with time zone]</text>
<polygon fill="none" stroke="#000000" stroke-width="3" points="497,-1671.5 497,-1859.5 875,-1859.5 875,-1671.5 497,-1671.5"/>
</g>
<!-- actor.usr -->
<g id="node3" class="node">
<title>actor.usr</title>
<polygon fill="#efefef" stroke="transparent" points="323,-1512.5 323,-1547.5 643,-1547.5 643,-1512.5 323,-1512.5"/>
<polygon fill="none" stroke="#000000" points="323,-1512.5 323,-1547.5 643,-1547.5 643,-1512.5 323,-1512.5"/>
<text text-anchor="start" x="384.2123" y="-1525.3" font-family="Arial Bold" font-size="18.00" fill="#000000">actor.usr</text>
<text text-anchor="start" x="454.2197" y="-1525.3" font-family="Arial" font-size="14.00" fill="#000000">    </text>
<text text-anchor="start" x="488.4245" y="-1525.3" font-family="Arial" font-size="14.00" fill="#666666">[BASE TABLE]</text>
<polygon fill="none" stroke="#000000" points="323,-1482.5 323,-1512.5 643,-1512.5 643,-1482.5 323,-1482.5"/>
<text text-anchor="start" x="330" y="-1493.9" font-family="Arial" font-size="14.00" fill="#000000">id    </text>
<text text-anchor="start" x="375.094" y="-1493.9" font-family="Arial" font-size="14.00" fill="#666666">[integer]</text>
<polygon fill="none" stroke="#000000" points="323,-1452.5 323,-1482.5 643,-1482.5 643,-1452.5 323,-1452.5"/>
<text text-anchor="start" x="330" y="-1463.9" font-family="Arial" font-size="14.00" fill="#000000">card    </text>
<text text-anchor="start" x="391.4306" y="-1463.9" font-family="Arial" font-size="14.00" fill="#666666">[integer]</text>
<polygon fill="none" stroke="#000000" points="323,-1422.5 323,-1452.5 643,-1452.5 643,-1422.5 323,-1422.5"/>
<text text-anchor="start" x="330" y="-1433.9" font-family="Arial" font-size="14.00" fill="#000000">profile    </text>
<text text-anchor="start" x="402.317" y="-1433.9" font-family="Arial" font-size="14.00" fill="#666666">[integer]</text>
<polygon fill="none" stroke="#000000" points="323,-1392.5 323,-1422.5 643,-1422.5 643,-1392.5 323,-1392.5"/>
<text text-anchor="start" x="330" y="-1403.9" font-family="Arial" font-size="14.00" fill="#000000">usrname    </text>
<text text-anchor="start" x="418.6564" y="-1403.9" font-family="Arial" font-size="14.00" fill="#666666">[text]</text>
<polygon fill="none" stroke="#000000" points="323,-1362.5 323,-1392.5 643,-1392.5 643,-1362.5 323,-1362.5"/>
<text text-anchor="start" x="330" y="-1373.9" font-family="Arial" font-size="14.00" fill="#000000">email    </text>
<text text-anchor="start" x="397.6438" y="-1373.9" font-family="Arial" font-size="14.00" fill="#666666">[text]</text>
<polygon fill="none" stroke="#000000" points="323,-1332.5 323,-1362.5 643,-1362.5 643,-1332.5 323,-1332.5"/>
<text text-anchor="start" x="330" y="-1343.9" font-family="Arial" font-size="14.00" fill="#000000">passwd    </text>
<text text-anchor="start" x="411.6592" y="-1343.9" font-family="Arial" font-size="14.00" fill="#666666">[text]</text>
<polygon fill="none" stroke="#000000" points="323,-1302.5 323,-1332.5 643,-1332.5 643,-1302.5 323,-1302.5"/>
<text text-anchor="start" x="330" y="-1313.9" font-family="Arial" font-size="14.00" fill="#000000">standing    </text>
<text text-anchor="start" x="417.115" y="-1313.9" font-family="Arial" font-size="14.00" fill="#666666">[integer]</text>
<polygon fill="none" stroke="#000000" points="323,-1272.5 323,-1302.5 643,-1302.5 643,-1272.5 323,-1272.5"/>
<text text-anchor="start" x="330" y="-1283.9" font-family="Arial" font-size="14.00" fill="#000000">ident_type    </text>
<text text-anchor="start" x="428.7882" y="-1283.9" font-family="Arial" font-size="14.00" fill="#666666">[integer]</text>
<polygon fill="none" stroke="#000000" points="323,-1242.5 323,-1272.5 643,-1272.5 643,-1242.5 323,-1242.5"/>
<text text-anchor="start" x="330" y="-1253.9" font-family="Arial" font-size="14.00" fill="#000000">ident_value    </text>
<text text-anchor="start" x="435.7868" y="-1253.9" font-family="Arial" font-size="14.00" fill="#666666">[text]</text>
<polygon fill="none" stroke="#000000" points="323,-1212.5 323,-1242.5 643,-1242.5 643,-1212.5 323,-1212.5"/>
<text text-anchor="start" x="330" y="-1223.9" font-family="Arial" font-size="14.00" fill="#000000">ident_type2    </text>
<text text-anchor="start" x="436.5708" y="-1223.9" font-family="Arial" font-size="14.00" fill="#666666">[integer]</text>
<polygon fill="none" stroke="#000000" points="323,-1182.5 323,-1212.5 643,-1212.5 643,-1182.5 323,-1182.5"/>
<text text-anchor="start" x="330" y="-1193.9" font-family="Arial" font-size="14.00" fill="#000000">ident_value2    </text>
<text text-anchor="start" x="443.5694" y="-1193.9" font-family="Arial" font-size="14.00" fill="#666666">[text]</text>
<polygon fill="none" stroke="#000000" points="323,-1152.5 323,-1182.5 643,-1182.5 643,-1152.5 323,-1152.5"/>
<text text-anchor="start" x="330" y="-1163.9" font-family="Arial" font-size="14.00" fill="#000000">net_access_level    </text>
<text text-anchor="start" x="471.5694" y="-1163.9" font-family="Arial" font-size="14.00" fill="#666666">[integer]</text>
<polygon fill="none" stroke="#000000" points="323,-1122.5 323,-1152.5 643,-1152.5 643,-1122.5 323,-1122.5"/>
<text text-anchor="start" x="330" y="-1133.9" font-family="Arial" font-size="14.00" fill="#000000">photo_url    </text>
<text text-anchor="start" x="422.5582" y="-1133.9" font-family="Arial" font-size="14.00" fill="#666666">[text]</text>
<polygon fill="none" stroke="#000000" points="323,-1092.5 323,-1122.5 643,-1122.5 643,-1092.5 323,-1092.5"/>
<text text-anchor="start" x="330" y="-1103.9" font-family="Arial" font-size="14.00" fill="#000000">prefix    </text>
<text text-anchor="start" x="398.4278" y="-1103.9" font-family="Arial" font-size="14.00" fill="#666666">[text]</text>
<polygon fill="none" stroke="#000000" points="323,-1062.5 323,-1092.5 643,-1092.5 643,-1062.5 323,-1062.5"/>
<text text-anchor="start" x="330" y="-1073.9" font-family="Arial" font-size="14.00" fill="#000000">first_given_name    </text>
<text text-anchor="start" x="470.7812" y="-1073.9" font-family="Arial" font-size="14.00" fill="#666666">[text]</text>
<polygon fill="none" stroke="#000000" points="323,-1032.5 323,-1062.5 643,-1062.5 643,-1032.5 323,-1032.5"/>
<text text-anchor="start" x="330" y="-1043.9" font-family="Arial" font-size="14.00" fill="#000000">second_given_name    </text>
<text text-anchor="start" x="493.3632" y="-1043.9" font-family="Arial" font-size="14.00" fill="#666666">[text]</text>
<polygon fill="none" stroke="#000000" points="323,-1002.5 323,-1032.5 643,-1032.5 643,-1002.5 323,-1002.5"/>
<text text-anchor="start" x="330" y="-1013.9" font-family="Arial" font-size="14.00" fill="#000000">family_name    </text>
<text text-anchor="start" x="443.5428" y="-1013.9" font-family="Arial" font-size="14.00" fill="#666666">[text]</text>
<polygon fill="none" stroke="#000000" points="323,-972.5 323,-1002.5 643,-1002.5 643,-972.5 323,-972.5"/>
<text text-anchor="start" x="330" y="-983.9" font-family="Arial" font-size="14.00" fill="#000000">suffix    </text>
<text text-anchor="start" x="396.8752" y="-983.9" font-family="Arial" font-size="14.00" fill="#666666">[text]</text>
<polygon fill="none" stroke="#000000" points="323,-942.5 323,-972.5 643,-972.5 643,-942.5 323,-942.5"/>
<text text-anchor="start" x="330" y="-953.9" font-family="Arial" font-size="14.00" fill="#000000">alias    </text>
<text text-anchor="start" x="392.9832" y="-953.9" font-family="Arial" font-size="14.00" fill="#666666">[text]</text>
<polygon fill="none" stroke="#000000" points="323,-912.5 323,-942.5 643,-942.5 643,-912.5 323,-912.5"/>
<text text-anchor="start" x="330" y="-923.9" font-family="Arial" font-size="14.00" fill="#000000">day_phone    </text>
<text text-anchor="start" x="433.4656" y="-923.9" font-family="Arial" font-size="14.00" fill="#666666">[text]</text>
<polygon fill="none" stroke="#000000" points="323,-882.5 323,-912.5 643,-912.5 643,-882.5 323,-882.5"/>
<text text-anchor="start" x="330" y="-893.9" font-family="Arial" font-size="14.00" fill="#000000">evening_phone    </text>
<text text-anchor="start" x="459.92" y="-893.9" font-family="Arial" font-size="14.00" fill="#666666">[text]</text>
<polygon fill="none" stroke="#000000" points="323,-852.5 323,-882.5 643,-882.5 643,-852.5 323,-852.5"/>
<text text-anchor="start" x="330" y="-863.9" font-family="Arial" font-size="14.00" fill="#000000">other_phone    </text>
<text text-anchor="start" x="442.7994" y="-863.9" font-family="Arial" font-size="14.00" fill="#666666">[text]</text>
<polygon fill="none" stroke="#000000" points="323,-822.5 323,-852.5 643,-852.5 643,-822.5 323,-822.5"/>
<text text-anchor="start" x="330" y="-833.9" font-family="Arial" font-size="14.00" fill="#000000">mailing_address    </text>
<text text-anchor="start" x="466.1066" y="-833.9" font-family="Arial" font-size="14.00" fill="#666666">[integer]</text>
<polygon fill="none" stroke="#000000" points="323,-792.5 323,-822.5 643,-822.5 643,-792.5 323,-792.5"/>
<text text-anchor="start" x="330" y="-803.9" font-family="Arial" font-size="14.00" fill="#000000">billing_address    </text>
<text text-anchor="start" x="457.5526" y="-803.9" font-family="Arial" font-size="14.00" fill="#666666">[integer]</text>
<polygon fill="none" stroke="#000000" points="323,-762.5 323,-792.5 643,-792.5 643,-762.5 323,-762.5"/>
<text text-anchor="start" x="330" y="-773.9" font-family="Arial" font-size="14.00" fill="#000000">home_ou    </text>
<text text-anchor="start" x="422.561" y="-773.9" font-family="Arial" font-size="14.00" fill="#666666">[integer]</text>
<polygon fill="none" stroke="#000000" points="323,-732.5 323,-762.5 643,-762.5 643,-732.5 323,-732.5"/>
<text text-anchor="start" x="330" y="-743.9" font-family="Arial" font-size="14.00" fill="#000000">dob    </text>
<text text-anchor="start" x="387.5526" y="-743.9" font-family="Arial" font-size="14.00" fill="#666666">[date]</text>
<polygon fill="none" stroke="#000000" points="323,-702.5 323,-732.5 643,-732.5 643,-702.5 323,-702.5"/>
<text text-anchor="start" x="330" y="-713.9" font-family="Arial" font-size="14.00" fill="#000000">active    </text>
<text text-anchor="start" x="400.7672" y="-713.9" font-family="Arial" font-size="14.00" fill="#666666">[boolean]</text>
<polygon fill="none" stroke="#000000" points="323,-672.5 323,-702.5 643,-702.5 643,-672.5 323,-672.5"/>
<text text-anchor="start" x="330" y="-683.9" font-family="Arial" font-size="14.00" fill="#000000">master_account    </text>
<text text-anchor="start" x="463.7854" y="-683.9" font-family="Arial" font-size="14.00" fill="#666666">[boolean]</text>
<polygon fill="none" stroke="#000000" points="323,-642.5 323,-672.5 643,-672.5 643,-642.5 323,-642.5"/>
<text text-anchor="start" x="330" y="-653.9" font-family="Arial" font-size="14.00" fill="#000000">super_user    </text>
<text text-anchor="start" x="434.2216" y="-653.9" font-family="Arial" font-size="14.00" fill="#666666">[boolean]</text>
<polygon fill="none" stroke="#000000" points="323,-612.5 323,-642.5 643,-642.5 643,-612.5 323,-612.5"/>
<text text-anchor="start" x="330" y="-623.9" font-family="Arial" font-size="14.00" fill="#000000">barred    </text>
<text text-anchor="start" x="404.6564" y="-623.9" font-family="Arial" font-size="14.00" fill="#666666">[boolean]</text>
<polygon fill="none" stroke="#000000" points="323,-582.5 323,-612.5 643,-612.5 643,-582.5 323,-582.5"/>
<text text-anchor="start" x="330" y="-593.9" font-family="Arial" font-size="14.00" fill="#000000">deleted    </text>
<text text-anchor="start" x="410.115" y="-593.9" font-family="Arial" font-size="14.00" fill="#666666">[boolean]</text>
<polygon fill="none" stroke="#000000" points="323,-552.5 323,-582.5 643,-582.5 643,-552.5 323,-552.5"/>
<text text-anchor="start" x="330" y="-563.9" font-family="Arial" font-size="14.00" fill="#000000">juvenile    </text>
<text text-anchor="start" x="411.655" y="-563.9" font-family="Arial" font-size="14.00" fill="#666666">[boolean]</text>
<polygon fill="none" stroke="#000000" points="323,-522.5 323,-552.5 643,-552.5 643,-522.5 323,-522.5"/>
<text text-anchor="start" x="330" y="-533.9" font-family="Arial" font-size="14.00" fill="#000000">usrgroup    </text>
<text text-anchor="start" x="419.439" y="-533.9" font-family="Arial" font-size="14.00" fill="#666666">[integer]</text>
<polygon fill="none" stroke="#000000" points="323,-492.5 323,-522.5 643,-522.5 643,-492.5 323,-492.5"/>
<text text-anchor="start" x="330" y="-503.9" font-family="Arial" font-size="14.00" fill="#000000">claims_returned_count    </text>
<text text-anchor="start" x="505.7896" y="-503.9" font-family="Arial" font-size="14.00" fill="#666666">[integer]</text>
<polygon fill="none" stroke="#000000" points="323,-462.5 323,-492.5 643,-492.5 643,-462.5 323,-462.5"/>
<text text-anchor="start" x="330" y="-473.9" font-family="Arial" font-size="14.00" fill="#000000">credit_forward_balance    </text>
<text text-anchor="start" x="509.6788" y="-473.9" font-family="Arial" font-size="14.00" fill="#666666">[numeric(6,2)]</text>
<polygon fill="none" stroke="#000000" points="323,-432.5 323,-462.5 643,-462.5 643,-432.5 323,-432.5"/>
<text text-anchor="start" x="330" y="-443.9" font-family="Arial" font-size="14.00" fill="#000000">last_xact_id    </text>
<text text-anchor="start" x="438.1122" y="-443.9" font-family="Arial" font-size="14.00" fill="#666666">[text]</text>
<polygon fill="none" stroke="#000000" points="323,-402.5 323,-432.5 643,-432.5 643,-402.5 323,-402.5"/>
<text text-anchor="start" x="330" y="-413.9" font-family="Arial" font-size="14.00" fill="#000000">alert_message    </text>
<text text-anchor="start" x="456.0014" y="-413.9" font-family="Arial" font-size="14.00" fill="#666666">[text]</text>
<polygon fill="none" stroke="#000000" points="323,-372.5 323,-402.5 643,-402.5 643,-372.5 323,-372.5"/>
<text text-anchor="start" x="330" y="-383.9" font-family="Arial" font-size="14.00" fill="#000000">create_date    </text>
<text text-anchor="start" x="438.1248" y="-383.9" font-family="Arial" font-size="14.00" fill="#666666">[timestamp with time zone]</text>
<polygon fill="none" stroke="#000000" points="323,-342.5 323,-372.5 643,-372.5 643,-342.5 323,-342.5"/>
<text text-anchor="start" x="330" y="-353.9" font-family="Arial" font-size="14.00" fill="#000000">expire_date    </text>
<text text-anchor="start" x="437.3408" y="-353.9" font-family="Arial" font-size="14.00" fill="#666666">[timestamp with time zone]</text>
<polygon fill="none" stroke="#000000" points="323,-312.5 323,-342.5 643,-342.5 643,-312.5 323,-312.5"/>
<text text-anchor="start" x="330" y="-323.9" font-family="Arial" font-size="14.00" fill="#000000">claims_never_checked_out_count    </text>
<text text-anchor="start" x="575.8246" y="-323.9" font-family="Arial" font-size="14.00" fill="#666666">[integer]</text>
<polygon fill="none" stroke="#000000" points="323,-282.5 323,-312.5 643,-312.5 643,-282.5 323,-282.5"/>
<text text-anchor="start" x="329.7609" y="-293.9" font-family="Arial" font-size="14.00" fill="#000000">last_update_time    </text>
<text text-anchor="start" x="470.5547" y="-293.9" font-family="Arial" font-size="14.00" fill="#666666">[timestamp with time zone]</text>
<polygon fill="none" stroke="#000000" points="323,-252.5 323,-282.5 643,-282.5 643,-252.5 323,-252.5"/>
<text text-anchor="start" x="330" y="-263.9" font-family="Arial" font-size="14.00" fill="#000000">pref_prefix    </text>
<text text-anchor="start" x="430.3268" y="-263.9" font-family="Arial" font-size="14.00" fill="#666666">[text]</text>
<polygon fill="none" stroke="#000000" points="323,-222.5 323,-252.5 643,-252.5 643,-222.5 323,-222.5"/>
<text text-anchor="start" x="330" y="-233.9" font-family="Arial" font-size="14.00" fill="#000000">pref_first_given_name    </text>
<text text-anchor="start" x="502.6802" y="-233.9" font-family="Arial" font-size="14.00" fill="#666666">[text]</text>
<polygon fill="none" stroke="#000000" points="323,-192.5 323,-222.5 643,-222.5 643,-192.5 323,-192.5"/>
<text text-anchor="start" x="330" y="-203.9" font-family="Arial" font-size="14.00" fill="#000000">pref_second_given_name    </text>
<text text-anchor="start" x="525.2622" y="-203.9" font-family="Arial" font-size="14.00" fill="#666666">[text]</text>
<polygon fill="none" stroke="#000000" points="323,-162.5 323,-192.5 643,-192.5 643,-162.5 323,-162.5"/>
<text text-anchor="start" x="330" y="-173.9" font-family="Arial" font-size="14.00" fill="#000000">pref_family_name    </text>
<text text-anchor="start" x="475.4418" y="-173.9" font-family="Arial" font-size="14.00" fill="#666666">[text]</text>
<polygon fill="none" stroke="#000000" points="323,-132.5 323,-162.5 643,-162.5 643,-132.5 323,-132.5"/>
<text text-anchor="start" x="330" y="-143.9" font-family="Arial" font-size="14.00" fill="#000000">pref_suffix    </text>
<text text-anchor="start" x="428.7742" y="-143.9" font-family="Arial" font-size="14.00" fill="#666666">[text]</text>
<polygon fill="none" stroke="#000000" points="323,-102.5 323,-132.5 643,-132.5 643,-102.5 323,-102.5"/>
<text text-anchor="start" x="330" y="-113.9" font-family="Arial" font-size="14.00" fill="#000000">name_keywords    </text>
<text text-anchor="start" x="466.1108" y="-113.9" font-family="Arial" font-size="14.00" fill="#666666">[text]</text>
<polygon fill="none" stroke="#000000" points="323,-72.5 323,-102.5 643,-102.5 643,-72.5 323,-72.5"/>
<text text-anchor="start" x="330" y="-83.9" font-family="Arial" font-size="14.00" fill="#000000">name_kw_tsvector    </text>
<text text-anchor="start" x="480.892" y="-83.9" font-family="Arial" font-size="14.00" fill="#666666">[tsvector]</text>
<polygon fill="none" stroke="#000000" points="323,-42.5 323,-72.5 643,-72.5 643,-42.5 323,-42.5"/>
<text text-anchor="start" x="330" y="-53.9" font-family="Arial" font-size="14.00" fill="#000000">guardian    </text>
<text text-anchor="start" x="418.6676" y="-53.9" font-family="Arial" font-size="14.00" fill="#666666">[text]</text>
</g>
<!-- url_verify.verification_attempt&#45;&gt;actor.usr -->
<g id="edge2" class="edge">
<title>url_verify.verification_attempt:usr&#45;&gt;actor.usr:id</title>
<path fill="none" stroke="#000000" d="M488.8444,-1776.6461C434.9709,-1766.9403 460.0869,-1676.8389 499,-1627 539.5986,-1575.0023 602.4014,-1642.9977 643,-1591 668.5738,-1558.2457 684.5556,-1497.5 643,-1497.5"/>
<polygon fill="#000000" stroke="#000000" points="489.0352,-1776.662 498.6229,-1781.9842 494.0176,-1777.081 499,-1777.5 499,-1777.5 499,-1777.5 494.0176,-1777.081 499.3771,-1773.0158 489.0352,-1776.662 489.0352,-1776.662"/>
<text text-anchor="start" x="97.4995" y="-1787.5" font-family="Arial" font-size="10.00" fill="#000000">FOREIGN KEY (usr) REFERENCES actor.usr(id) DEFERRABLE INITIALLY DEFERRED</text>
</g>
<!-- url_verify.session -->
<g id="node4" class="node">
<title>url_verify.session</title>
<polygon fill="#efefef" stroke="transparent" points="748,-882.5 748,-917.5 1035,-917.5 1035,-882.5 748,-882.5"/>
<polygon fill="none" stroke="#000000" points="748,-882.5 748,-917.5 1035,-917.5 1035,-882.5 748,-882.5"/>
<text text-anchor="start" x="758.2117" y="-895.3" font-family="Arial Bold" font-size="18.00" fill="#000000">url_verify.session</text>
<text text-anchor="start" x="897.2203" y="-895.3" font-family="Arial" font-size="14.00" fill="#000000">    </text>
<text text-anchor="start" x="931.4251" y="-895.3" font-family="Arial" font-size="14.00" fill="#666666">[BASE TABLE]</text>
<polygon fill="none" stroke="#000000" points="748,-852.5 748,-882.5 1035,-882.5 1035,-852.5 748,-852.5"/>
<text text-anchor="start" x="755" y="-863.9" font-family="Arial" font-size="14.00" fill="#000000">id    </text>
<text text-anchor="start" x="800.094" y="-863.9" font-family="Arial" font-size="14.00" fill="#666666">[integer]</text>
<polygon fill="none" stroke="#000000" points="748,-822.5 748,-852.5 1035,-852.5 1035,-822.5 748,-822.5"/>
<text text-anchor="start" x="755" y="-833.9" font-family="Arial" font-size="14.00" fill="#000000">name    </text>
<text text-anchor="start" x="824.2132" y="-833.9" font-family="Arial" font-size="14.00" fill="#666666">[text]</text>
<polygon fill="none" stroke="#000000" points="748,-792.5 748,-822.5 1035,-822.5 1035,-792.5 748,-792.5"/>
<text text-anchor="start" x="755" y="-803.9" font-family="Arial" font-size="14.00" fill="#000000">owning_lib    </text>
<text text-anchor="start" x="855.3268" y="-803.9" font-family="Arial" font-size="14.00" fill="#666666">[integer]</text>
<polygon fill="none" stroke="#000000" points="748,-762.5 748,-792.5 1035,-792.5 1035,-762.5 748,-762.5"/>
<text text-anchor="start" x="755" y="-773.9" font-family="Arial" font-size="14.00" fill="#000000">creator    </text>
<text text-anchor="start" x="832.7644" y="-773.9" font-family="Arial" font-size="14.00" fill="#666666">[integer]</text>
<polygon fill="none" stroke="#000000" points="748,-732.5 748,-762.5 1035,-762.5 1035,-732.5 748,-732.5"/>
<text text-anchor="start" x="755" y="-743.9" font-family="Arial" font-size="14.00" fill="#000000">container    </text>
<text text-anchor="start" x="846.7756" y="-743.9" font-family="Arial" font-size="14.00" fill="#666666">[integer]</text>
<polygon fill="none" stroke="#000000" points="748,-702.5 748,-732.5 1035,-732.5 1035,-702.5 748,-702.5"/>
<text text-anchor="start" x="754.9944" y="-713.9" font-family="Arial" font-size="14.00" fill="#000000">create_time    </text>
<text text-anchor="start" x="862.3212" y="-713.9" font-family="Arial" font-size="14.00" fill="#666666">[timestamp with time zone]</text>
<polygon fill="none" stroke="#000000" points="748,-672.5 748,-702.5 1035,-702.5 1035,-672.5 748,-672.5"/>
<text text-anchor="start" x="755" y="-683.9" font-family="Arial" font-size="14.00" fill="#000000">search    </text>
<text text-anchor="start" x="831.2132" y="-683.9" font-family="Arial" font-size="14.00" fill="#666666">[text]</text>
</g>
<!-- url_verify.verification_attempt&#45;&gt;url_verify.session -->
<g id="edge3" class="edge">
<title>url_verify.verification_attempt:session&#45;&gt;url_verify.session:id</title>
<path fill="none" stroke="#000000" d="M884.0118,-1746.6487C1052.9557,-1715.9904 554.0191,-867.5 748,-867.5"/>
<polygon fill="#000000" stroke="#000000" points="883.964,-1746.6527 873.6187,-1743.0162 878.982,-1747.0763 874,-1747.5 874,-1747.5 874,-1747.5 878.982,-1747.0763 874.3813,-1751.9838 883.964,-1746.6527 883.964,-1746.6527"/>
<text text-anchor="start" x="881.3285" y="-1757.5" font-family="Arial" font-size="10.00" fill="#000000">FOREIGN KEY (session) REFERENCES url_verify.session(id) DEFERRABLE INITIALLY DEFERRED</text>
</g>
<!-- url_verify.url_verification -->
<g id="node2" class="node">
<title>url_verify.url_verification</title>
<polygon fill="#efefef" stroke="transparent" points="519,-2222.5 519,-2257.5 854,-2257.5 854,-2222.5 519,-2222.5"/>
<polygon fill="none" stroke="#000000" points="519,-2222.5 519,-2257.5 854,-2257.5 854,-2222.5 519,-2222.5"/>
<text text-anchor="start" x="525.7167" y="-2235.3" font-family="Arial Bold" font-size="18.00" fill="#000000">url_verify.url_verification</text>
<text text-anchor="start" x="719.7153" y="-2235.3" font-family="Arial" font-size="14.00" fill="#000000">    </text>
<text text-anchor="start" x="753.9201" y="-2235.3" font-family="Arial" font-size="14.00" fill="#666666">[BASE TABLE]</text>
<polygon fill="none" stroke="#000000" points="519,-2192.5 519,-2222.5 854,-2222.5 854,-2192.5 519,-2192.5"/>
<text text-anchor="start" x="526" y="-2203.9" font-family="Arial" font-size="14.00" fill="#000000">id    </text>
<text text-anchor="start" x="571.094" y="-2203.9" font-family="Arial" font-size="14.00" fill="#666666">[integer]</text>
<polygon fill="none" stroke="#000000" points="519,-2162.5 519,-2192.5 854,-2192.5 854,-2162.5 519,-2162.5"/>
<text text-anchor="start" x="526" y="-2173.9" font-family="Arial" font-size="14.00" fill="#000000">url    </text>
<text text-anchor="start" x="575.7546" y="-2173.9" font-family="Arial" font-size="14.00" fill="#666666">[integer]</text>
<polygon fill="none" stroke="#000000" points="519,-2132.5 519,-2162.5 854,-2162.5 854,-2132.5 519,-2132.5"/>
<text text-anchor="start" x="526" y="-2143.9" font-family="Arial" font-size="14.00" fill="#000000">attempt    </text>
<text text-anchor="start" x="606.885" y="-2143.9" font-family="Arial" font-size="14.00" fill="#666666">[integer]</text>
<polygon fill="none" stroke="#000000" points="519,-2102.5 519,-2132.5 854,-2132.5 854,-2102.5 519,-2102.5"/>
<text text-anchor="start" x="526" y="-2113.9" font-family="Arial" font-size="14.00" fill="#000000">req_time    </text>
<text text-anchor="start" x="614.6536" y="-2113.9" font-family="Arial" font-size="14.00" fill="#666666">[timestamp with time zone]</text>
<polygon fill="none" stroke="#000000" points="519,-2072.5 519,-2102.5 854,-2102.5 854,-2072.5 519,-2072.5"/>
<text text-anchor="start" x="526" y="-2083.9" font-family="Arial" font-size="14.00" fill="#000000">res_time    </text>
<text text-anchor="start" x="613.871" y="-2083.9" font-family="Arial" font-size="14.00" fill="#666666">[timestamp with time zone]</text>
<polygon fill="none" stroke="#000000" points="519,-2042.5 519,-2072.5 854,-2072.5 854,-2042.5 519,-2042.5"/>
<text text-anchor="start" x="526" y="-2053.9" font-family="Arial" font-size="14.00" fill="#000000">res_code    </text>
<text text-anchor="start" x="617.7784" y="-2053.9" font-family="Arial" font-size="14.00" fill="#666666">[integer]</text>
<polygon fill="none" stroke="#000000" points="519,-2012.5 519,-2042.5 854,-2042.5 854,-2012.5 519,-2012.5"/>
<text text-anchor="start" x="526" y="-2023.9" font-family="Arial" font-size="14.00" fill="#000000">res_text    </text>
<text text-anchor="start" x="609.9944" y="-2023.9" font-family="Arial" font-size="14.00" fill="#666666">[text]</text>
<polygon fill="none" stroke="#000000" points="519,-1982.5 519,-2012.5 854,-2012.5 854,-1982.5 519,-1982.5"/>
<text text-anchor="start" x="526" y="-1993.9" font-family="Arial" font-size="14.00" fill="#000000">redirect_to    </text>
<text text-anchor="start" x="626.3268" y="-1993.9" font-family="Arial" font-size="14.00" fill="#666666">[integer]</text>
</g>
<!-- url_verify.url_verification&#45;&gt;url_verify.verification_attempt -->
<g id="edge1" class="edge">
<title>url_verify.url_verification:attempt&#45;&gt;url_verify.verification_attempt:id</title>
<path fill="none" stroke="#000000" d="M508.9994,-2146.9931C366.8157,-2132.3981 351.0276,-1807.5 499,-1807.5"/>
<polygon fill="#000000" stroke="#000000" points="509.0128,-2146.9937 518.7722,-2151.9942 514.0064,-2147.2469 519,-2147.5 519,-2147.5 519,-2147.5 514.0064,-2147.2469 519.2278,-2143.0058 509.0128,-2146.9937 509.0128,-2146.9937"/>
<text text-anchor="start" x="7.212" y="-2157.5" font-family="Arial" font-size="10.00" fill="#000000">FOREIGN KEY (attempt) REFERENCES url_verify.verification_attempt(id) DEFERRABLE INITIALLY DEFERRED</text>
</g>
</g>
</svg>
