<?xml version="1.0" encoding="UTF-8" standalone="no"?>
<!DOCTYPE svg PUBLIC "-//W3C//DTD SVG 1.1//EN"
 "http://www.w3.org/Graphics/SVG/1.1/DTD/svg11.dtd">
<!-- Generated by graphviz version 2.40.1 (20161225.0304)
 -->
<!-- Title: url_verify.url_selector Pages: 1 -->
<svg width="1096pt" height="1349pt"
 viewBox="0.00 0.00 1096.00 1349.00" xmlns="http://www.w3.org/2000/svg" xmlns:xlink="http://www.w3.org/1999/xlink">
<g id="graph0" class="graph" transform="scale(1 1) rotate(0) translate(4 1345)">
<title>url_verify.url_selector</title>
<polygon fill="#ffffff" stroke="transparent" points="-4,4 -4,-1345 1092,-1345 1092,4 -4,4"/>
<!-- url_verify.url_selector -->
<g id="node1" class="node">
<title>url_verify.url_selector</title>
<polygon fill="#efefef" stroke="transparent" points="311,-502.5 311,-537.5 623,-537.5 623,-502.5 311,-502.5"/>
<polygon fill="none" stroke="#000000" points="311,-502.5 311,-537.5 623,-537.5 623,-502.5 311,-502.5"/>
<text text-anchor="start" x="317.7151" y="-515.3" font-family="Arial Bold" font-size="18.00" fill="#000000">url_verify.url_selector</text>
<text text-anchor="start" x="488.7169" y="-515.3" font-family="Arial" font-size="14.00" fill="#000000">    </text>
<text text-anchor="start" x="522.9217" y="-515.3" font-family="Arial" font-size="14.00" fill="#666666">[BASE TABLE]</text>
<polygon fill="none" stroke="#000000" points="311,-472.5 311,-502.5 623,-502.5 623,-472.5 311,-472.5"/>
<text text-anchor="start" x="318" y="-483.9" font-family="Arial" font-size="14.00" fill="#000000">id </text>
<text text-anchor="start" x="332.7798" y="-483.9" font-family="Arial" font-size="14.00" fill="#666666">[integer]</text>
<polygon fill="none" stroke="#000000" points="311,-442.5 311,-472.5 623,-472.5 623,-442.5 311,-442.5"/>
<text text-anchor="start" x="318" y="-453.9" font-family="Arial" font-size="14.00" fill="#000000">xpath </text>
<text text-anchor="start" x="356.129" y="-453.9" font-family="Arial" font-size="14.00" fill="#666666">[text]</text>
<polygon fill="none" stroke="#000000" points="311,-412.5 311,-442.5 623,-442.5 623,-412.5 311,-412.5"/>
<text text-anchor="start" x="318" y="-423.9" font-family="Arial" font-size="14.00" fill="#000000">session </text>
<text text-anchor="start" x="369.345" y="-423.9" font-family="Arial" font-size="14.00" fill="#666666">[integer]</text>
<polygon fill="none" stroke="#000000" stroke-width="3" points="309.5,-411.5 309.5,-539.5 624.5,-539.5 624.5,-411.5 309.5,-411.5"/>
</g>
<!-- url_verify.session -->
<g id="node3" class="node">
<title>url_verify.session</title>
<polygon fill="#efefef" stroke="transparent" points="323,-252.5 323,-287.5 610,-287.5 610,-252.5 323,-252.5"/>
<polygon fill="none" stroke="#000000" points="323,-252.5 323,-287.5 610,-287.5 610,-252.5 323,-252.5"/>
<text text-anchor="start" x="333.2117" y="-265.3" font-family="Arial Bold" font-size="18.00" fill="#000000">url_verify.session</text>
<text text-anchor="start" x="472.2203" y="-265.3" font-family="Arial" font-size="14.00" fill="#000000">    </text>
<text text-anchor="start" x="506.4251" y="-265.3" font-family="Arial" font-size="14.00" fill="#666666">[BASE TABLE]</text>
<polygon fill="none" stroke="#000000" points="323,-222.5 323,-252.5 610,-252.5 610,-222.5 323,-222.5"/>
<text text-anchor="start" x="330" y="-233.9" font-family="Arial" font-size="14.00" fill="#000000">id    </text>
<text text-anchor="start" x="375.094" y="-233.9" font-family="Arial" font-size="14.00" fill="#666666">[integer]</text>
<polygon fill="none" stroke="#000000" points="323,-192.5 323,-222.5 610,-222.5 610,-192.5 323,-192.5"/>
<text text-anchor="start" x="330" y="-203.9" font-family="Arial" font-size="14.00" fill="#000000">name    </text>
<text text-anchor="start" x="399.2132" y="-203.9" font-family="Arial" font-size="14.00" fill="#666666">[text]</text>
<polygon fill="none" stroke="#000000" points="323,-162.5 323,-192.5 610,-192.5 610,-162.5 323,-162.5"/>
<text text-anchor="start" x="330" y="-173.9" font-family="Arial" font-size="14.00" fill="#000000">owning_lib    </text>
<text text-anchor="start" x="430.3268" y="-173.9" font-family="Arial" font-size="14.00" fill="#666666">[integer]</text>
<polygon fill="none" stroke="#000000" points="323,-132.5 323,-162.5 610,-162.5 610,-132.5 323,-132.5"/>
<text text-anchor="start" x="330" y="-143.9" font-family="Arial" font-size="14.00" fill="#000000">creator    </text>
<text text-anchor="start" x="407.7644" y="-143.9" font-family="Arial" font-size="14.00" fill="#666666">[integer]</text>
<polygon fill="none" stroke="#000000" points="323,-102.5 323,-132.5 610,-132.5 610,-102.5 323,-102.5"/>
<text text-anchor="start" x="330" y="-113.9" font-family="Arial" font-size="14.00" fill="#000000">container    </text>
<text text-anchor="start" x="421.7756" y="-113.9" font-family="Arial" font-size="14.00" fill="#666666">[integer]</text>
<polygon fill="none" stroke="#000000" points="323,-72.5 323,-102.5 610,-102.5 610,-72.5 323,-72.5"/>
<text text-anchor="start" x="329.9944" y="-83.9" font-family="Arial" font-size="14.00" fill="#000000">create_time    </text>
<text text-anchor="start" x="437.3212" y="-83.9" font-family="Arial" font-size="14.00" fill="#666666">[timestamp with time zone]</text>
<polygon fill="none" stroke="#000000" points="323,-42.5 323,-72.5 610,-72.5 610,-42.5 323,-42.5"/>
<text text-anchor="start" x="330" y="-53.9" font-family="Arial" font-size="14.00" fill="#000000">search    </text>
<text text-anchor="start" x="406.2132" y="-53.9" font-family="Arial" font-size="14.00" fill="#666666">[text]</text>
</g>
<!-- url_verify.url_selector&#45;&gt;url_verify.session -->
<g id="edge2" class="edge">
<title>url_verify.url_selector:session&#45;&gt;url_verify.session:id</title>
<path fill="none" stroke="#000000" d="M467.7989,-402.314C477.6115,-344.6184 575.1132,-391.0381 610,-331 630.8782,-295.07 651.5556,-237.5 610,-237.5"/>
<polygon fill="#000000" stroke="#000000" points="467.782,-402.5306 462.5138,-412.1481 467.391,-407.5153 467,-412.5 467,-412.5 467,-412.5 467.391,-407.5153 471.4862,-412.8519 467.782,-402.5306 467.782,-402.5306"/>
<text text-anchor="start" x="7.3285" y="-422.5" font-family="Arial" font-size="10.00" fill="#000000">FOREIGN KEY (session) REFERENCES url_verify.session(id) DEFERRABLE INITIALLY DEFERRED</text>
</g>
<!-- url_verify.url -->
<g id="node2" class="node">
<title>url_verify.url</title>
<polygon fill="#efefef" stroke="transparent" points="347,-1262.5 347,-1297.5 586,-1297.5 586,-1262.5 347,-1262.5"/>
<polygon fill="none" stroke="#000000" points="347,-1262.5 347,-1297.5 586,-1297.5 586,-1262.5 347,-1262.5"/>
<text text-anchor="start" x="353.7218" y="-1275.3" font-family="Arial Bold" font-size="18.00" fill="#000000">url_verify.url</text>
<text text-anchor="start" x="451.7102" y="-1275.3" font-family="Arial" font-size="14.00" fill="#000000">    </text>
<text text-anchor="start" x="485.915" y="-1275.3" font-family="Arial" font-size="14.00" fill="#666666">[BASE TABLE]</text>
<polygon fill="none" stroke="#000000" points="347,-1232.5 347,-1262.5 586,-1262.5 586,-1232.5 347,-1232.5"/>
<text text-anchor="start" x="354" y="-1243.9" font-family="Arial" font-size="14.00" fill="#000000">id    </text>
<text text-anchor="start" x="399.094" y="-1243.9" font-family="Arial" font-size="14.00" fill="#666666">[integer]</text>
<polygon fill="none" stroke="#000000" points="347,-1202.5 347,-1232.5 586,-1232.5 586,-1202.5 347,-1202.5"/>
<text text-anchor="start" x="354" y="-1213.9" font-family="Arial" font-size="14.00" fill="#000000">redirect_from    </text>
<text text-anchor="start" x="470.648" y="-1213.9" font-family="Arial" font-size="14.00" fill="#666666">[integer]</text>
<polygon fill="none" stroke="#000000" points="347,-1172.5 347,-1202.5 586,-1202.5 586,-1172.5 347,-1172.5"/>
<text text-anchor="start" x="354" y="-1183.9" font-family="Arial" font-size="14.00" fill="#000000">item    </text>
<text text-anchor="start" x="414.6452" y="-1183.9" font-family="Arial" font-size="14.00" fill="#666666">[integer]</text>
<polygon fill="none" stroke="#000000" points="347,-1142.5 347,-1172.5 586,-1172.5 586,-1142.5 347,-1142.5"/>
<text text-anchor="start" x="354" y="-1153.9" font-family="Arial" font-size="14.00" fill="#000000">session    </text>
<text text-anchor="start" x="435.6592" y="-1153.9" font-family="Arial" font-size="14.00" fill="#666666">[integer]</text>
<polygon fill="none" stroke="#000000" points="347,-1112.5 347,-1142.5 586,-1142.5 586,-1112.5 347,-1112.5"/>
<text text-anchor="start" x="354" y="-1123.9" font-family="Arial" font-size="14.00" fill="#000000">url_selector    </text>
<text text-anchor="start" x="460.5428" y="-1123.9" font-family="Arial" font-size="14.00" fill="#666666">[integer]</text>
<polygon fill="none" stroke="#000000" points="347,-1082.5 347,-1112.5 586,-1112.5 586,-1082.5 347,-1082.5"/>
<text text-anchor="start" x="354" y="-1093.9" font-family="Arial" font-size="14.00" fill="#000000">tag    </text>
<text text-anchor="start" x="407.6606" y="-1093.9" font-family="Arial" font-size="14.00" fill="#666666">[text]</text>
<polygon fill="none" stroke="#000000" points="347,-1052.5 347,-1082.5 586,-1082.5 586,-1052.5 347,-1052.5"/>
<text text-anchor="start" x="354" y="-1063.9" font-family="Arial" font-size="14.00" fill="#000000">subfield    </text>
<text text-anchor="start" x="436.439" y="-1063.9" font-family="Arial" font-size="14.00" fill="#666666">[text]</text>
<polygon fill="none" stroke="#000000" points="347,-1022.5 347,-1052.5 586,-1052.5 586,-1022.5 347,-1022.5"/>
<text text-anchor="start" x="354" y="-1033.9" font-family="Arial" font-size="14.00" fill="#000000">ord    </text>
<text text-anchor="start" x="408.4306" y="-1033.9" font-family="Arial" font-size="14.00" fill="#666666">[integer]</text>
<polygon fill="none" stroke="#000000" points="347,-992.5 347,-1022.5 586,-1022.5 586,-992.5 347,-992.5"/>
<text text-anchor="start" x="354" y="-1003.9" font-family="Arial" font-size="14.00" fill="#000000">full_url    </text>
<text text-anchor="start" x="429.4236" y="-1003.9" font-family="Arial" font-size="14.00" fill="#666666">[text]</text>
<polygon fill="none" stroke="#000000" points="347,-962.5 347,-992.5 586,-992.5 586,-962.5 347,-962.5"/>
<text text-anchor="start" x="354" y="-973.9" font-family="Arial" font-size="14.00" fill="#000000">scheme    </text>
<text text-anchor="start" x="437.2132" y="-973.9" font-family="Arial" font-size="14.00" fill="#666666">[text]</text>
<polygon fill="none" stroke="#000000" points="347,-932.5 347,-962.5 586,-962.5 586,-932.5 347,-932.5"/>
<text text-anchor="start" x="354" y="-943.9" font-family="Arial" font-size="14.00" fill="#000000">username    </text>
<text text-anchor="start" x="450.439" y="-943.9" font-family="Arial" font-size="14.00" fill="#666666">[text]</text>
<polygon fill="none" stroke="#000000" points="347,-902.5 347,-932.5 586,-932.5 586,-902.5 347,-902.5"/>
<text text-anchor="start" x="354" y="-913.9" font-family="Arial" font-size="14.00" fill="#000000">password    </text>
<text text-anchor="start" x="448.1024" y="-913.9" font-family="Arial" font-size="14.00" fill="#666666">[text]</text>
<polygon fill="none" stroke="#000000" points="347,-872.5 347,-902.5 586,-902.5 586,-872.5 347,-872.5"/>
<text text-anchor="start" x="354" y="-883.9" font-family="Arial" font-size="14.00" fill="#000000">host    </text>
<text text-anchor="start" x="414.6606" y="-883.9" font-family="Arial" font-size="14.00" fill="#666666">[text]</text>
<polygon fill="none" stroke="#000000" points="347,-842.5 347,-872.5 586,-872.5 586,-842.5 347,-842.5"/>
<text text-anchor="start" x="354" y="-853.9" font-family="Arial" font-size="14.00" fill="#000000">domain    </text>
<text text-anchor="start" x="434.1024" y="-853.9" font-family="Arial" font-size="14.00" fill="#666666">[text]</text>
<polygon fill="none" stroke="#000000" points="347,-812.5 347,-842.5 586,-842.5 586,-812.5 347,-812.5"/>
<text text-anchor="start" x="354" y="-823.9" font-family="Arial" font-size="14.00" fill="#000000">tld    </text>
<text text-anchor="start" x="402.9846" y="-823.9" font-family="Arial" font-size="14.00" fill="#666666">[text]</text>
<polygon fill="none" stroke="#000000" points="347,-782.5 347,-812.5 586,-812.5 586,-782.5 347,-782.5"/>
<text text-anchor="start" x="354" y="-793.9" font-family="Arial" font-size="14.00" fill="#000000">port    </text>
<text text-anchor="start" x="412.3212" y="-793.9" font-family="Arial" font-size="14.00" fill="#666666">[text]</text>
<polygon fill="none" stroke="#000000" points="347,-752.5 347,-782.5 586,-782.5 586,-752.5 347,-752.5"/>
<text text-anchor="start" x="354" y="-763.9" font-family="Arial" font-size="14.00" fill="#000000">path    </text>
<text text-anchor="start" x="415.4432" y="-763.9" font-family="Arial" font-size="14.00" fill="#666666">[text]</text>
<polygon fill="none" stroke="#000000" points="347,-722.5 347,-752.5 586,-752.5 586,-722.5 347,-722.5"/>
<text text-anchor="start" x="354" y="-733.9" font-family="Arial" font-size="14.00" fill="#000000">page    </text>
<text text-anchor="start" x="419.3352" y="-733.9" font-family="Arial" font-size="14.00" fill="#666666">[text]</text>
<polygon fill="none" stroke="#000000" points="347,-692.5 347,-722.5 586,-722.5 586,-692.5 347,-692.5"/>
<text text-anchor="start" x="354" y="-703.9" font-family="Arial" font-size="14.00" fill="#000000">query    </text>
<text text-anchor="start" x="423.2132" y="-703.9" font-family="Arial" font-size="14.00" fill="#666666">[text]</text>
<polygon fill="none" stroke="#000000" points="347,-662.5 347,-692.5 586,-692.5 586,-662.5 347,-662.5"/>
<text text-anchor="start" x="354" y="-673.9" font-family="Arial" font-size="14.00" fill="#000000">fragment    </text>
<text text-anchor="start" x="443.4376" y="-673.9" font-family="Arial" font-size="14.00" fill="#666666">[text]</text>
</g>
<!-- url_verify.url&#45;&gt;url_verify.url_selector -->
<g id="edge1" class="edge">
<title>url_verify.url:url_selector&#45;&gt;url_verify.url_selector:id</title>
<path fill="none" stroke="#000000" d="M596.1336,-1126.2847C696.3434,-1101.409 658.0658,-702.1148 586,-620 504.6918,-527.3541 392.3082,-676.6459 311,-584 282.7096,-551.7648 268.1111,-487.5 311,-487.5"/>
<polygon fill="#000000" stroke="#000000" points="595.9289,-1126.3092 585.4641,-1123.032 590.9644,-1126.9046 586,-1127.5 586,-1127.5 586,-1127.5 590.9644,-1126.9046 586.5359,-1131.968 595.9289,-1126.3092 595.9289,-1126.3092"/>
<text text-anchor="start" x="592.5545" y="-1137.5" font-family="Arial" font-size="10.00" fill="#000000">FOREIGN KEY (url_selector) REFERENCES url_verify.url_selector(id) DEFERRABLE INITIALLY DEFERRED</text>
</g>
</g>
</svg>
