<?xml version="1.0" encoding="UTF-8" standalone="no"?>
<!DOCTYPE svg PUBLIC "-//W3C//DTD SVG 1.1//EN"
 "http://www.w3.org/Graphics/SVG/1.1/DTD/svg11.dtd">
<!-- Generated by graphviz version 2.40.1 (20161225.0304)
 -->
<!-- Title: url_verify.session Pages: 1 -->
<svg width="1355pt" height="2729pt"
 viewBox="0.00 0.00 1355.00 2729.00" xmlns="http://www.w3.org/2000/svg" xmlns:xlink="http://www.w3.org/1999/xlink">
<g id="graph0" class="graph" transform="scale(1 1) rotate(0) translate(4 2725)">
<title>url_verify.session</title>
<polygon fill="#ffffff" stroke="transparent" points="-4,4 -4,-2725 1351,-2725 1351,4 -4,4"/>
<!-- url_verify.session -->
<g id="node1" class="node">
<title>url_verify.session</title>
<polygon fill="#efefef" stroke="transparent" points="464,-1882.5 464,-1917.5 744,-1917.5 744,-1882.5 464,-1882.5"/>
<polygon fill="none" stroke="#000000" points="464,-1882.5 464,-1917.5 744,-1917.5 744,-1882.5 464,-1882.5"/>
<text text-anchor="start" x="470.7117" y="-1895.3" font-family="Arial Bold" font-size="18.00" fill="#000000">url_verify.session</text>
<text text-anchor="start" x="609.7203" y="-1895.3" font-family="Arial" font-size="14.00" fill="#000000">    </text>
<text text-anchor="start" x="643.9251" y="-1895.3" font-family="Arial" font-size="14.00" fill="#666666">[BASE TABLE]</text>
<polygon fill="none" stroke="#000000" points="464,-1852.5 464,-1882.5 744,-1882.5 744,-1852.5 464,-1852.5"/>
<text text-anchor="start" x="471" y="-1863.9" font-family="Arial" font-size="14.00" fill="#000000">id </text>
<text text-anchor="start" x="485.7798" y="-1863.9" font-family="Arial" font-size="14.00" fill="#666666">[integer]</text>
<polygon fill="none" stroke="#000000" points="464,-1822.5 464,-1852.5 744,-1852.5 744,-1822.5 464,-1822.5"/>
<text text-anchor="start" x="471" y="-1833.9" font-family="Arial" font-size="14.00" fill="#000000">name </text>
<text text-anchor="start" x="509.899" y="-1833.9" font-family="Arial" font-size="14.00" fill="#666666">[text]</text>
<polygon fill="none" stroke="#000000" points="464,-1792.5 464,-1822.5 744,-1822.5 744,-1792.5 464,-1792.5"/>
<text text-anchor="start" x="471" y="-1803.9" font-family="Arial" font-size="14.00" fill="#000000">owning_lib </text>
<text text-anchor="start" x="541.0126" y="-1803.9" font-family="Arial" font-size="14.00" fill="#666666">[integer]</text>
<polygon fill="none" stroke="#000000" points="464,-1762.5 464,-1792.5 744,-1792.5 744,-1762.5 464,-1762.5"/>
<text text-anchor="start" x="471" y="-1773.9" font-family="Arial" font-size="14.00" fill="#000000">creator </text>
<text text-anchor="start" x="518.4502" y="-1773.9" font-family="Arial" font-size="14.00" fill="#666666">[integer]</text>
<polygon fill="none" stroke="#000000" points="464,-1732.5 464,-1762.5 744,-1762.5 744,-1732.5 464,-1732.5"/>
<text text-anchor="start" x="471" y="-1743.9" font-family="Arial" font-size="14.00" fill="#000000">container </text>
<text text-anchor="start" x="532.4614" y="-1743.9" font-family="Arial" font-size="14.00" fill="#666666">[integer]</text>
<polygon fill="none" stroke="#000000" points="464,-1702.5 464,-1732.5 744,-1732.5 744,-1702.5 464,-1702.5"/>
<text text-anchor="start" x="471" y="-1713.9" font-family="Arial" font-size="14.00" fill="#000000">create_time </text>
<text text-anchor="start" x="548.0126" y="-1713.9" font-family="Arial" font-size="14.00" fill="#666666">[timestamp with time zone]</text>
<polygon fill="none" stroke="#000000" points="464,-1672.5 464,-1702.5 744,-1702.5 744,-1672.5 464,-1672.5"/>
<text text-anchor="start" x="471" y="-1683.9" font-family="Arial" font-size="14.00" fill="#000000">search </text>
<text text-anchor="start" x="516.899" y="-1683.9" font-family="Arial" font-size="14.00" fill="#666666">[text]</text>
<polygon fill="none" stroke="#000000" stroke-width="3" points="462.5,-1671.5 462.5,-1919.5 745.5,-1919.5 745.5,-1671.5 462.5,-1671.5"/>
</g>
<!-- actor.org_unit -->
<g id="node5" class="node">
<title>actor.org_unit</title>
<polygon fill="#efefef" stroke="transparent" points="89,-972.5 89,-1007.5 340,-1007.5 340,-972.5 89,-972.5"/>
<polygon fill="none" stroke="#000000" points="89,-972.5 89,-1007.5 340,-1007.5 340,-972.5 89,-972.5"/>
<text text-anchor="start" x="95.7017" y="-985.3" font-family="Arial Bold" font-size="18.00" fill="#000000">actor.org_unit</text>
<text text-anchor="start" x="205.7303" y="-985.3" font-family="Arial" font-size="14.00" fill="#000000">    </text>
<text text-anchor="start" x="239.9351" y="-985.3" font-family="Arial" font-size="14.00" fill="#666666">[BASE TABLE]</text>
<polygon fill="none" stroke="#000000" points="89,-942.5 89,-972.5 340,-972.5 340,-942.5 89,-942.5"/>
<text text-anchor="start" x="96" y="-953.9" font-family="Arial" font-size="14.00" fill="#000000">id    </text>
<text text-anchor="start" x="141.094" y="-953.9" font-family="Arial" font-size="14.00" fill="#666666">[integer]</text>
<polygon fill="none" stroke="#000000" points="89,-912.5 89,-942.5 340,-942.5 340,-912.5 89,-912.5"/>
<text text-anchor="start" x="96" y="-923.9" font-family="Arial" font-size="14.00" fill="#000000">parent_ou    </text>
<text text-anchor="start" x="193.2342" y="-923.9" font-family="Arial" font-size="14.00" fill="#666666">[integer]</text>
<polygon fill="none" stroke="#000000" points="89,-882.5 89,-912.5 340,-912.5 340,-882.5 89,-882.5"/>
<text text-anchor="start" x="96" y="-893.9" font-family="Arial" font-size="14.00" fill="#000000">ou_type    </text>
<text text-anchor="start" x="180.0084" y="-893.9" font-family="Arial" font-size="14.00" fill="#666666">[integer]</text>
<polygon fill="none" stroke="#000000" points="89,-852.5 89,-882.5 340,-882.5 340,-852.5 89,-852.5"/>
<text text-anchor="start" x="96" y="-863.9" font-family="Arial" font-size="14.00" fill="#000000">ill_address    </text>
<text text-anchor="start" x="197.0982" y="-863.9" font-family="Arial" font-size="14.00" fill="#666666">[integer]</text>
<polygon fill="none" stroke="#000000" points="89,-822.5 89,-852.5 340,-852.5 340,-822.5 89,-822.5"/>
<text text-anchor="start" x="96" y="-833.9" font-family="Arial" font-size="14.00" fill="#000000">holds_address    </text>
<text text-anchor="start" x="221.2328" y="-833.9" font-family="Arial" font-size="14.00" fill="#666666">[integer]</text>
<polygon fill="none" stroke="#000000" points="89,-792.5 89,-822.5 340,-822.5 340,-792.5 89,-792.5"/>
<text text-anchor="start" x="96" y="-803.9" font-family="Arial" font-size="14.00" fill="#000000">mailing_address    </text>
<text text-anchor="start" x="232.1066" y="-803.9" font-family="Arial" font-size="14.00" fill="#666666">[integer]</text>
<polygon fill="none" stroke="#000000" points="89,-762.5 89,-792.5 340,-792.5 340,-762.5 89,-762.5"/>
<text text-anchor="start" x="96" y="-773.9" font-family="Arial" font-size="14.00" fill="#000000">billing_address    </text>
<text text-anchor="start" x="223.5526" y="-773.9" font-family="Arial" font-size="14.00" fill="#666666">[integer]</text>
<polygon fill="none" stroke="#000000" points="89,-732.5 89,-762.5 340,-762.5 340,-732.5 89,-732.5"/>
<text text-anchor="start" x="96" y="-743.9" font-family="Arial" font-size="14.00" fill="#000000">shortname    </text>
<text text-anchor="start" x="196.3296" y="-743.9" font-family="Arial" font-size="14.00" fill="#666666">[text]</text>
<polygon fill="none" stroke="#000000" points="89,-702.5 89,-732.5 340,-732.5 340,-702.5 89,-702.5"/>
<text text-anchor="start" x="96" y="-713.9" font-family="Arial" font-size="14.00" fill="#000000">name    </text>
<text text-anchor="start" x="165.2132" y="-713.9" font-family="Arial" font-size="14.00" fill="#666666">[text]</text>
<polygon fill="none" stroke="#000000" points="89,-672.5 89,-702.5 340,-702.5 340,-672.5 89,-672.5"/>
<text text-anchor="start" x="96" y="-683.9" font-family="Arial" font-size="14.00" fill="#000000">email    </text>
<text text-anchor="start" x="163.6438" y="-683.9" font-family="Arial" font-size="14.00" fill="#666666">[text]</text>
<polygon fill="none" stroke="#000000" points="89,-642.5 89,-672.5 340,-672.5 340,-642.5 89,-642.5"/>
<text text-anchor="start" x="96" y="-653.9" font-family="Arial" font-size="14.00" fill="#000000">phone    </text>
<text text-anchor="start" x="169.1178" y="-653.9" font-family="Arial" font-size="14.00" fill="#666666">[text]</text>
<polygon fill="none" stroke="#000000" points="89,-612.5 89,-642.5 340,-642.5 340,-612.5 89,-612.5"/>
<text text-anchor="start" x="96" y="-623.9" font-family="Arial" font-size="14.00" fill="#000000">opac_visible    </text>
<text text-anchor="start" x="207.2202" y="-623.9" font-family="Arial" font-size="14.00" fill="#666666">[boolean]</text>
<polygon fill="none" stroke="#000000" points="89,-582.5 89,-612.5 340,-612.5 340,-582.5 89,-582.5"/>
<text text-anchor="start" x="96" y="-593.9" font-family="Arial" font-size="14.00" fill="#000000">fiscal_calendar    </text>
<text text-anchor="start" x="223.554" y="-593.9" font-family="Arial" font-size="14.00" fill="#666666">[integer]</text>
</g>
<!-- url_verify.session&#45;&gt;actor.org_unit -->
<g id="edge4" class="edge">
<title>url_verify.session:owning_lib&#45;&gt;actor.org_unit:id</title>
<path fill="none" stroke="#000000" d="M453.8557,-1807.0715C366.0041,-1799.2851 411.5793,-1686.8596 392,-1591 377.8665,-1521.803 410.6256,-957.5 340,-957.5"/>
<polygon fill="#000000" stroke="#000000" points="454.0089,-1807.0779 463.81,-1811.996 459.0045,-1807.2889 464,-1807.5 464,-1807.5 464,-1807.5 459.0045,-1807.2889 464.19,-1803.004 454.0089,-1807.0779 454.0089,-1807.0779"/>
<text text-anchor="start" x="6.7115" y="-1817.5" font-family="Arial" font-size="10.00" fill="#000000">FOREIGN KEY (owning_lib) REFERENCES actor.org_unit(id) DEFERRABLE INITIALLY DEFERRED</text>
</g>
<!-- actor.usr -->
<g id="node6" class="node">
<title>actor.usr</title>
<polygon fill="#efefef" stroke="transparent" points="444,-1512.5 444,-1547.5 764,-1547.5 764,-1512.5 444,-1512.5"/>
<polygon fill="none" stroke="#000000" points="444,-1512.5 444,-1547.5 764,-1547.5 764,-1512.5 444,-1512.5"/>
<text text-anchor="start" x="505.2123" y="-1525.3" font-family="Arial Bold" font-size="18.00" fill="#000000">actor.usr</text>
<text text-anchor="start" x="575.2197" y="-1525.3" font-family="Arial" font-size="14.00" fill="#000000">    </text>
<text text-anchor="start" x="609.4245" y="-1525.3" font-family="Arial" font-size="14.00" fill="#666666">[BASE TABLE]</text>
<polygon fill="none" stroke="#000000" points="444,-1482.5 444,-1512.5 764,-1512.5 764,-1482.5 444,-1482.5"/>
<text text-anchor="start" x="451" y="-1493.9" font-family="Arial" font-size="14.00" fill="#000000">id    </text>
<text text-anchor="start" x="496.094" y="-1493.9" font-family="Arial" font-size="14.00" fill="#666666">[integer]</text>
<polygon fill="none" stroke="#000000" points="444,-1452.5 444,-1482.5 764,-1482.5 764,-1452.5 444,-1452.5"/>
<text text-anchor="start" x="451" y="-1463.9" font-family="Arial" font-size="14.00" fill="#000000">card    </text>
<text text-anchor="start" x="512.4306" y="-1463.9" font-family="Arial" font-size="14.00" fill="#666666">[integer]</text>
<polygon fill="none" stroke="#000000" points="444,-1422.5 444,-1452.5 764,-1452.5 764,-1422.5 444,-1422.5"/>
<text text-anchor="start" x="451" y="-1433.9" font-family="Arial" font-size="14.00" fill="#000000">profile    </text>
<text text-anchor="start" x="523.317" y="-1433.9" font-family="Arial" font-size="14.00" fill="#666666">[integer]</text>
<polygon fill="none" stroke="#000000" points="444,-1392.5 444,-1422.5 764,-1422.5 764,-1392.5 444,-1392.5"/>
<text text-anchor="start" x="451" y="-1403.9" font-family="Arial" font-size="14.00" fill="#000000">usrname    </text>
<text text-anchor="start" x="539.6564" y="-1403.9" font-family="Arial" font-size="14.00" fill="#666666">[text]</text>
<polygon fill="none" stroke="#000000" points="444,-1362.5 444,-1392.5 764,-1392.5 764,-1362.5 444,-1362.5"/>
<text text-anchor="start" x="451" y="-1373.9" font-family="Arial" font-size="14.00" fill="#000000">email    </text>
<text text-anchor="start" x="518.6438" y="-1373.9" font-family="Arial" font-size="14.00" fill="#666666">[text]</text>
<polygon fill="none" stroke="#000000" points="444,-1332.5 444,-1362.5 764,-1362.5 764,-1332.5 444,-1332.5"/>
<text text-anchor="start" x="451" y="-1343.9" font-family="Arial" font-size="14.00" fill="#000000">passwd    </text>
<text text-anchor="start" x="532.6592" y="-1343.9" font-family="Arial" font-size="14.00" fill="#666666">[text]</text>
<polygon fill="none" stroke="#000000" points="444,-1302.5 444,-1332.5 764,-1332.5 764,-1302.5 444,-1302.5"/>
<text text-anchor="start" x="451" y="-1313.9" font-family="Arial" font-size="14.00" fill="#000000">standing    </text>
<text text-anchor="start" x="538.115" y="-1313.9" font-family="Arial" font-size="14.00" fill="#666666">[integer]</text>
<polygon fill="none" stroke="#000000" points="444,-1272.5 444,-1302.5 764,-1302.5 764,-1272.5 444,-1272.5"/>
<text text-anchor="start" x="451" y="-1283.9" font-family="Arial" font-size="14.00" fill="#000000">ident_type    </text>
<text text-anchor="start" x="549.7882" y="-1283.9" font-family="Arial" font-size="14.00" fill="#666666">[integer]</text>
<polygon fill="none" stroke="#000000" points="444,-1242.5 444,-1272.5 764,-1272.5 764,-1242.5 444,-1242.5"/>
<text text-anchor="start" x="451" y="-1253.9" font-family="Arial" font-size="14.00" fill="#000000">ident_value    </text>
<text text-anchor="start" x="556.7868" y="-1253.9" font-family="Arial" font-size="14.00" fill="#666666">[text]</text>
<polygon fill="none" stroke="#000000" points="444,-1212.5 444,-1242.5 764,-1242.5 764,-1212.5 444,-1212.5"/>
<text text-anchor="start" x="451" y="-1223.9" font-family="Arial" font-size="14.00" fill="#000000">ident_type2    </text>
<text text-anchor="start" x="557.5708" y="-1223.9" font-family="Arial" font-size="14.00" fill="#666666">[integer]</text>
<polygon fill="none" stroke="#000000" points="444,-1182.5 444,-1212.5 764,-1212.5 764,-1182.5 444,-1182.5"/>
<text text-anchor="start" x="451" y="-1193.9" font-family="Arial" font-size="14.00" fill="#000000">ident_value2    </text>
<text text-anchor="start" x="564.5694" y="-1193.9" font-family="Arial" font-size="14.00" fill="#666666">[text]</text>
<polygon fill="none" stroke="#000000" points="444,-1152.5 444,-1182.5 764,-1182.5 764,-1152.5 444,-1152.5"/>
<text text-anchor="start" x="451" y="-1163.9" font-family="Arial" font-size="14.00" fill="#000000">net_access_level    </text>
<text text-anchor="start" x="592.5694" y="-1163.9" font-family="Arial" font-size="14.00" fill="#666666">[integer]</text>
<polygon fill="none" stroke="#000000" points="444,-1122.5 444,-1152.5 764,-1152.5 764,-1122.5 444,-1122.5"/>
<text text-anchor="start" x="451" y="-1133.9" font-family="Arial" font-size="14.00" fill="#000000">photo_url    </text>
<text text-anchor="start" x="543.5582" y="-1133.9" font-family="Arial" font-size="14.00" fill="#666666">[text]</text>
<polygon fill="none" stroke="#000000" points="444,-1092.5 444,-1122.5 764,-1122.5 764,-1092.5 444,-1092.5"/>
<text text-anchor="start" x="451" y="-1103.9" font-family="Arial" font-size="14.00" fill="#000000">prefix    </text>
<text text-anchor="start" x="519.4278" y="-1103.9" font-family="Arial" font-size="14.00" fill="#666666">[text]</text>
<polygon fill="none" stroke="#000000" points="444,-1062.5 444,-1092.5 764,-1092.5 764,-1062.5 444,-1062.5"/>
<text text-anchor="start" x="451" y="-1073.9" font-family="Arial" font-size="14.00" fill="#000000">first_given_name    </text>
<text text-anchor="start" x="591.7812" y="-1073.9" font-family="Arial" font-size="14.00" fill="#666666">[text]</text>
<polygon fill="none" stroke="#000000" points="444,-1032.5 444,-1062.5 764,-1062.5 764,-1032.5 444,-1032.5"/>
<text text-anchor="start" x="451" y="-1043.9" font-family="Arial" font-size="14.00" fill="#000000">second_given_name    </text>
<text text-anchor="start" x="614.3632" y="-1043.9" font-family="Arial" font-size="14.00" fill="#666666">[text]</text>
<polygon fill="none" stroke="#000000" points="444,-1002.5 444,-1032.5 764,-1032.5 764,-1002.5 444,-1002.5"/>
<text text-anchor="start" x="451" y="-1013.9" font-family="Arial" font-size="14.00" fill="#000000">family_name    </text>
<text text-anchor="start" x="564.5428" y="-1013.9" font-family="Arial" font-size="14.00" fill="#666666">[text]</text>
<polygon fill="none" stroke="#000000" points="444,-972.5 444,-1002.5 764,-1002.5 764,-972.5 444,-972.5"/>
<text text-anchor="start" x="451" y="-983.9" font-family="Arial" font-size="14.00" fill="#000000">suffix    </text>
<text text-anchor="start" x="517.8752" y="-983.9" font-family="Arial" font-size="14.00" fill="#666666">[text]</text>
<polygon fill="none" stroke="#000000" points="444,-942.5 444,-972.5 764,-972.5 764,-942.5 444,-942.5"/>
<text text-anchor="start" x="451" y="-953.9" font-family="Arial" font-size="14.00" fill="#000000">alias    </text>
<text text-anchor="start" x="513.9832" y="-953.9" font-family="Arial" font-size="14.00" fill="#666666">[text]</text>
<polygon fill="none" stroke="#000000" points="444,-912.5 444,-942.5 764,-942.5 764,-912.5 444,-912.5"/>
<text text-anchor="start" x="451" y="-923.9" font-family="Arial" font-size="14.00" fill="#000000">day_phone    </text>
<text text-anchor="start" x="554.4656" y="-923.9" font-family="Arial" font-size="14.00" fill="#666666">[text]</text>
<polygon fill="none" stroke="#000000" points="444,-882.5 444,-912.5 764,-912.5 764,-882.5 444,-882.5"/>
<text text-anchor="start" x="451" y="-893.9" font-family="Arial" font-size="14.00" fill="#000000">evening_phone    </text>
<text text-anchor="start" x="580.92" y="-893.9" font-family="Arial" font-size="14.00" fill="#666666">[text]</text>
<polygon fill="none" stroke="#000000" points="444,-852.5 444,-882.5 764,-882.5 764,-852.5 444,-852.5"/>
<text text-anchor="start" x="451" y="-863.9" font-family="Arial" font-size="14.00" fill="#000000">other_phone    </text>
<text text-anchor="start" x="563.7994" y="-863.9" font-family="Arial" font-size="14.00" fill="#666666">[text]</text>
<polygon fill="none" stroke="#000000" points="444,-822.5 444,-852.5 764,-852.5 764,-822.5 444,-822.5"/>
<text text-anchor="start" x="451" y="-833.9" font-family="Arial" font-size="14.00" fill="#000000">mailing_address    </text>
<text text-anchor="start" x="587.1066" y="-833.9" font-family="Arial" font-size="14.00" fill="#666666">[integer]</text>
<polygon fill="none" stroke="#000000" points="444,-792.5 444,-822.5 764,-822.5 764,-792.5 444,-792.5"/>
<text text-anchor="start" x="451" y="-803.9" font-family="Arial" font-size="14.00" fill="#000000">billing_address    </text>
<text text-anchor="start" x="578.5526" y="-803.9" font-family="Arial" font-size="14.00" fill="#666666">[integer]</text>
<polygon fill="none" stroke="#000000" points="444,-762.5 444,-792.5 764,-792.5 764,-762.5 444,-762.5"/>
<text text-anchor="start" x="451" y="-773.9" font-family="Arial" font-size="14.00" fill="#000000">home_ou    </text>
<text text-anchor="start" x="543.561" y="-773.9" font-family="Arial" font-size="14.00" fill="#666666">[integer]</text>
<polygon fill="none" stroke="#000000" points="444,-732.5 444,-762.5 764,-762.5 764,-732.5 444,-732.5"/>
<text text-anchor="start" x="451" y="-743.9" font-family="Arial" font-size="14.00" fill="#000000">dob    </text>
<text text-anchor="start" x="508.5526" y="-743.9" font-family="Arial" font-size="14.00" fill="#666666">[date]</text>
<polygon fill="none" stroke="#000000" points="444,-702.5 444,-732.5 764,-732.5 764,-702.5 444,-702.5"/>
<text text-anchor="start" x="451" y="-713.9" font-family="Arial" font-size="14.00" fill="#000000">active    </text>
<text text-anchor="start" x="521.7672" y="-713.9" font-family="Arial" font-size="14.00" fill="#666666">[boolean]</text>
<polygon fill="none" stroke="#000000" points="444,-672.5 444,-702.5 764,-702.5 764,-672.5 444,-672.5"/>
<text text-anchor="start" x="451" y="-683.9" font-family="Arial" font-size="14.00" fill="#000000">master_account    </text>
<text text-anchor="start" x="584.7854" y="-683.9" font-family="Arial" font-size="14.00" fill="#666666">[boolean]</text>
<polygon fill="none" stroke="#000000" points="444,-642.5 444,-672.5 764,-672.5 764,-642.5 444,-642.5"/>
<text text-anchor="start" x="451" y="-653.9" font-family="Arial" font-size="14.00" fill="#000000">super_user    </text>
<text text-anchor="start" x="555.2216" y="-653.9" font-family="Arial" font-size="14.00" fill="#666666">[boolean]</text>
<polygon fill="none" stroke="#000000" points="444,-612.5 444,-642.5 764,-642.5 764,-612.5 444,-612.5"/>
<text text-anchor="start" x="451" y="-623.9" font-family="Arial" font-size="14.00" fill="#000000">barred    </text>
<text text-anchor="start" x="525.6564" y="-623.9" font-family="Arial" font-size="14.00" fill="#666666">[boolean]</text>
<polygon fill="none" stroke="#000000" points="444,-582.5 444,-612.5 764,-612.5 764,-582.5 444,-582.5"/>
<text text-anchor="start" x="451" y="-593.9" font-family="Arial" font-size="14.00" fill="#000000">deleted    </text>
<text text-anchor="start" x="531.115" y="-593.9" font-family="Arial" font-size="14.00" fill="#666666">[boolean]</text>
<polygon fill="none" stroke="#000000" points="444,-552.5 444,-582.5 764,-582.5 764,-552.5 444,-552.5"/>
<text text-anchor="start" x="451" y="-563.9" font-family="Arial" font-size="14.00" fill="#000000">juvenile    </text>
<text text-anchor="start" x="532.655" y="-563.9" font-family="Arial" font-size="14.00" fill="#666666">[boolean]</text>
<polygon fill="none" stroke="#000000" points="444,-522.5 444,-552.5 764,-552.5 764,-522.5 444,-522.5"/>
<text text-anchor="start" x="451" y="-533.9" font-family="Arial" font-size="14.00" fill="#000000">usrgroup    </text>
<text text-anchor="start" x="540.439" y="-533.9" font-family="Arial" font-size="14.00" fill="#666666">[integer]</text>
<polygon fill="none" stroke="#000000" points="444,-492.5 444,-522.5 764,-522.5 764,-492.5 444,-492.5"/>
<text text-anchor="start" x="451" y="-503.9" font-family="Arial" font-size="14.00" fill="#000000">claims_returned_count    </text>
<text text-anchor="start" x="626.7896" y="-503.9" font-family="Arial" font-size="14.00" fill="#666666">[integer]</text>
<polygon fill="none" stroke="#000000" points="444,-462.5 444,-492.5 764,-492.5 764,-462.5 444,-462.5"/>
<text text-anchor="start" x="451" y="-473.9" font-family="Arial" font-size="14.00" fill="#000000">credit_forward_balance    </text>
<text text-anchor="start" x="630.6788" y="-473.9" font-family="Arial" font-size="14.00" fill="#666666">[numeric(6,2)]</text>
<polygon fill="none" stroke="#000000" points="444,-432.5 444,-462.5 764,-462.5 764,-432.5 444,-432.5"/>
<text text-anchor="start" x="451" y="-443.9" font-family="Arial" font-size="14.00" fill="#000000">last_xact_id    </text>
<text text-anchor="start" x="559.1122" y="-443.9" font-family="Arial" font-size="14.00" fill="#666666">[text]</text>
<polygon fill="none" stroke="#000000" points="444,-402.5 444,-432.5 764,-432.5 764,-402.5 444,-402.5"/>
<text text-anchor="start" x="451" y="-413.9" font-family="Arial" font-size="14.00" fill="#000000">alert_message    </text>
<text text-anchor="start" x="577.0014" y="-413.9" font-family="Arial" font-size="14.00" fill="#666666">[text]</text>
<polygon fill="none" stroke="#000000" points="444,-372.5 444,-402.5 764,-402.5 764,-372.5 444,-372.5"/>
<text text-anchor="start" x="451" y="-383.9" font-family="Arial" font-size="14.00" fill="#000000">create_date    </text>
<text text-anchor="start" x="559.1248" y="-383.9" font-family="Arial" font-size="14.00" fill="#666666">[timestamp with time zone]</text>
<polygon fill="none" stroke="#000000" points="444,-342.5 444,-372.5 764,-372.5 764,-342.5 444,-342.5"/>
<text text-anchor="start" x="451" y="-353.9" font-family="Arial" font-size="14.00" fill="#000000">expire_date    </text>
<text text-anchor="start" x="558.3408" y="-353.9" font-family="Arial" font-size="14.00" fill="#666666">[timestamp with time zone]</text>
<polygon fill="none" stroke="#000000" points="444,-312.5 444,-342.5 764,-342.5 764,-312.5 444,-312.5"/>
<text text-anchor="start" x="451" y="-323.9" font-family="Arial" font-size="14.00" fill="#000000">claims_never_checked_out_count    </text>
<text text-anchor="start" x="696.8246" y="-323.9" font-family="Arial" font-size="14.00" fill="#666666">[integer]</text>
<polygon fill="none" stroke="#000000" points="444,-282.5 444,-312.5 764,-312.5 764,-282.5 444,-282.5"/>
<text text-anchor="start" x="450.7609" y="-293.9" font-family="Arial" font-size="14.00" fill="#000000">last_update_time    </text>
<text text-anchor="start" x="591.5547" y="-293.9" font-family="Arial" font-size="14.00" fill="#666666">[timestamp with time zone]</text>
<polygon fill="none" stroke="#000000" points="444,-252.5 444,-282.5 764,-282.5 764,-252.5 444,-252.5"/>
<text text-anchor="start" x="451" y="-263.9" font-family="Arial" font-size="14.00" fill="#000000">pref_prefix    </text>
<text text-anchor="start" x="551.3268" y="-263.9" font-family="Arial" font-size="14.00" fill="#666666">[text]</text>
<polygon fill="none" stroke="#000000" points="444,-222.5 444,-252.5 764,-252.5 764,-222.5 444,-222.5"/>
<text text-anchor="start" x="451" y="-233.9" font-family="Arial" font-size="14.00" fill="#000000">pref_first_given_name    </text>
<text text-anchor="start" x="623.6802" y="-233.9" font-family="Arial" font-size="14.00" fill="#666666">[text]</text>
<polygon fill="none" stroke="#000000" points="444,-192.5 444,-222.5 764,-222.5 764,-192.5 444,-192.5"/>
<text text-anchor="start" x="451" y="-203.9" font-family="Arial" font-size="14.00" fill="#000000">pref_second_given_name    </text>
<text text-anchor="start" x="646.2622" y="-203.9" font-family="Arial" font-size="14.00" fill="#666666">[text]</text>
<polygon fill="none" stroke="#000000" points="444,-162.5 444,-192.5 764,-192.5 764,-162.5 444,-162.5"/>
<text text-anchor="start" x="451" y="-173.9" font-family="Arial" font-size="14.00" fill="#000000">pref_family_name    </text>
<text text-anchor="start" x="596.4418" y="-173.9" font-family="Arial" font-size="14.00" fill="#666666">[text]</text>
<polygon fill="none" stroke="#000000" points="444,-132.5 444,-162.5 764,-162.5 764,-132.5 444,-132.5"/>
<text text-anchor="start" x="451" y="-143.9" font-family="Arial" font-size="14.00" fill="#000000">pref_suffix    </text>
<text text-anchor="start" x="549.7742" y="-143.9" font-family="Arial" font-size="14.00" fill="#666666">[text]</text>
<polygon fill="none" stroke="#000000" points="444,-102.5 444,-132.5 764,-132.5 764,-102.5 444,-102.5"/>
<text text-anchor="start" x="451" y="-113.9" font-family="Arial" font-size="14.00" fill="#000000">name_keywords    </text>
<text text-anchor="start" x="587.1108" y="-113.9" font-family="Arial" font-size="14.00" fill="#666666">[text]</text>
<polygon fill="none" stroke="#000000" points="444,-72.5 444,-102.5 764,-102.5 764,-72.5 444,-72.5"/>
<text text-anchor="start" x="451" y="-83.9" font-family="Arial" font-size="14.00" fill="#000000">name_kw_tsvector    </text>
<text text-anchor="start" x="601.892" y="-83.9" font-family="Arial" font-size="14.00" fill="#666666">[tsvector]</text>
<polygon fill="none" stroke="#000000" points="444,-42.5 444,-72.5 764,-72.5 764,-42.5 444,-42.5"/>
<text text-anchor="start" x="451" y="-53.9" font-family="Arial" font-size="14.00" fill="#000000">guardian    </text>
<text text-anchor="start" x="539.6676" y="-53.9" font-family="Arial" font-size="14.00" fill="#666666">[text]</text>
</g>
<!-- url_verify.session&#45;&gt;actor.usr -->
<g id="edge5" class="edge">
<title>url_verify.session:creator&#45;&gt;actor.usr:id</title>
<path fill="none" stroke="#000000" d="M753.8476,-1775.0794C808.3219,-1747.7124 822.9693,-1497.5 764,-1497.5"/>
<polygon fill="#000000" stroke="#000000" points="753.7109,-1775.1129 742.9258,-1773.1301 748.8555,-1776.3064 744,-1777.5 744,-1777.5 744,-1777.5 748.8555,-1776.3064 745.0742,-1781.8699 753.7109,-1775.1129 753.7109,-1775.1129"/>
<text text-anchor="start" x="750.8865" y="-1787.5" font-family="Arial" font-size="10.00" fill="#000000">FOREIGN KEY (creator) REFERENCES actor.usr(id) DEFERRABLE INITIALLY DEFERRED</text>
</g>
<!-- container.biblio_record_entry_bucket -->
<g id="node7" class="node">
<title>container.biblio_record_entry_bucket</title>
<polygon fill="#efefef" stroke="transparent" points="868,-897.5 868,-932.5 1304,-932.5 1304,-897.5 868,-897.5"/>
<polygon fill="none" stroke="#000000" points="868,-897.5 868,-932.5 1304,-932.5 1304,-897.5 868,-897.5"/>
<text text-anchor="start" x="874.6799" y="-910.3" font-family="Arial Bold" font-size="18.00" fill="#000000">container.biblio_record_entry_bucket</text>
<text text-anchor="start" x="1169.7521" y="-910.3" font-family="Arial" font-size="14.00" fill="#000000">    </text>
<text text-anchor="start" x="1203.9569" y="-910.3" font-family="Arial" font-size="14.00" fill="#666666">[BASE TABLE]</text>
<polygon fill="none" stroke="#000000" points="868,-867.5 868,-897.5 1304,-897.5 1304,-867.5 868,-867.5"/>
<text text-anchor="start" x="875" y="-878.9" font-family="Arial" font-size="14.00" fill="#000000">id    </text>
<text text-anchor="start" x="920.094" y="-878.9" font-family="Arial" font-size="14.00" fill="#666666">[integer]</text>
<polygon fill="none" stroke="#000000" points="868,-837.5 868,-867.5 1304,-867.5 1304,-837.5 868,-837.5"/>
<text text-anchor="start" x="875" y="-848.9" font-family="Arial" font-size="14.00" fill="#000000">owner    </text>
<text text-anchor="start" x="947.3198" y="-848.9" font-family="Arial" font-size="14.00" fill="#666666">[integer]</text>
<polygon fill="none" stroke="#000000" points="868,-807.5 868,-837.5 1304,-837.5 1304,-807.5 868,-807.5"/>
<text text-anchor="start" x="875" y="-818.9" font-family="Arial" font-size="14.00" fill="#000000">name    </text>
<text text-anchor="start" x="944.2132" y="-818.9" font-family="Arial" font-size="14.00" fill="#666666">[text]</text>
<polygon fill="none" stroke="#000000" points="868,-777.5 868,-807.5 1304,-807.5 1304,-777.5 868,-777.5"/>
<text text-anchor="start" x="875" y="-788.9" font-family="Arial" font-size="14.00" fill="#000000">btype    </text>
<text text-anchor="start" x="943.4432" y="-788.9" font-family="Arial" font-size="14.00" fill="#666666">[text]</text>
<polygon fill="none" stroke="#000000" points="868,-747.5 868,-777.5 1304,-777.5 1304,-747.5 868,-747.5"/>
<text text-anchor="start" x="875" y="-758.9" font-family="Arial" font-size="14.00" fill="#000000">description    </text>
<text text-anchor="start" x="976.8822" y="-758.9" font-family="Arial" font-size="14.00" fill="#666666">[text]</text>
<polygon fill="none" stroke="#000000" points="868,-717.5 868,-747.5 1304,-747.5 1304,-717.5 868,-717.5"/>
<text text-anchor="start" x="875" y="-728.9" font-family="Arial" font-size="14.00" fill="#000000">pub    </text>
<text text-anchor="start" x="932.5526" y="-728.9" font-family="Arial" font-size="14.00" fill="#666666">[boolean]</text>
<polygon fill="none" stroke="#000000" points="868,-687.5 868,-717.5 1304,-717.5 1304,-687.5 868,-687.5"/>
<text text-anchor="start" x="875" y="-698.9" font-family="Arial" font-size="14.00" fill="#000000">owning_lib    </text>
<text text-anchor="start" x="975.3268" y="-698.9" font-family="Arial" font-size="14.00" fill="#666666">[integer]</text>
<polygon fill="none" stroke="#000000" points="868,-657.5 868,-687.5 1304,-687.5 1304,-657.5 868,-657.5"/>
<text text-anchor="start" x="875" y="-668.9" font-family="Arial" font-size="14.00" fill="#000000">create_time    </text>
<text text-anchor="start" x="982.3268" y="-668.9" font-family="Arial" font-size="14.00" fill="#666666">[timestamp with time zone]</text>
</g>
<!-- url_verify.session&#45;&gt;container.biblio_record_entry_bucket -->
<g id="edge6" class="edge">
<title>url_verify.session:container&#45;&gt;container.biblio_record_entry_bucket:id</title>
<path fill="none" stroke="#000000" d="M754.1208,-1746.9664C818.4384,-1739.7969 797.7884,-1661.6656 816,-1591 835.6989,-1514.5636 789.066,-882.5 868,-882.5"/>
<polygon fill="#000000" stroke="#000000" points="753.9861,-1746.9734 743.763,-1743.0062 748.9931,-1747.2367 744,-1747.5 744,-1747.5 744,-1747.5 748.9931,-1747.2367 744.237,-1751.9938 753.9861,-1746.9734 753.9861,-1746.9734"/>
<text text-anchor="start" x="751.3645" y="-1757.5" font-family="Arial" font-size="10.00" fill="#000000">FOREIGN KEY (container) REFERENCES container.biblio_record_entry_bucket(id) DEFERRABLE INITIALLY DEFERRED</text>
</g>
<!-- url_verify.url -->
<g id="node2" class="node">
<title>url_verify.url</title>
<polygon fill="#efefef" stroke="transparent" points="105,-2642.5 105,-2677.5 344,-2677.5 344,-2642.5 105,-2642.5"/>
<polygon fill="none" stroke="#000000" points="105,-2642.5 105,-2677.5 344,-2677.5 344,-2642.5 105,-2642.5"/>
<text text-anchor="start" x="111.7218" y="-2655.3" font-family="Arial Bold" font-size="18.00" fill="#000000">url_verify.url</text>
<text text-anchor="start" x="209.7102" y="-2655.3" font-family="Arial" font-size="14.00" fill="#000000">    </text>
<text text-anchor="start" x="243.915" y="-2655.3" font-family="Arial" font-size="14.00" fill="#666666">[BASE TABLE]</text>
<polygon fill="none" stroke="#000000" points="105,-2612.5 105,-2642.5 344,-2642.5 344,-2612.5 105,-2612.5"/>
<text text-anchor="start" x="112" y="-2623.9" font-family="Arial" font-size="14.00" fill="#000000">id    </text>
<text text-anchor="start" x="157.094" y="-2623.9" font-family="Arial" font-size="14.00" fill="#666666">[integer]</text>
<polygon fill="none" stroke="#000000" points="105,-2582.5 105,-2612.5 344,-2612.5 344,-2582.5 105,-2582.5"/>
<text text-anchor="start" x="112" y="-2593.9" font-family="Arial" font-size="14.00" fill="#000000">redirect_from    </text>
<text text-anchor="start" x="228.648" y="-2593.9" font-family="Arial" font-size="14.00" fill="#666666">[integer]</text>
<polygon fill="none" stroke="#000000" points="105,-2552.5 105,-2582.5 344,-2582.5 344,-2552.5 105,-2552.5"/>
<text text-anchor="start" x="112" y="-2563.9" font-family="Arial" font-size="14.00" fill="#000000">item    </text>
<text text-anchor="start" x="172.6452" y="-2563.9" font-family="Arial" font-size="14.00" fill="#666666">[integer]</text>
<polygon fill="none" stroke="#000000" points="105,-2522.5 105,-2552.5 344,-2552.5 344,-2522.5 105,-2522.5"/>
<text text-anchor="start" x="112" y="-2533.9" font-family="Arial" font-size="14.00" fill="#000000">session    </text>
<text text-anchor="start" x="193.6592" y="-2533.9" font-family="Arial" font-size="14.00" fill="#666666">[integer]</text>
<polygon fill="none" stroke="#000000" points="105,-2492.5 105,-2522.5 344,-2522.5 344,-2492.5 105,-2492.5"/>
<text text-anchor="start" x="112" y="-2503.9" font-family="Arial" font-size="14.00" fill="#000000">url_selector    </text>
<text text-anchor="start" x="218.5428" y="-2503.9" font-family="Arial" font-size="14.00" fill="#666666">[integer]</text>
<polygon fill="none" stroke="#000000" points="105,-2462.5 105,-2492.5 344,-2492.5 344,-2462.5 105,-2462.5"/>
<text text-anchor="start" x="112" y="-2473.9" font-family="Arial" font-size="14.00" fill="#000000">tag    </text>
<text text-anchor="start" x="165.6606" y="-2473.9" font-family="Arial" font-size="14.00" fill="#666666">[text]</text>
<polygon fill="none" stroke="#000000" points="105,-2432.5 105,-2462.5 344,-2462.5 344,-2432.5 105,-2432.5"/>
<text text-anchor="start" x="112" y="-2443.9" font-family="Arial" font-size="14.00" fill="#000000">subfield    </text>
<text text-anchor="start" x="194.439" y="-2443.9" font-family="Arial" font-size="14.00" fill="#666666">[text]</text>
<polygon fill="none" stroke="#000000" points="105,-2402.5 105,-2432.5 344,-2432.5 344,-2402.5 105,-2402.5"/>
<text text-anchor="start" x="112" y="-2413.9" font-family="Arial" font-size="14.00" fill="#000000">ord    </text>
<text text-anchor="start" x="166.4306" y="-2413.9" font-family="Arial" font-size="14.00" fill="#666666">[integer]</text>
<polygon fill="none" stroke="#000000" points="105,-2372.5 105,-2402.5 344,-2402.5 344,-2372.5 105,-2372.5"/>
<text text-anchor="start" x="112" y="-2383.9" font-family="Arial" font-size="14.00" fill="#000000">full_url    </text>
<text text-anchor="start" x="187.4236" y="-2383.9" font-family="Arial" font-size="14.00" fill="#666666">[text]</text>
<polygon fill="none" stroke="#000000" points="105,-2342.5 105,-2372.5 344,-2372.5 344,-2342.5 105,-2342.5"/>
<text text-anchor="start" x="112" y="-2353.9" font-family="Arial" font-size="14.00" fill="#000000">scheme    </text>
<text text-anchor="start" x="195.2132" y="-2353.9" font-family="Arial" font-size="14.00" fill="#666666">[text]</text>
<polygon fill="none" stroke="#000000" points="105,-2312.5 105,-2342.5 344,-2342.5 344,-2312.5 105,-2312.5"/>
<text text-anchor="start" x="112" y="-2323.9" font-family="Arial" font-size="14.00" fill="#000000">username    </text>
<text text-anchor="start" x="208.439" y="-2323.9" font-family="Arial" font-size="14.00" fill="#666666">[text]</text>
<polygon fill="none" stroke="#000000" points="105,-2282.5 105,-2312.5 344,-2312.5 344,-2282.5 105,-2282.5"/>
<text text-anchor="start" x="112" y="-2293.9" font-family="Arial" font-size="14.00" fill="#000000">password    </text>
<text text-anchor="start" x="206.1024" y="-2293.9" font-family="Arial" font-size="14.00" fill="#666666">[text]</text>
<polygon fill="none" stroke="#000000" points="105,-2252.5 105,-2282.5 344,-2282.5 344,-2252.5 105,-2252.5"/>
<text text-anchor="start" x="112" y="-2263.9" font-family="Arial" font-size="14.00" fill="#000000">host    </text>
<text text-anchor="start" x="172.6606" y="-2263.9" font-family="Arial" font-size="14.00" fill="#666666">[text]</text>
<polygon fill="none" stroke="#000000" points="105,-2222.5 105,-2252.5 344,-2252.5 344,-2222.5 105,-2222.5"/>
<text text-anchor="start" x="112" y="-2233.9" font-family="Arial" font-size="14.00" fill="#000000">domain    </text>
<text text-anchor="start" x="192.1024" y="-2233.9" font-family="Arial" font-size="14.00" fill="#666666">[text]</text>
<polygon fill="none" stroke="#000000" points="105,-2192.5 105,-2222.5 344,-2222.5 344,-2192.5 105,-2192.5"/>
<text text-anchor="start" x="112" y="-2203.9" font-family="Arial" font-size="14.00" fill="#000000">tld    </text>
<text text-anchor="start" x="160.9846" y="-2203.9" font-family="Arial" font-size="14.00" fill="#666666">[text]</text>
<polygon fill="none" stroke="#000000" points="105,-2162.5 105,-2192.5 344,-2192.5 344,-2162.5 105,-2162.5"/>
<text text-anchor="start" x="112" y="-2173.9" font-family="Arial" font-size="14.00" fill="#000000">port    </text>
<text text-anchor="start" x="170.3212" y="-2173.9" font-family="Arial" font-size="14.00" fill="#666666">[text]</text>
<polygon fill="none" stroke="#000000" points="105,-2132.5 105,-2162.5 344,-2162.5 344,-2132.5 105,-2132.5"/>
<text text-anchor="start" x="112" y="-2143.9" font-family="Arial" font-size="14.00" fill="#000000">path    </text>
<text text-anchor="start" x="173.4432" y="-2143.9" font-family="Arial" font-size="14.00" fill="#666666">[text]</text>
<polygon fill="none" stroke="#000000" points="105,-2102.5 105,-2132.5 344,-2132.5 344,-2102.5 105,-2102.5"/>
<text text-anchor="start" x="112" y="-2113.9" font-family="Arial" font-size="14.00" fill="#000000">page    </text>
<text text-anchor="start" x="177.3352" y="-2113.9" font-family="Arial" font-size="14.00" fill="#666666">[text]</text>
<polygon fill="none" stroke="#000000" points="105,-2072.5 105,-2102.5 344,-2102.5 344,-2072.5 105,-2072.5"/>
<text text-anchor="start" x="112" y="-2083.9" font-family="Arial" font-size="14.00" fill="#000000">query    </text>
<text text-anchor="start" x="181.2132" y="-2083.9" font-family="Arial" font-size="14.00" fill="#666666">[text]</text>
<polygon fill="none" stroke="#000000" points="105,-2042.5 105,-2072.5 344,-2072.5 344,-2042.5 105,-2042.5"/>
<text text-anchor="start" x="112" y="-2053.9" font-family="Arial" font-size="14.00" fill="#000000">fragment    </text>
<text text-anchor="start" x="201.4376" y="-2053.9" font-family="Arial" font-size="14.00" fill="#666666">[text]</text>
</g>
<!-- url_verify.url&#45;&gt;url_verify.session -->
<g id="edge1" class="edge">
<title>url_verify.url:session&#45;&gt;url_verify.session:id</title>
<path fill="none" stroke="#000000" d="M353.103,-2533.3416C401.4039,-2486.2714 380.0364,-2054.427 396,-2000 414.6293,-1936.4844 397.8087,-1867.5 464,-1867.5"/>
<polygon fill="#000000" stroke="#000000" points="353.0959,-2533.3448 342.1302,-2533.4069 348.5479,-2535.4224 344,-2537.5 344,-2537.5 344,-2537.5 348.5479,-2535.4224 345.8698,-2541.5931 353.0959,-2533.3448 353.0959,-2533.3448"/>
<text text-anchor="start" x="351.3285" y="-2547.5" font-family="Arial" font-size="10.00" fill="#000000">FOREIGN KEY (session) REFERENCES url_verify.session(id) DEFERRABLE INITIALLY DEFERRED</text>
</g>
<!-- url_verify.url_selector -->
<g id="node3" class="node">
<title>url_verify.url_selector</title>
<polygon fill="#efefef" stroke="transparent" points="448,-2387.5 448,-2422.5 760,-2422.5 760,-2387.5 448,-2387.5"/>
<polygon fill="none" stroke="#000000" points="448,-2387.5 448,-2422.5 760,-2422.5 760,-2387.5 448,-2387.5"/>
<text text-anchor="start" x="454.7151" y="-2400.3" font-family="Arial Bold" font-size="18.00" fill="#000000">url_verify.url_selector</text>
<text text-anchor="start" x="625.7169" y="-2400.3" font-family="Arial" font-size="14.00" fill="#000000">    </text>
<text text-anchor="start" x="659.9217" y="-2400.3" font-family="Arial" font-size="14.00" fill="#666666">[BASE TABLE]</text>
<polygon fill="none" stroke="#000000" points="448,-2357.5 448,-2387.5 760,-2387.5 760,-2357.5 448,-2357.5"/>
<text text-anchor="start" x="455" y="-2368.9" font-family="Arial" font-size="14.00" fill="#000000">id    </text>
<text text-anchor="start" x="500.094" y="-2368.9" font-family="Arial" font-size="14.00" fill="#666666">[integer]</text>
<polygon fill="none" stroke="#000000" points="448,-2327.5 448,-2357.5 760,-2357.5 760,-2327.5 448,-2327.5"/>
<text text-anchor="start" x="455" y="-2338.9" font-family="Arial" font-size="14.00" fill="#000000">xpath    </text>
<text text-anchor="start" x="523.4432" y="-2338.9" font-family="Arial" font-size="14.00" fill="#666666">[text]</text>
<polygon fill="none" stroke="#000000" points="448,-2297.5 448,-2327.5 760,-2327.5 760,-2297.5 448,-2297.5"/>
<text text-anchor="start" x="455" y="-2308.9" font-family="Arial" font-size="14.00" fill="#000000">session    </text>
<text text-anchor="start" x="536.6592" y="-2308.9" font-family="Arial" font-size="14.00" fill="#666666">[integer]</text>
</g>
<!-- url_verify.url_selector&#45;&gt;url_verify.session -->
<g id="edge2" class="edge">
<title>url_verify.url_selector:session&#45;&gt;url_verify.session:id</title>
<path fill="none" stroke="#000000" d="M604.2779,-2287.468C615.1724,-2088.9739 941.6486,-1867.5 744,-1867.5"/>
<polygon fill="#000000" stroke="#000000" points="604.277,-2287.5038 599.5017,-2297.3753 604.1385,-2292.5019 604,-2297.5 604,-2297.5 604,-2297.5 604.1385,-2292.5019 608.4983,-2297.6247 604.277,-2287.5038 604.277,-2287.5038"/>
<text text-anchor="start" x="494.5785" y="-2281.5" font-family="Arial" font-size="10.00" fill="#000000">FOREIGN KEY (session) REFERENCES url_verify.session(id) DEFERRABLE INITIALLY DEFERRED</text>
</g>
<!-- url_verify.verification_attempt -->
<g id="node4" class="node">
<title>url_verify.verification_attempt</title>
<polygon fill="#efefef" stroke="transparent" points="865,-2417.5 865,-2452.5 1240,-2452.5 1240,-2417.5 865,-2417.5"/>
<polygon fill="none" stroke="#000000" points="865,-2417.5 865,-2452.5 1240,-2452.5 1240,-2417.5 865,-2417.5"/>
<text text-anchor="start" x="871.7043" y="-2430.3" font-family="Arial Bold" font-size="18.00" fill="#000000">url_verify.verification_attempt</text>
<text text-anchor="start" x="1105.7277" y="-2430.3" font-family="Arial" font-size="14.00" fill="#000000">    </text>
<text text-anchor="start" x="1139.9325" y="-2430.3" font-family="Arial" font-size="14.00" fill="#666666">[BASE TABLE]</text>
<polygon fill="none" stroke="#000000" points="865,-2387.5 865,-2417.5 1240,-2417.5 1240,-2387.5 865,-2387.5"/>
<text text-anchor="start" x="872" y="-2398.9" font-family="Arial" font-size="14.00" fill="#000000">id    </text>
<text text-anchor="start" x="917.094" y="-2398.9" font-family="Arial" font-size="14.00" fill="#666666">[integer]</text>
<polygon fill="none" stroke="#000000" points="865,-2357.5 865,-2387.5 1240,-2387.5 1240,-2357.5 865,-2357.5"/>
<text text-anchor="start" x="872" y="-2368.9" font-family="Arial" font-size="14.00" fill="#000000">usr    </text>
<text text-anchor="start" x="925.648" y="-2368.9" font-family="Arial" font-size="14.00" fill="#666666">[integer]</text>
<polygon fill="none" stroke="#000000" points="865,-2327.5 865,-2357.5 1240,-2357.5 1240,-2327.5 865,-2327.5"/>
<text text-anchor="start" x="872" y="-2338.9" font-family="Arial" font-size="14.00" fill="#000000">session    </text>
<text text-anchor="start" x="953.6592" y="-2338.9" font-family="Arial" font-size="14.00" fill="#666666">[integer]</text>
<polygon fill="none" stroke="#000000" points="865,-2297.5 865,-2327.5 1240,-2327.5 1240,-2297.5 865,-2297.5"/>
<text text-anchor="start" x="872" y="-2308.9" font-family="Arial" font-size="14.00" fill="#000000">start_time    </text>
<text text-anchor="start" x="967.6522" y="-2308.9" font-family="Arial" font-size="14.00" fill="#666666">[timestamp with time zone]</text>
<polygon fill="none" stroke="#000000" points="865,-2267.5 865,-2297.5 1240,-2297.5 1240,-2267.5 865,-2267.5"/>
<text text-anchor="start" x="872" y="-2278.9" font-family="Arial" font-size="14.00" fill="#000000">finish_time    </text>
<text text-anchor="start" x="973.0968" y="-2278.9" font-family="Arial" font-size="14.00" fill="#666666">[timestamp with time zone]</text>
</g>
<!-- url_verify.verification_attempt&#45;&gt;url_verify.session -->
<g id="edge3" class="edge">
<title>url_verify.verification_attempt:session&#45;&gt;url_verify.session:id</title>
<path fill="none" stroke="#000000" d="M854.972,-2340.7731C792.3064,-2317.6889 834.6618,-2069.8212 812,-2000 791.5657,-1937.0419 810.1913,-1867.5 744,-1867.5"/>
<polygon fill="#000000" stroke="#000000" points="855.1451,-2340.8028 864.2363,-2346.9347 860.0725,-2341.6514 865,-2342.5 865,-2342.5 865,-2342.5 860.0725,-2341.6514 865.7637,-2338.0653 855.1451,-2340.8028 855.1451,-2340.8028"/>
<text text-anchor="start" x="872.3285" y="-2352.5" font-family="Arial" font-size="10.00" fill="#000000">FOREIGN KEY (session) REFERENCES url_verify.session(id) DEFERRABLE INITIALLY DEFERRED</text>
</g>
</g>
</svg>
