<?xml version="1.0" encoding="UTF-8" standalone="no"?>
<!DOCTYPE svg PUBLIC "-//W3C//DTD SVG 1.1//EN"
 "http://www.w3.org/Graphics/SVG/1.1/DTD/svg11.dtd">
<!-- Generated by graphviz version 2.40.1 (20161225.0304)
 -->
<!-- Title: vandelay.match_set_point Pages: 1 -->
<svg width="1116pt" height="1384pt"
 viewBox="0.00 0.00 1116.00 1384.00" xmlns="http://www.w3.org/2000/svg" xmlns:xlink="http://www.w3.org/1999/xlink">
<g id="graph0" class="graph" transform="scale(1 1) rotate(0) translate(4 1380)">
<title>vandelay.match_set_point</title>
<polygon fill="#ffffff" stroke="transparent" points="-4,4 -4,-1380 1112,-1380 1112,4 -4,4"/>
<!-- vandelay.match_set_point -->
<g id="node1" class="node">
<title>vandelay.match_set_point</title>
<polygon fill="#efefef" stroke="transparent" points="425,-1012.5 425,-1047.5 775,-1047.5 775,-1012.5 425,-1012.5"/>
<polygon fill="none" stroke="#000000" points="425,-1012.5 425,-1047.5 775,-1047.5 775,-1012.5 425,-1012.5"/>
<text text-anchor="start" x="431.681" y="-1025.3" font-family="Arial Bold" font-size="18.00" fill="#000000">vandelay.match_set_point</text>
<text text-anchor="start" x="640.751" y="-1025.3" font-family="Arial" font-size="14.00" fill="#000000">    </text>
<text text-anchor="start" x="674.9558" y="-1025.3" font-family="Arial" font-size="14.00" fill="#666666">[BASE TABLE]</text>
<polygon fill="none" stroke="#000000" points="425,-982.5 425,-1012.5 775,-1012.5 775,-982.5 425,-982.5"/>
<text text-anchor="start" x="432" y="-993.9" font-family="Arial" font-size="14.00" fill="#000000">id </text>
<text text-anchor="start" x="446.7798" y="-993.9" font-family="Arial" font-size="14.00" fill="#666666">[integer]</text>
<polygon fill="none" stroke="#000000" points="425,-952.5 425,-982.5 775,-982.5 775,-952.5 425,-952.5"/>
<text text-anchor="start" x="432" y="-963.9" font-family="Arial" font-size="14.00" fill="#000000">match_set </text>
<text text-anchor="start" x="500.4628" y="-963.9" font-family="Arial" font-size="14.00" fill="#666666">[integer]</text>
<polygon fill="none" stroke="#000000" points="425,-922.5 425,-952.5 775,-952.5 775,-922.5 425,-922.5"/>
<text text-anchor="start" x="432" y="-933.9" font-family="Arial" font-size="14.00" fill="#000000">parent </text>
<text text-anchor="start" x="475.5722" y="-933.9" font-family="Arial" font-size="14.00" fill="#666666">[integer]</text>
<polygon fill="none" stroke="#000000" points="425,-892.5 425,-922.5 775,-922.5 775,-892.5 425,-892.5"/>
<text text-anchor="start" x="432" y="-903.9" font-family="Arial" font-size="14.00" fill="#000000">bool_op </text>
<text text-anchor="start" x="485.6928" y="-903.9" font-family="Arial" font-size="14.00" fill="#666666">[text]</text>
<polygon fill="none" stroke="#000000" points="425,-862.5 425,-892.5 775,-892.5 775,-862.5 425,-862.5"/>
<text text-anchor="start" x="432" y="-873.9" font-family="Arial" font-size="14.00" fill="#000000">svf </text>
<text text-anchor="start" x="453.7812" y="-873.9" font-family="Arial" font-size="14.00" fill="#666666">[text]</text>
<polygon fill="none" stroke="#000000" points="425,-832.5 425,-862.5 775,-862.5 775,-832.5 425,-832.5"/>
<text text-anchor="start" x="432" y="-843.9" font-family="Arial" font-size="14.00" fill="#000000">tag </text>
<text text-anchor="start" x="455.3464" y="-843.9" font-family="Arial" font-size="14.00" fill="#666666">[text]</text>
<polygon fill="none" stroke="#000000" points="425,-802.5 425,-832.5 775,-832.5 775,-802.5 425,-802.5"/>
<text text-anchor="start" x="432" y="-813.9" font-family="Arial" font-size="14.00" fill="#000000">subfield </text>
<text text-anchor="start" x="484.1248" y="-813.9" font-family="Arial" font-size="14.00" fill="#666666">[text]</text>
<polygon fill="none" stroke="#000000" points="425,-772.5 425,-802.5 775,-802.5 775,-772.5 425,-772.5"/>
<text text-anchor="start" x="432" y="-783.9" font-family="Arial" font-size="14.00" fill="#000000">negate </text>
<text text-anchor="start" x="478.6942" y="-783.9" font-family="Arial" font-size="14.00" fill="#666666">[boolean]</text>
<polygon fill="none" stroke="#000000" points="425,-742.5 425,-772.5 775,-772.5 775,-742.5 425,-742.5"/>
<text text-anchor="start" x="432" y="-753.9" font-family="Arial" font-size="14.00" fill="#000000">quality </text>
<text text-anchor="start" x="476.3422" y="-753.9" font-family="Arial" font-size="14.00" fill="#666666">[integer]</text>
<polygon fill="none" stroke="#000000" points="425,-712.5 425,-742.5 775,-742.5 775,-712.5 425,-712.5"/>
<text text-anchor="start" x="432" y="-723.9" font-family="Arial" font-size="14.00" fill="#000000">heading </text>
<text text-anchor="start" x="485.6928" y="-723.9" font-family="Arial" font-size="14.00" fill="#666666">[boolean]</text>
<polygon fill="none" stroke="#000000" stroke-width="3" points="423.5,-711.5 423.5,-1049.5 776.5,-1049.5 776.5,-711.5 423.5,-711.5"/>
</g>
<!-- vandelay.match_set_point&#45;&gt;vandelay.match_set_point -->
<g id="edge1" class="edge">
<title>vandelay.match_set_point:parent&#45;&gt;vandelay.match_set_point:id</title>
<path fill="none" stroke="#000000" d="M601.2748,-962.8717C608.9778,-1129.1516 608.5529,-1376 600,-1376 591.2725,-1376 591.0082,-1175.3878 599.2074,-1012.6257"/>
<polygon fill="#000000" stroke="#000000" points="601.2583,-962.5249 605.2751,-952.3212 601.0193,-957.5306 600.7802,-952.5363 600.7802,-952.5363 600.7802,-952.5363 601.0193,-957.5306 596.2854,-952.7515 601.2583,-962.5249 601.2583,-962.5249"/>
<text text-anchor="start" x="283.4832" y="-962.5363" font-family="Arial" font-size="10.00" fill="#000000">FOREIGN KEY (parent) REFERENCES vandelay.match_set_point(id)</text>
</g>
<!-- vandelay.match_set -->
<g id="node2" class="node">
<title>vandelay.match_set</title>
<polygon fill="#efefef" stroke="transparent" points="231,-357.5 231,-392.5 532,-392.5 532,-357.5 231,-357.5"/>
<polygon fill="none" stroke="#000000" points="231,-357.5 231,-392.5 532,-392.5 532,-357.5 231,-357.5"/>
<text text-anchor="start" x="237.6916" y="-370.3" font-family="Arial Bold" font-size="18.00" fill="#000000">vandelay.match_set</text>
<text text-anchor="start" x="397.7404" y="-370.3" font-family="Arial" font-size="14.00" fill="#000000">    </text>
<text text-anchor="start" x="431.9452" y="-370.3" font-family="Arial" font-size="14.00" fill="#666666">[BASE TABLE]</text>
<polygon fill="none" stroke="#000000" points="231,-327.5 231,-357.5 532,-357.5 532,-327.5 231,-327.5"/>
<text text-anchor="start" x="238" y="-338.9" font-family="Arial" font-size="14.00" fill="#000000">id    </text>
<text text-anchor="start" x="283.094" y="-338.9" font-family="Arial" font-size="14.00" fill="#666666">[integer]</text>
<polygon fill="none" stroke="#000000" points="231,-297.5 231,-327.5 532,-327.5 532,-297.5 231,-297.5"/>
<text text-anchor="start" x="238" y="-308.9" font-family="Arial" font-size="14.00" fill="#000000">name    </text>
<text text-anchor="start" x="307.2132" y="-308.9" font-family="Arial" font-size="14.00" fill="#666666">[text]</text>
<polygon fill="none" stroke="#000000" points="231,-267.5 231,-297.5 532,-297.5 532,-267.5 231,-267.5"/>
<text text-anchor="start" x="238" y="-278.9" font-family="Arial" font-size="14.00" fill="#000000">owner    </text>
<text text-anchor="start" x="310.3198" y="-278.9" font-family="Arial" font-size="14.00" fill="#666666">[integer]</text>
<polygon fill="none" stroke="#000000" points="231,-237.5 231,-267.5 532,-267.5 532,-237.5 231,-237.5"/>
<text text-anchor="start" x="238" y="-248.9" font-family="Arial" font-size="14.00" fill="#000000">mtype    </text>
<text text-anchor="start" x="310.3212" y="-248.9" font-family="Arial" font-size="14.00" fill="#666666">[text]</text>
</g>
<!-- vandelay.match_set_point&#45;&gt;vandelay.match_set -->
<g id="edge2" class="edge">
<title>vandelay.match_set_point:match_set&#45;&gt;vandelay.match_set:id</title>
<path fill="none" stroke="#000000" d="M414.9872,-967.1651C198.6943,-952.219 530.6741,-442.0169 532,-436 540.9425,-395.418 573.5556,-342.5 532,-342.5"/>
<polygon fill="#000000" stroke="#000000" points="415.0056,-967.1656 424.8495,-971.9975 420.0028,-967.3328 425,-967.5 425,-967.5 425,-967.5 420.0028,-967.3328 425.1505,-963.0025 415.0056,-967.1656 415.0056,-967.1656"/>
<text text-anchor="start" x="7.1495" y="-977.5" font-family="Arial" font-size="10.00" fill="#000000">FOREIGN KEY (match_set) REFERENCES vandelay.match_set(id) ON DELETE CASCADE</text>
</g>
<!-- config.record_attr_definition -->
<g id="node3" class="node">
<title>config.record_attr_definition</title>
<polygon fill="#efefef" stroke="transparent" points="636,-552.5 636,-587.5 999,-587.5 999,-552.5 636,-552.5"/>
<polygon fill="none" stroke="#000000" points="636,-552.5 636,-587.5 999,-587.5 999,-552.5 636,-552.5"/>
<text text-anchor="start" x="642.6893" y="-565.3" font-family="Arial Bold" font-size="18.00" fill="#000000">config.record_attr_definition</text>
<text text-anchor="start" x="864.7427" y="-565.3" font-family="Arial" font-size="14.00" fill="#000000">    </text>
<text text-anchor="start" x="898.9475" y="-565.3" font-family="Arial" font-size="14.00" fill="#666666">[BASE TABLE]</text>
<polygon fill="none" stroke="#000000" points="636,-522.5 636,-552.5 999,-552.5 999,-522.5 636,-522.5"/>
<text text-anchor="start" x="643" y="-533.9" font-family="Arial" font-size="14.00" fill="#000000">name    </text>
<text text-anchor="start" x="712.2132" y="-533.9" font-family="Arial" font-size="14.00" fill="#666666">[text]</text>
<polygon fill="none" stroke="#000000" points="636,-492.5 636,-522.5 999,-522.5 999,-492.5 636,-492.5"/>
<text text-anchor="start" x="643" y="-503.9" font-family="Arial" font-size="14.00" fill="#000000">label    </text>
<text text-anchor="start" x="706.7658" y="-503.9" font-family="Arial" font-size="14.00" fill="#666666">[text]</text>
<polygon fill="none" stroke="#000000" points="636,-462.5 636,-492.5 999,-492.5 999,-462.5 636,-462.5"/>
<text text-anchor="start" x="643" y="-473.9" font-family="Arial" font-size="14.00" fill="#000000">description    </text>
<text text-anchor="start" x="744.8822" y="-473.9" font-family="Arial" font-size="14.00" fill="#666666">[text]</text>
<polygon fill="none" stroke="#000000" points="636,-432.5 636,-462.5 999,-462.5 999,-432.5 636,-432.5"/>
<text text-anchor="start" x="643" y="-443.9" font-family="Arial" font-size="14.00" fill="#000000">multi    </text>
<text text-anchor="start" x="706.7518" y="-443.9" font-family="Arial" font-size="14.00" fill="#666666">[boolean]</text>
<polygon fill="none" stroke="#000000" points="636,-402.5 636,-432.5 999,-432.5 999,-402.5 636,-402.5"/>
<text text-anchor="start" x="643" y="-413.9" font-family="Arial" font-size="14.00" fill="#000000">filter    </text>
<text text-anchor="start" x="703.6424" y="-413.9" font-family="Arial" font-size="14.00" fill="#666666">[boolean]</text>
<polygon fill="none" stroke="#000000" points="636,-372.5 636,-402.5 999,-402.5 999,-372.5 636,-372.5"/>
<text text-anchor="start" x="643" y="-383.9" font-family="Arial" font-size="14.00" fill="#000000">sorter    </text>
<text text-anchor="start" x="712.9818" y="-383.9" font-family="Arial" font-size="14.00" fill="#666666">[boolean]</text>
<polygon fill="none" stroke="#000000" points="636,-342.5 636,-372.5 999,-372.5 999,-342.5 636,-342.5"/>
<text text-anchor="start" x="643" y="-353.9" font-family="Arial" font-size="14.00" fill="#000000">composite    </text>
<text text-anchor="start" x="740.993" y="-353.9" font-family="Arial" font-size="14.00" fill="#666666">[boolean]</text>
<polygon fill="none" stroke="#000000" points="636,-312.5 636,-342.5 999,-342.5 999,-312.5 636,-312.5"/>
<text text-anchor="start" x="643" y="-323.9" font-family="Arial" font-size="14.00" fill="#000000">tag    </text>
<text text-anchor="start" x="696.6606" y="-323.9" font-family="Arial" font-size="14.00" fill="#666666">[text]</text>
<polygon fill="none" stroke="#000000" points="636,-282.5 636,-312.5 999,-312.5 999,-282.5 636,-282.5"/>
<text text-anchor="start" x="643" y="-293.9" font-family="Arial" font-size="14.00" fill="#000000">sf_list    </text>
<text text-anchor="start" x="712.9818" y="-293.9" font-family="Arial" font-size="14.00" fill="#666666">[text]</text>
<polygon fill="none" stroke="#000000" points="636,-252.5 636,-282.5 999,-282.5 999,-252.5 636,-252.5"/>
<text text-anchor="start" x="643" y="-263.9" font-family="Arial" font-size="14.00" fill="#000000">joiner    </text>
<text text-anchor="start" x="711.4264" y="-263.9" font-family="Arial" font-size="14.00" fill="#666666">[text]</text>
<polygon fill="none" stroke="#000000" points="636,-222.5 636,-252.5 999,-252.5 999,-222.5 636,-222.5"/>
<text text-anchor="start" x="643" y="-233.9" font-family="Arial" font-size="14.00" fill="#000000">xpath    </text>
<text text-anchor="start" x="711.4432" y="-233.9" font-family="Arial" font-size="14.00" fill="#666666">[text]</text>
<polygon fill="none" stroke="#000000" points="636,-192.5 636,-222.5 999,-222.5 999,-192.5 636,-192.5"/>
<text text-anchor="start" x="643" y="-203.9" font-family="Arial" font-size="14.00" fill="#000000">format    </text>
<text text-anchor="start" x="716.8724" y="-203.9" font-family="Arial" font-size="14.00" fill="#666666">[text]</text>
<polygon fill="none" stroke="#000000" points="636,-162.5 636,-192.5 999,-192.5 999,-162.5 636,-162.5"/>
<text text-anchor="start" x="643" y="-173.9" font-family="Arial" font-size="14.00" fill="#000000">start_pos    </text>
<text text-anchor="start" x="734.777" y="-173.9" font-family="Arial" font-size="14.00" fill="#666666">[integer]</text>
<polygon fill="none" stroke="#000000" points="636,-132.5 636,-162.5 999,-162.5 999,-132.5 636,-132.5"/>
<text text-anchor="start" x="643" y="-143.9" font-family="Arial" font-size="14.00" fill="#000000">string_len    </text>
<text text-anchor="start" x="737.8822" y="-143.9" font-family="Arial" font-size="14.00" fill="#666666">[integer]</text>
<polygon fill="none" stroke="#000000" points="636,-102.5 636,-132.5 999,-132.5 999,-102.5 636,-102.5"/>
<text text-anchor="start" x="643" y="-113.9" font-family="Arial" font-size="14.00" fill="#000000">fixed_field    </text>
<text text-anchor="start" x="740.2188" y="-113.9" font-family="Arial" font-size="14.00" fill="#666666">[text]</text>
<polygon fill="none" stroke="#000000" points="636,-72.5 636,-102.5 999,-102.5 999,-72.5 636,-72.5"/>
<text text-anchor="start" x="643" y="-83.9" font-family="Arial" font-size="14.00" fill="#000000">phys_char_sf    </text>
<text text-anchor="start" x="760.4516" y="-83.9" font-family="Arial" font-size="14.00" fill="#666666">[integer]</text>
<polygon fill="none" stroke="#000000" points="636,-42.5 636,-72.5 999,-72.5 999,-42.5 636,-42.5"/>
<text text-anchor="start" x="643" y="-53.9" font-family="Arial" font-size="14.00" fill="#000000">vocabulary    </text>
<text text-anchor="start" x="744.885" y="-53.9" font-family="Arial" font-size="14.00" fill="#666666">[text]</text>
</g>
<!-- vandelay.match_set_point&#45;&gt;config.record_attr_definition -->
<g id="edge3" class="edge">
<title>vandelay.match_set_point:svf&#45;&gt;config.record_attr_definition:name</title>
<path fill="none" stroke="#000000" d="M785.3756,-876.8869C865.6882,-866.9301 830.0265,-738.0935 775,-667 735.9396,-616.5344 675.0604,-681.4656 636,-631 610.5647,-598.138 594.4444,-537.5 636,-537.5"/>
<polygon fill="#000000" stroke="#000000" points="784.9826,-876.9101 774.7345,-873.0078 779.9913,-877.205 775,-877.5 775,-877.5 775,-877.5 779.9913,-877.205 775.2655,-881.9922 784.9826,-876.9101 784.9826,-876.9101"/>
<text text-anchor="start" x="782.265" y="-887.5" font-family="Arial" font-size="10.00" fill="#000000">FOREIGN KEY (svf) REFERENCES config.record_attr_definition(name)</text>
</g>
</g>
</svg>
