<?xml version="1.0" encoding="UTF-8" standalone="no"?>
<!DOCTYPE svg PUBLIC "-//W3C//DTD SVG 1.1//EN"
 "http://www.w3.org/Graphics/SVG/1.1/DTD/svg11.dtd">
<!-- Generated by graphviz version 2.40.1 (20161225.0304)
 -->
<!-- Title: vandelay.bib_queue Pages: 1 -->
<svg width="1690pt" height="1889pt"
 viewBox="0.00 0.00 1690.00 1889.00" xmlns="http://www.w3.org/2000/svg" xmlns:xlink="http://www.w3.org/1999/xlink">
<g id="graph0" class="graph" transform="scale(1 1) rotate(0) translate(4 1885)">
<title>vandelay.bib_queue</title>
<polygon fill="#ffffff" stroke="transparent" points="-4,4 -4,-1885 1686,-1885 1686,4 -4,4"/>
<!-- vandelay.bib_queue -->
<g id="node1" class="node">
<title>vandelay.bib_queue</title>
<polygon fill="#efefef" stroke="transparent" points="685,-1312.5 685,-1347.5 990,-1347.5 990,-1312.5 685,-1312.5"/>
<polygon fill="none" stroke="#000000" points="685,-1312.5 685,-1347.5 990,-1347.5 990,-1312.5 685,-1312.5"/>
<text text-anchor="start" x="693.1804" y="-1325.3" font-family="Arial Bold" font-size="18.00" fill="#000000">vandelay.bib_queue</text>
<text text-anchor="start" x="854.2516" y="-1325.3" font-family="Arial" font-size="14.00" fill="#000000">    </text>
<text text-anchor="start" x="888.4564" y="-1325.3" font-family="Arial" font-size="14.00" fill="#666666">[BASE TABLE]</text>
<polygon fill="none" stroke="#000000" points="685,-1282.5 685,-1312.5 990,-1312.5 990,-1282.5 685,-1282.5"/>
<text text-anchor="start" x="692" y="-1293.9" font-family="Arial" font-size="14.00" fill="#000000">id </text>
<text text-anchor="start" x="706.7798" y="-1293.9" font-family="Arial" font-size="14.00" fill="#666666">[bigint]</text>
<polygon fill="none" stroke="#000000" points="685,-1252.5 685,-1282.5 990,-1282.5 990,-1252.5 685,-1252.5"/>
<text text-anchor="start" x="692" y="-1263.9" font-family="Arial" font-size="14.00" fill="#000000">owner </text>
<text text-anchor="start" x="734.0056" y="-1263.9" font-family="Arial" font-size="14.00" fill="#666666">[integer]</text>
<polygon fill="none" stroke="#000000" points="685,-1222.5 685,-1252.5 990,-1252.5 990,-1222.5 685,-1222.5"/>
<text text-anchor="start" x="692" y="-1233.9" font-family="Arial" font-size="14.00" fill="#000000">name </text>
<text text-anchor="start" x="730.899" y="-1233.9" font-family="Arial" font-size="14.00" fill="#666666">[text]</text>
<polygon fill="none" stroke="#000000" points="685,-1192.5 685,-1222.5 990,-1222.5 990,-1192.5 685,-1192.5"/>
<text text-anchor="start" x="692" y="-1203.9" font-family="Arial" font-size="14.00" fill="#000000">complete </text>
<text text-anchor="start" x="752.6788" y="-1203.9" font-family="Arial" font-size="14.00" fill="#666666">[boolean]</text>
<polygon fill="none" stroke="#000000" points="685,-1162.5 685,-1192.5 990,-1192.5 990,-1162.5 685,-1162.5"/>
<text text-anchor="start" x="692" y="-1173.9" font-family="Arial" font-size="14.00" fill="#000000">match_set </text>
<text text-anchor="start" x="760.4628" y="-1173.9" font-family="Arial" font-size="14.00" fill="#666666">[integer]</text>
<polygon fill="none" stroke="#000000" points="685,-1132.5 685,-1162.5 990,-1162.5 990,-1132.5 685,-1132.5"/>
<text text-anchor="start" x="691.9826" y="-1143.9" font-family="Arial" font-size="14.00" fill="#000000">queue_type </text>
<text text-anchor="start" x="769.0246" y="-1143.9" font-family="Arial" font-size="14.00" fill="#666666">[vandelay.bib_queue_queue_type]</text>
<polygon fill="none" stroke="#000000" points="685,-1102.5 685,-1132.5 990,-1132.5 990,-1102.5 685,-1102.5"/>
<text text-anchor="start" x="692" y="-1113.9" font-family="Arial" font-size="14.00" fill="#000000">item_attr_def </text>
<text text-anchor="start" x="777.5764" y="-1113.9" font-family="Arial" font-size="14.00" fill="#666666">[bigint]</text>
<polygon fill="none" stroke="#000000" points="685,-1072.5 685,-1102.5 990,-1102.5 990,-1072.5 685,-1072.5"/>
<text text-anchor="start" x="692" y="-1083.9" font-family="Arial" font-size="14.00" fill="#000000">match_bucket </text>
<text text-anchor="start" x="783.028" y="-1083.9" font-family="Arial" font-size="14.00" fill="#666666">[integer]</text>
<polygon fill="none" stroke="#000000" stroke-width="3" points="683,-1071.5 683,-1349.5 991,-1349.5 991,-1071.5 683,-1071.5"/>
</g>
<!-- vandelay.import_item_attr_definition -->
<g id="node3" class="node">
<title>vandelay.import_item_attr_definition</title>
<polygon fill="#efefef" stroke="transparent" points="355,-912.5 355,-947.5 785,-947.5 785,-912.5 355,-912.5"/>
<polygon fill="none" stroke="#000000" points="355,-912.5 355,-947.5 785,-947.5 785,-912.5 355,-912.5"/>
<text text-anchor="start" x="361.6886" y="-925.3" font-family="Arial Bold" font-size="18.00" fill="#000000">vandelay.import_item_attr_definition</text>
<text text-anchor="start" x="650.7434" y="-925.3" font-family="Arial" font-size="14.00" fill="#000000">    </text>
<text text-anchor="start" x="684.9482" y="-925.3" font-family="Arial" font-size="14.00" fill="#666666">[BASE TABLE]</text>
<polygon fill="none" stroke="#000000" points="355,-882.5 355,-912.5 785,-912.5 785,-882.5 355,-882.5"/>
<text text-anchor="start" x="362" y="-893.9" font-family="Arial" font-size="14.00" fill="#000000">id    </text>
<text text-anchor="start" x="407.094" y="-893.9" font-family="Arial" font-size="14.00" fill="#666666">[bigint]</text>
<polygon fill="none" stroke="#000000" points="355,-852.5 355,-882.5 785,-882.5 785,-852.5 355,-852.5"/>
<text text-anchor="start" x="362" y="-863.9" font-family="Arial" font-size="14.00" fill="#000000">owner    </text>
<text text-anchor="start" x="434.3198" y="-863.9" font-family="Arial" font-size="14.00" fill="#666666">[integer]</text>
<polygon fill="none" stroke="#000000" points="355,-822.5 355,-852.5 785,-852.5 785,-822.5 355,-822.5"/>
<text text-anchor="start" x="362" y="-833.9" font-family="Arial" font-size="14.00" fill="#000000">name    </text>
<text text-anchor="start" x="431.2132" y="-833.9" font-family="Arial" font-size="14.00" fill="#666666">[text]</text>
<polygon fill="none" stroke="#000000" points="355,-792.5 355,-822.5 785,-822.5 785,-792.5 355,-792.5"/>
<text text-anchor="start" x="362" y="-803.9" font-family="Arial" font-size="14.00" fill="#000000">tag    </text>
<text text-anchor="start" x="415.6606" y="-803.9" font-family="Arial" font-size="14.00" fill="#666666">[text]</text>
<polygon fill="none" stroke="#000000" points="355,-762.5 355,-792.5 785,-792.5 785,-762.5 355,-762.5"/>
<text text-anchor="start" x="362" y="-773.9" font-family="Arial" font-size="14.00" fill="#000000">keep    </text>
<text text-anchor="start" x="426.5526" y="-773.9" font-family="Arial" font-size="14.00" fill="#666666">[boolean]</text>
<polygon fill="none" stroke="#000000" points="355,-732.5 355,-762.5 785,-762.5 785,-732.5 355,-732.5"/>
<text text-anchor="start" x="362" y="-743.9" font-family="Arial" font-size="14.00" fill="#000000">owning_lib    </text>
<text text-anchor="start" x="462.3268" y="-743.9" font-family="Arial" font-size="14.00" fill="#666666">[text]</text>
<polygon fill="none" stroke="#000000" points="355,-702.5 355,-732.5 785,-732.5 785,-702.5 355,-702.5"/>
<text text-anchor="start" x="362" y="-713.9" font-family="Arial" font-size="14.00" fill="#000000">circ_lib    </text>
<text text-anchor="start" x="439.7504" y="-713.9" font-family="Arial" font-size="14.00" fill="#666666">[text]</text>
<polygon fill="none" stroke="#000000" points="355,-672.5 355,-702.5 785,-702.5 785,-672.5 355,-672.5"/>
<text text-anchor="start" x="362" y="-683.9" font-family="Arial" font-size="14.00" fill="#000000">call_number    </text>
<text text-anchor="start" x="472.4348" y="-683.9" font-family="Arial" font-size="14.00" fill="#666666">[text]</text>
<polygon fill="none" stroke="#000000" points="355,-642.5 355,-672.5 785,-672.5 785,-642.5 355,-642.5"/>
<text text-anchor="start" x="362" y="-653.9" font-family="Arial" font-size="14.00" fill="#000000">copy_number    </text>
<text text-anchor="start" x="481.0042" y="-653.9" font-family="Arial" font-size="14.00" fill="#666666">[text]</text>
<polygon fill="none" stroke="#000000" points="355,-612.5 355,-642.5 785,-642.5 785,-612.5 355,-612.5"/>
<text text-anchor="start" x="362" y="-623.9" font-family="Arial" font-size="14.00" fill="#000000">status    </text>
<text text-anchor="start" x="433.5512" y="-623.9" font-family="Arial" font-size="14.00" fill="#666666">[text]</text>
<polygon fill="none" stroke="#000000" points="355,-582.5 355,-612.5 785,-612.5 785,-582.5 355,-582.5"/>
<text text-anchor="start" x="362" y="-593.9" font-family="Arial" font-size="14.00" fill="#000000">location    </text>
<text text-anchor="start" x="444.439" y="-593.9" font-family="Arial" font-size="14.00" fill="#666666">[text]</text>
<polygon fill="none" stroke="#000000" points="355,-552.5 355,-582.5 785,-582.5 785,-552.5 355,-552.5"/>
<text text-anchor="start" x="362" y="-563.9" font-family="Arial" font-size="14.00" fill="#000000">circulate    </text>
<text text-anchor="start" x="448.317" y="-563.9" font-family="Arial" font-size="14.00" fill="#666666">[text]</text>
<polygon fill="none" stroke="#000000" points="355,-522.5 355,-552.5 785,-552.5 785,-522.5 355,-522.5"/>
<text text-anchor="start" x="362" y="-533.9" font-family="Arial" font-size="14.00" fill="#000000">deposit    </text>
<text text-anchor="start" x="441.3324" y="-533.9" font-family="Arial" font-size="14.00" fill="#666666">[text]</text>
<polygon fill="none" stroke="#000000" points="355,-492.5 355,-522.5 785,-522.5 785,-492.5 355,-492.5"/>
<text text-anchor="start" x="362" y="-503.9" font-family="Arial" font-size="14.00" fill="#000000">deposit_amount    </text>
<text text-anchor="start" x="495.7966" y="-503.9" font-family="Arial" font-size="14.00" fill="#666666">[text]</text>
<polygon fill="none" stroke="#000000" points="355,-462.5 355,-492.5 785,-492.5 785,-462.5 355,-462.5"/>
<text text-anchor="start" x="362" y="-473.9" font-family="Arial" font-size="14.00" fill="#000000">ref    </text>
<text text-anchor="start" x="412.5386" y="-473.9" font-family="Arial" font-size="14.00" fill="#666666">[text]</text>
<polygon fill="none" stroke="#000000" points="355,-432.5 355,-462.5 785,-462.5 785,-432.5 355,-432.5"/>
<text text-anchor="start" x="362" y="-443.9" font-family="Arial" font-size="14.00" fill="#000000">holdable    </text>
<text text-anchor="start" x="449.1136" y="-443.9" font-family="Arial" font-size="14.00" fill="#666666">[text]</text>
<polygon fill="none" stroke="#000000" points="355,-402.5 355,-432.5 785,-432.5 785,-402.5 355,-402.5"/>
<text text-anchor="start" x="362" y="-413.9" font-family="Arial" font-size="14.00" fill="#000000">price    </text>
<text text-anchor="start" x="426.5372" y="-413.9" font-family="Arial" font-size="14.00" fill="#666666">[text]</text>
<polygon fill="none" stroke="#000000" points="355,-372.5 355,-402.5 785,-402.5 785,-372.5 355,-372.5"/>
<text text-anchor="start" x="362" y="-383.9" font-family="Arial" font-size="14.00" fill="#000000">barcode    </text>
<text text-anchor="start" x="446.7784" y="-383.9" font-family="Arial" font-size="14.00" fill="#666666">[text]</text>
<polygon fill="none" stroke="#000000" points="355,-342.5 355,-372.5 785,-372.5 785,-342.5 355,-342.5"/>
<text text-anchor="start" x="362" y="-353.9" font-family="Arial" font-size="14.00" fill="#000000">circ_modifier    </text>
<text text-anchor="start" x="475.5274" y="-353.9" font-family="Arial" font-size="14.00" fill="#666666">[text]</text>
<polygon fill="none" stroke="#000000" points="355,-312.5 355,-342.5 785,-342.5 785,-312.5 355,-312.5"/>
<text text-anchor="start" x="362" y="-323.9" font-family="Arial" font-size="14.00" fill="#000000">circ_as_type    </text>
<text text-anchor="start" x="474.7756" y="-323.9" font-family="Arial" font-size="14.00" fill="#666666">[text]</text>
<polygon fill="none" stroke="#000000" points="355,-282.5 355,-312.5 785,-312.5 785,-282.5 355,-282.5"/>
<text text-anchor="start" x="362" y="-293.9" font-family="Arial" font-size="14.00" fill="#000000">alert_message    </text>
<text text-anchor="start" x="488.0014" y="-293.9" font-family="Arial" font-size="14.00" fill="#666666">[text]</text>
<polygon fill="none" stroke="#000000" points="355,-252.5 355,-282.5 785,-282.5 785,-252.5 355,-252.5"/>
<text text-anchor="start" x="362" y="-263.9" font-family="Arial" font-size="14.00" fill="#000000">opac_visible    </text>
<text text-anchor="start" x="473.2202" y="-263.9" font-family="Arial" font-size="14.00" fill="#666666">[text]</text>
<polygon fill="none" stroke="#000000" points="355,-222.5 355,-252.5 785,-252.5 785,-222.5 355,-222.5"/>
<text text-anchor="start" x="362" y="-233.9" font-family="Arial" font-size="14.00" fill="#000000">pub_note_title    </text>
<text text-anchor="start" x="484.1332" y="-233.9" font-family="Arial" font-size="14.00" fill="#666666">[text]</text>
<polygon fill="none" stroke="#000000" points="355,-192.5 355,-222.5 785,-222.5 785,-192.5 355,-192.5"/>
<text text-anchor="start" x="362" y="-203.9" font-family="Arial" font-size="14.00" fill="#000000">pub_note    </text>
<text text-anchor="start" x="454.5736" y="-203.9" font-family="Arial" font-size="14.00" fill="#666666">[text]</text>
<polygon fill="none" stroke="#000000" points="355,-162.5 355,-192.5 785,-192.5 785,-162.5 355,-162.5"/>
<text text-anchor="start" x="362" y="-173.9" font-family="Arial" font-size="14.00" fill="#000000">priv_note_title    </text>
<text text-anchor="start" x="483.3352" y="-173.9" font-family="Arial" font-size="14.00" fill="#666666">[text]</text>
<polygon fill="none" stroke="#000000" points="355,-132.5 355,-162.5 785,-162.5 785,-132.5 355,-132.5"/>
<text text-anchor="start" x="362" y="-143.9" font-family="Arial" font-size="14.00" fill="#000000">priv_note    </text>
<text text-anchor="start" x="453.7756" y="-143.9" font-family="Arial" font-size="14.00" fill="#666666">[text]</text>
<polygon fill="none" stroke="#000000" points="355,-102.5 355,-132.5 785,-132.5 785,-102.5 355,-102.5"/>
<text text-anchor="start" x="362" y="-113.9" font-family="Arial" font-size="14.00" fill="#000000">internal_id    </text>
<text text-anchor="start" x="460.7714" y="-113.9" font-family="Arial" font-size="14.00" fill="#666666">[text]</text>
<polygon fill="none" stroke="#000000" points="355,-72.5 355,-102.5 785,-102.5 785,-72.5 355,-72.5"/>
<text text-anchor="start" x="362" y="-83.9" font-family="Arial" font-size="14.00" fill="#000000">stat_cat_data    </text>
<text text-anchor="start" x="480.2454" y="-83.9" font-family="Arial" font-size="14.00" fill="#666666">[text]</text>
<polygon fill="none" stroke="#000000" points="355,-42.5 355,-72.5 785,-72.5 785,-42.5 355,-42.5"/>
<text text-anchor="start" x="362" y="-53.9" font-family="Arial" font-size="14.00" fill="#000000">parts_data    </text>
<text text-anchor="start" x="462.3422" y="-53.9" font-family="Arial" font-size="14.00" fill="#666666">[text]</text>
</g>
<!-- vandelay.bib_queue&#45;&gt;vandelay.import_item_attr_definition -->
<g id="edge2" class="edge">
<title>vandelay.bib_queue:item_attr_def&#45;&gt;vandelay.import_item_attr_definition:id</title>
<path fill="none" stroke="#000000" d="M674.8082,-1115.9289C648.174,-1106.4869 664.1303,-1056.6939 685,-1027 712.1617,-988.3535 757.8383,-1029.6465 785,-991 808.895,-957.0016 826.5556,-897.5 785,-897.5"/>
<polygon fill="#000000" stroke="#000000" points="675.1167,-1115.9764 684.3144,-1121.9475 680.0584,-1116.7382 685,-1117.5 685,-1117.5 685,-1117.5 680.0584,-1116.7382 685.6856,-1113.0525 675.1167,-1115.9764 675.1167,-1115.9764"/>
<text text-anchor="start" x="7.418" y="-1127.5" font-family="Arial" font-size="10.00" fill="#000000">FOREIGN KEY (item_attr_def) REFERENCES vandelay.import_item_attr_definition(id) ON DELETE SET NULL DEFERRABLE INITIALLY DEFERRED</text>
</g>
<!-- container.biblio_record_entry_bucket -->
<g id="node4" class="node">
<title>container.biblio_record_entry_bucket</title>
<polygon fill="#efefef" stroke="transparent" points="889,-597.5 889,-632.5 1325,-632.5 1325,-597.5 889,-597.5"/>
<polygon fill="none" stroke="#000000" points="889,-597.5 889,-632.5 1325,-632.5 1325,-597.5 889,-597.5"/>
<text text-anchor="start" x="895.6799" y="-610.3" font-family="Arial Bold" font-size="18.00" fill="#000000">container.biblio_record_entry_bucket</text>
<text text-anchor="start" x="1190.7521" y="-610.3" font-family="Arial" font-size="14.00" fill="#000000">    </text>
<text text-anchor="start" x="1224.9569" y="-610.3" font-family="Arial" font-size="14.00" fill="#666666">[BASE TABLE]</text>
<polygon fill="none" stroke="#000000" points="889,-567.5 889,-597.5 1325,-597.5 1325,-567.5 889,-567.5"/>
<text text-anchor="start" x="896" y="-578.9" font-family="Arial" font-size="14.00" fill="#000000">id    </text>
<text text-anchor="start" x="941.094" y="-578.9" font-family="Arial" font-size="14.00" fill="#666666">[integer]</text>
<polygon fill="none" stroke="#000000" points="889,-537.5 889,-567.5 1325,-567.5 1325,-537.5 889,-537.5"/>
<text text-anchor="start" x="896" y="-548.9" font-family="Arial" font-size="14.00" fill="#000000">owner    </text>
<text text-anchor="start" x="968.3198" y="-548.9" font-family="Arial" font-size="14.00" fill="#666666">[integer]</text>
<polygon fill="none" stroke="#000000" points="889,-507.5 889,-537.5 1325,-537.5 1325,-507.5 889,-507.5"/>
<text text-anchor="start" x="896" y="-518.9" font-family="Arial" font-size="14.00" fill="#000000">name    </text>
<text text-anchor="start" x="965.2132" y="-518.9" font-family="Arial" font-size="14.00" fill="#666666">[text]</text>
<polygon fill="none" stroke="#000000" points="889,-477.5 889,-507.5 1325,-507.5 1325,-477.5 889,-477.5"/>
<text text-anchor="start" x="896" y="-488.9" font-family="Arial" font-size="14.00" fill="#000000">btype    </text>
<text text-anchor="start" x="964.4432" y="-488.9" font-family="Arial" font-size="14.00" fill="#666666">[text]</text>
<polygon fill="none" stroke="#000000" points="889,-447.5 889,-477.5 1325,-477.5 1325,-447.5 889,-447.5"/>
<text text-anchor="start" x="896" y="-458.9" font-family="Arial" font-size="14.00" fill="#000000">description    </text>
<text text-anchor="start" x="997.8822" y="-458.9" font-family="Arial" font-size="14.00" fill="#666666">[text]</text>
<polygon fill="none" stroke="#000000" points="889,-417.5 889,-447.5 1325,-447.5 1325,-417.5 889,-417.5"/>
<text text-anchor="start" x="896" y="-428.9" font-family="Arial" font-size="14.00" fill="#000000">pub    </text>
<text text-anchor="start" x="953.5526" y="-428.9" font-family="Arial" font-size="14.00" fill="#666666">[boolean]</text>
<polygon fill="none" stroke="#000000" points="889,-387.5 889,-417.5 1325,-417.5 1325,-387.5 889,-387.5"/>
<text text-anchor="start" x="896" y="-398.9" font-family="Arial" font-size="14.00" fill="#000000">owning_lib    </text>
<text text-anchor="start" x="996.3268" y="-398.9" font-family="Arial" font-size="14.00" fill="#666666">[integer]</text>
<polygon fill="none" stroke="#000000" points="889,-357.5 889,-387.5 1325,-387.5 1325,-357.5 889,-357.5"/>
<text text-anchor="start" x="896" y="-368.9" font-family="Arial" font-size="14.00" fill="#000000">create_time    </text>
<text text-anchor="start" x="1003.3268" y="-368.9" font-family="Arial" font-size="14.00" fill="#666666">[timestamp with time zone]</text>
</g>
<!-- vandelay.bib_queue&#45;&gt;container.biblio_record_entry_bucket -->
<g id="edge3" class="edge">
<title>vandelay.bib_queue:match_bucket&#45;&gt;container.biblio_record_entry_bucket:id</title>
<path fill="none" stroke="#000000" d="M999.9627,-1085.8668C1083.0278,-1054.5216 778.3553,-582.5 889,-582.5"/>
<polygon fill="#000000" stroke="#000000" points="999.8683,-1085.8822 989.272,-1083.0593 994.9341,-1086.6911 990,-1087.5 990,-1087.5 990,-1087.5 994.9341,-1086.6911 990.728,-1091.9407 999.8683,-1085.8822 999.8683,-1085.8822"/>
<text text-anchor="start" x="996.7995" y="-1097.5" font-family="Arial" font-size="10.00" fill="#000000">FOREIGN KEY (match_bucket) REFERENCES container.biblio_record_entry_bucket(id) ON DELETE SET NULL DEFERRABLE INITIALLY DEFERRED</text>
</g>
<!-- vandelay.queued_bib_record -->
<g id="node2" class="node">
<title>vandelay.queued_bib_record</title>
<polygon fill="#efefef" stroke="transparent" points="651,-1802.5 651,-1837.5 1024,-1837.5 1024,-1802.5 651,-1802.5"/>
<polygon fill="none" stroke="#000000" points="651,-1802.5 651,-1837.5 1024,-1837.5 1024,-1802.5 651,-1802.5"/>
<text text-anchor="start" x="657.6727" y="-1815.3" font-family="Arial Bold" font-size="18.00" fill="#000000">vandelay.queued_bib_record</text>
<text text-anchor="start" x="889.7593" y="-1815.3" font-family="Arial" font-size="14.00" fill="#000000">    </text>
<text text-anchor="start" x="923.9641" y="-1815.3" font-family="Arial" font-size="14.00" fill="#666666">[BASE TABLE]</text>
<polygon fill="none" stroke="#000000" points="651,-1772.5 651,-1802.5 1024,-1802.5 1024,-1772.5 651,-1772.5"/>
<text text-anchor="start" x="658" y="-1783.9" font-family="Arial" font-size="14.00" fill="#000000">id    </text>
<text text-anchor="start" x="703.094" y="-1783.9" font-family="Arial" font-size="14.00" fill="#666666">[bigint]</text>
<polygon fill="none" stroke="#000000" points="651,-1742.5 651,-1772.5 1024,-1772.5 1024,-1742.5 651,-1742.5"/>
<text text-anchor="start" x="658" y="-1753.9" font-family="Arial" font-size="14.00" fill="#000000">create_time    </text>
<text text-anchor="start" x="765.3268" y="-1753.9" font-family="Arial" font-size="14.00" fill="#666666">[timestamp with time zone]</text>
<polygon fill="none" stroke="#000000" points="651,-1712.5 651,-1742.5 1024,-1742.5 1024,-1712.5 651,-1712.5"/>
<text text-anchor="start" x="658" y="-1723.9" font-family="Arial" font-size="14.00" fill="#000000">import_time    </text>
<text text-anchor="start" x="765.3114" y="-1723.9" font-family="Arial" font-size="14.00" fill="#666666">[timestamp with time zone]</text>
<polygon fill="none" stroke="#000000" points="651,-1682.5 651,-1712.5 1024,-1712.5 1024,-1682.5 651,-1682.5"/>
<text text-anchor="start" x="658" y="-1693.9" font-family="Arial" font-size="14.00" fill="#000000">purpose    </text>
<text text-anchor="start" x="742.7784" y="-1693.9" font-family="Arial" font-size="14.00" fill="#666666">[text]</text>
<polygon fill="none" stroke="#000000" points="651,-1652.5 651,-1682.5 1024,-1682.5 1024,-1652.5 651,-1652.5"/>
<text text-anchor="start" x="658" y="-1663.9" font-family="Arial" font-size="14.00" fill="#000000">marc    </text>
<text text-anchor="start" x="723.3086" y="-1663.9" font-family="Arial" font-size="14.00" fill="#666666">[text]</text>
<polygon fill="none" stroke="#000000" points="651,-1622.5 651,-1652.5 1024,-1652.5 1024,-1622.5 651,-1622.5"/>
<text text-anchor="start" x="658" y="-1633.9" font-family="Arial" font-size="14.00" fill="#000000">quality    </text>
<text text-anchor="start" x="732.6564" y="-1633.9" font-family="Arial" font-size="14.00" fill="#666666">[integer]</text>
<polygon fill="none" stroke="#000000" points="651,-1592.5 651,-1622.5 1024,-1622.5 1024,-1592.5 651,-1592.5"/>
<text text-anchor="start" x="658" y="-1603.9" font-family="Arial" font-size="14.00" fill="#000000">queue    </text>
<text text-anchor="start" x="731.1178" y="-1603.9" font-family="Arial" font-size="14.00" fill="#666666">[integer]</text>
<polygon fill="none" stroke="#000000" points="651,-1562.5 651,-1592.5 1024,-1592.5 1024,-1562.5 651,-1562.5"/>
<text text-anchor="start" x="658" y="-1573.9" font-family="Arial" font-size="14.00" fill="#000000">bib_source    </text>
<text text-anchor="start" x="760.6676" y="-1573.9" font-family="Arial" font-size="14.00" fill="#666666">[integer]</text>
<polygon fill="none" stroke="#000000" points="651,-1532.5 651,-1562.5 1024,-1562.5 1024,-1532.5 651,-1532.5"/>
<text text-anchor="start" x="658" y="-1543.9" font-family="Arial" font-size="14.00" fill="#000000">imported_as    </text>
<text text-anchor="start" x="769.2188" y="-1543.9" font-family="Arial" font-size="14.00" fill="#666666">[bigint]</text>
<polygon fill="none" stroke="#000000" points="651,-1502.5 651,-1532.5 1024,-1532.5 1024,-1502.5 651,-1502.5"/>
<text text-anchor="start" x="658" y="-1513.9" font-family="Arial" font-size="14.00" fill="#000000">import_error    </text>
<text text-anchor="start" x="768.418" y="-1513.9" font-family="Arial" font-size="14.00" fill="#666666">[text]</text>
<polygon fill="none" stroke="#000000" points="651,-1472.5 651,-1502.5 1024,-1502.5 1024,-1472.5 651,-1472.5"/>
<text text-anchor="start" x="658" y="-1483.9" font-family="Arial" font-size="14.00" fill="#000000">error_detail    </text>
<text text-anchor="start" x="762.986" y="-1483.9" font-family="Arial" font-size="14.00" fill="#666666">[text]</text>
</g>
<!-- vandelay.queued_bib_record&#45;&gt;vandelay.bib_queue -->
<g id="edge1" class="edge">
<title>vandelay.queued_bib_record:queue&#45;&gt;vandelay.bib_queue:id</title>
<path fill="none" stroke="#000000" d="M640.775,-1606.9106C514.19,-1591.9577 549.9153,-1297.5 685,-1297.5"/>
<polygon fill="#000000" stroke="#000000" points="641.0166,-1606.9244 650.741,-1611.9925 646.0083,-1607.2122 651,-1607.5 651,-1607.5 651,-1607.5 646.0083,-1607.2122 651.259,-1603.0075 641.0166,-1606.9244 641.0166,-1606.9244"/>
<text text-anchor="start" x="73.9695" y="-1617.5" font-family="Arial" font-size="10.00" fill="#000000">FOREIGN KEY (queue) REFERENCES vandelay.bib_queue(id) ON DELETE CASCADE DEFERRABLE INITIALLY DEFERRED</text>
</g>
</g>
</svg>
