<?xml version="1.0" encoding="UTF-8" standalone="no"?>
<!DOCTYPE svg PUBLIC "-//W3C//DTD SVG 1.1//EN"
 "http://www.w3.org/Graphics/SVG/1.1/DTD/svg11.dtd">
<!-- Generated by graphviz version 2.40.1 (20161225.0304)
 -->
<!-- Title: vandelay.queued_authority_record Pages: 1 -->
<svg width="1779pt" height="1319pt"
 viewBox="0.00 0.00 1779.00 1319.00" xmlns="http://www.w3.org/2000/svg" xmlns:xlink="http://www.w3.org/1999/xlink">
<g id="graph0" class="graph" transform="scale(1 1) rotate(0) translate(4 1315)">
<title>vandelay.queued_authority_record</title>
<polygon fill="#ffffff" stroke="transparent" points="-4,4 -4,-1315 1775,-1315 1775,4 -4,4"/>
<!-- vandelay.queued_authority_record -->
<g id="node1" class="node">
<title>vandelay.queued_authority_record</title>
<polygon fill="#efefef" stroke="transparent" points="609,-922.5 609,-957.5 1027,-957.5 1027,-922.5 609,-922.5"/>
<polygon fill="none" stroke="#000000" points="609,-922.5 609,-957.5 1027,-957.5 1027,-922.5 609,-922.5"/>
<text text-anchor="start" x="615.6682" y="-935.3" font-family="Arial Bold" font-size="18.00" fill="#000000">vandelay.queued_authority_record</text>
<text text-anchor="start" x="892.7638" y="-935.3" font-family="Arial" font-size="14.00" fill="#000000">    </text>
<text text-anchor="start" x="926.9686" y="-935.3" font-family="Arial" font-size="14.00" fill="#666666">[BASE TABLE]</text>
<polygon fill="none" stroke="#000000" points="609,-892.5 609,-922.5 1027,-922.5 1027,-892.5 609,-892.5"/>
<text text-anchor="start" x="616" y="-903.9" font-family="Arial" font-size="14.00" fill="#000000">id </text>
<text text-anchor="start" x="630.7798" y="-903.9" font-family="Arial" font-size="14.00" fill="#666666">[bigint]</text>
<polygon fill="none" stroke="#000000" points="609,-862.5 609,-892.5 1027,-892.5 1027,-862.5 609,-862.5"/>
<text text-anchor="start" x="616" y="-873.9" font-family="Arial" font-size="14.00" fill="#000000">create_time </text>
<text text-anchor="start" x="693.0126" y="-873.9" font-family="Arial" font-size="14.00" fill="#666666">[timestamp with time zone]</text>
<polygon fill="none" stroke="#000000" points="609,-832.5 609,-862.5 1027,-862.5 1027,-832.5 609,-832.5"/>
<text text-anchor="start" x="616" y="-843.9" font-family="Arial" font-size="14.00" fill="#000000">import_time </text>
<text text-anchor="start" x="692.9972" y="-843.9" font-family="Arial" font-size="14.00" fill="#666666">[timestamp with time zone]</text>
<polygon fill="none" stroke="#000000" points="609,-802.5 609,-832.5 1027,-832.5 1027,-802.5 609,-802.5"/>
<text text-anchor="start" x="616" y="-813.9" font-family="Arial" font-size="14.00" fill="#000000">purpose </text>
<text text-anchor="start" x="670.4642" y="-813.9" font-family="Arial" font-size="14.00" fill="#666666">[text]</text>
<polygon fill="none" stroke="#000000" points="609,-772.5 609,-802.5 1027,-802.5 1027,-772.5 609,-772.5"/>
<text text-anchor="start" x="616" y="-783.9" font-family="Arial" font-size="14.00" fill="#000000">marc </text>
<text text-anchor="start" x="650.9944" y="-783.9" font-family="Arial" font-size="14.00" fill="#666666">[text]</text>
<polygon fill="none" stroke="#000000" points="609,-742.5 609,-772.5 1027,-772.5 1027,-742.5 609,-742.5"/>
<text text-anchor="start" x="616" y="-753.9" font-family="Arial" font-size="14.00" fill="#000000">quality </text>
<text text-anchor="start" x="660.3422" y="-753.9" font-family="Arial" font-size="14.00" fill="#666666">[integer]</text>
<polygon fill="none" stroke="#000000" points="609,-712.5 609,-742.5 1027,-742.5 1027,-712.5 609,-712.5"/>
<text text-anchor="start" x="616" y="-723.9" font-family="Arial" font-size="14.00" fill="#000000">queue </text>
<text text-anchor="start" x="658.8036" y="-723.9" font-family="Arial" font-size="14.00" fill="#666666">[integer]</text>
<polygon fill="none" stroke="#000000" points="609,-682.5 609,-712.5 1027,-712.5 1027,-682.5 609,-682.5"/>
<text text-anchor="start" x="616" y="-693.9" font-family="Arial" font-size="14.00" fill="#000000">imported_as </text>
<text text-anchor="start" x="696.9046" y="-693.9" font-family="Arial" font-size="14.00" fill="#666666">[integer]</text>
<polygon fill="none" stroke="#000000" points="609,-652.5 609,-682.5 1027,-682.5 1027,-652.5 609,-652.5"/>
<text text-anchor="start" x="616" y="-663.9" font-family="Arial" font-size="14.00" fill="#000000">import_error </text>
<text text-anchor="start" x="696.1038" y="-663.9" font-family="Arial" font-size="14.00" fill="#666666">[text]</text>
<polygon fill="none" stroke="#000000" points="609,-622.5 609,-652.5 1027,-652.5 1027,-622.5 609,-622.5"/>
<text text-anchor="start" x="616" y="-633.9" font-family="Arial" font-size="14.00" fill="#000000">error_detail </text>
<text text-anchor="start" x="690.6718" y="-633.9" font-family="Arial" font-size="14.00" fill="#666666">[text]</text>
<polygon fill="none" stroke="#000000" stroke-width="3" points="607.5,-621.5 607.5,-959.5 1028.5,-959.5 1028.5,-621.5 607.5,-621.5"/>
</g>
<!-- vandelay.authority_queue -->
<g id="node4" class="node">
<title>vandelay.authority_queue</title>
<polygon fill="#efefef" stroke="transparent" points="186,-342.5 186,-377.5 556,-377.5 556,-342.5 186,-342.5"/>
<polygon fill="none" stroke="#000000" points="186,-342.5 186,-377.5 556,-377.5 556,-342.5 186,-342.5"/>
<text text-anchor="start" x="204.1759" y="-355.3" font-family="Arial Bold" font-size="18.00" fill="#000000">vandelay.authority_queue</text>
<text text-anchor="start" x="410.2561" y="-355.3" font-family="Arial" font-size="14.00" fill="#000000">    </text>
<text text-anchor="start" x="444.4609" y="-355.3" font-family="Arial" font-size="14.00" fill="#666666">[BASE TABLE]</text>
<polygon fill="none" stroke="#000000" points="186,-312.5 186,-342.5 556,-342.5 556,-312.5 186,-312.5"/>
<text text-anchor="start" x="193" y="-323.9" font-family="Arial" font-size="14.00" fill="#000000">id    </text>
<text text-anchor="start" x="238.094" y="-323.9" font-family="Arial" font-size="14.00" fill="#666666">[bigint]</text>
<polygon fill="none" stroke="#000000" points="186,-282.5 186,-312.5 556,-312.5 556,-282.5 186,-282.5"/>
<text text-anchor="start" x="193" y="-293.9" font-family="Arial" font-size="14.00" fill="#000000">owner    </text>
<text text-anchor="start" x="265.3198" y="-293.9" font-family="Arial" font-size="14.00" fill="#666666">[integer]</text>
<polygon fill="none" stroke="#000000" points="186,-252.5 186,-282.5 556,-282.5 556,-252.5 186,-252.5"/>
<text text-anchor="start" x="193" y="-263.9" font-family="Arial" font-size="14.00" fill="#000000">name    </text>
<text text-anchor="start" x="262.2132" y="-263.9" font-family="Arial" font-size="14.00" fill="#666666">[text]</text>
<polygon fill="none" stroke="#000000" points="186,-222.5 186,-252.5 556,-252.5 556,-222.5 186,-222.5"/>
<text text-anchor="start" x="193" y="-233.9" font-family="Arial" font-size="14.00" fill="#000000">complete    </text>
<text text-anchor="start" x="283.993" y="-233.9" font-family="Arial" font-size="14.00" fill="#666666">[boolean]</text>
<polygon fill="none" stroke="#000000" points="186,-192.5 186,-222.5 556,-222.5 556,-192.5 186,-192.5"/>
<text text-anchor="start" x="193" y="-203.9" font-family="Arial" font-size="14.00" fill="#000000">match_set    </text>
<text text-anchor="start" x="291.777" y="-203.9" font-family="Arial" font-size="14.00" fill="#666666">[integer]</text>
<polygon fill="none" stroke="#000000" points="186,-162.5 186,-192.5 556,-192.5 556,-162.5 186,-162.5"/>
<text text-anchor="start" x="192.822" y="-173.9" font-family="Arial" font-size="14.00" fill="#000000">queue_type    </text>
<text text-anchor="start" x="300.1782" y="-173.9" font-family="Arial" font-size="14.00" fill="#666666">[vandelay.authority_queue_queue_type]</text>
</g>
<!-- vandelay.queued_authority_record&#45;&gt;vandelay.authority_queue -->
<g id="edge3" class="edge">
<title>vandelay.queued_authority_record:queue&#45;&gt;vandelay.authority_queue:id</title>
<path fill="none" stroke="#000000" d="M599.0272,-725.5365C529.334,-695.3604 641.9881,-327.5 556,-327.5"/>
<polygon fill="#000000" stroke="#000000" points="599.1884,-725.5681 608.1307,-731.9152 604.0942,-726.5341 609,-727.5 609,-727.5 609,-727.5 604.0942,-726.5341 609.8693,-723.0848 599.1884,-725.5681 599.1884,-725.5681"/>
<text text-anchor="start" x="7.467" y="-737.5" font-family="Arial" font-size="10.00" fill="#000000">FOREIGN KEY (queue) REFERENCES vandelay.authority_queue(id) ON DELETE CASCADE DEFERRABLE INITIALLY DEFERRED</text>
</g>
<!-- authority.record_entry -->
<g id="node5" class="node">
<title>authority.record_entry</title>
<polygon fill="#efefef" stroke="transparent" points="660,-462.5 660,-497.5 976,-497.5 976,-462.5 660,-462.5"/>
<polygon fill="none" stroke="#000000" points="660,-462.5 660,-497.5 976,-497.5 976,-462.5 660,-462.5"/>
<text text-anchor="start" x="666.6991" y="-475.3" font-family="Arial Bold" font-size="18.00" fill="#000000">authority.record_entry</text>
<text text-anchor="start" x="841.7329" y="-475.3" font-family="Arial" font-size="14.00" fill="#000000">    </text>
<text text-anchor="start" x="875.9377" y="-475.3" font-family="Arial" font-size="14.00" fill="#666666">[BASE TABLE]</text>
<polygon fill="none" stroke="#000000" points="660,-432.5 660,-462.5 976,-462.5 976,-432.5 660,-432.5"/>
<text text-anchor="start" x="667" y="-443.9" font-family="Arial" font-size="14.00" fill="#000000">id    </text>
<text text-anchor="start" x="712.094" y="-443.9" font-family="Arial" font-size="14.00" fill="#666666">[bigint]</text>
<polygon fill="none" stroke="#000000" points="660,-402.5 660,-432.5 976,-432.5 976,-402.5 660,-402.5"/>
<text text-anchor="start" x="667" y="-413.9" font-family="Arial" font-size="14.00" fill="#000000">create_date    </text>
<text text-anchor="start" x="775.1248" y="-413.9" font-family="Arial" font-size="14.00" fill="#666666">[timestamp with time zone]</text>
<polygon fill="none" stroke="#000000" points="660,-372.5 660,-402.5 976,-402.5 976,-372.5 660,-372.5"/>
<text text-anchor="start" x="667" y="-383.9" font-family="Arial" font-size="14.00" fill="#000000">edit_date    </text>
<text text-anchor="start" x="758.7882" y="-383.9" font-family="Arial" font-size="14.00" fill="#666666">[timestamp with time zone]</text>
<polygon fill="none" stroke="#000000" points="660,-342.5 660,-372.5 976,-372.5 976,-342.5 660,-342.5"/>
<text text-anchor="start" x="667" y="-353.9" font-family="Arial" font-size="14.00" fill="#000000">creator    </text>
<text text-anchor="start" x="744.7644" y="-353.9" font-family="Arial" font-size="14.00" fill="#666666">[integer]</text>
<polygon fill="none" stroke="#000000" points="660,-312.5 660,-342.5 976,-342.5 976,-312.5 660,-312.5"/>
<text text-anchor="start" x="667" y="-323.9" font-family="Arial" font-size="14.00" fill="#000000">editor    </text>
<text text-anchor="start" x="736.2104" y="-323.9" font-family="Arial" font-size="14.00" fill="#666666">[integer]</text>
<polygon fill="none" stroke="#000000" points="660,-282.5 660,-312.5 976,-312.5 976,-282.5 660,-282.5"/>
<text text-anchor="start" x="667" y="-293.9" font-family="Arial" font-size="14.00" fill="#000000">active    </text>
<text text-anchor="start" x="737.7672" y="-293.9" font-family="Arial" font-size="14.00" fill="#666666">[boolean]</text>
<polygon fill="none" stroke="#000000" points="660,-252.5 660,-282.5 976,-282.5 976,-252.5 660,-252.5"/>
<text text-anchor="start" x="667" y="-263.9" font-family="Arial" font-size="14.00" fill="#000000">deleted    </text>
<text text-anchor="start" x="747.115" y="-263.9" font-family="Arial" font-size="14.00" fill="#666666">[boolean]</text>
<polygon fill="none" stroke="#000000" points="660,-222.5 660,-252.5 976,-252.5 976,-222.5 660,-222.5"/>
<text text-anchor="start" x="667" y="-233.9" font-family="Arial" font-size="14.00" fill="#000000">source    </text>
<text text-anchor="start" x="743.2132" y="-233.9" font-family="Arial" font-size="14.00" fill="#666666">[integer]</text>
<polygon fill="none" stroke="#000000" points="660,-192.5 660,-222.5 976,-222.5 976,-192.5 660,-192.5"/>
<text text-anchor="start" x="667" y="-203.9" font-family="Arial" font-size="14.00" fill="#000000">control_set    </text>
<text text-anchor="start" x="769.6662" y="-203.9" font-family="Arial" font-size="14.00" fill="#666666">[integer]</text>
<polygon fill="none" stroke="#000000" points="660,-162.5 660,-192.5 976,-192.5 976,-162.5 660,-162.5"/>
<text text-anchor="start" x="667" y="-173.9" font-family="Arial" font-size="14.00" fill="#000000">marc    </text>
<text text-anchor="start" x="732.3086" y="-173.9" font-family="Arial" font-size="14.00" fill="#666666">[text]</text>
<polygon fill="none" stroke="#000000" points="660,-132.5 660,-162.5 976,-162.5 976,-132.5 660,-132.5"/>
<text text-anchor="start" x="667" y="-143.9" font-family="Arial" font-size="14.00" fill="#000000">last_xact_id    </text>
<text text-anchor="start" x="775.1122" y="-143.9" font-family="Arial" font-size="14.00" fill="#666666">[text]</text>
<polygon fill="none" stroke="#000000" points="660,-102.5 660,-132.5 976,-132.5 976,-102.5 660,-102.5"/>
<text text-anchor="start" x="667" y="-113.9" font-family="Arial" font-size="14.00" fill="#000000">owner    </text>
<text text-anchor="start" x="739.3198" y="-113.9" font-family="Arial" font-size="14.00" fill="#666666">[integer]</text>
<polygon fill="none" stroke="#000000" points="660,-72.5 660,-102.5 976,-102.5 976,-72.5 660,-72.5"/>
<text text-anchor="start" x="667" y="-83.9" font-family="Arial" font-size="14.00" fill="#000000">heading    </text>
<text text-anchor="start" x="751.007" y="-83.9" font-family="Arial" font-size="14.00" fill="#666666">[text]</text>
<polygon fill="none" stroke="#000000" points="660,-42.5 660,-72.5 976,-72.5 976,-42.5 660,-42.5"/>
<text text-anchor="start" x="667" y="-53.9" font-family="Arial" font-size="14.00" fill="#000000">simple_heading    </text>
<text text-anchor="start" x="799.2286" y="-53.9" font-family="Arial" font-size="14.00" fill="#666666">[text]</text>
</g>
<!-- vandelay.queued_authority_record&#45;&gt;authority.record_entry -->
<g id="edge4" class="edge">
<title>vandelay.queued_authority_record:imported_as&#45;&gt;authority.record_entry:id</title>
<path fill="none" stroke="#000000" d="M1037.3729,-696.4122C1074.2734,-687.5076 1036.2461,-625.711 1027,-577 1015.4643,-516.2271 1037.8581,-447.5 976,-447.5"/>
<polygon fill="#000000" stroke="#000000" points="1036.9455,-696.4569 1026.5306,-693.0245 1031.9727,-696.9785 1027,-697.5 1027,-697.5 1027,-697.5 1031.9727,-696.9785 1027.4694,-701.9755 1036.9455,-696.4569 1036.9455,-696.4569"/>
<text text-anchor="start" x="1033.7645" y="-707.5" font-family="Arial" font-size="10.00" fill="#000000">FOREIGN KEY (imported_as) REFERENCES authority.record_entry(id) DEFERRABLE INITIALLY DEFERRED</text>
</g>
<!-- vandelay.import_error -->
<g id="node6" class="node">
<title>vandelay.import_error</title>
<polygon fill="#efefef" stroke="transparent" points="1080,-282.5 1080,-317.5 1396,-317.5 1396,-282.5 1080,-282.5"/>
<polygon fill="none" stroke="#000000" points="1080,-282.5 1080,-317.5 1396,-317.5 1396,-282.5 1080,-282.5"/>
<text text-anchor="start" x="1086.7081" y="-295.3" font-family="Arial Bold" font-size="18.00" fill="#000000">vandelay.import_error</text>
<text text-anchor="start" x="1261.7239" y="-295.3" font-family="Arial" font-size="14.00" fill="#000000">    </text>
<text text-anchor="start" x="1295.9287" y="-295.3" font-family="Arial" font-size="14.00" fill="#666666">[BASE TABLE]</text>
<polygon fill="none" stroke="#000000" points="1080,-252.5 1080,-282.5 1396,-282.5 1396,-252.5 1080,-252.5"/>
<text text-anchor="start" x="1087" y="-263.9" font-family="Arial" font-size="14.00" fill="#000000">code    </text>
<text text-anchor="start" x="1151.5526" y="-263.9" font-family="Arial" font-size="14.00" fill="#666666">[text]</text>
<polygon fill="none" stroke="#000000" points="1080,-222.5 1080,-252.5 1396,-252.5 1396,-222.5 1080,-222.5"/>
<text text-anchor="start" x="1087" y="-233.9" font-family="Arial" font-size="14.00" fill="#000000">description    </text>
<text text-anchor="start" x="1188.8822" y="-233.9" font-family="Arial" font-size="14.00" fill="#666666">[text]</text>
</g>
<!-- vandelay.queued_authority_record&#45;&gt;vandelay.import_error -->
<g id="edge5" class="edge">
<title>vandelay.queued_authority_record:import_error&#45;&gt;vandelay.import_error:code</title>
<path fill="none" stroke="#000000" d="M1036.9728,-665.5365C1106.666,-635.3604 994.0119,-267.5 1080,-267.5"/>
<polygon fill="#000000" stroke="#000000" points="1036.8116,-665.5681 1026.1307,-663.0848 1031.9058,-666.5341 1027,-667.5 1027,-667.5 1027,-667.5 1031.9058,-666.5341 1027.8693,-671.9152 1036.8116,-665.5681 1036.8116,-665.5681"/>
<text text-anchor="start" x="1033.9895" y="-677.5" font-family="Arial" font-size="10.00" fill="#000000">FOREIGN KEY (import_error) REFERENCES vandelay.import_error(code) ON UPDATE CASCADE ON DELETE SET NULL DEFERRABLE INITIALLY DEFERRED</text>
</g>
<!-- vandelay.authority_match -->
<g id="node2" class="node">
<title>vandelay.authority_match</title>
<polygon fill="#efefef" stroke="transparent" points="393,-1232.5 393,-1267.5 739,-1267.5 739,-1232.5 393,-1232.5"/>
<polygon fill="none" stroke="#000000" points="393,-1232.5 393,-1267.5 739,-1267.5 739,-1232.5 393,-1232.5"/>
<text text-anchor="start" x="399.688" y="-1245.3" font-family="Arial Bold" font-size="18.00" fill="#000000">vandelay.authority_match</text>
<text text-anchor="start" x="604.744" y="-1245.3" font-family="Arial" font-size="14.00" fill="#000000">    </text>
<text text-anchor="start" x="638.9488" y="-1245.3" font-family="Arial" font-size="14.00" fill="#666666">[BASE TABLE]</text>
<polygon fill="none" stroke="#000000" points="393,-1202.5 393,-1232.5 739,-1232.5 739,-1202.5 393,-1202.5"/>
<text text-anchor="start" x="400" y="-1213.9" font-family="Arial" font-size="14.00" fill="#000000">id    </text>
<text text-anchor="start" x="445.094" y="-1213.9" font-family="Arial" font-size="14.00" fill="#666666">[bigint]</text>
<polygon fill="none" stroke="#000000" points="393,-1172.5 393,-1202.5 739,-1202.5 739,-1172.5 393,-1172.5"/>
<text text-anchor="start" x="400" y="-1183.9" font-family="Arial" font-size="14.00" fill="#000000">queued_record    </text>
<text text-anchor="start" x="528.352" y="-1183.9" font-family="Arial" font-size="14.00" fill="#666666">[bigint]</text>
<polygon fill="none" stroke="#000000" points="393,-1142.5 393,-1172.5 739,-1172.5 739,-1142.5 393,-1142.5"/>
<text text-anchor="start" x="400" y="-1153.9" font-family="Arial" font-size="14.00" fill="#000000">eg_record    </text>
<text text-anchor="start" x="497.2216" y="-1153.9" font-family="Arial" font-size="14.00" fill="#666666">[bigint]</text>
<polygon fill="none" stroke="#000000" points="393,-1112.5 393,-1142.5 739,-1142.5 739,-1112.5 393,-1112.5"/>
<text text-anchor="start" x="400" y="-1123.9" font-family="Arial" font-size="14.00" fill="#000000">quality    </text>
<text text-anchor="start" x="474.6564" y="-1123.9" font-family="Arial" font-size="14.00" fill="#666666">[integer]</text>
<polygon fill="none" stroke="#000000" points="393,-1082.5 393,-1112.5 739,-1112.5 739,-1082.5 393,-1082.5"/>
<text text-anchor="start" x="400" y="-1093.9" font-family="Arial" font-size="14.00" fill="#000000">match_score    </text>
<text text-anchor="start" x="514.3296" y="-1093.9" font-family="Arial" font-size="14.00" fill="#666666">[integer]</text>
</g>
<!-- vandelay.authority_match&#45;&gt;vandelay.queued_authority_record -->
<g id="edge1" class="edge">
<title>vandelay.authority_match:queued_record&#45;&gt;vandelay.queued_authority_record:id</title>
<path fill="none" stroke="#000000" d="M749.2735,-1186.6077C801.5811,-1176.8399 776.442,-1089.2197 739,-1040 702.7024,-992.2847 645.2976,-1051.7153 609,-1004 583.0332,-969.8652 566.1111,-907.5 609,-907.5"/>
<polygon fill="#000000" stroke="#000000" points="748.9625,-1186.6346 738.6106,-1183.0169 743.9812,-1187.0673 739,-1187.5 739,-1187.5 739,-1187.5 743.9812,-1187.0673 739.3894,-1191.9831 748.9625,-1186.6346 748.9625,-1186.6346"/>
<text text-anchor="start" x="59.014" y="-1197.5" font-family="Arial" font-size="10.00" fill="#000000">FOREIGN KEY (queued_record) REFERENCES vandelay.queued_authority_record(id) ON DELETE CASCADE DEFERRABLE INITIALLY DEFERRED</text>
</g>
<!-- vandelay.queued_authority_record_attr -->
<g id="node3" class="node">
<title>vandelay.queued_authority_record_attr</title>
<polygon fill="#efefef" stroke="transparent" points="843,-1217.5 843,-1252.5 1297,-1252.5 1297,-1217.5 843,-1217.5"/>
<polygon fill="none" stroke="#000000" points="843,-1217.5 843,-1252.5 1297,-1252.5 1297,-1217.5 843,-1217.5"/>
<text text-anchor="start" x="849.6637" y="-1230.3" font-family="Arial Bold" font-size="18.00" fill="#000000">vandelay.queued_authority_record_attr</text>
<text text-anchor="start" x="1162.7683" y="-1230.3" font-family="Arial" font-size="14.00" fill="#000000">    </text>
<text text-anchor="start" x="1196.9731" y="-1230.3" font-family="Arial" font-size="14.00" fill="#666666">[BASE TABLE]</text>
<polygon fill="none" stroke="#000000" points="843,-1187.5 843,-1217.5 1297,-1217.5 1297,-1187.5 843,-1187.5"/>
<text text-anchor="start" x="850" y="-1198.9" font-family="Arial" font-size="14.00" fill="#000000">id    </text>
<text text-anchor="start" x="895.094" y="-1198.9" font-family="Arial" font-size="14.00" fill="#666666">[bigint]</text>
<polygon fill="none" stroke="#000000" points="843,-1157.5 843,-1187.5 1297,-1187.5 1297,-1157.5 843,-1157.5"/>
<text text-anchor="start" x="850" y="-1168.9" font-family="Arial" font-size="14.00" fill="#000000">record    </text>
<text text-anchor="start" x="923.8738" y="-1168.9" font-family="Arial" font-size="14.00" fill="#666666">[bigint]</text>
<polygon fill="none" stroke="#000000" points="843,-1127.5 843,-1157.5 1297,-1157.5 1297,-1127.5 843,-1127.5"/>
<text text-anchor="start" x="850" y="-1138.9" font-family="Arial" font-size="14.00" fill="#000000">field    </text>
<text text-anchor="start" x="909.8738" y="-1138.9" font-family="Arial" font-size="14.00" fill="#666666">[integer]</text>
<polygon fill="none" stroke="#000000" points="843,-1097.5 843,-1127.5 1297,-1127.5 1297,-1097.5 843,-1097.5"/>
<text text-anchor="start" x="850" y="-1108.9" font-family="Arial" font-size="14.00" fill="#000000">attr_value    </text>
<text text-anchor="start" x="945.6662" y="-1108.9" font-family="Arial" font-size="14.00" fill="#666666">[text]</text>
</g>
<!-- vandelay.queued_authority_record_attr&#45;&gt;vandelay.queued_authority_record -->
<g id="edge2" class="edge">
<title>vandelay.queued_authority_record_attr:record&#45;&gt;vandelay.queued_authority_record:id</title>
<path fill="none" stroke="#000000" d="M833.0431,-1171.4121C793.7304,-1161.9918 813.6101,-1093.6441 843,-1055 894.3706,-987.4541 975.6294,-1071.5459 1027,-1004 1052.9628,-969.8622 1069.8889,-907.5 1027,-907.5"/>
<polygon fill="#000000" stroke="#000000" points="833.0592,-1171.4138 842.5112,-1176.9734 838.0296,-1171.9569 843,-1172.5 843,-1172.5 843,-1172.5 838.0296,-1171.9569 843.4888,-1168.0266 833.0592,-1171.4138 833.0592,-1171.4138"/>
<text text-anchor="start" x="849.7515" y="-1182.5" font-family="Arial" font-size="10.00" fill="#000000">FOREIGN KEY (record) REFERENCES vandelay.queued_authority_record(id) DEFERRABLE INITIALLY DEFERRED</text>
</g>
</g>
</svg>
