<?xml version="1.0" encoding="UTF-8" standalone="no"?>
<!DOCTYPE svg PUBLIC "-//W3C//DTD SVG 1.1//EN"
 "http://www.w3.org/Graphics/SVG/1.1/DTD/svg11.dtd">
<!-- Generated by graphviz version 2.40.1 (20161225.0304)
 -->
<!-- Title: vandelay.import_error Pages: 1 -->
<svg width="1734pt" height="1222pt"
 viewBox="0.00 0.00 1734.00 1222.00" xmlns="http://www.w3.org/2000/svg" xmlns:xlink="http://www.w3.org/1999/xlink">
<g id="graph0" class="graph" transform="scale(1 1) rotate(0) translate(4 1218)">
<title>vandelay.import_error</title>
<polygon fill="#ffffff" stroke="transparent" points="-4,4 -4,-1218 1730,-1218 1730,4 -4,4"/>
<!-- vandelay.import_error -->
<g id="node1" class="node">
<title>vandelay.import_error</title>
<polygon fill="#efefef" stroke="transparent" points="510,-105.5 510,-140.5 826,-140.5 826,-105.5 510,-105.5"/>
<polygon fill="none" stroke="#000000" points="510,-105.5 510,-140.5 826,-140.5 826,-105.5 510,-105.5"/>
<text text-anchor="start" x="516.7081" y="-118.3" font-family="Arial Bold" font-size="18.00" fill="#000000">vandelay.import_error</text>
<text text-anchor="start" x="691.7239" y="-118.3" font-family="Arial" font-size="14.00" fill="#000000">    </text>
<text text-anchor="start" x="725.9287" y="-118.3" font-family="Arial" font-size="14.00" fill="#666666">[BASE TABLE]</text>
<polygon fill="none" stroke="#000000" points="510,-75.5 510,-105.5 826,-105.5 826,-75.5 510,-75.5"/>
<text text-anchor="start" x="517" y="-86.9" font-family="Arial" font-size="14.00" fill="#000000">code </text>
<text text-anchor="start" x="551.2384" y="-86.9" font-family="Arial" font-size="14.00" fill="#666666">[text]</text>
<polygon fill="none" stroke="#000000" points="510,-45.5 510,-75.5 826,-75.5 826,-45.5 510,-45.5"/>
<text text-anchor="start" x="517" y="-56.9" font-family="Arial" font-size="14.00" fill="#000000">description </text>
<text text-anchor="start" x="588.568" y="-56.9" font-family="Arial" font-size="14.00" fill="#666666">[text]</text>
<polygon fill="none" stroke="#000000" stroke-width="3" points="508.5,-44.5 508.5,-142.5 827.5,-142.5 827.5,-44.5 508.5,-44.5"/>
</g>
<!-- vandelay.import_item -->
<g id="node2" class="node">
<title>vandelay.import_item</title>
<polygon fill="#efefef" stroke="transparent" points="43,-1135.5 43,-1170.5 355,-1170.5 355,-1135.5 43,-1135.5"/>
<polygon fill="none" stroke="#000000" points="43,-1135.5 43,-1170.5 355,-1170.5 355,-1135.5 43,-1135.5"/>
<text text-anchor="start" x="49.7052" y="-1148.3" font-family="Arial Bold" font-size="18.00" fill="#000000">vandelay.import_item</text>
<text text-anchor="start" x="220.7268" y="-1148.3" font-family="Arial" font-size="14.00" fill="#000000">    </text>
<text text-anchor="start" x="254.9316" y="-1148.3" font-family="Arial" font-size="14.00" fill="#666666">[BASE TABLE]</text>
<polygon fill="none" stroke="#000000" points="43,-1105.5 43,-1135.5 355,-1135.5 355,-1105.5 43,-1105.5"/>
<text text-anchor="start" x="50" y="-1116.9" font-family="Arial" font-size="14.00" fill="#000000">id    </text>
<text text-anchor="start" x="95.094" y="-1116.9" font-family="Arial" font-size="14.00" fill="#666666">[bigint]</text>
<polygon fill="none" stroke="#000000" points="43,-1075.5 43,-1105.5 355,-1105.5 355,-1075.5 43,-1075.5"/>
<text text-anchor="start" x="50" y="-1086.9" font-family="Arial" font-size="14.00" fill="#000000">record    </text>
<text text-anchor="start" x="123.8738" y="-1086.9" font-family="Arial" font-size="14.00" fill="#666666">[bigint]</text>
<polygon fill="none" stroke="#000000" points="43,-1045.5 43,-1075.5 355,-1075.5 355,-1045.5 43,-1045.5"/>
<text text-anchor="start" x="50" y="-1056.9" font-family="Arial" font-size="14.00" fill="#000000">definition    </text>
<text text-anchor="start" x="140.2188" y="-1056.9" font-family="Arial" font-size="14.00" fill="#666666">[bigint]</text>
<polygon fill="none" stroke="#000000" points="43,-1015.5 43,-1045.5 355,-1045.5 355,-1015.5 43,-1015.5"/>
<text text-anchor="start" x="50" y="-1026.9" font-family="Arial" font-size="14.00" fill="#000000">import_error    </text>
<text text-anchor="start" x="160.418" y="-1026.9" font-family="Arial" font-size="14.00" fill="#666666">[text]</text>
<polygon fill="none" stroke="#000000" points="43,-985.5 43,-1015.5 355,-1015.5 355,-985.5 43,-985.5"/>
<text text-anchor="start" x="50" y="-996.9" font-family="Arial" font-size="14.00" fill="#000000">error_detail    </text>
<text text-anchor="start" x="154.986" y="-996.9" font-family="Arial" font-size="14.00" fill="#666666">[text]</text>
<polygon fill="none" stroke="#000000" points="43,-955.5 43,-985.5 355,-985.5 355,-955.5 43,-955.5"/>
<text text-anchor="start" x="50" y="-966.9" font-family="Arial" font-size="14.00" fill="#000000">imported_as    </text>
<text text-anchor="start" x="161.2188" y="-966.9" font-family="Arial" font-size="14.00" fill="#666666">[bigint]</text>
<polygon fill="none" stroke="#000000" points="43,-925.5 43,-955.5 355,-955.5 355,-925.5 43,-925.5"/>
<text text-anchor="start" x="50" y="-936.9" font-family="Arial" font-size="14.00" fill="#000000">import_time    </text>
<text text-anchor="start" x="157.3114" y="-936.9" font-family="Arial" font-size="14.00" fill="#666666">[timestamp with time zone]</text>
<polygon fill="none" stroke="#000000" points="43,-895.5 43,-925.5 355,-925.5 355,-895.5 43,-895.5"/>
<text text-anchor="start" x="50" y="-906.9" font-family="Arial" font-size="14.00" fill="#000000">owning_lib    </text>
<text text-anchor="start" x="150.3268" y="-906.9" font-family="Arial" font-size="14.00" fill="#666666">[integer]</text>
<polygon fill="none" stroke="#000000" points="43,-865.5 43,-895.5 355,-895.5 355,-865.5 43,-865.5"/>
<text text-anchor="start" x="50" y="-876.9" font-family="Arial" font-size="14.00" fill="#000000">circ_lib    </text>
<text text-anchor="start" x="127.7504" y="-876.9" font-family="Arial" font-size="14.00" fill="#666666">[integer]</text>
<polygon fill="none" stroke="#000000" points="43,-835.5 43,-865.5 355,-865.5 355,-835.5 43,-835.5"/>
<text text-anchor="start" x="50" y="-846.9" font-family="Arial" font-size="14.00" fill="#000000">call_number    </text>
<text text-anchor="start" x="160.4348" y="-846.9" font-family="Arial" font-size="14.00" fill="#666666">[text]</text>
<polygon fill="none" stroke="#000000" points="43,-805.5 43,-835.5 355,-835.5 355,-805.5 43,-805.5"/>
<text text-anchor="start" x="50" y="-816.9" font-family="Arial" font-size="14.00" fill="#000000">copy_number    </text>
<text text-anchor="start" x="169.0042" y="-816.9" font-family="Arial" font-size="14.00" fill="#666666">[integer]</text>
<polygon fill="none" stroke="#000000" points="43,-775.5 43,-805.5 355,-805.5 355,-775.5 43,-775.5"/>
<text text-anchor="start" x="50" y="-786.9" font-family="Arial" font-size="14.00" fill="#000000">status    </text>
<text text-anchor="start" x="121.5512" y="-786.9" font-family="Arial" font-size="14.00" fill="#666666">[integer]</text>
<polygon fill="none" stroke="#000000" points="43,-745.5 43,-775.5 355,-775.5 355,-745.5 43,-745.5"/>
<text text-anchor="start" x="50" y="-756.9" font-family="Arial" font-size="14.00" fill="#000000">location    </text>
<text text-anchor="start" x="132.439" y="-756.9" font-family="Arial" font-size="14.00" fill="#666666">[integer]</text>
<polygon fill="none" stroke="#000000" points="43,-715.5 43,-745.5 355,-745.5 355,-715.5 43,-715.5"/>
<text text-anchor="start" x="50" y="-726.9" font-family="Arial" font-size="14.00" fill="#000000">circulate    </text>
<text text-anchor="start" x="136.317" y="-726.9" font-family="Arial" font-size="14.00" fill="#666666">[boolean]</text>
<polygon fill="none" stroke="#000000" points="43,-685.5 43,-715.5 355,-715.5 355,-685.5 43,-685.5"/>
<text text-anchor="start" x="50" y="-696.9" font-family="Arial" font-size="14.00" fill="#000000">deposit    </text>
<text text-anchor="start" x="129.3324" y="-696.9" font-family="Arial" font-size="14.00" fill="#666666">[boolean]</text>
<polygon fill="none" stroke="#000000" points="43,-655.5 43,-685.5 355,-685.5 355,-655.5 43,-655.5"/>
<text text-anchor="start" x="50" y="-666.9" font-family="Arial" font-size="14.00" fill="#000000">deposit_amount    </text>
<text text-anchor="start" x="183.7966" y="-666.9" font-family="Arial" font-size="14.00" fill="#666666">[numeric(8,2)]</text>
<polygon fill="none" stroke="#000000" points="43,-625.5 43,-655.5 355,-655.5 355,-625.5 43,-625.5"/>
<text text-anchor="start" x="50" y="-636.9" font-family="Arial" font-size="14.00" fill="#000000">ref    </text>
<text text-anchor="start" x="100.5386" y="-636.9" font-family="Arial" font-size="14.00" fill="#666666">[boolean]</text>
<polygon fill="none" stroke="#000000" points="43,-595.5 43,-625.5 355,-625.5 355,-595.5 43,-595.5"/>
<text text-anchor="start" x="50" y="-606.9" font-family="Arial" font-size="14.00" fill="#000000">holdable    </text>
<text text-anchor="start" x="137.1136" y="-606.9" font-family="Arial" font-size="14.00" fill="#666666">[boolean]</text>
<polygon fill="none" stroke="#000000" points="43,-565.5 43,-595.5 355,-595.5 355,-565.5 43,-565.5"/>
<text text-anchor="start" x="50" y="-576.9" font-family="Arial" font-size="14.00" fill="#000000">price    </text>
<text text-anchor="start" x="114.5372" y="-576.9" font-family="Arial" font-size="14.00" fill="#666666">[numeric(8,2)]</text>
<polygon fill="none" stroke="#000000" points="43,-535.5 43,-565.5 355,-565.5 355,-535.5 43,-535.5"/>
<text text-anchor="start" x="50" y="-546.9" font-family="Arial" font-size="14.00" fill="#000000">barcode    </text>
<text text-anchor="start" x="134.7784" y="-546.9" font-family="Arial" font-size="14.00" fill="#666666">[text]</text>
<polygon fill="none" stroke="#000000" points="43,-505.5 43,-535.5 355,-535.5 355,-505.5 43,-505.5"/>
<text text-anchor="start" x="50" y="-516.9" font-family="Arial" font-size="14.00" fill="#000000">circ_modifier    </text>
<text text-anchor="start" x="163.5274" y="-516.9" font-family="Arial" font-size="14.00" fill="#666666">[text]</text>
<polygon fill="none" stroke="#000000" points="43,-475.5 43,-505.5 355,-505.5 355,-475.5 43,-475.5"/>
<text text-anchor="start" x="50" y="-486.9" font-family="Arial" font-size="14.00" fill="#000000">circ_as_type    </text>
<text text-anchor="start" x="162.7756" y="-486.9" font-family="Arial" font-size="14.00" fill="#666666">[text]</text>
<polygon fill="none" stroke="#000000" points="43,-445.5 43,-475.5 355,-475.5 355,-445.5 43,-445.5"/>
<text text-anchor="start" x="50" y="-456.9" font-family="Arial" font-size="14.00" fill="#000000">alert_message    </text>
<text text-anchor="start" x="176.0014" y="-456.9" font-family="Arial" font-size="14.00" fill="#666666">[text]</text>
<polygon fill="none" stroke="#000000" points="43,-415.5 43,-445.5 355,-445.5 355,-415.5 43,-415.5"/>
<text text-anchor="start" x="50" y="-426.9" font-family="Arial" font-size="14.00" fill="#000000">pub_note    </text>
<text text-anchor="start" x="142.5736" y="-426.9" font-family="Arial" font-size="14.00" fill="#666666">[text]</text>
<polygon fill="none" stroke="#000000" points="43,-385.5 43,-415.5 355,-415.5 355,-385.5 43,-385.5"/>
<text text-anchor="start" x="50" y="-396.9" font-family="Arial" font-size="14.00" fill="#000000">priv_note    </text>
<text text-anchor="start" x="141.7756" y="-396.9" font-family="Arial" font-size="14.00" fill="#666666">[text]</text>
<polygon fill="none" stroke="#000000" points="43,-355.5 43,-385.5 355,-385.5 355,-355.5 43,-355.5"/>
<text text-anchor="start" x="50" y="-366.9" font-family="Arial" font-size="14.00" fill="#000000">stat_cat_data    </text>
<text text-anchor="start" x="168.2454" y="-366.9" font-family="Arial" font-size="14.00" fill="#666666">[text]</text>
<polygon fill="none" stroke="#000000" points="43,-325.5 43,-355.5 355,-355.5 355,-325.5 43,-325.5"/>
<text text-anchor="start" x="50" y="-336.9" font-family="Arial" font-size="14.00" fill="#000000">parts_data    </text>
<text text-anchor="start" x="150.3422" y="-336.9" font-family="Arial" font-size="14.00" fill="#666666">[text]</text>
<polygon fill="none" stroke="#000000" points="43,-295.5 43,-325.5 355,-325.5 355,-295.5 43,-295.5"/>
<text text-anchor="start" x="50" y="-306.9" font-family="Arial" font-size="14.00" fill="#000000">opac_visible    </text>
<text text-anchor="start" x="161.2202" y="-306.9" font-family="Arial" font-size="14.00" fill="#666666">[boolean]</text>
<polygon fill="none" stroke="#000000" points="43,-265.5 43,-295.5 355,-295.5 355,-265.5 43,-265.5"/>
<text text-anchor="start" x="50" y="-276.9" font-family="Arial" font-size="14.00" fill="#000000">internal_id    </text>
<text text-anchor="start" x="148.7714" y="-276.9" font-family="Arial" font-size="14.00" fill="#666666">[bigint]</text>
</g>
<!-- vandelay.import_item&#45;&gt;vandelay.import_error -->
<g id="edge1" class="edge">
<title>vandelay.import_item:import_error&#45;&gt;vandelay.import_error:code</title>
<path fill="none" stroke="#000000" d="M364.8206,-1027.2696C439.6105,-974.9572 376.3592,-303.7801 407,-223 433.4533,-153.2596 435.4111,-90.5 510,-90.5"/>
<polygon fill="#000000" stroke="#000000" points="364.4993,-1027.3752 353.5939,-1026.2253 359.7496,-1028.9376 355,-1030.5 355,-1030.5 355,-1030.5 359.7496,-1028.9376 356.4061,-1034.7747 364.4993,-1027.3752 364.4993,-1027.3752"/>
<text text-anchor="start" x="361.9895" y="-1040.5" font-family="Arial" font-size="10.00" fill="#000000">FOREIGN KEY (import_error) REFERENCES vandelay.import_error(code) ON UPDATE CASCADE ON DELETE SET NULL DEFERRABLE INITIALLY DEFERRED</text>
</g>
<!-- vandelay.queued_authority_record -->
<g id="node3" class="node">
<title>vandelay.queued_authority_record</title>
<polygon fill="#efefef" stroke="transparent" points="459,-850.5 459,-885.5 877,-885.5 877,-850.5 459,-850.5"/>
<polygon fill="none" stroke="#000000" points="459,-850.5 459,-885.5 877,-885.5 877,-850.5 459,-850.5"/>
<text text-anchor="start" x="465.6682" y="-863.3" font-family="Arial Bold" font-size="18.00" fill="#000000">vandelay.queued_authority_record</text>
<text text-anchor="start" x="742.7638" y="-863.3" font-family="Arial" font-size="14.00" fill="#000000">    </text>
<text text-anchor="start" x="776.9686" y="-863.3" font-family="Arial" font-size="14.00" fill="#666666">[BASE TABLE]</text>
<polygon fill="none" stroke="#000000" points="459,-820.5 459,-850.5 877,-850.5 877,-820.5 459,-820.5"/>
<text text-anchor="start" x="466" y="-831.9" font-family="Arial" font-size="14.00" fill="#000000">id    </text>
<text text-anchor="start" x="511.094" y="-831.9" font-family="Arial" font-size="14.00" fill="#666666">[bigint]</text>
<polygon fill="none" stroke="#000000" points="459,-790.5 459,-820.5 877,-820.5 877,-790.5 459,-790.5"/>
<text text-anchor="start" x="466" y="-801.9" font-family="Arial" font-size="14.00" fill="#000000">create_time    </text>
<text text-anchor="start" x="573.3268" y="-801.9" font-family="Arial" font-size="14.00" fill="#666666">[timestamp with time zone]</text>
<polygon fill="none" stroke="#000000" points="459,-760.5 459,-790.5 877,-790.5 877,-760.5 459,-760.5"/>
<text text-anchor="start" x="466" y="-771.9" font-family="Arial" font-size="14.00" fill="#000000">import_time    </text>
<text text-anchor="start" x="573.3114" y="-771.9" font-family="Arial" font-size="14.00" fill="#666666">[timestamp with time zone]</text>
<polygon fill="none" stroke="#000000" points="459,-730.5 459,-760.5 877,-760.5 877,-730.5 459,-730.5"/>
<text text-anchor="start" x="466" y="-741.9" font-family="Arial" font-size="14.00" fill="#000000">purpose    </text>
<text text-anchor="start" x="550.7784" y="-741.9" font-family="Arial" font-size="14.00" fill="#666666">[text]</text>
<polygon fill="none" stroke="#000000" points="459,-700.5 459,-730.5 877,-730.5 877,-700.5 459,-700.5"/>
<text text-anchor="start" x="466" y="-711.9" font-family="Arial" font-size="14.00" fill="#000000">marc    </text>
<text text-anchor="start" x="531.3086" y="-711.9" font-family="Arial" font-size="14.00" fill="#666666">[text]</text>
<polygon fill="none" stroke="#000000" points="459,-670.5 459,-700.5 877,-700.5 877,-670.5 459,-670.5"/>
<text text-anchor="start" x="466" y="-681.9" font-family="Arial" font-size="14.00" fill="#000000">quality    </text>
<text text-anchor="start" x="540.6564" y="-681.9" font-family="Arial" font-size="14.00" fill="#666666">[integer]</text>
<polygon fill="none" stroke="#000000" points="459,-640.5 459,-670.5 877,-670.5 877,-640.5 459,-640.5"/>
<text text-anchor="start" x="466" y="-651.9" font-family="Arial" font-size="14.00" fill="#000000">queue    </text>
<text text-anchor="start" x="539.1178" y="-651.9" font-family="Arial" font-size="14.00" fill="#666666">[integer]</text>
<polygon fill="none" stroke="#000000" points="459,-610.5 459,-640.5 877,-640.5 877,-610.5 459,-610.5"/>
<text text-anchor="start" x="466" y="-621.9" font-family="Arial" font-size="14.00" fill="#000000">imported_as    </text>
<text text-anchor="start" x="577.2188" y="-621.9" font-family="Arial" font-size="14.00" fill="#666666">[integer]</text>
<polygon fill="none" stroke="#000000" points="459,-580.5 459,-610.5 877,-610.5 877,-580.5 459,-580.5"/>
<text text-anchor="start" x="466" y="-591.9" font-family="Arial" font-size="14.00" fill="#000000">import_error    </text>
<text text-anchor="start" x="576.418" y="-591.9" font-family="Arial" font-size="14.00" fill="#666666">[text]</text>
<polygon fill="none" stroke="#000000" points="459,-550.5 459,-580.5 877,-580.5 877,-550.5 459,-550.5"/>
<text text-anchor="start" x="466" y="-561.9" font-family="Arial" font-size="14.00" fill="#000000">error_detail    </text>
<text text-anchor="start" x="570.986" y="-561.9" font-family="Arial" font-size="14.00" fill="#666666">[text]</text>
</g>
<!-- vandelay.queued_authority_record&#45;&gt;vandelay.import_error -->
<g id="edge2" class="edge">
<title>vandelay.queued_authority_record:import_error&#45;&gt;vandelay.import_error:code</title>
<path fill="none" stroke="#000000" d="M885.8278,-590.5018C927.4014,-538.0541 879.092,-90.5 826,-90.5"/>
<polygon fill="#000000" stroke="#000000" points="885.702,-590.573 874.7829,-591.5841 881.351,-593.0365 877,-595.5 877,-595.5 877,-595.5 881.351,-593.0365 879.2171,-599.4159 885.702,-590.573 885.702,-590.573"/>
<text text-anchor="start" x="883.9895" y="-605.5" font-family="Arial" font-size="10.00" fill="#000000">FOREIGN KEY (import_error) REFERENCES vandelay.import_error(code) ON UPDATE CASCADE ON DELETE SET NULL DEFERRABLE INITIALLY DEFERRED</text>
</g>
<!-- vandelay.queued_bib_record -->
<g id="node4" class="node">
<title>vandelay.queued_bib_record</title>
<polygon fill="#efefef" stroke="transparent" points="982,-865.5 982,-900.5 1355,-900.5 1355,-865.5 982,-865.5"/>
<polygon fill="none" stroke="#000000" points="982,-865.5 982,-900.5 1355,-900.5 1355,-865.5 982,-865.5"/>
<text text-anchor="start" x="988.6727" y="-878.3" font-family="Arial Bold" font-size="18.00" fill="#000000">vandelay.queued_bib_record</text>
<text text-anchor="start" x="1220.7593" y="-878.3" font-family="Arial" font-size="14.00" fill="#000000">    </text>
<text text-anchor="start" x="1254.9641" y="-878.3" font-family="Arial" font-size="14.00" fill="#666666">[BASE TABLE]</text>
<polygon fill="none" stroke="#000000" points="982,-835.5 982,-865.5 1355,-865.5 1355,-835.5 982,-835.5"/>
<text text-anchor="start" x="989" y="-846.9" font-family="Arial" font-size="14.00" fill="#000000">id    </text>
<text text-anchor="start" x="1034.094" y="-846.9" font-family="Arial" font-size="14.00" fill="#666666">[bigint]</text>
<polygon fill="none" stroke="#000000" points="982,-805.5 982,-835.5 1355,-835.5 1355,-805.5 982,-805.5"/>
<text text-anchor="start" x="989" y="-816.9" font-family="Arial" font-size="14.00" fill="#000000">create_time    </text>
<text text-anchor="start" x="1096.3268" y="-816.9" font-family="Arial" font-size="14.00" fill="#666666">[timestamp with time zone]</text>
<polygon fill="none" stroke="#000000" points="982,-775.5 982,-805.5 1355,-805.5 1355,-775.5 982,-775.5"/>
<text text-anchor="start" x="989" y="-786.9" font-family="Arial" font-size="14.00" fill="#000000">import_time    </text>
<text text-anchor="start" x="1096.3114" y="-786.9" font-family="Arial" font-size="14.00" fill="#666666">[timestamp with time zone]</text>
<polygon fill="none" stroke="#000000" points="982,-745.5 982,-775.5 1355,-775.5 1355,-745.5 982,-745.5"/>
<text text-anchor="start" x="989" y="-756.9" font-family="Arial" font-size="14.00" fill="#000000">purpose    </text>
<text text-anchor="start" x="1073.7784" y="-756.9" font-family="Arial" font-size="14.00" fill="#666666">[text]</text>
<polygon fill="none" stroke="#000000" points="982,-715.5 982,-745.5 1355,-745.5 1355,-715.5 982,-715.5"/>
<text text-anchor="start" x="989" y="-726.9" font-family="Arial" font-size="14.00" fill="#000000">marc    </text>
<text text-anchor="start" x="1054.3086" y="-726.9" font-family="Arial" font-size="14.00" fill="#666666">[text]</text>
<polygon fill="none" stroke="#000000" points="982,-685.5 982,-715.5 1355,-715.5 1355,-685.5 982,-685.5"/>
<text text-anchor="start" x="989" y="-696.9" font-family="Arial" font-size="14.00" fill="#000000">quality    </text>
<text text-anchor="start" x="1063.6564" y="-696.9" font-family="Arial" font-size="14.00" fill="#666666">[integer]</text>
<polygon fill="none" stroke="#000000" points="982,-655.5 982,-685.5 1355,-685.5 1355,-655.5 982,-655.5"/>
<text text-anchor="start" x="989" y="-666.9" font-family="Arial" font-size="14.00" fill="#000000">queue    </text>
<text text-anchor="start" x="1062.1178" y="-666.9" font-family="Arial" font-size="14.00" fill="#666666">[integer]</text>
<polygon fill="none" stroke="#000000" points="982,-625.5 982,-655.5 1355,-655.5 1355,-625.5 982,-625.5"/>
<text text-anchor="start" x="989" y="-636.9" font-family="Arial" font-size="14.00" fill="#000000">bib_source    </text>
<text text-anchor="start" x="1091.6676" y="-636.9" font-family="Arial" font-size="14.00" fill="#666666">[integer]</text>
<polygon fill="none" stroke="#000000" points="982,-595.5 982,-625.5 1355,-625.5 1355,-595.5 982,-595.5"/>
<text text-anchor="start" x="989" y="-606.9" font-family="Arial" font-size="14.00" fill="#000000">imported_as    </text>
<text text-anchor="start" x="1100.2188" y="-606.9" font-family="Arial" font-size="14.00" fill="#666666">[bigint]</text>
<polygon fill="none" stroke="#000000" points="982,-565.5 982,-595.5 1355,-595.5 1355,-565.5 982,-565.5"/>
<text text-anchor="start" x="989" y="-576.9" font-family="Arial" font-size="14.00" fill="#000000">import_error    </text>
<text text-anchor="start" x="1099.418" y="-576.9" font-family="Arial" font-size="14.00" fill="#666666">[text]</text>
<polygon fill="none" stroke="#000000" points="982,-535.5 982,-565.5 1355,-565.5 1355,-535.5 982,-535.5"/>
<text text-anchor="start" x="989" y="-546.9" font-family="Arial" font-size="14.00" fill="#000000">error_detail    </text>
<text text-anchor="start" x="1093.986" y="-546.9" font-family="Arial" font-size="14.00" fill="#666666">[text]</text>
</g>
<!-- vandelay.queued_bib_record&#45;&gt;vandelay.import_error -->
<g id="edge3" class="edge">
<title>vandelay.queued_bib_record:import_error&#45;&gt;vandelay.import_error:code</title>
<path fill="none" stroke="#000000" d="M971.9985,-578.8275C906.7949,-555.439 959.1513,-293.5305 929,-223 899.6805,-154.4152 900.5889,-90.5 826,-90.5"/>
<polygon fill="#000000" stroke="#000000" points="972.1369,-578.8506 981.2578,-584.9384 977.0685,-579.6753 982,-580.5 982,-580.5 982,-580.5 977.0685,-579.6753 982.7422,-576.0616 972.1369,-578.8506 972.1369,-578.8506"/>
<text text-anchor="start" x="988.9895" y="-564.5" font-family="Arial" font-size="10.00" fill="#000000">FOREIGN KEY (import_error) REFERENCES vandelay.import_error(code) ON UPDATE CASCADE ON DELETE SET NULL DEFERRABLE INITIALLY DEFERRED</text>
</g>
</g>
</svg>
