<?xml version="1.0" encoding="UTF-8" standalone="no"?>
<!DOCTYPE svg PUBLIC "-//W3C//DTD SVG 1.1//EN"
 "http://www.w3.org/Graphics/SVG/1.1/DTD/svg11.dtd">
<!-- Generated by graphviz version 2.40.1 (20161225.0304)
 -->
<!-- Title: vandelay.import_item Pages: 1 -->
<svg width="1688pt" height="2032pt"
 viewBox="0.00 0.00 1688.00 2032.00" xmlns="http://www.w3.org/2000/svg" xmlns:xlink="http://www.w3.org/1999/xlink">
<g id="graph0" class="graph" transform="scale(1 1) rotate(0) translate(4 2028)">
<title>vandelay.import_item</title>
<polygon fill="#ffffff" stroke="transparent" points="-4,4 -4,-2028 1684,-2028 1684,4 -4,4"/>
<!-- vandelay.import_item -->
<g id="node1" class="node">
<title>vandelay.import_item</title>
<polygon fill="#efefef" stroke="transparent" points="624,-1942.5 624,-1977.5 936,-1977.5 936,-1942.5 624,-1942.5"/>
<polygon fill="none" stroke="#000000" points="624,-1942.5 624,-1977.5 936,-1977.5 936,-1942.5 624,-1942.5"/>
<text text-anchor="start" x="630.7052" y="-1955.3" font-family="Arial Bold" font-size="18.00" fill="#000000">vandelay.import_item</text>
<text text-anchor="start" x="801.7268" y="-1955.3" font-family="Arial" font-size="14.00" fill="#000000">    </text>
<text text-anchor="start" x="835.9316" y="-1955.3" font-family="Arial" font-size="14.00" fill="#666666">[BASE TABLE]</text>
<polygon fill="none" stroke="#000000" points="624,-1912.5 624,-1942.5 936,-1942.5 936,-1912.5 624,-1912.5"/>
<text text-anchor="start" x="631" y="-1923.9" font-family="Arial" font-size="14.00" fill="#000000">id </text>
<text text-anchor="start" x="645.7798" y="-1923.9" font-family="Arial" font-size="14.00" fill="#666666">[bigint]</text>
<polygon fill="none" stroke="#000000" points="624,-1882.5 624,-1912.5 936,-1912.5 936,-1882.5 624,-1882.5"/>
<text text-anchor="start" x="631" y="-1893.9" font-family="Arial" font-size="14.00" fill="#000000">record </text>
<text text-anchor="start" x="674.5596" y="-1893.9" font-family="Arial" font-size="14.00" fill="#666666">[bigint]</text>
<polygon fill="none" stroke="#000000" points="624,-1852.5 624,-1882.5 936,-1882.5 936,-1852.5 624,-1852.5"/>
<text text-anchor="start" x="631" y="-1863.9" font-family="Arial" font-size="14.00" fill="#000000">definition </text>
<text text-anchor="start" x="690.9046" y="-1863.9" font-family="Arial" font-size="14.00" fill="#666666">[bigint]</text>
<polygon fill="none" stroke="#000000" points="624,-1822.5 624,-1852.5 936,-1852.5 936,-1822.5 624,-1822.5"/>
<text text-anchor="start" x="631" y="-1833.9" font-family="Arial" font-size="14.00" fill="#000000">import_error </text>
<text text-anchor="start" x="711.1038" y="-1833.9" font-family="Arial" font-size="14.00" fill="#666666">[text]</text>
<polygon fill="none" stroke="#000000" points="624,-1792.5 624,-1822.5 936,-1822.5 936,-1792.5 624,-1792.5"/>
<text text-anchor="start" x="631" y="-1803.9" font-family="Arial" font-size="14.00" fill="#000000">error_detail </text>
<text text-anchor="start" x="705.6718" y="-1803.9" font-family="Arial" font-size="14.00" fill="#666666">[text]</text>
<polygon fill="none" stroke="#000000" points="624,-1762.5 624,-1792.5 936,-1792.5 936,-1762.5 624,-1762.5"/>
<text text-anchor="start" x="631" y="-1773.9" font-family="Arial" font-size="14.00" fill="#000000">imported_as </text>
<text text-anchor="start" x="711.9046" y="-1773.9" font-family="Arial" font-size="14.00" fill="#666666">[bigint]</text>
<polygon fill="none" stroke="#000000" points="624,-1732.5 624,-1762.5 936,-1762.5 936,-1732.5 624,-1732.5"/>
<text text-anchor="start" x="631" y="-1743.9" font-family="Arial" font-size="14.00" fill="#000000">import_time </text>
<text text-anchor="start" x="707.9972" y="-1743.9" font-family="Arial" font-size="14.00" fill="#666666">[timestamp with time zone]</text>
<polygon fill="none" stroke="#000000" points="624,-1702.5 624,-1732.5 936,-1732.5 936,-1702.5 624,-1702.5"/>
<text text-anchor="start" x="631" y="-1713.9" font-family="Arial" font-size="14.00" fill="#000000">owning_lib </text>
<text text-anchor="start" x="701.0126" y="-1713.9" font-family="Arial" font-size="14.00" fill="#666666">[integer]</text>
<polygon fill="none" stroke="#000000" points="624,-1672.5 624,-1702.5 936,-1702.5 936,-1672.5 624,-1672.5"/>
<text text-anchor="start" x="631" y="-1683.9" font-family="Arial" font-size="14.00" fill="#000000">circ_lib </text>
<text text-anchor="start" x="678.4362" y="-1683.9" font-family="Arial" font-size="14.00" fill="#666666">[integer]</text>
<polygon fill="none" stroke="#000000" points="624,-1642.5 624,-1672.5 936,-1672.5 936,-1642.5 624,-1642.5"/>
<text text-anchor="start" x="631" y="-1653.9" font-family="Arial" font-size="14.00" fill="#000000">call_number </text>
<text text-anchor="start" x="711.1206" y="-1653.9" font-family="Arial" font-size="14.00" fill="#666666">[text]</text>
<polygon fill="none" stroke="#000000" points="624,-1612.5 624,-1642.5 936,-1642.5 936,-1612.5 624,-1612.5"/>
<text text-anchor="start" x="631" y="-1623.9" font-family="Arial" font-size="14.00" fill="#000000">copy_number </text>
<text text-anchor="start" x="719.69" y="-1623.9" font-family="Arial" font-size="14.00" fill="#666666">[integer]</text>
<polygon fill="none" stroke="#000000" points="624,-1582.5 624,-1612.5 936,-1612.5 936,-1582.5 624,-1582.5"/>
<text text-anchor="start" x="631" y="-1593.9" font-family="Arial" font-size="14.00" fill="#000000">status </text>
<text text-anchor="start" x="672.237" y="-1593.9" font-family="Arial" font-size="14.00" fill="#666666">[integer]</text>
<polygon fill="none" stroke="#000000" points="624,-1552.5 624,-1582.5 936,-1582.5 936,-1552.5 624,-1552.5"/>
<text text-anchor="start" x="631" y="-1563.9" font-family="Arial" font-size="14.00" fill="#000000">location </text>
<text text-anchor="start" x="683.1248" y="-1563.9" font-family="Arial" font-size="14.00" fill="#666666">[integer]</text>
<polygon fill="none" stroke="#000000" points="624,-1522.5 624,-1552.5 936,-1552.5 936,-1522.5 624,-1522.5"/>
<text text-anchor="start" x="631" y="-1533.9" font-family="Arial" font-size="14.00" fill="#000000">circulate </text>
<text text-anchor="start" x="687.0028" y="-1533.9" font-family="Arial" font-size="14.00" fill="#666666">[boolean]</text>
<polygon fill="none" stroke="#000000" points="624,-1492.5 624,-1522.5 936,-1522.5 936,-1492.5 624,-1492.5"/>
<text text-anchor="start" x="631" y="-1503.9" font-family="Arial" font-size="14.00" fill="#000000">deposit </text>
<text text-anchor="start" x="680.0182" y="-1503.9" font-family="Arial" font-size="14.00" fill="#666666">[boolean]</text>
<polygon fill="none" stroke="#000000" points="624,-1462.5 624,-1492.5 936,-1492.5 936,-1462.5 624,-1462.5"/>
<text text-anchor="start" x="631" y="-1473.9" font-family="Arial" font-size="14.00" fill="#000000">deposit_amount </text>
<text text-anchor="start" x="734.4824" y="-1473.9" font-family="Arial" font-size="14.00" fill="#666666">[numeric(8,2)]</text>
<polygon fill="none" stroke="#000000" points="624,-1432.5 624,-1462.5 936,-1462.5 936,-1432.5 624,-1432.5"/>
<text text-anchor="start" x="631" y="-1443.9" font-family="Arial" font-size="14.00" fill="#000000">ref </text>
<text text-anchor="start" x="651.2244" y="-1443.9" font-family="Arial" font-size="14.00" fill="#666666">[boolean]</text>
<polygon fill="none" stroke="#000000" points="624,-1402.5 624,-1432.5 936,-1432.5 936,-1402.5 624,-1402.5"/>
<text text-anchor="start" x="631" y="-1413.9" font-family="Arial" font-size="14.00" fill="#000000">holdable </text>
<text text-anchor="start" x="687.7994" y="-1413.9" font-family="Arial" font-size="14.00" fill="#666666">[boolean]</text>
<polygon fill="none" stroke="#000000" points="624,-1372.5 624,-1402.5 936,-1402.5 936,-1372.5 624,-1372.5"/>
<text text-anchor="start" x="631" y="-1383.9" font-family="Arial" font-size="14.00" fill="#000000">price </text>
<text text-anchor="start" x="665.223" y="-1383.9" font-family="Arial" font-size="14.00" fill="#666666">[numeric(8,2)]</text>
<polygon fill="none" stroke="#000000" points="624,-1342.5 624,-1372.5 936,-1372.5 936,-1342.5 624,-1342.5"/>
<text text-anchor="start" x="631" y="-1353.9" font-family="Arial" font-size="14.00" fill="#000000">barcode </text>
<text text-anchor="start" x="685.4642" y="-1353.9" font-family="Arial" font-size="14.00" fill="#666666">[text]</text>
<polygon fill="none" stroke="#000000" points="624,-1312.5 624,-1342.5 936,-1342.5 936,-1312.5 624,-1312.5"/>
<text text-anchor="start" x="631" y="-1323.9" font-family="Arial" font-size="14.00" fill="#000000">circ_modifier </text>
<text text-anchor="start" x="714.2132" y="-1323.9" font-family="Arial" font-size="14.00" fill="#666666">[text]</text>
<polygon fill="none" stroke="#000000" points="624,-1282.5 624,-1312.5 936,-1312.5 936,-1282.5 624,-1282.5"/>
<text text-anchor="start" x="631" y="-1293.9" font-family="Arial" font-size="14.00" fill="#000000">circ_as_type </text>
<text text-anchor="start" x="713.4614" y="-1293.9" font-family="Arial" font-size="14.00" fill="#666666">[text]</text>
<polygon fill="none" stroke="#000000" points="624,-1252.5 624,-1282.5 936,-1282.5 936,-1252.5 624,-1252.5"/>
<text text-anchor="start" x="631" y="-1263.9" font-family="Arial" font-size="14.00" fill="#000000">alert_message </text>
<text text-anchor="start" x="726.6872" y="-1263.9" font-family="Arial" font-size="14.00" fill="#666666">[text]</text>
<polygon fill="none" stroke="#000000" points="624,-1222.5 624,-1252.5 936,-1252.5 936,-1222.5 624,-1222.5"/>
<text text-anchor="start" x="631" y="-1233.9" font-family="Arial" font-size="14.00" fill="#000000">pub_note </text>
<text text-anchor="start" x="693.2594" y="-1233.9" font-family="Arial" font-size="14.00" fill="#666666">[text]</text>
<polygon fill="none" stroke="#000000" points="624,-1192.5 624,-1222.5 936,-1222.5 936,-1192.5 624,-1192.5"/>
<text text-anchor="start" x="631" y="-1203.9" font-family="Arial" font-size="14.00" fill="#000000">priv_note </text>
<text text-anchor="start" x="692.4614" y="-1203.9" font-family="Arial" font-size="14.00" fill="#666666">[text]</text>
<polygon fill="none" stroke="#000000" points="624,-1162.5 624,-1192.5 936,-1192.5 936,-1162.5 624,-1162.5"/>
<text text-anchor="start" x="631" y="-1173.9" font-family="Arial" font-size="14.00" fill="#000000">stat_cat_data </text>
<text text-anchor="start" x="718.9312" y="-1173.9" font-family="Arial" font-size="14.00" fill="#666666">[text]</text>
<polygon fill="none" stroke="#000000" points="624,-1132.5 624,-1162.5 936,-1162.5 936,-1132.5 624,-1132.5"/>
<text text-anchor="start" x="631" y="-1143.9" font-family="Arial" font-size="14.00" fill="#000000">parts_data </text>
<text text-anchor="start" x="701.028" y="-1143.9" font-family="Arial" font-size="14.00" fill="#666666">[text]</text>
<polygon fill="none" stroke="#000000" points="624,-1102.5 624,-1132.5 936,-1132.5 936,-1102.5 624,-1102.5"/>
<text text-anchor="start" x="631" y="-1113.9" font-family="Arial" font-size="14.00" fill="#000000">opac_visible </text>
<text text-anchor="start" x="711.906" y="-1113.9" font-family="Arial" font-size="14.00" fill="#666666">[boolean]</text>
<polygon fill="none" stroke="#000000" points="624,-1072.5 624,-1102.5 936,-1102.5 936,-1072.5 624,-1072.5"/>
<text text-anchor="start" x="631" y="-1083.9" font-family="Arial" font-size="14.00" fill="#000000">internal_id </text>
<text text-anchor="start" x="699.4572" y="-1083.9" font-family="Arial" font-size="14.00" fill="#666666">[bigint]</text>
<polygon fill="none" stroke="#000000" stroke-width="3" points="622.5,-1071.5 622.5,-1979.5 937.5,-1979.5 937.5,-1071.5 622.5,-1071.5"/>
</g>
<!-- vandelay.queued_bib_record -->
<g id="node2" class="node">
<title>vandelay.queued_bib_record</title>
<polygon fill="#efefef" stroke="transparent" points="88,-642.5 88,-677.5 461,-677.5 461,-642.5 88,-642.5"/>
<polygon fill="none" stroke="#000000" points="88,-642.5 88,-677.5 461,-677.5 461,-642.5 88,-642.5"/>
<text text-anchor="start" x="94.6727" y="-655.3" font-family="Arial Bold" font-size="18.00" fill="#000000">vandelay.queued_bib_record</text>
<text text-anchor="start" x="326.7593" y="-655.3" font-family="Arial" font-size="14.00" fill="#000000">    </text>
<text text-anchor="start" x="360.9641" y="-655.3" font-family="Arial" font-size="14.00" fill="#666666">[BASE TABLE]</text>
<polygon fill="none" stroke="#000000" points="88,-612.5 88,-642.5 461,-642.5 461,-612.5 88,-612.5"/>
<text text-anchor="start" x="95" y="-623.9" font-family="Arial" font-size="14.00" fill="#000000">id    </text>
<text text-anchor="start" x="140.094" y="-623.9" font-family="Arial" font-size="14.00" fill="#666666">[bigint]</text>
<polygon fill="none" stroke="#000000" points="88,-582.5 88,-612.5 461,-612.5 461,-582.5 88,-582.5"/>
<text text-anchor="start" x="95" y="-593.9" font-family="Arial" font-size="14.00" fill="#000000">create_time    </text>
<text text-anchor="start" x="202.3268" y="-593.9" font-family="Arial" font-size="14.00" fill="#666666">[timestamp with time zone]</text>
<polygon fill="none" stroke="#000000" points="88,-552.5 88,-582.5 461,-582.5 461,-552.5 88,-552.5"/>
<text text-anchor="start" x="95" y="-563.9" font-family="Arial" font-size="14.00" fill="#000000">import_time    </text>
<text text-anchor="start" x="202.3114" y="-563.9" font-family="Arial" font-size="14.00" fill="#666666">[timestamp with time zone]</text>
<polygon fill="none" stroke="#000000" points="88,-522.5 88,-552.5 461,-552.5 461,-522.5 88,-522.5"/>
<text text-anchor="start" x="95" y="-533.9" font-family="Arial" font-size="14.00" fill="#000000">purpose    </text>
<text text-anchor="start" x="179.7784" y="-533.9" font-family="Arial" font-size="14.00" fill="#666666">[text]</text>
<polygon fill="none" stroke="#000000" points="88,-492.5 88,-522.5 461,-522.5 461,-492.5 88,-492.5"/>
<text text-anchor="start" x="95" y="-503.9" font-family="Arial" font-size="14.00" fill="#000000">marc    </text>
<text text-anchor="start" x="160.3086" y="-503.9" font-family="Arial" font-size="14.00" fill="#666666">[text]</text>
<polygon fill="none" stroke="#000000" points="88,-462.5 88,-492.5 461,-492.5 461,-462.5 88,-462.5"/>
<text text-anchor="start" x="95" y="-473.9" font-family="Arial" font-size="14.00" fill="#000000">quality    </text>
<text text-anchor="start" x="169.6564" y="-473.9" font-family="Arial" font-size="14.00" fill="#666666">[integer]</text>
<polygon fill="none" stroke="#000000" points="88,-432.5 88,-462.5 461,-462.5 461,-432.5 88,-432.5"/>
<text text-anchor="start" x="95" y="-443.9" font-family="Arial" font-size="14.00" fill="#000000">queue    </text>
<text text-anchor="start" x="168.1178" y="-443.9" font-family="Arial" font-size="14.00" fill="#666666">[integer]</text>
<polygon fill="none" stroke="#000000" points="88,-402.5 88,-432.5 461,-432.5 461,-402.5 88,-402.5"/>
<text text-anchor="start" x="95" y="-413.9" font-family="Arial" font-size="14.00" fill="#000000">bib_source    </text>
<text text-anchor="start" x="197.6676" y="-413.9" font-family="Arial" font-size="14.00" fill="#666666">[integer]</text>
<polygon fill="none" stroke="#000000" points="88,-372.5 88,-402.5 461,-402.5 461,-372.5 88,-372.5"/>
<text text-anchor="start" x="95" y="-383.9" font-family="Arial" font-size="14.00" fill="#000000">imported_as    </text>
<text text-anchor="start" x="206.2188" y="-383.9" font-family="Arial" font-size="14.00" fill="#666666">[bigint]</text>
<polygon fill="none" stroke="#000000" points="88,-342.5 88,-372.5 461,-372.5 461,-342.5 88,-342.5"/>
<text text-anchor="start" x="95" y="-353.9" font-family="Arial" font-size="14.00" fill="#000000">import_error    </text>
<text text-anchor="start" x="205.418" y="-353.9" font-family="Arial" font-size="14.00" fill="#666666">[text]</text>
<polygon fill="none" stroke="#000000" points="88,-312.5 88,-342.5 461,-342.5 461,-312.5 88,-312.5"/>
<text text-anchor="start" x="95" y="-323.9" font-family="Arial" font-size="14.00" fill="#000000">error_detail    </text>
<text text-anchor="start" x="199.986" y="-323.9" font-family="Arial" font-size="14.00" fill="#666666">[text]</text>
</g>
<!-- vandelay.import_item&#45;&gt;vandelay.queued_bib_record -->
<g id="edge1" class="edge">
<title>vandelay.import_item:record&#45;&gt;vandelay.queued_bib_record:id</title>
<path fill="none" stroke="#000000" d="M620.4712,-1888.0076C593.5568,-1771.7906 477.8805,-627.5 461,-627.5"/>
<polygon fill="#000000" stroke="#000000" points="620.5154,-1888.1267 619.782,-1899.0681 622.2577,-1892.8134 624,-1897.5 624,-1897.5 624,-1897.5 622.2577,-1892.8134 628.218,-1895.9319 620.5154,-1888.1267 620.5154,-1888.1267"/>
<text text-anchor="start" x="6.973" y="-1907.5" font-family="Arial" font-size="10.00" fill="#000000">FOREIGN KEY (record) REFERENCES vandelay.queued_bib_record(id) ON DELETE CASCADE DEFERRABLE INITIALLY DEFERRED</text>
</g>
<!-- vandelay.import_item_attr_definition -->
<g id="node3" class="node">
<title>vandelay.import_item_attr_definition</title>
<polygon fill="#efefef" stroke="transparent" points="565,-912.5 565,-947.5 995,-947.5 995,-912.5 565,-912.5"/>
<polygon fill="none" stroke="#000000" points="565,-912.5 565,-947.5 995,-947.5 995,-912.5 565,-912.5"/>
<text text-anchor="start" x="571.6886" y="-925.3" font-family="Arial Bold" font-size="18.00" fill="#000000">vandelay.import_item_attr_definition</text>
<text text-anchor="start" x="860.7434" y="-925.3" font-family="Arial" font-size="14.00" fill="#000000">    </text>
<text text-anchor="start" x="894.9482" y="-925.3" font-family="Arial" font-size="14.00" fill="#666666">[BASE TABLE]</text>
<polygon fill="none" stroke="#000000" points="565,-882.5 565,-912.5 995,-912.5 995,-882.5 565,-882.5"/>
<text text-anchor="start" x="572" y="-893.9" font-family="Arial" font-size="14.00" fill="#000000">id    </text>
<text text-anchor="start" x="617.094" y="-893.9" font-family="Arial" font-size="14.00" fill="#666666">[bigint]</text>
<polygon fill="none" stroke="#000000" points="565,-852.5 565,-882.5 995,-882.5 995,-852.5 565,-852.5"/>
<text text-anchor="start" x="572" y="-863.9" font-family="Arial" font-size="14.00" fill="#000000">owner    </text>
<text text-anchor="start" x="644.3198" y="-863.9" font-family="Arial" font-size="14.00" fill="#666666">[integer]</text>
<polygon fill="none" stroke="#000000" points="565,-822.5 565,-852.5 995,-852.5 995,-822.5 565,-822.5"/>
<text text-anchor="start" x="572" y="-833.9" font-family="Arial" font-size="14.00" fill="#000000">name    </text>
<text text-anchor="start" x="641.2132" y="-833.9" font-family="Arial" font-size="14.00" fill="#666666">[text]</text>
<polygon fill="none" stroke="#000000" points="565,-792.5 565,-822.5 995,-822.5 995,-792.5 565,-792.5"/>
<text text-anchor="start" x="572" y="-803.9" font-family="Arial" font-size="14.00" fill="#000000">tag    </text>
<text text-anchor="start" x="625.6606" y="-803.9" font-family="Arial" font-size="14.00" fill="#666666">[text]</text>
<polygon fill="none" stroke="#000000" points="565,-762.5 565,-792.5 995,-792.5 995,-762.5 565,-762.5"/>
<text text-anchor="start" x="572" y="-773.9" font-family="Arial" font-size="14.00" fill="#000000">keep    </text>
<text text-anchor="start" x="636.5526" y="-773.9" font-family="Arial" font-size="14.00" fill="#666666">[boolean]</text>
<polygon fill="none" stroke="#000000" points="565,-732.5 565,-762.5 995,-762.5 995,-732.5 565,-732.5"/>
<text text-anchor="start" x="572" y="-743.9" font-family="Arial" font-size="14.00" fill="#000000">owning_lib    </text>
<text text-anchor="start" x="672.3268" y="-743.9" font-family="Arial" font-size="14.00" fill="#666666">[text]</text>
<polygon fill="none" stroke="#000000" points="565,-702.5 565,-732.5 995,-732.5 995,-702.5 565,-702.5"/>
<text text-anchor="start" x="572" y="-713.9" font-family="Arial" font-size="14.00" fill="#000000">circ_lib    </text>
<text text-anchor="start" x="649.7504" y="-713.9" font-family="Arial" font-size="14.00" fill="#666666">[text]</text>
<polygon fill="none" stroke="#000000" points="565,-672.5 565,-702.5 995,-702.5 995,-672.5 565,-672.5"/>
<text text-anchor="start" x="572" y="-683.9" font-family="Arial" font-size="14.00" fill="#000000">call_number    </text>
<text text-anchor="start" x="682.4348" y="-683.9" font-family="Arial" font-size="14.00" fill="#666666">[text]</text>
<polygon fill="none" stroke="#000000" points="565,-642.5 565,-672.5 995,-672.5 995,-642.5 565,-642.5"/>
<text text-anchor="start" x="572" y="-653.9" font-family="Arial" font-size="14.00" fill="#000000">copy_number    </text>
<text text-anchor="start" x="691.0042" y="-653.9" font-family="Arial" font-size="14.00" fill="#666666">[text]</text>
<polygon fill="none" stroke="#000000" points="565,-612.5 565,-642.5 995,-642.5 995,-612.5 565,-612.5"/>
<text text-anchor="start" x="572" y="-623.9" font-family="Arial" font-size="14.00" fill="#000000">status    </text>
<text text-anchor="start" x="643.5512" y="-623.9" font-family="Arial" font-size="14.00" fill="#666666">[text]</text>
<polygon fill="none" stroke="#000000" points="565,-582.5 565,-612.5 995,-612.5 995,-582.5 565,-582.5"/>
<text text-anchor="start" x="572" y="-593.9" font-family="Arial" font-size="14.00" fill="#000000">location    </text>
<text text-anchor="start" x="654.439" y="-593.9" font-family="Arial" font-size="14.00" fill="#666666">[text]</text>
<polygon fill="none" stroke="#000000" points="565,-552.5 565,-582.5 995,-582.5 995,-552.5 565,-552.5"/>
<text text-anchor="start" x="572" y="-563.9" font-family="Arial" font-size="14.00" fill="#000000">circulate    </text>
<text text-anchor="start" x="658.317" y="-563.9" font-family="Arial" font-size="14.00" fill="#666666">[text]</text>
<polygon fill="none" stroke="#000000" points="565,-522.5 565,-552.5 995,-552.5 995,-522.5 565,-522.5"/>
<text text-anchor="start" x="572" y="-533.9" font-family="Arial" font-size="14.00" fill="#000000">deposit    </text>
<text text-anchor="start" x="651.3324" y="-533.9" font-family="Arial" font-size="14.00" fill="#666666">[text]</text>
<polygon fill="none" stroke="#000000" points="565,-492.5 565,-522.5 995,-522.5 995,-492.5 565,-492.5"/>
<text text-anchor="start" x="572" y="-503.9" font-family="Arial" font-size="14.00" fill="#000000">deposit_amount    </text>
<text text-anchor="start" x="705.7966" y="-503.9" font-family="Arial" font-size="14.00" fill="#666666">[text]</text>
<polygon fill="none" stroke="#000000" points="565,-462.5 565,-492.5 995,-492.5 995,-462.5 565,-462.5"/>
<text text-anchor="start" x="572" y="-473.9" font-family="Arial" font-size="14.00" fill="#000000">ref    </text>
<text text-anchor="start" x="622.5386" y="-473.9" font-family="Arial" font-size="14.00" fill="#666666">[text]</text>
<polygon fill="none" stroke="#000000" points="565,-432.5 565,-462.5 995,-462.5 995,-432.5 565,-432.5"/>
<text text-anchor="start" x="572" y="-443.9" font-family="Arial" font-size="14.00" fill="#000000">holdable    </text>
<text text-anchor="start" x="659.1136" y="-443.9" font-family="Arial" font-size="14.00" fill="#666666">[text]</text>
<polygon fill="none" stroke="#000000" points="565,-402.5 565,-432.5 995,-432.5 995,-402.5 565,-402.5"/>
<text text-anchor="start" x="572" y="-413.9" font-family="Arial" font-size="14.00" fill="#000000">price    </text>
<text text-anchor="start" x="636.5372" y="-413.9" font-family="Arial" font-size="14.00" fill="#666666">[text]</text>
<polygon fill="none" stroke="#000000" points="565,-372.5 565,-402.5 995,-402.5 995,-372.5 565,-372.5"/>
<text text-anchor="start" x="572" y="-383.9" font-family="Arial" font-size="14.00" fill="#000000">barcode    </text>
<text text-anchor="start" x="656.7784" y="-383.9" font-family="Arial" font-size="14.00" fill="#666666">[text]</text>
<polygon fill="none" stroke="#000000" points="565,-342.5 565,-372.5 995,-372.5 995,-342.5 565,-342.5"/>
<text text-anchor="start" x="572" y="-353.9" font-family="Arial" font-size="14.00" fill="#000000">circ_modifier    </text>
<text text-anchor="start" x="685.5274" y="-353.9" font-family="Arial" font-size="14.00" fill="#666666">[text]</text>
<polygon fill="none" stroke="#000000" points="565,-312.5 565,-342.5 995,-342.5 995,-312.5 565,-312.5"/>
<text text-anchor="start" x="572" y="-323.9" font-family="Arial" font-size="14.00" fill="#000000">circ_as_type    </text>
<text text-anchor="start" x="684.7756" y="-323.9" font-family="Arial" font-size="14.00" fill="#666666">[text]</text>
<polygon fill="none" stroke="#000000" points="565,-282.5 565,-312.5 995,-312.5 995,-282.5 565,-282.5"/>
<text text-anchor="start" x="572" y="-293.9" font-family="Arial" font-size="14.00" fill="#000000">alert_message    </text>
<text text-anchor="start" x="698.0014" y="-293.9" font-family="Arial" font-size="14.00" fill="#666666">[text]</text>
<polygon fill="none" stroke="#000000" points="565,-252.5 565,-282.5 995,-282.5 995,-252.5 565,-252.5"/>
<text text-anchor="start" x="572" y="-263.9" font-family="Arial" font-size="14.00" fill="#000000">opac_visible    </text>
<text text-anchor="start" x="683.2202" y="-263.9" font-family="Arial" font-size="14.00" fill="#666666">[text]</text>
<polygon fill="none" stroke="#000000" points="565,-222.5 565,-252.5 995,-252.5 995,-222.5 565,-222.5"/>
<text text-anchor="start" x="572" y="-233.9" font-family="Arial" font-size="14.00" fill="#000000">pub_note_title    </text>
<text text-anchor="start" x="694.1332" y="-233.9" font-family="Arial" font-size="14.00" fill="#666666">[text]</text>
<polygon fill="none" stroke="#000000" points="565,-192.5 565,-222.5 995,-222.5 995,-192.5 565,-192.5"/>
<text text-anchor="start" x="572" y="-203.9" font-family="Arial" font-size="14.00" fill="#000000">pub_note    </text>
<text text-anchor="start" x="664.5736" y="-203.9" font-family="Arial" font-size="14.00" fill="#666666">[text]</text>
<polygon fill="none" stroke="#000000" points="565,-162.5 565,-192.5 995,-192.5 995,-162.5 565,-162.5"/>
<text text-anchor="start" x="572" y="-173.9" font-family="Arial" font-size="14.00" fill="#000000">priv_note_title    </text>
<text text-anchor="start" x="693.3352" y="-173.9" font-family="Arial" font-size="14.00" fill="#666666">[text]</text>
<polygon fill="none" stroke="#000000" points="565,-132.5 565,-162.5 995,-162.5 995,-132.5 565,-132.5"/>
<text text-anchor="start" x="572" y="-143.9" font-family="Arial" font-size="14.00" fill="#000000">priv_note    </text>
<text text-anchor="start" x="663.7756" y="-143.9" font-family="Arial" font-size="14.00" fill="#666666">[text]</text>
<polygon fill="none" stroke="#000000" points="565,-102.5 565,-132.5 995,-132.5 995,-102.5 565,-102.5"/>
<text text-anchor="start" x="572" y="-113.9" font-family="Arial" font-size="14.00" fill="#000000">internal_id    </text>
<text text-anchor="start" x="670.7714" y="-113.9" font-family="Arial" font-size="14.00" fill="#666666">[text]</text>
<polygon fill="none" stroke="#000000" points="565,-72.5 565,-102.5 995,-102.5 995,-72.5 565,-72.5"/>
<text text-anchor="start" x="572" y="-83.9" font-family="Arial" font-size="14.00" fill="#000000">stat_cat_data    </text>
<text text-anchor="start" x="690.2454" y="-83.9" font-family="Arial" font-size="14.00" fill="#666666">[text]</text>
<polygon fill="none" stroke="#000000" points="565,-42.5 565,-72.5 995,-72.5 995,-42.5 565,-42.5"/>
<text text-anchor="start" x="572" y="-53.9" font-family="Arial" font-size="14.00" fill="#000000">parts_data    </text>
<text text-anchor="start" x="672.3422" y="-53.9" font-family="Arial" font-size="14.00" fill="#666666">[text]</text>
</g>
<!-- vandelay.import_item&#45;&gt;vandelay.import_item_attr_definition -->
<g id="edge2" class="edge">
<title>vandelay.import_item:definition&#45;&gt;vandelay.import_item_attr_definition:id</title>
<path fill="none" stroke="#000000" d="M945.6686,-1864.8869C1047.3962,-1809.6585 1099.7081,-897.5 995,-897.5"/>
<polygon fill="#000000" stroke="#000000" points="945.6536,-1864.8908 934.8259,-1863.1559 940.8268,-1866.1954 936,-1867.5 936,-1867.5 936,-1867.5 940.8268,-1866.1954 937.1741,-1871.8441 945.6536,-1864.8908 945.6536,-1864.8908"/>
<text text-anchor="start" x="943.311" y="-1877.5" font-family="Arial" font-size="10.00" fill="#000000">FOREIGN KEY (definition) REFERENCES vandelay.import_item_attr_definition(id) ON DELETE CASCADE DEFERRABLE INITIALLY DEFERRED</text>
</g>
<!-- vandelay.import_error -->
<g id="node4" class="node">
<title>vandelay.import_error</title>
<polygon fill="#efefef" stroke="transparent" points="1099,-507.5 1099,-542.5 1415,-542.5 1415,-507.5 1099,-507.5"/>
<polygon fill="none" stroke="#000000" points="1099,-507.5 1099,-542.5 1415,-542.5 1415,-507.5 1099,-507.5"/>
<text text-anchor="start" x="1105.7081" y="-520.3" font-family="Arial Bold" font-size="18.00" fill="#000000">vandelay.import_error</text>
<text text-anchor="start" x="1280.7239" y="-520.3" font-family="Arial" font-size="14.00" fill="#000000">    </text>
<text text-anchor="start" x="1314.9287" y="-520.3" font-family="Arial" font-size="14.00" fill="#666666">[BASE TABLE]</text>
<polygon fill="none" stroke="#000000" points="1099,-477.5 1099,-507.5 1415,-507.5 1415,-477.5 1099,-477.5"/>
<text text-anchor="start" x="1106" y="-488.9" font-family="Arial" font-size="14.00" fill="#000000">code    </text>
<text text-anchor="start" x="1170.5526" y="-488.9" font-family="Arial" font-size="14.00" fill="#666666">[text]</text>
<polygon fill="none" stroke="#000000" points="1099,-447.5 1099,-477.5 1415,-477.5 1415,-447.5 1099,-447.5"/>
<text text-anchor="start" x="1106" y="-458.9" font-family="Arial" font-size="14.00" fill="#000000">description    </text>
<text text-anchor="start" x="1207.8822" y="-458.9" font-family="Arial" font-size="14.00" fill="#666666">[text]</text>
</g>
<!-- vandelay.import_item&#45;&gt;vandelay.import_error -->
<g id="edge3" class="edge">
<title>vandelay.import_item:import_error&#45;&gt;vandelay.import_error:code</title>
<path fill="none" stroke="#000000" d="M946.1141,-1837.3854C1309.821,-1829.0225 1003.0465,-1364.4376 1047,-991 1053.5097,-935.6924 1043.3106,-492.5 1099,-492.5"/>
<polygon fill="#000000" stroke="#000000" points="945.9994,-1837.3866 935.949,-1833.0003 940.9997,-1837.4433 936,-1837.5 936,-1837.5 936,-1837.5 940.9997,-1837.4433 936.051,-1841.9997 945.9994,-1837.3866 945.9994,-1837.3866"/>
<text text-anchor="start" x="942.9895" y="-1847.5" font-family="Arial" font-size="10.00" fill="#000000">FOREIGN KEY (import_error) REFERENCES vandelay.import_error(code) ON UPDATE CASCADE ON DELETE SET NULL DEFERRABLE INITIALLY DEFERRED</text>
</g>
</g>
</svg>
