<?xml version="1.0" encoding="UTF-8" standalone="no"?>
<!DOCTYPE svg PUBLIC "-//W3C//DTD SVG 1.1//EN"
 "http://www.w3.org/Graphics/SVG/1.1/DTD/svg11.dtd">
<!-- Generated by graphviz version 2.40.1 (20161225.0304)
 -->
<!-- Title: vandelay.session_tracker Pages: 1 -->
<svg width="1353pt" height="2152pt"
 viewBox="0.00 0.00 1353.00 2152.00" xmlns="http://www.w3.org/2000/svg" xmlns:xlink="http://www.w3.org/1999/xlink">
<g id="graph0" class="graph" transform="scale(1 1) rotate(0) translate(4 2148)">
<title>vandelay.session_tracker</title>
<polygon fill="#ffffff" stroke="transparent" points="-4,4 -4,-2148 1349,-2148 1349,4 -4,4"/>
<!-- vandelay.session_tracker -->
<g id="node1" class="node">
<title>vandelay.session_tracker</title>
<polygon fill="#efefef" stroke="transparent" points="409,-2062.5 409,-2097.5 753,-2097.5 753,-2062.5 409,-2062.5"/>
<polygon fill="none" stroke="#000000" points="409,-2062.5 409,-2097.5 753,-2097.5 753,-2062.5 409,-2062.5"/>
<text text-anchor="start" x="415.6933" y="-2075.3" font-family="Arial Bold" font-size="18.00" fill="#000000">vandelay.session_tracker</text>
<text text-anchor="start" x="618.7387" y="-2075.3" font-family="Arial" font-size="14.00" fill="#000000">    </text>
<text text-anchor="start" x="652.9435" y="-2075.3" font-family="Arial" font-size="14.00" fill="#666666">[BASE TABLE]</text>
<polygon fill="none" stroke="#000000" points="409,-2032.5 409,-2062.5 753,-2062.5 753,-2032.5 409,-2032.5"/>
<text text-anchor="start" x="416" y="-2043.9" font-family="Arial" font-size="14.00" fill="#000000">id </text>
<text text-anchor="start" x="430.7798" y="-2043.9" font-family="Arial" font-size="14.00" fill="#666666">[bigint]</text>
<polygon fill="none" stroke="#000000" points="409,-2002.5 409,-2032.5 753,-2032.5 753,-2002.5 409,-2002.5"/>
<text text-anchor="start" x="416" y="-2013.9" font-family="Arial" font-size="14.00" fill="#000000">session_key </text>
<text text-anchor="start" x="496.9102" y="-2013.9" font-family="Arial" font-size="14.00" fill="#666666">[text]</text>
<polygon fill="none" stroke="#000000" points="409,-1972.5 409,-2002.5 753,-2002.5 753,-1972.5 409,-1972.5"/>
<text text-anchor="start" x="416" y="-1983.9" font-family="Arial" font-size="14.00" fill="#000000">name </text>
<text text-anchor="start" x="454.899" y="-1983.9" font-family="Arial" font-size="14.00" fill="#666666">[text]</text>
<polygon fill="none" stroke="#000000" points="409,-1942.5 409,-1972.5 753,-1972.5 753,-1942.5 409,-1942.5"/>
<text text-anchor="start" x="416" y="-1953.9" font-family="Arial" font-size="14.00" fill="#000000">usr </text>
<text text-anchor="start" x="439.3338" y="-1953.9" font-family="Arial" font-size="14.00" fill="#666666">[integer]</text>
<polygon fill="none" stroke="#000000" points="409,-1912.5 409,-1942.5 753,-1942.5 753,-1912.5 409,-1912.5"/>
<text text-anchor="start" x="416" y="-1923.9" font-family="Arial" font-size="14.00" fill="#000000">workstation </text>
<text text-anchor="start" x="490.676" y="-1923.9" font-family="Arial" font-size="14.00" fill="#666666">[integer]</text>
<polygon fill="none" stroke="#000000" points="409,-1882.5 409,-1912.5 753,-1912.5 753,-1882.5 409,-1882.5"/>
<text text-anchor="start" x="416" y="-1893.9" font-family="Arial" font-size="14.00" fill="#000000">record_type </text>
<text text-anchor="start" x="493.798" y="-1893.9" font-family="Arial" font-size="14.00" fill="#666666">[text]</text>
<polygon fill="none" stroke="#000000" points="409,-1852.5 409,-1882.5 753,-1882.5 753,-1852.5 409,-1852.5"/>
<text text-anchor="start" x="416" y="-1863.9" font-family="Arial" font-size="14.00" fill="#000000">queue </text>
<text text-anchor="start" x="458.8036" y="-1863.9" font-family="Arial" font-size="14.00" fill="#666666">[bigint]</text>
<polygon fill="none" stroke="#000000" points="409,-1822.5 409,-1852.5 753,-1852.5 753,-1822.5 409,-1822.5"/>
<text text-anchor="start" x="416" y="-1833.9" font-family="Arial" font-size="14.00" fill="#000000">create_time </text>
<text text-anchor="start" x="493.0126" y="-1833.9" font-family="Arial" font-size="14.00" fill="#666666">[timestamp with time zone]</text>
<polygon fill="none" stroke="#000000" points="409,-1792.5 409,-1822.5 753,-1822.5 753,-1792.5 409,-1792.5"/>
<text text-anchor="start" x="416" y="-1803.9" font-family="Arial" font-size="14.00" fill="#000000">update_time </text>
<text text-anchor="start" x="496.9172" y="-1803.9" font-family="Arial" font-size="14.00" fill="#666666">[timestamp with time zone]</text>
<polygon fill="none" stroke="#000000" points="409,-1762.5 409,-1792.5 753,-1792.5 753,-1762.5 409,-1762.5"/>
<text text-anchor="start" x="416" y="-1773.9" font-family="Arial" font-size="14.00" fill="#000000">state </text>
<text text-anchor="start" x="450.237" y="-1773.9" font-family="Arial" font-size="14.00" fill="#666666">[text]</text>
<polygon fill="none" stroke="#000000" points="409,-1732.5 409,-1762.5 753,-1762.5 753,-1732.5 409,-1732.5"/>
<text text-anchor="start" x="416" y="-1743.9" font-family="Arial" font-size="14.00" fill="#000000">action_type </text>
<text text-anchor="start" x="491.474" y="-1743.9" font-family="Arial" font-size="14.00" fill="#666666">[text]</text>
<polygon fill="none" stroke="#000000" points="409,-1702.5 409,-1732.5 753,-1732.5 753,-1702.5 409,-1702.5"/>
<text text-anchor="start" x="416" y="-1713.9" font-family="Arial" font-size="14.00" fill="#000000">total_actions </text>
<text text-anchor="start" x="498.4712" y="-1713.9" font-family="Arial" font-size="14.00" fill="#666666">[integer]</text>
<polygon fill="none" stroke="#000000" points="409,-1672.5 409,-1702.5 753,-1702.5 753,-1672.5 409,-1672.5"/>
<text text-anchor="start" x="416" y="-1683.9" font-family="Arial" font-size="14.00" fill="#000000">actions_performed </text>
<text text-anchor="start" x="535.8036" y="-1683.9" font-family="Arial" font-size="14.00" fill="#666666">[integer]</text>
<polygon fill="none" stroke="#000000" stroke-width="3" points="407.5,-1671.5 407.5,-2099.5 754.5,-2099.5 754.5,-1671.5 407.5,-1671.5"/>
</g>
<!-- actor.usr -->
<g id="node2" class="node">
<title>actor.usr</title>
<polygon fill="#efefef" stroke="transparent" points="219,-1512.5 219,-1547.5 539,-1547.5 539,-1512.5 219,-1512.5"/>
<polygon fill="none" stroke="#000000" points="219,-1512.5 219,-1547.5 539,-1547.5 539,-1512.5 219,-1512.5"/>
<text text-anchor="start" x="280.2123" y="-1525.3" font-family="Arial Bold" font-size="18.00" fill="#000000">actor.usr</text>
<text text-anchor="start" x="350.2197" y="-1525.3" font-family="Arial" font-size="14.00" fill="#000000">    </text>
<text text-anchor="start" x="384.4245" y="-1525.3" font-family="Arial" font-size="14.00" fill="#666666">[BASE TABLE]</text>
<polygon fill="none" stroke="#000000" points="219,-1482.5 219,-1512.5 539,-1512.5 539,-1482.5 219,-1482.5"/>
<text text-anchor="start" x="226" y="-1493.9" font-family="Arial" font-size="14.00" fill="#000000">id    </text>
<text text-anchor="start" x="271.094" y="-1493.9" font-family="Arial" font-size="14.00" fill="#666666">[integer]</text>
<polygon fill="none" stroke="#000000" points="219,-1452.5 219,-1482.5 539,-1482.5 539,-1452.5 219,-1452.5"/>
<text text-anchor="start" x="226" y="-1463.9" font-family="Arial" font-size="14.00" fill="#000000">card    </text>
<text text-anchor="start" x="287.4306" y="-1463.9" font-family="Arial" font-size="14.00" fill="#666666">[integer]</text>
<polygon fill="none" stroke="#000000" points="219,-1422.5 219,-1452.5 539,-1452.5 539,-1422.5 219,-1422.5"/>
<text text-anchor="start" x="226" y="-1433.9" font-family="Arial" font-size="14.00" fill="#000000">profile    </text>
<text text-anchor="start" x="298.317" y="-1433.9" font-family="Arial" font-size="14.00" fill="#666666">[integer]</text>
<polygon fill="none" stroke="#000000" points="219,-1392.5 219,-1422.5 539,-1422.5 539,-1392.5 219,-1392.5"/>
<text text-anchor="start" x="226" y="-1403.9" font-family="Arial" font-size="14.00" fill="#000000">usrname    </text>
<text text-anchor="start" x="314.6564" y="-1403.9" font-family="Arial" font-size="14.00" fill="#666666">[text]</text>
<polygon fill="none" stroke="#000000" points="219,-1362.5 219,-1392.5 539,-1392.5 539,-1362.5 219,-1362.5"/>
<text text-anchor="start" x="226" y="-1373.9" font-family="Arial" font-size="14.00" fill="#000000">email    </text>
<text text-anchor="start" x="293.6438" y="-1373.9" font-family="Arial" font-size="14.00" fill="#666666">[text]</text>
<polygon fill="none" stroke="#000000" points="219,-1332.5 219,-1362.5 539,-1362.5 539,-1332.5 219,-1332.5"/>
<text text-anchor="start" x="226" y="-1343.9" font-family="Arial" font-size="14.00" fill="#000000">passwd    </text>
<text text-anchor="start" x="307.6592" y="-1343.9" font-family="Arial" font-size="14.00" fill="#666666">[text]</text>
<polygon fill="none" stroke="#000000" points="219,-1302.5 219,-1332.5 539,-1332.5 539,-1302.5 219,-1302.5"/>
<text text-anchor="start" x="226" y="-1313.9" font-family="Arial" font-size="14.00" fill="#000000">standing    </text>
<text text-anchor="start" x="313.115" y="-1313.9" font-family="Arial" font-size="14.00" fill="#666666">[integer]</text>
<polygon fill="none" stroke="#000000" points="219,-1272.5 219,-1302.5 539,-1302.5 539,-1272.5 219,-1272.5"/>
<text text-anchor="start" x="226" y="-1283.9" font-family="Arial" font-size="14.00" fill="#000000">ident_type    </text>
<text text-anchor="start" x="324.7882" y="-1283.9" font-family="Arial" font-size="14.00" fill="#666666">[integer]</text>
<polygon fill="none" stroke="#000000" points="219,-1242.5 219,-1272.5 539,-1272.5 539,-1242.5 219,-1242.5"/>
<text text-anchor="start" x="226" y="-1253.9" font-family="Arial" font-size="14.00" fill="#000000">ident_value    </text>
<text text-anchor="start" x="331.7868" y="-1253.9" font-family="Arial" font-size="14.00" fill="#666666">[text]</text>
<polygon fill="none" stroke="#000000" points="219,-1212.5 219,-1242.5 539,-1242.5 539,-1212.5 219,-1212.5"/>
<text text-anchor="start" x="226" y="-1223.9" font-family="Arial" font-size="14.00" fill="#000000">ident_type2    </text>
<text text-anchor="start" x="332.5708" y="-1223.9" font-family="Arial" font-size="14.00" fill="#666666">[integer]</text>
<polygon fill="none" stroke="#000000" points="219,-1182.5 219,-1212.5 539,-1212.5 539,-1182.5 219,-1182.5"/>
<text text-anchor="start" x="226" y="-1193.9" font-family="Arial" font-size="14.00" fill="#000000">ident_value2    </text>
<text text-anchor="start" x="339.5694" y="-1193.9" font-family="Arial" font-size="14.00" fill="#666666">[text]</text>
<polygon fill="none" stroke="#000000" points="219,-1152.5 219,-1182.5 539,-1182.5 539,-1152.5 219,-1152.5"/>
<text text-anchor="start" x="226" y="-1163.9" font-family="Arial" font-size="14.00" fill="#000000">net_access_level    </text>
<text text-anchor="start" x="367.5694" y="-1163.9" font-family="Arial" font-size="14.00" fill="#666666">[integer]</text>
<polygon fill="none" stroke="#000000" points="219,-1122.5 219,-1152.5 539,-1152.5 539,-1122.5 219,-1122.5"/>
<text text-anchor="start" x="226" y="-1133.9" font-family="Arial" font-size="14.00" fill="#000000">photo_url    </text>
<text text-anchor="start" x="318.5582" y="-1133.9" font-family="Arial" font-size="14.00" fill="#666666">[text]</text>
<polygon fill="none" stroke="#000000" points="219,-1092.5 219,-1122.5 539,-1122.5 539,-1092.5 219,-1092.5"/>
<text text-anchor="start" x="226" y="-1103.9" font-family="Arial" font-size="14.00" fill="#000000">prefix    </text>
<text text-anchor="start" x="294.4278" y="-1103.9" font-family="Arial" font-size="14.00" fill="#666666">[text]</text>
<polygon fill="none" stroke="#000000" points="219,-1062.5 219,-1092.5 539,-1092.5 539,-1062.5 219,-1062.5"/>
<text text-anchor="start" x="226" y="-1073.9" font-family="Arial" font-size="14.00" fill="#000000">first_given_name    </text>
<text text-anchor="start" x="366.7812" y="-1073.9" font-family="Arial" font-size="14.00" fill="#666666">[text]</text>
<polygon fill="none" stroke="#000000" points="219,-1032.5 219,-1062.5 539,-1062.5 539,-1032.5 219,-1032.5"/>
<text text-anchor="start" x="226" y="-1043.9" font-family="Arial" font-size="14.00" fill="#000000">second_given_name    </text>
<text text-anchor="start" x="389.3632" y="-1043.9" font-family="Arial" font-size="14.00" fill="#666666">[text]</text>
<polygon fill="none" stroke="#000000" points="219,-1002.5 219,-1032.5 539,-1032.5 539,-1002.5 219,-1002.5"/>
<text text-anchor="start" x="226" y="-1013.9" font-family="Arial" font-size="14.00" fill="#000000">family_name    </text>
<text text-anchor="start" x="339.5428" y="-1013.9" font-family="Arial" font-size="14.00" fill="#666666">[text]</text>
<polygon fill="none" stroke="#000000" points="219,-972.5 219,-1002.5 539,-1002.5 539,-972.5 219,-972.5"/>
<text text-anchor="start" x="226" y="-983.9" font-family="Arial" font-size="14.00" fill="#000000">suffix    </text>
<text text-anchor="start" x="292.8752" y="-983.9" font-family="Arial" font-size="14.00" fill="#666666">[text]</text>
<polygon fill="none" stroke="#000000" points="219,-942.5 219,-972.5 539,-972.5 539,-942.5 219,-942.5"/>
<text text-anchor="start" x="226" y="-953.9" font-family="Arial" font-size="14.00" fill="#000000">alias    </text>
<text text-anchor="start" x="288.9832" y="-953.9" font-family="Arial" font-size="14.00" fill="#666666">[text]</text>
<polygon fill="none" stroke="#000000" points="219,-912.5 219,-942.5 539,-942.5 539,-912.5 219,-912.5"/>
<text text-anchor="start" x="226" y="-923.9" font-family="Arial" font-size="14.00" fill="#000000">day_phone    </text>
<text text-anchor="start" x="329.4656" y="-923.9" font-family="Arial" font-size="14.00" fill="#666666">[text]</text>
<polygon fill="none" stroke="#000000" points="219,-882.5 219,-912.5 539,-912.5 539,-882.5 219,-882.5"/>
<text text-anchor="start" x="226" y="-893.9" font-family="Arial" font-size="14.00" fill="#000000">evening_phone    </text>
<text text-anchor="start" x="355.92" y="-893.9" font-family="Arial" font-size="14.00" fill="#666666">[text]</text>
<polygon fill="none" stroke="#000000" points="219,-852.5 219,-882.5 539,-882.5 539,-852.5 219,-852.5"/>
<text text-anchor="start" x="226" y="-863.9" font-family="Arial" font-size="14.00" fill="#000000">other_phone    </text>
<text text-anchor="start" x="338.7994" y="-863.9" font-family="Arial" font-size="14.00" fill="#666666">[text]</text>
<polygon fill="none" stroke="#000000" points="219,-822.5 219,-852.5 539,-852.5 539,-822.5 219,-822.5"/>
<text text-anchor="start" x="226" y="-833.9" font-family="Arial" font-size="14.00" fill="#000000">mailing_address    </text>
<text text-anchor="start" x="362.1066" y="-833.9" font-family="Arial" font-size="14.00" fill="#666666">[integer]</text>
<polygon fill="none" stroke="#000000" points="219,-792.5 219,-822.5 539,-822.5 539,-792.5 219,-792.5"/>
<text text-anchor="start" x="226" y="-803.9" font-family="Arial" font-size="14.00" fill="#000000">billing_address    </text>
<text text-anchor="start" x="353.5526" y="-803.9" font-family="Arial" font-size="14.00" fill="#666666">[integer]</text>
<polygon fill="none" stroke="#000000" points="219,-762.5 219,-792.5 539,-792.5 539,-762.5 219,-762.5"/>
<text text-anchor="start" x="226" y="-773.9" font-family="Arial" font-size="14.00" fill="#000000">home_ou    </text>
<text text-anchor="start" x="318.561" y="-773.9" font-family="Arial" font-size="14.00" fill="#666666">[integer]</text>
<polygon fill="none" stroke="#000000" points="219,-732.5 219,-762.5 539,-762.5 539,-732.5 219,-732.5"/>
<text text-anchor="start" x="226" y="-743.9" font-family="Arial" font-size="14.00" fill="#000000">dob    </text>
<text text-anchor="start" x="283.5526" y="-743.9" font-family="Arial" font-size="14.00" fill="#666666">[date]</text>
<polygon fill="none" stroke="#000000" points="219,-702.5 219,-732.5 539,-732.5 539,-702.5 219,-702.5"/>
<text text-anchor="start" x="226" y="-713.9" font-family="Arial" font-size="14.00" fill="#000000">active    </text>
<text text-anchor="start" x="296.7672" y="-713.9" font-family="Arial" font-size="14.00" fill="#666666">[boolean]</text>
<polygon fill="none" stroke="#000000" points="219,-672.5 219,-702.5 539,-702.5 539,-672.5 219,-672.5"/>
<text text-anchor="start" x="226" y="-683.9" font-family="Arial" font-size="14.00" fill="#000000">master_account    </text>
<text text-anchor="start" x="359.7854" y="-683.9" font-family="Arial" font-size="14.00" fill="#666666">[boolean]</text>
<polygon fill="none" stroke="#000000" points="219,-642.5 219,-672.5 539,-672.5 539,-642.5 219,-642.5"/>
<text text-anchor="start" x="226" y="-653.9" font-family="Arial" font-size="14.00" fill="#000000">super_user    </text>
<text text-anchor="start" x="330.2216" y="-653.9" font-family="Arial" font-size="14.00" fill="#666666">[boolean]</text>
<polygon fill="none" stroke="#000000" points="219,-612.5 219,-642.5 539,-642.5 539,-612.5 219,-612.5"/>
<text text-anchor="start" x="226" y="-623.9" font-family="Arial" font-size="14.00" fill="#000000">barred    </text>
<text text-anchor="start" x="300.6564" y="-623.9" font-family="Arial" font-size="14.00" fill="#666666">[boolean]</text>
<polygon fill="none" stroke="#000000" points="219,-582.5 219,-612.5 539,-612.5 539,-582.5 219,-582.5"/>
<text text-anchor="start" x="226" y="-593.9" font-family="Arial" font-size="14.00" fill="#000000">deleted    </text>
<text text-anchor="start" x="306.115" y="-593.9" font-family="Arial" font-size="14.00" fill="#666666">[boolean]</text>
<polygon fill="none" stroke="#000000" points="219,-552.5 219,-582.5 539,-582.5 539,-552.5 219,-552.5"/>
<text text-anchor="start" x="226" y="-563.9" font-family="Arial" font-size="14.00" fill="#000000">juvenile    </text>
<text text-anchor="start" x="307.655" y="-563.9" font-family="Arial" font-size="14.00" fill="#666666">[boolean]</text>
<polygon fill="none" stroke="#000000" points="219,-522.5 219,-552.5 539,-552.5 539,-522.5 219,-522.5"/>
<text text-anchor="start" x="226" y="-533.9" font-family="Arial" font-size="14.00" fill="#000000">usrgroup    </text>
<text text-anchor="start" x="315.439" y="-533.9" font-family="Arial" font-size="14.00" fill="#666666">[integer]</text>
<polygon fill="none" stroke="#000000" points="219,-492.5 219,-522.5 539,-522.5 539,-492.5 219,-492.5"/>
<text text-anchor="start" x="226" y="-503.9" font-family="Arial" font-size="14.00" fill="#000000">claims_returned_count    </text>
<text text-anchor="start" x="401.7896" y="-503.9" font-family="Arial" font-size="14.00" fill="#666666">[integer]</text>
<polygon fill="none" stroke="#000000" points="219,-462.5 219,-492.5 539,-492.5 539,-462.5 219,-462.5"/>
<text text-anchor="start" x="226" y="-473.9" font-family="Arial" font-size="14.00" fill="#000000">credit_forward_balance    </text>
<text text-anchor="start" x="405.6788" y="-473.9" font-family="Arial" font-size="14.00" fill="#666666">[numeric(6,2)]</text>
<polygon fill="none" stroke="#000000" points="219,-432.5 219,-462.5 539,-462.5 539,-432.5 219,-432.5"/>
<text text-anchor="start" x="226" y="-443.9" font-family="Arial" font-size="14.00" fill="#000000">last_xact_id    </text>
<text text-anchor="start" x="334.1122" y="-443.9" font-family="Arial" font-size="14.00" fill="#666666">[text]</text>
<polygon fill="none" stroke="#000000" points="219,-402.5 219,-432.5 539,-432.5 539,-402.5 219,-402.5"/>
<text text-anchor="start" x="226" y="-413.9" font-family="Arial" font-size="14.00" fill="#000000">alert_message    </text>
<text text-anchor="start" x="352.0014" y="-413.9" font-family="Arial" font-size="14.00" fill="#666666">[text]</text>
<polygon fill="none" stroke="#000000" points="219,-372.5 219,-402.5 539,-402.5 539,-372.5 219,-372.5"/>
<text text-anchor="start" x="226" y="-383.9" font-family="Arial" font-size="14.00" fill="#000000">create_date    </text>
<text text-anchor="start" x="334.1248" y="-383.9" font-family="Arial" font-size="14.00" fill="#666666">[timestamp with time zone]</text>
<polygon fill="none" stroke="#000000" points="219,-342.5 219,-372.5 539,-372.5 539,-342.5 219,-342.5"/>
<text text-anchor="start" x="226" y="-353.9" font-family="Arial" font-size="14.00" fill="#000000">expire_date    </text>
<text text-anchor="start" x="333.3408" y="-353.9" font-family="Arial" font-size="14.00" fill="#666666">[timestamp with time zone]</text>
<polygon fill="none" stroke="#000000" points="219,-312.5 219,-342.5 539,-342.5 539,-312.5 219,-312.5"/>
<text text-anchor="start" x="226" y="-323.9" font-family="Arial" font-size="14.00" fill="#000000">claims_never_checked_out_count    </text>
<text text-anchor="start" x="471.8246" y="-323.9" font-family="Arial" font-size="14.00" fill="#666666">[integer]</text>
<polygon fill="none" stroke="#000000" points="219,-282.5 219,-312.5 539,-312.5 539,-282.5 219,-282.5"/>
<text text-anchor="start" x="225.7609" y="-293.9" font-family="Arial" font-size="14.00" fill="#000000">last_update_time    </text>
<text text-anchor="start" x="366.5547" y="-293.9" font-family="Arial" font-size="14.00" fill="#666666">[timestamp with time zone]</text>
<polygon fill="none" stroke="#000000" points="219,-252.5 219,-282.5 539,-282.5 539,-252.5 219,-252.5"/>
<text text-anchor="start" x="226" y="-263.9" font-family="Arial" font-size="14.00" fill="#000000">pref_prefix    </text>
<text text-anchor="start" x="326.3268" y="-263.9" font-family="Arial" font-size="14.00" fill="#666666">[text]</text>
<polygon fill="none" stroke="#000000" points="219,-222.5 219,-252.5 539,-252.5 539,-222.5 219,-222.5"/>
<text text-anchor="start" x="226" y="-233.9" font-family="Arial" font-size="14.00" fill="#000000">pref_first_given_name    </text>
<text text-anchor="start" x="398.6802" y="-233.9" font-family="Arial" font-size="14.00" fill="#666666">[text]</text>
<polygon fill="none" stroke="#000000" points="219,-192.5 219,-222.5 539,-222.5 539,-192.5 219,-192.5"/>
<text text-anchor="start" x="226" y="-203.9" font-family="Arial" font-size="14.00" fill="#000000">pref_second_given_name    </text>
<text text-anchor="start" x="421.2622" y="-203.9" font-family="Arial" font-size="14.00" fill="#666666">[text]</text>
<polygon fill="none" stroke="#000000" points="219,-162.5 219,-192.5 539,-192.5 539,-162.5 219,-162.5"/>
<text text-anchor="start" x="226" y="-173.9" font-family="Arial" font-size="14.00" fill="#000000">pref_family_name    </text>
<text text-anchor="start" x="371.4418" y="-173.9" font-family="Arial" font-size="14.00" fill="#666666">[text]</text>
<polygon fill="none" stroke="#000000" points="219,-132.5 219,-162.5 539,-162.5 539,-132.5 219,-132.5"/>
<text text-anchor="start" x="226" y="-143.9" font-family="Arial" font-size="14.00" fill="#000000">pref_suffix    </text>
<text text-anchor="start" x="324.7742" y="-143.9" font-family="Arial" font-size="14.00" fill="#666666">[text]</text>
<polygon fill="none" stroke="#000000" points="219,-102.5 219,-132.5 539,-132.5 539,-102.5 219,-102.5"/>
<text text-anchor="start" x="226" y="-113.9" font-family="Arial" font-size="14.00" fill="#000000">name_keywords    </text>
<text text-anchor="start" x="362.1108" y="-113.9" font-family="Arial" font-size="14.00" fill="#666666">[text]</text>
<polygon fill="none" stroke="#000000" points="219,-72.5 219,-102.5 539,-102.5 539,-72.5 219,-72.5"/>
<text text-anchor="start" x="226" y="-83.9" font-family="Arial" font-size="14.00" fill="#000000">name_kw_tsvector    </text>
<text text-anchor="start" x="376.892" y="-83.9" font-family="Arial" font-size="14.00" fill="#666666">[tsvector]</text>
<polygon fill="none" stroke="#000000" points="219,-42.5 219,-72.5 539,-72.5 539,-42.5 219,-42.5"/>
<text text-anchor="start" x="226" y="-53.9" font-family="Arial" font-size="14.00" fill="#000000">guardian    </text>
<text text-anchor="start" x="314.6676" y="-53.9" font-family="Arial" font-size="14.00" fill="#666666">[text]</text>
</g>
<!-- vandelay.session_tracker&#45;&gt;actor.usr -->
<g id="edge1" class="edge">
<title>vandelay.session_tracker:usr&#45;&gt;actor.usr:id</title>
<path fill="none" stroke="#000000" d="M398.6053,-1957.1226C264.9595,-1947.1283 322.2385,-1741.0531 409,-1627 445.2976,-1579.2847 502.7024,-1638.7153 539,-1591 564.1595,-1557.9264 580.5556,-1497.5 539,-1497.5"/>
<polygon fill="#000000" stroke="#000000" points="399.0066,-1957.1371 408.8367,-1961.997 404.0033,-1957.3185 409,-1957.5 409,-1957.5 409,-1957.5 404.0033,-1957.3185 409.1633,-1953.003 399.0066,-1957.1371 399.0066,-1957.1371"/>
<text text-anchor="start" x="7.4995" y="-1967.5" font-family="Arial" font-size="10.00" fill="#000000">FOREIGN KEY (usr) REFERENCES actor.usr(id) DEFERRABLE INITIALLY DEFERRED</text>
</g>
<!-- actor.workstation -->
<g id="node3" class="node">
<title>actor.workstation</title>
<polygon fill="#efefef" stroke="transparent" points="644,-822.5 644,-857.5 921,-857.5 921,-822.5 644,-822.5"/>
<polygon fill="none" stroke="#000000" points="644,-822.5 644,-857.5 921,-857.5 921,-822.5 644,-822.5"/>
<text text-anchor="start" x="650.7066" y="-835.3" font-family="Arial Bold" font-size="18.00" fill="#000000">actor.workstation</text>
<text text-anchor="start" x="786.7254" y="-835.3" font-family="Arial" font-size="14.00" fill="#000000">    </text>
<text text-anchor="start" x="820.9302" y="-835.3" font-family="Arial" font-size="14.00" fill="#666666">[BASE TABLE]</text>
<polygon fill="none" stroke="#000000" points="644,-792.5 644,-822.5 921,-822.5 921,-792.5 644,-792.5"/>
<text text-anchor="start" x="651" y="-803.9" font-family="Arial" font-size="14.00" fill="#000000">id    </text>
<text text-anchor="start" x="696.094" y="-803.9" font-family="Arial" font-size="14.00" fill="#666666">[integer]</text>
<polygon fill="none" stroke="#000000" points="644,-762.5 644,-792.5 921,-792.5 921,-762.5 644,-762.5"/>
<text text-anchor="start" x="651" y="-773.9" font-family="Arial" font-size="14.00" fill="#000000">name    </text>
<text text-anchor="start" x="720.2132" y="-773.9" font-family="Arial" font-size="14.00" fill="#666666">[text]</text>
<polygon fill="none" stroke="#000000" points="644,-732.5 644,-762.5 921,-762.5 921,-732.5 644,-732.5"/>
<text text-anchor="start" x="651" y="-743.9" font-family="Arial" font-size="14.00" fill="#000000">owning_lib    </text>
<text text-anchor="start" x="751.3268" y="-743.9" font-family="Arial" font-size="14.00" fill="#666666">[integer]</text>
</g>
<!-- vandelay.session_tracker&#45;&gt;actor.workstation -->
<g id="edge2" class="edge">
<title>vandelay.session_tracker:workstation&#45;&gt;actor.workstation:id</title>
<path fill="none" stroke="#000000" d="M763.0349,-1927.1547C880.1159,-1918.7005 762.6802,-1756.6733 753,-1627 746.1618,-1535.3974 552.1425,-807.5 644,-807.5"/>
<polygon fill="#000000" stroke="#000000" points="762.9941,-1927.156 752.8452,-1923.0027 757.997,-1927.328 753,-1927.5 753,-1927.5 753,-1927.5 757.997,-1927.328 753.1548,-1931.9973 762.9941,-1927.156 762.9941,-1927.156"/>
<text text-anchor="start" x="759.5455" y="-1937.5" font-family="Arial" font-size="10.00" fill="#000000">FOREIGN KEY (workstation) REFERENCES actor.workstation(id) ON DELETE CASCADE DEFERRABLE INITIALLY DEFERRED</text>
</g>
</g>
</svg>
