<?xml version="1.0" encoding="UTF-8" standalone="no"?>
<!DOCTYPE svg PUBLIC "-//W3C//DTD SVG 1.1//EN"
 "http://www.w3.org/Graphics/SVG/1.1/DTD/svg11.dtd">
<!-- Generated by graphviz version 2.40.1 (20161225.0304)
 -->
<!-- Title: vandelay.import_item_attr_definition Pages: 1 -->
<svg width="1622pt" height="2579pt"
 viewBox="0.00 0.00 1622.00 2579.00" xmlns="http://www.w3.org/2000/svg" xmlns:xlink="http://www.w3.org/1999/xlink">
<g id="graph0" class="graph" transform="scale(1 1) rotate(0) translate(4 2575)">
<title>vandelay.import_item_attr_definition</title>
<polygon fill="#ffffff" stroke="transparent" points="-4,4 -4,-2575 1618,-2575 1618,4 -4,4"/>
<!-- vandelay.import_item_attr_definition -->
<g id="node1" class="node">
<title>vandelay.import_item_attr_definition</title>
<polygon fill="#efefef" stroke="transparent" points="667,-1462.5 667,-1497.5 1097,-1497.5 1097,-1462.5 667,-1462.5"/>
<polygon fill="none" stroke="#000000" points="667,-1462.5 667,-1497.5 1097,-1497.5 1097,-1462.5 667,-1462.5"/>
<text text-anchor="start" x="673.6886" y="-1475.3" font-family="Arial Bold" font-size="18.00" fill="#000000">vandelay.import_item_attr_definition</text>
<text text-anchor="start" x="962.7434" y="-1475.3" font-family="Arial" font-size="14.00" fill="#000000">    </text>
<text text-anchor="start" x="996.9482" y="-1475.3" font-family="Arial" font-size="14.00" fill="#666666">[BASE TABLE]</text>
<polygon fill="none" stroke="#000000" points="667,-1432.5 667,-1462.5 1097,-1462.5 1097,-1432.5 667,-1432.5"/>
<text text-anchor="start" x="674" y="-1443.9" font-family="Arial" font-size="14.00" fill="#000000">id </text>
<text text-anchor="start" x="688.7798" y="-1443.9" font-family="Arial" font-size="14.00" fill="#666666">[bigint]</text>
<polygon fill="none" stroke="#000000" points="667,-1402.5 667,-1432.5 1097,-1432.5 1097,-1402.5 667,-1402.5"/>
<text text-anchor="start" x="674" y="-1413.9" font-family="Arial" font-size="14.00" fill="#000000">owner </text>
<text text-anchor="start" x="716.0056" y="-1413.9" font-family="Arial" font-size="14.00" fill="#666666">[integer]</text>
<polygon fill="none" stroke="#000000" points="667,-1372.5 667,-1402.5 1097,-1402.5 1097,-1372.5 667,-1372.5"/>
<text text-anchor="start" x="674" y="-1383.9" font-family="Arial" font-size="14.00" fill="#000000">name </text>
<text text-anchor="start" x="712.899" y="-1383.9" font-family="Arial" font-size="14.00" fill="#666666">[text]</text>
<polygon fill="none" stroke="#000000" points="667,-1342.5 667,-1372.5 1097,-1372.5 1097,-1342.5 667,-1342.5"/>
<text text-anchor="start" x="674" y="-1353.9" font-family="Arial" font-size="14.00" fill="#000000">tag </text>
<text text-anchor="start" x="697.3464" y="-1353.9" font-family="Arial" font-size="14.00" fill="#666666">[text]</text>
<polygon fill="none" stroke="#000000" points="667,-1312.5 667,-1342.5 1097,-1342.5 1097,-1312.5 667,-1312.5"/>
<text text-anchor="start" x="674" y="-1323.9" font-family="Arial" font-size="14.00" fill="#000000">keep </text>
<text text-anchor="start" x="708.2384" y="-1323.9" font-family="Arial" font-size="14.00" fill="#666666">[boolean]</text>
<polygon fill="none" stroke="#000000" points="667,-1282.5 667,-1312.5 1097,-1312.5 1097,-1282.5 667,-1282.5"/>
<text text-anchor="start" x="674" y="-1293.9" font-family="Arial" font-size="14.00" fill="#000000">owning_lib </text>
<text text-anchor="start" x="744.0126" y="-1293.9" font-family="Arial" font-size="14.00" fill="#666666">[text]</text>
<polygon fill="none" stroke="#000000" points="667,-1252.5 667,-1282.5 1097,-1282.5 1097,-1252.5 667,-1252.5"/>
<text text-anchor="start" x="674" y="-1263.9" font-family="Arial" font-size="14.00" fill="#000000">circ_lib </text>
<text text-anchor="start" x="721.4362" y="-1263.9" font-family="Arial" font-size="14.00" fill="#666666">[text]</text>
<polygon fill="none" stroke="#000000" points="667,-1222.5 667,-1252.5 1097,-1252.5 1097,-1222.5 667,-1222.5"/>
<text text-anchor="start" x="674" y="-1233.9" font-family="Arial" font-size="14.00" fill="#000000">call_number </text>
<text text-anchor="start" x="754.1206" y="-1233.9" font-family="Arial" font-size="14.00" fill="#666666">[text]</text>
<polygon fill="none" stroke="#000000" points="667,-1192.5 667,-1222.5 1097,-1222.5 1097,-1192.5 667,-1192.5"/>
<text text-anchor="start" x="674" y="-1203.9" font-family="Arial" font-size="14.00" fill="#000000">copy_number </text>
<text text-anchor="start" x="762.69" y="-1203.9" font-family="Arial" font-size="14.00" fill="#666666">[text]</text>
<polygon fill="none" stroke="#000000" points="667,-1162.5 667,-1192.5 1097,-1192.5 1097,-1162.5 667,-1162.5"/>
<text text-anchor="start" x="674" y="-1173.9" font-family="Arial" font-size="14.00" fill="#000000">status </text>
<text text-anchor="start" x="715.237" y="-1173.9" font-family="Arial" font-size="14.00" fill="#666666">[text]</text>
<polygon fill="none" stroke="#000000" points="667,-1132.5 667,-1162.5 1097,-1162.5 1097,-1132.5 667,-1132.5"/>
<text text-anchor="start" x="674" y="-1143.9" font-family="Arial" font-size="14.00" fill="#000000">location </text>
<text text-anchor="start" x="726.1248" y="-1143.9" font-family="Arial" font-size="14.00" fill="#666666">[text]</text>
<polygon fill="none" stroke="#000000" points="667,-1102.5 667,-1132.5 1097,-1132.5 1097,-1102.5 667,-1102.5"/>
<text text-anchor="start" x="674" y="-1113.9" font-family="Arial" font-size="14.00" fill="#000000">circulate </text>
<text text-anchor="start" x="730.0028" y="-1113.9" font-family="Arial" font-size="14.00" fill="#666666">[text]</text>
<polygon fill="none" stroke="#000000" points="667,-1072.5 667,-1102.5 1097,-1102.5 1097,-1072.5 667,-1072.5"/>
<text text-anchor="start" x="674" y="-1083.9" font-family="Arial" font-size="14.00" fill="#000000">deposit </text>
<text text-anchor="start" x="723.0182" y="-1083.9" font-family="Arial" font-size="14.00" fill="#666666">[text]</text>
<polygon fill="none" stroke="#000000" points="667,-1042.5 667,-1072.5 1097,-1072.5 1097,-1042.5 667,-1042.5"/>
<text text-anchor="start" x="674" y="-1053.9" font-family="Arial" font-size="14.00" fill="#000000">deposit_amount </text>
<text text-anchor="start" x="777.4824" y="-1053.9" font-family="Arial" font-size="14.00" fill="#666666">[text]</text>
<polygon fill="none" stroke="#000000" points="667,-1012.5 667,-1042.5 1097,-1042.5 1097,-1012.5 667,-1012.5"/>
<text text-anchor="start" x="674" y="-1023.9" font-family="Arial" font-size="14.00" fill="#000000">ref </text>
<text text-anchor="start" x="694.2244" y="-1023.9" font-family="Arial" font-size="14.00" fill="#666666">[text]</text>
<polygon fill="none" stroke="#000000" points="667,-982.5 667,-1012.5 1097,-1012.5 1097,-982.5 667,-982.5"/>
<text text-anchor="start" x="674" y="-993.9" font-family="Arial" font-size="14.00" fill="#000000">holdable </text>
<text text-anchor="start" x="730.7994" y="-993.9" font-family="Arial" font-size="14.00" fill="#666666">[text]</text>
<polygon fill="none" stroke="#000000" points="667,-952.5 667,-982.5 1097,-982.5 1097,-952.5 667,-952.5"/>
<text text-anchor="start" x="674" y="-963.9" font-family="Arial" font-size="14.00" fill="#000000">price </text>
<text text-anchor="start" x="708.223" y="-963.9" font-family="Arial" font-size="14.00" fill="#666666">[text]</text>
<polygon fill="none" stroke="#000000" points="667,-922.5 667,-952.5 1097,-952.5 1097,-922.5 667,-922.5"/>
<text text-anchor="start" x="674" y="-933.9" font-family="Arial" font-size="14.00" fill="#000000">barcode </text>
<text text-anchor="start" x="728.4642" y="-933.9" font-family="Arial" font-size="14.00" fill="#666666">[text]</text>
<polygon fill="none" stroke="#000000" points="667,-892.5 667,-922.5 1097,-922.5 1097,-892.5 667,-892.5"/>
<text text-anchor="start" x="674" y="-903.9" font-family="Arial" font-size="14.00" fill="#000000">circ_modifier </text>
<text text-anchor="start" x="757.2132" y="-903.9" font-family="Arial" font-size="14.00" fill="#666666">[text]</text>
<polygon fill="none" stroke="#000000" points="667,-862.5 667,-892.5 1097,-892.5 1097,-862.5 667,-862.5"/>
<text text-anchor="start" x="674" y="-873.9" font-family="Arial" font-size="14.00" fill="#000000">circ_as_type </text>
<text text-anchor="start" x="756.4614" y="-873.9" font-family="Arial" font-size="14.00" fill="#666666">[text]</text>
<polygon fill="none" stroke="#000000" points="667,-832.5 667,-862.5 1097,-862.5 1097,-832.5 667,-832.5"/>
<text text-anchor="start" x="674" y="-843.9" font-family="Arial" font-size="14.00" fill="#000000">alert_message </text>
<text text-anchor="start" x="769.6872" y="-843.9" font-family="Arial" font-size="14.00" fill="#666666">[text]</text>
<polygon fill="none" stroke="#000000" points="667,-802.5 667,-832.5 1097,-832.5 1097,-802.5 667,-802.5"/>
<text text-anchor="start" x="674" y="-813.9" font-family="Arial" font-size="14.00" fill="#000000">opac_visible </text>
<text text-anchor="start" x="754.906" y="-813.9" font-family="Arial" font-size="14.00" fill="#666666">[text]</text>
<polygon fill="none" stroke="#000000" points="667,-772.5 667,-802.5 1097,-802.5 1097,-772.5 667,-772.5"/>
<text text-anchor="start" x="674" y="-783.9" font-family="Arial" font-size="14.00" fill="#000000">pub_note_title </text>
<text text-anchor="start" x="765.819" y="-783.9" font-family="Arial" font-size="14.00" fill="#666666">[text]</text>
<polygon fill="none" stroke="#000000" points="667,-742.5 667,-772.5 1097,-772.5 1097,-742.5 667,-742.5"/>
<text text-anchor="start" x="674" y="-753.9" font-family="Arial" font-size="14.00" fill="#000000">pub_note </text>
<text text-anchor="start" x="736.2594" y="-753.9" font-family="Arial" font-size="14.00" fill="#666666">[text]</text>
<polygon fill="none" stroke="#000000" points="667,-712.5 667,-742.5 1097,-742.5 1097,-712.5 667,-712.5"/>
<text text-anchor="start" x="674" y="-723.9" font-family="Arial" font-size="14.00" fill="#000000">priv_note_title </text>
<text text-anchor="start" x="765.021" y="-723.9" font-family="Arial" font-size="14.00" fill="#666666">[text]</text>
<polygon fill="none" stroke="#000000" points="667,-682.5 667,-712.5 1097,-712.5 1097,-682.5 667,-682.5"/>
<text text-anchor="start" x="674" y="-693.9" font-family="Arial" font-size="14.00" fill="#000000">priv_note </text>
<text text-anchor="start" x="735.4614" y="-693.9" font-family="Arial" font-size="14.00" fill="#666666">[text]</text>
<polygon fill="none" stroke="#000000" points="667,-652.5 667,-682.5 1097,-682.5 1097,-652.5 667,-652.5"/>
<text text-anchor="start" x="674" y="-663.9" font-family="Arial" font-size="14.00" fill="#000000">internal_id </text>
<text text-anchor="start" x="742.4572" y="-663.9" font-family="Arial" font-size="14.00" fill="#666666">[text]</text>
<polygon fill="none" stroke="#000000" points="667,-622.5 667,-652.5 1097,-652.5 1097,-622.5 667,-622.5"/>
<text text-anchor="start" x="674" y="-633.9" font-family="Arial" font-size="14.00" fill="#000000">stat_cat_data </text>
<text text-anchor="start" x="761.9312" y="-633.9" font-family="Arial" font-size="14.00" fill="#666666">[text]</text>
<polygon fill="none" stroke="#000000" points="667,-592.5 667,-622.5 1097,-622.5 1097,-592.5 667,-592.5"/>
<text text-anchor="start" x="674" y="-603.9" font-family="Arial" font-size="14.00" fill="#000000">parts_data </text>
<text text-anchor="start" x="744.028" y="-603.9" font-family="Arial" font-size="14.00" fill="#666666">[text]</text>
<polygon fill="none" stroke="#000000" stroke-width="3" points="665.5,-591.5 665.5,-1499.5 1098.5,-1499.5 1098.5,-591.5 665.5,-591.5"/>
</g>
<!-- actor.org_unit -->
<g id="node4" class="node">
<title>actor.org_unit</title>
<polygon fill="#efefef" stroke="transparent" points="756,-432.5 756,-467.5 1007,-467.5 1007,-432.5 756,-432.5"/>
<polygon fill="none" stroke="#000000" points="756,-432.5 756,-467.5 1007,-467.5 1007,-432.5 756,-432.5"/>
<text text-anchor="start" x="762.7017" y="-445.3" font-family="Arial Bold" font-size="18.00" fill="#000000">actor.org_unit</text>
<text text-anchor="start" x="872.7303" y="-445.3" font-family="Arial" font-size="14.00" fill="#000000">    </text>
<text text-anchor="start" x="906.9351" y="-445.3" font-family="Arial" font-size="14.00" fill="#666666">[BASE TABLE]</text>
<polygon fill="none" stroke="#000000" points="756,-402.5 756,-432.5 1007,-432.5 1007,-402.5 756,-402.5"/>
<text text-anchor="start" x="763" y="-413.9" font-family="Arial" font-size="14.00" fill="#000000">id    </text>
<text text-anchor="start" x="808.094" y="-413.9" font-family="Arial" font-size="14.00" fill="#666666">[integer]</text>
<polygon fill="none" stroke="#000000" points="756,-372.5 756,-402.5 1007,-402.5 1007,-372.5 756,-372.5"/>
<text text-anchor="start" x="763" y="-383.9" font-family="Arial" font-size="14.00" fill="#000000">parent_ou    </text>
<text text-anchor="start" x="860.2342" y="-383.9" font-family="Arial" font-size="14.00" fill="#666666">[integer]</text>
<polygon fill="none" stroke="#000000" points="756,-342.5 756,-372.5 1007,-372.5 1007,-342.5 756,-342.5"/>
<text text-anchor="start" x="763" y="-353.9" font-family="Arial" font-size="14.00" fill="#000000">ou_type    </text>
<text text-anchor="start" x="847.0084" y="-353.9" font-family="Arial" font-size="14.00" fill="#666666">[integer]</text>
<polygon fill="none" stroke="#000000" points="756,-312.5 756,-342.5 1007,-342.5 1007,-312.5 756,-312.5"/>
<text text-anchor="start" x="763" y="-323.9" font-family="Arial" font-size="14.00" fill="#000000">ill_address    </text>
<text text-anchor="start" x="864.0982" y="-323.9" font-family="Arial" font-size="14.00" fill="#666666">[integer]</text>
<polygon fill="none" stroke="#000000" points="756,-282.5 756,-312.5 1007,-312.5 1007,-282.5 756,-282.5"/>
<text text-anchor="start" x="763" y="-293.9" font-family="Arial" font-size="14.00" fill="#000000">holds_address    </text>
<text text-anchor="start" x="888.2328" y="-293.9" font-family="Arial" font-size="14.00" fill="#666666">[integer]</text>
<polygon fill="none" stroke="#000000" points="756,-252.5 756,-282.5 1007,-282.5 1007,-252.5 756,-252.5"/>
<text text-anchor="start" x="763" y="-263.9" font-family="Arial" font-size="14.00" fill="#000000">mailing_address    </text>
<text text-anchor="start" x="899.1066" y="-263.9" font-family="Arial" font-size="14.00" fill="#666666">[integer]</text>
<polygon fill="none" stroke="#000000" points="756,-222.5 756,-252.5 1007,-252.5 1007,-222.5 756,-222.5"/>
<text text-anchor="start" x="763" y="-233.9" font-family="Arial" font-size="14.00" fill="#000000">billing_address    </text>
<text text-anchor="start" x="890.5526" y="-233.9" font-family="Arial" font-size="14.00" fill="#666666">[integer]</text>
<polygon fill="none" stroke="#000000" points="756,-192.5 756,-222.5 1007,-222.5 1007,-192.5 756,-192.5"/>
<text text-anchor="start" x="763" y="-203.9" font-family="Arial" font-size="14.00" fill="#000000">shortname    </text>
<text text-anchor="start" x="863.3296" y="-203.9" font-family="Arial" font-size="14.00" fill="#666666">[text]</text>
<polygon fill="none" stroke="#000000" points="756,-162.5 756,-192.5 1007,-192.5 1007,-162.5 756,-162.5"/>
<text text-anchor="start" x="763" y="-173.9" font-family="Arial" font-size="14.00" fill="#000000">name    </text>
<text text-anchor="start" x="832.2132" y="-173.9" font-family="Arial" font-size="14.00" fill="#666666">[text]</text>
<polygon fill="none" stroke="#000000" points="756,-132.5 756,-162.5 1007,-162.5 1007,-132.5 756,-132.5"/>
<text text-anchor="start" x="763" y="-143.9" font-family="Arial" font-size="14.00" fill="#000000">email    </text>
<text text-anchor="start" x="830.6438" y="-143.9" font-family="Arial" font-size="14.00" fill="#666666">[text]</text>
<polygon fill="none" stroke="#000000" points="756,-102.5 756,-132.5 1007,-132.5 1007,-102.5 756,-102.5"/>
<text text-anchor="start" x="763" y="-113.9" font-family="Arial" font-size="14.00" fill="#000000">phone    </text>
<text text-anchor="start" x="836.1178" y="-113.9" font-family="Arial" font-size="14.00" fill="#666666">[text]</text>
<polygon fill="none" stroke="#000000" points="756,-72.5 756,-102.5 1007,-102.5 1007,-72.5 756,-72.5"/>
<text text-anchor="start" x="763" y="-83.9" font-family="Arial" font-size="14.00" fill="#000000">opac_visible    </text>
<text text-anchor="start" x="874.2202" y="-83.9" font-family="Arial" font-size="14.00" fill="#666666">[boolean]</text>
<polygon fill="none" stroke="#000000" points="756,-42.5 756,-72.5 1007,-72.5 1007,-42.5 756,-42.5"/>
<text text-anchor="start" x="763" y="-53.9" font-family="Arial" font-size="14.00" fill="#000000">fiscal_calendar    </text>
<text text-anchor="start" x="890.554" y="-53.9" font-family="Arial" font-size="14.00" fill="#666666">[integer]</text>
</g>
<!-- vandelay.import_item_attr_definition&#45;&gt;actor.org_unit -->
<g id="edge3" class="edge">
<title>vandelay.import_item_attr_definition:owner&#45;&gt;actor.org_unit:id</title>
<path fill="none" stroke="#000000" d="M656.9179,-1417.3655C282.3733,-1407.2768 410.5058,-832.0862 667,-547 717.8174,-490.5179 956.1826,-567.4821 1007,-511 1034.7942,-480.1075 1048.5556,-417.5 1007,-417.5"/>
<polygon fill="#000000" stroke="#000000" points="657.0009,-1417.3665 666.9399,-1421.9996 662.0004,-1417.4333 667,-1417.5 667,-1417.5 667,-1417.5 662.0004,-1417.4333 667.0601,-1413.0004 657.0009,-1417.3665 657.0009,-1417.3665"/>
<text text-anchor="start" x="7.322" y="-1427.5" font-family="Arial" font-size="10.00" fill="#000000">FOREIGN KEY (owner) REFERENCES actor.org_unit(id) ON UPDATE CASCADE ON DELETE CASCADE DEFERRABLE INITIALLY DEFERRED</text>
</g>
<!-- vandelay.import_item -->
<g id="node2" class="node">
<title>vandelay.import_item</title>
<polygon fill="#efefef" stroke="transparent" points="512,-2492.5 512,-2527.5 824,-2527.5 824,-2492.5 512,-2492.5"/>
<polygon fill="none" stroke="#000000" points="512,-2492.5 512,-2527.5 824,-2527.5 824,-2492.5 512,-2492.5"/>
<text text-anchor="start" x="518.7052" y="-2505.3" font-family="Arial Bold" font-size="18.00" fill="#000000">vandelay.import_item</text>
<text text-anchor="start" x="689.7268" y="-2505.3" font-family="Arial" font-size="14.00" fill="#000000">    </text>
<text text-anchor="start" x="723.9316" y="-2505.3" font-family="Arial" font-size="14.00" fill="#666666">[BASE TABLE]</text>
<polygon fill="none" stroke="#000000" points="512,-2462.5 512,-2492.5 824,-2492.5 824,-2462.5 512,-2462.5"/>
<text text-anchor="start" x="519" y="-2473.9" font-family="Arial" font-size="14.00" fill="#000000">id    </text>
<text text-anchor="start" x="564.094" y="-2473.9" font-family="Arial" font-size="14.00" fill="#666666">[bigint]</text>
<polygon fill="none" stroke="#000000" points="512,-2432.5 512,-2462.5 824,-2462.5 824,-2432.5 512,-2432.5"/>
<text text-anchor="start" x="519" y="-2443.9" font-family="Arial" font-size="14.00" fill="#000000">record    </text>
<text text-anchor="start" x="592.8738" y="-2443.9" font-family="Arial" font-size="14.00" fill="#666666">[bigint]</text>
<polygon fill="none" stroke="#000000" points="512,-2402.5 512,-2432.5 824,-2432.5 824,-2402.5 512,-2402.5"/>
<text text-anchor="start" x="519" y="-2413.9" font-family="Arial" font-size="14.00" fill="#000000">definition    </text>
<text text-anchor="start" x="609.2188" y="-2413.9" font-family="Arial" font-size="14.00" fill="#666666">[bigint]</text>
<polygon fill="none" stroke="#000000" points="512,-2372.5 512,-2402.5 824,-2402.5 824,-2372.5 512,-2372.5"/>
<text text-anchor="start" x="519" y="-2383.9" font-family="Arial" font-size="14.00" fill="#000000">import_error    </text>
<text text-anchor="start" x="629.418" y="-2383.9" font-family="Arial" font-size="14.00" fill="#666666">[text]</text>
<polygon fill="none" stroke="#000000" points="512,-2342.5 512,-2372.5 824,-2372.5 824,-2342.5 512,-2342.5"/>
<text text-anchor="start" x="519" y="-2353.9" font-family="Arial" font-size="14.00" fill="#000000">error_detail    </text>
<text text-anchor="start" x="623.986" y="-2353.9" font-family="Arial" font-size="14.00" fill="#666666">[text]</text>
<polygon fill="none" stroke="#000000" points="512,-2312.5 512,-2342.5 824,-2342.5 824,-2312.5 512,-2312.5"/>
<text text-anchor="start" x="519" y="-2323.9" font-family="Arial" font-size="14.00" fill="#000000">imported_as    </text>
<text text-anchor="start" x="630.2188" y="-2323.9" font-family="Arial" font-size="14.00" fill="#666666">[bigint]</text>
<polygon fill="none" stroke="#000000" points="512,-2282.5 512,-2312.5 824,-2312.5 824,-2282.5 512,-2282.5"/>
<text text-anchor="start" x="519" y="-2293.9" font-family="Arial" font-size="14.00" fill="#000000">import_time    </text>
<text text-anchor="start" x="626.3114" y="-2293.9" font-family="Arial" font-size="14.00" fill="#666666">[timestamp with time zone]</text>
<polygon fill="none" stroke="#000000" points="512,-2252.5 512,-2282.5 824,-2282.5 824,-2252.5 512,-2252.5"/>
<text text-anchor="start" x="519" y="-2263.9" font-family="Arial" font-size="14.00" fill="#000000">owning_lib    </text>
<text text-anchor="start" x="619.3268" y="-2263.9" font-family="Arial" font-size="14.00" fill="#666666">[integer]</text>
<polygon fill="none" stroke="#000000" points="512,-2222.5 512,-2252.5 824,-2252.5 824,-2222.5 512,-2222.5"/>
<text text-anchor="start" x="519" y="-2233.9" font-family="Arial" font-size="14.00" fill="#000000">circ_lib    </text>
<text text-anchor="start" x="596.7504" y="-2233.9" font-family="Arial" font-size="14.00" fill="#666666">[integer]</text>
<polygon fill="none" stroke="#000000" points="512,-2192.5 512,-2222.5 824,-2222.5 824,-2192.5 512,-2192.5"/>
<text text-anchor="start" x="519" y="-2203.9" font-family="Arial" font-size="14.00" fill="#000000">call_number    </text>
<text text-anchor="start" x="629.4348" y="-2203.9" font-family="Arial" font-size="14.00" fill="#666666">[text]</text>
<polygon fill="none" stroke="#000000" points="512,-2162.5 512,-2192.5 824,-2192.5 824,-2162.5 512,-2162.5"/>
<text text-anchor="start" x="519" y="-2173.9" font-family="Arial" font-size="14.00" fill="#000000">copy_number    </text>
<text text-anchor="start" x="638.0042" y="-2173.9" font-family="Arial" font-size="14.00" fill="#666666">[integer]</text>
<polygon fill="none" stroke="#000000" points="512,-2132.5 512,-2162.5 824,-2162.5 824,-2132.5 512,-2132.5"/>
<text text-anchor="start" x="519" y="-2143.9" font-family="Arial" font-size="14.00" fill="#000000">status    </text>
<text text-anchor="start" x="590.5512" y="-2143.9" font-family="Arial" font-size="14.00" fill="#666666">[integer]</text>
<polygon fill="none" stroke="#000000" points="512,-2102.5 512,-2132.5 824,-2132.5 824,-2102.5 512,-2102.5"/>
<text text-anchor="start" x="519" y="-2113.9" font-family="Arial" font-size="14.00" fill="#000000">location    </text>
<text text-anchor="start" x="601.439" y="-2113.9" font-family="Arial" font-size="14.00" fill="#666666">[integer]</text>
<polygon fill="none" stroke="#000000" points="512,-2072.5 512,-2102.5 824,-2102.5 824,-2072.5 512,-2072.5"/>
<text text-anchor="start" x="519" y="-2083.9" font-family="Arial" font-size="14.00" fill="#000000">circulate    </text>
<text text-anchor="start" x="605.317" y="-2083.9" font-family="Arial" font-size="14.00" fill="#666666">[boolean]</text>
<polygon fill="none" stroke="#000000" points="512,-2042.5 512,-2072.5 824,-2072.5 824,-2042.5 512,-2042.5"/>
<text text-anchor="start" x="519" y="-2053.9" font-family="Arial" font-size="14.00" fill="#000000">deposit    </text>
<text text-anchor="start" x="598.3324" y="-2053.9" font-family="Arial" font-size="14.00" fill="#666666">[boolean]</text>
<polygon fill="none" stroke="#000000" points="512,-2012.5 512,-2042.5 824,-2042.5 824,-2012.5 512,-2012.5"/>
<text text-anchor="start" x="519" y="-2023.9" font-family="Arial" font-size="14.00" fill="#000000">deposit_amount    </text>
<text text-anchor="start" x="652.7966" y="-2023.9" font-family="Arial" font-size="14.00" fill="#666666">[numeric(8,2)]</text>
<polygon fill="none" stroke="#000000" points="512,-1982.5 512,-2012.5 824,-2012.5 824,-1982.5 512,-1982.5"/>
<text text-anchor="start" x="519" y="-1993.9" font-family="Arial" font-size="14.00" fill="#000000">ref    </text>
<text text-anchor="start" x="569.5386" y="-1993.9" font-family="Arial" font-size="14.00" fill="#666666">[boolean]</text>
<polygon fill="none" stroke="#000000" points="512,-1952.5 512,-1982.5 824,-1982.5 824,-1952.5 512,-1952.5"/>
<text text-anchor="start" x="519" y="-1963.9" font-family="Arial" font-size="14.00" fill="#000000">holdable    </text>
<text text-anchor="start" x="606.1136" y="-1963.9" font-family="Arial" font-size="14.00" fill="#666666">[boolean]</text>
<polygon fill="none" stroke="#000000" points="512,-1922.5 512,-1952.5 824,-1952.5 824,-1922.5 512,-1922.5"/>
<text text-anchor="start" x="519" y="-1933.9" font-family="Arial" font-size="14.00" fill="#000000">price    </text>
<text text-anchor="start" x="583.5372" y="-1933.9" font-family="Arial" font-size="14.00" fill="#666666">[numeric(8,2)]</text>
<polygon fill="none" stroke="#000000" points="512,-1892.5 512,-1922.5 824,-1922.5 824,-1892.5 512,-1892.5"/>
<text text-anchor="start" x="519" y="-1903.9" font-family="Arial" font-size="14.00" fill="#000000">barcode    </text>
<text text-anchor="start" x="603.7784" y="-1903.9" font-family="Arial" font-size="14.00" fill="#666666">[text]</text>
<polygon fill="none" stroke="#000000" points="512,-1862.5 512,-1892.5 824,-1892.5 824,-1862.5 512,-1862.5"/>
<text text-anchor="start" x="519" y="-1873.9" font-family="Arial" font-size="14.00" fill="#000000">circ_modifier    </text>
<text text-anchor="start" x="632.5274" y="-1873.9" font-family="Arial" font-size="14.00" fill="#666666">[text]</text>
<polygon fill="none" stroke="#000000" points="512,-1832.5 512,-1862.5 824,-1862.5 824,-1832.5 512,-1832.5"/>
<text text-anchor="start" x="519" y="-1843.9" font-family="Arial" font-size="14.00" fill="#000000">circ_as_type    </text>
<text text-anchor="start" x="631.7756" y="-1843.9" font-family="Arial" font-size="14.00" fill="#666666">[text]</text>
<polygon fill="none" stroke="#000000" points="512,-1802.5 512,-1832.5 824,-1832.5 824,-1802.5 512,-1802.5"/>
<text text-anchor="start" x="519" y="-1813.9" font-family="Arial" font-size="14.00" fill="#000000">alert_message    </text>
<text text-anchor="start" x="645.0014" y="-1813.9" font-family="Arial" font-size="14.00" fill="#666666">[text]</text>
<polygon fill="none" stroke="#000000" points="512,-1772.5 512,-1802.5 824,-1802.5 824,-1772.5 512,-1772.5"/>
<text text-anchor="start" x="519" y="-1783.9" font-family="Arial" font-size="14.00" fill="#000000">pub_note    </text>
<text text-anchor="start" x="611.5736" y="-1783.9" font-family="Arial" font-size="14.00" fill="#666666">[text]</text>
<polygon fill="none" stroke="#000000" points="512,-1742.5 512,-1772.5 824,-1772.5 824,-1742.5 512,-1742.5"/>
<text text-anchor="start" x="519" y="-1753.9" font-family="Arial" font-size="14.00" fill="#000000">priv_note    </text>
<text text-anchor="start" x="610.7756" y="-1753.9" font-family="Arial" font-size="14.00" fill="#666666">[text]</text>
<polygon fill="none" stroke="#000000" points="512,-1712.5 512,-1742.5 824,-1742.5 824,-1712.5 512,-1712.5"/>
<text text-anchor="start" x="519" y="-1723.9" font-family="Arial" font-size="14.00" fill="#000000">stat_cat_data    </text>
<text text-anchor="start" x="637.2454" y="-1723.9" font-family="Arial" font-size="14.00" fill="#666666">[text]</text>
<polygon fill="none" stroke="#000000" points="512,-1682.5 512,-1712.5 824,-1712.5 824,-1682.5 512,-1682.5"/>
<text text-anchor="start" x="519" y="-1693.9" font-family="Arial" font-size="14.00" fill="#000000">parts_data    </text>
<text text-anchor="start" x="619.3422" y="-1693.9" font-family="Arial" font-size="14.00" fill="#666666">[text]</text>
<polygon fill="none" stroke="#000000" points="512,-1652.5 512,-1682.5 824,-1682.5 824,-1652.5 512,-1652.5"/>
<text text-anchor="start" x="519" y="-1663.9" font-family="Arial" font-size="14.00" fill="#000000">opac_visible    </text>
<text text-anchor="start" x="630.2202" y="-1663.9" font-family="Arial" font-size="14.00" fill="#666666">[boolean]</text>
<polygon fill="none" stroke="#000000" points="512,-1622.5 512,-1652.5 824,-1652.5 824,-1622.5 512,-1622.5"/>
<text text-anchor="start" x="519" y="-1633.9" font-family="Arial" font-size="14.00" fill="#000000">internal_id    </text>
<text text-anchor="start" x="617.7714" y="-1633.9" font-family="Arial" font-size="14.00" fill="#666666">[bigint]</text>
</g>
<!-- vandelay.import_item&#45;&gt;vandelay.import_item_attr_definition -->
<g id="edge1" class="edge">
<title>vandelay.import_item:definition&#45;&gt;vandelay.import_item_attr_definition:id</title>
<path fill="none" stroke="#000000" d="M831.1833,-2410.3234C868.54,-2330.6836 851.3776,-1614.3657 824,-1580 779.3933,-1524.0073 711.6067,-1599.9927 667,-1544 640.276,-1510.4547 624.1111,-1447.5 667,-1447.5"/>
<polygon fill="#000000" stroke="#000000" points="831.0744,-2410.4322 820.8195,-2414.3165 827.5372,-2413.9661 824,-2417.5 824,-2417.5 824,-2417.5 827.5372,-2413.9661 827.1805,-2420.6835 831.0744,-2410.4322 831.0744,-2410.4322"/>
<text text-anchor="start" x="831.311" y="-2427.5" font-family="Arial" font-size="10.00" fill="#000000">FOREIGN KEY (definition) REFERENCES vandelay.import_item_attr_definition(id) ON DELETE CASCADE DEFERRABLE INITIALLY DEFERRED</text>
</g>
<!-- vandelay.bib_queue -->
<g id="node3" class="node">
<title>vandelay.bib_queue</title>
<polygon fill="#efefef" stroke="transparent" points="929,-2177.5 929,-2212.5 1264,-2212.5 1264,-2177.5 929,-2177.5"/>
<polygon fill="none" stroke="#000000" points="929,-2177.5 929,-2212.5 1264,-2212.5 1264,-2177.5 929,-2177.5"/>
<text text-anchor="start" x="952.1804" y="-2190.3" font-family="Arial Bold" font-size="18.00" fill="#000000">vandelay.bib_queue</text>
<text text-anchor="start" x="1113.2516" y="-2190.3" font-family="Arial" font-size="14.00" fill="#000000">    </text>
<text text-anchor="start" x="1147.4564" y="-2190.3" font-family="Arial" font-size="14.00" fill="#666666">[BASE TABLE]</text>
<polygon fill="none" stroke="#000000" points="929,-2147.5 929,-2177.5 1264,-2177.5 1264,-2147.5 929,-2147.5"/>
<text text-anchor="start" x="936" y="-2158.9" font-family="Arial" font-size="14.00" fill="#000000">id    </text>
<text text-anchor="start" x="981.094" y="-2158.9" font-family="Arial" font-size="14.00" fill="#666666">[bigint]</text>
<polygon fill="none" stroke="#000000" points="929,-2117.5 929,-2147.5 1264,-2147.5 1264,-2117.5 929,-2117.5"/>
<text text-anchor="start" x="936" y="-2128.9" font-family="Arial" font-size="14.00" fill="#000000">owner    </text>
<text text-anchor="start" x="1008.3198" y="-2128.9" font-family="Arial" font-size="14.00" fill="#666666">[integer]</text>
<polygon fill="none" stroke="#000000" points="929,-2087.5 929,-2117.5 1264,-2117.5 1264,-2087.5 929,-2087.5"/>
<text text-anchor="start" x="936" y="-2098.9" font-family="Arial" font-size="14.00" fill="#000000">name    </text>
<text text-anchor="start" x="1005.2132" y="-2098.9" font-family="Arial" font-size="14.00" fill="#666666">[text]</text>
<polygon fill="none" stroke="#000000" points="929,-2057.5 929,-2087.5 1264,-2087.5 1264,-2057.5 929,-2057.5"/>
<text text-anchor="start" x="936" y="-2068.9" font-family="Arial" font-size="14.00" fill="#000000">complete    </text>
<text text-anchor="start" x="1026.993" y="-2068.9" font-family="Arial" font-size="14.00" fill="#666666">[boolean]</text>
<polygon fill="none" stroke="#000000" points="929,-2027.5 929,-2057.5 1264,-2057.5 1264,-2027.5 929,-2027.5"/>
<text text-anchor="start" x="936" y="-2038.9" font-family="Arial" font-size="14.00" fill="#000000">match_set    </text>
<text text-anchor="start" x="1034.777" y="-2038.9" font-family="Arial" font-size="14.00" fill="#666666">[integer]</text>
<polygon fill="none" stroke="#000000" points="929,-1997.5 929,-2027.5 1264,-2027.5 1264,-1997.5 929,-1997.5"/>
<text text-anchor="start" x="935.8255" y="-2008.9" font-family="Arial" font-size="14.00" fill="#000000">queue_type    </text>
<text text-anchor="start" x="1043.1817" y="-2008.9" font-family="Arial" font-size="14.00" fill="#666666">[vandelay.bib_queue_queue_type]</text>
<polygon fill="none" stroke="#000000" points="929,-1967.5 929,-1997.5 1264,-1997.5 1264,-1967.5 929,-1967.5"/>
<text text-anchor="start" x="936" y="-1978.9" font-family="Arial" font-size="14.00" fill="#000000">item_attr_def    </text>
<text text-anchor="start" x="1051.8906" y="-1978.9" font-family="Arial" font-size="14.00" fill="#666666">[bigint]</text>
<polygon fill="none" stroke="#000000" points="929,-1937.5 929,-1967.5 1264,-1967.5 1264,-1937.5 929,-1937.5"/>
<text text-anchor="start" x="936" y="-1948.9" font-family="Arial" font-size="14.00" fill="#000000">match_bucket    </text>
<text text-anchor="start" x="1057.3422" y="-1948.9" font-family="Arial" font-size="14.00" fill="#666666">[integer]</text>
</g>
<!-- vandelay.bib_queue&#45;&gt;vandelay.import_item_attr_definition -->
<g id="edge2" class="edge">
<title>vandelay.bib_queue:item_attr_def&#45;&gt;vandelay.import_item_attr_definition:id</title>
<path fill="none" stroke="#000000" d="M918.8719,-1980.9653C829.9347,-1949.585 1217.7186,-1447.5 1097,-1447.5"/>
<polygon fill="#000000" stroke="#000000" points="919.1129,-1981.0017 928.3258,-1986.9492 924.0564,-1981.7509 929,-1982.5 929,-1982.5 929,-1982.5 924.0564,-1981.7509 929.6742,-1978.0508 919.1129,-1981.0017 919.1129,-1981.0017"/>
<text text-anchor="start" x="936.418" y="-1992.5" font-family="Arial" font-size="10.00" fill="#000000">FOREIGN KEY (item_attr_def) REFERENCES vandelay.import_item_attr_definition(id) ON DELETE SET NULL DEFERRABLE INITIALLY DEFERRED</text>
</g>
</g>
</svg>
