<?xml version="1.0" encoding="UTF-8" standalone="no"?>
<!DOCTYPE svg PUBLIC "-//W3C//DTD SVG 1.1//EN"
 "http://www.w3.org/Graphics/SVG/1.1/DTD/svg11.dtd">
<!-- Generated by graphviz version 2.40.1 (20161225.0304)
 -->
<!-- Title: vandelay.queued_bib_record Pages: 1 -->
<svg width="1829pt" height="2219pt"
 viewBox="0.00 0.00 1829.00 2219.00" xmlns="http://www.w3.org/2000/svg" xmlns:xlink="http://www.w3.org/1999/xlink">
<g id="graph0" class="graph" transform="scale(1 1) rotate(0) translate(4 2215)">
<title>vandelay.queued_bib_record</title>
<polygon fill="#ffffff" stroke="transparent" points="-4,4 -4,-2215 1825,-2215 1825,4 -4,4"/>
<!-- vandelay.queued_bib_record -->
<g id="node1" class="node">
<title>vandelay.queued_bib_record</title>
<polygon fill="#efefef" stroke="transparent" points="655,-1102.5 655,-1137.5 1028,-1137.5 1028,-1102.5 655,-1102.5"/>
<polygon fill="none" stroke="#000000" points="655,-1102.5 655,-1137.5 1028,-1137.5 1028,-1102.5 655,-1102.5"/>
<text text-anchor="start" x="661.6727" y="-1115.3" font-family="Arial Bold" font-size="18.00" fill="#000000">vandelay.queued_bib_record</text>
<text text-anchor="start" x="893.7593" y="-1115.3" font-family="Arial" font-size="14.00" fill="#000000">    </text>
<text text-anchor="start" x="927.9641" y="-1115.3" font-family="Arial" font-size="14.00" fill="#666666">[BASE TABLE]</text>
<polygon fill="none" stroke="#000000" points="655,-1072.5 655,-1102.5 1028,-1102.5 1028,-1072.5 655,-1072.5"/>
<text text-anchor="start" x="662" y="-1083.9" font-family="Arial" font-size="14.00" fill="#000000">id </text>
<text text-anchor="start" x="676.7798" y="-1083.9" font-family="Arial" font-size="14.00" fill="#666666">[bigint]</text>
<polygon fill="none" stroke="#000000" points="655,-1042.5 655,-1072.5 1028,-1072.5 1028,-1042.5 655,-1042.5"/>
<text text-anchor="start" x="662" y="-1053.9" font-family="Arial" font-size="14.00" fill="#000000">create_time </text>
<text text-anchor="start" x="739.0126" y="-1053.9" font-family="Arial" font-size="14.00" fill="#666666">[timestamp with time zone]</text>
<polygon fill="none" stroke="#000000" points="655,-1012.5 655,-1042.5 1028,-1042.5 1028,-1012.5 655,-1012.5"/>
<text text-anchor="start" x="662" y="-1023.9" font-family="Arial" font-size="14.00" fill="#000000">import_time </text>
<text text-anchor="start" x="738.9972" y="-1023.9" font-family="Arial" font-size="14.00" fill="#666666">[timestamp with time zone]</text>
<polygon fill="none" stroke="#000000" points="655,-982.5 655,-1012.5 1028,-1012.5 1028,-982.5 655,-982.5"/>
<text text-anchor="start" x="662" y="-993.9" font-family="Arial" font-size="14.00" fill="#000000">purpose </text>
<text text-anchor="start" x="716.4642" y="-993.9" font-family="Arial" font-size="14.00" fill="#666666">[text]</text>
<polygon fill="none" stroke="#000000" points="655,-952.5 655,-982.5 1028,-982.5 1028,-952.5 655,-952.5"/>
<text text-anchor="start" x="662" y="-963.9" font-family="Arial" font-size="14.00" fill="#000000">marc </text>
<text text-anchor="start" x="696.9944" y="-963.9" font-family="Arial" font-size="14.00" fill="#666666">[text]</text>
<polygon fill="none" stroke="#000000" points="655,-922.5 655,-952.5 1028,-952.5 1028,-922.5 655,-922.5"/>
<text text-anchor="start" x="662" y="-933.9" font-family="Arial" font-size="14.00" fill="#000000">quality </text>
<text text-anchor="start" x="706.3422" y="-933.9" font-family="Arial" font-size="14.00" fill="#666666">[integer]</text>
<polygon fill="none" stroke="#000000" points="655,-892.5 655,-922.5 1028,-922.5 1028,-892.5 655,-892.5"/>
<text text-anchor="start" x="662" y="-903.9" font-family="Arial" font-size="14.00" fill="#000000">queue </text>
<text text-anchor="start" x="704.8036" y="-903.9" font-family="Arial" font-size="14.00" fill="#666666">[integer]</text>
<polygon fill="none" stroke="#000000" points="655,-862.5 655,-892.5 1028,-892.5 1028,-862.5 655,-862.5"/>
<text text-anchor="start" x="662" y="-873.9" font-family="Arial" font-size="14.00" fill="#000000">bib_source </text>
<text text-anchor="start" x="734.3534" y="-873.9" font-family="Arial" font-size="14.00" fill="#666666">[integer]</text>
<polygon fill="none" stroke="#000000" points="655,-832.5 655,-862.5 1028,-862.5 1028,-832.5 655,-832.5"/>
<text text-anchor="start" x="662" y="-843.9" font-family="Arial" font-size="14.00" fill="#000000">imported_as </text>
<text text-anchor="start" x="742.9046" y="-843.9" font-family="Arial" font-size="14.00" fill="#666666">[bigint]</text>
<polygon fill="none" stroke="#000000" points="655,-802.5 655,-832.5 1028,-832.5 1028,-802.5 655,-802.5"/>
<text text-anchor="start" x="662" y="-813.9" font-family="Arial" font-size="14.00" fill="#000000">import_error </text>
<text text-anchor="start" x="742.1038" y="-813.9" font-family="Arial" font-size="14.00" fill="#666666">[text]</text>
<polygon fill="none" stroke="#000000" points="655,-772.5 655,-802.5 1028,-802.5 1028,-772.5 655,-772.5"/>
<text text-anchor="start" x="662" y="-783.9" font-family="Arial" font-size="14.00" fill="#000000">error_detail </text>
<text text-anchor="start" x="736.6718" y="-783.9" font-family="Arial" font-size="14.00" fill="#666666">[text]</text>
<polygon fill="none" stroke="#000000" stroke-width="3" points="653,-771.5 653,-1139.5 1029,-1139.5 1029,-771.5 653,-771.5"/>
</g>
<!-- vandelay.bib_queue -->
<g id="node6" class="node">
<title>vandelay.bib_queue</title>
<polygon fill="#efefef" stroke="transparent" points="67,-447.5 67,-482.5 402,-482.5 402,-447.5 67,-447.5"/>
<polygon fill="none" stroke="#000000" points="67,-447.5 67,-482.5 402,-482.5 402,-447.5 67,-447.5"/>
<text text-anchor="start" x="90.1804" y="-460.3" font-family="Arial Bold" font-size="18.00" fill="#000000">vandelay.bib_queue</text>
<text text-anchor="start" x="251.2516" y="-460.3" font-family="Arial" font-size="14.00" fill="#000000">    </text>
<text text-anchor="start" x="285.4564" y="-460.3" font-family="Arial" font-size="14.00" fill="#666666">[BASE TABLE]</text>
<polygon fill="none" stroke="#000000" points="67,-417.5 67,-447.5 402,-447.5 402,-417.5 67,-417.5"/>
<text text-anchor="start" x="74" y="-428.9" font-family="Arial" font-size="14.00" fill="#000000">id    </text>
<text text-anchor="start" x="119.094" y="-428.9" font-family="Arial" font-size="14.00" fill="#666666">[bigint]</text>
<polygon fill="none" stroke="#000000" points="67,-387.5 67,-417.5 402,-417.5 402,-387.5 67,-387.5"/>
<text text-anchor="start" x="74" y="-398.9" font-family="Arial" font-size="14.00" fill="#000000">owner    </text>
<text text-anchor="start" x="146.3198" y="-398.9" font-family="Arial" font-size="14.00" fill="#666666">[integer]</text>
<polygon fill="none" stroke="#000000" points="67,-357.5 67,-387.5 402,-387.5 402,-357.5 67,-357.5"/>
<text text-anchor="start" x="74" y="-368.9" font-family="Arial" font-size="14.00" fill="#000000">name    </text>
<text text-anchor="start" x="143.2132" y="-368.9" font-family="Arial" font-size="14.00" fill="#666666">[text]</text>
<polygon fill="none" stroke="#000000" points="67,-327.5 67,-357.5 402,-357.5 402,-327.5 67,-327.5"/>
<text text-anchor="start" x="74" y="-338.9" font-family="Arial" font-size="14.00" fill="#000000">complete    </text>
<text text-anchor="start" x="164.993" y="-338.9" font-family="Arial" font-size="14.00" fill="#666666">[boolean]</text>
<polygon fill="none" stroke="#000000" points="67,-297.5 67,-327.5 402,-327.5 402,-297.5 67,-297.5"/>
<text text-anchor="start" x="74" y="-308.9" font-family="Arial" font-size="14.00" fill="#000000">match_set    </text>
<text text-anchor="start" x="172.777" y="-308.9" font-family="Arial" font-size="14.00" fill="#666666">[integer]</text>
<polygon fill="none" stroke="#000000" points="67,-267.5 67,-297.5 402,-297.5 402,-267.5 67,-267.5"/>
<text text-anchor="start" x="73.8255" y="-278.9" font-family="Arial" font-size="14.00" fill="#000000">queue_type    </text>
<text text-anchor="start" x="181.1817" y="-278.9" font-family="Arial" font-size="14.00" fill="#666666">[vandelay.bib_queue_queue_type]</text>
<polygon fill="none" stroke="#000000" points="67,-237.5 67,-267.5 402,-267.5 402,-237.5 67,-237.5"/>
<text text-anchor="start" x="74" y="-248.9" font-family="Arial" font-size="14.00" fill="#000000">item_attr_def    </text>
<text text-anchor="start" x="189.8906" y="-248.9" font-family="Arial" font-size="14.00" fill="#666666">[bigint]</text>
<polygon fill="none" stroke="#000000" points="67,-207.5 67,-237.5 402,-237.5 402,-207.5 67,-207.5"/>
<text text-anchor="start" x="74" y="-218.9" font-family="Arial" font-size="14.00" fill="#000000">match_bucket    </text>
<text text-anchor="start" x="195.3422" y="-218.9" font-family="Arial" font-size="14.00" fill="#666666">[integer]</text>
</g>
<!-- vandelay.queued_bib_record&#45;&gt;vandelay.bib_queue -->
<g id="edge5" class="edge">
<title>vandelay.queued_bib_record:queue&#45;&gt;vandelay.bib_queue:id</title>
<path fill="none" stroke="#000000" d="M644.8643,-907.2937C523.1483,-902.2335 512.2824,-804.777 454,-691 427.2856,-638.8489 460.5952,-432.5 402,-432.5"/>
<polygon fill="#000000" stroke="#000000" points="645.0021,-907.2964 654.9084,-911.9991 650.001,-907.3982 655,-907.5 655,-907.5 655,-907.5 650.001,-907.3982 655.0916,-903.0009 645.0021,-907.2964 645.0021,-907.2964"/>
<text text-anchor="start" x="77.9695" y="-917.5" font-family="Arial" font-size="10.00" fill="#000000">FOREIGN KEY (queue) REFERENCES vandelay.bib_queue(id) ON DELETE CASCADE DEFERRABLE INITIALLY DEFERRED</text>
</g>
<!-- config.bib_source -->
<g id="node7" class="node">
<title>config.bib_source</title>
<polygon fill="#efefef" stroke="transparent" points="506,-402.5 506,-437.5 788,-437.5 788,-402.5 506,-402.5"/>
<polygon fill="none" stroke="#000000" points="506,-402.5 506,-437.5 788,-437.5 788,-402.5 506,-402.5"/>
<text text-anchor="start" x="512.6956" y="-415.3" font-family="Arial Bold" font-size="18.00" fill="#000000">config.bib_source</text>
<text text-anchor="start" x="653.7364" y="-415.3" font-family="Arial" font-size="14.00" fill="#000000">    </text>
<text text-anchor="start" x="687.9412" y="-415.3" font-family="Arial" font-size="14.00" fill="#666666">[BASE TABLE]</text>
<polygon fill="none" stroke="#000000" points="506,-372.5 506,-402.5 788,-402.5 788,-372.5 506,-372.5"/>
<text text-anchor="start" x="513" y="-383.9" font-family="Arial" font-size="14.00" fill="#000000">id    </text>
<text text-anchor="start" x="558.094" y="-383.9" font-family="Arial" font-size="14.00" fill="#666666">[integer]</text>
<polygon fill="none" stroke="#000000" points="506,-342.5 506,-372.5 788,-372.5 788,-342.5 506,-342.5"/>
<text text-anchor="start" x="513" y="-353.9" font-family="Arial" font-size="14.00" fill="#000000">quality    </text>
<text text-anchor="start" x="587.6564" y="-353.9" font-family="Arial" font-size="14.00" fill="#666666">[integer]</text>
<polygon fill="none" stroke="#000000" points="506,-312.5 506,-342.5 788,-342.5 788,-312.5 506,-312.5"/>
<text text-anchor="start" x="513" y="-323.9" font-family="Arial" font-size="14.00" fill="#000000">source    </text>
<text text-anchor="start" x="589.2132" y="-323.9" font-family="Arial" font-size="14.00" fill="#666666">[text]</text>
<polygon fill="none" stroke="#000000" points="506,-282.5 506,-312.5 788,-312.5 788,-282.5 506,-282.5"/>
<text text-anchor="start" x="513" y="-293.9" font-family="Arial" font-size="14.00" fill="#000000">transcendant    </text>
<text text-anchor="start" x="628.1248" y="-293.9" font-family="Arial" font-size="14.00" fill="#666666">[boolean]</text>
<polygon fill="none" stroke="#000000" points="506,-252.5 506,-282.5 788,-282.5 788,-252.5 506,-252.5"/>
<text text-anchor="start" x="513" y="-263.9" font-family="Arial" font-size="14.00" fill="#000000">can_have_copies    </text>
<text text-anchor="start" x="656.1374" y="-263.9" font-family="Arial" font-size="14.00" fill="#666666">[boolean]</text>
</g>
<!-- vandelay.queued_bib_record&#45;&gt;config.bib_source -->
<g id="edge6" class="edge">
<title>vandelay.queued_bib_record:bib_source&#45;&gt;config.bib_source:id</title>
<path fill="none" stroke="#000000" d="M644.7159,-877.1224C447.9627,-861.8362 1010.0214,-387.5 788,-387.5"/>
<polygon fill="#000000" stroke="#000000" points="645.0067,-877.133 654.8349,-881.997 650.0034,-877.3165 655,-877.5 655,-877.5 655,-877.5 650.0034,-877.3165 655.1651,-873.003 645.0067,-877.133 645.0067,-877.133"/>
<text text-anchor="start" x="179.261" y="-887.5" font-family="Arial" font-size="10.00" fill="#000000">FOREIGN KEY (bib_source) REFERENCES config.bib_source(id) DEFERRABLE INITIALLY DEFERRED</text>
</g>
<!-- biblio.record_entry -->
<g id="node8" class="node">
<title>biblio.record_entry</title>
<polygon fill="#efefef" stroke="transparent" points="893,-612.5 893,-647.5 1182,-647.5 1182,-612.5 893,-612.5"/>
<polygon fill="none" stroke="#000000" points="893,-612.5 893,-647.5 1182,-647.5 1182,-612.5 893,-612.5"/>
<text text-anchor="start" x="899.7063" y="-625.3" font-family="Arial Bold" font-size="18.00" fill="#000000">biblio.record_entry</text>
<text text-anchor="start" x="1047.7257" y="-625.3" font-family="Arial" font-size="14.00" fill="#000000">    </text>
<text text-anchor="start" x="1081.9305" y="-625.3" font-family="Arial" font-size="14.00" fill="#666666">[BASE TABLE]</text>
<polygon fill="none" stroke="#000000" points="893,-582.5 893,-612.5 1182,-612.5 1182,-582.5 893,-582.5"/>
<text text-anchor="start" x="900" y="-593.9" font-family="Arial" font-size="14.00" fill="#000000">id    </text>
<text text-anchor="start" x="945.094" y="-593.9" font-family="Arial" font-size="14.00" fill="#666666">[bigint]</text>
<polygon fill="none" stroke="#000000" points="893,-552.5 893,-582.5 1182,-582.5 1182,-552.5 893,-552.5"/>
<text text-anchor="start" x="900" y="-563.9" font-family="Arial" font-size="14.00" fill="#000000">creator    </text>
<text text-anchor="start" x="977.7644" y="-563.9" font-family="Arial" font-size="14.00" fill="#666666">[integer]</text>
<polygon fill="none" stroke="#000000" points="893,-522.5 893,-552.5 1182,-552.5 1182,-522.5 893,-522.5"/>
<text text-anchor="start" x="900" y="-533.9" font-family="Arial" font-size="14.00" fill="#000000">editor    </text>
<text text-anchor="start" x="969.2104" y="-533.9" font-family="Arial" font-size="14.00" fill="#666666">[integer]</text>
<polygon fill="none" stroke="#000000" points="893,-492.5 893,-522.5 1182,-522.5 1182,-492.5 893,-492.5"/>
<text text-anchor="start" x="900" y="-503.9" font-family="Arial" font-size="14.00" fill="#000000">source    </text>
<text text-anchor="start" x="976.2132" y="-503.9" font-family="Arial" font-size="14.00" fill="#666666">[integer]</text>
<polygon fill="none" stroke="#000000" points="893,-462.5 893,-492.5 1182,-492.5 1182,-462.5 893,-462.5"/>
<text text-anchor="start" x="900" y="-473.9" font-family="Arial" font-size="14.00" fill="#000000">quality    </text>
<text text-anchor="start" x="974.6564" y="-473.9" font-family="Arial" font-size="14.00" fill="#666666">[integer]</text>
<polygon fill="none" stroke="#000000" points="893,-432.5 893,-462.5 1182,-462.5 1182,-432.5 893,-432.5"/>
<text text-anchor="start" x="900" y="-443.9" font-family="Arial" font-size="14.00" fill="#000000">create_date    </text>
<text text-anchor="start" x="1008.1248" y="-443.9" font-family="Arial" font-size="14.00" fill="#666666">[timestamp with time zone]</text>
<polygon fill="none" stroke="#000000" points="893,-402.5 893,-432.5 1182,-432.5 1182,-402.5 893,-402.5"/>
<text text-anchor="start" x="900" y="-413.9" font-family="Arial" font-size="14.00" fill="#000000">edit_date    </text>
<text text-anchor="start" x="991.7882" y="-413.9" font-family="Arial" font-size="14.00" fill="#666666">[timestamp with time zone]</text>
<polygon fill="none" stroke="#000000" points="893,-372.5 893,-402.5 1182,-402.5 1182,-372.5 893,-372.5"/>
<text text-anchor="start" x="900" y="-383.9" font-family="Arial" font-size="14.00" fill="#000000">active    </text>
<text text-anchor="start" x="970.7672" y="-383.9" font-family="Arial" font-size="14.00" fill="#666666">[boolean]</text>
<polygon fill="none" stroke="#000000" points="893,-342.5 893,-372.5 1182,-372.5 1182,-342.5 893,-342.5"/>
<text text-anchor="start" x="900" y="-353.9" font-family="Arial" font-size="14.00" fill="#000000">deleted    </text>
<text text-anchor="start" x="980.115" y="-353.9" font-family="Arial" font-size="14.00" fill="#666666">[boolean]</text>
<polygon fill="none" stroke="#000000" points="893,-312.5 893,-342.5 1182,-342.5 1182,-312.5 893,-312.5"/>
<text text-anchor="start" x="900" y="-323.9" font-family="Arial" font-size="14.00" fill="#000000">fingerprint    </text>
<text text-anchor="start" x="996.4334" y="-323.9" font-family="Arial" font-size="14.00" fill="#666666">[text]</text>
<polygon fill="none" stroke="#000000" points="893,-282.5 893,-312.5 1182,-312.5 1182,-282.5 893,-282.5"/>
<text text-anchor="start" x="900" y="-293.9" font-family="Arial" font-size="14.00" fill="#000000">tcn_source    </text>
<text text-anchor="start" x="1002.669" y="-293.9" font-family="Arial" font-size="14.00" fill="#666666">[text]</text>
<polygon fill="none" stroke="#000000" points="893,-252.5 893,-282.5 1182,-282.5 1182,-252.5 893,-252.5"/>
<text text-anchor="start" x="900" y="-263.9" font-family="Arial" font-size="14.00" fill="#000000">tcn_value    </text>
<text text-anchor="start" x="994.115" y="-263.9" font-family="Arial" font-size="14.00" fill="#666666">[text]</text>
<polygon fill="none" stroke="#000000" points="893,-222.5 893,-252.5 1182,-252.5 1182,-222.5 893,-222.5"/>
<text text-anchor="start" x="900" y="-233.9" font-family="Arial" font-size="14.00" fill="#000000">marc    </text>
<text text-anchor="start" x="965.3086" y="-233.9" font-family="Arial" font-size="14.00" fill="#666666">[text]</text>
<polygon fill="none" stroke="#000000" points="893,-192.5 893,-222.5 1182,-222.5 1182,-192.5 893,-192.5"/>
<text text-anchor="start" x="900" y="-203.9" font-family="Arial" font-size="14.00" fill="#000000">last_xact_id    </text>
<text text-anchor="start" x="1008.1122" y="-203.9" font-family="Arial" font-size="14.00" fill="#666666">[text]</text>
<polygon fill="none" stroke="#000000" points="893,-162.5 893,-192.5 1182,-192.5 1182,-162.5 893,-162.5"/>
<text text-anchor="start" x="900" y="-173.9" font-family="Arial" font-size="14.00" fill="#000000">vis_attr_vector    </text>
<text text-anchor="start" x="1025.2174" y="-173.9" font-family="Arial" font-size="14.00" fill="#666666">[integer[]]</text>
<polygon fill="none" stroke="#000000" points="893,-132.5 893,-162.5 1182,-162.5 1182,-132.5 893,-132.5"/>
<text text-anchor="start" x="900" y="-143.9" font-family="Arial" font-size="14.00" fill="#000000">owner    </text>
<text text-anchor="start" x="972.3198" y="-143.9" font-family="Arial" font-size="14.00" fill="#666666">[integer]</text>
<polygon fill="none" stroke="#000000" points="893,-102.5 893,-132.5 1182,-132.5 1182,-102.5 893,-102.5"/>
<text text-anchor="start" x="900" y="-113.9" font-family="Arial" font-size="14.00" fill="#000000">share_depth    </text>
<text text-anchor="start" x="1012.0168" y="-113.9" font-family="Arial" font-size="14.00" fill="#666666">[integer]</text>
<polygon fill="none" stroke="#000000" points="893,-72.5 893,-102.5 1182,-102.5 1182,-72.5 893,-72.5"/>
<text text-anchor="start" x="900" y="-83.9" font-family="Arial" font-size="14.00" fill="#000000">merge_date    </text>
<text text-anchor="start" x="1008.8948" y="-83.9" font-family="Arial" font-size="14.00" fill="#666666">[timestamp with time zone]</text>
<polygon fill="none" stroke="#000000" points="893,-42.5 893,-72.5 1182,-72.5 1182,-42.5 893,-42.5"/>
<text text-anchor="start" x="900" y="-53.9" font-family="Arial" font-size="14.00" fill="#000000">merged_to    </text>
<text text-anchor="start" x="1001.1122" y="-53.9" font-family="Arial" font-size="14.00" fill="#666666">[bigint]</text>
</g>
<!-- vandelay.queued_bib_record&#45;&gt;biblio.record_entry -->
<g id="edge7" class="edge">
<title>vandelay.queued_bib_record:imported_as&#45;&gt;biblio.record_entry:id</title>
<path fill="none" stroke="#000000" d="M1037.9589,-846.4424C1078.6397,-836.9979 1058.3976,-766.5658 1028,-727 990.1684,-677.758 930.8316,-740.242 893,-691 867.6829,-658.0469 851.4444,-597.5 893,-597.5"/>
<polygon fill="#000000" stroke="#000000" points="1037.9441,-846.4439 1027.5247,-843.0252 1032.972,-846.9719 1028,-847.5 1028,-847.5 1028,-847.5 1032.972,-846.9719 1028.4753,-851.9748 1037.9441,-846.4439 1037.9441,-846.4439"/>
<text text-anchor="start" x="1035.2685" y="-857.5" font-family="Arial" font-size="10.00" fill="#000000">FOREIGN KEY (imported_as) REFERENCES biblio.record_entry(id) DEFERRABLE INITIALLY DEFERRED</text>
</g>
<!-- vandelay.import_error -->
<g id="node9" class="node">
<title>vandelay.import_error</title>
<polygon fill="#efefef" stroke="transparent" points="1286,-357.5 1286,-392.5 1602,-392.5 1602,-357.5 1286,-357.5"/>
<polygon fill="none" stroke="#000000" points="1286,-357.5 1286,-392.5 1602,-392.5 1602,-357.5 1286,-357.5"/>
<text text-anchor="start" x="1292.7081" y="-370.3" font-family="Arial Bold" font-size="18.00" fill="#000000">vandelay.import_error</text>
<text text-anchor="start" x="1467.7239" y="-370.3" font-family="Arial" font-size="14.00" fill="#000000">    </text>
<text text-anchor="start" x="1501.9287" y="-370.3" font-family="Arial" font-size="14.00" fill="#666666">[BASE TABLE]</text>
<polygon fill="none" stroke="#000000" points="1286,-327.5 1286,-357.5 1602,-357.5 1602,-327.5 1286,-327.5"/>
<text text-anchor="start" x="1293" y="-338.9" font-family="Arial" font-size="14.00" fill="#000000">code    </text>
<text text-anchor="start" x="1357.5526" y="-338.9" font-family="Arial" font-size="14.00" fill="#666666">[text]</text>
<polygon fill="none" stroke="#000000" points="1286,-297.5 1286,-327.5 1602,-327.5 1602,-297.5 1286,-297.5"/>
<text text-anchor="start" x="1293" y="-308.9" font-family="Arial" font-size="14.00" fill="#000000">description    </text>
<text text-anchor="start" x="1394.8822" y="-308.9" font-family="Arial" font-size="14.00" fill="#666666">[text]</text>
</g>
<!-- vandelay.queued_bib_record&#45;&gt;vandelay.import_error -->
<g id="edge8" class="edge">
<title>vandelay.queued_bib_record:import_error&#45;&gt;vandelay.import_error:code</title>
<path fill="none" stroke="#000000" d="M1038.178,-817.3846C1137.9945,-815.0686 1176.6613,-777.7388 1234,-691 1277.1797,-625.6801 1207.6982,-342.5 1286,-342.5"/>
<polygon fill="#000000" stroke="#000000" points="1037.9994,-817.3865 1027.9489,-813.0003 1032.9997,-817.4433 1028,-817.5 1028,-817.5 1028,-817.5 1032.9997,-817.4433 1028.0511,-821.9997 1037.9994,-817.3865 1037.9994,-817.3865"/>
<text text-anchor="start" x="1034.9895" y="-827.5" font-family="Arial" font-size="10.00" fill="#000000">FOREIGN KEY (import_error) REFERENCES vandelay.import_error(code) ON UPDATE CASCADE ON DELETE SET NULL DEFERRABLE INITIALLY DEFERRED</text>
</g>
<!-- vandelay.import_item -->
<g id="node2" class="node">
<title>vandelay.import_item</title>
<polygon fill="#efefef" stroke="transparent" points="43,-2132.5 43,-2167.5 355,-2167.5 355,-2132.5 43,-2132.5"/>
<polygon fill="none" stroke="#000000" points="43,-2132.5 43,-2167.5 355,-2167.5 355,-2132.5 43,-2132.5"/>
<text text-anchor="start" x="49.7052" y="-2145.3" font-family="Arial Bold" font-size="18.00" fill="#000000">vandelay.import_item</text>
<text text-anchor="start" x="220.7268" y="-2145.3" font-family="Arial" font-size="14.00" fill="#000000">    </text>
<text text-anchor="start" x="254.9316" y="-2145.3" font-family="Arial" font-size="14.00" fill="#666666">[BASE TABLE]</text>
<polygon fill="none" stroke="#000000" points="43,-2102.5 43,-2132.5 355,-2132.5 355,-2102.5 43,-2102.5"/>
<text text-anchor="start" x="50" y="-2113.9" font-family="Arial" font-size="14.00" fill="#000000">id    </text>
<text text-anchor="start" x="95.094" y="-2113.9" font-family="Arial" font-size="14.00" fill="#666666">[bigint]</text>
<polygon fill="none" stroke="#000000" points="43,-2072.5 43,-2102.5 355,-2102.5 355,-2072.5 43,-2072.5"/>
<text text-anchor="start" x="50" y="-2083.9" font-family="Arial" font-size="14.00" fill="#000000">record    </text>
<text text-anchor="start" x="123.8738" y="-2083.9" font-family="Arial" font-size="14.00" fill="#666666">[bigint]</text>
<polygon fill="none" stroke="#000000" points="43,-2042.5 43,-2072.5 355,-2072.5 355,-2042.5 43,-2042.5"/>
<text text-anchor="start" x="50" y="-2053.9" font-family="Arial" font-size="14.00" fill="#000000">definition    </text>
<text text-anchor="start" x="140.2188" y="-2053.9" font-family="Arial" font-size="14.00" fill="#666666">[bigint]</text>
<polygon fill="none" stroke="#000000" points="43,-2012.5 43,-2042.5 355,-2042.5 355,-2012.5 43,-2012.5"/>
<text text-anchor="start" x="50" y="-2023.9" font-family="Arial" font-size="14.00" fill="#000000">import_error    </text>
<text text-anchor="start" x="160.418" y="-2023.9" font-family="Arial" font-size="14.00" fill="#666666">[text]</text>
<polygon fill="none" stroke="#000000" points="43,-1982.5 43,-2012.5 355,-2012.5 355,-1982.5 43,-1982.5"/>
<text text-anchor="start" x="50" y="-1993.9" font-family="Arial" font-size="14.00" fill="#000000">error_detail    </text>
<text text-anchor="start" x="154.986" y="-1993.9" font-family="Arial" font-size="14.00" fill="#666666">[text]</text>
<polygon fill="none" stroke="#000000" points="43,-1952.5 43,-1982.5 355,-1982.5 355,-1952.5 43,-1952.5"/>
<text text-anchor="start" x="50" y="-1963.9" font-family="Arial" font-size="14.00" fill="#000000">imported_as    </text>
<text text-anchor="start" x="161.2188" y="-1963.9" font-family="Arial" font-size="14.00" fill="#666666">[bigint]</text>
<polygon fill="none" stroke="#000000" points="43,-1922.5 43,-1952.5 355,-1952.5 355,-1922.5 43,-1922.5"/>
<text text-anchor="start" x="50" y="-1933.9" font-family="Arial" font-size="14.00" fill="#000000">import_time    </text>
<text text-anchor="start" x="157.3114" y="-1933.9" font-family="Arial" font-size="14.00" fill="#666666">[timestamp with time zone]</text>
<polygon fill="none" stroke="#000000" points="43,-1892.5 43,-1922.5 355,-1922.5 355,-1892.5 43,-1892.5"/>
<text text-anchor="start" x="50" y="-1903.9" font-family="Arial" font-size="14.00" fill="#000000">owning_lib    </text>
<text text-anchor="start" x="150.3268" y="-1903.9" font-family="Arial" font-size="14.00" fill="#666666">[integer]</text>
<polygon fill="none" stroke="#000000" points="43,-1862.5 43,-1892.5 355,-1892.5 355,-1862.5 43,-1862.5"/>
<text text-anchor="start" x="50" y="-1873.9" font-family="Arial" font-size="14.00" fill="#000000">circ_lib    </text>
<text text-anchor="start" x="127.7504" y="-1873.9" font-family="Arial" font-size="14.00" fill="#666666">[integer]</text>
<polygon fill="none" stroke="#000000" points="43,-1832.5 43,-1862.5 355,-1862.5 355,-1832.5 43,-1832.5"/>
<text text-anchor="start" x="50" y="-1843.9" font-family="Arial" font-size="14.00" fill="#000000">call_number    </text>
<text text-anchor="start" x="160.4348" y="-1843.9" font-family="Arial" font-size="14.00" fill="#666666">[text]</text>
<polygon fill="none" stroke="#000000" points="43,-1802.5 43,-1832.5 355,-1832.5 355,-1802.5 43,-1802.5"/>
<text text-anchor="start" x="50" y="-1813.9" font-family="Arial" font-size="14.00" fill="#000000">copy_number    </text>
<text text-anchor="start" x="169.0042" y="-1813.9" font-family="Arial" font-size="14.00" fill="#666666">[integer]</text>
<polygon fill="none" stroke="#000000" points="43,-1772.5 43,-1802.5 355,-1802.5 355,-1772.5 43,-1772.5"/>
<text text-anchor="start" x="50" y="-1783.9" font-family="Arial" font-size="14.00" fill="#000000">status    </text>
<text text-anchor="start" x="121.5512" y="-1783.9" font-family="Arial" font-size="14.00" fill="#666666">[integer]</text>
<polygon fill="none" stroke="#000000" points="43,-1742.5 43,-1772.5 355,-1772.5 355,-1742.5 43,-1742.5"/>
<text text-anchor="start" x="50" y="-1753.9" font-family="Arial" font-size="14.00" fill="#000000">location    </text>
<text text-anchor="start" x="132.439" y="-1753.9" font-family="Arial" font-size="14.00" fill="#666666">[integer]</text>
<polygon fill="none" stroke="#000000" points="43,-1712.5 43,-1742.5 355,-1742.5 355,-1712.5 43,-1712.5"/>
<text text-anchor="start" x="50" y="-1723.9" font-family="Arial" font-size="14.00" fill="#000000">circulate    </text>
<text text-anchor="start" x="136.317" y="-1723.9" font-family="Arial" font-size="14.00" fill="#666666">[boolean]</text>
<polygon fill="none" stroke="#000000" points="43,-1682.5 43,-1712.5 355,-1712.5 355,-1682.5 43,-1682.5"/>
<text text-anchor="start" x="50" y="-1693.9" font-family="Arial" font-size="14.00" fill="#000000">deposit    </text>
<text text-anchor="start" x="129.3324" y="-1693.9" font-family="Arial" font-size="14.00" fill="#666666">[boolean]</text>
<polygon fill="none" stroke="#000000" points="43,-1652.5 43,-1682.5 355,-1682.5 355,-1652.5 43,-1652.5"/>
<text text-anchor="start" x="50" y="-1663.9" font-family="Arial" font-size="14.00" fill="#000000">deposit_amount    </text>
<text text-anchor="start" x="183.7966" y="-1663.9" font-family="Arial" font-size="14.00" fill="#666666">[numeric(8,2)]</text>
<polygon fill="none" stroke="#000000" points="43,-1622.5 43,-1652.5 355,-1652.5 355,-1622.5 43,-1622.5"/>
<text text-anchor="start" x="50" y="-1633.9" font-family="Arial" font-size="14.00" fill="#000000">ref    </text>
<text text-anchor="start" x="100.5386" y="-1633.9" font-family="Arial" font-size="14.00" fill="#666666">[boolean]</text>
<polygon fill="none" stroke="#000000" points="43,-1592.5 43,-1622.5 355,-1622.5 355,-1592.5 43,-1592.5"/>
<text text-anchor="start" x="50" y="-1603.9" font-family="Arial" font-size="14.00" fill="#000000">holdable    </text>
<text text-anchor="start" x="137.1136" y="-1603.9" font-family="Arial" font-size="14.00" fill="#666666">[boolean]</text>
<polygon fill="none" stroke="#000000" points="43,-1562.5 43,-1592.5 355,-1592.5 355,-1562.5 43,-1562.5"/>
<text text-anchor="start" x="50" y="-1573.9" font-family="Arial" font-size="14.00" fill="#000000">price    </text>
<text text-anchor="start" x="114.5372" y="-1573.9" font-family="Arial" font-size="14.00" fill="#666666">[numeric(8,2)]</text>
<polygon fill="none" stroke="#000000" points="43,-1532.5 43,-1562.5 355,-1562.5 355,-1532.5 43,-1532.5"/>
<text text-anchor="start" x="50" y="-1543.9" font-family="Arial" font-size="14.00" fill="#000000">barcode    </text>
<text text-anchor="start" x="134.7784" y="-1543.9" font-family="Arial" font-size="14.00" fill="#666666">[text]</text>
<polygon fill="none" stroke="#000000" points="43,-1502.5 43,-1532.5 355,-1532.5 355,-1502.5 43,-1502.5"/>
<text text-anchor="start" x="50" y="-1513.9" font-family="Arial" font-size="14.00" fill="#000000">circ_modifier    </text>
<text text-anchor="start" x="163.5274" y="-1513.9" font-family="Arial" font-size="14.00" fill="#666666">[text]</text>
<polygon fill="none" stroke="#000000" points="43,-1472.5 43,-1502.5 355,-1502.5 355,-1472.5 43,-1472.5"/>
<text text-anchor="start" x="50" y="-1483.9" font-family="Arial" font-size="14.00" fill="#000000">circ_as_type    </text>
<text text-anchor="start" x="162.7756" y="-1483.9" font-family="Arial" font-size="14.00" fill="#666666">[text]</text>
<polygon fill="none" stroke="#000000" points="43,-1442.5 43,-1472.5 355,-1472.5 355,-1442.5 43,-1442.5"/>
<text text-anchor="start" x="50" y="-1453.9" font-family="Arial" font-size="14.00" fill="#000000">alert_message    </text>
<text text-anchor="start" x="176.0014" y="-1453.9" font-family="Arial" font-size="14.00" fill="#666666">[text]</text>
<polygon fill="none" stroke="#000000" points="43,-1412.5 43,-1442.5 355,-1442.5 355,-1412.5 43,-1412.5"/>
<text text-anchor="start" x="50" y="-1423.9" font-family="Arial" font-size="14.00" fill="#000000">pub_note    </text>
<text text-anchor="start" x="142.5736" y="-1423.9" font-family="Arial" font-size="14.00" fill="#666666">[text]</text>
<polygon fill="none" stroke="#000000" points="43,-1382.5 43,-1412.5 355,-1412.5 355,-1382.5 43,-1382.5"/>
<text text-anchor="start" x="50" y="-1393.9" font-family="Arial" font-size="14.00" fill="#000000">priv_note    </text>
<text text-anchor="start" x="141.7756" y="-1393.9" font-family="Arial" font-size="14.00" fill="#666666">[text]</text>
<polygon fill="none" stroke="#000000" points="43,-1352.5 43,-1382.5 355,-1382.5 355,-1352.5 43,-1352.5"/>
<text text-anchor="start" x="50" y="-1363.9" font-family="Arial" font-size="14.00" fill="#000000">stat_cat_data    </text>
<text text-anchor="start" x="168.2454" y="-1363.9" font-family="Arial" font-size="14.00" fill="#666666">[text]</text>
<polygon fill="none" stroke="#000000" points="43,-1322.5 43,-1352.5 355,-1352.5 355,-1322.5 43,-1322.5"/>
<text text-anchor="start" x="50" y="-1333.9" font-family="Arial" font-size="14.00" fill="#000000">parts_data    </text>
<text text-anchor="start" x="150.3422" y="-1333.9" font-family="Arial" font-size="14.00" fill="#666666">[text]</text>
<polygon fill="none" stroke="#000000" points="43,-1292.5 43,-1322.5 355,-1322.5 355,-1292.5 43,-1292.5"/>
<text text-anchor="start" x="50" y="-1303.9" font-family="Arial" font-size="14.00" fill="#000000">opac_visible    </text>
<text text-anchor="start" x="161.2202" y="-1303.9" font-family="Arial" font-size="14.00" fill="#666666">[boolean]</text>
<polygon fill="none" stroke="#000000" points="43,-1262.5 43,-1292.5 355,-1292.5 355,-1262.5 43,-1262.5"/>
<text text-anchor="start" x="50" y="-1273.9" font-family="Arial" font-size="14.00" fill="#000000">internal_id    </text>
<text text-anchor="start" x="148.7714" y="-1273.9" font-family="Arial" font-size="14.00" fill="#666666">[bigint]</text>
</g>
<!-- vandelay.import_item&#45;&gt;vandelay.queued_bib_record -->
<g id="edge1" class="edge">
<title>vandelay.import_item:record&#45;&gt;vandelay.queued_bib_record:id</title>
<path fill="none" stroke="#000000" d="M364.9692,-2084.3281C444.5921,-2030.1197 356.8267,-1298.2793 407,-1220 474.4352,-1114.7891 530.0326,-1087.5 655,-1087.5"/>
<polygon fill="#000000" stroke="#000000" points="364.5293,-2084.468 353.6356,-2083.2118 359.7647,-2085.984 355,-2087.5 355,-2087.5 355,-2087.5 359.7647,-2085.984 356.3644,-2091.7882 364.5293,-2084.468 364.5293,-2084.468"/>
<text text-anchor="start" x="361.973" y="-2097.5" font-family="Arial" font-size="10.00" fill="#000000">FOREIGN KEY (record) REFERENCES vandelay.queued_bib_record(id) ON DELETE CASCADE DEFERRABLE INITIALLY DEFERRED</text>
</g>
<!-- acq.lineitem -->
<g id="node3" class="node">
<title>acq.lineitem</title>
<polygon fill="#efefef" stroke="transparent" points="460,-1967.5 460,-2002.5 799,-2002.5 799,-1967.5 460,-1967.5"/>
<polygon fill="none" stroke="#000000" points="460,-1967.5 460,-2002.5 799,-2002.5 799,-1967.5 460,-1967.5"/>
<text text-anchor="start" x="517.7109" y="-1980.3" font-family="Arial Bold" font-size="18.00" fill="#000000">acq.lineitem</text>
<text text-anchor="start" x="613.7211" y="-1980.3" font-family="Arial" font-size="14.00" fill="#000000">    </text>
<text text-anchor="start" x="647.9259" y="-1980.3" font-family="Arial" font-size="14.00" fill="#666666">[BASE TABLE]</text>
<polygon fill="none" stroke="#000000" points="460,-1937.5 460,-1967.5 799,-1967.5 799,-1937.5 460,-1937.5"/>
<text text-anchor="start" x="467" y="-1948.9" font-family="Arial" font-size="14.00" fill="#000000">id    </text>
<text text-anchor="start" x="512.094" y="-1948.9" font-family="Arial" font-size="14.00" fill="#666666">[bigint]</text>
<polygon fill="none" stroke="#000000" points="460,-1907.5 460,-1937.5 799,-1937.5 799,-1907.5 460,-1907.5"/>
<text text-anchor="start" x="467" y="-1918.9" font-family="Arial" font-size="14.00" fill="#000000">creator    </text>
<text text-anchor="start" x="544.7644" y="-1918.9" font-family="Arial" font-size="14.00" fill="#666666">[integer]</text>
<polygon fill="none" stroke="#000000" points="460,-1877.5 460,-1907.5 799,-1907.5 799,-1877.5 460,-1877.5"/>
<text text-anchor="start" x="467" y="-1888.9" font-family="Arial" font-size="14.00" fill="#000000">editor    </text>
<text text-anchor="start" x="536.2104" y="-1888.9" font-family="Arial" font-size="14.00" fill="#666666">[integer]</text>
<polygon fill="none" stroke="#000000" points="460,-1847.5 460,-1877.5 799,-1877.5 799,-1847.5 460,-1847.5"/>
<text text-anchor="start" x="467" y="-1858.9" font-family="Arial" font-size="14.00" fill="#000000">selector    </text>
<text text-anchor="start" x="550.2104" y="-1858.9" font-family="Arial" font-size="14.00" fill="#666666">[integer]</text>
<polygon fill="none" stroke="#000000" points="460,-1817.5 460,-1847.5 799,-1847.5 799,-1817.5 460,-1817.5"/>
<text text-anchor="start" x="467" y="-1828.9" font-family="Arial" font-size="14.00" fill="#000000">provider    </text>
<text text-anchor="start" x="551.763" y="-1828.9" font-family="Arial" font-size="14.00" fill="#666666">[integer]</text>
<polygon fill="none" stroke="#000000" points="460,-1787.5 460,-1817.5 799,-1817.5 799,-1787.5 460,-1787.5"/>
<text text-anchor="start" x="467" y="-1798.9" font-family="Arial" font-size="14.00" fill="#000000">purchase_order    </text>
<text text-anchor="start" x="599.23" y="-1798.9" font-family="Arial" font-size="14.00" fill="#666666">[integer]</text>
<polygon fill="none" stroke="#000000" points="460,-1757.5 460,-1787.5 799,-1787.5 799,-1757.5 460,-1757.5"/>
<text text-anchor="start" x="467" y="-1768.9" font-family="Arial" font-size="14.00" fill="#000000">picklist    </text>
<text text-anchor="start" x="543.1978" y="-1768.9" font-family="Arial" font-size="14.00" fill="#666666">[integer]</text>
<polygon fill="none" stroke="#000000" points="460,-1727.5 460,-1757.5 799,-1757.5 799,-1727.5 460,-1727.5"/>
<text text-anchor="start" x="466.9292" y="-1738.9" font-family="Arial" font-size="14.00" fill="#000000">expected_recv_time    </text>
<text text-anchor="start" x="626.3864" y="-1738.9" font-family="Arial" font-size="14.00" fill="#666666">[timestamp with time zone]</text>
<polygon fill="none" stroke="#000000" points="460,-1697.5 460,-1727.5 799,-1727.5 799,-1697.5 460,-1697.5"/>
<text text-anchor="start" x="467" y="-1708.9" font-family="Arial" font-size="14.00" fill="#000000">create_time    </text>
<text text-anchor="start" x="574.3268" y="-1708.9" font-family="Arial" font-size="14.00" fill="#666666">[timestamp with time zone]</text>
<polygon fill="none" stroke="#000000" points="460,-1667.5 460,-1697.5 799,-1697.5 799,-1667.5 460,-1667.5"/>
<text text-anchor="start" x="467" y="-1678.9" font-family="Arial" font-size="14.00" fill="#000000">edit_time    </text>
<text text-anchor="start" x="557.9902" y="-1678.9" font-family="Arial" font-size="14.00" fill="#666666">[timestamp with time zone]</text>
<polygon fill="none" stroke="#000000" points="460,-1637.5 460,-1667.5 799,-1667.5 799,-1637.5 460,-1637.5"/>
<text text-anchor="start" x="467" y="-1648.9" font-family="Arial" font-size="14.00" fill="#000000">marc    </text>
<text text-anchor="start" x="532.3086" y="-1648.9" font-family="Arial" font-size="14.00" fill="#666666">[text]</text>
<polygon fill="none" stroke="#000000" points="460,-1607.5 460,-1637.5 799,-1637.5 799,-1607.5 460,-1607.5"/>
<text text-anchor="start" x="467" y="-1618.9" font-family="Arial" font-size="14.00" fill="#000000">eg_bib_id    </text>
<text text-anchor="start" x="561.8962" y="-1618.9" font-family="Arial" font-size="14.00" fill="#666666">[bigint]</text>
<polygon fill="none" stroke="#000000" points="460,-1577.5 460,-1607.5 799,-1607.5 799,-1577.5 460,-1577.5"/>
<text text-anchor="start" x="467" y="-1588.9" font-family="Arial" font-size="14.00" fill="#000000">source_label    </text>
<text text-anchor="start" x="580.5568" y="-1588.9" font-family="Arial" font-size="14.00" fill="#666666">[text]</text>
<polygon fill="none" stroke="#000000" points="460,-1547.5 460,-1577.5 799,-1577.5 799,-1547.5 460,-1547.5"/>
<text text-anchor="start" x="467" y="-1558.9" font-family="Arial" font-size="14.00" fill="#000000">state    </text>
<text text-anchor="start" x="531.5512" y="-1558.9" font-family="Arial" font-size="14.00" fill="#666666">[text]</text>
<polygon fill="none" stroke="#000000" points="460,-1517.5 460,-1547.5 799,-1547.5 799,-1517.5 460,-1517.5"/>
<text text-anchor="start" x="467" y="-1528.9" font-family="Arial" font-size="14.00" fill="#000000">cancel_reason    </text>
<text text-anchor="start" x="592.2328" y="-1528.9" font-family="Arial" font-size="14.00" fill="#666666">[integer]</text>
<polygon fill="none" stroke="#000000" points="460,-1487.5 460,-1517.5 799,-1517.5 799,-1487.5 460,-1487.5"/>
<text text-anchor="start" x="467" y="-1498.9" font-family="Arial" font-size="14.00" fill="#000000">estimated_unit_price    </text>
<text text-anchor="start" x="630.3436" y="-1498.9" font-family="Arial" font-size="14.00" fill="#666666">[numeric]</text>
<polygon fill="none" stroke="#000000" points="460,-1457.5 460,-1487.5 799,-1487.5 799,-1457.5 460,-1457.5"/>
<text text-anchor="start" x="467" y="-1468.9" font-family="Arial" font-size="14.00" fill="#000000">claim_policy    </text>
<text text-anchor="start" x="577.4222" y="-1468.9" font-family="Arial" font-size="14.00" fill="#666666">[integer]</text>
<polygon fill="none" stroke="#000000" points="460,-1427.5 460,-1457.5 799,-1457.5 799,-1427.5 460,-1427.5"/>
<text text-anchor="start" x="467" y="-1438.9" font-family="Arial" font-size="14.00" fill="#000000">queued_record    </text>
<text text-anchor="start" x="595.352" y="-1438.9" font-family="Arial" font-size="14.00" fill="#666666">[bigint]</text>
</g>
<!-- acq.lineitem&#45;&gt;vandelay.queued_bib_record -->
<g id="edge2" class="edge">
<title>acq.lineitem:queued_record&#45;&gt;vandelay.queued_bib_record:id</title>
<path fill="none" stroke="#000000" d="M808.8911,-1439.5309C818.5009,-1430.8652 805.4117,-1404.959 799,-1385 765.3894,-1280.3732 688.6106,-1288.6268 655,-1184 641.8825,-1143.1663 612.1111,-1087.5 655,-1087.5"/>
<polygon fill="#000000" stroke="#000000" points="808.5778,-1439.6249 797.7062,-1438.19 803.7889,-1441.0624 799,-1442.5 799,-1442.5 799,-1442.5 803.7889,-1441.0624 800.2938,-1446.81 808.5778,-1439.6249 808.5778,-1439.6249"/>
<text text-anchor="start" x="805.792" y="-1452.5" font-family="Arial" font-size="10.00" fill="#000000">FOREIGN KEY (queued_record) REFERENCES vandelay.queued_bib_record(id) ON DELETE SET NULL DEFERRABLE INITIALLY DEFERRED</text>
</g>
<!-- vandelay.bib_match -->
<g id="node4" class="node">
<title>vandelay.bib_match</title>
<polygon fill="#efefef" stroke="transparent" points="903,-1772.5 903,-1807.5 1204,-1807.5 1204,-1772.5 903,-1772.5"/>
<polygon fill="none" stroke="#000000" points="903,-1772.5 903,-1807.5 1204,-1807.5 1204,-1772.5 903,-1772.5"/>
<text text-anchor="start" x="909.6925" y="-1785.3" font-family="Arial Bold" font-size="18.00" fill="#000000">vandelay.bib_match</text>
<text text-anchor="start" x="1069.7395" y="-1785.3" font-family="Arial" font-size="14.00" fill="#000000">    </text>
<text text-anchor="start" x="1103.9443" y="-1785.3" font-family="Arial" font-size="14.00" fill="#666666">[BASE TABLE]</text>
<polygon fill="none" stroke="#000000" points="903,-1742.5 903,-1772.5 1204,-1772.5 1204,-1742.5 903,-1742.5"/>
<text text-anchor="start" x="910" y="-1753.9" font-family="Arial" font-size="14.00" fill="#000000">id    </text>
<text text-anchor="start" x="955.094" y="-1753.9" font-family="Arial" font-size="14.00" fill="#666666">[bigint]</text>
<polygon fill="none" stroke="#000000" points="903,-1712.5 903,-1742.5 1204,-1742.5 1204,-1712.5 903,-1712.5"/>
<text text-anchor="start" x="910" y="-1723.9" font-family="Arial" font-size="14.00" fill="#000000">queued_record    </text>
<text text-anchor="start" x="1038.352" y="-1723.9" font-family="Arial" font-size="14.00" fill="#666666">[bigint]</text>
<polygon fill="none" stroke="#000000" points="903,-1682.5 903,-1712.5 1204,-1712.5 1204,-1682.5 903,-1682.5"/>
<text text-anchor="start" x="910" y="-1693.9" font-family="Arial" font-size="14.00" fill="#000000">eg_record    </text>
<text text-anchor="start" x="1007.2216" y="-1693.9" font-family="Arial" font-size="14.00" fill="#666666">[bigint]</text>
<polygon fill="none" stroke="#000000" points="903,-1652.5 903,-1682.5 1204,-1682.5 1204,-1652.5 903,-1652.5"/>
<text text-anchor="start" x="910" y="-1663.9" font-family="Arial" font-size="14.00" fill="#000000">quality    </text>
<text text-anchor="start" x="984.6564" y="-1663.9" font-family="Arial" font-size="14.00" fill="#666666">[integer]</text>
<polygon fill="none" stroke="#000000" points="903,-1622.5 903,-1652.5 1204,-1652.5 1204,-1622.5 903,-1622.5"/>
<text text-anchor="start" x="910" y="-1633.9" font-family="Arial" font-size="14.00" fill="#000000">match_score    </text>
<text text-anchor="start" x="1024.3296" y="-1633.9" font-family="Arial" font-size="14.00" fill="#666666">[integer]</text>
</g>
<!-- vandelay.bib_match&#45;&gt;vandelay.queued_bib_record -->
<g id="edge3" class="edge">
<title>vandelay.bib_match:queued_record&#45;&gt;vandelay.queued_bib_record:id</title>
<path fill="none" stroke="#000000" d="M893.0262,-1726.2832C778.7947,-1695.4126 1169.2302,-1087.5 1028,-1087.5"/>
<polygon fill="#000000" stroke="#000000" points="893.0736,-1726.2889 902.455,-1731.9669 898.0368,-1726.8944 903,-1727.5 903,-1727.5 903,-1727.5 898.0368,-1726.8944 903.545,-1723.0331 893.0736,-1726.2889 893.0736,-1726.2889"/>
<text text-anchor="start" x="909.5165" y="-1737.5" font-family="Arial" font-size="10.00" fill="#000000">FOREIGN KEY (queued_record) REFERENCES vandelay.queued_bib_record(id) ON DELETE CASCADE DEFERRABLE INITIALLY DEFERRED</text>
</g>
<!-- vandelay.queued_bib_record_attr -->
<g id="node5" class="node">
<title>vandelay.queued_bib_record_attr</title>
<polygon fill="#efefef" stroke="transparent" points="1308,-1757.5 1308,-1792.5 1717,-1792.5 1717,-1757.5 1308,-1757.5"/>
<polygon fill="none" stroke="#000000" points="1308,-1757.5 1308,-1792.5 1717,-1792.5 1717,-1757.5 1308,-1757.5"/>
<text text-anchor="start" x="1314.6682" y="-1770.3" font-family="Arial Bold" font-size="18.00" fill="#000000">vandelay.queued_bib_record_attr</text>
<text text-anchor="start" x="1582.7638" y="-1770.3" font-family="Arial" font-size="14.00" fill="#000000">    </text>
<text text-anchor="start" x="1616.9686" y="-1770.3" font-family="Arial" font-size="14.00" fill="#666666">[BASE TABLE]</text>
<polygon fill="none" stroke="#000000" points="1308,-1727.5 1308,-1757.5 1717,-1757.5 1717,-1727.5 1308,-1727.5"/>
<text text-anchor="start" x="1315" y="-1738.9" font-family="Arial" font-size="14.00" fill="#000000">id    </text>
<text text-anchor="start" x="1360.094" y="-1738.9" font-family="Arial" font-size="14.00" fill="#666666">[bigint]</text>
<polygon fill="none" stroke="#000000" points="1308,-1697.5 1308,-1727.5 1717,-1727.5 1717,-1697.5 1308,-1697.5"/>
<text text-anchor="start" x="1315" y="-1708.9" font-family="Arial" font-size="14.00" fill="#000000">record    </text>
<text text-anchor="start" x="1388.8738" y="-1708.9" font-family="Arial" font-size="14.00" fill="#666666">[bigint]</text>
<polygon fill="none" stroke="#000000" points="1308,-1667.5 1308,-1697.5 1717,-1697.5 1717,-1667.5 1308,-1667.5"/>
<text text-anchor="start" x="1315" y="-1678.9" font-family="Arial" font-size="14.00" fill="#000000">field    </text>
<text text-anchor="start" x="1374.8738" y="-1678.9" font-family="Arial" font-size="14.00" fill="#666666">[integer]</text>
<polygon fill="none" stroke="#000000" points="1308,-1637.5 1308,-1667.5 1717,-1667.5 1717,-1637.5 1308,-1637.5"/>
<text text-anchor="start" x="1315" y="-1648.9" font-family="Arial" font-size="14.00" fill="#000000">attr_value    </text>
<text text-anchor="start" x="1410.6662" y="-1648.9" font-family="Arial" font-size="14.00" fill="#666666">[text]</text>
</g>
<!-- vandelay.queued_bib_record_attr&#45;&gt;vandelay.queued_bib_record -->
<g id="edge4" class="edge">
<title>vandelay.queued_bib_record_attr:record&#45;&gt;vandelay.queued_bib_record:id</title>
<path fill="none" stroke="#000000" d="M1298.0567,-1711.277C1205.3606,-1687.0299 1313.9018,-1309.3921 1256,-1220 1192.2833,-1121.6306 1145.2022,-1087.5 1028,-1087.5"/>
<polygon fill="#000000" stroke="#000000" points="1298.0748,-1711.2792 1307.4506,-1716.9663 1303.0374,-1711.8896 1308,-1712.5 1308,-1712.5 1308,-1712.5 1303.0374,-1711.8896 1308.5494,-1708.0337 1298.0748,-1711.2792 1298.0748,-1711.2792"/>
<text text-anchor="start" x="1315.254" y="-1696.5" font-family="Arial" font-size="10.00" fill="#000000">FOREIGN KEY (record) REFERENCES vandelay.queued_bib_record(id) DEFERRABLE INITIALLY DEFERRED</text>
</g>
</g>
</svg>
