<?xml version="1.0" encoding="UTF-8" standalone="no"?>
<!DOCTYPE svg PUBLIC "-//W3C//DTD SVG 1.1//EN"
 "http://www.w3.org/Graphics/SVG/1.1/DTD/svg11.dtd">
<!-- Generated by graphviz version 2.40.1 (20161225.0304)
 -->
<!-- Title: vandelay.match_set_quality Pages: 1 -->
<svg width="1129pt" height="1012pt"
 viewBox="0.00 0.00 1129.00 1012.00" xmlns="http://www.w3.org/2000/svg" xmlns:xlink="http://www.w3.org/1999/xlink">
<g id="graph0" class="graph" transform="scale(1 1) rotate(0) translate(4 1008)">
<title>vandelay.match_set_quality</title>
<polygon fill="#ffffff" stroke="transparent" points="-4,4 -4,-1008 1125,-1008 1125,4 -4,4"/>
<!-- vandelay.match_set_quality -->
<g id="node1" class="node">
<title>vandelay.match_set_quality</title>
<polygon fill="#efefef" stroke="transparent" points="425,-922.5 425,-957.5 788,-957.5 788,-922.5 425,-922.5"/>
<polygon fill="none" stroke="#000000" points="425,-922.5 425,-957.5 788,-957.5 788,-922.5 425,-922.5"/>
<text text-anchor="start" x="431.6839" y="-935.3" font-family="Arial Bold" font-size="18.00" fill="#000000">vandelay.match_set_quality</text>
<text text-anchor="start" x="653.7481" y="-935.3" font-family="Arial" font-size="14.00" fill="#000000">    </text>
<text text-anchor="start" x="687.9529" y="-935.3" font-family="Arial" font-size="14.00" fill="#666666">[BASE TABLE]</text>
<polygon fill="none" stroke="#000000" points="425,-892.5 425,-922.5 788,-922.5 788,-892.5 425,-892.5"/>
<text text-anchor="start" x="432" y="-903.9" font-family="Arial" font-size="14.00" fill="#000000">id </text>
<text text-anchor="start" x="446.7798" y="-903.9" font-family="Arial" font-size="14.00" fill="#666666">[integer]</text>
<polygon fill="none" stroke="#000000" points="425,-862.5 425,-892.5 788,-892.5 788,-862.5 425,-862.5"/>
<text text-anchor="start" x="432" y="-873.9" font-family="Arial" font-size="14.00" fill="#000000">match_set </text>
<text text-anchor="start" x="500.4628" y="-873.9" font-family="Arial" font-size="14.00" fill="#666666">[integer]</text>
<polygon fill="none" stroke="#000000" points="425,-832.5 425,-862.5 788,-862.5 788,-832.5 425,-832.5"/>
<text text-anchor="start" x="432" y="-843.9" font-family="Arial" font-size="14.00" fill="#000000">svf </text>
<text text-anchor="start" x="453.7812" y="-843.9" font-family="Arial" font-size="14.00" fill="#666666">[text]</text>
<polygon fill="none" stroke="#000000" points="425,-802.5 425,-832.5 788,-832.5 788,-802.5 425,-802.5"/>
<text text-anchor="start" x="432" y="-813.9" font-family="Arial" font-size="14.00" fill="#000000">tag </text>
<text text-anchor="start" x="455.3464" y="-813.9" font-family="Arial" font-size="14.00" fill="#666666">[text]</text>
<polygon fill="none" stroke="#000000" points="425,-772.5 425,-802.5 788,-802.5 788,-772.5 425,-772.5"/>
<text text-anchor="start" x="432" y="-783.9" font-family="Arial" font-size="14.00" fill="#000000">subfield </text>
<text text-anchor="start" x="484.1248" y="-783.9" font-family="Arial" font-size="14.00" fill="#666666">[text]</text>
<polygon fill="none" stroke="#000000" points="425,-742.5 425,-772.5 788,-772.5 788,-742.5 425,-742.5"/>
<text text-anchor="start" x="432" y="-753.9" font-family="Arial" font-size="14.00" fill="#000000">value </text>
<text text-anchor="start" x="469.345" y="-753.9" font-family="Arial" font-size="14.00" fill="#666666">[text]</text>
<polygon fill="none" stroke="#000000" points="425,-712.5 425,-742.5 788,-742.5 788,-712.5 425,-712.5"/>
<text text-anchor="start" x="432" y="-723.9" font-family="Arial" font-size="14.00" fill="#000000">quality </text>
<text text-anchor="start" x="476.3422" y="-723.9" font-family="Arial" font-size="14.00" fill="#666666">[integer]</text>
<polygon fill="none" stroke="#000000" stroke-width="3" points="423,-711.5 423,-959.5 789,-959.5 789,-711.5 423,-711.5"/>
</g>
<!-- vandelay.match_set -->
<g id="node2" class="node">
<title>vandelay.match_set</title>
<polygon fill="#efefef" stroke="transparent" points="238,-357.5 238,-392.5 539,-392.5 539,-357.5 238,-357.5"/>
<polygon fill="none" stroke="#000000" points="238,-357.5 238,-392.5 539,-392.5 539,-357.5 238,-357.5"/>
<text text-anchor="start" x="244.6916" y="-370.3" font-family="Arial Bold" font-size="18.00" fill="#000000">vandelay.match_set</text>
<text text-anchor="start" x="404.7404" y="-370.3" font-family="Arial" font-size="14.00" fill="#000000">    </text>
<text text-anchor="start" x="438.9452" y="-370.3" font-family="Arial" font-size="14.00" fill="#666666">[BASE TABLE]</text>
<polygon fill="none" stroke="#000000" points="238,-327.5 238,-357.5 539,-357.5 539,-327.5 238,-327.5"/>
<text text-anchor="start" x="245" y="-338.9" font-family="Arial" font-size="14.00" fill="#000000">id    </text>
<text text-anchor="start" x="290.094" y="-338.9" font-family="Arial" font-size="14.00" fill="#666666">[integer]</text>
<polygon fill="none" stroke="#000000" points="238,-297.5 238,-327.5 539,-327.5 539,-297.5 238,-297.5"/>
<text text-anchor="start" x="245" y="-308.9" font-family="Arial" font-size="14.00" fill="#000000">name    </text>
<text text-anchor="start" x="314.2132" y="-308.9" font-family="Arial" font-size="14.00" fill="#666666">[text]</text>
<polygon fill="none" stroke="#000000" points="238,-267.5 238,-297.5 539,-297.5 539,-267.5 238,-267.5"/>
<text text-anchor="start" x="245" y="-278.9" font-family="Arial" font-size="14.00" fill="#000000">owner    </text>
<text text-anchor="start" x="317.3198" y="-278.9" font-family="Arial" font-size="14.00" fill="#666666">[integer]</text>
<polygon fill="none" stroke="#000000" points="238,-237.5 238,-267.5 539,-267.5 539,-237.5 238,-237.5"/>
<text text-anchor="start" x="245" y="-248.9" font-family="Arial" font-size="14.00" fill="#000000">mtype    </text>
<text text-anchor="start" x="317.3212" y="-248.9" font-family="Arial" font-size="14.00" fill="#666666">[text]</text>
</g>
<!-- vandelay.match_set_quality&#45;&gt;vandelay.match_set -->
<g id="edge1" class="edge">
<title>vandelay.match_set_quality:match_set&#45;&gt;vandelay.match_set:id</title>
<path fill="none" stroke="#000000" d="M414.7552,-877.0639C260.3735,-863.2602 518.0493,-525.7938 539,-436 548.4422,-395.5314 580.5556,-342.5 539,-342.5"/>
<polygon fill="#000000" stroke="#000000" points="415.009,-877.0746 424.8086,-881.9959 420.0045,-877.2873 425,-877.5 425,-877.5 425,-877.5 420.0045,-877.2873 425.1914,-873.0041 415.009,-877.0746 415.009,-877.0746"/>
<text text-anchor="start" x="7.1495" y="-887.5" font-family="Arial" font-size="10.00" fill="#000000">FOREIGN KEY (match_set) REFERENCES vandelay.match_set(id) ON DELETE CASCADE</text>
</g>
<!-- config.record_attr_definition -->
<g id="node3" class="node">
<title>config.record_attr_definition</title>
<polygon fill="#efefef" stroke="transparent" points="643,-552.5 643,-587.5 1006,-587.5 1006,-552.5 643,-552.5"/>
<polygon fill="none" stroke="#000000" points="643,-552.5 643,-587.5 1006,-587.5 1006,-552.5 643,-552.5"/>
<text text-anchor="start" x="649.6893" y="-565.3" font-family="Arial Bold" font-size="18.00" fill="#000000">config.record_attr_definition</text>
<text text-anchor="start" x="871.7427" y="-565.3" font-family="Arial" font-size="14.00" fill="#000000">    </text>
<text text-anchor="start" x="905.9475" y="-565.3" font-family="Arial" font-size="14.00" fill="#666666">[BASE TABLE]</text>
<polygon fill="none" stroke="#000000" points="643,-522.5 643,-552.5 1006,-552.5 1006,-522.5 643,-522.5"/>
<text text-anchor="start" x="650" y="-533.9" font-family="Arial" font-size="14.00" fill="#000000">name    </text>
<text text-anchor="start" x="719.2132" y="-533.9" font-family="Arial" font-size="14.00" fill="#666666">[text]</text>
<polygon fill="none" stroke="#000000" points="643,-492.5 643,-522.5 1006,-522.5 1006,-492.5 643,-492.5"/>
<text text-anchor="start" x="650" y="-503.9" font-family="Arial" font-size="14.00" fill="#000000">label    </text>
<text text-anchor="start" x="713.7658" y="-503.9" font-family="Arial" font-size="14.00" fill="#666666">[text]</text>
<polygon fill="none" stroke="#000000" points="643,-462.5 643,-492.5 1006,-492.5 1006,-462.5 643,-462.5"/>
<text text-anchor="start" x="650" y="-473.9" font-family="Arial" font-size="14.00" fill="#000000">description    </text>
<text text-anchor="start" x="751.8822" y="-473.9" font-family="Arial" font-size="14.00" fill="#666666">[text]</text>
<polygon fill="none" stroke="#000000" points="643,-432.5 643,-462.5 1006,-462.5 1006,-432.5 643,-432.5"/>
<text text-anchor="start" x="650" y="-443.9" font-family="Arial" font-size="14.00" fill="#000000">multi    </text>
<text text-anchor="start" x="713.7518" y="-443.9" font-family="Arial" font-size="14.00" fill="#666666">[boolean]</text>
<polygon fill="none" stroke="#000000" points="643,-402.5 643,-432.5 1006,-432.5 1006,-402.5 643,-402.5"/>
<text text-anchor="start" x="650" y="-413.9" font-family="Arial" font-size="14.00" fill="#000000">filter    </text>
<text text-anchor="start" x="710.6424" y="-413.9" font-family="Arial" font-size="14.00" fill="#666666">[boolean]</text>
<polygon fill="none" stroke="#000000" points="643,-372.5 643,-402.5 1006,-402.5 1006,-372.5 643,-372.5"/>
<text text-anchor="start" x="650" y="-383.9" font-family="Arial" font-size="14.00" fill="#000000">sorter    </text>
<text text-anchor="start" x="719.9818" y="-383.9" font-family="Arial" font-size="14.00" fill="#666666">[boolean]</text>
<polygon fill="none" stroke="#000000" points="643,-342.5 643,-372.5 1006,-372.5 1006,-342.5 643,-342.5"/>
<text text-anchor="start" x="650" y="-353.9" font-family="Arial" font-size="14.00" fill="#000000">composite    </text>
<text text-anchor="start" x="747.993" y="-353.9" font-family="Arial" font-size="14.00" fill="#666666">[boolean]</text>
<polygon fill="none" stroke="#000000" points="643,-312.5 643,-342.5 1006,-342.5 1006,-312.5 643,-312.5"/>
<text text-anchor="start" x="650" y="-323.9" font-family="Arial" font-size="14.00" fill="#000000">tag    </text>
<text text-anchor="start" x="703.6606" y="-323.9" font-family="Arial" font-size="14.00" fill="#666666">[text]</text>
<polygon fill="none" stroke="#000000" points="643,-282.5 643,-312.5 1006,-312.5 1006,-282.5 643,-282.5"/>
<text text-anchor="start" x="650" y="-293.9" font-family="Arial" font-size="14.00" fill="#000000">sf_list    </text>
<text text-anchor="start" x="719.9818" y="-293.9" font-family="Arial" font-size="14.00" fill="#666666">[text]</text>
<polygon fill="none" stroke="#000000" points="643,-252.5 643,-282.5 1006,-282.5 1006,-252.5 643,-252.5"/>
<text text-anchor="start" x="650" y="-263.9" font-family="Arial" font-size="14.00" fill="#000000">joiner    </text>
<text text-anchor="start" x="718.4264" y="-263.9" font-family="Arial" font-size="14.00" fill="#666666">[text]</text>
<polygon fill="none" stroke="#000000" points="643,-222.5 643,-252.5 1006,-252.5 1006,-222.5 643,-222.5"/>
<text text-anchor="start" x="650" y="-233.9" font-family="Arial" font-size="14.00" fill="#000000">xpath    </text>
<text text-anchor="start" x="718.4432" y="-233.9" font-family="Arial" font-size="14.00" fill="#666666">[text]</text>
<polygon fill="none" stroke="#000000" points="643,-192.5 643,-222.5 1006,-222.5 1006,-192.5 643,-192.5"/>
<text text-anchor="start" x="650" y="-203.9" font-family="Arial" font-size="14.00" fill="#000000">format    </text>
<text text-anchor="start" x="723.8724" y="-203.9" font-family="Arial" font-size="14.00" fill="#666666">[text]</text>
<polygon fill="none" stroke="#000000" points="643,-162.5 643,-192.5 1006,-192.5 1006,-162.5 643,-162.5"/>
<text text-anchor="start" x="650" y="-173.9" font-family="Arial" font-size="14.00" fill="#000000">start_pos    </text>
<text text-anchor="start" x="741.777" y="-173.9" font-family="Arial" font-size="14.00" fill="#666666">[integer]</text>
<polygon fill="none" stroke="#000000" points="643,-132.5 643,-162.5 1006,-162.5 1006,-132.5 643,-132.5"/>
<text text-anchor="start" x="650" y="-143.9" font-family="Arial" font-size="14.00" fill="#000000">string_len    </text>
<text text-anchor="start" x="744.8822" y="-143.9" font-family="Arial" font-size="14.00" fill="#666666">[integer]</text>
<polygon fill="none" stroke="#000000" points="643,-102.5 643,-132.5 1006,-132.5 1006,-102.5 643,-102.5"/>
<text text-anchor="start" x="650" y="-113.9" font-family="Arial" font-size="14.00" fill="#000000">fixed_field    </text>
<text text-anchor="start" x="747.2188" y="-113.9" font-family="Arial" font-size="14.00" fill="#666666">[text]</text>
<polygon fill="none" stroke="#000000" points="643,-72.5 643,-102.5 1006,-102.5 1006,-72.5 643,-72.5"/>
<text text-anchor="start" x="650" y="-83.9" font-family="Arial" font-size="14.00" fill="#000000">phys_char_sf    </text>
<text text-anchor="start" x="767.4516" y="-83.9" font-family="Arial" font-size="14.00" fill="#666666">[integer]</text>
<polygon fill="none" stroke="#000000" points="643,-42.5 643,-72.5 1006,-72.5 1006,-42.5 643,-42.5"/>
<text text-anchor="start" x="650" y="-53.9" font-family="Arial" font-size="14.00" fill="#000000">vocabulary    </text>
<text text-anchor="start" x="751.885" y="-53.9" font-family="Arial" font-size="14.00" fill="#666666">[text]</text>
</g>
<!-- vandelay.match_set_quality&#45;&gt;config.record_attr_definition -->
<g id="edge2" class="edge">
<title>vandelay.match_set_quality:svf&#45;&gt;config.record_attr_definition:name</title>
<path fill="none" stroke="#000000" d="M798.1474,-846.8054C865.4174,-837.0698 835.201,-727.3528 788,-667 747.0936,-614.6956 683.9064,-683.3044 643,-631 617.3996,-598.2665 601.4444,-537.5 643,-537.5"/>
<polygon fill="#000000" stroke="#000000" points="797.9767,-846.817 787.6926,-843.0105 792.9883,-847.1585 788,-847.5 788,-847.5 788,-847.5 792.9883,-847.1585 788.3074,-851.9895 797.9767,-846.817 797.9767,-846.817"/>
<text text-anchor="start" x="795.265" y="-857.5" font-family="Arial" font-size="10.00" fill="#000000">FOREIGN KEY (svf) REFERENCES config.record_attr_definition(name)</text>
</g>
</g>
</svg>
