<?xml version="1.0" encoding="UTF-8" standalone="no"?>
<!DOCTYPE svg PUBLIC "-//W3C//DTD SVG 1.1//EN"
 "http://www.w3.org/Graphics/SVG/1.1/DTD/svg11.dtd">
<!-- Generated by graphviz version 2.40.1 (20161225.0304)
 -->
<!-- Title: vandelay.queued_authority_record_attr Pages: 1 -->
<svg width="1521pt" height="712pt"
 viewBox="0.00 0.00 1521.00 712.00" xmlns="http://www.w3.org/2000/svg" xmlns:xlink="http://www.w3.org/1999/xlink">
<g id="graph0" class="graph" transform="scale(1 1) rotate(0) translate(4 708)">
<title>vandelay.queued_authority_record_attr</title>
<polygon fill="#ffffff" stroke="transparent" points="-4,4 -4,-708 1517,-708 1517,4 -4,4"/>
<!-- vandelay.queued_authority_record_attr -->
<g id="node1" class="node">
<title>vandelay.queued_authority_record_attr</title>
<polygon fill="#efefef" stroke="transparent" points="538,-622.5 538,-657.5 992,-657.5 992,-622.5 538,-622.5"/>
<polygon fill="none" stroke="#000000" points="538,-622.5 538,-657.5 992,-657.5 992,-622.5 538,-622.5"/>
<text text-anchor="start" x="544.6637" y="-635.3" font-family="Arial Bold" font-size="18.00" fill="#000000">vandelay.queued_authority_record_attr</text>
<text text-anchor="start" x="857.7683" y="-635.3" font-family="Arial" font-size="14.00" fill="#000000">    </text>
<text text-anchor="start" x="891.9731" y="-635.3" font-family="Arial" font-size="14.00" fill="#666666">[BASE TABLE]</text>
<polygon fill="none" stroke="#000000" points="538,-592.5 538,-622.5 992,-622.5 992,-592.5 538,-592.5"/>
<text text-anchor="start" x="545" y="-603.9" font-family="Arial" font-size="14.00" fill="#000000">id </text>
<text text-anchor="start" x="559.7798" y="-603.9" font-family="Arial" font-size="14.00" fill="#666666">[bigint]</text>
<polygon fill="none" stroke="#000000" points="538,-562.5 538,-592.5 992,-592.5 992,-562.5 538,-562.5"/>
<text text-anchor="start" x="545" y="-573.9" font-family="Arial" font-size="14.00" fill="#000000">record </text>
<text text-anchor="start" x="588.5596" y="-573.9" font-family="Arial" font-size="14.00" fill="#666666">[bigint]</text>
<polygon fill="none" stroke="#000000" points="538,-532.5 538,-562.5 992,-562.5 992,-532.5 538,-532.5"/>
<text text-anchor="start" x="545" y="-543.9" font-family="Arial" font-size="14.00" fill="#000000">field </text>
<text text-anchor="start" x="574.5596" y="-543.9" font-family="Arial" font-size="14.00" fill="#666666">[integer]</text>
<polygon fill="none" stroke="#000000" points="538,-502.5 538,-532.5 992,-532.5 992,-502.5 538,-502.5"/>
<text text-anchor="start" x="545" y="-513.9" font-family="Arial" font-size="14.00" fill="#000000">attr_value </text>
<text text-anchor="start" x="610.352" y="-513.9" font-family="Arial" font-size="14.00" fill="#666666">[text]</text>
<polygon fill="none" stroke="#000000" stroke-width="3" points="536.5,-501.5 536.5,-659.5 993.5,-659.5 993.5,-501.5 536.5,-501.5"/>
</g>
<!-- vandelay.queued_authority_record -->
<g id="node2" class="node">
<title>vandelay.queued_authority_record</title>
<polygon fill="#efefef" stroke="transparent" points="298,-342.5 298,-377.5 716,-377.5 716,-342.5 298,-342.5"/>
<polygon fill="none" stroke="#000000" points="298,-342.5 298,-377.5 716,-377.5 716,-342.5 298,-342.5"/>
<text text-anchor="start" x="304.6682" y="-355.3" font-family="Arial Bold" font-size="18.00" fill="#000000">vandelay.queued_authority_record</text>
<text text-anchor="start" x="581.7638" y="-355.3" font-family="Arial" font-size="14.00" fill="#000000">    </text>
<text text-anchor="start" x="615.9686" y="-355.3" font-family="Arial" font-size="14.00" fill="#666666">[BASE TABLE]</text>
<polygon fill="none" stroke="#000000" points="298,-312.5 298,-342.5 716,-342.5 716,-312.5 298,-312.5"/>
<text text-anchor="start" x="305" y="-323.9" font-family="Arial" font-size="14.00" fill="#000000">id    </text>
<text text-anchor="start" x="350.094" y="-323.9" font-family="Arial" font-size="14.00" fill="#666666">[bigint]</text>
<polygon fill="none" stroke="#000000" points="298,-282.5 298,-312.5 716,-312.5 716,-282.5 298,-282.5"/>
<text text-anchor="start" x="305" y="-293.9" font-family="Arial" font-size="14.00" fill="#000000">create_time    </text>
<text text-anchor="start" x="412.3268" y="-293.9" font-family="Arial" font-size="14.00" fill="#666666">[timestamp with time zone]</text>
<polygon fill="none" stroke="#000000" points="298,-252.5 298,-282.5 716,-282.5 716,-252.5 298,-252.5"/>
<text text-anchor="start" x="305" y="-263.9" font-family="Arial" font-size="14.00" fill="#000000">import_time    </text>
<text text-anchor="start" x="412.3114" y="-263.9" font-family="Arial" font-size="14.00" fill="#666666">[timestamp with time zone]</text>
<polygon fill="none" stroke="#000000" points="298,-222.5 298,-252.5 716,-252.5 716,-222.5 298,-222.5"/>
<text text-anchor="start" x="305" y="-233.9" font-family="Arial" font-size="14.00" fill="#000000">purpose    </text>
<text text-anchor="start" x="389.7784" y="-233.9" font-family="Arial" font-size="14.00" fill="#666666">[text]</text>
<polygon fill="none" stroke="#000000" points="298,-192.5 298,-222.5 716,-222.5 716,-192.5 298,-192.5"/>
<text text-anchor="start" x="305" y="-203.9" font-family="Arial" font-size="14.00" fill="#000000">marc    </text>
<text text-anchor="start" x="370.3086" y="-203.9" font-family="Arial" font-size="14.00" fill="#666666">[text]</text>
<polygon fill="none" stroke="#000000" points="298,-162.5 298,-192.5 716,-192.5 716,-162.5 298,-162.5"/>
<text text-anchor="start" x="305" y="-173.9" font-family="Arial" font-size="14.00" fill="#000000">quality    </text>
<text text-anchor="start" x="379.6564" y="-173.9" font-family="Arial" font-size="14.00" fill="#666666">[integer]</text>
<polygon fill="none" stroke="#000000" points="298,-132.5 298,-162.5 716,-162.5 716,-132.5 298,-132.5"/>
<text text-anchor="start" x="305" y="-143.9" font-family="Arial" font-size="14.00" fill="#000000">queue    </text>
<text text-anchor="start" x="378.1178" y="-143.9" font-family="Arial" font-size="14.00" fill="#666666">[integer]</text>
<polygon fill="none" stroke="#000000" points="298,-102.5 298,-132.5 716,-132.5 716,-102.5 298,-102.5"/>
<text text-anchor="start" x="305" y="-113.9" font-family="Arial" font-size="14.00" fill="#000000">imported_as    </text>
<text text-anchor="start" x="416.2188" y="-113.9" font-family="Arial" font-size="14.00" fill="#666666">[integer]</text>
<polygon fill="none" stroke="#000000" points="298,-72.5 298,-102.5 716,-102.5 716,-72.5 298,-72.5"/>
<text text-anchor="start" x="305" y="-83.9" font-family="Arial" font-size="14.00" fill="#000000">import_error    </text>
<text text-anchor="start" x="415.418" y="-83.9" font-family="Arial" font-size="14.00" fill="#666666">[text]</text>
<polygon fill="none" stroke="#000000" points="298,-42.5 298,-72.5 716,-72.5 716,-42.5 298,-42.5"/>
<text text-anchor="start" x="305" y="-53.9" font-family="Arial" font-size="14.00" fill="#000000">error_detail    </text>
<text text-anchor="start" x="409.986" y="-53.9" font-family="Arial" font-size="14.00" fill="#666666">[text]</text>
</g>
<!-- vandelay.queued_authority_record_attr&#45;&gt;vandelay.queued_authority_record -->
<g id="edge1" class="edge">
<title>vandelay.queued_authority_record_attr:record&#45;&gt;vandelay.queued_authority_record:id</title>
<path fill="none" stroke="#000000" d="M528.0243,-576.4291C487.1972,-566.8685 506.4091,-495.6197 538,-457 589.1036,-394.5261 664.8964,-483.4739 716,-421 742.311,-388.8349 757.5556,-327.5 716,-327.5"/>
<polygon fill="#000000" stroke="#000000" points="528.0571,-576.4325 537.5196,-581.9743 533.0286,-576.9663 538,-577.5 538,-577.5 538,-577.5 533.0286,-576.9663 538.4804,-573.0257 528.0571,-576.4325 528.0571,-576.4325"/>
<text text-anchor="start" x="6.7515" y="-587.5" font-family="Arial" font-size="10.00" fill="#000000">FOREIGN KEY (record) REFERENCES vandelay.queued_authority_record(id) DEFERRABLE INITIALLY DEFERRED</text>
</g>
<!-- vandelay.authority_attr_definition -->
<g id="node3" class="node">
<title>vandelay.authority_attr_definition</title>
<polygon fill="#efefef" stroke="transparent" points="821,-267.5 821,-302.5 1226,-302.5 1226,-267.5 821,-267.5"/>
<polygon fill="none" stroke="#000000" points="821,-267.5 821,-302.5 1226,-302.5 1226,-267.5 821,-267.5"/>
<text text-anchor="start" x="827.6779" y="-280.3" font-family="Arial Bold" font-size="18.00" fill="#000000">vandelay.authority_attr_definition</text>
<text text-anchor="start" x="1091.7541" y="-280.3" font-family="Arial" font-size="14.00" fill="#000000">    </text>
<text text-anchor="start" x="1125.9589" y="-280.3" font-family="Arial" font-size="14.00" fill="#666666">[BASE TABLE]</text>
<polygon fill="none" stroke="#000000" points="821,-237.5 821,-267.5 1226,-267.5 1226,-237.5 821,-237.5"/>
<text text-anchor="start" x="828" y="-248.9" font-family="Arial" font-size="14.00" fill="#000000">id    </text>
<text text-anchor="start" x="873.094" y="-248.9" font-family="Arial" font-size="14.00" fill="#666666">[integer]</text>
<polygon fill="none" stroke="#000000" points="821,-207.5 821,-237.5 1226,-237.5 1226,-207.5 821,-207.5"/>
<text text-anchor="start" x="828" y="-218.9" font-family="Arial" font-size="14.00" fill="#000000">code    </text>
<text text-anchor="start" x="892.5526" y="-218.9" font-family="Arial" font-size="14.00" fill="#666666">[text]</text>
<polygon fill="none" stroke="#000000" points="821,-177.5 821,-207.5 1226,-207.5 1226,-177.5 821,-177.5"/>
<text text-anchor="start" x="828" y="-188.9" font-family="Arial" font-size="14.00" fill="#000000">description    </text>
<text text-anchor="start" x="929.8822" y="-188.9" font-family="Arial" font-size="14.00" fill="#666666">[text]</text>
<polygon fill="none" stroke="#000000" points="821,-147.5 821,-177.5 1226,-177.5 1226,-147.5 821,-147.5"/>
<text text-anchor="start" x="828" y="-158.9" font-family="Arial" font-size="14.00" fill="#000000">xpath    </text>
<text text-anchor="start" x="896.4432" y="-158.9" font-family="Arial" font-size="14.00" fill="#666666">[text]</text>
<polygon fill="none" stroke="#000000" points="821,-117.5 821,-147.5 1226,-147.5 1226,-117.5 821,-117.5"/>
<text text-anchor="start" x="828" y="-128.9" font-family="Arial" font-size="14.00" fill="#000000">remove    </text>
<text text-anchor="start" x="908.8738" y="-128.9" font-family="Arial" font-size="14.00" fill="#666666">[text]</text>
</g>
<!-- vandelay.queued_authority_record_attr&#45;&gt;vandelay.authority_attr_definition -->
<g id="edge2" class="edge">
<title>vandelay.queued_authority_record_attr:field&#45;&gt;vandelay.authority_attr_definition:id</title>
<path fill="none" stroke="#000000" d="M1002.0903,-545.9918C1028.133,-536.9166 1009.3213,-488.8943 992,-457 948.7577,-377.3766 864.2423,-425.6234 821,-346 801.1677,-309.4823 779.4444,-252.5 821,-252.5"/>
<polygon fill="#000000" stroke="#000000" points="1001.8901,-546.0217 991.3348,-543.0494 996.9451,-546.7608 992,-547.5 992,-547.5 992,-547.5 996.9451,-546.7608 992.6652,-551.9506 1001.8901,-546.0217 1001.8901,-546.0217"/>
<text text-anchor="start" x="999.368" y="-557.5" font-family="Arial" font-size="10.00" fill="#000000">FOREIGN KEY (field) REFERENCES vandelay.authority_attr_definition(id) DEFERRABLE INITIALLY DEFERRED</text>
</g>
</g>
</svg>
