<?xml version="1.0" encoding="UTF-8" standalone="no"?>
<!DOCTYPE svg PUBLIC "-//W3C//DTD SVG 1.1//EN"
 "http://www.w3.org/Graphics/SVG/1.1/DTD/svg11.dtd">
<!-- Generated by graphviz version 2.40.1 (20161225.0304)
 -->
<!-- Title: vandelay.queue Pages: 1 -->
<svg width="1411pt" height="1912pt"
 viewBox="0.00 0.00 1411.00 1912.00" xmlns="http://www.w3.org/2000/svg" xmlns:xlink="http://www.w3.org/1999/xlink">
<g id="graph0" class="graph" transform="scale(1 1) rotate(0) translate(4 1908)">
<title>vandelay.queue</title>
<polygon fill="#ffffff" stroke="transparent" points="-4,4 -4,-1908 1407,-1908 1407,4 -4,4"/>
<!-- vandelay.queue -->
<g id="node1" class="node">
<title>vandelay.queue</title>
<polygon fill="#efefef" stroke="transparent" points="422,-1822.5 422,-1857.5 690,-1857.5 690,-1822.5 422,-1822.5"/>
<polygon fill="none" stroke="#000000" points="422,-1822.5 422,-1857.5 690,-1857.5 690,-1822.5 422,-1822.5"/>
<text text-anchor="start" x="428.6868" y="-1835.3" font-family="Arial Bold" font-size="18.00" fill="#000000">vandelay.queue</text>
<text text-anchor="start" x="555.7452" y="-1835.3" font-family="Arial" font-size="14.00" fill="#000000">    </text>
<text text-anchor="start" x="589.95" y="-1835.3" font-family="Arial" font-size="14.00" fill="#666666">[BASE TABLE]</text>
<polygon fill="none" stroke="#000000" points="422,-1792.5 422,-1822.5 690,-1822.5 690,-1792.5 422,-1792.5"/>
<text text-anchor="start" x="429" y="-1803.9" font-family="Arial" font-size="14.00" fill="#000000">id </text>
<text text-anchor="start" x="443.7798" y="-1803.9" font-family="Arial" font-size="14.00" fill="#666666">[bigint]</text>
<polygon fill="none" stroke="#000000" points="422,-1762.5 422,-1792.5 690,-1792.5 690,-1762.5 422,-1762.5"/>
<text text-anchor="start" x="429" y="-1773.9" font-family="Arial" font-size="14.00" fill="#000000">owner </text>
<text text-anchor="start" x="471.0056" y="-1773.9" font-family="Arial" font-size="14.00" fill="#666666">[integer]</text>
<polygon fill="none" stroke="#000000" points="422,-1732.5 422,-1762.5 690,-1762.5 690,-1732.5 422,-1732.5"/>
<text text-anchor="start" x="429" y="-1743.9" font-family="Arial" font-size="14.00" fill="#000000">name </text>
<text text-anchor="start" x="467.899" y="-1743.9" font-family="Arial" font-size="14.00" fill="#666666">[text]</text>
<polygon fill="none" stroke="#000000" points="422,-1702.5 422,-1732.5 690,-1732.5 690,-1702.5 422,-1702.5"/>
<text text-anchor="start" x="429" y="-1713.9" font-family="Arial" font-size="14.00" fill="#000000">complete </text>
<text text-anchor="start" x="489.6788" y="-1713.9" font-family="Arial" font-size="14.00" fill="#666666">[boolean]</text>
<polygon fill="none" stroke="#000000" points="422,-1672.5 422,-1702.5 690,-1702.5 690,-1672.5 422,-1672.5"/>
<text text-anchor="start" x="429" y="-1683.9" font-family="Arial" font-size="14.00" fill="#000000">match_set </text>
<text text-anchor="start" x="497.4628" y="-1683.9" font-family="Arial" font-size="14.00" fill="#666666">[integer]</text>
<polygon fill="none" stroke="#000000" stroke-width="3" points="420.5,-1671.5 420.5,-1859.5 691.5,-1859.5 691.5,-1671.5 420.5,-1671.5"/>
</g>
<!-- actor.usr -->
<g id="node2" class="node">
<title>actor.usr</title>
<polygon fill="#efefef" stroke="transparent" points="188,-1512.5 188,-1547.5 508,-1547.5 508,-1512.5 188,-1512.5"/>
<polygon fill="none" stroke="#000000" points="188,-1512.5 188,-1547.5 508,-1547.5 508,-1512.5 188,-1512.5"/>
<text text-anchor="start" x="249.2123" y="-1525.3" font-family="Arial Bold" font-size="18.00" fill="#000000">actor.usr</text>
<text text-anchor="start" x="319.2197" y="-1525.3" font-family="Arial" font-size="14.00" fill="#000000">    </text>
<text text-anchor="start" x="353.4245" y="-1525.3" font-family="Arial" font-size="14.00" fill="#666666">[BASE TABLE]</text>
<polygon fill="none" stroke="#000000" points="188,-1482.5 188,-1512.5 508,-1512.5 508,-1482.5 188,-1482.5"/>
<text text-anchor="start" x="195" y="-1493.9" font-family="Arial" font-size="14.00" fill="#000000">id    </text>
<text text-anchor="start" x="240.094" y="-1493.9" font-family="Arial" font-size="14.00" fill="#666666">[integer]</text>
<polygon fill="none" stroke="#000000" points="188,-1452.5 188,-1482.5 508,-1482.5 508,-1452.5 188,-1452.5"/>
<text text-anchor="start" x="195" y="-1463.9" font-family="Arial" font-size="14.00" fill="#000000">card    </text>
<text text-anchor="start" x="256.4306" y="-1463.9" font-family="Arial" font-size="14.00" fill="#666666">[integer]</text>
<polygon fill="none" stroke="#000000" points="188,-1422.5 188,-1452.5 508,-1452.5 508,-1422.5 188,-1422.5"/>
<text text-anchor="start" x="195" y="-1433.9" font-family="Arial" font-size="14.00" fill="#000000">profile    </text>
<text text-anchor="start" x="267.317" y="-1433.9" font-family="Arial" font-size="14.00" fill="#666666">[integer]</text>
<polygon fill="none" stroke="#000000" points="188,-1392.5 188,-1422.5 508,-1422.5 508,-1392.5 188,-1392.5"/>
<text text-anchor="start" x="195" y="-1403.9" font-family="Arial" font-size="14.00" fill="#000000">usrname    </text>
<text text-anchor="start" x="283.6564" y="-1403.9" font-family="Arial" font-size="14.00" fill="#666666">[text]</text>
<polygon fill="none" stroke="#000000" points="188,-1362.5 188,-1392.5 508,-1392.5 508,-1362.5 188,-1362.5"/>
<text text-anchor="start" x="195" y="-1373.9" font-family="Arial" font-size="14.00" fill="#000000">email    </text>
<text text-anchor="start" x="262.6438" y="-1373.9" font-family="Arial" font-size="14.00" fill="#666666">[text]</text>
<polygon fill="none" stroke="#000000" points="188,-1332.5 188,-1362.5 508,-1362.5 508,-1332.5 188,-1332.5"/>
<text text-anchor="start" x="195" y="-1343.9" font-family="Arial" font-size="14.00" fill="#000000">passwd    </text>
<text text-anchor="start" x="276.6592" y="-1343.9" font-family="Arial" font-size="14.00" fill="#666666">[text]</text>
<polygon fill="none" stroke="#000000" points="188,-1302.5 188,-1332.5 508,-1332.5 508,-1302.5 188,-1302.5"/>
<text text-anchor="start" x="195" y="-1313.9" font-family="Arial" font-size="14.00" fill="#000000">standing    </text>
<text text-anchor="start" x="282.115" y="-1313.9" font-family="Arial" font-size="14.00" fill="#666666">[integer]</text>
<polygon fill="none" stroke="#000000" points="188,-1272.5 188,-1302.5 508,-1302.5 508,-1272.5 188,-1272.5"/>
<text text-anchor="start" x="195" y="-1283.9" font-family="Arial" font-size="14.00" fill="#000000">ident_type    </text>
<text text-anchor="start" x="293.7882" y="-1283.9" font-family="Arial" font-size="14.00" fill="#666666">[integer]</text>
<polygon fill="none" stroke="#000000" points="188,-1242.5 188,-1272.5 508,-1272.5 508,-1242.5 188,-1242.5"/>
<text text-anchor="start" x="195" y="-1253.9" font-family="Arial" font-size="14.00" fill="#000000">ident_value    </text>
<text text-anchor="start" x="300.7868" y="-1253.9" font-family="Arial" font-size="14.00" fill="#666666">[text]</text>
<polygon fill="none" stroke="#000000" points="188,-1212.5 188,-1242.5 508,-1242.5 508,-1212.5 188,-1212.5"/>
<text text-anchor="start" x="195" y="-1223.9" font-family="Arial" font-size="14.00" fill="#000000">ident_type2    </text>
<text text-anchor="start" x="301.5708" y="-1223.9" font-family="Arial" font-size="14.00" fill="#666666">[integer]</text>
<polygon fill="none" stroke="#000000" points="188,-1182.5 188,-1212.5 508,-1212.5 508,-1182.5 188,-1182.5"/>
<text text-anchor="start" x="195" y="-1193.9" font-family="Arial" font-size="14.00" fill="#000000">ident_value2    </text>
<text text-anchor="start" x="308.5694" y="-1193.9" font-family="Arial" font-size="14.00" fill="#666666">[text]</text>
<polygon fill="none" stroke="#000000" points="188,-1152.5 188,-1182.5 508,-1182.5 508,-1152.5 188,-1152.5"/>
<text text-anchor="start" x="195" y="-1163.9" font-family="Arial" font-size="14.00" fill="#000000">net_access_level    </text>
<text text-anchor="start" x="336.5694" y="-1163.9" font-family="Arial" font-size="14.00" fill="#666666">[integer]</text>
<polygon fill="none" stroke="#000000" points="188,-1122.5 188,-1152.5 508,-1152.5 508,-1122.5 188,-1122.5"/>
<text text-anchor="start" x="195" y="-1133.9" font-family="Arial" font-size="14.00" fill="#000000">photo_url    </text>
<text text-anchor="start" x="287.5582" y="-1133.9" font-family="Arial" font-size="14.00" fill="#666666">[text]</text>
<polygon fill="none" stroke="#000000" points="188,-1092.5 188,-1122.5 508,-1122.5 508,-1092.5 188,-1092.5"/>
<text text-anchor="start" x="195" y="-1103.9" font-family="Arial" font-size="14.00" fill="#000000">prefix    </text>
<text text-anchor="start" x="263.4278" y="-1103.9" font-family="Arial" font-size="14.00" fill="#666666">[text]</text>
<polygon fill="none" stroke="#000000" points="188,-1062.5 188,-1092.5 508,-1092.5 508,-1062.5 188,-1062.5"/>
<text text-anchor="start" x="195" y="-1073.9" font-family="Arial" font-size="14.00" fill="#000000">first_given_name    </text>
<text text-anchor="start" x="335.7812" y="-1073.9" font-family="Arial" font-size="14.00" fill="#666666">[text]</text>
<polygon fill="none" stroke="#000000" points="188,-1032.5 188,-1062.5 508,-1062.5 508,-1032.5 188,-1032.5"/>
<text text-anchor="start" x="195" y="-1043.9" font-family="Arial" font-size="14.00" fill="#000000">second_given_name    </text>
<text text-anchor="start" x="358.3632" y="-1043.9" font-family="Arial" font-size="14.00" fill="#666666">[text]</text>
<polygon fill="none" stroke="#000000" points="188,-1002.5 188,-1032.5 508,-1032.5 508,-1002.5 188,-1002.5"/>
<text text-anchor="start" x="195" y="-1013.9" font-family="Arial" font-size="14.00" fill="#000000">family_name    </text>
<text text-anchor="start" x="308.5428" y="-1013.9" font-family="Arial" font-size="14.00" fill="#666666">[text]</text>
<polygon fill="none" stroke="#000000" points="188,-972.5 188,-1002.5 508,-1002.5 508,-972.5 188,-972.5"/>
<text text-anchor="start" x="195" y="-983.9" font-family="Arial" font-size="14.00" fill="#000000">suffix    </text>
<text text-anchor="start" x="261.8752" y="-983.9" font-family="Arial" font-size="14.00" fill="#666666">[text]</text>
<polygon fill="none" stroke="#000000" points="188,-942.5 188,-972.5 508,-972.5 508,-942.5 188,-942.5"/>
<text text-anchor="start" x="195" y="-953.9" font-family="Arial" font-size="14.00" fill="#000000">alias    </text>
<text text-anchor="start" x="257.9832" y="-953.9" font-family="Arial" font-size="14.00" fill="#666666">[text]</text>
<polygon fill="none" stroke="#000000" points="188,-912.5 188,-942.5 508,-942.5 508,-912.5 188,-912.5"/>
<text text-anchor="start" x="195" y="-923.9" font-family="Arial" font-size="14.00" fill="#000000">day_phone    </text>
<text text-anchor="start" x="298.4656" y="-923.9" font-family="Arial" font-size="14.00" fill="#666666">[text]</text>
<polygon fill="none" stroke="#000000" points="188,-882.5 188,-912.5 508,-912.5 508,-882.5 188,-882.5"/>
<text text-anchor="start" x="195" y="-893.9" font-family="Arial" font-size="14.00" fill="#000000">evening_phone    </text>
<text text-anchor="start" x="324.92" y="-893.9" font-family="Arial" font-size="14.00" fill="#666666">[text]</text>
<polygon fill="none" stroke="#000000" points="188,-852.5 188,-882.5 508,-882.5 508,-852.5 188,-852.5"/>
<text text-anchor="start" x="195" y="-863.9" font-family="Arial" font-size="14.00" fill="#000000">other_phone    </text>
<text text-anchor="start" x="307.7994" y="-863.9" font-family="Arial" font-size="14.00" fill="#666666">[text]</text>
<polygon fill="none" stroke="#000000" points="188,-822.5 188,-852.5 508,-852.5 508,-822.5 188,-822.5"/>
<text text-anchor="start" x="195" y="-833.9" font-family="Arial" font-size="14.00" fill="#000000">mailing_address    </text>
<text text-anchor="start" x="331.1066" y="-833.9" font-family="Arial" font-size="14.00" fill="#666666">[integer]</text>
<polygon fill="none" stroke="#000000" points="188,-792.5 188,-822.5 508,-822.5 508,-792.5 188,-792.5"/>
<text text-anchor="start" x="195" y="-803.9" font-family="Arial" font-size="14.00" fill="#000000">billing_address    </text>
<text text-anchor="start" x="322.5526" y="-803.9" font-family="Arial" font-size="14.00" fill="#666666">[integer]</text>
<polygon fill="none" stroke="#000000" points="188,-762.5 188,-792.5 508,-792.5 508,-762.5 188,-762.5"/>
<text text-anchor="start" x="195" y="-773.9" font-family="Arial" font-size="14.00" fill="#000000">home_ou    </text>
<text text-anchor="start" x="287.561" y="-773.9" font-family="Arial" font-size="14.00" fill="#666666">[integer]</text>
<polygon fill="none" stroke="#000000" points="188,-732.5 188,-762.5 508,-762.5 508,-732.5 188,-732.5"/>
<text text-anchor="start" x="195" y="-743.9" font-family="Arial" font-size="14.00" fill="#000000">dob    </text>
<text text-anchor="start" x="252.5526" y="-743.9" font-family="Arial" font-size="14.00" fill="#666666">[date]</text>
<polygon fill="none" stroke="#000000" points="188,-702.5 188,-732.5 508,-732.5 508,-702.5 188,-702.5"/>
<text text-anchor="start" x="195" y="-713.9" font-family="Arial" font-size="14.00" fill="#000000">active    </text>
<text text-anchor="start" x="265.7672" y="-713.9" font-family="Arial" font-size="14.00" fill="#666666">[boolean]</text>
<polygon fill="none" stroke="#000000" points="188,-672.5 188,-702.5 508,-702.5 508,-672.5 188,-672.5"/>
<text text-anchor="start" x="195" y="-683.9" font-family="Arial" font-size="14.00" fill="#000000">master_account    </text>
<text text-anchor="start" x="328.7854" y="-683.9" font-family="Arial" font-size="14.00" fill="#666666">[boolean]</text>
<polygon fill="none" stroke="#000000" points="188,-642.5 188,-672.5 508,-672.5 508,-642.5 188,-642.5"/>
<text text-anchor="start" x="195" y="-653.9" font-family="Arial" font-size="14.00" fill="#000000">super_user    </text>
<text text-anchor="start" x="299.2216" y="-653.9" font-family="Arial" font-size="14.00" fill="#666666">[boolean]</text>
<polygon fill="none" stroke="#000000" points="188,-612.5 188,-642.5 508,-642.5 508,-612.5 188,-612.5"/>
<text text-anchor="start" x="195" y="-623.9" font-family="Arial" font-size="14.00" fill="#000000">barred    </text>
<text text-anchor="start" x="269.6564" y="-623.9" font-family="Arial" font-size="14.00" fill="#666666">[boolean]</text>
<polygon fill="none" stroke="#000000" points="188,-582.5 188,-612.5 508,-612.5 508,-582.5 188,-582.5"/>
<text text-anchor="start" x="195" y="-593.9" font-family="Arial" font-size="14.00" fill="#000000">deleted    </text>
<text text-anchor="start" x="275.115" y="-593.9" font-family="Arial" font-size="14.00" fill="#666666">[boolean]</text>
<polygon fill="none" stroke="#000000" points="188,-552.5 188,-582.5 508,-582.5 508,-552.5 188,-552.5"/>
<text text-anchor="start" x="195" y="-563.9" font-family="Arial" font-size="14.00" fill="#000000">juvenile    </text>
<text text-anchor="start" x="276.655" y="-563.9" font-family="Arial" font-size="14.00" fill="#666666">[boolean]</text>
<polygon fill="none" stroke="#000000" points="188,-522.5 188,-552.5 508,-552.5 508,-522.5 188,-522.5"/>
<text text-anchor="start" x="195" y="-533.9" font-family="Arial" font-size="14.00" fill="#000000">usrgroup    </text>
<text text-anchor="start" x="284.439" y="-533.9" font-family="Arial" font-size="14.00" fill="#666666">[integer]</text>
<polygon fill="none" stroke="#000000" points="188,-492.5 188,-522.5 508,-522.5 508,-492.5 188,-492.5"/>
<text text-anchor="start" x="195" y="-503.9" font-family="Arial" font-size="14.00" fill="#000000">claims_returned_count    </text>
<text text-anchor="start" x="370.7896" y="-503.9" font-family="Arial" font-size="14.00" fill="#666666">[integer]</text>
<polygon fill="none" stroke="#000000" points="188,-462.5 188,-492.5 508,-492.5 508,-462.5 188,-462.5"/>
<text text-anchor="start" x="195" y="-473.9" font-family="Arial" font-size="14.00" fill="#000000">credit_forward_balance    </text>
<text text-anchor="start" x="374.6788" y="-473.9" font-family="Arial" font-size="14.00" fill="#666666">[numeric(6,2)]</text>
<polygon fill="none" stroke="#000000" points="188,-432.5 188,-462.5 508,-462.5 508,-432.5 188,-432.5"/>
<text text-anchor="start" x="195" y="-443.9" font-family="Arial" font-size="14.00" fill="#000000">last_xact_id    </text>
<text text-anchor="start" x="303.1122" y="-443.9" font-family="Arial" font-size="14.00" fill="#666666">[text]</text>
<polygon fill="none" stroke="#000000" points="188,-402.5 188,-432.5 508,-432.5 508,-402.5 188,-402.5"/>
<text text-anchor="start" x="195" y="-413.9" font-family="Arial" font-size="14.00" fill="#000000">alert_message    </text>
<text text-anchor="start" x="321.0014" y="-413.9" font-family="Arial" font-size="14.00" fill="#666666">[text]</text>
<polygon fill="none" stroke="#000000" points="188,-372.5 188,-402.5 508,-402.5 508,-372.5 188,-372.5"/>
<text text-anchor="start" x="195" y="-383.9" font-family="Arial" font-size="14.00" fill="#000000">create_date    </text>
<text text-anchor="start" x="303.1248" y="-383.9" font-family="Arial" font-size="14.00" fill="#666666">[timestamp with time zone]</text>
<polygon fill="none" stroke="#000000" points="188,-342.5 188,-372.5 508,-372.5 508,-342.5 188,-342.5"/>
<text text-anchor="start" x="195" y="-353.9" font-family="Arial" font-size="14.00" fill="#000000">expire_date    </text>
<text text-anchor="start" x="302.3408" y="-353.9" font-family="Arial" font-size="14.00" fill="#666666">[timestamp with time zone]</text>
<polygon fill="none" stroke="#000000" points="188,-312.5 188,-342.5 508,-342.5 508,-312.5 188,-312.5"/>
<text text-anchor="start" x="195" y="-323.9" font-family="Arial" font-size="14.00" fill="#000000">claims_never_checked_out_count    </text>
<text text-anchor="start" x="440.8246" y="-323.9" font-family="Arial" font-size="14.00" fill="#666666">[integer]</text>
<polygon fill="none" stroke="#000000" points="188,-282.5 188,-312.5 508,-312.5 508,-282.5 188,-282.5"/>
<text text-anchor="start" x="194.7609" y="-293.9" font-family="Arial" font-size="14.00" fill="#000000">last_update_time    </text>
<text text-anchor="start" x="335.5547" y="-293.9" font-family="Arial" font-size="14.00" fill="#666666">[timestamp with time zone]</text>
<polygon fill="none" stroke="#000000" points="188,-252.5 188,-282.5 508,-282.5 508,-252.5 188,-252.5"/>
<text text-anchor="start" x="195" y="-263.9" font-family="Arial" font-size="14.00" fill="#000000">pref_prefix    </text>
<text text-anchor="start" x="295.3268" y="-263.9" font-family="Arial" font-size="14.00" fill="#666666">[text]</text>
<polygon fill="none" stroke="#000000" points="188,-222.5 188,-252.5 508,-252.5 508,-222.5 188,-222.5"/>
<text text-anchor="start" x="195" y="-233.9" font-family="Arial" font-size="14.00" fill="#000000">pref_first_given_name    </text>
<text text-anchor="start" x="367.6802" y="-233.9" font-family="Arial" font-size="14.00" fill="#666666">[text]</text>
<polygon fill="none" stroke="#000000" points="188,-192.5 188,-222.5 508,-222.5 508,-192.5 188,-192.5"/>
<text text-anchor="start" x="195" y="-203.9" font-family="Arial" font-size="14.00" fill="#000000">pref_second_given_name    </text>
<text text-anchor="start" x="390.2622" y="-203.9" font-family="Arial" font-size="14.00" fill="#666666">[text]</text>
<polygon fill="none" stroke="#000000" points="188,-162.5 188,-192.5 508,-192.5 508,-162.5 188,-162.5"/>
<text text-anchor="start" x="195" y="-173.9" font-family="Arial" font-size="14.00" fill="#000000">pref_family_name    </text>
<text text-anchor="start" x="340.4418" y="-173.9" font-family="Arial" font-size="14.00" fill="#666666">[text]</text>
<polygon fill="none" stroke="#000000" points="188,-132.5 188,-162.5 508,-162.5 508,-132.5 188,-132.5"/>
<text text-anchor="start" x="195" y="-143.9" font-family="Arial" font-size="14.00" fill="#000000">pref_suffix    </text>
<text text-anchor="start" x="293.7742" y="-143.9" font-family="Arial" font-size="14.00" fill="#666666">[text]</text>
<polygon fill="none" stroke="#000000" points="188,-102.5 188,-132.5 508,-132.5 508,-102.5 188,-102.5"/>
<text text-anchor="start" x="195" y="-113.9" font-family="Arial" font-size="14.00" fill="#000000">name_keywords    </text>
<text text-anchor="start" x="331.1108" y="-113.9" font-family="Arial" font-size="14.00" fill="#666666">[text]</text>
<polygon fill="none" stroke="#000000" points="188,-72.5 188,-102.5 508,-102.5 508,-72.5 188,-72.5"/>
<text text-anchor="start" x="195" y="-83.9" font-family="Arial" font-size="14.00" fill="#000000">name_kw_tsvector    </text>
<text text-anchor="start" x="345.892" y="-83.9" font-family="Arial" font-size="14.00" fill="#666666">[tsvector]</text>
<polygon fill="none" stroke="#000000" points="188,-42.5 188,-72.5 508,-72.5 508,-42.5 188,-42.5"/>
<text text-anchor="start" x="195" y="-53.9" font-family="Arial" font-size="14.00" fill="#000000">guardian    </text>
<text text-anchor="start" x="283.6676" y="-53.9" font-family="Arial" font-size="14.00" fill="#666666">[text]</text>
</g>
<!-- vandelay.queue&#45;&gt;actor.usr -->
<g id="edge1" class="edge">
<title>vandelay.queue:owner&#45;&gt;actor.usr:id</title>
<path fill="none" stroke="#000000" d="M411.8792,-1776.6712C358.3955,-1767.2467 386.9692,-1679.6402 422,-1627 444.9561,-1592.5043 485.0439,-1625.4957 508,-1591 531.0223,-1556.4047 549.5556,-1497.5 508,-1497.5"/>
<polygon fill="#000000" stroke="#000000" points="412.0334,-1776.6837 421.6327,-1781.985 417.0167,-1777.0919 422,-1777.5 422,-1777.5 422,-1777.5 417.0167,-1777.0919 422.3673,-1773.015 412.0334,-1776.6837 412.0334,-1776.6837"/>
<text text-anchor="start" x="6.831" y="-1787.5" font-family="Arial" font-size="10.00" fill="#000000">FOREIGN KEY (owner) REFERENCES actor.usr(id) DEFERRABLE INITIALLY DEFERRED</text>
</g>
<!-- vandelay.match_set -->
<g id="node3" class="node">
<title>vandelay.match_set</title>
<polygon fill="#efefef" stroke="transparent" points="613,-837.5 613,-872.5 914,-872.5 914,-837.5 613,-837.5"/>
<polygon fill="none" stroke="#000000" points="613,-837.5 613,-872.5 914,-872.5 914,-837.5 613,-837.5"/>
<text text-anchor="start" x="619.6916" y="-850.3" font-family="Arial Bold" font-size="18.00" fill="#000000">vandelay.match_set</text>
<text text-anchor="start" x="779.7404" y="-850.3" font-family="Arial" font-size="14.00" fill="#000000">    </text>
<text text-anchor="start" x="813.9452" y="-850.3" font-family="Arial" font-size="14.00" fill="#666666">[BASE TABLE]</text>
<polygon fill="none" stroke="#000000" points="613,-807.5 613,-837.5 914,-837.5 914,-807.5 613,-807.5"/>
<text text-anchor="start" x="620" y="-818.9" font-family="Arial" font-size="14.00" fill="#000000">id    </text>
<text text-anchor="start" x="665.094" y="-818.9" font-family="Arial" font-size="14.00" fill="#666666">[integer]</text>
<polygon fill="none" stroke="#000000" points="613,-777.5 613,-807.5 914,-807.5 914,-777.5 613,-777.5"/>
<text text-anchor="start" x="620" y="-788.9" font-family="Arial" font-size="14.00" fill="#000000">name    </text>
<text text-anchor="start" x="689.2132" y="-788.9" font-family="Arial" font-size="14.00" fill="#666666">[text]</text>
<polygon fill="none" stroke="#000000" points="613,-747.5 613,-777.5 914,-777.5 914,-747.5 613,-747.5"/>
<text text-anchor="start" x="620" y="-758.9" font-family="Arial" font-size="14.00" fill="#000000">owner    </text>
<text text-anchor="start" x="692.3198" y="-758.9" font-family="Arial" font-size="14.00" fill="#666666">[integer]</text>
<polygon fill="none" stroke="#000000" points="613,-717.5 613,-747.5 914,-747.5 914,-717.5 613,-717.5"/>
<text text-anchor="start" x="620" y="-728.9" font-family="Arial" font-size="14.00" fill="#000000">mtype    </text>
<text text-anchor="start" x="692.3212" y="-728.9" font-family="Arial" font-size="14.00" fill="#666666">[text]</text>
</g>
<!-- vandelay.queue&#45;&gt;vandelay.match_set -->
<g id="edge2" class="edge">
<title>vandelay.queue:match_set&#45;&gt;vandelay.match_set:id</title>
<path fill="none" stroke="#000000" d="M700.0731,-1686.6177C866.0278,-1655.6982 423.5984,-822.5 613,-822.5"/>
<polygon fill="#000000" stroke="#000000" points="699.9619,-1686.6273 689.6073,-1683.0172 694.9809,-1687.0637 690,-1687.5 690,-1687.5 690,-1687.5 694.9809,-1687.0637 690.3927,-1691.9828 699.9619,-1686.6273 699.9619,-1686.6273"/>
<text text-anchor="start" x="697.254" y="-1697.5" font-family="Arial" font-size="10.00" fill="#000000">FOREIGN KEY (match_set) REFERENCES vandelay.match_set(id) ON UPDATE CASCADE ON DELETE SET NULL DEFERRABLE INITIALLY DEFERRED</text>
</g>
</g>
</svg>
