<?xml version="1.0" encoding="UTF-8" standalone="no"?>
<!DOCTYPE svg PUBLIC "-//W3C//DTD SVG 1.1//EN"
 "http://www.w3.org/Graphics/SVG/1.1/DTD/svg11.dtd">
<!-- Generated by graphviz version 2.40.1 (20161225.0304)
 -->
<!-- Title: vandelay.authority_queue Pages: 1 -->
<svg width="1078pt" height="772pt"
 viewBox="0.00 0.00 1078.00 772.00" xmlns="http://www.w3.org/2000/svg" xmlns:xlink="http://www.w3.org/1999/xlink">
<g id="graph0" class="graph" transform="scale(1 1) rotate(0) translate(4 768)">
<title>vandelay.authority_queue</title>
<polygon fill="#ffffff" stroke="transparent" points="-4,4 -4,-768 1074,-768 1074,4 -4,4"/>
<!-- vandelay.authority_queue -->
<g id="node1" class="node">
<title>vandelay.authority_queue</title>
<polygon fill="#efefef" stroke="transparent" points="644,-225.5 644,-260.5 991,-260.5 991,-225.5 644,-225.5"/>
<polygon fill="none" stroke="#000000" points="644,-225.5 644,-260.5 991,-260.5 991,-225.5 644,-225.5"/>
<text text-anchor="start" x="650.6759" y="-238.3" font-family="Arial Bold" font-size="18.00" fill="#000000">vandelay.authority_queue</text>
<text text-anchor="start" x="856.7561" y="-238.3" font-family="Arial" font-size="14.00" fill="#000000">    </text>
<text text-anchor="start" x="890.9609" y="-238.3" font-family="Arial" font-size="14.00" fill="#666666">[BASE TABLE]</text>
<polygon fill="none" stroke="#000000" points="644,-195.5 644,-225.5 991,-225.5 991,-195.5 644,-195.5"/>
<text text-anchor="start" x="651" y="-206.9" font-family="Arial" font-size="14.00" fill="#000000">id </text>
<text text-anchor="start" x="665.7798" y="-206.9" font-family="Arial" font-size="14.00" fill="#666666">[bigint]</text>
<polygon fill="none" stroke="#000000" points="644,-165.5 644,-195.5 991,-195.5 991,-165.5 644,-165.5"/>
<text text-anchor="start" x="651" y="-176.9" font-family="Arial" font-size="14.00" fill="#000000">owner </text>
<text text-anchor="start" x="693.0056" y="-176.9" font-family="Arial" font-size="14.00" fill="#666666">[integer]</text>
<polygon fill="none" stroke="#000000" points="644,-135.5 644,-165.5 991,-165.5 991,-135.5 644,-135.5"/>
<text text-anchor="start" x="651" y="-146.9" font-family="Arial" font-size="14.00" fill="#000000">name </text>
<text text-anchor="start" x="689.899" y="-146.9" font-family="Arial" font-size="14.00" fill="#666666">[text]</text>
<polygon fill="none" stroke="#000000" points="644,-105.5 644,-135.5 991,-135.5 991,-105.5 644,-105.5"/>
<text text-anchor="start" x="651" y="-116.9" font-family="Arial" font-size="14.00" fill="#000000">complete </text>
<text text-anchor="start" x="711.6788" y="-116.9" font-family="Arial" font-size="14.00" fill="#666666">[boolean]</text>
<polygon fill="none" stroke="#000000" points="644,-75.5 644,-105.5 991,-105.5 991,-75.5 644,-75.5"/>
<text text-anchor="start" x="651" y="-86.9" font-family="Arial" font-size="14.00" fill="#000000">match_set </text>
<text text-anchor="start" x="719.4628" y="-86.9" font-family="Arial" font-size="14.00" fill="#666666">[integer]</text>
<polygon fill="none" stroke="#000000" points="644,-45.5 644,-75.5 991,-75.5 991,-45.5 644,-45.5"/>
<text text-anchor="start" x="651" y="-56.9" font-family="Arial" font-size="14.00" fill="#000000">queue_type </text>
<text text-anchor="start" x="728.042" y="-56.9" font-family="Arial" font-size="14.00" fill="#666666">[vandelay.authority_queue_queue_type]</text>
<polygon fill="none" stroke="#000000" stroke-width="3" points="642,-44.5 642,-262.5 992,-262.5 992,-44.5 642,-44.5"/>
</g>
<!-- vandelay.queued_authority_record -->
<g id="node2" class="node">
<title>vandelay.queued_authority_record</title>
<polygon fill="#efefef" stroke="transparent" points="609,-685.5 609,-720.5 1027,-720.5 1027,-685.5 609,-685.5"/>
<polygon fill="none" stroke="#000000" points="609,-685.5 609,-720.5 1027,-720.5 1027,-685.5 609,-685.5"/>
<text text-anchor="start" x="615.6682" y="-698.3" font-family="Arial Bold" font-size="18.00" fill="#000000">vandelay.queued_authority_record</text>
<text text-anchor="start" x="892.7638" y="-698.3" font-family="Arial" font-size="14.00" fill="#000000">    </text>
<text text-anchor="start" x="926.9686" y="-698.3" font-family="Arial" font-size="14.00" fill="#666666">[BASE TABLE]</text>
<polygon fill="none" stroke="#000000" points="609,-655.5 609,-685.5 1027,-685.5 1027,-655.5 609,-655.5"/>
<text text-anchor="start" x="616" y="-666.9" font-family="Arial" font-size="14.00" fill="#000000">id    </text>
<text text-anchor="start" x="661.094" y="-666.9" font-family="Arial" font-size="14.00" fill="#666666">[bigint]</text>
<polygon fill="none" stroke="#000000" points="609,-625.5 609,-655.5 1027,-655.5 1027,-625.5 609,-625.5"/>
<text text-anchor="start" x="616" y="-636.9" font-family="Arial" font-size="14.00" fill="#000000">create_time    </text>
<text text-anchor="start" x="723.3268" y="-636.9" font-family="Arial" font-size="14.00" fill="#666666">[timestamp with time zone]</text>
<polygon fill="none" stroke="#000000" points="609,-595.5 609,-625.5 1027,-625.5 1027,-595.5 609,-595.5"/>
<text text-anchor="start" x="616" y="-606.9" font-family="Arial" font-size="14.00" fill="#000000">import_time    </text>
<text text-anchor="start" x="723.3114" y="-606.9" font-family="Arial" font-size="14.00" fill="#666666">[timestamp with time zone]</text>
<polygon fill="none" stroke="#000000" points="609,-565.5 609,-595.5 1027,-595.5 1027,-565.5 609,-565.5"/>
<text text-anchor="start" x="616" y="-576.9" font-family="Arial" font-size="14.00" fill="#000000">purpose    </text>
<text text-anchor="start" x="700.7784" y="-576.9" font-family="Arial" font-size="14.00" fill="#666666">[text]</text>
<polygon fill="none" stroke="#000000" points="609,-535.5 609,-565.5 1027,-565.5 1027,-535.5 609,-535.5"/>
<text text-anchor="start" x="616" y="-546.9" font-family="Arial" font-size="14.00" fill="#000000">marc    </text>
<text text-anchor="start" x="681.3086" y="-546.9" font-family="Arial" font-size="14.00" fill="#666666">[text]</text>
<polygon fill="none" stroke="#000000" points="609,-505.5 609,-535.5 1027,-535.5 1027,-505.5 609,-505.5"/>
<text text-anchor="start" x="616" y="-516.9" font-family="Arial" font-size="14.00" fill="#000000">quality    </text>
<text text-anchor="start" x="690.6564" y="-516.9" font-family="Arial" font-size="14.00" fill="#666666">[integer]</text>
<polygon fill="none" stroke="#000000" points="609,-475.5 609,-505.5 1027,-505.5 1027,-475.5 609,-475.5"/>
<text text-anchor="start" x="616" y="-486.9" font-family="Arial" font-size="14.00" fill="#000000">queue    </text>
<text text-anchor="start" x="689.1178" y="-486.9" font-family="Arial" font-size="14.00" fill="#666666">[integer]</text>
<polygon fill="none" stroke="#000000" points="609,-445.5 609,-475.5 1027,-475.5 1027,-445.5 609,-445.5"/>
<text text-anchor="start" x="616" y="-456.9" font-family="Arial" font-size="14.00" fill="#000000">imported_as    </text>
<text text-anchor="start" x="727.2188" y="-456.9" font-family="Arial" font-size="14.00" fill="#666666">[integer]</text>
<polygon fill="none" stroke="#000000" points="609,-415.5 609,-445.5 1027,-445.5 1027,-415.5 609,-415.5"/>
<text text-anchor="start" x="616" y="-426.9" font-family="Arial" font-size="14.00" fill="#000000">import_error    </text>
<text text-anchor="start" x="726.418" y="-426.9" font-family="Arial" font-size="14.00" fill="#666666">[text]</text>
<polygon fill="none" stroke="#000000" points="609,-385.5 609,-415.5 1027,-415.5 1027,-385.5 609,-385.5"/>
<text text-anchor="start" x="616" y="-396.9" font-family="Arial" font-size="14.00" fill="#000000">error_detail    </text>
<text text-anchor="start" x="720.986" y="-396.9" font-family="Arial" font-size="14.00" fill="#666666">[text]</text>
</g>
<!-- vandelay.queued_authority_record&#45;&gt;vandelay.authority_queue -->
<g id="edge1" class="edge">
<title>vandelay.queued_authority_record:queue&#45;&gt;vandelay.authority_queue:id</title>
<path fill="none" stroke="#000000" d="M599.0147,-489.636C545.8561,-479.8209 567.2866,-388.8294 609,-343 666.3934,-279.9435 933.6066,-370.0565 991,-307 1019.8693,-275.2821 1033.8889,-210.5 991,-210.5"/>
<polygon fill="#000000" stroke="#000000" points="599.0372,-489.6379 608.6121,-494.9833 604.0186,-490.0689 609,-490.5 609,-490.5 609,-490.5 604.0186,-490.0689 609.3879,-486.0167 599.0372,-489.6379 599.0372,-489.6379"/>
<text text-anchor="start" x="7.467" y="-500.5" font-family="Arial" font-size="10.00" fill="#000000">FOREIGN KEY (queue) REFERENCES vandelay.authority_queue(id) ON DELETE CASCADE DEFERRABLE INITIALLY DEFERRED</text>
</g>
</g>
</svg>
