<?xml version="1.0" encoding="UTF-8" standalone="no"?>
<!DOCTYPE svg PUBLIC "-//W3C//DTD SVG 1.1//EN"
 "http://www.w3.org/Graphics/SVG/1.1/DTD/svg11.dtd">
<!-- Generated by graphviz version 2.40.1 (20161225.0304)
 -->
<!-- Title: vandelay.bib_match Pages: 1 -->
<svg width="1565pt" height="1012pt"
 viewBox="0.00 0.00 1565.00 1012.00" xmlns="http://www.w3.org/2000/svg" xmlns:xlink="http://www.w3.org/1999/xlink">
<g id="graph0" class="graph" transform="scale(1 1) rotate(0) translate(4 1008)">
<title>vandelay.bib_match</title>
<polygon fill="#ffffff" stroke="transparent" points="-4,4 -4,-1008 1561,-1008 1561,4 -4,4"/>
<!-- vandelay.bib_match -->
<g id="node1" class="node">
<title>vandelay.bib_match</title>
<polygon fill="#efefef" stroke="transparent" points="662,-922.5 662,-957.5 963,-957.5 963,-922.5 662,-922.5"/>
<polygon fill="none" stroke="#000000" points="662,-922.5 662,-957.5 963,-957.5 963,-922.5 662,-922.5"/>
<text text-anchor="start" x="668.6925" y="-935.3" font-family="Arial Bold" font-size="18.00" fill="#000000">vandelay.bib_match</text>
<text text-anchor="start" x="828.7395" y="-935.3" font-family="Arial" font-size="14.00" fill="#000000">    </text>
<text text-anchor="start" x="862.9443" y="-935.3" font-family="Arial" font-size="14.00" fill="#666666">[BASE TABLE]</text>
<polygon fill="none" stroke="#000000" points="662,-892.5 662,-922.5 963,-922.5 963,-892.5 662,-892.5"/>
<text text-anchor="start" x="669" y="-903.9" font-family="Arial" font-size="14.00" fill="#000000">id </text>
<text text-anchor="start" x="683.7798" y="-903.9" font-family="Arial" font-size="14.00" fill="#666666">[bigint]</text>
<polygon fill="none" stroke="#000000" points="662,-862.5 662,-892.5 963,-892.5 963,-862.5 662,-862.5"/>
<text text-anchor="start" x="669" y="-873.9" font-family="Arial" font-size="14.00" fill="#000000">queued_record </text>
<text text-anchor="start" x="767.0378" y="-873.9" font-family="Arial" font-size="14.00" fill="#666666">[bigint]</text>
<polygon fill="none" stroke="#000000" points="662,-832.5 662,-862.5 963,-862.5 963,-832.5 662,-832.5"/>
<text text-anchor="start" x="669" y="-843.9" font-family="Arial" font-size="14.00" fill="#000000">eg_record </text>
<text text-anchor="start" x="735.9074" y="-843.9" font-family="Arial" font-size="14.00" fill="#666666">[bigint]</text>
<polygon fill="none" stroke="#000000" points="662,-802.5 662,-832.5 963,-832.5 963,-802.5 662,-802.5"/>
<text text-anchor="start" x="669" y="-813.9" font-family="Arial" font-size="14.00" fill="#000000">quality </text>
<text text-anchor="start" x="713.3422" y="-813.9" font-family="Arial" font-size="14.00" fill="#666666">[integer]</text>
<polygon fill="none" stroke="#000000" points="662,-772.5 662,-802.5 963,-802.5 963,-772.5 662,-772.5"/>
<text text-anchor="start" x="669" y="-783.9" font-family="Arial" font-size="14.00" fill="#000000">match_score </text>
<text text-anchor="start" x="753.0154" y="-783.9" font-family="Arial" font-size="14.00" fill="#666666">[integer]</text>
<polygon fill="none" stroke="#000000" stroke-width="3" points="660,-771.5 660,-959.5 964,-959.5 964,-771.5 660,-771.5"/>
</g>
<!-- vandelay.queued_bib_record -->
<g id="node2" class="node">
<title>vandelay.queued_bib_record</title>
<polygon fill="#efefef" stroke="transparent" points="409,-492.5 409,-527.5 782,-527.5 782,-492.5 409,-492.5"/>
<polygon fill="none" stroke="#000000" points="409,-492.5 409,-527.5 782,-527.5 782,-492.5 409,-492.5"/>
<text text-anchor="start" x="415.6727" y="-505.3" font-family="Arial Bold" font-size="18.00" fill="#000000">vandelay.queued_bib_record</text>
<text text-anchor="start" x="647.7593" y="-505.3" font-family="Arial" font-size="14.00" fill="#000000">    </text>
<text text-anchor="start" x="681.9641" y="-505.3" font-family="Arial" font-size="14.00" fill="#666666">[BASE TABLE]</text>
<polygon fill="none" stroke="#000000" points="409,-462.5 409,-492.5 782,-492.5 782,-462.5 409,-462.5"/>
<text text-anchor="start" x="416" y="-473.9" font-family="Arial" font-size="14.00" fill="#000000">id    </text>
<text text-anchor="start" x="461.094" y="-473.9" font-family="Arial" font-size="14.00" fill="#666666">[bigint]</text>
<polygon fill="none" stroke="#000000" points="409,-432.5 409,-462.5 782,-462.5 782,-432.5 409,-432.5"/>
<text text-anchor="start" x="416" y="-443.9" font-family="Arial" font-size="14.00" fill="#000000">create_time    </text>
<text text-anchor="start" x="523.3268" y="-443.9" font-family="Arial" font-size="14.00" fill="#666666">[timestamp with time zone]</text>
<polygon fill="none" stroke="#000000" points="409,-402.5 409,-432.5 782,-432.5 782,-402.5 409,-402.5"/>
<text text-anchor="start" x="416" y="-413.9" font-family="Arial" font-size="14.00" fill="#000000">import_time    </text>
<text text-anchor="start" x="523.3114" y="-413.9" font-family="Arial" font-size="14.00" fill="#666666">[timestamp with time zone]</text>
<polygon fill="none" stroke="#000000" points="409,-372.5 409,-402.5 782,-402.5 782,-372.5 409,-372.5"/>
<text text-anchor="start" x="416" y="-383.9" font-family="Arial" font-size="14.00" fill="#000000">purpose    </text>
<text text-anchor="start" x="500.7784" y="-383.9" font-family="Arial" font-size="14.00" fill="#666666">[text]</text>
<polygon fill="none" stroke="#000000" points="409,-342.5 409,-372.5 782,-372.5 782,-342.5 409,-342.5"/>
<text text-anchor="start" x="416" y="-353.9" font-family="Arial" font-size="14.00" fill="#000000">marc    </text>
<text text-anchor="start" x="481.3086" y="-353.9" font-family="Arial" font-size="14.00" fill="#666666">[text]</text>
<polygon fill="none" stroke="#000000" points="409,-312.5 409,-342.5 782,-342.5 782,-312.5 409,-312.5"/>
<text text-anchor="start" x="416" y="-323.9" font-family="Arial" font-size="14.00" fill="#000000">quality    </text>
<text text-anchor="start" x="490.6564" y="-323.9" font-family="Arial" font-size="14.00" fill="#666666">[integer]</text>
<polygon fill="none" stroke="#000000" points="409,-282.5 409,-312.5 782,-312.5 782,-282.5 409,-282.5"/>
<text text-anchor="start" x="416" y="-293.9" font-family="Arial" font-size="14.00" fill="#000000">queue    </text>
<text text-anchor="start" x="489.1178" y="-293.9" font-family="Arial" font-size="14.00" fill="#666666">[integer]</text>
<polygon fill="none" stroke="#000000" points="409,-252.5 409,-282.5 782,-282.5 782,-252.5 409,-252.5"/>
<text text-anchor="start" x="416" y="-263.9" font-family="Arial" font-size="14.00" fill="#000000">bib_source    </text>
<text text-anchor="start" x="518.6676" y="-263.9" font-family="Arial" font-size="14.00" fill="#666666">[integer]</text>
<polygon fill="none" stroke="#000000" points="409,-222.5 409,-252.5 782,-252.5 782,-222.5 409,-222.5"/>
<text text-anchor="start" x="416" y="-233.9" font-family="Arial" font-size="14.00" fill="#000000">imported_as    </text>
<text text-anchor="start" x="527.2188" y="-233.9" font-family="Arial" font-size="14.00" fill="#666666">[bigint]</text>
<polygon fill="none" stroke="#000000" points="409,-192.5 409,-222.5 782,-222.5 782,-192.5 409,-192.5"/>
<text text-anchor="start" x="416" y="-203.9" font-family="Arial" font-size="14.00" fill="#000000">import_error    </text>
<text text-anchor="start" x="526.418" y="-203.9" font-family="Arial" font-size="14.00" fill="#666666">[text]</text>
<polygon fill="none" stroke="#000000" points="409,-162.5 409,-192.5 782,-192.5 782,-162.5 409,-162.5"/>
<text text-anchor="start" x="416" y="-173.9" font-family="Arial" font-size="14.00" fill="#000000">error_detail    </text>
<text text-anchor="start" x="520.986" y="-173.9" font-family="Arial" font-size="14.00" fill="#666666">[text]</text>
</g>
<!-- vandelay.bib_match&#45;&gt;vandelay.queued_bib_record -->
<g id="edge1" class="edge">
<title>vandelay.bib_match:queued_record&#45;&gt;vandelay.queued_bib_record:id</title>
<path fill="none" stroke="#000000" d="M652.0108,-876.736C600.0001,-868.0367 641.6393,-786.8631 662,-727 690.1669,-644.1859 753.8331,-653.8141 782,-571 795.3811,-531.6578 823.5556,-477.5 782,-477.5"/>
<polygon fill="#000000" stroke="#000000" points="652.0291,-876.7373 661.6568,-881.9869 657.0146,-877.1187 662,-877.5 662,-877.5 662,-877.5 657.0146,-877.1187 662.3432,-873.0131 652.0291,-876.7373 652.0291,-876.7373"/>
<text text-anchor="start" x="6.5165" y="-887.5" font-family="Arial" font-size="10.00" fill="#000000">FOREIGN KEY (queued_record) REFERENCES vandelay.queued_bib_record(id) ON DELETE CASCADE DEFERRABLE INITIALLY DEFERRED</text>
</g>
<!-- biblio.record_entry -->
<g id="node3" class="node">
<title>biblio.record_entry</title>
<polygon fill="#efefef" stroke="transparent" points="886,-612.5 886,-647.5 1175,-647.5 1175,-612.5 886,-612.5"/>
<polygon fill="none" stroke="#000000" points="886,-612.5 886,-647.5 1175,-647.5 1175,-612.5 886,-612.5"/>
<text text-anchor="start" x="892.7063" y="-625.3" font-family="Arial Bold" font-size="18.00" fill="#000000">biblio.record_entry</text>
<text text-anchor="start" x="1040.7257" y="-625.3" font-family="Arial" font-size="14.00" fill="#000000">    </text>
<text text-anchor="start" x="1074.9305" y="-625.3" font-family="Arial" font-size="14.00" fill="#666666">[BASE TABLE]</text>
<polygon fill="none" stroke="#000000" points="886,-582.5 886,-612.5 1175,-612.5 1175,-582.5 886,-582.5"/>
<text text-anchor="start" x="893" y="-593.9" font-family="Arial" font-size="14.00" fill="#000000">id    </text>
<text text-anchor="start" x="938.094" y="-593.9" font-family="Arial" font-size="14.00" fill="#666666">[bigint]</text>
<polygon fill="none" stroke="#000000" points="886,-552.5 886,-582.5 1175,-582.5 1175,-552.5 886,-552.5"/>
<text text-anchor="start" x="893" y="-563.9" font-family="Arial" font-size="14.00" fill="#000000">creator    </text>
<text text-anchor="start" x="970.7644" y="-563.9" font-family="Arial" font-size="14.00" fill="#666666">[integer]</text>
<polygon fill="none" stroke="#000000" points="886,-522.5 886,-552.5 1175,-552.5 1175,-522.5 886,-522.5"/>
<text text-anchor="start" x="893" y="-533.9" font-family="Arial" font-size="14.00" fill="#000000">editor    </text>
<text text-anchor="start" x="962.2104" y="-533.9" font-family="Arial" font-size="14.00" fill="#666666">[integer]</text>
<polygon fill="none" stroke="#000000" points="886,-492.5 886,-522.5 1175,-522.5 1175,-492.5 886,-492.5"/>
<text text-anchor="start" x="893" y="-503.9" font-family="Arial" font-size="14.00" fill="#000000">source    </text>
<text text-anchor="start" x="969.2132" y="-503.9" font-family="Arial" font-size="14.00" fill="#666666">[integer]</text>
<polygon fill="none" stroke="#000000" points="886,-462.5 886,-492.5 1175,-492.5 1175,-462.5 886,-462.5"/>
<text text-anchor="start" x="893" y="-473.9" font-family="Arial" font-size="14.00" fill="#000000">quality    </text>
<text text-anchor="start" x="967.6564" y="-473.9" font-family="Arial" font-size="14.00" fill="#666666">[integer]</text>
<polygon fill="none" stroke="#000000" points="886,-432.5 886,-462.5 1175,-462.5 1175,-432.5 886,-432.5"/>
<text text-anchor="start" x="893" y="-443.9" font-family="Arial" font-size="14.00" fill="#000000">create_date    </text>
<text text-anchor="start" x="1001.1248" y="-443.9" font-family="Arial" font-size="14.00" fill="#666666">[timestamp with time zone]</text>
<polygon fill="none" stroke="#000000" points="886,-402.5 886,-432.5 1175,-432.5 1175,-402.5 886,-402.5"/>
<text text-anchor="start" x="893" y="-413.9" font-family="Arial" font-size="14.00" fill="#000000">edit_date    </text>
<text text-anchor="start" x="984.7882" y="-413.9" font-family="Arial" font-size="14.00" fill="#666666">[timestamp with time zone]</text>
<polygon fill="none" stroke="#000000" points="886,-372.5 886,-402.5 1175,-402.5 1175,-372.5 886,-372.5"/>
<text text-anchor="start" x="893" y="-383.9" font-family="Arial" font-size="14.00" fill="#000000">active    </text>
<text text-anchor="start" x="963.7672" y="-383.9" font-family="Arial" font-size="14.00" fill="#666666">[boolean]</text>
<polygon fill="none" stroke="#000000" points="886,-342.5 886,-372.5 1175,-372.5 1175,-342.5 886,-342.5"/>
<text text-anchor="start" x="893" y="-353.9" font-family="Arial" font-size="14.00" fill="#000000">deleted    </text>
<text text-anchor="start" x="973.115" y="-353.9" font-family="Arial" font-size="14.00" fill="#666666">[boolean]</text>
<polygon fill="none" stroke="#000000" points="886,-312.5 886,-342.5 1175,-342.5 1175,-312.5 886,-312.5"/>
<text text-anchor="start" x="893" y="-323.9" font-family="Arial" font-size="14.00" fill="#000000">fingerprint    </text>
<text text-anchor="start" x="989.4334" y="-323.9" font-family="Arial" font-size="14.00" fill="#666666">[text]</text>
<polygon fill="none" stroke="#000000" points="886,-282.5 886,-312.5 1175,-312.5 1175,-282.5 886,-282.5"/>
<text text-anchor="start" x="893" y="-293.9" font-family="Arial" font-size="14.00" fill="#000000">tcn_source    </text>
<text text-anchor="start" x="995.669" y="-293.9" font-family="Arial" font-size="14.00" fill="#666666">[text]</text>
<polygon fill="none" stroke="#000000" points="886,-252.5 886,-282.5 1175,-282.5 1175,-252.5 886,-252.5"/>
<text text-anchor="start" x="893" y="-263.9" font-family="Arial" font-size="14.00" fill="#000000">tcn_value    </text>
<text text-anchor="start" x="987.115" y="-263.9" font-family="Arial" font-size="14.00" fill="#666666">[text]</text>
<polygon fill="none" stroke="#000000" points="886,-222.5 886,-252.5 1175,-252.5 1175,-222.5 886,-222.5"/>
<text text-anchor="start" x="893" y="-233.9" font-family="Arial" font-size="14.00" fill="#000000">marc    </text>
<text text-anchor="start" x="958.3086" y="-233.9" font-family="Arial" font-size="14.00" fill="#666666">[text]</text>
<polygon fill="none" stroke="#000000" points="886,-192.5 886,-222.5 1175,-222.5 1175,-192.5 886,-192.5"/>
<text text-anchor="start" x="893" y="-203.9" font-family="Arial" font-size="14.00" fill="#000000">last_xact_id    </text>
<text text-anchor="start" x="1001.1122" y="-203.9" font-family="Arial" font-size="14.00" fill="#666666">[text]</text>
<polygon fill="none" stroke="#000000" points="886,-162.5 886,-192.5 1175,-192.5 1175,-162.5 886,-162.5"/>
<text text-anchor="start" x="893" y="-173.9" font-family="Arial" font-size="14.00" fill="#000000">vis_attr_vector    </text>
<text text-anchor="start" x="1018.2174" y="-173.9" font-family="Arial" font-size="14.00" fill="#666666">[integer[]]</text>
<polygon fill="none" stroke="#000000" points="886,-132.5 886,-162.5 1175,-162.5 1175,-132.5 886,-132.5"/>
<text text-anchor="start" x="893" y="-143.9" font-family="Arial" font-size="14.00" fill="#000000">owner    </text>
<text text-anchor="start" x="965.3198" y="-143.9" font-family="Arial" font-size="14.00" fill="#666666">[integer]</text>
<polygon fill="none" stroke="#000000" points="886,-102.5 886,-132.5 1175,-132.5 1175,-102.5 886,-102.5"/>
<text text-anchor="start" x="893" y="-113.9" font-family="Arial" font-size="14.00" fill="#000000">share_depth    </text>
<text text-anchor="start" x="1005.0168" y="-113.9" font-family="Arial" font-size="14.00" fill="#666666">[integer]</text>
<polygon fill="none" stroke="#000000" points="886,-72.5 886,-102.5 1175,-102.5 1175,-72.5 886,-72.5"/>
<text text-anchor="start" x="893" y="-83.9" font-family="Arial" font-size="14.00" fill="#000000">merge_date    </text>
<text text-anchor="start" x="1001.8948" y="-83.9" font-family="Arial" font-size="14.00" fill="#666666">[timestamp with time zone]</text>
<polygon fill="none" stroke="#000000" points="886,-42.5 886,-72.5 1175,-72.5 1175,-42.5 886,-42.5"/>
<text text-anchor="start" x="893" y="-53.9" font-family="Arial" font-size="14.00" fill="#000000">merged_to    </text>
<text text-anchor="start" x="994.1122" y="-53.9" font-family="Arial" font-size="14.00" fill="#666666">[bigint]</text>
</g>
<!-- vandelay.bib_match&#45;&gt;biblio.record_entry -->
<g id="edge2" class="edge">
<title>vandelay.bib_match:eg_record&#45;&gt;biblio.record_entry:id</title>
<path fill="none" stroke="#000000" d="M973.1606,-846.4196C1013.0481,-837.0575 989.731,-769.0058 963,-727 942.718,-695.1283 906.282,-722.8717 886,-691 863.6898,-655.9412 844.4444,-597.5 886,-597.5"/>
<polygon fill="#000000" stroke="#000000" points="972.9439,-846.4425 962.5241,-843.0252 967.972,-846.9713 963,-847.5 963,-847.5 963,-847.5 967.972,-846.9713 963.4759,-851.9748 972.9439,-846.4425 972.9439,-846.4425"/>
<text text-anchor="start" x="969.9865" y="-857.5" font-family="Arial" font-size="10.00" fill="#000000">FOREIGN KEY (eg_record) REFERENCES biblio.record_entry(id) ON DELETE CASCADE DEFERRABLE INITIALLY DEFERRED</text>
</g>
</g>
</svg>
